<?xml version="1.0" encoding="UTF-8" standalone="no"?>
<!-- Created with Inkscape (http://www.inkscape.org/) -->

<svg
   xmlns:dc="http://purl.org/dc/elements/1.1/"
   xmlns:cc="http://creativecommons.org/ns#"
   xmlns:rdf="http://www.w3.org/1999/02/22-rdf-syntax-ns#"
   xmlns:svg="http://www.w3.org/2000/svg"
   xmlns="http://www.w3.org/2000/svg"
   xmlns:sodipodi="http://sodipodi.sourceforge.net/DTD/sodipodi-0.dtd"
   xmlns:inkscape="http://www.inkscape.org/namespaces/inkscape"
   width="178"
   height="150"
   id="svg8313"
   version="1.1"
   inkscape:version="0.91 r13725"
   sodipodi:docname="openbeautyfacts-logo-en.svg"
   inkscape:export-filename="C:\Users\Stéphane\Desktop\Blogs\OpenBeautyFacts\openbeautyfacts-logo-en-178x150.png"
   inkscape:export-xdpi="90"
   inkscape:export-ydpi="90">
  <defs
     id="defs8315" />
  <sodipodi:namedview
     id="base"
     pagecolor="#ffffff"
     bordercolor="#666666"
     borderopacity="1.0"
     inkscape:pageopacity="0.0"
     inkscape:pageshadow="2"
     inkscape:zoom="3.1916204"
     inkscape:cx="4.0344551"
     inkscape:cy="69.217839"
     inkscape:document-units="px"
     inkscape:current-layer="layer1"
     showgrid="true"
     inkscape:window-width="1920"
     inkscape:window-height="1018"
     inkscape:window-x="-8"
     inkscape:window-y="-8"
     inkscape:window-maximized="1"
     inkscape:snap-global="true">
    <inkscape:grid
       type="xygrid"
       id="grid8566" />
  </sodipodi:namedview>
  <metadata
     id="metadata8318">
    <rdf:RDF>
      <cc:Work
         rdf:about="">
        <dc:format>image/svg+xml</dc:format>
        <dc:type
           rdf:resource="http://purl.org/dc/dcmitype/StillImage" />
        <dc:title></dc:title>
      </cc:Work>
    </rdf:RDF>
  </metadata>
  <g
     inkscape:label="Calque 1"
     inkscape:groupmode="layer"
     id="layer1">
    <g
       transform="scale(0.90339875,1.1069309)"
       style="font-style:normal;font-variant:normal;font-weight:normal;font-stretch:normal;font-size:41.98085785px;line-height:125%;font-family:'Arial Narrow';-inkscape-font-specification:'Arial Narrow';letter-spacing:0px;word-spacing:0px;fill:#333333;fill-opacity:1;stroke:none"
       id="text3715-8">
      <path
         d="m 4.017988,126.56211 0.1873885,1.48974 q -0.571535,0.14991 -1.030637,0.14991 -0.7214459,0 -1.161809,-0.28108 -0.440363,-0.29046 -0.6090127,-0.78704 -0.1592803,-0.49658 -0.1592803,-1.97694 l 0,-5.72472 -1.01189815,0 0,-1.31172 1.01189815,0 0,-2.46416 1.3773058,-1.0119 0,3.47606 1.3960447,0 0,1.31172 -1.3960447,0 0,5.81841 q 0,0.80577 0.1218026,1.04001 0.1780191,0.3373 0.6652293,0.3373 0.2342357,0 0.6090128,-0.0656 z"
         style="font-size:19.18858719px;fill:#333333;fill-opacity:1"
         id="path6131" />
      <path
         d="m 5.3203384,128.07059 0,-13.73558 1.3773058,0 0,4.92832 q 0.4872102,-0.68397 1.096223,-1.02127 0.6183822,-0.34667 1.358567,-0.34667 1.3023508,0 2.0519048,0.83388 0.758923,0.82451 0.758923,3.03569 l 0,6.30563 -1.377305,0 0,-6.30563 q 0,-1.29298 -0.459102,-1.85514 -0.4591023,-0.56217 -1.2648731,-0.56217 -0.899465,0 -1.5365861,0.72145 -0.6277516,0.72144 -0.6277516,2.55785 l 0,5.44364 -1.3773058,0 z"
         style="font-size:19.18858719px;fill:#333333;fill-opacity:1"
         id="path6133" />
      <path
         d="m 19.674302,124.86624 1.424152,0.2155 q -0.356038,1.5928 -1.29298,2.40794 -0.927574,0.80577 -2.30488,0.80577 -1.733344,0 -2.810828,-1.31172 -1.068115,-1.32109 -1.068115,-3.80398 0,-2.5766 1.077485,-3.92579 1.086853,-1.35857 2.745242,-1.35857 1.583433,0 2.642178,1.33046 1.058746,1.33046 1.058746,3.85083 l -0.0094,0.44973 -6.090128,0 q 0.08432,1.67713 0.777663,2.52975 0.693338,0.85262 1.686497,0.85262 1.555325,0 2.164338,-2.04254 z m -4.544173,-2.7265 4.553542,0 q -0.09369,-1.29298 -0.552796,-1.9301 -0.66523,-0.92758 -1.695867,-0.92758 -0.927573,0 -1.583433,0.77767 -0.65586,0.76829 -0.721446,2.08001 z"
         style="font-size:19.18858719px;fill:#333333;fill-opacity:1"
         id="path6135" />
      <path
         d="m 27.638315,128.07059 0,-8.63861 -1.227395,0 0,-1.31172 1.227395,0 0,-1.05875 q 0,-1.17118 0.243605,-1.75208 0.243605,-0.59028 0.740185,-0.89947 0.505949,-0.30919 1.264873,-0.30919 0.590274,0 1.292981,0.16865 l -0.206128,1.471 q -0.430993,-0.0937 -0.81514,-0.0937 -0.618382,0 -0.890095,0.32793 -0.262344,0.31856 -0.262344,1.22739 l 0,0.91821 1.592802,0 0,1.31172 -1.592802,0 0,8.63861 -1.367937,0 z"
         style="font-size:19.18858719px;fill:#333333;fill-opacity:1"
         id="path6137" />
      <path
         d="m 31.629691,128.07059 0,-9.95033 1.246134,0 0,1.50847 q 0.47784,-1.04937 0.871356,-1.38667 0.402886,-0.34667 0.899465,-0.34667 0.693338,0 1.414784,0.54343 l -0.468471,1.56469 q -0.515319,-0.36541 -1.002529,-0.36541 -0.440363,0 -0.805771,0.30919 -0.365408,0.30919 -0.515318,0.86199 -0.262344,0.96505 -0.262344,2.05191 l 0,5.2094 -1.377306,0 z"
         style="font-size:19.18858719px;fill:#333333;fill-opacity:1"
         id="path6139" />
      <path
         d="m 42.460749,124.86624 1.424153,0.2155 q -0.356038,1.5928 -1.292981,2.40794 -0.927573,0.80577 -2.304879,0.80577 -1.733344,0 -2.810828,-1.31172 -1.068115,-1.32109 -1.068115,-3.80398 0,-2.5766 1.077484,-3.92579 1.086854,-1.35857 2.745242,-1.35857 1.583434,0 2.642179,1.33046 1.058745,1.33046 1.058745,3.85083 l -0.0094,0.44973 -6.090128,0 q 0.08432,1.67713 0.777662,2.52975 0.693338,0.85262 1.686497,0.85262 1.555325,0 2.164338,-2.04254 z m -4.544172,-2.7265 4.553541,0 q -0.09369,-1.29298 -0.552796,-1.9301 -0.665229,-0.92758 -1.695866,-0.92758 -0.927573,0 -1.583433,0.77767 -0.65586,0.76829 -0.721446,2.08001 z"
         style="font-size:19.18858719px;fill:#333333;fill-opacity:1"
         id="path6141" />
      <path
         d="m 51.230532,124.86624 1.424153,0.2155 q -0.356038,1.5928 -1.292981,2.40794 -0.927573,0.80577 -2.304879,0.80577 -1.733344,0 -2.810828,-1.31172 -1.068115,-1.32109 -1.068115,-3.80398 0,-2.5766 1.077484,-3.92579 1.086854,-1.35857 2.745242,-1.35857 1.583434,0 2.642179,1.33046 1.058745,1.33046 1.058745,3.85083 l -0.0094,0.44973 -6.090128,0 q 0.08432,1.67713 0.777662,2.52975 0.693338,0.85262 1.686497,0.85262 1.555325,0 2.164338,-2.04254 z m -4.544172,-2.7265 4.553541,0 q -0.09369,-1.29298 -0.552796,-1.9301 -0.665229,-0.92758 -1.695866,-0.92758 -0.927573,0 -1.583433,0.77767 -0.65586,0.76829 -0.721446,2.08001 z"
         style="font-size:19.18858719px;fill:#333333;fill-opacity:1"
         id="path6143" />
      <path
         d="m 64.150971,124.42588 1.358567,0.2155 q -0.234236,1.78019 -1.180548,2.71713 -0.936943,0.93694 -2.258032,0.93694 -1.602172,0 -2.642178,-1.31172 -1.030637,-1.32109 -1.030637,-3.89768 0,-2.59533 1.040006,-3.88831 1.049376,-1.30235 2.689026,-1.30235 1.264872,0 2.12686,0.78703 0.871356,0.78703 1.114961,2.3611 l -1.339828,0.25297 q -0.196758,-1.0119 -0.683968,-1.50848 -0.48721,-0.50595 -1.171178,-0.50595 -1.021268,0 -1.695867,0.90884 -0.665229,0.89946 -0.665229,2.86704 0,2.03317 0.637121,2.942 0.646491,0.90884 1.649019,0.90884 0.787032,0 1.339828,-0.59965 0.562166,-0.60901 0.712077,-1.88325 z"
         style="font-size:19.18858719px;fill:#333333;fill-opacity:1"
         id="path6145" />
      <path
         d="m 66.156029,123.09542 q 0,-2.57659 1.077484,-3.88831 1.086853,-1.31172 2.745242,-1.31172 1.63028,0 2.726503,1.31172 1.096223,1.31172 1.096223,3.78525 0,2.67965 -1.077484,3.99137 -1.077484,1.31172 -2.745242,1.31172 -1.63965,0 -2.735873,-1.31172 -1.086853,-1.32109 -1.086853,-3.88831 z m 1.414783,0 q 0,1.9301 0.702707,2.87642 0.702707,0.93694 1.742714,0.93694 0.97442,0 1.667758,-0.94631 0.702707,-0.95569 0.702707,-2.86705 0,-1.92073 -0.702707,-2.85767 -0.702707,-0.94632 -1.742714,-0.94632 -0.983789,0 -1.677127,0.94632 -0.693338,0.94631 -0.693338,2.85767 z"
         style="font-size:19.18858719px;fill:#333333;fill-opacity:1"
         id="path6147" />
      <path
         d="m 74.916442,125.10048 1.367937,-0.26235 q 0.121802,1.04938 0.665229,1.5647 0.543427,0.50595 1.442892,0.50595 0.899465,0 1.386675,-0.44036 0.49658,-0.44974 0.49658,-1.13371 0,-0.59027 -0.421624,-0.9182 -0.290453,-0.22487 -1.405415,-0.56217 -1.611541,-0.49657 -2.154968,-0.84324 -0.543427,-0.34667 -0.843248,-0.92758 -0.299822,-0.5809 -0.299822,-1.32109 0,-1.27424 0.81514,-2.07064 0.81514,-0.7964 2.258032,-0.7964 0.908835,0 1.592803,0.32793 0.693337,0.32793 1.058745,0.88073 0.365408,0.55279 0.505949,1.58343 l -1.349197,0.22486 q -0.187389,-1.63028 -1.770822,-1.63028 -0.899465,0 -1.339828,0.36541 -0.440363,0.35604 -0.440363,0.91821 0,0.55279 0.421624,0.87135 0.252974,0.18739 1.499108,0.59965 1.714606,0.55279 2.220555,0.88072 0.505949,0.31856 0.787032,0.88073 0.281082,0.55279 0.281082,1.32109 0,1.42415 -0.908834,2.30488 -0.899465,0.88072 -2.46416,0.88072 -2.93263,0 -3.401102,-3.20434 z"
         style="font-size:19.18858719px;fill:#333333;fill-opacity:1"
         id="path6149" />
      <path
         d="m 83.330192,128.07059 0,-9.95033 1.236765,0 0,1.39604 q 0.412255,-0.77766 1.058745,-1.19929 0.646491,-0.42162 1.414784,-0.42162 0.861987,0 1.452261,0.44973 0.599643,0.44036 0.852618,1.29298 0.48721,-0.87135 1.114962,-1.30235 0.637121,-0.44036 1.405414,-0.44036 1.171178,0 1.845777,0.7964 0.674599,0.7964 0.674599,2.54848 l 0,6.83032 -1.377306,0 0,-6.26815 q 0,-1.06811 -0.15928,-1.50848 -0.149911,-0.44973 -0.49658,-0.69334 -0.346669,-0.2436 -0.777663,-0.2436 -0.890095,0 -1.452261,0.71208 -0.562165,0.7027 -0.562165,2.22055 l 0,5.78094 -1.386676,0 0,-6.46491 q 0,-1.23676 -0.384146,-1.74271 -0.374777,-0.50595 -1.040007,-0.50595 -0.946312,0 -1.499108,0.76829 -0.543427,0.75893 -0.543427,2.78272 l 0,5.16256 -1.377306,0 z"
         style="font-size:19.18858719px;fill:#333333;fill-opacity:1"
         id="path6151" />
      <path
         d="m 102.01283,124.86624 1.42415,0.2155 q -0.35604,1.5928 -1.29298,2.40794 -0.92757,0.80577 -2.30488,0.80577 -1.733344,0 -2.810828,-1.31172 -1.068115,-1.32109 -1.068115,-3.80398 0,-2.5766 1.077484,-3.92579 1.086854,-1.35857 2.745243,-1.35857 1.583436,0 2.642176,1.33046 1.05875,1.33046 1.05875,3.85083 l -0.009,0.44973 -6.09013,0 q 0.08432,1.67713 0.777663,2.52975 0.693337,0.85262 1.686497,0.85262 1.55532,0 2.16434,-2.04254 z m -4.544175,-2.7265 4.553545,0 q -0.0937,-1.29298 -0.5528,-1.9301 -0.66523,-0.92758 -1.695866,-0.92758 -0.927573,0 -1.583433,0.77767 -0.65586,0.76829 -0.721446,2.08001 z"
         style="font-size:19.18858719px;fill:#333333;fill-opacity:1"
         id="path6153" />
      <path
         d="m 108.28097,126.56211 0.18739,1.48974 q -0.57153,0.14991 -1.03064,0.14991 -0.72144,0 -1.1618,-0.28108 -0.44037,-0.29046 -0.60902,-0.78704 -0.15928,-0.49658 -0.15928,-1.97694 l 0,-5.72472 -1.0119,0 0,-1.31172 1.0119,0 0,-2.46416 1.37731,-1.0119 0,3.47606 1.39604,0 0,1.31172 -1.39604,0 0,5.81841 q 0,0.80577 0.1218,1.04001 0.17802,0.3373 0.66523,0.3373 0.23424,0 0.60901,-0.0656 z"
         style="font-size:19.18858719px;fill:#333333;fill-opacity:1"
         id="path6155" />
      <path
         d="m 109.58333,116.27448 0,-1.93947 1.3773,0 0,1.93947 -1.3773,0 z m 0,11.79611 0,-9.95033 1.3773,0 0,9.95033 -1.3773,0 z"
         style="font-size:19.18858719px;fill:#333333;fill-opacity:1"
         id="path6157" />
      <path
         d="m 118.4187,124.42588 1.35856,0.2155 q -0.23423,1.78019 -1.18054,2.71713 -0.93695,0.93694 -2.25804,0.93694 -1.60217,0 -2.64217,-1.31172 -1.03064,-1.32109 -1.03064,-3.89768 0,-2.59533 1.04001,-3.88831 1.04937,-1.30235 2.68902,-1.30235 1.26487,0 2.12686,0.78703 0.87136,0.78703 1.11496,2.3611 l -1.33982,0.25297 q -0.19676,-1.0119 -0.68397,-1.50848 -0.48721,-0.50595 -1.17118,-0.50595 -1.02127,0 -1.69587,0.90884 -0.66523,0.89946 -0.66523,2.86704 0,2.03317 0.63712,2.942 0.64649,0.90884 1.64902,0.90884 0.78704,0 1.33983,-0.59965 0.56217,-0.60901 0.71208,-1.88325 z"
         style="font-size:19.18858719px;fill:#333333;fill-opacity:1"
         id="path6159" />
      <path
         d="m 120.41438,125.10048 1.36794,-0.26235 q 0.1218,1.04938 0.66523,1.5647 0.54342,0.50595 1.44289,0.50595 0.89946,0 1.38668,-0.44036 0.49657,-0.44974 0.49657,-1.13371 0,-0.59027 -0.42162,-0.9182 -0.29045,-0.22487 -1.40541,-0.56217 -1.61154,-0.49657 -2.15497,-0.84324 -0.54343,-0.34667 -0.84325,-0.92758 -0.29982,-0.5809 -0.29982,-1.32109 0,-1.27424 0.81514,-2.07064 0.81514,-0.7964 2.25803,-0.7964 0.90883,0 1.5928,0.32793 0.69334,0.32793 1.05875,0.88073 0.36541,0.55279 0.50595,1.58343 l -1.3492,0.22486 q -0.18739,-1.63028 -1.77082,-1.63028 -0.89947,0 -1.33983,0.36541 -0.44036,0.35604 -0.44036,0.91821 0,0.55279 0.42162,0.87135 0.25298,0.18739 1.49911,0.59965 1.7146,0.55279 2.22055,0.88072 0.50595,0.31856 0.78704,0.88073 0.28108,0.55279 0.28108,1.32109 0,1.42415 -0.90884,2.30488 -0.89946,0.88072 -2.46416,0.88072 -2.93263,0 -3.4011,-3.20434 z"
         style="font-size:19.18858719px;fill:#333333;fill-opacity:1"
         id="path6161" />
      <path
         d="m 138.48801,128.07059 0,-1.25551 q -0.37478,0.72145 -0.96505,1.1056 -0.59028,0.37477 -1.27425,0.37477 -1.44289,0 -2.50163,-1.35856 -1.04938,-1.36794 -1.04938,-3.84147 0,-1.69587 0.46847,-2.87641 0.46847,-1.18055 1.24614,-1.75209 0.78703,-0.57153 1.74271,-0.57153 0.68397,0 1.26487,0.36541 0.59028,0.35603 0.97442,1.00253 l 0,-4.92832 1.38668,0 0,13.73558 -1.29298,0 z m -4.37552,-4.9658 q 0,1.9301 0.66522,2.86705 0.6746,0.93694 1.5647,0.93694 0.88072,0 1.52722,-0.89947 0.64649,-0.89946 0.64649,-2.71713 0,-2.08938 -0.64649,-3.04506 -0.6465,-0.96506 -1.63028,-0.96506 -0.87136,0 -1.49911,0.92758 -0.62775,0.9182 -0.62775,2.89515 z"
         style="font-size:19.18858719px;fill:#333333;fill-opacity:1"
         id="path6163" />
      <path
         d="m 147.28591,126.84319 q -0.69334,0.72145 -1.4429,1.08686 -0.74955,0.3654 -1.55532,0.3654 -1.27424,0 -2.03317,-0.76829 -0.75892,-0.76829 -0.75892,-2.07064 0,-0.86199 0.35604,-1.52722 0.35604,-0.66523 0.97442,-1.04001 0.61838,-0.37477 1.87388,-0.55279 1.6865,-0.24361 2.47353,-0.58091 l 0.009,-0.43099 q 0,-1.02127 -0.3654,-1.43352 -0.51532,-0.59965 -1.58344,-0.59965 -0.96505,0 -1.44289,0.40289 -0.47784,0.39352 -0.70271,1.48974 l -1.35856,-0.22487 q 0.29045,-1.60217 1.17117,-2.33299 0.8901,-0.73081 2.53912,-0.73081 1.28361,0 2.01443,0.48721 0.73081,0.47784 0.9182,1.18992 0.19676,0.71207 0.19676,2.08001 l 0,2.24866 q 0,2.3611 0.0843,2.97948 0.0937,0.60901 0.35604,1.18992 l -1.44289,0 q -0.2155,-0.51532 -0.28108,-1.2274 z m -0.11244,-3.76651 q -0.75892,0.37478 -2.25803,0.63712 -0.87136,0.14991 -1.21802,0.34667 -0.34667,0.18739 -0.54343,0.54343 -0.18739,0.34667 -0.18739,0.80577 0,0.71208 0.44036,1.14307 0.44037,0.42162 1.21803,0.42162 0.74018,0 1.33983,-0.38414 0.60901,-0.38415 0.90883,-1.02127 0.29982,-0.64649 0.29982,-1.87389 l 0,-0.61838 z"
         style="font-size:19.18858719px;fill:#333333;fill-opacity:1"
         id="path6165" />
      <path
         d="m 153.81639,126.56211 0.18739,1.48974 q -0.57154,0.14991 -1.03064,0.14991 -0.72145,0 -1.16181,-0.28108 -0.44036,-0.29046 -0.60901,-0.78704 -0.15928,-0.49658 -0.15928,-1.97694 l 0,-5.72472 -1.0119,0 0,-1.31172 1.0119,0 0,-2.46416 1.3773,-1.0119 0,3.47606 1.39605,0 0,1.31172 -1.39605,0 0,5.81841 q 0,0.80577 0.12181,1.04001 0.17802,0.3373 0.66523,0.3373 0.23423,0 0.60901,-0.0656 z"
         style="font-size:19.18858719px;fill:#333333;fill-opacity:1"
         id="path6167" />
      <path
         d="m 160.44057,126.84319 q -0.69334,0.72145 -1.44289,1.08686 -0.74956,0.3654 -1.55533,0.3654 -1.27424,0 -2.03316,-0.76829 -0.75893,-0.76829 -0.75893,-2.07064 0,-0.86199 0.35604,-1.52722 0.35604,-0.66523 0.97442,-1.04001 0.61838,-0.37477 1.87389,-0.55279 1.68649,-0.24361 2.47353,-0.58091 l 0.009,-0.43099 q 0,-1.02127 -0.36541,-1.43352 -0.51532,-0.59965 -1.58343,-0.59965 -0.96506,0 -1.4429,0.40289 -0.47784,0.39352 -0.7027,1.48974 l -1.35857,-0.22487 q 0.29045,-1.60217 1.17118,-2.33299 0.89009,-0.73081 2.53911,-0.73081 1.28361,0 2.01443,0.48721 0.73081,0.47784 0.9182,1.18992 0.19676,0.71207 0.19676,2.08001 l 0,2.24866 q 0,2.3611 0.0843,2.97948 0.0937,0.60901 0.35603,1.18992 l -1.44289,0 q -0.21549,-0.51532 -0.28108,-1.2274 z m -0.11243,-3.76651 q -0.75893,0.37478 -2.25804,0.63712 -0.87135,0.14991 -1.21802,0.34667 -0.34667,0.18739 -0.54343,0.54343 -0.18739,0.34667 -0.18739,0.80577 0,0.71208 0.44037,1.14307 0.44036,0.42162 1.21802,0.42162 0.74019,0 1.33983,-0.38414 0.60901,-0.38415 0.90883,-1.02127 0.29983,-0.64649 0.29983,-1.87389 l 0,-0.61838 z"
         style="font-size:19.18858719px;fill:#333333;fill-opacity:1"
         id="path6169" />
      <path
         d="m 165.16277,128.07059 -1.28361,0 0,-13.73558 1.3773,0 0,4.90021 q 0.44037,-0.6746 0.99316,-1.00253 0.56217,-0.3373 1.24614,-0.3373 0.95568,0 1.73334,0.57153 0.78703,0.57154 1.2555,1.73335 0.46847,1.16181 0.46847,2.8202 0,2.52974 -1.05874,3.90705 -1.05875,1.36793 -2.47353,1.36793 -0.71208,0 -1.28361,-0.3654 -0.56217,-0.37478 -0.97442,-1.1056 l 0,1.24614 z m -0.0187,-5.05012 q 0,1.54595 0.28108,2.31424 0.28108,0.7683 0.7964,1.17118 0.51532,0.40289 1.14307,0.40289 0.85262,0 1.50848,-0.95568 0.66523,-0.96505 0.66523,-2.87642 0,-1.95821 -0.63712,-2.87641 -0.63712,-0.91821 -1.5647,-0.91821 -0.85261,0 -1.52721,0.96506 -0.66523,0.95568 -0.66523,2.77335 z"
         style="font-size:19.18858719px;fill:#333333;fill-opacity:1"
         id="path6171" />
      <path
         d="m 177.98015,126.84319 q -0.69334,0.72145 -1.44289,1.08686 -0.74955,0.3654 -1.55533,0.3654 -1.27424,0 -2.03316,-0.76829 -0.75893,-0.76829 -0.75893,-2.07064 0,-0.86199 0.35604,-1.52722 0.35604,-0.66523 0.97442,-1.04001 0.61839,-0.37477 1.87389,-0.55279 1.6865,-0.24361 2.47353,-0.58091 l 0.009,-0.43099 q 0,-1.02127 -0.36541,-1.43352 -0.51532,-0.59965 -1.58343,-0.59965 -0.96505,0 -1.4429,0.40289 -0.47784,0.39352 -0.7027,1.48974 l -1.35857,-0.22487 q 0.29045,-1.60217 1.17118,-2.33299 0.89009,-0.73081 2.53911,-0.73081 1.28362,0 2.01443,0.48721 0.73082,0.47784 0.9182,1.18992 0.19676,0.71207 0.19676,2.08001 l 0,2.24866 q 0,2.3611 0.0843,2.97948 0.0937,0.60901 0.35604,1.18992 l -1.4429,0 q -0.21549,-0.51532 -0.28108,-1.2274 z m -0.11243,-3.76651 q -0.75893,0.37478 -2.25803,0.63712 -0.87136,0.14991 -1.21803,0.34667 -0.34667,0.18739 -0.54343,0.54343 -0.18739,0.34667 -0.18739,0.80577 0,0.71208 0.44037,1.14307 0.44036,0.42162 1.21802,0.42162 0.74019,0 1.33983,-0.38414 0.60901,-0.38415 0.90884,-1.02127 0.29982,-0.64649 0.29982,-1.87389 l 0,-0.61838 z"
         style="font-size:19.18858719px;fill:#333333;fill-opacity:1"
         id="path6173" />
      <path
         d="m 180.9034,125.10048 1.36794,-0.26235 q 0.1218,1.04938 0.66523,1.5647 0.54343,0.50595 1.44289,0.50595 0.89947,0 1.38668,-0.44036 0.49658,-0.44974 0.49658,-1.13371 0,-0.59027 -0.42163,-0.9182 -0.29045,-0.22487 -1.40541,-0.56217 -1.61154,-0.49657 -2.15497,-0.84324 -0.54343,-0.34667 -0.84325,-0.92758 -0.29982,-0.5809 -0.29982,-1.32109 0,-1.27424 0.81514,-2.07064 0.81514,-0.7964 2.25803,-0.7964 0.90884,0 1.5928,0.32793 0.69334,0.32793 1.05875,0.88073 0.36541,0.55279 0.50595,1.58343 l -1.3492,0.22486 q -0.18739,-1.63028 -1.77082,-1.63028 -0.89947,0 -1.33983,0.36541 -0.44036,0.35604 -0.44036,0.91821 0,0.55279 0.42162,0.87135 0.25298,0.18739 1.49911,0.59965 1.71461,0.55279 2.22055,0.88072 0.50595,0.31856 0.78704,0.88073 0.28108,0.55279 0.28108,1.32109 0,1.42415 -0.90883,2.30488 -0.89947,0.88072 -2.46416,0.88072 -2.93263,0 -3.40111,-3.20434 z"
         style="font-size:19.18858719px;fill:#333333;fill-opacity:1"
         id="path6175" />
      <path
         d="m 194.88259,124.86624 1.42415,0.2155 q -0.35604,1.5928 -1.29298,2.40794 -0.92758,0.80577 -2.30488,0.80577 -1.73335,0 -2.81083,-1.31172 -1.06811,-1.32109 -1.06811,-3.80398 0,-2.5766 1.07748,-3.92579 1.08685,-1.35857 2.74524,-1.35857 1.58344,0 2.64218,1.33046 1.05875,1.33046 1.05875,3.85083 l -0.009,0.44973 -6.09013,0 q 0.0843,1.67713 0.77766,2.52975 0.69334,0.85262 1.6865,0.85262 1.55532,0 2.16434,-2.04254 z m -4.54418,-2.7265 4.55355,0 q -0.0937,-1.29298 -0.5528,-1.9301 -0.66523,-0.92758 -1.69587,-0.92758 -0.92757,0 -1.58343,0.77767 -0.65586,0.76829 -0.72145,2.08001 z"
         style="font-size:19.18858719px;fill:#333333;fill-opacity:1"
         id="path6177" />
    </g>
    <rect
       style="fill:none"
       id="rect3725"
       width="1"
       height="1"
       x="1"
       y="140"
       inkscape:export-filename="C:\Users\Stéphane\Desktop\Blogs\OpenFoodFacts\test-178.png"
       inkscape:export-xdpi="90"
       inkscape:export-ydpi="90" />
    <g
       id="g6033"
       transform="translate(65.7422,151.15413)">
      <path
         style="fill:#0066ff;fill-opacity:1;fill-rule:nonzero;stroke:none"
         d="m 108.2578,-134.15413 0,1.25 0,29.34375 0,47.40625 1,0 0,-78 z m 2,0 0,78 2,0 0,-78 z m -3,37 c -3,10 -3,8.06339 -3,23 l 0,18 3,0 z"
         id="path12151"
         inkscape:connector-curvature="0"
         sodipodi:nodetypes="ccccccccccccccccc"
         inkscape:export-filename="C:\Users\Stéphane\Desktop\Blogs\OpenBeautyFacts\openbeautyfacts-logo-fr.png"
         inkscape:export-xdpi="89.999992"
         inkscape:export-ydpi="89.999992" />
      <path
         style="fill:#00ccff;fill-opacity:1;fill-rule:evenodd;stroke:none"
         d="m 84.2578,-120.15413 4,55.65217 0,8.34783 3,0 0,-64 -3,0 z m 8,0 0,64 4,0 0,-64 z m 5,0 0,64 1,0 0,-64 z m 2,0 0,64 2,0 0,-8.34783 4,-55.65217 -4,0 z"
         id="path12155"
         inkscape:connector-curvature="0"
         sodipodi:nodetypes="cccccccccccccccccccccccc"
         inkscape:export-filename="C:\Users\Stéphane\Desktop\Blogs\OpenBeautyFacts\openbeautyfacts-logo-fr.png"
         inkscape:export-xdpi="89.999992"
         inkscape:export-ydpi="89.999992" />
      <path
         inkscape:connector-curvature="0"
         style="fill:#00d400;fill-opacity:1;fill-rule:evenodd;stroke:none"
         d="m 44.2578,-113.15413 0,57 1,0 0,-57 -1,0 z m 2,0 0,57 1,0 0,-57 -1,0 z m 4,0 0,57 2,0 0,-57 -2,0 z m 5,0 0,57 1,0 0,-57 -1,0 z m 4,0 0,57 1,0 0,-57 -1,0 z m 4,0 0,57 2,0 0,-57 -2,0 z m 3,0 0,57 2,0 0,-57 -2,0 z m 3,0 0,57 3,0 0,-56.4375 c -0.33707,-0.16585 -0.68515,-0.31888 -1.03125,-0.46875 0.002,-0.0306 -0.002,-0.0632 0,-0.0937 l -1.96875,0 z m -26,0.0937 c -0.33724,0.14652 -0.67134,0.30704 -1,0.46875 l 0,56.4375 1,0 0,-56.90625 z m -4,2.25 c -0.69601,0.48378 -1.36246,1.00762 -2,1.5625 l 0,53.09375 2,0 0,-54.65625 z m 36,0 0,54.65625 1,0 0,-53.9375 c -0.32365,-0.25126 -0.66298,-0.4845 -1,-0.71875 z m 2,1.5625 0,53.09375 2,0 0,-51.125 c -0.62899,-0.69721 -1.29148,-1.3521 -2,-1.96875 z m -43,3.125 c -0.35282,0.44603 -0.68007,0.90323 -1,1.375 l 0,48.59375 1,0 0,-49.96875 z m 46,0 0,49.96875 3,0 0,-44.96875 c -0.79731,-1.79981 -1.79497,-3.47659 -3,-5 z m 4,7.6875 0,42.28125 1,0 0,-35.5 c 0,-2.35858 -0.35465,-4.63934 -1,-6.78125 z m -54.03125,0.0625 c -0.5928,1.98873 -0.92874,4.10406 -0.96875,6.28125 -0.003,0.14674 0,0.29008 0,0.4375 l 0.0312,35.5 0.96875,0 -0.0312,-42.21875 z"
         id="path12157"
         inkscape:export-filename="C:\Users\Stéphane\Desktop\Blogs\OpenBeautyFacts\openbeautyfacts-logo-fr.png"
         inkscape:export-xdpi="89.999992"
         inkscape:export-ydpi="89.999992" />
      <text
         inkscape:export-ydpi="89.999992"
         inkscape:export-xdpi="89.999992"
         inkscape:export-filename="C:\Users\Stéphane\Desktop\Blogs\OpenBeautyFacts\openbeautyfacts-logo-fr.png"
         xml:space="preserve"
         style="font-style:normal;font-variant:normal;font-weight:normal;font-stretch:normal;font-size:31.59649849px;line-height:125%;font-family:'Arial Narrow';-inkscape-font-specification:'Arial Narrow';letter-spacing:0px;word-spacing:0px;fill:#333333;fill-opacity:1;stroke:none"
         x="-71.390884"
         y="-33.571266"
         id="text12163"
         sodipodi:linespacing="125%"
         transform="scale(0.92864418,1.0768387)"><tspan
           style="font-size:22.05091286px;fill:#333333;fill-opacity:1"
           sodipodi:role="line"
           id="tspan12165"
           x="-71.390884"
           y="-33.571266">OPEN BEAUTY FACTS</tspan></text>
      <path
         style="fill:#ff0000;fill-opacity:1;fill-rule:evenodd;stroke:none"
         d="m -53.31795,-147.90413 c -3.13312,-0.0516 -5.63149,3.14302 -6.42425,12.75 l 0,22.71875 22,0 0,-22.71875 c -3.44249,-3.55006 -10.3539,-12.66396 -15.57575,-12.75 z"
         id="path12167"
         inkscape:connector-curvature="0"
         inkscape:export-filename="C:\Users\Stéphane\Desktop\Blogs\OpenBeautyFacts\openbeautyfacts-logo-fr.png"
         inkscape:export-xdpi="89.999992"
         inkscape:export-ydpi="89.999992" />
      <path
         style="fill:#ff0000;fill-opacity:1;fill-rule:nonzero;stroke:none"
         d="m -46.7422,-117.97846 0,61.82433 2,0 0,-61.82433 -2,0 z m -4,0.82433 0,61 3,0 0,-61 -3,0 z m -15,4.12162 0,56.87838 2,0 0,-56.87838 -2,0 z m 3,0 0,56.87838 1,0 0,-56.87838 -1,0 z m 5,0 0,56.87838 1,0 0,-56.87838 -1,0 z m 3,0 0,56.87838 1,0 0,-56.87838 -1,0 z m 11,0 0,56.87838 3,0 0,-56.87838 -3,0 z m 4,0 0,56.87838 3,0 0,-56.87838 -3,0 z m 4,0 0,56.87838 2,0 0,-56.87838 -2,0 z m 3,0 0,56.87838 1,0 0,-56.87838 -1,0 z"
         id="path12169"
         inkscape:connector-curvature="0"
         inkscape:export-filename="C:\Users\Stéphane\Desktop\Blogs\OpenBeautyFacts\openbeautyfacts-logo-fr.png"
         inkscape:export-xdpi="89.999992"
         inkscape:export-ydpi="89.999992" />
      <path
         style="fill:#ffcc00;fill-opacity:1;fill-rule:nonzero;stroke:none"
         d="m -28.7422,-100.15413 0,44 2,0 0,-44 -2,0 z m 3,0 0,44 1,0 0,-44 -1,0 z m 4,0 0,44 1,0 0,-44 -1,0 z m 2,0 0,44 3,0 0,-44 -3,0 z m 6,0 0,44 2,0 0,-44 -2,0 z m 3,0 0,44 1,0 0,-44 -1,0 z m 4,0 0.0312,44 1.9688,0 -0.0312,-44 -1.9688,0 z m 5,0 0,44 1,0 0,-44 -1,0 z m 2,0 0,44 1,0 0,-44 -1,0 z m 4,0 0,44 3,0 0,-44 -3,0 z m 4,0 0,44 2,0 0,-44 -2,0 z m 3,0 0,44 1,0 0,-44 -1,0 z m 4,0 0,44 3,0 0,-44 -3,0 z m 4,0 0,44 2,0 0,-44 -2,0 z m 3,0 0,44 1,0 0,-44 -1,0 z m 2,0 0,44 2,0 0,-44 -2,0 z"
         id="path12171"
         inkscape:connector-curvature="0"
         inkscape:export-filename="C:\Users\Stéphane\Desktop\Blogs\OpenBeautyFacts\openbeautyfacts-logo-fr.png"
         inkscape:export-xdpi="89.999992"
         inkscape:export-ydpi="89.999992" />
      <circle
         r="0.94885141"
         cy="-115.87777"
         cx="93.350121"
         id="path12173"
         style="fill:#00ccff;fill-opacity:1;stroke:none"
         inkscape:export-filename="C:\Users\Stéphane\Desktop\Blogs\OpenBeautyFacts\openbeautyfacts-logo-fr.png"
         inkscape:export-xdpi="89.999992"
         inkscape:export-ydpi="89.999992" />
      <path
         inkscape:connector-curvature="0"
         style="fill:#0066ff;fill-opacity:1;fill-rule:nonzero;stroke:none"
         d="m 104.25784,-33.15413 0,5 c 2.66569,0 5.33424,0 7.99992,0 l 0,-5 c -2.66568,0 -5.33423,0 -7.99983,0 z"
         id="path12175"
         inkscape:export-filename="C:\Users\Stéphane\Desktop\Blogs\OpenBeautyFacts\openbeautyfacts-logo-fr.png"
         inkscape:export-xdpi="89.999992"
         inkscape:export-ydpi="89.999992"
         sodipodi:nodetypes="cccccc" />
      <path
         inkscape:connector-curvature="0"
         style="fill:#00ccff;fill-opacity:1;fill-rule:nonzero;stroke:none"
         d="m 88.25781,-33.15413 0,5 c 4.33407,0 8.6659,0 12.99997,0 l 0,-5 c -4.33407,0 -8.6659,0 -12.99997,0 z"
         id="path12177"
         inkscape:export-filename="C:\Users\Stéphane\Desktop\Blogs\OpenBeautyFacts\openbeautyfacts-logo-fr.png"
         inkscape:export-xdpi="89.999992"
         inkscape:export-ydpi="89.999992"
         sodipodi:nodetypes="ccccc" />
      <path
         inkscape:connector-curvature="0"
         style="fill:#00d400;fill-opacity:1;fill-rule:nonzero;stroke:none"
         d="m 29.2578,-33.15413 0,5 c 18.6596,0 37.34041,0 56.00004,0 l 0,-5 c -18.65963,0 -37.34044,0 -56.00004,0 z"
         id="path12179"
         inkscape:export-filename="C:\Users\Stéphane\Desktop\Blogs\OpenBeautyFacts\openbeautyfacts-logo-fr.png"
         inkscape:export-xdpi="89.999992"
         inkscape:export-ydpi="89.999992"
         sodipodi:nodetypes="ccccc" />
      <path
         inkscape:connector-curvature="0"
         style="fill:#ffcc00;fill-opacity:1;fill-rule:nonzero;stroke:none"
         d="m -28.7422,-33.15413 0,5 c 18.33338,0 36.66662,0 55,0 l 0,-5 c -18.33338,0 -36.66662,0 -55,0 z"
         id="path12181"
         inkscape:export-filename="C:\Users\Stéphane\Desktop\Blogs\OpenBeautyFacts\openbeautyfacts-logo-fr.png"
         inkscape:export-xdpi="89.999992"
         inkscape:export-ydpi="89.999992"
         sodipodi:nodetypes="ccccc" />
      <path
         inkscape:connector-curvature="0"
         style="fill:#ff0000;fill-opacity:1;fill-rule:nonzero;stroke:none"
         d="m -65.7422,-33.15413 0,5 c 11.33371,0 22.6663,0 34,0 l 0,-5 c -11.3337,0 -22.66629,0 -34,0 z"
         id="path12183"
         inkscape:export-filename="C:\Users\Stéphane\Desktop\Blogs\OpenBeautyFacts\openbeautyfacts-logo-fr.png"
         inkscape:export-xdpi="89.999992"
         inkscape:export-ydpi="89.999992"
         sodipodi:nodetypes="ccccc" />
      <rect
         style="fill:#ff0000;fill-opacity:1;fill-rule:evenodd;stroke:none"
         id="rect12187"
         width="1"
         height="3"
         x="-62.74226"
         y="-115.43538"
         inkscape:export-filename="C:\Users\Stéphane\Desktop\Blogs\OpenBeautyFacts\openbeautyfacts-logo-fr.png"
         inkscape:export-xdpi="89.999992"
         inkscape:export-ydpi="89.999992" />
      <path
         style="fill:#ff0000;fill-opacity:1;fill-rule:evenodd;stroke:none"
         d="m -62.7422,-117.15413 14,0 14,0 0,5 -14,0 -14,0 z"
         id="path12191"
         inkscape:connector-curvature="0"
         sodipodi:nodetypes="ccccccc"
         inkscape:export-filename="C:\Users\Stéphane\Desktop\Blogs\OpenBeautyFacts\openbeautyfacts-logo-fr.png"
         inkscape:export-xdpi="89.999992"
         inkscape:export-ydpi="89.999992" />
      <path
         sodipodi:nodetypes="ccccccc"
         inkscape:connector-curvature="0"
         id="path12195"
         d="m -65.7422,-113.15413 17,0 17,0 0,1 -17,0 -17,0 z"
         style="fill:#ff0000;fill-opacity:1;fill-rule:evenodd;stroke:none"
         inkscape:export-filename="C:\Users\Stéphane\Desktop\Blogs\OpenBeautyFacts\openbeautyfacts-logo-fr.png"
         inkscape:export-xdpi="89.999992"
         inkscape:export-ydpi="89.999992" />
      <path
         inkscape:export-ydpi="89.999992"
         inkscape:export-xdpi="89.999992"
         inkscape:export-filename="C:\Users\Stéphane\Desktop\Blogs\OpenBeautyFacts\openbeautyfacts-logo-fr.png"
         id="rect12197"
         d="m -54.7422,-147.65413 c -0.71672,0.26072 -1.39729,0.73547 -2,1.5 l 0,29 2,0 0,-30.5 z"
         style="fill:#ffffff;fill-opacity:1;fill-rule:evenodd;stroke:none"
         inkscape:connector-curvature="0" />
      <path
         sodipodi:nodetypes="ssccsss"
         style="fill:#ffcc00;fill-opacity:1;fill-rule:evenodd;stroke:none"
         d="m -20.4922,-120.15413 c -4.5705,0 -8.25,3.6795 -8.25,8.25 l 0,10.75 55,0 0,-10.75 c 0,-4.5705 -3.6795,-8.25 -8.25,-8.25 z"
         id="path12199"
         inkscape:connector-curvature="0"
         inkscape:export-filename="C:\Users\Stéphane\Desktop\Blogs\OpenBeautyFacts\openbeautyfacts-logo-fr.png"
         inkscape:export-xdpi="89.999992"
         inkscape:export-ydpi="89.999992" />
      <path
         inkscape:connector-curvature="0"
         style="fill:#00d400;fill-opacity:1;fill-rule:evenodd;stroke:none"
         d="m 62.60155,-148.09163 c -1.78342,0.0471 -3.79985,0.24743 -5.34375,0.4375 -6.36567,0.78364 -4.65625,-0.0104 -18.65625,4.65625 -1.47573,0.49191 -1.39133,5.38317 0,4.6875 4.38351,-2.19176 9.78935,-2.31915 14.78125,-1.84375 -0.4951,1.01323 -0.78125,2.24737 -0.78125,3.5625 l 0,3.65625 c -1.91045,0.86858 -3.4453,2.46044 -4.1875,4.4375 -3.01974,1.13363 -5.15625,4.04346 -5.15625,7.46875 l 0,6.875 28,0 0,-6.875 c 0,-3.42529 -2.13651,-6.33512 -5.15625,-7.46875 -0.7422,-1.97706 -2.27705,-3.56892 -4.1875,-4.4375 l 0,-3.65625 c 0,-0.83218 -0.13356,-1.64737 -0.34375,-2.375 2.11458,0.36458 3.86458,0.65625 5.03125,0.65625 3.1111,0 2.6943,-7.78819 0,-9.34375 -0.65577,-0.37861 -2.21658,-0.48464 -4,-0.4375 z"
         id="path12201"
         inkscape:export-filename="C:\Users\Stéphane\Desktop\Blogs\OpenBeautyFacts\openbeautyfacts-logo-fr.png"
         inkscape:export-xdpi="89.999992"
         inkscape:export-ydpi="89.999992" />
      <rect
         inkscape:export-ydpi="89.999992"
         inkscape:export-xdpi="89.999992"
         inkscape:export-filename="C:\Users\Stéphane\Desktop\Blogs\OpenBeautyFacts\openbeautyfacts-logo-fr.png"
         style="fill:none"
         y="-151.15413"
         x="44.25774"
         height="5"
         width="5"
         id="rect12203" />
      <rect
         id="rect12205"
         width="5"
         height="5"
         x="44.25774"
         y="-151.15413"
         style="fill:none"
         inkscape:export-filename="C:\Users\Stéphane\Desktop\Blogs\OpenBeautyFacts\openbeautyfacts-logo-fr.png"
         inkscape:export-xdpi="89.999992"
         inkscape:export-ydpi="89.999992" />
      <path
         inkscape:export-ydpi="89.999992"
         inkscape:export-xdpi="89.999992"
         inkscape:export-filename="C:\Users\Stéphane\Desktop\Blogs\OpenBeautyFacts\openbeautyfacts-logo-fr.png"
         id="rect12207"
         d="m 109.2578,-148.15413 c -0.554,0 -1,0.446 -1,1 l 0,3 c 0,0.554 0.446,1 1,1 l 0,-4 1,0 0,4 1,0 c 0.554,0 1,-0.446 1,-1 l 0,-3 c 0,-0.554 -0.446,-1 -1,-1 l -2,0 z"
         style="fill:#0066ff;fill-opacity:1;fill-rule:evenodd;stroke:none"
         inkscape:connector-curvature="0" />
      <g
         id="g12209"
         transform="matrix(1.1666667,0,0,1,522.59113,-120.15413)"
         style="fill:#0066ff;fill-opacity:1"
         inkscape:export-filename="C:\Users\Stéphane\Desktop\Blogs\OpenBeautyFacts\openbeautyfacts-logo-fr.png"
         inkscape:export-xdpi="89.999992"
         inkscape:export-ydpi="89.999992">
        <path
           sodipodi:nodetypes="ccccc"
           inkscape:connector-curvature="0"
           id="path12211"
           d="m -362,-27 6,0 0,1 -6,0 z"
           style="fill:#0066ff;fill-opacity:1;fill-rule:evenodd;stroke:none" />
        <path
           style="fill:#0066ff;fill-opacity:1;fill-rule:evenodd;stroke:none"
           d="m -362,-25 6,0 0,1 -6,0 z"
           id="path12213"
           inkscape:connector-curvature="0"
           sodipodi:nodetypes="ccccc" />
        <path
           sodipodi:nodetypes="ccccc"
           inkscape:connector-curvature="0"
           id="path12215"
           d="m -362,-23 6,0 0,1 -6,0 z"
           style="fill:#0066ff;fill-opacity:1;fill-rule:evenodd;stroke:none" />
        <path
           style="fill:#0066ff;fill-opacity:1;fill-rule:evenodd;stroke:none"
           d="m -362,-21 6,0 0,1 -6,0 z"
           id="path12217"
           inkscape:connector-curvature="0"
           sodipodi:nodetypes="ccccc" />
        <path
           sodipodi:nodetypes="ccccc"
           inkscape:connector-curvature="0"
           id="path12219"
           d="m -362,-19 6,0 0,1 -6,0 z"
           style="fill:#0066ff;fill-opacity:1;fill-rule:evenodd;stroke:none" />
        <path
           style="fill:#0066ff;fill-opacity:1;fill-rule:evenodd;stroke:none"
           d="m -362,-17 6,0 0,1 -6,0 z"
           id="path12221"
           inkscape:connector-curvature="0"
           sodipodi:nodetypes="ccccc" />
        <path
           sodipodi:nodetypes="ccccc"
           inkscape:connector-curvature="0"
           id="path12223"
           d="m -362,-15 6,0 0,1 -6,0 z"
           style="fill:#0066ff;fill-opacity:1;fill-rule:evenodd;stroke:none" />
      </g>
      <path
         inkscape:export-ydpi="89.999992"
         inkscape:export-xdpi="89.999992"
         inkscape:export-filename="C:\Users\Stéphane\Desktop\Blogs\OpenBeautyFacts\openbeautyfacts-logo-fr.png"
         id="path12225"
         d="m 108.2578,-145.15413 0,1.03125 0,6.25 0,4.71875 1,0 0,-12 -1,0 z m 2,0 0,12 2,0 0,-12 -2,0 z"
         style="fill:#0066ff;fill-opacity:1;fill-rule:evenodd;stroke:none"
         inkscape:connector-curvature="0" />
      <rect
         id="rect12231"
         width="5"
         height="5"
         x="44.25774"
         y="-151.15413"
         style="fill:none"
         inkscape:export-filename="C:\Users\Stéphane\Desktop\Blogs\OpenBeautyFacts\openbeautyfacts-logo-fr.png"
         inkscape:export-xdpi="89.999992"
         inkscape:export-ydpi="89.999992" />
      <rect
         inkscape:export-ydpi="89.999992"
         inkscape:export-xdpi="89.999992"
         inkscape:export-filename="C:\Users\Stéphane\Desktop\Blogs\OpenBeautyFacts\openbeautyfacts-logo-fr.png"
         style="fill:none"
         y="-151.15413"
         x="44.25774"
         height="5"
         width="5"
         id="rect12233" />
    </g>
  </g>
</svg>
