<?xml version="1.0" encoding="UTF-8" standalone="no"?>
<!-- Created with Inkscape (http://www.inkscape.org/) -->

<svg
   width="96"
   height="96"
   viewBox="0 0 96 96"
   version="1.1"
   id="svg62881"
   xml:space="preserve"
   inkscape:version="1.2 (dc2aeda, 2022-05-15)"
   sodipodi:docname="divinfood.svg"
   xmlns:inkscape="http://www.inkscape.org/namespaces/inkscape"
   xmlns:sodipodi="http://sodipodi.sourceforge.net/DTD/sodipodi-0.dtd"
   xmlns="http://www.w3.org/2000/svg"
   xmlns:svg="http://www.w3.org/2000/svg"><sodipodi:namedview
     id="namedview62883"
     pagecolor="#ffffff"
     bordercolor="#666666"
     borderopacity="1.0"
     inkscape:showpageshadow="2"
     inkscape:pageopacity="0.0"
     inkscape:pagecheckerboard="0"
     inkscape:deskcolor="#d1d1d1"
     inkscape:document-units="mm"
     showgrid="false"
     inkscape:zoom="1.4485269"
     inkscape:cx="367.26966"
     inkscape:cy="276.48778"
     inkscape:window-width="2560"
     inkscape:window-height="1376"
     inkscape:window-x="0"
     inkscape:window-y="0"
     inkscape:window-maximized="1"
     inkscape:current-layer="layer1" /><defs
     id="defs62878" /><g
     inkscape:label="Calque 1"
     inkscape:groupmode="layer"
     id="layer1"><path
       id="path63036"
       style="fill:#c34e95;stroke-width:0.355325"
       d="M 44.262938,0.13229167 C 39.901261,0.48775751 35.62518,1.3580262 31.490431,2.7957742 c -2.021571,0.8108576 -4.209,1.7025211 -5.966418,2.888108 -0.966749,1.3324865 -1.390889,3.0823882 -0.186268,4.4261268 1.025855,1.40355 3.124078,1.780692 4.562056,0.680396 4.212747,-1.9749928 8.699311,-3.4886476 13.367844,-3.7902123 1.687283,0.08787 3.006157,-0.6180352 4.053007,-1.90862 C 47.4196,3.42433 47.493074,1.0038335 45.408029,0.61045455 45.026335,0.45106657 44.644637,0.29167972 44.262938,0.13229167 Z" /><path
       id="path63034"
       style="fill:#f39716;stroke-width:0.355325"
       d="m 51.287557,1.7604031 c -1.025136,1.0729163 -2.309824,2.0445329 -1.834926,3.7057632 0.206135,1.2742114 1.595183,2.8952173 3.026604,2.8763555 4.954602,0.3810694 9.906962,1.433002 14.310415,3.8082852 2.946697,1.297247 5.59491,3.264491 8.067251,5.287341 2.681344,2.740184 5.394958,5.454255 7.328126,8.798573 2.034142,3.272703 3.179838,6.940101 4.263069,10.612056 0.948333,1.440918 2.797512,2.528995 4.434743,1.482304 1.440794,-0.357317 2.038681,-2.260544 1.919482,-3.629356 C 91.738116,30.742777 90.276316,26.872035 88.196445,23.312219 86.656484,20.481326 84.508469,17.982166 82.505538,15.47351 78.604193,11.608319 74.273357,8.0612437 69.17319,5.9146564 65.800464,3.9527693 61.996861,3.0543185 58.243994,2.1572644 55.925182,2.0249827 53.606369,1.8926902 51.287557,1.7604031 Z" /><path
       style="fill:#eb680a;stroke-width:0.355325"
       d="M 35.922664,94.048241 C 31.250534,93.271888 26.737637,91.669039 22.59884,89.369322 18.001757,87.085776 14.218723,83.484317 10.699777,79.814755 8.4207653,76.929618 6.2289578,73.989981 4.7832676,70.584218 2.2810814,65.979941 1.0448637,60.772647 0.41794236,55.606233 0.5505195,53.807495 0.15401279,51.779877 0.61463805,50.123053 1.6056632,48.685022 3.0482834,48.387236 4.7012382,48.620535 c 1.3996869,1.03561 2.0601556,2.412575 1.9201302,4.159204 0.2432201,3.481146 0.5892594,6.942698 1.8180708,10.236122 1.2969774,4.504362 3.7460928,8.626689 6.7009688,12.231829 2.242688,2.650874 4.783506,4.968692 7.678992,6.890321 2.487587,1.847876 5.42683,3.095445 8.305555,4.195091 3.437637,1.185271 6.980785,1.836151 10.605155,2.075683 1.299092,0.253568 2.79035,1.589446 2.392842,3.071002 0.383407,1.483503 -1.159718,3.133709 -2.553842,3.106137 -1.914913,0.04071 -3.777533,-0.09936 -5.646446,-0.537683 z"
       id="path63032" /><path
       style="fill:#b0105f;stroke-width:0.355325"
       d="M 0.93478118,45.047906 C -0.63978907,43.962891 0.28513417,41.771177 0.13744466,40.149102 1.3663137,33.41118 3.7242402,26.792955 7.8580495,21.271519 c 1.8977637,-2.836096 4.4286195,-5.240788 6.8900165,-7.575558 1.747828,-1.167064 3.352709,-2.765408 5.189602,-3.663757 1.696093,-0.4015911 2.874881,0.516033 3.932486,1.742694 0.268737,1.772138 -0.0722,3.266513 -1.739751,4.156499 -2.854049,2.478402 -6.02944,4.623015 -8.141555,7.829479 -2.760713,2.872924 -4.1125594,6.68517 -5.8270083,10.200236 -0.7938528,3.407185 -1.817434,6.771307 -2.1148734,10.27155 -0.9901104,1.425566 -2.3226321,2.024489 -4.0428559,1.687405 -0.439777,0.0067 -0.7168904,-0.640914 -1.06932922,-0.872161 z"
       id="path63045" /><path
       style="fill:#b0105f;stroke-width:0.355325"
       d="m 48.742189,94.7239 c -1.172217,-0.595911 -2.571447,-1.58213 -2.131952,-3.091968 -0.416807,-2.366944 2.307681,-3.207946 4.192981,-3.125462 3.933105,-0.07196 7.762119,-1.059541 11.482822,-2.241135 3.602079,-1.418555 6.852718,-3.460679 9.985002,-5.712824 1.43252,-0.430485 3.188191,-0.350627 4.039333,1.108226 0.869593,1.345995 0.439846,3.073168 -0.526054,4.222163 -3.23201,2.244627 -6.505709,4.414156 -10.204857,5.816973 -5.220802,2.157078 -10.943956,3.211355 -16.554619,3.137896 l -0.250318,-0.100875 z"
       id="path63030" /><path
       style="fill:#203444;stroke-width:0.355325"
       d="m 79.260375,81.630387 c -1.340368,-0.566313 -2.088718,-2.463035 -1.523361,-3.822622 1.043766,-2.340272 3.610137,-3.777389 4.842747,-6.088717 3.287921,-4.374403 5.184775,-9.613944 6.461163,-14.876108 0.118715,-4.60585 -0.09899,-9.297435 0.228624,-13.850103 0.379117,-1.515556 2.249771,-2.102861 3.579451,-1.875919 1.85608,0.393789 2.833406,2.192651 2.718769,3.995395 0.763865,3.962748 0.375005,8.005184 -0.09294,11.974588 -0.83653,5.217876 -2.606581,10.242796 -5.240651,14.823731 -1.420358,2.698375 -3.398367,5.12434 -5.372735,7.4278 -1.238253,0.823907 -2.10497,2.619126 -3.583302,2.815385 -0.77034,0.06421 -1.385186,-0.0404 -2.017815,-0.52343 z m -37.87529,-7.710494 c -1.056431,-0.82286 -0.455751,-3.360832 -2.017803,-3.369411 -1.919381,0.716901 -3.857381,1.253439 -5.902666,0.750811 -1.800576,-0.134635 -3.383931,-1.39663 -4.869773,-2.303785 -2.006136,-2.069223 -2.591974,-4.93474 -3.698448,-7.508353 1.6763,-1.394907 0.618369,-2.614719 -0.645666,-3.821315 -1.396506,-1.709351 -1.987922,-4.033292 -2.447274,-6.167633 0.177409,-1.538899 1.486865,-2.157495 -0.555985,-3.507844 -2.130316,-2.120266 -2.34335,-5.368665 -3.564489,-8.023892 -0.829512,-1.151672 -0.83038,-3.55318 1.015522,-3.234832 1.94948,-0.428659 1.026865,3.096951 2.728442,2.322673 1.240496,-0.390263 3.673345,-0.577361 2.19845,-2.272343 -0.95331,-1.769799 -0.602469,-3.951184 -0.524161,-5.853519 0.974659,-1.73384 1.565209,-3.883187 2.76688,-5.371458 1.514522,-0.829465 2.920699,0.932746 4.384148,1.324966 2.050967,0.727659 3.311061,2.735753 4.602115,4.334763 0.527286,1.168189 0.316528,4.013288 2.258465,2.590462 2.147279,-0.149745 2.115293,-1.747624 1.876793,-3.482728 0.04018,-1.339555 2.770088,-0.866232 2.731794,0.650583 0.738489,2.73913 2.046561,5.418012 2.419347,8.195831 0.199219,1.282881 -1.329868,3.950003 0.849113,3.64721 1.521974,0.330935 1.282148,2.856696 2.075312,4.095579 0.684718,1.821325 0.171742,3.844362 0.32194,5.755703 2.230254,-0.526843 2.307342,2.289551 2.866753,3.760105 1.017305,2.14619 0.617787,4.563345 0.196536,6.777446 -1.166336,2.461232 -3.00488,4.706665 -5.729507,5.456871 -2.467484,0.2369 -1.712557,1.93118 -0.984802,3.613171 0.677885,1.620069 -1.205212,2.793642 -2.319141,1.680998 z m -4.519938,-5.658047 c 1.948687,0.106771 2.325582,-1.492071 1.313432,-2.88409 -0.406853,-1.679025 -2.039655,-2.820824 -3.450618,-3.578483 -2.078365,-1.002709 -4.264817,-0.325531 -6.257457,0.559491 0.609467,2.649275 2.115082,5.446851 5.023259,5.9651 1.102928,0.593858 2.24564,0.259616 3.371384,-0.06206 z m 7.094851,-2.400798 c 2.273178,-0.792764 3.636556,-3.074926 4.072989,-5.357356 -0.03591,-1.313968 -0.320995,-3.393449 -1.032953,-4.279189 -1.499316,-0.04955 -2.898395,0.992425 -4.126042,1.708626 -1.103342,1.259966 -2.07044,2.574656 -1.92186,4.337454 -0.186595,1.360827 0.291251,3.381219 1.045728,4.25288 0.721345,0.09131 1.310608,-0.440224 1.962138,-0.662415 z m -9.586564,-8.023847 c 2.212268,-0.242986 0.318516,-2.460669 -0.180642,-3.648265 -0.815288,-1.52798 -2.508509,-2.384749 -4.018841,-2.946765 -1.776942,0.138331 -3.588588,0.130129 -5.183829,1.035341 0.361988,2.085713 1.590128,3.868978 3.157768,5.206504 1.849953,1.038296 4.292713,1.271248 6.225543,0.353196 z m 7.825618,-3.15165 c 2.243784,-1.380147 2.687557,-4.442559 2.071135,-6.799079 -0.229455,-2.255694 -1.823822,-1.942421 -3.384121,-0.996639 -1.466759,0.892789 -2.673456,1.993357 -3.104418,3.713677 -0.954319,1.848711 -0.112501,4.101971 0.617708,5.921575 1.392159,-0.412316 2.798279,-0.69541 3.799696,-1.839534 z M 30.620596,47.894945 c 2.174075,-0.172648 0.853274,-2.556261 0.248345,-3.768189 -0.685476,-1.271202 -2.168983,-2.454822 -3.593745,-2.660961 -1.81254,-0.272958 -3.598952,-0.325569 -5.279397,0.515542 -0.76656,1.047107 0.781261,2.833875 1.270108,3.945767 1.364088,1.693958 3.381494,2.68955 5.584809,2.425229 0.637763,0.09604 1.180755,-0.282747 1.76988,-0.457388 z m 6.588217,-2.287438 c 2.168156,-0.76831 3.611879,-2.913887 3.942584,-5.147331 0.155754,-1.365302 -0.165128,-3.475735 -1.115184,-4.360925 -1.359485,-0.09967 -3.003948,0.759942 -4.02582,1.754116 -1.992097,1.712731 -2.635718,4.773759 -1.478442,7.142163 0.163808,2.046969 1.385352,1.192377 2.676862,0.611977 z m -5.210671,-7.481643 c 1.620243,-2.578335 0.537066,-5.958301 -1.555209,-7.915739 -1.091587,-0.256501 -3.096917,-2.447929 -3.599198,-0.593982 -0.976307,1.743753 -1.021323,3.817981 -0.716659,5.716394 0.619407,1.550725 1.554678,2.819319 3.098944,3.543952 1.605012,1.329389 2.177841,1.45434 2.772122,-0.750625 z m 30.71692,32.155489 c -3.204469,-0.856649 -5.928919,-3.324182 -6.927482,-6.512504 -0.93631,-2.100745 0.167736,-4.234859 1.177002,-6.096258 1.306673,-0.884458 2.60149,-1.810768 4.262196,-1.444365 1.81465,-0.01361 3.242929,1.603037 3.920119,3.185114 0.652853,2.115662 3.528295,-0.452859 4.577337,1.382298 1.428227,0.877126 2.138895,2.163069 2.169932,3.836198 -0.221518,1.696694 -0.79658,3.394443 -2.365976,4.325719 -1.624608,1.740654 -4.62578,2.303769 -6.813128,1.323798 z m 4.018465,-3.26575 c 1.725491,-0.361172 2.283531,-2.249821 1.532504,-3.706545 -1.559176,0.02041 -3.36037,1.020703 -4.559301,-0.417097 -1.953241,-0.345865 -1.032374,-3.314684 -2.796797,-3.405431 -1.82092,-0.545431 -2.133215,1.742533 -2.281531,3.047517 0.969513,2.41412 2.987002,4.364787 5.570068,4.902886 0.883978,0.397864 1.751652,0.01965 2.535057,-0.42133 z m 1.447616,-12.955001 c -1.917641,-0.725011 -3.025663,-2.900458 -2.737893,-4.894556 -0.02041,-1.622729 1.205174,-3.162785 2.76901,-3.615991 1.906107,-0.19287 2.013948,-1.60334 2.005418,-3.260531 0.04702,-1.649851 1.7009,-3.004883 3.298972,-3.189861 1.776983,-0.547227 3.885177,0.443297 5.126313,1.706642 0.776111,1.866164 2.360765,3.594739 1.581339,5.725614 -0.223785,2.975736 -2.352022,5.532008 -4.719356,7.155274 -1.810352,1.210397 -3.883363,1.193824 -5.976261,1.084282 -0.449072,-0.236787 -0.898976,-0.474833 -1.347542,-0.710873 z m 6.044002,-3.489377 c 1.72021,-0.833817 2.334497,-2.788902 2.943058,-4.434765 0.10783,-1.588362 -0.649025,-3.639002 -2.388979,-3.936757 -2.005165,-0.232629 -1.49782,2.105802 -1.51959,3.46348 -0.661984,1.401827 -1.936309,2.559232 -3.580335,2.700242 -1.732018,0.243818 -1.177387,2.834212 0.393812,3.138985 1.486991,0.252435 3.031464,0.305688 4.152034,-0.931185 z M 61.469987,36.317036 c -0.909453,-1.994427 -2.831634,-0.0943 -4.249195,-0.92994 -1.966378,-0.375009 -2.670172,-2.637969 -2.438082,-4.419495 0.786225,-1.703258 2.207399,-3.687062 4.145132,-4.057446 1.887466,-0.0087 3.831739,-0.261328 5.433945,0.955079 1.627294,0.53666 2.808295,2.118768 3.34845,3.639527 0.508698,1.83599 0.227376,4.087718 -1.47546,5.188881 -0.962113,1.023349 -3.006663,0.968625 -4.071243,0.316943 -0.231194,-0.231182 -0.462369,-0.462364 -0.693547,-0.693549 z m 3.547812,-3.244575 c 0.59497,-1.744196 -1.686599,-2.73495 -2.958829,-3.289759 -1.679441,-0.46878 -3.150399,-0.208256 -4.303881,1.162913 -0.844214,1.68944 0.633475,2.362897 2.064533,1.405864 1.454952,-0.218571 3.329473,0.425289 3.459549,2.161819 1.10609,0.105434 1.964943,0.0054 1.738628,-1.440837 z"
       id="path63028" /></g></svg>
