<svg width="57" height="57" viewBox="0 0 57 57" fill="none" xmlns="http://www.w3.org/2000/svg">
<path fill-rule="evenodd" clip-rule="evenodd" d="M23.533 47.665C23.61 47.557 23.651 47.426 23.67 47.289L29.937 47.327H29.939C30.203 47.327 30.418 47.113 30.42 46.85C30.421 46.585 30.207 46.368 29.942 46.367L23.687 46.329V18.654H32.537V47.181C32.537 47.362 32.593 47.528 32.689 47.665H23.533ZM23.686 9.618C23.686 9.101 24.107 8.681 24.624 8.681H25.644V13.902C25.644 14.166 25.86 14.382 26.126 14.382H30.141C30.405 14.382 30.62 14.166 30.62 13.902V8.681H31.598C32.115 8.681 32.536 9.101 32.536 9.618V16.973H23.686V9.618ZM26.605 8.681H29.659V13.421H26.605V8.681ZM34.218 46.473V17.813C34.218 17.812 34.217 17.81 34.217 17.809V9.618C34.217 8.175 33.043 7 31.598 7H24.624C23.179 7 22.005 8.175 22.005 9.618V17.813C22.005 17.815 22.006 17.816 22.006 17.819V46.473C21.407 46.707 21 47.227 21 47.844C21 48.686 21.759 49.346 22.729 49.346H33.495C34.463 49.346 35.222 48.686 35.222 47.844C35.222 47.227 34.816 46.707 34.218 46.473Z" fill="black"/>
<path fill-rule="evenodd" clip-rule="evenodd" d="M24.9193 26.2194C24.6533 26.2194 24.4393 26.4344 24.4393 26.7004V39.5484C24.4393 39.8144 24.6533 40.0294 24.9193 40.0294C25.1843 40.0294 25.3983 39.8144 25.3983 39.5484V26.7004C25.3983 26.4344 25.1843 26.2194 24.9193 26.2194Z" fill="black"/>
<path fill-rule="evenodd" clip-rule="evenodd" d="M28.108 11.1916C27.722 11.1916 27.409 11.5046 27.409 11.8926C27.409 12.2776 27.722 12.5906 28.108 12.5906C28.494 12.5906 28.809 12.2776 28.809 11.8926C28.809 11.5046 28.494 11.1916 28.108 11.1916Z" fill="black"/>
</svg>
