<svg width="57" height="57" viewBox="0 0 57 57" fill="none" xmlns="http://www.w3.org/2000/svg">
<path fill-rule="evenodd" clip-rule="evenodd" d="M46.7909 18.4912C46.6509 18.6752 46.3639 19.0642 45.9899 19.5732C44.4359 21.6902 41.3389 25.9572 40.6109 26.9402C40.0279 27.7282 38.6159 28.0332 36.9369 28.0332C36.0129 28.0332 35.0079 27.9412 34.0139 27.7852C31.3069 27.3622 13.0789 24.1392 10.5619 23.6052C10.4749 23.5872 10.4009 23.5712 10.3529 23.5592C9.47288 23.3432 9.37888 22.8472 9.32588 22.3092C9.26588 21.7032 9.34088 21.0432 9.97488 20.6602C11.2709 19.8782 20.1409 14.1722 20.8189 13.7652C21.3279 13.4592 21.8389 13.3072 22.7389 13.3072C23.0389 13.3072 23.3819 13.3242 23.7819 13.3582C25.3839 13.4942 44.7649 16.1732 45.7599 16.2182C46.3709 16.2462 47.1199 16.5472 47.1219 17.1092C47.1239 17.6162 47.0689 18.1272 46.7909 18.4912ZM43.7739 29.8782C43.4569 31.5492 43.2769 31.8662 42.7799 32.8142C42.2829 33.7632 38.6679 39.8642 37.7639 41.4902C37.0749 42.7312 36.1489 43.1302 34.8589 43.1302C34.4549 43.1302 34.0169 43.0922 33.5389 43.0272C31.5279 42.7562 18.1079 39.7282 16.0749 39.1862C14.0409 38.6432 13.4989 37.4692 13.2279 35.9322C12.9569 34.3962 11.7369 27.3022 11.7369 27.3022C11.2399 27.1672 10.5619 26.6242 10.5619 25.7202V25.3202C14.2449 26.0552 31.3669 29.0732 33.7549 29.4462C34.8899 29.6242 35.9619 29.7152 36.9369 29.7152C39.3989 29.7152 41.0899 29.1182 41.9619 27.9412C42.3309 27.4432 43.3059 26.1042 44.3819 24.6272C44.5339 24.4192 44.6889 24.2072 44.8419 23.9952C44.9079 23.6302 44.0359 28.4922 43.7739 29.8782ZM45.8359 14.5382C45.2679 14.5012 39.4649 13.7242 34.8029 13.0992C29.6299 12.4072 24.7439 11.7522 23.9229 11.6832C23.4719 11.6452 23.0849 11.6252 22.7389 11.6252C21.6009 11.6252 20.7689 11.8342 19.9549 12.3242C19.6579 12.5012 18.1679 13.4532 15.7619 14.9902C13.1189 16.6812 9.82788 18.7852 9.10688 19.2202C8.48288 19.5972 7.46288 20.5202 7.65388 22.4722C7.69488 22.9042 7.80688 24.0342 8.88188 24.7412V25.7202C8.88188 26.9222 9.47288 27.8352 10.2189 28.3922C10.5459 30.2952 11.3569 35.0062 11.5719 36.2252C11.8749 37.9352 12.6089 40.0012 15.6409 40.8102C17.7139 41.3632 31.2309 44.4122 33.3139 44.6932C33.9139 44.7732 34.4039 44.8122 34.8589 44.8122C36.8669 44.8122 38.2969 43.9922 39.2329 42.3072C39.6529 41.5522 40.6959 39.7652 41.7069 38.0362C43.1269 35.6052 44.0079 34.0932 44.2689 33.5952L44.3069 33.5232C44.8499 32.4862 45.0839 31.9932 45.4259 30.1902C45.6909 28.7832 46.4199 24.7192 46.6619 23.3742C47.3869 22.4572 47.7269 21.7082 47.7569 20.0072C47.9209 19.7852 48.0489 19.6132 48.1279 19.5092C48.7389 18.7092 48.8049 17.7512 48.8009 17.1012C48.7959 15.6942 47.5479 14.6162 45.8359 14.5382Z" fill="black"/>
<path fill-rule="evenodd" clip-rule="evenodd" d="M34.2031 31.2569L33.3781 31.1569C33.2051 31.1399 33.0671 31.2539 33.0461 31.4169C33.0261 31.5809 33.1421 31.7299 33.3061 31.7499L33.8141 31.8109L32.8371 36.8569C32.8051 37.0189 32.9111 37.1759 33.0721 37.2059C33.0931 37.2109 33.1111 37.2119 33.1291 37.2119C33.2691 37.2119 33.3941 37.1129 33.4211 36.9709L34.4591 31.6099C34.4751 31.5289 34.4571 31.4449 34.4081 31.3769C34.3601 31.3109 34.2841 31.2679 34.2031 31.2569Z" fill="black"/>
<path fill-rule="evenodd" clip-rule="evenodd" d="M29.9883 30.5325L29.1633 30.4325C28.9903 30.4155 28.8513 30.5295 28.8313 30.6925C28.8113 30.8565 28.9273 31.0055 29.0913 31.0245L29.5993 31.0865L28.6203 36.1325C28.5893 36.2945 28.6953 36.4515 28.8563 36.4815C28.8763 36.4865 28.8953 36.4875 28.9133 36.4875C29.0533 36.4875 29.1783 36.3885 29.2053 36.2465L30.2443 30.8855C30.2603 30.8045 30.2423 30.7205 30.1933 30.6525C30.1453 30.5865 30.0693 30.5435 29.9883 30.5325Z" fill="black"/>
<path fill-rule="evenodd" clip-rule="evenodd" d="M25.7721 29.8081L24.9471 29.7081C24.7761 29.6911 24.6341 29.8051 24.6151 29.9681C24.5951 30.1321 24.7111 30.2811 24.8751 30.3001L25.3831 30.3621L24.4061 35.4091C24.3741 35.5701 24.4801 35.7271 24.6411 35.7581C24.6621 35.7621 24.6801 35.7641 24.6981 35.7641C24.8381 35.7641 24.9631 35.6641 24.9901 35.5231L26.0281 30.1611C26.0441 30.0801 26.0261 29.9961 25.9771 29.9281C25.9291 29.8621 25.8531 29.8191 25.7721 29.8081Z" fill="black"/>
<path fill-rule="evenodd" clip-rule="evenodd" d="M21.5571 29.0849L20.7321 28.9839C20.5621 28.9669 20.4191 29.0819 20.4001 29.2439C20.3801 29.4079 20.4961 29.5579 20.6601 29.5759L21.1681 29.6379L20.1911 34.6849C20.1591 34.8459 20.2651 35.0029 20.4261 35.0339C20.4471 35.0379 20.4651 35.0399 20.4831 35.0399C20.6231 35.0399 20.7481 34.9399 20.7751 34.7989L21.8131 29.4369C21.8291 29.3559 21.8111 29.2729 21.7621 29.2039C21.7141 29.1379 21.6381 29.0949 21.5571 29.0849Z" fill="black"/>
<path fill-rule="evenodd" clip-rule="evenodd" d="M17.342 28.3604L16.517 28.2594C16.34 28.2424 16.204 28.3574 16.185 28.5204C16.165 28.6834 16.281 28.8334 16.445 28.8514L16.953 28.9134L15.974 33.9604C15.943 34.1214 16.049 34.2784 16.21 34.3094C16.23 34.3134 16.249 34.3154 16.267 34.3154C16.407 34.3154 16.532 34.2154 16.559 34.0744L17.598 28.7134C17.614 28.6314 17.596 28.5484 17.547 28.4804C17.499 28.4134 17.423 28.3704 17.342 28.3604Z" fill="black"/>
<path fill-rule="evenodd" clip-rule="evenodd" d="M38.3748 24.1402C38.0578 24.5622 37.4888 24.7492 36.5298 24.7492C35.9388 24.7492 35.2028 24.6762 34.1428 24.5132C33.4698 24.4092 15.4608 21.3262 12.7458 20.8482C12.1718 20.7782 12.0028 21.3692 12.5048 21.4552C13.8288 21.6812 31.6928 24.6972 34.0588 25.0632C35.0018 25.2072 35.8278 25.3052 36.5298 25.3052C37.5868 25.3052 38.3598 25.0842 38.8188 24.4742C38.8978 24.3692 43.9908 17.8602 44.1358 17.6842C44.3128 17.4492 43.8668 17.2592 43.6518 17.5242C42.8428 18.5172 38.4478 24.0412 38.3748 24.1402Z" fill="black"/>
</svg>
