<svg width="57" height="57" viewBox="0 0 57 57" fill="none" xmlns="http://www.w3.org/2000/svg">
<path fill-rule="evenodd" clip-rule="evenodd" d="M18.7687 33.3699L18.7677 33.3679L20.1867 32.8209L20.1897 32.8289C20.2917 32.7849 20.3987 32.7539 20.5137 32.7539C21.1407 32.7539 21.6787 33.4629 21.7167 34.3399C21.7477 35.0759 21.4127 35.6919 20.9337 35.8689L20.9347 35.8739L20.0037 36.2319V37.0279C20.0037 37.1059 19.7967 37.1709 19.5427 37.1709C19.2897 37.1709 19.0827 37.1059 19.0827 37.0279V36.4909C18.4877 36.4409 17.9867 35.7579 17.9497 34.9149C17.9177 34.1599 18.2687 33.5289 18.7687 33.3699ZM18.4307 36.9629V37.0279C18.4307 37.1609 18.4847 37.8229 19.5427 37.8229C20.6017 37.8229 20.6557 37.1609 20.6557 37.0279V36.6809L21.1687 36.4839C21.2017 36.4709 21.2337 36.4549 21.2637 36.4379C21.9697 36.1169 22.4107 35.2789 22.3677 34.3099C22.3147 33.0719 21.5007 32.0999 20.5137 32.0999C20.3577 32.0999 20.2017 32.1279 20.0417 32.1849C20.0117 32.1919 19.9807 32.2009 19.9527 32.2129L18.5337 32.7599C18.5217 32.7629 18.5117 32.7669 18.5007 32.7719C17.7457 33.0549 17.2547 33.9349 17.2987 34.9439C17.3387 35.8519 17.7937 36.6249 18.4307 36.9629Z" fill="black"/>
<path fill-rule="evenodd" clip-rule="evenodd" d="M28.1487 42.8102V23.6722L41.4997 18.1412L41.5027 34.2722L28.1487 42.8102ZM27.6987 22.8942L21.6927 20.5342L35.0017 15.5622L41.1937 17.3032L27.6987 22.8942ZM27.2587 42.8682L14.5337 36.3962L14.5257 18.6742L27.2587 23.6772V42.8682ZM28.3317 13.6872L33.5507 15.1542L20.4537 20.0472L14.7057 17.7882L28.3317 13.6872ZM43.3387 16.9262C43.3387 16.1022 42.7907 15.3792 41.9977 15.1552L28.8267 11.4512C28.6637 11.4052 28.4957 11.3832 28.3287 11.3832C28.1497 11.3832 27.9707 11.4092 27.7987 11.4612L13.9957 15.6152C13.2177 15.8492 12.6857 16.5662 12.6867 17.3782L12.6937 36.3962C12.6937 37.0892 13.0827 37.7222 13.7007 38.0352L26.8687 44.7342C27.1327 44.8672 27.4177 44.9352 27.7027 44.9352C28.0487 44.9352 28.3937 44.8372 28.6937 44.6442L42.4937 35.8232C43.0227 35.4832 43.3427 34.8992 43.3427 34.2722L43.3387 16.9262Z" fill="black"/>
<path fill-rule="evenodd" clip-rule="evenodd" d="M19.8097 34.7583C19.8567 34.9763 19.8417 35.1923 19.7707 35.3663C19.7077 35.5223 19.7717 35.6993 19.9187 35.7793C19.9677 35.8053 20.0197 35.8183 20.0717 35.8183C20.1787 35.8183 20.2817 35.7673 20.3447 35.6733C20.5487 35.3703 20.6187 34.9773 20.5407 34.5973C20.4497 34.1563 20.1737 33.7813 19.8007 33.5933C19.6547 33.5153 19.4717 33.5663 19.3797 33.7063C19.2887 33.8473 19.3197 34.0343 19.4507 34.1393C19.6247 34.2783 19.7537 34.5033 19.8097 34.7583Z" fill="black"/>
</svg>
