<svg width="57" height="57" viewBox="0 0 57 57" fill="none" xmlns="http://www.w3.org/2000/svg">
<path fill-rule="evenodd" clip-rule="evenodd" d="M20.6122 42.679L23.2922 42.088V44.011C23.2912 44.278 23.2172 44.387 23.2022 44.399C23.1822 44.406 23.0502 44.409 22.8562 44.284L20.6122 42.679ZM16.8582 42.361V41.348L17.1652 41.566V41.597C17.1652 41.616 17.1742 41.633 17.1752 41.652C17.1802 41.702 17.1912 41.748 17.2052 41.795C17.2182 41.839 17.2312 41.879 17.2502 41.918C17.2712 41.957 17.2972 41.992 17.3252 42.027C17.3542 42.066 17.3862 42.102 17.4242 42.134C17.4382 42.147 17.4462 42.163 17.4632 42.175L17.5192 42.216L16.8582 42.361ZM14.4372 38.266C13.9492 37.922 13.5072 37.064 13.5072 36.467V13.964C13.5072 13.786 13.5522 13.712 13.5642 13.703C13.5802 13.696 13.6652 13.688 13.8052 13.758L15.4362 14.639V38.972L14.4372 38.266ZM37.4892 12.036L37.2252 11.908C37.0712 11.833 36.9052 11.828 36.7512 11.866C36.7342 11.866 36.7192 11.86 36.7012 11.862L36.5072 11.885L36.2882 11.78L37.4892 11.643V12.036ZM42.3302 17.347L42.1912 39.645C42.1882 39.914 42.1152 40.041 42.0772 40.046C41.9242 40.069 41.7992 40.147 41.6962 40.248C41.6452 40.223 41.5952 40.209 41.5412 40.174L37.1922 37.474V16.947L37.7942 16.867V32.023C37.7942 32.248 37.9762 32.43 38.2012 32.43C38.4252 32.43 38.6082 32.248 38.6082 32.023V16.758L40.6942 16.478C41.0832 16.425 41.3572 16.066 41.3052 15.678C41.2922 15.588 41.2602 15.505 41.2182 15.431C41.8272 15.804 42.3352 16.656 42.3302 17.347ZM19.2762 41.723L23.2922 40.895V41.255L19.7232 42.043L19.2762 41.723ZM16.8582 15.028L17.1652 15.182V40.57L16.8582 40.352V15.028ZM15.5122 13.063L15.2362 12.914L15.6502 12.866C15.5922 12.924 15.5462 12.989 15.5122 13.063ZM38.6082 14.155L40.4992 15.068L38.6082 15.321V14.155ZM37.1922 13.471L37.7942 13.763V15.431L37.1922 15.511V13.471ZM32.0502 16.202V13.851L36.3792 13.334V15.621L32.0502 16.202ZM36.3792 36.968L35.2222 36.188L33.1022 34.756C32.5412 34.38 32.0502 33.476 32.0502 32.826V17.638L36.3792 17.057V36.968ZM22.6652 16.669L19.8432 15.307L31.2362 13.947V16.312L26.5022 16.947C26.1102 17 25.8382 17.358 25.8902 17.747C25.9382 18.105 26.2442 18.364 26.5952 18.364C26.6262 18.364 26.6582 18.362 26.6892 18.358L31.2362 17.747V32.826C31.2362 33.754 31.8562 34.897 32.6472 35.429L34.7672 36.861L35.7222 37.505L24.7152 39.772V19.955C24.7222 18.669 23.8222 17.225 22.6652 16.669ZM18.5882 16.281L22.0462 17.95C22.7142 18.272 23.2962 19.205 23.2922 19.951V40.066L18.5882 41.034V16.281ZM31.2362 12.356V12.515L17.7912 14.119C17.6092 14.141 17.4522 14.231 17.3392 14.361L16.8582 14.118V14.001L31.2362 12.356ZM34.8202 11.977L35.0022 12.065L32.0502 12.417V12.264L34.7852 11.952C34.7972 11.96 34.8052 11.972 34.8202 11.977ZM24.7152 41.774L34.5002 39.616C34.7192 39.568 34.8572 39.352 34.8092 39.132C34.7612 38.913 34.5482 38.776 34.3252 38.822L24.7152 40.941V40.602L36.7092 38.131L40.6242 40.562L24.6922 44.232C24.6982 44.158 24.7152 44.092 24.7152 44.015V41.774ZM41.7042 14.069L38.9122 12.722V10.846C38.9122 10.643 38.8262 10.449 38.6752 10.313C38.5242 10.179 38.3212 10.116 38.1212 10.138L34.1682 10.59L33.2972 10.235C32.7692 9.98 32.2312 9.975 31.7902 10.187L13.6262 12.281C13.3352 12.275 13.0582 12.342 12.8182 12.491C12.3522 12.779 12.0842 13.316 12.0842 13.964V36.467C12.0842 37.519 12.7562 38.82 13.6162 39.428L15.4362 40.714V43.247C15.4362 43.464 15.5322 43.667 15.7022 43.801C15.8282 43.906 15.9862 43.96 16.1472 43.96C16.1982 43.96 16.2492 43.953 16.2992 43.942L19.0762 43.33L22.0582 45.462C22.4322 45.703 22.8182 45.824 23.1792 45.824C23.4282 45.824 23.6642 45.767 23.8792 45.651C23.9762 45.597 24.0572 45.525 24.1392 45.452L41.8552 41.37C41.9552 41.423 42.0632 41.461 42.1822 41.461C42.2172 41.461 42.2512 41.459 42.2862 41.454C43.0862 41.335 43.6072 40.628 43.6132 39.656L43.7532 17.356C43.7622 16.072 42.8622 14.628 41.7042 14.069Z" fill="black"/>
</svg>
