<svg width="57" height="57" viewBox="0 0 57 57" fill="none" xmlns="http://www.w3.org/2000/svg">
<path fill-rule="evenodd" clip-rule="evenodd" d="M28.312 20.681C37.524 20.681 43.943 23.703 43.943 26.415C43.943 27.807 42.243 29.277 39.351 30.383C38.268 27.802 33.168 26.415 28.312 26.415C23.457 26.415 18.355 27.802 17.274 30.383C14.381 29.277 12.682 27.807 12.682 26.415C12.682 23.703 19.101 20.681 28.312 20.681ZM37.338 31.04C34.854 31.72 31.782 32.148 28.312 32.148C24.842 32.148 21.769 31.72 19.286 31.04C19.623 29.693 23.16 28.326 28.312 28.326C33.463 28.326 37.002 29.693 37.338 31.04ZM37.844 30.888C37.356 29.121 33.355 27.783 28.312 27.783C23.269 27.783 19.268 29.121 18.78 30.888C18.529 30.813 18.275 30.738 18.038 30.659C18.918 28.709 23.174 27.228 28.312 27.228C33.45 27.228 37.706 28.709 38.587 30.659C38.349 30.738 38.095 30.813 37.844 30.888ZM28.312 35.305C23.028 35.305 18.36 33.796 15.519 31.447C18.662 32.916 23.187 33.829 28.312 33.829C33.437 33.829 37.96 32.916 41.104 31.447C38.263 33.796 33.595 35.305 28.312 35.305ZM45.625 26.415C45.625 22.257 38.02 19 28.312 19C18.605 19 11 22.257 11 26.415C11 26.59 11.031 26.76 11.059 26.933C11.033 27.038 11.028 27.15 11.045 27.263C11.591 30.687 14.495 33.533 18.726 35.245C20.84 36.742 24.646 37.534 28.312 37.534C31.979 37.534 35.785 36.742 37.899 35.244C42.129 33.533 45.033 30.687 45.58 27.263C45.597 27.15 45.592 27.037 45.566 26.933C45.593 26.76 45.625 26.589 45.625 26.415Z" fill="black"/>
</svg>
