<svg width="57" height="57" viewBox="0 0 57 57" fill="none" xmlns="http://www.w3.org/2000/svg">
<path fill-rule="evenodd" clip-rule="evenodd" d="M25.5266 21.2105L26.7736 10.7185C26.8196 10.3275 26.5826 9.95449 26.2106 9.83349C26.0426 9.77849 25.9246 9.65349 25.9246 9.52949C25.9246 9.37349 26.1296 9.19949 26.4026 9.19949H29.2296C29.4876 9.19949 29.7066 9.34949 29.7066 9.52949C29.7066 9.65449 29.5916 9.77849 29.4256 9.83349C29.0506 9.95449 28.8126 10.3265 28.8576 10.7185L30.1066 21.2125C30.1406 21.4865 30.3056 21.7255 30.5506 21.8515C31.9376 22.5635 32.8696 24.4435 32.8696 26.5285V46.0045C32.8696 46.6635 32.3326 47.1995 31.6746 47.1995H23.9586C23.2996 47.1995 22.7646 46.6635 22.7646 46.0045V26.5285C22.7646 24.4435 23.6956 22.5625 25.0806 21.8505C25.3286 21.7245 25.4956 21.4845 25.5266 21.2105ZM31.7046 20.6035L30.5726 11.0805C31.0726 10.7035 31.3666 10.1335 31.3666 9.52949C31.3666 8.43249 30.4076 7.53949 29.2296 7.53949H26.4026C25.2256 7.53949 24.2666 8.43249 24.2666 9.52949C24.2666 10.1335 24.5606 10.7045 25.0606 11.0805L23.9266 20.6025C22.1826 21.7235 21.1046 23.9805 21.1046 26.5285V46.0045C21.1046 47.5785 22.3846 48.8585 23.9586 48.8585H31.6746C33.2476 48.8585 34.5296 47.5785 34.5296 46.0045V26.5285C34.5296 23.9815 33.4496 21.7235 31.7046 20.6035Z" fill="black"/>
<path fill-rule="evenodd" clip-rule="evenodd" d="M23.5303 26.8001C23.5303 27.1621 23.8243 27.4551 24.1843 27.4551C24.5463 27.4551 24.8383 27.1621 24.8383 26.8001C24.8383 26.4391 24.5463 26.1461 24.1843 26.1461C23.8243 26.1461 23.5303 26.4391 23.5303 26.8001Z" fill="black"/>
<path fill-rule="evenodd" clip-rule="evenodd" d="M25.5404 46.6466C26.2114 46.5296 26.8774 46.4386 27.5414 46.3966C28.2044 46.3516 28.8664 46.3536 29.5304 46.4266C30.1964 46.4936 30.8524 46.6446 31.5444 46.8506C31.0414 46.3276 30.3744 45.9666 29.6724 45.7506C28.9624 45.5376 28.2144 45.4696 27.4824 45.5186C26.7504 45.5696 26.0334 45.7316 25.3574 45.9826C24.6844 46.2406 24.0354 46.5726 23.4844 47.0466C24.1914 46.9036 24.8644 46.7596 25.5404 46.6466Z" fill="black"/>
<path fill-rule="evenodd" clip-rule="evenodd" d="M24.6646 44.8281V28.7241C24.6646 28.4581 24.4496 28.2431 24.1856 28.2431C23.9196 28.2431 23.7036 28.4581 23.7036 28.7241V44.8281C23.7036 45.0931 23.9196 45.3071 24.1856 45.3071C24.4496 45.3071 24.6646 45.0931 24.6646 44.8281Z" fill="black"/>
</svg>
