<svg width="57" height="57" viewBox="0 0 57 57" fill="none" xmlns="http://www.w3.org/2000/svg">
<path fill-rule="evenodd" clip-rule="evenodd" d="M35.6353 46.9889C35.6353 47.4119 35.5593 47.4989 35.3383 47.6489C35.2273 47.7069 34.7893 47.8389 33.0983 47.8389H24.8083H24.6973C23.0073 47.8389 22.5683 47.7069 22.4743 47.6589C22.2383 47.4979 22.1613 47.4109 22.1613 46.9889V21.5049C22.1613 19.4209 22.6093 18.9209 22.7833 18.9039C23.2413 18.8579 23.7473 18.8489 24.3323 18.8389C24.7783 18.8309 25.2563 18.8219 25.7643 18.7969C26.0783 18.7809 26.3563 18.6419 26.5553 18.4089C26.9643 17.9189 26.8773 17.2209 26.7853 16.4799C26.7513 16.2069 26.7003 15.7929 26.7263 15.6579C26.9043 14.7689 27.7053 11.4209 27.7143 11.3869C27.7293 11.3229 27.7373 11.2579 27.7373 11.1919V10.2159L28.9693 9.73691C29.2163 9.64191 29.3383 9.36391 29.2423 9.11591C29.1473 8.86891 28.8683 8.74591 28.6213 8.84191L27.7373 9.18691V8.68091H30.0583V9.45591L29.4213 9.70291C29.1733 9.79991 29.0513 10.0779 29.1473 10.3249C29.2203 10.5149 29.4033 10.6309 29.5943 10.6309C29.6523 10.6309 29.7113 10.6219 29.7683 10.5989L30.0583 10.4869V11.1919C30.0583 11.2579 30.0663 11.3229 30.0813 11.3879C30.0903 11.4209 30.8913 14.7689 31.0683 15.6579C31.0963 15.7969 31.0453 16.2159 31.0113 16.4949C30.9173 17.2439 30.8303 17.9549 31.2573 18.4349C31.4633 18.6689 31.7543 18.7989 32.0733 18.7989C33.2973 18.7989 34.3133 18.8339 35.0153 18.9039C35.1873 18.9209 35.6353 19.4219 35.6353 21.5049V46.9889ZM35.1793 17.2309C34.5283 17.1659 33.6713 17.1299 32.6313 17.1199C32.6453 16.9739 32.6653 16.8189 32.6793 16.6999C32.7403 16.2019 32.7993 15.7329 32.7183 15.3289C32.5493 14.4849 31.8753 11.6639 31.7393 11.0919V7.83891C31.7393 7.37591 31.3633 6.99991 30.8993 6.99991H26.8963C26.4323 6.99991 26.0563 7.37591 26.0563 7.83891V11.0919C25.9193 11.6639 25.2473 14.4849 25.0793 15.3299C24.9973 15.7339 25.0583 16.2189 25.1173 16.6879C25.1323 16.8149 25.1543 16.9849 25.1683 17.1389C24.8673 17.1479 24.5803 17.1529 24.3033 17.1589C23.7073 17.1689 23.1433 17.1789 22.6163 17.2309C21.1973 17.3709 20.4793 18.8089 20.4793 21.5049V46.9889C20.4793 47.9179 20.8033 48.5539 21.5253 49.0459C22.0213 49.3879 22.9113 49.5199 24.6973 49.5199H33.0383H33.0983C34.8853 49.5199 35.7743 49.3879 36.2683 49.0469C36.9933 48.5539 37.3163 47.9189 37.3163 46.9889V21.5049C37.3163 18.8099 36.5983 17.3709 35.1793 17.2309Z" fill="black"/>
<path fill-rule="evenodd" clip-rule="evenodd" d="M33.3032 45.3326C33.2582 45.2936 33.2012 45.2706 33.1422 45.2706H24.6532C24.5952 45.2706 24.5372 45.2936 24.4932 45.3326L23.0412 46.6466C22.9502 46.7296 22.9352 46.8656 23.0072 46.9656C23.0552 47.0296 23.1272 47.0656 23.2022 47.0656C23.2442 47.0656 23.2842 47.0546 23.3222 47.0326L24.7172 46.2356H33.0792L34.4752 47.0326C34.5832 47.0936 34.7172 47.0666 34.7902 46.9656C34.8612 46.8656 34.8472 46.7296 34.7562 46.6466L33.3032 45.3326Z" fill="black"/>
</svg>
