<svg width="57" height="57" viewBox="0 0 57 57" fill="none" xmlns="http://www.w3.org/2000/svg">
<path fill-rule="evenodd" clip-rule="evenodd" d="M34.02 44.2461V18.1661L35.182 19.4161V21.0731C35.182 21.2151 35.257 21.3451 35.379 21.4161C35.442 21.4541 35.511 21.4721 35.582 21.4721C35.648 21.4721 35.714 21.4561 35.772 21.4251L36.895 20.8151C36.974 20.7721 37.035 20.7061 37.071 20.6241L38.811 16.6561V41.6481L34.02 44.2461ZM18.398 14.8991L32.622 17.4151V44.5551L18.398 41.5001V14.8991ZM24.216 12.4171L30.064 13.3181L30.076 14.2131C30.077 14.2341 30.084 14.2931 30.089 14.3141C30.103 14.3921 30.131 14.4661 30.166 14.5381L22.073 13.2041L24.216 12.4171ZM32.985 11.8681C33.1 11.8681 33.216 11.8711 33.332 11.8781C34.358 11.9421 34.91 12.2491 35.045 12.5101C34.941 12.7711 34.12 13.1471 32.907 13.1471C32.792 13.1471 32.677 13.1431 32.561 13.1361C31.54 13.0721 30.988 12.7661 30.849 12.5061V12.5001C30.961 12.2391 31.779 11.8681 32.985 11.8681ZM37.059 14.3961L34.968 15.3301L34.757 15.2951C35.269 15.1071 35.666 14.8261 35.819 14.4461C35.849 14.3661 35.865 14.2881 35.872 14.2141L37.059 14.3961ZM35.982 16.4071L38.551 15.2601L36.395 20.1791L35.982 20.4021V16.4071ZM33.645 15.9211L33.232 16.1051L20.37 13.8301L20.553 13.7631L33.645 15.9211ZM35.077 14.1521C34.952 14.4611 33.909 14.8601 32.59 14.7761C31.432 14.7041 30.901 14.3211 30.875 14.2001L30.865 13.5471C31.29 13.7541 31.855 13.8921 32.513 13.9331C32.645 13.9421 32.777 13.9461 32.907 13.9461C33.666 13.9461 34.486 13.8051 35.067 13.5051L35.077 14.1521ZM35.182 18.2431L34.21 17.1991L35.182 16.7641V18.2431ZM40.2 14.0361C40.199 14.0151 40.205 13.9951 40.201 13.9741C40.191 13.8921 40.163 13.8151 40.127 13.7441C40.12 13.7311 40.109 13.7231 40.102 13.7111C40.054 13.6321 39.992 13.5661 39.917 13.5111C39.907 13.5031 39.902 13.4891 39.89 13.4811C39.883 13.4771 39.873 13.4781 39.866 13.4721C39.79 13.4271 39.708 13.3911 39.616 13.3761L35.952 12.8121C35.92 12.8061 35.89 12.8171 35.857 12.8161L35.852 12.5001C35.852 12.4851 35.846 12.4741 35.844 12.4591C35.839 12.3081 35.796 12.1551 35.707 12.0151C35.382 11.5011 34.512 11.1521 33.382 11.0811C33.249 11.0721 33.117 11.0691 32.985 11.0691C31.928 11.0691 30.754 11.3391 30.268 11.9361L24.251 11.0081C24.135 10.9901 24.015 11.0021 23.904 11.0431L17.459 13.4101C17.382 13.4401 17.315 13.4801 17.255 13.5291C17.253 13.5311 17.251 13.5311 17.25 13.5321C17.242 13.5381 17.24 13.5471 17.234 13.5541C17.173 13.6081 17.125 13.6731 17.088 13.7431C17.074 13.7681 17.066 13.7921 17.055 13.8171C17.031 13.8811 17.017 13.9471 17.011 14.0161C17.01 14.0341 17 14.0491 17 14.0681V42.0641C17 42.3941 17.231 42.6781 17.552 42.7471L33.175 46.1031C33.223 46.1131 33.273 46.1191 33.32 46.1191C33.423 46.1191 33.522 46.0871 33.615 46.0441C33.628 46.0381 33.641 46.0411 33.655 46.0331L39.842 42.6791C40.068 42.5551 40.208 42.3211 40.208 42.0641V14.0681C40.208 14.0561 40.2 14.0461 40.2 14.0361Z" fill="black"/>
</svg>
