<svg width="57" height="57" viewBox="0 0 57 57" fill="none" xmlns="http://www.w3.org/2000/svg">
<path fill-rule="evenodd" clip-rule="evenodd" d="M8.87097 23.7279L22.515 32.7129L22.554 35.9859L8.86797 26.3459L8.87097 23.7279ZM27.589 25.6459C27.745 25.7359 27.929 25.7729 28.11 25.7489L38.341 24.4369L45.981 27.9869L23.594 31.3699L10.308 22.6579L19.702 21.1559L27.589 25.6459ZM46.377 29.6259L48.025 29.3779V31.5689L46.377 29.6259ZM45.536 30.1179L47.684 32.6489L43.871 33.2949L45.536 30.1179ZM39.698 31.0349L41.959 33.6189L37.93 34.3039L39.698 31.0349ZM33.568 31.8839L35.833 34.6579L31.496 35.3949L33.568 31.8839ZM27.08 32.7449L29.457 35.7409L24.979 36.4999L27.08 32.7449ZM44.564 29.9009L42.848 33.1779L40.517 30.5119L44.564 29.9009ZM38.466 30.8229L38.744 30.7799L36.816 34.3439L34.439 31.4319L38.466 30.8229ZM32.552 31.7159L30.394 35.3739L28.031 32.3989L32.552 31.7159ZM24.255 32.9699L26.002 32.7059L24.255 35.8259V32.9699ZM49.695 28.3469C49.69 28.2619 49.672 28.1809 49.642 28.1039C49.633 28.0799 49.628 28.0549 49.616 28.0319C49.569 27.9349 49.505 27.8479 49.423 27.7749C49.42 27.7719 49.418 27.7679 49.415 27.7629C49.402 27.7519 49.384 27.7499 49.371 27.7389C49.323 27.7039 49.278 27.6649 49.22 27.6369L38.83 22.8089C38.685 22.7429 38.527 22.7149 38.368 22.7389L28.175 24.0459L20.277 19.5489C20.111 19.4539 19.918 19.4209 19.729 19.4499L7.89897 21.3389C7.89197 21.3409 7.88297 21.3449 7.87397 21.3479C7.82097 21.3569 7.76897 21.3769 7.71897 21.3969C7.69497 21.4059 7.66997 21.4119 7.64797 21.4229C7.64297 21.4259 7.63797 21.4269 7.63297 21.4289C7.57497 21.4599 7.52397 21.5019 7.47497 21.5449C7.46797 21.5499 7.45897 21.5549 7.45297 21.5609C7.39497 21.6169 7.34597 21.6789 7.30597 21.7489C7.29597 21.7649 7.29097 21.7859 7.28197 21.8029C7.25597 21.8569 7.23197 21.9129 7.21897 21.9709C7.21697 21.9789 7.21297 21.9849 7.21097 21.9929C7.20497 22.0159 7.20997 22.0379 7.20597 22.0619C7.20197 22.0969 7.19097 22.1319 7.19097 22.1689L7.18597 26.7799C7.18597 27.0539 7.31797 27.3109 7.54297 27.4679L22.93 38.3059C22.972 38.3369 23.02 38.3519 23.067 38.3739C23.093 38.3859 23.118 38.4019 23.145 38.4119C23.232 38.4409 23.323 38.4589 23.414 38.4589C23.461 38.4589 23.508 38.4549 23.555 38.4459L49.007 34.1289C49.411 34.0599 49.706 33.7099 49.706 33.3009V28.4009C49.706 28.3809 49.697 28.3649 49.695 28.3469Z" fill="black"/>
</svg>
