<svg width="57" height="57" viewBox="0 0 57 57" fill="none" xmlns="http://www.w3.org/2000/svg">
<path fill-rule="evenodd" clip-rule="evenodd" d="M28.175 15.2839C35.517 15.2839 41.488 18.5569 41.488 22.5779C41.488 26.5989 35.517 29.8699 28.175 29.8699C20.833 29.8699 14.861 26.5989 14.861 22.5779C14.861 18.5569 20.833 15.2839 28.175 15.2839ZM28.175 30.8309C36.046 30.8309 42.449 27.1279 42.449 22.5779C42.449 18.0259 36.046 14.3229 28.175 14.3229C20.304 14.3229 13.901 18.0259 13.901 22.5779C13.901 27.1279 20.304 30.8309 28.175 30.8309Z" fill="black"/>
<path fill-rule="evenodd" clip-rule="evenodd" d="M19.4793 25.6169C18.9823 24.9749 18.7043 24.2739 18.7043 23.5379C18.7043 20.1989 22.7553 17.8719 29.1353 18.0289C32.7673 18.1189 35.9633 19.0119 37.8313 20.4979C36.2763 18.4879 32.5413 17.0689 28.1753 17.0689C22.4143 17.0689 17.7443 19.5349 17.7443 22.5769C17.7443 23.7009 18.3843 24.7449 19.4793 25.6169Z" fill="black"/>
<path fill-rule="evenodd" clip-rule="evenodd" d="M28.175 36.882C18.487 36.882 10.531 32.798 9.759 27.625C12.877 31.727 19.855 34.525 28.175 34.525C36.494 34.525 43.472 31.727 46.591 27.625C45.818 32.798 37.863 36.882 28.175 36.882ZM41.128 37.152C41.128 40.91 35.197 44.085 28.175 44.085C21.153 44.085 15.222 40.91 15.222 37.152V35.883C18.703 37.563 23.201 38.563 28.175 38.563C33.149 38.563 37.647 37.563 41.128 35.883V37.152ZM28.175 12.682C38.372 12.682 46.668 17.203 46.668 22.763C46.668 28.322 38.372 32.845 28.175 32.845C17.978 32.845 9.681 28.322 9.681 22.763C9.681 17.203 17.978 12.682 28.175 12.682ZM28.175 11C16.862 11 8 16.168 8 22.763V26.801C8 30.001 10.099 32.859 13.54 34.96V37.152C13.54 41.981 19.969 45.765 28.175 45.765C36.38 45.765 42.809 41.981 42.809 37.152V34.96C46.25 32.859 48.349 30.001 48.349 26.801V22.763C48.349 16.168 39.488 11 28.175 11Z" fill="black"/>
</svg>
