<svg width="57" height="57" viewBox="0 0 57 57" fill="none" xmlns="http://www.w3.org/2000/svg">
<path fill-rule="evenodd" clip-rule="evenodd" d="M28.376 47.693C23.898 47.693 20.679 46.564 20.679 45.172V14.994C22.082 15.851 25.237 16.246 28.376 16.246C31.513 16.246 34.669 15.851 36.071 14.994V45.172C36.071 46.564 32.853 47.693 28.376 47.693ZM28.376 9.681C32.853 9.681 36.071 10.525 36.071 11.565V13.756C36.037 13.817 36.012 13.881 36.012 13.956C36.012 14.375 33.74 15.433 28.376 15.433C23.011 15.433 20.739 14.375 20.739 13.956C20.739 13.882 20.715 13.817 20.679 13.757V11.565C20.679 10.525 23.898 9.681 28.376 9.681ZM28.376 8C20.218 8 19 10.234 19 11.565V45.172C19 48.27 23.843 49.374 28.376 49.374C32.909 49.374 37.752 48.27 37.752 45.172V11.565C37.752 10.234 36.533 8 28.376 8Z" fill="black"/>
<path fill-rule="evenodd" clip-rule="evenodd" d="M24.4394 11.6115C24.8614 11.6115 25.2024 11.5045 25.2024 11.3705C25.2024 11.2375 24.8614 11.1315 24.4394 11.1315C24.0174 11.1315 23.6764 11.2375 23.6764 11.3705C23.6764 11.5045 24.0174 11.6115 24.4394 11.6115Z" fill="black"/>
<path fill-rule="evenodd" clip-rule="evenodd" d="M27.1897 10.9951C27.6127 10.9951 27.9537 10.8871 27.9537 10.7531C27.9537 10.6211 27.6127 10.5141 27.1897 10.5141C26.7677 10.5141 26.4277 10.6211 26.4277 10.7531C26.4277 10.8871 26.7677 10.9951 27.1897 10.9951Z" fill="black"/>
<path fill-rule="evenodd" clip-rule="evenodd" d="M26.9769 12.3263C27.4749 12.3263 27.8769 12.1983 27.8769 12.0413C27.8769 11.8853 27.4749 11.7583 26.9769 11.7583C26.4789 11.7583 26.0759 11.8853 26.0759 12.0413C26.0759 12.1983 26.4789 12.3263 26.9769 12.3263Z" fill="black"/>
<path fill-rule="evenodd" clip-rule="evenodd" d="M32.3114 11.6115C32.7334 11.6115 33.0744 11.5045 33.0744 11.3705C33.0744 11.2375 32.7334 11.1315 32.3114 11.1315C31.8894 11.1315 31.5494 11.2375 31.5494 11.3705C31.5494 11.5045 31.8894 11.6115 32.3114 11.6115Z" fill="black"/>
<path fill-rule="evenodd" clip-rule="evenodd" d="M29.5609 10.9951C29.9829 10.9951 30.3239 10.8871 30.3239 10.7531C30.3239 10.6211 29.9829 10.5141 29.5609 10.5141C29.1389 10.5141 28.7979 10.6211 28.7979 10.7531C28.7979 10.8871 29.1389 10.9951 29.5609 10.9951Z" fill="black"/>
<path fill-rule="evenodd" clip-rule="evenodd" d="M28.8735 12.0414C28.8735 12.1984 29.2765 12.3264 29.7745 12.3264C30.2715 12.3264 30.6745 12.1984 30.6745 12.0414C30.6745 11.8844 30.2715 11.7574 29.7745 11.7574C29.2765 11.7574 28.8735 11.8844 28.8735 12.0414Z" fill="black"/>
</svg>
