<svg width="57" height="57" viewBox="0 0 57 57" fill="none" xmlns="http://www.w3.org/2000/svg">
<path fill-rule="evenodd" clip-rule="evenodd" d="M29.8695 29.9884C29.9095 30.9894 30.3555 32.0894 31.2035 33.0054C32.0095 33.8764 33.0155 34.4024 34.0045 34.5124C33.7335 34.6614 33.4135 34.7354 33.0425 34.7274C32.2325 34.7004 31.3395 34.2494 30.6585 33.5194C29.5925 32.3804 29.2895 30.8944 29.8695 29.9884ZM30.3855 29.3354C30.3765 30.3784 30.8225 31.5544 31.7145 32.5254C32.5425 33.4294 33.5905 33.9704 34.6095 34.0554C34.4995 34.0664 34.3875 34.0754 34.2695 34.0714C33.3455 34.0364 32.3315 33.5184 31.5565 32.6794C30.5935 31.6394 30.1875 30.3494 30.3855 29.3354ZM36.7935 30.8884C36.2725 31.3744 35.3955 31.3274 34.9135 30.7874L33.9975 29.7654C34.0765 29.7314 34.1495 29.6884 34.2135 29.6274C34.3385 29.5114 34.4025 29.3564 34.4295 29.1964C34.6735 28.9494 34.6885 28.5604 34.4555 28.2944C34.3085 28.1254 34.0805 28.0654 33.8645 28.0974L33.7515 27.9714L35.0345 26.7674L36.8785 28.9024C37.3805 29.4824 37.3425 30.3734 36.7935 30.8884ZM33.4305 28.3324L33.0425 28.6964L33.0135 28.6644L33.4025 28.3004L33.4305 28.3324ZM35.9075 32.2014C35.9595 32.2014 36.0095 32.1914 36.0615 32.1864L36.2345 32.3834C36.1555 32.5254 36.0605 32.6554 35.9445 32.7654C35.6225 33.0684 35.1785 33.2234 34.6745 33.1984C33.8685 33.1684 32.9855 32.7094 32.3105 31.9734C31.3485 30.9234 31.0275 29.5894 31.4185 28.6714C31.4505 28.7654 31.5015 28.8544 31.5705 28.9314C31.7195 29.0984 31.9295 29.1924 32.1505 29.1924C32.1635 29.1924 32.1765 29.1864 32.1905 29.1844L32.3405 29.3544L31.6755 29.9784C31.4185 30.2224 31.3995 30.6354 31.6415 30.9054C31.7665 31.0414 31.9445 31.1204 32.1285 31.1204C32.2955 31.1204 32.4535 31.0564 32.5725 30.9434L33.2205 30.3364L34.1965 31.4284C34.6365 31.9194 35.2605 32.2014 35.9075 32.2014ZM33.1195 35.2084C33.7235 35.2084 34.2495 35.0124 34.6465 34.6404L34.7765 34.5194C35.2755 34.4454 35.7175 34.2474 36.0675 33.9184L36.5695 33.4464C36.7595 33.2694 36.9015 33.0534 37.0235 32.8204C37.2105 32.8124 37.3865 32.7444 37.5255 32.6134L38.4695 31.7284C38.7845 31.4344 38.8095 30.9274 38.5255 30.6014L38.1565 30.1784C38.2445 29.5144 38.0705 28.8124 37.6045 28.2754L36.6245 27.1404L37.0835 26.7114C37.3415 26.4694 37.3615 26.0674 37.1305 25.7934C37.0165 25.6584 36.8475 25.5744 36.6705 25.5654C36.4905 25.5514 36.3205 25.6204 36.1945 25.7394L35.7635 26.1434L35.5885 25.9424C35.5985 25.7434 35.5355 25.5424 35.3985 25.3844C35.1215 25.0624 34.5965 25.0334 34.2945 25.3184L32.7385 26.7784C32.1175 26.8004 31.5625 27.0094 31.1435 27.4034L30.6235 27.8914C30.2555 28.2364 30.0385 28.6904 29.9335 29.1924L29.7855 29.3314C28.6975 30.3514 28.9325 32.3774 30.3075 33.8484C31.0865 34.6794 32.0765 35.1754 33.0275 35.2064C33.0575 35.2084 33.0895 35.2084 33.1195 35.2084Z" fill="black"/>
<path fill-rule="evenodd" clip-rule="evenodd" d="M42.9921 37.3996C41.9091 37.8436 39.7021 39.3016 39.3471 40.3536C39.1991 40.7936 38.8201 41.5356 38.6021 41.9436C38.0741 42.2336 36.5541 43.0786 35.4541 43.7856C34.0751 44.6706 32.8521 46.2366 32.3481 47.0246C32.2981 47.1016 32.2491 47.1616 32.2061 47.2096L31.9701 46.9856C32.4381 46.4786 33.0391 45.7356 33.2011 45.0966C33.3981 44.7206 34.8301 43.8606 35.4411 43.4936C35.8761 43.2326 36.2471 43.0076 36.4581 42.8476C36.9471 42.4816 37.5171 42.4146 37.5171 42.4146C37.8361 42.3856 38.1101 42.1756 38.2251 41.8766C38.6681 40.7076 39.5951 38.8726 40.2691 38.4606C40.4861 38.3266 40.7421 38.1786 41.0191 38.0156C42.8241 36.9646 44.2421 36.0786 44.7301 35.0796C44.8271 34.8816 45.0421 34.6336 45.3061 34.3746C45.0901 34.6906 44.8811 35.0136 44.6761 35.3326C44.1131 36.2076 43.4751 37.2016 42.9921 37.3996ZM14.8761 19.7576C15.1321 19.1106 16.5821 17.6816 17.4941 16.9046C19.5181 15.3626 22.0731 13.6416 22.6351 13.5396C23.6191 13.4546 24.9351 12.2486 25.8091 11.3206L45.2511 32.2116C44.5421 32.7496 43.6001 33.5636 43.2201 34.3426C42.9161 34.9626 41.1311 36.0046 40.1711 36.5646C39.8831 36.7326 39.6171 36.8876 39.3891 37.0276C38.2231 37.7436 37.2401 39.8496 36.8271 40.8436C36.4531 40.9446 35.9381 41.1366 35.4481 41.5046C35.2681 41.6396 34.9471 41.8296 34.5751 42.0526C32.9691 43.0186 31.8131 43.7676 31.5901 44.6316C31.5311 44.8596 31.2351 45.2726 30.8841 45.6776L10.7591 22.7896C12.3091 22.0256 14.4631 20.8066 14.8761 19.7576ZM11.1171 19.5066C12.2351 19.1136 13.9441 17.8336 14.3441 16.9096C14.5821 16.4396 16.8791 14.4456 18.0601 13.7606C18.9141 13.2646 20.1661 12.8456 20.5901 12.7096C19.1441 13.5716 17.3811 14.8776 16.4421 15.5956C16.0061 15.9646 13.8151 17.8716 13.3161 19.1346C13.1041 19.5666 11.3631 20.6466 9.4711 21.5396L8.8161 20.8436C9.5511 20.3466 10.5661 19.7036 11.1171 19.5066ZM23.1041 10.5226L23.4181 10.3346C23.6581 10.1866 23.9361 9.93359 24.1661 9.70059L24.6541 10.0876C23.7681 11.0256 22.8221 11.8146 22.4891 11.8646C22.1681 11.8936 21.6771 12.1046 21.1081 12.4146C21.5631 11.8536 21.7661 11.5246 21.8531 11.3096C22.1161 11.1066 22.8201 10.6906 23.1041 10.5226ZM48.5851 31.5926C48.5721 31.5926 48.5541 31.5916 48.5361 31.5926L46.9921 31.6136L26.4141 9.50259C26.2801 9.35959 26.0901 9.25659 25.9031 9.23959L24.5341 8.15459C24.2321 7.91659 23.7921 7.95659 23.5401 8.25259C23.3121 8.52059 22.8761 8.97659 22.6651 9.10759L22.3701 9.28159C20.9961 10.0946 20.5661 10.3916 20.4941 10.8156C20.4311 10.9246 20.2801 11.1376 20.1141 11.3496C19.5981 11.5156 18.2871 11.9626 17.3361 12.5156C16.3621 13.0806 13.4381 15.3756 13.0241 16.3316C12.8461 16.7436 11.5731 17.8176 10.6361 18.1496C9.5451 18.5356 7.5251 19.9806 7.2991 20.1436C7.1311 20.2656 7.0241 20.4526 7.0031 20.6586C6.9841 20.8656 7.0531 21.0696 7.1951 21.2216L8.5771 22.6916C8.6071 22.8266 8.6661 22.9546 8.7601 23.0596L30.2261 47.4726C30.3361 47.5996 30.4881 47.6736 30.6491 47.7156L31.5831 48.6086C31.7181 48.7366 31.8971 48.8066 32.0811 48.8066C32.1011 48.8066 32.1201 48.8056 32.1401 48.8046C32.2761 48.7936 32.9871 48.6936 33.5601 47.8026C33.9731 47.1616 35.0601 45.7506 36.2331 44.9986C37.5111 44.1776 39.4591 43.1166 39.4781 43.1066C39.5991 43.0406 39.6981 42.9426 39.7651 42.8216C39.7931 42.7706 40.4611 41.5616 40.7111 40.8166C40.8681 40.4306 42.4201 39.1896 43.5391 38.7326C44.4421 38.3636 45.1121 37.3196 45.8891 36.1116C46.3041 35.4646 46.7321 34.7966 47.1911 34.2586C48.0861 33.2106 48.5701 33.0436 48.5471 33.0326H48.5721C48.9631 33.0256 49.2781 32.7096 49.2821 32.3176C49.2851 31.9266 48.9761 31.6046 48.5851 31.5926Z" fill="black"/>
</svg>
