<svg width="57" height="57" viewBox="0 0 57 57" fill="none" xmlns="http://www.w3.org/2000/svg">
<path fill-rule="evenodd" clip-rule="evenodd" d="M30.132 47.84V9.335L30.218 9.2C30.251 9.145 30.271 9.085 30.276 9.021H30.379V47.84H30.132ZM26.68 9.021H26.827V13.251C26.827 13.366 26.889 13.458 26.972 13.529V47.84H26.68V9.021ZM29.507 8.884L27.595 11.921V8.681H29.507V8.884ZM27.451 13.536C27.482 13.511 27.515 13.491 27.537 13.457L29.653 10.098V47.84H27.451V13.536ZM31.22 7H25.84C25.376 7 25 7.376 25 7.84V48.68C25 49.145 25.376 49.521 25.84 49.521H31.22C31.684 49.521 32.059 49.145 32.059 48.68V7.84C32.059 7.376 31.684 7 31.22 7Z" fill="black"/>
</svg>
