<svg viewBox="0 0 16 16" xmlns="http://www.w3.org/2000/svg"><path fill-rule="evenodd" d="M13 7A6 6 0 1 1 1 7a6 6 0 0 1 12 0zm-2.005 5.749a7 7 0 1 1 1.753-1.753l.718.716c.12-.164.233-.333.34-.507l2.164 2.164a11.066 11.066 0 0 1-2.601 2.601l-2.164-2.163c.174-.108.343-.222.507-.341l-.717-.717zM3.5 5H1.607a5.738 5.738 0 0 0-.357 2 5.74 5.74 0 0 0 2.25 4.562V5zm.5 6.906V6h3v6.75c-1.1 0-2.127-.309-3-.844zM11 6v5.13a5.778 5.778 0 0 0 1-1.289V6h-1zm-3.5 6.729V5h3v6.562a5.72 5.72 0 0 1-3 1.167zM12.75 7c0 .585-.088 1.15-.25 1.682V5.318c.162.532.25 1.097.25 1.682z"/></svg>