<?xml version="1.0" encoding="UTF-8" standalone="no"?>
<svg
   width="127.60931"
   zoomAndPan="magnify"
   viewBox="0 0 95.706983 30"
   height="40"
   preserveAspectRatio="xMidYMid"
   version="1.0"
   id="svg197"
   sodipodi:docname="downlod_apk_button.svg"
   inkscape:version="1.2.2 (732a01da63, 2022-12-09, custom)"
   xmlns:inkscape="http://www.inkscape.org/namespaces/inkscape"
   xmlns:sodipodi="http://sodipodi.sourceforge.net/DTD/sodipodi-0.dtd"
   xmlns="http://www.w3.org/2000/svg"
   xmlns:svg="http://www.w3.org/2000/svg">
  <sodipodi:namedview
     id="namedview199"
     pagecolor="#ffffff"
     bordercolor="#000000"
     borderopacity="0.25"
     inkscape:showpageshadow="2"
     inkscape:pageopacity="0.0"
     inkscape:pagecheckerboard="0"
     inkscape:deskcolor="#d1d1d1"
     showgrid="false"
     inkscape:zoom="5.7111111"
     inkscape:cx="47.188716"
     inkscape:cy="24.42607"
     inkscape:window-width="1870"
     inkscape:window-height="1009"
     inkscape:window-x="0"
     inkscape:window-y="0"
     inkscape:window-maximized="1"
     inkscape:current-layer="svg197" />
  <defs
     id="defs29">
    <g
       id="g18" />
    <clipPath
       id="fdcf353743">
      <path
         d="M 131.63281,212.63672 H 1359 V 597.36328 H 131.63281 Z m 0,0"
         clip-rule="nonzero"
         id="path20" />
    </clipPath>
    <clipPath
       id="a117f5cb57">
      <path
         d="M 187.88281,212.63672 H 1302.75 c 14.918,0 29.2266,5.92578 39.7734,16.47265 10.5508,10.55079 16.4766,24.85547 16.4766,39.77735 v 272.22656 c 0,14.92188 -5.9258,29.22656 -16.4766,39.77734 -10.5468,10.54688 -24.8554,16.47266 -39.7734,16.47266 H 187.88281 c -14.91797,0 -29.22265,-5.92578 -39.77344,-16.47266 -10.54687,-10.55078 -16.47656,-24.85546 -16.47656,-39.77734 V 268.88672 c 0,-14.92188 5.92969,-29.22656 16.47656,-39.77735 10.55079,-10.54687 24.85547,-16.47265 39.77344,-16.47265 z m 0,0"
         clip-rule="nonzero"
         id="path23" />
    </clipPath>
    <clipPath
       id="8ab3967d38">
      <path
         d="m 242,277.21484 h 220 v 255.75 H 242 Z m 0,0"
         clip-rule="nonzero"
         id="path26" />
    </clipPath>
  </defs>
  <g
     fill="#ffffff"
     fill-opacity="1"
     id="g109"
     transform="translate(-131.63281,-212.63672)">
    <g
       transform="translate(971.31256,389.14896)"
       id="g107">
      <g
         id="g105" />
    </g>
  </g>
  <g
     fill="#ffffff"
     fill-opacity="1"
     id="g139"
     transform="translate(-131.63281,-212.63672)">
    <g
       transform="translate(1188.6258,389.14896)"
       id="g137">
      <g
         id="g135" />
    </g>
  </g>
  <g
     id="g529"
     transform="scale(0.07797746)">
    <g
       clip-path="url(#fdcf353743)"
       id="g35"
       transform="translate(-131.63281,-212.63672)">
      <g
         clip-path="url(#a117f5cb57)"
         id="g33">
        <path
           fill="#000000"
           d="M 131.63281,212.63672 H 1359 V 597.36328 H 131.63281 Z m 0,0"
           fill-opacity="1"
           fill-rule="nonzero"
           id="path31" />
      </g>
    </g>
    <g
       clip-path="url(#8ab3967d38)"
       id="g39"
       transform="translate(-131.63281,-212.63672)">
      <path
         fill="#a4c439"
         d="m 461.27344,373.14844 v 61.78515 c 0,8.71485 -6.98438,15.81641 -15.57032,15.81641 -8.58984,0 -15.53515,-7.10156 -15.53515,-15.81641 v -61.78515 c 0,-8.71485 6.9375,-15.78907 15.53515,-15.78907 8.59766,0 15.57032,7.07422 15.57032,15.78907 z M 257.98047,357.35156 c -8.57813,0 -15.53125,7.08203 -15.53125,15.78906 v 61.78125 c 0,8.71485 6.95312,15.81641 15.53125,15.81641 8.63672,0 15.57031,-7.10156 15.57031,-15.81641 v -61.77343 c 0,-8.71485 -6.93359,-15.79688 -15.57031,-15.79688 z m 24.95703,113.3086 c 0,6.71484 5.4375,12.125 12.13672,12.125 h 13.87109 v 34.3789 c 0,8.71485 6.98438,15.78906 15.57031,15.78906 8.58594,0 15.55079,-7.07421 15.55079,-15.78906 v -34.36719 h 24.19921 v 34.37891 c 0,8.71484 7.00391,15.78906 15.57032,15.78906 8.59765,0 15.57031,-7.07422 15.57031,-15.78906 v -34.37891 h 13.83984 c 6.71875,0 12.16016,-5.41015 12.16016,-12.1289 V 357.83203 H 282.9375 Z M 421.07031,347.78906 H 282.62109 c 1.8125,-20.98828 16.07422,-38.96094 36.42578,-48.41406 L 306.25,280.78516 c -0.75781,-1.09375 -0.58984,-2.53907 0.40234,-3.22657 0.99219,-0.67187 2.42188,-0.33593 3.20703,0.75782 l 13.26954,19.29687 c 8.76562,-3.44141 18.47265,-5.39062 28.73046,-5.39062 10.26172,0 19.94922,1.94921 28.73438,5.39062 l 13.26953,-19.29687 c 0.78516,-1.09375 2.21484,-1.42969 3.20703,-0.75782 0.99219,0.6875 1.16016,2.13282 0.40235,3.22657 L 384.67578,299.375 c 20.34375,9.45312 34.61328,27.42578 36.39453,48.41406 z m -90.74219,-26.83203 c 0,-4.23047 -3.4414,-7.64453 -7.67187,-7.64453 -4.23047,0 -7.67188,3.42187 -7.67188,7.64453 0,4.25 3.44141,7.67188 7.67188,7.67188 4.23047,0 7.67187,-3.42188 7.67187,-7.67188 z m 59.35547,0 c 0,-4.23047 -3.42578,-7.64453 -7.67187,-7.64453 -4.23047,0 -7.64453,3.42187 -7.64453,7.64453 0,4.25 3.42187,7.67188 7.64453,7.67188 4.24609,0 7.67187,-3.42188 7.67187,-7.67188 z m 0,0"
         fill-opacity="1"
         fill-rule="evenodd"
         id="path37" />
    </g>
    <g
       fill="#ffffff"
       fill-opacity="1"
       id="g47"
       transform="translate(-131.63281,-212.63672)">
      <g
         transform="translate(513.22738,389.14896)"
         id="g45">
        <g
           id="g43">
          <path
             d="m 24.078125,-77.265625 c 7.101563,0 13.21875,1.078125 18.34375,3.234375 5.125,2.148438 9.394531,5.046875 12.8125,8.703125 3.414063,3.65625 5.941406,7.777344 7.578125,12.359375 1.632812,4.574219 2.453125,9.453125 2.453125,14.640625 0,6.625 -1.523437,12.792969 -4.5625,18.5 -3.03125,5.710937 -7.523437,10.445313 -13.46875,14.203125 -5.9375,3.75 -13.6875,5.625 -23.25,5.625 H 7.78125 V -77.265625 Z M 24.59375,-8 c 4.707031,0 8.972656,-0.695312 12.796875,-2.09375 3.832031,-1.394531 7.21875,-3.492188 10.15625,-6.296875 2.9375,-2.800781 5.191406,-6.148437 6.765625,-10.046875 1.570312,-3.894531 2.359375,-7.957031 2.359375,-12.1875 0,-5.601562 -1.25,-10.675781 -3.75,-15.21875 -2.492187,-4.539062 -6.042969,-8.242188 -10.65625,-11.109375 -4.605469,-2.875 -10.804687,-4.3125 -18.59375,-4.3125 h -7.28125 V -8 Z m 0,0"
             id="path41" />
        </g>
      </g>
    </g>
    <g
       fill="#ffffff"
       fill-opacity="1"
       id="g55"
       transform="translate(-131.63281,-212.63672)">
      <g
         transform="translate(582.69321,389.14896)"
         id="g53">
        <g
           id="g51">
          <path
             d="m 3.484375,-23.984375 c 0,-4.570313 1.125,-8.835937 3.375,-12.796875 2.257813,-3.96875 5.332031,-7.078125 9.21875,-9.328125 3.894531,-2.257813 8.132813,-3.390625 12.71875,-3.390625 4.570313,0 8.785156,1.132812 12.640625,3.390625 3.863281,2.25 6.941406,5.339844 9.234375,9.265625 2.289063,3.929688 3.4375,8.214844 3.4375,12.859375 0,4.585937 -1.132813,8.839844 -3.390625,12.765625 -2.25,3.929688 -5.324219,7 -9.21875,9.21875 -3.898438,2.21875 -8.132812,3.328125 -12.703125,3.328125 -4.585937,0 -8.839844,-1.125 -12.765625,-3.375 -3.929688,-2.257813 -7,-5.351563 -9.21875,-9.28125 -2.21875,-3.925781 -3.328125,-8.144531 -3.328125,-12.65625 z M 28.6875,-41.90625 c -4.84375,0 -8.890625,1.726562 -12.140625,5.171875 -3.242187,3.449219 -4.859375,7.667969 -4.859375,12.65625 0,3.6875 0.882812,6.949219 2.65625,9.78125 1.78125,2.835937 3.945312,4.886719 6.5,6.15625 2.5625,1.261719 5.210938,1.890625 7.953125,1.890625 3.132813,0 6,-0.734375 8.59375,-2.203125 2.601563,-1.46875 4.671875,-3.582031 6.203125,-6.34375 1.539062,-2.769531 2.3125,-5.863281 2.3125,-9.28125 0,-3.144531 -0.703125,-6.082031 -2.109375,-8.8125 -1.398437,-2.726563 -3.429687,-4.910156 -6.09375,-6.546875 -2.65625,-1.644531 -5.664063,-2.46875 -9.015625,-2.46875 z m 0,0"
             id="path49" />
        </g>
      </g>
    </g>
    <g
       fill="#ffffff"
       fill-opacity="1"
       id="g63"
       transform="translate(-131.63281,-212.63672)">
      <g
         transform="translate(640.27402,389.14896)"
         id="g61">
        <g
           id="g59">
          <path
             d="M 38.828125,-51.84375 53.90625,-15.578125 68.25,-48.15625 h 9.3125 L 53.6875,3.375 38.828125,-32.484375 23.984375,3.375 0.3125,-48.15625 H 9.625 l 14.25,32.578125 z M 11.6875,0 Z m 0,0"
             id="path57" />
        </g>
      </g>
    </g>
    <g
       fill="#ffffff"
       fill-opacity="1"
       id="g71"
       transform="translate(-131.63281,-212.63672)">
      <g
         transform="translate(718.14134,389.14896)"
         id="g69">
        <g
           id="g67">
          <path
             d="M 46.3125,0 H 38.125 v -28.078125 c 0,-4.851563 -0.734375,-8.367187 -2.203125,-10.546875 -1.46875,-2.1875 -4.121094,-3.28125 -7.953125,-3.28125 -4.367188,0 -7.453125,1.507812 -9.265625,4.515625 -1.8125,3 -2.71875,7.574219 -2.71875,13.71875 V 0 H 7.78125 v -48.15625 h 8.203125 v 5.84375 H 16.1875 c 1.707031,-2.320312 3.671875,-4.097656 5.890625,-5.328125 2.21875,-1.238281 4.832031,-1.859375 7.84375,-1.859375 5.394531,0 9.472656,1.664062 12.234375,4.984375 2.769531,3.3125 4.15625,8.453125 4.15625,15.421875 z m 0,0"
             id="path65" />
        </g>
      </g>
    </g>
    <g
       fill="#ffffff"
       fill-opacity="1"
       id="g79"
       transform="translate(-131.63281,-212.63672)">
      <g
         transform="translate(772.23861,389.14896)"
         id="g77">
        <g
           id="g75">
          <path
             d="M 15.78125,-84.53125 V 0 H 7.578125 v -84.53125 z m 0,0"
             id="path73" />
        </g>
      </g>
    </g>
    <g
       fill="#ffffff"
       fill-opacity="1"
       id="g87"
       transform="translate(-131.63281,-212.63672)">
      <g
         transform="translate(795.49635,389.14896)"
         id="g85">
        <g
           id="g83">
          <path
             d="m 3.484375,-23.984375 c 0,-4.570313 1.125,-8.835937 3.375,-12.796875 2.257813,-3.96875 5.332031,-7.078125 9.21875,-9.328125 3.894531,-2.257813 8.132813,-3.390625 12.71875,-3.390625 4.570313,0 8.785156,1.132812 12.640625,3.390625 3.863281,2.25 6.941406,5.339844 9.234375,9.265625 2.289063,3.929688 3.4375,8.214844 3.4375,12.859375 0,4.585937 -1.132813,8.839844 -3.390625,12.765625 -2.25,3.929688 -5.324219,7 -9.21875,9.21875 -3.898438,2.21875 -8.132812,3.328125 -12.703125,3.328125 -4.585937,0 -8.839844,-1.125 -12.765625,-3.375 -3.929688,-2.257813 -7,-5.351563 -9.21875,-9.28125 -2.21875,-3.925781 -3.328125,-8.144531 -3.328125,-12.65625 z M 28.6875,-41.90625 c -4.84375,0 -8.890625,1.726562 -12.140625,5.171875 -3.242187,3.449219 -4.859375,7.667969 -4.859375,12.65625 0,3.6875 0.882812,6.949219 2.65625,9.78125 1.78125,2.835937 3.945312,4.886719 6.5,6.15625 2.5625,1.261719 5.210938,1.890625 7.953125,1.890625 3.132813,0 6,-0.734375 8.59375,-2.203125 2.601563,-1.46875 4.671875,-3.582031 6.203125,-6.34375 1.539062,-2.769531 2.3125,-5.863281 2.3125,-9.28125 0,-3.144531 -0.703125,-6.082031 -2.109375,-8.8125 -1.398437,-2.726563 -3.429687,-4.910156 -6.09375,-6.546875 -2.65625,-1.644531 -5.664063,-2.46875 -9.015625,-2.46875 z m 0,0"
             id="path81" />
        </g>
      </g>
    </g>
    <g
       fill="#ffffff"
       fill-opacity="1"
       id="g95"
       transform="translate(-131.63281,-212.63672)">
      <g
         transform="translate(853.07715,389.14896)"
         id="g93">
        <g
           id="g91">
          <path
             d="M 43.546875,-41.296875 V -48.15625 H 51.75 V 0 H 43.546875 V -6.65625 H 43.34375 C 39.101562,-1.332031 33.570312,1.328125 26.75,1.328125 c -6.699219,0 -12.21875,-2.457031 -16.5625,-7.375 -4.335938,-4.914063 -6.5,-10.894531 -6.5,-17.9375 0,-7.375 2.1875,-13.46875 6.5625,-18.28125 C 14.625,-47.085938 20.15625,-49.5 26.84375,-49.5 c 3.351562,0 6.445312,0.71875 9.28125,2.15625 2.832031,1.4375 5.238281,3.453125 7.21875,6.046875 z m -15.78125,-0.609375 c -4.367187,0 -8.070313,1.671875 -11.109375,5.015625 -3.042969,3.34375 -4.5625,7.445313 -4.5625,12.296875 0,5.1875 1.484375,9.542969 4.453125,13.0625 2.96875,3.523438 6.742187,5.28125 11.328125,5.28125 4.84375,0 8.734375,-1.671875 11.671875,-5.015625 2.9375,-3.351563 4.40625,-7.757813 4.40625,-13.21875 0,-4.988281 -1.507813,-9.140625 -4.515625,-12.453125 -3,-3.3125 -6.890625,-4.96875 -11.671875,-4.96875 z m 0,0"
             id="path89" />
        </g>
      </g>
    </g>
    <g
       fill="#ffffff"
       fill-opacity="1"
       id="g103"
       transform="translate(-131.63281,-212.63672)">
      <g
         transform="translate(912.19485,389.14896)"
         id="g101">
        <g
           id="g99">
          <path
             d="M 51.75,-84.53125 V 0 H 43.546875 V -6.65625 H 43.34375 C 41.289062,-4 38.847656,-2.003906 36.015625,-0.671875 c -2.835937,1.332031 -5.921875,2 -9.265625,2 -4.375,0 -8.339844,-1.140625 -11.890625,-3.421875 -3.554687,-2.289062 -6.304687,-5.363281 -8.25,-9.21875 C 4.660156,-15.175781 3.6875,-19.398438 3.6875,-23.984375 c 0,-4.707031 0.972656,-9.023437 2.921875,-12.953125 1.945313,-3.925781 4.695313,-7 8.25,-9.21875 C 18.410156,-48.382812 22.40625,-49.5 26.84375,-49.5 c 3.28125,0 6.351562,0.71875 9.21875,2.15625 2.875,1.4375 5.300781,3.453125 7.28125,6.046875 h 0.203125 V -84.53125 Z m -23.984375,42.625 c -4.4375,0 -8.164063,1.695312 -11.171875,5.078125 -3,3.375 -4.5,7.453125 -4.5,12.234375 0,5.261719 1.46875,9.636719 4.40625,13.125 2.9375,3.480469 6.726562,5.21875 11.375,5.21875 4.78125,0 8.65625,-1.671875 11.625,-5.015625 2.96875,-3.351563 4.453125,-7.757813 4.453125,-13.21875 0,-5.195313 -1.523437,-9.398437 -4.5625,-12.609375 -3.03125,-3.207031 -6.90625,-4.8125 -11.625,-4.8125 z m 0,0"
             id="path97" />
        </g>
      </g>
    </g>
    <g
       fill="#ffffff"
       fill-opacity="1"
       id="g117"
       transform="translate(-131.63281,-212.63672)">
      <g
         transform="translate(1002.8693,389.14896)"
         id="g115">
        <g
           id="g113">
          <path
             d="M 36.28125,-80.953125 71.015625,0 h -9.53125 l -9.125,-21.921875 h -33 L 10.046875,0 h -9.4375 z m -13.4375,51.03125 H 48.984375 L 36.0625,-60.859375 Z m -8.90625,-47.34375 z m 0,0"
             id="path111" />
        </g>
      </g>
    </g>
    <g
       fill="#ffffff"
       fill-opacity="1"
       id="g125"
       transform="translate(-131.63281,-212.63672)">
      <g
         transform="translate(1074.4868,389.14896)"
         id="g123">
        <g
           id="g121">
          <path
             d="m 21.3125,-77.265625 c 6.757812,0 11.878906,0.804687 15.359375,2.40625 3.488281,1.605469 6.304687,4.117187 8.453125,7.53125 2.15625,3.417969 3.234375,7.277344 3.234375,11.578125 0,6.292969 -2.070313,11.523438 -6.203125,15.6875 -4.125,4.167969 -10.324219,6.25 -18.59375,6.25 H 16.390625 V 0 H 7.78125 V -77.265625 Z M 16.390625,-41.8125 H 21 c 6.769531,0 11.585938,-1.160156 14.453125,-3.484375 2.875,-2.320313 4.3125,-5.804687 4.3125,-10.453125 0,-4.707031 -1.421875,-8.132812 -4.265625,-10.28125 -2.835938,-2.15625 -7.835938,-3.234375 -15,-3.234375 h -4.109375 z m 0,0"
             id="path119" />
        </g>
      </g>
    </g>
    <g
       fill="#ffffff"
       fill-opacity="1"
       id="g133"
       transform="translate(-131.63281,-212.63672)">
      <g
         transform="translate(1126.0226,389.14896)"
         id="g131">
        <g
           id="g129">
          <path
             d="M 16.390625,-77.265625 V -44.15625 L 49.28125,-77.265625 H 60.859375 L 24.59375,-41.296875 62.09375,0 H 50.203125 l -31.65625,-35.453125 -2.15625,2.15625 V 0 H 7.78125 v -77.265625 z m 0,0"
             id="path127" />
        </g>
      </g>
    </g>
    <g
       fill="#ffffff"
       fill-opacity="1"
       id="g147"
       transform="translate(-131.63281,-212.63672)">
      <g
         transform="translate(567.72085,518.23475)"
         id="g145">
        <g
           id="g143">
          <path
             d="M 73.894531,-65.015625 V 0 h 12.339844 v -65.015625 c 0,-19.320313 -16,-35.050785 -35.183594,-35.050785 H 37.21875 c -19.183594,0 -35.050781,15.730472 -35.050781,35.050785 V 0 h 12.203125 v -65.015625 c 0,-12.746094 10.375,-22.914063 22.847656,-22.914063 h 13.832031 c 12.609375,0 22.84375,10.167969 22.84375,22.914063 z m -58.167969,27.863281 h 56.8125 v -27.863281 c 0,-11.929687 -9.695312,-21.625 -21.488281,-21.625 H 37.21875 c -11.59375,0 -21.492188,9.695313 -21.492188,21.625 z m 21.492188,-37.21875 h 13.832031 c 5.152344,0 9.152344,4.203125 9.152344,9.355469 v 15.660156 H 28.066406 v -15.660156 c 0,-5.152344 4.136719,-9.355469 9.152344,-9.355469 z m -9.152344,51.253906 H 60.203125 V 0 h 12.335937 v -35.59375 h -56.8125 V 0 h 12.339844 z m 0,0"
             id="path141" />
        </g>
      </g>
    </g>
    <g
       fill="#ffffff"
       fill-opacity="1"
       id="g155"
       transform="translate(-131.63281,-212.63672)">
      <g
         transform="translate(658.7619,518.23475)"
         id="g153">
        <g
           id="g151">
          <path
             d="M 1.558594,-80.539062 1.492188,-0.0664062 h 12.40625 V -79.589844 c 0,-6.644531 5.695312,-9.222656 9.152343,-3.457031 l 40.269531,65.757813 c 3.660157,4 8.8125,2.441406 8.8125,-2.847657 V -99.589844 H 59.792969 L 60.8125,-42.101562 32.40625,-92.335938 C 25.558594,-104.47266 1.558594,-104.19922 1.558594,-80.539062 Z M 15.390625,-0.0664062 H 27.726562 L 27.253906,-51.863281 53.21875,-6.914062 c 9.21875,15.863281 32.746094,9.285156 32.8125,-9.628907 V -99.589844 H 73.625 v 79.453125 c 0,6.714844 -6.914062,8.746094 -11.457031,3.933594 L 21.898438,-82.167969 c -2.238282,-3.796875 -6.441407,-3.390625 -6.441407,2.578125 z m 0,0"
             id="path149" />
        </g>
      </g>
    </g>
    <g
       fill="#ffffff"
       fill-opacity="1"
       id="g163"
       transform="translate(-131.63281,-212.63672)">
      <g
         transform="translate(749.39621,518.23475)"
         id="g161">
        <g
           id="g159">
          <path
             d="M 39.183594,-99.386719 H 1.898438 V 0 H 38.914062 C 66.304688,0 88.8125,-22.304688 88.8125,-49.898438 c 0,-27.183593 -22.375,-49.488281 -49.628906,-49.488281 z m 0,87.589844 H 14.101562 v -75.792969 h 24.8125 c 20.949219,0 37.964844,17.015625 37.964844,37.691406 0,20.949219 -16.878906,38.101563 -37.695312,38.101563 z M 38.914062,-86.03125 H 15.390625 v 72.675781 h 23.523437 c 20.066407,0 36.40625,-16.339843 36.40625,-36.542969 0,-19.863281 -16.339843,-36.132812 -36.40625,-36.132812 z m 0.269532,60.945312 H 27.253906 v -49.21875 h 11.929688 c 13.425781,0 24.203125,11.324219 24.203125,24.40625 0,13.695313 -10.777344,24.8125 -24.203125,24.8125 z m 0,0"
             id="path157" />
        </g>
      </g>
    </g>
    <g
       fill="#ffffff"
       fill-opacity="1"
       id="g171"
       transform="translate(-131.63281,-212.63672)">
      <g
         transform="translate(842.13197,518.23475)"
         id="g169">
        <g
           id="g167">
          <path
             d="m 49.015625,-36.40625 h -4.8125 c 3.523437,1.152344 7.050781,2.375 10.167969,4.542969 10.371094,6.644531 17.21875,18.441406 17.21875,31.7968748 h 12.203125 c 0,-12.3398438 -4.949219,-24.8828128 -14.371094,-33.0859378 9.085937,-4.949218 14.371094,-15.929687 14.371094,-25.964844 v -5.828124 c 0,-19.1875 -15.660157,-34.917969 -34.777344,-34.917969 H 36.949219 c -18.847657,0 -34.914063,15.59375 -34.914063,34.441406 V -0.0664062 H 14.238281 V -65.082031 c 0,-12.542969 10.234375,-22.914063 22.710938,-22.914063 h 12.066406 c 12.472656,0 22.847656,10.371094 22.847656,22.914063 v 5.964843 c 0,12.472657 -10.375,22.710938 -22.847656,22.710938 z M 15.660156,-64.945312 v 26.980468 h 33.355469 c 11.59375,0 21.421875,-9.558594 21.421875,-21.152344 v -5.828124 c 0,-11.796876 -9.828125,-21.492188 -21.421875,-21.492188 H 36.949219 c -12.339844,0 -21.289063,9.964844 -21.289063,21.492188 z m 42.441406,-0.136719 v 5.964843 c 0,4.949219 -4,9.21875 -9.085937,9.21875 H 27.863281 c 0,-5.152343 -0.136719,-10.101562 -0.136719,-15.183593 0,-5.015625 4.136719,-9.222657 9.222657,-9.222657 h 12.066406 c 5.085937,0 9.085937,4.207032 9.085937,9.222657 z M 57.964844,-0.0664062 H 70.304688 C 70.304688,-20.203125 53.285156,-36.40625 33.21875,-36.40625 H 15.660156 V -0.0664062 H 27.863281 V -24.339844 h 5.492188 c 13.625,0 24.609375,10.78125 24.609375,24.2734378 z m 0,0"
             id="path165" />
        </g>
      </g>
    </g>
    <g
       fill="#ffffff"
       fill-opacity="1"
       id="g179"
       transform="translate(-131.63281,-212.63672)">
      <g
         transform="translate(929.648,518.23475)"
         id="g177">
        <g
           id="g175">
          <path
             d="m 52.472656,-100.74219 c -28,0 -50.84375,22.847659 -50.84375,51.11719 0,28 22.84375,50.84375 50.84375,50.84375 28.40625,0 51.117184,-22.84375 51.117184,-50.84375 0,-28.269531 -22.710934,-51.11719 -51.117184,-51.11719 z m 0,89.691409 c -21.289062,0 -38.4375,-17.289063 -38.4375,-38.574219 0,-21.558594 17.148438,-38.847656 38.4375,-38.847656 21.695313,0 38.847656,17.289062 38.847656,38.847656 0,21.285156 -17.152343,38.574219 -38.847656,38.574219 z m 0,-75.996094 c -20.40625,0 -37.015625,16.609375 -37.015625,37.421875 0,20.40625 16.609375,36.949219 37.015625,36.949219 20.8125,0 37.421875,-16.542969 37.421875,-36.949219 0,-20.8125 -16.609375,-37.421875 -37.421875,-37.421875 z m 0,62.097656 c -13.492187,0 -24.675781,-11.183593 -24.675781,-24.675781 0,-13.761719 11.183594,-24.949219 24.675781,-24.949219 14.101563,0 25.085938,11.1875 25.085938,24.949219 0,13.492188 -10.984375,24.675781 -25.085938,24.675781 z m 0,0"
             id="path173" />
        </g>
      </g>
    </g>
    <g
       fill="#ffffff"
       fill-opacity="1"
       id="g187"
       transform="translate(-131.63281,-212.63672)">
      <g
         transform="translate(1037.2297,518.23475)"
         id="g185">
        <g
           id="g183">
          <path
             d="m 3.390625,0 h 12.40625 V -99.523438 H 3.390625 Z M 17.21875,0 H 29.492188 V -99.523438 H 17.21875 Z m 0,0"
             id="path181" />
        </g>
      </g>
    </g>
    <g
       fill="#ffffff"
       fill-opacity="1"
       id="g195"
       transform="translate(-131.63281,-212.63672)">
      <g
         transform="translate(1072.9546,518.23475)"
         id="g193">
        <g
           id="g191">
          <path
             d="M 39.183594,-99.386719 H 1.898438 V 0 H 38.914062 C 66.304688,0 88.8125,-22.304688 88.8125,-49.898438 c 0,-27.183593 -22.375,-49.488281 -49.628906,-49.488281 z m 0,87.589844 H 14.101562 v -75.792969 h 24.8125 c 20.949219,0 37.964844,17.015625 37.964844,37.691406 0,20.949219 -16.878906,38.101563 -37.695312,38.101563 z M 38.914062,-86.03125 H 15.390625 v 72.675781 h 23.523437 c 20.066407,0 36.40625,-16.339843 36.40625,-36.542969 0,-19.863281 -16.339843,-36.132812 -36.40625,-36.132812 z m 0.269532,60.945312 H 27.253906 v -49.21875 h 11.929688 c 13.425781,0 24.203125,11.324219 24.203125,24.40625 0,13.695313 -10.777344,24.8125 -24.203125,24.8125 z m 0,0"
             id="path189" />
        </g>
      </g>
    </g>
  </g>
</svg>
