<svg xmlns="http://www.w3.org/2000/svg" width="102" height="90"><path d="M7.34 89.814c-4.46-.96-6.898-3.676-6.89-7.67.004-2.82.42-3.813 4.74-11.273 1.83-3.163 3.367-5.852 3.415-5.976L1.48 64.56c.007-.155 22.238-13.466 22.384-13.403.112.047 5.18 13.158 5.18 13.4l-6.956.187-3.29 5.7c-2.733 4.733-3.304 5.82-3.36 6.393-.09.938.17 1.913 1.04 1.92l68.973.004c.77-.185.763-.55 1.145-1.184h13.976l.377 1.137c1.732 5.24-.312 9.317-5.472 10.915l-1.098.34-43.042.026c-36.414.02-43.19-.006-43.996-.18zM84.05 72l13.4.076 1.98 3.483-13.265.107L84.05 72zm-1-1.793l-1.21-2.17 13.19-.14 1.327 2.38-13.306-.07zm15.287-2.113c-2.69-.568-3.76-1-6.342-2.56-3.562-2.152-5.397-2.82-8.287-3.012l-1.43-.095v-5.822h.477c1.004 0 3.167.338 4.333.676 1.44.418 2.362.867 5.002 2.436 2.93 1.742 4.545 2.326 7.2 2.604.766.08 1.888.007 1.89.148l.017 5.722-1.284-.017c-.705-.01-1.415-.045-1.576-.08zm-59.504-.17l-.55-.045.11-5.983 1.21-.014c2.485-.026 4.75-1.21 5.696-3l.39-.74.092-8.578h3.253c1.79 0 3.492-.068 3.784-.15 1.293-.358 2.06-1.367 2.258-2.966l.104-.844h-16.9V40.18h21.602l-.085 3.41c-.104 4.18-.325 5.593-1.134 7.245-1.228 2.51-3.48 3.76-7.132 3.968l-1.52.086v.948c0 2.735-1.005 6.51-2.214 8.31-1.125 1.676-2.49 2.8-4.015 3.308-.952.317-3.675.574-4.952.47zM68.787 40.18h4.757l.07 21.04c.84-.22.546-.086.998-.296 1.534-.715 1.947-1.768 1.947-4.558v-1.96h3.96l-.003 2.968c0 2.04-.065 3.206-.202 3.723-.528 1.98-2.08 3.893-4.144 5.104-1.844 1.084-4.536 1.833-6.614 1.84l-.77.003V40.18zM58.154 61.965l.64-.11c1.205-.204 2.44-1.173 2.902-2.276.16-.38.198-2.328.198-9.937V40.18H66.6l-.047 10.448c-.046 10.145-.056 10.474-.352 11.286-.482 1.33-1.22 2.42-2.352 3.482-1.54 1.443-3.744 2.5-5.21 2.5h-.563l.08-5.93zm24.19-8.188l.008-5.312h18.918v5.426l-18.926-.113zm-63.712-6.08l1.107-2.018 13.406-.077-1.256 2.13-13.258-.037zm63.646-7.517h19.065v5.426H82.278V40.18zM20.83 43.89l1.98-3.56 13.273.084-1.98 3.568-13.272-.092zm39.54-11.744L49.24 25.44l7.814-.14c.163-.005-4.32-7.524-4.583-7.81-.164-.18-.58-.434-.92-.565-.59-.225-.658-.222-1.28.053-.436.193-.805.507-1.092.93-4.072 6.7-7.74 13.645-11.836 20.33l-13.373.108L39.587 11.29c3.826-6.63 4.36-7.453 5.696-8.758C47.084.776 48.848-.005 51 0c2.67.006 5.037 1.383 7.042 4.095.465.628 3.452 5.67 6.638 11.205l5.793 10.062 6.31.262-2.496 6.49-2.693 6.74-11.224-6.708z"/></svg>