<svg xmlns="http://www.w3.org/2000/svg" width="97" height="90"><path d="M45.38 89.916c-8.15-.75-15.8-3.57-22.318-8.233-2.252-1.61-3.65-2.808-5.763-4.93-5.347-5.37-9.35-12.912-11.54-20.27L0 56.353l9.78-13.11 13.697 13.11-6.726.204c0 .534 1.876 4.488 3.055 6.44 1.79 2.965 5.174 6.813 7.863 8.942 7.763 6.143 17.638 8.694 27.324 7.056 4.72-.798 10.22-3.53 13.913-6.107l15.55.213c-8.375 10.145-17.085 14.04-29.68 16.623-1.905.25-7.506.364-9.396.19zm25.882-18.32l3.57-3.504 12.902.172-2.138 3.33-14.334.003zm5.313-5.607l1.05-1.47H89.8l-.832 1.65-12.395-.18zM36.5 57.314l-.846.91c-1.636 1.756-3.404 3.045-5.635 4.108-1.248.593-3.636 1.364-4.136 1.364l-.072-5.7.86-.33c1.495-.575 4.81-2.32 5.565-2.927 1.53-1.233 3.556-4.628 4.16-6.97.312-1.2.505-5.067.316-5.82l-10.35-.083v-5.355h14.864l-.076 3.673c-.115 5.614-.462 8.19-1.562 11.61l-.61 1.895 3.59 4.063-.074 6.13-5.995-6.567zm8.037.204c.873 0 3.05-.507 4.214-1.11 1.958-1.02 2.655-2.15 2.84-4.607l.078-1.012h-8.284l.074-5.15 8.486-.07-.18-3.567h-7.556l.074-5.56 16.272-.072v5.633H55.92l-.172 3.57h5.904v5.218H55.65l-.077 1.75c-.143 3.293-.887 5.563-2.336 7.135-.698.757-2.09 1.684-3.576 2.38-1.05.493-3.85 1.485-4.792 1.7l-.378.085.05-6.32zm32.4.115c1.165-.73 2.545-1.415 3.113-2.347.265-.435.273-.712.273-9.682v-9.234h4.12l-.004 19.84-.394 1.128c-.532 1.53-1.44 2.936-2.647 4.102-1.336 1.288-2.457 1.915-4.13 2.308l-.38.09.047-6.206zm9.51 6.097l-.082-27.366 4.124.076.137 19.703c.605 0 1.638-.84 1.907-1.553.086-.227.146-1.544.146-3.193v-2.806h3.983v3.476c0 2.78-.044 3.627-.22 4.223-.412 1.406-1.017 2.326-2.526 3.842-1.253 1.26-1.62 1.54-2.815 2.15-1.77.903-4.387 1.717-4.656 1.448zm-23.15-18.3l14.76.072.076 5.15H63.298v-5.22zM4.532 38.847H15.28l-.173 1.27-10.746.24.17-1.51zm.413-2.124l.71-3.23H16.65l-.944 3.363-10.76-.133zM68.75 21.065l4.96-.203c-.08-.23-2.49-2.34-3.827-3.353-4.696-3.556-10.323-5.84-16.47-6.695-1.962-.272-6.968-.234-8.926.068-6.766 1.043-12.248 3.483-17.41 7.747-3.88 3.207-7.873 8.827-9.924 13.48l-11.13.008c2.472-8.54 7.742-15.79 14.298-21.654C29.34 2.96 40.96-.76 52.597.13c8.902.682 17.18 3.903 24.414 9.5 3.04 2.354 8.054 7.923 10.18 11.143l4.942.31c0 .09-7.666 12.826-7.81 12.976L68.75 21.063z"/></svg>