<svg class="Logo_logo__IRjwg Logo_small__2z9NO" width="181" height="213" viewBox="0 0 181 213"><path d="M180.35 212.6H0V0H180.35V212.6Z" fill="#004899"></path><path d="M176.33 4.00977H4.00977V208.59H176.33V4.00977Z" fill="white"></path><path d="M54.75 119.46C60.2859 127.844 68.5972 134.011 78.226 136.879C87.8548 139.747 98.1861 139.134 107.407 135.145C116.629 131.157 124.151 124.049 128.655 115.068C133.16 106.088 134.358 95.8078 132.039 86.032C129.721 76.2562 124.035 67.6089 115.977 61.6071C107.92 55.6052 98.007 52.6321 87.9767 53.2093C77.9464 53.7865 68.4396 57.8772 61.1241 64.7636C53.8086 71.6501 49.1516 80.8926 47.97 90.8698C47.7701 92.5289 47.67 94.1986 47.67 95.8698C47.6575 104.249 50.1206 112.445 54.75 119.43" fill="#80A4CC"></path><path d="M76.5605 81.9999L78.8405 82.3599L78.0605 83.8599L76.0605 82.7799L76.5605 81.9999ZM85.7305 76.9999L83.8205 78.6799V79.8199L86.8205 80.5699L92.8705 76.4599L92.7105 74.7899L90.3105 73.9599L85.7305 76.9999ZM86.6705 72.4899H86.1205L85.1105 74.3999L83.4705 74.5299L81.6005 77.2299L82.6005 77.8699L85.1205 76.2699L87.0505 74.2099L86.6705 72.4899ZM90.0705 67.1899L86.2005 70.2699L87.5805 71.2699L90.6705 68.1099L90.0705 67.1899ZM60.3205 84.3799L61.6605 84.5499L62.0805 81.3799V80.3799L61.8405 79.3799L61.1505 79.3199L60.3205 84.3799ZM61.0305 86.4699L61.4605 87.1399L62.2705 87.2599L62.6405 85.6199L61.3005 85.2999L61.0305 86.4699ZM61.8105 88.1099L61.9405 88.9799H62.7705L62.6605 88.0399L61.8105 88.1099ZM62.2805 89.9799L62.5105 90.5399L63.2105 90.2299C63.2105 90.2299 63.0205 89.7099 63.0005 89.7099L62.2805 89.9799ZM62.7005 91.5799L63.3005 91.3599L63.0705 90.8499C63.0705 90.8499 62.7305 91.1399 62.7405 91.1799V91.5799H62.7005ZM91.1105 89.1099C91.1105 89.1099 90.0205 91.7599 90.0205 91.7799C90.0205 91.7999 91.7305 91.9399 91.7305 91.9499L92.1405 89.7699L91.8405 89.5499L92.0405 88.7999L91.1805 88.3299L90.9105 88.8899L91.1105 89.1099ZM88.6005 90.9499L89.5305 91.2099L89.8105 90.3399L89.1505 90.1899L88.6005 90.9499ZM108.661 124.58L107.311 125.36L105.591 125.72L101.811 129.44L102.041 130.27L102.591 130.19L104.751 129.26C105.946 128.7 107.044 127.95 108.001 127.04C108.664 126.381 109.214 125.617 109.631 124.78L108.661 124.58ZM107.661 129.77L107.201 129.26L106.481 129.69C106.481 129.69 107.021 130.24 107.011 130.24L107.661 129.77V129.77ZM93.3305 97.5799L92.8005 97.5099V98.5099L93.3405 98.6099L93.6605 97.3099L93.4905 97.2399L93.3305 97.5799ZM61.4105 91.9799L61.6005 92.7899L62.3705 92.5399L62.1205 91.7199L61.4105 91.9799ZM54.7505 119.49L57.7505 117.04L60.1805 117.66L66.6705 112.77L66.9805 110.17L62.7205 103.95C62.477 101.631 62.0862 99.3295 61.5505 97.0599C61.1105 95.5399 60.1205 91.1199 60.0805 91.0599L59.5205 89.9299L55.4605 83.8399L58.0905 77.2599L60.1105 77.1099L60.2405 76.1099L58.6805 74.8099V74.5299V73.2999C58.6805 72.4599 60.1005 71.6099 61.0505 71.6099C61.3182 71.6121 61.5842 71.6525 61.8405 71.7299C62.5197 72.0036 63.1484 72.3889 63.7005 72.8699C63.8005 72.9399 65.5605 77.0599 65.5605 77.0599L64.0705 78.2699L63.3305 80.0699L64.3305 80.8799L65.7605 78.4099L71.6805 80.4099L75.3005 82.4699L76.4005 81.2699L79.4005 81.5199L81.6205 78.5199L79.6205 77.7599L81.7305 75.2199L81.4805 74.3599L78.2605 73.7399L80.7205 71.1099L83.1105 72.6699V73.3599L84.6205 73.5399L85.8105 71.1099L84.9205 70.3199L88.6805 66.6999L92.1105 65.1099L94.7605 63.3699L95.2805 62.9599L95.3805 61.0999L94.9305 59.7799L93.7605 59.3199L95.2605 58.1399L94.8505 57.9199C92.6249 59.4739 90.0107 60.3777 87.3005 60.5299C84.3005 60.7299 78.3605 59.4199 78.3605 59.4199L72.4205 58.5299L70.3405 58.1599C65.3103 60.844 60.864 64.5016 57.2605 68.9199L57.1105 74.5299L56.1905 77.1099L54.1105 84.5099L54.8005 86.5999L51.4305 87.0799L48.0205 90.8699C47.829 92.5297 47.7322 94.1991 47.7305 95.8699C47.7181 104.249 50.1811 112.446 54.8105 119.43L54.7505 119.49ZM112.911 59.4899C118.13 62.7232 122.593 67.042 125.996 72.1528C129.398 77.2637 131.661 83.047 132.631 89.1099V89.1099L129.291 91.9699L127.161 91.4599L126.161 92.3399L126.231 92.9299C126.231 93.2099 126.391 93.7599 126.601 94.5899C127.013 96.2251 127.228 97.9037 127.241 99.5899C127.281 100.784 127.143 101.977 126.831 103.13H125.011L119.891 99.1099L115.991 99.9899L113.471 99.5599L110.281 100.56L111.721 101.8L114.231 101.09L116.391 102.82L116.051 103.58L115.161 105.03L113.241 107.77L110.241 110.16L104.771 104.48L103.351 104.63L109.191 111.33L111.561 110.85L112.151 112.06L109.771 115.96L105.131 120.39L103.111 125.62C102.965 125.834 102.755 125.995 102.511 126.08C101.653 126.534 100.868 127.114 100.181 127.8C99.0605 128.85 98.4405 129.43 98.3005 129.54C97.2487 130.453 96.1398 131.298 94.9805 132.07C93.7497 132.901 92.4708 133.659 91.1505 134.34C88.9825 135.456 86.5882 136.061 84.1505 136.11C82.623 136.106 81.1065 135.852 79.6605 135.36C79.4605 135.29 79.3305 135.19 79.3305 135.1L80.3305 132.24C81.1125 131.237 81.9505 130.279 82.8405 129.37C83.6442 128.451 84.241 127.37 84.5905 126.2C84.9264 125.007 85.3578 123.843 85.8805 122.72C86.8105 121.22 87.2505 119.94 86.9405 119.63L80.8805 113.54L78.3405 108.81L78.6105 107.69C79.1317 106.161 79.8016 104.688 80.6105 103.29C80.9585 102.413 81.5654 101.663 82.3505 101.14L86.4105 99.1399L94.2805 100.33L96.6805 101.93L97.8005 101.79L102.611 103.04L103.811 99.9099L97.7005 98.1899L95.5405 96.0399L95.2405 96.1199L96.2405 98.6699L95.0205 98.9199L94.8905 98.6199L95.3205 98.5399C95.3205 98.5399 94.9505 96.9699 94.0005 96.5399C93.7269 96.3641 93.4145 96.2577 93.0905 96.2299C92.4944 96.2733 91.9273 96.5044 91.4705 96.8899C90.742 97.6699 89.9071 98.3432 88.9905 98.8899L86.4805 96.9999L87.4105 94.6599L87.8005 94.7499C88.0327 94.8072 88.2714 94.8341 88.5105 94.8299C88.8085 94.8575 89.1069 94.7823 89.3561 94.6167C89.6054 94.4512 89.7904 94.2053 89.8805 93.9199C89.9207 93.7703 89.9166 93.6122 89.8687 93.4649C89.8207 93.3175 89.7311 93.1873 89.6105 93.0899C89.6105 93.0899 89.3705 92.8199 89.3705 92.8199C89.5001 92.6948 89.6173 92.5575 89.7205 92.4099C90.2125 92.542 90.714 92.6356 91.2205 92.6899C91.7618 92.7639 92.3107 92.624 92.7505 92.2999L93.3505 91.2999L94.3505 91.0099L94.5305 89.6599H95.1605C95.3928 90.0076 95.5621 90.3935 95.6605 90.7999L97.4305 90.3399L97.9505 88.5299L97.6705 88.2099L98.4405 86.4699L97.7705 85.9999L96.6305 89.1999L96.0105 89.2799L95.7305 88.5699L94.1405 88.6899L93.2505 87.2599L95.1805 85.2599L97.0705 82.7299L99.7405 83.5699L100.391 84.8899H101.201L100.901 82.9699L103.081 80.9699L101.631 74.3999L102.561 72.3299L103.561 72.3899L103.711 70.7699L96.7105 63.1599L96.9405 61.0999L102.691 59.7899L103.521 60.0399L106.791 59.7199L107.551 60.0599L112.831 59.5399L112.911 59.4899ZM112.811 60.7599L106.111 62.2199L110.731 64.8799L112.241 63.1099L114.111 61.8499L112.811 60.7599Z" fill="#004899"></path><path d="M42.3208 39.8707L41.2108 36.3107H33.8608L32.6908 39.8707H26.5508L35.2408 15.9707H39.7708L48.4508 39.8707H42.3208ZM37.6508 25.0307L35.5108 31.4107H39.6708L37.6508 25.0307Z" fill="#E3211B"></path><path d="M70.4294 37.5201C69.5646 38.3181 68.5501 38.9367 67.4447 39.3401C66.3393 39.7434 65.1649 39.9236 63.9894 39.8701H55.1094V15.9701H63.9594C65.1349 15.9167 66.3093 16.0968 67.4147 16.5002C68.5201 16.9036 69.5346 17.5221 70.3994 18.3201C73.1894 21.1101 72.8794 24.1601 72.8794 27.9201C72.8794 31.6801 73.2194 34.7301 70.4294 37.5201V37.5201ZM66.4294 22.5201C66.1229 22.0642 65.6993 21.6992 65.2031 21.4634C64.7069 21.2276 64.1564 21.1298 63.6094 21.1801H61.0094V34.6301H63.5894C64.1364 34.6805 64.6869 34.5826 65.1831 34.3468C65.6793 34.1111 66.1029 33.7461 66.4094 33.2901C66.8794 32.6201 67.0394 31.9801 67.0394 27.9201C67.0394 23.8601 66.8794 23.2201 66.4094 22.5501L66.4294 22.5201Z" fill="#E3211B"></path><path d="M80.8906 39.8707V15.9707H97.1106V21.2107H86.7606V25.2107H95.6106V30.4507H86.7606V34.6407H97.1106V39.8807L80.8906 39.8707Z" fill="#E3211B"></path><path d="M121.66 39.8707V28.4207L118.27 34.3307H114.51L111.11 28.4207V39.8707H105.25V15.9707H111.01L116.38 26.5107L121.75 15.9707H127.51V39.8707H121.66Z" fill="#E3211B"></path><path d="M136.23 39.8707V15.9707H152.46V21.2107H142.11V25.2107H150.96V30.4507H142.11V34.6407H152.47V39.8807L136.23 39.8707Z" fill="#E3211B"></path><path d="M31.3098 152.109L27.5098 162.569H29.9898L30.5098 160.969H33.9898L34.4898 162.569H36.9698L33.1598 152.109H31.3098ZM31.1698 159.029L32.3098 155.639L33.3798 159.029H31.1698Z" fill="#E3211B"></path><path d="M43.7494 162.631C44.3044 162.665 44.8602 162.578 45.3783 162.376C45.8964 162.174 46.3642 161.862 46.7494 161.461V161.461C47.5094 160.691 47.7494 159.741 47.7494 157.991V156.621H43.8694V158.621H45.4494V158.891C45.4623 159.338 45.3051 159.774 45.0094 160.111C44.8417 160.268 44.6432 160.39 44.4264 160.467C44.2096 160.545 43.9791 160.577 43.7494 160.561C43.5337 160.571 43.3185 160.531 43.1207 160.444C42.923 160.358 42.748 160.226 42.6094 160.061C42.3594 159.731 42.1894 159.361 42.1894 157.341C42.1894 155.321 42.3594 154.961 42.6094 154.631C42.7484 154.465 42.9233 154.333 43.1208 154.245C43.3182 154.156 43.5332 154.114 43.7494 154.121C44.1222 154.079 44.4972 154.179 44.7994 154.401C45.1016 154.624 45.3087 154.952 45.3794 155.321H47.7794C47.6298 154.596 47.2883 153.925 46.7904 153.377C46.2926 152.83 45.6569 152.426 44.9496 152.208C44.2423 151.99 43.4896 151.967 42.77 152.14C42.0505 152.312 41.3906 152.675 40.8594 153.191C39.8594 154.191 39.8594 155.661 39.8594 157.191V157.551C39.8594 159.051 39.8594 160.471 40.8594 161.551C41.2395 161.922 41.6929 162.209 42.1905 162.395C42.6881 162.581 43.219 162.661 43.7494 162.631V162.631Z" fill="#E3211B"></path><path d="M58.1898 156.22H54.2198V154.18H58.8698V152.08H51.8398V162.54H58.8698V160.44H54.2198V158.31H58.1898V156.22Z" fill="#E3211B"></path><path d="M68.6595 152.08V157.77L65.0395 152.08H62.9395V162.54H65.3195V156.85L68.9395 162.54H71.0495V152.08H68.6595Z" fill="#E3211B"></path><path d="M80.4803 159.389C80.4156 159.724 80.2321 160.023 79.9638 160.233C79.6954 160.442 79.3603 160.548 79.0203 160.529C78.8046 160.54 78.5895 160.5 78.3917 160.413C78.1939 160.326 78.0189 160.195 77.8803 160.029C77.6303 159.699 77.4503 159.309 77.4503 157.309C77.4503 155.309 77.6303 154.919 77.8803 154.589C78.0189 154.424 78.1939 154.293 78.3917 154.206C78.5895 154.119 78.8046 154.079 79.0203 154.089C79.3603 154.071 79.6954 154.177 79.9638 154.386C80.2321 154.596 80.4156 154.895 80.4803 155.229H82.9103C82.7926 154.294 82.3228 153.438 81.5965 152.836C80.8701 152.234 79.9418 151.931 79.0003 151.99C78.465 151.971 77.9318 152.066 77.4356 152.267C76.9393 152.469 76.4911 152.773 76.1203 153.159C75.0703 154.159 75.0703 155.629 75.0703 157.159V157.519C75.0703 159.019 75.0703 160.439 76.1203 161.519C76.4911 161.906 76.9393 162.21 77.4356 162.412C77.9318 162.613 78.465 162.708 79.0003 162.689C79.9418 162.748 80.8701 162.445 81.5965 161.843C82.3228 161.241 82.7926 160.385 82.9103 159.449L80.4803 159.389Z" fill="#E3211B"></path><path d="M92.8793 156.22H88.9093V154.18H93.5493V152.08H86.5293V162.54H93.5493V160.44H88.9093V158.31H92.8793V156.22Z" fill="#E3211B"></path><path d="M112.191 157.771V156.861C112.191 155.371 112.191 154.201 111.111 153.101C110.733 152.758 110.291 152.493 109.811 152.321C109.33 152.15 108.82 152.075 108.311 152.101H104.471V162.551H108.311C108.821 162.579 109.331 162.505 109.812 162.334C110.293 162.162 110.734 161.896 111.111 161.551C112.211 160.431 112.201 159.251 112.191 157.771ZM109.501 159.771C109.352 159.993 109.146 160.171 108.906 160.287C108.665 160.403 108.397 160.453 108.131 160.431H106.851V154.161H108.111C108.377 154.139 108.645 154.188 108.886 154.304C109.126 154.42 109.332 154.599 109.481 154.821C109.721 155.161 109.781 155.531 109.781 157.291C109.781 159.051 109.731 159.471 109.501 159.791V159.771Z" fill="#E3211B"></path><path d="M122.561 156.22H118.591V154.18H123.241V152.09H116.211V162.54H123.241V160.45H118.591V158.32H122.561V156.22Z" fill="#E3211B"></path><path d="M134.16 162.54H141.03V160.44H136.54V152.08H134.16V162.54Z" fill="#E3211B"></path><path d="M150.321 162.539H152.801L148.991 152.109H147.111L143.311 162.569H145.791L146.321 160.969H149.791L150.321 162.539ZM147.001 158.999L148.111 155.609L149.181 158.999H147.001Z" fill="#E3211B"></path><path d="M32.9204 171.219H35.5604V169.119H27.9004V171.219H30.5404V179.579H32.9204V171.219Z" fill="#E3211B"></path><path d="M47.7495 175.111C48.251 174.863 48.6732 174.479 48.9683 174.004C49.2634 173.529 49.4197 172.98 49.4195 172.421C49.4205 171.967 49.3282 171.518 49.1483 171.101C48.9683 170.685 48.7047 170.309 48.3736 169.999C48.0426 169.689 47.6512 169.45 47.2239 169.297C46.7965 169.144 46.3424 169.081 45.8895 169.111H41.7695V179.571H44.1595V175.571H45.2495L47.1495 179.571H49.9195L47.6295 175.171L47.7495 175.111ZM45.7495 173.631H44.1595V171.211H45.7695C46.0904 171.211 46.3982 171.338 46.6251 171.565C46.852 171.792 46.9795 172.1 46.9795 172.421C46.9795 172.742 46.852 173.05 46.6251 173.276C46.3982 173.503 46.0904 173.631 45.7695 173.631H45.7495Z" fill="#E3211B"></path><path d="M58.7905 169.109L54.9805 179.569H57.4705L58.0005 177.969H61.4805L61.9705 179.569H64.4605L60.6505 169.109H58.7905ZM58.6505 176.029L59.7905 172.639L60.8605 176.029H58.6505Z" fill="#E3211B"></path><path d="M72.6595 179.579V173.889L76.2795 179.579H78.3895V169.119H76.0095V174.809L72.3795 169.119H70.2695V179.579H72.6595Z" fill="#E3211B"></path><path d="M89.3808 173.321L88.1108 173.111C87.8092 173.088 87.524 172.965 87.3008 172.761C87.1463 172.603 87.057 172.392 87.0508 172.171C87.0508 171.631 87.5008 171.051 88.4708 171.051H88.5608C89.2574 170.993 89.95 171.2 90.5008 171.631L91.9908 170.161C91.5235 169.748 90.9786 169.433 90.3878 169.234C89.7971 169.034 89.1725 168.955 88.5508 169.001C86.2808 169.001 84.7608 170.311 84.7608 172.261C84.7147 173.013 84.9661 173.753 85.4608 174.321C86.0325 174.849 86.765 175.169 87.5408 175.231L88.8408 175.411C89.1273 175.435 89.3995 175.547 89.6208 175.731C89.7923 175.93 89.8785 176.189 89.8608 176.451C89.8608 176.951 89.5808 177.541 88.2008 177.541C87.3489 177.576 86.5092 177.33 85.8108 176.841L84.3008 178.351C84.826 178.821 85.4424 179.178 86.1116 179.4C86.7809 179.622 87.4886 179.704 88.1908 179.641C90.1908 179.641 92.1908 178.641 92.1908 176.401C92.2253 175.992 92.1757 175.581 92.0449 175.192C91.9142 174.803 91.7052 174.446 91.4308 174.141C90.8546 173.652 90.135 173.364 89.3808 173.321V173.321Z" fill="#E3211B"></path><path d="M100.97 169.119H98.5898V179.569H100.97V169.119Z" fill="#E3211B"></path><path d="M112.209 171.219H114.839V169.119H107.189V171.219H109.829V179.579H112.209V171.219Z" fill="#E3211B"></path><path d="M123.441 169.119H121.061V179.569H123.441V169.119Z" fill="#E3211B"></path><path d="M137.85 174.171C137.85 172.671 137.85 171.251 136.8 170.171C136.02 169.42 134.978 169 133.895 169C132.812 169 131.771 169.42 130.99 170.171C129.99 171.171 129.99 172.641 129.99 174.171V174.531C129.99 176.031 129.99 177.451 130.99 178.531C131.771 179.282 132.812 179.701 133.895 179.701C134.978 179.701 136.02 179.282 136.8 178.531C137.85 177.531 137.85 176.061 137.85 174.531V174.171ZM135.05 177.041C134.908 177.207 134.73 177.341 134.531 177.433C134.332 177.525 134.115 177.572 133.895 177.572C133.676 177.572 133.459 177.525 133.259 177.433C133.06 177.341 132.883 177.207 132.74 177.041C132.48 176.701 132.32 176.351 132.32 174.351C132.32 172.351 132.49 171.971 132.74 171.641C132.886 171.479 133.065 171.351 133.264 171.263C133.463 171.175 133.678 171.129 133.895 171.129C134.113 171.129 134.328 171.175 134.527 171.263C134.726 171.351 134.904 171.479 135.05 171.641C135.3 171.971 135.47 172.341 135.47 174.351C135.47 176.361 135.31 176.701 135.05 177.041Z" fill="#E3211B"></path><path d="M150.08 169.119V174.809L146.46 169.119H144.35V179.579H146.73V173.889L150.36 179.579H152.47V169.119H150.08Z" fill="#E3211B"></path><path d="M34.2902 190.3H30.3002V188.25H34.9702V186.15H27.9102V196.64H34.9702V194.54H30.3002V192.4H34.2902V190.3Z" fill="#E3211B"></path><path d="M31.9006 184.841L33.5206 182.381H31.3106L30.6406 184.841H31.9006Z" fill="#E3211B"></path><path d="M46.3195 189.31H48.7595C48.6279 188.382 48.1515 187.537 47.4251 186.944C46.6986 186.351 45.7755 186.053 44.8395 186.11C44.3011 186.092 43.7649 186.186 43.2653 186.388C42.7658 186.589 42.3141 186.893 41.9395 187.28C40.9395 188.28 40.9395 189.76 40.9395 191.28V191.63C40.9395 193.14 40.9395 194.57 41.9395 195.63C42.3141 196.017 42.7658 196.322 43.2653 196.523C43.7649 196.725 44.3011 196.819 44.8395 196.8C45.783 196.856 46.7126 196.552 47.4403 195.948C48.168 195.345 48.6395 194.488 48.7595 193.55H46.3195C46.2547 193.887 46.0702 194.189 45.7999 194.401C45.5297 194.612 45.1921 194.719 44.8495 194.7C44.6338 194.71 44.4189 194.67 44.2213 194.583C44.0236 194.496 43.8485 194.365 43.7095 194.2C43.4595 193.86 43.2795 193.47 43.2795 191.47C43.2795 189.47 43.4595 189.07 43.7095 188.73C43.85 188.567 44.0253 188.437 44.2226 188.351C44.4199 188.264 44.6341 188.223 44.8495 188.23C45.1823 188.209 45.512 188.306 45.7808 188.503C46.0496 188.701 46.2403 188.986 46.3195 189.31V189.31Z" fill="#E3211B"></path><path d="M58.1906 186.11C57.6502 186.086 57.1108 186.178 56.6089 186.38C56.107 186.582 55.6541 186.889 55.2806 187.28C54.2206 188.28 54.2206 189.76 54.2806 191.28V191.63C54.2806 193.14 54.2806 194.57 55.2806 195.63C56.0629 196.382 57.1057 196.802 58.1906 196.802C59.2755 196.802 60.3183 196.382 61.1006 195.63V195.63C62.1606 194.63 62.1506 193.16 62.1506 191.63V191.26C62.1506 189.76 62.1506 188.33 61.1006 187.26C60.7254 186.872 60.2717 186.569 59.7698 186.371C59.268 186.172 58.7296 186.084 58.1906 186.11V186.11ZM59.3506 194.11C59.207 194.277 59.029 194.411 58.8288 194.503C58.6286 194.595 58.4109 194.642 58.1906 194.642C57.9703 194.642 57.7527 194.595 57.5525 194.503C57.3522 194.411 57.1742 194.277 57.0306 194.11C56.7706 193.77 56.6206 193.42 56.6206 191.41C56.6206 189.4 56.7706 189.03 57.0306 188.69C57.176 188.526 57.3546 188.395 57.5546 188.305C57.7546 188.215 57.9713 188.168 58.1906 188.168C58.4099 188.168 58.6267 188.215 58.8266 188.305C59.0266 188.395 59.2052 188.526 59.3506 188.69C59.6106 189.03 59.7606 189.38 59.7606 191.41C59.7606 193.44 59.6106 193.76 59.3506 194.11Z" fill="#E3211B"></path><path d="M68.3809 196.64H75.2809V194.54H70.7709V186.15H68.3809V196.64Z" fill="#E3211B"></path><path d="M84.4393 186.111C83.8991 186.089 83.3603 186.182 82.8587 186.383C82.357 186.585 81.9039 186.891 81.5293 187.281C80.5293 188.281 80.5293 189.761 80.5293 191.281V191.631C80.5293 193.141 80.5293 194.571 81.5293 195.631C82.3144 196.381 83.3585 196.799 84.4443 196.799C85.5301 196.799 86.5742 196.381 87.3593 195.631V195.631C88.3593 194.631 88.3593 193.151 88.3593 191.631V191.281C88.3593 189.771 88.3593 188.341 87.3593 187.281C86.9832 186.89 86.5283 186.584 86.025 186.382C85.5216 186.18 84.9811 186.088 84.4393 186.111V186.111ZM85.5993 194.111C85.4566 194.278 85.2795 194.412 85.0801 194.503C84.8807 194.595 84.6638 194.643 84.4443 194.643C84.2248 194.643 84.0079 194.595 83.8085 194.503C83.6091 194.412 83.432 194.278 83.2893 194.111C83.0293 193.771 82.8693 193.411 82.8693 191.411C82.8693 189.411 83.0293 189.021 83.2893 188.691C83.4289 188.523 83.605 188.388 83.8043 188.298C84.0035 188.208 84.2207 188.164 84.4393 188.171C84.6593 188.164 84.878 188.208 85.0789 188.298C85.2797 188.388 85.4577 188.522 85.5993 188.691C85.8593 189.031 86.0193 189.381 86.0193 191.411C86.0193 193.441 85.8593 193.761 85.5993 194.111Z" fill="#E3211B"></path><path d="M99.8693 189.371H102.279C102.134 188.633 101.792 187.949 101.288 187.391C100.785 186.833 100.139 186.423 99.4206 186.203C98.7019 185.983 97.9371 185.963 97.2077 186.144C96.4784 186.325 95.8119 186.7 95.2793 187.231C94.2793 188.231 94.2793 189.711 94.2793 191.231V191.581C94.2793 193.091 94.2793 194.521 95.2793 195.581C96.085 196.333 97.1466 196.752 98.2493 196.752C99.352 196.752 100.414 196.333 101.219 195.581V195.581C101.979 194.801 102.219 193.861 102.219 192.101V190.711H98.2193V192.711H99.7993V192.991C99.8196 193.219 99.7891 193.45 99.7101 193.665C99.631 193.881 99.5053 194.076 99.342 194.238C99.1786 194.399 98.9817 194.523 98.7651 194.599C98.5486 194.676 98.3178 194.704 98.0893 194.681C97.8954 194.659 97.7082 194.596 97.5395 194.498C97.3708 194.4 97.2243 194.268 97.1093 194.111C96.8593 193.781 96.6893 193.411 96.6893 191.381C96.6893 189.351 96.8593 188.991 97.1093 188.661C97.2469 188.492 97.4212 188.358 97.6188 188.268C97.8165 188.178 98.0322 188.134 98.2493 188.141C98.6249 188.102 99.0011 188.208 99.3018 188.436C99.6025 188.664 99.8054 188.998 99.8693 189.371V189.371Z" fill="#E3211B"></path><path d="M110.929 186.15H108.539V196.64H110.929V186.15Z" fill="#E3211B"></path><path d="M124.491 195C125.005 193.935 125.209 192.746 125.081 191.57V191.22C125.081 189.71 125.081 188.28 124.031 187.22C123.249 186.469 122.206 186.049 121.121 186.049C120.036 186.049 118.993 186.469 118.211 187.22C117.211 188.22 117.211 189.7 117.211 191.22V191.57C117.211 193.08 117.211 194.51 118.211 195.57C118.586 195.96 119.039 196.266 119.54 196.468C120.042 196.669 120.581 196.762 121.121 196.74C121.818 196.757 122.508 196.592 123.121 196.26H123.201L124.011 197.07L125.181 195.91L124.411 195.14L124.491 195ZM122.631 193V193.27L122.021 192.65L120.851 193.82L121.611 194.58H121.381C121.301 194.59 121.221 194.59 121.141 194.58C120.922 194.584 120.705 194.538 120.505 194.446C120.306 194.355 120.131 194.219 119.991 194.05C119.731 193.71 119.571 193.35 119.571 191.35C119.571 189.35 119.731 188.96 119.991 188.63C120.131 188.462 120.307 188.328 120.506 188.238C120.705 188.148 120.922 188.104 121.141 188.11C121.361 188.104 121.58 188.147 121.781 188.237C121.981 188.327 122.159 188.462 122.301 188.63C122.551 188.96 122.711 189.33 122.711 191.35C122.691 192.17 122.661 192.68 122.631 192.99V193Z" fill="#E3211B"></path><path d="M133.519 192.939V186.109H131.109V192.959C131.259 193.899 131.739 194.755 132.463 195.372C133.187 195.99 134.108 196.329 135.059 196.329C136.011 196.329 136.931 195.99 137.655 195.372C138.379 194.755 138.859 193.899 139.009 192.959V186.109H136.619V192.899C136.644 193.118 136.621 193.339 136.552 193.548C136.483 193.757 136.37 193.948 136.219 194.109C136.069 194.27 135.886 194.396 135.682 194.479C135.478 194.562 135.259 194.599 135.039 194.589C134.827 194.593 134.617 194.552 134.422 194.469C134.227 194.386 134.052 194.262 133.909 194.106C133.765 193.95 133.656 193.765 133.589 193.564C133.522 193.363 133.498 193.15 133.519 192.939V192.939Z" fill="#E3211B"></path><path d="M151.79 190.3H147.81V188.25H152.47V186.15H145.42V196.64H152.47V194.54H147.81V192.4H151.79V190.3Z" fill="#E3211B"></path></svg>
