<?xml version="1.0" encoding="UTF-8" standalone="no"?>
<!-- Created with Inkscape (http://www.inkscape.org/) -->

<svg
   width="418"
   height="90"
   viewBox="0 0 418 90"
   version="1.1"
   id="svg26523"
   xml:space="preserve"
   inkscape:version="1.2 (dc2aeda, 2022-05-15)"
   sodipodi:docname="republique-francaise-ademe-impact-co2.svg"
   xmlns:inkscape="http://www.inkscape.org/namespaces/inkscape"
   xmlns:sodipodi="http://sodipodi.sourceforge.net/DTD/sodipodi-0.dtd"
   xmlns="http://www.w3.org/2000/svg"
   xmlns:svg="http://www.w3.org/2000/svg"><sodipodi:namedview
     id="namedview26525"
     pagecolor="#ffffff"
     bordercolor="#666666"
     borderopacity="1.0"
     inkscape:showpageshadow="2"
     inkscape:pageopacity="0.0"
     inkscape:pagecheckerboard="0"
     inkscape:deskcolor="#d1d1d1"
     inkscape:document-units="mm"
     showgrid="false"
     inkscape:zoom="2.8284271"
     inkscape:cx="140.89103"
     inkscape:cy="62.755727"
     inkscape:window-width="2560"
     inkscape:window-height="1376"
     inkscape:window-x="0"
     inkscape:window-y="0"
     inkscape:window-maximized="1"
     inkscape:current-layer="layer1" /><defs
     id="defs26520" /><g
     inkscape:label="Calque 1"
     inkscape:groupmode="layer"
     id="layer1"><g
       style="fill:none"
       id="g26855"
       transform="scale(1.8)"><g
         id="g27916"><path
           class="Logo_black__yi7Cl"
           d="M 0.0358429,13.215 H 2.06009 c 1.4459,0 2.34958,0.7603 2.34958,1.9913 0,0.7966 -0.39762,1.3759 -1.04827,1.7017 l 2.09655,2.9327 H 3.86746 L 2.06009,17.1614 h -0.6868 v 2.6793 H 0.0358429 Z M 1.37329,14.3736 v 1.6655 h 0.7591 c 0.57836,0 0.90368,-0.2897 0.90368,-0.8328 0,-0.5068 -0.32532,-0.7965 -0.90368,-0.7965 z"
           id="path26774"
           style="fill:#3a3236;fill-opacity:1" /><path
           class="Logo_black__yi7Cl"
           d="M 6.25327,13.2149 H 10.121 v 1.1586 H 7.59072 v 1.5206 h 2.13269 v 1.1586 H 7.59072 v 1.6655 H 10.121 v 1.1585 H 6.25327 Z m 1.3013,-0.5793 1.08442,-1.2672 h 1.37361 l -1.22902,1.2672 z"
           id="path26776"
           style="fill:#3a3236;fill-opacity:1" /><path
           class="Logo_black__yi7Cl"
           d="m 11.6758,13.215 h 2.1689 c 1.4459,0 2.3496,0.7603 2.3496,1.9913 0,1.231 -0.9037,1.9551 -2.3496,1.9551 h -0.8314 v 2.6793 h -1.3375 z m 1.3375,1.1586 v 1.6655 h 0.9037 c 0.5783,0 0.9037,-0.2897 0.9037,-0.8328 0,-0.5068 -0.3254,-0.7965 -0.9037,-0.7965 z"
           id="path26778"
           style="fill:#3a3236;fill-opacity:1" /><path
           class="Logo_black__yi7Cl"
           d="m 21.2184,13.215 h 1.3374 v 4.0189 c 0,1.7378 -1.0121,2.7878 -2.6749,2.7878 -1.6627,0 -2.6749,-1.05 -2.6749,-2.7878 V 13.215 h 1.3375 v 4.1637 c 0,0.9051 0.506,1.412 1.3374,1.412 0.8314,0 1.3375,-0.5069 1.3375,-1.412 z"
           id="path26780"
           style="fill:#3a3236;fill-opacity:1" /><path
           class="Logo_black__yi7Cl"
           d="m 24.2192,13.215 h 1.8796 c 1.3736,0 2.205,0.6879 2.205,1.8103 0,0.5431 -0.253,0.9776 -0.6868,1.3034 0.6868,0.3259 1.0844,0.8689 1.0844,1.5569 0,1.1947 -0.9398,1.9551 -2.458,1.9551 h -2.0242 z m 1.3736,1.1586 v 1.4482 h 0.5783 c 0.5061,0 0.7953,-0.2534 0.7953,-0.7241 0,-0.4344 -0.2892,-0.7241 -0.7953,-0.7241 z m 0,2.6068 v 1.7379 h 0.7591 c 0.6145,0 1.0121,-0.3259 1.0121,-0.8689 0,-0.5431 -0.3615,-0.869 -1.0121,-0.869 z"
           id="path26782"
           style="fill:#3a3236;fill-opacity:1" /><path
           class="Logo_black__yi7Cl"
           d="M 33.9421,19.8407 H 30.0743 V 13.215 h 1.3375 v 5.3947 h 2.5303 z"
           id="path26784"
           style="fill:#3a3236;fill-opacity:1" /><path
           class="Logo_black__yi7Cl"
           d="m 36.4721,13.215 h -1.3374 v 6.6257 h 1.3374 z"
           id="path26786"
           style="fill:#3a3236;fill-opacity:1" /><path
           class="Logo_black__yi7Cl"
           d="m 45.2563,20.3115 c 0.1446,0 0.3253,-0.0362 0.4699,-0.0724 v 1.1223 c -0.2169,0.0724 -0.3976,0.1086 -0.6868,0.1086 -0.7229,0 -1.4097,-0.2896 -2.0604,-0.8689 l -0.7952,-0.6879 c -0.2892,0.0724 -0.5784,0.1086 -0.9037,0.1086 -2.0965,0 -3.5063,-1.593 -3.5063,-3.5119 0,-1.8827 1.4459,-3.512 3.5063,-3.512 2.0965,0 3.5063,1.5931 3.5063,3.512 0,1.1223 -0.5061,2.1361 -1.3013,2.7516 l 0.3976,0.3621 c 0.5061,0.5068 0.976,0.6879 1.3736,0.6879 z m -1.8435,-3.7654 c 0,-1.2672 -0.9037,-2.2448 -2.1327,-2.2448 -1.2652,0 -2.1327,0.9776 -2.1327,2.2448 0,1.2672 0.9037,2.2447 2.1327,2.2447 1.229,0 2.1327,-0.9775 2.1327,-2.2447 z"
           id="path26788"
           style="fill:#3a3236;fill-opacity:1" /><path
           class="Logo_black__yi7Cl"
           d="m 49.9922,13.215 h 1.3375 v 4.0189 c 0,1.7378 -1.0121,2.7878 -2.6749,2.7878 -1.6628,0 -2.6749,-1.05 -2.6749,-2.7878 V 13.215 h 1.3374 v 4.1637 c 0,0.9051 0.5061,1.412 1.3375,1.412 0.8314,0 1.3374,-0.5069 1.3374,-1.412 z"
           id="path26790"
           style="fill:#3a3236;fill-opacity:1" /><path
           class="Logo_black__yi7Cl"
           d="m 54.33,15.8942 h 2.1327 v 1.1586 H 54.33 v 1.6293 h 2.5303 v 1.1586 H 52.9926 V 13.215 h 3.8677 v 1.1586 H 54.33 Z"
           id="path26792"
           style="fill:#3a3236;fill-opacity:1" /><path
           class="Logo_black__yi7Cl"
           d="m 1.3733,25.4525 h 2.13269 v 1.1586 H 1.3733 V 29.399 H 0.0358429 V 22.7733 H 3.90361 v 1.1586 H 1.3733 Z"
           id="path26794"
           style="fill:#3a3236;fill-opacity:1" /><path
           class="Logo_black__yi7Cl"
           d="m 5.05986,22.7733 h 2.02425 c 1.4459,0 2.34958,0.7603 2.34958,1.9913 0,0.7966 -0.39762,1.3758 -1.04827,1.7017 L 10.482,29.399 H 8.89148 L 7.12026,26.7197 H 6.39731 V 29.399 H 5.05986 Z m 1.33745,1.1586 v 1.6655 h 0.7591 c 0.57835,0 0.90368,-0.2897 0.90368,-0.8328 0,-0.5069 -0.32533,-0.7965 -0.90368,-0.7965 z"
           id="path26796"
           style="fill:#3a3236;fill-opacity:1" /><path
           class="Logo_black__yi7Cl"
           d="m 13.2658,22.7733 h 1.7712 l 2.4942,6.6257 H 16.1214 L 15.4708,27.6611 H 12.832 l -0.6506,1.7379 h -1.4098 z m 1.7712,3.7654 -0.9037,-2.4982 -0.9036,2.4982 z"
           id="path26798"
           style="fill:#3a3236;fill-opacity:1" /><path
           class="Logo_black__yi7Cl"
           d="m 24.5804,22.7733 v 6.6257 h -1.7351 l -2.9641,-4.743 v 4.743 h -1.3374 v -6.6257 h 1.735 l 2.9641,4.743 v -4.743 z"
           id="path26800"
           style="fill:#3a3236;fill-opacity:1" /><path
           class="Logo_black__yi7Cl"
           d="m 31.1226,27.4441 1.0483,0.7965 c -0.5061,0.6879 -1.3013,1.1948 -2.2773,1.3034 l -0.8314,1.3758 h -1.1928 l 0.8314,-1.3758 c -1.7351,-0.2896 -2.8557,-1.7741 -2.8557,-3.4395 0,-1.8827 1.4459,-3.512 3.5063,-3.512 1.1929,0 2.1689,0.5431 2.7834,1.3396 l -1.0483,0.8328 c -0.3615,-0.5431 -0.976,-0.9052 -1.7351,-0.9052 -1.2651,0 -2.1327,0.9776 -2.1327,2.2448 0,1.2672 0.9037,2.2447 2.1327,2.2447 0.7953,0 1.3736,-0.3982 1.7712,-0.9051 z"
           id="path26802"
           style="fill:#3a3236;fill-opacity:1" /><path
           class="Logo_black__yi7Cl"
           d="m 34.9546,22.7733 h 1.7713 L 39.22,29.399 h -1.4459 l -0.6506,-1.7379 h -2.6388 l -0.6506,1.7379 h -1.4098 z m 1.8074,3.7654 -0.9037,-2.4982 -0.9037,2.4982 z"
           id="path26804"
           style="fill:#3a3236;fill-opacity:1" /><path
           class="Logo_black__yi7Cl"
           d="m 41.5697,22.7733 h -1.3374 v 6.6257 h 1.3374 z"
           id="path26806"
           style="fill:#3a3236;fill-opacity:1" /><path
           class="Logo_black__yi7Cl"
           d="m 43.8107,27.5889 c 0.3977,0.5069 0.9399,0.7965 1.4821,0.7965 0.5422,0 0.8675,-0.2896 0.8675,-0.7603 0,-1.1948 -3.0364,-0.9051 -3.0364,-3.1137 0,-1.0499 0.8676,-1.9189 2.1327,-1.9189 0.976,0 1.7713,0.4345 2.3135,1.1224 l -0.976,0.8689 c -0.3976,-0.5068 -0.8314,-0.8327 -1.3375,-0.8327 -0.4699,0 -0.7591,0.2897 -0.7591,0.6879 0,1.1948 3.0364,0.9052 3.0364,3.1499 -0.0361,1.231 -0.976,1.9913 -2.205,1.9913 -1.1205,0 -1.8796,-0.3982 -2.458,-1.1224 z"
           id="path26808"
           style="fill:#3a3236;fill-opacity:1" /><path
           class="Logo_black__yi7Cl"
           d="m 50.2442,25.4525 h 2.1327 v 1.1586 h -2.1327 v 1.6655 h 2.5303 v 1.1224 h -3.8678 v -6.6257 h 3.8678 v 1.1586 h -2.5303 z"
           id="path26810"
           style="fill:#3a3236;fill-opacity:1" /><path
           class="Logo_black__yi7Cl"
           d="m 21.5797,47.719 c 0.1807,0 0.3253,0.1448 0.253,0.4707 l -0.8314,0.181 c 0.1446,-0.3621 0.3615,-0.6517 0.5784,-0.6517 z m 0.4699,1.3396 h -0.1808 c -0.2168,0.2535 -0.4337,0.4345 -0.6506,0.4345 -0.2169,0 -0.3615,-0.1448 -0.3615,-0.4345 0,-0.1086 0,-0.2534 0.0362,-0.362 l 1.3374,-0.4345 c 0.253,-0.6155 -0.0361,-0.9052 -0.4338,-0.9052 -0.6506,0 -1.3735,1.05 -1.3735,1.9914 0,0.4344 0.2168,0.6517 0.506,0.6517 0.3976,0 0.7953,-0.3621 1.1206,-0.9414 z m -0.2892,-1.9551 0.9398,-0.8689 V 46.126 h -0.506 l -0.5784,0.9775 z m -2.8918,0.6155 h 0.4338 l -0.723,1.9551 C 18.5071,49.8551 18.6156,50 18.7602,50 c 0.3976,0 1.0482,-0.3983 1.2651,-0.9414 h -0.1084 c -0.1807,0.181 -0.5422,0.4345 -0.8314,0.5069 l 0.6507,-1.8103 h 0.6506 l 0.0723,-0.2896 h -0.6507 l 0.2531,-0.6879 h -0.2531 l -0.4699,0.6879 -0.5422,0.0724 v 0.181 z m -0.6145,-0.0724 c 0.0362,-0.181 -0.0723,-0.2897 -0.1446,-0.2897 -0.3976,0 -0.8314,0.3621 -1.0483,0.8328 h 0.1085 c 0.1084,-0.1811 0.3253,-0.3621 0.5422,-0.3983 l -0.7591,1.9189 C 16.8805,49.8913 17.0251,50 17.0974,50 c 0.3615,0 0.7952,-0.3621 0.976,-0.8328 h -0.1085 c -0.1084,0.1811 -0.3253,0.3621 -0.5422,0.3983 z m 0.1446,-0.9776 c 0.1807,0 0.3253,-0.1448 0.3253,-0.3258 0,-0.181 -0.1446,-0.3259 -0.3253,-0.3259 -0.1807,0 -0.3253,0.1449 -0.3253,0.3259 0,0.181 0.1446,0.3258 0.3253,0.3258 z m -4.2654,2.9689 c -0.1084,0.2172 0,0.3621 0.2169,0.3621 0.1446,0 0.1807,-0.0363 0.253,-0.1811 l 0.5061,-1.3758 c 0.253,-0.2896 0.7229,-0.6155 0.9398,-0.6155 0.1446,0 0.1085,0.1086 0.0362,0.2897 L 15.29,49.6379 c -0.0723,0.1448 0.0362,0.3259 0.1808,0.3259 0.3976,0 0.8675,-0.3621 1.0482,-0.8328 h -0.1084 c -0.1084,0.181 -0.3253,0.3621 -0.5422,0.3983 l 0.6868,-1.3758 c 0.0723,-0.1811 0.1446,-0.3259 0.1446,-0.4707 0,-0.2172 -0.1085,-0.3621 -0.3615,-0.3621 -0.3253,0 -0.6868,0.3621 -1.0844,0.8328 v -0.3621 c 0,-0.2534 -0.0723,-0.4707 -0.3253,-0.4707 -0.1446,0 -0.2892,0.1087 -0.4338,0.2897 v 0.0362 c 0.253,0 0.3615,0.362 0.1807,0.7603 z m -0.0361,-1.7017 c 0.1084,-0.3258 0.0361,-0.5793 -0.2169,-0.5793 -0.2892,0 -0.3615,0.2173 -0.6507,0.8328 v -0.3621 c 0,-0.2534 -0.0723,-0.4707 -0.3253,-0.4707 -0.2892,0 -0.5061,0.4345 -0.7229,0.8328 h 0.1084 c 0.1446,-0.1811 0.253,-0.2897 0.3615,-0.2897 0.1084,0 0.1807,0.1811 0,0.5793 l -0.5422,1.1586 c -0.1085,0.2172 0,0.3621 0.2168,0.3621 0.1446,0 0.1808,-0.0363 0.2531,-0.1811 l 0.506,-1.3758 c 0.1446,-0.181 0.2892,-0.3258 0.4338,-0.5069 z M 11.1331,47.719 c 0.1807,0 0.3253,0.1448 0.253,0.4707 l -0.8314,0.181 c 0.1446,-0.3621 0.3976,-0.6517 0.5784,-0.6517 z m 0.4699,1.3396 h -0.1807 c -0.2169,0.2535 -0.4338,0.4345 -0.6507,0.4345 -0.2169,0 -0.3615,-0.1448 -0.3615,-0.4345 0,-0.1086 0,-0.2534 0.0362,-0.362 l 1.3374,-0.4345 c 0.2531,-0.6155 -0.0361,-0.9052 -0.4337,-0.9052 -0.6507,0 -1.37363,1.05 -1.37363,1.9914 0,0.4344 0.21683,0.6517 0.50603,0.6517 0.4338,0 0.7953,-0.3621 1.1206,-0.9414 z M 8.42203,47.719 H 8.8558 L 8.13285,49.6741 C 8.06056,49.8551 8.169,50 8.31359,50 8.71121,50 9.36186,49.6017 9.57874,49.0586 H 9.4703 c -0.18073,0.181 -0.54221,0.4345 -0.83139,0.5069 l 0.65066,-1.8103 h 0.72293 l 0.0723,-0.2896 H 9.43416 L 9.68719,46.7777 H 9.43416 L 8.96424,47.4656 8.42203,47.538 Z m -2.45802,1.5206 c 0,-0.6155 0.65065,-1.412 1.04827,-1.412 0.0723,0 0.14459,0 0.21689,0.0362 l -0.39762,1.05 C 6.61466,49.2034 6.25319,49.5293 6.1086,49.5293 6.0363,49.4931 5.96401,49.4207 5.96401,49.2396 Z m 2.0604,-1.9913 H 7.80752 L 7.59064,47.4656 H 7.55449 c -1.12057,0 -2.0604,1.231 -2.0604,2.1361 0,0.2534 0.14459,0.3983 0.39762,0.3983 0.28918,0 0.57836,-0.3983 0.86754,-0.8328 V 49.312 C 6.7231,49.7465 6.86769,50 7.08458,50 7.37376,50 7.59064,49.5655 7.80752,49.1672 H 7.69908 c -0.14459,0.1811 -0.25303,0.2897 -0.36147,0.2897 -0.10844,0 -0.18074,-0.1811 0,-0.5793 z m -2.38573,0.6879 c 0.10845,-0.3258 0.03615,-0.5793 -0.21688,-0.5793 -0.28918,0 -0.36147,0.2173 -0.65065,0.8328 v -0.3621 c 0,-0.2534 -0.0723,-0.4707 -0.32533,-0.4707 -0.28918,0 -0.50606,0.4345 -0.72295,0.8328 H 3.83132 C 3.97591,48.0086 4.08435,47.9 4.19279,47.9 c 0.10844,0 0.18074,0.1811 0,0.5793 L 3.65058,49.6379 C 3.54214,49.8551 3.65058,50 3.86746,50 4.01205,50 4.0482,49.9637 4.12049,49.8189 l 0.50607,-1.3758 c 0.14459,-0.181 0.28918,-0.3258 0.43376,-0.5069 z M 1.95165,49.8913 1.9878,49.7465 C 1.33715,49.6379 1.26485,49.6379 1.51788,48.9138 l 0.25304,-0.7241 h 0.72294 c 0.32533,0 0.32533,0.1448 0.28918,0.4706 H 2.96378 L 3.39755,47.5018 H 3.21681 c -0.14459,0.2896 -0.28918,0.4706 -0.65065,0.4706 h -0.6868 l 0.36147,-1.0137 c 0.10844,-0.3259 0.18074,-0.3983 0.61451,-0.3983 h 0.28918 c 0.43376,0 0.50606,0.1086 0.50606,0.5793 H 3.83132 L 3.9759,46.3432 H 1.301 L 1.26485,46.488 c 0.50607,0.1086 0.57836,0.1448 0.32533,0.8327 l -0.57836,1.5931 c -0.25303,0.6517 -0.361472,0.7241 -0.9398296,0.8327 l -0.0361475,0.1448 z"
           id="path26812"
           style="fill:#3a3236;fill-opacity:1" /><path
           class="Logo_black__yi7Cl"
           d="m 15.0731,41.6366 c 0.1808,0 0.3254,0.1449 0.2531,0.4707 l -0.8314,0.181 c 0.1446,-0.362 0.3976,-0.6517 0.5783,-0.6517 z m 0.47,1.3396 h -0.1808 c -0.2169,0.2535 -0.4337,0.4345 -0.6506,0.4345 -0.2169,0 -0.3615,-0.1448 -0.3615,-0.4345 0,-0.1086 0,-0.2534 0.0361,-0.362 l 1.3375,-0.4345 c 0.253,-0.6155 -0.0362,-0.9051 -0.4338,-0.9051 -0.6506,0 -1.3736,1.0499 -1.3736,1.9913 0,0.4345 0.2169,0.6517 0.5061,0.6517 0.4338,0 0.7952,-0.3621 1.1206,-0.9414 z m -0.2892,-1.9551 0.9398,-0.8689 v -0.1086 h -0.5061 l -0.5783,0.9775 z m -2.8918,0.6155 h 0.4338 l -0.723,1.9551 c -0.0723,0.1811 0.0362,0.3259 0.1808,0.3259 0.3976,0 1.0482,-0.3983 1.2651,-0.9414 h -0.1084 c -0.1808,0.1811 -0.5422,0.4345 -0.8314,0.5069 l 0.6506,-1.8103 h 0.6507 l 0.0723,-0.2896 h -0.6507 l 0.2531,-0.6879 h -0.2531 l -0.4699,0.6879 -0.5422,0.0724 v 0.181 z m -0.6145,-0.0724 c 0.0361,-0.181 -0.0723,-0.2896 -0.1446,-0.2896 -0.3976,0 -0.8314,0.362 -1.0483,0.8327 h 0.1085 c 0.1084,-0.181 0.3253,-0.3621 0.5422,-0.3983 l -0.7591,1.9189 c -0.0723,0.1811 0.0723,0.2897 0.1446,0.2897 0.3614,0 0.7952,-0.3621 0.9759,-0.8327 h -0.1084 c -0.1084,0.181 -0.3253,0.362 -0.5422,0.3982 z m 0.1446,-0.9775 c 0.1807,0 0.3253,-0.1449 0.3253,-0.3259 0,-0.181 -0.1446,-0.3258 -0.3253,-0.3258 -0.1808,0 -0.3254,0.1448 -0.3254,0.3258 0,0.181 0.1446,0.3259 0.3254,0.3259 z M 9.32571,43.4831 10.6632,39.935 10.627,39.8988 9.79563,40.0074 v 0.1086 l 0.18074,0.1086 c 0.14463,0.1086 0.10843,0.2172 -0.03615,0.5793 l -1.04827,2.7878 c -0.0723,0.1449 0.03614,0.3259 0.18073,0.3259 0.39762,0 0.79524,-0.3621 0.97602,-0.8327 H 9.94022 c -0.18074,0.181 -0.43377,0.362 -0.61451,0.3982 z M 6.75925,43.1573 c 0,-0.6155 0.65065,-1.412 1.04828,-1.412 0.07229,0 0.14458,-1e-4 0.21688,0.0362 L 7.62679,42.8314 C 7.4099,43.1211 7.04843,43.4469 6.90384,43.4469 6.7954,43.4107 6.75925,43.3383 6.75925,43.1573 Z M 8.7835,41.166 H 8.56662 L 8.34974,41.3832 H 8.31359 c -1.12057,0 -2.0604,1.231 -2.0604,2.1361 0,0.2535 0.14459,0.3983 0.39762,0.3983 0.28918,0 0.57836,-0.3983 0.86754,-0.8327 v 0.1448 c -0.03615,0.4344 0.10844,0.6879 0.32532,0.6879 0.28918,0 0.50607,-0.4345 0.72295,-0.8327 H 8.45818 c -0.14459,0.181 -0.25303,0.2896 -0.36148,0.2896 -0.10844,0 -0.18073,-0.181 0,-0.5793 z m -4.95218,3.2223 c 0,-0.2535 0.25303,-0.4345 0.6145,-0.5431 0.10844,0.0724 0.28918,0.1086 0.50606,0.2172 0.36148,0.1086 0.50607,0.181 0.50607,0.2897 0,0.2534 -0.39762,0.4344 -0.93983,0.4344 -0.43377,-0.0362 -0.6868,-0.1448 -0.6868,-0.3982 z m 1.01212,-1.5569 c -0.14459,0 -0.21688,-0.1448 -0.21688,-0.2896 0,-0.4345 0.21688,-1.0862 0.6145,-1.0862 0.14459,0 0.21689,0.1448 0.21689,0.2897 0,0.4344 -0.25303,1.0861 -0.61451,1.0861 z m 1.04827,1.3396 c 0,-0.3258 -0.28917,-0.4344 -0.72294,-0.5431 -0.39762,-0.1086 -0.57836,-0.1448 -0.57836,-0.2896 0,-0.1086 0.07229,-0.2172 0.25303,-0.3259 0.65065,-0.0362 1.04827,-0.6154 1.04827,-1.0861 0,-0.1086 -0.03614,-0.1811 -0.03614,-0.2535 H 6.39778 L 6.47007,41.3832 H 5.60254 C 5.49409,41.3108 5.38565,41.2746 5.24106,41.2746 c -0.6868,0 -1.12057,0.5793 -1.12057,1.0861 0,0.3621 0.21689,0.5793 0.50607,0.6517 -0.32533,0.1449 -0.50607,0.2897 -0.50607,0.5069 0,0.1086 0.03615,0.1811 0.14459,0.2535 -0.72294,0.2172 -1.01212,0.4706 -1.01212,0.7965 0,0.3258 0.43377,0.4707 0.97598,0.4707 0.93983,0 1.66277,-0.4707 1.66277,-0.869 z M 2.49386,42.0711 c 0.32533,0 0.32533,0.1448 0.28918,0.4707 H 2.96378 L 3.39755,41.3832 H 3.21681 c -0.14459,0.2896 -0.28918,0.4707 -0.65065,0.4707 h -0.6868 l 0.36147,-0.9776 c 0.10844,-0.3258 0.18074,-0.3982 0.61451,-0.3982 h 0.28918 c 0.43376,0 0.50606,0.1086 0.50606,0.5792 H 3.83132 L 3.9759,40.2608 H 1.301 l -0.03615,0.1448 c 0.50607,0.1087 0.57836,0.1449 0.32533,0.8328 l -0.57836,1.593 C 0.75879,43.4831 0.650348,43.5555 0.0719904,43.6641 L 0.0358429,43.809 H 2.99993 L 3.54214,42.9762 H 3.32525 c -0.32532,0.3259 -0.75909,0.6155 -1.3736,0.6155 -0.79524,0 -0.72294,-0.0362 -0.46991,-0.7603 L 1.77092,42.0711 Z M 2.89148,40.0436 3.83132,39.3919 V 39.2833 H 3.25296 l -0.50607,0.7603 z"
           id="path26814"
           style="fill:#3a3236;fill-opacity:1" /><path
           class="Logo_black__yi7Cl"
           d="m 14.7478,35.554 c 0.1807,0 0.3253,0.1448 0.253,0.4706 l -0.8313,0.1811 c 0.1445,-0.3621 0.3976,-0.6517 0.5783,-0.6517 z m 0.4699,1.3396 H 15.037 c -0.2169,0.2534 -0.4338,0.4345 -0.6507,0.4345 -0.2168,0 -0.3614,-0.1449 -0.3614,-0.4345 0,-0.1448 0,-0.2535 0.0361,-0.3621 l 1.3736,-0.4344 c 0.253,-0.6155 -0.0361,-0.9052 -0.4338,-0.9052 -0.6506,0 -1.3736,1.05 -1.3736,1.9913 0,0.4345 0.2169,0.6517 0.5061,0.6517 0.3976,0 0.7591,-0.3258 1.0844,-0.9413 z m -0.253,-1.9551 0.9398,-0.869 v -0.1086 h -0.506 l -0.5784,0.9776 z m -2.7833,0.6517 h 0.3614 l -0.7229,1.9551 c -0.0723,0.181 0.0361,0.3258 0.1807,0.3258 0.3976,0 1.0483,-0.3982 1.2652,-0.9413 h -0.1085 c -0.1807,0.181 -0.506,0.4345 -0.8314,0.5069 l 0.6507,-1.8103 h 0.6506 l 0.0723,-0.2897 h -0.6506 l 0.253,-0.6879 h -0.253 l -0.4699,0.6879 -0.3976,0.0362 z m -0.3615,0.2172 c 0.1084,-0.3258 0.0361,-0.5793 -0.2169,-0.5793 -0.2892,0 -0.3615,0.2173 -0.6507,0.8328 v -0.3621 c 0,-0.2534 -0.0723,-0.4707 -0.3253,-0.4707 -0.2892,0 -0.506,0.4345 -0.72293,0.8328 h 0.10843 c 0.1446,-0.1811 0.253,-0.2897 0.3615,-0.2897 0.1084,0 0.1807,0.181 0,0.5793 l -0.50608,1.1586 c -0.10844,0.2172 0,0.362 0.21688,0.362 0.1446,0 0.1807,-0.0362 0.253,-0.181 l 0.5061,-1.3758 c 0.1446,-0.181 0.2892,-0.3259 0.4338,-0.5069 z M 8.8558,35.554 c 0.18073,0 0.32532,0.1448 0.25303,0.4706 L 8.27744,36.2057 C 8.38588,35.8436 8.63891,35.554 8.8558,35.554 Z m 0.43377,1.3396 H 9.10883 c -0.21689,0.2534 -0.43377,0.4345 -0.65065,0.4345 -0.21689,0 -0.36148,-0.1449 -0.36148,-0.4345 0,-0.1448 0,-0.2535 0.03615,-0.3621 L 9.4703,36.0971 c 0.25303,-0.6155 -0.03615,-0.9052 -0.43377,-0.9052 -0.65065,0 -1.3736,1.05 -1.3736,1.9913 0,0.4345 0.21689,0.6517 0.50607,0.6517 0.43377,0 0.83139,-0.3258 1.12057,-0.9413 z m -3.28941,0.5431 c -0.14459,0 -0.32533,-0.1087 -0.32533,-0.2173 0,-0.0362 0.07229,-0.181 0.14459,-0.362 L 6.0363,36.2781 c 0.21689,-0.2897 0.57836,-0.5793 0.79525,-0.5793 0.10844,0 0.21688,0.0724 0.21688,0.2534 0,0.5431 -0.50606,1.4845 -1.04827,1.4845 z M 7.51834,35.735 c 0,-0.3983 -0.14458,-0.5431 -0.43376,-0.5431 -0.32533,0 -0.65066,0.3621 -0.97598,0.7965 L 6.90384,33.8523 6.86769,33.8161 6.0363,33.9247 v 0.1086 l 0.18074,0.1087 c 0.14459,0.1086 0.10844,0.2534 -0.03615,0.5792 L 5.31336,36.966 c -0.0723,0.181 -0.14459,0.3621 -0.14459,0.3983 0,0.2172 0.32532,0.4344 0.6145,0.4344 0.65065,0.0362 1.73507,-1.1586 1.73507,-2.0637 z M 4.87959,35.4816 C 4.91574,35.3005 4.80729,35.1919 4.735,35.1919 c -0.39762,0 -0.83139,0.3621 -1.04827,0.8327 h 0.10844 c 0.10844,-0.181 0.32532,-0.362 0.54221,-0.3982 l -0.7591,1.9189 c -0.07229,0.181 0.0723,0.2896 0.14459,0.2896 0.36148,0 0.79524,-0.362 0.97598,-0.8327 H 4.59041 C 4.48197,37.1832 4.26508,37.3643 4.0482,37.4005 Z M 5.02418,34.504 c 0.18073,0 0.32532,-0.1448 0.32532,-0.3258 0,-0.1811 -0.14459,-0.3259 -0.32532,-0.3259 -0.18074,0 -0.32533,0.1448 -0.32533,0.3259 0,0.181 0.14459,0.3258 0.32533,0.3258 z M 3.07222,34.2144 H 1.301 l -0.03615,0.1448 c 0.50607,0.1086 0.57836,0.1448 0.32533,0.8327 L 1.01182,36.785 C 0.75879,37.4367 0.650348,37.5091 0.0719904,37.6177 L 0.0358429,37.7625 H 2.71075 L 3.28911,36.7126 H 3.07222 c -0.32533,0.362 -0.72295,0.8327 -1.3013,0.8327 -0.43377,0 -0.50607,-0.0724 -0.25304,-0.7603 l 0.57836,-1.5931 c 0.25303,-0.6517 0.36148,-0.7241 0.93983,-0.8327 z"
           id="path26816"
           style="fill:#3a3236;fill-opacity:1" /><path
           d="m 10.0128,7.78374 c 0.1085,-0.10862 0.1808,-0.18103 0.2892,-0.28965 0.1807,-0.21723 0.3615,-0.39826 0.5422,-0.57929 0.0723,-0.07241 0.1084,-0.10861 0.1807,-0.14482 0,0 0,-0.0362 0.0362,-0.07241 -0.0723,0.03621 -0.1446,0.10862 -0.2169,0.14482 0,0 -0.0361,0 0,-0.0362 0.0723,-0.03621 0.1084,-0.07241 0.1807,-0.14482 0,0 0,-10e-6 0,-0.03621 -0.2168,-0.03621 -0.3976,0.10862 -0.5422,0.25344 -0.0361,0 -0.0723,0 -0.0723,0 -0.253,0.07241 -0.43373,0.28964 -0.68676,0.39826 V 7.24065 C 9.6152,7.27686 9.5429,7.34927 9.43446,7.34927 c -0.14459,0.03621 -0.28918,0 -0.39762,0 C 8.81995,7.38548 8.63922,7.42168 8.42233,7.45789 8.31389,7.4941 8.20545,7.5303 8.09701,7.56651 c 0,0 0,0.0362 -0.03615,0.0362 -0.03615,0.03621 -0.0723,0.07241 -0.10844,0.10862 -0.10844,0.0362 -0.18074,0.14482 -0.28918,0.21723 0,0 0,0 -0.03615,0 C 7.5548,8.00097 7.44635,8.10959 7.37406,8.182 H 7.33791 c 0,-0.0362 0.03615,-0.0362 0.03615,-0.07241 0,-0.0362 0.03615,-0.0362 0.03615,-0.07241 0.03614,-0.03621 0.03614,-0.07241 0.07229,-0.10862 0,0 0,0 0,-0.0362 0,0 0,0 -0.03615,0 C 7.51865,7.81994 7.62709,7.74753 7.73553,7.67512 H 7.69939 l 0.03614,-0.0362 c -0.03614,0 -0.07229,0.0362 -0.07229,0.07241 -0.03615,0.0362 -0.0723,0.10862 -0.14459,0.10862 0,0 0,0 -0.03615,0 0,0 0,0 0,-0.03621 0,0 0,-0.03621 0.03615,-0.03621 V 7.71133 7.67512 C 7.5548,7.63892 7.59094,7.60271 7.62709,7.56651 7.69939,7.5303 7.77168,7.4941 7.80783,7.45789 c 0,0 0.03615,0 0.03615,-0.03621 C 7.73553,7.45789 7.66324,7.49409 7.59094,7.56651 H 7.5548 7.51865 c 0,-0.03621 0.07229,-0.03621 0.10844,-0.07242 H 7.66324 C 8.20545,7.09583 8.9284,7.16824 9.5429,6.95101 9.57905,6.9148 9.65134,6.8786 9.68749,6.84239 9.75978,6.80619 9.83208,6.73378 9.94052,6.66137 10.0851,6.55275 10.1574,6.44413 10.2297,6.2631 V 6.2269 C 10.0128,6.44413 9.75978,6.62516 9.50675,6.76998 9.14528,6.95101 8.78381,6.9148 8.42233,6.98722 c 0,-0.03621 0.03615,-0.03621 0.0723,-0.03621 0,-0.03621 0.03615,-0.07241 0.07229,-0.10862 0,0 0,-0.0362 0.03615,-0.0362 0.03615,0 0.07229,0 0.07229,0 -0.03614,-0.07241 -0.14458,0.0362 -0.21688,0 0.03615,-0.03621 0,-0.07241 0.03615,-0.10862 h 0.07229 c 0,-0.03621 0.03615,-0.07241 0.03615,-0.07241 C 8.8561,6.48034 9.07298,6.37172 9.32602,6.2269 c -0.03615,0 -0.0723,0.0362 -0.14459,0 0.03615,0 0,-0.03621 0.03614,-0.03621 0.18074,-0.0362 0.32533,-0.14482 0.50607,-0.21723 -0.0723,0 -0.10844,0.0362 -0.18074,0 0.03615,0 0.03615,-0.03621 0.10844,-0.03621 v -0.0362 c 0,0 0,0 0.03615,0 H 9.65134 c 0,-0.03621 0.0723,0 0.10844,-0.03621 H 9.72364 C 9.75978,5.79243 9.86823,5.79243 9.94052,5.75622 c 0,-0.0362 -0.07229,0 -0.07229,-0.0362 0,0 0,0 0.03614,0 H 9.86823 c -0.03615,0 0,-0.03621 0,-0.07241 C 9.97667,5.53899 9.97667,5.39417 10.0128,5.24934 H 9.97667 C 9.79593,5.43037 9.5429,5.50278 9.28987,5.5752 H 9.21757 C 9.14528,5.6114 9.00069,5.6114 8.9284,5.5752 8.8561,5.53899 8.81995,5.50278 8.74766,5.43037 8.60307,5.35796 8.49463,5.28555 8.35004,5.21314 7.95242,5.06832 7.51865,4.9959 7.08488,5.03211 7.26562,4.92349 7.4825,4.92349 7.66324,4.85108 7.95242,4.77867 8.20545,4.67005 8.49463,4.67005 c -0.03615,0 -0.10844,0 -0.18074,0 -0.21688,0 -0.46991,0.03621 -0.72295,0.10862 C 7.41021,4.81488 7.26562,4.88729 7.12103,4.92349 7.01259,4.9597 6.97644,5.06832 6.868,5.03211 V 4.9959 C 7.04873,4.77867 7.22947,4.59764 7.4825,4.59764 c 0.28918,-0.0362 0.57836,0 0.86754,0.03621 0.21688,0 0.39762,0.07241 0.6145,0.10862 0.0723,0 0.10844,0.14482 0.18074,0.14482 0.10844,0.0362 0.21688,0 0.28918,0.07241 0,-0.03621 0,-0.07241 0,-0.10862 0.07229,-0.07241 0.14459,0 0.21688,0 C 9.79593,4.77867 9.5429,4.63385 9.47061,4.48903 V 4.45282 c 0.14459,0.10862 0.21688,0.25344 0.39762,0.32585 0.07229,0.03621 0.28917,0.07241 0.25307,0 C 10.049,4.59764 9.86823,4.45282 9.72364,4.27179 V 4.19938 c -0.03615,0 -0.03615,0 -0.03615,-0.03621 V 4.09076 C 9.6152,4.05456 9.65134,3.98215 9.6152,3.94594 9.57905,3.87353 9.6152,3.72871 9.57905,3.6563 9.5429,3.54768 9.5429,3.47527 9.50675,3.36665 9.47061,3.077 9.39831,2.82357 9.36216,2.57013 9.32602,2.24428 9.5429,1.99084 9.68749,1.7374 9.79593,1.52016 9.94052,1.33913 10.1574,1.19431 10.1936,0.977078 10.3381,0.832255 10.4827,0.651227 10.6273,0.506404 10.8442,0.397788 10.9888,0.325376 11.2057,0.216759 11.4226,0.144348 11.4226,0.144348 H 0 V 8.94232 H 8.06086 C 8.38618,8.72509 8.67536,8.61647 9.14528,8.39924 9.36216,8.1458 9.83208,7.92856 10.0128,7.78374 Z M 7.44635,6.58895 c -0.03614,0 -0.10844,0 -0.07229,0 0,-0.07241 0.14459,-0.07241 0.21688,-0.10861 0.03615,0 0.0723,-0.03621 0.10845,-0.03621 0.03614,0.03621 0.07229,0.03621 0.10844,0.07241 -0.10844,0.07241 -0.25303,0 -0.36148,0.07241 z M 4.91604,6.2269 c -0.03615,-0.03621 0,0 0,0 C 5.13292,5.90105 5.27751,5.64761 5.4221,5.35796 5.63899,5.24934 5.81972,5.06832 6.00046,4.88729 6.28964,4.59764 6.57882,4.308 6.94029,4.16317 c 0.14459,-0.0362 0.28918,-0.0362 0.43377,0 C 7.33791,4.23559 7.22947,4.19938 7.15718,4.27179 H 7.12103 V 4.23559 C 6.94029,4.41661 6.72341,4.48903 6.57882,4.70626 6.47038,4.88729 6.39808,5.10452 6.1812,5.14073 c -0.0723,0 0,-0.03621 0,-0.03621 C 5.67513,5.39417 5.31366,5.75622 4.91604,6.2269 Z m 1.3736,-1.12238 c 0,0.03621 -0.03615,0.03621 -0.03615,0.07241 0,0.03621 -0.03614,0.03621 -0.07229,0.07241 H 6.14505 c 0,-0.07241 0.07229,-0.14482 0.14459,-0.14482 0,0 0,-0.0362 0,0 z m 0.75909,2.49819 c -0.03614,0.03621 0,0.03621 0,0 0,0.03621 0,0.03621 0,0.07241 -0.03614,0.03621 -0.07229,0.07241 -0.10844,0.07241 0,0 0,0 -0.03615,0 C 6.868,7.78374 6.868,7.78374 6.83185,7.81995 c -0.03615,0 -0.10844,0 -0.0723,-0.03621 C 6.7957,7.74753 6.83185,7.71133 6.868,7.67512 6.90414,7.63892 6.90414,7.63892 6.94029,7.60271 l 0.03615,-0.0362 c 0,0.0362 0.10844,0 0.07229,0.0362 z M 6.75955,7.45789 C 6.68726,7.4941 6.61497,7.56651 6.57882,7.60271 6.50652,7.63892 6.43423,7.67512 6.36193,7.71133 c 0,0 0,0 -0.03614,0 -0.0723,0.0362 -0.10845,0.07241 -0.18074,0.14482 0,0 0,0 -0.03615,0.03621 0,0 0,0 -0.03615,0.0362 L 6.03661,7.96477 c 0,0 0,0 -0.03615,0.0362 H 5.96431 5.92817 c 0,0 -10e-6,0 -0.03615,0 -0.03615,0 -0.03615,0.03621 -0.0723,0.03621 -0.03614,0.03621 -0.07229,0.07241 -0.10844,0.10862 0,0 0,0 0,-0.03621 0,-0.0362 0.03615,-0.0362 0.03615,-0.07241 0,0 0,0 0,-0.03621 L 5.78358,7.96477 C 5.81972,7.92856 5.81972,7.92856 5.81972,7.89236 c 0,0 0,-0.03621 0.03615,-0.03621 0,0 0,-0.0362 0.03615,-0.0362 V 7.78374 c 0,0 0,0 0,-0.03621 0,0 0,0 0,-0.0362 0.03614,-0.03621 0.03615,-0.07241 0.07229,-0.07241 -0.03614,0 -0.03615,0.0362 -0.07229,0.0362 0,0 -0.03615,0 -0.03615,-0.0362 L 5.89202,7.60271 C 5.92816,7.56651 5.92817,7.5303 5.96431,7.5303 c 0.03615,0 0.03615,-0.03621 0.03615,-0.03621 L 6.03661,7.45789 C 6.1812,7.31307 6.47038,7.31307 6.68726,7.20445 c 0.07229,-0.03621 0.18074,0 0.25303,0 0.03615,0 0.10844,0 0.14459,0.0362 C 7.04873,7.27686 6.90414,7.38548 6.75955,7.45789 Z M 7.08488,6.29931 c 0,0 0.03615,0 0.0723,-0.03621 H 7.01259 c 0,0 0,0 0,-0.0362 -0.0723,0 -0.18074,0.0362 -0.25304,0.07241 C 6.65111,6.33551 6.54267,6.40792 6.39808,6.44413 6.21734,6.51654 6.07275,6.66137 5.85587,6.73378 c 0,0 0,0 0,-0.03621 0,-0.03621 0.0723,-0.07241 0.10844,-0.10862 V 6.55275 C 6.1089,6.37172 6.28964,6.2631 6.43423,6.11828 V 6.08207 C 6.47038,6.00966 6.57882,5.97346 6.61496,5.90105 c 0,-0.03621 0.0723,-0.10862 0.18074,-0.14483 0,0 -0.03615,0 -0.03615,-0.0362 -0.07229,0 -0.14458,0.0362 -0.21688,0 0.03615,-0.03621 0.0723,-0.03621 0.10844,-0.07241 0,0 -0.03615,0 -0.03615,-0.03621 0,-0.03621 0.03615,-0.07241 0.0723,-0.07241 0.07229,0 0.14459,0 0.21688,-0.07241 -0.10844,0 -0.25303,0.0362 -0.36147,-0.03621 0.0723,-0.21723 0.21688,-0.39826 0.43377,-0.50688 h 0.03615 c 0,0.07242 -0.03615,0.14483 -0.14459,0.18103 0.14459,0.03621 0.25303,0.03621 0.39762,0.10862 0,0.0362 -0.03615,0 -0.0723,0 0.0723,0.0362 0.18074,0 0.25303,0.07241 -0.03614,0.03621 -0.10844,0 -0.14459,0 0.50607,0.14482 1.04828,0.25344 1.48205,0.6155 -0.36148,0.18102 -0.7591,0.25344 -1.15672,0.36205 -0.03615,0 -0.07229,0 -0.14459,0 v 0.03621 c -0.07229,0 -0.10844,0 -0.18074,0.0362 -0.07229,0 -0.14458,0.03621 -0.21688,-0.0362 z"
           fill="#000091"
           id="path26818" /><path
           d="m 24.1821,0 h -9.4706 c 0,0 0,1.37574e-7 0.0723,0.0362058 0.0723,0.0362056 0.1807,0.1086172 0.253,0.1448222 0.1085,0.072412 0.2531,0.144823 0.3254,0.25344 0.0361,0.036206 0.0723,0.144823 0.0361,0.217234 -0.0361,0.072411 -0.0361,0.217234 -0.1446,0.253439 -0.1084,0.036206 -0.2169,0.036206 -0.3614,0.036206 -0.0723,0 -0.1446,0 -0.2169,-0.036206 0.253,0.108619 0.4699,0.217239 0.6506,0.434469 0,0.0362 0.0723,0.03621 0.1446,0.03621 v 0.0362 c -0.0361,0.03621 -0.0723,0.03621 -0.0361,0.10862 h 0.0361 c 0.0723,-0.03621 0.0723,-0.21724 0.1807,-0.14482 0.0723,0.0362 0.1085,0.18102 0.0723,0.25343 -0.0723,0.07242 -0.1446,0.10862 -0.2168,0.18103 0,0.03621 0,0.07241 0,0.10862 0.0361,0.07241 0.0723,0.14482 0.0723,0.21723 0.0361,0.10862 0.0722,0.25344 0.1084,0.36206 0.0723,0.25344 0.1446,0.50688 0.1084,0.76032 0,0.14482 -0.0723,0.25344 0,0.39826 0.0362,0.14482 0.1085,0.21724 0.1808,0.36206 0.0723,0.10861 0.1446,0.18102 0.1807,0.25344 0.1085,0.18102 0.2892,0.32585 0.2169,0.54308 -0.0362,0.10862 -0.2169,0.10862 -0.3615,0.18103 -0.1084,0.07241 0,0.21723 0.0362,0.28965 0.0723,0.14482 -0.1085,0.25343 -0.2169,0.28964 0.0361,0.03621 0.1084,0.03621 0.1084,0.07241 0,0.07241 0.1085,0.14482 0.0362,0.21724 -0.0723,0.10861 -0.2531,0.14482 -0.1808,0.28964 0.0723,0.10862 0.0362,0.25344 0,0.36206 -0.0361,0.14482 -0.1807,0.21723 -0.2891,0.25344 -0.1085,0.0362 -0.2169,0.0362 -0.3254,0 -0.0361,0 -0.0723,-0.03621 -0.1084,-0.03621 -0.2892,-0.0362 -0.5784,-0.10862 -0.8314,-0.10862 -0.0723,0 -0.1807,0.03621 -0.2169,0.07242 -0.0723,0.07241 -0.1446,0.10861 -0.2169,0.18102 l -0.0361,0.03621 c 0,0 0,0 -0.0362,0.03621 -0.0361,0.07241 -0.1084,0.10861 -0.1446,0.18102 0,0 0,0 0,0.03621 -0.0722,0.10862 -0.1084,0.21723 -0.1084,0.28964 -0.1084,0.39827 -0.0723,0.72412 0,0.79653 0.0362,0.0362 0.5422,0.18103 0.9037,0.36205 0.1807,0.07242 0.2892,0.14483 0.3976,0.18103 h 9.2899 V 0 Z"
           fill="#e1000f"
           id="path26820" /><path
           d="m 15.2894,3.22238 c 0.0723,0 0.1807,0 0.1807,0.0362 -0.0361,0.14482 -0.2168,0.18103 -0.3253,0.28965 h -0.0723 c -0.0361,0.0362 -0.0361,0.10861 -0.0723,0.10861 -0.0361,0 -0.1084,0 -0.1446,0 0.0723,0.07242 0.1446,0.10862 0.2531,0.10862 0,0 0.0361,0.03621 0.0361,0.07241 0,0 0,0 0.0362,0 h 0.0361 v 0.07241 c -0.0361,0.07241 -0.1446,0.03621 -0.2169,0.03621 0.1446,0.03621 0.2531,0.03621 0.3976,0 0.1085,-0.03621 0,-0.21723 0.0723,-0.28965 -0.0361,0 0,-0.0362 -0.0361,-0.0362 0.0361,-0.03621 0.0723,-0.07241 0.1084,-0.10862 0.0362,0 0.0723,0 0.1085,-0.0362 0,-0.03621 -0.0723,-0.03621 -0.0362,-0.07241 0.1085,-0.07242 0.1808,-0.18103 0.1446,-0.25344 0,-0.03621 -0.1446,-0.03621 -0.2169,-0.07242 -0.0723,-0.0362 -0.1807,0 -0.2891,0 -0.0723,0 -0.1808,0.03621 -0.2531,0.07242 -0.1084,0.0362 -0.2169,0.10861 -0.3253,0.18102 0.1084,-0.0362 0.2169,-0.07241 0.3615,-0.10861 0.0723,0 0.1446,-0.03621 0.253,0 z"
           fill="#000000"
           id="path26822" /></g></g><g
       id="g26983"
       transform="matrix(0.42333019,0,0,0.42333019,136.06299,0)"><path
         d="M 180.35,212.6 H 0 V 0 h 180.35 z"
         fill="#004899"
         id="path26857" /><path
         d="M 176.33,4.00977 H 4.00977 V 208.59 H 176.33 Z"
         fill="#ffffff"
         id="path26859" /><path
         d="m 54.75,119.46 c 5.5359,8.384 13.8472,14.551 23.476,17.419 9.6288,2.868 19.9601,2.255 29.181,-1.734 9.222,-3.988 16.744,-11.096 21.248,-20.077 4.505,-8.98 5.703,-19.2602 3.384,-29.036 -2.318,-9.7758 -8.004,-18.4231 -16.062,-24.4249 -8.057,-6.0019 -17.97,-8.975 -28.0003,-8.3978 -10.0303,0.5772 -19.5371,4.6679 -26.8526,11.5543 -7.3155,6.8865 -11.9725,16.129 -13.1541,26.1062 -0.1999,1.6591 -0.3,3.3288 -0.3,5 -0.0125,8.3792 2.4506,16.5752 7.08,23.5602"
         fill="#80a4cc"
         id="path26861" /><path
         d="m 76.5605,81.9999 2.28,0.36 -0.78,1.5 -2,-1.08 z m 9.17,-5 -1.91,1.68 v 1.14 l 3,0.75 6.05,-4.11 -0.16,-1.67 -2.4,-0.83 z m 0.94,-4.51 h -0.55 l -1.01,1.91 -1.64,0.13 -1.87,2.7 1,0.64 2.52,-1.6 1.93,-2.06 z m 3.4,-5.3 -3.87,3.08 1.38,1 3.09,-3.16 z m -29.75,17.19 1.34,0.17 0.42,-3.17 v -1 l -0.24,-1 -0.69,-0.06 z m 0.71,2.09 0.43,0.67 0.81,0.12 0.37,-1.64 -1.34,-0.32 z m 0.78,1.64 0.13,0.87 h 0.83 l -0.11,-0.94 z m 0.47,1.87 0.23,0.56 0.7,-0.31 c 0,0 -0.19,-0.52 -0.21,-0.52 z m 0.42,1.6 0.6,-0.22 -0.23,-0.51 c 0,0 -0.34,0.29 -0.33,0.33 v 0.4 z m 28.41,-2.47 c 0,0 -1.09,2.65 -1.09,2.67 0,0.02 1.71,0.16 1.71,0.17 l 0.41,-2.18 -0.3,-0.22 0.2,-0.75 -0.86,-0.47 -0.27,0.56 z m -2.51,1.84 0.93,0.26 0.28,-0.87 -0.66,-0.15 z m 20.0605,33.6301 -1.35,0.78 -1.72,0.36 -3.78,3.72 0.23,0.83 0.55,-0.08 2.16,-0.93 c 1.195,-0.56 2.293,-1.31 3.25,-2.22 0.663,-0.659 1.213,-1.423 1.63,-2.26 z m -1,5.19 -0.46,-0.51 -0.72,0.43 c 0,0 0.54,0.55 0.53,0.55 z m -14.3305,-32.1901 -0.53,-0.07 v 1 l 0.54,0.1 0.32,-1.3 -0.17,-0.07 z m -31.92,-5.6 0.19,0.81 0.77,-0.25 -0.25,-0.82 z m -6.66,27.5101 3,-2.45 2.43,0.62 6.49,-4.89 0.31,-2.6 -4.26,-6.22 c -0.2435,-2.319 -0.6343,-4.6205 -1.17,-6.8901 -0.44,-1.52 -1.43,-5.94 -1.47,-6 l -0.56,-1.13 -4.06,-6.09 2.63,-6.58 2.02,-0.15 0.13,-1 -1.56,-1.3 v -0.28 -1.23 c 0,-0.84 1.42,-1.69 2.37,-1.69 0.2677,0.0022 0.5337,0.0426 0.79,0.12 0.6792,0.2737 1.3079,0.659 1.86,1.14 0.1,0.07 1.86,4.19 1.86,4.19 l -1.49,1.21 -0.74,1.8 1,0.81 1.43,-2.47 5.92,2 3.62,2.06 1.1,-1.2 3,0.25 2.22,-3 -2,-0.76 2.11,-2.54 -0.25,-0.86 -3.22,-0.62 2.46,-2.63 2.39,1.56 v 0.69 l 1.51,0.18 1.19,-2.43 -0.89,-0.79 3.76,-3.62 3.43,-1.59 2.65,-1.74 0.52,-0.41 0.1,-1.86 -0.45,-1.32 -1.17,-0.46 1.5,-1.18 -0.41,-0.22 c -2.2256,1.554 -4.8398,2.4578 -7.55,2.61 -3,0.2 -8.94,-1.11 -8.94,-1.11 l -5.94,-0.89 -2.08,-0.37 c -5.0302,2.6841 -9.4765,6.3417 -13.08,10.76 l -0.15,5.61 -0.92,2.58 -2.08,7.4 0.69,2.09 -3.37,0.48 -3.41,3.79 c -0.1915,1.6598 -0.2883,3.3292 -0.29,5 -0.0124,8.3791 2.4506,16.5761 7.08,23.5601 z M 112.911,59.4899 c 5.219,3.2333 9.682,7.5521 13.085,12.6629 3.402,5.1109 5.665,10.8942 6.635,16.9571 v 0 l -3.34,2.86 -2.13,-0.51 -1,0.88 0.07,0.59 c 0,0.28 0.16,0.83 0.37,1.66 0.412,1.6352 0.627,3.3138 0.64,5 0.04,1.1941 -0.098,2.3871 -0.41,3.5401 h -1.82 l -5.12,-4.0201 -3.9,0.88 -2.52,-0.43 -3.19,1.0001 1.44,1.24 2.51,-0.71 2.16,1.73 -0.34,0.76 -0.89,1.45 -1.92,2.74 -3,2.39 -5.47,-5.68 -1.42,0.15 5.84,6.7 2.37,-0.48 0.59,1.21 -2.38,3.9 -4.64,4.43 -2.02,5.23 c -0.146,0.214 -0.356,0.375 -0.6,0.46 -0.858,0.454 -1.643,1.034 -2.33,1.72 -1.1205,1.05 -1.7405,1.63 -1.8805,1.74 -1.0518,0.913 -2.1607,1.758 -3.32,2.53 -1.2308,0.831 -2.5097,1.589 -3.83,2.27 -2.168,1.116 -4.5623,1.721 -7,1.77 -1.5275,-0.004 -3.044,-0.258 -4.49,-0.75 -0.2,-0.07 -0.33,-0.17 -0.33,-0.26 l 1,-2.86 c 0.782,-1.003 1.62,-1.961 2.51,-2.87 0.8037,-0.919 1.4005,-2 1.75,-3.17 0.3359,-1.193 0.7673,-2.357 1.29,-3.48 0.93,-1.5 1.37,-2.78 1.06,-3.09 l -6.06,-6.09 -2.54,-4.73 0.27,-1.12 c 0.5212,-1.529 1.1911,-3.002 2,-4.4 0.348,-0.877 0.9549,-1.627 1.74,-2.15 l 4.06,-2.0001 7.87,1.1901 2.4,1.6 1.12,-0.14 4.8105,1.25 1.2,-3.1301 -6.1105,-1.72 -2.16,-2.15 -0.3,0.08 1,2.55 -1.22,0.25 -0.13,-0.3 0.43,-0.08 c 0,0 -0.37,-1.57 -1.32,-2 -0.2736,-0.1758 -0.586,-0.2822 -0.91,-0.31 -0.5961,0.0434 -1.1632,0.2745 -1.62,0.66 -0.7285,0.78 -1.5634,1.4533 -2.48,2 l -2.51,-1.89 0.93,-2.34 0.39,0.09 c 0.2322,0.0573 0.4709,0.0842 0.71,0.08 0.298,0.0276 0.5964,-0.0476 0.8456,-0.2132 0.2493,-0.1655 0.4343,-0.4114 0.5244,-0.6968 0.0402,-0.1496 0.0361,-0.3077 -0.0118,-0.455 -0.048,-0.1474 -0.1376,-0.2776 -0.2582,-0.375 0,0 -0.24,-0.27 -0.24,-0.27 0.1296,-0.1251 0.2468,-0.2624 0.35,-0.41 0.492,0.1321 0.9935,0.2257 1.5,0.28 0.5413,0.074 1.0902,-0.0659 1.53,-0.39 l 0.6,-1 1,-0.29 0.18,-1.35 h 0.63 c 0.2323,0.3477 0.4016,0.7336 0.5,1.14 l 1.77,-0.46 0.52,-1.81 -0.28,-0.32 0.77,-1.74 -0.67,-0.47 -1.14,3.2 -0.62,0.08 -0.28,-0.71 -1.59,0.12 -0.89,-1.43 1.93,-2 1.89,-2.53 2.67,0.84 0.6505,1.32 h 0.81 l -0.3,-1.92 2.18,-2 -1.45,-6.57 0.93,-2.07 1,0.06 0.15,-1.62 -7.0005,-7.61 0.23,-2.06 5.7505,-1.31 0.83,0.25 3.27,-0.32 0.76,0.34 5.28,-0.52 z m -0.1,1.27 -6.7,1.46 4.62,2.66 1.51,-1.77 1.87,-1.26 z"
         fill="#004899"
         id="path26863" /><path
         d="m 42.3208,39.8707 -1.11,-3.56 h -7.35 l -1.17,3.56 h -6.14 l 8.69,-23.9 h 4.53 l 8.68,23.9 z m -4.67,-14.84 -2.14,6.38 h 4.16 z"
         fill="#e3211b"
         id="path26865" /><path
         d="m 70.4294,37.5201 c -0.8648,0.798 -1.8793,1.4166 -2.9847,1.82 -1.1054,0.4033 -2.2798,0.5835 -3.4553,0.53 h -8.88 v -23.9 h 8.85 c 1.1755,-0.0534 2.3499,0.1267 3.4553,0.5301 1.1054,0.4034 2.1199,1.0219 2.9847,1.8199 2.79,2.79 2.48,5.84 2.48,9.6 0,3.76 0.34,6.81 -2.45,9.6 z m -4,-15 c -0.3065,-0.4559 -0.7301,-0.8209 -1.2263,-1.0567 -0.4962,-0.2358 -1.0467,-0.3336 -1.5937,-0.2833 h -2.6 v 13.45 h 2.58 c 0.547,0.0504 1.0975,-0.0475 1.5937,-0.2833 0.4962,-0.2357 0.9198,-0.6007 1.2263,-1.0567 0.47,-0.67 0.63,-1.31 0.63,-5.37 0,-4.06 -0.16,-4.7 -0.63,-5.37 z"
         fill="#e3211b"
         id="path26867" /><path
         d="m 80.8906,39.8707 v -23.9 h 16.22 v 5.24 h -10.35 v 4 h 8.85 v 5.24 h -8.85 v 4.19 h 10.35 v 5.24 z"
         fill="#e3211b"
         id="path26869" /><path
         d="m 121.66,39.8707 v -11.45 l -3.39,5.91 h -3.76 l -3.4,-5.91 v 11.45 h -5.86 v -23.9 h 5.76 l 5.37,10.54 5.37,-10.54 h 5.76 v 23.9 z"
         fill="#e3211b"
         id="path26871" /><path
         d="m 136.23,39.8707 v -23.9 h 16.23 v 5.24 h -10.35 v 4 h 8.85 v 5.24 h -8.85 v 4.19 h 10.36 v 5.24 z"
         fill="#e3211b"
         id="path26873" /><path
         d="m 31.3098,152.109 -3.8,10.46 h 2.48 l 0.52,-1.6 h 3.48 l 0.5,1.6 h 2.48 l -3.81,-10.46 z m -0.14,6.92 1.14,-3.39 1.07,3.39 z"
         fill="#e3211b"
         id="path26875" /><path
         d="m 43.7494,162.631 c 0.555,0.034 1.1108,-0.053 1.6289,-0.255 0.5181,-0.202 0.9859,-0.514 1.3711,-0.915 v 0 c 0.76,-0.77 1,-1.72 1,-3.47 v -1.37 h -3.88 v 2 h 1.58 v 0.27 c 0.0129,0.447 -0.1443,0.883 -0.44,1.22 -0.1677,0.157 -0.3662,0.279 -0.583,0.356 -0.2168,0.078 -0.4473,0.11 -0.677,0.094 -0.2157,0.01 -0.4309,-0.03 -0.6287,-0.117 -0.1977,-0.086 -0.3727,-0.218 -0.5113,-0.383 -0.25,-0.33 -0.42,-0.7 -0.42,-2.72 0,-2.02 0.17,-2.38 0.42,-2.71 0.139,-0.166 0.3139,-0.298 0.5114,-0.386 0.1974,-0.089 0.4124,-0.131 0.6286,-0.124 0.3728,-0.042 0.7478,0.058 1.05,0.28 0.3022,0.223 0.5093,0.551 0.58,0.92 h 2.4 c -0.1496,-0.725 -0.4911,-1.396 -0.989,-1.944 -0.4978,-0.547 -1.1335,-0.951 -1.8408,-1.169 -0.7073,-0.218 -1.46,-0.241 -2.1796,-0.068 -0.7195,0.172 -1.3794,0.535 -1.9106,1.051 -1,1 -1,2.47 -1,4 v 0.36 c 0,1.5 0,2.92 1,4 0.3801,0.371 0.8335,0.658 1.3311,0.844 0.4976,0.186 1.0285,0.266 1.5589,0.236 z"
         fill="#e3211b"
         id="path26877" /><path
         d="m 58.1898,156.22 h -3.97 v -2.04 h 4.65 v -2.1 h -7.03 v 10.46 h 7.03 v -2.1 h -4.65 v -2.13 h 3.97 z"
         fill="#e3211b"
         id="path26879" /><path
         d="m 68.6595,152.08 v 5.69 l -3.62,-5.69 h -2.1 v 10.46 h 2.38 v -5.69 l 3.62,5.69 h 2.11 v -10.46 z"
         fill="#e3211b"
         id="path26881" /><path
         d="m 80.4803,159.389 c -0.0647,0.335 -0.2482,0.634 -0.5165,0.844 -0.2684,0.209 -0.6035,0.315 -0.9435,0.296 -0.2157,0.011 -0.4308,-0.029 -0.6286,-0.116 -0.1978,-0.087 -0.3728,-0.218 -0.5114,-0.384 -0.25,-0.33 -0.43,-0.72 -0.43,-2.72 0,-2 0.18,-2.39 0.43,-2.72 0.1386,-0.165 0.3136,-0.296 0.5114,-0.383 0.1978,-0.087 0.4129,-0.127 0.6286,-0.117 0.34,-0.018 0.6751,0.088 0.9435,0.297 0.2683,0.21 0.4518,0.509 0.5165,0.843 h 2.43 c -0.1177,-0.935 -0.5875,-1.791 -1.3138,-2.393 -0.7264,-0.602 -1.6547,-0.905 -2.5962,-0.846 -0.5353,-0.019 -1.0685,0.076 -1.5647,0.277 -0.4963,0.202 -0.9445,0.506 -1.3153,0.892 -1.05,1 -1.05,2.47 -1.05,4 v 0.36 c 0,1.5 0,2.92 1.05,4 0.3708,0.387 0.819,0.691 1.3153,0.893 0.4962,0.201 1.0294,0.296 1.5647,0.277 0.9415,0.059 1.8698,-0.244 2.5962,-0.846 0.7263,-0.602 1.1961,-1.458 1.3138,-2.394 z"
         fill="#e3211b"
         id="path26883" /><path
         d="m 92.8793,156.22 h -3.97 v -2.04 h 4.64 v -2.1 h -7.02 v 10.46 h 7.02 v -2.1 h -4.64 v -2.13 h 3.97 z"
         fill="#e3211b"
         id="path26885" /><path
         d="m 112.191,157.771 v -0.91 c 0,-1.49 0,-2.66 -1.08,-3.76 -0.378,-0.343 -0.82,-0.608 -1.3,-0.78 -0.481,-0.171 -0.991,-0.246 -1.5,-0.22 h -3.84 v 10.45 h 3.84 c 0.51,0.028 1.02,-0.046 1.501,-0.217 0.481,-0.172 0.922,-0.438 1.299,-0.783 1.1,-1.12 1.09,-2.3 1.08,-3.78 z m -2.69,2 c -0.149,0.222 -0.355,0.4 -0.595,0.516 -0.241,0.116 -0.509,0.166 -0.775,0.144 h -1.28 v -6.27 h 1.26 c 0.266,-0.022 0.534,0.027 0.775,0.143 0.24,0.116 0.446,0.295 0.595,0.517 0.24,0.34 0.3,0.71 0.3,2.47 0,1.76 -0.05,2.18 -0.28,2.5 z"
         fill="#e3211b"
         id="path26887" /><path
         d="m 122.561,156.22 h -3.97 v -2.04 h 4.65 v -2.09 h -7.03 v 10.45 h 7.03 v -2.09 h -4.65 v -2.13 h 3.97 z"
         fill="#e3211b"
         id="path26889" /><path
         d="m 134.16,162.54 h 6.87 v -2.1 h -4.49 v -8.36 h -2.38 z"
         fill="#e3211b"
         id="path26891" /><path
         d="m 150.321,162.539 h 2.48 l -3.81,-10.43 h -1.88 l -3.8,10.46 h 2.48 l 0.53,-1.6 h 3.47 z m -3.32,-3.54 1.11,-3.39 1.07,3.39 z"
         fill="#e3211b"
         id="path26893" /><path
         d="m 32.9204,171.219 h 2.64 v -2.1 h -7.66 v 2.1 h 2.64 v 8.36 h 2.38 z"
         fill="#e3211b"
         id="path26895" /><path
         d="m 47.7495,175.111 c 0.5015,-0.248 0.9237,-0.632 1.2188,-1.107 0.2951,-0.475 0.4514,-1.024 0.4512,-1.583 10e-4,-0.454 -0.0913,-0.903 -0.2712,-1.32 -0.18,-0.416 -0.4436,-0.792 -0.7747,-1.102 -0.331,-0.31 -0.7224,-0.549 -1.1497,-0.702 -0.4274,-0.153 -0.8815,-0.216 -1.3344,-0.186 h -4.12 v 10.46 h 2.39 v -4 h 1.09 l 1.9,4 h 2.77 l -2.29,-4.4 z m -2,-1.48 h -1.59 v -2.42 h 1.61 c 0.3209,0 0.6287,0.127 0.8556,0.354 0.2269,0.227 0.3544,0.535 0.3544,0.856 0,0.321 -0.1275,0.629 -0.3544,0.855 -0.2269,0.227 -0.5347,0.355 -0.8556,0.355 z"
         fill="#e3211b"
         id="path26897" /><path
         d="m 58.7905,169.109 -3.81,10.46 h 2.49 l 0.53,-1.6 h 3.48 l 0.49,1.6 h 2.49 l -3.81,-10.46 z m -0.14,6.92 1.14,-3.39 1.07,3.39 z"
         fill="#e3211b"
         id="path26899" /><path
         d="m 72.6595,179.579 v -5.69 l 3.62,5.69 h 2.11 v -10.46 h -2.38 v 5.69 l -3.63,-5.69 h -2.11 v 10.46 z"
         fill="#e3211b"
         id="path26901" /><path
         d="m 89.3808,173.321 -1.27,-0.21 c -0.3016,-0.023 -0.5868,-0.146 -0.81,-0.35 -0.1545,-0.158 -0.2438,-0.369 -0.25,-0.59 0,-0.54 0.45,-1.12 1.42,-1.12 h 0.09 c 0.6966,-0.058 1.3892,0.149 1.94,0.58 l 1.49,-1.47 c -0.4673,-0.413 -1.0122,-0.728 -1.603,-0.927 -0.5907,-0.2 -1.2153,-0.279 -1.837,-0.233 -2.27,0 -3.79,1.31 -3.79,3.26 -0.0461,0.752 0.2053,1.492 0.7,2.06 0.5717,0.528 1.3042,0.848 2.08,0.91 l 1.3,0.18 c 0.2865,0.024 0.5587,0.136 0.78,0.32 0.1715,0.199 0.2577,0.458 0.24,0.72 0,0.5 -0.28,1.09 -1.66,1.09 -0.8519,0.035 -1.6916,-0.211 -2.39,-0.7 l -1.51,1.51 c 0.5252,0.47 1.1416,0.827 1.8108,1.049 0.6693,0.222 1.377,0.304 2.0792,0.241 2,0 4,-1 4,-3.24 0.0345,-0.409 -0.0151,-0.82 -0.1459,-1.209 -0.1307,-0.389 -0.3397,-0.746 -0.6141,-1.051 -0.5762,-0.489 -1.2958,-0.777 -2.05,-0.82 z"
         fill="#e3211b"
         id="path26903" /><path
         d="m 100.97,169.119 h -2.3802 v 10.45 h 2.3802 z"
         fill="#e3211b"
         id="path26905" /><path
         d="m 112.209,171.219 h 2.63 v -2.1 h -7.65 v 2.1 h 2.64 v 8.36 h 2.38 z"
         fill="#e3211b"
         id="path26907" /><path
         d="m 123.441,169.119 h -2.38 v 10.45 h 2.38 z"
         fill="#e3211b"
         id="path26909" /><path
         d="m 137.85,174.171 c 0,-1.5 0,-2.92 -1.05,-4 -0.78,-0.751 -1.822,-1.171 -2.905,-1.171 -1.083,0 -2.124,0.42 -2.905,1.171 -1,1 -1,2.47 -1,4 v 0.36 c 0,1.5 0,2.92 1,4 0.781,0.751 1.822,1.17 2.905,1.17 1.083,0 2.125,-0.419 2.905,-1.17 1.05,-1 1.05,-2.47 1.05,-4 z m -2.8,2.87 c -0.142,0.166 -0.32,0.3 -0.519,0.392 -0.199,0.092 -0.416,0.139 -0.636,0.139 -0.219,0 -0.436,-0.047 -0.636,-0.139 -0.199,-0.092 -0.376,-0.226 -0.519,-0.392 -0.26,-0.34 -0.42,-0.69 -0.42,-2.69 0,-2 0.17,-2.38 0.42,-2.71 0.146,-0.162 0.325,-0.29 0.524,-0.378 0.199,-0.088 0.414,-0.134 0.631,-0.134 0.218,0 0.433,0.046 0.632,0.134 0.199,0.088 0.377,0.216 0.523,0.378 0.25,0.33 0.42,0.7 0.42,2.71 0,2.01 -0.16,2.35 -0.42,2.69 z"
         fill="#e3211b"
         id="path26911" /><path
         d="m 150.08,169.119 v 5.69 l -3.62,-5.69 h -2.11 v 10.46 h 2.38 v -5.69 l 3.63,5.69 h 2.11 v -10.46 z"
         fill="#e3211b"
         id="path26913" /><path
         d="m 34.2902,190.3 h -3.99 v -2.05 h 4.67 v -2.1 h -7.06 v 10.49 h 7.06 v -2.1 h -4.67 v -2.14 h 3.99 z"
         fill="#e3211b"
         id="path26915" /><path
         d="m 31.9006,184.841 1.62,-2.46 h -2.21 l -0.67,2.46 z"
         fill="#e3211b"
         id="path26917" /><path
         d="m 46.3195,189.31 h 2.44 c -0.1316,-0.928 -0.608,-1.773 -1.3344,-2.366 -0.7265,-0.593 -1.6496,-0.891 -2.5856,-0.834 -0.5384,-0.018 -1.0746,0.076 -1.5742,0.278 -0.4995,0.201 -0.9512,0.505 -1.3258,0.892 -1,1 -1,2.48 -1,4 v 0.35 c 0,1.51 0,2.94 1,4 0.3746,0.387 0.8263,0.692 1.3258,0.893 0.4996,0.202 1.0358,0.296 1.5742,0.277 0.9435,0.056 1.8731,-0.248 2.6008,-0.852 0.7277,-0.603 1.1992,-1.46 1.3192,-2.398 h -2.44 c -0.0648,0.337 -0.2493,0.639 -0.5196,0.851 -0.2702,0.211 -0.6078,0.318 -0.9504,0.299 -0.2157,0.01 -0.4306,-0.03 -0.6282,-0.117 -0.1977,-0.087 -0.3728,-0.218 -0.5118,-0.383 -0.25,-0.34 -0.43,-0.73 -0.43,-2.73 0,-2 0.18,-2.4 0.43,-2.74 0.1405,-0.163 0.3158,-0.293 0.5131,-0.379 0.1973,-0.087 0.4115,-0.128 0.6269,-0.121 0.3328,-0.021 0.6625,0.076 0.9313,0.273 0.2688,0.198 0.4595,0.483 0.5387,0.807 z"
         fill="#e3211b"
         id="path26919" /><path
         d="m 58.1906,186.11 c -0.5404,-0.024 -1.0798,0.068 -1.5817,0.27 -0.5019,0.202 -0.9548,0.509 -1.3283,0.9 -1.06,1 -1.06,2.48 -1,4 v 0.35 c 0,1.51 0,2.94 1,4 0.7823,0.752 1.8251,1.172 2.91,1.172 1.0849,0 2.1277,-0.42 2.91,-1.172 v 0 c 1.06,-1 1.05,-2.47 1.05,-4 v -0.37 c 0,-1.5 0,-2.93 -1.05,-4 -0.3752,-0.388 -0.8289,-0.691 -1.3308,-0.889 -0.5018,-0.199 -1.0402,-0.287 -1.5792,-0.261 z m 1.16,8 c -0.1436,0.167 -0.3216,0.301 -0.5218,0.393 -0.2002,0.092 -0.4179,0.139 -0.6382,0.139 -0.2203,0 -0.4379,-0.047 -0.6381,-0.139 -0.2003,-0.092 -0.3783,-0.226 -0.5219,-0.393 -0.26,-0.34 -0.41,-0.69 -0.41,-2.7 0,-2.01 0.15,-2.38 0.41,-2.72 0.1454,-0.164 0.324,-0.295 0.524,-0.385 0.2,-0.09 0.4167,-0.137 0.636,-0.137 0.2193,0 0.4361,0.047 0.636,0.137 0.2,0.09 0.3786,0.221 0.524,0.385 0.26,0.34 0.41,0.69 0.41,2.72 0,2.03 -0.15,2.35 -0.41,2.7 z"
         fill="#e3211b"
         id="path26921" /><path
         d="m 68.3809,196.64 h 6.9 v -2.1 h -4.51 v -8.39 h -2.39 z"
         fill="#e3211b"
         id="path26923" /><path
         d="m 84.4393,186.111 c -0.5402,-0.022 -1.079,0.071 -1.5806,0.272 -0.5017,0.202 -0.9548,0.508 -1.3294,0.898 -1,1 -1,2.48 -1,4 v 0.35 c 0,1.51 0,2.94 1,4 0.7851,0.75 1.8292,1.168 2.915,1.168 1.0858,0 2.1299,-0.418 2.915,-1.168 v 0 c 1,-1 1,-2.48 1,-4 v -0.35 c 0,-1.51 0,-2.94 -1,-4 -0.3761,-0.391 -0.831,-0.697 -1.3343,-0.899 -0.5034,-0.202 -1.0439,-0.294 -1.5857,-0.271 z m 1.16,8 c -0.1427,0.167 -0.3198,0.301 -0.5192,0.392 -0.1994,0.092 -0.4163,0.14 -0.6358,0.14 -0.2195,0 -0.4364,-0.048 -0.6358,-0.14 -0.1994,-0.091 -0.3765,-0.225 -0.5192,-0.392 -0.26,-0.34 -0.42,-0.7 -0.42,-2.7 0,-2 0.16,-2.39 0.42,-2.72 0.1396,-0.168 0.3157,-0.303 0.515,-0.393 0.1992,-0.09 0.4164,-0.134 0.635,-0.127 0.22,-0.007 0.4387,0.037 0.6396,0.127 0.2008,0.09 0.3788,0.224 0.5204,0.393 0.26,0.34 0.42,0.69 0.42,2.72 0,2.03 -0.16,2.35 -0.42,2.7 z"
         fill="#e3211b"
         id="path26925" /><path
         d="m 99.8693,189.371 h 2.4097 c -0.145,-0.738 -0.487,-1.422 -0.991,-1.98 -0.503,-0.558 -1.149,-0.968 -1.8674,-1.188 -0.7187,-0.22 -1.4835,-0.24 -2.2129,-0.059 -0.7293,0.181 -1.3958,0.556 -1.9284,1.087 -1,1 -1,2.48 -1,4 v 0.35 c 0,1.51 0,2.94 1,4 0.8057,0.752 1.8673,1.171 2.97,1.171 1.1027,0 2.1647,-0.419 2.9697,-1.171 v 0 c 0.76,-0.78 1,-1.72 1,-3.48 v -1.39 h -3.9997 v 2 h 1.58 v 0.28 c 0.0203,0.228 -0.0102,0.459 -0.0892,0.674 -0.0791,0.216 -0.2048,0.411 -0.3681,0.573 -0.1634,0.161 -0.3603,0.285 -0.5769,0.361 -0.2165,0.077 -0.4473,0.105 -0.6758,0.082 -0.1939,-0.022 -0.3811,-0.085 -0.5498,-0.183 -0.1687,-0.098 -0.3152,-0.23 -0.4302,-0.387 -0.25,-0.33 -0.42,-0.7 -0.42,-2.73 0,-2.03 0.17,-2.39 0.42,-2.72 0.1376,-0.169 0.3119,-0.303 0.5095,-0.393 0.1977,-0.09 0.4134,-0.134 0.6305,-0.127 0.3756,-0.039 0.7518,0.067 1.0525,0.295 0.3007,0.228 0.5036,0.562 0.5675,0.935 z"
         fill="#e3211b"
         id="path26927" /><path
         d="m 110.929,186.15 h -2.39 v 10.49 h 2.39 z"
         fill="#e3211b"
         id="path26929" /><path
         d="m 124.491,195 c 0.514,-1.065 0.718,-2.254 0.59,-3.43 v -0.35 c 0,-1.51 0,-2.94 -1.05,-4 -0.782,-0.751 -1.825,-1.171 -2.91,-1.171 -1.085,0 -2.128,0.42 -2.91,1.171 -1,1 -1,2.48 -1,4 v 0.35 c 0,1.51 0,2.94 1,4 0.375,0.39 0.828,0.696 1.329,0.898 0.502,0.201 1.041,0.294 1.581,0.272 0.697,0.017 1.387,-0.148 2,-0.48 h 0.08 l 0.81,0.81 1.17,-1.16 -0.77,-0.77 z m -1.86,-2 v 0.27 l -0.61,-0.62 -1.17,1.17 0.76,0.76 h -0.23 c -0.08,0.01 -0.16,0.01 -0.24,0 -0.219,0.004 -0.436,-0.042 -0.636,-0.134 -0.199,-0.091 -0.374,-0.227 -0.514,-0.396 -0.26,-0.34 -0.42,-0.7 -0.42,-2.7 0,-2 0.16,-2.39 0.42,-2.72 0.14,-0.168 0.316,-0.302 0.515,-0.392 0.199,-0.09 0.416,-0.134 0.635,-0.128 0.22,-0.006 0.439,0.037 0.64,0.127 0.2,0.09 0.378,0.225 0.52,0.393 0.25,0.33 0.41,0.7 0.41,2.72 -0.02,0.82 -0.05,1.33 -0.08,1.64 z"
         fill="#e3211b"
         id="path26931" /><path
         d="m 133.519,192.939 v -6.83 h -2.41 v 6.85 c 0.15,0.94 0.63,1.796 1.354,2.413 0.724,0.618 1.645,0.957 2.596,0.957 0.952,0 1.872,-0.339 2.596,-0.957 0.724,-0.617 1.204,-1.473 1.354,-2.413 v -6.85 h -2.39 v 6.79 c 0.025,0.219 0.002,0.44 -0.067,0.649 -0.069,0.209 -0.182,0.4 -0.333,0.561 -0.15,0.161 -0.333,0.287 -0.537,0.37 -0.204,0.083 -0.423,0.12 -0.643,0.11 -0.212,0.004 -0.422,-0.037 -0.617,-0.12 -0.195,-0.083 -0.37,-0.207 -0.513,-0.363 -0.144,-0.156 -0.253,-0.341 -0.32,-0.542 -0.067,-0.201 -0.091,-0.414 -0.07,-0.625 z"
         fill="#e3211b"
         id="path26933" /><path
         d="m 151.79,190.3 h -3.98 v -2.05 h 4.66 v -2.1 h -7.05 v 10.49 h 7.05 v -2.1 h -4.66 v -2.14 h 3.98 z"
         fill="#e3211b"
         id="path26935" /></g><g
       style="fill:none"
       id="g27021"
       transform="matrix(1.3635839,0,0,1.3635839,248,12.274018)"><path
         d="M 10.2938,-9.46045e-4 C 4.61678,-9.46045e-4 0,4.62843 0,10.3209 v 27.3582 c 0,5.6906 4.61678,10.3218 10.2938,10.3218 h 27.2837 c 5.6751,0 10.2938,-4.6293 10.2938,-10.3218 V 10.3209 C 47.8713,4.6303 43.2545,-9.46045e-4 37.5775,-9.46045e-4 Z M 2.99184,10.3209 c 0,-4.04247 3.26858,-7.32185 7.30196,-7.32185 h 4.0315 c 0.6675,0 1.2416,0.46688 1.3856,1.11938 0.7031,3.2025 -0.245,6.62997 -2.6179,9.00747 -2.3729,2.3794 -5.78918,3.33 -8.98296,2.625 -0.65073,-0.1443 -1.11633,-0.72 -1.11633,-1.3875 V 10.3209 Z M 28.0391,44.9991 H 10.2938 c -4.03151,0 -7.30196,-3.2775 -7.30196,-7.3219 V 19.8816 c 0,-0.6544 0.57966,-1.1644 1.22478,-1.0613 0.65633,0.105 1.31641,0.1575 1.97648,0.1575 1.3669,0 2.72631,-0.2194 4.0222,-0.6506 0.488,-0.1613 0.9461,0.3094 0.7666,0.7912 -1.84745,4.9388 -0.7928,10.7194 3.1676,14.6907 3.9623,3.9731 9.7254,5.0287 14.6507,3.1762 0.4824,-0.1819 0.9517,0.2831 0.7891,0.7744 -0.6321,1.9219 -0.8078,3.9825 -0.4918,6 0.101,0.6506 -0.4002,1.2375 -1.0584,1.2375 z m 16.8384,-7.3219 c 0,4.0425 -3.2685,7.3219 -7.3019,7.3219 h -4.0315 c -0.6676,0 -1.2416,-0.4669 -1.3856,-1.1194 -0.7031,-3.2025 0.245,-6.63 2.6179,-9.0075 2.3729,-2.3794 5.7892,-3.33 8.9829,-2.625 0.6508,0.1444 1.1164,0.72 1.1164,1.3875 v 4.0425 z m 0,-9.5625 c 0,0.6581 -0.5852,1.1625 -1.2341,1.0612 -2.012,-0.315 -4.067,-0.1406 -5.9837,0.4932 -0.4899,0.1612 -0.9517,-0.3075 -0.7722,-0.7913 1.8474,-4.9369 0.7928,-10.7175 -3.1676,-14.6906 -3.9623,-3.9731 -9.7254,-5.02877 -14.6507,-3.1763 -0.4824,0.1819 -0.9518,-0.2831 -0.7891,-0.7743 0.632,-1.92192 0.8078,-3.98255 0.4918,-6.00005 -0.101,-0.65062 0.4002,-1.2375 1.0584,-1.2375 h 17.7472 c 4.0315,0 7.3019,3.2775 7.3019,7.32185 v 17.7957 z"
         fill="#26827c"
         id="path26985" /><path
         d="m 56.7323,6.24655 h 3.5939 V 20.4216 h -3.5939 z"
         fill="#26827c"
         id="path26987" /><path
         d="m 63.5986,10.2159 h 3.2106 v 0.5269 c 0.6058,-0.5269 1.4136,-0.93187 2.5038,-0.93187 1.1911,0 2.242,0.48567 2.9282,1.47747 0.6657,-0.7893 1.5951,-1.47747 3.2723,-1.47747 2.0401,0 3.7361,1.45877 3.7361,4.41377 v 6.1969 h -3.2312 v -6.0544 c 0,-0.9113 -0.4637,-1.5394 -1.3725,-1.5394 -1.0303,0 -1.4342,0.8906 -1.595,1.155 v 6.4388 h -3.2312 v -6.0544 c 0,-0.9113 -0.4637,-1.5394 -1.3725,-1.5394 -1.0097,0 -1.4136,0.8906 -1.6361,1.2356 v 6.3582 H 63.6004 V 10.2159 Z"
         fill="#26827c"
         id="path26989" /><path
         d="m 81.774,10.2159 h 3.2106 v 0.5663 c 0.6862,-0.6281 1.5744,-0.97127 2.8273,-0.97127 3.2517,0 5.1291,2.53127 5.1291,5.50877 0,2.9775 -1.8774,5.5087 -5.1291,5.5087 -1.2529,0 -2.1411,-0.345 -2.8273,-0.9712 v 5.5481 H 81.774 Z m 3.2106,3.8269 v 2.5519 c 0.6058,0.7894 1.3538,1.215 2.3635,1.215 1.4137,0 2.2832,-0.9919 2.2832,-2.49 0,-1.4981 -0.8677,-2.49 -2.2832,-2.49 -1.0303,0 -1.7969,0.4462 -2.3635,1.215 z"
         fill="#26827c"
         id="path26991" /><path
         d="m 94.0929,17.5472 c 0,-1.56 1.1911,-2.7544 3.4125,-3.1181 l 2.8686,-0.4857 c -0.021,-0.7687 -0.6864,-1.3575 -1.6363,-1.3575 -0.849,0 -1.4735,0.405 -1.9391,1.0725 l -2.343,-1.7812 c 0.9294,-1.2956 2.4832,-2.06627 4.3831,-2.06627 3.2313,0 4.7253,1.94437 4.7253,4.17187 v 6.4388 h -3.19 v -0.7688 c -0.5649,0.6281 -1.7167,1.0725 -2.7863,1.0725 -2.0606,0 -3.493,-1.1944 -3.493,-3.18 z m 4.1997,0.6881 c 1.0304,0 1.6755,-0.4856 2.0794,-1.0931 v -1.0125 l -1.9989,0.345 c -0.8284,0.1425 -1.1108,0.4462 -1.1108,0.9112 0,0.5269 0.4039,0.8513 1.0303,0.8513 z"
         fill="#26827c"
         id="path26993" /><path
         d="m 112.975,16.8778 2.504,1.9031 c -0.95,1.2563 -2.465,2.0457 -4.342,2.0457 -3.594,0 -5.655,-2.5313 -5.655,-5.5088 0,-2.9775 2.061,-5.50875 5.655,-5.50875 1.877,0 3.392,0.78935 4.342,2.04565 l -2.504,1.9031 c -0.363,-0.5269 -0.989,-0.9319 -1.877,-0.9319 -1.313,0 -2.282,0.9919 -2.282,2.49 0,1.4982 0.969,2.49 2.343,2.49 0.808,0 1.455,-0.405 1.818,-0.9318 z"
         fill="#26827c"
         id="path26995" /><path
         d="m 117.962,13.0903 h -1.898 v -2.8762 h 1.898 V 7.66218 h 3.231 v 2.55192 h 2.786 v 2.8762 h -2.786 v 3.3619 c 0,0.81 0.425,1.2562 1.272,1.2562 0.748,0 1.232,-0.1012 1.535,-0.2231 v 2.775 c -0.546,0.2438 -1.171,0.3638 -2.12,0.3638 -2.768,0 -3.918,-1.6613 -3.918,-4.1719 z"
         fill="#26827c"
         id="path26997" /><path
         d="m 66.1846,36.7097 2.8479,2.1675 c -1.3127,1.7419 -3.4126,2.8762 -5.9986,2.8762 -4.5028,0 -7.5731,-3.4425 -7.5731,-7.4925 0,-4.05 3.0703,-7.4925 7.5731,-7.4925 2.5842,0 4.6859,1.1344 5.9986,2.8557 l -2.8479,2.1862 c -0.6656,-0.9712 -1.7371,-1.6612 -3.1507,-1.6612 -2.2626,0 -3.8782,1.7418 -3.8782,4.11 0,2.3681 1.6156,4.11 3.8782,4.11 1.393,0 2.4832,-0.6882 3.1507,-1.6613 z"
         fill="#26827c"
         id="path26999" /><path
         d="m 85.2688,34.2591 c 0,4.05 -3.0704,7.4925 -7.5525,7.4925 -4.4822,0 -7.5731,-3.4425 -7.5731,-7.4925 0,-4.05 3.0704,-7.4925 7.5731,-7.4925 4.5027,0 7.5525,3.4425 7.5525,7.4925 z m -3.6949,0 c 0,-2.3888 -1.6156,-4.11 -3.8576,-4.11 -2.242,0 -3.8782,1.7418 -3.8782,4.11 0,2.3681 1.6156,4.11 3.8782,4.11 2.2626,0 3.8576,-1.7419 3.8576,-4.11 z"
         fill="#26827c"
         id="path27001" /><path
         d="m 87.0639,42.3291 3.1788,-3.0544 c 0.4488,-0.4238 0.8714,-0.9131 0.8714,-1.5075 0,-0.5944 -0.4095,-0.9656 -0.9761,-0.9656 -0.8171,0 -1.279,0.5681 -1.7408,1.335 l -1.7933,-1.1119 c 0.8041,-1.3219 2.0176,-2.2088 3.7585,-2.2088 1.7409,0 3.0068,1.0575 3.0068,2.7113 0,1.2694 -0.8433,2.2612 -1.5969,2.9625 l -1.9653,1.8375 h 3.7997 v 2.01 h -6.5428 v -2.01 z"
         fill="#26827c"
         id="path27003" /></g></g></svg>
