<svg class="Logo_logo__IRjwg Logo_small__2z9NO" width="57" height="50" viewBox="0 0 57 50" fill="none" xmlns="http://www.w3.org/2000/svg"><path class="Logo_black__yi7Cl" d="M0.0358429 13.215H2.06009C3.50599 13.215 4.40967 13.9753 4.40967 15.2063C4.40967 16.0029 4.01205 16.5822 3.3614 16.908L5.45795 19.8407H3.86746L2.06009 17.1614H1.37329V19.8407H0.0358429V13.215ZM1.37329 14.3736V16.0391H2.13239C2.71075 16.0391 3.03607 15.7494 3.03607 15.2063C3.03607 14.6995 2.71075 14.4098 2.13239 14.4098L1.37329 14.3736Z"></path><path class="Logo_black__yi7Cl" d="M6.25327 13.2149H10.121V14.3735H7.59072V15.8941H9.72341V17.0527H7.59072V18.7182H10.121V19.8767H6.25327V13.2149ZM7.55457 12.6356L8.63899 11.3684H10.0126L8.78358 12.6356H7.55457Z"></path><path class="Logo_black__yi7Cl" d="M11.6758 13.215H13.8447C15.2906 13.215 16.1943 13.9753 16.1943 15.2063C16.1943 16.4373 15.2906 17.1614 13.8447 17.1614H13.0133V19.8407H11.6758V13.215ZM13.0133 14.3736V16.0391H13.917C14.4953 16.0391 14.8207 15.7494 14.8207 15.2063C14.8207 14.6995 14.4953 14.4098 13.917 14.4098L13.0133 14.3736Z"></path><path class="Logo_black__yi7Cl" d="M21.2184 13.215H22.5558V17.2339C22.5558 18.9717 21.5437 20.0217 19.8809 20.0217C18.2182 20.0217 17.206 18.9717 17.206 17.2339V13.215H18.5435V17.3787C18.5435 18.2838 19.0495 18.7907 19.8809 18.7907C20.7123 18.7907 21.2184 18.2838 21.2184 17.3787V13.215Z"></path><path class="Logo_black__yi7Cl" d="M24.2192 13.215H26.0988C27.4724 13.215 28.3038 13.9029 28.3038 15.0253C28.3038 15.5684 28.0508 16.0029 27.617 16.3287C28.3038 16.6546 28.7014 17.1976 28.7014 17.8856C28.7014 19.0803 27.7616 19.8407 26.2434 19.8407H24.2192V13.215ZM25.5928 14.3736V15.8218H26.1711C26.6772 15.8218 26.9664 15.5684 26.9664 15.0977C26.9664 14.6633 26.6772 14.3736 26.1711 14.3736H25.5928ZM25.5928 16.9804V18.7183H26.3519C26.9664 18.7183 27.364 18.3924 27.364 17.8494C27.364 17.3063 27.0025 16.9804 26.3519 16.9804H25.5928Z"></path><path class="Logo_black__yi7Cl" d="M33.9421 19.8407H30.0743V13.215H31.4118V18.6097H33.9421V19.8407Z"></path><path class="Logo_black__yi7Cl" d="M36.4721 13.215H35.1347V19.8407H36.4721V13.215Z"></path><path class="Logo_black__yi7Cl" d="M45.2563 20.3115C45.4009 20.3115 45.5816 20.2753 45.7262 20.2391V21.3614C45.5093 21.4338 45.3286 21.47 45.0394 21.47C44.3165 21.47 43.6297 21.1804 42.979 20.6011L42.1838 19.9132C41.8946 19.9856 41.6054 20.0218 41.2801 20.0218C39.1836 20.0218 37.7738 18.4288 37.7738 16.5099C37.7738 14.6272 39.2197 12.9979 41.2801 12.9979C43.3766 12.9979 44.7864 14.591 44.7864 16.5099C44.7864 17.6322 44.2803 18.646 43.4851 19.2615L43.8827 19.6236C44.3888 20.1304 44.8587 20.3115 45.2563 20.3115ZM43.4128 16.5461C43.4128 15.2789 42.5091 14.3013 41.2801 14.3013C40.0149 14.3013 39.1474 15.2789 39.1474 16.5461C39.1474 17.8133 40.0511 18.7908 41.2801 18.7908C42.5091 18.7908 43.4128 17.8133 43.4128 16.5461Z"></path><path class="Logo_black__yi7Cl" d="M49.9922 13.215H51.3297V17.2339C51.3297 18.9717 50.3176 20.0217 48.6548 20.0217C46.992 20.0217 45.9799 18.9717 45.9799 17.2339V13.215H47.3173V17.3787C47.3173 18.2838 47.8234 18.7907 48.6548 18.7907C49.4862 18.7907 49.9922 18.2838 49.9922 17.3787V13.215Z"></path><path class="Logo_black__yi7Cl" d="M54.33 15.8942H56.4627V17.0528H54.33V18.6821H56.8603V19.8407H52.9926V13.215H56.8603V14.3736H54.33V15.8942Z"></path><path class="Logo_black__yi7Cl" d="M1.3733 25.4525H3.50599V26.6111H1.3733V29.399H0.0358429V22.7733H3.90361V23.9319H1.3733V25.4525Z"></path><path class="Logo_black__yi7Cl" d="M5.05986 22.7733H7.08411C8.53001 22.7733 9.43369 23.5336 9.43369 24.7646C9.43369 25.5612 9.03607 26.1404 8.38542 26.4663L10.482 29.399H8.89148L7.12026 26.7197H6.39731V29.399H5.05986V22.7733ZM6.39731 23.9319V25.5974H7.15641C7.73476 25.5974 8.06009 25.3077 8.06009 24.7646C8.06009 24.2577 7.73476 23.9681 7.15641 23.9681L6.39731 23.9319Z"></path><path class="Logo_black__yi7Cl" d="M13.2658 22.7733H15.037L17.5312 29.399H16.1214L15.4708 27.6611H12.832L12.1814 29.399H10.7716L13.2658 22.7733ZM15.037 26.5387L14.1333 24.0405L13.2297 26.5387H15.037Z"></path><path class="Logo_black__yi7Cl" d="M24.5804 22.7733V29.399H22.8453L19.8812 24.656V29.399H18.5438V22.7733H20.2788L23.2429 27.5163V22.7733H24.5804Z"></path><path class="Logo_black__yi7Cl" d="M31.1226 27.4441L32.1709 28.2406C31.6648 28.9285 30.8696 29.4354 29.8936 29.544L29.0622 30.9198H27.8694L28.7008 29.544C26.9657 29.2544 25.8451 27.7699 25.8451 26.1045C25.8451 24.2218 27.291 22.5925 29.3514 22.5925C30.5443 22.5925 31.5203 23.1356 32.1348 23.9321L31.0865 24.7649C30.725 24.2218 30.1105 23.8597 29.3514 23.8597C28.0863 23.8597 27.2187 24.8373 27.2187 26.1045C27.2187 27.3717 28.1224 28.3492 29.3514 28.3492C30.1467 28.3492 30.725 27.951 31.1226 27.4441Z"></path><path class="Logo_black__yi7Cl" d="M34.9546 22.7733H36.7259L39.22 29.399H37.7741L37.1235 27.6611H34.4847L33.8341 29.399H32.4243L34.9546 22.7733ZM36.762 26.5387L35.8583 24.0405L34.9546 26.5387H36.762Z"></path><path class="Logo_black__yi7Cl" d="M41.5697 22.7733H40.2323V29.399H41.5697V22.7733Z"></path><path class="Logo_black__yi7Cl" d="M43.8107 27.5889C44.2084 28.0958 44.7506 28.3854 45.2928 28.3854C45.835 28.3854 46.1603 28.0958 46.1603 27.6251C46.1603 26.4303 43.1239 26.72 43.1239 24.5114C43.1239 23.4615 43.9915 22.5925 45.2566 22.5925C46.2326 22.5925 47.0279 23.027 47.5701 23.7149L46.5941 24.5838C46.1965 24.077 45.7627 23.7511 45.2566 23.7511C44.7867 23.7511 44.4975 24.0408 44.4975 24.439C44.4975 25.6338 47.5339 25.3442 47.5339 27.5889C47.4978 28.8199 46.5579 29.5802 45.3289 29.5802C44.2084 29.5802 43.4493 29.182 42.8709 28.4578L43.8107 27.5889Z"></path><path class="Logo_black__yi7Cl" d="M50.2442 25.4525H52.3769V26.6111H50.2442V28.2766H52.7745V29.399H48.9067V22.7733H52.7745V23.9319H50.2442V25.4525Z"></path><path class="Logo_black__yi7Cl" d="M21.5797 47.719C21.7604 47.719 21.905 47.8638 21.8327 48.1897L21.0013 48.3707C21.1459 48.0086 21.3628 47.719 21.5797 47.719ZM22.0496 49.0586H21.8688C21.652 49.3121 21.4351 49.4931 21.2182 49.4931C21.0013 49.4931 20.8567 49.3483 20.8567 49.0586C20.8567 48.95 20.8567 48.8052 20.8929 48.6966L22.2303 48.2621C22.4833 47.6466 22.1942 47.3569 21.7965 47.3569C21.1459 47.3569 20.423 48.4069 20.423 49.3483C20.423 49.7827 20.6398 50 20.929 50C21.3266 50 21.7243 49.6379 22.0496 49.0586ZM21.7604 47.1035L22.7002 46.2346V46.126H22.1942L21.6158 47.1035H21.7604ZM18.8686 47.719H19.3024L18.5794 49.6741C18.5071 49.8551 18.6156 50 18.7602 50C19.1578 50 19.8084 49.6017 20.0253 49.0586H19.9169C19.7362 49.2396 19.3747 49.4931 19.0855 49.5655L19.7362 47.7552H20.3868L20.4591 47.4656H19.8084L20.0615 46.7777H19.8084L19.3385 47.4656L18.7963 47.538V47.719H18.8686ZM18.2541 47.6466C18.2903 47.4656 18.1818 47.3569 18.1095 47.3569C17.7119 47.3569 17.2781 47.719 17.0612 48.1897H17.1697C17.2781 48.0086 17.495 47.8276 17.7119 47.7914L16.9528 49.7103C16.8805 49.8913 17.0251 50 17.0974 50C17.4589 50 17.8926 49.6379 18.0734 49.1672H17.9649C17.8565 49.3483 17.6396 49.5293 17.4227 49.5655L18.2541 47.6466ZM18.3987 46.669C18.5794 46.669 18.724 46.5242 18.724 46.3432C18.724 46.1622 18.5794 46.0173 18.3987 46.0173C18.218 46.0173 18.0734 46.1622 18.0734 46.3432C18.0734 46.5242 18.218 46.669 18.3987 46.669ZM14.1333 49.6379C14.0249 49.8551 14.1333 50 14.3502 50C14.4948 50 14.5309 49.9637 14.6032 49.8189L15.1093 48.4431C15.3623 48.1535 15.8322 47.8276 16.0491 47.8276C16.1937 47.8276 16.1576 47.9362 16.0853 48.1173L15.29 49.6379C15.2177 49.7827 15.3262 49.9638 15.4708 49.9638C15.8684 49.9638 16.3383 49.6017 16.519 49.131H16.4106C16.3022 49.312 16.0853 49.4931 15.8684 49.5293L16.5552 48.1535C16.6275 47.9724 16.6998 47.8276 16.6998 47.6828C16.6998 47.4656 16.5913 47.3207 16.3383 47.3207C16.013 47.3207 15.6515 47.6828 15.2539 48.1535V47.7914C15.2539 47.538 15.1816 47.3207 14.9286 47.3207C14.784 47.3207 14.6394 47.4294 14.4948 47.6104V47.6466C14.7478 47.6466 14.8563 48.0086 14.6755 48.4069L14.1333 49.6379ZM14.0972 47.9362C14.2056 47.6104 14.1333 47.3569 13.8803 47.3569C13.5911 47.3569 13.5188 47.5742 13.2296 48.1897V47.8276C13.2296 47.5742 13.1573 47.3569 12.9043 47.3569C12.6151 47.3569 12.3982 47.7914 12.1814 48.1897H12.2898C12.4344 48.0086 12.5428 47.9 12.6513 47.9C12.7597 47.9 12.832 48.0811 12.6513 48.4793L12.1091 49.6379C12.0006 49.8551 12.1091 50 12.3259 50C12.4705 50 12.5067 49.9637 12.579 49.8189L13.085 48.4431C13.2296 48.2621 13.3742 48.1173 13.5188 47.9362H14.0972ZM11.1331 47.719C11.3138 47.719 11.4584 47.8638 11.3861 48.1897L10.5547 48.3707C10.6993 48.0086 10.9523 47.719 11.1331 47.719ZM11.603 49.0586H11.4223C11.2054 49.3121 10.9885 49.4931 10.7716 49.4931C10.5547 49.4931 10.4101 49.3483 10.4101 49.0586C10.4101 48.95 10.4101 48.8052 10.4463 48.6966L11.7837 48.2621C12.0368 47.6466 11.7476 47.3569 11.35 47.3569C10.6993 47.3569 9.97637 48.4069 9.97637 49.3483C9.97637 49.7827 10.1932 50 10.4824 50C10.9162 50 11.2777 49.6379 11.603 49.0586ZM8.42203 47.719H8.8558L8.13285 49.6741C8.06056 49.8551 8.169 50 8.31359 50C8.71121 50 9.36186 49.6017 9.57874 49.0586H9.4703C9.28957 49.2396 8.92809 49.4931 8.63891 49.5655L9.28957 47.7552H10.0125L10.0848 47.4656H9.43416L9.68719 46.7777H9.43416L8.96424 47.4656L8.42203 47.538V47.719ZM5.96401 49.2396C5.96401 48.6241 6.61466 47.8276 7.01228 47.8276C7.08458 47.8276 7.15687 47.8276 7.22917 47.8638L6.83155 48.9138C6.61466 49.2034 6.25319 49.5293 6.1086 49.5293C6.0363 49.4931 5.96401 49.4207 5.96401 49.2396ZM8.02441 47.2483H7.80752L7.59064 47.4656H7.55449C6.43392 47.4656 5.49409 48.6966 5.49409 49.6017C5.49409 49.8551 5.63868 50 5.89171 50C6.18089 50 6.47007 49.6017 6.75925 49.1672V49.312C6.7231 49.7465 6.86769 50 7.08458 50C7.37376 50 7.59064 49.5655 7.80752 49.1672H7.69908C7.55449 49.3483 7.44605 49.4569 7.33761 49.4569C7.22917 49.4569 7.15687 49.2758 7.33761 48.8776L8.02441 47.2483ZM5.63868 47.9362C5.74713 47.6104 5.67483 47.3569 5.4218 47.3569C5.13262 47.3569 5.06033 47.5742 4.77115 48.1897V47.8276C4.77115 47.5742 4.69885 47.3569 4.44582 47.3569C4.15664 47.3569 3.93976 47.7914 3.72287 48.1897H3.83132C3.97591 48.0086 4.08435 47.9 4.19279 47.9C4.30123 47.9 4.37353 48.0811 4.19279 48.4793L3.65058 49.6379C3.54214 49.8551 3.65058 50 3.86746 50C4.01205 50 4.0482 49.9637 4.12049 49.8189L4.62656 48.4431C4.77115 48.2621 4.91574 48.1173 5.06032 47.9362H5.63868ZM1.95165 49.8913L1.9878 49.7465C1.33715 49.6379 1.26485 49.6379 1.51788 48.9138L1.77092 48.1897H2.49386C2.81919 48.1897 2.81919 48.3345 2.78304 48.6603H2.96378L3.39755 47.5018H3.21681C3.07222 47.7914 2.92763 47.9724 2.56616 47.9724H1.87936L2.24083 46.9587C2.34927 46.6328 2.42157 46.5604 2.85534 46.5604H3.14452C3.57828 46.5604 3.65058 46.669 3.65058 47.1397H3.83132L3.9759 46.3432H1.301L1.26485 46.488C1.77092 46.5966 1.84321 46.6328 1.59018 47.3207L1.01182 48.9138C0.75879 49.5655 0.650348 49.6379 0.0719904 49.7465L0.0358429 49.8913H1.95165Z"></path><path class="Logo_black__yi7Cl" d="M15.0731 41.6366C15.2539 41.6366 15.3985 41.7815 15.3262 42.1073L14.4948 42.2883C14.6394 41.9263 14.8924 41.6366 15.0731 41.6366ZM15.5431 42.9762H15.3623C15.1454 43.2297 14.9286 43.4107 14.7117 43.4107C14.4948 43.4107 14.3502 43.2659 14.3502 42.9762C14.3502 42.8676 14.3502 42.7228 14.3863 42.6142L15.7238 42.1797C15.9768 41.5642 15.6876 41.2746 15.29 41.2746C14.6394 41.2746 13.9164 42.3245 13.9164 43.2659C13.9164 43.7004 14.1333 43.9176 14.4225 43.9176C14.8563 43.9176 15.2177 43.5555 15.5431 42.9762ZM15.2539 41.0211L16.1937 40.1522V40.0436H15.6876L15.1093 41.0211H15.2539ZM12.3621 41.6366H12.7959L12.0729 43.5917C12.0006 43.7728 12.1091 43.9176 12.2537 43.9176C12.6513 43.9176 13.3019 43.5193 13.5188 42.9762H13.4104C13.2296 43.1573 12.8682 43.4107 12.579 43.4831L13.2296 41.6728H13.8803L13.9526 41.3832H13.3019L13.555 40.6953H13.3019L12.832 41.3832L12.2898 41.4556V41.6366H12.3621ZM11.7476 41.5642C11.7837 41.3832 11.6753 41.2746 11.603 41.2746C11.2054 41.2746 10.7716 41.6366 10.5547 42.1073H10.6632C10.7716 41.9263 10.9885 41.7452 11.2054 41.709L10.4463 43.6279C10.374 43.809 10.5186 43.9176 10.5909 43.9176C10.9523 43.9176 11.3861 43.5555 11.5668 43.0849H11.4584C11.35 43.2659 11.1331 43.4469 10.9162 43.4831L11.7476 41.5642ZM11.8922 40.5867C12.0729 40.5867 12.2175 40.4418 12.2175 40.2608C12.2175 40.0798 12.0729 39.935 11.8922 39.935C11.7114 39.935 11.5668 40.0798 11.5668 40.2608C11.5668 40.4418 11.7114 40.5867 11.8922 40.5867ZM9.32571 43.4831L10.6632 39.935L10.627 39.8988L9.79563 40.0074V40.116L9.97637 40.2246C10.121 40.3332 10.0848 40.4418 9.94022 40.8039L8.89195 43.5917C8.81965 43.7366 8.92809 43.9176 9.07268 43.9176C9.4703 43.9176 9.86792 43.5555 10.0487 43.0849H9.94022C9.75948 43.2659 9.50645 43.4469 9.32571 43.4831ZM6.75925 43.1573C6.75925 42.5418 7.4099 41.7453 7.80753 41.7453C7.87982 41.7453 7.95211 41.7452 8.02441 41.7815L7.62679 42.8314C7.4099 43.1211 7.04843 43.4469 6.90384 43.4469C6.7954 43.4107 6.75925 43.3383 6.75925 43.1573ZM8.7835 41.166H8.56662L8.34974 41.3832H8.31359C7.19302 41.3832 6.25319 42.6142 6.25319 43.5193C6.25319 43.7728 6.39778 43.9176 6.65081 43.9176C6.93999 43.9176 7.22917 43.5193 7.51835 43.0849V43.2297C7.4822 43.6641 7.62679 43.9176 7.84367 43.9176C8.13285 43.9176 8.34974 43.4831 8.56662 43.0849H8.45818C8.31359 43.2659 8.20515 43.3745 8.0967 43.3745C7.98826 43.3745 7.91597 43.1935 8.0967 42.7952L8.7835 41.166ZM3.83132 44.3883C3.83132 44.1348 4.08435 43.9538 4.44582 43.8452C4.55426 43.9176 4.735 43.9538 4.95188 44.0624C5.31336 44.171 5.45795 44.2434 5.45795 44.3521C5.45795 44.6055 5.06033 44.7865 4.51812 44.7865C4.08435 44.7503 3.83132 44.6417 3.83132 44.3883ZM4.84344 42.8314C4.69885 42.8314 4.62656 42.6866 4.62656 42.5418C4.62656 42.1073 4.84344 41.4556 5.24106 41.4556C5.38565 41.4556 5.45795 41.6004 5.45795 41.7453C5.45795 42.1797 5.20492 42.8314 4.84344 42.8314ZM5.89171 44.171C5.89171 43.8452 5.60254 43.7366 5.16877 43.6279C4.77115 43.5193 4.59041 43.4831 4.59041 43.3383C4.59041 43.2297 4.6627 43.1211 4.84344 43.0124C5.49409 42.9762 5.89171 42.397 5.89171 41.9263C5.89171 41.8177 5.85557 41.7452 5.85557 41.6728H6.39778L6.47007 41.3832H5.60254C5.49409 41.3108 5.38565 41.2746 5.24106 41.2746C4.55426 41.2746 4.12049 41.8539 4.12049 42.3607C4.12049 42.7228 4.33738 42.94 4.62656 43.0124C4.30123 43.1573 4.12049 43.3021 4.12049 43.5193C4.12049 43.6279 4.15664 43.7004 4.26508 43.7728C3.54214 43.99 3.25296 44.2434 3.25296 44.5693C3.25296 44.8951 3.68673 45.04 4.22894 45.04C5.16877 45.04 5.89171 44.5693 5.89171 44.171ZM2.49386 42.0711C2.81919 42.0711 2.81919 42.2159 2.78304 42.5418H2.96378L3.39755 41.3832H3.21681C3.07222 41.6728 2.92763 41.8539 2.56616 41.8539H1.87936L2.24083 40.8763C2.34927 40.5505 2.42157 40.4781 2.85534 40.4781H3.14452C3.57828 40.4781 3.65058 40.5867 3.65058 41.0573H3.83132L3.9759 40.2608H1.301L1.26485 40.4056C1.77092 40.5143 1.84321 40.5505 1.59018 41.2384L1.01182 42.8314C0.75879 43.4831 0.650348 43.5555 0.0719904 43.6641L0.0358429 43.809H2.99993L3.54214 42.9762H3.32525C2.99993 43.3021 2.56616 43.5917 1.95165 43.5917C1.15641 43.5917 1.22871 43.5555 1.48174 42.8314L1.77092 42.0711H2.49386ZM2.89148 40.0436L3.83132 39.3919V39.2833H3.25296L2.74689 40.0436H2.89148Z"></path><path class="Logo_black__yi7Cl" d="M14.7478 35.554C14.9285 35.554 15.0731 35.6988 15.0008 36.0246L14.1695 36.2057C14.314 35.8436 14.5671 35.554 14.7478 35.554ZM15.2177 36.8936H15.037C14.8201 37.147 14.6032 37.3281 14.3863 37.3281C14.1695 37.3281 14.0249 37.1832 14.0249 36.8936C14.0249 36.7488 14.0249 36.6401 14.061 36.5315L15.4346 36.0971C15.6876 35.4816 15.3985 35.1919 15.0008 35.1919C14.3502 35.1919 13.6272 36.2419 13.6272 37.1832C13.6272 37.6177 13.8441 37.8349 14.1333 37.8349C14.5309 37.8349 14.8924 37.5091 15.2177 36.8936ZM14.9647 34.9385L15.9045 34.0695V33.9609H15.3985L14.8201 34.9385H14.9647ZM12.1814 35.5902H12.5428L11.8199 37.5453C11.7476 37.7263 11.856 37.8711 12.0006 37.8711C12.3982 37.8711 13.0489 37.4729 13.2658 36.9298H13.1573C12.9766 37.1108 12.6513 37.3643 12.3259 37.4367L12.9766 35.6264H13.6272L13.6995 35.3367H13.0489L13.3019 34.6488H13.0489L12.579 35.3367L12.1814 35.3729V35.5902ZM11.8199 35.8074C11.9283 35.4816 11.856 35.2281 11.603 35.2281C11.3138 35.2281 11.2415 35.4454 10.9523 36.0609V35.6988C10.9523 35.4454 10.88 35.2281 10.627 35.2281C10.3378 35.2281 10.121 35.6626 9.90407 36.0609H10.0125C10.1571 35.8798 10.2655 35.7712 10.374 35.7712C10.4824 35.7712 10.5547 35.9522 10.374 36.3505L9.86792 37.5091C9.75948 37.7263 9.86792 37.8711 10.0848 37.8711C10.2294 37.8711 10.2655 37.8349 10.3378 37.6901L10.8439 36.3143C10.9885 36.1333 11.1331 35.9884 11.2777 35.8074H11.8199ZM8.8558 35.554C9.03653 35.554 9.18112 35.6988 9.10883 36.0246L8.27744 36.2057C8.38588 35.8436 8.63891 35.554 8.8558 35.554ZM9.28957 36.8936H9.10883C8.89194 37.147 8.67506 37.3281 8.45818 37.3281C8.24129 37.3281 8.0967 37.1832 8.0967 36.8936C8.0967 36.7488 8.0967 36.6401 8.13285 36.5315L9.4703 36.0971C9.72333 35.4816 9.43415 35.1919 9.03653 35.1919C8.38588 35.1919 7.66293 36.2419 7.66293 37.1832C7.66293 37.6177 7.87982 37.8349 8.169 37.8349C8.60277 37.8349 9.00039 37.5091 9.28957 36.8936ZM6.00016 37.4367C5.85557 37.4367 5.67483 37.328 5.67483 37.2194C5.67483 37.1832 5.74712 37.0384 5.81942 36.8574L6.0363 36.2781C6.25319 35.9884 6.61466 35.6988 6.83155 35.6988C6.93999 35.6988 7.04843 35.7712 7.04843 35.9522C7.04843 36.4953 6.54237 37.4367 6.00016 37.4367ZM7.51834 35.735C7.51834 35.3367 7.37376 35.1919 7.08458 35.1919C6.75925 35.1919 6.43392 35.554 6.1086 35.9884L6.90384 33.8523L6.86769 33.8161L6.0363 33.9247V34.0333L6.21704 34.142C6.36163 34.2506 6.32548 34.3954 6.18089 34.7212L5.31336 36.966C5.24106 37.147 5.16877 37.3281 5.16877 37.3643C5.16877 37.5815 5.49409 37.7987 5.78327 37.7987C6.43392 37.8349 7.51834 36.6401 7.51834 35.735ZM4.87959 35.4816C4.91574 35.3005 4.80729 35.1919 4.735 35.1919C4.33738 35.1919 3.90361 35.554 3.68673 36.0246H3.79517C3.90361 35.8436 4.12049 35.6626 4.33738 35.6264L3.57828 37.5453C3.50599 37.7263 3.65058 37.8349 3.72287 37.8349C4.08435 37.8349 4.51811 37.4729 4.69885 37.0022H4.59041C4.48197 37.1832 4.26508 37.3643 4.0482 37.4005L4.87959 35.4816ZM5.02418 34.504C5.20491 34.504 5.3495 34.3592 5.3495 34.1782C5.3495 33.9971 5.20491 33.8523 5.02418 33.8523C4.84344 33.8523 4.69885 33.9971 4.69885 34.1782C4.69885 34.3592 4.84344 34.504 5.02418 34.504ZM3.07222 34.2144H1.301L1.26485 34.3592C1.77092 34.4678 1.84321 34.504 1.59018 35.1919L1.01182 36.785C0.75879 37.4367 0.650348 37.5091 0.0719904 37.6177L0.0358429 37.7625H2.71075L3.28911 36.7126H3.07222C2.74689 37.0746 2.34927 37.5453 1.77092 37.5453C1.33715 37.5453 1.26485 37.4729 1.51788 36.785L2.09624 35.1919C2.34927 34.5402 2.45772 34.4678 3.03607 34.3592L3.07222 34.2144Z"></path><path d="M10.0128 7.78374C10.1213 7.67512 10.1936 7.60271 10.302 7.49409C10.4827 7.27686 10.6635 7.09583 10.8442 6.9148C10.9165 6.84239 10.9526 6.80619 11.0249 6.76998C11.0249 6.76998 11.0249 6.73378 11.0611 6.69757C10.9888 6.73378 10.9165 6.80619 10.8442 6.84239C10.8442 6.84239 10.8081 6.84239 10.8442 6.80619C10.9165 6.76998 10.9526 6.73378 11.0249 6.66137C11.0249 6.66137 11.0249 6.66136 11.0249 6.62516C10.8081 6.58895 10.6273 6.73378 10.4827 6.8786C10.4466 6.8786 10.4104 6.8786 10.4104 6.8786C10.1574 6.95101 9.97667 7.16824 9.72364 7.27686V7.24065C9.6152 7.27686 9.5429 7.34927 9.43446 7.34927C9.28987 7.38548 9.14528 7.34927 9.03684 7.34927C8.81995 7.38548 8.63922 7.42168 8.42233 7.45789C8.31389 7.4941 8.20545 7.5303 8.09701 7.56651C8.09701 7.56651 8.09701 7.60271 8.06086 7.60271C8.02471 7.63892 7.98856 7.67512 7.95242 7.71133C7.84398 7.74753 7.77168 7.85615 7.66324 7.92856C7.66324 7.92856 7.66324 7.92856 7.62709 7.92856C7.5548 8.00097 7.44635 8.10959 7.37406 8.182H7.33791C7.33791 8.1458 7.37406 8.1458 7.37406 8.10959C7.37406 8.07339 7.41021 8.07339 7.41021 8.03718C7.44635 8.00097 7.44635 7.96477 7.4825 7.92856C7.4825 7.92856 7.4825 7.92856 7.4825 7.89236C7.4825 7.89236 7.4825 7.89236 7.44635 7.89236C7.51865 7.81994 7.62709 7.74753 7.73553 7.67512H7.69939L7.73553 7.63892C7.69939 7.63892 7.66324 7.67512 7.66324 7.71133C7.62709 7.74753 7.59094 7.81995 7.51865 7.81995C7.51865 7.81995 7.51865 7.81995 7.4825 7.81995C7.4825 7.81995 7.4825 7.81995 7.4825 7.78374C7.4825 7.78374 7.4825 7.74753 7.51865 7.74753V7.71133V7.67512C7.5548 7.63892 7.59094 7.60271 7.62709 7.56651C7.69939 7.5303 7.77168 7.4941 7.80783 7.45789C7.80783 7.45789 7.84398 7.45789 7.84398 7.42168C7.73553 7.45789 7.66324 7.49409 7.59094 7.56651H7.5548H7.51865C7.51865 7.5303 7.59094 7.5303 7.62709 7.49409H7.66324C8.20545 7.09583 8.9284 7.16824 9.5429 6.95101C9.57905 6.9148 9.65134 6.8786 9.68749 6.84239C9.75978 6.80619 9.83208 6.73378 9.94052 6.66137C10.0851 6.55275 10.1574 6.44413 10.2297 6.2631V6.2269C10.0128 6.44413 9.75978 6.62516 9.50675 6.76998C9.14528 6.95101 8.78381 6.9148 8.42233 6.98722C8.42233 6.95101 8.45848 6.95101 8.49463 6.95101C8.49463 6.9148 8.53078 6.8786 8.56692 6.84239C8.56692 6.84239 8.56692 6.80619 8.60307 6.80619C8.63922 6.80619 8.67536 6.80619 8.67536 6.80619C8.63922 6.73378 8.53078 6.84239 8.45848 6.80619C8.49463 6.76998 8.45848 6.73378 8.49463 6.69757H8.56692C8.56692 6.66136 8.60307 6.62516 8.60307 6.62516C8.8561 6.48034 9.07298 6.37172 9.32602 6.2269C9.28987 6.2269 9.25372 6.2631 9.18143 6.2269C9.21758 6.2269 9.18143 6.19069 9.21757 6.19069C9.39831 6.15449 9.5429 6.04587 9.72364 5.97346C9.65134 5.97346 9.6152 6.00966 9.5429 5.97346C9.57905 5.97346 9.57905 5.93725 9.65134 5.93725V5.90105C9.65134 5.90105 9.65134 5.90105 9.68749 5.90105H9.65134C9.65134 5.86484 9.72364 5.90105 9.75978 5.86484H9.72364C9.75978 5.79243 9.86823 5.79243 9.94052 5.75622C9.94052 5.72002 9.86823 5.75622 9.86823 5.72002C9.86823 5.72002 9.86823 5.72002 9.90437 5.72002H9.86823C9.83208 5.72002 9.86823 5.68381 9.86823 5.64761C9.97667 5.53899 9.97667 5.39417 10.0128 5.24934H9.97667C9.79593 5.43037 9.5429 5.50278 9.28987 5.5752H9.21757C9.14528 5.6114 9.00069 5.6114 8.9284 5.5752C8.8561 5.53899 8.81995 5.50278 8.74766 5.43037C8.60307 5.35796 8.49463 5.28555 8.35004 5.21314C7.95242 5.06832 7.51865 4.9959 7.08488 5.03211C7.26562 4.92349 7.4825 4.92349 7.66324 4.85108C7.95242 4.77867 8.20545 4.67005 8.49463 4.67005C8.45848 4.67005 8.38619 4.67005 8.31389 4.67005C8.09701 4.67005 7.84398 4.70626 7.59094 4.77867C7.41021 4.81488 7.26562 4.88729 7.12103 4.92349C7.01259 4.9597 6.97644 5.06832 6.868 5.03211V4.9959C7.04873 4.77867 7.22947 4.59764 7.4825 4.59764C7.77168 4.56144 8.06086 4.59764 8.35004 4.63385C8.56692 4.63385 8.74766 4.70626 8.96454 4.74247C9.03684 4.74247 9.07298 4.88729 9.14528 4.88729C9.25372 4.92349 9.36216 4.88729 9.43446 4.9597C9.43446 4.92349 9.43446 4.88729 9.43446 4.85108C9.50675 4.77867 9.57905 4.85108 9.65134 4.85108C9.79593 4.77867 9.5429 4.63385 9.47061 4.48903V4.45282C9.6152 4.56144 9.68749 4.70626 9.86823 4.77867C9.94052 4.81488 10.1574 4.85108 10.1213 4.77867C10.049 4.59764 9.86823 4.45282 9.72364 4.27179V4.19938C9.68749 4.19938 9.68749 4.19938 9.68749 4.16317V4.09076C9.6152 4.05456 9.65134 3.98215 9.6152 3.94594C9.57905 3.87353 9.6152 3.72871 9.57905 3.6563C9.5429 3.54768 9.5429 3.47527 9.50675 3.36665C9.47061 3.077 9.39831 2.82357 9.36216 2.57013C9.32602 2.24428 9.5429 1.99084 9.68749 1.7374C9.79593 1.52016 9.94052 1.33913 10.1574 1.19431C10.1936 0.977078 10.3381 0.832255 10.4827 0.651227C10.6273 0.506404 10.8442 0.397788 10.9888 0.325376C11.2057 0.216759 11.4226 0.144348 11.4226 0.144348H0V8.94232H8.06086C8.38618 8.72509 8.67536 8.61647 9.14528 8.39924C9.36216 8.1458 9.83208 7.92856 10.0128 7.78374ZM7.44635 6.58895C7.41021 6.58895 7.33791 6.58895 7.37406 6.58895C7.37406 6.51654 7.51865 6.51654 7.59094 6.48034C7.62709 6.48034 7.66324 6.44413 7.69939 6.44413C7.73553 6.48034 7.77168 6.48034 7.80783 6.51654C7.69939 6.58895 7.5548 6.51654 7.44635 6.58895ZM4.91604 6.2269C4.87989 6.19069 4.91604 6.2269 4.91604 6.2269C5.13292 5.90105 5.27751 5.64761 5.4221 5.35796C5.63899 5.24934 5.81972 5.06832 6.00046 4.88729C6.28964 4.59764 6.57882 4.308 6.94029 4.16317C7.08488 4.12697 7.22947 4.12697 7.37406 4.16317C7.33791 4.23559 7.22947 4.19938 7.15718 4.27179H7.12103V4.23559C6.94029 4.41661 6.72341 4.48903 6.57882 4.70626C6.47038 4.88729 6.39808 5.10452 6.1812 5.14073C6.1089 5.14073 6.1812 5.10452 6.1812 5.10452C5.67513 5.39417 5.31366 5.75622 4.91604 6.2269ZM6.28964 5.10452C6.28964 5.14073 6.25349 5.14073 6.25349 5.17693C6.25349 5.21314 6.21735 5.21314 6.1812 5.24934H6.14505C6.14505 5.17693 6.21734 5.10452 6.28964 5.10452C6.28964 5.10452 6.28964 5.06832 6.28964 5.10452ZM7.04873 7.60271C7.01259 7.63892 7.04873 7.63892 7.04873 7.60271C7.04873 7.63892 7.04873 7.63892 7.04873 7.67512C7.01259 7.71133 6.97644 7.74753 6.94029 7.74753C6.94029 7.74753 6.94029 7.74753 6.90414 7.74753C6.868 7.78374 6.868 7.78374 6.83185 7.81995C6.7957 7.81995 6.72341 7.81995 6.75955 7.78374C6.7957 7.74753 6.83185 7.71133 6.868 7.67512C6.90414 7.63892 6.90414 7.63892 6.94029 7.60271L6.97644 7.56651C6.97644 7.60271 7.08488 7.56651 7.04873 7.60271ZM6.75955 7.45789C6.68726 7.4941 6.61497 7.56651 6.57882 7.60271C6.50652 7.63892 6.43423 7.67512 6.36193 7.71133C6.36193 7.71133 6.36193 7.71133 6.32579 7.71133C6.25349 7.74753 6.21734 7.78374 6.14505 7.85615C6.14505 7.85615 6.14505 7.85615 6.1089 7.89236C6.1089 7.89236 6.1089 7.89236 6.07275 7.92856L6.03661 7.96477C6.03661 7.96477 6.03661 7.96477 6.00046 8.00097H5.96431H5.92817C5.92817 8.00097 5.92816 8.00097 5.89202 8.00097C5.85587 8.00097 5.85587 8.03718 5.81972 8.03718C5.78358 8.07339 5.74743 8.10959 5.71128 8.1458C5.71128 8.1458 5.71128 8.1458 5.71128 8.10959C5.71128 8.07339 5.74743 8.07339 5.74743 8.03718C5.74743 8.03718 5.74743 8.03718 5.74743 8.00097L5.78358 7.96477C5.81972 7.92856 5.81972 7.92856 5.81972 7.89236C5.81972 7.89236 5.81972 7.85615 5.85587 7.85615C5.85587 7.85615 5.85587 7.81995 5.89202 7.81995V7.78374C5.89202 7.78374 5.89202 7.78374 5.89202 7.74753C5.89202 7.74753 5.89202 7.74753 5.89202 7.71133C5.92816 7.67512 5.92817 7.63892 5.96431 7.63892C5.92817 7.63892 5.92816 7.67512 5.89202 7.67512C5.89202 7.67512 5.85587 7.67512 5.85587 7.63892L5.89202 7.60271C5.92816 7.56651 5.92817 7.5303 5.96431 7.5303C6.00046 7.5303 6.00046 7.49409 6.00046 7.49409L6.03661 7.45789C6.1812 7.31307 6.47038 7.31307 6.68726 7.20445C6.75955 7.16824 6.868 7.20445 6.94029 7.20445C6.97644 7.20445 7.04873 7.20445 7.08488 7.24065C7.04873 7.27686 6.90414 7.38548 6.75955 7.45789ZM7.08488 6.29931C7.08488 6.29931 7.12103 6.29931 7.15718 6.2631H7.01259C7.01259 6.2631 7.01259 6.2631 7.01259 6.2269C6.94029 6.2269 6.83185 6.2631 6.75955 6.29931C6.65111 6.33551 6.54267 6.40792 6.39808 6.44413C6.21734 6.51654 6.07275 6.66137 5.85587 6.73378C5.85587 6.73378 5.85587 6.73378 5.85587 6.69757C5.85587 6.66136 5.92817 6.62516 5.96431 6.58895V6.55275C6.1089 6.37172 6.28964 6.2631 6.43423 6.11828V6.08207C6.47038 6.00966 6.57882 5.97346 6.61496 5.90105C6.61496 5.86484 6.68726 5.79243 6.7957 5.75622C6.7957 5.75622 6.75955 5.75622 6.75955 5.72002C6.68726 5.72002 6.61497 5.75622 6.54267 5.72002C6.57882 5.68381 6.61497 5.68381 6.65111 5.64761C6.65111 5.64761 6.61496 5.64761 6.61496 5.6114C6.61496 5.57519 6.65111 5.53899 6.68726 5.53899C6.75955 5.53899 6.83185 5.53899 6.90414 5.46658C6.7957 5.46658 6.65111 5.50278 6.54267 5.43037C6.61497 5.21314 6.75955 5.03211 6.97644 4.92349H7.01259C7.01259 4.99591 6.97644 5.06832 6.868 5.10452C7.01259 5.14073 7.12103 5.14073 7.26562 5.21314C7.26562 5.24934 7.22947 5.21314 7.19332 5.21314C7.26562 5.24934 7.37406 5.21314 7.44635 5.28555C7.41021 5.32176 7.33791 5.28555 7.30176 5.28555C7.80783 5.43037 8.35004 5.53899 8.78381 5.90105C8.42233 6.08207 8.02471 6.15449 7.62709 6.2631C7.59094 6.2631 7.5548 6.2631 7.4825 6.2631V6.29931C7.41021 6.29931 7.37406 6.29931 7.30176 6.33551C7.22947 6.33551 7.15718 6.37172 7.08488 6.29931Z" fill="#000091"></path><path d="M24.1821 0H14.7115C14.7115 0 14.7115 1.37574e-07 14.7838 0.0362058C14.8561 0.0724114 14.9645 0.144823 15.0368 0.181028C15.1453 0.25344 15.2899 0.325851 15.3622 0.434468C15.3983 0.470674 15.4345 0.579291 15.3983 0.651702C15.3622 0.724113 15.3622 0.868936 15.2537 0.905141C15.1453 0.941347 15.0368 0.941347 14.8923 0.941347C14.82 0.941347 14.7477 0.941347 14.6754 0.905141C14.9284 1.01376 15.1453 1.12238 15.326 1.33961C15.326 1.37581 15.3983 1.37582 15.4706 1.37582V1.41202C15.4345 1.44823 15.3983 1.44823 15.4345 1.52064H15.4706C15.5429 1.48443 15.5429 1.3034 15.6513 1.37582C15.7236 1.41202 15.7598 1.55684 15.7236 1.62925C15.6513 1.70167 15.579 1.73787 15.5068 1.81028C15.5068 1.84649 15.5068 1.88269 15.5068 1.9189C15.5429 1.99131 15.5791 2.06372 15.5791 2.13613C15.6152 2.24475 15.6513 2.38957 15.6875 2.49819C15.7598 2.75163 15.8321 3.00507 15.7959 3.25851C15.7959 3.40333 15.7236 3.51195 15.7959 3.65677C15.8321 3.80159 15.9044 3.87401 15.9767 4.01883C16.049 4.12744 16.1213 4.19985 16.1574 4.27227C16.2659 4.45329 16.4466 4.59812 16.3743 4.81535C16.3381 4.92397 16.1574 4.92397 16.0128 4.99638C15.9044 5.06879 16.0128 5.21361 16.049 5.28603C16.1213 5.43085 15.9405 5.53946 15.8321 5.57567C15.8682 5.61188 15.9405 5.61188 15.9405 5.64808C15.9405 5.72049 16.049 5.7929 15.9767 5.86532C15.9044 5.97393 15.7236 6.01014 15.7959 6.15496C15.8682 6.26358 15.8321 6.4084 15.7959 6.51702C15.7598 6.66184 15.6152 6.73425 15.5068 6.77046C15.3983 6.80666 15.2899 6.80666 15.1814 6.77046C15.1453 6.77046 15.1091 6.73425 15.073 6.73425C14.7838 6.69805 14.4946 6.62563 14.2416 6.62563C14.1693 6.62563 14.0609 6.66184 14.0247 6.69805C13.9524 6.77046 13.8801 6.80666 13.8078 6.87907L13.7717 6.91528C13.7717 6.91528 13.7717 6.91528 13.7355 6.95149C13.6994 7.0239 13.6271 7.0601 13.5909 7.13251C13.5909 7.13251 13.5909 7.13251 13.5909 7.16872C13.5187 7.27734 13.4825 7.38595 13.4825 7.45836C13.3741 7.85663 13.4102 8.18248 13.4825 8.25489C13.5187 8.29109 14.0247 8.43592 14.3862 8.61694C14.5669 8.68936 14.6754 8.76177 14.7838 8.79797H24.0737V0H24.1821Z" fill="#e1000F"></path><path d="M15.2894 3.22238C15.3617 3.22238 15.4701 3.22238 15.4701 3.25858C15.434 3.4034 15.2533 3.43961 15.1448 3.54823H15.0725C15.0364 3.58443 15.0364 3.65684 15.0002 3.65684C14.9641 3.65684 14.8918 3.65684 14.8556 3.65684C14.9279 3.72926 15.0002 3.76546 15.1087 3.76546C15.1087 3.76546 15.1448 3.80167 15.1448 3.83787C15.1448 3.83787 15.1448 3.83787 15.181 3.83787H15.2171V3.91028C15.181 3.98269 15.0725 3.94649 15.0002 3.94649C15.1448 3.9827 15.2533 3.9827 15.3978 3.94649C15.5063 3.91028 15.3978 3.72926 15.4701 3.65684C15.434 3.65684 15.4701 3.62064 15.434 3.62064C15.4701 3.58443 15.5063 3.54823 15.5424 3.51202C15.5786 3.51202 15.6147 3.51202 15.6509 3.47582C15.6509 3.43961 15.5786 3.43961 15.6147 3.40341C15.7232 3.33099 15.7955 3.22238 15.7593 3.14997C15.7593 3.11376 15.6147 3.11376 15.5424 3.07755C15.4701 3.04135 15.3617 3.07755 15.2533 3.07755C15.181 3.07755 15.0725 3.11376 15.0002 3.14997C14.8918 3.18617 14.7833 3.25858 14.6749 3.33099C14.7833 3.29479 14.8918 3.25858 15.0364 3.22238C15.1087 3.22238 15.181 3.18617 15.2894 3.22238Z" fill="#000"></path></svg>

