<?xml version="1.0" standalone="no"?>
<!DOCTYPE svg PUBLIC "-//W3C//DTD SVG 20010904//EN"
 "http://www.w3.org/TR/2001/REC-SVG-20010904/DTD/svg10.dtd">
<svg version="1.0" xmlns="http://www.w3.org/2000/svg"
 width="700.000000pt" height="700.000000pt" viewBox="0 0 700.000000 700.000000"
 preserveAspectRatio="xMidYMid meet">
<metadata>
Created by potrace 1.14, written by Peter Selinger 2001-2017
</metadata>
<g transform="translate(0.000000,700.000000) scale(0.100000,-0.100000)"
fill="#000000" stroke="none">
<path d="M3760 6131 c-87 -27 -167 -97 -200 -175 -9 -22 -41 -130 -71 -238
l-54 -198 -387 0 -387 0 -3 160 c-3 159 -3 160 -31 187 l-27 28 -200 3 c-219
3 -256 -4 -279 -54 -7 -15 -11 -84 -11 -174 l0 -150 -124 0 c-145 0 -235 -16
-353 -64 -248 -102 -439 -320 -515 -591 l-23 -80 0 -830 c0 -923 0 -916 70
-1191 156 -609 558 -1148 1096 -1470 l66 -39 -213 -510 c-117 -280 -212 -510
-211 -511 15 -15 561 -233 567 -227 5 4 101 231 215 503 114 272 210 499 215
503 4 5 65 -3 136 -17 581 -113 1195 -7 1694 294 555 334 960 878 1108 1490
68 279 67 260 67 1170 0 914 3 871 -67 1037 -84 204 -268 388 -468 469 -110
44 -171 56 -324 63 l-149 6 -59 208 c-32 114 -67 224 -77 245 -26 51 -85 107
-140 134 -45 23 -53 23 -441 25 -217 1 -406 -2 -420 -6z m143 -1802 c31 -12
66 -32 78 -45 44 -46 23 -122 -40 -146 -39 -14 -168 37 -193 76 -24 39 -17 83
18 114 31 28 67 28 137 1z m316 -204 c40 -34 123 -140 166 -211 52 -86 45
-142 -20 -170 -55 -23 -86 -5 -140 82 -26 40 -68 97 -94 126 -61 68 -74 92
-66 128 15 67 98 91 154 45z m1068 -887 c-14 -308 -135 -650 -325 -918 -86
-123 -300 -336 -422 -422 -232 -164 -506 -273 -789 -314 -160 -23 -443 -16
-595 15 -238 49 -506 163 -696 298 -122 87 -336 301 -422 423 -188 265 -309
604 -326 918 l-7 122 1794 0 1794 0 -6 -122z"/>
</g>
</svg>
