<svg width="57" height="57" viewBox="0 0 57 57" fill="none" xmlns="http://www.w3.org/2000/svg">
<path fill-rule="evenodd" clip-rule="evenodd" d="M20.7867 15.8344H37.9287C39.5997 15.8344 48.0937 17.1924 48.0937 23.6434C48.0937 29.8784 40.4997 31.2274 38.6197 31.2274H19.1727C17.2787 31.2274 9.62373 29.8584 9.62373 23.5304C9.62373 17.1714 18.9507 15.8344 20.7867 15.8344M19.1727 31.8464H38.6197C40.3867 31.8464 48.6887 30.5724 48.6887 23.6434C48.6887 16.7154 39.9267 15.2164 37.9287 15.2164H20.7867C19.0957 15.2164 9.02673 16.5564 9.02673 23.5304C9.02673 30.5054 17.4057 31.8464 19.1727 31.8464" fill="white"/>
<path fill-rule="evenodd" clip-rule="evenodd" d="M38.0903 42.2321H19.6993C18.2623 42.2321 12.2103 41.2771 10.5353 36.7381C10.3993 36.3741 10.2943 35.9841 10.2213 35.5721L10.2203 35.5731L9.81532 33.2861C12.6183 35.4321 16.2803 36.2801 18.4793 36.2801H39.3203C40.0793 36.2801 41.5853 36.1131 43.3003 35.6101L42.4753 39.5901C42.4433 39.7521 42.5463 39.9091 42.7083 39.9441C42.7273 39.9481 42.7483 39.9501 42.7673 39.9501C42.9063 39.9501 43.0313 39.8531 43.0603 39.7121L43.9503 35.4041C44.6913 35.1551 45.4553 34.8451 46.2053 34.4521C46.8253 34.1271 47.3763 33.7591 47.8963 33.3721L47.5273 35.4691C46.6823 41.1451 39.6603 42.2321 38.0903 42.2321V42.2321ZM8.23832 21.9421C9.45332 15.5821 18.7583 14.3071 20.4113 14.3071H38.3493C40.2893 14.3071 48.3193 15.7161 49.4683 21.9411L49.4773 21.9421L49.9153 23.8651H49.9093C50.0373 24.4261 50.1103 25.0261 50.1103 25.6711C50.1103 25.7581 50.1023 25.8391 50.0993 25.9241C50.0943 25.9431 50.0923 25.9661 50.0873 25.9871C50.0243 27.7661 49.4533 29.1891 48.6033 30.3261C48.5703 30.3701 48.5373 30.4151 48.5023 30.4591C45.8583 33.8411 40.7103 34.5981 39.3203 34.5981H18.4793C16.6083 34.5981 7.85232 33.1661 7.62532 25.8281C7.62032 25.8101 7.61832 25.7911 7.61332 25.7721C7.61232 25.6961 7.60532 25.6261 7.60532 25.5481C7.60532 24.9481 7.67932 24.3921 7.80332 23.8661L7.79632 23.8651L8.23532 21.9421H8.23832ZM50.7343 30.0991C50.7483 30.0751 50.7623 30.0511 50.7743 30.0251C50.9703 29.6391 51.1373 29.2391 51.2763 28.8241C51.3003 28.7581 51.3263 28.6951 51.3473 28.6281C51.4653 28.2471 51.5543 27.8531 51.6233 27.4511C51.6403 27.3581 51.6673 27.2661 51.6803 27.1721C51.7503 26.6851 51.7923 26.1861 51.7923 25.6711C51.7923 25.3291 51.7743 24.9871 51.7393 24.6461C51.7043 24.3081 51.6513 23.9711 51.5813 23.6381C51.5753 23.5901 51.5653 23.5401 51.5543 23.4901L51.1153 21.5681C51.1083 21.5321 51.0983 21.4971 51.0873 21.4641C49.6103 14.2041 40.5373 12.6251 38.3493 12.6251H20.4113C18.0213 12.6251 8.09332 14.2131 6.60732 21.5231C6.60332 21.5381 6.59932 21.5541 6.59632 21.5681L6.15832 23.4901C6.14532 23.5441 6.13532 23.5961 6.12932 23.6491C6.06032 23.9641 6.00832 24.2791 5.97532 24.5941C5.94032 24.9091 5.92432 25.2261 5.92432 25.5481C5.92432 26.0711 5.96432 26.5691 6.03232 27.0461C6.06032 27.2381 6.11432 27.4181 6.15232 27.6051C6.20932 27.8811 6.26132 28.1601 6.34132 28.4231C6.41132 28.6531 6.50332 28.8751 6.59032 29.0981C6.66732 29.2931 6.74132 29.4911 6.83032 29.6781C6.94332 29.9191 7.07332 30.1521 7.20932 30.3841C7.29632 30.5301 7.38532 30.6731 7.47732 30.8131C7.57032 30.9551 7.64432 31.1061 7.74632 31.2421L8.56432 35.8661C8.65732 36.3761 8.78832 36.8631 8.95832 37.3211C10.9793 42.7951 17.9443 43.9141 19.6993 43.9141H38.0903C40.1763 43.9141 48.1773 42.5231 49.1893 35.7161L49.9613 31.3271C50.2543 30.9361 50.5113 30.5271 50.7343 30.0991V30.0991Z" fill="white"/>
</svg>
