<svg width="57" height="57" viewBox="0 0 57 57" fill="none" xmlns="http://www.w3.org/2000/svg">
<path fill-rule="evenodd" clip-rule="evenodd" d="M21.787 39.1118C20.979 39.1118 20.284 38.1948 20.234 37.0648C20.185 35.9338 20.801 35.0168 21.609 35.0168C22.417 35.0168 23.112 35.9338 23.161 37.0648C23.21 38.1948 22.595 39.1118 21.787 39.1118M21.609 33.8298C20.98 33.8298 20.379 34.0948 19.918 34.5758C19.323 35.1978 19.006 36.1238 19.049 37.1158C19.127 38.9018 20.328 40.2998 21.787 40.2998C22.416 40.2998 23.017 40.0348 23.478 39.5518C24.072 38.9308 24.39 38.0048 24.346 37.0128C24.269 35.2288 23.067 33.8298 21.609 33.8298" fill="white"/>
<path fill-rule="evenodd" clip-rule="evenodd" d="M34.3293 30.613L29.4603 25.764C29.4723 25.756 29.4853 25.748 29.4983 25.738L42.9543 19.661L47.3493 23.096L34.3293 30.613ZM29.0443 45.044V26.608L33.7013 31.244C33.8713 31.414 34.0993 31.503 34.3293 31.503C34.4823 31.503 34.6353 31.464 34.7743 31.384L42.3963 26.982L42.3983 36.506L29.0443 45.044ZM41.4583 19.36L29.6763 24.681L29.6703 16.043L41.4583 19.36ZM33.0183 10.841L46.3113 13.649L42.6513 18.801C42.6103 18.772 42.5673 18.747 42.5163 18.732L29.5343 15.082L33.0183 10.841ZM15.0513 19.258L10.1803 14.645L24.2513 11.554L28.7963 15.121L15.0513 19.258ZM28.6653 24.959C28.6143 24.924 28.5753 24.874 28.5163 24.85L16.2613 19.824L28.7803 16.054L28.7863 24.989C28.7483 24.973 28.7073 24.965 28.6653 24.959V24.959ZM28.1553 25.699L22.9793 31.227L15.4263 27.409L9.84027 24.585L14.7853 20.179L28.1553 25.665V25.699ZM28.1553 45.102L15.4303 38.629L15.4263 28.406L22.5773 32.022C22.7053 32.086 22.8423 32.117 22.9783 32.117C23.2203 32.117 23.4563 32.02 23.6293 31.835L28.1553 27.002V45.102ZM48.4943 21.654L44.9063 18.804L47.8113 14.716C48.1703 14.21 48.2503 13.557 48.0253 12.98C47.7993 12.403 47.2983 11.977 46.6913 11.849L33.3993 9.04C33.2723 9.013 33.1443 9 33.0183 9C32.4733 9 31.9513 9.242 31.5963 9.672L28.9463 12.898L25.3883 10.106C25.0603 9.85 24.6593 9.713 24.2513 9.713C24.1203 9.713 23.9883 9.728 23.8563 9.757L9.78627 12.848C9.12127 12.995 8.59027 13.497 8.40827 14.153C8.22627 14.81 8.42027 15.513 8.91527 15.982L12.7043 19.569L8.61527 23.212C8.16127 23.616 7.93727 24.219 8.01527 24.823C8.09527 25.427 8.46627 25.952 9.00927 26.228L13.5873 28.541L13.5913 38.63C13.5913 39.321 13.9793 39.955 14.5963 40.269L27.7653 46.968C28.0273 47.101 28.3153 47.169 28.6003 47.169C28.9453 47.169 29.2913 47.071 29.5913 46.878L43.3903 38.056C43.9203 37.718 44.2403 37.134 44.2403 36.506L44.2383 27.017L48.2693 24.689C48.7973 24.385 49.1383 23.838 49.1843 23.231C49.2283 22.624 48.9703 22.034 48.4943 21.654V21.654Z" fill="white"/>
</svg>
