<svg width="57" height="57" viewBox="0 0 57 57" fill="none" xmlns="http://www.w3.org/2000/svg">
<path fill-rule="evenodd" clip-rule="evenodd" d="M20.458 44.9177C20.444 44.9277 20.431 44.9317 20.417 44.9407C19.725 45.3917 15.265 44.2677 12.223 39.5737C9.271 35.0167 9.442 29.7427 10.165 29.1347L19.529 23.3587C18.669 25.4807 17.856 28.7637 18.411 32.9997C19.281 39.6167 20.993 43.0077 21.686 44.1607L20.458 44.9177ZM22.592 43.5797C22.569 43.5477 20.366 40.4917 19.35 32.7767C18.652 27.4677 20.341 23.7837 21.17 22.3457L30.543 16.5637C29.592 18.6287 28.513 22.1667 29.133 26.8867C29.924 32.9097 31.411 36.2547 32.195 37.6777L22.604 43.5937C22.602 43.5877 22.597 43.5837 22.592 43.5797V43.5797ZM33.095 37.1227C32.51 36.1337 30.897 32.9407 30.07 26.6637C29.166 19.7757 32.283 15.6057 32.322 15.5557C32.352 15.5157 32.363 15.4697 32.385 15.4267L34.941 13.8497C35.136 16.2347 36.74 19.6917 38.695 22.7127C40.567 25.5997 43.034 28.4897 45.12 29.7047L33.095 37.1227ZM43.597 19.5357C46.824 24.5147 47.447 28.0597 47.013 28.5377L46.974 28.5607C46.965 28.5627 46.963 28.5647 46.945 28.5647C45.96 28.5927 43.053 26.2437 40.154 21.7667C36.892 16.7347 36.294 13.1597 36.809 12.7407C37.791 12.7157 40.699 15.0617 43.597 19.5357V19.5357ZM45.059 18.5907C42.58 14.7697 39.059 10.9417 36.763 11.0007C36.409 11.0097 36.087 11.1057 35.808 11.2847L21.227 20.2737C21.206 20.2637 21.195 20.2737 21.183 20.3007L9.267 27.6467C9.253 27.6527 9.239 27.6607 9.226 27.6707L9.224 27.6727L9.065 27.7757C8.915 27.8697 8.808 28.0037 8.74 28.1527C7.322 30.1667 7.913 36.1197 10.763 40.5167C13.488 44.7287 17.616 46.8097 20.047 46.7487C20.325 46.7417 20.581 46.7067 20.808 46.6457C20.944 46.6287 21.075 46.5877 21.195 46.5117L33.763 38.7627C33.815 38.7387 33.869 38.7167 33.917 38.6797C33.928 38.6727 33.929 38.6627 33.939 38.6547L47.946 30.0187C50.13 28.6007 47.981 23.1017 45.059 18.5907V18.5907Z" fill="white"/>
</svg>
