<svg width="57" height="57" viewBox="0 0 57 57" fill="none" xmlns="http://www.w3.org/2000/svg">
<path fill-rule="evenodd" clip-rule="evenodd" d="M40.1692 42.1632C40.1642 42.1872 40.1712 42.2122 40.1692 42.2362C40.1652 42.2522 40.1532 42.2642 40.1492 42.2792C39.7402 44.2412 34.2322 47.8742 29.3212 48.1342C21.2642 48.5582 18.0062 44.8822 17.4472 44.1602L12.1652 15.1602L18.1912 21.1712C18.2592 21.2372 18.3392 21.2832 18.4212 21.3232L20.3792 33.3522C20.4172 33.5882 20.6212 33.7552 20.8512 33.7552C20.8782 33.7552 20.9022 33.7532 20.9302 33.7492C21.1912 33.7062 21.3692 33.4602 21.3252 33.1982L19.3922 21.3102L45.5612 15.9412L40.1692 42.1632ZM36.0402 9.0542L40.0482 11.6262L33.9962 12.8662C32.8122 11.8282 28.4382 12.7092 28.3882 12.7192C26.0542 13.1972 24.4402 14.0082 23.9542 14.9272L15.9572 16.5682L12.5932 13.2142L36.0402 9.0542ZM19.0592 19.6622L16.7732 17.3802L24.3992 15.8162C24.5792 15.7792 24.7222 15.6432 24.7682 15.4642C24.8772 15.0302 25.9842 14.1932 28.5802 13.6602C31.2072 13.1222 33.1132 13.3252 33.3332 13.5302C33.4012 13.7712 33.6392 13.9162 33.8912 13.8682L41.2042 12.3692L44.4492 14.4532L19.0592 19.6622ZM47.4662 14.7242C47.4612 14.6972 47.4512 14.6722 47.4452 14.6462C47.4252 14.5762 47.3982 14.5092 47.3622 14.4462C47.3472 14.4202 47.3332 14.3972 47.3172 14.3732C47.2702 14.3082 47.2142 14.2522 47.1502 14.2032C47.1342 14.1912 47.1222 14.1752 47.1062 14.1642C47.1032 14.1622 47.1002 14.1582 47.0952 14.1552L36.6722 7.4612C36.4952 7.3462 36.2802 7.3022 36.0712 7.3412L10.7102 11.8402L10.7092 11.8422H10.7052C10.7022 11.8422 10.7002 11.8452 10.6962 11.8452C10.6002 11.8642 10.5122 11.9022 10.4312 11.9512C10.4092 11.9642 10.3882 11.9782 10.3672 11.9952C10.2992 12.0442 10.2372 12.1012 10.1872 12.1692C10.1792 12.1802 10.1702 12.1862 10.1632 12.1972C10.1182 12.2652 10.0802 12.3372 10.0552 12.4162C10.0512 12.4302 10.0512 12.4462 10.0482 12.4602C10.0422 12.4842 10.0412 12.5052 10.0362 12.5302C10.0222 12.6142 10.0202 12.6962 10.0312 12.7792C10.0332 12.7932 10.0282 12.8062 10.0312 12.8192L15.8302 44.6542C15.8302 44.6542 15.8322 44.6552 15.8322 44.6562C15.8362 44.6782 15.8492 44.6972 15.8542 44.7192C15.8772 44.8032 15.9052 44.8822 15.9502 44.9512C15.9542 44.9582 15.9542 44.9642 15.9572 44.9712C16.0972 45.1792 19.3262 49.8492 28.0532 49.8492C28.4922 49.8492 28.9442 49.8372 29.4092 49.8132C34.9722 49.5172 41.2042 45.4472 41.7962 42.6252C41.8012 42.6002 41.7922 42.5772 41.7962 42.5512C41.8012 42.5342 41.8132 42.5202 41.8162 42.5012L47.4652 15.0312C47.4652 15.0292 47.4642 15.0272 47.4652 15.0232C47.4652 15.0212 47.4662 15.0192 47.4662 15.0162C47.4862 14.9172 47.4812 14.8192 47.4662 14.7242V14.7242Z" fill="white"/>
</svg>
