<svg width="57" height="57" viewBox="0 0 57 57" fill="none" xmlns="http://www.w3.org/2000/svg">
<path fill-rule="evenodd" clip-rule="evenodd" d="M26.1374 34.6974L27.2364 23.4624L43.4594 19.5004L43.6124 19.5384L47.5474 28.2624L26.1374 34.6974ZM42.9394 35.4684L27.0884 41.1934L26.1744 36.4404L44.4564 30.9474L42.9394 35.4684ZM11.8414 31.3414L25.2114 36.5194L26.0674 40.9674L13.3104 35.4934L11.8414 31.3414ZM13.0834 19.4134L13.1644 19.3954L26.2754 23.4214L25.1724 34.7014L8.99944 28.4374L13.0834 19.4134ZM28.8464 15.8464L41.4584 18.9994L26.8054 22.5784L15.0474 18.9684L28.8464 15.8464ZM49.4754 28.4454L44.9774 18.4774C44.8714 18.2434 44.6654 18.0694 44.4144 18.0074L29.0604 14.1674C28.9314 14.1354 28.7984 14.1354 28.6704 14.1624L12.3054 17.8654C12.0484 17.9244 11.8344 18.0984 11.7254 18.3394L7.10144 28.5544C7.00644 28.7644 7.00244 29.0054 7.09144 29.2184C7.17844 29.4334 7.34944 29.6014 7.56544 29.6854L9.77644 30.5404L11.8484 36.4014C11.9264 36.6214 12.0934 36.7994 12.3094 36.8924L26.4594 42.9664C26.5654 43.0124 26.6784 43.0344 26.7914 43.0344C26.8874 43.0344 26.9844 43.0184 27.0764 42.9844L43.8934 36.9104C44.1344 36.8244 44.3224 36.6314 44.4044 36.3884L46.4274 30.3554L48.9504 29.5974C49.1824 29.5264 49.3734 29.3604 49.4734 29.1404C49.5724 28.9204 49.5734 28.6664 49.4754 28.4454V28.4454Z" fill="white"/>
</svg>
