<svg width="57" height="57" viewBox="0 0 57 57" fill="none" xmlns="http://www.w3.org/2000/svg">
<path fill-rule="evenodd" clip-rule="evenodd" d="M28.26 42.561C16.548 42.561 8.68 38.915 8.68 35.51V28.806C11.608 31.997 19.156 34.222 28.26 34.222C37.364 34.222 44.913 31.997 47.841 28.806V35.51C47.841 38.915 39.973 42.561 28.26 42.561M47.841 24.196V27.194C46.08 30.596 37.835 33.261 28.26 33.261C18.686 33.261 10.441 30.596 8.68 27.194V24.196C11.885 27.323 19.35 29.466 28.26 29.466C37.17 29.466 44.636 27.323 47.841 24.196M28.26 13.682C39.973 13.682 47.841 17.328 47.841 20.733C47.841 24.139 39.973 27.785 28.26 27.785C16.548 27.785 8.68 24.139 8.68 20.733C8.68 17.328 16.548 13.682 28.26 13.682M49.521 20.733C49.521 15.837 40.181 12 28.26 12C16.338 12 7 15.837 7 20.733V35.51C7 40.406 16.338 44.242 28.26 44.242C40.181 44.242 49.521 40.406 49.521 35.51V21.122C49.521 21.092 49.507 21.065 49.503 21.033C49.511 20.935 49.521 20.835 49.521 20.733" fill="white"/>
</svg>
