<svg width="57" height="57" viewBox="0 0 57 57" fill="none" xmlns="http://www.w3.org/2000/svg">
<path fill-rule="evenodd" clip-rule="evenodd" d="M28.3708 42.3585C17.4398 42.3585 10.3858 41.8745 8.79084 41.3865V20.1785C8.79084 17.2475 11.1708 14.8635 14.0958 14.8635H42.6438C45.3618 14.8635 47.6058 16.9215 47.9128 19.5635C47.9058 19.5925 47.8938 19.6195 47.8938 19.6525V40.6715C47.8938 40.7465 47.9168 40.8155 47.9508 40.8785V41.3865C46.3568 41.8745 39.3018 42.3585 28.3708 42.3585M42.6438 13.1825H14.0958C10.2438 13.1825 7.11084 16.3205 7.11084 20.1785V41.8135C7.11084 42.6995 7.11084 44.0395 28.3708 44.0395C49.6318 44.0395 49.6318 42.6995 49.6318 41.8135V20.1785C49.6318 16.3205 46.4978 13.1825 42.6438 13.1825" fill="white"/>
<path fill-rule="evenodd" clip-rule="evenodd" d="M12.8008 17.0961C12.5518 17.0961 12.3488 17.2981 12.3488 17.5471V41.1931C12.3488 41.4421 12.5518 41.6451 12.8008 41.6451C13.0498 41.6451 13.2518 41.4421 13.2518 41.1931V17.5471C13.2518 17.2981 13.0498 17.0961 12.8008 17.0961" fill="white"/>
<path fill-rule="evenodd" clip-rule="evenodd" d="M16.8008 17.0961C16.5518 17.0961 16.3488 17.2981 16.3488 17.5471V41.1931C16.3488 41.4421 16.5518 41.6451 16.8008 41.6451C17.0498 41.6451 17.2518 41.4421 17.2518 41.1931V17.5471C17.2518 17.2981 17.0498 17.0961 16.8008 17.0961" fill="white"/>
<path fill-rule="evenodd" clip-rule="evenodd" d="M20.7976 17.0961C20.5486 17.0961 20.3466 17.2981 20.3466 17.5471V41.4271C20.3466 41.6761 20.5486 41.8791 20.7976 41.8791C21.0466 41.8791 21.2496 41.6761 21.2496 41.4271V17.5471C21.2496 17.2981 21.0466 17.0961 20.7976 17.0961" fill="white"/>
<path fill-rule="evenodd" clip-rule="evenodd" d="M24.7955 17.0961C24.5465 17.0961 24.3435 17.2981 24.3435 17.5471V41.4271C24.3435 41.6761 24.5465 41.8791 24.7955 41.8791C25.0445 41.8791 25.2475 41.6761 25.2475 41.4271V17.5471C25.2475 17.2981 25.0445 17.0961 24.7955 17.0961" fill="white"/>
<path fill-rule="evenodd" clip-rule="evenodd" d="M28.7954 17.0961C28.5464 17.0961 28.3434 17.2981 28.3434 17.5471V41.4271C28.3434 41.6761 28.5464 41.8791 28.7954 41.8791C29.0444 41.8791 29.2474 41.6761 29.2474 41.4271V17.5471C29.2474 17.2981 29.0444 17.0961 28.7954 17.0961" fill="white"/>
<path fill-rule="evenodd" clip-rule="evenodd" d="M32.7955 17.0961C32.5475 17.0961 32.3435 17.2981 32.3435 17.5471V41.4271C32.3435 41.6761 32.5475 41.8791 32.7955 41.8791C33.0445 41.8791 33.2475 41.6761 33.2475 41.4271V17.5471C33.2475 17.2981 33.0445 17.0961 32.7955 17.0961" fill="white"/>
<path fill-rule="evenodd" clip-rule="evenodd" d="M35.0173 17.0961C34.7693 17.0961 34.5663 17.2981 34.5663 17.5471V41.4271C34.5663 41.6761 34.7693 41.8791 35.0173 41.8791C35.2663 41.8791 35.4693 41.6761 35.4693 41.4271V17.5471C35.4693 17.2981 35.2663 17.0961 35.0173 17.0961" fill="white"/>
<path fill-rule="evenodd" clip-rule="evenodd" d="M37.2402 17.0961C36.9912 17.0961 36.7882 17.2981 36.7882 17.5471V41.1931C36.7882 41.4421 36.9912 41.6451 37.2402 41.6451C37.4882 41.6451 37.6922 41.4421 37.6922 41.1931V17.5471C37.6922 17.2981 37.4882 17.0961 37.2402 17.0961" fill="white"/>
<path fill-rule="evenodd" clip-rule="evenodd" d="M39.4611 17.0961C39.2121 17.0961 39.0091 17.2981 39.0091 17.5471V41.1931C39.0091 41.4421 39.2121 41.6451 39.4611 41.6451C39.7101 41.6451 39.9131 41.4421 39.9131 41.1931V17.5471C39.9131 17.2981 39.7101 17.0961 39.4611 17.0961" fill="white"/>
<path fill-rule="evenodd" clip-rule="evenodd" d="M41.6808 17.0961C41.4328 17.0961 41.2298 17.2981 41.2298 17.5471V41.1931C41.2298 41.4421 41.4328 41.6451 41.6808 41.6451C41.9298 41.6451 42.1328 41.4421 42.1328 41.1931V17.5471C42.1328 17.2981 41.9298 17.0961 41.6808 17.0961" fill="white"/>
<path fill-rule="evenodd" clip-rule="evenodd" d="M43.9038 17.0961C43.6548 17.0961 43.4518 17.2981 43.4518 17.5471V40.9361C43.4518 41.1861 43.6548 41.3881 43.9038 41.3881C44.1518 41.3881 44.3558 41.1861 44.3558 40.9361V17.5471C44.3558 17.2981 44.1518 17.0961 43.9038 17.0961" fill="white"/>
<path fill-rule="evenodd" clip-rule="evenodd" d="M46.1256 17.0961C45.8766 17.0961 45.6736 17.2981 45.6736 17.5471V40.6711C45.6736 40.9221 45.8766 41.1221 46.1256 41.1221C46.3736 41.1221 46.5776 40.9221 46.5776 40.6711V17.5471C46.5776 17.2981 46.3736 17.0961 46.1256 17.0961" fill="white"/>
</svg>
