<svg width="57" height="57" viewBox="0 0 57 57" fill="none" xmlns="http://www.w3.org/2000/svg">
<path fill-rule="evenodd" clip-rule="evenodd" d="M24.511 11.894V9.548H28.585V11.891L24.511 11.894ZM36.564 24.363V46.791C36.564 47.463 36.016 48.011 35.343 48.011H21.769C21.097 48.011 20.549 47.463 20.549 46.792L20.621 24.251C20.621 23.003 23.167 14.709 23.984 13.701L29.21 13.699C30.267 14.427 35.983 22.935 36.564 24.363V24.363ZM34.38 17.958C32.328 14.92 30.934 13.122 30.136 12.477V9.361C30.136 8.61 29.519 8 28.761 8H24.334C23.577 8 22.961 8.61 22.961 9.361V12.532C22.544 12.976 21.863 14.123 20.663 17.943C19.894 20.388 19.071 23.504 19.071 24.248L19 46.791C19 48.318 20.241 49.559 21.769 49.559H35.343C36.871 49.559 38.114 48.318 38.114 46.791V24.251C38.114 23.773 36.863 21.665 34.38 17.958V17.958Z" fill="white"/>
<path fill-rule="evenodd" clip-rule="evenodd" d="M32.134 22.0597C32.134 22.0477 32.135 22.0367 32.135 22.0247C32.756 22.4327 34.123 24.4527 34.123 25.6727V33.3337C34.123 34.0097 33.622 34.3127 33.13 34.3127C32.634 34.3127 32.134 34.0097 32.134 33.3337V22.0597ZM33.13 35.1417C34.034 35.1417 34.951 34.5187 34.951 33.3337V25.6727C34.951 24.9247 34.551 23.8587 33.883 22.8207C33.555 22.3127 32.714 21.1287 32 21.1287C31.838 21.1287 31.307 21.1957 31.307 22.0597V33.3337C31.307 34.5187 32.223 35.1417 33.13 35.1417V35.1417Z" fill="white"/>
<path fill-rule="evenodd" clip-rule="evenodd" d="M22.0804 24.5124C21.8144 24.5124 21.6004 24.7274 21.6004 24.9914V45.8684C21.6004 46.1344 21.8144 46.3504 22.0804 46.3504C22.3454 46.3504 22.5594 46.1344 22.5594 45.8684V24.9914C22.5594 24.7274 22.3454 24.5124 22.0804 24.5124" fill="white"/>
</svg>
