<svg width="57" height="57" viewBox="0 0 57 57" fill="none" xmlns="http://www.w3.org/2000/svg">
<path fill-rule="evenodd" clip-rule="evenodd" d="M42.2831 42.3292C41.3941 42.9822 40.8851 43.8992 40.4331 44.7172C39.9641 45.5632 39.5601 46.2962 38.8581 46.5592C38.8431 46.5662 38.8261 46.5742 38.8101 46.5802C38.4561 46.7452 37.1041 45.3662 36.4521 44.7042C35.0791 43.3122 33.6631 41.8722 32.1821 42.0352C30.5951 42.2562 29.3371 43.7672 28.1191 45.2272C27.2711 46.2472 26.2091 47.5182 25.5891 47.3762C24.7811 47.2192 23.6281 46.0762 22.5151 44.9732C21.3611 43.8302 20.1701 42.6492 18.9481 42.0902C18.6081 41.9392 18.2721 41.8822 17.9511 41.8822C17.4741 41.8822 17.0241 42.0042 16.6311 42.1092C16.1031 42.2482 15.7301 42.3382 15.4111 42.2432C12.5021 33.2802 16.3221 15.5082 17.2301 13.6342C17.3351 13.5472 17.4121 13.4302 17.4561 13.2972C18.0321 11.4742 22.8641 9.44119 28.8751 9.44119C34.8891 9.44119 39.7191 11.4742 40.2931 13.2892C40.3401 13.4542 40.3761 13.7162 40.1091 14.0762C39.0961 15.4392 34.9131 16.8192 28.8811 16.8192H28.8751C28.4751 16.8192 28.1511 17.1412 28.1511 17.5422C28.1511 17.9412 28.4751 18.2632 28.8751 18.2632H28.8811C34.6491 18.2622 39.3541 17.0652 41.0601 15.1902C43.6951 24.9622 44.0941 33.8602 42.2831 42.3292M42.0291 13.2992C41.9721 13.1022 41.8391 12.9492 41.6711 12.8602C40.7081 9.81719 34.4081 7.99619 28.8751 7.99619C23.4701 7.99619 17.3351 9.73219 16.1541 12.6522C15.0321 14.2522 10.7921 33.3752 14.1411 43.0022C14.1971 43.1602 14.3041 43.2942 14.4471 43.3822C15.3581 43.9392 16.2691 43.6982 17.0021 43.5032C17.5291 43.3632 17.9851 43.2412 18.3541 43.4062C19.3371 43.8562 20.4351 44.9452 21.4981 45.9992C22.8231 47.3122 24.0761 48.5522 25.2941 48.7902C25.4361 48.8222 25.5771 48.8372 25.7161 48.8372C26.9931 48.8372 28.0831 47.5282 29.2291 46.1502C30.2201 44.9602 31.3471 43.6102 32.3631 43.4672C33.1261 43.3632 34.3981 44.6772 35.4221 45.7182C36.8121 47.1302 38.1251 48.4622 39.3931 47.9022C40.5741 47.4472 41.1441 46.4142 41.6971 45.4182C42.1461 44.6032 42.5731 43.8342 43.3061 43.3802C43.4741 43.2772 43.5911 43.1122 43.6321 42.9202C45.6591 33.6982 45.1351 24.0082 42.0291 13.2992" fill="white"/>
<path fill-rule="evenodd" clip-rule="evenodd" d="M17.5004 27.9007C17.4034 30.0347 17.4194 32.1717 17.5464 34.3017C17.6684 36.4287 17.9054 38.5457 18.3084 40.6457C18.3994 38.5747 18.4624 36.4697 18.5384 34.3537C18.6144 32.2357 18.7074 30.1037 18.7974 27.9677C18.8954 25.8357 18.9884 23.6997 19.0894 21.5757C19.1904 19.4527 19.2934 17.3407 19.3464 15.2497C18.8074 17.3117 18.4074 19.4097 18.1054 21.5227C17.8044 23.6357 17.5944 25.7677 17.5004 27.9007" fill="white"/>
<path fill-rule="evenodd" clip-rule="evenodd" d="M24.0962 20.9228C23.6982 23.0328 23.4582 25.1618 23.3032 27.2938C23.1472 29.4268 23.0782 31.5618 23.1042 33.6858C23.1262 35.8118 23.2452 37.9258 23.4402 40.0178C23.6312 42.1098 23.9082 44.1778 24.3062 46.2098C24.4042 44.1878 24.4532 42.1258 24.4862 40.0388C24.5222 37.9498 24.5482 35.8368 24.5422 33.7118C24.5422 31.5868 24.5052 29.4488 24.4412 27.3148C24.3812 25.1778 24.2902 23.0428 24.0962 20.9228" fill="white"/>
<path fill-rule="evenodd" clip-rule="evenodd" d="M32.04 26.3122C31.835 27.5362 31.724 28.7662 31.634 29.9952C31.551 31.2272 31.499 32.4542 31.476 33.6842C31.453 34.9112 31.461 36.1362 31.497 37.3552C31.537 38.5752 31.597 39.7892 31.733 40.9962C31.947 39.8012 32.076 38.5922 32.182 37.3772C32.285 36.1632 32.349 34.9392 32.379 33.7122C32.409 32.4872 32.402 31.2542 32.354 30.0212C32.301 28.7862 32.218 27.5502 32.04 26.3122" fill="white"/>
<path fill-rule="evenodd" clip-rule="evenodd" d="M38.5658 20.029C38.5458 22.071 38.6158 24.121 38.6868 26.17C38.7578 28.22 38.8238 30.271 38.8998 32.308C38.9678 34.349 39.0388 36.376 39.0788 38.383C39.1188 40.388 39.1358 42.372 39.1748 44.315C39.7118 42.332 40.0498 40.329 40.2578 38.308C40.4618 36.286 40.5448 34.252 40.4848 32.212C40.4328 30.173 40.2378 28.13 39.9248 26.094C39.6138 24.06 39.1838 22.033 38.5658 20.029" fill="white"/>
</svg>
