<svg width="57" height="57" viewBox="0 0 57 57" fill="none" xmlns="http://www.w3.org/2000/svg">
<path fill-rule="evenodd" clip-rule="evenodd" d="M47.7057 32.8405L46.3107 35.3775L40.4317 33.0225C40.3897 33.0055 40.3457 32.9955 40.2997 32.9915L28.0787 31.8235C27.9887 31.8145 27.9057 31.8395 27.8277 31.8765L30.0227 29.9705C30.3727 29.6655 30.4097 29.1345 30.1047 28.7845C29.7997 28.4345 29.2687 28.3975 28.9197 28.7025L23.4387 33.4645C23.4177 33.4825 23.4077 33.5075 23.3877 33.5275L18.3547 32.8035C18.0947 32.7645 17.8477 32.9475 17.8107 33.2105C17.7717 33.4725 17.9537 33.7165 18.2167 33.7545L22.8517 34.4205L20.2997 39.0385L19.6357 40.0325L15.6827 40.1695L9.5377 39.6095L8.8437 37.7025L13.2507 36.9955C13.7077 36.9215 14.0197 36.4895 13.9467 36.0325C13.8737 35.5745 13.4437 35.2595 12.9827 35.3355L8.8887 35.9935L10.0427 32.0695C10.0547 32.0255 10.0637 31.9785 10.0697 31.9315L10.7937 25.8565L16.8097 25.6105L17.0417 28.4755C17.0607 28.7265 17.2717 28.9165 17.5187 28.9165C17.5327 28.9165 17.5447 28.9155 17.5577 28.9145C17.8227 28.8935 18.0197 28.6615 17.9977 28.3975L17.7537 25.3795L24.4957 21.5765C24.7267 21.4465 24.8087 21.1535 24.6787 20.9225C24.5467 20.6895 24.2527 20.6085 24.0237 20.7405L17.1157 24.6365L10.6757 24.9005L9.2217 22.3885L10.9357 16.3305L18.0627 16.6005L18.5747 19.7085C18.6127 19.9445 18.8157 20.1115 19.0467 20.1115C19.0737 20.1115 19.0997 20.1105 19.1257 20.1045C19.3887 20.0625 19.5647 19.8145 19.5217 19.5525L19.0227 16.5205L23.8257 15.6965L33.4617 15.9765L33.3047 22.7575C33.2947 23.2215 33.6617 23.6055 34.1257 23.6175H34.1447C34.6007 23.6175 34.9737 23.2525 34.9857 22.7955L35.0707 19.1175C35.0907 19.1215 35.1127 19.1235 35.1347 19.1235C35.3647 19.1235 35.5687 18.9565 35.6077 18.7215L36.1857 15.2925L42.7517 16.2325L38.7147 19.1525C38.5307 19.2855 38.4647 19.5295 38.5557 19.7375L39.2777 21.3525C39.3567 21.5315 39.5317 21.6385 39.7157 21.6385C39.7807 21.6385 39.8477 21.6255 39.9107 21.5965C40.1537 21.4885 40.2627 21.2055 40.1547 20.9635L39.5937 19.7025L43.9187 16.5715L46.9917 23.4835L39.3177 24.0945C39.0527 24.1145 38.8557 24.3475 38.8757 24.6105C38.8967 24.8635 39.1057 25.0535 39.3547 25.0535C39.3687 25.0535 39.3807 25.0535 39.3937 25.0515L47.2297 24.4285L47.0937 28.9015C47.0907 29.0405 47.1197 29.1785 47.1827 29.3015L47.7057 30.3485V32.8405ZM40.7167 38.4165L39.7637 36.2735C39.5757 35.8475 39.0787 35.6595 38.6547 35.8455C38.2307 36.0345 38.0397 36.5305 38.2287 36.9565L38.9447 38.5695L35.7477 39.2555L26.4857 39.5505L25.5837 36.1455C25.5157 35.8895 25.2547 35.7375 24.9967 35.8045C24.7387 35.8725 24.5887 36.1365 24.6557 36.3915L25.4547 39.4125L22.3187 38.8585L24.6537 34.6355L27.6327 32.0465C27.5937 32.1085 27.5627 32.1765 27.5557 32.2545C27.5307 32.5195 27.7247 32.7535 27.9867 32.7785L40.1397 33.9415L46.0457 36.3055L46.7017 39.3745L40.7167 38.4165ZM49.2977 29.7745L48.7807 28.7415L48.9277 23.9045C48.9307 23.7785 48.9047 23.6515 48.8557 23.5365L45.1837 15.2785C45.0637 15.0145 44.8197 14.8285 44.5337 14.7885L35.9687 13.5645C35.7997 13.5395 35.6247 13.5675 35.4727 13.6445L34.1337 14.3145L23.7907 14.0155C23.7337 14.0135 23.6797 14.0175 23.6257 14.0265L18.3577 14.9295L10.3387 14.6265C9.9247 14.6085 9.6027 14.8645 9.4987 15.2385L7.5077 22.2735C7.4457 22.4925 7.4747 22.7275 7.5897 22.9235L9.1327 25.5875L8.4087 31.6635L6.8987 36.7965C6.8977 36.8045 6.8987 36.8115 6.8967 36.8185C6.8897 36.8435 6.8907 36.8695 6.8867 36.8955C6.8747 36.9715 6.8697 37.0465 6.8777 37.1215C6.8797 37.1385 6.8737 37.1525 6.8757 37.1675C6.8797 37.1915 6.8927 37.2095 6.8987 37.2335C6.9057 37.2625 6.9057 37.2925 6.9157 37.3215L8.1407 40.6855C8.2517 40.9925 8.5297 41.2075 8.8537 41.2355L15.5827 41.8485C15.6077 41.8515 15.6337 41.8515 15.6587 41.8515H15.6877L20.1257 41.6975C20.3967 41.6875 20.6467 41.5485 20.7967 41.3235L21.4087 40.4035L26.0677 41.2265C26.1257 41.2365 26.1887 41.2415 26.2397 41.2385L35.8757 40.9325C35.9267 40.9315 35.9757 40.9255 36.0247 40.9145L40.1557 40.0295L47.6467 41.2275C47.6957 41.2365 47.7407 41.2355 47.7897 41.2395C48.2657 41.2265 48.6397 40.8655 48.6397 40.3995C48.6397 40.2755 48.6137 40.1585 48.5657 40.0535L47.7517 36.2465L49.2817 33.4605C49.3507 33.3375 49.3867 33.1985 49.3867 33.0565V30.1515C49.3867 30.0195 49.3547 29.8905 49.2977 29.7745V29.7745Z" fill="white"/>
<path fill-rule="evenodd" clip-rule="evenodd" d="M30.9623 26.9553L23.6843 24.2593C23.4353 24.1663 23.1593 24.2953 23.0673 24.5423C22.9753 24.7923 23.1023 25.0683 23.3503 25.1603L28.7653 27.1653L26.2453 27.4673C25.9813 27.4993 25.7933 27.7383 25.8263 28.0023C25.8543 28.2443 26.0613 28.4233 26.3013 28.4233C26.3213 28.4233 26.3393 28.4233 26.3603 28.4213L30.8513 27.8823C31.0733 27.8563 31.2463 27.6833 31.2713 27.4633C31.2983 27.2423 31.1703 27.0323 30.9623 26.9553" fill="white"/>
</svg>
