<svg width="57" height="57" viewBox="0 0 57 57" fill="none" xmlns="http://www.w3.org/2000/svg">
<path fill-rule="evenodd" clip-rule="evenodd" d="M36.2962 32.4838C41.4182 30.8938 45.4212 27.8568 47.5282 23.7638L47.6812 33.3508C47.5372 34.1528 46.4142 37.0638 43.2282 39.8068C40.7782 41.9168 36.4682 44.3908 29.6512 44.7398L36.2962 32.4838ZM28.0042 33.7248C30.4842 33.7028 32.8332 33.3978 35.0082 32.8458L28.5432 44.7698C27.8782 44.7808 27.2012 44.7788 26.4912 44.7478C25.1082 44.6858 23.7432 44.5098 22.4272 44.2388L28.0042 33.7248ZM27.7802 32.0928C27.1302 32.0928 26.4642 32.0718 25.7982 32.0348C23.6152 31.9098 21.6082 31.6408 19.8052 31.2408L19.2752 25.2688C20.7042 26.6878 22.9202 27.6068 25.3462 27.7468C29.1372 27.9728 32.6342 26.6108 34.6422 24.4558L34.5072 31.3258C32.4432 31.8178 30.1972 32.0928 27.7802 32.0928V32.0928ZM25.5502 22.6398C25.4642 22.6398 25.3802 22.6378 25.3042 22.6338L25.2282 22.6298C25.0092 22.6298 24.8102 22.7238 24.6652 22.8738C24.4792 23.0228 24.3502 23.2438 24.3502 23.5038V25.9738C22.5932 25.6698 21.0662 24.8988 20.1452 23.8058C19.4922 23.0318 19.2012 22.1588 19.3012 21.2768C19.5072 19.4898 21.7972 18.0898 24.5142 18.0898C24.6572 18.0898 24.7992 18.0918 24.9402 18.0998C26.2762 18.1778 27.4642 18.6888 28.1202 19.4668C28.3742 19.7688 28.6622 20.2568 28.5922 20.8608C28.4792 21.8418 27.1142 22.6398 25.5502 22.6398V22.6398ZM25.9942 24.2648C26.9852 24.2008 27.8912 23.9098 28.6082 23.4448L28.5592 25.8838C27.7442 26.0468 26.8832 26.1288 25.9942 26.1168V24.2648ZM24.7112 12.6728C28.2922 12.8798 31.5082 14.2858 33.3162 16.4328C34.1892 17.4728 34.6732 18.6198 34.7532 19.7968C34.7482 19.8298 34.7332 19.8578 34.7322 19.8908L34.7132 20.8628C34.4192 22.8438 32.6592 24.5298 30.2012 25.4268L30.2452 20.5838C30.2462 20.5508 30.2332 20.5238 30.2302 20.4898C30.1882 19.7498 29.9062 19.0398 29.3772 18.4108C28.4372 17.2918 26.8132 16.5618 25.0352 16.4598C21.2762 16.2368 17.9832 18.3508 17.6682 21.0908C17.6192 21.5078 17.6482 21.9188 17.7092 22.3258L18.1572 30.8188C15.0702 29.9268 12.7082 28.5978 11.2732 26.8928C9.99017 25.3698 9.46217 23.5498 9.69917 21.4808C10.2992 16.2648 17.0372 12.2458 24.7112 12.6728V12.6728ZM10.4782 36.7868L9.93817 27.8498C9.96517 27.8838 9.98717 27.9188 10.0152 27.9508C12.7662 31.2208 18.3372 33.2528 25.7022 33.6738C26.1122 33.6978 26.5172 33.6998 26.9252 33.7088L21.4552 44.0178C16.4412 42.7778 12.2482 40.1098 10.5012 36.8128C10.4962 36.8018 10.4852 36.7978 10.4782 36.7868V36.7868ZM49.0882 18.4968C49.0822 18.0638 48.7392 17.7078 48.3152 17.6868L48.2512 17.6848C47.8422 17.6848 47.4972 17.9988 47.4512 18.4128C46.7632 24.3958 42.5572 28.8398 36.1582 30.8678L36.3532 21.0168C36.3582 20.9838 36.3662 20.9528 36.3702 20.9198C36.5962 18.9598 35.9752 17.0438 34.5732 15.3748C32.4772 12.8858 28.8242 11.2628 24.8052 11.0348C16.2502 10.5478 8.76417 15.2268 8.06617 21.2938C8.00217 21.8438 7.99317 22.3788 8.01917 22.9008C8.01417 22.9438 7.99817 22.9828 8.00017 23.0278L8.83717 36.8848C8.84417 37.0238 8.89217 37.1458 8.95817 37.2568C8.96517 37.3678 8.99317 37.4788 9.04817 37.5828C11.6162 42.4288 18.7592 46.0498 26.4182 46.3888C26.9632 46.4148 27.4942 46.4248 28.0172 46.4248C42.7542 46.4248 48.7822 36.9948 49.3152 33.5278C49.3182 33.4928 49.3202 33.4568 49.3192 33.4208L49.0882 18.4968Z" fill="white"/>
</svg>
