<svg width="57" height="57" viewBox="0 0 57 57" fill="none" xmlns="http://www.w3.org/2000/svg">
<path fill-rule="evenodd" clip-rule="evenodd" d="M46.7539 36.6319C46.6969 36.8419 46.5669 37.1969 46.3519 37.1969C46.0889 37.1969 45.5569 36.8649 44.9219 35.9289C44.0169 34.5919 44.1559 29.4379 44.2389 26.3559L44.2659 25.2519C44.3679 20.6819 44.7909 19.8989 44.8949 19.7879C45.9099 20.0259 46.9569 23.2559 47.0709 25.6379C47.1889 28.1339 47.1669 35.1169 46.7539 36.6319M45.1189 40.4419C44.4709 40.4419 43.7719 40.3329 43.1549 40.2359C42.4359 40.1249 41.8689 40.0369 41.4209 40.1179C40.9259 40.2079 40.6339 40.5639 40.3789 40.8799C39.9659 41.3869 39.4989 41.9619 38.0229 41.9619C36.3609 41.9619 35.2319 41.5779 34.4059 41.2969C33.9259 41.1339 33.5449 41.0049 33.1809 41.0049C32.5049 41.0049 32.1449 41.5139 31.8829 41.8859C31.5329 42.3799 31.2309 42.8069 30.2539 42.8069C28.2099 42.8069 26.6689 42.1579 24.8659 41.3099C22.8749 40.3729 16.1859 39.0159 13.2679 39.1469C11.4399 39.2159 11.0839 38.3599 10.6749 37.3589C10.6249 37.2329 10.5749 37.1109 10.5239 36.9999C10.1289 36.1079 9.38491 35.7639 8.77291 35.6719C8.72391 35.5319 8.68191 35.3709 8.66991 35.2069C8.74191 35.2029 8.81991 35.1989 8.88091 35.1969C9.00291 35.1919 9.12691 35.1879 9.24791 35.1769L9.27891 35.1729C9.61991 35.1439 10.1099 35.0629 10.5199 34.7199C10.6869 34.5809 10.8969 34.3559 11.1409 34.0889C11.8029 33.3639 12.7989 32.2689 13.7439 32.4739C14.6009 32.6619 16.0809 33.4709 17.4219 34.2999C15.9159 34.3149 14.1969 34.7579 13.1629 35.3769C12.5499 35.7429 12.2059 36.1519 12.1389 36.5909C12.0889 36.9099 12.1669 37.2189 12.3659 37.4839C13.0739 38.4339 15.3209 38.7419 17.5829 39.0499C18.7469 39.2109 20.4279 39.7469 22.2059 40.3149C23.9519 40.8709 25.7579 41.4469 27.2149 41.7059C27.2439 41.7119 27.2709 41.7139 27.2999 41.7139H27.3209C27.8109 41.6919 28.6649 41.4279 28.9939 40.6209C29.2559 40.6839 29.4929 40.7239 29.6669 40.7139C31.0879 40.6589 33.0779 40.4369 33.1609 40.4279C33.4769 40.3929 33.7459 40.1829 33.8549 39.8839C33.9029 39.7589 35.0169 36.7379 35.4189 34.2069C35.8509 31.4909 35.1979 26.6639 34.9109 25.0319C34.8109 24.4719 34.7979 23.6319 34.7839 22.8199C34.7559 21.0459 34.7279 19.5139 33.9669 18.8269C33.6839 18.5739 33.3159 18.4569 32.9399 18.4849C32.6429 18.5109 32.3669 18.6089 32.1069 18.7519C32.2609 18.5159 32.4329 18.3069 32.6179 18.0819C32.8499 17.8029 33.1139 17.4839 33.3779 17.0789C33.7829 16.4599 33.9799 15.5609 34.0689 15.0149L34.1029 15.0059C34.6179 15.0339 35.3579 16.2519 35.6389 17.5399C35.9499 18.9629 36.3999 22.1779 36.4039 22.2109C36.4609 22.6289 36.8199 22.9349 37.2359 22.9349C37.2599 22.9349 37.2849 22.9339 37.3089 22.9319L39.4499 22.7439C39.6789 22.7249 39.8879 22.6109 40.0329 22.4329C40.1759 22.2539 40.2399 22.0239 40.2089 21.7969C40.1939 21.6799 39.8439 19.0589 39.3459 17.3199C40.6089 16.9089 41.1709 15.5759 41.3399 14.5479C41.6269 14.4539 41.9019 14.4649 42.1239 14.5359C42.1379 14.5829 42.1519 14.6349 42.1669 14.6949C42.4459 15.7509 42.9609 16.2239 43.0599 16.3069C43.3459 16.5469 43.7539 16.5669 44.0659 16.3609C44.0689 16.3589 44.3919 16.1639 44.7809 16.1639C44.9519 16.1639 45.1269 16.2269 45.2659 16.2929C45.3969 16.8999 45.7099 18.1019 46.2669 18.9819C46.5149 19.3759 46.7889 19.6449 47.0299 19.8809C47.5089 20.3509 47.8249 20.6599 47.8249 22.0249L47.8229 23.8799C47.4419 21.7449 46.5459 19.1859 45.1129 18.8509C45.0769 18.8449 44.9499 18.8279 44.9129 18.8279C43.8319 18.8279 43.4119 20.5039 43.3049 25.2299L43.2779 26.3309C43.1569 30.8329 43.1299 34.9979 44.1269 36.4689C44.6509 37.2389 45.4609 38.1579 46.3519 38.1579C46.7179 38.1579 47.3789 37.9929 47.6799 36.8839C47.7309 36.6979 47.7749 36.4389 47.8159 36.1449L47.8149 38.2989C47.8149 38.8839 47.8149 40.4419 45.1189 40.4419M8.83991 32.4979C8.94191 32.4739 9.25891 32.5599 9.46191 32.6709C9.65991 32.7789 9.88791 32.8019 10.0919 32.7449C10.0249 32.8179 9.95991 32.8879 9.89991 32.9559C9.75991 33.1099 9.63591 33.2459 9.53191 33.3489C9.47491 33.2699 9.40391 33.2039 9.32291 33.1499C9.23291 33.0899 9.12691 33.0359 9.00991 32.9809C8.95591 32.9539 8.87391 32.9149 8.85791 32.9149C8.85491 32.9149 8.85391 32.9149 8.85391 32.9159C8.85291 32.9149 8.82091 32.8139 8.83991 32.4979M13.0369 30.6949C13.3739 30.5679 13.9759 30.5929 14.7449 30.7329C14.7239 30.8179 14.7069 30.9089 14.7059 31.0119C14.4939 30.9389 14.2889 30.8739 14.1039 30.8319C13.8929 30.7869 13.6879 30.7659 13.4879 30.7659C13.1179 30.7659 12.7679 30.8389 12.4379 30.9609C12.6259 30.8649 12.8259 30.7749 13.0369 30.6949M18.8379 35.4369C19.0359 35.5089 19.2499 35.5779 19.4669 35.6479C19.6779 35.7969 19.8609 35.9299 19.9999 36.0379C20.5509 36.4599 25.2739 39.2839 28.0569 40.3269C27.8679 40.6429 27.4599 40.7339 27.3229 40.7499C25.9379 40.4959 24.1889 39.9399 22.4979 39.3999C20.6779 38.8189 18.9589 38.2709 17.6239 38.0869C15.9269 37.8549 13.6039 37.5379 13.1359 36.9109C13.0849 36.8399 13.0789 36.7899 13.0879 36.7359C13.0999 36.6559 13.2339 36.4529 13.6549 36.2019C14.8959 35.4609 17.4839 34.9579 18.8379 35.4369M22.5379 33.6839L30.4459 36.5009C30.7199 36.5999 31.0219 36.5459 31.2509 36.3669C31.4769 36.1859 31.5949 35.9019 31.5619 35.6139L31.0329 30.9949C30.8729 29.6319 31.0889 23.9929 31.2509 23.0709C31.4049 22.1899 32.2689 20.5579 32.8999 20.2199C33.0679 20.7369 33.0889 22.0339 33.1029 22.8469C33.1179 23.7659 33.1319 24.6329 33.2549 25.3239C33.6359 27.4849 34.1099 31.7339 33.7599 33.9429C33.4749 35.7339 32.7779 37.8709 32.4519 38.8129C31.7659 38.8819 30.5349 38.9979 29.6029 39.0349H29.5999C29.5149 39.0349 29.3849 39.0059 29.2389 38.9649C28.8369 38.0089 27.8529 36.8109 26.1869 36.1999C25.1939 35.8379 24.0619 35.5419 22.8629 35.2289C22.2779 35.0749 21.6809 34.9189 21.0909 34.7519C21.0699 34.7359 21.0399 34.7159 21.0219 34.7029C20.7849 34.5219 20.1139 34.0419 19.2579 33.4809C19.2539 33.4779 19.2529 33.4749 19.2509 33.4739C18.5749 33.0229 17.6199 32.1539 16.7509 31.3489C16.8989 31.3579 17.0799 31.3809 17.2899 31.4209C18.8919 31.9599 20.7159 32.7329 22.4269 33.6369C22.4639 33.6549 22.4999 33.6729 22.5379 33.6839M37.6399 17.4869C37.9739 18.5189 38.2589 20.1499 38.4159 21.1479L37.9549 21.1879C37.7989 20.1179 37.5109 18.2289 37.2819 17.1809C37.1859 16.7389 37.0199 16.2019 36.7849 15.6709C37.1059 16.1309 37.4049 16.7579 37.6399 17.4869M48.2079 18.6809C48.0069 18.4839 47.8319 18.3119 47.6879 18.0829C47.1119 17.1749 46.8509 15.6499 46.8479 15.6359C46.8139 15.4309 46.7059 15.2469 46.5449 15.1189C46.4629 15.0539 45.7249 14.4829 44.7809 14.4829C44.4539 14.4829 44.1569 14.5389 43.9079 14.6129C43.8679 14.5169 43.8279 14.4009 43.7919 14.2649C43.6309 13.6569 43.4659 13.0309 42.8739 13.0209C42.5969 12.9109 42.1879 12.7869 41.7409 12.7869C40.9799 12.7869 40.2299 13.1929 40.1469 13.2399C39.8959 13.3809 39.7319 13.6459 39.7189 13.9339C39.7179 13.9509 39.6179 15.4979 38.7469 15.7319C38.1009 14.3719 37.2489 13.4949 36.2779 13.2329C35.9579 13.1469 35.6149 13.1029 35.2599 13.1029C34.4839 13.1029 33.8879 13.3099 33.8569 13.3219L33.8049 13.3379C33.5349 13.3819 33.3189 13.4599 33.1459 13.5509C33.1339 13.5569 33.1209 13.5609 33.1089 13.5669C33.1019 13.5699 33.0969 13.5759 33.0909 13.5799C32.7899 13.7509 32.6369 13.9499 32.5939 14.0129C32.5169 14.1269 32.4689 14.2599 32.4569 14.3969C32.4109 14.8629 32.2379 15.7509 31.9719 16.1589C31.7589 16.4839 31.5379 16.7519 31.3229 17.0099C30.4979 18.0079 29.7189 18.9539 29.7009 22.3479C29.6499 22.5209 29.6139 22.6689 29.5949 22.7809C29.4089 23.8389 29.1859 29.6629 29.3629 31.1869L29.7389 34.4639L23.1559 32.1209C22.4459 31.7529 15.2169 28.0779 12.4459 29.1209C11.1319 29.6149 10.1689 30.4219 9.64891 30.9379C9.23091 30.8099 8.67391 30.7339 8.16391 30.9599C7.69891 31.1669 7.37391 31.5879 7.24891 32.1429C7.05791 32.9829 7.22091 33.5249 7.47991 33.8809C7.24591 34.0619 7.06391 34.3359 7.00991 34.7529C6.85991 35.8709 7.46091 36.8429 7.52891 36.9519C7.70891 37.2319 8.03891 37.3749 8.36891 37.3269C8.38691 37.3239 8.80191 37.2629 8.98891 37.6829C9.03191 37.7799 9.07591 37.8849 9.11991 37.9939C9.54191 39.0289 10.3319 40.9489 13.3399 40.8269C15.9339 40.7419 22.3739 41.9939 24.1519 42.8319C26.0779 43.7389 27.8659 44.4879 30.2539 44.4879C32.0999 44.4879 32.8519 43.4269 33.2559 42.8549C33.2839 42.8129 33.3179 42.7659 33.3509 42.7219C33.4949 42.7639 33.6939 42.8309 33.8649 42.8889C34.7489 43.1899 36.0829 43.6429 38.0229 43.6429C40.2979 43.6429 41.1989 42.5349 41.6829 41.9419C41.7349 41.8769 41.7809 41.8149 41.8249 41.7649C42.0639 41.7679 42.5349 41.8419 42.8949 41.8969C43.5399 41.9979 44.3399 42.1229 45.1189 42.1229C47.8999 42.1229 49.4939 40.7279 49.4939 38.2989L49.5059 22.0249C49.5059 19.9549 48.7859 19.2489 48.2079 18.6809" fill="white"/>
</svg>
