<svg width="57" height="57" viewBox="0 0 57 57" fill="none" xmlns="http://www.w3.org/2000/svg">
<path fill-rule="evenodd" clip-rule="evenodd" d="M41.9776 19.2387C41.1856 25.1167 39.6516 31.5647 39.6516 34.1997C39.6516 37.9917 39.4506 43.6787 39.4506 43.6787C35.2136 43.6787 36.4346 45.2107 28.4266 45.2107C20.4166 45.2107 21.6376 43.6787 17.4016 43.6787C17.4016 43.6787 17.1986 37.9917 17.1986 34.1997C17.1986 31.5237 15.6266 25.0747 14.8386 19.2387C14.5106 16.8047 14.9386 10.9737 14.9386 10.9737C14.9386 10.9737 26.2026 10.4317 28.4866 10.4317C30.7686 10.4317 41.9116 10.9737 41.9116 10.9737C41.9116 10.9737 42.0826 11.6627 42.1236 12.6907C42.1316 12.8627 41.2276 12.8487 41.2046 13.8667C41.1826 14.8607 42.1946 14.6467 42.2076 15.0407C42.3346 18.7487 42.2046 17.5507 41.9776 19.2387M43.8706 14.9837C43.8576 14.6247 43.7496 14.1817 43.3826 13.7937C43.7596 13.3527 43.7966 12.8667 43.7866 12.6237C43.7396 11.4597 43.5476 10.6597 43.5276 10.5727C43.3496 9.86068 42.7256 9.34768 41.9926 9.31268C41.5366 9.28968 30.7836 8.76868 28.4866 8.76868C26.1886 8.76868 15.3216 9.28968 14.8596 9.31168C14.0206 9.35268 13.3426 10.0137 13.2796 10.8527C13.2626 11.0967 12.8426 16.8847 13.1896 19.4607C13.5366 22.0357 14.0376 24.7427 14.4796 27.1317C15.0226 30.0657 15.5346 32.8377 15.5346 34.1997C15.5346 37.9767 15.7356 43.6817 15.7376 43.7387C15.7696 44.6347 16.5046 45.3437 17.4016 45.3437C18.9156 45.3437 19.5466 45.5537 20.4216 45.8437C21.8026 46.3037 23.5186 46.8737 28.4266 46.8737C33.3316 46.8737 35.0486 46.3037 36.4296 45.8437C37.3036 45.5537 37.9346 45.3437 39.4506 45.3437C40.3466 45.3437 41.0816 44.6347 41.1136 43.7387C41.1156 43.6817 41.3176 37.9767 41.3176 34.1997C41.3176 32.8517 41.8226 30.0617 42.3596 27.1097C42.7896 24.7307 43.2796 22.0347 43.6266 19.4607C43.6816 19.0477 43.7266 18.8547 43.7666 18.6857C43.9346 17.9707 43.9596 17.6037 43.8706 14.9837" fill="white"/>
<path fill-rule="evenodd" clip-rule="evenodd" d="M38.7486 19.0174C38.6276 18.9734 38.4936 19.0334 38.4456 19.1534C38.4186 19.2204 35.7866 25.9794 34.8586 32.6644C33.9236 39.4014 35.1676 41.6614 35.2216 41.7534C35.2646 41.8284 35.3436 41.8714 35.4266 41.8714C35.4476 41.8714 35.4706 41.8684 35.4906 41.8624C35.5946 41.8334 35.6656 41.7354 35.6626 41.6284C35.2746 29.6504 38.8526 19.4194 38.8886 19.3174C38.9316 19.1964 38.8686 19.0634 38.7486 19.0174" fill="white"/>
<path fill-rule="evenodd" clip-rule="evenodd" d="M37.0223 14.4487C36.9943 14.3417 36.8853 14.2817 36.7763 14.3067C36.6993 14.3277 28.8463 16.2877 20.1963 14.0687C20.1103 14.0477 20.0173 14.0857 19.9713 14.1617C19.9243 14.2397 19.9343 14.3357 19.9953 14.4027C20.0573 14.4717 21.5613 16.0607 26.6013 16.1707C26.7703 16.1737 26.9383 16.1767 27.1063 16.1767C31.9363 16.1767 36.8353 14.7127 36.8853 14.6967C36.9923 14.6647 37.0513 14.5547 37.0223 14.4487" fill="white"/>
</svg>
