<svg width="57" height="57" viewBox="0 0 57 57" fill="none" xmlns="http://www.w3.org/2000/svg">
<path fill-rule="evenodd" clip-rule="evenodd" d="M45.1511 26.0741C45.0241 26.1821 44.9321 26.3261 44.8871 26.4871C43.8301 30.2741 38.0131 36.5271 28.8811 37.9201C27.5731 38.1231 26.2541 38.2281 24.9641 38.2281H24.9631C17.5251 38.2281 11.4981 34.7411 9.38708 31.2971C8.68508 30.1541 8.49708 29.1321 8.87908 28.3821C9.55408 26.8641 11.8191 26.5511 15.0131 26.5511C15.9031 26.5511 16.8461 26.5761 17.8251 26.6011C18.8941 26.6291 20.0031 26.6571 21.1331 26.6571C23.7251 26.6571 25.7841 26.4981 27.5801 26.1621C30.5781 25.7131 33.1311 24.4581 35.3821 23.3501C37.6521 22.2341 39.5771 21.2771 41.3981 21.4001C41.5801 21.4131 41.7711 21.3621 41.9261 21.2591C44.2171 19.7091 46.5351 19.1991 47.4571 20.1271C47.7981 20.4671 47.8521 21.0151 47.8381 21.4131C47.7811 22.9001 46.7271 24.7291 45.1511 26.0741M48.6451 18.9381C47.1511 17.4371 44.2081 17.7681 41.2191 19.7101C39.0281 19.6701 36.9201 20.7211 34.6421 21.8411C32.4991 22.8951 30.0711 24.0891 27.3001 24.5051C25.5781 24.8271 23.6191 24.9771 21.1331 24.9771C20.0181 24.9771 18.9221 24.9481 17.8681 24.9221C16.8751 24.8961 15.9171 24.8711 15.0131 24.8711C11.9111 24.8711 8.50208 25.0901 7.36108 27.6581C6.72408 28.9101 6.93508 30.5151 7.95308 32.1751C10.2381 35.9001 16.5331 39.9081 24.9631 39.9081H24.9641C26.3411 39.9081 27.7471 39.7981 29.1371 39.5811C38.0421 38.2221 44.8551 32.2631 46.4341 27.1841C48.2701 25.5431 49.4441 23.3761 49.5171 21.4781C49.5571 20.4241 49.2551 19.5441 48.6451 18.9381" fill="white"/>
<path fill-rule="evenodd" clip-rule="evenodd" d="M12.2847 28.8827C12.4027 28.7187 12.5617 28.5847 12.7607 28.4737C13.1617 28.2517 13.6987 28.1447 14.2487 28.0947C15.3637 28.0037 16.5497 28.0877 17.7317 28.1687C20.1037 28.3537 22.5267 28.5807 24.9627 28.3957C25.5727 28.3537 26.1797 28.2807 26.7837 28.1727C27.3827 28.0557 27.9737 27.9537 28.5697 27.7867C29.7487 27.4727 30.8807 27.0447 31.9857 26.5657C34.1937 25.6067 36.3177 24.4877 38.3837 23.2777C36.2107 24.2857 34.0407 25.2937 31.7987 26.0927C30.6797 26.4867 29.5467 26.8507 28.4017 27.1017C27.8377 27.2317 27.2467 27.3127 26.6657 27.3887C26.0877 27.4557 25.5017 27.4987 24.9167 27.5157C22.5687 27.5877 20.2167 27.2857 17.8287 27.0537C16.6287 26.9407 15.4217 26.8147 14.1477 26.9137C13.5127 26.9687 12.8457 27.0717 12.1847 27.4197C11.8597 27.5957 11.5447 27.8477 11.3107 28.1687C11.0727 28.5147 10.9407 28.7867 10.8367 29.2167C10.6837 30.0047 10.8907 30.7317 11.1767 31.3367C11.4687 31.9477 11.8537 32.4757 12.2767 32.9547C13.1287 33.9127 14.1337 34.6767 15.1987 35.3167C17.3427 36.5757 19.7417 37.3337 22.1757 37.6147C27.0427 38.1827 32.0947 36.9217 35.9497 34.0537C31.8247 36.4967 26.9147 37.3197 22.3087 36.6387C20.0097 36.2797 17.7657 35.5187 15.8097 34.3097C14.8307 33.7107 13.9177 32.9987 13.1857 32.1587C12.8207 31.7407 12.5027 31.2877 12.2827 30.8157C12.0667 30.3477 11.9477 29.8557 12.0277 29.4587C12.0537 29.3067 12.1797 29.0237 12.2847 28.8827" fill="white"/>
</svg>
