<svg width="57" height="57" viewBox="0 0 57 57" fill="none" xmlns="http://www.w3.org/2000/svg">
<path fill-rule="evenodd" clip-rule="evenodd" d="M28.103 25.831C19.033 25.831 11.68 23.105 11.68 19.742L11.782 19.081C11.935 18.649 12.243 18.229 12.672 17.829C15.666 20.382 21.903 21.706 28.103 21.706C34.288 21.706 40.509 20.386 43.512 17.847C44.144 18.444 44.51 19.079 44.51 19.742C44.51 19.757 44.517 19.771 44.52 19.787C44.451 23.13 37.13 25.831 28.103 25.831V25.831ZM40.899 41.615C39.376 39.3 35.284 37.589 30.161 37.223C35.712 34.729 39.838 29.926 42.133 26.706L40.899 41.615ZM28.103 49.305C21.128 49.305 15.473 46.766 15.473 43.633C15.473 41.59 17.887 39.805 21.494 38.807C21.833 38.825 22.162 38.851 22.516 38.858C22.613 38.86 22.709 38.861 22.806 38.861C24.735 38.861 26.553 38.526 28.258 37.964C35.161 38.003 40.732 40.524 40.732 43.633C40.732 46.766 35.077 49.305 28.103 49.305V49.305ZM14.942 37.179C16.212 37.872 17.739 38.351 19.517 38.614C17.572 39.386 16.095 40.418 15.307 41.614L14.942 37.179ZM22.799 37.169C22.714 37.169 22.63 37.169 22.545 37.167C19.11 37.108 16.512 36.391 14.766 35.054L13.915 24.736C17.406 26.566 22.765 27.512 28.103 27.512C32.826 27.512 37.562 26.767 41.008 25.329C38.077 29.51 31.517 37.169 22.799 37.169V37.169ZM12.208 24.48L12.898 32.846C11.71 30.547 11.767 27.563 12.208 24.48V24.48ZM42.099 16.837C39.567 18.722 34.259 20.025 28.103 20.025C21.932 20.025 16.614 18.716 14.089 16.823C17.007 15.183 22.239 14.058 28.082 14.058C33.942 14.058 39.187 15.188 42.099 16.837V16.837ZM28.103 8.681C36.71 8.681 43.689 11.22 43.689 14.353C43.689 15.031 43.346 15.678 42.746 16.28C39.728 14.446 34.354 13.245 28.082 13.245C21.829 13.245 16.467 14.439 13.442 16.265C12.853 15.666 12.516 15.024 12.516 14.353C12.516 11.22 19.495 8.681 28.103 8.681V8.681ZM46.186 19.483L45.391 14.363L45.352 13.987C44.925 9.398 36.463 7 28.103 7C19.522 7 10.835 9.526 10.835 14.353C10.835 14.187 10.87 14.03 10.89 13.869L10.856 14.096L10.019 19.483L10 19.612V19.742C10 20.667 10.307 21.511 10.857 22.273C10.004 26.963 9.619 31.742 12.354 35.087C12.597 35.385 12.864 35.665 13.153 35.928L13.795 43.71C13.869 47.864 19.994 50.986 28.103 50.986C36.21 50.986 42.335 47.864 42.411 43.712L44.068 23.7C44.123 23.601 44.165 23.529 44.182 23.494C45.448 22.442 46.206 21.194 46.206 19.742V19.612L46.186 19.483Z" fill="white"/>
</svg>
