<svg width="57" height="57" viewBox="0 0 57 57" fill="none" xmlns="http://www.w3.org/2000/svg">
<path fill-rule="evenodd" clip-rule="evenodd" d="M45.0545 11.8082C45.0115 11.8092 44.9595 11.7992 44.9115 11.7952C44.8105 11.7862 44.7035 11.7672 44.5895 11.7362C44.5305 11.7192 44.4725 11.7072 44.4095 11.6852C44.4075 11.6842 44.4035 11.6822 44.4005 11.6812L44.5685 11.4722C44.6965 11.3112 44.7335 11.0972 44.6665 10.9022C44.6445 10.8412 44.4425 10.2932 43.9225 9.84817C43.4025 9.40517 42.8295 9.29117 42.7665 9.27917C42.5635 9.24317 42.3575 9.31317 42.2185 9.46617L42.0655 9.63317C41.9845 9.47317 41.9355 9.32217 41.9065 9.18317C41.8925 9.11217 41.8825 9.04317 41.8835 8.98117C41.8835 8.94717 41.8845 8.91617 41.8885 8.88617C41.9045 8.79317 41.9315 8.70817 41.9875 8.64017C42.0385 8.58117 42.1045 8.53717 42.1835 8.50817C42.1915 8.50517 42.2035 8.50417 42.2125 8.50017C42.2815 8.47817 42.3605 8.46517 42.4465 8.46417C42.4625 8.46217 42.4815 8.46517 42.4985 8.46517C42.6075 8.46817 42.7285 8.48517 42.8585 8.51917C42.8695 8.52217 42.8805 8.52317 42.8905 8.52617C43.0375 8.56717 43.1915 8.62417 43.3515 8.70017C43.3575 8.70317 43.3625 8.70617 43.3685 8.70917C43.5175 8.78017 43.6715 8.86917 43.8265 8.96917C43.8505 8.98417 43.8735 8.99817 43.8975 9.01417C44.0605 9.12317 44.2235 9.24417 44.3855 9.38217C44.9885 9.89717 45.4095 10.4842 45.5525 10.9552C45.6375 11.2352 45.6235 11.4742 45.4905 11.6312C45.3925 11.7442 45.2435 11.8012 45.0555 11.8082H45.0545ZM11.8195 47.4222C11.5135 47.1612 11.1725 46.9002 10.8475 46.7662L11.7545 45.7102L11.7575 45.7142H11.7585C11.7705 45.7012 11.8045 45.7112 11.8345 45.7172C11.8945 45.7272 11.9845 45.7682 12.0965 45.8352C12.1095 45.8432 12.1225 45.8512 12.1345 45.8582C12.2535 45.9322 12.3905 46.0272 12.5415 46.1442H12.5425C12.6155 46.2022 12.6855 46.2562 12.7635 46.3212C12.8395 46.3872 12.9045 46.4492 12.9725 46.5132C13.0545 46.5892 13.1285 46.6622 13.1955 46.7322C13.2275 46.7672 13.2555 46.7992 13.2845 46.8312C13.3115 46.8592 13.3355 46.8882 13.3565 46.9142C13.3915 46.9542 13.4195 46.9922 13.4435 47.0282C13.4505 47.0372 13.4555 47.0462 13.4625 47.0552C13.4825 47.0882 13.4965 47.1162 13.5055 47.1402C13.5175 47.1712 13.5305 47.2042 13.5205 47.2192L13.5175 47.2212L13.2915 47.4862L12.6155 48.2732C12.4305 47.9762 12.1225 47.6812 11.8195 47.4222V47.4222ZM14.5045 44.2902C14.1905 44.0232 13.9025 43.8042 13.6375 43.6302L14.7315 42.3502V42.3492L14.7325 42.3472L14.3335 40.9382L27.9375 24.7522C27.9365 24.7512 28.1475 24.5602 28.1475 24.5602L28.0475 24.6182C28.0475 24.6182 28.9015 24.3132 30.4145 25.6042C31.9265 26.8952 31.7575 27.7862 31.7575 27.7862L31.6465 27.9172L31.2495 28.3752L17.8375 43.9312L16.3825 43.7572L15.2885 45.0392C15.0745 44.8052 14.8145 44.5552 14.5045 44.2902V44.2902ZM42.1825 10.3472L42.4485 10.0572C42.4485 10.0572 42.9105 10.1402 43.3225 10.4932C43.7355 10.8442 43.8905 11.2892 43.8905 11.2892L33.0665 24.8392C32.7375 24.4962 32.3735 24.1442 31.9665 23.7962C31.5585 23.4472 31.1535 23.1442 30.7635 22.8712L42.3965 10.1612C42.3955 10.1602 42.1835 10.3482 42.1825 10.3472V10.3472ZM28.7705 22.8392C29.1525 23.0542 29.6095 23.3312 30.0985 23.6712L30.0995 23.6702C30.4935 23.9422 30.9055 24.2512 31.3185 24.6042C31.7315 24.9562 32.1015 25.3162 32.4315 25.6622C32.4325 25.6622 32.4325 25.6632 32.4335 25.6632L32.4325 25.6642C32.7065 25.9532 32.9525 26.2302 33.1665 26.4842L33.1795 26.5002C33.2775 26.6152 33.3675 26.7272 33.4505 26.8322C33.4685 26.8552 33.4855 26.8772 33.5025 26.8992C33.5725 26.9872 33.6395 27.0732 33.6985 27.1522C33.7095 27.1662 33.7195 27.1802 33.7305 27.1942C34.0105 27.5672 34.1625 27.8062 34.1655 27.8102L33.4865 28.6042C33.4865 28.6042 33.0405 28.4102 32.3795 28.0362C32.3795 28.0362 32.4005 27.9692 32.4205 27.8672C32.4585 27.6612 32.5645 26.5632 30.8765 25.1212C29.1875 23.6782 28.1205 23.9552 27.9235 24.0262C27.8245 24.0602 27.7635 24.0892 27.7635 24.0892C27.2965 23.5022 27.0305 23.0932 27.0285 23.0892L27.7085 22.2942C27.7085 22.2942 28.1265 22.4752 28.7555 22.8292L28.7705 22.8392ZM12.2945 43.7842L12.2975 43.7882V43.7872C12.2975 43.7852 12.2975 43.7872 12.2985 43.7852C12.2995 43.7842 12.3025 43.7852 12.3035 43.7842C12.3365 43.7492 12.4045 43.7482 12.4835 43.7582C12.5225 43.7642 12.5745 43.7812 12.6245 43.7972C12.6955 43.8202 12.7675 43.8432 12.8555 43.8852C12.9415 43.9262 13.0345 43.9772 13.1325 44.0362C13.2365 44.0972 13.3405 44.1572 13.4555 44.2352C13.4925 44.2612 13.5315 44.2902 13.5685 44.3182C13.7465 44.4452 13.9295 44.5852 14.1175 44.7442C14.2345 44.8452 14.3455 44.9462 14.4495 45.0452C14.4755 45.0692 14.4975 45.0912 14.5215 45.1162C14.6015 45.1932 14.6775 45.2702 14.7495 45.3452C14.7685 45.3672 14.7875 45.3872 14.8055 45.4082C14.8475 45.4542 14.8845 45.4982 14.9225 45.5422C14.9835 45.6152 15.0385 45.6832 15.0895 45.7492C15.1155 45.7832 15.1395 45.8162 15.1625 45.8492C15.1915 45.8912 15.2145 45.9302 15.2385 45.9702C15.2795 46.0372 15.3085 46.0972 15.3305 46.1532C15.3405 46.1772 15.3525 46.2042 15.3575 46.2252C15.3745 46.2932 15.3745 46.3492 15.3475 46.3842C15.3465 46.3862 15.3475 46.3892 15.3465 46.3912H15.3455C15.3455 46.3912 15.3465 46.3912 15.3455 46.3922H15.3445L15.3485 46.3962L14.6955 47.1242C14.4915 46.6962 14.0495 46.1862 13.3575 45.5952C12.6675 45.0042 12.0945 44.6492 11.6405 44.5142L12.2945 43.7842ZM12.1985 48.7702V48.7692V48.7712C12.1825 48.7902 12.1405 48.7872 12.0925 48.7762C12.0775 48.7732 12.0595 48.7692 12.0415 48.7622C11.9925 48.7462 11.9355 48.7192 11.8685 48.6832C11.8525 48.6742 11.8365 48.6672 11.8205 48.6572C11.7315 48.6062 11.6355 48.5432 11.5305 48.4682C11.5295 48.4672 11.5285 48.4672 11.5275 48.4662C11.4145 48.3852 11.2955 48.2902 11.1735 48.1862C11.1235 48.1442 11.0805 48.1032 11.0345 48.0602C10.9885 48.0182 10.9395 47.9752 10.8975 47.9332C10.8495 47.8872 10.8065 47.8412 10.7635 47.7972C10.7275 47.7562 10.6915 47.7182 10.6585 47.6802C10.6265 47.6422 10.5935 47.6042 10.5665 47.5702C10.5295 47.5202 10.5025 47.4782 10.4795 47.4382C10.4695 47.4232 10.4555 47.4022 10.4485 47.3882C10.4215 47.3312 10.4165 47.2882 10.4355 47.2642H10.4365H10.4375L10.4365 47.2622C10.4365 47.2622 10.4375 47.2632 10.4385 47.2622C10.5225 47.1742 10.9775 47.4352 11.4615 47.8482C11.9475 48.2622 12.2735 48.6722 12.1995 48.7692L12.1985 48.7702ZM45.4775 8.10317C44.4915 7.26317 43.3945 6.77917 42.4645 6.77917C41.7565 6.77917 41.1345 7.05317 40.7095 7.54817C40.4785 7.81917 39.9165 8.64917 40.3505 9.91117L29.8055 21.4952C28.9875 21.0182 28.4115 20.7672 28.3775 20.7522C28.1615 20.6572 27.9345 20.6122 27.7085 20.6122C27.2285 20.6122 26.7565 20.8202 26.4295 21.2022L25.7505 21.9982C25.2705 22.5592 25.2135 23.3672 25.6075 23.9902C25.6325 24.0302 25.7585 24.2252 25.9785 24.5282L13.0475 39.8542C12.6875 40.2822 12.5645 40.8602 12.7155 41.3962L12.8695 41.9422L12.7465 42.0872C12.6355 42.0692 12.5285 42.0602 12.4225 42.0602C12.0275 42.0602 11.6505 42.1802 11.3425 42.3982C11.2225 42.4812 11.1115 42.5802 11.0155 42.6922L10.1725 43.6792C10.1185 43.7422 10.0685 43.8102 10.0255 43.8802C9.80049 44.2192 9.62149 44.7272 9.81449 45.3972L9.15449 46.1692C8.95549 46.4012 8.82549 46.6832 8.77449 46.9822C8.74549 47.1332 8.73549 47.2892 8.74749 47.4382C8.78149 47.8812 8.96349 48.5112 10.0805 49.4662C11.2595 50.4722 11.8805 50.4722 12.1455 50.4722C12.6615 50.4722 13.1465 50.2502 13.4775 49.8642C13.4965 49.8412 13.5155 49.8182 13.5345 49.7932L14.1265 49.1002C14.2105 49.1092 14.2915 49.1132 14.3715 49.1132C14.8055 49.1132 15.2165 48.9692 15.5395 48.7072C15.6275 48.6382 15.7105 48.5612 15.7845 48.4742L16.6275 47.4872C16.7035 47.3982 16.7695 47.3022 16.8235 47.2042C17.0275 46.8502 17.1655 46.3432 16.9465 45.6842L17.0745 45.5352L17.6385 45.6022C17.7045 45.6102 17.7715 45.6142 17.8365 45.6142C18.3225 45.6142 18.7865 45.4032 19.1075 45.0332L32.2305 29.8682C32.5625 30.0392 32.7765 30.1312 32.8175 30.1492C33.0335 30.2442 33.2615 30.2882 33.4855 30.2882C33.9665 30.2882 34.4375 30.0822 34.7655 29.6992L35.4455 28.9032C35.9245 28.3422 35.9815 27.5332 35.5845 26.9092C35.5645 26.8782 35.2265 26.3482 34.6275 25.6132L44.3925 13.4292C44.5945 13.4702 44.8035 13.4952 45.0155 13.4952C45.7225 13.4952 46.3465 13.2222 46.7705 12.7272C47.7925 11.5282 47.2615 9.62817 45.4775 8.10317V8.10317Z" fill="white"/>
<path fill-rule="evenodd" clip-rule="evenodd" d="M17.2938 41.0102C17.3688 41.0752 17.4508 41.1402 17.5198 41.2042C17.8148 41.4752 18.1188 41.7932 18.4028 42.1622C21.2198 38.9072 25.8308 33.5792 25.8308 33.5792C25.8308 33.5792 25.9448 32.9772 24.9218 32.1042C24.9178 32.1002 24.9128 32.0992 24.9088 32.0952C24.9058 32.0912 24.9038 32.0882 24.8988 32.0852C23.8768 31.2122 23.2998 31.4172 23.2998 31.4172C23.2998 31.4172 18.7588 36.8032 15.9828 40.0942C16.3928 40.3172 16.7538 40.5692 17.0668 40.8172C17.1398 40.8762 17.2188 40.9452 17.2938 41.0102" fill="white"/>
<path fill-rule="evenodd" clip-rule="evenodd" d="M17.6645 43.4258C17.6645 43.4258 17.5905 42.4048 16.7685 41.7028C15.9465 41.0008 14.8605 41.0298 14.8605 41.0298C14.8605 41.0298 15.8675 41.5688 16.4475 42.0648C17.0275 42.5608 17.6645 43.4258 17.6645 43.4258" fill="white"/>
</svg>
