<svg width="57" height="57" viewBox="0 0 57 57" fill="none" xmlns="http://www.w3.org/2000/svg">
<path fill-rule="evenodd" clip-rule="evenodd" d="M37.7981 41.5551C37.7651 41.5691 34.4711 42.8851 27.5751 42.8851C20.6801 42.8851 17.3851 41.5691 17.3521 41.5551C17.2061 41.4961 17.0371 41.5601 16.9691 41.7051C16.9021 41.8481 16.9581 42.0191 17.0981 42.0941C17.2341 42.1671 20.5291 43.8951 27.5751 43.8951C34.6211 43.8951 37.9151 42.1671 38.0521 42.0941C38.1921 42.0191 38.2481 41.8481 38.1821 41.7051C38.1141 41.5601 37.9451 41.4961 37.7981 41.5551" fill="white"/>
<path fill-rule="evenodd" clip-rule="evenodd" d="M27.5751 26.8906C20.6651 26.8906 17.3621 25.8726 17.3291 25.8616C17.1771 25.8116 17.0161 25.8916 16.9601 26.0406C16.9041 26.1886 16.9731 26.3536 17.1181 26.4176C17.2541 26.4786 20.5411 27.9036 27.5751 27.9036C34.6091 27.9036 37.8961 26.4786 38.0321 26.4176C38.1771 26.3536 38.2461 26.1886 38.1901 26.0406C38.1331 25.8916 37.9711 25.8116 37.8211 25.8616C37.7881 25.8726 34.5011 26.8906 27.5751 26.8906" fill="white"/>
<path fill-rule="evenodd" clip-rule="evenodd" d="M27.538 12.3532C21.339 12.3532 18.376 11.3352 18.346 11.3242C18.211 11.2732 18.066 11.3542 18.016 11.5032C17.967 11.6502 18.027 11.8162 18.159 11.8802C18.281 11.9412 21.229 13.3652 27.538 13.3652C33.847 13.3652 36.795 11.9412 36.917 11.8802C37.049 11.8162 37.109 11.6502 37.058 11.5022C37.009 11.3542 36.863 11.2732 36.729 11.3242C36.698 11.3352 33.751 12.3532 27.538 12.3532" fill="white"/>
<path fill-rule="evenodd" clip-rule="evenodd" d="M42.818 23.633C42.818 23.927 42.705 24.378 42.411 24.559L42.209 35.879C42.209 35.879 42.524 36.014 42.524 36.828C42.524 37.641 42.501 39.268 42.05 39.742C41.531 44.893 39.685 48.53 28.249 48.53C16.814 48.53 14.968 44.893 14.45 39.742C13.997 39.268 13.975 37.641 13.975 36.828C13.975 36.014 14.29 35.879 14.29 35.879L14.087 24.559C13.794 24.378 13.681 23.927 13.681 23.633V21.374C13.681 20.922 14.019 20.786 14.019 20.786C14.019 18.538 15.188 16.82 16.062 15.85C17.534 16.698 20.738 17.447 27.483 17.447C35.378 17.447 38.728 16.437 40.151 15.604C41.113 16.612 42.48 18.456 42.48 20.786C42.48 20.786 42.818 20.922 42.818 21.374V23.633ZM15.093 10.372C15.093 10.22 15.121 10.125 15.323 9.964C16.283 9.2 17.197 9.059 17.377 9.059C17.687 9.059 18.128 9.123 18.128 9.123C18.244 9.02 20.795 7.681 29.738 7.681C36.488 7.681 38.976 9.35 38.976 10.575C39.098 10.575 40.161 10.558 40.745 10.558C40.89 10.558 41.005 10.559 41.069 10.562C41.388 10.575 41.4 10.792 41.4 10.97C41.4 11.149 41.47 11.771 41.47 11.771C40.792 12.901 39.663 12.901 39.663 12.901V13.888C39.458 14.088 37.453 15.766 27.483 15.766C18.439 15.766 16.791 14.371 16.573 14.127V12.042C16.573 12.042 16.624 11.879 16.483 11.879C16.343 11.879 15.45 11.803 15.246 11.803C15.042 11.803 15.004 11.713 15.004 11.508C15.004 11.305 15.093 10.526 15.093 10.372V10.372ZM44.499 23.633V21.374C44.499 20.872 44.353 20.439 44.128 20.089C43.893 17.52 42.408 15.533 41.342 14.416C41.343 14.386 41.344 14.354 41.344 14.325V14.135C41.884 13.852 42.459 13.391 42.911 12.637C43.102 12.32 43.182 11.95 43.141 11.584C43.14 11.577 43.087 11.128 43.08 10.949C43.08 9.589 42.073 8.92 41.135 8.882C41.059 8.88 40.919 8.878 40.743 8.878C40.56 8.878 40.33 8.88 40.096 8.881C38.76 7.049 35.094 6 29.738 6C23.049 6 19.432 6.747 17.845 7.4C17.694 7.388 17.529 7.378 17.377 7.378C16.818 7.378 15.54 7.646 14.277 8.649C13.695 9.111 13.412 9.675 13.412 10.372C13.409 10.409 13.393 10.557 13.379 10.714C13.343 11.09 13.323 11.33 13.323 11.508C13.323 12.644 14.065 13.306 14.892 13.451V14.302C14.892 14.381 14.9 14.486 14.92 14.611C13.93 15.682 12.583 17.572 12.369 20.093C12.145 20.443 12 20.874 12 21.374V23.633C12 24.112 12.119 24.686 12.418 25.184L12.601 35.355C12.422 35.718 12.295 36.196 12.295 36.828C12.295 38.295 12.394 39.479 12.822 40.315C13.825 48.543 19.48 50.211 28.249 50.211C40.012 50.211 42.957 46.435 43.678 40.313C44.105 39.477 44.205 38.294 44.205 36.828C44.205 36.196 44.077 35.718 43.898 35.355L44.081 25.184C44.379 24.686 44.499 24.112 44.499 23.633V23.633Z" fill="white"/>
</svg>
