<?xml version="1.0" encoding="UTF-8" standalone="no"?>
<svg
   xmlns:dc="http://purl.org/dc/elements/1.1/"
   xmlns:cc="http://creativecommons.org/ns#"
   xmlns:rdf="http://www.w3.org/1999/02/22-rdf-syntax-ns#"
   xmlns:svg="http://www.w3.org/2000/svg"
   xmlns="http://www.w3.org/2000/svg"
   xmlns:sodipodi="http://sodipodi.sourceforge.net/DTD/sodipodi-0.dtd"
   xmlns:inkscape="http://www.inkscape.org/namespaces/inkscape"
   width="24"
   height="24"
   viewBox="0 0 24 24"
   version="1.1"
   id="svg6"
   sodipodi:docname="3-additives.svg"
   inkscape:version="1.0.1 (3bc2e813f5, 2020-09-07)">
  <metadata
     id="metadata12">
    <rdf:RDF>
      <cc:Work
         rdf:about="">
        <dc:format>image/svg+xml</dc:format>
        <dc:type
           rdf:resource="http://purl.org/dc/dcmitype/StillImage" />
        <dc:title></dc:title>
      </cc:Work>
    </rdf:RDF>
  </metadata>
  <defs
     id="defs10" />
  <sodipodi:namedview
     pagecolor="#ffffff"
     bordercolor="#666666"
     borderopacity="1"
     objecttolerance="10"
     gridtolerance="10"
     guidetolerance="10"
     inkscape:pageopacity="0"
     inkscape:pageshadow="2"
     inkscape:window-width="1848"
     inkscape:window-height="1022"
     id="namedview8"
     showgrid="true"
     inkscape:snap-global="true"
     inkscape:snap-to-guides="false"
     inkscape:snap-grids="true"
     inkscape:zoom="19.666667"
     inkscape:cx="18.921865"
     inkscape:cy="6.2619176"
     inkscape:window-x="72"
     inkscape:window-y="21"
     inkscape:window-maximized="1"
     inkscape:current-layer="svg6"
     inkscape:document-rotation="0"
     showguides="false">
    <inkscape:grid
       type="xygrid"
       id="grid822" />
  </sodipodi:namedview>
  <rect
     style="fill:#ff6600;stroke:none"
     id="rect1706"
     width="24"
     height="24"
     x="0"
     y="0"
     ry="5" />
  <path
     style="fill:#ffffff;stroke:none;stroke-width:1px;stroke-linecap:butt;stroke-linejoin:miter;stroke-opacity:1"
     d="m 15,2 -1,1 v 5 l 5,11 v 2 l -1,1 H 6 L 5,21 V 19 L 10,8 V 3 L 9,2 Z"
     id="path884"
     sodipodi:nodetypes="ccccccccccccc" />
  <g
     aria-label="3"
     id="text932"
     style="font-style:normal;font-weight:normal;font-size:10.9739px;line-height:1.25;font-family:sans-serif;fill:#000000;fill-opacity:1;stroke:none;stroke-width:0.274349">
    <path
       d="m 12.983257,15.686544 q 0.776961,0.166109 1.210987,0.691227 0.439385,0.525118 0.439385,1.296721 0,1.184195 -0.814469,1.832555 -0.814469,0.64836 -2.314807,0.64836 -0.503685,0 -1.03952,-0.101808 -0.5304765,-0.09645 -1.0984615,-0.294709 v -1.044879 q 0.4501013,0.262559 0.9859365,0.396518 0.535835,0.133959 1.119895,0.133959 1.018086,0 1.548563,-0.401876 0.535835,-0.401876 0.535835,-1.16812 0,-0.707303 -0.498327,-1.10382 -0.492968,-0.401877 -1.377096,-0.401877 h -0.932352 v -0.889486 h 0.975219 q 0.798394,0 1.221704,-0.316142 0.42331,-0.321501 0.42331,-0.921636 0,-0.616211 -0.439385,-0.94307 -0.434026,-0.332218 -1.248496,-0.332218 -0.444743,0 -0.953786,0.09645 -0.509043,0.09645 -1.1198948,0.300067 v -0.964503 q 0.6162098,-0.171467 1.1520448,-0.2572 0.541194,-0.08573 1.018087,-0.08573 1.23242,0 1.950439,0.562627 0.718019,0.557268 0.718019,1.511054 0,0.664436 -0.380443,1.125254 -0.380443,0.455459 -1.082387,0.632285 z"
       style="font-style:normal;font-variant:normal;font-weight:normal;font-stretch:normal;font-family:sans-serif;-inkscape-font-specification:sans-serif;stroke-width:0.274349"
       id="path1012" />
  </g>
</svg>
