<?xml version="1.0" encoding="UTF-8" standalone="no"?>
<svg
   xmlns:dc="http://purl.org/dc/elements/1.1/"
   xmlns:cc="http://creativecommons.org/ns#"
   xmlns:rdf="http://www.w3.org/1999/02/22-rdf-syntax-ns#"
   xmlns:svg="http://www.w3.org/2000/svg"
   xmlns="http://www.w3.org/2000/svg"
   xmlns:sodipodi="http://sodipodi.sourceforge.net/DTD/sodipodi-0.dtd"
   xmlns:inkscape="http://www.inkscape.org/namespaces/inkscape"
   width="24"
   height="24"
   viewBox="0 0 24 24"
   version="1.1"
   id="svg6"
   sodipodi:docname="5-additives.svg"
   inkscape:version="1.0.1 (3bc2e813f5, 2020-09-07)">
  <metadata
     id="metadata12">
    <rdf:RDF>
      <cc:Work
         rdf:about="">
        <dc:format>image/svg+xml</dc:format>
        <dc:type
           rdf:resource="http://purl.org/dc/dcmitype/StillImage" />
        <dc:title />
      </cc:Work>
    </rdf:RDF>
  </metadata>
  <defs
     id="defs10" />
  <sodipodi:namedview
     pagecolor="#ffffff"
     bordercolor="#666666"
     borderopacity="1"
     objecttolerance="10"
     gridtolerance="10"
     guidetolerance="10"
     inkscape:pageopacity="0"
     inkscape:pageshadow="2"
     inkscape:window-width="1848"
     inkscape:window-height="1022"
     id="namedview8"
     showgrid="true"
     inkscape:snap-global="true"
     inkscape:snap-to-guides="false"
     inkscape:snap-grids="true"
     inkscape:zoom="19.666667"
     inkscape:cx="18.921865"
     inkscape:cy="6.2619176"
     inkscape:window-x="72"
     inkscape:window-y="21"
     inkscape:window-maximized="1"
     inkscape:current-layer="svg6"
     inkscape:document-rotation="0"
     showguides="false">
    <inkscape:grid
       type="xygrid"
       id="grid822" />
  </sodipodi:namedview>
  <rect
     style="fill:#ff0000;stroke:none"
     id="rect1706"
     width="24"
     height="24"
     x="0"
     y="0"
     ry="5" />
  <path
     style="fill:#ffffff;stroke:none;stroke-width:1px;stroke-linecap:butt;stroke-linejoin:miter;stroke-opacity:1"
     d="m 15,2 -1,1 v 5 l 5,11 v 2 l -1,1 H 6 L 5,21 V 19 L 10,8 V 3 L 9,2 Z"
     id="path884"
     sodipodi:nodetypes="ccccccccccccc" />
  <g
     aria-label="5"
     id="text932"
     style="font-style:normal;font-weight:normal;font-size:10.7648px;line-height:1.25;font-family:sans-serif;fill:#000000;fill-opacity:1;stroke:none;stroke-width:0.269121">
    <path
       d="m 9.7923752,11.999987 h 4.1682068 v 0.893563 h -3.195801 v 1.923787 q 0.231275,-0.07884 0.46255,-0.115637 0.231275,-0.04205 0.462551,-0.04205 1.314062,0 2.081475,0.720106 0.767412,0.720106 0.767412,1.950069 0,1.266756 -0.788437,1.971094 Q 12.961894,20 11.526938,20 11.03285,20 10.517738,19.9159 10.007881,19.8318 9.4612315,19.6636 v -1.067019 q 0.4730625,0.257556 0.9776625,0.383706 0.5046,0.12615 1.067019,0.12615 0.909331,0 1.440212,-0.478318 0.530882,-0.478319 0.530882,-1.298294 0,-0.819975 -0.530882,-1.298294 -0.530881,-0.478319 -1.440212,-0.478319 -0.425757,0 -0.851513,0.09461 -0.4205,0.09461 -0.8620248,0.29435 z"
       style="font-style:normal;font-variant:normal;font-weight:normal;font-stretch:normal;font-family:sans-serif;-inkscape-font-specification:sans-serif;stroke-width:0.269121"
       id="path834" />
  </g>
</svg>
