<?xml version="1.0" encoding="UTF-8" standalone="no"?>
<svg
   xmlns:dc="http://purl.org/dc/elements/1.1/"
   xmlns:cc="http://creativecommons.org/ns#"
   xmlns:rdf="http://www.w3.org/1999/02/22-rdf-syntax-ns#"
   xmlns:svg="http://www.w3.org/2000/svg"
   xmlns="http://www.w3.org/2000/svg"
   xmlns:sodipodi="http://sodipodi.sourceforge.net/DTD/sodipodi-0.dtd"
   xmlns:inkscape="http://www.inkscape.org/namespaces/inkscape"
   width="24"
   height="24"
   viewBox="0 0 24 24"
   version="1.1"
   id="svg6"
   sodipodi:docname="8-additives.svg"
   inkscape:version="1.0.1 (3bc2e813f5, 2020-09-07)">
  <metadata
     id="metadata12">
    <rdf:RDF>
      <cc:Work
         rdf:about="">
        <dc:format>image/svg+xml</dc:format>
        <dc:type
           rdf:resource="http://purl.org/dc/dcmitype/StillImage" />
        <dc:title></dc:title>
      </cc:Work>
    </rdf:RDF>
  </metadata>
  <defs
     id="defs10" />
  <sodipodi:namedview
     pagecolor="#ffffff"
     bordercolor="#666666"
     borderopacity="1"
     objecttolerance="10"
     gridtolerance="10"
     guidetolerance="10"
     inkscape:pageopacity="0"
     inkscape:pageshadow="2"
     inkscape:window-width="1848"
     inkscape:window-height="1022"
     id="namedview8"
     showgrid="true"
     inkscape:snap-global="true"
     inkscape:snap-to-guides="false"
     inkscape:snap-grids="true"
     inkscape:zoom="23.791667"
     inkscape:cx="12"
     inkscape:cy="9.6244395"
     inkscape:window-x="72"
     inkscape:window-y="21"
     inkscape:window-maximized="1"
     inkscape:current-layer="svg6"
     inkscape:document-rotation="0"
     showguides="false">
    <inkscape:grid
       type="xygrid"
       id="grid822" />
  </sodipodi:namedview>
  <rect
     style="fill:#ff0000;stroke:none"
     id="rect1706"
     width="24"
     height="24"
     x="0"
     y="0"
     ry="5" />
  <path
     style="fill:#ffffff;stroke:none;stroke-width:1px;stroke-linecap:butt;stroke-linejoin:miter;stroke-opacity:1"
     d="m 15,2 -1,1 v 5 l 5,11 v 2 l -1,1 H 6 L 5,21 V 19 L 10,8 V 3 L 9,2 Z"
     id="path884"
     sodipodi:nodetypes="ccccccccccccc" />
  <g
     aria-label="8"
     id="text932"
     style="font-style:normal;font-weight:normal;font-size:10.5771px;line-height:1.25;font-family:sans-serif;fill:#000000;fill-opacity:1;stroke:none;stroke-width:0.26443">
    <path
       d="m 12,16.18849 q -0.743702,0 -1.172364,0.397674 -0.423497,0.397674 -0.423497,1.094895 0,0.697221 0.423497,1.094895 0.428662,0.397675 1.172364,0.397675 0.743703,0 1.172364,-0.397675 0.428662,-0.402838 0.428662,-1.094895 0,-0.697221 -0.428662,-1.094895 Q 12.748867,16.18849 12,16.18849 Z M 10.956751,15.744335 Q 10.285353,15.579067 9.9083375,15.119418 9.5364863,14.659769 9.5364863,13.9987 q 0,-0.924463 0.6559037,-1.461582 Q 10.853459,12 12,12 q 1.151706,0 1.80761,0.537118 0.655904,0.537119 0.655904,1.461582 0,0.661069 -0.377016,1.120718 -0.371851,0.459649 -1.038084,0.624917 0.754032,0.175596 1.172364,0.686891 0.423497,0.511296 0.423497,1.249833 0,1.120718 -0.686892,1.719812 Q 13.275656,19.999965 12,19.999965 q -1.275656,0 -1.962548,-0.599094 -0.6817267,-0.599094 -0.6817267,-1.719812 0,-0.738537 0.4234972,-1.249833 0.4234975,-0.511295 1.1775285,-0.686891 z m -0.38218,-1.647508 q 0,0.599094 0.371851,0.934793 0.377016,0.335699 1.053578,0.335699 0.671398,0 1.048414,-0.335699 0.38218,-0.335699 0.38218,-0.934793 0,-0.599093 -0.38218,-0.934792 Q 12.671398,12.826336 12,12.826336 q -0.676562,0 -1.053578,0.335699 -0.371851,0.335699 -0.371851,0.934792 z"
       style="font-style:normal;font-variant:normal;font-weight:normal;font-stretch:normal;font-family:sans-serif;-inkscape-font-specification:sans-serif;stroke-width:0.26443"
       id="path1156" />
  </g>
</svg>
