<?xml version="1.0" encoding="UTF-8" standalone="no"?>
<svg
   xmlns:dc="http://purl.org/dc/elements/1.1/"
   xmlns:cc="http://creativecommons.org/ns#"
   xmlns:rdf="http://www.w3.org/1999/02/22-rdf-syntax-ns#"
   xmlns:svg="http://www.w3.org/2000/svg"
   xmlns="http://www.w3.org/2000/svg"
   xmlns:sodipodi="http://sodipodi.sourceforge.net/DTD/sodipodi-0.dtd"
   xmlns:inkscape="http://www.inkscape.org/namespaces/inkscape"
   width="24"
   height="24"
   viewBox="0 0 24 24"
   version="1.1"
   id="svg6"
   sodipodi:docname="9-additives.svg"
   inkscape:version="1.0.1 (3bc2e813f5, 2020-09-07)">
  <metadata
     id="metadata12">
    <rdf:RDF>
      <cc:Work
         rdf:about="">
        <dc:format>image/svg+xml</dc:format>
        <dc:type
           rdf:resource="http://purl.org/dc/dcmitype/StillImage" />
        <dc:title></dc:title>
      </cc:Work>
    </rdf:RDF>
  </metadata>
  <defs
     id="defs10" />
  <sodipodi:namedview
     pagecolor="#ffffff"
     bordercolor="#666666"
     borderopacity="1"
     objecttolerance="10"
     gridtolerance="10"
     guidetolerance="10"
     inkscape:pageopacity="0"
     inkscape:pageshadow="2"
     inkscape:window-width="1848"
     inkscape:window-height="1022"
     id="namedview8"
     showgrid="true"
     inkscape:snap-global="true"
     inkscape:snap-to-guides="false"
     inkscape:snap-grids="true"
     inkscape:zoom="23.791667"
     inkscape:cx="12"
     inkscape:cy="9.6244395"
     inkscape:window-x="72"
     inkscape:window-y="21"
     inkscape:window-maximized="1"
     inkscape:current-layer="svg6"
     inkscape:document-rotation="0"
     showguides="false">
    <inkscape:grid
       type="xygrid"
       id="grid822" />
  </sodipodi:namedview>
  <rect
     style="fill:#ff0000;stroke:none"
     id="rect1706"
     width="24"
     height="24"
     x="0"
     y="0"
     ry="5" />
  <path
     style="fill:#ffffff;stroke:none;stroke-width:1px;stroke-linecap:butt;stroke-linejoin:miter;stroke-opacity:1"
     d="m 15,2 -1,1 v 5 l 5,11 v 2 l -1,1 H 6 L 5,21 V 19 L 10,8 V 3 L 9,2 Z"
     id="path884"
     sodipodi:nodetypes="ccccccccccccc" />
  <g
     aria-label="9"
     id="text932"
     style="font-style:normal;font-weight:normal;font-size:10.5771px;line-height:1.25;font-family:sans-serif;fill:#000000;fill-opacity:1;stroke:none;stroke-width:0.26443">
    <path
       d="m 9.8360328,19.690089 v -0.950287 q 0.3925092,0.185926 0.7953482,0.284053 0.402839,0.09813 0.790184,0.09813 1.03292,0 1.575203,-0.692057 0.547447,-0.697221 0.624916,-2.112321 -0.299547,0.444156 -0.759196,0.681727 -0.459649,0.237572 -1.017426,0.237572 -1.15687,0 -1.833433,-0.697221 -0.6713978,-0.702386 -0.6713978,-1.916067 0,-1.187857 0.7023858,-1.905737 Q 10.745002,12 11.912202,12 q 1.337631,0 2.040017,1.027755 0.70755,1.022591 0.70755,2.974809 0,1.823104 -0.867653,2.912835 -0.862488,1.084566 -2.32407,1.084566 -0.392509,0 -0.795348,-0.07747 -0.402839,-0.07747 -0.8366652,-0.232407 z m 2.0761692,-3.269192 q 0.702385,0 1.110389,-0.480308 0.413168,-0.480307 0.413168,-1.316973 0,-0.8315 -0.413168,-1.311808 -0.408004,-0.485472 -1.110389,-0.485472 -0.702386,0 -1.115554,0.485472 -0.408003,0.480308 -0.408003,1.311808 0,0.836666 0.408003,1.316973 0.413168,0.480308 1.115554,0.480308 z"
       style="font-style:normal;font-variant:normal;font-weight:normal;font-stretch:normal;font-family:sans-serif;-inkscape-font-specification:sans-serif;stroke-width:0.26443"
       id="path1186" />
  </g>
</svg>
