<?xml version="1.0" encoding="UTF-8" standalone="no"?>
<svg
   xmlns:dc="http://purl.org/dc/elements/1.1/"
   xmlns:cc="http://creativecommons.org/ns#"
   xmlns:rdf="http://www.w3.org/1999/02/22-rdf-syntax-ns#"
   xmlns:svg="http://www.w3.org/2000/svg"
   xmlns="http://www.w3.org/2000/svg"
   xmlns:sodipodi="http://sodipodi.sourceforge.net/DTD/sodipodi-0.dtd"
   xmlns:inkscape="http://www.inkscape.org/namespaces/inkscape"
   width="24"
   height="24"
   viewBox="0 0 24 24"
   version="1.1"
   id="svg6"
   sodipodi:docname="celery-content-unknown.svg"
   inkscape:version="1.0.1 (3bc2e813f5, 2020-09-07)">
  <metadata
     id="metadata12">
    <rdf:RDF>
      <cc:Work
         rdf:about="">
        <dc:format>image/svg+xml</dc:format>
        <dc:type
           rdf:resource="http://purl.org/dc/dcmitype/StillImage" />
        <dc:title></dc:title>
      </cc:Work>
    </rdf:RDF>
  </metadata>
  <defs
     id="defs10" />
  <sodipodi:namedview
     pagecolor="#ffffff"
     bordercolor="#666666"
     borderopacity="1"
     objecttolerance="10"
     gridtolerance="10"
     guidetolerance="10"
     inkscape:pageopacity="0"
     inkscape:pageshadow="2"
     inkscape:window-width="1848"
     inkscape:window-height="1022"
     id="namedview8"
     showgrid="true"
     inkscape:snap-global="true"
     inkscape:snap-to-guides="false"
     inkscape:snap-grids="true"
     inkscape:zoom="27.812867"
     inkscape:cx="12.035837"
     inkscape:cy="12.803451"
     inkscape:window-x="72"
     inkscape:window-y="21"
     inkscape:window-maximized="1"
     inkscape:current-layer="svg6"
     inkscape:document-rotation="0"
     showguides="false">
    <inkscape:grid
       type="xygrid"
       id="grid822" />
  </sodipodi:namedview>
  <rect
     style="fill:#b3b3b3;stroke:none"
     id="rect1706"
     width="24"
     height="24"
     x="0"
     y="0"
     ry="5" />
  <path
     style="fill:#ffffff;stroke:none;stroke-width:1px;stroke-linecap:butt;stroke-linejoin:miter;stroke-opacity:1"
     d="M 10,22 11,6 h 2 l 1,16 z"
     id="path1112" />
  <g
     id="g1129">
    <path
       style="fill:#ffffff;stroke:none;stroke-width:0.894427px;stroke-linecap:butt;stroke-linejoin:miter;stroke-opacity:1"
       d="M 8,5 C 8,8.1999999 9,9 13,9 13,6.6 11,5 8,5 Z"
       id="path2352"
       sodipodi:nodetypes="ccc" />
    <path
       style="fill:#ffffff;stroke:none;stroke-width:0.894427px;stroke-linecap:butt;stroke-linejoin:miter;stroke-opacity:1"
       d="m 16,5 c 0,3.1999999 -1,4 -5,4 0,-2.4 2,-4 5,-4 z"
       id="path2446"
       sodipodi:nodetypes="ccc" />
    <path
       style="fill:#ffffff;stroke:none;stroke-width:1px;stroke-linecap:butt;stroke-linejoin:miter;stroke-opacity:1"
       d="M 12,1.9289321 C 9.87868,4.0502524 9.87868,6.8786796 12,9 14.12132,6.8786796 14.12132,4.0502524 12,1.9289321 Z"
       id="path2454"
       sodipodi:nodetypes="ccc" />
  </g>
  <g
     id="g1154">
    <g
       id="g1137"
       transform="matrix(0.44180762,-0.76523325,0.76523325,0.44180762,-2.7777744,18.330582)">
      <path
         style="fill:#ffffff;stroke:none;stroke-width:0.894427px;stroke-linecap:butt;stroke-linejoin:miter;stroke-opacity:1"
         d="M 8,5 C 8,8.1999999 8.5898229,8.7761027 12.589823,8.7761027 12.589823,6.3761027 11,5 8,5 Z"
         id="path1131"
         sodipodi:nodetypes="ccc" />
      <path
         style="fill:#ffffff;stroke:none;stroke-width:0.894427px;stroke-linecap:butt;stroke-linejoin:miter;stroke-opacity:1"
         d="m 16,5 c 0,3.1999999 -1,4 -5,4 0,-2.4 2,-4 5,-4 z"
         id="path1133"
         sodipodi:nodetypes="ccc" />
      <path
         style="fill:#ffffff;stroke:none;stroke-width:1px;stroke-linecap:butt;stroke-linejoin:miter;stroke-opacity:1"
         d="M 12,1.9289321 C 9.87868,4.0502524 9.87868,6.8786796 12,9 14.12132,6.8786796 14.12132,4.0502524 12,1.9289321 Z"
         id="path1135"
         sodipodi:nodetypes="ccc" />
    </g>
    <path
       style="fill:#ffffff;stroke:none;stroke-width:1px;stroke-linecap:butt;stroke-linejoin:miter;stroke-opacity:1"
       d="M 8,13 10,21.71421 12,20 9.7202478,12.281001 9,13 Z"
       id="path1147"
       sodipodi:nodetypes="cccccc" />
  </g>
  <g
     id="g1166"
     transform="matrix(-1,0,0,1,24,0)">
    <g
       id="g1162"
       transform="matrix(0.44180762,-0.76523325,0.76523325,0.44180762,-2.7777744,18.330582)">
      <path
         style="fill:#ffffff;stroke:none;stroke-width:0.894427px;stroke-linecap:butt;stroke-linejoin:miter;stroke-opacity:1"
         d="M 8,5 C 8,8.1999999 8.5898229,8.7761027 12.589823,8.7761027 12.589823,6.3761027 11,5 8,5 Z"
         id="path1156"
         sodipodi:nodetypes="ccc" />
      <path
         style="fill:#ffffff;stroke:none;stroke-width:0.894427px;stroke-linecap:butt;stroke-linejoin:miter;stroke-opacity:1"
         d="m 16,5 c 0,3.1999999 -1,4 -5,4 0,-2.4 2,-4 5,-4 z"
         id="path1158"
         sodipodi:nodetypes="ccc" />
      <path
         style="fill:#ffffff;stroke:none;stroke-width:1px;stroke-linecap:butt;stroke-linejoin:miter;stroke-opacity:1"
         d="M 12,1.9289321 C 9.87868,4.0502524 9.87868,6.8786796 12,9 14.12132,6.8786796 14.12132,4.0502524 12,1.9289321 Z"
         id="path1160"
         sodipodi:nodetypes="ccc" />
    </g>
    <path
       style="fill:#ffffff;stroke:none;stroke-width:1px;stroke-linecap:butt;stroke-linejoin:miter;stroke-opacity:1"
       d="M 8,13 10,21.71421 12,20 9.7202478,12.281001 9,13 Z"
       id="path1164"
       sodipodi:nodetypes="cccccc" />
  </g>
</svg>
