<?xml version="1.0" encoding="UTF-8" standalone="no"?>
<svg
   xmlns:dc="http://purl.org/dc/elements/1.1/"
   xmlns:cc="http://creativecommons.org/ns#"
   xmlns:rdf="http://www.w3.org/1999/02/22-rdf-syntax-ns#"
   xmlns:svg="http://www.w3.org/2000/svg"
   xmlns="http://www.w3.org/2000/svg"
   xmlns:sodipodi="http://sodipodi.sourceforge.net/DTD/sodipodi-0.dtd"
   xmlns:inkscape="http://www.inkscape.org/namespaces/inkscape"
   width="24"
   height="24"
   viewBox="0 0 24 24"
   version="1.1"
   id="svg6"
   sodipodi:docname="contains-sulphur-dioxide-and-sulphites.svg"
   inkscape:version="1.0.1 (3bc2e813f5, 2020-09-07)">
  <metadata
     id="metadata12">
    <rdf:RDF>
      <cc:Work
         rdf:about="">
        <dc:format>image/svg+xml</dc:format>
        <dc:type
           rdf:resource="http://purl.org/dc/dcmitype/StillImage" />
        <dc:title></dc:title>
      </cc:Work>
    </rdf:RDF>
  </metadata>
  <defs
     id="defs10" />
  <sodipodi:namedview
     pagecolor="#ffffff"
     bordercolor="#666666"
     borderopacity="1"
     objecttolerance="10"
     gridtolerance="10"
     guidetolerance="10"
     inkscape:pageopacity="0"
     inkscape:pageshadow="2"
     inkscape:window-width="1848"
     inkscape:window-height="1022"
     id="namedview8"
     showgrid="true"
     inkscape:snap-global="true"
     inkscape:snap-to-guides="false"
     inkscape:snap-grids="true"
     inkscape:zoom="27.812867"
     inkscape:cx="17.361536"
     inkscape:cy="13.107796"
     inkscape:window-x="72"
     inkscape:window-y="21"
     inkscape:window-maximized="1"
     inkscape:current-layer="svg6"
     inkscape:document-rotation="0">
    <inkscape:grid
       type="xygrid"
       id="grid822" />
  </sodipodi:namedview>
  <rect
     style="fill:#ff0000;stroke:none"
     id="rect1706"
     width="24"
     height="24"
     x="0"
     y="0"
     ry="5" />
  <path
     style="fill:#ffffff;stroke:none;stroke-width:1px;stroke-linecap:butt;stroke-linejoin:miter;stroke-opacity:1"
     d="m 7,3 c 0,0 -1.7071068,3.8786797 -1,6 1,3 5,5 5,5 v 6 l -4,1 v 1 h 9 v -1 l -4,-1 v -6 c 0,0 4,-2 5,-5 0.641179,-1.9235384 -1,-6 -1,-6 z"
     id="path879"
     sodipodi:nodetypes="csccccccccscc" />
  <g
     id="g898"
     style="fill:#ffffff"
     transform="translate(5.560349,9.233307)">
    <path
       d="m 10.05648,8.6411981 q 0,0.6411963 -0.4651165,1.0000005 -0.4651165,0.3588044 -1.2624591,0.3588044 -0.8637878,0 -1.3289043,-0.2225917 V 9.2325605 q 0.2990035,0.1262459 0.6511631,0.1993356 0.3521597,0.07309 0.6976748,0.07309 0.5647843,0 0.8504987,-0.2126247 0.2857144,-0.2159469 0.2857144,-0.5980069 0,-0.2524918 -0.1029901,-0.4119604 Q 9.2823932,8.1196032 9.0431905,7.9833905 8.8073099,7.8471778 8.3222599,7.6744202 7.6445187,7.4318952 7.3521598,7.0996691 7.0631231,6.7674431 7.0631231,6.2325591 q 0,-0.5614621 0.4219271,-0.8936881 0.4219271,-0.3322261 1.1162796,-0.3322261 0.7242528,0 1.3322265,0.2657809 L 9.7574765,5.7641203 Q 9.1561473,5.5116285 8.5880407,5.5116285 q -0.4485052,0 -0.700997,0.1926912 -0.2524918,0.1926911 -0.2524918,0.5348839 0,0.2524918 0.093023,0.4152826 0.093023,0.1594685 0.3122925,0.2956812 0.2225915,0.1328904 0.6777412,0.2956812 0.76412,0.2724254 1.0498344,0.5847179 0.289037,0.3122925 0.289037,0.8106316 z"
       style="font-style:normal;font-variant:normal;font-weight:normal;font-stretch:normal;font-size:6.80399px;line-height:1.25;font-family:'Open Sans';-inkscape-font-specification:'Open Sans';fill:#ffffff;fill-opacity:1;stroke:none;stroke-width:0.1701"
       id="path885" />
    <path
       d="m 14.870434,7.4983404 q 0,1.1661135 -0.591363,1.8338879 -0.58804,0.6677747 -1.637874,0.6677747 -1.07309,0 -1.657808,-0.6544856 -0.581396,-0.6578076 -0.581396,-1.8538215 0,-1.1860471 0.584718,-1.8372102 0.584718,-0.6544853 1.66113,-0.6544853 1.046512,0 1.634553,0.6644521 0.58804,0.6644522 0.58804,1.8338879 z m -3.870434,0 q 0,0.9867115 0.418605,1.4983396 0.421927,0.5083059 1.222592,0.5083059 0.807309,0 1.219269,-0.5083059 0.411961,-0.5083059 0.411961,-1.4983396 0,-0.9800669 -0.411961,-1.4850505 -0.408638,-0.5083059 -1.212625,-0.5083059 -0.807309,0 -1.229236,0.5116282 Q 11,6.524918 11,7.4983404 Z"
       style="font-style:normal;font-variant:normal;font-weight:normal;font-stretch:normal;font-size:6.80399px;line-height:1.25;font-family:'Open Sans';-inkscape-font-specification:'Open Sans';fill:#ffffff;fill-opacity:1;stroke:none;stroke-width:0.1701"
       id="path887" />
    <path
       d="m 16.439651,11.026298 h -1.620027 v -0.241066 l 0.649023,-0.652393 q 0.296695,-0.3000678 0.391099,-0.4281864 0.0944,-0.1281187 0.141605,-0.2494943 0.0472,-0.1213756 0.0472,-0.2612947 0,-0.1972353 -0.119689,-0.3118678 -0.11969,-0.1163182 -0.332097,-0.1163182 -0.153406,0 -0.291639,0.050573 Q 15.168576,8.8668236 15,9 L 14.851654,8.809508 q 0.340525,-0.2832097 0.741739,-0.2832097 0.347269,0 0.544506,0.1786919 0.197235,0.177006 0.197235,0.4770734 0,0.2343223 -0.131491,0.4635874 -0.131491,0.2292652 -0.492245,0.579905 l -0.539448,0.527647 v 0.01349 h 1.267701 z"
       style="font-style:normal;font-variant:normal;font-weight:normal;font-stretch:normal;font-size:6.80399px;line-height:1.25;font-family:'Open Sans';-inkscape-font-specification:'Open Sans';fill:#ffffff;fill-opacity:1;stroke:none;stroke-width:0.0863115"
       id="path889" />
  </g>
</svg>
