<svg xmlns="http://www.w3.org/2000/svg" id="svg2032" width="240" height="130" version="1.1" viewBox="0 0 240 130">
  <defs id="defs2029">
    <clipPath id="clipPath1836" clipPathUnits="userSpaceOnUse">
      <path id="path1838" stroke-width="1" d="M-576.406-131.683h841.89v595.276h-841.89z"/>
    </clipPath>
    <clipPath id="clipPath1817" clipPathUnits="userSpaceOnUse">
      <path id="path1819" stroke-width="1" d="M-480.445-91.617h841.89V503.66h-841.89z"/>
    </clipPath>
    <clipPath id="clipPath1872" clipPathUnits="userSpaceOnUse">
      <path id="path1874" stroke-width="1" d="M-488.313-132.237h841.89v595.276h-841.89z"/>
    </clipPath>
    <clipPath id="clipPath1878" clipPathUnits="userSpaceOnUse">
      <path id="path1880" stroke-width="1" d="M-519.714-136.177h841.89V459.1h-841.89z"/>
    </clipPath>
    <clipPath id="clipPath1886" clipPathUnits="userSpaceOnUse">
      <path id="path1888" stroke-width="1" d="M-521.325-134.642h841.89v595.276h-841.89z"/>
    </clipPath>
    <clipPath id="clipPath1892" clipPathUnits="userSpaceOnUse">
      <path id="path1894" stroke-width="1" d="M-532.144-130.648h841.89v595.276h-841.89z"/>
    </clipPath>
    <clipPath id="clipPath1898" clipPathUnits="userSpaceOnUse">
      <path id="path1900" stroke-width="1" d="M-500.02-102.749h841.89v595.276h-841.89z"/>
    </clipPath>
    <clipPath id="clipPath1904" clipPathUnits="userSpaceOnUse">
      <path id="path1906" stroke-width="1" d="M-522.55-115.224h841.89v595.276h-841.89z"/>
    </clipPath>
    <clipPath id="clipPath1910" clipPathUnits="userSpaceOnUse">
      <path id="path1912" stroke-width="1" d="M-561.373-85.195h841.89v595.276h-841.89z"/>
    </clipPath>
    <clipPath id="clipPath1916" clipPathUnits="userSpaceOnUse">
      <path id="path1918" stroke-width="1" d="M-562.786-87.568h841.89v595.276h-841.89z"/>
    </clipPath>
    <clipPath id="clipPath1593" clipPathUnits="userSpaceOnUse">
      <path id="path1595" stroke-width="1" d="M-503.056-291.81h841.89v595.277h-841.89z"/>
    </clipPath>
    <clipPath id="clipPath1929" clipPathUnits="userSpaceOnUse">
      <path id="path1931" stroke-width="1" d="M-503.055-239.322h841.89v595.276h-841.89z"/>
    </clipPath>
    <clipPath id="clipPath1605" clipPathUnits="userSpaceOnUse">
      <path id="path1607" stroke-width="1" d="M-427.382-279.942h841.89v595.276h-841.89z"/>
    </clipPath>
    <clipPath id="clipPath1618" clipPathUnits="userSpaceOnUse">
      <path id="path1620" stroke-width="1" d="M-458.785-283.881h841.89v595.276h-841.89z"/>
    </clipPath>
    <clipPath id="clipPath1611" clipPathUnits="userSpaceOnUse">
      <path id="path1613" stroke-width="1" d="M-460.394-282.347h841.89v595.276h-841.89z"/>
    </clipPath>
    <clipPath id="clipPath1599" clipPathUnits="userSpaceOnUse">
      <path id="path1601" stroke-width="1" d="M-471.214-278.353h841.89v595.276h-841.89z"/>
    </clipPath>
    <clipPath id="clipPath1624" clipPathUnits="userSpaceOnUse">
      <path id="path1626" stroke-width="1" d="M-441.091-250.452h841.89v595.276h-841.89z"/>
    </clipPath>
    <clipPath id="clipPath1630" clipPathUnits="userSpaceOnUse">
      <path id="path1632" stroke-width="1" d="M-461.62-262.929h841.89v595.276h-841.89z"/>
    </clipPath>
    <clipPath id="clipPath1636" clipPathUnits="userSpaceOnUse">
      <path id="path1638" stroke-width="1" d="M-478.601-250.452h841.89v595.276h-841.89z"/>
    </clipPath>
    <clipPath id="clipPath1642" clipPathUnits="userSpaceOnUse">
      <path id="path1644" stroke-width="1" d="M-420.708-232.9h841.89v595.276h-841.89z"/>
    </clipPath>
    <clipPath id="clipPath1922" clipPathUnits="userSpaceOnUse">
      <path id="path1924" stroke-width="1" d="M-422.121-235.273h841.89v595.276h-841.89z"/>
    </clipPath>
    <clipPath id="clipPath1866" clipPathUnits="userSpaceOnUse">
      <path id="path1868" stroke-width="1" d="M-625.833-291.81h841.89v595.277h-841.89z"/>
    </clipPath>
    <clipPath id="clipPath1717" clipPathUnits="userSpaceOnUse">
      <path id="path1719" stroke-width="1" d="M-625.833-239.322h841.89v595.276h-841.89z"/>
    </clipPath>
    <clipPath id="clipPath1729" clipPathUnits="userSpaceOnUse">
      <path id="path1731" stroke-width="1" d="M-542.292-239.322h841.89v595.276h-841.89z"/>
    </clipPath>
    <clipPath id="clipPath1735" clipPathUnits="userSpaceOnUse">
      <path id="path1737" stroke-width="1" d="M-586.47-262.929h841.89v595.276h-841.89z"/>
    </clipPath>
    <clipPath id="clipPath1741" clipPathUnits="userSpaceOnUse">
      <path id="path1743" stroke-width="1" d="M-601.38-250.452h841.89v595.276h-841.89z"/>
    </clipPath>
    <clipPath id="clipPath1747" clipPathUnits="userSpaceOnUse">
      <path id="path1749" stroke-width="1" d="M-550.16-279.942h841.89v595.276h-841.89z"/>
    </clipPath>
    <clipPath id="clipPath1759" clipPathUnits="userSpaceOnUse">
      <path id="path1761" stroke-width="1" d="M-581.562-283.881h841.89v595.276h-841.89z"/>
    </clipPath>
    <clipPath id="clipPath1765" clipPathUnits="userSpaceOnUse">
      <path id="path1767" stroke-width="1" d="M-583.172-282.347h841.89v595.276h-841.89z"/>
    </clipPath>
    <clipPath id="clipPath1773" clipPathUnits="userSpaceOnUse">
      <path id="path1775" stroke-width="1" d="M-593.991-278.353h841.89v595.276h-841.89z"/>
    </clipPath>
    <clipPath id="clipPath1779" clipPathUnits="userSpaceOnUse">
      <path id="path1781" stroke-width="1" d="M-563.464-232.9h841.89v595.276h-841.89z"/>
    </clipPath>
    <clipPath id="clipPath1785" clipPathUnits="userSpaceOnUse">
      <path id="path1787" stroke-width="1" d="M-564.877-235.273h841.89v595.276h-841.89z"/>
    </clipPath>
    <clipPath id="clipPath1792" clipPathUnits="userSpaceOnUse">
      <path id="path1794" stroke-width="1" d="M-503.055-216.392h841.89v595.276h-841.89z"/>
    </clipPath>
    <clipPath id="clipPath1753" clipPathUnits="userSpaceOnUse">
      <path id="path1755" stroke-width="1" d="M-503.055-163.905h841.89v595.276h-841.89z"/>
    </clipPath>
    <clipPath id="clipPath1723" clipPathUnits="userSpaceOnUse">
      <path id="path1725" stroke-width="1" d="M-419.514-163.905h841.89v595.276h-841.89z"/>
    </clipPath>
    <clipPath id="clipPath1798" clipPathUnits="userSpaceOnUse">
      <path id="path1800" stroke-width="1" d="M-427.382-204.525h841.89v595.276h-841.89z"/>
    </clipPath>
    <clipPath id="clipPath1804" clipPathUnits="userSpaceOnUse">
      <path id="path1806" stroke-width="1" d="M-458.784-208.465h841.89v595.276h-841.89z"/>
    </clipPath>
    <clipPath id="clipPath1810" clipPathUnits="userSpaceOnUse">
      <path id="path1812" stroke-width="1" d="M-460.394-206.93h841.89v595.276h-841.89z"/>
    </clipPath>
    <clipPath id="clipPath1823" clipPathUnits="userSpaceOnUse">
      <path id="path1825" stroke-width="1" d="M-471.213-202.936h841.89V392.34h-841.89z"/>
    </clipPath>
    <clipPath id="clipPath1830" clipPathUnits="userSpaceOnUse">
      <path id="path1832" stroke-width="1" d="M-437.456-175.036h841.89V420.24h-841.89z"/>
    </clipPath>
    <clipPath id="clipPath1848" clipPathUnits="userSpaceOnUse">
      <path id="path1850" stroke-width="1" d="M-480.209-175.036h841.89V420.24h-841.89z"/>
    </clipPath>
    <clipPath id="clipPath1842" clipPathUnits="userSpaceOnUse">
      <path id="path1844" stroke-width="1" d="M-460.551-157.483h841.89v595.276h-841.89z"/>
    </clipPath>
    <clipPath id="clipPath1854" clipPathUnits="userSpaceOnUse">
      <path id="path1856" stroke-width="1" d="M-461.964-159.856h841.89V435.42h-841.89z"/>
    </clipPath>
    <clipPath id="clipPath1860" clipPathUnits="userSpaceOnUse">
      <path id="path1862" stroke-width="1" d="M-452.876-180.763h841.89v595.276h-841.89z"/>
    </clipPath>
    <clipPath id="clipPath1648" clipPathUnits="userSpaceOnUse">
      <path id="path1650" stroke-width="1" d="M-625.835-216.392h841.89v595.276h-841.89z"/>
    </clipPath>
    <clipPath id="clipPath1655" clipPathUnits="userSpaceOnUse">
      <path id="path1657" stroke-width="1" d="M-625.833-163.905h841.89v595.276h-841.89z"/>
    </clipPath>
    <clipPath id="clipPath1661" clipPathUnits="userSpaceOnUse">
      <path id="path1663" stroke-width="1" d="M-542.292-163.905h841.89v595.276h-841.89z"/>
    </clipPath>
    <clipPath id="clipPath1673" clipPathUnits="userSpaceOnUse">
      <path id="path1675" stroke-width="1" d="M-550.16-204.525h841.89v595.276h-841.89z"/>
    </clipPath>
    <clipPath id="clipPath1667" clipPathUnits="userSpaceOnUse">
      <path id="path1669" stroke-width="1" d="M-581.562-208.465h841.89v595.276h-841.89z"/>
    </clipPath>
    <clipPath id="clipPath1687" clipPathUnits="userSpaceOnUse">
      <path id="path1689" stroke-width="1" d="M-583.173-206.93h841.89v595.276h-841.89z"/>
    </clipPath>
    <clipPath id="clipPath1680" clipPathUnits="userSpaceOnUse">
      <path id="path1682" stroke-width="1" d="M-593.993-202.935h841.89V392.34h-841.89z"/>
    </clipPath>
    <clipPath id="clipPath1693" clipPathUnits="userSpaceOnUse">
      <path id="path1695" stroke-width="1" d="M-561.868-175.036h841.89V420.24h-841.89z"/>
    </clipPath>
    <clipPath id="clipPath1699" clipPathUnits="userSpaceOnUse">
      <path id="path1701" stroke-width="1" d="M-582.388-187.512h841.89v595.276h-841.89z"/>
    </clipPath>
    <clipPath id="clipPath1705" clipPathUnits="userSpaceOnUse">
      <path id="path1707" stroke-width="1" d="M-603.22-157.483h841.89v595.276h-841.89z"/>
    </clipPath>
    <clipPath id="clipPath1711" clipPathUnits="userSpaceOnUse">
      <path id="path1713" stroke-width="1" d="M-604.633-159.856h841.89V435.42h-841.89z"/>
    </clipPath>
    <clipPath id="clipPath1836-3" clipPathUnits="userSpaceOnUse">
      <path id="path1838-6" stroke-width="1" d="M-576.406-131.683h841.89v595.276h-841.89z"/>
    </clipPath>
    <clipPath id="clipPath1817-7" clipPathUnits="userSpaceOnUse">
      <path id="path1819-5" stroke-width="1" d="M-480.445-91.617h841.89V503.66h-841.89z"/>
    </clipPath>
    <clipPath id="clipPath1872-3" clipPathUnits="userSpaceOnUse">
      <path id="path1874-5" stroke-width="1" d="M-488.313-132.237h841.89v595.276h-841.89z"/>
    </clipPath>
    <clipPath id="clipPath1878-6" clipPathUnits="userSpaceOnUse">
      <path id="path1880-2" stroke-width="1" d="M-519.714-136.177h841.89V459.1h-841.89z"/>
    </clipPath>
    <clipPath id="clipPath1886-9" clipPathUnits="userSpaceOnUse">
      <path id="path1888-1" stroke-width="1" d="M-521.325-134.642h841.89v595.276h-841.89z"/>
    </clipPath>
    <clipPath id="clipPath1892-2" clipPathUnits="userSpaceOnUse">
      <path id="path1894-7" stroke-width="1" d="M-532.144-130.648h841.89v595.276h-841.89z"/>
    </clipPath>
    <clipPath id="clipPath1898-0" clipPathUnits="userSpaceOnUse">
      <path id="path1900-9" stroke-width="1" d="M-500.02-102.749h841.89v595.276h-841.89z"/>
    </clipPath>
    <clipPath id="clipPath1904-3" clipPathUnits="userSpaceOnUse">
      <path id="path1906-6" stroke-width="1" d="M-522.55-115.224h841.89v595.276h-841.89z"/>
    </clipPath>
    <clipPath id="clipPath1910-0" clipPathUnits="userSpaceOnUse">
      <path id="path1912-6" stroke-width="1" d="M-561.373-85.195h841.89v595.276h-841.89z"/>
    </clipPath>
    <clipPath id="clipPath1916-2" clipPathUnits="userSpaceOnUse">
      <path id="path1918-6" stroke-width="1" d="M-562.786-87.568h841.89v595.276h-841.89z"/>
    </clipPath>
    <clipPath id="clipPath2322" clipPathUnits="userSpaceOnUse">
      <path id="path2324" stroke-width="1" d="M-537.03-102.748h841.89v595.276h-841.89z"/>
    </clipPath>
    <clipPath id="clipPath2310" clipPathUnits="userSpaceOnUse">
      <path id="path2312" stroke-width="1" d="M-479.578-329.849h841.89v595.276h-841.89z"/>
    </clipPath>
    <clipPath id="clipPath2316" clipPathUnits="userSpaceOnUse">
      <path id="path2318" stroke-width="1" d="M-479.578-331.758h841.89v595.276h-841.89z"/>
    </clipPath>
    <clipPath id="clipPath2328" clipPathUnits="userSpaceOnUse">
      <path id="path2330" stroke-width="1" d="M-487.594-375.361h841.89v595.276h-841.89z"/>
    </clipPath>
    <clipPath id="clipPath2341" clipPathUnits="userSpaceOnUse">
      <path id="path2343" stroke-width="1" d="M-519.58-379.175h841.89v595.276h-841.89z"/>
    </clipPath>
    <clipPath id="clipPath2334" clipPathUnits="userSpaceOnUse">
      <path id="path2336" stroke-width="1" d="M-521.221-377.69h841.89v595.276h-841.89z"/>
    </clipPath>
    <clipPath id="clipPath2368" clipPathUnits="userSpaceOnUse">
      <path id="path2370" stroke-width="1" d="M-532.242-373.822h841.89v595.276h-841.89z"/>
    </clipPath>
    <clipPath id="clipPath2347" clipPathUnits="userSpaceOnUse">
      <path id="path2349" stroke-width="1" d="M-564.678-336.04h841.89v595.275h-841.89z"/>
    </clipPath>
    <clipPath id="clipPath2353" clipPathUnits="userSpaceOnUse">
      <path id="path2355" stroke-width="1" d="M-479.578-336.04h841.89v595.275h-841.89z"/>
    </clipPath>
    <clipPath id="clipPath2361" clipPathUnits="userSpaceOnUse">
      <path id="path2363" stroke-width="1" d="M-515.48-351.719h841.89v595.276h-841.89z"/>
    </clipPath>
    <clipPath id="clipPath1593-1" clipPathUnits="userSpaceOnUse">
      <path id="path1595-8" stroke-width="1" d="M-503.056-291.81h841.89v595.277h-841.89z"/>
    </clipPath>
    <clipPath id="clipPath1929-7" clipPathUnits="userSpaceOnUse">
      <path id="path1931-9" stroke-width="1" d="M-503.055-239.322h841.89v595.276h-841.89z"/>
    </clipPath>
    <clipPath id="clipPath1605-2" clipPathUnits="userSpaceOnUse">
      <path id="path1607-0" stroke-width="1" d="M-427.382-279.942h841.89v595.276h-841.89z"/>
    </clipPath>
    <clipPath id="clipPath1618-2" clipPathUnits="userSpaceOnUse">
      <path id="path1620-3" stroke-width="1" d="M-458.785-283.881h841.89v595.276h-841.89z"/>
    </clipPath>
    <clipPath id="clipPath1611-7" clipPathUnits="userSpaceOnUse">
      <path id="path1613-5" stroke-width="1" d="M-460.394-282.347h841.89v595.276h-841.89z"/>
    </clipPath>
    <clipPath id="clipPath1599-9" clipPathUnits="userSpaceOnUse">
      <path id="path1601-2" stroke-width="1" d="M-471.214-278.353h841.89v595.276h-841.89z"/>
    </clipPath>
    <clipPath id="clipPath1624-2" clipPathUnits="userSpaceOnUse">
      <path id="path1626-8" stroke-width="1" d="M-441.091-250.452h841.89v595.276h-841.89z"/>
    </clipPath>
    <clipPath id="clipPath1630-9" clipPathUnits="userSpaceOnUse">
      <path id="path1632-7" stroke-width="1" d="M-461.62-262.929h841.89v595.276h-841.89z"/>
    </clipPath>
    <clipPath id="clipPath1636-3" clipPathUnits="userSpaceOnUse">
      <path id="path1638-6" stroke-width="1" d="M-478.601-250.452h841.89v595.276h-841.89z"/>
    </clipPath>
    <clipPath id="clipPath1642-1" clipPathUnits="userSpaceOnUse">
      <path id="path1644-2" stroke-width="1" d="M-420.708-232.9h841.89v595.276h-841.89z"/>
    </clipPath>
    <clipPath id="clipPath1922-9" clipPathUnits="userSpaceOnUse">
      <path id="path1924-3" stroke-width="1" d="M-422.121-235.273h841.89v595.276h-841.89z"/>
    </clipPath>
    <clipPath id="clipPath2310-1" clipPathUnits="userSpaceOnUse">
      <path id="path2312-9" stroke-width="1" d="M-479.578-329.849h841.89v595.276h-841.89z"/>
    </clipPath>
    <clipPath id="clipPath2316-4" clipPathUnits="userSpaceOnUse">
      <path id="path2318-7" stroke-width="1" d="M-479.578-331.758h841.89v595.276h-841.89z"/>
    </clipPath>
    <clipPath id="clipPath2328-8" clipPathUnits="userSpaceOnUse">
      <path id="path2330-4" stroke-width="1" d="M-487.594-375.361h841.89v595.276h-841.89z"/>
    </clipPath>
    <clipPath id="clipPath2341-5" clipPathUnits="userSpaceOnUse">
      <path id="path2343-0" stroke-width="1" d="M-519.58-379.175h841.89v595.276h-841.89z"/>
    </clipPath>
    <clipPath id="clipPath2334-3" clipPathUnits="userSpaceOnUse">
      <path id="path2336-6" stroke-width="1" d="M-521.221-377.69h841.89v595.276h-841.89z"/>
    </clipPath>
    <clipPath id="clipPath2368-1" clipPathUnits="userSpaceOnUse">
      <path id="path2370-0" stroke-width="1" d="M-532.242-373.822h841.89v595.276h-841.89z"/>
    </clipPath>
    <clipPath id="clipPath2347-6" clipPathUnits="userSpaceOnUse">
      <path id="path2349-3" stroke-width="1" d="M-564.678-336.04h841.89v595.275h-841.89z"/>
    </clipPath>
    <clipPath id="clipPath2353-2" clipPathUnits="userSpaceOnUse">
      <path id="path2355-0" stroke-width="1" d="M-479.578-336.04h841.89v595.275h-841.89z"/>
    </clipPath>
    <clipPath id="clipPath2361-6" clipPathUnits="userSpaceOnUse">
      <path id="path2363-1" stroke-width="1" d="M-515.48-351.719h841.89v595.276h-841.89z"/>
    </clipPath>
  </defs>
  <g id="layer1">
    <g id="g2493" stroke-width="1.636">
      <path id="path13397" fill="#fff" d="M.001 109.318C.001 120.723 9.682 130 21.579 130h196.85c11.894 0 21.573-9.28 21.573-20.682V20.681C240.002 9.277 230.322 0 218.428 0H21.577C9.682 0 0 9.279 0 20.68z"/>
      <path id="path13399" fill="#1e8f4e" fill-rule="evenodd" d="M2.35 109.318c0 10.017 8.535 18.334 19.229 18.334h196.85c10.693 0 19.227-8.32 19.227-18.334V20.681c0-10.016-8.534-18.333-19.228-18.333H21.577c-10.694 0-19.228 8.32-19.228 18.333zM21.578 130C9.684 130 0 120.723 0 109.318V20.681C.001 9.28 9.68 0 21.577 0h196.851c11.895 0 21.574 9.277 21.574 20.681v88.64c0 11.402-9.68 20.681-21.574 20.681z" clip-rule="evenodd"/>
      <path id="path13401" fill="#1d1d1b" d="M148.955 39.38h-26.141c.825 6.052 6.009 9.113 11.118 9.113 7.511 0 11.267-3.645 11.267-3.645v7.29s-3.756 3.649-11.267 3.649c-11.268 0-18.78-7.292-18.78-18.233s7.512-18.234 16.904-18.234c9.39 0 16.901 7.29 16.901 18.234v1.825zm-25.916-5.474h18.03c-1.053-4.883-4.434-7.29-9.018-7.29-4.58 0-7.96 2.407-9.012 7.293z"/>
      <path id="path13403" fill="#1d1d1b" d="M179.106 21.145v7.293s-5.473-1.825-9.116-1.825c-5.473 0-10.939 3.648-10.939 10.941 0 7.291 5.47 10.94 10.939 10.94 3.648 0 9.114-1.826 9.114-1.826v7.296s-3.646 1.823-9.114 1.823c-10.939 0-18.234-7.292-18.234-18.233S159.05 19.32 169.99 19.32c5.468 0 9.114 1.825 9.114 1.825z"/>
      <path id="path13405" fill="#1d1d1b" d="M218.342 37.556c0 10.94-7.293 18.233-18.232 18.233-10.941 0-18.234-7.291-18.234-18.233s7.293-18.234 18.234-18.234c10.939 0 18.232 7.293 18.232 18.234zm-29.173 0c0 7.292 5.473 10.94 10.941 10.94 5.47 0 10.939-3.648 10.939-10.94 0-7.295-5.473-10.94-10.939-10.94-5.47 0-10.941 3.645-10.941 10.94z"/>
      <path id="path13407" fill="#1d1d1b" d="M123.174 109.541c-3.714 0-7.426-1.236-7.426-1.236v-4.95s3.712 1.236 7.426 1.236c2.471 0 3.711-1.236 3.711-2.471 0-3.714-11.717-1.24-11.717-9.902 0-4.948 3.056-7.426 8.006-7.426 3.714 0 7.428 1.24 7.428 1.24v4.948s-3.714-1.236-7.428-1.236c-2.472 0-3.712 1.236-3.712 2.472 0 3.714 12.375 1.238 12.375 9.901-.002 4.95-3.716 7.426-8.663 7.426z"/>
      <path id="path13409" fill="#1d1d1b" d="M151.881 86.032v4.948s-3.711-1.236-6.187-1.236c-3.712 0-7.426 2.472-7.426 7.424 0 4.95 3.714 7.425 7.426 7.425 2.476 0 6.187-1.238 6.187-1.238v4.948s-2.473 1.24-6.187 1.24c-7.426 0-12.374-4.95-12.374-12.375 0-7.426 4.948-12.376 12.374-12.376 3.714 0 6.187 1.24 6.187 1.24z"/>
      <path id="path13411" fill="#1d1d1b" d="M178.663 97.168c0 7.425-4.95 12.375-12.376 12.375-7.426 0-12.375-4.95-12.375-12.375 0-7.426 4.95-12.376 12.375-12.376 7.426 0 12.376 4.95 12.376 12.376zm-19.802 0c0 4.95 3.712 7.425 7.426 7.425s7.426-2.473 7.426-7.425c0-4.95-3.712-7.426-7.426-7.426s-7.426 2.476-7.426 7.426z"/>
      <path id="path13413" fill="#1d1d1b" d="M195.64 84.792v4.95c-4.95 0-9.902 1.238-9.902 7.426v12.375h-4.948v-24.75h4.948v9.9c.002-6.187 3.713-9.9 9.901-9.9z"/>
      <path id="path13415" fill="#1d1d1b" d="M218.161 98.406h-17.226c.545 4.109 3.961 6.187 7.327 6.187 4.95 0 7.426-2.473 7.426-2.473v4.947s-2.476 2.476-7.426 2.476c-7.426 0-12.376-4.95-12.376-12.375 0-7.426 4.95-12.376 11.138-12.376s11.135 4.95 11.135 12.376v1.238zm-17.078-3.712h11.881c-.692-3.317-2.92-4.95-5.938-4.95-3.023 0-5.248 1.633-5.943 4.95z"/>
      <path id="path13417" fill="#d93726" d="M221.418 70.031a7.79 7.79 0 0 0-7.79-7.79h-22.457a7.792 7.792 0 0 0 0 15.582h22.453a7.792 7.792 0 0 0 7.792-7.79z"/>
      <path id="path13419" fill="#fff" d="M222.4 70.033a8.783 8.783 0 0 1-8.771 8.77h-22.454a8.783 8.783 0 0 1-8.772-8.77 8.78 8.78 0 0 1 8.772-8.772h22.454a8.78 8.78 0 0 1 8.772 8.772zm-8.771 6.808a6.819 6.819 0 0 0 6.81-6.808 6.819 6.819 0 0 0-6.81-6.81h-22.454a6.819 6.819 0 0 0-6.81 6.81 6.819 6.819 0 0 0 6.81 6.808z"/>
      <path id="path13421" fill="#ef7e1a" d="M200.818 70.031a7.789 7.789 0 0 0-7.79-7.79h-21.555a7.792 7.792 0 0 0 0 15.582h21.556a7.794 7.794 0 0 0 7.79-7.79z"/>
      <path id="path13423" fill="#fff" d="M201.798 70.033a8.783 8.783 0 0 1-8.77 8.77h-21.513a8.783 8.783 0 0 1-8.77-8.77 8.78 8.78 0 0 1 8.77-8.772h21.514a8.78 8.78 0 0 1 8.77 8.772zm-8.77 6.808a6.819 6.819 0 0 0 6.81-6.808 6.819 6.819 0 0 0-6.81-6.81h-21.513a6.819 6.819 0 0 0-6.81 6.81 6.819 6.819 0 0 0 6.81 6.808z"/>
      <path id="path13425" fill="#f5c100" d="M181.423 70.031a7.789 7.789 0 0 0-7.79-7.79H151.86a7.79 7.79 0 0 0 0 15.582h21.774a7.794 7.794 0 0 0 7.79-7.79z"/>
      <path id="path13427" fill="#fff" d="M182.403 70.033a8.783 8.783 0 0 1-8.77 8.77H151.86a8.78 8.78 0 0 1-8.772-8.77 8.78 8.78 0 0 1 8.772-8.772h21.774a8.78 8.78 0 0 1 8.77 8.772zm-8.77 6.808a6.819 6.819 0 0 0 6.808-6.808 6.819 6.819 0 0 0-6.808-6.81H151.86a6.819 6.819 0 0 0-6.81 6.81 6.819 6.819 0 0 0 6.81 6.808z"/>
      <path id="path13429" fill="#2ecc71" d="M161.765 70.031a7.79 7.79 0 0 0-7.79-7.79H132.2a7.792 7.792 0 0 0 0 15.582h21.774a7.794 7.794 0 0 0 7.79-7.79z"/>
      <path id="path13431" fill="#fff" d="M162.745 70.033a8.783 8.783 0 0 1-8.772 8.77H132.2a8.78 8.78 0 0 1-8.77-8.77 8.78 8.78 0 0 1 8.77-8.772h21.774a8.78 8.78 0 0 1 8.772 8.772zm-8.772 6.808a6.819 6.819 0 0 0 6.81-6.808 6.819 6.819 0 0 0-6.81-6.81H132.2a6.819 6.819 0 0 0-6.808 6.81 6.819 6.819 0 0 0 6.808 6.808z"/>
      <path id="path13433" fill="#1e8f4e" d="M142.136 70.031a7.789 7.789 0 0 0-7.79-7.79h-14.725a7.792 7.792 0 0 0 0 15.582h14.725a7.794 7.794 0 0 0 7.79-7.79z"/>
      <path id="path13435" fill="#fff" d="M143.116 70.033a8.78 8.78 0 0 1-8.77 8.77h-14.725a8.78 8.78 0 0 1-8.772-8.77 8.78 8.78 0 0 1 8.772-8.772h14.725a8.78 8.78 0 0 1 8.77 8.772zm-8.77 6.808a6.819 6.819 0 0 0 6.81-6.808 6.819 6.819 0 0 0-6.81-6.81h-14.725a6.819 6.819 0 0 0-6.81 6.81 6.819 6.819 0 0 0 6.81 6.808z"/>
      <path id="path13437" fill="#1e8f4e" d="M100.57 18.064c1.589-.132 3.065 1.34 2.928 2.929-.196 2.266-3.014 53.75-19.49 70.225-15.792 15.79-34.397 12.084-46.547 3.35a13.395 13.395 0 0 1-.494-.377l-10.953 10.936a6.775 6.775 0 0 1-9.581-9.581l10.939-10.95a13.141 13.141 0 0 1-.38-.497c-8.732-12.148-12.44-30.753 3.35-46.547 16.478-16.476 67.96-19.296 70.228-19.488z"/>
      <path id="path13439" fill="#fff" d="M72.264 81.118c2.374 0 4.073-1.589 4.073-3.829 0-.81-.134-1.538-.514-2.59L65.143 45.73c-1.16-3.182-3.048-4.585-6.23-4.585-3.077 0-4.992 1.456-6.124 4.612L42.161 74.698c-.35 1-.538 1.916-.538 2.591 0 2.346 1.589 3.831 4.126 3.831 2.159 0 3.372-1.081 4.127-3.67l2.05-6.068H65.98l2.05 6.15c.728 2.535 1.942 3.588 4.235 3.588zM64.092 65.07H53.707l5.042-15.941h.19z"/>
    </g>
  </g>
</svg>
