<?xml version="1.0" encoding="UTF-8" standalone="no"?>
<svg
   xmlns:dc="http://purl.org/dc/elements/1.1/"
   xmlns:cc="http://creativecommons.org/ns#"
   xmlns:rdf="http://www.w3.org/1999/02/22-rdf-syntax-ns#"
   xmlns:svg="http://www.w3.org/2000/svg"
   xmlns="http://www.w3.org/2000/svg"
   xmlns:sodipodi="http://sodipodi.sourceforge.net/DTD/sodipodi-0.dtd"
   xmlns:inkscape="http://www.inkscape.org/namespaces/inkscape"
   width="274"
   height="130"
   viewBox="0 0 1377.625 652.78198"
   fill="none"
   version="1.1"
   id="svg20"
   sodipodi:docname="ecoscore-unknown.svg"
   inkscape:export-filename="/home/stephane/openfoodfacts-server/html/images/icons/ecoscore-unknown.png"
   inkscape:export-xdpi="19.118176"
   inkscape:export-ydpi="19.118176"
   inkscape:version="1.0.1 (0767f8302a, 2020-10-17)">
  <metadata
     id="metadata24">
    <rdf:RDF>
      <cc:Work
         rdf:about="">
        <dc:format>image/svg+xml</dc:format>
        <dc:type
           rdf:resource="http://purl.org/dc/dcmitype/StillImage" />
        <dc:title></dc:title>
      </cc:Work>
    </rdf:RDF>
  </metadata>
  <sodipodi:namedview
     pagecolor="#ffffff"
     bordercolor="#666666"
     borderopacity="1"
     objecttolerance="10"
     gridtolerance="10"
     guidetolerance="10"
     inkscape:pageopacity="0"
     inkscape:pageshadow="2"
     inkscape:window-width="2488"
     inkscape:window-height="1376"
     id="namedview22"
     showgrid="false"
     fit-margin-top="0"
     fit-margin-left="0"
     fit-margin-right="0"
     fit-margin-bottom="0"
     inkscape:zoom="0.920625"
     inkscape:cx="688.8125"
     inkscape:cy="326.39099"
     inkscape:window-x="72"
     inkscape:window-y="27"
     inkscape:window-maximized="1"
     inkscape:current-layer="svg20"
     inkscape:document-rotation="0" />
  <defs
     id="defs18">
    <clipPath
       id="clip0">
      <rect
         width="1599.53"
         height="752.09601"
         fill="#ffffff"
         transform="translate(0.0517578,0.42627)"
         id="rect12"
         x="0"
         y="0" />
    </clipPath>
    <clipPath
       id="clip1">
      <rect
         width="572.01599"
         height="572.01599"
         fill="#ffffff"
         transform="translate(148.353,85.1694)"
         id="rect15"
         x="0"
         y="0" />
    </clipPath>
  </defs>
  <g
     id="g909">
    <rect
       style="fill:#ffffff;stroke-width:0.973137"
       id="rect3193"
       width="1377.625"
       height="652.78198"
       x="0"
       y="0"
       ry="47.218643" />
    <path
       d="m 577.6445,48.235291 c 9.874,-0.8327 19.022,8.3157 18.189,18.1897 -1.213,14.061 -18.725,333.621999 -120.986,435.882999 -98.014,98.014 -213.504,75.007 -288.915,20.795 -0.909,-0.653 -1.933,-1.439 -3.058,-2.343 l -67.981,67.886 c -16.426,16.425 -43.057,16.425 -59.482,0 -16.426,-16.426 -16.426,-43.057 0,-59.482 l 67.897,-67.97 c -0.908,-1.13 -1.698,-2.158 -2.354,-3.069 -54.212,-75.411 -77.22,-190.901 20.795,-288.915 C 244.0105,66.947991 563.5705,49.436891 577.6445,48.235291 Z"
       fill="#1e8f4e"
       id="path2"
       style="fill:#b3b3b3;fill-opacity:1" />
    <path
       d="m 732.5405,352.98899 c -7.415,0 -13.135,-2.012 -17.16,-6.038 -4.026,-4.025 -6.038,-9.745 -6.038,-17.16 v -177.643 c 0,-7.415 2.012,-13.135 6.038,-17.16 4.025,-4.026 9.745,-6.038 17.16,-6.038 h 112.497 c 15.677,0 23.516,6.355 23.516,19.067 0,12.923 -7.839,19.385 -23.516,19.385 h -87.392 v 52.435 h 81.036 c 15.677,0 23.516,6.461 23.516,19.385 0,12.711 -7.839,19.067 -23.516,19.067 h -81.036 v 56.248 h 87.392 c 15.677,0 23.516,6.462 23.516,19.385 0,12.712 -7.839,19.067 -23.516,19.067 z m 268.142,2.86 c -22.04,0 -41.31,-4.66 -57.84,-13.982 -16.52,-9.322 -29.24,-22.669 -38.13,-40.041 -8.9,-17.373 -13.35,-37.711 -13.35,-61.015 0,-23.305 4.45,-43.537 13.35,-60.698 8.89,-17.372 21.61,-30.719 38.13,-40.041 16.53,-9.322 35.8,-13.982 57.84,-13.982 27.75,0 51.69,7.626 71.82,22.88 3.18,2.542 5.4,5.085 6.67,7.627 1.27,2.542 1.91,5.72 1.91,9.534 0,5.508 -1.59,10.275 -4.77,14.3 -2.96,3.814 -6.67,5.72 -11.12,5.72 -2.97,0 -5.62,-0.318 -7.95,-0.953 -2.11,-0.848 -4.55,-2.225 -7.3,-4.131 -8.48,-5.509 -16.32,-9.428 -23.52,-11.758 -7.2,-2.543 -14.94,-3.814 -23.2,-3.814 -20.34,0 -35.7,6.356 -46.08,19.067 -10.17,12.5 -15.25,31.249 -15.25,56.249 0,50.422 20.44,75.633 61.33,75.633 7.84,0 15.25,-1.165 22.25,-3.496 6.99,-2.542 15.14,-6.567 24.47,-12.076 3.17,-1.906 5.82,-3.178 7.94,-3.813 2.12,-0.848 4.55,-1.271 7.31,-1.271 4.45,0 8.16,2.012 11.12,6.038 3.18,3.813 4.77,8.474 4.77,13.982 0,3.814 -0.74,7.098 -2.23,9.852 -1.27,2.542 -3.39,4.978 -6.35,7.309 -20.13,15.254 -44.07,22.88 -71.82,22.88 z m 210.72,0 c -22.25,0 -41.63,-4.66 -58.16,-13.982 -16.31,-9.534 -28.92,-22.881 -37.81,-40.041 -8.9,-17.373 -13.35,-37.711 -13.35,-61.015 0,-23.305 4.45,-43.537 13.35,-60.698 8.89,-17.372 21.5,-30.719 37.81,-40.041 16.53,-9.322 35.91,-13.982 58.16,-13.982 22.24,0 41.52,4.66 57.84,13.982 16.52,9.322 29.23,22.669 38.13,40.041 8.9,17.161 13.35,37.393 13.35,60.698 0,23.304 -4.45,43.642 -13.35,61.015 -8.9,17.16 -21.61,30.507 -38.13,40.041 -16.32,9.322 -35.6,13.982 -57.84,13.982 z m 0,-38.452 c 18.64,0 33.26,-6.567 43.85,-19.703 10.81,-13.135 16.21,-32.096 16.21,-56.883 0,-24.788 -5.3,-43.643 -15.89,-56.566 -10.59,-13.136 -25.32,-19.703 -44.17,-19.703 -18.86,0 -33.58,6.567 -44.17,19.703 -10.39,12.923 -15.58,31.778 -15.58,56.566 0,24.787 5.3,43.748 15.89,56.883 10.6,13.136 25.21,19.703 43.86,19.703 z m -448.901,238.213 c -9.604,0 -18.548,-1.02 -26.832,-3.061 -8.164,-2.161 -14.887,-5.102 -20.169,-8.824 -2.041,-1.561 -3.541,-3.182 -4.502,-4.862 -0.84,-1.681 -1.26,-3.842 -1.26,-6.483 0,-3.602 1.08,-6.723 3.241,-9.364 2.161,-2.641 4.682,-3.962 7.563,-3.962 1.561,0 3.062,0.24 4.502,0.72 1.441,0.481 3.242,1.381 5.403,2.702 4.922,2.761 9.784,4.742 14.586,5.942 4.922,1.201 10.445,1.801 16.567,1.801 7.084,0 12.426,-1.021 16.028,-3.061 3.721,-2.161 5.582,-5.283 5.582,-9.365 0,-2.761 -1.741,-5.102 -5.222,-7.023 -3.362,-2.041 -9.845,-4.021 -19.449,-5.942 -11.885,-2.521 -21.189,-5.523 -27.912,-9.004 -6.723,-3.482 -11.465,-7.564 -14.226,-12.246 -2.642,-4.802 -3.962,-10.564 -3.962,-17.287 0,-7.684 2.281,-14.647 6.843,-20.889 4.562,-6.243 10.805,-11.105 18.728,-14.587 8.044,-3.601 17.048,-5.402 27.012,-5.402 8.764,0 16.567,0.96 23.41,2.881 6.843,1.921 13.086,4.922 18.729,9.004 2.16,1.561 3.661,3.241 4.501,5.042 0.961,1.681 1.441,3.782 1.441,6.303 0,3.602 -1.08,6.723 -3.241,9.364 -2.041,2.641 -4.502,3.962 -7.384,3.962 -1.56,0 -3.001,-0.18 -4.321,-0.54 -1.321,-0.481 -3.182,-1.441 -5.583,-2.882 -0.6,-0.36 -2.341,-1.26 -5.222,-2.701 -2.761,-1.56 -6.063,-2.761 -9.905,-3.601 -3.721,-0.961 -7.803,-1.441 -12.245,-1.441 -6.123,0 -11.045,1.201 -14.766,3.602 -3.722,2.281 -5.583,5.342 -5.583,9.184 0,2.281 0.66,4.141 1.981,5.582 1.321,1.441 3.782,2.881 7.383,4.322 3.602,1.321 8.944,2.701 16.027,4.142 11.525,2.521 20.589,5.582 27.192,9.184 6.603,3.481 11.285,7.563 14.046,12.245 2.762,4.682 4.142,10.205 4.142,16.568 0,7.923 -2.221,14.946 -6.663,21.069 -4.442,6.002 -10.684,10.684 -18.728,14.046 -7.923,3.241 -17.167,4.862 -27.732,4.862 z m 132.011,0 c -12.727,0 -23.892,-2.641 -33.497,-7.923 -9.484,-5.283 -16.867,-12.846 -22.149,-22.69 -5.163,-9.845 -7.744,-21.37 -7.744,-34.576 0,-13.085 2.581,-24.55 7.744,-34.395 5.282,-9.844 12.665,-17.407 22.149,-22.69 9.605,-5.282 20.77,-7.923 33.497,-7.923 15.24,0 28.63,4.022 40.16,12.065 2.04,1.441 3.48,3.001 4.32,4.682 0.96,1.681 1.44,3.842 1.44,6.483 0,3.722 -1.08,6.903 -3.24,9.544 -2.04,2.521 -4.57,3.782 -7.57,3.782 -1.8,0 -3.42,-0.24 -4.86,-0.72 -1.44,-0.601 -3.12,-1.501 -5.04,-2.702 -4.2,-2.521 -8.16,-4.322 -11.89,-5.402 -3.72,-1.08 -7.56,-1.621 -11.52,-1.621 -10.686,0 -18.669,3.242 -23.952,9.725 -5.162,6.362 -7.743,16.087 -7.743,29.172 0,13.206 2.581,23.051 7.743,29.533 5.283,6.363 13.266,9.545 23.952,9.545 3.6,0 7.08,-0.541 10.44,-1.621 3.37,-1.201 7.69,-3.001 12.97,-5.402 2.52,-1.321 4.38,-2.221 5.58,-2.702 1.2,-0.48 2.64,-0.72 4.32,-0.72 3,0 5.53,1.321 7.57,3.962 2.16,2.521 3.24,5.642 3.24,9.364 0,2.521 -0.48,4.682 -1.44,6.483 -0.84,1.68 -2.28,3.241 -4.32,4.682 -11.53,8.043 -24.92,12.065 -40.16,12.065 z m 119.41,0 c -12.97,0 -24.25,-2.641 -33.85,-7.923 -9.49,-5.403 -16.81,-12.966 -21.97,-22.69 -5.17,-9.845 -7.75,-21.37 -7.75,-34.576 0,-13.205 2.58,-24.67 7.75,-34.395 5.16,-9.844 12.48,-17.407 21.97,-22.69 9.6,-5.282 20.88,-7.923 33.85,-7.923 12.97,0 24.19,2.641 33.68,7.923 9.6,5.283 16.92,12.846 21.96,22.69 5.17,9.725 7.75,21.19 7.75,34.395 0,13.206 -2.58,24.731 -7.75,34.576 -5.16,9.724 -12.54,17.287 -22.14,22.69 -9.49,5.282 -20.65,7.923 -33.5,7.923 z m 0,-25.391 c 9.6,0 17.11,-3.362 22.51,-10.085 5.4,-6.843 8.1,-16.747 8.1,-29.713 0,-12.965 -2.76,-22.81 -8.28,-29.533 -5.4,-6.723 -12.85,-10.084 -22.33,-10.084 -9.6,0 -17.11,3.361 -22.51,10.084 -5.4,6.603 -8.1,16.448 -8.1,29.533 0,13.086 2.7,22.991 8.1,29.713 5.4,6.723 12.91,10.085 22.51,10.085 z m 189.79,2.701 c 2.16,3.242 3.24,6.303 3.24,9.184 0,3.842 -1.62,7.083 -4.87,9.724 -3.12,2.522 -6.78,3.782 -10.98,3.782 -2.88,0 -5.58,-0.66 -8.1,-1.981 -2.52,-1.32 -4.69,-3.301 -6.49,-5.942 l -23.41,-34.215 c -1.68,-2.401 -3.48,-4.142 -5.4,-5.223 -1.8,-1.2 -3.96,-1.801 -6.48,-1.801 h -11.71 v 32.235 c 0,5.042 -1.44,9.064 -4.32,12.065 -2.88,2.881 -6.84,4.322 -11.88,4.322 -5.05,0 -9.07,-1.441 -12.07,-4.322 -2.88,-3.001 -4.32,-7.023 -4.32,-12.065 v -96.343 c 0,-4.922 1.32,-8.704 3.96,-11.345 2.64,-2.641 6.42,-3.961 11.35,-3.961 h 45.2 c 15.36,0 26.89,3.361 34.57,10.084 7.8,6.603 11.71,16.207 11.71,28.813 0,9.604 -2.65,17.767 -7.93,24.49 -5.28,6.603 -12.72,11.045 -22.33,13.326 3.96,0.601 7.39,1.921 10.27,3.962 3,2.041 5.94,5.102 8.82,9.184 z m -51.51,-51.322 c 7.33,0 12.55,-1.141 15.67,-3.422 3.24,-2.281 4.86,-6.003 4.86,-11.165 0,-5.282 -1.62,-9.064 -4.86,-11.345 -3.12,-2.401 -8.34,-3.601 -15.67,-3.601 h -23.05 v 29.533 z m 87.35,72.391 c -4.93,0 -8.71,-1.32 -11.35,-3.961 -2.64,-2.642 -3.96,-6.423 -3.96,-11.345 v -96.343 c 0,-4.922 1.32,-8.704 3.96,-11.345 2.64,-2.641 6.42,-3.961 11.35,-3.961 h 62.3 c 5.17,0 9.07,1.08 11.71,3.241 2.64,2.161 3.96,5.282 3.96,9.364 0,8.644 -5.22,12.966 -15.67,12.966 h -45.38 v 24.13 h 41.78 c 10.45,0 15.67,4.262 15.67,12.786 0,4.082 -1.32,7.203 -3.96,9.364 -2.64,2.161 -6.54,3.242 -11.71,3.242 h -41.78 v 26.291 h 45.38 c 10.45,0 15.67,4.322 15.67,12.966 0,4.082 -1.32,7.203 -3.96,9.364 -2.64,2.161 -6.54,3.241 -11.71,3.241 z"
       fill="#4a4a4a"
       id="path8" />
    <g
       aria-label="?"
       id="text847"
       style="font-style:normal;font-variant:normal;font-weight:bold;font-stretch:normal;font-size:318.024px;line-height:1.25;font-family:'Open Sans';-inkscape-font-specification:'Open Sans Bold';fill:#ffffff;stroke-width:7.9506"
       transform="translate(166.29102)">
      <path
         id="path895"
         style="font-style:normal;font-variant:normal;font-weight:bold;font-stretch:normal;font-family:'Arial Rounded MT Bold';-inkscape-font-specification:'Arial Rounded MT Bold,  Bold';stroke-width:7.9506"
         d="m 80.111299,253.96213 c 0.964893,-31.53506 28.581811,-56.97928 58.407851,-62.68101 29.90739,-6.56747 65.09721,0.40966 85.05586,25.08642 15.15665,19.38782 16.3493,49.68504 -0.58405,68.41136 -13.48376,17.49257 -34.34311,28.17548 -46.01866,47.16044 -4.58324,9.93475 -2.61057,24.29427 -14.04916,29.90541 -12.1881,6.83027 -29.05069,-4.0236 -28.00122,-17.95939 -1.15896,-19.96538 10.08935,-38.47071 25.05771,-50.84126 11.99646,-11.73571 29.0559,-21.18413 32.61808,-38.92933 2.20482,-17.78726 -14.97026,-33.45315 -32.29416,-32.40745 -13.97621,-0.96029 -28.32073,6.702 -33.782,19.89648 -5.45764,10.67075 -6.5857,25.94648 -19.3378,30.85391 -12.028338,4.20657 -27.256551,-5.32723 -27.072451,-18.49558 z m 75.779151,170.19253 c -15.39001,1.29137 -28.04274,-15.82667 -22.74204,-30.24883 4.78523,-16.21156 28.57115,-22.28384 39.75923,-9.02784 10.08325,10.77118 7.63597,31.33859 -6.83914,37.04233 -3.17247,1.48018 -6.67274,2.28129 -10.17805,2.23434 z" />
    </g>
  </g>
</svg>
