<?xml version="1.0" encoding="UTF-8"?>
<svg width="240px" height="130px" viewBox="0 0 240 130" version="1.1" xmlns="http://www.w3.org/2000/svg" xmlns:xlink="http://www.w3.org/1999/xlink">
    <title>GreenScoreF</title>
    <g id="GreenScoreF" stroke="none" stroke-width="1" fill="none" fill-rule="evenodd">
        <path d="M0,109.318 C0,120.723 9.682,130 21.579,130 L218.429,130 C230.323,130 240.002,120.72 240.002,109.318 L240.002,20.681 C240.002,9.277 230.322,0 218.428,0 L21.577,0 C9.682,0 0,9.279 0,20.68 L0,109.318 Z" id="path15249" fill="#FFFFFF" fill-rule="nonzero"></path>
        <g id="green-score-f">
            <path d="M2.349,109.318 C2.349,119.335 10.885,127.652 21.579,127.652 L218.429,127.652 C229.122,127.652 237.656,119.332 237.656,109.318 L237.656,20.681 C237.656,10.665 229.122,2.348 218.428,2.348 L21.577,2.348 C10.883,2.348 2.349,10.668 2.349,20.681 L2.349,109.318 Z M21.578,130 C9.684,130 0,120.723 0,109.318 L0,20.681 C0,9.28 9.68,0 21.577,0 L218.428,0 C230.323,0 240.002,9.277 240.002,20.681 L240.002,109.321 C240.002,120.723 230.322,130.002 218.428,130.002 L21.578,130 Z" id="path15251" fill="#BF3122"></path>
            <g id="g3" transform="translate(15.387, 19.4635)" fill-rule="nonzero">
                <path d="M86.0687615,0.00840317636 C87.6578721,-0.124826218 89.1320178,1.34709436 88.996656,2.93648302 C88.8001032,5.20082644 85.9825379,56.6533325 69.516145,73.1200962 C53.7337001,88.9002233 35.1407362,85.1981706 22.9973914,76.4680758 C22.8507186,76.3620115 22.6858739,76.2355502 22.5052678,76.0911024 L11.5608022,87.0218464 C8.91494247,89.6660373 4.6279599,89.6660373 1.98432527,87.0218464 C-0.661441758,84.3767284 -0.661441758,80.0896531 1.98432527,77.4456476 L12.9175725,66.5009039 C12.770807,66.31798 12.6444384,66.153228 12.5382813,66.0064624 C3.81068981,53.8651574 0.106041141,35.2695047 15.8862609,19.4867817 C32.3481109,3.02001794 83.8019149,0.200227544 86.0687615,0.00840317636 Z" id="path2-3" fill="#BF3122"></path>
                <path d="M37.9564472,62.6340992 C35.3759505,62.6340992 33.8548917,61.0587103 33.8548917,58.369646 L33.8548917,27.1874778 C33.8548917,24.4984135 35.3759505,22.9230246 37.9564472,22.9230246 L56.290833,22.9230246 C58.5453488,22.9230246 60.0120774,24.1996904 60.0120774,26.3182881 C60.0120774,28.4369785 58.5181837,29.7135516 56.290833,29.7135516 L42.0579099,29.7135516 L42.0579099,40.1981579 L54.9599298,40.1981579 C57.0786202,40.1981579 58.4638536,41.4204936 58.4638536,43.4305237 C58.4638536,45.4676261 57.1057852,46.6899618 54.9599298,46.6899618 L42.0579099,46.6899618 L42.0579099,58.369646 C42.0579099,61.0587103 40.5368511,62.6340992 37.9564472,62.6340992 L37.9564472,62.6340992 Z" id="path3-2" fill="#FFFFFF"></path>
            </g>
            <g id="g13" transform="translate(112.052, 22.3445)">
                <path d="M20.8987078,2.63555205e-14 L20.8987078,23.0981765 C20.8987078,28.8724888 17.3744022,32.3368907 11.5004049,32.3368907 C6.80120702,32.3368907 4.45170082,28.8724888 4.45170082,28.8724888 L4.45170082,23.0981765 C4.45170082,23.0981765 7.97600648,27.7170699 11.5004049,27.7170699 C15.0248032,27.7170699 16.1996027,25.4071596 16.1996027,23.0981765 L16.1996027,20.2337392 C14.8837605,20.5110027 13.1920827,20.7882661 11.5004049,20.7882661 C5.62650028,20.7882661 0.92730244,16.1684453 0.92730244,10.394133 C0.92730244,4.61982076 5.62650028,2.63555205e-14 11.5004049,2.63555205e-14 L20.8987078,2.63555205e-14 Z M11.5004049,16.1684453 C12.7691401,16.1684453 14.6957963,15.8448168 16.1996027,15.5221155 L16.1996027,4.61982076 L11.5004049,4.61982076 C7.97600648,4.61982076 5.62650028,6.92973113 5.62650028,10.394133 C5.62650028,13.858535 7.97600648,16.1684453 11.5004049,16.1684453 Z" id="path4" fill="#1D1D1B" fill-rule="nonzero"></path>
                <path d="M29.8271466,9.23964151 C29.8271466,3.46440192 33.3514523,2.63555205e-14 39.2254496,2.63555205e-14 L39.2254496,4.61982076 C34.5262517,4.61982076 29.8271466,5.77431229 29.8271466,11.5486246 L29.8271466,23.0981765 L25.1279488,23.0981765 L25.1279488,2.63555205e-14 L29.8271466,2.63555205e-14 L29.8271466,9.23964151 Z" id="path5" fill="#1D1D1B" fill-rule="nonzero"></path>
                <path d="M61.1040379,11.5486246 L61.1040379,12.7040434 L44.7509666,12.7040434 C45.2679378,16.538439 48.5103435,18.4783557 51.7057349,18.4783557 C56.4049328,18.4783557 58.754439,16.1684453 58.754439,16.1684453 L58.754439,20.7882661 C58.754439,20.7882661 56.4049328,23.0981765 51.7057349,23.0981765 C44.6570309,23.0981765 39.9578331,18.4783557 39.9578331,11.5486246 C39.9578331,4.61982076 44.6570309,2.63555205e-14 50.5309355,2.63555205e-14 C56.4049328,2.63555205e-14 61.1040379,4.61982076 61.1040379,11.5486246 L61.1040379,11.5486246 Z M50.5309355,4.61982076 C47.6644582,4.61982076 45.5498377,6.14430597 44.8920093,9.23964151 L56.1699543,9.23964151 C55.5120333,6.14430597 53.3974128,4.61982076 50.5309355,4.61982076 L50.5309355,4.61982076 Z" id="path6" fill="#1D1D1B" fill-rule="nonzero"></path>
                <path d="M84.1295139,11.5486246 L84.1295139,12.7040434 L67.7769063,12.7040434 C68.2937846,16.538439 71.5361904,18.4783557 74.7315818,18.4783557 C79.4307797,18.4783557 81.7806568,16.1684453 81.7806568,16.1684453 L81.7806568,20.7882661 C81.7806568,20.7882661 79.4307797,23.0981765 74.7315818,23.0981765 C67.6828778,23.0981765 62.9836799,18.4783557 62.9836799,11.5486246 C62.9836799,4.61982076 67.6828778,2.63555205e-14 73.5567824,2.63555205e-14 C79.4307797,2.63555205e-14 84.1295139,4.61982076 84.1295139,11.5486246 L84.1295139,11.5486246 Z M73.5567824,4.61982076 C70.6903051,4.61982076 68.5756846,6.14430597 67.9178562,9.23964151 L79.1958012,9.23964151 C78.5379729,6.14430597 76.4233524,4.61982076 73.5567824,4.61982076 L73.5567824,4.61982076 Z" id="path7" fill="#1D1D1B" fill-rule="nonzero"></path>
                <path d="M100.106935,2.63555205e-14 C104.806504,2.63555205e-14 108.330253,3.46440192 108.330253,9.23964151 L108.330253,23.0981765 L103.631611,23.0981765 L103.631611,11.5486246 C103.631611,6.92973113 101.281827,4.61982076 97.7571505,4.61982076 C94.2334013,4.61982076 91.8836169,6.92973113 91.8836169,11.5486246 L91.8836169,23.0981765 L87.1840481,23.0981765 L87.1840481,2.63555205e-14 L91.8836169,2.63555205e-14 L91.8836169,9.23964151 C91.8836169,3.46440192 95.4082934,2.63555205e-14 100.106935,2.63555205e-14 Z" id="path8" fill="#1D1D1B" fill-rule="nonzero"></path>
                <rect id="rect8-6" stroke="#FFFFFF" stroke-width="1.85460488" fill="#BF3122" fill-rule="nonzero" x="80.3662442" y="33.6360414" width="29.0554455" height="15.7641415" rx="7.88207074"></rect>
                <rect id="rect9-3" stroke="#FFFFFF" stroke-width="1.85460488" fill="#DE4523" fill-rule="nonzero" x="64.2929364" y="33.6360414" width="29.0554455" height="15.7641415" rx="7.88207074"></rect>
                <rect id="rect10-2" stroke="#FFFFFF" stroke-width="1.85460488" fill="#EF7E1A" fill-rule="nonzero" x="48.2197269" y="33.6360414" width="29.0554455" height="15.7641415" rx="7.88207074"></rect>
                <rect id="rect11-0" stroke="#FFFFFF" stroke-width="1.85460488" fill="#F5C100" fill-rule="nonzero" x="32.1465136" y="33.6360414" width="29.0554455" height="15.7641415" rx="7.88207074"></rect>
                <rect id="rect12-6" stroke="#FFFFFF" stroke-width="1.85460488" fill="#2ECC71" fill-rule="nonzero" x="16.0732114" y="33.6360414" width="29.0554455" height="15.7641415" rx="7.88207074"></rect>
                <rect id="rect13" stroke="#FFFFFF" stroke-width="1.85460488" fill="#1E8F4E" fill-rule="nonzero" x="0" y="33.6360414" width="29.0554455" height="15.7641415" rx="7.88207074"></rect>
                <path d="M39.2730202,59.5087068 L39.2730202,64.7006731 C39.2730202,64.7006731 35.3953196,63.4015224 32.8109277,63.4015224 C28.9332271,63.4015224 25.0556192,65.9979693 25.0556192,71.1917902 C25.0556192,76.3837566 28.9332271,78.982058 32.8109277,78.982058 C35.3953196,78.982058 39.2730202,77.6829073 39.2730202,77.6829073 L39.2730202,82.8748737 C39.2730202,82.8748737 36.6886283,84.1740244 32.8109277,84.1740244 C25.0556192,84.1740244 19.8867427,78.982058 19.8867427,71.1917902 C19.8867427,63.4015224 25.0556192,58.2095561 32.8109277,58.2095561 C36.6886283,58.2095561 39.2730202,59.5087068 39.2730202,59.5087068 Z M9.28962311,84.1740244 C5.4119225,84.1740244 1.53422189,82.8748737 1.53422189,82.8748737 L1.53422189,77.6829073 C1.53422189,77.6829073 5.4119225,78.982058 9.28962311,78.982058 C11.874015,78.982058 13.1673237,77.6829073 13.1673237,76.3856112 C13.1673237,74.8444345 11.251146,74.3195814 8.93511539,73.6853065 C5.39764204,72.7162754 0.92730244,71.4913089 0.92730244,65.9998239 C0.92730244,60.8078575 4.12083931,58.2095561 9.29175591,58.2095561 C13.1694565,58.2095561 17.0471571,59.5087068 17.0471571,59.5087068 L17.0471571,64.7006731 C17.0471571,64.7006731 13.1694565,63.4015224 9.29175591,63.4015224 C6.70736401,63.4015224 5.4140553,64.7006731 5.4140553,65.9979693 C5.4140553,67.5391459 7.43733649,68.0639991 9.88281848,68.698274 C13.6180854,69.667305 18.3382403,70.8922715 18.3382403,76.3837566 C18.3361075,81.5775776 14.4584069,84.1740244 9.28962311,84.1740244 L9.28962311,84.1740244 Z M67.2403691,71.1917902 C67.2403691,78.982058 62.0715853,84.1740244 54.316184,84.1740244 C46.5608755,84.1740244 41.391999,78.982058 41.391999,71.1917902 C41.391999,63.4015224 46.5608755,58.2095561 54.316184,58.2095561 C62.0715853,58.2095561 67.2403691,63.4015224 67.2403691,71.1917902 Z M46.5630083,71.1917902 C46.5630083,76.3837566 50.440709,78.982058 54.3183168,78.982058 C58.1960175,78.982058 62.0737181,76.3856112 62.0737181,71.1917902 C62.0737181,65.9998239 58.1960175,63.4015224 54.3183168,63.4015224 C50.440709,63.4015224 46.5630083,65.9998239 46.5630083,71.1917902 L46.5630083,71.1917902 Z M84.9733591,58.2095561 L84.9733591,63.4015224 C79.8042971,63.4015224 74.6332878,64.7006731 74.6332878,71.1917902 L74.6332878,84.1740244 L69.464504,84.1740244 L69.464504,58.2095561 L74.6332878,58.2095561 L74.6332878,68.5953434 C74.6332878,62.1042263 78.5109884,58.2095561 84.9733591,58.2095561 Z M108.494385,72.4909409 L90.5065727,72.4909409 C91.0750091,76.80197 94.6414143,78.982058 98.1568179,78.982058 C103.325602,78.982058 105.911848,76.3856112 105.911848,76.3856112 L105.911848,81.5775776 C105.911848,81.5775776 103.327456,84.1740244 98.1568179,84.1740244 C90.4017876,84.1740244 85.2330038,78.982058 85.2330038,71.1917902 C85.2330038,63.4015224 90.4017876,58.2095561 96.863231,58.2095561 C103.325602,58.2095561 108.494385,63.4015224 108.494385,71.1917902 L108.494385,72.4909409 Z M90.660505,68.5953434 L103.067812,68.5953434 C102.345443,65.1161046 100.018841,63.4033755 96.8660129,63.4033755 C93.7104027,63.4015224 91.3838009,65.1161046 90.660505,68.5953434 Z" id="path13" fill="#1D1D1B"></path>
            </g>
        </g>
    </g>
</svg>
