<?xml version="1.0" encoding="UTF-8" standalone="no"?>
<svg
   id="svg2032"
   width="240"
   height="130"
   version="1.1"
   viewBox="0 0 240 130"
   sodipodi:docname="green-score-a-plus.svg"
   inkscape:version="1.4 (1:1.4+202410161351+e7c3feb100)"
   xml:space="preserve"
   xmlns:inkscape="http://www.inkscape.org/namespaces/inkscape"
   xmlns:sodipodi="http://sodipodi.sourceforge.net/DTD/sodipodi-0.dtd"
   xmlns="http://www.w3.org/2000/svg"
   xmlns:svg="http://www.w3.org/2000/svg"><sodipodi:namedview
     id="namedview1"
     pagecolor="#ffffff"
     bordercolor="#666666"
     borderopacity="1.0"
     inkscape:showpageshadow="2"
     inkscape:pageopacity="0.0"
     inkscape:pagecheckerboard="0"
     inkscape:deskcolor="#d1d1d1"
     inkscape:zoom="2.7577164"
     inkscape:cx="120.20815"
     inkscape:cy="93.918287"
     inkscape:window-width="2560"
     inkscape:window-height="1403"
     inkscape:window-x="0"
     inkscape:window-y="0"
     inkscape:window-maximized="1"
     inkscape:current-layer="svg2032" /><defs
     id="defs2029"><clipPath
       id="clipPath1836"
       clipPathUnits="userSpaceOnUse"><path
         id="path1838"
         stroke-width="1"
         d="M-576.406-131.683h841.89v595.276h-841.89z" /></clipPath><clipPath
       id="clipPath1817"
       clipPathUnits="userSpaceOnUse"><path
         id="path1819"
         stroke-width="1"
         d="M-480.445-91.617h841.89V503.66h-841.89z" /></clipPath><clipPath
       id="clipPath1872"
       clipPathUnits="userSpaceOnUse"><path
         id="path1874"
         stroke-width="1"
         d="M-488.313-132.237h841.89v595.276h-841.89z" /></clipPath><clipPath
       id="clipPath1878"
       clipPathUnits="userSpaceOnUse"><path
         id="path1880"
         stroke-width="1"
         d="M-519.714-136.177h841.89V459.1h-841.89z" /></clipPath><clipPath
       id="clipPath1886"
       clipPathUnits="userSpaceOnUse"><path
         id="path1888"
         stroke-width="1"
         d="M-521.325-134.642h841.89v595.276h-841.89z" /></clipPath><clipPath
       id="clipPath1892"
       clipPathUnits="userSpaceOnUse"><path
         id="path1894"
         stroke-width="1"
         d="M-532.144-130.648h841.89v595.276h-841.89z" /></clipPath><clipPath
       id="clipPath1898"
       clipPathUnits="userSpaceOnUse"><path
         id="path1900"
         stroke-width="1"
         d="M-500.02-102.749h841.89v595.276h-841.89z" /></clipPath><clipPath
       id="clipPath1904"
       clipPathUnits="userSpaceOnUse"><path
         id="path1906"
         stroke-width="1"
         d="M-522.55-115.224h841.89v595.276h-841.89z" /></clipPath><clipPath
       id="clipPath1910"
       clipPathUnits="userSpaceOnUse"><path
         id="path1912"
         stroke-width="1"
         d="M-561.373-85.195h841.89v595.276h-841.89z" /></clipPath><clipPath
       id="clipPath1916"
       clipPathUnits="userSpaceOnUse"><path
         id="path1918"
         stroke-width="1"
         d="M-562.786-87.568h841.89v595.276h-841.89z" /></clipPath><clipPath
       id="clipPath1593"
       clipPathUnits="userSpaceOnUse"><path
         id="path1595"
         stroke-width="1"
         d="M-503.056-291.81h841.89v595.277h-841.89z" /></clipPath><clipPath
       id="clipPath1929"
       clipPathUnits="userSpaceOnUse"><path
         id="path1931"
         stroke-width="1"
         d="M-503.055-239.322h841.89v595.276h-841.89z" /></clipPath><clipPath
       id="clipPath1605"
       clipPathUnits="userSpaceOnUse"><path
         id="path1607"
         stroke-width="1"
         d="M-427.382-279.942h841.89v595.276h-841.89z" /></clipPath><clipPath
       id="clipPath1618"
       clipPathUnits="userSpaceOnUse"><path
         id="path1620"
         stroke-width="1"
         d="M-458.785-283.881h841.89v595.276h-841.89z" /></clipPath><clipPath
       id="clipPath1611"
       clipPathUnits="userSpaceOnUse"><path
         id="path1613"
         stroke-width="1"
         d="M-460.394-282.347h841.89v595.276h-841.89z" /></clipPath><clipPath
       id="clipPath1599"
       clipPathUnits="userSpaceOnUse"><path
         id="path1601"
         stroke-width="1"
         d="M-471.214-278.353h841.89v595.276h-841.89z" /></clipPath><clipPath
       id="clipPath1624"
       clipPathUnits="userSpaceOnUse"><path
         id="path1626"
         stroke-width="1"
         d="M-441.091-250.452h841.89v595.276h-841.89z" /></clipPath><clipPath
       id="clipPath1630"
       clipPathUnits="userSpaceOnUse"><path
         id="path1632"
         stroke-width="1"
         d="M-461.62-262.929h841.89v595.276h-841.89z" /></clipPath><clipPath
       id="clipPath1636"
       clipPathUnits="userSpaceOnUse"><path
         id="path1638"
         stroke-width="1"
         d="M-478.601-250.452h841.89v595.276h-841.89z" /></clipPath><clipPath
       id="clipPath1642"
       clipPathUnits="userSpaceOnUse"><path
         id="path1644"
         stroke-width="1"
         d="M-420.708-232.9h841.89v595.276h-841.89z" /></clipPath><clipPath
       id="clipPath1922"
       clipPathUnits="userSpaceOnUse"><path
         id="path1924"
         stroke-width="1"
         d="M-422.121-235.273h841.89v595.276h-841.89z" /></clipPath><clipPath
       id="clipPath1866"
       clipPathUnits="userSpaceOnUse"><path
         id="path1868"
         stroke-width="1"
         d="M-625.833-291.81h841.89v595.277h-841.89z" /></clipPath><clipPath
       id="clipPath1717"
       clipPathUnits="userSpaceOnUse"><path
         id="path1719"
         stroke-width="1"
         d="M-625.833-239.322h841.89v595.276h-841.89z" /></clipPath><clipPath
       id="clipPath1729"
       clipPathUnits="userSpaceOnUse"><path
         id="path1731"
         stroke-width="1"
         d="M-542.292-239.322h841.89v595.276h-841.89z" /></clipPath><clipPath
       id="clipPath1735"
       clipPathUnits="userSpaceOnUse"><path
         id="path1737"
         stroke-width="1"
         d="M-586.47-262.929h841.89v595.276h-841.89z" /></clipPath><clipPath
       id="clipPath1741"
       clipPathUnits="userSpaceOnUse"><path
         id="path1743"
         stroke-width="1"
         d="M-601.38-250.452h841.89v595.276h-841.89z" /></clipPath><clipPath
       id="clipPath1747"
       clipPathUnits="userSpaceOnUse"><path
         id="path1749"
         stroke-width="1"
         d="M-550.16-279.942h841.89v595.276h-841.89z" /></clipPath><clipPath
       id="clipPath1759"
       clipPathUnits="userSpaceOnUse"><path
         id="path1761"
         stroke-width="1"
         d="M-581.562-283.881h841.89v595.276h-841.89z" /></clipPath><clipPath
       id="clipPath1765"
       clipPathUnits="userSpaceOnUse"><path
         id="path1767"
         stroke-width="1"
         d="M-583.172-282.347h841.89v595.276h-841.89z" /></clipPath><clipPath
       id="clipPath1773"
       clipPathUnits="userSpaceOnUse"><path
         id="path1775"
         stroke-width="1"
         d="M-593.991-278.353h841.89v595.276h-841.89z" /></clipPath><clipPath
       id="clipPath1779"
       clipPathUnits="userSpaceOnUse"><path
         id="path1781"
         stroke-width="1"
         d="M-563.464-232.9h841.89v595.276h-841.89z" /></clipPath><clipPath
       id="clipPath1785"
       clipPathUnits="userSpaceOnUse"><path
         id="path1787"
         stroke-width="1"
         d="M-564.877-235.273h841.89v595.276h-841.89z" /></clipPath><clipPath
       id="clipPath1792"
       clipPathUnits="userSpaceOnUse"><path
         id="path1794"
         stroke-width="1"
         d="M-503.055-216.392h841.89v595.276h-841.89z" /></clipPath><clipPath
       id="clipPath1753"
       clipPathUnits="userSpaceOnUse"><path
         id="path1755"
         stroke-width="1"
         d="M-503.055-163.905h841.89v595.276h-841.89z" /></clipPath><clipPath
       id="clipPath1723"
       clipPathUnits="userSpaceOnUse"><path
         id="path1725"
         stroke-width="1"
         d="M-419.514-163.905h841.89v595.276h-841.89z" /></clipPath><clipPath
       id="clipPath1798"
       clipPathUnits="userSpaceOnUse"><path
         id="path1800"
         stroke-width="1"
         d="M-427.382-204.525h841.89v595.276h-841.89z" /></clipPath><clipPath
       id="clipPath1804"
       clipPathUnits="userSpaceOnUse"><path
         id="path1806"
         stroke-width="1"
         d="M-458.784-208.465h841.89v595.276h-841.89z" /></clipPath><clipPath
       id="clipPath1810"
       clipPathUnits="userSpaceOnUse"><path
         id="path1812"
         stroke-width="1"
         d="M-460.394-206.93h841.89v595.276h-841.89z" /></clipPath><clipPath
       id="clipPath1823"
       clipPathUnits="userSpaceOnUse"><path
         id="path1825"
         stroke-width="1"
         d="M-471.213-202.936h841.89V392.34h-841.89z" /></clipPath><clipPath
       id="clipPath1830"
       clipPathUnits="userSpaceOnUse"><path
         id="path1832"
         stroke-width="1"
         d="M-437.456-175.036h841.89V420.24h-841.89z" /></clipPath><clipPath
       id="clipPath1848"
       clipPathUnits="userSpaceOnUse"><path
         id="path1850"
         stroke-width="1"
         d="M-480.209-175.036h841.89V420.24h-841.89z" /></clipPath><clipPath
       id="clipPath1842"
       clipPathUnits="userSpaceOnUse"><path
         id="path1844"
         stroke-width="1"
         d="M-460.551-157.483h841.89v595.276h-841.89z" /></clipPath><clipPath
       id="clipPath1854"
       clipPathUnits="userSpaceOnUse"><path
         id="path1856"
         stroke-width="1"
         d="M-461.964-159.856h841.89V435.42h-841.89z" /></clipPath><clipPath
       id="clipPath1860"
       clipPathUnits="userSpaceOnUse"><path
         id="path1862"
         stroke-width="1"
         d="M-452.876-180.763h841.89v595.276h-841.89z" /></clipPath><clipPath
       id="clipPath1648"
       clipPathUnits="userSpaceOnUse"><path
         id="path1650"
         stroke-width="1"
         d="M-625.835-216.392h841.89v595.276h-841.89z" /></clipPath><clipPath
       id="clipPath1655"
       clipPathUnits="userSpaceOnUse"><path
         id="path1657"
         stroke-width="1"
         d="M-625.833-163.905h841.89v595.276h-841.89z" /></clipPath><clipPath
       id="clipPath1661"
       clipPathUnits="userSpaceOnUse"><path
         id="path1663"
         stroke-width="1"
         d="M-542.292-163.905h841.89v595.276h-841.89z" /></clipPath><clipPath
       id="clipPath1673"
       clipPathUnits="userSpaceOnUse"><path
         id="path1675"
         stroke-width="1"
         d="M-550.16-204.525h841.89v595.276h-841.89z" /></clipPath><clipPath
       id="clipPath1667"
       clipPathUnits="userSpaceOnUse"><path
         id="path1669"
         stroke-width="1"
         d="M-581.562-208.465h841.89v595.276h-841.89z" /></clipPath><clipPath
       id="clipPath1687"
       clipPathUnits="userSpaceOnUse"><path
         id="path1689"
         stroke-width="1"
         d="M-583.173-206.93h841.89v595.276h-841.89z" /></clipPath><clipPath
       id="clipPath1680"
       clipPathUnits="userSpaceOnUse"><path
         id="path1682"
         stroke-width="1"
         d="M-593.993-202.935h841.89V392.34h-841.89z" /></clipPath><clipPath
       id="clipPath1693"
       clipPathUnits="userSpaceOnUse"><path
         id="path1695"
         stroke-width="1"
         d="M-561.868-175.036h841.89V420.24h-841.89z" /></clipPath><clipPath
       id="clipPath1699"
       clipPathUnits="userSpaceOnUse"><path
         id="path1701"
         stroke-width="1"
         d="M-582.388-187.512h841.89v595.276h-841.89z" /></clipPath><clipPath
       id="clipPath1705"
       clipPathUnits="userSpaceOnUse"><path
         id="path1707"
         stroke-width="1"
         d="M-603.22-157.483h841.89v595.276h-841.89z" /></clipPath><clipPath
       id="clipPath1711"
       clipPathUnits="userSpaceOnUse"><path
         id="path1713"
         stroke-width="1"
         d="M-604.633-159.856h841.89V435.42h-841.89z" /></clipPath><clipPath
       id="clipPath1836-3"
       clipPathUnits="userSpaceOnUse"><path
         id="path1838-6"
         stroke-width="1"
         d="M-576.406-131.683h841.89v595.276h-841.89z" /></clipPath><clipPath
       id="clipPath1817-7"
       clipPathUnits="userSpaceOnUse"><path
         id="path1819-5"
         stroke-width="1"
         d="M-480.445-91.617h841.89V503.66h-841.89z" /></clipPath><clipPath
       id="clipPath1872-3"
       clipPathUnits="userSpaceOnUse"><path
         id="path1874-5"
         stroke-width="1"
         d="M-488.313-132.237h841.89v595.276h-841.89z" /></clipPath><clipPath
       id="clipPath1878-6"
       clipPathUnits="userSpaceOnUse"><path
         id="path1880-2"
         stroke-width="1"
         d="M-519.714-136.177h841.89V459.1h-841.89z" /></clipPath><clipPath
       id="clipPath1886-9"
       clipPathUnits="userSpaceOnUse"><path
         id="path1888-1"
         stroke-width="1"
         d="M-521.325-134.642h841.89v595.276h-841.89z" /></clipPath><clipPath
       id="clipPath1892-2"
       clipPathUnits="userSpaceOnUse"><path
         id="path1894-7"
         stroke-width="1"
         d="M-532.144-130.648h841.89v595.276h-841.89z" /></clipPath><clipPath
       id="clipPath1898-0"
       clipPathUnits="userSpaceOnUse"><path
         id="path1900-9"
         stroke-width="1"
         d="M-500.02-102.749h841.89v595.276h-841.89z" /></clipPath><clipPath
       id="clipPath1904-3"
       clipPathUnits="userSpaceOnUse"><path
         id="path1906-6"
         stroke-width="1"
         d="M-522.55-115.224h841.89v595.276h-841.89z" /></clipPath><clipPath
       id="clipPath1910-0"
       clipPathUnits="userSpaceOnUse"><path
         id="path1912-6"
         stroke-width="1"
         d="M-561.373-85.195h841.89v595.276h-841.89z" /></clipPath><clipPath
       id="clipPath1916-2"
       clipPathUnits="userSpaceOnUse"><path
         id="path1918-6"
         stroke-width="1"
         d="M-562.786-87.568h841.89v595.276h-841.89z" /></clipPath><clipPath
       id="clipPath2322"
       clipPathUnits="userSpaceOnUse"><path
         id="path2324"
         stroke-width="1"
         d="M-537.03-102.748h841.89v595.276h-841.89z" /></clipPath><clipPath
       id="clipPath2310"
       clipPathUnits="userSpaceOnUse"><path
         id="path2312"
         stroke-width="1"
         d="M-479.578-329.849h841.89v595.276h-841.89z" /></clipPath><clipPath
       id="clipPath2316"
       clipPathUnits="userSpaceOnUse"><path
         id="path2318"
         stroke-width="1"
         d="M-479.578-331.758h841.89v595.276h-841.89z" /></clipPath><clipPath
       id="clipPath2328"
       clipPathUnits="userSpaceOnUse"><path
         id="path2330"
         stroke-width="1"
         d="M-487.594-375.361h841.89v595.276h-841.89z" /></clipPath><clipPath
       id="clipPath2341"
       clipPathUnits="userSpaceOnUse"><path
         id="path2343"
         stroke-width="1"
         d="M-519.58-379.175h841.89v595.276h-841.89z" /></clipPath><clipPath
       id="clipPath2334"
       clipPathUnits="userSpaceOnUse"><path
         id="path2336"
         stroke-width="1"
         d="M-521.221-377.69h841.89v595.276h-841.89z" /></clipPath><clipPath
       id="clipPath2368"
       clipPathUnits="userSpaceOnUse"><path
         id="path2370"
         stroke-width="1"
         d="M-532.242-373.822h841.89v595.276h-841.89z" /></clipPath><clipPath
       id="clipPath2347"
       clipPathUnits="userSpaceOnUse"><path
         id="path2349"
         stroke-width="1"
         d="M-564.678-336.04h841.89v595.275h-841.89z" /></clipPath><clipPath
       id="clipPath2353"
       clipPathUnits="userSpaceOnUse"><path
         id="path2355"
         stroke-width="1"
         d="M-479.578-336.04h841.89v595.275h-841.89z" /></clipPath><clipPath
       id="clipPath2361"
       clipPathUnits="userSpaceOnUse"><path
         id="path2363"
         stroke-width="1"
         d="M-515.48-351.719h841.89v595.276h-841.89z" /></clipPath><clipPath
       id="clipPath1593-1"
       clipPathUnits="userSpaceOnUse"><path
         id="path1595-8"
         stroke-width="1"
         d="M-503.056-291.81h841.89v595.277h-841.89z" /></clipPath><clipPath
       id="clipPath1929-7"
       clipPathUnits="userSpaceOnUse"><path
         id="path1931-9"
         stroke-width="1"
         d="M-503.055-239.322h841.89v595.276h-841.89z" /></clipPath><clipPath
       id="clipPath1605-2"
       clipPathUnits="userSpaceOnUse"><path
         id="path1607-0"
         stroke-width="1"
         d="M-427.382-279.942h841.89v595.276h-841.89z" /></clipPath><clipPath
       id="clipPath1618-2"
       clipPathUnits="userSpaceOnUse"><path
         id="path1620-3"
         stroke-width="1"
         d="M-458.785-283.881h841.89v595.276h-841.89z" /></clipPath><clipPath
       id="clipPath1611-7"
       clipPathUnits="userSpaceOnUse"><path
         id="path1613-5"
         stroke-width="1"
         d="M-460.394-282.347h841.89v595.276h-841.89z" /></clipPath><clipPath
       id="clipPath1599-9"
       clipPathUnits="userSpaceOnUse"><path
         id="path1601-2"
         stroke-width="1"
         d="M-471.214-278.353h841.89v595.276h-841.89z" /></clipPath><clipPath
       id="clipPath1624-2"
       clipPathUnits="userSpaceOnUse"><path
         id="path1626-8"
         stroke-width="1"
         d="M-441.091-250.452h841.89v595.276h-841.89z" /></clipPath><clipPath
       id="clipPath1630-9"
       clipPathUnits="userSpaceOnUse"><path
         id="path1632-7"
         stroke-width="1"
         d="M-461.62-262.929h841.89v595.276h-841.89z" /></clipPath><clipPath
       id="clipPath1636-3"
       clipPathUnits="userSpaceOnUse"><path
         id="path1638-6"
         stroke-width="1"
         d="M-478.601-250.452h841.89v595.276h-841.89z" /></clipPath><clipPath
       id="clipPath1642-1"
       clipPathUnits="userSpaceOnUse"><path
         id="path1644-2"
         stroke-width="1"
         d="M-420.708-232.9h841.89v595.276h-841.89z" /></clipPath><clipPath
       id="clipPath1922-9"
       clipPathUnits="userSpaceOnUse"><path
         id="path1924-3"
         stroke-width="1"
         d="M-422.121-235.273h841.89v595.276h-841.89z" /></clipPath><clipPath
       id="clipPath2310-1"
       clipPathUnits="userSpaceOnUse"><path
         id="path2312-9"
         stroke-width="1"
         d="M-479.578-329.849h841.89v595.276h-841.89z" /></clipPath><clipPath
       id="clipPath2316-4"
       clipPathUnits="userSpaceOnUse"><path
         id="path2318-7"
         stroke-width="1"
         d="M-479.578-331.758h841.89v595.276h-841.89z" /></clipPath><clipPath
       id="clipPath2328-8"
       clipPathUnits="userSpaceOnUse"><path
         id="path2330-4"
         stroke-width="1"
         d="M-487.594-375.361h841.89v595.276h-841.89z" /></clipPath><clipPath
       id="clipPath2341-5"
       clipPathUnits="userSpaceOnUse"><path
         id="path2343-0"
         stroke-width="1"
         d="M-519.58-379.175h841.89v595.276h-841.89z" /></clipPath><clipPath
       id="clipPath2334-3"
       clipPathUnits="userSpaceOnUse"><path
         id="path2336-6"
         stroke-width="1"
         d="M-521.221-377.69h841.89v595.276h-841.89z" /></clipPath><clipPath
       id="clipPath2368-1"
       clipPathUnits="userSpaceOnUse"><path
         id="path2370-0"
         stroke-width="1"
         d="M-532.242-373.822h841.89v595.276h-841.89z" /></clipPath><clipPath
       id="clipPath2347-6"
       clipPathUnits="userSpaceOnUse"><path
         id="path2349-3"
         stroke-width="1"
         d="M-564.678-336.04h841.89v595.275h-841.89z" /></clipPath><clipPath
       id="clipPath2353-2"
       clipPathUnits="userSpaceOnUse"><path
         id="path2355-0"
         stroke-width="1"
         d="M-479.578-336.04h841.89v595.275h-841.89z" /></clipPath><clipPath
       id="clipPath2361-6"
       clipPathUnits="userSpaceOnUse"><path
         id="path2363-1"
         stroke-width="1"
         d="M-515.48-351.719h841.89v595.276h-841.89z" /></clipPath></defs><path
     id="path13397"
     fill="#ffffff"
     d="M 0.001,109.318 C 0.001,120.723 9.682,130 21.579,130 h 196.85 c 11.894,0 21.573,-9.28 21.573,-20.682 V 20.681 C 240.002,9.277 230.322,0 218.428,0 H 21.577 C 9.682,0 0,9.279 0,20.68 Z"
     style="stroke-width:1.636" /><g
     id="g11"
     transform="matrix(0.92729911,0,0,0.92729911,141.29374,9.0273481)"><path
       d="m -43.91655,9.7438719 c 1.714,-0.1437 3.304,1.4439001 3.158,3.1582001 -0.212,2.4423 -3.251,57.9385 -21.011,75.6994 -17.0199,17.020298 -37.0761,13.027298 -50.1733,3.6111 -0.1583,-0.1144 -0.3361,-0.2508 -0.5309,-0.4066 l -11.8067,11.789798 c -2.8537,2.852 -7.4776,2.852 -10.3288,0 -2.8537,-2.853 -2.8537,-7.476998 0,-10.328798 l 11.7921,-11.8049 c -0.1582,-0.1973 -0.2946,-0.375 -0.409,-0.5333 -9.4133,-13.0955 -13.409,-33.1526 3.6109,-50.1757 17.7601,-17.7609 73.2537,-20.8023001 75.6987,-21.0092001 z"
       fill="#1e8f4e"
       id="path8" /><path
       fill-rule="evenodd"
       clip-rule="evenodd"
       d="m -72.04225,73.586572 c 0,2.4133 -1.8317,4.1288 -4.3902,4.1288 -2.4714,0 -3.7797,-1.1339 -4.5648,-3.8671 l -2.2096,-6.6293 h -15.1479 l -2.2097,6.5421 c -0.8141,2.7913 -2.1224,3.9543 -4.4484,3.9543 -2.733,0 -4.4484,-1.5992 -4.4484,-4.1288 0,-0.7269 0.2035,-1.7155 0.5815,-2.7913 l 11.4554,-31.1985 c 1.2211,-3.4019 3.2854,-4.972 6.5999,-4.972 3.4308,0 5.466,1.5119 6.7162,4.9429 l 11.5136,31.2276 c 0.4071,1.134 0.5524,1.919 0.5524,2.7913 z m -24.3936,-13.1714 h 11.1938 l -5.5533,-17.1839 h -0.2035 z"
       fill="#ffffff"
       id="path9" /><path
       d="m -65.82915,46.188872 c -1.7217,0 -2.7505,-1.1128 -2.7505,-2.9185 v -6.0048 h -5.7319 c -1.7217,0 -2.8135,-1.0079 -2.8135,-2.6875 0,-1.6587 1.0918,-2.6665 2.8135,-2.6665 h 5.7319 v -6.0469 c 0,-1.7847 1.0498,-2.9185 2.7505,-2.9185 1.7007,0 2.7295,1.1338 2.7295,2.9185 v 6.0469 h 5.7111 c 1.743,0 2.834,1.0078 2.834,2.6665 0,1.6796 -1.112,2.6875 -2.855,2.6875 h -5.6901 v 6.0048 c 0,1.8057 -1.0288,2.9185 -2.7295,2.9185 z"
       fill="#ffffff"
       id="path10" /></g><path
     id="path13399"
     fill="#1e8f4e"
     fill-rule="evenodd"
     d="m 2.35,109.318 c 0,10.017 8.535,18.334 19.229,18.334 h 196.85 c 10.693,0 19.227,-8.32 19.227,-18.334 V 20.681 c 0,-10.016 -8.534,-18.333 -19.228,-18.333 H 21.577 c -10.694,0 -19.228,8.32 -19.228,18.333 z M 21.578,130 C 9.684,130 0,120.723 0,109.318 V 20.681 C 0.001,9.28 9.68,0 21.577,0 h 196.851 c 11.895,0 21.574,9.277 21.574,20.681 v 88.64 c 0,11.402 -9.68,20.681 -21.574,20.681 z"
     clip-rule="evenodd"
     style="stroke-width:1.636;fill:#1e8f4e;fill-opacity:1" /><g
     id="g13"
     transform="matrix(0.92730244,0,0,0.92730244,99.997076,-97.488025)"><path
       d="m 35.5371,129.227 v 24.909 c 0,6.227 -3.8006,9.963 -10.1351,9.963 -5.0676,0 -7.6013,-3.736 -7.6013,-3.736 v -6.227 c 0,0 3.8006,4.981 7.6013,4.981 3.8007,0 5.0676,-2.491 5.0676,-4.981 v -3.089 c -1.419,0.299 -3.2433,0.598 -5.0676,0.598 -6.3344,0 -11.402,-4.982 -11.402,-11.209 0,-6.227 5.0676,-11.209 11.402,-11.209 z M 25.402,146.663 c 1.3682,0 3.4459,-0.349 5.0676,-0.697 V 134.209 H 25.402 c -3.8007,0 -6.3344,2.491 -6.3344,6.227 0,3.736 2.5337,6.227 6.3344,6.227 z"
       fill="#1d1d1b"
       id="path4" /><path
       d="m 45.1655,139.191 c 0,-6.228 3.8006,-9.964 10.1351,-9.964 v 4.982 c -5.0676,0 -10.1351,1.245 -10.1351,7.472 v 12.455 h -5.0676 v -24.909 h 5.0676 z"
       fill="#1d1d1b"
       id="path5" /><path
       d="m 78.8944,141.681 v 1.246 H 61.2593 c 0.5575,4.135 4.0541,6.227 7.5,6.227 5.0676,0 7.6013,-2.491 7.6013,-2.491 v 4.982 c 0,0 -2.5337,2.491 -7.6013,2.491 -7.6013,0 -12.6689,-4.982 -12.6689,-12.455 0,-7.472 5.0676,-12.454 11.402,-12.454 6.3345,0 11.402,4.982 11.402,12.454 z m -11.402,-7.472 c -3.0912,0 -5.3716,1.644 -6.081,4.982 h 12.1621 c -0.7095,-3.338 -2.9899,-4.982 -6.0811,-4.982 z"
       fill="#1d1d1b"
       id="path6" /><path
       d="m 103.725,141.681 v 1.246 H 86.0904 c 0.5574,4.135 4.054,6.227 7.4999,6.227 5.0676,0 7.6017,-2.491 7.6017,-2.491 v 4.982 c 0,0 -2.5341,2.491 -7.6017,2.491 -7.6013,0 -12.6689,-4.982 -12.6689,-12.455 0,-7.472 5.0676,-12.454 11.402,-12.454 6.3345,0 11.4016,4.982 11.4016,12.454 z m -11.4016,-7.472 c -3.0912,0 -5.3716,1.644 -6.081,4.982 h 12.1621 c -0.7094,-3.338 -2.9898,-4.982 -6.0811,-4.982 z"
       fill="#1d1d1b"
       id="path7" /><path
       d="m 120.955,129.227 c 5.068,0 8.868,3.736 8.868,9.964 v 14.945 h -5.067 v -12.455 c 0,-4.981 -2.534,-7.472 -6.335,-7.472 -3.8,0 -6.334,2.491 -6.334,7.472 v 12.455 h -5.068 v -24.909 h 5.068 v 9.964 c 0,-6.228 3.801,-9.964 8.868,-9.964 z"
       fill="#1d1d1b"
       id="path8-0" /><rect
       x="99.666702"
       y="165.5"
       width="31.3333"
       height="17"
       rx="8.5"
       fill="#bf3122"
       stroke="#ffffff"
       stroke-width="2"
       id="rect8-2" /><rect
       x="82.333298"
       y="165.5"
       width="31.3333"
       height="17"
       rx="8.5"
       fill="#de4523"
       stroke="#ffffff"
       stroke-width="2"
       id="rect9-3" /><rect
       x="65"
       y="165.5"
       width="31.3333"
       height="17"
       rx="8.5"
       fill="#ef7e1a"
       stroke="#ffffff"
       stroke-width="2"
       id="rect10-7" /><rect
       x="47.666698"
       y="165.5"
       width="31.3333"
       height="17"
       rx="8.5"
       fill="#f5c100"
       stroke="#ffffff"
       stroke-width="2"
       id="rect11-5" /><rect
       x="30.3333"
       y="165.5"
       width="31.3333"
       height="17"
       rx="8.5"
       fill="#2ecc71"
       stroke="#ffffff"
       stroke-width="2"
       id="rect12" /><rect
       x="13"
       y="165.5"
       width="31.3333"
       height="17"
       rx="8.5"
       fill="#1e8f4e"
       stroke="#ffffff"
       stroke-width="2"
       id="rect13" /><path
       fill-rule="evenodd"
       clip-rule="evenodd"
       d="M 55.3519,193.401 V 199 c 0,0 -4.1817,-1.401 -6.9687,-1.401 -4.1817,0 -8.3633,2.8 -8.3633,8.401 0,5.599 4.1816,8.401 8.3633,8.401 2.787,0 6.9687,-1.401 6.9687,-1.401 v 5.599 c 0,0 -2.787,1.401 -6.9687,1.401 -8.3633,0 -13.9374,-5.599 -13.9374,-14 0,-8.401 5.5741,-14 13.9374,-14 4.1817,0 6.9687,1.401 6.9687,1.401 z M 23.0179,220 c -4.1817,0 -8.3634,-1.401 -8.3634,-1.401 V 213 c 0,0 4.1817,1.401 8.3634,1.401 2.787,0 4.1817,-1.401 4.1817,-2.8 0,-1.662 -2.0664,-2.228 -4.564,-2.912 C 18.8208,207.644 14,206.323 14,200.401 14,194.802 17.4439,192 23.0202,192 c 4.1817,0 8.3634,1.401 8.3634,1.401 V 199 c 0,0 -4.1817,-1.401 -8.3634,-1.401 -2.787,0 -4.1817,1.401 -4.1817,2.8 0,1.662 2.1819,2.228 4.8191,2.912 4.0281,1.045 9.1183,2.366 9.1183,8.288 -0.0023,5.601 -4.184,8.401 -9.758,8.401 z m 62.4939,-14 c 0,8.401 -5.574,14 -13.9374,14 -8.3633,0 -13.9374,-5.599 -13.9374,-14 0,-8.401 5.5741,-14 13.9374,-14 8.3634,0 13.9374,5.599 13.9374,14 z m -22.2984,0 c 0,5.599 4.1817,8.401 8.3633,8.401 4.1817,0 8.3634,-2.8 8.3634,-8.401 0,-5.599 -4.1817,-8.401 -8.3634,-8.401 -4.1816,0 -8.3633,2.802 -8.3633,8.401 z m 41.4216,-14 v 5.599 c -5.5743,0 -11.1507,1.401 -11.1507,8.401 v 14 h -5.574 v -28 h 5.574 v 11.2 c 0,-7 4.1817,-11.2 11.1507,-11.2 z M 130,207.401 h -19.398 c 0.613,4.649 4.459,7 8.25,7 5.574,0 8.363,-2.8 8.363,-2.8 v 5.599 c 0,0 -2.787,2.8 -8.363,2.8 -8.363,0 -13.937,-5.599 -13.937,-14 0,-8.401 5.574,-14 12.542,-14 6.969,0 12.543,5.599 12.543,14 z M 110.768,203.2 h 13.38 c -0.779,-3.752 -3.288,-5.599 -6.688,-5.599 -3.403,-0.002 -5.912,1.847 -6.692,5.599 z"
       fill="#1d1d1b"
       id="path13" /></g></svg>
