<?xml version="1.0" encoding="UTF-8" standalone="no"?>
<svg
   id="svg2032"
   width="240"
   height="130"
   version="1.1"
   viewBox="0 0 240 130"
   sodipodi:docname="green-score-f.svg"
   inkscape:version="1.4 (1:1.4+202410161351+e7c3feb100)"
   xml:space="preserve"
   xmlns:inkscape="http://www.inkscape.org/namespaces/inkscape"
   xmlns:sodipodi="http://sodipodi.sourceforge.net/DTD/sodipodi-0.dtd"
   xmlns="http://www.w3.org/2000/svg"
   xmlns:svg="http://www.w3.org/2000/svg"><sodipodi:namedview
     id="namedview1"
     pagecolor="#ffffff"
     bordercolor="#666666"
     borderopacity="1.0"
     inkscape:showpageshadow="2"
     inkscape:pageopacity="0.0"
     inkscape:pagecheckerboard="0"
     inkscape:deskcolor="#d1d1d1"
     inkscape:zoom="1.95"
     inkscape:cx="82.564103"
     inkscape:cy="-17.435897"
     inkscape:window-width="2560"
     inkscape:window-height="1403"
     inkscape:window-x="0"
     inkscape:window-y="0"
     inkscape:window-maximized="1"
     inkscape:current-layer="g3"
     showguides="false" /><defs
     id="defs2029" /><g
     clip-path="url(#clip0_63_1438)"
     id="g3"
     transform="matrix(0.92713566,0,0,0.92713566,-6.8642355,4.6293059)"><path
       d="m 116.833,16.0091 c 1.714,-0.1437 3.304,1.4439 3.158,3.1582 -0.212,2.4423 -3.251,57.9385 -21.0115,75.6994 C 81.9567,111.887 61.9025,107.894 48.8048,98.4778 48.6466,98.3634 48.4688,98.227 48.274,98.0712 L 36.4694,109.861 c -2.8538,2.852 -7.4777,2.852 -10.3291,0 -2.8537,-2.853 -2.8537,-7.477 0,-10.3288 L 37.9328,87.7273 C 37.7745,87.53 37.6382,87.3523 37.5237,87.194 28.1102,74.0985 24.1144,54.0414 41.1348,37.0183 58.8904,19.2574 114.388,16.216 116.833,16.0091 Z"
       fill="#bf3122"
       id="path2-3" /><path
       d="m 64.9395,83.5566 c -2.7833,0 -4.4239,-1.6992 -4.4239,-4.5996 V 45.3242 c 0,-2.9004 1.6406,-4.5996 4.4239,-4.5996 h 19.7753 c 2.4317,0 4.0137,1.377 4.0137,3.6621 0,2.2852 -1.6113,3.6621 -4.0137,3.6621 H 69.3633 v 11.3086 h 13.916 c 2.2852,0 3.7793,1.3184 3.7793,3.4864 0,2.1972 -1.4648,3.5156 -3.7793,3.5156 H 69.3633 V 78.957 c 0,2.9004 -1.6406,4.5996 -4.4238,4.5996 z"
       fill="#ffffff"
       id="path3-2" /></g><path
     id="path15251"
     fill="#d93726"
     fill-rule="evenodd"
     d="m 2.35,109.318 c 0,10.017 8.535,18.334 19.229,18.334 h 196.85 c 10.693,0 19.227,-8.32 19.227,-18.334 V 20.681 c 0,-10.016 -8.534,-18.333 -19.228,-18.333 H 21.577 c -10.694,0 -19.228,8.32 -19.228,18.333 z M 21.578,130 C 9.684,130 0,120.723 0,109.318 V 20.681 C 0.001,9.28 9.68,0 21.577,0 h 196.851 c 11.895,0 21.574,9.277 21.574,20.681 v 88.64 c 0,11.402 -9.68,20.681 -21.574,20.681 z"
     clip-rule="evenodd"
     style="stroke-width:1.636;fill:#bf3122;fill-opacity:1" /><g
     id="g13"
     transform="matrix(0.92730244,0,0,0.92730244,99.997076,-97.488025)"><path
       d="m 35.5371,129.227 v 24.909 c 0,6.227 -3.8006,9.963 -10.1351,9.963 -5.0676,0 -7.6013,-3.736 -7.6013,-3.736 v -6.227 c 0,0 3.8006,4.981 7.6013,4.981 3.8007,0 5.0676,-2.491 5.0676,-4.981 v -3.089 c -1.419,0.299 -3.2433,0.598 -5.0676,0.598 -6.3344,0 -11.402,-4.982 -11.402,-11.209 0,-6.227 5.0676,-11.209 11.402,-11.209 z M 25.402,146.663 c 1.3682,0 3.4459,-0.349 5.0676,-0.697 V 134.209 H 25.402 c -3.8007,0 -6.3344,2.491 -6.3344,6.227 0,3.736 2.5337,6.227 6.3344,6.227 z"
       fill="#1d1d1b"
       id="path4" /><path
       d="m 45.1655,139.191 c 0,-6.228 3.8006,-9.964 10.1351,-9.964 v 4.982 c -5.0676,0 -10.1351,1.245 -10.1351,7.472 v 12.455 h -5.0676 v -24.909 h 5.0676 z"
       fill="#1d1d1b"
       id="path5" /><path
       d="m 78.8944,141.681 v 1.246 H 61.2593 c 0.5575,4.135 4.0541,6.227 7.5,6.227 5.0676,0 7.6013,-2.491 7.6013,-2.491 v 4.982 c 0,0 -2.5337,2.491 -7.6013,2.491 -7.6013,0 -12.6689,-4.982 -12.6689,-12.455 0,-7.472 5.0676,-12.454 11.402,-12.454 6.3345,0 11.402,4.982 11.402,12.454 z m -11.402,-7.472 c -3.0912,0 -5.3716,1.644 -6.081,4.982 h 12.1621 c -0.7095,-3.338 -2.9899,-4.982 -6.0811,-4.982 z"
       fill="#1d1d1b"
       id="path6" /><path
       d="m 103.725,141.681 v 1.246 H 86.0904 c 0.5574,4.135 4.054,6.227 7.4999,6.227 5.0676,0 7.6017,-2.491 7.6017,-2.491 v 4.982 c 0,0 -2.5341,2.491 -7.6017,2.491 -7.6013,0 -12.6689,-4.982 -12.6689,-12.455 0,-7.472 5.0676,-12.454 11.402,-12.454 6.3345,0 11.4016,4.982 11.4016,12.454 z m -11.4016,-7.472 c -3.0912,0 -5.3716,1.644 -6.081,4.982 h 12.1621 c -0.7094,-3.338 -2.9898,-4.982 -6.0811,-4.982 z"
       fill="#1d1d1b"
       id="path7" /><path
       d="m 120.955,129.227 c 5.068,0 8.868,3.736 8.868,9.964 v 14.945 h -5.067 v -12.455 c 0,-4.981 -2.534,-7.472 -6.335,-7.472 -3.8,0 -6.334,2.491 -6.334,7.472 v 12.455 h -5.068 v -24.909 h 5.068 v 9.964 c 0,-6.228 3.801,-9.964 8.868,-9.964 z"
       fill="#1d1d1b"
       id="path8" /><rect
       x="99.666702"
       y="165.5"
       width="31.3333"
       height="17"
       rx="8.5"
       fill="#bf3122"
       stroke="#ffffff"
       stroke-width="2"
       id="rect8-6" /><rect
       x="82.333298"
       y="165.5"
       width="31.3333"
       height="17"
       rx="8.5"
       fill="#de4523"
       stroke="#ffffff"
       stroke-width="2"
       id="rect9-3" /><rect
       x="65"
       y="165.5"
       width="31.3333"
       height="17"
       rx="8.5"
       fill="#ef7e1a"
       stroke="#ffffff"
       stroke-width="2"
       id="rect10-2" /><rect
       x="47.666698"
       y="165.5"
       width="31.3333"
       height="17"
       rx="8.5"
       fill="#f5c100"
       stroke="#ffffff"
       stroke-width="2"
       id="rect11-0" /><rect
       x="30.3333"
       y="165.5"
       width="31.3333"
       height="17"
       rx="8.5"
       fill="#2ecc71"
       stroke="#ffffff"
       stroke-width="2"
       id="rect12-6" /><rect
       x="13"
       y="165.5"
       width="31.3333"
       height="17"
       rx="8.5"
       fill="#1e8f4e"
       stroke="#ffffff"
       stroke-width="2"
       id="rect13" /><path
       fill-rule="evenodd"
       clip-rule="evenodd"
       d="M 55.3519,193.401 V 199 c 0,0 -4.1817,-1.401 -6.9687,-1.401 -4.1817,0 -8.3633,2.8 -8.3633,8.401 0,5.599 4.1816,8.401 8.3633,8.401 2.787,0 6.9687,-1.401 6.9687,-1.401 v 5.599 c 0,0 -2.787,1.401 -6.9687,1.401 -8.3633,0 -13.9374,-5.599 -13.9374,-14 0,-8.401 5.5741,-14 13.9374,-14 4.1817,0 6.9687,1.401 6.9687,1.401 z M 23.0179,220 c -4.1817,0 -8.3634,-1.401 -8.3634,-1.401 V 213 c 0,0 4.1817,1.401 8.3634,1.401 2.787,0 4.1817,-1.401 4.1817,-2.8 0,-1.662 -2.0664,-2.228 -4.564,-2.912 C 18.8208,207.644 14,206.323 14,200.401 14,194.802 17.4439,192 23.0202,192 c 4.1817,0 8.3634,1.401 8.3634,1.401 V 199 c 0,0 -4.1817,-1.401 -8.3634,-1.401 -2.787,0 -4.1817,1.401 -4.1817,2.8 0,1.662 2.1819,2.228 4.8191,2.912 4.0281,1.045 9.1183,2.366 9.1183,8.288 -0.0023,5.601 -4.184,8.401 -9.758,8.401 z m 62.4939,-14 c 0,8.401 -5.574,14 -13.9374,14 -8.3633,0 -13.9374,-5.599 -13.9374,-14 0,-8.401 5.5741,-14 13.9374,-14 8.3634,0 13.9374,5.599 13.9374,14 z m -22.2984,0 c 0,5.599 4.1817,8.401 8.3633,8.401 4.1817,0 8.3634,-2.8 8.3634,-8.401 0,-5.599 -4.1817,-8.401 -8.3634,-8.401 -4.1816,0 -8.3633,2.802 -8.3633,8.401 z m 41.4216,-14 v 5.599 c -5.5743,0 -11.1507,1.401 -11.1507,8.401 v 14 h -5.574 v -28 h 5.574 v 11.2 c 0,-7 4.1817,-11.2 11.1507,-11.2 z M 130,207.401 h -19.398 c 0.613,4.649 4.459,7 8.25,7 5.574,0 8.363,-2.8 8.363,-2.8 v 5.599 c 0,0 -2.787,2.8 -8.363,2.8 -8.363,0 -13.937,-5.599 -13.937,-14 0,-8.401 5.574,-14 12.542,-14 6.969,0 12.543,5.599 12.543,14 z M 110.768,203.2 h 13.38 c -0.779,-3.752 -3.288,-5.599 -6.688,-5.599 -3.403,-0.002 -5.912,1.847 -6.692,5.599 z"
       fill="#1d1d1b"
       id="path13" /></g></svg>
