<?xml version="1.0" encoding="UTF-8" standalone="no"?>
<svg
   xmlns:dc="http://purl.org/dc/elements/1.1/"
   xmlns:cc="http://creativecommons.org/ns#"
   xmlns:rdf="http://www.w3.org/1999/02/22-rdf-syntax-ns#"
   xmlns:svg="http://www.w3.org/2000/svg"
   xmlns="http://www.w3.org/2000/svg"
   xmlns:sodipodi="http://sodipodi.sourceforge.net/DTD/sodipodi-0.dtd"
   xmlns:inkscape="http://www.inkscape.org/namespaces/inkscape"
   width="24"
   height="24"
   viewBox="0 0 24 24"
   version="1.1"
   id="svg6"
   sodipodi:docname="lupin-content-unknown.svg"
   inkscape:version="1.0.1 (3bc2e813f5, 2020-09-07)">
  <metadata
     id="metadata12">
    <rdf:RDF>
      <cc:Work
         rdf:about="">
        <dc:format>image/svg+xml</dc:format>
        <dc:type
           rdf:resource="http://purl.org/dc/dcmitype/StillImage" />
        <dc:title></dc:title>
      </cc:Work>
    </rdf:RDF>
  </metadata>
  <defs
     id="defs10" />
  <sodipodi:namedview
     pagecolor="#ffffff"
     bordercolor="#666666"
     borderopacity="1"
     objecttolerance="10"
     gridtolerance="10"
     guidetolerance="10"
     inkscape:pageopacity="0"
     inkscape:pageshadow="2"
     inkscape:window-width="1848"
     inkscape:window-height="1022"
     id="namedview8"
     showgrid="true"
     inkscape:snap-global="false"
     inkscape:snap-to-guides="false"
     inkscape:snap-grids="true"
     inkscape:zoom="19.666668"
     inkscape:cx="11.233328"
     inkscape:cy="8.1825688"
     inkscape:window-x="72"
     inkscape:window-y="21"
     inkscape:window-maximized="1"
     inkscape:current-layer="svg6"
     inkscape:document-rotation="0">
    <inkscape:grid
       type="xygrid"
       id="grid822" />
  </sodipodi:namedview>
  <rect
     style="fill:#b3b3b3;stroke:none"
     id="rect1706"
     width="24"
     height="24"
     x="0"
     y="0"
     ry="5" />
  <path
     id="rect835"
     style="fill:#ffffff;stroke-width:0.886634"
     d="M 3,5 C 3.3821047,3.1720765 8.4390542,3.1105452 10.403134,3.3599702 12.092606,3.5745217 12.652545,7.4084893 11.613997,8.8258374 11.007372,9.653724 5.2352447,11.19462 4.2108637,10.465868 3.1887692,9.738742 2.5810509,7.0041814 3,5 Z"
     sodipodi:nodetypes="sssss" />
  <path
     id="path838"
     style="fill:#ffffff;stroke-width:0.886634"
     d="M 13,21 C 9.434245,21.633675 6.4192036,19.617609 6.103726,18.546256 5.634792,16.953769 7.0921026,13.7794 8.063992,13.343742 c 0.9365588,-0.41982 6.626476,1.521179 7.120524,2.677186 0.570452,1.334786 -0.480725,2.153231 -0.760973,3.009078 C 14.069465,20.111317 14.125273,20.800027 13,21 Z"
     sodipodi:nodetypes="ssssss" />
  <path
     id="path840"
     style="fill:#ffffff;stroke-width:0.886634"
     d="m 13,9 c -0.07375,1.623468 2.936673,6.874914 5.037454,5.667466 1.476528,-0.848652 3.508607,-1.965118 3.546758,-3.72182 C 21.606991,9.89674 18.494134,5.3079663 17.086527,5.4147551 15.835772,5.509645 13.092913,6.9546078 13,9 Z"
     sodipodi:nodetypes="sssss" />
</svg>
