<?xml version="1.0" encoding="UTF-8" standalone="no"?>
<svg
   xmlns:dc="http://purl.org/dc/elements/1.1/"
   xmlns:cc="http://creativecommons.org/ns#"
   xmlns:rdf="http://www.w3.org/1999/02/22-rdf-syntax-ns#"
   xmlns:svg="http://www.w3.org/2000/svg"
   xmlns="http://www.w3.org/2000/svg"
   xmlns:sodipodi="http://sodipodi.sourceforge.net/DTD/sodipodi-0.dtd"
   xmlns:inkscape="http://www.inkscape.org/namespaces/inkscape"
   width="24"
   height="24"
   viewBox="0 0 24 24"
   version="1.1"
   id="svg6"
   sodipodi:docname="may-contain-sesame-seeds.svg"
   inkscape:version="1.0.1 (3bc2e813f5, 2020-09-07)">
  <metadata
     id="metadata12">
    <rdf:RDF>
      <cc:Work
         rdf:about="">
        <dc:format>image/svg+xml</dc:format>
        <dc:type
           rdf:resource="http://purl.org/dc/dcmitype/StillImage" />
        <dc:title></dc:title>
      </cc:Work>
    </rdf:RDF>
  </metadata>
  <defs
     id="defs10" />
  <sodipodi:namedview
     pagecolor="#ffffff"
     bordercolor="#666666"
     borderopacity="1"
     objecttolerance="10"
     gridtolerance="10"
     guidetolerance="10"
     inkscape:pageopacity="0"
     inkscape:pageshadow="2"
     inkscape:window-width="1848"
     inkscape:window-height="1022"
     id="namedview8"
     showgrid="true"
     inkscape:snap-global="true"
     inkscape:snap-to-guides="false"
     inkscape:snap-grids="true"
     inkscape:zoom="19.666667"
     inkscape:cx="12.035837"
     inkscape:cy="12.813981"
     inkscape:window-x="72"
     inkscape:window-y="21"
     inkscape:window-maximized="1"
     inkscape:current-layer="svg6"
     inkscape:document-rotation="0"
     showguides="false">
    <inkscape:grid
       type="xygrid"
       id="grid822" />
  </sodipodi:namedview>
  <rect
     style="fill:#ff6600;stroke:none"
     id="rect1706"
     width="24"
     height="24"
     x="0"
     y="0"
     ry="5" />
  <path
     style="fill:#ffffff;stroke:none;stroke-width:1px;stroke-linecap:butt;stroke-linejoin:miter;stroke-opacity:1"
     d="M 7,4 C 4.4019242,5.5 3.6698733,8.2320509 5.169873,10.830128 7.7679489,9.330127 8.4999997,6.5980761 7,4 Z"
     id="path2454"
     sodipodi:nodetypes="ccc" />
  <path
     style="fill:#ffffff;stroke:none;stroke-width:1px;stroke-linecap:butt;stroke-linejoin:miter;stroke-opacity:1"
     d="M 9,2 C 9,4.9999998 11,7 14.000001,7.0000002 14,4.0000001 12,1.9999999 9,2 Z"
     id="path1051"
     sodipodi:nodetypes="ccc" />
  <path
     style="fill:#ffffff;stroke:none;stroke-width:1px;stroke-linecap:butt;stroke-linejoin:miter;stroke-opacity:1"
     d="M 8.1698727,20.830128 C 10.767949,22.330128 13.5,21.598077 15,19 12.401924,17.500001 9.6698727,18.232052 8.1698727,20.830128 Z"
     id="path1053"
     sodipodi:nodetypes="ccc" />
  <path
     style="fill:#ffffff;stroke:none;stroke-width:1px;stroke-linecap:butt;stroke-linejoin:miter;stroke-opacity:1"
     d="m 21,15 c -2.897777,0.776457 -4.311991,3.225947 -3.535533,6.123725 C 20.362244,20.347267 21.776457,17.897777 21,15 Z"
     id="path1055"
     sodipodi:nodetypes="ccc" />
  <path
     style="fill:#ffffff;stroke:none;stroke-width:1px;stroke-linecap:butt;stroke-linejoin:miter;stroke-opacity:1"
     d="M 11.876275,11.464468 C 12.652732,14.362245 15.102221,15.776458 18,15 17.223542,12.102224 14.774051,10.688011 11.876275,11.464468 Z"
     id="path1057"
     sodipodi:nodetypes="ccc" />
  <path
     style="fill:#ffffff;stroke:none;stroke-width:1px;stroke-linecap:butt;stroke-linejoin:miter;stroke-opacity:1"
     d="M 9.0710676,14.999999 C 6.9497476,12.878679 4.1213202,12.878679 2,15 c 2.1213201,2.121319 4.9497477,2.121319 7.0710676,-10e-7 z"
     id="path1059"
     sodipodi:nodetypes="ccc" />
  <path
     style="fill:#ffffff;stroke:none;stroke-width:1px;stroke-linecap:butt;stroke-linejoin:miter;stroke-opacity:1"
     d="m 16.999999,10.000001 c 3,0 5.000001,-2 5.000001,-5.000001 -3,1e-6 -5.000001,2.000001 -5.000001,5.000001 z"
     id="path1061"
     sodipodi:nodetypes="ccc" />
</svg>
