<?xml version="1.0" encoding="UTF-8" standalone="no"?>
<svg
   xmlns:dc="http://purl.org/dc/elements/1.1/"
   xmlns:cc="http://creativecommons.org/ns#"
   xmlns:rdf="http://www.w3.org/1999/02/22-rdf-syntax-ns#"
   xmlns:svg="http://www.w3.org/2000/svg"
   xmlns="http://www.w3.org/2000/svg"
   xmlns:sodipodi="http://sodipodi.sourceforge.net/DTD/sodipodi-0.dtd"
   xmlns:inkscape="http://www.inkscape.org/namespaces/inkscape"
   width="24"
   height="24"
   viewBox="0 0 24 24"
   version="1.1"
   id="svg6"
   sodipodi:docname="may-contain-soybeans.svg"
   inkscape:version="1.0.1 (3bc2e813f5, 2020-09-07)">
  <metadata
     id="metadata12">
    <rdf:RDF>
      <cc:Work
         rdf:about="">
        <dc:format>image/svg+xml</dc:format>
        <dc:type
           rdf:resource="http://purl.org/dc/dcmitype/StillImage" />
        <dc:title></dc:title>
      </cc:Work>
    </rdf:RDF>
  </metadata>
  <defs
     id="defs10" />
  <sodipodi:namedview
     pagecolor="#ffffff"
     bordercolor="#666666"
     borderopacity="1"
     objecttolerance="10"
     gridtolerance="10"
     guidetolerance="10"
     inkscape:pageopacity="0"
     inkscape:pageshadow="2"
     inkscape:window-width="1848"
     inkscape:window-height="1022"
     id="namedview8"
     showgrid="true"
     inkscape:snap-global="true"
     inkscape:snap-to-guides="false"
     inkscape:snap-grids="true"
     inkscape:zoom="27.812867"
     inkscape:cx="11.356334"
     inkscape:cy="11.540599"
     inkscape:window-x="72"
     inkscape:window-y="21"
     inkscape:window-maximized="1"
     inkscape:current-layer="svg6"
     inkscape:document-rotation="0">
    <inkscape:grid
       type="xygrid"
       id="grid822" />
  </sodipodi:namedview>
  <rect
     style="fill:#ff6600;stroke:none"
     id="rect1706"
     width="24"
     height="24"
     x="0"
     y="0"
     ry="5" />
  <path
     id="rect2701"
     style="fill:#ffffff;fill-opacity:1;fill-rule:evenodd;stroke:none;stroke-opacity:1"
     d="M 2.6308594 6.4160156 C -0.21615019 17.0412 9.8048932 12.481347 21.361328 17.648438 C 24.208337 7.0232535 14.670257 11.712515 2.6308594 6.4160156 z M 5.515625 8.7597656 A 2.5023153 1.9971027 34.093076 0 1 7.0585938 9.1835938 A 2.5023153 1.9971027 34.093076 0 1 8.2226562 12.216797 A 2.5023153 1.9971027 34.093076 0 1 5.1015625 12.671875 A 2.5023153 1.9971027 34.093076 0 1 3.9375 9.6386719 A 2.5023153 1.9971027 34.093076 0 1 5.515625 8.7597656 z M 11.671875 9.9746094 A 2.5023153 1.9971027 19.093076 0 1 12.490234 10.09375 A 2.5023153 1.9971027 19.093076 0 1 14.398438 12.722656 A 2.5023153 1.9971027 19.093076 0 1 11.501953 13.96875 A 2.5023153 1.9971027 19.093076 0 1 9.59375 11.341797 A 2.5023153 1.9971027 19.093076 0 1 11.671875 9.9746094 z M 17.347656 10.96875 A 2.5023153 1.9971027 34.093076 0 1 18.890625 11.392578 A 2.5023153 1.9971027 34.093076 0 1 20.052734 14.425781 A 2.5023153 1.9971027 34.093076 0 1 16.931641 14.880859 A 2.5023153 1.9971027 34.093076 0 1 15.769531 11.847656 A 2.5023153 1.9971027 34.093076 0 1 17.347656 10.96875 z " />
</svg>
