<?xml version="1.0" encoding="UTF-8" standalone="no"?>
<svg
   xmlns:dc="http://purl.org/dc/elements/1.1/"
   xmlns:cc="http://creativecommons.org/ns#"
   xmlns:rdf="http://www.w3.org/1999/02/22-rdf-syntax-ns#"
   xmlns:svg="http://www.w3.org/2000/svg"
   xmlns="http://www.w3.org/2000/svg"
   xmlns:sodipodi="http://sodipodi.sourceforge.net/DTD/sodipodi-0.dtd"
   xmlns:inkscape="http://www.inkscape.org/namespaces/inkscape"
   width="24"
   height="24"
   viewBox="0 0 24 24"
   version="1.1"
   id="svg6"
   sodipodi:docname="may-contain-milk.svg"
   inkscape:version="1.0.1 (3bc2e813f5, 2020-09-07)">
  <metadata
     id="metadata12">
    <rdf:RDF>
      <cc:Work
         rdf:about="">
        <dc:format>image/svg+xml</dc:format>
        <dc:type
           rdf:resource="http://purl.org/dc/dcmitype/StillImage" />
        <dc:title></dc:title>
      </cc:Work>
    </rdf:RDF>
  </metadata>
  <defs
     id="defs10" />
  <sodipodi:namedview
     pagecolor="#ffffff"
     bordercolor="#666666"
     borderopacity="1"
     objecttolerance="10"
     gridtolerance="10"
     guidetolerance="10"
     inkscape:pageopacity="0"
     inkscape:pageshadow="2"
     inkscape:window-width="1848"
     inkscape:window-height="1022"
     id="namedview8"
     showgrid="true"
     inkscape:snap-global="true"
     inkscape:snap-to-guides="false"
     inkscape:snap-grids="true"
     inkscape:zoom="13.906434"
     inkscape:cx="11.233328"
     inkscape:cy="8.1825688"
     inkscape:window-x="72"
     inkscape:window-y="21"
     inkscape:window-maximized="1"
     inkscape:current-layer="svg6"
     inkscape:document-rotation="0">
    <inkscape:grid
       type="xygrid"
       id="grid822" />
  </sodipodi:namedview>
  <rect
     style="fill:#ff6600;stroke:none"
     id="rect1706"
     width="24"
     height="24"
     x="0"
     y="0"
     ry="5" />
  <path
     id="path2642"
     style="fill:#ffffff;stroke:none;stroke-width:0.942809px;stroke-linecap:butt;stroke-linejoin:miter;stroke-opacity:1"
     d="M 9.5566406 5 C 9.0607403 7.2675789 7 8.3604051 7 11 L 7 21.027344 C 7 22.000785 7.000962 22 7.7363281 22 L 15 22 C 15.888889 22 15.888672 22 15.888672 21 L 15.888672 11 C 15.888672 8.3604051 13.827932 7.2675789 13.332031 5 L 9.5566406 5 z M 8 11 L 9 11 L 9 21 L 8 21 L 8 11 z " />
  <path
     id="rect2644"
     style="opacity:1;fill:#ffffff;fill-opacity:1;fill-rule:evenodd;stroke:none;stroke-width:0.757234;stroke-opacity:1"
     d="m 10.555555,2 h 1.777779 c 0.888888,0 0.888888,0 0.888888,2 H 9.6666667 c 0,-2 0,-2 0.8888883,-2 z"
     sodipodi:nodetypes="ccccc" />
</svg>
