<?xml version="1.0" encoding="UTF-8" standalone="no"?>
<svg
   xmlns:dc="http://purl.org/dc/elements/1.1/"
   xmlns:cc="http://creativecommons.org/ns#"
   xmlns:rdf="http://www.w3.org/1999/02/22-rdf-syntax-ns#"
   xmlns:svg="http://www.w3.org/2000/svg"
   xmlns="http://www.w3.org/2000/svg"
   xmlns:sodipodi="http://sodipodi.sourceforge.net/DTD/sodipodi-0.dtd"
   xmlns:inkscape="http://www.inkscape.org/namespaces/inkscape"
   width="24"
   height="24"
   version="1.1"
   id="svg8"
   sodipodi:docname="maybe-vegetarian.svg"
   inkscape:version="1.0.2 (e86c870879, 2021-01-15)">
  <metadata
     id="metadata14">
    <rdf:RDF>
      <cc:Work
         rdf:about="">
        <dc:format>image/svg+xml</dc:format>
        <dc:type
           rdf:resource="http://purl.org/dc/dcmitype/StillImage" />
        <dc:title></dc:title>
      </cc:Work>
    </rdf:RDF>
  </metadata>
  <defs
     id="defs12" />
  <sodipodi:namedview
     pagecolor="#ffffff"
     bordercolor="#666666"
     borderopacity="1"
     objecttolerance="10"
     gridtolerance="10"
     guidetolerance="10"
     inkscape:pageopacity="0"
     inkscape:pageshadow="2"
     inkscape:window-width="1848"
     inkscape:window-height="1016"
     id="namedview10"
     showgrid="true"
     inkscape:zoom="14.849242"
     inkscape:cx="12"
     inkscape:cy="12"
     inkscape:window-x="72"
     inkscape:window-y="27"
     inkscape:window-maximized="0"
     inkscape:current-layer="svg8">
    <inkscape:grid
       type="xygrid"
       id="grid908" />
  </sodipodi:namedview>
  <rect
     style="fill:#ff6600;stroke:none"
     width="24"
     height="24"
     ry="5"
     id="rect2" />
  <path
     d="M0 0h24v24H0z"
     fill="none"
     id="path4" />
  <path
     d="M 6.5,22 C 4.57,22 3,20.43 3,18.5 3,15.875 4.5,12 6.5,12 8.5,12 10,15.875 10,18.5 10,20.43 8.43,22 6.5,22 Z"
     style="fill:#ffffff;stroke-width:0.5"
     id="path6" />
  <g
     id="g921"
     transform="translate(-20.444)">
    <path
       style="fill:#ffffff;stroke:none;stroke-width:0.942809px;stroke-linecap:butt;stroke-linejoin:miter;stroke-opacity:1"
       d="m 35.001,5 c -0.497,2.268 -2.557,3.36 -2.557,6 v 10.027 c 0,0.974 10e-4,0.973 0.736,0.973 h 7.264 c 0.889,0 0.889,0 0.889,-1 V 11 c 0,-2.64 -2.061,-3.732 -2.557,-6 z m -1.557,6 h 1 v 10 h -1 z"
       id="path917" />
    <path
       style="fill:#ffffff;fill-opacity:1;fill-rule:evenodd;stroke:none;stroke-width:0.757234;stroke-opacity:1"
       d="m 36,2 h 1.777 c 0.89,0 0.89,0 0.89,2 H 35.11 c 0,-2 0,-2 0.889,-2 z"
       id="path919" />
  </g>
  <path
     d="m 11.782966,2 c 0,0 -5.7753477,0.293474 -7.8313272,2.3488998 C 2.6310057,5.6695329 2.4659957,7.7133304 3.4532867,9.2166926 5.0618566,5.9513787 7.6593784,4.3245359 11,2.7829667 8.3332614,4.8334088 5.4721666,6.7011219 4.1648228,10.023469 5.6859043,11.335797 7.9910599,11.273779 9.4340656,9.8313267 11.489492,7.7753475 11.782966,2 11.782966,2 Z"
     style="fill:#ffffff;stroke-width:0.553725"
     id="path1025" />
</svg>
