<?xml version="1.0" encoding="UTF-8" standalone="no"?>
<svg
   xmlns:dc="http://purl.org/dc/elements/1.1/"
   xmlns:cc="http://creativecommons.org/ns#"
   xmlns:rdf="http://www.w3.org/1999/02/22-rdf-syntax-ns#"
   xmlns:svg="http://www.w3.org/2000/svg"
   xmlns="http://www.w3.org/2000/svg"
   xmlns:sodipodi="http://sodipodi.sourceforge.net/DTD/sodipodi-0.dtd"
   xmlns:inkscape="http://www.inkscape.org/namespaces/inkscape"
   width="24"
   height="24"
   viewBox="0 0 24 24"
   version="1.1"
   id="svg6"
   sodipodi:docname="no-crustaceans.svg"
   inkscape:version="1.0.1 (3bc2e813f5, 2020-09-07)">
  <metadata
     id="metadata12">
    <rdf:RDF>
      <cc:Work
         rdf:about="">
        <dc:format>image/svg+xml</dc:format>
        <dc:type
           rdf:resource="http://purl.org/dc/dcmitype/StillImage" />
        <dc:title />
      </cc:Work>
    </rdf:RDF>
  </metadata>
  <defs
     id="defs10" />
  <sodipodi:namedview
     pagecolor="#ffffff"
     bordercolor="#666666"
     borderopacity="1"
     objecttolerance="10"
     gridtolerance="10"
     guidetolerance="10"
     inkscape:pageopacity="0"
     inkscape:pageshadow="2"
     inkscape:window-width="1848"
     inkscape:window-height="1022"
     id="namedview8"
     showgrid="true"
     inkscape:snap-global="true"
     inkscape:snap-to-guides="false"
     inkscape:snap-grids="true"
     inkscape:zoom="9.8333335"
     inkscape:cx="17.52353"
     inkscape:cy="9.620752"
     inkscape:window-x="72"
     inkscape:window-y="21"
     inkscape:window-maximized="1"
     inkscape:current-layer="svg6"
     inkscape:document-rotation="0">
    <inkscape:grid
       type="xygrid"
       id="grid822" />
  </sodipodi:namedview>
  <rect
     style="fill:#008000;stroke:none"
     id="rect1706"
     width="24"
     height="24"
     x="0"
     y="0"
     ry="5" />
  <path
     style="fill:#ffffff;stroke:none;stroke-width:1px;stroke-linecap:butt;stroke-linejoin:miter;stroke-opacity:1"
     d="M 2,5 C 2,9 3,10 7,10 7,7 5,5 2,5 Z"
     id="path2352"
     sodipodi:nodetypes="ccc" />
  <path
     style="fill:#ffffff;stroke:none;stroke-width:1px;stroke-linecap:butt;stroke-linejoin:miter;stroke-opacity:1"
     d="M 7,3 C 9.828427,5.8284271 9.828427,7.2426407 7,10.071068 4.8786797,7.9497475 4.8786797,5.1213203 7,3 Z"
     id="path867"
     sodipodi:nodetypes="ccc" />
  <path
     style="fill:#ffffff;stroke:none;stroke-width:1px;stroke-linecap:butt;stroke-linejoin:miter;stroke-opacity:1"
     d="m 22,5 c 0,4 -1,5 -5,5 0,-3 2,-5 5,-5 z"
     id="path869"
     sodipodi:nodetypes="ccc" />
  <path
     style="fill:#ffffff;stroke:none;stroke-width:1px;stroke-linecap:butt;stroke-linejoin:miter;stroke-opacity:1"
     d="M 17,3 C 14.171573,5.8284271 14.171573,7.2426407 17,10.071068 19.12132,7.9497475 19.12132,5.1213203 17,3 Z"
     id="path871"
     sodipodi:nodetypes="ccc" />
  <path
     id="path885"
     style="fill:#ffffff;stroke-width:0.871524"
     d="M 12 9 A 7.0610046 6 0 0 0 10.597656 9.1210938 A 1 1 0 0 1 11.123047 10 A 1 1 0 0 1 10.123047 11 A 1 1 0 0 1 9.1230469 10 A 1 1 0 0 1 9.2792969 9.4648438 A 7.0610046 6 0 0 0 4.9394531 15 A 7.0610046 6 0 0 0 12 21 A 7.0610046 6 0 0 0 19.060547 15 A 7.0610046 6 0 0 0 14.720703 9.4648438 A 1 1 0 0 1 14.876953 10 A 1 1 0 0 1 13.876953 11 A 1 1 0 0 1 12.876953 10 A 1 1 0 0 1 13.400391 9.1210938 A 7.0610046 6 0 0 0 12 9 z " />
  <path
     id="path2465"
     style="fill:#00ff00;stroke:none;stroke-width:1px;stroke-linecap:butt;stroke-linejoin:miter;stroke-opacity:1;fill-opacity:1;opacity:0.5"
     d="M 21.376953 0.62304688 L 0.62304688 21.376953 C 1.0833473 22.225151 1.7748495 22.916653 2.6230469 23.376953 L 23.376953 2.6230469 C 22.916653 1.7748495 22.225151 1.0833473 21.376953 0.62304688 z " />
</svg>
