<?xml version="1.0" encoding="UTF-8" standalone="no"?>
<svg
   xmlns:dc="http://purl.org/dc/elements/1.1/"
   xmlns:cc="http://creativecommons.org/ns#"
   xmlns:rdf="http://www.w3.org/1999/02/22-rdf-syntax-ns#"
   xmlns:svg="http://www.w3.org/2000/svg"
   xmlns="http://www.w3.org/2000/svg"
   xmlns:sodipodi="http://sodipodi.sourceforge.net/DTD/sodipodi-0.dtd"
   xmlns:inkscape="http://www.inkscape.org/namespaces/inkscape"
   width="24"
   height="24"
   viewBox="0 0 24 24"
   version="1.1"
   id="svg6"
   sodipodi:docname="no-molluscs.svg"
   inkscape:version="1.0.1 (3bc2e813f5, 2020-09-07)">
  <metadata
     id="metadata12">
    <rdf:RDF>
      <cc:Work
         rdf:about="">
        <dc:format>image/svg+xml</dc:format>
        <dc:type
           rdf:resource="http://purl.org/dc/dcmitype/StillImage" />
        <dc:title></dc:title>
      </cc:Work>
    </rdf:RDF>
  </metadata>
  <defs
     id="defs10" />
  <sodipodi:namedview
     pagecolor="#ffffff"
     bordercolor="#666666"
     borderopacity="1"
     objecttolerance="10"
     gridtolerance="10"
     guidetolerance="10"
     inkscape:pageopacity="0"
     inkscape:pageshadow="2"
     inkscape:window-width="1848"
     inkscape:window-height="1022"
     id="namedview8"
     showgrid="true"
     inkscape:snap-global="true"
     inkscape:snap-to-guides="false"
     inkscape:snap-grids="true"
     inkscape:zoom="39.333334"
     inkscape:cx="12.035837"
     inkscape:cy="12.813981"
     inkscape:window-x="72"
     inkscape:window-y="21"
     inkscape:window-maximized="1"
     inkscape:current-layer="svg6"
     inkscape:document-rotation="0"
     showguides="false">
    <inkscape:grid
       type="xygrid"
       id="grid822" />
  </sodipodi:namedview>
  <rect
     style="fill:#008000;stroke:none"
     id="rect1706"
     width="24"
     height="24"
     x="0"
     y="0"
     ry="5" />
  <path
     style="fill:#ffffff;stroke:none;stroke-width:1px;stroke-linecap:butt;stroke-linejoin:miter;stroke-opacity:1"
     d="m 12,21 9,-11 c 1.284747,0 1,2 1,2 z"
     id="path1019"
     sodipodi:nodetypes="cccc" />
  <path
     style="fill:#ffffff;stroke:none;stroke-width:1px;stroke-linecap:butt;stroke-linejoin:miter;stroke-opacity:1"
     d="M 12,21 7,22 C 5.7560934,20.567334 6.4552926,19.810535 7,19 Z"
     id="path995"
     sodipodi:nodetypes="cccc" />
  <path
     style="fill:#ffffff;stroke:none;stroke-width:1px;stroke-linecap:butt;stroke-linejoin:miter;stroke-opacity:1"
     d="M 12,21 21,8 C 20.706212,6.8884373 20.047076,6.2127857 19,6 Z"
     id="path1021"
     sodipodi:nodetypes="cccc" />
  <path
     style="fill:#ffffff;stroke:none;stroke-width:1px;stroke-linecap:butt;stroke-linejoin:miter;stroke-opacity:1"
     d="M 12,21 3,10 c -1.2847468,0 -1,2 -1,2 z"
     id="path997"
     sodipodi:nodetypes="cccc" />
  <path
     style="fill:#ffffff;stroke:none;stroke-width:1px;stroke-linecap:butt;stroke-linejoin:miter;stroke-opacity:1"
     d="M 12,21 15,4 c 1.227111,-0.411806 2.699502,0.1798276 3,1 z"
     id="path1023"
     sodipodi:nodetypes="cccc" />
  <path
     style="fill:#ffffff;stroke:none;stroke-width:1px;stroke-linecap:butt;stroke-linejoin:miter;stroke-opacity:1"
     d="M 12,21 3,8 C 3.2937876,6.8884373 3.9529237,6.2127857 5,6 Z"
     id="path999"
     sodipodi:nodetypes="cccc" />
  <path
     style="fill:#ffffff;stroke:none;stroke-width:1px;stroke-linecap:butt;stroke-linejoin:miter;stroke-opacity:1"
     d="m 12,21 9,-5 c 1,-1 1,-2 0,-2 z"
     id="path1025"
     sodipodi:nodetypes="cccc" />
  <path
     style="fill:#ffffff;stroke:none;stroke-width:1px;stroke-linecap:butt;stroke-linejoin:miter;stroke-opacity:1"
     d="M 12,21 9,4 C 7.7728886,3.588194 6.3004984,4.1798276 6,5 Z"
     id="path1001"
     sodipodi:nodetypes="cccc" />
  <path
     style="fill:#ffffff;stroke:none;stroke-width:1px;stroke-linecap:butt;stroke-linejoin:miter;stroke-opacity:1"
     d="M 12,21 14,3 C 12.429854,1.8674391 11.619394,1.8761883 10,3 Z"
     id="path1003"
     sodipodi:nodetypes="cccc" />
  <path
     style="fill:#ffffff;stroke:none;stroke-width:1px;stroke-linecap:butt;stroke-linejoin:miter;stroke-opacity:1"
     d="M 12,21 3,16 C 2,15 2,14 3,14 Z"
     id="path1007"
     sodipodi:nodetypes="cccc" />
  <path
     style="fill:#ffffff;stroke:none;stroke-width:1px;stroke-linecap:butt;stroke-linejoin:miter;stroke-opacity:1"
     d="m 12,21 5,1 c 1.243907,-1.432666 0.544707,-2.189465 0,-3 z"
     id="path1009"
     sodipodi:nodetypes="cccc" />
  <path
     id="path2465"
     style="fill:#00ff00;stroke:none;stroke-width:1px;stroke-linecap:butt;stroke-linejoin:miter;stroke-opacity:1;fill-opacity:1;opacity:0.5"
     d="M 21.376953 0.62304688 L 0.62304688 21.376953 C 1.0833473 22.225151 1.7748495 22.916653 2.6230469 23.376953 L 23.376953 2.6230469 C 22.916653 1.7748495 22.225151 1.0833473 21.376953 0.62304688 z " />
</svg>
