<?xml version="1.0" encoding="UTF-8" standalone="no"?>
<svg
   xmlns:dc="http://purl.org/dc/elements/1.1/"
   xmlns:cc="http://creativecommons.org/ns#"
   xmlns:rdf="http://www.w3.org/1999/02/22-rdf-syntax-ns#"
   xmlns:svg="http://www.w3.org/2000/svg"
   xmlns="http://www.w3.org/2000/svg"
   xmlns:sodipodi="http://sodipodi.sourceforge.net/DTD/sodipodi-0.dtd"
   xmlns:inkscape="http://www.inkscape.org/namespaces/inkscape"
   width="24"
   height="24"
   viewBox="0 0 24 24"
   version="1.1"
   id="svg6"
   sodipodi:docname="not-fair-trade.svg"
   inkscape:version="1.0.1 (3bc2e813f5, 2020-09-07)"
   inkscape:export-filename="/home/stephane/Projets/Blogs/OpenFoodFacts/fish.png"
   inkscape:export-xdpi="1600"
   inkscape:export-ydpi="1600">
  <metadata
     id="metadata12">
    <rdf:RDF>
      <cc:Work
         rdf:about="">
        <dc:format>image/svg+xml</dc:format>
        <dc:type
           rdf:resource="http://purl.org/dc/dcmitype/StillImage" />
        <dc:title></dc:title>
      </cc:Work>
    </rdf:RDF>
  </metadata>
  <defs
     id="defs10" />
  <sodipodi:namedview
     pagecolor="#ffffff"
     bordercolor="#666666"
     borderopacity="1"
     objecttolerance="10"
     gridtolerance="10"
     guidetolerance="10"
     inkscape:pageopacity="0"
     inkscape:pageshadow="2"
     inkscape:window-width="1848"
     inkscape:window-height="1016"
     id="namedview8"
     showgrid="true"
     inkscape:snap-global="true"
     inkscape:snap-to-guides="false"
     inkscape:snap-grids="true"
     inkscape:zoom="27.812867"
     inkscape:cx="17.52353"
     inkscape:cy="13.303632"
     inkscape:window-x="72"
     inkscape:window-y="27"
     inkscape:window-maximized="1"
     inkscape:current-layer="svg6"
     inkscape:document-rotation="0"
     inkscape:snap-bbox="true">
    <inkscape:grid
       type="xygrid"
       id="grid822" />
  </sodipodi:namedview>
  <path
     style="fill:#ffffff;stroke:none;stroke-width:1px;stroke-linecap:butt;stroke-linejoin:miter;stroke-opacity:1"
     d="m 14,20 c -3.863703,1.035276 -6.8762762,-1.464466 -7,-3 2.8977768,-0.776457 6.223543,0.102223 7,3 z"
     id="path955"
     sodipodi:nodetypes="ccc" />
  <path
     id="path885"
     style="fill:#ffffff;stroke-width:0.898207"
     d="M 9.5 6 C 7 6 4 7 2 12 C 4 17 7 18 9.5 18 C 13.642136 18 17 15.313708 17 12 C 17 8.6862915 13.642135 6 9.5 6 z M 5.3984375 8.9667969 A 1 1 0 0 1 6.3984375 9.9667969 A 1 1 0 0 1 5.3984375 10.966797 A 1 1 0 0 1 4.3984375 9.9667969 A 1 1 0 0 1 5.3984375 8.9667969 z " />
  <path
     id="path931"
     style="fill:#ffffff;stroke:none;stroke-width:1px;stroke-linecap:butt;stroke-linejoin:miter;stroke-opacity:1"
     d="m 22,7 c -3,1e-7 -5,2 -5,5 0,3 2,5 5,5 C 21.728674,14.496989 21,12 19.015625,11.978516 21,12 22,10.461271 22,7 Z"
     sodipodi:nodetypes="csccc" />
  <path
     style="fill:#ffffff;stroke:none;stroke-width:1px;stroke-linecap:butt;stroke-linejoin:miter;stroke-opacity:1"
     d="M 14,4 C 10.136297,2.9647239 7.1237238,5.464466 7,7 9.8977768,7.7764571 13.223543,6.8977775 14,4 Z"
     id="path2352"
     sodipodi:nodetypes="ccc" />
  <rect
     style="fill:#b3b3b3"
     id="rect1213"
     width="24"
     height="24"
     x="0"
     y="0" />
  <circle
     style="fill:#e6e6e6;stroke-width:1.33334"
     id="circle1215"
     cx="12"
     cy="12"
     r="10" />
  <path
     id="path1217"
     style="fill:#cccccc;stroke-width:1.33334"
     d="M 11.980469,2 A 10,10 0 0 0 2,12 10,10 0 0 0 12,22 V 2 a 10,10 0 0 0 -0.01953,0 z" />
  <circle
     style="fill:#e6e6e6;stroke:none"
     id="circle1219"
     cx="8"
     cy="9.8667793"
     r="2" />
  <circle
     style="fill:#cccccc;stroke:none"
     id="circle1221"
     cx="16"
     cy="9.8667793"
     r="2" />
  <path
     id="path1223"
     style="fill:#e6e6e6;stroke:none;stroke-width:0.8"
     d="M 12,16 A 3,3 0 0 1 9,13 H 8 a 4,4 0 0 0 4,4 z" />
  <path
     id="path1225"
     style="fill:#cccccc;stroke:none;stroke-width:0.8"
     d="m 12,16 v 1 a 4,4 0 0 0 4,-4 h -1 a 3,3 0 0 1 -3,3 z" />
  <path
     id="circle1227"
     style="fill:#f2f2f2;stroke-width:1.33334"
     d="M 11.980469,2 A 10,10 0 0 0 2,12 10,10 0 0 0 12,22 10,10 0 0 0 22,12 10,10 0 0 0 12,2 10,10 0 0 0 11.980469,2 Z M 12,4 a 8,8 0 0 1 8,8 8,8 0 0 1 -8,8 8,8 0 0 1 -8,-8 8,8 0 0 1 8,-8 z" />
  <path
     style="fill:#808080;stroke:none;stroke-width:1px;stroke-linecap:butt;stroke-linejoin:miter;stroke-opacity:1"
     d="M 0,24 H 2 L 24,2 V 0 H 22 L 0,22 Z"
     id="path3143"
     sodipodi:nodetypes="ccccccc" />
</svg>
