<?xml version="1.0" encoding="UTF-8" standalone="no"?>
<svg
   id="Calque_1"
   viewBox="0 0 68 113.99"
   version="1.1"
   sodipodi:docname="nova-group-unknown.svg"
   inkscape:version="1.2 (dc2aeda, 2022-05-15)"
   xmlns:inkscape="http://www.inkscape.org/namespaces/inkscape"
   xmlns:sodipodi="http://sodipodi.sourceforge.net/DTD/sodipodi-0.dtd"
   xmlns="http://www.w3.org/2000/svg"
   xmlns:svg="http://www.w3.org/2000/svg">
  <defs
     id="defs12823" />
  <sodipodi:namedview
     id="namedview12821"
     pagecolor="#ffffff"
     bordercolor="#666666"
     borderopacity="1.0"
     inkscape:showpageshadow="2"
     inkscape:pageopacity="0.0"
     inkscape:pagecheckerboard="0"
     inkscape:deskcolor="#d1d1d1"
     showgrid="false"
     inkscape:zoom="7.1322047"
     inkscape:cx="34.140916"
     inkscape:cy="45.91848"
     inkscape:window-width="2560"
     inkscape:window-height="1376"
     inkscape:window-x="0"
     inkscape:window-y="0"
     inkscape:window-maximized="1"
     inkscape:current-layer="Calque_1" />
  <path
     d="m0,23.99h68v90H0V23.99Z"
     fill="#b3b3b3"
     id="path12810" />
  <path
     d="m4.86,7.54v9.94H.85V.1h3.14l8.11,10.21V.1h4.02v17.39h-3.23L4.86,7.54Zm22.21,10.09c-1.29,0-2.47-.25-3.53-.76-1.06-.51-1.97-1.17-2.72-1.98-.75-.83-1.34-1.78-1.76-2.84-.41-1.06-.61-2.16-.61-3.28s.21-2.24.64-3.31c.44-1.06,1.04-1.99,1.81-2.79.78-.82,1.71-1.46,2.77-1.93,1.06-.49,2.22-.73,3.48-.73s2.47.25,3.53.76c1.06.51,1.97,1.17,2.72,2.01.75.83,1.33,1.78,1.74,2.84.41,1.06.61,2.14.61,3.23s-.22,2.24-.66,3.31c-.42,1.06-1.02,2-1.79,2.82-.77.8-1.68,1.44-2.74,1.93-1.06.49-2.22.74-3.48.73Zm-4.53-8.82c0,.67.1,1.32.29,1.96.2.62.48,1.17.86,1.66.39.49.87.88,1.44,1.18.57.29,1.22.44,1.96.44s1.44-.15,2.01-.47c.57-.31,1.04-.71,1.42-1.2.38-.51.65-1.07.83-1.69.2-.64.29-1.28.29-1.93s-.1-1.31-.29-1.93c-.2-.64-.49-1.19-.88-1.67-.39-.49-.87-.87-1.44-1.15-.56-.29-1.2-.44-1.93-.44s-1.44.16-2.01.47c-.55.29-1.03.68-1.42,1.17-.38.49-.66,1.05-.86,1.69-.18.62-.27,1.26-.27,1.91h0ZM39.96.1l4.09,12.34L48.09.1h4.24l-6.59,17.39h-3.38L35.7.1h4.26ZM57.18.1h3.62l6.34,17.39h-4.11l-1.35-3.89h-5.41l-1.32,3.89h-4.11L57.18.1Zm3.85,10.73l-2.03-6.15-2.08,6.15h4.11Z"
     fill="#b3b3b3"
     id="path12812" />
  <g
     isolation="isolate"
     id="g12818">
    <g
       aria-label="?"
       transform="translate(18.12 96.05)"
       id="text12816"
       style="font-weight:700;font-size:75.28px;font-family:Raleway-Bold, Raleway;fill:#ffffff">
      <path
         d="m 9.1841599,-17.54024 q 0,-3.68872 1.2044801,-6.62464 1.20448,-2.93592 4.96848,-5.11904 1.1292,-0.67752 2.78536,-1.5056 1.65616,-0.903359 3.23704,-2.107839 1.58088,-1.20448 2.6348,-2.78536 1.1292,-1.65616 1.1292,-3.764 0,-1.58088 -0.60224,-2.78536 -0.60224,-1.20448 -1.58088,-2.03256 -0.97864,-0.82808 -2.33368,-1.20448 -1.27976,-0.45168 -2.6348,-0.45168 -1.65616,0 -3.0112,0.60224 -1.35504,0.52696 -2.48424,1.43032 -1.05392,0.82808 -1.95728,1.95728 -0.8280802,1.05392 -1.4303201,2.03256 l -6.5493599,-4.5168 q 0.9786399,-2.33368 2.5595199,-4.1404 1.65616,-1.80672 3.68872,-3.0112 2.1078401,-1.27976 4.5168001,-1.882 2.40896,-0.67752 4.96848,-0.67752 2.86064,0 5.646,0.82808 2.78536,0.82808 4.96848,2.6348 2.258399,1.80672 3.613439,4.66736 1.43032,2.78536 1.43032,6.69992 0,2.40896 -0.60224,4.29096 -0.52696,1.80672 -1.58088,3.31232 -1.053919,1.505599 -2.484239,2.710079 -1.43032,1.20448 -3.23704,2.33368 -1.5056,0.90336 -3.0112,1.73144 -1.5056,0.82808 -2.78536,1.882 -1.20448,0.97864 -2.03256,2.33368 -0.7528,1.27976 -0.7528,3.16176 z M 9.3347198,0 V -10.38864 H 17.6908 V 0 Z"
         id="path12942" />
    </g>
  </g>
</svg>
