<?xml version="1.0" encoding="UTF-8" standalone="no"?>
<!-- Created with Inkscape (http://www.inkscape.org/) -->

<svg
   width="240"
   height="130"
   viewBox="0 0 240 130"
   version="1.1"
   id="svg2032"
   sodipodi:docname="nutriscore-d-new.svg"
   inkscape:version="1.2 (1:1.2+202205241504+da316b6974)"
   xmlns:inkscape="http://www.inkscape.org/namespaces/inkscape"
   xmlns:sodipodi="http://sodipodi.sourceforge.net/DTD/sodipodi-0.dtd"
   xmlns="http://www.w3.org/2000/svg"
   xmlns:svg="http://www.w3.org/2000/svg">
  <sodipodi:namedview
     id="namedview2034"
     pagecolor="#ffffff"
     bordercolor="#666666"
     borderopacity="1.0"
     inkscape:showpageshadow="2"
     inkscape:pageopacity="0.0"
     inkscape:pagecheckerboard="0"
     inkscape:deskcolor="#d1d1d1"
     inkscape:document-units="mm"
     showgrid="false"
     inkscape:zoom="0.914906"
     inkscape:cx="183.62542"
     inkscape:cy="37.708792"
     inkscape:window-width="1679"
     inkscape:window-height="1230"
     inkscape:window-x="536"
     inkscape:window-y="93"
     inkscape:window-maximized="0"
     inkscape:current-layer="g2493" />
  <defs
     id="defs2029">
    <clipPath
       clipPathUnits="userSpaceOnUse"
       id="clipPath1836">
      <path
         d="m -576.4059,-131.6834 h 841.89002 v 595.276 H -576.4059 Z"
         id="path1838"
         style="stroke-width:0.999998" />
    </clipPath>
    <clipPath
       clipPathUnits="userSpaceOnUse"
       id="clipPath1817">
      <path
         d="m -480.4445,-91.6168 h 841.89002 v 595.276 H -480.4445 Z"
         id="path1819"
         style="stroke-width:0.999998" />
    </clipPath>
    <clipPath
       clipPathUnits="userSpaceOnUse"
       id="clipPath1872">
      <path
         d="m -488.3129,-132.2371 h 841.89002 v 595.276 H -488.3129 Z"
         id="path1874"
         style="stroke-width:0.999998" />
    </clipPath>
    <clipPath
       clipPathUnits="userSpaceOnUse"
       id="clipPath1878">
      <path
         d="m -519.714,-136.1767 h 841.89002 v 595.276 H -519.714 Z"
         id="path1880"
         style="stroke-width:0.999998" />
    </clipPath>
    <clipPath
       clipPathUnits="userSpaceOnUse"
       id="clipPath1886">
      <path
         d="m -521.3248,-134.6422 h 841.89002 v 595.276 H -521.3248 Z"
         id="path1888"
         style="stroke-width:0.999998" />
    </clipPath>
    <clipPath
       clipPathUnits="userSpaceOnUse"
       id="clipPath1892">
      <path
         d="m -532.1437,-130.6481 h 841.89002 v 595.276 H -532.1437 Z"
         id="path1894"
         style="stroke-width:0.999998" />
    </clipPath>
    <clipPath
       clipPathUnits="userSpaceOnUse"
       id="clipPath1898">
      <path
         d="m -500.0202,-102.7485 h 841.89002 v 595.276 H -500.0202 Z"
         id="path1900"
         style="stroke-width:0.999998" />
    </clipPath>
    <clipPath
       clipPathUnits="userSpaceOnUse"
       id="clipPath1904">
      <path
         d="m -522.5496,-115.2242 h 841.89002 v 595.276 H -522.5496 Z"
         id="path1906"
         style="stroke-width:0.999998" />
    </clipPath>
    <clipPath
       clipPathUnits="userSpaceOnUse"
       id="clipPath1910">
      <path
         d="m -561.373,-85.1949 h 841.89002 v 595.276 H -561.373 Z"
         id="path1912"
         style="stroke-width:0.999998" />
    </clipPath>
    <clipPath
       clipPathUnits="userSpaceOnUse"
       id="clipPath1916">
      <path
         d="m -562.786,-87.5683 h 841.89002 v 595.276 H -562.786 Z"
         id="path1918"
         style="stroke-width:0.999998" />
    </clipPath>
    <clipPath
       clipPathUnits="userSpaceOnUse"
       id="clipPath1593">
      <path
         d="m -503.0564,-291.8091 h 841.89002 v 595.276 H -503.0564 Z"
         id="path1595"
         style="stroke-width:0.999998" />
    </clipPath>
    <clipPath
       clipPathUnits="userSpaceOnUse"
       id="clipPath1929">
      <path
         d="m -503.0554,-239.3216 h 841.89002 v 595.276 H -503.0554 Z"
         id="path1931"
         style="stroke-width:0.999998" />
    </clipPath>
    <clipPath
       clipPathUnits="userSpaceOnUse"
       id="clipPath1605">
      <path
         d="m -427.3825,-279.9418 h 841.89002 v 595.276 H -427.3825 Z"
         id="path1607"
         style="stroke-width:0.999998" />
    </clipPath>
    <clipPath
       clipPathUnits="userSpaceOnUse"
       id="clipPath1618">
      <path
         d="m -458.7846,-283.8814 h 841.89002 v 595.276 H -458.7846 Z"
         id="path1620"
         style="stroke-width:0.999998" />
    </clipPath>
    <clipPath
       clipPathUnits="userSpaceOnUse"
       id="clipPath1611">
      <path
         d="M -460.3945,-282.347 H 381.49552 V 312.929 H -460.3945 Z"
         id="path1613"
         style="stroke-width:0.999998" />
    </clipPath>
    <clipPath
       clipPathUnits="userSpaceOnUse"
       id="clipPath1599">
      <path
         d="m -471.2142,-278.3528 h 841.89002 v 595.276 H -471.2142 Z"
         id="path1601"
         style="stroke-width:0.999998" />
    </clipPath>
    <clipPath
       clipPathUnits="userSpaceOnUse"
       id="clipPath1624">
      <path
         d="m -441.0913,-250.4523 h 841.89002 v 595.276 H -441.0913 Z"
         id="path1626"
         style="stroke-width:0.999998" />
    </clipPath>
    <clipPath
       clipPathUnits="userSpaceOnUse"
       id="clipPath1630">
      <path
         d="m -461.6201,-262.9289 h 841.89002 v 595.276 H -461.6201 Z"
         id="path1632"
         style="stroke-width:0.999998" />
    </clipPath>
    <clipPath
       clipPathUnits="userSpaceOnUse"
       id="clipPath1636">
      <path
         d="m -478.6014,-250.4523 h 841.89002 v 595.276 H -478.6014 Z"
         id="path1638"
         style="stroke-width:0.999998" />
    </clipPath>
    <clipPath
       clipPathUnits="userSpaceOnUse"
       id="clipPath1642">
      <path
         d="m -420.708,-232.8996 h 841.89002 v 595.276 H -420.708 Z"
         id="path1644"
         style="stroke-width:0.999998" />
    </clipPath>
    <clipPath
       clipPathUnits="userSpaceOnUse"
       id="clipPath1922">
      <path
         d="m -422.121,-235.2731 h 841.89002 v 595.276 H -422.121 Z"
         id="path1924"
         style="stroke-width:0.999998" />
    </clipPath>
    <clipPath
       clipPathUnits="userSpaceOnUse"
       id="clipPath1866">
      <path
         d="m -625.8334,-291.8091 h 841.89002 v 595.276 H -625.8334 Z"
         id="path1868"
         style="stroke-width:0.999998" />
    </clipPath>
    <clipPath
       clipPathUnits="userSpaceOnUse"
       id="clipPath1717">
      <path
         d="m -625.8334,-239.3216 h 841.89002 v 595.276 H -625.8334 Z"
         id="path1719"
         style="stroke-width:0.999998" />
    </clipPath>
    <clipPath
       clipPathUnits="userSpaceOnUse"
       id="clipPath1729">
      <path
         d="m -542.2922,-239.3216 h 841.89002 v 595.276 H -542.2922 Z"
         id="path1731"
         style="stroke-width:0.999998" />
    </clipPath>
    <clipPath
       clipPathUnits="userSpaceOnUse"
       id="clipPath1735">
      <path
         d="m -586.4691,-262.9289 h 841.89002 v 595.276 H -586.4691 Z"
         id="path1737"
         style="stroke-width:0.999998" />
    </clipPath>
    <clipPath
       clipPathUnits="userSpaceOnUse"
       id="clipPath1741">
      <path
         d="m -601.3794,-250.4523 h 841.89002 v 595.276 H -601.3794 Z"
         id="path1743"
         style="stroke-width:0.999998" />
    </clipPath>
    <clipPath
       clipPathUnits="userSpaceOnUse"
       id="clipPath1747">
      <path
         d="m -550.1606,-279.9418 h 841.89002 v 595.276 H -550.1606 Z"
         id="path1749"
         style="stroke-width:0.999998" />
    </clipPath>
    <clipPath
       clipPathUnits="userSpaceOnUse"
       id="clipPath1759">
      <path
         d="m -581.5617,-283.8814 h 841.89002 v 595.276 H -581.5617 Z"
         id="path1761"
         style="stroke-width:0.999998" />
    </clipPath>
    <clipPath
       clipPathUnits="userSpaceOnUse"
       id="clipPath1765">
      <path
         d="M -583.1716,-282.347 H 258.71842 V 312.929 H -583.1716 Z"
         id="path1767"
         style="stroke-width:0.999998" />
    </clipPath>
    <clipPath
       clipPathUnits="userSpaceOnUse"
       id="clipPath1773">
      <path
         d="m -593.9914,-278.3528 h 841.89002 v 595.276 H -593.9914 Z"
         id="path1775"
         style="stroke-width:0.999998" />
    </clipPath>
    <clipPath
       clipPathUnits="userSpaceOnUse"
       id="clipPath1779">
      <path
         d="m -563.4639,-232.8996 h 841.89002 v 595.276 H -563.4639 Z"
         id="path1781"
         style="stroke-width:0.999998" />
    </clipPath>
    <clipPath
       clipPathUnits="userSpaceOnUse"
       id="clipPath1785">
      <path
         d="m -564.8766,-235.2731 h 841.89002 v 595.276 H -564.8766 Z"
         id="path1787"
         style="stroke-width:0.999998" />
    </clipPath>
    <clipPath
       clipPathUnits="userSpaceOnUse"
       id="clipPath1792">
      <path
         d="m -503.0552,-216.3924 h 841.89002 v 595.276 H -503.0552 Z"
         id="path1794"
         style="stroke-width:0.999998" />
    </clipPath>
    <clipPath
       clipPathUnits="userSpaceOnUse"
       id="clipPath1753">
      <path
         d="m -503.0552,-163.9048 h 841.89002 v 595.276 H -503.0552 Z"
         id="path1755"
         style="stroke-width:0.999998" />
    </clipPath>
    <clipPath
       clipPathUnits="userSpaceOnUse"
       id="clipPath1723">
      <path
         d="m -419.5139,-163.9048 h 841.89002 v 595.276 H -419.5139 Z"
         id="path1725"
         style="stroke-width:0.999998" />
    </clipPath>
    <clipPath
       clipPathUnits="userSpaceOnUse"
       id="clipPath1798">
      <path
         d="M -427.3824,-204.525 H 414.50762 V 390.751 H -427.3824 Z"
         id="path1800"
         style="stroke-width:0.999998" />
    </clipPath>
    <clipPath
       clipPathUnits="userSpaceOnUse"
       id="clipPath1804">
      <path
         d="m -458.7836,-208.4646 h 841.89002 v 595.276 H -458.7836 Z"
         id="path1806"
         style="stroke-width:0.999998" />
    </clipPath>
    <clipPath
       clipPathUnits="userSpaceOnUse"
       id="clipPath1810">
      <path
         d="m -460.3944,-206.9302 h 841.89002 v 595.276 H -460.3944 Z"
         id="path1812"
         style="stroke-width:0.999998" />
    </clipPath>
    <clipPath
       clipPathUnits="userSpaceOnUse"
       id="clipPath1823">
      <path
         d="m -471.2132,-202.9361 h 841.89002 v 595.276 H -471.2132 Z"
         id="path1825"
         style="stroke-width:0.999998" />
    </clipPath>
    <clipPath
       clipPathUnits="userSpaceOnUse"
       id="clipPath1830">
      <path
         d="m -437.4559,-175.0355 h 841.89002 v 595.276 H -437.4559 Z"
         id="path1832"
         style="stroke-width:0.999998" />
    </clipPath>
    <clipPath
       clipPathUnits="userSpaceOnUse"
       id="clipPath1848">
      <path
         d="m -480.2086,-175.0355 h 841.89002 v 595.276 H -480.2086 Z"
         id="path1850"
         style="stroke-width:0.999998" />
    </clipPath>
    <clipPath
       clipPathUnits="userSpaceOnUse"
       id="clipPath1842">
      <path
         d="m -460.5514,-157.4828 h 841.89002 v 595.276 H -460.5514 Z"
         id="path1844"
         style="stroke-width:0.999998" />
    </clipPath>
    <clipPath
       clipPathUnits="userSpaceOnUse"
       id="clipPath1854">
      <path
         d="m -461.9644,-159.8563 h 841.89002 v 595.276 H -461.9644 Z"
         id="path1856"
         style="stroke-width:0.999998" />
    </clipPath>
    <clipPath
       clipPathUnits="userSpaceOnUse"
       id="clipPath1860">
      <path
         d="m -452.8761,-180.7629 h 841.89002 v 595.276 H -452.8761 Z"
         id="path1862"
         style="stroke-width:0.999998" />
    </clipPath>
    <clipPath
       clipPathUnits="userSpaceOnUse"
       id="clipPath1648">
      <path
         d="m -625.8347,-216.3924 h 841.89002 v 595.276 H -625.8347 Z"
         id="path1650"
         style="stroke-width:0.999998" />
    </clipPath>
    <clipPath
       clipPathUnits="userSpaceOnUse"
       id="clipPath1655">
      <path
         d="m -625.8335,-163.9048 h 841.89002 v 595.276 H -625.8335 Z"
         id="path1657"
         style="stroke-width:0.999998" />
    </clipPath>
    <clipPath
       clipPathUnits="userSpaceOnUse"
       id="clipPath1661">
      <path
         d="m -542.2924,-163.9048 h 841.89002 v 595.276 H -542.2924 Z"
         id="path1663"
         style="stroke-width:0.999998" />
    </clipPath>
    <clipPath
       clipPathUnits="userSpaceOnUse"
       id="clipPath1673">
      <path
         d="M -550.1608,-204.525 H 291.72922 V 390.751 H -550.1608 Z"
         id="path1675"
         style="stroke-width:0.999998" />
    </clipPath>
    <clipPath
       clipPathUnits="userSpaceOnUse"
       id="clipPath1667">
      <path
         d="m -581.5619,-208.4646 h 841.89002 v 595.276 H -581.5619 Z"
         id="path1669"
         style="stroke-width:0.999998" />
    </clipPath>
    <clipPath
       clipPathUnits="userSpaceOnUse"
       id="clipPath1687">
      <path
         d="m -583.1727,-206.9302 h 841.89002 v 595.276 H -583.1727 Z"
         id="path1689"
         style="stroke-width:0.999998" />
    </clipPath>
    <clipPath
       clipPathUnits="userSpaceOnUse"
       id="clipPath1680">
      <path
         d="m -593.9926,-202.9351 h 841.89002 v 595.276 H -593.9926 Z"
         id="path1682"
         style="stroke-width:0.999998" />
    </clipPath>
    <clipPath
       clipPathUnits="userSpaceOnUse"
       id="clipPath1693">
      <path
         d="m -561.8683,-175.0355 h 841.89002 v 595.276 H -561.8683 Z"
         id="path1695"
         style="stroke-width:0.999998" />
    </clipPath>
    <clipPath
       clipPathUnits="userSpaceOnUse"
       id="clipPath1699">
      <path
         d="m -582.3883,-187.5121 h 841.89002 v 595.276 H -582.3883 Z"
         id="path1701"
         style="stroke-width:0.999998" />
    </clipPath>
    <clipPath
       clipPathUnits="userSpaceOnUse"
       id="clipPath1705">
      <path
         d="m -603.2205,-157.4828 h 841.89002 v 595.276 H -603.2205 Z"
         id="path1707"
         style="stroke-width:0.999998" />
    </clipPath>
    <clipPath
       clipPathUnits="userSpaceOnUse"
       id="clipPath1711">
      <path
         d="m -604.6333,-159.8563 h 841.89002 v 595.276 H -604.6333 Z"
         id="path1713"
         style="stroke-width:0.999998" />
    </clipPath>
  </defs>
  <g
     inkscape:label="Calque 1"
     inkscape:groupmode="layer"
     id="layer1">
    <g
       id="g2493"
       transform="matrix(2.2067561,0,0,-2.2067561,-1169.2969,643.95151)">
      <g
         id="g2468"
         transform="translate(6.7998622e-4,75.416699)">
        <path
           d="m 0,0 h -83.542 c -6.849,0 -12.422,-5.573 -12.422,-12.421 v -32.07 c 0,-6.849 5.573,-12.421 12.422,-12.421 h 53.598 c 2.118,-1.258 4.63,-1.998 7.329,-1.998 h 1.414 c 2.699,0 5.211,0.74 7.329,1.998 H 0 c 6.849,0 12.42,5.572 12.42,12.421 v 32.07 C 12.42,-5.573 6.849,0 0,0"
           style="fill:#ffffff;fill-opacity:1;fill-rule:nonzero;stroke:none"
           id="path248"
           transform="translate(625.8347,216.3924)"
           clip-path="url(#clipPath1648)" />
        <path
           d="M 0,0 H -11.896 V 32.404 H 0 c 4.417,0 7.998,-3.58 7.998,-7.997 V 7.998 C 7.998,3.581 4.417,0 0,0"
           style="fill:#e63312;fill-opacity:1;fill-rule:nonzero;stroke:none"
           id="path252"
           transform="translate(625.8335,163.9048)"
           clip-path="url(#clipPath1655)" />
        <path
           d="M 0,0 H 11.896 V 32.404 H 0 c -4.417,0 -7.997,-3.58 -7.997,-7.997 V 7.998 C -7.997,3.581 -4.417,0 0,0"
           style="fill:#00803d;fill-opacity:1;fill-rule:nonzero;stroke:none"
           id="path256"
           transform="translate(542.2924,163.9048)"
           clip-path="url(#clipPath1661)" />
        <path
           d="m 630.2705,187.3023 h -9.17 v -14.443 h 9.258 v 2.176 h -6.47 v 4.25 h 4.531 v 2.177 h -4.531 v 3.663 h 6.382 z"
           style="fill:#f28f66;fill-opacity:1;fill-rule:nonzero;stroke:none"
           id="path260" />
        <path
           d="m 540.3763,207.42 v -4.419 h -1.785 v 7.728 h 1.393 l 3.603,-4.539 v 4.539 h 1.785 v -7.728 h -1.437 z"
           style="fill:#7c7b7b;fill-opacity:1;fill-rule:nonzero;stroke:none"
           id="path264" />
        <path
           d="M 0,0 C 0.305,0 0.562,0.063 0.773,0.19 0.984,0.317 1.154,0.486 1.285,0.696 1.415,0.907 1.508,1.148 1.562,1.42 1.617,1.692 1.644,1.97 1.644,2.253 V 6.204 H 3.429 V 2.253 C 3.429,1.715 3.362,1.215 3.228,0.751 3.093,0.286 2.886,-0.121 2.607,-0.469 2.328,-0.817 1.972,-1.091 1.54,-1.291 1.109,-1.489 0.595,-1.59 0,-1.59 c -0.616,0 -1.142,0.105 -1.578,0.316 -0.436,0.21 -0.789,0.491 -1.061,0.844 -0.272,0.352 -0.472,0.76 -0.599,1.224 -0.128,0.464 -0.191,0.951 -0.191,1.459 v 3.951 h 1.786 V 2.253 c 0,-0.297 0.028,-0.581 0.087,-0.85 0.058,-0.267 0.152,-0.508 0.283,-0.718 0.131,-0.21 0.299,-0.377 0.506,-0.5 C -0.561,0.061 -0.304,0 0,0"
           style="fill:#7c7b7b;fill-opacity:1;fill-rule:nonzero;stroke:none"
           id="path276"
           transform="translate(550.1608,204.525)"
           clip-path="url(#clipPath1673)" />
        <path
           d="m 560.8495,209.1609 h -2.351 v -6.16 h -1.786 v 6.16 h -2.362 v 1.568 h 6.499 z"
           style="fill:#7c7b7b;fill-opacity:1;fill-rule:nonzero;stroke:none"
           id="path280" />
        <path
           d="m 561.7316,203.0011 v 7.728 h 3.482 c 0.364,0 0.699,-0.077 1.008,-0.229 0.307,-0.152 0.574,-0.352 0.799,-0.599 0.225,-0.247 0.401,-0.526 0.528,-0.838 0.128,-0.312 0.191,-0.627 0.191,-0.947 0,-0.239 -0.03,-0.47 -0.087,-0.691 -0.059,-0.221 -0.142,-0.43 -0.251,-0.626 -0.108,-0.195 -0.241,-0.371 -0.397,-0.527 -0.156,-0.157 -0.332,-0.289 -0.528,-0.398 l 1.774,-2.873 h -2.013 l -1.557,2.492 h -1.164 v -2.492 z m 1.785,4.049 h 1.632 c 0.21,0 0.392,0.099 0.544,0.299 0.153,0.2 0.229,0.455 0.229,0.767 0,0.32 -0.087,0.573 -0.261,0.763 -0.174,0.188 -0.364,0.282 -0.566,0.282 h -1.578 z"
           style="fill:#7c7b7b;fill-opacity:1;fill-rule:nonzero;stroke:none"
           id="path292" />
        <path
           d="m 569.132,210.729 h 1.785 v -7.728 h -1.785 z"
           style="fill:#7c7b7b;fill-opacity:1;fill-rule:nonzero;stroke:none"
           id="path294" />
        <path
           d="m 572.245,206.778 h 3.352 v -1.568 h -3.352 z"
           style="fill:#7c7b7b;fill-opacity:1;fill-rule:nonzero;stroke:none"
           id="path296" />
        <path
           d="M 0,0 -0.239,0.164 C -0.37,0.243 -0.533,0.327 -0.729,0.414 -0.925,0.501 -1.14,0.577 -1.371,0.642 -1.603,0.708 -1.836,0.74 -2.067,0.74 -2.373,0.74 -2.607,0.686 -2.77,0.577 -2.933,0.468 -3.014,0.309 -3.014,0.098 l 0.109,-0.327 0.31,-0.233 c 0.133,-0.069 0.301,-0.133 0.5,-0.191 0.2,-0.058 0.43,-0.124 0.692,-0.196 0.369,-0.102 0.703,-0.212 1,-0.332 0.298,-0.119 0.552,-0.268 0.763,-0.446 0.21,-0.178 0.372,-0.394 0.484,-0.648 0.113,-0.254 0.169,-0.559 0.169,-0.914 0,-0.436 -0.082,-0.804 -0.245,-1.104 -0.163,-0.302 -0.38,-0.545 -0.648,-0.73 -0.268,-0.185 -0.578,-0.319 -0.93,-0.403 -0.352,-0.084 -0.714,-0.125 -1.083,-0.125 -0.284,0 -0.572,0.021 -0.866,0.066 -0.294,0.043 -0.582,0.106 -0.865,0.19 -0.283,0.083 -0.559,0.183 -0.827,0.299 -0.269,0.116 -0.516,0.25 -0.741,0.403 l 0.784,1.557 0.294,-0.207 c 0.159,-0.103 0.355,-0.204 0.588,-0.305 0.232,-0.102 0.493,-0.193 0.783,-0.272 0.291,-0.08 0.585,-0.12 0.882,-0.12 0.632,0 0.947,0.192 0.947,0.577 l -0.141,0.359 -0.392,0.255 c -0.167,0.077 -0.363,0.148 -0.588,0.213 -0.225,0.065 -0.471,0.138 -0.74,0.218 -0.356,0.109 -0.664,0.227 -0.925,0.354 -0.262,0.126 -0.48,0.273 -0.654,0.44 -0.174,0.167 -0.302,0.36 -0.386,0.577 -0.083,0.218 -0.125,0.471 -0.125,0.762 0,0.407 0.076,0.765 0.228,1.077 0.153,0.312 0.36,0.575 0.621,0.79 0.261,0.214 0.564,0.376 0.909,0.484 0.344,0.109 0.709,0.163 1.094,0.163 0.276,0 0.544,-0.026 0.805,-0.076 0.261,-0.051 0.51,-0.116 0.746,-0.195 C -0.227,1.977 -0.004,1.886 0.207,1.785 0.418,1.684 0.606,1.582 0.773,1.481 Z"
           style="fill:#7c7b7b;fill-opacity:1;fill-rule:nonzero;stroke:none"
           id="path308"
           transform="translate(581.5619,208.4646)"
           clip-path="url(#clipPath1667)" />
        <path
           d="M 0,0 C 0,0.464 0.083,0.927 0.251,1.388 0.417,1.848 0.66,2.26 0.98,2.623 1.299,2.986 1.688,3.279 2.15,3.505 2.611,3.73 3.135,3.842 3.722,3.842 4.412,3.842 5.011,3.686 5.518,3.374 6.026,3.062 6.404,2.656 6.651,2.155 L 5.279,1.198 C 5.199,1.4 5.098,1.569 4.975,1.704 L 4.572,2.03 4.12,2.204 3.679,2.253 C 3.36,2.253 3.084,2.184 2.852,2.046 2.619,1.908 2.427,1.731 2.275,1.512 2.123,1.295 2.008,1.048 1.933,0.773 1.856,0.497 1.818,0.217 1.818,-0.065 c 0,-0.305 0.045,-0.599 0.136,-0.882 0.09,-0.283 0.218,-0.533 0.381,-0.751 0.163,-0.217 0.361,-0.39 0.593,-0.517 0.232,-0.127 0.49,-0.19 0.773,-0.19 l 0.452,0.059 0.451,0.186 0.393,0.326 c 0.115,0.134 0.209,0.3 0.282,0.495 L 6.748,-2.198 C 6.633,-2.482 6.464,-2.736 6.242,-2.961 6.021,-3.186 5.769,-3.374 5.486,-3.526 5.203,-3.679 4.904,-3.795 4.588,-3.876 4.272,-3.955 3.963,-3.995 3.657,-3.995 3.121,-3.995 2.629,-3.88 2.182,-3.652 1.736,-3.423 1.352,-3.121 1.028,-2.743 0.706,-2.366 0.454,-1.937 0.273,-1.459 0.091,-0.98 0,-0.494 0,0"
           style="fill:#7c7b7b;fill-opacity:1;fill-rule:nonzero;stroke:none"
           id="path312"
           transform="translate(583.1727,206.9302)"
           clip-path="url(#clipPath1687)" />
        <path
           d="M 0,0 C -0.552,0 -1.052,0.113 -1.502,0.338 -1.953,0.563 -2.339,0.858 -2.661,1.225 -2.985,1.591 -3.234,2.01 -3.412,2.482 -3.59,2.953 -3.679,3.44 -3.679,3.94 c 0,0.508 0.092,0.998 0.277,1.47 0.186,0.471 0.443,0.887 0.773,1.246 0.33,0.359 0.722,0.646 1.176,0.86 C -1,7.73 -0.505,7.837 0.032,7.837 0.583,7.837 1.084,7.725 1.534,7.5 1.984,7.274 2.371,6.978 2.694,6.607 3.016,6.237 3.265,5.816 3.439,5.345 3.613,4.873 3.7,4.394 3.7,3.908 3.7,3.4 3.607,2.91 3.423,2.439 3.237,1.967 2.982,1.552 2.656,1.192 2.328,0.833 1.939,0.544 1.486,0.327 1.032,0.109 0.537,0 0,0 m -1.862,3.918 c 0,-0.297 0.042,-0.585 0.126,-0.864 0.083,-0.28 0.203,-0.528 0.358,-0.747 0.156,-0.217 0.353,-0.391 0.589,-0.522 0.235,-0.13 0.506,-0.195 0.81,-0.195 0.312,0 0.585,0.069 0.817,0.207 C 1.069,1.934 1.264,2.113 1.42,2.335 1.577,2.556 1.692,2.807 1.769,3.086 1.844,3.365 1.883,3.651 1.883,3.94 1.883,4.238 1.84,4.527 1.757,4.805 1.674,5.086 1.553,5.331 1.393,5.546 1.233,5.76 1.037,5.93 0.805,6.057 0.573,6.185 0.308,6.248 0.011,6.248 -0.301,6.248 -0.574,6.181 -0.805,6.047 -1.038,5.912 -1.232,5.736 -1.388,5.519 -1.544,5.301 -1.662,5.052 -1.742,4.774 -1.822,4.493 -1.862,4.209 -1.862,3.918"
           style="fill:#7c7b7b;fill-opacity:1;fill-rule:nonzero;stroke:none"
           id="path316"
           transform="translate(593.9926,202.9351)"
           clip-path="url(#clipPath1680)" />
        <path
           d="m 598.7375,203.0011 v 7.728 h 3.483 c 0.363,0 0.698,-0.077 1.007,-0.229 0.309,-0.152 0.574,-0.352 0.8,-0.599 0.225,-0.247 0.401,-0.526 0.527,-0.838 0.127,-0.312 0.192,-0.627 0.192,-0.947 0,-0.239 -0.03,-0.47 -0.087,-0.691 -0.059,-0.221 -0.142,-0.43 -0.251,-0.626 -0.109,-0.195 -0.242,-0.371 -0.397,-0.527 -0.157,-0.157 -0.333,-0.289 -0.528,-0.398 l 1.774,-2.873 h -2.013 l -1.558,2.492 h -1.164 v -2.492 z m 1.785,4.049 h 1.633 c 0.21,0 0.391,0.099 0.544,0.299 0.153,0.2 0.228,0.455 0.228,0.767 0,0.32 -0.087,0.573 -0.261,0.763 -0.174,0.188 -0.363,0.282 -0.565,0.282 h -1.579 z"
           style="fill:#7c7b7b;fill-opacity:1;fill-rule:nonzero;stroke:none"
           id="path320" />
        <path
           d="m 611.5701,204.5681 v -1.567 h -5.431 v 7.728 h 5.333 v -1.568 h -3.548 v -1.502 h 3.047 v -1.447 h -3.047 v -1.644 z"
           style="fill:#7c7b7b;fill-opacity:1;fill-rule:nonzero;stroke:none"
           id="path324" />
        <path
           d="m 574.105,163.905 h -19.916 v 32.404 h 19.916 z"
           style="fill:#87bd25;fill-opacity:1;fill-rule:nonzero;stroke:none"
           id="path326" />
        <path
           d="m 594.021,163.905 h -19.917 v 32.404 h 19.917 z"
           style="fill:#ffcc00;fill-opacity:1;fill-rule:nonzero;stroke:none"
           id="path328" />
        <path
           d="m 542.3441,177.7992 2.2,5.756 2.113,-5.756 z m 3.246,9.503 h -1.939 l -5.99,-14.443 h 2.81 l 1.046,2.763 h 5.946 l 1.024,-2.763 h 3.071 z"
           style="fill:#74ab7e;fill-opacity:1;fill-rule:nonzero;stroke:none"
           id="path332" />
        <path
           d="M 0,0 V 4.082 H 1.373 C 3.921,4.061 4.75,3.308 4.75,2.114 4.75,0.629 3.66,0 1.547,0 Z m 0,6.092 v 3.998 h 0.828 c 2.201,0 3.093,-0.649 3.093,-1.947 0,-1.193 -0.849,-2.009 -2.635,-2.03 z m 1.177,6.175 H -2.788 V -2.176 h 4.466 c 4.204,0 5.925,1.695 5.925,4.29 0,1.424 -0.785,2.554 -2.418,3.203 0.937,0.733 1.59,1.758 1.59,3.077 0,2.136 -1.503,3.873 -5.598,3.873"
           style="fill:#bdd684;fill-opacity:1;fill-rule:nonzero;stroke:none"
           id="path344"
           transform="translate(561.8683,175.0355)"
           clip-path="url(#clipPath1693)" />
        <path
           d="m 0,0 c -3.877,0 -6.862,-2.889 -6.862,-7.411 0,-4.543 2.745,-7.452 6.905,-7.452 2.68,0 4.597,1.047 5.795,3.036 l -2.092,1.528 c -0.849,-1.382 -2.026,-2.157 -3.594,-2.157 -2.657,0 -4.138,1.843 -4.138,5.066 0,3.014 1.525,4.982 3.877,4.982 1.546,0 2.679,-0.775 3.224,-2.093 l 2.656,0.983 C 4.901,-1.487 3.311,0 0,0"
           style="fill:#ffdf7d;fill-opacity:1;fill-rule:nonzero;stroke:none"
           id="path348"
           transform="translate(582.3883,187.5121)"
           clip-path="url(#clipPath1699)" />
        <path
           d="m 0,0 c -7.507,0 -13.615,5.649 -13.615,12.592 v 20.063 c 0,6.944 6.108,12.593 13.615,12.593 h 1.413 c 7.507,0 13.614,-5.649 13.614,-12.593 V 12.592 C 15.027,5.649 8.92,0 1.413,0 Z"
           style="fill:#ffffff;fill-opacity:1;fill-rule:nonzero;stroke:none"
           id="path352"
           transform="translate(603.2205,157.4828)"
           clip-path="url(#clipPath1705)" />
        <path
           d="m 0,0 h -1.413 c -6.209,0 -11.241,4.575 -11.241,10.219 v 20.063 c 0,5.644 5.032,10.219 11.241,10.219 H 0 c 6.208,0 11.24,-4.575 11.24,-10.219 V 10.219 C 11.24,4.575 6.208,0 0,0"
           style="fill:#ef7d00;fill-opacity:1;fill-rule:nonzero;stroke:none"
           id="path356"
           transform="translate(604.6333,159.8563)"
           clip-path="url(#clipPath1711)" />
        <path
           d="m 596.345,170.6924 v 19.257 h 6.586 c 6.252,0 10.047,-3.544 10.047,-9.628 0,-5.415 -4.046,-9.629 -10.521,-9.629 z m 6.028,3.935 c 3.991,0 5.554,2.651 5.554,5.694 0,3.461 -1.396,5.609 -5.023,5.609 h -1.675 v -11.303 z"
           style="fill:#ffffff;fill-opacity:1;fill-rule:nonzero;stroke:none"
           id="path360" />
      </g>
    </g>
  </g>
</svg>
