<?xml version="1.0" encoding="UTF-8" standalone="no"?>
<!-- Created with Inkscape (http://www.inkscape.org/) -->

<svg
   width="240"
   height="130"
   viewBox="0 0 240 130"
   version="1.1"
   id="svg2032"
   sodipodi:docname="nutriscore-c-new.svg"
   inkscape:version="1.2 (1:1.2+202205241504+da316b6974)"
   xmlns:inkscape="http://www.inkscape.org/namespaces/inkscape"
   xmlns:sodipodi="http://sodipodi.sourceforge.net/DTD/sodipodi-0.dtd"
   xmlns="http://www.w3.org/2000/svg"
   xmlns:svg="http://www.w3.org/2000/svg">
  <sodipodi:namedview
     id="namedview2034"
     pagecolor="#ffffff"
     bordercolor="#666666"
     borderopacity="1.0"
     inkscape:showpageshadow="2"
     inkscape:pageopacity="0.0"
     inkscape:pagecheckerboard="0"
     inkscape:deskcolor="#d1d1d1"
     inkscape:document-units="mm"
     showgrid="false"
     inkscape:zoom="0.914906"
     inkscape:cx="183.62542"
     inkscape:cy="37.708792"
     inkscape:window-width="1679"
     inkscape:window-height="1230"
     inkscape:window-x="536"
     inkscape:window-y="93"
     inkscape:window-maximized="0"
     inkscape:current-layer="g2493" />
  <defs
     id="defs2029">
    <clipPath
       clipPathUnits="userSpaceOnUse"
       id="clipPath1836">
      <path
         d="m -576.4059,-131.6834 h 841.89002 v 595.276 H -576.4059 Z"
         id="path1838"
         style="stroke-width:0.999998" />
    </clipPath>
    <clipPath
       clipPathUnits="userSpaceOnUse"
       id="clipPath1817">
      <path
         d="m -480.4445,-91.6168 h 841.89002 v 595.276 H -480.4445 Z"
         id="path1819"
         style="stroke-width:0.999998" />
    </clipPath>
    <clipPath
       clipPathUnits="userSpaceOnUse"
       id="clipPath1872">
      <path
         d="m -488.3129,-132.2371 h 841.89002 v 595.276 H -488.3129 Z"
         id="path1874"
         style="stroke-width:0.999998" />
    </clipPath>
    <clipPath
       clipPathUnits="userSpaceOnUse"
       id="clipPath1878">
      <path
         d="m -519.714,-136.1767 h 841.89002 v 595.276 H -519.714 Z"
         id="path1880"
         style="stroke-width:0.999998" />
    </clipPath>
    <clipPath
       clipPathUnits="userSpaceOnUse"
       id="clipPath1886">
      <path
         d="m -521.3248,-134.6422 h 841.89002 v 595.276 H -521.3248 Z"
         id="path1888"
         style="stroke-width:0.999998" />
    </clipPath>
    <clipPath
       clipPathUnits="userSpaceOnUse"
       id="clipPath1892">
      <path
         d="m -532.1437,-130.6481 h 841.89002 v 595.276 H -532.1437 Z"
         id="path1894"
         style="stroke-width:0.999998" />
    </clipPath>
    <clipPath
       clipPathUnits="userSpaceOnUse"
       id="clipPath1898">
      <path
         d="m -500.0202,-102.7485 h 841.89002 v 595.276 H -500.0202 Z"
         id="path1900"
         style="stroke-width:0.999998" />
    </clipPath>
    <clipPath
       clipPathUnits="userSpaceOnUse"
       id="clipPath1904">
      <path
         d="m -522.5496,-115.2242 h 841.89002 v 595.276 H -522.5496 Z"
         id="path1906"
         style="stroke-width:0.999998" />
    </clipPath>
    <clipPath
       clipPathUnits="userSpaceOnUse"
       id="clipPath1910">
      <path
         d="m -561.373,-85.1949 h 841.89002 v 595.276 H -561.373 Z"
         id="path1912"
         style="stroke-width:0.999998" />
    </clipPath>
    <clipPath
       clipPathUnits="userSpaceOnUse"
       id="clipPath1916">
      <path
         d="m -562.786,-87.5683 h 841.89002 v 595.276 H -562.786 Z"
         id="path1918"
         style="stroke-width:0.999998" />
    </clipPath>
    <clipPath
       clipPathUnits="userSpaceOnUse"
       id="clipPath1593">
      <path
         d="m -503.0564,-291.8091 h 841.89002 v 595.276 H -503.0564 Z"
         id="path1595"
         style="stroke-width:0.999998" />
    </clipPath>
    <clipPath
       clipPathUnits="userSpaceOnUse"
       id="clipPath1929">
      <path
         d="m -503.0554,-239.3216 h 841.89002 v 595.276 H -503.0554 Z"
         id="path1931"
         style="stroke-width:0.999998" />
    </clipPath>
    <clipPath
       clipPathUnits="userSpaceOnUse"
       id="clipPath1605">
      <path
         d="m -427.3825,-279.9418 h 841.89002 v 595.276 H -427.3825 Z"
         id="path1607"
         style="stroke-width:0.999998" />
    </clipPath>
    <clipPath
       clipPathUnits="userSpaceOnUse"
       id="clipPath1618">
      <path
         d="m -458.7846,-283.8814 h 841.89002 v 595.276 H -458.7846 Z"
         id="path1620"
         style="stroke-width:0.999998" />
    </clipPath>
    <clipPath
       clipPathUnits="userSpaceOnUse"
       id="clipPath1611">
      <path
         d="M -460.3945,-282.347 H 381.49552 V 312.929 H -460.3945 Z"
         id="path1613"
         style="stroke-width:0.999998" />
    </clipPath>
    <clipPath
       clipPathUnits="userSpaceOnUse"
       id="clipPath1599">
      <path
         d="m -471.2142,-278.3528 h 841.89002 v 595.276 H -471.2142 Z"
         id="path1601"
         style="stroke-width:0.999998" />
    </clipPath>
    <clipPath
       clipPathUnits="userSpaceOnUse"
       id="clipPath1624">
      <path
         d="m -441.0913,-250.4523 h 841.89002 v 595.276 H -441.0913 Z"
         id="path1626"
         style="stroke-width:0.999998" />
    </clipPath>
    <clipPath
       clipPathUnits="userSpaceOnUse"
       id="clipPath1630">
      <path
         d="m -461.6201,-262.9289 h 841.89002 v 595.276 H -461.6201 Z"
         id="path1632"
         style="stroke-width:0.999998" />
    </clipPath>
    <clipPath
       clipPathUnits="userSpaceOnUse"
       id="clipPath1636">
      <path
         d="m -478.6014,-250.4523 h 841.89002 v 595.276 H -478.6014 Z"
         id="path1638"
         style="stroke-width:0.999998" />
    </clipPath>
    <clipPath
       clipPathUnits="userSpaceOnUse"
       id="clipPath1642">
      <path
         d="m -420.708,-232.8996 h 841.89002 v 595.276 H -420.708 Z"
         id="path1644"
         style="stroke-width:0.999998" />
    </clipPath>
    <clipPath
       clipPathUnits="userSpaceOnUse"
       id="clipPath1922">
      <path
         d="m -422.121,-235.2731 h 841.89002 v 595.276 H -422.121 Z"
         id="path1924"
         style="stroke-width:0.999998" />
    </clipPath>
    <clipPath
       clipPathUnits="userSpaceOnUse"
       id="clipPath1866">
      <path
         d="m -625.8334,-291.8091 h 841.89002 v 595.276 H -625.8334 Z"
         id="path1868"
         style="stroke-width:0.999998" />
    </clipPath>
    <clipPath
       clipPathUnits="userSpaceOnUse"
       id="clipPath1717">
      <path
         d="m -625.8334,-239.3216 h 841.89002 v 595.276 H -625.8334 Z"
         id="path1719"
         style="stroke-width:0.999998" />
    </clipPath>
    <clipPath
       clipPathUnits="userSpaceOnUse"
       id="clipPath1729">
      <path
         d="m -542.2922,-239.3216 h 841.89002 v 595.276 H -542.2922 Z"
         id="path1731"
         style="stroke-width:0.999998" />
    </clipPath>
    <clipPath
       clipPathUnits="userSpaceOnUse"
       id="clipPath1735">
      <path
         d="m -586.4691,-262.9289 h 841.89002 v 595.276 H -586.4691 Z"
         id="path1737"
         style="stroke-width:0.999998" />
    </clipPath>
    <clipPath
       clipPathUnits="userSpaceOnUse"
       id="clipPath1741">
      <path
         d="m -601.3794,-250.4523 h 841.89002 v 595.276 H -601.3794 Z"
         id="path1743"
         style="stroke-width:0.999998" />
    </clipPath>
    <clipPath
       clipPathUnits="userSpaceOnUse"
       id="clipPath1747">
      <path
         d="m -550.1606,-279.9418 h 841.89002 v 595.276 H -550.1606 Z"
         id="path1749"
         style="stroke-width:0.999998" />
    </clipPath>
    <clipPath
       clipPathUnits="userSpaceOnUse"
       id="clipPath1759">
      <path
         d="m -581.5617,-283.8814 h 841.89002 v 595.276 H -581.5617 Z"
         id="path1761"
         style="stroke-width:0.999998" />
    </clipPath>
    <clipPath
       clipPathUnits="userSpaceOnUse"
       id="clipPath1765">
      <path
         d="M -583.1716,-282.347 H 258.71842 V 312.929 H -583.1716 Z"
         id="path1767"
         style="stroke-width:0.999998" />
    </clipPath>
    <clipPath
       clipPathUnits="userSpaceOnUse"
       id="clipPath1773">
      <path
         d="m -593.9914,-278.3528 h 841.89002 v 595.276 H -593.9914 Z"
         id="path1775"
         style="stroke-width:0.999998" />
    </clipPath>
    <clipPath
       clipPathUnits="userSpaceOnUse"
       id="clipPath1779">
      <path
         d="m -563.4639,-232.8996 h 841.89002 v 595.276 H -563.4639 Z"
         id="path1781"
         style="stroke-width:0.999998" />
    </clipPath>
    <clipPath
       clipPathUnits="userSpaceOnUse"
       id="clipPath1785">
      <path
         d="m -564.8766,-235.2731 h 841.89002 v 595.276 H -564.8766 Z"
         id="path1787"
         style="stroke-width:0.999998" />
    </clipPath>
    <clipPath
       clipPathUnits="userSpaceOnUse"
       id="clipPath1792">
      <path
         d="m -503.0552,-216.3924 h 841.89002 v 595.276 H -503.0552 Z"
         id="path1794"
         style="stroke-width:0.999998" />
    </clipPath>
    <clipPath
       clipPathUnits="userSpaceOnUse"
       id="clipPath1753">
      <path
         d="m -503.0552,-163.9048 h 841.89002 v 595.276 H -503.0552 Z"
         id="path1755"
         style="stroke-width:0.999998" />
    </clipPath>
    <clipPath
       clipPathUnits="userSpaceOnUse"
       id="clipPath1723">
      <path
         d="m -419.5139,-163.9048 h 841.89002 v 595.276 H -419.5139 Z"
         id="path1725"
         style="stroke-width:0.999998" />
    </clipPath>
    <clipPath
       clipPathUnits="userSpaceOnUse"
       id="clipPath1798">
      <path
         d="M -427.3824,-204.525 H 414.50762 V 390.751 H -427.3824 Z"
         id="path1800"
         style="stroke-width:0.999998" />
    </clipPath>
    <clipPath
       clipPathUnits="userSpaceOnUse"
       id="clipPath1804">
      <path
         d="m -458.7836,-208.4646 h 841.89002 v 595.276 H -458.7836 Z"
         id="path1806"
         style="stroke-width:0.999998" />
    </clipPath>
    <clipPath
       clipPathUnits="userSpaceOnUse"
       id="clipPath1810">
      <path
         d="m -460.3944,-206.9302 h 841.89002 v 595.276 H -460.3944 Z"
         id="path1812"
         style="stroke-width:0.999998" />
    </clipPath>
    <clipPath
       clipPathUnits="userSpaceOnUse"
       id="clipPath1823">
      <path
         d="m -471.2132,-202.9361 h 841.89002 v 595.276 H -471.2132 Z"
         id="path1825"
         style="stroke-width:0.999998" />
    </clipPath>
    <clipPath
       clipPathUnits="userSpaceOnUse"
       id="clipPath1830">
      <path
         d="m -437.4559,-175.0355 h 841.89002 v 595.276 H -437.4559 Z"
         id="path1832"
         style="stroke-width:0.999998" />
    </clipPath>
    <clipPath
       clipPathUnits="userSpaceOnUse"
       id="clipPath1848">
      <path
         d="m -480.2086,-175.0355 h 841.89002 v 595.276 H -480.2086 Z"
         id="path1850"
         style="stroke-width:0.999998" />
    </clipPath>
    <clipPath
       clipPathUnits="userSpaceOnUse"
       id="clipPath1842">
      <path
         d="m -460.5514,-157.4828 h 841.89002 v 595.276 H -460.5514 Z"
         id="path1844"
         style="stroke-width:0.999998" />
    </clipPath>
    <clipPath
       clipPathUnits="userSpaceOnUse"
       id="clipPath1854">
      <path
         d="m -461.9644,-159.8563 h 841.89002 v 595.276 H -461.9644 Z"
         id="path1856"
         style="stroke-width:0.999998" />
    </clipPath>
    <clipPath
       clipPathUnits="userSpaceOnUse"
       id="clipPath1860">
      <path
         d="m -452.8761,-180.7629 h 841.89002 v 595.276 H -452.8761 Z"
         id="path1862"
         style="stroke-width:0.999998" />
    </clipPath>
  </defs>
  <g
     inkscape:label="Calque 1"
     inkscape:groupmode="layer"
     id="layer1">
    <g
       id="g2493"
       transform="matrix(2.2067561,0,0,-2.2067561,-1169.2969,643.95151)">
      <g
         id="g2568"
         transform="translate(122.77818,75.416699)">
        <path
           d="M 0,0 H -83.541 C -90.39,0 -95.962,-5.573 -95.962,-12.421 V -44.49 c 0,-6.85 5.572,-12.422 12.421,-12.422 h 33.707 c 2.118,-1.258 4.631,-1.998 7.33,-1.998 h 1.413 c 2.7,0 5.212,0.74 7.331,1.998 H 0 c 6.85,0 12.421,5.572 12.421,12.422 v 32.069 C 12.421,-5.573 6.85,0 0,0"
           style="fill:#ffffff;fill-opacity:1;fill-rule:nonzero;stroke:none"
           id="path488"
           transform="translate(503.0552,216.3924)"
           clip-path="url(#clipPath1792)" />
        <path
           d="M 0,0 H -11.896 V 32.404 H 0 c 4.417,0 7.998,-3.58 7.998,-7.997 V 7.998 C 7.998,3.581 4.417,0 0,0"
           style="fill:#e63312;fill-opacity:1;fill-rule:nonzero;stroke:none"
           id="path492"
           transform="translate(503.0552,163.9048)"
           clip-path="url(#clipPath1753)" />
        <path
           d="M 0,0 H 11.896 V 32.404 H 0 c -4.417,0 -7.997,-3.58 -7.997,-7.997 V 7.998 C -7.997,3.581 -4.417,0 0,0"
           style="fill:#00803d;fill-opacity:1;fill-rule:nonzero;stroke:none"
           id="path496"
           transform="translate(419.5139,163.9048)"
           clip-path="url(#clipPath1723)" />
        <path
           d="m 505.6899,187.3023 h -9.17 v -14.443 h 9.257 v 2.176 h -6.47 v 4.25 h 4.532 v 2.177 h -4.532 v 3.663 h 6.383 z"
           style="fill:#f28f66;fill-opacity:1;fill-rule:nonzero;stroke:none"
           id="path500" />
        <path
           d="m 417.598,207.42 v -4.419 h -1.785 v 7.728 h 1.393 l 3.602,-4.539 v 4.539 h 1.786 v -7.728 h -1.437 z"
           style="fill:#7c7b7b;fill-opacity:1;fill-rule:nonzero;stroke:none"
           id="path504" />
        <path
           d="M 0,0 C 0.305,0 0.563,0.063 0.773,0.19 0.984,0.317 1.154,0.486 1.285,0.696 1.415,0.907 1.508,1.148 1.562,1.42 1.617,1.692 1.644,1.97 1.644,2.253 V 6.204 H 3.429 V 2.253 C 3.429,1.715 3.362,1.215 3.227,0.751 3.093,0.286 2.886,-0.121 2.607,-0.469 2.328,-0.817 1.972,-1.091 1.54,-1.291 1.108,-1.489 0.595,-1.589 0,-1.589 c -0.617,0 -1.143,0.104 -1.578,0.315 -0.436,0.21 -0.79,0.491 -1.061,0.844 -0.273,0.352 -0.472,0.76 -0.599,1.224 -0.127,0.464 -0.191,0.951 -0.191,1.459 v 3.951 h 1.785 V 2.253 c 0,-0.297 0.029,-0.581 0.088,-0.85 0.058,-0.267 0.152,-0.508 0.283,-0.718 0.13,-0.21 0.299,-0.377 0.506,-0.5 C -0.56,0.061 -0.305,0 0,0"
           style="fill:#7c7b7b;fill-opacity:1;fill-rule:nonzero;stroke:none"
           id="path516"
           transform="translate(427.3824,204.525)"
           clip-path="url(#clipPath1798)" />
        <path
           d="m 438.0712,209.1609 h -2.352 v -6.16 h -1.785 v 6.16 h -2.362 v 1.568 h 6.499 z"
           style="fill:#7c7b7b;fill-opacity:1;fill-rule:nonzero;stroke:none"
           id="path520" />
        <path
           d="m 438.9522,203.0011 v 7.728 h 3.483 c 0.363,0 0.699,-0.077 1.008,-0.229 0.308,-0.152 0.574,-0.352 0.799,-0.599 0.225,-0.247 0.401,-0.526 0.528,-0.838 0.127,-0.312 0.191,-0.627 0.191,-0.947 0,-0.239 -0.03,-0.47 -0.087,-0.691 -0.059,-0.221 -0.142,-0.43 -0.251,-0.626 -0.109,-0.195 -0.241,-0.371 -0.397,-0.527 -0.156,-0.157 -0.332,-0.289 -0.528,-0.398 l 1.774,-2.873 h -2.013 l -1.557,2.492 h -1.165 v -2.492 z m 1.785,4.049 h 1.633 c 0.211,0 0.391,0.099 0.545,0.299 0.152,0.2 0.228,0.455 0.228,0.767 0,0.32 -0.087,0.573 -0.262,0.763 -0.174,0.188 -0.363,0.282 -0.565,0.282 h -1.579 z"
           style="fill:#7c7b7b;fill-opacity:1;fill-rule:nonzero;stroke:none"
           id="path532" />
        <path
           d="m 446.354,210.729 h 1.785 v -7.728 h -1.785 z"
           style="fill:#7c7b7b;fill-opacity:1;fill-rule:nonzero;stroke:none"
           id="path534" />
        <path
           d="m 449.467,206.778 h 3.352 v -1.568 h -3.352 z"
           style="fill:#7c7b7b;fill-opacity:1;fill-rule:nonzero;stroke:none"
           id="path536" />
        <path
           d="M 0,0 -0.239,0.164 C -0.37,0.243 -0.533,0.327 -0.729,0.414 -0.925,0.501 -1.139,0.577 -1.371,0.643 -1.603,0.708 -1.836,0.74 -2.068,0.74 -2.373,0.74 -2.607,0.686 -2.771,0.577 -2.933,0.469 -3.014,0.309 -3.014,0.098 l 0.108,-0.327 0.311,-0.233 c 0.133,-0.069 0.3,-0.133 0.5,-0.191 0.199,-0.058 0.429,-0.124 0.691,-0.196 0.37,-0.102 0.704,-0.212 1.001,-0.332 0.298,-0.119 0.552,-0.268 0.763,-0.446 0.209,-0.178 0.371,-0.394 0.484,-0.648 0.112,-0.254 0.168,-0.559 0.168,-0.914 0,-0.435 -0.081,-0.803 -0.245,-1.104 -0.162,-0.302 -0.379,-0.545 -0.647,-0.73 -0.268,-0.185 -0.579,-0.319 -0.93,-0.403 -0.352,-0.084 -0.714,-0.125 -1.083,-0.125 -0.284,0 -0.572,0.022 -0.866,0.066 -0.294,0.043 -0.583,0.106 -0.866,0.19 -0.282,0.083 -0.559,0.183 -0.826,0.299 -0.269,0.116 -0.516,0.251 -0.741,0.403 l 0.784,1.557 0.293,-0.207 c 0.16,-0.103 0.356,-0.204 0.589,-0.305 0.231,-0.102 0.492,-0.193 0.783,-0.272 0.29,-0.08 0.584,-0.12 0.881,-0.12 0.633,0 0.947,0.193 0.947,0.577 l -0.14,0.359 -0.392,0.255 c -0.168,0.077 -0.364,0.148 -0.589,0.213 -0.224,0.066 -0.471,0.138 -0.739,0.218 -0.356,0.109 -0.664,0.227 -0.925,0.354 -0.262,0.126 -0.48,0.273 -0.654,0.44 -0.174,0.167 -0.303,0.36 -0.386,0.577 -0.084,0.218 -0.126,0.471 -0.126,0.762 0,0.407 0.077,0.765 0.229,1.077 0.153,0.312 0.36,0.575 0.621,0.79 0.261,0.214 0.564,0.376 0.909,0.484 0.344,0.109 0.709,0.163 1.093,0.163 0.277,0 0.545,-0.025 0.806,-0.075 0.261,-0.052 0.51,-0.117 0.746,-0.196 C -0.227,1.977 -0.004,1.886 0.207,1.785 0.417,1.684 0.605,1.582 0.773,1.481 Z"
           style="fill:#7c7b7b;fill-opacity:1;fill-rule:nonzero;stroke:none"
           id="path548"
           transform="translate(458.7836,208.4646)"
           clip-path="url(#clipPath1804)" />
        <path
           d="M 0,0 C 0,0.464 0.083,0.927 0.25,1.388 0.417,1.848 0.66,2.26 0.98,2.623 1.299,2.986 1.688,3.28 2.15,3.505 2.611,3.73 3.135,3.842 3.722,3.842 4.412,3.842 5.01,3.686 5.518,3.374 6.026,3.062 6.404,2.656 6.651,2.155 L 5.279,1.198 C 5.198,1.4 5.097,1.569 4.974,1.704 L 4.572,2.03 4.119,2.204 3.679,2.253 C 3.36,2.253 3.083,2.184 2.852,2.046 2.619,1.908 2.427,1.731 2.275,1.513 2.122,1.295 2.008,1.048 1.932,0.773 1.856,0.497 1.818,0.218 1.818,-0.065 c 0,-0.305 0.045,-0.599 0.136,-0.882 0.09,-0.283 0.218,-0.533 0.38,-0.751 0.164,-0.217 0.362,-0.39 0.593,-0.517 0.233,-0.127 0.491,-0.19 0.773,-0.19 l 0.452,0.059 0.452,0.186 0.392,0.326 c 0.115,0.134 0.21,0.3 0.283,0.495 L 6.748,-2.198 C 6.633,-2.482 6.463,-2.736 6.242,-2.961 6.02,-3.186 5.769,-3.374 5.485,-3.526 5.202,-3.679 4.904,-3.795 4.588,-3.875 4.272,-3.955 3.962,-3.994 3.657,-3.994 3.12,-3.994 2.629,-3.88 2.182,-3.652 1.736,-3.423 1.352,-3.121 1.028,-2.743 0.706,-2.366 0.454,-1.937 0.272,-1.459 0.091,-0.98 0,-0.494 0,0"
           style="fill:#7c7b7b;fill-opacity:1;fill-rule:nonzero;stroke:none"
           id="path552"
           transform="translate(460.3944,206.9302)"
           clip-path="url(#clipPath1810)" />
        <path
           d="m 0,0 c -0.551,0 -1.052,0.112 -1.502,0.337 -0.45,0.225 -0.836,0.52 -1.158,0.887 -0.324,0.366 -0.574,0.785 -0.751,1.258 -0.179,0.47 -0.267,0.957 -0.267,1.457 0,0.508 0.092,0.998 0.277,1.47 0.185,0.471 0.443,0.888 0.773,1.247 0.33,0.358 0.722,0.645 1.175,0.859 C -1,7.729 -0.504,7.836 0.033,7.836 0.584,7.836 1.085,7.724 1.535,7.499 1.985,7.274 2.371,6.977 2.694,6.606 3.017,6.236 3.266,5.815 3.44,5.344 3.614,4.872 3.701,4.393 3.701,3.907 3.701,3.399 3.608,2.909 3.424,2.438 3.238,1.966 2.983,1.551 2.656,1.191 2.329,0.832 1.939,0.543 1.486,0.326 1.032,0.108 0.538,0 0,0 m -1.861,3.917 c 0,-0.297 0.041,-0.585 0.126,-0.864 0.083,-0.28 0.202,-0.528 0.358,-0.747 0.156,-0.217 0.352,-0.391 0.588,-0.522 0.236,-0.13 0.506,-0.195 0.811,-0.195 0.312,0 0.585,0.069 0.816,0.207 0.232,0.137 0.427,0.317 0.583,0.538 0.156,0.221 0.272,0.472 0.348,0.751 0.076,0.28 0.115,0.565 0.115,0.854 0,0.298 -0.043,0.587 -0.126,0.866 C 1.675,5.085 1.553,5.331 1.394,5.545 1.234,5.759 1.038,5.929 0.805,6.057 0.574,6.184 0.309,6.247 0.012,6.247 -0.301,6.247 -0.573,6.18 -0.805,6.046 -1.037,5.911 -1.231,5.735 -1.387,5.518 -1.543,5.3 -1.662,5.051 -1.741,4.773 -1.821,4.493 -1.861,4.208 -1.861,3.917"
           style="fill:#7c7b7b;fill-opacity:1;fill-rule:nonzero;stroke:none"
           id="path556"
           transform="translate(471.2132,202.9361)"
           clip-path="url(#clipPath1823)" />
        <path
           d="m 475.9592,203.0011 v 7.728 h 3.483 c 0.363,0 0.698,-0.077 1.007,-0.229 0.308,-0.152 0.574,-0.352 0.799,-0.599 0.225,-0.247 0.401,-0.526 0.528,-0.838 0.127,-0.312 0.191,-0.627 0.191,-0.947 0,-0.239 -0.029,-0.47 -0.087,-0.691 -0.059,-0.221 -0.142,-0.43 -0.25,-0.626 -0.109,-0.195 -0.242,-0.371 -0.398,-0.527 -0.156,-0.157 -0.332,-0.289 -0.528,-0.398 l 1.774,-2.873 h -2.013 l -1.557,2.492 h -1.164 v -2.492 z m 1.785,4.049 h 1.632 c 0.21,0 0.392,0.099 0.544,0.299 0.154,0.2 0.229,0.455 0.229,0.767 0,0.32 -0.087,0.573 -0.261,0.763 -0.174,0.188 -0.363,0.282 -0.566,0.282 h -1.578 z"
           style="fill:#7c7b7b;fill-opacity:1;fill-rule:nonzero;stroke:none"
           id="path560" />
        <path
           d="m 488.7917,204.5681 v -1.567 h -5.431 v 7.728 h 5.332 v -1.568 h -3.547 v -1.502 h 3.047 v -1.447 h -3.047 v -1.644 z"
           style="fill:#7c7b7b;fill-opacity:1;fill-rule:nonzero;stroke:none"
           id="path564" />
        <path
           d="M 451.326,163.905 H 431.41 v 32.404 h 19.916 z"
           style="fill:#87bd25;fill-opacity:1;fill-rule:nonzero;stroke:none"
           id="path566" />
        <path
           d="m 491.159,163.905 h -19.916 v 32.404 h 19.916 z"
           style="fill:#ef7d00;fill-opacity:1;fill-rule:nonzero;stroke:none"
           id="path568" />
        <path
           d="M 0,0 V 4.082 H 1.373 C 3.921,4.062 4.749,3.308 4.749,2.114 4.749,0.629 3.66,0 1.547,0 Z m 0,6.092 v 3.998 h 0.828 c 2.201,0 3.093,-0.649 3.093,-1.947 0,-1.193 -0.849,-2.009 -2.635,-2.03 z m 1.177,6.175 H -2.788 V -2.176 h 4.466 c 4.204,0 5.925,1.695 5.925,4.29 0,1.425 -0.785,2.554 -2.419,3.203 0.938,0.733 1.591,1.758 1.591,3.077 0,2.136 -1.503,3.873 -5.598,3.873"
           style="fill:#bdd684;fill-opacity:1;fill-rule:nonzero;stroke:none"
           id="path580"
           transform="translate(437.4559,175.0355)"
           clip-path="url(#clipPath1830)" />
        <path
           d="M 0,0 V 10.048 H 1.569 C 5.032,10.048 6.71,8.206 6.71,5.045 6.71,2.156 4.901,0 1.221,0 Z M 1.591,12.267 H -2.788 V -2.176 h 4.074 c 5.162,0 8.299,3.076 8.299,7.221 0,4.521 -2.919,7.222 -7.994,7.222"
           style="fill:#f8b472;fill-opacity:1;fill-rule:nonzero;stroke:none"
           id="path584"
           transform="translate(480.2086,175.0355)"
           clip-path="url(#clipPath1848)" />
        <path
           d="m 419.5656,177.7992 2.2,5.756 2.113,-5.756 z m 3.246,9.503 h -1.939 l -5.99,-14.443 h 2.81 l 1.046,2.763 h 5.946 l 1.024,-2.763 h 3.071 z"
           style="fill:#74ab7e;fill-opacity:1;fill-rule:nonzero;stroke:none"
           id="path588" />
        <path
           d="m 0,0 c -7.507,0 -13.614,5.649 -13.614,12.592 v 20.063 c 0,6.944 6.107,12.593 13.614,12.593 h 1.413 c 7.507,0 13.614,-5.649 13.614,-12.593 V 12.592 C 15.027,5.649 8.92,0 1.413,0 Z"
           style="fill:#ffffff;fill-opacity:1;fill-rule:nonzero;stroke:none"
           id="path600"
           transform="translate(460.5514,157.4828)"
           clip-path="url(#clipPath1842)" />
        <path
           d="m 0,0 h -1.413 c -6.209,0 -11.241,4.575 -11.241,10.219 v 20.063 c 0,5.644 5.032,10.219 11.241,10.219 H 0 c 6.208,0 11.241,-4.575 11.241,-10.219 V 10.219 C 11.241,4.575 6.208,0 0,0"
           style="fill:#ffcc00;fill-opacity:1;fill-rule:nonzero;stroke:none"
           id="path604"
           transform="translate(461.9644,159.8563)"
           clip-path="url(#clipPath1854)" />
        <path
           d="m 0,0 c 0,6.139 3.824,9.935 8.987,9.935 4.493,0 6.39,-2.373 7.479,-4.884 L 11.805,3.293 c -0.558,1.311 -1.423,2.26 -3.042,2.26 -2.428,0 -3.712,-2.177 -3.712,-5.525 0,-3.712 1.34,-5.527 4.075,-5.527 1.619,0 2.875,0.949 3.795,2.317 l 3.601,-2.707 C 14.931,-8.345 12.391,-9.88 8.987,-9.88 3.517,-9.88 0,-6.057 0,0"
           style="fill:#ffffff;fill-opacity:1;fill-rule:nonzero;stroke:none"
           id="path608"
           transform="translate(452.8761,180.7629)"
           clip-path="url(#clipPath1860)" />
      </g>
    </g>
  </g>
</svg>
