<?xml version="1.0" encoding="UTF-8" standalone="no"?>
<!-- Created with Inkscape (http://www.inkscape.org/) -->

<svg
   width="240"
   height="130"
   viewBox="0 0 240 130"
   version="1.1"
   id="svg2032"
   sodipodi:docname="nutriscore-b-new.svg"
   inkscape:version="1.2 (1:1.2+202205241504+da316b6974)"
   xmlns:inkscape="http://www.inkscape.org/namespaces/inkscape"
   xmlns:sodipodi="http://sodipodi.sourceforge.net/DTD/sodipodi-0.dtd"
   xmlns="http://www.w3.org/2000/svg"
   xmlns:svg="http://www.w3.org/2000/svg">
  <sodipodi:namedview
     id="namedview2034"
     pagecolor="#ffffff"
     bordercolor="#666666"
     borderopacity="1.0"
     inkscape:showpageshadow="2"
     inkscape:pageopacity="0.0"
     inkscape:pagecheckerboard="0"
     inkscape:deskcolor="#d1d1d1"
     inkscape:document-units="mm"
     showgrid="false"
     inkscape:zoom="0.914906"
     inkscape:cx="183.62542"
     inkscape:cy="37.708792"
     inkscape:window-width="1679"
     inkscape:window-height="1230"
     inkscape:window-x="536"
     inkscape:window-y="93"
     inkscape:window-maximized="0"
     inkscape:current-layer="g2493" />
  <defs
     id="defs2029">
    <clipPath
       clipPathUnits="userSpaceOnUse"
       id="clipPath1836">
      <path
         d="m -576.4059,-131.6834 h 841.89002 v 595.276 H -576.4059 Z"
         id="path1838"
         style="stroke-width:0.999998" />
    </clipPath>
    <clipPath
       clipPathUnits="userSpaceOnUse"
       id="clipPath1817">
      <path
         d="m -480.4445,-91.6168 h 841.89002 v 595.276 H -480.4445 Z"
         id="path1819"
         style="stroke-width:0.999998" />
    </clipPath>
    <clipPath
       clipPathUnits="userSpaceOnUse"
       id="clipPath1872">
      <path
         d="m -488.3129,-132.2371 h 841.89002 v 595.276 H -488.3129 Z"
         id="path1874"
         style="stroke-width:0.999998" />
    </clipPath>
    <clipPath
       clipPathUnits="userSpaceOnUse"
       id="clipPath1878">
      <path
         d="m -519.714,-136.1767 h 841.89002 v 595.276 H -519.714 Z"
         id="path1880"
         style="stroke-width:0.999998" />
    </clipPath>
    <clipPath
       clipPathUnits="userSpaceOnUse"
       id="clipPath1886">
      <path
         d="m -521.3248,-134.6422 h 841.89002 v 595.276 H -521.3248 Z"
         id="path1888"
         style="stroke-width:0.999998" />
    </clipPath>
    <clipPath
       clipPathUnits="userSpaceOnUse"
       id="clipPath1892">
      <path
         d="m -532.1437,-130.6481 h 841.89002 v 595.276 H -532.1437 Z"
         id="path1894"
         style="stroke-width:0.999998" />
    </clipPath>
    <clipPath
       clipPathUnits="userSpaceOnUse"
       id="clipPath1898">
      <path
         d="m -500.0202,-102.7485 h 841.89002 v 595.276 H -500.0202 Z"
         id="path1900"
         style="stroke-width:0.999998" />
    </clipPath>
    <clipPath
       clipPathUnits="userSpaceOnUse"
       id="clipPath1904">
      <path
         d="m -522.5496,-115.2242 h 841.89002 v 595.276 H -522.5496 Z"
         id="path1906"
         style="stroke-width:0.999998" />
    </clipPath>
    <clipPath
       clipPathUnits="userSpaceOnUse"
       id="clipPath1910">
      <path
         d="m -561.373,-85.1949 h 841.89002 v 595.276 H -561.373 Z"
         id="path1912"
         style="stroke-width:0.999998" />
    </clipPath>
    <clipPath
       clipPathUnits="userSpaceOnUse"
       id="clipPath1916">
      <path
         d="m -562.786,-87.5683 h 841.89002 v 595.276 H -562.786 Z"
         id="path1918"
         style="stroke-width:0.999998" />
    </clipPath>
    <clipPath
       clipPathUnits="userSpaceOnUse"
       id="clipPath1593">
      <path
         d="m -503.0564,-291.8091 h 841.89002 v 595.276 H -503.0564 Z"
         id="path1595"
         style="stroke-width:0.999998" />
    </clipPath>
    <clipPath
       clipPathUnits="userSpaceOnUse"
       id="clipPath1929">
      <path
         d="m -503.0554,-239.3216 h 841.89002 v 595.276 H -503.0554 Z"
         id="path1931"
         style="stroke-width:0.999998" />
    </clipPath>
    <clipPath
       clipPathUnits="userSpaceOnUse"
       id="clipPath1605">
      <path
         d="m -427.3825,-279.9418 h 841.89002 v 595.276 H -427.3825 Z"
         id="path1607"
         style="stroke-width:0.999998" />
    </clipPath>
    <clipPath
       clipPathUnits="userSpaceOnUse"
       id="clipPath1618">
      <path
         d="m -458.7846,-283.8814 h 841.89002 v 595.276 H -458.7846 Z"
         id="path1620"
         style="stroke-width:0.999998" />
    </clipPath>
    <clipPath
       clipPathUnits="userSpaceOnUse"
       id="clipPath1611">
      <path
         d="M -460.3945,-282.347 H 381.49552 V 312.929 H -460.3945 Z"
         id="path1613"
         style="stroke-width:0.999998" />
    </clipPath>
    <clipPath
       clipPathUnits="userSpaceOnUse"
       id="clipPath1599">
      <path
         d="m -471.2142,-278.3528 h 841.89002 v 595.276 H -471.2142 Z"
         id="path1601"
         style="stroke-width:0.999998" />
    </clipPath>
    <clipPath
       clipPathUnits="userSpaceOnUse"
       id="clipPath1624">
      <path
         d="m -441.0913,-250.4523 h 841.89002 v 595.276 H -441.0913 Z"
         id="path1626"
         style="stroke-width:0.999998" />
    </clipPath>
    <clipPath
       clipPathUnits="userSpaceOnUse"
       id="clipPath1630">
      <path
         d="m -461.6201,-262.9289 h 841.89002 v 595.276 H -461.6201 Z"
         id="path1632"
         style="stroke-width:0.999998" />
    </clipPath>
    <clipPath
       clipPathUnits="userSpaceOnUse"
       id="clipPath1636">
      <path
         d="m -478.6014,-250.4523 h 841.89002 v 595.276 H -478.6014 Z"
         id="path1638"
         style="stroke-width:0.999998" />
    </clipPath>
    <clipPath
       clipPathUnits="userSpaceOnUse"
       id="clipPath1642">
      <path
         d="m -420.708,-232.8996 h 841.89002 v 595.276 H -420.708 Z"
         id="path1644"
         style="stroke-width:0.999998" />
    </clipPath>
    <clipPath
       clipPathUnits="userSpaceOnUse"
       id="clipPath1922">
      <path
         d="m -422.121,-235.2731 h 841.89002 v 595.276 H -422.121 Z"
         id="path1924"
         style="stroke-width:0.999998" />
    </clipPath>
    <clipPath
       clipPathUnits="userSpaceOnUse"
       id="clipPath1866">
      <path
         d="m -625.8334,-291.8091 h 841.89002 v 595.276 H -625.8334 Z"
         id="path1868"
         style="stroke-width:0.999998" />
    </clipPath>
    <clipPath
       clipPathUnits="userSpaceOnUse"
       id="clipPath1717">
      <path
         d="m -625.8334,-239.3216 h 841.89002 v 595.276 H -625.8334 Z"
         id="path1719"
         style="stroke-width:0.999998" />
    </clipPath>
    <clipPath
       clipPathUnits="userSpaceOnUse"
       id="clipPath1729">
      <path
         d="m -542.2922,-239.3216 h 841.89002 v 595.276 H -542.2922 Z"
         id="path1731"
         style="stroke-width:0.999998" />
    </clipPath>
    <clipPath
       clipPathUnits="userSpaceOnUse"
       id="clipPath1735">
      <path
         d="m -586.4691,-262.9289 h 841.89002 v 595.276 H -586.4691 Z"
         id="path1737"
         style="stroke-width:0.999998" />
    </clipPath>
    <clipPath
       clipPathUnits="userSpaceOnUse"
       id="clipPath1741">
      <path
         d="m -601.3794,-250.4523 h 841.89002 v 595.276 H -601.3794 Z"
         id="path1743"
         style="stroke-width:0.999998" />
    </clipPath>
    <clipPath
       clipPathUnits="userSpaceOnUse"
       id="clipPath1747">
      <path
         d="m -550.1606,-279.9418 h 841.89002 v 595.276 H -550.1606 Z"
         id="path1749"
         style="stroke-width:0.999998" />
    </clipPath>
    <clipPath
       clipPathUnits="userSpaceOnUse"
       id="clipPath1759">
      <path
         d="m -581.5617,-283.8814 h 841.89002 v 595.276 H -581.5617 Z"
         id="path1761"
         style="stroke-width:0.999998" />
    </clipPath>
    <clipPath
       clipPathUnits="userSpaceOnUse"
       id="clipPath1765">
      <path
         d="M -583.1716,-282.347 H 258.71842 V 312.929 H -583.1716 Z"
         id="path1767"
         style="stroke-width:0.999998" />
    </clipPath>
    <clipPath
       clipPathUnits="userSpaceOnUse"
       id="clipPath1773">
      <path
         d="m -593.9914,-278.3528 h 841.89002 v 595.276 H -593.9914 Z"
         id="path1775"
         style="stroke-width:0.999998" />
    </clipPath>
    <clipPath
       clipPathUnits="userSpaceOnUse"
       id="clipPath1779">
      <path
         d="m -563.4639,-232.8996 h 841.89002 v 595.276 H -563.4639 Z"
         id="path1781"
         style="stroke-width:0.999998" />
    </clipPath>
    <clipPath
       clipPathUnits="userSpaceOnUse"
       id="clipPath1785">
      <path
         d="m -564.8766,-235.2731 h 841.89002 v 595.276 H -564.8766 Z"
         id="path1787"
         style="stroke-width:0.999998" />
    </clipPath>
  </defs>
  <g
     inkscape:label="Calque 1"
     inkscape:groupmode="layer"
     id="layer1">
    <g
       id="g2493"
       transform="matrix(2.2067561,0,0,-2.2067561,-1169.2969,643.95151)">
      <path
         d="m 0,0 h -83.541 c -6.85,0 -12.421,-5.573 -12.421,-12.421 V -44.49 c 0,-6.85 5.571,-12.422 12.421,-12.422 H -69.7 c 2.118,-1.258 4.631,-1.998 7.33,-1.998 h 1.413 c 2.7,0 5.212,0.74 7.331,1.998 H 0 c 6.849,0 12.42,5.572 12.42,12.422 v 32.069 C 12.42,-5.573 6.849,0 0,0"
         style="fill:#ffffff;fill-opacity:1;fill-rule:nonzero;stroke:none"
         id="path364"
         transform="translate(625.8334,291.8091)"
         clip-path="url(#clipPath1866)" />
      <path
         d="m 594.021,239.322 h -19.916 v 32.404 h 19.916 z"
         style="fill:#ffcc00;fill-opacity:1;fill-rule:nonzero;stroke:none"
         id="path366" />
      <path
         d="m 613.937,239.322 h -19.916 v 32.404 h 19.916 z"
         style="fill:#ef7d00;fill-opacity:1;fill-rule:nonzero;stroke:none"
         id="path368" />
      <path
         d="M 0,0 H -11.897 V 32.404 H 0 c 4.416,0 7.997,-3.58 7.997,-7.997 V 7.998 C 7.997,3.581 4.416,0 0,0"
         style="fill:#e63312;fill-opacity:1;fill-rule:nonzero;stroke:none"
         id="path380"
         transform="translate(625.8334,239.3216)"
         clip-path="url(#clipPath1717)" />
      <path
         d="M 0,0 H 11.896 V 32.404 H 0 c -4.417,0 -7.998,-3.58 -7.998,-7.997 V 7.998 C -7.998,3.581 -4.417,0 0,0"
         style="fill:#00803d;fill-opacity:1;fill-rule:nonzero;stroke:none"
         id="path384"
         transform="translate(542.2922,239.3216)"
         clip-path="url(#clipPath1729)" />
      <path
         d="m 0,0 c -3.877,0 -6.861,-2.889 -6.861,-7.41 0,-4.544 2.745,-7.453 6.905,-7.453 2.68,0 4.596,1.047 5.794,3.036 l -2.091,1.528 c -0.849,-1.382 -2.026,-2.157 -3.594,-2.157 -2.657,0 -4.139,1.843 -4.139,5.067 0,3.014 1.525,4.981 3.877,4.981 1.547,0 2.68,-0.774 3.224,-2.093 l 2.658,0.984 C 4.901,-1.487 3.311,0 0,0"
         style="fill:#ffdf7d;fill-opacity:1;fill-rule:nonzero;stroke:none"
         id="path388"
         transform="translate(586.4691,262.9289)"
         clip-path="url(#clipPath1735)" />
      <path
         d="m 0,0 v 10.048 h 1.568 c 3.463,0 5.141,-1.842 5.141,-5.003 C 6.709,2.156 4.901,0 1.22,0 Z M 1.59,12.267 H -2.789 V -2.176 h 4.074 c 5.162,0 8.299,3.076 8.299,7.221 0,4.521 -2.919,7.222 -7.994,7.222"
         style="fill:#f8b472;fill-opacity:1;fill-rule:nonzero;stroke:none"
         id="path392"
         transform="translate(601.3794,250.4523)"
         clip-path="url(#clipPath1741)" />
      <path
         d="m 628.4669,262.7191 h -9.17 v -14.443 h 9.258 v 2.176 h -6.47 v 4.25 h 4.531 v 2.177 h -4.531 v 3.663 h 6.382 z"
         style="fill:#f28f66;fill-opacity:1;fill-rule:nonzero;stroke:none"
         id="path396" />
      <path
         d="m 540.3751,282.8368 v -4.419 h -1.785 v 7.728 h 1.394 l 3.602,-4.539 v 4.539 h 1.785 v -7.728 h -1.436 z"
         style="fill:#7c7b7b;fill-opacity:1;fill-rule:nonzero;stroke:none"
         id="path400" />
      <path
         d="M 0,0 C 0.304,0 0.562,0.063 0.772,0.19 0.983,0.317 1.154,0.486 1.284,0.696 1.415,0.907 1.507,1.148 1.561,1.42 1.616,1.692 1.644,1.97 1.644,2.253 V 6.204 H 3.428 V 2.253 C 3.428,1.715 3.361,1.215 3.227,0.751 3.092,0.286 2.885,-0.121 2.606,-0.469 2.327,-0.817 1.972,-1.091 1.539,-1.291 1.108,-1.489 0.594,-1.589 0,-1.589 c -0.617,0 -1.143,0.104 -1.579,0.315 -0.436,0.21 -0.789,0.491 -1.06,0.843 -0.273,0.353 -0.473,0.761 -0.599,1.225 -0.128,0.464 -0.192,0.951 -0.192,1.459 v 3.951 h 1.786 V 2.253 c 0,-0.297 0.029,-0.581 0.088,-0.85 0.057,-0.267 0.152,-0.508 0.282,-0.718 0.131,-0.211 0.299,-0.377 0.506,-0.5 C -0.561,0.061 -0.305,0 0,0"
         style="fill:#7c7b7b;fill-opacity:1;fill-rule:nonzero;stroke:none"
         id="path412"
         transform="translate(550.1606,279.9418)"
         clip-path="url(#clipPath1747)" />
      <path
         d="m 560.8483,284.5777 h -2.351 v -6.16 h -1.785 v 6.16 h -2.362 v 1.568 h 6.498 z"
         style="fill:#7c7b7b;fill-opacity:1;fill-rule:nonzero;stroke:none"
         id="path416" />
      <path
         d="m 561.7303,278.4179 v 7.728 h 3.482 c 0.364,0 0.699,-0.077 1.008,-0.229 0.307,-0.152 0.574,-0.352 0.799,-0.599 0.225,-0.246 0.401,-0.526 0.528,-0.838 0.128,-0.312 0.191,-0.627 0.191,-0.947 0,-0.239 -0.029,-0.47 -0.087,-0.691 -0.059,-0.221 -0.142,-0.43 -0.25,-0.626 -0.109,-0.195 -0.242,-0.371 -0.398,-0.527 -0.156,-0.157 -0.332,-0.289 -0.527,-0.398 l 1.774,-2.873 h -2.014 l -1.557,2.492 h -1.164 v -2.492 z m 1.785,4.049 h 1.633 c 0.21,0 0.391,0.099 0.544,0.299 0.153,0.2 0.228,0.455 0.228,0.767 0,0.32 -0.087,0.573 -0.261,0.763 -0.174,0.188 -0.363,0.282 -0.566,0.282 h -1.578 z"
         style="fill:#7c7b7b;fill-opacity:1;fill-rule:nonzero;stroke:none"
         id="path428" />
      <path
         d="m 569.132,286.146 h 1.784 v -7.728 h -1.784 z"
         style="fill:#7c7b7b;fill-opacity:1;fill-rule:nonzero;stroke:none"
         id="path430" />
      <path
         d="m 572.244,282.195 h 3.353 v -1.568 h -3.353 z"
         style="fill:#7c7b7b;fill-opacity:1;fill-rule:nonzero;stroke:none"
         id="path432" />
      <path
         d="M 0,0 -0.24,0.164 C -0.37,0.243 -0.534,0.327 -0.73,0.414 -0.925,0.501 -1.139,0.577 -1.372,0.643 -1.604,0.708 -1.837,0.74 -2.068,0.74 -2.374,0.74 -2.607,0.686 -2.771,0.577 -2.934,0.469 -3.015,0.309 -3.015,0.098 l 0.109,-0.327 0.31,-0.233 c 0.134,-0.069 0.301,-0.133 0.5,-0.191 0.2,-0.058 0.43,-0.124 0.692,-0.196 0.37,-0.102 0.704,-0.212 1.001,-0.332 0.298,-0.119 0.551,-0.268 0.762,-0.446 0.21,-0.178 0.372,-0.394 0.484,-0.648 0.113,-0.254 0.169,-0.559 0.169,-0.914 0,-0.435 -0.082,-0.803 -0.245,-1.104 -0.163,-0.302 -0.38,-0.545 -0.647,-0.73 -0.269,-0.185 -0.579,-0.319 -0.931,-0.403 -0.352,-0.084 -0.713,-0.125 -1.083,-0.125 -0.283,0 -0.571,0.022 -0.866,0.066 -0.294,0.043 -0.582,0.106 -0.865,0.19 -0.283,0.083 -0.558,0.183 -0.827,0.299 -0.269,0.116 -0.516,0.251 -0.741,0.403 l 0.785,1.557 0.293,-0.207 c 0.159,-0.103 0.356,-0.204 0.588,-0.305 0.232,-0.102 0.493,-0.193 0.784,-0.272 0.29,-0.08 0.584,-0.12 0.881,-0.12 0.632,0 0.947,0.193 0.947,0.577 l -0.141,0.359 -0.392,0.255 c -0.167,0.077 -0.363,0.148 -0.588,0.213 -0.225,0.066 -0.471,0.138 -0.74,0.218 -0.355,0.109 -0.664,0.227 -0.925,0.354 -0.261,0.126 -0.479,0.274 -0.653,0.44 -0.174,0.167 -0.303,0.36 -0.386,0.577 -0.084,0.218 -0.126,0.471 -0.126,0.762 0,0.407 0.077,0.765 0.229,1.077 0.152,0.312 0.359,0.575 0.62,0.79 0.261,0.214 0.564,0.376 0.909,0.484 0.345,0.109 0.71,0.163 1.094,0.163 0.276,0 0.545,-0.025 0.806,-0.075 0.261,-0.052 0.51,-0.117 0.745,-0.196 C -0.228,1.977 -0.004,1.886 0.206,1.785 0.417,1.684 0.605,1.582 0.772,1.481 Z"
         style="fill:#7c7b7b;fill-opacity:1;fill-rule:nonzero;stroke:none"
         id="path444"
         transform="translate(581.5617,283.8814)"
         clip-path="url(#clipPath1759)" />
      <path
         d="M 0,0 C 0,0.464 0.084,0.927 0.251,1.388 0.418,1.848 0.661,2.26 0.98,2.623 1.299,2.986 1.689,3.28 2.15,3.505 2.611,3.73 3.135,3.842 3.723,3.842 4.412,3.842 5.011,3.686 5.519,3.374 6.027,3.062 6.404,2.656 6.651,2.155 L 5.28,1.198 C 5.199,1.4 5.098,1.569 4.975,1.704 L 4.572,2.03 4.12,2.204 3.679,2.253 C 3.36,2.253 3.084,2.184 2.853,2.046 2.619,1.908 2.428,1.731 2.276,1.513 2.123,1.295 2.008,1.048 1.933,0.773 1.856,0.497 1.818,0.218 1.818,-0.065 c 0,-0.305 0.046,-0.599 0.136,-0.882 0.091,-0.283 0.218,-0.533 0.381,-0.751 0.163,-0.217 0.361,-0.39 0.593,-0.517 0.233,-0.127 0.49,-0.19 0.773,-0.19 l 0.452,0.059 0.451,0.186 0.393,0.326 c 0.115,0.134 0.21,0.3 0.283,0.495 L 6.749,-2.198 C 6.633,-2.482 6.464,-2.736 6.243,-2.961 6.021,-3.186 5.77,-3.374 5.486,-3.526 5.203,-3.679 4.904,-3.795 4.588,-3.875 4.272,-3.955 3.963,-3.994 3.657,-3.994 3.121,-3.994 2.629,-3.88 2.183,-3.652 1.736,-3.423 1.352,-3.121 1.029,-2.743 0.706,-2.366 0.453,-1.937 0.273,-1.459 0.091,-0.98 0,-0.494 0,0"
         style="fill:#7c7b7b;fill-opacity:1;fill-rule:nonzero;stroke:none"
         id="path448"
         transform="translate(583.1716,282.347)"
         clip-path="url(#clipPath1765)" />
      <path
         d="m 0,0 c -0.551,0 -1.052,0.112 -1.502,0.337 -0.45,0.225 -0.836,0.52 -1.159,0.887 -0.324,0.366 -0.573,0.785 -0.751,1.258 -0.178,0.47 -0.267,0.957 -0.267,1.457 0,0.508 0.092,0.998 0.278,1.47 0.185,0.471 0.442,0.888 0.772,1.247 0.33,0.358 0.722,0.645 1.176,0.859 0.453,0.214 0.949,0.321 1.486,0.321 0.55,0 1.052,-0.112 1.501,-0.337 C 1.984,7.274 2.371,6.977 2.694,6.606 3.016,6.236 3.265,5.815 3.439,5.344 3.613,4.872 3.7,4.393 3.7,3.907 3.7,3.399 3.607,2.909 3.423,2.438 3.238,1.966 2.983,1.551 2.656,1.191 2.33,0.832 1.939,0.543 1.486,0.326 1.032,0.108 0.537,0 0,0 m -1.862,3.917 c 0,-0.297 0.042,-0.585 0.126,-0.864 0.083,-0.28 0.203,-0.528 0.359,-0.747 0.156,-0.217 0.352,-0.391 0.588,-0.522 0.235,-0.13 0.506,-0.195 0.811,-0.195 0.312,0 0.584,0.069 0.816,0.207 C 1.07,1.933 1.264,2.113 1.421,2.334 1.577,2.555 1.692,2.806 1.769,3.085 1.844,3.365 1.883,3.65 1.883,3.939 1.883,4.237 1.84,4.526 1.757,4.805 1.674,5.085 1.553,5.331 1.393,5.545 1.233,5.759 1.038,5.929 0.805,6.057 0.573,6.184 0.308,6.247 0.011,6.247 -0.301,6.247 -0.573,6.18 -0.805,6.046 -1.038,5.911 -1.232,5.735 -1.388,5.518 -1.544,5.3 -1.662,5.051 -1.741,4.773 -1.821,4.493 -1.862,4.208 -1.862,3.917"
         style="fill:#7c7b7b;fill-opacity:1;fill-rule:nonzero;stroke:none"
         id="path452"
         transform="translate(593.9914,278.3528)"
         clip-path="url(#clipPath1773)" />
      <path
         d="m 598.7365,278.4179 v 7.728 h 3.483 c 0.363,0 0.698,-0.077 1.007,-0.229 0.308,-0.152 0.575,-0.352 0.8,-0.599 0.225,-0.246 0.401,-0.526 0.528,-0.838 0.126,-0.312 0.191,-0.627 0.191,-0.947 0,-0.239 -0.03,-0.47 -0.087,-0.691 -0.059,-0.221 -0.142,-0.43 -0.251,-0.626 -0.109,-0.195 -0.241,-0.371 -0.397,-0.527 -0.156,-0.157 -0.332,-0.289 -0.528,-0.398 l 1.774,-2.873 h -2.013 l -1.557,2.492 h -1.164 v -2.492 z m 1.786,4.049 h 1.632 c 0.21,0 0.392,0.099 0.544,0.299 0.153,0.2 0.229,0.455 0.229,0.767 0,0.32 -0.087,0.573 -0.261,0.763 -0.175,0.188 -0.364,0.282 -0.566,0.282 h -1.578 z"
         style="fill:#7c7b7b;fill-opacity:1;fill-rule:nonzero;stroke:none"
         id="path456" />
      <path
         d="m 611.5698,279.9849 v -1.567 h -5.432 v 7.728 h 5.333 v -1.568 h -3.548 v -1.502 h 3.048 v -1.447 h -3.048 v -1.644 z"
         style="fill:#7c7b7b;fill-opacity:1;fill-rule:nonzero;stroke:none"
         id="path460" />
      <path
         d="m 540.0144,253.2159 2.2,5.756 2.114,-5.756 z m 3.246,9.503 h -1.939 l -5.99,-14.443 h 2.81 l 1.045,2.763 h 5.947 l 1.024,-2.763 h 3.071 z"
         style="fill:#74ab7e;fill-opacity:1;fill-rule:nonzero;stroke:none"
         id="path464" />
      <path
         d="m 0,0 c -7.507,0 -13.614,5.649 -13.614,12.592 v 20.063 c 0,6.944 6.107,12.593 13.614,12.593 h 1.413 c 7.507,0 13.614,-5.649 13.614,-12.593 V 12.592 C 15.027,5.649 8.92,0 1.413,0 Z"
         style="fill:#ffffff;fill-opacity:1;fill-rule:nonzero;stroke:none"
         id="path476"
         transform="translate(563.4639,232.8996)"
         clip-path="url(#clipPath1779)" />
      <path
         d="m 0,0 h -1.413 c -6.209,0 -11.241,4.575 -11.241,10.219 v 20.063 c 0,5.644 5.032,10.219 11.241,10.219 H 0 c 6.208,0 11.241,-4.575 11.241,-10.219 V 10.219 C 11.241,4.575 6.208,0 0,0"
         style="fill:#87bd25;fill-opacity:1;fill-rule:nonzero;stroke:none"
         id="path480"
         transform="translate(564.8766,235.2731)"
         clip-path="url(#clipPath1785)" />
      <path
         d="m 558.2921,246.6677 v 19.256 h 5.929 c 4.565,0 6.507,-2.4 6.507,-5.47 0,-1.674 -0.814,-3.097 -2.073,-3.739 1.758,-0.586 3.069,-2.093 3.069,-4.131 0,-3.543 -2.23,-5.916 -6.9,-5.916 z m 4.591,11.415 h 0.866 c 1.311,0 2.256,0.53 2.256,2.009 0,1.479 -0.945,1.898 -2.256,1.898 h -0.866 z m 0,-3.601 v -3.879 h 1.732 c 1.338,0 2.386,0.531 2.386,1.981 0,1.424 -1.153,1.898 -2.622,1.898 z"
         style="fill:#ffffff;fill-opacity:1;fill-rule:nonzero;stroke:none"
         id="path484" />
    </g>
  </g>
</svg>
