<?xml version="1.0" encoding="UTF-8" standalone="no"?>
<!-- Created with Inkscape (http://www.inkscape.org/) -->

<svg
   xmlns:dc="http://purl.org/dc/elements/1.1/"
   xmlns:cc="http://creativecommons.org/ns#"
   xmlns:rdf="http://www.w3.org/1999/02/22-rdf-syntax-ns#"
   xmlns:svg="http://www.w3.org/2000/svg"
   xmlns="http://www.w3.org/2000/svg"
   xmlns:sodipodi="http://sodipodi.sourceforge.net/DTD/sodipodi-0.dtd"
   xmlns:inkscape="http://www.inkscape.org/namespaces/inkscape"
   width="240"
   height="130"
   viewBox="0 0 744.09449 1052.3622"
   id="svg4443"
   version="1.1"
   inkscape:version="0.92.3 (2405546, 2018-03-11)"
   sodipodi:docname="nutriscore-a.svg">
  <defs
     id="defs4445" />
  <sodipodi:namedview
     id="base"
     pagecolor="#ffffff"
     bordercolor="#666666"
     borderopacity="1.0"
     inkscape:pageopacity="0.0"
     inkscape:pageshadow="2"
     inkscape:zoom="1.979899"
     inkscape:cx="42.248478"
     inkscape:cy="35.126775"
     inkscape:document-units="px"
     inkscape:current-layer="layer1"
     showgrid="false"
     inkscape:window-width="1920"
     inkscape:window-height="1017"
     inkscape:window-x="-8"
     inkscape:window-y="-8"
     inkscape:window-maximized="1" />
  <metadata
     id="metadata4448">
    <rdf:RDF>
      <cc:Work
         rdf:about="">
        <dc:format>image/svg+xml</dc:format>
        <dc:type
           rdf:resource="http://purl.org/dc/dcmitype/StillImage" />
        <dc:title />
      </cc:Work>
    </rdf:RDF>
  </metadata>
  <g
     inkscape:label="Calque 1"
     inkscape:groupmode="layer"
     id="layer1">
    <path
       style="opacity:1;fill:#ffffff;fill-opacity:1;fill-rule:evenodd;stroke:none;stroke-width:1;stroke-linecap:round;stroke-linejoin:round;stroke-miterlimit:4;stroke-dasharray:none;stroke-dashoffset:0;stroke-opacity:1"
       d="m -419.31455,2.5984161e-7 1582.72375,0 C 1263.157,2.5984161e-7 1343.4585,80.302045 1343.4585,180.04942 l 0,632.48114 c 0,99.7474 -80.3015,180.04944 -180.0493,180.04944 l -1582.72375,0 c -99.7474,0 -180.04943,-80.30204 -180.04943,-180.04944 l 0,-632.48114 C -599.36398,80.302045 -519.06195,2.5984161e-7 -419.31455,2.5984161e-7 Z"
       id="rect5139"
       inkscape:connector-curvature="0" />
    <path
       style="opacity:1;fill:#e63e11;fill-opacity:1;fill-rule:evenodd;stroke:none;stroke-width:1;stroke-linecap:round;stroke-linejoin:round;stroke-miterlimit:4;stroke-dasharray:none;stroke-dashoffset:0;stroke-opacity:1"
       d="m 748.69832,357.79054 363.02978,0 0,586.3148 -363.02978,0 z"
       id="rect5141"
       inkscape:connector-curvature="0" />
    <path
       style="opacity:1;fill:#038141;fill-opacity:1;fill-rule:evenodd;stroke:none;stroke-width:1;stroke-linecap:round;stroke-linejoin:round;stroke-miterlimit:4;stroke-dasharray:none;stroke-dashoffset:0;stroke-opacity:1"
       d="m -308.51489,357.79054 363.029991,0 0,586.3148 -363.029991,0 z"
       id="rect5143"
       inkscape:connector-curvature="0" />
    <path
       style="opacity:1;fill:#038141;fill-opacity:1;fill-rule:evenodd;stroke:none;stroke-width:1;stroke-linecap:round;stroke-linejoin:round;stroke-miterlimit:4;stroke-dasharray:none;stroke-dashoffset:0;stroke-opacity:1"
       d="m -382.38111,357.79054 90.64758,0 c 75.44988,0 136.19121,60.74128 136.19121,136.19122 l 0,313.93237 c 0,75.44988 -60.74133,136.19121 -136.19121,136.19121 l -90.64758,0 c -75.44997,0 -136.1912,-60.74133 -136.1912,-136.19121 l 0,-313.93237 c 0,-75.44994 60.74123,-136.19122 136.1912,-136.19122 z"
       id="rect5145"
       inkscape:connector-curvature="0" />
    <path
       inkscape:connector-curvature="0"
       id="path5635"
       style="font-style:normal;font-variant:normal;font-weight:800;font-stretch:normal;font-size:medium;line-height:89.99999762%;font-family:Raleway;-inkscape-font-specification:'Raleway Ultra-Bold';letter-spacing:0px;word-spacing:0px;fill:#ffffff;fill-opacity:0.44606413;stroke:none;stroke-width:1px;stroke-linecap:butt;stroke-linejoin:miter;stroke-opacity:1"
       d="m -384.71221,514.00202 55.40668,0 96.96168,265.80222 -62.89409,0 -20.59031,-59.52472 -82.73563,0 -20.21593,59.52472 -62.89399,0 96.96159,-265.80222 z m 58.77605,163.97382 -31.07271,-93.9667 -31.82138,93.9667 62.89409,0 z" />
    <path
       style="opacity:1;fill:#e63e11;fill-opacity:1;fill-rule:evenodd;stroke:none;stroke-width:1;stroke-linecap:round;stroke-linejoin:round;stroke-miterlimit:4;stroke-dasharray:none;stroke-dashoffset:0;stroke-opacity:1"
       d="m 1069.5561,357.79054 90.647,0 c 75.4498,0 136.1917,60.74128 136.1917,136.19122 l 0,313.93237 c 0,75.44988 -60.7419,136.19121 -136.1917,136.19121 l -90.647,0 c -75.44992,0 -136.19182,-60.74133 -136.19182,-136.19121 l 0,-313.93237 c 0,-75.44994 60.7419,-136.19122 136.19182,-136.19122 z"
       id="rect5151"
       inkscape:connector-curvature="0" />
    <path
       inkscape:connector-curvature="0"
       id="path5631"
       style="font-style:normal;font-variant:normal;font-weight:800;font-stretch:normal;font-size:medium;line-height:89.99999762%;font-family:Raleway;-inkscape-font-specification:'Raleway Ultra-Bold';letter-spacing:0px;word-spacing:0px;fill:#ffffff;fill-opacity:0.44606413;stroke:none;stroke-width:1px;stroke-linecap:butt;stroke-linejoin:miter;stroke-opacity:1"
       d="m 1208.2849,725.89511 v 53.90913 H 1021.4741 V 514.00202 h 183.441 v 53.90923 h -122.0443 v 51.66293 h 104.8239 v 49.79119 h -104.8239 v 56.52974 z" />
    <path
       inkscape:connector-curvature="0"
       id="path5608"
       style="font-style:normal;font-variant:normal;font-weight:800;font-stretch:normal;font-size:medium;line-height:89.99999762%;font-family:Raleway;-inkscape-font-specification:'Raleway Ultra-Bold';letter-spacing:0px;word-spacing:0px;fill:#7d7d7d;fill-opacity:1;stroke:none;stroke-width:1px;stroke-linecap:butt;stroke-linejoin:miter;stroke-opacity:1"
       d="m -443.3889,163.1475 0,76.82604 -31.03322,0 0,-134.35096 24.22101,0 62.6341,78.90753 0,-78.90753 31.03312,0 0,134.35096 -24.97787,0 -61.87714,-76.82604 z" />
    <path
       inkscape:connector-curvature="0"
       id="path5610"
       style="font-style:normal;font-variant:normal;font-weight:800;font-stretch:normal;font-size:medium;line-height:89.99999762%;font-family:Raleway;-inkscape-font-specification:'Raleway Ultra-Bold';letter-spacing:0px;word-spacing:0px;fill:#7d7d7d;fill-opacity:1;stroke:none;stroke-width:1px;stroke-linecap:butt;stroke-linejoin:miter;stroke-opacity:1"
       d="m -272.94005,213.48179 q 7.94754,0 13.43512,-3.21684 5.48759,-3.40608 8.89369,-8.89366 3.4061,-5.48757 4.73063,-12.48896 1.51381,-7.19062 1.51381,-14.57046 l 0,-68.68929 31.03322,0 0,68.68929 q 0,14.00278 -3.5953,26.11329 -3.4061,12.11051 -10.78597,21.19339 -7.19059,9.08287 -18.54424,14.38123 -11.16435,5.10912 -26.68096,5.10912 -16.08428,0 -27.43783,-5.48758 -11.35364,-5.48757 -18.54423,-14.57045 -7.0014,-9.27211 -10.4075,-21.38262 -3.21682,-12.11051 -3.21682,-25.35638 l 0,-68.68929 31.03322,0 0,68.68929 q 0,7.7583 1.51381,14.75969 1.51381,7.00139 4.91982,12.48896 3.4061,5.48757 8.7045,8.70443 5.48758,3.21684 13.43503,3.21684 z" />
    <path
       inkscape:connector-curvature="0"
       id="path5612"
       style="font-style:normal;font-variant:normal;font-weight:800;font-stretch:normal;font-size:medium;line-height:89.99999762%;font-family:Raleway;-inkscape-font-specification:'Raleway Ultra-Bold';letter-spacing:0px;word-spacing:0px;fill:#7d7d7d;fill-opacity:1;stroke:none;stroke-width:1px;stroke-linecap:butt;stroke-linejoin:miter;stroke-opacity:1"
       d="m -87.101641,132.87122 -40.872949,0 0,107.10232 -31.03322,0 0,-107.10232 -41.06214,0 0,-27.24864 112.968309,0 0,27.24864 z" />
    <path
       inkscape:connector-curvature="0"
       id="path5614"
       style="font-style:normal;font-variant:normal;font-weight:800;font-stretch:normal;font-size:medium;line-height:89.99999762%;font-family:Raleway;-inkscape-font-specification:'Raleway Ultra-Bold';letter-spacing:0px;word-spacing:0px;fill:#7d7d7d;fill-opacity:1;stroke:none;stroke-width:1px;stroke-linecap:butt;stroke-linejoin:miter;stroke-opacity:1"
       d="m -71.945716,239.97354 0,-134.35096 60.552519,0 q 9.4613553,0 17.4088021,3.97376 8.1368279,3.97376 14.0027939,10.40747 5.866061,6.43371 9.082878,14.57045 3.406103,8.13675 3.406103,16.46273 0,6.24448 -1.513813,12.11051 -1.513813,5.67679 -4.352248,10.78592 -2.83834,5.10911 -7.001397,9.27211 -3.973676,3.97376 -9.082878,6.81215 l 29.519401,49.95586 -35.0068898,0 -25.7349162,-43.33292 -20.247236,0 0,43.33292 -31.033119,0 z m 31.033119,-70.39234 28.384064,0 q 5.4874893,0 9.4612602,-5.10912 3.97377096,-5.29834 3.97377096,-13.43509 0,-8.32598 -4.54143896,-13.24587 -4.5414389,-4.9199 -9.8397372,-4.9199 l -27.437919,0 0,36.70998 z" />
    <path
       inkscape:connector-curvature="0"
       id="path5616"
       style="font-style:normal;font-variant:normal;font-weight:800;font-stretch:normal;font-size:medium;line-height:89.99999762%;font-family:Raleway;-inkscape-font-specification:'Raleway Ultra-Bold';letter-spacing:0px;word-spacing:0px;fill:#7d7d7d;fill-opacity:1;stroke:none;stroke-width:1px;stroke-linecap:butt;stroke-linejoin:miter;stroke-opacity:1"
       d="m 54.821346,239.97354 0,-134.35096 31.033214,0 0,134.35096 -31.033214,0 z" />
    <path
       inkscape:connector-curvature="0"
       id="path5618"
       style="font-style:normal;font-variant:normal;font-weight:800;font-stretch:normal;font-size:medium;line-height:89.99999762%;font-family:Raleway;-inkscape-font-specification:'Raleway Ultra-Bold';letter-spacing:0px;word-spacing:0px;fill:#7d7d7d;fill-opacity:1;stroke:none;stroke-width:1px;stroke-linecap:butt;stroke-linejoin:miter;stroke-opacity:1"
       d="m 109.08803,201.56052 0,-27.24865 58.28175,0 0,27.24865 -58.28175,0 z" />
    <path
       inkscape:connector-curvature="0"
       id="path5620"
       style="font-style:normal;font-variant:normal;font-weight:800;font-stretch:normal;font-size:medium;line-height:89.99999762%;font-family:Raleway;-inkscape-font-specification:'Raleway Ultra-Bold';letter-spacing:0px;word-spacing:0px;fill:#7d7d7d;fill-opacity:1;stroke:none;stroke-width:1px;stroke-linecap:butt;stroke-linejoin:miter;stroke-opacity:1"
       d="m 271.06906,144.98173 q -0.56814,-0.75695 -3.97377,-2.8384 -3.40611,-2.08149 -8.51521,-4.35221 -5.10911,-2.27072 -11.16436,-3.97376 -6.05525,-1.70305 -12.1105,-1.70305 -16.65195,0 -16.65195,11.16438 0,3.40609 1.70301,5.6768 1.89229,2.27072 5.29839,4.16299 3.59529,1.70304 8.89359,3.21685 5.29839,1.51381 12.29979,3.40608 9.65055,2.64918 17.4088,5.86604 7.75835,3.02762 13.05665,7.75829 5.48759,4.54144 8.32602,11.16437 3.02763,6.62294 3.02763,15.89505 0,11.3536 -4.35225,19.30112 -4.16296,7.7583 -11.16436,12.67819 -7.0014,4.73066 -16.08427,7.00138 -9.08288,2.0815 -18.73343,2.0815 -7.37987,0 -15.13813,-1.13536 -7.75835,-1.13536 -15.13813,-3.21686 -7.37987,-2.27072 -14.38127,-5.29834 -6.81211,-3.02763 -12.67817,-7.00139 l 13.62432,-27.05942 q 0.75657,0.94614 4.91991,3.59531 4.16296,2.64918 10.21822,5.29835 6.24444,2.64917 13.8135,4.73066 7.56907,2.08149 15.32742,2.08149 16.46275,0 16.46275,-10.02901 0,-3.78453 -2.45996,-6.24448 -2.45995,-2.45995 -6.8122,-4.35221 -4.35216,-2.0815 -10.4075,-3.78453 -5.86597,-1.70304 -12.86737,-3.78454 -9.27206,-2.8384 -16.08427,-6.05526 -6.81221,-3.40608 -11.35365,-7.75829 -4.35215,-4.35221 -6.62291,-10.02901 -2.08149,-5.67681 -2.08149,-13.24587 0,-10.5967 3.97378,-18.73344 3.97377,-8.13676 10.78588,-13.62433 6.8122,-5.6768 15.70589,-8.5152 9.08288,-2.8384 19.1119,-2.8384 7.0014,0 13.81351,1.32459 6.8122,1.32458 13.05665,3.40607 6.24444,2.0815 11.54283,4.73067 5.48759,2.64918 10.02903,5.29835 l -13.62432,25.73483 z" />
    <path
       inkscape:connector-curvature="0"
       id="path5622"
       style="font-style:normal;font-variant:normal;font-weight:800;font-stretch:normal;font-size:medium;line-height:89.99999762%;font-family:Raleway;-inkscape-font-specification:'Raleway Ultra-Bold';letter-spacing:0px;word-spacing:0px;fill:#7d7d7d;fill-opacity:1;stroke:none;stroke-width:1px;stroke-linecap:butt;stroke-linejoin:miter;stroke-opacity:1"
       d="m 299.1189,171.6627 q 0,-12.11051 4.54144,-24.0318 4.54144,-12.1105 13.24593,-21.57184 8.7044,-9.46133 21.19338,-15.32736 12.48889,-5.86603 28.38397,-5.86603 18.92271,0 32.73622,8.13675 14.0028,8.13674 20.81491,21.19339 l -23.84253,16.65195 q -2.27068,-5.29835 -5.86607,-8.70443 -3.406,-3.59531 -7.56906,-5.6768 -4.16296,-2.27072 -8.51521,-3.02762 -4.35215,-0.94615 -8.51512,-0.94615 -8.89368,0 -15.5166,3.59531 -6.62292,3.59531 -10.97517,9.2721 -4.35225,5.67681 -6.43373,12.86742 -2.08148,7.19062 -2.08148,14.57045 0,7.94753 2.45996,15.32737 2.45996,7.37984 7.0014,13.05664 4.73063,5.67681 11.16435,9.08289 6.62292,3.21684 14.75966,3.21684 4.16305,0 8.51521,-0.94614 4.54144,-1.13536 8.51521,-3.21686 4.16296,-2.27071 7.56906,-5.6768 3.4061,-3.5953 5.48759,-8.70443 l 25.35634,14.94891 q -3.02763,7.37985 -9.08288,13.24587 -5.86596,5.86603 -13.62432,9.83979 -7.75825,3.97376 -16.46265,6.05526 -8.7045,2.08149 -17.03042,2.08149 -14.57046,0 -26.87025,-5.86603 -12.11051,-6.05526 -21.0041,-15.89504 -8.7045,-9.83979 -13.62432,-22.32876 -4.73072,-12.48896 -4.73072,-25.35637 z" />
    <path
       inkscape:connector-curvature="0"
       id="path5624"
       style="font-style:normal;font-variant:normal;font-weight:800;font-stretch:normal;font-size:medium;line-height:89.99999762%;font-family:Raleway;-inkscape-font-specification:'Raleway Ultra-Bold';letter-spacing:0px;word-spacing:0px;fill:#7d7d7d;fill-opacity:1;stroke:none;stroke-width:1px;stroke-linecap:butt;stroke-linejoin:miter;stroke-opacity:1"
       d="m 494.34177,241.1089 q -14.94894,0 -27.24873,-5.86603 -12.29969,-5.86603 -21.00409,-15.32737 -8.7045,-9.65055 -13.62432,-21.95029 -4.73073,-12.29974 -4.73073,-25.35638 0,-13.24587 4.91992,-25.54561 5.10911,-12.29973 14.00279,-21.57184 9.08288,-9.46133 21.38258,-14.94891 12.29979,-5.6768 26.87025,-5.6768 14.94884,0 27.24863,5.86603 12.2997,5.86603 21.0041,15.51659 8.70449,9.65056 13.43512,21.9503 4.73073,12.29973 4.73073,24.97792 0,13.24587 -5.1092,25.5456 -4.91983,12.29975 -13.81351,21.76108 -8.89369,9.27211 -21.19338,14.9489 -12.29979,5.67681 -26.87016,5.67681 z m -35.00699,-68.12162 q 0,7.7583 2.27068,15.13814 2.27076,7.19062 6.62301,12.86741 4.54144,5.67681 11.16436,9.08289 6.62292,3.40607 15.13813,3.40607 8.89369,0 15.51661,-3.5953 6.62292,-3.5953 10.97516,-9.27211 4.35216,-5.86603 6.43364,-13.05664 2.27077,-7.37984 2.27077,-14.94891 0,-7.7583 -2.27077,-14.94891 -2.27067,-7.37984 -6.81211,-12.86742 -4.54144,-5.6768 -11.16436,-8.89365 -6.43373,-3.40608 -14.94894,-3.40608 -8.89369,0 -15.51661,3.59531 -6.43373,3.40608 -10.97516,9.08288 -4.35216,5.6768 -6.62292,13.05664 -2.08149,7.19062 -2.08149,14.75968 z" />
    <path
       inkscape:connector-curvature="0"
       id="path5626"
       style="font-style:normal;font-variant:normal;font-weight:800;font-stretch:normal;font-size:medium;line-height:89.99999762%;font-family:Raleway;-inkscape-font-specification:'Raleway Ultra-Bold';letter-spacing:0px;word-spacing:0px;fill:#7d7d7d;fill-opacity:1;stroke:none;stroke-width:1px;stroke-linecap:butt;stroke-linejoin:miter;stroke-opacity:1"
       d="m 579.26023,239.97354 0,-134.35096 60.55252,0 q 9.46136,0 17.4089,3.97376 8.13673,3.97376 14.00279,10.40747 5.86597,6.43371 9.08288,14.57045 3.40601,8.13675 3.40601,16.46273 0,6.24448 -1.51381,12.11051 -1.51382,5.67679 -4.35216,10.78592 -2.83843,5.10911 -7.00139,9.27211 -3.97377,3.97376 -9.08288,6.81215 l 29.5193,49.95586 -35.00688,0 -25.73483,-43.33292 -20.24733,0 0,43.33292 -31.03312,0 z m 31.03312,-70.39234 28.38407,0 q 5.48758,0 9.46135,-5.10912 3.97377,-5.29834 3.97377,-13.43509 0,-8.32598 -4.54144,-13.24587 -4.54143,-4.9199 -9.83983,-4.9199 l -27.43792,0 0,36.70998 z" />
    <path
       inkscape:connector-curvature="0"
       id="path5628"
       style="font-style:normal;font-variant:normal;font-weight:800;font-stretch:normal;font-size:medium;line-height:89.99999762%;font-family:Raleway;-inkscape-font-specification:'Raleway Ultra-Bold';letter-spacing:0px;word-spacing:0px;fill:#7d7d7d;fill-opacity:1;stroke:none;stroke-width:1px;stroke-linecap:butt;stroke-linejoin:miter;stroke-opacity:1"
       d="m 800.45146,212.72489 0,27.24865 -94.42416,0 0,-134.35096 92.72107,0 0,27.24864 -61.68786,0 0,26.11329 52.98345,0 0,25.16715 -52.98345,0 0,28.57323 63.39095,0 z" />
    <path
       style="opacity:1;fill:#ee8100;fill-opacity:1;fill-rule:evenodd;stroke:none;stroke-width:1;stroke-linecap:round;stroke-linejoin:round;stroke-miterlimit:4;stroke-dasharray:none;stroke-dashoffset:0;stroke-opacity:1"
       d="m -143.28231,357.79054 363.03009,0 0,586.3148 -363.03009,0 z"
       id="rect5209"
       inkscape:connector-curvature="0" />
    <path
       style="opacity:1;fill:#ee8100;fill-opacity:1;fill-rule:evenodd;stroke:none;stroke-width:1;stroke-linecap:round;stroke-linejoin:round;stroke-miterlimit:4;stroke-dasharray:none;stroke-dashoffset:0;stroke-opacity:1"
       d="m 570.95706,357.79054 363.02961,0 0,586.3148 -363.02961,0 z"
       id="rect5211"
       inkscape:connector-curvature="0" />
    <path
       inkscape:connector-curvature="0"
       id="path5552"
       style="font-style:normal;font-variant:normal;font-weight:800;font-stretch:normal;font-size:medium;line-height:89.99999762%;font-family:Raleway;-inkscape-font-specification:'Raleway Ultra-Bold';letter-spacing:0px;word-spacing:0px;fill:#ffffff;fill-opacity:0.44606413;stroke:none;stroke-width:1px;stroke-linecap:butt;stroke-linejoin:miter;stroke-opacity:1"
       d="M 636.60436,779.80424 V 514.00202 h 99.2079 q 32.94454,0 57.65289,10.4824 24.70836,10.4823 41.18063,28.45201 16.84627,17.96981 25.08293,42.30378 8.61066,23.95958 8.61066,51.28863 0,30.32384 -9.35962,55.0323 -9.35962,24.33397 -26.95457,41.92929 -17.22094,17.22104 -41.92939,26.95467 -24.33397,9.35914 -54.28353,9.35914 z m 169.21502,-133.2754 q 0,-17.59542 -4.86681,-31.82148 -4.49243,-14.60034 -13.47729,-25.08274 -8.98485,-10.4823 -22.08785,-16.09788 -13.1029,-5.61549 -29.57517,-5.61549 h -37.81125 v 157.98386 h 37.81125 q 16.84666,0 29.94956,-5.98988 13.1029,-5.98997 21.71346,-16.47227 8.98486,-10.85678 13.47729,-25.08274 4.86681,-14.60043 4.86681,-31.82138 z" />
    <path
       style="opacity:1;fill:#fecb02;fill-opacity:1;fill-rule:evenodd;stroke:none;stroke-width:1;stroke-linecap:round;stroke-linejoin:round;stroke-miterlimit:4;stroke-dasharray:none;stroke-dashoffset:0;stroke-opacity:1"
       d="m 188.25939,357.79054 383.32091,0 0,586.3148 -383.32091,0 z"
       id="rect5217"
       inkscape:connector-curvature="0" />
    <path
       style="opacity:1;fill:#85bb2f;fill-opacity:1;fill-rule:evenodd;stroke:none;stroke-width:1;stroke-linecap:round;stroke-linejoin:round;stroke-miterlimit:4;stroke-dasharray:none;stroke-dashoffset:0;stroke-opacity:1"
       d="m 206.86519,357.79054 -363.03009,0 0,586.3148 363.03009,0 z"
       id="rect5219"
       inkscape:connector-curvature="0" />
    <path
       inkscape:connector-curvature="0"
       id="path5547"
       style="font-style:normal;font-variant:normal;font-weight:800;font-stretch:normal;font-size:medium;line-height:89.99999762%;font-family:Raleway;-inkscape-font-specification:'Raleway Ultra-Bold';letter-spacing:0px;word-spacing:0px;fill:#ffffff;fill-opacity:0.44606413;stroke:none;stroke-width:1px;stroke-linecap:butt;stroke-linejoin:miter;stroke-opacity:1"
       d="m 258.81133,642.4108 q 0,-23.95959 8.98486,-47.54488 8.98495,-23.95968 26.20589,-42.67817 17.22104,-18.71838 41.9294,-30.32384 24.70835,-11.60545 56.15535,-11.60545 37.43696,0 64.76592,16.09788 27.70334,16.09788 41.18062,41.9293 l -47.17049,32.94454 q -4.49243,-10.48231 -11.60546,-17.22095 -6.73864,-7.11302 -14.97482,-11.23116 -8.23609,-4.49243 -16.84656,-5.98988 -8.61057,-1.87183 -16.84666,-1.87183 -17.59532,0 -30.69832,7.11303 -13.1029,7.11303 -21.71337,18.3441 -8.61047,11.23107 -12.72861,25.45712 -4.11804,14.22596 -4.11804,28.8264 0,15.7235 4.86681,30.32394 4.86681,14.60034 13.85167,25.83151 9.35924,11.23107 22.08776,17.96971 13.10299,6.36426 29.20087,6.36426 8.23609,0 16.84656,-1.87183 8.98486,-2.24621 16.84666,-6.36426 8.23608,-4.49242 14.97472,-11.23116 6.73865,-7.11293 10.85679,-17.22094 l 50.16548,29.57516 q -5.98997,14.60044 -17.96972,26.2059 -11.60545,11.60545 -26.95466,19.46716 -15.34912,7.86179 -32.57006,11.97984 -17.22104,4.11804 -33.69331,4.11804 -28.82639,0 -53.16046,-11.60546 -23.95958,-11.97984 -41.55491,-31.44699 -17.22104,-19.46726 -26.95467,-44.17561 -9.35924,-24.70836 -9.35924,-50.16548 z" />
    <path
       inkscape:connector-curvature="0"
       id="path5544"
       style="font-style:normal;font-variant:normal;font-weight:800;font-stretch:normal;font-size:medium;line-height:89.99999762%;font-family:Raleway;-inkscape-font-specification:'Raleway Ultra-Bold';letter-spacing:0px;word-spacing:0px;fill:#ffffff;fill-opacity:0.44606413;stroke:none;stroke-width:1px;stroke-linecap:butt;stroke-linejoin:miter;stroke-opacity:1"
       d="m 154.55238,711.66905 q 0,17.22104 -7.11303,29.94955 -7.11303,12.72861 -19.46725,21.33909 -12.35413,8.23608 -28.826401,12.72851 -16.472268,4.11804 -34.816366,4.11804 l -129.531838,0 0,-265.80222 147.875936,0 q 13.851669,0 25.082739,5.98997 11.23107,5.98987 19.09287,15.7235 7.8617,9.35924 11.97984,21.71337 4.49243,11.97984 4.49243,24.70845 0,19.09277 -9.73363,35.93942 -9.35924,16.84666 -28.45211,25.45713 22.83653,6.73864 35.93952,23.95958 13.47729,17.22104 13.47729,44.17561 z M 92.032672,699.31492 q 0,-12.35422 -7.113027,-20.9647 -7.113027,-8.61056 -17.969713,-8.61056 l -70.7557917,0 0,58.02727 68.1351927,0 q 11.97984,0 19.841542,-7.8617 7.861797,-7.86179 7.861797,-20.59031 z m -95.8385317,-132.90121 0,55.0323 60.2733957,0 q 10.108011,0 17.969808,-6.73865 7.861702,-6.73864 7.861702,-20.9646 0,-13.10299 -7.113027,-20.21602 -6.738643,-7.11303 -16.472269,-7.11303 l -62.5196097,0 z" />
    <path
       style="opacity:1;fill:#0039ff;fill-opacity:0.62973764;fill-rule:evenodd;stroke:#ffffff;stroke-width:61.03178787;stroke-linecap:round;stroke-linejoin:round;stroke-miterlimit:4;stroke-dasharray:none;stroke-dashoffset:0;stroke-opacity:1"
       d="m -372.64015,281.61584 39.3264,0 c 108.69904,0 196.20775,87.50863 196.20775,196.2077 l 0,343.94055 c 0,108.69904 -87.50871,196.20761 -196.20775,196.20761 l -39.3264,0 c -108.69905,0 -196.20766,-87.50857 -196.20766,-196.20761 l 0,-343.94055 c 0,-108.69907 87.50861,-196.2077 196.20766,-196.2077 z"
       id="rect5229"
       inkscape:connector-curvature="0" />
    <path
       style="opacity:1;fill:#038141;fill-opacity:1;fill-rule:evenodd;stroke:none;stroke-width:15.94488144;stroke-linecap:round;stroke-linejoin:round;stroke-miterlimit:4;stroke-dasharray:none;stroke-dashoffset:0;stroke-opacity:1"
       d="m -372.64015,281.61584 39.3264,0 c 108.69904,0 196.20775,87.50863 196.20775,196.2077 l 0,343.94055 c 0,108.69904 -87.50871,196.20761 -196.20775,196.20761 l -39.3264,0 c -108.69905,0 -196.20766,-87.50857 -196.20766,-196.20761 l 0,-343.94055 c 0,-108.69907 87.50861,-196.2077 196.20766,-196.2077 z"
       id="rect5231"
       inkscape:connector-curvature="0" />
    <path
       inkscape:connector-curvature="0"
       id="path5539"
       style="font-style:normal;font-variant:normal;font-weight:800;font-stretch:normal;font-size:medium;line-height:89.99999762%;font-family:Raleway;-inkscape-font-specification:'Raleway Ultra-Bold';letter-spacing:0px;word-spacing:0px;fill:#ffffff;fill-opacity:1;stroke:none;stroke-width:1px;stroke-linecap:butt;stroke-linejoin:miter;stroke-opacity:1"
       d="m -386.48059,481.75344 h 67.00727 l 117.26279,350.43804 h -76.06236 l -24.90135,-78.47846 h -100.05822 l -24.44864,78.47846 h -76.06219 z m 71.08202,216.18566 -37.57838,-123.88723 -38.48389,123.88723 z" />
  </g>
</svg>
