<?xml version="1.0" encoding="UTF-8" standalone="no"?>
<!-- Created with Inkscape (http://www.inkscape.org/) -->

<svg
   width="240"
   height="130"
   viewBox="0 0 240 130"
   version="1.1"
   id="svg2032"
   sodipodi:docname="nutriscore-e-new.svg"
   inkscape:version="1.2 (1:1.2+202205241504+da316b6974)"
   xmlns:inkscape="http://www.inkscape.org/namespaces/inkscape"
   xmlns:sodipodi="http://sodipodi.sourceforge.net/DTD/sodipodi-0.dtd"
   xmlns="http://www.w3.org/2000/svg"
   xmlns:svg="http://www.w3.org/2000/svg">
  <sodipodi:namedview
     id="namedview2034"
     pagecolor="#ffffff"
     bordercolor="#666666"
     borderopacity="1.0"
     inkscape:showpageshadow="2"
     inkscape:pageopacity="0.0"
     inkscape:pagecheckerboard="0"
     inkscape:deskcolor="#d1d1d1"
     inkscape:document-units="mm"
     showgrid="false"
     inkscape:zoom="0.914906"
     inkscape:cx="183.62542"
     inkscape:cy="37.708792"
     inkscape:window-width="1679"
     inkscape:window-height="1230"
     inkscape:window-x="536"
     inkscape:window-y="93"
     inkscape:window-maximized="0"
     inkscape:current-layer="g2493" />
  <defs
     id="defs2029">
    <clipPath
       clipPathUnits="userSpaceOnUse"
       id="clipPath1836">
      <path
         d="m -576.4059,-131.6834 h 841.89002 v 595.276 H -576.4059 Z"
         id="path1838"
         style="stroke-width:0.999998" />
    </clipPath>
    <clipPath
       clipPathUnits="userSpaceOnUse"
       id="clipPath1817">
      <path
         d="m -480.4445,-91.6168 h 841.89002 v 595.276 H -480.4445 Z"
         id="path1819"
         style="stroke-width:0.999998" />
    </clipPath>
    <clipPath
       clipPathUnits="userSpaceOnUse"
       id="clipPath1872">
      <path
         d="m -488.3129,-132.2371 h 841.89002 v 595.276 H -488.3129 Z"
         id="path1874"
         style="stroke-width:0.999998" />
    </clipPath>
    <clipPath
       clipPathUnits="userSpaceOnUse"
       id="clipPath1878">
      <path
         d="m -519.714,-136.1767 h 841.89002 v 595.276 H -519.714 Z"
         id="path1880"
         style="stroke-width:0.999998" />
    </clipPath>
    <clipPath
       clipPathUnits="userSpaceOnUse"
       id="clipPath1886">
      <path
         d="m -521.3248,-134.6422 h 841.89002 v 595.276 H -521.3248 Z"
         id="path1888"
         style="stroke-width:0.999998" />
    </clipPath>
    <clipPath
       clipPathUnits="userSpaceOnUse"
       id="clipPath1892">
      <path
         d="m -532.1437,-130.6481 h 841.89002 v 595.276 H -532.1437 Z"
         id="path1894"
         style="stroke-width:0.999998" />
    </clipPath>
    <clipPath
       clipPathUnits="userSpaceOnUse"
       id="clipPath1898">
      <path
         d="m -500.0202,-102.7485 h 841.89002 v 595.276 H -500.0202 Z"
         id="path1900"
         style="stroke-width:0.999998" />
    </clipPath>
    <clipPath
       clipPathUnits="userSpaceOnUse"
       id="clipPath1904">
      <path
         d="m -522.5496,-115.2242 h 841.89002 v 595.276 H -522.5496 Z"
         id="path1906"
         style="stroke-width:0.999998" />
    </clipPath>
    <clipPath
       clipPathUnits="userSpaceOnUse"
       id="clipPath1910">
      <path
         d="m -561.373,-85.1949 h 841.89002 v 595.276 H -561.373 Z"
         id="path1912"
         style="stroke-width:0.999998" />
    </clipPath>
    <clipPath
       clipPathUnits="userSpaceOnUse"
       id="clipPath1916">
      <path
         d="m -562.786,-87.5683 h 841.89002 v 595.276 H -562.786 Z"
         id="path1918"
         style="stroke-width:0.999998" />
    </clipPath>
    <clipPath
       clipPathUnits="userSpaceOnUse"
       id="clipPath1593">
      <path
         d="m -503.0564,-291.8091 h 841.89002 v 595.276 H -503.0564 Z"
         id="path1595"
         style="stroke-width:0.999998" />
    </clipPath>
    <clipPath
       clipPathUnits="userSpaceOnUse"
       id="clipPath1929">
      <path
         d="m -503.0554,-239.3216 h 841.89002 v 595.276 H -503.0554 Z"
         id="path1931"
         style="stroke-width:0.999998" />
    </clipPath>
    <clipPath
       clipPathUnits="userSpaceOnUse"
       id="clipPath1605">
      <path
         d="m -427.3825,-279.9418 h 841.89002 v 595.276 H -427.3825 Z"
         id="path1607"
         style="stroke-width:0.999998" />
    </clipPath>
    <clipPath
       clipPathUnits="userSpaceOnUse"
       id="clipPath1618">
      <path
         d="m -458.7846,-283.8814 h 841.89002 v 595.276 H -458.7846 Z"
         id="path1620"
         style="stroke-width:0.999998" />
    </clipPath>
    <clipPath
       clipPathUnits="userSpaceOnUse"
       id="clipPath1611">
      <path
         d="M -460.3945,-282.347 H 381.49552 V 312.929 H -460.3945 Z"
         id="path1613"
         style="stroke-width:0.999998" />
    </clipPath>
    <clipPath
       clipPathUnits="userSpaceOnUse"
       id="clipPath1599">
      <path
         d="m -471.2142,-278.3528 h 841.89002 v 595.276 H -471.2142 Z"
         id="path1601"
         style="stroke-width:0.999998" />
    </clipPath>
    <clipPath
       clipPathUnits="userSpaceOnUse"
       id="clipPath1624">
      <path
         d="m -441.0913,-250.4523 h 841.89002 v 595.276 H -441.0913 Z"
         id="path1626"
         style="stroke-width:0.999998" />
    </clipPath>
    <clipPath
       clipPathUnits="userSpaceOnUse"
       id="clipPath1630">
      <path
         d="m -461.6201,-262.9289 h 841.89002 v 595.276 H -461.6201 Z"
         id="path1632"
         style="stroke-width:0.999998" />
    </clipPath>
    <clipPath
       clipPathUnits="userSpaceOnUse"
       id="clipPath1636">
      <path
         d="m -478.6014,-250.4523 h 841.89002 v 595.276 H -478.6014 Z"
         id="path1638"
         style="stroke-width:0.999998" />
    </clipPath>
    <clipPath
       clipPathUnits="userSpaceOnUse"
       id="clipPath1642">
      <path
         d="m -420.708,-232.8996 h 841.89002 v 595.276 H -420.708 Z"
         id="path1644"
         style="stroke-width:0.999998" />
    </clipPath>
    <clipPath
       clipPathUnits="userSpaceOnUse"
       id="clipPath1922">
      <path
         d="m -422.121,-235.2731 h 841.89002 v 595.276 H -422.121 Z"
         id="path1924"
         style="stroke-width:0.999998" />
    </clipPath>
    <clipPath
       clipPathUnits="userSpaceOnUse"
       id="clipPath1866">
      <path
         d="m -625.8334,-291.8091 h 841.89002 v 595.276 H -625.8334 Z"
         id="path1868"
         style="stroke-width:0.999998" />
    </clipPath>
    <clipPath
       clipPathUnits="userSpaceOnUse"
       id="clipPath1717">
      <path
         d="m -625.8334,-239.3216 h 841.89002 v 595.276 H -625.8334 Z"
         id="path1719"
         style="stroke-width:0.999998" />
    </clipPath>
    <clipPath
       clipPathUnits="userSpaceOnUse"
       id="clipPath1729">
      <path
         d="m -542.2922,-239.3216 h 841.89002 v 595.276 H -542.2922 Z"
         id="path1731"
         style="stroke-width:0.999998" />
    </clipPath>
    <clipPath
       clipPathUnits="userSpaceOnUse"
       id="clipPath1735">
      <path
         d="m -586.4691,-262.9289 h 841.89002 v 595.276 H -586.4691 Z"
         id="path1737"
         style="stroke-width:0.999998" />
    </clipPath>
    <clipPath
       clipPathUnits="userSpaceOnUse"
       id="clipPath1741">
      <path
         d="m -601.3794,-250.4523 h 841.89002 v 595.276 H -601.3794 Z"
         id="path1743"
         style="stroke-width:0.999998" />
    </clipPath>
    <clipPath
       clipPathUnits="userSpaceOnUse"
       id="clipPath1747">
      <path
         d="m -550.1606,-279.9418 h 841.89002 v 595.276 H -550.1606 Z"
         id="path1749"
         style="stroke-width:0.999998" />
    </clipPath>
    <clipPath
       clipPathUnits="userSpaceOnUse"
       id="clipPath1759">
      <path
         d="m -581.5617,-283.8814 h 841.89002 v 595.276 H -581.5617 Z"
         id="path1761"
         style="stroke-width:0.999998" />
    </clipPath>
    <clipPath
       clipPathUnits="userSpaceOnUse"
       id="clipPath1765">
      <path
         d="M -583.1716,-282.347 H 258.71842 V 312.929 H -583.1716 Z"
         id="path1767"
         style="stroke-width:0.999998" />
    </clipPath>
    <clipPath
       clipPathUnits="userSpaceOnUse"
       id="clipPath1773">
      <path
         d="m -593.9914,-278.3528 h 841.89002 v 595.276 H -593.9914 Z"
         id="path1775"
         style="stroke-width:0.999998" />
    </clipPath>
    <clipPath
       clipPathUnits="userSpaceOnUse"
       id="clipPath1779">
      <path
         d="m -563.4639,-232.8996 h 841.89002 v 595.276 H -563.4639 Z"
         id="path1781"
         style="stroke-width:0.999998" />
    </clipPath>
    <clipPath
       clipPathUnits="userSpaceOnUse"
       id="clipPath1785">
      <path
         d="m -564.8766,-235.2731 h 841.89002 v 595.276 H -564.8766 Z"
         id="path1787"
         style="stroke-width:0.999998" />
    </clipPath>
    <clipPath
       clipPathUnits="userSpaceOnUse"
       id="clipPath1792">
      <path
         d="m -503.0552,-216.3924 h 841.89002 v 595.276 H -503.0552 Z"
         id="path1794"
         style="stroke-width:0.999998" />
    </clipPath>
    <clipPath
       clipPathUnits="userSpaceOnUse"
       id="clipPath1753">
      <path
         d="m -503.0552,-163.9048 h 841.89002 v 595.276 H -503.0552 Z"
         id="path1755"
         style="stroke-width:0.999998" />
    </clipPath>
    <clipPath
       clipPathUnits="userSpaceOnUse"
       id="clipPath1723">
      <path
         d="m -419.5139,-163.9048 h 841.89002 v 595.276 H -419.5139 Z"
         id="path1725"
         style="stroke-width:0.999998" />
    </clipPath>
    <clipPath
       clipPathUnits="userSpaceOnUse"
       id="clipPath1798">
      <path
         d="M -427.3824,-204.525 H 414.50762 V 390.751 H -427.3824 Z"
         id="path1800"
         style="stroke-width:0.999998" />
    </clipPath>
    <clipPath
       clipPathUnits="userSpaceOnUse"
       id="clipPath1804">
      <path
         d="m -458.7836,-208.4646 h 841.89002 v 595.276 H -458.7836 Z"
         id="path1806"
         style="stroke-width:0.999998" />
    </clipPath>
    <clipPath
       clipPathUnits="userSpaceOnUse"
       id="clipPath1810">
      <path
         d="m -460.3944,-206.9302 h 841.89002 v 595.276 H -460.3944 Z"
         id="path1812"
         style="stroke-width:0.999998" />
    </clipPath>
    <clipPath
       clipPathUnits="userSpaceOnUse"
       id="clipPath1823">
      <path
         d="m -471.2132,-202.9361 h 841.89002 v 595.276 H -471.2132 Z"
         id="path1825"
         style="stroke-width:0.999998" />
    </clipPath>
    <clipPath
       clipPathUnits="userSpaceOnUse"
       id="clipPath1830">
      <path
         d="m -437.4559,-175.0355 h 841.89002 v 595.276 H -437.4559 Z"
         id="path1832"
         style="stroke-width:0.999998" />
    </clipPath>
    <clipPath
       clipPathUnits="userSpaceOnUse"
       id="clipPath1848">
      <path
         d="m -480.2086,-175.0355 h 841.89002 v 595.276 H -480.2086 Z"
         id="path1850"
         style="stroke-width:0.999998" />
    </clipPath>
    <clipPath
       clipPathUnits="userSpaceOnUse"
       id="clipPath1842">
      <path
         d="m -460.5514,-157.4828 h 841.89002 v 595.276 H -460.5514 Z"
         id="path1844"
         style="stroke-width:0.999998" />
    </clipPath>
    <clipPath
       clipPathUnits="userSpaceOnUse"
       id="clipPath1854">
      <path
         d="m -461.9644,-159.8563 h 841.89002 v 595.276 H -461.9644 Z"
         id="path1856"
         style="stroke-width:0.999998" />
    </clipPath>
    <clipPath
       clipPathUnits="userSpaceOnUse"
       id="clipPath1860">
      <path
         d="m -452.8761,-180.7629 h 841.89002 v 595.276 H -452.8761 Z"
         id="path1862"
         style="stroke-width:0.999998" />
    </clipPath>
    <clipPath
       clipPathUnits="userSpaceOnUse"
       id="clipPath1648">
      <path
         d="m -625.8347,-216.3924 h 841.89002 v 595.276 H -625.8347 Z"
         id="path1650"
         style="stroke-width:0.999998" />
    </clipPath>
    <clipPath
       clipPathUnits="userSpaceOnUse"
       id="clipPath1655">
      <path
         d="m -625.8335,-163.9048 h 841.89002 v 595.276 H -625.8335 Z"
         id="path1657"
         style="stroke-width:0.999998" />
    </clipPath>
    <clipPath
       clipPathUnits="userSpaceOnUse"
       id="clipPath1661">
      <path
         d="m -542.2924,-163.9048 h 841.89002 v 595.276 H -542.2924 Z"
         id="path1663"
         style="stroke-width:0.999998" />
    </clipPath>
    <clipPath
       clipPathUnits="userSpaceOnUse"
       id="clipPath1673">
      <path
         d="M -550.1608,-204.525 H 291.72922 V 390.751 H -550.1608 Z"
         id="path1675"
         style="stroke-width:0.999998" />
    </clipPath>
    <clipPath
       clipPathUnits="userSpaceOnUse"
       id="clipPath1667">
      <path
         d="m -581.5619,-208.4646 h 841.89002 v 595.276 H -581.5619 Z"
         id="path1669"
         style="stroke-width:0.999998" />
    </clipPath>
    <clipPath
       clipPathUnits="userSpaceOnUse"
       id="clipPath1687">
      <path
         d="m -583.1727,-206.9302 h 841.89002 v 595.276 H -583.1727 Z"
         id="path1689"
         style="stroke-width:0.999998" />
    </clipPath>
    <clipPath
       clipPathUnits="userSpaceOnUse"
       id="clipPath1680">
      <path
         d="m -593.9926,-202.9351 h 841.89002 v 595.276 H -593.9926 Z"
         id="path1682"
         style="stroke-width:0.999998" />
    </clipPath>
    <clipPath
       clipPathUnits="userSpaceOnUse"
       id="clipPath1693">
      <path
         d="m -561.8683,-175.0355 h 841.89002 v 595.276 H -561.8683 Z"
         id="path1695"
         style="stroke-width:0.999998" />
    </clipPath>
    <clipPath
       clipPathUnits="userSpaceOnUse"
       id="clipPath1699">
      <path
         d="m -582.3883,-187.5121 h 841.89002 v 595.276 H -582.3883 Z"
         id="path1701"
         style="stroke-width:0.999998" />
    </clipPath>
    <clipPath
       clipPathUnits="userSpaceOnUse"
       id="clipPath1705">
      <path
         d="m -603.2205,-157.4828 h 841.89002 v 595.276 H -603.2205 Z"
         id="path1707"
         style="stroke-width:0.999998" />
    </clipPath>
    <clipPath
       clipPathUnits="userSpaceOnUse"
       id="clipPath1711">
      <path
         d="m -604.6333,-159.8563 h 841.89002 v 595.276 H -604.6333 Z"
         id="path1713"
         style="stroke-width:0.999998" />
    </clipPath>
    <clipPath
       clipPathUnits="userSpaceOnUse"
       id="clipPath1836-3">
      <path
         d="m -576.4059,-131.6834 h 841.89002 v 595.276 H -576.4059 Z"
         id="path1838-6"
         style="stroke-width:0.999998" />
    </clipPath>
    <clipPath
       clipPathUnits="userSpaceOnUse"
       id="clipPath1817-7">
      <path
         d="m -480.4445,-91.6168 h 841.89002 v 595.276 H -480.4445 Z"
         id="path1819-5"
         style="stroke-width:0.999998" />
    </clipPath>
    <clipPath
       clipPathUnits="userSpaceOnUse"
       id="clipPath1872-3">
      <path
         d="m -488.3129,-132.2371 h 841.89002 v 595.276 H -488.3129 Z"
         id="path1874-5"
         style="stroke-width:0.999998" />
    </clipPath>
    <clipPath
       clipPathUnits="userSpaceOnUse"
       id="clipPath1878-6">
      <path
         d="m -519.714,-136.1767 h 841.89002 v 595.276 H -519.714 Z"
         id="path1880-2"
         style="stroke-width:0.999998" />
    </clipPath>
    <clipPath
       clipPathUnits="userSpaceOnUse"
       id="clipPath1886-9">
      <path
         d="m -521.3248,-134.6422 h 841.89002 v 595.276 H -521.3248 Z"
         id="path1888-1"
         style="stroke-width:0.999998" />
    </clipPath>
    <clipPath
       clipPathUnits="userSpaceOnUse"
       id="clipPath1892-2">
      <path
         d="m -532.1437,-130.6481 h 841.89002 v 595.276 H -532.1437 Z"
         id="path1894-7"
         style="stroke-width:0.999998" />
    </clipPath>
    <clipPath
       clipPathUnits="userSpaceOnUse"
       id="clipPath1898-0">
      <path
         d="m -500.0202,-102.7485 h 841.89002 v 595.276 H -500.0202 Z"
         id="path1900-9"
         style="stroke-width:0.999998" />
    </clipPath>
    <clipPath
       clipPathUnits="userSpaceOnUse"
       id="clipPath1904-3">
      <path
         d="m -522.5496,-115.2242 h 841.89002 v 595.276 H -522.5496 Z"
         id="path1906-6"
         style="stroke-width:0.999998" />
    </clipPath>
    <clipPath
       clipPathUnits="userSpaceOnUse"
       id="clipPath1910-0">
      <path
         d="m -561.373,-85.1949 h 841.89002 v 595.276 H -561.373 Z"
         id="path1912-6"
         style="stroke-width:0.999998" />
    </clipPath>
    <clipPath
       clipPathUnits="userSpaceOnUse"
       id="clipPath1916-2">
      <path
         d="m -562.786,-87.5683 h 841.89002 v 595.276 H -562.786 Z"
         id="path1918-6"
         style="stroke-width:0.999998" />
    </clipPath>
    <clipPath
       clipPathUnits="userSpaceOnUse"
       id="clipPath2322">
      <path
         d="m -537.0295,-102.7476 h 841.89002 v 595.276 H -537.0295 Z"
         id="path2324"
         style="stroke-width:0.999998" />
    </clipPath>
  </defs>
  <g
     inkscape:label="Calque 1"
     inkscape:groupmode="layer"
     id="layer1">
    <g
       id="g2493"
       transform="matrix(2.2067561,0,0,-2.2067561,-1169.2969,643.95151)">
      <g
         id="g2395"
         transform="translate(61.84748,147.7047)">
        <path
           d="m 0,0 c 0,6.848 -5.572,12.421 -12.42,12.421 h -83.541 c -6.85,0 -12.421,-5.573 -12.421,-12.421 v -32.069 c 0,-6.85 5.571,-12.421 12.421,-12.421 h 73.598 c 2.119,-1.259 4.631,-1.999 7.33,-1.999 h 1.413 c 7.508,0 13.615,5.649 13.615,12.593 v 1.719 L 0,-32.069 Z"
           style="fill:#ffffff;fill-opacity:1;fill-rule:nonzero;stroke:none"
           id="path612"
           transform="translate(576.4059,131.6834)"
           clip-path="url(#clipPath1836-3)" />
        <path
           d="M 0,0 H 11.896 V 32.404 H 0 c -4.417,0 -7.998,-3.58 -7.998,-7.997 V 7.998 C -7.998,3.581 -4.417,0 0,0"
           style="fill:#00803d;fill-opacity:1;fill-rule:nonzero;stroke:none"
           id="path616"
           transform="translate(480.4445,91.6168)"
           clip-path="url(#clipPath1817-7)" />
        <path
           d="m 478.5274,135.132 v -4.419 h -1.785 v 7.728 h 1.394 l 3.602,-4.539 v 4.539 h 1.785 v -7.728 h -1.436 z"
           style="fill:#7c7b7b;fill-opacity:1;fill-rule:nonzero;stroke:none"
           id="path620" />
        <path
           d="M 0,0 C 0.304,0 0.562,0.063 0.772,0.19 0.983,0.317 1.154,0.486 1.284,0.696 1.415,0.907 1.507,1.148 1.561,1.42 1.616,1.692 1.644,1.97 1.644,2.253 V 6.204 H 3.428 V 2.253 C 3.428,1.715 3.361,1.215 3.227,0.751 3.093,0.286 2.885,-0.121 2.606,-0.469 2.327,-0.817 1.972,-1.091 1.54,-1.291 1.108,-1.489 0.595,-1.589 0,-1.589 c -0.617,0 -1.143,0.104 -1.579,0.315 -0.435,0.21 -0.789,0.491 -1.06,0.844 -0.273,0.352 -0.473,0.76 -0.599,1.224 -0.128,0.464 -0.191,0.951 -0.191,1.459 v 3.951 h 1.785 V 2.253 c 0,-0.297 0.029,-0.581 0.088,-0.85 0.057,-0.267 0.152,-0.508 0.282,-0.718 0.131,-0.21 0.299,-0.377 0.506,-0.5 C -0.561,0.061 -0.305,0 0,0"
           style="fill:#7c7b7b;fill-opacity:1;fill-rule:nonzero;stroke:none"
           id="path632"
           transform="translate(488.3129,132.2371)"
           clip-path="url(#clipPath1872-3)" />
        <path
           d="m 499.0006,136.873 h -2.35 v -6.16 h -1.785 v 6.16 h -2.362 v 1.568 h 6.497 z"
           style="fill:#7c7b7b;fill-opacity:1;fill-rule:nonzero;stroke:none"
           id="path636" />
        <path
           d="m 499.8826,130.7131 v 7.728 h 3.483 c 0.363,0 0.699,-0.077 1.007,-0.229 0.308,-0.152 0.574,-0.352 0.799,-0.599 0.225,-0.247 0.401,-0.526 0.528,-0.838 0.128,-0.312 0.191,-0.627 0.191,-0.947 0,-0.239 -0.029,-0.47 -0.087,-0.691 -0.059,-0.221 -0.142,-0.43 -0.25,-0.626 -0.109,-0.195 -0.242,-0.371 -0.398,-0.527 -0.156,-0.157 -0.332,-0.289 -0.528,-0.398 l 1.775,-2.873 h -2.014 l -1.557,2.492 h -1.164 v -2.492 z m 1.785,4.049 h 1.632 c 0.211,0 0.392,0.099 0.545,0.299 0.153,0.2 0.228,0.455 0.228,0.767 0,0.32 -0.087,0.573 -0.261,0.763 -0.174,0.188 -0.363,0.282 -0.566,0.282 h -1.578 z"
           style="fill:#7c7b7b;fill-opacity:1;fill-rule:nonzero;stroke:none"
           id="path648" />
        <path
           d="m 507.284,138.441 h 1.785 v -7.728 h -1.785 z"
           style="fill:#7c7b7b;fill-opacity:1;fill-rule:nonzero;stroke:none"
           id="path650" />
        <path
           d="m 510.396,134.49 h 3.353 v -1.568 h -3.353 z"
           style="fill:#7c7b7b;fill-opacity:1;fill-rule:nonzero;stroke:none"
           id="path652" />
        <path
           d="M 0,0 -0.24,0.164 C -0.37,0.243 -0.534,0.327 -0.73,0.414 -0.925,0.501 -1.139,0.577 -1.372,0.643 -1.604,0.708 -1.836,0.74 -2.068,0.74 -2.374,0.74 -2.607,0.686 -2.771,0.577 -2.934,0.469 -3.015,0.309 -3.015,0.098 l 0.109,-0.327 0.31,-0.233 c 0.134,-0.069 0.301,-0.133 0.501,-0.191 0.199,-0.058 0.429,-0.124 0.691,-0.196 0.37,-0.102 0.704,-0.212 1.001,-0.332 0.298,-0.119 0.551,-0.268 0.762,-0.446 0.21,-0.178 0.372,-0.394 0.484,-0.648 0.112,-0.254 0.169,-0.559 0.169,-0.914 0,-0.435 -0.082,-0.803 -0.245,-1.104 -0.163,-0.302 -0.38,-0.545 -0.647,-0.73 -0.269,-0.185 -0.579,-0.319 -0.931,-0.403 -0.352,-0.082 -0.713,-0.125 -1.083,-0.125 -0.283,0 -0.571,0.022 -0.866,0.066 -0.294,0.043 -0.582,0.106 -0.865,0.19 -0.283,0.083 -0.558,0.183 -0.827,0.299 -0.268,0.116 -0.515,0.251 -0.741,0.403 l 0.785,1.557 0.293,-0.207 c 0.16,-0.103 0.356,-0.204 0.588,-0.305 0.232,-0.102 0.493,-0.193 0.783,-0.272 0.291,-0.08 0.585,-0.12 0.882,-0.12 0.632,0 0.947,0.193 0.947,0.577 l -0.141,0.359 -0.392,0.255 c -0.167,0.077 -0.363,0.148 -0.588,0.213 -0.225,0.066 -0.471,0.138 -0.739,0.218 -0.356,0.109 -0.665,0.227 -0.926,0.354 -0.262,0.126 -0.479,0.273 -0.653,0.441 -0.174,0.166 -0.303,0.359 -0.386,0.576 -0.084,0.218 -0.125,0.471 -0.125,0.762 0,0.407 0.076,0.765 0.228,1.077 0.152,0.312 0.359,0.575 0.62,0.79 0.261,0.214 0.564,0.376 0.909,0.485 0.345,0.108 0.71,0.162 1.094,0.162 0.276,0 0.545,-0.025 0.806,-0.075 0.261,-0.052 0.51,-0.117 0.745,-0.196 0.236,-0.081 0.459,-0.172 0.67,-0.273 0.21,-0.101 0.398,-0.203 0.565,-0.304 z"
           style="fill:#7c7b7b;fill-opacity:1;fill-rule:nonzero;stroke:none"
           id="path664"
           transform="translate(519.714,136.1767)"
           clip-path="url(#clipPath1878-6)" />
        <path
           d="M 0,0 C 0,0.464 0.082,0.927 0.25,1.388 0.417,1.848 0.66,2.26 0.979,2.623 1.298,2.986 1.688,3.28 2.15,3.505 2.61,3.73 3.134,3.842 3.722,3.842 4.411,3.842 5.01,3.686 5.518,3.374 6.026,3.062 6.403,2.656 6.65,2.155 L 5.279,1.198 C 5.198,1.4 5.097,1.569 4.974,1.704 L 4.571,2.03 4.12,2.204 3.678,2.253 C 3.359,2.253 3.083,2.184 2.851,2.046 2.619,1.908 2.427,1.731 2.274,1.513 2.122,1.295 2.008,1.048 1.932,0.773 1.855,0.497 1.817,0.218 1.817,-0.065 c 0,-0.305 0.046,-0.599 0.137,-0.882 0.089,-0.283 0.217,-0.533 0.38,-0.751 0.164,-0.217 0.361,-0.39 0.593,-0.517 0.233,-0.127 0.49,-0.19 0.773,-0.19 l 0.452,0.059 0.451,0.186 0.393,0.326 c 0.115,0.134 0.21,0.3 0.283,0.495 l 1.469,-0.86 C 6.632,-2.482 6.463,-2.736 6.241,-2.961 6.02,-3.186 5.769,-3.374 5.485,-3.526 5.202,-3.679 4.903,-3.795 4.587,-3.875 4.271,-3.955 3.962,-3.994 3.656,-3.994 3.12,-3.994 2.628,-3.88 2.182,-3.652 1.735,-3.423 1.351,-3.121 1.028,-2.743 0.705,-2.366 0.453,-1.937 0.272,-1.459 0.09,-0.98 0,-0.494 0,0"
           style="fill:#7c7b7b;fill-opacity:1;fill-rule:nonzero;stroke:none"
           id="path668"
           transform="translate(521.3248,134.6422)"
           clip-path="url(#clipPath1886-9)" />
        <path
           d="m 0,0 c -0.551,0 -1.052,0.112 -1.502,0.337 -0.451,0.225 -0.836,0.52 -1.159,0.887 -0.323,0.366 -0.573,0.785 -0.751,1.258 -0.178,0.471 -0.267,0.957 -0.267,1.457 0,0.508 0.092,0.998 0.278,1.47 0.185,0.471 0.442,0.888 0.772,1.247 0.33,0.358 0.723,0.645 1.176,0.859 C -1,7.729 -0.504,7.836 0.032,7.836 0.583,7.836 1.085,7.724 1.534,7.499 1.984,7.274 2.371,6.977 2.694,6.606 3.016,6.236 3.265,5.815 3.439,5.344 3.613,4.872 3.7,4.393 3.7,3.907 3.7,3.399 3.608,2.909 3.423,2.438 3.238,1.966 2.983,1.551 2.656,1.191 2.329,0.832 1.939,0.543 1.486,0.326 1.032,0.108 0.537,0 0,0 m -1.862,3.917 c 0,-0.297 0.043,-0.585 0.126,-0.864 0.083,-0.28 0.203,-0.528 0.359,-0.746 0.156,-0.218 0.351,-0.392 0.588,-0.523 0.235,-0.13 0.506,-0.195 0.811,-0.195 0.312,0 0.584,0.069 0.816,0.207 0.233,0.137 0.427,0.317 0.583,0.538 0.156,0.221 0.271,0.472 0.348,0.751 0.075,0.28 0.114,0.565 0.114,0.854 0,0.298 -0.042,0.587 -0.126,0.866 C 1.674,5.085 1.553,5.331 1.393,5.545 1.233,5.759 1.038,5.929 0.805,6.057 0.573,6.184 0.308,6.247 0.01,6.247 -0.301,6.247 -0.573,6.18 -0.805,6.046 -1.038,5.911 -1.232,5.735 -1.388,5.518 -1.544,5.3 -1.662,5.052 -1.741,4.773 -1.822,4.493 -1.862,4.208 -1.862,3.917"
           style="fill:#7c7b7b;fill-opacity:1;fill-rule:nonzero;stroke:none"
           id="path672"
           transform="translate(532.1437,130.6481)"
           clip-path="url(#clipPath1892-2)" />
        <path
           d="m 536.8887,130.7131 v 7.728 h 3.483 c 0.363,0 0.698,-0.077 1.007,-0.229 0.308,-0.152 0.575,-0.352 0.8,-0.599 0.225,-0.247 0.401,-0.526 0.528,-0.838 0.126,-0.312 0.191,-0.627 0.191,-0.947 0,-0.239 -0.03,-0.47 -0.087,-0.691 -0.059,-0.221 -0.142,-0.43 -0.251,-0.626 -0.109,-0.195 -0.241,-0.371 -0.397,-0.527 -0.156,-0.157 -0.332,-0.289 -0.528,-0.398 l 1.775,-2.873 h -2.014 l -1.557,2.492 h -1.165 v -2.492 z m 1.785,4.049 h 1.633 c 0.21,0 0.392,0.099 0.544,0.299 0.153,0.2 0.229,0.455 0.229,0.767 0,0.32 -0.087,0.573 -0.261,0.763 -0.174,0.188 -0.364,0.282 -0.566,0.282 h -1.579 z"
           style="fill:#7c7b7b;fill-opacity:1;fill-rule:nonzero;stroke:none"
           id="path676" />
        <path
           d="m 549.7222,132.2801 v -1.567 h -5.432 v 7.728 h 5.333 v -1.568 h -3.548 v -1.502 h 3.048 v -1.447 h -3.048 v -1.644 z"
           style="fill:#7c7b7b;fill-opacity:1;fill-rule:nonzero;stroke:none"
           id="path680" />
        <path
           d="M 512.257,91.617 H 492.34 v 32.404 h 19.917 z"
           style="fill:#87bd25;fill-opacity:1;fill-rule:nonzero;stroke:none"
           id="path682" />
        <path
           d="m 532.173,91.617 h -19.916 v 32.404 h 19.916 z"
           style="fill:#ffcc00;fill-opacity:1;fill-rule:nonzero;stroke:none"
           id="path684" />
        <path
           d="m 552.09,91.617 h -19.917 v 32.404 h 19.917 z"
           style="fill:#ef7d00;fill-opacity:1;fill-rule:nonzero;stroke:none"
           id="path686" />
        <path
           d="m 480.4952,105.5112 2.2,5.756 2.114,-5.756 z m 3.246,9.503 h -1.938 l -5.991,-14.443 h 2.81 l 1.045,2.763 h 5.947 l 1.025,-2.763 h 3.07 z"
           style="fill:#74ab7e;fill-opacity:1;fill-rule:nonzero;stroke:none"
           id="path700" />
        <path
           d="M 0,0 V 4.081 H 1.372 C 3.921,4.061 4.749,3.307 4.749,2.114 4.749,0.628 3.659,0 1.546,0 Z m 0,6.091 v 3.998 h 0.828 c 2.2,0 3.093,-0.649 3.093,-1.947 0,-1.193 -0.85,-2.009 -2.636,-2.03 z m 1.177,6.175 H -2.789 V -2.177 h 4.466 c 4.205,0 5.926,1.695 5.926,4.291 0,1.424 -0.785,2.553 -2.419,3.202 0.937,0.733 1.59,1.758 1.59,3.078 0,2.135 -1.503,3.872 -5.597,3.872"
           style="fill:#bdd684;fill-opacity:1;fill-rule:nonzero;stroke:none"
           id="path712"
           transform="translate(500.0202,102.7485)"
           clip-path="url(#clipPath1898-0)" />
        <path
           d="m 0,0 c -3.877,0 -6.861,-2.889 -6.861,-7.41 0,-4.544 2.745,-7.453 6.905,-7.453 2.679,0 4.596,1.047 5.793,3.036 l -2.091,1.528 c -0.849,-1.382 -2.025,-2.157 -3.593,-2.157 -2.658,0 -4.14,1.843 -4.14,5.067 0,3.014 1.525,4.981 3.878,4.981 1.547,0 2.679,-0.774 3.224,-2.093 l 2.657,0.984 C 4.901,-1.487 3.311,0 0,0"
           style="fill:#ffdf7d;fill-opacity:1;fill-rule:nonzero;stroke:none"
           id="path716"
           transform="translate(522.5496,115.2242)"
           clip-path="url(#clipPath1904-3)" />
        <path
           d="m 0,0 c -7.507,0 -13.614,5.649 -13.614,12.592 v 20.063 c 0,6.944 6.107,12.593 13.614,12.593 h 1.413 c 7.508,0 13.615,-5.649 13.615,-12.593 V 12.592 C 15.028,5.649 8.921,0 1.413,0 Z"
           style="fill:#ffffff;fill-opacity:1;fill-rule:nonzero;stroke:none"
           id="path720"
           transform="translate(561.373,85.1949)"
           clip-path="url(#clipPath1910-0)" />
        <path
           d="m 0,0 h -1.413 c -6.208,0 -11.241,4.575 -11.241,10.219 v 20.063 c 0,5.644 5.033,10.219 11.241,10.219 H 0 c 6.209,0 11.242,-4.575 11.242,-10.219 V 10.219 C 11.242,4.575 6.209,0 0,0"
           style="fill:#e63312;fill-opacity:1;fill-rule:nonzero;stroke:none"
           id="path724"
           transform="translate(562.786,87.5683)"
           clip-path="url(#clipPath1916-2)" />
        <path
           d="m 556.1603,98.4044 v 19.257 h 12.531 v -3.935 h -7.647 v -3.376 h 5.275 v -3.964 h -5.275 v -4.047 h 7.814 v -3.935 z"
           style="fill:#ffffff;fill-opacity:1;fill-rule:nonzero;stroke:none"
           id="path728" />
        <path
           d="M 0,0 V 10.048 H 1.569 C 5.032,10.048 6.71,8.206 6.71,5.045 6.71,2.156 4.901,0 1.221,0 Z M 1.591,12.267 H -2.788 V -2.176 h 4.074 c 5.162,0 8.299,3.076 8.299,7.221 0,4.521 -2.919,7.222 -7.994,7.222"
           style="fill:#f8b472;fill-opacity:1;fill-rule:nonzero;stroke:none"
           id="path740"
           transform="translate(537.0295,102.7476)"
           clip-path="url(#clipPath2322)" />
      </g>
    </g>
  </g>
</svg>
