<?xml version="1.0" encoding="UTF-8" standalone="no"?>
<svg
   id="svg2032"
   width="240"
   height="130"
   version="1.1"
   viewBox="0 0 240 130"
   sodipodi:docname="nutriscore-unknown.svg"
   inkscape:version="1.4.2 (ebf0e94, 2025-05-08)"
   xmlns:inkscape="http://www.inkscape.org/namespaces/inkscape"
   xmlns:sodipodi="http://sodipodi.sourceforge.net/DTD/sodipodi-0.dtd"
   xmlns="http://www.w3.org/2000/svg"
   xmlns:svg="http://www.w3.org/2000/svg">
  <sodipodi:namedview
     id="namedview1"
     pagecolor="#ffffff"
     bordercolor="#666666"
     borderopacity="1.0"
     inkscape:showpageshadow="2"
     inkscape:pageopacity="0.0"
     inkscape:pagecheckerboard="0"
     inkscape:deskcolor="#d1d1d1"
     inkscape:zoom="0.9359375"
     inkscape:cx="108.44741"
     inkscape:cy="-72.654424"
     inkscape:window-width="1828"
     inkscape:window-height="1182"
     inkscape:window-x="26"
     inkscape:window-y="23"
     inkscape:window-maximized="0"
     inkscape:current-layer="svg2032" />
  <defs
     id="defs2029">
    <clipPath
       id="clipPath1836"
       clipPathUnits="userSpaceOnUse">
      <path
         id="path1838"
         stroke-width="1"
         d="M-576.406-131.683h841.89v595.276h-841.89z" />
    </clipPath>
    <clipPath
       id="clipPath1817"
       clipPathUnits="userSpaceOnUse">
      <path
         id="path1819"
         stroke-width="1"
         d="M-480.445-91.617h841.89V503.66h-841.89z" />
    </clipPath>
    <clipPath
       id="clipPath1872"
       clipPathUnits="userSpaceOnUse">
      <path
         id="path1874"
         stroke-width="1"
         d="M-488.313-132.237h841.89v595.276h-841.89z" />
    </clipPath>
    <clipPath
       id="clipPath1878"
       clipPathUnits="userSpaceOnUse">
      <path
         id="path1880"
         stroke-width="1"
         d="M-519.714-136.177h841.89V459.1h-841.89z" />
    </clipPath>
    <clipPath
       id="clipPath1886"
       clipPathUnits="userSpaceOnUse">
      <path
         id="path1888"
         stroke-width="1"
         d="M-521.325-134.642h841.89v595.276h-841.89z" />
    </clipPath>
    <clipPath
       id="clipPath1892"
       clipPathUnits="userSpaceOnUse">
      <path
         id="path1894"
         stroke-width="1"
         d="M-532.144-130.648h841.89v595.276h-841.89z" />
    </clipPath>
    <clipPath
       id="clipPath1898"
       clipPathUnits="userSpaceOnUse">
      <path
         id="path1900"
         stroke-width="1"
         d="M-500.02-102.749h841.89v595.276h-841.89z" />
    </clipPath>
    <clipPath
       id="clipPath1904"
       clipPathUnits="userSpaceOnUse">
      <path
         id="path1906"
         stroke-width="1"
         d="M-522.55-115.224h841.89v595.276h-841.89z" />
    </clipPath>
    <clipPath
       id="clipPath1910"
       clipPathUnits="userSpaceOnUse">
      <path
         id="path1912"
         stroke-width="1"
         d="M-561.373-85.195h841.89v595.276h-841.89z" />
    </clipPath>
    <clipPath
       id="clipPath1916"
       clipPathUnits="userSpaceOnUse">
      <path
         id="path1918"
         stroke-width="1"
         d="M-562.786-87.568h841.89v595.276h-841.89z" />
    </clipPath>
    <clipPath
       id="clipPath1593"
       clipPathUnits="userSpaceOnUse">
      <path
         id="path1595"
         stroke-width="1"
         d="M-503.056-291.81h841.89v595.277h-841.89z" />
    </clipPath>
    <clipPath
       id="clipPath1929"
       clipPathUnits="userSpaceOnUse">
      <path
         id="path1931"
         stroke-width="1"
         d="M-503.055-239.322h841.89v595.276h-841.89z" />
    </clipPath>
    <clipPath
       id="clipPath1605"
       clipPathUnits="userSpaceOnUse">
      <path
         id="path1607"
         stroke-width="1"
         d="M-427.382-279.942h841.89v595.276h-841.89z" />
    </clipPath>
    <clipPath
       id="clipPath1618"
       clipPathUnits="userSpaceOnUse">
      <path
         id="path1620"
         stroke-width="1"
         d="M-458.785-283.881h841.89v595.276h-841.89z" />
    </clipPath>
    <clipPath
       id="clipPath1611"
       clipPathUnits="userSpaceOnUse">
      <path
         id="path1613"
         stroke-width="1"
         d="M-460.394-282.347h841.89v595.276h-841.89z" />
    </clipPath>
    <clipPath
       id="clipPath1599"
       clipPathUnits="userSpaceOnUse">
      <path
         id="path1601"
         stroke-width="1"
         d="M-471.214-278.353h841.89v595.276h-841.89z" />
    </clipPath>
    <clipPath
       id="clipPath1624"
       clipPathUnits="userSpaceOnUse">
      <path
         id="path1626"
         stroke-width="1"
         d="M-441.091-250.452h841.89v595.276h-841.89z" />
    </clipPath>
    <clipPath
       id="clipPath1630"
       clipPathUnits="userSpaceOnUse">
      <path
         id="path1632"
         stroke-width="1"
         d="M-461.62-262.929h841.89v595.276h-841.89z" />
    </clipPath>
    <clipPath
       id="clipPath1636"
       clipPathUnits="userSpaceOnUse">
      <path
         id="path1638"
         stroke-width="1"
         d="M-478.601-250.452h841.89v595.276h-841.89z" />
    </clipPath>
    <clipPath
       id="clipPath1642"
       clipPathUnits="userSpaceOnUse">
      <path
         id="path1644"
         stroke-width="1"
         d="M-420.708-232.9h841.89v595.276h-841.89z" />
    </clipPath>
    <clipPath
       id="clipPath1922"
       clipPathUnits="userSpaceOnUse">
      <path
         id="path1924"
         stroke-width="1"
         d="M-422.121-235.273h841.89v595.276h-841.89z" />
    </clipPath>
    <clipPath
       id="clipPath1866"
       clipPathUnits="userSpaceOnUse">
      <path
         id="path1868"
         stroke-width="1"
         d="M-625.833-291.81h841.89v595.277h-841.89z" />
    </clipPath>
    <clipPath
       id="clipPath1717"
       clipPathUnits="userSpaceOnUse">
      <path
         id="path1719"
         stroke-width="1"
         d="M-625.833-239.322h841.89v595.276h-841.89z" />
    </clipPath>
    <clipPath
       id="clipPath1729"
       clipPathUnits="userSpaceOnUse">
      <path
         id="path1731"
         stroke-width="1"
         d="M-542.292-239.322h841.89v595.276h-841.89z" />
    </clipPath>
    <clipPath
       id="clipPath1735"
       clipPathUnits="userSpaceOnUse">
      <path
         id="path1737"
         stroke-width="1"
         d="M-586.47-262.929h841.89v595.276h-841.89z" />
    </clipPath>
    <clipPath
       id="clipPath1741"
       clipPathUnits="userSpaceOnUse">
      <path
         id="path1743"
         stroke-width="1"
         d="M-601.38-250.452h841.89v595.276h-841.89z" />
    </clipPath>
    <clipPath
       id="clipPath1747"
       clipPathUnits="userSpaceOnUse">
      <path
         id="path1749"
         stroke-width="1"
         d="M-550.16-279.942h841.89v595.276h-841.89z" />
    </clipPath>
    <clipPath
       id="clipPath1759"
       clipPathUnits="userSpaceOnUse">
      <path
         id="path1761"
         stroke-width="1"
         d="M-581.562-283.881h841.89v595.276h-841.89z" />
    </clipPath>
    <clipPath
       id="clipPath1765"
       clipPathUnits="userSpaceOnUse">
      <path
         id="path1767"
         stroke-width="1"
         d="M-583.172-282.347h841.89v595.276h-841.89z" />
    </clipPath>
    <clipPath
       id="clipPath1773"
       clipPathUnits="userSpaceOnUse">
      <path
         id="path1775"
         stroke-width="1"
         d="M-593.991-278.353h841.89v595.276h-841.89z" />
    </clipPath>
    <clipPath
       id="clipPath1779"
       clipPathUnits="userSpaceOnUse">
      <path
         id="path1781"
         stroke-width="1"
         d="M-563.464-232.9h841.89v595.276h-841.89z" />
    </clipPath>
    <clipPath
       id="clipPath1785"
       clipPathUnits="userSpaceOnUse">
      <path
         id="path1787"
         stroke-width="1"
         d="M-564.877-235.273h841.89v595.276h-841.89z" />
    </clipPath>
    <clipPath
       id="clipPath1792"
       clipPathUnits="userSpaceOnUse">
      <path
         id="path1794"
         stroke-width="1"
         d="M-503.055-216.392h841.89v595.276h-841.89z" />
    </clipPath>
    <clipPath
       id="clipPath1753"
       clipPathUnits="userSpaceOnUse">
      <path
         id="path1755"
         stroke-width="1"
         d="M-503.055-163.905h841.89v595.276h-841.89z" />
    </clipPath>
    <clipPath
       id="clipPath1723"
       clipPathUnits="userSpaceOnUse">
      <path
         id="path1725"
         stroke-width="1"
         d="M-419.514-163.905h841.89v595.276h-841.89z" />
    </clipPath>
    <clipPath
       id="clipPath1798"
       clipPathUnits="userSpaceOnUse">
      <path
         id="path1800"
         stroke-width="1"
         d="M-427.382-204.525h841.89v595.276h-841.89z" />
    </clipPath>
    <clipPath
       id="clipPath1804"
       clipPathUnits="userSpaceOnUse">
      <path
         id="path1806"
         stroke-width="1"
         d="M-458.784-208.465h841.89v595.276h-841.89z" />
    </clipPath>
    <clipPath
       id="clipPath1810"
       clipPathUnits="userSpaceOnUse">
      <path
         id="path1812"
         stroke-width="1"
         d="M-460.394-206.93h841.89v595.276h-841.89z" />
    </clipPath>
    <clipPath
       id="clipPath1823"
       clipPathUnits="userSpaceOnUse">
      <path
         id="path1825"
         stroke-width="1"
         d="M-471.213-202.936h841.89V392.34h-841.89z" />
    </clipPath>
    <clipPath
       id="clipPath1830"
       clipPathUnits="userSpaceOnUse">
      <path
         id="path1832"
         stroke-width="1"
         d="M-437.456-175.036h841.89V420.24h-841.89z" />
    </clipPath>
    <clipPath
       id="clipPath1848"
       clipPathUnits="userSpaceOnUse">
      <path
         id="path1850"
         stroke-width="1"
         d="M-480.209-175.036h841.89V420.24h-841.89z" />
    </clipPath>
    <clipPath
       id="clipPath1842"
       clipPathUnits="userSpaceOnUse">
      <path
         id="path1844"
         stroke-width="1"
         d="M-460.551-157.483h841.89v595.276h-841.89z" />
    </clipPath>
    <clipPath
       id="clipPath1854"
       clipPathUnits="userSpaceOnUse">
      <path
         id="path1856"
         stroke-width="1"
         d="M-461.964-159.856h841.89V435.42h-841.89z" />
    </clipPath>
    <clipPath
       id="clipPath1860"
       clipPathUnits="userSpaceOnUse">
      <path
         id="path1862"
         stroke-width="1"
         d="M-452.876-180.763h841.89v595.276h-841.89z" />
    </clipPath>
    <clipPath
       id="clipPath1648"
       clipPathUnits="userSpaceOnUse">
      <path
         id="path1650"
         stroke-width="1"
         d="M-625.835-216.392h841.89v595.276h-841.89z" />
    </clipPath>
    <clipPath
       id="clipPath1655"
       clipPathUnits="userSpaceOnUse">
      <path
         id="path1657"
         stroke-width="1"
         d="M-625.833-163.905h841.89v595.276h-841.89z" />
    </clipPath>
    <clipPath
       id="clipPath1661"
       clipPathUnits="userSpaceOnUse">
      <path
         id="path1663"
         stroke-width="1"
         d="M-542.292-163.905h841.89v595.276h-841.89z" />
    </clipPath>
    <clipPath
       id="clipPath1673"
       clipPathUnits="userSpaceOnUse">
      <path
         id="path1675"
         stroke-width="1"
         d="M-550.16-204.525h841.89v595.276h-841.89z" />
    </clipPath>
    <clipPath
       id="clipPath1667"
       clipPathUnits="userSpaceOnUse">
      <path
         id="path1669"
         stroke-width="1"
         d="M-581.562-208.465h841.89v595.276h-841.89z" />
    </clipPath>
    <clipPath
       id="clipPath1687"
       clipPathUnits="userSpaceOnUse">
      <path
         id="path1689"
         stroke-width="1"
         d="M-583.173-206.93h841.89v595.276h-841.89z" />
    </clipPath>
    <clipPath
       id="clipPath1680"
       clipPathUnits="userSpaceOnUse">
      <path
         id="path1682"
         stroke-width="1"
         d="M-593.993-202.935h841.89V392.34h-841.89z" />
    </clipPath>
    <clipPath
       id="clipPath1693"
       clipPathUnits="userSpaceOnUse">
      <path
         id="path1695"
         stroke-width="1"
         d="M-561.868-175.036h841.89V420.24h-841.89z" />
    </clipPath>
    <clipPath
       id="clipPath1699"
       clipPathUnits="userSpaceOnUse">
      <path
         id="path1701"
         stroke-width="1"
         d="M-582.388-187.512h841.89v595.276h-841.89z" />
    </clipPath>
    <clipPath
       id="clipPath1705"
       clipPathUnits="userSpaceOnUse">
      <path
         id="path1707"
         stroke-width="1"
         d="M-603.22-157.483h841.89v595.276h-841.89z" />
    </clipPath>
    <clipPath
       id="clipPath1711"
       clipPathUnits="userSpaceOnUse">
      <path
         id="path1713"
         stroke-width="1"
         d="M-604.633-159.856h841.89V435.42h-841.89z" />
    </clipPath>
    <clipPath
       id="clipPath1836-3"
       clipPathUnits="userSpaceOnUse">
      <path
         id="path1838-6"
         stroke-width="1"
         d="M-576.406-131.683h841.89v595.276h-841.89z" />
    </clipPath>
    <clipPath
       id="clipPath1817-7"
       clipPathUnits="userSpaceOnUse">
      <path
         id="path1819-5"
         stroke-width="1"
         d="M-480.445-91.617h841.89V503.66h-841.89z" />
    </clipPath>
    <clipPath
       id="clipPath1872-3"
       clipPathUnits="userSpaceOnUse">
      <path
         id="path1874-5"
         stroke-width="1"
         d="M-488.313-132.237h841.89v595.276h-841.89z" />
    </clipPath>
    <clipPath
       id="clipPath1878-6"
       clipPathUnits="userSpaceOnUse">
      <path
         id="path1880-2"
         stroke-width="1"
         d="M-519.714-136.177h841.89V459.1h-841.89z" />
    </clipPath>
    <clipPath
       id="clipPath1886-9"
       clipPathUnits="userSpaceOnUse">
      <path
         id="path1888-1"
         stroke-width="1"
         d="M-521.325-134.642h841.89v595.276h-841.89z" />
    </clipPath>
    <clipPath
       id="clipPath1892-2"
       clipPathUnits="userSpaceOnUse">
      <path
         id="path1894-7"
         stroke-width="1"
         d="M-532.144-130.648h841.89v595.276h-841.89z" />
    </clipPath>
    <clipPath
       id="clipPath1898-0"
       clipPathUnits="userSpaceOnUse">
      <path
         id="path1900-9"
         stroke-width="1"
         d="M-500.02-102.749h841.89v595.276h-841.89z" />
    </clipPath>
    <clipPath
       id="clipPath1904-3"
       clipPathUnits="userSpaceOnUse">
      <path
         id="path1906-6"
         stroke-width="1"
         d="M-522.55-115.224h841.89v595.276h-841.89z" />
    </clipPath>
    <clipPath
       id="clipPath1910-0"
       clipPathUnits="userSpaceOnUse">
      <path
         id="path1912-6"
         stroke-width="1"
         d="M-561.373-85.195h841.89v595.276h-841.89z" />
    </clipPath>
    <clipPath
       id="clipPath1916-2"
       clipPathUnits="userSpaceOnUse">
      <path
         id="path1918-6"
         stroke-width="1"
         d="M-562.786-87.568h841.89v595.276h-841.89z" />
    </clipPath>
    <clipPath
       id="clipPath2322"
       clipPathUnits="userSpaceOnUse">
      <path
         id="path2324"
         stroke-width="1"
         d="M-537.03-102.748h841.89v595.276h-841.89z" />
    </clipPath>
    <clipPath
       id="clipPath2310"
       clipPathUnits="userSpaceOnUse">
      <path
         id="path2312"
         stroke-width="1"
         d="M-479.578-329.849h841.89v595.276h-841.89z" />
    </clipPath>
    <clipPath
       id="clipPath2316"
       clipPathUnits="userSpaceOnUse">
      <path
         id="path2318"
         stroke-width="1"
         d="M-479.578-331.758h841.89v595.276h-841.89z" />
    </clipPath>
    <clipPath
       id="clipPath2328"
       clipPathUnits="userSpaceOnUse">
      <path
         id="path2330"
         stroke-width="1"
         d="M-487.594-375.361h841.89v595.276h-841.89z" />
    </clipPath>
    <clipPath
       id="clipPath2341"
       clipPathUnits="userSpaceOnUse">
      <path
         id="path2343"
         stroke-width="1"
         d="M-519.58-379.175h841.89v595.276h-841.89z" />
    </clipPath>
    <clipPath
       id="clipPath2334"
       clipPathUnits="userSpaceOnUse">
      <path
         id="path2336"
         stroke-width="1"
         d="M-521.221-377.69h841.89v595.276h-841.89z" />
    </clipPath>
    <clipPath
       id="clipPath2368"
       clipPathUnits="userSpaceOnUse">
      <path
         id="path2370"
         stroke-width="1"
         d="M-532.242-373.822h841.89v595.276h-841.89z" />
    </clipPath>
    <clipPath
       id="clipPath2347"
       clipPathUnits="userSpaceOnUse">
      <path
         id="path2349"
         stroke-width="1"
         d="M-564.678-336.04h841.89v595.275h-841.89z" />
    </clipPath>
    <clipPath
       id="clipPath2353"
       clipPathUnits="userSpaceOnUse">
      <path
         id="path2355"
         stroke-width="1"
         d="M-479.578-336.04h841.89v595.275h-841.89z" />
    </clipPath>
    <clipPath
       id="clipPath2361"
       clipPathUnits="userSpaceOnUse">
      <path
         id="path2363"
         stroke-width="1"
         d="M-515.48-351.719h841.89v595.276h-841.89z" />
    </clipPath>
    <clipPath
       id="clipPath1593-1"
       clipPathUnits="userSpaceOnUse">
      <path
         id="path1595-8"
         stroke-width="1"
         d="M-503.056-291.81h841.89v595.277h-841.89z" />
    </clipPath>
    <clipPath
       id="clipPath1929-7"
       clipPathUnits="userSpaceOnUse">
      <path
         id="path1931-9"
         stroke-width="1"
         d="M-503.055-239.322h841.89v595.276h-841.89z" />
    </clipPath>
    <clipPath
       id="clipPath1605-2"
       clipPathUnits="userSpaceOnUse">
      <path
         id="path1607-0"
         stroke-width="1"
         d="M-427.382-279.942h841.89v595.276h-841.89z" />
    </clipPath>
    <clipPath
       id="clipPath1618-2"
       clipPathUnits="userSpaceOnUse">
      <path
         id="path1620-3"
         stroke-width="1"
         d="M-458.785-283.881h841.89v595.276h-841.89z" />
    </clipPath>
    <clipPath
       id="clipPath1611-7"
       clipPathUnits="userSpaceOnUse">
      <path
         id="path1613-5"
         stroke-width="1"
         d="M-460.394-282.347h841.89v595.276h-841.89z" />
    </clipPath>
    <clipPath
       id="clipPath1599-9"
       clipPathUnits="userSpaceOnUse">
      <path
         id="path1601-2"
         stroke-width="1"
         d="M-471.214-278.353h841.89v595.276h-841.89z" />
    </clipPath>
    <clipPath
       id="clipPath1624-2"
       clipPathUnits="userSpaceOnUse">
      <path
         id="path1626-8"
         stroke-width="1"
         d="M-441.091-250.452h841.89v595.276h-841.89z" />
    </clipPath>
    <clipPath
       id="clipPath1630-9"
       clipPathUnits="userSpaceOnUse">
      <path
         id="path1632-7"
         stroke-width="1"
         d="M-461.62-262.929h841.89v595.276h-841.89z" />
    </clipPath>
    <clipPath
       id="clipPath1636-3"
       clipPathUnits="userSpaceOnUse">
      <path
         id="path1638-6"
         stroke-width="1"
         d="M-478.601-250.452h841.89v595.276h-841.89z" />
    </clipPath>
    <clipPath
       id="clipPath1642-1"
       clipPathUnits="userSpaceOnUse">
      <path
         id="path1644-2"
         stroke-width="1"
         d="M-420.708-232.9h841.89v595.276h-841.89z" />
    </clipPath>
    <clipPath
       id="clipPath1922-9"
       clipPathUnits="userSpaceOnUse">
      <path
         id="path1924-3"
         stroke-width="1"
         d="M-422.121-235.273h841.89v595.276h-841.89z" />
    </clipPath>
    <clipPath
       id="clipPath2310-1"
       clipPathUnits="userSpaceOnUse">
      <path
         id="path2312-9"
         stroke-width="1"
         d="M-479.578-329.849h841.89v595.276h-841.89z" />
    </clipPath>
    <clipPath
       id="clipPath2316-4"
       clipPathUnits="userSpaceOnUse">
      <path
         id="path2318-7"
         stroke-width="1"
         d="M-479.578-331.758h841.89v595.276h-841.89z" />
    </clipPath>
    <clipPath
       id="clipPath2328-8"
       clipPathUnits="userSpaceOnUse">
      <path
         id="path2330-4"
         stroke-width="1"
         d="M-487.594-375.361h841.89v595.276h-841.89z" />
    </clipPath>
    <clipPath
       id="clipPath2341-5"
       clipPathUnits="userSpaceOnUse">
      <path
         id="path2343-0"
         stroke-width="1"
         d="M-519.58-379.175h841.89v595.276h-841.89z" />
    </clipPath>
    <clipPath
       id="clipPath2334-3"
       clipPathUnits="userSpaceOnUse">
      <path
         id="path2336-6"
         stroke-width="1"
         d="M-521.221-377.69h841.89v595.276h-841.89z" />
    </clipPath>
    <clipPath
       id="clipPath2368-1"
       clipPathUnits="userSpaceOnUse">
      <path
         id="path2370-0"
         stroke-width="1"
         d="M-532.242-373.822h841.89v595.276h-841.89z" />
    </clipPath>
    <clipPath
       id="clipPath2347-6"
       clipPathUnits="userSpaceOnUse">
      <path
         id="path2349-3"
         stroke-width="1"
         d="M-564.678-336.04h841.89v595.275h-841.89z" />
    </clipPath>
    <clipPath
       id="clipPath2353-2"
       clipPathUnits="userSpaceOnUse">
      <path
         id="path2355-0"
         stroke-width="1"
         d="M-479.578-336.04h841.89v595.275h-841.89z" />
    </clipPath>
    <clipPath
       id="clipPath2361-6"
       clipPathUnits="userSpaceOnUse">
      <path
         id="path2363-1"
         stroke-width="1"
         d="M-515.48-351.719h841.89v595.276h-841.89z" />
    </clipPath>
    <clipPath
       id="clipPath2310-3"
       clipPathUnits="userSpaceOnUse">
      <path
         id="path2312-1"
         stroke-width="1"
         d="m -479.578,-329.849 h 841.89 v 595.276 h -841.89 z" />
    </clipPath>
    <clipPath
       id="clipPath2316-9"
       clipPathUnits="userSpaceOnUse">
      <path
         id="path2318-4"
         stroke-width="1"
         d="m -479.578,-331.758 h 841.89 v 595.276 h -841.89 z" />
    </clipPath>
    <clipPath
       id="clipPath2328-7"
       clipPathUnits="userSpaceOnUse">
      <path
         id="path2330-8"
         stroke-width="1"
         d="m -487.594,-375.361 h 841.89 v 595.276 h -841.89 z" />
    </clipPath>
    <clipPath
       id="clipPath2341-4"
       clipPathUnits="userSpaceOnUse">
      <path
         id="path2343-5"
         stroke-width="1"
         d="M -519.58,-379.175 H 322.31 V 216.101 H -519.58 Z" />
    </clipPath>
    <clipPath
       id="clipPath2334-0"
       clipPathUnits="userSpaceOnUse">
      <path
         id="path2336-3"
         stroke-width="1"
         d="m -521.221,-377.69 h 841.89 v 595.276 h -841.89 z" />
    </clipPath>
    <clipPath
       id="clipPath2368-6"
       clipPathUnits="userSpaceOnUse">
      <path
         id="path2370-1"
         stroke-width="1"
         d="m -532.242,-373.822 h 841.89 v 595.276 h -841.89 z" />
    </clipPath>
    <clipPath
       id="clipPath2347-0"
       clipPathUnits="userSpaceOnUse">
      <path
         id="path2349-6"
         stroke-width="1"
         d="m -564.678,-336.04 h 841.89 v 595.275 h -841.89 z" />
    </clipPath>
    <clipPath
       id="clipPath2353-3"
       clipPathUnits="userSpaceOnUse">
      <path
         id="path2355-2"
         stroke-width="1"
         d="m -479.578,-336.04 h 841.89 v 595.275 h -841.89 z" />
    </clipPath>
    <clipPath
       id="clipPath2361-0"
       clipPathUnits="userSpaceOnUse">
      <path
         id="path2363-6"
         stroke-width="1"
         d="M -515.48,-351.719 H 326.41 V 243.557 H -515.48 Z" />
    </clipPath>
    <clipPath
       id="clipPath1"
       clipPathUnits="userSpaceOnUse">
      <path
         id="path1"
         stroke-width="1"
         d="m -479.578,-331.758 h 841.89 v 595.276 h -841.89 z" />
    </clipPath>
    <clipPath
       id="clipPath1593-2"
       clipPathUnits="userSpaceOnUse">
      <path
         id="path1595-0"
         stroke-width="1"
         d="m -503.056,-291.81 h 841.89 v 595.277 h -841.89 z" />
    </clipPath>
    <clipPath
       id="clipPath1-6"
       clipPathUnits="userSpaceOnUse">
      <path
         id="path1-8"
         stroke-width="1"
         d="m -503.056,-291.81 h 841.89 v 595.277 h -841.89 z" />
    </clipPath>
    <clipPath
       id="clipPath1929-9"
       clipPathUnits="userSpaceOnUse">
      <path
         id="path1931-2"
         stroke-width="1"
         d="m -503.055,-239.322 h 841.89 v 595.276 h -841.89 z" />
    </clipPath>
    <clipPath
       id="clipPath1605-6"
       clipPathUnits="userSpaceOnUse">
      <path
         id="path1607-6"
         stroke-width="1"
         d="m -427.382,-279.942 h 841.89 v 595.276 h -841.89 z" />
    </clipPath>
    <clipPath
       id="clipPath1618-4"
       clipPathUnits="userSpaceOnUse">
      <path
         id="path1620-9"
         stroke-width="1"
         d="m -458.785,-283.881 h 841.89 v 595.276 h -841.89 z" />
    </clipPath>
    <clipPath
       id="clipPath1611-5"
       clipPathUnits="userSpaceOnUse">
      <path
         id="path1613-0"
         stroke-width="1"
         d="m -460.394,-282.347 h 841.89 v 595.276 h -841.89 z" />
    </clipPath>
    <clipPath
       id="clipPath1599-4"
       clipPathUnits="userSpaceOnUse">
      <path
         id="path1601-8"
         stroke-width="1"
         d="m -471.214,-278.353 h 841.89 v 595.276 h -841.89 z" />
    </clipPath>
    <clipPath
       id="clipPath1624-7"
       clipPathUnits="userSpaceOnUse">
      <path
         id="path1626-1"
         stroke-width="1"
         d="m -441.091,-250.452 h 841.89 v 595.276 h -841.89 z" />
    </clipPath>
    <clipPath
       id="clipPath1630-7"
       clipPathUnits="userSpaceOnUse">
      <path
         id="path1632-2"
         stroke-width="1"
         d="M -461.62,-262.929 H 380.27 V 332.347 H -461.62 Z" />
    </clipPath>
    <clipPath
       id="clipPath1636-7"
       clipPathUnits="userSpaceOnUse">
      <path
         id="path1638-2"
         stroke-width="1"
         d="m -478.601,-250.452 h 841.89 v 595.276 h -841.89 z" />
    </clipPath>
    <clipPath
       id="clipPath1642-2"
       clipPathUnits="userSpaceOnUse">
      <path
         id="path1644-6"
         stroke-width="1"
         d="m -420.708,-232.9 h 841.89 v 595.276 h -841.89 z" />
    </clipPath>
    <clipPath
       id="clipPath1922-1"
       clipPathUnits="userSpaceOnUse">
      <path
         id="path1924-0"
         stroke-width="1"
         d="m -422.121,-235.273 h 841.89 v 595.276 h -841.89 z" />
    </clipPath>
  </defs>
  <path
     id="path744"
     fill="#1d1d1b"
     d="m 30.751,126.781 c -16.956,0 -30.753,-13.109 -30.753,-29.224 V 32.446 C -0.002,16.33 13.795,3.22 30.751,3.22 h 178.494 c 16.958,0 30.753,13.111 30.753,29.226 v 65.111 c 0,16.115 -13.795,29.224 -30.753,29.224 z"
     clip-path="url(#clipPath2310)"
     style="fill-opacity:1;fill-rule:nonzero;stroke:none;fill:#b3b3b3" />
  <path
     id="path748"
     fill="#ffffff"
     d="m 30.751,122.777 c -14.634,0 -26.537,-11.314 -26.537,-25.22 V 32.446 c 0,-13.906 11.903,-25.22 26.537,-25.22 h 178.494 c 14.634,0 26.537,11.314 26.537,25.22 v 65.111 c 0,13.906 -11.903,25.22 -26.537,25.22 z"
     clip-path="url(#clipPath2316)"
     style="fill-opacity:1;fill-rule:nonzero;stroke:none" />
  <path
     id="path752"
     fill="#1d1d1b"
     d="m 26.657,25.442 v 8.973 H 22.844 V 18.726 h 2.978 l 7.698,9.214 v -9.216 h 3.811 v 15.691 h -3.069 z"
     style="fill-opacity:1;fill-rule:nonzero;stroke:none;fill:#7c7b7b" />
  <path
     id="path764"
     fill="#1d1d1b"
     d="m 47.564,31.322 c 0.65,0 1.202,-0.128 1.651,-0.386 a 3.15,3.15 0 0 0 1.093,-1.028 c 0.279,-0.426 0.478,-0.917 0.594,-1.47 a 8.084,8.084 0 0 0 0.174,-1.691 v -8.02 h 3.815 v 8.02 c 0,1.093 -0.145,2.108 -0.432,3.05 a 6.863,6.863 0 0 1 -1.326,2.477 6.158,6.158 0 0 1 -2.278,1.667 c -0.923,0.405 -2.02,0.609 -3.29,0.609 -1.318,0 -2.442,-0.214 -3.373,-0.642 a 6.244,6.244 0 0 1 -2.268,-1.712 6.956,6.956 0 0 1 -1.28,-2.487 10.666,10.666 0 0 1 -0.404,-2.962 v -8.02 h 3.813 v 8.02 c 0,0.604 0.061,1.179 0.187,1.724 a 4.45,4.45 0 0 0 0.604,1.46 c 0.279,0.428 0.64,0.765 1.08,1.015 0.443,0.252 0.99,0.376 1.64,0.376"
     clip-path="url(#clipPath2328)"
     style="fill-opacity:1;fill-rule:nonzero;stroke:none;fill:#7c7b7b" />
  <path
     id="path768"
     fill="#1d1d1b"
     d="m 70.4,21.906 h -5.024 v 12.51 h -3.813 v -12.51 h -5.047 v -3.182 h 13.886 z"
     style="fill-opacity:1;fill-rule:nonzero;stroke:none;fill:#7c7b7b" />
  <path
     id="path780"
     fill="#1d1d1b"
     d="M 72.285,34.415 V 18.726 h 7.44 c 0.776,0 1.491,0.153 2.152,0.464 a 5.663,5.663 0 0 1 2.836,2.915 4.824,4.824 0 0 1 0.406,1.924 5.265,5.265 0 0 1 -0.719,2.674 4.83,4.83 0 0 1 -0.85,1.072 5.084,5.084 0 0 1 -1.128,0.807 l 3.79,5.833 h -4.3 l -3.326,-5.06 h -2.49 v 5.06 z m 3.811,-8.22 h 3.488 c 0.451,0 0.84,-0.203 1.164,-0.608 0.325,-0.405 0.49,-0.923 0.49,-1.558 0,-0.648 -0.188,-1.164 -0.56,-1.546 -0.372,-0.384 -0.775,-0.577 -1.21,-0.577 h -3.372 z"
     style="fill-opacity:1;fill-rule:nonzero;stroke:none;fill:#7c7b7b" />
  <path
     id="path782"
     fill="#1d1d1b"
     d="m 88.098,18.724 h 3.813 v 15.691 h -3.813 z"
     style="fill-opacity:1;fill-rule:nonzero;stroke:none;fill:#7c7b7b" />
  <path
     id="path784"
     fill="#1d1d1b"
     d="m 94.749,26.747 h 7.163 v 3.184 h -7.163 z"
     style="fill-opacity:1;fill-rule:nonzero;stroke:none;fill:#7c7b7b" />
  <path
     id="path796"
     fill="#1d1d1b"
     d="m 114.654,23.322 c -0.063,-0.059 -0.233,-0.17 -0.512,-0.332 a 10.498,10.498 0 0 0 -2.418,-0.973 5.768,5.768 0 0 0 -1.49,-0.197 c -0.65,0 -1.149,0.11 -1.5,0.331 a 1.076,1.076 0 0 0 -0.521,0.972 c 0,0.264 0.077,0.486 0.232,0.662 a 2.045,2.045 0 0 0 0.663,0.477 c 0.285,0.138 0.642,0.268 1.07,0.385 0.426,0.118 0.919,0.252 1.476,0.399 a 20.272,20.272 0 0 1 2.14,0.673 6.038,6.038 0 0 1 1.628,0.906 c 0.448,0.363 0.794,0.8 1.034,1.315 0.24,0.516 0.36,1.135 0.36,1.857 0,0.885 -0.174,1.632 -0.522,2.242 a 4.285,4.285 0 0 1 -1.384,1.48 5.992,5.992 0 0 1 -1.989,0.819 10.47,10.47 0 0 1 -2.313,0.256 13.7,13.7 0 0 1 -3.698,-0.523 15.964,15.964 0 0 1 -1.768,-0.606 9.67,9.67 0 0 1 -1.582,-0.818 l 1.674,-3.16 c 0.078,0.075 0.287,0.215 0.63,0.42 0.34,0.206 0.759,0.414 1.256,0.62 0.495,0.205 1.053,0.39 1.674,0.551 0.62,0.164 1.248,0.241 1.883,0.241 1.349,0 2.024,-0.388 2.024,-1.17 a 0.96,0.96 0 0 0 -0.302,-0.728 c -0.203,-0.193 -0.482,-0.365 -0.839,-0.52 a 9.745,9.745 0 0 0 -1.254,-0.43 l -1.582,-0.442 a 14.034,14.034 0 0 1 -1.978,-0.718 5.47,5.47 0 0 1 -1.394,-0.895 3.211,3.211 0 0 1 -0.827,-1.17 4.126,4.126 0 0 1 -0.266,-1.549 c 0,-0.824 0.163,-1.554 0.489,-2.187 a 4.783,4.783 0 0 1 1.325,-1.603 5.86,5.86 0 0 1 1.94,-0.984 8.122,8.122 0 0 1 2.339,-0.33 c 0.59,0 1.162,0.052 1.72,0.152 a 12.878,12.878 0 0 1 3.022,0.952 c 0.451,0.206 0.854,0.414 1.21,0.62 z"
     clip-path="url(#clipPath2341)"
     style="fill-opacity:1;fill-rule:nonzero;stroke:none;fill:#7c7b7b" />
  <path
     id="path800"
     fill="#1d1d1b"
     d="m 118.096,26.437 c 0,-0.942 0.178,-1.88 0.535,-2.817 a 7.665,7.665 0 0 1 1.558,-2.507 c 0.682,-0.738 1.514,-1.334 2.5,-1.791 0.984,-0.457 2.104,-0.686 3.36,-0.686 1.473,0 2.752,0.319 3.837,0.952 1.086,0.634 1.891,1.458 2.418,2.475 l -2.93,1.943 a 3.243,3.243 0 0 0 -0.65,-1.026 3.606,3.606 0 0 0 -0.86,-0.663 3.415,3.415 0 0 0 -0.965,-0.354 4.788,4.788 0 0 0 -0.942,-0.101 3.524,3.524 0 0 0 -1.768,0.422 3.838,3.838 0 0 0 -1.233,1.082 4.768,4.768 0 0 0 -0.732,1.502 6.053,6.053 0 0 0 -0.244,1.7 c 0,0.622 0.097,1.217 0.29,1.792 0.195,0.577 0.465,1.084 0.813,1.527 0.349,0.44 0.772,0.79 1.267,1.049 a 3.529,3.529 0 0 0 1.653,0.386 4.04,4.04 0 0 0 1.93,-0.498 c 0.31,-0.17 0.59,-0.39 0.837,-0.662 0.247,-0.272 0.449,-0.609 0.604,-1.007 l 3.14,1.745 a 4.734,4.734 0 0 1 -1.083,1.55 6.769,6.769 0 0 1 -1.615,1.15 8.72,8.72 0 0 1 -3.907,0.95 c -1.148,0 -2.198,-0.233 -3.15,-0.699 a 7.966,7.966 0 0 1 -2.465,-1.844 8.648,8.648 0 0 1 -1.617,-2.609 7.912,7.912 0 0 1 -0.581,-2.961"
     clip-path="url(#clipPath2334)"
     style="fill-opacity:1;fill-rule:nonzero;stroke:none;fill:#7c7b7b" />
  <path
     id="path804"
     fill="#1d1d1b"
     d="m 141.212,34.55 c -1.179,0 -2.249,-0.23 -3.21,-0.686 a 8.002,8.002 0 0 1 -4.08,-4.353 7.979,7.979 0 0 1 -0.571,-2.961 c 0,-1.032 0.199,-2.026 0.593,-2.985 0.397,-0.956 0.946,-1.8 1.65,-2.53 a 8.022,8.022 0 0 1 2.514,-1.744 c 0.969,-0.437 2.026,-0.653 3.173,-0.653 1.179,0 2.249,0.227 3.21,0.684 a 7.987,7.987 0 0 1 4.07,4.377 c 0.372,0.957 0.558,1.93 0.558,2.916 a 8.054,8.054 0 0 1 -2.234,5.514 7.977,7.977 0 0 1 -2.5,1.756 7.513,7.513 0 0 1 -3.173,0.665 m -3.977,-7.956 c 0,0.604 0.088,1.19 0.269,1.755 a 4.88,4.88 0 0 0 0.765,1.515 c 0.334,0.442 0.753,0.795 1.256,1.061 0.504,0.264 1.083,0.397 1.733,0.397 0.667,0 1.248,-0.139 1.745,-0.42 0.495,-0.279 0.91,-0.644 1.244,-1.095 0.333,-0.449 0.58,-0.954 0.744,-1.523 a 6.31,6.31 0 0 0 0.244,-1.734 c 0,-0.604 -0.088,-1.192 -0.267,-1.758 a 4.626,4.626 0 0 0 -0.78,-1.502 3.618,3.618 0 0 0 -2.953,-1.426 c -0.667,0 -1.248,0.136 -1.745,0.41 a 3.88,3.88 0 0 0 -1.244,1.07 4.761,4.761 0 0 0 -0.755,1.513 6.034,6.034 0 0 0 -0.256,1.737"
     clip-path="url(#clipPath2368)"
     style="fill-opacity:1;fill-rule:nonzero;stroke:none;fill:#7c7b7b" />
  <path
     id="path808"
     fill="#1d1d1b"
     d="M 151.35,34.415 V 18.726 h 7.443 c 0.776,0 1.491,0.153 2.152,0.464 a 5.663,5.663 0 0 1 2.836,2.915 c 0.272,0.634 0.406,1.276 0.406,1.924 0,0.486 -0.063,0.952 -0.184,1.405 a 5.395,5.395 0 0 1 -0.537,1.269 4.761,4.761 0 0 1 -0.848,1.072 5.084,5.084 0 0 1 -1.128,0.807 l 3.79,5.833 h -4.3 l -3.326,-5.06 h -2.49 v 5.06 z m 3.814,-8.22 h 3.488 c 0.451,0 0.84,-0.203 1.164,-0.608 0.325,-0.405 0.489,-0.923 0.489,-1.558 0,-0.648 -0.187,-1.164 -0.56,-1.546 -0.371,-0.384 -0.774,-0.577 -1.208,-0.577 h -3.373 z"
     style="fill-opacity:1;fill-rule:nonzero;stroke:none;fill:#7c7b7b" />
  <path
     id="path812"
     fill="#1d1d1b"
     d="m 178.769,31.233 v 3.184 h -11.605 v -15.69 h 11.395 v 3.181 h -7.58 v 3.05 h 6.51 v 2.936 h -6.51 v 3.34 z"
     style="fill-opacity:1;fill-rule:nonzero;stroke:none;fill:#7c7b7b" />
  <path
     id="path824"
     fill="#656364"
     d="M 209.245,113.796 H 183.828 V 48.005 h 25.417 c 9.436,0 17.086,7.27 17.086,16.238 v 33.314 c 0,8.969 -7.65,16.239 -17.086,16.239"
     clip-path="url(#clipPath2347)"
     style="fill-opacity:1;fill-rule:nonzero;stroke:none;fill:#747273" />
  <path
     id="path826"
     fill="#868785"
     d="M 98.722,113.794 H 56.168 V 48.003 h 42.554 z"
     style="fill-opacity:1;fill-rule:nonzero;stroke:none;fill:#8c8d8b" />
  <path
     id="path828"
     fill="#a7a7a6"
     d="M 141.275,113.794 H 98.722 V 48.003 h 42.553 z"
     style="fill-opacity:1;fill-rule:nonzero;stroke:none" />
  <path
     id="path830"
     fill="#868785"
     d="M 183.828,113.794 H 141.275 V 48.003 h 42.553 z"
     style="fill-opacity:1;fill-rule:nonzero;stroke:none;fill:#8c8d8b" />
  <path
     id="path842"
     fill="#656364"
     d="M 30.751,113.796 H 56.168 V 48.005 H 30.751 c -9.436,0 -17.086,7.27 -17.086,16.238 v 33.314 c 0,8.969 7.65,16.239 17.086,16.239"
     clip-path="url(#clipPath2353)"
     style="fill-opacity:1;fill-rule:nonzero;stroke:none;fill:#747273" />
  <path
     id="path846"
     fill="#cccccc"
     d="M 195.28,95.615 V 66.29 h 19.593 v 4.42 h -13.634 v 7.437 h 9.68 v 4.42 h -9.682 v 8.629 h 13.822 v 4.419 z"
     style="fill-opacity:1;fill-rule:nonzero;stroke:none" />
  <path
     id="path858"
     fill="#cccccc"
     d="M 66.71,95.615 V 66.29 h 8.472 c 8.746,0 11.96,3.526 11.96,7.862 0,2.676 -1.397,4.76 -3.398,6.248 3.49,1.317 5.166,3.612 5.166,6.502 0,5.269 -3.677,8.713 -12.659,8.713 z m 5.957,-16.788 2.745,-0.042 c 3.818,-0.042 5.632,-1.699 5.632,-4.124 0,-2.634 -1.909,-3.951 -6.609,-3.951 h -1.768 z m 2.932,4.08 h -2.932 v 8.289 h 3.305 c 4.514,0 6.842,-1.276 6.842,-4.294 0,-2.422 -1.77,-3.952 -7.215,-3.996"
     style="fill-opacity:1;fill-rule:nonzero;stroke:none" />
  <path
     id="path866"
     fill="#cccccc"
     d="M 151.04,95.615 V 66.29 h 9.355 c 10.844,0 17.08,5.481 17.08,14.662 0,8.415 -6.702,14.663 -17.732,14.663 z m 8.564,-4.42 c 7.864,0 11.725,-4.377 11.725,-10.243 0,-6.417 -3.58,-10.158 -10.98,-10.158 h -3.352 v 20.402 z"
     style="fill-opacity:1;fill-rule:nonzero;stroke:none" />
  <path
     id="path870"
     fill="#cccccc"
     d="M 20.654,95.615 33.453,66.29 h 4.142 l 12.75,29.325 h -6.56 l -2.188,-5.61 H 28.891 l -2.234,5.61 z m 10.005,-10.03 h 9.216 L 35.361,73.898 Z"
     style="fill-opacity:1;fill-rule:nonzero;stroke:none" />
  <g
     id="svg2032-9"
     transform="translate(58.036698,18.905494)">
    <path
       id="path15606"
       fill="#ffffff"
       d="m 46.948,52.03 c 0.185,-5.97 5.528,-10.788 11.298,-11.867 5.786,-1.243 12.594,0.08 16.456,4.749 2.935,3.672 3.165,9.407 -0.11,12.953 -2.61,3.31 -6.647,5.334 -8.904,8.929 -0.888,1.88 -0.508,4.599 -2.72,5.66 -2.356,1.293 -5.62,-0.761 -5.417,-3.398 -0.223,-3.78 1.953,-7.283 4.848,-9.626 2.322,-2.222 5.621,-4.012 6.312,-7.37 0.426,-3.368 -2.898,-6.334 -6.25,-6.135 -2.703,-0.184 -5.48,1.268 -6.534,3.766 -1.057,2.02 -1.276,4.913 -3.743,5.842 -2.326,0.794 -5.274,-1.009 -5.236,-3.502 z m 14.66,32.221 c -2.978,0.245 -5.425,-2.996 -4.401,-5.726 0.927,-3.067 5.528,-4.22 7.693,-1.71 1.95,2.04 1.478,5.936 -1.324,7.013 a 4.617,4.617 0 0 1 -1.969,0.423 z"
       style="stroke-width:1.636" />
  </g>
</svg>
