<?xml version="1.0" encoding="UTF-8" standalone="no"?>
<svg
   xmlns:dc="http://purl.org/dc/elements/1.1/"
   xmlns:cc="http://creativecommons.org/ns#"
   xmlns:rdf="http://www.w3.org/1999/02/22-rdf-syntax-ns#"
   xmlns:svg="http://www.w3.org/2000/svg"
   xmlns="http://www.w3.org/2000/svg"
   xmlns:sodipodi="http://sodipodi.sourceforge.net/DTD/sodipodi-0.dtd"
   xmlns:inkscape="http://www.inkscape.org/namespaces/inkscape"
   width="24"
   height="24"
   viewBox="0 0 24 24"
   version="1.1"
   id="svg6"
   sodipodi:docname="nutrient-level-salt-unknown.svg"
   inkscape:version="1.0.1 (0767f8302a, 2020-10-17)">
  <metadata
     id="metadata12">
    <rdf:RDF>
      <cc:Work
         rdf:about="">
        <dc:format>image/svg+xml</dc:format>
        <dc:type
           rdf:resource="http://purl.org/dc/dcmitype/StillImage" />
        <dc:title></dc:title>
      </cc:Work>
    </rdf:RDF>
  </metadata>
  <defs
     id="defs10" />
  <sodipodi:namedview
     pagecolor="#ffffff"
     bordercolor="#666666"
     borderopacity="1"
     objecttolerance="10"
     gridtolerance="10"
     guidetolerance="10"
     inkscape:pageopacity="0"
     inkscape:pageshadow="2"
     inkscape:window-width="2488"
     inkscape:window-height="1376"
     id="namedview8"
     showgrid="true"
     inkscape:snap-global="true"
     inkscape:snap-to-guides="false"
     inkscape:snap-grids="true"
     inkscape:zoom="9.8333335"
     inkscape:cx="-7.8728823"
     inkscape:cy="13.488771"
     inkscape:window-x="72"
     inkscape:window-y="27"
     inkscape:window-maximized="1"
     inkscape:current-layer="svg6"
     inkscape:document-rotation="0">
    <inkscape:grid
       type="xygrid"
       id="grid822" />
  </sodipodi:namedview>
  <circle
     style="fill:#b3b3b3;stroke:none;stroke-width:1.09091"
     id="path845"
     cx="12"
     cy="12"
     r="12" />
  <g
     id="g9719"
     transform="matrix(0.88358776,0,0,0.88358776,61.16769,-261.78028)">
    <path
       id="circle9465"
       style="fill:#ffffff;stroke:none;stroke-width:0.708333;stroke-miterlimit:4;stroke-dasharray:none;stroke-opacity:1"
       d="m -55.646484,298.5332 a 4.25,4.25 0 0 0 -4.25,4.25 4.25,4.25 0 0 0 0.232422,1.38476 h 8.035156 a 4.25,4.25 0 0 0 0.232422,-1.38476 4.25,4.25 0 0 0 -4.25,-4.25 z m 0,0.26953 a 0.41309223,0.41309223 0 0 1 0.414062,0.41211 0.41309223,0.41309223 0 0 1 -0.414062,0.41406 0.41309223,0.41309223 0 0 1 -0.41211,-0.41406 0.41309223,0.41309223 0 0 1 0.41211,-0.41211 z m 1.365234,0.80078 a 0.41309223,0.41309223 0 0 1 0.412109,0.41211 0.41309223,0.41309223 0 0 1 -0.412109,0.41406 0.41309223,0.41309223 0 0 1 -0.414062,-0.41406 0.41309223,0.41309223 0 0 1 0.414062,-0.41211 z m -2.771484,0.01 a 0.41309223,0.41309223 0 0 1 0.414062,0.41406 0.41309223,0.41309223 0 0 1 -0.414062,0.41211 0.41309223,0.41309223 0 0 1 -0.41211,-0.41211 0.41309223,0.41309223 0 0 1 0.41211,-0.41406 z m 1.40625,0.39648 a 0.41309223,0.41309223 0 0 1 0.414062,0.41211 0.41309223,0.41309223 0 0 1 -0.414062,0.41406 0.41309223,0.41309223 0 0 1 -0.41211,-0.41406 0.41309223,0.41309223 0 0 1 0.41211,-0.41211 z m -4.25,5.57422 -1.416016,15.58398 h 0.869141 0.410156 0.710937 7.353516 0.710938 0.615234 0.664062 l -1.417968,-15.58398 h -0.81836 -0.242187 -0.355469 -5.666016 -0.355468 z M -58.943359,307 h 0.708984 l -0.978516,12.75 h -0.710937 z M -56,307 h 0.708984 v 12.75 H -56 Z m 2.941406,0 h 0.710938 l 0.980468,12.75 h -0.710937 z" />
  </g>
</svg>
