<?xml version="1.0" encoding="UTF-8" standalone="no"?>
<svg
   xmlns:dc="http://purl.org/dc/elements/1.1/"
   xmlns:cc="http://creativecommons.org/ns#"
   xmlns:rdf="http://www.w3.org/1999/02/22-rdf-syntax-ns#"
   xmlns:svg="http://www.w3.org/2000/svg"
   xmlns="http://www.w3.org/2000/svg"
   xmlns:sodipodi="http://sodipodi.sourceforge.net/DTD/sodipodi-0.dtd"
   xmlns:inkscape="http://www.inkscape.org/namespaces/inkscape"
   width="24"
   height="24"
   viewBox="0 0 24 24"
   version="1.1"
   id="svg6"
   sodipodi:docname="palm-oil-content-unknown.svg"
   inkscape:version="1.0.2 (e86c870879, 2021-01-15)">
  <metadata
     id="metadata12">
    <rdf:RDF>
      <cc:Work
         rdf:about="">
        <dc:format>image/svg+xml</dc:format>
        <dc:type
           rdf:resource="http://purl.org/dc/dcmitype/StillImage" />
        <dc:title></dc:title>
      </cc:Work>
    </rdf:RDF>
  </metadata>
  <defs
     id="defs10" />
  <sodipodi:namedview
     pagecolor="#ffffff"
     bordercolor="#666666"
     borderopacity="1"
     objecttolerance="10"
     gridtolerance="10"
     guidetolerance="10"
     inkscape:pageopacity="0"
     inkscape:pageshadow="2"
     inkscape:window-width="2488"
     inkscape:window-height="1376"
     id="namedview8"
     showgrid="true"
     inkscape:snap-global="true"
     inkscape:snap-to-guides="false"
     inkscape:snap-grids="true"
     inkscape:zoom="27.812867"
     inkscape:cx="11.356334"
     inkscape:cy="11.540599"
     inkscape:window-x="72"
     inkscape:window-y="27"
     inkscape:window-maximized="1"
     inkscape:current-layer="svg6"
     inkscape:document-rotation="0">
    <inkscape:grid
       type="xygrid"
       id="grid822" />
  </sodipodi:namedview>
  <rect
     style="fill:#b3b3b3;stroke:none;fill-opacity:1"
     id="rect1706"
     width="24"
     height="24"
     x="0"
     y="0"
     ry="5" />
  <path
     id="path9621"
     style="fill:#ffffff;stroke-width:0.4286"
     d="m 16,12 c 0,0 -3,3.321872 -3,5.572029 0,1.654399 1.345597,2.999998 3,3 1.654399,0 3,-1.345601 3,-3 C 19,15.321869 16,12 16,12 Z m -1.607254,3.214512 c -1.071503,2.143006 0,4.286012 1.071502,4.821763 -2.193828,-0.666342 -2.678756,-2.678757 -1.071502,-4.821763 z"
     sodipodi:nodetypes="cssscccc" />
  <path
     style="fill:#ffffff;fill-opacity:1;stroke:none;stroke-width:1.25px;stroke-linecap:butt;stroke-linejoin:miter;stroke-opacity:1"
     d="M 7,22 C 7,17 8.1059887,9.5000002 11.855989,6.4334763 l 1.25,-0.018064 C 9.3559887,9.5000002 9,17 9,22 Z"
     id="path1806"
     sodipodi:nodetypes="ccccc" />
  <path
     style="fill:#ffffff;stroke:none;stroke-width:1.25px;stroke-linecap:butt;stroke-linejoin:miter;stroke-opacity:1"
     d="M 4,12 13.105989,5.7500002 C 6.8559887,5.7500002 4,7 4,12 Z"
     id="path1808"
     sodipodi:nodetypes="ccc" />
  <path
     style="fill:#ffffff;stroke:none;stroke-width:1.25px;stroke-linecap:butt;stroke-linejoin:miter;stroke-opacity:1"
     d="M 20,4.9999999 11.855989,6.5409706 C 10.885417,2.9187488 16.29109,0.81741845 20,4.9999999 Z"
     id="path1810"
     sodipodi:nodetypes="ccc" />
  <path
     style="fill:#ffffff;stroke:none;stroke-width:1.31193px;stroke-linecap:butt;stroke-linejoin:miter;stroke-opacity:1"
     d="m 4.3559887,3.2500002 8.2676883,3.75 c 0,-4.4334761 -3.9169865,-5.995708 -8.2676883,-3.75 z"
     id="path1812"
     sodipodi:nodetypes="ccc" />
  <path
     style="fill:#ffffff;stroke:none;stroke-width:1.31193px;stroke-linecap:butt;stroke-linejoin:miter;stroke-opacity:1"
     d="M 14,13 10.605989,5.7500002 C 15.039465,5.7500002 16.245707,8.6492982 14,13 Z"
     id="path1816"
     sodipodi:nodetypes="ccc" />
  <path
     style="fill:#ffffff;stroke:none;stroke-width:1.25px;stroke-linecap:butt;stroke-linejoin:miter;stroke-opacity:1"
     d="M 19,12 10.978996,6.5093763 C 12.853996,3.2617811 19.334936,6.4198738 19,12 Z"
     id="path1818"
     sodipodi:nodetypes="ccc" />
</svg>
