<?xml version="1.0" encoding="UTF-8" standalone="no"?>
<svg
   xmlns:dc="http://purl.org/dc/elements/1.1/"
   xmlns:cc="http://creativecommons.org/ns#"
   xmlns:rdf="http://www.w3.org/1999/02/22-rdf-syntax-ns#"
   xmlns:svg="http://www.w3.org/2000/svg"
   xmlns="http://www.w3.org/2000/svg"
   xmlns:sodipodi="http://sodipodi.sourceforge.net/DTD/sodipodi-0.dtd"
   xmlns:inkscape="http://www.inkscape.org/namespaces/inkscape"
   width="24"
   height="24"
   viewBox="0 0 24 24"
   version="1.1"
   id="svg6"
   sodipodi:docname="palm-oil-free.svg"
   inkscape:version="1.0.1 (3bc2e813f5, 2020-09-07)">
  <metadata
     id="metadata12">
    <rdf:RDF>
      <cc:Work
         rdf:about="">
        <dc:format>image/svg+xml</dc:format>
        <dc:type
           rdf:resource="http://purl.org/dc/dcmitype/StillImage" />
        <dc:title></dc:title>
      </cc:Work>
    </rdf:RDF>
  </metadata>
  <defs
     id="defs10" />
  <sodipodi:namedview
     pagecolor="#ffffff"
     bordercolor="#666666"
     borderopacity="1"
     objecttolerance="10"
     gridtolerance="10"
     guidetolerance="10"
     inkscape:pageopacity="0"
     inkscape:pageshadow="2"
     inkscape:window-width="1848"
     inkscape:window-height="1022"
     id="namedview8"
     showgrid="true"
     inkscape:snap-global="true"
     inkscape:snap-to-guides="false"
     inkscape:snap-grids="true"
     inkscape:zoom="13.906434"
     inkscape:cx="-4.5762703"
     inkscape:cy="13.488771"
     inkscape:window-x="72"
     inkscape:window-y="21"
     inkscape:window-maximized="1"
     inkscape:current-layer="svg6"
     inkscape:document-rotation="0">
    <inkscape:grid
       type="xygrid"
       id="grid822" />
  </sodipodi:namedview>
  <rect
     style="fill:#008000;stroke:none"
     id="rect1706"
     width="24"
     height="24"
     x="0"
     y="0"
     ry="5" />
  <path
     d="M 11.888672,3.8398438 C 8.6638536,3.8398454 5.9492325,6.0357081 5.140625,9.0078125 A 2,2 0 0 0 5,9 2,2 0 0 0 3,11 2,2 0 0 0 5,13 2,2 0 0 0 5.072266,12.9961 C 5.771657,17.123526 8.4597708,20 11.888672,20 c 3.434387,0 6.126196,-2.885387 6.820312,-7.023438 A 2,2 0 0 0 19,13 2,2 0 0 0 21,11 2,2 0 0 0 19,9 2,2 0 0 0 18.644531,9.0332031 C 17.844632,6.0480869 15.122745,3.8398434 11.888672,3.8398438 Z M 9.5,8 A 3.5,3.5 0 0 1 11.947266,9.0019531 5,5 0 0 1 12,9 5,5 0 0 1 12.054688,9.0019531 3.5,3.5 0 0 1 14.5,8 3.5,3.5 0 0 1 18,11.5 3.5,3.5 0 0 1 16.998047,13.947266 5,5 0 0 1 17,14 5,5 0 0 1 12,19 5,5 0 0 1 7,14 5,5 0 0 1 7.0019531,13.951172 3.5,3.5 0 0 1 6,11.5 3.5,3.5 0 0 1 9.5,8 Z"
     id="circle1056"
     inkscape:connector-curvature="0"
     style="fill:#ffffff" />
  <circle
     r="1"
     cy="11.5"
     cx="9.5"
     id="circle1022"
     style="fill:#ffffff" />
  <path
     d="M 9,15 A 3.0707034,3.1665484 0 0 0 11.998047,17.5 3.0707034,3.1665484 0 0 0 15,15 H 14 A 2.0471356,2.1110323 0 0 1 12,16.666016 2.0471356,2.1110323 0 0 1 10,15 Z"
     id="path1020"
     inkscape:connector-curvature="0"
     style="fill:#ffffff" />
  <circle
     style="fill:#ffffff;fill-opacity:1;fill-rule:nonzero;stroke:none;stroke-width:3.50841;stroke-miterlimit:4;stroke-dasharray:none;stroke-opacity:1"
     id="circle1066"
     cx="14.5"
     cy="11.5"
     r="1" />
</svg>
