<?xml version="1.0" encoding="UTF-8" standalone="no"?>
<svg
   width="70"
   height="36"
   viewBox="0 0 70 36"
   version="1.1"
   id="svg6"
   sodipodi:docname="points-negative-1-20.svg"
   inkscape:version="1.2 (dc2aeda, 2022-05-15)"
   xmlns:inkscape="http://www.inkscape.org/namespaces/inkscape"
   xmlns:sodipodi="http://sodipodi.sourceforge.net/DTD/sodipodi-0.dtd"
   xmlns="http://www.w3.org/2000/svg"
   xmlns:svg="http://www.w3.org/2000/svg"
   xmlns:rdf="http://www.w3.org/1999/02/22-rdf-syntax-ns#"
   xmlns:cc="http://creativecommons.org/ns#"
   xmlns:dc="http://purl.org/dc/elements/1.1/">
<rect width="6" height="6" x="0" y="11" fill="#EB5757"></rect><rect width="6" height="6" x="7" y="11" fill="#EB5757"></rect><rect width="6" height="6" x="14" y="11" fill="#BDBDBD"></rect><rect width="6" height="6" x="21" y="11" fill="#BDBDBD"></rect><rect width="6" height="6" x="28" y="11" fill="#BDBDBD"></rect><rect width="6" height="6" x="35" y="11" fill="#BDBDBD"></rect><rect width="6" height="6" x="42" y="11" fill="#BDBDBD"></rect><rect width="6" height="6" x="49" y="11" fill="#BDBDBD"></rect><rect width="6" height="6" x="56" y="11" fill="#BDBDBD"></rect><rect width="6" height="6" x="63" y="11" fill="#BDBDBD"></rect><rect width="6" height="6" x="0" y="18" fill="#BDBDBD"></rect><rect width="6" height="6" x="7" y="18" fill="#BDBDBD"></rect><rect width="6" height="6" x="14" y="18" fill="#BDBDBD"></rect><rect width="6" height="6" x="21" y="18" fill="#BDBDBD"></rect><rect width="6" height="6" x="28" y="18" fill="#BDBDBD"></rect></svg>