<svg width="57" height="57" viewBox="0 0 57 57" fill="none" xmlns="http://www.w3.org/2000/svg">
<path fill-rule="evenodd" clip-rule="evenodd" d="M45.5529 26.2122C45.0909 27.9782 41.9969 35.0922 40.7029 36.4302C39.6899 37.4812 39.4139 37.5932 38.3859 37.5932C38.1019 37.5932 37.7599 37.5852 37.3319 37.5852C36.1789 37.5852 34.7039 37.3362 33.4979 37.3362C32.6259 37.3362 31.8949 37.4672 31.5289 37.9142C29.2389 40.8512 26.9249 42.8002 24.4209 42.8042H24.3599C14.8889 42.8042 10.8649 38.7832 10.9579 37.2612C11.0279 36.0932 13.0469 36.8082 17.7929 33.6332C18.7869 32.9162 18.7829 32.4042 18.2879 31.9542C17.7809 31.4922 16.9079 30.4722 18.1369 29.7322C19.3639 28.9932 23.5209 24.3752 24.4449 22.8962C25.3679 21.4202 27.9119 22.0332 28.5929 21.1222C32.0349 16.5192 31.4399 12.8182 37.4949 12.8192C37.9159 12.8192 38.3679 12.8372 38.8549 12.8732C44.8649 13.3232 44.2599 15.6452 41.8339 21.0982C41.8349 21.0962 41.8369 21.0942 41.8369 21.0942C41.8369 21.0942 41.8339 21.1002 41.8329 21.1012C41.3059 22.1692 41.7149 23.1052 42.5459 23.4752C43.3779 23.8422 46.0149 24.4462 45.5529 26.2122ZM43.6379 22.0532C43.5269 22.0132 43.4249 21.9772 43.3389 21.9432C43.3449 21.9252 43.3539 21.9052 43.3649 21.8822C43.3859 21.8392 43.4069 21.7952 43.4249 21.7512C45.0169 18.1662 45.9639 15.6612 44.7439 13.6192C43.6189 11.7382 41.0749 11.3172 38.9829 11.1602C38.4609 11.1212 37.9609 11.1002 37.4969 11.1002C32.1759 11.1002 30.7939 13.7612 29.3279 16.5772C28.7739 17.6432 28.2029 18.7412 27.3479 19.9152C27.1699 19.9622 26.8629 20.0122 26.6449 20.0482C25.5589 20.2262 23.9189 20.4962 22.9879 21.9862C22.1179 23.3782 18.1489 27.7172 17.2499 28.2612C16.1069 28.9482 15.8539 29.8882 15.8039 30.3862C15.7529 30.9102 15.8439 31.6492 16.4409 32.4652C14.2739 33.8582 12.8029 34.3362 11.8109 34.6572C10.7699 34.9942 9.34491 35.4552 9.24291 37.1572C9.18591 38.1012 9.64891 39.1232 10.5819 40.1162C11.5549 41.1492 15.4249 44.5232 24.3599 44.5232H24.4229C28.0559 44.5162 30.9109 41.4782 32.7699 39.1162C32.8699 39.0912 33.0869 39.0542 33.4979 39.0542C34.0269 39.0542 34.6729 39.1142 35.2969 39.1732C35.9769 39.2382 36.6809 39.3032 37.3319 39.3032C37.5609 39.3032 37.7629 39.3062 37.9439 39.3082L38.3859 39.3112C40.0309 39.3112 40.7159 38.8892 41.9399 37.6232C43.6009 35.9032 46.7859 28.2912 47.2149 26.6462C48.0019 23.6432 44.7169 22.4472 43.6379 22.0532Z" fill="black"/>
<path fill-rule="evenodd" clip-rule="evenodd" d="M41.8336 21.1012C41.8346 21.1002 41.8346 21.0992 41.8346 21.0982C41.8336 21.1002 41.8336 21.1012 41.8336 21.1012Z" fill="black"/>
<path fill-rule="evenodd" clip-rule="evenodd" d="M34.3578 25.5545C33.3978 27.4295 31.1678 30.5425 29.2768 32.6405C28.5418 33.4585 27.5738 33.9455 26.6878 33.9455C26.4018 33.9455 26.1518 33.8915 25.9608 33.7915C25.7708 33.6905 25.5338 33.5035 25.4808 33.1905C25.4188 32.8215 25.6148 32.3675 26.0368 31.9095C27.8428 29.9535 29.5908 27.6365 31.2348 25.0275C31.5478 24.5285 32.2258 23.6915 33.2388 23.6915C33.3418 23.6915 33.4448 23.7005 33.5498 23.7175C34.0578 23.7995 34.4248 24.0005 34.5618 24.2705C34.7068 24.5565 34.6358 25.0135 34.3578 25.5545ZM33.6818 22.8965C33.5318 22.8725 33.3838 22.8605 33.2388 22.8605C32.1478 22.8605 31.1988 23.5235 30.5308 24.5845C28.3988 27.9705 26.5118 30.1705 25.4258 31.3465C24.2188 32.6545 24.5038 33.9565 25.5708 34.5245C25.8818 34.6905 26.2648 34.7765 26.6878 34.7765C27.6918 34.7765 28.9138 34.2865 29.8948 33.1965C31.8248 31.0525 34.0988 27.8855 35.0988 25.9345C36.0128 24.1455 35.1138 23.1285 33.6818 22.8965Z" fill="black"/>
<path fill-rule="evenodd" clip-rule="evenodd" d="M40.8455 24.2127C40.6445 24.1077 40.3915 24.1887 40.2865 24.3937C38.0185 28.8427 33.7745 35.0247 33.7325 35.0857C33.6015 35.2757 33.6505 35.5337 33.8385 35.6647C33.9115 35.7137 33.9935 35.7377 34.0755 35.7377C34.2075 35.7377 34.3365 35.6747 34.4165 35.5577C34.4605 35.4947 38.7345 29.2687 41.0275 24.7727C41.1315 24.5677 41.0495 24.3167 40.8455 24.2127Z" fill="black"/>
<path fill-rule="evenodd" clip-rule="evenodd" d="M27.7505 23.1039C27.5485 22.9999 27.2975 23.0809 27.1915 23.2849C24.9555 27.6699 19.7675 31.5819 19.7155 31.6209C19.5315 31.7589 19.4945 32.0189 19.6325 32.2039C19.7135 32.3119 19.8375 32.3709 19.9645 32.3709C20.0495 32.3709 20.1375 32.3439 20.2135 32.2869C20.4315 32.1229 25.6065 28.2219 27.9325 23.6639C28.0365 23.4589 27.9555 23.2089 27.7505 23.1039Z" fill="black"/>
</svg>
