<svg width="57" height="57" viewBox="0 0 57 57" fill="none" xmlns="http://www.w3.org/2000/svg">
<path fill-rule="evenodd" clip-rule="evenodd" d="M25.9027 32.7083C25.9117 32.7093 25.9197 32.7093 25.9277 32.7093C26.1427 32.7093 26.3217 32.5433 26.3337 32.3283L27.6217 11.5873C27.6357 11.3633 27.4647 11.1713 27.2407 11.1563C27.0117 11.1483 26.8237 11.3133 26.8107 11.5373L25.5217 32.2783C25.5087 32.5023 25.6797 32.6943 25.9027 32.7083Z" fill="black"/>
<path fill-rule="evenodd" clip-rule="evenodd" d="M28.2329 49.2908C21.3119 49.2908 15.7019 46.8008 15.7019 43.7298C15.7019 43.3378 15.7869 42.9848 15.9069 42.5768L17.5199 35.9088C19.4869 38.0058 23.8769 39.0928 28.2329 39.0928C32.5909 39.0928 36.9829 38.0048 38.9489 35.9058L40.5719 42.5748C40.6909 42.9438 40.7639 43.3378 40.7639 43.7298C40.7639 46.8008 35.1539 49.2908 28.2329 49.2908ZM22.8649 29.9838L22.6729 32.1348H22.6739C22.6639 32.2238 22.6519 32.3538 22.6519 32.4368C22.6519 34.3718 24.8949 35.6708 28.2329 35.6708C31.5709 35.6708 33.8139 34.3718 33.8139 32.4368C33.8139 32.3548 33.8019 32.2268 33.7909 32.1348L33.5998 29.9838C36.4409 30.6958 38.3349 31.9518 38.3349 33.3858C38.3349 35.6088 33.8129 37.4108 28.2329 37.4108C22.6529 37.4108 18.1309 35.6088 18.1309 33.3858C18.1309 31.9518 20.0249 30.6968 22.8649 29.9838ZM24.3469 32.2828L24.5839 29.6368L24.6129 29.2978L26.3069 10.2468C26.8059 10.4498 27.4289 10.5828 28.2329 10.5828C29.0369 10.5828 29.6599 10.4498 30.1589 10.2468L31.8749 29.5558L31.8808 29.6368L32.1159 32.2828C32.1159 32.2828 32.1339 32.3838 32.1339 32.4368C32.1339 33.2958 30.3869 33.9918 28.2329 33.9918C26.0789 33.9918 24.3329 33.2958 24.3329 32.4368C24.3329 32.3838 24.3469 32.2828 24.3469 32.2828ZM28.2329 7.68279C29.2059 7.68279 29.9949 7.95479 29.9949 8.29179C29.9949 8.62879 29.2059 8.90279 28.2329 8.90279C27.2599 8.90279 26.4709 8.62879 26.4709 8.29179C26.4709 7.95479 27.2599 7.68279 28.2329 7.68279ZM42.1909 42.1218L39.9818 33.0458C39.7398 30.6368 36.9789 29.0178 33.4449 28.2338L31.6749 8.30679C31.6749 8.30179 31.6758 8.29579 31.6758 8.29179C31.6758 7.23579 30.7749 6.00079 28.2329 6.00079C25.6909 6.00079 24.7899 7.23579 24.7899 8.29179C24.7899 8.29579 24.7909 8.30179 24.7909 8.30679L23.0199 28.2338C19.4859 29.0178 16.7259 30.6368 16.4839 33.0468L14.2809 42.1448C14.1549 42.5858 14.0219 43.1078 14.0219 43.7298C14.0219 47.8588 20.1309 50.9718 28.2329 50.9718C36.3349 50.9718 42.4439 47.8588 42.4439 43.7298C42.4439 43.2018 42.3589 42.6608 42.1909 42.1218Z" fill="black"/>
<path fill-rule="evenodd" clip-rule="evenodd" d="M19.2807 38.1381C19.0667 38.0851 18.8427 38.2191 18.7907 38.4361L17.1827 45.0101C17.1307 45.2281 17.2647 45.4481 17.4827 45.5001C17.5137 45.5091 17.5457 45.5121 17.5777 45.5121C17.7617 45.5121 17.9287 45.3881 17.9727 45.2021L19.5797 38.6281C19.6327 38.4101 19.4987 38.1901 19.2807 38.1381Z" fill="black"/>
</svg>
