<svg width="57" height="57" viewBox="0 0 57 57" fill="none" xmlns="http://www.w3.org/2000/svg">
<path fill-rule="evenodd" clip-rule="evenodd" d="M50.1399 31.7268C47.7129 32.1538 45.7799 32.2898 44.3239 32.2898C41.9479 32.2898 40.8219 31.9358 40.8219 31.9358C38.8999 32.2388 36.9249 32.8568 34.9099 32.8568C33.8199 32.8568 32.7179 32.6758 31.6049 32.1648C31.4689 32.1028 31.3319 32.0338 31.1939 31.9698C30.7369 31.7518 30.2799 31.5248 29.8229 31.2908C29.7979 31.2778 29.7729 31.2648 29.7479 31.2528C29.2889 31.0158 28.8329 30.7708 28.3769 30.5168C23.9949 28.0718 19.7209 24.8798 16.1179 21.8668C14.7999 20.7668 13.5719 19.6888 12.4599 18.6828C8.69791 15.2758 6.28191 12.6808 6.28191 12.6808L12.4009 11.5358C12.4009 11.5358 31.1799 30.8798 47.2549 31.6328C48.0159 31.6328 49.3859 31.7158 50.1609 31.7128C50.1529 31.7178 50.1469 31.7218 50.1399 31.7268ZM35.6989 34.0568C36.8719 33.9808 37.9019 33.7618 39.0379 33.5628C39.5579 33.4728 40.2799 33.2618 40.7659 33.1908C41.3559 33.2968 42.6959 33.5288 44.4939 33.5288C45.2549 33.5288 47.3749 33.3268 48.3919 33.0888C44.6969 35.2248 39.4769 35.3028 35.6989 34.0568ZM28.4039 44.3308L18.2359 25.7408C21.8549 28.5378 25.9139 31.2738 30.0099 33.2668L35.9859 43.3168L28.4039 44.3308ZM17.8759 12.8588L19.5459 15.6668C18.3949 14.7058 17.3809 13.8238 16.5229 13.0598L17.8759 12.8588ZM51.6669 31.7358C51.6399 31.4578 51.6529 31.5708 51.5839 31.2208C51.5169 30.8688 51.0009 30.4738 50.1539 30.4368C49.9759 30.4288 48.1719 30.3438 46.7219 30.1998C39.0939 29.6108 30.0099 23.8318 23.2799 18.6578L19.3219 11.9998C19.0159 11.4848 18.4629 11.1778 17.8769 11.1778C17.7949 11.1778 17.7119 11.1838 17.6289 11.1958L14.9149 11.6008C14.0869 10.8348 13.6119 10.3708 13.5829 10.3408C13.2649 10.0258 12.8389 9.8548 12.4009 9.8548C12.2979 9.8548 12.1949 9.8638 12.0919 9.8828L5.97191 11.0268C5.36991 11.1408 4.87691 11.5708 4.68491 12.1538C4.49291 12.7358 4.63391 13.3758 5.05091 13.8248C5.34091 14.1368 9.25191 18.3068 14.8069 22.9738L26.9299 45.1378C27.2279 45.6808 27.7959 46.0128 28.4039 46.0128C28.4779 46.0128 28.5529 46.0068 28.6279 45.9958L36.2089 44.9818C36.7689 44.9068 37.2529 44.5558 37.4999 44.0478C37.7449 43.5398 37.7199 42.9428 37.4309 42.4578L32.7929 34.6548C35.4159 35.8248 38.0979 36.2408 40.7319 36.2408C44.3069 36.2408 47.7929 35.4128 51.0789 33.1178C51.7099 32.6108 51.6939 32.0068 51.6669 31.7358Z" fill="black"/>
</svg>
