<svg width="57" height="57" viewBox="0 0 57 57" fill="none" xmlns="http://www.w3.org/2000/svg">
<path fill-rule="evenodd" clip-rule="evenodd" d="M26.6869 28.5936L10.0959 23.1866C10.0759 23.1786 10.0559 23.1726 10.0359 23.1656C10.0559 23.1606 10.0769 23.1556 10.0969 23.1496L23.8349 19.8026C25.1559 19.4806 27.5929 19.4726 28.9109 19.7816L47.3129 24.1026L31.5739 28.6736C30.2989 29.0436 27.9549 29.0066 26.6869 28.5936ZM44.5859 32.2156C44.2209 32.0956 43.8609 31.9826 43.5349 31.8836C43.0019 31.7206 42.4549 31.5706 41.9259 31.4256L41.8239 31.3976C41.2879 31.2586 40.7339 31.1126 40.1819 30.9866L39.3339 30.7936L39.0599 30.7386C38.8679 30.6986 38.6759 30.6576 38.4819 30.6246C38.4139 30.6126 38.3619 30.6516 38.3449 30.7126C38.3289 30.7726 38.3619 30.8336 38.4199 30.8556C38.5949 30.9206 38.7739 30.9806 38.9529 31.0386C39.0499 31.0716 39.1459 31.1036 39.2459 31.1376L40.0749 31.3916C40.6059 31.5556 41.1229 31.6976 41.7449 31.8676C42.2899 32.0096 42.8539 32.1586 43.4279 32.2886C43.7049 32.3536 43.9959 32.4196 44.2909 32.4836C44.0109 32.7136 43.7099 32.8976 43.4169 32.9936L29.7809 37.4176C28.8559 37.7186 27.0959 37.6656 26.1899 37.3126L15.8319 33.2636C15.5179 33.1406 15.1829 32.9246 14.8629 32.6626C15.0359 32.6366 15.2119 32.6076 15.3999 32.5756C15.4219 32.5916 15.4399 32.6136 15.4619 32.6276C15.5519 32.6876 15.6489 32.7326 15.7159 32.7626L15.9309 32.8536C16.2179 32.9726 16.5039 33.0866 16.7929 33.1996C17.9669 33.6436 19.1379 34.0596 20.2759 34.4336C21.6229 34.8806 22.7459 35.2206 23.8109 35.5066C23.8209 35.5106 23.8319 35.5116 23.8409 35.5116H23.8479C23.9129 35.5116 23.9669 35.4576 23.9669 35.3916C23.9669 35.3336 23.9269 35.2856 23.8729 35.2736C22.6669 34.7356 21.4819 34.2596 20.4789 33.8656C19.7419 33.5726 18.9989 33.2886 18.2589 33.0046C17.8529 32.8506 17.4499 32.6966 17.0449 32.5396C16.8879 32.4806 16.7329 32.4176 16.5769 32.3576C17.1839 32.2386 17.7889 32.1096 18.3619 31.9816C19.0429 31.8206 19.8439 31.6266 20.6289 31.4066C21.2459 31.2356 22.0569 30.9996 22.8709 30.7006C22.9279 30.6806 22.9609 30.6206 22.9479 30.5606C22.9339 30.5026 22.8749 30.4596 22.8189 30.4686C22.1339 30.5396 21.4179 30.6466 20.4929 30.8176C19.7019 30.9606 18.9239 31.1316 18.2009 31.2926C17.4769 31.4656 16.7009 31.6536 15.9349 31.8696C15.8579 31.8916 15.7689 31.9166 15.6849 31.9416C15.6389 31.9036 15.5899 31.8586 15.5339 31.8056C15.1329 31.4046 14.8359 30.8506 14.5909 30.3656C14.0499 29.2446 13.6509 28.0646 13.3039 26.9576C13.2849 26.8986 13.2279 26.8606 13.1619 26.8756C13.1009 26.8906 13.0619 26.9486 13.0689 27.0106C13.2689 28.3386 13.5869 29.5176 14.0419 30.6136C14.2479 31.1016 14.5239 31.6566 14.9479 32.1566C14.7919 32.2046 14.6319 32.2556 14.4679 32.3086C14.0189 31.8636 13.6409 31.3416 13.4619 30.8726L11.3119 25.2156L26.2069 30.0706C26.8979 30.2976 27.8129 30.4356 28.7709 30.4766C28.7579 30.6426 28.7359 30.8606 28.7099 31.1046C28.6589 31.5736 28.6029 32.1046 28.5999 32.4076C28.6039 32.8276 28.6109 33.3166 28.6479 33.7986C28.6829 34.3426 28.7389 34.7876 28.8169 35.1986C28.8289 35.2566 28.8789 35.2966 28.9349 35.2966C28.9929 35.2966 29.0419 35.2566 29.0529 35.2006C29.1319 34.7946 29.1859 34.3496 29.2219 33.8006C29.2579 33.3136 29.2659 32.8216 29.2699 32.4056C29.2659 31.9666 29.2569 31.4946 29.2219 31.0116C29.2079 30.8226 29.1919 30.6566 29.1749 30.4896C29.2219 30.4906 29.2679 30.4936 29.3149 30.4936C30.3209 30.4936 31.2749 30.3786 32.0059 30.1666L46.5999 25.9276L45.4749 30.7516C45.3599 31.2486 45.0149 31.7826 44.5859 32.2156ZM49.5589 24.0456C49.5419 23.3716 48.9589 22.8946 47.8249 22.6276L29.2669 18.2686C27.7059 17.9016 25.0329 17.9116 23.4669 18.2926L9.72892 21.6396C8.60792 21.9146 8.02592 22.4026 8.00092 23.0876C7.97592 23.7256 8.46192 24.2196 9.40492 24.5746L12.0099 31.4226C12.5229 32.7716 13.9219 34.1846 15.2649 34.7096L25.6249 38.7586C26.3129 39.0276 27.2499 39.1826 28.1929 39.1826C28.9689 39.1826 29.6839 39.0826 30.2629 38.8946L43.8959 34.4706C45.2959 34.0166 46.6539 32.5376 46.9889 31.1046L48.3139 25.4186C48.3169 25.4096 48.3129 25.4016 48.3149 25.3936C49.1399 25.0706 49.5749 24.6236 49.5589 24.0456Z" fill="black"/>
<path fill-rule="evenodd" clip-rule="evenodd" d="M41.2605 23.4466C39.3485 22.8826 37.3055 22.3266 34.6355 21.6426C33.9155 21.4546 33.1935 21.2746 32.4695 21.0966C32.0815 20.9996 31.6945 20.9046 31.3065 20.8056L28.7335 20.1896C28.6185 20.1626 28.4965 20.1326 28.3695 20.1076C28.2195 20.0796 28.0715 20.0546 27.9205 20.0346C27.3575 19.9656 26.7615 19.9446 26.1405 19.9646C25.6175 19.9866 24.9965 20.0296 24.3565 20.1886C23.9845 20.2856 23.6145 20.3806 23.2435 20.4766C22.5055 20.6646 21.7695 20.8536 21.0365 21.0526C18.3835 21.7536 16.3445 22.3276 14.4265 22.9096C14.3645 22.9286 14.3285 22.9916 14.3455 23.0546C14.3595 23.1146 14.4225 23.1536 14.4835 23.1426C16.4465 22.7786 18.5215 22.3496 21.2055 21.7516C21.9645 21.5866 22.7205 21.4126 23.4775 21.2376C23.8345 21.1556 24.1935 21.0716 24.5515 20.9896C25.0265 20.8836 25.5555 20.8236 26.1665 20.8066C26.7415 20.7926 27.3025 20.8186 27.8125 20.8866C27.9455 20.9026 28.0785 20.9216 28.2085 20.9466C28.3045 20.9646 28.4015 20.9876 28.5005 21.0096L31.1175 21.6116C31.4795 21.6906 31.8415 21.7716 32.2045 21.8516C32.9585 22.0206 33.7125 22.1886 34.4695 22.3446C37.1575 22.9216 39.2345 23.3326 41.2055 23.6796C41.2115 23.6816 41.2195 23.6816 41.2265 23.6816C41.2815 23.6816 41.3295 23.6456 41.3425 23.5896C41.3585 23.5266 41.3215 23.4656 41.2605 23.4466Z" fill="black"/>
</svg>
