<svg width="57" height="57" viewBox="0 0 57 57" fill="none" xmlns="http://www.w3.org/2000/svg">
<path fill-rule="evenodd" clip-rule="evenodd" d="M43.4558 27.9633C43.4118 27.6053 43.3548 27.2473 43.2878 26.8893L46.6018 25.9273L45.4768 30.7513C45.2708 31.6363 44.3498 32.6493 43.4818 32.9653C43.5228 32.6393 43.5508 32.3133 43.5728 31.9883C43.6138 31.3153 43.6238 30.6443 43.6048 29.9733C43.5838 29.3013 43.5348 28.6323 43.4558 27.9633ZM40.4228 28.7413C40.3818 28.4153 40.3338 28.0893 40.2738 27.7643L42.8928 27.0033C42.8528 27.3303 42.8248 27.6563 42.8018 27.9833C42.7608 28.6553 42.7528 29.3263 42.7718 29.9963C42.7898 30.6673 42.8388 31.3373 42.9178 32.0063C42.9638 32.3703 43.0208 32.7343 43.0908 33.0983L40.4128 33.9673C40.4698 33.5653 40.5138 33.1653 40.5408 32.7653C40.5818 32.0933 40.5908 31.4203 40.5708 30.7493C40.5508 30.0793 40.5018 29.4103 40.4228 28.7413ZM36.5338 29.7513C36.4978 29.4643 36.4538 29.1773 36.4038 28.8893L39.8508 27.8883C39.8188 28.1783 39.7888 28.4693 39.7708 28.7593C39.7278 29.4313 39.7198 30.1043 39.7378 30.7743C39.7578 31.4453 39.8058 32.1143 39.8858 32.7833C39.9398 33.2133 40.0138 33.6403 40.1028 34.0673L36.4788 35.2443C36.5618 34.7543 36.6208 34.2653 36.6528 33.7753C36.6928 33.1043 36.7018 32.4323 36.6818 31.7613C36.6628 31.0913 36.6148 30.4223 36.5338 29.7513ZM33.1888 30.6073C33.1588 30.3563 33.1178 30.1063 33.0768 29.8553L35.9508 29.0203C35.9248 29.2703 35.8978 29.5213 35.8828 29.7703C35.8408 30.4423 35.8308 31.1143 35.8498 31.7853C35.8688 32.4573 35.9168 33.1263 35.9968 33.7953C36.0608 34.3023 36.1518 34.8073 36.2688 35.3113L33.0928 36.3433C33.2028 35.7713 33.2708 35.2013 33.3098 34.6303C33.3498 33.9583 33.3588 33.2873 33.3388 32.6163C33.3178 31.9463 33.2708 31.2763 33.1888 30.6073ZM21.7028 31.8883C21.6488 31.1743 21.5658 30.4623 21.4518 29.7503C21.3788 29.3103 21.2868 28.8713 21.1808 28.4323L24.4018 29.4813C24.3648 29.8363 24.3408 30.1893 24.3288 30.5423C24.3128 31.1773 24.3268 31.8123 24.3708 32.4433C24.4138 33.0753 24.4868 33.7053 24.5908 34.3333C24.6978 34.9603 24.8328 35.5863 25.0488 36.2063C25.1788 35.5633 25.2238 34.9243 25.2448 34.2883C25.2618 33.6523 25.2468 33.0183 25.2018 32.3873C25.1578 31.7533 25.0858 31.1243 24.9808 30.4973C24.9298 30.2013 24.8718 29.9063 24.8038 29.6133L26.2088 30.0703C26.8428 30.2773 27.6608 30.4153 28.5268 30.4683C28.4678 30.7073 28.4198 30.9463 28.3828 31.1873C28.3168 31.6333 28.2838 32.0803 28.2778 32.5263C28.2718 32.9743 28.2958 33.4223 28.3528 33.8693C28.4108 34.3173 28.4958 34.7653 28.6648 35.2153C28.8428 34.7683 28.9368 34.3223 29.0078 33.8773C29.0728 33.4303 29.1068 32.9843 29.1108 32.5363C29.1138 32.0893 29.0908 31.6423 29.0358 31.1943C29.0038 30.9563 28.9618 30.7183 28.9078 30.4803C29.0448 30.4843 29.1788 30.4943 29.3178 30.4943C30.3218 30.4943 31.2788 30.3773 32.0088 30.1663L32.5958 29.9943C32.5758 30.2053 32.5518 30.4163 32.5388 30.6253C32.4978 31.2983 32.4888 31.9703 32.5058 32.6403C32.5258 33.3123 32.5728 33.9813 32.6538 34.6503C32.7258 35.2283 32.8278 35.8053 32.9768 36.3813L29.7848 37.4163C28.8578 37.7183 27.0978 37.6653 26.1918 37.3113L21.6828 35.5493C21.7348 35.0433 21.7658 34.5393 21.7738 34.0383C21.7828 33.3193 21.7568 32.6023 21.7028 31.8883ZM18.3778 30.7113C18.3048 29.9773 18.2028 29.2473 18.0698 28.5183C17.9938 28.1213 17.9068 27.7273 17.8098 27.3323L20.8868 28.3363C20.8408 28.8253 20.8098 29.3133 20.8008 29.8003C20.7938 30.5183 20.8188 31.2363 20.8718 31.9513C20.9248 32.6653 21.0068 33.3773 21.1218 34.0863C21.1968 34.5383 21.2928 34.9893 21.4008 35.4393L18.4718 34.2943C18.4988 33.8353 18.5118 33.3783 18.5078 32.9213C18.4948 32.1833 18.4508 31.4453 18.3778 30.7113ZM15.4898 29.6023C15.4128 28.8573 15.3058 28.1173 15.1678 27.3803C15.1028 27.0533 15.0328 26.7273 14.9548 26.4023L17.4528 27.2173C17.4268 27.6723 17.4148 28.1293 17.4188 28.5823C17.4318 29.3233 17.4758 30.0603 17.5478 30.7943C17.6218 31.5283 17.7218 32.2593 17.8558 32.9863C17.9298 33.3763 18.0128 33.7663 18.1098 34.1523L15.8328 33.2633C15.7618 33.2353 15.6878 33.1953 15.6148 33.1583C15.6358 32.7173 15.6428 32.2783 15.6348 31.8413C15.6178 31.0923 15.5688 30.3443 15.4898 29.6023ZM14.5278 26.2633C14.5138 26.6593 14.5128 27.0533 14.5178 27.4473C14.5358 28.1973 14.5838 28.9433 14.6608 29.6883C14.7398 30.4313 14.8448 31.1723 14.9838 31.9103C15.0488 32.2463 15.1208 32.5813 15.2008 32.9153C14.4618 32.4103 13.7338 31.5823 13.4638 30.8723L11.3118 25.2143L14.5278 26.2633ZM31.5748 28.6723C30.2968 29.0443 27.9528 29.0053 26.6898 28.5933L10.0978 23.1853C10.0768 23.1783 10.0568 23.1713 10.0378 23.1643C10.0568 23.1593 10.0778 23.1533 10.0988 23.1503L23.8368 19.8033C25.1598 19.4793 27.5938 19.4703 28.9118 19.7813L47.3148 24.1013L31.5748 28.6723ZM49.5598 24.0443C49.5428 23.3703 48.9608 22.8933 47.8268 22.6283L29.2688 18.2683C27.7028 17.9013 25.0318 17.9123 23.4688 18.2923L9.73078 21.6403C8.60878 21.9133 8.02678 22.4003 8.00078 23.0883C7.97778 23.7253 8.46478 24.2203 9.40678 24.5743L12.0118 31.4213C12.5148 32.7483 13.9448 34.1923 15.2678 34.7093L25.6258 38.7583C26.3238 39.0313 27.2368 39.1823 28.1958 39.1823C28.9698 39.1823 29.6848 39.0823 30.2628 38.8943L43.8998 34.4703C45.2998 34.0143 46.6568 32.5373 46.9898 31.1043L48.3138 25.4163C48.3158 25.4093 48.3128 25.4003 48.3148 25.3933C49.1398 25.0703 49.5758 24.6233 49.5598 24.0443Z" fill="black"/>
<path fill-rule="evenodd" clip-rule="evenodd" d="M41.3156 23.4455C39.3976 22.8805 37.3536 22.3245 34.6906 21.6425C33.9636 21.4525 33.2366 21.2725 32.5096 21.0925C32.1256 20.9965 31.7456 20.9025 31.3616 20.8055L28.7606 20.1825C28.6536 20.1575 28.5416 20.1305 28.4246 20.1075C28.2756 20.0795 28.1256 20.0535 27.9746 20.0335C27.4116 19.9655 26.8196 19.9445 26.1956 19.9635C25.6686 19.9865 25.0466 20.0295 24.4106 20.1885C24.0346 20.2865 23.6606 20.3825 23.2856 20.4795C22.5526 20.6655 21.8196 20.8535 21.0916 21.0515C18.4266 21.7575 16.3886 22.3305 14.4796 22.9095C14.4176 22.9275 14.3816 22.9915 14.3966 23.0525C14.4126 23.1135 14.4696 23.1525 14.5356 23.1435C16.4966 22.7795 18.5706 22.3505 21.2606 21.7515C22.0206 21.5855 22.7786 21.4095 23.5366 21.2355C23.8936 21.1535 24.2496 21.0705 24.6036 20.9895C25.0816 20.8825 25.6106 20.8235 26.2216 20.8065C26.7906 20.7905 27.3566 20.8175 27.8666 20.8855C28.0006 20.9015 28.1326 20.9225 28.2636 20.9465C28.3566 20.9635 28.4506 20.9845 28.5496 21.0085L31.1736 21.6115C31.5536 21.6945 31.9326 21.7785 32.3116 21.8625C33.0486 22.0255 33.7866 22.1905 34.5236 22.3445C37.1666 22.9105 39.3076 23.3345 41.2616 23.6795C41.2676 23.6805 41.2756 23.6815 41.2816 23.6815C41.3376 23.6815 41.3856 23.6435 41.3986 23.5885C41.4136 23.5265 41.3776 23.4655 41.3156 23.4455Z" fill="black"/>
</svg>
