<svg width="57" height="57" viewBox="0 0 57 57" fill="none" xmlns="http://www.w3.org/2000/svg">
<path fill-rule="evenodd" clip-rule="evenodd" d="M45.45 16.8V40.405C45.45 42.221 43.973 43.7 42.158 43.7H14.798C12.983 43.7 11.505 42.221 11.505 40.405V16.8C11.505 14.982 12.983 13.505 14.798 13.505H42.158C43.973 13.505 45.45 14.982 45.45 16.8ZM42.158 12H14.798C12.152 12 10 14.154 10 16.8V40.405C10 43.052 12.152 45.204 14.798 45.204H42.158C44.804 45.204 46.956 43.052 46.956 40.405V16.8C46.956 14.154 44.804 12 42.158 12Z" fill="black"/>
<path fill-rule="evenodd" clip-rule="evenodd" d="M21.2414 23.0653V21.7323C21.2414 20.8913 22.2604 20.1803 23.4684 20.1803H25.1464C25.5604 20.1803 25.8994 19.8413 25.8994 19.4263C25.8994 18.0043 27.0554 16.8493 28.4754 16.8493C29.8974 16.8493 31.0544 18.0043 31.0544 19.4263C31.0544 19.8413 31.3924 20.1803 31.8074 20.1803H33.4824C34.6894 20.1803 35.7104 20.8913 35.7104 21.7323V23.0653C35.7104 23.9073 34.6894 24.6203 33.4824 24.6203H23.4684C22.2604 24.6203 21.2414 23.9073 21.2414 23.0653ZM23.4684 26.1243H33.4824C35.5414 26.1243 37.2154 24.7523 37.2154 23.0653V21.7323C37.2154 20.0473 35.5414 18.6753 33.4824 18.6753H32.4904C32.1304 16.7673 30.4274 15.3443 28.4754 15.3443C26.5214 15.3443 24.8214 16.7673 24.4654 18.6753H23.4684C21.4114 18.6753 19.7384 20.0473 19.7384 21.7323V23.0653C19.7384 24.7523 21.4114 26.1243 23.4684 26.1243Z" fill="black"/>
<path fill-rule="evenodd" clip-rule="evenodd" d="M21.2466 28.6009H20.2366C20.1176 28.6009 20.0216 28.6989 20.0216 28.8169V29.2229C20.0216 29.3419 20.1176 29.4369 20.2366 29.4369H21.2466C21.3646 29.4369 21.4626 29.3419 21.4626 29.2229V28.8169C21.4626 28.6989 21.3646 28.6009 21.2466 28.6009Z" fill="black"/>
<path fill-rule="evenodd" clip-rule="evenodd" d="M34.3565 28.6009H32.1735C32.0555 28.6009 31.9575 28.6989 31.9575 28.8169V29.2229C31.9575 29.3419 32.0555 29.4369 32.1735 29.4369H34.3565C34.4745 29.4369 34.5715 29.3419 34.5715 29.2229V28.8169C34.5715 28.6989 34.4745 28.6009 34.3565 28.6009Z" fill="black"/>
<path fill-rule="evenodd" clip-rule="evenodd" d="M29.9869 28.6009H27.8019C27.6839 28.6009 27.5859 28.6989 27.5859 28.8169V29.2229C27.5859 29.3419 27.6839 29.4369 27.8019 29.4369H29.9869C30.1049 29.4369 30.2029 29.3419 30.2029 29.2229V28.8169C30.2029 28.6989 30.1049 28.6009 29.9869 28.6009Z" fill="black"/>
<path fill-rule="evenodd" clip-rule="evenodd" d="M38.7261 28.6009H36.5421C36.4241 28.6009 36.3271 28.6989 36.3271 28.8169V29.2229C36.3271 29.3419 36.4241 29.4369 36.5421 29.4369H38.7261C38.8441 29.4369 38.9421 29.3419 38.9421 29.2229V28.8169C38.9421 28.6989 38.8441 28.6009 38.7261 28.6009Z" fill="black"/>
<path fill-rule="evenodd" clip-rule="evenodd" d="M25.6184 28.6009H23.4324C23.3144 28.6009 23.2174 28.6989 23.2174 28.8169V29.2229C23.2174 29.3419 23.3144 29.4369 23.4324 29.4369H25.6184C25.7364 29.4369 25.8334 29.3419 25.8334 29.2229V28.8169C25.8334 28.6989 25.7364 28.6009 25.6184 28.6009Z" fill="black"/>
<path fill-rule="evenodd" clip-rule="evenodd" d="M42.1257 28.6009H40.9147C40.7947 28.6009 40.6987 28.6989 40.6987 28.8169V29.2229C40.6987 29.3419 40.7947 29.4369 40.9147 29.4369H41.5047V30.0299C41.5047 30.1499 41.6007 30.2459 41.7187 30.2459H42.1257C42.2437 30.2459 42.3417 30.1499 42.3417 30.0299V28.8169C42.3417 28.6989 42.2437 28.6009 42.1257 28.6009Z" fill="black"/>
<path fill-rule="evenodd" clip-rule="evenodd" d="M42.1257 31.8288H41.7187C41.6007 31.8288 41.5047 31.9258 41.5047 32.0438V34.0598C41.5047 34.1788 41.6007 34.2758 41.7187 34.2758H42.1257C42.2437 34.2758 42.3417 34.1788 42.3417 34.0598V32.0438C42.3417 31.9258 42.2437 31.8288 42.1257 31.8288Z" fill="black"/>
<path fill-rule="evenodd" clip-rule="evenodd" d="M42.1257 35.8596H41.7187C41.6007 35.8596 41.5047 35.9566 41.5047 36.0746V38.0896C41.5047 38.2076 41.6007 38.3036 41.7187 38.3036H42.1257C42.2437 38.3036 42.3417 38.2076 42.3417 38.0896V36.0746C42.3417 35.9566 42.2437 35.8596 42.1257 35.8596Z" fill="black"/>
<path fill-rule="evenodd" clip-rule="evenodd" d="M42.1257 39.8872H41.7187C41.6007 39.8872 41.5047 39.9842 41.5047 40.1022V41.1152C41.5047 41.2332 41.6007 41.3292 41.7187 41.3292H42.1257C42.2437 41.3292 42.3417 41.2332 42.3417 41.1152V40.1022C42.3417 39.9842 42.2437 39.8872 42.1257 39.8872Z" fill="black"/>
</svg>
