<svg width="57" height="57" viewBox="0 0 57 57" fill="none" xmlns="http://www.w3.org/2000/svg">
<path fill-rule="evenodd" clip-rule="evenodd" d="M40.7921 44.7614C40.7721 44.7944 40.7331 44.8084 40.7051 44.8154L28.3371 47.4924C28.1851 47.5184 28.0051 47.4124 27.9621 47.2734L27.2681 45.0324L28.0261 45.5414C28.3021 45.8154 28.6721 45.9944 29.0791 45.9944C29.1851 45.9944 29.2911 45.9824 29.3931 45.9594L38.6441 43.8864C38.9771 43.8124 39.2421 43.6114 39.4321 43.3434C39.5031 43.3064 39.5641 43.2514 39.6101 43.1814C39.6871 43.0624 39.7011 42.9234 39.6671 42.7964C39.6971 42.5934 39.6851 42.3844 39.6191 42.1784L29.5601 11.0514C29.3501 10.4024 28.6701 9.9144 27.9801 9.9144C27.9651 9.9144 27.8551 9.9204 27.8411 9.9214L18.5191 10.8104C18.1311 10.8484 17.7931 11.0434 17.5901 11.3484C17.4111 11.6184 17.3611 11.9534 17.4311 12.2864C17.4281 12.5544 17.4251 12.8794 17.4201 13.2434L16.3561 9.8104L28.7121 8.6344C28.9031 8.6344 29.1371 8.7974 29.1951 8.9704L40.7941 44.6594C40.8081 44.6994 40.8071 44.7354 40.7921 44.7614ZM19.6721 38.3874C18.4251 37.5874 18.2461 37.3294 18.2461 35.1644C18.2461 34.0664 18.3521 29.8104 18.4651 25.3044C18.4881 24.4044 18.5111 23.4904 18.5331 22.5824L24.4201 41.5344C22.3881 40.1754 20.3851 38.8424 19.6721 38.3874ZM18.3441 15.2454L27.3151 43.9074L26.8151 43.5734L18.3241 16.1644C18.3321 15.8474 18.3381 15.5414 18.3441 15.2454ZM29.5721 37.2844C30.8751 38.0894 36.5891 41.7934 38.3881 42.9604L29.1841 45.0224C29.1491 45.0304 29.1151 45.0334 29.0791 45.0334C29.0271 45.0334 28.9761 45.0224 28.9271 45.0084C28.9061 44.9894 28.8921 44.9654 28.8681 44.9504L28.6211 44.7844C28.5961 44.7454 28.5711 44.7054 28.5581 44.6604L18.3921 12.1854C18.3921 12.0944 18.3941 11.9974 18.3941 11.9204C18.3941 11.9094 18.3881 11.9004 18.3871 11.8904C18.3891 11.8874 18.3891 11.8824 18.3911 11.8794C18.4331 11.8154 18.5111 11.7764 18.6101 11.7664L27.9801 10.8754C27.9991 10.8754 28.0181 10.8844 28.0381 10.8854C28.0261 12.9314 27.8811 18.4954 27.7541 23.4384C27.6401 27.8384 27.5311 31.9944 27.5311 33.0784C27.5311 35.5264 27.8751 36.2344 29.5721 37.2844ZM30.0781 36.4674C28.6691 35.5964 28.4921 35.2164 28.4921 33.0784C28.4921 32.0064 28.5991 27.8574 28.7131 23.4634C28.8171 19.4364 28.9321 15.0004 28.9781 12.3764L38.5191 41.8994C36.3921 40.5214 31.3031 37.2244 30.0781 36.4674ZM42.3941 44.1404L30.7921 8.4514C30.4921 7.5244 29.5031 6.8704 28.5261 6.9624L16.1951 8.1374C15.6651 8.1874 15.2001 8.4574 14.9211 8.8774C14.6421 9.2974 14.5721 9.8294 14.7301 10.3394L16.9721 17.5564C16.9191 19.9084 16.8501 22.6444 16.7841 25.2624C16.6731 29.7784 16.5651 34.0444 16.5651 35.1644C16.5651 37.6654 16.8541 38.5784 18.7661 39.8024C19.6701 40.3814 22.7151 42.4144 25.2141 44.0884L26.3571 47.7704C26.6141 48.5994 27.4051 49.1774 28.2841 49.1774C28.4221 49.1774 28.5591 49.1644 28.6931 49.1344L41.0601 46.4564C41.5651 46.3494 41.9981 46.0354 42.2491 45.5984C42.5001 45.1624 42.5521 44.6314 42.3941 44.1404Z" fill="black"/>
</svg>
