<svg width="57" height="57" viewBox="0 0 57 57" fill="none" xmlns="http://www.w3.org/2000/svg">
<path fill-rule="evenodd" clip-rule="evenodd" d="M21.2048 44.1915L22.4108 43.9245V44.5085C22.4098 44.7395 22.3568 44.8425 22.3368 44.8675L22.3088 44.8735C22.2688 44.8755 22.1658 44.8675 22.0058 44.7655L21.2048 44.1915ZM15.5078 44.3075V14.3035L37.2468 11.8095V13.5875L36.0888 13.0285C35.9338 12.9525 35.7688 12.9485 35.6148 12.9865C35.5988 12.9875 35.5848 12.9805 35.5678 12.9835L17.0318 15.1965C16.6738 15.2385 16.4048 15.5425 16.4048 15.9025V42.1425C16.4048 42.1615 16.4148 42.1775 16.4158 42.1975C16.4198 42.2465 16.4308 42.2925 16.4438 42.3405C16.4578 42.3835 16.4708 42.4245 16.4908 42.4625C16.5108 42.5015 16.5358 42.5375 16.5648 42.5735C16.5948 42.6115 16.6248 42.6475 16.6638 42.6785C16.6778 42.6915 16.6868 42.7095 16.7028 42.7215L18.1138 43.7305L15.5078 44.3075ZM41.0718 18.3725L40.9358 40.2315C40.9348 40.4935 40.8628 40.5955 40.8368 40.6085C40.8278 40.6095 40.8218 40.6165 40.8128 40.6175C40.8018 40.6195 40.7918 40.6165 40.7828 40.6185L40.2978 40.7305L36.0578 38.0955V17.9945L37.5518 17.7935V33.3545C37.5518 33.5795 37.7338 33.7615 37.9588 33.7615C38.1828 33.7615 38.3648 33.5795 38.3648 33.3545V17.6855L39.4848 17.5345C39.8748 17.4825 40.1478 17.1235 40.0958 16.7355C40.0848 16.6585 40.0548 16.5925 40.0238 16.5255C40.6018 16.9005 41.0768 17.7115 41.0718 18.3725ZM17.8278 17.3505L21.1978 18.9765C21.8488 19.2905 22.4148 20.1995 22.4098 20.9255L22.4108 40.6365L17.8278 41.5805V17.3505ZM35.2438 14.4545V16.6685L25.5688 17.9665C25.1778 18.0185 24.9048 18.3775 24.9578 18.7665C25.0058 19.1245 25.3118 19.3835 25.6618 19.3835C25.6948 19.3835 25.7258 19.3815 25.7578 19.3775L35.2438 18.1025V37.9905L23.8348 40.3425L23.8338 20.9315C23.8418 19.6655 22.9548 18.2435 21.8168 17.6935L19.0978 16.3815L35.2438 14.4545ZM37.5518 15.3145V16.3575L36.0578 16.5595V14.5935L37.5518 15.3145ZM39.2438 16.1315L38.3648 16.2485V15.7075L39.2438 16.1315ZM18.5168 42.2685L22.4108 41.4655V43.0925L20.3158 43.5565L18.5168 42.2685ZM34.3778 40.8585C34.3298 40.6425 34.1188 40.5045 33.8918 40.5515L23.8348 42.7765V41.1725L35.5738 38.7515L39.1738 40.9895L23.8338 44.5235C23.8338 44.5195 23.8348 44.5155 23.8348 44.5125V43.6105L34.0688 41.3445C34.2878 41.2965 34.4258 41.0785 34.3778 40.8585ZM40.4778 15.1475L38.6698 14.2745V11.0105C38.6698 10.8085 38.5828 10.6145 38.4328 10.4805C38.2808 10.3455 38.0788 10.2805 37.8768 10.3045L14.7168 12.9635C14.3568 13.0045 14.0858 13.3085 14.0858 13.6695V45.1945C14.0858 45.4105 14.1818 45.6145 14.3508 45.7495C14.4788 45.8515 14.6358 45.9065 14.7968 45.9065C14.8488 45.9065 14.9008 45.9005 14.9508 45.8885L19.6718 44.8445L21.2078 45.9435C21.5768 46.1805 21.9568 46.2995 22.3138 46.2995C22.3378 46.2995 22.3588 46.2925 22.3828 46.2925C22.3878 46.2925 22.3938 46.2945 22.3988 46.2945C22.4508 46.2945 22.5048 46.2905 22.5588 46.2775L22.6078 46.2655C22.6458 46.2575 22.6828 46.2485 22.7198 46.2395L41.1018 42.0055C41.1068 42.0045 41.1088 41.9995 41.1128 41.9995C41.8668 41.8515 42.3548 41.1715 42.3598 40.2385L42.4958 18.3825C42.5038 17.1175 41.6178 15.6955 40.4778 15.1475Z" fill="black"/>
</svg>
