<svg width="57" height="57" viewBox="0 0 57 57" fill="none" xmlns="http://www.w3.org/2000/svg">
<path fill-rule="evenodd" clip-rule="evenodd" d="M19.6648 33.5961C19.3868 30.9601 20.1918 29.1171 20.6738 28.2781L32.7858 20.9621C32.3268 22.0751 31.9058 23.7261 32.1318 25.8681C32.4298 28.7211 33.0538 30.4511 33.4648 31.3321L20.9668 38.8691C20.6068 38.1231 19.9668 36.4601 19.6648 33.5961ZM9.71778 34.8941L19.2758 29.1221C18.8738 30.2231 18.5478 31.7581 18.7518 33.6901C19.0748 36.7661 19.7728 38.5391 20.1768 39.3461L14.5168 42.7601C13.9798 42.7601 12.0998 42.0921 10.7838 39.9421C9.41078 37.7001 9.53078 35.1841 9.71778 34.8941ZM44.9968 18.9891C43.7158 16.8961 43.3548 15.4281 43.3128 14.8371C43.8598 15.1721 45.0168 16.2481 46.2318 18.2321C47.5068 20.3171 47.8798 21.7951 47.9298 22.3951C47.3878 22.0691 46.2218 20.9921 44.9968 18.9891ZM34.3068 20.0431L41.7548 15.5441C41.9968 16.8541 42.7538 18.4651 43.5978 19.8451C43.9128 20.3601 45.1838 22.3501 46.5658 23.4301L34.2588 30.8531C33.8888 30.0301 33.3238 28.4131 33.0448 25.7721C32.7078 22.5711 33.9758 20.5181 34.3068 20.0431ZM47.6308 17.3781C46.5518 15.6151 44.9058 13.5991 43.5398 13.1741C43.2778 12.9771 42.9028 12.9361 42.6138 13.1091L8.86778 33.4921L8.77978 33.5461C8.64578 33.6291 8.53678 33.7491 8.50378 33.8341C7.64678 34.9851 7.84678 38.2791 9.38478 40.7981C10.8138 43.1291 13.0918 44.3881 14.5128 44.3881C14.6868 44.3881 14.8528 44.3691 14.9428 44.3411C15.0738 44.3311 15.1968 44.2931 15.3098 44.2261L48.8718 23.9531C48.8748 23.9511 48.8778 23.9511 48.8808 23.9491C48.8848 23.9481 48.8878 23.9441 48.8908 23.9421L49.1408 23.7911C49.3288 23.6781 49.4618 23.4981 49.5128 23.2851C49.5428 23.1661 49.5388 23.0451 49.5148 22.9281C49.7528 21.5341 48.7728 19.2451 47.6308 17.3781Z" fill="black"/>
</svg>
