<svg width="57" height="57" viewBox="0 0 57 57" fill="none" xmlns="http://www.w3.org/2000/svg">
<path fill-rule="evenodd" clip-rule="evenodd" d="M30.3387 17.5416L33.9617 13.2976L45.0847 16.4386L41.2957 21.4556L30.3387 17.5416ZM36.5227 33.6446L30.6997 28.7566L41.6407 23.7056L47.1297 27.6766L36.5227 33.6446ZM29.8347 42.7846L29.7917 30.1986L35.9237 35.3466C36.1827 35.5616 36.5687 35.5986 36.8687 35.4336L40.3707 33.4646L40.4497 36.0256L29.8347 42.7846ZM21.1697 35.4626C21.4657 35.6216 21.8487 35.5796 22.1057 35.3606L28.0877 30.2206L28.1307 42.9466L17.4307 37.4846L17.4187 33.4686L21.1697 35.4626ZM27.1587 28.7896L21.4747 33.6736L10.5857 27.8776L16.0677 23.8876L27.1587 28.7896ZM28.5647 27.5886L17.8087 22.8346L28.5077 18.8506L28.5647 27.5886ZM29.5847 27.4376L29.5307 19.0226L39.8347 22.7036L29.5847 27.4376ZM16.4697 21.5556L12.4907 16.4196L23.5957 13.0866L27.4097 17.4796L16.4697 21.5556ZM49.1597 27.0906L42.6757 22.3956L47.1507 16.4716C47.3157 16.2506 47.3627 15.9646 47.2747 15.7026C47.1857 15.4406 46.9757 15.2416 46.7117 15.1666L33.8987 11.5476C33.5907 11.4636 33.2477 11.5676 33.0397 11.8096L28.9027 16.6576L24.5017 11.5876C24.2917 11.3426 23.9427 11.2396 23.6327 11.3336L10.8477 15.1706C10.5857 15.2496 10.3797 15.4526 10.2947 15.7156C10.2097 15.9776 10.2607 16.2626 10.4297 16.4806L15.1097 22.5226L8.5267 27.3146C8.2927 27.4846 8.1657 27.7596 8.1867 28.0466C8.2067 28.3356 8.3717 28.5896 8.6267 28.7246L15.7507 32.5156L15.7647 37.9976C15.7657 38.3126 15.9407 38.5956 16.2177 38.7376L28.5917 45.0506C28.7077 45.1116 28.8317 45.1156 28.9507 45.1426L28.9747 45.1436H28.9807C29.0107 45.1436 29.0367 45.1286 29.0657 45.1256C29.1407 45.1206 29.2117 45.1066 29.2817 45.0826C29.2987 45.0756 29.3147 45.0686 29.3297 45.0596C29.3727 45.0426 29.4157 45.0296 29.4557 45.0036L41.7457 37.1756C41.9927 37.0196 42.1407 36.7396 42.1317 36.4476L42.0077 32.4706L49.0807 28.4916C49.3287 28.3526 49.4857 28.0986 49.5047 27.8126C49.5197 27.5276 49.3907 27.2576 49.1597 27.0906Z" fill="black"/>
</svg>
