<svg width="57" height="57" viewBox="0 0 57 57" fill="none" xmlns="http://www.w3.org/2000/svg">
<path fill-rule="evenodd" clip-rule="evenodd" d="M25.4254 39.499L25.2974 36.151C25.2974 36.139 25.2894 36.129 25.2884 36.118L48.3944 25.412L48.2924 28.035L25.4254 39.499ZM9.66138 25.608L9.50438 24.263L18.2224 31.838C18.1994 31.907 18.1614 31.965 18.1494 32.041C18.0954 32.393 18.1494 32.921 18.7154 33.447C19.5094 34.183 20.5424 34.189 21.2634 34.017L24.1074 36.162C24.1804 36.216 24.2594 36.256 24.3414 36.285L24.4474 39.029L9.66138 25.608ZM29.9704 16.777L43.1694 22.934C43.3554 23.02 43.5804 23.029 43.7774 22.974C43.7784 22.973 44.2904 22.901 44.6004 23.047C44.6004 23.085 44.6014 23.123 44.6064 23.162C44.6394 23.451 44.8214 23.704 45.0854 23.827L46.4044 24.441L24.7174 34.516L21.9294 32.414C21.6884 32.232 21.3674 32.193 21.0894 32.313C21.0834 32.317 20.3774 32.598 19.9264 32.269C19.9314 32.267 19.9354 32.263 19.9404 32.261C20.1984 32.14 20.3764 31.896 20.4144 31.614C20.4524 31.332 20.3434 31.049 20.1274 30.864L10.3884 22.505L29.9704 16.777ZM49.6124 24.082L46.3414 22.559C46.2394 22.181 45.9444 21.859 45.4594 21.598C45.0394 21.371 44.5754 21.256 44.0844 21.256C43.9084 21.256 43.7524 21.27 43.6244 21.291L30.3934 15.12C30.2074 15.032 29.9984 15.017 29.8024 15.076L8.18138 21.4C8.15638 21.407 8.13838 21.424 8.11338 21.434C8.07038 21.45 8.03138 21.47 7.99138 21.494C7.93638 21.527 7.88738 21.565 7.84238 21.61C7.82438 21.628 7.79938 21.636 7.78238 21.655C7.77138 21.668 7.76938 21.685 7.75838 21.698C7.71738 21.752 7.68838 21.809 7.65938 21.872C7.64438 21.907 7.62538 21.939 7.61438 21.976C7.59738 22.037 7.59438 22.103 7.59138 22.169C7.58938 22.207 7.58038 22.245 7.58338 22.283C7.58538 22.291 7.58138 22.297 7.58238 22.305L8.02838 26.117C8.05138 26.318 8.14738 26.506 8.29838 26.643L24.4244 41.281C24.5834 41.423 24.7844 41.499 24.9904 41.499C25.1174 41.499 25.2464 41.468 25.3654 41.409L49.4884 29.315C49.7624 29.177 49.9394 28.903 49.9524 28.596L50.0964 24.878C50.1114 24.539 49.9194 24.225 49.6124 24.082Z" fill="black"/>
</svg>
