<svg width="57" height="57" viewBox="0 0 57 57" fill="none" xmlns="http://www.w3.org/2000/svg">
<path fill-rule="evenodd" clip-rule="evenodd" d="M43.316 33.6433C42.964 33.7783 42.03 34.0283 39.98 34.0283C39.351 34.0283 38.798 33.9873 38.309 33.9133L39.302 30.5823C41.567 29.8783 43.359 29.2883 44.767 28.7803L43.316 33.6433ZM32.466 36.8193C31.159 36.8193 30.34 36.6553 29.846 36.4913L30.804 33.2823C32.186 32.8553 33.623 32.3913 35 31.9443C35.847 31.6693 36.648 31.4103 37.37 31.1813L36.47 34.2043C36.455 34.2363 36.429 34.2613 36.419 34.2973C36.408 34.3343 36.414 34.3703 36.409 34.4053L35.804 36.4333C35.45 36.5693 34.518 36.8193 32.466 36.8193ZM23.864 39.8663C21.593 39.8663 20.79 39.3743 20.617 39.2593L19.086 33.7923C19.345 33.8943 19.603 33.9943 19.86 34.0883C19.869 34.0913 19.878 34.0963 19.886 34.1003C19.888 34.1013 19.891 34.1003 19.891 34.1003C21.243 34.5913 22.564 34.9353 23.734 34.9353C24.812 34.9353 26.699 34.4863 28.879 33.8573L27.202 39.4803C26.847 39.6143 25.915 39.8663 23.864 39.8663ZM16.093 36.3093C13.822 36.3093 13.018 35.8193 12.847 35.7023L11.369 30.4423C12.035 30.7283 12.779 31.0373 13.614 31.3783C14.344 31.6753 15.146 32.0443 15.985 32.4313C16.351 32.5993 16.724 32.7693 17.102 32.9403L18.019 36.2123C17.534 36.2683 16.914 36.3093 16.093 36.3093ZM16.687 30.9043C15.825 30.5063 15 30.1273 14.248 29.8213C13.544 29.5343 12.602 29.1483 11.692 28.7483C11.767 28.6693 11.841 28.5873 11.905 28.5013C12.035 28.3273 12.431 27.7983 14.672 28.9043C17.059 30.0813 17.353 30.7213 17.622 31.3313C17.307 31.1883 16.995 31.0453 16.687 30.9043ZM12.847 19.7513L12.874 19.7453L24.685 23.3713C24.732 23.3853 24.779 23.3933 24.827 23.3933C24.865 23.3933 24.905 23.3873 24.943 23.3783L30.47 21.9973L31.4 25.5573C31.456 25.7733 31.652 25.9163 31.864 25.9163C31.905 25.9163 31.947 25.9113 31.987 25.9003L34.503 25.2443C34.626 25.2123 34.731 25.1313 34.796 25.0233C34.86 24.9123 34.879 24.7813 34.846 24.6583L33.927 21.1333L39.178 19.8203L40 22.9783C40.033 23.1023 40.113 23.2073 40.222 23.2723C40.297 23.3163 40.38 23.3373 40.465 23.3373C40.505 23.3373 40.546 23.3333 40.586 23.3223L42.825 22.7393C42.947 22.7063 43.054 22.6273 43.118 22.5173C43.183 22.4083 43.2 22.2773 43.167 22.1523L42.352 19.0273L44.751 18.4283L44.807 18.4423L46.673 25.5953C46.726 25.7983 46.854 25.9553 47.012 26.0673C44.779 27.1473 39.649 28.7213 37.722 29.3123C36.799 29.5953 35.684 29.9563 34.482 30.3453C30.691 31.5733 25.499 33.2543 23.734 33.2543C22.777 33.2543 21.63 32.9483 20.426 32.5073C20.214 32.4303 19.706 31.8773 19.143 30.6153C18.717 29.6493 18.142 28.7403 15.415 27.3973C13.032 26.2213 11.49 26.2513 10.561 27.4923C10.556 27.4973 10.155 28.0303 9.82699 27.8613C9.82099 27.8573 9.81599 27.8593 9.81099 27.8563C9.78599 27.8423 9.76499 27.8303 9.73999 27.8173C9.89899 27.7213 10.031 27.5773 10.098 27.3883L12.847 19.7513ZM33.797 24.4363L32.209 24.8503L31.421 21.8363L33.009 21.4213L33.797 24.4363ZM42.118 21.9313L40.809 22.2733L40.137 19.6973L41.445 19.3553L42.118 21.9313ZM31.941 15.2253L42.772 17.9343L24.84 22.4153L14.721 19.3073L31.941 15.2253ZM49.623 25.5323C49.483 24.5033 48.519 23.9433 47.912 23.6863L46.308 17.5363C46.231 17.2383 45.997 17.0063 45.699 16.9333L32.149 13.5453C32.019 13.5123 31.883 13.5113 31.752 13.5423L12.017 18.2203C11.741 18.2863 11.516 18.4873 11.42 18.7553L9.22999 24.8353C8.58099 25.2213 7.38699 26.0443 7.14699 27.0073C6.93599 27.8513 7.53399 28.5293 9.05099 29.3503C9.05599 29.3523 9.05799 29.3553 9.06199 29.3573C9.06799 29.3613 9.07399 29.3623 9.07999 29.3653C9.17299 29.4153 9.26299 29.4643 9.36199 29.5153L11.28 36.3373C11.301 36.4073 11.329 36.4753 11.366 36.5373C11.567 36.8783 12.504 37.9903 16.093 37.9903C17.004 37.9903 17.799 37.9423 18.479 37.8513L19.05 39.8933C19.071 39.9623 19.099 40.0303 19.136 40.0923C19.338 40.4343 20.274 41.5473 23.864 41.5473C27.237 41.5473 28.231 40.9153 28.502 40.6443C28.602 40.5463 28.674 40.4243 28.713 40.2913L29.367 38.1013C30.063 38.3253 31.056 38.5003 32.466 38.5003C35.84 38.5003 36.834 37.8693 37.105 37.5983C37.204 37.5003 37.277 37.3783 37.317 37.2453L37.825 35.5373C38.459 35.6483 39.174 35.7093 39.98 35.7093C43.353 35.7093 44.347 35.0793 44.617 34.8083C44.716 34.7093 44.788 34.5883 44.829 34.4543L46.748 28.0153C49.181 26.9883 49.729 26.3133 49.623 25.5323Z" fill="black"/>
<path fill-rule="evenodd" clip-rule="evenodd" d="M21.3006 32.003C21.7376 32.132 22.3446 32.311 23.3756 32.311C24.6096 32.311 26.4486 32.053 29.3246 31.139C34.2916 29.561 43.7266 26.608 43.7266 26.608L43.4386 25.693C43.4386 25.693 34.0016 28.644 29.0336 30.223C24.0386 31.811 22.4346 31.337 21.5736 31.081C21.3206 31.005 21.0526 31.152 20.9766 31.405C20.9016 31.66 21.0466 31.927 21.3006 32.003Z" fill="black"/>
</svg>
