<svg width="57" height="57" viewBox="0 0 57 57" fill="none" xmlns="http://www.w3.org/2000/svg">
<path fill-rule="evenodd" clip-rule="evenodd" d="M26.1683 13.396H30.0213V15.708H26.1683V13.396ZM21.6033 34.721C21.8413 33.774 22.0873 32.795 22.2913 31.782C22.7763 29.371 22.2373 27.999 21.6663 26.545C21.2823 25.574 20.8883 24.568 20.7793 23.11C20.6983 22.018 21.5143 21.291 23.1513 20.254L25.9383 18.485C26.1463 18.354 26.2713 18.127 26.2713 17.878V17.613H29.8853V17.878C29.8853 18.124 30.0093 18.351 30.2163 18.483L32.9853 20.253C34.6073 21.29 35.4173 22.017 35.3353 23.111C35.2293 24.57 34.8363 25.575 34.4573 26.547C33.8893 27.998 33.3553 29.369 33.8373 31.782C34.0483 32.828 34.2903 33.809 34.5643 34.894C35.1203 37.098 35.6443 39.181 35.6763 41.542C35.6893 42.609 35.0013 45.956 33.6603 47.315C33.2823 47.698 32.9003 47.884 32.4943 47.884H23.6503C23.2323 47.884 22.8443 47.695 22.4603 47.305C21.1133 45.941 20.4223 42.605 20.4383 41.543C20.4703 39.174 20.9983 37.096 21.5603 34.894L21.6033 34.721ZM28.6853 11.492H27.5043V11.202H28.6853V11.492ZM35.9493 34.504C35.7043 33.53 35.4533 32.525 35.2453 31.499C34.8473 29.507 35.2843 28.381 35.7963 27.068C36.1953 26.051 36.6463 24.895 36.7683 23.216C36.9173 21.229 35.4933 20.15 33.7583 19.043L31.3213 17.484V16.894C31.3213 16.778 31.2943 16.663 31.2423 16.563C31.3823 16.357 31.4573 16.114 31.4573 15.863V13.24C31.4573 12.534 30.8573 11.96 30.1213 11.959V10.547C30.4463 10.335 30.6513 9.967 30.6513 9.57C30.6513 8.979 30.1923 8.477 29.6123 8.413C29.1483 8.041 28.4043 8 28.0953 8C27.7863 8 27.0423 8.041 26.5783 8.413C25.9973 8.476 25.5383 8.978 25.5383 9.57C25.5383 9.966 25.7413 10.334 26.0683 10.547V11.959C25.3323 11.96 24.7323 12.534 24.7323 13.24V15.863C24.7323 16.102 24.8013 16.335 24.9313 16.535C24.8693 16.644 24.8343 16.768 24.8343 16.894V17.484L22.3813 19.041C20.6343 20.149 19.1993 21.228 19.3463 23.216C19.4683 24.893 19.9263 26.051 20.3293 27.076C20.8423 28.379 21.2853 29.505 20.8813 31.499C20.6683 32.564 20.4003 33.615 20.1613 34.554C19.5823 36.844 19.0343 39.007 19.0003 41.522C18.9833 42.735 19.6853 46.539 21.4373 48.315C22.0953 48.982 22.8403 49.321 23.6503 49.321H32.4943C33.2953 49.321 34.0323 48.986 34.6853 48.324C36.4283 46.557 37.1283 42.741 37.1143 41.521C37.0803 38.996 36.5343 36.833 35.9493 34.504Z" fill="black"/>
<path fill-rule="evenodd" clip-rule="evenodd" d="M23.5916 47.3223C23.6846 47.4173 23.8086 47.4653 23.9326 47.4653C24.0546 47.4653 24.1766 47.4193 24.2706 47.3263C24.4596 47.1393 24.4616 46.8363 24.2736 46.6463C22.9366 45.2933 22.1406 42.7073 22.1546 41.7483C22.1876 39.4093 22.7126 37.3443 23.2686 35.1583L23.3066 35.0093C23.5476 34.0513 23.7966 33.0613 24.0036 32.0323C24.5026 29.5523 23.9246 28.0843 23.3636 26.6583C22.9886 25.7023 22.6006 24.7153 22.4956 23.2953C22.4416 22.5713 22.7816 22.3323 24.0866 21.5293C24.2926 21.4023 24.5166 21.2663 24.7556 21.1123C24.9796 20.9713 25.0466 20.6753 24.9036 20.4503C24.7626 20.2273 24.4666 20.1603 24.2426 20.3023C24.0056 20.4513 23.7866 20.5863 23.5826 20.7113C22.2926 21.5043 21.4386 22.0293 21.5376 23.3663C21.6536 24.9323 22.0686 25.9873 22.4726 27.0123C23.0266 28.4223 23.5046 29.6403 23.0626 31.8453C22.8596 32.8493 22.6136 33.8283 22.3746 34.7743L22.3376 34.9213C21.7666 37.1643 21.2276 39.2823 21.1936 41.7363C21.1756 43.0073 22.1016 45.8153 23.5916 47.3223Z" fill="black"/>
</svg>
