<svg width="57" height="57" viewBox="0 0 57 57" fill="none" xmlns="http://www.w3.org/2000/svg">
<path fill-rule="evenodd" clip-rule="evenodd" d="M32.7014 47.4744L32.2664 46.6554C32.1224 46.3834 31.8394 46.2134 31.5314 46.2104C31.2034 46.2174 30.9374 46.3734 30.7884 46.6434L30.3054 47.5204H26.3074L25.8114 46.6384C25.6634 46.3734 25.3844 46.2104 25.0814 46.2104H25.0794C24.7764 46.2104 24.4974 46.3724 24.3474 46.6374L23.8734 47.4744C23.1614 47.3214 22.6184 46.7904 22.6184 46.1794V45.1924H26.3224C26.5874 45.1924 26.8034 44.9774 26.8034 44.7114C26.8034 44.4454 26.5874 44.2314 26.3224 44.2314H22.6184V41.6994H26.3224C26.5874 41.6994 26.8034 41.4854 26.8034 41.2194C26.8034 40.9534 26.5874 40.7384 26.3224 40.7384H22.6184V38.2064H26.3224C26.5874 38.2064 26.8034 37.9924 26.8034 37.7274C26.8034 37.4614 26.5874 37.2454 26.3224 37.2454H22.6184V34.7154H26.3224C26.5874 34.7154 26.8034 34.5014 26.8034 34.2364C26.8034 33.9704 26.5874 33.7564 26.3224 33.7564H22.6184V31.3094H26.3224C26.5874 31.3094 26.8034 31.0944 26.8034 30.8284C26.8034 30.5634 26.5874 30.3484 26.3224 30.3484H22.9124C22.9564 30.2444 22.9824 30.1354 22.9824 30.0194V22.4954C22.9824 22.3114 22.9094 22.1424 22.8004 21.9984H26.3224C26.5874 21.9984 26.8034 21.7834 26.8034 21.5164C26.8034 21.2514 26.5874 21.0374 26.3224 21.0374H22.6184V18.5914H26.3224C26.5874 18.5914 26.8034 18.3764 26.8034 18.1104C26.8034 17.8454 26.5874 17.6304 26.3224 17.6304H22.6184V17.6004C22.6184 15.5494 25.7114 12.8984 26.9014 12.0514C27.1234 11.8934 27.2564 11.6384 27.2564 11.3664V10.9774H29.3214V11.3664C29.3214 11.6384 29.4524 11.8924 29.6744 12.0504C30.8654 12.8984 33.9564 15.5494 33.9564 17.6004V17.6304H33.8604C33.5964 17.6304 33.3814 17.8454 33.3814 18.1104C33.3814 18.3764 33.5964 18.5914 33.8604 18.5914H33.9564V21.0374H33.8604C33.5964 21.0374 33.3814 21.2514 33.3814 21.5164C33.3814 21.7554 33.5584 21.9444 33.7844 21.9824C33.6694 22.1294 33.5934 22.3054 33.5934 22.4954V30.0194C33.5934 30.1484 33.6304 30.2704 33.6874 30.3834C33.5084 30.4534 33.3814 30.6254 33.3814 30.8284C33.3814 31.0944 33.5964 31.3094 33.8604 31.3094H33.9564V33.7564H33.8604C33.5964 33.7564 33.3814 33.9704 33.3814 34.2364C33.3814 34.5014 33.5964 34.7154 33.8604 34.7154H33.9564V37.2454H33.8604C33.5964 37.2454 33.3814 37.4614 33.3814 37.7274C33.3814 37.9924 33.5964 38.2064 33.8604 38.2064H33.9564V40.7384H33.8604C33.5964 40.7384 33.3814 40.9534 33.3814 41.2194C33.3814 41.4854 33.5964 41.6994 33.8604 41.6994H33.9564V44.2314H33.8604C33.5964 44.2314 33.3814 44.4454 33.3814 44.7114C33.3814 44.9774 33.5964 45.1924 33.8604 45.1924H33.9564V46.1794C33.9564 46.7904 33.4144 47.3204 32.7014 47.4744ZM26.5294 8.36141H30.0474V9.29641H26.5294V8.36141ZM35.3904 22.7274C35.5494 22.5684 35.6374 22.3554 35.6374 22.1324V17.6004C35.6374 14.7324 32.2164 11.8694 31.0134 10.9514C31.4154 10.8894 31.7284 10.5564 31.7284 10.1364V7.51941C31.7284 7.05541 31.3524 6.67941 30.8874 6.67941H25.6884C25.2244 6.67941 24.8484 7.05541 24.8484 7.51941V10.1364C24.8484 10.5564 25.1614 10.8894 25.5624 10.9514C24.3604 11.8694 20.9374 14.7314 20.9374 17.6004V22.1324C20.9374 22.3554 21.0264 22.5694 21.1844 22.7284L21.3014 22.8434V29.6824L21.1704 29.8194C21.0204 29.9754 20.9374 30.1834 20.9374 30.4004V46.1794C20.9374 47.8454 22.4434 49.2014 24.3384 49.2014C24.6404 49.2014 24.9204 49.0374 25.0704 48.7734L25.0774 48.7614L25.0844 48.7714C25.2314 49.0364 25.5124 49.2014 25.8154 49.2014H30.8024C31.0914 49.2014 31.3574 49.0524 31.5104 48.8104C31.6644 49.0524 31.9314 49.2014 32.2214 49.2014H32.2794C34.1304 49.2014 35.6374 47.8454 35.6374 46.1794V30.4004C35.6374 30.1834 35.5544 29.9754 35.4044 29.8204L35.2744 29.6824V22.8434L35.3904 22.7274Z" fill="black"/>
<path fill-rule="evenodd" clip-rule="evenodd" d="M29.4534 45.8095C29.1254 45.5865 28.7694 45.4965 28.4094 45.5135C28.0494 45.5275 27.6864 45.6495 27.3364 45.8505C26.9864 46.0595 26.6424 46.3345 26.3364 46.7445C26.6904 46.6435 27.0314 46.5385 27.3694 46.4615C27.7044 46.3815 28.0364 46.3245 28.3634 46.3115C28.6894 46.2965 29.0124 46.3255 29.3274 46.4175C29.6464 46.5045 29.9524 46.6675 30.2734 46.8795C30.0704 46.3855 29.7774 46.0325 29.4534 45.8095Z" fill="black"/>
</svg>
