<svg width="57" height="57" viewBox="0 0 57 57" fill="none" xmlns="http://www.w3.org/2000/svg">
<path fill-rule="evenodd" clip-rule="evenodd" d="M24.626 44.7851V17.4521L38.956 14.9171V41.7071L24.626 44.7851ZM18.397 16.6741L20.155 20.6851C20.189 20.7671 20.252 20.8341 20.329 20.8761L21.462 21.4901C21.521 21.5211 21.586 21.5381 21.652 21.5381C21.722 21.5381 21.793 21.5191 21.856 21.4811C21.978 21.4101 22.051 21.2781 22.051 21.1371V19.4671L23.228 18.2031V44.4771L18.397 41.8571V16.6741ZM33.092 12.4171L35.266 13.2151L22.264 15.3581L20.148 14.4131L33.092 12.4171ZM22.051 16.7931L23.038 17.2351L22.051 18.2961V16.7931ZM21.253 16.4361V20.4671L20.83 20.2391L18.657 15.2771L21.253 16.4361ZM36.983 13.8461L24.017 16.1411L23.588 15.9491L36.785 13.7741L36.983 13.8461ZM40.341 14.0331C40.335 13.9621 40.322 13.8971 40.298 13.8341C40.287 13.8091 40.279 13.7851 40.266 13.7611C40.228 13.6881 40.179 13.6221 40.117 13.5671C40.111 13.5611 40.109 13.5531 40.102 13.5471C40.102 13.5461 40.1 13.5461 40.099 13.5451C40.039 13.4961 39.97 13.4551 39.895 13.4281L33.406 11.0431C33.294 11.0021 33.176 10.9901 33.058 11.0081L17.592 13.3931C17.5 13.4061 17.419 13.4441 17.342 13.4901C17.334 13.4941 17.325 13.4931 17.319 13.4961C17.307 13.5051 17.302 13.5191 17.291 13.5281C17.216 13.5821 17.153 13.6481 17.105 13.7271C17.099 13.7391 17.089 13.7481 17.081 13.7611C17.045 13.8311 17.016 13.9071 17.007 13.9911C17.003 14.0111 17.009 14.0321 17.008 14.0511C17.008 14.0631 17 14.0731 17 14.0831V42.2721C17 42.5291 17.14 42.7651 17.366 42.8871L23.595 46.2641C23.607 46.2711 23.621 46.2691 23.633 46.2741C23.726 46.3181 23.825 46.3491 23.927 46.3491C23.975 46.3491 24.025 46.3431 24.074 46.3341L39.801 42.9561C40.123 42.8861 40.353 42.6011 40.353 42.2721V14.0831C40.353 14.0661 40.343 14.0491 40.341 14.0331Z" fill="black"/>
</svg>
