<svg width="57" height="57" viewBox="0 0 57 57" fill="none" xmlns="http://www.w3.org/2000/svg">
<path fill-rule="evenodd" clip-rule="evenodd" d="M30.522 18.743V44.024L20.589 43.282L20.464 18.743H30.522ZM34.018 13.146H28.471C28.195 13.03 27.861 12.967 27.487 12.967C27.109 12.967 26.729 13.034 26.367 13.146H23.433V12.459H34.018V13.146ZM24.501 14.66C24.475 14.744 24.458 14.825 24.449 14.906H24.442V14.975C24.44 15.022 24.439 15.07 24.444 15.117L24.446 16.047C24.397 16.371 24.487 16.689 24.702 16.94C24.758 17.004 24.829 17.058 24.898 17.112H21.215L23.115 14.66H24.501ZM29.166 16.01C29.255 15.828 29.301 15.644 29.304 15.454V14.66H32.97L30.912 17.112H27.933C28.495 16.84 28.953 16.453 29.166 16.01ZM26.25 16.317C27.054 16.317 27.875 16.032 28.465 15.601C28.457 15.622 28.459 15.639 28.449 15.661C28.202 16.169 27.261 16.713 26.25 16.713C25.816 16.713 25.465 16.603 25.307 16.42C25.247 16.35 25.227 16.269 25.241 16.129C25.523 16.251 25.865 16.317 26.25 16.317ZM27.487 13.764C28.049 13.764 28.362 13.944 28.46 14.099L28.483 14.366C28.473 14.398 28.466 14.428 28.449 14.467C28.202 14.973 27.26 15.518 26.25 15.518C25.686 15.518 25.373 15.337 25.275 15.182C25.266 15.166 25.25 15.135 25.241 15.091V14.956C25.248 14.915 25.262 14.868 25.289 14.815C25.533 14.309 26.476 13.764 27.487 13.764ZM34.818 14.847L37.38 18.1V43.176L32.026 43.976V18.236L34.818 14.847ZM38.681 17.396L35.444 13.286V11.73C35.444 11.329 35.124 11 34.732 11H22.72C22.326 11 22.006 11.329 22.006 11.73V13.707L19.155 17.396C19.029 17.556 18.981 17.759 19.013 17.955C19.01 17.976 19 17.997 19 18.018L19.135 43.952C19.136 44.326 19.418 44.637 19.796 44.674L31.177 45.548L31.253 45.552C31.261 45.552 31.267 45.548 31.275 45.548C31.282 45.548 31.29 45.552 31.297 45.552L38.219 44.524C38.572 44.471 38.839 44.16 38.839 43.803V17.847C38.839 17.681 38.782 17.521 38.681 17.396Z" fill="black"/>
</svg>
