<svg width="57" height="57" viewBox="0 0 57 57" fill="none" xmlns="http://www.w3.org/2000/svg">
<path fill-rule="evenodd" clip-rule="evenodd" d="M12.4589 31.9719L19.3769 35.4939C19.5909 35.6049 19.7579 35.8799 19.7579 36.0429L19.7469 36.7179L12.8279 33.1939C12.6129 33.0849 12.4459 32.8089 12.4459 32.6459L12.4589 31.9719ZM12.4589 33.9189L19.3779 37.4419C19.5309 37.5199 19.6879 37.5589 19.8369 37.5589C19.9759 37.5589 20.1099 37.5239 20.2249 37.4539C20.4449 37.3179 20.5719 37.0729 20.5719 36.7839V36.0429C20.5719 35.5579 20.2169 35.0109 19.7469 34.7699L12.8279 31.2479C12.5249 31.0929 12.2159 31.0899 11.9809 31.2349C11.7579 31.3699 11.6329 31.6149 11.6329 31.9049V32.6459C11.6329 33.1309 11.9869 33.6789 12.4589 33.9189Z" fill="black"/>
<path fill-rule="evenodd" clip-rule="evenodd" d="M43.1457 21.2523L36.5967 18.7403C36.4247 18.6743 36.2867 18.4623 36.2867 18.3293L36.3037 17.8543L42.8537 20.3673C43.0267 20.4333 43.1657 20.6453 43.1657 20.7783L43.1457 21.2523ZM43.9787 21.2793V20.7783C43.9787 20.2923 43.6197 19.7893 43.1457 19.6073L36.5967 17.0953C36.3107 16.9863 36.0217 17.0103 35.8027 17.1613C35.5937 17.3053 35.4727 17.5483 35.4727 17.8273V18.3293C35.4727 18.8143 35.8307 19.3173 36.3037 19.5003L42.8537 22.0113C42.9717 22.0573 43.0907 22.0793 43.2047 22.0793C43.3657 22.0793 43.5197 22.0343 43.6487 21.9463C43.8577 21.8023 43.9787 21.5583 43.9787 21.2793Z" fill="black"/>
<path fill-rule="evenodd" clip-rule="evenodd" d="M41.2627 28.1954C41.2627 28.3724 41.0797 28.6984 40.8427 28.8514L33.9517 33.3554V32.7634C33.9517 32.5854 34.1347 32.2584 34.3707 32.1044L41.2627 27.6024V28.1954ZM40.8427 26.9064L33.9257 31.4244C33.4767 31.7164 33.1377 32.2924 33.1377 32.7634V33.5024C33.1377 33.7954 33.2667 34.0344 33.4917 34.1554C33.5897 34.2084 33.6997 34.2344 33.8167 34.2344C33.9937 34.2344 34.1847 34.1744 34.3707 34.0514L41.2877 29.5324C41.7367 29.2404 42.0757 28.6654 42.0757 28.1954V27.4544C42.0757 27.1624 41.9467 26.9234 41.7227 26.8014C41.4727 26.6664 41.1517 26.7044 40.8427 26.9064Z" fill="black"/>
<path fill-rule="evenodd" clip-rule="evenodd" d="M18.253 24.5067C18.253 24.3377 18.425 24.0457 18.648 23.9237L25.574 20.1047V20.5337C25.574 20.7017 25.402 20.9927 25.181 21.1157L18.254 24.9507C18.254 24.9517 18.253 24.9517 18.253 24.9517V24.5067ZM18.158 25.7997C18.316 25.7997 18.483 25.7527 18.648 25.6617L25.574 21.8267C26.038 21.5707 26.388 21.0137 26.388 20.5337V20.0027C26.388 19.7097 26.261 19.4687 26.038 19.3357C25.797 19.1957 25.484 19.2087 25.181 19.3767L18.254 23.2117C17.79 23.4687 17.44 24.0247 17.44 24.5067V25.0367C17.44 25.3287 17.567 25.5707 17.789 25.7027C17.901 25.7667 18.025 25.7997 18.158 25.7997Z" fill="black"/>
<path fill-rule="evenodd" clip-rule="evenodd" d="M27.672 35.4286C27.522 35.4286 27.401 35.5506 27.401 35.6996V38.7476C27.401 38.8966 27.522 39.0186 27.672 39.0186C27.822 39.0186 27.943 38.8966 27.943 38.7476V35.6996C27.943 35.5506 27.822 35.4286 27.672 35.4286Z" fill="black"/>
<path fill-rule="evenodd" clip-rule="evenodd" d="M29.4343 34.3102C29.2843 34.3102 29.1633 34.4322 29.1633 34.5812V37.6292C29.1633 37.7782 29.2843 37.9002 29.4343 37.9002C29.5843 37.9002 29.7053 37.7782 29.7053 37.6292V34.5812C29.7053 34.4322 29.5843 34.3102 29.4343 34.3102Z" fill="black"/>
<path fill-rule="evenodd" clip-rule="evenodd" d="M31.1965 33.1919C31.0465 33.1919 30.9255 33.3139 30.9255 33.4629V36.5109C30.9255 36.6599 31.0465 36.7819 31.1965 36.7819C31.3465 36.7819 31.4675 36.6599 31.4675 36.5109V33.4629C31.4675 33.3139 31.3465 33.1919 31.1965 33.1919Z" fill="black"/>
<path fill-rule="evenodd" clip-rule="evenodd" d="M43.6689 25.0045C43.5189 25.0045 43.3979 25.1265 43.3979 25.2755V28.0185C43.3979 28.1675 43.5189 28.2895 43.6689 28.2895C43.8189 28.2895 43.9399 28.1675 43.9399 28.0185V25.2755C43.9399 25.1265 43.8189 25.0045 43.6689 25.0045Z" fill="black"/>
<path fill-rule="evenodd" clip-rule="evenodd" d="M45.2278 24.0217C45.0778 24.0217 44.9568 24.1437 44.9568 24.2927V27.0357C44.9568 27.1847 45.0778 27.3067 45.2278 27.3067C45.3778 27.3067 45.4988 27.1847 45.4988 27.0357V24.2927C45.4988 24.1437 45.3778 24.0217 45.2278 24.0217Z" fill="black"/>
<path fill-rule="evenodd" clip-rule="evenodd" d="M46.7867 23.0389C46.6367 23.0389 46.5157 23.1609 46.5157 23.3099V26.0529C46.5157 26.2019 46.6367 26.3239 46.7867 26.3239C46.9367 26.3239 47.0577 26.2019 47.0577 26.0529V23.3099C47.0577 23.1609 46.9367 23.0389 46.7867 23.0389Z" fill="black"/>
<path fill-rule="evenodd" clip-rule="evenodd" d="M14.2603 28.8668C14.4103 28.8668 14.5313 28.7468 14.5313 28.5958V25.6738C14.5313 25.5238 14.4103 25.4028 14.2603 25.4028C14.1103 25.4028 13.9893 25.5238 13.9893 25.6738V28.5958C13.9893 28.7468 14.1103 28.8668 14.2603 28.8668Z" fill="black"/>
<path fill-rule="evenodd" clip-rule="evenodd" d="M15.9389 28.011C16.0889 28.011 16.2099 27.891 16.2099 27.74V24.818C16.2099 24.668 16.0889 24.547 15.9389 24.547C15.7889 24.547 15.6679 24.668 15.6679 24.818V27.74C15.6679 27.891 15.7889 28.011 15.9389 28.011Z" fill="black"/>
<path fill-rule="evenodd" clip-rule="evenodd" d="M27.9241 21.0627C28.0741 21.0627 28.1951 20.9417 28.1951 20.7917V18.1607C28.1951 18.0117 28.0741 17.8897 27.9241 17.8897C27.7741 17.8897 27.6531 18.0117 27.6531 18.1607V20.7917C27.6531 20.9417 27.7741 21.0627 27.9241 21.0627Z" fill="black"/>
<path fill-rule="evenodd" clip-rule="evenodd" d="M29.4089 20.316C29.5589 20.316 29.6799 20.195 29.6799 20.045V17.414C29.6799 17.265 29.5589 17.143 29.4089 17.143C29.2589 17.143 29.1379 17.265 29.1379 17.414V20.045C29.1379 20.195 29.2589 20.316 29.4089 20.316Z" fill="black"/>
<path fill-rule="evenodd" clip-rule="evenodd" d="M30.8926 19.5695C31.0426 19.5695 31.1636 19.4485 31.1636 19.2985V16.6675C31.1636 16.5185 31.0426 16.3965 30.8926 16.3965C30.7426 16.3965 30.6216 16.5185 30.6216 16.6675V19.2985C30.6216 19.4485 30.7426 19.5695 30.8926 19.5695Z" fill="black"/>
<path fill-rule="evenodd" clip-rule="evenodd" d="M25.502 40.817H25.513C25.737 40.817 25.92 40.635 25.92 40.41V37.519C25.92 37.295 25.737 37.113 25.513 37.113H25.502V36.14L48.424 21.357V22.146L48.231 22.241C48.092 22.311 48.006 22.451 48.006 22.606V25.497C48.006 25.638 48.078 25.769 48.199 25.843C48.264 25.883 48.339 25.904 48.412 25.904C48.417 25.904 48.42 25.901 48.424 25.901V26.214L25.502 41.918V40.817ZM32.835 14.866L47.938 20.702L43.277 23.71L32.835 19.423V14.866ZM14.918 30.43L32.46 20.148L42.444 24.247L25.069 35.451L14.918 30.43ZM24.689 37.113H24.678C24.453 37.113 24.271 37.295 24.271 37.519V40.41C24.271 40.635 24.453 40.817 24.678 40.817H24.689V42.014L8.678 33.602V32.634C8.682 32.634 8.685 32.637 8.69 32.637C8.763 32.637 8.838 32.616 8.903 32.575C9.024 32.501 9.096 32.371 9.096 32.23V29.338C9.096 29.184 9.01 29.043 8.871 28.975L8.678 28.881V28.25L24.689 36.17V37.113ZM9.149 27.576L32.022 14.962V19.463L14.046 29.997L12.852 29.407V26.529C12.852 26.38 12.73 26.258 12.581 26.258C12.431 26.258 12.31 26.38 12.31 26.529V29.138L9.149 27.576ZM50.103 22.662V20.601V20.58C50.103 20.553 50.102 20.526 50.1 20.5C50.094 20.431 50.078 20.359 50.056 20.289C50.021 20.158 49.966 20.033 49.89 19.918C49.871 19.888 49.822 19.818 49.797 19.789C49.677 19.646 49.529 19.533 49.364 19.456C49.345 19.447 49.325 19.438 49.306 19.429L32.902 13.092C32.899 13.091 32.897 13.09 32.894 13.088L32.888 13.085C32.837 13.066 32.778 13.051 32.718 13.04C32.651 13.021 32.551 13 32.428 13C32.369 13 32.305 13.006 32.245 13.019C32.212 13.024 32.178 13.032 32.153 13.039C32.124 13.044 32.045 13.059 31.946 13.098C31.898 13.116 31.852 13.136 31.809 13.16L7.656 26.479C7.602 26.51 7.548 26.549 7.498 26.592C7.395 26.671 7.304 26.768 7.227 26.877C7.207 26.909 7.159 26.983 7.142 27.015C7.056 27.18 7.009 27.361 7.001 27.549L7 29.387C7 29.686 7.155 29.962 7.405 30.12V30.639C7.229 30.751 7.097 30.922 7.037 31.124C7.012 31.208 7 31.292 7 31.376V33.865C7 33.924 7.007 33.983 7.018 34.04C7.024 34.075 7.037 34.173 7.079 34.286C7.106 34.361 7.141 34.428 7.182 34.497C7.209 34.541 7.255 34.618 7.33 34.702C7.392 34.77 7.451 34.818 7.492 34.847C7.537 34.886 7.596 34.933 7.677 34.975L24.502 43.817C24.538 43.835 24.576 43.851 24.615 43.865C24.768 43.929 24.932 43.962 25.095 43.962C25.288 43.962 25.477 43.915 25.657 43.824C25.713 43.801 25.768 43.773 25.816 43.739L49.551 27.48C49.596 27.449 49.645 27.408 49.688 27.364C49.735 27.321 49.778 27.275 49.819 27.224C49.874 27.155 49.918 27.09 49.955 27.016C49.99 26.951 50.018 26.879 50.042 26.803C50.064 26.732 50.079 26.663 50.089 26.594C50.098 26.542 50.103 26.489 50.103 26.439V24.65C50.103 24.459 50.04 24.277 49.928 24.128C49.862 24.037 49.778 23.96 49.681 23.902V23.406C49.94 23.251 50.103 22.969 50.103 22.662Z" fill="black"/>
</svg>
