<svg width="57" height="57" viewBox="0 0 57 57" fill="none" xmlns="http://www.w3.org/2000/svg">
<path fill-rule="evenodd" clip-rule="evenodd" d="M22.446 43.952V35.15L49.65 25.891V32.763L22.446 43.952ZM8.032 31.227V25.269L11.348 27.795C11.017 28.016 10.756 28.418 10.752 29.071C10.748 29.822 11.07 30.803 11.693 31.28L15.882 34.486C16.114 34.663 16.374 34.757 16.635 34.757C17.204 34.757 17.816 34.292 17.823 33.271C17.823 33.085 17.805 32.885 17.767 32.681L21.106 35.225C21.249 35.335 21.423 35.391 21.599 35.391C21.61 35.391 21.621 35.387 21.633 35.386V43.745L8.032 31.227ZM42.463 22.629L34.085 25.319L33.681 25.022L28.519 26.679L28.84 27.003L21.599 29.328L6.681 18.611L35.939 12.681L51.001 19.888L47.198 21.109L46.662 20.854L42.015 22.346L42.463 22.629ZM8.032 24.247L6.681 23.218V19.612L21.124 29.989C21.15 30.007 21.179 30.015 21.205 30.03V34.28L8.032 24.247ZM17.01 33.242V33.267C17.006 33.691 16.853 33.944 16.635 33.944C16.555 33.944 16.467 33.91 16.375 33.839L12.187 30.635C11.842 30.37 11.561 29.681 11.565 29.101L11.566 29.075C11.568 28.653 11.721 28.4 11.94 28.4C12.019 28.4 12.107 28.432 12.199 28.504L16.387 31.708C16.732 31.973 17.013 32.663 17.01 33.242ZM49.65 25.031L22.019 34.435V30.047L29.089 27.777C29.359 27.691 29.564 27.469 29.632 27.194C29.633 27.187 29.635 27.181 29.636 27.174L33.535 25.923L33.604 25.974C33.745 26.079 33.914 26.132 34.085 26.132C34.169 26.132 34.254 26.119 34.334 26.093L42.711 23.404C42.989 23.315 43.197 23.084 43.258 22.801L46.603 21.727L46.85 21.843C46.959 21.895 47.078 21.922 47.198 21.922C47.281 21.922 47.366 21.909 47.447 21.882L51.001 20.742V24.572L49.65 25.031ZM51.726 18.371L36.664 11.166C36.437 11.056 36.189 11 35.939 11C35.828 11 35.715 11.012 35.606 11.034L6.347 16.963C5.564 17.122 5 17.811 5 18.611V23.218C5 23.743 5.245 24.238 5.662 24.555L6.352 25.08V31.227C6.352 31.697 6.549 32.145 6.894 32.463L20.902 45.355C21.217 45.646 21.626 45.8 22.04 45.8C22.255 45.8 22.472 45.758 22.679 45.673L50.289 34.317C50.92 34.059 51.331 33.445 51.331 32.763V26.235L51.542 26.164C52.224 25.932 52.682 25.292 52.682 24.572V19.888C52.682 19.24 52.31 18.65 51.726 18.371Z" fill="black"/>
</svg>
