<svg width="57" height="57" viewBox="0 0 57 57" fill="none" xmlns="http://www.w3.org/2000/svg">
<path fill-rule="evenodd" clip-rule="evenodd" d="M21.8146 43.81V35.78L34.2776 31.379V33.259C34.2776 33.523 34.4036 33.77 34.6196 33.923C34.7596 34.022 34.9236 34.073 35.0906 34.073C35.1806 34.073 35.2716 34.057 35.3596 34.027L39.3546 32.626C39.6806 32.511 39.8986 32.204 39.8986 31.858V29.394L50.2306 25.748V32.614L21.8146 43.81ZM6.68356 31.078V24.457L21.0016 35.69V43.614L6.68356 31.078ZM6.68556 19.221C6.84156 19.197 7.08956 19.282 7.19456 19.337L19.9036 28.587C20.9216 29.279 21.0016 30.444 21.0016 30.785V34.656L6.93356 23.621C6.85956 23.562 6.77056 23.54 6.68356 23.542V23.07V19.449C6.68356 19.4 6.68056 19.314 6.68556 19.221ZM39.0856 28.325V31.858L35.0906 33.259V29.726L39.0856 28.325ZM8.02856 18.198C8.70156 18.074 33.6776 12.918 34.5776 12.734C34.7596 12.696 34.9406 12.681 35.1126 12.681C35.7866 12.681 36.3256 12.911 36.3256 12.911L49.3366 19.299C49.3736 19.319 49.3946 19.342 49.4296 19.362L28.2136 25.913C27.9996 25.98 27.8796 26.208 27.9446 26.423C27.9996 26.596 28.1606 26.708 28.3346 26.708C28.3736 26.708 28.4146 26.704 28.4536 26.691L50.0926 20.008C50.1866 20.192 50.2306 20.373 50.2306 20.528V20.751L30.0346 27.218C29.8216 27.287 29.7026 27.516 29.7716 27.73C29.8266 27.902 29.9856 28.013 30.1586 28.013C30.1996 28.013 30.2416 28.006 30.2836 27.992L50.2306 21.605V24.423V24.883V24.913C50.1856 24.913 50.1396 24.918 50.0956 24.934L39.8986 28.532V28.325C39.8986 28.061 39.7706 27.814 39.5556 27.661C39.4166 27.564 39.2516 27.512 39.0856 27.512C38.9956 27.512 38.9046 27.527 38.8166 27.558L34.8206 28.958C34.4956 29.072 34.2776 29.38 34.2776 29.726V30.517L21.8146 34.916V34.894C21.8146 34.863 21.8026 34.837 21.7976 34.808C21.8026 34.78 21.8146 34.753 21.8146 34.722V30.785C21.8146 29.605 21.2716 28.532 20.3726 27.923L7.63656 18.656C7.60256 18.635 7.43256 18.545 7.20956 18.477C7.40956 18.363 7.67356 18.264 8.02856 18.198ZM50.1046 17.805L37.0666 11.402C37.0406 11.389 37.0136 11.376 36.9846 11.364C36.8416 11.303 36.0796 11 35.1126 11C34.8126 11 34.5186 11.028 34.2396 11.086L31.3266 11.687C25.0216 12.987 8.27756 16.441 7.72056 16.546C6.75356 16.726 6.01756 17.12 5.52656 17.717C4.98056 18.351 4.99556 19.131 5.00156 19.432L5.00256 23.07V24.098V31.078C5.00256 31.562 5.21056 32.023 5.57456 32.343L20.3006 45.234C20.6126 45.507 21.0076 45.65 21.4076 45.65C21.6146 45.65 21.8246 45.612 22.0236 45.534L50.8466 34.178C51.4886 33.925 51.9116 33.304 51.9116 32.614V24.883V24.423V21.047V20.528C51.9116 19.387 51.2536 18.394 50.1046 17.805Z" fill="black"/>
<path fill-rule="evenodd" clip-rule="evenodd" d="M15.3598 36.5259L10.6648 32.5599V29.9919L15.3598 33.7649V36.5259ZM15.6978 33.3439L11.0028 29.5709C10.9058 29.4929 10.7858 29.4519 10.6648 29.4519C10.5858 29.4519 10.5058 29.4689 10.4308 29.5049C10.2438 29.5939 10.1248 29.7839 10.1248 29.9919V32.5599C10.1248 32.7199 10.1948 32.8699 10.3168 32.9729L15.0118 36.9379C15.1118 37.0229 15.2348 37.0659 15.3598 37.0659C15.4368 37.0659 15.5148 37.0489 15.5878 37.0149C15.7788 36.9269 15.8998 36.7349 15.8998 36.5259V33.7649C15.8998 33.6019 15.8258 33.4469 15.6978 33.3439Z" fill="black"/>
</svg>
