<svg width="57" height="57" viewBox="0 0 57 57" fill="none" xmlns="http://www.w3.org/2000/svg">
<path fill-rule="evenodd" clip-rule="evenodd" d="M29.4626 18.4404L31.7856 16.9104L40.7156 19.3784L38.3926 20.9094L29.4626 18.4404ZM23.4886 13.2224L15.9306 18.2304L16.7276 16.0154L24.2286 11.3004L23.4886 13.2224ZM19.0346 24.3564L15.8356 20.0704L23.9776 14.6744L26.7366 18.4884L19.0346 24.3564ZM30.1986 27.2814L28.1866 26.7934V19.6224L36.8106 22.0084L30.2046 27.2844C30.2026 27.2834 30.1996 27.2824 30.1986 27.2814ZM18.9266 26.2494L28.8026 28.5234L26.4026 31.7134L16.5256 29.4394L18.9266 26.2494ZM20.6746 24.9674L27.2976 19.9194V26.5774L20.6746 24.9674ZM19.3456 31.6094L26.5396 33.2664C26.5946 33.2764 26.6496 33.2834 26.7026 33.2834C26.9366 33.2834 27.1586 33.1714 27.2936 32.9874L29.3056 30.3144L29.3726 42.1744V45.2814L19.3456 42.0184V31.6094ZM37.4846 23.2524V37.8014L30.7596 44.5194V28.6244L37.4846 23.2524ZM43.2156 18.9874C43.1716 18.6994 42.9606 18.4654 42.6796 18.3884L31.8546 15.3924C31.6506 15.3374 31.4276 15.3724 31.2506 15.4874L27.9616 17.6534L24.8886 13.4094L26.1916 10.0004C26.3076 9.70143 26.2186 9.36543 25.9706 9.16243C25.7346 8.96643 25.3706 8.94543 25.1076 9.11243L15.8446 14.9574C15.7026 15.0494 15.5986 15.1794 15.5426 15.3374L14.0416 19.5794C13.9576 19.8164 14.0046 20.0704 14.1486 20.2654C14.1616 20.2854 14.1656 20.3104 14.1786 20.3274L17.8406 25.2324L14.6586 29.4594C14.5076 29.6604 14.4686 29.9214 14.5546 30.1584C14.6366 30.3904 14.8396 30.5704 15.0826 30.6264L17.9576 31.2894V42.5364C17.9576 42.8674 18.1676 43.1714 18.4686 43.2694L29.7626 46.9434C29.7886 46.9564 29.8116 46.9734 29.8396 46.9824C29.9106 47.0054 29.9836 47.0174 30.0566 47.0174H30.0606H30.0616L30.0876 47.0184C30.0956 47.0184 30.1036 47.0134 30.1126 47.0134C30.1206 47.0124 30.1316 47.0124 30.1406 47.0114C30.1486 47.0104 30.1576 47.0054 30.1656 47.0044C30.2346 46.9954 30.2986 46.9754 30.3616 46.9464C30.3916 46.9334 30.4206 46.9164 30.4496 46.8974C30.4626 46.8894 30.4786 46.8844 30.4906 46.8764C30.4956 46.8714 30.4976 46.8654 30.5026 46.8604C30.5426 46.8334 30.5846 46.8124 30.6206 46.7774L38.7116 38.5424C38.8636 38.3904 38.9506 38.1844 38.9506 37.9804V22.3164L42.8916 19.7204C43.1326 19.5594 43.2606 19.2734 43.2156 18.9874Z" fill="black"/>
</svg>
