<svg width="57" height="57" viewBox="0 0 57 57" fill="none" xmlns="http://www.w3.org/2000/svg">
<path fill-rule="evenodd" clip-rule="evenodd" d="M8.90342 39.5064C13.7704 34.0744 20.6744 30.9794 28.0054 30.9794C35.3374 30.9794 42.2404 34.0744 47.1074 39.5064H8.90342ZM26.3664 28.2294H28.9774V29.2984H26.3664V28.2294ZM49.0744 39.2124C44.4294 33.5994 37.8254 30.1254 30.6584 29.4344V27.3884C30.6584 26.9234 30.2824 26.5484 29.8174 26.5484H28.4394V24.2554C28.4394 23.8274 28.1194 23.4684 27.6924 23.4204C26.2904 23.2624 25.2334 22.0794 25.2334 20.6654C25.2334 19.1364 26.4774 17.8924 28.0054 17.8924C29.0554 17.8924 30.0034 18.4734 30.4794 19.4114C30.6894 19.8244 31.1964 19.9904 31.6084 19.7804C32.0214 19.5684 32.1874 19.0624 31.9774 18.6504C31.2144 17.1464 29.6914 16.2124 28.0054 16.2124C25.5494 16.2124 23.5524 18.2084 23.5524 20.6654C23.5524 22.6754 24.8874 24.3984 26.7594 24.9424V26.5484H25.5244C25.0604 26.5484 24.6854 26.9234 24.6854 27.3884V29.5044C17.7764 30.3434 11.4374 33.7744 6.93842 39.2124C6.81342 39.3634 6.74542 39.5534 6.74542 39.7484V40.3454C6.74542 40.8114 7.12142 41.1874 7.58542 41.1874H48.4254C48.8894 41.1874 49.2674 40.8114 49.2674 40.3454V39.7484C49.2674 39.5534 49.1974 39.3634 49.0744 39.2124Z" fill="black"/>
</svg>
