<svg width="57" height="57" viewBox="0 0 57 57" fill="none" xmlns="http://www.w3.org/2000/svg">
<path fill-rule="evenodd" clip-rule="evenodd" d="M28.6323 47.9781V37.2451L38.4723 31.8501C38.5303 31.8331 38.5833 31.8061 38.6273 31.7651L47.9153 26.6731V36.0201L28.6323 47.9781ZM8.44632 36.0201V26.6991L27.8193 37.2461V47.9791L8.44632 36.0201ZM38.3283 31.0021L29.2123 26.6571V26.1381L37.8533 22.0071L47.4093 26.0231L38.3283 31.0021ZM24.8703 20.1881L27.4023 26.0671C27.4903 26.2691 27.6573 26.4281 27.8643 26.5061C27.9563 26.5411 28.0533 26.5581 28.1503 26.5581C28.2353 26.5581 28.3163 26.5281 28.3993 26.5011V26.6501L18.3293 31.1531L8.96132 26.0541L24.8703 20.1881ZM45.1033 8.6031L48.3313 16.0961L36.8503 21.5851L28.1503 25.7441L24.5413 17.3691L45.1033 8.6031ZM23.8263 17.7641L24.5473 19.4391L13.1633 23.6361L23.8263 17.7641ZM28.2243 36.5401L19.2283 31.6431L28.8003 27.3611L37.4503 31.4821L28.2243 36.5401ZM48.5663 24.6851L40.9533 21.4861L49.0573 17.6121C49.8713 17.2241 50.2323 16.2601 49.8753 15.4301L46.6473 7.9381C46.3733 7.3021 45.7533 6.9231 45.1033 6.9231C44.8833 6.9231 44.6593 6.9661 44.4453 7.0571L23.8823 15.8241C23.8303 15.8441 23.7793 15.8701 23.7303 15.8971L7.63532 24.7631C7.09832 25.0581 6.76532 25.6231 6.76532 26.2351V36.0201C6.76532 36.6031 7.06632 37.1441 7.56232 37.4501L27.3433 49.6601C27.6133 49.8271 27.9183 49.9111 28.2243 49.9111C28.5323 49.9111 28.8393 49.8271 29.1103 49.6591L48.8023 37.4481C49.2953 37.1421 49.5963 36.6011 49.5963 36.0201V26.2351C49.5963 25.5591 49.1903 24.9481 48.5663 24.6851Z" fill="black"/>
<path fill-rule="evenodd" clip-rule="evenodd" d="M38.8943 32.1173C38.3163 32.1173 37.8463 31.4283 37.8463 30.5803C37.8463 29.7313 38.3163 29.0443 38.8943 29.0443C39.4713 29.0443 39.9413 29.7313 39.9413 30.5803C39.9413 31.4283 39.4713 32.1173 38.8943 32.1173ZM38.8943 28.2303C37.8513 28.2303 37.0333 29.2633 37.0333 30.5803C37.0333 31.8983 37.8513 32.9303 38.8943 32.9303C39.9363 32.9303 40.7543 31.8983 40.7543 30.5803C40.7543 29.2633 39.9363 28.2303 38.8943 28.2303Z" fill="black"/>
</svg>
