<svg width="57" height="57" viewBox="0 0 57 57" fill="none" xmlns="http://www.w3.org/2000/svg">
<path fill-rule="evenodd" clip-rule="evenodd" d="M28.4854 41.9635C19.5134 41.9635 13.0844 39.4175 11.4414 36.6575C14.5004 39.3655 20.9074 41.1885 28.4854 41.1885C36.0634 41.1885 42.4694 39.3655 45.5284 36.6575C43.8844 39.4185 37.4564 41.9635 28.4854 41.9635ZM23.0374 16.3935C23.2864 17.8595 26.0744 18.3895 28.4854 18.3895C30.8964 18.3895 33.6844 17.8595 33.9324 16.3935C39.9684 18.3765 44.5524 23.5555 45.6914 29.9235C42.8994 27.0945 36.3294 25.1525 28.4854 25.1525C20.6434 25.1525 14.0744 27.0935 11.2794 29.9215C12.4204 23.5555 17.0034 18.3775 23.0374 16.3935ZM32.3494 16.1805C31.9074 16.4715 30.5684 16.8875 28.4854 16.8875C26.4034 16.8875 25.0614 16.4725 24.6214 16.1805C24.8394 16.0365 25.2764 15.8635 25.9124 15.7235C26.7534 15.5985 27.6094 15.5125 28.4854 15.5125C29.3624 15.5125 30.2174 15.5985 31.0584 15.7235C31.6944 15.8635 32.1314 16.0365 32.3494 16.1805ZM28.4854 28.5075C36.7264 28.5075 43.8554 30.8495 45.7614 33.8985C44.6184 36.8375 37.9774 39.6865 28.4854 39.6865C18.9934 39.6865 12.3504 36.8375 11.2094 33.8985C13.1144 30.8495 20.2444 28.5075 28.4854 28.5075ZM45.9684 32.7445C43.3654 29.7425 36.6214 27.6495 28.4854 27.6495C20.3504 27.6495 13.6074 29.7415 11.0044 32.7435C11.0094 32.3665 11.0314 31.9955 11.0604 31.6255C12.7454 28.4675 20.0414 26.0115 28.4854 26.0115C36.9324 26.0115 44.2304 28.4705 45.9114 31.6295C45.9404 31.9995 45.9624 32.3695 45.9684 32.7445ZM47.4844 33.0095C47.4844 23.4055 40.3194 15.4485 31.0544 14.1895C30.2354 14.0395 29.3374 13.9715 28.4854 13.9715C27.6334 13.9715 26.7344 14.0395 25.9144 14.1905C16.6514 15.4495 9.48743 23.4065 9.48743 33.0095C9.48743 33.0535 9.50643 33.0915 9.51243 33.1335V35.2865C9.51243 39.8725 17.8464 43.4655 28.4854 43.4655C39.1244 43.4655 47.4554 39.8725 47.4554 35.2865V33.1425C47.4644 33.0975 47.4844 33.0565 47.4844 33.0095Z" fill="black"/>
</svg>
