<svg width="57" height="57" viewBox="0 0 57 57" fill="none" xmlns="http://www.w3.org/2000/svg">
<path fill-rule="evenodd" clip-rule="evenodd" d="M28.3296 36.244C19.3396 36.244 12.8986 33.691 11.2576 30.925C14.3196 33.638 20.7376 35.465 28.3296 35.465C35.9236 35.465 42.3416 33.637 45.4036 30.925C43.7626 33.691 37.3216 36.244 28.3296 36.244ZM28.3296 20.589C38.7956 20.589 45.8276 24.047 45.8276 27.276C45.8276 30.506 38.7956 33.963 28.3296 33.963C17.8656 33.963 10.8356 30.506 10.8356 27.276C10.8356 24.047 17.8656 20.589 28.3296 20.589ZM28.3296 19.088C17.6776 19.088 9.33362 22.684 9.33362 27.276V29.557C9.33362 34.149 17.6776 37.747 28.3296 37.747C38.9836 37.747 47.3296 34.149 47.3296 29.557V27.276C47.3296 22.684 38.9836 19.088 28.3296 19.088Z" fill="black"/>
<path fill-rule="evenodd" clip-rule="evenodd" d="M28.3296 32.3107C21.6486 32.3107 15.9626 30.2287 15.4106 27.6787C15.9826 25.1237 21.7296 23.0557 28.3296 23.0557C34.9326 23.0557 40.6796 25.1237 41.2496 27.6797C40.6976 30.2287 35.0116 32.3107 28.3296 32.3107ZM14.5596 27.8117C15.1756 30.8557 20.9976 33.1697 28.3296 33.1697C35.6616 33.1697 41.4836 30.8567 42.1016 27.8127C42.1176 27.7647 42.1216 27.7147 42.1186 27.6627C42.1366 27.5347 42.1626 27.4067 42.1626 27.2757C42.1626 23.9727 36.0866 21.3837 28.3296 21.3837C20.5736 21.3837 14.4976 23.9727 14.4976 27.2757C14.4976 27.4067 14.5236 27.5337 14.5416 27.6617C14.5396 27.7137 14.5436 27.7637 14.5596 27.8117Z" fill="black"/>
<path fill-rule="evenodd" clip-rule="evenodd" d="M28.3296 23.9475C33.5906 23.9475 37.1226 25.6685 37.1226 27.2755C37.1226 28.8835 33.5906 30.6065 28.3296 30.6065C23.0706 30.6065 19.5396 28.8835 19.5396 27.2755C19.5396 25.6685 23.0706 23.9475 28.3296 23.9475ZM28.3296 23.0885C22.9196 23.0885 18.6826 24.9275 18.6826 27.2755V28.0905C18.6826 30.4385 22.9196 32.2785 28.3296 32.2785C33.7406 32.2785 37.9806 30.4385 37.9806 28.0905V27.2755C37.9806 24.9275 33.7406 23.0885 28.3296 23.0885Z" fill="black"/>
<path fill-rule="evenodd" clip-rule="evenodd" d="M26.6564 26.9721L27.4164 27.2661L26.6294 27.5681C26.3764 27.4521 26.2424 27.3351 26.2364 27.2761C26.2414 27.2101 26.3894 27.0881 26.6564 26.9721ZM28.8744 26.7041L28.3114 26.9201L27.7594 26.7071C27.9364 26.6891 28.1234 26.6761 28.3294 26.6761C28.5264 26.6761 28.7054 26.6871 28.8744 26.7041ZM30.4264 27.2761C30.4194 27.3371 30.2784 27.4591 30.0154 27.5771L29.2064 27.2661L29.9854 26.9641C30.2654 27.0841 30.4204 27.2081 30.4264 27.2761ZM27.7164 27.8401L28.3114 27.6101L28.9174 27.8441C28.7364 27.8611 28.5444 27.8751 28.3294 27.8751C28.1044 27.8751 27.9034 27.8601 27.7164 27.8401ZM28.3294 28.7331C29.7974 28.7331 31.2834 28.2331 31.2834 27.2761C31.2834 25.3631 25.3774 25.3621 25.3774 27.2761C25.3774 28.2331 26.8624 28.7331 28.3294 28.7331Z" fill="black"/>
</svg>
