<svg width="57" height="57" viewBox="0 0 57 57" fill="none" xmlns="http://www.w3.org/2000/svg">
<path fill-rule="evenodd" clip-rule="evenodd" d="M35.6277 40.6776C35.6337 40.7666 35.6957 40.8426 35.7837 40.8666C35.8007 40.8716 35.8207 40.8736 35.8377 40.8736C35.9077 40.8736 35.9717 40.8406 36.0117 40.7826C40.4097 34.3756 47.3457 32.6536 47.4137 32.6366C47.5257 32.6106 47.5947 32.4996 47.5717 32.3876C47.5467 32.2766 47.4487 32.2036 47.3277 32.2236C47.2787 32.2316 42.4167 33.1226 38.9827 35.6356C35.4957 38.1876 35.6207 40.5766 35.6277 40.6776Z" fill="black"/>
<path fill-rule="evenodd" clip-rule="evenodd" d="M49.6717 32.382C49.0387 32.924 48.8537 33.285 48.2687 34.189C47.6827 35.093 46.7797 38.347 42.1707 40.787C39.6207 42.136 37.9567 42.351 36.8237 42.351C36.2927 42.351 35.8777 42.304 35.5457 42.304C35.3057 42.304 35.1097 42.329 34.9407 42.413C34.0367 42.864 33.2237 43.769 33.2237 43.769C33.2237 43.769 14.6067 26.507 13.5227 25.513C12.4377 24.52 15.2397 23.073 14.0647 21.899C12.8897 20.724 10.0427 21.528 9.22866 20.754C8.02066 19.608 7.59766 19.413 6.87966 18.42C6.16266 17.425 7.46766 17.109 9.36566 16.747C11.2637 16.386 18.3127 14.85 20.2097 14.397C22.1077 13.946 26.3557 12.681 26.3557 12.681C26.3557 12.681 47.9537 29.851 51.0277 31.206C51.0277 31.206 50.3037 31.84 49.6717 32.382ZM52.6887 30.954C52.6017 30.384 52.2307 29.901 51.7047 29.669C49.6107 28.745 35.6867 17.951 27.4017 11.365C27.1007 11.126 26.7307 11 26.3557 11C26.1957 11 26.0327 11.023 25.8767 11.07C25.8347 11.082 21.6517 12.327 19.8207 12.762C17.8837 13.224 10.9027 14.743 9.05066 15.097C7.33066 15.423 5.70566 15.732 5.15166 17.127C4.98266 17.552 4.80466 18.415 5.51766 19.403C6.11066 20.225 6.56866 20.628 7.14666 21.136C7.39966 21.357 7.69566 21.617 8.07066 21.973C8.89366 22.756 10.0387 22.801 11.1467 22.843C11.4527 22.856 11.9697 22.875 12.3677 22.935C11.9527 23.562 10.8327 25.328 12.3867 26.753C13.4547 27.732 31.8937 44.829 32.0807 45.002C32.3917 45.289 32.8007 45.45 33.2237 45.45C33.2487 45.45 33.2747 45.449 33.2997 45.448C33.7487 45.427 34.1717 45.227 34.4727 44.892C34.6157 44.736 35.1037 44.255 35.5657 43.985C35.6787 43.986 35.8027 43.994 35.9407 44.002C36.1987 44.017 36.4907 44.032 36.8237 44.032C38.0297 44.032 39.9757 43.85 42.9577 42.271C47.2677 39.989 48.7327 37.008 49.4367 35.575C49.5247 35.396 49.6347 35.172 49.6797 35.103L49.9087 34.746C50.3027 34.128 50.4107 33.963 50.7657 33.658C51.4047 33.111 52.1347 32.472 52.1347 32.472C52.5657 32.094 52.7757 31.521 52.6887 30.954Z" fill="black"/>
<path fill-rule="evenodd" clip-rule="evenodd" d="M24.8423 14.8295C23.9093 15.1405 20.6273 16.1695 17.5763 16.3555C17.4633 16.3625 17.3763 16.4575 17.3783 16.5705C17.3803 16.6825 17.4703 16.7735 17.5833 16.7775C17.7813 16.7845 22.4323 16.9035 24.8993 16.1335C34.5783 20.1305 44.4563 29.4765 44.5553 29.5705C44.5953 29.6095 44.6473 29.6285 44.7013 29.6285C44.7493 29.6285 44.7993 29.6105 44.8393 29.5765C44.9233 29.5025 44.9353 29.3785 44.8703 29.2905C41.3973 24.6475 26.0723 14.4225 24.8423 14.8295Z" fill="black"/>
</svg>
