<svg width="57" height="57" viewBox="0 0 57 57" fill="none" xmlns="http://www.w3.org/2000/svg">
<path fill-rule="evenodd" clip-rule="evenodd" d="M47.1155 26.4232L46.4255 27.3422L38.6245 27.3562C38.5255 27.3562 38.4355 27.3822 38.3475 27.4122L38.3805 25.1862L45.7125 25.2402L47.1155 26.4232ZM47.1225 39.8792L40.2775 37.4552C40.2125 37.4302 40.1415 37.4402 40.0715 37.4342L39.7925 36.7662L46.2605 38.0582L47.1705 38.7412L47.1225 39.8792ZM38.6525 36.8652L37.5115 35.4852L38.8335 32.4852C38.8895 32.3572 38.8865 32.2112 38.8255 32.0842L36.8915 28.0522L37.2545 25.1422C37.3095 25.1552 37.3615 25.1762 37.4205 25.1782L37.3745 28.2492C37.3735 28.3302 37.3925 28.4092 37.4305 28.4802L39.4725 32.3382L38.4075 35.6462C38.3715 35.7552 38.3765 35.8732 38.4215 35.9792L39.0685 37.5242L38.4815 37.6032C38.5195 37.5852 38.5555 37.5682 38.5895 37.5412C38.7925 37.3722 38.8225 37.0692 38.6525 36.8652ZM46.1915 29.0222L47.1365 32.7952L43.7165 32.4672C43.4615 32.4482 43.2195 32.6352 43.1935 32.8992C43.1665 33.1632 43.3625 33.3972 43.6255 33.4222L47.0935 33.7562L46.0885 36.3102L39.6825 35.0292C39.6585 35.0252 39.6375 35.0322 39.6145 35.0302L40.4495 32.4402C40.4895 32.3162 40.4765 32.1822 40.4165 32.0672L38.8115 29.0372L46.1915 29.0222ZM28.5115 38.9372L17.5085 37.8832C17.3835 37.8722 17.2605 37.8872 17.1415 37.9292L9.75046 40.6252L8.92346 39.3862L12.2175 38.5842C12.4765 38.5202 12.6325 38.2612 12.5715 38.0042C12.5095 37.7462 12.2545 37.5862 11.9905 37.6522L9.00846 38.3762L9.65546 36.8492L16.7535 35.7192L16.4895 37.1932C16.4415 37.4542 16.6155 37.7042 16.8755 37.7502C16.9055 37.7562 16.9335 37.7582 16.9625 37.7582C17.1895 37.7582 17.3925 37.5952 17.4335 37.3632L17.8575 34.9632V29.6202L19.2565 27.9802L19.0885 29.2172L18.0085 31.5952C18.0085 31.5962 18.0085 31.5972 18.0075 31.5982C17.9825 31.6582 17.9665 31.7242 17.9665 31.7922C17.9665 31.7942 17.9675 31.7972 17.9675 31.7992C17.9675 31.8012 17.9665 31.8032 17.9665 31.8052L18.0765 36.0192C18.0835 36.2802 18.2975 36.4862 18.5575 36.4862H18.5695C18.8345 36.4792 19.0435 36.2582 19.0365 35.9932L18.9405 32.2732H22.7705C23.0365 32.2732 23.2505 32.0582 23.2505 31.7922C23.2505 31.5272 23.0365 31.3122 22.7705 31.3122H19.1915L19.9925 29.5502C20.0115 29.5072 20.0255 29.4622 20.0305 29.4162L20.3005 27.4062L21.2145 23.3932L24.1105 23.3442C24.3755 23.3402 24.5885 23.1212 24.5825 22.8562C24.5775 22.5912 24.3585 22.3752 24.0935 22.3832L21.0755 22.4342L19.6155 20.3692C19.4595 20.1512 19.1615 20.1022 18.9445 20.2542C18.7295 20.4062 18.6775 20.7062 18.8305 20.9232L20.3145 23.0212L19.5955 26.1882L19.6385 22.9792C19.6395 22.8902 19.6165 22.8022 19.5705 22.7262L17.5925 19.4302L38.9005 19.5392C38.8375 19.5962 38.7845 19.6652 38.7595 19.7532L37.6605 23.5002L37.4455 23.4992H37.4385C37.4265 23.4992 37.4185 23.5052 37.4075 23.5062L37.0365 21.2342C36.9955 20.9712 36.7445 20.7972 36.4865 20.8372C36.2245 20.8792 36.0465 21.1262 36.0895 21.3882L36.4675 23.7042L35.9695 27.6862L33.0845 27.9322C32.8205 27.9532 32.6245 28.1862 32.6465 28.4512C32.6685 28.7022 32.8775 28.8902 33.1245 28.8902C33.1385 28.8902 33.1535 28.8892 33.1665 28.8882L36.1085 28.6392L37.8655 32.3012L36.6355 35.0902L31.7845 35.1942C31.5185 35.2002 31.3095 35.4202 31.3145 35.6842C31.3205 35.9462 31.5335 36.1552 31.7945 36.1552H31.8015L36.7305 36.0492L37.9135 37.4772C37.9935 37.5732 38.1035 37.6212 38.2185 37.6372L28.5115 38.9372ZM12.9995 23.9492L9.69946 23.9152L10.0175 23.7092L18.4425 23.7542H18.4455C18.5245 23.7542 18.5955 23.7302 18.6675 23.7102L18.6315 26.4222C18.5865 26.4222 18.5445 26.4082 18.4985 26.4152L9.17646 27.8162L8.72346 24.8652L12.9895 24.9092H12.9925C13.2565 24.9092 13.4725 24.6982 13.4745 24.4342C13.4775 24.1682 13.2645 23.9522 12.9995 23.9492ZM17.0125 29.1322C16.9385 29.2192 16.8985 29.3292 16.8985 29.4432L16.9045 34.0212C16.8595 34.0202 16.8165 34.0082 16.7705 34.0142L9.37846 35.1912L8.71446 34.4592L8.61046 30.2742L9.01046 29.5412L17.7875 28.2222L17.0125 29.1322ZM8.52146 17.3422L8.59646 16.6792L16.5305 19.3822C16.5375 19.3842 16.5445 19.3832 16.5505 19.3852C16.5455 19.4782 16.5575 19.5742 16.6095 19.6602L18.0565 22.0712L10.3475 22.0302L8.52146 17.3422ZM40.0565 19.5442C40.1265 19.5362 40.1945 19.5372 40.2615 19.5222L47.1225 17.8462L47.5645 19.1722L43.4975 20.7452C43.2515 20.8412 43.1265 21.1182 43.2235 21.3662C43.2975 21.5562 43.4785 21.6732 43.6715 21.6732C43.7285 21.6732 43.7885 21.6622 43.8445 21.6412L47.0385 20.4062L45.4985 23.5582L38.6575 23.5082L39.6805 20.0232C39.7325 19.8442 39.6725 19.6632 39.5475 19.5422L40.0565 19.5442ZM49.2995 19.0602L48.4725 16.5802C48.3345 16.1652 47.9065 15.9222 47.4745 16.0302L39.9625 17.8632L16.9425 17.7462L8.15346 14.7512C7.91446 14.6702 7.64746 14.7012 7.43246 14.8362C7.21846 14.9722 7.07746 15.1982 7.04746 15.4502L6.82746 17.3562C6.81146 17.4912 6.83046 17.6292 6.87846 17.7572L8.73946 22.5342L7.30746 23.4612C7.02946 23.6412 6.88346 23.9672 6.93346 24.2942L7.59846 28.6182L7.02646 29.6672C6.95546 29.7972 6.92146 29.9432 6.92346 30.0912L7.04246 34.8142C7.04746 35.0162 7.12446 35.2092 7.26046 35.3582L8.07946 36.2592L6.99046 38.8342C6.87946 39.0952 6.90846 39.3932 7.06446 39.6292L8.71846 42.1082C8.87646 42.3472 9.14246 42.4822 9.41646 42.4822C9.51446 42.4822 9.61046 42.4652 9.70446 42.4312L17.5395 39.5742L28.4475 40.6192C28.5115 40.6252 28.5745 40.6242 28.6395 40.6152L39.9085 39.1072L47.6305 41.8442C47.8785 41.9322 48.1595 41.8972 48.3815 41.7492C48.6025 41.5992 48.7385 41.3552 48.7505 41.0872L48.8695 38.3732C48.8815 38.0952 48.7555 37.8302 48.5335 37.6632L47.6305 36.9852L48.9295 33.6822C48.9925 33.5202 49.0055 33.3412 48.9625 33.1722L47.7605 28.3652L48.9375 26.7962C49.2055 26.4392 49.1475 25.9362 48.8065 25.6492L47.0635 24.1832L49.2575 19.6952C49.3525 19.4972 49.3685 19.2682 49.2995 19.0602Z" fill="black"/>
</svg>
