<svg width="57" height="57" viewBox="0 0 57 57" fill="none" xmlns="http://www.w3.org/2000/svg">
<path fill-rule="evenodd" clip-rule="evenodd" d="M41.9857 42.1164L40.5747 40.2284C40.5257 40.1614 40.4487 40.1294 40.3787 40.0894L40.3957 40.0704L37.8827 37.7604L40.2027 21.3094L43.0787 20.5884L43.0747 20.5734C43.1367 20.5654 43.1967 20.5594 43.2537 20.5334L45.5387 19.4424L41.9857 42.1164ZM14.7697 13.9824L15.4877 15.2714C15.5247 15.3364 15.5757 15.3874 15.6317 15.4344L12.9277 31.7714C12.8727 31.7924 12.8177 31.8194 12.7717 31.8574L11.7227 32.6764L14.7697 13.9824ZM16.3027 15.0364L16.3037 15.0294L16.0197 14.9834L16.0097 14.9824L14.9247 13.0334L40.1787 17.7114L45.6507 18.7254V18.7294L42.9967 19.9944L16.3027 15.0364ZM41.8557 42.9434L22.3177 36.8794L11.5817 33.5474V33.5444L13.1377 32.3274L40.0977 40.5854L41.8567 42.9404L41.8557 42.9434ZM37.3627 38.0934L39.0427 39.6384L13.5247 31.8214L16.2057 15.6244L41.6067 20.3434L39.8647 20.7794C39.7457 20.8094 39.6587 20.9064 39.6407 21.0274L37.2697 37.8314C37.2567 37.9294 37.2907 38.0274 37.3627 38.0934ZM45.9567 17.0734L15.2307 11.3794C15.1287 11.3614 15.0267 11.3514 14.9247 11.3514C14.5797 11.3514 14.2427 11.4574 13.9577 11.6574C13.5877 11.9174 13.3387 12.3164 13.2657 12.7624L9.92269 33.2774C9.78769 34.1034 10.2827 34.9034 11.0827 35.1524L41.3577 44.5504C41.5207 44.6004 41.6887 44.6254 41.8557 44.6254C42.1667 44.6254 42.4747 44.5394 42.7437 44.3724C43.1587 44.1144 43.4407 43.6874 43.5157 43.2054L47.3117 18.9864C47.4527 18.0874 46.8517 17.2394 45.9567 17.0734Z" fill="black"/>
<path fill-rule="evenodd" clip-rule="evenodd" d="M41.5345 28.3975L42.1255 28.4795L43.0215 22.0355L42.4305 21.9525L41.5345 28.3975Z" fill="black"/>
<path fill-rule="evenodd" clip-rule="evenodd" d="M40.1483 38.3737L40.7393 38.4557L41.6353 32.0127L41.0443 31.9297L40.1483 38.3737Z" fill="black"/>
</svg>
