<svg width="57" height="57" viewBox="0 0 57 57" fill="none" xmlns="http://www.w3.org/2000/svg">
<path fill-rule="evenodd" clip-rule="evenodd" d="M33.6202 47.84H33.6182C33.2812 47.84 32.9172 47.813 32.5582 47.792L34.3932 40.718C34.4582 40.461 34.3052 40.199 34.0482 40.133C33.7912 40.066 33.5292 40.221 33.4632 40.478L31.5862 47.722C30.0022 47.568 28.3052 47.283 26.6382 46.996C24.6272 46.648 22.5682 46.303 20.6442 46.173C21.0472 45.182 21.3752 44.403 21.6402 43.781C22.8262 40.98 22.8422 40.908 23.2862 36.23L23.3562 35.49C23.3822 35.226 23.1872 34.991 22.9242 34.966C22.6572 34.953 22.4252 35.135 22.4002 35.398L22.3302 36.139C21.8952 40.715 21.8952 40.715 20.7552 43.405C20.4622 44.099 20.0912 44.974 19.6272 46.13C19.4882 46.127 19.3432 46.11 19.2062 46.11C18.3182 46.11 17.5202 46.176 16.8002 46.311C17.0142 44.338 16.9552 42.609 16.7862 40.946L20.1602 39.004C20.5622 38.773 20.7012 38.258 20.4692 37.856C20.2372 37.454 19.7242 37.313 19.3202 37.547L16.5632 39.136C16.4912 38.636 16.4172 38.137 16.3402 37.633C16.0552 35.751 15.7592 33.803 15.6862 31.511C15.6332 29.845 16.0472 27.937 16.5072 26.048L22.7552 26.726C23.7922 27.717 24.8062 28.822 25.9522 30.142C26.1182 30.331 26.3522 30.43 26.5872 30.43C26.7812 30.43 26.9792 30.363 27.1372 30.224C27.4882 29.92 27.5252 29.388 27.2222 29.038C24.0502 25.387 21.7262 23.191 17.2652 20.704C17.1642 20.351 17.0402 19.969 16.8872 19.525C16.4832 18.345 15.9802 16.874 16.0752 15.838C16.5792 10.284 16.8772 8.767 18.2802 8.688L19.0982 13.778C19.1642 14.192 19.5212 14.485 19.9272 14.485C19.9712 14.485 20.0172 14.481 20.0612 14.475C20.5202 14.401 20.8312 13.97 20.7582 13.512L20.0312 8.98C21.0482 9.282 22.3992 9.828 24.2672 10.681C25.6852 11.331 26.9072 11.632 28.1122 11.632C28.7242 11.632 29.3342 11.551 29.9732 11.383C30.1022 13.837 30.3572 15.708 30.8362 17.447L26.4992 21.682C26.3092 21.866 26.3052 22.17 26.4912 22.361C26.5852 22.456 26.7092 22.505 26.8332 22.505C26.9552 22.505 27.0762 22.46 27.1702 22.368L31.1532 18.479C31.7932 20.39 32.7392 22.261 34.1392 24.743C34.2282 24.899 34.3912 24.988 34.5582 24.988C34.6382 24.988 34.7202 24.968 34.7942 24.925C35.0252 24.795 35.1072 24.502 34.9772 24.272C32.1162 19.201 31.1952 16.755 30.9202 11.076C31.6282 10.807 32.3822 10.439 33.2272 9.95C33.2872 9.914 33.4392 9.856 33.7652 9.856C34.9052 9.856 36.7762 10.573 38.1432 11.095C38.5512 11.253 38.9262 11.396 39.2582 11.513C39.2712 13.68 39.7462 15.922 40.2542 18.123L35.9562 18.957C35.6962 19.008 35.5252 19.26 35.5762 19.52C35.6212 19.749 35.8212 19.909 36.0472 19.909C36.0782 19.909 36.1082 19.905 36.1392 19.9L40.4682 19.06C40.9532 21.134 41.4042 23.099 41.5152 24.984C41.6852 27.833 41.2032 30.684 40.6512 33.677L33.0222 33.305C32.5582 33.271 32.1652 33.64 32.1422 34.103C32.1192 34.566 32.4772 34.961 32.9402 34.985L40.3472 35.346C39.9242 37.654 39.5342 40.02 39.4762 42.392C39.4732 42.53 39.4632 42.662 39.4552 42.796C37.4982 40.574 33.2272 36.395 30.7202 36.745C30.1962 36.811 29.4872 37.101 29.0962 38.101C28.9982 38.347 29.1212 38.625 29.3672 38.723C29.6132 38.819 29.8922 38.698 29.9892 38.451C30.2292 37.841 30.5902 37.729 30.8412 37.696C32.9902 37.425 37.6692 42.045 39.2972 44.085C38.7682 46.724 37.0312 47.84 33.6202 47.84ZM21.5422 25.628L16.7382 25.107C16.9482 24.258 17.1362 23.451 17.2962 22.662C18.9662 23.644 20.3182 24.587 21.5422 25.628ZM43.1942 24.884C43.0702 22.806 42.5612 20.623 42.0692 18.515C41.4732 15.962 40.8582 13.326 40.9492 10.938C40.9632 10.55 40.7102 10.203 40.3362 10.097C39.9512 9.989 39.3912 9.773 38.7442 9.526C37.1722 8.923 35.2152 8.175 33.7652 8.175C33.2092 8.175 32.7572 8.28 32.3842 8.497C30.5982 9.53 29.3602 9.951 28.1122 9.951C27.1572 9.951 26.1572 9.699 24.9662 9.152C21.5792 7.603 19.7392 7 18.3992 7C15.1902 7 14.9102 10.086 14.4002 15.686C14.2732 17.079 14.8412 18.737 15.2972 20.07C15.5042 20.673 15.7872 21.502 15.7742 21.724C15.6032 22.699 15.3452 23.741 15.0722 24.843C14.5152 27.099 13.9392 29.43 14.0052 31.563C14.0812 33.957 14.3862 35.953 14.6792 37.885C15.1302 40.853 15.5552 43.656 14.9722 47.308C14.9252 47.599 15.0352 47.895 15.2612 48.086C15.4882 48.274 15.8002 48.331 16.0792 48.233C16.9262 47.937 17.9482 47.792 19.2062 47.792C21.3662 47.792 23.9002 48.228 26.3522 48.651C28.8302 49.08 31.3912 49.521 33.6182 49.521H33.6202C38.5762 49.521 41.0422 47.202 41.1562 42.433C41.2192 39.845 41.7102 37.197 42.1842 34.634C42.7752 31.444 43.3872 28.144 43.1942 24.884Z" fill="black"/>
</svg>
