<svg width="57" height="57" viewBox="0 0 57 57" fill="none" xmlns="http://www.w3.org/2000/svg">
<path fill-rule="evenodd" clip-rule="evenodd" d="M49.2123 28.5157C49.1003 28.4907 48.9883 28.5507 48.9423 28.6547C46.3663 34.5947 38.0703 38.5877 28.2983 38.5877C26.0473 38.5877 23.7913 38.3677 21.5973 37.9347C14.3883 36.5067 9.17535 32.3717 8.61235 27.6387C8.69835 26.9327 8.89035 26.2277 9.18835 25.5417C10.8223 21.7707 16.0993 19.2357 22.3183 19.2357C23.7543 19.2357 25.1923 19.3767 26.5903 19.6537C31.0273 20.5307 34.2373 22.9627 34.7833 25.8557C34.7193 26.1937 34.6143 26.5337 34.4703 26.8637C33.4543 29.2087 30.0303 30.8447 26.1443 30.8447C25.2323 30.8447 24.3183 30.7567 23.4303 30.5807C20.8353 30.0677 18.8443 28.6667 18.3323 26.9997C18.3663 26.8957 18.4043 26.7917 18.4493 26.6877C19.0863 25.2177 21.2443 24.1907 23.6973 24.1907C24.2753 24.1907 24.8553 24.2477 25.4193 24.3587C26.8603 24.6447 28.0173 25.3677 28.4783 26.2597C28.0173 27.0987 26.7193 27.6767 25.2643 27.6767C24.8983 27.6767 24.5343 27.6397 24.1783 27.5697C24.1063 27.5537 24.0353 27.5737 23.9793 27.6197C23.9233 27.6657 23.8913 27.7327 23.8913 27.8057V29.4767C23.8913 29.5907 23.9723 29.6897 24.0853 29.7127C24.4723 29.7887 24.8683 29.8277 25.2653 29.8277C27.0133 29.8277 28.5083 29.0897 28.9843 27.9917C29.2263 27.4287 29.2353 26.8337 29.0063 26.2637C29.2613 25.6357 29.2233 24.9757 28.8973 24.3527C28.3603 23.3287 27.0943 22.5297 25.5123 22.2157C24.9183 22.0987 24.3073 22.0397 23.6983 22.0397C21.0163 22.0397 18.7293 23.1597 18.0083 24.8257C17.7003 25.5357 17.6413 26.2667 17.8333 26.9997C17.5963 27.8997 17.7473 28.8307 18.2773 29.6947C19.1713 31.1597 21.0163 32.2647 23.3363 32.7247C24.2563 32.9057 25.2023 32.9987 26.1463 32.9987C30.2823 32.9987 33.8033 31.2817 34.9103 28.7267C35.3173 27.7917 35.4383 26.8247 35.2723 25.8557C35.9143 22.1287 32.3123 18.6247 26.6853 17.5117C25.2543 17.2287 23.7873 17.0847 22.3203 17.0847C15.9103 17.0847 10.4573 19.7337 8.74835 23.6777C8.18935 24.9687 7.98035 26.2987 8.12935 27.6387C7.51035 33.1917 13.1293 38.4187 21.5033 40.0757C23.7283 40.5157 26.0133 40.7387 28.2963 40.7387C38.2573 40.7387 46.7323 36.6307 49.3833 30.5187C49.3963 30.4877 49.4033 30.4547 49.4033 30.4227V28.7507C49.4033 28.6357 49.3243 28.5387 49.2123 28.5157Z" fill="black"/>
</svg>
