<svg width="57" height="57" viewBox="0 0 57 57" fill="none" xmlns="http://www.w3.org/2000/svg">
<path fill-rule="evenodd" clip-rule="evenodd" d="M37.93 43.183C37.953 43.151 37.976 43.118 37.998 43.085C38.321 42.617 38.677 42.104 39.019 41.837C39.137 41.838 39.258 41.848 39.372 41.82C39.485 41.793 39.585 41.729 39.688 41.675C40.116 41.755 40.668 42.045 41.175 42.318C41.209 42.337 41.245 42.353 41.28 42.373L37.93 43.183ZM30.639 44.947C30.663 44.914 30.686 44.882 30.71 44.849C31.033 44.38 31.389 43.867 31.729 43.601C31.848 43.603 31.969 43.613 32.08 43.583C32.194 43.557 32.295 43.493 32.398 43.438C32.828 43.517 33.376 43.81 33.882 44.081C33.918 44.102 33.952 44.118 33.988 44.137L30.639 44.947ZM23.348 46.712C23.371 46.678 23.394 46.647 23.417 46.613C23.741 46.142 24.099 45.63 24.44 45.364C24.558 45.365 24.677 45.375 24.791 45.348C24.904 45.32 25.005 45.257 25.11 45.201C25.538 45.282 26.088 45.574 26.592 45.844C26.628 45.865 26.662 45.881 26.699 45.901L23.348 46.712ZM19.7 46.859C19.329 46.66 18.952 46.465 18.581 46.319C18.812 46.045 19.034 45.737 19.26 45.412C19.572 44.959 19.917 44.467 20.247 44.193C20.267 44.193 20.288 44.199 20.309 44.199C20.425 44.199 20.539 44.188 20.65 44.16C20.773 44.131 20.882 44.064 20.994 44.004C21.416 44.093 21.954 44.378 22.446 44.641C22.795 44.828 23.133 45 23.463 45.137C23.201 45.438 22.955 45.781 22.716 46.13C22.501 46.44 22.273 46.767 22.046 47.026L20.709 47.351C20.389 47.224 20.034 47.038 19.7 46.859ZM17.576 42.165C17.807 41.891 18.029 41.582 18.255 41.257C18.568 40.805 18.912 40.312 19.243 40.038C19.262 40.039 19.285 40.046 19.304 40.046C19.42 40.046 19.534 40.034 19.646 40.006C19.769 39.976 19.878 39.909 19.991 39.848C20.413 39.938 20.95 40.224 21.441 40.486C21.79 40.674 22.128 40.845 22.458 40.984C22.196 41.283 21.951 41.628 21.712 41.976C21.412 42.41 21.082 42.884 20.768 43.145C20.646 43.145 20.52 43.133 20.403 43.161C20.284 43.191 20.175 43.258 20.064 43.318C19.672 43.226 19.162 42.954 18.697 42.705C18.324 42.506 17.947 42.311 17.576 42.165ZM16.573 38.009C16.803 37.736 17.025 37.428 17.25 37.102C17.563 36.65 17.907 36.157 18.237 35.884C18.257 35.885 18.279 35.891 18.298 35.891C18.415 35.891 18.529 35.879 18.641 35.851C18.763 35.822 18.874 35.754 18.986 35.694C19.409 35.783 19.944 36.068 20.435 36.331C20.785 36.518 21.124 36.69 21.454 36.828C21.19 37.127 20.945 37.473 20.706 37.821C20.406 38.255 20.077 38.729 19.764 38.99C19.641 38.989 19.516 38.979 19.398 39.007C19.278 39.036 19.17 39.104 19.059 39.163C18.664 39.073 18.159 38.801 17.692 38.55C17.32 38.351 16.942 38.155 16.573 38.009ZM15.566 33.855C15.797 33.581 16.02 33.273 16.245 32.948C16.558 32.496 16.901 32.002 17.232 31.728C17.253 31.729 17.273 31.737 17.294 31.737C17.41 31.737 17.525 31.725 17.637 31.696C17.758 31.667 17.869 31.6 17.98 31.54C18.402 31.629 18.939 31.913 19.429 32.177C19.778 32.363 20.117 32.536 20.447 32.675C20.185 32.974 19.939 33.319 19.699 33.667C19.4 34.102 19.071 34.575 18.759 34.836C18.635 34.835 18.511 34.824 18.392 34.852C18.273 34.881 18.166 34.949 18.056 35.007C17.664 34.917 17.154 34.646 16.687 34.396C16.313 34.196 15.937 34.002 15.566 33.855ZM14.561 29.7C14.792 29.426 15.014 29.118 15.24 28.791C15.552 28.339 15.897 27.848 16.227 27.573C16.247 27.574 16.268 27.582 16.289 27.582C16.405 27.582 16.52 27.57 16.631 27.542C16.754 27.514 16.862 27.446 16.974 27.386C17.396 27.476 17.934 27.76 18.425 28.022C18.773 28.209 19.112 28.381 19.442 28.519C19.181 28.819 18.934 29.164 18.695 29.513C18.395 29.947 18.066 30.42 17.754 30.682C17.63 30.681 17.505 30.67 17.388 30.698C17.269 30.727 17.163 30.794 17.052 30.853C16.659 30.763 16.15 30.493 15.681 30.241C15.309 30.042 14.932 29.847 14.561 29.7ZM13.556 25.545C13.786 25.272 14.008 24.964 14.233 24.638C14.547 24.186 14.891 23.694 15.221 23.42C15.241 23.42 15.263 23.427 15.282 23.427C15.399 23.427 15.513 23.416 15.626 23.388C15.747 23.359 15.857 23.292 15.97 23.231C16.393 23.321 16.928 23.604 17.42 23.868C17.769 24.054 18.108 24.228 18.437 24.364C18.174 24.666 17.929 25.011 17.69 25.358C17.39 25.793 17.061 26.265 16.748 26.528C16.625 26.527 16.499 26.515 16.382 26.543C16.263 26.572 16.155 26.64 16.045 26.698C15.652 26.608 15.142 26.337 14.675 26.087C14.304 25.888 13.927 25.693 13.556 25.545ZM12.551 21.391C12.782 21.118 13.005 20.811 13.229 20.484C13.543 20.032 13.885 19.54 14.217 19.265C14.236 19.265 14.257 19.273 14.277 19.273C14.394 19.273 14.508 19.261 14.621 19.234C14.742 19.205 14.852 19.137 14.963 19.077C15.386 19.167 15.924 19.451 16.414 19.713C16.764 19.9 17.103 20.072 17.433 20.21C17.169 20.511 16.925 20.856 16.685 21.202C16.385 21.638 16.056 22.111 15.743 22.373C15.621 22.372 15.495 22.36 15.377 22.389C15.258 22.418 15.151 22.486 15.041 22.544C14.647 22.454 14.139 22.184 13.671 21.932C13.3 21.733 12.921 21.538 12.551 21.391ZM11.545 17.237C11.776 16.964 12 16.656 12.224 16.33C12.479 15.961 12.753 15.579 13.024 15.296L14.226 15.007C14.596 15.134 15.014 15.348 15.409 15.559C15.759 15.745 16.097 15.918 16.427 16.056C16.165 16.357 15.919 16.701 15.679 17.048C15.38 17.483 15.05 17.956 14.738 18.218C14.614 18.218 14.489 18.206 14.371 18.235C14.253 18.263 14.146 18.332 14.036 18.39C13.642 18.3 13.134 18.029 12.665 17.777C12.293 17.579 11.916 17.385 11.545 17.237ZM18.976 13.857C18.924 13.932 18.87 14.006 18.817 14.08C18.511 14.524 18.172 15.013 17.859 15.27C17.745 15.271 17.627 15.258 17.517 15.284C17.409 15.311 17.312 15.374 17.212 15.425C16.815 15.341 16.29 15.063 15.811 14.808C15.73 14.765 15.649 14.725 15.567 14.681L18.976 13.857ZM26.266 12.093C26.214 12.167 26.159 12.242 26.107 12.317C25.8 12.761 25.463 13.249 25.15 13.506C25.035 13.507 24.918 13.494 24.808 13.521C24.699 13.548 24.6 13.612 24.498 13.663C24.1 13.579 23.581 13.299 23.103 13.044C23.023 13 22.941 12.96 22.86 12.917L26.266 12.093ZM33.559 10.328C33.505 10.403 33.451 10.478 33.399 10.553C33.091 10.996 32.755 11.485 32.44 11.741C32.326 11.742 32.209 11.729 32.099 11.757C31.989 11.784 31.893 11.846 31.791 11.899C31.393 11.815 30.87 11.535 30.392 11.279C30.312 11.237 30.229 11.197 30.149 11.154L33.559 10.328ZM37.285 10.266C37.634 10.453 37.973 10.625 38.304 10.762C38.042 11.062 37.795 11.408 37.554 11.757C37.254 12.191 36.925 12.664 36.611 12.927C36.489 12.926 36.364 12.914 36.246 12.942C36.127 12.972 36.018 13.039 35.907 13.099C35.513 13.009 35.007 12.736 34.54 12.485C34.169 12.286 33.793 12.092 33.422 11.944C33.652 11.671 33.874 11.363 34.1 11.037C34.353 10.67 34.628 10.287 34.9 10.004L36.101 9.713C36.471 9.841 36.89 10.055 37.285 10.266ZM39.308 14.918C39.046 15.217 38.8 15.563 38.559 15.912C38.26 16.346 37.93 16.819 37.617 17.081C37.494 17.08 37.368 17.068 37.251 17.096C37.132 17.127 37.023 17.194 36.913 17.254C36.518 17.164 36.012 16.89 35.545 16.64C35.174 16.44 34.796 16.246 34.426 16.099C34.656 15.825 34.879 15.517 35.106 15.191C35.422 14.733 35.771 14.232 36.104 13.96C36.236 13.963 36.368 13.971 36.495 13.942C36.617 13.912 36.727 13.845 36.838 13.784C37.262 13.873 37.799 14.157 38.291 14.422C38.639 14.607 38.979 14.78 39.308 14.918ZM40.313 19.072C40.051 19.373 39.805 19.716 39.565 20.066C39.265 20.499 38.936 20.973 38.623 21.235C38.499 21.235 38.374 21.223 38.256 21.251C38.136 21.281 38.029 21.349 37.917 21.407C37.523 21.318 37.018 21.045 36.552 20.794C36.18 20.595 35.801 20.401 35.43 20.253C35.661 19.98 35.884 19.671 36.109 19.346C36.427 18.888 36.775 18.387 37.109 18.115C37.24 18.119 37.373 18.127 37.501 18.095C37.622 18.067 37.73 18 37.843 17.939C38.266 18.029 38.803 18.313 39.294 18.576C39.645 18.762 39.984 18.935 40.313 19.072ZM41.317 23.228C41.055 23.527 40.809 23.872 40.571 24.219C40.27 24.654 39.941 25.128 39.627 25.389C39.505 25.389 39.379 25.377 39.262 25.406C39.142 25.435 39.036 25.502 38.926 25.561C38.533 25.471 38.023 25.199 37.555 24.949C37.184 24.749 36.808 24.554 36.437 24.408C36.667 24.135 36.89 23.825 37.114 23.5C37.432 23.042 37.779 22.541 38.114 22.269C38.246 22.274 38.378 22.281 38.505 22.25C38.627 22.222 38.737 22.154 38.85 22.094C39.271 22.182 39.808 22.467 40.3 22.73C40.65 22.917 40.987 23.09 41.317 23.228ZM42.323 27.381C42.061 27.681 41.815 28.026 41.575 28.374C41.276 28.809 40.946 29.282 40.632 29.544C40.51 29.543 40.384 29.531 40.266 29.56C40.148 29.589 40.041 29.655 39.933 29.714C39.539 29.623 39.029 29.354 38.56 29.103C38.189 28.904 37.813 28.709 37.442 28.562C37.673 28.289 37.895 27.98 38.12 27.656C38.438 27.197 38.785 26.695 39.12 26.423C39.252 26.427 39.383 26.436 39.51 26.404C39.632 26.375 39.742 26.308 39.854 26.247C40.278 26.337 40.814 26.622 41.305 26.885C41.654 27.071 41.993 27.243 42.323 27.381ZM43.33 31.535C43.066 31.835 42.82 32.18 42.58 32.529C42.281 32.963 41.951 33.437 41.638 33.698C41.515 33.697 41.389 33.685 41.272 33.715C41.154 33.743 41.048 33.81 40.937 33.869C40.545 33.778 40.035 33.509 39.566 33.258C39.195 33.058 38.817 32.863 38.447 32.717C38.677 32.444 38.901 32.135 39.126 31.809C39.444 31.351 39.791 30.849 40.124 30.577C40.256 30.582 40.388 30.59 40.515 30.559C40.637 30.53 40.747 30.463 40.859 30.402C41.282 30.49 41.819 30.777 42.31 31.039C42.659 31.226 42.999 31.397 43.33 31.535ZM44.334 35.69C44.071 35.99 43.825 36.336 43.586 36.684C43.285 37.118 42.956 37.59 42.644 37.852C42.519 37.852 42.395 37.84 42.278 37.869C42.158 37.897 42.052 37.966 41.941 38.023C41.549 37.933 41.038 37.663 40.572 37.413C40.2 37.213 39.822 37.018 39.451 36.871C39.683 36.598 39.905 36.29 40.13 35.965C40.447 35.506 40.796 35.004 41.13 34.732C41.261 34.736 41.394 34.745 41.521 34.713C41.643 34.684 41.753 34.618 41.866 34.556C42.288 34.645 42.825 34.931 43.315 35.194C43.665 35.38 44.004 35.552 44.334 35.69ZM31.845 42.603C31.737 42.628 31.639 42.693 31.538 42.744C31.139 42.66 30.619 42.382 30.138 42.125C29.774 41.929 29.401 41.737 29.035 41.591C29.262 41.32 29.481 41.016 29.703 40.694C30.026 40.226 30.381 39.714 30.723 39.447C30.841 39.449 30.962 39.458 31.076 39.43C31.19 39.403 31.292 39.338 31.397 39.282C31.826 39.363 32.372 39.656 32.876 39.926C33.22 40.112 33.555 40.281 33.882 40.419C33.623 40.716 33.381 41.055 33.144 41.398C32.836 41.843 32.499 42.331 32.186 42.587C32.072 42.588 31.955 42.575 31.845 42.603ZM22.43 37.055C22.547 37.056 22.667 37.066 22.78 37.039C22.893 37.012 22.994 36.949 23.097 36.894C23.524 36.973 24.077 37.265 24.581 37.536C24.926 37.722 25.26 37.891 25.587 38.028C25.329 38.326 25.086 38.664 24.849 39.006C24.541 39.451 24.204 39.941 23.891 40.196C23.776 40.197 23.659 40.185 23.549 40.212C23.44 40.238 23.343 40.303 23.241 40.354C22.844 40.269 22.319 39.99 21.842 39.734C21.476 39.539 21.104 39.348 20.738 39.202C20.965 38.931 21.185 38.627 21.407 38.304C21.73 37.833 22.087 37.32 22.43 37.055ZM21.42 32.902C21.541 32.903 21.662 32.913 21.776 32.885C21.888 32.858 21.988 32.794 22.093 32.74C22.519 32.819 23.072 33.111 23.577 33.382C23.921 33.567 24.256 33.736 24.581 33.873C24.323 34.17 24.08 34.511 23.844 34.852C23.537 35.298 23.199 35.785 22.885 36.042C22.77 36.043 22.653 36.03 22.544 36.058C22.434 36.083 22.338 36.148 22.237 36.199C21.84 36.115 21.316 35.837 20.837 35.58C20.47 35.385 20.099 35.194 19.733 35.046C19.959 34.775 20.179 34.473 20.401 34.151C20.724 33.681 21.08 33.169 21.42 32.902ZM20.417 28.747C20.536 28.748 20.657 28.758 20.771 28.73C20.882 28.702 20.983 28.639 21.087 28.585C21.515 28.664 22.067 28.956 22.572 29.227C22.916 29.413 23.25 29.582 23.577 29.718C23.318 30.016 23.075 30.356 22.838 30.699C22.531 31.142 22.192 31.631 21.879 31.887C21.765 31.888 21.648 31.875 21.538 31.904C21.429 31.93 21.331 31.994 21.23 32.045C20.832 31.96 20.31 31.681 19.831 31.425C19.465 31.23 19.093 31.039 18.727 30.893C18.954 30.622 19.173 30.318 19.396 29.996C19.72 29.526 20.076 29.014 20.417 28.747ZM19.413 24.591C19.531 24.593 19.651 24.603 19.764 24.576C19.877 24.548 19.977 24.485 20.081 24.431C20.509 24.509 21.06 24.801 21.567 25.073C21.911 25.258 22.244 25.427 22.572 25.565C22.313 25.861 22.07 26.201 21.832 26.544C21.525 26.988 21.188 27.477 20.875 27.733C20.76 27.734 20.644 27.721 20.533 27.749C20.422 27.775 20.325 27.84 20.222 27.891C19.825 27.808 19.302 27.526 18.826 27.271C18.46 27.074 18.088 26.885 17.722 26.738C17.949 26.467 18.168 26.164 18.39 25.841C18.714 25.372 19.07 24.859 19.413 24.591ZM18.406 20.438C18.525 20.439 18.646 20.45 18.76 20.421C18.872 20.393 18.973 20.33 19.076 20.276C19.504 20.354 20.056 20.647 20.561 20.919C20.907 21.103 21.239 21.274 21.565 21.41C21.308 21.707 21.065 22.047 20.828 22.389C20.52 22.833 20.183 23.322 19.869 23.578C19.754 23.579 19.638 23.566 19.528 23.594C19.42 23.619 19.324 23.684 19.223 23.733C18.826 23.65 18.3 23.372 17.821 23.116C17.454 22.92 17.082 22.731 16.717 22.584C16.945 22.313 17.165 22.009 17.387 21.687C17.709 21.217 18.066 20.704 18.406 20.438ZM26.846 15C27.191 15.186 27.524 15.355 27.851 15.491C27.593 15.788 27.35 16.129 27.112 16.471C26.806 16.915 26.468 17.404 26.155 17.66C26.04 17.661 25.924 17.648 25.814 17.675C25.707 17.701 25.611 17.765 25.511 17.815C25.114 17.732 24.588 17.454 24.109 17.198C23.742 17.002 23.37 16.812 23.005 16.665C23.231 16.394 23.45 16.09 23.673 15.769C23.995 15.298 24.352 14.785 24.692 14.519C24.811 14.521 24.933 14.531 25.046 14.503C25.159 14.475 25.26 14.411 25.365 14.356C25.795 14.435 26.34 14.73 26.846 15ZM34.45 20.052C34.336 20.052 34.219 20.04 34.111 20.067C34 20.093 33.901 20.158 33.798 20.209C33.404 20.124 32.88 19.844 32.403 19.588C32.036 19.393 31.665 19.202 31.3 19.055C31.527 18.784 31.746 18.48 31.969 18.158C32.291 17.69 32.647 17.178 32.987 16.91C33.106 16.911 33.228 16.922 33.342 16.894C33.453 16.865 33.554 16.802 33.658 16.748C34.086 16.827 34.638 17.12 35.143 17.391C35.487 17.576 35.822 17.745 36.147 17.883C35.889 18.18 35.647 18.519 35.411 18.861C35.103 19.305 34.763 19.796 34.45 20.052ZM35.456 24.205C35.341 24.206 35.224 24.193 35.115 24.221C35.005 24.247 34.908 24.311 34.805 24.363C34.41 24.278 33.886 23.999 33.408 23.743C33.041 23.548 32.669 23.357 32.305 23.211C32.53 22.938 32.752 22.636 32.973 22.314C33.297 21.843 33.653 21.33 33.994 21.064C34.113 21.064 34.233 21.075 34.346 21.048C34.459 21.02 34.56 20.957 34.663 20.903C35.092 20.981 35.643 21.274 36.148 21.546C36.493 21.73 36.826 21.899 37.154 22.036C36.895 22.333 36.651 22.674 36.415 23.015C36.107 23.46 35.77 23.949 35.456 24.205ZM36.462 28.36C36.347 28.361 36.23 28.348 36.12 28.375C36.009 28.401 35.913 28.466 35.81 28.518C35.412 28.433 34.89 28.154 34.412 27.898C34.047 27.702 33.675 27.511 33.309 27.365C33.536 27.094 33.755 26.79 33.976 26.468C34.3 25.999 34.656 25.486 34.999 25.22C35.117 25.221 35.238 25.23 35.351 25.202C35.464 25.176 35.564 25.112 35.668 25.057C36.097 25.135 36.647 25.428 37.152 25.699C37.497 25.885 37.831 26.054 38.159 26.191C37.9 26.488 37.656 26.828 37.418 27.171C37.112 27.616 36.775 28.104 36.462 28.36ZM37.466 32.514C37.352 32.515 37.234 32.502 37.125 32.529C37.016 32.555 36.917 32.62 36.816 32.671C36.416 32.588 35.897 32.308 35.418 32.051C35.052 31.856 34.68 31.665 34.314 31.519C34.541 31.247 34.76 30.945 34.981 30.623C35.307 30.151 35.665 29.637 36.007 29.372C36.124 29.374 36.244 29.383 36.358 29.356C36.469 29.33 36.57 29.266 36.674 29.211C37.102 29.29 37.652 29.583 38.158 29.854C38.502 30.038 38.837 30.207 39.164 30.345C38.905 30.642 38.662 30.982 38.425 31.323C38.118 31.769 37.779 32.258 37.466 32.514ZM30.839 38.448C30.729 38.473 30.633 38.538 30.532 38.589C30.134 38.506 29.612 38.227 29.135 37.97C28.767 37.775 28.395 37.584 28.03 37.436C28.258 37.165 28.477 36.863 28.698 36.541C29.021 36.071 29.376 35.559 29.717 35.293C29.837 35.294 29.957 35.303 30.072 35.275C30.185 35.248 30.286 35.183 30.391 35.129C30.819 35.208 31.368 35.502 31.871 35.773C32.216 35.957 32.55 36.126 32.878 36.263C32.619 36.561 32.375 36.901 32.139 37.243C31.832 37.688 31.494 38.175 31.18 38.432C31.066 38.433 30.949 38.42 30.839 38.448ZM25.543 34.106C25.675 34.109 25.807 34.118 25.934 34.087C26.056 34.057 26.166 33.99 26.279 33.929C26.7 34.018 27.237 34.305 27.726 34.567C28.076 34.755 28.414 34.927 28.742 35.065C28.481 35.365 28.236 35.71 27.996 36.058C27.697 36.492 27.37 36.965 27.057 37.226C26.933 37.225 26.808 37.213 26.691 37.242C26.571 37.272 26.465 37.339 26.354 37.397C25.962 37.306 25.452 37.036 24.984 36.787C24.613 36.586 24.237 36.391 23.866 36.245C24.097 35.971 24.319 35.662 24.545 35.338C24.861 34.879 25.209 34.378 25.543 34.106ZM24.537 29.952C24.668 29.956 24.802 29.964 24.928 29.932C25.05 29.904 25.16 29.837 25.271 29.776C25.694 29.865 26.229 30.149 26.72 30.412C27.07 30.599 27.409 30.772 27.738 30.911C27.476 31.211 27.231 31.555 26.991 31.904C26.693 32.337 26.363 32.811 26.051 33.073C25.928 33.072 25.802 33.06 25.685 33.088C25.568 33.117 25.461 33.184 25.351 33.242C24.958 33.152 24.448 32.883 23.98 32.632C23.608 32.432 23.23 32.236 22.86 32.09C23.09 31.817 23.313 31.509 23.538 31.184C23.855 30.725 24.203 30.224 24.537 29.952ZM23.533 25.798C23.664 25.801 23.796 25.809 23.923 25.779C24.045 25.749 24.154 25.682 24.266 25.622C24.688 25.711 25.224 25.995 25.716 26.259C26.066 26.444 26.403 26.618 26.734 26.756C26.473 27.056 26.227 27.4 25.987 27.748C25.688 28.183 25.358 28.656 25.046 28.918C24.923 28.917 24.797 28.905 24.679 28.933C24.56 28.964 24.451 29.031 24.341 29.09C23.946 29.001 23.442 28.727 22.975 28.477C22.602 28.277 22.226 28.082 21.855 27.934C22.086 27.661 22.308 27.354 22.534 27.029C22.851 26.571 23.198 26.069 23.533 25.798ZM22.527 21.643C22.659 21.647 22.791 21.654 22.918 21.624C23.04 21.595 23.15 21.527 23.263 21.467C23.685 21.556 24.22 21.841 24.711 22.104C25.061 22.29 25.399 22.463 25.729 22.601C25.467 22.9 25.22 23.246 24.982 23.594C24.682 24.028 24.354 24.501 24.041 24.764C23.918 24.762 23.793 24.751 23.674 24.779C23.554 24.809 23.446 24.876 23.334 24.936C22.941 24.846 22.436 24.573 21.97 24.322C21.598 24.123 21.221 23.927 20.85 23.78C21.081 23.507 21.303 23.199 21.529 22.873C21.845 22.417 22.192 21.915 22.527 21.643ZM31.33 22.999C31.207 22.998 31.082 22.987 30.963 23.015C30.845 23.045 30.738 23.112 30.629 23.169C30.235 23.079 29.727 22.81 29.26 22.559C28.888 22.359 28.51 22.164 28.142 22.017C28.372 21.743 28.594 21.435 28.819 21.11C29.136 20.652 29.483 20.15 29.817 19.879C29.948 19.882 30.08 19.89 30.206 19.86C30.329 19.83 30.441 19.763 30.552 19.702C30.975 19.791 31.511 20.078 32.001 20.341C32.35 20.527 32.69 20.699 33.02 20.837C32.756 21.137 32.511 21.482 32.27 21.83C31.972 22.264 31.642 22.737 31.33 22.999ZM32.335 27.154C32.213 27.154 32.086 27.142 31.97 27.17C31.851 27.199 31.743 27.266 31.633 27.325C31.241 27.235 30.73 26.963 30.266 26.712C29.894 26.514 29.517 26.319 29.145 26.171C29.376 25.899 29.598 25.59 29.823 25.266C30.139 24.807 30.487 24.306 30.82 24.034C30.951 24.037 31.085 24.046 31.212 24.014C31.333 23.985 31.444 23.919 31.554 23.858C31.977 23.948 32.515 24.231 33.007 24.496C33.355 24.681 33.694 24.853 34.024 24.992C33.761 25.292 33.516 25.636 33.275 25.985C32.976 26.42 32.648 26.893 32.335 27.154ZM33.341 31.309C33.216 31.308 33.091 31.296 32.975 31.324C32.855 31.354 32.748 31.421 32.638 31.48C32.246 31.388 31.736 31.117 31.27 30.868C30.899 30.668 30.521 30.473 30.15 30.327C30.381 30.053 30.603 29.744 30.829 29.42C31.145 28.961 31.493 28.459 31.828 28.187C31.959 28.191 32.09 28.2 32.217 28.169C32.34 28.139 32.448 28.073 32.56 28.013C32.983 28.103 33.518 28.386 34.011 28.649C34.36 28.836 34.699 29.008 35.029 29.146C34.767 29.446 34.52 29.791 34.281 30.139C33.98 30.574 33.653 31.048 33.341 31.309ZM27.71 26.982C27.829 26.983 27.948 26.992 28.061 26.966C28.174 26.939 28.276 26.875 28.379 26.82C28.81 26.899 29.357 27.193 29.863 27.464C30.206 27.648 30.54 27.818 30.866 27.955C30.608 28.252 30.364 28.593 30.128 28.934C29.82 29.379 29.484 29.867 29.171 30.123C29.056 30.124 28.939 30.111 28.829 30.139C28.72 30.165 28.622 30.229 28.52 30.281C28.122 30.196 27.602 29.918 27.123 29.661C26.757 29.466 26.385 29.275 26.02 29.128C26.247 28.857 26.466 28.554 26.688 28.231C27.013 27.761 27.37 27.248 27.71 26.982ZM26.705 22.828C26.823 22.829 26.942 22.839 27.056 22.811C27.167 22.784 27.268 22.721 27.371 22.668C27.798 22.746 28.35 23.038 28.856 23.309C29.2 23.495 29.534 23.664 29.861 23.802C29.601 24.098 29.358 24.438 29.122 24.78C28.816 25.224 28.479 25.712 28.166 25.969C28.052 25.969 27.933 25.956 27.825 25.985C27.714 26.011 27.617 26.076 27.515 26.126C27.117 26.042 26.596 25.763 26.118 25.506C25.753 25.311 25.381 25.12 25.015 24.974C25.243 24.703 25.462 24.399 25.683 24.077C26.007 23.606 26.363 23.094 26.705 22.828ZM29.833 34.294C29.725 34.32 29.627 34.384 29.525 34.436C29.13 34.35 28.605 34.071 28.129 33.816C27.762 33.62 27.39 33.429 27.025 33.283C27.251 33.012 27.472 32.708 27.694 32.386C28.017 31.916 28.373 31.404 28.713 31.137C28.831 31.138 28.952 31.148 29.067 31.121C29.18 31.094 29.28 31.029 29.386 30.974C29.815 31.052 30.363 31.347 30.867 31.618C31.212 31.803 31.545 31.973 31.871 32.11C31.613 32.407 31.369 32.747 31.133 33.089C30.826 33.535 30.49 34.023 30.176 34.279C30.061 34.279 29.944 34.266 29.833 34.294ZM34.344 35.464C34.221 35.463 34.096 35.451 33.978 35.479C33.858 35.508 33.751 35.577 33.638 35.636C33.245 35.546 32.741 35.272 32.276 35.022C31.903 34.823 31.526 34.628 31.155 34.481C31.386 34.208 31.609 33.899 31.834 33.574C32.15 33.116 32.497 32.615 32.832 32.343C32.963 32.346 33.096 32.355 33.222 32.323C33.344 32.294 33.454 32.227 33.567 32.166C33.989 32.256 34.525 32.541 35.016 32.804C35.366 32.99 35.704 33.163 36.034 33.3C35.772 33.601 35.525 33.946 35.286 34.294C34.986 34.729 34.656 35.203 34.344 35.464ZM28.811 15.726C28.943 15.729 29.075 15.736 29.201 15.706C29.324 15.677 29.435 15.61 29.548 15.549C29.969 15.638 30.505 15.923 30.996 16.185C31.345 16.372 31.684 16.544 32.013 16.682C31.752 16.982 31.506 17.327 31.267 17.674C30.967 18.109 30.638 18.582 30.325 18.844C30.202 18.843 30.076 18.833 29.958 18.861C29.839 18.89 29.733 18.957 29.623 19.016C29.23 18.925 28.721 18.655 28.253 18.403C27.881 18.205 27.506 18.011 27.135 17.863C27.366 17.589 27.589 17.281 27.814 16.954C28.13 16.498 28.477 15.997 28.811 15.726ZM26.051 18.657C26.161 18.63 26.262 18.567 26.365 18.514C26.792 18.592 27.344 18.884 27.85 19.155C28.194 19.34 28.529 19.509 28.855 19.647C28.598 19.943 28.354 20.284 28.118 20.625C27.811 21.069 27.473 21.558 27.159 21.815C27.045 21.816 26.928 21.803 26.82 21.83C26.71 21.856 26.614 21.921 26.513 21.971C26.116 21.886 25.592 21.609 25.114 21.353C24.747 21.157 24.375 20.967 24.01 20.819C24.237 20.548 24.456 20.246 24.677 19.924C25.001 19.453 25.358 18.939 25.701 18.672C25.818 18.674 25.937 18.684 26.051 18.657ZM21.522 17.488C21.654 17.492 21.787 17.5 21.913 17.469C22.036 17.44 22.146 17.373 22.257 17.312C22.679 17.401 23.216 17.686 23.706 17.949C24.055 18.135 24.395 18.309 24.723 18.445C24.462 18.746 24.216 19.092 23.976 19.439C23.676 19.875 23.348 20.346 23.036 20.609C22.912 20.608 22.787 20.596 22.67 20.624C22.549 20.654 22.442 20.722 22.33 20.781C21.936 20.691 21.432 20.418 20.965 20.168C20.594 19.969 20.215 19.774 19.844 19.625C20.076 19.352 20.298 19.045 20.523 18.719C20.84 18.262 21.188 17.76 21.522 17.488ZM28.06 41.381C27.938 41.38 27.813 41.368 27.695 41.398C27.577 41.426 27.47 41.492 27.361 41.551C26.968 41.46 26.459 41.191 25.989 40.94C25.618 40.741 25.242 40.546 24.871 40.399C25.102 40.125 25.324 39.817 25.549 39.492C25.865 39.034 26.214 38.533 26.548 38.261C26.68 38.265 26.812 38.273 26.939 38.241C27.062 38.212 27.17 38.145 27.283 38.085C27.705 38.174 28.241 38.459 28.733 38.722C29.081 38.908 29.419 39.081 29.749 39.218C29.487 39.519 29.241 39.863 29.003 40.212C28.702 40.645 28.374 41.119 28.06 41.381ZM35.351 39.617C35.228 39.616 35.103 39.604 34.984 39.635C34.866 39.663 34.76 39.729 34.652 39.787C34.258 39.696 33.747 39.428 33.28 39.177C32.908 38.976 32.53 38.782 32.162 38.635C32.393 38.362 32.614 38.055 32.84 37.728C33.156 37.269 33.503 36.768 33.838 36.496C33.97 36.501 34.102 36.509 34.228 36.478C34.35 36.449 34.461 36.382 34.573 36.321C34.995 36.41 35.53 36.696 36.022 36.958C36.372 37.146 36.71 37.317 37.04 37.455C36.778 37.754 36.532 38.1 36.292 38.447C35.993 38.881 35.663 39.355 35.351 39.617ZM38.471 36.669C38.357 36.669 38.239 36.657 38.131 36.684C38.02 36.71 37.922 36.774 37.821 36.826C37.425 36.741 36.902 36.463 36.424 36.207C36.056 36.011 35.685 35.821 35.32 35.673C35.546 35.403 35.765 35.099 35.988 34.777C36.312 34.307 36.669 33.793 37.01 33.527C37.13 33.528 37.248 33.538 37.363 33.511C37.475 33.485 37.575 33.421 37.68 33.365C38.107 33.446 38.658 33.737 39.164 34.009C39.508 34.193 39.843 34.362 40.168 34.499C39.91 34.797 39.667 35.136 39.43 35.479C39.123 35.924 38.785 36.413 38.471 36.669ZM32.336 12.739C32.448 12.711 32.549 12.648 32.653 12.594C33.08 12.673 33.632 12.966 34.138 13.237C34.481 13.421 34.817 13.59 35.143 13.728C34.885 14.024 34.642 14.365 34.406 14.706C34.097 15.151 33.759 15.64 33.446 15.896C33.331 15.897 33.214 15.884 33.104 15.912C32.995 15.938 32.898 16.002 32.797 16.052C32.399 15.969 31.877 15.69 31.398 15.434C31.032 15.238 30.66 15.048 30.294 14.901C30.521 14.63 30.74 14.327 30.962 14.005C31.286 13.535 31.642 13.022 31.984 12.754C32.102 12.755 32.222 12.766 32.336 12.739ZM27.607 11.768L28.808 11.479C29.178 11.606 29.595 11.819 29.991 12.031C30.34 12.217 30.678 12.39 31.008 12.528C30.745 12.829 30.499 13.174 30.261 13.521C29.96 13.956 29.632 14.429 29.319 14.691C29.196 14.69 29.071 14.678 28.954 14.706C28.835 14.735 28.728 14.803 28.619 14.86C28.226 14.77 27.717 14.501 27.248 14.25C26.878 14.051 26.501 13.856 26.13 13.709C26.36 13.435 26.582 13.127 26.808 12.801C27.063 12.434 27.335 12.051 27.607 11.768ZM20.318 13.532L21.517 13.242C21.889 13.369 22.307 13.583 22.702 13.794C23.049 13.981 23.388 14.152 23.719 14.29C23.456 14.591 23.21 14.937 22.97 15.284C22.672 15.72 22.343 16.192 22.031 16.454C21.908 16.453 21.782 16.441 21.665 16.471C21.547 16.5 21.44 16.566 21.33 16.625C20.938 16.534 20.427 16.265 19.959 16.013C19.587 15.815 19.21 15.619 18.839 15.472C19.07 15.199 19.293 14.892 19.518 14.565C19.773 14.197 20.047 13.815 20.318 13.532ZM17.401 16.283C17.52 16.284 17.641 16.295 17.755 16.267C17.868 16.239 17.968 16.176 18.071 16.121C18.502 16.2 19.051 16.493 19.557 16.765C19.901 16.949 20.235 17.118 20.561 17.256C20.303 17.552 20.059 17.892 19.824 18.234C19.517 18.679 19.178 19.167 18.864 19.424C18.749 19.425 18.633 19.412 18.523 19.439C18.414 19.466 18.316 19.529 18.215 19.581C17.819 19.496 17.295 19.219 16.817 18.963C16.449 18.766 16.078 18.577 15.713 18.429C15.94 18.158 16.158 17.854 16.381 17.532C16.705 17.063 17.061 16.55 17.401 16.283ZM24.554 44.366C24.445 44.392 24.349 44.456 24.247 44.507C23.851 44.424 23.326 44.146 22.847 43.889C22.481 43.694 22.109 43.502 21.743 43.355C21.97 43.084 22.19 42.781 22.411 42.459C22.737 41.988 23.094 41.475 23.436 41.209C23.553 41.21 23.673 41.22 23.785 41.193C23.898 41.167 23.998 41.103 24.102 41.049C24.527 41.128 25.081 41.42 25.587 41.691C25.932 41.875 26.266 42.044 26.592 42.182C26.334 42.479 26.091 42.819 25.853 43.16C25.547 43.606 25.209 44.094 24.895 44.351C24.781 44.351 24.664 44.339 24.554 44.366ZM29.339 45.262L28 45.586C27.681 45.459 27.328 45.274 26.994 45.095C26.623 44.894 26.247 44.699 25.876 44.553C26.107 44.279 26.33 43.971 26.554 43.646C26.872 43.187 27.219 42.686 27.554 42.414C27.685 42.418 27.817 42.427 27.944 42.396C28.066 42.366 28.176 42.3 28.287 42.238C28.71 42.327 29.246 42.613 29.737 42.876C30.086 43.064 30.424 43.235 30.755 43.373C30.493 43.673 30.247 44.019 30.007 44.366C29.794 44.675 29.566 45.003 29.339 45.262ZM36.628 43.499L35.287 43.823C34.971 43.696 34.617 43.509 34.286 43.332C33.913 43.131 33.536 42.937 33.166 42.79C33.396 42.516 33.618 42.209 33.844 41.883C34.16 41.424 34.508 40.923 34.841 40.652C34.973 40.655 35.106 40.664 35.233 40.632C35.355 40.603 35.466 40.537 35.577 40.475C36 40.564 36.536 40.85 37.028 41.113C37.376 41.299 37.715 41.472 38.044 41.611C37.783 41.91 37.537 42.255 37.298 42.602C37.084 42.912 36.855 43.239 36.628 43.499ZM39.136 40.838C39.027 40.863 38.931 40.928 38.83 40.978C38.434 40.895 37.907 40.617 37.429 40.361C37.062 40.165 36.69 39.974 36.326 39.828C36.552 39.557 36.772 39.252 36.994 38.93C37.318 38.461 37.674 37.948 38.015 37.682C38.133 37.684 38.253 37.693 38.367 37.665C38.48 37.638 38.581 37.575 38.685 37.52C39.112 37.6 39.664 37.892 40.168 38.163C40.513 38.347 40.847 38.517 41.175 38.653C40.916 38.951 40.673 39.291 40.436 39.634C40.128 40.078 39.791 40.566 39.477 40.822C39.363 40.823 39.245 40.81 39.136 40.838ZM45.339 39.844C45.077 40.144 44.829 40.49 44.591 40.838C44.376 41.148 44.147 41.475 43.92 41.734L42.577 42.06C42.259 41.932 41.909 41.745 41.577 41.567C41.206 41.368 40.828 41.173 40.457 41.025C40.688 40.752 40.91 40.444 41.136 40.117C41.452 39.66 41.8 39.157 42.136 38.886C42.267 38.89 42.399 38.898 42.525 38.868C42.649 38.839 42.759 38.771 42.872 38.71C43.294 38.799 43.829 39.086 44.321 39.348C44.67 39.535 45.008 39.706 45.339 39.844ZM47.717 41.691L47.519 40.863L45.223 41.419C45.245 41.386 45.269 41.355 45.29 41.321C45.616 40.851 45.972 40.337 46.314 40.072C46.433 40.073 46.554 40.084 46.667 40.055L46.468 39.227H46.467L46.43 39.073C46.319 39.099 46.222 39.165 46.119 39.216C45.723 39.133 45.198 38.852 44.722 38.597C44.355 38.401 43.983 38.21 43.618 38.063C43.845 37.792 44.064 37.489 44.286 37.166C44.61 36.698 44.966 36.184 45.309 35.917C45.427 35.919 45.547 35.929 45.661 35.9L45.624 35.747H45.625L45.425 34.918C45.317 34.944 45.22 35.009 45.119 35.059C44.722 34.976 44.195 34.698 43.717 34.441C43.35 34.246 42.978 34.055 42.613 33.909C42.839 33.638 43.058 33.334 43.282 33.012C43.605 32.542 43.962 32.029 44.305 31.763C44.423 31.764 44.544 31.773 44.656 31.745L44.619 31.592H44.62L44.419 30.764C44.311 30.79 44.213 30.855 44.111 30.906C43.712 30.823 43.192 30.544 42.711 30.287C42.345 30.091 41.974 29.901 41.607 29.754C41.835 29.483 42.054 29.179 42.277 28.857C42.601 28.388 42.956 27.876 43.297 27.609C43.417 27.61 43.538 27.619 43.651 27.591L43.452 26.763L43.414 26.61C43.305 26.636 43.207 26.7 43.105 26.752C42.707 26.668 42.185 26.389 41.706 26.133C41.341 25.938 40.969 25.746 40.602 25.6C40.83 25.328 41.049 25.025 41.271 24.703C41.595 24.232 41.952 23.719 42.294 23.453C42.413 23.455 42.532 23.464 42.647 23.437L42.447 22.609H42.446L42.409 22.456C42.301 22.482 42.205 22.546 42.105 22.596C41.703 22.513 41.181 22.236 40.701 21.978C40.335 21.783 39.963 21.592 39.597 21.446C39.825 21.174 40.044 20.87 40.266 20.548C40.59 20.079 40.946 19.567 41.289 19.3C41.407 19.301 41.527 19.311 41.642 19.284L41.441 18.454L41.405 18.301C41.295 18.327 41.196 18.392 41.093 18.444C40.698 18.359 40.173 18.08 39.697 17.824C39.329 17.629 38.957 17.438 38.591 17.292C38.818 17.02 39.038 16.717 39.261 16.395C39.584 15.924 39.941 15.411 40.283 15.145C40.401 15.145 40.523 15.156 40.636 15.129L40.599 14.974L40.399 14.147C40.29 14.173 40.191 14.238 40.088 14.289C39.692 14.205 39.17 13.925 38.691 13.67C38.324 13.473 37.953 13.283 37.587 13.137C37.815 12.866 38.034 12.562 38.255 12.24C38.581 11.769 38.937 11.257 39.279 10.99C39.398 10.991 39.518 11.002 39.63 10.975L39.594 10.82L39.395 9.992C39.284 10.019 39.186 10.084 39.083 10.134C38.687 10.051 38.163 9.77 37.686 9.515C37.606 9.472 37.524 9.431 37.443 9.389L39.766 8.826L39.566 8L36.11 8.835C35.81 8.76 35.516 8.721 35.242 8.787C34.967 8.855 34.723 9.024 34.49 9.226L28.815 10.6C28.515 10.526 28.222 10.487 27.949 10.553C27.673 10.62 27.43 10.788 27.198 10.991L21.526 12.364C21.227 12.289 20.933 12.25 20.66 12.316C20.385 12.382 20.142 12.551 19.91 12.754L14.233 14.128C13.934 14.053 13.641 14.014 13.367 14.08C13.093 14.148 12.849 14.316 12.615 14.52L9 15.395L9.199 16.222L11.683 15.621C11.631 15.696 11.577 15.77 11.524 15.845C11.216 16.29 10.878 16.779 10.565 17.036C10.45 17.036 10.333 17.024 10.223 17.05L10.423 17.877H10.424L10.461 18.032C10.572 18.004 10.672 17.942 10.775 17.888C11.203 17.966 11.756 18.258 12.263 18.529C12.605 18.712 12.939 18.89 13.263 19.027C13.007 19.322 12.764 19.66 12.529 19.999C12.222 20.444 11.883 20.932 11.569 21.189C11.455 21.19 11.338 21.177 11.228 21.204L11.428 22.032H11.429L11.466 22.187C11.578 22.159 11.677 22.096 11.78 22.043C12.209 22.121 12.762 22.412 13.268 22.684C13.61 22.867 13.944 23.045 14.269 23.181C14.011 23.476 13.77 23.813 13.534 24.154C13.227 24.598 12.889 25.087 12.575 25.344C12.46 25.344 12.342 25.332 12.234 25.358L12.432 26.185H12.433L12.47 26.341C12.583 26.313 12.683 26.25 12.786 26.196C13.214 26.275 13.766 26.567 14.273 26.838C14.614 27.021 14.949 27.199 15.274 27.336C15.018 27.631 14.775 27.968 14.54 28.308C14.232 28.752 13.894 29.241 13.581 29.498C13.466 29.499 13.349 29.486 13.239 29.513L13.277 29.666L13.276 29.667L13.475 30.495C13.587 30.468 13.688 30.405 13.79 30.351C14.218 30.43 14.771 30.722 15.279 30.993C15.622 31.176 15.955 31.353 16.279 31.489C16.023 31.785 15.781 32.123 15.545 32.462C15.238 32.907 14.899 33.396 14.585 33.653C14.47 33.654 14.354 33.641 14.244 33.668L14.281 33.821C14.281 33.821 14.28 33.821 14.28 33.822L14.481 34.649C14.591 34.621 14.691 34.559 14.795 34.505C15.224 34.584 15.776 34.875 16.284 35.147C16.626 35.33 16.96 35.507 17.284 35.644C17.027 35.94 16.785 36.277 16.549 36.617C16.243 37.061 15.905 37.55 15.591 37.806C15.476 37.807 15.359 37.794 15.25 37.823L15.449 38.649H15.45L15.487 38.804C15.598 38.777 15.698 38.714 15.802 38.66C16.229 38.739 16.783 39.031 17.289 39.302C17.63 39.485 17.964 39.662 18.289 39.798C18.031 40.094 17.789 40.432 17.554 40.771C17.247 41.217 16.909 41.705 16.597 41.961C16.482 41.962 16.363 41.949 16.255 41.977L16.453 42.803L16.491 42.959C16.603 42.931 16.703 42.869 16.806 42.814C17.234 42.894 17.787 43.184 18.295 43.455C18.635 43.639 18.97 43.816 19.294 43.953C19.037 44.248 18.795 44.586 18.56 44.926C18.251 45.371 17.914 45.859 17.601 46.115C17.485 46.116 17.369 46.104 17.258 46.132L17.459 46.958L17.497 47.113C17.608 47.086 17.708 47.022 17.811 46.969C18.239 47.047 18.791 47.339 19.297 47.61C19.334 47.629 19.368 47.647 19.404 47.666L16.951 48.259L17.152 49.086L20.668 48.236C20.888 48.305 21.104 48.355 21.314 48.355C21.43 48.355 21.544 48.343 21.656 48.315C21.962 48.241 22.229 48.045 22.483 47.796L27.966 46.47C28.305 46.575 28.635 46.626 28.95 46.55C29.257 46.477 29.523 46.279 29.775 46.032L35.256 44.706C35.596 44.811 35.926 44.863 36.237 44.787C36.545 44.713 36.812 44.516 37.065 44.269L42.548 42.941C42.887 43.046 43.217 43.098 43.53 43.023C43.837 42.948 44.104 42.753 44.358 42.504L47.717 41.691Z" fill="black"/>
</svg>
