<svg width="57" height="57" viewBox="0 0 57 57" fill="none" xmlns="http://www.w3.org/2000/svg">
<path fill-rule="evenodd" clip-rule="evenodd" d="M26.902 20.105V42.692C26.902 42.965 27.11 43.189 27.369 43.189C27.627 43.189 27.836 42.965 27.836 42.692V20.105H29.153V42.692C29.153 42.965 29.365 43.189 29.623 43.189C29.879 43.189 30.088 42.965 30.088 42.692V20.105H34.664C35.22 21.089 36.294 21.435 36.772 21.589C36.84 21.61 36.896 21.628 36.926 21.64L37.262 21.782C37.799 22.003 38.611 22.337 39.391 22.868C39.554 22.98 39.936 23.279 39.936 23.633V46.504C39.936 47.137 38.777 47.845 37.227 47.845H19.423C17.874 47.845 16.714 47.137 16.714 46.504V23.633C16.714 23.291 17.057 23.006 17.259 22.867C18.041 22.336 18.853 22.001 19.393 21.779L19.726 21.641C19.76 21.624 19.815 21.609 19.88 21.587C20.357 21.435 21.431 21.089 21.985 20.105H26.902ZM23.041 16.498H33.607V18.246H23.041V16.498ZM29.182 14.315H27.47V12.757H29.182V14.315ZM31.329 10.664H21.384C21.179 10.664 20.983 10.735 20.834 10.863L19.984 11.575L20.278 11.243C20.834 10.615 21.347 10.039 21.638 9.714H31.329C31.735 9.714 31.81 9.776 31.81 9.776C31.841 9.822 31.841 10.034 31.841 10.188C31.841 10.343 31.841 10.555 31.812 10.599C31.809 10.602 31.735 10.664 31.329 10.664ZM40.356 21.452C39.449 20.832 38.544 20.456 37.914 20.196L37.612 20.071C37.539 20.038 37.432 20.001 37.302 19.959C36.625 19.738 36.185 19.509 36.075 19.05C35.99 18.69 35.685 18.441 35.323 18.407V15.64C35.323 15.169 34.938 14.786 34.465 14.786H30.895V12.378H31.329C33.554 12.378 33.554 10.729 33.554 10.188C33.554 9.647 33.554 8 31.329 8H21.255C20.865 8 20.865 8 19.077 10.015L17.542 11.746C17.262 12.063 17.255 12.531 17.527 12.862L18.453 13.969C18.618 14.165 18.857 14.279 19.111 14.279C19.306 14.279 19.501 14.209 19.661 14.078L21.693 12.378H25.756V14.786H22.182C21.712 14.786 21.327 15.169 21.327 15.64V18.407C20.962 18.441 20.658 18.691 20.576 19.049C20.465 19.509 20.023 19.738 19.328 19.966C19.206 20.005 19.104 20.041 19.046 20.068L18.739 20.194C18.173 20.427 17.226 20.814 16.294 21.452C15.46 22.021 15 22.794 15 23.633V46.504C15 48.217 16.944 49.56 19.423 49.56H37.227C39.706 49.56 41.648 48.217 41.648 46.504V23.633C41.648 22.793 41.19 22.02 40.356 21.452Z" fill="black"/>
</svg>
