<svg width="57" height="57" viewBox="0 0 57 57" fill="none" xmlns="http://www.w3.org/2000/svg">
<path fill-rule="evenodd" clip-rule="evenodd" d="M30.3328 48.2906H26.2458C26.0058 48.2906 25.8008 48.0866 25.8008 47.8436V27.0096C26.3328 27.0926 27.1138 27.1466 28.2678 27.1466C29.4548 27.1466 30.2458 27.0896 30.7798 27.0016V47.8436C30.7798 48.0866 30.5758 48.2906 30.3328 48.2906ZM25.9858 13.0406C26.0018 13.1946 26.0278 13.3436 26.0868 13.4846C26.0678 13.4866 26.0488 13.4906 26.0478 13.4956C26.0448 13.4916 25.9968 13.3806 25.9858 13.0406ZM26.6958 10.0906C26.8108 10.4346 27.1318 10.6666 27.4928 10.6666H29.0878C29.4508 10.6666 29.7728 10.4326 29.8858 10.0876C29.8888 10.0776 29.9198 9.98758 30.0238 9.69358C30.2388 10.3086 30.5208 11.3526 30.5758 12.5346C30.3668 11.6926 29.4388 11.0746 28.2908 11.0746C27.1328 11.0746 26.1988 11.7056 26.0028 12.5616C26.0548 11.3706 26.3398 10.3126 26.5568 9.69358C26.6628 9.99458 26.6938 10.0826 26.6958 10.0906ZM30.5138 13.4506C30.5648 13.3216 30.5808 13.1836 30.5938 13.0436C30.5868 13.2956 30.5628 13.4206 30.5738 13.4416C30.5608 13.4456 30.5308 13.4466 30.5138 13.4506ZM25.8008 24.5356C25.8008 24.3566 25.9088 24.1936 26.0758 24.1236L26.0778 24.1226C26.2748 24.0506 26.4308 23.9106 26.5288 23.7286H30.0508C30.1488 23.9096 30.3028 24.0486 30.4958 24.1216C30.6378 24.1786 30.7798 24.3256 30.7798 24.5356V25.5576C30.2458 25.4696 29.4548 25.4106 28.2678 25.4106C27.1138 25.4106 26.3328 25.4646 25.8008 25.5496V24.5356ZM27.7488 17.1316C28.0008 16.0846 28.0288 13.8066 28.0308 13.5506C28.0328 13.2896 27.9108 13.0506 27.7138 12.8936C27.8198 12.8296 28.0148 12.7536 28.2908 12.7536C28.5608 12.7536 28.7548 12.8276 28.8618 12.8906C28.6668 13.0486 28.5488 13.2906 28.5498 13.5506C28.5518 13.8066 28.5798 16.0836 28.8298 17.1316C29.0618 18.0916 29.6678 19.1576 29.9438 19.6086V22.7676H26.6378V19.6086C26.9128 19.1576 27.5188 18.0916 27.7488 17.1316ZM31.6228 22.8516V19.3666C31.6228 19.2046 31.5758 19.0426 31.4868 18.9066C31.2668 18.5706 30.6538 17.5236 30.4638 16.7386C30.3798 16.3846 30.3238 15.7716 30.2898 15.1616C31.3548 15.0786 32.2778 14.7916 32.2778 12.9146C32.2778 10.8446 31.6018 9.06658 31.3938 8.57158C30.9598 7.53658 30.2638 7.43158 29.9708 7.45058C29.3808 7.46658 28.8788 7.90158 28.6248 8.61258C28.5728 8.75658 28.5278 8.87958 28.4918 8.98558H28.0898C28.0508 8.88058 28.0078 8.75658 27.9578 8.61258C27.7018 7.90058 27.1978 7.46658 26.6088 7.45058C26.3398 7.43158 25.6208 7.53658 25.1868 8.57158C24.9788 9.06658 24.3008 10.8466 24.3008 12.9146C24.3008 14.7916 25.2258 15.0786 26.2908 15.1616C26.2548 15.7716 26.1998 16.3836 26.1138 16.7386C25.9268 17.5246 25.3138 18.5696 25.0938 18.9066C25.0048 19.0426 24.9558 19.2046 24.9558 19.3666V22.8586C24.4398 23.2556 24.1198 23.8656 24.1198 24.5356V47.8436C24.1198 49.0176 25.0728 49.9716 26.2458 49.9716H30.3328C31.5058 49.9716 32.4608 49.0176 32.4608 47.8436V24.5356C32.4608 23.8676 32.1388 23.2486 31.6228 22.8516Z" fill="black"/>
</svg>
