<svg width="57" height="57" viewBox="0 0 57 57" fill="none" xmlns="http://www.w3.org/2000/svg">
<path fill-rule="evenodd" clip-rule="evenodd" d="M28.1201 10.7696C27.9691 10.7696 27.8471 10.6466 27.8471 10.4956C27.8471 10.3456 27.9691 10.2226 28.1201 10.2226C28.2701 10.2226 28.3921 10.3456 28.3921 10.4956C28.3921 10.6466 28.2701 10.7696 28.1201 10.7696ZM28.1201 9.50256C27.5721 9.50256 27.1271 9.94856 27.1271 10.4956C27.1271 11.0436 27.5721 11.4896 28.1201 11.4896C28.6681 11.4896 29.1131 11.0436 29.1131 10.4956C29.1131 9.94856 28.6681 9.50256 28.1201 9.50256Z" fill="black"/>
<path fill-rule="evenodd" clip-rule="evenodd" d="M32.1741 47.6146H24.0651L24.0641 22.6386C24.0641 21.1456 24.8821 19.7766 26.1991 19.0686C26.2311 19.0496 26.2501 19.0216 26.2791 19.0016H27.1271V46.7216C27.1271 46.9196 27.2871 47.0826 27.4871 47.0826C27.6851 47.0826 27.8471 46.9196 27.8471 46.7216V19.0016H28.3931V46.7216C28.3931 46.9196 28.5541 47.0826 28.7541 47.0826C28.9511 47.0826 29.1141 46.9196 29.1141 46.7216V19.0016H29.8941C31.2811 19.6796 32.1741 21.0886 32.1741 22.7166V47.6146ZM26.8631 12.4996H29.3771V13.5466H26.8631V12.4996ZM29.8971 8.09558V8.58958C29.8161 8.52658 29.7191 8.48458 29.6091 8.48458H26.6301C26.5211 8.48458 26.4241 8.52658 26.3431 8.58958V8.09558H29.8971ZM27.1111 9.44358H29.1291V11.5396H27.1111V9.44358ZM30.1031 17.3206H25.9321V15.2296H30.3081V17.3206H30.1211C30.1161 17.3196 30.1091 17.3206 30.1031 17.3206ZM31.9451 18.3766C31.9651 18.3076 31.9891 18.2376 31.9891 18.1606V14.3876C31.9891 13.9246 31.6121 13.5476 31.1491 13.5476H31.0581V12.0746C31.0581 11.8716 30.9771 11.6936 30.8571 11.5486V7.61458C30.8571 7.34958 30.6431 7.13458 30.3781 7.13458H25.8641C25.5981 7.13458 25.3821 7.34958 25.3821 7.61458V11.5286C25.2631 11.6726 25.1831 11.8516 25.1831 12.0546V13.5476H25.0921C24.6271 13.5476 24.2511 13.9246 24.2511 14.3876V18.1606C24.2511 18.2376 24.2761 18.3076 24.2951 18.3776C23.0981 19.4546 22.3851 21.0046 22.3861 22.7166V48.4536C22.3861 48.9196 22.7611 49.2956 23.2251 49.2956H33.0131C33.2371 49.2956 33.4511 49.2076 33.6091 49.0496C33.7671 48.8926 33.8551 48.6776 33.8551 48.4536V22.6386C33.8551 20.9846 33.1361 19.4466 31.9451 18.3766Z" fill="black"/>
</svg>
