<svg width="57" height="57" viewBox="0 0 57 57" fill="none" xmlns="http://www.w3.org/2000/svg">
<path fill-rule="evenodd" clip-rule="evenodd" d="M38.9399 24.9152C37.5859 26.2372 33.6129 27.4232 28.3539 27.4232C23.1809 27.4232 19.2579 26.2752 17.8419 24.9802L16.5009 15.6732C19.3549 17.0942 23.9639 17.8402 28.4019 17.8402C32.8169 17.8402 37.3979 17.1012 40.2549 15.6952L38.9399 24.9152ZM28.4009 47.6892C23.6219 47.6892 20.6869 45.9952 20.6869 44.7802C20.6869 44.7602 20.6769 44.7412 20.6759 44.7222C20.6739 44.7002 20.6819 44.6812 20.6789 44.6602L19.1159 33.8162C21.0019 35.0662 24.3699 35.8682 28.3889 35.8682C32.4129 35.8682 35.7879 35.0622 37.6709 33.8102L36.1229 44.6622C36.1189 44.6832 36.1279 44.7012 36.1259 44.7222C36.1249 44.7422 36.1149 44.7602 36.1149 44.7802C36.1149 45.9952 33.1799 47.6892 28.4009 47.6892ZM38.6669 26.8262C37.3069 28.1322 33.4609 29.2942 28.3809 29.2942C23.3209 29.2942 19.4859 28.1412 18.1109 26.8422L18.0349 26.3172C20.2879 27.6712 24.4019 28.3842 28.3539 28.3842C32.3459 28.3842 36.5089 27.6572 38.7449 26.2762L38.6669 26.8262ZM18.8539 31.9942C20.8209 33.2172 24.2769 33.9972 28.3879 33.9972C32.5039 33.9972 35.9659 33.2132 37.9299 31.9872L37.8729 32.3932C36.6639 33.7182 33.1029 34.9072 28.3889 34.9072C23.6829 34.9072 20.1269 33.7222 18.9119 32.4002L18.8539 31.9942ZM38.4019 28.6872C37.0829 29.9962 33.3209 31.1662 28.3479 31.1662C23.4839 31.1662 19.7839 30.0472 18.3899 28.7742L18.3059 28.1972C20.5139 29.5452 24.5239 30.2552 28.3809 30.2552C32.2459 30.2552 36.2699 29.5412 38.4729 28.1872L38.4019 28.6872ZM18.5839 30.1202C20.7589 31.4332 24.6259 32.1262 28.3479 32.1262C32.1209 32.1262 36.0469 31.4142 38.2049 30.0662L38.1229 30.6382C36.7659 31.9142 33.1459 33.0372 28.3879 33.0372C23.6389 33.0372 20.0249 31.9202 18.6589 30.6462L18.5839 30.1202ZM28.4019 8.53018C36.4839 8.53018 41.4469 10.7512 41.4469 12.3442C41.4469 12.6622 41.2409 13.0052 40.8609 13.3502C40.8419 13.3632 40.8259 13.3772 40.8099 13.3932C39.2379 14.7642 34.8049 16.1592 28.4019 16.1592C21.9319 16.1592 17.4689 14.7352 15.9429 13.3502C15.9229 13.3342 15.9079 13.3182 15.8869 13.3042C15.5399 12.9732 15.3569 12.6472 15.3569 12.3442C15.3569 10.7512 20.3199 8.53018 28.4019 8.53018ZM43.1269 12.3442C43.1269 8.77518 35.5399 6.84918 28.4019 6.84918C21.2629 6.84918 13.6759 8.77518 13.6759 12.3442C13.6759 13.0902 14.0219 13.7602 14.6119 14.3612L19.0149 44.9012C19.0159 44.9062 19.0179 44.9092 19.0199 44.9142C19.1559 47.4632 23.1379 49.3702 28.4009 49.3702C33.6649 49.3702 37.6499 47.4622 37.7829 44.9112C37.7839 44.9072 37.7869 44.9042 37.7869 44.8992L42.1349 14.4132C42.7579 13.8002 43.1269 13.1132 43.1269 12.3442Z" fill="black"/>
</svg>
