<svg width="57" height="57" viewBox="0 0 57 57" fill="none" xmlns="http://www.w3.org/2000/svg">
<path fill-rule="evenodd" clip-rule="evenodd" d="M35.2232 41.1378C35.0612 41.1378 34.9282 41.0088 34.9252 40.8448C34.7942 33.9778 35.9442 17.0228 36.2852 15.1658C36.3152 15.0038 36.4732 14.8998 36.6332 14.9268C36.7942 14.9558 36.9022 15.1118 36.8722 15.2738C36.5842 16.8408 35.3822 33.6378 35.5212 40.8338C35.5242 40.9988 35.3932 41.1348 35.2282 41.1378H35.2232Z" fill="black"/>
<path fill-rule="evenodd" clip-rule="evenodd" d="M37.9799 15.7622C37.6629 17.4792 36.4889 34.3332 36.6239 41.3822C36.6239 42.0702 36.1909 42.1062 35.8729 42.1062H35.7659C35.4489 42.1062 35.8559 44.1392 28.3549 44.1392C20.8539 44.1392 21.2609 42.1062 20.9439 42.1062H20.8379C20.5199 42.1062 20.0859 42.0702 20.0859 41.3822C20.1839 36.3242 19.6059 26.2162 19.1549 20.2762C19.1549 20.2762 19.5379 19.9222 20.1089 19.3732C20.1149 19.3692 20.1199 19.3632 20.1249 19.3592C20.2609 19.2282 20.4069 19.0872 20.5639 18.9372C20.5839 18.9172 20.6049 18.8982 20.6239 18.8782C20.7819 18.7262 20.9429 18.5692 21.1119 18.4022C21.1299 18.3852 21.1459 18.3692 21.1619 18.3532C22.7289 16.8132 24.7619 14.7172 25.5089 13.5032H36.6689C37.8439 13.5032 38.2959 14.0452 37.9799 15.7622ZM17.9489 14.2192C17.8439 14.1162 17.8409 13.9462 17.9419 13.8402L19.1809 12.5652C19.2839 12.4592 19.4539 12.4562 19.5599 12.5592L20.8169 13.7792C20.9229 13.8822 20.9249 14.0522 20.8229 14.1582L19.5849 15.4322C19.4809 15.5392 19.3109 15.5422 19.2059 15.4392L17.9489 14.2192ZM22.0749 14.1722L22.9959 15.0662C23.1169 15.1842 23.1199 15.3792 23.0009 15.5022L20.8809 17.6862C20.7629 17.8082 20.5679 17.8112 20.4459 17.6922L19.5259 16.7992C19.4039 16.6822 19.4019 16.4852 19.5199 16.3652L21.6399 14.1802C21.7589 14.0582 21.9539 14.0552 22.0749 14.1722ZM39.1049 12.8162C38.5559 12.1562 37.7359 11.8222 36.6689 11.8222H25.5089C24.9249 11.8222 24.3829 12.1252 24.0769 12.6212C23.9559 12.8172 23.7899 13.0472 23.5889 13.3002L23.2449 12.9672C22.8719 12.6052 22.3809 12.4062 21.8619 12.4062C21.8479 12.4062 21.8329 12.4092 21.8199 12.4102L20.7319 11.3532C20.3659 10.9972 19.8839 10.8032 19.3739 10.8032C18.8489 10.8032 18.3389 11.0192 17.9749 11.3952L16.7379 12.6682C16.3749 13.0412 16.1789 13.5332 16.1869 14.0552C16.1939 14.5762 16.4049 15.0632 16.7779 15.4252L17.7699 16.3892C17.7149 16.9692 17.9039 17.5692 18.3549 18.0052L18.7299 18.3692C18.4539 18.6322 18.2079 18.8622 18.0139 19.0412C17.6369 19.3912 17.4399 19.8922 17.4789 20.4022C17.9039 26.0202 18.5039 36.2342 18.4059 41.3512C18.4059 42.3592 18.9129 43.3552 20.0259 43.6782C20.9749 44.8232 22.9649 45.8202 28.3549 45.8202C33.7719 45.8202 35.7549 44.8132 36.6889 43.6772C37.7989 43.3532 38.3049 42.3642 38.3049 41.3822C38.1679 34.2062 39.3499 17.6072 39.6329 16.0672C39.8029 15.1472 39.9319 13.8092 39.1049 12.8162Z" fill="black"/>
</svg>
