<svg width="57" height="57" viewBox="0 0 57 57" fill="none" xmlns="http://www.w3.org/2000/svg">
<path fill-rule="evenodd" clip-rule="evenodd" d="M49.1296 28.431C49.0176 28.406 48.9056 28.466 48.8606 28.57C46.2846 34.511 37.9886 38.503 28.2156 38.503C25.9646 38.503 23.7096 38.283 21.5146 37.85C14.3066 36.422 9.09258 32.287 8.52958 27.554C8.61558 26.848 8.80858 26.143 9.10558 25.457C10.7396 21.686 16.0166 19.151 22.2366 19.151C23.6716 19.151 25.1096 19.292 26.5086 19.569C30.9446 20.446 34.1546 22.878 34.7006 25.771C34.6366 26.109 34.5316 26.449 34.3876 26.779C33.3716 29.124 29.9476 30.76 26.0616 30.76C25.1496 30.76 24.2356 30.671 23.3476 30.496C20.7526 29.983 18.7626 28.582 18.2496 26.915C18.2836 26.811 18.3216 26.707 18.3666 26.603C19.0036 25.133 21.1616 24.106 23.6146 24.106C24.1936 24.106 24.7726 24.163 25.3366 24.274C26.7776 24.559 27.9356 25.283 28.3956 26.175C27.9346 27.014 26.6366 27.592 25.1816 27.592C24.8176 27.592 24.4516 27.555 24.0956 27.485C24.0236 27.469 23.9526 27.489 23.8966 27.535C23.8426 27.581 23.8086 27.648 23.8086 27.721V29.392C23.8086 29.506 23.8906 29.605 24.0026 29.628C24.3896 29.704 24.7856 29.742 25.1826 29.742C26.9306 29.742 28.4256 29.005 28.9016 27.907C29.1436 27.344 29.1526 26.749 28.9236 26.179C29.1786 25.551 29.1406 24.891 28.8156 24.268C28.2776 23.244 27.0116 22.445 25.4296 22.131C24.8356 22.014 24.2246 21.955 23.6156 21.955C20.9336 21.955 18.6476 23.075 17.9266 24.741C17.6176 25.451 17.5586 26.182 17.7506 26.915C17.5136 27.815 17.6646 28.746 18.1946 29.61C19.0896 31.075 20.9336 32.18 23.2536 32.639C24.1736 32.821 25.1196 32.914 26.0636 32.914C30.1996 32.914 33.7216 31.197 34.8286 28.642C35.2346 27.707 35.3556 26.74 35.1896 25.771C35.8316 22.044 32.2296 18.54 26.6026 17.427C25.1716 17.144 23.7046 17 22.2376 17C15.8276 17 10.3746 19.649 8.66558 23.593C8.10658 24.884 7.89758 26.214 8.04658 27.554C7.42758 33.107 13.0466 38.334 21.4206 39.991C23.6456 40.431 25.9306 40.654 28.2146 40.654C38.1756 40.654 46.6496 36.546 49.3006 30.434C49.3136 30.403 49.3206 30.37 49.3206 30.337V28.666C49.3206 28.551 49.2416 28.454 49.1296 28.431Z" fill="black"/>
</svg>
