<svg width="57" height="57" viewBox="0 0 57 57" fill="none" xmlns="http://www.w3.org/2000/svg">
<path fill-rule="evenodd" clip-rule="evenodd" d="M28.717 43.582C21.961 43.582 16.466 40.537 16.197 36.727H16.172L14.642 27.574C15.303 28.108 16.073 28.599 16.932 29.042L20.476 40.341C20.516 40.466 20.633 40.549 20.761 40.549C20.783 40.549 20.804 40.547 20.825 40.542C20.975 40.51 21.076 40.368 21.059 40.215L19.834 30.23C20.819 30.549 21.872 30.817 22.985 31.024L25.02 41.852C25.046 41.993 25.17 42.095 25.313 42.095H25.329C25.478 42.088 25.598 41.97 25.611 41.822L26.467 31.462C27.203 31.513 27.95 31.548 28.717 31.548C29.496 31.548 30.254 31.512 31 31.46L31.856 41.822C31.868 41.97 31.99 42.088 32.137 42.095H32.154C32.297 42.095 32.42 41.993 32.446 41.852L34.484 31.017C35.597 30.808 36.65 30.541 37.636 30.219L36.409 40.215C36.391 40.368 36.491 40.51 36.642 40.542C36.663 40.547 36.685 40.549 36.705 40.549C36.833 40.549 36.95 40.466 36.99 40.341L40.541 29.022C41.38 28.587 42.133 28.106 42.783 27.583L41.237 36.728C40.967 40.538 35.473 43.582 28.717 43.582ZM33.548 30.357C34.175 30.256 34.78 30.131 35.371 29.995C34.78 30.131 34.175 30.256 33.548 30.357ZM23.886 30.357C25.374 30.033 27.005 29.852 28.717 29.852C30.429 29.852 32.06 30.033 33.548 30.357C32.023 30.601 30.401 30.734 28.717 30.734C27.033 30.734 25.41 30.601 23.886 30.357ZM22.063 29.994C22.654 30.131 23.258 30.256 23.885 30.357C23.258 30.256 22.654 30.131 22.063 29.994ZM44.753 22.593C44.753 22.907 44.712 23.215 44.643 23.517C44.626 23.592 44.597 23.665 44.576 23.739C44.51 23.975 44.43 24.21 44.323 24.44C44.293 24.503 44.258 24.567 44.227 24.63C44.1 24.878 43.955 25.122 43.783 25.359C43.756 25.396 43.731 25.434 43.703 25.47C43.496 25.747 43.265 26.017 43.004 26.278C41.363 27.915 38.67 29.228 35.372 29.994C33.422 29.387 31.159 29.038 28.717 29.038C26.276 29.038 24.013 29.387 22.062 29.994C18.758 29.227 16.063 27.91 14.423 26.27C14.162 26.009 13.931 25.739 13.725 25.463C13.698 25.428 13.674 25.392 13.648 25.355C13.477 25.118 13.332 24.873 13.205 24.625C13.173 24.563 13.139 24.5 13.109 24.438C13.003 24.208 12.924 23.972 12.857 23.734C12.836 23.662 12.808 23.59 12.791 23.516C12.722 23.214 12.681 22.906 12.681 22.593V21.823C12.681 19.705 14.285 17.785 16.893 16.337L19.589 28.695C19.618 28.833 19.742 28.929 19.881 28.929C19.894 28.929 19.908 28.928 19.923 28.927C20.077 28.905 20.189 28.767 20.178 28.61L19.267 15.321C19.266 15.3 19.254 15.282 19.249 15.262C20.395 14.835 21.654 14.484 23.004 14.222L25.525 27.908C25.551 28.051 25.675 28.152 25.818 28.152C25.826 28.152 25.834 28.152 25.842 28.151C25.994 28.14 26.113 28.016 26.118 27.863L26.487 13.769C27.218 13.717 27.959 13.681 28.717 13.681C29.487 13.681 30.237 13.718 30.979 13.771L31.35 27.863C31.354 28.016 31.473 28.14 31.625 28.151C31.632 28.152 31.641 28.152 31.648 28.152C31.791 28.152 31.915 28.051 31.942 27.908L34.462 14.229C35.809 14.491 37.064 14.843 38.208 15.271C38.203 15.288 38.192 15.304 38.19 15.321L36.799 28.818C36.783 28.973 36.891 29.114 37.045 29.142C37.062 29.145 37.079 29.146 37.097 29.146C37.231 29.146 37.351 29.055 37.385 28.921L40.554 16.344C43.154 17.791 44.753 19.709 44.753 21.823V22.593ZM28.717 12C18.782 12 11 16.314 11 21.823V22.593C11 24.156 11.638 25.687 12.849 27.051L14.514 37.004C14.524 37.064 14.538 37.125 14.554 37.185C15.149 41.813 21.146 45.263 28.717 45.263C36.423 45.263 42.499 41.69 42.907 36.934L44.576 27.061C45.794 25.696 46.434 24.16 46.434 22.593V21.823C46.434 16.314 38.652 12 28.717 12Z" fill="black"/>
</svg>
