<svg width="57" height="57" viewBox="0 0 57 57" fill="none" xmlns="http://www.w3.org/2000/svg">
<path fill-rule="evenodd" clip-rule="evenodd" d="M28.153 31.119C19.055 31.119 11.681 28.559 11.681 25.401C11.681 22.242 19.055 19.681 28.153 19.681C37.251 19.681 44.624 22.242 44.624 25.401C44.624 28.559 37.251 31.119 28.153 31.119ZM41.39 32.749H41.385C40.763 35.308 35.079 37.314 28.153 37.314C21.226 37.314 15.542 35.308 14.92 32.749H14.915L14.555 30.462C18.052 32.006 23.117 32.8 28.153 32.8C30.332 32.8 32.514 32.648 34.575 32.355V35.415C34.575 35.565 34.697 35.686 34.846 35.686C34.996 35.686 35.117 35.565 35.117 35.415V32.272C35.518 32.21 35.916 32.145 36.304 32.071V34.963C36.304 35.113 36.425 35.235 36.575 35.235C36.723 35.235 36.846 35.113 36.846 34.963V31.957C37.248 31.874 37.646 31.788 38.031 31.693V34.318C38.031 34.468 38.154 34.589 38.302 34.589C38.452 34.589 38.574 34.468 38.574 34.318V31.549C39.725 31.241 40.8 30.882 41.75 30.462L41.39 32.749ZM46.305 25.401C46.305 20.542 37.172 18 28.153 18C19.132 18 10 20.542 10 25.401C10 27.013 11.021 28.363 12.695 29.458L13.255 33.01C13.271 33.118 13.298 33.22 13.334 33.318C14.478 37.217 21.771 38.995 28.153 38.995C34.538 38.995 41.836 37.215 42.973 33.312C43.008 33.216 43.034 33.114 43.05 33.01L43.61 29.458C43.61 29.459 43.61 29.459 43.609 29.459C45.284 28.364 46.305 27.013 46.305 25.401Z" fill="black"/>
<path fill-rule="evenodd" clip-rule="evenodd" d="M38.5485 28.3137C36.1765 27.2297 32.6845 26.4927 28.1525 26.4927C23.6195 26.4927 20.1275 27.2297 17.7565 28.3137C15.4755 27.4877 14.1645 26.4277 14.1645 25.3997C14.1645 24.2697 15.7525 23.0987 18.4775 22.2447V25.7167C18.4775 25.8667 18.5985 25.9877 18.7485 25.9877C18.8985 25.9877 19.0195 25.8667 19.0195 25.7167V22.0777C19.3955 21.9717 19.7935 21.8737 20.2055 21.7807V25.1777C20.2055 25.3267 20.3275 25.4487 20.4775 25.4487C20.6265 25.4487 20.7485 25.3267 20.7485 25.1777V21.6667C21.1295 21.5887 21.5255 21.5167 21.9345 21.4517V24.8097C21.9345 24.9587 22.0565 25.0807 22.2055 25.0807C22.3545 25.0807 22.4765 24.9587 22.4765 24.8097V21.3627C22.8605 21.3067 23.2565 21.2567 23.6625 21.2137V24.5517C23.6625 24.7017 23.7845 24.8227 23.9335 24.8227C24.0825 24.8227 24.2045 24.7017 24.2045 24.5517V21.1617C24.5925 21.1257 24.9865 21.0937 25.3905 21.0667V24.3957C25.3905 24.5437 25.5125 24.6667 25.6615 24.6667C25.8115 24.6667 25.9325 24.5437 25.9325 24.3957V21.0377C26.6505 21.0027 27.3865 20.9767 28.1515 20.9767C36.5195 20.9767 42.1415 23.2647 42.1415 25.3997C42.1415 26.4277 40.8305 27.4877 38.5485 28.3137ZM18.8815 28.6817C21.2775 27.7987 24.5445 27.2517 28.1525 27.2517C31.7595 27.2517 35.0285 27.7977 37.4225 28.6817C37.8235 28.5657 38.1945 28.4417 38.5485 28.3137C36.0865 29.2047 32.4955 29.8247 28.1515 29.8247C24.4345 29.8247 21.2635 29.3707 18.8815 28.6817ZM17.7565 28.3137C18.1085 28.4417 18.4805 28.5657 18.8795 28.6817C18.4805 28.5637 18.1085 28.4417 17.7565 28.3137ZM28.1515 20.1627C19.8525 20.1627 13.3515 22.4627 13.3515 25.3997C13.3515 28.3367 19.8525 30.6377 28.1515 30.6377C36.4525 30.6377 42.9535 28.3367 42.9535 25.3997C42.9535 22.4627 36.4525 20.1627 28.1515 20.1627Z" fill="black"/>
</svg>
