<svg width="57" height="57" viewBox="0 0 57 57" fill="none" xmlns="http://www.w3.org/2000/svg">
<path fill-rule="evenodd" clip-rule="evenodd" d="M44.5113 34.171L21.3053 41.065L19.6203 29.051C19.6503 29.024 19.6883 28.994 19.7413 28.979C19.8593 28.947 19.9623 29.004 19.9633 29.004C20.0033 29.031 20.3623 29.257 20.8173 29.133C21.2733 29.008 21.4663 28.632 21.4873 28.589C21.4883 28.588 21.5473 28.486 21.6663 28.455C21.7753 28.421 21.8853 28.48 21.8853 28.48C21.9253 28.506 22.2853 28.733 22.7383 28.608C23.1963 28.483 23.3883 28.106 23.4063 28.07C23.4083 28.066 23.4663 27.961 23.5873 27.929C23.7013 27.896 23.8083 27.955 23.8083 27.955C23.8483 27.981 24.2053 28.209 24.6623 28.083C25.1173 27.958 25.3113 27.581 25.3303 27.538C25.3313 27.537 25.3923 27.435 25.5093 27.405C25.6293 27.37 25.7303 27.43 25.7303 27.43C25.7703 27.457 26.1283 27.685 26.5843 27.558C27.0403 27.433 27.2323 27.056 27.2533 27.014C27.2543 27.013 27.3153 26.912 27.4313 26.879C27.5473 26.848 27.6513 26.904 27.6523 26.904C27.6923 26.93 28.0503 27.159 28.5043 27.033C28.9623 26.908 29.1553 26.531 29.1743 26.489C29.1763 26.488 29.2363 26.386 29.3513 26.354C29.4673 26.323 29.5733 26.378 29.5753 26.379C29.6153 26.405 29.9723 26.635 30.4283 26.508C30.8853 26.382 31.0773 26.006 31.0973 25.964C31.0983 25.963 31.1583 25.861 31.2763 25.83C31.3883 25.796 31.4953 25.854 31.4953 25.854C31.5353 25.88 31.8933 26.11 32.3493 25.983C32.8073 25.858 32.9993 25.48 33.0153 25.447C33.0183 25.442 33.0763 25.337 33.1983 25.305C33.3113 25.271 33.4183 25.329 33.4183 25.331C33.4593 25.357 33.8183 25.583 34.2743 25.458C34.7283 25.333 34.9213 24.956 34.9423 24.914C34.9433 24.913 35.0023 24.811 35.1203 24.78C35.2393 24.746 35.3403 24.805 35.3413 24.805C35.3803 24.832 35.7403 25.059 36.1943 24.933C36.6513 24.809 36.8443 24.431 36.8633 24.388C36.8643 24.388 36.9253 24.287 37.0413 24.254C37.1583 24.223 37.2613 24.28 37.2623 24.28C37.3043 24.306 37.6623 24.533 38.1163 24.408C38.5723 24.284 38.7653 23.906 38.7863 23.863C38.7873 23.863 38.8463 23.761 38.9633 23.729C39.0793 23.697 39.1843 23.755 39.1853 23.755C39.2253 23.781 39.5823 24.01 40.0393 23.883C40.4953 23.758 40.6883 23.382 40.7083 23.339C40.7093 23.338 40.7703 23.236 40.8873 23.205C40.9983 23.17 41.1063 23.23 41.1063 23.23C41.1463 23.257 41.5063 23.485 41.9593 23.358C42.4183 23.233 42.6103 22.855 42.6263 22.821C42.6293 22.817 42.6873 22.714 42.8083 22.679C42.9243 22.648 43.0303 22.705 43.0303 22.705C43.0703 22.731 43.4273 22.958 43.8833 22.833C44.3403 22.709 44.5333 22.331 44.5523 22.289C44.5533 22.288 44.6143 22.186 44.7303 22.155C44.8483 22.125 44.9503 22.179 44.9503 22.179C44.9903 22.206 45.3463 22.436 45.8053 22.309C46.2613 22.183 46.4543 21.807 46.4753 21.765C46.4763 21.764 46.5363 21.662 46.6533 21.63C46.7703 21.598 46.8733 21.654 46.8743 21.654C46.9133 21.681 47.2733 21.908 47.7263 21.783C48.1843 21.659 48.3763 21.281 48.3963 21.239C48.3983 21.238 48.4573 21.136 48.5743 21.104C48.6903 21.07 48.8033 21.137 48.8133 21.142C48.8403 21.162 48.8723 21.169 48.9023 21.179L44.5113 34.171ZM13.0913 35.265L8.7163 22.2C8.7243 22.199 8.8203 22.179 8.9033 22.232C8.9933 22.291 9.0123 22.395 9.0133 22.395C9.0183 22.442 9.0783 22.859 9.4713 23.113C9.8613 23.362 10.2673 23.248 10.3053 23.236C10.3093 23.235 10.4183 23.209 10.5073 23.267C10.5953 23.324 10.6163 23.429 10.6173 23.429C10.6233 23.477 10.6833 23.895 11.0753 24.147C11.4653 24.4 11.8733 24.284 11.9103 24.272C11.9133 24.269 12.0213 24.245 12.1103 24.302C12.2023 24.362 12.2223 24.471 12.2333 24.524C12.2433 24.558 12.3373 24.872 12.6263 25.141C12.6783 25.191 12.7313 25.211 12.7843 25.247C13.0383 25.636 14.9553 28.627 14.9553 30.367C14.9553 32.07 14.0683 32.575 14.0333 32.593C13.8593 32.682 13.7783 32.886 13.8483 33.069L14.7233 35.437C14.7803 35.593 14.9283 35.688 15.0843 35.688C15.1293 35.688 15.1733 35.682 15.2183 35.664C15.4183 35.592 15.5203 35.368 15.4453 35.17L14.6713 33.077C15.0683 32.741 15.7273 31.942 15.7273 30.367C15.7273 29.107 14.9133 27.385 14.2463 26.185C14.2603 26.196 14.2683 26.208 14.2833 26.219C14.6743 26.469 15.0813 26.354 15.1253 26.34C15.1293 26.339 15.2343 26.32 15.3193 26.374C15.4083 26.431 15.4303 26.536 15.4303 26.536C15.4353 26.584 15.4963 27.001 15.8873 27.253C16.2803 27.506 16.6853 27.389 16.7303 27.375C16.7323 27.375 16.8343 27.357 16.9173 27.407L16.9283 27.415C17.0123 27.472 17.0333 27.57 17.0343 27.57C17.0393 27.617 17.0993 28.036 17.4923 28.289C17.8843 28.542 18.2913 28.423 18.3263 28.413C18.3273 28.411 18.3703 28.409 18.4213 28.414L18.5903 28.526C18.6003 28.546 18.6263 28.568 18.6313 28.582C18.6243 28.74 18.6763 28.954 18.8553 29.138L20.4943 40.848L13.0913 35.265ZM9.9133 21.76C9.9543 21.76 9.9963 21.756 10.0393 21.746C10.3313 21.685 10.4623 21.437 10.4623 21.437C10.4623 21.437 10.5923 21.189 10.8843 21.127C10.9273 21.119 10.9703 21.114 11.0103 21.114C11.2363 21.114 11.3963 21.24 11.3963 21.24C11.3963 21.24 11.5543 21.365 11.7813 21.365C11.8213 21.365 11.8643 21.361 11.9083 21.353C12.1993 21.291 12.3303 21.043 12.3303 21.043C12.3303 21.043 12.4603 20.794 12.7533 20.732C12.7963 20.724 12.8383 20.72 12.8783 20.72C13.1053 20.72 13.2643 20.845 13.2643 20.845C13.2643 20.845 13.4233 20.971 13.6493 20.971C13.6893 20.971 13.7313 20.967 13.7753 20.957C14.0673 20.896 14.1983 20.648 14.1983 20.648C14.1983 20.648 14.3283 20.401 14.6213 20.339C14.6643 20.329 14.7073 20.325 14.7473 20.325C14.9743 20.325 15.1323 20.452 15.1323 20.452C15.1323 20.452 15.2903 20.577 15.5183 20.577C15.5573 20.577 15.5993 20.573 15.6443 20.563C15.9343 20.503 16.0673 20.254 16.0673 20.254C16.0673 20.254 16.1973 20.006 16.4893 19.945C16.5323 19.935 16.5743 19.931 16.6143 19.931C16.8413 19.931 17.0003 20.057 17.0003 20.057C17.0003 20.057 17.1583 20.183 17.3843 20.183C17.4243 20.183 17.4683 20.179 17.5123 20.17C17.8033 20.108 17.9343 19.861 17.9343 19.861C17.9343 19.861 18.0643 19.611 18.3563 19.55C18.4003 19.542 18.4433 19.537 18.4833 19.537C18.7093 19.537 18.8683 19.662 18.8683 19.662C18.8683 19.662 19.0263 19.788 19.2533 19.788C19.2933 19.788 19.3353 19.784 19.3803 19.776C19.6713 19.714 19.8023 19.465 19.8023 19.465C19.8023 19.465 19.9333 19.217 20.2233 19.156C20.2693 19.147 20.3113 19.144 20.3513 19.144C20.5783 19.144 20.7353 19.268 20.7353 19.268C20.7353 19.268 20.8953 19.394 21.1213 19.394C21.1613 19.394 21.2043 19.39 21.2473 19.38C21.5393 19.319 21.6703 19.071 21.6703 19.071C21.6703 19.071 21.8013 18.824 22.0923 18.762C22.1363 18.752 22.1793 18.748 22.2183 18.748C22.4453 18.748 22.6043 18.875 22.6043 18.875C22.6043 18.875 22.7623 19.001 22.9893 19.001C23.0293 19.001 23.0713 18.996 23.1163 18.986C23.4073 18.925 23.5373 18.677 23.5373 18.677C23.5373 18.677 23.6693 18.429 23.9603 18.367C24.0053 18.358 24.0463 18.354 24.0863 18.354C24.3133 18.354 24.4713 18.48 24.4713 18.48C24.4713 18.48 24.6313 18.605 24.8573 18.605C24.8973 18.605 24.9403 18.603 24.9833 18.593C25.2763 18.531 25.4063 18.284 25.4063 18.284C25.4063 18.284 25.5363 18.034 25.8283 17.973C25.8723 17.964 25.9153 17.961 25.9553 17.961C26.1813 17.961 26.3403 18.085 26.3403 18.085C26.3403 18.085 26.4993 18.211 26.7263 18.211C26.7663 18.211 26.8083 18.207 26.8523 18.198C27.1433 18.136 27.2733 17.888 27.2733 17.888C27.2733 17.888 27.4053 17.641 27.6963 17.579C27.7403 17.569 27.7823 17.565 27.8223 17.565C28.0493 17.565 28.2083 17.692 28.2083 17.692C28.2083 17.692 28.3673 17.817 28.5933 17.817C28.6333 17.817 28.6763 17.813 28.7193 17.803C29.0123 17.743 29.1423 17.494 29.1423 17.494C29.1423 17.494 29.2723 17.247 29.5653 17.185C29.6083 17.175 29.6513 17.171 29.6913 17.171C29.9173 17.171 30.0763 17.297 30.0763 17.297C30.0763 17.297 30.2353 17.423 30.4623 17.423C30.5013 17.423 30.5433 17.419 30.5883 17.41C30.8793 17.348 31.0113 17.101 31.0113 17.101C31.0113 17.101 31.1413 16.852 31.4323 16.79C31.4763 16.782 31.5193 16.777 31.5593 16.777C31.7863 16.777 31.9443 16.903 31.9443 16.903C31.9443 16.903 32.1033 17.028 32.3293 17.028C32.3693 17.028 32.4123 17.025 32.4563 17.016C32.7473 16.954 32.8783 16.706 32.8783 16.706C32.8783 16.706 33.0093 16.457 33.3013 16.396C33.3443 16.387 33.3863 16.384 33.4273 16.384C33.6533 16.384 33.8133 16.508 33.8133 16.508C33.8133 16.508 33.9703 16.634 34.1973 16.634C34.2373 16.634 34.2793 16.63 34.3233 16.62C34.6153 16.559 34.7453 16.311 34.7453 16.311C34.7453 16.311 34.8773 16.064 35.1683 16.002C35.2133 15.992 35.2553 15.988 35.2953 15.988C35.5223 15.988 35.6793 16.115 35.6793 16.115C35.6793 16.115 35.8393 16.241 36.0653 16.241C36.1053 16.241 36.1483 16.236 36.1913 16.226C36.4843 16.165 36.6143 15.917 36.6143 15.917C36.6143 15.917 36.7453 15.669 37.0363 15.608C37.0813 15.599 37.1253 15.594 37.1673 15.594C37.1753 15.594 37.1813 15.596 37.1893 15.596C37.1823 15.619 37.1703 15.637 37.1683 15.66L35.9593 24.19C35.8583 24.203 35.7693 24.164 35.7693 24.164C35.7303 24.138 35.3743 23.913 34.9163 24.036C34.4593 24.16 34.2673 24.538 34.2463 24.579C34.2453 24.58 34.1863 24.682 34.0693 24.713C33.9533 24.745 33.8493 24.69 33.8493 24.69C33.8083 24.663 33.4553 24.434 32.9953 24.561C32.5363 24.685 32.3433 25.063 32.3243 25.107C32.3243 25.108 32.2633 25.207 32.1473 25.239C32.0303 25.271 31.9273 25.215 31.9263 25.215C31.8863 25.188 31.5293 24.963 31.0713 25.085C30.6163 25.21 30.4233 25.588 30.4023 25.63C30.4013 25.631 30.3413 25.733 30.2233 25.764C30.1133 25.796 30.0033 25.738 30.0033 25.738C29.9643 25.712 29.6073 25.487 29.1483 25.609C28.6933 25.736 28.5003 26.111 28.4803 26.155C28.4793 26.156 28.4193 26.257 28.3023 26.288C28.1903 26.323 28.0813 26.264 28.0813 26.264C28.0413 26.238 27.6843 26.012 27.2273 26.135C26.7713 26.261 26.5783 26.637 26.5583 26.681C26.5573 26.681 26.4973 26.783 26.3803 26.814C26.2653 26.846 26.1593 26.789 26.1593 26.788C26.1203 26.763 25.7633 26.536 25.3053 26.66C24.8493 26.785 24.6563 27.162 24.6363 27.204C24.6353 27.206 24.5743 27.307 24.4583 27.339C24.3403 27.37 24.2383 27.314 24.2383 27.314C24.1983 27.287 23.8443 27.057 23.3853 27.186C22.9263 27.31 22.7333 27.688 22.7183 27.722C22.7143 27.726 22.6573 27.83 22.5353 27.865C22.4183 27.896 22.3153 27.839 22.3143 27.839C22.2753 27.813 21.9213 27.588 21.4613 27.711C21.0043 27.835 20.8113 28.213 20.7923 28.254C20.7913 28.255 20.7303 28.357 20.6133 28.389C20.5003 28.421 20.3943 28.364 20.3943 28.364C20.3553 28.338 20.0003 28.113 19.5383 28.235C19.4643 28.255 19.4103 28.289 19.3503 28.319C19.2963 28.163 19.1883 27.953 18.9463 27.796C18.5543 27.546 18.1473 27.66 18.1113 27.672C18.1063 27.674 18.0003 27.699 17.9093 27.642C17.8203 27.584 17.8003 27.479 17.7983 27.479C17.7933 27.432 17.7353 27.014 17.3413 26.761C16.9503 26.508 16.5433 26.625 16.5083 26.637C16.5043 26.638 16.3963 26.664 16.3063 26.605C16.2163 26.548 16.1963 26.444 16.1953 26.444C16.1903 26.398 16.1303 25.978 15.7383 25.725C15.3433 25.473 14.9383 25.591 14.9033 25.602C14.8993 25.603 14.7933 25.63 14.7013 25.57C14.6123 25.514 14.5913 25.409 14.5903 25.409C14.5853 25.362 14.5263 24.943 14.1333 24.691C13.7443 24.439 13.3363 24.554 13.2923 24.569C13.2573 24.579 13.2233 24.595 13.1953 24.615C13.1793 24.602 13.1643 24.589 13.1523 24.577C13.0423 24.476 12.9923 24.358 12.9873 24.358H12.9863C12.9723 24.272 12.8953 23.891 12.5293 23.656C12.1383 23.401 11.7313 23.52 11.6873 23.534C11.6843 23.535 11.5783 23.556 11.4933 23.499C11.4053 23.441 11.3833 23.337 11.3833 23.337C11.3763 23.291 11.3163 22.872 10.9243 22.619C10.5333 22.368 10.1263 22.485 10.0923 22.496C10.0873 22.497 9.9823 22.524 9.8883 22.464C9.8003 22.407 9.7803 22.304 9.7793 22.304C9.7733 22.257 9.7133 21.838 9.3203 21.585C9.2633 21.547 9.2053 21.532 9.1483 21.509C9.3713 21.511 9.5273 21.634 9.5273 21.634C9.5273 21.634 9.6873 21.76 9.9133 21.76ZM38.4123 16.087C38.4123 16.087 38.4893 16.353 38.7593 16.468C38.8413 16.503 38.9233 16.516 38.9933 16.516C39.1573 16.516 39.2753 16.453 39.2753 16.453C39.2753 16.453 39.3933 16.39 39.5573 16.39C39.6293 16.39 39.7093 16.402 39.7913 16.437C40.0603 16.552 40.1403 16.819 40.1403 16.819C40.1403 16.819 40.2163 17.086 40.4863 17.201C40.5693 17.236 40.6493 17.248 40.7223 17.248C40.8833 17.248 41.0043 17.185 41.0043 17.185C41.0043 17.185 41.1213 17.122 41.2843 17.122C41.3563 17.122 41.4373 17.135 41.5193 17.17C41.7893 17.285 41.8673 17.552 41.8673 17.552C41.8673 17.552 41.9453 17.818 42.2143 17.932C42.2963 17.968 42.3773 17.98 42.4493 17.98C42.6123 17.98 42.7303 17.918 42.7303 17.918C42.7303 17.918 42.8503 17.855 43.0113 17.855C43.0843 17.855 43.1643 17.867 43.2463 17.902C43.5163 18.017 43.5943 18.284 43.5943 18.284C43.5943 18.284 43.6733 18.552 43.9433 18.666C44.0243 18.7 44.1043 18.712 44.1763 18.712C44.3403 18.712 44.4583 18.649 44.4583 18.649C44.4583 18.649 44.5773 18.587 44.7403 18.587C44.8103 18.587 44.8913 18.6 44.9743 18.635C45.2443 18.749 45.3213 19.016 45.3213 19.016C45.3213 19.016 45.3993 19.283 45.6693 19.397C45.7533 19.432 45.8323 19.445 45.9033 19.445C46.0673 19.445 46.1853 19.382 46.1853 19.382C46.1853 19.382 46.3033 19.32 46.4673 19.32C46.5393 19.32 46.6183 19.331 46.7023 19.367C46.9723 19.481 47.0503 19.748 47.0503 19.748C47.0503 19.748 47.1273 20.016 47.3973 20.131C47.4793 20.165 47.5603 20.177 47.6313 20.177C47.7943 20.177 47.9133 20.114 47.9133 20.114C47.9133 20.114 48.0313 20.051 48.1943 20.051C48.2663 20.051 48.3473 20.064 48.4283 20.099C48.5603 20.154 48.6463 20.248 48.6993 20.327C48.5983 20.321 48.4883 20.329 48.3723 20.362C47.9153 20.486 47.7223 20.863 47.7013 20.906C47.7003 20.907 47.6413 21.007 47.5223 21.039C47.4133 21.072 47.3023 21.014 47.3023 21.014C47.2633 20.988 46.9053 20.762 46.4493 20.885C45.9923 21.011 45.7993 21.387 45.7803 21.431C45.7793 21.432 45.7183 21.533 45.6023 21.564C45.4843 21.595 45.3813 21.539 45.3813 21.539C45.3423 21.513 44.9843 21.288 44.5273 21.41C44.0713 21.536 43.8783 21.912 43.8573 21.955C43.8563 21.956 43.7963 22.058 43.6793 22.089C43.5623 22.122 43.4583 22.064 43.4583 22.064C43.4203 22.038 43.0623 21.813 42.6053 21.936C42.1473 22.06 41.9553 22.438 41.9343 22.482C41.9343 22.483 41.8743 22.582 41.7573 22.615C41.6413 22.645 41.5383 22.589 41.5363 22.589C41.4973 22.564 41.1413 22.337 40.6833 22.461C40.2263 22.585 40.0333 22.963 40.0143 23.004C40.0133 23.005 39.9523 23.107 39.8353 23.139C39.7223 23.174 39.6133 23.114 39.6133 23.114C39.5743 23.088 39.2153 22.861 38.7593 22.986C38.3033 23.111 38.1123 23.487 38.0913 23.529C38.0903 23.53 38.0293 23.632 37.9123 23.665C37.8003 23.697 37.6923 23.639 37.6923 23.639C37.6533 23.613 37.2953 23.386 36.8383 23.511C36.8363 23.511 36.8353 23.512 36.8333 23.513L37.9303 15.768C37.9353 15.737 37.9283 15.708 37.9253 15.677C37.9723 15.684 38.0153 15.684 38.0643 15.706C38.3343 15.82 38.4123 16.087 38.4123 16.087ZM50.1913 19.736C50.0323 19.397 49.7003 18.907 49.0523 18.632C48.7793 18.517 48.4913 18.459 48.1943 18.459C48.1643 18.459 48.1353 18.459 48.1063 18.46C47.9203 18.249 47.6663 18.045 47.3233 17.9C47.0523 17.785 46.7633 17.726 46.4673 17.726C46.4373 17.726 46.4083 17.727 46.3793 17.728C46.1923 17.518 45.9383 17.312 45.5953 17.167C45.3243 17.053 45.0363 16.994 44.7403 16.993C44.7103 16.993 44.6803 16.994 44.6523 16.995C44.4643 16.785 44.2103 16.58 43.8683 16.436C43.5973 16.32 43.3093 16.261 43.0123 16.261C42.9833 16.261 42.9543 16.262 42.9253 16.263C42.7393 16.054 42.4853 15.848 42.1403 15.703C41.8693 15.588 41.5813 15.529 41.2843 15.529C41.2553 15.529 41.2273 15.53 41.1983 15.531C41.0113 15.322 40.7563 15.116 40.4143 14.971C40.1433 14.855 39.8533 14.797 39.5573 14.797C39.5283 14.797 39.4993 14.797 39.4713 14.799C39.2853 14.589 39.0293 14.384 38.6863 14.238C38.4123 14.123 38.1213 14.063 37.8223 14.063C37.7833 14.063 37.7443 14.064 37.7063 14.066C37.5443 14.026 37.3633 14 37.1673 14C37.0133 14 36.8583 14.016 36.7083 14.048C36.3363 14.127 36.0433 14.283 35.8173 14.457C35.6603 14.419 35.4853 14.396 35.2953 14.396C35.1413 14.396 34.9893 14.411 34.8403 14.444C34.4693 14.522 34.1763 14.677 33.9493 14.851C33.7913 14.813 33.6163 14.79 33.4273 14.79C33.2753 14.79 33.1213 14.806 32.9713 14.837C32.6013 14.915 32.3083 15.072 32.0813 15.246C31.9253 15.208 31.7493 15.183 31.5593 15.183H31.5583C31.4063 15.183 31.2523 15.2 31.1043 15.231C30.7333 15.309 30.4393 15.466 30.2123 15.64C30.0563 15.602 29.8813 15.578 29.6913 15.578H29.6903C29.5383 15.578 29.3853 15.594 29.2353 15.625C28.8643 15.704 28.5723 15.86 28.3453 16.033C28.1883 15.996 28.0133 15.973 27.8223 15.973C27.6703 15.973 27.5163 15.988 27.3673 16.02C26.9973 16.099 26.7033 16.255 26.4763 16.428C26.3203 16.39 26.1453 16.366 25.9553 16.366C25.8023 16.366 25.6483 16.383 25.4993 16.414C25.1283 16.492 24.8343 16.648 24.6093 16.823C24.4523 16.785 24.2773 16.76 24.0863 16.76C23.9333 16.76 23.7823 16.776 23.6313 16.808C23.2603 16.887 22.9673 17.043 22.7413 17.217C22.5833 17.179 22.4093 17.156 22.2193 17.156C22.0663 17.156 21.9133 17.171 21.7633 17.204C21.3923 17.281 21.1003 17.437 20.8733 17.61C20.7163 17.573 20.5403 17.55 20.3513 17.55C20.1973 17.55 20.0443 17.565 19.8963 17.597C19.5253 17.675 19.2313 17.832 19.0043 18.005C18.8473 17.968 18.6733 17.943 18.4833 17.943C18.3303 17.943 18.1773 17.959 18.0273 17.991C17.6573 18.069 17.3643 18.225 17.1373 18.4C16.9803 18.362 16.8053 18.338 16.6143 18.338H16.6133C16.4633 18.338 16.3083 18.354 16.1593 18.385C15.7893 18.464 15.4953 18.62 15.2683 18.793C15.1123 18.755 14.9373 18.733 14.7473 18.733H14.7463C14.5943 18.733 14.4403 18.748 14.2913 18.78C13.9213 18.858 13.6273 19.014 13.4013 19.188C13.2443 19.15 13.0693 19.126 12.8783 19.126C12.7253 19.126 12.5733 19.143 12.4233 19.174C12.0523 19.252 11.7593 19.408 11.5323 19.583C11.3753 19.545 11.2013 19.52 11.0103 19.52C10.8583 19.52 10.7043 19.536 10.5543 19.568C10.1853 19.646 9.8913 19.803 9.6653 19.977C9.5083 19.939 9.3333 19.915 9.1423 19.915C8.9903 19.915 8.8373 19.931 8.6873 19.963C7.7353 20.163 7.2943 20.879 7.1823 21.094C6.9813 21.479 6.9443 21.927 7.0823 22.338L11.5803 35.771C11.6833 36.076 11.8743 36.343 12.1323 36.537L19.9713 42.449C20.2513 42.659 20.5883 42.77 20.9303 42.77C21.0823 42.77 21.2353 42.748 21.3843 42.704L44.9643 35.699C45.4613 35.55 45.8553 35.172 46.0213 34.682L50.5333 21.33C50.7253 20.761 50.5773 20.152 50.1913 19.736Z" fill="black"/>
</svg>
