<svg width="57" height="57" viewBox="0 0 57 57" fill="none" xmlns="http://www.w3.org/2000/svg">
<path fill-rule="evenodd" clip-rule="evenodd" d="M47.684 18.11C47.668 18.115 47.651 18.118 47.635 18.123C44.386 19.013 37.265 20.271 29.938 20.271H29.838C21.731 20.258 14.093 18.6 11.956 17.749C12.03 17.661 12.104 17.573 12.172 17.495C12.508 17.097 12.825 16.721 13.085 16.361C13.99 16.718 15.343 17.06 17.365 17.371C20.862 17.908 25.5 18.205 30.428 18.205C35.357 18.205 39.995 17.908 43.49 17.371C45.501 17.062 46.852 16.721 47.756 16.367C48.016 16.726 48.33 17.099 48.665 17.495C48.729 17.569 48.801 17.653 48.871 17.737C48.576 17.85 48.172 17.975 47.684 18.11ZM46.127 38.094C45.299 39.03 40.889 43.352 30.195 43.352C19.473 43.352 15.522 39.01 14.828 38.124L13.926 20.036C14.664 20.217 15.527 20.408 16.571 20.61C19.068 21.09 24.112 21.898 29.836 21.909H29.935C36.27 21.909 43.008 20.962 47.024 19.971L46.127 38.094ZM30.428 12.574C39.258 12.574 45.362 13.517 47.332 14.346C47.315 14.371 47.29 14.394 47.277 14.418C47.185 14.584 47.156 14.757 47.153 14.934C45 15.745 38.99 16.633 30.428 16.633C23.178 16.633 17.761 15.996 14.962 15.309C16.945 15.14 18.926 14.983 20.905 14.844C23.209 14.695 25.509 14.547 27.81 14.481C28.958 14.435 30.107 14.429 31.26 14.429C32.414 14.415 33.564 14.437 34.719 14.439C37.027 14.471 39.334 14.53 41.652 14.628C39.379 14.143 37.066 13.876 34.751 13.708C32.433 13.544 30.11 13.479 27.779 13.544C25.453 13.628 23.136 13.818 20.833 14.117C18.756 14.388 16.686 14.731 14.649 15.227C14.274 15.127 13.946 15.026 13.684 14.927C13.682 14.753 13.651 14.582 13.56 14.418C13.548 14.396 13.526 14.374 13.511 14.351C15.467 13.522 21.579 12.574 30.428 12.574ZM50.84 17.961C50.84 17.524 50.548 17.183 49.911 16.433C49.717 16.205 49.41 15.841 49.16 15.512C49.44 15.204 49.517 14.896 49.517 14.603C49.517 13.693 48.802 12.652 43.49 11.834C39.995 11.297 35.357 11 30.428 11C25.5 11 20.862 11.297 17.365 11.834C12.055 12.652 11.337 13.693 11.337 14.603C11.337 14.892 11.413 15.196 11.684 15.502C11.434 15.833 11.123 16.202 10.925 16.433C10.29 17.183 10 17.524 10 17.961C10 18.319 10.004 18.845 12.197 19.557L13.141 38.461C13.148 38.604 13.193 38.745 13.271 38.869C13.428 39.12 17.277 45.054 30.195 45.054C43.076 45.054 47.474 39.166 47.654 38.916C47.75 38.782 47.804 38.625 47.813 38.461L48.751 19.484C49.651 19.193 50.282 18.91 50.532 18.662C50.784 18.409 50.84 18.14 50.84 17.961Z" fill="black"/>
</svg>
