<svg width="57" height="57" viewBox="0 0 57 57" fill="none" xmlns="http://www.w3.org/2000/svg">
<path fill-rule="evenodd" clip-rule="evenodd" d="M45.45 16.8V40.405C45.45 42.222 43.973 43.7 42.158 43.7H14.797C12.982 43.7 11.504 42.222 11.504 40.405V16.8C11.504 14.984 12.982 13.507 14.797 13.507H42.158C43.973 13.507 45.45 14.984 45.45 16.8ZM42.158 12H14.797C12.152 12 10 14.154 10 16.8V40.405C10 43.052 12.152 45.204 14.797 45.204H42.158C44.804 45.204 46.956 43.052 46.956 40.405V16.8C46.956 14.154 44.804 12 42.158 12Z" fill="black"/>
<path fill-rule="evenodd" clip-rule="evenodd" d="M21.2413 23.0652V21.7332C21.2413 20.8922 22.2603 20.1802 23.4683 20.1802H25.1463C25.5603 20.1802 25.8993 19.8412 25.8993 19.4272C25.8993 18.0052 27.0543 16.8492 28.4753 16.8492C29.8973 16.8492 31.0543 18.0052 31.0543 19.4272C31.0543 19.8412 31.3923 20.1802 31.8073 20.1802H33.4823C34.6883 20.1802 35.7103 20.8922 35.7103 21.7332V23.0652C35.7103 23.9082 34.6883 24.6202 33.4823 24.6202H23.4683C22.2603 24.6202 21.2413 23.9082 21.2413 23.0652ZM23.4683 26.1252H33.4823C35.5413 26.1252 37.2143 24.7522 37.2143 23.0652V21.7332C37.2143 20.0472 35.5413 18.6752 33.4823 18.6752H32.4893C32.1303 16.7662 30.4273 15.3442 28.4753 15.3442C26.5213 15.3442 24.8213 16.7662 24.4653 18.6752H23.4683C21.4113 18.6752 19.7383 20.0472 19.7383 21.7332V23.0652C19.7383 24.7522 21.4113 26.1252 23.4683 26.1252Z" fill="black"/>
<path fill-rule="evenodd" clip-rule="evenodd" d="M21.2466 28.602H20.2356C20.1176 28.602 20.0216 28.698 20.0216 28.817V29.222C20.0216 29.342 20.1176 29.438 20.2356 29.438H21.2466C21.3646 29.438 21.4626 29.342 21.4626 29.222V28.817C21.4626 28.698 21.3646 28.602 21.2466 28.602Z" fill="black"/>
<path fill-rule="evenodd" clip-rule="evenodd" d="M34.3565 28.602H32.1725C32.0545 28.602 31.9575 28.698 31.9575 28.817V29.222C31.9575 29.342 32.0545 29.438 32.1725 29.438H34.3565C34.4745 29.438 34.5715 29.342 34.5715 29.222V28.817C34.5715 28.698 34.4745 28.602 34.3565 28.602Z" fill="black"/>
<path fill-rule="evenodd" clip-rule="evenodd" d="M29.9869 28.602H27.8009C27.6829 28.602 27.5859 28.698 27.5859 28.817V29.222C27.5859 29.342 27.6829 29.438 27.8009 29.438H29.9869C30.1049 29.438 30.2029 29.342 30.2029 29.222V28.817C30.2029 28.698 30.1049 28.602 29.9869 28.602Z" fill="black"/>
<path fill-rule="evenodd" clip-rule="evenodd" d="M38.7262 28.602H36.5422C36.4242 28.602 36.3272 28.698 36.3272 28.817V29.222C36.3272 29.342 36.4242 29.438 36.5422 29.438H38.7262C38.8442 29.438 38.9422 29.342 38.9422 29.222V28.817C38.9422 28.698 38.8442 28.602 38.7262 28.602Z" fill="black"/>
<path fill-rule="evenodd" clip-rule="evenodd" d="M25.6173 28.602H23.4323C23.3143 28.602 23.2163 28.698 23.2163 28.817V29.222C23.2163 29.342 23.3143 29.438 23.4323 29.438H25.6173C25.7353 29.438 25.8333 29.342 25.8333 29.222V28.817C25.8333 28.698 25.7353 28.602 25.6173 28.602Z" fill="black"/>
<path fill-rule="evenodd" clip-rule="evenodd" d="M42.1257 28.602H40.9137C40.7937 28.602 40.6987 28.698 40.6987 28.817V29.222C40.6987 29.342 40.7937 29.438 40.9137 29.438H41.5047V30.03C41.5047 30.149 41.6007 30.247 41.7187 30.247H42.1257C42.2437 30.247 42.3417 30.149 42.3417 30.03V28.817C42.3417 28.698 42.2437 28.602 42.1257 28.602Z" fill="black"/>
<path fill-rule="evenodd" clip-rule="evenodd" d="M42.1257 31.8289H41.7187C41.6007 31.8289 41.5047 31.9269 41.5047 32.0449V34.0609C41.5047 34.1789 41.6007 34.2759 41.7187 34.2759H42.1257C42.2437 34.2759 42.3417 34.1789 42.3417 34.0609V32.0449C42.3417 31.9269 42.2437 31.8289 42.1257 31.8289Z" fill="black"/>
<path fill-rule="evenodd" clip-rule="evenodd" d="M42.1257 35.8596H41.7187C41.6007 35.8596 41.5047 35.9576 41.5047 36.0756V38.0896C41.5047 38.2076 41.6007 38.3046 41.7187 38.3046H42.1257C42.2437 38.3046 42.3417 38.2076 42.3417 38.0896V36.0756C42.3417 35.9576 42.2437 35.8596 42.1257 35.8596Z" fill="black"/>
<path fill-rule="evenodd" clip-rule="evenodd" d="M42.1257 39.887H41.7187C41.6007 39.887 41.5047 39.985 41.5047 40.103V41.115C41.5047 41.233 41.6007 41.33 41.7187 41.33H42.1257C42.2437 41.33 42.3417 41.233 42.3417 41.115V40.103C42.3417 39.985 42.2437 39.887 42.1257 39.887Z" fill="black"/>
</svg>
