<svg width="57" height="57" viewBox="0 0 57 57" fill="none" xmlns="http://www.w3.org/2000/svg">
<path fill-rule="evenodd" clip-rule="evenodd" d="M46.5796 33.7317C46.7176 32.9337 46.7736 31.7557 46.1726 30.9287C45.8756 30.5177 45.2946 30.0277 44.2286 30.0277C43.3386 30.0277 42.5796 30.3337 42.0396 30.9147C41.4786 31.5197 41.2556 32.2937 41.1716 32.8937C39.4366 32.8337 35.0346 32.7127 28.2586 32.7127C20.9166 32.7127 13.8736 33.9457 11.5226 34.4017L8.96655 22.7487C11.1886 23.2747 16.2936 24.0767 26.7766 24.0767C37.9216 24.0767 42.7445 22.8187 44.6506 22.0547L47.5296 33.9907L46.5796 33.7317ZM49.4566 34.8117L46.0366 20.6357C45.9706 20.3667 45.7706 20.1517 45.5126 20.0537C45.2536 19.9557 44.9556 19.9937 44.7276 20.1517C44.6945 20.1737 41.3076 22.3957 26.7766 22.3957C12.0626 22.3957 8.22255 20.7887 8.19355 20.7767C7.90555 20.6437 7.56255 20.6847 7.31455 20.8837C7.06355 21.0847 6.95155 21.4077 7.01955 21.7207L10.0576 35.5687C10.1436 35.9627 10.4916 36.2307 10.8776 36.2307C10.9376 36.2307 10.9976 36.2237 11.0586 36.2107C11.1406 36.1927 19.4876 34.3917 28.2586 34.3917C37.1086 34.3917 41.8836 34.6027 41.9306 34.6037C41.9436 34.6047 41.9556 34.6047 41.9686 34.6047C41.9746 34.6057 41.9826 34.6057 41.9866 34.6047C42.4506 34.6047 42.8276 34.2287 42.8276 33.7647C42.8276 33.6937 42.8186 33.6247 42.8036 33.5597C42.8065 33.1927 42.8896 32.4707 43.2706 32.0597C43.4906 31.8227 43.8046 31.7077 44.2286 31.7077C44.6596 31.7077 44.7706 31.8577 44.8116 31.9157C45.1216 32.3407 44.9736 33.4517 44.7746 34.0697C44.7046 34.2877 44.7266 34.5257 44.8356 34.7287C44.9446 34.9287 45.1306 35.0787 45.3516 35.1397L48.4586 35.9877C48.5356 36.0087 48.6136 36.0247 48.6896 36.0167C49.1716 35.9767 49.5386 35.6437 49.5386 35.1767C49.5386 35.0457 49.5106 34.9227 49.4566 34.8117Z" fill="black"/>
</svg>
