<svg width="57" height="57" viewBox="0 0 57 57" fill="none" xmlns="http://www.w3.org/2000/svg">
<path fill-rule="evenodd" clip-rule="evenodd" d="M32.7594 18.9929C35.1364 19.6999 37.2544 20.6139 37.2544 20.6139C37.2544 20.6139 32.0064 22.4159 26.9064 20.8989C21.8054 19.3819 20.8924 18.5589 20.8924 18.5589C24.2194 17.9459 28.0824 17.6019 32.7594 18.9929ZM26.5464 21.7419C31.9814 23.3579 37.4474 21.5209 37.6774 21.4429C38.0654 21.3089 38.3224 21.0029 38.3374 20.6549C38.3524 20.3079 38.1234 19.9829 37.7494 19.8219C37.6604 19.7839 35.5394 18.8699 33.1184 18.1499C28.0674 16.6479 23.9784 17.0719 20.6474 17.6839C20.2694 17.7519 19.9694 17.9819 19.8564 18.2869C19.7414 18.5909 19.8334 18.9249 20.0954 19.1599C20.3534 19.3919 21.5784 20.2639 26.5464 21.7419Z" fill="black"/>
<path fill-rule="evenodd" clip-rule="evenodd" d="M45.9116 29.9265C45.9116 29.9265 44.2896 37.1635 44.0706 38.9165C43.8506 40.6705 39.2016 41.8545 34.3786 41.8545C29.5546 41.8545 14.7756 40.1445 10.5646 33.9615L8.85462 24.8395C8.85462 24.8395 6.88162 23.4805 6.53162 22.1635L6.44262 21.8135L5.40162 20.9795C5.40162 20.9795 5.14862 20.2335 5.25962 19.7745C5.39962 19.1875 5.12862 17.0765 11.2676 15.2785L12.5826 15.5855C12.5826 15.5855 15.6556 14.6885 22.7126 14.5105C23.0836 14.5025 23.4566 14.4965 23.8286 14.4965C34.7766 14.4965 45.6726 18.5275 48.8506 24.8835L50.0346 25.4535C50.0346 25.4535 50.3416 28.4355 45.9116 29.9265ZM51.7066 25.2815C51.6466 24.7005 51.2896 24.1915 50.7636 23.9395L50.0736 23.6065C46.4436 17.2265 35.7906 12.8165 23.8286 12.8165C23.4426 12.8165 23.0556 12.8225 22.6706 12.8315C16.9116 12.9765 13.6926 13.5945 12.5686 13.8565L11.6496 13.6415C11.5236 13.6125 11.3956 13.5975 11.2676 13.5975C11.1076 13.5975 10.9486 13.6205 10.7946 13.6665C4.91562 15.3885 3.87562 17.6055 3.62762 19.3455L3.61562 19.4205C3.42362 20.2245 3.68562 21.1565 3.80962 21.5185C3.91162 21.8225 4.10062 22.0915 4.35162 22.2925L4.96362 22.7825C5.39762 24.0755 6.57562 25.1865 7.32362 25.7895L8.91262 34.2705C8.95662 34.4985 9.04562 34.7155 9.17562 34.9075C14.0536 42.0715 30.2966 43.5365 34.3786 43.5365C35.4846 43.5365 45.2026 43.4125 45.7376 39.1245C45.8886 37.9215 46.8266 33.5695 47.3556 31.1725C52.0456 29.1585 51.7236 25.4475 51.7066 25.2815Z" fill="black"/>
<path fill-rule="evenodd" clip-rule="evenodd" d="M46.293 25.1386C46.316 28.0036 42.332 29.2736 35.541 29.2736C35.212 29.2736 34.877 29.2706 34.535 29.2636C27.129 29.1366 9.33203 25.5576 9.25003 19.7716H9.24703C9.24403 19.4866 9.01203 19.2556 8.72603 19.2556C8.44003 19.2556 8.20703 19.4886 8.20703 19.7756C8.20703 19.7816 8.21003 19.7846 8.21003 19.7886H8.20903C8.31603 27.3086 29.193 30.3246 34.519 30.4166C34.866 30.4226 35.207 30.4256 35.541 30.4256C38.455 30.4256 47.333 30.3436 47.333 25.1396C47.333 24.3416 46.282 23.8666 46.293 25.1386Z" fill="black"/>
</svg>
