<svg width="57" height="57" viewBox="0 0 57 57" fill="none" xmlns="http://www.w3.org/2000/svg">
<path fill-rule="evenodd" clip-rule="evenodd" d="M46.3641 30.11C46.3641 30.11 44.7421 37.346 44.5231 39.1C44.3041 40.854 39.6541 42.038 34.8311 42.038C30.0071 42.038 15.2281 40.328 11.0171 34.144L9.30713 25.023C9.30713 25.023 7.33413 23.663 6.98413 22.347L6.89513 21.997L5.85413 21.163C5.85413 21.163 5.60113 20.417 5.71213 19.957C5.85213 19.371 5.58013 17.26 11.7201 15.462L13.0351 15.769C13.0351 15.769 16.1081 14.872 23.1651 14.694C23.5361 14.685 23.9091 14.68 24.2811 14.68C35.2291 14.68 46.1251 18.711 49.3031 25.066L50.4871 25.637C50.4871 25.637 50.7941 28.619 46.3641 30.11ZM52.1591 25.464C52.0991 24.884 51.7421 24.375 51.2161 24.123L50.5261 23.79C46.8961 17.409 36.2421 13 24.2811 13C23.8951 13 23.5081 13.005 23.1231 13.014C17.3641 13.159 14.1451 13.778 13.0211 14.04L12.1001 13.825C11.9761 13.795 11.8481 13.781 11.7201 13.781C11.5591 13.781 11.4011 13.804 11.2471 13.85C5.36713 15.571 4.32813 17.788 4.08013 19.528L4.06813 19.604C3.87613 20.408 4.13813 21.34 4.26213 21.702C4.36413 22.006 4.55313 22.275 4.80413 22.475L5.41613 22.966C5.85013 24.259 7.02813 25.37 7.77613 25.973L9.36613 34.454C9.40913 34.682 9.49813 34.899 9.62813 35.091C14.5061 42.254 30.7491 43.719 34.8311 43.719C35.9371 43.719 45.6551 43.595 46.1901 39.307C46.3411 38.105 47.2791 33.752 47.8081 31.356C52.4981 29.342 52.1761 25.63 52.1591 25.464Z" fill="black"/>
<path fill-rule="evenodd" clip-rule="evenodd" d="M34.9879 29.447C30.9179 29.378 23.7119 28.262 18.0289 26.313C19.2739 26.112 20.7209 25.993 22.3589 25.957C22.6489 25.951 22.9449 25.946 23.2459 25.945C27.4169 25.925 35.3209 27.063 40.5129 29.216C39.1909 29.378 37.6779 29.456 35.9929 29.456C35.6649 29.456 35.3279 29.454 34.9879 29.447ZM46.7459 25.321C46.7589 27.138 45.1579 28.312 42.2549 28.928C36.5039 26.009 26.5419 24.912 23.2619 24.928C22.9539 24.929 22.6539 24.934 22.3589 24.94C21.0829 24.968 18.5149 25.031 16.2469 25.651C12.4789 24.139 9.73394 22.216 9.70294 19.955H9.69894C9.69594 19.67 9.46494 19.439 9.17894 19.439C8.89294 19.439 8.65894 19.672 8.65894 19.959C8.65894 19.965 8.66294 19.968 8.66294 19.973H8.66194C8.76894 27.492 29.6459 30.508 34.9709 30.599C35.3189 30.605 35.6589 30.608 35.9929 30.608C38.9079 30.608 47.7859 30.527 47.7859 25.323C47.7859 24.524 46.7349 24.049 46.7459 25.321Z" fill="black"/>
</svg>
