<svg width="57" height="57" viewBox="0 0 57 57" fill="none" xmlns="http://www.w3.org/2000/svg">
<path fill-rule="evenodd" clip-rule="evenodd" d="M28.21 49.865C21.503 49.865 16.681 48.349 16.681 46.477V44.347C18.362 46.076 22.693 47.218 28.209 47.218C33.724 47.218 38.057 46.076 39.738 44.347V46.477C39.738 48.349 34.916 49.865 28.21 49.865ZM16.742 8.945C17.311 7.672 21.935 6.681 28.21 6.681C34.485 6.681 39.109 7.673 39.677 8.945L39.738 10.024V10.977C39.71 11.032 39.691 11.092 39.691 11.158C39.691 11.921 35.854 13.282 28.209 13.282C20.565 13.282 16.728 11.921 16.728 11.158C16.728 11.092 16.709 11.032 16.681 10.977V10.024L16.742 8.945ZM16.681 12.283C18.508 13.524 23.37 14.095 28.209 14.095C33.049 14.095 37.91 13.524 39.738 12.283V42.563C39.738 44.344 35.301 46.404 28.209 46.404C21.118 46.404 16.681 44.359 16.681 42.577V12.283ZM28.21 5C23.276 5 15 5.546 15 9.211V46.477C15 50.214 21.824 51.546 28.21 51.546C34.595 51.546 41.42 50.214 41.42 46.477V9.211C41.42 5.546 33.143 5 28.21 5Z" fill="black"/>
<path fill-rule="evenodd" clip-rule="evenodd" d="M19.1913 9.5388C21.2203 9.0688 24.2963 8.7788 28.2083 8.7788C32.1243 8.7788 35.2003 9.0688 37.2283 9.5388C37.4203 9.5808 37.6263 9.5278 37.7233 9.4118C37.8183 9.2938 37.7733 9.1498 37.6133 9.0668C35.9163 8.1948 32.5983 7.6308 28.2083 7.6308C23.8223 7.6308 20.5043 8.1948 18.8063 9.0658C18.6473 9.1488 18.6003 9.2938 18.6953 9.4118C18.7933 9.5278 18.9993 9.5808 19.1913 9.5388Z" fill="black"/>
</svg>
