<?xml version="1.0" encoding="UTF-8" standalone="no"?>
<!-- Created with Inkscape (http://www.inkscape.org/) -->

<svg
   xmlns:dc="http://purl.org/dc/elements/1.1/"
   xmlns:cc="http://creativecommons.org/ns#"
   xmlns:rdf="http://www.w3.org/1999/02/22-rdf-syntax-ns#"
   xmlns:svg="http://www.w3.org/2000/svg"
   xmlns="http://www.w3.org/2000/svg"
   xmlns:xlink="http://www.w3.org/1999/xlink"
   xmlns:sodipodi="http://sodipodi.sourceforge.net/DTD/sodipodi-0.dtd"
   xmlns:inkscape="http://www.inkscape.org/namespaces/inkscape"
   width="320"
   height="240"
   viewBox="0 0 744.09449 1052.3622"
   id="svg2"
   version="1.1"
   inkscape:version="0.91 r13725"
   sodipodi:docname="cestemballepresdechezvous-icon.svg"
   inkscape:export-filename="C:\Users\Stéphane\Desktop\Blogs\OpenFoodFacts\madenearme-icon.png"
   inkscape:export-xdpi="90"
   inkscape:export-ydpi="90">
  <defs
     id="defs4">
    <linearGradient
       inkscape:collect="always"
       id="linearGradient9269">
      <stop
         style="stop-color:#ffffff;stop-opacity:1;"
         offset="0"
         id="stop9271" />
      <stop
         style="stop-color:#ffffff;stop-opacity:0;"
         offset="1"
         id="stop9273" />
    </linearGradient>
    <linearGradient
       inkscape:collect="always"
       xlink:href="#linearGradient9269"
       id="linearGradient9275"
       x1="214.05989"
       y1="826.93896"
       x2="214.05989"
       y2="526.18542"
       gradientUnits="userSpaceOnUse"
       gradientTransform="matrix(1.005866,0,0,1.3678498,-6.2738593,-385.60599)" />
    <inkscape:path-effect
       effect="spiro"
       id="path-effect56790"
       is_visible="true" />
    <inkscape:path-effect
       effect="skeletal"
       id="path-effect56792"
       is_visible="true"
       pattern="M 0,5 10,10 10,0 Z"
       copytype="single_stretched"
       prop_scale="1"
       scale_y_rel="false"
       spacing="0"
       normal_offset="0"
       tang_offset="0"
       prop_units="false"
       vertical_pattern="false"
       fuse_tolerance="0" />
    <inkscape:path-effect
       effect="spiro"
       id="path-effect56808"
       is_visible="true" />
    <inkscape:path-effect
       effect="skeletal"
       id="path-effect56810"
       is_visible="true"
       pattern="M 0,5 10,10 10,0 Z"
       copytype="single_stretched"
       prop_scale="1"
       scale_y_rel="false"
       spacing="0"
       normal_offset="0"
       tang_offset="0"
       prop_units="false"
       vertical_pattern="false"
       fuse_tolerance="0" />
    <inkscape:path-effect
       effect="spiro"
       id="path-effect56814"
       is_visible="true" />
    <inkscape:path-effect
       effect="skeletal"
       id="path-effect56816"
       is_visible="true"
       pattern="M 0,5 10,10 10,0 Z"
       copytype="single_stretched"
       prop_scale="1"
       scale_y_rel="false"
       spacing="0"
       normal_offset="0"
       tang_offset="0"
       prop_units="false"
       vertical_pattern="false"
       fuse_tolerance="0" />
    <inkscape:path-effect
       effect="spiro"
       id="path-effect56820"
       is_visible="true" />
    <inkscape:path-effect
       effect="skeletal"
       id="path-effect56822"
       is_visible="true"
       pattern="M 0,5 10,10 10,0 Z"
       copytype="single_stretched"
       prop_scale="1"
       scale_y_rel="false"
       spacing="0"
       normal_offset="0"
       tang_offset="0"
       prop_units="false"
       vertical_pattern="false"
       fuse_tolerance="0" />
    <inkscape:path-effect
       effect="spiro"
       id="path-effect56826"
       is_visible="true" />
    <inkscape:path-effect
       effect="skeletal"
       id="path-effect56828"
       is_visible="true"
       pattern="M 0,5 10,10 10,0 Z"
       copytype="single_stretched"
       prop_scale="1"
       scale_y_rel="false"
       spacing="0"
       normal_offset="0"
       tang_offset="0"
       prop_units="false"
       vertical_pattern="false"
       fuse_tolerance="0" />
    <inkscape:path-effect
       effect="spiro"
       id="path-effect56832"
       is_visible="true" />
    <inkscape:path-effect
       effect="skeletal"
       id="path-effect56834"
       is_visible="true"
       pattern="M 0,5 10,10 10,0 Z"
       copytype="single_stretched"
       prop_scale="1"
       scale_y_rel="false"
       spacing="0"
       normal_offset="0"
       tang_offset="0"
       prop_units="false"
       vertical_pattern="false"
       fuse_tolerance="0" />
  </defs>
  <sodipodi:namedview
     id="base"
     pagecolor="#ffffff"
     bordercolor="#666666"
     borderopacity="1.0"
     inkscape:pageopacity="0.0"
     inkscape:pageshadow="2"
     inkscape:zoom="1"
     inkscape:cx="124.12275"
     inkscape:cy="194.54096"
     inkscape:document-units="px"
     inkscape:current-layer="layer1"
     showgrid="false"
     inkscape:window-width="1920"
     inkscape:window-height="1018"
     inkscape:window-x="-8"
     inkscape:window-y="-8"
     inkscape:window-maximized="1"
     showguides="false" />
  <metadata
     id="metadata7">
    <rdf:RDF>
      <cc:Work
         rdf:about="">
        <dc:format>image/svg+xml</dc:format>
        <dc:type
           rdf:resource="http://purl.org/dc/dcmitype/StillImage" />
        <dc:title></dc:title>
      </cc:Work>
    </rdf:RDF>
  </metadata>
  <g
     inkscape:label="Calque 1"
     inkscape:groupmode="layer"
     id="layer1">
    <rect
       style="opacity:1;fill:#ffd5d5;fill-opacity:1;fill-rule:evenodd;stroke:none;stroke-width:4.3848424;stroke-linecap:round;stroke-linejoin:round;stroke-miterlimit:4;stroke-dasharray:none;stroke-dashoffset:0;stroke-opacity:1"
       id="rect9251"
       width="1403.1495"
       height="1052.3622"
       x="-333.61899"
       y="-4.0919189"
       inkscape:export-xdpi="90"
       inkscape:export-ydpi="90" />
    <image
       sodipodi:absref="C:\Users\Stéphane\Desktop\Blogs\OpenFoodFacts\cestfabriquepresdechezvous-carte.png"
       xlink:href="cestfabriquepresdechezvous-carte.png"
       inkscape:export-ydpi="90"
       inkscape:export-xdpi="90"
       inkscape:export-filename="C:\Users\Stéphane\Desktop\Blogs\OpenFoodFacts\cestemballepresdechezvous-carte-logo.png"
       width="1632.3765"
       height="1274.8726"
       id="image57463"
       x="-534.90717"
       y="-6.8777676" />
    <rect
       style="fill:url(#linearGradient9275);fill-opacity:1;fill-rule:evenodd;stroke:none;stroke-width:8.18273163;stroke-linecap:round;stroke-linejoin:round;stroke-miterlimit:4;stroke-dasharray:none;stroke-dashoffset:0;stroke-opacity:0.2254902"
       id="rect6442"
       width="1403.1495"
       height="766.65729"
       x="-333.61899"
       y="281.61298"
       inkscape:export-filename="C:\Users\Stéphane\Desktop\Blogs\OpenFoodFacts\madenearme.575x200.png"
       inkscape:export-xdpi="90"
       inkscape:export-ydpi="90" />
    <g
       inkscape:export-ydpi="90"
       inkscape:export-xdpi="90"
       inkscape:export-filename="C:\Users\Stéphane\Desktop\Blogs\OpenFoodFacts\cestemballepresdechezvous.png"
       id="g3890"
       transform="matrix(2.205597,0,0,2.205597,888.45119,-1631.249)">
      <g
         style="fill:#44aa00"
         transform="matrix(0.51053864,0,0,0.51053864,-584.35083,824.46433)"
         id="g3892"
         inkscape:export-filename="C:\Users\Stéphane\Desktop\Blogs\OpenFoodFacts\cestfabriquepresdechezvous.png"
         inkscape:export-xdpi="77.936378"
         inkscape:export-ydpi="77.936378">
        <path
           style="fill:#44aa00;fill-rule:evenodd;stroke:none"
           d="m 131.81222,639.69518 c 11.16062,-17.29513 18.53715,-37.08215 21.7604,-57.57557 3.22547,-20.49311 2.30767,-41.74894 -3.09049,-61.97566 -5.88404,-22.01279 -17.07391,-42.60824 -32.11615,-59.93006 0,0 -10e-6,-10e-6 -10e-6,-10e-6 -15.03513,-17.32824 -33.976484,-31.4476 -55.328611,-40.53545 l -3.739198,9.27462 c 20.190391,7.66064 38.614798,20.27722 53.576509,36.2128 0,0 1e-5,1e-5 1e-5,1e-5 14.95459,15.942 26.50932,35.26763 33.00529,56.30165 0,0 0,1e-5 0,1e-5 5.9779,19.32922 7.70911,40.044 5.32068,60.32552 -2.39065,20.28121 -8.90668,40.18735 -19.38843,57.90214 z"
           id="path3894"
           inkscape:path-effect="#path-effect56790;#path-effect56792"
           inkscape:original-d="m 131.81222,639.69518 c 0,0 28.5094,-78.82324 16.36883,-118.88945 -13.1381,-43.35826 -87.01329,-96.48999 -87.01329,-96.48999"
           inkscape:connector-curvature="0"
           sodipodi:nodetypes="csc" />
        <path
           style="fill:#44aa00;fill-rule:evenodd;stroke:none"
           d="m 241.22497,312.31843 c 23.67243,21.93175 51.07732,40.04502 80.82097,53.30515 25.77437,11.49017 53.28591,19.33711 81.46684,23.17169 l 1.0781,-9.94172 c -27.40066,-2.19282 -54.60484,-8.31586 -80.4985,-18.18117 -29.88045,-11.38376 -58.01801,-27.76528 -82.86741,-48.35395 z"
           id="path3896"
           inkscape:path-effect="#path-effect56808;#path-effect56810"
           inkscape:original-d="m 241.22497,312.31843 c 0,0 55.57358,40.35121 81.84419,50.82955 25.87767,10.32161 80.98267,20.67643 80.98267,20.67643"
           inkscape:connector-curvature="0"
           sodipodi:nodetypes="csc" />
        <path
           style="fill:#44aa00;fill-rule:evenodd;stroke:none"
           d="m 403.19031,395.02414 c -24.37889,28.55262 -37.1948,67.2077 -34.42135,105.3479 2.66414,36.44352 19.47864,71.94935 46.58963,97.38437 l 6.67808,-7.44334 c -26.28596,-22.47201 -44.03065,-55.45623 -48.17733,-90.42651 -4.35367,-36.59016 6.27314,-75.23272 29.33097,-104.86242 z"
           id="path3898"
           inkscape:path-effect="#path-effect56814;#path-effect56816"
           inkscape:original-d="m 403.19031,395.02414 c 0,0 -35.03629,68.63096 -31.87616,105.10516 3.02634,34.93008 47.38348,93.90544 47.38348,93.90544"
           inkscape:connector-curvature="0"
           sodipodi:nodetypes="cac" />
        <path
           style="fill:#44aa00;fill-rule:evenodd;stroke:none"
           d="m 410.94397,603.51143 c -0.7799,7.70549 -4.09996,15.07186 -9.24072,20.68865 -5.1395,5.61788 -12.09378,9.4819 -19.44361,10.89006 -7.02817,1.36415 -14.34954,0.50105 -21.33631,-1.3422 -6.99154,-1.85602 -13.72667,-4.75016 -20.60393,-7.55575 -6.87282,-2.82099 -13.96354,-5.56654 -21.55976,-7.07187 -7.6092,-1.52547 -15.7933,-1.59807 -23.57173,0.95703 0,0 -10e-6,0 -10e-6,0 -10.63115,3.59063 -19.37205,12.2506 -23.04298,23.12363 -3.62192,10.88825 -1.95327,23.31039 4.64674,33.00732 l 8.12626,-5.82786 c -5.15315,-6.69142 -7.05387,-16.3008 -4.69825,-24.6735 2.3066,-8.38791 8.98129,-15.86757 17.31665,-19.13161 0,0 1e-5,0 1e-5,0 6.13958,-2.475 13.27299,-2.72507 20.25212,-1.76192 6.99357,0.98355 13.9194,3.2879 20.88427,5.71807 6.96046,2.44559 14.03174,5.04623 21.43607,6.62766 10e-6,0 10e-6,10e-6 10e-6,10e-6 7.40826,1.59399 15.23152,2.05594 22.65932,0.24893 7.77519,-1.90977 14.81742,-6.35646 19.831,-12.43001 5.01233,-6.07464 7.95934,-13.73138 8.34485,-21.46664 z"
           id="path3900"
           inkscape:path-effect="#path-effect56820;#path-effect56822"
           inkscape:original-d="m 410.94397,603.51143 c 0,0 -14.87022,27.73552 -28.43009,32.73768 -27.24392,10.05013 -61.55634,-28.35976 -86.15177,-12.92277 -14.77129,9.271 -15.50732,49.96803 -15.50732,49.96803"
           inkscape:connector-curvature="0"
           sodipodi:nodetypes="cssc" />
        <path
           style="fill:#44aa00;fill-rule:evenodd;stroke:none"
           d="m 277.40872,680.18651 c -19.53577,-7.42348 -39.13556,-14.69409 -58.79697,-21.81073 -27.18912,-9.84139 -54.49606,-19.38834 -81.91442,-28.63815 l -2.87808,9.57688 c 27.90522,7.37619 55.73981,15.06096 83.49698,23.05291 20.07217,5.77926 40.10386,11.71915 60.09249,17.81909 z"
           id="path3902"
           inkscape:path-effect="#path-effect56826;#path-effect56828"
           inkscape:original-d="m 277.40872,680.18651 c 0,0 -39.35917,-25.54437 -59.44473,-19.81491 -27.85442,7.94555 -57.43451,-0.28717 -82.7057,-25.84553"
           inkscape:connector-curvature="0"
           sodipodi:nodetypes="csc" />
        <path
           style="fill:#44aa00;fill-rule:evenodd;stroke:none"
           d="m 62.029278,420.86967 c 2.429336,-4.90588 6.343401,-9.03256 11.052216,-11.70188 4.708494,-2.66987 10.205597,-3.87948 15.539794,-3.45401 5.085434,0.39603 9.960602,2.24832 14.710832,4.32067 0,0 0,0 0,0 4.74727,2.0849 9.4734,4.44116 14.61799,5.93733 5.15066,1.51362 10.84023,2.02609 16.19562,0.31571 0,0 0,0 0,0 2.6779,-0.86872 5.20351,-2.33334 7.2499,-4.38266 0,0 0,-1e-5 0,-1e-5 2.05035,-2.05477 3.54563,-4.70737 4.12947,-7.64369 0,-10e-6 0,-10e-6 0,-10e-6 0.68579,-3.7846 -0.0938,-7.55111 -1.37173,-10.8601 -1.23557,-3.30911 -2.82014,-6.29178 -3.85305,-9.26443 -0.98569,-2.96779 -1.58485,-6.01607 -0.8466,-8.60595 0,0 0,-1e-5 0,-1e-5 0.34411,-1.29034 0.94275,-2.49174 1.78881,-3.36014 0,0 0,0 0,0 0.8346,-0.85842 1.91173,-1.49237 2.96964,-1.64108 1.28619,-0.26508 2.8156,0.21095 4.15922,0.98148 0,0 1e-5,0 1e-5,0 1.36872,0.79919 2.5569,2.10608 3.70173,3.57449 2.2334,3.00366 4.24063,7.01333 8.09693,10.22081 2.89585,2.2551 6.39848,3.5107 9.93864,3.77681 1e-5,-1e-5 2e-5,0 2e-5,0 3.52341,0.26607 7.00175,-0.31762 10.18513,-1.48705 0,0 1e-5,-1e-5 1e-5,-1e-5 6.3295,-2.37063 11.4605,-6.51657 15.985,-10.57931 19.05838,-16.77969 36.15885,-35.85878 50.81265,-56.73066 l -8.28706,-5.59686 c -13.44442,20.73213 -29.3879,39.91446 -47.40037,56.98968 -4.33791,4.03084 -8.55488,7.88469 -13.44385,9.7795 0,0 -2e-5,0 -2e-5,0 -2.42578,0.96327 -4.98072,1.52753 -7.4455,1.40286 -2.44733,-0.12459 -4.88694,-0.84758 -6.75417,-2.24156 -2.68593,-1.80463 -4.53554,-5.45083 -7.41246,-8.91296 -1.41024,-1.76437 -3.16615,-3.45666 -5.36598,-4.71772 -2.22375,-1.28904 -4.95294,-1.87592 -7.71201,-1.36396 -2.24049,0.48487 -4.18385,1.68924 -5.59862,3.32506 -1.40364,1.62621 -2.30401,3.55176 -2.72087,5.53329 0,0 0,2e-5 0,2e-5 -0.78355,3.9533 0.006,7.80932 1.36451,11.13712 1.31159,3.32406 3.00662,6.25221 4.22473,9.19808 1.17543,2.9451 2.0216,5.99744 1.52892,8.82674 0,0 -1e-5,10e-6 -1e-5,10e-6 -0.33063,2.19596 -1.43633,4.32201 -2.99745,6.02675 0,0 -1e-5,1e-5 -1e-5,1e-5 -1.56543,1.71057 -3.63484,3.0067 -5.8845,3.84128 0,0 -1e-5,0 -1e-5,0 -4.49856,1.69582 -9.70658,1.38317 -14.62184,0.18024 -4.9232,-1.22087 -9.66796,-3.38054 -14.54668,-5.30601 0,0 -2e-5,0 -2e-5,0 -4.875555,-1.93794 -10.000533,-3.64398 -15.32368,-3.88006 -10e-7,0 -1.4e-5,0 -1.4e-5,0 -5.592677,-0.23811 -11.208441,1.23482 -15.920803,4.14029 -4.712041,2.90602 -8.497245,7.22997 -10.744465,12.2219 z"
           id="path3904"
           inkscape:path-effect="#path-effect56832;#path-effect56834"
           inkscape:original-d="m 62.029278,420.86967 c 0,0 10.507696,-11.96804 26.628639,-15.75904 16.120943,-3.79099 46.470313,4.04114 55.139013,-1.15744 17.33741,-10.39716 -11.55652,-34.14889 -0.0558,-35.87601 21.49324,-3.22774 9.43259,27.77578 18.22417,14.88571 8.71381,-12.77604 6.46375,-15.1271 31.87617,-8.61518 65.74244,16.84647 47.83298,-8.79194 49.10651,-56.86017"
           inkscape:connector-curvature="0"
           sodipodi:nodetypes="csscssc" />
      </g>
      <path
         style="fill:#2c5aa0;stroke:none"
         d="m -352.1042,1004.8208 -79.8125,79.8438 79.8125,79.8125 c 405.579223,-50.6996 452.55342,-103.6266 0,-159.6563 z"
         id="path3906"
         inkscape:connector-curvature="0"
         sodipodi:nodetypes="cccc"
         inkscape:export-filename="C:\Users\Stéphane\Desktop\Blogs\OpenFoodFacts\cestfabriquepresdechezvous.png"
         inkscape:export-xdpi="77.936378"
         inkscape:export-ydpi="77.936378" />
      <path
         sodipodi:nodetypes="ccsssc"
         inkscape:connector-curvature="0"
         style="fill:#2c5aa0;fill-opacity:1;fill-rule:nonzero;stroke:none"
         d="m -352.1042,1004.3132 0,160.6716 353.8523547,0 c 44.5098453,0 80.3517753,-35.8099 80.3517753,-80.3197 0,-44.5099 -35.84193,-80.3519 -80.3517753,-80.3519 z"
         id="path3908"
         inkscape:export-filename="C:\Users\Stéphane\Desktop\Blogs\OpenFoodFacts\cestfabriquepresdechezvous.png"
         inkscape:export-xdpi="77.936378"
         inkscape:export-ydpi="77.936378" />
      <circle
         r="8.5285902"
         cy="1080.3846"
         cx="-447.14182"
         style="fill:#2c5aa0;fill-opacity:1;fill-rule:nonzero;stroke:none"
         id="path3910"
         transform="translate(2.4367402,4.2643314)"
         inkscape:export-filename="C:\Users\Stéphane\Desktop\Blogs\OpenFoodFacts\cestfabriquepresdechezvous.png"
         inkscape:export-xdpi="77.936378"
         inkscape:export-ydpi="77.936378" />
      <text
         sodipodi:linespacing="125%"
         id="text3912"
         y="1066.4589"
         x="34.505623"
         style="font-style:normal;font-weight:normal;font-size:52.84167099px;line-height:125%;font-family:'Berlin Sans FB';-inkscape-font-specification:'Berlin Sans FB';letter-spacing:0px;word-spacing:0px;fill:#ffffff;fill-opacity:1;stroke:none"
         xml:space="preserve"
         inkscape:export-filename="C:\Users\Stéphane\Desktop\Blogs\OpenFoodFacts\cestfabriquepresdechezvous.png"
         inkscape:export-xdpi="77.936378"
         inkscape:export-ydpi="77.936378"><tspan
           y="1066.4589"
           x="34.505619"
           id="tspan3914"
           sodipodi:role="line"
           style="text-align:end;text-anchor:end;fill:#ffffff">C'est fabriqué</tspan><tspan
           id="tspan3916"
           y="1132.511"
           x="34.505627"
           sodipodi:role="line"
           style="text-align:end;text-anchor:end;fill:#ffffff">près de chez vous</tspan></text>
      <path
         style="fill:#ffcc00;fill-opacity:1;fill-rule:nonzero;stroke:none"
         d="m -344.46216,1023.5022 0,47.0698 22.99228,0 0.54985,0 22.9778,0 22.99227,0 0,-30.719 -23.52765,-16.3508 0,15.9745 -22.99227,-15.9745 0,15.9745 -22.99228,-15.9745 z"
         id="path3918"
         inkscape:connector-curvature="0"
         inkscape:export-filename="C:\Users\Stéphane\Desktop\Blogs\OpenFoodFacts\cestfabriquepresdechezvous.png"
         inkscape:export-xdpi="77.936378"
         inkscape:export-ydpi="77.936378" />
      <text
         xml:space="preserve"
         style="font-style:normal;font-weight:normal;font-size:41.14433289px;line-height:125%;font-family:'Berlin Sans FB';-inkscape-font-specification:'Berlin Sans FB';letter-spacing:0px;word-spacing:0px;fill:#44aa00;fill-opacity:1;stroke:none"
         x="-547.13202"
         y="1206.6959"
         id="text3920"
         sodipodi:linespacing="125%"
         inkscape:export-filename="C:\Users\Stéphane\Desktop\Blogs\OpenFoodFacts\cestfabriquepresdechezvous.png"
         inkscape:export-xdpi="77.936378"
         inkscape:export-ydpi="77.936378"><tspan
           sodipodi:role="line"
           id="tspan3922"
           x="-547.13202"
           y="1206.6959"
           style="font-style:normal;font-variant:normal;font-weight:normal;font-stretch:normal;font-family:Arial;-inkscape-font-specification:Arial;fill:#44aa00">La carte des produits alimentaires</tspan></text>
      <g
         id="g3924"
         transform="translate(-4.6622234,-0.93244468)">
        <rect
           transform="matrix(0.99296002,-0.11844997,0.11844997,0.99296002,0,0)"
           y="1012.7781"
           x="-281.77524"
           height="44.761372"
           width="198.84183"
           id="rect3926"
           style="fill:#ff0000;fill-opacity:1;fill-rule:evenodd;stroke:none" />
        <text
           transform="matrix(0.99296002,-0.11844997,0.11844997,0.99296002,0,0)"
           sodipodi:linespacing="89.999998%"
           id="text3928"
           y="1053.0923"
           x="-271.64587"
           style="font-style:normal;font-weight:normal;font-size:40px;line-height:89.99999762%;font-family:'Berlin Sans FB';-inkscape-font-specification:'Berlin Sans FB';letter-spacing:0px;word-spacing:0px;fill:#000000;fill-opacity:1;stroke:none"
           xml:space="preserve"><tspan
             style="font-size:52.84167099px;fill:#ffffff"
             y="1053.0923"
             x="-271.64587"
             id="tspan3930"
             sodipodi:role="line">emballé</tspan></text>
      </g>
    </g>
  </g>
</svg>
