<?xml version="1.0" encoding="UTF-8" standalone="no"?>
<!-- Created with Inkscape (http://www.inkscape.org/) -->

<svg
   xmlns:dc="http://purl.org/dc/elements/1.1/"
   xmlns:cc="http://creativecommons.org/ns#"
   xmlns:rdf="http://www.w3.org/1999/02/22-rdf-syntax-ns#"
   xmlns:svg="http://www.w3.org/2000/svg"
   xmlns="http://www.w3.org/2000/svg"
   xmlns:sodipodi="http://sodipodi.sourceforge.net/DTD/sodipodi-0.dtd"
   xmlns:inkscape="http://www.inkscape.org/namespaces/inkscape"
   width="320"
   height="240"
   viewBox="0 0 744.09449 1052.3622"
   id="svg2"
   version="1.1"
   inkscape:version="0.91 r13725"
   sodipodi:docname="crowdsourcing-icon.svg">
  <defs
     id="defs4" />
  <sodipodi:namedview
     id="base"
     pagecolor="#ffffff"
     bordercolor="#666666"
     borderopacity="1.0"
     inkscape:pageopacity="0.0"
     inkscape:pageshadow="2"
     inkscape:zoom="1.6443933"
     inkscape:cx="-7.893133"
     inkscape:cy="95.339478"
     inkscape:document-units="px"
     inkscape:current-layer="layer1"
     showgrid="false"
     inkscape:window-width="1600"
     inkscape:window-height="838"
     inkscape:window-x="-8"
     inkscape:window-y="-8"
     inkscape:window-maximized="1"
     showguides="false" />
  <metadata
     id="metadata7">
    <rdf:RDF>
      <cc:Work
         rdf:about="">
        <dc:format>image/svg+xml</dc:format>
        <dc:type
           rdf:resource="http://purl.org/dc/dcmitype/StillImage" />
        <dc:title />
      </cc:Work>
    </rdf:RDF>
  </metadata>
  <g
     inkscape:label="Calque 1"
     inkscape:groupmode="layer"
     id="layer1">
    <g
       id="g4265"
       transform="translate(-1208.7458,-232.84262)">
      <rect
         ry="22.902554"
         y="415.48541"
         x="312.24612"
         height="221.39134"
         width="119.60222"
         id="rect4261"
         style="opacity:1;fill:#1a1a1a;fill-opacity:1;fill-rule:evenodd;stroke:none;stroke-width:3;stroke-linecap:round;stroke-linejoin:round;stroke-miterlimit:4;stroke-dasharray:none;stroke-dashoffset:0;stroke-opacity:1" />
      <rect
         ry="0"
         y="435.84323"
         x="321.78888"
         height="180.6757"
         width="100.51676"
         id="rect4263"
         style="opacity:1;fill:#ffffff;fill-opacity:1;fill-rule:evenodd;stroke:none;stroke-width:3;stroke-linecap:round;stroke-linejoin:round;stroke-miterlimit:4;stroke-dasharray:none;stroke-dashoffset:0;stroke-opacity:1" />
    </g>
    <rect
       ry="22.902554"
       y="485.46542"
       x="-883.77606"
       height="221.39134"
       width="119.60222"
       id="rect4311"
       style="opacity:1;fill:#1a1a1a;fill-opacity:1;fill-rule:evenodd;stroke:none;stroke-width:3;stroke-linecap:round;stroke-linejoin:round;stroke-miterlimit:4;stroke-dasharray:none;stroke-dashoffset:0;stroke-opacity:1" />
    <g
       id="g4417">
      <rect
         style="opacity:1;fill:#ff0000;fill-opacity:1;fill-rule:evenodd;stroke:none;stroke-width:3;stroke-linecap:round;stroke-linejoin:round;stroke-miterlimit:4;stroke-dasharray:none;stroke-dashoffset:0;stroke-opacity:1"
         id="rect4321"
         width="55.984013"
         height="119.27029"
         x="-1157.3344"
         y="813.15784"
         ry="20.471766" />
      <rect
         ry="42.804604"
         y="856.41821"
         x="-1187.8711"
         height="249.38335"
         width="117.05749"
         id="rect4319"
         style="opacity:1;fill:#280b0b;fill-opacity:1;fill-rule:evenodd;stroke:none;stroke-width:3;stroke-linecap:round;stroke-linejoin:round;stroke-miterlimit:4;stroke-dasharray:none;stroke-dashoffset:0;stroke-opacity:1" />
      <path
         id="rect4327"
         d="m -1187.869,920.03759 0,122.14181 117.0547,0 0,-122.14181 -117.0547,0 z"
         style="opacity:1;fill:#ff0000;fill-opacity:1;fill-rule:evenodd;stroke:none;stroke-width:3;stroke-linecap:round;stroke-linejoin:round;stroke-miterlimit:4;stroke-dasharray:none;stroke-dashoffset:0;stroke-opacity:1"
         inkscape:connector-curvature="0" />
    </g>
    <g
       id="g4364">
      <rect
         ry="22.902554"
         y="849.36151"
         x="-651.43561"
         height="221.39134"
         width="119.60222"
         id="rect4360"
         style="opacity:1;fill:#4d4d4d;fill-opacity:1;fill-rule:evenodd;stroke:none;stroke-width:3;stroke-linecap:round;stroke-linejoin:round;stroke-miterlimit:4;stroke-dasharray:none;stroke-dashoffset:0;stroke-opacity:1" />
      <circle
         r="12.72364"
         cy="876.77594"
         cx="-591.63452"
         id="path4362"
         style="opacity:1;fill:#e6e6e6;fill-opacity:1;fill-rule:evenodd;stroke:none;stroke-width:3;stroke-linecap:round;stroke-linejoin:round;stroke-miterlimit:4;stroke-dasharray:none;stroke-dashoffset:0;stroke-opacity:1" />
    </g>
    <g
       id="g4430">
      <rect
         style="opacity:1;fill:#1a1a1a;fill-opacity:1;fill-rule:evenodd;stroke:none;stroke-width:3;stroke-linecap:round;stroke-linejoin:round;stroke-miterlimit:4;stroke-dasharray:none;stroke-dashoffset:0;stroke-opacity:1"
         id="rect4403"
         width="119.60222"
         height="221.39134"
         x="-1189.1434"
         y="253.89519"
         ry="22.902554" />
      <rect
         style="opacity:1;fill:#cccccc;fill-opacity:1;fill-rule:evenodd;stroke:none;stroke-width:3;stroke-linecap:round;stroke-linejoin:round;stroke-miterlimit:4;stroke-dasharray:none;stroke-dashoffset:0;stroke-opacity:1"
         id="rect4405"
         width="100.51676"
         height="180.6757"
         x="-1179.6006"
         y="274.25299"
         ry="0" />
      <g
         transform="matrix(0.45652172,0,0,0.45652172,-613.77301,-59.377812)"
         id="g4422">
        <rect
           style="opacity:1;fill:#ff0000;fill-opacity:1;fill-rule:evenodd;stroke:none;stroke-width:3;stroke-linecap:round;stroke-linejoin:round;stroke-miterlimit:4;stroke-dasharray:none;stroke-dashoffset:0;stroke-opacity:1"
           id="rect4424"
           width="55.984013"
           height="119.27029"
           x="-1157.3344"
           y="813.15784"
           ry="20.471766" />
        <rect
           ry="42.804604"
           y="856.41821"
           x="-1187.8711"
           height="249.38335"
           width="117.05749"
           id="rect4426"
           style="opacity:1;fill:#280b0b;fill-opacity:1;fill-rule:evenodd;stroke:none;stroke-width:3;stroke-linecap:round;stroke-linejoin:round;stroke-miterlimit:4;stroke-dasharray:none;stroke-dashoffset:0;stroke-opacity:1" />
        <path
           id="path4428"
           d="m -1187.869,920.03759 0,122.14181 117.0547,0 0,-122.14181 -117.0547,0 z"
           style="opacity:1;fill:#ff0000;fill-opacity:1;fill-rule:evenodd;stroke:none;stroke-width:3;stroke-linecap:round;stroke-linejoin:round;stroke-miterlimit:4;stroke-dasharray:none;stroke-dashoffset:0;stroke-opacity:1"
           inkscape:connector-curvature="0" />
      </g>
      <rect
         ry="0"
         y="297.15555"
         x="-1179.6006"
         height="157.77315"
         width="100.51676"
         id="rect4409"
         style="opacity:1;fill:#ffffff;fill-opacity:0.30275229;fill-rule:evenodd;stroke:none;stroke-width:3;stroke-linecap:round;stroke-linejoin:round;stroke-miterlimit:4;stroke-dasharray:none;stroke-dashoffset:0;stroke-opacity:1" />
    </g>
    <g
       id="g4439">
      <rect
         ry="22.902554"
         y="253.89519"
         x="-1189.1434"
         height="221.39134"
         width="119.60222"
         id="rect4441"
         style="opacity:1;fill:#1a1a1a;fill-opacity:1;fill-rule:evenodd;stroke:none;stroke-width:3;stroke-linecap:round;stroke-linejoin:round;stroke-miterlimit:4;stroke-dasharray:none;stroke-dashoffset:0;stroke-opacity:1" />
      <rect
         ry="0"
         y="274.25299"
         x="-1179.6006"
         height="180.6757"
         width="100.51676"
         id="rect4443"
         style="opacity:1;fill:#cccccc;fill-opacity:1;fill-rule:evenodd;stroke:none;stroke-width:3;stroke-linecap:round;stroke-linejoin:round;stroke-miterlimit:4;stroke-dasharray:none;stroke-dashoffset:0;stroke-opacity:1" />
      <g
         id="g4445"
         transform="matrix(0.45652172,0,0,0.45652172,-613.77301,-59.377812)">
        <rect
           ry="20.471766"
           y="813.15784"
           x="-1157.3344"
           height="119.27029"
           width="55.984013"
           id="rect4447"
           style="opacity:1;fill:#ff0000;fill-opacity:1;fill-rule:evenodd;stroke:none;stroke-width:3;stroke-linecap:round;stroke-linejoin:round;stroke-miterlimit:4;stroke-dasharray:none;stroke-dashoffset:0;stroke-opacity:1" />
        <rect
           style="opacity:1;fill:#280b0b;fill-opacity:1;fill-rule:evenodd;stroke:none;stroke-width:3;stroke-linecap:round;stroke-linejoin:round;stroke-miterlimit:4;stroke-dasharray:none;stroke-dashoffset:0;stroke-opacity:1"
           id="rect4449"
           width="117.05749"
           height="249.38335"
           x="-1187.8711"
           y="856.41821"
           ry="42.804604" />
        <path
           inkscape:connector-curvature="0"
           style="opacity:1;fill:#ff0000;fill-opacity:1;fill-rule:evenodd;stroke:none;stroke-width:3;stroke-linecap:round;stroke-linejoin:round;stroke-miterlimit:4;stroke-dasharray:none;stroke-dashoffset:0;stroke-opacity:1"
           d="m -1187.869,920.03759 0,122.14181 117.0547,0 0,-122.14181 -117.0547,0 z"
           id="path4451" />
      </g>
      <rect
         style="opacity:1;fill:#ffffff;fill-opacity:0.30275229;fill-rule:evenodd;stroke:none;stroke-width:3;stroke-linecap:round;stroke-linejoin:round;stroke-miterlimit:4;stroke-dasharray:none;stroke-dashoffset:0;stroke-opacity:1"
         id="rect4453"
         width="100.51676"
         height="157.77315"
         x="-1179.6006"
         y="297.15555"
         ry="0" />
    </g>
    <g
       id="g4481">
      <rect
         style="opacity:1;fill:#1a1a1a;fill-opacity:1;fill-rule:evenodd;stroke:none;stroke-width:3;stroke-linecap:round;stroke-linejoin:round;stroke-miterlimit:4;stroke-dasharray:none;stroke-dashoffset:0;stroke-opacity:1"
         id="rect4457"
         width="119.60222"
         height="221.39134"
         x="-1161.1514"
         y="495.64435"
         ry="22.902554" />
      <rect
         style="opacity:1;fill:#cccccc;fill-opacity:1;fill-rule:evenodd;stroke:none;stroke-width:3;stroke-linecap:round;stroke-linejoin:round;stroke-miterlimit:4;stroke-dasharray:none;stroke-dashoffset:0;stroke-opacity:1"
         id="rect4459"
         width="100.51676"
         height="180.6757"
         x="-1151.6085"
         y="516.00214"
         ry="0" />
      <g
         transform="matrix(0.45652172,0,0,0.45652172,-585.781,182.37136)"
         id="g4461">
        <rect
           style="opacity:1;fill:#ff0000;fill-opacity:1;fill-rule:evenodd;stroke:none;stroke-width:3;stroke-linecap:round;stroke-linejoin:round;stroke-miterlimit:4;stroke-dasharray:none;stroke-dashoffset:0;stroke-opacity:1"
           id="rect4463"
           width="55.984013"
           height="119.27029"
           x="-1157.3344"
           y="813.15784"
           ry="20.471766" />
        <rect
           ry="42.804604"
           y="856.41821"
           x="-1187.8711"
           height="249.38335"
           width="117.05749"
           id="rect4465"
           style="opacity:1;fill:#280b0b;fill-opacity:1;fill-rule:evenodd;stroke:none;stroke-width:3;stroke-linecap:round;stroke-linejoin:round;stroke-miterlimit:4;stroke-dasharray:none;stroke-dashoffset:0;stroke-opacity:1" />
        <path
           id="path4467"
           d="m -1187.869,920.03759 0,122.14181 117.0547,0 0,-122.14181 -117.0547,0 z"
           style="opacity:1;fill:#ff0000;fill-opacity:1;fill-rule:evenodd;stroke:none;stroke-width:3;stroke-linecap:round;stroke-linejoin:round;stroke-miterlimit:4;stroke-dasharray:none;stroke-dashoffset:0;stroke-opacity:1"
           inkscape:connector-curvature="0" />
      </g>
      <rect
         ry="0"
         y="538.90472"
         x="-1151.6085"
         height="157.77315"
         width="100.51676"
         id="rect4469"
         style="opacity:1;fill:#ffffff;fill-opacity:0.30275233;fill-rule:evenodd;stroke:none;stroke-width:3;stroke-linecap:round;stroke-linejoin:round;stroke-miterlimit:4;stroke-dasharray:none;stroke-dashoffset:0;stroke-opacity:1" />
      <path
         sodipodi:nodetypes="cccc"
         inkscape:connector-curvature="0"
         id="rect4478"
         d="m -1151.6085,516.00214 100.5167,180.6757 -100.5167,0 z"
         style="opacity:1;fill:#ffffff;fill-opacity:0.49803922;fill-rule:evenodd;stroke:none;stroke-width:3;stroke-linecap:round;stroke-linejoin:round;stroke-miterlimit:4;stroke-dasharray:none;stroke-dashoffset:0;stroke-opacity:1" />
    </g>
    <rect
       style="opacity:1;fill:none;fill-opacity:1;fill-rule:evenodd;stroke:none;stroke-width:3;stroke-linecap:round;stroke-linejoin:round;stroke-miterlimit:4;stroke-dasharray:none;stroke-dashoffset:0;stroke-opacity:1"
       id="rect4193"
       width="1504.9386"
       height="1128.704"
       x="-362.60898"
       y="-76.34185"
       ry="0" />
    <path
       style="fill:none;fill-rule:evenodd;stroke:#000000;stroke-width:18.81173325;stroke-linecap:butt;stroke-linejoin:miter;stroke-miterlimit:4;stroke-dasharray:none;stroke-opacity:1"
       d="M -63.288165,678.13085 C -218.6805,701.78989 -234.34789,553.47983 -256.80491,413.52623"
       id="path8563"
       inkscape:connector-curvature="0"
       sodipodi:nodetypes="cc" />
    <path
       sodipodi:nodetypes="cc"
       inkscape:connector-curvature="0"
       id="path8599"
       d="M 232.93841,676.68474 C 388.33075,653.0257 403.99815,801.33575 426.45519,941.28937"
       style="fill:none;fill-rule:evenodd;stroke:#000000;stroke-width:18.81173325;stroke-linecap:butt;stroke-linejoin:miter;stroke-miterlimit:4;stroke-dasharray:none;stroke-opacity:1" />
    <rect
       style="opacity:1;fill:#000000;fill-opacity:1;fill-rule:evenodd;stroke:none;stroke-width:3;stroke-linecap:round;stroke-linejoin:round;stroke-miterlimit:4;stroke-dasharray:none;stroke-dashoffset:0;stroke-opacity:1"
       id="rect6788"
       width="309.31879"
       height="131.54527"
       x="-60.206882"
       y="920.81689" />
    <path
       inkscape:connector-curvature="0"
       style="opacity:1;fill:#0066ff;fill-opacity:1;fill-rule:evenodd;stroke:none;stroke-width:3;stroke-linecap:round;stroke-linejoin:round;stroke-miterlimit:4;stroke-dasharray:none;stroke-dashoffset:0;stroke-opacity:1"
       d="m 81.445925,599.14452 c -126.899625,0 -229.056745,102.15712 -229.056745,229.05675 l 0,224.16093 458.11349,0 0,-224.16093 c 0,-126.89963 -102.15712,-229.05675 -229.056745,-229.05675 z"
       id="rect8544" />
    <circle
       style="opacity:1;fill:#ffcc00;fill-opacity:1;fill-rule:evenodd;stroke:none;stroke-width:3;stroke-linecap:round;stroke-linejoin:round;stroke-miterlimit:4;stroke-dasharray:none;stroke-dashoffset:0;stroke-opacity:1"
       id="path8542"
       cx="81.445923"
       cy="437.22217"
       r="173.77019" />
    <g
       id="g8559"
       transform="matrix(1.0725433,0,0,1.0725433,1443.9302,78.636023)">
      <circle
         r="22.09322"
         cy="334.33255"
         cx="-1327.4045"
         id="path8548"
         style="opacity:1;fill:#000000;fill-opacity:1;fill-rule:evenodd;stroke:none;stroke-width:3;stroke-linecap:round;stroke-linejoin:round;stroke-miterlimit:4;stroke-dasharray:none;stroke-dashoffset:0;stroke-opacity:1" />
      <circle
         style="opacity:1;fill:#000000;fill-opacity:1;fill-rule:evenodd;stroke:none;stroke-width:3;stroke-linecap:round;stroke-linejoin:round;stroke-miterlimit:4;stroke-dasharray:none;stroke-dashoffset:0;stroke-opacity:1"
         id="circle8550"
         cx="-1213.2562"
         cy="334.33255"
         r="22.09322" />
    </g>
    <path
       id="path8557"
       d="m 25.398232,528.05502 a 72.731749,108.60636 0 0 0 56.032253,39.49731 72.731749,108.60636 0 0 0 56.063145,-39.49731 l -112.095398,0 z"
       style="opacity:1;fill:#000000;fill-opacity:1;fill-rule:evenodd;stroke:none;stroke-width:3;stroke-linecap:round;stroke-linejoin:round;stroke-miterlimit:4;stroke-dasharray:none;stroke-dashoffset:0;stroke-opacity:1"
       inkscape:connector-curvature="0" />
    <g
       id="g4491"
       transform="matrix(1.0632929,0.14056066,-0.14056066,1.0632929,1010.2117,-194.31822)">
      <rect
         ry="22.902554"
         y="495.64435"
         x="-1161.1514"
         height="221.39134"
         width="119.60222"
         id="rect4493"
         style="opacity:1;fill:#1a1a1a;fill-opacity:1;fill-rule:evenodd;stroke:none;stroke-width:3;stroke-linecap:round;stroke-linejoin:round;stroke-miterlimit:4;stroke-dasharray:none;stroke-dashoffset:0;stroke-opacity:1" />
      <rect
         ry="0"
         y="516.00214"
         x="-1151.6085"
         height="180.6757"
         width="100.51676"
         id="rect4495"
         style="opacity:1;fill:#cccccc;fill-opacity:1;fill-rule:evenodd;stroke:none;stroke-width:3;stroke-linecap:round;stroke-linejoin:round;stroke-miterlimit:4;stroke-dasharray:none;stroke-dashoffset:0;stroke-opacity:1" />
      <g
         id="g4497"
         transform="matrix(0.45652172,0,0,0.45652172,-585.781,182.37136)">
        <rect
           ry="20.471766"
           y="813.15784"
           x="-1157.3344"
           height="119.27029"
           width="55.984013"
           id="rect4499"
           style="opacity:1;fill:#ff0000;fill-opacity:1;fill-rule:evenodd;stroke:none;stroke-width:3;stroke-linecap:round;stroke-linejoin:round;stroke-miterlimit:4;stroke-dasharray:none;stroke-dashoffset:0;stroke-opacity:1" />
        <rect
           style="opacity:1;fill:#280b0b;fill-opacity:1;fill-rule:evenodd;stroke:none;stroke-width:3;stroke-linecap:round;stroke-linejoin:round;stroke-miterlimit:4;stroke-dasharray:none;stroke-dashoffset:0;stroke-opacity:1"
           id="rect4501"
           width="117.05749"
           height="249.38335"
           x="-1187.8711"
           y="856.41821"
           ry="42.804604" />
        <path
           inkscape:connector-curvature="0"
           style="opacity:1;fill:#ff0000;fill-opacity:1;fill-rule:evenodd;stroke:none;stroke-width:3;stroke-linecap:round;stroke-linejoin:round;stroke-miterlimit:4;stroke-dasharray:none;stroke-dashoffset:0;stroke-opacity:1"
           d="m -1187.869,920.03759 0,122.14181 117.0547,0 0,-122.14181 -117.0547,0 z"
           id="path4503" />
      </g>
      <rect
         style="opacity:1;fill:#ffffff;fill-opacity:0.30275233;fill-rule:evenodd;stroke:none;stroke-width:3;stroke-linecap:round;stroke-linejoin:round;stroke-miterlimit:4;stroke-dasharray:none;stroke-dashoffset:0;stroke-opacity:1"
         id="rect4505"
         width="100.51676"
         height="157.77315"
         x="-1151.6085"
         y="538.90472"
         ry="0" />
      <path
         style="opacity:1;fill:#ffffff;fill-opacity:0.49803922;fill-rule:evenodd;stroke:none;stroke-width:3;stroke-linecap:round;stroke-linejoin:round;stroke-miterlimit:4;stroke-dasharray:none;stroke-dashoffset:0;stroke-opacity:1"
         d="m -1151.6085,516.00214 100.5167,180.6757 -100.5167,0 z"
         id="path4507"
         inkscape:connector-curvature="0"
         sodipodi:nodetypes="cccc" />
    </g>
    <circle
       r="35.543896"
       cy="417.47556"
       cx="-260.75433"
       id="circle8601"
       style="opacity:1;fill:#ffcc00;fill-opacity:1;fill-rule:evenodd;stroke:none;stroke-width:3;stroke-linecap:round;stroke-linejoin:round;stroke-miterlimit:4;stroke-dasharray:none;stroke-dashoffset:0;stroke-opacity:1" />
    <circle
       style="opacity:1;fill:#ffcc00;fill-opacity:1;fill-rule:evenodd;stroke:none;stroke-width:3;stroke-linecap:round;stroke-linejoin:round;stroke-miterlimit:4;stroke-dasharray:none;stroke-dashoffset:0;stroke-opacity:1"
       id="circle8603"
       cx="422.47845"
       cy="930.88745"
       r="35.543896" />
    <ellipse
       style="opacity:1;fill:#803300;fill-opacity:1;fill-rule:evenodd;stroke:none;stroke-width:3;stroke-linecap:round;stroke-linejoin:round;stroke-miterlimit:4;stroke-dasharray:none;stroke-dashoffset:0;stroke-opacity:1"
       id="circle4376"
       cx="731.02667"
       cy="490.44415"
       rx="206.52216"
       ry="259.74411" />
    <path
       id="path4231"
       d="m 731.02671,599.14452 c -126.89962,0 -229.05674,102.15712 -229.05674,229.05675 l 0,224.16093 458.11349,0 0,-224.16093 c 0,-126.89963 -102.15711,-229.05675 -229.05675,-229.05675 z"
       style="opacity:1;fill:#00d400;fill-opacity:1;fill-rule:evenodd;stroke:none;stroke-width:3;stroke-linecap:round;stroke-linejoin:round;stroke-miterlimit:4;stroke-dasharray:none;stroke-dashoffset:0;stroke-opacity:1"
       inkscape:connector-curvature="0" />
    <path
       style="fill:none;fill-rule:evenodd;stroke:#000000;stroke-width:18.81173325;stroke-linecap:butt;stroke-linejoin:miter;stroke-miterlimit:4;stroke-dasharray:none;stroke-opacity:1"
       d="m 882.51921,676.68474 c 155.39229,-23.65904 238.44949,308.62379 2.46358,283.70995"
       id="path4229"
       inkscape:connector-curvature="0"
       sodipodi:nodetypes="cc" />
    <path
       sodipodi:nodetypes="cc"
       inkscape:connector-curvature="0"
       id="path4227"
       d="M 597.20996,672.29721 C 441.81762,648.63817 385.21026,977.08407 649.33301,824.99926"
       style="fill:none;fill-rule:evenodd;stroke:#000000;stroke-width:18.81173325;stroke-linecap:butt;stroke-linejoin:miter;stroke-miterlimit:4;stroke-dasharray:none;stroke-opacity:1" />
    <path
       style="opacity:1;fill:#00d400;fill-opacity:1;fill-rule:evenodd;stroke:none;stroke-width:3;stroke-linecap:round;stroke-linejoin:round;stroke-miterlimit:4;stroke-dasharray:none;stroke-dashoffset:0;stroke-opacity:1"
       d="m 731.02509,599.14453 c -78.24515,0 -147.0351,38.87369 -188.31942,98.40338 l 376.64801,0 C 878.06937,638.01822 809.27025,599.14453 731.02509,599.14453 Z"
       id="path4396"
       inkscape:connector-curvature="0" />
    <circle
       r="173.77019"
       cy="437.22217"
       cx="731.02667"
       id="circle4233"
       style="opacity:1;fill:#ffcc00;fill-opacity:1;fill-rule:evenodd;stroke:none;stroke-width:3;stroke-linecap:round;stroke-linejoin:round;stroke-miterlimit:4;stroke-dasharray:none;stroke-dashoffset:0;stroke-opacity:1" />
    <g
       id="g4368"
       transform="matrix(0.56862615,0.73713776,-0.9094028,0.46091325,1935.8917,770.93233)">
      <rect
         style="opacity:1;fill:#4d4d4d;fill-opacity:1;fill-rule:evenodd;stroke:none;stroke-width:3;stroke-linecap:round;stroke-linejoin:round;stroke-miterlimit:4;stroke-dasharray:none;stroke-dashoffset:0;stroke-opacity:1"
         id="rect4370"
         width="119.60222"
         height="221.39134"
         x="-651.43561"
         y="849.36151"
         ry="22.902554" />
      <circle
         style="opacity:1;fill:#e6e6e6;fill-opacity:1;fill-rule:evenodd;stroke:none;stroke-width:3;stroke-linecap:round;stroke-linejoin:round;stroke-miterlimit:4;stroke-dasharray:none;stroke-dashoffset:0;stroke-opacity:1"
         id="circle4372"
         cx="-591.63452"
         cy="876.77594"
         r="12.72364" />
    </g>
    <circle
       style="opacity:1;fill:#ffcc00;fill-opacity:1;fill-rule:evenodd;stroke:none;stroke-width:3;stroke-linecap:round;stroke-linejoin:round;stroke-miterlimit:4;stroke-dasharray:none;stroke-dashoffset:0;stroke-opacity:1"
       id="circle4243"
       cx="623.54889"
       cy="835.06323"
       r="35.543896" />
    <rect
       style="opacity:1;fill:#ff0000;fill-opacity:1;fill-rule:evenodd;stroke:none;stroke-width:3;stroke-linecap:round;stroke-linejoin:round;stroke-miterlimit:4;stroke-dasharray:none;stroke-dashoffset:0;stroke-opacity:1"
       id="rect4350"
       width="60.045277"
       height="127.92255"
       x="1197.7842"
       y="-259.32324"
       ry="21.956856"
       transform="matrix(0.62958295,0.77693327,-0.77693327,0.62958295,0,0)" />
    <rect
       ry="45.90979"
       y="-212.92464"
       x="1165.0322"
       height="267.47443"
       width="125.54922"
       id="rect4348"
       style="opacity:1;fill:#2b0000;fill-opacity:1;fill-rule:evenodd;stroke:none;stroke-width:3;stroke-linecap:round;stroke-linejoin:round;stroke-miterlimit:4;stroke-dasharray:none;stroke-dashoffset:0;stroke-opacity:1"
       transform="matrix(0.62958295,0.77693327,-0.77693327,0.62958295,0,0)" />
    <path
       inkscape:connector-curvature="0"
       id="path4352"
       d="M 845.9004,814.05964 744.1203,896.5365 823.16209,994.07757 924.94219,911.6007 845.9004,814.05964 Z"
       style="opacity:1;fill:#ff0000;fill-opacity:1;fill-rule:evenodd;stroke:none;stroke-width:3;stroke-linecap:round;stroke-linejoin:round;stroke-miterlimit:4;stroke-dasharray:none;stroke-dashoffset:0;stroke-opacity:1" />
    <circle
       r="35.543896"
       cy="960.91003"
       cx="875.5473"
       id="circle4245"
       style="opacity:1;fill:#ffcc00;fill-opacity:1;fill-rule:evenodd;stroke:none;stroke-width:3;stroke-linecap:round;stroke-linejoin:round;stroke-miterlimit:4;stroke-dasharray:none;stroke-dashoffset:0;stroke-opacity:1" />
    <path
       style="opacity:1;fill:#803300;fill-opacity:1;fill-rule:evenodd;stroke:none;stroke-width:3;stroke-linecap:round;stroke-linejoin:round;stroke-miterlimit:4;stroke-dasharray:none;stroke-dashoffset:0;stroke-opacity:1"
       d="m 731.83339,643.72138 a 206.52216,143.74754 0 0 1 -0.8083,0.0183 206.52216,143.74754 0 0 1 -0.58787,-0.0183 206.52216,206.52216 0 0 0 0.58787,0.0275 206.52216,206.52216 0 0 0 0.8083,-0.0275 z"
       id="path4392"
       inkscape:connector-curvature="0" />
    <path
       style="opacity:1;fill:#aa4400;fill-opacity:1;fill-rule:evenodd;stroke:none;stroke-width:3;stroke-linecap:round;stroke-linejoin:round;stroke-miterlimit:4;stroke-dasharray:none;stroke-dashoffset:0;stroke-opacity:1"
       d="m 731.02509,230.69908 a 206.52216,206.52216 0 0 0 -206.5249,206.52491 206.52216,206.52216 0 0 0 3.48125,37.18257 206.52216,143.74754 0 0 1 0.643,-2.9669 206.52216,143.74754 0 0 1 5.10709,-13.9251 206.52216,143.74754 0 0 1 7.07274,-13.49338 206.52216,143.74754 0 0 1 8.98336,-12.94223 206.52216,143.74754 0 0 1 10.79285,-12.24414 206.52216,143.74754 0 0 1 12.49217,-11.44506 206.52216,143.74754 0 0 1 14.07207,-10.50809 206.52216,143.74754 0 0 1 15.50496,-9.48855 206.52216,143.74754 0 0 1 16.79098,-8.35873 206.52216,143.74754 0 0 1 17.91154,-7.14625 206.52216,143.74754 0 0 1 18.8393,-5.86948 206.52216,143.74754 0 0 1 19.59251,-4.52842 206.52216,143.74754 0 0 1 20.1436,-3.15059 206.52216,143.74754 0 0 1 20.49266,-1.72686 206.52216,143.74754 0 0 1 14.60482,-0.36742 206.52216,143.74754 0 0 1 20.62123,0.72565 206.52216,143.74754 0 0 1 20.41003,2.1402 206.52216,143.74754 0 0 1 20.00581,3.55476 206.52216,143.74754 0 0 1 19.39043,4.93257 206.52216,143.74754 0 0 1 18.58209,6.24608 206.52216,143.74754 0 0 1 17.59927,7.51367 206.52216,143.74754 0 0 1 16.44188,8.69859 206.52216,143.74754 0 0 1 15.10083,9.79167 206.52216,143.74754 0 0 1 13.622,10.79286 206.52216,143.74754 0 0 1 12.01449,11.68383 206.52216,143.74754 0 0 1 10.26933,12.4646 206.52216,143.74754 0 0 1 8.43222,13.11681 206.52216,143.74754 0 0 1 6.51243,13.64035 206.52216,143.74754 0 0 1 4.04161,12.52889 206.52216,206.52216 0 0 0 3.48125,-36.8519 206.52216,206.52216 0 0 0 -206.5249,-206.52491 z"
       id="circle4385"
       inkscape:connector-curvature="0" />
    <g
       transform="matrix(1.0725433,0,0,1.0725433,2098.9697,97.741345)"
       id="g4235">
      <circle
         style="opacity:1;fill:#000000;fill-opacity:1;fill-rule:evenodd;stroke:none;stroke-width:3;stroke-linecap:round;stroke-linejoin:round;stroke-miterlimit:4;stroke-dasharray:none;stroke-dashoffset:0;stroke-opacity:1"
         id="circle4237"
         cx="-1327.4045"
         cy="334.33255"
         r="22.09322" />
      <circle
         r="22.09322"
         cy="334.33255"
         cx="-1213.2562"
         id="circle4239"
         style="opacity:1;fill:#000000;fill-opacity:1;fill-rule:evenodd;stroke:none;stroke-width:3;stroke-linecap:round;stroke-linejoin:round;stroke-miterlimit:4;stroke-dasharray:none;stroke-dashoffset:0;stroke-opacity:1" />
    </g>
    <path
       inkscape:connector-curvature="0"
       style="opacity:1;fill:#000000;fill-opacity:1;fill-rule:evenodd;stroke:none;stroke-width:3;stroke-linecap:round;stroke-linejoin:round;stroke-miterlimit:4;stroke-dasharray:none;stroke-dashoffset:0;stroke-opacity:1"
       d="m 674.97902,528.05502 a 72.731749,108.60636 0 0 0 56.03226,39.49731 72.731749,108.60636 0 0 0 56.06315,-39.49731 l -112.09541,0 z"
       id="path4241" />
    <g
       id="g6770"
       transform="translate(0,-18.665788)">
      <g
         transform="matrix(0.82432162,0,0,0.82432162,7.7296188,58.282504)"
         id="g6663">
        <path
           inkscape:connector-curvature="0"
           id="path5158"
           style="font-style:normal;font-variant:normal;font-weight:normal;font-stretch:normal;font-size:medium;line-height:89.99999762%;font-family:'Open Sans';-inkscape-font-specification:'Open Sans';text-align:center;letter-spacing:0px;word-spacing:0px;text-anchor:middle;fill:#ffffff;fill-opacity:1;stroke:none;stroke-width:1px;stroke-linecap:butt;stroke-linejoin:miter;stroke-opacity:1"
           d="m -100.30042,852.16505 27.183815,-50.95223 12.825188,0 -34.014627,62.38338 0,39.52109 -11.988756,0 0,-38.96348 -33.94492,-62.94099 12.96459,0 26.97471,50.95223 z" />
        <path
           inkscape:connector-curvature="0"
           id="path5160"
           style="font-style:normal;font-variant:normal;font-weight:normal;font-stretch:normal;font-size:medium;line-height:89.99999762%;font-family:'Open Sans';-inkscape-font-specification:'Open Sans';text-align:center;letter-spacing:0px;word-spacing:0px;text-anchor:middle;fill:#ffffff;fill-opacity:1;stroke:none;stroke-width:1px;stroke-linecap:butt;stroke-linejoin:miter;stroke-opacity:1"
           d="m -15.682072,904.51133 q -16.937611,0 -26.765608,-10.31591 -9.758295,-10.31591 -9.758295,-28.64756 0,-18.47106 9.061274,-29.34459 9.130975,-10.87353 24.465439,-10.87353 14.3586283,0 22.7228783,9.47949 8.3642497,9.40979 8.3642497,24.88365 l 0,7.31872 -52.625079,0 q 0.348511,13.45251 6.761105,20.42272 6.482296,6.97021 18.192249,6.97021 12.3372653,0 24.3957353,-5.15796 l 0,10.31591 q -6.13378,2.64869 -11.64025,3.76392 -5.43677,1.18493 -13.1736983,1.18493 z m -3.136594,-69.493 q -9.200677,0 -14.707145,5.99438 -5.436764,5.99438 -6.412593,16.58911 l 39.93931030577,0 q 0,-10.94324 -4.87915000577,-16.7285 -4.8791507,-5.85499 -13.9404223,-5.85499 z" />
        <path
           inkscape:connector-curvature="0"
           id="path5162"
           style="font-style:normal;font-variant:normal;font-weight:normal;font-stretch:normal;font-size:medium;line-height:89.99999762%;font-family:'Open Sans';-inkscape-font-specification:'Open Sans';text-align:center;letter-spacing:0px;word-spacing:0px;text-anchor:middle;fill:#ffffff;fill-opacity:1;stroke:none;stroke-width:1px;stroke-linecap:butt;stroke-linejoin:miter;stroke-opacity:1"
           d="m 81.343256,882.27636 q 0,10.66443 -7.94605,16.44969 -7.94603,5.78528 -22.30466,5.78528 -15.19507,0 -23.69873,-4.80944 l 0,-10.73412 q 5.50647,2.78807 11.77966,4.39122 6.34289,1.60316 12.19788,1.60316 9.06127,0 13.94041,-2.8578 4.87915,-2.92748 4.87915,-8.85216 0,-4.46093 -3.90332,-7.59753 -3.83361,-3.20629 -15.05565,-7.52783 -10.66442,-3.97302 -15.19506,-6.9005 -4.46093,-2.99719 -6.6914,-6.76111 -2.16077,-3.76391 -2.16077,-8.99157 0,-9.34009 7.59753,-14.70715 7.59754,-5.43676 20.84094,-5.43676 12.33727,0 24.11691,5.01856 l -4.11242,9.40977 q -11.50085,-4.73974 -20.84093,-4.73974 -8.22484,0 -12.40696,2.57899 -4.18213,2.57897 -4.18213,7.10961 0,3.06689 1.53344,5.22766 1.60315,2.16076 5.08826,4.11242 3.4851,1.95165 13.3828,5.64587 13.59191,4.94885 18.33165,9.9674 4.80945,5.01855 4.80945,12.61608 z" />
      </g>
      <g
         transform="matrix(0.82432162,0,0,0.82432162,50.688504,61.391064)"
         id="g6668">
        <path
           inkscape:connector-curvature="0"
           id="path5164"
           style="font-style:normal;font-variant:normal;font-weight:normal;font-stretch:normal;font-size:medium;line-height:89.99999762%;font-family:'Open Sans';-inkscape-font-specification:'Open Sans';text-align:center;letter-spacing:0px;word-spacing:0px;text-anchor:middle;fill:#ffffff;fill-opacity:1;stroke:none;stroke-width:1px;stroke-linecap:butt;stroke-linejoin:miter;stroke-opacity:1"
           d="m 174.29349,903.3762 -11.70995,0 -20.56212,-68.23835 q -1.46375,-4.53064 -3.276,-11.43115 -1.81226,-6.90051 -1.88196,-8.29456 -1.53345,9.20069 -4.87915,20.14391 l -19.9348,67.82015 -11.70995,0 -27.114121,-101.90447 12.546379,0 16.101182,62.94099 q 3.3457,13.2434 4.87915,23.97753 1.88196,-12.75549 5.57617,-24.95335 l 18.26195,-61.96517 12.54638,0 19.16808,62.52279 q 3.3457,10.80382 5.64587,24.39573 1.32434,-9.89769 5.01855,-24.11693 l 16.03148,-62.80159 12.54639,0 -27.25353,101.90447 z" />
        <path
           inkscape:connector-curvature="0"
           id="path5166"
           style="font-style:normal;font-variant:normal;font-weight:normal;font-stretch:normal;font-size:medium;line-height:89.99999762%;font-family:'Open Sans';-inkscape-font-specification:'Open Sans';text-align:center;letter-spacing:0px;word-spacing:0px;text-anchor:middle;fill:#ffffff;fill-opacity:1;stroke:none;stroke-width:1px;stroke-linecap:butt;stroke-linejoin:miter;stroke-opacity:1"
           d="m 248.03831,904.77024 q -16.93761,0 -26.7656,-10.3159 -9.75829,-10.31592 -9.75829,-28.64757 0,-18.47106 9.06126,-29.34459 9.13098,-10.87352 24.46544,-10.87352 14.35863,0 22.72288,9.47948 8.36427,9.40979 8.36427,24.88365 l 0,7.31872 -52.62509,0 q 0.3485,13.45251 6.7611,20.42272 6.4823,6.97021 18.19225,6.97021 12.33727,0 24.39574,-5.15796 l 0,10.31592 q -6.13379,2.64868 -11.64026,3.76391 -5.43677,1.18493 -13.1737,1.18493 z m -3.1366,-69.493 q -9.20067,0 -14.70714,5.99438 -5.43676,5.99438 -6.41258,16.58911 l 39.9393,0 q 0,-10.94323 -4.87915,-16.7285 -4.87915,-5.85499 -13.94043,-5.85499 z" />
      </g>
    </g>
    <g
       id="g6779"
       transform="translate(0,-18.665788)">
      <path
         d="m -32.433908,892.74227 q 0,13.4525 -9.758294,20.9803 -9.758295,7.5279 -26.486799,7.5279 -18.122547,0 -27.880837,-4.6701 l 0,-11.4312 q 6.27318,2.6488 13.66161,4.1822 7.388421,1.5334 14.63744,1.5334 11.849357,0 17.843737,-4.4609 5.994381,-4.5306 5.994381,-12.5464 0,-5.2973 -2.160765,-8.64298 -2.091063,-3.41545 -7.109615,-6.27324 -4.948848,-2.85778 -15.125356,-6.48229 -14.219232,-5.08825 -20.353012,-12.05847 -6.06408,-6.97021 -6.06408,-18.19225 0,-11.77966 8.85216,-18.74986 8.85217,-6.97021 23.41991,-6.97021 15.195057,0 27.950542,5.57616 l -3.694211,10.31592 q -12.61608,-5.29736 -24.53514,-5.29736 -9.409784,0 -14.707141,4.04272 -5.29736,4.04272 -5.29736,11.22204 0,5.29735 1.95166,8.71276 1.95166,3.3457 6.551993,6.20348 4.670042,2.78809 14.21923,6.2035 16.031483,5.71557 22.025864,12.26757 6.064083,6.55199 6.064083,17.00731 z"
         style="font-style:normal;font-variant:normal;font-weight:normal;font-stretch:normal;font-size:medium;line-height:89.99999762%;font-family:'Open Sans';-inkscape-font-specification:'Open Sans';text-align:center;letter-spacing:0px;word-spacing:0px;text-anchor:middle;fill:#ffffff;fill-opacity:1;stroke:none;stroke-width:1px;stroke-linecap:butt;stroke-linejoin:miter;stroke-opacity:1"
         id="path5168"
         inkscape:connector-curvature="0" />
      <path
         d="m 28.867773,921.25047 q -16.5891,0 -25.7200751,-10.1765 -9.0612737,-10.2463 -9.0612737,-28.92643 0,-19.16807 9.2006775,-29.62339 9.2703793,-10.45531 26.3473943,-10.45531 5.506467,0 11.012932,1.18494 5.506466,1.18493 8.643061,2.78808 l -3.554807,9.828 q -3.833615,-1.53345 -8.364253,-2.50928 -4.530636,-1.04553 -8.015741,-1.04553 -23.2805024,0 -23.2805024,29.69309 0,14.07983 5.6458704,21.60763 5.715572,7.5279 16.867909,7.5279 9.549188,0 19.58629,-4.1125 l 0,10.2463 q -7.667231,3.973 -19.307482,3.973 z"
         style="font-style:normal;font-variant:normal;font-weight:normal;font-stretch:normal;font-size:medium;line-height:89.99999762%;font-family:'Open Sans';-inkscape-font-specification:'Open Sans';text-align:center;letter-spacing:0px;word-spacing:0px;text-anchor:middle;fill:#ffffff;fill-opacity:1;stroke:none;stroke-width:1px;stroke-linecap:butt;stroke-linejoin:miter;stroke-opacity:1"
         id="path5170"
         inkscape:connector-curvature="0" />
      <path
         d="m 128.50561,919.85637 -2.30017,-10.8735 -0.55761,0 q -5.71558,7.1793 -11.43115,9.7583 -5.64587,2.5093 -14.14953,2.5093 -11.361443,0 -17.843738,-5.855 -6.412594,-5.8549 -6.412594,-16.6588 0,-23.14112 37.011812,-24.25635 l 12.9646,-0.41822 0,-4.73974 q 0,-8.99157 -3.90332,-13.2434 -3.83362,-4.32152 -12.33727,-4.32152 -9.549192,0 -21.607656,5.85497 l -3.554807,-8.85216 q 5.64587,-3.0669 12.337272,-4.80945 6.761101,-1.74256 13.522211,-1.74256 13.66161,0 20.21361,6.06408 6.6217,6.06409 6.6217,19.44689 l 0,52.13716 -8.57336,0 z m -26.13829,-8.1551 q 10.80382,0 16.93761,-5.9247 6.20349,-5.9247 6.20349,-16.5891 l 0,-6.90052 -11.57055,0.48791 q -13.80102,0.48792 -19.934803,4.32152 -6.064083,3.76399 -6.064083,11.77959 0,6.2732 3.763914,9.5493 3.833615,3.276 10.664422,3.276 z"
         style="font-style:normal;font-variant:normal;font-weight:normal;font-stretch:normal;font-size:medium;line-height:89.99999762%;font-family:'Open Sans';-inkscape-font-specification:'Open Sans';text-align:center;letter-spacing:0px;word-spacing:0px;text-anchor:middle;fill:#ffffff;fill-opacity:1;stroke:none;stroke-width:1px;stroke-linecap:butt;stroke-linejoin:miter;stroke-opacity:1"
         id="path5172"
         inkscape:connector-curvature="0" />
      <path
         d="m 215.87587,919.85637 0,-49.41878 q 0,-9.34008 -4.25183,-13.94041 -4.25183,-4.60035 -13.3131,-4.60035 -11.98876,0 -17.56492,6.48231 -5.57618,6.48229 -5.57618,21.39853 l 0,40.0787 -11.57054,0 0,-76.39349 9.40977,0 1.88196,10.45531 0.55762,0 q 3.5548,-5.64587 9.9674,-8.71276 6.4126,-3.13659 14.28894,-3.13659 13.80101,0 20.77123,6.69141 6.9702,6.62168 6.9702,21.25913 l 0,49.83699 -11.57055,0 z"
         style="font-style:normal;font-variant:normal;font-weight:normal;font-stretch:normal;font-size:medium;line-height:89.99999762%;font-family:'Open Sans';-inkscape-font-specification:'Open Sans';text-align:center;letter-spacing:0px;word-spacing:0px;text-anchor:middle;fill:#ffffff;fill-opacity:1;stroke:none;stroke-width:1px;stroke-linecap:butt;stroke-linejoin:miter;stroke-opacity:1"
         id="path5174"
         inkscape:connector-curvature="0" />
      <path
         d="m 266.09484,891.76647 -7.31872,0 -3.55481,-73.81456 14.42834,0 -3.55481,73.81456 z m -12.12816,20.7015 q 0,-9.4795 8.36426,-9.4795 4.04271,0 6.20348,2.4396 2.23047,2.4395 2.23047,7.0399 0,4.4609 -2.23047,6.9702 -2.23047,2.4396 -6.20348,2.4396 -3.62451,0 -5.99438,-2.1607 -2.36988,-2.2306 -2.36988,-7.2491 z"
         style="font-style:normal;font-variant:normal;font-weight:normal;font-stretch:normal;font-size:medium;line-height:89.99999762%;font-family:'Open Sans';-inkscape-font-specification:'Open Sans';text-align:center;letter-spacing:0px;word-spacing:0px;text-anchor:middle;fill:#ffffff;fill-opacity:1;stroke:none;stroke-width:1px;stroke-linecap:butt;stroke-linejoin:miter;stroke-opacity:1"
         id="path5176"
         inkscape:connector-curvature="0" />
    </g>
    <path
       style="fill:#d45500;fill-rule:evenodd;stroke:none;stroke-width:4.3848424px;stroke-linecap:butt;stroke-linejoin:miter;stroke-opacity:1"
       d="M 93.726562 49.636719 A 44.852862 44.852862 0 0 0 48.958984 92.787109 L 50.498047 94.326172 L 57.121094 100.95117 L 65.447266 86.53125 L 68.175781 91.255859 L 75.445312 78.664062 L 84.439453 87.660156 L 94.015625 78.083984 L 94.019531 78.060547 L 94.023438 78.083984 L 103.59961 87.660156 L 112.59375 78.664062 L 119.86523 91.255859 L 122.5918 86.53125 L 130.91797 100.95117 L 137.54297 94.326172 L 138.53711 93.332031 A 44.852862 44.852862 0 0 0 93.726562 49.636719 z "
       transform="matrix(4.3848424,0,0,4.3848424,-329.52754,0)"
       id="path6370" />
    <path
       inkscape:connector-curvature="0"
       id="path6429"
       d="m -1143.39,-310.17579 -122.5615,212.288044 58.5274,58.52736 29.041,29.04959 36.509,-63.22909 11.9641,20.71667 31.8757,-55.213054 39.4379,39.446464 41.99,-41.990014 0.017,-0.10277 0.017,0.10277 41.99,41.990014 39.43789,-39.446464 31.88429,55.213054 11.95558,-20.71667 36.50895,63.22909 29.04958,-29.04959 58.52734,-58.52736 -122.56148,-212.288044 -93.7431,0 -66.13235,0 -93.7346,0 z"
       style="fill:#d45500;fill-rule:evenodd;stroke:none;stroke-width:4.3848424px;stroke-linecap:butt;stroke-linejoin:miter;stroke-opacity:1" />
    <circle
       style="opacity:1;fill:#ffcc00;fill-opacity:0.38073395;fill-rule:evenodd;stroke:none;stroke-width:3;stroke-linecap:round;stroke-linejoin:round;stroke-miterlimit:4;stroke-dasharray:none;stroke-dashoffset:0;stroke-opacity:1"
       id="circle6431"
       cx="-1017.8766"
       cy="-32.28017"
       r="190.31091" />
    <path
       inkscape:connector-curvature="0"
       id="path6434"
       d="m -1700.6854,130.06217 -122.5615,212.28804 58.5274,58.52736 29.041,29.04959 36.5089,-63.22909 11.9641,20.71667 31.8758,-55.21305 39.4379,39.44646 41.99,-41.99001 0.017,-0.10277 0.017,0.10277 41.99,41.99001 39.4379,-39.44646 31.8843,55.21305 11.9556,-20.71667 36.509,63.22909 29.0495,-29.04959 58.5274,-58.52736 -122.5615,-212.28804 -93.7431,0 -66.1323,0 -93.7346,0 z"
       style="fill:#d45500;fill-rule:evenodd;stroke:none;stroke-width:4.3848424px;stroke-linecap:butt;stroke-linejoin:miter;stroke-opacity:1" />
    <circle
       style="opacity:1;fill:#ffcc00;fill-opacity:0.38073395;fill-rule:evenodd;stroke:none;stroke-width:3;stroke-linecap:round;stroke-linejoin:round;stroke-miterlimit:4;stroke-dasharray:none;stroke-dashoffset:0;stroke-opacity:1"
       id="circle6436"
       cx="-1575.172"
       cy="401.59598"
       r="196.67273" />
    <path
       style="opacity:1;fill:#ffffff;fill-opacity:1;fill-rule:evenodd;stroke:none;stroke-width:3;stroke-linecap:round;stroke-linejoin:round;stroke-miterlimit:4;stroke-dasharray:none;stroke-dashoffset:0;stroke-opacity:1"
       d="m -92.74605,920.8169 0,131.5453 35.078739,0 0,-131.5453 -35.078739,0 z m 52.618108,0 0,131.5453 17.53937,0 0,-131.5453 -17.53937,0 z m 35.0787396,0 0,131.5453 8.7696848,0 0,-131.5453 -8.7696848,0 z m 26.3090544,0 0,131.5453 17.53937,0 0,-131.5453 -17.53937,0 z m 43.848424,0 0,131.5453 17.53937,0 0,-131.5453 -17.53937,0 z m 35.078744,0 0,131.5453 35.07873,0 0,-131.5453 -35.07873,0 z m 61.38779,0 0,131.5453 8.76968,0 0,-131.5453 -8.76968,0 z m 26.30905,0 0,131.5453 35.07874,0 0,-131.5453 -35.07874,0 z m 52.61811,0 0,131.5453 17.53937,0 0,-131.5453 -17.53937,0 z"
       id="rect6674"
       inkscape:connector-curvature="0" />
  </g>
</svg>
