<?xml version="1.0" encoding="UTF-8" standalone="no"?>
<svg
   xmlns:dc="http://purl.org/dc/elements/1.1/"
   xmlns:cc="http://creativecommons.org/ns#"
   xmlns:rdf="http://www.w3.org/1999/02/22-rdf-syntax-ns#"
   xmlns:svg="http://www.w3.org/2000/svg"
   xmlns="http://www.w3.org/2000/svg"
   xmlns:sodipodi="http://sodipodi.sourceforge.net/DTD/sodipodi-0.dtd"
   xmlns:inkscape="http://www.inkscape.org/namespaces/inkscape"
   inkscape:version="1.0 (6e3e5246a0, 2020-05-07)"
   sodipodi:docname="crowdsourcing-obf-round-smartphones (2).svg"
   id="svg64"
   version="1.1"
   viewBox="0 0 1368 890"
   height="890px"
   width="1368px">
  <metadata
     id="metadata70">
    <rdf:RDF>
      <cc:Work
         rdf:about="">
        <dc:format>image/svg+xml</dc:format>
        <dc:type
           rdf:resource="http://purl.org/dc/dcmitype/StillImage" />
        <dc:title>Group</dc:title>
      </cc:Work>
    </rdf:RDF>
  </metadata>
  <defs
     id="defs68" />
  <sodipodi:namedview
     inkscape:current-layer="svg64"
     inkscape:window-maximized="1"
     inkscape:window-y="27"
     inkscape:window-x="72"
     inkscape:cy="445"
     inkscape:cx="684"
     inkscape:zoom="0.69121674"
     showgrid="false"
     id="namedview66"
     inkscape:window-height="1016"
     inkscape:window-width="1848"
     inkscape:pageshadow="2"
     inkscape:pageopacity="0"
     guidetolerance="10"
     gridtolerance="10"
     objecttolerance="10"
     borderopacity="1"
     bordercolor="#666666"
     pagecolor="#ffffff" />
  <!-- Generator: Sketch 63.1 (92452) - https://sketch.com -->
  <title
     id="title2">Group</title>
  <desc
     id="desc4">Created with Sketch.</desc>
  <path
     stroke-width="18.8117"
     stroke="#000000"
     id="path8563"
     d="M 263,515.49768 C 107.21961,539.14716 91.5131,390.89704 69,251"
     style="fill:none;fill-rule:evenodd" />
  <path
     stroke-width="18.8117"
     stroke="#000000"
     id="path8599"
     d="M 559,513.50232 C 714.78036,489.85284 730.48688,638.10295 753,778"
     style="fill:none;fill-rule:evenodd" />
  <rect
     height="132"
     width="309"
     y="758"
     x="266"
     fill="#000000"
     id="rect6788"
     style="fill-rule:evenodd;stroke:none;stroke-width:1" />
  <path
     fill="#0066ff"
     id="rect8544"
     d="M 407,436 C 280.13181,436 178,538.10805 178,664.94673 V 889 H 636 V 664.94673 C 636,538.10805 533.86819,436 407,436 Z"
     style="fill-rule:evenodd;stroke:none;stroke-width:1" />
  <rect
     ry="14.716339"
     height="237.4518"
     width="128.27856"
     y="-4.1654963"
     x="31.51054"
     transform="rotate(7.53048)"
     fill="#1a1a1a"
     id="rect4493"
     style="fill-rule:evenodd;stroke:none;stroke-width:1" />
  <rect
     height="193.7825"
     width="107.80858"
     y="17.669117"
     x="41.745712"
     transform="rotate(7.53048)"
     fill="#cccccc"
     id="rect4495"
     style="fill-rule:evenodd;stroke:none;stroke-width:1" />
  <circle
     r="174"
     cy="274"
     cx="407"
     fill="#ffcc00"
     id="path8542"
     style="fill-rule:evenodd;stroke:none;stroke-width:1" />
  <polygon
     points="77.727631,99.121808 47.168277,62.364565 96.608881,21.121807 127.16828,57.87905 "
     transform="rotate(-39,86.131292,60.275734)"
     fill-rule="nonzero"
     fill="#000000"
     fill-opacity="0"
     id="Path"
     style="stroke:none;stroke-width:1" />
  <path
     fill-rule="nonzero"
     fill="#ff9900"
     id="path26"
     d="m 57.922744,202.95268 v 0 c -10.477027,-1.62177 -17.658035,-11.43 -16.039189,-21.90735 l 11.883678,-76.91147 v 0 c 0.777389,-5.031394 3.521607,-9.547341 7.628932,-12.554362 4.107355,-3.007045 9.241399,-4.258853 14.272654,-3.480061 l 19.088952,2.954842 c 10.477089,1.621732 17.658039,11.430001 16.039249,21.907311 l -11.883703,76.9115 v 0 c -1.618823,10.47732 -11.424534,17.65616 -21.90156,16.03439 z"
     style="stroke:none;stroke-width:1" />
  <path
     stroke-linejoin="round"
     stroke="#ffab40"
     id="path28"
     d="m 57.922744,202.95268 v 0 c -10.477027,-1.62177 -17.658035,-11.43 -16.039189,-21.90735 l 11.883678,-76.91147 v 0 c 0.777389,-5.031394 3.521607,-9.547341 7.628932,-12.554362 4.107355,-3.007045 9.241399,-4.258853 14.272654,-3.480061 l 19.088952,2.954842 c 10.477089,1.621732 17.658039,11.430001 16.039249,21.907311 l -11.883703,76.9115 v 0 c -1.618823,10.47732 -11.424534,17.65616 -21.90156,16.03439 z"
     style="fill:none;fill-rule:evenodd;stroke-width:1" />
  <rect
     height="169.21854"
     width="107.80858"
     y="40.481094"
     x="42.222607"
     transform="rotate(7.53048)"
     fill="#ffffff"
     fill-opacity="0.302752"
     id="rect4505"
     style="fill-rule:evenodd;stroke:none;stroke-width:1" />
  <polygon
     points="26.937568,29.618295 134.74608,223.4008 26.937568,223.4008 "
     transform="rotate(7.53048,85.375369,123.70866)"
     fill="#ffffff"
     fill-opacity="0.498039"
     id="path4507"
     style="fill-rule:evenodd;stroke:none;stroke-width:1" />
  <g
     fill="#000000"
     transform="translate(322,250)"
     id="g8559"
     style="fill-rule:evenodd;stroke:none;stroke-width:1">
    <ellipse
       ry="23.566101"
       rx="23.760633"
       cy="23.821386"
       cx="24.300821"
       id="path8548" />
    <ellipse
       ry="23.566101"
       rx="23.760633"
       cy="23.821386"
       cx="147.06409"
       id="circle8550" />
  </g>
  <path
     fill="#000000"
     id="path8557"
     d="m 351,365 c 13.78813,24.66695 34.31622,38.96724 55.98457,39 21.67915,-0.0192 42.22042,-14.32077 56.01543,-39 z"
     style="fill-rule:evenodd;stroke:none;stroke-width:1" />
  <circle
     r="35.5"
     cy="254.5"
     cx="65.5"
     fill="#ffcc00"
     id="circle8601"
     style="fill-rule:evenodd;stroke:none;stroke-width:1" />
  <circle
     r="35.5"
     cy="767.5"
     cx="748.5"
     fill="#ffcc00"
     id="circle8603"
     style="fill-rule:evenodd;stroke:none;stroke-width:1" />
  <ellipse
     ry="259.5"
     rx="206.5"
     cy="327.5"
     cx="1057.5"
     fill="#803300"
     id="circle4376"
     style="fill-rule:evenodd;stroke:none;stroke-width:1" />
  <path
     fill="#00d400"
     id="path4231"
     d="M 1057,436 C 930.13181,436 828,538.10805 828,664.94673 V 889 h 458 V 664.94673 C 1286,538.10805 1183.8682,436 1057,436 Z"
     style="fill-rule:evenodd;stroke:none;stroke-width:1" />
  <path
     fill="#f3af53"
     id="path12201"
     d="m 1304.9435,648.46825 c -2.8588,-3.11938 -6.3525,-6.41891 -9.0928,-8.8885 -11.2983,-10.18246 -7.2263,-8.35033 -37.3093,-26.19439 -3.171,-1.8809 -11.7389,5.83217 -8.3368,7.24703 10.7186,4.45758 19.3564,13.93662 26.278,23.60668 -2.5724,0.68031 -5.2125,2.07618 -7.5515,4.10942 l -6.5027,5.65268 c -4.5173,-2.07673 -9.7366,-2.36288 -14.4077,-0.63479 -6.7147,-3.65245 -15.2141,-2.97787 -21.306,2.31775 l -12.2273,10.62897 43.5666,50.11763 12.2273,-10.62898 c 6.0919,-5.29562 7.9427,-13.6185 5.2603,-20.77621 2.3614,-4.38512 2.8044,-9.59341 1.3766,-14.35577 l 6.5027,-5.65269 c 1.48,-1.28658 2.722,-2.78598 3.6891,-4.28714 2.6418,4.34859 4.8459,7.93187 6.6612,10.02008 4.8407,5.56862 18.0436,-7.21821 16.6179,-14.44576 -0.3469,-1.75906 -2.5869,-4.71677 -5.4456,-7.83601 z"
     style="fill-rule:evenodd;stroke:none;stroke-width:1" />
  <polygon
     points="1260.6827,720.61829 1200.328,648.0463 1297.9732,566.61829 1358.328,639.19029 "
     transform="rotate(2,1296.875,633.91456)"
     fill-rule="nonzero"
     fill="#000000"
     fill-opacity="0"
     id="polygon42"
     style="stroke:none;stroke-width:1" />
  <path
     fill-rule="nonzero"
     fill="#ff9900"
     id="path55"
     d="m 1055.8625,828.97653 v 0 c -14.1125,-15.63272 -12.9397,-39.80025 2.6196,-53.97971 l 114.2171,-104.0876 v 0 c 7.4718,-6.8092 17.3298,-10.35734 27.4052,-9.86384 10.0756,0.49349 19.5433,4.98823 26.3204,12.49533 l 25.7126,28.48253 c 14.1126,15.63273 12.9397,39.80025 -2.6195,53.97972 l -114.2171,104.0876 v 0 c -15.5593,14.17946 -39.6131,13.00124 -53.7255,-2.63149 z"
     style="stroke:none;stroke-width:1" />
  <path
     stroke-linejoin="round"
     stroke="#ffab40"
     id="path57"
     d="m 1055.8625,828.97653 v 0 c -14.1125,-15.63272 -12.9397,-39.80025 2.6196,-53.97971 l 114.2171,-104.0876 v 0 c 7.4718,-6.8092 17.3298,-10.35734 27.4052,-9.86384 10.0756,0.49349 19.5433,4.98823 26.3204,12.49533 l 25.7126,28.48253 c 14.1126,15.63273 12.9397,39.80025 -2.6195,53.97972 l -114.2171,104.0876 v 0 c -15.5593,14.17946 -39.6131,13.00124 -53.7255,-2.63149 z"
     style="fill:none;fill-rule:evenodd;stroke-width:1" />
  <path
     stroke-width="18.8117"
     stroke="#000000"
     id="path4229"
     d="m 1208,514.20596 c 155.6909,-23.6382 238.9078,308.35189 2.4683,283.46"
     style="fill:none;fill-rule:evenodd" />
  <path
     stroke-width="18.8117"
     stroke="#000000"
     id="path4227"
     d="M 922.98614,509.22411 C 767.91934,485.59994 711.43056,813.56173 974.99999,661.70108"
     style="fill:none;fill-rule:evenodd" />
  <path
     fill="#00d400"
     id="path4396"
     d="M 1057.4954,436 C 979.1771,436 910.3229,474.71434 869,534 h 377 c -41.3229,-59.28566 -110.1863,-98 -188.5046,-98 z"
     style="fill-rule:evenodd;stroke:none;stroke-width:1" />
  <circle
     r="174"
     cy="274"
     cx="1057"
     fill="#ffcc00"
     id="circle4233"
     style="fill-rule:evenodd;stroke:none;stroke-width:1" />
  <rect
     ry="19.835812"
     height="225.71654"
     width="111.34624"
     y="-634.10681"
     x="1045.8009"
     transform="rotate(55.598306)"
     fill="#4d4d4d"
     id="rect4370"
     style="fill-rule:evenodd;stroke:none;stroke-width:1" />
  <ellipse
     ry="12.972214"
     rx="11.845345"
     cy="-606.1568"
     cx="1101.474"
     transform="rotate(55.598306)"
     fill="#e6e6e6"
     id="circle4372"
     style="fill-rule:evenodd;stroke:none;stroke-width:1" />
  <circle
     r="35.5"
     cy="672.5"
     cx="949.5"
     fill="#ffcc00"
     id="circle4243"
     style="fill-rule:evenodd;stroke:none;stroke-width:1" />
  <circle
     r="35.5"
     cy="797.5"
     cx="1201.5"
     fill="#ffcc00"
     id="circle4245"
     style="fill-rule:evenodd;stroke:none;stroke-width:1" />
  <path
     fill="#803300"
     id="path4392"
     d="m 1058,480.48625 c -0.193,0.006 -0.3859,0.0126 -0.5789,0.0183 -0.1404,-0.006 -0.2808,-0.012 -0.4211,-0.0183 0.1403,0.009 0.2807,0.0186 0.4211,0.0275 0.193,-0.009 0.3859,-0.0178 0.5789,-0.0275 z"
     style="fill-rule:evenodd;stroke:none;stroke-width:1" />
  <path
     fill="#aa4400"
     id="circle4385"
     d="M 1057.5,68 C 1002.7326,68 950.20806,89.78397 911.48164,128.56155 872.75522,167.33913 851,219.93302 851,274.7728 c 0.0351,12.48886 1.20016,24.94886 3.48083,37.2272 0.19947,-0.99169 0.41379,-1.98189 0.64292,-2.97046 1.36756,-4.70371 3.07185,-9.35679 5.10648,-13.94182 2.03281,-4.58251 4.39305,-9.09133 7.07188,-13.50957 2.68219,-4.42095 5.68003,-8.74561 8.98228,-12.95777 3.3018,-4.20907 6.90348,-8.30046 10.79155,-12.25883 3.88679,-3.96238 8.05555,-7.78676 12.49066,-11.4588 4.43562,-3.66814 9.13161,-7.17943 14.07038,-10.5207 4.93722,-3.34481 10.11138,-6.51541 15.50309,-9.49994 5.39265,-2.9829 10.99597,-5.77598 16.78895,-8.36876 5.79492,-2.59155 11.77218,-4.97948 17.90938,-7.15483 6.13455,-2.17644 12.4214,-4.13773 18.837,-5.87653 6.4175,-1.73795 12.9558,-3.25113 19.5902,-4.53385 6.6341,-1.28484 13.3562,-2.33761 20.1412,-3.15437 6.7844,-0.814 13.623,-1.39103 20.4901,-1.72894 4.86,-0.24265 9.7307,-0.36535 14.6031,-0.36786 6.886,0.002 13.7675,0.2449 20.6187,0.72652 6.8496,0.47675 13.6606,1.1919 20.4076,2.14277 6.7488,0.95315 13.4249,2.14098 20.0034,3.55903 6.5768,1.41986 13.0476,3.06808 19.3881,4.93849 6.3389,1.86744 12.54,3.95457 18.5799,6.25358 6.042,2.30151 11.915,4.81221 17.5971,7.52268 5.6849,2.71011 11.1718,5.61676 16.4399,8.70904 5.2643,3.09038 10.3036,6.36227 15.099,9.80342 4.7957,3.44147 9.3415,7.04791 13.6204,10.80581 4.2816,3.75728 8.291,7.66144 12.013,11.69786 3.7191,4.03795 7.146,8.20301 10.2681,12.47956 3.1228,4.27681 5.9367,8.65981 8.4312,13.13255 2.496,4.47371 4.6692,9.03165 6.5117,13.65672 1.6144,4.13727 2.9628,8.32276 4.0411,12.54393 2.2609,-12.16959 3.4258,-24.51788 3.4808,-36.89613 0,-54.83978 -21.7552,-107.43367 -60.4816,-146.21125 C 1164.7919,89.78397 1112.2674,68 1057.5,68 Z"
     style="fill-rule:evenodd;stroke:none;stroke-width:1" />
  <g
     fill="#000000"
     transform="translate(977,270)"
     id="g4235"
     style="fill-rule:evenodd;stroke:none;stroke-width:1">
    <ellipse
       ry="23.566101"
       rx="23.760633"
       cy="23.821386"
       cx="24.300821"
       id="circle4237" />
    <ellipse
       ry="23.566101"
       rx="23.760633"
       cy="23.821386"
       cx="147.06409"
       id="circle4239" />
  </g>
  <path
     fill="#000000"
     id="path4241"
     d="m 1001,365 c 13.7881,24.66695 34.3162,38.96724 55.9846,39 21.6791,-0.0192 42.2204,-14.32077 56.0154,-39 z"
     style="fill-rule:evenodd;stroke:none;stroke-width:1" />
  <g
     fill-rule="nonzero"
     fill="#ffffff"
     transform="translate(217,536)"
     id="g6770"
     style="stroke:none;stroke-width:1">
    <g
       transform="translate(0.50027,0.564122)"
       id="g6663">
      <polygon
         points="28.608247,52.059051 0.62671524,0.17543213 11.313707,0.17543213 33.549544,42.176457 55.95775,0.17543213 66.52983,0.17543213 38.490837,51.599401 38.490837,84.17749 28.608247,84.17749 "
         id="path5158" />
      <path
         id="path5160"
         d="m 103.30228,85.326627 c -9.308028,0 -16.662518,-2.834542 -22.063472,-8.503627 -5.362649,-5.669086 -8.043974,-13.540687 -8.043974,-23.614804 0,-10.150729 2.489802,-18.213856 7.469405,-24.189379 5.017906,-5.975524 11.74037,-8.963286 20.167391,-8.963286 7.89075,0 14.1344,2.604716 18.73096,7.814148 4.59655,5.171129 6.89483,12.008506 6.89483,20.512131 v 6.032979 H 83.07743 c 0.191524,7.392797 2.049299,13.004427 5.573325,16.83489 3.562331,3.830463 8.561086,5.745694 14.996265,5.745694 6.77992,0 13.48323,-1.417272 20.10993,-4.251818 v 8.503628 c -3.3708,1.455582 -6.56924,2.489809 -9.59531,3.102681 -2.98776,0.651175 -6.60755,0.976763 -10.85936,0.976763 z m -2.58557,-57.284582 c -5.056206,0 -9.097345,1.647099 -12.123412,4.941297 -2.987762,3.294198 -4.749775,7.852452 -5.286039,13.674762 H 116.2301 c 0,-6.013833 -1.34067,-10.610388 -4.02199,-13.789664 -2.68133,-3.217597 -6.51179,-4.826395 -11.4914,-4.826395 z" />
      <path
         id="path5162"
         d="m 183.28235,66.997861 c 0,5.860613 -2.18336,10.380558 -6.5501,13.559835 -4.36672,3.179287 -10.49546,4.768931 -18.38621,4.768931 -8.35042,0 -14.86221,-1.321508 -19.53538,-3.964525 v -8.848367 c 3.02607,1.532177 6.26281,2.73877 9.71023,3.619777 3.48572,0.881013 6.83738,1.32152 10.05498,1.32152 4.9796,0 8.81006,-0.785249 11.49138,-2.355747 2.68132,-1.60879 4.02199,-4.041132 4.02199,-7.297027 0,-2.451494 -1.07253,-4.539096 -3.21759,-6.262808 -2.10676,-1.762009 -6.24365,-3.83046 -12.4107,-6.205353 -5.86061,-2.183364 -10.03581,-4.079441 -12.52562,-5.688231 -2.45149,-1.647099 -4.29011,-3.504876 -5.51586,-5.573329 -1.18745,-2.068448 -1.78117,-4.539097 -1.78117,-7.411946 0,-5.132825 2.0876,-9.173966 6.26281,-12.123422 4.17521,-2.987759 9.90175,-4.481638 17.17963,-4.481638 6.77992,0 13.40662,1.378969 19.88009,4.136907 l -3.38995,7.756677 c -6.32027,-2.604713 -12.04681,-3.90707 -17.17963,-3.90707 -4.51995,0 -7.92905,0.708639 -10.22733,2.125917 -2.29828,1.417267 -3.44742,3.370802 -3.44742,5.860605 0,1.685403 0.42135,3.121827 1.26405,4.309273 0.88101,1.187441 2.27913,2.317427 4.19436,3.389957 1.91523,1.072525 5.59247,2.623863 11.03173,4.654013 7.46941,2.719629 12.50647,5.45841 15.11118,8.216343 2.64302,2.757933 3.96453,6.224502 3.96453,10.399708 z" />
    </g>
    <g
       transform="translate(219.86398,3.672682)"
       id="g6668">
      <path
         id="path5164"
         d="m 83.498414,84.390915 h -9.652765 l -16.9498,-56.250347 c -0.804401,-2.489803 -1.70456,-5.630785 -2.700478,-9.422944 -0.995923,-3.79216 -1.513037,-6.071288 -1.55134,-6.837385 -0.842704,5.056218 -2.183367,10.591238 -4.021989,16.60506 L 32.189355,84.390915 H 22.53659 L 0.18583424,0.38885724 H 10.528086 L 23.800638,52.272476 c 1.838622,7.277881 3.179285,13.86628 4.021989,19.765196 1.034227,-7.00975 2.566413,-13.866279 4.596557,-20.569585 L 47.472905,0.38885724 H 57.815157 L 73.61582,51.927745 c 1.838622,5.937215 3.389959,12.640524 4.654012,20.109927 0.727788,-5.439253 2.106755,-12.065955 4.1369,-19.880106 L 95.621827,0.38885724 h 10.342263 z" />
      <path
         id="path5166"
         d="m 144.28786,85.540052 c -9.30802,0 -16.66251,-2.83454 -22.06346,-8.503619 -5.36265,-5.669091 -8.04397,-13.540694 -8.04397,-23.614811 0,-10.15073 2.4898,-18.213856 7.46939,-24.18938 5.01791,-5.975519 11.74038,-8.963278 20.16739,-8.963278 7.89076,0 14.13441,2.604713 18.73097,7.81414 4.59656,5.171129 6.89484,12.008506 6.89484,20.512131 v 6.032979 h -43.38 c 0.19152,7.392797 2.0493,13.004427 5.57333,16.83489 3.56233,3.830463 8.56108,5.745695 14.99626,5.745695 6.77992,0 13.48323,-1.417273 20.10994,-4.251818 v 8.503635 c -3.37081,1.455577 -6.56925,2.489801 -9.59532,3.102673 -2.98777,0.651176 -6.60755,0.976763 -10.85937,0.976763 z M 141.7023,28.25547 c -5.05621,0 -9.09735,1.647099 -12.12342,4.941297 -2.98776,3.294198 -4.74977,7.852452 -5.28603,13.674762 h 32.92283 c 0,-6.013827 -1.34066,-10.610382 -4.02199,-13.789664 -2.68132,-3.217597 -6.51179,-4.826395 -11.49139,-4.826395 z" />
    </g>
  </g>
  <g
     fill-rule="nonzero"
     fill="#ffffff"
     transform="translate(229,634)"
     id="g6779"
     style="stroke:none;stroke-width:1">
    <path
       id="path5168"
       d="m 64.566092,76.74227 c 0,8.968333 -3.252765,15.961767 -9.758294,20.9803 -6.50553,5.0186 -15.334463,7.5279 -26.486799,7.5279 -12.081698,0 -21.3753103,-1.5567 -27.880837,-4.6701 v -11.4312 c 4.18212,1.765867 8.73599,3.159933 13.66161,4.1822 4.925614,1.022267 9.804761,1.5334 14.63744,1.5334 7.899571,0 13.847484,-1.486967 17.843737,-4.4609 3.996254,-3.0204 5.994381,-7.202533 5.994381,-12.5464 0,-3.531533 -0.720255,-6.412527 -2.160765,-8.64298 C 49.022523,66.937523 46.652651,64.846443 43.30695,62.94125 40.007718,61.036063 34.965933,58.8753 28.181594,56.45896 18.702106,53.066793 11.917769,49.047303 7.828582,44.40049 3.785862,39.753683 1.764502,33.6896 1.764502,26.20824 c 0,-7.853107 2.95072,-14.10306 8.85216,-18.74986 5.901447,-4.6468067 13.708083,-6.97021 23.41991,-6.97021 10.130038,0 19.446885,1.85872 27.950542,5.57616 l -3.694211,10.31592 c -8.41072,-3.531573 -16.5891,-5.29736 -24.53514,-5.29736 -6.273189,0 -11.17557,1.347573 -14.707141,4.04272 -3.531573,2.695147 -5.29736,6.435827 -5.29736,11.22204 0,3.531567 0.650553,6.43582 1.95166,8.71276 1.301107,2.230467 3.485104,4.298293 6.551993,6.20348 3.113361,1.858727 7.853105,3.92656 14.21923,6.2035 10.687655,3.81038 18.02961,7.89957 22.025864,12.26757 4.042722,4.367993 6.064083,10.037097 6.064083,17.00731 z" />
    <path
       id="path5170"
       d="m 125.86777,105.25047 c -11.0594,0 -19.63275,-3.39217 -25.72007,-10.1765 -6.040851,-6.830867 -9.061276,-16.47301 -9.061276,-28.92643 0,-12.778713 3.066893,-22.653177 9.200676,-29.62339 6.18025,-6.970207 14.96272,-10.45531 26.3474,-10.45531 3.67097,0 7.34195,0.39498 11.01293,1.18494 3.67098,0.789953 6.552,1.719313 8.64306,2.78808 l -3.55481,9.828 c -2.55574,-1.0223 -5.34383,-1.858727 -8.36425,-2.50928 -3.02043,-0.69702 -5.69234,-1.04553 -8.01574,-1.04553 -15.52034,0 -23.2805,9.897697 -23.2805,29.69309 0,9.386553 1.88195,16.589097 5.64587,21.60763 3.81038,5.0186 9.43301,7.5279 16.86791,7.5279 6.36612,0 12.89488,-1.370833 19.58628,-4.1125 v 10.2463 c -5.11148,2.64867 -11.54731,3.973 -19.30748,3.973 z" />
    <path
       id="path5172"
       d="m 225.50561,103.85637 -2.30017,-10.8735 h -0.55761 c -3.81039,4.7862 -7.62077,8.03897 -11.43115,9.7583 -3.76391,1.67287 -8.48042,2.5093 -14.14953,2.5093 -7.5743,0 -13.52221,-1.95167 -17.84374,-5.855 -4.27506,-3.903267 -6.41259,-9.4562 -6.41259,-16.6588 0,-15.427413 12.33727,-23.512863 37.01181,-24.25635 l 12.9646,-0.41822 v -4.73974 c 0,-5.99438 -1.30111,-10.408847 -3.90332,-13.2434 -2.55575,-2.881013 -6.66817,-4.32152 -12.33727,-4.32152 -6.36613,0 -13.56868,1.951657 -21.60766,5.85497 l -3.5548,-8.85216 c 3.76391,-2.0446 7.87633,-3.64775 12.33727,-4.80945 4.5074,-1.161707 9.0148,-1.74256 13.52221,-1.74256 9.10774,0 15.84561,2.02136 20.21361,6.06408 4.41447,4.042727 6.6217,10.525023 6.6217,19.44689 v 52.13716 z m -26.13829,-8.1551 c 7.20255,0 12.84842,-1.9749 16.93761,-5.9247 4.13566,-3.9498 6.20349,-9.4795 6.20349,-16.5891 v -6.90052 l -11.57055,0.48791 c -9.20068,0.32528 -15.84561,1.765787 -19.9348,4.32152 -4.04273,2.509327 -6.06409,6.435857 -6.06409,11.77959 0,4.182133 1.25464,7.365233 3.76392,9.5493 2.55574,2.184 6.11055,3.276 10.66442,3.276 z" />
    <path
       id="path5174"
       d="M 312.87587,103.85637 V 54.43759 c 0,-6.22672 -1.41728,-10.873523 -4.25183,-13.94041 -2.83455,-3.0669 -7.27225,-4.60035 -13.3131,-4.60035 -7.99251,0 -13.84748,2.16077 -17.56492,6.48231 -3.71745,4.321527 -5.57618,11.45437 -5.57618,21.39853 v 40.0787 H 260.5993 V 27.46288 h 9.40977 l 1.88196,10.45531 h 0.55762 c 2.36987,-3.763913 5.69233,-6.668167 9.9674,-8.71276 4.27507,-2.09106 9.03805,-3.13659 14.28894,-3.13659 9.20067,0 16.12442,2.23047 20.77123,6.69141 4.6468,4.414453 6.9702,11.50083 6.9702,21.25913 v 49.83699 z" />
    <path
       id="path5176"
       d="m 363.09484,75.76647 h -7.31872 L 352.22131,1.95191 h 14.42834 z m -12.12816,20.7015 c 0,-6.319667 2.78809,-9.4795 8.36426,-9.4795 2.69514,0 4.76297,0.8132 6.20348,2.4396 1.48698,1.626333 2.23047,3.972967 2.23047,7.0399 0,2.973933 -0.74349,5.29733 -2.23047,6.9702 -1.48698,1.6264 -3.55481,2.4396 -6.20348,2.4396 -2.41634,0 -4.41447,-0.72023 -5.99438,-2.1607 -1.57992,-1.48707 -2.36988,-3.903433 -2.36988,-7.2491 z" />
  </g>
  <path
     fill="#d45500"
     id="path6370"
     d="M 407.40574,55 C 301.7235,55.124721 215.01129,138.65686 211,244.2028 l 6.75223,6.74837 29.05684,29.04883 36.52884,-63.22745 11.97063,20.71613 31.89312,-55.21163 39.45938,39.44544 42.01289,-41.98892 0.0171,-0.10277 0.0171,0.10277 42.01289,41.98892 39.45938,-39.44544 31.90166,55.21163 11.9621,-20.71613 L 570.57307,280 599.63848,250.95117 604,246.59213 C 601.24753,140.03477 514.05941,55.065056 407.40574,55 Z"
     style="fill-rule:evenodd;stroke:none;stroke-width:1" />
  <path
     fill="#ffffff"
     id="rect6674"
     d="m 233,758 v 132 h 35.1 V 758 Z m 52.65,0 V 890 H 303.2 V 758 Z m 35.1,0 v 132 h 8.775 V 758 Z m 26.325,0 v 132 h 17.55 V 758 Z m 43.875,0 V 890 H 408.5 V 758 Z m 35.10001,0 V 890 H 461.15 V 758 Z m 61.42499,0 v 132 h 8.775 V 758 Z m 26.325,0 v 132 h 35.1 V 758 Z m 52.65,0 V 890 H 584 V 758 Z"
     style="fill-rule:evenodd;stroke:none;stroke-width:1" />
  <path
     fill="#f3af53"
     id="path60"
     d="m 98.104952,54.692277 c -1.992605,-0.26222 -4.271304,-0.396093 -6.022437,-0.458036 -7.220108,-0.255444 -5.179046,-0.832065 -21.573579,1.860067 -1.728137,0.283778 -2.490719,5.706324 -0.820812,5.1824 5.261189,-1.650659 11.298409,-0.83883 16.769498,0.566482 -0.728305,1.032954 -1.262801,2.346965 -1.493089,3.800944 L 84.3243,69.686406 c -2.277794,0.623605 -4.264319,2.113045 -5.436339,4.168042 -3.558478,0.72115 -6.445238,3.561679 -7.045028,7.348607 l -1.203857,7.600851 31.154754,4.934428 1.20385,-7.600851 c 0.59979,-3.786928 -1.26791,-7.380491 -4.429377,-9.165975 -0.479627,-2.316592 -1.908662,-4.347004 -3.882268,-5.643965 l 0.640233,-4.042271 c 0.14572,-0.920041 0.139856,-1.844834 0.0334,-2.686328 2.288989,0.775723 4.185088,1.406589 5.483205,1.612191 3.46162,0.548267 4.36163,-8.135641 1.63615,-10.330249 -0.66336,-0.53415 -2.38146,-0.926435 -4.374068,-1.188609 z"
     style="fill-rule:evenodd;stroke:none;stroke-width:1" />
</svg>
