<?xml version="1.0" encoding="UTF-8" standalone="no"?>
<!-- Created with Inkscape (http://www.inkscape.org/) -->

<svg
   xmlns:dc="http://purl.org/dc/elements/1.1/"
   xmlns:cc="http://creativecommons.org/ns#"
   xmlns:rdf="http://www.w3.org/1999/02/22-rdf-syntax-ns#"
   xmlns:svg="http://www.w3.org/2000/svg"
   xmlns="http://www.w3.org/2000/svg"
   xmlns:xlink="http://www.w3.org/1999/xlink"
   xmlns:sodipodi="http://sodipodi.sourceforge.net/DTD/sodipodi-0.dtd"
   xmlns:inkscape="http://www.inkscape.org/namespaces/inkscape"
   width="320"
   height="240"
   viewBox="0 0 744.09449 1052.3622"
   id="svg2"
   version="1.1"
   inkscape:version="0.91 r13725"
   sodipodi:docname="decode-labels-icon.svg">
  <defs
     id="defs4">
    <pattern
       patternUnits="userSpaceOnUse"
       width="800"
       height="651"
       patternTransform="translate(765.716,-0.44764954)"
       id="pattern58197-9">
      <image
         sodipodi:absref="C:\Users\Stéphane\Desktop\Blogs\OpenFoodFacts\co2-zoom.jpg"
         xlink:href="co2-zoom.jpg"
         width="800"
         height="651"
         id="image58194-4"
         x="0"
         y="0" />
    </pattern>
    <linearGradient
       inkscape:collect="always"
       xlink:href="#linearGradient58716-6"
       id="linearGradient58953"
       gradientUnits="userSpaceOnUse"
       x1="489.35297"
       y1="252.33604"
       x2="342.51144"
       y2="135.19319"
       gradientTransform="matrix(2.5414836,0,0,2.5414836,-820.715,-120.81706)" />
    <linearGradient
       inkscape:collect="always"
       id="linearGradient58716-6">
      <stop
         style="stop-color:#f2f2f2;stop-opacity:1;"
         offset="0"
         id="stop58718-9" />
      <stop
         style="stop-color:#f2f2f2;stop-opacity:0;"
         offset="1"
         id="stop58720-8" />
    </linearGradient>
  </defs>
  <sodipodi:namedview
     id="base"
     pagecolor="#ffffff"
     bordercolor="#666666"
     borderopacity="1.0"
     inkscape:pageopacity="0.0"
     inkscape:pageshadow="2"
     inkscape:zoom="2.3794253"
     inkscape:cx="14.054743"
     inkscape:cy="111.40046"
     inkscape:document-units="px"
     inkscape:current-layer="layer1"
     showgrid="false"
     inkscape:window-width="1600"
     inkscape:window-height="838"
     inkscape:window-x="-8"
     inkscape:window-y="-8"
     inkscape:window-maximized="1"
     showguides="false" />
  <metadata
     id="metadata7">
    <rdf:RDF>
      <cc:Work
         rdf:about="">
        <dc:format>image/svg+xml</dc:format>
        <dc:type
           rdf:resource="http://purl.org/dc/dcmitype/StillImage" />
        <dc:title />
      </cc:Work>
    </rdf:RDF>
  </metadata>
  <g
     inkscape:label="Calque 1"
     inkscape:groupmode="layer"
     id="layer1">
    <circle
       style="opacity:1;fill:#ff6600;fill-opacity:1;fill-rule:evenodd;stroke:none;stroke-width:3;stroke-linecap:round;stroke-linejoin:round;stroke-miterlimit:4;stroke-dasharray:none;stroke-dashoffset:0;stroke-opacity:1"
       id="circle6561"
       cx="386.71719"
       cy="481.75705"
       r="393.84412" />
    <g
       id="g4202"
       transform="translate(54.71579,0)">
      <rect
         style="opacity:1;fill:#ff0000;fill-opacity:1;fill-rule:evenodd;stroke:none;stroke-width:3;stroke-linecap:round;stroke-linejoin:round;stroke-miterlimit:4;stroke-dasharray:none;stroke-dashoffset:0;stroke-opacity:1"
         id="rect5858"
         width="190.75061"
         height="406.38174"
         x="-128.65503"
         y="45.48402"
         ry="69.752098" />
      <rect
         ry="145.84529"
         y="192.88223"
         x="-232.70085"
         height="849.7074"
         width="398.84222"
         id="rect5860"
         style="opacity:1;fill:#280b0b;fill-opacity:1;fill-rule:evenodd;stroke:none;stroke-width:3;stroke-linecap:round;stroke-linejoin:round;stroke-miterlimit:4;stroke-dasharray:none;stroke-dashoffset:0;stroke-opacity:1" />
      <path
         id="path5862"
         d="m -232.69372,409.64833 0,416.16571 398.83274,0 0,-416.16571 -398.83274,0 z"
         style="opacity:1;fill:#ff0000;fill-opacity:1;fill-rule:evenodd;stroke:none;stroke-width:3;stroke-linecap:round;stroke-linejoin:round;stroke-miterlimit:4;stroke-dasharray:none;stroke-dashoffset:0;stroke-opacity:1"
         inkscape:connector-curvature="0" />
    </g>
    <path
       style="opacity:1;fill:#280b0b;fill-opacity:1;fill-rule:evenodd;stroke:none;stroke-width:3;stroke-linecap:round;stroke-linejoin:round;stroke-miterlimit:4;stroke-dasharray:none;stroke-dashoffset:0;stroke-opacity:1"
       d="M 386.71386,87.914073 A 393.84412,393.84412 0 0 0 7.9168053,375.35358 l 0,213.83452 A 393.84412,393.84412 0 0 0 386.71386,875.60544 393.84412,393.84412 0 0 0 774.0552,551.09696 l 0,-139.74028 A 393.84412,393.84412 0 0 0 386.71386,87.914073 Z"
       id="rect6550"
       inkscape:connector-curvature="0" />
    <path
       style="opacity:1;fill:#ff0000;fill-opacity:1;fill-rule:evenodd;stroke:none;stroke-width:3;stroke-linecap:round;stroke-linejoin:round;stroke-miterlimit:4;stroke-dasharray:none;stroke-dashoffset:0;stroke-opacity:1"
       d="M 89.393382,223.84524 A 393.84412,393.84412 0 0 0 7.9255417,375.31863 l 0,213.89569 A 393.84412,393.84412 0 0 0 386.71386,875.60544 393.84412,393.84412 0 0 0 774.0552,551.09696 l 0,-139.74028 A 393.84412,393.84412 0 0 0 683.71983,223.84524 l -594.326448,0 z"
       id="path6552"
       inkscape:connector-curvature="0" />
    <g
       style="font-style:normal;font-variant:normal;font-weight:normal;font-stretch:normal;font-size:96.23970032px;line-height:110.00000238%;font-family:'Open Sans';-inkscape-font-specification:'Open Sans';letter-spacing:0px;word-spacing:0px;fill:#ffffff;fill-opacity:0.88990826;stroke:none;stroke-width:1px;stroke-linecap:butt;stroke-linejoin:miter;stroke-opacity:1"
       id="text4179">
      <path
         d="m 67.34931,386.27065 q -11.184106,0 -17.340063,-6.86084 -6.108966,-6.90783 -6.108966,-19.5017 0,-12.92281 6.20295,-19.97162 6.249941,-7.0488 17.762991,-7.0488 3.712372,0 7.424743,0.79886 3.712371,0.79887 5.827013,1.87968 l -2.396594,6.62588 q -2.584562,-1.03382 -5.639045,-1.69171 -3.054483,-0.70488 -5.404085,-0.70488 -15.695341,0 -15.695341,20.01861 0,9.49239 3.806355,14.56753 3.853347,5.07514 11.372074,5.07514 6.43791,0 13.204763,-2.77253 l 0,6.90783 q -5.169124,2.67855 -13.016795,2.67855 z"
         style=""
         id="path6023" />
      <path
         d="m 137.0855,359.53217 q 0,12.59387 -6.34393,19.68967 -6.34392,7.04881 -17.52803,7.04881 -6.90783,0 -12.26492,-3.24245 -5.357094,-3.24246 -8.270601,-9.30443 -2.913506,-6.06197 -2.913506,-14.1916 0,-12.59386 6.296933,-19.59568 6.296934,-7.0488 17.481044,-7.0488 10.80816,0 17.15209,7.18978 6.39092,7.18978 6.39092,19.4547 z m -39.238356,0 q 0,9.86833 3.947336,15.03746 3.94733,5.16912 11.60703,5.16912 7.6597,0 11.60703,-5.12213 3.99433,-5.16912 3.99433,-15.08445 0,-9.82133 -3.99433,-14.89647 -3.94733,-5.12213 -11.70101,-5.12213 -7.65971,0 -11.56005,5.02814 -3.900336,5.02815 -3.900336,14.99046 z"
         style="line-height:110.00000238%"
         id="path6025" />
      <path
         d="m 158.51387,385.33081 -7.80068,0 0,-73.11962 7.80068,0 0,73.11962 z"
         style="line-height:110.00000238%"
         id="path6027" />
      <path
         d="m 219.60353,359.53217 q 0,12.59387 -6.34393,19.68967 -6.34392,7.04881 -17.52803,7.04881 -6.90783,0 -12.26492,-3.24245 -5.35709,-3.24246 -8.2706,-9.30443 -2.91351,-6.06197 -2.91351,-14.1916 0,-12.59386 6.29694,-19.59568 6.29693,-7.0488 17.48104,-7.0488 10.80817,0 17.15209,7.18978 6.39092,7.18978 6.39092,19.4547 z m -39.23835,0 q 0,9.86833 3.94733,15.03746 3.94733,5.16912 11.60703,5.16912 7.6597,0 11.60704,-5.12213 3.99432,-5.16912 3.99432,-15.08445 0,-9.82133 -3.99432,-14.89647 -3.94734,-5.12213 -11.70102,-5.12213 -7.65971,0 -11.56004,5.02814 -3.90034,5.02815 -3.90034,14.99046 z"
         style="line-height:110.00000238%"
         id="path6029" />
      <path
         d="m 256.72723,332.88769 q 3.43042,0 6.15596,0.5639 l -1.08082,7.23678 q -3.19546,-0.70488 -5.63904,-0.70488 -6.24994,0 -10.71419,5.07514 -4.41725,5.07514 -4.41725,12.64086 l 0,27.63132 -7.80068,0 0,-51.50328 6.43791,0 0.89285,9.53938 0.37594,0 q 2.86651,-5.02815 6.90783,-7.75368 4.04131,-2.72554 8.88149,-2.72554 z"
         style="line-height:110.00000238%"
         id="path6031" />
      <path
         d="m 280.31725,385.33081 -7.80068,0 0,-51.50328 7.80068,0 0,51.50328 z m -8.45857,-65.45992 q 0,-2.67854 1.31578,-3.90034 1.31577,-1.26878 3.28944,-1.26878 1.87968,0 3.24245,1.26878 1.36277,1.26879 1.36277,3.90034 0,2.63156 -1.36277,3.94733 -1.36277,1.26879 -3.24245,1.26879 -1.97367,0 -3.28944,-1.26879 -1.31578,-1.31577 -1.31578,-3.94733 z"
         style="line-height:110.00000238%"
         id="path6033" />
      <path
         d="m 332.19647,385.33081 0,-33.31736 q 0,-6.29694 -2.86652,-9.39841 -2.86651,-3.10147 -8.97548,-3.10147 -8.08263,0 -11.84199,4.37025 -3.75937,4.37026 -3.75937,14.42656 l 0,27.02043 -7.80068,0 0,-51.50328 6.34393,0 1.26879,7.0488 0.37593,0 q 2.3966,-3.80635 6.71986,-5.874 4.32327,-2.11464 9.63337,-2.11464 9.30443,0 14.00363,4.51123 4.6992,4.46425 4.6992,14.33258 l 0,33.59931 -7.80067,0 z"
         style="line-height:110.00000238%"
         id="path6035" />
      <path
         d="m 398.1263,333.82753 0,4.93416 -9.53939,1.12781 q 1.31578,1.64472 2.34961,4.32327 1.03382,2.63155 1.03382,5.96799 0,7.56572 -5.16912,12.07695 -5.16913,4.51124 -14.1916,4.51124 -2.30261,0 -4.32327,-0.37594 -4.98115,2.63156 -4.98115,6.62588 0,2.11464 1.7387,3.14847 1.73871,0.98683 5.96799,0.98683 l 9.11646,0 q 8.36458,0 12.82882,3.5244 4.51124,3.52441 4.51124,10.24427 0,8.55255 -6.86084,13.01679 -6.86084,4.51124 -20.01861,4.51124 -10.10329,0 -15.60136,-3.75936 -5.45107,-3.75937 -5.45107,-10.62021 0,-4.6992 3.00749,-8.12962 3.00749,-3.43042 8.45857,-4.65221 -1.97367,-0.89285 -3.33644,-2.77253 -1.31578,-1.87968 -1.31578,-4.37026 0,-2.81952 1.50375,-4.93416 1.50374,-2.11465 4.7462,-4.08831 -3.99433,-1.64472 -6.5319,-5.59206 -2.49058,-3.94733 -2.49058,-9.02247 0,-8.45856 5.07514,-13.01679 5.07514,-4.60522 14.37957,-4.60522 4.04131,0 7.28376,0.93984 l 17.80999,0 z m -41.07105,60.14981 q 0,4.18229 3.52441,6.34393 3.5244,2.16163 10.10329,2.16163 9.82133,0 14.52054,-2.9605 4.74619,-2.9135 4.74619,-7.94165 0,-4.18229 -2.58456,-5.82702 -2.58456,-1.59773 -9.72735,-1.59773 l -9.35142,0 q -5.3101,0 -8.2706,2.53757 -2.9605,2.53757 -2.9605,7.28377 z m 4.22929,-43.65561 q 0,5.40409 3.05448,8.17662 3.05448,2.77253 8.50556,2.77253 11.41907,0 11.41907,-11.09012 0,-11.60704 -11.56005,-11.60704 -5.49806,0 -8.45856,2.9605 -2.9605,2.9605 -2.9605,8.78751 z"
         style="line-height:110.00000238%"
         id="path6037" />
      <path
         d="m 407.66566,380.34965 q 0,-3.14847 1.40976,-4.7462 1.45675,-1.64472 4.1353,-1.64472 2.72554,0 4.22928,1.64472 1.55074,1.59773 1.55074,4.7462 0,3.05448 -1.55074,4.6992 -1.55073,1.64472 -4.22928,1.64472 -2.39659,0 -3.99432,-1.45675 -1.55074,-1.50374 -1.55074,-4.88717 z m 0,-41.49397 q 0,-6.34393 5.54506,-6.34393 5.78002,0 5.78002,6.34393 0,3.05448 -1.55074,4.6992 -1.55073,1.64472 -4.22928,1.64472 -2.39659,0 -3.99432,-1.45675 -1.55074,-1.50375 -1.55074,-4.88717 z"
         style="line-height:110.00000238%"
         id="path6039" />
      <path
         d="m 498.83023,385.33081 -38.29851,0 0,-68.70237 38.29851,0 0,7.0958 -30.30987,0 0,22.13325 28.47718,0 0,7.04881 -28.47718,0 0,25.28171 30.30987,0 0,7.1428 z"
         style="line-height:110.00000238%"
         id="path6041" />
      <path
         d="m 538.25655,385.33081 -7.61271,0 0,-48.96571 q 0,-6.10897 0.37593,-11.56004 -0.98683,0.98683 -2.20862,2.06765 -1.2218,1.08081 -11.18411,9.16344 l -4.1353,-5.35709 18.18592,-14.05062 6.57889,0 0,68.70237 z"
         style="line-height:110.00000238%"
         id="path6043" />
      <path
         d="m 585.90648,343.36691 q 10.85516,0 17.05811,5.40409 6.24994,5.35709 6.24994,14.70851 0,10.66719 -6.81384,16.72916 -6.76686,6.06198 -18.70283,6.06198 -11.60704,0 -17.716,-3.71238 l 0,-7.51872 q 3.28944,2.11464 8.17661,3.33643 4.88717,1.1748 9.63337,1.1748 8.2706,0 12.82883,-3.90034 4.60522,-3.90033 4.60522,-11.27809 0,-14.37956 -17.62202,-14.37956 -4.46424,0 -11.93598,1.36277 l -4.04131,-2.58456 2.58456,-32.14256 34.16321,0 0,7.18978 -27.49034,0 -1.73871,20.62951 q 5.40409,-1.08082 10.76118,-1.08082 z"
         style="line-height:110.00000238%"
         id="path6045" />
      <path
         d="m 665.04111,350.88564 q 0,17.80998 -5.63904,26.59749 -5.59205,8.78752 -17.1521,8.78752 -11.09012,0 -16.87014,-8.97548 -5.78002,-9.02248 -5.78002,-26.40953 0,-17.95096 5.59205,-26.64449 5.59206,-8.69353 17.05811,-8.69353 11.18411,0 16.96413,9.06947 5.82701,9.06946 5.82701,26.26855 z m -37.54664,0 q 0,14.99046 3.52441,21.8513 3.5244,6.81384 11.23109,6.81384 7.80068,0 11.27809,-6.90783 3.52441,-6.95482 3.52441,-21.75731 0,-14.80249 -3.52441,-21.66333 -3.47741,-6.90783 -11.27809,-6.90783 -7.70669,0 -11.23109,6.81384 -3.52441,6.76686 -3.52441,21.75732 z"
         style="line-height:110.00000238%"
         id="path6047" />
      <path
         d="m 713.20793,378.42298 -0.42293,0 q -5.40408,7.84767 -16.16526,7.84767 -10.10329,0 -15.74233,-6.90783 -5.59206,-6.90783 -5.59206,-19.64268 0,-12.73484 5.63905,-19.78365 5.63904,-7.0488 15.69534,-7.0488 10.47922,0 16.07128,7.61271 l 0.61089,0 -0.32894,-3.71237 -0.18797,-3.61839 0,-20.95845 7.80068,0 0,73.11962 -6.34393,0 -1.03382,-6.90783 z m -15.60136,1.31577 q 7.98865,0 11.56004,-4.32327 3.61839,-4.37026 3.61839,-14.05062 l 0,-1.64472 q 0,-10.94914 -3.66538,-15.60135 -3.61839,-4.69921 -11.60703,-4.69921 -6.86084,0 -10.52622,5.35709 -3.61839,5.3101 -3.61839,15.03746 0,9.86833 3.61839,14.89647 3.61839,5.02815 10.6202,5.02815 z"
         style="line-height:110.00000238%"
         id="path6049" />
      <path
         d="m 757.85039,363.10357 0,-7.14279 23.07309,0 0,7.14279 -23.07309,0 z"
         style="line-height:110.00000238%"
         id="path6051" />
      <path
         d="m 78.439432,491.19448 -1.550738,-7.33076 -0.375936,0 q -3.853347,4.84018 -7.706695,6.57889 -3.806355,1.69171 -9.539384,1.69171 -7.659703,0 -12.029963,-3.94733 -4.323267,-3.94733 -4.323267,-11.2311 0,-15.60136 24.952773,-16.35323 l 8.74052,-0.28195 0,-3.19546 q 0,-6.06198 -2.631554,-8.92849 -2.584562,-2.91351 -8.317591,-2.91351 -6.43791,0 -14.567533,3.94734 L 48.69347,443.2626 q 3.806355,-2.06765 8.317591,-3.24245 4.558228,-1.17481 9.116456,-1.17481 9.21044,0 13.627692,4.08831 4.464244,4.08831 4.464244,13.11078 l 0,35.15005 -5.780021,0 z m -17.622016,-5.49807 q 7.283767,0 11.419066,-3.99432 4.182292,-3.99433 4.182292,-11.18411 l 0,-4.65221 -7.800679,0.32894 q -9.304424,0.32895 -13.439724,2.91351 -4.088307,2.53757 -4.088307,7.94165 0,4.22929 2.53757,6.43791 2.584562,2.20863 7.189782,2.20863 z"
         style="line-height:110.00000238%"
         id="path6053" />
      <path
         d="m 120.92024,492.13432 q -11.18411,0 -17.34007,-6.86084 -6.108962,-6.90783 -6.108962,-19.5017 0,-12.92281 6.202952,-19.97161 6.24994,-7.04881 17.76299,-7.04881 3.71237,0 7.42474,0.79886 3.71237,0.79887 5.82701,1.87969 l -2.39659,6.62587 q -2.58456,-1.03382 -5.63904,-1.69171 -3.05449,-0.70488 -5.40409,-0.70488 -15.69534,0 -15.69534,20.01861 0,9.49239 3.80635,14.56753 3.85335,5.07514 11.37208,5.07514 6.43791,0 13.20476,-2.77253 l 0,6.90783 q -5.16912,2.67855 -13.01679,2.67855 z"
         style="line-height:110.00000238%"
         id="path6055" />
      <path
         d="m 154.00263,491.19448 -7.80068,0 0,-51.50328 7.80068,0 0,51.50328 z m -8.45856,-65.45992 q 0,-2.67854 1.31577,-3.90033 1.31578,-1.26879 3.28945,-1.26879 1.87968,0 3.24245,1.26879 1.36277,1.26878 1.36277,3.90033 0,2.63156 -1.36277,3.94734 -1.36277,1.26878 -3.24245,1.26878 -1.97367,0 -3.28945,-1.26878 -1.31577,-1.31578 -1.31577,-3.94734 z"
         style="line-height:110.00000238%"
         id="path6057" />
      <path
         d="m 205.69388,484.28665 -0.42293,0 q -5.40409,7.84767 -16.16526,7.84767 -10.10329,0 -15.74234,-6.90783 -5.59205,-6.90783 -5.59205,-19.64267 0,-12.73485 5.63904,-19.78365 5.63905,-7.04881 15.69535,-7.04881 10.47922,0 16.07127,7.61271 l 0.6109,0 -0.32894,-3.71237 -0.18797,-3.61839 0,-20.95845 7.80068,0 0,73.11962 -6.34393,0 -1.03382,-6.90783 z m -15.60136,1.31577 q 7.98865,0 11.56004,-4.32326 3.61839,-4.37026 3.61839,-14.05062 l 0,-1.64472 q 0,-10.94915 -3.66538,-15.60136 -3.61839,-4.69921 -11.60704,-4.69921 -6.86083,0 -10.52621,5.3571 -3.61839,5.3101 -3.61839,15.03745 0,9.86833 3.61839,14.89648 3.61838,5.02814 10.6202,5.02814 z"
         style="line-height:110.00000238%"
         id="path6059" />
      <path
         d="m 237.4605,491.19448 -7.80068,0 0,-51.50328 7.80068,0 0,51.50328 z m -8.45857,-65.45992 q 0,-2.67854 1.31578,-3.90033 1.31577,-1.26879 3.28944,-1.26879 1.87968,0 3.24245,1.26879 1.36277,1.26878 1.36277,3.90033 0,2.63156 -1.36277,3.94734 -1.36277,1.26878 -3.24245,1.26878 -1.97367,0 -3.28944,-1.26878 -1.31578,-1.31578 -1.31578,-3.94734 z"
         style="line-height:110.00000238%"
         id="path6061" />
      <path
         d="m 277.30975,445.75317 -13.11078,0 0,45.44131 -7.80068,0 0,-45.44131 -9.21044,0 0,-3.5244 9.21044,-2.81952 0,-2.86652 q 0,-18.98478 16.58819,-18.98478 4.08831,0 9.58638,1.64472 l -2.02066,6.24994 q -4.51123,-1.45675 -7.70669,-1.45675 -4.41725,0 -6.5319,2.9605 -2.11464,2.9135 -2.11464,9.39841 l 0,3.33643 13.11078,0 0,6.06197 z m 17.19909,45.44131 -7.80068,0 0,-51.50328 7.80068,0 0,51.50328 z m -8.45857,-65.45992 q 0,-2.67854 1.31578,-3.90033 1.31578,-1.26879 3.28944,-1.26879 1.87968,0 3.24245,1.26879 1.36277,1.26878 1.36277,3.90033 0,2.63156 -1.36277,3.94734 -1.36277,1.26878 -3.24245,1.26878 -1.97366,0 -3.28944,-1.26878 -1.31578,-1.31578 -1.31578,-3.94734 z"
         style="line-height:110.00000238%"
         id="path6063" />
      <path
         d="m 332.80734,492.13432 q -11.41906,0 -18.04494,-6.95482 -6.57888,-6.95483 -6.57888,-19.31373 0,-12.45289 6.10896,-19.78365 6.15596,-7.33076 16.49421,-7.33076 9.68036,0 15.3194,6.39092 5.63905,6.34392 5.63905,16.77616 l 0,4.93416 -35.47899,0 q 0.23496,9.06946 4.55822,13.76867 4.37026,4.6992 12.26493,4.6992 8.31759,0 16.44721,-3.47741 l 0,6.95482 q -4.1353,1.7857 -7.84767,2.53757 -3.66538,0.79887 -8.8815,0.79887 z m -2.11464,-46.85107 q -6.20295,0 -9.91532,4.04132 -3.66538,4.04131 -4.32327,11.1841 l 26.92644,0 q 0,-7.37775 -3.28944,-11.27808 -3.28944,-3.94734 -9.39841,-3.94734 z"
         style="line-height:110.00000238%"
         id="path6065" />
      <path
         d="m 388.49292,438.75136 q 3.43042,0 6.15596,0.5639 l -1.08082,7.23678 q -3.19546,-0.70488 -5.63905,-0.70488 -6.24994,0 -10.71418,5.07514 -4.41725,5.07514 -4.41725,12.64086 l 0,27.63132 -7.80068,0 0,-51.50328 6.43791,0 0.89285,9.53939 0.37593,0 q 2.86652,-5.02815 6.90783,-7.75369 4.04132,-2.72554 8.8815,-2.72554 z"
         style="line-height:110.00000238%"
         id="path6067" />
      <path
         d="m 403.15443,486.21332 q 0,-3.14847 1.40976,-4.74619 1.45675,-1.64473 4.1353,-1.64473 2.72554,0 4.22928,1.64473 1.55074,1.59772 1.55074,4.74619 0,3.05448 -1.55074,4.69921 -1.55073,1.64472 -4.22928,1.64472 -2.39659,0 -3.99432,-1.45676 -1.55074,-1.50374 -1.55074,-4.88717 z m 0,-41.49397 q 0,-6.34393 5.54506,-6.34393 5.78002,0 5.78002,6.34393 0,3.05448 -1.55074,4.6992 -1.55073,1.64472 -4.22928,1.64472 -2.39659,0 -3.99432,-1.45675 -1.55074,-1.50374 -1.55074,-4.88717 z"
         style="line-height:110.00000238%"
         id="path6069" />
      <path
         d="m 478.81162,492.13432 q -5.02814,0 -9.21044,-1.83269 -4.13529,-1.87968 -6.95482,-5.73303 l -0.5639,0 q 0.5639,4.51124 0.5639,8.55255 l 0,21.19341 -7.80068,0 0,-74.62336 6.34393,0 1.08082,7.04881 0.37593,0 q 3.00749,-4.22929 7.00182,-6.10897 3.99432,-1.87968 9.16344,-1.87968 10.24427,0 15.78933,7.00181 5.59205,7.00182 5.59205,19.64268 0,12.68785 -5.68603,19.73665 -5.63905,7.00182 -15.69535,7.00182 z m -1.1278,-46.75708 q -7.89467,0 -11.41907,4.37026 -3.5244,4.37026 -3.61839,13.90964 l 0,1.73871 q 0,10.85516 3.61839,15.55436 3.61839,4.65221 11.60703,4.65221 6.67287,0 10.43224,-5.40408 3.80635,-5.40408 3.80635,-14.89648 0,-9.63337 -3.80635,-14.7555 -3.75937,-5.16912 -10.6202,-5.16912 z"
         style="line-height:110.00000238%"
         id="path6071" />
      <path
         d="m 549.11172,491.19448 0,-33.31736 q 0,-6.29693 -2.86652,-9.39841 -2.86651,-3.10147 -8.97548,-3.10147 -8.12962,0 -11.88898,4.41725 -3.71237,4.41725 -3.71237,14.47355 l 0,26.92644 -7.80068,0 0,-73.11962 7.80068,0 0,22.13325 q 0,3.99433 -0.37594,6.62588 l 0.46992,0 q 2.30261,-3.71237 6.53189,-5.82701 4.27628,-2.16164 9.72736,-2.16164 9.4454,0 14.1446,4.51124 4.7462,4.46424 4.7462,14.23859 l 0,33.59931 -7.80068,0 z"
         style="line-height:110.00000238%"
         id="path6073" />
      <path
         d="m 617.34413,465.39585 q 0,12.59386 -6.34392,19.68966 -6.34393,7.04881 -17.52804,7.04881 -6.90783,0 -12.26492,-3.24245 -5.35709,-3.24245 -8.2706,-9.30443 -2.9135,-6.06197 -2.9135,-14.19159 0,-12.59387 6.29693,-19.59568 6.29693,-7.04881 17.48104,-7.04881 10.80817,0 17.15209,7.18978 6.39092,7.18978 6.39092,19.45471 z m -39.23835,0 q 0,9.86833 3.94733,15.03745 3.94733,5.16912 11.60703,5.16912 7.6597,0 11.60704,-5.12213 3.99432,-5.16912 3.99432,-15.08444 0,-9.82134 -3.99432,-14.89648 -3.94734,-5.12213 -11.70102,-5.12213 -7.6597,0 -11.56004,5.02815 -3.90034,5.02814 -3.90034,14.99046 z"
         style="line-height:110.00000238%"
         id="path6075" />
      <path
         d="m 664.19525,477.14386 q 0,7.18978 -5.3571,11.09012 -5.35709,3.90034 -15.03745,3.90034 -10.24426,0 -15.97729,-3.24245 l 0,-7.23678 q 3.71237,1.87969 7.94165,2.9605 4.27628,1.08082 8.22361,1.08082 6.10896,0 9.39841,-1.92667 3.28944,-1.97367 3.28944,-5.96799 0,-3.00749 -2.63155,-5.12214 -2.58457,-2.16163 -10.15028,-5.07514 -7.18979,-2.67854 -10.24427,-4.65221 -3.00749,-2.02066 -4.51124,-4.55823 -1.45675,-2.53757 -1.45675,-6.06197 0,-6.29693 5.12213,-9.91532 5.12214,-3.66538 14.05062,-3.66538 8.3176,0 16.25925,3.38343 l -2.77253,6.34392 q -7.75369,-3.19546 -14.05062,-3.19546 -5.54506,0 -8.36458,1.73871 -2.81953,1.7387 -2.81953,4.79319 0,2.06765 1.03383,3.5244 1.08082,1.45675 3.43042,2.77253 2.3496,1.31578 9.02247,3.80636 9.16345,3.33643 12.35891,6.71986 3.24245,3.38343 3.24245,8.50556 z"
         style="line-height:110.00000238%"
         id="path6077" />
      <path
         d="m 700.80201,492.13432 q -5.02815,0 -9.21044,-1.83269 -4.1353,-1.87968 -6.95482,-5.73303 l -0.5639,0 q 0.5639,4.51124 0.5639,8.55255 l 0,21.19341 -7.80068,0 0,-74.62336 6.34393,0 1.08081,7.04881 0.37594,0 q 3.00749,-4.22929 7.00181,-6.10897 3.99433,-1.87968 9.16345,-1.87968 10.24427,0 15.78933,7.00181 5.59205,7.00182 5.59205,19.64268 0,12.68785 -5.68604,19.73665 -5.63904,7.00182 -15.69534,7.00182 z m -1.12781,-46.75708 q -7.89466,0 -11.41906,4.37026 -3.52441,4.37026 -3.61839,13.90964 l 0,1.73871 q 0,10.85516 3.61839,15.55436 3.61838,4.65221 11.60703,4.65221 6.67287,0 10.43223,-5.40408 3.80636,-5.40408 3.80636,-14.89648 0,-9.63337 -3.80636,-14.7555 -3.75936,-5.16912 -10.6202,-5.16912 z"
         style="line-height:110.00000238%"
         id="path6079" />
      <path
         d="m 771.10214,491.19448 0,-33.31736 q 0,-6.29693 -2.86652,-9.39841 -2.86651,-3.10147 -8.97548,-3.10147 -8.12962,0 -11.88899,4.41725 -3.71237,4.41725 -3.71237,14.47355 l 0,26.92644 -7.80068,0 0,-73.11962 7.80068,0 0,22.13325 q 0,3.99433 -0.37593,6.62588 l 0.46992,0 q 2.30261,-3.71237 6.53189,-5.82701 4.27628,-2.16164 9.72735,-2.16164 9.4454,0 14.14461,4.51124 4.74619,4.46424 4.74619,14.23859 l 0,33.59931 -7.80067,0 z"
         style="line-height:110.00000238%"
         id="path6081" />
      <path
         d="m 839.33455,465.39585 q 0,12.59386 -6.34393,19.68966 -6.34392,7.04881 -17.52803,7.04881 -6.90783,0 -12.26492,-3.24245 -5.35709,-3.24245 -8.2706,-9.30443 -2.91351,-6.06197 -2.91351,-14.19159 0,-12.59387 6.29694,-19.59568 6.29693,-7.04881 17.48104,-7.04881 10.80817,0 17.15209,7.18978 6.39092,7.18978 6.39092,19.45471 z m -39.23836,0 q 0,9.86833 3.94734,15.03745 3.94733,5.16912 11.60703,5.16912 7.6597,0 11.60703,-5.12213 3.99433,-5.16912 3.99433,-15.08444 0,-9.82134 -3.99433,-14.89648 -3.94733,-5.12213 -11.70101,-5.12213 -7.65971,0 -11.56005,5.02815 -3.90034,5.02814 -3.90034,14.99046 z"
         style="line-height:110.00000238%"
         id="path6083" />
      <path
         d="m 876.45825,438.75136 q 3.43042,0 6.15596,0.5639 l -1.08082,7.23678 q -3.19546,-0.70488 -5.63904,-0.70488 -6.24994,0 -10.71419,5.07514 -4.41725,5.07514 -4.41725,12.64086 l 0,27.63132 -7.80068,0 0,-51.50328 6.43791,0 0.89285,9.53939 0.37594,0 q 2.86651,-5.02815 6.90783,-7.75369 4.04131,-2.72554 8.88149,-2.72554 z"
         style="line-height:110.00000238%"
         id="path6085" />
      <path
         d="m 900.04831,491.19448 -7.80068,0 0,-51.50328 7.80068,0 0,51.50328 z m -8.45857,-65.45992 q 0,-2.67854 1.31578,-3.90033 1.31578,-1.26879 3.28944,-1.26879 1.87968,0 3.24245,1.26879 1.36277,1.26878 1.36277,3.90033 0,2.63156 -1.36277,3.94734 -1.36277,1.26878 -3.24245,1.26878 -1.97366,0 -3.28944,-1.26878 -1.31578,-1.31578 -1.31578,-3.94734 z"
         style="line-height:110.00000238%"
         id="path6087" />
      <path
         d="m 937.266,492.13432 q -11.18411,0 -17.34007,-6.86084 -6.10896,-6.90783 -6.10896,-19.5017 0,-12.92281 6.20295,-19.97161 6.24994,-7.04881 17.76299,-7.04881 3.71237,0 7.42474,0.79886 3.71237,0.79887 5.82702,1.87969 l -2.3966,6.62587 q -2.58456,-1.03382 -5.63904,-1.69171 -3.05449,-0.70488 -5.40409,-0.70488 -15.69534,0 -15.69534,20.01861 0,9.49239 3.80635,14.56753 3.85335,5.07514 11.37208,5.07514 6.43791,0 13.20476,-2.77253 l 0,6.90783 q -5.16912,2.67855 -13.01679,2.67855 z"
         style="line-height:110.00000238%"
         id="path6089" />
      <path
         d="m 78.439432,597.05815 -1.550738,-7.33076 -0.375936,0 q -3.853347,4.84018 -7.706695,6.57889 -3.806355,1.69171 -9.539384,1.69171 -7.659703,0 -12.029963,-3.94733 -4.323267,-3.94733 -4.323267,-11.2311 0,-15.60136 24.952773,-16.35323 l 8.74052,-0.28195 0,-3.19546 q 0,-6.06197 -2.631554,-8.92849 -2.584562,-2.9135 -8.317591,-2.9135 -6.43791,0 -14.567533,3.94733 l -2.396594,-5.96799 q 3.806355,-2.06765 8.317591,-3.24245 4.558228,-1.1748 9.116456,-1.1748 9.21044,0 13.627692,4.0883 4.464244,4.08831 4.464244,13.11078 l 0,35.15005 -5.780021,0 z m -17.622016,-5.49807 q 7.283767,0 11.419066,-3.99432 4.182292,-3.99433 4.182292,-11.18411 l 0,-4.65221 -7.800679,0.32894 q -9.304424,0.32895 -13.439724,2.91351 -4.088307,2.53757 -4.088307,7.94166 0,4.22928 2.53757,6.43791 2.584562,2.20862 7.189782,2.20862 z"
         style="line-height:110.00000238%"
         id="path6091" />
      <path
         d="m 120.92024,597.99799 q -11.18411,0 -17.34007,-6.86084 -6.108962,-6.90783 -6.108962,-19.50169 0,-12.92282 6.202952,-19.97162 6.24994,-7.04881 17.76299,-7.04881 3.71237,0 7.42474,0.79887 3.71237,0.79886 5.82701,1.87968 l -2.39659,6.62588 q -2.58456,-1.03383 -5.63904,-1.69172 -3.05449,-0.70488 -5.40409,-0.70488 -15.69534,0 -15.69534,20.01861 0,9.49239 3.80635,14.56753 3.85335,5.07515 11.37208,5.07515 6.43791,0 13.20476,-2.77254 l 0,6.90783 q -5.16912,2.67855 -13.01679,2.67855 z"
         style="line-height:110.00000238%"
         id="path6093" />
      <path
         d="m 154.00263,597.05815 -7.80068,0 0,-51.50328 7.80068,0 0,51.50328 z m -8.45856,-65.45991 q 0,-2.67855 1.31577,-3.90034 1.31578,-1.26879 3.28945,-1.26879 1.87968,0 3.24245,1.26879 1.36277,1.26878 1.36277,3.90034 0,2.63155 -1.36277,3.94733 -1.36277,1.26878 -3.24245,1.26878 -1.97367,0 -3.28945,-1.26878 -1.31577,-1.31578 -1.31577,-3.94733 z"
         style="line-height:110.00000238%"
         id="path6095" />
      <path
         d="m 205.69388,590.15032 -0.42293,0 q -5.40409,7.84767 -16.16526,7.84767 -10.10329,0 -15.74234,-6.90783 -5.59205,-6.90783 -5.59205,-19.64267 0,-12.73485 5.63904,-19.78365 5.63905,-7.04881 15.69535,-7.04881 10.47922,0 16.07127,7.61271 l 0.6109,0 -0.32894,-3.71237 -0.18797,-3.61839 0,-20.95845 7.80068,0 0,73.11962 -6.34393,0 -1.03382,-6.90783 z m -15.60136,1.31578 q 7.98865,0 11.56004,-4.32327 3.61839,-4.37026 3.61839,-14.05062 l 0,-1.64472 q 0,-10.94915 -3.66538,-15.60136 -3.61839,-4.6992 -11.60704,-4.6992 -6.86083,0 -10.52621,5.35709 -3.61839,5.3101 -3.61839,15.03745 0,9.86833 3.61839,14.89648 3.61838,5.02815 10.6202,5.02815 z"
         style="line-height:110.00000238%"
         id="path6097" />
      <path
         d="m 250.33632,574.83092 0,-7.1428 23.07309,0 0,7.1428 -23.07309,0 z"
         style="line-height:110.00000238%"
         id="path6099" />
      <path
         d="m 343.89746,583.00753 q 0,7.18978 -5.3571,11.09012 -5.35709,3.90034 -15.03745,3.90034 -10.24426,0 -15.97729,-3.24245 l 0,-7.23677 q 3.71237,1.87968 7.94165,2.96049 4.27628,1.08082 8.22361,1.08082 6.10896,0 9.39841,-1.92667 3.28944,-1.97367 3.28944,-5.96799 0,-3.00749 -2.63155,-5.12213 -2.58457,-2.16164 -10.15029,-5.07514 -7.18978,-2.67855 -10.24426,-4.65222 -3.00749,-2.02065 -4.51124,-4.55822 -1.45675,-2.53757 -1.45675,-6.06198 0,-6.29693 5.12213,-9.91532 5.12214,-3.66538 14.05062,-3.66538 8.31759,0 16.25925,3.38343 l -2.77253,6.34393 q -7.75369,-3.19546 -14.05062,-3.19546 -5.54506,0 -8.36458,1.7387 -2.81953,1.73871 -2.81953,4.79319 0,2.06765 1.03383,3.5244 1.08082,1.45676 3.43042,2.77253 2.3496,1.31578 9.02247,3.80636 9.16345,3.33643 12.35891,6.71986 3.24245,3.38343 3.24245,8.50556 z"
         style="line-height:110.00000238%"
         id="path6101" />
      <path
         d="m 398.59622,597.05815 -9.4454,-30.21588 q -0.89285,-2.77253 -3.33644,-12.59387 l -0.37593,0 q -1.87968,8.22361 -3.28945,12.68785 l -9.72735,30.1219 -9.02247,0 -14.05062,-51.50328 8.17661,0 q 4.98116,19.40772 7.56572,29.558 2.63156,10.15028 3.00749,13.67468 l 0.37594,0 q 0.51691,-2.67855 1.64472,-6.90783 1.1748,-4.27627 2.02066,-6.76685 l 9.4454,-29.558 8.45857,0 9.21044,29.558 q 2.63155,8.08263 3.57139,13.5807 l 0.37594,0 q 0.18797,-1.69172 0.98683,-5.21612 0.84586,-3.5244 9.82134,-37.92258 l 8.08263,0 -14.23859,51.50328 -9.25743,0 z"
         style="line-height:110.00000238%"
         id="path6103" />
      <path
         d="m 453.10697,597.99799 q -11.41907,0 -18.04495,-6.95482 -6.57888,-6.95482 -6.57888,-19.31373 0,-12.45289 6.10896,-19.78365 6.15596,-7.33076 16.49421,-7.33076 9.68036,0 15.3194,6.39092 5.63905,6.34393 5.63905,16.77616 l 0,4.93416 -35.47899,0 q 0.23496,9.06947 4.55823,13.76867 4.37026,4.69921 12.26492,4.69921 8.31759,0 16.44721,-3.47742 l 0,6.95483 q -4.1353,1.78569 -7.84767,2.53757 -3.66538,0.79886 -8.88149,0.79886 z m -2.11465,-46.85106 q -6.20295,0 -9.91532,4.04131 -3.66538,4.04132 -4.32326,11.18411 l 26.92644,0 q 0,-7.37775 -3.28945,-11.27809 -3.28944,-3.94733 -9.39841,-3.94733 z"
         style="line-height:110.00000238%"
         id="path6105" />
      <path
         d="m 507.05384,597.99799 q -11.41907,0 -18.04495,-6.95482 -6.57888,-6.95482 -6.57888,-19.31373 0,-12.45289 6.10896,-19.78365 6.15596,-7.33076 16.49421,-7.33076 9.68036,0 15.3194,6.39092 5.63905,6.34393 5.63905,16.77616 l 0,4.93416 -35.47899,0 q 0.23496,9.06947 4.55822,13.76867 4.37026,4.69921 12.26493,4.69921 8.31759,0 16.44721,-3.47742 l 0,6.95483 q -4.1353,1.78569 -7.84767,2.53757 -3.66538,0.79886 -8.88149,0.79886 z m -2.11465,-46.85106 q -6.20295,0 -9.91532,4.04131 -3.66538,4.04132 -4.32327,11.18411 l 26.92644,0 q 0,-7.37775 -3.28944,-11.27809 -3.28944,-3.94733 -9.39841,-3.94733 z"
         style="line-height:110.00000238%"
         id="path6107" />
      <path
         d="m 555.87857,591.56008 q 2.06765,0 3.99433,-0.28195 1.92667,-0.32894 3.05448,-0.65789 l 0,5.96799 q -1.26879,0.6109 -3.75937,0.98683 -2.44358,0.42293 -4.41725,0.42293 -14.94347,0 -14.94347,-15.74233 l 0,-30.63881 -7.37775,0 0,-3.75937 7.37775,-3.24245 3.28945,-10.99614 4.51123,0 0,11.93598 14.94347,0 0,6.06198 -14.94347,0 0,30.30986 q 0,4.65222 2.20863,7.14279 2.20862,2.49058 6.06197,2.49058 z"
         style="line-height:110.00000238%"
         id="path6109" />
      <path
         d="m 595.02295,597.99799 q -11.41906,0 -18.04494,-6.95482 -6.57889,-6.95482 -6.57889,-19.31373 0,-12.45289 6.10897,-19.78365 6.15595,-7.33076 16.4942,-7.33076 9.68036,0 15.31941,6.39092 5.63904,6.34393 5.63904,16.77616 l 0,4.93416 -35.47899,0 q 0.23496,9.06947 4.55823,13.76867 4.37026,4.69921 12.26492,4.69921 8.31759,0 16.44722,-3.47742 l 0,6.95483 q -4.1353,1.78569 -7.84767,2.53757 -3.66538,0.79886 -8.8815,0.79886 z m -2.11464,-46.85106 q -6.20295,0 -9.91532,4.04131 -3.66538,4.04132 -4.32327,11.18411 l 26.92644,0 q 0,-7.37775 -3.28944,-11.27809 -3.28945,-3.94733 -9.39841,-3.94733 z"
         style="line-height:110.00000238%"
         id="path6111" />
      <path
         d="m 662.45651,597.05815 0,-33.31736 q 0,-6.29693 -2.86652,-9.3984 -2.86651,-3.10148 -8.97548,-3.10148 -8.08263,0 -11.84199,4.37026 -3.75937,4.37026 -3.75937,14.42656 l 0,27.02042 -7.80068,0 0,-51.50328 6.34393,0 1.26879,7.04881 0.37593,0 q 2.3966,-3.80636 6.71986,-5.87401 4.32327,-2.11464 9.63337,-2.11464 9.30443,0 14.00363,4.51124 4.6992,4.46424 4.6992,14.33257 l 0,33.59931 -7.80067,0 z"
         style="line-height:110.00000238%"
         id="path6113" />
      <path
         d="m 694.03519,597.05815 -7.80068,0 0,-51.50328 7.80068,0 0,51.50328 z m -8.45857,-65.45991 q 0,-2.67855 1.31578,-3.90034 1.31577,-1.26879 3.28944,-1.26879 1.87968,0 3.24245,1.26879 1.36277,1.26878 1.36277,3.90034 0,2.63155 -1.36277,3.94733 -1.36277,1.26878 -3.24245,1.26878 -1.97367,0 -3.28944,-1.26878 -1.31578,-1.31578 -1.31578,-3.94733 z"
         style="line-height:110.00000238%"
         id="path6115" />
      <path
         d="m 745.91439,597.05815 0,-33.31736 q 0,-6.29693 -2.86651,-9.3984 -2.86652,-3.10148 -8.97548,-3.10148 -8.08263,0 -11.842,4.37026 -3.75936,4.37026 -3.75936,14.42656 l 0,27.02042 -7.80068,0 0,-51.50328 6.34393,0 1.26878,7.04881 0.37594,0 q 2.39659,-3.80636 6.71986,-5.87401 4.32327,-2.11464 9.63337,-2.11464 9.30442,0 14.00363,4.51124 4.6992,4.46424 4.6992,14.33257 l 0,33.59931 -7.80068,0 z"
         style="line-height:110.00000238%"
         id="path6117" />
      <path
         d="m 811.84419,545.55487 0,4.93417 -9.53938,1.12781 q 1.31578,1.64472 2.3496,4.32326 1.03383,2.63156 1.03383,5.96799 0,7.56572 -5.16913,12.07696 -5.16912,4.51123 -14.19159,4.51123 -2.30261,0 -4.32327,-0.37593 -4.98116,2.63155 -4.98116,6.62588 0,2.11464 1.73871,3.14846 1.7387,0.98684 5.96799,0.98684 l 9.11645,0 q 8.36459,0 12.82883,3.5244 4.51124,3.5244 4.51124,10.24426 0,8.55255 -6.86084,13.0168 -6.86084,4.51123 -20.01861,4.51123 -10.10329,0 -15.60136,-3.75936 -5.45108,-3.75936 -5.45108,-10.6202 0,-4.6992 3.00749,-8.12962 3.00749,-3.43042 8.45857,-4.65222 -1.97366,-0.89284 -3.33643,-2.77253 -1.31578,-1.87968 -1.31578,-4.37026 0,-2.81952 1.50374,-4.93416 1.50375,-2.11464 4.7462,-4.08831 -3.99432,-1.64472 -6.53189,-5.59205 -2.49058,-3.94733 -2.49058,-9.02247 0,-8.45857 5.07514,-13.0168 5.07514,-4.60522 14.37956,-4.60522 4.04132,0 7.28377,0.93984 l 17.80998,0 z m -41.07104,60.14982 q 0,4.18229 3.5244,6.34392 3.52441,2.16164 10.10329,2.16164 9.82134,0 14.52054,-2.9605 4.7462,-2.91351 4.7462,-7.94166 0,-4.18229 -2.58456,-5.82701 -2.58457,-1.59773 -9.72736,-1.59773 l -9.35141,0 q -5.3101,0 -8.2706,2.53757 -2.9605,2.53757 -2.9605,7.28377 z m 4.22928,-43.65561 q 0,5.40408 3.05449,8.17661 3.05448,2.77254 8.50556,2.77254 11.41906,0 11.41906,-11.09013 0,-11.60703 -11.56004,-11.60703 -5.49807,0 -8.45857,2.9605 -2.9605,2.9605 -2.9605,8.78751 z"
         style="line-height:110.00000238%"
         id="path6119" />
      <path
         d="m 78.439432,702.92182 -1.550738,-7.33076 -0.375936,0 q -3.853347,4.84018 -7.706695,6.57889 -3.806355,1.69171 -9.539384,1.69171 -7.659703,0 -12.029963,-3.94733 -4.323267,-3.94733 -4.323267,-11.2311 0,-15.60135 24.952773,-16.35323 l 8.74052,-0.28195 0,-3.19546 q 0,-6.06197 -2.631554,-8.92848 -2.584562,-2.91351 -8.317591,-2.91351 -6.43791,0 -14.567533,3.94733 l -2.396594,-5.96799 q 3.806355,-2.06765 8.317591,-3.24245 4.558228,-1.1748 9.116456,-1.1748 9.21044,0 13.627692,4.08831 4.464244,4.0883 4.464244,13.11078 l 0,35.15004 -5.780021,0 z m -17.622016,-5.49807 q 7.283767,0 11.419066,-3.99432 4.182292,-3.99432 4.182292,-11.1841 l 0,-4.65222 -7.800679,0.32895 q -9.304424,0.32894 -13.439724,2.9135 -4.088307,2.53757 -4.088307,7.94166 0,4.22928 2.53757,6.43791 2.584562,2.20862 7.189782,2.20862 z"
         style="line-height:110.00000238%"
         id="path6121" />
      <path
         d="m 142.48958,651.41855 0,4.93416 -9.53938,1.12781 q 1.31578,1.64472 2.3496,4.32327 1.03383,2.63155 1.03383,5.96799 0,7.56571 -5.16913,12.07695 -5.16912,4.51124 -14.19159,4.51124 -2.30261,0 -4.32327,-0.37594 -4.98116,2.63155 -4.98116,6.62588 0,2.11464 1.73871,3.14847 1.7387,0.98683 5.96799,0.98683 l 9.11645,0 q 8.36459,0 12.82883,3.5244 4.51124,3.5244 4.51124,10.24427 0,8.55255 -6.86084,13.01679 -6.86084,4.51124 -20.01861,4.51124 -10.10329,0 -15.60136,-3.75937 -5.451077,-3.75936 -5.451077,-10.6202 0,-4.6992 3.007491,-8.12962 3.00749,-3.43042 8.458566,-4.65221 -1.97366,-0.89285 -3.33643,-2.77253 -1.31578,-1.87968 -1.31578,-4.37026 0,-2.81953 1.50374,-4.93417 1.50375,-2.11464 4.7462,-4.0883 -3.99432,-1.64473 -6.53189,-5.59206 -2.490581,-3.94733 -2.490581,-9.02247 0,-8.45857 5.075141,-13.01679 5.07514,-4.60522 14.37956,-4.60522 4.04132,0 7.28377,0.93984 l 17.80998,0 z m -41.07104,60.14981 q 0,4.18229 3.5244,6.34392 3.52441,2.16164 10.10329,2.16164 9.82134,0 14.52054,-2.9605 4.7462,-2.91351 4.7462,-7.94166 0,-4.18229 -2.58456,-5.82701 -2.58457,-1.59773 -9.72736,-1.59773 l -9.35141,0 q -5.3101,0 -8.2706,2.53757 -2.9605,2.53757 -2.9605,7.28377 z m 4.22928,-43.65561 q 0,5.40409 3.05449,8.17662 3.05448,2.77253 8.50556,2.77253 11.41906,0 11.41906,-11.09012 0,-11.60704 -11.56004,-11.60704 -5.49807,0 -8.45857,2.9605 -2.9605,2.9605 -2.9605,8.78751 z"
         style="line-height:110.00000238%"
         id="path6123" />
      <path
         d="m 174.9141,703.86166 q -11.41907,0 -18.04495,-6.95482 -6.57888,-6.95482 -6.57888,-19.31373 0,-12.45289 6.10896,-19.78365 6.15596,-7.33075 16.49421,-7.33075 9.68036,0 15.3194,6.39091 5.63905,6.34393 5.63905,16.77616 l 0,4.93417 -35.47899,0 q 0.23496,9.06946 4.55822,13.76866 4.37026,4.69921 12.26493,4.69921 8.31759,0 16.44721,-3.47741 l 0,6.95482 q -4.1353,1.7857 -7.84767,2.53757 -3.66538,0.79886 -8.88149,0.79886 z m -2.11465,-46.85106 q -6.20295,0 -9.91532,4.04131 -3.66538,4.04132 -4.32327,11.18411 l 26.92644,0 q 0,-7.37775 -3.28944,-11.27809 -3.28944,-3.94733 -9.39841,-3.94733 z"
         style="line-height:110.00000238%"
         id="path6125" />
      <path
         d="m 242.34768,702.92182 0,-33.31735 q 0,-6.29694 -2.86651,-9.39841 -2.86652,-3.10148 -8.97548,-3.10148 -8.08264,0 -11.842,4.37026 -3.75936,4.37026 -3.75936,14.42656 l 0,27.02042 -7.80068,0 0,-51.50327 6.34392,0 1.26879,7.0488 0.37594,0 q 2.39659,-3.80635 6.71986,-5.874 4.32327,-2.11464 9.63337,-2.11464 9.30442,0 14.00362,4.51123 4.69921,4.46425 4.69921,14.33257 l 0,33.59931 -7.80068,0 z"
         style="line-height:110.00000238%"
         id="path6127" />
      <path
         d="m 282.76083,697.42375 q 2.06765,0 3.99433,-0.28195 1.92667,-0.32894 3.05448,-0.65789 l 0,5.96799 q -1.26878,0.6109 -3.75936,0.98684 -2.44359,0.42292 -4.41725,0.42292 -14.94347,0 -14.94347,-15.74233 l 0,-30.63881 -7.37775,0 0,-3.75936 7.37775,-3.24245 3.28944,-10.99614 4.51124,0 0,11.93598 14.94346,0 0,6.06197 -14.94346,0 0,30.30987 q 0,4.65221 2.20862,7.14279 2.20863,2.49057 6.06197,2.49057 z"
         style="line-height:110.00000238%"
         id="path6129" />
      <path
         d="m 324.01985,697.94067 q 0,-3.14847 1.40976,-4.7462 1.45675,-1.64472 4.1353,-1.64472 2.72554,0 4.22928,1.64472 1.55074,1.59773 1.55074,4.7462 0,3.05448 -1.55074,4.6992 -1.55074,1.64472 -4.22928,1.64472 -2.3966,0 -3.99433,-1.45675 -1.55073,-1.50375 -1.55073,-4.88717 z m 0,-41.49398 q 0,-6.34392 5.54506,-6.34392 5.78002,0 5.78002,6.34392 0,3.05449 -1.55074,4.69921 -1.55074,1.64472 -4.22928,1.64472 -2.3966,0 -3.99433,-1.45675 -1.55073,-1.50375 -1.55073,-4.88718 z"
         style="line-height:110.00000238%"
         id="path6131" />
      <path
         d="m 415.18439,702.92182 -38.29852,0 0,-68.70236 38.29852,0 0,7.0958 -30.30987,0 0,22.13325 28.47718,0 0,7.0488 -28.47718,0 0,25.28172 30.30987,0 0,7.14279 z"
         style="line-height:110.00000238%"
         id="path6133" />
      <path
         d="m 470.86998,663.54249 q 0,40.31917 -31.20271,40.31917 -5.45108,0 -8.64654,-0.93984 l 0,-6.71986 q 3.75936,1.22179 8.55255,1.22179 11.27809,0 17.01112,-6.95482 5.78002,-7.00181 6.29693,-21.42837 l -0.5639,0 q -2.58456,3.90034 -6.86084,5.96799 -4.27627,2.02066 -9.63337,2.02066 -9.11645,0 -14.47355,-5.45108 -5.35709,-5.45108 -5.35709,-15.22542 0,-10.71419 5.96799,-16.91713 6.01498,-6.20295 15.78933,-6.20295 7.00181,0 12.21793,3.61838 5.26311,3.5714 8.08263,10.47923 2.81952,6.86084 2.81952,16.21225 z M 447.7499,639.9055 q -6.71987,0 -10.38524,4.32326 -3.66538,4.32327 -3.66538,12.02997 0,6.76685 3.38342,10.66719 3.38343,3.85335 10.29126,3.85335 4.27628,0 7.84767,-1.73871 3.61839,-1.7387 5.68604,-4.74619 2.06765,-3.0075 2.06765,-6.29694 0,-4.93416 -1.92668,-9.11645 -1.92667,-4.1823 -5.40408,-6.57889 -3.43042,-2.39659 -7.89466,-2.39659 z"
         style="line-height:110.00000238%"
         id="path6135" />
      <path
         d="m 502.26067,660.95793 q 10.85516,0 17.05811,5.40409 6.24994,5.35709 6.24994,14.7085 0,10.6672 -6.81385,16.72917 -6.76685,6.06197 -18.70283,6.06197 -11.60703,0 -17.716,-3.71237 l 0,-7.51872 q 3.28945,2.11464 8.17662,3.33643 4.88717,1.1748 9.63337,1.1748 8.2706,0 12.82882,-3.90034 4.60522,-3.90034 4.60522,-11.27809 0,-14.37956 -17.62201,-14.37956 -4.46425,0 -11.93598,1.36277 l -4.04132,-2.58456 2.58457,-32.14256 34.16321,0 0,7.18978 -27.49034,0 -1.73871,20.62951 q 5.40409,-1.08082 10.76118,-1.08082 z"
         style="line-height:110.00000238%"
         id="path6137" />
      <path
         d="m 581.39524,668.47666 q 0,17.80998 -5.63905,26.59749 -5.59205,8.78751 -17.15209,8.78751 -11.09012,0 -16.87014,-8.97548 -5.78002,-9.02247 -5.78002,-26.40952 0,-17.95096 5.59205,-26.64449 5.59205,-8.69353 17.05811,-8.69353 11.18411,0 16.96413,9.06947 5.82701,9.06946 5.82701,26.26855 z m -37.54664,0 q 0,14.99046 3.5244,21.8513 3.5244,6.81384 11.2311,6.81384 7.80068,0 11.27809,-6.90783 3.5244,-6.95482 3.5244,-21.75731 0,-14.8025 -3.5244,-21.66333 -3.47741,-6.90783 -11.27809,-6.90783 -7.7067,0 -11.2311,6.81384 -3.5244,6.76686 -3.5244,21.75732 z"
         style="line-height:110.00000238%"
         id="path6139" />
    </g>
    <path
       id="path58917"
       d="M 156.45479,122.61486 C -0.36448578,213.15452 -63.266407,403.79523 1.7875921,567.24013 63.051037,567.324 125.21492,552.02297 182.05286,519.20761 338.87214,428.66784 401.64899,237.81051 336.59496,74.365624 275.33151,74.283028 213.2927,89.799506 156.45479,122.61486 Z"
       style="fill:url(#linearGradient58953);fill-opacity:1;stroke:none"
       inkscape:connector-curvature="0" />
    <rect
       transform="matrix(0.70710678,-0.70710678,0.70710678,0.70710678,0,0)"
       y="997.49786"
       x="-150.08298"
       height="236.45885"
       width="166.08322"
       id="rect9979"
       style="fill:#cccccc;fill-opacity:1;fill-rule:nonzero;stroke:#000000;stroke-width:7.27523232;stroke-linecap:round;stroke-linejoin:round;stroke-miterlimit:4;stroke-dasharray:none;stroke-opacity:1" />
    <path
       style="fill:#e6e6e6;fill-opacity:1;fill-rule:nonzero;stroke:#000000;stroke-width:7.27523279;stroke-linecap:round;stroke-linejoin:round;stroke-miterlimit:4;stroke-dasharray:none;stroke-opacity:1"
       d="m 818.45633,746.20822 -167.33034,166.87564 137.32,137.32004 C 853.2318,1004.4908 909.44185,947.88479 955.32165,883.07353 L 818.45633,746.20822 Z"
       id="rect9983"
       inkscape:connector-curvature="0" />
    <path
       style="fill:#e6e6e6;fill-opacity:1;fill-rule:nonzero;stroke:#000000;stroke-width:7.27523232;stroke-linecap:round;stroke-linejoin:round;stroke-miterlimit:4;stroke-dasharray:none;stroke-opacity:1"
       d="M 486.6337,63.477109 C 346.09193,29.17366 191.36432,66.896032 81.59386,176.66649 -85.675668,343.93588 -85.609899,615.25985 81.666613,782.52938 248.93585,949.79876 520.25998,949.73299 687.52936,782.45663 854.79874,615.18725 854.73312,343.86327 687.4566,176.59374 629.95767,119.09495 560.25077,81.438348 486.6337,63.469979 Z m -5.22042,54.619541 C 681.01221,171.57892 799.50901,376.82138 746.02659,576.42029 692.54418,776.01921 487.30172,894.51602 287.7028,841.0336 88.103884,787.55133 -30.392921,582.30887 23.089496,382.70996 76.571913,183.11103 281.81423,64.614228 481.41328,118.09665 Z"
       id="path9981"
       inkscape:connector-curvature="0" />
  </g>
</svg>
