<?xml version="1.0" encoding="UTF-8"?>
<svg width="1148px" height="1059px" viewBox="0 0 1148 1059" version="1.1" xmlns="http://www.w3.org/2000/svg" xmlns:xlink="http://www.w3.org/1999/xlink">
    <!-- Generator: Sketch 63.1 (92452) - https://sketch.com -->
    <title>Group</title>
    <desc>Created with Sketch.</desc>
    <defs>
        <linearGradient x1="90.2825822%" y1="90.5149158%" x2="31.0417844%" y2="30.1108528%" id="linearGradient-1">
            <stop stop-color="#F2F2F2" offset="0%"></stop>
            <stop stop-color="#F2F2F2" stop-opacity="0" offset="100%"></stop>
        </linearGradient>
    </defs>
    <g id="Page-1" stroke="none" stroke-width="1" fill="none" fill-rule="evenodd">
        <g id="Group" transform="translate(0.000000, -0.000000)">
            <path d="M237.863746,0.0840487474 C223.221255,0.46490202 206.665955,2.09552382 193.990292,3.64334478 C141.727136,10.0248584 155.760626,3.54950871 40.8240542,41.5981402 C28.7086723,45.6088336 29.4110024,85.5172467 40.8330366,79.8438935 C76.8191802,61.969573 121.203012,60.9406133 162.189388,64.8290756 C158.126363,73.0951594 155.779324,83.1640718 155.781844,93.8943412 L155.78885,123.726029 C140.104968,130.80917 127.506295,143.794344 121.416329,159.923931 C96.625247,169.1675 79.0892344,192.904956 79.0957981,220.852219 L79.1089724,276.945991 L309,277 L308.986826,220.906228 C308.980262,192.958965 291.433098,169.213267 266.637671,159.958049 C260.540128,143.825599 247.935354,130.834503 232.248143,123.743992 L232.241137,93.9123041 C232.239542,87.1224692 231.1414,80.4709997 229.414263,74.5337927 C246.776496,77.5125141 261.145244,79.8956526 270.724064,79.897903 C296.267421,79.903904 292.830404,16.3585254 270.706159,3.66136803 C265.321304,0.570988514 252.506236,-0.297130889 237.863746,0.0840487474 Z" id="path12201" fill="#F3AF53"></path>
            <path d="M136.21824,1059 L136.21824,1059 C63.3700173,1059.05944 3.93261678,1000.10274 3.46137172,927.316066 L0,393.007926 L0,393.007926 C-0.223569142,358.054631 13.4563427,324.521506 38.0329746,299.785666 C62.6097966,275.049625 96.0703421,261.13705 131.053367,261.108419 L263.781495,261 C336.630095,260.940197 396.067131,319.897246 396.538743,392.683565 L400,926.991895 L400,926.991895 C400.468599,999.778375 341.795001,1058.83175 268.94675,1058.89121 L136.21824,1059 Z" id="path55" fill="#FF9900" fill-rule="nonzero"></path>
            <circle id="circle6561" fill="#FF6600" cx="575.71719" cy="444.75705" r="393.84412"></circle>
            <path d="M575.71386,50.914073 C399.32806,51.0937393 244.570777,168.526958 196.916805,338.35358 L196.916805,552.1881 C244.950358,721.609443 399.614993,838.555002 575.71386,838.60544 C766.348898,838.435274 929.494263,701.754654 963.0552,514.09696 L963.0552,374.35668 C929.038357,187.122665 766.012878,50.9910918 575.71386,50.914073 Z" id="rect6550" fill="#280B0B"></path>
            <path d="M278.393382,186.84524 C240.409685,230.717851 212.590476,282.442185 196.925542,338.31863 L196.925542,552.21432 C244.967929,721.622151 399.625582,838.554423 575.71386,838.60544 C766.348898,838.435274 929.494263,701.754654 963.0552,514.09696 L963.0552,374.35668 C950.302904,304.883101 919.101504,240.117556 872.71983,186.84524 L278.393382,186.84524 Z" id="path6552" fill="#FF9900"></path>
            <path d="M209.931641,289 L215.952148,272.300781 L242.758789,272.300781 L248.867188,289 L257.524414,289 L233.046875,225.015625 L225.664062,225.015625 L201.230469,289 L209.931641,289 Z M240.253906,265.357422 L218.500977,265.357422 L229.355469,235.430664 L240.253906,265.357422 Z M302.963867,307.28125 L302.963867,241.451172 L295.493164,241.451172 L295.141602,246.241211 C291.889648,242.461914 287.451172,240.572266 281.826172,240.572266 C276.054688,240.572266 271.455078,242.747559 268.027344,247.098145 C264.599609,251.44873 262.885742,257.359375 262.885742,264.830078 L262.885742,264.830078 L262.885742,265.401367 C262.885742,272.78418 264.592285,278.709473 268.005371,283.177246 C271.418457,287.64502 275.996094,289.878906 281.738281,289.878906 C287.1875,289.878906 291.552734,288.121094 294.833984,284.605469 L294.833984,284.605469 L294.833984,307.28125 L302.963867,307.28125 Z M283.759766,283.243164 C279.863281,283.243164 276.765137,281.69043 274.465332,278.584961 C272.165527,275.479492 271.015625,271.202148 271.015625,265.75293 C271.015625,259.65918 272.172852,255.052246 274.487305,251.932129 C276.801758,248.812012 279.921875,247.251953 283.847656,247.251953 C288.59375,247.251953 292.255859,249.34668 294.833984,253.536133 L294.833984,253.536133 L294.833984,276.827148 C292.285156,281.104492 288.59375,283.243164 283.759766,283.243164 Z M331.44043,289.878906 C337.563477,289.878906 342.207031,288.018555 345.371094,284.297852 L345.371094,284.297852 L345.546875,289 L353.28125,289 L353.28125,241.451172 L345.151367,241.451172 L345.151367,276.036133 C343.100586,280.665039 338.969727,282.979492 332.758789,282.979492 C326.899414,282.979492 323.969727,279.375977 323.969727,272.168945 L323.969727,272.168945 L323.969727,241.451172 L315.839844,241.451172 L315.839844,272.388672 C315.869141,278.160156 317.209473,282.518066 319.86084,285.462402 C322.512207,288.406738 326.37207,289.878906 331.44043,289.878906 Z M380.307617,289.878906 C385.551758,289.878906 390.063477,287.916016 393.842773,283.990234 C394.135742,286.392578 394.516602,288.0625 394.985352,289 L394.985352,289 L403.510742,289 L403.510742,288.296875 C402.397461,285.71875 401.84082,282.24707 401.84082,277.881836 L401.84082,277.881836 L401.84082,255.99707 C401.723633,251.192383 400.112305,247.42041 397.006836,244.681152 C393.901367,241.941895 389.609375,240.572266 384.130859,240.572266 C380.673828,240.572266 377.502441,241.216797 374.616699,242.505859 C371.730957,243.794922 369.445801,245.54541 367.76123,247.757324 C366.07666,249.969238 365.234375,252.261719 365.234375,254.634766 L365.234375,254.634766 L373.408203,254.634766 C373.408203,252.554688 374.389648,250.782227 376.352539,249.317383 C378.31543,247.852539 380.74707,247.120117 383.647461,247.120117 C386.958008,247.120117 389.462891,247.962402 391.162109,249.646973 C392.861328,251.331543 393.710938,253.594727 393.710938,256.436523 L393.710938,256.436523 L393.710938,260.171875 L385.800781,260.171875 C378.974609,260.171875 373.679199,261.541504 369.914551,264.280762 C366.149902,267.02002 364.267578,270.865234 364.267578,275.816406 C364.267578,279.888672 365.769043,283.250488 368.771973,285.901855 C371.774902,288.553223 375.620117,289.878906 380.307617,289.878906 Z M381.494141,282.803711 C378.828125,282.803711 376.645508,282.085938 374.946289,280.650391 C373.24707,279.214844 372.397461,277.222656 372.397461,274.673828 C372.397461,268.84375 377.37793,265.928711 387.338867,265.928711 L387.338867,265.928711 L393.710938,265.928711 L393.710938,275.68457 C392.685547,277.793945 391.030273,279.507813 388.745117,280.826172 C386.459961,282.144531 384.042969,282.803711 381.494141,282.803711 Z M414.321289,301.744141 C416.518555,299.957031 418.342285,297.583984 419.79248,294.625 C421.242676,291.666016 421.967773,288.707031 421.967773,285.748047 L421.967773,285.748047 L421.967773,279.375977 L414.013672,279.375977 L414.013672,286.714844 C413.896484,290.787109 412.460938,294.742188 409.707031,298.580078 L409.707031,298.580078 L414.321289,301.744141 Z M458.310547,289 L464.331055,272.300781 L491.137695,272.300781 L497.246094,289 L505.90332,289 L481.425781,225.015625 L474.042969,225.015625 L449.609375,289 L458.310547,289 Z M488.632812,265.357422 L466.879883,265.357422 L477.734375,235.430664 L488.632812,265.357422 Z M521.328125,289 L521.328125,254.283203 C523.291016,249.742188 526.938477,247.47168 532.270508,247.47168 C539.038086,247.47168 542.421875,250.928711 542.421875,257.842773 L542.421875,257.842773 L542.421875,289 L550.595703,289 L550.595703,257.447266 C550.917969,254.400391 552.075195,251.976074 554.067383,250.174316 C556.05957,248.372559 558.564453,247.47168 561.582031,247.47168 C565.244141,247.47168 567.851562,248.313965 569.404297,249.998535 C570.957031,251.683105 571.733398,254.224609 571.733398,257.623047 L571.733398,257.623047 L571.733398,289 L579.863281,289 L579.863281,257.139648 C579.6875,246.094727 574.384766,240.572266 563.955078,240.572266 C560.498047,240.572266 557.502441,241.275391 554.968262,242.681641 C552.434082,244.087891 550.375977,245.933594 548.793945,248.21875 C546.391602,243.121094 541.865234,240.572266 535.214844,240.572266 C529.296875,240.572266 524.594727,242.623047 521.108398,246.724609 L521.108398,246.724609 L520.888672,241.451172 L513.198242,241.451172 L513.198242,289 L521.328125,289 Z M600.209961,289 L600.209961,254.283203 C602.172852,249.742188 605.820312,247.47168 611.152344,247.47168 C617.919922,247.47168 621.303711,250.928711 621.303711,257.842773 L621.303711,257.842773 L621.303711,289 L629.477539,289 L629.477539,257.447266 C629.799805,254.400391 630.957031,251.976074 632.949219,250.174316 C634.941406,248.372559 637.446289,247.47168 640.463867,247.47168 C644.125977,247.47168 646.733398,248.313965 648.286133,249.998535 C649.838867,251.683105 650.615234,254.224609 650.615234,257.623047 L650.615234,257.623047 L650.615234,289 L658.745117,289 L658.745117,257.139648 C658.569336,246.094727 653.266602,240.572266 642.836914,240.572266 C639.379883,240.572266 636.384277,241.275391 633.850098,242.681641 C631.315918,244.087891 629.257812,245.933594 627.675781,248.21875 C625.273438,243.121094 620.74707,240.572266 614.09668,240.572266 C608.178711,240.572266 603.476562,242.623047 599.990234,246.724609 L599.990234,246.724609 L599.770508,241.451172 L592.080078,241.451172 L592.080078,289 L600.209961,289 Z M690.517578,289.878906 C694.794922,289.878906 698.581543,288.853516 701.877441,286.802734 C705.17334,284.751953 707.70752,281.888184 709.47998,278.211426 C711.252441,274.534668 712.138672,270.381836 712.138672,265.75293 L712.138672,265.75293 L712.138672,265.181641 C712.138672,257.740234 710.13916,251.77832 706.140137,247.295898 C702.141113,242.813477 696.904297,240.572266 690.429688,240.572266 C686.240234,240.572266 682.512207,241.583008 679.245605,243.604492 C675.979004,245.625977 673.430176,248.49707 671.599121,252.217773 C669.768066,255.938477 668.852539,260.12793 668.852539,264.786133 L668.852539,264.786133 L668.852539,265.357422 C668.852539,272.740234 670.852051,278.672852 674.851074,283.155273 C678.850098,287.637695 684.072266,289.878906 690.517578,289.878906 Z M690.517578,283.243164 C686.416016,283.243164 683.14209,281.646484 680.695801,278.453125 C678.249512,275.259766 677.026367,271.026367 677.026367,265.75293 C677.026367,259.805664 678.256836,255.235352 680.717773,252.041992 C683.178711,248.848633 686.416016,247.251953 690.429688,247.251953 C694.53125,247.251953 697.819824,248.870605 700.29541,252.10791 C702.770996,255.345215 704.008789,259.571289 704.008789,264.786133 C704.008789,270.616211 702.792969,275.149902 700.361328,278.387207 C697.929688,281.624512 694.648438,283.243164 690.517578,283.243164 Z M730.463867,289 L730.463867,255.118164 C731.577148,252.833008 733.129883,250.987305 735.12207,249.581055 C737.114258,248.174805 739.428711,247.47168 742.06543,247.47168 C745.317383,247.47168 747.712402,248.291992 749.250488,249.932617 C750.788574,251.573242 751.572266,254.107422 751.601562,257.535156 L751.601562,257.535156 L751.601562,289 L759.731445,289 L759.731445,257.579102 C759.643555,246.241211 754.575195,240.572266 744.526367,240.572266 C738.666992,240.572266 733.920898,242.857422 730.288086,247.427734 L730.288086,247.427734 L730.024414,241.451172 L722.333984,241.451172 L722.333984,289 L730.463867,289 Z M776.826172,233.453125 C778.408203,233.453125 779.609375,233.013672 780.429688,232.134766 C781.25,231.255859 781.660156,230.157227 781.660156,228.838867 C781.660156,227.520508 781.25,226.407227 780.429688,225.499023 C779.609375,224.59082 778.408203,224.136719 776.826172,224.136719 C775.244141,224.136719 774.050293,224.59082 773.244629,225.499023 C772.438965,226.407227 772.036133,227.520508 772.036133,228.838867 C772.036133,230.157227 772.438965,231.255859 773.244629,232.134766 C774.050293,233.013672 775.244141,233.453125 776.826172,233.453125 Z M780.825195,289 L780.825195,241.451172 L772.695312,241.451172 L772.695312,289 L780.825195,289 Z M809.257812,289.878906 C815.380859,289.878906 820.024414,288.018555 823.188477,284.297852 L823.188477,284.297852 L823.364258,289 L831.098633,289 L831.098633,241.451172 L822.96875,241.451172 L822.96875,276.036133 C820.917969,280.665039 816.787109,282.979492 810.576172,282.979492 C804.716797,282.979492 801.787109,279.375977 801.787109,272.168945 L801.787109,272.168945 L801.787109,241.451172 L793.657227,241.451172 L793.657227,272.388672 C793.686523,278.160156 795.026855,282.518066 797.678223,285.462402 C800.32959,288.406738 804.189453,289.878906 809.257812,289.878906 Z M851.533203,289 L851.533203,254.283203 C853.496094,249.742188 857.143555,247.47168 862.475586,247.47168 C869.243164,247.47168 872.626953,250.928711 872.626953,257.842773 L872.626953,257.842773 L872.626953,289 L880.800781,289 L880.800781,257.447266 C881.123047,254.400391 882.280273,251.976074 884.272461,250.174316 C886.264648,248.372559 888.769531,247.47168 891.787109,247.47168 C895.449219,247.47168 898.056641,248.313965 899.609375,249.998535 C901.162109,251.683105 901.938477,254.224609 901.938477,257.623047 L901.938477,257.623047 L901.938477,289 L910.068359,289 L910.068359,257.139648 C909.892578,246.094727 904.589844,240.572266 894.160156,240.572266 C890.703125,240.572266 887.70752,241.275391 885.17334,242.681641 C882.63916,244.087891 880.581055,245.933594 878.999023,248.21875 C876.59668,243.121094 872.070312,240.572266 865.419922,240.572266 C859.501953,240.572266 854.799805,242.623047 851.313477,246.724609 L851.313477,246.724609 L851.09375,241.451172 L843.40332,241.451172 L843.40332,289 L851.533203,289 Z M246.230469,394 L246.230469,387.100586 L215.908203,387.100586 L215.908203,330.015625 L207.426758,330.015625 L207.426758,394 L246.230469,394 Z M269.257812,394.878906 C274.501953,394.878906 279.013672,392.916016 282.792969,388.990234 C283.085938,391.392578 283.466797,393.0625 283.935547,394 L283.935547,394 L292.460938,394 L292.460938,393.296875 C291.347656,390.71875 290.791016,387.24707 290.791016,382.881836 L290.791016,382.881836 L290.791016,360.99707 C290.673828,356.192383 289.0625,352.42041 285.957031,349.681152 C282.851562,346.941895 278.55957,345.572266 273.081055,345.572266 C269.624023,345.572266 266.452637,346.216797 263.566895,347.505859 C260.681152,348.794922 258.395996,350.54541 256.711426,352.757324 C255.026855,354.969238 254.18457,357.261719 254.18457,359.634766 L254.18457,359.634766 L262.358398,359.634766 C262.358398,357.554688 263.339844,355.782227 265.302734,354.317383 C267.265625,352.852539 269.697266,352.120117 272.597656,352.120117 C275.908203,352.120117 278.413086,352.962402 280.112305,354.646973 C281.811523,356.331543 282.661133,358.594727 282.661133,361.436523 L282.661133,361.436523 L282.661133,365.171875 L274.750977,365.171875 C267.924805,365.171875 262.629395,366.541504 258.864746,369.280762 C255.100098,372.02002 253.217773,375.865234 253.217773,380.816406 C253.217773,384.888672 254.719238,388.250488 257.722168,390.901855 C260.725098,393.553223 264.570312,394.878906 269.257812,394.878906 Z M270.444336,387.803711 C267.77832,387.803711 265.595703,387.085938 263.896484,385.650391 C262.197266,384.214844 261.347656,382.222656 261.347656,379.673828 C261.347656,373.84375 266.328125,370.928711 276.289062,370.928711 L276.289062,370.928711 L282.661133,370.928711 L282.661133,380.68457 C281.635742,382.793945 279.980469,384.507813 277.695312,385.826172 C275.410156,387.144531 272.993164,387.803711 270.444336,387.803711 Z M318.959961,394.878906 C325.083008,394.878906 329.726562,393.018555 332.890625,389.297852 L332.890625,389.297852 L333.066406,394 L340.800781,394 L340.800781,346.451172 L332.670898,346.451172 L332.670898,381.036133 C330.620117,385.665039 326.489258,387.979492 320.27832,387.979492 C314.418945,387.979492 311.489258,384.375977 311.489258,377.168945 L311.489258,377.168945 L311.489258,346.451172 L303.359375,346.451172 L303.359375,377.388672 C303.388672,383.160156 304.729004,387.518066 307.380371,390.462402 C310.031738,393.406738 313.891602,394.878906 318.959961,394.878906 Z M361.279297,394 L361.279297,360.25 C363.183594,355.708984 366.801758,353.438477 372.133789,353.438477 C373.569336,353.438477 374.902344,353.541016 376.132812,353.746094 L376.132812,353.746094 L376.132812,346.1875 C375.3125,345.777344 374.111328,345.572266 372.529297,345.572266 C367.636719,345.572266 363.857422,347.696289 361.191406,351.944336 L361.191406,351.944336 L361.05957,346.451172 L353.149414,346.451172 L353.149414,394 L361.279297,394 Z M386.503906,413.204102 C392.949219,413.204102 397.651367,409.249023 400.610352,401.338867 L400.610352,401.338867 L419.726562,346.451172 L411.025391,346.451172 L399.951172,382.09082 L388.085938,346.451172 L379.208984,346.451172 L396.171875,393.472656 L394.370117,398.306641 C393.374023,401.265625 392.106934,403.301758 390.568848,404.415039 C389.030762,405.52832 386.884766,406.084961 384.130859,406.084961 L384.130859,406.084961 L381.933594,405.90918 L381.933594,412.500977 L384.96582,413.072266 L386.503906,413.204102 Z M435.810547,394 L435.810547,326.5 L427.680664,326.5 L427.680664,394 L435.810547,394 Z M492.675781,394.878906 C499.443359,394.878906 504.848633,393.318848 508.891602,390.19873 C512.93457,387.078613 514.956055,382.925781 514.956055,377.740234 C514.956055,374.488281 514.230957,371.661133 512.780762,369.258789 C511.330566,366.856445 509.104004,364.754395 506.101074,362.952637 C503.098145,361.150879 498.937988,359.50293 493.620605,358.008789 C488.303223,356.514648 484.538574,354.866699 482.32666,353.064941 C480.114746,351.263184 479.008789,349.058594 479.008789,346.451172 C479.008789,343.199219 480.17334,340.657715 482.502441,338.82666 C484.831543,336.995605 488.076172,336.080078 492.236328,336.080078 C496.71875,336.080078 500.19043,337.186035 502.651367,339.397949 C505.112305,341.609863 506.342773,344.649414 506.342773,348.516602 L506.342773,348.516602 L514.824219,348.516602 C514.824219,344.97168 513.879395,341.705078 511.989746,338.716797 C510.100098,335.728516 507.434082,333.384766 503.991699,331.685547 C500.549316,329.986328 496.630859,329.136719 492.236328,329.136719 C485.791016,329.136719 480.554199,330.784668 476.525879,334.080566 C472.497559,337.376465 470.483398,341.543945 470.483398,346.583008 C470.483398,351.036133 472.131348,354.778809 475.427246,357.811035 C478.723145,360.843262 483.989258,363.399414 491.225586,365.479492 C496.99707,367.149414 500.981445,368.841309 503.178711,370.555176 C505.375977,372.269043 506.474609,374.693359 506.474609,377.828125 C506.474609,380.962891 505.288086,383.438477 502.915039,385.254883 C500.541992,387.071289 497.128906,387.979492 492.675781,387.979492 C487.900391,387.979492 484.084473,386.858887 481.228027,384.617676 C478.371582,382.376465 476.943359,379.322266 476.943359,375.455078 L476.943359,375.455078 L468.461914,375.455078 C468.461914,379.175781 469.494629,382.500977 471.560059,385.430664 C473.625488,388.360352 476.5625,390.66748 480.371094,392.352051 C484.179688,394.036621 488.28125,394.878906 492.675781,394.878906 Z M539.916992,394.878906 C546.040039,394.878906 550.683594,393.018555 553.847656,389.297852 L553.847656,389.297852 L554.023438,394 L561.757812,394 L561.757812,346.451172 L553.62793,346.451172 L553.62793,381.036133 C551.577148,385.665039 547.446289,387.979492 541.235352,387.979492 C535.375977,387.979492 532.446289,384.375977 532.446289,377.168945 L532.446289,377.168945 L532.446289,346.451172 L524.316406,346.451172 L524.316406,377.388672 C524.345703,383.160156 525.686035,387.518066 528.337402,390.462402 C530.98877,393.406738 534.848633,394.878906 539.916992,394.878906 Z M582.939453,394 L582.939453,326.5 L574.80957,326.5 L574.80957,394 L582.939453,394 Z M608.076172,394 L608.076172,352.735352 L618.227539,352.735352 L618.227539,346.451172 L608.076172,346.451172 L608.076172,341.441406 C608.076172,338.570313 608.793945,336.365723 610.229492,334.827637 C611.665039,333.289551 613.701172,332.520508 616.337891,332.520508 C617.890625,332.520508 619.355469,332.652344 620.732422,332.916016 L620.732422,332.916016 L621.171875,326.324219 C619.326172,325.826172 617.46582,325.577148 615.59082,325.577148 C610.610352,325.577148 606.757812,326.96875 604.033203,329.751953 C601.308594,332.535156 599.946289,336.475586 599.946289,341.573242 L599.946289,341.573242 L599.946289,346.451172 L592.431641,346.451172 L592.431641,352.735352 L599.946289,352.735352 L599.946289,394 L608.076172,394 Z M641.870117,394.878906 C647.114258,394.878906 651.625977,392.916016 655.405273,388.990234 C655.698242,391.392578 656.079102,393.0625 656.547852,394 L656.547852,394 L665.073242,394 L665.073242,393.296875 C663.959961,390.71875 663.40332,387.24707 663.40332,382.881836 L663.40332,382.881836 L663.40332,360.99707 C663.286133,356.192383 661.674805,352.42041 658.569336,349.681152 C655.463867,346.941895 651.171875,345.572266 645.693359,345.572266 C642.236328,345.572266 639.064941,346.216797 636.179199,347.505859 C633.293457,348.794922 631.008301,350.54541 629.32373,352.757324 C627.63916,354.969238 626.796875,357.261719 626.796875,359.634766 L626.796875,359.634766 L634.970703,359.634766 C634.970703,357.554688 635.952148,355.782227 637.915039,354.317383 C639.87793,352.852539 642.30957,352.120117 645.209961,352.120117 C648.520508,352.120117 651.025391,352.962402 652.724609,354.646973 C654.423828,356.331543 655.273438,358.594727 655.273438,361.436523 L655.273438,361.436523 L655.273438,365.171875 L647.363281,365.171875 C640.537109,365.171875 635.241699,366.541504 631.477051,369.280762 C627.712402,372.02002 625.830078,375.865234 625.830078,380.816406 C625.830078,384.888672 627.331543,388.250488 630.334473,390.901855 C633.337402,393.553223 637.182617,394.878906 641.870117,394.878906 Z M643.056641,387.803711 C640.390625,387.803711 638.208008,387.085938 636.508789,385.650391 C634.80957,384.214844 633.959961,382.222656 633.959961,379.673828 C633.959961,373.84375 638.94043,370.928711 648.901367,370.928711 L648.901367,370.928711 L655.273438,370.928711 L655.273438,380.68457 C654.248047,382.793945 652.592773,384.507813 650.307617,385.826172 C648.022461,387.144531 645.605469,387.803711 643.056641,387.803711 Z M690.03418,394.878906 C692.055664,394.878906 694.135742,394.585938 696.274414,394 L696.274414,394 L696.274414,387.408203 C694.633789,387.759766 693.344727,387.935547 692.407227,387.935547 C690.50293,387.935547 689.155273,387.459473 688.364258,386.507324 C687.573242,385.555176 687.177734,384.126953 687.177734,382.222656 L687.177734,382.222656 L687.177734,352.735352 L696.054688,352.735352 L696.054688,346.451172 L687.177734,346.451172 L687.177734,334.9375 L679.047852,334.9375 L679.047852,346.451172 L670.390625,346.451172 L670.390625,352.735352 L679.047852,352.735352 L679.047852,382.222656 C679.047852,386.265625 679.970703,389.385742 681.816406,391.583008 C683.662109,393.780273 686.401367,394.878906 690.03418,394.878906 Z M725.27832,394.878906 C733.24707,394.878906 739.223633,391.817383 743.208008,385.694336 L743.208008,385.694336 L738.242188,381.827148 C736.748047,383.760742 735.004883,385.313477 733.012695,386.485352 C731.020508,387.657227 728.588867,388.243164 725.717773,388.243164 C721.674805,388.243164 718.342285,386.800293 715.720215,383.914551 C713.098145,381.028809 711.728516,377.242188 711.611328,372.554688 L711.611328,372.554688 L743.823242,372.554688 L743.823242,369.170898 C743.823242,361.583008 742.109375,355.75293 738.681641,351.680664 C735.253906,347.608398 730.449219,345.572266 724.267578,345.572266 C720.488281,345.572266 716.97998,346.619629 713.742676,348.714355 C710.505371,350.809082 707.98584,353.709473 706.184082,357.415527 C704.382324,361.121582 703.481445,365.333008 703.481445,370.049805 L703.481445,370.049805 L703.481445,371.543945 C703.481445,378.633789 705.50293,384.29541 709.545898,388.528809 C713.588867,392.762207 718.833008,394.878906 725.27832,394.878906 Z M735.693359,365.875 L711.875,365.875 C712.402344,361.568359 713.779297,358.221191 716.005859,355.833496 C718.232422,353.445801 720.986328,352.251953 724.267578,352.251953 C727.666016,352.251953 730.361328,353.387207 732.353516,355.657715 C734.345703,357.928223 735.458984,361.128906 735.693359,365.259766 L735.693359,365.259766 L735.693359,365.875 Z M752.963867,406.744141 C755.161133,404.957031 756.984863,402.583984 758.435059,399.625 C759.885254,396.666016 760.610352,393.707031 760.610352,390.748047 L760.610352,390.748047 L760.610352,384.375977 L752.65625,384.375977 L752.65625,391.714844 C752.539062,395.787109 751.103516,399.742188 748.349609,403.580078 L748.349609,403.580078 L752.963867,406.744141 Z M819.057617,394.878906 C824.213867,394.878906 828.73291,394.109863 832.614746,392.571777 C836.496582,391.033691 839.521484,388.711914 841.689453,385.606445 L841.689453,385.606445 L841.689453,362.139648 L818.486328,362.139648 L818.486328,368.995117 L833.295898,368.995117 L833.295898,383.365234 C831.743164,385.035156 829.780273,386.22168 827.407227,386.924805 C825.03418,387.62793 822.265625,387.979492 819.101562,387.979492 C813.505859,387.979492 809.067383,385.862793 805.786133,381.629395 C802.504883,377.395996 800.864258,371.69043 800.864258,364.512695 L800.864258,364.512695 L800.864258,359.283203 C800.893555,351.753906 802.365723,346.004395 805.280762,342.034668 C808.195801,338.064941 812.480469,336.080078 818.134766,336.080078 C826.630859,336.080078 831.669922,340.313477 833.251953,348.780273 L833.251953,348.780273 L841.689453,348.780273 C840.78125,342.510742 838.291016,337.669434 834.21875,334.256348 C830.146484,330.843262 824.770508,329.136719 818.09082,329.136719 C809.946289,329.136719 803.625488,331.788086 799.128418,337.09082 C794.631348,342.393555 792.382812,349.864258 792.382812,359.50293 L792.382812,359.50293 L792.382812,365.083984 C792.441406,371.03125 793.57666,376.260742 795.788574,380.772461 C798.000488,385.28418 801.12793,388.763184 805.170898,391.209473 C809.213867,393.655762 813.842773,394.878906 819.057617,394.878906 Z M863.310547,394 L863.310547,326.5 L855.180664,326.5 L855.180664,394 L863.310547,394 Z M878.427734,413.204102 C884.873047,413.204102 889.575195,409.249023 892.53418,401.338867 L892.53418,401.338867 L911.650391,346.451172 L902.949219,346.451172 L891.875,382.09082 L880.009766,346.451172 L871.132812,346.451172 L888.095703,393.472656 L886.293945,398.306641 C885.297852,401.265625 884.030762,403.301758 882.492676,404.415039 C880.95459,405.52832 878.808594,406.084961 876.054688,406.084961 L876.054688,406.084961 L873.857422,405.90918 L873.857422,412.500977 L876.889648,413.072266 L878.427734,413.204102 Z M937.402344,394.878906 C940.625,394.878906 943.679199,394.146484 946.564941,392.681641 C949.450684,391.216797 951.757812,389.253906 953.486328,386.792969 C955.214844,384.332031 956.152344,381.739258 956.298828,379.014648 L956.298828,379.014648 L948.608398,379.014648 C948.374023,381.651367 947.172852,383.848633 945.004883,385.606445 C942.836914,387.364258 940.302734,388.243164 937.402344,388.243164 C933.212891,388.243164 929.990234,386.763672 927.734375,383.804688 C925.478516,380.845703 924.350586,376.626953 924.350586,371.148438 L924.350586,371.148438 L924.350586,369.610352 C924.350586,363.985352 925.48584,359.686035 927.756348,356.712402 C930.026855,353.73877 933.227539,352.251953 937.358398,352.251953 C940.43457,352.251953 943.02002,353.240723 945.114746,355.218262 C947.209473,357.195801 948.374023,359.722656 948.608398,362.798828 L948.608398,362.798828 L956.298828,362.798828 C956.064453,357.701172 954.182129,353.555664 950.651855,350.362305 C947.121582,347.168945 942.69043,345.572266 937.358398,345.572266 C933.022461,345.572266 929.265137,346.568359 926.086426,348.560547 C922.907715,350.552734 920.46875,353.350586 918.769531,356.954102 C917.070312,360.557617 916.220703,364.673828 916.220703,369.302734 L916.220703,369.302734 L916.220703,370.665039 C916.220703,378.165039 918.132324,384.075684 921.955566,388.396973 C925.778809,392.718262 930.927734,394.878906 937.402344,394.878906 Z M214.282227,499 L214.282227,465.25 C216.186523,460.708984 219.804688,458.438477 225.136719,458.438477 C226.572266,458.438477 227.905273,458.541016 229.135742,458.746094 L229.135742,458.746094 L229.135742,451.1875 C228.31543,450.777344 227.114258,450.572266 225.532227,450.572266 C220.639648,450.572266 216.860352,452.696289 214.194336,456.944336 L214.194336,456.944336 L214.0625,451.451172 L206.152344,451.451172 L206.152344,499 L214.282227,499 Z M241.44043,443.453125 C243.022461,443.453125 244.223633,443.013672 245.043945,442.134766 C245.864258,441.255859 246.274414,440.157227 246.274414,438.838867 C246.274414,437.520508 245.864258,436.407227 245.043945,435.499023 C244.223633,434.59082 243.022461,434.136719 241.44043,434.136719 C239.858398,434.136719 238.664551,434.59082 237.858887,435.499023 C237.053223,436.407227 236.650391,437.520508 236.650391,438.838867 C236.650391,440.157227 237.053223,441.255859 237.858887,442.134766 C238.664551,443.013672 239.858398,443.453125 241.44043,443.453125 Z M245.439453,499 L245.439453,451.451172 L237.30957,451.451172 L237.30957,499 L245.439453,499 Z M266.577148,499 L266.577148,465.118164 C267.69043,462.833008 269.243164,460.987305 271.235352,459.581055 C273.227539,458.174805 275.541992,457.47168 278.178711,457.47168 C281.430664,457.47168 283.825684,458.291992 285.36377,459.932617 C286.901855,461.573242 287.685547,464.107422 287.714844,467.535156 L287.714844,467.535156 L287.714844,499 L295.844727,499 L295.844727,467.579102 C295.756836,456.241211 290.688477,450.572266 280.639648,450.572266 C274.780273,450.572266 270.03418,452.857422 266.401367,457.427734 L266.401367,457.427734 L266.137695,451.451172 L258.447266,451.451172 L258.447266,499 L266.577148,499 Z M307.841797,511.744141 C310.039062,509.957031 311.862793,507.583984 313.312988,504.625 C314.763184,501.666016 315.488281,498.707031 315.488281,495.748047 L315.488281,495.748047 L315.488281,489.375977 L307.53418,489.375977 L307.53418,496.714844 C307.416992,500.787109 305.981445,504.742188 303.227539,508.580078 L303.227539,508.580078 L307.841797,511.744141 Z M372.133789,499.878906 C379.106445,499.878906 384.694824,498.040527 388.898926,494.36377 C393.103027,490.687012 395.600586,485.464844 396.391602,478.697266 L396.391602,478.697266 L387.910156,478.697266 C387.089844,483.970703 385.427246,487.669434 382.922363,489.793457 C380.41748,491.91748 376.821289,492.979492 372.133789,492.979492 C366.918945,492.979492 362.861328,490.928711 359.960938,486.827148 C357.060547,482.725586 355.610352,477.203125 355.610352,470.259766 L355.610352,470.259766 L355.610352,464.063477 C355.610352,456.709961 357.141113,451.041016 360.202637,447.056641 C363.26416,443.072266 367.490234,441.080078 372.880859,441.080078 C377.275391,441.080078 380.695801,442.222656 383.14209,444.507813 C385.588379,446.792969 387.177734,450.484375 387.910156,455.582031 L387.910156,455.582031 L396.391602,455.582031 C395.717773,448.873047 393.330078,443.621582 389.228516,439.827637 C385.126953,436.033691 379.677734,434.136719 372.880859,434.136719 C367.753906,434.136719 363.242188,435.345215 359.345703,437.762207 C355.449219,440.179199 352.438965,443.643555 350.314941,448.155273 C348.190918,452.666992 347.128906,457.896484 347.128906,463.84375 L347.128906,463.84375 L347.128906,469.996094 C347.128906,479.078125 349.406738,486.329102 353.962402,491.749023 C358.518066,497.168945 364.575195,499.878906 372.133789,499.878906 Z M426.142578,499.878906 C430.419922,499.878906 434.206543,498.853516 437.502441,496.802734 C440.79834,494.751953 443.33252,491.888184 445.10498,488.211426 C446.877441,484.534668 447.763672,480.381836 447.763672,475.75293 L447.763672,475.75293 L447.763672,475.181641 C447.763672,467.740234 445.76416,461.77832 441.765137,457.295898 C437.766113,452.813477 432.529297,450.572266 426.054688,450.572266 C421.865234,450.572266 418.137207,451.583008 414.870605,453.604492 C411.604004,455.625977 409.055176,458.49707 407.224121,462.217773 C405.393066,465.938477 404.477539,470.12793 404.477539,474.786133 L404.477539,474.786133 L404.477539,475.357422 C404.477539,482.740234 406.477051,488.672852 410.476074,493.155273 C414.475098,497.637695 419.697266,499.878906 426.142578,499.878906 Z M426.142578,493.243164 C422.041016,493.243164 418.76709,491.646484 416.320801,488.453125 C413.874512,485.259766 412.651367,481.026367 412.651367,475.75293 C412.651367,469.805664 413.881836,465.235352 416.342773,462.041992 C418.803711,458.848633 422.041016,457.251953 426.054688,457.251953 C430.15625,457.251953 433.444824,458.870605 435.92041,462.10791 C438.395996,465.345215 439.633789,469.571289 439.633789,474.786133 C439.633789,480.616211 438.417969,485.149902 435.986328,488.387207 C433.554688,491.624512 430.273438,493.243164 426.142578,493.243164 Z M477.03125,499.878906 C480.253906,499.878906 483.308105,499.146484 486.193848,497.681641 C489.07959,496.216797 491.386719,494.253906 493.115234,491.792969 C494.84375,489.332031 495.78125,486.739258 495.927734,484.014648 L495.927734,484.014648 L488.237305,484.014648 C488.00293,486.651367 486.801758,488.848633 484.633789,490.606445 C482.46582,492.364258 479.931641,493.243164 477.03125,493.243164 C472.841797,493.243164 469.619141,491.763672 467.363281,488.804688 C465.107422,485.845703 463.979492,481.626953 463.979492,476.148438 L463.979492,476.148438 L463.979492,474.610352 C463.979492,468.985352 465.114746,464.686035 467.385254,461.712402 C469.655762,458.73877 472.856445,457.251953 476.987305,457.251953 C480.063477,457.251953 482.648926,458.240723 484.743652,460.218262 C486.838379,462.195801 488.00293,464.722656 488.237305,467.798828 L488.237305,467.798828 L495.927734,467.798828 C495.693359,462.701172 493.811035,458.555664 490.280762,455.362305 C486.750488,452.168945 482.319336,450.572266 476.987305,450.572266 C472.651367,450.572266 468.894043,451.568359 465.715332,453.560547 C462.536621,455.552734 460.097656,458.350586 458.398438,461.954102 C456.699219,465.557617 455.849609,469.673828 455.849609,474.302734 L455.849609,474.302734 L455.849609,475.665039 C455.849609,483.165039 457.76123,489.075684 461.584473,493.396973 C465.407715,497.718262 470.556641,499.878906 477.03125,499.878906 Z M519.746094,499.878906 C524.990234,499.878906 529.501953,497.916016 533.28125,493.990234 C533.574219,496.392578 533.955078,498.0625 534.423828,499 L534.423828,499 L542.949219,499 L542.949219,498.296875 C541.835938,495.71875 541.279297,492.24707 541.279297,487.881836 L541.279297,487.881836 L541.279297,465.99707 C541.162109,461.192383 539.550781,457.42041 536.445312,454.681152 C533.339844,451.941895 529.047852,450.572266 523.569336,450.572266 C520.112305,450.572266 516.940918,451.216797 514.055176,452.505859 C511.169434,453.794922 508.884277,455.54541 507.199707,457.757324 C505.515137,459.969238 504.672852,462.261719 504.672852,464.634766 L504.672852,464.634766 L512.84668,464.634766 C512.84668,462.554688 513.828125,460.782227 515.791016,459.317383 C517.753906,457.852539 520.185547,457.120117 523.085938,457.120117 C526.396484,457.120117 528.901367,457.962402 530.600586,459.646973 C532.299805,461.331543 533.149414,463.594727 533.149414,466.436523 L533.149414,466.436523 L533.149414,470.171875 L525.239258,470.171875 C518.413086,470.171875 513.117676,471.541504 509.353027,474.280762 C505.588379,477.02002 503.706055,480.865234 503.706055,485.816406 C503.706055,489.888672 505.20752,493.250488 508.210449,495.901855 C511.213379,498.553223 515.058594,499.878906 519.746094,499.878906 Z M520.932617,492.803711 C518.266602,492.803711 516.083984,492.085938 514.384766,490.650391 C512.685547,489.214844 511.835938,487.222656 511.835938,484.673828 C511.835938,478.84375 516.816406,475.928711 526.777344,475.928711 L526.777344,475.928711 L533.149414,475.928711 L533.149414,485.68457 C532.124023,487.793945 530.46875,489.507813 528.183594,490.826172 C525.898438,492.144531 523.481445,492.803711 520.932617,492.803711 Z M562.109375,499 L562.109375,464.283203 C564.072266,459.742188 567.719727,457.47168 573.051758,457.47168 C579.819336,457.47168 583.203125,460.928711 583.203125,467.842773 L583.203125,467.842773 L583.203125,499 L591.376953,499 L591.376953,467.447266 C591.699219,464.400391 592.856445,461.976074 594.848633,460.174316 C596.84082,458.372559 599.345703,457.47168 602.363281,457.47168 C606.025391,457.47168 608.632812,458.313965 610.185547,459.998535 C611.738281,461.683105 612.514648,464.224609 612.514648,467.623047 L612.514648,467.623047 L612.514648,499 L620.644531,499 L620.644531,467.139648 C620.46875,456.094727 615.166016,450.572266 604.736328,450.572266 C601.279297,450.572266 598.283691,451.275391 595.749512,452.681641 C593.215332,454.087891 591.157227,455.933594 589.575195,458.21875 C587.172852,453.121094 582.646484,450.572266 575.996094,450.572266 C570.078125,450.572266 565.375977,452.623047 561.889648,456.724609 L561.889648,456.724609 L561.669922,451.451172 L553.979492,451.451172 L553.979492,499 L562.109375,499 Z M637.739258,443.453125 C639.321289,443.453125 640.522461,443.013672 641.342773,442.134766 C642.163086,441.255859 642.573242,440.157227 642.573242,438.838867 C642.573242,437.520508 642.163086,436.407227 641.342773,435.499023 C640.522461,434.59082 639.321289,434.136719 637.739258,434.136719 C636.157227,434.136719 634.963379,434.59082 634.157715,435.499023 C633.352051,436.407227 632.949219,437.520508 632.949219,438.838867 C632.949219,440.157227 633.352051,441.255859 634.157715,442.134766 C634.963379,443.013672 636.157227,443.453125 637.739258,443.453125 Z M641.738281,499 L641.738281,451.451172 L633.608398,451.451172 L633.608398,499 L641.738281,499 Z M671.445312,499.878906 C677.246094,499.878906 681.772461,497.886719 685.024414,493.902344 L685.024414,493.902344 L685.419922,499 L692.890625,499 L692.890625,431.5 L684.760742,431.5 L684.760742,456.285156 C681.508789,452.476563 677.099609,450.572266 671.533203,450.572266 C665.9375,450.572266 661.411133,452.791504 657.954102,457.22998 C654.49707,461.668457 652.768555,467.535156 652.768555,474.830078 L652.768555,474.830078 L652.768555,475.445313 C652.768555,482.710938 654.504395,488.599609 657.976074,493.111328 C661.447754,497.623047 665.9375,499.878906 671.445312,499.878906 Z M673.466797,492.979492 C669.541016,492.979492 666.464844,491.456055 664.238281,488.40918 C662.011719,485.362305 660.898438,481.143555 660.898438,475.75293 C660.898438,469.717773 662.011719,465.162109 664.238281,462.085938 C666.464844,459.009766 669.570312,457.47168 673.554688,457.47168 C678.59375,457.47168 682.329102,459.712891 684.760742,464.195313 L684.760742,464.195313 L684.760742,486.036133 C682.387695,490.665039 678.623047,492.979492 673.466797,492.979492 Z M725.014648,499.878906 C729.291992,499.878906 733.078613,498.853516 736.374512,496.802734 C739.67041,494.751953 742.20459,491.888184 743.977051,488.211426 C745.749512,484.534668 746.635742,480.381836 746.635742,475.75293 L746.635742,475.75293 L746.635742,475.181641 C746.635742,467.740234 744.63623,461.77832 740.637207,457.295898 C736.638184,452.813477 731.401367,450.572266 724.926758,450.572266 C720.737305,450.572266 717.009277,451.583008 713.742676,453.604492 C710.476074,455.625977 707.927246,458.49707 706.096191,462.217773 C704.265137,465.938477 703.349609,470.12793 703.349609,474.786133 L703.349609,474.786133 L703.349609,475.357422 C703.349609,482.740234 705.349121,488.672852 709.348145,493.155273 C713.347168,497.637695 718.569336,499.878906 725.014648,499.878906 Z M725.014648,493.243164 C720.913086,493.243164 717.63916,491.646484 715.192871,488.453125 C712.746582,485.259766 711.523438,481.026367 711.523438,475.75293 C711.523438,469.805664 712.753906,465.235352 715.214844,462.041992 C717.675781,458.848633 720.913086,457.251953 724.926758,457.251953 C729.02832,457.251953 732.316895,458.870605 734.79248,462.10791 C737.268066,465.345215 738.505859,469.571289 738.505859,474.786133 C738.505859,480.616211 737.290039,485.149902 734.858398,488.387207 C732.426758,491.624512 729.145508,493.243164 725.014648,493.243164 Z M764.960938,517.28125 L764.960938,494.385742 C768.271484,498.047852 772.8125,499.878906 778.583984,499.878906 C784.238281,499.878906 788.720703,497.666992 792.03125,493.243164 C795.341797,488.819336 796.99707,482.989258 796.99707,475.75293 L796.99707,475.75293 L796.99707,475.005859 C796.99707,467.330078 795.334473,461.338867 792.009277,457.032227 C788.684082,452.725586 784.165039,450.572266 778.452148,450.572266 C772.563477,450.572266 767.963867,452.623047 764.65332,456.724609 L764.65332,456.724609 L764.257812,451.451172 L756.831055,451.451172 L756.831055,517.28125 L764.960938,517.28125 Z M776.123047,493.243164 C771.113281,493.243164 767.392578,491.075195 764.960938,486.739258 L764.960938,486.739258 L764.960938,464.019531 C767.421875,459.654297 771.113281,457.47168 776.035156,457.47168 C780.019531,457.47168 783.154297,459.024414 785.439453,462.129883 C787.724609,465.235352 788.867188,469.46875 788.867188,474.830078 C788.867188,480.923828 787.717285,485.516113 785.41748,488.606934 C783.117676,491.697754 780.019531,493.243164 776.123047,493.243164 Z M815.454102,499 L815.454102,465.25 C817.358398,460.708984 820.976562,458.438477 826.308594,458.438477 C827.744141,458.438477 829.077148,458.541016 830.307617,458.746094 L830.307617,458.746094 L830.307617,451.1875 C829.487305,450.777344 828.286133,450.572266 826.704102,450.572266 C821.811523,450.572266 818.032227,452.696289 815.366211,456.944336 L815.366211,456.944336 L815.234375,451.451172 L807.324219,451.451172 L807.324219,499 L815.454102,499 Z M856.411133,499.878906 C860.688477,499.878906 864.475098,498.853516 867.770996,496.802734 C871.066895,494.751953 873.601074,491.888184 875.373535,488.211426 C877.145996,484.534668 878.032227,480.381836 878.032227,475.75293 L878.032227,475.75293 L878.032227,475.181641 C878.032227,467.740234 876.032715,461.77832 872.033691,457.295898 C868.034668,452.813477 862.797852,450.572266 856.323242,450.572266 C852.133789,450.572266 848.405762,451.583008 845.13916,453.604492 C841.872559,455.625977 839.32373,458.49707 837.492676,462.217773 C835.661621,465.938477 834.746094,470.12793 834.746094,474.786133 L834.746094,474.786133 L834.746094,475.357422 C834.746094,482.740234 836.745605,488.672852 840.744629,493.155273 C844.743652,497.637695 849.96582,499.878906 856.411133,499.878906 Z M856.411133,493.243164 C852.30957,493.243164 849.035645,491.646484 846.589355,488.453125 C844.143066,485.259766 842.919922,481.026367 842.919922,475.75293 C842.919922,469.805664 844.150391,465.235352 846.611328,462.041992 C849.072266,458.848633 852.30957,457.251953 856.323242,457.251953 C860.424805,457.251953 863.713379,458.870605 866.188965,462.10791 C868.664551,465.345215 869.902344,469.571289 869.902344,474.786133 C869.902344,480.616211 868.686523,485.149902 866.254883,488.387207 C863.823242,491.624512 860.541992,493.243164 856.411133,493.243164 Z M896.357422,517.28125 L896.357422,494.385742 C899.667969,498.047852 904.208984,499.878906 909.980469,499.878906 C915.634766,499.878906 920.117188,497.666992 923.427734,493.243164 C926.738281,488.819336 928.393555,482.989258 928.393555,475.75293 L928.393555,475.75293 L928.393555,475.005859 C928.393555,467.330078 926.730957,461.338867 923.405762,457.032227 C920.080566,452.725586 915.561523,450.572266 909.848633,450.572266 C903.959961,450.572266 899.360352,452.623047 896.049805,456.724609 L896.049805,456.724609 L895.654297,451.451172 L888.227539,451.451172 L888.227539,517.28125 L896.357422,517.28125 Z M907.519531,493.243164 C902.509766,493.243164 898.789062,491.075195 896.357422,486.739258 L896.357422,486.739258 L896.357422,464.019531 C898.818359,459.654297 902.509766,457.47168 907.431641,457.47168 C911.416016,457.47168 914.550781,459.024414 916.835938,462.129883 C919.121094,465.235352 920.263672,469.46875 920.263672,474.830078 C920.263672,480.923828 919.11377,485.516113 916.813965,488.606934 C914.51416,491.697754 911.416016,493.243164 907.519531,493.243164 Z M940.34668,518.204102 C946.791992,518.204102 951.494141,514.249023 954.453125,506.338867 L954.453125,506.338867 L973.569336,451.451172 L964.868164,451.451172 L953.793945,487.09082 L941.928711,451.451172 L933.051758,451.451172 L950.014648,498.472656 L948.212891,503.306641 C947.216797,506.265625 945.949707,508.301758 944.411621,509.415039 C942.873535,510.52832 940.727539,511.084961 937.973633,511.084961 L937.973633,511.084961 L935.776367,510.90918 L935.776367,517.500977 L938.808594,518.072266 L940.34668,518.204102 Z M989.65332,499 L989.65332,431.5 L981.523438,431.5 L981.523438,499 L989.65332,499 Z M251.899414,604 C258.696289,604 263.955078,602.359375 267.675781,599.078125 C271.396484,595.796875 273.256836,591.285156 273.256836,585.542969 C273.256836,581.792969 272.253418,578.562988 270.246582,575.853027 C268.239746,573.143066 265.507812,571.304688 262.050781,570.337891 C264.980469,569.078125 267.294922,567.29834 268.994141,564.998535 C270.693359,562.69873 271.542969,560.054688 271.542969,557.066406 C271.542969,551.441406 269.79248,547.193359 266.291504,544.322266 C262.790527,541.451172 257.568359,540.015625 250.625,540.015625 L250.625,540.015625 L229.707031,540.015625 L229.707031,604 L251.899414,604 Z M250.888672,567.305664 L238.144531,567.305664 L238.144531,546.958984 L250.625,546.958984 C254.814453,546.958984 257.93457,547.757324 259.985352,549.354004 C262.036133,550.950684 263.061523,553.506836 263.061523,557.022461 C263.061523,560.186523 261.955566,562.691406 259.743652,564.537109 C257.531738,566.382813 254.580078,567.305664 250.888672,567.305664 L250.888672,567.305664 Z M252.075195,597.100586 L238.144531,597.100586 L238.144531,574.073242 L252.207031,574.073242 C260.585938,574.073242 264.775391,577.925781 264.775391,585.630859 C264.775391,589.205078 263.640137,592.010254 261.369629,594.046387 C259.099121,596.08252 256.000977,597.100586 252.075195,597.100586 L252.075195,597.100586 Z M304.194336,604.878906 C312.163086,604.878906 318.139648,601.817383 322.124023,595.694336 L322.124023,595.694336 L317.158203,591.827148 C315.664062,593.760742 313.920898,595.313477 311.928711,596.485352 C309.936523,597.657227 307.504883,598.243164 304.633789,598.243164 C300.59082,598.243164 297.258301,596.800293 294.63623,593.914551 C292.01416,591.028809 290.644531,587.242188 290.527344,582.554688 L290.527344,582.554688 L322.739258,582.554688 L322.739258,579.170898 C322.739258,571.583008 321.025391,565.75293 317.597656,561.680664 C314.169922,557.608398 309.365234,555.572266 303.183594,555.572266 C299.404297,555.572266 295.895996,556.619629 292.658691,558.714355 C289.421387,560.809082 286.901855,563.709473 285.100098,567.415527 C283.29834,571.121582 282.397461,575.333008 282.397461,580.049805 L282.397461,580.049805 L282.397461,581.543945 C282.397461,588.633789 284.418945,594.29541 288.461914,598.528809 C292.504883,602.762207 297.749023,604.878906 304.194336,604.878906 Z M314.609375,575.875 L290.791016,575.875 C291.318359,571.568359 292.695312,568.221191 294.921875,565.833496 C297.148438,563.445801 299.902344,562.251953 303.183594,562.251953 C306.582031,562.251953 309.277344,563.387207 311.269531,565.657715 C313.261719,567.928223 314.375,571.128906 314.609375,575.259766 L314.609375,575.259766 L314.609375,575.875 Z M346.030273,604.878906 C348.051758,604.878906 350.131836,604.585938 352.270508,604 L352.270508,604 L352.270508,597.408203 C350.629883,597.759766 349.34082,597.935547 348.40332,597.935547 C346.499023,597.935547 345.151367,597.459473 344.360352,596.507324 C343.569336,595.555176 343.173828,594.126953 343.173828,592.222656 L343.173828,592.222656 L343.173828,562.735352 L352.050781,562.735352 L352.050781,556.451172 L343.173828,556.451172 L343.173828,544.9375 L335.043945,544.9375 L335.043945,556.451172 L326.386719,556.451172 L326.386719,562.735352 L335.043945,562.735352 L335.043945,592.222656 C335.043945,596.265625 335.966797,599.385742 337.8125,601.583008 C339.658203,603.780273 342.397461,604.878906 346.030273,604.878906 Z M376.220703,604.878906 C381.464844,604.878906 385.976562,602.916016 389.755859,598.990234 C390.048828,601.392578 390.429688,603.0625 390.898438,604 L390.898438,604 L399.423828,604 L399.423828,603.296875 C398.310547,600.71875 397.753906,597.24707 397.753906,592.881836 L397.753906,592.881836 L397.753906,570.99707 C397.636719,566.192383 396.025391,562.42041 392.919922,559.681152 C389.814453,556.941895 385.522461,555.572266 380.043945,555.572266 C376.586914,555.572266 373.415527,556.216797 370.529785,557.505859 C367.644043,558.794922 365.358887,560.54541 363.674316,562.757324 C361.989746,564.969238 361.147461,567.261719 361.147461,569.634766 L361.147461,569.634766 L369.321289,569.634766 C369.321289,567.554688 370.302734,565.782227 372.265625,564.317383 C374.228516,562.852539 376.660156,562.120117 379.560547,562.120117 C382.871094,562.120117 385.375977,562.962402 387.075195,564.646973 C388.774414,566.331543 389.624023,568.594727 389.624023,571.436523 L389.624023,571.436523 L389.624023,575.171875 L381.713867,575.171875 C374.887695,575.171875 369.592285,576.541504 365.827637,579.280762 C362.062988,582.02002 360.180664,585.865234 360.180664,590.816406 C360.180664,594.888672 361.682129,598.250488 364.685059,600.901855 C367.687988,603.553223 371.533203,604.878906 376.220703,604.878906 Z M377.407227,597.803711 C374.741211,597.803711 372.558594,597.085938 370.859375,595.650391 C369.160156,594.214844 368.310547,592.222656 368.310547,589.673828 C368.310547,583.84375 373.291016,580.928711 383.251953,580.928711 L383.251953,580.928711 L389.624023,580.928711 L389.624023,590.68457 C388.598633,592.793945 386.943359,594.507813 384.658203,595.826172 C382.373047,597.144531 379.956055,597.803711 377.407227,597.803711 Z M415.332031,548.453125 C416.914062,548.453125 418.115234,548.013672 418.935547,547.134766 C419.755859,546.255859 420.166016,545.157227 420.166016,543.838867 C420.166016,542.520508 419.755859,541.407227 418.935547,540.499023 C418.115234,539.59082 416.914062,539.136719 415.332031,539.136719 C413.75,539.136719 412.556152,539.59082 411.750488,540.499023 C410.944824,541.407227 410.541992,542.520508 410.541992,543.838867 C410.541992,545.157227 410.944824,546.255859 411.750488,547.134766 C412.556152,548.013672 413.75,548.453125 415.332031,548.453125 Z M419.331055,604 L419.331055,556.451172 L411.201172,556.451172 L411.201172,604 L419.331055,604 Z M440.46875,604 L440.46875,570.118164 C441.582031,567.833008 443.134766,565.987305 445.126953,564.581055 C447.119141,563.174805 449.433594,562.47168 452.070312,562.47168 C455.322266,562.47168 457.717285,563.291992 459.255371,564.932617 C460.793457,566.573242 461.577148,569.107422 461.606445,572.535156 L461.606445,572.535156 L461.606445,604 L469.736328,604 L469.736328,572.579102 C469.648438,561.241211 464.580078,555.572266 454.53125,555.572266 C448.671875,555.572266 443.925781,557.857422 440.292969,562.427734 L440.292969,562.427734 L440.029297,556.451172 L432.338867,556.451172 L432.338867,604 L440.46875,604 Z M501.728516,604.878906 C509.697266,604.878906 515.673828,601.817383 519.658203,595.694336 L519.658203,595.694336 L514.692383,591.827148 C513.198242,593.760742 511.455078,595.313477 509.462891,596.485352 C507.470703,597.657227 505.039062,598.243164 502.167969,598.243164 C498.125,598.243164 494.79248,596.800293 492.17041,593.914551 C489.54834,591.028809 488.178711,587.242188 488.061523,582.554688 L488.061523,582.554688 L520.273438,582.554688 L520.273438,579.170898 C520.273438,571.583008 518.55957,565.75293 515.131836,561.680664 C511.704102,557.608398 506.899414,555.572266 500.717773,555.572266 C496.938477,555.572266 493.430176,556.619629 490.192871,558.714355 C486.955566,560.809082 484.436035,563.709473 482.634277,567.415527 C480.83252,571.121582 479.931641,575.333008 479.931641,580.049805 L479.931641,580.049805 L479.931641,581.543945 C479.931641,588.633789 481.953125,594.29541 485.996094,598.528809 C490.039062,602.762207 495.283203,604.878906 501.728516,604.878906 Z M512.143555,575.875 L488.325195,575.875 C488.852539,571.568359 490.229492,568.221191 492.456055,565.833496 C494.682617,563.445801 497.436523,562.251953 500.717773,562.251953 C504.116211,562.251953 506.811523,563.387207 508.803711,565.657715 C510.795898,567.928223 511.90918,571.128906 512.143555,575.259766 L512.143555,575.259766 L512.143555,575.875 Z M529.414062,616.744141 C531.611328,614.957031 533.435059,612.583984 534.885254,609.625 C536.335449,606.666016 537.060547,603.707031 537.060547,600.748047 L537.060547,600.748047 L537.060547,594.375977 L529.106445,594.375977 L529.106445,601.714844 C528.989258,605.787109 527.553711,609.742188 524.799805,613.580078 L524.799805,613.580078 L529.414062,616.744141 Z M579.335938,604 L579.335938,578.951172 L594.40918,578.951172 C601.645508,578.951172 607.20459,577.273926 611.086426,573.919434 C614.968262,570.564941 616.90918,565.782227 616.90918,559.571289 C616.90918,553.682617 614.924316,548.951172 610.95459,545.376953 C606.984863,541.802734 601.499023,540.015625 594.49707,540.015625 L594.49707,540.015625 L570.898438,540.015625 L570.898438,604 L579.335938,604 Z M594.49707,572.051758 L579.335938,572.051758 L579.335938,546.958984 L594.980469,546.958984 C599.169922,547.046875 602.46582,548.233398 604.868164,550.518555 C607.270508,552.803711 608.47168,555.850586 608.47168,559.65918 C608.47168,563.672852 607.270508,566.741699 604.868164,568.865723 C602.46582,570.989746 599.008789,572.051758 594.49707,572.051758 L594.49707,572.051758 Z M631.235352,548.453125 C632.817383,548.453125 634.018555,548.013672 634.838867,547.134766 C635.65918,546.255859 636.069336,545.157227 636.069336,543.838867 C636.069336,542.520508 635.65918,541.407227 634.838867,540.499023 C634.018555,539.59082 632.817383,539.136719 631.235352,539.136719 C629.65332,539.136719 628.459473,539.59082 627.653809,540.499023 C626.848145,541.407227 626.445312,542.520508 626.445312,543.838867 C626.445312,545.157227 626.848145,546.255859 627.653809,547.134766 C628.459473,548.013672 629.65332,548.453125 631.235352,548.453125 Z M635.234375,604 L635.234375,556.451172 L627.104492,556.451172 L627.104492,604 L635.234375,604 Z M656.37207,604 L656.37207,570.118164 C657.485352,567.833008 659.038086,565.987305 661.030273,564.581055 C663.022461,563.174805 665.336914,562.47168 667.973633,562.47168 C671.225586,562.47168 673.620605,563.291992 675.158691,564.932617 C676.696777,566.573242 677.480469,569.107422 677.509766,572.535156 L677.509766,572.535156 L677.509766,604 L685.639648,604 L685.639648,572.579102 C685.551758,561.241211 680.483398,555.572266 670.43457,555.572266 C664.575195,555.572266 659.829102,557.857422 656.196289,562.427734 L656.196289,562.427734 L655.932617,556.451172 L648.242188,556.451172 L648.242188,604 L656.37207,604 Z M713.325195,604.878906 C719.448242,604.878906 724.091797,603.018555 727.255859,599.297852 L727.255859,599.297852 L727.431641,604 L735.166016,604 L735.166016,556.451172 L727.036133,556.451172 L727.036133,591.036133 C724.985352,595.665039 720.854492,597.979492 714.643555,597.979492 C708.78418,597.979492 705.854492,594.375977 705.854492,587.168945 L705.854492,587.168945 L705.854492,556.451172 L697.724609,556.451172 L697.724609,587.388672 C697.753906,593.160156 699.094238,597.518066 701.745605,600.462402 C704.396973,603.406738 708.256836,604.878906 713.325195,604.878906 Z M765.004883,604.878906 C770.424805,604.878906 774.833984,603.597168 778.232422,601.033691 C781.630859,598.470215 783.330078,595.064453 783.330078,590.816406 C783.330078,588.267578 782.722168,586.106934 781.506348,584.334473 C780.290527,582.562012 778.422852,581.045898 775.90332,579.786133 C773.383789,578.526367 770.095215,577.442383 766.037598,576.53418 C761.97998,575.625977 759.174805,574.673828 757.62207,573.677734 C756.069336,572.681641 755.292969,571.202148 755.292969,569.239258 C755.292969,567.15918 756.12793,565.474609 757.797852,564.185547 C759.467773,562.896484 761.782227,562.251953 764.741211,562.251953 C767.612305,562.251953 769.992676,563.057617 771.882324,564.668945 C773.771973,566.280273 774.716797,568.199219 774.716797,570.425781 L774.716797,570.425781 L782.890625,570.425781 C782.890625,566.089844 781.213379,562.530273 777.858887,559.74707 C774.504395,556.963867 770.131836,555.572266 764.741211,555.572266 C759.614258,555.572266 755.402832,556.919922 752.106934,559.615234 C748.811035,562.310547 747.163086,565.606445 747.163086,569.50293 C747.163086,571.84668 747.741699,573.868164 748.898926,575.567383 C750.056152,577.266602 751.843262,578.731445 754.260254,579.961914 C756.677246,581.192383 759.943848,582.24707 764.060059,583.125977 C768.17627,584.004883 771.062012,585.052246 772.717285,586.268066 C774.372559,587.483887 775.200195,589.19043 775.200195,591.387695 C775.200195,593.467773 774.27002,595.130371 772.409668,596.375488 C770.549316,597.620605 768.081055,598.243164 765.004883,598.243164 C761.665039,598.243164 758.977051,597.444824 756.940918,595.848145 C754.904785,594.251465 753.813477,592.09082 753.666992,589.366211 L753.666992,589.366211 L745.537109,589.366211 C745.537109,592.178711 746.364746,594.793457 748.02002,597.210449 C749.675293,599.627441 751.967773,601.509766 754.897461,602.857422 C757.827148,604.205078 761.196289,604.878906 765.004883,604.878906 Z M825.913086,604 L825.913086,578.951172 L840.986328,578.951172 C848.222656,578.951172 853.781738,577.273926 857.663574,573.919434 C861.54541,570.564941 863.486328,565.782227 863.486328,559.571289 C863.486328,553.682617 861.501465,548.951172 857.531738,545.376953 C853.562012,541.802734 848.076172,540.015625 841.074219,540.015625 L841.074219,540.015625 L817.475586,540.015625 L817.475586,604 L825.913086,604 Z M841.074219,572.051758 L825.913086,572.051758 L825.913086,546.958984 L841.557617,546.958984 C845.74707,547.046875 849.042969,548.233398 851.445312,550.518555 C853.847656,552.803711 855.048828,555.850586 855.048828,559.65918 C855.048828,563.672852 853.847656,566.741699 851.445312,568.865723 C849.042969,570.989746 845.585938,572.051758 841.074219,572.051758 L841.074219,572.051758 Z M877.8125,548.453125 C879.394531,548.453125 880.595703,548.013672 881.416016,547.134766 C882.236328,546.255859 882.646484,545.157227 882.646484,543.838867 C882.646484,542.520508 882.236328,541.407227 881.416016,540.499023 C880.595703,539.59082 879.394531,539.136719 877.8125,539.136719 C876.230469,539.136719 875.036621,539.59082 874.230957,540.499023 C873.425293,541.407227 873.022461,542.520508 873.022461,543.838867 C873.022461,545.157227 873.425293,546.255859 874.230957,547.134766 C875.036621,548.013672 876.230469,548.453125 877.8125,548.453125 Z M881.811523,604 L881.811523,556.451172 L873.681641,556.451172 L873.681641,604 L881.811523,604 Z M902.949219,604 L902.949219,570.118164 C904.0625,567.833008 905.615234,565.987305 907.607422,564.581055 C909.599609,563.174805 911.914062,562.47168 914.550781,562.47168 C917.802734,562.47168 920.197754,563.291992 921.73584,564.932617 C923.273926,566.573242 924.057617,569.107422 924.086914,572.535156 L924.086914,572.535156 L924.086914,604 L932.216797,604 L932.216797,572.579102 C932.128906,561.241211 927.060547,555.572266 917.011719,555.572266 C911.152344,555.572266 906.40625,557.857422 902.773438,562.427734 L902.773438,562.427734 L902.509766,556.451172 L894.819336,556.451172 L894.819336,604 L902.949219,604 Z M309.951172,709.878906 C315.195312,709.878906 319.707031,707.916016 323.486328,703.990234 C323.779297,706.392578 324.160156,708.0625 324.628906,709 L324.628906,709 L333.154297,709 L333.154297,708.296875 C332.041016,705.71875 331.484375,702.24707 331.484375,697.881836 L331.484375,697.881836 L331.484375,675.99707 C331.367188,671.192383 329.755859,667.42041 326.650391,664.681152 C323.544922,661.941895 319.25293,660.572266 313.774414,660.572266 C310.317383,660.572266 307.145996,661.216797 304.260254,662.505859 C301.374512,663.794922 299.089355,665.54541 297.404785,667.757324 C295.720215,669.969238 294.87793,672.261719 294.87793,674.634766 L294.87793,674.634766 L303.051758,674.634766 C303.051758,672.554688 304.033203,670.782227 305.996094,669.317383 C307.958984,667.852539 310.390625,667.120117 313.291016,667.120117 C316.601562,667.120117 319.106445,667.962402 320.805664,669.646973 C322.504883,671.331543 323.354492,673.594727 323.354492,676.436523 L323.354492,676.436523 L323.354492,680.171875 L315.444336,680.171875 C308.618164,680.171875 303.322754,681.541504 299.558105,684.280762 C295.793457,687.02002 293.911133,690.865234 293.911133,695.816406 C293.911133,699.888672 295.412598,703.250488 298.415527,705.901855 C301.418457,708.553223 305.263672,709.878906 309.951172,709.878906 Z M311.137695,702.803711 C308.47168,702.803711 306.289062,702.085938 304.589844,700.650391 C302.890625,699.214844 302.041016,697.222656 302.041016,694.673828 C302.041016,688.84375 307.021484,685.928711 316.982422,685.928711 L316.982422,685.928711 L323.354492,685.928711 L323.354492,695.68457 C322.329102,697.793945 320.673828,699.507813 318.388672,700.826172 C316.103516,702.144531 313.686523,702.803711 311.137695,702.803711 Z M361.71875,709.878906 C367.138672,709.878906 371.547852,708.597168 374.946289,706.033691 C378.344727,703.470215 380.043945,700.064453 380.043945,695.816406 C380.043945,693.267578 379.436035,691.106934 378.220215,689.334473 C377.004395,687.562012 375.136719,686.045898 372.617188,684.786133 C370.097656,683.526367 366.809082,682.442383 362.751465,681.53418 C358.693848,680.625977 355.888672,679.673828 354.335938,678.677734 C352.783203,677.681641 352.006836,676.202148 352.006836,674.239258 C352.006836,672.15918 352.841797,670.474609 354.511719,669.185547 C356.181641,667.896484 358.496094,667.251953 361.455078,667.251953 C364.326172,667.251953 366.706543,668.057617 368.596191,669.668945 C370.48584,671.280273 371.430664,673.199219 371.430664,675.425781 L371.430664,675.425781 L379.604492,675.425781 C379.604492,671.089844 377.927246,667.530273 374.572754,664.74707 C371.218262,661.963867 366.845703,660.572266 361.455078,660.572266 C356.328125,660.572266 352.116699,661.919922 348.820801,664.615234 C345.524902,667.310547 343.876953,670.606445 343.876953,674.50293 C343.876953,676.84668 344.455566,678.868164 345.612793,680.567383 C346.77002,682.266602 348.557129,683.731445 350.974121,684.961914 C353.391113,686.192383 356.657715,687.24707 360.773926,688.125977 C364.890137,689.004883 367.775879,690.052246 369.431152,691.268066 C371.086426,692.483887 371.914062,694.19043 371.914062,696.387695 C371.914062,698.467773 370.983887,700.130371 369.123535,701.375488 C367.263184,702.620605 364.794922,703.243164 361.71875,703.243164 C358.378906,703.243164 355.690918,702.444824 353.654785,700.848145 C351.618652,699.251465 350.527344,697.09082 350.380859,694.366211 L350.380859,694.366211 L342.250977,694.366211 C342.250977,697.178711 343.078613,699.793457 344.733887,702.210449 C346.38916,704.627441 348.681641,706.509766 351.611328,707.857422 C354.541016,709.205078 357.910156,709.878906 361.71875,709.878906 Z M404.521484,709.878906 C406.542969,709.878906 408.623047,709.585938 410.761719,709 L410.761719,709 L410.761719,702.408203 C409.121094,702.759766 407.832031,702.935547 406.894531,702.935547 C404.990234,702.935547 403.642578,702.459473 402.851562,701.507324 C402.060547,700.555176 401.665039,699.126953 401.665039,697.222656 L401.665039,697.222656 L401.665039,667.735352 L410.541992,667.735352 L410.541992,661.451172 L401.665039,661.451172 L401.665039,649.9375 L393.535156,649.9375 L393.535156,661.451172 L384.87793,661.451172 L384.87793,667.735352 L393.535156,667.735352 L393.535156,697.222656 C393.535156,701.265625 394.458008,704.385742 396.303711,706.583008 C398.149414,708.780273 400.888672,709.878906 404.521484,709.878906 Z M439.765625,709.878906 C447.734375,709.878906 453.710938,706.817383 457.695312,700.694336 L457.695312,700.694336 L452.729492,696.827148 C451.235352,698.760742 449.492188,700.313477 447.5,701.485352 C445.507812,702.657227 443.076172,703.243164 440.205078,703.243164 C436.162109,703.243164 432.82959,701.800293 430.20752,698.914551 C427.585449,696.028809 426.21582,692.242188 426.098633,687.554688 L426.098633,687.554688 L458.310547,687.554688 L458.310547,684.170898 C458.310547,676.583008 456.59668,670.75293 453.168945,666.680664 C449.741211,662.608398 444.936523,660.572266 438.754883,660.572266 C434.975586,660.572266 431.467285,661.619629 428.22998,663.714355 C424.992676,665.809082 422.473145,668.709473 420.671387,672.415527 C418.869629,676.121582 417.96875,680.333008 417.96875,685.049805 L417.96875,685.049805 L417.96875,686.543945 C417.96875,693.633789 419.990234,699.29541 424.033203,703.528809 C428.076172,707.762207 433.320312,709.878906 439.765625,709.878906 Z M450.180664,680.875 L426.362305,680.875 C426.889648,676.568359 428.266602,673.221191 430.493164,670.833496 C432.719727,668.445801 435.473633,667.251953 438.754883,667.251953 C442.15332,667.251953 444.848633,668.387207 446.84082,670.657715 C448.833008,672.928223 449.946289,676.128906 450.180664,680.259766 L450.180664,680.259766 L450.180664,680.875 Z M475.844727,709 L475.844727,675.25 C477.749023,670.708984 481.367188,668.438477 486.699219,668.438477 C488.134766,668.438477 489.467773,668.541016 490.698242,668.746094 L490.698242,668.746094 L490.698242,661.1875 C489.87793,660.777344 488.676758,660.572266 487.094727,660.572266 C482.202148,660.572266 478.422852,662.696289 475.756836,666.944336 L475.756836,666.944336 L475.625,661.451172 L467.714844,661.451172 L467.714844,709 L475.844727,709 Z M543.916016,709 C550.712891,709 555.97168,707.359375 559.692383,704.078125 C563.413086,700.796875 565.273438,696.285156 565.273438,690.542969 C565.273438,686.792969 564.27002,683.562988 562.263184,680.853027 C560.256348,678.143066 557.524414,676.304688 554.067383,675.337891 C556.99707,674.078125 559.311523,672.29834 561.010742,669.998535 C562.709961,667.69873 563.55957,665.054688 563.55957,662.066406 C563.55957,656.441406 561.809082,652.193359 558.308105,649.322266 C554.807129,646.451172 549.584961,645.015625 542.641602,645.015625 L542.641602,645.015625 L521.723633,645.015625 L521.723633,709 L543.916016,709 Z M542.905273,672.305664 L530.161133,672.305664 L530.161133,651.958984 L542.641602,651.958984 C546.831055,651.958984 549.951172,652.757324 552.001953,654.354004 C554.052734,655.950684 555.078125,658.506836 555.078125,662.022461 C555.078125,665.186523 553.972168,667.691406 551.760254,669.537109 C549.54834,671.382813 546.59668,672.305664 542.905273,672.305664 L542.905273,672.305664 Z M544.091797,702.100586 L530.161133,702.100586 L530.161133,679.073242 L544.223633,679.073242 C552.602539,679.073242 556.791992,682.925781 556.791992,690.630859 C556.791992,694.205078 555.656738,697.010254 553.38623,699.046387 C551.115723,701.08252 548.017578,702.100586 544.091797,702.100586 L544.091797,702.100586 Z M591.157227,709.878906 C596.401367,709.878906 600.913086,707.916016 604.692383,703.990234 C604.985352,706.392578 605.366211,708.0625 605.834961,709 L605.834961,709 L614.360352,709 L614.360352,708.296875 C613.24707,705.71875 612.69043,702.24707 612.69043,697.881836 L612.69043,697.881836 L612.69043,675.99707 C612.573242,671.192383 610.961914,667.42041 607.856445,664.681152 C604.750977,661.941895 600.458984,660.572266 594.980469,660.572266 C591.523438,660.572266 588.352051,661.216797 585.466309,662.505859 C582.580566,663.794922 580.29541,665.54541 578.61084,667.757324 C576.92627,669.969238 576.083984,672.261719 576.083984,674.634766 L576.083984,674.634766 L584.257812,674.634766 C584.257812,672.554688 585.239258,670.782227 587.202148,669.317383 C589.165039,667.852539 591.59668,667.120117 594.49707,667.120117 C597.807617,667.120117 600.3125,667.962402 602.011719,669.646973 C603.710938,671.331543 604.560547,673.594727 604.560547,676.436523 L604.560547,676.436523 L604.560547,680.171875 L596.650391,680.171875 C589.824219,680.171875 584.528809,681.541504 580.76416,684.280762 C576.999512,687.02002 575.117188,690.865234 575.117188,695.816406 C575.117188,699.888672 576.618652,703.250488 579.621582,705.901855 C582.624512,708.553223 586.469727,709.878906 591.157227,709.878906 Z M592.34375,702.803711 C589.677734,702.803711 587.495117,702.085938 585.795898,700.650391 C584.09668,699.214844 583.24707,697.222656 583.24707,694.673828 C583.24707,688.84375 588.227539,685.928711 598.188477,685.928711 L598.188477,685.928711 L604.560547,685.928711 L604.560547,695.68457 C603.535156,697.793945 601.879883,699.507813 599.594727,700.826172 C597.30957,702.144531 594.892578,702.803711 592.34375,702.803711 Z M633.564453,709 L633.564453,675.25 C635.46875,670.708984 639.086914,668.438477 644.418945,668.438477 C645.854492,668.438477 647.1875,668.541016 648.417969,668.746094 L648.417969,668.746094 L648.417969,661.1875 C647.597656,660.777344 646.396484,660.572266 644.814453,660.572266 C639.921875,660.572266 636.142578,662.696289 633.476562,666.944336 L633.476562,666.944336 L633.344727,661.451172 L625.43457,661.451172 L625.43457,709 L633.564453,709 Z M664.0625,709 L664.0625,692.300781 L669.160156,686.983398 L685.727539,709 L695.263672,709 L674.609375,681.314453 L693.110352,661.451172 L683.222656,661.451172 L668.413086,677.095703 L664.0625,682.325195 L664.0625,641.5 L655.932617,641.5 L655.932617,709 L664.0625,709 Z M787.988281,709 L787.988281,702.100586 L755.776367,702.100586 L755.776367,679.424805 L783.505859,679.424805 L783.505859,672.525391 L755.776367,672.525391 L755.776367,651.958984 L787.548828,651.958984 L787.548828,645.015625 L747.338867,645.015625 L747.338867,709 L787.988281,709 Z M802.314453,709 L813.300781,691.202148 L824.287109,709 L833.691406,709 L817.651367,684.961914 L833.208008,661.451172 L823.71582,661.451172 L813.168945,678.80957 L802.753906,661.451172 L793.349609,661.451172 L808.90625,684.961914 L792.866211,709 L802.314453,709 Z M855.708008,709.878906 C857.729492,709.878906 859.80957,709.585938 861.948242,709 L861.948242,709 L861.948242,702.408203 C860.307617,702.759766 859.018555,702.935547 858.081055,702.935547 C856.176758,702.935547 854.829102,702.459473 854.038086,701.507324 C853.24707,700.555176 852.851562,699.126953 852.851562,697.222656 L852.851562,697.222656 L852.851562,667.735352 L861.728516,667.735352 L861.728516,661.451172 L852.851562,661.451172 L852.851562,649.9375 L844.72168,649.9375 L844.72168,661.451172 L836.064453,661.451172 L836.064453,667.735352 L844.72168,667.735352 L844.72168,697.222656 C844.72168,701.265625 845.644531,704.385742 847.490234,706.583008 C849.335938,708.780273 852.075195,709.878906 855.708008,709.878906 Z M430.756836,814.878906 C437.729492,814.878906 443.317871,813.040527 447.521973,809.36377 C451.726074,805.687012 454.223633,800.464844 455.014648,793.697266 L455.014648,793.697266 L446.533203,793.697266 C445.712891,798.970703 444.050293,802.669434 441.54541,804.793457 C439.040527,806.91748 435.444336,807.979492 430.756836,807.979492 C425.541992,807.979492 421.484375,805.928711 418.583984,801.827148 C415.683594,797.725586 414.233398,792.203125 414.233398,785.259766 L414.233398,785.259766 L414.233398,779.063477 C414.233398,771.709961 415.76416,766.041016 418.825684,762.056641 C421.887207,758.072266 426.113281,756.080078 431.503906,756.080078 C435.898438,756.080078 439.318848,757.222656 441.765137,759.507813 C444.211426,761.792969 445.800781,765.484375 446.533203,770.582031 L446.533203,770.582031 L455.014648,770.582031 C454.34082,763.873047 451.953125,758.621582 447.851562,754.827637 C443.75,751.033691 438.300781,749.136719 431.503906,749.136719 C426.376953,749.136719 421.865234,750.345215 417.96875,752.762207 C414.072266,755.179199 411.062012,758.643555 408.937988,763.155273 C406.813965,767.666992 405.751953,772.896484 405.751953,778.84375 L405.751953,778.84375 L405.751953,784.996094 C405.751953,794.078125 408.029785,801.329102 412.585449,806.749023 C417.141113,812.168945 423.198242,814.878906 430.756836,814.878906 Z M475.581055,814 L475.581055,750.015625 L467.143555,750.015625 L467.143555,814 L475.581055,814 Z M545.498047,814 L545.498047,799.146484 L554.375,799.146484 L554.375,792.510742 L545.498047,792.510742 L545.498047,750.015625 L536.84082,750.015625 L508.188477,794.356445 L508.188477,799.146484 L537.324219,799.146484 L537.324219,814 L545.498047,814 Z M537.324219,792.510742 L517.416992,792.510742 L536.357422,762.891602 L537.324219,761.133789 L537.324219,792.510742 Z M603.637695,814 L603.637695,807.364258 L571.513672,807.364258 L588.652344,788.775391 C596.679688,780.074219 600.693359,772.574219 600.693359,766.275391 C600.693359,761.089844 598.964844,756.937012 595.507812,753.816895 C592.050781,750.696777 587.348633,749.136719 581.401367,749.136719 C575.043945,749.136719 569.968262,750.953125 566.174316,754.585938 C562.380371,758.21875 560.483398,762.979492 560.483398,768.868164 L560.483398,768.868164 L568.613281,768.868164 C568.613281,764.766602 569.733887,761.565918 571.975098,759.266113 C574.216309,756.966309 577.358398,755.816406 581.401367,755.816406 C584.770508,755.816406 587.46582,756.885742 589.487305,759.024414 C591.508789,761.163086 592.519531,763.902344 592.519531,767.242188 C592.519531,769.732422 591.896973,772.14209 590.651855,774.471191 C589.406738,776.800293 587.143555,779.825195 583.862305,783.545898 L583.862305,783.545898 L561.713867,808.155273 L561.713867,814 L603.637695,814 Z M632.246094,814.878906 C639.160156,814.878906 644.243164,812.564453 647.495117,807.935547 C650.74707,803.306641 652.373047,796.231445 652.373047,786.709961 L652.373047,786.709961 L652.373047,776.163086 C652.285156,766.963867 650.615234,760.159668 647.363281,755.750488 C644.111328,751.341309 639.042969,749.136719 632.158203,749.136719 C625.214844,749.136719 620.117188,751.421875 616.865234,755.992188 C613.613281,760.5625 611.987305,767.549805 611.987305,776.954102 L611.987305,776.954102 L611.987305,787.808594 C612.104492,796.802734 613.803711,803.562988 617.084961,808.089355 C620.366211,812.615723 625.419922,814.878906 632.246094,814.878906 Z M632.246094,808.243164 C628.173828,808.243164 625.134277,806.595215 623.127441,803.299316 C621.120605,800.003418 620.117188,794.898438 620.117188,787.984375 L620.117188,787.984375 L620.117188,774.976563 C620.175781,768.472656 621.157227,763.65332 623.061523,760.518555 C624.96582,757.383789 627.998047,755.816406 632.158203,755.816406 C636.347656,755.816406 639.40918,757.391113 641.342773,760.540527 C643.276367,763.689941 644.243164,768.707031 644.243164,775.591797 L644.243164,775.591797 L644.243164,788.907227 C644.155273,795.586914 643.137207,800.479492 641.188965,803.584961 C639.240723,806.69043 636.259766,808.243164 632.246094,808.243164 Z M672.456055,814.043945 C682.387695,813.897461 689.814453,810.960449 694.736328,805.23291 C699.658203,799.505371 702.119141,790.416016 702.119141,777.964844 L702.119141,777.964844 L702.119141,775.591797 C702.119141,767.417969 700.29541,760.965332 696.647949,756.233887 C693.000488,751.502441 688.012695,749.136719 681.68457,749.136719 C677.700195,749.136719 674.213867,750.044922 671.225586,751.861328 C668.237305,753.677734 665.930176,756.299805 664.304199,759.727539 C662.678223,763.155273 661.865234,767.007813 661.865234,771.285156 C661.865234,775.269531 662.612305,778.909668 664.106445,782.205566 C665.600586,785.501465 667.717285,788.057617 670.456543,789.874023 C673.195801,791.69043 676.411133,792.598633 680.102539,792.598633 C682.915039,792.598633 685.500488,791.983398 687.858887,790.75293 C690.217285,789.522461 692.246094,787.896484 693.945312,785.875 C693.623047,793.199219 691.660156,798.553223 688.056641,801.937012 C684.453125,805.320801 679.296875,807.071289 672.587891,807.188477 L672.587891,807.188477 L670.874023,807.188477 L670.874023,814.043945 L672.456055,814.043945 Z M681.420898,785.875 C677.905273,785.875 675.100098,784.461426 673.005371,781.634277 C670.910645,778.807129 669.863281,775.210938 669.863281,770.845703 C669.863281,766.363281 670.947266,762.752441 673.115234,760.013184 C675.283203,757.273926 678.154297,755.904297 681.728516,755.904297 C685.273438,755.904297 688.203125,757.574219 690.517578,760.914063 C692.832031,764.253906 693.989258,768.589844 693.989258,773.921875 L693.989258,773.921875 L693.989258,777.173828 C692.93457,779.634766 691.257324,781.700195 688.95752,783.370117 C686.657715,785.040039 684.145508,785.875 681.420898,785.875 Z M733.320312,814.878906 C740.234375,814.878906 745.317383,812.564453 748.569336,807.935547 C751.821289,803.306641 753.447266,796.231445 753.447266,786.709961 L753.447266,786.709961 L753.447266,776.163086 C753.359375,766.963867 751.689453,760.159668 748.4375,755.750488 C745.185547,751.341309 740.117188,749.136719 733.232422,749.136719 C726.289062,749.136719 721.191406,751.421875 717.939453,755.992188 C714.6875,760.5625 713.061523,767.549805 713.061523,776.954102 L713.061523,776.954102 L713.061523,787.808594 C713.178711,796.802734 714.87793,803.562988 718.15918,808.089355 C721.44043,812.615723 726.494141,814.878906 733.320312,814.878906 Z M733.320312,808.243164 C729.248047,808.243164 726.208496,806.595215 724.20166,803.299316 C722.194824,800.003418 721.191406,794.898438 721.191406,787.984375 L721.191406,787.984375 L721.191406,774.976563 C721.25,768.472656 722.231445,763.65332 724.135742,760.518555 C726.040039,757.383789 729.072266,755.816406 733.232422,755.816406 C737.421875,755.816406 740.483398,757.391113 742.416992,760.540527 C744.350586,763.689941 745.317383,768.707031 745.317383,775.591797 L745.317383,775.591797 L745.317383,788.907227 C745.229492,795.586914 744.211426,800.479492 742.263184,803.584961 C740.314941,806.69043 737.333984,808.243164 733.320312,808.243164 Z" id="Aqua,AmmoniumLaurylSulfate,Glycrin,CocamidopropylBetaine,PinusPinasterBarkExtCI42090" fill="#FFF3E3" fill-rule="nonzero"></path>
            <path d="M345.45479,85.61486 C188.635514,176.15452 125.733593,366.79523 190.787592,530.240473 C252.051037,530.324 314.21492,515.02297 371.05286,482.20761 C527.87214,391.66784 590.64899,200.81051 525.59496,37.365296 C464.33151,37.283028 402.2927,52.799506 345.45479,85.61486 Z" id="path58917" fill="url(#linearGradient-1)" fill-rule="nonzero"></path>
            <rect id="rect9979" stroke="#000000" stroke-width="7.27523231" fill="#CCCCCC" fill-rule="nonzero" stroke-linecap="round" stroke-linejoin="round" transform="translate(930.532921, 799.343735) rotate(-45.000000) translate(-930.532921, -799.343735) " x="847.491311" y="681.11431" width="166.08322" height="236.45885"></rect>
            <path d="M1007.45633,709.20822 L840.12599,876.08386 L977.44599,1013.4039 C1042.2318,967.4908 1098.44185,910.88479 1144.32165,846.07353 L1007.45633,709.20822 Z" id="rect9983" stroke="#000000" stroke-width="7.27523279" fill="#E6E6E6" fill-rule="nonzero" stroke-linecap="round" stroke-linejoin="round"></path>
            <path d="M675.6337,26.477109 C535.09193,-7.82634 380.36432,29.896032 270.59386,139.66649 C103.324332,306.93588 103.390101,578.25985 270.666613,745.52938 C437.93585,912.79876 709.25998,912.73299 876.52936,745.45663 C1043.79874,578.18725 1043.73312,306.86327 876.4566,139.59374 C818.95767,82.09495 749.25077,44.438348 675.6337,26.469979 L675.6337,26.477109 Z M670.41328,81.09665 C870.01221,134.57892 988.50901,339.82138 935.02659,539.42029 C881.54418,739.01921 676.30172,857.51602 476.7028,804.0336 C277.103884,750.55133 158.607079,545.30887 212.089496,345.70996 C265.571913,146.11103 470.81423,27.614228 670.41328,81.09665 Z" id="path9981" stroke="#000000" stroke-width="7.27523232" fill="#E6E6E6" fill-rule="nonzero" stroke-linecap="round" stroke-linejoin="round"></path>
        </g>
    </g>
</svg>