<?xml version="1.0" encoding="UTF-8" standalone="no"?>
<!-- Created with Inkscape (http://www.inkscape.org/) -->

<svg
   xmlns:dc="http://purl.org/dc/elements/1.1/"
   xmlns:cc="http://creativecommons.org/ns#"
   xmlns:rdf="http://www.w3.org/1999/02/22-rdf-syntax-ns#"
   xmlns:svg="http://www.w3.org/2000/svg"
   xmlns="http://www.w3.org/2000/svg"
   xmlns:xlink="http://www.w3.org/1999/xlink"
   xmlns:sodipodi="http://sodipodi.sourceforge.net/DTD/sodipodi-0.dtd"
   xmlns:inkscape="http://www.inkscape.org/namespaces/inkscape"
   width="320"
   height="240"
   viewBox="0 0 744.09449 1052.3622"
   id="svg2"
   version="1.1"
   inkscape:version="0.91 r13725"
   sodipodi:docname="madenearme-icon.svg"
   inkscape:export-filename="C:\Users\Stéphane\Desktop\Blogs\OpenFoodFacts\madenearme-icon.png"
   inkscape:export-xdpi="90"
   inkscape:export-ydpi="90">
  <defs
     id="defs4">
    <linearGradient
       inkscape:collect="always"
       id="linearGradient9269">
      <stop
         style="stop-color:#ffffff;stop-opacity:1;"
         offset="0"
         id="stop9271" />
      <stop
         style="stop-color:#ffffff;stop-opacity:0;"
         offset="1"
         id="stop9273" />
    </linearGradient>
    <linearGradient
       inkscape:collect="always"
       xlink:href="#linearGradient9269"
       id="linearGradient9275"
       x1="214.05989"
       y1="826.93896"
       x2="214.05989"
       y2="526.18542"
       gradientUnits="userSpaceOnUse" />
  </defs>
  <sodipodi:namedview
     id="base"
     pagecolor="#ffffff"
     bordercolor="#666666"
     borderopacity="1.0"
     inkscape:pageopacity="0.0"
     inkscape:pageshadow="2"
     inkscape:zoom="1.4142136"
     inkscape:cx="182.23208"
     inkscape:cy="194.54096"
     inkscape:document-units="px"
     inkscape:current-layer="layer1"
     showgrid="false"
     inkscape:window-width="1920"
     inkscape:window-height="1018"
     inkscape:window-x="-8"
     inkscape:window-y="-8"
     inkscape:window-maximized="1"
     showguides="false" />
  <metadata
     id="metadata7">
    <rdf:RDF>
      <cc:Work
         rdf:about="">
        <dc:format>image/svg+xml</dc:format>
        <dc:type
           rdf:resource="http://purl.org/dc/dcmitype/StillImage" />
        <dc:title></dc:title>
      </cc:Work>
    </rdf:RDF>
  </metadata>
  <g
     inkscape:label="Calque 1"
     inkscape:groupmode="layer"
     id="layer1">
    <rect
       style="opacity:1;fill:#ffd5d5;fill-opacity:1;fill-rule:evenodd;stroke:none;stroke-width:4.3848424;stroke-linecap:round;stroke-linejoin:round;stroke-miterlimit:4;stroke-dasharray:none;stroke-dashoffset:0;stroke-opacity:1"
       id="rect9251"
       width="1403.1495"
       height="1052.3622"
       x="-329.52753"
       y="8.2369406e-006" />
    <image
       sodipodi:absref="C:\Users\Stéphane\Desktop\Blogs\OpenFoodFacts\madenearme-london.png"
       xlink:href="madenearme-london.png"
       width="2473.0513"
       height="1442.6133"
       preserveAspectRatio="none"
       id="image9248"
       x="-1309.1189"
       y="-255.16159" />
    <rect
       style="fill:url(#linearGradient9275);fill-opacity:1;fill-rule:evenodd;stroke:none;stroke-width:8.18273163;stroke-linecap:round;stroke-linejoin:round;stroke-miterlimit:4;stroke-dasharray:none;stroke-dashoffset:0;stroke-opacity:0.2254902"
       id="rect6442"
       width="1394.9667"
       height="560.48352"
       x="-325.43613"
       y="487.78674"
       inkscape:export-filename="C:\Users\Stéphane\Desktop\Blogs\OpenFoodFacts\madenearme.575x200.png"
       inkscape:export-xdpi="89.999176"
       inkscape:export-ydpi="89.999176" />
    <g
       id="g6490"
       transform="matrix(2.1827711,0,0,2.1827711,2024.391,-4638.5478)"
       inkscape:export-filename="C:\Users\Stéphane\Desktop\Blogs\OpenFoodFacts\madenearme.575x200.png"
       inkscape:export-xdpi="89.999176"
       inkscape:export-ydpi="89.999176">
      <circle
         r="75.985863"
         cy="2491.269"
         cx="-1004.702"
         transform="translate(6.0306243,0)"
         id="path6488"
         style="fill:#003380;fill-opacity:1;fill-rule:evenodd;stroke:none" />
      <path
         inkscape:connector-curvature="0"
         id="path244"
         style="fill:#d5e5ff;stroke:none"
         d="m -994.4595,2411.5753 c -21.3511,-1.0486 -41.8301,6.2743 -57.6567,20.626 -15.8499,14.3668 -25.1453,34.0288 -26.1931,55.3647 -1.0487,21.3511 6.2743,41.8302 20.6411,57.665 14.3435,15.8334 34.0068,25.1288 55.3579,26.1766 44.0822,2.1651 81.67726,-31.925 83.84147,-75.9921 2.1644,-44.0672 -31.90984,-81.6773 -75.99207,-83.8416 z m 63.2388,83.2153 c -0.36689,7.4703 -1.96206,14.5893 -4.53989,21.1795 -5.36797,-0.6992 -10.6655,-1.586 -15.89244,-2.6756 5.36149,-13.017 7.19316,-27.2849 5.16129,-41.6118 -1.93627,-13.6275 -7.24371,-25.9844 -14.92709,-36.3249 19.18409,12.6713 31.40457,34.85 30.19748,59.4337 z m -51.31778,-56.0554 c -13.15102,15.1028 -24.37492,31.8893 -33.28172,50.0338 -7.5336,-4.3662 -14.7857,-9.1695 -21.7287,-14.3627 5.6635,-10.7633 14.1539,-19.813 24.8308,-26.2274 9.4882,-5.7157 19.8323,-8.7759 30.17962,-9.4444 z m -38.59202,61.7091 c -5.6803,13.4368 -10.1326,27.5457 -13.182,42.1817 -0.4694,-0.7107 -0.9304,-1.4364 -1.3682,-2.1686 -9.2615,-15.3927 -11.9643,-33.4823 -7.6328,-50.8908 0.2404,-1.0045 0.5243,-1.961 0.8104,-2.9632 6.8531,4.9977 13.985,9.6194 21.373,13.8409 z m 4.887,49.0739 c -2.1778,0.3132 -4.3488,0.4893 -6.5085,0.5897 2.7931,-15.1756 7.1544,-29.7621 12.9236,-43.6153 12.4179,6.2033 25.46253,11.3216 39.03969,15.2278 -0.37681,0.5163 -0.75556,1.0708 -1.14837,1.6017 -10.79927,14.3627 -26.52272,23.6526 -44.30602,26.1959 z m 11.6784,-54.6644 c 8.9649,-18.3945 20.44752,-35.3059 33.99448,-50.3744 5.86182,8.3799 9.90378,18.183 11.43674,28.9794 1.80483,12.727 -0.0162,25.3829 -5.13246,36.8219 -14.05649,-3.8079 -27.53886,-9.0089 -40.29766,-15.4269 z m -38.971,-53.1785 c 13.3079,-12.0767 30.5119,-18.2311 48.456,-17.3495 4.0553,0.1991 8.0153,0.7834 11.83862,1.6589 -12.37122,0.7831 -24.73062,4.4245 -36.05972,11.2418 -11.9916,7.2125 -21.6683,17.2204 -28.3711,29.0796 -3.1106,-2.6285 -6.149,-5.3298 -9.1213,-8.1349 3.4782,-6.0949 7.9159,-11.6612 13.2576,-16.4953 z m -22.0061,46.5156 c 0.2999,-6.1057 1.4239,-12.0335 3.2834,-17.6887 2.9476,2.6817 5.96,5.29 9.0444,7.8332 -0.9627,2.6424 -1.7992,5.3598 -2.5013,8.145 -3.4279,13.7845 -3.128,27.9041 0.6808,41.2108 -7.4951,-11.6846 -11.2017,-25.3609 -10.5073,-39.5012 z m 65.6201,70.5033 c 15.13574,-5.1098 28.39436,-14.6359 38.19788,-27.7023 1.43885,-1.9159 2.78904,-3.8898 4.04267,-5.9219 5.19305,1.149 10.43276,2.1246 15.74966,2.9359 -12.33306,18.9864 -33.91072,31.2604 -57.99041,30.6891 z" />
    </g>
    <g
       id="g6538"
       transform="matrix(2.4402598,0,0,2.4402598,2381.8998,-5441.3018)"
       inkscape:export-filename="C:\Users\Stéphane\Desktop\Blogs\OpenFoodFacts\madenearme.575x200.png"
       inkscape:export-xdpi="89.999176"
       inkscape:export-ydpi="89.999176">
      <path
         inkscape:export-ydpi="91.002167"
         inkscape:export-xdpi="91.002167"
         inkscape:export-filename="C:\Users\Stéphane\Desktop\Blogs\OpenFoodFacts\madenearme-uk.575x200.png"
         style="fill:#55d400;fill-opacity:1;stroke:none"
         d="m -969.01947,2497.795 0,0.3194 -50.99163,51.0117 50.99163,50.9916 0,0.3194 376.27795,0 c 28.43703,0 51.33105,-22.8741 51.33105,-51.311 0,-28.4372 -22.89402,-51.3311 -51.33105,-51.3311 z m -59.17743,45.8605 c -3.0093,0 -5.4506,2.4412 -5.4506,5.4506 0,3.0092 2.4413,5.4506 5.4506,5.4506 3.0093,0 5.4505,-2.4414 5.4505,-5.4506 0,-3.0094 -2.4412,-5.4506 -5.4505,-5.4506 z"
         id="path6346"
         inkscape:connector-curvature="0"
         sodipodi:nodetypes="cccccssscsssss" />
      <text
         inkscape:export-ydpi="91.002167"
         inkscape:export-xdpi="91.002167"
         inkscape:export-filename="C:\Users\Stéphane\Desktop\Blogs\OpenFoodFacts\madenearme-uk.575x200.png"
         sodipodi:linespacing="125%"
         id="text6348"
         y="2630.717"
         x="-969.80298"
         style="font-style:normal;font-weight:normal;font-size:27.19640923px;line-height:125%;font-family:'Berlin Sans FB';-inkscape-font-specification:'Berlin Sans FB';letter-spacing:0px;word-spacing:0px;fill:#003380;fill-opacity:1;stroke:none"
         xml:space="preserve"><tspan
           style="font-style:normal;font-variant:normal;font-weight:normal;font-stretch:normal;font-family:Arial;-inkscape-font-specification:Arial;fill:#003380;fill-opacity:1"
           y="2630.717"
           x="-969.80298"
           id="tspan6350"
           sodipodi:role="line">The Interactive Food Products Map</tspan></text>
      <text
         sodipodi:linespacing="125%"
         id="text6352"
         y="2574.6875"
         x="-536.14185"
         style="font-style:normal;font-weight:normal;font-size:57.46310043px;line-height:125%;font-family:'Berlin Sans FB';-inkscape-font-specification:'Berlin Sans FB';letter-spacing:0px;word-spacing:0px;fill:#ffffff;fill-opacity:1;stroke:none"
         xml:space="preserve"
         inkscape:export-filename="C:\Users\Stéphane\Desktop\Blogs\OpenFoodFacts\madenearme-uk.575x200.png"
         inkscape:export-xdpi="91.002167"
         inkscape:export-ydpi="91.002167"><tspan
           id="tspan6354"
           y="2574.6875"
           x="-536.14185"
           sodipodi:role="line"
           style="font-style:normal;font-variant:normal;font-weight:normal;font-stretch:normal;font-size:40px;font-family:'Open Sans';-inkscape-font-specification:'Open Sans';text-align:end;text-anchor:end;fill:#ffffff">.UK</tspan><tspan
           id="tspan6356"
           y="2624.6875"
           x="-536.14185"
           sodipodi:role="line"
           style="text-align:end;text-anchor:end;fill:#ffffff" /></text>
      <circle
         r="79.524391"
         cy="2415.4102"
         cx="25.447803"
         inkscape:export-ydpi="91.002167"
         inkscape:export-xdpi="91.002167"
         inkscape:export-filename="C:\Users\Stéphane\Desktop\Blogs\OpenFoodFacts\madenearme-uk.575x200.png"
         style="fill:#003380;fill-opacity:1;fill-rule:evenodd;stroke:none"
         id="path6358"
         transform="matrix(0.64534897,0,0,0.64534897,-605.97319,990.33357)" />
      <text
         inkscape:export-ydpi="91.002167"
         inkscape:export-xdpi="91.002167"
         inkscape:export-filename="C:\Users\Stéphane\Desktop\Blogs\OpenFoodFacts\madenearme-uk.575x200.png"
         xml:space="preserve"
         style="font-style:normal;font-weight:normal;font-size:60.825737px;line-height:125%;font-family:'Berlin Sans FB';-inkscape-font-specification:'Berlin Sans FB';text-align:start;letter-spacing:0px;word-spacing:0px;text-anchor:start;fill:#ffffff;fill-opacity:1;stroke:none"
         x="-962.76422"
         y="2569.636"
         id="text6360"
         sodipodi:linespacing="125%"><tspan
           style="font-style:normal;font-variant:normal;font-weight:normal;font-stretch:normal;font-family:'Open Sans';-inkscape-font-specification:'Open Sans';text-align:start;text-anchor:start;fill:#ffffff"
           sodipodi:role="line"
           x="-962.76422"
           y="2569.636"
           id="tspan6362">Made Near <tspan
   id="tspan6366"
   style="font-style:oblique;-inkscape-font-specification:'Open Sans Oblique'">Me</tspan></tspan><tspan
           style="text-align:start;text-anchor:start;fill:#ffffff"
           sodipodi:role="line"
           x="-962.76422"
           y="2645.6682"
           id="tspan6364" /></text>
    </g>
  </g>
</svg>
