<?xml version="1.0" encoding="iso-8859-1"?>
<svg xmlns="http://www.w3.org/2000/svg" viewBox="0 0 512 512">
  <path d="M256 0C115.2 0 0 115.2 0 256s115.2 256 256 256 256-115.2 256-256S396.8 0 256 0zm0 17a238 238 0 01163.4 65.1l-65.3 64.8-18.7-48c-.9-2.5-4.3-5-7.7-5H186c-3.4 0-6 1.7-7.7 5L157 153.7h-48.6c-17 0-30.7 13.7-30.7 30.7v169c0 17 13.6 30.7 30.7 30.7h6.6l-34.2 34A238 238 0 0117 256C17 124.6 124.6 17 256 17zm59.7 239a59.4 59.4 0 01-59.7 59.7c-13.6 0-26-4.4-36-11.8l84.2-83.5a59.7 59.7 0 0111.5 35.6zm-119.4 0a59.4 59.4 0 0159.7-59.7c13.7 0 26.2 4.4 36.2 12L208 291.8a59.7 59.7 0 01-11.7-35.8zm108-59.8a76.6 76.6 0 00-48.3-17 76.5 76.5 0 00-76.8 76.8c0 18.2 6.2 34.8 16.6 47.9l-63.6 63h-24.7c-7.7 0-13.6-6-13.6-13.6v-169c0-7.7 6-13.6 13.6-13.6h54.6c3.4 0 6.9-2.6 7.7-5.2l21.3-54.6H321l19.4 49.7-36 35.6zM207.9 316a76.6 76.6 0 0048.2 16.8 76.5 76.5 0 0076.8-76.8c0-18-6.1-34.6-16.4-47.7l38-37.6h49.2c7.7 0 13.7 6 13.7 13.6v169c0 7.7-6 13.6-13.7 13.6H156.5l51.3-51zM256 495a238 238 0 01-163.2-65l46.5-46h265.2c17 0 30.7-13.7 31.6-30.7v-169c0-17-13.7-30.7-30.8-30.7h-33.7l59.8-59.4A238 238 0 01495 256c0 131.4-107.5 239-238.9 239z"/>
  <path d="M384 187.7a17.1 17.1 0 000 34.1c9.4 0 17-7.6 17-17s-7.6-17-17-17z"/>
</svg>
