<?xml version="1.0" encoding="UTF-8" standalone="no"?>
<!-- Created with Inkscape (http://www.inkscape.org/) -->

<svg
   xmlns:dc="http://purl.org/dc/elements/1.1/"
   xmlns:cc="http://creativecommons.org/ns#"
   xmlns:rdf="http://www.w3.org/1999/02/22-rdf-syntax-ns#"
   xmlns:svg="http://www.w3.org/2000/svg"
   xmlns="http://www.w3.org/2000/svg"
   xmlns:sodipodi="http://sodipodi.sourceforge.net/DTD/sodipodi-0.dtd"
   xmlns:inkscape="http://www.inkscape.org/namespaces/inkscape"
   width="320"
   height="80"
   viewBox="0 0 744.09449 1052.3622"
   id="svg2"
   version="1.1"
   inkscape:version="0.91 r13725"
   sodipodi:docname="nutrition-grade-icon.svg">
  <defs
     id="defs4" />
  <sodipodi:namedview
     id="base"
     pagecolor="#ffffff"
     bordercolor="#666666"
     borderopacity="1.0"
     inkscape:pageopacity="0.0"
     inkscape:pageshadow="2"
     inkscape:zoom="2.3794253"
     inkscape:cx="100.86167"
     inkscape:cy="111.40046"
     inkscape:document-units="px"
     inkscape:current-layer="g4253"
     showgrid="false"
     inkscape:window-width="1600"
     inkscape:window-height="838"
     inkscape:window-x="-8"
     inkscape:window-y="-8"
     inkscape:window-maximized="1"
     showguides="false" />
  <metadata
     id="metadata7">
    <rdf:RDF>
      <cc:Work
         rdf:about="">
        <dc:format>image/svg+xml</dc:format>
        <dc:type
           rdf:resource="http://purl.org/dc/dcmitype/StillImage" />
        <dc:title />
      </cc:Work>
    </rdf:RDF>
  </metadata>
  <g
     inkscape:label="Calque 1"
     inkscape:groupmode="layer"
     id="layer1">
    <g
       id="g4253"
       transform="matrix(2.9812499,0,0,2.9812499,-722.62249,1219.3625)">
      <path
         inkscape:export-ydpi="80.01255"
         inkscape:export-xdpi="80.01255"
         inkscape:export-filename="C:\Users\Stéphane\Desktop\Blogs\OpenFoodFacts\a.300x64.png"
         style="fill:none;stroke:#000000;stroke-width:8.30265903;stroke-linecap:butt;stroke-linejoin:miter;stroke-miterlimit:4;stroke-dasharray:none;stroke-opacity:1"
         d="m 1056.9404,-232.51374 -1327.57401,0"
         id="path18206"
         inkscape:connector-curvature="0" />
      <circle
         r="95.480736"
         cy="-232.51367"
         cx="140.93727"
         style="fill:#ffff00;fill-opacity:1;fill-rule:evenodd;stroke:#ffcf01;stroke-width:8.30265903;stroke-linecap:round;stroke-linejoin:round;stroke-miterlimit:4;stroke-dasharray:none;stroke-dashoffset:0;stroke-opacity:1"
         id="path18214" />
      <path
         inkscape:connector-curvature="0"
         id="path5447"
         style="font-style:normal;font-variant:normal;font-weight:bold;font-stretch:normal;font-size:162.23091125px;line-height:89.99999762%;font-family:'Open Sans';-inkscape-font-specification:'Open Sans Bold';letter-spacing:0px;word-spacing:0px;fill:#000000;fill-opacity:1;stroke:none"
         d="m 98.003122,-290.41936 36.042508,0 q 24.63566,0 35.72566,7.05008 11.16922,6.97086 11.16922,22.25922 0,10.37707 -4.91129,17.03108 -4.83207,6.654 -12.91193,8.00064 l 0,0.79214 q 11.01079,2.45565 15.84286,9.18886 4.91129,6.73322 4.91129,17.90244 0,15.84286 -11.48608,24.71486 -11.40686,8.87201 -31.05201,8.87201 l -43.330228,0 0,-115.81133 z m 24.556438,45.86509 14.25857,0 q 9.98101,0 14.41701,-3.08936 4.51522,-3.08936 4.51522,-10.21864 0,-6.65401 -4.91129,-9.50572 -4.83207,-2.93093 -15.36758,-2.93093 l -12.91193,0 0,25.74465 z m 0,19.48672 0,30.18065 16.00129,0 q 10.13943,0 14.9715,-3.8815 4.83208,-3.8815 4.83208,-11.88214 0,-14.41701 -20.59572,-14.41701 l -15.20915,0 z" />
      <circle
         r="95.480736"
         cy="-232.51367"
         cx="417.00076"
         style="fill:#ff6701;fill-opacity:1;fill-rule:evenodd;stroke:#803300;stroke-width:8.30265903;stroke-linecap:round;stroke-linejoin:round;stroke-miterlimit:4;stroke-dasharray:none;stroke-dashoffset:0;stroke-opacity:1"
         id="path18220" />
      <path
         inkscape:connector-curvature="0"
         id="path5441"
         style="font-style:normal;font-variant:normal;font-weight:bold;font-stretch:normal;font-size:162.23091125px;line-height:89.99999762%;font-family:'Open Sans';-inkscape-font-specification:'Open Sans Bold';letter-spacing:0px;word-spacing:0px;fill:#000000;fill-opacity:1;stroke:none"
         d="m 418.91733,-271.60597 q -13.8625,0 -21.46708,10.45629 -7.60457,10.37708 -7.60457,28.99244 0,38.7358 29.07165,38.7358 12.19901,0 29.54694,-6.0995 l 0,20.59572 q -14.25858,5.94107 -31.84415,5.94107 -25.26937,0 -38.65659,-15.28836 -13.38722,-15.36758 -13.38722,-44.04316 0,-18.06086 6.57479,-31.60651 6.57479,-13.62486 18.85301,-20.83336 12.35743,-7.28772 28.91322,-7.28772 16.87265,0 33.90373,8.15907 l -7.92143,19.96201 q -6.49558,-3.08936 -13.07037,-5.38657 -6.57478,-2.29722 -12.91193,-2.29722 z" />
      <circle
         r="95.480736"
         cy="-232.51367"
         cx="969.12756"
         style="fill:#ff0000;fill-opacity:1;fill-rule:evenodd;stroke:#800000;stroke-width:8.30265903;stroke-linecap:round;stroke-linejoin:round;stroke-miterlimit:4;stroke-dasharray:none;stroke-dashoffset:0;stroke-opacity:1"
         id="path18226" />
      <path
         inkscape:connector-curvature="0"
         id="path5435"
         style="font-style:normal;font-variant:normal;font-weight:bold;font-stretch:normal;font-size:162.23091125px;line-height:89.99999762%;font-family:'Open Sans';-inkscape-font-specification:'Open Sans Bold';letter-spacing:0px;word-spacing:0px;fill:#000000;fill-opacity:1;stroke:#000000;stroke-width:4.15132952;stroke-miterlimit:4;stroke-dasharray:none;stroke-opacity:1"
         d="m 1002.4768,-174.60803 -66.69842,0 0,-115.81133 66.69842,0 0,20.12044 -42.14199,0 0,25.42779 39.21109,0 0,20.12044 -39.21109,0 0,29.86379 42.14199,0 0,20.27887 z" />
      <circle
         r="95.480675"
         cy="-232.51366"
         cx="693.06415"
         style="fill:#ff0180;fill-opacity:1;fill-rule:evenodd;stroke:#800041;stroke-width:8.30246162;stroke-miterlimit:4;stroke-dasharray:none;stroke-opacity:1"
         id="path18234" />
      <path
         inkscape:connector-curvature="0"
         id="path5438"
         style="font-style:normal;font-variant:normal;font-weight:bold;font-stretch:normal;font-size:177.12339783px;line-height:89.99999762%;font-family:'Open Sans';-inkscape-font-specification:'Open Sans Bold';letter-spacing:0px;word-spacing:0px;fill:#000000;fill-opacity:1;stroke:none"
         d="m 749.44202,-233.7245 q 0,31.22146 -17.81612,47.82678 -17.72964,16.60532 -51.28622,16.60532 l -35.80522,0 0,-126.44259 39.69709,0 q 30.962,0 48.08624,16.34586 17.12423,16.34586 17.12423,45.66463 z m -27.8485,0.69189 q 0,-40.73492 -35.97819,-40.73492 l -14.2702,0 0,82.3347 11.50265,0 q 38.74574,0 38.74574,-41.59978 z" />
      <circle
         r="145.29659"
         cy="-232.51367"
         cx="-184.94208"
         style="fill:#00ff00;fill-opacity:1;fill-rule:evenodd;stroke:#008000;stroke-width:8.30255508;stroke-miterlimit:4;stroke-dasharray:none;stroke-opacity:1"
         id="path18286" />
      <path
         inkscape:connector-curvature="0"
         id="path5444"
         style="font-style:normal;font-variant:normal;font-weight:bold;font-stretch:normal;font-size:265.68508911px;line-height:89.99999762%;font-family:'Open Sans';-inkscape-font-specification:'Open Sans Bold';letter-spacing:0px;word-spacing:0px;fill:#000000;fill-opacity:1;stroke:none;stroke-width:6.22699404;stroke-miterlimit:4;stroke-dasharray:none;stroke-opacity:1"
         d="m -136.618,-137.29259 -13.75128,-45.14571 -69.14558,0 -13.75128,45.14571 -43.3295,0 66.94019,-190.44224 49.16731,0 67.199642,190.44224 -43.329502,0 z m -23.35123,-78.87526 q -19.07017,-61.36184 -21.53502,-69.40504 -2.33512,-8.0432 -3.37296,-12.71345 -4.28105,16.60532 -24.51879,82.11849 l 49.42677,0 z" />
    </g>
  </g>
</svg>
