<svg xmlns="http://www.w3.org/2000/svg" width="178" height="138" viewBox="0 0 178 138">
  <g fill="none" fill-rule="evenodd" transform="translate(-1 -12)">
    <path fill="#06F" fill-rule="nonzero" d="M171,35 L171,41.41101 C172.19571,41.855348 173.20515,42.471493 173.99122,43.172218 L174.01672,35 L171,35 Z M175,35 L175,43.312003 L176,42.473327 L176,35 L175,35 Z M177,35 L177,41.606702 L178,40.62824 L178,52.39764 L177,51.39123 L177.0383,104 L179,104 L179,35 L177,35 Z M175,49.685929 L175,104 L176,104 L176,50.524594 L175,49.685929 Z M174,49.825703 C173.21402,50.527654 172.20431,51.13894 171,51.586923 L171.008,104 L174.008,104 L174,49.825703 Z"/>
    <path fill="#0CF" fill-rule="nonzero" d="M155,35 L155,104 L158,104 L158,50.189128 C156.67638,49.174323 155.87538,47.917706 155.87538,46.526913 C155.87538,45.136132 156.67638,43.851557 158,42.836752 L158,35 L155,35 Z M159,35 L159,42.193768 C160.12603,41.550771 161.49599,41.065053 163.02565,40.795973 L163,35 L159,35 Z M164,35 L163.92,40.62824 C164.24965,40.5918 164.58619,40.58859 164.92641,40.57239 L165,35.000057 C164.64847,35.000103 164.35153,35 164,35 Z M166,35 L166,40.544374 C166.68266,40.552674 167.34304,40.625344 167.9849,40.712107 L168,35 L166,35 Z M159,50.860072 L159,104 L163,104 L163,52.229907 C161.41324,51.961077 160.12549,51.502175 159,50.860072 Z M168,52.341721 C167.35923,52.429251 166.69651,52.473373 166.0151,52.481506 L166,104 L168,104 L168,52.341721 Z M164,52.397691 L164,104 L165,104 L165.006,52.453598 C164.66578,52.437278 164.32924,52.434188 163.99959,52.397691 L164,52.397691 Z"/>
    <polygon fill="#00D400" fill-rule="nonzero" points="151 35.012 151 104 152 104 152 35.012"/>
    <polygon fill="#00D400" fill-rule="nonzero" points="147 35.012 147 104 150 104 150 35.012"/>
    <polygon fill="#00D400" fill-rule="nonzero" points="144 35.012 144 104 146 104 146 35.012"/>
    <polygon fill="#00D400" fill-rule="nonzero" points="142 35.012 142 104 143 104 143 35.012"/>
    <polygon fill="#00D400" fill-rule="nonzero" points="136 33 136 104 139 104 139 35"/>
    <polygon fill="#00D400" fill-rule="nonzero" points="133 35 133 104 135 104 135 35"/>
    <polygon fill="#00D400" fill-rule="nonzero" points="130 35 130 104 132 104 132 35"/>
    <polygon fill="#00D400" fill-rule="nonzero" points="126 35 126 104 127 104 127 35"/>
    <polygon fill="#00D400" fill-rule="nonzero" points="122 35 122 104 123 104 123 35"/>
    <polygon fill="#00D400" fill-rule="nonzero" points="117 35 117 104 119 104 119 35"/>
    <polygon fill="#00D400" fill-rule="nonzero" points="113 35 113 104 114 104 114 35"/>
    <polygon fill="#00D400" fill-rule="nonzero" points="111 35 111 104 112 104 112 35"/>
    <polygon fill="#00D400" fill-rule="nonzero" points="109 35 109 104 110 104 110 35"/>
    <polygon fill="#00D400" fill-rule="nonzero" points="104 35 104 104 106 104 106 35"/>
    <polygon fill="#00D400" fill-rule="nonzero" points="100 35 100 104 101 104 101 35"/>
    <polygon fill="#00D400" fill-rule="nonzero" points="95.983 35.012 96 104 97 104 96.983 35.012"/>
    <polygon fill="#FC0" fill-rule="nonzero" points="91 30 91 104 93 104 93 30"/>
    <polygon fill="#FC0" fill-rule="nonzero" points="89 35 89 104 90 104 90 35"/>
    <polygon fill="#FC0" fill-rule="nonzero" points="86 19 86 104 88 104 88 19"/>
    <polygon fill="#FC0" fill-rule="nonzero" points="82 35 82 104 85 104 85 35"/>
    <polygon fill="#FC0" fill-rule="nonzero" points="78 35 78 104 79 104 79 35"/>
    <polygon fill="#FC0" fill-rule="nonzero" points="75 29 75 104 77 104 77 29"/>
    <polygon fill="#FC0" fill-rule="nonzero" points="71 35 71 104 74 104 74 35"/>
    <polygon fill="#FC0" fill-rule="nonzero" points="67 35 67 104 68 104 68 35"/>
    <polygon fill="#FC0" fill-rule="nonzero" points="65 35 65 104 66 104 66 35"/>
    <polygon fill="#FC0" fill-rule="nonzero" points="59.974 34.917 60 104 62 104 61.973 34.917"/>
    <polygon fill="#FC0" fill-rule="nonzero" points="56 24 56 104 57 104 57 24"/>
    <polygon fill="#FC0" fill-rule="nonzero" points="53 35 53 104 55 104 55 35"/>
    <polygon fill="#FC0" fill-rule="nonzero" points="47 35 47 104 50 104 50 35"/>
    <polygon fill="#FC0" fill-rule="nonzero" points="45 35 45 104 46 104 46 35"/>
    <polygon fill="#FC0" fill-rule="nonzero" points="41 35 41 104 42 104 42 35"/>
    <polygon fill="#FC0" fill-rule="nonzero" points="38 35 38 104 40 104 40 35"/>
    <polygon fill="red" fill-rule="nonzero" points="34 29 34 104 35 104 35 29"/>
    <polygon fill="red" fill-rule="nonzero" points="31 28 31 104 33 104 33 28"/>
    <polygon fill="red" fill-rule="nonzero" points="27 35 27 104 30 104 30 35"/>
    <polygon fill="red" fill-rule="nonzero" points="23 35 23 104 26 104 26 35"/>
    <polygon fill="red" fill-rule="nonzero" points="20 29 20 104 22 104 22 29"/>
    <polygon fill="red" fill-rule="nonzero" points="16 30 16 104 19 104 19 30"/>
    <polygon fill="red" fill-rule="nonzero" points="12 35 12 104 13 104 13 35"/>
    <polygon fill="red" fill-rule="nonzero" points="9 35 9 104 10 104 10 35"/>
    <polygon fill="red" fill-rule="nonzero" points="3.999 34.917 3.999 104 4.998 104 4.998 34.917"/>
    <polygon fill="red" fill-rule="nonzero" points="1 34.917 1 104 2.999 104 2.999 34.917"/>
    <path fill="red" fill-rule="nonzero" d="M13.96037,29.168037 C14.59009,28.352461 14.679493,26.491883 15.241779,24.809194 C15.647084,23.596268 15.705312,20.212207 16.45043,19.926765 C17.41877,19.555814 19.620031,19.568686 20.674418,19.510136 C22.974477,19.382437 25.193349,20.608795 27.496957,20.611272 C30.48781,20.614872 36.357965,19.200676 36.357965,19.200676 L36.217846,17.1618501 L37.723453,17.4399087 L41.800403,16.9230038 L38.791999,18.3091409 C38.791999,18.3091409 39.993863,18.2880639 40.480021,18.585973 C41.185069,19.018082 41.440015,19.93335 41.948941,20.585135 C42.240908,20.959063 43.031418,21.239515 42.857278,21.680806 C42.387434,22.871417 39.048301,22.16675 39.048301,22.16675 L37.129565,23.970076 C36.296556,25.749063 34.868195,27.231915 34.875969,30.692459 C34.875969,30.692459 28.869078,29.769451 25.884786,29.895829 C24.120779,29.970489 20.915812,30.513902 20.915812,30.513902 C19.307094,30.376712 17.61931,29.984839 16.010593,30.264362 C16.020093,24.028877 16.877276,24.1355 16.709353,20.969541 C16.27017,22.649527 15.738297,25.486092 15.68251,26.742005 C15.147754,28.267809 15.6706,28.641677 13.96037,29.168037 Z"/>
    <g fill="#FC0" fill-rule="nonzero" transform="rotate(-37.642 59.283 -68.62)">
      <ellipse cx="1.227" cy="2.055" rx="1.235" ry="1" transform="rotate(-54.359 1.227 2.055)"/>
      <path d="M1.41475845,1.10210307 C1.41475845,1.10210307 1.68553053,1.05857812 1.80401847,0.994721125 C2.21909324,0.771023775 2.81072523,0.00143701346 2.81072523,0.00143701346 C2.81072523,0.00143701346 2.18793126,0.812092819 2.05905087,1.22290766 C2.02011902,1.34700572 2.03220538,1.61216768 2.03220538,1.61216768 L1.41475845,1.10210307 Z"/>
    </g>
    <g fill="#FC0" fill-rule="nonzero" transform="translate(52.624 21.199)">
      <g transform="translate(3.09 .133)">
        <g transform="translate(.842 6.155)">
          <ellipse cx="1.227" cy="2.055" rx="1.235" ry="1" transform="rotate(-54.359 1.227 2.055)"/>
          <path d="M1.41475889,1.10210341 C1.41475889,1.10210341 1.68553106,1.05857845 1.80401903,0.994721434 C2.21909393,0.771024014 2.8107261,0.00143701391 2.8107261,0.00143701391 C2.8107261,0.00143701391 2.18793194,0.812093071 2.05905151,1.22290804 C2.02011965,1.34700614 2.03220601,1.61216818 2.03220601,1.61216818 L1.41475889,1.10210341 Z"/>
        </g>
        <g transform="translate(.842 7.947)">
          <ellipse cx="1.227" cy="2.055" rx="1.235" ry="1" transform="rotate(-54.359 1.227 2.055)"/>
          <path d="M1.41475889,1.10210341 C1.41475889,1.10210341 1.68553106,1.05857845 1.80401903,0.994721434 C2.21909393,0.771024014 2.8107261,0.00143701391 2.8107261,0.00143701391 C2.8107261,0.00143701391 2.18793194,0.812093071 2.05905151,1.22290804 C2.02011965,1.34700614 2.03220601,1.61216818 2.03220601,1.61216818 L1.41475889,1.10210341 Z"/>
        </g>
        <g transform="translate(.842 4.363)">
          <ellipse cx="1.227" cy="2.055" rx="1.235" ry="1" transform="rotate(-54.359 1.227 2.055)"/>
          <path d="M1.41475889,1.10210341 C1.41475889,1.10210341 1.68553106,1.05857845 1.80401903,0.994721434 C2.21909393,0.771024014 2.8107261,0.00143701391 2.8107261,0.00143701391 C2.8107261,0.00143701391 2.18793194,0.812093071 2.05905151,1.22290804 C2.02011965,1.34700614 2.03220601,1.61216818 2.03220601,1.61216818 L1.41475889,1.10210341 Z"/>
        </g>
        <g transform="translate(.842 2.57)">
          <ellipse cx="1.227" cy="2.055" rx="1.235" ry="1" transform="rotate(-54.359 1.227 2.055)"/>
          <path d="M1.41475889,1.10210341 C1.41475889,1.10210341 1.68553106,1.05857845 1.80401903,0.994721434 C2.21909393,0.771024014 2.8107261,0.00143701391 2.8107261,0.00143701391 C2.8107261,0.00143701391 2.18793194,0.812093071 2.05905151,1.22290804 C2.02011965,1.34700614 2.03220601,1.61216818 2.03220601,1.61216818 L1.41475889,1.10210341 Z"/>
        </g>
        <g transform="rotate(-10.674 5.537 -1.47)">
          <ellipse cx="1.227" cy="2.055" rx="1.235" ry="1" transform="rotate(-54.359 1.227 2.055)"/>
          <path d="M1.4147585,1.10210311 C1.4147585,1.10210311 1.6855306,1.05857816 1.80401854,0.994721164 C2.21909332,0.771023805 2.81072534,0.00143701352 2.81072534,0.00143701352 C2.81072534,0.00143701352 2.18793135,0.812092851 2.05905095,1.22290771 C2.0201191,1.34700577 2.03220546,1.61216774 2.03220546,1.61216774 L1.4147585,1.10210311 Z"/>
        </g>
      </g>
      <g transform="translate(.668 .133)">
        <g transform="matrix(-1 0 0 1 3.102 6.155)">
          <ellipse cx="1.227" cy="2.055" rx="1.235" ry="1" transform="rotate(-54.359 1.227 2.055)"/>
          <path d="M1.41475889,1.10210341 C1.41475889,1.10210341 1.68553106,1.05857845 1.80401903,0.994721434 C2.21909393,0.771024014 2.8107261,0.00143701391 2.8107261,0.00143701391 C2.8107261,0.00143701391 2.18793194,0.812093071 2.05905151,1.22290804 C2.02011965,1.34700614 2.03220601,1.61216818 2.03220601,1.61216818 L1.41475889,1.10210341 Z"/>
        </g>
        <g transform="matrix(-1 0 0 1 3.102 7.947)">
          <ellipse cx="1.227" cy="2.055" rx="1.235" ry="1" transform="rotate(-54.359 1.227 2.055)"/>
          <path d="M1.41475889,1.10210341 C1.41475889,1.10210341 1.68553106,1.05857845 1.80401903,0.994721434 C2.21909393,0.771024014 2.8107261,0.00143701391 2.8107261,0.00143701391 C2.8107261,0.00143701391 2.18793194,0.812093071 2.05905151,1.22290804 C2.02011965,1.34700614 2.03220601,1.61216818 2.03220601,1.61216818 L1.41475889,1.10210341 Z"/>
        </g>
        <g transform="matrix(-1 0 0 1 3.102 4.363)">
          <ellipse cx="1.227" cy="2.055" rx="1.235" ry="1" transform="rotate(-54.359 1.227 2.055)"/>
          <path d="M1.41475889,1.10210341 C1.41475889,1.10210341 1.68553106,1.05857845 1.80401903,0.994721434 C2.21909393,0.771024014 2.8107261,0.00143701391 2.8107261,0.00143701391 C2.8107261,0.00143701391 2.18793194,0.812093071 2.05905151,1.22290804 C2.02011965,1.34700614 2.03220601,1.61216818 2.03220601,1.61216818 L1.41475889,1.10210341 Z"/>
        </g>
        <g transform="matrix(-1 0 0 1 3.102 2.57)">
          <ellipse cx="1.227" cy="2.055" rx="1.235" ry="1" transform="rotate(-54.359 1.227 2.055)"/>
          <path d="M1.41475889,1.10210341 C1.41475889,1.10210341 1.68553106,1.05857845 1.80401903,0.994721434 C2.21909393,0.771024014 2.8107261,0.00143701391 2.8107261,0.00143701391 C2.8107261,0.00143701391 2.18793194,0.812093071 2.05905151,1.22290804 C2.02011965,1.34700614 2.03220601,1.61216818 2.03220601,1.61216818 L1.41475889,1.10210341 Z"/>
        </g>
        <g transform="scale(-1 1) rotate(-10.674 3.566 19.638)">
          <ellipse cx="1.227" cy="2.055" rx="1.235" ry="1" transform="rotate(-54.359 1.227 2.055)"/>
          <path d="M1.4147585,1.10210311 C1.4147585,1.10210311 1.6855306,1.05857816 1.80401854,0.994721164 C2.21909332,0.771023805 2.81072534,0.00143701352 2.81072534,0.00143701352 C2.81072534,0.00143701352 2.18793135,0.812092851 2.05905095,1.22290771 C2.0201191,1.34700577 2.03220546,1.61216774 2.03220546,1.61216774 L1.4147585,1.10210311 Z"/>
        </g>
      </g>
    </g>
    <g fill="#FC0" fill-rule="nonzero" transform="rotate(-48.948 72.218 -79.064)">
      <circle cx="7.024" cy="7.476" r="1.848"/>
      <circle cx="7.504" cy="4.441" r="1.848" transform="rotate(-72 7.504 4.441)"/>
      <circle cx="4.766" cy="3.046" r="1.848" transform="rotate(-144 4.766 3.046)"/>
      <circle cx="2.594" cy="5.219" r="1.848" transform="rotate(144 2.594 5.219)"/>
      <circle cx="3.989" cy="7.957" r="1.848" transform="rotate(72 3.989 7.957)"/>
    </g>
    <g fill="#FC0" fill-rule="nonzero" transform="rotate(-151.408 47.443 .913)">
      <circle cx="7.024" cy="7.476" r="1.848"/>
      <circle cx="7.504" cy="4.441" r="1.848" transform="rotate(-72 7.504 4.441)"/>
      <circle cx="4.766" cy="3.046" r="1.848" transform="rotate(-144 4.766 3.046)"/>
      <circle cx="2.594" cy="5.219" r="1.848" transform="rotate(144 2.594 5.219)"/>
      <circle cx="3.989" cy="7.957" r="1.848" transform="rotate(72 3.989 7.957)"/>
    </g>
    <g fill="#FC0" fill-rule="nonzero" transform="rotate(-64.825 56.944 -39.981)">
      <circle cx="7.024" cy="7.476" r="1.848"/>
      <circle cx="7.504" cy="4.441" r="1.848" transform="rotate(-72 7.504 4.441)"/>
      <circle cx="4.766" cy="3.046" r="1.848" transform="rotate(-144 4.766 3.046)"/>
      <circle cx="2.594" cy="5.219" r="1.848" transform="rotate(144 2.594 5.219)"/>
      <circle cx="3.989" cy="7.957" r="1.848" transform="rotate(72 3.989 7.957)"/>
    </g>
    <path fill="#00D400" fill-rule="nonzero" d="M123.44657,15.3372804 C132.63587,16.2870331 136.07702,23.767884 136,37 L138.96392,35.601391 C138.96392,34.139496 138.93842,34.35203 138.93842,32.890147 C138.93842,22.02325 132.53444,15.61547 128.0266,14.546568 L123.44657,15.3372804 Z"/>
    <g fill-rule="nonzero" transform="translate(109.294 12.197)">
      <path fill="#00D400" d="M1.00088042,18.5156078 C9.93647692,15.9597853 21.0043275,15.467468 19.0620298,2.38466142 C1.94728951,-5.66985758 7.71575728,9.45162934 1.00088042,18.5156078 Z"/>
      <path fill="#FFF" d="M20.1360426,1.02743172 C15.6900141,7.16787719 6.00505886,16.2035868 0.0520291066,18.8974797 C6.02938265,16.6743625 17.631775,7.56806117 20.1360426,1.02743172 Z"/>
    </g>
    <g fill-rule="nonzero" transform="scale(-1 1) rotate(-3.091 146.539 2932.321)">
      <path fill="#00D400" d="M1.00088042,18.5156078 C9.93647691,15.9597853 21.0043274,15.4674679 19.0620297,2.38466142 C1.17144213,-4.09926023 7.71575727,9.45162933 1.00088042,18.5156078 Z"/>
      <path fill="#FFF" d="M20.1360425,1.02743172 C15.690014,7.16787718 6.00505885,16.2035868 0.0520291066,18.8974796 C6.02938264,16.6743625 17.631775,7.56806116 20.1360425,1.02743172 Z"/>
    </g>
    <path fill="#00D400" fill-rule="nonzero" d="M138.87818,13.6040196 C136.88514,15.1688092 136.07702,23.767884 136,37 L138.96392,35.601391 C138.96392,34.139496 139.00002,37.461883 139.00002,36 C139.00002,25.133103 139.85888,16.6777988 140.21538,14.8820341 L138.87818,13.6040196 Z"/>
    <circle cx="160.092" cy="44.276" r="1" fill="#0CF" fill-rule="nonzero"/>
    <g fill-rule="nonzero" transform="translate(.322 126.153)">
      <path fill="#06F" d="M170.677591,0.846823807 L170.677591,5.84682381 C173.343278,5.84682381 176.011828,5.84682381 178.677515,5.84682381 L178.677515,0.846823807 C176.011828,0.846823807 173.343278,0.846823807 170.677681,0.846823807 L170.677591,0.846823807 Z"/>
      <path fill="#0CF" d="M154.677565,0.846823807 L154.677565,5.84682381 C159.011633,5.84682381 163.343463,5.84682381 167.67753,5.84682381 L167.67753,0.846823807 C163.343463,0.846823807 159.011633,0.846823807 154.677565,0.846823807 Z"/>
      <path fill="#00D400" d="M95.6775478,0.846823807 L95.6775478,5.84682381 C114.337149,5.84682381 133.017966,5.84682381 151.677594,5.84682381 L151.677594,0.846823807 C133.017966,0.846823807 114.337149,0.846823807 95.6775478,0.846823807 Z"/>
      <path fill="#FC0" d="M37.6775477,0.846823807 L37.6775477,5.84682381 C56.0109354,5.84682381 74.3441709,5.84682381 92.6775477,5.84682381 L92.6775477,0.846823807 C74.3441709,0.846823807 56.0109354,0.846823807 37.6775477,0.846823807 Z"/>
      <path fill="red" d="M0.677552576,0.846823807 L0.677552576,5.84682381 C12.0112577,5.84682381 23.3438534,5.84682381 34.6775526,5.84682381 L34.6775526,0.846823807 C23.3438534,0.846823807 12.0112577,0.846823807 0.677552576,0.846823807 Z"/>
    </g>
    <g fill="#333" fill-rule="nonzero" transform="translate(1 106.638)">
      <path d="M.29533203 9.18406C.29533203 6.38833.91039384 4.239337 2.1405221 2.737078 3.3706449 1.234848 4.9027103.483709 6.736723.483709 7.9221092.483709 9.0031286.819215 9.9797844 1.490177 10.956419 2.16117 11.729907 3.135951 12.300251 4.414523 12.870569 5.69312 13.155748 7.21587 13.155748 8.98277 13.155748 11.4132 12.604041 13.39259 11.500668 14.92092 10.285441 16.60583 8.6937334 17.44828 6.72554 17.44828 4.7424212 17.44828 3.1469857 16.58346 1.9392287 14.85383.84329608 13.28821.29533203 11.39829.29533203 9.18406zM2.1293392 9.21756C2.1293392 11.23796 2.5747909 12.80543 3.4657041 13.92 4.3566091 15.03457 5.4394923 15.59185 6.714357 15.59185 8.0190282 15.59185 9.1130944 15.02898 9.9965588 13.90322 10.880002 12.77748 11.321741 11.1224 11.321741 8.93798 11.321741 7.52894 11.094342 6.26899 10.63958 5.15814 10.289169 4.308298 9.761706 3.628001 9.0571893 3.117299 8.3526532 2.606624 7.5828928 2.351265 6.7479059 2.351265 5.4059434 2.351265 4.3006943 2.910428 3.4321552 4.028711 2.563608 5.14702 2.1293392 6.87665 2.1293392 9.21761L2.1293392 9.21756zM15 17.362183L15 .362183 19.674837.362183C20.899004.362183 21.801832.469314 22.383324.683529 23.179028.974286 23.814068 1.513688 24.288446 2.301735 24.762803 3.089812 25 4.057676 25 5.20533 25 6.72025 24.613608 7.9559 23.840858 8.91228 23.068087 9.86868 21.732946 10.33661 19.83551 10.34686L17 10.362183 17 17.362183 15 17.362183zM17 8.36218L19.86994 8.36141C20.994643 8.36111 21.817135 8.10702 22.337417 7.59821 22.857682 7.08942 23.117829 6.3224 23.117829 5.29714 23.117829 4.631508 22.989663 4.061502 22.733362 3.587118 22.477041 3.112765 22.167172 2.787594 21.803754 2.611604 21.440319 2.435644 20.784238 2.347641 19.83551 2.347641L17 2.362183 17 8.36218z"/>
      <polygon points="27 17.362 27 .362 37 .362 37 2.362 29 2.362 29 7.362 36 7.362 36 9.362 29 9.362 29 15.362 37 15.362 37 17.362"/>
      <polygon points="39 17.362 39 .362 41 .362 48 13.362 48 .362 50 .362 50 17.362 48 17.362 41 4.362 41 17.362"/>
      <polygon points="58 17.362 58 .362 67 .362 67 2.362 60 2.362 60 7.362 66 7.362 66 9.362 60 9.362 60 17.362"/>
      <path d="M68.255995 9.18406C68.255995 6.38833 68.871057 4.239337 70.101185 2.737078 71.331308 1.234848 72.863373.483709 74.697386.483709 75.882772.483709 76.963791.819215 77.940447 1.490177 78.917082 2.16117 79.69057 3.135951 80.260914 4.414523 80.831232 5.69312 81.116411 7.21587 81.116411 8.98277 81.116411 11.4132 80.564704 13.39259 79.461331 14.92092 78.246104 16.60583 76.654396 17.44828 74.686203 17.44828 72.703084 17.44828 71.107649 16.58346 69.899892 14.85383 68.803959 13.28821 68.255995 11.39829 68.255995 9.18406zM70.090002 9.21756C70.090002 11.23796 70.535454 12.80543 71.426367 13.92 72.317272 15.03457 73.400155 15.59185 74.67502 15.59185 75.979691 15.59185 77.073757 15.02898 77.957222 13.90322 78.840665 12.77748 79.282404 11.1224 79.282404 8.93798 79.282404 7.52894 79.055005 6.26899 78.600242 5.15814 78.249832 4.308248 77.722369 3.627951 77.017852 3.117249 76.313316 2.606574 75.543556 2.351215 74.708569 2.351215 73.366606 2.351215 72.261357 2.910378 71.392818 4.028661 70.524271 5.14697 70.090002 6.8766 70.090002 9.21756zM82.883322 9.18406C82.883322 6.38833 83.498384 4.239337 84.728512 2.737078 85.958635 1.234848 87.4907.483709 89.324713.483709 90.510099.483709 91.591118.819215 92.567774 1.490177 93.544409 2.16117 94.317897 3.135951 94.888241 4.414523 95.458558 5.69312 95.743738 7.21587 95.743738 8.98277 95.743738 11.4132 95.192031 13.39259 94.088658 14.92092 92.873431 16.60583 91.281723 17.44828 89.31353 17.44828 87.330411 17.44828 85.734975 16.58346 84.527218 14.85383 83.431286 13.28821 82.883322 11.39829 82.883322 9.18406zM84.717329 9.21756C84.717329 11.23796 85.162781 12.80543 86.053694 13.92 86.944599 15.03457 88.027482 15.59185 89.302347 15.59185 90.607018 15.59185 91.701084 15.02898 92.584549 13.90322 93.467992 12.77748 93.909731 11.1224 93.909731 8.93798 93.909731 7.52894 93.682332 6.26899 93.227569 5.15814 92.877159 4.308248 92.349696 3.627951 91.645179 3.117249 90.940643 2.606574 90.170883 2.351215 89.335896 2.351215 87.993933 2.351215 86.888684 2.910378 86.020145 4.028661 85.151598 5.14697 84.717329 6.8766 84.717329 9.21756zM98 17.362183L98 .362183 103 .362183C104.21266.362183 105.00501.536459 105.63497.744862 106.46179 1.015051 107.17836 1.464438 107.78471 2.182311 108.39104 2.900214 108.86351 3.805293 109.20212 4.897544 109.54071 5.98983 109.71002 7.28473 109.71002 8.78225 109.71002 10.70435 109.42259 12.33503 108.84777 13.67432 108.27292 15.0136 107.53468 15.96307 106.63306 16.52272 105.73143 17.08236 104.45678 17.362183 103 17.362183L98 17.362183zM100 15.362183L103 15.362183C104.22054 15.362183 105.01682 15.16427 105.64678 14.77445 106.27674 14.38463 106.76102 13.75744 107.09963 12.89288 107.54846 11.74273 107.7729 10.36485 107.7729 8.75923 107.7729 7.03786 107.53468 5.68507 107.05829 4.700858 106.58187 3.716665 105.96963 3.058601 105.22156 2.72666 104.71759 2.502677 104.09454 2.362183 103 2.362183L100 2.362183 100 15.362183z"/>
      <polygon points="118 17.362 118.076 .362 127.076 .362 127.076 2.362 120.076 2.362 120.076 7.362 126.076 7.362 126.076 9.362 120.076 9.362 120.076 17.362"/>
      <polygon points="128.076 17.362 133.076 .362 135.076 .362 140.076 17.362 138.076 17.362 134.076 2.362 130.035 17.362"/>
      <path d="M151.36137,11.42065 L153.15064,11.96862 C152.7555,13.81009 152.06402,15.18373 151.0762,16.08954 C150.08836,16.99537 148.88619,17.44828 147.46969,17.44828 C146.22465,17.44828 145.1604,17.14447 144.27696,16.53686 C143.3935,15.92926 142.67033,14.95448 142.10746,13.61252 C141.54458,12.27057 141.26314,10.68631 141.26314,8.85975 C141.26314,7.05558 141.54458,5.5291 142.10746,4.280328 C142.67033,3.031577 143.43264,2.088481 144.39438,1.451036 C145.35611,0.813623 146.42967,0.494892 147.61507,0.494892 C148.91229,0.494892 150.02686,0.899359 150.95878,1.708245 C151.89068,2.517161 152.54302,3.704418 152.9158,5.27002 L151.17126,5.77325 C150.57482,3.491942 149.37824,2.35128 147.58152,2.351265 C146.68688,2.35128 145.91153,2.580531 145.25547,3.039018 C144.59939,3.497534 144.07566,4.211379 143.68426,5.18056 C143.29285,6.14976 143.09715,7.37616 143.09715,8.85975 C143.09715,11.10381 143.49228,12.78684 144.28255,13.90887 C145.07281,15.03089 146.124,15.5919 147.43614,15.5919 C148.40533,15.5919 149.24219,15.2471 149.94672,14.55748 C150.65124,13.86786 151.12279,12.82226 151.36137,11.42065 L151.36137,11.42065 Z"/>
      <polygon points="159 17.362 159 2.362 154 2.368 154 .362 166 .362 166 2.362 161 2.362 161 17.362"/>
      <path d="M167.26826,11.90152 L168.94571,11.72259 C169.03521,12.62469 169.23833,13.32735 169.55518,13.83058 C169.87203,14.33382 170.32494,14.73827 170.91391,15.04394 C171.50288,15.34961 172.1664,15.50244 172.90448,15.50244 C173.96313,15.50244 174.78507,15.24337 175.37033,14.72522 C175.95556,14.20708 176.24818,13.53424 176.24819,12.7067 C176.24818,12.22211 176.14194,11.79902 175.92947,11.43743 C175.71699,11.07585 175.39641,10.7795 174.96774,10.54838 C174.53905,10.31727 173.61273,9.99297 172.18877,9.57546 C170.92136,9.20271 170.01927,8.82621 169.48249,8.44598 C168.94571,8.06577 168.52821,7.58304 168.23,6.99779 C167.93178,6.41256 167.78268,5.7509 167.78268,5.01281 C167.78268,3.68578 168.21136,2.601033 169.06872,1.758568 C169.92608,0.916134 171.08165,0.494892 172.53544,0.494892 C173.53445,0.494892 174.40858,0.692475 175.15785,1.08759 C175.9071,1.482737 176.48861,2.04934 176.90239,2.787401 C177.31615,3.525491 177.53795,4.394034 177.56778,5.39303 L175.85678,5.54959 C175.76728,4.483498 175.4486,3.693235 174.90064,3.178805 C174.35267,2.664403 173.58291,2.407195 172.59136,2.40718 C171.58488,2.407195 170.81699,2.632718 170.28767,3.08375 C169.75833,3.53481 169.49367,4.118188 169.49367,4.833885 C169.49367,5.49742 169.68751,6.01184 170.07519,6.37713 C170.46286,6.74246 171.33513,7.11149 172.692,7.48425 C174.01904,7.84957 174.95096,8.16642 175.48775,8.4348 C176.30782,8.85231 176.92661,9.40214 177.34412,10.08429 C177.76161,10.76646 177.97037,11.58095 177.97037,12.52777 C177.97037,13.46714 177.75042,14.32264 177.31057,15.09426 C176.8707,15.86589 176.27241,16.45299 175.5157,16.85558 C174.75898,17.25816 173.84757,17.45946 172.78147,17.45946 C171.11893,17.45946 169.79375,16.95995 168.80592,15.96094 C167.81809,14.96193 167.30554,13.60879 167.26826,11.90152 L167.26826,11.90152 Z"/>
      <polygon points="137.076 10.362 137.076 12.362 131.076 12.362 131.076 10.362"/>
    </g>
    <path fill="#333" fill-rule="nonzero" d="M2.2215739,14.3253722 L2.2215739,0.724786294 L0.96484375,0.724786294 L0.96484375,14.3253722 L2.2215739,14.3253722 Z M4.02257214,5.17791129 C4.41013518,4.94907015 4.70080746,4.62436312 4.89458898,4.2037902 C5.0883705,3.78321728 5.18526126,3.13380322 5.18526126,2.25554801 L5.18526126,2.25554801 L5.18526126,0.724786294 L3.8259409,0.724786294 L3.8259409,2.67302848 L4.48422812,2.67302848 C4.46143029,3.63787223 4.20495475,4.25636181 3.71480149,4.52849723 L3.71480149,4.52849723 L4.02257214,5.17791129 Z M8.08055515,2.64519645 L8.08055515,0.724786294 L6.823825,0.724786294 L6.823825,2.64519645 L8.08055515,2.64519645 Z M8.08055515,14.3253722 L8.08055515,4.47283317 L6.823825,4.47283317 L6.823825,14.3253722 L8.08055515,14.3253722 Z M10.9929474,14.3253722 L10.9929474,8.94451286 C10.9929474,7.75701286 11.1724803,6.91895947 11.531546,6.4303527 C11.8906118,5.94174593 12.3722159,5.69744254 12.9763582,5.69744254 C13.2955278,5.69744254 13.576226,5.78866976 13.8184529,5.97112418 C14.0606798,6.15357861 14.2387879,6.41179801 14.352777,6.74578239 C14.4667661,7.07976676 14.5237607,7.60857536 14.5237607,8.33220817 L14.5237607,8.33220817 L14.5237607,14.3253722 L15.78904,14.3253722 L15.78904,8.26726676 C15.78904,7.35808707 15.7377449,6.68393343 15.6351547,6.24480582 C15.5325645,5.80567822 15.3772543,5.44850049 15.1692241,5.17327262 C14.961194,4.89804476 14.68762,4.67538851 14.3485024,4.50530387 C14.0093847,4.33521924 13.6403449,4.25017692 13.241383,4.25017692 C12.7284319,4.25017692 12.2739002,4.3846984 11.877788,4.65374137 C11.4816758,4.92278434 11.1468327,5.32944124 10.8732588,5.87371207 L10.8732588,5.87371207 L10.8732588,4.47283317 L9.73621725,4.47283317 L9.73621725,14.3253722 L10.9929474,14.3253722 Z M19.0519488,14.3253722 L19.0519488,5.77166129 L20.5053102,5.77166129 L20.5053102,4.47283317 L19.0519488,4.47283317 L19.0519488,3.56365348 C19.0519488,2.96371859 19.1331661,2.55706168 19.2956006,2.34368278 C19.4580351,2.13030387 19.7273344,2.02361442 20.1034986,2.02361442 C20.3371763,2.02361442 20.5851026,2.0545389 20.8472776,2.11638786 L20.8472776,2.11638786 L21.0353597,0.659844887 C20.6079004,0.548516762 20.214638,0.4928527 19.8555722,0.4928527 C19.3939162,0.4928527 19.0106278,0.594903481 18.7057069,0.799005044 C18.4007859,1.00310661 18.1742325,1.29843538 18.0260467,1.68499137 C17.8778608,2.07154736 17.8037679,2.65138135 17.8037679,3.42449332 L17.8037679,3.42449332 L17.8037679,4.47283317 L16.6838247,4.47283317 L16.6838247,5.77166129 L17.8037679,5.77166129 L17.8037679,14.3253722 L19.0519488,14.3253722 Z M24.1785799,14.5480285 C25.1930832,14.5480285 26.0280535,14.1150858 26.683491,13.2492004 C27.3389285,12.3833149 27.6666473,11.0659321 27.6666473,9.29705192 C27.6666473,7.66423942 27.3332291,6.41489046 26.6663927,5.54900504 C25.9995563,4.68311963 25.1702853,4.25017692 24.1785799,4.25017692 C23.1697761,4.25017692 22.3362306,4.68311963 21.6779434,5.54900504 C21.0196562,6.41489046 20.6905126,7.69825635 20.6905126,9.3991027 C20.6905126,11.0937642 21.0225059,12.3755838 21.6864926,13.2445617 C22.3504793,14.1135395 23.181175,14.5480285 24.1785799,14.5480285 Z M24.2127767,13.1749816 C23.580137,13.1749816 23.0500875,12.8641906 22.6226283,12.2426086 C22.1951691,11.6210265 21.9814395,10.6731912 21.9814395,9.3991027 C21.9814395,8.13738395 22.1923193,7.19418734 22.6140791,6.56951286 C23.0358389,5.94483838 23.5459403,5.63250114 24.1443832,5.63250114 C24.7770229,5.63250114 25.3070723,5.94329215 25.7345315,6.56487418 C26.1619908,7.18645622 26.3757204,8.13119905 26.3757204,9.3991027 C26.3757204,10.6608214 26.1634156,11.6055643 25.7388061,12.2333312 C25.3141966,12.8610981 24.8055201,13.1749816 24.2127767,13.1749816 Z M30.1259327,14.3253722 L30.1259327,9.16716911 C30.1259327,8.44972119 30.2057251,7.7724751 30.3653099,7.13543082 C30.4565012,6.77052197 30.6132363,6.48601676 30.8355151,6.2819152 C31.0577939,6.07781364 31.3028705,5.97576286 31.570745,5.97576286 C31.8671167,5.97576286 32.1720376,6.09636832 32.4855077,6.33757926 L32.4855077,6.33757926 L32.912967,4.78826286 C32.4741088,4.4295389 32.0437998,4.25017692 31.6220401,4.25017692 C31.3199689,4.25017692 31.0478198,4.36305127 30.8055929,4.58879997 C30.563366,4.81454866 30.2969164,5.27377718 30.0062442,5.96648551 L30.0062442,5.96648551 L30.0062442,4.47283317 L28.8692026,4.47283317 L28.8692026,14.3253722 L30.1259327,14.3253722 Z M34.6455717,14.3253722 L34.6455717,9.21355582 C34.6455717,7.87761832 34.8122808,6.95761507 35.145699,6.45354606 C35.4791172,5.94947705 35.9336489,5.69744254 36.509294,5.69744254 C36.9139554,5.69744254 37.2317001,5.86443473 37.4625281,6.19841911 C37.6933561,6.53240348 37.8087701,7.10759879 37.8087701,7.92400504 L37.8087701,7.92400504 L37.8087701,14.3253722 L39.0740494,14.3253722 L39.0740494,8.60125114 C39.0740494,7.59929801 39.2450331,6.86484163 39.5870005,6.397882 C39.9289679,5.93092236 40.3706757,5.69744254 40.9121241,5.69744254 C41.1742991,5.69744254 41.4108265,5.77784619 41.6217064,5.93865348 C41.8325863,6.09946077 41.9850468,6.32675569 42.0790878,6.62053825 C42.1731288,6.9143208 42.2201494,7.41375114 42.2201494,8.11882926 L42.2201494,8.11882926 L42.2201494,14.3253722 L43.4768795,14.3253722 L43.4768795,7.56218864 C43.4768795,6.40561312 43.2716991,5.56446728 42.8613382,5.03875114 C42.4509773,4.51303499 41.8895809,4.25017692 41.1771488,4.25017692 C40.7097934,4.25017692 40.283759,4.39397575 39.8990457,4.6815734 C39.5143324,4.96917106 39.1737899,5.40056754 38.8774181,5.97576286 C38.7235328,5.41293734 38.4656324,4.9846333 38.1037169,4.69085075 C37.7418014,4.39706819 37.2986687,4.25017692 36.7743187,4.25017692 C36.3069633,4.25017692 35.8766543,4.38933707 35.4833918,4.66765739 C35.0901293,4.9459777 34.76811,5.34181103 34.5173339,5.85515739 L34.5173339,5.85515739 L34.5173339,4.47283317 L33.3888416,4.47283317 L33.3888416,14.3253722 L34.6455717,14.3253722 Z M47.1757967,14.5480285 C47.66595,14.5480285 48.1390049,14.427423 48.5949614,14.1862121 C49.0509179,13.9450011 49.4897761,13.5862772 49.9115358,13.1100402 C49.951432,13.5800923 50.0369239,13.985203 50.1680114,14.3253722 L50.1680114,14.3253722 L51.4845858,14.3253722 C51.325001,13.9419087 51.2181362,13.5476216 51.1639914,13.1425109 C51.1098466,12.7374002 51.0827742,11.755548 51.0827742,10.1969543 L51.0827742,7.97039176 C51.0827742,7.06739697 51.0243547,6.38087353 50.9075159,5.91082145 C50.790677,5.44076937 50.5099788,5.04648226 50.0654212,4.72796012 C49.6208636,4.40943799 49.008172,4.25017692 48.2273465,4.25017692 C47.2242421,4.25017692 46.4533906,4.49138786 45.914792,4.97380973 C45.3761934,5.45623161 45.0185525,6.22625114 44.8418693,7.28386832 L44.8418693,7.28386832 L46.0815011,7.50652457 C46.2182881,6.78289176 46.4320177,6.28964632 46.72269,6.02678825 C47.0133622,5.76393017 47.4522204,5.63250114 48.0392644,5.63250114 C48.6890024,5.63250114 49.1706065,5.8304178 49.4840766,6.22625114 C49.7063554,6.49838655 49.8174948,6.97153109 49.8174948,7.64568473 L49.8174948,7.64568473 L49.8089456,8.07244254 C49.3301913,8.29509879 48.577863,8.48683056 47.5519609,8.64763786 C46.7882337,8.76515088 46.2182881,8.9476053 45.8421239,9.19500114 C45.4659598,9.44239697 45.1695881,9.78565869 44.9530087,10.2247863 C44.7364294,10.6639139 44.6281397,11.1679829 44.6281397,11.7369933 C44.6281397,12.5966938 44.8589677,13.2801248 45.3206237,13.7872863 C45.7822796,14.2944478 46.4006707,14.5480285 47.1757967,14.5480285 Z M47.4835674,13.239923 C47.0105125,13.239923 46.6400478,13.0992166 46.3721734,12.8178039 C46.1042989,12.5363911 45.9703617,12.1606587 45.9703617,11.6906066 C45.9703617,11.3875467 46.0287811,11.12005 46.14562,10.8881164 C46.2624588,10.6561828 46.4263182,10.4768208 46.6371981,10.3500304 C46.848078,10.2232401 47.2185427,10.1103657 47.7485921,10.0114074 C48.6605052,9.8382303 49.3472897,9.62794385 49.8089456,9.38054801 L49.8089456,9.38054801 L49.8089456,9.9928527 C49.8089456,10.8030741 49.7177543,11.4200174 49.5353717,11.8436828 C49.3529891,12.2673481 49.0779903,12.6059712 48.7103754,12.8595519 C48.3427605,13.1131326 47.9338245,13.239923 47.4835674,13.239923 Z M55.7477493,14.5480285 C56.5513726,14.5480285 57.239582,14.2387837 57.8123774,13.6202941 C58.3851727,13.0018045 58.7428136,12.1049946 58.8853,10.9298644 L58.8853,10.9298644 L57.6456683,10.7164855 C57.554477,11.5576313 57.3393225,12.1776672 57.0002048,12.5765929 C56.6610872,12.9755187 56.2521512,13.1749816 55.7733968,13.1749816 C55.163555,13.1749816 54.6634277,12.8750142 54.2730149,12.2750793 C53.8826021,11.6751444 53.6873958,10.7041157 53.6873958,9.36199332 C53.6873958,8.0631652 53.8911513,7.11532991 54.2986625,6.51848747 C54.7061736,5.92164502 55.2205495,5.62322379 55.8417903,5.62322379 C56.2578506,5.62322379 56.6140666,5.78866976 56.9104384,6.11956168 C57.2068101,6.45045361 57.4148403,6.94988395 57.5345289,7.6178527 L57.5345289,7.6178527 L58.7570623,7.36736442 C58.6088764,6.32830192 58.2711836,5.54900504 57.7439839,5.02947379 C57.2167842,4.50994254 56.568471,4.25017692 55.7990444,4.25017692 C54.8016395,4.25017692 53.9851924,4.67848096 53.349703,5.53508903 C52.7142136,6.3916971 52.3964689,7.67660921 52.3964689,9.38982536 C52.3964689,11.0906717 52.7113638,12.3755838 53.3411538,13.2445617 C53.9709437,14.1135395 54.7731422,14.5480285 55.7477493,14.5480285 Z M60.9256755,2.64519645 L60.9256755,0.724786294 L59.6689453,0.724786294 L59.6689453,2.64519645 L60.9256755,2.64519645 Z M60.9256755,14.3253722 L60.9256755,4.47283317 L59.6689453,4.47283317 L59.6689453,14.3253722 L60.9256755,14.3253722 Z M65.5991998,14.5480285 C66.613703,14.5480285 67.4486734,14.1150858 68.1041109,13.2492004 C68.7595484,12.3833149 69.0872671,11.0659321 69.0872671,9.29705192 C69.0872671,7.66423942 68.7538489,6.41489046 68.0870125,5.54900504 C67.4201761,4.68311963 66.5909052,4.25017692 65.5991998,4.25017692 C64.590396,4.25017692 63.7568505,4.68311963 63.0985632,5.54900504 C62.440276,6.41489046 62.1111324,7.69825635 62.1111324,9.3991027 C62.1111324,11.0937642 62.4431257,12.3755838 63.1071124,13.2445617 C63.7710991,14.1135395 64.6017949,14.5480285 65.5991998,14.5480285 Z M65.6333965,13.1749816 C65.0007568,13.1749816 64.4707074,12.8641906 64.0432481,12.2426086 C63.6157889,11.6210265 63.4020593,10.6731912 63.4020593,9.3991027 C63.4020593,8.13738395 63.6129392,7.19418734 64.034699,6.56951286 C64.4564587,5.94483838 64.9665601,5.63250114 65.565003,5.63250114 C66.1976427,5.63250114 66.7276921,5.94329215 67.1551514,6.56487418 C67.5826106,7.18645622 67.7963402,8.13119905 67.7963402,9.3991027 C67.7963402,10.6608214 67.5840355,11.6055643 67.159426,12.2333312 C66.7348165,12.8610981 66.22614,13.1749816 65.6333965,13.1749816 Z M71.5465526,14.3253722 L71.5465526,8.94451286 C71.5465526,7.75701286 71.7260855,6.91895947 72.0851512,6.4303527 C72.444217,5.94174593 72.925821,5.69744254 73.5299634,5.69744254 C73.849133,5.69744254 74.1298312,5.78866976 74.3720581,5.97112418 C74.614285,6.15357861 74.792393,6.41179801 74.9063822,6.74578239 C75.0203713,7.07976676 75.0773659,7.60857536 75.0773659,8.33220817 L75.0773659,8.33220817 L75.0773659,14.3253722 L76.3426452,14.3253722 L76.3426452,8.26726676 C76.3426452,7.35808707 76.2913501,6.68393343 76.1887599,6.24480582 C76.0861697,5.80567822 75.9308595,5.44850049 75.7228293,5.17327262 C75.5147991,4.89804476 75.2412252,4.67538851 74.9021076,4.50530387 C74.5629899,4.33521924 74.1939501,4.25017692 73.7949882,4.25017692 C73.2820371,4.25017692 72.8275054,4.3846984 72.4313932,4.65374137 C72.035281,4.92278434 71.7004379,5.32944124 71.426864,5.87371207 L71.426864,5.87371207 L71.426864,4.47283317 L70.2898224,4.47283317 L70.2898224,14.3253722 L71.5465526,14.3253722 Z M83.8345207,14.5480285 C84.324674,14.5480285 84.7977289,14.427423 85.2536854,14.1862121 C85.7096419,13.9450011 86.1485,13.5862772 86.5702598,13.1100402 C86.610156,13.5800923 86.6956479,13.985203 86.8267354,14.3253722 L86.8267354,14.3253722 L88.1433098,14.3253722 C87.983725,13.9419087 87.8768602,13.5476216 87.8227154,13.1425109 C87.7685705,12.7374002 87.7414981,11.755548 87.7414981,10.1969543 L87.7414981,7.97039176 C87.7414981,7.06739697 87.6830787,6.38087353 87.5662398,5.91082145 C87.449401,5.44076937 87.1687027,5.04648226 86.7241451,4.72796012 C86.2795875,4.40943799 85.666896,4.25017692 84.8860704,4.25017692 C83.8829661,4.25017692 83.1121146,4.49138786 82.573516,4.97380973 C82.0349173,5.45623161 81.6772764,6.22625114 81.5005933,7.28386832 L81.5005933,7.28386832 L82.7402251,7.50652457 C82.877012,6.78289176 83.0907416,6.28964632 83.3814139,6.02678825 C83.6720862,5.76393017 84.1109444,5.63250114 84.6979884,5.63250114 C85.3477264,5.63250114 85.8293305,5.8304178 86.1428006,6.22625114 C86.3650794,6.49838655 86.4762188,6.97153109 86.4762188,7.64568473 L86.4762188,7.64568473 L86.4676696,8.07244254 C85.9889153,8.29509879 85.236587,8.48683056 84.2106848,8.64763786 C83.4469577,8.76515088 82.877012,8.9476053 82.5008479,9.19500114 C82.1246838,9.44239697 81.828312,9.78565869 81.6117327,10.2247863 C81.3951533,10.6639139 81.2868637,11.1679829 81.2868637,11.7369933 C81.2868637,12.5966938 81.5176917,13.2801248 81.9793476,13.7872863 C82.4410036,14.2944478 83.0593946,14.5480285 83.8345207,14.5480285 Z M84.1422914,13.239923 C83.6692365,13.239923 83.2987718,13.0992166 83.0308974,12.8178039 C82.7630229,12.5363911 82.6290857,12.1606587 82.6290857,11.6906066 C82.6290857,11.3875467 82.6875051,11.12005 82.804344,10.8881164 C82.9211828,10.6561828 83.0850422,10.4768208 83.2959221,10.3500304 C83.506802,10.2232401 83.8772666,10.1103657 84.4073161,10.0114074 C85.3192291,9.8382303 86.0060136,9.62794385 86.4676696,9.38054801 L86.4676696,9.38054801 L86.4676696,9.9928527 C86.4676696,10.8030741 86.3764783,11.4200174 86.1940957,11.8436828 C86.0117131,12.2673481 85.7367143,12.6059712 85.3690994,12.8595519 C85.0014844,13.1131326 84.5925484,13.239923 84.1422914,13.239923 Z M90.6453412,14.3253722 L90.6453412,0.724786294 L89.388611,0.724786294 L89.388611,14.3253722 L90.6453412,14.3253722 Z M93.5919302,2.64519645 L93.5919302,0.724786294 L92.3352,0.724786294 L92.3352,2.64519645 L93.5919302,2.64519645 Z M93.5919302,14.3253722 L93.5919302,4.47283317 L92.3352,4.47283317 L92.3352,14.3253722 L93.5919302,14.3253722 Z M96.5214208,14.3253722 L96.5214208,9.21355582 C96.5214208,7.87761832 96.6881299,6.95761507 97.0215481,6.45354606 C97.3549663,5.94947705 97.809498,5.69744254 98.3851431,5.69744254 C98.7898045,5.69744254 99.1075492,5.86443473 99.3383772,6.19841911 C99.5692051,6.53240348 99.6846191,7.10759879 99.6846191,7.92400504 L99.6846191,7.92400504 L99.6846191,14.3253722 L100.949898,14.3253722 L100.949898,8.60125114 C100.949898,7.59929801 101.120882,6.86484163 101.46285,6.397882 C101.804817,5.93092236 102.246525,5.69744254 102.787973,5.69744254 C103.050148,5.69744254 103.286676,5.77784619 103.497556,5.93865348 C103.708435,6.09946077 103.860896,6.32675569 103.954937,6.62053825 C104.048978,6.9143208 104.095998,7.41375114 104.095998,8.11882926 L104.095998,8.11882926 L104.095998,14.3253722 L105.352729,14.3253722 L105.352729,7.56218864 C105.352729,6.40561312 105.147548,5.56446728 104.737187,5.03875114 C104.326826,4.51303499 103.76543,4.25017692 103.052998,4.25017692 C102.585642,4.25017692 102.159608,4.39397575 101.774895,4.6815734 C101.390181,4.96917106 101.049639,5.40056754 100.753267,5.97576286 C100.599382,5.41293734 100.341481,4.9846333 99.979566,4.69085075 C99.6176505,4.39706819 99.1745178,4.25017692 98.6501678,4.25017692 C98.1828124,4.25017692 97.7525034,4.38933707 97.3592409,4.66765739 C96.9659784,4.9459777 96.6439591,5.34181103 96.393183,5.85515739 L96.393183,5.85515739 L96.393183,4.47283317 L95.2646907,4.47283317 L95.2646907,14.3253722 L96.5214208,14.3253722 Z M110.043351,14.5480285 C110.881171,14.5480285 111.583629,14.2805317 112.150725,13.7455382 C112.717821,13.2105448 113.109659,12.4173319 113.326238,11.3658996 L113.326238,11.3658996 L112.026762,11.1525207 C111.656297,12.500828 110.99801,13.1749816 110.0519,13.1749816 C109.447758,13.1749816 108.934807,12.8935688 108.513047,12.3307433 C108.091287,11.7679178 107.85476,10.9329569 107.803465,9.82586051 L107.803465,9.82586051 L113.360435,9.82586051 L113.368984,9.38054801 C113.368984,7.71681103 113.046965,6.44581494 112.402926,5.56755973 C111.758888,4.68930452 110.955264,4.25017692 109.992056,4.25017692 C108.983252,4.25017692 108.149707,4.69703564 107.49142,5.59075309 C106.833132,6.48447054 106.503989,7.78175244 106.503989,9.48259879 C106.503989,11.1215962 106.830283,12.3755838 107.48287,13.2445617 C108.135458,14.1135395 108.988952,14.5480285 110.043351,14.5480285 Z M112.035311,8.45281364 L107.880408,8.45281364 C107.920304,7.58692822 108.139733,6.89885856 108.538695,6.38860465 C108.937657,5.87835075 109.419261,5.62322379 109.983507,5.62322379 C110.610447,5.62322379 111.126248,5.92937614 111.530909,6.54168082 C111.810183,6.96225374 111.978317,7.59929801 112.035311,8.45281364 L112.035311,8.45281364 Z M115.896663,14.3253722 L115.896663,8.94451286 C115.896663,7.75701286 116.076196,6.91895947 116.435262,6.4303527 C116.794327,5.94174593 117.275932,5.69744254 117.880074,5.69744254 C118.199243,5.69744254 118.479942,5.78866976 118.722169,5.97112418 C118.964395,6.15357861 119.142503,6.41179801 119.256493,6.74578239 C119.370482,7.07976676 119.427476,7.60857536 119.427476,8.33220817 L119.427476,8.33220817 L119.427476,14.3253722 L120.692756,14.3253722 L120.692756,8.26726676 C120.692756,7.35808707 120.641461,6.68393343 120.53887,6.24480582 C120.43628,5.80567822 120.28097,5.44850049 120.07294,5.17327262 C119.86491,4.89804476 119.591336,4.67538851 119.252218,4.50530387 C118.9131,4.33521924 118.544061,4.25017692 118.145099,4.25017692 C117.632148,4.25017692 117.177616,4.3846984 116.781504,4.65374137 C116.385391,4.92278434 116.050548,5.32944124 115.776974,5.87371207 L115.776974,5.87371207 L115.776974,4.47283317 L114.639933,4.47283317 L114.639933,14.3253722 L115.896663,14.3253722 Z M124.391673,14.455255 C124.670946,14.455255 124.984416,14.4057759 125.332083,14.3068175 L125.332083,14.3068175 L125.1611,12.8317199 C124.933121,12.8750142 124.747889,12.8966613 124.605403,12.8966613 C124.309031,12.8966613 124.1067,12.7853332 123.99841,12.5626769 C123.924317,12.4080545 123.887271,12.0647928 123.887271,11.5328918 L123.887271,11.5328918 L123.887271,5.77166129 L125.1611,5.77166129 L125.1611,4.47283317 L123.887271,4.47283317 L123.887271,1.03093864 L122.630541,2.03289176 L122.630541,4.47283317 L121.707229,4.47283317 L121.707229,5.77166129 L122.630541,5.77166129 L122.630541,11.4401183 C122.630541,12.4173319 122.680411,13.0698384 122.780152,13.3976379 C122.879892,13.7254373 123.0637,13.9836567 123.331574,14.1722961 C123.599448,14.3609354 123.952815,14.455255 124.391673,14.455255 Z M129.988509,3.24822379 L129.048099,0.650567544 L127.35536,0.650567544 L128.971156,3.24822379 L129.988509,3.24822379 Z M128.184631,14.5480285 C128.674784,14.5480285 129.147839,14.427423 129.603796,14.1862121 C130.059752,13.9450011 130.49861,13.5862772 130.92037,13.1100402 C130.960266,13.5800923 131.045758,13.985203 131.176846,14.3253722 L131.176846,14.3253722 L132.49342,14.3253722 C132.333835,13.9419087 132.226971,13.5476216 132.172826,13.1425109 C132.118681,12.7374002 132.091609,11.755548 132.091609,10.1969543 L132.091609,7.97039176 C132.091609,7.06739697 132.033189,6.38087353 131.91635,5.91082145 C131.799511,5.44076937 131.518813,5.04648226 131.074256,4.72796012 C130.629698,4.40943799 130.017006,4.25017692 129.236181,4.25017692 C128.233077,4.25017692 127.462225,4.49138786 126.923626,4.97380973 C126.385028,5.45623161 126.027387,6.22625114 125.850704,7.28386832 L125.850704,7.28386832 L127.090336,7.50652457 C127.227122,6.78289176 127.440852,6.28964632 127.731524,6.02678825 C128.022197,5.76393017 128.461055,5.63250114 129.048099,5.63250114 C129.697837,5.63250114 130.179441,5.8304178 130.492911,6.22625114 C130.71519,6.49838655 130.826329,6.97153109 130.826329,7.64568473 L130.826329,7.64568473 L130.81778,8.07244254 C130.339026,8.29509879 129.586697,8.48683056 128.560795,8.64763786 C127.797068,8.76515088 127.227122,8.9476053 126.850958,9.19500114 C126.474794,9.44239697 126.178422,9.78565869 125.961843,10.2247863 C125.745264,10.6639139 125.636974,11.1679829 125.636974,11.7369933 C125.636974,12.5966938 125.867802,13.2801248 126.329458,13.7872863 C126.791114,14.2944478 127.409505,14.5480285 128.184631,14.5480285 Z M128.492402,13.239923 C128.019347,13.239923 127.648882,13.0992166 127.381008,12.8178039 C127.113133,12.5363911 126.979196,12.1606587 126.979196,11.6906066 C126.979196,11.3875467 127.037616,11.12005 127.154454,10.8881164 C127.271293,10.6561828 127.435153,10.4768208 127.646033,10.3500304 C127.856912,10.2232401 128.227377,10.1103657 128.757427,10.0114074 C129.66934,9.8382303 130.356124,9.62794385 130.81778,9.38054801 L130.81778,9.38054801 L130.81778,9.9928527 C130.81778,10.8030741 130.726589,11.4200174 130.544206,11.8436828 C130.361824,12.2673481 130.086825,12.6059712 129.71921,12.8595519 C129.351595,13.1131326 128.942659,13.239923 128.492402,13.239923 Z M135.029648,14.3253722 L135.029648,9.16716911 C135.029648,8.44972119 135.109441,7.7724751 135.269026,7.13543082 C135.360217,6.77052197 135.516952,6.48601676 135.739231,6.2819152 C135.96151,6.07781364 136.206586,5.97576286 136.474461,5.97576286 C136.770832,5.97576286 137.075753,6.09636832 137.389223,6.33757926 L137.389223,6.33757926 L137.816683,4.78826286 C137.377824,4.4295389 136.947515,4.25017692 136.525756,4.25017692 C136.223685,4.25017692 135.951535,4.36305127 135.709309,4.58879997 C135.467082,4.81454866 135.200632,5.27377718 134.90996,5.96648551 L134.90996,5.96648551 L134.90996,4.47283317 L133.772918,4.47283317 L133.772918,14.3253722 L135.029648,14.3253722 Z M139.532189,2.64519645 L139.532189,0.724786294 L138.275459,0.724786294 L138.275459,2.64519645 L139.532189,2.64519645 Z M139.532189,14.3253722 L139.532189,4.47283317 L138.275459,4.47283317 L138.275459,14.3253722 L139.532189,14.3253722 Z M143.308049,14.5480285 C143.798202,14.5480285 144.271257,14.427423 144.727214,14.1862121 C145.18317,13.9450011 145.622028,13.5862772 146.043788,13.1100402 C146.083684,13.5800923 146.169176,13.985203 146.300264,14.3253722 L146.300264,14.3253722 L147.616838,14.3253722 C147.457253,13.9419087 147.350388,13.5476216 147.296244,13.1425109 C147.242099,12.7374002 147.215026,11.755548 147.215026,10.1969543 L147.215026,7.97039176 C147.215026,7.06739697 147.156607,6.38087353 147.039768,5.91082145 C146.922929,5.44076937 146.642231,5.04648226 146.197673,4.72796012 C145.753116,4.40943799 145.140424,4.25017692 144.359599,4.25017692 C143.356494,4.25017692 142.585643,4.49138786 142.047044,4.97380973 C141.508446,5.45623161 141.150805,6.22625114 140.974121,7.28386832 L140.974121,7.28386832 L142.213753,7.50652457 C142.35054,6.78289176 142.56427,6.28964632 142.854942,6.02678825 C143.145614,5.76393017 143.584473,5.63250114 144.171517,5.63250114 C144.821255,5.63250114 145.302859,5.8304178 145.616329,6.22625114 C145.838608,6.49838655 145.949747,6.97153109 145.949747,7.64568473 L145.949747,7.64568473 L145.941198,8.07244254 C145.462443,8.29509879 144.710115,8.48683056 143.684213,8.64763786 C142.920486,8.76515088 142.35054,8.9476053 141.974376,9.19500114 C141.598212,9.44239697 141.30184,9.78565869 141.085261,10.2247863 C140.868682,10.6639139 140.760392,11.1679829 140.760392,11.7369933 C140.760392,12.5966938 140.99122,13.2801248 141.452876,13.7872863 C141.914532,14.2944478 142.532923,14.5480285 143.308049,14.5480285 Z M143.61582,13.239923 C143.142765,13.239923 142.7723,13.0992166 142.504426,12.8178039 C142.236551,12.5363911 142.102614,12.1606587 142.102614,11.6906066 C142.102614,11.3875467 142.161033,11.12005 142.277872,10.8881164 C142.394711,10.6561828 142.55857,10.4768208 142.76945,10.3500304 C142.98033,10.2232401 143.350795,10.1103657 143.880844,10.0114074 C144.792757,9.8382303 145.479542,9.62794385 145.941198,9.38054801 L145.941198,9.38054801 L145.941198,9.9928527 C145.941198,10.8030741 145.850006,11.4200174 145.667624,11.8436828 C145.485241,12.2673481 145.210242,12.6059712 144.842628,12.8595519 C144.475013,13.1131326 144.066077,13.239923 143.61582,13.239923 Z M153.834885,14.3253722 L153.834885,0.724786294 L152.578155,0.724786294 L152.578155,14.3253722 L153.834885,14.3253722 Z M156.781474,2.64519645 L156.781474,0.724786294 L155.524744,0.724786294 L155.524744,2.64519645 L156.781474,2.64519645 Z M156.781474,14.3253722 L156.781474,4.47283317 L155.524744,4.47283317 L155.524744,14.3253722 L156.781474,14.3253722 Z M160.959146,14.5480285 C161.454998,14.5480285 161.899556,14.4088683 162.292818,14.130548 C162.686081,13.8522277 163.028048,13.4347472 163.318721,12.8781066 L163.318721,12.8781066 L163.318721,14.3253722 L164.447213,14.3253722 L164.447213,4.47283317 L163.181934,4.47283317 L163.181934,9.75164176 C163.181934,10.9886209 163.016649,11.8390441 162.686081,12.3029113 C162.298518,12.8409972 161.802665,13.1100402 161.198523,13.1100402 C160.873654,13.1100402 160.584406,13.0064432 160.33078,12.7992492 C160.077155,12.5920552 159.903321,12.3168273 159.80928,11.9735656 C159.715239,11.6303039 159.668219,10.9515116 159.668219,9.93718864 L159.668219,9.93718864 L159.668219,4.47283317 L158.411489,4.47283317 L158.411489,10.5773254 C158.411489,11.486505 158.481307,12.203953 158.620944,12.7296691 C158.76058,13.2553853 159.038429,13.6898742 159.454489,14.0331359 C159.870549,14.3763976 160.372102,14.5480285 160.959146,14.5480285 Z M167.402351,14.3253722 L167.402351,9.16716911 C167.402351,8.44972119 167.482143,7.7724751 167.641728,7.13543082 C167.73292,6.77052197 167.889655,6.48601676 168.111933,6.2819152 C168.334212,6.07781364 168.579289,5.97576286 168.847163,5.97576286 C169.143535,5.97576286 169.448456,6.09636832 169.761926,6.33757926 L169.761926,6.33757926 L170.189385,4.78826286 C169.750527,4.4295389 169.320218,4.25017692 168.898458,4.25017692 C168.596387,4.25017692 168.324238,4.36305127 168.082011,4.58879997 C167.839784,4.81454866 167.573335,5.27377718 167.282663,5.96648551 L167.282663,5.96648551 L167.282663,4.47283317 L166.145621,4.47283317 L166.145621,14.3253722 L167.402351,14.3253722 Z M172.768359,14.5480285 C173.258513,14.5480285 173.731567,14.427423 174.187524,14.1862121 C174.643481,13.9450011 175.082339,13.5862772 175.504098,13.1100402 C175.543995,13.5800923 175.629486,13.985203 175.760574,14.3253722 L175.760574,14.3253722 L177.077148,14.3253722 C176.917564,13.9419087 176.810699,13.5476216 176.756554,13.1425109 C176.702409,12.7374002 176.675337,11.755548 176.675337,10.1969543 L176.675337,7.97039176 C176.675337,7.06739697 176.616917,6.38087353 176.500078,5.91082145 C176.38324,5.44076937 176.102541,5.04648226 175.657984,4.72796012 C175.213426,4.40943799 174.600735,4.25017692 173.819909,4.25017692 C172.816805,4.25017692 172.045953,4.49138786 171.507355,4.97380973 C170.968756,5.45623161 170.611115,6.22625114 170.434432,7.28386832 L170.434432,7.28386832 L171.674064,7.50652457 C171.810851,6.78289176 172.02458,6.28964632 172.315253,6.02678825 C172.605925,5.76393017 173.044783,5.63250114 173.631827,5.63250114 C174.281565,5.63250114 174.763169,5.8304178 175.076639,6.22625114 C175.298918,6.49838655 175.410057,6.97153109 175.410057,7.64568473 L175.410057,7.64568473 L175.401508,8.07244254 C174.922754,8.29509879 174.170426,8.48683056 173.144523,8.64763786 C172.380796,8.76515088 171.810851,8.9476053 171.434687,9.19500114 C171.058522,9.44239697 170.762151,9.78565869 170.545571,10.2247863 C170.328992,10.6639139 170.220702,11.1679829 170.220702,11.7369933 C170.220702,12.5966938 170.45153,13.2801248 170.913186,13.7872863 C171.374842,14.2944478 171.993233,14.5480285 172.768359,14.5480285 Z M173.07613,13.239923 C172.603075,13.239923 172.23261,13.0992166 171.964736,12.8178039 C171.696862,12.5363911 171.562924,12.1606587 171.562924,11.6906066 C171.562924,11.3875467 171.621344,11.12005 171.738183,10.8881164 C171.855021,10.6561828 172.018881,10.4768208 172.229761,10.3500304 C172.440641,10.2232401 172.811105,10.1103657 173.341155,10.0114074 C174.253068,9.8382303 174.939852,9.62794385 175.401508,9.38054801 L175.401508,9.38054801 L175.401508,9.9928527 C175.401508,10.8030741 175.310317,11.4200174 175.127934,11.8436828 C174.945552,12.2673481 174.670553,12.6059712 174.302938,12.8595519 C173.935323,13.1131326 173.526387,13.239923 173.07613,13.239923 Z" transform="translate(1 134.507)"/>
    <rect width="5" height="5" x="111" y="9"/>
    <rect width="5" height="5" x="111" y="9"/>
    <rect width="1" height="1" x="2" y="149"/>
  </g>
</svg>
