<?xml version="1.0" encoding="UTF-8" standalone="no"?>
<!-- Created with Inkscape (http://www.inkscape.org/) -->

<svg
   xmlns:dc="http://purl.org/dc/elements/1.1/"
   xmlns:cc="http://creativecommons.org/ns#"
   xmlns:rdf="http://www.w3.org/1999/02/22-rdf-syntax-ns#"
   xmlns:svg="http://www.w3.org/2000/svg"
   xmlns="http://www.w3.org/2000/svg"
   xmlns:sodipodi="http://sodipodi.sourceforge.net/DTD/sodipodi-0.dtd"
   xmlns:inkscape="http://www.inkscape.org/namespaces/inkscape"
   width="178"
   height="144"
   id="svg8313"
   version="1.1"
   inkscape:version="0.91 r13725"
   sodipodi:docname="openfoodfacts-logo-fr.svg"
   inkscape:export-filename="C:\Users\Stéphane\Desktop\Blogs\OpenFoodFacts\test-200.png"
   inkscape:export-xdpi="90"
   inkscape:export-ydpi="90">
  <defs
     id="defs8315" />
  <sodipodi:namedview
     id="base"
     pagecolor="#ffffff"
     bordercolor="#666666"
     borderopacity="1.0"
     inkscape:pageopacity="0.0"
     inkscape:pageshadow="2"
     inkscape:zoom="3.1916204"
     inkscape:cx="109.07038"
     inkscape:cy="88.739106"
     inkscape:document-units="px"
     inkscape:current-layer="layer1"
     showgrid="true"
     inkscape:window-width="1920"
     inkscape:window-height="1018"
     inkscape:window-x="-8"
     inkscape:window-y="-8"
     inkscape:window-maximized="1"
     inkscape:snap-global="true">
    <inkscape:grid
       type="xygrid"
       id="grid8566" />
  </sodipodi:namedview>
  <metadata
     id="metadata8318">
    <rdf:RDF>
      <cc:Work
         rdf:about="">
        <dc:format>image/svg+xml</dc:format>
        <dc:type
           rdf:resource="http://purl.org/dc/dcmitype/StillImage" />
        <dc:title></dc:title>
      </cc:Work>
    </rdf:RDF>
  </metadata>
  <g
     inkscape:label="Calque 1"
     inkscape:groupmode="layer"
     id="layer1">
    <path
       inkscape:export-ydpi="90"
       inkscape:export-xdpi="90"
       inkscape:export-filename="C:\Users\Stéphane\Desktop\Blogs\OpenFoodFacts\test-178.png"
       inkscape:connector-curvature="0"
       style="fill:#0066ff;fill-opacity:1;fill-rule:nonzero;stroke:none"
       d="m 170,26 0,6.41101 c 1.19571,0.444338 2.21393,1.060483 3,1.761208 L 173,26 Z m 4,0 0,8.312003 1,-0.838676 L 175,26 Z m 2,0 0,6.606702 1,-0.978462 0,11.7694 -1,-1.00641 0,52.60877 2,0 0,-69 z M 174,40.685929 174,95 l 1,0 0,-53.475406 z m -1,0.139774 c -0.78598,0.701951 -1.79569,1.313237 -3,1.76122 L 170,95 l 3,0 z"
       id="path7944"
       sodipodi:nodetypes="ccccccccccccccccccccccccccccc" />
    <path
       inkscape:export-ydpi="90"
       inkscape:export-xdpi="90"
       inkscape:export-filename="C:\Users\Stéphane\Desktop\Blogs\OpenFoodFacts\test-178.png"
       inkscape:connector-curvature="0"
       style="fill:#00ccff;fill-opacity:1;fill-rule:nonzero;stroke:none"
       d="m 154,26 0,69 3,0 0,-53.810872 c -1.32362,-1.014805 -2.12462,-2.271422 -2.12462,-3.662215 0,-1.390781 0.801,-2.675356 2.12462,-3.690161 L 157,26 Z m 4,0 0,7.193768 c 1.12603,-0.642997 2.47034,-1.128715 4,-1.397795 L 162,26 Z m 5,0 0,5.62824 c 0.32965,-0.03644 0.65978,-0.03965 1,-0.05585 l 0,-5.572333 c -0.35153,4.6e-5 -0.64847,-3.3e-5 -1,-5.7e-5 z m 2,0 0,5.544374 c 0.68266,0.0083 1.35814,0.08097 2,0.167733 L 167,26 Z M 158,41.860072 158,95 l 4,0 0,-51.770093 c -1.58676,-0.26883 -2.87451,-0.727732 -4,-1.369835 z m 9,1.481649 c -0.64077,0.08753 -1.31859,0.131652 -2,0.139785 L 165,95 l 2,0 z m -4,0.05597 L 163,95 l 1,0 0,-51.546402 c -0.34022,-0.01632 -0.67076,-0.01941 -1.00041,-0.05585 z"
       id="path7946"
       sodipodi:nodetypes="ccccscccccccccccccccccccccccccccccccccc" />
    <path
       inkscape:export-ydpi="90"
       inkscape:export-xdpi="90"
       inkscape:export-filename="C:\Users\Stéphane\Desktop\Blogs\OpenFoodFacts\test-178.png"
       inkscape:connector-curvature="0"
       id="path7948"
       d="m 150,26 0,69 1,0 0,-69 z"
       style="fill:#00d400;fill-opacity:1;fill-rule:nonzero;stroke:none"
       sodipodi:nodetypes="ccccc" />
    <path
       inkscape:export-ydpi="90"
       inkscape:export-xdpi="90"
       inkscape:export-filename="C:\Users\Stéphane\Desktop\Blogs\OpenFoodFacts\test-178.png"
       inkscape:connector-curvature="0"
       id="path7950"
       d="m 146,26 0,69 3,0 0,-69 z"
       style="fill:#00d400;fill-opacity:1;fill-rule:nonzero;stroke:none"
       sodipodi:nodetypes="ccccc" />
    <path
       inkscape:export-ydpi="90"
       inkscape:export-xdpi="90"
       inkscape:export-filename="C:\Users\Stéphane\Desktop\Blogs\OpenFoodFacts\test-178.png"
       inkscape:connector-curvature="0"
       id="path7952"
       d="m 143,26 0,69 2,0 0,-69 z"
       style="fill:#00d400;fill-opacity:1;fill-rule:nonzero;stroke:none"
       sodipodi:nodetypes="ccccc" />
    <path
       inkscape:export-ydpi="90"
       inkscape:export-xdpi="90"
       inkscape:export-filename="C:\Users\Stéphane\Desktop\Blogs\OpenFoodFacts\test-178.png"
       inkscape:connector-curvature="0"
       id="path7954"
       d="m 141,26 0,69 1,0 0,-69 z"
       style="fill:#00d400;fill-opacity:1;fill-rule:nonzero;stroke:none"
       sodipodi:nodetypes="ccccc" />
    <path
       inkscape:export-ydpi="90"
       inkscape:export-xdpi="90"
       inkscape:export-filename="C:\Users\Stéphane\Desktop\Blogs\OpenFoodFacts\test-178.png"
       inkscape:connector-curvature="0"
       id="path7956"
       d="m 135,24 0,71 3,0 -5e-5,-69 z"
       style="fill:#00d400;fill-opacity:1;fill-rule:nonzero;stroke:none"
       sodipodi:nodetypes="ccccc" />
    <path
       inkscape:export-ydpi="90"
       inkscape:export-xdpi="90"
       inkscape:export-filename="C:\Users\Stéphane\Desktop\Blogs\OpenFoodFacts\test-178.png"
       inkscape:connector-curvature="0"
       id="path7958"
       d="m 132,26 0,69 2,0 -4e-5,-69 z"
       style="fill:#00d400;fill-opacity:1;fill-rule:nonzero;stroke:none"
       sodipodi:nodetypes="ccccc" />
    <path
       inkscape:export-ydpi="90"
       inkscape:export-xdpi="90"
       inkscape:export-filename="C:\Users\Stéphane\Desktop\Blogs\OpenFoodFacts\test-178.png"
       inkscape:connector-curvature="0"
       id="path7960"
       d="m 129,26 0,69 2,0 1e-5,-69 z"
       style="fill:#00d400;fill-opacity:1;fill-rule:nonzero;stroke:none"
       sodipodi:nodetypes="ccccc" />
    <path
       inkscape:export-ydpi="90"
       inkscape:export-xdpi="90"
       inkscape:export-filename="C:\Users\Stéphane\Desktop\Blogs\OpenFoodFacts\test-178.png"
       inkscape:connector-curvature="0"
       id="path7962"
       d="m 125,26 0,69 1,0 5e-5,-69 z"
       style="fill:#00d400;fill-opacity:1;fill-rule:nonzero;stroke:none"
       sodipodi:nodetypes="ccccc" />
    <path
       inkscape:export-ydpi="90"
       inkscape:export-xdpi="90"
       inkscape:export-filename="C:\Users\Stéphane\Desktop\Blogs\OpenFoodFacts\test-178.png"
       inkscape:connector-curvature="0"
       id="path7964"
       d="m 121,26 0,69 1,0 6e-5,-69 z"
       style="fill:#00d400;fill-opacity:1;fill-rule:nonzero;stroke:none"
       sodipodi:nodetypes="ccccc" />
    <path
       inkscape:export-ydpi="90"
       inkscape:export-xdpi="90"
       inkscape:export-filename="C:\Users\Stéphane\Desktop\Blogs\OpenFoodFacts\test-178.png"
       inkscape:connector-curvature="0"
       id="path7966"
       d="m 116,26 0,69 2,0 1e-5,-69 z"
       style="fill:#00d400;fill-opacity:1;fill-rule:nonzero;stroke:none"
       sodipodi:nodetypes="ccccc" />
    <path
       inkscape:export-ydpi="90"
       inkscape:export-xdpi="90"
       inkscape:export-filename="C:\Users\Stéphane\Desktop\Blogs\OpenFoodFacts\test-178.png"
       inkscape:connector-curvature="0"
       id="path7968"
       d="m 112,26 0,69 1,0 -5e-5,-69 z"
       style="fill:#00d400;fill-opacity:1;fill-rule:nonzero;stroke:none"
       sodipodi:nodetypes="ccccc" />
    <path
       inkscape:export-ydpi="90"
       inkscape:export-xdpi="90"
       inkscape:export-filename="C:\Users\Stéphane\Desktop\Blogs\OpenFoodFacts\test-178.png"
       inkscape:connector-curvature="0"
       id="path7970"
       d="m 110,26 0,69 1,0 -5e-5,-69 z"
       style="fill:#00d400;fill-opacity:1;fill-rule:nonzero;stroke:none"
       sodipodi:nodetypes="ccccc" />
    <path
       inkscape:export-ydpi="90"
       inkscape:export-xdpi="90"
       inkscape:export-filename="C:\Users\Stéphane\Desktop\Blogs\OpenFoodFacts\test-178.png"
       inkscape:connector-curvature="0"
       id="path7972"
       d="m 108,26 0,69 1,0 4e-5,-69 z"
       style="fill:#00d400;fill-opacity:1;fill-rule:nonzero;stroke:none"
       sodipodi:nodetypes="ccccc" />
    <path
       inkscape:export-ydpi="90"
       inkscape:export-xdpi="90"
       inkscape:export-filename="C:\Users\Stéphane\Desktop\Blogs\OpenFoodFacts\test-178.png"
       inkscape:connector-curvature="0"
       id="path7974"
       d="m 103,26 0,69 2,0 1e-5,-69 z"
       style="fill:#00d400;fill-opacity:1;fill-rule:nonzero;stroke:none"
       sodipodi:nodetypes="ccccc" />
    <path
       inkscape:export-ydpi="90"
       inkscape:export-xdpi="90"
       inkscape:export-filename="C:\Users\Stéphane\Desktop\Blogs\OpenFoodFacts\test-178.png"
       inkscape:connector-curvature="0"
       id="path7976"
       d="m 99,26 0,69 1,0 0,-69 z"
       style="fill:#00d400;fill-opacity:1;fill-rule:nonzero;stroke:none"
       sodipodi:nodetypes="ccccc" />
    <path
       inkscape:export-ydpi="90"
       inkscape:export-xdpi="90"
       inkscape:export-filename="C:\Users\Stéphane\Desktop\Blogs\OpenFoodFacts\test-178.png"
       inkscape:connector-curvature="0"
       id="path7978"
       d="m 95,26 0.0166,69 0.98337,0 -0.0171,-69 z"
       style="fill:#00d400;fill-opacity:1;fill-rule:nonzero;stroke:none"
       sodipodi:nodetypes="ccccc" />
    <path
       inkscape:export-ydpi="90"
       inkscape:export-xdpi="90"
       inkscape:export-filename="C:\Users\Stéphane\Desktop\Blogs\OpenFoodFacts\test-178.png"
       inkscape:connector-curvature="0"
       id="path7980"
       d="m 90,21 0,74 2,0 0,-74 z"
       style="fill:#ffcc00;fill-opacity:1;fill-rule:nonzero;stroke:none"
       sodipodi:nodetypes="ccccc" />
    <path
       inkscape:export-ydpi="90"
       inkscape:export-xdpi="90"
       inkscape:export-filename="C:\Users\Stéphane\Desktop\Blogs\OpenFoodFacts\test-178.png"
       inkscape:connector-curvature="0"
       id="path7983"
       d="m 88,26 0,69 1,0 0,-69 z"
       style="fill:#ffcc00;fill-opacity:1;fill-rule:nonzero;stroke:none"
       sodipodi:nodetypes="ccccc" />
    <path
       inkscape:export-ydpi="90"
       inkscape:export-xdpi="90"
       inkscape:export-filename="C:\Users\Stéphane\Desktop\Blogs\OpenFoodFacts\test-178.png"
       inkscape:connector-curvature="0"
       id="path7985"
       d="m 85,10 0,85 2,0 0,-85 z"
       style="fill:#ffcc00;fill-opacity:1;fill-rule:nonzero;stroke:none"
       sodipodi:nodetypes="ccccc" />
    <path
       inkscape:export-ydpi="90"
       inkscape:export-xdpi="90"
       inkscape:export-filename="C:\Users\Stéphane\Desktop\Blogs\OpenFoodFacts\test-178.png"
       inkscape:connector-curvature="0"
       id="path7987"
       d="m 81,26 0,69 3,0 4e-6,-69 z"
       style="fill:#ffcc00;fill-opacity:1;fill-rule:nonzero;stroke:none"
       sodipodi:nodetypes="ccccc" />
    <path
       inkscape:export-ydpi="90"
       inkscape:export-xdpi="90"
       inkscape:export-filename="C:\Users\Stéphane\Desktop\Blogs\OpenFoodFacts\test-178.png"
       inkscape:connector-curvature="0"
       id="path7989"
       d="m 77,26 0,69 1,0 3e-6,-69 z"
       style="fill:#ffcc00;fill-opacity:1;fill-rule:nonzero;stroke:none"
       sodipodi:nodetypes="ccccc" />
    <path
       inkscape:export-ydpi="90"
       inkscape:export-xdpi="90"
       inkscape:export-filename="C:\Users\Stéphane\Desktop\Blogs\OpenFoodFacts\test-178.png"
       inkscape:connector-curvature="0"
       id="path7991"
       d="m 74,20 0,75 2,0 -7e-6,-75 z"
       style="fill:#ffcc00;fill-opacity:1;fill-rule:nonzero;stroke:none"
       sodipodi:nodetypes="ccccc" />
    <path
       inkscape:export-ydpi="90"
       inkscape:export-xdpi="90"
       inkscape:export-filename="C:\Users\Stéphane\Desktop\Blogs\OpenFoodFacts\test-178.png"
       inkscape:connector-curvature="0"
       id="path7993"
       d="m 70,26 0,69 3,0 4e-6,-69 z"
       style="fill:#ffcc00;fill-opacity:1;fill-rule:nonzero;stroke:none"
       sodipodi:nodetypes="ccccc" />
    <path
       inkscape:export-ydpi="90"
       inkscape:export-xdpi="90"
       inkscape:export-filename="C:\Users\Stéphane\Desktop\Blogs\OpenFoodFacts\test-178.png"
       inkscape:connector-curvature="0"
       id="path7995"
       d="m 66,26 0,69 1,0 3e-6,-69 z"
       style="fill:#ffcc00;fill-opacity:1;fill-rule:nonzero;stroke:none"
       sodipodi:nodetypes="ccccc" />
    <path
       inkscape:export-ydpi="90"
       inkscape:export-xdpi="90"
       inkscape:export-filename="C:\Users\Stéphane\Desktop\Blogs\OpenFoodFacts\test-178.png"
       inkscape:connector-curvature="0"
       id="path7997"
       d="m 64,26 0,69 1,0 10e-7,-69 z"
       style="fill:#ffcc00;fill-opacity:1;fill-rule:nonzero;stroke:none"
       sodipodi:nodetypes="ccccc" />
    <path
       inkscape:export-ydpi="90"
       inkscape:export-xdpi="90"
       inkscape:export-filename="C:\Users\Stéphane\Desktop\Blogs\OpenFoodFacts\test-178.png"
       inkscape:connector-curvature="0"
       id="path7999"
       d="m 59,26 0.02596,69 1.974042,0 -0.02685,-69 z"
       style="fill:#ffcc00;fill-opacity:1;fill-rule:nonzero;stroke:none"
       sodipodi:nodetypes="ccccc" />
    <path
       inkscape:export-ydpi="90"
       inkscape:export-xdpi="90"
       inkscape:export-filename="C:\Users\Stéphane\Desktop\Blogs\OpenFoodFacts\test-178.png"
       inkscape:connector-curvature="0"
       id="path8001"
       d="m 55,15 0,80 1,0 -9e-6,-80 z"
       style="fill:#ffcc00;fill-opacity:1;fill-rule:nonzero;stroke:none"
       sodipodi:nodetypes="ccccc" />
    <path
       inkscape:export-ydpi="90"
       inkscape:export-xdpi="90"
       inkscape:export-filename="C:\Users\Stéphane\Desktop\Blogs\OpenFoodFacts\test-178.png"
       inkscape:connector-curvature="0"
       id="path8003"
       d="m 52,26 0,69 2,0 3e-6,-69 z"
       style="fill:#ffcc00;fill-opacity:1;fill-rule:nonzero;stroke:none"
       sodipodi:nodetypes="ccccc" />
    <path
       inkscape:export-ydpi="90"
       inkscape:export-xdpi="90"
       inkscape:export-filename="C:\Users\Stéphane\Desktop\Blogs\OpenFoodFacts\test-178.png"
       inkscape:connector-curvature="0"
       id="path8005"
       d="m 46,26 0,69 3,0 -7e-6,-69 z"
       style="fill:#ffcc00;fill-opacity:1;fill-rule:nonzero;stroke:none"
       sodipodi:nodetypes="ccccc" />
    <path
       inkscape:export-ydpi="90"
       inkscape:export-xdpi="90"
       inkscape:export-filename="C:\Users\Stéphane\Desktop\Blogs\OpenFoodFacts\test-178.png"
       inkscape:connector-curvature="0"
       id="path8007"
       d="m 44,26 0,69 1,0 10e-7,-69 z"
       style="fill:#ffcc00;fill-opacity:1;fill-rule:nonzero;stroke:none"
       sodipodi:nodetypes="ccccc" />
    <path
       inkscape:export-ydpi="90"
       inkscape:export-xdpi="90"
       inkscape:export-filename="C:\Users\Stéphane\Desktop\Blogs\OpenFoodFacts\test-178.png"
       inkscape:connector-curvature="0"
       id="path8009"
       d="m 40,26 0,69 1,0 2e-6,-69 z"
       style="fill:#ffcc00;fill-opacity:1;fill-rule:nonzero;stroke:none"
       sodipodi:nodetypes="ccccc" />
    <path
       inkscape:export-ydpi="90"
       inkscape:export-xdpi="90"
       inkscape:export-filename="C:\Users\Stéphane\Desktop\Blogs\OpenFoodFacts\test-178.png"
       inkscape:connector-curvature="0"
       id="path8011"
       d="m 37,26 0,69 2,0 4e-6,-69 z"
       style="fill:#ffcc00;fill-opacity:1;fill-rule:nonzero;stroke:none"
       sodipodi:nodetypes="ccccc" />
    <path
       inkscape:export-ydpi="90"
       inkscape:export-xdpi="90"
       inkscape:export-filename="C:\Users\Stéphane\Desktop\Blogs\OpenFoodFacts\test-178.png"
       inkscape:connector-curvature="0"
       id="path8013"
       d="m 33,20 0,75 1,0 -7e-6,-75 z"
       style="fill:#ff0000;fill-opacity:1;fill-rule:nonzero;stroke:none"
       sodipodi:nodetypes="ccccc" />
    <path
       inkscape:export-ydpi="90"
       inkscape:export-xdpi="90"
       inkscape:export-filename="C:\Users\Stéphane\Desktop\Blogs\OpenFoodFacts\test-178.png"
       inkscape:connector-curvature="0"
       id="path8015"
       d="m 30,19 0,76 2,0 4e-6,-76 z"
       style="fill:#ff0000;fill-opacity:1;fill-rule:nonzero;stroke:none"
       sodipodi:nodetypes="ccccc" />
    <path
       inkscape:export-ydpi="90"
       inkscape:export-xdpi="90"
       inkscape:export-filename="C:\Users\Stéphane\Desktop\Blogs\OpenFoodFacts\test-178.png"
       inkscape:connector-curvature="0"
       id="path8017"
       d="m 26,26 0,69 3,0 0,-69 z"
       style="fill:#ff0000;fill-opacity:1;fill-rule:nonzero;stroke:none"
       sodipodi:nodetypes="ccccc" />
    <path
       inkscape:export-ydpi="90"
       inkscape:export-xdpi="90"
       inkscape:export-filename="C:\Users\Stéphane\Desktop\Blogs\OpenFoodFacts\test-178.png"
       inkscape:connector-curvature="0"
       id="path8019"
       d="m 22,26 0,69 3,0 -5e-6,-69 z"
       style="fill:#ff0000;fill-opacity:1;fill-rule:nonzero;stroke:none"
       sodipodi:nodetypes="ccccc" />
    <path
       inkscape:export-ydpi="90"
       inkscape:export-xdpi="90"
       inkscape:export-filename="C:\Users\Stéphane\Desktop\Blogs\OpenFoodFacts\test-178.png"
       inkscape:connector-curvature="0"
       id="path8021"
       d="m 19,20 0,75 2,0 -8.6e-5,-75 z"
       style="fill:#ff0000;fill-opacity:1;fill-rule:nonzero;stroke:none"
       sodipodi:nodetypes="ccccc" />
    <path
       inkscape:export-ydpi="90"
       inkscape:export-xdpi="90"
       inkscape:export-filename="C:\Users\Stéphane\Desktop\Blogs\OpenFoodFacts\test-178.png"
       inkscape:connector-curvature="0"
       id="path8023"
       d="m 15,21 0,74 3,0 -3.5e-5,-74 z"
       style="fill:#ff0000;fill-opacity:1;fill-rule:nonzero;stroke:none"
       sodipodi:nodetypes="ccccc" />
    <path
       inkscape:export-ydpi="90"
       inkscape:export-xdpi="90"
       inkscape:export-filename="C:\Users\Stéphane\Desktop\Blogs\OpenFoodFacts\test-178.png"
       inkscape:connector-curvature="0"
       id="path8025"
       d="m 11,26 0,69 1,0 -4.9e-5,-69 z"
       style="fill:#ff0000;fill-opacity:1;fill-rule:nonzero;stroke:none"
       sodipodi:nodetypes="ccccc" />
    <path
       inkscape:export-ydpi="90"
       inkscape:export-xdpi="90"
       inkscape:export-filename="C:\Users\Stéphane\Desktop\Blogs\OpenFoodFacts\test-178.png"
       inkscape:connector-curvature="0"
       id="path8027"
       d="M 8,26 8,95 9,95 9,26 Z"
       style="fill:#ff0000;fill-opacity:1;fill-rule:nonzero;stroke:none"
       sodipodi:nodetypes="ccccc" />
    <path
       inkscape:export-ydpi="90"
       inkscape:export-xdpi="90"
       inkscape:export-filename="C:\Users\Stéphane\Desktop\Blogs\OpenFoodFacts\test-178.png"
       inkscape:connector-curvature="0"
       id="path8029"
       d="m 3,26 0,69 0.999563,0 0,-69 z"
       style="fill:#ff0000;fill-opacity:1;fill-rule:nonzero;stroke:none"
       sodipodi:nodetypes="ccccc" />
    <path
       inkscape:export-ydpi="90"
       inkscape:export-xdpi="90"
       inkscape:export-filename="C:\Users\Stéphane\Desktop\Blogs\OpenFoodFacts\test-178.png"
       inkscape:connector-curvature="0"
       id="path8031"
       d="m 1.3e-5,26 0,69 2,0 0,-69 z"
       style="fill:#ff0000;fill-opacity:1;fill-rule:nonzero;stroke:none"
       sodipodi:nodetypes="ccccc" />
    <path
       sodipodi:nodetypes="csssacccccssscccsccccc"
       inkscape:connector-curvature="0"
       id="path8033"
       d="m 12.96037,20.168037 c 0.62972,-0.815576 0.719123,-2.676154 1.281409,-4.358843 0.405305,-1.212926 0.463533,-4.596987 1.208651,-4.882429 0.96834,-0.370951 3.169601,-0.358079 4.223988,-0.416629 2.300059,-0.127699 4.518931,1.098659 6.822539,1.101136 2.990853,0.0036 8.861008,-1.410596 8.861008,-1.410596 l -0.140119,-2.038826 1.505607,0.278059 4.07695,-0.516905 -3.008404,1.386137 c 0,0 1.201864,-0.02108 1.688022,0.276832 0.705048,0.432109 0.959994,1.347377 1.46892,1.999162 0.291967,0.373928 1.082477,0.65438 0.908337,1.095671 -0.469844,1.190611 -3.808977,0.485944 -3.808977,0.485944 l -1.918736,1.803326 c -0.833009,1.778987 -2.26137,3.261839 -2.253596,6.722383 0,0 -6.006891,-0.923008 -8.991183,-0.79663 -1.764007,0.07466 -4.968974,0.618073 -4.968974,0.618073 -1.608718,-0.13719 -3.296502,-0.529063 -4.905219,-0.24954 0.0095,-6.235485 0.866683,-6.128862 0.69876,-9.294821 -0.439183,1.679986 -0.971056,4.516551 -1.026843,5.772464 -0.534756,1.525804 -0.01191,1.899672 -1.72214,2.426032 z"
       style="fill:#ff0000;fill-opacity:1"
       inkscape:export-filename="C:\Users\Stéphane\Desktop\Blogs\OpenFoodFacts\test-178.png"
       inkscape:export-xdpi="90"
       inkscape:export-ydpi="90" />
    <g
       style="fill:#ffcc00"
       transform="matrix(0.01488015,-0.01147672,0.01147672,0.01488015,39.17529,7.567521)"
       id="g8035"
       inkscape:export-filename="C:\Users\Stéphane\Desktop\Blogs\OpenFoodFacts\test-178.png"
       inkscape:export-xdpi="90"
       inkscape:export-ydpi="90">
      <ellipse
         ry="32.857143"
         rx="65.714287"
         cy="762.36218"
         cx="567.14288"
         style="fill:#ffcc00;fill-opacity:1;stroke:none"
         id="path8037"
         transform="matrix(0.58270937,-0.81268061,0.81268061,0.58270937,-465.7507,809.03262)" />
      <path
         style="fill:#ffcc00;fill-opacity:1;stroke:none"
         d="m 494.28571,741.6479 c 0,0 14.40901,-2.31616 20.71429,-5.71428 22.08801,-11.90395 53.57143,-52.85715 53.57143,-52.85715 0,0 -33.14169,43.13867 -40,64.99999 -2.07174,6.60382 -1.42857,20.71429 -1.42857,20.71429 z"
         id="path8039"
         inkscape:connector-curvature="0"
         sodipodi:nodetypes="cscscc" />
    </g>
    <g
       transform="matrix(0.89458574,0,0,0.89458574,-468.13007,-644.42698)"
       id="g8041"
       inkscape:export-filename="C:\Users\Stéphane\Desktop\Blogs\OpenFoodFacts\test-178.png"
       inkscape:export-xdpi="90"
       inkscape:export-ydpi="90">
      <g
         id="g8043"
         transform="translate(-9.5459416,1.1490485)"
         style="fill:#ffcc00">
        <g
           transform="matrix(0.02100622,0,0,0.02100622,586.13922,725.53281)"
           id="g8045"
           style="fill:#ffcc00">
          <ellipse
             ry="32.857143"
             rx="65.714287"
             cy="762.36218"
             cx="567.14288"
             style="fill:#ffcc00;fill-opacity:1;stroke:none"
             id="path8047"
             transform="matrix(0.58270937,-0.81268061,0.81268061,0.58270937,-465.7507,809.03262)" />
          <path
             style="fill:#ffcc00;fill-opacity:1;stroke:none"
             d="m 494.28571,741.6479 c 0,0 14.40901,-2.31616 20.71429,-5.71428 22.08801,-11.90395 53.57143,-52.85715 53.57143,-52.85715 0,0 -33.14169,43.13867 -40,64.99999 -2.07174,6.60382 -1.42857,20.71429 -1.42857,20.71429 z"
             id="path8049"
             inkscape:connector-curvature="0"
             sodipodi:nodetypes="cscscc" />
        </g>
        <g
           transform="matrix(0.02100622,0,0,0.02100622,586.13922,727.5359)"
           id="g8051"
           style="fill:#ffcc00">
          <ellipse
             ry="32.857143"
             rx="65.714287"
             cy="762.36218"
             cx="567.14288"
             style="fill:#ffcc00;fill-opacity:1;stroke:none"
             id="path8053"
             transform="matrix(0.58270937,-0.81268061,0.81268061,0.58270937,-465.7507,809.03262)" />
          <path
             style="fill:#ffcc00;fill-opacity:1;stroke:none"
             d="m 494.28571,741.6479 c 0,0 14.40901,-2.31616 20.71429,-5.71428 22.08801,-11.90395 53.57143,-52.85715 53.57143,-52.85715 0,0 -33.14169,43.13867 -40,64.99999 -2.07174,6.60382 -1.42857,20.71429 -1.42857,20.71429 z"
             id="path8055"
             inkscape:connector-curvature="0"
             sodipodi:nodetypes="cscscc" />
        </g>
        <g
           transform="matrix(0.02100622,0,0,0.02100622,586.13922,723.52972)"
           id="g8057"
           style="fill:#ffcc00">
          <ellipse
             ry="32.857143"
             rx="65.714287"
             cy="762.36218"
             cx="567.14288"
             style="fill:#ffcc00;fill-opacity:1;stroke:none"
             id="path8059"
             transform="matrix(0.58270937,-0.81268061,0.81268061,0.58270937,-465.7507,809.03262)" />
          <path
             style="fill:#ffcc00;fill-opacity:1;stroke:none"
             d="m 494.28571,741.6479 c 0,0 14.40901,-2.31616 20.71429,-5.71428 22.08801,-11.90395 53.57143,-52.85715 53.57143,-52.85715 0,0 -33.14169,43.13867 -40,64.99999 -2.07174,6.60382 -1.42857,20.71429 -1.42857,20.71429 z"
             id="path8061"
             inkscape:connector-curvature="0"
             sodipodi:nodetypes="cscscc" />
        </g>
        <g
           transform="matrix(0.02100622,0,0,0.02100622,586.13922,721.52662)"
           id="g8063"
           style="fill:#ffcc00">
          <ellipse
             ry="32.857143"
             rx="65.714287"
             cy="762.36218"
             cx="567.14288"
             style="fill:#ffcc00;fill-opacity:1;stroke:none"
             id="path8065"
             transform="matrix(0.58270937,-0.81268061,0.81268061,0.58270937,-465.7507,809.03262)" />
          <path
             style="fill:#ffcc00;fill-opacity:1;stroke:none"
             d="m 494.28571,741.6479 c 0,0 14.40901,-2.31616 20.71429,-5.71428 22.08801,-11.90395 53.57143,-52.85715 53.57143,-52.85715 0,0 -33.14169,43.13867 -40,64.99999 -2.07174,6.60382 -1.42857,20.71429 -1.42857,20.71429 z"
             id="path8067"
             inkscape:connector-curvature="0"
             sodipodi:nodetypes="cscscc" />
        </g>
        <g
           transform="matrix(0.02064274,-0.0038908,0.0038908,0.02064274,583.1049,721.64932)"
           id="g8069"
           style="fill:#ffcc00">
          <ellipse
             ry="32.857143"
             rx="65.714287"
             cy="762.36218"
             cx="567.14288"
             style="fill:#ffcc00;fill-opacity:1;stroke:none"
             id="path8071"
             transform="matrix(0.58270937,-0.81268061,0.81268061,0.58270937,-465.7507,809.03262)" />
          <path
             style="fill:#ffcc00;fill-opacity:1;stroke:none"
             d="m 494.28571,741.6479 c 0,0 14.40901,-2.31616 20.71429,-5.71428 22.08801,-11.90395 53.57143,-52.85715 53.57143,-52.85715 0,0 -33.14169,43.13867 -40,64.99999 -2.07174,6.60382 -1.42857,20.71429 -1.42857,20.71429 z"
             id="path8073"
             inkscape:connector-curvature="0"
             sodipodi:nodetypes="cscscc" />
        </g>
      </g>
      <g
         id="g8075"
         style="fill:#ffcc00"
         transform="translate(-10.253048,1.1490485)">
        <g
           transform="matrix(-0.02100622,0,0,0.02100622,604.26937,725.53281)"
           id="g8077"
           style="fill:#ffcc00">
          <ellipse
             ry="32.857143"
             rx="65.714287"
             cy="762.36218"
             cx="567.14288"
             style="fill:#ffcc00;fill-opacity:1;stroke:none"
             id="path8079"
             transform="matrix(0.58270937,-0.81268061,0.81268061,0.58270937,-465.7507,809.03262)" />
          <path
             style="fill:#ffcc00;fill-opacity:1;stroke:none"
             d="m 494.28571,741.6479 c 0,0 14.40901,-2.31616 20.71429,-5.71428 22.08801,-11.90395 53.57143,-52.85715 53.57143,-52.85715 0,0 -33.14169,43.13867 -40,64.99999 -2.07174,6.60382 -1.42857,20.71429 -1.42857,20.71429 z"
             id="path8081"
             inkscape:connector-curvature="0"
             sodipodi:nodetypes="cscscc" />
        </g>
        <g
           transform="matrix(-0.02100622,0,0,0.02100622,604.26938,727.5359)"
           id="g8083"
           style="fill:#ffcc00">
          <ellipse
             ry="32.857143"
             rx="65.714287"
             cy="762.36218"
             cx="567.14288"
             style="fill:#ffcc00;fill-opacity:1;stroke:none"
             id="path8085"
             transform="matrix(0.58270937,-0.81268061,0.81268061,0.58270937,-465.7507,809.03262)" />
          <path
             style="fill:#ffcc00;fill-opacity:1;stroke:none"
             d="m 494.28571,741.6479 c 0,0 14.40901,-2.31616 20.71429,-5.71428 22.08801,-11.90395 53.57143,-52.85715 53.57143,-52.85715 0,0 -33.14169,43.13867 -40,64.99999 -2.07174,6.60382 -1.42857,20.71429 -1.42857,20.71429 z"
             id="path8087"
             inkscape:connector-curvature="0"
             sodipodi:nodetypes="cscscc" />
        </g>
        <g
           transform="matrix(-0.02100622,0,0,0.02100622,604.26938,723.52972)"
           id="g8089"
           style="fill:#ffcc00">
          <ellipse
             ry="32.857143"
             rx="65.714287"
             cy="762.36218"
             cx="567.14288"
             style="fill:#ffcc00;fill-opacity:1;stroke:none"
             id="path8091"
             transform="matrix(0.58270937,-0.81268061,0.81268061,0.58270937,-465.7507,809.03262)" />
          <path
             style="fill:#ffcc00;fill-opacity:1;stroke:none"
             d="m 494.28571,741.6479 c 0,0 14.40901,-2.31616 20.71429,-5.71428 22.08801,-11.90395 53.57143,-52.85715 53.57143,-52.85715 0,0 -33.14169,43.13867 -40,64.99999 -2.07174,6.60382 -1.42857,20.71429 -1.42857,20.71429 z"
             id="path8093"
             inkscape:connector-curvature="0"
             sodipodi:nodetypes="cscscc" />
        </g>
        <g
           transform="matrix(-0.02100622,0,0,0.02100622,604.26937,721.52662)"
           id="g8095"
           style="fill:#ffcc00">
          <ellipse
             ry="32.857143"
             rx="65.714287"
             cy="762.36218"
             cx="567.14288"
             style="fill:#ffcc00;fill-opacity:1;stroke:none"
             id="path8097"
             transform="matrix(0.58270937,-0.81268061,0.81268061,0.58270937,-465.7507,809.03262)" />
          <path
             style="fill:#ffcc00;fill-opacity:1;stroke:none"
             d="m 494.28571,741.6479 c 0,0 14.40901,-2.31616 20.71429,-5.71428 22.08801,-11.90395 53.57143,-52.85715 53.57143,-52.85715 0,0 -33.14169,43.13867 -40,64.99999 -2.07174,6.60382 -1.42857,20.71429 -1.42857,20.71429 z"
             id="path8099"
             inkscape:connector-curvature="0"
             sodipodi:nodetypes="cscscc" />
        </g>
        <g
           transform="matrix(-0.02064274,-0.0038908,-0.0038908,0.02064274,607.30369,721.64932)"
           id="g8101"
           style="fill:#ffcc00">
          <ellipse
             ry="32.857143"
             rx="65.714287"
             cy="762.36218"
             cx="567.14288"
             style="fill:#ffcc00;fill-opacity:1;stroke:none"
             id="path8103"
             transform="matrix(0.58270937,-0.81268061,0.81268061,0.58270937,-465.7507,809.03262)" />
          <path
             style="fill:#ffcc00;fill-opacity:1;stroke:none"
             d="m 494.28571,741.6479 c 0,0 14.40901,-2.31616 20.71429,-5.71428 22.08801,-11.90395 53.57143,-52.85715 53.57143,-52.85715 0,0 -33.14169,43.13867 -40,64.99999 -2.07174,6.60382 -1.42857,20.71429 -1.42857,20.71429 z"
             id="path8105"
             inkscape:connector-curvature="0"
             sodipodi:nodetypes="cscscc" />
        </g>
      </g>
    </g>
    <g
       id="g8107"
       transform="matrix(0.485552,-0.55754244,0.55754244,0.485552,-616.03955,-2.5771103)"
       inkscape:export-filename="C:\Users\Stéphane\Desktop\Blogs\OpenFoodFacts\test-178.png"
       inkscape:export-xdpi="90"
       inkscape:export-ydpi="90">
      <circle
         r="2.5"
         cy="732.36218"
         cx="608"
         style="fill:#ffcc00;fill-opacity:1"
         id="path8109"
         transform="translate(1.5,9.75)" />
      <circle
         r="2.5"
         cy="732.36218"
         cx="608"
         id="path8111"
         style="fill:#ffcc00;fill-opacity:1"
         inkscape:transform-center-x="-3.1501887"
         inkscape:transform-center-y="-1.6050895"
         transform="matrix(0.30901699,-0.95105652,0.95105652,0.30901699,-274.24997,1089.9371)" />
      <circle
         r="2.5"
         cy="732.36218"
         cx="608"
         transform="matrix(-0.809017,-0.58778525,0.58778525,-0.809017,667.85758,1685.9871)"
         inkscape:transform-center-y="-3.4919705"
         inkscape:transform-center-x="0.5530674"
         style="fill:#ffcc00;fill-opacity:1"
         id="path8113" />
      <circle
         r="2.5"
         cy="732.36218"
         cx="608"
         id="path8115"
         style="fill:#ffcc00;fill-opacity:1"
         inkscape:transform-center-x="3.4919258"
         inkscape:transform-center-y="-0.5530731"
         transform="matrix(-0.80901699,0.58778526,-0.58778526,-0.80901699,1525.8621,974.17912)" />
      <circle
         r="2.5"
         cy="732.36218"
         cx="608"
         transform="matrix(0.309017,0.95105651,-0.95105651,0.309017,1114.0304,-61.792435)"
         inkscape:transform-center-y="3.1501051"
         inkscape:transform-center-x="1.6050854"
         style="fill:#ffcc00;fill-opacity:1"
         id="path8117" />
    </g>
    <g
       transform="matrix(-0.6491698,-0.35382606,0.35382606,-0.6491698,218.16484,702.9075)"
       id="g8119"
       inkscape:export-filename="C:\Users\Stéphane\Desktop\Blogs\OpenFoodFacts\test-178.png"
       inkscape:export-xdpi="90"
       inkscape:export-ydpi="90">
      <circle
         r="2.5"
         cy="732.36218"
         cx="608"
         transform="translate(1.5,9.75)"
         id="path8121"
         style="fill:#ffcc00;fill-opacity:1" />
      <circle
         r="2.5"
         cy="732.36218"
         cx="608"
         transform="matrix(0.30901699,-0.95105652,0.95105652,0.30901699,-274.24997,1089.9371)"
         inkscape:transform-center-y="-1.6050895"
         inkscape:transform-center-x="-3.1501887"
         style="fill:#ffcc00;fill-opacity:1"
         id="path8123" />
      <circle
         r="2.5"
         cy="732.36218"
         cx="608"
         id="path8125"
         style="fill:#ffcc00;fill-opacity:1"
         inkscape:transform-center-x="0.5530674"
         inkscape:transform-center-y="-3.4919705"
         transform="matrix(-0.809017,-0.58778525,0.58778525,-0.809017,667.85758,1685.9871)" />
      <circle
         r="2.5"
         cy="732.36218"
         cx="608"
         transform="matrix(-0.80901699,0.58778526,-0.58778526,-0.80901699,1525.8621,974.17912)"
         inkscape:transform-center-y="-0.5530731"
         inkscape:transform-center-x="3.4919258"
         style="fill:#ffcc00;fill-opacity:1"
         id="path8127" />
      <circle
         r="2.5"
         cy="732.36218"
         cx="608"
         id="path8129"
         style="fill:#ffcc00;fill-opacity:1"
         inkscape:transform-center-x="1.6050854"
         inkscape:transform-center-y="3.1501051"
         transform="matrix(0.309017,0.95105651,-0.95105651,0.309017,1114.0304,-61.792435)" />
    </g>
    <g
       id="g8131"
       transform="matrix(0.31450273,-0.66910564,0.66910564,0.31450273,-610.58237,190.80877)"
       inkscape:export-filename="C:\Users\Stéphane\Desktop\Blogs\OpenFoodFacts\test-178.png"
       inkscape:export-xdpi="90"
       inkscape:export-ydpi="90">
      <circle
         r="2.5"
         cy="732.36218"
         cx="608"
         style="fill:#ffcc00;fill-opacity:1"
         id="path8133"
         transform="translate(1.5,9.75)" />
      <circle
         r="2.5"
         cy="732.36218"
         cx="608"
         id="path8135"
         style="fill:#ffcc00;fill-opacity:1"
         inkscape:transform-center-x="-3.1501887"
         inkscape:transform-center-y="-1.6050895"
         transform="matrix(0.30901699,-0.95105652,0.95105652,0.30901699,-274.24997,1089.9371)" />
      <circle
         r="2.5"
         cy="732.36218"
         cx="608"
         transform="matrix(-0.809017,-0.58778525,0.58778525,-0.809017,667.85758,1685.9871)"
         inkscape:transform-center-y="-3.4919705"
         inkscape:transform-center-x="0.5530674"
         style="fill:#ffcc00;fill-opacity:1"
         id="path8137" />
      <circle
         r="2.5"
         cy="732.36218"
         cx="608"
         id="path8139"
         style="fill:#ffcc00;fill-opacity:1"
         inkscape:transform-center-x="3.4919258"
         inkscape:transform-center-y="-0.5530731"
         transform="matrix(-0.80901699,0.58778526,-0.58778526,-0.80901699,1525.8621,974.17912)" />
      <circle
         r="2.5"
         cy="732.36218"
         cx="608"
         transform="matrix(0.309017,0.95105651,-0.95105651,0.309017,1114.0304,-61.792435)"
         inkscape:transform-center-y="3.1501051"
         inkscape:transform-center-x="1.6050854"
         style="fill:#ffcc00;fill-opacity:1"
         id="path8141" />
    </g>
    <path
       style="fill:#00d400;fill-opacity:1;fill-rule:nonzero;stroke:none"
       d="M 122.44657,6.33728 C 131.63587,7.287033 135.07702,14.767884 135,28 l 2.96392,-1.398609 c 0,-1.461895 -0.0255,-1.249361 -0.0255,-2.711244 0,-10.866897 -6.40398,-17.274677 -10.91182,-18.343579 z"
       id="path8143"
       inkscape:connector-curvature="0"
       inkscape:export-filename="C:\Users\Stéphane\Desktop\Blogs\OpenFoodFacts\test-178.png"
       inkscape:export-xdpi="90"
       inkscape:export-ydpi="90"
       sodipodi:nodetypes="cccscc" />
    <g
       transform="matrix(0.89458574,0,0,0.89458574,-468.09845,-644.42698)"
       id="g8145"
       inkscape:export-filename="C:\Users\Stéphane\Desktop\Blogs\OpenFoodFacts\test-178.png"
       inkscape:export-xdpi="90"
       inkscape:export-ydpi="90">
      <g
         transform="translate(-0.6875,-0.0625)"
         id="g8147">
        <path
           sodipodi:nodetypes="ccc"
           inkscape:connector-curvature="0"
           id="path8149"
           d="m 646.11882,744.69741 c 9.98853,-2.85699 22.36057,-3.40732 20.1894,-18.03175 -19.13147,-9.00363 -12.68327,7.89971 -20.1894,18.03175 z"
           style="fill:#00d400;stroke:none" />
        <path
           sodipodi:nodetypes="ccc"
           inkscape:connector-curvature="0"
           id="path8151"
           d="m 667.50879,725.1485 c -4.96993,6.86401 -15.79612,16.96445 -22.45063,19.97578 6.6817,-2.48508 19.65127,-12.66443 22.45063,-19.97578 z"
           style="fill:#ffffff;fill-opacity:1;stroke:none" />
      </g>
    </g>
    <g
       id="g8153"
       transform="matrix(0.73729109,0.50664139,0.50664139,-0.73729109,-728.9281,199.42539)"
       inkscape:export-filename="C:\Users\Stéphane\Desktop\Blogs\OpenFoodFacts\test-178.png"
       inkscape:export-xdpi="90"
       inkscape:export-ydpi="90">
      <g
         transform="matrix(-0.85351374,-0.52107033,0.52107033,-0.85351374,864.58887,1695.2445)"
         id="g8155">
        <g
           transform="translate(-0.6875,-0.0625)"
           id="g8157">
          <path
             sodipodi:nodetypes="ccc"
             inkscape:connector-curvature="0"
             id="path8159"
             d="m 646.11882,744.69741 c 9.98853,-2.85699 22.36057,-3.40732 20.1894,-18.03175 -19.99874,-7.24796 -12.68327,7.89971 -20.1894,18.03175 z"
             style="fill:#00d400;stroke:none" />
          <path
             sodipodi:nodetypes="ccc"
             inkscape:connector-curvature="0"
             id="path8161"
             d="m 667.50879,725.1485 c -4.96993,6.86401 -15.79612,16.96445 -22.45063,19.97578 6.6817,-2.48508 19.65127,-12.66443 22.45063,-19.97578 z"
             style="fill:#ffffff;fill-opacity:1;stroke:none" />
        </g>
      </g>
    </g>
    <path
       sodipodi:nodetypes="cccscc"
       inkscape:export-ydpi="90"
       inkscape:export-xdpi="90"
       inkscape:export-filename="C:\Users\Stéphane\Desktop\Blogs\OpenFoodFacts\test-178.png"
       inkscape:connector-curvature="0"
       id="path8163"
       d="M 137.87818,4.60402 C 135.88514,6.168809 135.07702,14.767884 135,28 l 2.96392,-1.398609 c 0,-1.461895 0.0361,1.860492 0.0361,0.398609 0,-10.866897 0.85886,-19.322201 1.21536,-21.117966 z"
       style="fill:#00d400;fill-opacity:1;fill-rule:nonzero;stroke:none" />
    <circle
       r="0.94885141"
       cy="35.27636"
       cx="159.09236"
       inkscape:export-ydpi="90"
       inkscape:export-xdpi="90"
       inkscape:export-filename="C:\Users\Stéphane\Desktop\Blogs\OpenFoodFacts\test-178.png"
       style="fill:#00ccff;fill-opacity:1;stroke:none"
       id="path8165" />
    <path
       sodipodi:nodetypes="cccccc"
       inkscape:export-ydpi="90"
       inkscape:export-xdpi="90"
       inkscape:export-filename="C:\Users\Stéphane\Desktop\Blogs\OpenFoodFacts\test-178.png"
       id="path8169"
       d="m 170.00004,118 0,5 c 2.66569,0 5.33424,0 7.99992,0 l 0,-5 c -2.66568,0 -5.33423,0 -7.99983,0 z"
       style="fill:#0066ff;fill-opacity:1;fill-rule:nonzero;stroke:none"
       inkscape:connector-curvature="0" />
    <path
       sodipodi:nodetypes="ccccc"
       inkscape:export-ydpi="90"
       inkscape:export-xdpi="90"
       inkscape:export-filename="C:\Users\Stéphane\Desktop\Blogs\OpenFoodFacts\test-178.png"
       id="path8171"
       d="m 154.00001,118 0,5 c 4.33407,0 8.6659,0 12.99997,0 l 0,-5 c -4.33407,0 -8.6659,0 -12.99997,0 z"
       style="fill:#00ccff;fill-opacity:1;fill-rule:nonzero;stroke:none"
       inkscape:connector-curvature="0" />
    <path
       sodipodi:nodetypes="ccccc"
       inkscape:export-ydpi="90"
       inkscape:export-xdpi="90"
       inkscape:export-filename="C:\Users\Stéphane\Desktop\Blogs\OpenFoodFacts\test-178.png"
       id="path8173"
       d="m 95,118 0,5 c 18.6596,0 37.34041,0 56.00004,0 l 0,-5 C 132.34041,118 113.6596,118 95,118 Z"
       style="fill:#00d400;fill-opacity:1;fill-rule:nonzero;stroke:none"
       inkscape:connector-curvature="0" />
    <path
       sodipodi:nodetypes="ccccc"
       inkscape:export-ydpi="90"
       inkscape:export-xdpi="90"
       inkscape:export-filename="C:\Users\Stéphane\Desktop\Blogs\OpenFoodFacts\test-178.png"
       id="path8175"
       d="m 36.999996,118 0,5 C 55.333383,123 73.666619,123 92,123 l 0,-5 c -18.333381,0 -36.666617,0 -55.000004,0 z"
       style="fill:#ffcc00;fill-opacity:1;fill-rule:nonzero;stroke:none"
       inkscape:connector-curvature="0" />
    <path
       sodipodi:nodetypes="ccccc"
       inkscape:export-ydpi="90"
       inkscape:export-xdpi="90"
       inkscape:export-filename="C:\Users\Stéphane\Desktop\Blogs\OpenFoodFacts\test-178.png"
       id="path8177"
       d="m 0,118 0,5 c 11.333706,0 22.666301,0 33.999997,0 l 0,-5 C 22.666301,118 11.333706,118 0,118 Z"
       style="fill:#ff0000;fill-opacity:1;fill-rule:nonzero;stroke:none"
       inkscape:connector-curvature="0" />
    <g
       style="font-style:normal;font-variant:normal;font-weight:normal;font-stretch:normal;font-size:32.81705093px;line-height:125%;font-family:'Arial Narrow';-inkscape-font-specification:'Arial Narrow';letter-spacing:0px;word-spacing:0px;fill:#333333;fill-opacity:1;stroke:none"
       id="text8179"
       inkscape:export-filename="C:\Users\Stéphane\Desktop\Blogs\OpenFoodFacts\test-178.png"
       inkscape:export-xdpi="90"
       inkscape:export-ydpi="90"
       transform="translate(0,2.637817)">
      <path
         inkscape:connector-curvature="0"
         d="m 0.29533203,104.18406 c -9.5e-7,-2.79573 0.61506181,-4.944723 1.84519007,-6.446982 1.2301228,-1.50223 2.7621882,-2.253352 4.5962009,-2.253369 1.1853862,1.7e-5 2.2664056,0.335506 3.2430614,1.006468 0.9766346,0.670993 1.7501226,1.645774 2.3204666,2.924346 0.570318,1.278597 0.855483,2.801347 0.855497,4.568247 -1.4e-5,2.43043 -0.551707,4.40982 -1.65508,5.93815 -1.215227,1.68491 -2.8069346,2.52736 -4.775128,2.52736 -1.9831188,0 -3.5785543,-0.86482 -4.7863113,-2.59445 -1.09593262,-1.56562 -1.64389762,-3.45554 -1.64389667,-5.66977 z m 1.83400717,0.0335 c -2.8e-6,2.0204 0.4454517,3.58787 1.3363649,4.70244 0.890905,1.11457 1.9737882,1.67185 3.2486529,1.67185 1.3046712,0 2.3987374,-0.56287 3.2822018,-1.68863 0.8834432,-1.12574 1.3251702,-2.78082 1.3251822,-4.96524 -1.2e-5,-1.40904 -0.227399,-2.66899 -0.682161,-3.77984 C 10.289169,99.308298 9.761706,98.628001 9.0571893,98.117299 8.3526532,97.606624 7.5828928,97.35128 6.7479059,97.351265 5.4059434,97.35128 4.3006943,97.910428 3.4321552,99.028711 2.563608,100.14702 2.1293364,101.87665 2.1293392,104.21761 Z"
         style="font-size:22.90272331px;fill:#333333"
         id="path3685" />
      <path
         d="m 15,112.36218 0,-16.999997 4.674837,0 c 1.224167,1.6e-5 2.126995,0.107131 2.708487,0.321346 0.795704,0.290757 1.430744,0.830159 1.905122,1.618206 0.474357,0.788077 0.711542,1.755941 0.711554,2.903595 -1.2e-5,1.51492 -0.386392,2.75057 -1.159142,3.70695 -0.772771,0.9564 -2.107912,1.42433 -4.005348,1.43458 L 17,105.36218 l 0,7 z m 2,-9 2.86994,-7.7e-4 c 1.124703,-3e-4 1.947195,-0.25439 2.467477,-0.7632 0.520265,-0.50879 0.780403,-1.27581 0.780412,-2.30107 -9e-6,-0.665632 -0.128166,-1.235638 -0.384467,-1.710022 -0.256321,-0.474353 -0.56619,-0.799524 -0.929608,-0.975514 -0.363435,-0.17596 -1.019516,-0.263948 -1.968244,-0.263963 L 17,97.362183 Z"
         style="font-size:22.90272331px;fill:#333333"
         id="path3687"
         inkscape:connector-curvature="0"
         sodipodi:nodetypes="ccccccssccccsscccccc" />
      <path
         d="m 27,112.36218 0,-16.999997 10,0 0,2 -8,0 0,4.999997 7,0 0,2 -7,0 0,6 8,0 0,2 z"
         style="font-size:22.90272331px;fill:#333333"
         id="path3689"
         inkscape:connector-curvature="0"
         sodipodi:nodetypes="ccccccccccccc" />
      <path
         d="m 39,112.36218 0,-16.999997 2,0 7,12.999997 0,-12.999997 2,0 0,16.999997 -2,0 -7,-12.999997 0,12.999997 z"
         style="font-size:22.90272331px;fill:#333333"
         id="path3691"
         inkscape:connector-curvature="0"
         sodipodi:nodetypes="ccccccccccc" />
      <path
         d="m 58,112.36218 0,-16.999997 9,0 0,2 -7,0 0,4.999997 6,0 0,2 -6,0 0,8 z"
         style="font-size:22.90272331px;fill:#333333"
         id="path3693"
         inkscape:connector-curvature="0"
         sodipodi:nodetypes="ccccccccccc" />
      <path
         d="m 68.255995,104.18406 c -10e-7,-2.79573 0.615062,-4.944723 1.84519,-6.446982 1.230123,-1.50223 2.762188,-2.253352 4.596201,-2.253369 1.185386,1.7e-5 2.266405,0.335506 3.243061,1.006468 0.976635,0.670993 1.750123,1.645774 2.320467,2.924346 0.570318,1.278597 0.855483,2.801347 0.855497,4.568247 -1.4e-5,2.43043 -0.551707,4.40982 -1.65508,5.93815 -1.215227,1.68491 -2.806935,2.52736 -4.775128,2.52736 -1.983119,0 -3.578554,-0.86482 -4.786311,-2.59445 -1.095933,-1.56562 -1.643898,-3.45554 -1.643897,-5.66977 z m 1.834007,0.0335 c -3e-6,2.0204 0.445452,3.58787 1.336365,4.70244 0.890905,1.11457 1.973788,1.67185 3.248653,1.67185 1.304671,0 2.398737,-0.56287 3.282202,-1.68863 0.883443,-1.12574 1.32517,-2.78082 1.325182,-4.96524 -1.2e-5,-1.40904 -0.227399,-2.66899 -0.682162,-3.77984 -0.35041,-0.849892 -0.877873,-1.530189 -1.58239,-2.040891 -0.704536,-0.510675 -1.474296,-0.766019 -2.309283,-0.766034 -1.341963,1.5e-5 -2.447212,0.559163 -3.315751,1.677446 -0.868547,1.118309 -1.302819,2.847939 -1.302816,5.188899 z"
         style="font-size:22.90272331px;fill:#333333"
         id="path3695"
         inkscape:connector-curvature="0"
         sodipodi:nodetypes="sscccccscsssssccccss" />
      <path
         d="m 82.883322,104.18406 c -1e-6,-2.79573 0.615062,-4.944723 1.84519,-6.446982 1.230123,-1.50223 2.762188,-2.253352 4.596201,-2.253369 1.185386,1.7e-5 2.266405,0.335506 3.243061,1.006468 0.976635,0.670993 1.750123,1.645774 2.320467,2.924346 0.570317,1.278597 0.855483,2.801347 0.855497,4.568247 -1.4e-5,2.43043 -0.551707,4.40982 -1.65508,5.93815 -1.215227,1.68491 -2.806935,2.52736 -4.775128,2.52736 -1.983119,0 -3.578555,-0.86482 -4.786312,-2.59445 -1.095932,-1.56562 -1.643897,-3.45554 -1.643896,-5.66977 z m 1.834007,0.0335 c -3e-6,2.0204 0.445452,3.58787 1.336365,4.70244 0.890905,1.11457 1.973788,1.67185 3.248653,1.67185 1.304671,0 2.398737,-0.56287 3.282202,-1.68863 0.883443,-1.12574 1.32517,-2.78082 1.325182,-4.96524 -1.2e-5,-1.40904 -0.227399,-2.66899 -0.682162,-3.77984 -0.35041,-0.849892 -0.877873,-1.530189 -1.58239,-2.040891 -0.704536,-0.510675 -1.474296,-0.766019 -2.309283,-0.766034 -1.341963,1.5e-5 -2.447212,0.559163 -3.315751,1.677446 -0.868547,1.118309 -1.302819,2.847939 -1.302816,5.188899 z"
         style="font-size:22.90272331px;fill:#333333"
         id="path3697"
         inkscape:connector-curvature="0"
         sodipodi:nodetypes="sscccccscsssssccccss" />
      <path
         d="m 98,112.36218 0,-16.999997 5,0 c 1.21266,1.6e-5 2.00501,0.174276 2.63497,0.382679 0.82682,0.270189 1.54339,0.719576 2.14974,1.437449 0.60633,0.717903 1.0788,1.622982 1.41741,2.715233 0.33859,1.092286 0.50789,2.387186 0.5079,3.884706 -1e-5,1.9221 -0.28743,3.55278 -0.86225,4.89207 -0.57485,1.33928 -1.31309,2.28875 -2.21471,2.8484 -0.90163,0.55964 -2.17628,0.83946 -3.63306,0.83946 z m 2,-2 3,0 c 1.22054,0 2.01682,-0.19791 2.64678,-0.58773 0.62996,-0.38982 1.11424,-1.01701 1.45285,-1.88157 0.44883,-1.15015 0.67326,-2.52803 0.67327,-4.13365 -1e-5,-1.72137 -0.23822,-3.07416 -0.71461,-4.058372 -0.47642,-0.984193 -1.08866,-1.642257 -1.83673,-1.974198 C 104.71759,97.502677 104.09454,97.362198 103,97.362183 l -3,0 z"
         style="font-size:22.90272331px;fill:#333333"
         id="path3699"
         inkscape:connector-curvature="0"
         sodipodi:nodetypes="ccccccccssccssccccccc" />
      <path
         d="m 118,112.36218 0.0757,-16.999997 9,0 0,2 -7,3.8e-5 0,4.999999 6,0 0,2 -6,0 0,7.99996 z"
         style="font-size:22.90272331px;fill:#333333"
         id="path3701"
         inkscape:connector-curvature="0"
         sodipodi:nodetypes="ccccccccccc" />
      <path
         d="m 128.07572,112.36218 5,-16.999997 2,0 5,16.999997 -2,0 -4,-14.999997 -4.04025,14.999997 z"
         style="font-size:22.90272331px;fill:#333333"
         id="path3703"
         inkscape:connector-curvature="0"
         sodipodi:nodetypes="cccccccc" />
      <path
         d="m 151.36137,106.42065 1.78927,0.54797 c -0.39514,1.84147 -1.08662,3.21511 -2.07444,4.12092 -0.98784,0.90583 -2.19001,1.35874 -3.60651,1.35874 -1.24504,0 -2.30929,-0.30381 -3.19273,-0.91142 -0.88346,-0.6076 -1.60663,-1.58238 -2.1695,-2.92434 -0.56288,-1.34195 -0.84432,-2.92621 -0.84432,-4.75277 0,-1.80417 0.28144,-3.33065 0.84432,-4.579422 0.56287,-1.248751 1.32518,-2.191847 2.28692,-2.829292 0.96173,-0.637413 2.03529,-0.956127 3.22069,-0.956144 1.29722,1.7e-5 2.41179,0.404467 3.34371,1.213353 0.9319,0.808916 1.58424,1.996173 1.95702,3.561775 l -1.74454,0.50323 c -0.59644,-2.281308 -1.79302,-3.42197 -3.58974,-3.421985 -0.89464,1.5e-5 -1.66999,0.229266 -2.32605,0.687753 -0.65608,0.458516 -1.17981,1.172361 -1.57121,2.141542 -0.39141,0.9692 -0.58711,2.1956 -0.58711,3.67919 0,2.24406 0.39513,3.92709 1.1854,5.04912 0.79026,1.12202 1.84145,1.68303 3.15359,1.68303 0.96919,0 1.80605,-0.3448 2.51058,-1.03442 0.70452,-0.68962 1.17607,-1.73522 1.41465,-3.13683 z"
         style="font-size:22.90272331px;fill:#333333"
         id="path3705"
         inkscape:connector-curvature="0"
         sodipodi:nodetypes="ccsscssscccccccsssssc" />
      <path
         d="m 159,112.36218 0,-14.999997 -5,0.0061 0,-2.006138 12,0 0,2 -5,0 0,14.999995 z"
         style="font-size:22.90272331px;fill:#333333"
         id="path3707"
         inkscape:connector-curvature="0"
         sodipodi:nodetypes="ccccccccc" />
      <path
         inkscape:connector-curvature="0"
         d="m 167.26826,106.90152 1.67745,-0.17893 c 0.0895,0.9021 0.29262,1.60476 0.60947,2.10799 0.31685,0.50324 0.76976,0.90769 1.35873,1.21336 0.58897,0.30567 1.25249,0.4585 1.99057,0.4585 1.05865,0 1.88059,-0.25907 2.46585,-0.77722 0.58523,-0.51814 0.87785,-1.19098 0.87786,-2.01852 -1e-5,-0.48459 -0.10625,-0.90768 -0.31872,-1.26927 -0.21248,-0.36158 -0.53306,-0.65793 -0.96173,-0.88905 -0.42869,-0.23111 -1.35501,-0.55541 -2.77897,-0.97292 -1.26741,-0.37275 -2.1695,-0.74925 -2.70628,-1.12948 -0.53678,-0.38021 -0.95428,-0.86294 -1.25249,-1.44819 -0.29822,-0.58523 -0.44732,-1.24689 -0.44732,-1.98498 0,-1.32703 0.42868,-2.411777 1.28604,-3.254242 0.85736,-0.842434 2.01293,-1.263659 3.46672,-1.263676 0.99901,1.7e-5 1.87314,0.197583 2.62241,0.592698 0.74925,0.395147 1.33076,0.96175 1.74454,1.699811 0.41376,0.73809 0.63556,1.606633 0.66539,2.605629 l -1.711,0.15656 c -0.0895,-1.066092 -0.40818,-1.856355 -0.95614,-2.370785 -0.54797,-0.514402 -1.31773,-0.77161 -2.30928,-0.771625 -1.00648,1.5e-5 -1.77437,0.225538 -2.30369,0.67657 -0.52934,0.45106 -0.794,1.034438 -0.794,1.750135 0,0.663535 0.19384,1.177955 0.58152,1.543245 0.38767,0.36533 1.25994,0.73436 2.61681,1.10712 1.32704,0.36532 2.25896,0.68217 2.79575,0.95055 0.82007,0.41751 1.43886,0.96734 1.85637,1.64949 0.41749,0.68217 0.62623,1.49666 0.62625,2.44348 -2e-5,0.93937 -0.21995,1.79487 -0.6598,2.56649 -0.43987,0.77163 -1.03816,1.35873 -1.79487,1.76132 -0.75672,0.40258 -1.66813,0.60388 -2.73423,0.60388 -1.66254,0 -2.98772,-0.49951 -3.97555,-1.49852 -0.98783,-0.99901 -1.50038,-2.35215 -1.53766,-4.05942 z"
         style="font-size:22.90272331px;fill:#333333"
         id="path3709" />
      <path
         sodipodi:nodetypes="ccccc"
         inkscape:connector-curvature="0"
         id="path3713"
         style="font-size:22.90272331px;fill:#333333"
         d="m 137.07572,105.36218 0,2 -6,0 0,-2 z" />
    </g>
    <g
       transform="matrix(0.90339875,0,0,1.1069309,-11,-9.5)"
       style="font-style:normal;font-variant:normal;font-weight:normal;font-stretch:normal;font-size:37.06894684px;line-height:125%;font-family:'Arial Narrow';-inkscape-font-specification:'Arial Narrow';letter-spacing:0px;word-spacing:0px;fill:#333333;fill-opacity:1;stroke:none"
       id="text3715"
       inkscape:export-filename="C:\Users\Stéphane\Desktop\Blogs\OpenFoodFacts\test-178.png"
       inkscape:export-xdpi="90"
       inkscape:export-ydpi="90">
      <path
         d="m 13.019409,135.01836 0,-12.12847 1.216156,0 0,12.12847 z"
         style="font-size:16.94345474px;fill:#333333"
         id="path9050"
         inkscape:connector-curvature="0" />
      <path
         d="m 16.138395,127.18366 -0.314381,-2.26685 0,-2.02692 1.389893,0 0,2.02692 -0.322654,2.26685 z"
         style="font-size:16.94345474px;fill:#333333"
         id="path9052"
         inkscape:connector-curvature="0" />
      <path
         d="m 18.810629,124.60243 0,-1.71254 1.216156,0 0,1.71254 z m 0,10.41593 0,-8.78611 1.216156,0 0,8.78611 z"
         style="font-size:16.94345474px;fill:#333333"
         id="path9054"
         inkscape:connector-curvature="0" />
      <path
         d="m 21.888249,135.01836 0,-8.78611 1.100331,0 0,1.24925 c 0.26474,-0.48535 0.588772,-0.84799 0.972098,-1.08792 0.38332,-0.23992 0.823177,-0.35988 1.319571,-0.35989 0.386077,10e-6 0.743201,0.0758 1.071376,0.22751 0.328163,0.15169 0.592904,0.35024 0.794224,0.59567 0.201308,0.24545 0.351603,0.56396 0.450888,0.95555 0.09927,0.39161 0.14891,0.99279 0.148917,1.80356 l 0,5.40238 -1.224429,0 0,-5.34447 c -6e-6,-0.6453 -0.05516,-1.11687 -0.165464,-1.41471 -0.110314,-0.29783 -0.282672,-0.5281 -0.517073,-0.69081 -0.234411,-0.1627 -0.506047,-0.24406 -0.814907,-0.24406 -0.584641,0 -1.050696,0.21786 -1.398166,0.65358 -0.347476,0.43572 -0.521212,1.18307 -0.52121,2.24203 l 0,4.79844 z"
         style="font-size:16.94345474px;fill:#333333"
         id="path9056"
         inkscape:connector-curvature="0" />
      <path
         d="m 29.97941,135.01836 0,-7.62787 -1.083785,0 0,-1.15824 1.083785,0 0,-0.93487 c -1e-6,-0.68942 0.0717,-1.20649 0.215103,-1.55122 0.1434,-0.3447 0.362639,-0.60807 0.657717,-0.79009 0.295074,-0.18199 0.665988,-0.273 1.112742,-0.27301 0.347469,1e-5 0.728035,0.0496 1.141697,0.14892 l -0.18201,1.29888 c -0.253714,-0.0551 -0.493636,-0.0827 -0.719765,-0.0827 -0.364023,1e-5 -0.624628,0.0952 -0.781815,0.28543 -0.157193,0.19029 -0.235788,0.55293 -0.235786,1.08792 l 0,0.81077 1.40644,0 0,1.15824 -1.40644,0 0,7.62787 z"
         style="font-size:16.94345474px;fill:#333333"
         id="path9058"
         inkscape:connector-curvature="0" />
      <path
         d="m 33.048756,130.6253 c 0,-1.51674 0.318517,-2.66119 0.955551,-3.43336 0.637033,-0.77216 1.443666,-1.15824 2.419903,-1.15825 0.959683,10e-6 1.76218,0.38609 2.407493,1.15825 0.6453,0.77217 0.967954,1.88629 0.967961,3.34236 -7e-6,1.57742 -0.317145,2.75221 -0.951415,3.52437 -0.634282,0.77216 -1.442294,1.15824 -2.424039,1.15824 -0.965206,0 -1.769082,-0.38746 -2.411629,-1.16238 -0.642551,-0.77492 -0.963825,-1.91799 -0.963825,-3.42923 z m 1.249249,0 c -2e-6,1.13619 0.206827,1.98143 0.620488,2.53573 0.413656,0.5543 0.926592,0.83145 1.53881,0.83145 0.573602,0 1.065855,-0.2799 1.476761,-0.83972 0.410895,-0.55982 0.616345,-1.4023 0.616351,-2.52746 -6e-6,-1.13066 -0.206835,-1.97314 -0.620488,-2.52745 -0.413663,-0.5543 -0.926599,-0.83145 -1.53881,-0.83146 -0.579125,1e-5 -1.072757,0.27854 -1.480897,0.8356 -0.408145,0.55706 -0.612217,1.39817 -0.612215,2.52331 z"
         style="font-size:16.94345474px;fill:#333333"
         id="path9060"
         inkscape:connector-curvature="0" />
      <path
         d="m 41.247469,135.01836 0,-8.78611 1.100332,0 0,1.33198 c 0.281286,-0.61772 0.539132,-1.02724 0.773541,-1.22857 0.234404,-0.2013 0.497766,-0.30196 0.790088,-0.30197 0.40814,10e-6 0.824555,0.15996 1.249249,0.47985 l -0.413658,1.38162 c -0.303354,-0.2151 -0.59843,-0.32265 -0.88523,-0.32266 -0.259229,10e-6 -0.496393,0.091 -0.711492,0.27302 -0.215105,0.18201 -0.36678,0.43572 -0.455025,0.76113 -0.154435,0.5681 -0.231651,1.17204 -0.231649,1.81182 l 0,4.59989 z"
         style="font-size:16.94345474px;fill:#333333"
         id="path9062"
         inkscape:connector-curvature="0" />
      <path
         d="m 45.89699,135.01836 0,-8.78611 1.092059,0 0,1.2327 c 0.242677,-0.45777 0.5543,-0.81076 0.934868,-1.05896 0.380563,-0.24819 0.796979,-0.37229 1.249249,-0.3723 0.507416,10e-6 0.936242,0.131 1.286478,0.39298 0.350225,0.26199 0.599799,0.64393 0.748722,1.14583 0.286797,-0.51293 0.616345,-0.89763 0.988644,-1.15411 0.372285,-0.25645 0.784565,-0.38469 1.236839,-0.3847 0.689422,10e-6 1.232693,0.23442 1.629815,0.70322 0.397102,0.46882 0.595658,1.21892 0.595668,2.2503 l 0,6.03115 -1.216156,0 0,-5.53476 c -9e-6,-0.62875 -0.04551,-1.07412 -0.136507,-1.33611 -0.09101,-0.26198 -0.238552,-0.46467 -0.442615,-0.60808 -0.20408,-0.14339 -0.432971,-0.2151 -0.686673,-0.2151 -0.523975,0 -0.951422,0.20821 -1.282342,0.62462 -0.330933,0.41642 -0.496396,1.07138 -0.49639,1.96488 l 0,5.10455 -1.224429,0 0,-5.70849 c -5e-6,-0.72803 -0.111693,-1.24097 -0.335064,-1.53881 -0.22338,-0.29783 -0.530866,-0.44675 -0.922458,-0.44675 -0.557064,0 -0.99692,0.22476 -1.319571,0.67426 -0.322656,0.44952 -0.483983,1.26994 -0.483981,2.46127 l 0,4.55852 z"
         style="font-size:16.94345474px;fill:#333333"
         id="path9064"
         inkscape:connector-curvature="0" />
      <path
         d="m 62.162045,133.93457 c -0.408149,0.42469 -0.832838,0.74459 -1.274069,0.95969 -0.44124,0.2151 -0.899021,0.32265 -1.373346,0.32265 -0.750103,0 -1.348529,-0.22613 -1.795278,-0.6784 -0.446752,-0.45226 -0.670128,-1.06172 -0.670127,-1.82837 -10e-7,-0.50742 0.104793,-0.95693 0.31438,-1.34853 0.209586,-0.39159 0.496389,-0.6977 0.86041,-0.91832 0.364018,-0.22061 0.915562,-0.38332 1.654634,-0.48811 0.992777,-0.1434 1.720815,-0.31438 2.184117,-0.51294 l 0.0083,-0.38057 c -6e-6,-0.60117 -0.107557,-1.02311 -0.322654,-1.26579 -0.303355,-0.35298 -0.769409,-0.52948 -1.398166,-0.52949 -0.568094,1e-5 -0.992783,0.11722 -1.274068,0.35161 -0.28129,0.23442 -0.488119,0.67427 -0.620488,1.31958 l -1.19961,-0.19856 c 0.170978,-0.94313 0.517072,-1.62981 1.038283,-2.06002 0.521208,-0.4302 1.267171,-0.6453 2.237893,-0.64531 0.755611,10e-6 1.348521,0.14203 1.778732,0.42607 0.430198,0.28405 0.701834,0.63566 0.814907,1.05483 0.11306,0.41918 0.169593,1.0314 0.1696,1.83664 l 0,1.98557 c -7e-6,1.38989 0.02619,2.26547 0.07859,2.62673 0.05239,0.36126 0.155805,0.71287 0.310244,1.05483 l -1.274068,0 c -0.126861,-0.30335 -0.209593,-0.66461 -0.248195,-1.08379 z m -0.09928,-3.32581 c -0.446756,0.22062 -1.111367,0.40814 -1.993834,0.56257 -0.512939,0.0882 -0.871443,0.18891 -1.075512,0.30197 -0.204074,0.11307 -0.362643,0.27302 -0.475707,0.47985 -0.113069,0.20683 -0.169602,0.44537 -0.1696,0.71563 -2e-6,0.41917 0.129611,0.75423 0.388839,1.00519 0.259223,0.25095 0.617727,0.37643 1.075512,0.37643 0.435717,0 0.83145,-0.11307 1.1872,-0.3392 0.355742,-0.22614 0.621862,-0.52811 0.798361,-0.90592 0.176489,-0.3778 0.264736,-0.92797 0.264741,-1.65049 z"
         style="font-size:16.94345474px;fill:#333333"
         id="path9066"
         inkscape:connector-curvature="0" />
      <path
         d="m 67.928447,133.68638 0.165464,1.31543 c -0.336446,0.0882 -0.639796,0.13237 -0.910049,0.13237 -0.424692,0 -0.76665,-0.0841 -1.025874,-0.25233 -0.259227,-0.16822 -0.4371,-0.39849 -0.533619,-0.69081 -0.09652,-0.29232 -0.144782,-0.8742 -0.144781,-1.74564 l 0,-5.05491 -0.893502,0 0,-1.15824 0.893502,0 0,-2.17585 1.216157,-0.8935 0,3.06935 1.232702,0 0,1.15824 -1.232702,0 0,5.13764 c -3e-6,0.47433 0.03585,0.78044 0.107551,0.91832 0.104791,0.19856 0.300589,0.29784 0.587395,0.29784 0.137883,0 0.317135,-0.0193 0.537756,-0.0579 z"
         style="font-size:16.94345474px;fill:#333333"
         id="path9068"
         inkscape:connector-curvature="0" />
      <path
         d="m 69.078415,124.60243 0,-1.71254 1.216156,0 0,1.71254 z m 0,10.41593 0,-8.78611 1.216156,0 0,8.78611 z"
         style="font-size:16.94345474px;fill:#333333"
         id="path9070"
         inkscape:connector-curvature="0" />
      <path
         d="m 71.701012,130.6253 c 0,-1.51674 0.318517,-2.66119 0.955551,-3.43336 0.637033,-0.77216 1.443666,-1.15824 2.419903,-1.15825 0.959683,10e-6 1.76218,0.38609 2.407493,1.15825 0.6453,0.77217 0.967954,1.88629 0.967961,3.34236 -7e-6,1.57742 -0.317145,2.75221 -0.951415,3.52437 -0.634282,0.77216 -1.442294,1.15824 -2.424039,1.15824 -0.965206,0 -1.769082,-0.38746 -2.411629,-1.16238 -0.642551,-0.77492 -0.963825,-1.91799 -0.963825,-3.42923 z m 1.249249,0 c -2e-6,1.13619 0.206827,1.98143 0.620488,2.53573 0.413656,0.5543 0.926592,0.83145 1.53881,0.83145 0.573602,0 1.065855,-0.2799 1.476761,-0.83972 0.410895,-0.55982 0.616345,-1.4023 0.616351,-2.52746 -6e-6,-1.13066 -0.206835,-1.97314 -0.620488,-2.52745 -0.413663,-0.5543 -0.926599,-0.83145 -1.53881,-0.83146 -0.579125,1e-5 -1.072757,0.27854 -1.480897,0.8356 -0.408145,0.55706 -0.612217,1.39817 -0.612215,2.52331 z"
         style="font-size:16.94345474px;fill:#333333"
         id="path9072"
         inkscape:connector-curvature="0" />
      <path
         d="m 79.899723,135.01836 0,-8.78611 1.100332,0 0,1.24925 c 0.264739,-0.48535 0.588772,-0.84799 0.972098,-1.08792 0.38332,-0.23992 0.823176,-0.35988 1.319571,-0.35989 0.386076,10e-6 0.743201,0.0758 1.071375,0.22751 0.328164,0.15169 0.592905,0.35024 0.794225,0.59567 0.201307,0.24545 0.351603,0.56396 0.450887,0.95555 0.09927,0.39161 0.148911,0.99279 0.148918,1.80356 l 0,5.40238 -1.22443,0 0,-5.34447 c -5e-6,-0.6453 -0.05516,-1.11687 -0.165463,-1.41471 -0.110314,-0.29783 -0.282672,-0.5281 -0.517073,-0.69081 -0.234412,-0.1627 -0.506047,-0.24406 -0.814908,-0.24406 -0.584641,0 -1.050696,0.21786 -1.398166,0.65358 -0.347475,0.43572 -0.521212,1.18307 -0.52121,2.24203 l 0,4.79844 z"
         style="font-size:16.94345474px;fill:#333333"
         id="path9074"
         inkscape:connector-curvature="0" />
      <path
         d="m 96.214417,133.93457 c -0.408149,0.42469 -0.832838,0.74459 -1.274069,0.95969 -0.44124,0.2151 -0.899021,0.32265 -1.373346,0.32265 -0.750103,0 -1.348529,-0.22613 -1.795278,-0.6784 -0.446752,-0.45226 -0.670128,-1.06172 -0.670127,-1.82837 -10e-7,-0.50742 0.104793,-0.95693 0.31438,-1.34853 0.209586,-0.39159 0.496389,-0.6977 0.86041,-0.91832 0.364018,-0.22061 0.915562,-0.38332 1.654634,-0.48811 0.992776,-0.1434 1.720815,-0.31438 2.184117,-0.51294 l 0.0083,-0.38057 c -6e-6,-0.60117 -0.107557,-1.02311 -0.322654,-1.26579 -0.303355,-0.35298 -0.769409,-0.52948 -1.398166,-0.52949 -0.568094,1e-5 -0.992783,0.11722 -1.274068,0.35161 -0.28129,0.23442 -0.488119,0.67427 -0.620488,1.31958 l -1.19961,-0.19856 c 0.170978,-0.94313 0.517072,-1.62981 1.038283,-2.06002 0.521207,-0.4302 1.267171,-0.6453 2.237893,-0.64531 0.755611,10e-6 1.348521,0.14203 1.778732,0.42607 0.430198,0.28405 0.701834,0.63566 0.814907,1.05483 0.11306,0.41918 0.169593,1.0314 0.1696,1.83664 l 0,1.98557 c -7e-6,1.38989 0.02619,2.26547 0.07859,2.62673 0.05239,0.36126 0.155805,0.71287 0.310244,1.05483 l -1.274068,0 c -0.126861,-0.30335 -0.209593,-0.66461 -0.248195,-1.08379 z m -0.09928,-3.32581 c -0.446756,0.22062 -1.111367,0.40814 -1.993834,0.56257 -0.512939,0.0882 -0.871443,0.18891 -1.075512,0.30197 -0.204074,0.11307 -0.362643,0.27302 -0.475707,0.47985 -0.113069,0.20683 -0.169602,0.44537 -0.1696,0.71563 -2e-6,0.41917 0.129611,0.75423 0.388839,1.00519 0.259223,0.25095 0.617727,0.37643 1.075512,0.37643 0.435717,0 0.83145,-0.11307 1.1872,-0.3392 0.355742,-0.22614 0.621862,-0.52811 0.798361,-0.90592 0.176489,-0.3778 0.264736,-0.92797 0.264741,-1.65049 z"
         style="font-size:16.94345474px;fill:#333333"
         id="path9076"
         inkscape:connector-curvature="0" />
      <path
         d="m 99.225853,135.01836 0,-12.12847 1.216157,0 0,12.12847 z"
         style="font-size:16.94345474px;fill:#333333"
         id="path9078"
         inkscape:connector-curvature="0" />
      <path
         d="m 102.33657,124.60243 0,-1.71254 1.21615,0 0,1.71254 z m 0,10.41593 0,-8.78611 1.21615,0 0,8.78611 z"
         style="font-size:16.94345474px;fill:#333333"
         id="path9080"
         inkscape:connector-curvature="0" />
      <path
         d="m 105.43073,135.01836 0,-8.78611 1.09206,0 0,1.2327 c 0.24267,-0.45777 0.5543,-0.81076 0.93486,-1.05896 0.38057,-0.24819 0.79698,-0.37229 1.24925,-0.3723 0.50742,10e-6 0.93625,0.131 1.28648,0.39298 0.35023,0.26199 0.5998,0.64393 0.74872,1.14583 0.2868,-0.51293 0.61635,-0.89763 0.98865,-1.15411 0.37228,-0.25645 0.78456,-0.38469 1.23684,-0.3847 0.68942,10e-6 1.23269,0.23442 1.62981,0.70322 0.3971,0.46882 0.59566,1.21892 0.59567,2.2503 l 0,6.03115 -1.21616,0 0,-5.53476 c -1e-5,-0.62875 -0.0455,-1.07412 -0.1365,-1.33611 -0.091,-0.26198 -0.23856,-0.46467 -0.44262,-0.60808 -0.20408,-0.14339 -0.43297,-0.2151 -0.68667,-0.2151 -0.52398,0 -0.95142,0.20821 -1.28234,0.62462 -0.33094,0.41642 -0.4964,1.07138 -0.49639,1.96488 l 0,5.10455 -1.22443,0 0,-5.70849 c -1e-5,-0.72803 -0.1117,-1.24097 -0.33507,-1.53881 -0.22338,-0.29783 -0.53086,-0.44675 -0.92246,-0.44675 -0.55706,0 -0.99692,0.22476 -1.31957,0.67426 -0.32265,0.44952 -0.48398,1.26994 -0.48398,2.46127 l 0,4.55852 z"
         style="font-size:16.94345474px;fill:#333333"
         id="path9082"
         inkscape:connector-curvature="0" />
      <path
         d="m 121.92743,132.18893 1.25753,0.19028 c -0.2096,0.93763 -0.58878,1.64499 -1.13756,2.12207 -0.5488,0.47709 -1.22858,0.71563 -2.03934,0.71563 -1.02036,0 -1.8463,-0.38746 -2.47782,-1.16238 -0.63152,-0.77492 -0.94727,-1.89317 -0.94727,-3.35477 0,-1.51674 0.31851,-2.67361 0.95555,-3.47059 0.63703,-0.79698 1.44366,-1.19547 2.4199,-1.19548 0.93211,10e-6 1.70978,0.39161 2.33303,1.17479 0.62324,0.7832 0.93487,1.91663 0.93487,3.40028 l -0.008,0.39711 -5.37756,0 c 0.0496,0.98727 0.27853,1.73185 0.68667,2.23375 0.40814,0.50191 0.90453,0.75286 1.48917,0.75286 0.91556,0 1.55259,-0.60118 1.9111,-1.80355 z m -4.01248,-2.40749 4.02076,0 c -0.0552,-0.76113 -0.21787,-1.32922 -0.48812,-1.70427 -0.3916,-0.54603 -0.89075,-0.81904 -1.49744,-0.81905 -0.54604,10e-6 -1.01209,0.22752 -1.39817,0.68254 -0.38608,0.45503 -0.59843,1.06862 -0.63703,1.84078 z"
         style="font-size:16.94345474px;fill:#333333"
         id="path9084"
         inkscape:connector-curvature="0" />
      <path
         d="m 124.74031,135.01836 0,-8.78611 1.10034,0 0,1.24925 c 0.26474,-0.48535 0.58877,-0.84799 0.97209,-1.08792 0.38332,-0.23992 0.82318,-0.35988 1.31957,-0.35989 0.38608,10e-6 0.74321,0.0758 1.07138,0.22751 0.32816,0.15169 0.59291,0.35024 0.79423,0.59567 0.2013,0.24545 0.3516,0.56396 0.45088,0.95555 0.0993,0.39161 0.14891,0.99279 0.14892,1.80356 l 0,5.40238 -1.22443,0 0,-5.34447 c 0,-0.6453 -0.0552,-1.11687 -0.16546,-1.41471 -0.11032,-0.29783 -0.28267,-0.5281 -0.51708,-0.69081 -0.23441,-0.1627 -0.50604,-0.24406 -0.8149,-0.24406 -0.58464,0 -1.0507,0.21786 -1.39817,0.65358 -0.34747,0.43572 -0.52121,1.18307 -0.52121,2.24203 l 0,4.79844 z"
         style="font-size:16.94345474px;fill:#333333"
         id="path9086"
         inkscape:connector-curvature="0" />
      <path
         d="m 135.20587,133.68638 0.16546,1.31543 c -0.33644,0.0882 -0.63979,0.13237 -0.91004,0.13237 -0.4247,0 -0.76665,-0.0841 -1.02588,-0.25233 -0.25923,-0.16822 -0.4371,-0.39849 -0.53362,-0.69081 -0.0965,-0.29232 -0.14478,-0.8742 -0.14478,-1.74564 l 0,-5.05491 -0.8935,0 0,-1.15824 0.8935,0 0,-2.17585 1.21616,-0.8935 0,3.06935 1.2327,0 0,1.15824 -1.2327,0 0,5.13764 c 0,0.47433 0.0358,0.78044 0.10755,0.91832 0.10479,0.19856 0.30059,0.29784 0.58739,0.29784 0.13789,0 0.31714,-0.0193 0.53776,-0.0579 z"
         style="font-size:16.94345474px;fill:#333333"
         id="path9088"
         inkscape:connector-curvature="0" />
      <path
         d="m 141.05501,133.93457 c -0.40815,0.42469 -0.83284,0.74459 -1.27407,0.95969 -0.44124,0.2151 -0.89902,0.32265 -1.37335,0.32265 -0.7501,0 -1.34853,-0.22613 -1.79528,-0.6784 -0.44675,-0.45226 -0.67012,-1.06172 -0.67012,-1.82837 0,-0.50742 0.10479,-0.95693 0.31438,-1.34853 0.20958,-0.39159 0.49639,-0.6977 0.86041,-0.91832 0.36402,-0.22061 0.91556,-0.38332 1.65463,-0.48811 0.99278,-0.1434 1.72082,-0.31438 2.18412,-0.51294 l 0.008,-0.38057 c 0,-0.60117 -0.10755,-1.02311 -0.32265,-1.26579 -0.30336,-0.35298 -0.76941,-0.52948 -1.39817,-0.52949 -0.56809,1e-5 -0.99278,0.11722 -1.27406,0.35161 -0.28129,0.23442 -0.48812,0.67427 -0.62049,1.31958 l -1.19961,-0.19856 c 0.17098,-0.94313 0.51707,-1.62981 1.03828,-2.06002 0.52121,-0.4302 1.26717,-0.6453 2.23789,-0.64531 0.75561,10e-6 1.34852,0.14203 1.77874,0.42607 0.43019,0.28405 0.70183,0.63566 0.8149,1.05483 0.11306,0.41918 0.1696,1.0314 0.1696,1.83664 l 0,1.98557 c 0,1.38989 0.0262,2.26547 0.0786,2.62673 0.0524,0.36126 0.1558,0.71287 0.31024,1.05483 l -1.27407,0 c -0.12686,-0.30335 -0.20959,-0.66461 -0.24819,-1.08379 z m -0.0993,-3.32581 c -0.44676,0.22062 -1.11137,0.40814 -1.99383,0.56257 -0.51294,0.0882 -0.87145,0.18891 -1.07552,0.30197 -0.20407,0.11307 -0.36264,0.27302 -0.4757,0.47985 -0.11307,0.20683 -0.16961,0.44537 -0.1696,0.71563 -1e-5,0.41917 0.12961,0.75423 0.38884,1.00519 0.25922,0.25095 0.61772,0.37643 1.07551,0.37643 0.43571,0 0.83145,-0.11307 1.1872,-0.3392 0.35574,-0.22614 0.62186,-0.52811 0.79836,-0.90592 0.17649,-0.3778 0.26473,-0.92797 0.26474,-1.65049 z"
         style="font-size:16.94345474px;fill:#333333"
         id="path9090"
         inkscape:connector-curvature="0" />
      <path
         d="m 144.09953,124.60243 0,-1.71254 1.21616,0 0,1.71254 z m 0,10.41593 0,-8.78611 1.21616,0 0,8.78611 z"
         style="font-size:16.94345474px;fill:#333333"
         id="path9092"
         inkscape:connector-curvature="0" />
      <path
         d="m 147.17715,135.01836 0,-8.78611 1.10033,0 0,1.33198 c 0.28129,-0.61772 0.53914,-1.02724 0.77354,-1.22857 0.23441,-0.2013 0.49777,-0.30196 0.79009,-0.30197 0.40814,10e-6 0.82456,0.15996 1.24925,0.47985 l -0.41366,1.38162 c -0.30335,-0.2151 -0.59843,-0.32265 -0.88523,-0.32266 -0.25923,10e-6 -0.49639,0.091 -0.71149,0.27302 -0.2151,0.18201 -0.36678,0.43572 -0.45502,0.76113 -0.15444,0.5681 -0.23165,1.17204 -0.23165,1.81182 l 0,4.59989 z"
         style="font-size:16.94345474px;fill:#333333"
         id="path9094"
         inkscape:connector-curvature="0" />
      <path
         d="m 156.74094,132.18893 1.25752,0.19028 c -0.20959,0.93763 -0.58878,1.64499 -1.13756,2.12207 -0.54879,0.47709 -1.22857,0.71563 -2.03933,0.71563 -1.02037,0 -1.8463,-0.38746 -2.47782,-1.16238 -0.63152,-0.77492 -0.94728,-1.89317 -0.94728,-3.35477 0,-1.51674 0.31852,-2.67361 0.95555,-3.47059 0.63704,-0.79698 1.44367,-1.19547 2.41991,-1.19548 0.9321,10e-6 1.70978,0.39161 2.33303,1.17479 0.62324,0.7832 0.93486,1.91663 0.93487,3.40028 l -0.008,0.39711 -5.37757,0 c 0.0496,0.98727 0.27853,1.73185 0.68668,2.23375 0.40814,0.50191 0.90453,0.75286 1.48917,0.75286 0.91556,0 1.55259,-0.60118 1.9111,-1.80355 z m -4.01249,-2.40749 4.02076,0 c -0.0552,-0.76113 -0.21786,-1.32922 -0.48811,-1.70427 -0.3916,-0.54603 -0.89075,-0.81904 -1.49745,-0.81905 -0.54603,10e-6 -1.01208,0.22752 -1.39816,0.68254 -0.38609,0.45503 -0.59843,1.06862 -0.63704,1.84078 z"
         style="font-size:16.94345474px;fill:#333333"
         id="path9096"
         inkscape:connector-curvature="0" />
      <path
         d="m 162.97063,130.6253 c 0,-1.51674 0.31852,-2.66119 0.95555,-3.43336 0.63703,-0.77216 1.44367,-1.15824 2.41991,-1.15825 0.95968,10e-6 1.76217,0.38609 2.40749,1.15825 0.6453,0.77217 0.96795,1.88629 0.96796,3.34236 -1e-5,1.57742 -0.31715,2.75221 -0.95142,3.52437 -0.63428,0.77216 -1.44229,1.15824 -2.42403,1.15824 -0.96521,0 -1.76909,-0.38746 -2.41163,-1.16238 -0.64255,-0.77492 -0.96383,-1.91799 -0.96383,-3.42923 z m 1.24925,0 c 0,1.13619 0.20683,1.98143 0.62049,2.53573 0.41365,0.5543 0.92659,0.83145 1.53881,0.83145 0.5736,0 1.06585,-0.2799 1.47676,-0.83972 0.41089,-0.55982 0.61634,-1.4023 0.61635,-2.52746 -10e-6,-1.13066 -0.20683,-1.97314 -0.62049,-2.52745 -0.41366,-0.5543 -0.9266,-0.83145 -1.53881,-0.83146 -0.57912,1e-5 -1.07275,0.27854 -1.4809,0.8356 -0.40814,0.55706 -0.61221,1.39817 -0.61221,2.52331 z"
         style="font-size:16.94345474px;fill:#333333"
         id="path9098"
         inkscape:connector-curvature="0" />
      <path
         d="m 175.89333,135.01836 0,-1.29062 c -0.28129,0.49639 -0.61222,0.86869 -0.99278,1.11688 -0.38057,0.24819 -0.81077,0.37229 -1.29061,0.37229 -0.56809,0 -1.05345,-0.15305 -1.45608,-0.45916 -0.40263,-0.30611 -0.67151,-0.69357 -0.80663,-1.16238 -0.13513,-0.46881 -0.2027,-1.1086 -0.2027,-1.91937 l 0,-5.44375 1.21616,0 0,4.8729 c 0,0.90453 0.0455,1.50985 0.13651,1.81596 0.091,0.30611 0.25922,0.55154 0.50466,0.73631 0.24544,0.18477 0.52534,0.27715 0.83973,0.27715 0.58463,0 1.06447,-0.23992 1.43953,-0.71977 0.31989,-0.41365 0.47984,-1.17202 0.47984,-2.27512 l 0,-4.70743 1.22443,0 0,8.78611 z"
         style="font-size:16.94345474px;fill:#333333"
         id="path9100"
         inkscape:connector-curvature="0" />
      <path
         d="m 180.93169,135.01836 -2.73842,-8.78611 1.29062,0 1.54708,5.26174 c 0.17649,0.59567 0.33092,1.18582 0.4633,1.77045 0.10479,-0.46329 0.2537,-1.02035 0.44675,-1.67118 l 1.60499,-5.36101 1.25752,0 -2.73014,8.78611 z"
         style="font-size:16.94345474px;fill:#333333"
         id="path9102"
         inkscape:connector-curvature="0" />
      <path
         d="m 190.79331,132.18893 1.25752,0.19028 c -0.20959,0.93763 -0.58878,1.64499 -1.13756,2.12207 -0.54879,0.47709 -1.22857,0.71563 -2.03934,0.71563 -1.02036,0 -1.84629,-0.38746 -2.47781,-1.16238 -0.63152,-0.77492 -0.94728,-1.89317 -0.94728,-3.35477 0,-1.51674 0.31852,-2.67361 0.95555,-3.47059 0.63703,-0.79698 1.44367,-1.19547 2.4199,-1.19548 0.93211,10e-6 1.70979,0.39161 2.33304,1.17479 0.62324,0.7832 0.93486,1.91663 0.93487,3.40028 l -0.008,0.39711 -5.37756,0 c 0.0496,0.98727 0.27853,1.73185 0.68668,2.23375 0.40814,0.50191 0.90453,0.75286 1.48917,0.75286 0.91556,0 1.55259,-0.60118 1.9111,-1.80355 z m -4.01249,-2.40749 4.02076,0 c -0.0552,-0.76113 -0.21786,-1.32922 -0.48811,-1.70427 -0.39161,-0.54603 -0.89075,-0.81904 -1.49745,-0.81905 -0.54603,10e-6 -1.01209,0.22752 -1.39816,0.68254 -0.38609,0.45503 -0.59843,1.06862 -0.63704,1.84078 z"
         style="font-size:16.94345474px;fill:#333333"
         id="path9104"
         inkscape:connector-curvature="0" />
      <path
         d="m 193.60618,135.01836 0,-8.78611 1.10033,0 0,1.33198 c 0.28129,-0.61772 0.53914,-1.02724 0.77355,-1.22857 0.2344,-0.2013 0.49776,-0.30196 0.79008,-0.30197 0.40814,10e-6 0.82456,0.15996 1.24925,0.47985 l -0.41366,1.38162 c -0.30335,-0.2151 -0.59843,-0.32265 -0.88523,-0.32266 -0.25922,10e-6 -0.49639,0.091 -0.71149,0.27302 -0.2151,0.18201 -0.36678,0.43572 -0.45502,0.76113 -0.15444,0.5681 -0.23165,1.17204 -0.23165,1.81182 l 0,4.59989 z"
         style="font-size:16.94345474px;fill:#333333"
         id="path9106"
         inkscape:connector-curvature="0" />
      <path
         d="m 200.96104,133.68638 0.16546,1.31543 c -0.33645,0.0882 -0.6398,0.13237 -0.91005,0.13237 -0.42469,0 -0.76665,-0.0841 -1.02587,-0.25233 -0.25923,-0.16822 -0.4371,-0.39849 -0.53362,-0.69081 -0.0965,-0.29232 -0.14478,-0.8742 -0.14478,-1.74564 l 0,-5.05491 -0.89351,0 0,-1.15824 0.89351,0 0,-2.17585 1.21615,-0.8935 0,3.06935 1.23271,0 0,1.15824 -1.23271,0 0,5.13764 c 0,0.47433 0.0359,0.78044 0.10755,0.91832 0.1048,0.19856 0.30059,0.29784 0.5874,0.29784 0.13788,0 0.31713,-0.0193 0.53776,-0.0579 z"
         style="font-size:16.94345474px;fill:#333333"
         id="path9108"
         inkscape:connector-curvature="0" />
      <path
         d="m 207.04181,132.18893 1.25753,0.19028 c -0.2096,0.93763 -0.58878,1.64499 -1.13756,2.12207 -0.5488,0.47709 -1.22858,0.71563 -2.03934,0.71563 -1.02036,0 -1.8463,-0.38746 -2.47782,-1.16238 -0.63152,-0.77492 -0.94727,-1.89317 -0.94727,-3.35477 0,-1.51674 0.31851,-2.67361 0.95555,-3.47059 0.63703,-0.79698 1.44366,-1.19547 2.4199,-1.19548 0.93211,10e-6 1.70978,0.39161 2.33303,1.17479 0.62324,0.7832 0.93486,1.91663 0.93487,3.40028 l -0.008,0.39711 -5.37756,0 c 0.0496,0.98727 0.27853,1.73185 0.68667,2.23375 0.40814,0.50191 0.90453,0.75286 1.48917,0.75286 0.91556,0 1.55259,-0.60118 1.9111,-1.80355 z m -4.01248,-2.40749 4.02076,0 c -0.0552,-0.76113 -0.21787,-1.32922 -0.48812,-1.70427 -0.3916,-0.54603 -0.89075,-0.81904 -1.49744,-0.81905 -0.54604,10e-6 -1.01209,0.22752 -1.39817,0.68254 -0.38608,0.45503 -0.59843,1.06862 -0.63703,1.84078 z"
         style="font-size:16.94345474px;fill:#333333"
         id="path9110"
         inkscape:connector-curvature="0" />
    </g>
    <rect
       id="rect3719"
       width="5"
       height="5"
       x="110"
       y="0"
       style="fill:none"
       inkscape:export-filename="C:\Users\Stéphane\Desktop\Blogs\OpenFoodFacts\test-178.png"
       inkscape:export-xdpi="90"
       inkscape:export-ydpi="90" />
    <rect
       inkscape:export-ydpi="90"
       inkscape:export-xdpi="90"
       inkscape:export-filename="C:\Users\Stéphane\Desktop\Blogs\OpenFoodFacts\test-178.png"
       style="fill:none"
       y="0"
       x="110"
       height="5"
       width="5"
       id="rect3723" />
    <rect
       style="fill:none"
       id="rect3725"
       width="1"
       height="1"
       x="1"
       y="140"
       inkscape:export-filename="C:\Users\Stéphane\Desktop\Blogs\OpenFoodFacts\test-178.png"
       inkscape:export-xdpi="90"
       inkscape:export-ydpi="90" />
  </g>
</svg>
