<svg xmlns="http://www.w3.org/2000/svg" width="178" height="141" viewBox="0 0 178 141">
  <g fill="none" fill-rule="evenodd" transform="translate(-1 -12)">
    <path fill="#06F" fill-rule="nonzero" d="M171,35 L171,41.41101 C172.19571,41.855348 173.20515,42.471493 173.99122,43.172218 L174.01672,35 L171,35 Z M175,35 L175,43.312003 L176,42.473327 L176,35 L175,35 Z M177,35 L177,41.606702 L178,40.62824 L178,52.39764 L177,51.39123 L177.0383,104 L179,104 L179,35 L177,35 Z M175,49.685929 L175,104 L176,104 L176,50.524594 L175,49.685929 Z M174,49.825703 C173.21402,50.527654 172.20431,51.13894 171,51.586923 L171.008,104 L174.008,104 L174,49.825703 Z"/>
    <path fill="#0CF" fill-rule="nonzero" d="M155,35 L155,104 L158,104 L158,50.189128 C156.67638,49.174323 155.87538,47.917706 155.87538,46.526913 C155.87538,45.136132 156.67638,43.851557 158,42.836752 L158,35 L155,35 Z M159,35 L159,42.193768 C160.12603,41.550771 161.49599,41.065053 163.02565,40.795973 L163,35 L159,35 Z M164,35 L163.92,40.62824 C164.24965,40.5918 164.58619,40.58859 164.92641,40.57239 L165,35.000057 C164.64847,35.000103 164.35153,35 164,35 Z M166,35 L166,40.544374 C166.68266,40.552674 167.34304,40.625344 167.9849,40.712107 L168,35 L166,35 Z M159,50.860072 L159,104 L163,104 L163,52.229907 C161.41324,51.961077 160.12549,51.502175 159,50.860072 Z M168,52.341721 C167.35923,52.429251 166.69651,52.473373 166.0151,52.481506 L166,104 L168,104 L168,52.341721 Z M164,52.397691 L164,104 L165,104 L165.006,52.453598 C164.66578,52.437278 164.32924,52.434188 163.99959,52.397691 L164,52.397691 Z"/>
    <polygon fill="#00D400" fill-rule="nonzero" points="151 35.012 151 104 152 104 152 35.012"/>
    <polygon fill="#00D400" fill-rule="nonzero" points="147 35.012 147 104 150 104 150 35.012"/>
    <polygon fill="#00D400" fill-rule="nonzero" points="144 35.012 144 104 146 104 146 35.012"/>
    <polygon fill="#00D400" fill-rule="nonzero" points="142 35.012 142 104 143 104 143 35.012"/>
    <polygon fill="#00D400" fill-rule="nonzero" points="136 33 136 104 139 104 139 35"/>
    <polygon fill="#00D400" fill-rule="nonzero" points="133 35 133 104 135 104 135 35"/>
    <polygon fill="#00D400" fill-rule="nonzero" points="130 35 130 104 132 104 132 35"/>
    <polygon fill="#00D400" fill-rule="nonzero" points="126 35 126 104 127 104 127 35"/>
    <polygon fill="#00D400" fill-rule="nonzero" points="122 35 122 104 123 104 123 35"/>
    <polygon fill="#00D400" fill-rule="nonzero" points="117 35 117 104 119 104 119 35"/>
    <polygon fill="#00D400" fill-rule="nonzero" points="113 35 113 104 114 104 114 35"/>
    <polygon fill="#00D400" fill-rule="nonzero" points="111 35 111 104 112 104 112 35"/>
    <polygon fill="#00D400" fill-rule="nonzero" points="109 35 109 104 110 104 110 35"/>
    <polygon fill="#00D400" fill-rule="nonzero" points="104 35 104 104 106 104 106 35"/>
    <polygon fill="#00D400" fill-rule="nonzero" points="100 35 100 104 101 104 101 35"/>
    <polygon fill="#00D400" fill-rule="nonzero" points="95.983 35.012 96 104 97 104 96.983 35.012"/>
    <polygon fill="#FC0" fill-rule="nonzero" points="91 30 91 104 93 104 93 30"/>
    <polygon fill="#FC0" fill-rule="nonzero" points="89 35 89 104 90 104 90 35"/>
    <polygon fill="#FC0" fill-rule="nonzero" points="86 19 86 104 88 104 88 19"/>
    <polygon fill="#FC0" fill-rule="nonzero" points="82 35 82 104 85 104 85 35"/>
    <polygon fill="#FC0" fill-rule="nonzero" points="78 35 78 104 79 104 79 35"/>
    <polygon fill="#FC0" fill-rule="nonzero" points="75 29 75 104 77 104 77 29"/>
    <polygon fill="#FC0" fill-rule="nonzero" points="71 35 71 104 74 104 74 35"/>
    <polygon fill="#FC0" fill-rule="nonzero" points="67 35 67 104 68 104 68 35"/>
    <polygon fill="#FC0" fill-rule="nonzero" points="65 35 65 104 66 104 66 35"/>
    <polygon fill="#FC0" fill-rule="nonzero" points="59.974 34.917 60 104 62 104 61.973 34.917"/>
    <polygon fill="#FC0" fill-rule="nonzero" points="56 24 56 104 57 104 57 24"/>
    <polygon fill="#FC0" fill-rule="nonzero" points="53 35 53 104 55 104 55 35"/>
    <polygon fill="#FC0" fill-rule="nonzero" points="47 35 47 104 50 104 50 35"/>
    <polygon fill="#FC0" fill-rule="nonzero" points="45 35 45 104 46 104 46 35"/>
    <polygon fill="#FC0" fill-rule="nonzero" points="41 35 41 104 42 104 42 35"/>
    <polygon fill="#FC0" fill-rule="nonzero" points="38 35 38 104 40 104 40 35"/>
    <polygon fill="red" fill-rule="nonzero" points="34 29 34 104 35 104 35 29"/>
    <polygon fill="red" fill-rule="nonzero" points="31 28 31 104 33 104 33 28"/>
    <polygon fill="red" fill-rule="nonzero" points="27 35 27 104 30 104 30 35"/>
    <polygon fill="red" fill-rule="nonzero" points="23 35 23 104 26 104 26 35"/>
    <polygon fill="red" fill-rule="nonzero" points="20 29 20 104 22 104 22 29"/>
    <polygon fill="red" fill-rule="nonzero" points="16 30 16 104 19 104 19 30"/>
    <polygon fill="red" fill-rule="nonzero" points="12 35 12 104 13 104 13 35"/>
    <polygon fill="red" fill-rule="nonzero" points="9 35 9 104 10 104 10 35"/>
    <polygon fill="red" fill-rule="nonzero" points="3.999 34.917 3.999 104 4.998 104 4.998 34.917"/>
    <polygon fill="red" fill-rule="nonzero" points="1 34.917 1 104 2.999 104 2.999 34.917"/>
    <path fill="red" fill-rule="nonzero" d="M13.96037,29.168037 C14.59009,28.352461 14.679493,26.491883 15.241779,24.809194 C15.647084,23.596268 15.705312,20.212207 16.45043,19.926765 C17.41877,19.555814 19.620031,19.568686 20.674418,19.510136 C22.974477,19.382437 25.193349,20.608795 27.496957,20.611272 C30.48781,20.614872 36.357965,19.200676 36.357965,19.200676 L36.217846,17.1618501 L37.723453,17.4399087 L41.800403,16.9230038 L38.791999,18.3091409 C38.791999,18.3091409 39.993863,18.2880639 40.480021,18.585973 C41.185069,19.018082 41.440015,19.93335 41.948941,20.585135 C42.240908,20.959063 43.031418,21.239515 42.857278,21.680806 C42.387434,22.871417 39.048301,22.16675 39.048301,22.16675 L37.129565,23.970076 C36.296556,25.749063 34.868195,27.231915 34.875969,30.692459 C34.875969,30.692459 28.869078,29.769451 25.884786,29.895829 C24.120779,29.970489 20.915812,30.513902 20.915812,30.513902 C19.307094,30.376712 17.61931,29.984839 16.010593,30.264362 C16.020093,24.028877 16.877276,24.1355 16.709353,20.969541 C16.27017,22.649527 15.738297,25.486092 15.68251,26.742005 C15.147754,28.267809 15.6706,28.641677 13.96037,29.168037 Z"/>
    <g fill="#FC0" fill-rule="nonzero" transform="rotate(-37.642 59.283 -68.62)">
      <ellipse cx="1.227" cy="2.055" rx="1.235" ry="1" transform="rotate(-54.359 1.227 2.055)"/>
      <path d="M1.41475845,1.10210307 C1.41475845,1.10210307 1.68553053,1.05857812 1.80401847,0.994721125 C2.21909324,0.771023775 2.81072523,0.00143701346 2.81072523,0.00143701346 C2.81072523,0.00143701346 2.18793126,0.812092819 2.05905087,1.22290766 C2.02011902,1.34700572 2.03220538,1.61216768 2.03220538,1.61216768 L1.41475845,1.10210307 Z"/>
    </g>
    <g fill="#FC0" fill-rule="nonzero" transform="translate(52.624 21.199)">
      <g transform="translate(3.09 .133)">
        <g transform="translate(.842 6.155)">
          <ellipse cx="1.227" cy="2.055" rx="1.235" ry="1" transform="rotate(-54.359 1.227 2.055)"/>
          <path d="M1.41475889,1.10210341 C1.41475889,1.10210341 1.68553106,1.05857845 1.80401903,0.994721434 C2.21909393,0.771024014 2.8107261,0.00143701391 2.8107261,0.00143701391 C2.8107261,0.00143701391 2.18793194,0.812093071 2.05905151,1.22290804 C2.02011965,1.34700614 2.03220601,1.61216818 2.03220601,1.61216818 L1.41475889,1.10210341 Z"/>
        </g>
        <g transform="translate(.842 7.947)">
          <ellipse cx="1.227" cy="2.055" rx="1.235" ry="1" transform="rotate(-54.359 1.227 2.055)"/>
          <path d="M1.41475889,1.10210341 C1.41475889,1.10210341 1.68553106,1.05857845 1.80401903,0.994721434 C2.21909393,0.771024014 2.8107261,0.00143701391 2.8107261,0.00143701391 C2.8107261,0.00143701391 2.18793194,0.812093071 2.05905151,1.22290804 C2.02011965,1.34700614 2.03220601,1.61216818 2.03220601,1.61216818 L1.41475889,1.10210341 Z"/>
        </g>
        <g transform="translate(.842 4.363)">
          <ellipse cx="1.227" cy="2.055" rx="1.235" ry="1" transform="rotate(-54.359 1.227 2.055)"/>
          <path d="M1.41475889,1.10210341 C1.41475889,1.10210341 1.68553106,1.05857845 1.80401903,0.994721434 C2.21909393,0.771024014 2.8107261,0.00143701391 2.8107261,0.00143701391 C2.8107261,0.00143701391 2.18793194,0.812093071 2.05905151,1.22290804 C2.02011965,1.34700614 2.03220601,1.61216818 2.03220601,1.61216818 L1.41475889,1.10210341 Z"/>
        </g>
        <g transform="translate(.842 2.57)">
          <ellipse cx="1.227" cy="2.055" rx="1.235" ry="1" transform="rotate(-54.359 1.227 2.055)"/>
          <path d="M1.41475889,1.10210341 C1.41475889,1.10210341 1.68553106,1.05857845 1.80401903,0.994721434 C2.21909393,0.771024014 2.8107261,0.00143701391 2.8107261,0.00143701391 C2.8107261,0.00143701391 2.18793194,0.812093071 2.05905151,1.22290804 C2.02011965,1.34700614 2.03220601,1.61216818 2.03220601,1.61216818 L1.41475889,1.10210341 Z"/>
        </g>
        <g transform="rotate(-10.674 5.537 -1.47)">
          <ellipse cx="1.227" cy="2.055" rx="1.235" ry="1" transform="rotate(-54.359 1.227 2.055)"/>
          <path d="M1.4147585,1.10210311 C1.4147585,1.10210311 1.6855306,1.05857816 1.80401854,0.994721164 C2.21909332,0.771023805 2.81072534,0.00143701352 2.81072534,0.00143701352 C2.81072534,0.00143701352 2.18793135,0.812092851 2.05905095,1.22290771 C2.0201191,1.34700577 2.03220546,1.61216774 2.03220546,1.61216774 L1.4147585,1.10210311 Z"/>
        </g>
      </g>
      <g transform="translate(.668 .133)">
        <g transform="matrix(-1 0 0 1 3.102 6.155)">
          <ellipse cx="1.227" cy="2.055" rx="1.235" ry="1" transform="rotate(-54.359 1.227 2.055)"/>
          <path d="M1.41475889,1.10210341 C1.41475889,1.10210341 1.68553106,1.05857845 1.80401903,0.994721434 C2.21909393,0.771024014 2.8107261,0.00143701391 2.8107261,0.00143701391 C2.8107261,0.00143701391 2.18793194,0.812093071 2.05905151,1.22290804 C2.02011965,1.34700614 2.03220601,1.61216818 2.03220601,1.61216818 L1.41475889,1.10210341 Z"/>
        </g>
        <g transform="matrix(-1 0 0 1 3.102 7.947)">
          <ellipse cx="1.227" cy="2.055" rx="1.235" ry="1" transform="rotate(-54.359 1.227 2.055)"/>
          <path d="M1.41475889,1.10210341 C1.41475889,1.10210341 1.68553106,1.05857845 1.80401903,0.994721434 C2.21909393,0.771024014 2.8107261,0.00143701391 2.8107261,0.00143701391 C2.8107261,0.00143701391 2.18793194,0.812093071 2.05905151,1.22290804 C2.02011965,1.34700614 2.03220601,1.61216818 2.03220601,1.61216818 L1.41475889,1.10210341 Z"/>
        </g>
        <g transform="matrix(-1 0 0 1 3.102 4.363)">
          <ellipse cx="1.227" cy="2.055" rx="1.235" ry="1" transform="rotate(-54.359 1.227 2.055)"/>
          <path d="M1.41475889,1.10210341 C1.41475889,1.10210341 1.68553106,1.05857845 1.80401903,0.994721434 C2.21909393,0.771024014 2.8107261,0.00143701391 2.8107261,0.00143701391 C2.8107261,0.00143701391 2.18793194,0.812093071 2.05905151,1.22290804 C2.02011965,1.34700614 2.03220601,1.61216818 2.03220601,1.61216818 L1.41475889,1.10210341 Z"/>
        </g>
        <g transform="matrix(-1 0 0 1 3.102 2.57)">
          <ellipse cx="1.227" cy="2.055" rx="1.235" ry="1" transform="rotate(-54.359 1.227 2.055)"/>
          <path d="M1.41475889,1.10210341 C1.41475889,1.10210341 1.68553106,1.05857845 1.80401903,0.994721434 C2.21909393,0.771024014 2.8107261,0.00143701391 2.8107261,0.00143701391 C2.8107261,0.00143701391 2.18793194,0.812093071 2.05905151,1.22290804 C2.02011965,1.34700614 2.03220601,1.61216818 2.03220601,1.61216818 L1.41475889,1.10210341 Z"/>
        </g>
        <g transform="scale(-1 1) rotate(-10.674 3.566 19.638)">
          <ellipse cx="1.227" cy="2.055" rx="1.235" ry="1" transform="rotate(-54.359 1.227 2.055)"/>
          <path d="M1.4147585,1.10210311 C1.4147585,1.10210311 1.6855306,1.05857816 1.80401854,0.994721164 C2.21909332,0.771023805 2.81072534,0.00143701352 2.81072534,0.00143701352 C2.81072534,0.00143701352 2.18793135,0.812092851 2.05905095,1.22290771 C2.0201191,1.34700577 2.03220546,1.61216774 2.03220546,1.61216774 L1.4147585,1.10210311 Z"/>
        </g>
      </g>
    </g>
    <g fill="#FC0" fill-rule="nonzero" transform="rotate(-48.948 72.218 -79.064)">
      <circle cx="7.024" cy="7.476" r="1.848"/>
      <circle cx="7.504" cy="4.441" r="1.848" transform="rotate(-72 7.504 4.441)"/>
      <circle cx="4.766" cy="3.046" r="1.848" transform="rotate(-144 4.766 3.046)"/>
      <circle cx="2.594" cy="5.219" r="1.848" transform="rotate(144 2.594 5.219)"/>
      <circle cx="3.989" cy="7.957" r="1.848" transform="rotate(72 3.989 7.957)"/>
    </g>
    <g fill="#FC0" fill-rule="nonzero" transform="rotate(-151.408 47.443 .913)">
      <circle cx="7.024" cy="7.476" r="1.848"/>
      <circle cx="7.504" cy="4.441" r="1.848" transform="rotate(-72 7.504 4.441)"/>
      <circle cx="4.766" cy="3.046" r="1.848" transform="rotate(-144 4.766 3.046)"/>
      <circle cx="2.594" cy="5.219" r="1.848" transform="rotate(144 2.594 5.219)"/>
      <circle cx="3.989" cy="7.957" r="1.848" transform="rotate(72 3.989 7.957)"/>
    </g>
    <g fill="#FC0" fill-rule="nonzero" transform="rotate(-64.825 56.944 -39.981)">
      <circle cx="7.024" cy="7.476" r="1.848"/>
      <circle cx="7.504" cy="4.441" r="1.848" transform="rotate(-72 7.504 4.441)"/>
      <circle cx="4.766" cy="3.046" r="1.848" transform="rotate(-144 4.766 3.046)"/>
      <circle cx="2.594" cy="5.219" r="1.848" transform="rotate(144 2.594 5.219)"/>
      <circle cx="3.989" cy="7.957" r="1.848" transform="rotate(72 3.989 7.957)"/>
    </g>
    <path fill="#00D400" fill-rule="nonzero" d="M123.44657,15.3372804 C132.63587,16.2870331 136.07702,23.767884 136,37 L138.96392,35.601391 C138.96392,34.139496 138.93842,34.35203 138.93842,32.890147 C138.93842,22.02325 132.53444,15.61547 128.0266,14.546568 L123.44657,15.3372804 Z"/>
    <g fill-rule="nonzero" transform="translate(109.294 12.197)">
      <path fill="#00D400" d="M1.00088042,18.5156078 C9.93647692,15.9597853 21.0043275,15.467468 19.0620298,2.38466142 C1.94728951,-5.66985758 7.71575728,9.45162934 1.00088042,18.5156078 Z"/>
      <path fill="#FFF" d="M20.1360426,1.02743172 C15.6900141,7.16787719 6.00505886,16.2035868 0.0520291066,18.8974797 C6.02938265,16.6743625 17.631775,7.56806117 20.1360426,1.02743172 Z"/>
    </g>
    <g fill-rule="nonzero" transform="scale(-1 1) rotate(-3.091 146.539 2932.321)">
      <path fill="#00D400" d="M1.00088042,18.5156078 C9.93647691,15.9597853 21.0043274,15.4674679 19.0620297,2.38466142 C1.17144213,-4.09926023 7.71575727,9.45162933 1.00088042,18.5156078 Z"/>
      <path fill="#FFF" d="M20.1360425,1.02743172 C15.690014,7.16787718 6.00505885,16.2035868 0.0520291066,18.8974796 C6.02938264,16.6743625 17.631775,7.56806116 20.1360425,1.02743172 Z"/>
    </g>
    <path fill="#00D400" fill-rule="nonzero" d="M138.87818,13.6040196 C136.88514,15.1688092 136.07702,23.767884 136,37 L138.96392,35.601391 C138.96392,34.139496 139.00002,37.461883 139.00002,36 C139.00002,25.133103 139.85888,16.6777988 140.21538,14.8820341 L138.87818,13.6040196 Z"/>
    <circle cx="160.092" cy="44.276" r="1" fill="#0CF" fill-rule="nonzero"/>
    <g fill-rule="nonzero" transform="translate(.322 126.153)">
      <path fill="#06F" d="M170.677591,0.846823807 L170.677591,5.84682381 C173.343278,5.84682381 176.011828,5.84682381 178.677515,5.84682381 L178.677515,0.846823807 C176.011828,0.846823807 173.343278,0.846823807 170.677681,0.846823807 L170.677591,0.846823807 Z"/>
      <path fill="#0CF" d="M154.677565,0.846823807 L154.677565,5.84682381 C159.011633,5.84682381 163.343463,5.84682381 167.67753,5.84682381 L167.67753,0.846823807 C163.343463,0.846823807 159.011633,0.846823807 154.677565,0.846823807 Z"/>
      <path fill="#00D400" d="M95.6775478,0.846823807 L95.6775478,5.84682381 C114.337149,5.84682381 133.017966,5.84682381 151.677594,5.84682381 L151.677594,0.846823807 C133.017966,0.846823807 114.337149,0.846823807 95.6775478,0.846823807 Z"/>
      <path fill="#FC0" d="M37.6775477,0.846823807 L37.6775477,5.84682381 C56.0109354,5.84682381 74.3441709,5.84682381 92.6775477,5.84682381 L92.6775477,0.846823807 C74.3441709,0.846823807 56.0109354,0.846823807 37.6775477,0.846823807 Z"/>
      <path fill="red" d="M0.677552576,0.846823807 L0.677552576,5.84682381 C12.0112577,5.84682381 23.3438534,5.84682381 34.6775526,5.84682381 L34.6775526,0.846823807 C23.3438534,0.846823807 12.0112577,0.846823807 0.677552576,0.846823807 Z"/>
    </g>
    <g fill="#333" fill-rule="nonzero" transform="translate(1 106.638)">
      <path d="M.29533203 9.18406C.29533203 6.38833.91039384 4.239337 2.1405221 2.737078 3.3706449 1.234848 4.9027103.483709 6.736723.483709 7.9221092.483709 9.0031286.819215 9.9797844 1.490177 10.956419 2.16117 11.729907 3.135951 12.300251 4.414523 12.870569 5.69312 13.155748 7.21587 13.155748 8.98277 13.155748 11.4132 12.604041 13.39259 11.500668 14.92092 10.285441 16.60583 8.6937334 17.44828 6.72554 17.44828 4.7424212 17.44828 3.1469857 16.58346 1.9392287 14.85383.84329608 13.28821.29533203 11.39829.29533203 9.18406zM2.1293392 9.21756C2.1293392 11.23796 2.5747909 12.80543 3.4657041 13.92 4.3566091 15.03457 5.4394923 15.59185 6.714357 15.59185 8.0190282 15.59185 9.1130944 15.02898 9.9965588 13.90322 10.880002 12.77748 11.321741 11.1224 11.321741 8.93798 11.321741 7.52894 11.094342 6.26899 10.63958 5.15814 10.289169 4.308298 9.761706 3.628001 9.0571893 3.117299 8.3526532 2.606624 7.5828928 2.351265 6.7479059 2.351265 5.4059434 2.351265 4.3006943 2.910428 3.4321552 4.028711 2.563608 5.14702 2.1293392 6.87665 2.1293392 9.21761L2.1293392 9.21756zM15 17.362183L15 .362183 19.674837.362183C20.899004.362183 21.801832.469314 22.383324.683529 23.179028.974286 23.814068 1.513688 24.288446 2.301735 24.762803 3.089812 25 4.057676 25 5.20533 25 6.72025 24.613608 7.9559 23.840858 8.91228 23.068087 9.86868 21.732946 10.33661 19.83551 10.34686L17 10.362183 17 17.362183 15 17.362183zM17 8.36218L19.86994 8.36141C20.994643 8.36111 21.817135 8.10702 22.337417 7.59821 22.857682 7.08942 23.117829 6.3224 23.117829 5.29714 23.117829 4.631508 22.989663 4.061502 22.733362 3.587118 22.477041 3.112765 22.167172 2.787594 21.803754 2.611604 21.440319 2.435644 20.784238 2.347641 19.83551 2.347641L17 2.362183 17 8.36218z"/>
      <polygon points="27 17.362 27 .362 37 .362 37 2.362 29 2.362 29 7.362 36 7.362 36 9.362 29 9.362 29 15.362 37 15.362 37 17.362"/>
      <polygon points="39 17.362 39 .362 41 .362 48 13.362 48 .362 50 .362 50 17.362 48 17.362 41 4.362 41 17.362"/>
      <polygon points="58 17.362 58 .362 67 .362 67 2.362 60 2.362 60 7.362 66 7.362 66 9.362 60 9.362 60 17.362"/>
      <path d="M68.255995 9.18406C68.255995 6.38833 68.871057 4.239337 70.101185 2.737078 71.331308 1.234848 72.863373.483709 74.697386.483709 75.882772.483709 76.963791.819215 77.940447 1.490177 78.917082 2.16117 79.69057 3.135951 80.260914 4.414523 80.831232 5.69312 81.116411 7.21587 81.116411 8.98277 81.116411 11.4132 80.564704 13.39259 79.461331 14.92092 78.246104 16.60583 76.654396 17.44828 74.686203 17.44828 72.703084 17.44828 71.107649 16.58346 69.899892 14.85383 68.803959 13.28821 68.255995 11.39829 68.255995 9.18406zM70.090002 9.21756C70.090002 11.23796 70.535454 12.80543 71.426367 13.92 72.317272 15.03457 73.400155 15.59185 74.67502 15.59185 75.979691 15.59185 77.073757 15.02898 77.957222 13.90322 78.840665 12.77748 79.282404 11.1224 79.282404 8.93798 79.282404 7.52894 79.055005 6.26899 78.600242 5.15814 78.249832 4.308248 77.722369 3.627951 77.017852 3.117249 76.313316 2.606574 75.543556 2.351215 74.708569 2.351215 73.366606 2.351215 72.261357 2.910378 71.392818 4.028661 70.524271 5.14697 70.090002 6.8766 70.090002 9.21756zM82.883322 9.18406C82.883322 6.38833 83.498384 4.239337 84.728512 2.737078 85.958635 1.234848 87.4907.483709 89.324713.483709 90.510099.483709 91.591118.819215 92.567774 1.490177 93.544409 2.16117 94.317897 3.135951 94.888241 4.414523 95.458558 5.69312 95.743738 7.21587 95.743738 8.98277 95.743738 11.4132 95.192031 13.39259 94.088658 14.92092 92.873431 16.60583 91.281723 17.44828 89.31353 17.44828 87.330411 17.44828 85.734975 16.58346 84.527218 14.85383 83.431286 13.28821 82.883322 11.39829 82.883322 9.18406zM84.717329 9.21756C84.717329 11.23796 85.162781 12.80543 86.053694 13.92 86.944599 15.03457 88.027482 15.59185 89.302347 15.59185 90.607018 15.59185 91.701084 15.02898 92.584549 13.90322 93.467992 12.77748 93.909731 11.1224 93.909731 8.93798 93.909731 7.52894 93.682332 6.26899 93.227569 5.15814 92.877159 4.308248 92.349696 3.627951 91.645179 3.117249 90.940643 2.606574 90.170883 2.351215 89.335896 2.351215 87.993933 2.351215 86.888684 2.910378 86.020145 4.028661 85.151598 5.14697 84.717329 6.8766 84.717329 9.21756zM98 17.362183L98 .362183 103 .362183C104.21266.362183 105.00501.536459 105.63497.744862 106.46179 1.015051 107.17836 1.464438 107.78471 2.182311 108.39104 2.900214 108.86351 3.805293 109.20212 4.897544 109.54071 5.98983 109.71002 7.28473 109.71002 8.78225 109.71002 10.70435 109.42259 12.33503 108.84777 13.67432 108.27292 15.0136 107.53468 15.96307 106.63306 16.52272 105.73143 17.08236 104.45678 17.362183 103 17.362183L98 17.362183zM100 15.362183L103 15.362183C104.22054 15.362183 105.01682 15.16427 105.64678 14.77445 106.27674 14.38463 106.76102 13.75744 107.09963 12.89288 107.54846 11.74273 107.7729 10.36485 107.7729 8.75923 107.7729 7.03786 107.53468 5.68507 107.05829 4.700858 106.58187 3.716665 105.96963 3.058601 105.22156 2.72666 104.71759 2.502677 104.09454 2.362183 103 2.362183L100 2.362183 100 15.362183z"/>
      <polygon points="118 17.362 118.076 .362 127.076 .362 127.076 2.362 120.076 2.362 120.076 7.362 126.076 7.362 126.076 9.362 120.076 9.362 120.076 17.362"/>
      <polygon points="128.076 17.362 133.076 .362 135.076 .362 140.076 17.362 138.076 17.362 134.076 2.362 130.035 17.362"/>
      <path d="M151.36137,11.42065 L153.15064,11.96862 C152.7555,13.81009 152.06402,15.18373 151.0762,16.08954 C150.08836,16.99537 148.88619,17.44828 147.46969,17.44828 C146.22465,17.44828 145.1604,17.14447 144.27696,16.53686 C143.3935,15.92926 142.67033,14.95448 142.10746,13.61252 C141.54458,12.27057 141.26314,10.68631 141.26314,8.85975 C141.26314,7.05558 141.54458,5.5291 142.10746,4.280328 C142.67033,3.031577 143.43264,2.088481 144.39438,1.451036 C145.35611,0.813623 146.42967,0.494892 147.61507,0.494892 C148.91229,0.494892 150.02686,0.899359 150.95878,1.708245 C151.89068,2.517161 152.54302,3.704418 152.9158,5.27002 L151.17126,5.77325 C150.57482,3.491942 149.37824,2.35128 147.58152,2.351265 C146.68688,2.35128 145.91153,2.580531 145.25547,3.039018 C144.59939,3.497534 144.07566,4.211379 143.68426,5.18056 C143.29285,6.14976 143.09715,7.37616 143.09715,8.85975 C143.09715,11.10381 143.49228,12.78684 144.28255,13.90887 C145.07281,15.03089 146.124,15.5919 147.43614,15.5919 C148.40533,15.5919 149.24219,15.2471 149.94672,14.55748 C150.65124,13.86786 151.12279,12.82226 151.36137,11.42065 L151.36137,11.42065 Z"/>
      <polygon points="159 17.362 159 2.362 154 2.368 154 .362 166 .362 166 2.362 161 2.362 161 17.362"/>
      <path d="M167.26826,11.90152 L168.94571,11.72259 C169.03521,12.62469 169.23833,13.32735 169.55518,13.83058 C169.87203,14.33382 170.32494,14.73827 170.91391,15.04394 C171.50288,15.34961 172.1664,15.50244 172.90448,15.50244 C173.96313,15.50244 174.78507,15.24337 175.37033,14.72522 C175.95556,14.20708 176.24818,13.53424 176.24819,12.7067 C176.24818,12.22211 176.14194,11.79902 175.92947,11.43743 C175.71699,11.07585 175.39641,10.7795 174.96774,10.54838 C174.53905,10.31727 173.61273,9.99297 172.18877,9.57546 C170.92136,9.20271 170.01927,8.82621 169.48249,8.44598 C168.94571,8.06577 168.52821,7.58304 168.23,6.99779 C167.93178,6.41256 167.78268,5.7509 167.78268,5.01281 C167.78268,3.68578 168.21136,2.601033 169.06872,1.758568 C169.92608,0.916134 171.08165,0.494892 172.53544,0.494892 C173.53445,0.494892 174.40858,0.692475 175.15785,1.08759 C175.9071,1.482737 176.48861,2.04934 176.90239,2.787401 C177.31615,3.525491 177.53795,4.394034 177.56778,5.39303 L175.85678,5.54959 C175.76728,4.483498 175.4486,3.693235 174.90064,3.178805 C174.35267,2.664403 173.58291,2.407195 172.59136,2.40718 C171.58488,2.407195 170.81699,2.632718 170.28767,3.08375 C169.75833,3.53481 169.49367,4.118188 169.49367,4.833885 C169.49367,5.49742 169.68751,6.01184 170.07519,6.37713 C170.46286,6.74246 171.33513,7.11149 172.692,7.48425 C174.01904,7.84957 174.95096,8.16642 175.48775,8.4348 C176.30782,8.85231 176.92661,9.40214 177.34412,10.08429 C177.76161,10.76646 177.97037,11.58095 177.97037,12.52777 C177.97037,13.46714 177.75042,14.32264 177.31057,15.09426 C176.8707,15.86589 176.27241,16.45299 175.5157,16.85558 C174.75898,17.25816 173.84757,17.45946 172.78147,17.45946 C171.11893,17.45946 169.79375,16.95995 168.80592,15.96094 C167.81809,14.96193 167.30554,13.60879 167.26826,11.90152 L167.26826,11.90152 Z"/>
      <polygon points="137.076 10.362 137.076 12.362 131.076 12.362 131.076 10.362"/>
    </g>
    <path fill="#333" fill-rule="nonzero" d="M5.90966797,14.4928527 L10.2700195,0.892266762 L8.76708984,0.892266762 L5.75195312,10.7726379 C5.52929688,11.5086405 5.33138021,12.250828 5.15820312,12.9992004 C4.99121094,12.2817524 4.79638672,11.5395649 4.57373047,10.7726379 L4.57373047,10.7726379 L1.66992188,0.892266762 L0.07421875,0.892266762 L4.39746094,14.4928527 L5.90966797,14.4928527 Z M12.2522461,14.7155089 C12.7841471,14.7155089 13.2974935,14.5949035 13.7922852,14.3536925 C14.2870768,14.1124816 14.7633138,13.7537576 15.2209961,13.2775207 C15.2642904,13.7475728 15.3570638,14.1526834 15.4993164,14.4928527 L15.4993164,14.4928527 L16.9280273,14.4928527 C16.7548503,14.1093892 16.6388835,13.715102 16.580127,13.3099914 C16.5213704,12.9048807 16.4919922,11.9230285 16.4919922,10.3644347 L16.4919922,10.3644347 L16.4919922,8.13787223 C16.4919922,7.23487744 16.428597,6.548354 16.3018066,6.07830192 C16.1750163,5.60824984 15.8704102,5.21396273 15.3879883,4.89544059 C14.9055664,4.57691846 14.2406901,4.41765739 13.3933594,4.41765739 C12.3048177,4.41765739 11.4683105,4.65886832 10.8838379,5.1412902 C10.2993652,5.62371207 9.91126302,6.39373161 9.71953125,7.45134879 L9.71953125,7.45134879 L11.0647461,7.67400504 C11.2131836,6.95037223 11.4451172,6.45712679 11.7605469,6.19426872 C12.0759766,5.93141064 12.5522135,5.79998161 13.1892578,5.79998161 C13.8943359,5.79998161 14.4169596,5.99789827 14.7571289,6.39373161 C14.9983398,6.66586702 15.1189453,7.13901155 15.1189453,7.8131652 L15.1189453,7.8131652 L15.109668,8.23992301 C14.5901367,8.46257926 13.7737305,8.65431103 12.6604492,8.81511832 C11.8316732,8.93263135 11.2131836,9.11508577 10.8049805,9.36248161 C10.3967773,9.60987744 10.0751628,9.95313916 9.84013672,10.3922668 C9.60511068,10.8313944 9.48759766,11.3354634 9.48759766,11.9044738 C9.48759766,12.7641743 9.73808594,13.4476053 10.2390625,13.9547668 C10.7400391,14.4619282 11.4111003,14.7155089 12.2522461,14.7155089 Z M12.5862305,13.4074035 C12.0728841,13.4074035 11.6708659,13.2666971 11.3801758,12.9852843 C11.0894857,12.7038716 10.9441406,12.3281392 10.9441406,11.8580871 C10.9441406,11.5550272 11.0075358,11.2875304 11.1343262,11.0555968 C11.2611165,10.8236632 11.4389323,10.6443013 11.6677734,10.5175109 C11.8966146,10.3907205 12.2986328,10.2778462 12.8738281,10.1788879 C13.8634115,10.0057108 14.6086914,9.79542431 15.109668,9.54802848 L15.109668,9.54802848 L15.109668,10.1603332 C15.109668,10.9705545 15.0107096,11.5874979 14.812793,12.0111632 C14.6148763,12.4348286 14.3164551,12.7734517 13.9175293,13.0270324 C13.5186035,13.2806131 13.0748372,13.4074035 12.5862305,13.4074035 Z M19.6802734,18.2687316 L19.6802734,13.4723449 C19.946224,13.8681782 20.2616536,14.1743306 20.6265625,14.3908019 C20.9914714,14.6072733 21.3842122,14.7155089 21.8047852,14.7155089 C22.7510742,14.7155089 23.5752116,14.2624653 24.2771973,13.3563781 C24.9791829,12.4502909 25.3301758,11.1591938 25.3301758,9.48308707 C25.3301758,8.4007303 25.1740072,7.47454215 24.8616699,6.70452262 C24.5493327,5.93450309 24.1364909,5.360854 23.6231445,4.98357536 C23.1097982,4.60629671 22.5346029,4.41765739 21.8975586,4.41765739 C21.4089518,4.41765739 20.9760091,4.53517041 20.5987305,4.77019645 C20.2214518,5.00522249 19.8781901,5.38868603 19.5689453,5.92058707 L19.5689453,5.92058707 L19.5689453,4.64031364 L18.3165039,4.64031364 L18.3165039,18.2687316 L19.6802734,18.2687316 Z M21.7398437,13.3424621 C21.133724,13.3424621 20.6172852,13.0409484 20.1905273,12.4379211 C19.7637695,11.8348937 19.5503906,10.8963358 19.5503906,9.62224723 C19.5503906,8.35434359 19.7761393,7.38795361 20.2276367,6.72307731 C20.6791341,6.05820101 21.1801107,5.72576286 21.7305664,5.72576286 C22.3428711,5.72576286 22.8624023,6.03500765 23.2891602,6.65349723 C23.715918,7.27198681 23.9292969,8.22446077 23.9292969,9.51091911 C23.9292969,10.8159321 23.7097331,11.7807759 23.2706055,12.4054504 C22.8314779,13.0301248 22.321224,13.3424621 21.7398437,13.3424621 Z M28.9823242,14.7155089 C29.5142253,14.7155089 30.0275716,14.5949035 30.5223633,14.3536925 C31.0171549,14.1124816 31.4933919,13.7537576 31.9510742,13.2775207 C31.9943685,13.7475728 32.0871419,14.1526834 32.2293945,14.4928527 L32.2293945,14.4928527 L33.6581055,14.4928527 C33.4849284,14.1093892 33.3689616,13.715102 33.3102051,13.3099914 C33.2514486,12.9048807 33.2220703,11.9230285 33.2220703,10.3644347 L33.2220703,8.13787223 C33.2220703,7.23487744 33.1586751,6.548354 33.0318848,6.07830192 C32.9050944,5.60824984 32.6004883,5.21396273 32.1180664,4.89544059 C31.6356445,4.57691846 30.9707682,4.41765739 30.1234375,4.41765739 C29.0348958,4.41765739 28.1983887,4.65886832 27.613916,5.1412902 C27.0294434,5.62371207 26.6413411,6.39373161 26.4496094,7.45134879 L26.4496094,7.45134879 L27.7948242,7.67400504 C27.9432617,6.95037223 28.1751953,6.45712679 28.490625,6.19426872 C28.8060547,5.93141064 29.2822917,5.79998161 29.9193359,5.79998161 C30.6244141,5.79998161 31.1470378,5.99789827 31.487207,6.39373161 C31.728418,6.66586702 31.8490234,7.13901155 31.8490234,7.8131652 L31.8490234,7.8131652 L31.8397461,8.23992301 C31.3202148,8.46257926 30.5038086,8.65431103 29.3905273,8.81511832 C28.5617513,8.93263135 27.9432617,9.11508577 27.5350586,9.36248161 C27.1268555,9.60987744 26.8052409,9.95313916 26.5702148,10.3922668 C26.3351888,10.8313944 26.2176758,11.3354634 26.2176758,11.9044738 C26.2176758,12.7641743 26.4681641,13.4476053 26.9691406,13.9547668 C27.4701172,14.4619282 28.1411784,14.7155089 28.9823242,14.7155089 Z M29.3163086,13.4074035 C28.8029622,13.4074035 28.400944,13.2666971 28.1102539,12.9852843 C27.8195638,12.7038716 27.6742187,12.3281392 27.6742187,11.8580871 C27.6742187,11.5550272 27.7376139,11.2875304 27.8644043,11.0555968 C27.9911947,10.8236632 28.1690104,10.6443013 28.3978516,10.5175109 C28.6266927,10.3907205 29.0287109,10.2778462 29.6039062,10.1788879 C30.5934896,10.0057108 31.3387695,9.79542431 31.8397461,9.54802848 L31.8397461,9.54802848 L31.8397461,10.1603332 C31.8397461,10.9705545 31.7407878,11.5874979 31.5428711,12.0111632 C31.3449544,12.4348286 31.0465332,12.7734517 30.6476074,13.0270324 C30.2486816,13.2806131 29.8049154,13.4074035 29.3163086,13.4074035 Z M37.3473633,14.7155089 C37.8792643,14.7155089 38.3926107,14.5949035 38.8874023,14.3536925 C39.382194,14.1124816 39.858431,13.7537576 40.3161133,13.2775207 C40.3594076,13.7475728 40.452181,14.1526834 40.5944336,14.4928527 L40.5944336,14.4928527 L42.0231445,14.4928527 C41.8499674,14.1093892 41.7340007,13.715102 41.6752441,13.3099914 C41.6164876,12.9048807 41.5871094,11.9230285 41.5871094,10.3644347 L41.5871094,8.13787223 C41.5871094,7.23487744 41.5237142,6.548354 41.3969238,6.07830192 C41.2701335,5.60824984 40.9655273,5.21396273 40.4831055,4.89544059 C40.0006836,4.57691846 39.3358073,4.41765739 38.4884766,4.41765739 C37.3999349,4.41765739 36.5634277,4.65886832 35.9789551,5.1412902 C35.3944824,5.62371207 35.0063802,6.39373161 34.8146484,7.45134879 L34.8146484,7.45134879 L36.1598633,7.67400504 C36.3083008,6.95037223 36.5402344,6.45712679 36.8556641,6.19426872 C37.1710937,5.93141064 37.6473307,5.79998161 38.284375,5.79998161 C38.9894531,5.79998161 39.5120768,5.99789827 39.8522461,6.39373161 C40.093457,6.66586702 40.2140625,7.13901155 40.2140625,7.8131652 L40.2140625,7.8131652 L40.2047852,8.23992301 C39.6852539,8.46257926 38.8688477,8.65431103 37.7555664,8.81511832 C36.9267904,8.93263135 36.3083008,9.11508577 35.9000977,9.36248161 C35.4918945,9.60987744 35.1702799,9.95313916 34.9352539,10.3922668 C34.7002279,10.8313944 34.5827148,11.3354634 34.5827148,11.9044738 C34.5827148,12.7641743 34.8332031,13.4476053 35.3341797,13.9547668 C35.8351562,14.4619282 36.5062174,14.7155089 37.3473633,14.7155089 Z M37.6813477,13.4074035 C37.1680013,13.4074035 36.7659831,13.2666971 36.475293,12.9852843 C36.1846029,12.7038716 36.0392578,12.3281392 36.0392578,11.8580871 C36.0392578,11.5550272 36.102653,11.2875304 36.2294434,11.0555968 C36.3562337,10.8236632 36.5340495,10.6443013 36.7628906,10.5175109 C36.9917318,10.3907205 37.39375,10.2778462 37.9689453,10.1788879 C38.9585286,10.0057108 39.7038086,9.79542431 40.2047852,9.54802848 L40.2047852,9.54802848 L40.2047852,10.1603332 C40.2047852,10.9705545 40.1058268,11.5874979 39.9079102,12.0111632 C39.7099935,12.4348286 39.4115723,12.7734517 39.0126465,13.0270324 C38.6137207,13.2806131 38.1699544,13.4074035 37.6813477,13.4074035 Z M50.8210938,14.7155089 C51.7302734,14.7155089 52.4925618,14.4480122 53.107959,13.9130187 C53.7233561,13.3780252 54.1485677,12.5848123 54.3835938,11.53338 L54.3835938,11.53338 L52.9734375,11.3200011 C52.5714193,12.6683084 51.8570638,13.3424621 50.8303711,13.3424621 C50.1747721,13.3424621 49.6181315,13.0610493 49.1604492,12.4982238 C48.7027669,11.9353983 48.4460938,11.1004373 48.3904297,9.99334098 L48.3904297,9.99334098 L54.4207031,9.99334098 L54.4299805,9.54802848 C54.4299805,7.8842915 54.0805339,6.61329541 53.3816406,5.7350402 C52.6827474,4.85678499 51.8106771,4.41765739 50.7654297,4.41765739 C49.6707031,4.41765739 48.7661621,4.86451611 48.0518066,5.75823356 C47.3374512,6.65195101 46.9802734,7.94923291 46.9802734,9.65007926 C46.9802734,11.2890767 47.3343587,12.5430643 48.0425293,13.4120422 C48.7506999,14.28102 49.676888,14.7155089 50.8210938,14.7155089 Z M52.9827148,8.62029411 L48.4739258,8.62029411 C48.5172201,7.75440869 48.7553385,7.06633903 49.1882813,6.55608512 C49.621224,6.04583122 50.1438477,5.79070426 50.7561523,5.79070426 C51.4364909,5.79070426 51.996224,6.09685661 52.4353516,6.70916129 C52.7384115,7.12973421 52.9208659,7.76677848 52.9827148,8.62029411 L52.9827148,8.62029411 Z M57.1358398,14.4928527 L57.1358398,0.892266762 L55.7720703,0.892266762 L55.7720703,14.4928527 L57.1358398,14.4928527 Z M60.3333984,2.81267692 L60.3333984,0.892266762 L58.9696289,0.892266762 L58.9696289,2.81267692 L60.3333984,2.81267692 Z M60.3333984,14.4928527 L60.3333984,4.64031364 L58.9696289,4.64031364 L58.9696289,14.4928527 L60.3333984,14.4928527 Z M63.4938477,14.4928527 L63.4938477,9.11199332 C63.4938477,7.92449332 63.6886719,7.08643994 64.0783203,6.59783317 C64.4679688,6.1092264 64.9905924,5.86492301 65.6461914,5.86492301 C65.9925456,5.86492301 66.2971517,5.95615023 66.5600098,6.13860465 C66.8228678,6.32105908 67.0161458,6.57927848 67.1398438,6.91326286 C67.2635417,7.24724723 67.3253906,7.77605582 67.3253906,8.49968864 L67.3253906,8.49968864 L67.3253906,14.4928527 L68.6984375,14.4928527 L68.6984375,8.43474723 C68.6984375,7.52556754 68.6427734,6.8514139 68.5314453,6.41228629 C68.4201172,5.97315869 68.2515788,5.61598096 68.0258301,5.34075309 C67.8000814,5.06552523 67.5032064,4.84286898 67.1352051,4.67278434 C66.7672038,4.50269971 66.3667318,4.41765739 65.9337891,4.41765739 C65.3771484,4.41765739 64.883903,4.55217887 64.4540527,4.82122184 C64.0242025,5.09026481 63.6608398,5.49692171 63.3639648,6.04119254 L63.3639648,6.04119254 L63.3639648,4.64031364 L62.1300781,4.64031364 L62.1300781,14.4928527 L63.4938477,14.4928527 Z M72.7124023,14.6227355 C73.0154622,14.6227355 73.3556315,14.5732563 73.7329102,14.474298 L73.7329102,14.474298 L73.5473633,12.9992004 C73.2999674,13.0424946 73.0989583,13.0641418 72.9443359,13.0641418 C72.6227214,13.0641418 72.4031576,12.9528136 72.2856445,12.7301574 C72.2052409,12.575535 72.1650391,12.2322733 72.1650391,11.7003722 L72.1650391,11.7003722 L72.1650391,5.93914176 L73.5473633,5.93914176 L73.5473633,4.64031364 L72.1650391,4.64031364 L72.1650391,1.19841911 L70.8012695,2.20037223 L70.8012695,4.64031364 L69.7993164,4.64031364 L69.7993164,5.93914176 L70.8012695,5.93914176 L70.8012695,11.6075988 C70.8012695,12.5848123 70.8553874,13.2373188 70.963623,13.5651183 C71.0718587,13.8929178 71.2713216,14.1511372 71.5620117,14.3397765 C71.8527018,14.5284159 72.2361654,14.6227355 72.7124023,14.6227355 Z M76.828418,14.7155089 C77.360319,14.7155089 77.8736654,14.5949035 78.368457,14.3536925 C78.8632487,14.1124816 79.3394857,13.7537576 79.797168,13.2775207 C79.8404622,13.7475728 79.9332357,14.1526834 80.0754883,14.4928527 L80.0754883,14.4928527 L81.5041992,14.4928527 C81.3310221,14.1093892 81.2150553,13.715102 81.1562988,13.3099914 C81.0975423,12.9048807 81.0681641,11.9230285 81.0681641,10.3644347 L81.0681641,8.13787223 C81.0681641,7.23487744 81.0047689,6.548354 80.8779785,6.07830192 C80.7511882,5.60824984 80.446582,5.21396273 79.9641602,4.89544059 C79.4817383,4.57691846 78.816862,4.41765739 77.9695313,4.41765739 C76.8809896,4.41765739 76.0444824,4.65886832 75.4600098,5.1412902 C74.8755371,5.62371207 74.4874349,6.39373161 74.2957031,7.45134879 L74.2957031,7.45134879 L75.640918,7.67400504 C75.7893555,6.95037223 76.0212891,6.45712679 76.3367188,6.19426872 C76.6521484,5.93141064 77.1283854,5.79998161 77.7654297,5.79998161 C78.4705078,5.79998161 78.9931315,5.99789827 79.3333008,6.39373161 C79.5745117,6.66586702 79.6951172,7.13901155 79.6951172,7.8131652 L79.6951172,7.8131652 L79.6858398,8.23992301 C79.1663086,8.46257926 78.3499023,8.65431103 77.2366211,8.81511832 C76.4078451,8.93263135 75.7893555,9.11508577 75.3811523,9.36248161 C74.9729492,9.60987744 74.6513346,9.95313916 74.4163086,10.3922668 C74.1812826,10.8313944 74.0637695,11.3354634 74.0637695,11.9044738 C74.0637695,12.7641743 74.3142578,13.4476053 74.8152344,13.9547668 C75.3162109,14.4619282 75.9872721,14.7155089 76.828418,14.7155089 Z M77.1624023,13.4074035 C76.649056,13.4074035 76.2470378,13.2666971 75.9563477,12.9852843 C75.6656576,12.7038716 75.5203125,12.3281392 75.5203125,11.8580871 C75.5203125,11.5550272 75.5837077,11.2875304 75.710498,11.0555968 C75.8372884,10.8236632 76.0151042,10.6443013 76.2439453,10.5175109 C76.4727865,10.3907205 76.8748047,10.2778462 77.45,10.1788879 C78.4395833,10.0057108 79.1848633,9.79542431 79.6858398,9.54802848 L79.6858398,9.54802848 L79.6858398,10.1603332 C79.6858398,10.9705545 79.5868815,11.5874979 79.3889648,12.0111632 C79.1910482,12.4348286 78.892627,12.7734517 78.4937012,13.0270324 C78.0947754,13.2806131 77.6510091,13.4074035 77.1624023,13.4074035 Z M84.2564453,14.4928527 L84.2564453,9.33464957 C84.2564453,8.61720166 84.3430339,7.93995556 84.5162109,7.30291129 C84.6151693,6.93800244 84.7852539,6.65349723 85.0264648,6.44939567 C85.2676758,6.24529411 85.5336263,6.14324332 85.8243164,6.14324332 C86.145931,6.14324332 86.4768229,6.26384879 86.8169922,6.50505973 L86.8169922,6.50505973 L87.2808594,4.95574332 C86.8046224,4.59701937 86.3376628,4.41765739 85.8799805,4.41765739 C85.552181,4.41765739 85.2568522,4.53053174 84.9939941,4.75628043 C84.7311361,4.98202913 84.4419922,5.44125765 84.1265625,6.13396598 L84.1265625,6.13396598 L84.1265625,4.64031364 L82.8926758,4.64031364 L82.8926758,14.4928527 L84.2564453,14.4928527 Z M91.3226563,14.4928527 L94.3841797,4.64031364 L92.9740234,4.64031364 L91.1742188,10.6520324 C90.9577474,11.3818501 90.7907552,12.0065246 90.6732422,12.5260558 C90.5248047,11.8704569 90.3516276,11.208673 90.1537109,10.5407043 L90.1537109,10.5407043 L88.4188477,4.64031364 L86.971582,4.64031364 L90.0423828,14.4928527 L91.3226563,14.4928527 Z M96.6354492,2.81267692 L96.6354492,0.892266762 L95.2716797,0.892266762 L95.2716797,2.81267692 L96.6354492,2.81267692 Z M96.6354492,14.4928527 L96.6354492,4.64031364 L95.2716797,4.64031364 L95.2716797,14.4928527 L96.6354492,14.4928527 Z M99.8330078,14.4928527 L99.8330078,10.587091 L100.797852,9.45525504 L103.479004,14.4928527 L105.158203,14.4928527 L101.762695,8.29558707 L104.852051,4.64031364 L103.080078,4.64031364 L99.8330078,8.64812614 L99.8330078,0.892266762 L98.4692383,0.892266762 L98.4692383,14.4928527 L99.8330078,14.4928527 Z M109.302051,14.7155089 C110.21123,14.7155089 110.973519,14.4480122 111.588916,13.9130187 C112.204313,13.3780252 112.629525,12.5848123 112.864551,11.53338 L112.864551,11.53338 L111.454395,11.3200011 C111.052376,12.6683084 110.338021,13.3424621 109.311328,13.3424621 C108.655729,13.3424621 108.099089,13.0610493 107.641406,12.4982238 C107.183724,11.9353983 106.927051,11.1004373 106.871387,9.99334098 L106.871387,9.99334098 L112.90166,9.99334098 L112.910938,9.54802848 C112.910938,7.8842915 112.561491,6.61329541 111.862598,5.7350402 C111.163704,4.85678499 110.291634,4.41765739 109.246387,4.41765739 C108.15166,4.41765739 107.247119,4.86451611 106.532764,5.75823356 C105.818408,6.65195101 105.46123,7.94923291 105.46123,9.65007926 C105.46123,11.2890767 105.815316,12.5430643 106.523486,13.4120422 C107.231657,14.28102 108.157845,14.7155089 109.302051,14.7155089 Z M111.463672,8.62029411 L106.954883,8.62029411 C106.998177,7.75440869 107.236296,7.06633903 107.669238,6.55608512 C108.102181,6.04583122 108.624805,5.79070426 109.237109,5.79070426 C109.917448,5.79070426 110.477181,6.09685661 110.916309,6.70916129 C111.219368,7.12973421 111.401823,7.76677848 111.463672,8.62029411 L111.463672,8.62029411 Z M116.507422,14.6227355 C116.810482,14.6227355 117.150651,14.5732563 117.52793,14.474298 L117.52793,14.474298 L117.342383,12.9992004 C117.094987,13.0424946 116.893978,13.0641418 116.739355,13.0641418 C116.417741,13.0641418 116.198177,12.9528136 116.080664,12.7301574 C116.00026,12.575535 115.960059,12.2322733 115.960059,11.7003722 L115.960059,11.7003722 L115.960059,5.93914176 L117.342383,5.93914176 L117.342383,4.64031364 L115.960059,4.64031364 L115.960059,1.19841911 L114.596289,2.20037223 L114.596289,4.64031364 L113.594336,4.64031364 L113.594336,5.93914176 L114.596289,5.93914176 L114.596289,11.6075988 C114.596289,12.5848123 114.650407,13.2373188 114.758643,13.5651183 C114.866878,13.8929178 115.066341,14.1511372 115.357031,14.3397765 C115.647721,14.5284159 116.031185,14.6227355 116.507422,14.6227355 Z M119.686426,2.81267692 L119.686426,0.892266762 L118.322656,0.892266762 L118.322656,2.81267692 L119.686426,2.81267692 Z M119.686426,14.4928527 L119.686426,4.64031364 L118.322656,4.64031364 L118.322656,14.4928527 L119.686426,14.4928527 Z M124.860059,14.7155089 C125.769238,14.7155089 126.531527,14.4480122 127.146924,13.9130187 C127.762321,13.3780252 128.187533,12.5848123 128.422559,11.53338 L128.422559,11.53338 L127.012402,11.3200011 C126.610384,12.6683084 125.896029,13.3424621 124.869336,13.3424621 C124.213737,13.3424621 123.657096,13.0610493 123.199414,12.4982238 C122.741732,11.9353983 122.485059,11.1004373 122.429395,9.99334098 L122.429395,9.99334098 L128.459668,9.99334098 L128.468945,9.54802848 C128.468945,7.8842915 128.119499,6.61329541 127.420605,5.7350402 C126.721712,4.85678499 125.849642,4.41765739 124.804395,4.41765739 C123.709668,4.41765739 122.805127,4.86451611 122.090771,5.75823356 C121.376416,6.65195101 121.019238,7.94923291 121.019238,9.65007926 C121.019238,11.2890767 121.373324,12.5430643 122.081494,13.4120422 C122.789665,14.28102 123.715853,14.7155089 124.860059,14.7155089 Z M127.02168,8.62029411 L122.512891,8.62029411 C122.556185,7.75440869 122.794303,7.06633903 123.227246,6.55608512 C123.660189,6.04583122 124.182813,5.79070426 124.795117,5.79070426 C125.475456,5.79070426 126.035189,6.09685661 126.474316,6.70916129 C126.777376,7.12973421 126.959831,7.76677848 127.02168,8.62029411 L127.02168,8.62029411 Z M132.06543,14.6227355 C132.36849,14.6227355 132.708659,14.5732563 133.085938,14.474298 L133.085938,14.474298 L132.900391,12.9992004 C132.652995,13.0424946 132.451986,13.0641418 132.297363,13.0641418 C131.975749,13.0641418 131.756185,12.9528136 131.638672,12.7301574 C131.558268,12.575535 131.518066,12.2322733 131.518066,11.7003722 L131.518066,11.7003722 L131.518066,5.93914176 L132.900391,5.93914176 L132.900391,4.64031364 L131.518066,4.64031364 L131.518066,1.19841911 L130.154297,2.20037223 L130.154297,4.64031364 L129.152344,4.64031364 L129.152344,5.93914176 L130.154297,5.93914176 L130.154297,11.6075988 C130.154297,12.5848123 130.208415,13.2373188 130.31665,13.5651183 C130.424886,13.8929178 130.624349,14.1511372 130.915039,14.3397765 C131.205729,14.5284159 131.589193,14.6227355 132.06543,14.6227355 Z M137.155566,14.7155089 C138.256478,14.7155089 139.162565,14.2825662 139.873828,13.4166808 C140.585091,12.5507954 140.940723,11.2334126 140.940723,9.46453239 C140.940723,7.83171989 140.578906,6.58237093 139.855273,5.71648551 C139.131641,4.8506001 138.231738,4.41765739 137.155566,4.41765739 C136.06084,4.41765739 135.156299,4.8506001 134.441943,5.71648551 C133.727588,6.58237093 133.37041,7.86573681 133.37041,9.56658317 C133.37041,11.2612446 133.73068,12.5430643 134.451221,13.4120422 C135.171761,14.28102 136.07321,14.7155089 137.155566,14.7155089 Z M137.192676,13.3424621 C136.506152,13.3424621 135.930957,13.0316711 135.46709,12.410089 C135.003223,11.788507 134.771289,10.8406717 134.771289,9.56658317 C134.771289,8.30486442 135.00013,7.3616678 135.457813,6.73699332 C135.915495,6.11231885 136.469043,5.79998161 137.118457,5.79998161 C137.80498,5.79998161 138.380176,6.11077262 138.844043,6.73235465 C139.30791,7.35393668 139.539844,8.29867952 139.539844,9.56658317 C139.539844,10.8283019 139.309456,11.7730448 138.848682,12.4008117 C138.387907,13.0285786 137.835905,13.3424621 137.192676,13.3424621 Z M143.646582,14.4928527 L143.646582,10.587091 L144.611426,9.45525504 L147.292578,14.4928527 L148.971777,14.4928527 L145.57627,8.29558707 L148.665625,4.64031364 L146.893652,4.64031364 L143.646582,8.64812614 L143.646582,0.892266762 L142.282813,0.892266762 L142.282813,14.4928527 L143.646582,14.4928527 Z M152.039453,14.7155089 C152.571354,14.7155089 153.084701,14.5949035 153.579492,14.3536925 C154.074284,14.1124816 154.550521,13.7537576 155.008203,13.2775207 C155.051497,13.7475728 155.144271,14.1526834 155.286523,14.4928527 L155.286523,14.4928527 L156.715234,14.4928527 C156.542057,14.1093892 156.42609,13.715102 156.367334,13.3099914 C156.308577,12.9048807 156.279199,11.9230285 156.279199,10.3644347 L156.279199,8.13787223 C156.279199,7.23487744 156.215804,6.548354 156.089014,6.07830192 C155.962223,5.60824984 155.657617,5.21396273 155.175195,4.89544059 C154.692773,4.57691846 154.027897,4.41765739 153.180566,4.41765739 C152.092025,4.41765739 151.255518,4.65886832 150.671045,5.1412902 C150.086572,5.62371207 149.69847,6.39373161 149.506738,7.45134879 L149.506738,7.45134879 L150.851953,7.67400504 C151.000391,6.95037223 151.232324,6.45712679 151.547754,6.19426872 C151.863184,5.93141064 152.339421,5.79998161 152.976465,5.79998161 C153.681543,5.79998161 154.204167,5.99789827 154.544336,6.39373161 C154.785547,6.66586702 154.906152,7.13901155 154.906152,7.8131652 L154.906152,7.8131652 L154.896875,8.23992301 C154.377344,8.46257926 153.560937,8.65431103 152.447656,8.81511832 C151.61888,8.93263135 151.000391,9.11508577 150.592187,9.36248161 C150.183984,9.60987744 149.86237,9.95313916 149.627344,10.3922668 C149.392318,10.8313944 149.274805,11.3354634 149.274805,11.9044738 C149.274805,12.7641743 149.525293,13.4476053 150.02627,13.9547668 C150.527246,14.4619282 151.198307,14.7155089 152.039453,14.7155089 Z M152.373437,13.4074035 C151.860091,13.4074035 151.458073,13.2666971 151.167383,12.9852843 C150.876693,12.7038716 150.731348,12.3281392 150.731348,11.8580871 C150.731348,11.5550272 150.794743,11.2875304 150.921533,11.0555968 C151.048324,10.8236632 151.226139,10.6443013 151.45498,10.5175109 C151.683822,10.3907205 152.08584,10.2778462 152.661035,10.1788879 C153.650618,10.0057108 154.395898,9.79542431 154.896875,9.54802848 L154.896875,9.54802848 L154.896875,10.1603332 C154.896875,10.9705545 154.797917,11.5874979 154.6,12.0111632 C154.402083,12.4348286 154.103662,12.7734517 153.704736,13.0270324 C153.305811,13.2806131 152.862044,13.4074035 152.373437,13.4074035 Z M159.46748,14.4928527 L159.46748,9.11199332 C159.46748,7.92449332 159.662305,7.08643994 160.051953,6.59783317 C160.441602,6.1092264 160.964225,5.86492301 161.619824,5.86492301 C161.966178,5.86492301 162.270785,5.95615023 162.533643,6.13860465 C162.796501,6.32105908 162.989779,6.57927848 163.113477,6.91326286 C163.237174,7.24724723 163.299023,7.77605582 163.299023,8.49968864 L163.299023,8.49968864 L163.299023,14.4928527 L164.67207,14.4928527 L164.67207,8.43474723 C164.67207,7.52556754 164.616406,6.8514139 164.505078,6.41228629 C164.39375,5.97315869 164.225212,5.61598096 163.999463,5.34075309 C163.773714,5.06552523 163.476839,4.84286898 163.108838,4.67278434 C162.740837,4.50269971 162.340365,4.41765739 161.907422,4.41765739 C161.350781,4.41765739 160.857536,4.55217887 160.427686,4.82122184 C159.997835,5.09026481 159.634473,5.49692171 159.337598,6.04119254 L159.337598,6.04119254 L159.337598,4.64031364 L158.103711,4.64031364 L158.103711,14.4928527 L159.46748,14.4928527 Z M168.686035,14.6227355 C168.989095,14.6227355 169.329264,14.5732563 169.706543,14.474298 L169.706543,14.474298 L169.520996,12.9992004 C169.2736,13.0424946 169.072591,13.0641418 168.917969,13.0641418 C168.596354,13.0641418 168.37679,12.9528136 168.259277,12.7301574 C168.178874,12.575535 168.138672,12.2322733 168.138672,11.7003722 L168.138672,11.7003722 L168.138672,5.93914176 L169.520996,5.93914176 L169.520996,4.64031364 L168.138672,4.64031364 L168.138672,1.19841911 L166.774902,2.20037223 L166.774902,4.64031364 L165.772949,4.64031364 L165.772949,5.93914176 L166.774902,5.93914176 L166.774902,11.6075988 C166.774902,12.5848123 166.82902,13.2373188 166.937256,13.5651183 C167.045492,13.8929178 167.244954,14.1511372 167.535645,14.3397765 C167.826335,14.5284159 168.209798,14.6227355 168.686035,14.6227355 Z M172.802051,14.7155089 C173.333952,14.7155089 173.847298,14.5949035 174.34209,14.3536925 C174.836882,14.1124816 175.313118,13.7537576 175.770801,13.2775207 C175.814095,13.7475728 175.906868,14.1526834 176.049121,14.4928527 L176.049121,14.4928527 L177.477832,14.4928527 C177.304655,14.1093892 177.188688,13.715102 177.129932,13.3099914 C177.071175,12.9048807 177.041797,11.9230285 177.041797,10.3644347 L177.041797,10.3644347 L177.041797,8.13787223 C177.041797,7.23487744 176.978402,6.548354 176.851611,6.07830192 C176.724821,5.60824984 176.420215,5.21396273 175.937793,4.89544059 C175.455371,4.57691846 174.790495,4.41765739 173.943164,4.41765739 C172.854622,4.41765739 172.018115,4.65886832 171.433643,5.1412902 C170.84917,5.62371207 170.461068,6.39373161 170.269336,7.45134879 L170.269336,7.45134879 L171.614551,7.67400504 C171.762988,6.95037223 171.994922,6.45712679 172.310352,6.19426872 C172.625781,5.93141064 173.102018,5.79998161 173.739062,5.79998161 C174.444141,5.79998161 174.966764,5.99789827 175.306934,6.39373161 C175.548145,6.66586702 175.66875,7.13901155 175.66875,7.8131652 L175.66875,7.8131652 L175.659473,8.23992301 C175.139941,8.46257926 174.323535,8.65431103 173.210254,8.81511832 C172.381478,8.93263135 171.762988,9.11508577 171.354785,9.36248161 C170.946582,9.60987744 170.624967,9.95313916 170.389941,10.3922668 C170.154915,10.8313944 170.037402,11.3354634 170.037402,11.9044738 C170.037402,12.7641743 170.287891,13.4476053 170.788867,13.9547668 C171.289844,14.4619282 171.960905,14.7155089 172.802051,14.7155089 Z M173.136035,13.4074035 C172.622689,13.4074035 172.220671,13.2666971 171.92998,12.9852843 C171.63929,12.7038716 171.493945,12.3281392 171.493945,11.8580871 C171.493945,11.5550272 171.55734,11.2875304 171.684131,11.0555968 C171.810921,10.8236632 171.988737,10.6443013 172.217578,10.5175109 C172.446419,10.3907205 172.848437,10.2778462 173.423633,10.1788879 C174.413216,10.0057108 175.158496,9.79542431 175.659473,9.54802848 L175.659473,9.54802848 L175.659473,10.1603332 C175.659473,10.9705545 175.560514,11.5874979 175.362598,12.0111632 C175.164681,12.4348286 174.86626,12.7734517 174.467334,13.0270324 C174.068408,13.2806131 173.624642,13.4074035 173.136035,13.4074035 Z" transform="translate(1 134.507)"/>
    <rect width="5" height="5" x="111" y="9"/>
    <rect width="5" height="5" x="111" y="9"/>
    <rect width="1" height="1" x="2" y="149"/>
  </g>
</svg>
