<?xml version="1.0" encoding="UTF-8" standalone="no"?>
<svg
   xmlns:dc="http://purl.org/dc/elements/1.1/"
   xmlns:cc="http://creativecommons.org/ns#"
   xmlns:rdf="http://www.w3.org/1999/02/22-rdf-syntax-ns#"
   xmlns:svg="http://www.w3.org/2000/svg"
   xmlns="http://www.w3.org/2000/svg"
   xmlns:sodipodi="http://sodipodi.sourceforge.net/DTD/sodipodi-0.dtd"
   xmlns:inkscape="http://www.inkscape.org/namespaces/inkscape"
   sodipodi:docname="openbeautyfacts-logo-source.svg"
   inkscape:version="1.0 (4035a4fb49, 2020-05-01)"
   version="1.1"
   id="svg8313"
   height="150"
   width="178">
  <style
     id="style193">
   :root {
     font-style: normal;
     font-variant: normal;
     font-weight: normal;
     font-stretch: normal;
     line-height: 125%;
     font-family: 'Arial Narrow';
     -inkscape-font-specification: 'Arial Narrow';
     letter-spacing: 0px;
     word-spacing: 0px;
     fill-opacity: 1;
     stroke: none;
   }
   #site-name {
     font-size: 22.90272331px;
     fill: #333333;
   }
   #site-slogan {
     font-size: 16.94345474px;
     fill: #333333;
   }
   @media (prefers-color-scheme: dark) {
     #site-name,#site-slogan {
       fill: #ffffff;
	 }
   }
   .design-element
   {
     fill-rule: nonzero;
	 stroke: none;
   }
   .red {
     fill: #ff0000;
   }
   .yellow {
     fill: #ffcc00;
   }
   .green {
     fill: #00d400;
   }
   .cyan {
     fill: #00ccff;
   }
   .blue {
     fill: #0066ff;
   }
  </style>
  <defs
     id="defs8315" />
  <sodipodi:namedview
     inkscape:document-rotation="0"
     inkscape:snap-global="true"
     inkscape:window-maximized="1"
     inkscape:window-y="-8"
     inkscape:window-x="1912"
     inkscape:window-height="1017"
     inkscape:window-width="1920"
     showgrid="true"
     inkscape:current-layer="layer1"
     inkscape:document-units="px"
     inkscape:cy="69.217839"
     inkscape:cx="72.806852"
     inkscape:zoom="3.1916204"
     inkscape:pageshadow="2"
     inkscape:pageopacity="0.0"
     borderopacity="1.0"
     bordercolor="#666666"
     pagecolor="#ffffff"
     id="base">
    <inkscape:grid
       id="grid8566"
       type="xygrid" />
  </sodipodi:namedview>
  <metadata
     id="metadata8318">
    <rdf:RDF>
      <cc:Work
         rdf:about="">
        <dc:format>image/svg+xml</dc:format>
        <dc:type
           rdf:resource="http://purl.org/dc/dcmitype/StillImage" />
        <dc:title />
      </cc:Work>
    </rdf:RDF>
  </metadata>
  <g
     id="layer1"
     inkscape:groupmode="layer"
     inkscape:label="Layer 1">
    <g
       style="fill-rule:nonzero;stroke:none"
       id="barcode"
       transform="translate(65.7422,151.15413)">
      <path
         class="cyan"
         sodipodi:nodetypes="cccccccccccccccccccccccc"
         inkscape:connector-curvature="0"
         id="path12155"
         d="m 84.2578,-120.15413 4,55.65217 v 8.34783 h 3 v -64 h -3 z m 8,0 v 64 h 4 v -64 z m 5,0 v 64 h 1 v -64 z m 2,0 v 64 h 2 v -8.34783 l 4,-55.65217 h -4 z" />
      <g
         id="g59"
         class="red">
        <path
           d="m -53.31795,-147.90413 c -3.13312,-0.0516 -5.63149,3.14302 -6.42425,12.75 v 22.71875 h 22 v -22.71875 c -3.44249,-3.55006 -10.3539,-12.66396 -15.57575,-12.75 z"
           id="path12167"
           inkscape:connector-curvature="0" />
        <path
           d="m -46.7422,-117.97846 v 61.82433 h 2 v -61.82433 z m -4,0.82433 v 61 h 3 v -61 z m -15,4.12162 v 56.87838 h 2 v -56.87838 z m 3,0 v 56.87838 h 1 v -56.87838 z m 5,0 v 56.87838 h 1 v -56.87838 z m 3,0 v 56.87838 h 1 v -56.87838 z m 11,0 v 56.87838 h 3 v -56.87838 z m 4,0 v 56.87838 h 3 v -56.87838 z m 4,0 v 56.87838 h 2 v -56.87838 z m 3,0 v 56.87838 h 1 v -56.87838 z"
           id="path12169"
           inkscape:connector-curvature="0" />
        <rect
           id="rect12187"
           width="1"
           height="3"
           x="-62.74226"
           y="-115.43538" />
        <path
           d="m -62.7422,-117.15413 h 14 14 v 5 h -14 -14 z"
           id="path12191"
           inkscape:connector-curvature="0"
           sodipodi:nodetypes="ccccccc" />
        <path
           sodipodi:nodetypes="ccccccc"
           inkscape:connector-curvature="0"
           id="path12195"
           d="m -65.7422,-113.15413 h 17 17 v 1 h -17 -17 z" />
        <path
           id="rect12197"
           d="m -54.7422,-147.65413 c -0.71672,0.26072 -1.39729,0.73547 -2,1.5 v 29 h 2 z"
           inkscape:connector-curvature="0" />
      </g>
      <g
         id="g63"
         class="yellow">
        <path
           d="m -28.7422,-100.15413 v 44 h 2 v -44 z m 3,0 v 44 h 1 v -44 z m 4,0 v 44 h 1 v -44 z m 2,0 v 44 h 3 v -44 z m 6,0 v 44 h 2 v -44 z m 3,0 v 44 h 1 v -44 z m 4,0 0.0312,44 h 1.9688 l -0.0312,-44 z m 5,0 v 44 h 1 v -44 z m 2,0 v 44 h 1 v -44 z m 4,0 v 44 h 3 v -44 z m 4,0 v 44 h 2 v -44 z m 3,0 v 44 h 1 v -44 z m 4,0 v 44 h 3 v -44 z m 4,0 v 44 h 2 v -44 z m 3,0 v 44 h 1 v -44 z m 2,0 v 44 h 2 v -44 z"
           id="path12171"
           inkscape:connector-curvature="0" />
        <path
           sodipodi:nodetypes="ssccsss"
           d="m -20.4922,-120.15413 c -4.5705,0 -8.25,3.6795 -8.25,8.25 v 10.75 h 55 v -10.75 c 0,-4.5705 -3.6795,-8.25 -8.25,-8.25 z"
           id="path12199"
           inkscape:connector-curvature="0" />
      </g>
      <g
         id="g67"
         class="green">
        <path
           inkscape:connector-curvature="0"
           d="m 44.2578,-113.15413 v 57 h 1 v -57 z m 2,0 v 57 h 1 v -57 z m 4,0 v 57 h 2 v -57 z m 5,0 v 57 h 1 v -57 z m 4,0 v 57 h 1 v -57 z m 4,0 v 57 h 2 v -57 z m 3,0 v 57 h 2 v -57 z m 3,0 v 57 h 3 v -56.4375 c -0.33707,-0.16585 -0.68515,-0.31888 -1.03125,-0.46875 0.002,-0.0306 -0.002,-0.0632 0,-0.0937 H 69.2578 Z m -26,0.0937 c -0.33724,0.14652 -0.67134,0.30704 -1,0.46875 v 56.4375 h 1 z m -4,2.25 c -0.69601,0.48378 -1.36246,1.00762 -2,1.5625 v 53.09375 h 2 z m 36,0 v 54.65625 h 1 v -53.9375 c -0.32365,-0.25126 -0.66298,-0.4845 -1,-0.71875 z m 2,1.5625 v 53.09375 h 2 v -51.125 c -0.62899,-0.69721 -1.29148,-1.3521 -2,-1.96875 z m -43,3.125 c -0.35282,0.44603 -0.68007,0.90323 -1,1.375 v 48.59375 h 1 z m 46,0 v 49.96875 h 3 v -44.96875 c -0.79731,-1.79981 -1.79497,-3.47659 -3,-5 z m 4,7.6875 v 42.28125 h 1 v -35.5 c 0,-2.35858 -0.35465,-4.63934 -1,-6.78125 z m -54.03125,0.0625 c -0.5928,1.98873 -0.92874,4.10406 -0.96875,6.28125 -0.003,0.14674 0,0.29008 0,0.4375 l 0.0312,35.5 h 0.96875 z"
           id="path12157" />
        <path
           inkscape:connector-curvature="0"
           d="m 62.60155,-148.09163 c -1.78342,0.0471 -3.79985,0.24743 -5.34375,0.4375 -6.36567,0.78364 -4.65625,-0.0104 -18.65625,4.65625 -1.47573,0.49191 -1.39133,5.38317 0,4.6875 4.38351,-2.19176 9.78935,-2.31915 14.78125,-1.84375 -0.4951,1.01323 -0.78125,2.24737 -0.78125,3.5625 v 3.65625 c -1.91045,0.86858 -3.4453,2.46044 -4.1875,4.4375 -3.01974,1.13363 -5.15625,4.04346 -5.15625,7.46875 v 6.875 h 28 v -6.875 c 0,-3.42529 -2.13651,-6.33512 -5.15625,-7.46875 -0.7422,-1.97706 -2.27705,-3.56892 -4.1875,-4.4375 v -3.65625 c 0,-0.83218 -0.13356,-1.64737 -0.34375,-2.375 2.11458,0.36458 3.86458,0.65625 5.03125,0.65625 3.1111,0 2.6943,-7.78819 0,-9.34375 -0.65577,-0.37861 -2.21658,-0.48464 -4,-0.4375 z"
           id="path12201" />
      </g>
      <g
         id="g78"
         class="blue">
        <path
           style="fill:#0066ff;fill-opacity:1;fill-rule:nonzero;stroke:none"
           d="m 108.2578,-134.15413 v 1.25 29.34375 47.40625 h 1 v -78 z m 2,0 v 78 h 2 v -78 z m -3,37 c -3,10 -3,8.06339 -3,23 v 18 h 3 z"
           id="path12151"
           inkscape:connector-curvature="0"
           sodipodi:nodetypes="ccccccccccccccccc" />
        <g
           id="g12209"
           transform="matrix(1.1666667,0,0,1,522.59113,-120.15413)"
           style="fill:#0066ff;fill-opacity:1">
          <path
             sodipodi:nodetypes="ccccc"
             inkscape:connector-curvature="0"
             id="path12211"
             d="m -362,-27 h 6 v 1 h -6 z"
             style="fill:#0066ff;fill-opacity:1;fill-rule:evenodd;stroke:none" />
          <path
             style="fill:#0066ff;fill-opacity:1;fill-rule:evenodd;stroke:none"
             d="m -362,-25 h 6 v 1 h -6 z"
             id="path12213"
             inkscape:connector-curvature="0"
             sodipodi:nodetypes="ccccc" />
          <path
             sodipodi:nodetypes="ccccc"
             inkscape:connector-curvature="0"
             id="path12215"
             d="m -362,-23 h 6 v 1 h -6 z"
             style="fill:#0066ff;fill-opacity:1;fill-rule:evenodd;stroke:none" />
          <path
             style="fill:#0066ff;fill-opacity:1;fill-rule:evenodd;stroke:none"
             d="m -362,-21 h 6 v 1 h -6 z"
             id="path12217"
             inkscape:connector-curvature="0"
             sodipodi:nodetypes="ccccc" />
          <path
             sodipodi:nodetypes="ccccc"
             inkscape:connector-curvature="0"
             id="path12219"
             d="m -362,-19 h 6 v 1 h -6 z"
             style="fill:#0066ff;fill-opacity:1;fill-rule:evenodd;stroke:none" />
          <path
             style="fill:#0066ff;fill-opacity:1;fill-rule:evenodd;stroke:none"
             d="m -362,-17 h 6 v 1 h -6 z"
             id="path12221"
             inkscape:connector-curvature="0"
             sodipodi:nodetypes="ccccc" />
          <path
             sodipodi:nodetypes="ccccc"
             inkscape:connector-curvature="0"
             id="path12223"
             d="m -362,-15 h 6 v 1 h -6 z"
             style="fill:#0066ff;fill-opacity:1;fill-rule:evenodd;stroke:none" />
        </g>
        <path
           inkscape:connector-curvature="0"
           style="fill:#0066ff;fill-opacity:1;fill-rule:evenodd;stroke:none"
           d="m 109.2578,-148.15413 c -0.554,0 -1,0.446 -1,1 v 3 c 0,0.554 0.446,1 1,1 v -4 h 1 v 4 h 1 c 0.554,0 1,-0.446 1,-1 v -3 c 0,-0.554 -0.446,-1 -1,-1 z"
           id="rect12207" />
        <path
           inkscape:connector-curvature="0"
           style="fill:#0066ff;fill-opacity:1;fill-rule:evenodd;stroke:none"
           d="m 108.2578,-145.15413 v 1.03125 6.25 4.71875 h 1 v -12 z m 2,0 v 12 h 2 v -12 z"
           id="path12225" />
      </g>
    </g>
    <text
       style="fill-rule:nonzero;stroke:none"
       xml:space="preserve"
       x="-0.41453859"
       y="96.774277"
       id="site-name"
       transform="scale(0.84149139,1.1883663)"><tspan
         style="font-size:19.9814px;line-height:1.25;stroke-width:0.90615"
         sodipodi:role="line"
         id="tspan12165"
         x="-0.41453859"
         y="96.774277">OPEN BEAUTY FACTS</tspan></text>
    <g
       class="design-element"
       id="bars"
       transform="translate(65.7422,151.15413)">
      <path
         sodipodi:nodetypes="cccccc"
         id="path12175"
         d="m 104.25784,-33.15413 v 5 c 2.66569,0 5.33424,0 7.99992,0 v -5 c -2.66568,0 -5.33423,0 -7.99983,0 z"
         inkscape:connector-curvature="0"
         class="blue" />
      <path
         sodipodi:nodetypes="ccccc"
         id="path12177"
         d="m 88.25781,-33.15413 v 5 c 4.33407,0 8.6659,0 12.99997,0 v -5 c -4.33407,0 -8.6659,0 -12.99997,0 z"
         inkscape:connector-curvature="0"
         class="cyan" />
      <path
         sodipodi:nodetypes="ccccc"
         id="path12179"
         d="m 29.2578,-33.15413 v 5 c 18.6596,0 37.34041,0 56.00004,0 v -5 c -18.65963,0 -37.34044,0 -56.00004,0 z"
         inkscape:connector-curvature="0"
         class="green" />
      <path
         sodipodi:nodetypes="ccccc"
         id="path12181"
         d="m -28.7422,-33.15413 v 5 c 18.33338,0 36.66662,0 55,0 v -5 c -18.33338,0 -36.66662,0 -55,0 z"
         inkscape:connector-curvature="0"
         class="yellow" />
      <path
         sodipodi:nodetypes="ccccc"
         id="path12183"
         d="m -65.7422,-33.15413 v 5 c 11.33371,0 22.6663,0 34,0 v -5 c -11.3337,0 -22.66629,0 -34,0 z"
         inkscape:connector-curvature="0"
         class="red" />
    </g>
    <text
       transform="scale(0.90339875,1.1069309)"
       id="site-slogan"
       y="125.68504"
       x="0.0040669749"
       style="font-style:normal;font-variant:normal;font-weight:normal;font-stretch:normal;line-height:0%;font-family:'Arial Narrow';-inkscape-font-specification:'Arial Narrow';letter-spacing:0px;word-spacing:0px;fill-opacity:1;stroke:none"
       xml:space="preserve"><tspan
         y="125.68504"
         x="0.0040669749"
         id="tspan3717"
         sodipodi:role="line"
         style="font-size:15.9119px;line-height:1.25;fill-opacity:1">font:  Arial Narrow, convert to path</tspan></text>
  </g>
</svg>
