<svg xmlns="http://www.w3.org/2000/svg" width="179" height="138" viewBox="0 0 179 138">
  <g fill="none" fill-rule="evenodd" transform="translate(-1 -12)">
    <path fill="#06F" fill-rule="nonzero" d="M171,35 L171,41.41101 C172.19571,41.855348 173.20515,42.471493 173.99122,43.172218 L174.01672,35 L171,35 Z M175,35 L175,43.312003 L176,42.473327 L176,35 L175,35 Z M177,35 L177,41.606702 L178,40.62824 L178,52.39764 L177,51.39123 L177.0383,104 L179,104 L179,35 L177,35 Z M175,49.685929 L175,104 L176,104 L176,50.524594 L175,49.685929 Z M174,49.825703 C173.21402,50.527654 172.20431,51.13894 171,51.586923 L171.008,104 L174.008,104 L174,49.825703 Z"/>
    <path fill="#0CF" fill-rule="nonzero" d="M155,35 L155,104 L158,104 L158,50.189128 C156.67638,49.174323 155.87538,47.917706 155.87538,46.526913 C155.87538,45.136132 156.67638,43.851557 158,42.836752 L158,35 L155,35 Z M159,35 L159,42.193768 C160.12603,41.550771 161.49599,41.065053 163.02565,40.795973 L163,35 L159,35 Z M164,35 L163.92,40.62824 C164.24965,40.5918 164.58619,40.58859 164.92641,40.57239 L165,35.000057 C164.64847,35.000103 164.35153,35 164,35 Z M166,35 L166,40.544374 C166.68266,40.552674 167.34304,40.625344 167.9849,40.712107 L168,35 L166,35 Z M159,50.860072 L159,104 L163,104 L163,52.229907 C161.41324,51.961077 160.12549,51.502175 159,50.860072 Z M168,52.341721 C167.35923,52.429251 166.69651,52.473373 166.0151,52.481506 L166,104 L168,104 L168,52.341721 Z M164,52.397691 L164,104 L165,104 L165.006,52.453598 C164.66578,52.437278 164.32924,52.434188 163.99959,52.397691 L164,52.397691 Z"/>
    <polygon fill="#00D400" fill-rule="nonzero" points="151 35.012 151 104 152 104 152 35.012"/>
    <polygon fill="#00D400" fill-rule="nonzero" points="147 35.012 147 104 150 104 150 35.012"/>
    <polygon fill="#00D400" fill-rule="nonzero" points="144 35.012 144 104 146 104 146 35.012"/>
    <polygon fill="#00D400" fill-rule="nonzero" points="142 35.012 142 104 143 104 143 35.012"/>
    <polygon fill="#00D400" fill-rule="nonzero" points="136 33 136 104 139 104 139 35"/>
    <polygon fill="#00D400" fill-rule="nonzero" points="133 35 133 104 135 104 135 35"/>
    <polygon fill="#00D400" fill-rule="nonzero" points="130 35 130 104 132 104 132 35"/>
    <polygon fill="#00D400" fill-rule="nonzero" points="126 35 126 104 127 104 127 35"/>
    <polygon fill="#00D400" fill-rule="nonzero" points="122 35 122 104 123 104 123 35"/>
    <polygon fill="#00D400" fill-rule="nonzero" points="117 35 117 104 119 104 119 35"/>
    <polygon fill="#00D400" fill-rule="nonzero" points="113 35 113 104 114 104 114 35"/>
    <polygon fill="#00D400" fill-rule="nonzero" points="111 35 111 104 112 104 112 35"/>
    <polygon fill="#00D400" fill-rule="nonzero" points="109 35 109 104 110 104 110 35"/>
    <polygon fill="#00D400" fill-rule="nonzero" points="104 35 104 104 106 104 106 35"/>
    <polygon fill="#00D400" fill-rule="nonzero" points="100 35 100 104 101 104 101 35"/>
    <polygon fill="#00D400" fill-rule="nonzero" points="95.983 35.012 96 104 97 104 96.983 35.012"/>
    <polygon fill="#FC0" fill-rule="nonzero" points="91 30 91 104 93 104 93 30"/>
    <polygon fill="#FC0" fill-rule="nonzero" points="89 35 89 104 90 104 90 35"/>
    <polygon fill="#FC0" fill-rule="nonzero" points="86 19 86 104 88 104 88 19"/>
    <polygon fill="#FC0" fill-rule="nonzero" points="82 35 82 104 85 104 85 35"/>
    <polygon fill="#FC0" fill-rule="nonzero" points="78 35 78 104 79 104 79 35"/>
    <polygon fill="#FC0" fill-rule="nonzero" points="75 29 75 104 77 104 77 29"/>
    <polygon fill="#FC0" fill-rule="nonzero" points="71 35 71 104 74 104 74 35"/>
    <polygon fill="#FC0" fill-rule="nonzero" points="67 35 67 104 68 104 68 35"/>
    <polygon fill="#FC0" fill-rule="nonzero" points="65 35 65 104 66 104 66 35"/>
    <polygon fill="#FC0" fill-rule="nonzero" points="59.974 34.917 60 104 62 104 61.973 34.917"/>
    <polygon fill="#FC0" fill-rule="nonzero" points="56 24 56 104 57 104 57 24"/>
    <polygon fill="#FC0" fill-rule="nonzero" points="53 35 53 104 55 104 55 35"/>
    <polygon fill="#FC0" fill-rule="nonzero" points="47 35 47 104 50 104 50 35"/>
    <polygon fill="#FC0" fill-rule="nonzero" points="45 35 45 104 46 104 46 35"/>
    <polygon fill="#FC0" fill-rule="nonzero" points="41 35 41 104 42 104 42 35"/>
    <polygon fill="#FC0" fill-rule="nonzero" points="38 35 38 104 40 104 40 35"/>
    <polygon fill="red" fill-rule="nonzero" points="34 29 34 104 35 104 35 29"/>
    <polygon fill="red" fill-rule="nonzero" points="31 28 31 104 33 104 33 28"/>
    <polygon fill="red" fill-rule="nonzero" points="27 35 27 104 30 104 30 35"/>
    <polygon fill="red" fill-rule="nonzero" points="23 35 23 104 26 104 26 35"/>
    <polygon fill="red" fill-rule="nonzero" points="20 29 20 104 22 104 22 29"/>
    <polygon fill="red" fill-rule="nonzero" points="16 30 16 104 19 104 19 30"/>
    <polygon fill="red" fill-rule="nonzero" points="12 35 12 104 13 104 13 35"/>
    <polygon fill="red" fill-rule="nonzero" points="9 35 9 104 10 104 10 35"/>
    <polygon fill="red" fill-rule="nonzero" points="3.999 34.917 3.999 104 4.998 104 4.998 34.917"/>
    <polygon fill="red" fill-rule="nonzero" points="1 34.917 1 104 2.999 104 2.999 34.917"/>
    <path fill="red" fill-rule="nonzero" d="M13.96037,29.168037 C14.59009,28.352461 14.679493,26.491883 15.241779,24.809194 C15.647084,23.596268 15.705312,20.212207 16.45043,19.926765 C17.41877,19.555814 19.620031,19.568686 20.674418,19.510136 C22.974477,19.382437 25.193349,20.608795 27.496957,20.611272 C30.48781,20.614872 36.357965,19.200676 36.357965,19.200676 L36.217846,17.1618501 L37.723453,17.4399087 L41.800403,16.9230038 L38.791999,18.3091409 C38.791999,18.3091409 39.993863,18.2880639 40.480021,18.585973 C41.185069,19.018082 41.440015,19.93335 41.948941,20.585135 C42.240908,20.959063 43.031418,21.239515 42.857278,21.680806 C42.387434,22.871417 39.048301,22.16675 39.048301,22.16675 L37.129565,23.970076 C36.296556,25.749063 34.868195,27.231915 34.875969,30.692459 C34.875969,30.692459 28.869078,29.769451 25.884786,29.895829 C24.120779,29.970489 20.915812,30.513902 20.915812,30.513902 C19.307094,30.376712 17.61931,29.984839 16.010593,30.264362 C16.020093,24.028877 16.877276,24.1355 16.709353,20.969541 C16.27017,22.649527 15.738297,25.486092 15.68251,26.742005 C15.147754,28.267809 15.6706,28.641677 13.96037,29.168037 Z"/>
    <g fill="#FC0" fill-rule="nonzero" transform="rotate(-37.642 59.283 -68.62)">
      <ellipse cx="1.227" cy="2.055" rx="1.235" ry="1" transform="rotate(-54.359 1.227 2.055)"/>
      <path d="M1.41475845,1.10210307 C1.41475845,1.10210307 1.68553053,1.05857812 1.80401847,0.994721125 C2.21909324,0.771023775 2.81072523,0.00143701346 2.81072523,0.00143701346 C2.81072523,0.00143701346 2.18793126,0.812092819 2.05905087,1.22290766 C2.02011902,1.34700572 2.03220538,1.61216768 2.03220538,1.61216768 L1.41475845,1.10210307 Z"/>
    </g>
    <g fill="#FC0" fill-rule="nonzero" transform="translate(52.624 21.199)">
      <g transform="translate(3.09 .133)">
        <g transform="translate(.842 6.155)">
          <ellipse cx="1.227" cy="2.055" rx="1.235" ry="1" transform="rotate(-54.359 1.227 2.055)"/>
          <path d="M1.41475889,1.10210341 C1.41475889,1.10210341 1.68553106,1.05857845 1.80401903,0.994721434 C2.21909393,0.771024014 2.8107261,0.00143701391 2.8107261,0.00143701391 C2.8107261,0.00143701391 2.18793194,0.812093071 2.05905151,1.22290804 C2.02011965,1.34700614 2.03220601,1.61216818 2.03220601,1.61216818 L1.41475889,1.10210341 Z"/>
        </g>
        <g transform="translate(.842 7.947)">
          <ellipse cx="1.227" cy="2.055" rx="1.235" ry="1" transform="rotate(-54.359 1.227 2.055)"/>
          <path d="M1.41475889,1.10210341 C1.41475889,1.10210341 1.68553106,1.05857845 1.80401903,0.994721434 C2.21909393,0.771024014 2.8107261,0.00143701391 2.8107261,0.00143701391 C2.8107261,0.00143701391 2.18793194,0.812093071 2.05905151,1.22290804 C2.02011965,1.34700614 2.03220601,1.61216818 2.03220601,1.61216818 L1.41475889,1.10210341 Z"/>
        </g>
        <g transform="translate(.842 4.363)">
          <ellipse cx="1.227" cy="2.055" rx="1.235" ry="1" transform="rotate(-54.359 1.227 2.055)"/>
          <path d="M1.41475889,1.10210341 C1.41475889,1.10210341 1.68553106,1.05857845 1.80401903,0.994721434 C2.21909393,0.771024014 2.8107261,0.00143701391 2.8107261,0.00143701391 C2.8107261,0.00143701391 2.18793194,0.812093071 2.05905151,1.22290804 C2.02011965,1.34700614 2.03220601,1.61216818 2.03220601,1.61216818 L1.41475889,1.10210341 Z"/>
        </g>
        <g transform="translate(.842 2.57)">
          <ellipse cx="1.227" cy="2.055" rx="1.235" ry="1" transform="rotate(-54.359 1.227 2.055)"/>
          <path d="M1.41475889,1.10210341 C1.41475889,1.10210341 1.68553106,1.05857845 1.80401903,0.994721434 C2.21909393,0.771024014 2.8107261,0.00143701391 2.8107261,0.00143701391 C2.8107261,0.00143701391 2.18793194,0.812093071 2.05905151,1.22290804 C2.02011965,1.34700614 2.03220601,1.61216818 2.03220601,1.61216818 L1.41475889,1.10210341 Z"/>
        </g>
        <g transform="rotate(-10.674 5.537 -1.47)">
          <ellipse cx="1.227" cy="2.055" rx="1.235" ry="1" transform="rotate(-54.359 1.227 2.055)"/>
          <path d="M1.4147585,1.10210311 C1.4147585,1.10210311 1.6855306,1.05857816 1.80401854,0.994721164 C2.21909332,0.771023805 2.81072534,0.00143701352 2.81072534,0.00143701352 C2.81072534,0.00143701352 2.18793135,0.812092851 2.05905095,1.22290771 C2.0201191,1.34700577 2.03220546,1.61216774 2.03220546,1.61216774 L1.4147585,1.10210311 Z"/>
        </g>
      </g>
      <g transform="translate(.668 .133)">
        <g transform="matrix(-1 0 0 1 3.102 6.155)">
          <ellipse cx="1.227" cy="2.055" rx="1.235" ry="1" transform="rotate(-54.359 1.227 2.055)"/>
          <path d="M1.41475889,1.10210341 C1.41475889,1.10210341 1.68553106,1.05857845 1.80401903,0.994721434 C2.21909393,0.771024014 2.8107261,0.00143701391 2.8107261,0.00143701391 C2.8107261,0.00143701391 2.18793194,0.812093071 2.05905151,1.22290804 C2.02011965,1.34700614 2.03220601,1.61216818 2.03220601,1.61216818 L1.41475889,1.10210341 Z"/>
        </g>
        <g transform="matrix(-1 0 0 1 3.102 7.947)">
          <ellipse cx="1.227" cy="2.055" rx="1.235" ry="1" transform="rotate(-54.359 1.227 2.055)"/>
          <path d="M1.41475889,1.10210341 C1.41475889,1.10210341 1.68553106,1.05857845 1.80401903,0.994721434 C2.21909393,0.771024014 2.8107261,0.00143701391 2.8107261,0.00143701391 C2.8107261,0.00143701391 2.18793194,0.812093071 2.05905151,1.22290804 C2.02011965,1.34700614 2.03220601,1.61216818 2.03220601,1.61216818 L1.41475889,1.10210341 Z"/>
        </g>
        <g transform="matrix(-1 0 0 1 3.102 4.363)">
          <ellipse cx="1.227" cy="2.055" rx="1.235" ry="1" transform="rotate(-54.359 1.227 2.055)"/>
          <path d="M1.41475889,1.10210341 C1.41475889,1.10210341 1.68553106,1.05857845 1.80401903,0.994721434 C2.21909393,0.771024014 2.8107261,0.00143701391 2.8107261,0.00143701391 C2.8107261,0.00143701391 2.18793194,0.812093071 2.05905151,1.22290804 C2.02011965,1.34700614 2.03220601,1.61216818 2.03220601,1.61216818 L1.41475889,1.10210341 Z"/>
        </g>
        <g transform="matrix(-1 0 0 1 3.102 2.57)">
          <ellipse cx="1.227" cy="2.055" rx="1.235" ry="1" transform="rotate(-54.359 1.227 2.055)"/>
          <path d="M1.41475889,1.10210341 C1.41475889,1.10210341 1.68553106,1.05857845 1.80401903,0.994721434 C2.21909393,0.771024014 2.8107261,0.00143701391 2.8107261,0.00143701391 C2.8107261,0.00143701391 2.18793194,0.812093071 2.05905151,1.22290804 C2.02011965,1.34700614 2.03220601,1.61216818 2.03220601,1.61216818 L1.41475889,1.10210341 Z"/>
        </g>
        <g transform="scale(-1 1) rotate(-10.674 3.566 19.638)">
          <ellipse cx="1.227" cy="2.055" rx="1.235" ry="1" transform="rotate(-54.359 1.227 2.055)"/>
          <path d="M1.4147585,1.10210311 C1.4147585,1.10210311 1.6855306,1.05857816 1.80401854,0.994721164 C2.21909332,0.771023805 2.81072534,0.00143701352 2.81072534,0.00143701352 C2.81072534,0.00143701352 2.18793135,0.812092851 2.05905095,1.22290771 C2.0201191,1.34700577 2.03220546,1.61216774 2.03220546,1.61216774 L1.4147585,1.10210311 Z"/>
        </g>
      </g>
    </g>
    <g fill="#FC0" fill-rule="nonzero" transform="rotate(-48.948 72.218 -79.064)">
      <circle cx="7.024" cy="7.476" r="1.848"/>
      <circle cx="7.504" cy="4.441" r="1.848" transform="rotate(-72 7.504 4.441)"/>
      <circle cx="4.766" cy="3.046" r="1.848" transform="rotate(-144 4.766 3.046)"/>
      <circle cx="2.594" cy="5.219" r="1.848" transform="rotate(144 2.594 5.219)"/>
      <circle cx="3.989" cy="7.957" r="1.848" transform="rotate(72 3.989 7.957)"/>
    </g>
    <g fill="#FC0" fill-rule="nonzero" transform="rotate(-151.408 47.443 .913)">
      <circle cx="7.024" cy="7.476" r="1.848"/>
      <circle cx="7.504" cy="4.441" r="1.848" transform="rotate(-72 7.504 4.441)"/>
      <circle cx="4.766" cy="3.046" r="1.848" transform="rotate(-144 4.766 3.046)"/>
      <circle cx="2.594" cy="5.219" r="1.848" transform="rotate(144 2.594 5.219)"/>
      <circle cx="3.989" cy="7.957" r="1.848" transform="rotate(72 3.989 7.957)"/>
    </g>
    <g fill="#FC0" fill-rule="nonzero" transform="rotate(-64.825 56.944 -39.981)">
      <circle cx="7.024" cy="7.476" r="1.848"/>
      <circle cx="7.504" cy="4.441" r="1.848" transform="rotate(-72 7.504 4.441)"/>
      <circle cx="4.766" cy="3.046" r="1.848" transform="rotate(-144 4.766 3.046)"/>
      <circle cx="2.594" cy="5.219" r="1.848" transform="rotate(144 2.594 5.219)"/>
      <circle cx="3.989" cy="7.957" r="1.848" transform="rotate(72 3.989 7.957)"/>
    </g>
    <path fill="#00D400" fill-rule="nonzero" d="M123.44657,15.3372804 C132.63587,16.2870331 136.07702,23.767884 136,37 L138.96392,35.601391 C138.96392,34.139496 138.93842,34.35203 138.93842,32.890147 C138.93842,22.02325 132.53444,15.61547 128.0266,14.546568 L123.44657,15.3372804 Z"/>
    <g fill-rule="nonzero" transform="translate(109.294 12.197)">
      <path fill="#00D400" d="M1.00088042,18.5156078 C9.93647692,15.9597853 21.0043275,15.467468 19.0620298,2.38466142 C1.94728951,-5.66985758 7.71575728,9.45162934 1.00088042,18.5156078 Z"/>
      <path fill="#FFF" d="M20.1360426,1.02743172 C15.6900141,7.16787719 6.00505886,16.2035868 0.0520291066,18.8974797 C6.02938265,16.6743625 17.631775,7.56806117 20.1360426,1.02743172 Z"/>
    </g>
    <g fill-rule="nonzero" transform="scale(-1 1) rotate(-3.091 146.539 2932.321)">
      <path fill="#00D400" d="M1.00088042,18.5156078 C9.93647691,15.9597853 21.0043274,15.4674679 19.0620297,2.38466142 C1.17144213,-4.09926023 7.71575727,9.45162933 1.00088042,18.5156078 Z"/>
      <path fill="#FFF" d="M20.1360425,1.02743172 C15.690014,7.16787718 6.00505885,16.2035868 0.0520291066,18.8974796 C6.02938264,16.6743625 17.631775,7.56806116 20.1360425,1.02743172 Z"/>
    </g>
    <path fill="#00D400" fill-rule="nonzero" d="M138.87818,13.6040196 C136.88514,15.1688092 136.07702,23.767884 136,37 L138.96392,35.601391 C138.96392,34.139496 139.00002,37.461883 139.00002,36 C139.00002,25.133103 139.85888,16.6777988 140.21538,14.8820341 L138.87818,13.6040196 Z"/>
    <circle cx="160.092" cy="44.276" r="1" fill="#0CF" fill-rule="nonzero"/>
    <g fill-rule="nonzero" transform="translate(.322 126.153)">
      <path fill="#06F" d="M170.677591,0.846823807 L170.677591,5.84682381 C173.343278,5.84682381 176.011828,5.84682381 178.677515,5.84682381 L178.677515,0.846823807 C176.011828,0.846823807 173.343278,0.846823807 170.677681,0.846823807 L170.677591,0.846823807 Z"/>
      <path fill="#0CF" d="M154.677565,0.846823807 L154.677565,5.84682381 C159.011633,5.84682381 163.343463,5.84682381 167.67753,5.84682381 L167.67753,0.846823807 C163.343463,0.846823807 159.011633,0.846823807 154.677565,0.846823807 Z"/>
      <path fill="#00D400" d="M95.6775478,0.846823807 L95.6775478,5.84682381 C114.337149,5.84682381 133.017966,5.84682381 151.677594,5.84682381 L151.677594,0.846823807 C133.017966,0.846823807 114.337149,0.846823807 95.6775478,0.846823807 Z"/>
      <path fill="#FC0" d="M37.6775477,0.846823807 L37.6775477,5.84682381 C56.0109354,5.84682381 74.3441709,5.84682381 92.6775477,5.84682381 L92.6775477,0.846823807 C74.3441709,0.846823807 56.0109354,0.846823807 37.6775477,0.846823807 Z"/>
      <path fill="red" d="M0.677552576,0.846823807 L0.677552576,5.84682381 C12.0112577,5.84682381 23.3438534,5.84682381 34.6775526,5.84682381 L34.6775526,0.846823807 C23.3438534,0.846823807 12.0112577,0.846823807 0.677552576,0.846823807 Z"/>
    </g>
    <g fill="#333" fill-rule="nonzero" transform="translate(1 106.638)">
      <path d="M.29533203 9.18406C.29533203 6.38833.91039384 4.239337 2.1405221 2.737078 3.3706449 1.234848 4.9027103.483709 6.736723.483709 7.9221092.483709 9.0031286.819215 9.9797844 1.490177 10.956419 2.16117 11.729907 3.135951 12.300251 4.414523 12.870569 5.69312 13.155748 7.21587 13.155748 8.98277 13.155748 11.4132 12.604041 13.39259 11.500668 14.92092 10.285441 16.60583 8.6937334 17.44828 6.72554 17.44828 4.7424212 17.44828 3.1469857 16.58346 1.9392287 14.85383.84329608 13.28821.29533203 11.39829.29533203 9.18406zM2.1293392 9.21756C2.1293392 11.23796 2.5747909 12.80543 3.4657041 13.92 4.3566091 15.03457 5.4394923 15.59185 6.714357 15.59185 8.0190282 15.59185 9.1130944 15.02898 9.9965588 13.90322 10.880002 12.77748 11.321741 11.1224 11.321741 8.93798 11.321741 7.52894 11.094342 6.26899 10.63958 5.15814 10.289169 4.308298 9.761706 3.628001 9.0571893 3.117299 8.3526532 2.606624 7.5828928 2.351265 6.7479059 2.351265 5.4059434 2.351265 4.3006943 2.910428 3.4321552 4.028711 2.563608 5.14702 2.1293392 6.87665 2.1293392 9.21761L2.1293392 9.21756zM15 17.362183L15 .362183 19.674837.362183C20.899004.362183 21.801832.469314 22.383324.683529 23.179028.974286 23.814068 1.513688 24.288446 2.301735 24.762803 3.089812 25 4.057676 25 5.20533 25 6.72025 24.613608 7.9559 23.840858 8.91228 23.068087 9.86868 21.732946 10.33661 19.83551 10.34686L17 10.362183 17 17.362183 15 17.362183zM17 8.36218L19.86994 8.36141C20.994643 8.36111 21.817135 8.10702 22.337417 7.59821 22.857682 7.08942 23.117829 6.3224 23.117829 5.29714 23.117829 4.631508 22.989663 4.061502 22.733362 3.587118 22.477041 3.112765 22.167172 2.787594 21.803754 2.611604 21.440319 2.435644 20.784238 2.347641 19.83551 2.347641L17 2.362183 17 8.36218z"/>
      <polygon points="27 17.362 27 .362 37 .362 37 2.362 29 2.362 29 7.362 36 7.362 36 9.362 29 9.362 29 15.362 37 15.362 37 17.362"/>
      <polygon points="39 17.362 39 .362 41 .362 48 13.362 48 .362 50 .362 50 17.362 48 17.362 41 4.362 41 17.362"/>
      <polygon points="58 17.362 58 .362 67 .362 67 2.362 60 2.362 60 7.362 66 7.362 66 9.362 60 9.362 60 17.362"/>
      <path d="M68.255995 9.18406C68.255995 6.38833 68.871057 4.239337 70.101185 2.737078 71.331308 1.234848 72.863373.483709 74.697386.483709 75.882772.483709 76.963791.819215 77.940447 1.490177 78.917082 2.16117 79.69057 3.135951 80.260914 4.414523 80.831232 5.69312 81.116411 7.21587 81.116411 8.98277 81.116411 11.4132 80.564704 13.39259 79.461331 14.92092 78.246104 16.60583 76.654396 17.44828 74.686203 17.44828 72.703084 17.44828 71.107649 16.58346 69.899892 14.85383 68.803959 13.28821 68.255995 11.39829 68.255995 9.18406zM70.090002 9.21756C70.090002 11.23796 70.535454 12.80543 71.426367 13.92 72.317272 15.03457 73.400155 15.59185 74.67502 15.59185 75.979691 15.59185 77.073757 15.02898 77.957222 13.90322 78.840665 12.77748 79.282404 11.1224 79.282404 8.93798 79.282404 7.52894 79.055005 6.26899 78.600242 5.15814 78.249832 4.308248 77.722369 3.627951 77.017852 3.117249 76.313316 2.606574 75.543556 2.351215 74.708569 2.351215 73.366606 2.351215 72.261357 2.910378 71.392818 4.028661 70.524271 5.14697 70.090002 6.8766 70.090002 9.21756zM82.883322 9.18406C82.883322 6.38833 83.498384 4.239337 84.728512 2.737078 85.958635 1.234848 87.4907.483709 89.324713.483709 90.510099.483709 91.591118.819215 92.567774 1.490177 93.544409 2.16117 94.317897 3.135951 94.888241 4.414523 95.458558 5.69312 95.743738 7.21587 95.743738 8.98277 95.743738 11.4132 95.192031 13.39259 94.088658 14.92092 92.873431 16.60583 91.281723 17.44828 89.31353 17.44828 87.330411 17.44828 85.734975 16.58346 84.527218 14.85383 83.431286 13.28821 82.883322 11.39829 82.883322 9.18406zM84.717329 9.21756C84.717329 11.23796 85.162781 12.80543 86.053694 13.92 86.944599 15.03457 88.027482 15.59185 89.302347 15.59185 90.607018 15.59185 91.701084 15.02898 92.584549 13.90322 93.467992 12.77748 93.909731 11.1224 93.909731 8.93798 93.909731 7.52894 93.682332 6.26899 93.227569 5.15814 92.877159 4.308248 92.349696 3.627951 91.645179 3.117249 90.940643 2.606574 90.170883 2.351215 89.335896 2.351215 87.993933 2.351215 86.888684 2.910378 86.020145 4.028661 85.151598 5.14697 84.717329 6.8766 84.717329 9.21756zM98 17.362183L98 .362183 103 .362183C104.21266.362183 105.00501.536459 105.63497.744862 106.46179 1.015051 107.17836 1.464438 107.78471 2.182311 108.39104 2.900214 108.86351 3.805293 109.20212 4.897544 109.54071 5.98983 109.71002 7.28473 109.71002 8.78225 109.71002 10.70435 109.42259 12.33503 108.84777 13.67432 108.27292 15.0136 107.53468 15.96307 106.63306 16.52272 105.73143 17.08236 104.45678 17.362183 103 17.362183L98 17.362183zM100 15.362183L103 15.362183C104.22054 15.362183 105.01682 15.16427 105.64678 14.77445 106.27674 14.38463 106.76102 13.75744 107.09963 12.89288 107.54846 11.74273 107.7729 10.36485 107.7729 8.75923 107.7729 7.03786 107.53468 5.68507 107.05829 4.700858 106.58187 3.716665 105.96963 3.058601 105.22156 2.72666 104.71759 2.502677 104.09454 2.362183 103 2.362183L100 2.362183 100 15.362183z"/>
      <polygon points="118 17.362 118.076 .362 127.076 .362 127.076 2.362 120.076 2.362 120.076 7.362 126.076 7.362 126.076 9.362 120.076 9.362 120.076 17.362"/>
      <polygon points="128.076 17.362 133.076 .362 135.076 .362 140.076 17.362 138.076 17.362 134.076 2.362 130.035 17.362"/>
      <path d="M151.36137,11.42065 L153.15064,11.96862 C152.7555,13.81009 152.06402,15.18373 151.0762,16.08954 C150.08836,16.99537 148.88619,17.44828 147.46969,17.44828 C146.22465,17.44828 145.1604,17.14447 144.27696,16.53686 C143.3935,15.92926 142.67033,14.95448 142.10746,13.61252 C141.54458,12.27057 141.26314,10.68631 141.26314,8.85975 C141.26314,7.05558 141.54458,5.5291 142.10746,4.280328 C142.67033,3.031577 143.43264,2.088481 144.39438,1.451036 C145.35611,0.813623 146.42967,0.494892 147.61507,0.494892 C148.91229,0.494892 150.02686,0.899359 150.95878,1.708245 C151.89068,2.517161 152.54302,3.704418 152.9158,5.27002 L151.17126,5.77325 C150.57482,3.491942 149.37824,2.35128 147.58152,2.351265 C146.68688,2.35128 145.91153,2.580531 145.25547,3.039018 C144.59939,3.497534 144.07566,4.211379 143.68426,5.18056 C143.29285,6.14976 143.09715,7.37616 143.09715,8.85975 C143.09715,11.10381 143.49228,12.78684 144.28255,13.90887 C145.07281,15.03089 146.124,15.5919 147.43614,15.5919 C148.40533,15.5919 149.24219,15.2471 149.94672,14.55748 C150.65124,13.86786 151.12279,12.82226 151.36137,11.42065 L151.36137,11.42065 Z"/>
      <polygon points="159 17.362 159 2.362 154 2.368 154 .362 166 .362 166 2.362 161 2.362 161 17.362"/>
      <path d="M167.26826,11.90152 L168.94571,11.72259 C169.03521,12.62469 169.23833,13.32735 169.55518,13.83058 C169.87203,14.33382 170.32494,14.73827 170.91391,15.04394 C171.50288,15.34961 172.1664,15.50244 172.90448,15.50244 C173.96313,15.50244 174.78507,15.24337 175.37033,14.72522 C175.95556,14.20708 176.24818,13.53424 176.24819,12.7067 C176.24818,12.22211 176.14194,11.79902 175.92947,11.43743 C175.71699,11.07585 175.39641,10.7795 174.96774,10.54838 C174.53905,10.31727 173.61273,9.99297 172.18877,9.57546 C170.92136,9.20271 170.01927,8.82621 169.48249,8.44598 C168.94571,8.06577 168.52821,7.58304 168.23,6.99779 C167.93178,6.41256 167.78268,5.7509 167.78268,5.01281 C167.78268,3.68578 168.21136,2.601033 169.06872,1.758568 C169.92608,0.916134 171.08165,0.494892 172.53544,0.494892 C173.53445,0.494892 174.40858,0.692475 175.15785,1.08759 C175.9071,1.482737 176.48861,2.04934 176.90239,2.787401 C177.31615,3.525491 177.53795,4.394034 177.56778,5.39303 L175.85678,5.54959 C175.76728,4.483498 175.4486,3.693235 174.90064,3.178805 C174.35267,2.664403 173.58291,2.407195 172.59136,2.40718 C171.58488,2.407195 170.81699,2.632718 170.28767,3.08375 C169.75833,3.53481 169.49367,4.118188 169.49367,4.833885 C169.49367,5.49742 169.68751,6.01184 170.07519,6.37713 C170.46286,6.74246 171.33513,7.11149 172.692,7.48425 C174.01904,7.84957 174.95096,8.16642 175.48775,8.4348 C176.30782,8.85231 176.92661,9.40214 177.34412,10.08429 C177.76161,10.76646 177.97037,11.58095 177.97037,12.52777 C177.97037,13.46714 177.75042,14.32264 177.31057,15.09426 C176.8707,15.86589 176.27241,16.45299 175.5157,16.85558 C174.75898,17.25816 173.84757,17.45946 172.78147,17.45946 C171.11893,17.45946 169.79375,16.95995 168.80592,15.96094 C167.81809,14.96193 167.30554,13.60879 167.26826,11.90152 L167.26826,11.90152 Z"/>
      <polygon points="137.076 10.362 137.076 12.362 131.076 12.362 131.076 10.362"/>
    </g>
    <path fill="#333" fill-rule="nonzero" d="M2.32861328,14.4928527 L2.32861328,0.892266762 L0.96484375,0.892266762 L0.96484375,14.4928527 L2.32861328,14.4928527 Z M6.32617188,2.81267692 L6.32617188,0.892266762 L4.96240234,0.892266762 L4.96240234,2.81267692 L6.32617188,2.81267692 Z M6.32617188,14.4928527 L6.32617188,4.64031364 L4.96240234,4.64031364 L4.96240234,14.4928527 L6.32617188,14.4928527 Z M12.4204102,14.7155089 C13.3543294,14.7155089 14.1707357,14.2624653 14.8696289,13.3563781 C15.5685221,12.4502909 15.9179688,11.1622863 15.9179688,9.49236442 C15.9179688,8.39763786 15.7633464,7.46681103 15.4541016,6.69988395 C15.1448568,5.93295687 14.732015,5.360854 14.2155762,4.98357536 C13.6991374,4.60629671 13.1254883,4.41765739 12.4946289,4.41765739 C12.0431315,4.41765739 11.6333822,4.52743929 11.2653809,4.74700309 C10.8973796,4.96656689 10.5680339,5.29900504 10.2773438,5.74431754 L10.2773438,5.74431754 L10.2773438,0.892266762 L8.91357422,0.892266762 L8.91357422,14.4928527 L10.1845703,14.4928527 L10.1845703,13.258966 C10.4567057,13.7413879 10.7798665,14.1047505 11.1540527,14.3490539 C11.5282389,14.5933573 11.9503581,14.7155089 12.4204102,14.7155089 Z M12.3647461,13.3424621 C11.9503581,13.3424621 11.5730794,13.2094868 11.2329102,12.9435363 C10.8927409,12.6775858 10.6298828,12.2910298 10.4443359,11.7838683 C10.2587891,11.2767069 10.1660156,10.5128722 10.1660156,9.49236442 C10.1660156,8.29249463 10.3871257,7.37558382 10.8293457,6.741632 C11.2715658,6.10768017 11.7740885,5.79070426 12.3369141,5.79070426 C12.9492188,5.79070426 13.4656576,6.09376416 13.8862305,6.69988395 C14.3068034,7.30600374 14.5170898,8.25538525 14.5170898,9.54802848 C14.5170898,10.8097472 14.2990723,11.7575825 13.8630371,12.3915343 C13.427002,13.0254862 12.9275716,13.3424621 12.3647461,13.3424621 Z M19.4516602,14.4928527 L19.4516602,9.33464957 C19.4516602,8.61720166 19.5382487,7.93995556 19.7114258,7.30291129 C19.8103841,6.93800244 19.9804688,6.65349723 20.2216797,6.44939567 C20.4628906,6.24529411 20.7288411,6.14324332 21.0195312,6.14324332 C21.3411458,6.14324332 21.6720378,6.26384879 22.012207,6.50505973 L22.012207,6.50505973 L22.4760742,4.95574332 C21.9998372,4.59701937 21.5328776,4.41765739 21.0751953,4.41765739 C20.7473958,4.41765739 20.4520671,4.53053174 20.189209,4.75628043 C19.9263509,4.98202913 19.637207,5.44125765 19.3217773,6.13396598 L19.3217773,6.13396598 L19.3217773,4.64031364 L18.0878906,4.64031364 L18.0878906,14.4928527 L19.4516602,14.4928527 Z M27.1508789,14.7155089 C28.0600586,14.7155089 28.822347,14.4480122 29.4377441,13.9130187 C30.0531413,13.3780252 30.4783529,12.5848123 30.7133789,11.53338 L30.7133789,11.53338 L29.3032227,11.3200011 C28.9012044,12.6683084 28.186849,13.3424621 27.1601562,13.3424621 C26.5045573,13.3424621 25.9479167,13.0610493 25.4902344,12.4982238 C25.0325521,11.9353983 24.7758789,11.1004373 24.7202148,9.99334098 L24.7202148,9.99334098 L30.7504883,9.99334098 L30.7597656,9.54802848 C30.7597656,7.8842915 30.410319,6.61329541 29.7114258,5.7350402 C29.0125326,4.85678499 28.1404622,4.41765739 27.0952148,4.41765739 C26.0004883,4.41765739 25.0959473,4.86451611 24.3815918,5.75823356 C23.6672363,6.65195101 23.3100586,7.94923291 23.3100586,9.65007926 C23.3100586,11.2890767 23.6641439,12.5430643 24.3723145,13.4120422 C25.080485,14.28102 26.0066732,14.7155089 27.1508789,14.7155089 Z M29.3125,8.62029411 L24.8037109,8.62029411 C24.8470052,7.75440869 25.0851237,7.06633903 25.5180664,6.55608512 C25.9510091,6.04583122 26.4736328,5.79070426 27.0859375,5.79070426 C27.766276,5.79070426 28.3260091,6.09685661 28.7651367,6.70916129 C29.0681966,7.12973421 29.250651,7.76677848 29.3125,8.62029411 L29.3125,8.62029411 Z M36.6313477,10.4108214 L36.6313477,8.73162223 L32.4287109,8.73162223 L32.4287109,10.4108214 L36.6313477,10.4108214 Z M40.3691406,14.4928527 L40.3691406,5.93914176 L41.9462891,5.93914176 L41.9462891,4.64031364 L40.3691406,4.64031364 L40.3691406,3.73113395 C40.3691406,3.13119905 40.4572754,2.72454215 40.6335449,2.51116325 C40.8098145,2.29778434 41.1020508,2.19109489 41.5102539,2.19109489 C41.7638346,2.19109489 42.0328776,2.22201937 42.3173828,2.28386832 L42.3173828,2.28386832 L42.5214844,0.827325356 C42.0576172,0.715997231 41.6308594,0.660333169 41.2412109,0.660333169 C40.7402344,0.660333169 40.3243001,0.76238395 39.9934082,0.966485512 C39.6625163,1.17058707 39.4166667,1.46591585 39.2558594,1.85247184 C39.0950521,2.23902783 39.0146484,2.81886181 39.0146484,3.59197379 L39.0146484,3.59197379 L39.0146484,4.64031364 L37.7993164,4.64031364 L37.7993164,5.93914176 L39.0146484,5.93914176 L39.0146484,14.4928527 L40.3691406,14.4928527 Z M44.3388672,15.2257629 L45.1367188,13.9733214 C45.7552083,14.4681131 46.4510091,14.7155089 47.2241211,14.7155089 C48.355957,14.7155089 49.280599,14.2856587 49.9980469,13.4259582 C50.7154948,12.5662576 51.0742188,11.2797993 51.0742188,9.56658317 C51.0742188,8.7749165 51,8.07911572 50.8515625,7.47918082 C50.7340495,7.02149853 50.5113932,6.51742952 50.1835938,5.96697379 L50.1835938,5.96697379 L51,4.68670036 L50.2670898,4.03728629 L49.515625,5.22478629 C49.0950521,4.92791129 48.7115885,4.71917106 48.3652344,4.59856559 C48.0188802,4.47796012 47.6508789,4.41765739 47.2612305,4.41765739 C46.1788737,4.41765739 45.2820638,4.85678499 44.5708008,5.7350402 C43.8595378,6.61329541 43.5039062,7.93686312 43.5039062,9.70574332 C43.5039062,10.4726704 43.5966797,11.1993957 43.7822266,11.8859191 C43.8997396,12.3436014 44.1223958,12.8012837 44.4501953,13.258966 L44.4501953,13.258966 L43.6245117,14.5670714 L44.3388672,15.2257629 Z M45.3037109,11.8951964 C45.0377604,11.2643371 44.9047852,10.4757629 44.9047852,9.52947379 C44.9047852,8.29249463 45.138265,7.3616678 45.6052246,6.73699332 C46.0721842,6.11231885 46.6334635,5.79998161 47.2890625,5.79998161 C47.796224,5.79998161 48.2817383,6.01645296 48.7456055,6.44939567 L48.7456055,6.44939567 L45.3037109,11.8951964 Z M47.2426758,13.3424621 C46.7416992,13.3424621 46.2963867,13.1476379 45.9067383,12.7579894 L45.9067383,12.7579894 L49.3115234,7.34929801 C49.453776,7.75131624 49.5496419,8.1038553 49.5991211,8.4069152 C49.6486003,8.7099751 49.6733398,9.08725374 49.6733398,9.53875114 C49.6733398,10.8313944 49.4414062,11.788507 48.9775391,12.410089 C48.5136719,13.0316711 47.9353841,13.3424621 47.2426758,13.3424621 Z M56.5004883,14.7155089 C56.9519857,14.7155089 57.3725586,14.5902648 57.762207,14.3397765 C58.1518555,14.0892882 58.4703776,13.7259256 58.7177734,13.2496886 L58.7177734,13.2496886 L58.7177734,14.4928527 L59.9980469,14.4928527 L59.9980469,0.892266762 L58.625,0.892266762 L58.625,5.77214957 C58.3714193,5.34539176 58.0513509,5.01295361 57.6647949,4.77483512 C57.2782389,4.53671663 56.8592122,4.41765739 56.4077148,4.41765739 C55.7768555,4.41765739 55.2032064,4.60629671 54.6867676,4.98357536 C54.1703288,5.360854 53.757487,5.93914176 53.4482422,6.71843864 C53.1389974,7.49773551 52.984375,8.44711702 52.984375,9.56658317 C52.984375,11.1993957 53.3322754,12.4657531 54.0280762,13.3656554 C54.723877,14.2655578 55.5480143,14.7155089 56.5004883,14.7155089 Z M56.5932617,13.3424621 C56.0056966,13.3424621 55.490804,13.0332173 55.048584,12.4147277 C54.6063639,11.7962381 54.3852539,10.8499491 54.3852539,9.57586051 C54.3852539,8.27084749 54.5924479,7.31373486 55.0068359,6.70452262 C55.421224,6.09531038 55.9160156,5.79070426 56.4912109,5.79070426 C57.140625,5.79070426 57.6787109,6.10768017 58.1054688,6.741632 C58.5322266,7.37558382 58.7456055,8.38217562 58.7456055,9.76140739 C58.7456055,10.9612772 58.5322266,11.8580871 58.1054688,12.4518371 C57.6787109,13.0455871 57.1746419,13.3424621 56.5932617,13.3424621 Z M66.0180664,14.7155089 C66.9272461,14.7155089 67.6895345,14.4480122 68.3049316,13.9130187 C68.9203288,13.3780252 69.3455404,12.5848123 69.5805664,11.53338 L69.5805664,11.53338 L68.1704102,11.3200011 C67.7683919,12.6683084 67.0540365,13.3424621 66.0273438,13.3424621 C65.3717448,13.3424621 64.8151042,13.0610493 64.3574219,12.4982238 C63.8997396,11.9353983 63.6430664,11.1004373 63.5874023,9.99334098 L63.5874023,9.99334098 L69.6176758,9.99334098 L69.6269531,9.54802848 C69.6269531,7.8842915 69.2775065,6.61329541 68.5786133,5.7350402 C67.8797201,4.85678499 67.0076497,4.41765739 65.9624023,4.41765739 C64.8676758,4.41765739 63.9631348,4.86451611 63.2487793,5.75823356 C62.5344238,6.65195101 62.1772461,7.94923291 62.1772461,9.65007926 C62.1772461,11.2890767 62.5313314,12.5430643 63.239502,13.4120422 C63.9476725,14.28102 64.8738607,14.7155089 66.0180664,14.7155089 Z M68.1796875,8.62029411 L63.6708984,8.62029411 C63.7141927,7.75440869 63.9523112,7.06633903 64.3852539,6.55608512 C64.8181966,6.04583122 65.3408203,5.79070426 65.953125,5.79070426 C66.6334635,5.79070426 67.1931966,6.09685661 67.6323242,6.70916129 C67.9353841,7.12973421 68.1178385,7.76677848 68.1796875,8.62029411 L68.1796875,8.62029411 Z M75.3500977,14.4928527 L78.4116211,4.64031364 L77.0014648,4.64031364 L75.2016602,10.6520324 C74.9851888,11.3818501 74.8181966,12.0065246 74.7006836,12.5260558 C74.5522461,11.8704569 74.379069,11.208673 74.1811523,10.5407043 L74.1811523,10.5407043 L72.4462891,4.64031364 L70.9990234,4.64031364 L74.0698242,14.4928527 L75.3500977,14.4928527 Z M82.3999023,14.7155089 C82.9318034,14.7155089 83.4451497,14.5949035 83.9399414,14.3536925 C84.4347331,14.1124816 84.9109701,13.7537576 85.3686523,13.2775207 C85.4119466,13.7475728 85.5047201,14.1526834 85.6469727,14.4928527 L85.6469727,14.4928527 L87.0756836,14.4928527 C86.9025065,14.1093892 86.7865397,13.715102 86.7277832,13.3099914 C86.6690267,12.9048807 86.6396484,11.9230285 86.6396484,10.3644347 L86.6396484,8.13787223 C86.6396484,7.23487744 86.5762533,6.548354 86.4494629,6.07830192 C86.3226725,5.60824984 86.0180664,5.21396273 85.5356445,4.89544059 C85.0532227,4.57691846 84.3883464,4.41765739 83.5410156,4.41765739 C82.452474,4.41765739 81.6159668,4.65886832 81.0314941,5.1412902 C80.4470215,5.62371207 80.0589193,6.39373161 79.8671875,7.45134879 L79.8671875,7.45134879 L81.2124023,7.67400504 C81.3608398,6.95037223 81.5927734,6.45712679 81.9082031,6.19426872 C82.2236328,5.93141064 82.6998698,5.79998161 83.3369141,5.79998161 C84.0419922,5.79998161 84.5646159,5.99789827 84.9047852,6.39373161 C85.1459961,6.66586702 85.2666016,7.13901155 85.2666016,7.8131652 L85.2666016,7.8131652 L85.2573242,8.23992301 C84.737793,8.46257926 83.9213867,8.65431103 82.8081055,8.81511832 C81.9793294,8.93263135 81.3608398,9.11508577 80.9526367,9.36248161 C80.5444336,9.60987744 80.222819,9.95313916 79.987793,10.3922668 C79.7527669,10.8313944 79.6352539,11.3354634 79.6352539,11.9044738 C79.6352539,12.7641743 79.8857422,13.4476053 80.3867188,13.9547668 C80.8876953,14.4619282 81.5587565,14.7155089 82.3999023,14.7155089 Z M82.7338867,13.4074035 C82.2205404,13.4074035 81.8185221,13.2666971 81.527832,12.9852843 C81.2371419,12.7038716 81.0917969,12.3281392 81.0917969,11.8580871 C81.0917969,11.5550272 81.1551921,11.2875304 81.2819824,11.0555968 C81.4087728,10.8236632 81.5865885,10.6443013 81.8154297,10.5175109 C82.0442708,10.3907205 82.4462891,10.2778462 83.0214844,10.1788879 C84.0110677,10.0057108 84.7563477,9.79542431 85.2573242,9.54802848 L85.2573242,9.54802848 L85.2573242,10.1603332 C85.2573242,10.9705545 85.1583659,11.5874979 84.9604492,12.0111632 C84.7625326,12.4348286 84.4641113,12.7734517 84.0651855,13.0270324 C83.6662598,13.2806131 83.2224935,13.4074035 82.7338867,13.4074035 Z M90.6279297,14.4928527 L90.6279297,9.33464957 C90.6279297,8.61720166 90.7145182,7.93995556 90.8876953,7.30291129 C90.9866536,6.93800244 91.1567383,6.65349723 91.3979492,6.44939567 C91.6391602,6.24529411 91.9051107,6.14324332 92.1958008,6.14324332 C92.5174154,6.14324332 92.8483073,6.26384879 93.1884766,6.50505973 L93.1884766,6.50505973 L93.6523438,4.95574332 C93.1761068,4.59701937 92.7091471,4.41765739 92.2514648,4.41765739 C91.9236654,4.41765739 91.6283366,4.53053174 91.3654785,4.75628043 C91.1026204,4.98202913 90.8134766,5.44125765 90.4980469,6.13396598 L90.4980469,6.13396598 L90.4980469,4.64031364 L89.2641602,4.64031364 L89.2641602,14.4928527 L90.6279297,14.4928527 Z M98.3271484,14.7155089 C99.2363281,14.7155089 99.9986165,14.4480122 100.614014,13.9130187 C101.229411,13.3780252 101.654622,12.5848123 101.889648,11.53338 L101.889648,11.53338 L100.479492,11.3200011 C100.077474,12.6683084 99.3631185,13.3424621 98.3364258,13.3424621 C97.6808268,13.3424621 97.1241862,13.0610493 96.6665039,12.4982238 C96.2088216,11.9353983 95.9521484,11.1004373 95.8964844,9.99334098 L95.8964844,9.99334098 L101.926758,9.99334098 L101.936035,9.54802848 C101.936035,7.8842915 101.586589,6.61329541 100.887695,5.7350402 C100.188802,4.85678499 99.3167318,4.41765739 98.2714844,4.41765739 C97.1767578,4.41765739 96.2722168,4.86451611 95.5578613,5.75823356 C94.8435059,6.65195101 94.4863281,7.94923291 94.4863281,9.65007926 C94.4863281,11.2890767 94.8404134,12.5430643 95.548584,13.4120422 C96.2567546,14.28102 97.1829427,14.7155089 98.3271484,14.7155089 Z M100.48877,8.62029411 L95.9799805,8.62029411 C96.0232747,7.75440869 96.2613932,7.06633903 96.6943359,6.55608512 C97.1272786,6.04583122 97.6499023,5.79070426 98.262207,5.79070426 C98.9425456,5.79070426 99.5022786,6.09685661 99.9414062,6.70916129 C100.244466,7.12973421 100.426921,7.76677848 100.48877,8.62029411 L100.48877,8.62029411 Z M107.139648,14.7155089 C107.591146,14.7155089 108.011719,14.5902648 108.401367,14.3397765 C108.791016,14.0892882 109.109538,13.7259256 109.356934,13.2496886 L109.356934,13.2496886 L109.356934,14.4928527 L110.637207,14.4928527 L110.637207,0.892266762 L109.26416,0.892266762 L109.26416,5.77214957 C109.010579,5.34539176 108.690511,5.01295361 108.303955,4.77483512 C107.917399,4.53671663 107.498372,4.41765739 107.046875,4.41765739 C106.416016,4.41765739 105.842367,4.60629671 105.325928,4.98357536 C104.809489,5.360854 104.396647,5.93914176 104.087402,6.71843864 C103.778158,7.49773551 103.623535,8.44711702 103.623535,9.56658317 C103.623535,11.1993957 103.971436,12.4657531 104.667236,13.3656554 C105.363037,14.2655578 106.187174,14.7155089 107.139648,14.7155089 Z M107.232422,13.3424621 C106.644857,13.3424621 106.129964,13.0332173 105.687744,12.4147277 C105.245524,11.7962381 105.024414,10.8499491 105.024414,9.57586051 C105.024414,8.27084749 105.231608,7.31373486 105.645996,6.70452262 C106.060384,6.09531038 106.555176,5.79070426 107.130371,5.79070426 C107.779785,5.79070426 108.317871,6.10768017 108.744629,6.741632 C109.171387,7.37558382 109.384766,8.38217562 109.384766,9.76140739 C109.384766,10.9612772 109.171387,11.8580871 108.744629,12.4518371 C108.317871,13.0455871 107.813802,13.3424621 107.232422,13.3424621 Z M115.581055,14.7155089 C116.112956,14.7155089 116.626302,14.5949035 117.121094,14.3536925 C117.615885,14.1124816 118.092122,13.7537576 118.549805,13.2775207 C118.593099,13.7475728 118.685872,14.1526834 118.828125,14.4928527 L118.828125,14.4928527 L120.256836,14.4928527 C120.083659,14.1093892 119.967692,13.715102 119.908936,13.3099914 C119.850179,12.9048807 119.820801,11.9230285 119.820801,10.3644347 L119.820801,10.3644347 L119.820801,8.13787223 C119.820801,7.23487744 119.757406,6.548354 119.630615,6.07830192 C119.503825,5.60824984 119.199219,5.21396273 118.716797,4.89544059 C118.234375,4.57691846 117.569499,4.41765739 116.722168,4.41765739 C115.633626,4.41765739 114.797119,4.65886832 114.212646,5.1412902 C113.628174,5.62371207 113.240072,6.39373161 113.04834,7.45134879 L113.04834,7.45134879 L114.393555,7.67400504 C114.541992,6.95037223 114.773926,6.45712679 115.089355,6.19426872 C115.404785,5.93141064 115.881022,5.79998161 116.518066,5.79998161 C117.223145,5.79998161 117.745768,5.99789827 118.085938,6.39373161 C118.327148,6.66586702 118.447754,7.13901155 118.447754,7.8131652 L118.447754,7.8131652 L118.438477,8.23992301 C117.918945,8.46257926 117.102539,8.65431103 115.989258,8.81511832 C115.160482,8.93263135 114.541992,9.11508577 114.133789,9.36248161 C113.725586,9.60987744 113.403971,9.95313916 113.168945,10.3922668 C112.933919,10.8313944 112.816406,11.3354634 112.816406,11.9044738 C112.816406,12.7641743 113.066895,13.4476053 113.567871,13.9547668 C114.068848,14.4619282 114.739909,14.7155089 115.581055,14.7155089 Z M115.915039,13.4074035 C115.401693,13.4074035 114.999674,13.2666971 114.708984,12.9852843 C114.418294,12.7038716 114.272949,12.3281392 114.272949,11.8580871 C114.272949,11.5550272 114.336344,11.2875304 114.463135,11.0555968 C114.589925,10.8236632 114.767741,10.6443013 114.996582,10.5175109 C115.225423,10.3907205 115.627441,10.2778462 116.202637,10.1788879 C117.19222,10.0057108 117.9375,9.79542431 118.438477,9.54802848 L118.438477,9.54802848 L118.438477,10.1603332 C118.438477,10.9705545 118.339518,11.5874979 118.141602,12.0111632 C117.943685,12.4348286 117.645264,12.7734517 117.246338,13.0270324 C116.847412,13.2806131 116.403646,13.4074035 115.915039,13.4074035 Z M124.662598,14.6227355 C124.965658,14.6227355 125.305827,14.5732563 125.683105,14.474298 L125.683105,14.474298 L125.497559,12.9992004 C125.250163,13.0424946 125.049154,13.0641418 124.894531,13.0641418 C124.572917,13.0641418 124.353353,12.9528136 124.23584,12.7301574 C124.155436,12.575535 124.115234,12.2322733 124.115234,11.7003722 L124.115234,11.7003722 L124.115234,5.93914176 L125.497559,5.93914176 L125.497559,4.64031364 L124.115234,4.64031364 L124.115234,1.19841911 L122.751465,2.20037223 L122.751465,4.64031364 L121.749512,4.64031364 L121.749512,5.93914176 L122.751465,5.93914176 L122.751465,11.6075988 C122.751465,12.5848123 122.805583,13.2373188 122.913818,13.5651183 C123.022054,13.8929178 123.221517,14.1511372 123.512207,14.3397765 C123.802897,14.5284159 124.186361,14.6227355 124.662598,14.6227355 Z M129.578613,14.7155089 C130.110514,14.7155089 130.623861,14.5949035 131.118652,14.3536925 C131.613444,14.1124816 132.089681,13.7537576 132.547363,13.2775207 C132.590658,13.7475728 132.683431,14.1526834 132.825684,14.4928527 L132.825684,14.4928527 L134.254395,14.4928527 C134.081217,14.1093892 133.965251,13.715102 133.906494,13.3099914 C133.847738,12.9048807 133.818359,11.9230285 133.818359,10.3644347 L133.818359,8.13787223 C133.818359,7.23487744 133.754964,6.548354 133.628174,6.07830192 C133.501383,5.60824984 133.196777,5.21396273 132.714355,4.89544059 C132.231934,4.57691846 131.567057,4.41765739 130.719727,4.41765739 C129.631185,4.41765739 128.794678,4.65886832 128.210205,5.1412902 C127.625732,5.62371207 127.23763,6.39373161 127.045898,7.45134879 L127.045898,7.45134879 L128.391113,7.67400504 C128.539551,6.95037223 128.771484,6.45712679 129.086914,6.19426872 C129.402344,5.93141064 129.878581,5.79998161 130.515625,5.79998161 C131.220703,5.79998161 131.743327,5.99789827 132.083496,6.39373161 C132.324707,6.66586702 132.445312,7.13901155 132.445312,7.8131652 L132.445312,7.8131652 L132.436035,8.23992301 C131.916504,8.46257926 131.100098,8.65431103 129.986816,8.81511832 C129.15804,8.93263135 128.539551,9.11508577 128.131348,9.36248161 C127.723145,9.60987744 127.40153,9.95313916 127.166504,10.3922668 C126.931478,10.8313944 126.813965,11.3354634 126.813965,11.9044738 C126.813965,12.7641743 127.064453,13.4476053 127.56543,13.9547668 C128.066406,14.4619282 128.737467,14.7155089 129.578613,14.7155089 Z M129.912598,13.4074035 C129.399251,13.4074035 128.997233,13.2666971 128.706543,12.9852843 C128.415853,12.7038716 128.270508,12.3281392 128.270508,11.8580871 C128.270508,11.5550272 128.333903,11.2875304 128.460693,11.0555968 C128.587484,10.8236632 128.765299,10.6443013 128.994141,10.5175109 C129.222982,10.3907205 129.625,10.2778462 130.200195,10.1788879 C131.189779,10.0057108 131.935059,9.79542431 132.436035,9.54802848 L132.436035,9.54802848 L132.436035,10.1603332 C132.436035,10.9705545 132.337077,11.5874979 132.13916,12.0111632 C131.941243,12.4348286 131.642822,12.7734517 131.243896,13.0270324 C130.844971,13.2806131 130.401204,13.4074035 129.912598,13.4074035 Z M139.94043,14.7155089 C140.874349,14.7155089 141.690755,14.2624653 142.389648,13.3563781 C143.088542,12.4502909 143.437988,11.1622863 143.437988,9.49236442 C143.437988,8.39763786 143.283366,7.46681103 142.974121,6.69988395 C142.664876,5.93295687 142.252035,5.360854 141.735596,4.98357536 C141.219157,4.60629671 140.645508,4.41765739 140.014648,4.41765739 C139.563151,4.41765739 139.153402,4.52743929 138.7854,4.74700309 C138.417399,4.96656689 138.088053,5.29900504 137.797363,5.74431754 L137.797363,5.74431754 L137.797363,0.892266762 L136.433594,0.892266762 L136.433594,14.4928527 L137.70459,14.4928527 L137.70459,13.258966 C137.976725,13.7413879 138.299886,14.1047505 138.674072,14.3490539 C139.048258,14.5933573 139.470378,14.7155089 139.94043,14.7155089 Z M139.884766,13.3424621 C139.470378,13.3424621 139.093099,13.2094868 138.75293,12.9435363 C138.41276,12.6775858 138.149902,12.2910298 137.964355,11.7838683 C137.778809,11.2767069 137.686035,10.5128722 137.686035,9.49236442 C137.686035,8.29249463 137.907145,7.37558382 138.349365,6.741632 C138.791585,6.10768017 139.294108,5.79070426 139.856934,5.79070426 C140.469238,5.79070426 140.985677,6.09376416 141.40625,6.69988395 C141.826823,7.30600374 142.037109,8.25538525 142.037109,9.54802848 C142.037109,10.8097472 141.819092,11.7575825 141.383057,12.3915343 C140.947021,13.0254862 140.447591,13.3424621 139.884766,13.3424621 Z M147.908691,14.7155089 C148.440592,14.7155089 148.953939,14.5949035 149.44873,14.3536925 C149.943522,14.1124816 150.419759,13.7537576 150.877441,13.2775207 C150.920736,13.7475728 151.013509,14.1526834 151.155762,14.4928527 L151.155762,14.4928527 L152.584473,14.4928527 C152.411296,14.1093892 152.295329,13.715102 152.236572,13.3099914 C152.177816,12.9048807 152.148438,11.9230285 152.148438,10.3644347 L152.148438,8.13787223 C152.148438,7.23487744 152.085042,6.548354 151.958252,6.07830192 C151.831462,5.60824984 151.526855,5.21396273 151.044434,4.89544059 C150.562012,4.57691846 149.897135,4.41765739 149.049805,4.41765739 C147.961263,4.41765739 147.124756,4.65886832 146.540283,5.1412902 C145.955811,5.62371207 145.567708,6.39373161 145.375977,7.45134879 L145.375977,7.45134879 L146.721191,7.67400504 C146.869629,6.95037223 147.101562,6.45712679 147.416992,6.19426872 C147.732422,5.93141064 148.208659,5.79998161 148.845703,5.79998161 C149.550781,5.79998161 150.073405,5.99789827 150.413574,6.39373161 C150.654785,6.66586702 150.775391,7.13901155 150.775391,7.8131652 L150.775391,7.8131652 L150.766113,8.23992301 C150.246582,8.46257926 149.430176,8.65431103 148.316895,8.81511832 C147.488118,8.93263135 146.869629,9.11508577 146.461426,9.36248161 C146.053223,9.60987744 145.731608,9.95313916 145.496582,10.3922668 C145.261556,10.8313944 145.144043,11.3354634 145.144043,11.9044738 C145.144043,12.7641743 145.394531,13.4476053 145.895508,13.9547668 C146.396484,14.4619282 147.067546,14.7155089 147.908691,14.7155089 Z M148.242676,13.4074035 C147.729329,13.4074035 147.327311,13.2666971 147.036621,12.9852843 C146.745931,12.7038716 146.600586,12.3281392 146.600586,11.8580871 C146.600586,11.5550272 146.663981,11.2875304 146.790771,11.0555968 C146.917562,10.8236632 147.095378,10.6443013 147.324219,10.5175109 C147.55306,10.3907205 147.955078,10.2778462 148.530273,10.1788879 C149.519857,10.0057108 150.265137,9.79542431 150.766113,9.54802848 L150.766113,9.54802848 L150.766113,10.1603332 C150.766113,10.9705545 150.667155,11.5874979 150.469238,12.0111632 C150.271322,12.4348286 149.9729,12.7734517 149.573975,13.0270324 C149.175049,13.2806131 148.731283,13.4074035 148.242676,13.4074035 Z M157.621094,14.7247863 C158.653971,14.7247863 159.468831,14.4340962 160.065674,13.852716 C160.662516,13.2713358 160.960938,12.5105936 160.960938,11.5704894 C160.960938,11.063328 160.868164,10.6257466 160.682617,10.2577453 C160.49707,9.88974398 160.237305,9.59905387 159.90332,9.38567497 C159.569336,9.17229606 158.836426,8.88315218 157.70459,8.51824332 C156.881999,8.24610791 156.387207,8.04819124 156.220215,7.92449332 C155.941895,7.71420687 155.802734,7.42660921 155.802734,7.06170036 C155.802734,6.69060661 155.948079,6.38600049 156.23877,6.147882 C156.52946,5.90976351 156.97168,5.79070426 157.56543,5.79070426 C158.610677,5.79070426 159.19515,6.3287902 159.318848,7.40496207 L159.318848,7.40496207 L160.654785,7.18230582 C160.562012,6.50196728 160.39502,5.97934359 160.153809,5.61443473 C159.912598,5.24952588 159.564697,4.95883577 159.110107,4.74236442 C158.655518,4.52589306 158.128255,4.41765739 157.52832,4.41765739 C156.575846,4.41765739 155.830566,4.68051546 155.29248,5.20623161 C154.754395,5.73194775 154.485352,6.41537874 154.485352,7.25652457 C154.485352,7.74513135 154.58431,8.1811665 154.782227,8.56463004 C154.980143,8.94809359 155.258464,9.25424593 155.617188,9.48308707 C155.975911,9.71192822 156.687174,9.99024853 157.750977,10.318048 C158.486979,10.5407043 158.950846,10.7262511 159.142578,10.8746886 C159.420898,11.09116 159.560059,11.3942199 159.560059,11.7838683 C159.560059,12.2353657 159.397705,12.6080057 159.072998,12.9017882 C158.748291,13.1955708 158.289062,13.3424621 157.695312,13.3424621 C157.101562,13.3424621 156.625326,13.1739237 156.266602,12.8368468 C155.907878,12.49977 155.688314,11.9848774 155.60791,11.2921691 L155.60791,11.2921691 L154.253418,11.5519347 C154.562663,13.6671691 155.685221,14.7247863 157.621094,14.7247863 Z M166.442871,14.7155089 C167.352051,14.7155089 168.114339,14.4480122 168.729736,13.9130187 C169.345133,13.3780252 169.770345,12.5848123 170.005371,11.53338 L170.005371,11.53338 L168.595215,11.3200011 C168.193197,12.6683084 167.478841,13.3424621 166.452148,13.3424621 C165.796549,13.3424621 165.239909,13.0610493 164.782227,12.4982238 C164.324544,11.9353983 164.067871,11.1004373 164.012207,9.99334098 L164.012207,9.99334098 L170.04248,9.99334098 L170.051758,9.54802848 C170.051758,7.8842915 169.702311,6.61329541 169.003418,5.7350402 C168.304525,4.85678499 167.432454,4.41765739 166.387207,4.41765739 C165.29248,4.41765739 164.387939,4.86451611 163.673584,5.75823356 C162.959229,6.65195101 162.602051,7.94923291 162.602051,9.65007926 C162.602051,11.2890767 162.956136,12.5430643 163.664307,13.4120422 C164.372477,14.28102 165.298665,14.7155089 166.442871,14.7155089 Z M168.604492,8.62029411 L164.095703,8.62029411 C164.138997,7.75440869 164.377116,7.06633903 164.810059,6.55608512 C165.243001,6.04583122 165.765625,5.79070426 166.37793,5.79070426 C167.058268,5.79070426 167.618001,6.09685661 168.057129,6.70916129 C168.360189,7.12973421 168.542643,7.76677848 168.604492,8.62029411 L168.604492,8.62029411 Z M173.594727,14.4928527 L173.594727,9.11199332 C173.594727,7.92449332 173.789551,7.08643994 174.179199,6.59783317 C174.568848,6.1092264 175.091471,5.86492301 175.74707,5.86492301 C176.093424,5.86492301 176.398031,5.95615023 176.660889,6.13860465 C176.923747,6.32105908 177.117025,6.57927848 177.240723,6.91326286 C177.364421,7.24724723 177.42627,7.77605582 177.42627,8.49968864 L177.42627,8.49968864 L177.42627,14.4928527 L178.799316,14.4928527 L178.799316,8.43474723 C178.799316,7.52556754 178.743652,6.8514139 178.632324,6.41228629 C178.520996,5.97315869 178.352458,5.61598096 178.126709,5.34075309 C177.90096,5.06552523 177.604085,4.84286898 177.236084,4.67278434 C176.868083,4.50269971 176.467611,4.41765739 176.034668,4.41765739 C175.478027,4.41765739 174.984782,4.55217887 174.554932,4.82122184 C174.125081,5.09026481 173.761719,5.49692171 173.464844,6.04119254 L173.464844,6.04119254 L173.464844,4.64031364 L172.230957,4.64031364 L172.230957,14.4928527 L173.594727,14.4928527 Z" transform="translate(1 134.507)"/>
    <rect width="5" height="5" x="111" y="9"/>
    <rect width="5" height="5" x="111" y="9"/>
    <rect width="1" height="1" x="2" y="149"/>
  </g>
</svg>
