<?xml version="1.0" encoding="UTF-8" standalone="no"?>
<!-- Created with Inkscape (http://www.inkscape.org/) -->

<svg
   xmlns:dc="http://purl.org/dc/elements/1.1/"
   xmlns:cc="http://creativecommons.org/ns#"
   xmlns:rdf="http://www.w3.org/1999/02/22-rdf-syntax-ns#"
   xmlns:svg="http://www.w3.org/2000/svg"
   xmlns="http://www.w3.org/2000/svg"
   xmlns:sodipodi="http://sodipodi.sourceforge.net/DTD/sodipodi-0.dtd"
   xmlns:inkscape="http://www.inkscape.org/namespaces/inkscape"
   width="178"
   height="144"
   id="svg8313"
   version="1.1"
   inkscape:version="0.91 r13725"
   sodipodi:docname="openfoodfacts-logo-ar.svg"
   inkscape:export-filename="C:\Users\Stéphane\Desktop\Blogs\OpenFoodFacts\off-en.356x288.png"
   inkscape:export-xdpi="180"
   inkscape:export-ydpi="180">
  <defs
     id="defs8315" />
  <sodipodi:namedview
     id="base"
     pagecolor="#ffffff"
     bordercolor="#666666"
     borderopacity="1.0"
     inkscape:pageopacity="0.0"
     inkscape:pageshadow="2"
     inkscape:zoom="3.949244"
     inkscape:cx="110.6405"
     inkscape:cy="45.702654"
     inkscape:document-units="px"
     inkscape:current-layer="layer1"
     showgrid="true"
     inkscape:window-width="1920"
     inkscape:window-height="1018"
     inkscape:window-x="-8"
     inkscape:window-y="-8"
     inkscape:window-maximized="1"
     inkscape:snap-global="true">
    <inkscape:grid
       type="xygrid"
       id="grid8566" />
  </sodipodi:namedview>
  <metadata
     id="metadata8318">
    <rdf:RDF>
      <cc:Work
         rdf:about="">
        <dc:format>image/svg+xml</dc:format>
        <dc:type
           rdf:resource="http://purl.org/dc/dcmitype/StillImage" />
        <dc:title></dc:title>
      </cc:Work>
    </rdf:RDF>
  </metadata>
  <g
     inkscape:label="Calque 1"
     inkscape:groupmode="layer"
     id="layer1">
    <path
       inkscape:export-ydpi="360"
       inkscape:export-xdpi="360"
       inkscape:export-filename="C:\Users\Stéphane\Desktop\Blogs\OpenFoodFacts\off-logo-en.712x575.png"
       inkscape:connector-curvature="0"
       style="fill:#0066ff;fill-opacity:1;fill-rule:nonzero;stroke:none"
       d="m 170,26 0,6.41101 c 1.19571,0.444338 2.20515,1.060483 2.99122,1.761208 L 173.01672,26 Z m 4,0 0,8.312003 1,-0.838676 L 175,26 Z m 2,0 0,6.606702 1,-0.978462 0,11.7694 -1,-1.00641 L 176.0383,95 178,95 178,26 Z M 174,40.685929 174,95 l 1,0 0,-53.475406 z m -1,0.139774 c -0.78598,0.701951 -1.79569,1.313237 -3,1.76122 L 170.008,95 l 3,0 z"
       id="path7944"
       sodipodi:nodetypes="ccccccccccccccccccccccccccccc" />
    <path
       inkscape:export-ydpi="360"
       inkscape:export-xdpi="360"
       inkscape:export-filename="C:\Users\Stéphane\Desktop\Blogs\OpenFoodFacts\off-logo-en.712x575.png"
       inkscape:connector-curvature="0"
       style="fill:#00ccff;fill-opacity:1;fill-rule:nonzero;stroke:none"
       d="m 154,26 0,69 3,0 0,-53.810872 c -1.32362,-1.014805 -2.12462,-2.271422 -2.12462,-3.662215 0,-1.390781 0.801,-2.675356 2.12462,-3.690161 L 157,26 Z m 4,0 0,7.193768 c 1.12603,-0.642997 2.49599,-1.128715 4.02565,-1.397795 L 162,26 Z m 5,0 -0.08,5.62824 c 0.32965,-0.03644 0.66619,-0.03965 1.00641,-0.05585 L 164,26.000057 c -0.35153,4.6e-5 -0.64847,-3.3e-5 -1,-5.7e-5 z m 2,0 0,5.544374 c 0.68266,0.0083 1.34304,0.08097 1.9849,0.167733 L 167,26 Z M 158,41.860072 158,95 l 4,0 0,-51.770093 c -1.58676,-0.26883 -2.87451,-0.727732 -4,-1.369835 z m 9,1.481649 c -0.64077,0.08753 -1.30349,0.131652 -1.9849,0.139785 L 165,95 l 2,0 z m -4,0.05597 L 163,95 l 1,0 0.006,-51.546402 c -0.34022,-0.01632 -0.67676,-0.01941 -1.00641,-0.05585 z"
       id="path7946"
       sodipodi:nodetypes="ccccscccccccccccccccccccccccccccccccccc" />
    <path
       inkscape:export-ydpi="360"
       inkscape:export-xdpi="360"
       inkscape:export-filename="C:\Users\Stéphane\Desktop\Blogs\OpenFoodFacts\off-logo-en.712x575.png"
       inkscape:connector-curvature="0"
       id="path7948"
       d="M 150,26.012039 150,95 l 1,0 0,-68.987961 z"
       style="fill:#00d400;fill-opacity:1;fill-rule:nonzero;stroke:none"
       sodipodi:nodetypes="ccccc" />
    <path
       inkscape:export-ydpi="360"
       inkscape:export-xdpi="360"
       inkscape:export-filename="C:\Users\Stéphane\Desktop\Blogs\OpenFoodFacts\off-logo-en.712x575.png"
       inkscape:connector-curvature="0"
       id="path7950"
       d="M 146,26.012039 146,95 l 3,0 0,-68.987961 z"
       style="fill:#00d400;fill-opacity:1;fill-rule:nonzero;stroke:none"
       sodipodi:nodetypes="ccccc" />
    <path
       inkscape:export-ydpi="360"
       inkscape:export-xdpi="360"
       inkscape:export-filename="C:\Users\Stéphane\Desktop\Blogs\OpenFoodFacts\off-logo-en.712x575.png"
       inkscape:connector-curvature="0"
       id="path7952"
       d="M 143,26.012039 143,95 l 2,0 0,-68.987961 z"
       style="fill:#00d400;fill-opacity:1;fill-rule:nonzero;stroke:none"
       sodipodi:nodetypes="ccccc" />
    <path
       inkscape:export-ydpi="360"
       inkscape:export-xdpi="360"
       inkscape:export-filename="C:\Users\Stéphane\Desktop\Blogs\OpenFoodFacts\off-logo-en.712x575.png"
       inkscape:connector-curvature="0"
       id="path7954"
       d="M 141,26.012039 141,95 l 1,0 0,-68.987961 z"
       style="fill:#00d400;fill-opacity:1;fill-rule:nonzero;stroke:none"
       sodipodi:nodetypes="ccccc" />
    <path
       inkscape:export-ydpi="360"
       inkscape:export-xdpi="360"
       inkscape:export-filename="C:\Users\Stéphane\Desktop\Blogs\OpenFoodFacts\off-logo-en.712x575.png"
       inkscape:connector-curvature="0"
       id="path7956"
       d="m 135,24 0,71 3,0 -5e-5,-69 z"
       style="fill:#00d400;fill-opacity:1;fill-rule:nonzero;stroke:none"
       sodipodi:nodetypes="ccccc" />
    <path
       inkscape:export-ydpi="360"
       inkscape:export-xdpi="360"
       inkscape:export-filename="C:\Users\Stéphane\Desktop\Blogs\OpenFoodFacts\off-logo-en.712x575.png"
       inkscape:connector-curvature="0"
       id="path7958"
       d="m 132,26 0,69 2,0 -4e-5,-69 z"
       style="fill:#00d400;fill-opacity:1;fill-rule:nonzero;stroke:none"
       sodipodi:nodetypes="ccccc" />
    <path
       inkscape:export-ydpi="360"
       inkscape:export-xdpi="360"
       inkscape:export-filename="C:\Users\Stéphane\Desktop\Blogs\OpenFoodFacts\off-logo-en.712x575.png"
       inkscape:connector-curvature="0"
       id="path7960"
       d="m 129,26 0,69 2,0 1e-5,-69 z"
       style="fill:#00d400;fill-opacity:1;fill-rule:nonzero;stroke:none"
       sodipodi:nodetypes="ccccc" />
    <path
       inkscape:export-ydpi="360"
       inkscape:export-xdpi="360"
       inkscape:export-filename="C:\Users\Stéphane\Desktop\Blogs\OpenFoodFacts\off-logo-en.712x575.png"
       inkscape:connector-curvature="0"
       id="path7962"
       d="m 125,26 0,69 1,0 5e-5,-69 z"
       style="fill:#00d400;fill-opacity:1;fill-rule:nonzero;stroke:none"
       sodipodi:nodetypes="ccccc" />
    <path
       inkscape:export-ydpi="360"
       inkscape:export-xdpi="360"
       inkscape:export-filename="C:\Users\Stéphane\Desktop\Blogs\OpenFoodFacts\off-logo-en.712x575.png"
       inkscape:connector-curvature="0"
       id="path7964"
       d="m 121,26 0,69 1,0 6e-5,-69 z"
       style="fill:#00d400;fill-opacity:1;fill-rule:nonzero;stroke:none"
       sodipodi:nodetypes="ccccc" />
    <path
       inkscape:export-ydpi="360"
       inkscape:export-xdpi="360"
       inkscape:export-filename="C:\Users\Stéphane\Desktop\Blogs\OpenFoodFacts\off-logo-en.712x575.png"
       inkscape:connector-curvature="0"
       id="path7966"
       d="m 116,26 0,69 2,0 1e-5,-69 z"
       style="fill:#00d400;fill-opacity:1;fill-rule:nonzero;stroke:none"
       sodipodi:nodetypes="ccccc" />
    <path
       inkscape:export-ydpi="360"
       inkscape:export-xdpi="360"
       inkscape:export-filename="C:\Users\Stéphane\Desktop\Blogs\OpenFoodFacts\off-logo-en.712x575.png"
       inkscape:connector-curvature="0"
       id="path7968"
       d="m 112,26 0,69 1,0 -5e-5,-69 z"
       style="fill:#00d400;fill-opacity:1;fill-rule:nonzero;stroke:none"
       sodipodi:nodetypes="ccccc" />
    <path
       inkscape:export-ydpi="360"
       inkscape:export-xdpi="360"
       inkscape:export-filename="C:\Users\Stéphane\Desktop\Blogs\OpenFoodFacts\off-logo-en.712x575.png"
       inkscape:connector-curvature="0"
       id="path7970"
       d="m 110,26 0,69 1,0 -5e-5,-69 z"
       style="fill:#00d400;fill-opacity:1;fill-rule:nonzero;stroke:none"
       sodipodi:nodetypes="ccccc" />
    <path
       inkscape:export-ydpi="360"
       inkscape:export-xdpi="360"
       inkscape:export-filename="C:\Users\Stéphane\Desktop\Blogs\OpenFoodFacts\off-logo-en.712x575.png"
       inkscape:connector-curvature="0"
       id="path7972"
       d="m 108,26 0,69 1,0 4e-5,-69 z"
       style="fill:#00d400;fill-opacity:1;fill-rule:nonzero;stroke:none"
       sodipodi:nodetypes="ccccc" />
    <path
       inkscape:export-ydpi="360"
       inkscape:export-xdpi="360"
       inkscape:export-filename="C:\Users\Stéphane\Desktop\Blogs\OpenFoodFacts\off-logo-en.712x575.png"
       inkscape:connector-curvature="0"
       id="path7974"
       d="m 103,26 0,69 2,0 1e-5,-69 z"
       style="fill:#00d400;fill-opacity:1;fill-rule:nonzero;stroke:none"
       sodipodi:nodetypes="ccccc" />
    <path
       inkscape:export-ydpi="360"
       inkscape:export-xdpi="360"
       inkscape:export-filename="C:\Users\Stéphane\Desktop\Blogs\OpenFoodFacts\off-logo-en.712x575.png"
       inkscape:connector-curvature="0"
       id="path7976"
       d="m 99,26 0,69 1,0 -10e-7,-69 z"
       style="fill:#00d400;fill-opacity:1;fill-rule:nonzero;stroke:none"
       sodipodi:nodetypes="ccccc" />
    <path
       inkscape:export-ydpi="360"
       inkscape:export-xdpi="360"
       inkscape:export-filename="C:\Users\Stéphane\Desktop\Blogs\OpenFoodFacts\off-logo-en.712x575.png"
       inkscape:connector-curvature="0"
       id="path7978"
       d="M 94.983089,26.012039 95,95 96,95 95.98263,26.012039 Z"
       style="fill:#00d400;fill-opacity:1;fill-rule:nonzero;stroke:none"
       sodipodi:nodetypes="ccccc" />
    <path
       inkscape:export-ydpi="360"
       inkscape:export-xdpi="360"
       inkscape:export-filename="C:\Users\Stéphane\Desktop\Blogs\OpenFoodFacts\off-logo-en.712x575.png"
       inkscape:connector-curvature="0"
       id="path7980"
       d="m 90,21 0,74 2,0 3e-6,-74 z"
       style="fill:#ffcc00;fill-opacity:1;fill-rule:nonzero;stroke:none"
       sodipodi:nodetypes="ccccc" />
    <path
       inkscape:export-ydpi="360"
       inkscape:export-xdpi="360"
       inkscape:export-filename="C:\Users\Stéphane\Desktop\Blogs\OpenFoodFacts\off-logo-en.712x575.png"
       inkscape:connector-curvature="0"
       id="path7983"
       d="m 88,26 0,69 1,0 10e-7,-69 z"
       style="fill:#ffcc00;fill-opacity:1;fill-rule:nonzero;stroke:none"
       sodipodi:nodetypes="ccccc" />
    <path
       inkscape:export-ydpi="360"
       inkscape:export-xdpi="360"
       inkscape:export-filename="C:\Users\Stéphane\Desktop\Blogs\OpenFoodFacts\off-logo-en.712x575.png"
       inkscape:connector-curvature="0"
       id="path7985"
       d="m 85,10 0,85 2,0 0,-85 z"
       style="fill:#ffcc00;fill-opacity:1;fill-rule:nonzero;stroke:none"
       sodipodi:nodetypes="ccccc" />
    <path
       inkscape:export-ydpi="360"
       inkscape:export-xdpi="360"
       inkscape:export-filename="C:\Users\Stéphane\Desktop\Blogs\OpenFoodFacts\off-logo-en.712x575.png"
       inkscape:connector-curvature="0"
       id="path7987"
       d="m 81,26 0,69 3,0 4e-6,-69 z"
       style="fill:#ffcc00;fill-opacity:1;fill-rule:nonzero;stroke:none"
       sodipodi:nodetypes="ccccc" />
    <path
       inkscape:export-ydpi="360"
       inkscape:export-xdpi="360"
       inkscape:export-filename="C:\Users\Stéphane\Desktop\Blogs\OpenFoodFacts\off-logo-en.712x575.png"
       inkscape:connector-curvature="0"
       id="path7989"
       d="m 77,26 0,69 1,0 3e-6,-69 z"
       style="fill:#ffcc00;fill-opacity:1;fill-rule:nonzero;stroke:none"
       sodipodi:nodetypes="ccccc" />
    <path
       inkscape:export-ydpi="360"
       inkscape:export-xdpi="360"
       inkscape:export-filename="C:\Users\Stéphane\Desktop\Blogs\OpenFoodFacts\off-logo-en.712x575.png"
       inkscape:connector-curvature="0"
       id="path7991"
       d="m 74,20 0,75 2,0 -7e-6,-75 z"
       style="fill:#ffcc00;fill-opacity:1;fill-rule:nonzero;stroke:none"
       sodipodi:nodetypes="ccccc" />
    <path
       inkscape:export-ydpi="360"
       inkscape:export-xdpi="360"
       inkscape:export-filename="C:\Users\Stéphane\Desktop\Blogs\OpenFoodFacts\off-logo-en.712x575.png"
       inkscape:connector-curvature="0"
       id="path7993"
       d="m 70,26 0,69 3,0 4e-6,-69 z"
       style="fill:#ffcc00;fill-opacity:1;fill-rule:nonzero;stroke:none"
       sodipodi:nodetypes="ccccc" />
    <path
       inkscape:export-ydpi="360"
       inkscape:export-xdpi="360"
       inkscape:export-filename="C:\Users\Stéphane\Desktop\Blogs\OpenFoodFacts\off-logo-en.712x575.png"
       inkscape:connector-curvature="0"
       id="path7995"
       d="m 66,26 0,69 1,0 3e-6,-69 z"
       style="fill:#ffcc00;fill-opacity:1;fill-rule:nonzero;stroke:none"
       sodipodi:nodetypes="ccccc" />
    <path
       inkscape:export-ydpi="360"
       inkscape:export-xdpi="360"
       inkscape:export-filename="C:\Users\Stéphane\Desktop\Blogs\OpenFoodFacts\off-logo-en.712x575.png"
       inkscape:connector-curvature="0"
       id="path7997"
       d="m 64,26 0,69 1,0 10e-7,-69 z"
       style="fill:#ffcc00;fill-opacity:1;fill-rule:nonzero;stroke:none"
       sodipodi:nodetypes="ccccc" />
    <path
       inkscape:export-ydpi="360"
       inkscape:export-xdpi="360"
       inkscape:export-filename="C:\Users\Stéphane\Desktop\Blogs\OpenFoodFacts\off-logo-en.712x575.png"
       inkscape:connector-curvature="0"
       id="path7999"
       d="M 58.973701,25.916822 59,95 61,95 60.9728,25.916822 Z"
       style="fill:#ffcc00;fill-opacity:1;fill-rule:nonzero;stroke:none"
       sodipodi:nodetypes="ccccc" />
    <path
       inkscape:export-ydpi="360"
       inkscape:export-xdpi="360"
       inkscape:export-filename="C:\Users\Stéphane\Desktop\Blogs\OpenFoodFacts\off-logo-en.712x575.png"
       inkscape:connector-curvature="0"
       id="path8001"
       d="m 55,15 0,80 1,0 -9e-6,-80 z"
       style="fill:#ffcc00;fill-opacity:1;fill-rule:nonzero;stroke:none"
       sodipodi:nodetypes="ccccc" />
    <path
       inkscape:export-ydpi="360"
       inkscape:export-xdpi="360"
       inkscape:export-filename="C:\Users\Stéphane\Desktop\Blogs\OpenFoodFacts\off-logo-en.712x575.png"
       inkscape:connector-curvature="0"
       id="path8003"
       d="m 52,26 0,69 2,0 3e-6,-69 z"
       style="fill:#ffcc00;fill-opacity:1;fill-rule:nonzero;stroke:none"
       sodipodi:nodetypes="ccccc" />
    <path
       inkscape:export-ydpi="360"
       inkscape:export-xdpi="360"
       inkscape:export-filename="C:\Users\Stéphane\Desktop\Blogs\OpenFoodFacts\off-logo-en.712x575.png"
       inkscape:connector-curvature="0"
       id="path8005"
       d="m 46,26 0,69 3,0 -7e-6,-69 z"
       style="fill:#ffcc00;fill-opacity:1;fill-rule:nonzero;stroke:none"
       sodipodi:nodetypes="ccccc" />
    <path
       inkscape:export-ydpi="360"
       inkscape:export-xdpi="360"
       inkscape:export-filename="C:\Users\Stéphane\Desktop\Blogs\OpenFoodFacts\off-logo-en.712x575.png"
       inkscape:connector-curvature="0"
       id="path8007"
       d="m 44,26 0,69 1,0 10e-7,-69 z"
       style="fill:#ffcc00;fill-opacity:1;fill-rule:nonzero;stroke:none"
       sodipodi:nodetypes="ccccc" />
    <path
       inkscape:export-ydpi="360"
       inkscape:export-xdpi="360"
       inkscape:export-filename="C:\Users\Stéphane\Desktop\Blogs\OpenFoodFacts\off-logo-en.712x575.png"
       inkscape:connector-curvature="0"
       id="path8009"
       d="m 40,26 0,69 1,0 2e-6,-69 z"
       style="fill:#ffcc00;fill-opacity:1;fill-rule:nonzero;stroke:none"
       sodipodi:nodetypes="ccccc" />
    <path
       inkscape:export-ydpi="360"
       inkscape:export-xdpi="360"
       inkscape:export-filename="C:\Users\Stéphane\Desktop\Blogs\OpenFoodFacts\off-logo-en.712x575.png"
       inkscape:connector-curvature="0"
       id="path8011"
       d="m 37,26 0,69 2,0 4e-6,-69 z"
       style="fill:#ffcc00;fill-opacity:1;fill-rule:nonzero;stroke:none"
       sodipodi:nodetypes="ccccc" />
    <path
       inkscape:export-ydpi="360"
       inkscape:export-xdpi="360"
       inkscape:export-filename="C:\Users\Stéphane\Desktop\Blogs\OpenFoodFacts\off-logo-en.712x575.png"
       inkscape:connector-curvature="0"
       id="path8013"
       d="m 33,20 0,75 1,0 -7e-6,-75 z"
       style="fill:#ff0000;fill-opacity:1;fill-rule:nonzero;stroke:none"
       sodipodi:nodetypes="ccccc" />
    <path
       inkscape:export-ydpi="360"
       inkscape:export-xdpi="360"
       inkscape:export-filename="C:\Users\Stéphane\Desktop\Blogs\OpenFoodFacts\off-logo-en.712x575.png"
       inkscape:connector-curvature="0"
       id="path8015"
       d="m 30,19 0,76 2,0 4e-6,-76 z"
       style="fill:#ff0000;fill-opacity:1;fill-rule:nonzero;stroke:none"
       sodipodi:nodetypes="ccccc" />
    <path
       inkscape:export-ydpi="360"
       inkscape:export-xdpi="360"
       inkscape:export-filename="C:\Users\Stéphane\Desktop\Blogs\OpenFoodFacts\off-logo-en.712x575.png"
       inkscape:connector-curvature="0"
       id="path8017"
       d="m 26,26 0,69 3,0 0,-69 z"
       style="fill:#ff0000;fill-opacity:1;fill-rule:nonzero;stroke:none"
       sodipodi:nodetypes="ccccc" />
    <path
       inkscape:export-ydpi="360"
       inkscape:export-xdpi="360"
       inkscape:export-filename="C:\Users\Stéphane\Desktop\Blogs\OpenFoodFacts\off-logo-en.712x575.png"
       inkscape:connector-curvature="0"
       id="path8019"
       d="m 22,26 0,69 3,0 -5e-6,-69 z"
       style="fill:#ff0000;fill-opacity:1;fill-rule:nonzero;stroke:none"
       sodipodi:nodetypes="ccccc" />
    <path
       inkscape:export-ydpi="360"
       inkscape:export-xdpi="360"
       inkscape:export-filename="C:\Users\Stéphane\Desktop\Blogs\OpenFoodFacts\off-logo-en.712x575.png"
       inkscape:connector-curvature="0"
       id="path8021"
       d="m 19,20 0,75 2,0 -8.6e-5,-75 z"
       style="fill:#ff0000;fill-opacity:1;fill-rule:nonzero;stroke:none"
       sodipodi:nodetypes="ccccc" />
    <path
       inkscape:export-ydpi="360"
       inkscape:export-xdpi="360"
       inkscape:export-filename="C:\Users\Stéphane\Desktop\Blogs\OpenFoodFacts\off-logo-en.712x575.png"
       inkscape:connector-curvature="0"
       id="path8023"
       d="m 15,21 0,74 3,0 -3.5e-5,-74 z"
       style="fill:#ff0000;fill-opacity:1;fill-rule:nonzero;stroke:none"
       sodipodi:nodetypes="ccccc" />
    <path
       inkscape:export-ydpi="360"
       inkscape:export-xdpi="360"
       inkscape:export-filename="C:\Users\Stéphane\Desktop\Blogs\OpenFoodFacts\off-logo-en.712x575.png"
       inkscape:connector-curvature="0"
       id="path8025"
       d="m 11,26 0,69 1,0 -4.9e-5,-69 z"
       style="fill:#ff0000;fill-opacity:1;fill-rule:nonzero;stroke:none"
       sodipodi:nodetypes="ccccc" />
    <path
       inkscape:export-ydpi="360"
       inkscape:export-xdpi="360"
       inkscape:export-filename="C:\Users\Stéphane\Desktop\Blogs\OpenFoodFacts\off-logo-en.712x575.png"
       inkscape:connector-curvature="0"
       id="path8027"
       d="M 8,26 8,95 9,95 9,26 Z"
       style="fill:#ff0000;fill-opacity:1;fill-rule:nonzero;stroke:none"
       sodipodi:nodetypes="ccccc" />
    <path
       inkscape:export-ydpi="360"
       inkscape:export-xdpi="360"
       inkscape:export-filename="C:\Users\Stéphane\Desktop\Blogs\OpenFoodFacts\off-logo-en.712x575.png"
       inkscape:connector-curvature="0"
       id="path8029"
       d="m 2.9986784,25.916822 0,69.083178 0.9995629,0 0,-69.083178 z"
       style="fill:#ff0000;fill-opacity:1;fill-rule:nonzero;stroke:none"
       sodipodi:nodetypes="ccccc" />
    <path
       inkscape:export-ydpi="360"
       inkscape:export-xdpi="360"
       inkscape:export-filename="C:\Users\Stéphane\Desktop\Blogs\OpenFoodFacts\off-logo-en.712x575.png"
       inkscape:connector-curvature="0"
       id="path8031"
       d="m 1.3499883e-5,25.916822 0,69.083178 1.999113900117,0 0,-69.083178 z"
       style="fill:#ff0000;fill-opacity:1;fill-rule:nonzero;stroke:none"
       sodipodi:nodetypes="ccccc" />
    <path
       sodipodi:nodetypes="csssacccccssscccsccccc"
       inkscape:connector-curvature="0"
       id="path8033"
       d="m 12.96037,20.168037 c 0.62972,-0.815576 0.719123,-2.676154 1.281409,-4.358843 0.405305,-1.212926 0.463533,-4.596987 1.208651,-4.882429 0.96834,-0.370951 3.169601,-0.358079 4.223988,-0.416629 2.300059,-0.127699 4.518931,1.098659 6.822539,1.101136 2.990853,0.0036 8.861008,-1.410596 8.861008,-1.410596 l -0.140119,-2.0388259 1.505607,0.2780586 4.07695,-0.5169049 -3.008404,1.3861371 c 0,0 1.201864,-0.021077 1.688022,0.2768321 0.705048,0.432109 0.959994,1.347377 1.46892,1.999162 0.291967,0.373928 1.082477,0.65438 0.908337,1.095671 -0.469844,1.190611 -3.808977,0.485944 -3.808977,0.485944 l -1.918736,1.803326 c -0.833009,1.778987 -2.26137,3.261839 -2.253596,6.722383 0,0 -6.006891,-0.923008 -8.991183,-0.79663 -1.764007,0.07466 -4.968974,0.618073 -4.968974,0.618073 -1.608718,-0.13719 -3.296502,-0.529063 -4.905219,-0.24954 0.0095,-6.235485 0.866683,-6.128862 0.69876,-9.294821 -0.439183,1.679986 -0.971056,4.516551 -1.026843,5.772464 -0.534756,1.525804 -0.01191,1.899672 -1.72214,2.426032 z"
       style="fill:#ff0000;fill-opacity:1"
       inkscape:export-filename="C:\Users\Stéphane\Desktop\Blogs\OpenFoodFacts\off-logo-en.712x575.png"
       inkscape:export-xdpi="360"
       inkscape:export-ydpi="360" />
    <g
       style="fill:#ffcc00"
       transform="matrix(0.01488015,-0.01147672,0.01147672,0.01488015,39.17529,7.5675208)"
       id="g8035"
       inkscape:export-filename="C:\Users\Stéphane\Desktop\Blogs\OpenFoodFacts\off-logo-en.712x575.png"
       inkscape:export-xdpi="360"
       inkscape:export-ydpi="360">
      <ellipse
         ry="32.857143"
         rx="65.714287"
         cy="762.36218"
         cx="567.14288"
         style="fill:#ffcc00;fill-opacity:1;stroke:none"
         id="path8037"
         transform="matrix(0.58270937,-0.81268061,0.81268061,0.58270937,-465.7507,809.03262)" />
      <path
         style="fill:#ffcc00;fill-opacity:1;stroke:none"
         d="m 494.28571,741.6479 c 0,0 14.40901,-2.31616 20.71429,-5.71428 22.08801,-11.90395 53.57143,-52.85715 53.57143,-52.85715 0,0 -33.14169,43.13867 -40,64.99999 -2.07174,6.60382 -1.42857,20.71429 -1.42857,20.71429 z"
         id="path8039"
         inkscape:connector-curvature="0"
         sodipodi:nodetypes="cscscc" />
    </g>
    <g
       transform="matrix(0.89458574,0,0,0.89458574,-468.13007,-644.42698)"
       id="g8041"
       inkscape:export-filename="C:\Users\Stéphane\Desktop\Blogs\OpenFoodFacts\off-logo-en.712x575.png"
       inkscape:export-xdpi="360"
       inkscape:export-ydpi="360">
      <g
         id="g8043"
         transform="translate(-9.5459416,1.1490485)"
         style="fill:#ffcc00">
        <g
           transform="matrix(0.02100622,0,0,0.02100622,586.13922,725.53281)"
           id="g8045"
           style="fill:#ffcc00">
          <ellipse
             ry="32.857143"
             rx="65.714287"
             cy="762.36218"
             cx="567.14288"
             style="fill:#ffcc00;fill-opacity:1;stroke:none"
             id="path8047"
             transform="matrix(0.58270937,-0.81268061,0.81268061,0.58270937,-465.7507,809.03262)" />
          <path
             style="fill:#ffcc00;fill-opacity:1;stroke:none"
             d="m 494.28571,741.6479 c 0,0 14.40901,-2.31616 20.71429,-5.71428 22.08801,-11.90395 53.57143,-52.85715 53.57143,-52.85715 0,0 -33.14169,43.13867 -40,64.99999 -2.07174,6.60382 -1.42857,20.71429 -1.42857,20.71429 z"
             id="path8049"
             inkscape:connector-curvature="0"
             sodipodi:nodetypes="cscscc" />
        </g>
        <g
           transform="matrix(0.02100622,0,0,0.02100622,586.13922,727.5359)"
           id="g8051"
           style="fill:#ffcc00">
          <ellipse
             ry="32.857143"
             rx="65.714287"
             cy="762.36218"
             cx="567.14288"
             style="fill:#ffcc00;fill-opacity:1;stroke:none"
             id="path8053"
             transform="matrix(0.58270937,-0.81268061,0.81268061,0.58270937,-465.7507,809.03262)" />
          <path
             style="fill:#ffcc00;fill-opacity:1;stroke:none"
             d="m 494.28571,741.6479 c 0,0 14.40901,-2.31616 20.71429,-5.71428 22.08801,-11.90395 53.57143,-52.85715 53.57143,-52.85715 0,0 -33.14169,43.13867 -40,64.99999 -2.07174,6.60382 -1.42857,20.71429 -1.42857,20.71429 z"
             id="path8055"
             inkscape:connector-curvature="0"
             sodipodi:nodetypes="cscscc" />
        </g>
        <g
           transform="matrix(0.02100622,0,0,0.02100622,586.13922,723.52972)"
           id="g8057"
           style="fill:#ffcc00">
          <ellipse
             ry="32.857143"
             rx="65.714287"
             cy="762.36218"
             cx="567.14288"
             style="fill:#ffcc00;fill-opacity:1;stroke:none"
             id="path8059"
             transform="matrix(0.58270937,-0.81268061,0.81268061,0.58270937,-465.7507,809.03262)" />
          <path
             style="fill:#ffcc00;fill-opacity:1;stroke:none"
             d="m 494.28571,741.6479 c 0,0 14.40901,-2.31616 20.71429,-5.71428 22.08801,-11.90395 53.57143,-52.85715 53.57143,-52.85715 0,0 -33.14169,43.13867 -40,64.99999 -2.07174,6.60382 -1.42857,20.71429 -1.42857,20.71429 z"
             id="path8061"
             inkscape:connector-curvature="0"
             sodipodi:nodetypes="cscscc" />
        </g>
        <g
           transform="matrix(0.02100622,0,0,0.02100622,586.13922,721.52662)"
           id="g8063"
           style="fill:#ffcc00">
          <ellipse
             ry="32.857143"
             rx="65.714287"
             cy="762.36218"
             cx="567.14288"
             style="fill:#ffcc00;fill-opacity:1;stroke:none"
             id="path8065"
             transform="matrix(0.58270937,-0.81268061,0.81268061,0.58270937,-465.7507,809.03262)" />
          <path
             style="fill:#ffcc00;fill-opacity:1;stroke:none"
             d="m 494.28571,741.6479 c 0,0 14.40901,-2.31616 20.71429,-5.71428 22.08801,-11.90395 53.57143,-52.85715 53.57143,-52.85715 0,0 -33.14169,43.13867 -40,64.99999 -2.07174,6.60382 -1.42857,20.71429 -1.42857,20.71429 z"
             id="path8067"
             inkscape:connector-curvature="0"
             sodipodi:nodetypes="cscscc" />
        </g>
        <g
           transform="matrix(0.02064274,-0.0038908,0.0038908,0.02064274,583.1049,721.64932)"
           id="g8069"
           style="fill:#ffcc00">
          <ellipse
             ry="32.857143"
             rx="65.714287"
             cy="762.36218"
             cx="567.14288"
             style="fill:#ffcc00;fill-opacity:1;stroke:none"
             id="path8071"
             transform="matrix(0.58270937,-0.81268061,0.81268061,0.58270937,-465.7507,809.03262)" />
          <path
             style="fill:#ffcc00;fill-opacity:1;stroke:none"
             d="m 494.28571,741.6479 c 0,0 14.40901,-2.31616 20.71429,-5.71428 22.08801,-11.90395 53.57143,-52.85715 53.57143,-52.85715 0,0 -33.14169,43.13867 -40,64.99999 -2.07174,6.60382 -1.42857,20.71429 -1.42857,20.71429 z"
             id="path8073"
             inkscape:connector-curvature="0"
             sodipodi:nodetypes="cscscc" />
        </g>
      </g>
      <g
         id="g8075"
         style="fill:#ffcc00"
         transform="translate(-10.253048,1.1490485)">
        <g
           transform="matrix(-0.02100622,0,0,0.02100622,604.26937,725.53281)"
           id="g8077"
           style="fill:#ffcc00">
          <ellipse
             ry="32.857143"
             rx="65.714287"
             cy="762.36218"
             cx="567.14288"
             style="fill:#ffcc00;fill-opacity:1;stroke:none"
             id="path8079"
             transform="matrix(0.58270937,-0.81268061,0.81268061,0.58270937,-465.7507,809.03262)" />
          <path
             style="fill:#ffcc00;fill-opacity:1;stroke:none"
             d="m 494.28571,741.6479 c 0,0 14.40901,-2.31616 20.71429,-5.71428 22.08801,-11.90395 53.57143,-52.85715 53.57143,-52.85715 0,0 -33.14169,43.13867 -40,64.99999 -2.07174,6.60382 -1.42857,20.71429 -1.42857,20.71429 z"
             id="path8081"
             inkscape:connector-curvature="0"
             sodipodi:nodetypes="cscscc" />
        </g>
        <g
           transform="matrix(-0.02100622,0,0,0.02100622,604.26938,727.5359)"
           id="g8083"
           style="fill:#ffcc00">
          <ellipse
             ry="32.857143"
             rx="65.714287"
             cy="762.36218"
             cx="567.14288"
             style="fill:#ffcc00;fill-opacity:1;stroke:none"
             id="path8085"
             transform="matrix(0.58270937,-0.81268061,0.81268061,0.58270937,-465.7507,809.03262)" />
          <path
             style="fill:#ffcc00;fill-opacity:1;stroke:none"
             d="m 494.28571,741.6479 c 0,0 14.40901,-2.31616 20.71429,-5.71428 22.08801,-11.90395 53.57143,-52.85715 53.57143,-52.85715 0,0 -33.14169,43.13867 -40,64.99999 -2.07174,6.60382 -1.42857,20.71429 -1.42857,20.71429 z"
             id="path8087"
             inkscape:connector-curvature="0"
             sodipodi:nodetypes="cscscc" />
        </g>
        <g
           transform="matrix(-0.02100622,0,0,0.02100622,604.26938,723.52972)"
           id="g8089"
           style="fill:#ffcc00">
          <ellipse
             ry="32.857143"
             rx="65.714287"
             cy="762.36218"
             cx="567.14288"
             style="fill:#ffcc00;fill-opacity:1;stroke:none"
             id="path8091"
             transform="matrix(0.58270937,-0.81268061,0.81268061,0.58270937,-465.7507,809.03262)" />
          <path
             style="fill:#ffcc00;fill-opacity:1;stroke:none"
             d="m 494.28571,741.6479 c 0,0 14.40901,-2.31616 20.71429,-5.71428 22.08801,-11.90395 53.57143,-52.85715 53.57143,-52.85715 0,0 -33.14169,43.13867 -40,64.99999 -2.07174,6.60382 -1.42857,20.71429 -1.42857,20.71429 z"
             id="path8093"
             inkscape:connector-curvature="0"
             sodipodi:nodetypes="cscscc" />
        </g>
        <g
           transform="matrix(-0.02100622,0,0,0.02100622,604.26937,721.52662)"
           id="g8095"
           style="fill:#ffcc00">
          <ellipse
             ry="32.857143"
             rx="65.714287"
             cy="762.36218"
             cx="567.14288"
             style="fill:#ffcc00;fill-opacity:1;stroke:none"
             id="path8097"
             transform="matrix(0.58270937,-0.81268061,0.81268061,0.58270937,-465.7507,809.03262)" />
          <path
             style="fill:#ffcc00;fill-opacity:1;stroke:none"
             d="m 494.28571,741.6479 c 0,0 14.40901,-2.31616 20.71429,-5.71428 22.08801,-11.90395 53.57143,-52.85715 53.57143,-52.85715 0,0 -33.14169,43.13867 -40,64.99999 -2.07174,6.60382 -1.42857,20.71429 -1.42857,20.71429 z"
             id="path8099"
             inkscape:connector-curvature="0"
             sodipodi:nodetypes="cscscc" />
        </g>
        <g
           transform="matrix(-0.02064274,-0.0038908,-0.0038908,0.02064274,607.30369,721.64932)"
           id="g8101"
           style="fill:#ffcc00">
          <ellipse
             ry="32.857143"
             rx="65.714287"
             cy="762.36218"
             cx="567.14288"
             style="fill:#ffcc00;fill-opacity:1;stroke:none"
             id="path8103"
             transform="matrix(0.58270937,-0.81268061,0.81268061,0.58270937,-465.7507,809.03262)" />
          <path
             style="fill:#ffcc00;fill-opacity:1;stroke:none"
             d="m 494.28571,741.6479 c 0,0 14.40901,-2.31616 20.71429,-5.71428 22.08801,-11.90395 53.57143,-52.85715 53.57143,-52.85715 0,0 -33.14169,43.13867 -40,64.99999 -2.07174,6.60382 -1.42857,20.71429 -1.42857,20.71429 z"
             id="path8105"
             inkscape:connector-curvature="0"
             sodipodi:nodetypes="cscscc" />
        </g>
      </g>
    </g>
    <g
       id="g8107"
       transform="matrix(0.485552,-0.55754244,0.55754244,0.485552,-616.03955,-2.5771103)"
       inkscape:export-filename="C:\Users\Stéphane\Desktop\Blogs\OpenFoodFacts\off-logo-en.712x575.png"
       inkscape:export-xdpi="360"
       inkscape:export-ydpi="360">
      <circle
         r="2.5"
         cy="732.36218"
         cx="608"
         style="fill:#ffcc00;fill-opacity:1"
         id="path8109"
         transform="translate(1.5,9.75)" />
      <circle
         r="2.5"
         cy="732.36218"
         cx="608"
         id="path8111"
         style="fill:#ffcc00;fill-opacity:1"
         inkscape:transform-center-x="-3.1501887"
         inkscape:transform-center-y="-1.6050895"
         transform="matrix(0.30901699,-0.95105652,0.95105652,0.30901699,-274.24997,1089.9371)" />
      <circle
         r="2.5"
         cy="732.36218"
         cx="608"
         transform="matrix(-0.809017,-0.58778525,0.58778525,-0.809017,667.85758,1685.9871)"
         inkscape:transform-center-y="-3.4919705"
         inkscape:transform-center-x="0.5530674"
         style="fill:#ffcc00;fill-opacity:1"
         id="path8113" />
      <circle
         r="2.5"
         cy="732.36218"
         cx="608"
         id="path8115"
         style="fill:#ffcc00;fill-opacity:1"
         inkscape:transform-center-x="3.4919258"
         inkscape:transform-center-y="-0.5530731"
         transform="matrix(-0.80901699,0.58778526,-0.58778526,-0.80901699,1525.8621,974.17912)" />
      <circle
         r="2.5"
         cy="732.36218"
         cx="608"
         transform="matrix(0.309017,0.95105651,-0.95105651,0.309017,1114.0304,-61.792435)"
         inkscape:transform-center-y="3.1501051"
         inkscape:transform-center-x="1.6050854"
         style="fill:#ffcc00;fill-opacity:1"
         id="path8117" />
    </g>
    <g
       transform="matrix(-0.6491698,-0.35382606,0.35382606,-0.6491698,218.16484,702.9075)"
       id="g8119"
       inkscape:export-filename="C:\Users\Stéphane\Desktop\Blogs\OpenFoodFacts\off-logo-en.712x575.png"
       inkscape:export-xdpi="360"
       inkscape:export-ydpi="360">
      <circle
         r="2.5"
         cy="732.36218"
         cx="608"
         transform="translate(1.5,9.75)"
         id="path8121"
         style="fill:#ffcc00;fill-opacity:1" />
      <circle
         r="2.5"
         cy="732.36218"
         cx="608"
         transform="matrix(0.30901699,-0.95105652,0.95105652,0.30901699,-274.24997,1089.9371)"
         inkscape:transform-center-y="-1.6050895"
         inkscape:transform-center-x="-3.1501887"
         style="fill:#ffcc00;fill-opacity:1"
         id="path8123" />
      <circle
         r="2.5"
         cy="732.36218"
         cx="608"
         id="path8125"
         style="fill:#ffcc00;fill-opacity:1"
         inkscape:transform-center-x="0.5530674"
         inkscape:transform-center-y="-3.4919705"
         transform="matrix(-0.809017,-0.58778525,0.58778525,-0.809017,667.85758,1685.9871)" />
      <circle
         r="2.5"
         cy="732.36218"
         cx="608"
         transform="matrix(-0.80901699,0.58778526,-0.58778526,-0.80901699,1525.8621,974.17912)"
         inkscape:transform-center-y="-0.5530731"
         inkscape:transform-center-x="3.4919258"
         style="fill:#ffcc00;fill-opacity:1"
         id="path8127" />
      <circle
         r="2.5"
         cy="732.36218"
         cx="608"
         id="path8129"
         style="fill:#ffcc00;fill-opacity:1"
         inkscape:transform-center-x="1.6050854"
         inkscape:transform-center-y="3.1501051"
         transform="matrix(0.309017,0.95105651,-0.95105651,0.309017,1114.0304,-61.792435)" />
    </g>
    <g
       id="g8131"
       transform="matrix(0.31450273,-0.66910564,0.66910564,0.31450273,-610.58237,190.80877)"
       inkscape:export-filename="C:\Users\Stéphane\Desktop\Blogs\OpenFoodFacts\off-logo-en.712x575.png"
       inkscape:export-xdpi="360"
       inkscape:export-ydpi="360">
      <circle
         r="2.5"
         cy="732.36218"
         cx="608"
         style="fill:#ffcc00;fill-opacity:1"
         id="path8133"
         transform="translate(1.5,9.75)" />
      <circle
         r="2.5"
         cy="732.36218"
         cx="608"
         id="path8135"
         style="fill:#ffcc00;fill-opacity:1"
         inkscape:transform-center-x="-3.1501887"
         inkscape:transform-center-y="-1.6050895"
         transform="matrix(0.30901699,-0.95105652,0.95105652,0.30901699,-274.24997,1089.9371)" />
      <circle
         r="2.5"
         cy="732.36218"
         cx="608"
         transform="matrix(-0.809017,-0.58778525,0.58778525,-0.809017,667.85758,1685.9871)"
         inkscape:transform-center-y="-3.4919705"
         inkscape:transform-center-x="0.5530674"
         style="fill:#ffcc00;fill-opacity:1"
         id="path8137" />
      <circle
         r="2.5"
         cy="732.36218"
         cx="608"
         id="path8139"
         style="fill:#ffcc00;fill-opacity:1"
         inkscape:transform-center-x="3.4919258"
         inkscape:transform-center-y="-0.5530731"
         transform="matrix(-0.80901699,0.58778526,-0.58778526,-0.80901699,1525.8621,974.17912)" />
      <circle
         r="2.5"
         cy="732.36218"
         cx="608"
         transform="matrix(0.309017,0.95105651,-0.95105651,0.309017,1114.0304,-61.792435)"
         inkscape:transform-center-y="3.1501051"
         inkscape:transform-center-x="1.6050854"
         style="fill:#ffcc00;fill-opacity:1"
         id="path8141" />
    </g>
    <path
       style="fill:#00d400;fill-opacity:1;fill-rule:nonzero;stroke:none"
       d="M 122.44657,6.3372804 C 131.63587,7.2870331 135.07702,14.767884 135,28 l 2.96392,-1.398609 c 0,-1.461895 -0.0255,-1.249361 -0.0255,-2.711244 0,-10.866897 -6.40398,-17.274677 -10.91182,-18.343579 z"
       id="path8143"
       inkscape:connector-curvature="0"
       inkscape:export-filename="C:\Users\Stéphane\Desktop\Blogs\OpenFoodFacts\off-logo-en.712x575.png"
       inkscape:export-xdpi="360"
       inkscape:export-ydpi="360"
       sodipodi:nodetypes="cccscc" />
    <g
       transform="matrix(0.89458574,0,0,0.89458574,-468.09845,-644.42698)"
       id="g8145"
       inkscape:export-filename="C:\Users\Stéphane\Desktop\Blogs\OpenFoodFacts\off-logo-en.712x575.png"
       inkscape:export-xdpi="360"
       inkscape:export-ydpi="360">
      <g
         transform="translate(-0.6875,-0.0625)"
         id="g8147">
        <path
           sodipodi:nodetypes="ccc"
           inkscape:connector-curvature="0"
           id="path8149"
           d="m 646.11882,744.69741 c 9.98853,-2.85699 22.36057,-3.40732 20.1894,-18.03175 -19.13147,-9.00363 -12.68327,7.89971 -20.1894,18.03175 z"
           style="fill:#00d400;stroke:none" />
        <path
           sodipodi:nodetypes="ccc"
           inkscape:connector-curvature="0"
           id="path8151"
           d="m 667.50879,725.1485 c -4.96993,6.86401 -15.79612,16.96445 -22.45063,19.97578 6.6817,-2.48508 19.65127,-12.66443 22.45063,-19.97578 z"
           style="fill:#ffffff;fill-opacity:1;stroke:none" />
      </g>
    </g>
    <g
       id="g8153"
       transform="matrix(0.73729109,0.50664139,0.50664139,-0.73729109,-728.9281,199.42539)"
       inkscape:export-filename="C:\Users\Stéphane\Desktop\Blogs\OpenFoodFacts\off-logo-en.712x575.png"
       inkscape:export-xdpi="360"
       inkscape:export-ydpi="360">
      <g
         transform="matrix(-0.85351374,-0.52107033,0.52107033,-0.85351374,864.58887,1695.2445)"
         id="g8155">
        <g
           transform="translate(-0.6875,-0.0625)"
           id="g8157">
          <path
             sodipodi:nodetypes="ccc"
             inkscape:connector-curvature="0"
             id="path8159"
             d="m 646.11882,744.69741 c 9.98853,-2.85699 22.36057,-3.40732 20.1894,-18.03175 -19.99874,-7.24796 -12.68327,7.89971 -20.1894,18.03175 z"
             style="fill:#00d400;stroke:none" />
          <path
             sodipodi:nodetypes="ccc"
             inkscape:connector-curvature="0"
             id="path8161"
             d="m 667.50879,725.1485 c -4.96993,6.86401 -15.79612,16.96445 -22.45063,19.97578 6.6817,-2.48508 19.65127,-12.66443 22.45063,-19.97578 z"
             style="fill:#ffffff;fill-opacity:1;stroke:none" />
        </g>
      </g>
    </g>
    <path
       sodipodi:nodetypes="cccscc"
       inkscape:export-ydpi="360"
       inkscape:export-xdpi="360"
       inkscape:export-filename="C:\Users\Stéphane\Desktop\Blogs\OpenFoodFacts\off-logo-en.712x575.png"
       inkscape:connector-curvature="0"
       id="path8163"
       d="M 137.87818,4.6040196 C 135.88514,6.1688092 135.07702,14.767884 135,28 l 2.96392,-1.398609 c 0,-1.461895 0.0361,1.860492 0.0361,0.398609 0,-10.866897 0.85886,-19.3222012 1.21536,-21.1179659 z"
       style="fill:#00d400;fill-opacity:1;fill-rule:nonzero;stroke:none" />
    <circle
       r="0.94885141"
       cy="35.27636"
       cx="159.09236"
       inkscape:export-ydpi="360"
       inkscape:export-xdpi="360"
       inkscape:export-filename="C:\Users\Stéphane\Desktop\Blogs\OpenFoodFacts\off-logo-en.712x575.png"
       style="fill:#00ccff;fill-opacity:1;stroke:none"
       id="path8165" />
    <g
       transform="matrix(0.89476596,0,0,0.89458574,-763.01815,-727.33576)"
       id="g8167"
       inkscape:export-filename="C:\Users\Stéphane\Desktop\Blogs\OpenFoodFacts\off-logo-en.712x575.png"
       inkscape:export-xdpi="360"
       inkscape:export-ydpi="360">
      <path
         inkscape:connector-curvature="0"
         style="fill:#0066ff;fill-opacity:1;fill-rule:nonzero;stroke:none"
         d="m 1042.7511,944.94661 0,5.58918 c 2.9792,0 5.9616,0 8.9408,0 l 0,-5.58918 c -2.9792,0 -5.9616,0 -8.9407,0 z"
         id="path8169"
         inkscape:export-filename="C:\Users\Stéphane\Desktop\Blogs\OpenFoodFacts\openfoodfacts-250b.png"
         inkscape:export-xdpi="112.45"
         inkscape:export-ydpi="112.45"
         sodipodi:nodetypes="cccccc" />
      <path
         inkscape:connector-curvature="0"
         style="fill:#00ccff;fill-opacity:1;fill-rule:nonzero;stroke:none"
         d="m 1024.8693,944.94661 0,5.58918 c 4.8438,0 9.6851,0 14.5289,0 l 0,-5.58918 c -4.8438,0 -9.6851,0 -14.5289,0 z"
         id="path8171"
         inkscape:export-filename="C:\Users\Stéphane\Desktop\Blogs\OpenFoodFacts\openfoodfacts-250b.png"
         inkscape:export-xdpi="112.45"
         inkscape:export-ydpi="112.45"
         sodipodi:nodetypes="ccccc" />
      <path
         inkscape:connector-curvature="0"
         style="fill:#00d400;fill-opacity:1;fill-rule:nonzero;stroke:none"
         d="m 958.93025,944.94661 0,5.58918 c 20.85417,0 41.73205,0 62.58625,0 l 0,-5.58918 c -20.8542,0 -41.73208,0 -62.58625,0 z"
         id="path8173"
         inkscape:export-filename="C:\Users\Stéphane\Desktop\Blogs\OpenFoodFacts\openfoodfacts-250b.png"
         inkscape:export-xdpi="112.45"
         inkscape:export-ydpi="112.45"
         sodipodi:nodetypes="ccccc" />
      <path
         inkscape:connector-curvature="0"
         style="fill:#ffcc00;fill-opacity:1;fill-rule:nonzero;stroke:none"
         d="m 894.10883,944.94661 0,5.58918 c 20.48959,0 40.97901,0 61.46859,0 l 0,-5.58918 c -20.48958,0 -40.979,0 -61.46859,0 z"
         id="path8175"
         inkscape:export-filename="C:\Users\Stéphane\Desktop\Blogs\OpenFoodFacts\openfoodfacts-250b.png"
         inkscape:export-xdpi="112.45"
         inkscape:export-ydpi="112.45"
         sodipodi:nodetypes="ccccc" />
      <path
         inkscape:connector-curvature="0"
         style="fill:#ff0000;fill-opacity:1;fill-rule:nonzero;stroke:none"
         d="m 852.75724,944.94661 0,5.58918 c 12.66667,0 25.3321,0 37.99876,0 l 0,-5.58918 c -12.66666,0 -25.33209,0 -37.99876,0 z"
         id="path8177"
         inkscape:export-filename="C:\Users\Stéphane\Desktop\Blogs\OpenFoodFacts\openfoodfacts-250b.png"
         inkscape:export-xdpi="112.45"
         inkscape:export-ydpi="112.45"
         sodipodi:nodetypes="ccccc" />
    </g>
    <g
       style="font-style:normal;font-variant:normal;font-weight:normal;font-stretch:normal;font-size:32.81705093px;line-height:125%;font-family:'Arial Narrow';-inkscape-font-specification:'Arial Narrow';letter-spacing:0px;word-spacing:0px;fill:#333333;fill-opacity:1;stroke:none"
       id="text8179"
       inkscape:export-filename="C:\Users\Stéphane\Desktop\Blogs\OpenFoodFacts\off-logo-en.712x575.png"
       inkscape:export-xdpi="360"
       inkscape:export-ydpi="360"
       transform="translate(0,2.6378174)">
      <path
         d="m 0.29533203,104.18406 c -9.5e-7,-2.79573 0.61506181,-4.944723 1.84519007,-6.446982 1.2301228,-1.50223 2.7621882,-2.253352 4.5962009,-2.253369 1.1853862,1.7e-5 2.2664056,0.335506 3.2430614,1.006468 0.9766346,0.670993 1.7501226,1.645774 2.3204666,2.924346 0.570318,1.278597 0.855483,2.801347 0.855497,4.568247 -1.4e-5,2.43043 -0.551707,4.40982 -1.65508,5.93815 -1.215227,1.68491 -2.8069346,2.52736 -4.775128,2.52736 -1.9831188,0 -3.5785543,-0.86482 -4.7863113,-2.59445 -1.09593262,-1.56562 -1.64389762,-3.45554 -1.64389667,-5.66977 z m 1.83400717,0.0335 c -2.8e-6,2.0204 0.4454517,3.58787 1.3363649,4.70244 0.890905,1.11457 1.9737882,1.67185 3.2486529,1.67185 1.3046712,0 2.3987374,-0.56287 3.2822018,-1.68863 0.8834432,-1.12574 1.3251702,-2.78082 1.3251822,-4.96524 -1.2e-5,-1.40904 -0.227399,-2.66899 -0.682161,-3.77984 C 10.289169,99.308298 9.761706,98.628001 9.0571893,98.117299 8.3526532,97.606624 7.5828928,97.35128 6.7479059,97.351265 5.4059434,97.35128 4.3006943,97.910428 3.4321552,99.028711 2.563608,100.14702 2.1293364,101.87665 2.1293392,104.21761 Z"
         style="font-size:22.90272331px;fill:#333333"
         id="path3685"
         inkscape:connector-curvature="0" />
      <path
         d="m 15,112.36218 0,-16.999997 4.674837,0 c 1.224167,1.6e-5 2.126995,0.107131 2.708487,0.321346 0.795704,0.290757 1.430744,0.830159 1.905122,1.618206 0.474357,0.788077 0.711542,1.755941 0.711554,2.903595 -1.2e-5,1.51492 -0.386392,2.75057 -1.159142,3.70695 -0.772771,0.9564 -2.107912,1.42433 -4.005348,1.43458 L 17,105.36218 l 0,7 z m 2,-9 2.86994,-7.7e-4 c 1.124703,-3e-4 1.947195,-0.25439 2.467477,-0.7632 0.520265,-0.50879 0.780403,-1.27581 0.780412,-2.30107 -9e-6,-0.665632 -0.128166,-1.235638 -0.384467,-1.710022 -0.256321,-0.474353 -0.56619,-0.799524 -0.929608,-0.975514 -0.363435,-0.17596 -1.019516,-0.263948 -1.968244,-0.263963 L 17,97.362183 Z"
         style="font-size:22.90272331px;fill:#333333"
         id="path3687"
         inkscape:connector-curvature="0"
         sodipodi:nodetypes="ccccccssccccsscccccc" />
      <path
         d="m 27,112.36218 0,-16.999997 10,0 0,2 -8,0 0,4.999997 7,0 0,2 -7,0 0,6 8,0 0,2 z"
         style="font-size:22.90272331px;fill:#333333"
         id="path3689"
         inkscape:connector-curvature="0"
         sodipodi:nodetypes="ccccccccccccc" />
      <path
         d="m 39,112.36218 0,-16.999997 2,0 7,12.999997 0,-12.999997 2,0 0,16.999997 -2,0 -7,-12.999997 0,12.999997 z"
         style="font-size:22.90272331px;fill:#333333"
         id="path3691"
         inkscape:connector-curvature="0"
         sodipodi:nodetypes="ccccccccccc" />
      <path
         d="m 58,112.36218 0,-16.999997 9,0 0,2 -7,0 0,4.999997 6,0 0,2 -6,0 0,8 z"
         style="font-size:22.90272331px;fill:#333333"
         id="path3693"
         inkscape:connector-curvature="0"
         sodipodi:nodetypes="ccccccccccc" />
      <path
         d="m 68.255995,104.18406 c -10e-7,-2.79573 0.615062,-4.944723 1.84519,-6.446982 1.230123,-1.50223 2.762188,-2.253352 4.596201,-2.253369 1.185386,1.7e-5 2.266405,0.335506 3.243061,1.006468 0.976635,0.670993 1.750123,1.645774 2.320467,2.924346 0.570318,1.278597 0.855483,2.801347 0.855497,4.568247 -1.4e-5,2.43043 -0.551707,4.40982 -1.65508,5.93815 -1.215227,1.68491 -2.806935,2.52736 -4.775128,2.52736 -1.983119,0 -3.578554,-0.86482 -4.786311,-2.59445 -1.095933,-1.56562 -1.643898,-3.45554 -1.643897,-5.66977 z m 1.834007,0.0335 c -3e-6,2.0204 0.445452,3.58787 1.336365,4.70244 0.890905,1.11457 1.973788,1.67185 3.248653,1.67185 1.304671,0 2.398737,-0.56287 3.282202,-1.68863 0.883443,-1.12574 1.32517,-2.78082 1.325182,-4.96524 -1.2e-5,-1.40904 -0.227399,-2.66899 -0.682162,-3.77984 -0.35041,-0.849892 -0.877873,-1.530189 -1.58239,-2.040891 -0.704536,-0.510675 -1.474296,-0.766019 -2.309283,-0.766034 -1.341963,1.5e-5 -2.447212,0.559163 -3.315751,1.677446 -0.868547,1.118309 -1.302819,2.847939 -1.302816,5.188899 z"
         style="font-size:22.90272331px;fill:#333333"
         id="path3695"
         inkscape:connector-curvature="0"
         sodipodi:nodetypes="sscccccscsssssccccss" />
      <path
         d="m 82.883322,104.18406 c -1e-6,-2.79573 0.615062,-4.944723 1.84519,-6.446982 1.230123,-1.50223 2.762188,-2.253352 4.596201,-2.253369 1.185386,1.7e-5 2.266405,0.335506 3.243061,1.006468 0.976635,0.670993 1.750123,1.645774 2.320467,2.924346 0.570317,1.278597 0.855483,2.801347 0.855497,4.568247 -1.4e-5,2.43043 -0.551707,4.40982 -1.65508,5.93815 -1.215227,1.68491 -2.806935,2.52736 -4.775128,2.52736 -1.983119,0 -3.578555,-0.86482 -4.786312,-2.59445 -1.095932,-1.56562 -1.643897,-3.45554 -1.643896,-5.66977 z m 1.834007,0.0335 c -3e-6,2.0204 0.445452,3.58787 1.336365,4.70244 0.890905,1.11457 1.973788,1.67185 3.248653,1.67185 1.304671,0 2.398737,-0.56287 3.282202,-1.68863 0.883443,-1.12574 1.32517,-2.78082 1.325182,-4.96524 -1.2e-5,-1.40904 -0.227399,-2.66899 -0.682162,-3.77984 -0.35041,-0.849892 -0.877873,-1.530189 -1.58239,-2.040891 -0.704536,-0.510675 -1.474296,-0.766019 -2.309283,-0.766034 -1.341963,1.5e-5 -2.447212,0.559163 -3.315751,1.677446 -0.868547,1.118309 -1.302819,2.847939 -1.302816,5.188899 z"
         style="font-size:22.90272331px;fill:#333333"
         id="path3697"
         inkscape:connector-curvature="0"
         sodipodi:nodetypes="sscccccscsssssccccss" />
      <path
         d="m 98,112.36218 0,-16.999997 5,0 c 1.21266,1.6e-5 2.00501,0.174276 2.63497,0.382679 0.82682,0.270189 1.54339,0.719576 2.14974,1.437449 0.60633,0.717903 1.0788,1.622982 1.41741,2.715233 0.33859,1.092286 0.50789,2.387186 0.5079,3.884706 -1e-5,1.9221 -0.28743,3.55278 -0.86225,4.89207 -0.57485,1.33928 -1.31309,2.28875 -2.21471,2.8484 -0.90163,0.55964 -2.17628,0.83946 -3.63306,0.83946 z m 2,-2 3,0 c 1.22054,0 2.01682,-0.19791 2.64678,-0.58773 0.62996,-0.38982 1.11424,-1.01701 1.45285,-1.88157 0.44883,-1.15015 0.67326,-2.52803 0.67327,-4.13365 -1e-5,-1.72137 -0.23822,-3.07416 -0.71461,-4.058372 -0.47642,-0.984193 -1.08866,-1.642257 -1.83673,-1.974198 C 104.71759,97.502677 104.09454,97.362198 103,97.362183 l -3,0 z"
         style="font-size:22.90272331px;fill:#333333"
         id="path3699"
         inkscape:connector-curvature="0"
         sodipodi:nodetypes="ccccccccssccssccccccc" />
      <path
         d="m 118,112.36218 0.0757,-16.999997 9,0 0,2 -7,3.8e-5 0,4.999999 6,0 0,2 -6,0 0,7.99996 z"
         style="font-size:22.90272331px;fill:#333333"
         id="path3701"
         inkscape:connector-curvature="0"
         sodipodi:nodetypes="ccccccccccc" />
      <path
         d="m 128.07572,112.36218 5,-16.999997 2,0 5,16.999997 -2,0 -4,-14.999997 -4.04025,14.999997 z"
         style="font-size:22.90272331px;fill:#333333"
         id="path3703"
         inkscape:connector-curvature="0"
         sodipodi:nodetypes="cccccccc" />
      <path
         d="m 151.36137,106.42065 1.78927,0.54797 c -0.39514,1.84147 -1.08662,3.21511 -2.07444,4.12092 -0.98784,0.90583 -2.19001,1.35874 -3.60651,1.35874 -1.24504,0 -2.30929,-0.30381 -3.19273,-0.91142 -0.88346,-0.6076 -1.60663,-1.58238 -2.1695,-2.92434 -0.56288,-1.34195 -0.84432,-2.92621 -0.84432,-4.75277 0,-1.80417 0.28144,-3.33065 0.84432,-4.579422 0.56287,-1.248751 1.32518,-2.191847 2.28692,-2.829292 0.96173,-0.637413 2.03529,-0.956127 3.22069,-0.956144 1.29722,1.7e-5 2.41179,0.404467 3.34371,1.213353 0.9319,0.808916 1.58424,1.996173 1.95702,3.561775 l -1.74454,0.50323 c -0.59644,-2.281308 -1.79302,-3.42197 -3.58974,-3.421985 -0.89464,1.5e-5 -1.66999,0.229266 -2.32605,0.687753 -0.65608,0.458516 -1.17981,1.172361 -1.57121,2.141542 -0.39141,0.9692 -0.58711,2.1956 -0.58711,3.67919 0,2.24406 0.39513,3.92709 1.1854,5.04912 0.79026,1.12202 1.84145,1.68303 3.15359,1.68303 0.96919,0 1.80605,-0.3448 2.51058,-1.03442 0.70452,-0.68962 1.17607,-1.73522 1.41465,-3.13683 z"
         style="font-size:22.90272331px;fill:#333333"
         id="path3705"
         inkscape:connector-curvature="0"
         sodipodi:nodetypes="ccsscssscccccccsssssc" />
      <path
         d="m 159,112.36218 0,-14.999997 -5,0.0061 0,-2.006138 12,0 0,2 -5,0 0,14.999995 z"
         style="font-size:22.90272331px;fill:#333333"
         id="path3707"
         inkscape:connector-curvature="0"
         sodipodi:nodetypes="ccccccccc" />
      <path
         d="m 167.26826,106.90152 1.67745,-0.17893 c 0.0895,0.9021 0.29262,1.60476 0.60947,2.10799 0.31685,0.50324 0.76976,0.90769 1.35873,1.21336 0.58897,0.30567 1.25249,0.4585 1.99057,0.4585 1.05865,0 1.88059,-0.25907 2.46585,-0.77722 0.58523,-0.51814 0.87785,-1.19098 0.87786,-2.01852 -1e-5,-0.48459 -0.10625,-0.90768 -0.31872,-1.26927 -0.21248,-0.36158 -0.53306,-0.65793 -0.96173,-0.88905 -0.42869,-0.23111 -1.35501,-0.55541 -2.77897,-0.97292 -1.26741,-0.37275 -2.1695,-0.74925 -2.70628,-1.12948 -0.53678,-0.38021 -0.95428,-0.86294 -1.25249,-1.44819 -0.29822,-0.58523 -0.44732,-1.24689 -0.44732,-1.98498 0,-1.32703 0.42868,-2.411777 1.28604,-3.254242 0.85736,-0.842434 2.01293,-1.263659 3.46672,-1.263676 0.99901,1.7e-5 1.87314,0.197583 2.62241,0.592698 0.74925,0.395147 1.33076,0.96175 1.74454,1.699811 0.41376,0.73809 0.63556,1.606633 0.66539,2.605629 l -1.711,0.15656 c -0.0895,-1.066092 -0.40818,-1.856355 -0.95614,-2.370785 -0.54797,-0.514402 -1.31773,-0.77161 -2.30928,-0.771625 -1.00648,1.5e-5 -1.77437,0.225538 -2.30369,0.67657 -0.52934,0.45106 -0.794,1.034438 -0.794,1.750135 0,0.663535 0.19384,1.177955 0.58152,1.543245 0.38767,0.36533 1.25994,0.73436 2.61681,1.10712 1.32704,0.36532 2.25896,0.68217 2.79575,0.95055 0.82007,0.41751 1.43886,0.96734 1.85637,1.64949 0.41749,0.68217 0.62623,1.49666 0.62625,2.44348 -2e-5,0.93937 -0.21995,1.79487 -0.6598,2.56649 -0.43987,0.77163 -1.03816,1.35873 -1.79487,1.76132 -0.75672,0.40258 -1.66813,0.60388 -2.73423,0.60388 -1.66254,0 -2.98772,-0.49951 -3.97555,-1.49852 -0.98783,-0.99901 -1.50038,-2.35215 -1.53766,-4.05942 z"
         style="font-size:22.90272331px;fill:#333333"
         id="path3709"
         inkscape:connector-curvature="0" />
      <path
         sodipodi:nodetypes="ccccc"
         inkscape:connector-curvature="0"
         id="path3713"
         style="font-size:22.90272331px;fill:#333333"
         d="m 137.07572,105.36218 0,2 -6,0 0,-2 z" />
    </g>
    <g
       transform="scale(0.90339875,1.1069309)"
       style="font-style:normal;font-variant:normal;font-weight:normal;font-stretch:normal;font-size:48.55173492px;line-height:125%;font-family:'Arial Narrow';-inkscape-font-specification:'Arial Narrow';letter-spacing:0px;word-spacing:0px;fill:#333333;fill-opacity:1;stroke:none"
       id="text3715-6">
      <path
         d="m 190.73069,123.79496 q -0.2709,0 -0.40093,-0.29257 -0.13003,-0.30341 -0.13003,-0.68266 0,-0.37926 0.13003,-0.67183 0.13003,-0.30341 0.40093,-0.30341 0.5743,0 1.02941,0 0.45511,0 0.87772,-0.0108 0.4226,-0.0108 0.8452,-0.0325 0.4226,-0.0217 0.93189,-0.0542 0.46594,-0.0325 0.71517,-0.20589 0.26006,-0.17337 0.41177,-0.32507 0.0108,-0.31425 -0.0542,-0.59598 -0.065,-0.28173 -0.18421,-0.46595 -0.30341,0.2384 -0.67183,0.44428 -0.35759,0.20588 -0.73685,0.20588 -0.3034,0 -0.53096,-0.10836 -0.22755,-0.11919 -0.37925,-0.31424 -0.15171,-0.19505 -0.22756,-0.44427 -0.065,-0.26007 -0.065,-0.5418 0,-0.18421 0.0434,-0.45511 0.0542,-0.2709 0.14087,-0.5743 0.0975,-0.30341 0.23839,-0.60682 0.14086,-0.3034 0.31424,-0.54179 0.17337,-0.2384 0.37926,-0.3901 0.20588,-0.1517 0.44427,-0.1517 0.28173,0 0.53096,0.23839 0.26006,0.22755 0.46595,0.59598 0.20588,0.35758 0.36842,0.81269 0.16254,0.45511 0.2709,0.89938 0.10836,0.43344 0.16254,0.8127 0.065,0.37926 0.065,0.60681 0,0.72601 -0.30341,1.31115 -0.29257,0.58514 -0.79102,0.99691 -0.49845,0.41176 -1.13777,0.62848 -0.63932,0.21672 -1.32199,0.21672 l -1.83127,0 z m 3.27245,-5.50466 q -0.11919,0 -0.26006,0.0867 -0.13003,0.0867 -0.23839,0.21672 -0.10836,0.1192 -0.18421,0.2709 -0.065,0.14087 -0.065,0.2709 0,0.13003 0.065,0.22755 0.0759,0.0975 0.18421,0.1517 0.10836,0.0542 0.23839,0.0867 0.13003,0.0217 0.23839,0.0217 0.0542,0 0.17338,-0.0217 0.11919,-0.0325 0.24922,-0.0759 0.14087,-0.0433 0.2709,-0.0975 0.13003,-0.065 0.20588,-0.1192 -0.0325,-0.13003 -0.13003,-0.3034 -0.0867,-0.17338 -0.21672,-0.32508 -0.11919,-0.16254 -0.26006,-0.2709 -0.14087,-0.1192 -0.2709,-0.1192 z m 1.02942,-2.88236 -1.12694,-1.12693 1.12694,-1.12694 1.15944,1.12694 -1.15944,1.12693 z m -2.27555,0 -1.15945,-1.12693 1.15945,-1.12694 1.12694,1.12694 -1.12694,1.12693 z"
         style="font-style:normal;font-variant:normal;font-weight:normal;font-stretch:normal;font-size:22.19200134px;font-family:Lateef;-inkscape-font-specification:Lateef;fill:#333333;fill-opacity:1"
         id="path12186" />
      <path
         d="m 190.11303,123.79496 q -0.54179,0 -0.94272,-0.29257 -0.3901,-0.30341 -0.661,-0.78019 -0.26006,-0.48762 -0.4226,-1.08359 -0.1517,-0.60681 -0.23839,-1.20279 -0.0867,-0.60681 -0.11919,-1.14861 -0.0217,-0.5418 -0.0325,-0.91022 l -0.10836,-5.38546 0.91022,-1.02941 0,5.56967 q 0,0.3034 0.0433,0.80186 0.0434,0.48761 0.13003,0.9969 0.0867,0.50929 0.20589,0.97524 0.11919,0.45511 0.28173,0.71517 0.31424,0.50929 0.71517,0.67183 0.40093,0.1517 0.87771,0.1517 l 0.67183,0 q 0.1517,0 0.26006,0.0867 0.1192,0.0759 0.19505,0.21672 0.0867,0.13003 0.1192,0.3034 0.0433,0.17338 0.0433,0.36843 0,0.19504 -0.0433,0.36842 -0.0325,0.17337 -0.1192,0.31424 -0.0759,0.13003 -0.19505,0.21672 -0.10836,0.0759 -0.26006,0.0759 l -1.31115,0 z"
         style="font-style:normal;font-variant:normal;font-weight:normal;font-stretch:normal;font-size:22.19200134px;font-family:Lateef;-inkscape-font-specification:Lateef;fill:#333333;fill-opacity:1"
         id="path12188" />
      <path
         d="m 180.18731,121.84449 q -0.17338,-0.34675 -0.26006,-0.73684 -0.0758,-0.3901 -0.0758,-0.76935 0,-0.49846 0.16253,-1.07276 0.17338,-0.58514 0.48762,-1.0836 0.31424,-0.49845 0.76935,-0.82353 0.45511,-0.33591 1.04025,-0.33591 0.36842,0 0.73685,0.1517 0.36842,0.14087 0.6935,0.37926 0.33591,0.22755 0.59597,0.53096 0.2709,0.30341 0.42261,0.62849 l -0.1192,0.10835 q -0.26006,-0.11919 -0.46595,-0.20588 -0.20588,-0.0867 -0.41176,-0.14087 -0.20588,-0.0542 -0.44427,-0.0758 -0.22756,-0.0217 -0.5418,-0.0217 -0.29257,0 -0.67183,0.1192 -0.36842,0.10836 -0.70434,0.28173 -0.33591,0.17338 -0.56346,0.36842 -0.22756,0.18421 -0.22756,0.34675 0,0.26007 0.21672,0.59598 0.22755,0.32508 0.55263,0.61765 0.32508,0.29257 0.6935,0.49845 0.37926,0.19505 0.68267,0.19505 0.26006,0 0.66099,-0.0867 0.40093,-0.0867 0.83437,-0.20588 0.43343,-0.1192 0.8452,-0.23839 0.41176,-0.13003 0.68266,-0.20589 l -0.56347,1.57121 q -0.35758,0.14087 -0.85603,0.31425 -0.49846,0.17337 -1.0836,0.34675 -0.5743,0.17337 -1.20279,0.33591 -0.62848,0.16254 -1.25697,0.29257 -0.61764,0.1192 -1.20279,0.19505 -0.58514,0.0759 -1.07275,0.0759 l -1.02942,0 q -0.24922,0 -0.36842,-0.29257 -0.13003,-0.30341 -0.13003,-0.68266 0,-0.37926 0.13003,-0.67183 0.1192,-0.30341 0.36842,-0.30341 l 2.67648,0 z"
         style="font-style:normal;font-variant:normal;font-weight:normal;font-stretch:normal;font-size:22.19200134px;font-family:Lateef;-inkscape-font-specification:Lateef;fill:#333333;fill-opacity:1"
         id="path12190" />
      <path
         d="m 175.66872,121.61694 q -0.0975,0.49845 -0.37926,0.92105 -0.28174,0.4226 -0.68267,0.72601 -0.39009,0.30341 -0.87771,0.47678 -0.47678,0.16254 -0.96439,0.16254 -0.16254,0 -0.45511,-0.0108 -0.28174,0 -0.57431,-0.065 -0.28173,-0.0542 -0.49845,-0.17338 -0.20588,-0.13003 -0.20588,-0.36842 l 0,-2.17802 q 0.20588,0.37926 0.58514,0.61765 0.37925,0.22755 0.81269,0.22755 0.35759,0 0.76935,-0.0867 0.41177,-0.0867 0.82353,-0.22755 0.42261,-0.14087 0.80186,-0.32508 0.37926,-0.19505 0.67183,-0.40093 l -0.93189,-3.8901 0.50929,-1.57121 1.33282,4.76781 q 0.37926,1.37616 0.87771,1.56038 0.17338,0.065 0.40093,0.065 0.22756,0 0.56347,0 0.29257,0 0.43344,0.30341 0.1517,0.29257 0.1517,0.67183 0,0.37925 -0.1517,0.68266 -0.14087,0.29257 -0.43344,0.29257 l -1.04025,0 q -0.26006,0 -0.50929,-0.26006 -0.23839,-0.26007 -0.44427,-0.61765 -0.20589,-0.35759 -0.35759,-0.72601 -0.1517,-0.36842 -0.22755,-0.5743 z"
         style="font-style:normal;font-variant:normal;font-weight:normal;font-stretch:normal;font-size:22.19200134px;font-family:Lateef;-inkscape-font-specification:Lateef;fill:#333333;fill-opacity:1"
         id="path12192" />
      <path
         d="m 166.75075,116.79494 q 0.065,0.37926 0.28174,0.63932 0.21672,0.24923 0.49845,0.45511 0.28174,0.20589 0.58514,0.41177 0.31425,0.20588 0.57431,0.49845 0.26006,0.29257 0.4226,0.70434 0.17337,0.41176 0.17337,1.04025 0,0.29257 -0.0759,0.65015 -0.065,0.35759 -0.20588,0.72601 -0.14087,0.35759 -0.34675,0.70434 -0.19505,0.34675 -0.44427,0.61765 -0.24923,0.26006 -0.56347,0.4226 -0.30341,0.16254 -0.65016,0.16254 -0.80186,0 -1.15944,-0.45511 -0.35759,-0.45511 -0.35759,-1.21363 0,-0.34675 0.065,-0.73684 0.065,-0.39009 0.18421,-0.78019 0.11919,-0.39009 0.2709,-0.75851 0.16253,-0.36843 0.35758,-0.661 -0.0975,-0.0867 -0.11919,-0.24922 -0.0217,-0.16254 -0.0217,-0.31424 0,-0.21672 0.0434,-0.46595 0.0433,-0.24923 0.10836,-0.49845 0.0759,-0.24923 0.17337,-0.47678 0.0975,-0.2384 0.20588,-0.42261 z m 0.29258,5.10373 q 0.14086,0 0.40092,-0.0759 0.26007,-0.0758 0.50929,-0.19505 0.26007,-0.11919 0.44428,-0.28173 0.19504,-0.16254 0.19504,-0.33592 0,-0.0975 -0.21671,-0.31424 -0.20589,-0.22755 -0.49846,-0.47678 -0.28173,-0.24923 -0.58514,-0.46594 -0.3034,-0.21672 -0.49845,-0.28174 -0.13003,0.10836 -0.23839,0.29257 -0.10836,0.17338 -0.19505,0.36842 -0.0759,0.18421 -0.11919,0.35759 -0.0434,0.17337 -0.0434,0.29257 0,0.20588 0.0434,0.41176 0.0433,0.20589 0.14086,0.35759 0.0975,0.1517 0.26007,0.24923 0.16253,0.0975 0.40093,0.0975 z"
         style="font-style:normal;font-variant:normal;font-weight:normal;font-stretch:normal;font-size:22.19200134px;font-family:Lateef;-inkscape-font-specification:Lateef;fill:#333333;fill-opacity:1"
         id="path12194" />
      <path
         d="m 158.42875,121.84449 q 0.0542,0 0.10836,-0.0542 0.0542,-0.065 0.0975,-0.14087 0.0434,-0.0867 0.065,-0.17337 0.0217,-0.0867 0.0217,-0.14087 0,-0.0759 -0.0542,-0.24922 -0.0433,-0.18422 -0.11919,-0.37926 -0.065,-0.19505 -0.14087,-0.34675 -0.0759,-0.16254 -0.13003,-0.20589 l 0.61765,-1.57121 q 0.31424,0.41177 0.45511,0.95357 0.14086,0.53096 0.14086,1.06192 0,0.40093 -0.0867,0.80186 -0.0759,0.40093 -0.23839,0.76935 -0.0975,0.22755 -0.30341,0.50929 -0.19505,0.28173 -0.44427,0.53096 -0.24923,0.24923 -0.53097,0.4226 -0.28173,0.16254 -0.54179,0.16254 l -1.63623,0 q -0.13003,0 -0.22755,-0.0867 -0.10836,-0.0867 -0.17338,-0.22755 -0.065,-0.14087 -0.0975,-0.31424 -0.0325,-0.18422 -0.0325,-0.37926 0,-0.37926 0.13003,-0.66099 0.13003,-0.28174 0.40093,-0.28174 l 2.71982,0 z m -0.17337,5.55884 -1.12694,-1.12694 1.12694,-1.12694 1.12693,1.12694 -1.12693,1.12694 z"
         style="font-style:normal;font-variant:normal;font-weight:normal;font-stretch:normal;font-size:22.19200134px;font-family:Lateef;-inkscape-font-specification:Lateef;fill:#333333;fill-opacity:1"
         id="path12196" />
      <path
         d="m 150.89778,123.79496 q -0.24923,0 -0.37926,-0.29257 -0.13003,-0.30341 -0.13003,-0.68266 0,-0.37926 0.13003,-0.67183 0.13003,-0.30341 0.37926,-0.30341 0.28173,0 0.5743,0 0.30341,0 0.57431,-0.0108 0.28173,-0.0108 0.52012,-0.0325 0.24923,-0.0325 0.41177,-0.0759 0.24923,-0.065 0.39009,-0.24923 0.15171,-0.19505 0.24923,-0.4226 0.0975,-0.23839 0.16254,-0.47678 0.065,-0.24923 0.14087,-0.42261 0.0108,-0.0325 0.0542,-0.0433 0.0433,-0.0217 0.0867,-0.0217 0.0542,0 0.0867,0.0325 0.0325,0.0217 0.0217,0.0759 -0.0217,0.17337 -0.0325,0.34675 -0.0108,0.17337 -0.0108,0.22755 0,0.37926 0.23839,0.59598 0.24923,0.21672 0.60681,0.32508 0.35759,0.0975 0.75852,0.13003 0.41176,0.0217 0.72601,0.0217 0.27089,0 0.40093,0.30341 0.14086,0.29257 0.14086,0.67183 0,0.37925 -0.14086,0.68266 -0.13004,0.29257 -0.40093,0.29257 l -1.24614,0 q -0.22755,0 -0.46594,-0.0975 -0.23839,-0.0975 -0.46595,-0.2709 -0.21672,-0.17338 -0.41176,-0.40093 -0.18421,-0.22756 -0.31425,-0.49845 -0.0975,0.19504 -0.28173,0.4226 -0.17337,0.21672 -0.40093,0.41176 -0.21672,0.18421 -0.46594,0.31424 -0.2384,0.1192 -0.47679,0.1192 l -1.02941,0 z m 3.77091,3.60837 -1.12694,-1.12694 1.12694,-1.12694 1.15944,1.12694 -1.15944,1.12694 z m -2.27555,0 -1.15945,-1.12694 1.15945,-1.12694 1.12694,1.12694 -1.12694,1.12694 z"
         style="font-style:normal;font-variant:normal;font-weight:normal;font-stretch:normal;font-size:22.19200134px;font-family:Lateef;-inkscape-font-specification:Lateef;fill:#333333;fill-opacity:1"
         id="path12198" />
      <path
         d="m 150.32347,123.79496 q -0.5418,0 -0.94273,-0.29257 -0.39009,-0.30341 -0.66099,-0.78019 -0.26006,-0.48762 -0.4226,-1.08359 -0.15171,-0.60681 -0.23839,-1.20279 -0.0867,-0.60681 -0.1192,-1.14861 -0.0217,-0.5418 -0.0325,-0.91022 l -0.10836,-5.38546 0.91022,-1.02941 0,5.56967 q 0,0.3034 0.0434,0.80186 0.0433,0.48761 0.13003,0.9969 0.0867,0.50929 0.20588,0.97524 0.11919,0.45511 0.28173,0.71517 0.31425,0.50929 0.71518,0.67183 0.40093,0.1517 0.87771,0.1517 l 0.67182,0 q 0.15171,0 0.26007,0.0867 0.11919,0.0759 0.19504,0.21672 0.0867,0.13003 0.1192,0.3034 0.0433,0.17338 0.0433,0.36843 0,0.19504 -0.0433,0.36842 -0.0325,0.17337 -0.1192,0.31424 -0.0759,0.13003 -0.19504,0.21672 -0.10836,0.0759 -0.26007,0.0759 l -1.31114,0 z"
         style="font-style:normal;font-variant:normal;font-weight:normal;font-stretch:normal;font-size:22.19200134px;font-family:Lateef;-inkscape-font-specification:Lateef;fill:#333333;fill-opacity:1"
         id="path12200" />
      <path
         d="m 144.9055,121.84449 q 0.0542,0 0.10836,-0.0542 0.0542,-0.065 0.0975,-0.14087 0.0433,-0.0867 0.065,-0.17337 0.0217,-0.0867 0.0217,-0.14087 0,-0.0759 -0.0542,-0.24922 -0.0434,-0.18422 -0.1192,-0.37926 -0.065,-0.19505 -0.14086,-0.34675 -0.0759,-0.16254 -0.13004,-0.20589 l 0.61765,-1.57121 q 0.31424,0.41177 0.45511,0.95357 0.14087,0.53096 0.14087,1.06192 0,0.40093 -0.0867,0.80186 -0.0759,0.40093 -0.23839,0.76935 -0.0975,0.22755 -0.30341,0.50929 -0.19504,0.28173 -0.44427,0.53096 -0.24923,0.24923 -0.53096,0.4226 -0.28173,0.16254 -0.5418,0.16254 l -1.63622,0 q -0.13003,0 -0.22756,-0.0867 -0.10836,-0.0867 -0.17337,-0.22755 -0.065,-0.14087 -0.0975,-0.31424 -0.0325,-0.18422 -0.0325,-0.37926 0,-0.37926 0.13003,-0.66099 0.13003,-0.28174 0.40093,-0.28174 l 2.71982,0 z m -0.0975,-4.61611 -1.12693,-1.12694 1.12693,-1.12693 1.12694,1.12693 -1.12694,1.12694 z"
         style="font-style:normal;font-variant:normal;font-weight:normal;font-stretch:normal;font-size:22.19200134px;font-family:Lateef;-inkscape-font-specification:Lateef;fill:#333333;fill-opacity:1"
         id="path12202" />
      <path
         d="m 141.56803,123.79496 q -0.54179,0 -0.94272,-0.29257 -0.3901,-0.30341 -0.66099,-0.78019 -0.26007,-0.48762 -0.42261,-1.08359 -0.1517,-0.60681 -0.23839,-1.20279 -0.0867,-0.60681 -0.11919,-1.14861 -0.0217,-0.5418 -0.0325,-0.91022 l -0.10836,-5.38546 0.91022,-1.02941 0,5.56967 q 0,0.3034 0.0433,0.80186 0.0433,0.48761 0.13003,0.9969 0.0867,0.50929 0.20589,0.97524 0.11919,0.45511 0.28173,0.71517 0.31424,0.50929 0.71517,0.67183 0.40093,0.1517 0.87771,0.1517 l 0.67183,0 q 0.15171,0 0.26007,0.0867 0.11919,0.0759 0.19504,0.21672 0.0867,0.13003 0.1192,0.3034 0.0433,0.17338 0.0433,0.36843 0,0.19504 -0.0433,0.36842 -0.0325,0.17337 -0.1192,0.31424 -0.0759,0.13003 -0.19504,0.21672 -0.10836,0.0759 -0.26007,0.0759 l -1.31115,0 z"
         style="font-style:normal;font-variant:normal;font-weight:normal;font-stretch:normal;font-size:22.19200134px;font-family:Lateef;-inkscape-font-specification:Lateef;fill:#333333;fill-opacity:1"
         id="path12204" />
      <path
         d="m 126.15933,118.49619 q -0.0433,0.10836 -0.11919,0.28173 -0.0758,0.17338 -0.1517,0.39009 -0.0759,0.20589 -0.14087,0.43344 -0.0542,0.22756 -0.0542,0.44428 0,0.44427 0.22755,0.78018 0.23839,0.32508 0.61765,0.56347 0.37926,0.22756 0.8452,0.3901 0.47679,0.1517 0.9644,0.23839 0.48762,0.0867 0.93189,0.11919 0.44428,0.0325 0.76936,0.0325 0.75851,0 1.54953,-0.0542 0.80186,-0.065 1.59289,-0.20588 0.80186,-0.14087 1.56037,-0.36843 0.76935,-0.23839 1.46285,-0.58514 -0.0108,-0.52012 -0.27089,-0.89938 -0.24923,-0.37926 -0.59598,-0.62848 l 0.6935,-2.09134 q 0.14087,0.0867 0.31424,0.31424 0.17338,0.22756 0.32508,0.5418 0.1517,0.31424 0.24923,0.6935 0.10836,0.37926 0.10836,0.78019 0,0.65015 -0.22756,1.25697 -0.21672,0.60681 -0.55263,1.15944 -0.21672,0.34675 -0.67183,0.62849 -0.44427,0.27089 -1.04025,0.48761 -0.59598,0.21672 -1.28948,0.36843 -0.68266,0.14086 -1.387,0.23839 -0.6935,0.0975 -1.35449,0.14086 -0.65016,0.0434 -1.18112,0.0434 -0.74768,0 -1.54954,-0.1192 -0.80185,-0.10836 -1.46285,-0.43344 -0.66099,-0.32507 -1.09443,-0.91021 -0.4226,-0.59598 -0.4226,-1.54954 0,-0.35759 0.0975,-0.71518 0.10836,-0.35758 0.2709,-0.67182 0.17338,-0.32508 0.37926,-0.60682 0.21672,-0.28173 0.44427,-0.49845 0.065,-0.0542 0.13004,-0.0542 0.0325,0 0.0325,0.065 z m 6.02479,0.13003 -1.12694,-1.12694 1.12694,-1.12694 1.15944,1.12694 -1.15944,1.12694 z m -2.27555,0 -1.15945,-1.12694 1.15945,-1.12694 1.12694,1.12694 -1.12694,1.12694 z"
         style="font-style:normal;font-variant:normal;font-weight:normal;font-stretch:normal;font-size:22.19200134px;font-family:Lateef;-inkscape-font-specification:Lateef;fill:#333333;fill-opacity:1"
         id="path12206" />
      <path
         d="m 111.02152,123.79496 q -0.23839,0 -0.34675,-0.29257 -0.1192,-0.30341 -0.1192,-0.68266 0,-0.37926 0.1192,-0.67183 0.10836,-0.30341 0.34675,-0.30341 0.36842,0 0.67183,0.0108 0.31424,0 0.58514,0 0.41176,0 0.86687,-0.0433 0.45511,-0.0542 0.91022,-0.16254 0.46595,-0.11919 0.92106,-0.3034 0.45511,-0.18421 0.85604,-0.46595 -0.40093,-0.13003 -0.76935,-0.3034 -0.35759,-0.18421 -0.68267,-0.34675 -0.32508,-0.16254 -0.60681,-0.2709 -0.28174,-0.1192 -0.5418,-0.1192 -0.2709,0 -0.49845,0.0867 -0.22756,0.0867 -0.40093,0.18421 -0.16254,0.0975 -0.28174,0.18421 -0.11919,0.0867 -0.17337,0.0867 -0.065,0 -0.0759,-0.0325 -0.0108,-0.0325 -0.0108,-0.0867 0,-0.36842 0.1517,-0.75851 0.16254,-0.3901 0.42261,-0.71517 0.27089,-0.32508 0.61764,-0.53096 0.35759,-0.20589 0.73685,-0.20589 0.32508,0 0.72601,0.20589 0.40093,0.19504 0.82353,0.45511 0.43344,0.26006 0.85604,0.50928 0.43343,0.23839 0.81269,0.33592 0.56347,0.1517 1.12694,0.21672 0.5743,0.065 1.15945,0.065 l -0.55264,1.89629 q -0.2709,0 -0.63932,0 -0.36842,-0.0108 -0.82353,0.0542 -0.45511,0.0542 -0.97523,0.21672 -0.50929,0.1517 -1.07276,0.47678 -0.36842,0.20588 -0.78019,0.44427 -0.41176,0.22756 -0.81269,0.42261 -0.40093,0.19504 -0.76936,0.32507 -0.36842,0.1192 -0.66099,0.1192 l -1.1161,0 z"
         style="font-style:normal;font-variant:normal;font-weight:normal;font-stretch:normal;font-size:22.19200134px;font-family:Lateef;-inkscape-font-specification:Lateef;fill:#333333;fill-opacity:1"
         id="path12208" />
      <path
         d="m 109.48282,121.12932 q 0.19505,0.23839 0.37926,0.39009 0.19504,0.14087 0.43343,0.21672 0.24923,0.065 0.57431,0.0867 0.33591,0.0217 0.81269,0.0217 0.33592,0 0.49846,0.30341 0.17337,0.29257 0.17337,0.67183 0,0.37925 -0.17337,0.68266 -0.16254,0.29257 -0.49846,0.29257 l -1.01857,0 q -0.0759,0.32508 -0.23839,0.75852 -0.15171,0.43343 -0.37926,0.87771 -0.22756,0.45511 -0.50929,0.88854 -0.28174,0.44428 -0.61765,0.79103 -0.32508,0.34675 -0.6935,0.55263 -0.36842,0.21672 -0.75852,0.21672 -0.52012,0 -1.02941,-0.14087 -0.50929,-0.14087 -0.93189,-0.36842 -0.4226,-0.22756 -0.71517,-0.50929 -0.29257,-0.2709 -0.3901,-0.5418 0.43344,0.1192 0.89939,0.19505 0.46594,0.0759 0.92105,0.0759 0.46595,0 1.05109,-0.2709 0.58514,-0.26006 1.13777,-0.66099 0.55263,-0.40093 0.98607,-0.88855 0.44428,-0.47678 0.61765,-0.91021 l -0.91022,-1.3545 0.37926,-1.37616 z"
         style="font-style:normal;font-variant:normal;font-weight:normal;font-stretch:normal;font-size:22.19200134px;font-family:Lateef;-inkscape-font-specification:Lateef;fill:#333333;fill-opacity:1"
         id="path12210" />
      <path
         d="m 101.69177,116.79494 q 0.065,0.37926 0.28174,0.63932 0.21672,0.24923 0.49845,0.45511 0.28173,0.20589 0.58514,0.41177 0.31424,0.20588 0.5743,0.49845 0.26007,0.29257 0.42261,0.70434 0.17337,0.41176 0.17337,1.04025 0,0.29257 -0.0759,0.65015 -0.065,0.35759 -0.20588,0.72601 -0.14087,0.35759 -0.34675,0.70434 -0.19505,0.34675 -0.44428,0.61765 -0.24922,0.26006 -0.56347,0.4226 -0.3034,0.16254 -0.65015,0.16254 -0.80186,0 -1.15945,-0.45511 -0.35758,-0.45511 -0.35758,-1.21363 0,-0.34675 0.065,-0.73684 0.065,-0.39009 0.18421,-0.78019 0.1192,-0.39009 0.2709,-0.75851 0.16254,-0.36843 0.35759,-0.661 -0.0975,-0.0867 -0.1192,-0.24922 -0.0217,-0.16254 -0.0217,-0.31424 0,-0.21672 0.0433,-0.46595 0.0434,-0.24923 0.10836,-0.49845 0.0759,-0.24923 0.17338,-0.47678 0.0975,-0.2384 0.20588,-0.42261 z m 0.29257,5.10373 q 0.14087,0 0.40093,-0.0759 0.26006,-0.0758 0.50929,-0.19505 0.26006,-0.11919 0.44427,-0.28173 0.19505,-0.16254 0.19505,-0.33592 0,-0.0975 -0.21672,-0.31424 -0.20588,-0.22755 -0.49845,-0.47678 -0.28173,-0.24923 -0.58514,-0.46594 -0.30341,-0.21672 -0.49845,-0.28174 -0.13004,0.10836 -0.23839,0.29257 -0.10836,0.17338 -0.19505,0.36842 -0.0759,0.18421 -0.1192,0.35759 -0.0433,0.17337 -0.0433,0.29257 0,0.20588 0.0433,0.41176 0.0434,0.20589 0.14087,0.35759 0.0975,0.1517 0.26006,0.24923 0.16254,0.0975 0.40093,0.0975 z"
         style="font-style:normal;font-variant:normal;font-weight:normal;font-stretch:normal;font-size:22.19200134px;font-family:Lateef;-inkscape-font-specification:Lateef;fill:#333333;fill-opacity:1"
         id="path12212" />
      <path
         d="m 86.889889,126.12469 q 0.184211,0.0217 0.368422,0.0217 0.173375,0 0.335914,0 0.942727,0 1.78793,-0.18421 0.845203,-0.17338 1.571211,-0.56347 0.726008,-0.39009 1.321984,-1.00774 0.595977,-0.60682 1.051086,-1.46286 0,-0.0867 -0.01084,-0.20588 0,-0.13003 -0.02167,-0.2709 -0.01084,-0.14086 -0.05418,-0.28173 -0.03251,-0.14087 -0.09752,-0.23839 -0.09752,0.16254 -0.249226,0.32508 -0.140867,0.16254 -0.325078,0.29257 -0.173375,0.13003 -0.379258,0.21672 -0.195047,0.0758 -0.390094,0.0758 -0.238391,0 -0.422602,-0.0975 -0.173375,-0.10836 -0.29257,-0.27089 -0.119195,-0.17338 -0.173375,-0.37926 -0.05418,-0.21672 -0.05418,-0.43344 0,-0.16254 0.05418,-0.4226 0.05418,-0.2709 0.151703,-0.57431 0.10836,-0.3034 0.238391,-0.60681 0.140867,-0.31424 0.303406,-0.56347 0.173375,-0.24922 0.357586,-0.40093 0.195047,-0.16254 0.390094,-0.16254 0.281734,0 0.498453,0.15171 0.227555,0.1517 0.379258,0.40093 0.162539,0.23839 0.270898,0.54179 0.10836,0.30341 0.173375,0.61765 0.06502,0.31424 0.08669,0.60681 0.03251,0.28174 0.03251,0.48762 0,0.61765 -0.119196,1.26781 -0.119195,0.63932 -0.368422,1.24613 -0.23839,0.61765 -0.606812,1.14861 -0.368422,0.5418 -0.856039,0.95356 -0.422602,0.32508 -0.942727,0.44427 -0.520125,0.13004 -1.04025,0.13004 -0.335914,0 -0.736844,-0.0542 -0.400929,-0.0542 -0.801859,-0.16254 -0.40093,-0.0975 -0.769352,-0.24923 -0.379258,-0.14087 -0.660992,-0.33591 z m 5.103727,-5.74305 q -0.07585,0 -0.162539,0.11919 -0.07585,0.10836 -0.151703,0.26007 -0.06502,0.1517 -0.119196,0.3034 -0.04334,0.15171 -0.04334,0.21672 0,0.13003 0.151703,0.2709 0.162539,0.13003 0.411765,0.13003 0.151704,0 0.379258,-0.11919 0.238391,-0.1192 0.357586,-0.30341 -0.04334,-0.16254 -0.130031,-0.31424 -0.08669,-0.16254 -0.195047,-0.28174 -0.108359,-0.13003 -0.238391,-0.20588 -0.130031,-0.0759 -0.260062,-0.0759 z"
         style="font-style:normal;font-variant:normal;font-weight:normal;font-stretch:normal;font-size:22.19200134px;font-family:Lateef;-inkscape-font-specification:Lateef;fill:#333333;fill-opacity:1"
         id="path12214" />
      <path
         d="m 81.15767,123.79496 q -0.281734,0 -0.422601,-0.29257 -0.140868,-0.30341 -0.140868,-0.68266 0,-0.37926 0.140868,-0.67183 0.140867,-0.30341 0.422601,-0.30341 0.29257,0 0.628485,-0.0108 0.34675,-0.0217 0.660992,-0.0759 0.325078,-0.065 0.595976,-0.17337 0.270899,-0.10836 0.411766,-0.28174 0.260063,-0.32507 0.585141,-0.8452 0.325078,-0.53096 0.6935,-1.02941 0.368422,-0.49846 0.758515,-0.85604 0.390094,-0.36842 0.780188,-0.36842 0.162539,0 0.335914,0.17337 0.184211,0.16254 0.357586,0.43344 0.184211,0.2709 0.335914,0.59598 0.162539,0.32507 0.281734,0.65015 0.130032,0.31424 0.195047,0.58514 0.07585,0.26006 0.07585,0.40093 0,0.28174 -0.08669,0.65016 -0.07585,0.35758 -0.260062,0.68266 -0.184211,0.32508 -0.476781,0.55263 -0.281735,0.22756 -0.6935,0.22756 -0.249227,0 -0.552633,-0.0975 -0.303407,-0.10836 -0.606813,-0.26007 -0.303406,-0.1517 -0.58514,-0.32507 -0.281735,-0.18422 -0.487618,-0.34675 -0.140867,0.36842 -0.303406,0.68266 -0.151703,0.30341 -0.368422,0.52012 -0.216719,0.21672 -0.520125,0.34675 -0.303406,0.1192 -0.726008,0.1192 l -1.029414,0 z m 5.645524,-2.6223 q 0,-0.19504 -0.08669,-0.44427 -0.07585,-0.26006 -0.227554,-0.48762 -0.140867,-0.22755 -0.335914,-0.39009 -0.184211,-0.16254 -0.411766,-0.16254 -0.140867,0 -0.29257,0.11919 -0.140868,0.10836 -0.270899,0.2709 -0.119195,0.16254 -0.227555,0.34675 -0.09752,0.17338 -0.151703,0.30341 0.08669,0.11919 0.303407,0.26006 0.216718,0.14087 0.465945,0.26006 0.260062,0.1192 0.487617,0.20589 0.238391,0.0758 0.357586,0.0758 0.162539,0 0.270899,-0.0867 0.119195,-0.0867 0.119195,-0.2709 z"
         style="font-style:normal;font-variant:normal;font-weight:normal;font-stretch:normal;font-size:22.19200134px;font-family:Lateef;-inkscape-font-specification:Lateef;fill:#333333;fill-opacity:1"
         id="path12216" />
      <path
         d="m 80.388322,123.79496 q -0.260062,0 -0.541797,-0.0759 -0.281734,-0.0759 -0.574304,-0.19505 -0.281735,-0.13003 -0.552633,-0.29257 -0.270899,-0.16254 -0.509289,-0.34675 -0.238391,0.18421 -0.585141,0.34675 -0.34675,0.16254 -0.6935,0.29257 -0.335914,0.1192 -0.628484,0.19505 -0.292571,0.0759 -0.444274,0.0759 l -0.856039,0 q -0.270899,0 -0.40093,-0.29257 -0.130031,-0.30341 -0.130031,-0.68266 0,-0.37926 0.130031,-0.67183 0.130031,-0.30341 0.40093,-0.30341 l 0.682664,0 q 0.119195,0 0.29257,0 0.184211,0 0.379258,-0.0108 0.205883,-0.0217 0.40093,-0.0433 0.205883,-0.0325 0.368422,-0.0867 -0.03251,-0.22755 -0.119196,-0.43343 -0.08669,-0.20589 -0.08669,-0.46595 0,-0.2709 0.07585,-0.65016 0.07585,-0.37925 0.216718,-0.79102 0.151703,-0.41176 0.34675,-0.81269 0.205883,-0.41177 0.45511,-0.72601 0.249226,-0.32508 0.530961,-0.52013 0.281734,-0.20588 0.595976,-0.20588 0.34675,0 0.563469,0.21672 0.216719,0.20588 0.34675,0.50929 0.130031,0.3034 0.173375,0.63932 0.05418,0.33591 0.05418,0.58514 0,0.32508 -0.05418,0.68266 -0.05418,0.35759 -0.151703,0.71518 -0.09752,0.35758 -0.249227,0.6935 -0.140867,0.32507 -0.325078,0.58514 0.249227,0.0867 0.541797,0.10836 0.292571,0.0108 0.606813,0.0108 l 1.116101,0 q 0.314243,0 0.45511,0.30341 0.151703,0.29257 0.151703,0.67183 0,0.37925 -0.151703,0.68266 -0.140867,0.29257 -0.45511,0.29257 l -1.376164,0 z m -0.953562,-3.79258 q 0,-0.13003 -0.06502,-0.26006 -0.05418,-0.14087 -0.151703,-0.24923 -0.09752,-0.10836 -0.227555,-0.17337 -0.119195,-0.0759 -0.249226,-0.0759 -0.162539,0 -0.379258,0.11919 -0.216719,0.1192 -0.411766,0.30341 -0.195047,0.17337 -0.335914,0.36842 -0.130031,0.19505 -0.130031,0.34675 0,0.10836 0.09752,0.23839 0.09752,0.1192 0.227555,0.23839 0.140867,0.10836 0.281734,0.19505 0.140868,0.0867 0.227555,0.14086 0.184211,-0.065 0.379258,-0.17337 0.195047,-0.1192 0.357586,-0.2709 0.162539,-0.1517 0.270898,-0.33591 0.10836,-0.19505 0.10836,-0.41177 z m -0.80186,-4.25852 -1.126937,-1.12694 1.126937,-1.12694 1.126938,1.12694 -1.126938,1.12694 z"
         style="font-style:normal;font-variant:normal;font-weight:normal;font-stretch:normal;font-size:22.19200134px;font-family:Lateef;-inkscape-font-specification:Lateef;fill:#333333;fill-opacity:1"
         id="path12218" />
      <path
         d="m 70.191703,123.79496 q -0.249227,0 -0.379258,-0.29257 -0.130032,-0.30341 -0.130032,-0.68266 0,-0.37926 0.130032,-0.67183 0.130031,-0.30341 0.379258,-0.30341 0.281734,0 0.574304,0 0.303407,0 0.574305,-0.0108 0.281734,-0.0108 0.520125,-0.0325 0.249227,-0.0325 0.411766,-0.0759 0.249226,-0.065 0.390093,-0.24923 0.151704,-0.19505 0.249227,-0.4226 0.09752,-0.23839 0.162539,-0.47678 0.06502,-0.24923 0.140867,-0.42261 0.01084,-0.0325 0.05418,-0.0433 0.04334,-0.0217 0.08669,-0.0217 0.05418,0 0.08669,0.0325 0.03251,0.0217 0.02167,0.0759 -0.02167,0.17337 -0.03251,0.34675 -0.01084,0.17337 -0.01084,0.22755 0,0.37926 0.238391,0.59598 0.249226,0.21672 0.606812,0.32508 0.357586,0.0975 0.758516,0.13003 0.411766,0.0217 0.726008,0.0217 0.270898,0 0.40093,0.30341 0.140867,0.29257 0.140867,0.67183 0,0.37925 -0.140867,0.68266 -0.130032,0.29257 -0.40093,0.29257 l -1.246133,0 q -0.227555,0 -0.465945,-0.0975 -0.238391,-0.0975 -0.465946,-0.2709 -0.216719,-0.17338 -0.411765,-0.40093 -0.184211,-0.22756 -0.314243,-0.49845 -0.09752,0.19504 -0.281734,0.4226 -0.173375,0.21672 -0.40093,0.41176 -0.216718,0.18421 -0.465945,0.31424 -0.238391,0.1192 -0.476781,0.1192 l -1.029414,0 z m 3.868429,-5.0062 -1.126937,-1.12694 1.126937,-1.12694 1.159446,1.12694 -1.159446,1.12694 z m -2.275547,0 -1.159445,-1.12694 1.159445,-1.12694 1.126938,1.12694 -1.126938,1.12694 z"
         style="font-style:normal;font-variant:normal;font-weight:normal;font-stretch:normal;font-size:22.19200134px;font-family:Lateef;-inkscape-font-specification:Lateef;fill:#333333;fill-opacity:1"
         id="path12220" />
      <path
         d="m 62.35732,126.1897 q 0.931891,0.16254 1.885453,0.16254 1.452016,0 2.524774,-0.5743 1.083594,-0.57431 1.798766,-1.87462 l -0.216719,0 q -0.303406,0 -0.650156,-0.0433 -0.34675,-0.0325 -0.639321,-0.15171 -0.281734,-0.11919 -0.476781,-0.34675 -0.184211,-0.22755 -0.184211,-0.60681 0,-0.16254 0.06502,-0.43344 0.07585,-0.28173 0.195047,-0.59597 0.130031,-0.32508 0.29257,-0.65016 0.173375,-0.33591 0.357586,-0.59598 0.195047,-0.2709 0.390094,-0.43343 0.205882,-0.17338 0.400929,-0.17338 0.238391,0 0.444274,0.23839 0.216719,0.23839 0.390094,0.56347 0.173375,0.31424 0.29257,0.65016 0.130031,0.32507 0.184211,0.52012 l 1.603719,0 q 0.281734,0 0.411765,0.30341 0.140868,0.29257 0.140868,0.67183 0,0.37925 -0.140868,0.68266 -0.130031,0.29257 -0.411765,0.29257 l -1.777094,0 q 0,0.13003 -0.04334,0.2709 -0.03251,0.1517 -0.08669,0.3034 -0.05418,0.15171 -0.119196,0.28174 -0.05418,0.14087 -0.108359,0.24923 -0.227555,0.45511 -0.574305,0.93189 -0.34675,0.48761 -0.780187,0.88854 -0.422602,0.41177 -0.931891,0.67183 -0.509289,0.26006 -1.061922,0.26006 -0.98607,0 -1.777094,-0.33591 -0.791023,-0.32508 -1.397836,-1.12694 z m 5.320446,-4.83283 q -0.08669,0 -0.173375,0.0867 -0.08669,0.0867 -0.151703,0.20588 -0.06502,0.1192 -0.10836,0.24923 -0.03251,0.1192 -0.03251,0.20588 0,0.13003 0.07585,0.21672 0.08669,0.0759 0.205883,0.1192 0.130031,0.0433 0.260062,0.0542 0.140868,0.0108 0.238391,0.0108 0.05418,0 0.140867,0 0.08669,0 0.162539,-0.0108 0.08669,-0.0108 0.140867,-0.0325 0.06502,-0.0325 0.06502,-0.0867 0,-0.13003 -0.07585,-0.3034 -0.07585,-0.17338 -0.195047,-0.32508 -0.119196,-0.16254 -0.270899,-0.2709 -0.140867,-0.1192 -0.281734,-0.1192 z"
         style="font-style:normal;font-variant:normal;font-weight:normal;font-stretch:normal;font-size:22.19200134px;font-family:Lateef;-inkscape-font-specification:Lateef;fill:#333333;fill-opacity:1"
         id="path12222" />
      <path
         d="m 54.674638,123.79496 q -0.23839,0 -0.34675,-0.29257 -0.119195,-0.30341 -0.119195,-0.68266 0,-0.37926 0.119195,-0.67183 0.10836,-0.30341 0.34675,-0.30341 0.368422,0 0.671828,0.0108 0.314243,0 0.585141,0 0.411766,0 0.866875,-0.0433 0.45511,-0.0542 0.910219,-0.16254 0.465945,-0.11919 0.921055,-0.3034 0.455109,-0.18421 0.856039,-0.46595 -0.40093,-0.13003 -0.769352,-0.3034 -0.357586,-0.18421 -0.682664,-0.34675 -0.325078,-0.16254 -0.606812,-0.2709 -0.281735,-0.1192 -0.541797,-0.1192 -0.270899,0 -0.498454,0.0867 -0.227554,0.0867 -0.400929,0.18421 -0.162539,0.0975 -0.281735,0.18421 -0.119195,0.0867 -0.173375,0.0867 -0.06501,0 -0.07585,-0.0325 -0.01084,-0.0325 -0.01084,-0.0867 0,-0.36842 0.151703,-0.75851 0.162539,-0.3901 0.422602,-0.71517 0.270898,-0.32508 0.617648,-0.53096 0.357586,-0.20589 0.736844,-0.20589 0.325078,0 0.726008,0.20589 0.400929,0.19504 0.823531,0.45511 0.433438,0.26006 0.856039,0.50928 0.433438,0.23839 0.812695,0.33592 0.563469,0.1517 1.126938,0.21672 0.574305,0.065 1.159445,0.065 l -0.552632,1.89629 q -0.270899,0 -0.639321,0 -0.368422,-0.0108 -0.823531,0.0542 -0.455109,0.0542 -0.975235,0.21672 -0.509289,0.1517 -1.072757,0.47678 -0.368422,0.20588 -0.780188,0.44427 -0.411766,0.22756 -0.812695,0.42261 -0.40093,0.19504 -0.769352,0.32507 -0.368422,0.1192 -0.660992,0.1192 l -1.116102,0 z"
         style="font-style:normal;font-variant:normal;font-weight:normal;font-stretch:normal;font-size:22.19200134px;font-family:Lateef;-inkscape-font-specification:Lateef;fill:#333333;fill-opacity:1"
         id="path12224" />
      <path
         d="m 54.013647,123.79496 q -0.335914,0 -0.671828,-0.21672 -0.335915,-0.21672 -0.617649,-0.53096 -0.270898,-0.31424 -0.465945,-0.67183 -0.184211,-0.36842 -0.216719,-0.67183 -0.195047,0.44428 -0.444273,0.72601 -0.249227,0.28174 -0.563469,0.44428 -0.303407,0.1517 -0.682664,0.21671 -0.368422,0.0542 -0.812696,0.0542 -0.140867,0 -0.390094,0 -0.23839,-0.0108 -0.476781,-0.0542 -0.23839,-0.0542 -0.411765,-0.16254 -0.173375,-0.10835 -0.173375,-0.31424 0,-0.28173 0.06502,-0.62848 0.07585,-0.34675 0.184211,-0.6935 0.119195,-0.35759 0.270899,-0.67183 0.162539,-0.32508 0.325078,-0.53096 0.08669,-0.10836 0.270898,-0.26006 0.184211,-0.15171 0.422602,-0.31425 0.23839,-0.17337 0.509289,-0.33591 0.270898,-0.17337 0.530961,-0.31424 0.260062,-0.1517 0.476781,-0.26006 0.216719,-0.10836 0.34675,-0.14087 l -0.184211,-1.22446 0.606813,-1.33282 q 0.09752,1.08359 0.249226,2.16718 0.151703,1.07276 0.390094,2.12385 0.05418,0.26006 0.162539,0.55263 0.119195,0.29257 0.29257,0.5418 0.173375,0.23839 0.411766,0.40093 0.249227,0.1517 0.574305,0.1517 l 1.647062,0 q 0.119196,0 0.216719,0.0867 0.09752,0.0759 0.173375,0.21672 0.07585,0.13003 0.119196,0.3034 0.04334,0.17338 0.04334,0.36843 0,0.19504 -0.04334,0.36842 -0.04334,0.17337 -0.119196,0.31424 -0.07585,0.13003 -0.173375,0.21672 -0.09752,0.0759 -0.216719,0.0759 l -1.62539,0 z m -2.459758,-4.20434 -0.02167,0 q -0.06502,0 -0.249227,0.0867 -0.173375,0.0759 -0.411765,0.20589 -0.227555,0.11919 -0.487618,0.28173 -0.260062,0.1517 -0.476781,0.29257 -0.205883,0.14087 -0.34675,0.24923 -0.140867,0.10836 -0.140867,0.1517 0,0.0433 0.108359,0.0867 0.10836,0.0433 0.249227,0.065 0.140867,0.0217 0.270898,0.0434 0.130032,0.0108 0.173375,0.0108 0.07585,0 0.325079,-0.0325 0.249226,-0.0325 0.520125,-0.0975 0.270898,-0.065 0.476781,-0.1517 0.205883,-0.0975 0.184211,-0.20588 l -0.173375,-0.98607 z"
         style="font-style:normal;font-variant:normal;font-weight:normal;font-stretch:normal;font-size:22.19200134px;font-family:Lateef;-inkscape-font-specification:Lateef;fill:#333333;fill-opacity:1"
         id="path12226" />
      <path
         d="m 38.724139,123.79496 q -0.249227,0 -0.368422,-0.29257 -0.130031,-0.30341 -0.130031,-0.68266 0,-0.37926 0.130031,-0.67183 0.119195,-0.30341 0.368422,-0.30341 0.574305,0 0.942727,-0.0108 0.379257,-0.0217 0.650156,-0.065 0.281734,-0.0433 0.498453,-0.1192 0.227555,-0.0867 0.498453,-0.20588 l -0.314242,-6.8158 q -0.06502,-0.065 -0.173375,-0.18421 -0.09752,-0.1192 -0.205883,-0.26007 -0.09752,-0.14086 -0.173375,-0.2709 -0.06502,-0.13003 -0.06502,-0.21671 0,-0.10836 0.16254,-0.42261 0.162539,-0.32507 0.379257,-0.68266 0.227555,-0.35759 0.45511,-0.65016 0.227554,-0.29257 0.357586,-0.33591 0.06501,-0.0217 0.07585,0.0108 0.01084,0.0325 0,0.065 -0.08669,0.2709 -0.119195,0.49845 -0.03251,0.21672 -0.03251,0.43344 0,0.16254 0.09752,0.33592 0.09752,0.16254 0.23839,0.32507 0.151703,0.16254 0.314242,0.30341 0.16254,0.14087 0.281735,0.22756 -0.03251,0.0867 -0.08669,0.29257 -0.05418,0.20588 -0.119195,0.44427 -0.06502,0.22755 -0.140867,0.45511 -0.07585,0.21672 -0.140867,0.33591 l -0.130032,-0.065 q 0.05418,1.1161 0.151703,2.28638 0.09752,1.17028 0.09752,2.28638 0,0.37926 -0.05418,0.82353 -0.04334,0.43344 -0.162539,0.87771 -0.119195,0.43344 -0.303406,0.84521 -0.184211,0.41176 -0.465945,0.72601 -0.270899,0.3034 -0.639321,0.49845 -0.368422,0.18421 -0.845203,0.18421 l -1.029414,0 z"
         style="font-style:normal;font-variant:normal;font-weight:normal;font-stretch:normal;font-size:22.19200134px;font-family:Lateef;-inkscape-font-specification:Lateef;fill:#333333;fill-opacity:1"
         id="path12228" />
      <path
         d="m 33.750445,124.33676 q 0.552633,-0.2709 0.953562,-0.72601 0.411766,-0.46595 0.682664,-1.07276 0.281735,-0.61765 0.411766,-1.35449 0.140867,-0.73684 0.140867,-1.56038 0,-0.81269 -0.04334,-1.64706 -0.04334,-0.8452 -0.10836,-1.69041 -0.05418,-0.85603 -0.119195,-1.70124 -0.05418,-0.85604 -0.09752,-1.66873 l 1.061922,-1.14861 0.422602,7.49847 q 0.03251,0.66099 0.130031,1.14861 0.09752,0.47678 0.34675,0.80186 0.249227,0.31424 0.682664,0.47678 0.444274,0.1517 1.14861,0.1517 0.335914,0 0.498453,0.28174 0.162539,0.28173 0.162539,0.66099 0,0.19504 -0.04334,0.37926 -0.04334,0.17337 -0.130031,0.31424 -0.07585,0.14087 -0.205883,0.22755 -0.119195,0.0867 -0.281734,0.0867 l -0.758516,0 q -0.422602,0 -0.780187,-0.21672 -0.357586,-0.21672 -0.574305,-0.49845 -0.06502,-0.0867 -0.151703,-0.23839 -0.07585,-0.15171 -0.151703,-0.32508 -0.07585,-0.17338 -0.140868,-0.33591 -0.06502,-0.16254 -0.108359,-0.2709 -0.173375,1.28947 -0.541797,2.0805 -0.368422,0.80186 -0.899383,1.23529 -0.530961,0.44428 -1.213625,0.59598 -0.682664,0.1517 -1.473687,0.1517 -0.530961,0 -0.975235,-0.0759 -0.455109,-0.0759 -0.791023,-0.22755 -0.34675,-0.15171 -0.552633,-0.37926 -0.216719,-0.22756 -0.260063,-0.52013 0.498453,0.0434 1.04025,0.0325 0.530961,0 1.04025,-0.0542 0.498454,-0.0542 0.931891,-0.16254 0.433438,-0.0975 0.74768,-0.24922 z"
         style="font-style:normal;font-variant:normal;font-weight:normal;font-stretch:normal;font-size:22.19200134px;font-family:Lateef;-inkscape-font-specification:Lateef;fill:#333333;fill-opacity:1"
         id="path12230" />
      <path
         d="m 34.129703,124.18505 q -0.05418,0.21672 -0.162539,0.35759 -0.10836,0.14087 -0.238391,0.22755 -0.130031,0.0867 -0.260062,0.1192 -0.130032,0.0433 -0.227555,0.0542 -0.205883,0.0217 -0.205883,-0.17338 0,-0.18421 0.249227,-0.47678 0.119195,-0.14086 0.184211,-0.37925 0.06502,-0.2384 0.09752,-0.50929 0.03251,-0.2709 0.04334,-0.53096 0.01084,-0.2709 0.01084,-0.46595 0,-0.89938 -0.151703,-1.74459 -0.140868,-0.85604 -0.433438,-1.61455 -0.29257,-0.75852 -0.74768,-1.387 -0.444273,-0.63932 -1.051086,-1.10527 -0.119195,0.0867 -0.205883,0.15171 -0.07585,0.065 -0.162539,0.11919 -0.07585,0.0434 -0.184211,0.065 -0.09752,0.0217 -0.260062,0.0217 -0.303406,0 -0.585141,-0.16254 -0.281734,-0.17337 -0.498453,-0.43344 -0.216719,-0.26006 -0.34675,-0.5743 -0.130031,-0.31424 -0.130031,-0.60681 0,-0.19505 0.02167,-0.41177 0.03251,-0.21672 0.108359,-0.40093 0.08669,-0.18421 0.238391,-0.30341 0.151703,-0.11919 0.390094,-0.11919 0.530961,0 1.072757,0.36842 0.552633,0.35759 1.061922,0.92106 0.520125,0.55263 0.964399,1.23529 0.444273,0.68267 0.769351,1.32199 0.173375,0.33591 0.335915,0.8452 0.162539,0.50929 0.281734,1.07276 0.119195,0.56347 0.195047,1.13777 0.07585,0.57431 0.07585,1.05109 0,0.74768 -0.07585,1.35449 -0.07585,0.59598 -0.173375,0.97523 z"
         style="font-style:normal;font-variant:normal;font-weight:normal;font-stretch:normal;font-size:22.19200134px;font-family:Lateef;-inkscape-font-specification:Lateef;fill:#333333;fill-opacity:1"
         id="path12232" />
      <path
         d="m 21.852583,121.84449 q -0.173375,-0.34675 -0.260063,-0.73684 -0.07585,-0.3901 -0.07585,-0.76935 0,-0.49846 0.162539,-1.07276 0.173375,-0.58514 0.487617,-1.0836 0.314242,-0.49845 0.769352,-0.82353 0.455109,-0.33591 1.04025,-0.33591 0.368422,0 0.736844,0.1517 0.368421,0.14087 0.6935,0.37926 0.335914,0.22755 0.595976,0.53096 0.270899,0.30341 0.422602,0.62849 l -0.119196,0.10835 q -0.260062,-0.11919 -0.465945,-0.20588 -0.205883,-0.0867 -0.411766,-0.14087 -0.205882,-0.0542 -0.444273,-0.0758 -0.227555,-0.0217 -0.541797,-0.0217 -0.29257,0 -0.671828,0.1192 -0.368422,0.10836 -0.704336,0.28173 -0.335914,0.17338 -0.563469,0.36842 -0.227555,0.18421 -0.227555,0.34675 0,0.26007 0.216719,0.59598 0.227555,0.32508 0.552633,0.61765 0.325078,0.29257 0.6935,0.49845 0.379258,0.19505 0.682664,0.19505 0.260063,0 0.660992,-0.0867 0.40093,-0.0867 0.834368,-0.20588 0.433437,-0.1192 0.845203,-0.23839 0.411766,-0.13003 0.682664,-0.20589 l -0.563469,1.57121 q -0.357586,0.14087 -0.856039,0.31425 -0.498453,0.17337 -1.083594,0.34675 -0.574304,0.17337 -1.202789,0.33591 -0.628484,0.16254 -1.256969,0.29257 -0.617648,0.1192 -1.202789,0.19505 -0.585141,0.0759 -1.072758,0.0759 l -1.029414,0 q -0.249226,0 -0.368422,-0.29257 -0.130031,-0.30341 -0.130031,-0.68266 0,-0.37926 0.130031,-0.67183 0.119196,-0.30341 0.368422,-0.30341 l 2.676477,0 z m 1.668734,-6.23066 -1.126937,-1.12694 1.126937,-1.12694 1.126938,1.12694 -1.126938,1.12694 z"
         style="font-style:normal;font-variant:normal;font-weight:normal;font-stretch:normal;font-size:22.19200134px;font-family:Lateef;-inkscape-font-specification:Lateef;fill:#333333;fill-opacity:1"
         id="path12234" />
      <path
         d="m 17.333997,121.61694 q -0.09752,0.49845 -0.379258,0.92105 -0.281734,0.4226 -0.682664,0.72601 -0.390094,0.30341 -0.877711,0.47678 -0.476781,0.16254 -0.964398,0.16254 -0.162539,0 -0.45511,-0.0108 -0.281734,0 -0.574304,-0.065 -0.281735,-0.0542 -0.498454,-0.17338 -0.205882,-0.13003 -0.205882,-0.36842 l 0,-2.17802 q 0.205882,0.37926 0.58514,0.61765 0.379258,0.22755 0.812696,0.22755 0.357586,0 0.769351,-0.0867 0.411766,-0.0867 0.823532,-0.22755 0.422601,-0.14087 0.801859,-0.32508 0.379258,-0.19505 0.671828,-0.40093 l -0.931891,-3.8901 0.50929,-1.57121 1.33282,4.76781 q 0.379258,1.37616 0.877711,1.56038 0.173375,0.065 0.40093,0.065 0.227554,0 0.563468,0 0.292571,0 0.433438,0.30341 0.151703,0.29257 0.151703,0.67183 0,0.37925 -0.151703,0.68266 -0.140867,0.29257 -0.433438,0.29257 l -1.04025,0 q -0.260062,0 -0.509289,-0.26006 -0.23839,-0.26007 -0.444273,-0.61765 -0.205883,-0.35759 -0.357586,-0.72601 -0.151703,-0.36842 -0.227555,-0.5743 z m -0.606812,-7.56349 -1.126938,-1.12694 1.126938,-1.12693 1.126937,1.12693 -1.126937,1.12694 z"
         style="font-style:normal;font-variant:normal;font-weight:normal;font-stretch:normal;font-size:22.19200134px;font-family:Lateef;-inkscape-font-specification:Lateef;fill:#333333;fill-opacity:1"
         id="path12236" />
      <path
         d="m 10.236458,121.84449 q 0.05418,0 0.108359,-0.0542 0.05418,-0.065 0.09752,-0.14087 0.04334,-0.0867 0.06501,-0.17337 0.02167,-0.0867 0.02167,-0.14087 0,-0.0759 -0.05418,-0.24922 -0.04334,-0.18422 -0.119195,-0.37926 -0.06502,-0.19505 -0.140867,-0.34675 -0.07585,-0.16254 -0.130031,-0.20589 l 0.617648,-1.57121 q 0.314242,0.41177 0.455109,0.95357 0.140868,0.53096 0.140868,1.06192 0,0.40093 -0.08669,0.80186 -0.07585,0.40093 -0.23839,0.76935 -0.09752,0.22755 -0.303407,0.50929 -0.195047,0.28173 -0.444273,0.53096 -0.2492268,0.24923 -0.5309612,0.4226 -0.2817344,0.16254 -0.5417969,0.16254 l -1.6362267,0 q -0.1300312,0 -0.2275547,-0.0867 -0.1083593,-0.0867 -0.173375,-0.22755 -0.065016,-0.14087 -0.097523,-0.31424 -0.032508,-0.18422 -0.032508,-0.37926 0,-0.37926 0.1300312,-0.66099 0.1300313,-0.28174 0.4009297,-0.28174 l 2.7198208,0 z m 0.964398,5.55884 -1.126937,-1.12694 1.126937,-1.12694 1.159446,1.12694 -1.159446,1.12694 z m -2.2755468,0 -1.1594454,-1.12694 1.1594454,-1.12694 1.1269378,1.12694 -1.1269378,1.12694 z"
         style="font-style:normal;font-variant:normal;font-weight:normal;font-stretch:normal;font-size:22.19200134px;font-family:Lateef;-inkscape-font-specification:Lateef;fill:#333333;fill-opacity:1"
         id="path12238" />
      <path
         d="m 6.7689575,123.79496 q -0.3359141,0 -0.6718282,-0.21672 -0.335914,-0.21672 -0.6176484,-0.53096 -0.2708985,-0.31424 -0.4659454,-0.67183 -0.1842109,-0.36842 -0.2167187,-0.67183 -0.1950469,0.44428 -0.4442735,0.72601 -0.2492266,0.28174 -0.5634688,0.44428 -0.3034063,0.1517 -0.6826641,0.21671 -0.3684219,0.0542 -0.8126954,0.0542 -0.1408672,0 -0.3900937,0 -0.2383907,-0.0108 -0.4767813,-0.0542 -0.2383906,-0.0542 -0.4117657,-0.16254 -0.17337497,-0.10835 -0.17337497,-0.31424 0,-0.28173 0.0650156,-0.62848 0.0758516,-0.34675 0.18421094,-0.6935 0.1191953,-0.35759 0.2708985,-0.67183 0.162539,-0.32508 0.3250781,-0.53096 0.086688,-0.10836 0.2708985,-0.26006 0.1842109,-0.15171 0.4226016,-0.31425 0.2383906,-0.17337 0.509289,-0.33591 0.2708985,-0.17337 0.530961,-0.31424 0.2600625,-0.1517 0.4767813,-0.26006 0.2167188,-0.10836 0.34675,-0.14087 L 4.059973,117.23922 4.6667855,115.9064 q 0.097523,1.08359 0.2492266,2.16718 0.1517031,1.07276 0.3900938,2.12385 0.05418,0.26006 0.162539,0.55263 0.1191953,0.29257 0.2925704,0.5418 0.173375,0.23839 0.4117656,0.40093 0.2492266,0.1517 0.5743047,0.1517 l 1.6470626,0 q 0.1191953,0 0.2167188,0.0867 0.097523,0.0759 0.173375,0.21672 0.075852,0.13003 0.1191953,0.3034 0.043344,0.17338 0.043344,0.36843 0,0.19504 -0.043344,0.36842 -0.043344,0.17337 -0.1191953,0.31424 -0.075852,0.13003 -0.173375,0.21672 -0.097523,0.0759 -0.2167188,0.0759 l -1.6253907,0 z m -2.459758,-4.20434 -0.021672,0 q -0.065016,0 -0.2492266,0.0867 -0.173375,0.0759 -0.4117657,0.20589 -0.2275547,0.11919 -0.4876172,0.28173 -0.2600625,0.1517 -0.4767813,0.29257 -0.2058828,0.14087 -0.34675,0.24923 -0.1408672,0.10836 -0.1408672,0.1517 0,0.0433 0.1083594,0.0867 0.1083594,0.0433 0.2492266,0.065 0.1408672,0.0217 0.2708984,0.0434 0.1300313,0.0108 0.173375,0.0108 0.075852,0 0.3250782,-0.0325 0.2492266,-0.0325 0.520125,-0.0975 0.2708985,-0.065 0.4767813,-0.1517 0.2058828,-0.0975 0.184211,-0.20588 l -0.1733751,-0.98607 z"
         style="font-style:normal;font-variant:normal;font-weight:normal;font-stretch:normal;font-size:22.19200134px;font-family:Lateef;-inkscape-font-specification:Lateef;fill:#333333;fill-opacity:1"
         id="path12240" />
    </g>
    <rect
       id="rect3719"
       width="5"
       height="5"
       x="110"
       y="1.7187499e-008"
       style="fill:none"
       inkscape:export-filename="C:\Users\Stéphane\Desktop\Blogs\OpenFoodFacts\off-logo-en.712x575.png"
       inkscape:export-xdpi="360"
       inkscape:export-ydpi="360" />
    <rect
       inkscape:export-ydpi="360"
       inkscape:export-xdpi="360"
       inkscape:export-filename="C:\Users\Stéphane\Desktop\Blogs\OpenFoodFacts\off-logo-en.712x575.png"
       style="fill:none"
       y="1.7187499e-008"
       x="110"
       height="5"
       width="5"
       id="rect3723" />
    <rect
       style="fill:none"
       id="rect3725"
       width="1"
       height="1"
       x="1"
       y="140"
       inkscape:export-filename="C:\Users\Stéphane\Desktop\Blogs\OpenFoodFacts\off-logo-en.712x575.png"
       inkscape:export-xdpi="360"
       inkscape:export-ydpi="360" />
  </g>
</svg>
