<?xml version="1.0" encoding="UTF-8" standalone="no"?>
<!-- Created with Inkscape (http://www.inkscape.org/) -->

<svg
   xmlns:dc="http://purl.org/dc/elements/1.1/"
   xmlns:cc="http://creativecommons.org/ns#"
   xmlns:rdf="http://www.w3.org/1999/02/22-rdf-syntax-ns#"
   xmlns:svg="http://www.w3.org/2000/svg"
   xmlns="http://www.w3.org/2000/svg"
   xmlns:sodipodi="http://sodipodi.sourceforge.net/DTD/sodipodi-0.dtd"
   xmlns:inkscape="http://www.inkscape.org/namespaces/inkscape"
   width="178"
   height="144"
   id="svg8313"
   version="1.1"
   inkscape:version="0.91 r13725"
   sodipodi:docname="openfoodfacts-logo-es.svg"
   inkscape:export-filename="C:\Users\Stéphane\Desktop\Blogs\OpenFoodFacts\off-en.356x288.png"
   inkscape:export-xdpi="180"
   inkscape:export-ydpi="180">
  <defs
     id="defs8315" />
  <sodipodi:namedview
     id="base"
     pagecolor="#ffffff"
     bordercolor="#666666"
     borderopacity="1.0"
     inkscape:pageopacity="0.0"
     inkscape:pageshadow="2"
     inkscape:zoom="3.949244"
     inkscape:cx="22.015943"
     inkscape:cy="45.702654"
     inkscape:document-units="px"
     inkscape:current-layer="layer1"
     showgrid="true"
     inkscape:window-width="1920"
     inkscape:window-height="1018"
     inkscape:window-x="-8"
     inkscape:window-y="-8"
     inkscape:window-maximized="1"
     inkscape:snap-global="true">
    <inkscape:grid
       type="xygrid"
       id="grid8566" />
  </sodipodi:namedview>
  <metadata
     id="metadata8318">
    <rdf:RDF>
      <cc:Work
         rdf:about="">
        <dc:format>image/svg+xml</dc:format>
        <dc:type
           rdf:resource="http://purl.org/dc/dcmitype/StillImage" />
        <dc:title />
      </cc:Work>
    </rdf:RDF>
  </metadata>
  <g
     inkscape:label="Calque 1"
     inkscape:groupmode="layer"
     id="layer1">
    <path
       inkscape:export-ydpi="360"
       inkscape:export-xdpi="360"
       inkscape:export-filename="C:\Users\Stéphane\Desktop\Blogs\OpenFoodFacts\off-logo-en.712x575.png"
       inkscape:connector-curvature="0"
       style="fill:#0066ff;fill-opacity:1;fill-rule:nonzero;stroke:none"
       d="m 170,26 0,6.41101 c 1.19571,0.444338 2.20515,1.060483 2.99122,1.761208 L 173.01672,26 Z m 4,0 0,8.312003 1,-0.838676 L 175,26 Z m 2,0 0,6.606702 1,-0.978462 0,11.7694 -1,-1.00641 L 176.0383,95 178,95 178,26 Z M 174,40.685929 174,95 l 1,0 0,-53.475406 z m -1,0.139774 c -0.78598,0.701951 -1.79569,1.313237 -3,1.76122 L 170.008,95 l 3,0 z"
       id="path7944"
       sodipodi:nodetypes="ccccccccccccccccccccccccccccc" />
    <path
       inkscape:export-ydpi="360"
       inkscape:export-xdpi="360"
       inkscape:export-filename="C:\Users\Stéphane\Desktop\Blogs\OpenFoodFacts\off-logo-en.712x575.png"
       inkscape:connector-curvature="0"
       style="fill:#00ccff;fill-opacity:1;fill-rule:nonzero;stroke:none"
       d="m 154,26 0,69 3,0 0,-53.810872 c -1.32362,-1.014805 -2.12462,-2.271422 -2.12462,-3.662215 0,-1.390781 0.801,-2.675356 2.12462,-3.690161 L 157,26 Z m 4,0 0,7.193768 c 1.12603,-0.642997 2.49599,-1.128715 4.02565,-1.397795 L 162,26 Z m 5,0 -0.08,5.62824 c 0.32965,-0.03644 0.66619,-0.03965 1.00641,-0.05585 L 164,26.000057 c -0.35153,4.6e-5 -0.64847,-3.3e-5 -1,-5.7e-5 z m 2,0 0,5.544374 c 0.68266,0.0083 1.34304,0.08097 1.9849,0.167733 L 167,26 Z M 158,41.860072 158,95 l 4,0 0,-51.770093 c -1.58676,-0.26883 -2.87451,-0.727732 -4,-1.369835 z m 9,1.481649 c -0.64077,0.08753 -1.30349,0.131652 -1.9849,0.139785 L 165,95 l 2,0 z m -4,0.05597 L 163,95 l 1,0 0.006,-51.546402 c -0.34022,-0.01632 -0.67676,-0.01941 -1.00641,-0.05585 z"
       id="path7946"
       sodipodi:nodetypes="ccccscccccccccccccccccccccccccccccccccc" />
    <path
       inkscape:export-ydpi="360"
       inkscape:export-xdpi="360"
       inkscape:export-filename="C:\Users\Stéphane\Desktop\Blogs\OpenFoodFacts\off-logo-en.712x575.png"
       inkscape:connector-curvature="0"
       id="path7948"
       d="M 150,26.012039 150,95 l 1,0 0,-68.987961 z"
       style="fill:#00d400;fill-opacity:1;fill-rule:nonzero;stroke:none"
       sodipodi:nodetypes="ccccc" />
    <path
       inkscape:export-ydpi="360"
       inkscape:export-xdpi="360"
       inkscape:export-filename="C:\Users\Stéphane\Desktop\Blogs\OpenFoodFacts\off-logo-en.712x575.png"
       inkscape:connector-curvature="0"
       id="path7950"
       d="M 146,26.012039 146,95 l 3,0 0,-68.987961 z"
       style="fill:#00d400;fill-opacity:1;fill-rule:nonzero;stroke:none"
       sodipodi:nodetypes="ccccc" />
    <path
       inkscape:export-ydpi="360"
       inkscape:export-xdpi="360"
       inkscape:export-filename="C:\Users\Stéphane\Desktop\Blogs\OpenFoodFacts\off-logo-en.712x575.png"
       inkscape:connector-curvature="0"
       id="path7952"
       d="M 143,26.012039 143,95 l 2,0 0,-68.987961 z"
       style="fill:#00d400;fill-opacity:1;fill-rule:nonzero;stroke:none"
       sodipodi:nodetypes="ccccc" />
    <path
       inkscape:export-ydpi="360"
       inkscape:export-xdpi="360"
       inkscape:export-filename="C:\Users\Stéphane\Desktop\Blogs\OpenFoodFacts\off-logo-en.712x575.png"
       inkscape:connector-curvature="0"
       id="path7954"
       d="M 141,26.012039 141,95 l 1,0 0,-68.987961 z"
       style="fill:#00d400;fill-opacity:1;fill-rule:nonzero;stroke:none"
       sodipodi:nodetypes="ccccc" />
    <path
       inkscape:export-ydpi="360"
       inkscape:export-xdpi="360"
       inkscape:export-filename="C:\Users\Stéphane\Desktop\Blogs\OpenFoodFacts\off-logo-en.712x575.png"
       inkscape:connector-curvature="0"
       id="path7956"
       d="m 135,24 0,71 3,0 -5e-5,-69 z"
       style="fill:#00d400;fill-opacity:1;fill-rule:nonzero;stroke:none"
       sodipodi:nodetypes="ccccc" />
    <path
       inkscape:export-ydpi="360"
       inkscape:export-xdpi="360"
       inkscape:export-filename="C:\Users\Stéphane\Desktop\Blogs\OpenFoodFacts\off-logo-en.712x575.png"
       inkscape:connector-curvature="0"
       id="path7958"
       d="m 132,26 0,69 2,0 -4e-5,-69 z"
       style="fill:#00d400;fill-opacity:1;fill-rule:nonzero;stroke:none"
       sodipodi:nodetypes="ccccc" />
    <path
       inkscape:export-ydpi="360"
       inkscape:export-xdpi="360"
       inkscape:export-filename="C:\Users\Stéphane\Desktop\Blogs\OpenFoodFacts\off-logo-en.712x575.png"
       inkscape:connector-curvature="0"
       id="path7960"
       d="m 129,26 0,69 2,0 1e-5,-69 z"
       style="fill:#00d400;fill-opacity:1;fill-rule:nonzero;stroke:none"
       sodipodi:nodetypes="ccccc" />
    <path
       inkscape:export-ydpi="360"
       inkscape:export-xdpi="360"
       inkscape:export-filename="C:\Users\Stéphane\Desktop\Blogs\OpenFoodFacts\off-logo-en.712x575.png"
       inkscape:connector-curvature="0"
       id="path7962"
       d="m 125,26 0,69 1,0 5e-5,-69 z"
       style="fill:#00d400;fill-opacity:1;fill-rule:nonzero;stroke:none"
       sodipodi:nodetypes="ccccc" />
    <path
       inkscape:export-ydpi="360"
       inkscape:export-xdpi="360"
       inkscape:export-filename="C:\Users\Stéphane\Desktop\Blogs\OpenFoodFacts\off-logo-en.712x575.png"
       inkscape:connector-curvature="0"
       id="path7964"
       d="m 121,26 0,69 1,0 6e-5,-69 z"
       style="fill:#00d400;fill-opacity:1;fill-rule:nonzero;stroke:none"
       sodipodi:nodetypes="ccccc" />
    <path
       inkscape:export-ydpi="360"
       inkscape:export-xdpi="360"
       inkscape:export-filename="C:\Users\Stéphane\Desktop\Blogs\OpenFoodFacts\off-logo-en.712x575.png"
       inkscape:connector-curvature="0"
       id="path7966"
       d="m 116,26 0,69 2,0 1e-5,-69 z"
       style="fill:#00d400;fill-opacity:1;fill-rule:nonzero;stroke:none"
       sodipodi:nodetypes="ccccc" />
    <path
       inkscape:export-ydpi="360"
       inkscape:export-xdpi="360"
       inkscape:export-filename="C:\Users\Stéphane\Desktop\Blogs\OpenFoodFacts\off-logo-en.712x575.png"
       inkscape:connector-curvature="0"
       id="path7968"
       d="m 112,26 0,69 1,0 -5e-5,-69 z"
       style="fill:#00d400;fill-opacity:1;fill-rule:nonzero;stroke:none"
       sodipodi:nodetypes="ccccc" />
    <path
       inkscape:export-ydpi="360"
       inkscape:export-xdpi="360"
       inkscape:export-filename="C:\Users\Stéphane\Desktop\Blogs\OpenFoodFacts\off-logo-en.712x575.png"
       inkscape:connector-curvature="0"
       id="path7970"
       d="m 110,26 0,69 1,0 -5e-5,-69 z"
       style="fill:#00d400;fill-opacity:1;fill-rule:nonzero;stroke:none"
       sodipodi:nodetypes="ccccc" />
    <path
       inkscape:export-ydpi="360"
       inkscape:export-xdpi="360"
       inkscape:export-filename="C:\Users\Stéphane\Desktop\Blogs\OpenFoodFacts\off-logo-en.712x575.png"
       inkscape:connector-curvature="0"
       id="path7972"
       d="m 108,26 0,69 1,0 4e-5,-69 z"
       style="fill:#00d400;fill-opacity:1;fill-rule:nonzero;stroke:none"
       sodipodi:nodetypes="ccccc" />
    <path
       inkscape:export-ydpi="360"
       inkscape:export-xdpi="360"
       inkscape:export-filename="C:\Users\Stéphane\Desktop\Blogs\OpenFoodFacts\off-logo-en.712x575.png"
       inkscape:connector-curvature="0"
       id="path7974"
       d="m 103,26 0,69 2,0 1e-5,-69 z"
       style="fill:#00d400;fill-opacity:1;fill-rule:nonzero;stroke:none"
       sodipodi:nodetypes="ccccc" />
    <path
       inkscape:export-ydpi="360"
       inkscape:export-xdpi="360"
       inkscape:export-filename="C:\Users\Stéphane\Desktop\Blogs\OpenFoodFacts\off-logo-en.712x575.png"
       inkscape:connector-curvature="0"
       id="path7976"
       d="m 99,26 0,69 1,0 -10e-7,-69 z"
       style="fill:#00d400;fill-opacity:1;fill-rule:nonzero;stroke:none"
       sodipodi:nodetypes="ccccc" />
    <path
       inkscape:export-ydpi="360"
       inkscape:export-xdpi="360"
       inkscape:export-filename="C:\Users\Stéphane\Desktop\Blogs\OpenFoodFacts\off-logo-en.712x575.png"
       inkscape:connector-curvature="0"
       id="path7978"
       d="M 94.983089,26.012039 95,95 96,95 95.98263,26.012039 Z"
       style="fill:#00d400;fill-opacity:1;fill-rule:nonzero;stroke:none"
       sodipodi:nodetypes="ccccc" />
    <path
       inkscape:export-ydpi="360"
       inkscape:export-xdpi="360"
       inkscape:export-filename="C:\Users\Stéphane\Desktop\Blogs\OpenFoodFacts\off-logo-en.712x575.png"
       inkscape:connector-curvature="0"
       id="path7980"
       d="m 90,21 0,74 2,0 3e-6,-74 z"
       style="fill:#ffcc00;fill-opacity:1;fill-rule:nonzero;stroke:none"
       sodipodi:nodetypes="ccccc" />
    <path
       inkscape:export-ydpi="360"
       inkscape:export-xdpi="360"
       inkscape:export-filename="C:\Users\Stéphane\Desktop\Blogs\OpenFoodFacts\off-logo-en.712x575.png"
       inkscape:connector-curvature="0"
       id="path7983"
       d="m 88,26 0,69 1,0 10e-7,-69 z"
       style="fill:#ffcc00;fill-opacity:1;fill-rule:nonzero;stroke:none"
       sodipodi:nodetypes="ccccc" />
    <path
       inkscape:export-ydpi="360"
       inkscape:export-xdpi="360"
       inkscape:export-filename="C:\Users\Stéphane\Desktop\Blogs\OpenFoodFacts\off-logo-en.712x575.png"
       inkscape:connector-curvature="0"
       id="path7985"
       d="m 85,10 0,85 2,0 0,-85 z"
       style="fill:#ffcc00;fill-opacity:1;fill-rule:nonzero;stroke:none"
       sodipodi:nodetypes="ccccc" />
    <path
       inkscape:export-ydpi="360"
       inkscape:export-xdpi="360"
       inkscape:export-filename="C:\Users\Stéphane\Desktop\Blogs\OpenFoodFacts\off-logo-en.712x575.png"
       inkscape:connector-curvature="0"
       id="path7987"
       d="m 81,26 0,69 3,0 4e-6,-69 z"
       style="fill:#ffcc00;fill-opacity:1;fill-rule:nonzero;stroke:none"
       sodipodi:nodetypes="ccccc" />
    <path
       inkscape:export-ydpi="360"
       inkscape:export-xdpi="360"
       inkscape:export-filename="C:\Users\Stéphane\Desktop\Blogs\OpenFoodFacts\off-logo-en.712x575.png"
       inkscape:connector-curvature="0"
       id="path7989"
       d="m 77,26 0,69 1,0 3e-6,-69 z"
       style="fill:#ffcc00;fill-opacity:1;fill-rule:nonzero;stroke:none"
       sodipodi:nodetypes="ccccc" />
    <path
       inkscape:export-ydpi="360"
       inkscape:export-xdpi="360"
       inkscape:export-filename="C:\Users\Stéphane\Desktop\Blogs\OpenFoodFacts\off-logo-en.712x575.png"
       inkscape:connector-curvature="0"
       id="path7991"
       d="m 74,20 0,75 2,0 -7e-6,-75 z"
       style="fill:#ffcc00;fill-opacity:1;fill-rule:nonzero;stroke:none"
       sodipodi:nodetypes="ccccc" />
    <path
       inkscape:export-ydpi="360"
       inkscape:export-xdpi="360"
       inkscape:export-filename="C:\Users\Stéphane\Desktop\Blogs\OpenFoodFacts\off-logo-en.712x575.png"
       inkscape:connector-curvature="0"
       id="path7993"
       d="m 70,26 0,69 3,0 4e-6,-69 z"
       style="fill:#ffcc00;fill-opacity:1;fill-rule:nonzero;stroke:none"
       sodipodi:nodetypes="ccccc" />
    <path
       inkscape:export-ydpi="360"
       inkscape:export-xdpi="360"
       inkscape:export-filename="C:\Users\Stéphane\Desktop\Blogs\OpenFoodFacts\off-logo-en.712x575.png"
       inkscape:connector-curvature="0"
       id="path7995"
       d="m 66,26 0,69 1,0 3e-6,-69 z"
       style="fill:#ffcc00;fill-opacity:1;fill-rule:nonzero;stroke:none"
       sodipodi:nodetypes="ccccc" />
    <path
       inkscape:export-ydpi="360"
       inkscape:export-xdpi="360"
       inkscape:export-filename="C:\Users\Stéphane\Desktop\Blogs\OpenFoodFacts\off-logo-en.712x575.png"
       inkscape:connector-curvature="0"
       id="path7997"
       d="m 64,26 0,69 1,0 10e-7,-69 z"
       style="fill:#ffcc00;fill-opacity:1;fill-rule:nonzero;stroke:none"
       sodipodi:nodetypes="ccccc" />
    <path
       inkscape:export-ydpi="360"
       inkscape:export-xdpi="360"
       inkscape:export-filename="C:\Users\Stéphane\Desktop\Blogs\OpenFoodFacts\off-logo-en.712x575.png"
       inkscape:connector-curvature="0"
       id="path7999"
       d="M 58.973701,25.916822 59,95 61,95 60.9728,25.916822 Z"
       style="fill:#ffcc00;fill-opacity:1;fill-rule:nonzero;stroke:none"
       sodipodi:nodetypes="ccccc" />
    <path
       inkscape:export-ydpi="360"
       inkscape:export-xdpi="360"
       inkscape:export-filename="C:\Users\Stéphane\Desktop\Blogs\OpenFoodFacts\off-logo-en.712x575.png"
       inkscape:connector-curvature="0"
       id="path8001"
       d="m 55,15 0,80 1,0 -9e-6,-80 z"
       style="fill:#ffcc00;fill-opacity:1;fill-rule:nonzero;stroke:none"
       sodipodi:nodetypes="ccccc" />
    <path
       inkscape:export-ydpi="360"
       inkscape:export-xdpi="360"
       inkscape:export-filename="C:\Users\Stéphane\Desktop\Blogs\OpenFoodFacts\off-logo-en.712x575.png"
       inkscape:connector-curvature="0"
       id="path8003"
       d="m 52,26 0,69 2,0 3e-6,-69 z"
       style="fill:#ffcc00;fill-opacity:1;fill-rule:nonzero;stroke:none"
       sodipodi:nodetypes="ccccc" />
    <path
       inkscape:export-ydpi="360"
       inkscape:export-xdpi="360"
       inkscape:export-filename="C:\Users\Stéphane\Desktop\Blogs\OpenFoodFacts\off-logo-en.712x575.png"
       inkscape:connector-curvature="0"
       id="path8005"
       d="m 46,26 0,69 3,0 -7e-6,-69 z"
       style="fill:#ffcc00;fill-opacity:1;fill-rule:nonzero;stroke:none"
       sodipodi:nodetypes="ccccc" />
    <path
       inkscape:export-ydpi="360"
       inkscape:export-xdpi="360"
       inkscape:export-filename="C:\Users\Stéphane\Desktop\Blogs\OpenFoodFacts\off-logo-en.712x575.png"
       inkscape:connector-curvature="0"
       id="path8007"
       d="m 44,26 0,69 1,0 10e-7,-69 z"
       style="fill:#ffcc00;fill-opacity:1;fill-rule:nonzero;stroke:none"
       sodipodi:nodetypes="ccccc" />
    <path
       inkscape:export-ydpi="360"
       inkscape:export-xdpi="360"
       inkscape:export-filename="C:\Users\Stéphane\Desktop\Blogs\OpenFoodFacts\off-logo-en.712x575.png"
       inkscape:connector-curvature="0"
       id="path8009"
       d="m 40,26 0,69 1,0 2e-6,-69 z"
       style="fill:#ffcc00;fill-opacity:1;fill-rule:nonzero;stroke:none"
       sodipodi:nodetypes="ccccc" />
    <path
       inkscape:export-ydpi="360"
       inkscape:export-xdpi="360"
       inkscape:export-filename="C:\Users\Stéphane\Desktop\Blogs\OpenFoodFacts\off-logo-en.712x575.png"
       inkscape:connector-curvature="0"
       id="path8011"
       d="m 37,26 0,69 2,0 4e-6,-69 z"
       style="fill:#ffcc00;fill-opacity:1;fill-rule:nonzero;stroke:none"
       sodipodi:nodetypes="ccccc" />
    <path
       inkscape:export-ydpi="360"
       inkscape:export-xdpi="360"
       inkscape:export-filename="C:\Users\Stéphane\Desktop\Blogs\OpenFoodFacts\off-logo-en.712x575.png"
       inkscape:connector-curvature="0"
       id="path8013"
       d="m 33,20 0,75 1,0 -7e-6,-75 z"
       style="fill:#ff0000;fill-opacity:1;fill-rule:nonzero;stroke:none"
       sodipodi:nodetypes="ccccc" />
    <path
       inkscape:export-ydpi="360"
       inkscape:export-xdpi="360"
       inkscape:export-filename="C:\Users\Stéphane\Desktop\Blogs\OpenFoodFacts\off-logo-en.712x575.png"
       inkscape:connector-curvature="0"
       id="path8015"
       d="m 30,19 0,76 2,0 4e-6,-76 z"
       style="fill:#ff0000;fill-opacity:1;fill-rule:nonzero;stroke:none"
       sodipodi:nodetypes="ccccc" />
    <path
       inkscape:export-ydpi="360"
       inkscape:export-xdpi="360"
       inkscape:export-filename="C:\Users\Stéphane\Desktop\Blogs\OpenFoodFacts\off-logo-en.712x575.png"
       inkscape:connector-curvature="0"
       id="path8017"
       d="m 26,26 0,69 3,0 0,-69 z"
       style="fill:#ff0000;fill-opacity:1;fill-rule:nonzero;stroke:none"
       sodipodi:nodetypes="ccccc" />
    <path
       inkscape:export-ydpi="360"
       inkscape:export-xdpi="360"
       inkscape:export-filename="C:\Users\Stéphane\Desktop\Blogs\OpenFoodFacts\off-logo-en.712x575.png"
       inkscape:connector-curvature="0"
       id="path8019"
       d="m 22,26 0,69 3,0 -5e-6,-69 z"
       style="fill:#ff0000;fill-opacity:1;fill-rule:nonzero;stroke:none"
       sodipodi:nodetypes="ccccc" />
    <path
       inkscape:export-ydpi="360"
       inkscape:export-xdpi="360"
       inkscape:export-filename="C:\Users\Stéphane\Desktop\Blogs\OpenFoodFacts\off-logo-en.712x575.png"
       inkscape:connector-curvature="0"
       id="path8021"
       d="m 19,20 0,75 2,0 -8.6e-5,-75 z"
       style="fill:#ff0000;fill-opacity:1;fill-rule:nonzero;stroke:none"
       sodipodi:nodetypes="ccccc" />
    <path
       inkscape:export-ydpi="360"
       inkscape:export-xdpi="360"
       inkscape:export-filename="C:\Users\Stéphane\Desktop\Blogs\OpenFoodFacts\off-logo-en.712x575.png"
       inkscape:connector-curvature="0"
       id="path8023"
       d="m 15,21 0,74 3,0 -3.5e-5,-74 z"
       style="fill:#ff0000;fill-opacity:1;fill-rule:nonzero;stroke:none"
       sodipodi:nodetypes="ccccc" />
    <path
       inkscape:export-ydpi="360"
       inkscape:export-xdpi="360"
       inkscape:export-filename="C:\Users\Stéphane\Desktop\Blogs\OpenFoodFacts\off-logo-en.712x575.png"
       inkscape:connector-curvature="0"
       id="path8025"
       d="m 11,26 0,69 1,0 -4.9e-5,-69 z"
       style="fill:#ff0000;fill-opacity:1;fill-rule:nonzero;stroke:none"
       sodipodi:nodetypes="ccccc" />
    <path
       inkscape:export-ydpi="360"
       inkscape:export-xdpi="360"
       inkscape:export-filename="C:\Users\Stéphane\Desktop\Blogs\OpenFoodFacts\off-logo-en.712x575.png"
       inkscape:connector-curvature="0"
       id="path8027"
       d="M 8,26 8,95 9,95 9,26 Z"
       style="fill:#ff0000;fill-opacity:1;fill-rule:nonzero;stroke:none"
       sodipodi:nodetypes="ccccc" />
    <path
       inkscape:export-ydpi="360"
       inkscape:export-xdpi="360"
       inkscape:export-filename="C:\Users\Stéphane\Desktop\Blogs\OpenFoodFacts\off-logo-en.712x575.png"
       inkscape:connector-curvature="0"
       id="path8029"
       d="m 2.9986784,25.916822 0,69.083178 0.9995629,0 0,-69.083178 z"
       style="fill:#ff0000;fill-opacity:1;fill-rule:nonzero;stroke:none"
       sodipodi:nodetypes="ccccc" />
    <path
       inkscape:export-ydpi="360"
       inkscape:export-xdpi="360"
       inkscape:export-filename="C:\Users\Stéphane\Desktop\Blogs\OpenFoodFacts\off-logo-en.712x575.png"
       inkscape:connector-curvature="0"
       id="path8031"
       d="m 1.3499883e-5,25.916822 0,69.083178 1.999113900117,0 0,-69.083178 z"
       style="fill:#ff0000;fill-opacity:1;fill-rule:nonzero;stroke:none"
       sodipodi:nodetypes="ccccc" />
    <path
       sodipodi:nodetypes="csssacccccssscccsccccc"
       inkscape:connector-curvature="0"
       id="path8033"
       d="m 12.96037,20.168037 c 0.62972,-0.815576 0.719123,-2.676154 1.281409,-4.358843 0.405305,-1.212926 0.463533,-4.596987 1.208651,-4.882429 0.96834,-0.370951 3.169601,-0.358079 4.223988,-0.416629 2.300059,-0.127699 4.518931,1.098659 6.822539,1.101136 2.990853,0.0036 8.861008,-1.410596 8.861008,-1.410596 l -0.140119,-2.0388259 1.505607,0.2780586 4.07695,-0.5169049 -3.008404,1.3861371 c 0,0 1.201864,-0.021077 1.688022,0.2768321 0.705048,0.432109 0.959994,1.347377 1.46892,1.999162 0.291967,0.373928 1.082477,0.65438 0.908337,1.095671 -0.469844,1.190611 -3.808977,0.485944 -3.808977,0.485944 l -1.918736,1.803326 c -0.833009,1.778987 -2.26137,3.261839 -2.253596,6.722383 0,0 -6.006891,-0.923008 -8.991183,-0.79663 -1.764007,0.07466 -4.968974,0.618073 -4.968974,0.618073 -1.608718,-0.13719 -3.296502,-0.529063 -4.905219,-0.24954 0.0095,-6.235485 0.866683,-6.128862 0.69876,-9.294821 -0.439183,1.679986 -0.971056,4.516551 -1.026843,5.772464 -0.534756,1.525804 -0.01191,1.899672 -1.72214,2.426032 z"
       style="fill:#ff0000;fill-opacity:1"
       inkscape:export-filename="C:\Users\Stéphane\Desktop\Blogs\OpenFoodFacts\off-logo-en.712x575.png"
       inkscape:export-xdpi="360"
       inkscape:export-ydpi="360" />
    <g
       style="fill:#ffcc00"
       transform="matrix(0.01488015,-0.01147672,0.01147672,0.01488015,39.17529,7.5675208)"
       id="g8035"
       inkscape:export-filename="C:\Users\Stéphane\Desktop\Blogs\OpenFoodFacts\off-logo-en.712x575.png"
       inkscape:export-xdpi="360"
       inkscape:export-ydpi="360">
      <ellipse
         ry="32.857143"
         rx="65.714287"
         cy="762.36218"
         cx="567.14288"
         style="fill:#ffcc00;fill-opacity:1;stroke:none"
         id="path8037"
         transform="matrix(0.58270937,-0.81268061,0.81268061,0.58270937,-465.7507,809.03262)" />
      <path
         style="fill:#ffcc00;fill-opacity:1;stroke:none"
         d="m 494.28571,741.6479 c 0,0 14.40901,-2.31616 20.71429,-5.71428 22.08801,-11.90395 53.57143,-52.85715 53.57143,-52.85715 0,0 -33.14169,43.13867 -40,64.99999 -2.07174,6.60382 -1.42857,20.71429 -1.42857,20.71429 z"
         id="path8039"
         inkscape:connector-curvature="0"
         sodipodi:nodetypes="cscscc" />
    </g>
    <g
       transform="matrix(0.89458574,0,0,0.89458574,-468.13007,-644.42698)"
       id="g8041"
       inkscape:export-filename="C:\Users\Stéphane\Desktop\Blogs\OpenFoodFacts\off-logo-en.712x575.png"
       inkscape:export-xdpi="360"
       inkscape:export-ydpi="360">
      <g
         id="g8043"
         transform="translate(-9.5459416,1.1490485)"
         style="fill:#ffcc00">
        <g
           transform="matrix(0.02100622,0,0,0.02100622,586.13922,725.53281)"
           id="g8045"
           style="fill:#ffcc00">
          <ellipse
             ry="32.857143"
             rx="65.714287"
             cy="762.36218"
             cx="567.14288"
             style="fill:#ffcc00;fill-opacity:1;stroke:none"
             id="path8047"
             transform="matrix(0.58270937,-0.81268061,0.81268061,0.58270937,-465.7507,809.03262)" />
          <path
             style="fill:#ffcc00;fill-opacity:1;stroke:none"
             d="m 494.28571,741.6479 c 0,0 14.40901,-2.31616 20.71429,-5.71428 22.08801,-11.90395 53.57143,-52.85715 53.57143,-52.85715 0,0 -33.14169,43.13867 -40,64.99999 -2.07174,6.60382 -1.42857,20.71429 -1.42857,20.71429 z"
             id="path8049"
             inkscape:connector-curvature="0"
             sodipodi:nodetypes="cscscc" />
        </g>
        <g
           transform="matrix(0.02100622,0,0,0.02100622,586.13922,727.5359)"
           id="g8051"
           style="fill:#ffcc00">
          <ellipse
             ry="32.857143"
             rx="65.714287"
             cy="762.36218"
             cx="567.14288"
             style="fill:#ffcc00;fill-opacity:1;stroke:none"
             id="path8053"
             transform="matrix(0.58270937,-0.81268061,0.81268061,0.58270937,-465.7507,809.03262)" />
          <path
             style="fill:#ffcc00;fill-opacity:1;stroke:none"
             d="m 494.28571,741.6479 c 0,0 14.40901,-2.31616 20.71429,-5.71428 22.08801,-11.90395 53.57143,-52.85715 53.57143,-52.85715 0,0 -33.14169,43.13867 -40,64.99999 -2.07174,6.60382 -1.42857,20.71429 -1.42857,20.71429 z"
             id="path8055"
             inkscape:connector-curvature="0"
             sodipodi:nodetypes="cscscc" />
        </g>
        <g
           transform="matrix(0.02100622,0,0,0.02100622,586.13922,723.52972)"
           id="g8057"
           style="fill:#ffcc00">
          <ellipse
             ry="32.857143"
             rx="65.714287"
             cy="762.36218"
             cx="567.14288"
             style="fill:#ffcc00;fill-opacity:1;stroke:none"
             id="path8059"
             transform="matrix(0.58270937,-0.81268061,0.81268061,0.58270937,-465.7507,809.03262)" />
          <path
             style="fill:#ffcc00;fill-opacity:1;stroke:none"
             d="m 494.28571,741.6479 c 0,0 14.40901,-2.31616 20.71429,-5.71428 22.08801,-11.90395 53.57143,-52.85715 53.57143,-52.85715 0,0 -33.14169,43.13867 -40,64.99999 -2.07174,6.60382 -1.42857,20.71429 -1.42857,20.71429 z"
             id="path8061"
             inkscape:connector-curvature="0"
             sodipodi:nodetypes="cscscc" />
        </g>
        <g
           transform="matrix(0.02100622,0,0,0.02100622,586.13922,721.52662)"
           id="g8063"
           style="fill:#ffcc00">
          <ellipse
             ry="32.857143"
             rx="65.714287"
             cy="762.36218"
             cx="567.14288"
             style="fill:#ffcc00;fill-opacity:1;stroke:none"
             id="path8065"
             transform="matrix(0.58270937,-0.81268061,0.81268061,0.58270937,-465.7507,809.03262)" />
          <path
             style="fill:#ffcc00;fill-opacity:1;stroke:none"
             d="m 494.28571,741.6479 c 0,0 14.40901,-2.31616 20.71429,-5.71428 22.08801,-11.90395 53.57143,-52.85715 53.57143,-52.85715 0,0 -33.14169,43.13867 -40,64.99999 -2.07174,6.60382 -1.42857,20.71429 -1.42857,20.71429 z"
             id="path8067"
             inkscape:connector-curvature="0"
             sodipodi:nodetypes="cscscc" />
        </g>
        <g
           transform="matrix(0.02064274,-0.0038908,0.0038908,0.02064274,583.1049,721.64932)"
           id="g8069"
           style="fill:#ffcc00">
          <ellipse
             ry="32.857143"
             rx="65.714287"
             cy="762.36218"
             cx="567.14288"
             style="fill:#ffcc00;fill-opacity:1;stroke:none"
             id="path8071"
             transform="matrix(0.58270937,-0.81268061,0.81268061,0.58270937,-465.7507,809.03262)" />
          <path
             style="fill:#ffcc00;fill-opacity:1;stroke:none"
             d="m 494.28571,741.6479 c 0,0 14.40901,-2.31616 20.71429,-5.71428 22.08801,-11.90395 53.57143,-52.85715 53.57143,-52.85715 0,0 -33.14169,43.13867 -40,64.99999 -2.07174,6.60382 -1.42857,20.71429 -1.42857,20.71429 z"
             id="path8073"
             inkscape:connector-curvature="0"
             sodipodi:nodetypes="cscscc" />
        </g>
      </g>
      <g
         id="g8075"
         style="fill:#ffcc00"
         transform="translate(-10.253048,1.1490485)">
        <g
           transform="matrix(-0.02100622,0,0,0.02100622,604.26937,725.53281)"
           id="g8077"
           style="fill:#ffcc00">
          <ellipse
             ry="32.857143"
             rx="65.714287"
             cy="762.36218"
             cx="567.14288"
             style="fill:#ffcc00;fill-opacity:1;stroke:none"
             id="path8079"
             transform="matrix(0.58270937,-0.81268061,0.81268061,0.58270937,-465.7507,809.03262)" />
          <path
             style="fill:#ffcc00;fill-opacity:1;stroke:none"
             d="m 494.28571,741.6479 c 0,0 14.40901,-2.31616 20.71429,-5.71428 22.08801,-11.90395 53.57143,-52.85715 53.57143,-52.85715 0,0 -33.14169,43.13867 -40,64.99999 -2.07174,6.60382 -1.42857,20.71429 -1.42857,20.71429 z"
             id="path8081"
             inkscape:connector-curvature="0"
             sodipodi:nodetypes="cscscc" />
        </g>
        <g
           transform="matrix(-0.02100622,0,0,0.02100622,604.26938,727.5359)"
           id="g8083"
           style="fill:#ffcc00">
          <ellipse
             ry="32.857143"
             rx="65.714287"
             cy="762.36218"
             cx="567.14288"
             style="fill:#ffcc00;fill-opacity:1;stroke:none"
             id="path8085"
             transform="matrix(0.58270937,-0.81268061,0.81268061,0.58270937,-465.7507,809.03262)" />
          <path
             style="fill:#ffcc00;fill-opacity:1;stroke:none"
             d="m 494.28571,741.6479 c 0,0 14.40901,-2.31616 20.71429,-5.71428 22.08801,-11.90395 53.57143,-52.85715 53.57143,-52.85715 0,0 -33.14169,43.13867 -40,64.99999 -2.07174,6.60382 -1.42857,20.71429 -1.42857,20.71429 z"
             id="path8087"
             inkscape:connector-curvature="0"
             sodipodi:nodetypes="cscscc" />
        </g>
        <g
           transform="matrix(-0.02100622,0,0,0.02100622,604.26938,723.52972)"
           id="g8089"
           style="fill:#ffcc00">
          <ellipse
             ry="32.857143"
             rx="65.714287"
             cy="762.36218"
             cx="567.14288"
             style="fill:#ffcc00;fill-opacity:1;stroke:none"
             id="path8091"
             transform="matrix(0.58270937,-0.81268061,0.81268061,0.58270937,-465.7507,809.03262)" />
          <path
             style="fill:#ffcc00;fill-opacity:1;stroke:none"
             d="m 494.28571,741.6479 c 0,0 14.40901,-2.31616 20.71429,-5.71428 22.08801,-11.90395 53.57143,-52.85715 53.57143,-52.85715 0,0 -33.14169,43.13867 -40,64.99999 -2.07174,6.60382 -1.42857,20.71429 -1.42857,20.71429 z"
             id="path8093"
             inkscape:connector-curvature="0"
             sodipodi:nodetypes="cscscc" />
        </g>
        <g
           transform="matrix(-0.02100622,0,0,0.02100622,604.26937,721.52662)"
           id="g8095"
           style="fill:#ffcc00">
          <ellipse
             ry="32.857143"
             rx="65.714287"
             cy="762.36218"
             cx="567.14288"
             style="fill:#ffcc00;fill-opacity:1;stroke:none"
             id="path8097"
             transform="matrix(0.58270937,-0.81268061,0.81268061,0.58270937,-465.7507,809.03262)" />
          <path
             style="fill:#ffcc00;fill-opacity:1;stroke:none"
             d="m 494.28571,741.6479 c 0,0 14.40901,-2.31616 20.71429,-5.71428 22.08801,-11.90395 53.57143,-52.85715 53.57143,-52.85715 0,0 -33.14169,43.13867 -40,64.99999 -2.07174,6.60382 -1.42857,20.71429 -1.42857,20.71429 z"
             id="path8099"
             inkscape:connector-curvature="0"
             sodipodi:nodetypes="cscscc" />
        </g>
        <g
           transform="matrix(-0.02064274,-0.0038908,-0.0038908,0.02064274,607.30369,721.64932)"
           id="g8101"
           style="fill:#ffcc00">
          <ellipse
             ry="32.857143"
             rx="65.714287"
             cy="762.36218"
             cx="567.14288"
             style="fill:#ffcc00;fill-opacity:1;stroke:none"
             id="path8103"
             transform="matrix(0.58270937,-0.81268061,0.81268061,0.58270937,-465.7507,809.03262)" />
          <path
             style="fill:#ffcc00;fill-opacity:1;stroke:none"
             d="m 494.28571,741.6479 c 0,0 14.40901,-2.31616 20.71429,-5.71428 22.08801,-11.90395 53.57143,-52.85715 53.57143,-52.85715 0,0 -33.14169,43.13867 -40,64.99999 -2.07174,6.60382 -1.42857,20.71429 -1.42857,20.71429 z"
             id="path8105"
             inkscape:connector-curvature="0"
             sodipodi:nodetypes="cscscc" />
        </g>
      </g>
    </g>
    <g
       id="g8107"
       transform="matrix(0.485552,-0.55754244,0.55754244,0.485552,-616.03955,-2.5771103)"
       inkscape:export-filename="C:\Users\Stéphane\Desktop\Blogs\OpenFoodFacts\off-logo-en.712x575.png"
       inkscape:export-xdpi="360"
       inkscape:export-ydpi="360">
      <circle
         r="2.5"
         cy="732.36218"
         cx="608"
         style="fill:#ffcc00;fill-opacity:1"
         id="path8109"
         transform="translate(1.5,9.75)" />
      <circle
         r="2.5"
         cy="732.36218"
         cx="608"
         id="path8111"
         style="fill:#ffcc00;fill-opacity:1"
         inkscape:transform-center-x="-3.1501887"
         inkscape:transform-center-y="-1.6050895"
         transform="matrix(0.30901699,-0.95105652,0.95105652,0.30901699,-274.24997,1089.9371)" />
      <circle
         r="2.5"
         cy="732.36218"
         cx="608"
         transform="matrix(-0.809017,-0.58778525,0.58778525,-0.809017,667.85758,1685.9871)"
         inkscape:transform-center-y="-3.4919705"
         inkscape:transform-center-x="0.5530674"
         style="fill:#ffcc00;fill-opacity:1"
         id="path8113" />
      <circle
         r="2.5"
         cy="732.36218"
         cx="608"
         id="path8115"
         style="fill:#ffcc00;fill-opacity:1"
         inkscape:transform-center-x="3.4919258"
         inkscape:transform-center-y="-0.5530731"
         transform="matrix(-0.80901699,0.58778526,-0.58778526,-0.80901699,1525.8621,974.17912)" />
      <circle
         r="2.5"
         cy="732.36218"
         cx="608"
         transform="matrix(0.309017,0.95105651,-0.95105651,0.309017,1114.0304,-61.792435)"
         inkscape:transform-center-y="3.1501051"
         inkscape:transform-center-x="1.6050854"
         style="fill:#ffcc00;fill-opacity:1"
         id="path8117" />
    </g>
    <g
       transform="matrix(-0.6491698,-0.35382606,0.35382606,-0.6491698,218.16484,702.9075)"
       id="g8119"
       inkscape:export-filename="C:\Users\Stéphane\Desktop\Blogs\OpenFoodFacts\off-logo-en.712x575.png"
       inkscape:export-xdpi="360"
       inkscape:export-ydpi="360">
      <circle
         r="2.5"
         cy="732.36218"
         cx="608"
         transform="translate(1.5,9.75)"
         id="path8121"
         style="fill:#ffcc00;fill-opacity:1" />
      <circle
         r="2.5"
         cy="732.36218"
         cx="608"
         transform="matrix(0.30901699,-0.95105652,0.95105652,0.30901699,-274.24997,1089.9371)"
         inkscape:transform-center-y="-1.6050895"
         inkscape:transform-center-x="-3.1501887"
         style="fill:#ffcc00;fill-opacity:1"
         id="path8123" />
      <circle
         r="2.5"
         cy="732.36218"
         cx="608"
         id="path8125"
         style="fill:#ffcc00;fill-opacity:1"
         inkscape:transform-center-x="0.5530674"
         inkscape:transform-center-y="-3.4919705"
         transform="matrix(-0.809017,-0.58778525,0.58778525,-0.809017,667.85758,1685.9871)" />
      <circle
         r="2.5"
         cy="732.36218"
         cx="608"
         transform="matrix(-0.80901699,0.58778526,-0.58778526,-0.80901699,1525.8621,974.17912)"
         inkscape:transform-center-y="-0.5530731"
         inkscape:transform-center-x="3.4919258"
         style="fill:#ffcc00;fill-opacity:1"
         id="path8127" />
      <circle
         r="2.5"
         cy="732.36218"
         cx="608"
         id="path8129"
         style="fill:#ffcc00;fill-opacity:1"
         inkscape:transform-center-x="1.6050854"
         inkscape:transform-center-y="3.1501051"
         transform="matrix(0.309017,0.95105651,-0.95105651,0.309017,1114.0304,-61.792435)" />
    </g>
    <g
       id="g8131"
       transform="matrix(0.31450273,-0.66910564,0.66910564,0.31450273,-610.58237,190.80877)"
       inkscape:export-filename="C:\Users\Stéphane\Desktop\Blogs\OpenFoodFacts\off-logo-en.712x575.png"
       inkscape:export-xdpi="360"
       inkscape:export-ydpi="360">
      <circle
         r="2.5"
         cy="732.36218"
         cx="608"
         style="fill:#ffcc00;fill-opacity:1"
         id="path8133"
         transform="translate(1.5,9.75)" />
      <circle
         r="2.5"
         cy="732.36218"
         cx="608"
         id="path8135"
         style="fill:#ffcc00;fill-opacity:1"
         inkscape:transform-center-x="-3.1501887"
         inkscape:transform-center-y="-1.6050895"
         transform="matrix(0.30901699,-0.95105652,0.95105652,0.30901699,-274.24997,1089.9371)" />
      <circle
         r="2.5"
         cy="732.36218"
         cx="608"
         transform="matrix(-0.809017,-0.58778525,0.58778525,-0.809017,667.85758,1685.9871)"
         inkscape:transform-center-y="-3.4919705"
         inkscape:transform-center-x="0.5530674"
         style="fill:#ffcc00;fill-opacity:1"
         id="path8137" />
      <circle
         r="2.5"
         cy="732.36218"
         cx="608"
         id="path8139"
         style="fill:#ffcc00;fill-opacity:1"
         inkscape:transform-center-x="3.4919258"
         inkscape:transform-center-y="-0.5530731"
         transform="matrix(-0.80901699,0.58778526,-0.58778526,-0.80901699,1525.8621,974.17912)" />
      <circle
         r="2.5"
         cy="732.36218"
         cx="608"
         transform="matrix(0.309017,0.95105651,-0.95105651,0.309017,1114.0304,-61.792435)"
         inkscape:transform-center-y="3.1501051"
         inkscape:transform-center-x="1.6050854"
         style="fill:#ffcc00;fill-opacity:1"
         id="path8141" />
    </g>
    <path
       style="fill:#00d400;fill-opacity:1;fill-rule:nonzero;stroke:none"
       d="M 122.44657,6.3372804 C 131.63587,7.2870331 135.07702,14.767884 135,28 l 2.96392,-1.398609 c 0,-1.461895 -0.0255,-1.249361 -0.0255,-2.711244 0,-10.866897 -6.40398,-17.274677 -10.91182,-18.343579 z"
       id="path8143"
       inkscape:connector-curvature="0"
       inkscape:export-filename="C:\Users\Stéphane\Desktop\Blogs\OpenFoodFacts\off-logo-en.712x575.png"
       inkscape:export-xdpi="360"
       inkscape:export-ydpi="360"
       sodipodi:nodetypes="cccscc" />
    <g
       transform="matrix(0.89458574,0,0,0.89458574,-468.09845,-644.42698)"
       id="g8145"
       inkscape:export-filename="C:\Users\Stéphane\Desktop\Blogs\OpenFoodFacts\off-logo-en.712x575.png"
       inkscape:export-xdpi="360"
       inkscape:export-ydpi="360">
      <g
         transform="translate(-0.6875,-0.0625)"
         id="g8147">
        <path
           sodipodi:nodetypes="ccc"
           inkscape:connector-curvature="0"
           id="path8149"
           d="m 646.11882,744.69741 c 9.98853,-2.85699 22.36057,-3.40732 20.1894,-18.03175 -19.13147,-9.00363 -12.68327,7.89971 -20.1894,18.03175 z"
           style="fill:#00d400;stroke:none" />
        <path
           sodipodi:nodetypes="ccc"
           inkscape:connector-curvature="0"
           id="path8151"
           d="m 667.50879,725.1485 c -4.96993,6.86401 -15.79612,16.96445 -22.45063,19.97578 6.6817,-2.48508 19.65127,-12.66443 22.45063,-19.97578 z"
           style="fill:#ffffff;fill-opacity:1;stroke:none" />
      </g>
    </g>
    <g
       id="g8153"
       transform="matrix(0.73729109,0.50664139,0.50664139,-0.73729109,-728.9281,199.42539)"
       inkscape:export-filename="C:\Users\Stéphane\Desktop\Blogs\OpenFoodFacts\off-logo-en.712x575.png"
       inkscape:export-xdpi="360"
       inkscape:export-ydpi="360">
      <g
         transform="matrix(-0.85351374,-0.52107033,0.52107033,-0.85351374,864.58887,1695.2445)"
         id="g8155">
        <g
           transform="translate(-0.6875,-0.0625)"
           id="g8157">
          <path
             sodipodi:nodetypes="ccc"
             inkscape:connector-curvature="0"
             id="path8159"
             d="m 646.11882,744.69741 c 9.98853,-2.85699 22.36057,-3.40732 20.1894,-18.03175 -19.99874,-7.24796 -12.68327,7.89971 -20.1894,18.03175 z"
             style="fill:#00d400;stroke:none" />
          <path
             sodipodi:nodetypes="ccc"
             inkscape:connector-curvature="0"
             id="path8161"
             d="m 667.50879,725.1485 c -4.96993,6.86401 -15.79612,16.96445 -22.45063,19.97578 6.6817,-2.48508 19.65127,-12.66443 22.45063,-19.97578 z"
             style="fill:#ffffff;fill-opacity:1;stroke:none" />
        </g>
      </g>
    </g>
    <path
       sodipodi:nodetypes="cccscc"
       inkscape:export-ydpi="360"
       inkscape:export-xdpi="360"
       inkscape:export-filename="C:\Users\Stéphane\Desktop\Blogs\OpenFoodFacts\off-logo-en.712x575.png"
       inkscape:connector-curvature="0"
       id="path8163"
       d="M 137.87818,4.6040196 C 135.88514,6.1688092 135.07702,14.767884 135,28 l 2.96392,-1.398609 c 0,-1.461895 0.0361,1.860492 0.0361,0.398609 0,-10.866897 0.85886,-19.3222012 1.21536,-21.1179659 z"
       style="fill:#00d400;fill-opacity:1;fill-rule:nonzero;stroke:none" />
    <circle
       r="0.94885141"
       cy="35.27636"
       cx="159.09236"
       inkscape:export-ydpi="360"
       inkscape:export-xdpi="360"
       inkscape:export-filename="C:\Users\Stéphane\Desktop\Blogs\OpenFoodFacts\off-logo-en.712x575.png"
       style="fill:#00ccff;fill-opacity:1;stroke:none"
       id="path8165" />
    <g
       transform="matrix(0.89476596,0,0,0.89458574,-763.01815,-727.33576)"
       id="g8167"
       inkscape:export-filename="C:\Users\Stéphane\Desktop\Blogs\OpenFoodFacts\off-logo-en.712x575.png"
       inkscape:export-xdpi="360"
       inkscape:export-ydpi="360">
      <path
         inkscape:connector-curvature="0"
         style="fill:#0066ff;fill-opacity:1;fill-rule:nonzero;stroke:none"
         d="m 1042.7511,944.94661 0,5.58918 c 2.9792,0 5.9616,0 8.9408,0 l 0,-5.58918 c -2.9792,0 -5.9616,0 -8.9407,0 z"
         id="path8169"
         inkscape:export-filename="C:\Users\Stéphane\Desktop\Blogs\OpenFoodFacts\openfoodfacts-250b.png"
         inkscape:export-xdpi="112.45"
         inkscape:export-ydpi="112.45"
         sodipodi:nodetypes="cccccc" />
      <path
         inkscape:connector-curvature="0"
         style="fill:#00ccff;fill-opacity:1;fill-rule:nonzero;stroke:none"
         d="m 1024.8693,944.94661 0,5.58918 c 4.8438,0 9.6851,0 14.5289,0 l 0,-5.58918 c -4.8438,0 -9.6851,0 -14.5289,0 z"
         id="path8171"
         inkscape:export-filename="C:\Users\Stéphane\Desktop\Blogs\OpenFoodFacts\openfoodfacts-250b.png"
         inkscape:export-xdpi="112.45"
         inkscape:export-ydpi="112.45"
         sodipodi:nodetypes="ccccc" />
      <path
         inkscape:connector-curvature="0"
         style="fill:#00d400;fill-opacity:1;fill-rule:nonzero;stroke:none"
         d="m 958.93025,944.94661 0,5.58918 c 20.85417,0 41.73205,0 62.58625,0 l 0,-5.58918 c -20.8542,0 -41.73208,0 -62.58625,0 z"
         id="path8173"
         inkscape:export-filename="C:\Users\Stéphane\Desktop\Blogs\OpenFoodFacts\openfoodfacts-250b.png"
         inkscape:export-xdpi="112.45"
         inkscape:export-ydpi="112.45"
         sodipodi:nodetypes="ccccc" />
      <path
         inkscape:connector-curvature="0"
         style="fill:#ffcc00;fill-opacity:1;fill-rule:nonzero;stroke:none"
         d="m 894.10883,944.94661 0,5.58918 c 20.48959,0 40.97901,0 61.46859,0 l 0,-5.58918 c -20.48958,0 -40.979,0 -61.46859,0 z"
         id="path8175"
         inkscape:export-filename="C:\Users\Stéphane\Desktop\Blogs\OpenFoodFacts\openfoodfacts-250b.png"
         inkscape:export-xdpi="112.45"
         inkscape:export-ydpi="112.45"
         sodipodi:nodetypes="ccccc" />
      <path
         inkscape:connector-curvature="0"
         style="fill:#ff0000;fill-opacity:1;fill-rule:nonzero;stroke:none"
         d="m 852.75724,944.94661 0,5.58918 c 12.66667,0 25.3321,0 37.99876,0 l 0,-5.58918 c -12.66666,0 -25.33209,0 -37.99876,0 z"
         id="path8177"
         inkscape:export-filename="C:\Users\Stéphane\Desktop\Blogs\OpenFoodFacts\openfoodfacts-250b.png"
         inkscape:export-xdpi="112.45"
         inkscape:export-ydpi="112.45"
         sodipodi:nodetypes="ccccc" />
    </g>
    <g
       style="font-style:normal;font-variant:normal;font-weight:normal;font-stretch:normal;font-size:32.81705093px;line-height:125%;font-family:'Arial Narrow';-inkscape-font-specification:'Arial Narrow';letter-spacing:0px;word-spacing:0px;fill:#333333;fill-opacity:1;stroke:none"
       id="text8179"
       inkscape:export-filename="C:\Users\Stéphane\Desktop\Blogs\OpenFoodFacts\off-logo-en.712x575.png"
       inkscape:export-xdpi="360"
       inkscape:export-ydpi="360"
       transform="translate(0,2.6378174)">
      <path
         d="m 0.29533203,104.18406 c -9.5e-7,-2.79573 0.61506181,-4.944723 1.84519007,-6.446982 1.2301228,-1.50223 2.7621882,-2.253352 4.5962009,-2.253369 1.1853862,1.7e-5 2.2664056,0.335506 3.2430614,1.006468 0.9766346,0.670993 1.7501226,1.645774 2.3204666,2.924346 0.570318,1.278597 0.855483,2.801347 0.855497,4.568247 -1.4e-5,2.43043 -0.551707,4.40982 -1.65508,5.93815 -1.215227,1.68491 -2.8069346,2.52736 -4.775128,2.52736 -1.9831188,0 -3.5785543,-0.86482 -4.7863113,-2.59445 -1.09593262,-1.56562 -1.64389762,-3.45554 -1.64389667,-5.66977 z m 1.83400717,0.0335 c -2.8e-6,2.0204 0.4454517,3.58787 1.3363649,4.70244 0.890905,1.11457 1.9737882,1.67185 3.2486529,1.67185 1.3046712,0 2.3987374,-0.56287 3.2822018,-1.68863 0.8834432,-1.12574 1.3251702,-2.78082 1.3251822,-4.96524 -1.2e-5,-1.40904 -0.227399,-2.66899 -0.682161,-3.77984 C 10.289169,99.308298 9.761706,98.628001 9.0571893,98.117299 8.3526532,97.606624 7.5828928,97.35128 6.7479059,97.351265 5.4059434,97.35128 4.3006943,97.910428 3.4321552,99.028711 2.563608,100.14702 2.1293364,101.87665 2.1293392,104.21761 Z"
         style="font-size:22.90272331px;fill:#333333"
         id="path3685"
         inkscape:connector-curvature="0" />
      <path
         d="m 15,112.36218 0,-16.999997 4.674837,0 c 1.224167,1.6e-5 2.126995,0.107131 2.708487,0.321346 0.795704,0.290757 1.430744,0.830159 1.905122,1.618206 0.474357,0.788077 0.711542,1.755941 0.711554,2.903595 -1.2e-5,1.51492 -0.386392,2.75057 -1.159142,3.70695 -0.772771,0.9564 -2.107912,1.42433 -4.005348,1.43458 L 17,105.36218 l 0,7 z m 2,-9 2.86994,-7.7e-4 c 1.124703,-3e-4 1.947195,-0.25439 2.467477,-0.7632 0.520265,-0.50879 0.780403,-1.27581 0.780412,-2.30107 -9e-6,-0.665632 -0.128166,-1.235638 -0.384467,-1.710022 -0.256321,-0.474353 -0.56619,-0.799524 -0.929608,-0.975514 -0.363435,-0.17596 -1.019516,-0.263948 -1.968244,-0.263963 L 17,97.362183 Z"
         style="font-size:22.90272331px;fill:#333333"
         id="path3687"
         inkscape:connector-curvature="0"
         sodipodi:nodetypes="ccccccssccccsscccccc" />
      <path
         d="m 27,112.36218 0,-16.999997 10,0 0,2 -8,0 0,4.999997 7,0 0,2 -7,0 0,6 8,0 0,2 z"
         style="font-size:22.90272331px;fill:#333333"
         id="path3689"
         inkscape:connector-curvature="0"
         sodipodi:nodetypes="ccccccccccccc" />
      <path
         d="m 39,112.36218 0,-16.999997 2,0 7,12.999997 0,-12.999997 2,0 0,16.999997 -2,0 -7,-12.999997 0,12.999997 z"
         style="font-size:22.90272331px;fill:#333333"
         id="path3691"
         inkscape:connector-curvature="0"
         sodipodi:nodetypes="ccccccccccc" />
      <path
         d="m 58,112.36218 0,-16.999997 9,0 0,2 -7,0 0,4.999997 6,0 0,2 -6,0 0,8 z"
         style="font-size:22.90272331px;fill:#333333"
         id="path3693"
         inkscape:connector-curvature="0"
         sodipodi:nodetypes="ccccccccccc" />
      <path
         d="m 68.255995,104.18406 c -10e-7,-2.79573 0.615062,-4.944723 1.84519,-6.446982 1.230123,-1.50223 2.762188,-2.253352 4.596201,-2.253369 1.185386,1.7e-5 2.266405,0.335506 3.243061,1.006468 0.976635,0.670993 1.750123,1.645774 2.320467,2.924346 0.570318,1.278597 0.855483,2.801347 0.855497,4.568247 -1.4e-5,2.43043 -0.551707,4.40982 -1.65508,5.93815 -1.215227,1.68491 -2.806935,2.52736 -4.775128,2.52736 -1.983119,0 -3.578554,-0.86482 -4.786311,-2.59445 -1.095933,-1.56562 -1.643898,-3.45554 -1.643897,-5.66977 z m 1.834007,0.0335 c -3e-6,2.0204 0.445452,3.58787 1.336365,4.70244 0.890905,1.11457 1.973788,1.67185 3.248653,1.67185 1.304671,0 2.398737,-0.56287 3.282202,-1.68863 0.883443,-1.12574 1.32517,-2.78082 1.325182,-4.96524 -1.2e-5,-1.40904 -0.227399,-2.66899 -0.682162,-3.77984 -0.35041,-0.849892 -0.877873,-1.530189 -1.58239,-2.040891 -0.704536,-0.510675 -1.474296,-0.766019 -2.309283,-0.766034 -1.341963,1.5e-5 -2.447212,0.559163 -3.315751,1.677446 -0.868547,1.118309 -1.302819,2.847939 -1.302816,5.188899 z"
         style="font-size:22.90272331px;fill:#333333"
         id="path3695"
         inkscape:connector-curvature="0"
         sodipodi:nodetypes="sscccccscsssssccccss" />
      <path
         d="m 82.883322,104.18406 c -1e-6,-2.79573 0.615062,-4.944723 1.84519,-6.446982 1.230123,-1.50223 2.762188,-2.253352 4.596201,-2.253369 1.185386,1.7e-5 2.266405,0.335506 3.243061,1.006468 0.976635,0.670993 1.750123,1.645774 2.320467,2.924346 0.570317,1.278597 0.855483,2.801347 0.855497,4.568247 -1.4e-5,2.43043 -0.551707,4.40982 -1.65508,5.93815 -1.215227,1.68491 -2.806935,2.52736 -4.775128,2.52736 -1.983119,0 -3.578555,-0.86482 -4.786312,-2.59445 -1.095932,-1.56562 -1.643897,-3.45554 -1.643896,-5.66977 z m 1.834007,0.0335 c -3e-6,2.0204 0.445452,3.58787 1.336365,4.70244 0.890905,1.11457 1.973788,1.67185 3.248653,1.67185 1.304671,0 2.398737,-0.56287 3.282202,-1.68863 0.883443,-1.12574 1.32517,-2.78082 1.325182,-4.96524 -1.2e-5,-1.40904 -0.227399,-2.66899 -0.682162,-3.77984 -0.35041,-0.849892 -0.877873,-1.530189 -1.58239,-2.040891 -0.704536,-0.510675 -1.474296,-0.766019 -2.309283,-0.766034 -1.341963,1.5e-5 -2.447212,0.559163 -3.315751,1.677446 -0.868547,1.118309 -1.302819,2.847939 -1.302816,5.188899 z"
         style="font-size:22.90272331px;fill:#333333"
         id="path3697"
         inkscape:connector-curvature="0"
         sodipodi:nodetypes="sscccccscsssssccccss" />
      <path
         d="m 98,112.36218 0,-16.999997 5,0 c 1.21266,1.6e-5 2.00501,0.174276 2.63497,0.382679 0.82682,0.270189 1.54339,0.719576 2.14974,1.437449 0.60633,0.717903 1.0788,1.622982 1.41741,2.715233 0.33859,1.092286 0.50789,2.387186 0.5079,3.884706 -1e-5,1.9221 -0.28743,3.55278 -0.86225,4.89207 -0.57485,1.33928 -1.31309,2.28875 -2.21471,2.8484 -0.90163,0.55964 -2.17628,0.83946 -3.63306,0.83946 z m 2,-2 3,0 c 1.22054,0 2.01682,-0.19791 2.64678,-0.58773 0.62996,-0.38982 1.11424,-1.01701 1.45285,-1.88157 0.44883,-1.15015 0.67326,-2.52803 0.67327,-4.13365 -1e-5,-1.72137 -0.23822,-3.07416 -0.71461,-4.058372 -0.47642,-0.984193 -1.08866,-1.642257 -1.83673,-1.974198 C 104.71759,97.502677 104.09454,97.362198 103,97.362183 l -3,0 z"
         style="font-size:22.90272331px;fill:#333333"
         id="path3699"
         inkscape:connector-curvature="0"
         sodipodi:nodetypes="ccccccccssccssccccccc" />
      <path
         d="m 118,112.36218 0.0757,-16.999997 9,0 0,2 -7,3.8e-5 0,4.999999 6,0 0,2 -6,0 0,7.99996 z"
         style="font-size:22.90272331px;fill:#333333"
         id="path3701"
         inkscape:connector-curvature="0"
         sodipodi:nodetypes="ccccccccccc" />
      <path
         d="m 128.07572,112.36218 5,-16.999997 2,0 5,16.999997 -2,0 -4,-14.999997 -4.04025,14.999997 z"
         style="font-size:22.90272331px;fill:#333333"
         id="path3703"
         inkscape:connector-curvature="0"
         sodipodi:nodetypes="cccccccc" />
      <path
         d="m 151.36137,106.42065 1.78927,0.54797 c -0.39514,1.84147 -1.08662,3.21511 -2.07444,4.12092 -0.98784,0.90583 -2.19001,1.35874 -3.60651,1.35874 -1.24504,0 -2.30929,-0.30381 -3.19273,-0.91142 -0.88346,-0.6076 -1.60663,-1.58238 -2.1695,-2.92434 -0.56288,-1.34195 -0.84432,-2.92621 -0.84432,-4.75277 0,-1.80417 0.28144,-3.33065 0.84432,-4.579422 0.56287,-1.248751 1.32518,-2.191847 2.28692,-2.829292 0.96173,-0.637413 2.03529,-0.956127 3.22069,-0.956144 1.29722,1.7e-5 2.41179,0.404467 3.34371,1.213353 0.9319,0.808916 1.58424,1.996173 1.95702,3.561775 l -1.74454,0.50323 c -0.59644,-2.281308 -1.79302,-3.42197 -3.58974,-3.421985 -0.89464,1.5e-5 -1.66999,0.229266 -2.32605,0.687753 -0.65608,0.458516 -1.17981,1.172361 -1.57121,2.141542 -0.39141,0.9692 -0.58711,2.1956 -0.58711,3.67919 0,2.24406 0.39513,3.92709 1.1854,5.04912 0.79026,1.12202 1.84145,1.68303 3.15359,1.68303 0.96919,0 1.80605,-0.3448 2.51058,-1.03442 0.70452,-0.68962 1.17607,-1.73522 1.41465,-3.13683 z"
         style="font-size:22.90272331px;fill:#333333"
         id="path3705"
         inkscape:connector-curvature="0"
         sodipodi:nodetypes="ccsscssscccccccsssssc" />
      <path
         d="m 159,112.36218 0,-14.999997 -5,0.0061 0,-2.006138 12,0 0,2 -5,0 0,14.999995 z"
         style="font-size:22.90272331px;fill:#333333"
         id="path3707"
         inkscape:connector-curvature="0"
         sodipodi:nodetypes="ccccccccc" />
      <path
         d="m 167.26826,106.90152 1.67745,-0.17893 c 0.0895,0.9021 0.29262,1.60476 0.60947,2.10799 0.31685,0.50324 0.76976,0.90769 1.35873,1.21336 0.58897,0.30567 1.25249,0.4585 1.99057,0.4585 1.05865,0 1.88059,-0.25907 2.46585,-0.77722 0.58523,-0.51814 0.87785,-1.19098 0.87786,-2.01852 -1e-5,-0.48459 -0.10625,-0.90768 -0.31872,-1.26927 -0.21248,-0.36158 -0.53306,-0.65793 -0.96173,-0.88905 -0.42869,-0.23111 -1.35501,-0.55541 -2.77897,-0.97292 -1.26741,-0.37275 -2.1695,-0.74925 -2.70628,-1.12948 -0.53678,-0.38021 -0.95428,-0.86294 -1.25249,-1.44819 -0.29822,-0.58523 -0.44732,-1.24689 -0.44732,-1.98498 0,-1.32703 0.42868,-2.411777 1.28604,-3.254242 0.85736,-0.842434 2.01293,-1.263659 3.46672,-1.263676 0.99901,1.7e-5 1.87314,0.197583 2.62241,0.592698 0.74925,0.395147 1.33076,0.96175 1.74454,1.699811 0.41376,0.73809 0.63556,1.606633 0.66539,2.605629 l -1.711,0.15656 c -0.0895,-1.066092 -0.40818,-1.856355 -0.95614,-2.370785 -0.54797,-0.514402 -1.31773,-0.77161 -2.30928,-0.771625 -1.00648,1.5e-5 -1.77437,0.225538 -2.30369,0.67657 -0.52934,0.45106 -0.794,1.034438 -0.794,1.750135 0,0.663535 0.19384,1.177955 0.58152,1.543245 0.38767,0.36533 1.25994,0.73436 2.61681,1.10712 1.32704,0.36532 2.25896,0.68217 2.79575,0.95055 0.82007,0.41751 1.43886,0.96734 1.85637,1.64949 0.41749,0.68217 0.62623,1.49666 0.62625,2.44348 -2e-5,0.93937 -0.21995,1.79487 -0.6598,2.56649 -0.43987,0.77163 -1.03816,1.35873 -1.79487,1.76132 -0.75672,0.40258 -1.66813,0.60388 -2.73423,0.60388 -1.66254,0 -2.98772,-0.49951 -3.97555,-1.49852 -0.98783,-0.99901 -1.50038,-2.35215 -1.53766,-4.05942 z"
         style="font-size:22.90272331px;fill:#333333"
         id="path3709"
         inkscape:connector-curvature="0" />
      <path
         sodipodi:nodetypes="ccccc"
         inkscape:connector-curvature="0"
         id="path3713"
         style="font-size:22.90272331px;fill:#333333"
         d="m 137.07572,105.36218 0,2 -6,0 0,-2 z" />
    </g>
    <g
       transform="scale(0.90339875,1.1069309)"
       style="font-style:normal;font-variant:normal;font-weight:normal;font-stretch:normal;font-size:39.02025986px;line-height:125%;font-family:'Arial Narrow';-inkscape-font-specification:'Arial Narrow';letter-spacing:0px;word-spacing:0px;fill:#333333;fill-opacity:1;stroke:none"
       id="text3715">
      <path
         d="m 3.7252903e-8,126.12579 0,-12.76691 1.280174762747097,0 0,12.76691 -1.280174762747097,0 z"
         style="font-size:17.83535957px;fill:#333333;fill-opacity:1"
         id="path12926" />
      <path
         d="m 8.2209862,124.98496 q -0.6444417,0.67057 -1.3411355,1.0102 -0.6966937,0.33964 -1.4456395,0.33964 -1.1843793,0 -1.8897817,-0.71411 -0.7054024,-0.71411 -0.7054024,-1.92462 0,-0.80119 0.3309295,-1.41951 0.3309295,-0.61832 0.9057018,-0.96666 0.5747724,-0.34835 1.7417344,-0.51381 1.5675609,-0.22643 2.2990893,-0.53994 l 0.00871,-0.4006 q 0,-0.94925 -0.3396382,-1.33243 -0.478977,-0.55735 -1.4717655,-0.55735 -0.8969932,0 -1.3411355,0.37447 -0.4441422,0.36577 -0.6531503,1.38468 l -1.2627574,-0.20901 q 0.2699688,-1.48918 1.0885839,-2.16846 0.8273238,-0.67927 2.36005,-0.67927 1.1930881,0 1.8723645,0.45285 0.6792763,0.44414 0.8534498,1.106 0.1828821,0.66186 0.1828821,1.93332 l 0,2.09008 q 0,2.19459 0.078378,2.76936 0.087087,0.56607 0.3309295,1.106 l -1.3411354,0 q -0.2002994,-0.47897 -0.2612601,-1.14083 z m -0.1045041,-3.50089 q -0.7054024,0.34835 -2.0987899,0.59219 -0.8099064,0.13934 -1.1321273,0.32222 -0.3222208,0.17418 -0.5051029,0.5051 -0.1741735,0.32223 -0.1741735,0.74895 0,0.66186 0.4093076,1.06246 0.4093076,0.39189 1.1321273,0.39189 0.6879851,0 1.2453401,-0.35706 0.5660636,-0.35705 0.8447411,-0.94924 0.2786775,-0.6009 0.2786775,-1.74174 l 0,-0.57477 z"
         style="font-size:17.83535957px;fill:#333333;fill-opacity:1"
         id="path12928" />
      <path
         d="m 15.501435,115.16158 0,-1.8027 1.280175,0 0,1.8027 -1.280175,0 z m 0,10.96421 0,-9.24861 1.280175,0 0,9.24861 -1.280175,0 z"
         style="font-size:17.83535957px;fill:#333333;fill-opacity:1"
         id="path12930" />
      <path
         d="m 18.741061,126.12579 0,-9.24861 1.158253,0 0,1.31501 q 0.418017,-0.76636 1.018915,-1.14083 0.609607,-0.38318 1.393387,-0.38318 0.609607,0 1.123419,0.24384 0.52252,0.23513 0.836033,0.62702 0.32222,0.38318 0.478977,1.0015 0.156756,0.61832 0.156756,1.89849 l 0,5.68676 -1.288884,0 0,-5.6258 q 0,-1.01891 -0.174173,-1.48918 -0.174174,-0.47027 -0.548647,-0.72282 -0.365764,-0.26126 -0.853449,-0.26126 -0.92312,0 -1.471766,0.68798 -0.548646,0.68799 -0.548646,2.36005 l 0,5.05103 -1.280175,0 z"
         style="font-size:17.83535957px;fill:#333333;fill-opacity:1"
         id="path12932" />
      <path
         d="m 27.258143,126.12579 0,-8.02939 -1.140836,0 0,-1.21922 1.140836,0 0,-0.98408 q 0,-1.08858 0.226425,-1.62852 0.226426,-0.54864 0.687985,-0.83603 0.470269,-0.28739 1.175671,-0.28739 0.548646,0 1.201797,0.15676 l -0.191591,1.36726 q -0.400599,-0.0871 -0.757654,-0.0871 -0.574773,0 -0.827324,0.30481 -0.243843,0.29609 -0.243843,1.14083 l 0,0.85345 1.480474,0 0,1.21922 -1.480474,0 0,8.02939 -1.271466,0 z"
         style="font-size:17.83535957px;fill:#333333;fill-opacity:1"
         id="path12934" />
      <path
         d="m 30.489059,121.50149 q 0,-2.39489 1.001497,-3.6141 1.010206,-1.21921 2.551641,-1.21921 1.515309,0 2.534223,1.21921 1.018915,1.21921 1.018915,3.5183 0,2.49068 -1.001498,3.7099 -1.001497,1.21921 -2.55164,1.21921 -1.524018,0 -2.542932,-1.21921 -1.010206,-1.22793 -1.010206,-3.6141 z m 1.315009,0 q 0,1.79399 0.65315,2.67356 0.653151,0.87087 1.619813,0.87087 0.905702,0 1.550144,-0.87958 0.65315,-0.88828 0.65315,-2.66485 0,-1.78528 -0.65315,-2.65615 -0.65315,-0.87957 -1.619813,-0.87957 -0.914411,0 -1.558852,0.87957 -0.644442,0.87958 -0.644442,2.65615 z"
         style="font-size:17.83535957px;fill:#333333;fill-opacity:1"
         id="path12936" />
      <path
         d="m 39.119353,126.12579 0,-9.24861 1.158253,0 0,1.4021 q 0.444143,-0.97537 0.809907,-1.28888 0.374473,-0.32222 0.836032,-0.32222 0.644442,0 1.31501,0.5051 l -0.435434,1.45435 q -0.478977,-0.33964 -0.931828,-0.33964 -0.409307,0 -0.748945,0.28739 -0.339639,0.28738 -0.478977,0.80119 -0.243843,0.897 -0.243843,1.9072 l 0,4.84202 -1.280175,0 z"
         style="font-size:17.83535957px;fill:#333333;fill-opacity:1"
         id="path12938" />
      <path
         d="m 44.013628,126.12579 0,-9.24861 1.149545,0 0,1.2976 q 0.383181,-0.72282 0.98408,-1.11471 0.600898,-0.39189 1.315009,-0.39189 0.801198,0 1.349844,0.41801 0.557355,0.40931 0.792489,1.2018 0.452851,-0.80991 1.036332,-1.21051 0.59219,-0.4093 1.306301,-0.4093 1.088584,0 1.715608,0.74023 0.627025,0.74024 0.627025,2.36876 l 0,6.34862 -1.280175,0 0,-5.8261 q 0,-0.99279 -0.148047,-1.40209 -0.139339,-0.41802 -0.46156,-0.64445 -0.322221,-0.22642 -0.72282,-0.22642 -0.827323,0 -1.349844,0.66186 -0.52252,0.65315 -0.52252,2.06395 l 0,5.37325 -1.288883,0 0,-6.00898 q 0,-1.14954 -0.357056,-1.61981 -0.348347,-0.47027 -0.966663,-0.47027 -0.879575,0 -1.393387,0.71411 -0.505103,0.7054 -0.505103,2.58648 l 0,4.79847 -1.280175,0 z"
         style="font-size:17.83535957px;fill:#333333;fill-opacity:1"
         id="path12940" />
      <path
         d="m 61.134875,124.98496 q -0.644442,0.67057 -1.341135,1.0102 -0.696694,0.33964 -1.44564,0.33964 -1.184379,0 -1.889782,-0.71411 -0.705402,-0.71411 -0.705402,-1.92462 0,-0.80119 0.33093,-1.41951 0.330929,-0.61832 0.905701,-0.96666 0.574773,-0.34835 1.741735,-0.51381 1.567561,-0.22643 2.299089,-0.53994 l 0.0087,-0.4006 q 0,-0.94925 -0.339638,-1.33243 -0.478977,-0.55735 -1.471766,-0.55735 -0.896993,0 -1.341135,0.37447 -0.444143,0.36577 -0.653151,1.38468 l -1.262757,-0.20901 q 0.269969,-1.48918 1.088584,-2.16846 0.827324,-0.67927 2.36005,-0.67927 1.193088,0 1.872364,0.45285 0.679277,0.44414 0.85345,1.106 0.182882,0.66186 0.182882,1.93332 l 0,2.09008 q 0,2.19459 0.07838,2.76936 0.08709,0.56607 0.33093,1.106 l -1.341136,0 q -0.200299,-0.47897 -0.26126,-1.14083 z m -0.104504,-3.50089 q -0.705402,0.34835 -2.09879,0.59219 -0.809906,0.13934 -1.132127,0.32222 -0.322221,0.17418 -0.505103,0.5051 -0.174174,0.32223 -0.174174,0.74895 0,0.66186 0.409308,1.06246 0.409308,0.39189 1.132127,0.39189 0.687985,0 1.24534,-0.35706 0.566064,-0.35705 0.844742,-0.94924 0.278677,-0.6009 0.278677,-1.74174 l 0,-0.57477 z"
         style="font-size:17.83535957px;fill:#333333;fill-opacity:1"
         id="path12942" />
      <path
         d="m 69.312319,122.73812 1.262757,0.2003 q -0.217717,1.65465 -1.097293,2.52551 -0.870867,0.87087 -2.098789,0.87087 -1.489183,0 -2.455846,-1.21921 -0.957954,-1.22793 -0.957954,-3.62281 0,-2.4123 0.966663,-3.6141 0.975371,-1.2105 2.499389,-1.2105 1.17567,0 1.976868,0.73152 0.809907,0.73153 1.036332,2.19459 l -1.24534,0.23513 q -0.182882,-0.94053 -0.635733,-1.40209 -0.452851,-0.47027 -1.088584,-0.47027 -0.949245,0 -1.57627,0.84474 -0.618315,0.83603 -0.618315,2.66485 0,1.88979 0.592189,2.73453 0.600899,0.84474 1.532727,0.84474 0.731528,0 1.24534,-0.55736 0.52252,-0.56606 0.661859,-1.75044 z"
         style="font-size:17.83535957px;fill:#333333;fill-opacity:1"
         id="path12944" />
      <path
         d="m 71.654952,115.16158 0,-1.8027 1.280175,0 0,1.8027 -1.280175,0 z m 0,10.96421 0,-9.24861 1.280175,0 0,9.24861 -1.280175,0 z"
         style="font-size:17.83535957px;fill:#333333;fill-opacity:1"
         id="path12946" />
      <path
         d="m 74.415599,121.50149 q 0,-2.39489 1.001497,-3.6141 1.010206,-1.21921 2.551641,-1.21921 1.515309,0 2.534223,1.21921 1.018915,1.21921 1.018915,3.5183 0,2.49068 -1.001497,3.7099 -1.001497,1.21921 -2.551641,1.21921 -1.524018,0 -2.542932,-1.21921 -1.010206,-1.22793 -1.010206,-3.6141 z m 1.315009,0 q 0,1.79399 0.653151,2.67356 0.65315,0.87087 1.619813,0.87087 0.905702,0 1.550143,-0.87958 0.653151,-0.88828 0.653151,-2.66485 0,-1.78528 -0.653151,-2.65615 -0.65315,-0.87957 -1.619813,-0.87957 -0.91441,0 -1.558852,0.87957 -0.644442,0.87958 -0.644442,2.65615 z m 1.297592,-5.77385 0.949246,-2.43843 1.680773,0 -1.567561,2.43843 -1.062458,0 z"
         style="font-size:17.83535957px;fill:#333333;fill-opacity:1"
         id="path12948" />
      <path
         d="m 83.045897,126.12579 0,-9.24861 1.158254,0 0,1.31501 q 0.418016,-0.76636 1.018914,-1.14083 0.609607,-0.38318 1.393388,-0.38318 0.609607,0 1.123418,0.24384 0.522521,0.23513 0.836033,0.62702 0.322221,0.38318 0.478977,1.0015 0.156756,0.61832 0.156756,1.89849 l 0,5.68676 -1.288884,0 0,-5.6258 q 0,-1.01891 -0.174173,-1.48918 -0.174173,-0.47027 -0.548646,-0.72282 -0.365764,-0.26126 -0.85345,-0.26126 -0.923119,0 -1.471766,0.68798 -0.548646,0.68799 -0.548646,2.36005 l 0,5.05103 -1.280175,0 z"
         style="font-size:17.83535957px;fill:#333333;fill-opacity:1"
         id="path12950" />
      <path
         d="m 100.2194,124.98496 q -0.644444,0.67057 -1.341138,1.0102 -0.696694,0.33964 -1.44564,0.33964 -1.184379,0 -1.889781,-0.71411 -0.705403,-0.71411 -0.705403,-1.92462 0,-0.80119 0.33093,-1.41951 0.330929,-0.61832 0.905702,-0.96666 0.574772,-0.34835 1.741734,-0.51381 1.567561,-0.22643 2.299086,-0.53994 l 0.009,-0.4006 q 0,-0.94925 -0.339636,-1.33243 -0.478977,-0.55735 -1.471766,-0.55735 -0.896993,0 -1.341135,0.37447 -0.444142,0.36577 -0.653151,1.38468 l -1.262757,-0.20901 q 0.269969,-1.48918 1.088584,-2.16846 0.827324,-0.67927 2.36005,-0.67927 1.193088,0 1.872361,0.45285 0.67928,0.44414 0.85345,1.106 0.18289,0.66186 0.18289,1.93332 l 0,2.09008 q 0,2.19459 0.0784,2.76936 0.0871,0.56607 0.33093,1.106 l -1.34113,0 q -0.2003,-0.47897 -0.26126,-1.14083 z m -0.10451,-3.50089 q -0.705399,0.34835 -2.098787,0.59219 -0.809906,0.13934 -1.132127,0.32222 -0.322221,0.17418 -0.505103,0.5051 -0.174173,0.32223 -0.174173,0.74895 0,0.66186 0.409307,1.06246 0.409308,0.39189 1.132128,0.39189 0.687985,0 1.24534,-0.35706 0.566063,-0.35705 0.844741,-0.94924 0.278674,-0.6009 0.278674,-1.74174 l 0,-0.57477 z"
         style="font-size:17.83535957px;fill:#333333;fill-opacity:1"
         id="path12952" />
      <path
         d="m 103.38935,126.12579 0,-12.76691 1.28018,0 0,12.76691 -1.28018,0 z"
         style="font-size:17.83535957px;fill:#333333;fill-opacity:1"
         id="path12954" />
      <path
         d="m 106.66381,115.16158 0,-1.8027 1.28017,0 0,1.8027 -1.28017,0 z m 0,10.96421 0,-9.24861 1.28017,0 0,9.24861 -1.28017,0 z"
         style="font-size:17.83535957px;fill:#333333;fill-opacity:1"
         id="path12956" />
      <path
         d="m 109.92085,126.12579 0,-9.24861 1.14955,0 0,1.2976 q 0.38318,-0.72282 0.98408,-1.11471 0.60089,-0.39189 1.315,-0.39189 0.8012,0 1.34985,0.41801 0.55735,0.40931 0.79249,1.2018 0.45285,-0.80991 1.03633,-1.21051 0.59219,-0.4093 1.3063,-0.4093 1.08858,0 1.71561,0.74023 0.62702,0.74024 0.62702,2.36876 l 0,6.34862 -1.28017,0 0,-5.8261 q 0,-0.99279 -0.14805,-1.40209 -0.13934,-0.41802 -0.46156,-0.64445 -0.32222,-0.22642 -0.72282,-0.22642 -0.82732,0 -1.34984,0.66186 -0.52252,0.65315 -0.52252,2.06395 l 0,5.37325 -1.28889,0 0,-6.00898 q 0,-1.14954 -0.35705,-1.61981 -0.34835,-0.47027 -0.96666,-0.47027 -0.87958,0 -1.39339,0.71411 -0.5051,0.7054 -0.5051,2.58648 l 0,4.79847 -1.28018,0 z"
         style="font-size:17.83535957px;fill:#333333;fill-opacity:1"
         id="path12958" />
      <path
         d="m 127.28595,123.14743 1.32372,0.2003 q -0.33093,1.48047 -1.2018,2.23813 -0.86216,0.74894 -2.14233,0.74894 -1.61111,0 -2.61261,-1.21921 -0.99278,-1.22793 -0.99278,-3.53572 0,-2.39489 1.00149,-3.64894 1.01021,-1.26275 2.55164,-1.26275 1.47177,0 2.45585,1.23663 0.98408,1.23663 0.98408,3.57926 l -0.009,0.41802 -5.66064,0 q 0.0784,1.55885 0.72282,2.35134 0.64445,0.79249 1.56757,0.79249 1.44563,0 2.0117,-1.89849 z m -4.22371,-2.53423 4.23242,0 q -0.0871,-1.20179 -0.51381,-1.79398 -0.61832,-0.86216 -1.57627,-0.86216 -0.86216,0 -1.47177,0.72282 -0.60961,0.71411 -0.67057,1.93332 z"
         style="font-size:17.83535957px;fill:#333333;fill-opacity:1"
         id="path12960" />
      <path
         d="m 130.2469,126.12579 0,-9.24861 1.15825,0 0,1.31501 q 0.41802,-0.76636 1.01892,-1.14083 0.60961,-0.38318 1.39339,-0.38318 0.6096,0 1.12342,0.24384 0.52252,0.23513 0.83603,0.62702 0.32222,0.38318 0.47897,1.0015 0.15676,0.61832 0.15676,1.89849 l 0,5.68676 -1.28888,0 0,-5.6258 q 0,-1.01891 -0.17418,-1.48918 -0.17417,-0.47027 -0.54864,-0.72282 -0.36577,-0.26126 -0.85345,-0.26126 -0.92312,0 -1.47177,0.68798 -0.54864,0.68799 -0.54864,2.36005 l 0,5.05103 -1.28018,0 z"
         style="font-size:17.83535957px;fill:#333333;fill-opacity:1"
         id="path12962" />
      <path
         d="m 141.26336,124.7237 0.17417,1.38468 q -0.53123,0.13933 -0.95795,0.13933 -0.67057,0 -1.07988,-0.26126 -0.4093,-0.26996 -0.56606,-0.73152 -0.14805,-0.46156 -0.14805,-1.83753 l 0,-5.321 -0.94053,0 0,-1.21922 0.94053,0 0,-2.29038 1.28018,-0.94053 0,3.23091 1.29759,0 0,1.21922 -1.29759,0 0,5.40808 q 0,0.74895 0.11321,0.96667 0.16547,0.31351 0.61832,0.31351 0.21771,0 0.56606,-0.061 z"
         style="font-size:17.83535957px;fill:#333333;fill-opacity:1"
         id="path12964" />
      <path
         d="m 147.4204,124.98496 q -0.64444,0.67057 -1.34113,1.0102 -0.6967,0.33964 -1.44564,0.33964 -1.18438,0 -1.88979,-0.71411 -0.7054,-0.71411 -0.7054,-1.92462 0,-0.80119 0.33093,-1.41951 0.33093,-0.61832 0.9057,-0.96666 0.57478,-0.34835 1.74174,-0.51381 1.56756,-0.22643 2.29909,-0.53994 l 0.009,-0.4006 q 0,-0.94925 -0.33964,-1.33243 -0.47898,-0.55735 -1.47177,-0.55735 -0.89699,0 -1.34113,0.37447 -0.44415,0.36577 -0.65315,1.38468 l -1.26276,-0.20901 q 0.26997,-1.48918 1.08858,-2.16846 0.82733,-0.67927 2.36005,-0.67927 1.19309,0 1.87237,0.45285 0.67927,0.44414 0.85345,1.106 0.18288,0.66186 0.18288,1.93332 l 0,2.09008 q 0,2.19459 0.0784,2.76936 0.0871,0.56607 0.33093,1.106 l -1.34114,0 q -0.2003,-0.47897 -0.26126,-1.14083 z m -0.1045,-3.50089 q -0.70541,0.34835 -2.09879,0.59219 -0.80991,0.13934 -1.13213,0.32222 -0.32222,0.17418 -0.5051,0.5051 -0.17418,0.32223 -0.17418,0.74895 0,0.66186 0.40931,1.06246 0.40931,0.39189 1.13213,0.39189 0.68798,0 1.24534,-0.35706 0.56606,-0.35705 0.84474,-0.94924 0.27868,-0.6009 0.27868,-1.74174 l 0,-0.57477 z"
         style="font-size:17.83535957px;fill:#333333;fill-opacity:1"
         id="path12966" />
      <path
         d="m 150.62518,126.12579 0,-9.24861 1.15826,0 0,1.4021 q 0.44414,-0.97537 0.8099,-1.28888 0.37447,-0.32222 0.83603,-0.32222 0.64445,0 1.31501,0.5051 l -0.43543,1.45435 q -0.47898,-0.33964 -0.93183,-0.33964 -0.40931,0 -0.74894,0.28739 -0.33964,0.28738 -0.47898,0.80119 -0.24384,0.897 -0.24384,1.9072 l 0,4.84202 -1.28018,0 z"
         style="font-size:17.83535957px;fill:#333333;fill-opacity:1"
         id="path12968" />
      <path
         d="m 155.50204,115.16158 0,-1.8027 1.28018,0 0,1.8027 -1.28018,0 z m 0,10.96421 0,-9.24861 1.28018,0 0,9.24861 -1.28018,0 z"
         style="font-size:17.83535957px;fill:#333333;fill-opacity:1"
         id="path12970" />
      <path
         d="m 163.68819,124.98496 q -0.64444,0.67057 -1.34113,1.0102 -0.6967,0.33964 -1.44564,0.33964 -1.18438,0 -1.88978,-0.71411 -0.70541,-0.71411 -0.70541,-1.92462 0,-0.80119 0.33093,-1.41951 0.33093,-0.61832 0.90571,-0.96666 0.57477,-0.34835 1.74173,-0.51381 1.56756,-0.22643 2.29909,-0.53994 l 0.009,-0.4006 q 0,-0.94925 -0.33964,-1.33243 -0.47898,-0.55735 -1.47177,-0.55735 -0.89699,0 -1.34113,0.37447 -0.44414,0.36577 -0.65315,1.38468 l -1.26276,-0.20901 q 0.26997,-1.48918 1.08858,-2.16846 0.82733,-0.67927 2.36005,-0.67927 1.19309,0 1.87237,0.45285 0.67928,0.44414 0.85345,1.106 0.18288,0.66186 0.18288,1.93332 l 0,2.09008 q 0,2.19459 0.0784,2.76936 0.0871,0.56607 0.33093,1.106 l -1.34114,0 q -0.2003,-0.47897 -0.26126,-1.14083 z m -0.1045,-3.50089 q -0.7054,0.34835 -2.09879,0.59219 -0.80991,0.13934 -1.13213,0.32222 -0.32222,0.17418 -0.5051,0.5051 -0.17417,0.32223 -0.17417,0.74895 0,0.66186 0.4093,1.06246 0.40931,0.39189 1.13213,0.39189 0.68799,0 1.24534,-0.35706 0.56606,-0.35705 0.84474,-0.94924 0.27868,-0.6009 0.27868,-1.74174 l 0,-0.57477 z"
         style="font-size:17.83535957px;fill:#333333;fill-opacity:1"
         id="path12972" />
      <path
         d="m 170.93381,126.12579 0,-12.76691 1.28017,0 0,12.76691 -1.28017,0 z"
         style="font-size:17.83535957px;fill:#333333;fill-opacity:1"
         id="path12974" />
      <path
         d="m 174.20827,115.16158 0,-1.8027 1.28017,0 0,1.8027 -1.28017,0 z m 0,10.96421 0,-9.24861 1.28017,0 0,9.24861 -1.28017,0 z"
         style="font-size:17.83535957px;fill:#333333;fill-opacity:1"
         id="path12976" />
      <path
         d="m 178.63227,126.12579 -1.19309,0 0,-12.76691 1.28018,0 0,4.55464 q 0.4093,-0.62703 0.92312,-0.93183 0.52252,-0.31351 1.15825,-0.31351 0.88828,0 1.6111,0.53122 0.73153,0.53123 1.16696,1.61111 0.43544,1.07987 0.43544,2.62131 0,2.35134 -0.98408,3.63152 -0.98408,1.27146 -2.29909,1.27146 -0.66186,0 -1.19309,-0.33964 -0.52252,-0.34834 -0.9057,-1.02762 l 0,1.15825 z m -0.0174,-4.69397 q 0,1.43693 0.26126,2.15104 0.26126,0.71411 0.74024,1.08859 0.47898,0.37447 1.06246,0.37447 0.79249,0 1.40209,-0.88829 0.61832,-0.89699 0.61832,-2.67356 0,-1.82011 -0.59219,-2.67356 -0.59219,-0.85345 -1.45435,-0.85345 -0.79249,0 -1.41951,0.89699 -0.61832,0.88829 -0.61832,2.57777 z"
         style="font-size:17.83535957px;fill:#333333;fill-opacity:1"
         id="path12978" />
      <path
         d="m 185.59921,126.12579 0,-9.24861 1.15825,0 0,1.4021 q 0.44415,-0.97537 0.80991,-1.28888 0.37447,-0.32222 0.83603,-0.32222 0.64445,0 1.31501,0.5051 l -0.43543,1.45435 q -0.47898,-0.33964 -0.93183,-0.33964 -0.40931,0 -0.74894,0.28739 -0.33964,0.28738 -0.47898,0.80119 -0.24384,0.897 -0.24384,1.9072 l 0,4.84202 -1.28018,0 z"
         style="font-size:17.83535957px;fill:#333333;fill-opacity:1"
         id="path12980" />
      <path
         d="m 195.66644,123.14743 1.32372,0.2003 q -0.33093,1.48047 -1.2018,2.23813 -0.86216,0.74894 -2.14233,0.74894 -1.6111,0 -2.6126,-1.21921 -0.99279,-1.22793 -0.99279,-3.53572 0,-2.39489 1.0015,-3.64894 1.0102,-1.26275 2.55164,-1.26275 1.47176,0 2.45584,1.23663 0.98408,1.23663 0.98408,3.57926 l -0.009,0.41802 -5.66063,0 q 0.0784,1.55885 0.72282,2.35134 0.64444,0.79249 1.56756,0.79249 1.44564,0 2.0117,-1.89849 z m -4.2237,-2.53423 4.23241,0 q -0.0871,-1.20179 -0.51381,-1.79398 -0.61832,-0.86216 -1.57627,-0.86216 -0.86216,0 -1.47177,0.72282 -0.6096,0.71411 -0.67056,1.93332 z"
         style="font-size:17.83535957px;fill:#333333;fill-opacity:1"
         id="path12982" />
    </g>
    <rect
       id="rect3719"
       width="5"
       height="5"
       x="110"
       y="1.7187499e-008"
       style="fill:none"
       inkscape:export-filename="C:\Users\Stéphane\Desktop\Blogs\OpenFoodFacts\off-logo-en.712x575.png"
       inkscape:export-xdpi="360"
       inkscape:export-ydpi="360" />
    <rect
       inkscape:export-ydpi="360"
       inkscape:export-xdpi="360"
       inkscape:export-filename="C:\Users\Stéphane\Desktop\Blogs\OpenFoodFacts\off-logo-en.712x575.png"
       style="fill:none"
       y="1.7187499e-008"
       x="110"
       height="5"
       width="5"
       id="rect3723" />
    <rect
       style="fill:none"
       id="rect3725"
       width="1"
       height="1"
       x="1"
       y="140"
       inkscape:export-filename="C:\Users\Stéphane\Desktop\Blogs\OpenFoodFacts\off-logo-en.712x575.png"
       inkscape:export-xdpi="360"
       inkscape:export-ydpi="360" />
  </g>
</svg>
