<?xml version="1.0" encoding="UTF-8" standalone="no"?>
<!-- Created with Inkscape (http://www.inkscape.org/) -->

<svg
   xmlns:dc="http://purl.org/dc/elements/1.1/"
   xmlns:cc="http://creativecommons.org/ns#"
   xmlns:rdf="http://www.w3.org/1999/02/22-rdf-syntax-ns#"
   xmlns:svg="http://www.w3.org/2000/svg"
   xmlns="http://www.w3.org/2000/svg"
   xmlns:sodipodi="http://sodipodi.sourceforge.net/DTD/sodipodi-0.dtd"
   xmlns:inkscape="http://www.inkscape.org/namespaces/inkscape"
   width="200"
   height="160"
   id="svg8313"
   version="1.1"
   inkscape:version="0.48.2 r9819"
   sodipodi:docname="off-logo-he.svg"
   inkscape:export-filename="C:\Users\Stéphane\Desktop\Blogs\OpenFoodFacts\off-logo-en.800x640.png"
   inkscape:export-xdpi="360"
   inkscape:export-ydpi="360">
  <defs
     id="defs8315" />
  <sodipodi:namedview
     id="base"
     pagecolor="#ffffff"
     bordercolor="#666666"
     borderopacity="1.0"
     inkscape:pageopacity="0.0"
     inkscape:pageshadow="2"
     inkscape:zoom="2.7220024"
     inkscape:cx="153.52361"
     inkscape:cy="41.91921"
     inkscape:document-units="px"
     inkscape:current-layer="layer1"
     showgrid="true"
     inkscape:window-width="1920"
     inkscape:window-height="1018"
     inkscape:window-x="-8"
     inkscape:window-y="-8"
     inkscape:window-maximized="1"
     inkscape:snap-global="true">
    <inkscape:grid
       type="xygrid"
       id="grid8566" />
  </sodipodi:namedview>
  <metadata
     id="metadata8318">
    <rdf:RDF>
      <cc:Work
         rdf:about="">
        <dc:format>image/svg+xml</dc:format>
        <dc:type
           rdf:resource="http://purl.org/dc/dcmitype/StillImage" />
        <dc:title></dc:title>
      </cc:Work>
    </rdf:RDF>
  </metadata>
  <g
     inkscape:label="Calque 1"
     inkscape:groupmode="layer"
     id="layer1">
    <rect
       style="fill:#ffffff;fill-opacity:1;fill-rule:evenodd;stroke:none"
       id="rect7640"
       height="180"
       x="-10"
       y="-10"
       width="220" />
    <path
       inkscape:export-ydpi="90"
       inkscape:export-xdpi="90"
       inkscape:export-filename="C:\Users\Stéphane\Desktop\Blogs\OpenFoodFacts\openfoodfacts-logo-he.png"
       inkscape:connector-curvature="0"
       style="fill:#0066ff;fill-opacity:1;fill-rule:nonzero;stroke:none"
       d="m 181,35 0,6.41101 c 1.19571,0.444338 2.21393,1.060483 3,1.761208 L 184,35 z m 4,0 0,8.312003 1,-0.838676 L 186,35 z m 2,0 0,6.606702 1,-0.978462 0,11.7694 -1,-1.00641 0,52.60877 2,0 0,-69 z M 185,49.685929 185,104 l 1,0 0,-53.475406 z m -1,0.139774 c -0.78598,0.701951 -1.79569,1.313237 -3,1.76122 L 181,104 l 3,0 z"
       id="path7944"
       sodipodi:nodetypes="ccccccccccccccccccccccccccccc" />
    <path
       inkscape:export-ydpi="90"
       inkscape:export-xdpi="90"
       inkscape:export-filename="C:\Users\Stéphane\Desktop\Blogs\OpenFoodFacts\openfoodfacts-logo-he.png"
       inkscape:connector-curvature="0"
       style="fill:#00ccff;fill-opacity:1;fill-rule:nonzero;stroke:none"
       d="m 165,35 0,69 3,0 0,-53.810872 c -1.32362,-1.014805 -2.12462,-2.271422 -2.12462,-3.662215 0,-1.390781 0.801,-2.675356 2.12462,-3.690161 L 168,35 z m 4,0 0,7.193768 c 1.12603,-0.642997 2.47034,-1.128715 4,-1.397795 L 173,35 z m 5,0 0,5.62824 c 0.32965,-0.03644 0.65978,-0.03965 1,-0.05585 l 0,-5.572333 c -0.35153,4.6e-5 -0.64847,-3.3e-5 -1,-5.7e-5 z m 2,0 0,5.544374 c 0.68266,0.0083 1.35814,0.08097 2,0.167733 L 178,35 z M 169,50.860072 169,104 l 4,0 0,-51.770093 c -1.58676,-0.26883 -2.87451,-0.727732 -4,-1.369835 z m 9,1.481649 c -0.64077,0.08753 -1.31859,0.131652 -2,0.139785 L 176,104 l 2,0 z m -4,0.05597 0,51.602309 1,0 0,-51.546402 c -0.34022,-0.01632 -0.67076,-0.01941 -1.00041,-0.05585 z"
       id="path7946"
       sodipodi:nodetypes="ccccscccccccccccccccccccccccccccccccccc" />
    <path
       inkscape:export-ydpi="90"
       inkscape:export-xdpi="90"
       inkscape:export-filename="C:\Users\Stéphane\Desktop\Blogs\OpenFoodFacts\openfoodfacts-logo-he.png"
       inkscape:connector-curvature="0"
       id="path7948"
       d="m 161,35 0,69 1,0 0,-69 z"
       style="fill:#00d400;fill-opacity:1;fill-rule:nonzero;stroke:none"
       sodipodi:nodetypes="ccccc" />
    <path
       inkscape:export-ydpi="90"
       inkscape:export-xdpi="90"
       inkscape:export-filename="C:\Users\Stéphane\Desktop\Blogs\OpenFoodFacts\openfoodfacts-logo-he.png"
       inkscape:connector-curvature="0"
       id="path7950"
       d="m 157,35 0,69 3,0 0,-69 z"
       style="fill:#00d400;fill-opacity:1;fill-rule:nonzero;stroke:none"
       sodipodi:nodetypes="ccccc" />
    <path
       inkscape:export-ydpi="90"
       inkscape:export-xdpi="90"
       inkscape:export-filename="C:\Users\Stéphane\Desktop\Blogs\OpenFoodFacts\openfoodfacts-logo-he.png"
       inkscape:connector-curvature="0"
       id="path7952"
       d="m 154,35 0,69 2,0 0,-69 z"
       style="fill:#00d400;fill-opacity:1;fill-rule:nonzero;stroke:none"
       sodipodi:nodetypes="ccccc" />
    <path
       inkscape:export-ydpi="90"
       inkscape:export-xdpi="90"
       inkscape:export-filename="C:\Users\Stéphane\Desktop\Blogs\OpenFoodFacts\openfoodfacts-logo-he.png"
       inkscape:connector-curvature="0"
       id="path7954"
       d="m 152,35 0,69 1,0 0,-69 z"
       style="fill:#00d400;fill-opacity:1;fill-rule:nonzero;stroke:none"
       sodipodi:nodetypes="ccccc" />
    <path
       inkscape:export-ydpi="90"
       inkscape:export-xdpi="90"
       inkscape:export-filename="C:\Users\Stéphane\Desktop\Blogs\OpenFoodFacts\openfoodfacts-logo-he.png"
       inkscape:connector-curvature="0"
       id="path7956"
       d="m 146,33 0,71 3,0 -5e-5,-69 z"
       style="fill:#00d400;fill-opacity:1;fill-rule:nonzero;stroke:none"
       sodipodi:nodetypes="ccccc" />
    <path
       inkscape:export-ydpi="90"
       inkscape:export-xdpi="90"
       inkscape:export-filename="C:\Users\Stéphane\Desktop\Blogs\OpenFoodFacts\openfoodfacts-logo-he.png"
       inkscape:connector-curvature="0"
       id="path7958"
       d="m 143,35 0,69 2,0 -4e-5,-69 z"
       style="fill:#00d400;fill-opacity:1;fill-rule:nonzero;stroke:none"
       sodipodi:nodetypes="ccccc" />
    <path
       inkscape:export-ydpi="90"
       inkscape:export-xdpi="90"
       inkscape:export-filename="C:\Users\Stéphane\Desktop\Blogs\OpenFoodFacts\openfoodfacts-logo-he.png"
       inkscape:connector-curvature="0"
       id="path7960"
       d="m 140,35 0,69 2,0 1e-5,-69 z"
       style="fill:#00d400;fill-opacity:1;fill-rule:nonzero;stroke:none"
       sodipodi:nodetypes="ccccc" />
    <path
       inkscape:export-ydpi="90"
       inkscape:export-xdpi="90"
       inkscape:export-filename="C:\Users\Stéphane\Desktop\Blogs\OpenFoodFacts\openfoodfacts-logo-he.png"
       inkscape:connector-curvature="0"
       id="path7962"
       d="m 136,35 0,69 1,0 5e-5,-69 z"
       style="fill:#00d400;fill-opacity:1;fill-rule:nonzero;stroke:none"
       sodipodi:nodetypes="ccccc" />
    <path
       inkscape:export-ydpi="90"
       inkscape:export-xdpi="90"
       inkscape:export-filename="C:\Users\Stéphane\Desktop\Blogs\OpenFoodFacts\openfoodfacts-logo-he.png"
       inkscape:connector-curvature="0"
       id="path7964"
       d="m 132,35 0,69 1,0 6e-5,-69 z"
       style="fill:#00d400;fill-opacity:1;fill-rule:nonzero;stroke:none"
       sodipodi:nodetypes="ccccc" />
    <path
       inkscape:export-ydpi="90"
       inkscape:export-xdpi="90"
       inkscape:export-filename="C:\Users\Stéphane\Desktop\Blogs\OpenFoodFacts\openfoodfacts-logo-he.png"
       inkscape:connector-curvature="0"
       id="path7966"
       d="m 127,35 0,69 2,0 1e-5,-69 z"
       style="fill:#00d400;fill-opacity:1;fill-rule:nonzero;stroke:none"
       sodipodi:nodetypes="ccccc" />
    <path
       inkscape:export-ydpi="90"
       inkscape:export-xdpi="90"
       inkscape:export-filename="C:\Users\Stéphane\Desktop\Blogs\OpenFoodFacts\openfoodfacts-logo-he.png"
       inkscape:connector-curvature="0"
       id="path7968"
       d="m 123,35 0,69 1,0 -5e-5,-69 z"
       style="fill:#00d400;fill-opacity:1;fill-rule:nonzero;stroke:none"
       sodipodi:nodetypes="ccccc" />
    <path
       inkscape:export-ydpi="90"
       inkscape:export-xdpi="90"
       inkscape:export-filename="C:\Users\Stéphane\Desktop\Blogs\OpenFoodFacts\openfoodfacts-logo-he.png"
       inkscape:connector-curvature="0"
       id="path7970"
       d="m 121,35 0,69 1,0 -5e-5,-69 z"
       style="fill:#00d400;fill-opacity:1;fill-rule:nonzero;stroke:none"
       sodipodi:nodetypes="ccccc" />
    <path
       inkscape:export-ydpi="90"
       inkscape:export-xdpi="90"
       inkscape:export-filename="C:\Users\Stéphane\Desktop\Blogs\OpenFoodFacts\openfoodfacts-logo-he.png"
       inkscape:connector-curvature="0"
       id="path7972"
       d="m 119,35 0,69 1,0 4e-5,-69 z"
       style="fill:#00d400;fill-opacity:1;fill-rule:nonzero;stroke:none"
       sodipodi:nodetypes="ccccc" />
    <path
       inkscape:export-ydpi="90"
       inkscape:export-xdpi="90"
       inkscape:export-filename="C:\Users\Stéphane\Desktop\Blogs\OpenFoodFacts\openfoodfacts-logo-he.png"
       inkscape:connector-curvature="0"
       id="path7974"
       d="m 114,35 0,69 2,0 1e-5,-69 z"
       style="fill:#00d400;fill-opacity:1;fill-rule:nonzero;stroke:none"
       sodipodi:nodetypes="ccccc" />
    <path
       inkscape:export-ydpi="90"
       inkscape:export-xdpi="90"
       inkscape:export-filename="C:\Users\Stéphane\Desktop\Blogs\OpenFoodFacts\openfoodfacts-logo-he.png"
       inkscape:connector-curvature="0"
       id="path7976"
       d="m 110,35 0,69 1,0 0,-69 z"
       style="fill:#00d400;fill-opacity:1;fill-rule:nonzero;stroke:none"
       sodipodi:nodetypes="ccccc" />
    <path
       inkscape:export-ydpi="90"
       inkscape:export-xdpi="90"
       inkscape:export-filename="C:\Users\Stéphane\Desktop\Blogs\OpenFoodFacts\openfoodfacts-logo-he.png"
       inkscape:connector-curvature="0"
       id="path7978"
       d="m 106,35 0.0166,69 0.98337,0 -0.0171,-69 z"
       style="fill:#00d400;fill-opacity:1;fill-rule:nonzero;stroke:none"
       sodipodi:nodetypes="ccccc" />
    <path
       inkscape:export-ydpi="90"
       inkscape:export-xdpi="90"
       inkscape:export-filename="C:\Users\Stéphane\Desktop\Blogs\OpenFoodFacts\openfoodfacts-logo-he.png"
       inkscape:connector-curvature="0"
       id="path7980"
       d="m 101,30 0,74 2,0 0,-74 z"
       style="fill:#ffcc00;fill-opacity:1;fill-rule:nonzero;stroke:none"
       sodipodi:nodetypes="ccccc" />
    <path
       inkscape:export-ydpi="90"
       inkscape:export-xdpi="90"
       inkscape:export-filename="C:\Users\Stéphane\Desktop\Blogs\OpenFoodFacts\openfoodfacts-logo-he.png"
       inkscape:connector-curvature="0"
       id="path7983"
       d="m 99,35 0,69 1,0 0,-69 z"
       style="fill:#ffcc00;fill-opacity:1;fill-rule:nonzero;stroke:none"
       sodipodi:nodetypes="ccccc" />
    <path
       inkscape:export-ydpi="90"
       inkscape:export-xdpi="90"
       inkscape:export-filename="C:\Users\Stéphane\Desktop\Blogs\OpenFoodFacts\openfoodfacts-logo-he.png"
       inkscape:connector-curvature="0"
       id="path7985"
       d="m 96,19 0,85 2,0 0,-85 z"
       style="fill:#ffcc00;fill-opacity:1;fill-rule:nonzero;stroke:none"
       sodipodi:nodetypes="ccccc" />
    <path
       inkscape:export-ydpi="90"
       inkscape:export-xdpi="90"
       inkscape:export-filename="C:\Users\Stéphane\Desktop\Blogs\OpenFoodFacts\openfoodfacts-logo-he.png"
       inkscape:connector-curvature="0"
       id="path7987"
       d="m 92,35 0,69 3,0 4e-6,-69 z"
       style="fill:#ffcc00;fill-opacity:1;fill-rule:nonzero;stroke:none"
       sodipodi:nodetypes="ccccc" />
    <path
       inkscape:export-ydpi="90"
       inkscape:export-xdpi="90"
       inkscape:export-filename="C:\Users\Stéphane\Desktop\Blogs\OpenFoodFacts\openfoodfacts-logo-he.png"
       inkscape:connector-curvature="0"
       id="path7989"
       d="m 88,35 0,69 1,0 3e-6,-69 z"
       style="fill:#ffcc00;fill-opacity:1;fill-rule:nonzero;stroke:none"
       sodipodi:nodetypes="ccccc" />
    <path
       inkscape:export-ydpi="90"
       inkscape:export-xdpi="90"
       inkscape:export-filename="C:\Users\Stéphane\Desktop\Blogs\OpenFoodFacts\openfoodfacts-logo-he.png"
       inkscape:connector-curvature="0"
       id="path7991"
       d="m 85,29 0,75 2,0 -7e-6,-75 z"
       style="fill:#ffcc00;fill-opacity:1;fill-rule:nonzero;stroke:none"
       sodipodi:nodetypes="ccccc" />
    <path
       inkscape:export-ydpi="90"
       inkscape:export-xdpi="90"
       inkscape:export-filename="C:\Users\Stéphane\Desktop\Blogs\OpenFoodFacts\openfoodfacts-logo-he.png"
       inkscape:connector-curvature="0"
       id="path7993"
       d="m 81,35 0,69 3,0 4e-6,-69 z"
       style="fill:#ffcc00;fill-opacity:1;fill-rule:nonzero;stroke:none"
       sodipodi:nodetypes="ccccc" />
    <path
       inkscape:export-ydpi="90"
       inkscape:export-xdpi="90"
       inkscape:export-filename="C:\Users\Stéphane\Desktop\Blogs\OpenFoodFacts\openfoodfacts-logo-he.png"
       inkscape:connector-curvature="0"
       id="path7995"
       d="m 77,35 0,69 1,0 3e-6,-69 z"
       style="fill:#ffcc00;fill-opacity:1;fill-rule:nonzero;stroke:none"
       sodipodi:nodetypes="ccccc" />
    <path
       inkscape:export-ydpi="90"
       inkscape:export-xdpi="90"
       inkscape:export-filename="C:\Users\Stéphane\Desktop\Blogs\OpenFoodFacts\openfoodfacts-logo-he.png"
       inkscape:connector-curvature="0"
       id="path7997"
       d="m 75,35 0,69 1,0 10e-7,-69 z"
       style="fill:#ffcc00;fill-opacity:1;fill-rule:nonzero;stroke:none"
       sodipodi:nodetypes="ccccc" />
    <path
       inkscape:export-ydpi="90"
       inkscape:export-xdpi="90"
       inkscape:export-filename="C:\Users\Stéphane\Desktop\Blogs\OpenFoodFacts\openfoodfacts-logo-he.png"
       inkscape:connector-curvature="0"
       id="path7999"
       d="m 70,35 0.02596,69 1.974042,0 -0.02685,-69 z"
       style="fill:#ffcc00;fill-opacity:1;fill-rule:nonzero;stroke:none"
       sodipodi:nodetypes="ccccc" />
    <path
       inkscape:export-ydpi="90"
       inkscape:export-xdpi="90"
       inkscape:export-filename="C:\Users\Stéphane\Desktop\Blogs\OpenFoodFacts\openfoodfacts-logo-he.png"
       inkscape:connector-curvature="0"
       id="path8001"
       d="m 66,24 0,80 1,0 -9e-6,-80 z"
       style="fill:#ffcc00;fill-opacity:1;fill-rule:nonzero;stroke:none"
       sodipodi:nodetypes="ccccc" />
    <path
       inkscape:export-ydpi="90"
       inkscape:export-xdpi="90"
       inkscape:export-filename="C:\Users\Stéphane\Desktop\Blogs\OpenFoodFacts\openfoodfacts-logo-he.png"
       inkscape:connector-curvature="0"
       id="path8003"
       d="m 63,35 0,69 2,0 3e-6,-69 z"
       style="fill:#ffcc00;fill-opacity:1;fill-rule:nonzero;stroke:none"
       sodipodi:nodetypes="ccccc" />
    <path
       inkscape:export-ydpi="90"
       inkscape:export-xdpi="90"
       inkscape:export-filename="C:\Users\Stéphane\Desktop\Blogs\OpenFoodFacts\openfoodfacts-logo-he.png"
       inkscape:connector-curvature="0"
       id="path8005"
       d="m 57,35 0,69 3,0 -7e-6,-69 z"
       style="fill:#ffcc00;fill-opacity:1;fill-rule:nonzero;stroke:none"
       sodipodi:nodetypes="ccccc" />
    <path
       inkscape:export-ydpi="90"
       inkscape:export-xdpi="90"
       inkscape:export-filename="C:\Users\Stéphane\Desktop\Blogs\OpenFoodFacts\openfoodfacts-logo-he.png"
       inkscape:connector-curvature="0"
       id="path8007"
       d="m 55,35 0,69 1,0 10e-7,-69 z"
       style="fill:#ffcc00;fill-opacity:1;fill-rule:nonzero;stroke:none"
       sodipodi:nodetypes="ccccc" />
    <path
       inkscape:export-ydpi="90"
       inkscape:export-xdpi="90"
       inkscape:export-filename="C:\Users\Stéphane\Desktop\Blogs\OpenFoodFacts\openfoodfacts-logo-he.png"
       inkscape:connector-curvature="0"
       id="path8009"
       d="m 51,35 0,69 1,0 2e-6,-69 z"
       style="fill:#ffcc00;fill-opacity:1;fill-rule:nonzero;stroke:none"
       sodipodi:nodetypes="ccccc" />
    <path
       inkscape:export-ydpi="90"
       inkscape:export-xdpi="90"
       inkscape:export-filename="C:\Users\Stéphane\Desktop\Blogs\OpenFoodFacts\openfoodfacts-logo-he.png"
       inkscape:connector-curvature="0"
       id="path8011"
       d="m 48,35 0,69 2,0 4e-6,-69 z"
       style="fill:#ffcc00;fill-opacity:1;fill-rule:nonzero;stroke:none"
       sodipodi:nodetypes="ccccc" />
    <path
       inkscape:export-ydpi="90"
       inkscape:export-xdpi="90"
       inkscape:export-filename="C:\Users\Stéphane\Desktop\Blogs\OpenFoodFacts\openfoodfacts-logo-he.png"
       inkscape:connector-curvature="0"
       id="path8013"
       d="m 44,29 0,75 1,0 -7e-6,-75 z"
       style="fill:#ff0000;fill-opacity:1;fill-rule:nonzero;stroke:none"
       sodipodi:nodetypes="ccccc" />
    <path
       inkscape:export-ydpi="90"
       inkscape:export-xdpi="90"
       inkscape:export-filename="C:\Users\Stéphane\Desktop\Blogs\OpenFoodFacts\openfoodfacts-logo-he.png"
       inkscape:connector-curvature="0"
       id="path8015"
       d="m 41,28 0,76 2,0 4e-6,-76 z"
       style="fill:#ff0000;fill-opacity:1;fill-rule:nonzero;stroke:none"
       sodipodi:nodetypes="ccccc" />
    <path
       inkscape:export-ydpi="90"
       inkscape:export-xdpi="90"
       inkscape:export-filename="C:\Users\Stéphane\Desktop\Blogs\OpenFoodFacts\openfoodfacts-logo-he.png"
       inkscape:connector-curvature="0"
       id="path8017"
       d="m 37,35 0,69 3,0 0,-69 z"
       style="fill:#ff0000;fill-opacity:1;fill-rule:nonzero;stroke:none"
       sodipodi:nodetypes="ccccc" />
    <path
       inkscape:export-ydpi="90"
       inkscape:export-xdpi="90"
       inkscape:export-filename="C:\Users\Stéphane\Desktop\Blogs\OpenFoodFacts\openfoodfacts-logo-he.png"
       inkscape:connector-curvature="0"
       id="path8019"
       d="m 33,35 0,69 3,0 -5e-6,-69 z"
       style="fill:#ff0000;fill-opacity:1;fill-rule:nonzero;stroke:none"
       sodipodi:nodetypes="ccccc" />
    <path
       inkscape:export-ydpi="90"
       inkscape:export-xdpi="90"
       inkscape:export-filename="C:\Users\Stéphane\Desktop\Blogs\OpenFoodFacts\openfoodfacts-logo-he.png"
       inkscape:connector-curvature="0"
       id="path8021"
       d="m 30,29 0,75 2,0 -8.6e-5,-75 z"
       style="fill:#ff0000;fill-opacity:1;fill-rule:nonzero;stroke:none"
       sodipodi:nodetypes="ccccc" />
    <path
       inkscape:export-ydpi="90"
       inkscape:export-xdpi="90"
       inkscape:export-filename="C:\Users\Stéphane\Desktop\Blogs\OpenFoodFacts\openfoodfacts-logo-he.png"
       inkscape:connector-curvature="0"
       id="path8023"
       d="m 26,30 0,74 3,0 -3.5e-5,-74 z"
       style="fill:#ff0000;fill-opacity:1;fill-rule:nonzero;stroke:none"
       sodipodi:nodetypes="ccccc" />
    <path
       inkscape:export-ydpi="90"
       inkscape:export-xdpi="90"
       inkscape:export-filename="C:\Users\Stéphane\Desktop\Blogs\OpenFoodFacts\openfoodfacts-logo-he.png"
       inkscape:connector-curvature="0"
       id="path8025"
       d="m 22,35 0,69 1,0 -4.9e-5,-69 z"
       style="fill:#ff0000;fill-opacity:1;fill-rule:nonzero;stroke:none"
       sodipodi:nodetypes="ccccc" />
    <path
       inkscape:export-ydpi="90"
       inkscape:export-xdpi="90"
       inkscape:export-filename="C:\Users\Stéphane\Desktop\Blogs\OpenFoodFacts\openfoodfacts-logo-he.png"
       inkscape:connector-curvature="0"
       id="path8027"
       d="m 19,35 0,69 1,0 0,-69 z"
       style="fill:#ff0000;fill-opacity:1;fill-rule:nonzero;stroke:none"
       sodipodi:nodetypes="ccccc" />
    <path
       inkscape:export-ydpi="90"
       inkscape:export-xdpi="90"
       inkscape:export-filename="C:\Users\Stéphane\Desktop\Blogs\OpenFoodFacts\openfoodfacts-logo-he.png"
       inkscape:connector-curvature="0"
       id="path8029"
       d="m 14,35 0,69 0.999563,0 0,-69 z"
       style="fill:#ff0000;fill-opacity:1;fill-rule:nonzero;stroke:none"
       sodipodi:nodetypes="ccccc" />
    <path
       inkscape:export-ydpi="90"
       inkscape:export-xdpi="90"
       inkscape:export-filename="C:\Users\Stéphane\Desktop\Blogs\OpenFoodFacts\openfoodfacts-logo-he.png"
       inkscape:connector-curvature="0"
       id="path8031"
       d="m 11.000013,35 0,69 2,0 0,-69 z"
       style="fill:#ff0000;fill-opacity:1;fill-rule:nonzero;stroke:none"
       sodipodi:nodetypes="ccccc" />
    <path
       sodipodi:nodetypes="csssacccccssscccsccccc"
       inkscape:connector-curvature="0"
       id="path8033"
       d="m 23.96037,29.168037 c 0.62972,-0.815576 0.719123,-2.676154 1.281409,-4.358843 0.405305,-1.212926 0.463533,-4.596987 1.208651,-4.882429 0.96834,-0.370951 3.169601,-0.358079 4.223988,-0.416629 2.300059,-0.127699 4.518931,1.098659 6.822539,1.101136 2.990853,0.0036 8.861008,-1.410596 8.861008,-1.410596 l -0.140119,-2.038826 1.505607,0.278059 4.07695,-0.516905 -3.008404,1.386137 c 0,0 1.201864,-0.02108 1.688022,0.276832 0.705048,0.432109 0.959994,1.347377 1.46892,1.999162 0.291967,0.373928 1.082477,0.65438 0.908337,1.095671 -0.469844,1.190611 -3.808977,0.485944 -3.808977,0.485944 l -1.918736,1.803326 c -0.833009,1.778987 -2.26137,3.261839 -2.253596,6.722383 0,0 -6.006891,-0.923008 -8.991183,-0.79663 -1.764007,0.07466 -4.968974,0.618073 -4.968974,0.618073 -1.608718,-0.13719 -3.296502,-0.529063 -4.905219,-0.24954 0.0095,-6.235485 0.866683,-6.128862 0.69876,-9.294821 -0.439183,1.679986 -0.971056,4.516551 -1.026843,5.772464 -0.534756,1.525804 -0.01191,1.899672 -1.72214,2.426032 z"
       style="fill:#ff0000;fill-opacity:1"
       inkscape:export-filename="C:\Users\Stéphane\Desktop\Blogs\OpenFoodFacts\openfoodfacts-logo-he.png"
       inkscape:export-xdpi="90"
       inkscape:export-ydpi="90" />
    <g
       style="fill:#ffcc00"
       transform="matrix(0.01488015,-0.01147672,0.01147672,0.01488015,50.17529,16.567521)"
       id="g8035"
       inkscape:export-filename="C:\Users\Stéphane\Desktop\Blogs\OpenFoodFacts\openfoodfacts-logo-he.png"
       inkscape:export-xdpi="90"
       inkscape:export-ydpi="90">
      <path
         sodipodi:type="arc"
         style="fill:#ffcc00;fill-opacity:1;stroke:none"
         id="path8037"
         sodipodi:cx="567.14288"
         sodipodi:cy="762.36218"
         sodipodi:rx="65.714287"
         sodipodi:ry="32.857143"
         d="m 632.85717,762.36218 c 0,18.1465 -29.42129,32.85715 -65.71429,32.85715 -36.293,0 -65.71428,-14.71065 -65.71428,-32.85715 0,-18.1465 29.42128,-32.85714 65.71428,-32.85714 36.293,0 65.71429,14.71064 65.71429,32.85714 z"
         transform="matrix(0.58270937,-0.81268061,0.81268061,0.58270937,-465.7507,809.03262)" />
      <path
         style="fill:#ffcc00;fill-opacity:1;stroke:none"
         d="m 494.28571,741.6479 c 0,0 14.40901,-2.31616 20.71429,-5.71428 22.08801,-11.90395 53.57143,-52.85715 53.57143,-52.85715 0,0 -33.14169,43.13867 -40,64.99999 -2.07174,6.60382 -1.42857,20.71429 -1.42857,20.71429 z"
         id="path8039"
         inkscape:connector-curvature="0"
         sodipodi:nodetypes="cscscc" />
    </g>
    <g
       transform="matrix(0.89458574,0,0,0.89458574,-457.13007,-635.42698)"
       id="g8041"
       inkscape:export-filename="C:\Users\Stéphane\Desktop\Blogs\OpenFoodFacts\openfoodfacts-logo-he.png"
       inkscape:export-xdpi="90"
       inkscape:export-ydpi="90">
      <g
         id="g8043"
         transform="translate(-9.5459416,1.1490485)"
         style="fill:#ffcc00">
        <g
           transform="matrix(0.02100622,0,0,0.02100622,586.13922,725.53281)"
           id="g8045"
           style="fill:#ffcc00">
          <path
             sodipodi:type="arc"
             style="fill:#ffcc00;fill-opacity:1;stroke:none"
             id="path8047"
             sodipodi:cx="567.14288"
             sodipodi:cy="762.36218"
             sodipodi:rx="65.714287"
             sodipodi:ry="32.857143"
             d="m 632.85717,762.36218 c 0,18.1465 -29.42129,32.85715 -65.71429,32.85715 -36.293,0 -65.71428,-14.71065 -65.71428,-32.85715 0,-18.1465 29.42128,-32.85714 65.71428,-32.85714 36.293,0 65.71429,14.71064 65.71429,32.85714 z"
             transform="matrix(0.58270937,-0.81268061,0.81268061,0.58270937,-465.7507,809.03262)" />
          <path
             style="fill:#ffcc00;fill-opacity:1;stroke:none"
             d="m 494.28571,741.6479 c 0,0 14.40901,-2.31616 20.71429,-5.71428 22.08801,-11.90395 53.57143,-52.85715 53.57143,-52.85715 0,0 -33.14169,43.13867 -40,64.99999 -2.07174,6.60382 -1.42857,20.71429 -1.42857,20.71429 z"
             id="path8049"
             inkscape:connector-curvature="0"
             sodipodi:nodetypes="cscscc" />
        </g>
        <g
           transform="matrix(0.02100622,0,0,0.02100622,586.13922,727.5359)"
           id="g8051"
           style="fill:#ffcc00">
          <path
             sodipodi:type="arc"
             style="fill:#ffcc00;fill-opacity:1;stroke:none"
             id="path8053"
             sodipodi:cx="567.14288"
             sodipodi:cy="762.36218"
             sodipodi:rx="65.714287"
             sodipodi:ry="32.857143"
             d="m 632.85717,762.36218 c 0,18.1465 -29.42129,32.85715 -65.71429,32.85715 -36.293,0 -65.71428,-14.71065 -65.71428,-32.85715 0,-18.1465 29.42128,-32.85714 65.71428,-32.85714 36.293,0 65.71429,14.71064 65.71429,32.85714 z"
             transform="matrix(0.58270937,-0.81268061,0.81268061,0.58270937,-465.7507,809.03262)" />
          <path
             style="fill:#ffcc00;fill-opacity:1;stroke:none"
             d="m 494.28571,741.6479 c 0,0 14.40901,-2.31616 20.71429,-5.71428 22.08801,-11.90395 53.57143,-52.85715 53.57143,-52.85715 0,0 -33.14169,43.13867 -40,64.99999 -2.07174,6.60382 -1.42857,20.71429 -1.42857,20.71429 z"
             id="path8055"
             inkscape:connector-curvature="0"
             sodipodi:nodetypes="cscscc" />
        </g>
        <g
           transform="matrix(0.02100622,0,0,0.02100622,586.13922,723.52972)"
           id="g8057"
           style="fill:#ffcc00">
          <path
             sodipodi:type="arc"
             style="fill:#ffcc00;fill-opacity:1;stroke:none"
             id="path8059"
             sodipodi:cx="567.14288"
             sodipodi:cy="762.36218"
             sodipodi:rx="65.714287"
             sodipodi:ry="32.857143"
             d="m 632.85717,762.36218 c 0,18.1465 -29.42129,32.85715 -65.71429,32.85715 -36.293,0 -65.71428,-14.71065 -65.71428,-32.85715 0,-18.1465 29.42128,-32.85714 65.71428,-32.85714 36.293,0 65.71429,14.71064 65.71429,32.85714 z"
             transform="matrix(0.58270937,-0.81268061,0.81268061,0.58270937,-465.7507,809.03262)" />
          <path
             style="fill:#ffcc00;fill-opacity:1;stroke:none"
             d="m 494.28571,741.6479 c 0,0 14.40901,-2.31616 20.71429,-5.71428 22.08801,-11.90395 53.57143,-52.85715 53.57143,-52.85715 0,0 -33.14169,43.13867 -40,64.99999 -2.07174,6.60382 -1.42857,20.71429 -1.42857,20.71429 z"
             id="path8061"
             inkscape:connector-curvature="0"
             sodipodi:nodetypes="cscscc" />
        </g>
        <g
           transform="matrix(0.02100622,0,0,0.02100622,586.13922,721.52662)"
           id="g8063"
           style="fill:#ffcc00">
          <path
             sodipodi:type="arc"
             style="fill:#ffcc00;fill-opacity:1;stroke:none"
             id="path8065"
             sodipodi:cx="567.14288"
             sodipodi:cy="762.36218"
             sodipodi:rx="65.714287"
             sodipodi:ry="32.857143"
             d="m 632.85717,762.36218 c 0,18.1465 -29.42129,32.85715 -65.71429,32.85715 -36.293,0 -65.71428,-14.71065 -65.71428,-32.85715 0,-18.1465 29.42128,-32.85714 65.71428,-32.85714 36.293,0 65.71429,14.71064 65.71429,32.85714 z"
             transform="matrix(0.58270937,-0.81268061,0.81268061,0.58270937,-465.7507,809.03262)" />
          <path
             style="fill:#ffcc00;fill-opacity:1;stroke:none"
             d="m 494.28571,741.6479 c 0,0 14.40901,-2.31616 20.71429,-5.71428 22.08801,-11.90395 53.57143,-52.85715 53.57143,-52.85715 0,0 -33.14169,43.13867 -40,64.99999 -2.07174,6.60382 -1.42857,20.71429 -1.42857,20.71429 z"
             id="path8067"
             inkscape:connector-curvature="0"
             sodipodi:nodetypes="cscscc" />
        </g>
        <g
           transform="matrix(0.02064274,-0.0038908,0.0038908,0.02064274,583.1049,721.64932)"
           id="g8069"
           style="fill:#ffcc00">
          <path
             sodipodi:type="arc"
             style="fill:#ffcc00;fill-opacity:1;stroke:none"
             id="path8071"
             sodipodi:cx="567.14288"
             sodipodi:cy="762.36218"
             sodipodi:rx="65.714287"
             sodipodi:ry="32.857143"
             d="m 632.85717,762.36218 c 0,18.1465 -29.42129,32.85715 -65.71429,32.85715 -36.293,0 -65.71428,-14.71065 -65.71428,-32.85715 0,-18.1465 29.42128,-32.85714 65.71428,-32.85714 36.293,0 65.71429,14.71064 65.71429,32.85714 z"
             transform="matrix(0.58270937,-0.81268061,0.81268061,0.58270937,-465.7507,809.03262)" />
          <path
             style="fill:#ffcc00;fill-opacity:1;stroke:none"
             d="m 494.28571,741.6479 c 0,0 14.40901,-2.31616 20.71429,-5.71428 22.08801,-11.90395 53.57143,-52.85715 53.57143,-52.85715 0,0 -33.14169,43.13867 -40,64.99999 -2.07174,6.60382 -1.42857,20.71429 -1.42857,20.71429 z"
             id="path8073"
             inkscape:connector-curvature="0"
             sodipodi:nodetypes="cscscc" />
        </g>
      </g>
      <g
         id="g8075"
         style="fill:#ffcc00"
         transform="translate(-10.253048,1.1490485)">
        <g
           transform="matrix(-0.02100622,0,0,0.02100622,604.26937,725.53281)"
           id="g8077"
           style="fill:#ffcc00">
          <path
             sodipodi:type="arc"
             style="fill:#ffcc00;fill-opacity:1;stroke:none"
             id="path8079"
             sodipodi:cx="567.14288"
             sodipodi:cy="762.36218"
             sodipodi:rx="65.714287"
             sodipodi:ry="32.857143"
             d="m 632.85717,762.36218 c 0,18.1465 -29.42129,32.85715 -65.71429,32.85715 -36.293,0 -65.71428,-14.71065 -65.71428,-32.85715 0,-18.1465 29.42128,-32.85714 65.71428,-32.85714 36.293,0 65.71429,14.71064 65.71429,32.85714 z"
             transform="matrix(0.58270937,-0.81268061,0.81268061,0.58270937,-465.7507,809.03262)" />
          <path
             style="fill:#ffcc00;fill-opacity:1;stroke:none"
             d="m 494.28571,741.6479 c 0,0 14.40901,-2.31616 20.71429,-5.71428 22.08801,-11.90395 53.57143,-52.85715 53.57143,-52.85715 0,0 -33.14169,43.13867 -40,64.99999 -2.07174,6.60382 -1.42857,20.71429 -1.42857,20.71429 z"
             id="path8081"
             inkscape:connector-curvature="0"
             sodipodi:nodetypes="cscscc" />
        </g>
        <g
           transform="matrix(-0.02100622,0,0,0.02100622,604.26938,727.5359)"
           id="g8083"
           style="fill:#ffcc00">
          <path
             sodipodi:type="arc"
             style="fill:#ffcc00;fill-opacity:1;stroke:none"
             id="path8085"
             sodipodi:cx="567.14288"
             sodipodi:cy="762.36218"
             sodipodi:rx="65.714287"
             sodipodi:ry="32.857143"
             d="m 632.85717,762.36218 c 0,18.1465 -29.42129,32.85715 -65.71429,32.85715 -36.293,0 -65.71428,-14.71065 -65.71428,-32.85715 0,-18.1465 29.42128,-32.85714 65.71428,-32.85714 36.293,0 65.71429,14.71064 65.71429,32.85714 z"
             transform="matrix(0.58270937,-0.81268061,0.81268061,0.58270937,-465.7507,809.03262)" />
          <path
             style="fill:#ffcc00;fill-opacity:1;stroke:none"
             d="m 494.28571,741.6479 c 0,0 14.40901,-2.31616 20.71429,-5.71428 22.08801,-11.90395 53.57143,-52.85715 53.57143,-52.85715 0,0 -33.14169,43.13867 -40,64.99999 -2.07174,6.60382 -1.42857,20.71429 -1.42857,20.71429 z"
             id="path8087"
             inkscape:connector-curvature="0"
             sodipodi:nodetypes="cscscc" />
        </g>
        <g
           transform="matrix(-0.02100622,0,0,0.02100622,604.26938,723.52972)"
           id="g8089"
           style="fill:#ffcc00">
          <path
             sodipodi:type="arc"
             style="fill:#ffcc00;fill-opacity:1;stroke:none"
             id="path8091"
             sodipodi:cx="567.14288"
             sodipodi:cy="762.36218"
             sodipodi:rx="65.714287"
             sodipodi:ry="32.857143"
             d="m 632.85717,762.36218 c 0,18.1465 -29.42129,32.85715 -65.71429,32.85715 -36.293,0 -65.71428,-14.71065 -65.71428,-32.85715 0,-18.1465 29.42128,-32.85714 65.71428,-32.85714 36.293,0 65.71429,14.71064 65.71429,32.85714 z"
             transform="matrix(0.58270937,-0.81268061,0.81268061,0.58270937,-465.7507,809.03262)" />
          <path
             style="fill:#ffcc00;fill-opacity:1;stroke:none"
             d="m 494.28571,741.6479 c 0,0 14.40901,-2.31616 20.71429,-5.71428 22.08801,-11.90395 53.57143,-52.85715 53.57143,-52.85715 0,0 -33.14169,43.13867 -40,64.99999 -2.07174,6.60382 -1.42857,20.71429 -1.42857,20.71429 z"
             id="path8093"
             inkscape:connector-curvature="0"
             sodipodi:nodetypes="cscscc" />
        </g>
        <g
           transform="matrix(-0.02100622,0,0,0.02100622,604.26937,721.52662)"
           id="g8095"
           style="fill:#ffcc00">
          <path
             sodipodi:type="arc"
             style="fill:#ffcc00;fill-opacity:1;stroke:none"
             id="path8097"
             sodipodi:cx="567.14288"
             sodipodi:cy="762.36218"
             sodipodi:rx="65.714287"
             sodipodi:ry="32.857143"
             d="m 632.85717,762.36218 c 0,18.1465 -29.42129,32.85715 -65.71429,32.85715 -36.293,0 -65.71428,-14.71065 -65.71428,-32.85715 0,-18.1465 29.42128,-32.85714 65.71428,-32.85714 36.293,0 65.71429,14.71064 65.71429,32.85714 z"
             transform="matrix(0.58270937,-0.81268061,0.81268061,0.58270937,-465.7507,809.03262)" />
          <path
             style="fill:#ffcc00;fill-opacity:1;stroke:none"
             d="m 494.28571,741.6479 c 0,0 14.40901,-2.31616 20.71429,-5.71428 22.08801,-11.90395 53.57143,-52.85715 53.57143,-52.85715 0,0 -33.14169,43.13867 -40,64.99999 -2.07174,6.60382 -1.42857,20.71429 -1.42857,20.71429 z"
             id="path8099"
             inkscape:connector-curvature="0"
             sodipodi:nodetypes="cscscc" />
        </g>
        <g
           transform="matrix(-0.02064274,-0.0038908,-0.0038908,0.02064274,607.30369,721.64932)"
           id="g8101"
           style="fill:#ffcc00">
          <path
             sodipodi:type="arc"
             style="fill:#ffcc00;fill-opacity:1;stroke:none"
             id="path8103"
             sodipodi:cx="567.14288"
             sodipodi:cy="762.36218"
             sodipodi:rx="65.714287"
             sodipodi:ry="32.857143"
             d="m 632.85717,762.36218 c 0,18.1465 -29.42129,32.85715 -65.71429,32.85715 -36.293,0 -65.71428,-14.71065 -65.71428,-32.85715 0,-18.1465 29.42128,-32.85714 65.71428,-32.85714 36.293,0 65.71429,14.71064 65.71429,32.85714 z"
             transform="matrix(0.58270937,-0.81268061,0.81268061,0.58270937,-465.7507,809.03262)" />
          <path
             style="fill:#ffcc00;fill-opacity:1;stroke:none"
             d="m 494.28571,741.6479 c 0,0 14.40901,-2.31616 20.71429,-5.71428 22.08801,-11.90395 53.57143,-52.85715 53.57143,-52.85715 0,0 -33.14169,43.13867 -40,64.99999 -2.07174,6.60382 -1.42857,20.71429 -1.42857,20.71429 z"
             id="path8105"
             inkscape:connector-curvature="0"
             sodipodi:nodetypes="cscscc" />
        </g>
      </g>
    </g>
    <g
       id="g8107"
       transform="matrix(0.485552,-0.55754244,0.55754244,0.485552,-605.03955,6.4228897)"
       inkscape:export-filename="C:\Users\Stéphane\Desktop\Blogs\OpenFoodFacts\openfoodfacts-logo-he.png"
       inkscape:export-xdpi="90"
       inkscape:export-ydpi="90">
      <path
         sodipodi:type="arc"
         style="fill:#ffcc00;fill-opacity:1"
         id="path8109"
         sodipodi:cx="608"
         sodipodi:cy="732.36218"
         sodipodi:rx="2.5"
         sodipodi:ry="2.5"
         d="m 610.5,732.36218 c 0,1.38071 -1.11929,2.5 -2.5,2.5 -1.38071,0 -2.5,-1.11929 -2.5,-2.5 0,-1.38071 1.11929,-2.5 2.5,-2.5 1.38071,0 2.5,1.11929 2.5,2.5 z"
         transform="translate(1.5,9.75)" />
      <path
         d="m 610.5,732.36218 c 0,1.38071 -1.11929,2.5 -2.5,2.5 -1.38071,0 -2.5,-1.11929 -2.5,-2.5 0,-1.38071 1.11929,-2.5 2.5,-2.5 1.38071,0 2.5,1.11929 2.5,2.5 z"
         sodipodi:ry="2.5"
         sodipodi:rx="2.5"
         sodipodi:cy="732.36218"
         sodipodi:cx="608"
         id="path8111"
         style="fill:#ffcc00;fill-opacity:1"
         sodipodi:type="arc"
         inkscape:transform-center-x="-3.1501887"
         inkscape:transform-center-y="-1.6050895"
         transform="matrix(0.30901699,-0.95105652,0.95105652,0.30901699,-274.24997,1089.9371)" />
      <path
         transform="matrix(-0.809017,-0.58778525,0.58778525,-0.809017,667.85758,1685.9871)"
         inkscape:transform-center-y="-3.4919705"
         inkscape:transform-center-x="0.5530674"
         sodipodi:type="arc"
         style="fill:#ffcc00;fill-opacity:1"
         id="path8113"
         sodipodi:cx="608"
         sodipodi:cy="732.36218"
         sodipodi:rx="2.5"
         sodipodi:ry="2.5"
         d="m 610.5,732.36218 c 0,1.38071 -1.11929,2.5 -2.5,2.5 -1.38071,0 -2.5,-1.11929 -2.5,-2.5 0,-1.38071 1.11929,-2.5 2.5,-2.5 1.38071,0 2.5,1.11929 2.5,2.5 z" />
      <path
         d="m 610.5,732.36218 c 0,1.38071 -1.11929,2.5 -2.5,2.5 -1.38071,0 -2.5,-1.11929 -2.5,-2.5 0,-1.38071 1.11929,-2.5 2.5,-2.5 1.38071,0 2.5,1.11929 2.5,2.5 z"
         sodipodi:ry="2.5"
         sodipodi:rx="2.5"
         sodipodi:cy="732.36218"
         sodipodi:cx="608"
         id="path8115"
         style="fill:#ffcc00;fill-opacity:1"
         sodipodi:type="arc"
         inkscape:transform-center-x="3.4919258"
         inkscape:transform-center-y="-0.5530731"
         transform="matrix(-0.80901699,0.58778526,-0.58778526,-0.80901699,1525.8621,974.17912)" />
      <path
         transform="matrix(0.309017,0.95105651,-0.95105651,0.309017,1114.0304,-61.792435)"
         inkscape:transform-center-y="3.1501051"
         inkscape:transform-center-x="1.6050854"
         sodipodi:type="arc"
         style="fill:#ffcc00;fill-opacity:1"
         id="path8117"
         sodipodi:cx="608"
         sodipodi:cy="732.36218"
         sodipodi:rx="2.5"
         sodipodi:ry="2.5"
         d="m 610.5,732.36218 c 0,1.38071 -1.11929,2.5 -2.5,2.5 -1.38071,0 -2.5,-1.11929 -2.5,-2.5 0,-1.38071 1.11929,-2.5 2.5,-2.5 1.38071,0 2.5,1.11929 2.5,2.5 z" />
    </g>
    <g
       transform="matrix(-0.6491698,-0.35382606,0.35382606,-0.6491698,229.16484,711.9075)"
       id="g8119"
       inkscape:export-filename="C:\Users\Stéphane\Desktop\Blogs\OpenFoodFacts\openfoodfacts-logo-he.png"
       inkscape:export-xdpi="90"
       inkscape:export-ydpi="90">
      <path
         transform="translate(1.5,9.75)"
         d="m 610.5,732.36218 c 0,1.38071 -1.11929,2.5 -2.5,2.5 -1.38071,0 -2.5,-1.11929 -2.5,-2.5 0,-1.38071 1.11929,-2.5 2.5,-2.5 1.38071,0 2.5,1.11929 2.5,2.5 z"
         sodipodi:ry="2.5"
         sodipodi:rx="2.5"
         sodipodi:cy="732.36218"
         sodipodi:cx="608"
         id="path8121"
         style="fill:#ffcc00;fill-opacity:1"
         sodipodi:type="arc" />
      <path
         transform="matrix(0.30901699,-0.95105652,0.95105652,0.30901699,-274.24997,1089.9371)"
         inkscape:transform-center-y="-1.6050895"
         inkscape:transform-center-x="-3.1501887"
         sodipodi:type="arc"
         style="fill:#ffcc00;fill-opacity:1"
         id="path8123"
         sodipodi:cx="608"
         sodipodi:cy="732.36218"
         sodipodi:rx="2.5"
         sodipodi:ry="2.5"
         d="m 610.5,732.36218 c 0,1.38071 -1.11929,2.5 -2.5,2.5 -1.38071,0 -2.5,-1.11929 -2.5,-2.5 0,-1.38071 1.11929,-2.5 2.5,-2.5 1.38071,0 2.5,1.11929 2.5,2.5 z" />
      <path
         d="m 610.5,732.36218 c 0,1.38071 -1.11929,2.5 -2.5,2.5 -1.38071,0 -2.5,-1.11929 -2.5,-2.5 0,-1.38071 1.11929,-2.5 2.5,-2.5 1.38071,0 2.5,1.11929 2.5,2.5 z"
         sodipodi:ry="2.5"
         sodipodi:rx="2.5"
         sodipodi:cy="732.36218"
         sodipodi:cx="608"
         id="path8125"
         style="fill:#ffcc00;fill-opacity:1"
         sodipodi:type="arc"
         inkscape:transform-center-x="0.5530674"
         inkscape:transform-center-y="-3.4919705"
         transform="matrix(-0.809017,-0.58778525,0.58778525,-0.809017,667.85758,1685.9871)" />
      <path
         transform="matrix(-0.80901699,0.58778526,-0.58778526,-0.80901699,1525.8621,974.17912)"
         inkscape:transform-center-y="-0.5530731"
         inkscape:transform-center-x="3.4919258"
         sodipodi:type="arc"
         style="fill:#ffcc00;fill-opacity:1"
         id="path8127"
         sodipodi:cx="608"
         sodipodi:cy="732.36218"
         sodipodi:rx="2.5"
         sodipodi:ry="2.5"
         d="m 610.5,732.36218 c 0,1.38071 -1.11929,2.5 -2.5,2.5 -1.38071,0 -2.5,-1.11929 -2.5,-2.5 0,-1.38071 1.11929,-2.5 2.5,-2.5 1.38071,0 2.5,1.11929 2.5,2.5 z" />
      <path
         d="m 610.5,732.36218 c 0,1.38071 -1.11929,2.5 -2.5,2.5 -1.38071,0 -2.5,-1.11929 -2.5,-2.5 0,-1.38071 1.11929,-2.5 2.5,-2.5 1.38071,0 2.5,1.11929 2.5,2.5 z"
         sodipodi:ry="2.5"
         sodipodi:rx="2.5"
         sodipodi:cy="732.36218"
         sodipodi:cx="608"
         id="path8129"
         style="fill:#ffcc00;fill-opacity:1"
         sodipodi:type="arc"
         inkscape:transform-center-x="1.6050854"
         inkscape:transform-center-y="3.1501051"
         transform="matrix(0.309017,0.95105651,-0.95105651,0.309017,1114.0304,-61.792435)" />
    </g>
    <g
       id="g8131"
       transform="matrix(0.31450273,-0.66910564,0.66910564,0.31450273,-599.58237,199.80877)"
       inkscape:export-filename="C:\Users\Stéphane\Desktop\Blogs\OpenFoodFacts\openfoodfacts-logo-he.png"
       inkscape:export-xdpi="90"
       inkscape:export-ydpi="90">
      <path
         sodipodi:type="arc"
         style="fill:#ffcc00;fill-opacity:1"
         id="path8133"
         sodipodi:cx="608"
         sodipodi:cy="732.36218"
         sodipodi:rx="2.5"
         sodipodi:ry="2.5"
         d="m 610.5,732.36218 c 0,1.38071 -1.11929,2.5 -2.5,2.5 -1.38071,0 -2.5,-1.11929 -2.5,-2.5 0,-1.38071 1.11929,-2.5 2.5,-2.5 1.38071,0 2.5,1.11929 2.5,2.5 z"
         transform="translate(1.5,9.75)" />
      <path
         d="m 610.5,732.36218 c 0,1.38071 -1.11929,2.5 -2.5,2.5 -1.38071,0 -2.5,-1.11929 -2.5,-2.5 0,-1.38071 1.11929,-2.5 2.5,-2.5 1.38071,0 2.5,1.11929 2.5,2.5 z"
         sodipodi:ry="2.5"
         sodipodi:rx="2.5"
         sodipodi:cy="732.36218"
         sodipodi:cx="608"
         id="path8135"
         style="fill:#ffcc00;fill-opacity:1"
         sodipodi:type="arc"
         inkscape:transform-center-x="-3.1501887"
         inkscape:transform-center-y="-1.6050895"
         transform="matrix(0.30901699,-0.95105652,0.95105652,0.30901699,-274.24997,1089.9371)" />
      <path
         transform="matrix(-0.809017,-0.58778525,0.58778525,-0.809017,667.85758,1685.9871)"
         inkscape:transform-center-y="-3.4919705"
         inkscape:transform-center-x="0.5530674"
         sodipodi:type="arc"
         style="fill:#ffcc00;fill-opacity:1"
         id="path8137"
         sodipodi:cx="608"
         sodipodi:cy="732.36218"
         sodipodi:rx="2.5"
         sodipodi:ry="2.5"
         d="m 610.5,732.36218 c 0,1.38071 -1.11929,2.5 -2.5,2.5 -1.38071,0 -2.5,-1.11929 -2.5,-2.5 0,-1.38071 1.11929,-2.5 2.5,-2.5 1.38071,0 2.5,1.11929 2.5,2.5 z" />
      <path
         d="m 610.5,732.36218 c 0,1.38071 -1.11929,2.5 -2.5,2.5 -1.38071,0 -2.5,-1.11929 -2.5,-2.5 0,-1.38071 1.11929,-2.5 2.5,-2.5 1.38071,0 2.5,1.11929 2.5,2.5 z"
         sodipodi:ry="2.5"
         sodipodi:rx="2.5"
         sodipodi:cy="732.36218"
         sodipodi:cx="608"
         id="path8139"
         style="fill:#ffcc00;fill-opacity:1"
         sodipodi:type="arc"
         inkscape:transform-center-x="3.4919258"
         inkscape:transform-center-y="-0.5530731"
         transform="matrix(-0.80901699,0.58778526,-0.58778526,-0.80901699,1525.8621,974.17912)" />
      <path
         transform="matrix(0.309017,0.95105651,-0.95105651,0.309017,1114.0304,-61.792435)"
         inkscape:transform-center-y="3.1501051"
         inkscape:transform-center-x="1.6050854"
         sodipodi:type="arc"
         style="fill:#ffcc00;fill-opacity:1"
         id="path8141"
         sodipodi:cx="608"
         sodipodi:cy="732.36218"
         sodipodi:rx="2.5"
         sodipodi:ry="2.5"
         d="m 610.5,732.36218 c 0,1.38071 -1.11929,2.5 -2.5,2.5 -1.38071,0 -2.5,-1.11929 -2.5,-2.5 0,-1.38071 1.11929,-2.5 2.5,-2.5 1.38071,0 2.5,1.11929 2.5,2.5 z" />
    </g>
    <path
       style="fill:#00d400;fill-opacity:1;fill-rule:nonzero;stroke:none"
       d="M 133.44657,15.33728 C 142.63587,16.287033 146.07702,23.767884 146,37 l 2.96392,-1.398609 c 0,-1.461895 -0.0255,-1.249361 -0.0255,-2.711244 0,-10.866897 -6.40398,-17.274677 -10.91182,-18.343579 z"
       id="path8143"
       inkscape:connector-curvature="0"
       inkscape:export-filename="C:\Users\Stéphane\Desktop\Blogs\OpenFoodFacts\openfoodfacts-logo-he.png"
       inkscape:export-xdpi="90"
       inkscape:export-ydpi="90"
       sodipodi:nodetypes="cccscc" />
    <g
       transform="matrix(0.89458574,0,0,0.89458574,-457.09845,-635.42698)"
       id="g8145"
       inkscape:export-filename="C:\Users\Stéphane\Desktop\Blogs\OpenFoodFacts\openfoodfacts-logo-he.png"
       inkscape:export-xdpi="90"
       inkscape:export-ydpi="90">
      <g
         transform="translate(-0.6875,-0.0625)"
         id="g8147">
        <path
           sodipodi:nodetypes="ccc"
           inkscape:connector-curvature="0"
           id="path8149"
           d="m 646.11882,744.69741 c 9.98853,-2.85699 22.36057,-3.40732 20.1894,-18.03175 -19.13147,-9.00363 -12.68327,7.89971 -20.1894,18.03175 z"
           style="fill:#00d400;stroke:none" />
        <path
           sodipodi:nodetypes="ccc"
           inkscape:connector-curvature="0"
           id="path8151"
           d="m 667.50879,725.1485 c -4.96993,6.86401 -15.79612,16.96445 -22.45063,19.97578 6.6817,-2.48508 19.65127,-12.66443 22.45063,-19.97578 z"
           style="fill:#ffffff;fill-opacity:1;stroke:none" />
      </g>
    </g>
    <g
       id="g8153"
       transform="matrix(0.73729109,0.50664139,0.50664139,-0.73729109,-717.9281,208.42539)"
       inkscape:export-filename="C:\Users\Stéphane\Desktop\Blogs\OpenFoodFacts\openfoodfacts-logo-he.png"
       inkscape:export-xdpi="90"
       inkscape:export-ydpi="90">
      <g
         transform="matrix(-0.85351374,-0.52107033,0.52107033,-0.85351374,864.58887,1695.2445)"
         id="g8155">
        <g
           transform="translate(-0.6875,-0.0625)"
           id="g8157">
          <path
             sodipodi:nodetypes="ccc"
             inkscape:connector-curvature="0"
             id="path8159"
             d="m 646.11882,744.69741 c 9.98853,-2.85699 22.36057,-3.40732 20.1894,-18.03175 -19.99874,-7.24796 -12.68327,7.89971 -20.1894,18.03175 z"
             style="fill:#00d400;stroke:none" />
          <path
             sodipodi:nodetypes="ccc"
             inkscape:connector-curvature="0"
             id="path8161"
             d="m 667.50879,725.1485 c -4.96993,6.86401 -15.79612,16.96445 -22.45063,19.97578 6.6817,-2.48508 19.65127,-12.66443 22.45063,-19.97578 z"
             style="fill:#ffffff;fill-opacity:1;stroke:none" />
        </g>
      </g>
    </g>
    <path
       sodipodi:nodetypes="cccscc"
       inkscape:export-ydpi="90"
       inkscape:export-xdpi="90"
       inkscape:export-filename="C:\Users\Stéphane\Desktop\Blogs\OpenFoodFacts\openfoodfacts-logo-he.png"
       inkscape:connector-curvature="0"
       id="path8163"
       d="M 148.87818,13.60402 C 146.88514,15.168809 146.07702,23.767884 146,37 l 2.96392,-1.398609 c 0,-1.461895 0.0361,1.860492 0.0361,0.398609 0,-10.866897 0.85886,-19.322201 1.21536,-21.117966 z"
       style="fill:#00d400;fill-opacity:1;fill-rule:nonzero;stroke:none" />
    <path
       inkscape:export-ydpi="90"
       inkscape:export-xdpi="90"
       inkscape:export-filename="C:\Users\Stéphane\Desktop\Blogs\OpenFoodFacts\openfoodfacts-logo-he.png"
       transform="matrix(0.89458574,0,0,0.89458574,-457.09845,-635.42698)"
       sodipodi:type="arc"
       style="fill:#00ccff;fill-opacity:1;stroke:none"
       id="path8165"
       sodipodi:cx="701.09637"
       sodipodi:cy="759.79675"
       sodipodi:rx="1.0606601"
       sodipodi:ry="1.0606601"
       d="m 702.15703,759.79675 a 1.0606601,1.0606601 0 1 1 -2.12132,0 1.0606601,1.0606601 0 1 1 2.12132,0 z" />
    <path
       sodipodi:nodetypes="cccccc"
       inkscape:export-ydpi="90"
       inkscape:export-xdpi="90"
       inkscape:export-filename="C:\Users\Stéphane\Desktop\Blogs\OpenFoodFacts\openfoodfacts-logo-he.png"
       id="path8169"
       d="m 181.00004,127 0,5 c 2.66569,0 5.33424,0 7.99992,0 l 0,-5 c -2.66568,0 -5.33423,0 -7.99983,0 z"
       style="fill:#0066ff;fill-opacity:1;fill-rule:nonzero;stroke:none"
       inkscape:connector-curvature="0" />
    <path
       sodipodi:nodetypes="ccccc"
       inkscape:export-ydpi="90"
       inkscape:export-xdpi="90"
       inkscape:export-filename="C:\Users\Stéphane\Desktop\Blogs\OpenFoodFacts\openfoodfacts-logo-he.png"
       id="path8171"
       d="m 165.00001,127 0,5 c 4.33407,0 8.6659,0 12.99997,0 l 0,-5 c -4.33407,0 -8.6659,0 -12.99997,0 z"
       style="fill:#00ccff;fill-opacity:1;fill-rule:nonzero;stroke:none"
       inkscape:connector-curvature="0" />
    <path
       sodipodi:nodetypes="ccccc"
       inkscape:export-ydpi="90"
       inkscape:export-xdpi="90"
       inkscape:export-filename="C:\Users\Stéphane\Desktop\Blogs\OpenFoodFacts\openfoodfacts-logo-he.png"
       id="path8173"
       d="m 106,127 0,5 c 18.6596,0 37.34041,0 56.00004,0 l 0,-5 C 143.34041,127 124.6596,127 106,127 z"
       style="fill:#00d400;fill-opacity:1;fill-rule:nonzero;stroke:none"
       inkscape:connector-curvature="0" />
    <path
       sodipodi:nodetypes="ccccc"
       inkscape:export-ydpi="90"
       inkscape:export-xdpi="90"
       inkscape:export-filename="C:\Users\Stéphane\Desktop\Blogs\OpenFoodFacts\openfoodfacts-logo-he.png"
       id="path8175"
       d="m 47.999996,127 0,5 c 18.333387,0 36.666623,0 55.000004,0 l 0,-5 c -18.333381,0 -36.666617,0 -55.000004,0 z"
       style="fill:#ffcc00;fill-opacity:1;fill-rule:nonzero;stroke:none"
       inkscape:connector-curvature="0" />
    <path
       sodipodi:nodetypes="ccccc"
       inkscape:export-ydpi="90"
       inkscape:export-xdpi="90"
       inkscape:export-filename="C:\Users\Stéphane\Desktop\Blogs\OpenFoodFacts\openfoodfacts-logo-he.png"
       id="path8177"
       d="m 11,127 0,5 c 11.333706,0 22.666301,0 33.999997,0 l 0,-5 C 33.666301,127 22.333706,127 11,127 z"
       style="fill:#ff0000;fill-opacity:1;fill-rule:nonzero;stroke:none"
       inkscape:connector-curvature="0" />
    <g
       style="font-size:32.81705093px;font-style:normal;font-variant:normal;font-weight:normal;font-stretch:normal;line-height:125%;letter-spacing:0px;word-spacing:0px;fill:#333333;fill-opacity:1;stroke:none;font-family:Arial Narrow;-inkscape-font-specification:Arial Narrow"
       id="text8179"
       inkscape:export-filename="C:\Users\Stéphane\Desktop\Blogs\OpenFoodFacts\openfoodfacts-logo-he.png"
       inkscape:export-xdpi="90"
       inkscape:export-ydpi="90"
       transform="translate(11,11.637817)">
      <path
         inkscape:connector-curvature="0"
         d="m 0.29533203,104.18406 c -9.5e-7,-2.79573 0.61506181,-4.944723 1.84519007,-6.446982 1.2301228,-1.50223 2.7621882,-2.253352 4.5962009,-2.253369 1.1853862,1.7e-5 2.2664056,0.335506 3.2430614,1.006468 0.9766346,0.670993 1.7501226,1.645774 2.3204666,2.924346 0.570318,1.278597 0.855483,2.801347 0.855497,4.568247 -1.4e-5,2.43043 -0.551707,4.40982 -1.65508,5.93815 -1.215227,1.68491 -2.8069346,2.52736 -4.775128,2.52736 -1.9831188,0 -3.5785543,-0.86482 -4.7863113,-2.59445 -1.09593262,-1.56562 -1.64389762,-3.45554 -1.64389667,-5.66977 z m 1.83400717,0.0335 c -2.8e-6,2.0204 0.4454517,3.58787 1.3363649,4.70244 0.890905,1.11457 1.9737882,1.67185 3.2486529,1.67185 1.3046712,0 2.3987374,-0.56287 3.2822018,-1.68863 0.8834432,-1.12574 1.3251702,-2.78082 1.3251822,-4.96524 -1.2e-5,-1.40904 -0.227399,-2.66899 -0.682161,-3.77984 C 10.289169,99.308298 9.761706,98.628001 9.0571893,98.117299 8.3526532,97.606624 7.5828928,97.35128 6.7479059,97.351265 5.4059434,97.35128 4.3006943,97.910428 3.4321552,99.028711 2.563608,100.14702 2.1293364,101.87665 2.1293392,104.21761 z"
         style="font-size:22.90272331px;fill:#333333"
         id="path3685" />
      <path
         d="m 15,112.36218 0,-16.999997 4.674837,0 c 1.224167,1.6e-5 2.126995,0.107131 2.708487,0.321346 0.795704,0.290757 1.430744,0.830159 1.905122,1.618206 0.474357,0.788077 0.711542,1.755941 0.711554,2.903595 -1.2e-5,1.51492 -0.386392,2.75057 -1.159142,3.70695 -0.772771,0.9564 -2.107912,1.42433 -4.005348,1.43458 L 17,105.36218 l 0,7 z m 2,-9 2.86994,-7.7e-4 c 1.124703,-3e-4 1.947195,-0.25439 2.467477,-0.7632 0.520265,-0.50879 0.780403,-1.27581 0.780412,-2.30107 -9e-6,-0.665632 -0.128166,-1.235638 -0.384467,-1.710022 -0.256321,-0.474353 -0.56619,-0.799524 -0.929608,-0.975514 -0.363435,-0.17596 -1.019516,-0.263948 -1.968244,-0.263963 L 17,97.362183 z"
         style="font-size:22.90272331px;fill:#333333"
         id="path3687"
         inkscape:connector-curvature="0"
         sodipodi:nodetypes="ccccccssccccsscccccc" />
      <path
         d="m 27,112.36218 0,-16.999997 10,0 0,2 -8,0 0,4.999997 7,0 0,2 -7,0 0,6 8,0 0,2 z"
         style="font-size:22.90272331px;fill:#333333"
         id="path3689"
         inkscape:connector-curvature="0"
         sodipodi:nodetypes="ccccccccccccc" />
      <path
         d="m 39,112.36218 0,-16.999997 2,0 7,12.999997 0,-12.999997 2,0 0,16.999997 -2,0 -7,-12.999997 0,12.999997 z"
         style="font-size:22.90272331px;fill:#333333"
         id="path3691"
         inkscape:connector-curvature="0"
         sodipodi:nodetypes="ccccccccccc" />
      <path
         d="m 58,112.36218 0,-16.999997 9,0 0,2 -7,0 0,4.999997 6,0 0,2 -6,0 0,8 z"
         style="font-size:22.90272331px;fill:#333333"
         id="path3693"
         inkscape:connector-curvature="0"
         sodipodi:nodetypes="ccccccccccc" />
      <path
         d="m 68.255995,104.18406 c -10e-7,-2.79573 0.615062,-4.944723 1.84519,-6.446982 1.230123,-1.50223 2.762188,-2.253352 4.596201,-2.253369 1.185386,1.7e-5 2.266405,0.335506 3.243061,1.006468 0.976635,0.670993 1.750123,1.645774 2.320467,2.924346 0.570318,1.278597 0.855483,2.801347 0.855497,4.568247 -1.4e-5,2.43043 -0.551707,4.40982 -1.65508,5.93815 -1.215227,1.68491 -2.806935,2.52736 -4.775128,2.52736 -1.983119,0 -3.578554,-0.86482 -4.786311,-2.59445 -1.095933,-1.56562 -1.643898,-3.45554 -1.643897,-5.66977 z m 1.834007,0.0335 c -3e-6,2.0204 0.445452,3.58787 1.336365,4.70244 0.890905,1.11457 1.973788,1.67185 3.248653,1.67185 1.304671,0 2.398737,-0.56287 3.282202,-1.68863 0.883443,-1.12574 1.32517,-2.78082 1.325182,-4.96524 -1.2e-5,-1.40904 -0.227399,-2.66899 -0.682162,-3.77984 -0.35041,-0.849892 -0.877873,-1.530189 -1.58239,-2.040891 -0.704536,-0.510675 -1.474296,-0.766019 -2.309283,-0.766034 -1.341963,1.5e-5 -2.447212,0.559163 -3.315751,1.677446 -0.868547,1.118309 -1.302819,2.847939 -1.302816,5.188899 z"
         style="font-size:22.90272331px;fill:#333333"
         id="path3695"
         inkscape:connector-curvature="0"
         sodipodi:nodetypes="sscccccscsssssccccss" />
      <path
         d="m 82.883322,104.18406 c -1e-6,-2.79573 0.615062,-4.944723 1.84519,-6.446982 1.230123,-1.50223 2.762188,-2.253352 4.596201,-2.253369 1.185386,1.7e-5 2.266405,0.335506 3.243061,1.006468 0.976635,0.670993 1.750123,1.645774 2.320467,2.924346 0.570317,1.278597 0.855483,2.801347 0.855497,4.568247 -1.4e-5,2.43043 -0.551707,4.40982 -1.65508,5.93815 -1.215227,1.68491 -2.806935,2.52736 -4.775128,2.52736 -1.983119,0 -3.578555,-0.86482 -4.786312,-2.59445 -1.095932,-1.56562 -1.643897,-3.45554 -1.643896,-5.66977 z m 1.834007,0.0335 c -3e-6,2.0204 0.445452,3.58787 1.336365,4.70244 0.890905,1.11457 1.973788,1.67185 3.248653,1.67185 1.304671,0 2.398737,-0.56287 3.282202,-1.68863 0.883443,-1.12574 1.32517,-2.78082 1.325182,-4.96524 -1.2e-5,-1.40904 -0.227399,-2.66899 -0.682162,-3.77984 -0.35041,-0.849892 -0.877873,-1.530189 -1.58239,-2.040891 -0.704536,-0.510675 -1.474296,-0.766019 -2.309283,-0.766034 -1.341963,1.5e-5 -2.447212,0.559163 -3.315751,1.677446 -0.868547,1.118309 -1.302819,2.847939 -1.302816,5.188899 z"
         style="font-size:22.90272331px;fill:#333333"
         id="path3697"
         inkscape:connector-curvature="0"
         sodipodi:nodetypes="sscccccscsssssccccss" />
      <path
         d="m 98,112.36218 0,-16.999997 5,0 c 1.21266,1.6e-5 2.00501,0.174276 2.63497,0.382679 0.82682,0.270189 1.54339,0.719576 2.14974,1.437449 0.60633,0.717903 1.0788,1.622982 1.41741,2.715233 0.33859,1.092286 0.50789,2.387186 0.5079,3.884706 -1e-5,1.9221 -0.28743,3.55278 -0.86225,4.89207 -0.57485,1.33928 -1.31309,2.28875 -2.21471,2.8484 -0.90163,0.55964 -2.17628,0.83946 -3.63306,0.83946 z m 2,-2 3,0 c 1.22054,0 2.01682,-0.19791 2.64678,-0.58773 0.62996,-0.38982 1.11424,-1.01701 1.45285,-1.88157 0.44883,-1.15015 0.67326,-2.52803 0.67327,-4.13365 -1e-5,-1.72137 -0.23822,-3.07416 -0.71461,-4.058372 -0.47642,-0.984193 -1.08866,-1.642257 -1.83673,-1.974198 C 104.71759,97.502677 104.09454,97.362198 103,97.362183 l -3,0 z"
         style="font-size:22.90272331px;fill:#333333"
         id="path3699"
         inkscape:connector-curvature="0"
         sodipodi:nodetypes="ccccccccssccssccccccc" />
      <path
         d="m 118,112.36218 0.0757,-16.999997 9,0 0,2 -7,3.8e-5 0,4.999999 6,0 0,2 -6,0 0,7.99996 z"
         style="font-size:22.90272331px;fill:#333333"
         id="path3701"
         inkscape:connector-curvature="0"
         sodipodi:nodetypes="ccccccccccc" />
      <path
         d="m 128.07572,112.36218 5,-16.999997 2,0 5,16.999997 -2,0 -4,-14.999997 -4.04025,14.999997 z"
         style="font-size:22.90272331px;fill:#333333"
         id="path3703"
         inkscape:connector-curvature="0"
         sodipodi:nodetypes="cccccccc" />
      <path
         d="m 151.36137,106.42065 1.78927,0.54797 c -0.39514,1.84147 -1.08662,3.21511 -2.07444,4.12092 -0.98784,0.90583 -2.19001,1.35874 -3.60651,1.35874 -1.24504,0 -2.30929,-0.30381 -3.19273,-0.91142 -0.88346,-0.6076 -1.60663,-1.58238 -2.1695,-2.92434 -0.56288,-1.34195 -0.84432,-2.92621 -0.84432,-4.75277 0,-1.80417 0.28144,-3.33065 0.84432,-4.579422 0.56287,-1.248751 1.32518,-2.191847 2.28692,-2.829292 0.96173,-0.637413 2.03529,-0.956127 3.22069,-0.956144 1.29722,1.7e-5 2.41179,0.404467 3.34371,1.213353 0.9319,0.808916 1.58424,1.996173 1.95702,3.561775 l -1.74454,0.50323 c -0.59644,-2.281308 -1.79302,-3.42197 -3.58974,-3.421985 -0.89464,1.5e-5 -1.66999,0.229266 -2.32605,0.687753 -0.65608,0.458516 -1.17981,1.172361 -1.57121,2.141542 -0.39141,0.9692 -0.58711,2.1956 -0.58711,3.67919 0,2.24406 0.39513,3.92709 1.1854,5.04912 0.79026,1.12202 1.84145,1.68303 3.15359,1.68303 0.96919,0 1.80605,-0.3448 2.51058,-1.03442 0.70452,-0.68962 1.17607,-1.73522 1.41465,-3.13683 z"
         style="font-size:22.90272331px;fill:#333333"
         id="path3705"
         inkscape:connector-curvature="0"
         sodipodi:nodetypes="ccsscssscccccccsssssc" />
      <path
         d="m 159,112.36218 0,-14.999997 -5,0.0061 0,-2.006138 12,0 0,2 -5,0 0,14.999995 z"
         style="font-size:22.90272331px;fill:#333333"
         id="path3707"
         inkscape:connector-curvature="0"
         sodipodi:nodetypes="ccccccccc" />
      <path
         inkscape:connector-curvature="0"
         d="m 167.26826,106.90152 1.67745,-0.17893 c 0.0895,0.9021 0.29262,1.60476 0.60947,2.10799 0.31685,0.50324 0.76976,0.90769 1.35873,1.21336 0.58897,0.30567 1.25249,0.4585 1.99057,0.4585 1.05865,0 1.88059,-0.25907 2.46585,-0.77722 0.58523,-0.51814 0.87785,-1.19098 0.87786,-2.01852 -1e-5,-0.48459 -0.10625,-0.90768 -0.31872,-1.26927 -0.21248,-0.36158 -0.53306,-0.65793 -0.96173,-0.88905 -0.42869,-0.23111 -1.35501,-0.55541 -2.77897,-0.97292 -1.26741,-0.37275 -2.1695,-0.74925 -2.70628,-1.12948 -0.53678,-0.38021 -0.95428,-0.86294 -1.25249,-1.44819 -0.29822,-0.58523 -0.44732,-1.24689 -0.44732,-1.98498 0,-1.32703 0.42868,-2.411777 1.28604,-3.254242 0.85736,-0.842434 2.01293,-1.263659 3.46672,-1.263676 0.99901,1.7e-5 1.87314,0.197583 2.62241,0.592698 0.74925,0.395147 1.33076,0.96175 1.74454,1.699811 0.41376,0.73809 0.63556,1.606633 0.66539,2.605629 l -1.711,0.15656 c -0.0895,-1.066092 -0.40818,-1.856355 -0.95614,-2.370785 -0.54797,-0.514402 -1.31773,-0.77161 -2.30928,-0.771625 -1.00648,1.5e-5 -1.77437,0.225538 -2.30369,0.67657 -0.52934,0.45106 -0.794,1.034438 -0.794,1.750135 0,0.663535 0.19384,1.177955 0.58152,1.543245 0.38767,0.36533 1.25994,0.73436 2.61681,1.10712 1.32704,0.36532 2.25896,0.68217 2.79575,0.95055 0.82007,0.41751 1.43886,0.96734 1.85637,1.64949 0.41749,0.68217 0.62623,1.49666 0.62625,2.44348 -2e-5,0.93937 -0.21995,1.79487 -0.6598,2.56649 -0.43987,0.77163 -1.03816,1.35873 -1.79487,1.76132 -0.75672,0.40258 -1.66813,0.60388 -2.73423,0.60388 -1.66254,0 -2.98772,-0.49951 -3.97555,-1.49852 -0.98783,-0.99901 -1.50038,-2.35215 -1.53766,-4.05942 z"
         style="font-size:22.90272331px;fill:#333333"
         id="path3709" />
      <path
         sodipodi:nodetypes="ccccc"
         inkscape:connector-curvature="0"
         id="path3713"
         style="font-size:22.90272331px;fill:#333333"
         d="m 137.07572,105.36218 0,2 -6,0 0,-2 z" />
    </g>
    <rect
       inkscape:export-ydpi="90"
       inkscape:export-xdpi="90"
       inkscape:export-filename="C:\Users\Stéphane\Desktop\Blogs\OpenFoodFacts\openfoodfacts-logo-he.png"
       style="fill:none"
       y="9"
       x="11"
       height="5"
       width="178"
       id="rect3723" />
    <rect
       style="fill:none"
       id="rect3725"
       width="1"
       height="1"
       x="12"
       y="151"
       inkscape:export-filename="C:\Users\Stéphane\Desktop\Blogs\OpenFoodFacts\openfoodfacts-logo-he.png"
       inkscape:export-xdpi="90"
       inkscape:export-ydpi="90" />
    <g
       transform="matrix(0.80912203,0,0,1.1069309,1.1488114,-1)"
       style="font-size:17px;font-style:normal;font-variant:normal;font-weight:normal;font-stretch:normal;line-height:125%;letter-spacing:0px;word-spacing:0px;fill:#333333;fill-opacity:1;stroke:none;font-family:Arial Narrow;-inkscape-font-specification:Arial Narrow"
       id="text3386"
       inkscape:export-filename="C:\Users\Stéphane\Desktop\Blogs\OpenFoodFacts\openfoodfacts-logo-he.png"
       inkscape:export-xdpi="90"
       inkscape:export-ydpi="90">
      <path
         d="m 224.89304,128.57314 -1.36132,-3.67725 1.55224,0 0.64746,1.94238 c 0.26009,-0.56998 0.66683,-1.05281 1.22022,-1.44848 0.55338,-0.39567 1.14827,-0.5935 1.78467,-0.59351 0.67512,1e-5 1.25756,0.17294 1.74731,0.5188 0.48974,0.34587 0.84529,0.85084 1.06665,1.51489 0.22135,0.66407 0.33202,1.66293 0.33203,2.99658 l 0,3.87647 -4.54053,0 0,-1.32813 2.93848,0 0,-2.58154 c -1e-5,-0.97395 -0.0318,-1.68367 -0.0955,-2.12915 -0.0636,-0.44547 -0.22689,-0.80794 -0.48974,-1.0874 -0.26287,-0.27945 -0.59352,-0.41918 -0.99195,-0.41919 -0.61979,10e-6 -1.14689,0.31959 -1.5813,0.95874 -0.43441,0.63916 -0.80379,1.74732 -1.10815,3.32446 l -0.62256,3.26221 -1.60205,0 0.69727,-3.43653 c 0.0664,-0.32649 0.20198,-0.89094 0.40673,-1.69335 z"
         style="fill:#333333"
         id="path3391"
         inkscape:connector-curvature="0" />
      <path
         d="m 213.85301,129.33681 c -1e-5,-1.4056 0.37768,-2.53727 1.13305,-3.39502 0.75537,-0.85774 1.75561,-1.28661 3.00073,-1.28662 0.74154,1e-5 1.41113,0.16187 2.00879,0.48559 0.59765,0.32374 1.10123,0.83977 1.51075,1.5481 0.40949,0.70834 0.61424,1.59099 0.61425,2.64795 -1e-5,0.86882 -0.15495,1.64632 -0.46484,2.33252 -0.3099,0.6862 -0.77751,1.23958 -1.40283,1.66015 -0.62533,0.42058 -1.3807,0.63086 -2.26612,0.63086 -1.24512,0 -2.24536,-0.42195 -3.00073,-1.26587 -0.75537,-0.84391 -1.13306,-1.96313 -1.13305,-3.35766 z m 1.73486,0 c 0,1.04037 0.21028,1.84969 0.63086,2.42798 0.42057,0.57828 1.00992,0.86743 1.76806,0.86743 0.81901,0 1.42635,-0.31266 1.82203,-0.93799 0.39566,-0.62532 0.59349,-1.41666 0.5935,-2.37402 -1e-5,-1.0625 -0.21306,-1.88981 -0.63916,-2.48194 -0.42611,-0.59211 -1.01823,-0.88817 -1.77637,-0.88818 -0.80241,1e-5 -1.40283,0.31959 -1.80127,0.95874 -0.39844,0.63917 -0.59765,1.44849 -0.59765,2.42798 z"
         style="fill:#333333"
         id="path3393"
         inkscape:connector-curvature="0" />
      <path
         d="m 212.7407,126.22401 -1.50244,0 0,7.47901 -1.57715,0 0,-7.47901 -4.81445,0 0,-1.32812 7.89404,0 z"
         style="fill:#333333"
         id="path3395"
         inkscape:connector-curvature="0" />
      <path
         d="m 190.77683,125.0536 c 1.00163,-0.17154 1.97559,-0.25731 2.92188,-0.25732 1.83723,1e-5 3.10725,0.34034 3.81006,1.021 0.70279,0.68067 1.05419,1.7238 1.0542,3.12939 l 0,4.75635 -1.58545,0 0,-4.33301 c -1e-5,-0.87988 -0.10239,-1.52595 -0.30713,-1.93823 -0.20476,-0.41227 -0.55754,-0.72493 -1.05835,-0.93799 -0.50082,-0.21305 -1.22991,-0.31957 -2.18726,-0.31958 -0.7526,1e-5 -1.59098,0.0775 -2.51513,0.23242 z m 1.68506,3.68555 0,4.96387 -1.58545,0 0,-4.96387 z"
         style="fill:#333333"
         id="path3397"
         inkscape:connector-curvature="0" />
      <path
         d="m 188.27,133.70302 -4.25,0 0,-1.32813 2.66455,0 0,-4.3164 c 0,-0.47591 -0.036,-0.83699 -0.10791,-1.08326 -0.0719,-0.24624 -0.22551,-0.44408 -0.4607,-0.5935 -0.23519,-0.14941 -0.54923,-0.22411 -0.94213,-0.22412 -0.33757,10e-6 -0.63916,0.0277 -0.90479,0.083 l -0.11621,-1.26172 c 0.37077,-0.12174 0.82454,-0.18261 1.36133,-0.18262 0.7526,10e-6 1.32812,0.14112 1.72656,0.42334 0.39843,0.28223 0.66959,0.62948 0.81348,1.04175 0.14387,0.41228 0.21581,0.99471 0.21582,1.74731 z"
         style="fill:#333333"
         id="path3399"
         inkscape:connector-curvature="0" />
      <path
         d="m 172.93015,133.4955 0.27393,-1.18701 c 0.28776,0.0996 0.60042,0.14941 0.93799,0.14941 0.38183,0 0.64469,-0.0844 0.78857,-0.25317 0.14388,-0.16878 0.21582,-0.47453 0.21582,-0.91724 l 0,-5.08008 c -0.47591,1e-5 -1.05973,0.0498 -1.75146,0.14942 l -0.14112,-1.31983 c 1.26172,-0.16047 2.54281,-0.24071 3.84327,-0.24072 1.31705,1e-5 2.32974,0.11069 3.03808,0.33203 0.70833,0.22136 1.24926,0.62672 1.6228,1.21607 0.37353,0.58936 0.5603,1.45679 0.56031,2.60229 l 0,4.75635 -1.58545,0 0,-4.33301 c -1e-5,-0.85774 -0.065,-1.48583 -0.19507,-1.88428 -0.13005,-0.39843 -0.41366,-0.72216 -0.85083,-0.97119 -0.43718,-0.24901 -1.15935,-0.37353 -2.1665,-0.37353 l -0.79688,0.0166 0,5.3374 c 0,0.55339 -0.0512,0.97673 -0.15356,1.27002 -0.10238,0.29329 -0.31544,0.53402 -0.63916,0.72217 -0.32374,0.18815 -0.80657,0.28222 -1.44849,0.28222 -0.52018,0 -1.0376,-0.0913 -1.55225,-0.27392 z"
         style="fill:#333333"
         id="path3401"
         inkscape:connector-curvature="0" />
      <path
         d="m 171.3198,124.89589 0,8.80713 -1.61865,0 0,-8.80713 z"
         style="fill:#333333"
         id="path3403"
         inkscape:connector-curvature="0" />
      <path
         d="m 167.15281,133.70302 -4.25,0 0,-1.32813 2.66455,0 0,-4.3164 c 0,-0.47591 -0.036,-0.83699 -0.10791,-1.08326 -0.0719,-0.24624 -0.22551,-0.44408 -0.46069,-0.5935 -0.23519,-0.14941 -0.54924,-0.22411 -0.94214,-0.22412 -0.33757,10e-6 -0.63916,0.0277 -0.90479,0.083 l -0.11621,-1.26172 c 0.37077,-0.12174 0.82455,-0.18261 1.36133,-0.18262 0.7526,10e-6 1.32812,0.14112 1.72656,0.42334 0.39844,0.28223 0.6696,0.62948 0.81348,1.04175 0.14388,0.41228 0.21582,0.99471 0.21582,1.74731 z"
         style="fill:#333333"
         id="path3405"
         inkscape:connector-curvature="0" />
      <path
         d="m 161.12644,124.89589 0,4.55713 -1.61865,0 0,-4.55713 z"
         style="fill:#333333"
         id="path3407"
         inkscape:connector-curvature="0" />
      <path
         d="m 157.00095,133.70302 -7.68652,0 0,-8.61621 c 1.18424,-0.19368 2.27164,-0.29052 3.26221,-0.29053 1.08463,1e-5 1.95759,0.15911 2.61889,0.47729 0.66129,0.31821 1.12752,0.74293 1.39869,1.27417 0.27115,0.53126 0.40673,1.2728 0.40673,2.22461 z m -1.58544,-1.32813 0,-3.44482 c -1e-5,-0.64746 -0.072,-1.15657 -0.21582,-1.52734 -0.14389,-0.37077 -0.43165,-0.66821 -0.86329,-0.89234 -0.43164,-0.22411 -1.05143,-0.33617 -1.85937,-0.33618 -0.47038,1e-5 -0.9961,0.0387 -1.57715,0.11621 l 0,6.08447 z"
         style="fill:#333333"
         id="path3409"
         inkscape:connector-curvature="0" />
      <path
         d="m 129.61668,125.0536 c 1.00162,-0.17154 1.97558,-0.25731 2.92187,-0.25732 1.83724,1e-5 3.10725,0.34034 3.81006,1.021 0.70279,0.68067 1.05419,1.7238 1.0542,3.12939 l 0,4.75635 -1.58545,0 0,-4.33301 c -1e-5,-0.87988 -0.10238,-1.52595 -0.30713,-1.93823 -0.20476,-0.41227 -0.55754,-0.72493 -1.05835,-0.93799 -0.50082,-0.21305 -1.2299,-0.31957 -2.18725,-0.31958 -0.75261,1e-5 -1.59099,0.0775 -2.51514,0.23242 z m 1.68506,3.68555 0,4.96387 -1.58545,0 0,-4.96387 z"
         style="fill:#333333"
         id="path3411"
         inkscape:connector-curvature="0" />
      <path
         d="m 127.15135,133.70302 -1.58545,0 0,-4.77295 c -1e-5,-0.64746 -0.072,-1.15657 -0.21582,-1.52734 -0.14389,-0.37077 -0.43165,-0.66821 -0.86329,-0.89234 -0.43164,-0.22411 -1.05143,-0.33617 -1.85937,-0.33618 -0.47038,1e-5 -0.9961,0.0387 -1.57715,0.11621 l 0,7.4126 -1.58545,0 0,-8.61621 c 1.18424,-0.19368 2.27165,-0.29052 3.26221,-0.29053 1.08463,1e-5 1.95759,0.15911 2.6189,0.47729 0.66128,0.31821 1.12751,0.74293 1.39868,1.27417 0.27115,0.53126 0.40673,1.2728 0.40674,2.22461 z"
         style="fill:#333333"
         id="path3413"
         inkscape:connector-curvature="0" />
      <path
         d="m 116.89988,124.89589 0,8.80713 -1.61865,0 0,-8.80713 z"
         style="fill:#333333"
         id="path3415"
         inkscape:connector-curvature="0" />
      <path
         d="m 105.71043,125.18642 c 0.95735,-0.29329 1.95898,-0.43994 3.00488,-0.43994 1.28938,0 2.36572,0.37907 3.229,1.1372 0.86328,0.75815 1.29492,1.85662 1.29493,3.29541 -10e-6,1.42221 -0.44272,2.55388 -1.32813,3.39502 -0.88542,0.84115 -2.11947,1.26172 -3.70215,1.26172 -1.0791,0 -1.93131,-0.19645 -2.55664,-0.58935 l 0.38184,-1.31153 c 0.54231,0.34864 1.23128,0.52295 2.06689,0.52295 0.94629,0 1.76115,-0.26977 2.44458,-0.80933 0.68343,-0.53954 1.02514,-1.35164 1.02515,-2.43627 -1e-5,-0.95182 -0.2684,-1.71688 -0.80518,-2.29517 -0.53679,-0.57828 -1.25342,-0.86742 -2.1499,-0.86743 -0.46485,1e-5 -0.92416,0.0526 -1.37793,0.15771 l 0,1.61035 c 0,0.68067 0.34033,1.02101 1.021,1.021 0.27669,1e-5 0.50911,-0.0332 0.69726,-0.0996 l 0.16602,1.15381 c -0.32097,0.13835 -0.6945,0.20752 -1.12061,0.20752 -0.7194,0 -1.28109,-0.19507 -1.68506,-0.58521 -0.40397,-0.39013 -0.60595,-0.96703 -0.60595,-1.73071 z"
         style="fill:#333333"
         id="path3417"
         inkscape:connector-curvature="0" />
      <path
         d="m 95.317849,124.89589 0.0332,1.42773 c 0.0332,1.46648 0.09684,2.48194 0.190918,3.04639 0.586586,0 1.115068,-0.14664 1.585449,-0.43994 0.470373,-0.29329 0.705562,-0.84944 0.705567,-1.66846 l 0.174316,-2.36572 1.59375,0 -0.199218,2.77246 c -0.03321,0.47038 -0.08578,0.82732 -0.157715,1.0708 -0.07195,0.2435 -0.219977,0.50082 -0.444092,0.77197 -0.224127,0.27117 -0.578293,0.50774 -1.0625,0.70972 -0.484217,0.20199 -1.135827,0.33619 -1.954834,0.40259 0.138343,0.59766 0.459306,1.07633 0.962891,1.43603 0.503576,0.35971 1.123367,0.53956 1.859375,0.53955 0.680657,1e-5 1.264478,-0.16186 1.751464,-0.48559 0.48697,-0.32373 0.84667,-0.74154 1.0791,-1.25342 0.23242,-0.51188 0.38737,-1.24096 0.46485,-2.18726 l 0.35693,-3.77685 1.59375,0 -0.29883,3.26221 c -0.11622,1.22298 -0.32374,2.24121 -0.62255,3.05468 -0.29884,0.81348 -0.81764,1.47201 -1.5564,1.97559 -0.73878,0.50358 -1.691987,0.75537 -2.859623,0.75537 -1.034835,0 -1.902266,-0.25041 -2.602295,-0.75122 -0.700035,-0.50081 -1.222984,-1.21606 -1.568848,-2.14575 -0.345867,-0.92969 -0.518799,-2.16927 -0.518798,-3.71875 l -0.116211,-2.43213 z"
         style="fill:#333333"
         id="path3419"
         inkscape:connector-curvature="0" />
      <path
         d="m 91.599099,124.89589 0,4.55713 -1.618652,0 0,-4.55713 z"
         style="fill:#333333"
         id="path3421"
         inkscape:connector-curvature="0" />
      <path
         d="m 78.185037,124.89589 4.880859,0 0,2.19141 c -7e-6,0.61979 -0.05811,1.12199 -0.174316,1.50659 -0.116218,0.3846 -0.318203,0.77336 -0.605957,1.16626 l -0.448243,0.59765 c -0.448247,0.6032 -0.672368,1.24789 -0.672363,1.93409 l 0,1.41113 -1.585449,0 0,-1.18701 c -4e-6,-0.71387 0.07055,-1.25065 0.21167,-1.61036 0.141109,-0.35969 0.347245,-0.71386 0.618408,-1.0625 l 0.498047,-0.63085 c 0.243484,-0.3099 0.399816,-0.58935 0.468994,-0.83838 0.06917,-0.24902 0.103754,-0.56998 0.10376,-0.96289 l 0,-1.18702 -4.872559,0 0,-4.68994 1.577149,0 z"
         style="fill:#333333"
         id="path3423"
         inkscape:connector-curvature="0" />
      <path
         d="m 67.908669,128.57314 -1.361328,-3.67725 1.552246,0 0.647461,1.94238 c 0.260088,-0.56998 0.666826,-1.05281 1.220215,-1.44848 0.553381,-0.39567 1.14827,-0.5935 1.784668,-0.59351 0.675124,1e-5 1.257561,0.17294 1.747315,0.5188 0.489738,0.34587 0.845287,0.85084 1.06665,1.51489 0.221345,0.66407 0.332022,1.66293 0.332031,2.99658 l 0,3.87647 -4.540527,0 0,-1.32813 2.938477,0 0,-2.58154 c -8e-6,-0.97395 -0.03183,-1.68367 -0.09546,-2.12915 -0.06365,-0.44547 -0.226896,-0.80794 -0.489747,-1.0874 -0.262864,-0.27945 -0.593512,-0.41918 -0.991943,-0.41919 -0.619797,10e-6 -1.146896,0.31959 -1.581299,0.95874 -0.434411,0.63916 -0.803796,1.74732 -1.108154,3.32446 l -0.622559,3.26221 -1.60205,0 0.697265,-3.43653 c 0.06641,-0.32649 0.201984,-0.89094 0.406738,-1.69335 z"
         style="fill:#333333"
         id="path3425"
         inkscape:connector-curvature="0" />
      <path
         d="m 64.604959,124.89589 0,8.80713 -1.618653,0 0,-8.80713 z"
         style="fill:#333333"
         id="path3427"
         inkscape:connector-curvature="0" />
      <path
         d="m 60.786599,124.89589 -0.08301,1.58545 c -0.02768,0.52572 -0.08717,0.95044 -0.178466,1.27417 -0.09132,0.32373 -0.283617,0.65715 -0.576905,1.00024 -0.2933,0.34311 -0.76091,0.70004 -1.402832,1.0708 l 1.884278,2.93848 0,0.93799 -6.341797,0 0,-1.32813 4.424316,0 -4.864258,-7.479 1.80127,0 2.44873,3.90967 c 0.415035,-0.30436 0.711096,-0.62947 0.888184,-0.97534 0.177078,-0.34586 0.265619,-0.83699 0.265625,-1.47339 l 0.08301,-1.46094 z"
         style="fill:#333333"
         id="path3429"
         inkscape:connector-curvature="0" />
      <path
         d="m 45.230935,124.9789 c 0.852212,-0.12174 1.635252,-0.18261 2.349121,-0.18262 1.781897,1e-5 3.022862,0.34449 3.722901,1.03345 0.700025,0.68897 1.050041,1.72795 1.050048,3.11694 l 0,4.75635 -1.577148,0 0,-4.33301 c -6e-6,-0.8024 -0.08578,-1.40836 -0.257324,-1.81787 -0.171555,-0.4095 -0.500819,-0.74153 -0.987793,-0.99609 -0.486984,-0.25455 -1.167647,-0.38183 -2.041992,-0.38184 -0.592125,1e-5 -1.300457,0.0554 -2.125,0.16602 z"
         style="fill:#333333"
         id="path3431"
         inkscape:connector-curvature="0" />
      <path
         d="m 43.620584,124.89589 0,4.55713 -1.618653,0 0,-4.55713 z"
         style="fill:#333333"
         id="path3433"
         inkscape:connector-curvature="0" />
      <path
         d="m 27.799294,128.57314 -1.361328,-3.67725 1.552246,0 0.647461,1.94238 c 0.260088,-0.56998 0.666826,-1.05281 1.220215,-1.44848 0.553381,-0.39567 1.14827,-0.5935 1.784668,-0.59351 0.675124,1e-5 1.257561,0.17294 1.747315,0.5188 0.489738,0.34587 0.845287,0.85084 1.06665,1.51489 0.221345,0.66407 0.332022,1.66293 0.332031,2.99658 l 0,3.87647 -4.540527,0 0,-1.32813 2.938477,0 0,-2.58154 c -8e-6,-0.97395 -0.03183,-1.68367 -0.09546,-2.12915 -0.06365,-0.44547 -0.226896,-0.80794 -0.489747,-1.0874 -0.262864,-0.27945 -0.593512,-0.41918 -0.991943,-0.41919 -0.619797,10e-6 -1.146896,0.31959 -1.581299,0.95874 -0.434411,0.63916 -0.803796,1.74732 -1.108154,3.32446 l -0.622559,3.26221 -1.60205,0 0.697265,-3.43653 c 0.0664,-0.32649 0.201984,-0.89094 0.406738,-1.69335 z"
         style="fill:#333333"
         id="path3435"
         inkscape:connector-curvature="0" />
      <path
         d="m 25.392068,126.01649 c -0.846685,10e-6 -1.509363,0.24212 -1.988037,0.72632 -0.478682,0.48422 -0.718021,1.13307 -0.718018,1.94654 -3e-6,0.16048 0.0249,0.47315 0.07471,0.93798 0.143877,1.3392 0.215817,2.29102 0.215821,2.85547 l 0,1.22022 -1.59375,0 0,-1.44434 c -3e-6,-0.58658 -0.05534,-1.4886 -0.166016,-2.70605 -0.03874,-0.4095 -0.05811,-0.74983 -0.05811,-1.021 -10e-7,-0.91308 0.373533,-1.68228 1.120606,-2.30762 l -2.224609,0 0,-1.32812 5.337402,0 z"
         style="fill:#333333"
         id="path3437"
         inkscape:connector-curvature="0" />
      <path
         d="m 17.987771,124.89589 0,8.80713 -1.618652,0 0,-8.80713 z"
         style="fill:#333333"
         id="path3439"
         inkscape:connector-curvature="0" />
      <path
         d="m 13.804177,124.89589 0,12.19385 -1.618652,0 0,-12.19385 z"
         style="fill:#333333"
         id="path3441"
         inkscape:connector-curvature="0" />
    </g>
  </g>
</svg>
