<?xml version="1.0" encoding="UTF-8" standalone="no"?>
<!-- Created with Inkscape (http://www.inkscape.org/) -->

<svg
   xmlns:dc="http://purl.org/dc/elements/1.1/"
   xmlns:cc="http://creativecommons.org/ns#"
   xmlns:rdf="http://www.w3.org/1999/02/22-rdf-syntax-ns#"
   xmlns:svg="http://www.w3.org/2000/svg"
   xmlns="http://www.w3.org/2000/svg"
   xmlns:sodipodi="http://sodipodi.sourceforge.net/DTD/sodipodi-0.dtd"
   xmlns:inkscape="http://www.inkscape.org/namespaces/inkscape"
   width="320"
   height="240"
   viewBox="0 0 744.09449 1052.3622"
   id="svg2"
   version="1.1"
   inkscape:version="0.91 r13725"
   sodipodi:docname="opendata-crowd-icon.svg">
  <defs
     id="defs4" />
  <sodipodi:namedview
     id="base"
     pagecolor="#ffffff"
     bordercolor="#666666"
     borderopacity="1.0"
     inkscape:pageopacity="0.0"
     inkscape:pageshadow="2"
     inkscape:zoom="1.3986978"
     inkscape:cx="216.15272"
     inkscape:cy="40.455828"
     inkscape:document-units="px"
     inkscape:current-layer="layer1"
     showgrid="false"
     inkscape:window-width="1600"
     inkscape:window-height="838"
     inkscape:window-x="-8"
     inkscape:window-y="-8"
     inkscape:window-maximized="1" />
  <metadata
     id="metadata7">
    <rdf:RDF>
      <cc:Work
         rdf:about="">
        <dc:format>image/svg+xml</dc:format>
        <dc:type
           rdf:resource="http://purl.org/dc/dcmitype/StillImage" />
        <dc:title></dc:title>
      </cc:Work>
    </rdf:RDF>
  </metadata>
  <g
     inkscape:label="Calque 1"
     inkscape:groupmode="layer"
     id="layer1">
    <g
       id="g5872"
       style="fill:#999999">
      <g
         style="fill:#999999"
         transform="translate(-246.98702,7.4380248e-5)"
         id="g5783">
        <path
           inkscape:connector-curvature="0"
           style="opacity:1;fill:#999999;fill-opacity:1;fill-rule:evenodd;stroke:none;stroke-width:3;stroke-linecap:round;stroke-linejoin:round;stroke-miterlimit:4;stroke-dasharray:none;stroke-dashoffset:0;stroke-opacity:1"
           d="m 394.16787,597.57899 c -127.33797,0 -229.84796,102.50999 -229.84796,229.84795 l 0,224.93516 459.69591,0 0,-224.93516 c 0,-127.33796 -102.50999,-229.84795 -229.84795,-229.84795 z"
           id="path5785" />
        <circle
           style="opacity:1;fill:#999999;fill-opacity:1;fill-rule:evenodd;stroke:none;stroke-width:3;stroke-linecap:round;stroke-linejoin:round;stroke-miterlimit:4;stroke-dasharray:none;stroke-dashoffset:0;stroke-opacity:1"
           id="circle5787"
           cx="394.16788"
           cy="435.09732"
           r="174.37042" />
        <g
           style="fill:#999999"
           id="g5789"
           transform="matrix(1.0762481,0,0,1.0762481,1761.3585,75.27254)">
          <circle
             r="22.09322"
             cy="334.33255"
             cx="-1327.4045"
             id="circle5791"
             style="opacity:1;fill:#999999;fill-opacity:1;fill-rule:evenodd;stroke:none;stroke-width:3;stroke-linecap:round;stroke-linejoin:round;stroke-miterlimit:4;stroke-dasharray:none;stroke-dashoffset:0;stroke-opacity:1" />
          <circle
             style="opacity:1;fill:#999999;fill-opacity:1;fill-rule:evenodd;stroke:none;stroke-width:3;stroke-linecap:round;stroke-linejoin:round;stroke-miterlimit:4;stroke-dasharray:none;stroke-dashoffset:0;stroke-opacity:1"
             id="circle5793"
             cx="-1213.2562"
             cy="334.33255"
             r="22.09322" />
        </g>
        <path
           id="path5795"
           d="m 337.92657,526.24392 a 72.98298,108.98151 0 0 0 56.22581,39.63374 72.98298,108.98151 0 0 0 56.2568,-39.63374 l -112.48261,0 z"
           style="opacity:1;fill:#999999;fill-opacity:1;fill-rule:evenodd;stroke:none;stroke-width:3;stroke-linecap:round;stroke-linejoin:round;stroke-miterlimit:4;stroke-dasharray:none;stroke-dashoffset:0;stroke-opacity:1"
           inkscape:connector-curvature="0" />
      </g>
      <g
         id="g5767"
         transform="translate(213.85008,7.4380248e-5)"
         style="fill:#999999">
        <path
           id="path5769"
           d="m 394.16787,597.57899 c -127.33797,0 -229.84796,102.50999 -229.84796,229.84795 l 0,224.93516 459.69591,0 0,-224.93516 c 0,-127.33796 -102.50999,-229.84795 -229.84795,-229.84795 z"
           style="opacity:1;fill:#999999;fill-opacity:1;fill-rule:evenodd;stroke:none;stroke-width:3;stroke-linecap:round;stroke-linejoin:round;stroke-miterlimit:4;stroke-dasharray:none;stroke-dashoffset:0;stroke-opacity:1"
           inkscape:connector-curvature="0" />
        <circle
           r="174.37042"
           cy="435.09732"
           cx="394.16788"
           id="circle5771"
           style="opacity:1;fill:#999999;fill-opacity:1;fill-rule:evenodd;stroke:none;stroke-width:3;stroke-linecap:round;stroke-linejoin:round;stroke-miterlimit:4;stroke-dasharray:none;stroke-dashoffset:0;stroke-opacity:1" />
        <g
           transform="matrix(1.0762481,0,0,1.0762481,1761.3585,75.27254)"
           id="g5773"
           style="fill:#999999">
          <circle
             style="opacity:1;fill:#999999;fill-opacity:1;fill-rule:evenodd;stroke:none;stroke-width:3;stroke-linecap:round;stroke-linejoin:round;stroke-miterlimit:4;stroke-dasharray:none;stroke-dashoffset:0;stroke-opacity:1"
             id="circle5775"
             cx="-1327.4045"
             cy="334.33255"
             r="22.09322" />
          <circle
             r="22.09322"
             cy="334.33255"
             cx="-1213.2562"
             id="circle5777"
             style="opacity:1;fill:#999999;fill-opacity:1;fill-rule:evenodd;stroke:none;stroke-width:3;stroke-linecap:round;stroke-linejoin:round;stroke-miterlimit:4;stroke-dasharray:none;stroke-dashoffset:0;stroke-opacity:1" />
        </g>
        <path
           inkscape:connector-curvature="0"
           style="opacity:1;fill:#999999;fill-opacity:1;fill-rule:evenodd;stroke:none;stroke-width:3;stroke-linecap:round;stroke-linejoin:round;stroke-miterlimit:4;stroke-dasharray:none;stroke-dashoffset:0;stroke-opacity:1"
           d="m 337.92657,526.24392 a 72.98298,108.98151 0 0 0 56.22581,39.63374 72.98298,108.98151 0 0 0 56.2568,-39.63374 l -112.48261,0 z"
           id="path5779" />
      </g>
    </g>
    <path
       inkscape:connector-curvature="0"
       style="opacity:1;fill:#00d400;fill-opacity:1;fill-rule:evenodd;stroke:none;stroke-width:3;stroke-linecap:round;stroke-linejoin:round;stroke-miterlimit:4;stroke-dasharray:none;stroke-dashoffset:0;stroke-opacity:1"
       d="m 843.77408,597.57899 c -127.33797,0 -229.84796,102.50999 -229.84796,229.84795 l 0,224.93516 459.69588,0 0,-224.93516 c 0,-127.33796 -102.50996,-229.84795 -229.84792,-229.84795 z"
       id="path5550" />
    <rect
       style="opacity:1;fill:#1a1a1a;fill-opacity:1;fill-rule:evenodd;stroke:none;stroke-width:3;stroke-linecap:round;stroke-linejoin:round;stroke-miterlimit:4;stroke-dasharray:none;stroke-dashoffset:0;stroke-opacity:1"
       id="rect6830"
       width="323.1308"
       height="252.17004"
       x="682.823"
       y="744.16486"
       ry="22.902555" />
    <rect
       ry="20.909485"
       y="762.97455"
       x="703.15277"
       height="214.55066"
       width="282.47119"
       id="rect6834"
       style="opacity:1;fill:#0066ff;fill-opacity:1;fill-rule:evenodd;stroke:none;stroke-width:3;stroke-linecap:round;stroke-linejoin:round;stroke-miterlimit:4;stroke-dasharray:none;stroke-dashoffset:0;stroke-opacity:1"
       rx="20.909485" />
    <g
       id="g6888"
       transform="matrix(0.87155959,0,0,0.87155959,135.10904,-146.80676)"
       style="fill:#f9f9f9">
      <rect
         ry="0"
         y="1102.5214"
         x="830.01074"
         height="53.294086"
         width="53.294086"
         id="rect6865"
         style="opacity:1;fill:#f9f9f9;fill-opacity:1;fill-rule:evenodd;stroke:none;stroke-width:3;stroke-linecap:round;stroke-linejoin:round;stroke-miterlimit:4;stroke-dasharray:none;stroke-dashoffset:0;stroke-opacity:1" />
      <g
         transform="translate(-29.390167,0)"
         id="g6883"
         style="fill:#f9f9f9">
        <rect
           style="opacity:1;fill:#f9f9f9;fill-opacity:1;fill-rule:evenodd;stroke:none;stroke-width:3;stroke-linecap:round;stroke-linejoin:round;stroke-miterlimit:4;stroke-dasharray:none;stroke-dashoffset:0;stroke-opacity:1"
           id="rect6869"
           width="53.294086"
           height="53.294086"
           x="800.62061"
           y="1220.0818"
           ry="0" />
        <rect
           ry="0"
           y="1220.0818"
           x="859.40088"
           height="53.294086"
           width="53.294086"
           id="rect6873"
           style="opacity:1;fill:#f9f9f9;fill-opacity:1;fill-rule:evenodd;stroke:none;stroke-width:3;stroke-linecap:round;stroke-linejoin:round;stroke-miterlimit:4;stroke-dasharray:none;stroke-dashoffset:0;stroke-opacity:1" />
        <rect
           style="opacity:1;fill:#f9f9f9;fill-opacity:1;fill-rule:evenodd;stroke:none;stroke-width:3;stroke-linecap:round;stroke-linejoin:round;stroke-miterlimit:4;stroke-dasharray:none;stroke-dashoffset:0;stroke-opacity:1"
           id="rect6875"
           width="53.294086"
           height="53.294086"
           x="918.18121"
           y="1220.0818"
           ry="0" />
      </g>
      <g
         id="g6879"
         style="fill:#f9f9f9">
        <rect
           ry="0"
           y="1161.3015"
           x="800.62061"
           height="53.294086"
           width="53.294086"
           id="rect6867"
           style="opacity:1;fill:#f9f9f9;fill-opacity:1;fill-rule:evenodd;stroke:none;stroke-width:3;stroke-linecap:round;stroke-linejoin:round;stroke-miterlimit:4;stroke-dasharray:none;stroke-dashoffset:0;stroke-opacity:1" />
        <rect
           style="opacity:1;fill:#f9f9f9;fill-opacity:1;fill-rule:evenodd;stroke:none;stroke-width:3;stroke-linecap:round;stroke-linejoin:round;stroke-miterlimit:4;stroke-dasharray:none;stroke-dashoffset:0;stroke-opacity:1"
           id="rect6877"
           width="53.294086"
           height="53.294086"
           x="859.40088"
           y="1161.3015"
           ry="0" />
      </g>
    </g>
    <rect
       style="opacity:1;fill:none;fill-opacity:1;fill-rule:evenodd;stroke:none;stroke-width:3;stroke-linecap:round;stroke-linejoin:round;stroke-miterlimit:4;stroke-dasharray:none;stroke-dashoffset:0;stroke-opacity:1"
       id="rect4193"
       width="1403.1495"
       height="1052.3622"
       x="-329.52753"
       y="-8.2369397e-006"
       ry="0" />
    <rect
       ry="0"
       y="62.698917"
       x="1244.2155"
       height="1052.3622"
       width="1403.1495"
       id="rect5192"
       style="opacity:1;fill:none;fill-opacity:1;fill-rule:evenodd;stroke:none;stroke-width:3;stroke-linecap:round;stroke-linejoin:round;stroke-miterlimit:4;stroke-dasharray:none;stroke-dashoffset:0;stroke-opacity:1" />
    <g
       transform="matrix(1.0762481,0,0,1.0762481,1567.4957,-17.541724)"
       id="g5194">
      <path
         style="fill:none;fill-rule:evenodd;stroke:#000000;stroke-width:17.53936958;stroke-linecap:butt;stroke-linejoin:miter;stroke-miterlimit:4;stroke-dasharray:none;stroke-opacity:1"
         d="M 237.10249,703.44263 C 92.220377,725.50145 77.612687,587.2226 56.674587,456.735"
         id="path5196"
         inkscape:connector-curvature="0"
         sodipodi:nodetypes="cc" />
      <path
         sodipodi:nodetypes="cc"
         inkscape:connector-curvature="0"
         id="path5199"
         d="M 513.29327,702.09433 C 658.17539,680.03551 672.7831,818.31436 693.72121,948.80197"
         style="fill:none;fill-rule:evenodd;stroke:#000000;stroke-width:17.53936958;stroke-linecap:butt;stroke-linejoin:miter;stroke-miterlimit:4;stroke-dasharray:none;stroke-opacity:1" />
      <path
         inkscape:connector-curvature="0"
         style="opacity:1;fill:#00ccff;fill-opacity:1;fill-rule:evenodd;stroke:none;stroke-width:3;stroke-linecap:round;stroke-linejoin:round;stroke-miterlimit:4;stroke-dasharray:none;stroke-dashoffset:0;stroke-opacity:1"
         d="m 160,143.63086 c -26.98308,0 -48.70508,21.722 -48.70508,48.70508 l 0,47.66406 97.41016,0 0,-47.66406 c 0,-26.98308 -21.722,-48.70508 -48.70508,-48.70508 z"
         transform="matrix(4.3848424,0,0,4.3848424,-329.52754,0)"
         id="path5201" />
      <circle
         style="opacity:1;fill:#ffcc00;fill-opacity:1;fill-rule:evenodd;stroke:none;stroke-width:3;stroke-linecap:round;stroke-linejoin:round;stroke-miterlimit:4;stroke-dasharray:none;stroke-dashoffset:0;stroke-opacity:1"
         id="circle5203"
         cx="372.04724"
         cy="478.82822"
         r="162.01694" />
      <g
         id="g5205"
         transform="translate(1642.3776,144.49567)">
        <circle
           r="22.09322"
           cy="334.33255"
           cx="-1327.4045"
           id="circle5207"
           style="opacity:1;fill:#000000;fill-opacity:1;fill-rule:evenodd;stroke:none;stroke-width:3;stroke-linecap:round;stroke-linejoin:round;stroke-miterlimit:4;stroke-dasharray:none;stroke-dashoffset:0;stroke-opacity:1" />
        <circle
           style="opacity:1;fill:#000000;fill-opacity:1;fill-rule:evenodd;stroke:none;stroke-width:3;stroke-linecap:round;stroke-linejoin:round;stroke-miterlimit:4;stroke-dasharray:none;stroke-dashoffset:0;stroke-opacity:1"
           id="circle5209"
           cx="-1213.2562"
           cy="334.33255"
           r="22.09322" />
      </g>
      <path
         id="path5211"
         d="m 319.79043,563.51744 a 67.812412,101.26058 0 0 0 52.24242,36.82584 67.812412,101.26058 0 0 0 52.27122,-36.82584 l -104.51364,0 z"
         style="opacity:1;fill:#000000;fill-opacity:1;fill-rule:evenodd;stroke:none;stroke-width:3;stroke-linecap:round;stroke-linejoin:round;stroke-miterlimit:4;stroke-dasharray:none;stroke-dashoffset:0;stroke-opacity:1"
         inkscape:connector-curvature="0" />
      <rect
         ry="0"
         y="166.24239"
         x="-327.53098"
         height="295.44266"
         width="548.64832"
         id="rect5213"
         style="opacity:1;fill:#00d400;fill-opacity:1;fill-rule:evenodd;stroke:none;stroke-width:3;stroke-linecap:round;stroke-linejoin:round;stroke-miterlimit:4;stroke-dasharray:none;stroke-dashoffset:0;stroke-opacity:1"
         transform="matrix(0.97145685,-0.23721633,0.23721633,0.97145685,0,0)" />
      <g
         transform="matrix(0.97145685,-0.23721633,0.23721633,0.97145685,0,0)"
         style="font-style:normal;font-variant:normal;font-weight:normal;font-stretch:normal;font-size:141.50888062px;line-height:89.99999762%;font-family:Papyrus;-inkscape-font-specification:Papyrus;letter-spacing:0px;word-spacing:0px;fill:#000000;fill-opacity:1;stroke:none;stroke-width:1px;stroke-linecap:butt;stroke-linejoin:miter;stroke-opacity:1"
         id="g5215">
        <path
           inkscape:connector-curvature="0"
           d="m -173.84869,299.79208 -11.74634,0 0,-101.01854 56.31334,0 0,10.43351 -44.567,0 0,36.96643 41.87225,0 0,10.43352 -41.87225,0 0,43.18508 z"
           style="font-style:normal;font-variant:normal;font-weight:normal;font-stretch:normal;font-family:'Open Sans';-inkscape-font-specification:'Open Sans';text-align:center;text-anchor:middle;fill:#000000"
           id="path5217" />
        <path
           inkscape:connector-curvature="0"
           d="m -79.808856,222.6808 q 5.044017,0 9.051593,0.82915 l -1.589211,10.64081 q -4.698537,-1.03644 -8.291536,-1.03644 -9.189786,0 -15.753918,7.46238 -6.495032,7.46238 -6.495032,18.58686 l 0,40.62852 -11.46996,0 0,-75.72936 9.46617,0 1.31282,14.02652 0.55277,0 q 4.214867,-7.39329 10.157134,-11.40087 5.942268,-4.00757 13.05917,-4.00757 z"
           style="font-style:normal;font-variant:normal;font-weight:normal;font-stretch:normal;font-family:'Open Sans';-inkscape-font-specification:'Open Sans';text-align:center;text-anchor:middle;fill:#000000"
           id="path5219" />
        <path
           inkscape:connector-curvature="0"
           d="m -24.60104,301.17401 q -16.79036,0 -26.532915,-10.22623 -9.673458,-10.22623 -9.673458,-28.39851 0,-18.31048 8.982497,-29.08947 9.051593,-10.779 24.252743,-10.779 14.233803,0 22.5253391,9.39707 8.2915359,9.32798 8.2915359,24.66732 l 0,7.2551 -52.16758,0 q 0.34548,13.33555 6.702324,20.24516 6.425941,6.90962 18.034091,6.90962 12.230016,0 24.18364678,-5.11312 l 0,10.22623 q -6.08045968,2.62565 -11.53905378,3.73119 -5.389499,1.17464 -13.05917,1.17464 z m -3.109326,-68.88885 q -9.120689,0 -14.579284,5.94227 -5.389498,5.94227 -6.356844,16.44488 l 39.5920843,0 q 0,-10.84809 -4.8367293,-16.58307 -4.836729,-5.80408 -13.819227,-5.80408 z"
           style="font-style:normal;font-variant:normal;font-weight:normal;font-stretch:normal;font-family:'Open Sans';-inkscape-font-specification:'Open Sans';text-align:center;text-anchor:middle;fill:#000000"
           id="path5221" />
        <path
           inkscape:connector-curvature="0"
           d="m 54.721318,301.17401 q -16.790361,0 -26.532916,-10.22623 -9.673458,-10.22623 -9.673458,-28.39851 0,-18.31048 8.982497,-29.08947 9.051594,-10.779 24.252743,-10.779 14.233803,0 22.525339,9.39707 8.291536,9.32798 8.291536,24.66732 l 0,7.2551 -52.16758,0 q 0.34548,13.33555 6.702325,20.24516 6.42594,6.90962 18.03409,6.90962 12.230016,0 24.183647,-5.11312 l 0,10.22623 q -6.08046,2.62565 -11.539054,3.73119 -5.389499,1.17464 -13.059169,1.17464 z m -3.109326,-68.88885 q -9.12069,0 -14.579285,5.94227 -5.389498,5.94227 -6.356844,16.44488 l 39.592085,0 q 0,-10.84809 -4.83673,-16.58307 -4.836729,-5.80408 -13.819226,-5.80408 z"
           style="font-style:normal;font-variant:normal;font-weight:normal;font-stretch:normal;font-family:'Open Sans';-inkscape-font-specification:'Open Sans';text-align:center;text-anchor:middle;fill:#000000"
           id="path5223" />
        <path
           inkscape:connector-curvature="0"
           d="m -260.49524,427.15007 0,-101.01854 11.74634,0 0,90.37774 44.56701,0 0,10.6408 -56.31335,0 z"
           style="font-style:normal;font-variant:normal;font-weight:normal;font-stretch:normal;font-family:'Open Sans';-inkscape-font-specification:'Open Sans';text-align:center;text-anchor:middle;fill:#000000"
           id="path5225" />
        <path
           inkscape:connector-curvature="0"
           d="m -177.92536,351.42071 0,49.12735 q 0,9.25888 4.21486,13.81923 4.21487,4.56034 13.19736,4.56034 11.88454,0 17.34313,-6.49503 5.52769,-6.49504 5.52769,-21.21252 l 0,-39.79937 11.46996,0 0,75.72936 -9.46617,0 -1.65831,-10.15713 -0.62186,0 q -3.5239,5.59679 -9.81165,8.56792 -6.21865,2.97114 -14.23381,2.97114 -13.81922,0 -20.72884,-6.56414 -6.84051,-6.56413 -6.84051,-21.00522 l 0,-49.54193 11.60815,0 z"
           style="font-style:normal;font-variant:normal;font-weight:normal;font-stretch:normal;font-family:'Open Sans';-inkscape-font-specification:'Open Sans';text-align:center;text-anchor:middle;fill:#000000"
           id="path5227" />
        <path
           inkscape:connector-curvature="0"
           d="m -50.097507,427.15007 0,-48.98916 q 0,-9.25888 -4.214864,-13.81922 -4.214864,-4.56035 -13.197362,-4.56035 -11.884534,0 -17.412225,6.42594 -5.527691,6.42594 -5.527691,21.21252 l 0,39.73027 -11.469961,0 0,-75.72936 9.327981,0 1.865596,10.36442 0.552769,0 q 3.523903,-5.59679 9.880747,-8.63702 6.356844,-3.10932 14.164707,-3.10932 13.681034,0 20.590648,6.63323 6.909613,6.56413 6.909613,21.07432 l 0,49.40373 -11.469958,0 z"
           style="font-style:normal;font-variant:normal;font-weight:normal;font-stretch:normal;font-family:'Open Sans';-inkscape-font-specification:'Open Sans';text-align:center;text-anchor:middle;fill:#000000"
           id="path5229" />
        <path
           inkscape:connector-curvature="0"
           d="m 15.129228,428.532 q -16.4448793,0 -25.496473,-10.08804 -8.982497,-10.15713 -8.982497,-28.6749 0,-19.00143 9.12069,-29.36585 9.1897853,-10.36442 26.118338,-10.36442 5.458594,0 10.917189,1.17463 5.458594,1.17464 8.56792,2.76385 l -3.523902,9.74255 q -3.800288,-1.52011 -8.291536,-2.48746 -4.491249,-1.03644 -7.946056,-1.03644 -23.0781081,0 -23.0781081,29.43495 0,13.95742 5.5967868,21.4198 5.6658829,7.46239 16.7212643,7.46239 9.46617,0 19.416013,-4.07668 l 0,10.15714 Q 26.668283,428.532 15.129228,428.532 Z"
           style="font-style:normal;font-variant:normal;font-weight:normal;font-stretch:normal;font-family:'Open Sans';-inkscape-font-specification:'Open Sans';text-align:center;text-anchor:middle;fill:#000000"
           id="path5231" />
        <path
           inkscape:connector-curvature="0"
           d="m 104.12506,427.15007 0,-48.98916 q 0,-9.25888 -4.214866,-13.81922 -4.214865,-4.56035 -13.197362,-4.56035 -11.953631,0 -17.481322,6.49504 -5.458594,6.49504 -5.458594,21.28161 l 0,39.59208 -11.469958,0 0,-107.51358 11.469958,0 0,32.54428 q 0,5.87317 -0.552769,9.74255 l 0.690961,0 q 3.385711,-5.45859 9.604363,-8.56792 6.287748,-3.17842 14.302899,-3.17842 13.88832,0 20.79794,6.63323 6.97871,6.56413 6.97871,20.93613 l 0,49.40373 -11.46996,0 z"
           style="font-style:normal;font-variant:normal;font-weight:normal;font-stretch:normal;font-family:'Open Sans';-inkscape-font-specification:'Open Sans';text-align:center;text-anchor:middle;fill:#000000"
           id="path5233" />
        <path
           inkscape:connector-curvature="0"
           d="m 149.45214,399.30433 -7.2551,0 -3.5239,-73.1728 14.3029,0 -3.5239,73.1728 z m -12.02273,20.52155 q 0,-9.39707 8.29154,-9.39707 4.00757,0 6.14955,2.41836 2.21108,2.41837 2.21108,6.97871 0,4.42216 -2.21108,6.90962 -2.21107,2.41836 -6.14955,2.41836 -3.593,0 -5.94227,-2.14198 -2.34927,-2.21108 -2.34927,-7.186 z"
           style="font-style:normal;font-variant:normal;font-weight:normal;font-stretch:normal;font-family:'Open Sans';-inkscape-font-specification:'Open Sans';text-align:center;text-anchor:middle;fill:#000000"
           id="path5235" />
      </g>
      <circle
         r="33.139824"
         cy="460.41721"
         cx="52.992271"
         id="circle5237"
         style="opacity:1;fill:#ffcc00;fill-opacity:1;fill-rule:evenodd;stroke:none;stroke-width:3;stroke-linecap:round;stroke-linejoin:round;stroke-miterlimit:4;stroke-dasharray:none;stroke-dashoffset:0;stroke-opacity:1" />
      <circle
         style="opacity:1;fill:#ffcc00;fill-opacity:1;fill-rule:evenodd;stroke:none;stroke-width:3;stroke-linecap:round;stroke-linejoin:round;stroke-miterlimit:4;stroke-dasharray:none;stroke-dashoffset:0;stroke-opacity:1"
         id="circle5239"
         cx="690.01343"
         cy="939.10358"
         r="33.139824" />
      <text
         sodipodi:linespacing="89.999998%"
         id="text5241"
         y="792.66327"
         x="373.31451"
         style="font-style:normal;font-variant:normal;font-weight:normal;font-stretch:normal;font-size:133.09477234px;line-height:89.99999762%;font-family:Papyrus;-inkscape-font-specification:Papyrus;letter-spacing:0px;word-spacing:0px;fill:#ffffff;fill-opacity:1;stroke:none;stroke-width:1px;stroke-linecap:butt;stroke-linejoin:miter;stroke-opacity:1"
         xml:space="preserve"><tspan
           style="font-style:normal;font-variant:normal;font-weight:normal;font-stretch:normal;font-family:'Open Sans';-inkscape-font-specification:'Open Sans';text-align:center;text-anchor:middle;fill:#ffffff"
           y="792.66327"
           x="390.60126"
           id="tspan5243"
           sodipodi:role="line">I      </tspan><tspan
           style="font-style:normal;font-variant:normal;font-weight:normal;font-stretch:normal;font-family:'Open Sans';-inkscape-font-specification:'Open Sans';text-align:center;text-anchor:middle;fill:#ffffff"
           y="912.44855"
           x="373.31451"
           sodipodi:role="line"
           id="tspan5245">Open</tspan><tspan
           style="font-style:normal;font-variant:normal;font-weight:normal;font-stretch:normal;font-family:'Open Sans';-inkscape-font-specification:'Open Sans';text-align:center;text-anchor:middle;fill:#ffffff"
           id="tspan5247"
           y="1032.2339"
           x="373.31451"
           sodipodi:role="line">Data</tspan></text>
      <g
         transform="matrix(0.2282348,0,0,0.2282348,325.4777,689.87063)"
         id="g5249"
         style="fill:#ff0000">
        <path
           inkscape:connector-curvature="0"
           d="M 297.29747,550.86823 C 283.52243,535.43191 249.1268,505.33855 220.86277,483.99412 137.11867,420.75228 125.72108,411.5999 91.719238,380.29088 29.03471,322.57071 2.413622,264.58086 2.5048478,185.95124 2.5493594,147.56739 5.1656152,132.77929 15.914734,110.15398 34.151433,71.768267 61.014996,43.244667 95.360052,25.799457 119.68545,13.443675 131.6827,7.9542046 172.30448,7.7296236 c 42.49329,-0.234834 51.43863,4.7197234 76.43471,18.4518354 30.42451,16.714318 61.7399,52.435708 68.21323,77.810591 l 3.9981,15.6724 9.85963,-21.584508 c 55.71617,-121.972928 233.59836,-120.148052 295.50229,3.031588 19.63767,39.07605 21.79364,122.51317 4.38012,169.51287 -22.71527,61.30937 -65.38001,108.05053 -164.00634,179.67658 -64.68082,46.97364 -137.88474,118.04586 -142.98067,128.02803 -5.91548,11.58753 -0.28216,1.8159 -26.40808,-27.46078 z"
           id="path5251"
           style="fill:#ff0000" />
        <g
           transform="translate(129.28571,-64.285714)"
           id="g5253"
           style="fill:#ff0000" />
      </g>
      <g
         style="font-style:normal;font-variant:normal;font-weight:normal;font-stretch:normal;font-size:133.09477234px;line-height:89.99999762%;font-family:Papyrus;-inkscape-font-specification:Papyrus;letter-spacing:0px;word-spacing:0px;fill:#ffffff;fill-opacity:1;stroke:none;stroke-width:1px;stroke-linecap:butt;stroke-linejoin:miter;stroke-opacity:1"
         id="g5255">
        <path
           inkscape:connector-curvature="0"
           d="m 281.35694,792.66327 0,-95.01199 11.04791,0 0,95.01199 -11.04791,0 z"
           style="font-style:normal;font-variant:normal;font-weight:normal;font-stretch:normal;font-family:'Open Sans';-inkscape-font-specification:'Open Sans';text-align:center;text-anchor:middle;fill:#ffffff"
           id="path5257" />
        <path
           inkscape:connector-curvature="0"
           d="m 298.05878,864.81259 q 0,22.81068 -11.56781,35.8732 -11.50282,13.06252 -32.03893,13.06252 -20.99102,0 -32.42885,-12.80257 -11.37284,-12.86756 -11.37284,-36.26313 0,-23.2006 11.43783,-35.93818 11.43783,-12.80258 32.49384,-12.80258 20.47112,0 31.97394,12.99754 11.50282,12.99754 11.50282,35.8732 z m -75.71065,0 q 0,19.30134 8.18845,29.30944 8.25343,9.94312 23.91546,9.94312 15.79201,0 23.85048,-9.94312 8.05848,-9.94311 8.05848,-29.30944 0,-19.17137 -8.05848,-29.04949 -7.99348,-9.94312 -23.7205,-9.94312 -15.79201,0 -24.04544,10.0081 -8.18845,9.94312 -8.18845,28.98451 z"
           style="font-style:normal;font-variant:normal;font-weight:normal;font-stretch:normal;font-family:'Open Sans';-inkscape-font-specification:'Open Sans';text-align:center;text-anchor:middle;fill:#ffffff"
           id="path5259" />
        <path
           inkscape:connector-curvature="0"
           d="m 350.82877,913.74831 q -6.95368,0 -12.73758,-2.53451 -5.71892,-2.59951 -9.61818,-7.9285 l -0.77985,0 q 0.77985,6.23882 0.77985,11.82776 l 0,29.30944 -10.78795,0 0,-103.20044 8.77333,0 1.49472,9.74815 0.5199,0 q 4.15921,-5.84889 9.68317,-8.44839 5.52395,-2.59951 12.67259,-2.59951 14.16732,0 21.83586,9.68316 7.73354,9.68317 7.73354,27.16485 0,17.54668 -7.86351,27.29483 -7.79852,9.68316 -21.70589,9.68316 z m -1.5597,-64.66274 q -10.91793,0 -15.79201,6.04386 -4.87407,6.04385 -5.00405,19.23635 l 0,2.40454 q 0,15.01216 5.00405,21.51093 5.00405,6.43378 16.05196,6.43378 9.22825,0 14.42726,-7.47359 5.26401,-7.47358 5.26401,-20.60109 0,-13.32248 -5.26401,-20.40613 -5.19901,-7.14865 -14.68721,-7.14865 z"
           style="font-style:normal;font-variant:normal;font-weight:normal;font-stretch:normal;font-family:'Open Sans';-inkscape-font-specification:'Open Sans';text-align:center;text-anchor:middle;fill:#ffffff"
           id="path5261" />
        <path
           inkscape:connector-curvature="0"
           d="m 429.39888,913.74831 q -15.79201,0 -24.95527,-9.61817 -9.09828,-9.61818 -9.09828,-26.70994 0,-17.22174 8.4484,-27.35981 8.51339,-10.13808 22.81068,-10.13808 13.38746,0 21.18598,8.83832 7.79852,8.77334 7.79852,23.20061 l 0,6.8237 -49.0657,0 q 0.32494,12.54262 6.30381,19.04139 6.04385,6.49877 16.96179,6.49877 11.50281,0 22.74568,-4.80909 l 0,9.61818 q -5.71891,2.46953 -10.85294,3.50933 -5.06904,1.10479 -12.28267,1.10479 z m -2.92445,-64.79271 q -8.57837,0 -13.7124,5.58894 -5.06904,5.58894 -5.97886,15.46706 l 37.23794,0 q 0,-10.20306 -4.54914,-15.59704 -4.54914,-5.45896 -12.99754,-5.45896 z"
           style="font-style:normal;font-variant:normal;font-weight:normal;font-stretch:normal;font-family:'Open Sans';-inkscape-font-specification:'Open Sans';text-align:center;text-anchor:middle;fill:#ffffff"
           id="path5263" />
        <path
           inkscape:connector-curvature="0"
           d="m 522.65619,912.44856 0,-46.07627 q 0,-8.70834 -3.96424,-12.99753 -3.96425,-4.28919 -12.41265,-4.28919 -11.17788,0 -16.3769,6.04386 -5.19901,6.04385 -5.19901,19.95121 l 0,37.36792 -10.78796,0 0,-71.2265 8.77334,0 1.75467,9.74815 0.5199,0 q 3.31437,-5.264 9.29324,-8.12346 5.97886,-2.92444 13.32247,-2.92444 12.86756,0 19.36633,6.23882 6.49877,6.17383 6.49877,19.82124 l 0,46.46619 -10.78796,0 z"
           style="font-style:normal;font-variant:normal;font-weight:normal;font-stretch:normal;font-family:'Open Sans';-inkscape-font-specification:'Open Sans';text-align:center;text-anchor:middle;fill:#ffffff"
           id="path5265" />
        <path
           inkscape:connector-curvature="0"
           d="m 316.12535,983.81803 q 0,23.52557 -12.80257,36.00317 -12.73758,12.4127 -36.71804,12.4127 l -26.32001,0 0,-95.01204 29.11448,0 q 22.1608,0 34.44347,12.28267 12.28267,12.28268 12.28267,34.3135 z m -11.69778,0.38993 q 0,-18.58648 -9.35822,-28.00969 -9.29324,-9.42322 -27.68476,-9.42322 l -16.05195,0 0,75.90565 13.45245,0 q 19.75625,0 29.69937,-9.6832 9.94311,-9.7482 9.94311,-28.78954 z"
           style="font-style:normal;font-variant:normal;font-weight:normal;font-stretch:normal;font-family:'Open Sans';-inkscape-font-specification:'Open Sans';text-align:center;text-anchor:middle;fill:#ffffff"
           id="path5267" />
        <path
           inkscape:connector-curvature="0"
           d="m 379.42336,1032.2339 -2.14459,-10.1381 -0.51991,0 q -5.32899,6.6937 -10.65798,9.0982 -5.264,2.3396 -13.1925,2.3396 -10.59299,0 -16.63684,-5.459 -5.97887,-5.4589 -5.97887,-15.532 0,-21.57593 34.50846,-22.61573 l 12.08771,-0.38992 0,-4.41917 q 0,-8.38341 -3.63931,-12.34766 -3.57432,-4.02923 -11.50282,-4.02923 -8.90331,0 -20.14618,5.45896 l -3.31437,-8.25343 q 5.264,-2.85946 11.50282,-4.48415 6.3038,-1.62469 12.60761,-1.62469 12.73758,0 18.84642,5.65392 6.17383,5.65393 6.17383,18.13157 l 0,48.61083 -7.99348,0 z m -24.37038,-7.6036 q 10.07309,0 15.79201,-5.524 5.7839,-5.5239 5.7839,-15.467 l 0,-6.43381 -10.78796,0.45492 q -12.86756,0.45491 -18.58647,4.02919 -5.65393,3.5094 -5.65393,10.983 0,5.8489 3.50933,8.9033 3.57433,3.0544 9.94312,3.0544 z"
           style="font-style:normal;font-variant:normal;font-weight:normal;font-stretch:normal;font-family:'Open Sans';-inkscape-font-specification:'Open Sans';text-align:center;text-anchor:middle;fill:#ffffff"
           id="path5269" />
        <path
           inkscape:connector-curvature="0"
           d="m 432.71325,1024.6303 q 2.85946,0 5.52396,-0.3899 2.66449,-0.4549 4.2242,-0.9099 l 0,8.2535 q -1.75467,0.8448 -5.19902,1.3647 -3.37936,0.5849 -6.10884,0.5849 -20.66608,0 -20.66608,-21.7709 l 0,-42.37194 -10.20307,0 0,-5.19901 10.20307,-4.48415 4.54913,-15.20712 6.23882,0 0,16.50687 20.66608,0 0,8.38341 -20.66608,0 0,41.91704 q 0,6.4338 3.05442,9.8781 3.05442,3.4444 8.38341,3.4444 z"
           style="font-style:normal;font-variant:normal;font-weight:normal;font-stretch:normal;font-family:'Open Sans';-inkscape-font-specification:'Open Sans';text-align:center;text-anchor:middle;fill:#ffffff"
           id="path5271" />
        <path
           inkscape:connector-curvature="0"
           d="m 500.5604,1032.2339 -2.1446,-10.1381 -0.5199,0 q -5.32899,6.6937 -10.65798,9.0982 -5.264,2.3396 -13.1925,2.3396 -10.59299,0 -16.63684,-5.459 -5.97887,-5.4589 -5.97887,-15.532 0,-21.57593 34.50846,-22.61573 l 12.08771,-0.38992 0,-4.41917 q 0,-8.38341 -3.63931,-12.34766 -3.57432,-4.02923 -11.50282,-4.02923 -8.90331,0 -20.14618,5.45896 l -3.31437,-8.25343 q 5.264,-2.85946 11.50282,-4.48415 6.3038,-1.62469 12.60761,-1.62469 12.73758,0 18.84642,5.65392 6.17383,5.65393 6.17383,18.13157 l 0,48.61083 -7.99348,0 z m -24.37038,-7.6036 q 10.07309,0 15.792,-5.524 5.78391,-5.5239 5.78391,-15.467 l 0,-6.43381 -10.78796,0.45492 q -12.86756,0.45491 -18.58647,4.02919 -5.65393,3.5094 -5.65393,10.983 0,5.8489 3.50933,8.9033 3.57432,3.0544 9.94312,3.0544 z"
           style="font-style:normal;font-variant:normal;font-weight:normal;font-stretch:normal;font-family:'Open Sans';-inkscape-font-specification:'Open Sans';text-align:center;text-anchor:middle;fill:#ffffff"
           id="path5273" />
      </g>
    </g>
    <path
       inkscape:connector-curvature="0"
       style="opacity:1;fill:#00ccff;fill-opacity:1;fill-rule:evenodd;stroke:none;stroke-width:3;stroke-linecap:round;stroke-linejoin:round;stroke-miterlimit:4;stroke-dasharray:none;stroke-dashoffset:0;stroke-opacity:1"
       d="m 1967.9109,660.27792 c -127.338,0 -229.848,102.50999 -229.848,229.84795 l 0,224.93513 459.6959,0 0,-224.93513 c 0,-127.33796 -102.51,-229.84795 -229.8479,-229.84795 z"
       id="path5279" />
    <circle
       style="opacity:1;fill:#ffcc00;fill-opacity:1;fill-rule:evenodd;stroke:none;stroke-width:3;stroke-linecap:round;stroke-linejoin:round;stroke-miterlimit:4;stroke-dasharray:none;stroke-dashoffset:0;stroke-opacity:1"
       id="circle5281"
       cx="1967.9109"
       cy="497.79623"
       r="174.37042" />
    <g
       id="g5283"
       transform="matrix(1.0762481,0,0,1.0762481,3335.1015,137.97147)">
      <circle
         r="22.09322"
         cy="334.33255"
         cx="-1327.4045"
         id="circle5285"
         style="opacity:1;fill:#000000;fill-opacity:1;fill-rule:evenodd;stroke:none;stroke-width:3;stroke-linecap:round;stroke-linejoin:round;stroke-miterlimit:4;stroke-dasharray:none;stroke-dashoffset:0;stroke-opacity:1" />
      <circle
         style="opacity:1;fill:#000000;fill-opacity:1;fill-rule:evenodd;stroke:none;stroke-width:3;stroke-linecap:round;stroke-linejoin:round;stroke-miterlimit:4;stroke-dasharray:none;stroke-dashoffset:0;stroke-opacity:1"
         id="circle5287"
         cx="-1213.2562"
         cy="334.33255"
         r="22.09322" />
    </g>
    <path
       id="path5289"
       d="m 1911.6696,588.94285 a 72.98298,108.98151 0 0 0 56.2258,39.63374 72.98298,108.98151 0 0 0 56.2568,-39.63374 l -112.4826,0 z"
       style="opacity:1;fill:#000000;fill-opacity:1;fill-rule:evenodd;stroke:none;stroke-width:3;stroke-linecap:round;stroke-linejoin:round;stroke-miterlimit:4;stroke-dasharray:none;stroke-dashoffset:0;stroke-opacity:1"
       inkscape:connector-curvature="0" />
    <path
       inkscape:connector-curvature="0"
       id="path5291"
       d="M 1963.912,291.54146 A 190.31091,190.31091 0 0 1 2152.2204,455.9131 211.54764,211.54764 0 0 1 2040.2099,389.42107 211.54764,211.54764 0 0 1 1881.6105,461.37702 211.54764,211.54764 0 0 1 1779.603,435.11935 190.31091,190.31091 0 0 1 1963.912,291.54146 Z"
       style="opacity:1;fill:#2b1100;fill-opacity:1;fill-rule:evenodd;stroke:none;stroke-width:3;stroke-linecap:round;stroke-linejoin:round;stroke-miterlimit:4;stroke-dasharray:none;stroke-dashoffset:0;stroke-opacity:1" />
    <rect
       ry="0"
       y="533.71259"
       x="1174.411"
       height="317.9696"
       width="590.48169"
       id="rect5293"
       style="opacity:1;fill:#00d400;fill-opacity:1;fill-rule:evenodd;stroke:none;stroke-width:3;stroke-linecap:round;stroke-linejoin:round;stroke-miterlimit:4;stroke-dasharray:none;stroke-dashoffset:0;stroke-opacity:1"
       transform="matrix(0.97145685,-0.23721632,0.23721632,0.97145685,0,0)" />
    <g
       transform="matrix(1.0455286,-0.25530362,0.25530362,1.0455286,1567.4957,-17.541724)"
       style="font-style:normal;font-variant:normal;font-weight:normal;font-stretch:normal;font-size:141.50888062px;line-height:89.99999762%;font-family:Papyrus;-inkscape-font-specification:Papyrus;letter-spacing:0px;word-spacing:0px;fill:#000000;fill-opacity:1;stroke:none;stroke-width:1px;stroke-linecap:butt;stroke-linejoin:miter;stroke-opacity:1"
       id="g5295">
      <path
         inkscape:connector-curvature="0"
         d="m -173.84869,299.79208 -11.74634,0 0,-101.01854 56.31334,0 0,10.43351 -44.567,0 0,36.96643 41.87225,0 0,10.43352 -41.87225,0 0,43.18508 z"
         style="font-style:normal;font-variant:normal;font-weight:normal;font-stretch:normal;font-family:'Open Sans';-inkscape-font-specification:'Open Sans';text-align:center;text-anchor:middle;fill:#000000"
         id="path5297" />
      <path
         inkscape:connector-curvature="0"
         d="m -79.808856,222.6808 q 5.044017,0 9.051593,0.82915 l -1.589211,10.64081 q -4.698537,-1.03644 -8.291536,-1.03644 -9.189786,0 -15.753918,7.46238 -6.495032,7.46238 -6.495032,18.58686 l 0,40.62852 -11.46996,0 0,-75.72936 9.46617,0 1.31282,14.02652 0.55277,0 q 4.214867,-7.39329 10.157134,-11.40087 5.942268,-4.00757 13.05917,-4.00757 z"
         style="font-style:normal;font-variant:normal;font-weight:normal;font-stretch:normal;font-family:'Open Sans';-inkscape-font-specification:'Open Sans';text-align:center;text-anchor:middle;fill:#000000"
         id="path5299" />
      <path
         inkscape:connector-curvature="0"
         d="m -24.60104,301.17401 q -16.79036,0 -26.532915,-10.22623 -9.673458,-10.22623 -9.673458,-28.39851 0,-18.31048 8.982497,-29.08947 9.051593,-10.779 24.252743,-10.779 14.233803,0 22.5253391,9.39707 8.2915359,9.32798 8.2915359,24.66732 l 0,7.2551 -52.16758,0 q 0.34548,13.33555 6.702324,20.24516 6.425941,6.90962 18.034091,6.90962 12.230016,0 24.18364678,-5.11312 l 0,10.22623 q -6.08045968,2.62565 -11.53905378,3.73119 -5.389499,1.17464 -13.05917,1.17464 z m -3.109326,-68.88885 q -9.120689,0 -14.579284,5.94227 -5.389498,5.94227 -6.356844,16.44488 l 39.5920843,0 q 0,-10.84809 -4.8367293,-16.58307 -4.836729,-5.80408 -13.819227,-5.80408 z"
         style="font-style:normal;font-variant:normal;font-weight:normal;font-stretch:normal;font-family:'Open Sans';-inkscape-font-specification:'Open Sans';text-align:center;text-anchor:middle;fill:#000000"
         id="path5301" />
      <path
         inkscape:connector-curvature="0"
         d="m 54.721318,301.17401 q -16.790361,0 -26.532916,-10.22623 -9.673458,-10.22623 -9.673458,-28.39851 0,-18.31048 8.982497,-29.08947 9.051594,-10.779 24.252743,-10.779 14.233803,0 22.525339,9.39707 8.291536,9.32798 8.291536,24.66732 l 0,7.2551 -52.16758,0 q 0.34548,13.33555 6.702325,20.24516 6.42594,6.90962 18.03409,6.90962 12.230016,0 24.183647,-5.11312 l 0,10.22623 q -6.08046,2.62565 -11.539054,3.73119 -5.389499,1.17464 -13.059169,1.17464 z m -3.109326,-68.88885 q -9.12069,0 -14.579285,5.94227 -5.389498,5.94227 -6.356844,16.44488 l 39.592085,0 q 0,-10.84809 -4.83673,-16.58307 -4.836729,-5.80408 -13.819226,-5.80408 z"
         style="font-style:normal;font-variant:normal;font-weight:normal;font-stretch:normal;font-family:'Open Sans';-inkscape-font-specification:'Open Sans';text-align:center;text-anchor:middle;fill:#000000"
         id="path5303" />
      <path
         inkscape:connector-curvature="0"
         d="m -260.49524,427.15007 0,-101.01854 11.74634,0 0,90.37774 44.56701,0 0,10.6408 -56.31335,0 z"
         style="font-style:normal;font-variant:normal;font-weight:normal;font-stretch:normal;font-family:'Open Sans';-inkscape-font-specification:'Open Sans';text-align:center;text-anchor:middle;fill:#000000"
         id="path5305" />
      <path
         inkscape:connector-curvature="0"
         d="m -177.92536,351.42071 0,49.12735 q 0,9.25888 4.21486,13.81923 4.21487,4.56034 13.19736,4.56034 11.88454,0 17.34313,-6.49503 5.52769,-6.49504 5.52769,-21.21252 l 0,-39.79937 11.46996,0 0,75.72936 -9.46617,0 -1.65831,-10.15713 -0.62186,0 q -3.5239,5.59679 -9.81165,8.56792 -6.21865,2.97114 -14.23381,2.97114 -13.81922,0 -20.72884,-6.56414 -6.84051,-6.56413 -6.84051,-21.00522 l 0,-49.54193 11.60815,0 z"
         style="font-style:normal;font-variant:normal;font-weight:normal;font-stretch:normal;font-family:'Open Sans';-inkscape-font-specification:'Open Sans';text-align:center;text-anchor:middle;fill:#000000"
         id="path5307" />
      <path
         inkscape:connector-curvature="0"
         d="m -50.097507,427.15007 0,-48.98916 q 0,-9.25888 -4.214864,-13.81922 -4.214864,-4.56035 -13.197362,-4.56035 -11.884534,0 -17.412225,6.42594 -5.527691,6.42594 -5.527691,21.21252 l 0,39.73027 -11.469961,0 0,-75.72936 9.327981,0 1.865596,10.36442 0.552769,0 q 3.523903,-5.59679 9.880747,-8.63702 6.356844,-3.10932 14.164707,-3.10932 13.681034,0 20.590648,6.63323 6.909613,6.56413 6.909613,21.07432 l 0,49.40373 -11.469958,0 z"
         style="font-style:normal;font-variant:normal;font-weight:normal;font-stretch:normal;font-family:'Open Sans';-inkscape-font-specification:'Open Sans';text-align:center;text-anchor:middle;fill:#000000"
         id="path5309" />
      <path
         inkscape:connector-curvature="0"
         d="m 15.129228,428.532 q -16.4448793,0 -25.496473,-10.08804 -8.982497,-10.15713 -8.982497,-28.6749 0,-19.00143 9.12069,-29.36585 9.1897853,-10.36442 26.118338,-10.36442 5.458594,0 10.917189,1.17463 5.458594,1.17464 8.56792,2.76385 l -3.523902,9.74255 q -3.800288,-1.52011 -8.291536,-2.48746 -4.491249,-1.03644 -7.946056,-1.03644 -23.0781081,0 -23.0781081,29.43495 0,13.95742 5.5967868,21.4198 5.6658829,7.46239 16.7212643,7.46239 9.46617,0 19.416013,-4.07668 l 0,10.15714 Q 26.668283,428.532 15.129228,428.532 Z"
         style="font-style:normal;font-variant:normal;font-weight:normal;font-stretch:normal;font-family:'Open Sans';-inkscape-font-specification:'Open Sans';text-align:center;text-anchor:middle;fill:#000000"
         id="path5311" />
      <path
         inkscape:connector-curvature="0"
         d="m 104.12506,427.15007 0,-48.98916 q 0,-9.25888 -4.214866,-13.81922 -4.214865,-4.56035 -13.197362,-4.56035 -11.953631,0 -17.481322,6.49504 -5.458594,6.49504 -5.458594,21.28161 l 0,39.59208 -11.469958,0 0,-107.51358 11.469958,0 0,32.54428 q 0,5.87317 -0.552769,9.74255 l 0.690961,0 q 3.385711,-5.45859 9.604363,-8.56792 6.287748,-3.17842 14.302899,-3.17842 13.88832,0 20.79794,6.63323 6.97871,6.56413 6.97871,20.93613 l 0,49.40373 -11.46996,0 z"
         style="font-style:normal;font-variant:normal;font-weight:normal;font-stretch:normal;font-family:'Open Sans';-inkscape-font-specification:'Open Sans';text-align:center;text-anchor:middle;fill:#000000"
         id="path5313" />
      <path
         inkscape:connector-curvature="0"
         d="m 149.45214,399.30433 -7.2551,0 -3.5239,-73.1728 14.3029,0 -3.5239,73.1728 z m -12.02273,20.52155 q 0,-9.39707 8.29154,-9.39707 4.00757,0 6.14955,2.41836 2.21108,2.41837 2.21108,6.97871 0,4.42216 -2.21108,6.90962 -2.21107,2.41836 -6.14955,2.41836 -3.593,0 -5.94227,-2.14198 -2.34927,-2.21108 -2.34927,-7.186 z"
         style="font-style:normal;font-variant:normal;font-weight:normal;font-stretch:normal;font-family:'Open Sans';-inkscape-font-specification:'Open Sans';text-align:center;text-anchor:middle;fill:#000000"
         id="path5315" />
    </g>
    <g
       id="g5801">
      <path
         style="fill:none;fill-rule:evenodd;stroke:#000000;stroke-width:18.8767128;stroke-linecap:butt;stroke-linejoin:miter;stroke-miterlimit:4;stroke-dasharray:none;stroke-opacity:1"
         d="m 2119.9266,738.08597 c 155.9291,-23.74076 171.6507,125.08159 194.1853,265.51863"
         id="path5277"
         inkscape:connector-curvature="0"
         sodipodi:nodetypes="cc" />
      <circle
         r="35.666672"
         cy="993.16669"
         cx="2310.1213"
         id="circle5319"
         style="opacity:1;fill:#ffcc00;fill-opacity:1;fill-rule:evenodd;stroke:none;stroke-width:3;stroke-linecap:round;stroke-linejoin:round;stroke-miterlimit:4;stroke-dasharray:none;stroke-dashoffset:0;stroke-opacity:1" />
    </g>
    <g
       id="g5321"
       style="font-style:normal;font-variant:normal;font-weight:normal;font-stretch:normal;font-size:143.24299622px;line-height:89.99999762%;font-family:Papyrus;-inkscape-font-specification:Papyrus;letter-spacing:0px;word-spacing:0px;fill:#ffffff;fill-opacity:1;stroke:none;stroke-width:1px;stroke-linecap:butt;stroke-linejoin:miter;stroke-opacity:1"
       transform="translate(1573.743,62.698926)">
      <path
         inkscape:connector-curvature="0"
         id="path5323"
         style="font-style:normal;font-variant:normal;font-weight:normal;font-stretch:normal;font-family:'Open Sans';-inkscape-font-specification:'Open Sans';text-align:center;text-anchor:middle;fill:#ffffff"
         d="m 296.56261,772.86169 0,-102.25647 11.89029,0 0,102.25647 -11.89029,0 z" />
      <path
         inkscape:connector-curvature="0"
         id="path5325"
         style="font-style:normal;font-variant:normal;font-weight:normal;font-stretch:normal;font-family:'Open Sans';-inkscape-font-specification:'Open Sans';text-align:center;text-anchor:middle;fill:#ffffff"
         d="m 314.53793,850.51226 q 0,24.54995 -12.44983,38.60847 -12.37989,14.05851 -34.48184,14.05851 -22.59155,0 -34.90149,-13.77874 -12.24,-13.84869 -12.24,-39.02812 0,-24.96961 12.30994,-38.67841 12.30995,-13.77874 34.97144,-13.77874 22.032,0 34.41189,13.98857 12.37989,13.98857 12.37989,38.60846 z m -81.48345,0 q 0,20.77304 8.81281,31.54424 8.88274,10.70126 25.73897,10.70126 16.99612,0 25.66903,-10.70126 8.67292,-10.70126 8.67292,-31.54424 0,-20.63314 -8.67292,-31.26446 -8.60297,-10.70126 -25.52914,-10.70126 -16.99612,0 -25.87886,10.7712 -8.81281,10.70126 -8.81281,31.19452 z" />
      <path
         inkscape:connector-curvature="0"
         id="path5327"
         style="font-style:normal;font-variant:normal;font-weight:normal;font-stretch:normal;font-family:'Open Sans';-inkscape-font-specification:'Open Sans';text-align:center;text-anchor:middle;fill:#ffffff"
         d="m 371.33154,903.17924 q -7.48389,0 -13.7088,-2.72777 -6.15498,-2.79771 -10.35155,-8.53303 l -0.83931,0 q 0.83931,6.71452 0.83931,12.72961 l 0,31.54423 -11.61051,0 0,-111.06928 9.44228,0 1.60869,10.49143 0.55954,0 q 4.47635,-6.29486 10.42149,-9.09257 5.94514,-2.79771 13.63886,-2.79771 15.24754,0 23.5008,10.42148 8.3232,10.42149 8.3232,29.23612 0,18.88458 -8.46308,29.37601 -8.39315,10.42148 -23.36092,10.42148 z m -1.67863,-69.59315 q -11.7504,0 -16.99612,6.50469 -5.24571,6.50468 -5.3856,20.70309 l 0,2.58788 q 0,16.15681 5.3856,23.15109 5.3856,6.92435 17.27589,6.92435 9.93189,0 15.52732,-8.04343 5.66537,-8.04343 5.66537,-22.17189 0,-14.33829 -5.66537,-21.96206 -5.59543,-7.69372 -15.80709,-7.69372 z" />
      <path
         inkscape:connector-curvature="0"
         id="path5329"
         style="font-style:normal;font-variant:normal;font-weight:normal;font-stretch:normal;font-family:'Open Sans';-inkscape-font-specification:'Open Sans';text-align:center;text-anchor:middle;fill:#ffffff"
         d="m 455.89247,903.17924 q -16.99612,0 -26.85806,-10.35154 -9.79201,-10.35154 -9.79201,-28.74652 0,-18.53486 9.09258,-29.44595 9.16251,-10.91108 24.54994,-10.91108 14.40824,0 22.80138,9.51223 8.39314,9.44228 8.39314,24.9696 l 0,7.344 -52.80686,0 q 0.34971,13.49898 6.78446,20.49326 6.50468,6.99429 18.25509,6.99429 12.37988,0 24.48,-5.17577 l 0,10.35154 q -6.15497,2.65783 -11.68046,3.77692 -5.45554,1.18902 -13.2192,1.18902 z m -3.14743,-69.73304 q -9.23246,0 -14.75795,6.01509 -5.45554,6.01509 -6.43474,16.6464 l 40.07726,0 q 0,-10.98103 -4.896,-16.78628 -4.896,-5.87521 -13.98857,-5.87521 z" />
      <path
         inkscape:connector-curvature="0"
         id="path5331"
         style="font-style:normal;font-variant:normal;font-weight:normal;font-stretch:normal;font-family:'Open Sans';-inkscape-font-specification:'Open Sans';text-align:center;text-anchor:middle;fill:#ffffff"
         d="m 556.26049,901.78039 0,-49.5895 q 0,-9.37234 -4.26652,-13.98857 -4.26651,-4.61623 -13.35908,-4.61623 -12.03018,0 -17.62561,6.50469 -5.59543,6.50468 -5.59543,21.47246 l 0,40.21715 -11.61051,0 0,-76.65739 9.44229,0 1.88845,10.49143 0.55955,0 q 3.56708,-5.66537 10.00183,-8.74286 6.43474,-3.14742 14.33828,-3.14742 13.84869,0 20.84298,6.71451 6.99429,6.64457 6.99429,21.33258 l 0,50.00915 -11.61052,0 z" />
      <path
         inkscape:connector-curvature="0"
         id="path5333"
         style="font-style:normal;font-variant:normal;font-weight:normal;font-stretch:normal;font-family:'Open Sans';-inkscape-font-specification:'Open Sans';text-align:center;text-anchor:middle;fill:#ffffff"
         d="m 333.98204,978.59164 q 0,25.31936 -13.77874,38.74836 -13.7088,13.3591 -39.51772,13.3591 l -28.32686,0 0,-102.25649 31.3344,0 q 23.85052,0 37.06972,13.2192 13.2192,13.2192 13.2192,36.92983 z m -12.58971,0.41966 q 0,-20.00366 -10.07178,-30.14538 -10.00183,-10.14171 -29.79566,-10.14171 l -17.27589,0 0,81.69329 14.47818,0 q 21.26263,0 31.96389,-10.4215 10.70126,-10.49144 10.70126,-30.9847 z" />
      <path
         inkscape:connector-curvature="0"
         id="path5335"
         style="font-style:normal;font-variant:normal;font-weight:normal;font-stretch:normal;font-family:'Open Sans';-inkscape-font-specification:'Open Sans';text-align:center;text-anchor:middle;fill:#ffffff"
         d="m 402.1064,1030.6991 -2.30812,-10.9111 -0.55954,0 q -5.73532,7.2041 -11.47063,9.792 -5.66537,2.5179 -14.1984,2.5179 -11.40069,0 -17.90538,-5.8752 -6.43474,-5.8752 -6.43474,-16.7163 0,-23.22104 37.13966,-24.34013 l 13.00937,-0.41965 0,-4.75612 q 0,-9.02263 -3.9168,-13.28914 -3.84685,-4.33646 -12.37988,-4.33646 -9.58218,0 -21.68229,5.8752 l -3.56709,-8.88275 q 5.66537,-3.07748 12.37989,-4.82605 6.78446,-1.74858 13.56892,-1.74858 13.7088,0 20.28343,6.08503 6.64457,6.08503 6.64457,19.51406 l 0,52.31729 -8.60297,0 z m -26.22858,-8.1833 q 10.84115,0 16.99612,-5.9452 6.22491,-5.9451 6.22491,-16.64638 l 0,-6.92435 -11.61051,0.4896 q -13.84869,0.4896 -20.00366,4.33646 -6.08503,3.77687 -6.08503,11.82037 0,6.2948 3.77691,9.5822 3.84686,3.2873 10.70126,3.2873 z" />
      <path
         inkscape:connector-curvature="0"
         id="path5337"
         style="font-style:normal;font-variant:normal;font-weight:normal;font-stretch:normal;font-family:'Open Sans';-inkscape-font-specification:'Open Sans';text-align:center;text-anchor:middle;fill:#ffffff"
         d="m 459.45955,1022.5158 q 3.07749,0 5.94514,-0.4197 2.86766,-0.4896 4.54629,-0.9792 l 0,8.8828 q -1.88846,0.9092 -5.59543,1.4688 -3.63703,0.6294 -6.57463,0.6294 -22.24183,0 -22.24183,-23.4308 l 0,-45.60277 -10.98103,0 0,-5.59543 10.98103,-4.82606 4.896,-16.36663 6.71451,0 0,17.76549 22.24184,0 0,9.02263 -22.24184,0 0,45.11317 q 0,6.9243 3.28732,10.6313 3.28731,3.707 9.02263,3.707 z" />
      <path
         inkscape:connector-curvature="0"
         id="path5339"
         style="font-style:normal;font-variant:normal;font-weight:normal;font-stretch:normal;font-family:'Open Sans';-inkscape-font-specification:'Open Sans';text-align:center;text-anchor:middle;fill:#ffffff"
         d="m 532.47991,1030.6991 -2.30812,-10.9111 -0.55954,0 q -5.73531,7.2041 -11.47063,9.792 -5.66537,2.5179 -14.1984,2.5179 -11.40069,0 -17.90538,-5.8752 -6.43474,-5.8752 -6.43474,-16.7163 0,-23.22104 37.13966,-24.34013 l 13.00938,-0.41965 0,-4.75612 q 0,-9.02263 -3.9168,-13.28914 -3.84686,-4.33646 -12.37989,-4.33646 -9.58217,0 -21.68229,5.8752 l -3.56709,-8.88275 q 5.66538,-3.07748 12.37989,-4.82605 6.78446,-1.74858 13.56892,-1.74858 13.7088,0 20.28343,6.08503 6.64457,6.08503 6.64457,19.51406 l 0,52.31729 -8.60297,0 z m -26.22858,-8.1833 q 10.84115,0 16.99612,-5.9452 6.22492,-5.9451 6.22492,-16.64638 l 0,-6.92435 -11.61052,0.4896 q -13.84869,0.4896 -20.00366,4.33646 -6.08503,3.77687 -6.08503,11.82037 0,6.2948 3.77691,9.5822 3.84686,3.2873 10.70126,3.2873 z" />
    </g>
    <g
       transform="matrix(0.24563727,0,0,0.24563727,1917.7905,724.93023)"
       id="g5341"
       style="fill:#ff0000">
      <path
         inkscape:connector-curvature="0"
         d="M 297.29747,550.86823 C 283.52243,535.43191 249.1268,505.33855 220.86277,483.99412 137.11867,420.75228 125.72108,411.5999 91.719238,380.29088 29.03471,322.57071 2.413622,264.58086 2.5048478,185.95124 2.5493594,147.56739 5.1656152,132.77929 15.914734,110.15398 34.151433,71.768267 61.014996,43.244667 95.360052,25.799457 119.68545,13.443675 131.6827,7.9542046 172.30448,7.7296236 c 42.49329,-0.234834 51.43863,4.7197234 76.43471,18.4518354 30.42451,16.714318 61.7399,52.435708 68.21323,77.810591 l 3.9981,15.6724 9.85963,-21.584508 c 55.71617,-121.972928 233.59836,-120.148052 295.50229,3.031588 19.63767,39.07605 21.79364,122.51317 4.38012,169.51287 -22.71527,61.30937 -65.38001,108.05053 -164.00634,179.67658 -64.68082,46.97364 -137.88474,118.04586 -142.98067,128.02803 -5.91548,11.58753 -0.28216,1.8159 -26.40808,-27.46078 z"
         id="path5343"
         style="fill:#ff0000" />
      <g
         transform="translate(129.28571,-64.285714)"
         id="g5345"
         style="fill:#ff0000" />
    </g>
    <g
       transform="matrix(-1,0,0,1,2911.3679,915.40431)"
       id="g5866">
      <path
         style="fill:none;fill-rule:evenodd;stroke:#000000;stroke-width:18.8767128;stroke-linecap:butt;stroke-linejoin:miter;stroke-miterlimit:4;stroke-dasharray:none;stroke-opacity:1"
         d="M 1822.6768,739.53707 C 1666.7477,763.27784 1651.0262,614.45549 1628.4916,474.01846"
         id="path5868"
         inkscape:connector-curvature="0"
         sodipodi:nodetypes="cc" />
      <circle
         r="35.666672"
         cy="477.98141"
         cx="1624.5286"
         id="circle5870"
         style="opacity:1;fill:#ffcc00;fill-opacity:1;fill-rule:evenodd;stroke:none;stroke-width:3;stroke-linecap:round;stroke-linejoin:round;stroke-miterlimit:4;stroke-dasharray:none;stroke-dashoffset:0;stroke-opacity:1" />
    </g>
    <g
       transform="matrix(0.6518437,0,0,0.6518437,1494.4535,242.20641)"
       id="g4417">
      <rect
         style="opacity:1;fill:#ff0000;fill-opacity:1;fill-rule:evenodd;stroke:none;stroke-width:3;stroke-linecap:round;stroke-linejoin:round;stroke-miterlimit:4;stroke-dasharray:none;stroke-dashoffset:0;stroke-opacity:1"
         id="rect4321"
         width="55.984013"
         height="119.27029"
         x="-1157.3344"
         y="813.15784"
         ry="20.471766" />
      <rect
         ry="42.804604"
         y="856.41821"
         x="-1187.8711"
         height="249.38335"
         width="117.05749"
         id="rect4319"
         style="opacity:1;fill:#280b0b;fill-opacity:1;fill-rule:evenodd;stroke:none;stroke-width:3;stroke-linecap:round;stroke-linejoin:round;stroke-miterlimit:4;stroke-dasharray:none;stroke-dashoffset:0;stroke-opacity:1" />
      <path
         id="rect4327"
         d="m -1187.869,920.03759 0,122.14181 117.0547,0 0,-122.14181 -117.0547,0 z"
         style="opacity:1;fill:#ff0000;fill-opacity:1;fill-rule:evenodd;stroke:none;stroke-width:3;stroke-linecap:round;stroke-linejoin:round;stroke-miterlimit:4;stroke-dasharray:none;stroke-dashoffset:0;stroke-opacity:1"
         inkscape:connector-curvature="0" />
    </g>
    <path
       style="opacity:1;fill:#ffffff;fill-opacity:0.24705882;fill-rule:evenodd;stroke:none;stroke-width:3;stroke-linecap:round;stroke-linejoin:round;stroke-miterlimit:4;stroke-dasharray:none;stroke-dashoffset:0;stroke-opacity:1"
       d="M 237.47656 174.92383 C 236.28845 175.78945 235.51172 177.18251 235.51172 178.77148 L 235.51172 218.16406 C 235.51172 220.80586 237.6375 222.93359 240.2793 222.93359 L 295.16211 222.93359 C 296.16579 222.93359 297.09276 222.62324 297.85938 222.09766 L 237.47656 174.92383 z "
       id="rect4478"
       transform="matrix(4.3848424,0,0,4.3848424,-329.52754,0)" />
    <g
       id="g5947"
       transform="translate(471.73025,266.47043)">
      <path
         style="opacity:1;fill:#ff6600;fill-opacity:1;fill-rule:evenodd;stroke:none;stroke-width:3;stroke-linecap:round;stroke-linejoin:round;stroke-miterlimit:4;stroke-dasharray:none;stroke-dashoffset:0;stroke-opacity:1"
         d="m -233.21696,249.88785 a 174.37042,174.37042 0 0 0 -69.36556,140.89382 174.37042,174.37042 0 0 0 154.60658,-27.53621 174.37042,174.37042 0 0 0 69.365565,-140.89382 174.37042,174.37042 0 0 0 -154.606585,27.53621 z"
         id="path5949"
         inkscape:connector-curvature="0" />
      <path
         inkscape:connector-curvature="0"
         id="path5951"
         d="M 33.850945,249.88785 A 174.37042,174.37042 0 0 1 103.21651,390.78167 174.37042,174.37042 0 0 1 -51.390075,363.24546 174.37042,174.37042 0 0 1 -120.75564,222.35164 174.37042,174.37042 0 0 1 33.850945,249.88785 Z"
         style="opacity:1;fill:#ff6600;fill-opacity:1;fill-rule:evenodd;stroke:none;stroke-width:3;stroke-linecap:round;stroke-linejoin:round;stroke-miterlimit:4;stroke-dasharray:none;stroke-dashoffset:0;stroke-opacity:1" />
    </g>
    <path
       id="path5564"
       d="m -99.67958,597.57899 c -127.33797,0 -229.84796,102.50999 -229.84796,229.84795 l 0,224.93516 459.69591,0 0,-224.93516 c 0,-127.33796 -102.50999,-229.84795 -229.84795,-229.84795 z"
       style="opacity:1;fill:#ff0000;fill-opacity:1;fill-rule:evenodd;stroke:none;stroke-width:3;stroke-linecap:round;stroke-linejoin:round;stroke-miterlimit:4;stroke-dasharray:none;stroke-dashoffset:0;stroke-opacity:1"
       inkscape:connector-curvature="0" />
    <circle
       r="174.37042"
       cy="435.09732"
       cx="-99.679573"
       id="circle5566"
       style="opacity:1;fill:#ffcc00;fill-opacity:1;fill-rule:evenodd;stroke:none;stroke-width:3;stroke-linecap:round;stroke-linejoin:round;stroke-miterlimit:4;stroke-dasharray:none;stroke-dashoffset:0;stroke-opacity:1" />
    <g
       transform="matrix(1.0762481,0,0,1.0762481,1267.5111,75.27254)"
       id="g5568">
      <circle
         style="opacity:1;fill:#000000;fill-opacity:1;fill-rule:evenodd;stroke:none;stroke-width:3;stroke-linecap:round;stroke-linejoin:round;stroke-miterlimit:4;stroke-dasharray:none;stroke-dashoffset:0;stroke-opacity:1"
         id="circle5570"
         cx="-1327.4045"
         cy="334.33255"
         r="22.09322" />
      <circle
         r="22.09322"
         cy="334.33255"
         cx="-1213.2562"
         id="circle5572"
         style="opacity:1;fill:#000000;fill-opacity:1;fill-rule:evenodd;stroke:none;stroke-width:3;stroke-linecap:round;stroke-linejoin:round;stroke-miterlimit:4;stroke-dasharray:none;stroke-dashoffset:0;stroke-opacity:1" />
    </g>
    <path
       inkscape:connector-curvature="0"
       style="opacity:1;fill:#000000;fill-opacity:1;fill-rule:evenodd;stroke:none;stroke-width:3;stroke-linecap:round;stroke-linejoin:round;stroke-miterlimit:4;stroke-dasharray:none;stroke-dashoffset:0;stroke-opacity:1"
       d="m -155.92088,526.24392 a 72.98298,108.98151 0 0 0 56.22581,39.63374 72.98298,108.98151 0 0 0 56.2568,-39.63374 l -112.48261,0 z"
       id="path5574" />
    <path
       inkscape:connector-curvature="0"
       style="opacity:1;fill:#00ccff;fill-opacity:1;fill-rule:evenodd;stroke:none;stroke-width:3;stroke-linecap:round;stroke-linejoin:round;stroke-miterlimit:4;stroke-dasharray:none;stroke-dashoffset:0;stroke-opacity:1"
       d="m 372.04725,597.57899 c -127.33797,0 -229.84796,102.50999 -229.84796,229.84795 l 0,224.93516 459.69591,0 0,-224.93516 c 0,-127.33796 -102.50999,-229.84795 -229.84795,-229.84795 z"
       id="rect8544" />
    <circle
       style="opacity:1;fill:#ffcc00;fill-opacity:1;fill-rule:evenodd;stroke:none;stroke-width:3;stroke-linecap:round;stroke-linejoin:round;stroke-miterlimit:4;stroke-dasharray:none;stroke-dashoffset:0;stroke-opacity:1"
       id="path8542"
       cx="372.04727"
       cy="435.09732"
       r="174.37042" />
    <g
       id="g8559"
       transform="matrix(1.0762481,0,0,1.0762481,1739.2379,75.27254)">
      <circle
         r="22.09322"
         cy="334.33255"
         cx="-1327.4045"
         id="path8548"
         style="opacity:1;fill:#000000;fill-opacity:1;fill-rule:evenodd;stroke:none;stroke-width:3;stroke-linecap:round;stroke-linejoin:round;stroke-miterlimit:4;stroke-dasharray:none;stroke-dashoffset:0;stroke-opacity:1" />
      <circle
         style="opacity:1;fill:#000000;fill-opacity:1;fill-rule:evenodd;stroke:none;stroke-width:3;stroke-linecap:round;stroke-linejoin:round;stroke-miterlimit:4;stroke-dasharray:none;stroke-dashoffset:0;stroke-opacity:1"
         id="circle8550"
         cx="-1213.2562"
         cy="334.33255"
         r="22.09322" />
    </g>
    <path
       id="path8557"
       d="m 315.80595,526.24392 a 72.98298,108.98151 0 0 0 56.22581,39.63374 72.98298,108.98151 0 0 0 56.2568,-39.63374 l -112.48261,0 z"
       style="opacity:1;fill:#000000;fill-opacity:1;fill-rule:evenodd;stroke:none;stroke-width:3;stroke-linecap:round;stroke-linejoin:round;stroke-miterlimit:4;stroke-dasharray:none;stroke-dashoffset:0;stroke-opacity:1"
       inkscape:connector-curvature="0" />
    <text
       sodipodi:linespacing="89.999998%"
       id="text4161"
       y="772.86169"
       x="373.41116"
       style="font-style:normal;font-variant:normal;font-weight:normal;font-stretch:normal;font-size:143.24299622px;line-height:89.99999762%;font-family:Papyrus;-inkscape-font-specification:Papyrus;letter-spacing:0px;word-spacing:0px;fill:#ffffff;fill-opacity:1;stroke:none;stroke-width:1px;stroke-linecap:butt;stroke-linejoin:miter;stroke-opacity:1"
       xml:space="preserve"><tspan
         style="font-style:normal;font-variant:normal;font-weight:normal;font-stretch:normal;font-family:'Open Sans';-inkscape-font-specification:'Open Sans';text-align:center;text-anchor:middle;fill:#ffffff"
         y="772.86169"
         x="392.01596"
         id="tspan4163"
         sodipodi:role="line">I      </tspan><tspan
         style="font-style:normal;font-variant:normal;font-weight:normal;font-stretch:normal;font-family:'Open Sans';-inkscape-font-specification:'Open Sans';text-align:center;text-anchor:middle;fill:#ffffff"
         y="901.7804"
         x="373.41116"
         sodipodi:role="line"
         id="tspan4167">Open</tspan><tspan
         style="font-style:normal;font-variant:normal;font-weight:normal;font-stretch:normal;font-family:'Open Sans';-inkscape-font-specification:'Open Sans';text-align:center;text-anchor:middle;fill:#ffffff"
         id="tspan4165"
         y="1030.6991"
         x="373.41116"
         sodipodi:role="line">Data</tspan></text>
    <g
       transform="matrix(0.24563727,0,0,0.24563727,321.92687,662.2313)"
       id="layer1-6"
       style="fill:#ff0000">
      <path
         inkscape:connector-curvature="0"
         d="M 297.29747,550.86823 C 283.52243,535.43191 249.1268,505.33855 220.86277,483.99412 137.11867,420.75228 125.72108,411.5999 91.719238,380.29088 29.03471,322.57071 2.413622,264.58086 2.5048478,185.95124 2.5493594,147.56739 5.1656152,132.77929 15.914734,110.15398 34.151433,71.768267 61.014996,43.244667 95.360052,25.799457 119.68545,13.443675 131.6827,7.9542046 172.30448,7.7296236 c 42.49329,-0.234834 51.43863,4.7197234 76.43471,18.4518354 30.42451,16.714318 61.7399,52.435708 68.21323,77.810591 l 3.9981,15.6724 9.85963,-21.584508 c 55.71617,-121.972928 233.59836,-120.148052 295.50229,3.031588 19.63767,39.07605 21.79364,122.51317 4.38012,169.51287 -22.71527,61.30937 -65.38001,108.05053 -164.00634,179.67658 -64.68082,46.97364 -137.88474,118.04586 -142.98067,128.02803 -5.91548,11.58753 -0.28216,1.8159 -26.40808,-27.46078 z"
         id="path2417"
         style="fill:#ff0000" />
      <g
         transform="translate(129.28571,-64.285714)"
         id="g2221"
         style="fill:#ff0000" />
    </g>
    <g
       style="font-style:normal;font-variant:normal;font-weight:normal;font-stretch:normal;font-size:133.09477234px;line-height:89.99999762%;font-family:Papyrus;-inkscape-font-specification:Papyrus;letter-spacing:0px;word-spacing:0px;fill:#ffffff;fill-opacity:1;stroke:none;stroke-width:1px;stroke-linecap:butt;stroke-linejoin:miter;stroke-opacity:1"
       id="text5116"
       transform="matrix(1.0762481,0,0,1.0762481,-28.367889,-80.24065)">
      <path
         inkscape:connector-curvature="0"
         d="m 281.35694,792.66327 0,-95.01199 11.04791,0 0,95.01199 -11.04791,0 z"
         style="font-style:normal;font-variant:normal;font-weight:normal;font-stretch:normal;font-family:'Open Sans';-inkscape-font-specification:'Open Sans';text-align:center;text-anchor:middle;fill:#ffffff"
         id="path5179" />
      <path
         inkscape:connector-curvature="0"
         d="m 298.05878,864.81259 q 0,22.81068 -11.56781,35.8732 -11.50282,13.06252 -32.03893,13.06252 -20.99102,0 -32.42885,-12.80257 -11.37284,-12.86756 -11.37284,-36.26313 0,-23.2006 11.43783,-35.93818 11.43783,-12.80258 32.49384,-12.80258 20.47112,0 31.97394,12.99754 11.50282,12.99754 11.50282,35.8732 z m -75.71065,0 q 0,19.30134 8.18845,29.30944 8.25343,9.94312 23.91546,9.94312 15.79201,0 23.85048,-9.94312 8.05848,-9.94311 8.05848,-29.30944 0,-19.17137 -8.05848,-29.04949 -7.99348,-9.94312 -23.7205,-9.94312 -15.79201,0 -24.04544,10.0081 -8.18845,9.94312 -8.18845,28.98451 z"
         style="font-style:normal;font-variant:normal;font-weight:normal;font-stretch:normal;font-family:'Open Sans';-inkscape-font-specification:'Open Sans';text-align:center;text-anchor:middle;fill:#ffffff"
         id="path5181" />
      <path
         inkscape:connector-curvature="0"
         d="m 350.82877,913.74831 q -6.95368,0 -12.73758,-2.53451 -5.71892,-2.59951 -9.61818,-7.9285 l -0.77985,0 q 0.77985,6.23882 0.77985,11.82776 l 0,29.30944 -10.78795,0 0,-103.20044 8.77333,0 1.49472,9.74815 0.5199,0 q 4.15921,-5.84889 9.68317,-8.44839 5.52395,-2.59951 12.67259,-2.59951 14.16732,0 21.83586,9.68316 7.73354,9.68317 7.73354,27.16485 0,17.54668 -7.86351,27.29483 -7.79852,9.68316 -21.70589,9.68316 z m -1.5597,-64.66274 q -10.91793,0 -15.79201,6.04386 -4.87407,6.04385 -5.00405,19.23635 l 0,2.40454 q 0,15.01216 5.00405,21.51093 5.00405,6.43378 16.05196,6.43378 9.22825,0 14.42726,-7.47359 5.26401,-7.47358 5.26401,-20.60109 0,-13.32248 -5.26401,-20.40613 -5.19901,-7.14865 -14.68721,-7.14865 z"
         style="font-style:normal;font-variant:normal;font-weight:normal;font-stretch:normal;font-family:'Open Sans';-inkscape-font-specification:'Open Sans';text-align:center;text-anchor:middle;fill:#ffffff"
         id="path5183" />
      <path
         inkscape:connector-curvature="0"
         d="m 429.39888,913.74831 q -15.79201,0 -24.95527,-9.61817 -9.09828,-9.61818 -9.09828,-26.70994 0,-17.22174 8.4484,-27.35981 8.51339,-10.13808 22.81068,-10.13808 13.38746,0 21.18598,8.83832 7.79852,8.77334 7.79852,23.20061 l 0,6.8237 -49.0657,0 q 0.32494,12.54262 6.30381,19.04139 6.04385,6.49877 16.96179,6.49877 11.50281,0 22.74568,-4.80909 l 0,9.61818 q -5.71891,2.46953 -10.85294,3.50933 -5.06904,1.10479 -12.28267,1.10479 z m -2.92445,-64.79271 q -8.57837,0 -13.7124,5.58894 -5.06904,5.58894 -5.97886,15.46706 l 37.23794,0 q 0,-10.20306 -4.54914,-15.59704 -4.54914,-5.45896 -12.99754,-5.45896 z"
         style="font-style:normal;font-variant:normal;font-weight:normal;font-stretch:normal;font-family:'Open Sans';-inkscape-font-specification:'Open Sans';text-align:center;text-anchor:middle;fill:#ffffff"
         id="path5185" />
      <path
         inkscape:connector-curvature="0"
         d="m 522.65619,912.44856 0,-46.07627 q 0,-8.70834 -3.96424,-12.99753 -3.96425,-4.28919 -12.41265,-4.28919 -11.17788,0 -16.3769,6.04386 -5.19901,6.04385 -5.19901,19.95121 l 0,37.36792 -10.78796,0 0,-71.2265 8.77334,0 1.75467,9.74815 0.5199,0 q 3.31437,-5.264 9.29324,-8.12346 5.97886,-2.92444 13.32247,-2.92444 12.86756,0 19.36633,6.23882 6.49877,6.17383 6.49877,19.82124 l 0,46.46619 -10.78796,0 z"
         style="font-style:normal;font-variant:normal;font-weight:normal;font-stretch:normal;font-family:'Open Sans';-inkscape-font-specification:'Open Sans';text-align:center;text-anchor:middle;fill:#ffffff"
         id="path5187" />
      <path
         inkscape:connector-curvature="0"
         d="m 316.12535,983.81803 q 0,23.52557 -12.80257,36.00317 -12.73758,12.4127 -36.71804,12.4127 l -26.32001,0 0,-95.01204 29.11448,0 q 22.1608,0 34.44347,12.28267 12.28267,12.28268 12.28267,34.3135 z m -11.69778,0.38993 q 0,-18.58648 -9.35822,-28.00969 -9.29324,-9.42322 -27.68476,-9.42322 l -16.05195,0 0,75.90565 13.45245,0 q 19.75625,0 29.69937,-9.6832 9.94311,-9.7482 9.94311,-28.78954 z"
         style="font-style:normal;font-variant:normal;font-weight:normal;font-stretch:normal;font-family:'Open Sans';-inkscape-font-specification:'Open Sans';text-align:center;text-anchor:middle;fill:#ffffff"
         id="path5189" />
      <path
         inkscape:connector-curvature="0"
         d="m 379.42336,1032.2339 -2.14459,-10.1381 -0.51991,0 q -5.32899,6.6937 -10.65798,9.0982 -5.264,2.3396 -13.1925,2.3396 -10.59299,0 -16.63684,-5.459 -5.97887,-5.4589 -5.97887,-15.532 0,-21.57593 34.50846,-22.61573 l 12.08771,-0.38992 0,-4.41917 q 0,-8.38341 -3.63931,-12.34766 -3.57432,-4.02923 -11.50282,-4.02923 -8.90331,0 -20.14618,5.45896 l -3.31437,-8.25343 q 5.264,-2.85946 11.50282,-4.48415 6.3038,-1.62469 12.60761,-1.62469 12.73758,0 18.84642,5.65392 6.17383,5.65393 6.17383,18.13157 l 0,48.61083 -7.99348,0 z m -24.37038,-7.6036 q 10.07309,0 15.79201,-5.524 5.7839,-5.5239 5.7839,-15.467 l 0,-6.43381 -10.78796,0.45492 q -12.86756,0.45491 -18.58647,4.02919 -5.65393,3.5094 -5.65393,10.983 0,5.8489 3.50933,8.9033 3.57433,3.0544 9.94312,3.0544 z"
         style="font-style:normal;font-variant:normal;font-weight:normal;font-stretch:normal;font-family:'Open Sans';-inkscape-font-specification:'Open Sans';text-align:center;text-anchor:middle;fill:#ffffff"
         id="path5191" />
      <path
         inkscape:connector-curvature="0"
         d="m 432.71325,1024.6303 q 2.85946,0 5.52396,-0.3899 2.66449,-0.4549 4.2242,-0.9099 l 0,8.2535 q -1.75467,0.8448 -5.19902,1.3647 -3.37936,0.5849 -6.10884,0.5849 -20.66608,0 -20.66608,-21.7709 l 0,-42.37194 -10.20307,0 0,-5.19901 10.20307,-4.48415 4.54913,-15.20712 6.23882,0 0,16.50687 20.66608,0 0,8.38341 -20.66608,0 0,41.91704 q 0,6.4338 3.05442,9.8781 3.05442,3.4444 8.38341,3.4444 z"
         style="font-style:normal;font-variant:normal;font-weight:normal;font-stretch:normal;font-family:'Open Sans';-inkscape-font-specification:'Open Sans';text-align:center;text-anchor:middle;fill:#ffffff"
         id="path5193" />
      <path
         inkscape:connector-curvature="0"
         d="m 500.5604,1032.2339 -2.1446,-10.1381 -0.5199,0 q -5.32899,6.6937 -10.65798,9.0982 -5.264,2.3396 -13.1925,2.3396 -10.59299,0 -16.63684,-5.459 -5.97887,-5.4589 -5.97887,-15.532 0,-21.57593 34.50846,-22.61573 l 12.08771,-0.38992 0,-4.41917 q 0,-8.38341 -3.63931,-12.34766 -3.57432,-4.02923 -11.50282,-4.02923 -8.90331,0 -20.14618,5.45896 l -3.31437,-8.25343 q 5.264,-2.85946 11.50282,-4.48415 6.3038,-1.62469 12.60761,-1.62469 12.73758,0 18.84642,5.65392 6.17383,5.65393 6.17383,18.13157 l 0,48.61083 -7.99348,0 z m -24.37038,-7.6036 q 10.07309,0 15.792,-5.524 5.78391,-5.5239 5.78391,-15.467 l 0,-6.43381 -10.78796,0.45492 q -12.86756,0.45491 -18.58647,4.02919 -5.65393,3.5094 -5.65393,10.983 0,5.8489 3.50933,8.9033 3.57432,3.0544 9.94312,3.0544 z"
         style="font-style:normal;font-variant:normal;font-weight:normal;font-stretch:normal;font-family:'Open Sans';-inkscape-font-specification:'Open Sans';text-align:center;text-anchor:middle;fill:#ffffff"
         id="path5195" />
    </g>
    <g
       id="g5540"
       transform="translate(-22.120618,0)">
      <path
         inkscape:connector-curvature="0"
         style="opacity:1;fill:#00ccff;fill-opacity:1;fill-rule:evenodd;stroke:none;stroke-width:3;stroke-linecap:round;stroke-linejoin:round;stroke-miterlimit:4;stroke-dasharray:none;stroke-dashoffset:0;stroke-opacity:1"
         d="m 394.16787,597.57899 c -127.33797,0 -229.84796,102.50999 -229.84796,229.84795 l 0,224.93516 459.69591,0 0,-224.93516 c 0,-127.33796 -102.50999,-229.84795 -229.84795,-229.84795 z"
         id="path6111" />
      <circle
         style="opacity:1;fill:#ffcc00;fill-opacity:1;fill-rule:evenodd;stroke:none;stroke-width:3;stroke-linecap:round;stroke-linejoin:round;stroke-miterlimit:4;stroke-dasharray:none;stroke-dashoffset:0;stroke-opacity:1"
         id="circle6113"
         cx="394.16788"
         cy="435.09732"
         r="174.37042" />
      <g
         id="g6115"
         transform="matrix(1.0762481,0,0,1.0762481,1761.3585,75.27254)">
        <circle
           r="22.09322"
           cy="334.33255"
           cx="-1327.4045"
           id="circle6117"
           style="opacity:1;fill:#000000;fill-opacity:1;fill-rule:evenodd;stroke:none;stroke-width:3;stroke-linecap:round;stroke-linejoin:round;stroke-miterlimit:4;stroke-dasharray:none;stroke-dashoffset:0;stroke-opacity:1" />
        <circle
           style="opacity:1;fill:#000000;fill-opacity:1;fill-rule:evenodd;stroke:none;stroke-width:3;stroke-linecap:round;stroke-linejoin:round;stroke-miterlimit:4;stroke-dasharray:none;stroke-dashoffset:0;stroke-opacity:1"
           id="circle6119"
           cx="-1213.2562"
           cy="334.33255"
           r="22.09322" />
      </g>
      <path
         id="path6121"
         d="m 337.92657,526.24392 a 72.98298,108.98151 0 0 0 56.22581,39.63374 72.98298,108.98151 0 0 0 56.2568,-39.63374 l -112.48261,0 z"
         style="opacity:1;fill:#000000;fill-opacity:1;fill-rule:evenodd;stroke:none;stroke-width:3;stroke-linecap:round;stroke-linejoin:round;stroke-miterlimit:4;stroke-dasharray:none;stroke-dashoffset:0;stroke-opacity:1"
         inkscape:connector-curvature="0" />
    </g>
    <g
       style="font-style:normal;font-variant:normal;font-weight:normal;font-stretch:normal;font-size:143.24299622px;line-height:89.99999762%;font-family:Papyrus;-inkscape-font-specification:Papyrus;letter-spacing:0px;word-spacing:0px;fill:#ffffff;fill-opacity:1;stroke:none;stroke-width:1px;stroke-linecap:butt;stroke-linejoin:miter;stroke-opacity:1"
       id="text6151"
       transform="translate(-22.120618,0)">
      <path
         inkscape:connector-curvature="0"
         d="m 296.56261,772.86169 0,-102.25647 11.89029,0 0,102.25647 -11.89029,0 z"
         style="font-style:normal;font-variant:normal;font-weight:normal;font-stretch:normal;font-family:'Open Sans';-inkscape-font-specification:'Open Sans';text-align:center;text-anchor:middle;fill:#ffffff"
         id="path6500" />
      <path
         inkscape:connector-curvature="0"
         d="m 314.53793,850.51226 q 0,24.54995 -12.44983,38.60847 -12.37989,14.05851 -34.48184,14.05851 -22.59155,0 -34.90149,-13.77874 -12.24,-13.84869 -12.24,-39.02812 0,-24.96961 12.30994,-38.67841 12.30995,-13.77874 34.97144,-13.77874 22.032,0 34.41189,13.98857 12.37989,13.98857 12.37989,38.60846 z m -81.48345,0 q 0,20.77304 8.81281,31.54424 8.88274,10.70126 25.73897,10.70126 16.99612,0 25.66903,-10.70126 8.67292,-10.70126 8.67292,-31.54424 0,-20.63314 -8.67292,-31.26446 -8.60297,-10.70126 -25.52914,-10.70126 -16.99612,0 -25.87886,10.7712 -8.81281,10.70126 -8.81281,31.19452 z"
         style="font-style:normal;font-variant:normal;font-weight:normal;font-stretch:normal;font-family:'Open Sans';-inkscape-font-specification:'Open Sans';text-align:center;text-anchor:middle;fill:#ffffff"
         id="path6502" />
      <path
         inkscape:connector-curvature="0"
         d="m 371.33154,903.17924 q -7.48389,0 -13.7088,-2.72777 -6.15498,-2.79771 -10.35155,-8.53303 l -0.83931,0 q 0.83931,6.71452 0.83931,12.72961 l 0,31.54423 -11.61051,0 0,-111.06928 9.44228,0 1.60869,10.49143 0.55954,0 q 4.47635,-6.29486 10.42149,-9.09257 5.94514,-2.79771 13.63886,-2.79771 15.24754,0 23.5008,10.42148 8.3232,10.42149 8.3232,29.23612 0,18.88458 -8.46308,29.37601 -8.39315,10.42148 -23.36092,10.42148 z m -1.67863,-69.59315 q -11.7504,0 -16.99612,6.50469 -5.24571,6.50468 -5.3856,20.70309 l 0,2.58788 q 0,16.15681 5.3856,23.15109 5.3856,6.92435 17.27589,6.92435 9.93189,0 15.52732,-8.04343 5.66537,-8.04343 5.66537,-22.17189 0,-14.33829 -5.66537,-21.96206 -5.59543,-7.69372 -15.80709,-7.69372 z"
         style="font-style:normal;font-variant:normal;font-weight:normal;font-stretch:normal;font-family:'Open Sans';-inkscape-font-specification:'Open Sans';text-align:center;text-anchor:middle;fill:#ffffff"
         id="path6504" />
      <path
         inkscape:connector-curvature="0"
         d="m 455.89247,903.17924 q -16.99612,0 -26.85806,-10.35154 -9.79201,-10.35154 -9.79201,-28.74652 0,-18.53486 9.09258,-29.44595 9.16251,-10.91108 24.54994,-10.91108 14.40824,0 22.80138,9.51223 8.39314,9.44228 8.39314,24.9696 l 0,7.344 -52.80686,0 q 0.34971,13.49898 6.78446,20.49326 6.50468,6.99429 18.25509,6.99429 12.37988,0 24.48,-5.17577 l 0,10.35154 q -6.15497,2.65783 -11.68046,3.77692 -5.45554,1.18902 -13.2192,1.18902 z m -3.14743,-69.73304 q -9.23246,0 -14.75795,6.01509 -5.45554,6.01509 -6.43474,16.6464 l 40.07726,0 q 0,-10.98103 -4.896,-16.78628 -4.896,-5.87521 -13.98857,-5.87521 z"
         style="font-style:normal;font-variant:normal;font-weight:normal;font-stretch:normal;font-family:'Open Sans';-inkscape-font-specification:'Open Sans';text-align:center;text-anchor:middle;fill:#ffffff"
         id="path6506" />
      <path
         inkscape:connector-curvature="0"
         d="m 556.26049,901.78039 0,-49.5895 q 0,-9.37234 -4.26652,-13.98857 -4.26651,-4.61623 -13.35908,-4.61623 -12.03018,0 -17.62561,6.50469 -5.59543,6.50468 -5.59543,21.47246 l 0,40.21715 -11.61051,0 0,-76.65739 9.44229,0 1.88845,10.49143 0.55955,0 q 3.56708,-5.66537 10.00183,-8.74286 6.43474,-3.14742 14.33828,-3.14742 13.84869,0 20.84298,6.71451 6.99429,6.64457 6.99429,21.33258 l 0,50.00915 -11.61052,0 z"
         style="font-style:normal;font-variant:normal;font-weight:normal;font-stretch:normal;font-family:'Open Sans';-inkscape-font-specification:'Open Sans';text-align:center;text-anchor:middle;fill:#ffffff"
         id="path6508" />
      <path
         inkscape:connector-curvature="0"
         d="m 333.98204,978.59164 q 0,25.31936 -13.77874,38.74836 -13.7088,13.3591 -39.51772,13.3591 l -28.32686,0 0,-102.25649 31.3344,0 q 23.85052,0 37.06972,13.2192 13.2192,13.2192 13.2192,36.92983 z m -12.58971,0.41966 q 0,-20.00366 -10.07178,-30.14538 -10.00183,-10.14171 -29.79566,-10.14171 l -17.27589,0 0,81.69329 14.47818,0 q 21.26263,0 31.96389,-10.4215 10.70126,-10.49144 10.70126,-30.9847 z"
         style="font-style:normal;font-variant:normal;font-weight:normal;font-stretch:normal;font-family:'Open Sans';-inkscape-font-specification:'Open Sans';text-align:center;text-anchor:middle;fill:#ffffff"
         id="path6510" />
      <path
         inkscape:connector-curvature="0"
         d="m 402.1064,1030.6991 -2.30812,-10.9111 -0.55954,0 q -5.73532,7.2041 -11.47063,9.792 -5.66537,2.5179 -14.1984,2.5179 -11.40069,0 -17.90538,-5.8752 -6.43474,-5.8752 -6.43474,-16.7163 0,-23.22104 37.13966,-24.34013 l 13.00937,-0.41965 0,-4.75612 q 0,-9.02263 -3.9168,-13.28914 -3.84685,-4.33646 -12.37988,-4.33646 -9.58218,0 -21.68229,5.8752 l -3.56709,-8.88275 q 5.66537,-3.07748 12.37989,-4.82605 6.78446,-1.74858 13.56892,-1.74858 13.7088,0 20.28343,6.08503 6.64457,6.08503 6.64457,19.51406 l 0,52.31729 -8.60297,0 z m -26.22858,-8.1833 q 10.84115,0 16.99612,-5.9452 6.22491,-5.9451 6.22491,-16.64638 l 0,-6.92435 -11.61051,0.4896 q -13.84869,0.4896 -20.00366,4.33646 -6.08503,3.77687 -6.08503,11.82037 0,6.2948 3.77691,9.5822 3.84686,3.2873 10.70126,3.2873 z"
         style="font-style:normal;font-variant:normal;font-weight:normal;font-stretch:normal;font-family:'Open Sans';-inkscape-font-specification:'Open Sans';text-align:center;text-anchor:middle;fill:#ffffff"
         id="path6512" />
      <path
         inkscape:connector-curvature="0"
         d="m 459.45955,1022.5158 q 3.07749,0 5.94514,-0.4197 2.86766,-0.4896 4.54629,-0.9792 l 0,8.8828 q -1.88846,0.9092 -5.59543,1.4688 -3.63703,0.6294 -6.57463,0.6294 -22.24183,0 -22.24183,-23.4308 l 0,-45.60277 -10.98103,0 0,-5.59543 10.98103,-4.82606 4.896,-16.36663 6.71451,0 0,17.76549 22.24184,0 0,9.02263 -22.24184,0 0,45.11317 q 0,6.9243 3.28732,10.6313 3.28731,3.707 9.02263,3.707 z"
         style="font-style:normal;font-variant:normal;font-weight:normal;font-stretch:normal;font-family:'Open Sans';-inkscape-font-specification:'Open Sans';text-align:center;text-anchor:middle;fill:#ffffff"
         id="path6514" />
      <path
         inkscape:connector-curvature="0"
         d="m 532.47991,1030.6991 -2.30812,-10.9111 -0.55954,0 q -5.73531,7.2041 -11.47063,9.792 -5.66537,2.5179 -14.1984,2.5179 -11.40069,0 -17.90538,-5.8752 -6.43474,-5.8752 -6.43474,-16.7163 0,-23.22104 37.13966,-24.34013 l 13.00938,-0.41965 0,-4.75612 q 0,-9.02263 -3.9168,-13.28914 -3.84686,-4.33646 -12.37989,-4.33646 -9.58217,0 -21.68229,5.8752 l -3.56709,-8.88275 q 5.66538,-3.07748 12.37989,-4.82605 6.78446,-1.74858 13.56892,-1.74858 13.7088,0 20.28343,6.08503 6.64457,6.08503 6.64457,19.51406 l 0,52.31729 -8.60297,0 z m -26.22858,-8.1833 q 10.84115,0 16.99612,-5.9452 6.22492,-5.9451 6.22492,-16.64638 l 0,-6.92435 -11.61052,0.4896 q -13.84869,0.4896 -20.00366,4.33646 -6.08503,3.77687 -6.08503,11.82037 0,6.2948 3.77691,9.5822 3.84686,3.2873 10.70126,3.2873 z"
         style="font-style:normal;font-variant:normal;font-weight:normal;font-stretch:normal;font-family:'Open Sans';-inkscape-font-specification:'Open Sans';text-align:center;text-anchor:middle;fill:#ffffff"
         id="path6516" />
    </g>
    <g
       style="fill:#ff0000"
       id="g6159"
       transform="matrix(0.24563727,0,0,0.24563727,321.92687,662.2313)">
      <path
         style="fill:#ff0000"
         id="path6161"
         d="M 297.29747,550.86823 C 283.52243,535.43191 249.1268,505.33855 220.86277,483.99412 137.11867,420.75228 125.72108,411.5999 91.719238,380.29088 29.03471,322.57071 2.413622,264.58086 2.5048478,185.95124 2.5493594,147.56739 5.1656152,132.77929 15.914734,110.15398 34.151433,71.768267 61.014996,43.244667 95.360052,25.799457 119.68545,13.443675 131.6827,7.9542046 172.30448,7.7296236 c 42.49329,-0.234834 51.43863,4.7197234 76.43471,18.4518354 30.42451,16.714318 61.7399,52.435708 68.21323,77.810591 l 3.9981,15.6724 9.85963,-21.584508 c 55.71617,-121.972928 233.59836,-120.148052 295.50229,3.031588 19.63767,39.07605 21.79364,122.51317 4.38012,169.51287 -22.71527,61.30937 -65.38001,108.05053 -164.00634,179.67658 -64.68082,46.97364 -137.88474,118.04586 -142.98067,128.02803 -5.91548,11.58753 -0.28216,1.8159 -26.40808,-27.46078 z"
         inkscape:connector-curvature="0" />
      <g
         style="fill:#ff0000"
         id="g6163"
         transform="translate(129.28571,-64.285714)" />
    </g>
    <g
       id="g5805"
       transform="translate(-554.8855,476.51183)">
      <path
         sodipodi:nodetypes="cc"
         inkscape:connector-curvature="0"
         id="path5807"
         d="m 2119.9266,738.08597 c 155.9291,-23.74076 171.6507,125.08159 194.1853,265.51863"
         style="fill:none;fill-rule:evenodd;stroke:#000000;stroke-width:18.8767128;stroke-linecap:butt;stroke-linejoin:miter;stroke-miterlimit:4;stroke-dasharray:none;stroke-opacity:1" />
      <circle
         style="opacity:1;fill:#ffcc00;fill-opacity:1;fill-rule:evenodd;stroke:none;stroke-width:3;stroke-linecap:round;stroke-linejoin:round;stroke-miterlimit:4;stroke-dasharray:none;stroke-dashoffset:0;stroke-opacity:1"
         id="circle5809"
         cx="2310.1213"
         cy="993.16669"
         r="35.666672" />
    </g>
    <g
       transform="matrix(-1,0,0,1,3711.9069,156.74731)"
       id="g5811">
      <path
         style="fill:none;fill-rule:evenodd;stroke:#000000;stroke-width:18.8767128;stroke-linecap:butt;stroke-linejoin:miter;stroke-miterlimit:4;stroke-dasharray:none;stroke-opacity:1"
         d="m 2119.9266,738.08597 c 155.9291,-23.74076 171.6507,125.08159 194.1853,265.51863"
         id="path5813"
         inkscape:connector-curvature="0"
         sodipodi:nodetypes="cc" />
      <circle
         r="35.666672"
         cy="993.16669"
         cx="2310.1213"
         id="circle5815"
         style="opacity:1;fill:#ffcc00;fill-opacity:1;fill-rule:evenodd;stroke:none;stroke-width:3;stroke-linecap:round;stroke-linejoin:round;stroke-miterlimit:4;stroke-dasharray:none;stroke-dashoffset:0;stroke-opacity:1" />
    </g>
    <g
       id="g5821"
       transform="translate(-181.82685,736.71237)">
      <path
         style="fill:none;fill-rule:evenodd;stroke:#000000;stroke-width:18.8767128;stroke-linecap:butt;stroke-linejoin:miter;stroke-miterlimit:4;stroke-dasharray:none;stroke-opacity:1"
         d="M 1822.6768,739.53707 C 1666.7477,763.27784 1651.0262,614.45549 1628.4916,474.01846"
         id="path5823"
         inkscape:connector-curvature="0"
         sodipodi:nodetypes="cc" />
      <circle
         r="35.666672"
         cy="477.98141"
         cx="1624.5286"
         id="circle5825"
         style="opacity:1;fill:#ffcc00;fill-opacity:1;fill-rule:evenodd;stroke:none;stroke-width:3;stroke-linecap:round;stroke-linejoin:round;stroke-miterlimit:4;stroke-dasharray:none;stroke-dashoffset:0;stroke-opacity:1" />
    </g>
    <g
       id="g5943"
       transform="translate(471.73025,0)">
      <path
         inkscape:connector-curvature="0"
         id="circle5932"
         d="m -233.21696,249.88785 a 174.37042,174.37042 0 0 0 -69.36556,140.89382 174.37042,174.37042 0 0 0 154.60658,-27.53621 174.37042,174.37042 0 0 0 69.365565,-140.89382 174.37042,174.37042 0 0 0 -154.606585,27.53621 z"
         style="opacity:1;fill:#ff6600;fill-opacity:1;fill-rule:evenodd;stroke:none;stroke-width:3;stroke-linecap:round;stroke-linejoin:round;stroke-miterlimit:4;stroke-dasharray:none;stroke-dashoffset:0;stroke-opacity:1" />
      <path
         style="opacity:1;fill:#ff6600;fill-opacity:1;fill-rule:evenodd;stroke:none;stroke-width:3;stroke-linecap:round;stroke-linejoin:round;stroke-miterlimit:4;stroke-dasharray:none;stroke-dashoffset:0;stroke-opacity:1"
         d="M 33.850945,249.88785 A 174.37042,174.37042 0 0 1 103.21651,390.78167 174.37042,174.37042 0 0 1 -51.390075,363.24546 174.37042,174.37042 0 0 1 -120.75564,222.35164 174.37042,174.37042 0 0 1 33.850945,249.88785 Z"
         id="path5941"
         inkscape:connector-curvature="0" />
    </g>
    <path
       style="fill:#802a00;fill-opacity:1;fill-rule:evenodd;stroke:none;stroke-width:4.3848424px;stroke-linecap:butt;stroke-linejoin:miter;stroke-opacity:1"
       d="m -154.54492,180.84671 -43.89125,83.49351 -56.42915,-23.37563 -12.53791,96.86015 -62.69811,20.03625 56.94301,78.35671 A 190.04515,202.46826 0 0 1 -99.683007,316.04581 190.04515,202.46826 0 0 1 73.732371,436.30894 L 130.73534,357.86099 68.037215,337.82474 55.499306,240.96459 -0.92984905,264.34022 -44.821091,180.84671 -99.683007,232.79863 -154.54492,180.84671 Z"
       id="path6001"
       inkscape:connector-curvature="0" />
    <g
       transform="matrix(0.78473601,-0.61983013,-0.61983013,-0.78473601,-273.67894,2372.0934)"
       id="g6790">
      <path
         style="fill:none;fill-rule:evenodd;stroke:#000000;stroke-width:18.8767128;stroke-linecap:butt;stroke-linejoin:miter;stroke-miterlimit:4;stroke-dasharray:none;stroke-opacity:1"
         d="M 1822.6768,739.53707 C 1666.7477,763.27784 1651.0262,614.45549 1628.4916,474.01846"
         id="path6792"
         inkscape:connector-curvature="0"
         sodipodi:nodetypes="cc" />
      <circle
         r="35.666672"
         cy="477.98141"
         cx="1624.5286"
         id="circle6794"
         style="opacity:1;fill:#ffcc00;fill-opacity:1;fill-rule:evenodd;stroke:none;stroke-width:3;stroke-linecap:round;stroke-linejoin:round;stroke-miterlimit:4;stroke-dasharray:none;stroke-dashoffset:0;stroke-opacity:1" />
    </g>
    <g
       id="g5817"
       transform="matrix(-0.78473601,-0.61983013,0.61983013,-0.78473601,1961.2271,2372.0934)">
      <path
         sodipodi:nodetypes="cc"
         inkscape:connector-curvature="0"
         id="path5275"
         d="M 1822.6768,739.53707 C 1666.7477,763.27784 1651.0262,614.45549 1628.4916,474.01846"
         style="fill:none;fill-rule:evenodd;stroke:#000000;stroke-width:18.8767128;stroke-linecap:butt;stroke-linejoin:miter;stroke-miterlimit:4;stroke-dasharray:none;stroke-opacity:1" />
      <circle
         style="opacity:1;fill:#ffcc00;fill-opacity:1;fill-rule:evenodd;stroke:none;stroke-width:3;stroke-linecap:round;stroke-linejoin:round;stroke-miterlimit:4;stroke-dasharray:none;stroke-dashoffset:0;stroke-opacity:1"
         id="circle5317"
         cx="1624.5286"
         cy="477.98141"
         r="35.666672" />
    </g>
    <path
       style="opacity:1;fill:#00d400;fill-opacity:1;fill-rule:evenodd;stroke:none;stroke-width:3;stroke-linecap:round;stroke-linejoin:round;stroke-miterlimit:4;stroke-dasharray:none;stroke-dashoffset:0;stroke-opacity:1"
       d="m 843.77833,598.60995 c -92.24661,0 -168.29275,56.95428 -204.9481,135.01425 l 405.18517,-3.13494 C 1007.36,652.42929 936.02493,598.60995 843.77833,598.60995 Z"
       id="path6860"
       inkscape:connector-curvature="0"
       sodipodi:nodetypes="sccs" />
    <circle
       style="opacity:1;fill:#ffcc00;fill-opacity:1;fill-rule:evenodd;stroke:none;stroke-width:3;stroke-linecap:round;stroke-linejoin:round;stroke-miterlimit:4;stroke-dasharray:none;stroke-dashoffset:0;stroke-opacity:1"
       id="circle5552"
       cx="843.77411"
       cy="435.09732"
       r="174.37042" />
    <path
       id="path5560"
       d="m 787.53278,526.24392 a 72.98298,108.98151 0 0 0 56.22581,39.63374 72.98298,108.98151 0 0 0 56.2568,-39.63374 l -112.48261,0 z"
       style="opacity:1;fill:#000000;fill-opacity:1;fill-rule:evenodd;stroke:none;stroke-width:3;stroke-linecap:round;stroke-linejoin:round;stroke-miterlimit:4;stroke-dasharray:none;stroke-dashoffset:0;stroke-opacity:1"
       inkscape:connector-curvature="0" />
    <path
       style="opacity:1;fill:#2b1100;fill-opacity:1;fill-rule:evenodd;stroke:none;stroke-width:3;stroke-linecap:round;stroke-linejoin:round;stroke-miterlimit:4;stroke-dasharray:none;stroke-dashoffset:0;stroke-opacity:1"
       d="M 841.42523,228.84253 A 190.31091,190.31091 0 0 1 1029.7336,393.21417 211.54764,211.54764 0 0 1 917.7232,326.72214 211.54764,211.54764 0 0 1 759.1238,398.67809 211.54764,211.54764 0 0 1 657.11628,372.42042 190.31091,190.31091 0 0 1 841.42523,228.84253 Z"
       id="circle6431"
       inkscape:connector-curvature="0" />
    <g
       id="g5554"
       transform="matrix(1.0762481,0,0,1.0762481,2210.9647,75.27254)">
      <circle
         r="22.09322"
         cy="334.33255"
         cx="-1327.4045"
         id="circle5556"
         style="opacity:1;fill:#000000;fill-opacity:1;fill-rule:evenodd;stroke:none;stroke-width:3;stroke-linecap:round;stroke-linejoin:round;stroke-miterlimit:4;stroke-dasharray:none;stroke-dashoffset:0;stroke-opacity:1" />
      <circle
         style="opacity:1;fill:#000000;fill-opacity:1;fill-rule:evenodd;stroke:none;stroke-width:3;stroke-linecap:round;stroke-linejoin:round;stroke-miterlimit:4;stroke-dasharray:none;stroke-dashoffset:0;stroke-opacity:1"
         id="circle5558"
         cx="-1213.2562"
         cy="334.33255"
         r="22.09322" />
    </g>
    <g
       id="g6951"
       transform="matrix(0.78473601,-0.61983013,-0.61983013,-0.78473601,-430.26108,2948.9235)">
      <path
         sodipodi:nodetypes="cc"
         inkscape:connector-curvature="0"
         id="path6953"
         d="M 1822.6768,739.53707 C 1666.7477,763.27784 1651.0262,614.45549 1628.4916,474.01846"
         style="fill:none;fill-rule:evenodd;stroke:#000000;stroke-width:18.8767128;stroke-linecap:butt;stroke-linejoin:miter;stroke-miterlimit:4;stroke-dasharray:none;stroke-opacity:1" />
      <circle
         style="opacity:1;fill:#ffcc00;fill-opacity:1;fill-rule:evenodd;stroke:none;stroke-width:3;stroke-linecap:round;stroke-linejoin:round;stroke-miterlimit:4;stroke-dasharray:none;stroke-dashoffset:0;stroke-opacity:1"
         id="circle6955"
         cx="1624.5286"
         cy="477.98141"
         r="35.666672" />
    </g>
  </g>
</svg>
