<svg xmlns="http://www.w3.org/2000/svg" width="101" height="90"><path d="M7.2 32.4V15.6C7.2 5.2 12.8 0 24 0h54c10.4 0 15.6 5.2 15.6 15.6v4.8h7.2L87.6 36 74.4 20.4h7.2V18c0-4-2-6-6-6H25.2c-4 0-6 2-6 6v14.4h-12zm6 4.8L0 52.8h7.2v22.8C7.2 85.2 12 90 21.6 90h58.8c8.8 0 13.2-4.8 13.2-14.4V66h-12v7.2c0 3.2-1.6 4.8-4.8 4.8h-54c-2.4 0-3.6-1.6-3.6-4.8V52.8h7.2L13.2 37.2zm38.24-14.91c-3.13-.01-6.177 1.34-8.278 3.82-2.92 3.45-3.385 8.352-1.162 12.29H30v7.2h18C48 55.2 42 60 30 60v7.2c16.8 0 25.2-8 25.2-24 4.232-1.59 7.028-5.647 7.005-10.168-.024-4.52-2.86-8.546-7.11-10.09-1.195-.435-2.433-.65-3.656-.653zm-.08 5.55c2.782 0 5.04 2.257 5.04 5.04 0 2.78-2.258 5.04-5.04 5.04s-5.04-2.26-5.04-5.04c0-2.783 2.258-5.04 5.04-5.04zM62.4 38.4h25.2v6H62.4v-6zm0 9.6h25.2c0 12.8-8.4 19.2-25.2 19.2v-6c11.2 0 16.8-2.4 16.8-7.2H62.4v-6z"/></svg>