<?xml version="1.0" encoding="UTF-8" standalone="no"?>
<svg
   xmlns:dc="http://purl.org/dc/elements/1.1/"
   xmlns:cc="http://creativecommons.org/ns#"
   xmlns:rdf="http://www.w3.org/1999/02/22-rdf-syntax-ns#"
   xmlns:svg="http://www.w3.org/2000/svg"
   xmlns="http://www.w3.org/2000/svg"
   xmlns:sodipodi="http://sodipodi.sourceforge.net/DTD/sodipodi-0.dtd"
   xmlns:inkscape="http://www.inkscape.org/namespaces/inkscape"
   sodipodi:docname="sodium-300x300.svg"
   inkscape:version="1.0beta2 (2b71d25, 2019-12-03)"
   id="svg3803"
   version="1.1"
   viewBox="0 0 29.461531 29.461531"
   height="29.461531mm"
   width="29.461531mm">
  <defs
     id="defs3797" />
  <sodipodi:namedview
     inkscape:window-maximized="0"
     inkscape:window-y="23"
     inkscape:window-x="0"
     inkscape:window-height="855"
     inkscape:window-width="1440"
     fit-margin-bottom="0"
     fit-margin-right="0"
     fit-margin-left="0"
     fit-margin-top="0"
     showgrid="false"
     inkscape:document-rotation="0"
     inkscape:current-layer="layer1"
     inkscape:document-units="mm"
     inkscape:cy="22.96331"
     inkscape:cx="61.446642"
     inkscape:zoom="2.2172233"
     inkscape:pageshadow="2"
     inkscape:pageopacity="0.0"
     borderopacity="1.0"
     bordercolor="#666666"
     pagecolor="#ffffff"
     id="base" />
  <metadata
     id="metadata3800">
    <rdf:RDF>
      <cc:Work
         rdf:about="">
        <dc:format>image/svg+xml</dc:format>
        <dc:type
           rdf:resource="http://purl.org/dc/dcmitype/StillImage" />
        <dc:title></dc:title>
      </cc:Work>
    </rdf:RDF>
  </metadata>
  <g
     transform="translate(-91.85852,-126.63233)"
     id="layer1"
     inkscape:groupmode="layer"
     inkscape:label="Layer 1">
    <g
       id="g2555"
       transform="matrix(0.35277777,0,0,-0.35277777,121.32005,141.36433)"
       inkscape:export-filename="/Users/yaron/sulphur.png"
       inkscape:export-xdpi="300"
       inkscape:export-ydpi="300">
      <path
         d="m 0,0 c 0,-23.06 -18.692,-41.753 -41.758,-41.753 -23.062,0 -41.755,18.693 -41.755,41.753 0,23.068 18.693,41.76 41.755,41.76 C -18.692,41.76 0,23.068 0,0"
         style="fill:#ffffff;fill-opacity:1;fill-rule:nonzero;stroke:none"
         id="path2557"
         inkscape:connector-curvature="0" />
    </g>
    <g
       id="g2559"
       transform="matrix(0.35277777,0,0,-0.35277777,106.58883,127.40583)"
       inkscape:export-filename="/Users/yaron/sulphur.png"
       inkscape:export-xdpi="300"
       inkscape:export-ydpi="300">
      <path
         d="m 0,0 c -21.85,0 -39.564,-17.711 -39.564,-39.567 0,-21.85 17.714,-39.562 39.564,-39.562 21.854,0 39.566,17.712 39.566,39.562 C 39.566,-17.711 21.854,0 0,0"
         style="fill:#d32011;fill-opacity:1;fill-rule:nonzero;stroke:none"
         id="path2561"
         inkscape:connector-curvature="0" />
    </g>
    <g
       id="g2563"
       transform="matrix(0.35277777,0,0,-0.35277777,106.58883,133.29524)"
       inkscape:export-filename="/Users/yaron/sulphur.png"
       inkscape:export-xdpi="300"
       inkscape:export-ydpi="300">
      <path
         d="m 0,0 c 12.614,0 22.872,-10.258 22.872,-22.873 0,-12.611 -10.258,-22.865 -22.872,-22.865 -12.609,0 -22.867,10.254 -22.867,22.865 C -22.867,-10.258 -12.609,0 0,0"
         style="fill:#ffffff;fill-opacity:1;fill-rule:nonzero;stroke:none"
         id="path2565"
         inkscape:connector-curvature="0" />
    </g>
    <g
       id="g2567"
       transform="matrix(0.35277777,0,0,-0.35277777,103.27656,133.44994)"
       inkscape:export-filename="/Users/yaron/sulphur.png"
       inkscape:export-xdpi="300"
       inkscape:export-ydpi="300">
      <path
         d="M 0,0 C -0.09,-0.376 -0.378,-0.691 -0.867,-0.948 -1.358,-1.203 -1.785,-1.255 -2.133,-1.107 L -7.745,9.635 c 0.069,0.336 0.37,0.636 0.891,0.907 0.51,0.265 0.924,0.333 1.244,0.206 z"
         style="fill:#ffffff;fill-opacity:1;fill-rule:nonzero;stroke:none"
         id="path2569"
         inkscape:connector-curvature="0" />
    </g>
    <g
       id="g2571"
       transform="matrix(0.35277777,0,0,-0.35277777,105.47779,131.86328)"
       inkscape:export-filename="/Users/yaron/sulphur.png"
       inkscape:export-xdpi="300"
       inkscape:export-ydpi="300">
      <path
         d="m 0,0 c -0.144,-0.337 -0.497,-0.573 -1.067,-0.703 -0.598,-0.137 -1.022,-0.078 -1.285,0.171 l -1.14,5.315 c -0.173,0.764 -0.564,1.371 -1.167,1.82 -0.64,0.472 -1.374,0.618 -2.183,0.434 -0.842,-0.194 -1.813,-0.811 -2.363,-1.412 -0.294,0.114 -0.491,0.359 -0.578,0.744 -0.086,0.372 -0.024,0.699 0.191,0.984 0.584,0.538 1.777,1.176 3.06,1.466 1.338,0.305 2.492,0.151 3.454,-0.453 0.966,-0.61 1.61,-1.622 1.929,-3.042 z"
         style="fill:#ffffff;fill-opacity:1;fill-rule:nonzero;stroke:none"
         id="path2573"
         inkscape:connector-curvature="0" />
    </g>
    <g
       id="g2575"
       transform="matrix(0.35277777,0,0,-0.35277777,109.37076,132.2724)"
       inkscape:export-filename="/Users/yaron/sulphur.png"
       inkscape:export-xdpi="300"
       inkscape:export-ydpi="300">
      <path
         d="m 0,0 c -0.255,-0.26 -0.674,-0.354 -1.25,-0.28 -0.592,0.077 -0.977,0.277 -1.139,0.593 l 1.366,6.261 c 0.06,0.506 -0.011,0.932 -0.23,1.272 -0.209,0.34 -0.536,0.537 -0.97,0.592 L -4.389,8.712 C -4.643,8.75 -4.822,8.318 -4.937,7.425 L -5.311,3.636 C -5.597,1.435 -6.716,0.46 -8.657,0.714 c -0.489,0.063 -0.872,0.219 -1.141,0.461 -0.23,0.221 -0.32,0.505 -0.279,0.858 0.049,0.354 0.213,0.617 0.492,0.795 0.143,-0.249 0.359,-0.394 0.633,-0.432 0.695,-0.091 1.111,0.405 1.254,1.483 l 0.291,3.216 c 0.14,1.021 0.457,1.65 0.972,1.884 l -2.068,0.272 c -0.211,0.202 -0.288,0.503 -0.24,0.9 0.046,0.375 0.203,0.634 0.459,0.77 l 6.513,-0.838 C 0.611,9.773 1.65,8.47 1.348,6.171 Z"
         style="fill:#ffffff;fill-opacity:1;fill-rule:nonzero;stroke:none"
         id="path2577"
         inkscape:connector-curvature="0" />
    </g>
    <g
       id="g2579"
       transform="matrix(0.35277777,0,0,-0.35277777,111.7124,133.0236)"
       inkscape:export-filename="/Users/yaron/sulphur.png"
       inkscape:export-xdpi="300"
       inkscape:export-ydpi="300">
      <path
         d="m 0,0 c -0.263,-0.609 -0.644,-0.806 -1.157,-0.583 l -4.145,1.769 c -0.16,0.213 -0.157,0.512 0.01,0.905 0.166,0.397 0.385,0.602 0.644,0.614 l 2.506,-1.073 c 0.125,-0.056 0.235,0.009 0.32,0.199 l 1.854,4.342 c 0.211,0.49 0.244,0.937 0.097,1.353 -0.148,0.411 -0.436,0.708 -0.865,0.892 -0.403,0.173 -0.759,0.19 -1.058,0.057 -0.168,0.279 -0.171,0.605 -0.012,0.973 0.16,0.385 0.389,0.582 0.679,0.594 C -0.729,10.102 -0.217,10 0.414,9.729 2.526,8.827 3.106,7.264 2.154,5.04 Z"
         style="fill:#ffffff;fill-opacity:1;fill-rule:nonzero;stroke:none"
         id="path2581"
         inkscape:connector-curvature="0" />
    </g>
    <g
       id="g2583"
       transform="matrix(0.35277777,0,0,-0.35277777,109.5578,138.62857)"
       inkscape:export-filename="/Users/yaron/sulphur.png"
       inkscape:export-xdpi="300"
       inkscape:export-ydpi="300">
      <path
         d="m 0,0 c 0,0.979 -0.649,1.814 -1.564,2.161 0.457,0.369 0.728,0.793 0.728,1.288 0,3.736 -3.392,6.762 -7.578,6.762 -4.188,0 -7.58,-3.026 -7.58,-6.762 0,-0.495 0.274,-0.919 0.732,-1.288 C -16.179,1.814 -16.829,0.979 -16.829,0 l -2.966,-20.528 c 0,-1.295 2.532,-2.344 2.532,-2.344 0,0 3.533,-1.205 8.886,-1.205 5.354,0 8.816,1.205 8.816,1.205 0,0 2.527,1.049 2.527,2.344 z"
         style="fill:#ffffff;fill-opacity:1;fill-rule:nonzero;stroke:none"
         id="path2585"
         inkscape:connector-curvature="0" />
    </g>
    <g
       id="g2587"
       transform="matrix(0.35277777,0,0,-0.35277777,104.31715,145.7229)"
       inkscape:export-filename="/Users/yaron/sulphur.png"
       inkscape:export-xdpi="300"
       inkscape:export-ydpi="300">
      <path
         d="m 0,0 c -0.023,0 -0.051,0.002 -0.076,0.002 -0.486,0.045 -0.835,0.465 -0.797,0.949 l 1.487,16.657 c 0.038,0.476 0.435,0.835 0.947,0.786 0.474,-0.038 0.834,-0.469 0.785,-0.946 L 0.87,0.795 C 0.824,0.344 0.443,0 0,0 m 12.882,0 c -0.443,0 -0.826,0.344 -0.868,0.795 l -1.477,16.653 c -0.05,0.477 0.31,0.908 0.785,0.946 0.514,0.049 0.907,-0.31 0.947,-0.786 L 13.755,0.951 C 13.793,0.467 13.445,0.047 12.96,0.002 12.931,0.002 12.907,0 12.882,0 M 6.451,-0.689 c -0.485,0 -0.875,0.39 -0.875,0.867 v 17.085 c 0,0.486 0.39,0.872 0.875,0.872 0.479,0 0.867,-0.386 0.867,-0.872 V 0.178 c 0,-0.477 -0.388,-0.867 -0.867,-0.867 M 4.149,26.814 c 0,-0.397 -0.467,-0.719 -1.044,-0.719 -0.576,0 -1.044,0.322 -1.044,0.719 0,0.403 0.468,0.722 1.044,0.722 0.577,0 1.044,-0.319 1.044,-0.722 m 6.669,0 c 0,-0.397 -0.463,-0.719 -1.04,-0.719 -0.571,0 -1.042,0.322 -1.042,0.719 0,0.403 0.471,0.722 1.042,0.722 0.577,0 1.04,-0.319 1.04,-0.722 m -3.33,-1.347 c 0,-0.407 -0.467,-0.723 -1.048,-0.723 -0.577,0 -1.044,0.316 -1.044,0.723 0,0.393 0.467,0.715 1.044,0.715 0.581,0 1.048,-0.322 1.048,-0.715 m 0.061,2.473 c 0,-0.403 -0.465,-0.722 -1.04,-0.722 -0.578,0 -1.046,0.319 -1.046,0.722 0,0.397 0.468,0.719 1.046,0.719 0.575,0 1.04,-0.322 1.04,-0.719 M 15.011,-1.937 C 14.976,-1.953 11.624,-3.09 6.478,-3.09 c -5.111,0 -8.546,1.133 -8.554,1.133 -0.967,0.404 -1.922,1.127 -1.988,1.5 l 2.955,20.438 0.011,0.129 c 0,0.465 0.252,0.885 0.645,1.154 1.666,-0.985 4.406,-1.381 6.893,-1.381 2.489,0 5.23,0.396 6.897,1.381 0.394,-0.269 0.646,-0.689 0.646,-1.154 L 16.95,-0.457 C 16.884,-0.83 15.931,-1.553 15.011,-1.937 M -0.262,23.559 c 0,3.245 3.006,5.884 6.702,5.884 3.698,0 6.705,-2.639 6.705,-5.884 0,-0.626 -0.821,-0.885 -0.821,-0.885 C 11.231,22.095 9.11,21.63 6.44,21.63 c -2.667,0 -4.79,0.465 -5.883,1.044 0,0 -0.819,0.311 -0.819,0.885 m 15.986,-3.387 c -0.017,0.919 -0.451,1.731 -1.121,2.307 0.181,0.328 0.285,0.683 0.285,1.08 0,4.208 -3.787,7.632 -8.448,7.632 -4.656,0 -8.444,-3.424 -8.444,-7.632 0,-0.397 0.104,-0.753 0.285,-1.08 -0.671,-0.576 -1.103,-1.388 -1.12,-2.307 L -5.803,-0.289 -5.811,-0.418 c 0,-1.787 2.553,-2.939 3.119,-3.176 0.148,-0.045 3.737,-1.242 9.17,-1.242 5.437,0 8.957,1.199 9.154,1.27 0.516,0.209 3.064,1.361 3.064,3.148 z"
         style="fill:#d32011;fill-opacity:1;fill-rule:nonzero;stroke:none"
         id="path2589"
         inkscape:connector-curvature="0" />
    </g>
    <g
       id="g2591"
       transform="matrix(0.35277777,0,0,-0.35277777,95.66598,147.71211)"
       inkscape:export-filename="/Users/yaron/sulphur.png"
       inkscape:export-xdpi="300"
       inkscape:export-ydpi="300">
      <path
         d="M 0,0 C -0.325,0.104 -0.576,0.348 -0.754,0.736 -0.932,1.121 -0.958,1.469 -0.826,1.783 L 3.315,3.699 C 4.056,4.045 4.545,4.52 4.783,5.121 5.02,5.727 4.98,6.373 4.661,7.062 4.295,7.854 3.722,8.471 2.944,8.914 3.006,9.162 3.193,9.355 3.496,9.498 3.769,9.623 4.042,9.641 4.322,9.553 5.013,9.107 5.616,8.326 6.136,7.207 6.635,6.129 6.749,5.143 6.476,4.246 6.177,3.277 5.455,2.527 4.309,1.996 Z M -2.077,4.482 C -2.407,4.604 -2.664,4.855 -2.84,5.24 -3.015,5.619 -3.035,5.961 -2.902,6.264 L 1.453,8.281 C 1.805,8.215 2.069,7.994 2.242,7.619 2.419,7.24 2.431,6.867 2.279,6.498 Z"
         style="fill:#ffffff;fill-opacity:1;fill-rule:nonzero;stroke:none"
         id="path2593"
         inkscape:connector-curvature="0" />
    </g>
    <g
       id="g2595"
       transform="matrix(0.35277777,0,0,-0.35277777,97.86068,150.47644)"
       inkscape:export-filename="/Users/yaron/sulphur.png"
       inkscape:export-xdpi="300"
       inkscape:export-ydpi="300">
      <path
         d="M 0,0 C -0.337,0.01 -0.646,0.176 -0.928,0.5 -1.207,0.818 -1.323,1.146 -1.286,1.482 L 2.161,4.473 C 2.779,5.01 3.119,5.602 3.178,6.248 3.239,6.893 3.02,7.502 2.522,8.078 1.952,8.736 1.231,9.17 0.359,9.379 0.353,9.637 0.476,9.873 0.73,10.096 0.956,10.291 1.215,10.385 1.51,10.375 2.295,10.141 3.091,9.557 3.901,8.625 4.68,7.727 5.062,6.811 5.048,5.873 5.029,4.861 4.543,3.939 3.589,3.111 Z m -3.236,3.73 c -0.353,0.026 -0.665,0.198 -0.943,0.518 -0.275,0.314 -0.387,0.639 -0.344,0.967 l 3.626,3.144 C -0.539,8.393 -0.226,8.254 0.046,7.941 0.32,7.627 0.436,7.271 0.39,6.875 Z"
         style="fill:#ffffff;fill-opacity:1;fill-rule:nonzero;stroke:none"
         id="path2597"
         inkscape:connector-curvature="0" />
    </g>
    <g
       id="g2599"
       transform="matrix(0.35277777,0,0,-0.35277777,99.102989,151.44591)"
       inkscape:export-filename="/Users/yaron/sulphur.png"
       inkscape:export-xdpi="300"
       inkscape:export-ydpi="300">
      <path
         d="m 0,0 c -0.322,-0.074 -0.66,0.027 -1.013,0.303 -0.358,0.279 -0.538,0.58 -0.538,0.902 L 3.486,7.676 C 3.766,7.746 4.095,7.633 4.475,7.338 4.843,7.051 5.032,6.76 5.036,6.469 Z"
         style="fill:#ffffff;fill-opacity:1;fill-rule:nonzero;stroke:none"
         id="path2601"
         inkscape:connector-curvature="0" />
    </g>
    <g
       id="g2603"
       transform="matrix(0.35277777,0,0,-0.35277777,102.24938,152.75365)"
       inkscape:export-filename="/Users/yaron/sulphur.png"
       inkscape:export-xdpi="300"
       inkscape:export-ydpi="300">
      <path
         d="m 0,0 c 0.086,-0.207 0.056,-0.451 -0.089,-0.738 -0.145,-0.291 -0.334,-0.467 -0.567,-0.533 l -6.46,3.253 c -0.078,0.221 -0.042,0.475 0.103,0.766 0.15,0.297 0.329,0.467 0.541,0.512 l 4.437,-2.235 c -0.13,0.395 -0.022,0.94 0.33,1.637 l 0.776,1.541 c 0.324,0.645 0.405,1.281 0.242,1.908 -0.176,0.653 -0.585,1.141 -1.232,1.467 -0.624,0.315 -1.319,0.428 -2.088,0.342 -0.064,0.246 -0.025,0.508 0.115,0.789 0.128,0.256 0.318,0.441 0.562,0.553 0.716,0.06 1.565,-0.158 2.555,-0.657 C 0.24,8.094 0.897,7.375 1.199,6.445 1.513,5.48 1.388,4.439 0.828,3.326 L -0.239,1.205 C -0.529,0.629 -0.554,0.279 -0.312,0.158 Z"
         style="fill:#ffffff;fill-opacity:1;fill-rule:nonzero;stroke:none"
         id="path2605"
         inkscape:connector-curvature="0" />
    </g>
    <g
       id="g2607"
       transform="matrix(0.35277777,0,0,-0.35277777,104.55002,153.75755)"
       inkscape:export-filename="/Users/yaron/sulphur.png"
       inkscape:export-xdpi="300"
       inkscape:export-ydpi="300">
      <path
         d="m 0,0 c -0.238,-0.207 -0.574,-0.26 -1.011,-0.156 -0.446,0.103 -0.743,0.302 -0.888,0.597 l 0.751,3.233 -0.075,0.017 C -1.64,3.787 -2.031,3.668 -2.395,3.334 -2.758,2.998 -3.013,2.508 -3.163,1.863 L -3.412,0.795 C -3.658,0.594 -3.971,0.539 -4.353,0.627 -4.751,0.719 -5.004,0.908 -5.118,1.189 l 0.249,1.071 c 0.23,0.986 0.679,1.703 1.347,2.144 0.667,0.444 1.464,0.561 2.385,0.344 l 0.225,-0.053 0.222,0.951 c 0.124,0.53 0.102,0.979 -0.064,1.352 -0.178,0.398 -0.501,0.65 -0.969,0.76 -0.492,0.113 -0.938,0.013 -1.341,-0.299 -0.149,0.252 -0.189,0.531 -0.117,0.838 0.064,0.285 0.202,0.496 0.411,0.631 0.505,0.211 1.12,0.232 1.844,0.062 C 0.982,8.549 1.678,7.219 1.162,5.006 Z"
         style="fill:#ffffff;fill-opacity:1;fill-rule:nonzero;stroke:none"
         id="path2609"
         inkscape:connector-curvature="0" />
    </g>
    <g
       id="g2611"
       transform="matrix(0.35277777,0,0,-0.35277777,110.02082,153.47918)"
       inkscape:export-filename="/Users/yaron/sulphur.png"
       inkscape:export-xdpi="300"
       inkscape:export-ydpi="300">
      <path
         d="m 0,0 c -0.136,-0.279 -0.437,-0.457 -0.904,-0.535 -0.482,-0.08 -0.827,-0.01 -1.036,0.215 l -0.897,5.424 c -0.074,0.439 -0.236,0.773 -0.484,1.005 -0.25,0.229 -0.552,0.317 -0.906,0.256 L -5.681,6.125 C -5.888,6.092 -5.927,5.689 -5.798,4.92 l 0.541,-3.274 c 0.317,-1.9 -0.317,-2.98 -1.896,-3.242 -0.397,-0.066 -0.731,-0.031 -1.001,0.106 -0.233,0.127 -0.376,0.342 -0.426,0.648 -0.051,0.305 0.014,0.565 0.187,0.781 0.176,-0.175 0.376,-0.244 0.602,-0.207 0.563,0.094 0.767,0.606 0.613,1.538 l -0.459,2.775 c -0.147,0.883 -0.05,1.484 0.29,1.805 L -9.022,5.572 c -0.217,0.119 -0.353,0.35 -0.41,0.692 -0.054,0.326 0.004,0.578 0.17,0.754 l 4.986,0.826 c 1.931,0.318 3.061,-0.514 3.39,-2.498 z"
         style="fill:#ffffff;fill-opacity:1;fill-rule:nonzero;stroke:none"
         id="path2613"
         inkscape:connector-curvature="0" />
    </g>
    <g
       id="g2615"
       transform="matrix(0.35277777,0,0,-0.35277777,111.53428,152.85286)"
       inkscape:export-filename="/Users/yaron/sulphur.png"
       inkscape:export-xdpi="300"
       inkscape:export-ydpi="300">
      <path
         d="m 0,0 c -0.096,-0.314 -0.354,-0.555 -0.771,-0.723 -0.42,-0.17 -0.771,-0.173 -1.049,-0.011 l -3.067,7.603 c 0.079,0.277 0.342,0.508 0.788,0.686 0.434,0.175 0.779,0.191 1.035,0.049 z"
         style="fill:#ffffff;fill-opacity:1;fill-rule:nonzero;stroke:none"
         id="path2617"
         inkscape:connector-curvature="0" />
    </g>
    <g
       id="g2619"
       transform="matrix(0.35277777,0,0,-0.35277777,114.27829,150.00171)"
       inkscape:export-filename="/Users/yaron/sulphur.png"
       inkscape:export-xdpi="300"
       inkscape:export-ydpi="300">
      <path
         d="M 0,0 C 0.657,-0.941 0.896,-1.82 0.716,-2.637 0.563,-3.318 0.142,-3.9 -0.55,-4.387 c -0.502,-0.349 -0.926,-0.519 -1.268,-0.508 -0.218,0.079 -0.4,0.221 -0.541,0.426 -0.187,0.266 -0.247,0.504 -0.183,0.715 0.353,0.002 0.631,0.074 0.836,0.219 0.334,0.232 0.523,0.556 0.562,0.969 0.051,0.445 -0.085,0.896 -0.406,1.353 L -3.331,1.332 C -3.543,1.635 -3.794,1.824 -4.081,1.898 -4.338,1.965 -4.567,1.926 -4.767,1.787 -5.161,1.512 -5.245,0.982 -5.021,0.199 l 1.719,-6.004 C -3.321,-6.129 -3.545,-6.441 -3.971,-6.74 -4.418,-7.053 -4.772,-7.145 -5.03,-7.014 l -1.343,5.215 c -0.118,-0.117 -0.278,-0.185 -0.481,-0.207 -0.204,-0.023 -0.375,0.012 -0.522,0.102 l -2.498,1.506 c -0.037,0.259 0.153,0.535 0.575,0.83 0.413,0.291 0.764,0.392 1.054,0.31 l 2.055,-1.191 -0.135,0.502 c -0.371,1.373 -0.035,2.426 1.009,3.158 0.577,0.402 1.159,0.57 1.746,0.504 0.702,-0.078 1.316,-0.494 1.843,-1.25 z"
         style="fill:#ffffff;fill-opacity:1;fill-rule:nonzero;stroke:none"
         id="path2621"
         inkscape:connector-curvature="0" />
    </g>
    <g
       id="g2623"
       transform="matrix(0.35277777,0,0,-0.35277777,115.97533,147.33866)"
       inkscape:export-filename="/Users/yaron/sulphur.png"
       inkscape:export-xdpi="300"
       inkscape:export-ydpi="300">
      <path
         d="M 0,0 C 1.103,-0.879 1.695,-1.934 1.783,-3.164 1.859,-4.26 1.542,-5.252 0.838,-6.135 0.266,-6.848 -0.328,-7.324 -0.951,-7.566 c -0.265,-0.063 -0.532,0.015 -0.804,0.232 -0.282,0.227 -0.408,0.463 -0.377,0.711 0.624,0.121 1.111,0.404 1.466,0.848 0.495,0.621 0.707,1.306 0.633,2.056 -0.083,0.811 -0.497,1.512 -1.243,2.108 -0.75,0.599 -1.531,0.847 -2.336,0.75 -0.748,-0.094 -1.371,-0.453 -1.866,-1.075 -0.376,-0.468 -0.552,-1 -0.533,-1.591 -0.252,-0.057 -0.508,0.015 -0.761,0.218 -0.272,0.217 -0.413,0.457 -0.42,0.725 0.095,0.635 0.437,1.316 1.015,2.045 0.715,0.893 1.615,1.42 2.701,1.584 C -2.262,1.229 -1.101,0.881 0,0"
         style="fill:#ffffff;fill-opacity:1;fill-rule:nonzero;stroke:none"
         id="path2625"
         inkscape:connector-curvature="0" />
    </g>
    <g
       id="g2627"
       transform="matrix(0.35277777,0,0,-0.35277777,118.10991,145.18685)"
       inkscape:export-filename="/Users/yaron/sulphur.png"
       inkscape:export-xdpi="300"
       inkscape:export-ydpi="300">
      <path
         d="m 0,0 c 0.202,0.094 0.449,0.074 0.74,-0.059 0.297,-0.136 0.483,-0.318 0.556,-0.548 l -2.999,-6.58 c -0.219,-0.086 -0.477,-0.061 -0.772,0.074 -0.301,0.136 -0.478,0.31 -0.531,0.519 l 2.06,4.522 c -0.389,-0.147 -0.938,-0.059 -1.649,0.265 l -1.568,0.715 c -0.657,0.299 -1.297,0.356 -1.918,0.168 -0.645,-0.199 -1.117,-0.627 -1.418,-1.285 -0.289,-0.637 -0.375,-1.336 -0.26,-2.102 -0.242,-0.074 -0.506,-0.044 -0.792,0.084 -0.262,0.122 -0.454,0.299 -0.575,0.541 -0.088,0.711 0.099,1.571 0.556,2.579 0.472,1.033 1.168,1.718 2.083,2.056 0.954,0.352 1.996,0.268 3.132,-0.25 l 2.161,-0.984 c 0.586,-0.268 0.936,-0.279 1.048,-0.033 z"
         style="fill:#ffffff;fill-opacity:1;fill-rule:nonzero;stroke:none"
         id="path2629"
         inkscape:connector-curvature="0" />
    </g>
  </g>
</svg>
