<?xml version="1.0" encoding="UTF-8" standalone="no"?>
<svg
   xmlns:dc="http://purl.org/dc/elements/1.1/"
   xmlns:cc="http://creativecommons.org/ns#"
   xmlns:rdf="http://www.w3.org/1999/02/22-rdf-syntax-ns#"
   xmlns:svg="http://www.w3.org/2000/svg"
   xmlns="http://www.w3.org/2000/svg"
   xmlns:sodipodi="http://sodipodi.sourceforge.net/DTD/sodipodi-0.dtd"
   xmlns:inkscape="http://www.inkscape.org/namespaces/inkscape"
   sodipodi:docname="fat-300x300.svg"
   inkscape:version="1.0beta2 (2b71d25, 2019-12-03)"
   id="svg3074"
   version="1.1"
   viewBox="0 0 29.460825 29.460472"
   height="29.460472mm"
   width="29.460825mm">
  <defs
     id="defs3068" />
  <sodipodi:namedview
     inkscape:window-maximized="0"
     inkscape:window-y="23"
     inkscape:window-x="0"
     inkscape:window-height="855"
     inkscape:window-width="1440"
     fit-margin-bottom="0"
     fit-margin-right="0"
     fit-margin-left="0"
     fit-margin-top="0"
     showgrid="false"
     inkscape:document-rotation="0"
     inkscape:current-layer="layer1"
     inkscape:document-units="mm"
     inkscape:cy="8.1148331"
     inkscape:cx="-101.5044"
     inkscape:zoom="1.4"
     inkscape:pageshadow="2"
     inkscape:pageopacity="0.0"
     borderopacity="1.0"
     bordercolor="#666666"
     pagecolor="#ffffff"
     id="base" />
  <metadata
     id="metadata3071">
    <rdf:RDF>
      <cc:Work
         rdf:about="">
        <dc:format>image/svg+xml</dc:format>
        <dc:type
           rdf:resource="http://purl.org/dc/dcmitype/StillImage" />
        <dc:title></dc:title>
      </cc:Work>
    </rdf:RDF>
  </metadata>
  <g
     transform="translate(-54.817207,-123.60905)"
     id="layer1"
     inkscape:groupmode="layer"
     inkscape:label="Layer 1">
    <g
       id="g2631"
       transform="matrix(0.35277777,0,0,-0.35277777,84.278031,138.3407)"
       inkscape:export-filename="/Users/yaron/shuman.png"
       inkscape:export-xdpi="300"
       inkscape:export-ydpi="300">
      <path
         d="m 0,0 c 0,-23.06 -18.694,-41.751 -41.755,-41.751 -23.062,0 -41.756,18.691 -41.756,41.751 0,23.066 18.694,41.759 41.756,41.759 C -18.694,41.759 0,23.066 0,0"
         style="fill:#ffffff;fill-opacity:1;fill-rule:nonzero;stroke:none"
         id="path2633"
         inkscape:connector-curvature="0" />
    </g>
    <g
       id="g2635"
       transform="matrix(0.35277777,0,0,-0.35277777,69.547829,124.38206)"
       inkscape:export-filename="/Users/yaron/shuman.png"
       inkscape:export-xdpi="300"
       inkscape:export-ydpi="300">
      <path
         d="m 0,0 c -21.853,0 -39.567,-17.711 -39.567,-39.568 0,-21.849 17.714,-39.56 39.567,-39.56 21.852,0 39.567,17.711 39.567,39.56 C 39.567,-17.711 21.852,0 0,0"
         style="fill:#d32011;fill-opacity:1;fill-rule:nonzero;stroke:none"
         id="path2637"
         inkscape:connector-curvature="0" />
    </g>
    <g
       id="g2639"
       transform="matrix(0.35277777,0,0,-0.35277777,69.547829,130.27246)"
       inkscape:export-filename="/Users/yaron/shuman.png"
       inkscape:export-xdpi="300"
       inkscape:export-ydpi="300">
      <path
         d="m 0,0 c 12.615,0 22.865,-10.254 22.865,-22.871 0,-12.61 -10.25,-22.862 -22.865,-22.862 -12.616,0 -22.866,10.252 -22.866,22.862 C -22.866,-10.254 -12.616,0 0,0"
         style="fill:#ffffff;fill-opacity:1;fill-rule:nonzero;stroke:none"
         id="path2641"
         inkscape:connector-curvature="0" />
    </g>
    <g
       id="g2643"
       transform="matrix(0.35277777,0,0,-0.35277777,61.532825,131.03365)"
       inkscape:export-filename="/Users/yaron/shuman.png"
       inkscape:export-xdpi="300"
       inkscape:export-ydpi="300">
      <path
         d="m 0,0 c 0.062,-0.381 -0.081,-0.787 -0.429,-1.212 -0.354,-0.43 -0.722,-0.641 -1.102,-0.642 l -4.016,3.308 c -0.061,0.336 0.093,0.73 0.466,1.183 0.367,0.442 0.721,0.667 1.067,0.673 z"
         style="fill:#ffffff;fill-opacity:1;fill-rule:nonzero;stroke:none"
         id="path2645"
         inkscape:connector-curvature="0" />
    </g>
    <g
       id="g2647"
       transform="matrix(0.35277777,0,0,-0.35277777,63.673939,131.04314)"
       inkscape:export-filename="/Users/yaron/shuman.png"
       inkscape:export-xdpi="300"
       inkscape:export-ydpi="300">
      <path
         d="M 0,0 C 0.004,-0.387 -0.197,-0.766 -0.604,-1.135 -1.019,-1.508 -1.41,-1.666 -1.789,-1.615 L -8.116,5.4 c -0.017,0.343 0.197,0.711 0.634,1.102 0.422,0.388 0.81,0.558 1.153,0.511 z"
         style="fill:#ffffff;fill-opacity:1;fill-rule:nonzero;stroke:none"
         id="path2649"
         inkscape:connector-curvature="0" />
    </g>
    <g
       id="g2651"
       transform="matrix(0.35277777,0,0,-0.35277777,64.792561,130.24974)"
       inkscape:export-filename="/Users/yaron/shuman.png"
       inkscape:export-xdpi="300"
       inkscape:export-ydpi="300">
      <path
         d="M 0,0 C -0.054,-0.387 -0.306,-0.732 -0.764,-1.036 -1.228,-1.342 -1.642,-1.443 -2.008,-1.332 L -7.23,6.539 c 0.036,0.336 0.297,0.669 0.786,0.994 0.482,0.317 0.886,0.431 1.216,0.336 z"
         style="fill:#ffffff;fill-opacity:1;fill-rule:nonzero;stroke:none"
         id="path2653"
         inkscape:connector-curvature="0" />
    </g>
    <g
       id="g2655"
       transform="matrix(0.35277777,0,0,-0.35277777,67.208278,129.14833)"
       inkscape:export-filename="/Users/yaron/shuman.png"
       inkscape:export-xdpi="300"
       inkscape:export-ydpi="300">
      <path
         d="m 0,0 c -0.081,-0.358 -0.392,-0.65 -0.933,-0.872 -0.563,-0.231 -0.995,-0.249 -1.288,-0.047 l -1.993,4.825 c -0.303,0.728 -0.789,1.261 -1.454,1.6 -0.718,0.36 -1.46,0.383 -2.223,0.065 -0.803,-0.333 -1.429,-0.84 -1.868,-1.521 -0.315,0.06 -0.547,0.27 -0.697,0.636 -0.147,0.35 -0.137,0.685 0.019,1.002 0.484,0.624 1.335,1.188 2.549,1.688 1.269,0.527 2.428,0.567 3.484,0.131 1.05,-0.434 1.854,-1.327 2.414,-2.672 z"
         style="fill:#ffffff;fill-opacity:1;fill-rule:nonzero;stroke:none"
         id="path2657"
         inkscape:connector-curvature="0" />
    </g>
    <g
       id="g2659"
       transform="matrix(0.35277777,0,0,-0.35277777,69.766939,129.88662)"
       inkscape:export-filename="/Users/yaron/shuman.png"
       inkscape:export-xdpi="300"
       inkscape:export-ydpi="300">
      <path
         d="m 0,0 c -0.247,-0.299 -0.646,-0.454 -1.196,-0.465 -0.562,-0.007 -0.963,0.135 -1.208,0.424 l -0.231,12.147 c 0.215,0.264 0.617,0.404 1.199,0.413 0.577,0.011 0.976,-0.113 1.206,-0.372 z"
         style="fill:#ffffff;fill-opacity:1;fill-rule:nonzero;stroke:none"
         id="path2661"
         inkscape:connector-curvature="0" />
    </g>
    <g
       id="g2663"
       transform="matrix(0.35277777,0,0,-0.35277777,73.734313,128.59454)"
       inkscape:export-filename="/Users/yaron/shuman.png"
       inkscape:export-xdpi="300"
       inkscape:export-ydpi="300">
      <path
         d="m 0,0 c -0.386,-1.269 -1.036,-2.103 -1.949,-2.504 -0.757,-0.336 -1.638,-0.353 -2.625,-0.052 -0.72,0.217 -1.209,0.49 -1.462,0.813 -0.092,0.259 -0.092,0.523 -0.006,0.8 0.105,0.356 0.286,0.581 0.53,0.668 0.276,-0.323 0.561,-0.532 0.851,-0.622 0.479,-0.147 0.927,-0.094 1.352,0.159 0.46,0.265 0.781,0.703 0.97,1.321 l 1.044,3.424 c 0.117,0.408 0.106,0.77 -0.048,1.091 C -1.475,5.381 -1.69,5.567 -1.976,5.653 -2.533,5.826 -3.105,5.532 -3.671,4.779 l -4.361,-5.785 c -0.327,-0.21 -0.796,-0.22 -1.404,-0.036 -0.635,0.194 -0.999,0.458 -1.07,0.789 l 3.902,4.885 C -6.806,4.659 -6.991,4.761 -7.166,4.929 -7.345,5.101 -7.451,5.287 -7.477,5.482 L -7.97,8.848 c 0.217,0.213 0.629,0.23 1.233,0.047 0.587,-0.182 0.954,-0.432 1.098,-0.758 l 0.458,-2.735 0.367,0.476 c 1.016,1.306 2.271,1.73 3.765,1.274 0.821,-0.25 1.43,-0.669 1.826,-1.257 0.46,-0.702 0.541,-1.563 0.23,-2.578 z"
         style="fill:#ffffff;fill-opacity:1;fill-rule:nonzero;stroke:none"
         id="path2665"
         inkscape:connector-curvature="0" />
    </g>
    <g
       id="g2667"
       transform="matrix(0.35277777,0,0,-0.35277777,74.415739,130.31761)"
       inkscape:export-filename="/Users/yaron/shuman.png"
       inkscape:export-xdpi="300"
       inkscape:export-ydpi="300">
      <path
         d="m 0,0 c -0.368,-0.131 -0.789,-0.06 -1.269,0.208 -0.487,0.274 -0.76,0.599 -0.832,0.973 L 2.532,9.414 C 2.851,9.534 3.271,9.451 3.78,9.163 4.281,8.881 4.566,8.573 4.632,8.231 Z"
         style="fill:#ffffff;fill-opacity:1;fill-rule:nonzero;stroke:none"
         id="path2669"
         inkscape:connector-curvature="0" />
    </g>
    <g
       id="g2671"
       transform="matrix(0.35277777,0,0,-0.35277777,77.06711,131.41468)"
       inkscape:export-filename="/Users/yaron/shuman.png"
       inkscape:export-xdpi="300"
       inkscape:export-ydpi="300">
      <path
         d="M 0,0 C -0.396,-0.021 -0.775,0.137 -1.133,0.474 -1.514,0.837 -1.706,1.213 -1.704,1.605 L 3.121,6.719 C 3.501,6.725 3.884,6.546 4.27,6.19 4.643,5.839 4.825,5.478 4.824,5.109 Z m 5.06,-1.175 c -1.186,-1.263 -2.497,-1.91 -3.924,-1.944 -1.433,-0.034 -2.786,0.554 -4.064,1.76 -1.275,1.198 -1.934,2.516 -1.976,3.953 -0.052,1.434 0.519,2.775 1.698,4.028 l 3.024,3.206 C 0.191,9.85 0.584,9.664 1.001,9.269 1.457,8.841 1.652,8.471 1.584,8.167 L -1.591,4.796 C -2.38,3.96 -2.795,3.096 -2.836,2.204 c -0.046,-0.893 0.301,-1.681 1.033,-2.371 0.73,-0.69 1.537,-0.999 2.421,-0.918 0.879,0.082 1.733,0.555 2.556,1.429 L 6.328,3.691 C 6.742,3.67 7.151,3.47 7.554,3.089 7.944,2.718 8.124,2.369 8.089,2.031 Z"
         style="fill:#ffffff;fill-opacity:1;fill-rule:nonzero;stroke:none"
         id="path2673"
         inkscape:connector-curvature="0" />
    </g>
    <g
       id="g2675"
       transform="matrix(0.35277777,0,0,-0.35277777,58.624454,144.68847)"
       inkscape:export-filename="/Users/yaron/shuman.png"
       inkscape:export-xdpi="300"
       inkscape:export-ydpi="300">
      <path
         d="M 0,0 C -0.325,0.104 -0.575,0.348 -0.754,0.736 -0.932,1.121 -0.958,1.469 -0.825,1.783 L 3.314,3.699 C 4.055,4.043 4.546,4.52 4.783,5.121 5.021,5.727 4.981,6.373 4.661,7.062 4.296,7.854 3.722,8.469 2.944,8.912 3.006,9.16 3.192,9.355 3.496,9.498 3.769,9.623 4.042,9.641 4.322,9.551 5.013,9.107 5.616,8.326 6.137,7.207 6.636,6.129 6.749,5.143 6.477,4.246 6.178,3.277 5.455,2.525 4.309,1.996 Z M -2.076,4.48 C -2.406,4.604 -2.663,4.855 -2.84,5.238 -3.015,5.619 -3.034,5.959 -2.902,6.264 L 1.454,8.281 C 1.806,8.215 2.069,7.992 2.242,7.619 2.42,7.238 2.432,6.867 2.279,6.498 Z"
         style="fill:#ffffff;fill-opacity:1;fill-rule:nonzero;stroke:none"
         id="path2677"
         inkscape:connector-curvature="0" />
    </g>
    <g
       id="g2679"
       transform="matrix(0.35277777,0,0,-0.35277777,60.819331,147.4528)"
       inkscape:export-filename="/Users/yaron/shuman.png"
       inkscape:export-xdpi="300"
       inkscape:export-ydpi="300">
      <path
         d="m 0,0 c -0.337,0.01 -0.647,0.176 -0.928,0.498 -0.279,0.32 -0.395,0.648 -0.358,0.984 L 2.16,4.471 C 2.778,5.01 3.118,5.6 3.178,6.248 3.238,6.893 3.02,7.502 2.522,8.076 1.951,8.736 1.231,9.17 0.359,9.379 0.353,9.635 0.477,9.873 0.729,10.094 0.955,10.289 1.215,10.383 1.51,10.375 2.295,10.139 3.092,9.557 3.901,8.623 4.681,7.727 5.062,6.811 5.048,5.873 5.029,4.861 4.542,3.939 3.588,3.111 Z m -3.237,3.73 c -0.352,0.026 -0.664,0.198 -0.944,0.518 -0.273,0.314 -0.385,0.639 -0.341,0.967 l 3.625,3.144 C -0.539,8.393 -0.226,8.254 0.046,7.941 0.319,7.625 0.436,7.271 0.389,6.875 Z"
         style="fill:#ffffff;fill-opacity:1;fill-rule:nonzero;stroke:none"
         id="path2681"
         inkscape:connector-curvature="0" />
    </g>
    <g
       id="g2683"
       transform="matrix(0.35277777,0,0,-0.35277777,62.061637,148.42227)"
       inkscape:export-filename="/Users/yaron/shuman.png"
       inkscape:export-xdpi="300"
       inkscape:export-ydpi="300">
      <path
         d="m 0,0 c -0.322,-0.074 -0.66,0.027 -1.013,0.303 -0.359,0.279 -0.539,0.58 -0.539,0.902 L 3.485,7.676 C 3.767,7.746 4.094,7.633 4.474,7.338 4.843,7.051 5.032,6.76 5.035,6.469 Z"
         style="fill:#ffffff;fill-opacity:1;fill-rule:nonzero;stroke:none"
         id="path2685"
         inkscape:connector-curvature="0" />
    </g>
    <g
       id="g2687"
       transform="matrix(0.35277777,0,0,-0.35277777,65.208028,149.73002)"
       inkscape:export-filename="/Users/yaron/shuman.png"
       inkscape:export-xdpi="300"
       inkscape:export-ydpi="300">
      <path
         d="m 0,0 c 0.085,-0.207 0.055,-0.453 -0.09,-0.738 -0.144,-0.291 -0.334,-0.469 -0.566,-0.533 l -6.46,3.253 c -0.079,0.219 -0.042,0.475 0.103,0.766 0.151,0.295 0.329,0.465 0.542,0.512 l 4.437,-2.235 c -0.132,0.395 -0.024,0.94 0.328,1.637 l 0.776,1.541 c 0.325,0.645 0.406,1.279 0.242,1.908 -0.175,0.653 -0.584,1.141 -1.232,1.467 -0.623,0.315 -1.319,0.428 -2.088,0.342 -0.063,0.244 -0.024,0.508 0.115,0.789 0.129,0.256 0.319,0.441 0.563,0.553 0.715,0.06 1.565,-0.158 2.555,-0.657 C 0.239,8.094 0.897,7.373 1.199,6.443 1.513,5.48 1.389,4.439 0.828,3.326 L -0.239,1.205 C -0.529,0.627 -0.555,0.279 -0.313,0.158 Z"
         style="fill:#ffffff;fill-opacity:1;fill-rule:nonzero;stroke:none"
         id="path2689"
         inkscape:connector-curvature="0" />
    </g>
    <g
       id="g2691"
       transform="matrix(0.35277777,0,0,-0.35277777,67.508667,150.73392)"
       inkscape:export-filename="/Users/yaron/shuman.png"
       inkscape:export-xdpi="300"
       inkscape:export-ydpi="300">
      <path
         d="m 0,0 c -0.238,-0.207 -0.574,-0.26 -1.012,-0.156 -0.446,0.101 -0.743,0.302 -0.887,0.597 l 0.75,3.233 -0.074,0.017 C -1.64,3.787 -2.031,3.668 -2.395,3.332 -2.759,2.998 -3.014,2.506 -3.164,1.861 L -3.412,0.793 C -3.658,0.594 -3.971,0.539 -4.354,0.627 -4.752,0.719 -5.005,0.906 -5.117,1.189 l 0.249,1.071 c 0.229,0.986 0.679,1.701 1.346,2.144 0.668,0.444 1.463,0.559 2.386,0.344 l 0.224,-0.053 0.221,0.951 c 0.125,0.528 0.104,0.979 -0.063,1.352 -0.179,0.397 -0.501,0.65 -0.969,0.76 -0.492,0.113 -0.938,0.013 -1.341,-0.299 -0.15,0.252 -0.189,0.531 -0.118,0.838 0.065,0.285 0.203,0.494 0.412,0.631 0.504,0.211 1.119,0.232 1.844,0.062 C 0.981,8.547 1.678,7.219 1.162,5.006 Z"
         style="fill:#ffffff;fill-opacity:1;fill-rule:nonzero;stroke:none"
         id="path2693"
         inkscape:connector-curvature="0" />
    </g>
    <g
       id="g2695"
       transform="matrix(0.35277777,0,0,-0.35277777,72.979475,150.45555)"
       inkscape:export-filename="/Users/yaron/shuman.png"
       inkscape:export-xdpi="300"
       inkscape:export-ydpi="300">
      <path
         d="M 0,0 C -0.136,-0.279 -0.437,-0.459 -0.904,-0.537 -1.386,-0.615 -1.731,-0.545 -1.939,-0.32 L -2.838,5.104 C -2.911,5.543 -3.072,5.877 -3.321,6.107 -3.572,6.338 -3.873,6.424 -4.227,6.365 L -5.68,6.125 C -5.888,6.09 -5.927,5.689 -5.798,4.918 l 0.541,-3.273 c 0.315,-1.899 -0.318,-2.979 -1.896,-3.243 -0.397,-0.064 -0.73,-0.029 -1.002,0.108 -0.232,0.127 -0.375,0.342 -0.425,0.646 -0.051,0.307 0.013,0.567 0.188,0.783 0.175,-0.175 0.375,-0.244 0.601,-0.207 0.563,0.094 0.766,0.606 0.612,1.538 l -0.458,2.775 c -0.147,0.883 -0.05,1.484 0.289,1.805 L -9.022,5.572 c -0.216,0.117 -0.352,0.348 -0.41,0.69 -0.053,0.328 0.004,0.578 0.17,0.754 l 4.986,0.826 c 1.93,0.32 3.061,-0.512 3.39,-2.496 z"
         style="fill:#ffffff;fill-opacity:1;fill-rule:nonzero;stroke:none"
         id="path2697"
         inkscape:connector-curvature="0" />
    </g>
    <g
       id="g2699"
       transform="matrix(0.35277777,0,0,-0.35277777,74.492926,149.82922)"
       inkscape:export-filename="/Users/yaron/shuman.png"
       inkscape:export-xdpi="300"
       inkscape:export-ydpi="300">
      <path
         d="m 0,0 c -0.096,-0.314 -0.354,-0.557 -0.771,-0.725 -0.42,-0.168 -0.771,-0.171 -1.049,-0.009 l -3.066,7.603 c 0.078,0.277 0.34,0.506 0.786,0.686 0.434,0.175 0.779,0.191 1.035,0.049 z"
         style="fill:#ffffff;fill-opacity:1;fill-rule:nonzero;stroke:none"
         id="path2701"
         inkscape:connector-curvature="0" />
    </g>
    <g
       id="g2703"
       transform="matrix(0.35277777,0,0,-0.35277777,77.236587,146.97807)"
       inkscape:export-filename="/Users/yaron/shuman.png"
       inkscape:export-xdpi="300"
       inkscape:export-ydpi="300">
      <path
         d="m 0,0 c 0.658,-0.941 0.897,-1.82 0.716,-2.637 -0.153,-0.681 -0.573,-1.265 -1.266,-1.75 -0.502,-0.349 -0.925,-0.519 -1.268,-0.508 -0.216,0.079 -0.398,0.221 -0.541,0.426 -0.186,0.266 -0.246,0.504 -0.182,0.713 0.353,0.004 0.631,0.076 0.836,0.219 0.334,0.234 0.522,0.558 0.561,0.971 0.05,0.445 -0.085,0.896 -0.405,1.353 L -3.33,1.332 C -3.542,1.635 -3.793,1.822 -4.081,1.898 -4.339,1.963 -4.566,1.926 -4.767,1.785 -5.16,1.512 -5.244,0.982 -5.02,0.199 l 1.719,-6.004 c -0.02,-0.326 -0.244,-0.636 -0.67,-0.935 -0.446,-0.313 -0.8,-0.405 -1.058,-0.274 l -1.344,5.215 c -0.118,-0.117 -0.278,-0.187 -0.481,-0.207 -0.203,-0.023 -0.375,0.01 -0.52,0.102 l -2.499,1.506 c -0.037,0.257 0.153,0.535 0.574,0.83 0.414,0.289 0.765,0.392 1.055,0.31 l 2.055,-1.191 -0.135,0.5 c -0.371,1.375 -0.035,2.428 1.007,3.158 0.578,0.404 1.162,0.572 1.748,0.506 0.702,-0.078 1.316,-0.494 1.842,-1.25 z"
         style="fill:#ffffff;fill-opacity:1;fill-rule:nonzero;stroke:none"
         id="path2705"
         inkscape:connector-curvature="0" />
    </g>
    <g
       id="g2707"
       transform="matrix(0.35277777,0,0,-0.35277777,78.933659,144.31502)"
       inkscape:export-filename="/Users/yaron/shuman.png"
       inkscape:export-xdpi="300"
       inkscape:export-ydpi="300">
      <path
         d="M 0,0 C 1.104,-0.881 1.696,-1.934 1.784,-3.164 1.86,-4.26 1.542,-5.252 0.838,-6.135 0.267,-6.85 -0.326,-7.326 -0.95,-7.566 c -0.265,-0.063 -0.532,0.015 -0.804,0.232 -0.283,0.227 -0.41,0.463 -0.377,0.711 0.623,0.121 1.111,0.402 1.466,0.846 0.495,0.621 0.707,1.308 0.633,2.058 -0.083,0.809 -0.497,1.512 -1.243,2.106 -0.75,0.599 -1.531,0.849 -2.336,0.75 -0.748,-0.094 -1.372,-0.451 -1.868,-1.073 -0.374,-0.47 -0.551,-1 -0.53,-1.591 -0.254,-0.059 -0.509,0.013 -0.762,0.216 -0.272,0.217 -0.412,0.459 -0.421,0.727 0.096,0.633 0.436,1.314 1.017,2.045 0.713,0.893 1.613,1.42 2.699,1.582 C -2.26,1.229 -1.1,0.881 0,0"
         style="fill:#ffffff;fill-opacity:1;fill-rule:nonzero;stroke:none"
         id="path2709"
         inkscape:connector-curvature="0" />
    </g>
    <g
       id="g2711"
       transform="matrix(0.35277777,0,0,-0.35277777,81.068563,142.16322)"
       inkscape:export-filename="/Users/yaron/shuman.png"
       inkscape:export-xdpi="300"
       inkscape:export-ydpi="300">
      <path
         d="m 0,0 c 0.202,0.094 0.448,0.074 0.74,-0.059 0.297,-0.136 0.482,-0.318 0.555,-0.548 l -2.998,-6.58 c -0.219,-0.086 -0.477,-0.061 -0.772,0.074 -0.301,0.136 -0.479,0.31 -0.531,0.519 l 2.06,4.522 c -0.389,-0.147 -0.94,-0.061 -1.649,0.265 l -1.569,0.713 c -0.657,0.301 -1.296,0.358 -1.917,0.17 -0.645,-0.199 -1.116,-0.627 -1.418,-1.287 -0.291,-0.635 -0.375,-1.336 -0.26,-2.1 -0.242,-0.074 -0.507,-0.046 -0.792,0.084 -0.262,0.12 -0.454,0.299 -0.575,0.541 -0.088,0.711 0.099,1.571 0.557,2.577 0.471,1.035 1.167,1.72 2.083,2.058 0.952,0.352 1.995,0.268 3.13,-0.25 l 2.161,-0.984 c 0.587,-0.27 0.937,-0.279 1.049,-0.035 z"
         style="fill:#ffffff;fill-opacity:1;fill-rule:nonzero;stroke:none"
         id="path2713"
         inkscape:connector-curvature="0" />
    </g>
    <g
       id="g2715"
       transform="matrix(0.35277777,0,0,-0.35277777,82.1245,134.01296)"
       inkscape:export-filename="/Users/yaron/shuman.png"
       inkscape:export-xdpi="300"
       inkscape:export-ydpi="300">
      <path
         d="m 0,0 c -0.431,1.536 -2.276,1.521 -3.291,1.179 l -19.434,-5.264 -0.964,1.88 c -0.725,1.361 -1.12,2.493 -2.496,2.493 H -44.65 c -1.374,0 -1.896,-1.197 -2.489,-2.493 l -3.766,-7.423 c -0.145,-0.306 -0.178,-0.572 -0.168,-0.817 -0.179,-0.343 -0.289,-0.725 -0.289,-1.137 v -1.953 c -0.473,-0.392 -0.816,-1.043 -1.315,-2.035 l -1.465,-3.006 c -0.51,-1.22 1.268,-2.488 2.827,-2.488 h 31.538 c 1.562,0 3.299,1.084 2.828,2.488 l -1.465,3.006 c -0.307,0.383 -0.537,0.735 -0.743,1.051 v 2.937 c 0,0.64 -0.251,1.217 -0.653,1.655 -0.022,0.099 -0.03,0.193 -0.074,0.299 l -0.075,0.145 c 0.667,0.776 0.745,1.495 0.858,2.019 L -2.21,-2.75 C -0.519,-2.142 0.344,-1.228 0,0"
         style="fill:#ffffff;fill-opacity:1;fill-rule:nonzero;stroke:none"
         id="path2717"
         inkscape:connector-curvature="0" />
    </g>
    <g
       id="g2719"
       transform="matrix(0.35277777,0,0,-0.35277777,81.264955,134.7032)"
       inkscape:export-filename="/Users/yaron/shuman.png"
       inkscape:export-xdpi="300"
       inkscape:export-ydpi="300">
      <path
         d="m 0,0 -17.364,-4.849 -0.15,-0.695 c -0.187,-0.944 -0.5,-2.523 -5.835,-3.877 -2.056,-0.522 -4.753,-0.822 -7.392,-0.822 -3.868,0 -6.311,0.606 -7.067,1.221 -0.208,0.304 -0.158,0.45 -0.138,0.506 0.136,0.403 0.988,1.006 2.583,1.446 l 34.772,9.424 c 0.274,0.092 0.606,0.144 0.913,0.144 0.734,0 1.177,-0.257 1.321,-0.764 C 1.714,1.477 1.934,0.695 0,0 m -15.438,-17.432 c -0.328,-0.455 -1.147,-0.798 -1.903,-0.798 h -31.537 c -0.823,0 -1.647,0.472 -1.938,0.91 -0.141,0.213 -0.1,0.316 -0.1,0.316 l 1.449,2.981 c 0.538,-1.118 1.67,-1.899 2.99,-1.899 h 27.304 c 1.102,0 2.071,0.545 2.678,1.373 l 1.151,-2.349 c 0.046,-0.135 0.07,-0.303 -0.094,-0.534 m -32.612,7.807 c 0,0.363 0.123,0.7 0.329,0.967 0.289,0.37 0.74,0.611 1.244,0.611 h 4.028 c -0.049,-0.363 -0.075,-0.743 -0.061,-1.152 0.019,-0.474 0.406,-0.845 0.875,-0.845 0.012,0 0.023,0 0.033,0.002 0.484,0.017 0.862,0.423 0.844,0.907 -0.124,3.42 2.985,4.22 3.125,4.255 0.47,0.11 0.763,0.581 0.654,1.05 -0.11,0.472 -0.582,0.769 -1.053,0.656 -1.137,-0.263 -2.967,-1.214 -3.897,-3.121 h -4.548 c -0.112,0 -0.219,-0.023 -0.328,-0.035 l 2.933,5.788 c 0.62,1.357 0.943,1.91 1.658,1.91 h 18.466 c 0.609,0 0.836,-0.311 1.467,-1.539 l 0.74,-1.443 -14.26,-3.865 c -1.437,-0.396 -3.248,-1.154 -3.708,-2.505 -0.163,-0.479 -0.22,-1.232 0.43,-2.095 l 0.1,-0.109 c 1.673,-1.539 6.317,-1.705 8.238,-1.705 2.771,0 5.615,0.319 7.798,0.873 2.529,0.643 4.119,1.373 5.143,2.132 0.125,-0.218 0.203,-0.466 0.203,-0.737 v -2.965 c 0,-0.871 -0.708,-1.58 -1.576,-1.58 h -27.304 c -0.867,0 -1.573,0.709 -1.573,1.58 z M 3.23,2.179 C 2.885,3.412 1.798,4.148 0.322,4.148 c -0.487,0 -0.998,-0.082 -1.393,-0.216 l -18.74,-5.078 -0.911,1.777 c -0.6,1.167 -1.281,2.49 -3.026,2.49 h -18.466 c -1.913,0 -2.655,-1.626 -3.269,-2.972 l -3.778,-7.446 c -0.157,-0.33 -0.54,-1.847 -0.54,-2.328 v -1.611 c -0.455,-0.51 -0.816,-1.176 -1.228,-1.993 l -1.487,-3.052 c -0.273,-0.655 -0.187,-1.369 0.24,-2.012 0.664,-0.996 2.061,-1.691 3.398,-1.691 h 31.537 c 1.332,0 2.667,0.615 3.326,1.531 0.459,0.635 0.577,1.387 0.291,2.217 l -1.465,3.007 c 0,0 -0.498,0.692 -0.656,0.932 v 2.672 c 0,0.964 -0.214,1.586 -0.719,2.009 0.316,0.489 0.492,0.978 0.604,1.452 l 16.465,4.595 c 2.985,1.07 2.989,2.808 2.725,3.748"
         style="fill:#d32011;fill-opacity:1;fill-rule:nonzero;stroke:none"
         id="path2721"
         inkscape:connector-curvature="0" />
    </g>
  </g>
</svg>
