<?xml version="1.0" encoding="UTF-8" standalone="no"?>
<svg
   xmlns:dc="http://purl.org/dc/elements/1.1/"
   xmlns:cc="http://creativecommons.org/ns#"
   xmlns:rdf="http://www.w3.org/1999/02/22-rdf-syntax-ns#"
   xmlns:svg="http://www.w3.org/2000/svg"
   xmlns="http://www.w3.org/2000/svg"
   xmlns:sodipodi="http://sodipodi.sourceforge.net/DTD/sodipodi-0.dtd"
   xmlns:inkscape="http://www.inkscape.org/namespaces/inkscape"
   sodipodi:docname="sugar-300x300.svg"
   inkscape:version="1.0beta2 (2b71d25, 2019-12-03)"
   id="svg3020"
   version="1.1"
   viewBox="0 0 29.461531 29.460472"
   height="29.460472mm"
   width="29.461531mm">
  <defs
     id="defs3014" />
  <sodipodi:namedview
     inkscape:window-maximized="0"
     inkscape:window-y="23"
     inkscape:window-x="0"
     inkscape:window-height="855"
     inkscape:window-width="1440"
     fit-margin-bottom="0"
     fit-margin-right="0"
     fit-margin-left="0"
     fit-margin-top="0"
     showgrid="false"
     inkscape:document-rotation="0"
     inkscape:current-layer="layer1"
     inkscape:document-units="mm"
     inkscape:cy="55.673324"
     inkscape:cx="55.675326"
     inkscape:zoom="0.35"
     inkscape:pageshadow="2"
     inkscape:pageopacity="0.0"
     borderopacity="1.0"
     bordercolor="#666666"
     pagecolor="#ffffff"
     id="base" />
  <metadata
     id="metadata3017">
    <rdf:RDF>
      <cc:Work
         rdf:about="">
        <dc:format>image/svg+xml</dc:format>
        <dc:type
           rdf:resource="http://purl.org/dc/dcmitype/StillImage" />
        <dc:title></dc:title>
      </cc:Work>
    </rdf:RDF>
  </metadata>
  <g
     transform="translate(-91.10257,-133.43643)"
     id="layer1"
     inkscape:groupmode="layer"
     inkscape:label="Layer 1">
    <g
       id="g2479"
       transform="matrix(0.35277777,0,0,-0.35277777,120.5641,148.16808)"
       inkscape:export-filename="/Users/yaron/sugar.png"
       inkscape:export-xdpi="300"
       inkscape:export-ydpi="300">
      <path
         d="m 0,0 c 0,-23.06 -18.697,-41.751 -41.755,-41.751 -23.065,0 -41.758,18.691 -41.758,41.751 0,23.066 18.693,41.759 41.758,41.759 C -18.697,41.759 0,23.066 0,0"
         style="fill:#ffffff;fill-opacity:1;fill-rule:nonzero;stroke:none"
         id="path2481"
         inkscape:connector-curvature="0" />
    </g>
    <g
       id="g2483"
       transform="matrix(0.35277777,0,0,-0.35277777,105.83372,134.20975)"
       inkscape:export-filename="/Users/yaron/sugar.png"
       inkscape:export-xdpi="300"
       inkscape:export-ydpi="300">
      <path
         d="m 0,0 c -21.853,0 -39.566,-17.713 -39.566,-39.567 0,-21.849 17.713,-39.56 39.566,-39.56 21.849,0 39.564,17.711 39.564,39.56 C 39.564,-17.713 21.849,0 0,0"
         style="fill:#d32011;fill-opacity:1;fill-rule:nonzero;stroke:none"
         id="path2485"
         inkscape:connector-curvature="0" />
    </g>
    <g
       id="g2487"
       transform="matrix(0.35277777,0,0,-0.35277777,105.8339,140.10037)"
       inkscape:export-filename="/Users/yaron/sugar.png"
       inkscape:export-xdpi="300"
       inkscape:export-ydpi="300">
      <path
         d="M 0,0 C 12.613,0 22.864,-10.252 22.864,-22.869 22.864,-35.48 12.613,-45.732 0,-45.732 c -12.613,0 -22.867,10.252 -22.867,22.863 C -22.867,-10.252 -12.613,0 0,0"
         style="fill:#ffffff;fill-opacity:1;fill-rule:nonzero;stroke:none"
         id="path2489"
         inkscape:connector-curvature="0" />
    </g>
    <g
       id="g2491"
       transform="matrix(0.35277777,0,0,-0.35277777,103.40943,139.14039)"
       inkscape:export-filename="/Users/yaron/sugar.png"
       inkscape:export-xdpi="300"
       inkscape:export-ydpi="300">
      <path
         d="m 0,0 c -0.087,-0.36 -0.402,-0.65 -0.945,-0.872 -0.554,-0.23 -0.984,-0.246 -1.286,-0.045 L -4.209,3.915 C -4.511,4.642 -4.992,5.179 -5.66,5.521 -6.373,5.88 -7.113,5.902 -7.883,5.588 -8.689,5.262 -9.313,4.752 -9.753,4.072 c -0.315,0.06 -0.547,0.273 -0.695,0.638 -0.144,0.352 -0.138,0.684 0.023,1.001 0.485,0.622 1.335,1.189 2.548,1.684 1.272,0.52 2.437,0.56 3.483,0.121 1.056,-0.439 1.859,-1.332 2.409,-2.68 z"
         style="fill:#ffffff;fill-opacity:1;fill-rule:nonzero;stroke:none"
         id="path2493"
         inkscape:connector-curvature="0" />
    </g>
    <g
       id="g2495"
       transform="matrix(0.35277777,0,0,-0.35277777,106.51518,137.24248)"
       inkscape:export-filename="/Users/yaron/sugar.png"
       inkscape:export-xdpi="300"
       inkscape:export-ydpi="300">
      <path
         d="m 0,0 c 0.088,-1.62 -0.388,-2.944 -1.438,-3.97 -0.948,-0.914 -2.105,-1.408 -3.491,-1.492 -1.116,-0.063 -2.036,0.079 -2.768,0.425 -0.273,0.177 -0.418,0.465 -0.445,0.864 -0.026,0.416 0.088,0.709 0.345,0.873 0.619,-0.439 1.274,-0.639 1.967,-0.599 0.971,0.058 1.774,0.409 2.403,1.053 0.665,0.695 0.975,1.59 0.908,2.688 C -2.586,0.947 -2.993,1.807 -3.74,2.42 -4.432,2.986 -5.266,3.24 -6.243,3.185 -6.978,3.139 -7.607,2.881 -8.131,2.408 -8.394,2.58 -8.534,2.853 -8.553,3.227 c -0.022,0.399 0.084,0.707 0.324,0.919 0.656,0.406 1.554,0.645 2.699,0.712 1.39,0.083 2.61,-0.281 3.646,-1.083 C -0.721,2.88 -0.095,1.62 0,0"
         style="fill:#ffffff;fill-opacity:1;fill-rule:nonzero;stroke:none"
         id="path2497"
         inkscape:connector-curvature="0" />
    </g>
    <g
       id="g2499"
       transform="matrix(0.35277777,0,0,-0.35277777,107.60297,139.13644)"
       inkscape:export-filename="/Users/yaron/sugar.png"
       inkscape:export-xdpi="300"
       inkscape:export-ydpi="300">
      <path
         d="m 0,0 c -0.294,-0.243 -0.722,-0.325 -1.264,-0.238 -0.548,0.092 -0.919,0.304 -1.107,0.633 l 1.533,9.32 c 0.259,0.223 0.68,0.288 1.264,0.19 C 0.988,9.812 1.361,9.618 1.543,9.322 Z"
         style="fill:#ffffff;fill-opacity:1;fill-rule:nonzero;stroke:none"
         id="path2501"
         inkscape:connector-curvature="0" />
    </g>
    <g
       id="g2503"
       transform="matrix(0.35277777,0,0,-0.35277777,110.51371,138.63966)"
       inkscape:export-filename="/Users/yaron/sugar.png"
       inkscape:export-xdpi="300"
       inkscape:export-ydpi="300">
      <path
         d="M 0,0 C 0.415,1.03 0.57,1.938 0.461,2.722 0.337,3.53 -0.049,4.103 -0.715,4.439 -1.363,4.769 -1.996,4.729 -2.604,4.312 -3.217,3.901 -3.73,3.187 -4.142,2.175 -4.556,1.157 -4.695,0.244 -4.564,-0.57 c 0.131,-0.811 0.502,-1.371 1.126,-1.686 0.64,-0.329 1.272,-0.286 1.888,0.117 C -0.935,-1.735 -0.417,-1.02 0,0 m 2.035,-0.992 c -0.641,-1.571 -1.544,-2.581 -2.714,-3.026 -1.064,-0.402 -2.179,-0.304 -3.359,0.294 -1.137,0.578 -1.924,1.451 -2.353,2.626 -0.483,1.302 -0.41,2.729 0.215,4.277 0.626,1.533 1.543,2.53 2.736,2.983 1.075,0.408 2.183,0.324 3.325,-0.257 C 1.059,5.31 1.86,4.433 2.292,3.281 2.759,2.002 2.676,0.577 2.035,-0.992"
         style="fill:#ffffff;fill-opacity:1;fill-rule:nonzero;stroke:none"
         id="path2505"
         inkscape:connector-curvature="0" />
    </g>
    <g
       id="g2507"
       transform="matrix(0.35277777,0,0,-0.35277777,118.34269,142.98718)"
       inkscape:export-filename="/Users/yaron/sugar.png"
       inkscape:export-xdpi="300"
       inkscape:export-ydpi="300">
      <path
         d="m 0,0 c -0.372,0.866 -1.471,1.429 -2.802,1.429 -0.679,0 -1.398,-0.143 -2.139,-0.421 l -0.1,-0.041 -0.093,-0.063 c -0.18,-0.122 -18.024,-12.321 -22.112,-14.553 -0.201,-0.106 -0.374,-0.158 -0.535,-0.158 -0.069,0 -0.13,0.003 -0.205,0.028 -0.042,0.022 -0.112,0.059 -0.197,0.105 -1.278,0.698 -2.514,1.265 -3.693,1.714 -1.884,3.133 -5.198,5.419 -8.144,5.419 -3.772,0 -7.979,-3.601 -9.178,-7.571 -0.721,-0.44 -1.381,-0.931 -1.929,-1.464 -1.09,-1.047 -2.331,-2.707 -0.601,-4.969 l 0.05,-0.06 0.053,-0.049 c 3.828,-3.594 9.756,-3.979 12.123,-3.979 1.046,0 2.05,0.069 2.758,0.196 4.726,0.847 7.571,2.72 8.683,5.716 0.59,1.606 2.287,2.393 4.256,3.305 0.702,0.332 1.434,0.667 2.164,1.065 1.955,1.079 9.212,4.526 14.016,6.811 1.813,0.862 3.341,1.588 4.238,2.019 C 0.909,-3.446 0.414,-0.974 0,0"
         style="fill:#ffffff;fill-opacity:1;fill-rule:nonzero;stroke:none"
         id="path2509"
         inkscape:connector-curvature="0" />
    </g>
    <g
       id="g2511"
       transform="matrix(0.35277777,0,0,-0.35277777,117.00771,144.6446)"
       inkscape:export-filename="/Users/yaron/sugar.png"
       inkscape:export-xdpi="300"
       inkscape:export-ydpi="300">
      <path
         d="m 0,0 c -3.351,-1.622 -15.602,-7.365 -18.3,-8.849 -2.814,-1.546 -5.873,-2.25 -6.831,-4.855 -1.156,-3.113 -4.344,-4.484 -7.995,-5.133 -0.56,-0.105 -1.47,-0.187 -2.592,-0.187 -3.258,0 -8.275,0.711 -11.501,3.732 -1.053,1.381 -0.844,2.447 0.51,3.76 0.032,0.037 0.08,0.066 0.115,0.099 0.099,-0.8 0.406,-1.548 0.931,-2.211 1.575,-1.992 5.104,-3.175 9.427,-3.175 3.426,0 7.743,0.865 9.581,3.283 0.837,1.119 1.069,2.463 0.663,3.882 -0.054,0.195 -0.118,0.378 -0.184,0.573 0.941,-0.462 1.563,-0.831 1.65,-0.862 0.172,-0.057 0.349,-0.084 0.529,-0.084 0.317,0 0.639,0.089 0.972,0.277 4.177,2.28 22.191,14.598 22.191,14.598 0.688,0.259 1.297,0.368 1.816,0.368 1.093,0 1.786,-0.46 1.964,-0.883 C 3.608,2.777 2.519,1.22 0,0 m -44.624,-10.138 c 0.881,3.769 4.963,7.333 8.388,7.333 3.351,0 7.279,-3.447 8.402,-7.373 0.239,-0.844 0.122,-1.563 -0.354,-2.2 -1.164,-1.533 -4.317,-2.525 -8.048,-2.525 -3.628,0 -6.739,0.963 -7.921,2.457 -0.526,0.662 -0.679,1.412 -0.467,2.308 M 4.627,5.049 C 4.108,6.258 2.677,6.974 0.982,7.038 -0.028,7.08 -1.14,6.804 -1.864,6.358 -1.98,6.284 -19.849,-5.941 -23.895,-8.147 c -0.027,-0.011 -0.048,-0.021 -0.06,-0.033 -0.003,0.003 -0.005,0.004 -0.007,0.004 -1.189,0.652 -2.333,1.182 -3.442,1.627 -2.071,3.275 -5.596,5.669 -8.832,5.669 -4.107,0 -8.589,-3.652 -10.018,-7.994 -0.628,-0.405 -1.149,-0.931 -1.724,-1.348 -3.962,-2.851 -0.486,-6.402 -0.486,-6.402 4.028,-3.932 10.271,-4.223 12.746,-4.223 1.12,0 2.154,0.073 2.915,0.207 5.081,0.911 8.147,2.967 9.381,6.301 0.443,1.192 1.726,1.836 3.786,2.793 0.719,0.338 1.465,0.683 2.216,1.094 1.932,1.06 9.176,4.509 13.971,6.781 1.816,0.863 3.346,1.591 4.241,2.025 5.146,2.491 4.236,5.752 3.835,6.695"
         style="fill:#d32011;fill-opacity:1;fill-rule:nonzero;stroke:none"
         id="path2513"
         inkscape:connector-curvature="0" />
    </g>
    <g
       id="g2515"
       transform="matrix(0.35277777,0,0,-0.35277777,94.910028,154.51585)"
       inkscape:export-filename="/Users/yaron/sugar.png"
       inkscape:export-xdpi="300"
       inkscape:export-ydpi="300">
      <path
         d="m 0,0 c -0.325,0.104 -0.576,0.348 -0.754,0.736 -0.178,0.385 -0.204,0.733 -0.072,1.047 l 4.14,1.916 C 4.055,4.043 4.545,4.52 4.784,5.121 5.02,5.727 4.98,6.373 4.661,7.062 4.295,7.854 3.722,8.469 2.943,8.912 3.006,9.16 3.192,9.355 3.496,9.498 3.769,9.623 4.042,9.641 4.323,9.551 5.013,9.107 5.616,8.326 6.136,7.207 6.637,6.129 6.749,5.143 6.476,4.246 6.177,3.277 5.455,2.525 4.309,1.996 Z M -2.076,4.48 C -2.407,4.604 -2.663,4.855 -2.84,5.238 -3.015,5.619 -3.036,5.959 -2.902,6.264 L 1.453,8.281 C 1.805,8.215 2.069,7.992 2.242,7.619 2.419,7.238 2.431,6.867 2.278,6.498 Z"
         style="fill:#ffffff;fill-opacity:1;fill-rule:nonzero;stroke:none"
         id="path2517"
         inkscape:connector-curvature="0" />
    </g>
    <g
       id="g2519"
       transform="matrix(0.35277777,0,0,-0.35277777,97.104905,157.28018)"
       inkscape:export-filename="/Users/yaron/sugar.png"
       inkscape:export-xdpi="300"
       inkscape:export-ydpi="300">
      <path
         d="m 0,0 c -0.338,0.01 -0.647,0.176 -0.928,0.498 -0.279,0.32 -0.395,0.648 -0.359,0.984 L 2.161,4.471 C 2.778,5.01 3.119,5.6 3.178,6.248 3.238,6.893 3.02,7.502 2.522,8.076 1.951,8.736 1.231,9.17 0.359,9.379 c -0.007,0.256 0.117,0.494 0.37,0.715 0.227,0.195 0.486,0.289 0.78,0.281 C 2.295,10.139 3.091,9.557 3.902,8.623 4.68,7.727 5.062,6.811 5.047,5.873 5.03,4.861 4.543,3.939 3.589,3.111 Z M -3.236,3.73 C -3.589,3.756 -3.901,3.928 -4.18,4.248 -4.454,4.562 -4.567,4.887 -4.522,5.215 l 3.625,3.144 C -0.54,8.393 -0.227,8.254 0.046,7.941 0.32,7.625 0.436,7.271 0.389,6.875 Z"
         style="fill:#ffffff;fill-opacity:1;fill-rule:nonzero;stroke:none"
         id="path2521"
         inkscape:connector-curvature="0" />
    </g>
    <g
       id="g2523"
       transform="matrix(0.35277777,0,0,-0.35277777,98.347177,158.24965)"
       inkscape:export-filename="/Users/yaron/sugar.png"
       inkscape:export-xdpi="300"
       inkscape:export-ydpi="300">
      <path
         d="m 0,0 c -0.322,-0.074 -0.661,0.027 -1.013,0.303 -0.359,0.279 -0.539,0.58 -0.539,0.902 L 3.485,7.676 C 3.766,7.746 4.095,7.633 4.474,7.338 4.843,7.051 5.031,6.76 5.036,6.469 Z"
         style="fill:#ffffff;fill-opacity:1;fill-rule:nonzero;stroke:none"
         id="path2525"
         inkscape:connector-curvature="0" />
    </g>
    <g
       id="g2527"
       transform="matrix(0.35277777,0,0,-0.35277777,101.4936,159.5574)"
       inkscape:export-filename="/Users/yaron/sugar.png"
       inkscape:export-xdpi="300"
       inkscape:export-ydpi="300">
      <path
         d="m 0,0 c 0.085,-0.207 0.055,-0.453 -0.09,-0.738 -0.144,-0.291 -0.334,-0.469 -0.565,-0.533 l -6.462,3.253 c -0.078,0.219 -0.041,0.475 0.104,0.766 0.15,0.295 0.329,0.465 0.541,0.512 l 4.437,-2.235 c -0.131,0.395 -0.023,0.94 0.33,1.637 l 0.775,1.541 c 0.325,0.645 0.405,1.279 0.242,1.908 -0.175,0.653 -0.585,1.141 -1.231,1.467 -0.624,0.315 -1.32,0.428 -2.088,0.342 -0.065,0.244 -0.026,0.508 0.115,0.789 0.128,0.256 0.317,0.441 0.561,0.553 0.717,0.06 1.565,-0.158 2.555,-0.657 C 0.239,8.094 0.897,7.373 1.199,6.443 1.512,5.48 1.387,4.439 0.829,3.326 L -0.24,1.205 C -0.529,0.627 -0.555,0.279 -0.313,0.158 Z"
         style="fill:#ffffff;fill-opacity:1;fill-rule:nonzero;stroke:none"
         id="path2529"
         inkscape:connector-curvature="0" />
    </g>
    <g
       id="g2531"
       transform="matrix(0.35277777,0,0,-0.35277777,103.79389,160.5613)"
       inkscape:export-filename="/Users/yaron/sugar.png"
       inkscape:export-xdpi="300"
       inkscape:export-ydpi="300">
      <path
         d="m 0,0 c -0.237,-0.207 -0.573,-0.26 -1.01,-0.156 -0.446,0.101 -0.744,0.302 -0.889,0.597 l 0.751,3.233 -0.074,0.017 C -1.639,3.787 -2.03,3.668 -2.394,3.332 -2.757,2.998 -3.013,2.506 -3.163,1.861 L -3.412,0.793 C -3.658,0.594 -3.971,0.539 -4.353,0.627 -4.751,0.719 -5.003,0.906 -5.116,1.189 l 0.248,1.071 c 0.23,0.986 0.679,1.701 1.346,2.144 0.668,0.444 1.465,0.559 2.387,0.344 l 0.223,-0.053 0.222,0.951 c 0.124,0.528 0.103,0.979 -0.063,1.352 -0.179,0.397 -0.501,0.65 -0.968,0.76 -0.493,0.113 -0.94,0.013 -1.343,-0.299 -0.149,0.252 -0.188,0.531 -0.117,0.838 0.065,0.285 0.203,0.494 0.412,0.631 0.505,0.211 1.118,0.232 1.843,0.062 C 0.983,8.547 1.678,7.219 1.162,5.006 Z"
         style="fill:#ffffff;fill-opacity:1;fill-rule:nonzero;stroke:none"
         id="path2533"
         inkscape:connector-curvature="0" />
    </g>
    <g
       id="g2535"
       transform="matrix(0.35277777,0,0,-0.35277777,109.26487,160.28293)"
       inkscape:export-filename="/Users/yaron/sugar.png"
       inkscape:export-xdpi="300"
       inkscape:export-ydpi="300">
      <path
         d="M 0,0 C -0.136,-0.279 -0.438,-0.459 -0.904,-0.537 -1.386,-0.615 -1.731,-0.545 -1.94,-0.32 L -2.838,5.104 C -2.912,5.543 -3.072,5.877 -3.321,6.107 -3.572,6.338 -3.874,6.424 -4.226,6.365 L -5.68,6.125 C -5.887,6.09 -5.927,5.689 -5.798,4.918 l 0.541,-3.273 c 0.316,-1.899 -0.317,-2.979 -1.896,-3.243 -0.396,-0.064 -0.73,-0.029 -1.002,0.108 -0.232,0.127 -0.374,0.342 -0.425,0.646 -0.051,0.307 0.014,0.567 0.189,0.783 0.174,-0.175 0.375,-0.244 0.6,-0.207 0.564,0.094 0.767,0.606 0.613,1.538 L -7.636,4.045 C -7.784,4.928 -7.687,5.529 -7.347,5.85 L -9.022,5.572 c -0.217,0.117 -0.353,0.348 -0.41,0.69 -0.053,0.328 0.005,0.578 0.17,0.754 l 4.986,0.826 c 1.931,0.32 3.062,-0.512 3.39,-2.496 z"
         style="fill:#ffffff;fill-opacity:1;fill-rule:nonzero;stroke:none"
         id="path2537"
         inkscape:connector-curvature="0" />
    </g>
    <g
       id="g2539"
       transform="matrix(0.35277777,0,0,-0.35277777,110.77864,159.6566)"
       inkscape:export-filename="/Users/yaron/sugar.png"
       inkscape:export-xdpi="300"
       inkscape:export-ydpi="300">
      <path
         d="m 0,0 c -0.097,-0.314 -0.355,-0.557 -0.771,-0.725 -0.422,-0.168 -0.771,-0.171 -1.05,-0.009 l -3.066,7.603 c 0.078,0.277 0.342,0.506 0.787,0.686 0.433,0.175 0.779,0.191 1.034,0.049 z"
         style="fill:#ffffff;fill-opacity:1;fill-rule:nonzero;stroke:none"
         id="path2541"
         inkscape:connector-curvature="0" />
    </g>
    <g
       id="g2543"
       transform="matrix(0.35277777,0,0,-0.35277777,113.52216,156.80545)"
       inkscape:export-filename="/Users/yaron/sugar.png"
       inkscape:export-xdpi="300"
       inkscape:export-ydpi="300">
      <path
         d="m 0,0 c 0.659,-0.941 0.897,-1.82 0.717,-2.637 -0.153,-0.681 -0.574,-1.265 -1.266,-1.75 -0.503,-0.349 -0.926,-0.519 -1.269,-0.508 -0.216,0.079 -0.399,0.221 -0.541,0.426 -0.186,0.266 -0.247,0.504 -0.182,0.713 0.352,0.004 0.63,0.076 0.836,0.219 0.333,0.234 0.523,0.558 0.561,0.971 0.051,0.445 -0.085,0.896 -0.405,1.353 L -3.331,1.332 C -3.542,1.635 -3.793,1.822 -4.082,1.898 -4.338,1.963 -4.566,1.926 -4.767,1.785 -5.161,1.512 -5.245,0.982 -5.02,0.199 L -3.3,-5.805 C -3.321,-6.131 -3.544,-6.441 -3.97,-6.74 -4.417,-7.053 -4.771,-7.145 -5.029,-7.014 l -1.344,5.215 c -0.118,-0.117 -0.278,-0.187 -0.482,-0.207 -0.202,-0.023 -0.374,0.01 -0.52,0.102 l -2.499,1.506 c -0.037,0.257 0.154,0.535 0.576,0.83 0.413,0.289 0.763,0.392 1.053,0.31 l 2.056,-1.191 -0.137,0.5 c -0.369,1.375 -0.034,2.428 1.01,3.158 0.577,0.404 1.16,0.572 1.746,0.506 0.702,-0.078 1.317,-0.494 1.844,-1.25 z"
         style="fill:#ffffff;fill-opacity:1;fill-rule:nonzero;stroke:none"
         id="path2545"
         inkscape:connector-curvature="0" />
    </g>
    <g
       id="g2547"
       transform="matrix(0.35277777,0,0,-0.35277777,115.2192,154.1424)"
       inkscape:export-filename="/Users/yaron/sugar.png"
       inkscape:export-xdpi="300"
       inkscape:export-ydpi="300">
      <path
         d="M 0,0 C 1.103,-0.881 1.696,-1.934 1.784,-3.164 1.859,-4.26 1.542,-5.252 0.838,-6.135 0.267,-6.85 -0.328,-7.326 -0.951,-7.566 c -0.264,-0.063 -0.531,0.015 -0.803,0.232 -0.283,0.227 -0.409,0.463 -0.377,0.711 0.624,0.121 1.111,0.402 1.466,0.846 0.495,0.621 0.707,1.308 0.633,2.058 -0.083,0.809 -0.497,1.512 -1.243,2.106 -0.75,0.599 -1.53,0.849 -2.336,0.75 -0.748,-0.094 -1.372,-0.451 -1.867,-1.073 -0.376,-0.47 -0.552,-1 -0.532,-1.591 -0.252,-0.059 -0.509,0.013 -0.761,0.216 -0.272,0.217 -0.413,0.459 -0.421,0.727 0.095,0.633 0.437,1.314 1.016,2.045 0.714,0.893 1.614,1.42 2.7,1.582 C -2.261,1.229 -1.101,0.881 0,0"
         style="fill:#ffffff;fill-opacity:1;fill-rule:nonzero;stroke:none"
         id="path2549"
         inkscape:connector-curvature="0" />
    </g>
    <g
       id="g2551"
       transform="matrix(0.35277777,0,0,-0.35277777,117.35396,151.9906)"
       inkscape:export-filename="/Users/yaron/sugar.png"
       inkscape:export-xdpi="300"
       inkscape:export-ydpi="300">
      <path
         d="m 0,0 c 0.202,0.094 0.449,0.074 0.741,-0.059 0.297,-0.136 0.481,-0.318 0.554,-0.548 l -2.998,-6.58 c -0.219,-0.086 -0.477,-0.061 -0.771,0.074 -0.302,0.136 -0.479,0.31 -0.532,0.519 l 2.06,4.522 c -0.389,-0.147 -0.939,-0.061 -1.649,0.265 l -1.568,0.713 c -0.657,0.301 -1.296,0.358 -1.919,0.17 -0.644,-0.199 -1.116,-0.627 -1.417,-1.287 -0.29,-0.635 -0.375,-1.336 -0.26,-2.1 -0.242,-0.074 -0.506,-0.046 -0.792,0.084 -0.262,0.12 -0.454,0.299 -0.575,0.541 -0.087,0.711 0.098,1.571 0.557,2.577 0.472,1.035 1.167,1.72 2.083,2.058 0.953,0.352 1.995,0.268 3.131,-0.25 l 2.16,-0.984 c 0.587,-0.27 0.936,-0.279 1.05,-0.035 z"
         style="fill:#ffffff;fill-opacity:1;fill-rule:nonzero;stroke:none"
         id="path2553"
         inkscape:connector-curvature="0" />
    </g>
  </g>
</svg>
