<?xml version="1.0" encoding="UTF-8" standalone="no"?>
<svg
   xmlns:dc="http://purl.org/dc/elements/1.1/"
   xmlns:cc="http://creativecommons.org/ns#"
   xmlns:rdf="http://www.w3.org/1999/02/22-rdf-syntax-ns#"
   xmlns:svg="http://www.w3.org/2000/svg"
   xmlns="http://www.w3.org/2000/svg"
   xmlns:sodipodi="http://sodipodi.sourceforge.net/DTD/sodipodi-0.dtd"
   xmlns:inkscape="http://www.inkscape.org/namespaces/inkscape"
   width="90"
   height="90"
   viewBox="0 0 90 90"
   version="1.1"
   id="svg1855"
   sodipodi:docname="ecoponto-verde.90x90.svg"
   inkscape:version="1.0.2 (e86c8708, 2021-01-15)">
  <defs
     id="defs1849" />
  <sodipodi:namedview
     id="base"
     pagecolor="#ffffff"
     bordercolor="#666666"
     borderopacity="1.0"
     inkscape:pageopacity="0.0"
     inkscape:pageshadow="2"
     inkscape:zoom="5.6"
     inkscape:cx="46.635263"
     inkscape:cy="36.910837"
     inkscape:document-units="px"
     inkscape:current-layer="layer1"
     inkscape:document-rotation="0"
     showgrid="false"
     inkscape:window-width="1440"
     inkscape:window-height="855"
     inkscape:window-x="9"
     inkscape:window-y="23"
     inkscape:window-maximized="0"
     units="px"
     showguides="false">
    <inkscape:grid
       type="xygrid"
       id="grid2085" />
  </sodipodi:namedview>
  <metadata
     id="metadata1852">
    <rdf:RDF>
      <cc:Work
         rdf:about="">
        <dc:format>image/svg+xml</dc:format>
        <dc:type
           rdf:resource="http://purl.org/dc/dcmitype/StillImage" />
        <dc:title></dc:title>
      </cc:Work>
    </rdf:RDF>
  </metadata>
  <g
     inkscape:label="Camada 1"
     inkscape:groupmode="layer"
     id="layer1">
    <g
       id="g28"
       transform="matrix(0.73035019,0,0,-0.73035019,63.581738,25.345563)">
      <path
         d="m 0,0 c 0,3.005 2.443,5.446 5.442,5.446 3.005,0 5.449,-2.441 5.449,-5.446 0,-3.007 -2.444,-5.448 -5.449,-5.448 C 2.443,-5.448 0,-3.007 0,0"
         style="fill:#008f34;fill-opacity:1;fill-rule:nonzero;stroke:none"
         id="path30" />
    </g>
    <g
       id="g32"
       transform="matrix(0.73035019,0,0,-0.73035019,49.659069,30.393086)">
      <path
         d="m 0,0 h 31.631 l 8.165,-16.547 -15.918,-0.208 -4.393,9.845 z"
         style="fill:#008f34;fill-opacity:1;fill-rule:nonzero;stroke:none"
         id="path34" />
    </g>
    <g
       id="g36"
       transform="matrix(0.73035019,0,0,-0.73035019,67.406077,44.619943)">
      <path
         d="M 0,0 H 15.071 V -29.733 L 6.07,-15.286 -5.449,-29.526 Z"
         style="fill:#008f34;fill-opacity:1;fill-rule:nonzero;stroke:none"
         id="path38" />
    </g>
    <g
       id="g40"
       transform="matrix(0.73035019,0,0,-0.73035019,49.814197,33.528478)">
      <path
         d="M 0,0 C 0,-2.722 -2.298,-4.922 -5.138,-4.922 H -19.57 c -2.84,0 -5.132,2.2 -5.132,4.922 0,2.718 2.292,4.922 5.132,4.922 H -5.138 C -2.298,4.922 0,2.718 0,0"
         style="fill:#008f34;fill-opacity:1;fill-rule:nonzero;stroke:none"
         id="path42" />
    </g>
    <g
       id="g44"
       transform="matrix(0.73035019,0,0,-0.73035019,39.736983,25.40472)">
      <path
         d="m 0,0 v 0 c 0,-0.013 14.182,-0.285 14.182,-0.285 h 0.036 c 0.037,0 4.272,-0.044 6.48,-2.329 0.895,-0.917 1.327,-2.082 1.327,-3.548 v -0.205 c -0.187,-6.81 -0.371,-39.237 -0.407,-46.785 -2.818,0.024 -40.878,0.024 -43.694,0 -0.042,7.548 -0.225,39.975 -0.408,46.785 -0.006,0.066 -0.006,0.134 -0.006,0.205 0,1.466 0.434,2.631 1.324,3.548 2.211,2.285 6.441,2.329 6.49,2.329 0.031,0 14.261,0.272 14.261,0.272 l -0.005,0.006 h 0.144 C -0.195,-0.007 0,0 0,0 m -14.719,2.959 c -0.195,0 -5.583,-0.04 -8.758,-3.301 -1.561,-1.603 -2.322,-3.661 -2.248,-6.113 0.2,-7.642 0.414,-47.935 0.414,-48.343 l 0.013,-1.625 h 50.14 v 1.625 c 0.006,0.408 0.213,40.701 0.42,48.343 0.061,2.452 -0.696,4.51 -2.243,6.113 -3.176,3.261 -8.575,3.301 -8.801,3.301 h 0.037 L 0,3.23 c -0.043,0.005 -0.263,0.002 -0.263,0.002 0.06,0 -0.157,0.003 -0.157,0.003 C -0.469,3.23 -14.719,2.959 -14.719,2.959"
         style="fill:#008f34;fill-opacity:1;fill-rule:nonzero;stroke:none"
         id="path46" />
    </g>
    <g
       id="g48"
       transform="matrix(0.73035019,0,0,-0.73035019,2.3546566,77.785217)">
      <path
         d="M 0,-1.6172526 V 91.454 c 0,6.517 5.333,11.817 11.898,11.817 h 92.986 c 6.557,0 11.889,-5.3 11.889,-11.817 V -1.6172526 c 0,-6.6441753 -5.33385,-11.8170004 -11.889,-11.8170004 H 11.898 c -6.7172351,0 -11.89361045,5.2944416 -11.898,11.8170004 M 11.898,106.504 c -8.344,0 -15.122,-6.749 -15.122,-15.05 V -1.6172526 c 0,-8.3 6.5785568,-15.0500004 15.122,-15.0500004 h 92.986 c 8.337,0 15.113,6.591174 15.113,15.0500004 V 91.454 c 0,8.301 -6.776,15.05 -15.113,15.05 z"
         style="fill:#008f34;fill-opacity:1;fill-rule:nonzero;stroke:none"
         id="path50"
         sodipodi:nodetypes="cssssssscsssssssss" />
    </g>
    <g
       id="g52"
       transform="matrix(0.73035019,0,0,-0.73035019,10.194465,18.469972)">
      <path
         d="M 0,0 V 15.612 H 9.079 V 12.49 H 3.966 V 9.617 H 8.927 V 6.494 H 3.966 V 3.123 H 9.354 V 0 Z"
         style="fill:#008f34;fill-opacity:1;fill-rule:nonzero;stroke:none"
         id="path54" />
    </g>
    <g
       id="g56"
       transform="matrix(0.73035019,0,0,-0.73035019,23.253775,11.052318)">
      <path
         d="M 0,0 V 0.999 C 0,2.334 -0.524,3.02 -1.267,3.02 -2.512,3.042 -2.797,2.413 -2.797,1.396 l -0.018,-7.722 c 0,-0.873 0.384,-1.394 1.413,-1.394 1.355,0 1.463,1.29 1.463,2.247 v 1.416 h 3.968 v -1.916 c 0,-2.683 -1.657,-4.558 -5.717,-4.558 -3.663,0 -5.077,1.792 -5.077,4.971 v 6.413 c 0,3.396 1.688,4.977 5.321,4.977 3.377,0 5.412,-1.332 5.412,-4.517 V 0 Z"
         style="fill:#008f34;fill-opacity:1;fill-rule:nonzero;stroke:none"
         id="path58" />
    </g>
    <g
       id="g60"
       transform="matrix(0.73035019,0,0,-0.73035019,32.440921,10.380467)">
      <path
         d="M 0,0 C 0,0.954 -0.091,2.101 -1.401,2.101 -2.668,2.101 -2.822,0.954 -2.822,0 v -6.41 c 0,-0.901 0.154,-2.23 1.445,-2.23 1.286,0 1.377,1.329 1.377,2.23 z m 3.968,-6.1 c 0,-3.52 -1.334,-5.35 -5.345,-5.35 -4.011,0 -5.413,1.83 -5.413,5.35 v 6.347 c 0,2.996 1.939,4.662 5.413,4.662 3.474,0 5.345,-1.666 5.345,-4.662 z"
         style="fill:#008f34;fill-opacity:1;fill-rule:nonzero;stroke:none"
         id="path62" />
    </g>
    <g
       id="g64"
       transform="matrix(0.73035019,0,0,-0.73035019,39.749405,11.978108)">
      <path
         d="m 0,0 c 0.739,0.021 1.605,-0.062 2.231,0.394 0.408,0.417 0.494,1.041 0.494,1.58 0,0.608 -0.061,1.521 -0.743,1.814 C 1.605,3.912 1.061,3.912 0.428,3.912 H 0 Z M -3.961,-8.889 V 6.723 h 4.7 C 2.28,6.723 4.487,6.597 5.59,5.43 6.517,4.476 6.699,3.309 6.699,2.039 6.699,0.352 6.267,-1.541 4.463,-2.31 3.085,-2.936 1.482,-2.748 0,-2.81 v -6.079 z"
         style="fill:#008f34;fill-opacity:1;fill-rule:nonzero;stroke:none"
         id="path66" />
    </g>
    <g
       id="g68"
       transform="matrix(0.73035019,0,0,-0.73035019,50.749273,10.380467)">
      <path
         d="M 0,0 C 0,0.954 -0.092,2.101 -1.396,2.101 -2.657,2.101 -2.815,0.954 -2.815,0 v -6.41 c 0,-0.901 0.158,-2.23 1.437,-2.23 1.286,0 1.378,1.329 1.378,2.23 z m 3.967,-6.1 c 0,-3.52 -1.328,-5.35 -5.345,-5.35 -4.01,0 -5.411,1.83 -5.411,5.35 v 6.347 c 0,2.996 1.944,4.662 5.411,4.662 3.473,0 5.345,-1.666 5.345,-4.662 z"
         style="fill:#008f34;fill-opacity:1;fill-rule:nonzero;stroke:none"
         id="path70" />
    </g>
    <g
       id="g72"
       transform="matrix(0.73035019,0,0,-0.73035019,57.519622,12.085835)">
      <path
         d="M 0,0 -0.056,-0.042 0.306,-8.741 H -3.45 V 6.87 H 0.627 L 3.693,-1.852 H 3.754 L 3.376,6.87 H 7.144 V -8.741 H 3.091 Z"
         style="fill:#008f34;fill-opacity:1;fill-rule:nonzero;stroke:none"
         id="path74" />
    </g>
    <g
       id="g76"
       transform="matrix(0.73035019,0,0,-0.73035019,63.808893,7.0675254)">
      <path
         d="m 0,0 h 10.276 v -3.121 h -3.2 V -15.612 H 3.115 V -3.121 H 0 Z"
         style="fill:#008f34;fill-opacity:1;fill-rule:nonzero;stroke:none"
         id="path78" />
    </g>
    <g
       id="g80"
       transform="matrix(0.73035019,0,0,-0.73035019,77.29187,10.380467)">
      <path
         d="M 0,0 C 0,0.954 -0.086,2.101 -1.403,2.101 -2.656,2.101 -2.817,0.954 -2.817,0 v -6.41 c 0,-0.901 0.161,-2.23 1.439,-2.23 1.292,0 1.378,1.329 1.378,2.23 z m 3.974,-6.1 c 0,-3.52 -1.329,-5.35 -5.352,-5.35 -4.01,0 -5.412,1.83 -5.412,5.35 v 6.347 c 0,2.996 1.945,4.662 5.412,4.662 3.474,0 5.352,-1.666 5.352,-4.662 z"
         style="fill:#008f34;fill-opacity:1;fill-rule:nonzero;stroke:none"
         id="path82" />
    </g>
    <g
       id="g168"
       transform="matrix(0.73525053,0,0,-0.73525053,14.632969,81.855145)">
      <path
         d="M 0,0 -6.19,14.965 H 0.493 L 3.913,4.467 h 0.078 l 3.412,10.498 h 6.692 L 7.861,0 Z"
         style="fill:#008f34;fill-opacity:1;fill-rule:nonzero;stroke:none"
         id="path170" />
    </g>
    <g
       id="g172"
       transform="matrix(0.73525053,0,0,-0.73525053,26.591597,81.855145)">
      <path
         d="M 0,0 V 14.965 H 15.318 V 11.967 H 6.684 V 9.211 h 8.361 V 6.226 H 6.684 V 2.99 H 15.77 V 0 Z"
         style="fill:#008f34;fill-opacity:1;fill-rule:nonzero;stroke:none"
         id="path174" />
    </g>
    <g
       id="g176"
       transform="matrix(0.73525053,0,0,-0.73525053,45.372755,75.533757)">
      <path
         d="M 0,0 H 2.279 C 4.216,0 4.674,0.938 4.674,1.859 4.674,3.631 3.26,3.711 0,3.673 Z M 0,-8.599 H -6.691 V 6.366 h 9.769 c 5.465,0 8.207,-1.158 8.207,-4.132 0,-1.594 -0.723,-2.733 -3.535,-3.412 V -1.22 c 1.866,-0.219 3.188,-0.895 3.305,-1.939 0.194,-1.186 0.23,-3.772 0.61,-4.721 0.15,-0.199 0.339,-0.377 0.644,-0.524 V -8.599 H 5.008 C 4.826,-8.324 4.674,-8.044 4.631,-7.74 4.515,-6.423 4.674,-5.191 4.479,-4.271 4.29,-3.353 3.759,-2.755 2.2,-2.693 H 0 Z"
         style="fill:#008f34;fill-opacity:1;fill-rule:nonzero;stroke:none"
         id="path178" />
    </g>
    <g
       id="g180"
       transform="matrix(0.73525053,0,0,-0.73525053,61.019099,79.875557)">
      <path
         d="M 0,0 C 4.484,-0.159 4.521,0.797 4.409,2.79 V 7.683 C 4.376,9.438 3.271,9.536 0,9.578 Z m -6.691,-2.693 v 14.965 h 7.257 c 2.437,0 5.362,-0.036 7.531,-0.699 2.578,-0.794 3.004,-2.257 3.004,-3.693 V 1.237 C 11.058,-0.257 10.189,-1.36 8.243,-1.991 6.494,-2.597 4.376,-2.693 2.314,-2.693 Z"
         style="fill:#008f34;fill-opacity:1;fill-rule:nonzero;stroke:none"
         id="path182" />
    </g>
    <g
       id="g184"
       transform="matrix(0.73525053,0,0,-0.73525053,71.636412,81.855145)">
      <path
         d="M 0,0 V 14.965 H 15.319 V 11.967 H 6.697 V 9.211 h 8.361 V 6.226 H 6.697 V 2.99 h 9.079 V 0 Z"
         style="fill:#008f34;fill-opacity:1;fill-rule:nonzero;stroke:none"
         id="path186" />
    </g>
  </g>
</svg>
