<?xml version="1.0" encoding="UTF-8"?>
<svg width="90" height="90" version="1.1" viewBox="0 0 90 90" xmlns="http://www.w3.org/2000/svg">
 <g transform="matrix(.73035 0 0 -.73035 63.582 25.346)">
  <path d="m0 0c0 3.005 2.443 5.446 5.442 5.446 3.005 0 5.449-2.441 5.449-5.446 0-3.007-2.444-5.448-5.449-5.448-2.999 0-5.442 2.441-5.442 5.448" fill="#e7c400"/>
 </g>
 <g transform="matrix(.73035 0 0 -.73035 49.659 30.393)">
  <path d="m0 0h31.631l8.165-16.547-15.918-0.208-4.393 9.845z" fill="#e7c400"/>
 </g>
 <g transform="matrix(.73035 0 0 -.73035 67.406 44.62)">
  <path d="m0 0h15.071v-29.733l-9.001 14.447-11.519-14.24z" fill="#e7c400"/>
 </g>
 <g transform="matrix(.73035 0 0 -.73035 49.814 33.528)">
  <path d="m0 0c0-2.722-2.298-4.922-5.138-4.922h-14.432c-2.84 0-5.132 2.2-5.132 4.922 0 2.718 2.292 4.922 5.132 4.922h14.432c2.84 0 5.138-2.204 5.138-4.922" fill="#e7c400"/>
 </g>
 <g transform="matrix(.73035 0 0 -.73035 39.737 25.405)">
  <path d="m0 0c0-0.013 14.182-0.285 14.182-0.285h0.036c0.037 0 4.272-0.044 6.48-2.329 0.895-0.917 1.327-2.082 1.327-3.548v-0.205c-0.187-6.81-0.371-39.237-0.407-46.785-2.818 0.024-40.878 0.024-43.694 0-0.042 7.548-0.225 39.975-0.408 46.785-6e-3 0.066-6e-3 0.134-6e-3 0.205 0 1.466 0.434 2.631 1.324 3.548 2.211 2.285 6.441 2.329 6.49 2.329 0.031 0 14.261 0.272 14.261 0.272l-5e-3 6e-3h0.144c0.081 0 0.276 7e-3 0.276 7e-3m-14.719 2.959c-0.195 0-5.583-0.04-8.758-3.301-1.561-1.603-2.322-3.661-2.248-6.113 0.2-7.642 0.414-47.935 0.414-48.343l0.013-1.625h50.14v1.625c6e-3 0.408 0.213 40.701 0.42 48.343 0.061 2.452-0.696 4.51-2.243 6.113-3.176 3.261-8.575 3.301-8.801 3.301h0.037l-14.255 0.271c-0.043 5e-3 -0.263 2e-3 -0.263 2e-3 0.06 0-0.157 3e-3 -0.157 3e-3 -0.049-5e-3 -14.299-0.276-14.299-0.276" fill="#e7c400"/>
 </g>
 <g transform="matrix(.73035 0 0 -.73035 2.3547 77.785)">
  <path d="m0-1.6173v93.071c0 6.517 5.333 11.817 11.898 11.817h92.986c6.557 0 11.889-5.3 11.889-11.817v-93.071c0-6.6442-5.3338-11.817-11.889-11.817h-92.986c-6.7172 0-11.894 5.2944-11.898 11.817m11.898 108.12c-8.344 0-15.122-6.749-15.122-15.05v-93.071c0-8.3 6.5786-15.05 15.122-15.05h92.986c8.337 0 15.113 6.5912 15.113 15.05v93.071c0 8.301-6.776 15.05-15.113 15.05z" fill="#e7c400"/>
 </g>
 <g transform="matrix(.73035 0 0 -.73035 10.194 18.47)">
  <path d="m0 0v15.612h9.079v-3.122h-5.113v-2.873h4.961v-3.123h-4.961v-3.371h5.388v-3.123z" fill="#e7c400"/>
 </g>
 <g transform="matrix(.73035 0 0 -.73035 23.254 11.052)">
  <path d="m0 0v0.999c0 1.335-0.524 2.021-1.267 2.021-1.245 0.022-1.53-0.607-1.53-1.624l-0.018-7.722c0-0.873 0.384-1.394 1.413-1.394 1.355 0 1.463 1.29 1.463 2.247v1.416h3.968v-1.916c0-2.683-1.657-4.558-5.717-4.558-3.663 0-5.077 1.792-5.077 4.971v6.413c0 3.396 1.688 4.977 5.321 4.977 3.377 0 5.412-1.332 5.412-4.517v-1.313z" fill="#e7c400"/>
 </g>
 <g transform="matrix(.73035 0 0 -.73035 32.441 10.38)">
  <path d="m0 0c0 0.954-0.091 2.101-1.401 2.101-1.267 0-1.421-1.147-1.421-2.101v-6.41c0-0.901 0.154-2.23 1.445-2.23 1.286 0 1.377 1.329 1.377 2.23zm3.968-6.1c0-3.52-1.334-5.35-5.345-5.35s-5.413 1.83-5.413 5.35v6.347c0 2.996 1.939 4.662 5.413 4.662s5.345-1.666 5.345-4.662z" fill="#e7c400"/>
 </g>
 <g transform="matrix(.73035 0 0 -.73035 39.749 11.978)">
  <path d="m0 0c0.739 0.021 1.605-0.062 2.231 0.394 0.408 0.417 0.494 1.041 0.494 1.58 0 0.608-0.061 1.521-0.743 1.814-0.377 0.124-0.921 0.124-1.554 0.124h-0.428zm-3.961-8.889v15.612h4.7c1.541 0 3.748-0.126 4.851-1.293 0.927-0.954 1.109-2.121 1.109-3.391 0-1.687-0.432-3.58-2.236-4.349-1.378-0.626-2.981-0.438-4.463-0.5v-6.079z" fill="#e7c400"/>
 </g>
 <g transform="matrix(.73035 0 0 -.73035 50.749 10.38)">
  <path d="m0 0c0 0.954-0.092 2.101-1.396 2.101-1.261 0-1.419-1.147-1.419-2.101v-6.41c0-0.901 0.158-2.23 1.437-2.23 1.286 0 1.378 1.329 1.378 2.23zm3.967-6.1c0-3.52-1.328-5.35-5.345-5.35-4.01 0-5.411 1.83-5.411 5.35v6.347c0 2.996 1.944 4.662 5.411 4.662 3.473 0 5.345-1.666 5.345-4.662z" fill="#e7c400"/>
 </g>
 <g transform="matrix(.73035 0 0 -.73035 57.52 12.086)">
  <path d="m0 0-0.056-0.042 0.362-8.699h-3.756v15.611h4.077l3.066-8.722h0.061l-0.378 8.722h3.768v-15.611h-4.053z" fill="#e7c400"/>
 </g>
 <g transform="matrix(.73035 0 0 -.73035 63.809 7.0675)">
  <path d="m0 0h10.276v-3.121h-3.2v-12.491h-3.961v12.491h-3.115z" fill="#e7c400"/>
 </g>
 <g transform="matrix(.73035 0 0 -.73035 77.292 10.38)">
  <path d="m0 0c0 0.954-0.086 2.101-1.403 2.101-1.253 0-1.414-1.147-1.414-2.101v-6.41c0-0.901 0.161-2.23 1.439-2.23 1.292 0 1.378 1.329 1.378 2.23zm3.974-6.1c0-3.52-1.329-5.35-5.352-5.35-4.01 0-5.412 1.83-5.412 5.35v6.347c0 2.996 1.945 4.662 5.412 4.662 3.474 0 5.352-1.666 5.352-4.662z" fill="#e7c400"/>
 </g>
 <g transform="matrix(.73035 0 0 -.73035 13.274 72.377)">
  <path d="m0 0h-0.049l-1.267-6.703h2.535zm-6.704-12.254 4.071 14.972h5.266l4.046-14.972h-4.417l-0.623 2.916h-3.424l-0.531-2.916z" fill="#e7c400"/>
 </g>
 <g transform="matrix(.73035 0 0 -.73035 19.186 81.326)">
  <path d="m0 0v14.97h6.149l2.261-8.839h0.05l2.334 8.839h6.112v-14.97h-4.18l0.457 11.734h-0.055l-3.079-11.734h-3.254l-2.998 11.734h-0.054l0.401-11.734z" fill="#e7c400"/>
 </g>
 <g transform="matrix(.73035 0 0 -.73035 37.463 72.377)">
  <path d="m0 0h-0.049l-1.268-6.703h2.535zm-6.705-12.254 4.071 14.972h5.265l4.042-14.972h-4.412l-0.622 2.916h-3.427l-0.521-2.916z" fill="#e7c400"/>
 </g>
 <g transform="matrix(.73035 0 0 -.73035 46.436 75.043)">
  <path d="m0 0h1.488c1.266 0 1.56 0.937 1.56 1.857 0 1.775-0.915 1.854-3.048 1.815zm0-8.604h-4.371v14.972h6.376c3.583 0 5.37-1.159 5.37-4.132 0-1.597-0.469-2.736-2.316-3.413v-0.038c1.226-0.221 2.091-0.901 2.17-1.936 0.121-1.202 0.146-3.773 0.397-4.733 0.096-0.198 0.219-0.378 0.42-0.52v-0.2h-4.773c-0.121 0.281-0.225 0.558-0.25 0.861-0.073 1.32 0.025 2.553-0.098 3.471-0.121 0.916-0.469 1.52-1.486 1.574h-1.439z" fill="#e7c400"/>
 </g>
 <g transform="matrix(.73035 0 0 -.73035 53.398 81.326)">
  <path d="m0 0v14.97h10.007v-2.996h-5.631v-2.755h5.461v-2.991h-5.461v-3.236h5.931v-2.992z" fill="#e7c400"/>
 </g>
 <g transform="matrix(.73035 0 0 -.73035 62.304 81.326)">
  <path d="m0 0v14.97h4.363v-11.978h5.34v-2.992z" fill="#e7c400"/>
 </g>
 <g transform="matrix(.73035 0 0 -.73035 75.863 73.571)">
  <path d="m0 0c0 0.919-0.098 2.016-1.537 2.016-1.387 0-1.565-1.097-1.565-2.016v-6.146c0-0.858 0.178-2.135 1.59-2.135 1.414 0 1.512 1.277 1.512 2.135zm4.375-5.847c0-3.373-1.462-5.132-5.887-5.132s-5.96 1.759-5.96 5.132v6.085c0 2.877 2.134 4.47 5.96 4.47s5.887-1.593 5.887-4.47z" fill="#e7c400"/>
 </g>
</svg>
