<?xml version="1.0" encoding="UTF-8" standalone="no"?>
<svg
   xmlns:dc="http://purl.org/dc/elements/1.1/"
   xmlns:cc="http://creativecommons.org/ns#"
   xmlns:rdf="http://www.w3.org/1999/02/22-rdf-syntax-ns#"
   xmlns:svg="http://www.w3.org/2000/svg"
   xmlns="http://www.w3.org/2000/svg"
   xmlns:sodipodi="http://sodipodi.sourceforge.net/DTD/sodipodi-0.dtd"
   xmlns:inkscape="http://www.inkscape.org/namespaces/inkscape"
   width="90"
   height="90"
   version="1.1"
   viewBox="0 0 90 90"
   id="svg905"
   sodipodi:docname="ecoponto-azul.color.90x90.svg"
   inkscape:version="1.0.2 (e86c8708, 2021-01-15)">
  <metadata
     id="metadata911">
    <rdf:RDF>
      <cc:Work
         rdf:about="">
        <dc:format>image/svg+xml</dc:format>
        <dc:type
           rdf:resource="http://purl.org/dc/dcmitype/StillImage" />
        <dc:title></dc:title>
      </cc:Work>
    </rdf:RDF>
  </metadata>
  <defs
     id="defs909" />
  <sodipodi:namedview
     pagecolor="#ffffff"
     bordercolor="#666666"
     borderopacity="1"
     objecttolerance="10"
     gridtolerance="10"
     guidetolerance="10"
     inkscape:pageopacity="0"
     inkscape:pageshadow="2"
     inkscape:window-width="828"
     inkscape:window-height="480"
     id="namedview907"
     showgrid="false"
     units="px"
     showguides="false"
     inkscape:zoom="1.9667361"
     inkscape:cx="170.07874"
     inkscape:cy="170.07874"
     inkscape:window-x="0"
     inkscape:window-y="23"
     inkscape:window-maximized="0"
     inkscape:current-layer="svg905" />
  <g
     transform="matrix(0.73035,0,0,-0.73035,63.582,25.346)"
     id="g835">
    <path
       d="m 0,0 c 0,3.005 2.443,5.446 5.442,5.446 3.005,0 5.449,-2.441 5.449,-5.446 0,-3.007 -2.444,-5.448 -5.449,-5.448 C 2.443,-5.448 0,-3.007 0,0"
       fill="#1f3188"
       id="path833" />
  </g>
  <g
     transform="matrix(0.73035,0,0,-0.73035,49.659,30.393)"
     id="g839">
    <path
       d="m 0,0 h 31.631 l 8.165,-16.547 -15.918,-0.208 -4.393,9.845 z"
       fill="#1f3188"
       id="path837" />
  </g>
  <g
     transform="matrix(0.73035,0,0,-0.73035,67.406,44.62)"
     id="g843">
    <path
       d="M 0,0 H 15.071 V -29.733 L 6.07,-15.286 -5.449,-29.526 Z"
       fill="#1f3188"
       id="path841" />
  </g>
  <g
     transform="matrix(0.73035,0,0,-0.73035,49.814,33.528)"
     id="g847">
    <path
       d="M 0,0 C 0,-2.722 -2.298,-4.922 -5.138,-4.922 H -19.57 c -2.84,0 -5.132,2.2 -5.132,4.922 0,2.718 2.292,4.922 5.132,4.922 H -5.138 C -2.298,4.922 0,2.718 0,0"
       fill="#1f3188"
       id="path845" />
  </g>
  <g
     transform="matrix(0.73035,0,0,-0.73035,39.737,25.405)"
     id="g851">
    <path
       d="m 0,0 c 0,-0.013 14.182,-0.285 14.182,-0.285 h 0.036 c 0.037,0 4.272,-0.044 6.48,-2.329 0.895,-0.917 1.327,-2.082 1.327,-3.548 v -0.205 c -0.187,-6.81 -0.371,-39.237 -0.407,-46.785 -2.818,0.024 -40.878,0.024 -43.694,0 -0.042,7.548 -0.225,39.975 -0.408,46.785 -0.006,0.066 -0.006,0.134 -0.006,0.205 0,1.466 0.434,2.631 1.324,3.548 2.211,2.285 6.441,2.329 6.49,2.329 0.031,0 14.261,0.272 14.261,0.272 l -0.005,0.006 h 0.144 C -0.195,-0.007 0,0 0,0 m -14.719,2.959 c -0.195,0 -5.583,-0.04 -8.758,-3.301 -1.561,-1.603 -2.322,-3.661 -2.248,-6.113 0.2,-7.642 0.414,-47.935 0.414,-48.343 l 0.013,-1.625 h 50.14 v 1.625 c 0.006,0.408 0.213,40.701 0.42,48.343 0.061,2.452 -0.696,4.51 -2.243,6.113 -3.176,3.261 -8.575,3.301 -8.801,3.301 h 0.037 L 0,3.23 c -0.043,0.005 -0.263,0.002 -0.263,0.002 0.06,0 -0.157,0.003 -0.157,0.003 C -0.469,3.23 -14.719,2.959 -14.719,2.959"
       fill="#1f3188"
       id="path849" />
  </g>
  <g
     transform="matrix(0.73035,0,0,-0.73035,2.3547,77.785)"
     id="g855">
    <path
       d="m 0,-1.6173 v 93.071 c 0,6.517 5.333,11.817 11.898,11.817 h 92.986 c 6.557,0 11.889,-5.3 11.889,-11.817 v -93.071 c 0,-6.6442 -5.3338,-11.817 -11.889,-11.817 H 11.898 c -6.7172,0 -11.894,5.2944 -11.898,11.817 m 11.898,108.12 c -8.344,0 -15.122,-6.749 -15.122,-15.05 v -93.071 c 0,-8.3 6.5786,-15.05 15.122,-15.05 h 92.986 c 8.337,0 15.113,6.5912 15.113,15.05 v 93.071 c 0,8.301 -6.776,15.05 -15.113,15.05 z"
       fill="#1f3188"
       id="path853" />
  </g>
  <g
     transform="matrix(0.73035,0,0,-0.73035,10.194,18.47)"
     id="g859">
    <path
       d="M 0,0 V 15.612 H 9.079 V 12.49 H 3.966 V 9.617 H 8.927 V 6.494 H 3.966 V 3.123 H 9.354 V 0 Z"
       fill="#1f3188"
       id="path857" />
  </g>
  <g
     transform="matrix(0.73035,0,0,-0.73035,23.254,11.052)"
     id="g863">
    <path
       d="M 0,0 V 0.999 C 0,2.334 -0.524,3.02 -1.267,3.02 -2.512,3.042 -2.797,2.413 -2.797,1.396 l -0.018,-7.722 c 0,-0.873 0.384,-1.394 1.413,-1.394 1.355,0 1.463,1.29 1.463,2.247 v 1.416 h 3.968 v -1.916 c 0,-2.683 -1.657,-4.558 -5.717,-4.558 -3.663,0 -5.077,1.792 -5.077,4.971 v 6.413 c 0,3.396 1.688,4.977 5.321,4.977 3.377,0 5.412,-1.332 5.412,-4.517 V 0 Z"
       fill="#1f3188"
       id="path861" />
  </g>
  <g
     transform="matrix(0.73035,0,0,-0.73035,32.441,10.38)"
     id="g867">
    <path
       d="M 0,0 C 0,0.954 -0.091,2.101 -1.401,2.101 -2.668,2.101 -2.822,0.954 -2.822,0 v -6.41 c 0,-0.901 0.154,-2.23 1.445,-2.23 1.286,0 1.377,1.329 1.377,2.23 z m 3.968,-6.1 c 0,-3.52 -1.334,-5.35 -5.345,-5.35 -4.011,0 -5.413,1.83 -5.413,5.35 v 6.347 c 0,2.996 1.939,4.662 5.413,4.662 3.474,0 5.345,-1.666 5.345,-4.662 z"
       fill="#1f3188"
       id="path865" />
  </g>
  <g
     transform="matrix(0.73035,0,0,-0.73035,39.749,11.978)"
     id="g871">
    <path
       d="m 0,0 c 0.739,0.021 1.605,-0.062 2.231,0.394 0.408,0.417 0.494,1.041 0.494,1.58 0,0.608 -0.061,1.521 -0.743,1.814 C 1.605,3.912 1.061,3.912 0.428,3.912 H 0 Z M -3.961,-8.889 V 6.723 h 4.7 C 2.28,6.723 4.487,6.597 5.59,5.43 6.517,4.476 6.699,3.309 6.699,2.039 6.699,0.352 6.267,-1.541 4.463,-2.31 3.085,-2.936 1.482,-2.748 0,-2.81 v -6.079 z"
       fill="#1f3188"
       id="path869" />
  </g>
  <g
     transform="matrix(0.73035,0,0,-0.73035,50.749,10.38)"
     id="g875">
    <path
       d="M 0,0 C 0,0.954 -0.092,2.101 -1.396,2.101 -2.657,2.101 -2.815,0.954 -2.815,0 v -6.41 c 0,-0.901 0.158,-2.23 1.437,-2.23 1.286,0 1.378,1.329 1.378,2.23 z m 3.967,-6.1 c 0,-3.52 -1.328,-5.35 -5.345,-5.35 -4.01,0 -5.411,1.83 -5.411,5.35 v 6.347 c 0,2.996 1.944,4.662 5.411,4.662 3.473,0 5.345,-1.666 5.345,-4.662 z"
       fill="#1f3188"
       id="path873" />
  </g>
  <g
     transform="matrix(0.73035,0,0,-0.73035,57.52,12.086)"
     id="g879">
    <path
       d="M 0,0 -0.056,-0.042 0.306,-8.741 H -3.45 V 6.87 H 0.627 L 3.693,-1.852 H 3.754 L 3.376,6.87 H 7.144 V -8.741 H 3.091 Z"
       fill="#1f3188"
       id="path877" />
  </g>
  <g
     transform="matrix(0.73035,0,0,-0.73035,63.809,7.0675)"
     id="g883">
    <path
       d="m 0,0 h 10.276 v -3.121 h -3.2 V -15.612 H 3.115 V -3.121 H 0 Z"
       fill="#1f3188"
       id="path881" />
  </g>
  <g
     transform="matrix(0.73035,0,0,-0.73035,77.292,10.38)"
     id="g887">
    <path
       d="M 0,0 C 0,0.954 -0.086,2.101 -1.403,2.101 -2.656,2.101 -2.817,0.954 -2.817,0 v -6.41 c 0,-0.901 0.161,-2.23 1.439,-2.23 1.292,0 1.378,1.329 1.378,2.23 z m 3.974,-6.1 c 0,-3.52 -1.329,-5.35 -5.352,-5.35 -4.01,0 -5.412,1.83 -5.412,5.35 v 6.347 c 0,2.996 1.945,4.662 5.412,4.662 3.474,0 5.352,-1.666 5.352,-4.662 z"
       fill="#1f3188"
       id="path885" />
  </g>
  <g
     transform="matrix(0.73525,0,0,-0.73525,21.518,72.436)"
     id="g891">
    <path
       d="m 0,0 h -0.091 l -2.445,-6.705 h 4.889 z m -12.938,-12.253 7.867,14.964 h 10.16 l 7.82,-14.964 H 4.37 l -1.207,2.914 h -6.612 l -1.006,-2.914 z"
       fill="#1f3188"
       id="path889" />
  </g>
  <g
     transform="matrix(0.73525,0,0,-0.73525,32.201,70.443)"
     id="g895">
    <path
       d="M 0,0 H 19.088 V -2.792 L 8.63,-11.972 h 10.928 v -2.992 H -0.767 v 2.676 L 9.879,-2.987 H 0 Z"
       fill="#1f3188"
       id="path893" />
  </g>
  <g
     transform="matrix(0.73525,0,0,-0.73525,48.414,70.443)"
     id="g899">
    <path
       d="m 0,0 h 8.441 v -11.295 c 0,-0.718 0.53,-1.333 2.926,-1.333 2.206,0 2.876,0.797 2.876,1.438 V 0 h 8.444 v -10.83 c 0,-2.543 -2.739,-4.493 -11.369,-4.493 C 4.169,-15.323 0,-13.91 0,-10.83 Z"
       fill="#1f3188"
       id="path897" />
  </g>
  <g
     transform="matrix(0.73525,0,0,-0.73525,67.84,81.445)"
     id="g903">
    <path
       d="M 0,0 V 14.965 H 8.434 V 2.992 H 18.747 V 0 Z"
       fill="#1f3188"
       id="path901" />
  </g>
</svg>
