<svg width="441" height="314" viewBox="0 0 441 314" fill="none" xmlns="http://www.w3.org/2000/svg">
<path d="M290.019 266.448C309.465 241.388 364.169 269.012 342.264 212.71C320.359 156.408 396.253 150.689 419.628 161.463C426.541 164.651 433.331 169.621 439.77 175.835C440.505 169.66 440.895 163.376 440.895 157.007C440.895 147.638 440.069 138.458 438.495 129.539C391.362 114.881 382.426 76.7694 357.913 92.1363C332.847 107.855 298.604 75.6504 301.518 52.6977C303.729 35.2749 314.356 12.5238 309.127 2.02333C300.926 0.702636 292.516 0 283.938 0C263.574 0 244.115 3.88401 226.262 10.9429C236.538 42.7241 244.921 59.1905 219.257 78.5455C187.681 102.364 162.622 86.4242 162.622 122.597C162.622 158.77 186.432 173.818 162.622 196.38C155.877 202.775 146.212 206.646 135.683 208.611C140.626 222.82 147.546 236.105 156.124 248.121C190.543 221.493 230.769 260.938 241.728 280.729C246.489 289.323 245.552 298.952 242.242 308.385C255.522 312.035 269.506 314 283.944 314C287.17 314 290.364 313.889 293.544 313.701C284.322 294.586 281.525 277.385 290.012 266.448H290.019ZM257.448 243.671C239.237 247.594 235.296 197.024 224.193 174.397C213.091 151.763 197.775 135.192 210.867 121.257C223.959 107.321 237.24 121.257 259.581 103.541C283.476 84.6025 304.627 104.198 308.587 122.239C312.548 140.28 297.433 159.856 294.149 169.472C291.964 175.882 291.593 186.378 293.037 200.96C295.202 222.833 275.652 239.748 257.441 243.671H257.448Z" fill="#78E6FF"/>
<path d="M301.538 52.6976C298.624 75.6504 332.867 107.854 357.933 92.1363C382.446 76.7629 391.382 114.874 438.515 129.539C426.971 64.0894 374.895 12.6409 309.154 2.02979C314.383 12.5303 303.756 35.2814 301.544 52.7041L301.538 52.6976Z" fill="#219653"/>
<path d="M293.043 200.967C291.595 186.385 291.966 175.889 294.156 169.478C297.434 159.863 312.555 140.286 308.594 122.246C304.633 104.205 283.483 84.609 259.588 103.548C237.24 121.263 223.96 107.328 210.874 121.263C197.782 135.199 213.098 151.769 224.2 174.403C235.302 197.037 239.25 247.601 257.454 243.678C275.659 239.755 295.216 222.84 293.05 200.967H293.043Z" fill="#219653"/>
<path d="M241.741 280.729C230.782 260.938 190.556 221.499 156.138 248.121C176.8 277.079 207.056 298.705 242.262 308.385C245.572 298.952 246.502 289.323 241.748 280.729H241.741Z" fill="#219653"/>
<path d="M162.635 122.597C162.635 86.4176 187.7 102.364 219.27 78.5455C244.934 59.184 236.551 42.7241 226.275 10.9429C168.13 33.9347 127 90.666 127 157C127 175.08 130.063 192.444 135.689 208.611C146.219 206.653 155.884 202.775 162.628 196.38C186.439 173.818 162.628 158.77 162.628 122.597H162.635Z" fill="#219653"/>
<path d="M342.264 212.71C364.163 269.018 309.459 241.388 290.019 266.449C281.538 277.378 284.328 294.58 293.55 313.701C369.483 309.114 430.847 250.535 439.776 175.835C433.338 169.621 426.548 164.651 419.634 161.463C396.259 150.689 320.366 156.401 342.271 212.71H342.264Z" fill="#219653"/>
<path d="M152.24 81.0692L160.269 79.0778C154.914 55.8629 138.658 36.1262 115.775 28.4031L113.377 36.8074C133.34 43.5872 147.53 60.8085 152.24 81.0692Z" fill="#EDC79D"/>
<path d="M130.154 86.5392C129.6 84.8754 129.514 83.0216 130.031 81.2071C131.322 76.6938 135.798 74.1456 140.034 75.5212C143.176 76.5431 145.303 79.4319 145.666 82.7006L152.238 81.0761C147.528 60.8154 133.338 43.5941 113.376 36.8144L96.8247 94.7994L130.154 86.5457V86.5392Z" fill="#F03214"/>
<path d="M140.039 75.5144C135.802 74.1388 131.32 76.687 130.035 81.2003C129.519 83.0147 129.605 84.8685 130.158 86.5323L145.67 82.6937C145.307 79.4251 143.186 76.5363 140.039 75.5144Z" fill="#932A09"/>
<path d="M127.638 52.483C123.691 49.4304 118.164 50.3672 115.299 54.5726L119.732 57.9985L116.529 62.7018L121.964 66.9006L125.167 62.1974L129.6 65.6233C132.465 61.4178 131.586 55.5289 127.638 52.4764V52.483Z" fill="#FFECD7"/>
<path d="M118.794 84.1628C121.4 82.6813 122.669 79.7932 121.626 77.7121C120.584 75.631 117.627 75.1449 115.02 76.6264C112.414 78.1079 111.146 80.996 112.188 83.0771C113.23 85.1582 116.188 85.6443 118.794 84.1628Z" fill="black"/>
<path d="M33.4013 84.3839C36.4077 73.8506 41.8058 64.7979 48.7716 57.684L43.1399 51.2711C35.1535 59.4003 28.9623 69.7697 25.5194 81.8291C22.0764 93.8886 21.8059 106.177 24.1852 117.667L32.2147 115.676C30.1489 105.64 30.3949 94.9105 33.4013 84.3839Z" fill="#EDC79D"/>
<path d="M32.5701 117.307L24.5406 119.298C29.8957 142.513 46.1513 162.25 69.0347 169.973L71.4324 161.568C51.4695 154.789 37.2796 137.567 32.5701 117.307Z" fill="#EDC79D"/>
<path d="M105.329 42.834L107.727 34.4297C84.6833 27.27 60.8654 34.0236 44.2839 50.1313L49.9156 56.5442C64.419 42.5065 85.2059 36.6176 105.329 42.834Z" fill="#EDC79D"/>
<path d="M154.082 87.2201L146.052 89.2114C148.118 99.2468 147.872 109.977 144.866 120.503C141.859 131.036 136.461 140.089 129.495 147.203L135.127 153.616C143.113 145.487 149.304 135.117 152.747 123.058C156.19 110.998 156.461 98.7097 154.082 87.2201Z" fill="#EDC79D"/>
<path d="M72.9411 162.053L70.5433 170.457C93.5865 177.617 117.404 170.864 133.986 154.756L128.354 148.343C113.851 162.381 93.0639 168.27 72.9411 162.053Z" fill="#EDC79D"/>
<path d="M80.5824 128.79C76.3463 127.414 73.9547 122.646 75.2458 118.132C76.5369 113.619 81.0127 111.071 85.2488 112.446C85.3164 112.466 85.3779 112.499 85.4394 112.518L87.9909 103.59L32.5777 117.313C37.2872 137.574 51.4771 154.795 71.4401 161.575L80.7852 128.849C80.7176 128.829 80.65 128.816 80.5885 128.796L80.5824 128.79Z" fill="#F03214"/>
<path d="M86.8851 113.2C90.0698 115.132 91.6991 119.213 90.5863 123.104C89.4734 126.995 85.9936 129.419 82.3355 129.137L72.935 162.06C93.0578 168.27 113.845 162.387 128.348 148.35L89.4858 104.081L86.8789 113.206L86.8851 113.2Z" fill="#F03214"/>
<path d="M105.328 42.8342C85.2053 36.6243 64.4185 42.5066 49.915 56.5444L88.7774 100.813L105.328 42.8276V42.8342Z" fill="#F03214"/>
<path d="M138.837 92.6901C137.546 97.2034 133.07 99.7515 128.834 98.3759C126.854 97.734 125.286 96.3452 124.303 94.5962L90.6417 102.929L129.504 147.197C136.464 140.083 141.868 131.03 144.874 120.497C147.881 109.964 148.127 99.2406 146.061 89.2052L139.163 90.9149C139.114 91.5044 139.015 92.1005 138.843 92.6835L138.837 92.6901Z" fill="#F03214"/>
<path d="M48.7716 57.6842C41.8119 64.7981 36.4077 73.8509 33.4012 84.3841C30.3948 94.9173 30.1488 105.64 32.2146 115.676L87.6278 101.953L48.7654 57.6842H48.7716Z" fill="#F03214"/>
<path d="M90.5862 123.097C91.699 119.206 90.0698 115.125 86.885 113.193L82.3354 129.124C85.9874 129.406 89.4734 126.988 90.5862 123.091V123.097Z" fill="#932A09"/>
<path d="M85.2501 112.44C81.014 111.064 76.532 113.613 75.2471 118.126C73.956 122.639 76.3476 127.414 80.5836 128.783C80.6513 128.803 80.7189 128.816 80.7804 128.836L85.4407 112.512C85.373 112.486 85.3116 112.46 85.2501 112.44Z" fill="#932A09"/>
<path d="M128.834 98.3759C133.07 99.7515 137.552 97.2034 138.837 92.6901C139.003 92.1005 139.107 91.511 139.156 90.9214L124.302 94.6028C125.286 96.3518 126.86 97.7405 128.834 98.3824V98.3759Z" fill="#932A09"/>
<path d="M133.247 116.724L130.031 121.447L125.617 118.034L121.676 123.825L126.09 127.237L122.875 131.96C126.822 135.013 132.349 134.076 135.214 129.871C138.079 125.665 137.2 119.776 133.253 116.724H133.247Z" fill="#FFECD7"/>
<path d="M57.7476 122.567L52.3126 118.368L49.1094 123.071L44.6766 119.645C41.8116 123.851 42.6908 129.739 46.6379 132.792C50.585 135.844 56.1122 134.908 58.9772 130.702L54.5444 127.276L57.7476 122.573V122.567Z" fill="#FFECD7"/>
<path d="M101.234 146.365L95.8235 147.282L94.9689 141.544L88.3351 142.671L89.1897 148.409L83.7793 149.326C84.5478 154.461 89.0729 157.959 93.893 157.141C98.7131 156.322 101.996 151.501 101.228 146.365H101.234Z" fill="#FFECD7"/>
<path d="M46.7489 84.8686L51.1633 88.2814L55.1043 82.4907L50.6899 79.078L53.9054 74.355C49.9583 71.3025 44.4311 72.2392 41.5661 76.4446C38.701 80.6501 39.5802 86.539 43.5273 89.5915L46.7428 84.8686H46.7489Z" fill="#FFECD7"/>
<path d="M81.0057 55.3325C80.2372 50.1969 75.7121 46.6989 70.892 47.5177C66.0719 48.3365 62.7888 53.1577 63.5573 58.2933L68.9677 57.3763L69.8222 63.1145L76.4561 61.9878L75.6015 56.2496L81.0118 55.3325H81.0057Z" fill="#FFECD7"/>
<path d="M113.433 118.859C117.86 118.859 121.45 115.035 121.45 110.317C121.45 105.6 117.86 101.776 113.433 101.776C109.005 101.776 105.416 105.6 105.416 110.317C105.416 115.035 109.005 118.859 113.433 118.859Z" fill="#932A09"/>
<path d="M65.68 103.878C70.1077 103.878 73.6971 100.054 73.6971 95.3366C73.6971 90.619 70.1077 86.7947 65.68 86.7947C61.2522 86.7947 57.6628 90.619 57.6628 95.3366C57.6628 100.054 61.2522 103.878 65.68 103.878Z" fill="#932A09"/>
<path d="M45.6325 107.514C47.5858 106.403 48.042 103.252 46.6515 100.475C45.261 97.6981 42.5503 96.3471 40.597 97.4573C38.6437 98.5676 38.1875 101.719 39.578 104.496C40.9685 107.273 43.6792 108.624 45.6325 107.514Z" fill="black"/>
<path d="M107.678 140.724C109.631 139.614 110.087 136.463 108.697 133.686C107.306 130.909 104.596 129.558 102.642 130.668C100.689 131.778 100.233 134.93 101.623 137.707C103.014 140.484 105.725 141.835 107.678 140.724Z" fill="black"/>
<path d="M96.7421 56.6318C98.6954 55.5216 99.1516 52.3703 97.7611 49.5934C96.3706 46.8164 93.6599 45.4653 91.7066 46.5756C89.7533 47.6859 89.2971 50.8371 90.6876 53.6141C92.0781 56.391 94.7888 57.7421 96.7421 56.6318Z" fill="black"/>
<path d="M69.1747 145.75C71.7811 144.268 73.0492 141.38 72.0071 139.299C70.965 137.218 68.0074 136.732 65.401 138.214C62.7946 139.695 61.5265 142.583 62.5686 144.664C63.6106 146.745 66.5683 147.231 69.1747 145.75Z" fill="black"/>
<path d="M140.97 109.218C143.576 107.737 144.844 104.849 143.802 102.768C142.76 100.687 139.803 100.2 137.196 101.682C134.59 103.163 133.322 106.052 134.364 108.133C135.406 110.214 138.364 110.7 140.97 109.218Z" fill="black"/>
<path d="M85.6495 82.7073C90.0772 82.7073 93.6667 78.883 93.6667 74.1655C93.6667 69.4479 90.0772 65.6236 85.6495 65.6236C81.2217 65.6236 77.6323 69.4479 77.6323 74.1655C77.6323 78.883 81.2217 82.7073 85.6495 82.7073Z" fill="#932A09"/>
<path d="M18.2425 109.631C4.36965 116.68 -1.53622 134.455 5.07154 149.247C6.10506 151.557 7.38331 153.666 8.85745 155.541L0.243248 165.821L5.51032 170.84L14.051 160.649C22.0307 166.696 32.7646 168.091 42.2114 163.291C56.0842 156.241 61.9901 138.466 55.3824 123.675C48.7749 108.878 32.1109 102.581 18.2425 109.631ZM21.281 116.43C31.6338 111.168 44.0755 115.869 49.0073 126.916C53.9394 137.958 49.5303 151.229 39.1729 156.491C28.8201 161.753 16.3784 157.052 11.4466 146.005C6.51451 134.963 10.9236 121.692 21.281 116.43Z" fill="black"/>
<path d="M21.2808 116.43C10.9279 121.692 6.51455 134.958 11.4464 146.005C16.3784 157.047 28.8153 161.753 39.1727 156.491C49.5256 151.229 53.9389 137.963 49.0071 126.916C44.075 115.874 31.6382 111.168 21.2808 116.43Z" fill="white"/>
<path d="M29.0159 122.58C24.1557 125.048 22.0871 131.278 24.4006 136.461C26.7141 141.645 32.5543 143.851 37.4144 141.382C42.2746 138.914 44.3432 132.685 42.0297 127.501C39.7162 122.317 33.876 120.112 29.0159 122.58Z" fill="black"/>
<path d="M36.9002 122.931C34.8052 123.993 33.9125 126.68 34.9132 128.915C35.9093 131.149 38.4282 132.101 40.5235 131.034C42.6185 129.971 43.5112 127.284 42.5105 125.049C41.5144 122.815 38.9954 121.863 36.9002 122.931Z" fill="white"/>
</svg>
