<svg width="248" height="119" viewBox="0 0 248 119" fill="none" xmlns="http://www.w3.org/2000/svg">
<path d="M50.1657 37.1694C62.3699 37.1694 71.2192 47.0126 71.8673 57.7765C79.2552 60.2608 84.5932 67.1619 84.5932 75.3261C84.5932 85.5693 76.2024 93.9152 65.904 93.9152H18.6892C7.82698 93.9152 0 86.5023 0 77.2828C0 70.0324 4.76539 63.009 11.9881 61.047C12.4589 55.3829 15.2535 51.0204 19.1494 48.695C22.9101 46.45 27.5279 46.0604 31.6908 47.5332C35.2355 41.7573 41.7222 37.1694 50.1657 37.1694Z" fill="#DFF4FF"/>
<path d="M136.79 97.8766C134.883 97.8766 132.868 98.9659 132.002 100.47L123.036 115.999C121.935 117.908 120.281 119 118.499 119C116.716 119 115.065 117.906 113.962 115.999L104.996 100.47C104.127 98.9682 102.114 97.8766 100.207 97.8766C99.809 97.8766 99.429 97.9249 99.0789 98.0194L81.7571 102.66C81.1169 102.83 80.4904 102.918 79.8962 102.918C78.2933 102.918 76.9275 102.289 76.0523 101.149C75.085 99.8871 74.8317 98.146 75.3407 96.2437L79.9814 78.9226C80.5388 76.8453 79.3941 74.0793 77.5309 73.0038L62.001 64.0381C60.0917 62.9373 59 61.2837 59 59.5011C59 57.7186 60.094 56.065 62.001 54.9642L77.5309 45.9985C79.3941 44.923 80.5388 42.157 79.9814 40.0797L75.3407 22.7586C74.8317 20.8586 75.085 19.1152 76.0523 17.8554C76.9275 16.7131 78.2932 16.0844 79.8985 16.0844C80.4927 16.0844 81.1192 16.1719 81.7595 16.3423L99.0812 20.9829C99.4336 21.0774 99.8136 21.1257 100.21 21.1257C102.117 21.1257 104.132 20.0364 104.998 18.5325L113.959 3.00085C115.06 1.09164 116.714 0 118.497 0C120.279 0 121.933 1.09394 123.034 3.00085L132 18.5302C132.868 20.0318 134.881 21.1234 136.79 21.1234C137.189 21.1234 137.566 21.0751 137.919 20.9806L155.241 16.34C155.881 16.1696 156.507 16.0821 157.101 16.0821C158.704 16.0821 160.07 16.7108 160.948 17.8508C161.915 19.1129 162.168 20.854 161.659 22.754L157.019 40.0751C156.461 42.1524 157.606 44.916 159.469 45.9939L174.999 54.9619C176.908 56.0627 178 57.7163 178 59.4988C178 61.2814 176.906 62.9327 174.997 64.0358L159.467 73.0015C157.604 74.077 156.459 76.843 157.016 78.9203L161.657 96.2414C162.166 98.1414 161.915 99.8848 160.945 101.145C160.07 102.287 158.704 102.916 157.099 102.916C156.505 102.916 155.879 102.828 155.238 102.658L137.916 98.0171C137.564 97.9249 137.184 97.8766 136.788 97.8766H136.79Z" fill="#FFBE00"/>
<path d="M213.572 19.8306C225.777 19.8306 234.626 29.6737 235.274 40.4376C242.662 42.922 248 49.823 248 57.9872C248 68.2304 239.609 76.5763 229.311 76.5763H182.096C171.234 76.5763 163.407 69.1634 163.407 59.944C163.407 52.6935 168.172 45.6702 175.395 43.7082C175.866 38.0441 178.66 33.6816 182.556 31.3562C186.317 29.1112 190.935 28.7216 195.098 30.1944C198.642 24.4184 205.129 19.8306 213.572 19.8306Z" fill="#DFF4FF"/>
<g filter="url(#filter0_d_211_4732)">
<path d="M139.555 29.9439L102.514 26.7032C95.6138 26.0995 89.5307 31.2038 88.927 38.1039L85.6863 75.1453C85.0826 82.0454 90.1869 88.1284 97.0871 88.7321L134.128 91.9728C141.029 92.5765 147.112 87.4722 147.715 80.5721L150.956 43.5307C151.56 36.6306 146.455 30.5476 139.555 29.9439Z" fill="#F5F5F5"/>
</g>
<path d="M100.405 57.6129C101.272 47.7013 110.011 40.3685 119.922 41.2356C129.834 42.1028 137.167 50.8417 136.3 60.7533L100.405 57.6129Z" fill="#FF8C14"/>
<path d="M131.749 60.3553C131.102 67.7543 124.579 73.2275 117.18 72.5801C109.781 71.9328 104.308 65.4101 104.955 58.0111L131.749 60.3553Z" fill="white"/>
<path d="M125.359 49.1124C125.905 49.1601 126.386 48.7565 126.434 48.2108C126.481 47.6651 126.078 47.184 125.532 47.1363C124.986 47.0885 124.505 47.4922 124.457 48.0379C124.41 48.5836 124.813 49.0647 125.359 49.1124Z" fill="#8C3C00"/>
<path d="M129.778 53.9483C130.324 53.9961 130.805 53.5924 130.852 53.0467C130.9 52.501 130.496 52.0199 129.951 51.9722C129.405 51.9244 128.924 52.3281 128.876 52.8738C128.829 53.4195 129.232 53.9006 129.778 53.9483Z" fill="#8C3C00"/>
<path d="M124.245 54.5494C124.791 54.5972 125.272 54.1935 125.32 53.6478C125.368 53.1021 124.964 52.621 124.418 52.5733C123.872 52.5255 123.391 52.9292 123.344 53.4749C123.296 54.0206 123.7 54.5017 124.245 54.5494Z" fill="#8C3C00"/>
<path d="M108.276 74.1074L104.422 81.4398L108.463 83.5668L112.35 76.1712C113.75 76.667 115.234 76.9952 116.782 77.1306C126.678 77.9964 135.434 70.6495 136.299 60.7533L131.749 60.3552C131.103 67.7426 124.567 73.2264 117.18 72.5801C109.792 71.9338 104.309 65.3985 104.955 58.011L100.404 57.6129C99.8148 64.3519 103.036 70.5609 108.276 74.1074Z" fill="black"/>
<path d="M128.133 32.8727C124.605 32.564 121.365 34.2602 119.532 37.0207C120.649 38.2579 121.437 39.7853 121.769 41.4634C125.956 40.9002 129.358 37.5419 129.809 33.1788C129.27 33.0305 128.708 32.923 128.129 32.8723L128.133 32.8727Z" fill="#00641E"/>
<path d="M113.421 33.9696C112.722 33.9085 112.036 33.9301 111.367 34.0155C112.151 37.9928 115.477 41.1423 119.719 41.5135C120.417 41.5746 121.104 41.553 121.772 41.4676C120.989 37.4903 117.663 34.3408 113.421 33.9696Z" fill="#00961E"/>
<defs>
<filter id="filter0_d_211_4732" x="77.8178" y="22.7447" width="81.0066" height="81.0066" filterUnits="userSpaceOnUse" color-interpolation-filters="sRGB">
<feFlood flood-opacity="0" result="BackgroundImageFix"/>
<feColorMatrix in="SourceAlpha" type="matrix" values="0 0 0 0 0 0 0 0 0 0 0 0 0 0 0 0 0 0 127 0" result="hardAlpha"/>
<feOffset dy="3.91"/>
<feGaussianBlur stdDeviation="3.91"/>
<feColorMatrix type="matrix" values="0 0 0 0 0 0 0 0 0 0 0 0 0 0 0 0 0 0 0.3 0"/>
<feBlend mode="normal" in2="BackgroundImageFix" result="effect1_dropShadow_211_4732"/>
<feBlend mode="normal" in="SourceGraphic" in2="effect1_dropShadow_211_4732" result="shape"/>
</filter>
</defs>
</svg>
