<svg width="274" height="291" viewBox="0 0 274 291" fill="none" xmlns="http://www.w3.org/2000/svg">
<path d="M47.5146 177.578L36.5939 218.61L47.5146 177.578Z" fill="#FFDCFF"/>
<path d="M187.271 258.929L209.028 177.193C197.262 183.223 183.297 185.088 169.521 181.4C152.938 176.962 140.112 165.416 133.46 150.931C131.398 155.225 130.335 160.142 130.597 165.6C131.787 190.462 113.968 204.26 90.3489 191.355C74.0026 182.424 60.7022 176.215 47.5108 177.579L36.5874 218.61C35.8146 221.513 37.5494 224.499 40.4609 225.278L131.061 249.522L180.597 262.776C183.508 263.555 186.496 261.832 187.268 258.928L187.271 258.929Z" fill="white"/>
<path d="M90.3528 191.354C113.975 204.26 131.791 190.461 130.6 165.599C130.339 160.141 131.402 155.223 133.464 150.929C128.3 139.682 126.862 126.66 130.279 113.821L219.542 137.705L237.043 71.9505C237.816 69.0469 236.081 66.0609 233.17 65.282L140.264 40.4199L139.911 40.325C138.622 41.3369 136.722 42.183 134.517 42.6227C130.141 43.4925 126.237 42.4316 125.793 40.2443C125.575 39.1607 126.25 38.0047 127.522 37.0077L105.729 31.1759C105.937 31.7115 106.121 32.2753 106.279 32.8661C107.413 37.1759 106.584 41.1272 104.424 41.6863C102.266 42.2468 99.5969 39.2057 98.4596 34.8946C97.9018 32.7679 97.8195 30.7331 98.1401 29.1465L93.0379 27.7824C90.1264 27.0035 87.139 28.7269 86.3663 31.6305L53.8042 153.95L47.5147 177.578C60.7034 176.212 74.0038 182.421 90.3528 191.354Z" fill="#FF6E3C"/>
<path d="M125.792 40.2471C126.234 42.4304 130.14 43.4953 134.516 42.6255C136.721 42.1858 138.62 41.3396 139.91 40.3278L127.519 37.0131C126.248 38.0075 125.572 39.1662 125.79 40.2498L125.792 40.2471Z" fill="#FFC88C"/>
<path d="M98.4617 34.8991C99.5963 39.2089 102.265 42.2499 104.426 41.6908C106.584 41.1304 107.415 37.1804 106.281 32.8706C106.126 32.2812 105.938 31.7187 105.731 31.1804L98.1435 29.1483C97.823 30.735 97.9039 32.7724 98.463 34.8964L98.4617 34.8991Z" fill="#FFC88C"/>
<path d="M112.833 128.238C114.757 127.114 114.484 123.085 112.222 119.238C109.961 115.391 106.567 113.183 104.643 114.306C102.718 115.429 102.992 119.459 105.253 123.306C107.515 127.153 110.908 129.361 112.833 128.238Z" fill="#FFC88C"/>
<path d="M108.122 202.269C110.047 201.145 109.773 197.116 107.512 193.269C105.25 189.422 101.857 187.214 99.9323 188.337C98.0078 189.461 98.2811 193.49 100.543 197.337C102.804 201.184 106.198 203.392 108.122 202.269Z" fill="#FFC88C"/>
<path d="M80.9198 137.181C85.0297 138.931 89.0678 138.689 89.9393 136.641C90.8108 134.592 88.1856 131.513 84.0758 129.763C79.9659 128.012 75.9278 128.254 75.0563 130.302C74.1848 132.351 76.81 135.43 80.9198 137.181Z" fill="#FFC88C"/>
<path d="M120.12 96.3774C122.35 96.4883 124.328 92.9711 124.538 88.5214C124.749 84.0717 123.112 80.3747 120.882 80.2638C118.653 80.1529 116.675 83.6702 116.464 88.1198C116.254 92.5695 117.891 96.2665 120.12 96.3774Z" fill="#FFC88C"/>
<path d="M76.6727 169.946C79.2308 166.301 79.8216 162.308 77.9923 161.027C76.1631 159.745 72.6064 161.661 70.0483 165.306C67.4902 168.95 66.8994 172.943 68.7287 174.224C70.5579 175.506 74.1146 173.59 76.6727 169.946Z" fill="#FFC88C"/>
<path d="M99.6121 98.7473C103.029 95.8897 104.635 92.1877 103.199 90.4787C101.763 88.7697 97.8286 89.7008 94.4112 92.5583C90.9939 95.4159 89.3879 99.1179 90.8241 100.827C92.2603 102.536 96.1948 101.605 99.6121 98.7473Z" fill="#FFC88C"/>
<path d="M106.964 162.981C110.381 160.124 111.987 156.422 110.551 154.713C109.115 153.004 105.18 153.935 101.763 156.792C98.3455 159.65 96.7395 163.352 98.1756 165.061C99.6118 166.77 103.546 165.839 106.964 162.981Z" fill="#FFC88C"/>
<g style="mix-blend-mode:multiply" opacity="0.5">
<g style="mix-blend-mode:multiply" opacity="0.3">
<path d="M103.658 70.2625C101.869 69.7829 100.294 69.0141 98.9319 67.959C97.571 66.9013 96.4758 65.6403 95.6434 64.1748C94.8111 62.7093 94.2838 61.1104 94.0614 59.3781C93.839 57.6458 93.9757 55.8538 94.4688 54.001C94.9605 52.1508 95.7304 50.5192 96.7771 49.1155C97.8211 47.7104 99.0694 46.5845 100.514 45.7403C101.961 44.8974 103.535 44.362 105.237 44.138C106.94 43.9112 108.696 44.0431 110.507 44.5267C112.321 45.0117 113.867 45.7495 115.151 46.7389C116.432 47.727 117.444 48.8591 118.184 50.1314C118.924 51.4036 119.343 52.7112 119.44 54.0528L114.254 55.0326C114.149 53.7138 113.67 52.5178 112.821 51.4391C111.967 50.3618 110.782 49.6194 109.26 49.2119C107.782 48.8165 106.393 48.8171 105.089 49.2084C103.785 49.5998 102.666 50.324 101.727 51.3756C100.788 52.4273 100.101 53.7687 99.6666 55.3958C99.2345 57.0243 99.1599 58.5354 99.4509 59.9265C99.7379 61.3189 100.35 62.5107 101.286 63.5019C102.22 64.4918 103.426 65.1845 104.904 65.58C106.424 65.9861 107.823 65.9371 109.097 65.4303C110.371 64.9235 111.38 64.1242 112.128 63.0312L116.139 66.4706C115.384 67.5838 114.373 68.5093 113.098 69.2431C111.825 69.9782 110.385 70.4531 108.782 70.6689C107.179 70.8847 105.47 70.7502 103.657 70.2652L103.658 70.2625Z" fill="black"/>
</g>
<g style="mix-blend-mode:multiply" opacity="0.3">
<path d="M118.255 73.7407L124.89 48.807L134.456 51.3655C136.178 51.8251 137.626 52.5376 138.794 53.4963C139.964 54.4522 140.772 55.6277 141.22 57.0131C141.665 58.3999 141.656 59.9607 141.195 61.702C140.743 63.3976 139.967 64.7378 138.866 65.7226C137.765 66.7073 136.474 67.3229 134.995 67.5735L138.053 79.038L132.213 77.4749L128.969 64.8125L131.799 67.6855L125.86 66.097L123.454 75.1328L118.254 73.7434L118.255 73.7407ZM127.065 61.5783L131.46 62.7554C132.199 62.9518 132.875 62.979 133.49 62.8317C134.104 62.6845 134.63 62.3963 135.07 61.9645C135.507 61.5314 135.817 60.9816 135.995 60.3125C136.179 59.6232 136.187 58.9772 136.022 58.3824C135.856 57.7877 135.543 57.2737 135.083 56.8405C134.622 56.4073 134.023 56.0899 133.286 55.8948L128.891 54.7178L127.065 61.5783Z" fill="black"/>
</g>
<g style="mix-blend-mode:multiply" opacity="0.3">
<path d="M141.561 79.9757L148.199 55.0434L153.401 56.4369L146.763 81.3692L141.561 79.9757Z" fill="black"/>
</g>
<g style="mix-blend-mode:multiply" opacity="0.3">
<path d="M160.723 85.5336C159.156 85.1141 157.762 84.4351 156.536 83.498C155.31 82.5609 154.339 81.4354 153.624 80.1189C152.908 78.805 152.493 77.3657 152.381 75.8052L157.15 75.0369C157.413 76.565 157.996 77.8697 158.897 78.9469C159.797 80.0241 160.917 80.7411 162.258 81.1019C162.973 81.2929 163.618 81.3484 164.192 81.2616C164.765 81.1775 165.25 80.9794 165.645 80.6659C166.039 80.3524 166.309 79.9303 166.451 79.3942C166.605 78.8137 166.558 78.2712 166.311 77.7598C166.063 77.2511 165.591 76.7723 164.896 76.3233L160.424 73.4057C158.605 72.2277 157.352 70.9052 156.664 69.4408C155.976 67.9764 155.854 66.4078 156.298 64.735C156.689 63.2638 157.397 62.0674 158.423 61.1459C159.447 60.2271 160.697 59.6276 162.17 59.3542C163.646 59.0781 165.234 59.1699 166.934 59.6255C168.433 60.0276 169.751 60.6557 170.891 61.5096C172.03 62.3636 172.939 63.3844 173.618 64.5694C174.297 65.7544 174.696 67.0688 174.814 68.5111L170.077 69.2888C169.916 68.0023 169.452 66.9043 168.69 65.9961C167.924 65.0865 166.939 64.4701 165.732 64.1454C165.038 63.9584 164.395 63.9069 163.798 63.9857C163.203 64.0658 162.703 64.2733 162.302 64.607C161.901 64.9406 161.631 65.3762 161.489 65.9123C161.336 66.4927 161.389 67.0487 161.654 67.5856C161.918 68.1225 162.399 68.616 163.094 69.065L167.481 71.8901C169.323 73.0761 170.584 74.3825 171.275 75.8079C171.961 77.2347 172.082 78.7858 171.635 80.4573C171.248 81.907 170.528 83.094 169.467 84.0183C168.406 84.9425 167.126 85.5433 165.625 85.8235C164.125 86.1037 162.492 86.0066 160.723 85.5336Z" fill="black"/>
</g>
<g style="mix-blend-mode:multiply" opacity="0.3">
<path d="M174.106 88.6844L180.744 63.7521L190.342 66.3199C192.066 66.7809 193.512 67.492 194.683 68.452C195.855 69.4093 196.66 70.5834 197.109 71.9689C197.553 73.3557 197.547 74.9178 197.083 76.6577C196.631 78.3534 195.863 79.6909 194.777 80.6662C193.691 81.6415 192.4 82.2571 190.906 82.5171C189.409 82.7758 187.811 82.676 186.114 82.2217L181.719 81.0447L179.313 90.0806L174.111 88.6871L174.106 88.6844ZM182.915 76.5221L187.347 77.7071C188.085 77.9062 188.759 77.9294 189.376 77.7835C189.994 77.6375 190.517 77.348 190.954 76.9149C191.394 76.4832 191.701 75.9321 191.879 75.2629C192.063 74.5736 192.071 73.9276 191.906 73.3328C191.741 72.7381 191.428 72.2241 190.967 71.7909C190.506 71.3577 189.907 71.0403 189.171 70.8452L184.739 69.6602L182.913 76.5207L182.915 76.5221Z" fill="black"/>
</g>
<g style="mix-blend-mode:multiply" opacity="0.3">
<path d="M202.282 96.2247L205.179 85.3481L200.6 69.0639L206.538 70.6524L209.763 82.8461L207.65 82.2796L216.472 73.3098L222.413 74.8997L210.392 86.7039L207.49 97.6142L202.286 96.2234L202.282 96.2247Z" fill="black"/>
</g>
</g>
<path d="M181.649 130.931L173.553 131.557L168.366 66.9002C168.187 64.6694 169.856 62.7176 172.091 62.5449C174.326 62.3722 176.286 64.0436 176.465 66.2744L181.652 130.931L181.649 130.931Z" fill="#C8C8C8"/>
<path d="M179.312 148.192C186.363 147.647 191.392 138.646 190.545 128.087C189.698 117.528 183.296 109.41 176.245 109.955C169.194 110.499 164.165 119.501 165.012 130.06C165.859 140.619 172.261 148.737 179.312 148.192Z" fill="#C8C8C8"/>
<path d="M212.157 165.44L213.957 158.68L219.542 137.705L130.279 113.821C126.86 126.663 128.3 139.683 133.464 150.929C140.112 165.416 152.94 176.964 169.525 181.399C183.301 185.087 197.266 183.221 209.032 177.192L212.161 165.439L212.157 165.44Z" fill="#00C8FF"/>
<path d="M96.2808 68.7715C100.656 67.8995 103.845 65.4218 103.402 63.2373C102.959 61.0528 99.0534 59.9887 94.6779 60.8607C90.3024 61.7326 87.1142 64.2103 87.5569 66.3949C87.9995 68.5794 91.9054 69.6434 96.2808 68.7715Z" fill="#FFC88C"/>
<path d="M145.042 71.0872C146.966 69.9638 146.693 65.9343 144.431 62.0872C142.17 58.2401 138.776 56.0321 136.852 57.1556C134.927 58.279 135.201 62.3084 137.462 66.1555C139.724 70.0026 143.117 72.2106 145.042 71.0872Z" fill="#FFC88C"/>
<path d="M187.974 157.855C205.052 154.075 222.02 164.88 225.795 181.939C228.366 193.558 224.164 205.121 215.828 212.512L224.234 224.416L217.664 229.049L209.187 217.044C206.855 218.228 204.34 219.142 201.668 219.734C184.59 223.513 167.622 212.708 163.847 195.649C160.072 178.59 170.896 161.634 187.974 157.855ZM171.7 193.911C174.518 206.645 187.183 214.71 199.932 211.889C212.68 209.068 220.76 196.412 217.942 183.677C215.123 170.943 202.458 162.878 189.71 165.699C176.961 168.52 168.882 181.176 171.7 193.911Z" fill="black"/>
<path d="M195 212.684C208.254 212.684 219 201.975 219 188.764C219 175.553 208.254 164.844 195 164.844C181.745 164.844 171 175.553 171 188.764C171 201.975 181.745 212.684 195 212.684Z" fill="white"/>
<path d="M191.715 190.817L180.688 188.21L179.835 178.195L190.863 180.803L191.715 190.817Z" fill="#F5F5F5"/>
<path d="M190.863 180.8L179.835 178.194L186.146 172.152L197.173 174.757L190.863 180.8Z" fill="#E2E2E2"/>
<path d="M198.026 184.774L191.715 190.818L190.863 180.803L197.173 174.757L198.026 184.774Z" fill="#C4C4C4"/>
<path d="M203.898 198.004L193.795 192.893L195.333 182.959L205.436 188.069L203.898 198.004Z" fill="#F5F5F5"/>
<path d="M205.437 188.066L195.334 182.955L202.896 178.557L212.999 183.668L205.437 188.066Z" fill="#E2E2E2"/>
<path d="M211.459 193.602L203.897 198.003L205.436 188.069L212.999 183.667L211.459 193.602Z" fill="#C4C4C4"/>
<path d="M193.47 203.643L182.46 200.968L181.671 190.948L192.682 193.623L193.47 203.643Z" fill="#F5F5F5"/>
<path d="M192.682 193.619L181.671 190.944L188.02 184.942L199.031 187.617L192.682 193.619Z" fill="#E2E2E2"/>
<path d="M199.82 197.637L193.471 203.643L192.683 193.623L199.032 187.617L199.82 197.637Z" fill="#C4C4C4"/>
</svg>
