<svg width="117" height="115" viewBox="0 0 117 115" fill="none" xmlns="http://www.w3.org/2000/svg">
<path d="M101.526 42.5257C107.203 48.3003 108.822 57.2734 104.886 64.8576C103.289 67.935 100.967 70.3901 98.2468 72.1478C100.863 82.02 95.3134 92.3013 85.4758 95.4191C82.1678 96.468 78.7907 96.5602 75.6267 95.8801C70.4976 104.709 59.3 108.057 50.1424 103.303C47.065 101.707 44.6099 99.3841 42.8522 96.6639C32.98 99.2803 22.6987 93.7305 19.5809 83.893C18.532 80.585 18.4398 77.2078 19.1199 74.0439C10.2908 68.9147 6.94249 57.7171 11.697 48.5596C13.2934 45.4821 15.6159 43.0271 18.3361 41.2693C15.7197 31.3972 21.2695 21.1159 31.107 17.9981C34.415 16.9492 37.7922 16.857 40.9561 17.537C42.1721 15.445 43.7282 13.67 45.5147 12.2292C44.2526 8.12592 44.097 3.94194 44.8808 0C43.4803 0.334258 42.0857 0.71462 40.691 1.15838C10.0084 10.8807 -6.98107 43.6322 2.73546 74.309C12.4578 104.992 45.2093 121.981 75.8861 112.265C106.569 102.542 123.558 69.7907 113.842 39.1139C113.525 38.1054 113.179 37.1141 112.81 36.1402C110.361 38.7797 107.22 40.8429 103.543 42.007C102.869 42.2202 102.194 42.3931 101.52 42.5372L101.526 42.5257Z" fill="#FFD8B8"/>
<path d="M76.7798 28.8094C63.6631 32.8205 49.7338 25.5302 45.5843 12.4192C45.5613 12.3501 45.544 12.2809 45.5267 12.2175C43.7402 13.6583 42.1841 15.4391 40.9681 17.5253C37.8042 16.8453 34.427 16.9375 31.119 17.9864C21.2815 21.1042 15.7316 31.3855 18.3481 41.2576C15.6279 43.0154 13.3054 45.4647 11.709 48.5479C6.9545 57.7054 10.3028 68.903 19.1319 74.0322C18.4518 77.1961 18.544 80.5733 19.5929 83.8813C22.7107 93.7188 32.992 99.2686 42.8642 96.6522C44.6219 99.3724 47.0712 101.695 50.1544 103.291C59.312 108.046 70.5096 104.697 75.6387 95.8684C78.8027 96.5485 82.1798 96.4563 85.4878 95.4074C95.3254 92.2896 100.875 82.0083 98.2588 72.1361C100.979 70.3784 103.301 67.9291 104.898 64.8458C108.828 57.2674 107.215 48.2943 101.538 42.514C91.0953 44.75 80.4739 38.9466 76.7913 28.8036L76.7798 28.8094ZM63.8821 74.3203C54.1483 77.4036 43.7574 72.0151 40.6742 62.2813C37.591 52.5475 42.9794 42.1567 52.7133 39.0734C62.4471 35.9902 72.8379 41.3786 75.9211 51.1125C79.0044 60.8463 73.6159 71.2371 63.8821 74.3203Z" fill="#F1B0FF"/>
<path d="M59.8944 99.0381C59.6754 99.0381 59.4564 99.0036 59.2431 98.9286C58.2173 98.5656 57.6813 97.4475 58.0444 96.4217L60.6954 88.9067C61.0585 87.8866 62.1765 87.3449 63.2024 87.708C64.2282 88.071 64.7642 89.1891 64.4011 90.2149L61.7501 97.7299C61.4677 98.5368 60.707 99.0381 59.9001 99.0381H59.8944Z" fill="#00A4FF"/>
<path d="M37.5328 85.9504C37.3138 85.9504 37.0948 85.9158 36.8816 85.8409L29.3666 83.1898C28.3407 82.8268 27.8048 81.7087 28.1678 80.6829C28.5309 79.6629 29.649 79.1211 30.6748 79.4842L38.1898 82.1352C39.2156 82.4983 39.7516 83.6163 39.3885 84.6421C39.1061 85.449 38.3454 85.9504 37.5386 85.9504H37.5328Z" fill="#00A4FF"/>
<path d="M90.3627 56.8929C89.6308 56.8929 88.9277 56.4838 88.5876 55.7749C88.1208 54.7952 88.5358 53.6253 89.5097 53.1585L96.702 49.7179C97.6818 49.2511 98.8517 49.6603 99.3185 50.64C99.7853 51.6197 99.3703 52.7896 98.3964 53.2564L91.2041 56.697C90.9332 56.8295 90.6393 56.8872 90.3569 56.8872L90.3627 56.8929Z" fill="#00A4FF"/>
<path d="M81.2103 82.844C80.4784 82.844 79.7753 82.4348 79.4353 81.726C78.9685 80.7463 79.3834 79.5763 80.3574 79.1095L87.5497 75.669C88.5294 75.2022 89.6993 75.6171 90.1661 76.5911C90.6329 77.5708 90.218 78.7407 89.244 79.2075L82.0517 82.6481C81.7809 82.7806 81.4869 82.8382 81.2046 82.8382L81.2103 82.844Z" fill="#00A4FF"/>
<path d="M37.942 33.9444C37.5904 33.9444 37.2331 33.8522 36.9104 33.6505L30.1273 29.4665C29.2052 28.8959 28.917 27.6857 29.4876 26.7636C30.0581 25.8415 31.2684 25.5534 32.1904 26.1239L38.9736 30.3079C39.8957 30.8784 40.1838 32.0887 39.6133 33.0108C39.2444 33.6101 38.599 33.9444 37.942 33.9444Z" fill="#00A4FF"/>
<path d="M19.2571 59.2213C18.5252 59.2213 17.8221 58.8121 17.4821 58.1033C17.0153 57.1236 17.4302 55.9537 18.4042 55.4868L25.5965 52.0463C26.5762 51.5795 27.7461 51.9944 28.2129 52.9684C28.6797 53.9481 28.2648 55.118 27.2908 55.5848L20.0985 59.0254C19.8276 59.1579 19.5337 59.2155 19.2513 59.2155L19.2571 59.2213Z" fill="#00A4FF"/>
<path d="M52.7118 39.0736C62.4456 35.9903 72.8364 41.3788 75.9197 51.1126C79.0029 60.8464 73.6144 71.2372 63.8806 74.3205C73.6144 71.2372 79.0029 60.8464 75.9197 51.1126C72.8364 41.3788 62.4456 35.9903 52.7118 39.0736Z" fill="#FFD8B8"/>
</svg>
