<svg width="267" height="223" viewBox="0 0 267 223" fill="none" xmlns="http://www.w3.org/2000/svg">
<path d="M332.037 355.48C393.048 294.442 393.048 195.479 332.037 134.441C271.025 73.4024 172.106 73.4024 111.094 134.441C50.0823 195.479 50.0823 294.442 111.094 355.48C172.106 416.518 271.025 416.518 332.037 355.48Z" fill="#A08D84"/>
<path d="M223.49 139.607C228.238 139.607 232.086 135.757 232.086 131.008C232.086 126.259 228.238 122.409 223.49 122.409C218.743 122.409 214.895 126.259 214.895 131.008C214.895 135.757 218.743 139.607 223.49 139.607Z" fill="#52443D"/>
<path d="M240.071 184.812C244.818 184.812 248.667 180.961 248.667 176.212C248.667 171.463 244.818 167.613 240.071 167.613C235.324 167.613 231.475 171.463 231.475 176.212C231.475 180.961 235.324 184.812 240.071 184.812Z" fill="#52443D"/>
<path d="M173.812 6.17329C146.366 19.9887 130.218 47.2911 129.273 75.9883C143.14 80.0228 155.924 87.7 166.023 98.576C194.351 75.3312 204.121 35.0261 187.593 0.76123C182.926 2.12721 178.312 3.90818 173.812 6.17329Z" fill="#52443D"/>
<path d="M70.2733 81.3655C64.8405 84.0974 59.8687 87.3769 55.3462 91.0772C79.2549 116.858 118.165 124.933 151.142 108.334C156.575 105.602 161.547 102.322 166.069 98.6218C142.161 72.841 103.25 64.7662 70.2733 81.3655Z" fill="#85746C"/>
</svg>
