<?xml version="1.0" standalone="no"?>
<!DOCTYPE svg PUBLIC "-//W3C//DTD SVG 1.1//EN" "http://www.w3.org/Graphics/SVG/1.1/DTD/svg11.dtd">
<svg xmlns="http://www.w3.org/2000/svg" width="64" height="50" viewBox="0 0 64 50" fill="none">
<path d="M0.501424 46.0954C1.40021 29.4048 15.6608 16.6016 32.3514 17.5004C49.042 18.3992 61.8452 32.6598 60.9464 49.3504L0.501424 46.0954Z" fill="#FF8C14"/>
<path d="M41.9222 30.4199C42.8411 30.4694 43.6261 29.7645 43.6756 28.8456C43.7251 27.9267 43.0203 27.1416 42.1014 27.0922C41.1824 27.0427 40.3974 27.7475 40.3479 28.6664C40.2984 29.5854 41.0032 30.3704 41.9222 30.4199Z" fill="#8C3C00"/>
<path d="M49.6136 38.291C50.5325 38.3405 51.3175 37.6357 51.367 36.7168C51.4165 35.7979 50.7117 35.0128 49.7928 34.9633C48.8738 34.9138 48.0888 35.6187 48.0393 36.5376C47.9898 37.4565 48.6946 38.2416 49.6136 38.291Z" fill="#8C3C00"/>
<path d="M40.3597 39.6117C41.2786 39.6612 42.0636 38.9564 42.1131 38.0375C42.1626 37.1185 41.4578 36.3335 40.5389 36.284C39.6199 36.2345 38.8349 36.9393 38.7854 37.8583C38.7359 38.7772 39.4407 39.5622 40.3597 39.6117Z" fill="#8C3C00"/>
<path d="M45.6682 2.99709C39.7277 2.67719 34.3825 5.70717 31.4613 10.4451C33.4061 12.4597 34.8153 14.98 35.4663 17.7788C42.4654 16.5978 47.9874 10.768 48.5006 3.41687C47.5868 3.19818 46.6366 3.04924 45.6617 2.99674L45.6682 2.99709Z" fill="#00641E"/>
<path d="M21.0268 5.66614C19.8504 5.60279 18.6991 5.67768 17.5813 5.85866C19.1209 12.4925 24.8821 17.5937 32.025 17.9783C33.2014 18.0417 34.3527 17.9668 35.4705 17.7858C33.9309 11.152 28.1697 6.05078 21.0268 5.66614V5.66614Z" fill="#00961E"/>
</svg>