<svg width="28" height="25" viewBox="0 0 28 25" fill="none" xmlns="http://www.w3.org/2000/svg">
<path d="M25.7307 2.26358C24.2717 0.804713 22.3323 0 20.2683 0C18.2043 0 16.2649 0.804713 14.8059 2.26358L14.0166 3.05272L13.2274 2.26358C11.7683 0.804713 9.82632 0 7.76492 0C5.70352 0 3.76155 0.804713 2.30248 2.26358C0.843402 3.72244 0.0385742 5.66414 0.0385742 7.72524C0.0385742 9.78634 0.843402 11.728 2.30248 13.1869L13.6713 24.5541C13.7674 24.6502 13.892 24.6969 14.0192 24.6969C14.1464 24.6969 14.271 24.6502 14.3671 24.5541L25.7359 13.1869C27.195 11.728 27.9998 9.78634 27.9998 7.72524C27.9998 5.66414 27.195 3.72244 25.7359 2.26358H25.7307Z" fill="#FF6E78"/>
</svg>
