<svg width="144" height="142" viewBox="0 0 144 142" fill="none" xmlns="http://www.w3.org/2000/svg">
<path d="M135.209 51.5657L143.585 49.616C137.999 26.886 121.041 7.56168 97.1692 -1.52588e-05L94.6679 8.22871C115.493 14.8668 130.296 31.7283 135.209 51.5657Z" fill="#EDC79D"/>
<path d="M112.17 56.921C111.592 55.2919 111.503 53.4769 112.041 51.7003C113.388 47.2813 118.057 44.7864 122.476 46.1332C125.754 47.1338 127.973 49.9622 128.351 53.1626L135.208 51.572C130.295 31.7346 115.492 14.8731 94.6669 8.235L77.4014 65.0086L112.17 56.9274V56.921Z" fill="#F03214"/>
<path d="M122.483 46.1269C118.064 44.7801 113.388 47.275 112.048 51.694C111.509 53.4705 111.599 55.2856 112.176 56.9146L128.358 53.1563C127.979 49.9558 125.767 47.1274 122.483 46.1269Z" fill="#932A09"/>
<path d="M109.548 23.5764C105.431 20.5876 99.665 21.5048 96.6762 25.6224L101.3 28.9767L97.959 33.5817L103.629 37.6929L106.97 33.0879L111.594 36.4422C114.583 32.3246 113.666 26.5587 109.548 23.57V23.5764Z" fill="#FFECD7"/>
<path d="M100.319 54.5945C103.038 53.144 104.361 50.3162 103.274 48.2786C102.187 46.2409 99.1016 45.765 96.3827 47.2156C93.6637 48.6661 92.3409 51.4939 93.4279 53.5315C94.515 55.5692 97.6004 56.0451 100.319 54.5945Z" fill="black"/>
<path d="M11.2393 54.811C14.3755 44.4978 20.0067 35.6342 27.2734 28.6689L21.3985 22.39C13.0672 30.3493 6.60861 40.5021 3.01696 52.3096C-0.574678 64.1172 -0.856887 76.1492 1.62519 87.3987L10.0014 85.449C7.84643 75.6233 8.10299 65.1177 11.2393 54.811Z" fill="#EDC79D"/>
<path d="M10.3727 87.046L1.99643 88.9957C7.58272 111.726 24.5404 131.05 48.412 138.612L50.9133 130.383C30.0882 123.745 15.2855 106.883 10.3727 87.046Z" fill="#EDC79D"/>
<path d="M86.2725 14.1293L88.7738 5.90059C64.7355 -1.10953 39.889 5.50296 22.5914 21.2741L28.4663 27.5531C43.5961 13.8086 65.2807 8.04276 86.2725 14.1293Z" fill="#EDC79D"/>
<path d="M137.132 57.5881L128.756 59.5378C130.911 69.3635 130.654 79.8691 127.518 90.1758C124.382 100.489 118.75 109.353 111.484 116.318L117.359 122.597C125.69 114.637 132.149 104.485 135.74 92.6771C139.332 80.8696 139.614 68.8376 137.132 57.5881Z" fill="#EDC79D"/>
<path d="M52.4847 130.858L49.9834 139.086C74.0218 146.097 98.8682 139.484 116.166 123.713L110.291 117.434C95.1611 131.178 73.4766 136.944 52.4847 130.858Z" fill="#EDC79D"/>
<path d="M60.4575 98.2891C56.0385 96.9422 53.5436 92.2731 54.8904 87.8541C56.2373 83.4351 60.9064 80.9402 65.3254 82.287C65.396 82.3063 65.4601 82.3384 65.5243 82.3576L68.1859 73.6158L10.3797 87.0524C15.2926 106.89 30.0953 123.751 50.9204 130.389L60.6691 98.3468C60.5986 98.3276 60.528 98.3148 60.4639 98.2955L60.4575 98.2891Z" fill="#F03214"/>
<path d="M67.0323 83.0246C70.3546 84.9166 72.0542 88.9123 70.8933 92.722C69.7324 96.5317 66.1023 98.9048 62.2862 98.629L52.4797 130.864C73.4716 136.944 95.1561 131.185 110.286 117.44L69.7453 74.0968L67.0259 83.031L67.0323 83.0246Z" fill="#F03214"/>
<path d="M86.2716 14.1293C65.2798 8.04917 43.5952 13.8086 28.4654 27.5531L69.0061 70.8965L86.2716 14.1229V14.1293Z" fill="#F03214"/>
<path d="M121.227 62.9434C119.88 67.3624 115.211 69.8573 110.792 68.5104C108.726 67.8819 107.091 66.5222 106.065 64.8097L70.9501 72.9679L111.491 116.311C118.751 109.346 124.389 100.482 127.525 90.1693C130.661 79.8562 130.918 69.357 128.763 59.5313L121.567 61.2052C121.515 61.7825 121.413 62.3661 121.233 62.9369L121.227 62.9434Z" fill="#F03214"/>
<path d="M27.2735 28.6689C20.0133 35.6341 14.3757 44.4978 11.2394 54.8109C8.1031 65.1241 7.84654 75.6232 10.0015 85.4489L67.8078 72.0123L27.2671 28.6689H27.2735Z" fill="#F03214"/>
<path d="M70.8925 92.7157C72.0534 88.906 70.3538 84.9103 67.0315 83.0182L62.2854 98.6162C66.0951 98.892 69.7317 96.5254 70.8925 92.7093V92.7157Z" fill="#932A09"/>
<path d="M65.3256 82.2806C60.9066 80.9337 56.2311 83.4286 54.8906 87.8476C53.5437 92.2666 56.0386 96.9421 60.4576 98.2826C60.5282 98.3018 60.5988 98.3147 60.6629 98.3339L65.5244 82.3511C65.4539 82.3254 65.3897 82.2998 65.3256 82.2806Z" fill="#932A09"/>
<path d="M110.792 68.5105C115.211 69.8573 119.886 67.3624 121.227 62.9434C121.4 62.3662 121.509 61.789 121.56 61.2117L106.065 64.8162C107.091 66.5287 108.733 67.8884 110.792 68.5169V68.5105Z" fill="#932A09"/>
<path d="M115.397 86.4752L112.043 91.0994L107.438 87.7579L103.327 93.4276L107.932 96.7691L104.577 101.393C108.695 104.382 114.461 103.465 117.449 99.3474C120.438 95.2298 119.521 89.4639 115.404 86.4752H115.397Z" fill="#FFECD7"/>
<path d="M36.6383 92.1962L30.9687 88.085L27.6272 92.69L23.0029 89.3357C20.0142 93.4533 20.9313 99.2191 25.0489 102.208C29.1664 105.197 34.9323 104.279 37.9211 100.162L33.2968 96.8076L36.6383 92.2026V92.1962Z" fill="#FFECD7"/>
<path d="M82.0018 115.497L76.3578 116.395L75.4663 110.776L68.5459 111.879L69.4374 117.498L63.7934 118.396C64.5951 123.424 69.3156 126.849 74.3439 126.047C79.3722 125.245 82.797 120.525 81.9953 115.497H82.0018Z" fill="#FFECD7"/>
<path d="M25.1633 55.2856L29.7683 58.6271L33.8794 52.9574L29.2744 49.6159L32.6288 44.9917C28.5112 42.0029 22.7453 42.9201 19.7566 47.0376C16.7678 51.1552 17.685 56.9211 21.8025 59.9098L25.1569 55.2856H25.1633Z" fill="#FFECD7"/>
<path d="M60.9004 26.3664C60.0987 21.3381 55.3782 17.9132 50.3499 18.7149C45.3216 19.5166 41.8968 24.237 42.6985 29.2653L48.3425 28.3675L49.234 33.9858L56.1543 32.8827L55.2628 27.2643L60.9068 26.3664H60.9004Z" fill="#FFECD7"/>
<path d="M94.7259 88.5659C99.3449 88.5659 103.089 84.8214 103.089 80.2024C103.089 75.5835 99.3449 71.8391 94.7259 71.8391C90.1069 71.8391 86.3625 75.5835 86.3625 80.2024C86.3625 84.8214 90.1069 88.5659 94.7259 88.5659Z" fill="#932A09"/>
<path d="M44.9113 73.898C49.5303 73.898 53.2747 70.1536 53.2747 65.5346C53.2747 60.9156 49.5303 57.1712 44.9113 57.1712C40.2923 57.1712 36.5479 60.9156 36.5479 65.5346C36.5479 70.1536 40.2923 73.898 44.9113 73.898Z" fill="#932A09"/>
<path d="M23.9972 77.4574C26.0348 76.3703 26.5108 73.2849 25.0602 70.566C23.6097 67.8471 20.7819 66.5242 18.7443 67.6113C16.7066 68.6984 16.2307 71.7837 17.6813 74.5027C19.1318 77.2216 21.9596 78.5445 23.9972 77.4574Z" fill="black"/>
<path d="M88.7243 109.974C90.762 108.887 91.2379 105.802 89.7873 103.083C88.3368 100.364 85.509 99.0413 83.4714 100.128C81.4338 101.215 80.9578 104.301 82.4084 107.02C83.8589 109.739 86.6867 111.062 88.7243 109.974Z" fill="black"/>
<path d="M77.315 27.6388C79.3526 26.5517 79.8285 23.4663 78.378 20.7474C76.9274 18.0284 74.0997 16.7056 72.0621 17.7926C70.0244 18.8797 69.5485 21.9651 70.999 24.684C72.4496 27.403 75.2773 28.7259 77.315 27.6388Z" fill="black"/>
<path d="M48.5587 114.895C51.2776 113.444 52.6005 110.617 51.5134 108.579C50.4263 106.541 47.3409 106.065 44.622 107.516C41.903 108.967 40.5802 111.794 41.6672 113.832C42.7543 115.87 45.8397 116.345 48.5587 114.895Z" fill="black"/>
<path d="M123.453 79.1264C126.172 77.6758 127.495 74.8481 126.408 72.8104C125.321 70.7728 122.236 70.2968 119.517 71.7474C116.798 73.198 115.475 76.0257 116.562 78.0634C117.649 80.101 120.734 80.5769 123.453 79.1264Z" fill="black"/>
<path d="M65.7422 53.1692C70.3612 53.1692 74.1056 49.4248 74.1056 44.8058C74.1056 40.1868 70.3612 36.4424 65.7422 36.4424C61.1232 36.4424 57.3788 40.1868 57.3788 44.8058C57.3788 49.4248 61.1232 53.1692 65.7422 53.1692Z" fill="#932A09"/>
</svg>
