<?xml version="1.0" encoding="UTF-8" standalone="no"?>
<svg
   width="395"
   height="328"
   viewBox="0 0 395 328"
   fill="none"
   version="1.1"
   id="svg45809"
   sodipodi:docname="puzzle.svg"
   inkscape:version="1.2 (dc2aeda, 2022-05-15)"
   xmlns:inkscape="http://www.inkscape.org/namespaces/inkscape"
   xmlns:sodipodi="http://sodipodi.sourceforge.net/DTD/sodipodi-0.dtd"
   xmlns="http://www.w3.org/2000/svg"
   xmlns:svg="http://www.w3.org/2000/svg">
  <defs
     id="defs45813" />
  <sodipodi:namedview
     id="namedview45811"
     pagecolor="#ffffff"
     bordercolor="#666666"
     borderopacity="1.0"
     inkscape:showpageshadow="2"
     inkscape:pageopacity="0.0"
     inkscape:pagecheckerboard="0"
     inkscape:deskcolor="#d1d1d1"
     showgrid="false"
     inkscape:zoom="3.1310976"
     inkscape:cx="64.993184"
     inkscape:cy="110.66407"
     inkscape:window-width="2560"
     inkscape:window-height="1376"
     inkscape:window-x="0"
     inkscape:window-y="0"
     inkscape:window-maximized="1"
     inkscape:current-layer="svg45809" />
  <path
     d="M265.047 151.112C262.374 151.112 259.898 151.948 257.863 153.365V141.127C257.863 134.459 252.495 129.048 245.844 128.974C245.833 128.974 245.822 128.974 245.812 128.974H233.483C234.958 131.035 235.826 133.559 235.826 136.286C235.826 143.241 230.192 148.875 223.237 148.875C216.282 148.875 210.647 143.241 210.647 136.286C210.647 133.559 211.515 131.035 212.99 128.974H200.662C200.614 128.974 200.571 128.974 200.523 128.974C193.824 128.99 188.397 134.427 188.397 141.132V153.461C186.336 151.985 183.812 151.117 181.085 151.117C174.13 151.117 168.496 156.752 168.496 163.707C168.496 170.662 174.13 176.297 181.085 176.297C183.812 176.297 186.336 175.428 188.397 173.953V186.282C188.397 192.997 193.84 198.44 200.555 198.44H212.809C211.382 196.4 210.541 193.919 210.541 191.24C210.541 184.285 216.175 178.65 223.13 178.65C230.085 178.65 235.72 184.285 235.72 191.24C235.72 193.919 234.878 196.4 233.451 198.44H245.705C252.421 198.44 257.863 192.997 257.863 186.282V174.044C259.903 175.466 262.379 176.297 265.047 176.297C272.003 176.297 277.637 170.662 277.637 163.707C277.637 156.752 272.003 151.117 265.047 151.117V151.112Z"
     fill="#D93726"
     id="path45759" />
  <path
     d="M320.076 176.291C313.121 176.291 307.487 170.657 307.487 163.702C307.487 156.746 313.121 151.112 320.076 151.112C322.776 151.112 325.274 151.969 327.324 153.413V141.127C327.324 134.411 321.882 128.968 315.166 128.968H302.869C304.355 126.902 305.234 124.367 305.234 121.625C305.234 114.669 299.6 109.035 292.644 109.035C285.689 109.035 280.055 114.669 280.055 121.625C280.055 124.367 280.934 126.902 282.419 128.968H270.016C263.301 128.968 257.858 134.411 257.858 141.127V153.381C259.898 151.953 262.379 151.112 265.058 151.112C272.013 151.112 277.648 156.746 277.648 163.702C277.648 170.657 272.013 176.291 265.058 176.291C262.379 176.291 259.898 175.45 257.858 174.022V186.277C257.858 192.992 263.301 198.435 270.016 198.435H282.345C280.87 200.496 280.002 203.02 280.002 205.747C280.002 212.702 285.636 218.336 292.591 218.336C299.546 218.336 305.181 212.702 305.181 205.747C305.181 203.02 304.313 200.496 302.837 198.435H315.166C321.882 198.435 327.324 192.992 327.324 186.277V173.991C325.274 175.439 322.776 176.291 320.076 176.291Z"
     fill="#1E8F4E"
     id="path45761" />
  <path
     d="M181.489 176.291C174.534 176.291 168.899 170.657 168.899 163.702C168.899 156.746 174.534 151.112 181.489 151.112C184.189 151.112 186.687 151.969 188.737 153.413V141.127C188.737 134.411 183.294 128.968 176.579 128.968H164.282C165.768 126.902 166.647 124.367 166.647 121.625C166.647 114.669 161.012 109.035 154.057 109.035C147.102 109.035 141.468 114.669 141.468 121.625C141.468 124.367 142.346 126.902 143.832 128.968H131.429C124.713 128.968 119.271 134.411 119.271 141.127V153.381C121.31 151.953 123.792 151.112 126.471 151.112C133.426 151.112 139.06 156.746 139.06 163.702C139.06 170.657 133.426 176.291 126.471 176.291C123.792 176.291 121.31 175.45 119.271 174.022V186.277C119.271 192.992 124.713 198.435 131.429 198.435H143.758C142.282 200.496 141.414 203.02 141.414 205.747C141.414 212.702 147.049 218.336 154.004 218.336C160.959 218.336 166.593 212.702 166.593 205.747C166.593 203.02 165.725 200.496 164.25 198.435H176.579C183.294 198.435 188.737 192.992 188.737 186.277V173.991C186.687 175.439 184.189 176.291 181.489 176.291Z"
     fill="#D6D6D6"
     id="path45763" />
  <path
     d="M141.399 121.726C141.399 114.771 147.034 109.136 153.989 109.136C160.944 109.136 166.578 114.771 166.578 121.726C166.578 124.426 165.721 126.923 164.278 128.974H176.564C183.279 128.974 188.722 123.531 188.722 116.816V104.519C190.788 106.005 193.323 106.883 196.066 106.883C203.021 106.883 208.655 101.249 208.655 94.2939C208.655 87.3388 203.021 81.7043 196.066 81.7043C193.323 81.7043 190.788 82.5831 188.722 84.0689V71.6657C188.722 64.9502 183.279 59.5075 176.564 59.5075H164.31C165.737 61.5472 166.578 64.0289 166.578 66.7076C166.578 73.6628 160.944 79.2972 153.989 79.2972C147.034 79.2972 141.399 73.6628 141.399 66.7076C141.399 64.0289 142.241 61.5472 143.668 59.5075H131.414C124.698 59.5075 119.256 64.9502 119.256 71.6657V83.9943C117.195 82.5191 114.67 81.6511 111.944 81.6511C104.989 81.6511 99.3541 87.2855 99.3541 94.2407C99.3541 101.196 104.989 106.83 111.944 106.83C114.67 106.83 117.195 105.962 119.256 104.487V116.816C119.256 123.531 124.698 128.974 131.414 128.974H143.7C142.251 126.923 141.399 124.426 141.399 121.726Z"
     fill="#F5C100"
     id="path45765" />
  <path
     fill-rule="evenodd"
     clip-rule="evenodd"
     d="M250.717 106.846C243.761 106.846 238.127 101.212 238.127 94.2566C238.127 87.3015 243.761 81.6671 250.717 81.6671C253.417 81.6671 255.914 82.5245 257.965 83.9677V71.6817C257.965 64.9662 252.522 59.5235 245.806 59.5235H233.51C234.996 57.4572 235.874 54.9223 235.874 52.1796C235.874 45.2245 230.24 39.59 223.285 39.59C216.33 39.59 210.695 45.2245 210.695 52.1796C210.695 54.9223 211.574 57.4572 213.06 59.5235H200.657C193.941 59.5235 188.498 64.9662 188.498 71.6817V83.9358C190.538 82.5085 193.02 81.6671 195.698 81.6671C202.654 81.6671 208.288 87.3015 208.288 94.2566C208.288 101.212 202.654 106.846 195.698 106.846C193.02 106.846 190.538 106.005 188.498 104.578V116.832C188.498 123.547 193.941 128.99 200.657 128.99H212.985C211.51 131.051 210.642 133.575 210.642 136.302C210.642 143.257 216.276 148.891 223.231 148.891C230.187 148.891 235.821 143.257 235.821 136.302C235.821 133.575 234.953 131.051 233.478 128.99H245.806C252.522 128.99 257.965 123.547 257.965 116.832V104.546C255.914 105.994 253.417 106.846 250.717 106.846Z"
     fill="#85BB2F"
     id="path45767" />
  <path
     d="M280.001 121.726C280.001 114.771 285.636 109.136 292.591 109.136C299.546 109.136 305.18 114.771 305.18 121.726C305.18 124.426 304.323 126.923 302.88 128.974H315.166C321.881 128.974 327.324 123.531 327.324 116.816V104.519C329.39 106.005 331.925 106.883 334.668 106.883C341.623 106.883 347.257 101.249 347.257 94.2939C347.257 87.3388 341.623 81.7043 334.668 81.7043C331.925 81.7043 329.39 82.5831 327.324 84.0689V71.6657C327.324 64.9502 321.881 59.5075 315.166 59.5075H302.912C304.339 61.5472 305.18 64.0289 305.18 66.7076C305.18 73.6628 299.546 79.2972 292.591 79.2972C285.636 79.2972 280.001 73.6628 280.001 66.7076C280.001 64.0289 280.843 61.5472 282.27 59.5075H270.016C263.3 59.5075 257.858 64.9502 257.858 71.6657V83.9943C255.797 82.5191 253.272 81.6511 250.546 81.6511C243.591 81.6511 237.956 87.2855 237.956 94.2407C237.956 101.196 243.591 106.83 250.546 106.83C253.272 106.83 255.797 105.962 257.858 104.487V116.816C257.858 123.531 263.3 128.974 270.016 128.974H282.302C280.853 126.923 280.001 124.426 280.001 121.726Z"
     fill="#D6D6D6"
     id="path45769" />
  <path
     d="M243.086 316.143C243.321 313.48 242.703 310.94 241.467 308.788L253.663 309.853C260.304 310.434 266.167 305.556 266.817 298.936C266.817 298.925 266.817 298.915 266.817 298.904L267.893 286.618C265.709 287.907 263.121 288.557 260.405 288.317C253.476 287.71 248.353 281.607 248.96 274.678C249.567 267.75 255.671 262.627 262.599 263.234C265.315 263.473 267.754 264.56 269.682 266.205L270.758 253.919C270.758 253.871 270.768 253.829 270.774 253.781C271.344 247.103 266.396 241.223 259.718 240.637L247.432 239.562C249.083 237.634 250.169 235.2 250.404 232.479C251.011 225.55 245.888 219.447 238.959 218.84C232.031 218.233 225.927 223.356 225.32 230.285C225.081 233.001 225.73 235.594 227.019 237.772L214.733 236.697C208.044 236.111 202.144 241.058 201.563 247.747L200.493 259.953C202.65 258.707 205.195 258.089 207.863 258.324C214.792 258.931 219.915 265.034 219.308 271.962C218.701 278.891 212.598 284.014 205.669 283.407C203.001 283.173 200.599 282.118 198.693 280.52L197.622 292.727C197.036 299.415 201.984 305.316 208.673 305.897L220.868 306.962C219.276 308.868 218.227 311.259 217.998 313.922C217.391 320.851 222.514 326.954 229.442 327.561C236.371 328.168 242.474 323.045 243.081 316.116L243.086 316.143Z"
     fill="#EF7E1A"
     id="path45771" />
  <path
     d="M378.099 239.801C352.313 261.86 318.837 272.788 285.009 270.199L284.828 270.189C284.886 270.189 284.945 270.194 285.004 270.199L267.546 249.792C265.326 247.198 261.422 246.895 258.829 249.116C256.235 251.336 255.931 255.24 258.152 257.833L267.573 268.847L248.646 267.371V267.409L211.394 264.506C208.14 264.251 205.307 266.557 205.067 269.651C204.828 272.745 207.267 275.461 210.521 275.717L247.741 278.614L247.538 281.234L210.537 278.353C207.283 278.097 204.45 280.403 204.21 283.497C203.97 286.591 206.409 289.313 209.663 289.563L246.665 292.444L246.463 295.064L209.722 292.204C206.468 291.949 203.635 294.249 203.395 297.349C203.155 300.443 205.594 303.159 208.848 303.415L245.595 306.275L245.392 308.895L208.476 306.019C205.222 305.763 202.389 308.069 202.149 311.169C201.909 314.263 204.348 316.979 207.602 317.234L244.519 320.11H244.545L271.636 322.225C315.018 325.601 358.049 314.918 394.539 292.194V225.747L378.105 239.807L378.099 239.801Z"
     fill="#A0643C"
     id="path45773" />
  <path
     d="M269.681 266.216L270.821 253.754C271.401 247.113 266.523 241.25 259.903 240.6C259.893 240.6 259.882 240.6 259.871 240.6L247.585 239.524L259.222 263.404C263.088 262.722 266.55 263.761 269.676 266.221L269.681 266.216Z"
     fill="#EF7E1A"
     id="path45775" />
  <path
     d="M52.4895 138.826L53.6557 169.341C54.5771 169.459 55.4664 169.666 56.3079 169.97L55.1416 139.492C54.2149 139.364 53.3309 139.135 52.4841 138.821L52.4895 138.826Z"
     fill="#1E8F4E"
     id="path45777" />
  <path
     d="M38.5468 137.239L39.9528 174.065C40.0752 177.324 37.6681 180.067 34.5633 180.184C31.4585 180.301 28.8437 177.756 28.7159 174.497L27.3099 137.67L24.6845 137.772L26.101 174.773C26.2235 178.033 23.8111 180.775 20.7063 180.892C20.2323 180.914 19.769 180.861 19.3216 180.765C21.2016 184.237 24.7324 186.729 28.9555 187.097L41.1989 188.167C39.9368 186 39.303 183.433 39.5374 180.743C39.777 177.995 40.8847 175.54 42.5623 173.602L41.167 137.143L38.5415 137.244L38.5468 137.239Z"
     fill="#1E8F4E"
     id="path45779" />
  <path
     d="m 89.965,147.352 c -0.57364,-3.85158 -14.404859,-19.51675 -22.1649,-26.59 l 1.832,0.16 h -0.0107 l -1.8373,-0.171 c 1.2462,2.157 1.864,4.703 1.6297,7.371 -0.245,2.806 -1.3953,5.32 -3.1368,7.274 l 1.4166,38.083 c 0.0959,2.487 -1.2888,4.665 -3.3285,5.619 0.2716,1.225 0.3675,2.513 0.2503,3.834 -0.2343,2.69 -1.3047,5.107 -2.9237,7.019 l 12.2434,1.071 c 6.6889,0.585 12.5896,-4.362 13.1701,-11.051 l 1.0704,-12.249 c 1.9279,1.662 4.3776,2.759 7.1096,2.999 6.9288,0.607 13.0318,-4.516 13.6388,-11.445 0.607,-6.928 -4.516,-13.031 -11.4447,-13.639 -2.7267,-0.239 -5.3202,0.416 -7.509,1.71 v 0.016 l -0.0106,-0.011 z"
     fill="#1e8f4e"
     id="path45781"
     sodipodi:nodetypes="ccccccccccccccccccccc" />
  <path
     d="M0.0488416 149.69C-0.558269 156.619 4.5649 162.722 11.4934 163.329C12.484 163.414 13.4585 163.382 14.4065 163.244L13.4479 138.23C6.62055 137.761 0.645302 142.842 0.0488416 149.69Z"
     fill="#1E8F4E"
     id="path45783" />
  <path
     d="M86.5822 124.484C86.4972 124.415 86.4122 124.351 86.3219 124.282C86.4069 124.346 86.4972 124.415 86.5822 124.484Z"
     fill="#1E8F4E"
     id="path45785" />
  <path
     id="path45787"
     d="M 40.539062 0 C 20.840002 33.273834 10.90836 71.772996 12.410156 111.01172 L 13.447266 138.16602 L 13.447266 138.23438 L 14.40625 163.25 L 14.40625 163.25195 L 14.863281 175.19336 C 14.96958 177.95213 16.858884 180.1898 19.3125 180.74414 C 19.316969 180.7482 19.321714 180.75573 19.326172 180.75977 C 19.77347 180.86077 20.231638 180.90858 20.710938 180.89258 C 23.81573 180.77058 26.227969 178.03256 26.105469 174.76758 L 24.689453 137.76562 L 27.314453 137.66602 L 28.720703 174.49023 C 28.843203 177.74923 31.463565 180.29669 34.568359 180.17969 C 37.673053 180.06269 40.084831 177.31953 39.957031 174.06055 L 38.552734 137.23438 L 41.177734 137.13281 L 42.572266 173.57812 C 42.567101 173.58406 42.561794 173.58975 42.556641 173.5957 L 42.5625 173.5957 L 42.583984 174.22461 C 42.706484 177.48361 45.324891 180.03511 48.429688 179.91211 C 51.529184 179.79511 53.948112 177.05797 53.820312 173.79297 L 53.650391 169.35352 C 53.651019 169.35351 53.665481 169.34173 53.666016 169.3418 L 52.5 138.82617 C 52.49665 138.81899 52.493598 138.81185 52.490234 138.80469 L 52.410156 136.71289 L 55.035156 136.61133 L 55.146484 139.50195 L 56.3125 169.97461 L 56.3125 169.98047 L 56.460938 173.91016 C 56.583437 177.16915 59.203897 179.71566 62.308594 179.59766 C 63.039011 179.57182 63.732644 179.3933 64.363281 179.10352 C 64.365473 179.10312 64.368911 179.10393 64.371094 179.10352 C 66.41079 178.15552 67.795019 175.97636 67.699219 173.48438 L 67.699219 173.47852 L 66.271484 136.14648 L 66.308594 136.14648 L 66.28125 135.40234 L 66.283203 135.40234 L 65.583984 117.17188 L 69.626953 120.91602 L 79.996094 121.82227 C 82.387288 122.02927 84.554729 122.92325 86.328125 124.28125 C 86.993823 122.08725 86.413837 119.61022 84.619141 117.94922 L 64.919922 99.699219 L 64.919922 99.693359 C 63.668424 65.791027 75.911149 32.772319 98.970703 7.8808594 L 106.27148 0 L 40.539062 0 z "
     style="fill:#ffc88c;fill-opacity:1" />
  <path
     d="M69.6219 120.916H69.6325L80.0067 121.832C82.3925 122.04 84.5547 122.929 86.3281 124.287C84.5547 122.924 82.3872 122.034 79.996 121.827L69.6272 120.921L69.6219 120.916Z"
     fill="#FFC88C"
     id="path45799" />
  <path
     d="M91.0463 134.992L89.9652 147.347H89.9759L91.0569 135.002C91.4244 130.816 89.6244 126.939 86.5835 124.484C89.6137 126.945 91.4084 130.816 91.0463 134.997V134.992Z"
     fill="#1E8F4E"
     id="path45801" />
  <path
     d="m 80.227435,124.06053 c -2.3219,2.503 -0.681104,3.65161 -3.189404,1.33461 L 69.6261,120.922 l -1.832,-0.16 22.1648,26.585 1.0811,-12.355 c 0.3675,-4.181 -1.4272,-8.053 -4.4628,-10.513 -0.0852,-0.069 -0.1704,-0.133 -0.2609,-0.202 -0.91145,-0.29925 -2.449276,-0.0979 -3.109676,0.61112 z"
     fill="#1e8f4e"
     id="path45803"
     sodipodi:nodetypes="cccccccccc" />
  <path
     d="M89.9754 147.356V147.342H89.9704V147.356H89.9754Z"
     fill="#1E8F4E"
     id="path45805" />
  <path
     d="M84.948 126.684C85.6083 125.976 86.0557 125.15 86.322 124.282C84.5485 122.924 82.3864 122.04 80.0005 121.827L69.6264 120.922L76.2088 127.019C78.7118 129.341 82.626 129.192 84.948 126.684Z"
     fill="#1E8F4E"
     id="path45807" />
</svg>
