<svg width="155" height="233" viewBox="0 0 155 233" fill="none" xmlns="http://www.w3.org/2000/svg">
<path d="M37.2825 44.2002C57.8589 34.5059 82.4398 43.3375 92.1368 63.9137L148.259 183C151.98 190.896 148.59 200.324 140.694 204.044L94.7382 225.696C86.8417 229.416 77.4119 226.027 73.6911 218.132L17.569 99.0454C7.87331 78.4719 16.7061 53.8945 37.2853 44.1989L37.2825 44.2002Z" fill="#00A05A"/>
<path d="M36.7746 14.892L15.0093 25.1465L39.5935 77.3123L61.3588 67.0579L36.7746 14.892Z" fill="#00A05A"/>
<path d="M31.0257 1.65674L8.45854 12.289C6.51635 13.204 5.68378 15.52 6.59895 17.4619L9.43287 23.4753C10.348 25.4172 12.6644 26.2496 14.6066 25.3346L37.1738 14.7024C39.116 13.7873 39.9485 11.4713 39.0334 9.52941L36.1994 3.51606C35.2843 1.57415 32.9679 0.741707 31.0257 1.65674Z" fill="#B3B3B3"/>
<path d="M81.1869 79.2884L36.395 100.392C34.0284 101.507 33.0139 104.329 34.129 106.695L69.5911 181.943C70.7062 184.309 73.5288 185.323 75.8954 184.208L120.687 163.105C123.054 161.99 124.068 159.168 122.953 156.802L87.4912 81.554C86.3761 79.1878 83.5535 78.1734 81.1869 79.2884Z" fill="white"/>
<path d="M49.9214 116.116C49.4627 116.116 49.0226 115.857 48.8102 115.417C48.5147 114.805 48.7733 114.069 49.3889 113.774L83.3236 97.4967C83.9362 97.2013 84.6718 97.4598 84.9673 98.0753C85.2628 98.6877 85.0042 99.4233 84.3886 99.7187L50.4539 115.996C50.2815 116.079 50.0999 116.116 49.9214 116.116Z" fill="#999999"/>
<path d="M54.3408 125.752C53.8822 125.752 53.442 125.493 53.2296 125.053C52.9342 124.441 53.1927 123.705 53.8083 123.41L87.7431 107.132C88.3587 106.837 89.0912 107.096 89.3867 107.711C89.6822 108.323 89.4237 109.059 88.8081 109.354L54.8733 125.632C54.7009 125.715 54.5193 125.752 54.3408 125.752Z" fill="#999999"/>
<path d="M58.998 135.455C58.5394 135.455 58.0993 135.197 57.8869 134.757C57.5914 134.144 57.8499 133.409 58.4655 133.113L92.4003 116.836C93.0159 116.541 93.7485 116.799 94.0439 117.415C94.3394 118.027 94.0809 118.763 93.4653 119.058L59.5305 135.335C59.3581 135.419 59.1765 135.455 58.998 135.455Z" fill="#999999"/>
</svg>
