<svg width="291" height="325" viewBox="0 0 291 325" fill="none" xmlns="http://www.w3.org/2000/svg">
<path d="M203.921 306.857C224.427 280.43 282.113 309.56 259.014 250.189C235.915 190.818 315.945 184.788 340.594 196.149C347.884 199.51 355.044 204.752 361.834 211.304C362.609 204.793 363.021 198.166 363.021 191.449C363.021 181.57 362.15 171.89 360.49 162.484C310.787 147.027 301.364 106.839 275.515 123.043C249.083 139.618 212.974 105.659 216.046 81.4548C218.378 63.0824 229.585 39.0912 224.07 28.0183C215.422 26.6256 206.554 25.8847 197.508 25.8847C176.035 25.8847 155.514 29.9804 136.688 37.4241C147.524 70.9376 156.365 88.3016 129.302 108.712C96.0044 133.828 69.5792 117.02 69.5792 155.164C69.5792 193.308 94.6876 209.177 69.5792 232.969C62.4671 239.713 52.2755 243.795 41.1719 245.867C46.3842 260.85 53.6815 274.859 62.7277 287.531C99.0221 259.451 141.441 301.046 152.997 321.915C158.018 330.978 157.03 341.132 153.539 351.079C167.544 354.928 182.289 357 197.515 357C200.917 357 204.284 356.883 207.638 356.684C197.913 336.528 194.964 318.389 203.914 306.857H203.921ZM169.574 282.838C150.371 286.975 146.214 233.648 134.507 209.787C122.8 185.92 106.649 168.446 120.454 153.751C134.26 139.056 148.265 153.751 171.824 135.07C197.021 115.099 219.324 135.763 223.501 154.787C227.678 173.811 211.739 194.454 208.276 204.594C205.971 211.354 205.58 222.422 207.103 237.799C209.387 260.864 188.771 278.701 169.567 282.838H169.574Z" fill="#78E6FF"/>
<path d="M216.067 81.4547C212.995 105.659 249.104 139.618 275.536 123.043C301.385 106.832 310.808 147.021 360.511 162.484C348.337 93.4675 293.422 39.2146 224.098 28.0251C229.612 39.098 218.406 63.0892 216.074 81.4616L216.067 81.4547Z" fill="#009664"/>
<path d="M207.11 237.806C205.583 222.429 205.973 211.361 208.282 204.601C211.739 194.461 227.685 173.818 223.508 154.794C219.331 135.769 197.028 115.106 171.83 135.076C148.265 153.758 134.26 139.062 120.461 153.758C106.655 168.453 122.807 185.927 134.514 209.794C146.221 233.662 150.384 286.982 169.581 282.845C188.777 278.708 209.4 260.871 207.117 237.806H207.11Z" fill="#009664"/>
<path d="M153.011 321.915C141.455 301.046 99.0361 259.457 62.7417 287.531C84.5307 318.067 116.436 340.871 153.56 351.079C157.051 341.132 158.032 330.978 153.018 321.915H153.011Z" fill="#009664"/>
<path d="M69.5925 155.164C69.5925 117.013 96.0246 133.828 129.315 108.712C156.378 88.2947 147.538 70.9376 136.702 37.424C75.3878 61.6691 32.0156 121.493 32.0156 191.442C32.0156 210.508 35.2459 228.818 41.1784 245.867C52.2821 243.802 62.4736 239.713 69.5857 232.969C94.6941 209.177 69.5857 193.308 69.5857 155.164H69.5925Z" fill="#009664"/>
<path d="M259.013 250.189C282.106 309.566 224.42 280.43 203.92 306.857C194.977 318.382 197.919 336.521 207.644 356.684C287.716 351.848 352.424 290.076 361.841 211.304C355.051 204.752 347.891 199.51 340.6 196.149C315.952 184.788 235.921 190.811 259.02 250.189H259.013Z" fill="#009664"/>
<path d="M57.9481 170.234C36.2071 162.818 12.4841 174.474 5.07022 196.221C0.0224766 211.033 3.822 226.758 13.6226 237.625L0.914062 251.963L8.81488 258.974L21.6331 244.512C24.5068 246.399 27.6548 247.956 31.0497 249.116C52.7906 256.532 76.5137 244.876 83.9276 223.128C91.3414 201.381 79.6891 177.65 57.9481 170.234ZM73.9349 219.719C68.4003 235.951 50.692 244.657 34.4651 239.12C18.2383 233.584 9.53501 215.87 15.0697 199.638C20.6044 183.406 38.3127 174.7 54.5395 180.236C70.7664 185.773 79.4696 203.487 73.9349 219.719Z" fill="black"/>
<path d="M73.9347 219.719C68.4 235.951 50.6918 244.657 34.4649 239.12C18.238 233.584 9.5348 215.87 15.0695 199.638C20.6042 183.406 38.3124 174.7 54.5393 180.236C70.7662 185.773 79.4694 203.487 73.9347 219.719Z" fill="white"/>
<path d="M66.0554 210.587C63.4561 218.209 55.1438 222.291 47.531 219.691C39.9114 217.091 35.8306 208.776 38.4299 201.161C41.0293 193.539 49.3416 189.457 56.9544 192.057C64.574 194.657 68.6547 202.972 66.0554 210.587Z" fill="black"/>
<path d="M67.3713 202.327C66.2534 205.613 62.6734 207.37 59.3882 206.252C56.1031 205.133 54.3473 201.552 55.4652 198.266C56.5831 194.98 60.1632 193.223 63.4483 194.342C66.7335 195.46 68.4892 199.041 67.3713 202.327Z" fill="white"/>
<path d="M193.537 0C170.568 0 151.879 18.6949 151.879 41.6707C151.879 57.3195 160.548 70.9719 173.332 78.0931L165.932 95.7658L175.671 99.8478L183.133 82.0242C186.459 82.8818 189.943 83.3414 193.537 83.3414C216.506 83.3414 235.195 64.6465 235.195 41.6707C235.195 18.6949 216.506 0 193.537 0ZM224.633 41.6707C224.633 58.822 210.683 72.7762 193.537 72.7762C176.391 72.7762 162.441 58.822 162.441 41.6707C162.441 24.5194 176.391 10.5652 193.537 10.5652C210.683 10.5652 224.633 24.5194 224.633 41.6707Z" fill="black"/>
<path d="M193.537 72.735C210.688 72.735 224.592 58.8271 224.592 41.6707C224.592 24.5143 210.688 10.6063 193.537 10.6063C176.386 10.6063 162.482 24.5143 162.482 41.6707C162.482 58.8271 176.386 72.735 193.537 72.735Z" fill="white"/>
<path d="M176.899 55.0075C176.028 55.0075 175.328 54.3009 175.328 53.4364V29.9049C175.328 29.0336 176.035 28.3339 176.899 28.3339C177.763 28.3339 178.469 29.0405 178.469 29.9049V53.4364C178.469 54.3077 177.763 55.0075 176.899 55.0075Z" fill="black"/>
<path d="M182.447 55.0075C181.576 55.0075 180.876 54.3009 180.876 53.4364V29.9049C180.876 29.0336 181.583 28.3339 182.447 28.3339C183.311 28.3339 184.018 29.0405 184.018 29.9049V53.4364C184.018 54.3077 183.311 55.0075 182.447 55.0075Z" fill="black"/>
<path d="M187.988 55.0075C187.117 55.0075 186.417 54.3009 186.417 53.4364V29.9049C186.417 29.0336 187.124 28.3339 187.988 28.3339C188.852 28.3339 189.559 29.0405 189.559 29.9049V53.4364C189.559 54.3077 188.852 55.0075 187.988 55.0075Z" fill="black"/>
<path d="M193.537 55.0075C192.666 55.0075 191.966 54.3009 191.966 53.4364V29.9049C191.966 29.0336 192.673 28.3339 193.537 28.3339C194.401 28.3339 195.107 29.0405 195.107 29.9049V53.4364C195.107 54.3077 194.401 55.0075 193.537 55.0075Z" fill="black"/>
<path d="M199.078 55.0075C198.207 55.0075 197.508 54.3009 197.508 53.4364V29.9049C197.508 29.0336 198.214 28.3339 199.078 28.3339C199.943 28.3339 200.649 29.0405 200.649 29.9049V53.4364C200.649 54.3077 199.943 55.0075 199.078 55.0075Z" fill="black"/>
<path d="M204.627 55.0075C203.756 55.0075 203.056 54.3009 203.056 53.4364V29.9049C203.056 29.0336 203.763 28.3339 204.627 28.3339C205.491 28.3339 206.197 29.0405 206.197 29.9049V53.4364C206.197 54.3077 205.491 55.0075 204.627 55.0075Z" fill="black"/>
<path d="M210.168 55.0075C209.297 55.0075 208.598 54.3009 208.598 53.4364V29.9049C208.598 29.0336 209.304 28.3339 210.168 28.3339C211.032 28.3339 211.739 29.0405 211.739 29.9049V53.4364C211.739 54.3077 211.032 55.0075 210.168 55.0075Z" fill="black"/>
</svg>
