<svg width="415" height="355" viewBox="0 0 415 355" fill="none" xmlns="http://www.w3.org/2000/svg">
<path d="M406.209 299.566L414.585 297.616C408.999 274.886 392.041 255.562 368.169 248L365.668 256.229C386.493 262.867 401.296 279.728 406.209 299.566Z" fill="#EDC79D"/>
<path d="M383.17 304.921C382.592 303.292 382.503 301.477 383.041 299.7C384.388 295.281 389.057 292.786 393.476 294.133C396.754 295.134 398.973 297.962 399.351 301.163L406.208 299.572C401.295 279.735 386.492 262.873 365.667 256.235L348.401 313.009L383.17 304.927V304.921Z" fill="#F03214"/>
<path d="M393.483 294.127C389.064 292.78 384.388 295.275 383.048 299.694C382.509 301.471 382.599 303.286 383.176 304.915L399.358 301.156C398.979 297.956 396.767 295.127 393.483 294.127Z" fill="#932A09"/>
<path d="M380.548 271.576C376.431 268.588 370.665 269.505 367.676 273.622L372.301 276.977L368.959 281.582L374.629 285.693L377.97 281.088L382.594 284.442C385.583 280.325 384.666 274.559 380.548 271.57V271.576Z" fill="#FFECD7"/>
<path d="M371.319 302.595C374.038 301.144 375.361 298.316 374.274 296.279C373.187 294.241 370.101 293.765 367.383 295.216C364.664 296.666 363.341 299.494 364.428 301.532C365.515 303.569 368.6 304.045 371.319 302.595Z" fill="black"/>
<path d="M282.239 302.811C285.376 292.498 291.007 283.634 298.273 276.669L292.398 270.39C284.067 278.349 277.609 288.502 274.017 300.31C270.425 312.117 270.143 324.149 272.625 335.399L281.001 333.449C278.846 323.623 279.103 313.118 282.239 302.811Z" fill="#EDC79D"/>
<path d="M281.373 335.046L272.997 336.996C278.583 359.726 295.541 379.05 319.412 386.612L321.913 378.383C301.088 371.745 286.286 354.883 281.373 335.046Z" fill="#EDC79D"/>
<path d="M357.272 262.129L359.774 253.901C335.735 246.89 310.889 253.503 293.591 269.274L299.466 275.553C314.596 261.809 336.281 256.043 357.272 262.129Z" fill="#EDC79D"/>
<path d="M408.132 305.588L399.756 307.538C401.911 317.364 401.654 327.869 398.518 338.176C395.382 348.489 389.751 357.353 382.484 364.318L388.359 370.597C396.69 362.638 403.149 352.485 406.74 340.677C410.332 328.87 410.614 316.838 408.132 305.588Z" fill="#EDC79D"/>
<path d="M331.458 346.289C327.039 344.942 324.544 340.273 325.891 335.854C327.237 331.435 331.907 328.94 336.326 330.287C336.396 330.306 336.46 330.338 336.524 330.358L339.186 321.616L281.38 335.052C286.293 354.89 301.095 371.751 321.921 378.389L331.669 346.347C331.599 346.328 331.528 346.315 331.464 346.296L331.458 346.289Z" fill="#F03214"/>
<path d="M338.032 331.025C341.354 332.917 343.054 336.912 341.893 340.722C340.732 344.532 337.102 346.905 333.286 346.629L323.479 378.864C344.471 384.944 366.156 379.185 381.286 365.44L340.745 322.097L338.026 331.031L338.032 331.025Z" fill="#F03214"/>
<path d="M357.272 262.129C336.28 256.049 314.595 261.809 299.465 275.553L340.006 318.897L357.272 262.123V262.129Z" fill="#F03214"/>
<path d="M392.227 310.943C390.88 315.362 386.211 317.857 381.792 316.51C379.727 315.882 378.091 314.522 377.065 312.81L341.95 320.968L382.491 364.311C389.751 357.346 395.389 348.482 398.525 338.169C401.661 327.856 401.918 317.357 399.763 307.531L392.567 309.205C392.515 309.782 392.413 310.366 392.233 310.937L392.227 310.943Z" fill="#F03214"/>
<path d="M298.274 276.669C291.013 283.634 285.376 292.498 282.24 302.811C279.103 313.124 278.847 323.623 281.002 333.449L338.808 320.012L298.267 276.669H298.274Z" fill="#F03214"/>
<path d="M341.893 340.716C343.054 336.906 341.354 332.91 338.032 331.018L333.286 346.616C337.095 346.892 340.732 344.525 341.893 340.709V340.716Z" fill="#932A09"/>
<path d="M336.326 330.28C331.907 328.934 327.231 331.429 325.891 335.848C324.544 340.267 327.039 344.942 331.458 346.283C331.528 346.302 331.599 346.315 331.663 346.334L336.524 330.351C336.454 330.325 336.39 330.3 336.326 330.28Z" fill="#932A09"/>
<path d="M381.792 316.511C386.211 317.857 390.886 315.362 392.227 310.943C392.4 310.366 392.509 309.789 392.56 309.212L377.065 312.816C378.091 314.529 379.733 315.888 381.792 316.517V316.511Z" fill="#932A09"/>
<path d="M386.397 334.475L383.043 339.099L378.438 335.758L374.327 341.428L378.932 344.769L375.577 349.393C379.695 352.382 385.461 351.465 388.45 347.347C391.438 343.23 390.521 337.464 386.404 334.475H386.397Z" fill="#FFECD7"/>
<path d="M307.638 340.196L301.969 336.085L298.627 340.69L294.003 337.336C291.014 341.453 291.931 347.219 296.049 350.208C300.167 353.197 305.932 352.279 308.921 348.162L304.297 344.808L307.638 340.203V340.196Z" fill="#FFECD7"/>
<path d="M296.163 303.286L300.768 306.627L304.879 300.957L300.274 297.616L303.629 292.992C299.511 290.003 293.745 290.92 290.756 295.038C287.768 299.155 288.685 304.921 292.802 307.91L296.157 303.286H296.163Z" fill="#FFECD7"/>
<path d="M331.9 274.366C331.099 269.338 326.378 265.913 321.35 266.715C316.322 267.517 312.897 272.237 313.698 277.265L319.342 276.367L320.234 281.986L327.154 280.883L326.263 275.264L331.907 274.366H331.9Z" fill="#FFECD7"/>
<path d="M365.726 336.566C370.345 336.566 374.089 332.821 374.089 328.202C374.089 323.584 370.345 319.839 365.726 319.839C361.107 319.839 357.362 323.584 357.362 328.202C357.362 332.821 361.107 336.566 365.726 336.566Z" fill="#932A09"/>
<path d="M315.911 321.898C320.53 321.898 324.275 318.154 324.275 313.535C324.275 308.916 320.53 305.171 315.911 305.171C311.292 305.171 307.548 308.916 307.548 313.535C307.548 318.154 311.292 321.898 315.911 321.898Z" fill="#932A09"/>
<path d="M294.997 325.457C297.035 324.37 297.511 321.285 296.06 318.566C294.61 315.847 291.782 314.524 289.744 315.611C287.707 316.698 287.231 319.784 288.681 322.503C290.132 325.222 292.959 326.544 294.997 325.457Z" fill="black"/>
<path d="M359.724 357.974C361.762 356.887 362.238 353.802 360.787 351.083C359.337 348.364 356.509 347.041 354.471 348.128C352.434 349.215 351.958 352.301 353.408 355.02C354.859 357.739 357.687 359.062 359.724 357.974Z" fill="black"/>
<path d="M348.315 275.639C350.353 274.552 350.829 271.466 349.378 268.747C347.927 266.028 345.1 264.706 343.062 265.793C341.024 266.88 340.548 269.965 341.999 272.684C343.45 275.403 346.277 276.726 348.315 275.639Z" fill="black"/>
<path d="M319.559 362.895C322.277 361.444 323.6 358.617 322.513 356.579C321.426 354.541 318.341 354.065 315.622 355.516C312.903 356.967 311.58 359.794 312.667 361.832C313.754 363.87 316.84 364.346 319.559 362.895Z" fill="black"/>
<path d="M394.454 327.126C397.172 325.676 398.495 322.848 397.408 320.81C396.321 318.773 393.236 318.297 390.517 319.747C387.798 321.198 386.475 324.026 387.562 326.063C388.649 328.101 391.735 328.577 394.454 327.126Z" fill="black"/>
<path d="M336.742 301.169C341.361 301.169 345.106 297.425 345.106 292.806C345.106 288.187 341.361 284.442 336.742 284.442C332.123 284.442 328.379 288.187 328.379 292.806C328.379 297.425 332.123 301.169 336.742 301.169Z" fill="#932A09"/>
<path d="M296.526 42.5257C302.203 48.3003 303.822 57.2734 299.886 64.8576C298.289 67.935 295.967 70.3901 293.247 72.1478C295.863 82.02 290.313 92.3013 280.476 95.4191C277.168 96.468 273.791 96.5602 270.627 95.8801C265.498 104.709 254.3 108.057 245.142 103.303C242.065 101.707 239.61 99.3841 237.852 96.6639C227.98 99.2803 217.699 93.7305 214.581 83.893C213.532 80.585 213.44 77.2078 214.12 74.0439C205.291 68.9147 201.942 57.7171 206.697 48.5596C208.293 45.4821 210.616 43.0271 213.336 41.2693C210.72 31.3972 216.269 21.1159 226.107 17.9981C229.415 16.9492 232.792 16.857 235.956 17.537C237.172 15.445 238.728 13.67 240.515 12.2292C239.253 8.12592 239.097 3.94194 239.881 0C238.48 0.334258 237.086 0.71462 235.691 1.15838C205.008 10.8807 188.019 43.6322 197.735 74.309C207.458 104.992 240.209 121.981 270.886 112.265C301.569 102.542 318.558 69.7907 308.842 39.1139C308.525 38.1054 308.179 37.1141 307.81 36.1402C305.361 38.7797 302.22 40.8429 298.543 42.007C297.869 42.2202 297.194 42.3931 296.52 42.5372L296.526 42.5257Z" fill="#FFD8B8"/>
<path d="M271.78 28.8094C258.663 32.8205 244.734 25.5302 240.585 12.4192C240.561 12.3501 240.544 12.2809 240.527 12.2175C238.74 13.6583 237.184 15.4391 235.968 17.5253C232.804 16.8453 229.427 16.9375 226.119 17.9864C216.282 21.1042 210.732 31.3855 213.348 41.2576C210.628 43.0154 208.306 45.4647 206.709 48.5479C201.955 57.7054 205.303 68.903 214.132 74.0322C213.452 77.1961 213.544 80.5733 214.593 83.8813C217.711 93.7188 227.992 99.2686 237.864 96.6522C239.622 99.3724 242.071 101.695 245.155 103.291C254.312 108.046 265.51 104.697 270.639 95.8684C273.803 96.5485 277.18 96.4563 280.488 95.4074C290.326 92.2896 295.875 82.0083 293.259 72.1361C295.979 70.3784 298.302 67.9291 299.898 64.8458C303.828 57.2674 302.215 48.2943 296.538 42.514C286.095 44.75 275.474 38.9466 271.792 28.8036L271.78 28.8094ZM258.882 74.3203C249.148 77.4036 238.758 72.0151 235.674 62.2813C232.591 52.5475 237.98 42.1567 247.713 39.0734C257.447 35.9902 267.838 41.3786 270.921 51.1125C274.005 60.8463 268.616 71.2371 258.882 74.3203Z" fill="#F1B0FF"/>
<path d="M254.894 99.0381C254.675 99.0381 254.456 99.0036 254.243 98.9286C253.217 98.5656 252.681 97.4475 253.044 96.4217L255.695 88.9067C256.058 87.8866 257.176 87.3449 258.202 87.708C259.228 88.071 259.764 89.1891 259.401 90.2149L256.75 97.7299C256.468 98.5368 255.707 99.0381 254.9 99.0381H254.894Z" fill="#00A4FF"/>
<path d="M232.533 85.9504C232.314 85.9504 232.095 85.9158 231.882 85.8409L224.367 83.1898C223.341 82.8268 222.805 81.7087 223.168 80.6829C223.531 79.6629 224.649 79.1211 225.675 79.4842L233.19 82.1352C234.216 82.4983 234.752 83.6163 234.388 84.6421C234.106 85.449 233.345 85.9504 232.539 85.9504H232.533Z" fill="#00A4FF"/>
<path d="M285.363 56.893C284.631 56.893 283.928 56.4838 283.588 55.7749C283.121 54.7952 283.536 53.6253 284.51 53.1585L291.702 49.7179C292.682 49.2511 293.852 49.6603 294.319 50.64C294.785 51.6198 294.371 52.7897 293.397 53.2565L286.204 56.697C285.933 56.8296 285.639 56.8872 285.357 56.8872L285.363 56.893Z" fill="#00A4FF"/>
<path d="M276.211 82.844C275.479 82.844 274.775 82.4348 274.435 81.726C273.969 80.7463 274.384 79.5763 275.358 79.1095L282.55 75.669C283.53 75.2022 284.699 75.6171 285.166 76.5911C285.633 77.5708 285.218 78.7407 284.244 79.2075L277.052 82.6481C276.781 82.7806 276.487 82.8382 276.205 82.8382L276.211 82.844Z" fill="#00A4FF"/>
<path d="M232.942 33.9444C232.59 33.9444 232.233 33.8522 231.91 33.6505L225.127 29.4665C224.205 28.8959 223.917 27.6857 224.487 26.7636C225.058 25.8415 226.268 25.5534 227.19 26.1239L233.973 30.3079C234.896 30.8784 235.184 32.0887 234.613 33.0108C234.244 33.6101 233.599 33.9444 232.942 33.9444Z" fill="#00A4FF"/>
<path d="M214.257 59.2213C213.525 59.2213 212.822 58.8121 212.482 58.1033C212.015 57.1236 212.43 55.9537 213.404 55.4869L220.596 52.0463C221.576 51.5795 222.746 51.9944 223.213 52.9684C223.679 53.9481 223.265 55.118 222.291 55.5848L215.098 59.0254C214.827 59.1579 214.534 59.2156 214.251 59.2156L214.257 59.2213Z" fill="#00A4FF"/>
<path d="M247.712 39.0736C257.446 35.9904 267.837 41.3788 270.92 51.1126C274.003 60.8465 268.615 71.2373 258.881 74.3205C268.615 71.2373 274.003 60.8465 270.92 51.1126C267.837 41.3788 257.446 35.9904 247.712 39.0736Z" fill="#FFD8B8"/>
<path d="M31.5 231.981C58.8381 231.981 81 209.819 81 182.481C81 155.143 58.8381 132.981 31.5 132.981C4.16191 132.981 -18 155.143 -18 182.481C-18 209.819 4.16191 231.981 31.5 231.981Z" fill="#FFBE00"/>
<path d="M44.455 156.853C45.9599 156.853 47.1799 155.633 47.1799 154.128C47.1799 152.623 45.9599 151.403 44.455 151.403C42.95 151.403 41.73 152.623 41.73 154.128C41.73 155.633 42.95 156.853 44.455 156.853Z" fill="#B77A00"/>
<path d="M61.6327 162.213C63.1377 162.213 64.3577 160.992 64.3577 159.488C64.3577 157.983 63.1377 156.763 61.6327 156.763C60.1277 156.763 58.9077 157.983 58.9077 159.488C58.9077 160.992 60.1277 162.213 61.6327 162.213Z" fill="#B77A00"/>
<path d="M49.9554 171.784C51.4604 171.784 52.6804 170.564 52.6804 169.059C52.6804 167.554 51.4604 166.334 49.9554 166.334C48.4505 166.334 47.2305 167.554 47.2305 169.059C47.2305 170.564 48.4505 171.784 49.9554 171.784Z" fill="#B77A00"/>
<path d="M67.178 114.948C65.7198 114.447 64.2053 114.058 62.6232 113.822C48.745 111.716 35.7901 121.141 33.4648 134.929C34.923 135.43 36.4375 135.818 38.0196 136.055C51.8979 138.161 64.8528 128.736 67.178 114.948Z" fill="#00641E"/>
<path d="M22.0801 114.362C20.1771 114.075 18.291 114.008 16.4443 114.137C17.9025 125.178 26.4772 134.394 38.0415 136.151C39.9444 136.438 41.8305 136.505 43.6772 136.376C42.219 125.335 33.6443 116.119 22.0801 114.362Z" fill="#008C1E"/>
</svg>
