<svg width="401" height="363" viewBox="0 0 401 363" fill="none" xmlns="http://www.w3.org/2000/svg">
<path d="M299.604 269.723L312.21 297.354L299.604 269.723Z" fill="#FFDCFF"/>
<path d="M413.399 251.189L388.286 196.151C384.55 204.823 377.708 212.197 368.459 216.421C357.325 221.504 345.025 220.948 334.798 215.969C335.612 219.28 337.256 222.477 339.877 225.376C351.809 238.571 348.265 254.285 329.417 257.891C316.371 260.385 306.235 262.996 299.603 269.736L312.208 297.368C313.103 299.323 315.407 300.185 317.364 299.296L378.205 271.537L411.468 256.359C413.423 255.464 414.285 253.16 413.396 251.203L413.399 251.189Z" fill="#FFDCFF"/>
<path d="M329.42 257.877C348.269 254.277 351.813 238.564 339.879 225.363C337.259 222.464 335.614 219.267 334.801 215.955C326.858 212.089 320.157 205.545 316.216 196.9L376.159 169.551L355.957 125.27C355.062 123.315 352.758 122.454 350.802 123.343L288.41 151.811L288.175 151.918C287.927 153.06 287.263 154.396 286.252 155.637C284.239 158.104 281.606 159.293 280.372 158.287C279.756 157.787 279.608 156.841 279.853 155.712L265.217 162.387C265.576 162.59 265.934 162.818 266.285 163.068C268.868 164.937 270.201 167.492 269.267 168.786C268.332 170.075 265.484 169.612 262.907 167.742C261.635 166.822 260.669 165.735 260.126 164.711L256.702 166.272C254.747 167.167 253.885 169.471 254.774 171.427L292.353 253.799L299.609 269.709C306.246 262.961 316.381 260.35 329.423 257.863L329.42 257.877Z" fill="#FF6E3C"/>
<path d="M280.36 158.296C281.594 159.302 284.228 158.113 286.24 155.646C287.251 154.405 287.915 153.069 288.163 151.927L279.841 155.721C279.596 156.85 279.744 157.796 280.36 158.296Z" fill="#FFC88C"/>
<path d="M262.898 167.757C265.481 169.625 268.329 170.088 269.258 168.801C270.193 167.513 268.859 164.952 266.276 163.083C265.924 162.827 265.566 162.599 265.209 162.402L260.111 164.728C260.654 165.751 261.62 166.839 262.892 167.758L262.898 167.757Z" fill="#FFC88C"/>
<path d="M313.124 212.759C313.674 211.264 311.697 209.162 308.709 208.064C305.721 206.967 302.854 207.289 302.305 208.785C301.755 210.28 303.732 212.382 306.72 213.48C309.708 214.577 312.575 214.255 313.124 212.759Z" fill="#FFC88C"/>
<path d="M344.121 255.796C344.67 254.3 342.693 252.198 339.705 251.1C336.718 250.003 333.85 250.326 333.301 251.821C332.751 253.317 334.728 255.419 337.716 256.516C340.704 257.614 343.571 257.291 344.121 255.796Z" fill="#FFC88C"/>
<path d="M299.659 232.216C302.712 231.317 304.822 229.349 304.372 227.821C303.922 226.293 301.082 225.783 298.028 226.682C294.975 227.581 292.865 229.549 293.315 231.077C293.765 232.606 296.605 233.116 299.659 232.216Z" fill="#FFC88C"/>
<path d="M302.709 191.831C303.986 190.879 303.48 188.038 301.578 185.486C299.677 182.934 297.099 181.636 295.822 182.588C294.544 183.54 295.05 186.381 296.952 188.933C298.854 191.486 301.431 192.783 302.709 191.831Z" fill="#FFC88C"/>
<path d="M312.198 252.282C311.952 249.108 310.465 246.635 308.876 246.758C307.288 246.881 306.2 249.554 306.445 252.727C306.691 255.901 308.178 258.374 309.767 258.251C311.355 258.127 312.444 255.455 312.198 252.282Z" fill="#FFC88C"/>
<path d="M292.516 202.514C293.099 199.385 292.303 196.612 290.736 196.32C289.17 196.028 287.428 198.328 286.844 201.457C286.261 204.586 287.058 207.359 288.624 207.651C290.19 207.943 291.933 205.643 292.516 202.514Z" fill="#FFC88C"/>
<path d="M325.698 234.666C326.281 231.536 325.484 228.763 323.918 228.471C322.352 228.179 320.609 230.479 320.026 233.608C319.443 236.737 320.239 239.511 321.806 239.803C323.372 240.095 325.115 237.795 325.698 234.666Z" fill="#FFC88C"/>
<g style="mix-blend-mode:multiply" opacity="0.3">
<g style="mix-blend-mode:multiply" opacity="0.3">
<path d="M281.806 184.932C280.603 185.483 279.391 185.771 278.164 185.803C276.937 185.834 275.762 185.639 274.635 185.205C273.509 184.772 272.496 184.13 271.59 183.275C270.684 182.42 269.945 181.364 269.377 180.119C268.809 178.874 268.493 177.623 268.43 176.371C268.366 175.119 268.54 173.936 268.954 172.807C269.369 171.685 269.991 170.67 270.822 169.776C271.66 168.88 272.679 168.15 273.901 167.594C275.117 167.04 276.302 166.745 277.455 166.705C278.609 166.671 279.679 166.832 280.661 167.201C281.643 167.571 282.468 168.101 283.129 168.798L280.723 171.694C280.065 171.015 279.261 170.572 278.303 170.359C277.345 170.153 276.355 170.279 275.334 170.749C274.341 171.2 273.579 171.832 273.039 172.639C272.498 173.446 272.21 174.358 272.17 175.36C272.131 176.37 272.362 177.42 272.863 178.518C273.365 179.616 274.007 180.48 274.798 181.122C275.59 181.763 276.463 182.138 277.428 182.265C278.391 182.386 279.367 182.224 280.359 181.773C281.382 181.309 282.123 180.643 282.6 179.786C283.07 178.93 283.264 178.028 283.182 177.086L286.948 177.167C287.04 178.126 286.901 179.093 286.533 180.081C286.163 181.063 285.59 181.982 284.806 182.827C284.021 183.671 283.022 184.377 281.806 184.932Z" fill="black"/>
</g>
<g style="mix-blend-mode:multiply" opacity="0.3">
<path d="M291.409 180.223L283.748 163.433L290.172 160.501C291.329 159.973 292.449 159.707 293.527 159.703C294.604 159.7 295.584 159.979 296.456 160.544C297.327 161.108 298.035 161.976 298.566 163.145C299.085 164.291 299.266 165.379 299.105 166.423C298.945 167.467 298.516 168.391 297.815 169.203L304.696 174.147L300.773 175.934L293.244 170.413L296.107 170.717L292.12 172.538L294.895 178.622L291.402 180.218L291.409 180.223ZM290.74 169.5L293.694 168.153C294.188 167.928 294.573 167.631 294.848 167.275C295.121 166.912 295.275 166.513 295.324 166.08C295.371 165.64 295.288 165.198 295.086 164.745C294.874 164.281 294.589 163.919 294.225 163.665C293.861 163.412 293.458 163.272 293.009 163.24C292.56 163.207 292.089 163.304 291.591 163.536L288.637 164.884L290.748 169.505L290.74 169.5Z" fill="black"/>
</g>
<g style="mix-blend-mode:multiply" opacity="0.3">
<path d="M307.068 173.084L299.406 156.294L302.9 154.698L310.561 171.488L307.068 173.084Z" fill="black"/>
</g>
<g style="mix-blend-mode:multiply" opacity="0.3">
<path d="M320.125 167.451C319.073 167.928 317.998 168.191 316.897 168.232C315.796 168.273 314.752 168.086 313.763 167.686C312.774 167.285 311.893 166.678 311.121 165.87L313.396 163.277C314.234 164.005 315.144 164.456 316.129 164.643C317.114 164.83 318.055 164.716 318.954 164.306C319.435 164.084 319.815 163.821 320.089 163.517C320.369 163.212 320.539 162.88 320.62 162.53C320.694 162.175 320.65 161.821 320.489 161.463C320.313 161.068 320.036 160.795 319.672 160.626C319.308 160.457 318.828 160.406 318.241 160.478L314.454 160.895C312.917 161.07 311.626 160.908 310.589 160.415C309.545 159.917 308.767 159.11 308.252 157.983C307.801 156.99 307.644 156.006 307.79 155.038C307.934 154.062 308.349 153.167 309.035 152.346C309.722 151.524 310.637 150.851 311.777 150.333C312.781 149.873 313.795 149.625 314.81 149.577C315.825 149.53 316.789 149.683 317.701 150.03C318.613 150.377 319.427 150.922 320.145 151.665L317.893 154.246C317.219 153.61 316.471 153.212 315.636 153.055C314.801 152.898 313.981 153.004 313.171 153.374C312.707 153.585 312.326 153.849 312.035 154.163C311.745 154.477 311.564 154.818 311.493 155.185C311.422 155.552 311.474 155.917 311.636 156.275C311.812 156.67 312.097 156.948 312.488 157.123C312.88 157.299 313.367 157.355 313.954 157.283L317.652 156.848C319.201 156.664 320.489 156.813 321.515 157.289C322.541 157.766 323.312 158.568 323.826 159.695C324.273 160.669 324.411 161.657 324.246 162.65C324.08 163.643 323.648 164.555 322.953 165.392C322.251 166.23 321.313 166.915 320.126 167.457L320.125 167.451Z" fill="black"/>
</g>
<g style="mix-blend-mode:multiply" opacity="0.3">
<path d="M328.92 163.111L321.258 146.321L327.7 143.379C328.857 142.851 329.977 142.584 331.054 142.581C332.132 142.578 333.112 142.857 333.983 143.421C334.855 143.986 335.563 144.854 336.1 146.022C336.617 147.161 336.805 148.248 336.649 149.284C336.493 150.321 336.064 151.245 335.358 152.065C334.652 152.884 333.731 153.559 332.585 154.078L329.631 155.426L332.406 161.51L328.912 163.107L328.92 163.111ZM328.251 152.388L331.228 151.029C331.721 150.804 332.107 150.507 332.382 150.151C332.656 149.795 332.809 149.389 332.858 148.956C332.905 148.516 332.822 148.074 332.62 147.621C332.408 147.157 332.123 146.795 331.759 146.542C331.395 146.288 330.992 146.148 330.543 146.116C330.094 146.084 329.623 146.18 329.123 146.406L326.146 147.766L328.251 152.388Z" fill="black"/>
</g>
<g style="mix-blend-mode:multiply" opacity="0.3">
<path d="M347.842 154.481L344.5 147.158L334.589 140.241L338.576 138.42L345.885 143.693L344.463 144.341L345.248 135.379L349.235 133.558L347.976 145.54L351.329 152.886L347.836 154.482L347.842 154.481Z" fill="black"/>
</g>
</g>
<path d="M352.242 183.063L348.071 187.086L315.884 153.721C314.773 152.57 314.806 150.736 315.958 149.625C317.11 148.513 318.944 148.546 320.055 149.698L352.242 183.063Z" fill="#C8C8C8"/>
<path d="M358.777 193.585C362.41 190.08 361.095 182.821 355.838 177.372C350.581 171.923 343.374 170.347 339.741 173.853C336.107 177.358 337.423 184.617 342.68 190.066C347.936 195.515 355.143 197.091 358.777 193.585Z" fill="#C8C8C8"/>
<path d="M277.068 187.429C279.078 184.961 279.707 182.145 278.471 181.138C277.236 180.132 274.605 181.317 272.595 183.785C270.584 186.252 269.956 189.068 271.191 190.075C272.426 191.081 275.057 189.896 277.068 187.429Z" fill="#FFC88C"/>
<path d="M304.923 166.557C305.472 165.061 303.495 162.959 300.508 161.861C297.52 160.764 294.652 161.087 294.103 162.582C293.554 164.078 295.53 166.18 298.518 167.277C301.506 168.375 304.373 168.052 304.923 166.557Z" fill="#FFC88C"/>
<path d="M384.674 188.234L382.599 183.683L376.153 169.559L316.21 196.908C320.157 205.552 326.858 212.096 334.795 215.963C345.024 220.948 357.322 221.498 368.456 216.415C377.706 212.198 384.542 204.825 388.283 196.145L384.673 188.228L384.674 188.234Z" fill="#00C8FF"/>
<path d="M189.777 100.024C213.955 100.024 233.555 80.4238 233.555 56.2462C233.555 32.0686 213.955 12.4688 189.777 12.4688C165.6 12.4688 146 32.0686 146 56.2462C146 80.4238 165.6 100.024 189.777 100.024Z" fill="#F03214"/>
<path d="M164.212 5.55389C162.531 5.82396 160.92 6.27238 159.402 6.87368C163.596 15.7861 173.298 21.2487 183.51 19.6232C185.191 19.3531 186.802 18.9047 188.32 18.3034C184.126 9.39098 174.424 3.92835 164.207 5.55389H164.212Z" fill="#00641E"/>
<path d="M197.35 0.279777C199.032 0.00970369 200.703 -0.0565365 202.334 0.0453782C201.116 9.81899 193.59 18.0231 183.373 19.6487C181.691 19.9187 180.02 19.985 178.389 19.8831C179.607 10.1094 187.133 1.90532 197.35 0.279777Z" fill="#00641E"/>
<path d="M201.166 24.6578C202.848 24.3877 204.458 23.9393 205.976 23.338C201.783 14.4256 192.08 8.96296 181.868 10.5885C180.187 10.8586 178.577 11.307 177.058 11.9083C181.252 20.8207 190.954 26.2834 201.171 24.6578H201.166Z" fill="#00641E"/>
<path d="M168.029 29.9319C166.347 30.2019 164.676 30.2682 163.045 30.1663C164.263 20.3927 171.79 12.1885 182.007 10.563C183.688 10.2929 185.36 10.2267 186.99 10.3286C185.772 20.1022 178.246 28.3063 168.029 29.9319Z" fill="#00641E"/>
<path d="M88.6123 232.303C105.936 239.19 114.409 258.846 107.522 276.169L67.6605 376.438C65.0187 383.084 57.4773 386.335 50.832 383.693L12.1396 368.311C5.49425 365.669 2.24331 358.128 4.88512 351.482L44.7466 251.213C51.6335 233.89 71.2888 225.416 88.6123 232.303Z" fill="#00A05A"/>
<path d="M105.868 215.582L87.5425 208.297L70.0809 252.221L88.4062 259.506L105.868 215.582Z" fill="#00A05A"/>
<path d="M110.57 204.73L91.5726 197.177C89.9371 196.527 88.0843 197.326 87.4341 198.961L85.4225 204.021C84.7724 205.657 85.5711 207.51 87.2065 208.16L106.204 215.712C107.839 216.362 109.692 215.564 110.342 213.928L112.354 208.868C113.004 207.233 112.205 205.38 110.57 204.73Z" fill="#B3B3B3"/>
<path d="M92.1926 278.221L54.483 263.23C52.4904 262.438 50.2328 263.411 49.4407 265.403L24.2528 328.762C23.4606 330.755 24.4338 333.012 26.4264 333.804L64.1361 348.796C66.1287 349.588 68.3862 348.615 69.1784 346.622L94.3663 283.263C95.1584 281.271 94.1853 279.013 92.1926 278.221Z" fill="white"/>
<path d="M82.0947 291.647C81.9719 291.647 81.8491 291.626 81.7263 291.578L52.9851 280.381C52.4665 280.176 52.2072 279.596 52.4119 279.077C52.6166 278.559 53.1966 278.299 53.722 278.504L82.4632 289.702C82.9818 289.907 83.2411 290.487 83.0364 291.005C82.8795 291.401 82.4973 291.647 82.0947 291.647Z" fill="#999999"/>
<path d="M78.8052 299.685C78.6824 299.685 78.5595 299.664 78.4367 299.617L49.6955 288.419C49.1769 288.214 48.9176 287.634 49.1224 287.116C49.3271 286.597 49.9071 286.345 50.4325 286.543L79.1737 297.74C79.6923 297.945 79.9516 298.525 79.7469 299.043C79.5899 299.439 79.2078 299.685 78.8052 299.685Z" fill="#999999"/>
<path d="M75.5962 307.908C75.4734 307.908 75.3506 307.887 75.2277 307.839L46.4866 296.642C45.968 296.437 45.7087 295.857 45.9134 295.338C46.1181 294.82 46.6981 294.561 47.2235 294.765L75.9647 305.963C76.4833 306.168 76.7426 306.748 76.5379 307.266C76.3809 307.662 75.9988 307.908 75.5962 307.908Z" fill="#999999"/>
</svg>
