<svg width="197" height="309" viewBox="0 0 197 309" fill="none" xmlns="http://www.w3.org/2000/svg">
<path d="M33.2367 293.272C98.3379 295.518 152.895 244.588 155.094 179.516C157.293 114.444 106.301 59.8715 41.1993 57.6255C-23.9018 55.3795 -78.4593 106.31 -80.6581 171.382C-82.8569 236.454 -31.8645 291.026 33.2367 293.272Z" fill="#FF8C14"/>
<path d="M104.342 131.468C107.439 133.266 111.406 132.215 113.202 129.121C114.999 126.026 113.944 122.061 110.847 120.263C107.75 118.465 103.784 119.516 101.987 122.61C100.191 125.705 101.245 129.67 104.342 131.468Z" fill="#8C3C00"/>
<path d="M119.244 171.668C122.341 173.466 126.307 172.415 128.104 169.321C129.9 166.226 128.846 162.26 125.749 160.463C122.652 158.665 118.685 159.716 116.889 162.81C115.092 165.905 116.147 169.87 119.244 171.668Z" fill="#8C3C00"/>
<path d="M84.2032 161.682C87.3001 163.48 91.2668 162.429 93.0631 159.334C94.8594 156.24 93.805 152.274 90.7081 150.476C87.6111 148.679 83.6444 149.73 81.8481 152.824C80.0518 155.918 81.1062 159.884 84.2032 161.682Z" fill="#8C3C00"/>
<path d="M161.498 40.0794C140.864 29.511 117.039 31.8077 99.1286 43.9713C102.851 54.196 103.881 65.4131 101.729 76.4135C128.503 83.3194 157.403 71.3671 170.9 46.0662C167.996 43.8516 164.859 41.8103 161.465 40.0602L161.498 40.0794Z" fill="#00641E"/>
<path d="M69.5656 10.4183C65.4925 8.31824 61.2836 6.7562 56.9961 5.63326C51.947 31.6521 64.3664 58.9547 89.1728 71.6807C93.2458 73.7808 97.4548 75.3428 101.742 76.4657C106.791 50.4469 94.3719 23.1443 69.5656 10.4183Z" fill="#00961E"/>
</svg>
