<?xml version="1.0" encoding="UTF-8" standalone="no"?>
<svg
   width="106"
   zoomAndPan="magnify"
   viewBox="0 0 360 306"
   height="90"
   preserveAspectRatio="xMidYMid meet"
   version="1.0"
   id="svg82"
   sodipodi:docname="you-are-invited.svg"
   inkscape:version="1.2 (dc2aeda, 2022-05-15)"
   xmlns:inkscape="http://www.inkscape.org/namespaces/inkscape"
   xmlns:sodipodi="http://sodipodi.sourceforge.net/DTD/sodipodi-0.dtd"
   xmlns="http://www.w3.org/2000/svg"
   xmlns:svg="http://www.w3.org/2000/svg">
  <defs
     id="defs86" />
  <sodipodi:namedview
     id="namedview84"
     pagecolor="#ffffff"
     bordercolor="#666666"
     borderopacity="1.0"
     inkscape:showpageshadow="2"
     inkscape:pageopacity="0.0"
     inkscape:pagecheckerboard="0"
     inkscape:deskcolor="#d1d1d1"
     showgrid="false"
     inkscape:zoom="2.0325"
     inkscape:cx="302.82903"
     inkscape:cy="125.70726"
     inkscape:window-width="2560"
     inkscape:window-height="1376"
     inkscape:window-x="0"
     inkscape:window-y="0"
     inkscape:window-maximized="1"
     inkscape:current-layer="g420" />
  <g
     id="g420"
     transform="matrix(1.3385678,0,0,1.3385678,-26.012031,-59.367594)">
    <g
       id="g902"
       transform="matrix(1.0011111,0,0,1.0019413,-0.02159098,-0.08609997)">
      <path
         fill="#ffd9b4"
         d="m 285.64453,96.363281 c -2.01562,-5.464843 -5.33984,-10.324219 -10.56641,-14.121093 -13.83984,-10.0625 -33.78125,-7.320313 -49.71875,-6.042969 -3.05078,0.25 -6.10546,0.5 -9.16406,0.660156 -16.84765,0.898437 -33.69922,1.804687 -50.54297,2.703125 -19.88672,1.066406 -39.76562,2.132812 -59.64843,3.191406 -7.859379,0.421875 -15.72266,0.84375 -23.582035,1.257813 -10.789063,0.574219 -22.246094,-0.179688 -32.507813,3.578125 -18,6.59375 -24.714843,24.339846 -20.699218,42.140626 5.234375,23.20703 10.328125,46.42578 15.257812,69.69531 2.375,11.22656 3.40625,24.15234 11.554688,32.98828 12.421875,13.46094 33.601562,11.10156 50.066406,9.89453 2.80469,-0.21093 5.69922,-0.3125 8.36328,0.58594 2.41797,0.81641 4.48828,2.40625 6.50781,3.96484 6.44141,4.98047 12.88672,9.96094 19.32422,14.94532 10.75781,8.3164 22.23828,15.03906 35.15235,7.28515 10.35156,-6.21484 17.02343,-16.84765 25.20703,-25.39843 0.50781,-0.52735 1.03125,-1.07422 1.71093,-1.34375 0.75,-0.29688 1.59375,-0.22657 2.39454,-0.14454 18.43359,1.78516 42.57031,9.39454 59.03125,-2.61718 7.11328,-5.1875 11.52343,-13.42188 13.74609,-21.92969 2.78906,-10.68359 2.67187,-22.12891 3.75781,-33.04688 1.21094,-12.09375 2.41016,-24.1914 3.61328,-36.28906 1.51172,-15.33594 6.5586,-36.19531 0.74219,-51.957029 z m 0,0"
         fill-opacity="1"
         fill-rule="nonzero"
         id="path8" />
      <path
         fill="#ffd9b4"
         d="m 191.48437,73.902344 c -0.57421,-7.179688 -2.66796,-13.84375 -5.89453,-18.753906 -3.46093,-5.273438 -7.85547,-7.972657 -12.37109,-7.613282 -3.47656,0.277344 -6.58984,2.332032 -9.01563,5.890625 l -18.70703,9.269531 c -1.54297,0.769532 -3.20703,1.226563 -4.92187,1.363282 l -8.22656,0.65625 c -2.28516,0.179687 -4.36719,1.246094 -5.85547,2.988281 -0.90235,1.054687 -1.51172,2.277344 -1.82422,3.585937 l -0.41406,0.03516 c -3.26953,0.261719 -5.71875,3.132812 -5.45703,6.398437 l 0.32031,3.949219 c 0.125,1.585937 0.86328,3.027344 2.07031,4.050781 1.00391,0.855469 2.23438,1.339844 3.53125,1.410156 0.26172,0.01563 0.53125,0.01563 0.80078,-0.01562 l 0.41797,-0.03125 c 0.51172,1.242187 1.31641,2.351562 2.36719,3.25 1.57812,1.34375 3.54297,2.054687 5.59375,2.046874 l 0.78906,9.902351 c 0.26562,3.27343 3.12891,5.71484 6.40625,5.45312 3.27344,-0.26562 5.71875,-3.1289 5.45312,-6.40234 l -0.76171,-9.539068 c 0.69921,0.101563 1.39453,0.253906 2.07812,0.46875 l 19.94922,6.1875 c 2.58203,2.726568 5.50391,4.238288 8.50781,4.398438 0.44141,0.0195 0.88672,0.0156 1.32813,-0.0195 4.51562,-0.35937 8.42578,-3.730471 11.00781,-9.480471 2.39062,-5.355468 3.40234,-12.257812 2.82812,-19.449218 z m 0,0"
         fill-opacity="1"
         fill-rule="nonzero"
         id="path10" />
      <path
         fill="#343434"
         d="m 280.17578,91.296875 c -2.27344,-6.148437 -6.01562,-11.160156 -11.14062,-14.882813 -5.91407,-4.296874 -13.34766,-6.730468 -22.75,-7.449218 -8.07422,-0.617188 -16.55079,0.117187 -24.03516,0.761718 -1.39844,0.117188 -2.71094,0.234376 -4.03516,0.335938 l -0.5664,0.05078 c -2.80469,0.226563 -5.71485,0.460938 -8.5586,0.609375 -5.28906,0.28125 -10.57812,0.566406 -15.86718,0.851563 0.0273,0.273437 0.0469,0.550781 0.0664,0.828125 0.0625,0.816406 0.11328,1.632812 0.13281,2.449218 5.27735,-0.285156 10.5586,-0.566406 15.83594,-0.84375 2.89063,-0.152343 5.82031,-0.386718 8.64453,-0.617187 l 0.5625,-0.04687 c 1.32813,-0.105469 2.65235,-0.222656 4.05078,-0.339844 15.17579,-1.308594 32.375,-2.792968 44.57422,6.074219 4.65235,3.382813 7.92188,7.757813 9.99219,13.367187 4.42969,12.011714 2.33203,27.253904 0.47656,40.695304 -0.51172,3.72266 -0.99609,7.23047 -1.32812,10.53907 -0.41016,4.07422 -0.8125,8.14843 -1.21875,12.22656 -0.79688,8.01953 -1.59375,16.04297 -2.39844,24.0625 -0.32422,3.25781 -0.54687,6.61328 -0.76172,9.85937 -0.5039,7.65235 -1.03125,15.56641 -2.95703,22.9336 -1.67969,6.45703 -5.32812,15.33984 -13.11719,21.02734 -5.51953,4.02735 -12.48437,6.08985 -21.29687,6.30469 -7.91016,0.19141 -16.17578,-1.08203 -24.17188,-2.30469 -4.36328,-0.67187 -8.48828,-1.30078 -12.43359,-1.6875 -0.85156,-0.0859 -2.02344,-0.19531 -3.16016,0.25391 -1.02343,0.41015 -1.73047,1.14453 -2.28906,1.73047 -2.55078,2.65625 -4.97266,5.55078 -7.32031,8.33593 -5.21094,6.20704 -10.60547,12.6211 -17.55078,16.78516 -5.48438,3.29297 -11.07032,4.01953 -17.06641,2.21484 -5.88672,-1.76953 -11.50781,-5.74218 -16.23437,-9.39453 l -19.32422,-14.94531 c -2.00781,-1.55078 -4.28125,-3.30859 -6.98828,-4.21875 -1.86719,-0.63281 -3.78125,-0.81641 -5.65625,-0.81641 -1.13672,0 -2.25782,0.0664 -3.351566,0.15235 -0.808594,0.0586 -1.625,0.12109 -2.457032,0.18359 -7.878906,0.60156 -16.816406,1.28125 -25.070312,0.23047 -9.292969,-1.18359 -16.230469,-4.38672 -21.207031,-9.78516 -6.40625,-6.94531 -8.226563,-16.72265 -9.984375,-26.17968 -0.375,-1.99219 -0.753906,-4.05469 -1.171875,-6.03125 -4.714844,-22.28125 -9.851563,-45.73438 -15.257813,-69.71485 -1.9375,-8.59375 -1.234375,-17.19921 1.988282,-24.23046 3.425781,-7.492188 9.546874,-13.027345 17.679687,-16.007814 7.660156,-2.804687 16.210937,-3.019531 24.484375,-3.226562 2.484375,-0.0625 5.054688,-0.125 7.546875,-0.253906 L 109.21094,79.375 109.02734,77.058594 C 109,76.742188 108.99609,76.414062 108.98828,76.097656 L 75.3125,77.902344 c -2.453125,0.132812 -4.992188,0.195312 -7.457031,0.257812 -8.539063,0.214844 -17.367188,0.429688 -25.527344,3.417969 -8.980469,3.285156 -15.730469,9.414063 -19.539063,17.726563 -3.519531,7.679692 -4.300781,17.023442 -2.203124,26.316402 5.40625,23.96875 10.539062,47.40625 15.253906,69.67188 0.40625,1.9375 0.773437,3.89062 1.15625,5.94922 1.839844,9.91797 3.746094,20.16797 10.792968,27.80859 12.351563,13.38672 32.636719,11.84375 48.945313,10.59766 0.820313,-0.0625 1.640625,-0.125 2.449219,-0.1836 2.582036,-0.19531 5.304686,-0.3125 7.718746,0.50391 2.1836,0.73828 4.14063,2.24609 6.03125,3.70703 l 19.32422,14.94531 c 4.96485,3.83985 10.89844,8.01953 17.30078,9.94141 2.47266,0.74219 4.875,1.11328 7.23828,1.11328 4.26954,0 8.39063,-1.21484 12.46094,-3.66016 7.41406,-4.44531 12.98047,-11.07421 18.375,-17.48828 2.3125,-2.7539 4.70703,-5.59765 7.17969,-8.1875 0.38281,-0.39062 0.77734,-0.80859 1.13672,-0.94531 0.40234,-0.16016 1.05078,-0.0977 1.63281,-0.043 3.85547,0.375 7.93359,0.9961 12.25391,1.66016 16.11328,2.47656 34.3789,5.28125 47.90625,-4.58594 8.57031,-6.25391 12.54687,-15.87891 14.35937,-22.84766 2,-7.67187 2.53516,-15.73828 3.05469,-23.54296 0.21484,-3.21875 0.42969,-6.54688 0.75391,-9.75 0.80468,-8.01563 1.59765,-16.04297 2.39453,-24.0625 0.40234,-4.07422 0.8125,-8.14844 1.21875,-12.22657 0.32812,-3.24218 0.80468,-6.72265 1.30859,-10.41015 1.89844,-13.83985 4.05859,-29.50781 -0.65625,-42.289065 z m 0,0"
         fill-opacity="1"
         fill-rule="nonzero"
         id="path12" />
      <path
         fill="#343434"
         d="m 171.40625,89.921875 c -2.12891,-0.125 -4.17578,-1.855469 -5.81641,-4.941406 -1.66406,-3.121094 -2.75781,-7.328125 -3.09765,-11.851563 -0.33203,-4.523437 0.13281,-8.847656 1.3164,-12.175781 1.27344,-3.578125 3.25391,-5.648437 5.58203,-5.820313 4.58204,-0.339843 8.74219,7.035157 9.46875,16.785157 0.33594,4.523437 -0.1289,8.847656 -1.3125,12.175781 -1.27343,3.578125 -3.2539,5.648438 -5.58203,5.820312 -0.1875,0.01563 -0.375,0.01953 -0.55859,0.0078 z m -1.57422,-32.941406 c -0.10156,-0.0078 -0.19922,-0.0078 -0.30469,0 -1.53125,0.109375 -2.97656,1.785156 -3.97265,4.585937 -1.10157,3.09375 -1.53125,7.15625 -1.21094,11.425782 0.31641,4.273437 1.33594,8.226562 2.87891,11.117187 1.39843,2.628906 3.08203,4.066406 4.60546,3.957031 1.52735,-0.109375 2.97657,-1.785156 3.97266,-4.585937 1.10156,-3.09375 1.53125,-7.15625 1.21094,-11.421875 -0.66406,-8.988282 -4.17969,-14.90625 -7.17969,-15.078125 z m 0,0"
         fill-opacity="1"
         fill-rule="nonzero"
         id="path14" />
      <path
         fill="#343434"
         d="m 171.65234,90.558594 c -0.0937,0 -0.1914,0 -0.28125,-0.0078 -2.34765,-0.136719 -4.59765,-2.007812 -6.32812,-5.265625 -1.70313,-3.195312 -2.82813,-7.492187 -3.16406,-12.101562 -0.33985,-4.605469 0.13671,-9.019532 1.34765,-12.433594 1.35938,-3.824219 3.53906,-6.039062 6.12891,-6.230469 2.47265,-0.1875 4.8789,1.5625 6.77734,4.925781 1.8125,3.214844 3.01172,7.628907 3.36719,12.4375 0.33594,4.609376 -0.14063,9.023438 -1.35156,12.433594 -1.35938,3.828125 -3.53907,6.039063 -6.12891,6.234375 -0.12891,0 -0.25,0.0078 -0.36719,0.0078 z m -0.21484,-1.261719 c 0.16016,0.0078 0.32031,0.0078 0.48047,-0.0039 2.0625,-0.152344 3.84765,-2.070313 5.03125,-5.40625 1.15625,-3.25 1.61328,-7.484375 1.28125,-11.917969 -0.33985,-4.628906 -1.48047,-8.859375 -3.20313,-11.917969 -1.64453,-2.910156 -3.6289,-4.433593 -5.58984,-4.289062 -2.0625,0.152343 -3.85547,2.070312 -5.03125,5.40625 -1.15625,3.25 -1.61328,7.484375 -1.28125,11.917969 0.32422,4.445312 1.39844,8.558593 3.01562,11.605468 1.52344,2.855469 3.40235,4.496094 5.29688,4.605469 z m 0.21484,-0.59375 c -1.73828,0 -3.5039,-1.515625 -4.97656,-4.296875 -1.58594,-2.972656 -2.63281,-7.007812 -2.95703,-11.367188 -0.32422,-4.359374 0.125,-8.511718 1.24609,-11.679687 1.10157,-3.089844 2.69922,-4.871094 4.51563,-5 0.125,-0.0078 0.2539,-0.0078 0.38672,0 1.76562,0.101563 3.53906,1.726563 4.98437,4.570313 1.48438,2.90625 2.47266,6.84375 2.78516,11.085937 0.32422,4.359375 -0.125,8.507813 -1.2461,11.679687 -1.10156,3.089844 -2.70312,4.871094 -4.51562,5 -0.0742,0.0078 -0.15234,0.0078 -0.22266,0.0078 z m -1.95703,-31.101563 c -0.043,0 -0.0859,0 -0.125,0.0078 -1.2539,0.08984 -2.53515,1.65625 -3.42969,4.171875 -1.07031,3.011719 -1.48828,6.980469 -1.17578,11.167969 0.3125,4.1875 1.3086,8.054687 2.8125,10.875 1.25782,2.367187 2.75391,3.722656 4,3.625 1.25391,-0.08984 2.53516,-1.652344 3.42969,-4.171875 1.07031,-3.007813 1.48828,-6.980469 1.17578,-11.164063 -0.6875,-9.25 -4.27344,-14.363281 -6.58984,-14.503906 -0.0312,-0.0078 -0.0625,-0.0078 -0.0977,-0.0078 z m 0,0"
         fill-opacity="1"
         fill-rule="nonzero"
         id="path16" />
      <path
         fill="#343434"
         d="m 164.23828,77.625 c -0.10937,-0.0039 -0.22656,-0.01172 -0.33984,-0.02734 l -0.6211,-0.07422 -0.16015,-0.609376 c -0.35547,-1.335937 -0.59766,-2.824218 -0.70703,-4.289062 -0.13282,-1.800781 -0.0703,-3.597656 0.17968,-5.210938 l 0.0977,-0.621093 0.60937,-0.140625 c 0.26954,-0.0625 0.55469,-0.101563 0.83204,-0.125 3.05078,-0.226563 5.73046,2.078125 5.96093,5.136718 0.22657,3.054688 -2.07812,5.726563 -5.13672,5.957032 -0.23828,0.01953 -0.48046,0.01953 -0.71484,0.0039 z m 0.0898,-9.257812 c -0.15234,1.296874 -0.17187,2.707031 -0.0703,4.117187 0.0859,1.121094 0.25,2.242187 0.48438,3.292969 0.0234,0 0.0508,0 0.0703,-0.0039 2.04297,-0.152344 3.57812,-1.933594 3.42969,-3.972657 -0.14844,-2.019531 -1.89844,-3.542969 -3.91407,-3.433593 z m 0,0"
         fill-opacity="1"
         fill-rule="nonzero"
         id="path18" />
      <path
         fill="#343434"
         d="m 164.55859,78.261719 c -0.12109,0 -0.23828,-0.0039 -0.36328,-0.01172 -0.125,-0.0078 -0.2539,-0.02344 -0.37109,-0.03516 l -1.04688,-0.125 -0.26953,-1.015625 c -0.35937,-1.378907 -0.60937,-2.898438 -0.71875,-4.402344 -0.14062,-1.839844 -0.0703,-3.695313 0.1836,-5.347656 l 0.16015,-1.039063 1.02735,-0.234375 c 0.29687,-0.07031 0.60546,-0.117187 0.92578,-0.136719 h 0.043 c 1.625,-0.113281 3.21093,0.414063 4.44921,1.488282 1.25391,1.078125 2.01563,2.578125 2.13282,4.226562 0.25,3.402344 -2.3125,6.371094 -5.71875,6.628906 -0.13672,0 -0.28907,0.0039 -0.4336,0.0039 z m -0.78515,-1.3125 0.20312,0.02734 c 0.0937,0.01172 0.19922,0.01953 0.29688,0.02734 0.21484,0.01172 0.42187,0.01172 0.6289,-0.0078 2.71485,-0.199219 4.76563,-2.574219 4.5625,-5.285156 -0.0977,-1.316407 -0.69922,-2.511719 -1.70312,-3.371094 -0.9961,-0.863282 -2.26953,-1.285156 -3.58594,-1.179688 h -0.0352 c -0.24218,0.01953 -0.47656,0.05469 -0.70703,0.109375 l -0.19922,0.04687 -0.0273,0.203125 c -0.24219,1.5625 -0.30469,3.3125 -0.17187,5.0625 0.10156,1.433594 0.33593,2.871094 0.68359,4.179688 z m 0.47265,-0.519531 -0.11718,-0.511719 c -0.24219,-1.074219 -0.41797,-2.25 -0.5,-3.382813 -0.10547,-1.441406 -0.082,-2.90625 0.0781,-4.234375 l 0.0586,-0.527343 0.52735,-0.02734 c 2.34765,-0.132813 4.40234,1.667968 4.57812,4.011718 0.17188,2.386719 -1.62109,4.472657 -4.00781,4.644532 -0.0312,0 -0.0586,0.0078 -0.0937,0.0078 z m 0.64844,-7.417969 c -0.0898,1.09375 -0.0937,2.269531 -0.0117,3.425781 0.0625,0.886719 0.1875,1.785156 0.35156,2.644531 1.45313,-0.339843 2.49219,-1.695312 2.38282,-3.234375 -0.10938,-1.484375 -1.28907,-2.664062 -2.72266,-2.835937 z m 0,0"
         fill-opacity="1"
         fill-rule="nonzero"
         id="path20" />
      <path
         fill="#343434"
         d="m 187.05078,71.316406 c -0.51953,-7.0625 -2.54687,-13.636718 -5.70312,-18.507812 -3.49219,-5.382813 -8.00391,-8.15625 -12.69922,-7.8125 -3.56641,0.265625 -6.76563,2.292968 -9.25782,5.804687 l -17.83593,8.707031 c -1.38282,0.675782 -2.86328,1.078126 -4.40235,1.1875 l -7.91406,0.582032 c -2.44922,0.179687 -4.67969,1.300781 -6.27734,3.160156 -0.80469,0.929688 -1.41406,2.015625 -1.78906,3.171875 -3.53125,0.394531 -6.15235,3.519531 -5.89063,7.089844 L 115.56641,78.5 c 0.1289,1.769531 0.9414,3.382812 2.28515,4.535156 1.11328,0.964844 2.47657,1.515625 3.9375,1.601563 0.21485,0.01172 0.42969,0.01172 0.64453,0.0039 0.53907,1.101563 1.29297,2.0625 2.23438,2.871094 1.45703,1.253906 3.22656,2.007812 5.11328,2.1875 l 0.64062,8.710937 c 0.13282,1.76953 0.94141,3.38281 2.28516,4.53906 1.11719,0.96094 2.48828,1.51562 3.93359,1.59766 0.29688,0.0195 0.59375,0.0156 0.89454,-0.008 1.76953,-0.1289 3.38281,-0.9414 4.53906,-2.28125 1.15625,-1.34375 1.72656,-3.058587 1.59375,-4.828118 l -0.58985,-7.972657 c 0.23829,0.0625 0.47266,0.125 0.70704,0.199219 l 18.9375,5.992188 c 2.58984,2.679687 5.55078,4.214843 8.59765,4.394528 0.46485,0.0273 0.9375,0.0195 1.39844,-0.0156 4.69531,-0.343742 8.75391,-3.746086 11.41797,-9.58593 2.39453,-5.261718 3.43359,-12.0625 2.91406,-19.125 z m -46.37891,29.750004 c -0.83984,0.96875 -2.0039,1.55859 -3.27734,1.64843 -1.28125,0.0977 -2.51172,-0.3125 -3.48047,-1.14843 -0.96875,-0.83985 -1.55859,-2.000004 -1.64844,-3.273441 l -0.63671,-8.578125 7.62109,-0.5625 c 0.65234,-0.04687 1.30078,-0.03906 1.95312,0.01563 l 0.625,8.417969 c 0.0898,1.273437 -0.32031,2.511727 -1.15625,3.480477 z m 3.66797,-13.152348 c -0.46484,-0.144531 -0.93359,-0.269531 -1.40625,-0.367187 -0.61718,-0.125 -1.24609,-0.214844 -1.875,-0.253906 -0.0352,0 -0.0703,-0.0078 -0.0977,-0.0078 -0.60938,-0.03516 -1.23047,-0.03516 -1.84766,0.01172 l -7.625,0.5625 -0.28906,0.01953 c -0.53516,0.04297 -1.0586,0.02344 -1.57031,-0.04687 -1.38672,-0.195312 -2.67969,-0.777343 -3.76172,-1.710937 -0.89453,-0.765625 -1.56641,-1.707032 -2.00781,-2.785156 l -0.25782,-0.625 -1.07031,0.07812 c -0.21484,0.01172 -0.42969,0.01953 -0.64453,0.0039 -1.05469,-0.0625 -2.03516,-0.460938 -2.83984,-1.152344 -0.96875,-0.839844 -1.5586,-2 -1.64844,-3.273437 l -0.28125,-3.800782 c -0.19531,-2.632812 1.79297,-4.929687 4.42969,-5.132812 l 1.07421,-0.07422 0.16016,-0.660156 c 0.27344,-1.132813 0.80078,-2.15625 1.57031,-3.050781 1.28125,-1.480469 3.0586,-2.378907 5.01172,-2.523438 l 7.91406,-0.582031 c 1.77344,-0.132813 3.48438,-0.59375 5.08203,-1.371094 L 157.64839,53.71485 C 157.5,54 157.36328,54.296875 157.22656,54.59375 c -2.41015,5.277344 -3.44922,12.082031 -2.92187,19.144531 0.51562,7.0625 2.54687,13.636719 5.70312,18.507813 0.17969,0.277344 0.35938,0.546875 0.54688,0.808594 z m 38.10157,1.777344 c -2.02344,4.4375 -4.875,7.292969 -8.14844,8.214844 -0.5625,0.15625 -1.13672,0.253906 -1.71875,0.304688 -0.38672,0.02734 -0.77344,0.03516 -1.15625,0.0039 -0.375,-0.01953 -0.7461,-0.06641 -1.1211,-0.144532 -0.69921,-0.128906 -1.39062,-0.351562 -2.07031,-0.65625 -1.57031,-0.699218 -3.09375,-1.832031 -4.5,-3.363281 -0.7539,-0.824219 -1.48047,-1.761719 -2.16797,-2.816406 -2.99218,-4.613281 -4.91406,-10.875 -5.41406,-17.636719 -0.5,-6.757812 0.48438,-13.234375 2.76172,-18.234375 0.51953,-1.144531 1.09375,-2.179687 1.71875,-3.101562 1.14844,-1.714844 2.47266,-3.042969 3.90234,-3.964844 0.65235,-0.414063 1.33203,-0.746094 2.02344,-0.988281 0.71875,-0.25 1.46094,-0.402344 2.21484,-0.457032 0.38282,-0.02734 0.76954,-0.03516 1.14844,-0.0078 0.20313,0.01563 0.39453,0.03516 0.59766,0.05469 3.3789,0.429687 6.61328,2.832031 9.26953,6.925781 2.99219,4.617187 4.91797,10.878906 5.41406,17.636719 0.50781,6.753906 -0.46875,13.230468 -2.7539,18.230468 z m 0,0"
         fill-opacity="1"
         fill-rule="nonzero"
         id="path22" />
      <path
         fill="#343434"
         d="m 137.02734,105.20313 c -0.14453,0 -0.28125,-0.004 -0.42968,-0.0117 -1.59766,-0.0977 -3.08594,-0.69922 -4.30469,-1.75 -1.46875,-1.26563 -2.36328,-3.03125 -2.50781,-4.968754 l -0.60938,-8.199218 c -1.82031,-0.277344 -3.51562,-1.050782 -4.92969,-2.269532 -0.90625,-0.78125 -1.64062,-1.695312 -2.19921,-2.71875 -0.0977,0 -0.20313,-0.0078 -0.30079,-0.01172 -1.59765,-0.09766 -3.08593,-0.699219 -4.3125,-1.753907 -1.47265,-1.265625 -2.35937,-3.027343 -2.5039,-4.964843 l -0.28516,-3.800782 c -0.14062,-1.886718 0.44922,-3.726562 1.66797,-5.179687 1.12109,-1.351563 2.66406,-2.234375 4.38281,-2.519531 0.41016,-1.09375 1.01953,-2.132813 1.78125,-3.015626 1.70703,-1.988281 4.08985,-3.183593 6.70703,-3.378906 l 7.91407,-0.578125 c 1.46093,-0.113281 2.86718,-0.484375 4.17578,-1.128906 l 17.6875,-8.636719 c 2.61328,-3.609375 5.9414,-5.664062 9.63281,-5.933594 4.9375,-0.367187 9.65234,2.511719 13.27344,8.09375 3.21093,4.953126 5.27343,11.628907 5.80859,18.796876 0.53125,7.167968 -0.52734,14.074218 -2.97656,19.449218 -2.76563,6.054688 -7,9.589846 -11.9375,9.957036 -0.49219,0.0352 -0.99219,0.043 -1.48047,0.0156 -3.14453,-0.1875 -6.21875,-1.730468 -8.90625,-4.464843 l -18.60156,-5.886719 0.51953,7.070312 c 0.14453,1.9375 -0.48047,3.8125 -1.7461,5.27735 -1.26562,1.46875 -3.03125,2.35937 -4.97265,2.50781 -0.17969,0 -0.36719,0.004 -0.54688,0.004 z m -14.21875,-21.191411 0.17969,0.367187 c 0.50391,1.015625 1.20313,1.921875 2.08203,2.675782 1.35157,1.164062 3,1.871093 4.76563,2.035156 l 0.52343,0.05078 0.6875,9.234375 c 0.11719,1.605469 0.85157,3.066411 2.07032,4.109381 1.01172,0.87109 2.24218,1.37109 3.5664,1.45312 0.26953,0.0156 0.53907,0.0156 0.8086,-0.008 1.60547,-0.11719 3.0664,-0.84766 4.11328,-2.06641 1.05078,-1.21875 1.5625,-2.769531 1.44531,-4.375 l -0.64844,-8.832031 0.84375,0.214844 c 0.25782,0.05859 0.50391,0.128906 0.74219,0.207031 l 19.08594,6.039063 0.11328,0.117187 c 2.49219,2.582031 5.32422,4.035156 8.18359,4.199219 0.4336,0.02734 0.87891,0.01953 1.3125,-0.0078 4.46094,-0.332031 8.33203,-3.601562 10.89063,-9.226562 2.37109,-5.183594 3.38672,-11.875 2.86719,-18.839844 -0.51172,-6.960937 -2.50391,-13.429687 -5.60547,-18.210937 -3.36719,-5.183594 -7.67188,-7.859376 -12.13282,-7.527344 -3.35156,0.25 -6.39453,2.164062 -8.79296,5.539062 l -0.0898,0.132813 -17.97265,8.773437 c -1.45313,0.710938 -3.01954,1.136719 -4.63282,1.253906 l -7.91406,0.578126 c -2.27734,0.167968 -4.35937,1.210937 -5.85156,2.949218 -0.73828,0.859375 -1.3125,1.882813 -1.66016,2.953125 l -0.125,0.386719 -0.40234,0.04297 c -3.23047,0.359375 -5.57031,3.183593 -5.32813,6.421875 l 0.28125,3.796875 c 0.11719,1.605469 0.85157,3.066406 2.07032,4.109375 1.01172,0.871094 2.24609,1.371094 3.5664,1.453125 0.19532,0.01563 0.38672,0.01563 0.58203,0.0078 z m 14.22657,19.343751 c -1.30079,0 -2.53907,-0.45313 -3.53125,-1.3125 -1.09375,-0.94922 -1.75782,-2.26172 -1.86719,-3.703126 l -0.67969,-9.199219 8.24609,-0.609375 c 0.67969,-0.05078 1.3711,-0.05078 2.04688,0.01172 l 0.53516,0.05078 0.66406,8.953125 c 0.10547,1.445313 -0.35156,2.843755 -1.30078,3.933595 -0.94922,1.09375 -2.26563,1.75781 -3.70313,1.87109 -0.14062,0 -0.27734,0.004 -0.41015,0.004 z m -4.74219,-13.066408 0.58984,7.957032 c 0.082,1.105468 0.58594,2.117186 1.42969,2.839846 0.84766,0.72656 1.91797,1.08203 3.02734,1 1.10938,-0.0859 2.11719,-0.58985 2.84766,-1.4336 0.72656,-0.843746 1.07812,-1.917965 0.99609,-3.023434 l -0.58203,-7.882812 c -0.4375,-0.01953 -0.8789,-0.01172 -1.32422,0.02344 z m 39.63672,8.5625 c -0.17969,0 -0.36719,-0.0039 -0.54688,-0.01172 -0.39453,-0.01953 -0.79687,-0.07813 -1.20312,-0.152344 -0.74219,-0.144531 -1.48438,-0.375 -2.21094,-0.699219 -1.66016,-0.734375 -3.23828,-1.917969 -4.70703,-3.515625 -0.78125,-0.855468 -1.53516,-1.832031 -2.23047,-2.898437 -3.04688,-4.699219 -5.00391,-11.070313 -5.51172,-17.925781 -0.50391,-6.863282 0.49219,-13.449219 2.82031,-18.542969 0.53125,-1.160157 1.1211,-2.234375 1.76563,-3.1875 1.19531,-1.785157 2.57422,-3.175781 4.08984,-4.144531 0.69531,-0.445313 1.42188,-0.796876 2.15625,-1.054688 0.76563,-0.269531 1.57031,-0.433594 2.375,-0.488281 0.40625,-0.02734 0.82031,-0.03516 1.23047,-0.0078 0.19922,0.01172 0.41016,0.03516 0.63672,0.0625 3.59375,0.457032 6.95703,2.945313 9.71484,7.203125 3.04688,4.695313 5.00391,11.070313 5.51172,17.925781 0.50391,6.863282 -0.49219,13.449219 -2.82031,18.542969 -2.10156,4.613281 -5.05859,7.566407 -8.55078,8.550781 -0.60156,0.164063 -1.21875,0.277344 -1.83985,0.324219 -0.21484,0.01563 -0.44921,0.01953 -0.67968,0.01953 z m -2.51172,-51.40625 c -0.20313,0 -0.39453,0.0078 -0.59766,0.02344 -0.69922,0.04687 -1.39062,0.191406 -2.05469,0.425781 -0.64453,0.222657 -1.28125,0.535157 -1.89062,0.921875 -1.37109,0.871094 -2.625,2.144532 -3.72266,3.785156 -0.60547,0.898438 -1.16406,1.910157 -1.67187,3.007813 -2.23438,4.90625 -3.19922,11.277344 -2.70703,17.933594 0.49218,6.65625 2.38281,12.816406 5.32031,17.339843 0.65625,1.011719 1.36328,1.929688 2.09766,2.734376 1.34765,1.464843 2.78906,2.550781 4.29296,3.214843 0.63672,0.285157 1.28516,0.492188 1.9375,0.617188 0.35157,0.07031 0.70704,0.109375 1.03907,0.128906 0.35156,0.02344 0.71093,0.02344 1.07031,-0.0039 0.53516,-0.04297 1.07422,-0.132813 1.59375,-0.285157 3.12109,-0.878906 5.80078,-3.597656 7.74609,-7.867187 2.23828,-4.90625 3.19922,-11.277344 2.70703,-17.933594 -0.48828,-6.65625 -2.3789,-12.8125 -5.3164,-17.335937 -2.55469,-3.9375 -5.60156,-6.234375 -8.82031,-6.644532 -0.19141,-0.02734 -0.375,-0.03906 -0.54688,-0.05469 -0.16016,0 -0.31641,-0.0078 -0.47656,-0.0078 z m -7.27735,46.757813 -17.98828,-5.695313 c -0.42968,-0.136718 -0.8789,-0.253906 -1.34375,-0.34375 -0.58593,-0.125 -1.1914,-0.199218 -1.79297,-0.242187 l -0.0977,-0.0078 c -0.57813,-0.03516 -1.17578,-0.02734 -1.76563,0.01563 l -7.91406,0.578124 c -0.56641,0.04297 -1.14062,0.02344 -1.70312,-0.05469 -1.50782,-0.207031 -2.92188,-0.851563 -4.08203,-1.851563 -0.96875,-0.839843 -1.70313,-1.855468 -2.17579,-3.023437 l -0.082,-0.203125 -0.61718,0.05078 c -0.24219,0.01953 -0.48438,0.01953 -0.72657,0.0039 -1.1914,-0.06641 -2.29687,-0.515626 -3.21093,-1.304688 -1.09375,-0.949219 -1.76172,-2.265625 -1.86329,-3.703125 L 116.49219,74.625 c -0.22266,-2.984375 2.02734,-5.585938 5.00781,-5.804688 l 0.61328,-0.05078 0.0508,-0.214843 c 0.29688,-1.230469 0.8711,-2.34375 1.71094,-3.3125 1.39063,-1.613282 3.32031,-2.582032 5.44141,-2.742188 l 7.91406,-0.578125 c 1.69531,-0.125 3.32031,-0.570313 4.85156,-1.308594 L 159.03906,52.339844 158.20703,54 c -0.13672,0.28125 -0.27734,0.574219 -0.40625,0.855469 -2.37109,5.183593 -3.38672,11.875 -2.86719,18.839843 0.51172,6.960938 2.50391,13.429688 5.60938,18.210938 0.16406,0.261719 0.34375,0.519531 0.53125,0.789062 z m -21.99609,-7.5625 c 0.28516,0 0.56641,0.0078 0.85156,0.02734 0.0195,0 0.0469,0 0.0703,0.0078 h 0.0312 c 0.66015,0.04297 1.3164,0.132813 1.96093,0.261719 0.5,0.105469 0.9961,0.230469 1.46875,0.382812 l 14.53907,4.601563 c -2.97657,-4.878906 -4.88282,-11.285156 -5.39454,-18.140625 -0.5039,-6.859375 0.4375,-13.472656 2.66797,-18.738281 l -13.71093,6.691406 c -1.66797,0.816406 -3.45313,1.300781 -5.3086,1.433594 l -7.91406,0.578125 c -1.78906,0.132812 -3.41406,0.957031 -4.58984,2.3125 -0.70703,0.816406 -1.19141,1.757812 -1.44141,2.789062 l -0.26953,1.097656 -1.52344,0.113282 c -2.29297,0.164062 -4.01562,2.171875 -3.85156,4.460937 l 0.28516,3.796875 c 0.082,1.109375 0.58984,2.125 1.43359,2.851563 0.69922,0.601562 1.55078,0.949219 2.46484,1.003906 0.1875,0.01563 0.375,0.0078 0.5625,-0.0078 l 1.52735,-0.109374 0.42187,1.042968 c 0.40235,0.992188 1.01953,1.847656 1.83594,2.546875 0.98437,0.84375 2.16797,1.382813 3.4414,1.5625 0.47266,0.07031 0.95704,0.08594 1.44141,0.05078 l 7.91406,-0.582031 c 0.36719,-0.01953 0.72657,-0.03516 1.08594,-0.03516 z m 0,0"
         fill-opacity="1"
         fill-rule="nonzero"
         id="path24" />
      <path
         fill="#ffffff"
         d="m 95.367188,141.34766 c -1.453126,2.04687 -1.492188,3.12109 -1.347657,5.61328 0.191407,3.26953 0.449219,4.68359 0.808594,5.33984 0.5625,1.00391 2.429687,0.67969 2.527344,2.35156 0.152343,2.5586 -5.476563,2.88672 -7.222657,2.98828 -6.976562,0.41016 -7.996093,-1.14062 -8.050781,-2.10156 -0.109375,-1.92578 1.960938,-1.32812 2.511719,-2.82422 0.3125,-0.83593 0.429688,-2.48828 0.230469,-5.93359 -0.117188,-2.02734 -0.476563,-2.6875 -1.8125,-4.21484 l -4.292969,-4.42969 c -1.863281,-1.92188 -4.140625,-1.22266 -4.246094,-2.96875 -0.04687,-0.81641 -0.386718,-2.39844 7.898438,-2.88281 7.402344,-0.42969 7.417968,0.96093 7.457031,1.74218 0.05859,0.92969 -0.917969,1.33594 -0.878906,2.08203 0.05078,0.78125 1.601562,2.94141 2.492187,2.88672 0.929688,-0.0547 2.3125,-2.02734 2.265625,-2.84375 -0.05469,-0.99609 -1.09375,-1.01172 -1.171875,-2.35937 -0.121094,-2.09766 4.011719,-2.33985 5.359375,-2.41406 4.453129,-0.25782 5.656249,0.20703 5.746099,1.76953 0.13281,2.27734 -2.50391,1.10937 -4.17188,3.13672 z m 0,0"
         fill-opacity="1"
         fill-rule="nonzero"
         id="path26" />
      <path
         fill="#ffffff"
         d="m 105.11719,143.78516 c -0.4375,-7.54297 5.26172,-13.23047 13.02344,-13.67969 9.82421,-0.57422 14.09765,7.85156 14.36718,12.4414 0.44141,7.64454 -6.02343,13.08985 -13.28125,13.51172 -7.51172,0.4336 -13.66797,-4.69922 -14.10937,-12.27343 z M 116.8125,135.5 c -1.99609,0.12109 -2.86719,2.23828 -2.76953,3.98047 0.17187,3.02344 2.80469,11.40234 6.65234,11.17187 2.17578,-0.12109 2.98438,-2.0664 2.875,-3.98437 -0.1875,-3.23828 -2.59765,-11.41016 -6.75781,-11.16797 z m 0,0"
         fill-opacity="1"
         fill-rule="nonzero"
         id="path28" />
      <path
         fill="#ffffff"
         d="m 155.39844,134.60937 c -0.22266,-3.80468 -3.19922,-2.17187 -3.31641,-4.23437 -0.13281,-2.20703 4,-2.375 5.46094,-2.45703 1.35156,-0.0742 5.26953,-0.30469 5.38672,1.75781 0.11718,1.99219 -2.625,0.94141 -2.4375,4.17188 l 0.5625,9.60546 c 0.0898,1.59766 0.6289,10.13282 -11.6875,10.84766 -14.01953,0.81641 -13.08594,-10.08984 -13.11328,-10.51562 l -0.48047,-8.21485 c 0.0156,-2.24609 -2.40625,-2.10937 -2.50391,-3.74219 -0.0273,-0.5 -0.53906,-2.46875 6.79297,-2.89062 5.80078,-0.33984 7.03906,0.66406 7.11719,2.04687 0.15234,2.5586 -2.58985,0.33204 -2.51563,4.67579 l 0.38281,6.54687 c 0.25,4.23438 2.00782,6.83984 5.78125,6.62109 5.6211,-0.32421 5.10157,-4.97656 5.08204,-5.36328 z m 0,0"
         fill-opacity="1"
         fill-rule="nonzero"
         id="path30" />
      <path
         fill="#ffffff"
         d="m 167.87891,136.16406 c -0.0742,-1.3125 -2.83204,-1.36719 -3.01563,-4.60547 -0.14062,-2.3789 1.46484,-4.26171 3.84766,-4.40234 2.5625,-0.15234 4.36718,2.02734 4.50781,4.44922 0.24219,4.16015 -3.35156,9.90234 -5.77344,10.04687 -0.60547,0.0352 -1.73047,-0.32422 -1.78125,-1.07031 -0.0352,-0.75 2.34766,-2.17578 2.21485,-4.41797 z m 0,0"
         fill-opacity="1"
         fill-rule="nonzero"
         id="path32" />
      <path
         fill="#ffffff"
         d="m 178.17578,134.53125 c -0.32031,-5.51172 -2.89453,-3.07813 -3.02734,-5.28516 -0.10938,-1.95703 2.64453,-2.36328 4.07422,-2.44921 0.74609,-0.0391 1.46093,-0.0117 2.21484,-0.0195 0.71094,0.0273 1.46875,0.0547 2.17969,0.0156 1.13672,-0.0703 2.26953,-0.20313 3.4414,-0.34766 1.13672,-0.10547 2.30469,-0.24218 3.44922,-0.30468 4.02344,-0.23438 8.78516,1.27343 9.0625,6.0039 0.125,2.13281 -0.78906,4.25781 -2.72656,5.33594 -0.3125,0.19531 -0.55469,0.3164 -0.52734,0.74609 0.0273,0.53516 0.5039,0.65235 0.9414,0.80469 2.54688,0.78125 3.7461,2.35156 4.46485,6.16406 0.625,3.27735 2.8164,1.15625 2.9414,3.32813 0.0781,1.34765 -1.47265,2.87109 -5.49609,3.10547 -5.69141,0.33203 -6.59766,-2.89844 -7.97656,-7.52735 -0.48438,-1.61328 -1.1836,-3.17578 -3.14063,-3.0664 -0.78516,0.0508 -1.0625,0.16796 -0.92969,2.41015 0.0625,1.03125 0.21485,2.44922 0.44922,3.4375 0.38281,1.6211 2.16797,1.01563 2.26563,2.72656 0.0742,1.28125 -0.76172,2.28907 -6.52344,2.62891 -1.71094,0.0977 -6.76563,0.39453 -6.91797,-2.19922 -0.10937,-1.84765 2.64063,-0.72656 2.37109,-5.34765 z m 8.35156,1.08984 c -0.0234,0.92578 -0.15234,1.72266 1.02344,1.65235 2.3125,-0.13282 2.98438,-1.46094 2.85938,-3.66797 -0.10547,-1.74219 -0.62891,-3.49219 -2.69532,-3.375 -1.3125,0.0742 -1.23047,0.89062 -1.23828,2 z m 0,0"
         fill-opacity="1"
         fill-rule="nonzero"
         id="path34" />
      <path
         fill="#ffffff"
         d="m 218.77734,124.74219 c 4.76953,-0.27735 5.40625,-1.03125 5.97266,-1.0586 2.03125,-0.11718 3.08984,3.32032 3.17969,4.88672 0.0703,1.17578 -0.3125,2.58594 -1.70313,2.66797 -2.8125,0.16797 -0.73437,-3.38281 -7.5,-2.98828 -3.95312,0.23047 -3.51562,0.92187 -3.28125,5.01172 0.11719,2.05859 0.23047,2.1289 2.40235,1.99609 2.70703,-0.15625 0.44531,-3.98437 2.97265,-4.13672 2.0625,-0.11718 2.44141,3.89063 2.51953,5.28125 0.082,1.45703 0.082,5.74219 -2.05078,5.86719 -2.20703,0.12891 -0.21484,-3.73828 -3.8164,-3.53125 -1.49219,0.0898 -1.375,1.44141 -1.3125,2.57422 0.30468,5.19531 0.64453,4.92578 4.38281,4.70703 7.29687,-0.42187 4.93359,-5.32031 7.85547,-5.48828 1.13672,-0.0703 1.78906,1.18359 1.84375,2.17969 0.13672,2.42187 -1.53125,6.87109 -2.94922,6.95312 -0.25,0.0156 -0.82422,-0.0625 -1.57813,-0.125 -0.78906,-0.0273 -1.79297,-0.0742 -3,-0.008 l -14.6289,0.85156 c -2.34766,0.14063 -2.44532,-0.92578 -2.47266,-1.39062 -0.10937,-1.95703 2.39844,-0.53125 2.42969,-4.31641 0.0508,-6.49609 0.125,-5.85937 -0.60938,-12.27344 -0.5664,-5.42578 -3.10547,-2.46484 -3.2539,-4.98828 -0.125,-2.17187 2.88672,-1.98437 4.34375,-2.07422 z m 0,0"
         fill-opacity="1"
         fill-rule="nonzero"
         id="path36" />
      <path
         fill="#ffffff"
         d="m 70.375,185.08203 c -0.265625,-4.51953 -0.679688,-5.52734 -1.101562,-6.00781 -0.878907,-0.98047 -2.269532,-1.00781 -2.355469,-2.35547 -0.152344,-2.5625 7.113281,-2.98438 7.824219,-3.02734 2.132812,-0.1211 6.515624,-0.3086 6.660156,2.11328 0.07813,1.27734 -1.28125,1.28515 -2.046875,2.26172 -0.632813,0.82421 -0.480469,4.02734 -0.332031,6.51562 l 0.207031,3.52344 c 0.367187,6.33203 0.789062,6.16406 1.523437,6.55078 0.917969,0.48437 1.785156,0.60937 1.847656,1.71094 0.0625,1.0625 -0.167968,2.68359 -7.960937,3.14062 -1.496094,0.0898 -5.984375,0.3125 -6.113281,-1.96484 -0.07031,-1.13672 1.132812,-1.38281 1.660156,-2.09766 0.394531,-0.52344 0.679688,-1.85937 0.386719,-6.83594 z m 0,0"
         fill-opacity="1"
         fill-rule="nonzero"
         id="path38" />
      <path
         fill="#ffffff"
         d="m 101.81641,181.10937 c 0.44922,0.33204 1.64453,1.29297 2.28125,1.26172 0.89453,-0.0508 0.83984,-1.51562 0.80468,-2.11718 -0.0469,-0.89454 -0.17968,-2.41797 -0.51171,-3.21875 -0.58985,-1.46875 -2.4375,-0.82422 -2.55469,-2.73829 -0.13281,-2.27734 3.5039,-2.38281 5,-2.47265 1.5625,-0.0898 5.43359,-0.4961 5.57812,1.96094 0.11719,2.02343 -1.8125,1.39062 -2.32031,3.05468 -0.38672,1.3086 -0.25391,3.51563 -0.17969,4.86719 l 0.54297,9.20703 c 0.0898,1.59766 0.58594,6.46094 -1.79297,6.60156 -0.71484,0.0391 -1.34375,-0.35546 -1.90625,-0.78125 L 95.1875,187.52344 c -0.523438,-0.4336 -1.5,-1.23047 -2.25,-1.19141 -1.101562,0.0625 -1.003906,2.38281 -0.960938,3.12891 0.05469,0.99609 0.171876,2.3125 0.4375,3.22265 0.664063,2.25 2.503907,1.28125 2.601563,3.02344 0.136719,2.38281 -3.515625,2.8125 -5.1875,2.90625 -1.632813,0.0977 -5.316406,0.0977 -5.449219,-2.21094 -0.109375,-1.88281 2.003906,-1.26172 2.222656,-3.55859 0.160157,-1.54297 0.105469,-3.78906 0.0078,-5.39063 -0.152344,-2.55859 -0.296875,-5.15234 -0.84375,-7.6914 -0.777344,-3.52344 -3.261719,-1.98438 -3.386719,-4.125 -0.144531,-2.52344 4.667969,-2.66406 6.265625,-2.75391 2.210938,-0.1289 2.605469,-0.008 4.292969,1.32422 z m 0,0"
         fill-opacity="1"
         fill-rule="nonzero"
         id="path40" />
      <path
         fill="#ffffff"
         d="m 131.82812,193.06641 c -0.66406,1.5 -1.28125,3.18359 -3.19921,3.29296 -2.0625,0.11719 -2.66407,-1.02343 -3.54297,-2.64843 l -7.9961,-15.23828 c -1.20703,-2.2461 -1.55078,-2.65625 -2.94921,-2.78516 -0.72266,-0.0625 -1.10938,-0.58203 -1.15235,-1.32813 -0.15625,-2.74218 5.49219,-3.21093 7.30469,-3.3164 7.47656,-0.4336 7.29297,1.36328 7.32422,1.89453 0.0781,1.35156 -1.625,1.52344 -1.57031,2.48437 0.043,0.75 1.59375,3.44141 2.55468,5.23829 0.35547,0.58984 0.83203,1.95312 1.61328,1.9375 1.17578,0 1.66797,-2.02735 2.05078,-2.79688 0.37891,-0.875 1.82813,-4.17187 1.77735,-5.02734 -0.0742,-1.28125 -1.86719,-0.81641 -1.94922,-2.24219 -0.13281,-2.20703 4.35156,-2.42969 5.78125,-2.51172 4.48437,-0.26172 5.28125,0.51172 5.35156,1.75781 0.0547,0.96094 -0.63281,1.46485 -1.47656,1.61719 -1.52344,0.26953 -1.66797,0.16797 -2.85938,2.98828 z m 0,0"
         fill-opacity="1"
         fill-rule="nonzero"
         id="path42" />
      <path
         fill="#ffffff"
         d="m 146.95703,180.625 c -0.26172,-4.51563 -0.67969,-5.52734 -1.10156,-6.00391 -0.87891,-0.98437 -2.26953,-1.01172 -2.35156,-2.35937 -0.15235,-2.5586 7.10937,-2.98438 7.82031,-3.02344 2.13281,-0.125 6.51562,-0.3125 6.66015,2.10938 0.0781,1.28125 -1.27734,1.28515 -2.04687,2.26171 -0.62891,0.82422 -0.47656,4.02735 -0.33203,6.51954 l 0.20703,3.51953 c 0.36719,6.33203 0.78906,6.16406 1.52344,6.55468 0.92187,0.48438 1.78515,0.60547 1.84765,1.70704 0.0625,1.0664 -0.16406,2.68359 -7.96093,3.14062 -1.4961,0.0898 -5.98438,0.3125 -6.11329,-1.96484 -0.0703,-1.13282 1.13282,-1.38282 1.66016,-2.09375 0.39453,-0.52735 0.67969,-1.86328 0.38672,-6.83594 z m 0,0"
         fill-opacity="1"
         fill-rule="nonzero"
         id="path44" />
      <path
         fill="#ffffff"
         d="m 176.08984,168.1875 c 1.53125,-0.0898 2.23828,-0.26953 2.76563,-0.41016 0.49219,-0.17187 0.76562,-0.29687 1.44531,-0.33203 1.38672,-0.082 4.42969,2.49219 4.65234,6.33203 0.10547,1.77735 -0.7539,3 -2.5664,3.11328 -3.09766,0.17969 -3.30469,-4.01953 -5.125,-3.91796 -1.38281,0.0859 -1.13672,1.99218 -1.11328,2.27734 l 0.63672,10.91797 c 0.25,4.23437 3.40625,2.01172 3.54296,4.5039 0.0625,1.10157 -0.51953,2.70704 -7.17187,3.09375 -1.8125,0.10157 -8.46875,0.56641 -8.62891,-2.17187 -0.10937,-1.88281 2.14063,-1.26953 2.77735,-2.66016 0.3125,-0.76562 0.33203,-2.91015 0.3125,-3.79687 l -0.17188,-7.875 c -0.0781,-3.74219 -0.82422,-3.66406 -1.3164,-3.62891 -1.60157,0.0898 -2.14063,4.33594 -5.01954,4.50391 -1.38671,0.082 -2.27734,-1.14844 -2.35546,-2.4375 -0.17188,-3.02344 2.15234,-7.11719 4.18359,-7.23828 0.25,-0.0117 0.64453,0.0703 1.32812,0.17578 0.6875,0.0664 1.65625,0.15234 3.07422,0.0664 z m 0,0"
         fill-opacity="1"
         fill-rule="nonzero"
         id="path46" />
      <path
         fill="#ffffff"
         d="m 199.79297,166.80078 c 4.76953,-0.27344 5.40625,-1.03125 5.97265,-1.05859 2.03125,-0.11719 3.08985,3.32422 3.17969,4.88672 0.0703,1.17578 -0.3125,2.58593 -1.70312,2.67187 -2.8125,0.16406 -0.73438,-3.38672 -7.5,-2.99219 -3.95313,0.23047 -3.51563,0.92188 -3.28125,5.01172 0.11718,2.0625 0.23047,2.12891 2.40234,2 2.70703,-0.16015 0.44531,-3.98828 2.96875,-4.14062 2.06641,-0.11719 2.44531,3.89062 2.52344,5.28125 0.082,1.46093 0.082,5.74218 -2.05078,5.86718 -2.20703,0.12891 -0.21485,-3.73828 -3.81641,-3.52734 -1.49219,0.0898 -1.375,1.4375 -1.3125,2.57031 0.30469,5.19922 0.64063,4.92578 4.38281,4.70703 7.29688,-0.42187 4.9336,-5.32031 7.85547,-5.48828 1.13672,-0.0664 1.78906,1.1836 1.84375,2.17969 0.13672,2.42188 -1.53125,6.87109 -2.94922,6.95313 -0.25,0.0156 -0.82422,-0.0625 -1.57812,-0.125 -0.78906,-0.0273 -1.79297,-0.0742 -3,-0.004 l -14.62891,0.84766 c -2.34765,0.14062 -2.44531,-0.92579 -2.47265,-1.39063 -0.10938,-1.95703 2.39453,-0.53125 2.42968,-4.31641 0.0508,-6.49609 0.125,-5.85937 -0.60937,-12.27343 -0.56641,-5.42578 -3.10938,-2.46094 -3.25391,-4.98828 -0.125,-2.17188 2.88672,-1.98438 4.34375,-2.07422 z m 0,0"
         fill-opacity="1"
         fill-rule="nonzero"
         id="path48" />
      <path
         fill="#ffffff"
         d="m 214.47656,171.80469 c -0.14453,-3.66797 -2.70703,-1.73828 -2.84765,-4.04688 -0.0937,-1.63281 1.95312,-2.00781 3.19921,-2.07812 l 11.60547,-0.67578 c 9.89453,-0.57422 13.48828,5.35546 13.85938,11.7539 0.39062,6.61328 -3.12891,13.0625 -12.13672,13.58985 -1.52734,0.0898 -2.80859,0.1289 -3.91797,0.125 -1.10547,0.0273 -2.07031,0.0469 -3.06641,0.10156 -0.99609,0.0547 -2.02734,0.15234 -3.01953,0.25 -0.98828,0.13281 -1.98828,0.22265 -3.01953,0.28515 -1.21094,0.0664 -2.77344,-0.44531 -2.85937,-1.87109 -0.15235,-2.55859 2.83203,0.11719 2.63281,-5.07812 z m 9.29688,12.51562 c 0.10547,1.8125 0.4375,2.54688 2.35547,2.4375 4.48828,-0.26562 5,-4.89453 4.79296,-8.45703 -0.48828,-8.32422 -3.69921,-9.45703 -6.43359,-9.29687 -1.49609,0.0898 -1.56641,0.69921 -1.48828,2.04687 z m 0,0"
         fill-opacity="1"
         fill-rule="nonzero"
         id="path50" />
      <path
         fill="#ffffff"
         d="m 249.34375,175.73437 c -0.28516,0.69141 -1.39063,3.07813 -2.28516,3.12891 -0.89062,0.0469 -2.26953,-2.1875 -2.6289,-2.84375 -1.10938,-1.89844 -2.08594,-4.51953 -2.21875,-6.72656 -0.15235,-2.62891 0.92968,-5.51563 3.95703,-5.6875 3.02344,-0.17188 4.4375,2.55859 4.58984,5.19531 0.12891,2.19922 -0.53515,4.92188 -1.41406,6.93359 z m -1.66016,13.79688 c -2.17578,0.125 -4.05859,-1.55078 -4.18359,-3.71484 -0.125,-2.17579 1.55078,-4.05469 3.71875,-4.17969 2.17187,-0.125 4.05859,1.55078 4.17969,3.71484 0.13281,2.17188 -1.54297,4.05469 -3.71485,4.17969 z m 0,0"
         fill-opacity="1"
         fill-rule="nonzero"
         id="path52" />
      <path
         fill="#343434"
         d="m 93.347656,138.80078 c -1.453125,2.05078 -1.496094,3.12109 -1.351562,5.61328 0.195312,3.27344 0.449218,4.6836 0.8125,5.33985 0.558594,1.0039 2.429687,0.67968 2.527344,2.35156 0.152343,2.5625 -5.476563,2.88672 -7.222657,2.99219 -6.980469,0.40625 -7.996093,-1.14454 -8.054687,-2.10547 -0.109375,-1.92188 1.960937,-1.32813 2.515625,-2.82422 0.3125,-0.83594 0.429687,-2.48828 0.226562,-5.9336 -0.117187,-2.02734 -0.476562,-2.6875 -1.8125,-4.21484 l -4.292969,-4.42969 c -1.863281,-1.92187 -4.140624,-1.22265 -4.242187,-2.96484 -0.05078,-0.81641 -0.390625,-2.40234 7.898437,-2.88672 7.402344,-0.42969 7.414063,0.96094 7.457032,1.74219 0.05469,0.92969 -0.921875,1.33594 -0.878906,2.08594 0.04687,0.78125 1.597656,2.9375 2.492187,2.88281 0.925781,-0.0547 2.3125,-2.02735 2.261719,-2.84375 -0.05469,-0.9961 -1.09375,-1.00781 -1.167969,-2.35938 -0.125,-2.09765 4.007813,-2.33593 5.359375,-2.41406 4.44922,-0.25781 5.65625,0.20703 5.74609,1.76953 0.13282,2.27735 -2.507809,1.10938 -4.175778,3.13672 z m 0,0"
         fill-opacity="1"
         fill-rule="nonzero"
         id="path54" />
      <path
         fill="#343434"
         d="m 103.09375,141.23047 c -0.43359,-7.54297 5.26563,-13.23047 13.02344,-13.67969 9.82812,-0.57422 14.09765,7.85547 14.36718,12.44141 0.44532,7.64453 -6.02343,13.08984 -13.27734,13.51172 -7.51172,0.4414 -13.67578,-4.69922 -14.11328,-12.27344 z m 11.69531,-8.28125 c -1.99218,0.11719 -2.86718,2.23437 -2.76953,3.97656 0.17188,3.02344 2.80469,11.40234 6.65235,11.17578 2.17578,-0.125 2.98437,-2.07031 2.875,-3.98437 -0.1875,-3.23438 -2.59766,-11.41016 -6.75782,-11.16797 z m 0,0"
         fill-opacity="1"
         fill-rule="nonzero"
         id="path56" />
      <path
         fill="#343434"
         d="m 153.375,132.0625 c -0.22266,-3.80469 -3.19922,-2.17188 -3.31641,-4.23437 -0.13281,-2.20704 4.00391,-2.3711 5.46094,-2.45704 1.35156,-0.0742 5.26953,-0.30468 5.38672,1.75782 0.12109,1.99218 -2.62109,0.9414 -2.43359,4.17187 l 0.55859,9.60547 c 0.0898,1.59766 0.62891,10.13672 -11.6875,10.84766 -14.01953,0.8164 -13.08594,-10.08594 -13.11328,-10.51563 l -0.47656,-8.21484 c 0.0117,-2.2461 -2.41016,-2.10938 -2.50782,-3.74219 -0.0273,-0.49609 -0.53906,-2.46875 6.79297,-2.89062 5.80078,-0.33985 7.04297,0.66406 7.11719,2.04687 0.15234,2.55859 -2.58984,0.33203 -2.51172,4.67578 l 0.37891,6.54688 c 0.25,4.23437 2.00781,6.84375 5.78125,6.62109 5.62109,-0.32422 5.10547,-4.97656 5.08203,-5.36328 z m 0,0"
         fill-opacity="1"
         fill-rule="nonzero"
         id="path58" />
      <path
         fill="#343434"
         d="m 165.85937,133.62109 c -0.0781,-1.3164 -2.83203,-1.37109 -3.01953,-4.60937 -0.13672,-2.37891 1.46875,-4.26172 3.84766,-4.39844 2.5625,-0.15234 4.37109,2.02735 4.50781,4.44531 0.24219,4.16016 -3.35156,9.90235 -5.77344,10.04688 -0.60156,0.0352 -1.73046,-0.32422 -1.77734,-1.07031 -0.0352,-0.75391 2.34375,-2.17188 2.21484,-4.41407 z m 0,0"
         fill-opacity="1"
         fill-rule="nonzero"
         id="path60" />
      <path
         fill="#343434"
         d="m 176.15234,131.98828 c -0.3164,-5.51562 -2.89062,-3.07812 -3.02343,-5.28906 -0.11329,-1.95703 2.64453,-2.36328 4.07031,-2.44922 0.74609,-0.0391 1.46094,-0.0117 2.21484,-0.0195 0.71485,0.0273 1.46875,0.0547 2.1836,0.0156 1.13281,-0.0703 2.26953,-0.20312 3.4375,-0.34765 1.13671,-0.10156 2.30859,-0.24219 3.44921,-0.30469 4.02344,-0.23437 8.78516,1.27344 9.0625,6.00781 0.125,2.12891 -0.78906,4.25391 -2.72656,5.33203 -0.3125,0.19532 -0.55469,0.32032 -0.52734,0.75 0.0273,0.53125 0.50781,0.64844 0.9414,0.80078 2.55079,0.78125 3.7461,2.35157 4.46875,6.16407 0.6211,3.28125 2.81641,1.15625 2.94141,3.32812 0.0742,1.34766 -1.47656,2.8711 -5.49609,3.10547 -5.69141,0.33203 -6.60157,-2.89844 -7.97657,-7.52734 -0.48437,-1.60938 -1.18359,-3.17578 -3.14453,-3.0625 -0.78125,0.0469 -1.05859,0.16406 -0.92968,2.40625 0.0625,1.03125 0.21484,2.44922 0.45312,3.4375 0.37891,1.62109 2.16406,1.01953 2.26172,2.72656 0.0781,1.28125 -0.76172,2.28906 -6.51953,2.62891 -1.71094,0.0977 -6.76563,0.39453 -6.91797,-2.19922 -0.10938,-1.84766 2.63672,-0.72657 2.36719,-5.34766 z m 8.35157,1.07813 c -0.0195,0.92578 -0.15235,1.72265 1.02343,1.65234 2.3125,-0.12891 2.98438,-1.45703 2.85938,-3.66406 -0.10156,-1.7461 -0.62891,-3.4961 -2.69141,-3.37891 -1.3164,0.0781 -1.23437,0.89453 -1.23828,2 z m 0,0"
         fill-opacity="1"
         fill-rule="nonzero"
         id="path62" />
      <path
         fill="#343434"
         d="m 216.75391,122.19531 c 4.76953,-0.27343 5.40625,-1.02734 5.97656,-1.05859 2.02734,-0.11719 3.08594,3.32422 3.17578,4.88672 0.0703,1.17578 -0.30859,2.58593 -1.70313,2.67187 -2.80859,0.16406 -0.73437,-3.38672 -7.49609,-2.99218 -3.95312,0.23046 -3.51953,0.92187 -3.28125,5.01171 0.11719,2.0625 0.22656,2.12891 2.40234,2 2.70704,-0.16015 0.44141,-3.98828 2.96875,-4.14062 2.0625,-0.11719 2.44532,3.89062 2.51954,5.28125 0.082,1.46094 0.082,5.74219 -2.04688,5.86719 -2.21094,0.13281 -0.21484,-3.73829 -3.81641,-3.52735 -1.49609,0.0898 -1.3789,1.4375 -1.3164,2.57031 0.30469,5.19922 0.64453,4.92969 4.38281,4.70704 7.29688,-0.42188 4.9375,-5.32032 7.85938,-5.48829 1.13671,-0.0664 1.78515,1.1836 1.83984,2.17969 0.14062,2.42188 -1.52734,6.8711 -2.94922,6.95313 -0.25,0.0156 -0.82422,-0.0625 -1.57812,-0.125 -0.78907,-0.0273 -1.79297,-0.0742 -2.9961,-0.004 l -14.63281,0.85156 c -2.34375,0.13672 -2.44141,-0.92968 -2.46875,-1.39453 -0.11328,-1.95703 2.39453,-0.53125 2.42969,-4.3164 0.0469,-6.4961 0.125,-5.85938 -0.60938,-12.27344 -0.57031,-5.42188 -3.10937,-2.46094 -3.2539,-4.98828 -0.125,-2.17188 2.88671,-1.98438 4.33984,-2.07422 z m 0,0"
         fill-opacity="1"
         fill-rule="nonzero"
         id="path64" />
      <path
         fill="#343434"
         d="m 68.34375,182.53516 c -0.261719,-4.51954 -0.675781,-5.52735 -1.097656,-6.00391 -0.878906,-0.98438 -2.273438,-1.01172 -2.355469,-2.35938 -0.152344,-2.5625 7.109375,-2.98437 7.824219,-3.02343 2.132812,-0.125 6.515625,-0.3125 6.660156,2.10937 0.07813,1.28125 -1.28125,1.28516 -2.050781,2.26172 -0.628907,0.82422 -0.476563,4.02734 -0.332031,6.51953 l 0.207031,3.51953 c 0.367187,6.33203 0.792969,6.16407 1.523437,6.55078 0.921875,0.48438 1.789063,0.60938 1.851563,1.71094 0.0625,1.06641 -0.167969,2.6836 -7.964844,3.14063 -1.496094,0.0898 -5.980469,0.3125 -6.113281,-1.96485 -0.06641,-1.13281 1.136718,-1.38281 1.664062,-2.09765 0.398438,-0.52344 0.675782,-1.85938 0.386719,-6.83594 z m 0,0"
         fill-opacity="1"
         fill-rule="nonzero"
         id="path66" />
      <path
         fill="#343434"
         d="m 99.792969,178.5625 c 0.449221,0.33203 1.648441,1.29687 2.285161,1.26172 0.89453,-0.0508 0.83593,-1.51563 0.80468,-2.11719 -0.0508,-0.89453 -0.18359,-2.41406 -0.51562,-3.21875 -0.58594,-1.46484 -2.437502,-0.82422 -2.55469,-2.73828 -0.128906,-2.27734 3.50391,-2.38281 5,-2.47266 1.56641,-0.0898 5.43359,-0.49609 5.58203,1.96094 0.11719,2.02734 -1.8164,1.39063 -2.32031,3.05859 -0.38672,1.30469 -0.25781,3.51172 -0.17969,4.86329 l 0.53906,9.20703 c 0.0898,1.59765 0.58985,6.46484 -1.79296,6.60156 -0.71485,0.043 -1.34375,-0.35156 -1.90235,-0.78125 l -11.570311,-9.21094 c -0.527344,-0.43359 -1.503907,-1.23047 -2.25,-1.1875 -1.101563,0.0625 -1.003907,2.37891 -0.964844,3.125 0.05859,0.9961 0.175781,2.3125 0.4375,3.22656 0.664063,2.2461 2.507813,1.27735 2.601563,3.02344 0.140624,2.37891 -3.515626,2.8086 -5.183594,2.90625 -1.632813,0.0937 -5.316406,0.0937 -5.449219,-2.21484 -0.109375,-1.88281 2,-1.26172 2.222656,-3.5586 0.160157,-1.54296 0.101563,-3.78906 0.0078,-5.38671 -0.152344,-2.5625 -0.300782,-5.15625 -0.847656,-7.69532 -0.773438,-3.52343 -3.257813,-1.98437 -3.382813,-4.125 -0.148437,-2.52343 4.664063,-2.66406 6.265625,-2.7539 2.207031,-0.12891 2.601562,-0.004 4.292969,1.32422 z m 0,0"
         fill-opacity="1"
         fill-rule="nonzero"
         id="path68" />
      <path
         fill="#343434"
         d="m 129.80859,190.51953 c -0.66797,1.5 -1.28125,3.18359 -3.19921,3.29297 -2.0625,0.11719 -2.66797,-1.02344 -3.54688,-2.64844 l -7.99609,-15.23437 c -1.20313,-2.25 -1.55078,-2.66016 -2.94922,-2.78907 -0.71875,-0.0625 -1.10938,-0.58203 -1.14844,-1.32812 -0.16016,-2.74219 5.48828,-3.21094 7.30469,-3.31641 7.47656,-0.43359 7.28906,1.36328 7.32422,1.89844 0.0742,1.34766 -1.62891,1.51953 -1.57032,2.48047 0.0391,0.75 1.58985,3.44141 2.55469,5.23828 0.35156,0.58984 0.82813,1.95313 1.61328,1.9375 1.17578,0 1.66797,-2.02734 2.04688,-2.79297 0.38281,-0.8789 1.82812,-4.17187 1.78125,-5.03125 -0.0781,-1.28125 -1.8711,-0.8164 -1.95313,-2.24219 -0.13281,-2.20703 4.35547,-2.42968 5.78125,-2.51171 4.48828,-0.26172 5.28125,0.51171 5.35156,1.75781 0.0547,0.96094 -0.6289,1.46875 -1.47265,1.62109 -1.52344,0.26953 -1.67188,0.16406 -2.86328,2.98828 z m 0,0"
         fill-opacity="1"
         fill-rule="nonzero"
         id="path70" />
      <path
         fill="#343434"
         d="m 144.93359,178.07422 c -0.26172,-4.51953 -0.67578,-5.53125 -1.09765,-6.00781 -0.88282,-0.98047 -2.27344,-1.00782 -2.35547,-2.35938 -0.15235,-2.55859 7.10937,-2.98047 7.82422,-3.02344 2.13281,-0.125 6.51562,-0.30859 6.66015,2.10938 0.0742,1.28125 -1.28125,1.28906 -2.05078,2.26562 -0.6289,0.82032 -0.47656,4.02735 -0.33203,6.51563 l 0.20703,3.52344 c 0.36719,6.32812 0.78906,6.16406 1.52344,6.55078 0.92187,0.48437 1.78906,0.60937 1.85156,1.70703 0.0625,1.0664 -0.16797,2.6875 -7.96484,3.14453 -1.4961,0.0898 -5.98047,0.30859 -6.11328,-1.96484 -0.0703,-1.13672 1.13672,-1.38672 1.66406,-2.09766 0.39453,-0.52734 0.67578,-1.86328 0.38672,-6.83594 z m 0,0"
         fill-opacity="1"
         fill-rule="nonzero"
         id="path72" />
      <path
         fill="#343434"
         d="m 174.0625,165.64062 c 1.53125,-0.0898 2.23828,-0.26953 2.76172,-0.41015 0.49219,-0.17188 0.76953,-0.29688 1.44922,-0.33203 1.38281,-0.082 4.42968,2.49218 4.65234,6.33203 0.10156,1.77734 -0.75391,3.0039 -2.57031,3.11328 -3.09375,0.17969 -3.30078,-4.01953 -5.1211,-3.91797 -1.38671,0.0859 -1.13671,1.99609 -1.11718,2.27734 l 0.63672,10.91797 c 0.25,4.23438 3.40625,2.01563 3.54687,4.50391 0.0625,1.10156 -0.51953,2.70703 -7.17187,3.09375 -1.81641,0.10547 -8.46875,0.56641 -8.62891,-2.17188 -0.10938,-1.88281 2.14062,-1.26562 2.77734,-2.65625 0.3125,-0.76953 0.33203,-2.91406 0.3125,-3.80078 l -0.17578,-7.87109 c -0.0742,-3.74609 -0.82422,-3.66797 -1.3125,-3.63281 -1.60156,0.0898 -2.14062,4.33593 -5.01953,4.5039 -1.38672,0.082 -2.28125,-1.14843 -2.35547,-2.4375 -0.17187,-3.02343 2.15235,-7.11718 4.17969,-7.23437 0.25,-0.0156 0.64453,0.0664 1.33203,0.17187 0.68359,0.0703 1.65234,0.15235 3.07422,0.0703 z m 0,0"
         fill-opacity="1"
         fill-rule="nonzero"
         id="path74" />
      <path
         fill="#343434"
         d="m 197.76953,164.25781 c 4.76953,-0.27734 5.40625,-1.03125 5.97656,-1.05859 2.02735,-0.1211 3.08594,3.32031 3.17578,4.88281 0.0703,1.17578 -0.3125,2.58594 -1.70312,2.67188 -2.80859,0.16406 -0.73438,-3.38282 -7.49609,-2.98829 -3.95313,0.22657 -3.51954,0.91797 -3.28516,5.00782 0.12109,2.0625 0.23047,2.1289 2.40625,2 2.70703,-0.16016 0.44141,-3.98438 2.96875,-4.13672 2.0625,-0.11719 2.44531,3.88672 2.51953,5.27734 0.082,1.46094 0.082,5.74219 -2.05078,5.86719 -2.20703,0.13281 -0.21094,-3.73438 -3.8125,-3.52734 -1.49609,0.0898 -1.37891,1.4375 -1.31641,2.57421 0.30469,5.19532 0.64453,4.92579 4.38282,4.70313 7.29687,-0.42188 4.9375,-5.32031 7.85937,-5.48828 1.13281,-0.0664 1.78516,1.18359 1.83984,2.17969 0.14063,2.42187 -1.52734,6.87109 -2.94921,6.95312 -0.25,0.0156 -0.82422,-0.0586 -1.57813,-0.12109 -0.78906,-0.0312 -1.79297,-0.0781 -2.99609,-0.008 l -14.63282,0.85157 c -2.34375,0.13672 -2.4414,-0.92969 -2.46875,-1.39063 -0.11328,-1.96094 2.39454,-0.53515 2.42969,-4.32031 0.0469,-6.49609 0.125,-5.85938 -0.60937,-12.27344 -0.57032,-5.42187 -3.10938,-2.46094 -3.25391,-4.98828 -0.125,-2.17187 2.88672,-1.98437 4.33984,-2.07422 z m 0,0"
         fill-opacity="1"
         fill-rule="nonzero"
         id="path76" />
      <path
         fill="#343434"
         d="m 212.44922,169.25781 c -0.14844,-3.66797 -2.70703,-1.73437 -2.84766,-4.04687 -0.0977,-1.63282 1.95313,-2.00782 3.19922,-2.07422 l 11.60547,-0.67969 c 9.89453,-0.57422 13.48437,5.35547 13.85937,11.75391 0.38672,6.61718 -3.1289,13.0625 -12.13671,13.58984 -1.53125,0.0898 -2.8125,0.13281 -3.91797,0.125 -1.10938,0.0273 -2.07032,0.0469 -3.06641,0.10156 -1,0.0586 -2.03125,0.15235 -3.01953,0.25 -0.99219,0.13282 -1.98828,0.22266 -3.01953,0.28516 -1.21094,0.0703 -2.77735,-0.44531 -2.85938,-1.86719 -0.15234,-2.5625 2.83203,0.11719 2.63282,-5.07812 z m 9.30469,12.51563 c 0.10156,1.8125 0.43359,2.54687 2.35156,2.4375 4.48828,-0.26563 5,-4.89453 4.79297,-8.45703 -0.48438,-8.32032 -3.69532,-9.45704 -6.4336,-9.29688 -1.49218,0.0898 -1.5625,0.69922 -1.48828,2.04688 z m 0,0"
         fill-opacity="1"
         fill-rule="nonzero"
         id="path78" />
      <path
         fill="#343434"
         d="m 247.31641,173.17969 c -0.28516,0.69531 -1.39454,3.08203 -2.28516,3.1289 -0.89453,0.0469 -2.27344,-2.1875 -2.63281,-2.84375 -1.10547,-1.89453 -2.08203,-4.51953 -2.21485,-6.72656 -0.15234,-2.62891 0.92969,-5.51172 3.95313,-5.68359 3.02734,-0.17578 4.4375,2.55859 4.58984,5.19531 0.14063,2.20703 -0.52344,4.91797 -1.41015,6.92969 z m -1.65625,13.80468 c -2.17188,0.125 -4.0586,-1.55078 -4.17969,-3.71484 -0.125,-2.17187 1.55078,-4.05469 3.71484,-4.17969 2.17578,-0.125 4.0586,1.55078 4.1836,3.71485 0.125,2.17187 -1.55079,4.05468 -3.71875,4.17968 z m 0,0"
         fill-opacity="1"
         fill-rule="nonzero"
         id="path80" />
    </g>
  </g>
</svg>
