<?xml version="1.0" encoding="UTF-8" standalone="no"?>
<svg
   xmlns:dc="http://purl.org/dc/elements/1.1/"
   xmlns:cc="http://creativecommons.org/ns#"
   xmlns:rdf="http://www.w3.org/1999/02/22-rdf-syntax-ns#"
   xmlns:svg="http://www.w3.org/2000/svg"
   xmlns="http://www.w3.org/2000/svg"
   xmlns:sodipodi="http://sodipodi.sourceforge.net/DTD/sodipodi-0.dtd"
   xmlns:inkscape="http://www.inkscape.org/namespaces/inkscape"
   width="24"
   height="24"
   viewBox="0 0 24 24"
   version="1.1"
   id="svg6"
   sodipodi:docname="material-cc-icon.svg"
   inkscape:version="0.92.3 (2405546, 2018-03-11)">
  <metadata
     id="metadata12">
    <rdf:RDF>
      <cc:Work
         rdf:about="">
        <dc:format>image/svg+xml</dc:format>
        <dc:type
           rdf:resource="http://purl.org/dc/dcmitype/StillImage" />
        <dc:title></dc:title>
      </cc:Work>
    </rdf:RDF>
  </metadata>
  <defs
     id="defs10" />
  <sodipodi:namedview
     pagecolor="#ffffff"
     bordercolor="#666666"
     borderopacity="1"
     objecttolerance="10"
     gridtolerance="10"
     guidetolerance="10"
     inkscape:pageopacity="0"
     inkscape:pageshadow="2"
     inkscape:window-width="1920"
     inkscape:window-height="1017"
     id="namedview8"
     showgrid="true"
     inkscape:zoom="27.812867"
     inkscape:cx="9.3958632"
     inkscape:cy="15.517418"
     inkscape:window-x="-8"
     inkscape:window-y="-8"
     inkscape:window-maximized="1"
     inkscape:current-layer="svg6">
    <inkscape:grid
       type="xygrid"
       id="grid822" />
  </sodipodi:namedview>
  <path
     fill="none"
     d="M0 0h24v24H0V0zm0 0h24v24H0V0z"
     id="path2" />
  <path
     d="M 12 2 C 6.48 2 2 6.48 2 12 C 2 17.52 6.48 22 12 22 C 17.52 22 22 17.52 22 12 C 22 6.48 17.52 2 12 2 z M 12 4 C 16.42 4 20 7.58 20 12 C 20 16.42 16.42 20 12 20 C 7.58 20 4 16.42 4 12 C 4 7.58 7.58 4 12 4 z "
     id="path826" />
  <path
     inkscape:connector-curvature="0"
     d="m 11.796655,10.128816 -1.509128,0.784662 C 10.126301,10.578702 9.9288153,10.343551 9.6943676,10.20943 9.4595671,10.07566 9.2416645,10.008424 9.0403064,10.008424 c -1.005381,0 -1.5087753,0.663565 -1.5087753,1.9914 0,0.60337 0.1274331,1.085643 0.3819463,1.447875 0.2548654,0.362233 0.6304753,0.543525 1.126829,0.543525 0.6572295,0 1.1197886,-0.322102 1.3883826,-0.965601 l 1.38768,0.704048 C 11.521372,14.279884 11.112321,14.71217 10.589212,15.027232 10.066808,15.342645 9.4898419,15.5 8.859366,15.5 7.8536329,15.5 7.0418658,15.191979 6.4251197,14.574528 5.8083736,13.957782 5.5,13.099547 5.5,12.000177 5.5,10.927206 5.8118935,10.076012 6.4353281,9.4455372 7.0587628,8.815414 7.8465931,8.5000007 8.7991702,8.5000007 10.194241,8.4992963 11.192934,9.0424697 11.796655,10.128816 Z"
     id="path826-9"
     style="stroke-width:0.35202414" />
  <path
     inkscape:connector-curvature="0"
     d="m 18.276237,10.128816 -1.488709,0.784662 c -0.160875,-0.334776 -0.359065,-0.569927 -0.593512,-0.704048 -0.235153,-0.13377 -0.460096,-0.201006 -0.673774,-0.201006 -1.005734,0 -1.509128,0.663565 -1.509128,1.9914 0,0.60337 0.127785,1.085643 0.382298,1.447875 0.254514,0.362233 0.629771,0.543525 1.12683,0.543525 0.656524,0 1.119436,-0.322102 1.387326,-0.965601 l 1.408096,0.704048 c -0.30802,0.550213 -0.724113,0.982499 -1.246517,1.297561 C 16.54604,15.342645 15.976113,15.5 15.359366,15.5 14.339904,15.5 13.525673,15.191979 12.915967,14.574528 12.304853,13.957782 12,13.099547 12,12.000177 c 0,-1.072971 0.311541,-1.924165 0.93568,-2.5546398 0.623082,-0.6301232 1.410913,-0.9455365 2.363138,-0.9455365 1.394719,-7.044e-4 2.387779,0.5424689 2.977419,1.6288153 z"
     id="path4"
     style="stroke-width:0.35202414" />
</svg>
