<?xml version="1.0" encoding="UTF-8" standalone="no"?>
<svg
   height="48"
   viewBox="0 96 960 960"
   width="48"
   version="1.1"
   id="svg628"
   sodipodi:docname="data-info.svg"
   inkscape:version="1.2.2 (b0a8486541, 2022-12-01)"
   xmlns:inkscape="http://www.inkscape.org/namespaces/inkscape"
   xmlns:sodipodi="http://sodipodi.sourceforge.net/DTD/sodipodi-0.dtd"
   xmlns="http://www.w3.org/2000/svg"
   xmlns:svg="http://www.w3.org/2000/svg">
  <defs
     id="defs632" />
  <sodipodi:namedview
     id="namedview630"
     pagecolor="#ffffff"
     bordercolor="#666666"
     borderopacity="1.0"
     inkscape:showpageshadow="2"
     inkscape:pageopacity="0.0"
     inkscape:pagecheckerboard="0"
     inkscape:deskcolor="#d1d1d1"
     showgrid="false"
     inkscape:zoom="4.2131779"
     inkscape:cx="-14.953083"
     inkscape:cy="25.989883"
     inkscape:window-width="1920"
     inkscape:window-height="1016"
     inkscape:window-x="0"
     inkscape:window-y="0"
     inkscape:window-maximized="1"
     inkscape:current-layer="svg628" />
  <path
     id="path626"
     d="M 480 136 C 456.00002 136 434.81769 143.50002 416.48438 158.5 C 398.15106 173.49999 386.65885 192.66669 381.99219 216 L 180 216 C 162.66668 216 148.32551 221.65887 136.99219 232.99219 C 125.65887 244.32551 120 258.66668 120 276 L 120 876 C 120 893.33332 125.65887 907.67449 136.99219 919.00781 C 148.32551 930.34113 162.66668 936 180 936 L 401.28906 936 A 321.31665 321.31665 0 0 1 341.28906 876 L 180 876 L 180 276 L 240 276 L 240 366 L 720 366 L 720 276 L 780 276 L 780 431.85938 A 321.31665 321.31665 0 0 1 840 484.28125 L 840 276 C 840 258.66668 834.34113 244.32551 823.00781 232.99219 C 811.67449 221.65887 797.33332 216 780 216 L 578.00781 216 C 573.34115 192.66669 561.84894 173.49999 543.51562 158.5 C 525.18231 143.50002 503.99998 136 480 136 z M 480 196 C 491.33332 196 500.84897 199.81772 508.51562 207.48438 C 516.18228 215.15103 520 224.66668 520 236 C 520 247.33332 516.18228 256.84897 508.51562 264.51562 C 500.84897 272.18228 491.33332 276 480 276 C 468.66668 276 459.15103 272.18228 451.48438 264.51562 C 443.81772 256.84897 440 247.33332 440 236 C 440 224.66668 443.81772 215.15103 451.48438 207.48438 C 459.15103 199.81772 468.66668 196 480 196 z M 827.61719 907.36719 A 321.31665 321.31665 0 0 1 811.36719 923.61719 C 814.87543 921.37952 819.93938 922.07624 823.00781 919.00781 C 826.07624 915.93938 825.37952 910.87543 827.61719 907.36719 z " />
  <path
     d="M 581.56837,833.44276 H 622.8189 V 668.4406 h -41.25053 z m 18.55034,-215.87783 q 9.63751,0 16.16885,-6.32508 6.53134,-6.32509 6.53134,-15.67521 0,-9.93451 -6.51896,-16.65491 -6.51965,-6.7204 -16.15644,-6.7204 -9.63751,0 -16.16885,6.7204 -6.53134,6.7204 -6.53134,16.65491 0,9.35012 6.51896,15.67521 6.51965,6.32508 16.15644,6.32508 z m 0.19527,353.37963 q -56.88037,0 -106.90765,-21.65654 -50.0273,-21.65652 -87.49653,-59.12576 -37.46924,-37.46923 -59.12576,-87.5481 -21.65654,-50.07814 -21.65654,-107.01696 0,-56.93881 21.65654,-107.01698 21.65652,-50.07883 59.12576,-87.20431 37.46923,-37.1255 87.5481,-58.78202 50.07814,-21.65654 107.01696,-21.65654 56.93882,0 107.01698,21.65654 50.07883,21.65652 87.20431,58.78202 37.1255,37.12548 58.78203,87.31363 21.65653,50.18817 21.65653,107.06854 0,56.88037 -21.65653,106.90765 -21.65653,50.0273 -58.78203,87.37003 -37.12548,37.34274 -87.31363,59.12577 -50.18816,21.78303 -107.06854,21.78303 z m 0.16088,-41.25054 q 97.28252,0 165.34591,-68.40714 68.0634,-68.40715 68.0634,-165.68968 0,-97.28252 -67.93414,-165.34591 -67.93482,-68.0634 -165.81892,-68.0634 -96.93878,0 -165.34593,67.93414 -68.40714,67.93482 -68.40714,165.81893 0,96.93877 68.40714,165.34592 68.40715,68.40714 165.68968,68.40714 z m -0.34375,-233.75306 z"
     id="path291"
     style="stroke-width:0.687509" />
</svg>
