<?xml version="1.0" encoding="UTF-8" standalone="no"?>
<svg
   xmlns:dc="http://purl.org/dc/elements/1.1/"
   xmlns:cc="http://creativecommons.org/ns#"
   xmlns:rdf="http://www.w3.org/1999/02/22-rdf-syntax-ns#"
   xmlns:svg="http://www.w3.org/2000/svg"
   xmlns="http://www.w3.org/2000/svg"
   xmlns:sodipodi="http://sodipodi.sourceforge.net/DTD/sodipodi-0.dtd"
   xmlns:inkscape="http://www.inkscape.org/namespaces/inkscape"
   version="1.1"
   width="24"
   height="24"
   viewBox="0 0 24 24"
   id="svg4"
   sodipodi:docname="food-cog.svg"
   inkscape:version="1.0.1 (3bc2e813f5, 2020-09-07)">
  <metadata
     id="metadata10">
    <rdf:RDF>
      <cc:Work
         rdf:about="">
        <dc:format>image/svg+xml</dc:format>
        <dc:type
           rdf:resource="http://purl.org/dc/dcmitype/StillImage" />
        <dc:title></dc:title>
      </cc:Work>
    </rdf:RDF>
  </metadata>
  <defs
     id="defs8" />
  <sodipodi:namedview
     pagecolor="#ffffff"
     bordercolor="#666666"
     borderopacity="1"
     objecttolerance="10"
     gridtolerance="10"
     guidetolerance="10"
     inkscape:pageopacity="0"
     inkscape:pageshadow="2"
     inkscape:window-width="1848"
     inkscape:window-height="1022"
     id="namedview6"
     showgrid="true"
     inkscape:zoom="18.25"
     inkscape:cx="12"
     inkscape:cy="12"
     inkscape:window-x="72"
     inkscape:window-y="21"
     inkscape:window-maximized="1"
     inkscape:current-layer="svg4">
    <inkscape:grid
       type="xygrid"
       id="grid835" />
  </sodipodi:namedview>
  <path
     id="path2"
     d="M 3 3 C 2.45 3 2 3.45 2 4 L 2 8 L 2 9.5 C 2 11.19 3.03 12.630703 4.5 13.220703 L 4.5 19.5 C 4.5 20.33 5.17 21 6 21 C 6.83 21 7.5 20.33 7.5 19.5 L 7.5 13.220703 C 8.97 12.630703 10 11.19 10 9.5 L 10 8 L 10 4 C 10 3.45 9.55 3 9 3 C 8.45 3 8 3.45 8 4 L 8 8 C 8 8.28 7.78 8.5 7.5 8.5 C 7.22 8.5 7 8.28 7 8 L 7 4 C 7 3.45 6.55 3 6 3 C 5.45 3 5 3.45 5 4 L 5 8 C 5 8.28 4.78 8.5 4.5 8.5 C 4.22 8.5 4 8.28 4 8 L 4 4 C 4 3.45 3.55 3 3 3 z M 16.130859 8 C 16.010855 8 15.922344 8.07945 15.902344 8.1894531 L 15.742188 9.3808594 L 14.972656 9.8203125 L 13.841797 9.3691406 C 13.751797 9.3291406 13.642033 9.3707401 13.582031 9.4707031 L 12.681641 11.029297 C 12.621641 11.129297 12.652422 11.250313 12.732422 11.320312 L 13.681641 12.060547 L 13.652344 12.5 L 13.681641 12.939453 L 12.732422 13.679688 C 12.652422 13.749688 12.621636 13.870703 12.681641 13.970703 L 13.582031 15.529297 C 13.642031 15.629297 13.751794 15.670859 13.841797 15.630859 L 14.982422 15.179688 L 15.742188 15.619141 L 15.902344 16.810547 C 15.922344 16.920547 16.010855 17 16.130859 17 L 17.931641 17 C 18.041645 17 18.132343 16.92055 18.152344 16.810547 L 18.341797 15.619141 L 19.082031 15.179688 L 20.201172 15.630859 C 20.301175 15.670859 20.422655 15.629259 20.472656 15.529297 L 21.371094 13.970703 C 21.431094 13.870703 21.411797 13.749687 21.341797 13.679688 L 20.371094 12.939453 L 20.402344 12.5 L 20.371094 12.060547 L 21.341797 11.320312 C 21.411797 11.250312 21.431094 11.129297 21.371094 11.029297 L 20.472656 9.4707031 C 20.422656 9.3707031 20.301175 9.3291406 20.201172 9.3691406 L 19.082031 9.8203125 L 18.341797 9.3808594 L 18.152344 8.1894531 C 18.132344 8.079453 18.041645 8 17.931641 8 L 16.130859 8 z M 17.03125 10.919922 C 17.901282 10.919922 18.601563 11.630001 18.601562 12.5 C 18.601562 13.37 17.901282 14.070313 17.03125 14.070312 C 16.161218 14.070312 15.451172 13.37 15.451172 12.5 C 15.451172 11.630001 16.161218 10.919922 17.03125 10.919922 z " />
  <path
     inkscape:connector-curvature="0"
     d="M 0,0 H 24 V 24 H 0 Z"
     id="path2"
     fill="none" />

</svg>
