<?xml version="1.0" encoding="UTF-8" standalone="no"?>
<svg
   aria-hidden="true"
   role="img"
   width="24"
   height="24"
   preserveAspectRatio="xMidYMid meet"
   viewBox="0 0 24 24"
   version="1.1"
   id="svg60"
   sodipodi:docname="off-magnifying-glass.svg"
   inkscape:version="1.2 (1:1.2+202205241504+da316b6974)"
   xmlns:inkscape="http://www.inkscape.org/namespaces/inkscape"
   xmlns:sodipodi="http://sodipodi.sourceforge.net/DTD/sodipodi-0.dtd"
   xmlns="http://www.w3.org/2000/svg"
   xmlns:svg="http://www.w3.org/2000/svg">
  <defs
     id="defs64" />
  <sodipodi:namedview
     id="namedview62"
     pagecolor="#ffffff"
     bordercolor="#666666"
     borderopacity="1.0"
     inkscape:showpageshadow="2"
     inkscape:pageopacity="0.0"
     inkscape:pagecheckerboard="0"
     inkscape:deskcolor="#d1d1d1"
     showgrid="true"
     inkscape:zoom="30.258278"
     inkscape:cx="12.029766"
     inkscape:cy="12.376778"
     inkscape:window-width="2560"
     inkscape:window-height="1440"
     inkscape:window-x="0"
     inkscape:window-y="-37"
     inkscape:window-maximized="1"
     inkscape:current-layer="svg60">
    <inkscape:grid
       type="xygrid"
       id="grid66" />
  </sodipodi:namedview>
  <path
     id="path1403"
     d="m 12,4 a 7.9999999,7.9999999 0 0 0 -8,8 7.9999999,7.9999999 0 0 0 8,8 7.9999999,7.9999999 0 0 0 8,-8 7.9999999,7.9999999 0 0 0 -8,-8 z m 0,2.027687 A 5.9723126,5.9723126 0 0 1 17.972313,12 5.9723126,5.9723126 0 0 1 12,17.972313 5.9723126,5.9723126 0 0 1 6.027687,12 5.9723126,5.9723126 0 0 1 12,6.027687 Z" />
  <path
     d="M 6.634267,22.357361 8.630969,23.19401 10.068113,19.763234 8.059642,18.955498 Z"
     id="path719" />
</svg>
