<?xml version="1.0" encoding="UTF-8" standalone="no"?>
<svg
   xmlns:dc="http://purl.org/dc/elements/1.1/"
   xmlns:cc="http://creativecommons.org/ns#"
   xmlns:rdf="http://www.w3.org/1999/02/22-rdf-syntax-ns#"
   xmlns:svg="http://www.w3.org/2000/svg"
   xmlns="http://www.w3.org/2000/svg"
   xmlns:sodipodi="http://sodipodi.sourceforge.net/DTD/sodipodi-0.dtd"
   xmlns:inkscape="http://www.inkscape.org/namespaces/inkscape"
   width="24"
   height="24"
   viewBox="0 0 24 24"
   version="1.1"
   id="svg6"
   sodipodi:docname="palm-oil.svg"
   inkscape:version="1.0.2 (e86c870879, 2021-01-15)">
  <metadata
     id="metadata12">
    <rdf:RDF>
      <cc:Work
         rdf:about="">
        <dc:format>image/svg+xml</dc:format>
        <dc:type
           rdf:resource="http://purl.org/dc/dcmitype/StillImage" />
        <dc:title></dc:title>
      </cc:Work>
    </rdf:RDF>
  </metadata>
  <defs
     id="defs10" />
  <sodipodi:namedview
     pagecolor="#ffffff"
     bordercolor="#666666"
     borderopacity="1"
     objecttolerance="10"
     gridtolerance="10"
     guidetolerance="10"
     inkscape:pageopacity="0"
     inkscape:pageshadow="2"
     inkscape:window-width="2488"
     inkscape:window-height="1376"
     id="namedview8"
     showgrid="true"
     inkscape:snap-global="true"
     inkscape:snap-to-guides="false"
     inkscape:snap-grids="true"
     inkscape:zoom="27.812866"
     inkscape:cx="6.2613239"
     inkscape:cy="9.1601285"
     inkscape:window-x="72"
     inkscape:window-y="27"
     inkscape:window-maximized="1"
     inkscape:current-layer="svg6"
     inkscape:document-rotation="0">
    <inkscape:grid
       type="xygrid"
       id="grid822" />
  </sodipodi:namedview>
  <path
     inkscape:connector-curvature="0"
     d="M 1e-7,0 H 24 V 24 H 1e-7 Z"
     id="path2"
     fill="none" />
  <path
     id="path9621"
     d="m 15.308179,12.129383 c 0,0 -2.441765,2.703744 -2.441765,4.535195 0,1.346552 1.09521,2.441764 2.441765,2.441766 1.346552,0 2.441765,-1.095214 2.441765,-2.441766 0,-1.831453 -2.441765,-4.535195 -2.441765,-4.535195 z M 14,14.745744 c -0.87212,1.744239 0,3.488478 0.872119,3.924538 C 13.086515,18.127932 12.691821,16.489983 14,14.745744 Z"
     sodipodi:nodetypes="cssscccc" />
  <path
     d="M 8,20 C 8,16 9,10 12,7.5467809 l 1,-0.014451 C 10,10 10,16 10,20 Z"
     id="path1806"
     sodipodi:nodetypes="ccccc" />
  <path
     d="M 6,12 13,7 C 8,7 6,8 6,12 Z"
     id="path1808"
     sodipodi:nodetypes="ccc" />
  <path
     d="M 19,6 12,7.6327763 C 11.223543,4.7349989 16.032872,2.6539348 19,6 Z"
     id="path1810"
     sodipodi:nodetypes="ccc" />
  <path
     d="m 6,5 6.614151,3 C 12.614151,4.4532191 9.4805614,3.2034336 6,5 Z"
     id="path1812"
     sodipodi:nodetypes="ccc" />
  <path
     d="M 13.546781,13 11,7 c 3.546781,0 4.343347,2.5194386 2.546781,6 z"
     id="path1816"
     sodipodi:nodetypes="ccc" />
  <path
     d="M 18,12 11.298406,7.6075009 C 12.798406,5.0094247 18.267949,7.5358989 18,12 Z"
     id="path1818"
     sodipodi:nodetypes="ccc" />
</svg>
