<?xml version="1.0" encoding="UTF-8" standalone="no"?>
<svg
   xmlns:dc="http://purl.org/dc/elements/1.1/"
   xmlns:cc="http://creativecommons.org/ns#"
   xmlns:rdf="http://www.w3.org/1999/02/22-rdf-syntax-ns#"
   xmlns:svg="http://www.w3.org/2000/svg"
   xmlns="http://www.w3.org/2000/svg"
   xmlns:sodipodi="http://sodipodi.sourceforge.net/DTD/sodipodi-0.dtd"
   xmlns:inkscape="http://www.inkscape.org/namespaces/inkscape"
   width="24"
   height="24"
   viewBox="0 0 24 24"
   version="1.1"
   id="svg6"
   sodipodi:docname="processing.svg"
   inkscape:version="1.0.1 (0767f8302a, 2020-10-17)">
  <metadata
     id="metadata12">
    <rdf:RDF>
      <cc:Work
         rdf:about="">
        <dc:format>image/svg+xml</dc:format>
        <dc:type
           rdf:resource="http://purl.org/dc/dcmitype/StillImage" />
        <dc:title></dc:title>
      </cc:Work>
    </rdf:RDF>
  </metadata>
  <defs
     id="defs10" />
  <sodipodi:namedview
     pagecolor="#ffffff"
     bordercolor="#666666"
     borderopacity="1"
     objecttolerance="10"
     gridtolerance="10"
     guidetolerance="10"
     inkscape:pageopacity="0"
     inkscape:pageshadow="2"
     inkscape:window-width="2488"
     inkscape:window-height="1376"
     id="namedview8"
     showgrid="true"
     inkscape:snap-global="true"
     inkscape:snap-to-guides="false"
     inkscape:snap-grids="true"
     inkscape:zoom="6.9532168"
     inkscape:cx="17.52353"
     inkscape:cy="6.7443855"
     inkscape:window-x="72"
     inkscape:window-y="27"
     inkscape:window-maximized="1"
     inkscape:current-layer="svg6"
     inkscape:document-rotation="0">
    <inkscape:grid
       type="xygrid"
       id="grid822" />
  </sodipodi:namedview>
  <path
     inkscape:connector-curvature="0"
     d="M 0,0 H 24 V 24 H 0 Z"
     id="path2"
     fill="none" />
  <g
     id="g1618">
    <g
       id="g2463"
       transform="translate(-3,2)"
       >
      <path
         d="m 5,5 c 0,4 1,5 5,5 C 10,7 8,5 5,5 Z"
         id="path2352"
         sodipodi:nodetypes="ccc" />
      <path
         d="m 5,10 c 0,4 1,5 5,5 0,-3 -2,-5 -5,-5 z"
         id="path2442"
         sodipodi:nodetypes="ccc" />
      <path
         d="m 5,15 c 0,4 1,5 5,5 0,-3 -2,-5 -5,-5 z"
         id="path2444"
         sodipodi:nodetypes="ccc" />
      <path
         d="m 15,5 c 0,4 -1,5 -5,5 0,-3 2,-5 5,-5 z"
         id="path2446"
         sodipodi:nodetypes="ccc" />
      <path
         d="m 15,10 c 0,4 -1,5 -5,5 0,-3 2,-5 5,-5 z"
         id="path2448"
         sodipodi:nodetypes="ccc" />
      <path
         d="m 15,15 c 0,4 -1,5 -5,5 0,-3 2,-5 5,-5 z"
         id="path2450"
         sodipodi:nodetypes="ccc" />
      <path
         d="M 10,0 C 7.87868,2.1213203 7.87868,4.9497475 10,7.0710679 12.12132,4.9497475 12.12132,2.1213203 10,0 Z"
         id="path2454"
         sodipodi:nodetypes="ccc" />
    </g>
    <path
       id="rect891"
       d="M 17 3 C 14.784 3 13 4.784 13 7 L 13 18 C 13 20.216 14.784 22 17 22 L 18 22 C 20.216 22 22 20.216 22 18 L 22 7 C 22 4.784 20.216 3 18 3 L 17 3 z M 20.078125 5.2207031 C 20.237857 5.2006895 20.402476 5.2752091 20.488281 5.4238281 L 20.574219 5.5761719 C 20.688626 5.7743306 20.621987 6.0242649 20.423828 6.1386719 L 15.076172 9.2265625 C 14.878013 9.3409694 14.626126 9.2743306 14.511719 9.0761719 L 14.425781 8.9238281 C 14.311374 8.7256694 14.378013 8.475735 14.576172 8.3613281 L 19.923828 5.2734375 C 19.973368 5.2448358 20.024881 5.2273743 20.078125 5.2207031 z M 20.078125 10.470703 C 20.237858 10.45069 20.402476 10.525209 20.488281 10.673828 L 20.574219 10.826172 C 20.688626 11.024331 20.621987 11.274265 20.423828 11.388672 L 15.076172 14.476562 C 14.878013 14.59097 14.626126 14.524331 14.511719 14.326172 L 14.425781 14.173828 C 14.311374 13.975669 14.378013 13.725735 14.576172 13.611328 L 19.923828 10.523438 C 19.973368 10.494836 20.024881 10.477374 20.078125 10.470703 z M 20.078125 15.720703 C 20.237858 15.70069 20.402476 15.77521 20.488281 15.923828 L 20.574219 16.076172 C 20.688626 16.274331 20.621987 16.524265 20.423828 16.638672 L 15.076172 19.726562 C 14.878013 19.840969 14.626126 19.774331 14.511719 19.576172 L 14.425781 19.423828 C 14.311375 19.22567 14.378013 18.975735 14.576172 18.861328 L 19.923828 15.773438 C 19.973368 15.744835 20.024881 15.727374 20.078125 15.720703 z " />
  </g>
</svg>
