<svg height="94.800003pt" viewBox="0 0 110.76028 126.4" width="83.07pt" xmlns="http://www.w3.org/2000/svg"><path d="m0 0c-.704-10.351-9.318-18.531-19.848-18.531-10.451 0-19.016 8.061-19.829 18.304-.042.527-.069 1.057-.069 1.594 0 10.992 8.91 19.9 19.898 19.9 10.991 0 19.9-8.908 19.9-19.9 0-.459-.022-.915-.052-1.367m15.633 13.334c-.241.279-.55.586-.914.901-.452.418-1.002.825-1.642 1.218-.218.137-.427.258-.628.366-5.904 3.265-18.138 5.513-32.298 5.533-14.161-.02-26.394-2.268-32.3-5.533-.2-.108-.41-.229-.627-.366-.639-.393-1.19-.8-1.642-1.218-.364-.315-.673-.622-.914-.901-3.345-3.505 1.512-17.413 11.259-31.865 8.971-13.3 19.143-22.577 24.224-22.578 5.08.001 15.252 9.278 24.223 22.578 9.747 14.452 14.605 28.36 11.259 31.865" transform="matrix(1.3333 0 0 -1.3333 81.8452 35.13556)"/><path d="m0 0c0-5.495 4.453-9.948 9.947-9.948 5.498 0 9.952 4.453 9.952 9.948 0 5.496-4.454 9.952-9.952 9.952-5.494 0-9.947-4.456-9.947-9.952" transform="matrix(1.3333 0 0 -1.3333 42.1452 19.93556)"/><path d="m0 0h-1.517c.25.883.61 2.246.782 3.082.156-.836.5-2.214.735-3.082m3.317-3.299-2.91 8.348h-2.128l-3.097-8.348h2.206l.594 1.766h2.487l.642-1.766zm-7.947 8.317h-6.821v-1.641h2.175v-6.676h2.143v6.676h2.097zm-7.509-8.317-3.145 4.476 2.691 3.841h-2.581l-2.347-3.733v3.733h-2.143v-8.317h2.143v4.306l2.597-4.306zm-12.5 3.299h-1.518c.251.883.611 2.246.783 3.082.156-.836.5-2.214.735-3.082m3.317-3.299-2.91 8.348h-2.128l-3.098-8.348h2.207l.594 1.766h2.487l.642-1.766zm-8.303 8.317h-5.037v-8.317h2.081v3.485h2.143v1.626h-2.143v1.627h2.706zm-7.603-8.317v1.688h-3.316v1.843h2.44v1.627h-2.456v1.549h2.941l.297 1.61h-5.334v-8.317zm-10.169 5.793c0-.666-.36-.961-1.502-.961h-.688v1.952h.72c1.142 0 1.47-.325 1.47-.991m2.785-5.793c-.219.372-1.753 2.85-2.315 3.485.875.186 1.705 1.146 1.705 2.308 0 .681-.203 1.285-.751 1.827-.548.543-1.486.697-2.394.697h-3.254v-8.317h2.05v3.346h.14c.251 0 .423-.263 1.44-1.952.344-.588.516-.836.891-1.394zm-11.984 3.299h-1.517c.25.883.61 2.246.782 3.082.157-.836.5-2.214.735-3.082m3.317-3.299-2.91 8.348h-2.128l-3.097-8.348h2.206l.594 1.766h2.488l.641-1.766zm-12.312 2.958c-.125.512-.329 1.147-.532 1.72l-1.314 3.639h-2.284l3.223-8.363h1.798l3.302 8.363h-2.191l-1.455-3.608c-.234-.589-.391-1.193-.547-1.751" transform="matrix(1.3333 0 0 -1.3333 99.6452 102.54556)"/><path d="m0 0-2.579-3.427 2.751-3.96h-1.612l-2.503 3.939 2.417 3.448zm-5.211 0h1.257v-7.387h-1.257z" transform="matrix(1.3333 0 0 -1.3333 14.8452 109.72556)"/><path d="m0 0c0 1.804-.376 2.935-1.708 2.935-1.247 0-1.72-1.003-1.72-2.775 0-1.9.484-2.957 1.752-2.957 1.106 0 1.676.811 1.676 2.797m-4.803.086c0 2.433 1.246 3.8 3.105 3.8 2.096 0 3.106-1.655 3.106-3.811 0-2.306-1.118-3.801-3.052-3.801-2.117 0-3.159 1.623-3.159 3.812" transform="matrix(1.3333 0 0 -1.3333 21.9452 114.76556)"/><path d="m0 0-1.666 3.469c-.397.822-.805 1.751-.945 2.189l-.032-.032c.053-.619.064-1.399.075-2.05l.043-3.576h-1.215v7.387h1.397l1.806-3.608c.344-.683.666-1.559.763-1.9l.032.032c-.032.373-.107 1.43-.107 2.103l-.022 3.373h1.171v-7.387z" transform="matrix(1.3333 0 0 -1.3333 30.6452 119.57556)"/><path d="m0 0h-1.87v-6.362h-1.236v6.362h-1.88v1.025h5.147z" transform="matrix(1.3333 0 0 -1.3333 40.5452 111.08556)"/><path d="m0 0v-2.338h.634c.645 0 .989.085 1.214.31.204.202.333.512.333.896 0 .748-.408 1.132-1.504 1.132zm2.396-6.394-.644 1.142c-.516.907-.86 1.42-1.268 1.825-.14.139-.247.214-.484.224v-3.191h-1.214v7.387h2.267c1.666 0 2.418-.961 2.418-2.114 0-1.142-.731-2.028-1.848-2.028.268-.139.762-.854 1.149-1.473l1.096-1.772z" transform="matrix(1.3333 0 0 -1.3333 43.8452 111.04556)"/><path d="m0 0c0 1.804-.376 2.935-1.708 2.935-1.247 0-1.72-1.003-1.72-2.775 0-1.9.484-2.957 1.752-2.957 1.106 0 1.676.811 1.676 2.797m-4.803.086c0 2.433 1.246 3.8 3.105 3.8 2.096 0 3.106-1.655 3.106-3.811 0-2.306-1.118-3.801-3.052-3.801-2.117 0-3.159 1.623-3.159 3.812" transform="matrix(1.3333 0 0 -1.3333 56.3452 114.76556)"/><path d="m0 0h-3.804v7.387h1.257v-6.373h2.751z" transform="matrix(1.3333 0 0 -1.3333 65.2452 119.57556)"/><path d="m0 0h-3.804v7.387h1.257v-6.373h2.751z" transform="matrix(1.3333 0 0 -1.3333 71.9452 119.57556)"/><path d="m0 0v7.387h4.126l-.161-1.004h-2.729v-2.017h2.288v-1.014h-2.267v-2.306h2.977v-1.046z" transform="matrix(1.3333 0 0 -1.3333 73.6452 119.57556)"/><path d="m0 0v-2.338h.634c.645 0 .989.085 1.214.31.204.202.333.512.333.896 0 .748-.408 1.132-1.504 1.132zm2.396-6.394-.644 1.142c-.516.907-.86 1.42-1.268 1.825-.14.139-.247.214-.484.224v-3.191h-1.214v7.387h2.267c1.666 0 2.418-.961 2.418-2.114 0-1.142-.731-2.028-1.848-2.028.268-.139.763-.854 1.15-1.473l1.096-1.772z" transform="matrix(1.3333 0 0 -1.3333 83.0452 111.04556)"/><path d="m0 0v7.387h4.126l-.161-1.004h-2.729v-2.017h2.288v-1.014h-2.267v-2.306h2.977v-1.046z" transform="matrix(1.3333 0 0 -1.3333 90.0452 119.57556)"/><path d="m0 0h-1.87v-6.362h-1.235v6.362h-1.881v1.025h5.147z" transform="matrix(1.3333 0 0 -1.3333 103.2452 111.08556)"/></svg>