<svg width="670" height="363" viewBox="0 0 670 363" fill="none" xmlns="http://www.w3.org/2000/svg">
<path d="M129.860 68.000 146.240 19.575H159.630L176.010 68.000H165.025L161.775 58.120H144.030L140.780 68.000ZM146.825 49.345H158.980L152.935 30.690ZM180.300 68.000V18.795H190.050V68.000ZM197.200 29.325V19.575H206.950V29.325ZM197.200 68.000V32.510H206.950V68.000ZM231.520 82.300Q227.425 82.300 223.915 80.935Q220.405 79.570 217.903 77.132Q215.400 74.695 214.295 71.380L223.330 68.195Q224.045 70.665 226.255 72.095Q228.465 73.525 231.520 73.525Q235.160 73.525 237.240 71.543Q239.320 69.560 239.320 66.115V62.735Q235.810 66.245 229.830 66.245Q224.890 66.245 220.990 64.002Q217.090 61.760 214.880 57.828Q212.670 53.895 212.670 48.890Q212.670 43.885 214.880 40.017Q217.090 36.150 220.925 33.940Q224.760 31.730 229.635 31.730Q236.200 31.730 239.970 36.215V32.510H249.070V66.115Q249.070 70.795 246.795 74.468Q244.520 78.140 240.588 80.220Q236.655 82.300 231.520 82.300ZM231.195 57.405Q234.835 57.405 237.078 55.097Q239.320 52.790 239.320 49.020Q239.320 45.185 237.078 42.845Q234.835 40.505 231.195 40.505Q227.490 40.505 225.118 42.877Q222.745 45.250 222.745 49.020Q222.745 52.725 225.118 55.065Q227.490 57.405 231.195 57.405ZM218.195 26.400 225.735 15.350H237.370L244.975 26.400H235.615L231.585 20.550L227.555 26.400ZM268.960 68.780Q262.460 68.780 258.983 64.718Q255.505 60.655 255.505 54.025V32.510H265.255V53.245Q265.255 56.300 267.075 58.153Q268.895 60.005 271.755 60.005Q274.615 60.005 276.435 58.153Q278.255 56.300 278.255 53.245V32.510H288.005V68.000H278.905V63.645Q277.540 66.245 274.940 67.513Q272.340 68.780 268.960 68.780ZM317.840 68.780Q312.120 68.780 308.773 66.050Q305.425 63.320 305.425 58.510Q305.425 54.025 308.545 51.100Q311.665 48.175 318.035 47.135L327.850 45.575V44.600Q327.850 42.585 326.258 41.220Q324.665 39.855 321.935 39.855Q319.335 39.855 317.353 41.285Q315.370 42.715 314.460 45.055L306.660 41.350Q308.220 36.930 312.478 34.330Q316.735 31.730 322.390 31.730Q326.875 31.730 330.320 33.355Q333.765 34.980 335.683 37.873Q337.600 40.765 337.600 44.600V68.000H328.500V64.685Q324.470 68.780 317.840 68.780ZM315.500 58.185Q315.500 59.810 316.735 60.720Q317.970 61.630 319.790 61.630Q323.430 61.630 325.640 59.355Q327.850 57.080 327.850 53.830V52.725L319.790 54.155Q317.710 54.545 316.605 55.487Q315.500 56.430 315.500 58.185ZM344.750 68.000V18.795H354.500V68.000ZM373.350 68.000V18.795H383.100V68.000ZM401.235 68.780Q395.515 68.780 392.168 66.050Q388.820 63.320 388.820 58.510Q388.820 54.025 391.940 51.100Q395.060 48.175 401.430 47.135L411.245 45.575V44.600Q411.245 42.585 409.653 41.220Q408.060 39.855 405.330 39.855Q402.730 39.855 400.748 41.285Q398.765 42.715 397.855 45.055L390.055 41.350Q391.615 36.930 395.873 34.330Q400.130 31.730 405.785 31.730Q410.270 31.730 413.715 33.355Q417.160 34.980 419.078 37.873Q420.995 40.765 420.995 44.600V68.000H411.895V64.685Q407.865 68.780 401.235 68.780ZM398.895 58.185Q398.895 59.810 400.130 60.720Q401.365 61.630 403.185 61.630Q406.825 61.630 409.035 59.355Q411.245 57.080 411.245 53.830V52.725L403.185 54.155Q401.105 54.545 400.000 55.487Q398.895 56.430 398.895 58.185Z" fill="black"/>
<rect x="100.000" y="191.590" width="561.190" height="107.832" rx="15" transform="rotate(5 100.000 191.590)" fill="#00B2FF"/>
<path d="M123.138 278.337 128.657 215.253 152.790 217.364Q159.310 217.934 164.148 220.661Q168.986 223.389 171.472 228.128Q173.959 232.868 173.381 239.473Q172.818 245.908 169.458 250.179Q166.098 254.450 160.902 256.299L173.097 282.708L158.363 281.418L147.577 257.437L138.263 256.622L136.262 279.485ZM139.263 245.191 150.355 246.161Q154.505 246.524 157.210 244.372Q159.915 242.220 160.256 238.325Q160.604 234.345 158.314 231.755Q156.023 229.166 151.874 228.803L140.781 227.832ZM179.617 283.278 185.136 220.194 227.559 223.905 226.559 235.337 197.261 232.774 196.009 247.084 223.613 249.499 222.613 260.930 195.009 258.515 193.742 272.995 223.040 275.558 222.040 286.989ZM246.427 289.123 230.353 224.150 244.748 225.409 255.529 272.854 274.385 228.002 288.780 229.262 261.668 290.457ZM319.583 296.547Q312.470 295.925 306.588 292.936Q300.706 289.947 296.565 285.105Q292.424 280.263 290.402 274.114Q288.380 267.964 288.988 261.021Q289.595 254.077 292.612 248.368Q295.628 242.659 300.544 238.653Q305.459 234.646 311.771 232.724Q318.082 230.801 325.280 231.431Q332.477 232.061 338.359 235.050Q344.241 238.039 348.386 242.838Q352.531 247.638 354.510 253.784Q356.490 259.930 355.882 266.873Q355.275 273.817 352.216 279.522Q349.157 285.227 344.238 289.276Q339.319 293.325 333.007 295.247Q326.696 297.170 319.583 296.547ZM320.620 284.693Q326.378 285.196 331.226 282.933Q336.075 280.669 339.149 276.245Q342.224 271.822 342.757 265.725Q343.291 259.628 341.031 254.738Q338.771 249.847 334.386 246.818Q330.001 243.790 324.243 243.286Q318.485 242.782 313.640 245.003Q308.796 247.224 305.721 251.648Q302.646 256.072 302.113 262.169Q301.579 268.266 303.839 273.156Q306.099 278.047 310.481 281.118Q314.862 284.189 320.620 284.693ZM362.434 299.272 367.953 236.188 381.078 237.337 376.558 288.989 403.232 291.323 402.231 302.754ZM432.033 306.385Q424.582 305.734 419.013 302.089Q413.445 298.445 410.578 292.691Q407.711 286.937 408.318 279.993L411.815 240.026L424.940 241.174L421.517 280.295Q421.191 284.020 422.580 287.171Q423.968 290.321 426.699 292.267Q429.429 294.212 433.071 294.531Q436.796 294.857 439.781 293.411Q442.766 291.966 444.680 289.104Q446.594 286.243 446.920 282.517L450.343 243.397L463.468 244.545L459.971 284.512Q459.364 291.456 455.541 296.625Q451.719 301.794 445.602 304.416Q439.485 307.037 432.033 306.385ZM498.250 312.179Q491.476 311.586 485.891 308.623Q480.305 305.660 476.372 300.879Q472.439 296.098 470.544 289.959Q468.649 283.821 469.264 276.793Q469.879 269.765 472.772 264.002Q475.666 258.240 480.366 254.257Q485.066 250.274 491.077 248.368Q497.089 246.462 503.947 247.062Q510.806 247.662 516.068 250.427Q521.329 253.191 524.807 257.335Q528.284 261.478 529.485 266.276L517.395 270.850Q516.187 266.137 512.427 262.779Q508.668 259.421 502.910 258.917Q497.322 258.428 492.858 260.683Q488.395 262.937 485.662 267.348Q482.930 271.760 482.389 277.941Q481.848 284.122 483.769 288.983Q485.691 293.844 489.695 296.840Q493.699 299.835 499.288 300.324Q505.046 300.828 509.331 298.174Q513.616 295.519 515.625 291.088L526.737 297.691Q524.720 302.208 520.576 305.685Q516.433 309.162 510.771 310.970Q505.109 312.779 498.250 312.179ZM533.734 314.259 539.253 251.175 552.378 252.323 546.859 315.407ZM589.532 320.165Q582.419 319.542 576.537 316.553Q570.655 313.564 566.514 308.723Q562.373 303.881 560.351 297.731Q558.329 291.582 558.937 284.638Q559.544 277.695 562.561 271.986Q565.577 266.277 570.493 262.270Q575.408 258.263 581.720 256.341Q588.031 254.419 595.229 255.049Q602.426 255.678 608.308 258.667Q614.190 261.656 618.335 266.456Q622.480 271.255 624.459 277.401Q626.439 283.547 625.831 290.491Q625.224 297.434 622.165 303.139Q619.106 308.844 614.187 312.893Q609.268 316.943 602.956 318.865Q596.645 320.787 589.532 320.165ZM590.569 308.310Q596.327 308.814 601.175 306.550Q606.023 304.287 609.098 299.863Q612.173 295.439 612.706 289.342Q613.240 283.246 610.980 278.355Q608.720 273.464 604.335 270.436Q599.950 267.407 594.192 266.903Q588.434 266.399 583.589 268.621Q578.745 270.842 575.670 275.266Q572.595 279.690 572.062 285.786Q571.528 291.883 573.788 296.774Q576.048 301.664 580.429 304.735Q584.811 307.806 590.569 308.310Z" fill="white"/>
<rect x="10.000" y="122.922" width="476.700" height="107.832" rx="15" transform="rotate(-5 10.000 122.922)" fill="#FF8714"/>
<path d="M47.849 204.333 42.330 141.249 55.032 140.138 78.001 165.688 95.677 136.582 108.378 135.471 113.897 198.555 100.772 199.703 97.216 159.058 80.313 185.281 78.619 185.429 57.337 161.609 60.974 203.185ZM120.417 197.984 136.237 133.033 153.680 131.507 180.538 192.724 166.227 193.976 160.867 181.476 137.751 183.498 134.643 196.740ZM140.392 171.748 156.226 170.363 146.225 146.750ZM187.058 192.154 181.539 129.070 191.615 128.188 223.348 163.211 220.066 125.699 233.191 124.551 238.710 187.635 228.549 188.524 196.827 152.647 200.183 191.006ZM280.291 185.021Q273.517 185.614 267.459 183.669Q261.402 181.725 256.613 177.707Q251.825 173.689 248.851 167.976Q245.876 162.264 245.262 155.236Q244.647 148.207 246.495 142.030Q248.344 135.853 252.281 131.114Q256.218 126.376 261.807 123.455Q267.396 120.534 274.255 119.934Q281.114 119.334 286.776 121.143Q292.437 122.951 296.581 126.428Q300.725 129.905 302.741 134.422L291.629 141.025Q289.621 136.593 285.335 133.939Q281.050 131.285 275.292 131.789Q269.704 132.278 265.700 135.273Q261.695 138.269 259.770 143.087Q257.846 147.906 258.386 154.087Q258.927 160.269 261.790 164.711Q264.653 169.153 269.159 171.404Q273.665 173.655 279.254 173.166Q283.572 172.788 287.196 170.808Q290.819 168.827 292.874 165.490Q294.928 162.153 294.543 157.750L294.528 157.581L277.678 159.055L276.715 148.047L306.690 145.424L307.275 152.114Q307.950 159.819 305.909 165.757Q303.869 171.695 299.923 175.837Q295.976 179.980 290.843 182.263Q285.710 184.547 280.291 185.021ZM254.680 114.650 263.243 99.396 278.400 98.070 289.567 111.598 277.373 112.665 271.457 105.503 266.874 113.583ZM312.464 181.182 328.283 116.231 345.726 114.705 372.584 175.922 358.274 177.174 352.914 164.674 329.797 166.696 326.689 179.938ZM332.438 154.947 348.273 153.561 338.272 129.948ZM376.310 175.596 375.273 163.742 379.083 163.408Q382.894 163.075 385.033 160.712Q387.173 158.349 386.862 154.793L383.069 111.438L396.194 110.290L399.935 153.052Q400.468 159.148 398.243 163.950Q396.018 168.753 391.372 171.719Q386.725 174.685 380.120 175.263ZM371.534 104.427 380.097 89.173 395.254 87.846 406.421 101.375 394.227 102.441 388.310 95.280 383.727 103.360ZM406.285 172.974 422.105 108.023 439.548 106.497 466.406 167.714 452.095 168.966 446.735 156.466 423.619 158.488 420.511 171.729ZM426.260 146.738 442.094 145.353 432.093 121.740Z" fill="white"/>
</svg>
