<svg width="689" height="377" viewBox="0 0 689 377" fill="none" xmlns="http://www.w3.org/2000/svg">
<path d="M117.056 68V19.575H135.061C138.354 19.575 141.258 20.1817 143.771 21.395C146.328 22.565 148.321 24.2983 149.751 26.595C151.181 28.8483 151.896 31.6 151.896 34.85C151.896 38.1867 151.094 41.025 149.491 43.365C147.931 45.705 145.808 47.4383 143.121 48.565L154.236 68H144.226L132.331 46.745L138.051 50.125H125.896V68H117.056ZM125.896 42.325H135.191C136.794 42.325 138.181 42.0217 139.351 41.415C140.521 40.765 141.431 39.8767 142.081 38.75C142.731 37.6233 143.056 36.3233 143.056 34.85C143.056 33.3333 142.731 32.0333 142.081 30.95C141.431 29.8233 140.521 28.9567 139.351 28.35C138.181 27.7 136.794 27.375 135.191 27.375H125.896V42.325ZM174.117 68.78C170.477 68.78 167.292 67.9567 164.562 66.31C161.832 64.6633 159.709 62.4317 158.192 59.615C156.675 56.7983 155.917 53.6783 155.917 50.255C155.917 46.7017 156.675 43.56 158.192 40.83C159.752 38.0567 161.854 35.8683 164.497 34.265C167.184 32.6617 170.174 31.86 173.467 31.86C176.24 31.86 178.667 32.315 180.747 33.225C182.87 34.135 184.669 35.3917 186.142 36.995C187.615 38.5983 188.742 40.44 189.522 42.52C190.302 44.5567 190.692 46.7667 190.692 49.15C190.692 49.7567 190.649 50.385 190.562 51.035C190.519 51.685 190.41 52.2483 190.237 52.725H162.937V46.225H185.427L181.397 49.28C181.787 47.2867 181.679 45.51 181.072 43.95C180.509 42.39 179.555 41.155 178.212 40.245C176.912 39.335 175.33 38.88 173.467 38.88C171.69 38.88 170.109 39.335 168.722 40.245C167.335 41.1117 166.274 42.4117 165.537 44.145C164.844 45.835 164.584 47.8933 164.757 50.32C164.584 52.4867 164.865 54.415 165.602 56.105C166.382 57.7517 167.509 59.03 168.982 59.94C170.499 60.85 172.232 61.305 174.182 61.305C176.132 61.305 177.779 60.8933 179.122 60.07C180.509 59.2467 181.592 58.1417 182.372 56.755L189.262 60.135C188.569 61.825 187.485 63.32 186.012 64.62C184.539 65.92 182.784 66.9383 180.747 67.675C178.754 68.4117 176.544 68.78 174.117 68.78ZM192.272 82.365C191.708 82.365 191.123 82.3433 190.517 82.3C189.91 82.2567 189.412 82.1917 189.022 82.105V74.695C189.802 74.825 190.582 74.89 191.362 74.89C193.182 74.89 194.59 74.4567 195.587 73.59C196.627 72.7667 197.147 71.4883 197.147 69.755V32.64H205.662V69.755C205.662 72.4417 205.12 74.7167 204.037 76.58C202.953 78.4867 201.393 79.9167 199.357 80.87C197.363 81.8667 195.002 82.365 192.272 82.365ZM197.147 28.675V19.575H205.662V28.675H197.147ZM230.814 68.78C227.347 68.78 224.184 67.9783 221.324 66.375C218.507 64.7717 216.254 62.5833 214.564 59.81C212.917 57.0367 212.094 53.8733 212.094 50.32C212.094 46.7667 212.917 43.6033 214.564 40.83C216.254 38.0567 218.507 35.8683 221.324 34.265C224.14 32.6617 227.304 31.86 230.814 31.86C234.28 31.86 237.422 32.6617 240.239 34.265C243.055 35.8683 245.287 38.0567 246.934 40.83C248.624 43.56 249.469 46.7233 249.469 50.32C249.469 53.8733 248.624 57.0367 246.934 59.81C245.244 62.5833 242.99 64.7717 240.174 66.375C237.357 67.9783 234.237 68.78 230.814 68.78ZM230.814 60.98C232.72 60.98 234.389 60.525 235.819 59.615C237.292 58.705 238.44 57.4483 239.264 55.845C240.13 54.1983 240.564 52.3567 240.564 50.32C240.564 48.24 240.13 46.42 239.264 44.86C238.44 43.2567 237.292 42 235.819 41.09C234.389 40.1367 232.72 39.66 230.814 39.66C228.864 39.66 227.152 40.1367 225.679 41.09C224.205 42 223.035 43.2567 222.169 44.86C221.345 46.42 220.934 48.24 220.934 50.32C220.934 52.3567 221.345 54.1983 222.169 55.845C223.035 57.4483 224.205 58.705 225.679 59.615C227.152 60.525 228.864 60.98 230.814 60.98ZM255.926 68V32.64H264.441V68H255.926ZM255.926 28.675V19.575H264.441V28.675H255.926ZM289.463 82.3C286.82 82.3 284.371 81.8667 282.118 81C279.865 80.1333 277.915 78.92 276.268 77.36C274.665 75.8433 273.495 74.045 272.758 71.965L280.688 68.975C281.208 70.6217 282.226 71.9433 283.743 72.94C285.303 73.98 287.21 74.5 289.463 74.5C291.196 74.5 292.713 74.175 294.013 73.525C295.356 72.875 296.396 71.9217 297.133 70.665C297.87 69.4517 298.238 67.9783 298.238 66.245V58.185L299.863 60.135C298.65 62.2583 297.025 63.8617 294.988 64.945C292.951 66.0283 290.633 66.57 288.033 66.57C284.74 66.57 281.793 65.8117 279.193 64.295C276.593 62.7783 274.556 60.6983 273.083 58.055C271.61 55.4117 270.873 52.4433 270.873 49.15C270.873 45.8133 271.61 42.845 273.083 40.245C274.556 37.645 276.571 35.6083 279.128 34.135C281.685 32.6183 284.588 31.86 287.838 31.86C290.481 31.86 292.8 32.4233 294.793 33.55C296.83 34.6333 298.52 36.215 299.863 38.295L298.693 40.44V32.64H306.753V66.245C306.753 69.3217 305.995 72.0733 304.478 74.5C303.005 76.9267 300.968 78.8333 298.368 80.22C295.811 81.6067 292.843 82.3 289.463 82.3ZM289.073 58.705C290.893 58.705 292.475 58.315 293.818 57.535C295.205 56.7117 296.288 55.585 297.068 54.155C297.848 52.725 298.238 51.0783 298.238 49.215C298.238 47.395 297.826 45.77 297.003 44.34C296.223 42.8667 295.14 41.7183 293.753 40.895C292.41 40.0717 290.85 39.66 289.073 39.66C287.296 39.66 285.693 40.0717 284.263 40.895C282.833 41.7183 281.706 42.8667 280.883 44.34C280.103 45.77 279.713 47.395 279.713 49.215C279.713 51.035 280.103 52.66 280.883 54.09C281.706 55.52 282.811 56.6467 284.198 57.47C285.628 58.2933 287.253 58.705 289.073 58.705ZM314.705 68V32.64H322.7V39.595L322.05 38.36C322.874 36.2367 324.217 34.6333 326.08 33.55C327.987 32.4233 330.197 31.86 332.71 31.86C335.31 31.86 337.607 32.4233 339.6 33.55C341.637 34.6767 343.219 36.2583 344.345 38.295C345.472 40.2883 346.035 42.6067 346.035 45.25V68H337.52V47.265C337.52 45.705 337.217 44.3617 336.61 43.235C336.004 42.1083 335.159 41.2417 334.075 40.635C333.035 39.985 331.8 39.66 330.37 39.66C328.984 39.66 327.749 39.985 326.665 40.635C325.582 41.2417 324.737 42.1083 324.13 43.235C323.524 44.3617 323.22 45.705 323.22 47.265V68H314.705ZM370.006 68.78C366.366 68.78 363.181 67.9567 360.451 66.31C357.721 64.6633 355.597 62.4317 354.081 59.615C352.564 56.7983 351.806 53.6783 351.806 50.255C351.806 46.7017 352.564 43.56 354.081 40.83C355.641 38.0567 357.742 35.8683 360.386 34.265C363.072 32.6617 366.062 31.86 369.356 31.86C372.129 31.86 374.556 32.315 376.636 33.225C378.759 34.135 380.557 35.3917 382.031 36.995C383.504 38.5983 384.631 40.44 385.411 42.52C386.191 44.5567 386.581 46.7667 386.581 49.15C386.581 49.7567 386.537 50.385 386.451 51.035C386.407 51.685 386.299 52.2483 386.126 52.725H358.826V46.225H381.316L377.286 49.28C377.676 47.2867 377.567 45.51 376.961 43.95C376.397 42.39 375.444 41.155 374.101 40.245C372.801 39.335 371.219 38.88 369.356 38.88C367.579 38.88 365.997 39.335 364.611 40.245C363.224 41.1117 362.162 42.4117 361.426 44.145C360.732 45.835 360.472 47.8933 360.646 50.32C360.472 52.4867 360.754 54.415 361.491 56.105C362.271 57.7517 363.397 59.03 364.871 59.94C366.387 60.85 368.121 61.305 370.071 61.305C372.021 61.305 373.667 60.8933 375.011 60.07C376.397 59.2467 377.481 58.1417 378.261 56.755L385.151 60.135C384.457 61.825 383.374 63.32 381.901 64.62C380.427 65.92 378.672 66.9383 376.636 67.675C374.642 68.4117 372.432 68.78 370.006 68.78ZM389.98 68V61.11L410.52 37.32L411.82 40.245H390.89V32.64H419.36V39.595L399.21 63.385L397.91 60.46H419.49V68H389.98ZM435.882 68V18.795H444.397V68H435.882ZM462.984 68.78C460.514 68.78 458.369 68.3683 456.549 67.545C454.729 66.7217 453.321 65.5517 452.324 64.035C451.327 62.475 450.829 60.6767 450.829 58.64C450.829 56.69 451.262 54.9567 452.129 53.44C452.996 51.88 454.339 50.58 456.159 49.54C457.979 48.5 460.276 47.7633 463.049 47.33L474.619 45.445V51.945L464.674 53.635C462.984 53.9383 461.727 54.48 460.904 55.26C460.081 56.04 459.669 57.0583 459.669 58.315C459.669 59.5283 460.124 60.5033 461.034 61.24C461.987 61.9333 463.157 62.28 464.544 62.28C466.321 62.28 467.881 61.9117 469.224 61.175C470.611 60.395 471.672 59.3333 472.409 57.99C473.189 56.6467 473.579 55.1733 473.579 53.57V44.47C473.579 42.9533 472.972 41.6967 471.759 40.7C470.589 39.66 469.029 39.14 467.079 39.14C465.259 39.14 463.634 39.6383 462.204 40.635C460.817 41.5883 459.799 42.8667 459.149 44.47L452.194 41.09C452.887 39.2267 453.971 37.6233 455.444 36.28C456.961 34.8933 458.737 33.81 460.774 33.03C462.811 32.25 465.021 31.86 467.404 31.86C470.307 31.86 472.864 32.4017 475.074 33.485C477.284 34.525 478.996 35.9983 480.209 37.905C481.466 39.7683 482.094 41.9567 482.094 44.47V68H474.034V61.955L475.854 61.825C474.944 63.3417 473.861 64.62 472.604 65.66C471.347 66.6567 469.917 67.4367 468.314 68C466.711 68.52 464.934 68.78 462.984 68.78Z" fill="black"/>
<rect x="93.3984" y="191.59" width="598.774" height="107.832" rx="15" transform="rotate(5 93.3984 191.59)" fill="#FF8714"/>
<path d="M103.278 277.173L130.136 215.956L147.579 217.482L163.398 282.433L149.088 281.181L145.98 267.94L122.864 265.917L117.504 278.418L103.278 277.173ZM127.505 254.805L143.339 256.19L136.294 225.539L139.85 225.85L127.505 254.805ZM169.954 283.007L175.473 219.923L188.598 221.071L184.079 272.724L210.752 275.057L209.752 286.488L169.954 283.007ZM216.262 287.058L221.781 223.974L234.906 225.122L229.387 288.206L216.262 287.058ZM240.573 289.185L246.092 226.101L258.794 227.212L279.678 260.609L273.75 260.091L299.439 230.768L312.14 231.879L306.621 294.963L293.496 293.815L297.748 245.211L302.895 246.856L275.851 276.06L274.158 275.912L253.444 242.529L257.95 241.729L253.698 290.333L240.573 289.185ZM317.808 295.942L323.327 232.858L365.75 236.57L364.749 248.001L335.451 245.438L334.199 259.748L361.804 262.163L360.804 273.594L333.199 271.179L331.932 285.659L361.231 288.222L360.23 299.654L317.808 295.942ZM367.671 300.305L373.19 237.22L383.266 238.102L413.233 285.69L407.702 286.486L411.718 240.591L424.843 241.74L419.323 304.824L409.162 303.935L379.818 256.06L384.841 255.219L380.796 301.453L367.671 300.305ZM441.863 306.796L446.382 255.143L430.378 253.743L431.379 242.311L476.257 246.238L475.257 257.669L459.507 256.291L454.988 307.944L441.863 306.796ZM468.363 309.114L495.221 247.897L512.664 249.423L528.483 314.374L514.173 313.122L511.065 299.881L487.949 297.858L482.589 310.359L468.363 309.114ZM492.59 286.745L508.424 288.131L501.379 257.48L504.935 257.791L492.59 286.745ZM535.039 314.947L540.558 251.863L553.683 253.012L548.164 316.096L535.039 314.947ZM559.351 317.074L564.87 253.99L589.003 256.102C593.349 256.482 597.121 257.58 600.319 259.395C603.572 261.216 606.028 263.706 607.686 266.866C609.343 270.026 609.979 273.807 609.594 278.21C609.219 282.501 607.91 286.084 605.667 288.959C603.43 291.778 600.579 293.804 597.115 295.037L609.31 321.445L594.576 320.156L581.433 290.934L589.464 296.671L574.476 295.36L572.476 318.223L559.351 317.074ZM575.476 283.929L586.569 284.899C588.431 285.062 590.072 284.836 591.491 284.221C592.91 283.605 594.044 282.68 594.891 281.446C595.795 280.217 596.321 278.756 596.469 277.062C596.622 275.312 596.361 273.753 595.684 272.386C595.064 271.023 594.108 269.916 592.817 269.063C591.527 268.211 589.95 267.703 588.087 267.54L576.995 266.57L575.476 283.929ZM615.829 322.016L621.348 258.932L663.771 262.643L662.771 274.074L633.473 271.511L632.221 285.821L659.826 288.237L658.826 299.668L631.221 297.253L629.954 311.733L659.252 314.296L658.252 325.727L615.829 322.016Z" fill="white"/>
<rect x="0.163574" y="122.922" width="590.756" height="107.832" rx="15" transform="rotate(-5 0.163574 122.922)" fill="#00B2FF"/>
<path d="M31.6858 206.617L26.1666 143.533L50.2994 141.421C54.6462 141.041 58.5515 141.467 62.0155 142.7C65.5359 143.928 68.3866 145.954 70.5677 148.778C72.7488 151.602 74.032 155.215 74.4172 159.619C74.7926 163.909 74.1257 167.665 72.4166 170.886C70.7026 174.051 68.2469 176.541 65.0497 178.356L81.6449 202.246L66.9112 203.535L48.8934 177.039L57.7982 181.295L42.8104 182.606L44.8106 205.468L31.6858 206.617ZM41.8103 171.174L52.9029 170.204C54.7658 170.041 56.3426 169.533 57.6332 168.681C58.9238 167.829 59.8792 166.721 60.4995 165.358C61.1762 163.991 61.4405 162.46 61.2924 160.767C61.1392 159.017 60.6107 157.527 59.7068 156.298C58.8594 155.064 57.7261 154.139 56.3071 153.524C54.8881 152.908 53.2471 152.682 51.3842 152.845L40.2916 153.816L41.8103 171.174ZM88.1644 201.676L82.6452 138.591L125.068 134.88L126.068 146.311L96.7702 148.875L98.0222 163.185L125.627 160.77L126.627 172.201L99.0223 174.616L100.289 189.096L129.587 186.533L130.587 197.964L88.1644 201.676ZM154.963 195.831L127.851 134.636L142.246 133.377L162.934 182.591L160.055 182.843L171.883 130.784L186.278 129.525L170.205 194.498L154.963 195.831ZM228.329 190.437C223.588 190.851 219.113 190.418 214.905 189.137C210.697 187.855 206.941 185.88 203.636 183.211C200.382 180.481 197.736 177.214 195.696 173.411C193.657 169.608 192.435 165.391 192.03 160.762C191.625 156.133 192.068 151.771 193.36 147.677C194.707 143.577 196.749 139.928 199.484 136.731C202.276 133.529 205.632 130.932 209.553 128.939C213.474 126.946 217.834 125.74 222.633 125.32C227.431 124.9 231.934 125.331 236.142 126.613C240.349 127.894 244.077 129.872 247.326 132.546C250.631 135.214 253.275 138.453 255.258 142.261C257.297 146.065 258.52 150.281 258.925 154.91C259.33 159.539 258.858 163.903 257.51 168.003C256.162 172.103 254.095 175.782 251.309 179.04C248.574 182.238 245.245 184.833 241.324 186.825C237.403 188.818 233.071 190.022 228.329 190.437ZM227.292 178.582C230.171 178.33 232.78 177.59 235.119 176.361C237.514 175.128 239.563 173.526 241.268 171.557C242.968 169.531 244.215 167.204 245.009 164.574C245.803 161.945 246.066 159.106 245.8 156.058C245.533 153.01 244.783 150.288 243.549 147.893C242.311 145.442 240.679 143.366 238.653 141.666C236.627 139.966 234.33 138.745 231.763 138.003C229.246 137.199 226.549 136.923 223.67 137.175C220.791 137.427 218.154 138.17 215.759 139.403C213.415 140.575 211.394 142.174 209.694 144.2C207.994 146.226 206.747 148.553 205.953 151.182C205.154 153.755 204.888 156.566 205.155 159.614C205.422 162.662 206.174 165.412 207.413 167.864C208.651 170.315 210.283 172.391 212.309 174.091C214.33 175.734 216.598 176.958 219.115 177.761C221.687 178.56 224.413 178.834 227.292 178.582ZM270.996 185.68L265.477 122.596L278.602 121.447L283.121 173.1L309.794 170.767L310.794 182.198L270.996 185.68ZM340.803 180.596C335.835 181.031 331.313 180.374 327.235 178.626C323.157 176.879 319.831 174.297 317.257 170.882C314.734 167.405 313.27 163.352 312.865 158.723L309.369 118.756L322.494 117.607L325.916 156.728C326.133 159.212 326.867 161.423 328.118 163.361C329.42 165.238 331.08 166.657 333.098 167.619C335.116 168.58 337.339 168.954 339.766 168.742C342.25 168.524 344.374 167.77 346.138 166.478C347.958 165.181 349.319 163.497 350.218 161.428C351.169 159.297 351.536 156.989 351.319 154.506L347.897 115.385L361.021 114.237L364.518 154.204C364.923 158.833 364.157 163.081 362.22 166.948C360.335 170.753 357.536 173.871 353.823 176.3C350.111 178.73 345.771 180.162 340.803 180.596ZM388.271 175.42L383.752 123.767L367.748 125.167L366.748 113.736L411.627 109.809L412.627 121.241L396.877 122.619L401.396 174.271L388.271 175.42ZM423.646 172.325L418.126 109.241L431.251 108.092L436.77 171.176L423.646 172.325ZM479.63 168.451C474.888 168.865 470.414 168.432 466.206 167.151C461.998 165.869 458.242 163.894 454.937 161.225C451.683 158.495 449.036 155.228 446.997 151.425C444.958 147.622 443.736 143.405 443.331 138.776C442.926 134.147 443.369 129.785 444.66 125.691C446.008 121.591 448.05 117.942 450.785 114.745C453.576 111.543 456.933 108.946 460.854 106.953C464.775 104.96 469.135 103.754 473.933 103.334C478.732 102.914 483.235 103.345 487.442 104.627C491.65 105.908 495.378 107.886 498.627 110.56C501.932 113.228 504.576 116.467 506.559 120.275C508.598 124.079 509.82 128.295 510.225 132.924C510.63 137.553 510.159 141.917 508.811 146.017C507.463 150.117 505.396 153.796 502.61 157.054C499.874 160.252 496.546 162.847 492.625 164.839C488.704 166.832 484.372 168.036 479.63 168.451ZM478.593 156.596C481.472 156.344 484.081 155.604 486.419 154.375C488.814 153.142 490.864 151.54 492.569 149.571C494.269 147.545 495.516 145.218 496.31 142.588C497.104 139.959 497.367 137.12 497.1 134.072C496.834 131.024 496.084 128.302 494.85 125.907C493.612 123.456 491.98 121.38 489.954 119.68C487.928 117.98 485.631 116.759 483.063 116.017C480.547 115.213 477.85 114.937 474.971 115.189C472.092 115.441 469.455 116.184 467.06 117.417C464.716 118.589 462.694 120.188 460.995 122.214C459.295 124.24 458.048 126.567 457.254 129.196C456.455 131.769 456.189 134.58 456.456 137.628C456.722 140.676 457.475 143.426 458.713 145.878C459.952 148.329 461.584 150.405 463.61 152.105C465.631 153.748 467.899 154.972 470.416 155.775C472.988 156.574 475.714 156.848 478.593 156.596ZM522.297 163.694L516.778 100.61L526.854 99.7282L564.629 141.389L559.321 143.134L555.306 97.239L568.431 96.0907L573.95 159.175L563.789 160.064L526.577 118.012L531.377 116.312L535.422 162.546L522.297 163.694Z" fill="white"/>
</svg>
