<svg width="618" height="322" viewBox="0 0 618 322" fill="none" xmlns="http://www.w3.org/2000/svg">
<path d="M191.942 68V59.875H194.737C196.817 59.875 198.464 59.29 199.677 58.12C200.934 56.9067 201.562 55.3033 201.562 53.31V19.575H210.467V52.985C210.467 55.975 209.817 58.5967 208.517 60.85C207.261 63.1033 205.441 64.8583 203.057 66.115C200.717 67.3717 197.944 68 194.737 68H191.942ZM236.18 68.78C232.713 68.78 229.55 67.9783 226.69 66.375C223.873 64.7717 221.62 62.5833 219.93 59.81C218.283 57.0367 217.46 53.8733 217.46 50.32C217.46 46.7667 218.283 43.6033 219.93 40.83C221.62 38.0567 223.873 35.8683 226.69 34.265C229.506 32.6617 232.67 31.86 236.18 31.86C239.646 31.86 242.788 32.6617 245.605 34.265C248.421 35.8683 250.653 38.0567 252.3 40.83C253.99 43.56 254.835 46.7233 254.835 50.32C254.835 53.8733 253.99 57.0367 252.3 59.81C250.61 62.5833 248.356 64.7717 245.54 66.375C242.723 67.9783 239.603 68.78 236.18 68.78ZM236.18 60.98C238.086 60.98 239.755 60.525 241.185 59.615C242.658 58.705 243.806 57.4483 244.63 55.845C245.496 54.1983 245.93 52.3567 245.93 50.32C245.93 48.24 245.496 46.42 244.63 44.86C243.806 43.2567 242.658 42 241.185 41.09C239.755 40.1367 238.086 39.66 236.18 39.66C234.23 39.66 232.518 40.1367 231.045 41.09C229.571 42 228.401 43.2567 227.535 44.86C226.711 46.42 226.3 48.24 226.3 50.32C226.3 52.3567 226.711 54.1983 227.535 55.845C228.401 57.4483 229.571 58.705 231.045 59.615C232.518 60.525 234.23 60.98 236.18 60.98ZM261.292 68V32.64H269.807V68H261.292ZM261.292 28.675V19.575H269.807V28.675H261.292ZM277.669 68V32.64H285.664V39.595L285.014 38.36C285.837 36.2367 287.181 34.6333 289.044 33.55C290.951 32.4233 293.161 31.86 295.674 31.86C298.274 31.86 300.571 32.4233 302.564 33.55C304.601 34.6767 306.182 36.2583 307.309 38.295C308.436 40.2883 308.999 42.6067 308.999 45.25V68H300.484V47.265C300.484 45.705 300.181 44.3617 299.574 43.235C298.967 42.1083 298.122 41.2417 297.039 40.635C295.999 39.985 294.764 39.66 293.334 39.66C291.947 39.66 290.712 39.985 289.629 40.635C288.546 41.2417 287.701 42.1083 287.094 43.235C286.487 44.3617 286.184 45.705 286.184 47.265V68H277.669ZM343.872 68.39C339.885 68.39 336.787 67.3067 334.577 65.14C332.41 62.93 331.327 59.8317 331.327 55.845V40.245H325.217V32.64H325.867C327.6 32.64 328.944 32.185 329.897 31.275C330.85 30.365 331.327 29.0433 331.327 27.31V24.58H339.842V32.64H347.967V40.245H339.842V55.39C339.842 56.56 340.037 57.5567 340.427 58.38C340.86 59.2033 341.51 59.8317 342.377 60.265C343.287 60.6983 344.435 60.915 345.822 60.915C346.125 60.915 346.472 60.8933 346.862 60.85C347.295 60.8067 347.707 60.7633 348.097 60.72V68C347.49 68.0867 346.797 68.1733 346.017 68.26C345.237 68.3467 344.522 68.39 343.872 68.39ZM354.603 68V18.795H363.118V39.595L361.948 38.36C362.771 36.2367 364.114 34.6333 365.978 33.55C367.884 32.4233 370.094 31.86 372.608 31.86C375.208 31.86 377.504 32.4233 379.498 33.55C381.534 34.6767 383.116 36.2583 384.243 38.295C385.369 40.2883 385.933 42.6067 385.933 45.25V68H377.418V47.265C377.418 45.705 377.114 44.3617 376.508 43.235C375.901 42.1083 375.056 41.2417 373.973 40.635C372.933 39.985 371.698 39.66 370.268 39.66C368.881 39.66 367.646 39.985 366.563 40.635C365.479 41.2417 364.634 42.1083 364.028 43.235C363.421 44.3617 363.118 45.705 363.118 47.265V68H354.603ZM409.903 68.78C406.263 68.78 403.078 67.9567 400.348 66.31C397.618 64.6633 395.495 62.4317 393.978 59.615C392.461 56.7983 391.703 53.6783 391.703 50.255C391.703 46.7017 392.461 43.56 393.978 40.83C395.538 38.0567 397.64 35.8683 400.283 34.265C402.97 32.6617 405.96 31.86 409.253 31.86C412.026 31.86 414.453 32.315 416.533 33.225C418.656 34.135 420.455 35.3917 421.928 36.995C423.401 38.5983 424.528 40.44 425.308 42.52C426.088 44.5567 426.478 46.7667 426.478 49.15C426.478 49.7567 426.435 50.385 426.348 51.035C426.305 51.685 426.196 52.2483 426.023 52.725H398.723V46.225H421.213L417.183 49.28C417.573 47.2867 417.465 45.51 416.858 43.95C416.295 42.39 415.341 41.155 413.998 40.245C412.698 39.335 411.116 38.88 409.253 38.88C407.476 38.88 405.895 39.335 404.508 40.245C403.121 41.1117 402.06 42.4117 401.323 44.145C400.63 45.835 400.37 47.8933 400.543 50.32C400.37 52.4867 400.651 54.415 401.388 56.105C402.168 57.7517 403.295 59.03 404.768 59.94C406.285 60.85 408.018 61.305 409.968 61.305C411.918 61.305 413.565 60.8933 414.908 60.07C416.295 59.2467 417.378 58.1417 418.158 56.755L425.048 60.135C424.355 61.825 423.271 63.32 421.798 64.62C420.325 65.92 418.57 66.9383 416.533 67.675C414.54 68.4117 412.33 68.78 409.903 68.78Z" fill="black"/>
<rect x="9.39844" y="161.362" width="610.1" height="107.832" rx="15" transform="rotate(5 9.39844 161.362)" fill="#00B2FF"/>
<path d="M34.9801 248.318L40.4993 185.234L64.6321 187.346C68.9788 187.726 72.7508 188.824 75.9481 190.639C79.2018 192.46 81.6575 194.95 83.315 198.11C84.9726 201.27 85.6088 205.051 85.2236 209.454C84.8482 213.745 83.5393 217.328 81.2968 220.203C79.0593 223.022 76.2085 225.048 72.7445 226.281L84.9393 252.689L70.2056 251.4L57.0624 222.178L65.093 227.915L50.1052 226.604L48.105 249.467L34.9801 248.318ZM51.1053 215.173L62.198 216.143C64.0609 216.306 65.7018 216.08 67.1208 215.464C68.5399 214.849 69.6731 213.924 70.5206 212.69C71.4245 211.461 71.9505 210 72.0987 208.306C72.2518 206.556 71.99 204.997 71.3133 203.63C70.693 202.267 69.7375 201.16 68.4469 200.307C67.1563 199.455 65.5795 198.947 63.7167 198.784L52.624 197.814L51.1053 215.173ZM91.4587 253.26L96.9779 190.175L139.401 193.887L138.401 205.318L109.103 202.755L107.851 217.065L135.455 219.481L134.455 230.912L106.851 228.497L105.584 242.976L134.882 245.54L133.882 256.971L91.4587 253.26ZM158.257 259.104L142.184 194.13L156.579 195.39L168.407 247.449L165.528 247.197L186.216 197.983L200.611 199.242L173.499 260.437L158.257 259.104ZM231.446 266.531C226.704 266.116 222.373 264.912 218.451 262.919C214.53 260.927 211.174 258.329 208.382 255.127C205.652 251.874 203.613 248.197 202.265 244.097C200.917 239.997 200.446 235.633 200.851 231.004C201.256 226.375 202.45 222.156 204.433 218.348C206.472 214.545 209.116 211.306 212.365 208.632C215.67 205.964 219.426 203.988 223.634 202.707C227.842 201.425 232.345 200.995 237.143 201.414C241.941 201.834 246.301 203.04 250.222 205.033C254.144 207.026 257.472 209.621 260.207 212.818C262.998 216.02 265.04 219.669 266.331 223.763C267.679 227.863 268.15 232.228 267.745 236.856C267.34 241.485 266.118 245.702 264.079 249.505C262.04 253.308 259.365 256.573 256.055 259.298C252.806 261.972 249.078 263.949 244.87 265.231C240.663 266.512 236.188 266.946 231.446 266.531ZM232.483 254.676C235.362 254.928 238.06 254.652 240.576 253.848C243.149 253.049 245.446 251.828 247.467 250.185C249.493 248.485 251.125 246.409 252.363 243.958C253.601 241.506 254.354 238.757 254.621 235.708C254.887 232.66 254.621 229.849 253.822 227.277C253.029 224.647 251.782 222.32 250.082 220.294C248.382 218.268 246.332 216.667 243.932 215.49C241.594 214.261 238.985 213.521 236.106 213.269C233.227 213.017 230.501 213.291 227.928 214.09C225.417 214.837 223.148 216.06 221.122 217.76C219.097 219.46 217.464 221.536 216.226 223.987C214.993 226.382 214.243 229.104 213.976 232.152C213.709 235.201 213.973 238.039 214.767 240.669C215.56 243.298 216.807 245.625 218.507 247.651C220.212 249.621 222.234 251.22 224.572 252.448C226.967 253.681 229.604 254.424 232.483 254.676ZM274.291 269.255L279.81 206.171L292.935 207.319L288.416 258.972L315.089 261.306L314.089 272.737L274.291 269.255ZM343.92 276.371C338.952 275.936 334.612 274.504 330.9 272.075C327.187 269.645 324.36 266.525 322.418 262.715C320.537 258.853 319.8 254.608 320.205 249.979L323.701 210.011L336.826 211.159L333.404 250.28C333.186 252.764 333.525 255.069 334.42 257.195C335.376 259.269 336.764 260.955 338.585 262.252C340.405 263.549 342.529 264.304 344.957 264.516C347.441 264.733 349.663 264.359 351.625 263.393C353.643 262.432 355.275 261.01 356.52 259.128C357.827 257.195 358.589 254.986 358.807 252.503L362.229 213.382L375.354 214.53L371.857 254.498C371.452 259.127 369.96 263.177 367.381 266.649C364.864 270.069 361.566 272.653 357.488 274.401C353.41 276.149 348.887 276.805 343.92 276.371ZM391.566 279.515L396.085 227.863L380.081 226.463L381.081 215.031L425.96 218.958L424.959 230.389L409.21 229.011L404.691 280.664L391.566 279.515ZM426.94 282.61L432.459 219.526L445.584 220.675L440.065 283.759L426.94 282.61ZM482.747 288.517C478.005 288.102 473.673 286.898 469.752 284.905C465.831 282.913 462.475 280.315 459.683 277.113C456.953 273.859 454.914 270.183 453.566 266.083C452.218 261.983 451.747 257.619 452.152 252.99C452.557 248.361 453.751 244.142 455.733 240.334C457.773 236.531 460.417 233.292 463.665 230.618C466.971 227.95 470.727 225.974 474.935 224.693C479.142 223.411 483.645 222.981 488.444 223.4C493.242 223.82 497.602 225.026 501.523 227.019C505.444 229.012 508.773 231.607 511.508 234.804C514.299 238.006 516.341 241.655 517.632 245.749C518.98 249.849 519.451 254.213 519.046 258.842C518.641 263.471 517.419 267.688 515.38 271.491C513.341 275.294 510.666 278.559 507.356 281.284C504.107 283.958 500.379 285.935 496.171 287.217C491.964 288.498 487.489 288.932 482.747 288.517ZM483.784 276.662C486.663 276.914 489.361 276.638 491.877 275.834C494.45 275.035 496.747 273.814 498.767 272.171C500.793 270.471 502.425 268.395 503.664 265.944C504.902 263.492 505.655 260.743 505.921 257.694C506.188 254.646 505.922 251.835 505.123 249.263C504.329 246.633 503.082 244.306 501.383 242.28C499.683 240.254 497.633 238.653 495.233 237.476C492.894 236.247 490.286 235.507 487.407 235.255C484.528 235.003 481.802 235.277 479.229 236.076C476.718 236.823 474.449 238.046 472.423 239.746C470.397 241.446 468.765 243.522 467.527 245.973C466.293 248.368 465.543 251.09 465.277 254.138C465.01 257.187 465.274 260.025 466.067 262.655C466.861 265.284 468.108 267.611 469.808 269.637C471.513 271.607 473.535 273.206 475.873 274.434C478.268 275.667 480.905 276.41 483.784 276.662ZM525.591 291.241L531.111 228.157L541.187 229.039L571.154 276.627L565.623 277.423L569.638 231.528L582.763 232.676L577.244 295.76L567.083 294.871L537.739 246.997L542.761 246.156L538.716 292.389L525.591 291.241Z" fill="white"/>
<rect x="150.646" y="101.569" width="309.634" height="107.832" rx="15" transform="rotate(-5 150.646 101.569)" fill="#FF8714"/>
<path d="M186.996 183.107L181.477 120.023L224.662 116.245L225.662 127.676L195.602 130.306L197.002 146.31L222.828 144.05L223.828 155.482L198.002 157.741L200.121 181.959L186.996 183.107ZM267.54 177.084C262.798 177.499 258.324 177.066 254.116 175.784C249.908 174.503 246.152 172.528 242.846 169.859C239.593 167.129 236.946 163.862 234.907 160.059C232.868 156.255 231.646 152.039 231.241 147.41C230.836 142.781 231.279 138.419 232.57 134.324C233.918 130.225 235.96 126.576 238.695 123.379C241.486 120.177 244.843 117.579 248.764 115.587C252.685 113.594 257.045 112.388 261.843 111.968C266.642 111.548 271.145 111.979 275.352 113.26C279.56 114.542 283.288 116.519 286.537 119.193C289.842 121.862 292.486 125.1 294.469 128.909C296.508 132.712 297.73 136.928 298.135 141.557C298.54 146.186 298.069 150.551 296.721 154.651C295.373 158.75 293.306 162.429 290.519 165.688C287.784 168.885 284.456 171.48 280.535 173.473C276.614 175.466 272.282 176.669 267.54 177.084ZM266.503 165.229C269.382 164.978 271.991 164.237 274.329 163.009C276.724 161.775 278.774 160.174 280.479 158.205C282.179 156.179 283.426 153.851 284.22 151.222C285.013 148.593 285.277 145.754 285.01 142.706C284.744 139.657 283.994 136.936 282.76 134.541C281.522 132.089 279.89 130.014 277.864 128.314C275.838 126.614 273.541 125.393 270.973 124.65C268.457 123.847 265.759 123.571 262.88 123.823C260.001 124.074 257.364 124.817 254.969 126.051C252.626 127.223 250.604 128.822 248.904 130.847C247.205 132.873 245.958 135.201 245.164 137.83C244.365 140.403 244.099 143.213 244.366 146.262C244.632 149.31 245.385 152.06 246.623 154.511C247.862 156.963 249.494 159.038 251.52 160.738C253.541 162.382 255.809 163.605 258.325 164.409C260.898 165.208 263.624 165.481 266.503 165.229ZM341.88 170.58C337.138 170.995 332.664 170.562 328.456 169.28C324.248 167.999 320.492 166.024 317.187 163.355C313.933 160.625 311.286 157.358 309.247 153.555C307.208 149.751 305.986 145.535 305.581 140.906C305.176 136.277 305.619 131.915 306.91 127.82C308.258 123.721 310.3 120.072 313.035 116.875C315.826 113.673 319.183 111.075 323.104 109.083C327.025 107.09 331.385 105.884 336.183 105.464C340.982 105.044 345.485 105.475 349.692 106.757C353.9 108.038 357.628 110.016 360.877 112.689C364.182 115.358 366.826 118.597 368.809 122.405C370.848 126.208 372.07 130.425 372.475 135.054C372.88 139.683 372.409 144.047 371.061 148.147C369.713 152.246 367.646 155.926 364.859 159.184C362.124 162.381 358.796 164.976 354.875 166.969C350.954 168.962 346.622 170.165 341.88 170.58ZM340.843 158.726C343.722 158.474 346.331 157.733 348.669 156.505C351.064 155.272 353.114 153.67 354.819 151.701C356.519 149.675 357.766 147.347 358.56 144.718C359.354 142.089 359.617 139.25 359.35 136.202C359.084 133.153 358.334 130.432 357.1 128.037C355.862 125.585 354.23 123.51 352.204 121.81C350.178 120.11 347.881 118.889 345.313 118.146C342.797 117.343 340.099 117.067 337.22 117.319C334.341 117.571 331.704 118.313 329.31 119.547C326.966 120.719 324.944 122.318 323.245 124.344C321.545 126.369 320.298 128.697 319.504 131.326C318.705 133.899 318.439 136.709 318.706 139.758C318.972 142.806 319.725 145.556 320.963 148.007C322.202 150.459 323.834 152.534 325.86 154.234C327.881 155.878 330.149 157.101 332.665 157.905C335.238 158.704 337.964 158.977 340.843 158.726ZM384.547 165.823L379.028 102.739L399.604 100.939C406.435 100.342 412.481 101.178 417.742 103.448C423.003 105.718 427.224 109.103 430.405 113.603C433.586 118.103 435.443 123.401 435.977 129.498C436.51 135.595 435.604 141.163 433.257 146.203C430.906 151.187 427.337 155.254 422.55 158.403C417.763 161.552 411.954 163.426 405.123 164.023L384.547 165.823ZM396.672 153.244L404.462 152.562C408.583 152.202 412.068 151.072 414.916 149.173C417.76 147.218 419.87 144.673 421.245 141.538C422.672 138.341 423.208 134.711 422.852 130.646C422.491 126.525 421.333 123.043 419.378 120.199C417.479 117.35 414.962 115.238 411.827 113.863C408.692 112.488 405.064 111.98 400.943 112.341L393.153 113.023L396.672 153.244Z" fill="white"/>
</svg>
