<svg fill="none" height="276" viewBox="0 0 260 276" width="260" xmlns="http://www.w3.org/2000/svg" xmlns:xlink="http://www.w3.org/1999/xlink"><clipPath id="a"><path d="m0 0h260v275.735h-260z"/></clipPath><g clip-path="url(#a)"><path d="m65.366 275.855c-12.659 0-23.406-10.845-23.406-23.605v-107.894c0-48.3944 0-15.985 0-32.538v-.104c0-28.1744 5.9099-50.9695 17.5851-66.5006 14.2277-18.9258 37.8573-28.5255 70.0119-28.5315 32.155.006 56.023 9.8015 70.415 29.115 11.639 15.6179 16.82 37.5409 17.819 67.0231v.107 61.262 78.061c0 12.76-10.723 23.605-23.384 23.605z" fill="#fff"/><path d="m208.277 112.872c-.28-48.2613-15.518-87.0869-78.607-87.0989-63.0695.012-77.8977 37.7307-78.171 85.9929.0988 17.215 0 42.705 0 42.705v97.779c0 7.763 6.2109 14.05 13.8664 14.05h129.0416c7.655 0 13.87-6.287 13.87-14.05v-102.524s-.152-11.647 0-36.854z" fill="#0b905a"/><path d="m13.5839 73.5763c-2.6685 7.1551-4.10774 14.6688-4.12882 22.4154h241.04492v-.027c-.018-8.0472-1.584-15.8367-4.448-23.2216l-58.384 14.3372c-1.03-3.4947-2.703-6.7925-4.865-9.9195l51.028-25.1049c-5.539-6.7495-12.275-12.9195-20.038-18.3403l-41.925 32.3848c-3.095-2.2498-6.537-4.2179-10.265-5.9253l31.385-38.1513c-7.907-3.5126-16.427-6.3748-25.397-8.5098l-18.389 42.3423c-4.063-1.018-8.286-1.7423-12.7-2.089l7.053-44.03665c-4.459-.36465-8.973-.55547-13.581-.55547-4.028 0-8.01.13287-11.951.4266l5.507 44.15752c-4.304.3377-8.448 1.048-12.434 2.0131l-18.3081-42.3343c-8.9082 2.084-17.3474 4.8763-25.209 8.313l31.2039 38.2302c-3.8076 1.7354-7.3561 3.7055-10.5278 5.9943l-41.9471-32.3589c-7.7441 5.4088-14.4876 11.5119-20.014 18.2414l50.9854 25.1269c-2.2993 3.2718-4.0715 6.7565-5.1189 10.4469z" fill="#fcd211"/><path d="m192.979 22.0278-31.376 38.1473c3.728 1.7073 7.17 3.6755 10.265 5.9253l41.916-32.3809c-6.313-4.4137-13.275-8.3429-20.805-11.6917zm-179.3901 51.5484 58.5718 13.8557c1.0473-3.6905 2.8195-7.1751 5.1188-10.447l-50.9803-25.1268c-5.5208 6.7105-9.8374 14.0025-12.7103 21.7181zm129.9661-63.8336-7.053 44.0247c4.414.3466 8.637 1.0709 12.7 2.0889l18.38-42.3242c-7.7-1.8323-15.732-3.12-24.027-3.7894zm-97.2418 23.879 41.9421 32.3539c3.1716-2.2888 6.7201-4.2589 10.5278-5.9942l-31.1947-38.2252c-7.7093 3.3707-14.8275 7.3698-21.2752 11.8655zm45.9597-20.0587c.1698-.0409.3404-.0759.5152-.1209v-.004c-.1748.039-.3454.084-.5152.1249zm.5152-.1209 18.3089 42.3303c3.986-.965 8.13-1.6754 12.434-2.013l-5.508-44.15358c-8.73.61738-17.16 1.93208-25.2349 3.83628zm90.0159 63.7188c2.161 3.1269 3.834 6.4248 4.864 9.9194l58.376-14.3332c-2.838-7.3309-6.971-14.2703-12.222-20.6871z" fill="#1c63b7"/><path d="m250.276 101.562c.134-1.81.224-3.6292.224-5.4575 0-.021 0-.0679 0-.1129h-241.04492v.1129c0 1.2688.05073 2.5176.12254 3.7724.16781 2.8051.51238 5.5881 1.05368 8.3221 4.0902 21.101 18.7144 39.802 39.9276 53.238l.0086.014c.0278.031.0487.031.0675.044 1.2664.792 2.5503 1.584 3.8701 2.349.0941.039.1612.08.2561.135 1.2788.748 2.5986 1.471 3.9235 2.177.1073.059.1963.122.2985.163.0098.017.0188.017.0188.017 1.3549.716 2.7336 1.405 4.1159 2.086.0317.018.0586.018.0859.031.039.022.094.039.1338.067 2.8808 1.383 5.8343 2.657 8.8775 3.865 0 0 .0086 0 .026.023.0262.014.054.014.0949.026 1.4495.588 2.907 1.12 4.4118 1.661.0437.013.0886.04.1335.053.1073.045.2056.071.3044.102 1.4314.52 2.9034.989 4.3798 1.47.1966.066.4027.125.6134.195 1.4498.448 2.9257.899 4.4027 1.312.2237.049.4383.112.6576.157 1.4947.42 2.9971.81 4.5282 1.194.0799.018.1697.027.2633.063.0722.007.1437.021.2245.052 1.602.367 3.1941.73 4.8363 1.07.0269 0 .0359.019.0632.019 1.6281.322 3.2793.626 4.9433.911.054 0 .117.02.17.037.09.008.162.022.247.036 1.583.263 3.167.509 4.778.733.157.017.292.041.444.058.088.018.186.032.285.045 1.58.205 3.154.395 4.757.561.09 0 .161.012.263.012.179.037.359.045.546.058 1.588.162 3.191.308 4.81.407.264.036.542.045.8.059 1.643.102 3.289.201 4.954.254h.122c.142 0 .294.019.456.019 1.74.053 3.476.084 5.244.084 1.842 0 3.655-.031 5.499-.103.147 0 .308 0 .451-.014 1.741-.056 3.47-.138 5.19-.254.217-.009.433-.045.674-.054 1.669-.116 3.325-.267 4.982-.437.253-.019.495-.041.756-.068 1.613-.18 3.232-.358 4.847-.586.269-.041.529-.063.809-.108 1.604-.231 3.188-.479 4.782-.76.227-.031.45-.09.684-.117 1.614-.294 3.216-.581 4.791-.912.117-.023.244-.068.363-.082.062-.017.142-.035.205-.044 1.62-.343 3.253-.724 4.864-1.105.035-.018.071-.018.116-.035.063-.01.117-.024.197-.045 3.351-.847 6.64-1.781 9.864-2.815.071-.014.154-.063.217-.077 1.583-.499 3.132-1.032 4.672-1.613.109-.027.236-.082.352-.113 1.512-.565 2.998-1.14 4.484-1.727.126-.058.254-.103.37-.152 1.469-.609 2.918-1.235 4.35-1.862.125-.058.233-.114.351-.177 1.441-.646 2.863-1.304 4.251-1.996.092-.041.171-.094.261-.148h.018c1.414-.704 2.829-1.437 4.224-2.202 0 0 .026-.017.054-.031.008 0 .008-.01.026-.01 25.964-14.204 43.724-35.829 47.191-60.451l.018-.014c.164-1.12.273-2.244.389-3.382z" fill="#0b905a"/><g fill="#fff"><path d="m167.591 13.514c8.97 2.1349 17.49 4.9971 25.396 8.5098l-.009.004c7.53 3.3487 14.493 7.278 20.805 11.6917l.009-.004c7.764 5.4208 14.5 11.5909 20.039 18.3404l-.009.004c5.251 6.4168 9.384 13.3561 12.221 20.6871l.009-.004c2.864 7.3849 4.43 15.1744 4.448 23.2217v.1398c0 1.8283-.09 3.6475-.224 5.4575-.117 1.138-.225 2.262-.389 3.382l-.018.014c-3.467 24.622-21.227 46.247-47.191 60.451-.018 0-.018.01-.026.01-.028.014-.054.031-.054.031-1.395.765-2.81 1.498-4.224 2.202h-.018c-.09.054-.17.107-.261.148-1.388.692-2.81 1.35-4.251 1.996-.118.063-.226.119-.351.177-1.432.627-2.881 1.253-4.35 1.862-.116.049-.244.094-.371.152-1.485.587-2.971 1.162-4.483 1.727-.116.031-.243.086-.352.113-1.54.581-3.089 1.114-4.672 1.613-.063.014-.146.063-.217.077-3.224 1.034-6.513 1.968-9.864 2.815-.081.021-.135.035-.197.045-.045.017-.081.017-.116.035-1.611.381-3.244.762-4.864 1.105-.063.009-.144.027-.206.044-.118.014-.245.059-.362.082-1.575.331-3.177.618-4.792.912-.233.027-.456.086-.683.117-1.594.281-3.178.529-4.782.76-.28.045-.54.067-.81.108-1.614.228-3.233.406-4.846.586-.262.027-.503.049-.756.068-1.658.17-3.313.321-4.982.437-.241.009-.457.045-.674.054-1.72.116-3.449.198-5.19.254-.144.014-.304.014-.451.014-1.844.072-3.657.103-5.499.103-1.768 0-3.504-.031-5.244-.084-.162 0-.314-.019-.456-.019h-.122c-1.665-.053-3.311-.152-4.954-.254-.258-.014-.536-.023-.8-.059-1.619-.099-3.222-.245-4.81-.407-.187-.013-.367-.021-.546-.058-.103 0-.174-.012-.263-.012-1.603-.166-3.177-.356-4.757-.561-.099-.013-.197-.027-.286-.045-.151-.017-.286-.041-.443-.058-1.611-.224-3.195-.47-4.779-.733-.084-.014-.156-.028-.246-.036-.053-.017-.116-.037-.17-.037-1.665-.285-3.3153-.589-4.9434-.911-.0273 0-.0363-.019-.0632-.019-1.6422-.34-3.2343-.703-4.8363-1.07-.0808-.031-.1523-.045-.2245-.052-.0936-.036-.1834-.045-.2633-.063-1.5311-.384-3.0335-.774-4.5282-1.194-.2193-.045-.4339-.108-.6575-.157-1.4771-.413-2.953-.864-4.4028-1.312-.2107-.07-.4168-.129-.6134-.195-1.4764-.481-2.9484-.95-4.3798-1.47-.0988-.031-.1971-.057-.3044-.102-.0449-.013-.0898-.04-.1335-.053-1.5048-.541-2.9623-1.073-4.4118-1.661-.0409-.012-.0687-.012-.0949-.026-.0174-.023-.026-.023-.026-.023-3.0432-1.208-5.9967-2.482-8.8775-3.865-.0398-.028-.0948-.045-.1338-.067-.0273-.013-.0542-.013-.0859-.031-1.3823-.681-2.761-1.37-4.1159-2.086 0 0-.009 0-.0188-.017-.1022-.041-.1912-.104-.2985-.163-1.325-.706-2.6447-1.429-3.9236-2.177-.0948-.055-.1619-.096-.256-.135-1.3198-.765-2.6037-1.557-3.8701-2.349-.0188-.013-.0397-.013-.0675-.044l-.0086-.014c-21.2132-13.436-35.8375-32.137-39.9276-53.238-.5413-2.734-.88588-5.517-1.05369-8.3221-.07181-1.2548-.12254-2.5036-.12254-3.7724v-.1129c.02108-7.7465 1.46033-15.2603 4.12883-22.4154h.0047c2.873-7.7156 7.1895-15.0076 12.7104-21.7181h-.0051c5.5264-6.7296 12.2699-12.8327 20.014-18.2415l.0051.005c6.4477-4.4957 13.5658-8.4948 21.2752-11.8656l-.0093-.005c7.7093-3.3737 15.9963-6.1121 24.7114-8.1921-.009 0-.0176 0-.0176 0 .1698-.037.3404-.0819.5152-.1209v.004c8.0752-1.9042 16.5052-3.2189 25.2352-3.8363v-.004c3.941-.29372 7.923-.42659 11.951-.42659 4.608 0 9.122.19083 13.581.55548v.01199c8.295.66932 16.326 1.95712 24.027 3.78932m-37.712-13.52994688c-70.8108.01797488-129.565605 41.88964688-129.87 96.08154688.304395 54.2245 59.078 96.0875 129.87 96.0875 70.808 0 129.566-41.863 129.88-96.0875-.314-54.1919-59.062-96.063572-129.88-96.08154688z"/><path d="m167.035 157.92c0 .205.137.34.334.34h14.788c.205 0 .333-.135.333-.34v-3.701c0-.195-.128-.33-.333-.33h-10.023c-.137 0-.199-.068-.199-.197v-17.796c0-.199-.127-.336-.324-.336h-4.242c-.197 0-.334.137-.334.336z"/><path d="m147.422 157.92c0 .205.127.34.324.34h14.786c.189 0 .326-.135.326-.34v-3.701c0-.195-.137-.33-.326-.33h-10.012c-.137 0-.199-.068-.199-.197v-17.796c0-.199-.137-.336-.343-.336h-4.232c-.197 0-.324.137-.324.336z"/><path d="m134.82 157.92c0 .205.135.34.341.34h4.232c.211 0 .336-.135.336-.34v-22.024c0-.199-.125-.336-.336-.336h-4.232c-.206 0-.341.137-.341.336z"/><path d="m110.681 153.119c1.164 3.67 4.305 5.507 8.35 5.507 3.999 0 7.14-2.045 8.277-5.673.398-1.24.56-3.109.56-5.105v-1.875c0-.205-.126-.336-.336-.336h-7.808c-.196 0-.33.131-.33.336v3.214c0 .196.134.325.33.325h3.084c.124 0 .196.063.196.198 0 .961-.099 1.667-.272 2.242-.466 1.507-1.925 2.336-3.639 2.336-1.964 0-3.203-.935-3.709-2.506-.268-.806-.362-1.906-.362-4.872 0-2.974.094-4.047.362-4.836.506-1.574 1.709-2.544 3.647-2.544 1.865 0 2.997.804 3.901 2.344.072.165.233.233.466.165l3.58-1.504c.196-.104.231-.307.133-.5-1.074-2.745-3.838-4.835-8.08-4.835-4.045 0-7.186 1.822-8.35 5.499-.5 1.57-.63 2.829-.63 6.211 0 3.363.13 4.637.63 6.209z"/><path d="m98.1943 157.92c0 .205.1338.34.3305.34h4.2422c.197 0 .336-.135.336-.34v-22.024c0-.199-.139-.336-.336-.336h-4.2422c-.1967 0-.3305.137-.3305.336z"/><path d="m83.0978 158.626c5.8792 0 8.9172-3.034 8.9172-7.155 0-4.093-2.4695-6.234-7.1403-6.874l-1.1992-.166c-2.6139-.367-3.5396-1.202-3.5396-2.491 0-1.44 1.0256-2.476 3.0342-2.476 1.8654 0 3.5388.604 5.2703 1.738.1697.103.3306.066.4651-.1l2.0364-3.044c.1607-.234.1339-.368-.0723-.502-1.8926-1.46-4.7024-2.356-7.6995-2.356-4.9183 0-8.0497 2.759-8.0497 6.942 0 3.996 2.5639 6.176 7.1767 6.807l1.2078.17c2.6981.366 3.5033 1.189 3.5033 2.532 0 1.606-1.3328 2.709-3.7133 2.709-2.393 0-4.4305-1.138-5.9423-2.35-.16-.127-.3621-.127-.4956.035l-2.5378 2.908c-.1647.211-.1022.439.0363.577 1.7627 1.688 5.2035 3.096 8.7423 3.096z"/><path d="m183.677 139.009c0-.474-.268-.72-.863-.72h-1.109c-.072 0-.099.021-.099.098v1.258c0 .049.027.094.099.094h1.109c.595 0 .863-.271.863-.73zm-2.827 3.665c-.098 0-.179-.049-.179-.174v-4.872c0-.127.081-.178.179-.178h1.964c1.135 0 1.792.573 1.792 1.559 0 .713-.387 1.223-1.027 1.446l1.054 2.045c.053.097 0 .174-.089.174h-.702c-.092 0-.165-.049-.218-.174l-.98-1.924h-.939c-.072 0-.099.021-.099.098v1.826c0 .125-.072.174-.17.174zm5.504-2.584c0-2.244-1.638-3.877-3.864-3.877-2.209 0-3.863 1.633-3.863 3.877 0 2.238 1.654 3.909 3.863 3.909 2.226 0 3.864-1.671 3.864-3.909zm-8.555 0c0-2.657 2.036-4.687 4.691-4.687 2.691 0 4.691 2.03 4.691 4.687 0 2.683-2 4.722-4.691 4.722-2.655 0-4.691-2.039-4.691-4.722z"/><path d="m53.8584 127.126c-.1335-.135-.2022-.369-.0313-.568l2.532-2.9c.1345-.162.3351-.162.501-.027 1.4985 1.196 3.5396 2.324 5.9416 2.324 2.3669 0 3.7097-1.089 3.7097-2.693 0-1.342-.8051-2.176-3.5075-2.544l-1.2029-.168c-4.6048-.634-7.1825-2.792-7.1825-6.807 0-4.17 3.1411-6.944 8.0497-6.944 3.0022 0 5.803.898 7.7145 2.373.1959.135.2318.266.071.499l-2.0449 3.037c-.1339.16-.2958.191-.4691.097-1.7331-1.125-3.4049-1.728-5.2715-1.728-1.9953 0-3.0381 1.026-3.0381 2.466 0 1.304.9354 2.135 3.5388 2.509l1.2001.162c4.6798.641 7.1489 2.766 7.1489 6.877 0 4.102-3.0467 7.151-8.9172 7.151-3.5391 0-6.9757-1.405-8.7423-3.116z"/><path d="m82.3868 129.869c-.2244 0-.363-.137-.4339-.33l-7.2131-22.005c-.0624-.237.0727-.371.3083-.371h4.3408c.2329 0 .3676.103.43.334l4.5406 14.895h.0988l4.4031-14.895c.0711-.231.2103-.334.4426-.334h4.3044c.1971 0 .331.134.2685.371l-7.2125 22.005c-.0625.193-.1976.33-.4032.33z"/><path d="m99.0303 107.497c0-.2.1341-.334.3402-.334h14.5455c.206 0 .33.134.33.334v3.58c0 .203-.124.341-.33.341h-9.781c-.134 0-.188.063-.188.196v4.501c0 .136.054.203.188.203h8.152c.198 0 .332.133.332.334v3.529c0 .203-.134.334-.332.334h-8.152c-.134 0-.188.062-.188.203v4.704c0 .131.054.199.188.199h9.781c.206 0 .33.131.33.334v3.584c0 .193-.124.33-.33.33h-14.5455c-.2061 0-.3402-.137-.3402-.33z"/><path d="m120.517 107.497c0-.2.124-.334.325-.334h4.005c.237 0 .434.103.568.334l8.019 14.292h.169v-14.292c0-.2.125-.334.331-.334h3.768c.197 0 .331.134.331.334v22.042c0 .193-.134.33-.331.33h-3.974c-.268 0-.429-.101-.568-.33l-8.04-14.257h-.171v14.257c0 .193-.138.33-.335.33h-3.772c-.201 0-.325-.137-.325-.33z"/><path d="m143.9 127.126c-.137-.135-.2-.369-.027-.568l2.529-2.9c.135-.162.334-.162.507-.027 1.503 1.196 3.529 2.324 5.932 2.324 2.381 0 3.702-1.089 3.702-2.693 0-1.342-.783-2.176-3.502-2.544l-1.198-.168c-4.604-.634-7.178-2.792-7.178-6.807 0-4.17 3.133-6.944 8.05-6.944 3.007 0 5.8.898 7.71 2.373.197.135.234.266.064.499l-2.037 3.037c-.134.16-.304.191-.477.097-1.737-1.125-3.394-1.728-5.26-1.728-2.008 0-3.05 1.026-3.05 2.466 0 1.304.934 2.135 3.548 2.509l1.204.162c4.665.641 7.145 2.766 7.145 6.877 0 4.102-3.047 7.151-8.918 7.151-3.548 0-6.979-1.405-8.744-3.116z"/><path d="m167.485 107.497c0-.2.135-.334.334-.334h4.233c.209 0 .334.134.334.334v9.826l7.556-9.858c.161-.234.296-.302.56-.302h4.834c.209 0 .307.236.136.437l-6.872 8.614 7.512 13.26c.135.227.036.395-.2.395h-4.909c-.259 0-.366-.064-.501-.299l-5.137-9.554-2.979 3.75v5.773c0 .193-.125.33-.334.33h-4.233c-.199 0-.334-.137-.334-.33z"/><path d="m195.17 129.869c-.199 0-.341-.137-.341-.33v-17.79c0-.135-.063-.204-.198-.204h-5.748c-.199 0-.323-.127-.323-.334v-3.714c0-.2.124-.334.323-.334h16.807c.199 0 .333.134.333.334v3.714c0 .207-.134.334-.333.334h-5.747c-.126 0-.197.069-.197.204v17.79c0 .193-.126.33-.334.33z"/><path d="m82.9209 209.314c0-.174.1144-.293.2895-.293h3.4757c.2029 0 .3761.09.4924.293l6.9535 12.398h.1432v-12.398c0-.174.1171-.293.2915-.293h3.2715c.1756 0 .29.119.29.293v19.115c0 .174-.1144.29-.29.29h-3.4459c-.2342 0-.3766-.088-.4918-.29l-6.9834-12.368h-.1452v12.368c0 .174-.1144.29-.288.29h-3.2735c-.1751 0-.2895-.116-.2895-.29z"/><path d="m113.32 221.362-2.23-6.891h-.086l-2.23 6.891zm-4.432-12.048c.06-.174.175-.293.377-.293h3.65c.204 0 .318.119.376.293l6.663 19.115c.057.174 0 .29-.203.29h-3.766c-.202 0-.319-.088-.377-.29l-1.128-3.445h-6.895l-1.101 3.445c-.057.202-.176.29-.378.29h-3.792c-.204 0-.262-.116-.204-.29z"/><path d="m126.984 228.719c-.173 0-.289-.116-.289-.29v-15.44c0-.115-.058-.17-.174-.17h-4.982c-.175 0-.29-.119-.29-.292v-3.213c0-.174.115-.293.29-.293h14.571c.177 0 .288.119.288.293v3.213c0 .173-.111.292-.288.292h-4.983c-.114 0-.175.055-.175.17v15.44c0 .174-.115.29-.289.29z"/><path d="m141.036 221.479v-12.165c0-.174.117-.293.29-.293h3.678c.172 0 .29.119.29.293v12.277c0 2.348 1.302 3.681 3.305 3.681 1.968 0 3.272-1.333 3.272-3.681v-12.277c0-.174.114-.293.289-.293h3.678c.176 0 .291.119.291.293v12.165c0 4.892-3.129 7.56-7.53 7.56-4.433 0-7.563-2.668-7.563-7.56z"/><path d="m172.072 215.134c0-1.476-1.042-2.434-2.664-2.434h-3.473c-.121 0-.178.057-.178.174v4.549c0 .113.057.174.178.174h3.473c1.622 0 2.664-.955 2.664-2.463zm.319 13.585c-.261 0-.348-.088-.434-.29l-3.388-7.215h-2.634c-.121 0-.178.062-.178.176v7.039c0 .174-.117.29-.288.29h-3.678c-.177 0-.292-.116-.292-.29v-19.115c0-.174.115-.293.292-.293h7.848c4.026 0 6.696 2.516 6.696 6.113 0 2.518-1.337 4.518-3.508 5.471l3.879 7.766c.089.176 0 .348-.201.348z"/><path d="m85.3319 242.737h1.7635c.9468 0 1.4502-.506 1.4502-1.341 0-.819-.5034-1.343-1.4502-1.343h-1.7635c-.0625 0-.0929.035-.0929.098v2.492c0 .062.0304.094.0929.094zm1.6386-4.465c.8832 0 1.4042-.471 1.4042-1.259 0-.786-.521-1.245-1.4042-1.245h-1.6386c-.0625 0-.0929.033-.0929.1v2.314c0 .063.0304.09.0929.09zm-4.0496-4.219c0-.093.0651-.16.1568-.16h4.1769c2.3329 0 3.4186 1.152 3.4186 2.851 0 1.169-.5358 1.895-1.2441 2.285v.035c.7083.264 1.4354 1.147 1.4354 2.426 0 2.111-1.403 3.122-3.7219 3.122h-4.0649c-.0917 0-.1568-.063-.1568-.155z"/><path d="m93.7393 234.053c0-.093.0636-.16.158-.16h6.8707c.097 0 .156.067.156.16v1.682c0 .096-.059.162-.156.162h-4.6171c-.0624 0-.0963.027-.0963.094v2.127c0 .064.0339.095.0963.095h3.8462c.0939 0 .1549.059.1549.159v1.67c0 .089-.061.158-.1549.158h-3.8462c-.0624 0-.0963.031-.0963.092v2.222c0 .067.0339.096.0963.096h4.6171c.097 0 .156.066.156.157v1.69c0 .092-.059.155-.156.155h-6.8707c-.0944 0-.158-.063-.158-.155z"/><path d="m106.941 244.612c-.094 0-.158-.063-.158-.155v-8.402c0-.064-.031-.097-.094-.097h-2.711c-.096 0-.157-.061-.157-.157v-1.748c0-.093.061-.16.157-.16h7.927c.096 0 .159.067.159.16v1.748c0 .096-.063.157-.159.157h-2.709c-.066 0-.097.033-.097.097v8.402c0 .092-.061.155-.155.155z"/><path d="m114.925 234.053c0-.093.063-.16.158-.16h6.872c.094 0 .156.067.156.16v1.682c0 .096-.062.162-.156.162h-4.619c-.061 0-.091.027-.091.094v2.127c0 .064.03.095.091.095h3.845c.097 0 .158.059.158.159v1.67c0 .089-.061.158-.158.158h-3.845c-.061 0-.091.031-.091.092v2.222c0 .067.03.096.091.096h4.619c.094 0 .156.066.156.157v1.69c0 .092-.062.155-.156.155h-6.872c-.095 0-.158-.063-.158-.155z"/><path d="m124.879 243.318c-.061-.065-.095-.174-.015-.268l1.2-1.369c.06-.078.154-.078.234-.018.709.568 1.671 1.104 2.807 1.104 1.119 0 1.747-.52 1.747-1.277 0-.63-.375-1.025-1.655-1.198l-.566-.081c-2.177-.298-3.389-1.321-3.389-3.213 0-1.967 1.482-3.275 3.799-3.275 1.417 0 2.743.424 3.642 1.111.094.072.108.13.033.244l-.966 1.435c-.062.076-.14.092-.219.041-.818-.536-1.607-.819-2.49-.819-.945 0-1.435.492-1.435 1.167 0 .615.44 1.011 1.672 1.183l.565.08c2.208.3 3.374 1.311 3.374 3.247 0 1.941-1.433 3.371-4.209 3.371-1.669 0-3.292-.66-4.129-1.465z"/><path d="m136.604 234.053c0-.093.058-.16.154-.16h2c.1 0 .16.067.16.16v4.629l3.561-4.644c.077-.114.143-.145.265-.145h2.29c.092 0 .139.112.06.205l-3.244 4.067 3.546 6.259c.064.112.013.188-.098.188h-2.314c-.126 0-.173-.032-.24-.143l-2.425-4.508-1.401 1.766v2.73c0 .092-.06.155-.16.155h-2c-.096 0-.154-.063-.154-.155z"/><path d="m152.369 232.631c-.095 0-.155-.063-.155-.154v-1.548c0-.089.06-.156.155-.156h1.415c.096 0 .158.067.158.156v1.548c0 .091-.062.154-.158.154zm.802 8.923c.127-.381.173-.901.173-2.299 0-1.405-.046-1.927-.173-2.304-.236-.743-.802-1.183-1.688-1.183-.881 0-1.452.44-1.684 1.183-.126.377-.175.899-.175 2.304 0 1.398.049 1.918.175 2.299.232.739.803 1.183 1.684 1.183.886 0 1.452-.444 1.688-1.183zm-4.001-8.923c-.098 0-.16-.063-.16-.154v-1.548c0-.089.062-.156.16-.156h1.417c.092 0 .158.067.158.156v1.548c0 .091-.066.154-.158.154zm-1.593 9.553c-.238-.743-.3-1.34-.3-2.929 0-1.594.062-2.193.3-2.93.551-1.736 2.034-2.602 3.906-2.602 1.877 0 3.358.866 3.909 2.602.239.737.301 1.336.301 2.93 0 1.589-.062 2.186-.301 2.929-.551 1.736-2.032 2.599-3.909 2.599-1.872 0-3.355-.863-3.906-2.599z"/><path d="m161.107 244.612c-.094 0-.158-.063-.158-.155v-8.402c0-.064-.028-.097-.094-.097h-2.712c-.096 0-.157-.061-.157-.157v-1.748c0-.093.061-.16.157-.16h7.929c.092 0 .156.067.156.16v1.748c0 .096-.064.157-.156.157h-2.71c-.064 0-.093.033-.093.097v8.402c0 .092-.066.155-.161.155z"/><path d="m171.707 244.612c-.094 0-.161-.063-.161-.155v-8.402c0-.064-.029-.097-.091-.097h-2.71c-.096 0-.157-.061-.157-.157v-1.748c0-.093.061-.16.157-.16h7.927c.095 0 .158.067.158.16v1.748c0 .096-.063.157-.158.157h-2.711c-.065 0-.095.033-.095.097v8.402c0 .092-.062.155-.155.155z"/></g></g></svg>