<svg fill="none" height="192.36501" viewBox="0 0 260 192.365" width="260" xmlns="http://www.w3.org/2000/svg" xmlns:xlink="http://www.w3.org/1999/xlink"><clipPath id="a"><path d="m0 0h260v263.45901h-260z"/></clipPath><g clip-path="url(#a)"><path d="m13.5999 73.6461c-2.6802 7.1656-4.11031 14.6861-4.13017 22.4386h241.28427v-.0275c-.021-8.0566-1.591-15.8498-4.461-23.2442l-58.44 14.3545c-1.03-3.5035-2.71-6.7983-4.871-9.9335l51.082-25.1303c-5.541-6.7566-12.291-12.9293-20.061-18.3573l-41.961 32.4209c-3.1-2.2624-6.55-4.2227-10.27-5.9347l31.4-38.1846c-7.91-3.5157-16.44-6.3874-25.42-8.5196l-18.4 42.3809c-4.07-1.0152-8.3-1.7497-12.711-2.0895l7.061-44.08368c-4.471-.35808-8.99-.55643-13.601-.55643-4.03 0-8.02.13936-11.959.43029l5.51 44.19662c-4.311.3449-8.46 1.0519-12.451 2.0193l-18.3299-42.3829c-8.9102 2.0925-17.3601 4.8879-25.2307 8.3262l31.2412 38.2711c-3.8103 1.7334-7.3604 3.7039-10.5409 5.9968l-41.9903-32.3904c-7.7503 5.4108-14.4999 11.5245-20.0304 18.2556l51.0308 25.1577c-2.29 3.2725-4.0702 6.7668-5.12 10.4574z" fill="#fcd211"/><path d="m193.173 22.0521-31.401 38.1806c3.72 1.7111 7.171 3.6723 10.272 5.9347l41.949-32.4168c-6.31-4.42-13.289-8.3547-20.82-11.6985zm-179.5724 51.5942 58.6313 13.8723c1.0498-3.6917 2.8296-7.1859 5.12-10.4584l-51.0209-25.1577c-5.5401 6.723-9.8499 14.0228-12.7304 21.7438zm130.0924-63.89682-7.051 44.07052c4.411.3397 8.641 1.0742 12.711 2.0915l18.39-42.3687c-7.7-1.832-15.74-3.1219-24.05-3.79332zm-97.3316 23.89732 41.9804 32.3914c3.18-2.2939 6.7302-4.2643 10.5405-5.9977l-31.2305-38.2711c-7.7105 3.3813-14.8409 7.3812-21.2904 11.8774zm46.5203-20.1935 18.3203 42.3727c3.99-.9674 8.141-1.6744 12.451-2.0192l-5.511-44.19667c-8.73.62357-17.18 1.93887-25.2603 3.84317zm90.1013 63.7808c2.161 3.1352 3.84 6.4301 4.871 9.9325l58.44-14.3484c-2.85-7.3364-6.979-14.2873-12.24-20.7052z" fill="#1c63b7"/><path d="m250.523 101.662c.14-1.8103.23-3.6332.23-5.4612v-.116h-241.28327v.116c0 1.2685.03973 2.5187.10967 3.777.1804 2.8072.5201 5.5932 1.0602 8.3282 4.1003 21.122 18.7302 39.843 39.9709 53.286l.0099.015c.0199.034.0497.034.06.046 1.27.794 2.5603 1.586 3.8799 2.352.0898.041.1598.079.2504.139 1.2799.744 2.6095 1.472 3.9299 2.175.1096.059.1994.121.3.163.0099.017.0199.017.0199.017 1.3602.717 2.7299 1.406 4.1203 2.082.0298.021.06.021.0798.031.0497.028.0997.041.1399.072 2.88 1.385 5.8401 2.664 8.8803 3.877.0099 0 .0099 0 .0298.011.0298.019.06.019.0898.036 1.4503.587 2.9203 1.117 4.4203 1.657.0401.009.0898.042.1399.054.1101.046.2002.072.3.099 1.44.519 2.9.999 4.3802 1.473.2101.066.41.127.6099.203 1.45.442 2.9401.893 4.4203 1.305.2197.055.4399.119.65.163 1.5001.417 3.0101.81 4.5399 1.196.0799.013.1697.022.2599.056.0699.015.1399.029.2297.061 1.6006.362 3.2004.731 4.8308 1.06.0298 0 .0397.017.07.017 1.6295.333 3.2797.633 4.9497.924.05 0 .11.018.17.027.09.012.17.031.25.043 1.58.261 3.17.509 4.779.738.161.016.291.038.441.055.089.02.19.033.29.041 1.58.205 3.16.395 4.76.565.09 0 .16.01.26.01.18.036.36.049.55.062 1.59.161 3.201.304 4.81.402.26.035.55.046.811.056 1.639.107 3.289.208 4.95.262h.12c.149 0 .3.017.459.017 1.741.056 3.491.088 5.25.088 1.851 0 3.661-.032 5.501-.105.149 0 .309 0 .46-.012 1.74-.06 3.469-.143 5.19-.26.219-.011.44-.046.679-.054 1.66-.116 3.331-.265 4.981-.44.25-.016.5-.036.759-.071 1.621-.174 3.231-.358 4.851-.578.269-.038.53-.068.809-.112 1.602-.233 3.201-.474 4.791-.762.23-.031.45-.09.679-.116 1.621-.292 3.231-.577 4.801-.913.11-.027.24-.062.361-.082.069-.017.149-.036.209-.039 1.62-.349 3.25-.725 4.87-1.11.03-.019.07-.019.11-.035.06-.011.12-.026.199-.045 3.351-.849 6.642-1.778 9.871-2.819.07-.017.15-.062.21-.077 1.59-.5 3.139-1.034 4.691-1.61.109-.027.239-.087.35-.117 1.509-.56 2.989-1.138 4.48-1.731.13-.056.259-.102.379-.156 1.47-.604 2.91-1.231 4.35-1.862.12-.053.231-.111.361-.174 1.429-.648 2.859-1.309 4.25-1.998.089-.042.17-.099.258-.142h.022c1.419-.705 2.829-1.444 4.219-2.206.011 0 .031-.017.06-.032.011 0 .011-.013.021-.013 25.99-14.223 43.78-35.864 47.24-60.514l.03-.009c.15-1.12.27-2.248.38-3.386z" fill="#0b905a"/><g fill="#fff"><path d="m167.752 13.5286c8.981 2.1322 17.51 5.0039 25.42 8.5195v.004c7.531 3.3437 14.511 7.2785 20.821 11.6984l.01-.004c7.771 5.4281 14.52 11.6008 20.061 18.3574l-.01.0091c5.259 6.4168 9.389 13.3688 12.24 20.7042v-.0041c2.869 7.3944 4.439 15.1886 4.46 23.2443v.1444c0 1.827-.09 3.6499-.231 5.4602-.11 1.137-.23 2.266-.38 3.386l-.03.009c-3.459 24.651-21.25 46.291-47.24 60.514-.01 0-.01.015-.02.015-.03.012-.05.03-.06.03-1.39.763-2.801 1.503-4.22 2.206h-.02c-.09.042-.171.1-.26.142-1.39.689-2.82 1.351-4.25 1.997-.13.064-.241.122-.361.175-1.439.631-2.88 1.258-4.35 1.862-.119.055-.249.099-.379.157-1.49.592-2.97 1.171-4.48 1.729-.111.032-.241.091-.35.118-1.551.576-3.101 1.11-4.69 1.611-.061.013-.14.059-.211.076-3.229 1.04-6.52 1.97-9.87 2.819-.08.02-.139.035-.2.046-.04.015-.079.015-.109.033-1.62.385-3.251.762-4.87 1.111-.06.003-.141.022-.21.04-.121.019-.251.055-.361.081-1.57.337-3.18.621-4.801.913-.228.026-.449.085-.679.117-1.59.287-3.189.53-4.79.761-.28.045-.539.074-.81.114-1.619.219-3.23.402-4.849.576-.261.036-.511.055-.761.071-1.65.174-3.32.324-4.981.439-.239.009-.459.044-.679.055-1.72.117-3.45.201-5.19.26-.151.014-.31.014-.46.014-1.84.071-3.65.103-5.5.103-1.76 0-3.51-.032-5.25-.086-.16 0-.31-.017-.46-.017h-.12c-1.66-.056-3.31-.157-4.95-.264-.261-.01-.55-.021-.811-.056-1.609-.098-3.219-.241-4.809-.402-.191-.014-.37-.026-.551-.062-.099 0-.17-.009-.259-.009-1.6-.17-3.181-.359-4.761-.567-.1-.007-.199-.019-.289-.04-.15-.015-.281-.039-.44-.055-1.611-.229-3.201-.478-4.78-.738-.081-.01-.161-.03-.251-.043-.06-.009-.12-.027-.17-.027-1.67-.29-3.3191-.591-4.9495-.923-.0302 0-.0402-.017-.07-.017-1.6303-.332-3.2301-.699-4.8299-1.062-.0902-.031-.1602-.046-.2301-.059-.0906-.036-.1804-.044-.2603-.057-1.5298-.385-3.0399-.779-4.5399-1.195-.2102-.046-.4303-.109-.65-.164-1.4798-.412-2.97-.863-4.4203-1.305-.1999-.077-.3998-.135-.6099-.203-1.4798-.474-2.9402-.954-4.3802-1.473-.0998-.028-.1896-.054-.3-.1-.0501-.011-.0998-.044-.1399-.052-1.5-.542-2.97-1.071-4.42-1.657-.0301-.018-.0599-.018-.0901-.037-.0199-.012-.0199-.012-.0298-.012-3.0399-1.212-6.0003-2.491-8.8803-3.875-.0402-.032-.0898-.045-.1399-.072-.0198-.012-.0501-.012-.0799-.032-1.3899-.675-2.7601-1.366-4.1202-2.081 0 0-.01 0-.0199-.019-.0998-.042-.1904-.102-.3001-.163-1.3204-.702-2.6499-1.429-3.9298-2.174-.0899-.058-.1602-.098-.2504-.138-1.3197-.767-2.6099-1.559-3.8799-2.353-.01-.012-.0402-.012-.06-.045l-.01-.016c-21.2402-13.443-35.8705-32.164-39.9704-53.284-.5401-2.737-.88022-5.524-1.05983-8.3301-.07033-1.2584-.11046-2.5096-.11046-3.7761v-.117c.01986-7.7524 1.44999-15.273 4.13019-22.4386 2.8797-7.7209 7.1903-15.0207 12.73-21.7437h-.01c5.5305-6.7312 12.2802-12.8449 20.0305-18.2557h.0098c6.45-4.4962 13.5804-8.4961 21.2901-11.8774h-.0099c7.7203-3.3763 16.0205-6.1209 24.7407-8.195-.0099 0-.0099 0-.0099.003.1696-.0437.3297-.0885.4998-.1322l.01.0081c8.0797-1.9043 16.5307-3.2196 25.2607-3.84318 3.94-.29094 7.929-.42927 11.96-.42927 4.61 0 9.13.19734 13.6.5554l-.01.01322c8.31.67143 16.351 1.96123 24.05 3.79333m-37.75-13.54370027c-70.8712.01831057-129.682055 41.93530027-129.992 96.17120027.309945 54.2817 59.1406 96.1947 129.992 96.1947 70.89 0 129.702-41.913 130.012-96.1947-.31-54.2359-59.112-96.1528897-130.012-96.17120027z"/><path d="m167.191 158.075c0 .202.141.34.341.34h14.8c.21 0 .33-.138.33-.34v-3.706c0-.194-.12-.332-.33-.332h-10.03c-.13 0-.2-.065-.2-.198v-17.813c0-.197-.13-.332-.32-.332h-4.25c-.2 0-.341.135-.341.332z"/><path d="m147.562 158.075c0 .202.121.34.33.34h14.799c.191 0 .332-.138.332-.34v-3.706c0-.194-.141-.332-.332-.332h-10.029c-.13 0-.2-.065-.2-.198v-17.813c0-.197-.13-.332-.33-.332h-4.24c-.209 0-.33.135-.33.332z"/><path d="m134.952 158.075c0 .202.141.34.34.34h4.241c.199 0 .34-.138.34-.34v-22.049c0-.197-.141-.332-.34-.332h-4.241c-.199 0-.34.135-.34.332z"/><path d="m110.791 153.265c1.171 3.672 4.31 5.513 8.35 5.513 4.01 0 7.151-2.043 8.3-5.679.391-1.237.551-3.113.551-5.106v-1.881c0-.197-.131-.331-.331-.331h-7.82c-.19 0-.329.134-.329.331v3.222c0 .2.139.325.329.325h3.081c.13 0 .2.064.2.198 0 .966-.101 1.669-.271 2.24-.47 1.508-1.929 2.345-3.639 2.345-1.971 0-3.211-.938-3.71-2.511-.271-.808-.371-1.911-.371-4.878 0-2.978.1-4.054.371-4.841.499-1.572 1.709-2.546 3.639-2.546 1.87 0 3.011.805 3.911 2.345.07.17.24.232.47.17l3.579-1.511c.2-.096.23-.3.131-.501-1.07-2.744-3.84-4.835-8.091-4.835-4.04 0-7.179 1.821-8.35 5.502-.5 1.578-.63 2.834-.63 6.217 0 3.368.13 4.645.63 6.212z"/><path d="m98.2812 158.075c0 .202.1402.34.3397.34h4.2401c.2 0 .34-.138.34-.34v-22.049c0-.197-.14-.332-.34-.332h-4.2401c-.1995 0-.3397.135-.3397.332z"/><path d="m83.1814 158.778c5.8802 0 8.9205-3.028 8.9205-7.151 0-4.105-2.4701-6.249-7.1503-6.887l-1.1999-.164c-2.6104-.367-3.5402-1.203-3.5402-2.495 0-1.441 1.03-2.48 3.0399-2.48 1.8703 0 3.54.598 5.2702 1.743.1696.095.3401.061.4696-.104l2.0401-3.046c.1606-.232.1303-.371-.0699-.501-1.8998-1.465-4.7099-2.359-7.71-2.359-4.9199 0-8.0598 2.763-8.0598 6.943 0 4.005 2.5698 6.183 7.1895 6.814l1.2001.174c2.7099.367 3.5103 1.191 3.5103 2.532 0 1.605-1.3399 2.714-3.7098 2.714-2.4101 0-4.4402-1.142-5.9501-2.348-.1606-.135-.36-.135-.5003.035l-2.54 2.909c-.1697.209-.0997.436.0302.573 1.7798 1.692 5.2197 3.098 8.7599 3.098z"/><path d="m183.852 139.143c0-.471-.269-.721-.859-.721h-1.11c-.07 0-.091.027-.091.103v1.258c0 .049.021.095.091.095h1.11c.59 0 .859-.269.859-.735zm-2.83 3.669c-.099 0-.17-.049-.17-.174v-4.873c0-.125.071-.176.17-.176h1.971c1.13 0 1.799.57 1.799 1.554 0 .713-.389 1.233-1.03 1.452l1.051 2.043c.05.101 0 .174-.09.174h-.701c-.089 0-.17-.049-.219-.174l-.98-1.926h-.94c-.07 0-.091.025-.091.1v1.826c0 .125-.079.174-.18.174zm5.521-2.583c0-2.25-1.65-3.88-3.871-3.88-2.22 0-3.869 1.63-3.869 3.88 0 2.244 1.649 3.913 3.869 3.913 2.221 0 3.871-1.669 3.871-3.913zm-8.57 0c0-2.663 2.04-4.692 4.699-4.692 2.691 0 4.69 2.029 4.69 4.692 0 2.686-1.999 4.723-4.69 4.723-2.659 0-4.699-2.037-4.699-4.723z"/><path d="m53.9111 127.253c-.1303-.135-.2003-.372-.0302-.569l2.53-2.903c.1402-.165.3401-.165.5002-.027 1.5101 1.202 3.5501 2.325 5.9502 2.325 2.3695 0 3.7098-1.088 3.7098-2.695 0-1.34-.8003-2.178-3.5103-2.546l-1.2001-.17c-4.6098-.634-7.1898-2.794-7.1898-6.816 0-4.169 3.1403-6.951 8.0601-6.951 3 0 5.8098.907 7.7204 2.379.1994.128.23.269.0699.501l-2.0504 3.032c-.1296.166-.3.201-.4696.103-1.7302-1.125-3.4003-1.728-5.2703-1.728-2.0004 0-3.0399 1.025-3.0399 2.466 0 1.305.9299 2.141 3.5401 2.508l1.2001.166c4.6798.641 7.1502 2.768 7.1502 6.886 0 4.105-3.0407 7.155-8.9205 7.155-3.5401 0-6.9801-1.405-8.7499-3.116z"/><path d="m82.4709 129.998c-.2301 0-.37-.134-.4403-.331l-7.2201-22.031c-.0601-.233.0698-.367.3099-.367h4.3404c.2396 0 .37.098.4399.335l4.5399 14.91h.1005l4.4096-14.91c.0699-.237.2003-.335.4403-.335h4.3098c.2003 0 .3401.134.2701.367l-7.22 22.031c-.07.197-.2003.331-.3998.331z"/><path d="m99.1318 107.604c0-.201.1303-.336.3298-.336h14.5714c.199 0 .329.135.329.336v3.583c0 .201-.13.336-.329.336h-9.791c-.14 0-.2.073-.2.198v4.508c0 .137.06.204.2.204h8.15c.2 0 .341.132.341.336v3.533c0 .201-.141.335-.341.335h-8.15c-.14 0-.2.061-.2.202v4.708c0 .129.06.202.2.202h9.791c.199 0 .329.128.329.33v3.587c0 .197-.13.333-.329.333h-14.5714c-.1995 0-.3298-.136-.3298-.333z"/><path d="m120.632 107.604c0-.201.129-.336.329-.336h4.01c.23 0 .431.099.57.336l8.021 14.305h.17v-14.305c0-.201.13-.336.33-.336h3.77c.199 0 .339.135.339.336v22.062c0 .197-.14.333-.339.333h-3.97c-.27 0-.43-.101-.57-.333l-8.05-14.273h-.17v14.273c0 .197-.13.333-.33.333h-3.781c-.2 0-.329-.136-.329-.333z"/><path d="m144.041 127.253c-.139-.135-.199-.372-.029-.569l2.531-2.903c.139-.165.338-.165.508-.027 1.501 1.202 3.531 2.325 5.941 2.325 2.38 0 3.7-1.088 3.7-2.695 0-1.34-.79-2.178-3.499-2.546l-1.211-.17c-4.599-.634-7.18-2.794-7.18-6.816 0-4.169 3.139-6.951 8.06-6.951 3.01 0 5.81.907 7.72 2.379.201.128.231.269.071.501l-2.051 3.032c-.13.166-.3.201-.47.103-1.74-1.125-3.4-1.728-5.27-1.728-2.009 0-3.05 1.025-3.05 2.466 0 1.305.94 2.141 3.55 2.508l1.2.166c4.68.641 7.16 2.768 7.16 6.886 0 4.105-3.05 7.155-8.929 7.155-3.55 0-6.981-1.405-8.752-3.116z"/><path d="m167.651 107.604c0-.201.131-.336.332-.336h4.24c.199 0 .33.135.33.336v9.832l7.559-9.863c.17-.237.3-.305.57-.305h4.84c.2 0 .301.237.131.439l-6.881 8.622 7.521 13.271c.13.233.029.399-.201.399h-4.91c-.269 0-.369-.063-.5-.302l-5.14-9.561-2.989 3.749v5.781c0 .197-.131.333-.33.333h-4.24c-.201 0-.332-.136-.332-.333z"/><path d="m195.363 129.998c-.201 0-.34-.134-.34-.331v-17.807c0-.139-.071-.202-.201-.202h-5.749c-.201 0-.33-.135-.33-.336v-3.718c0-.201.129-.335.33-.335h16.82c.2 0 .33.134.33.335v3.718c0 .201-.13.336-.33.336h-5.75c-.131 0-.2.063-.2.202v17.807c0 .197-.13.331-.33.331z"/></g></g></svg>