<?xml version="1.0" encoding="UTF-8"?>
<!-- Created with Inkscape (http://www.inkscape.org/) -->
<svg width="90" height="90" version="1.1" viewBox="0 0 90 90" xml:space="preserve" xmlns="http://www.w3.org/2000/svg" xmlns:cc="http://creativecommons.org/ns#" xmlns:dc="http://purl.org/dc/elements/1.1/" xmlns:rdf="http://www.w3.org/1999/02/22-rdf-syntax-ns#"><metadata><rdf:RDF><cc:Work rdf:about=""><dc:format>image/svg+xml</dc:format><dc:type rdf:resource="http://purl.org/dc/dcmitype/StillImage"/><dc:title/></cc:Work></rdf:RDF></metadata><g transform="matrix(1.3333 0 0 -1.3333 -31.534 121.56)"><g transform="matrix(.058777 0 0 .058777 23.65 23.67)"><path d="m614.17 1086.9 49.344 54.44 30.293-67.11 57.226 46.08 19.434-71.03 63.742 36.54 8.086-73.19 68.68 26.11-3.45-73.552 71.887 15.04-14.883-72.11 73.349 3.602-25.99-68.895 73.03-7.93-36.43-63.964 70.88-19.278-45.97-57.461 66.99-30.144-54.39-49.563 61.44-40.265-61.48-40.45 54.43-49.382-67.07-30.313 46.04-57.285-70.96-19.453 36.5-63.789-73.11-8.078 26.08-68.75-73.475 3.461 15.007-71.965-72.031 14.914 3.586-73.449-68.828 26.019-7.93-73.09-63.926 36.469-19.257-70.938-57.43 46.02-30.109-67.063-49.532 54.461-40.211-61.52-40.421 61.539-49.336-54.481-30.293 67.09-57.246-46.047-19.434 70.988-63.742-36.52-8.098 73.192-68.66-26.09 3.445 73.543-71.902-15.039 14.902 72.121-73.371-3.606 25.988 68.907-73.027 7.929 36.426 63.946-70.879 19.297 45.996 57.48-67.012 30.117 54.402 49.571-61.473 40.273 61.473 40.43-54.402 49.375 67.051 30.332-46.035 57.304 70.965 19.453-36.512 63.79 73.125 8.085-26.086 68.731 73.481-3.438-15.024 71.961 72.043-14.91-3.574 73.426 68.828-26.02 7.93 73.1 63.926-36.46 19.257 70.94 57.434-46.02 30.105 67.06 49.532-54.42 40.23 61.48 40.426-61.55" fill="#ed1639"/><path d="m71.934 574.21c0 277.36 224.65 502.21 501.79 502.21 277.13 0 501.78-224.85 501.78-502.21s-224.65-502.2-501.78-502.2c-277.14 0-501.79 224.84-501.79 502.2" fill="#fddd1b"/><path d="m71.934 574.21c0 277.36 224.65 502.21 501.79 502.21 277.13 0 501.78-224.85 501.78-502.21s-224.65-502.2-501.78-502.2c-277.14 0-501.79 224.84-501.79 502.2" fill="#fddd1b"/><path d="m231.9 574.45c0 188.8 152.93 341.87 341.6 341.87 188.64 0 341.56-153.07 341.56-341.87 0-188.82-152.92-341.86-341.56-341.86-188.66 0-341.6 153.05-341.6 341.86" fill="#ed1639"/><path d="m231.9 574.45c0 188.8 152.93 341.87 341.6 341.87 188.64 0 341.56-153.07 341.56-341.87 0-188.82-152.92-341.86-341.56-341.86-188.66 0-341.6 153.05-341.6 341.86" fill="#ed1639"/><g fill="#fddd1b"><path d="m829.86 733.57-10.5 30.293-10.105-30.312-32.715-0.012 26.523-18.777-10.175-30.285 26.523 18.781 26.426-18.781-9.707 30.207 26.074 18.855-32.344 0.031"/><path d="m724.73 833.03-10.496 30.286-10.117-30.301-32.734-0.024 26.523-18.777-10.156-30.273 26.523 18.769 26.414-18.769-9.714 30.187 26.093 18.863-32.336 0.039"/><path d="m582.31 872.3-10.508 30.293-10.106-30.321h-32.742l26.535-18.777-10.168-30.285 26.539 18.777 26.403-18.777-9.707 30.195 26.074 18.867-32.32 0.028"/><path d="m441.57 833.01-10.515 30.301-10.11-30.325-32.722-8e-3 26.523-18.769-10.156-30.293 26.523 18.777 26.414-18.777-9.714 30.207 26.082 18.855-32.325 0.032"/><path d="m336.44 733.57-10.508 30.293-10.11-30.312-32.722-0.012 26.519-18.777-10.164-30.285 26.524 18.781 26.418-18.781-9.707 30.207 26.074 18.855-32.324 0.031"/><path d="m297.46 583.2-10.508 30.305-10.105-30.313-32.739-0.019 26.536-18.77-10.165-30.293 26.524 18.778 26.426-18.778-9.719 30.196 26.074 18.867-32.324 0.027"/><path d="m342.22 446.09-10.52 30.293-10.105-30.313-32.727-0.019 26.524-18.77-10.157-30.293 26.512 18.789 26.43-18.789-9.719 30.196 26.086 18.867-32.324 0.039"/><path d="m435.79 346.65-10.512 30.274-10.105-30.305h-32.727l26.528-18.777-10.168-30.293 26.523 18.789 26.414-18.789-9.703 30.195 26.07 18.875-32.32 0.031"/><path d="m582.31 295.38-10.508 30.293-10.117-30.305h-32.731l26.535-18.777-10.175-30.293 26.527 18.769 26.422-18.769-9.707 30.215 26.074 18.855-32.32 0.012"/><path d="m728.83 346.63-10.515 30.293-10.11-30.305-32.734-0.027 26.543-18.758-10.188-30.293 26.535 18.777 26.426-18.777-9.719 30.184 26.086 18.867-32.324 0.039"/><path d="m822.42 446.09-10.52 30.273-10.117-30.312h-32.722l26.542-18.77-10.195-30.293 26.543 18.789 26.426-18.789-9.707 30.196 26.074 18.867-32.324 0.039"/><path d="m870.53 583.84-10.507 30.301-10.098-30.321-32.734-0.019 26.535-18.758-10.188-30.305 26.543 18.789 26.426-18.789-9.719 30.215 26.067 18.848-32.325 0.039"/><path d="m691.19 393.45c-59.375 62.324-182.67 117.5-328.89 139.61l-0.688 3.73c-1.558 8.867-2.554 17.703-3.015 26.477 151.44-21.75 288.81-79.114 356.21-151.98-7.403-6.445-15.293-12.402-23.614-17.832"/><path d="m600.66 360.32c-27.465 46.836-111.21 92.715-218.03 114.3-5.34 10.274-9.903 21.074-13.582 32.344 122.59-21.133 230.54-74.668 261.65-140.66-6.387-1.738-12.91-3.203-19.57-4.395-3.496-0.605-6.985-1.133-10.469-1.582"/><path d="m399.72 447.08c57.566-15.43 106.43-42.773 122.59-82.266-49.231 12.149-92.762 41.426-122.59 82.266"/><path d="m577.59 566.18c73.976 20.359 148.66 28.074 211.06 22.41 0.508-7.52 0.625-15 0.352-22.395-50.32 4.954-111.02 0.813-174.63-13.64 10.867-4.278 21.504-8.711 31.895-13.289 52.05 8.015 101.62 6.941 139.34-4.114-1.347-7.343-3.078-14.589-5.175-21.699-25.469 7.637-58.77 10.535-96.153 7.871 29.344-14.863 56.153-30.898 79.844-47.929-4.57-8.633-9.707-16.934-15.391-24.864-89.16 64.649-230.01 117.74-389.97 139.99 0.64 9.75 1.929 19.367 3.867 28.789 50.254-7.039 99.246-17.11 145.78-29.762 92.024 32 187.65 48.445 271.57 48.836 2.137-7.149 3.926-14.484 5.352-21.973-72.207 0.332-155.45-11.797-239.53-37.773 10.762-3.34 21.351-6.836 31.793-10.457"/><path d="m829.86 733.57-10.5 30.293-10.105-30.312-32.715-0.012 26.523-18.777-10.175-30.285 26.523 18.781 26.426-18.781-9.707 30.207 26.074 18.855-32.344 0.031"/><path d="m724.73 833.03-10.496 30.286-10.117-30.301-32.734-0.024 26.523-18.777-10.156-30.273 26.523 18.769 26.414-18.769-9.714 30.187 26.093 18.863-32.336 0.039"/><path d="m582.31 872.3-10.508 30.293-10.106-30.321h-32.742l26.535-18.777-10.168-30.285 26.539 18.777 26.403-18.777-9.707 30.195 26.074 18.867-32.32 0.028"/><path d="m441.57 833.01-10.515 30.301-10.11-30.325-32.722-8e-3 26.523-18.769-10.156-30.293 26.523 18.777 26.414-18.777-9.714 30.207 26.082 18.855-32.325 0.032"/><path d="m336.44 733.57-10.508 30.293-10.11-30.312-32.722-0.012 26.519-18.777-10.164-30.285 26.524 18.781 26.418-18.781-9.707 30.207 26.074 18.855-32.324 0.031"/><path d="m297.46 583.2-10.508 30.305-10.105-30.313-32.739-0.019 26.536-18.77-10.165-30.293 26.524 18.778 26.426-18.778-9.719 30.196 26.074 18.867-32.324 0.027"/><path d="m342.22 446.09-10.52 30.293-10.105-30.313-32.727-0.019 26.524-18.77-10.157-30.293 26.512 18.789 26.43-18.789-9.719 30.196 26.086 18.867-32.324 0.039"/><path d="m435.79 346.65-10.512 30.274-10.105-30.305h-32.727l26.528-18.777-10.168-30.293 26.523 18.789 26.414-18.789-9.703 30.195 26.07 18.875-32.32 0.031"/><path d="m582.31 295.38-10.508 30.293-10.117-30.305h-32.731l26.535-18.777-10.175-30.293 26.527 18.769 26.422-18.769-9.707 30.215 26.074 18.855-32.32 0.012"/><path d="m728.83 346.63-10.515 30.293-10.11-30.305-32.734-0.027 26.543-18.758-10.188-30.293 26.535 18.777 26.426-18.777-9.719 30.184 26.086 18.867-32.324 0.039"/><path d="m822.42 446.09-10.52 30.273-10.117-30.312h-32.722l26.542-18.77-10.195-30.293 26.543 18.789 26.426-18.789-9.707 30.196 26.074 18.867-32.324 0.039"/><path d="m870.53 583.84-10.507 30.301-10.098-30.321-32.734-0.019 26.535-18.758-10.188-30.305 26.543 18.789 26.426-18.789-9.719 30.215 26.067 18.848-32.325 0.039"/><path d="m691.19 393.45c-59.375 62.324-182.67 117.5-328.89 139.61l-0.688 3.73c-1.558 8.867-2.554 17.703-3.015 26.477 151.44-21.75 288.81-79.114 356.21-151.98-7.403-6.445-15.293-12.402-23.614-17.832"/><path d="m600.66 360.32c-27.465 46.836-111.21 92.715-218.03 114.3-5.34 10.274-9.903 21.074-13.582 32.344 122.59-21.133 230.54-74.668 261.65-140.66-6.387-1.738-12.91-3.203-19.57-4.395-3.496-0.605-6.985-1.133-10.469-1.582"/><path d="m399.72 447.08c57.566-15.43 106.43-42.773 122.59-82.266-49.231 12.149-92.762 41.426-122.59 82.266"/><path d="m577.59 566.18c73.976 20.359 148.66 28.074 211.06 22.41 0.508-7.52 0.625-15 0.352-22.395-50.32 4.954-111.02 0.813-174.63-13.64 10.867-4.278 21.504-8.711 31.895-13.289 52.05 8.015 101.62 6.941 139.34-4.114-1.347-7.343-3.078-14.589-5.175-21.699-25.469 7.637-58.77 10.535-96.153 7.871 29.344-14.863 56.153-30.898 79.844-47.929-4.57-8.633-9.707-16.934-15.391-24.864-89.16 64.649-230.01 117.74-389.97 139.99 0.64 9.75 1.929 19.367 3.867 28.789 50.254-7.039 99.246-17.11 145.78-29.762 92.024 32 187.65 48.445 271.57 48.836 2.137-7.149 3.926-14.484 5.352-21.973-72.207 0.332-155.45-11.797-239.53-37.773 10.762-3.34 21.351-6.836 31.793-10.457"/></g><g fill="#ed1639"><path d="m257.17 279.7c-2.317 2.473-3.426 5.391-3.32 8.778 0.101 3.378 1.386 6.234 3.851 8.546 2.469 2.325 5.395 3.438 8.774 3.329 3.382-0.106 6.234-1.383 8.55-3.856 2.321-2.461 3.43-5.391 3.328-8.769-0.109-3.379-1.39-6.231-3.859-8.555-2.465-2.317-5.379-3.438-8.754-3.34-3.371 0.098-6.226 1.387-8.57 3.867"/><path d="m219.28 361.26-16.508-23.867 28.754 4.699zm2.305 3.105 13.801-21.601 11.222 1.836c2.766 0.449 4.68 1.015 5.75 1.699 0.856 0.547 1.34 1.426 1.469 2.644 0.125 1.223-0.57 3.235-2.094 6.047l1.524 0.977 11.219-17.578-1.524-0.965c-1.898 2.058-3.398 3.23-4.496 3.504-2.207 0.547-5.875 0.39-10.992-0.481l-58.461-9.695-0.922 1.434 34.02 49.074c2.726 3.945 4.242 6.914 4.539 8.894 0.297 1.985-0.215 4.16-1.528 6.524l1.52 0.968 14.058-22.011-1.519-0.977c-1.531 2.156-2.859 3.418-3.992 3.809-1.125 0.371-2.149 0.273-3.051-0.313-1.207-0.761-2.766-2.527-4.668-5.293l-5.875-8.496"/><path d="m187.42 404.78c-0.371 1.719-0.742 3.223-1.113 4.512s-0.742 2.371-1.114 3.242c-1.32 3.114-3.668 5.293-7.043 6.532-3.367 1.242-6.972 1.046-10.808-0.575-2.637-1.113-4.86-2.695-6.664-4.734-1.805-2.043-2.848-4.289-3.137-6.738-0.281-2.453 0.106-4.946 1.176-7.461 0.644-1.535 1.765-3.371 3.351-5.532zm2.562 1.094 17.758 7.52c3.84 1.629 6.039 3.066 6.614 4.297 0.839 1.699 0.765 3.691-0.215 6.003l-0.992 2.336 1.664 0.703 11.074-26.113-1.66-0.703-0.969 2.285c-1.098 2.578-2.719 4.071-4.863 4.473-1.184 0.195-3.52-0.43-6.996-1.914l-39.379-16.699c-3.832-1.621-6.043-3.039-6.629-4.239-0.821-1.726-0.746-3.75 0.234-6.054l0.973-2.286-1.668-0.714-9.473 22.343c-2.312 5.461-3.574 9.993-3.781 13.625-0.211 3.614 0.558 7.071 2.308 10.364 1.75 3.289 4.458 5.711 8.114 7.254 4.976 2.109 9.719 2.187 14.222 0.234 4.512-1.973 8.036-5.938 10.579-11.934 0.621-1.472 1.191-3.105 1.703-4.902 0.519-1.797 0.976-3.762 1.382-5.879"/><path d="m166.97 461.63c-0.117 1.75-0.27 3.293-0.446 4.629-0.179 1.328-0.386 2.453-0.625 3.359-0.847 3.281-2.851 5.781-6.011 7.5-3.149 1.719-6.742 2.051-10.778 1.008-2.769-0.727-5.199-1.965-7.285-3.711-2.082-1.75-3.445-3.82-4.086-6.203-0.644-2.395-0.621-4.902 0.071-7.559 0.414-1.601 1.254-3.593 2.504-5.957zm2.695 0.703 18.664 4.844c4.035 1.054 6.422 2.148 7.168 3.281 1.074 1.555 1.301 3.547 0.672 5.977l-0.641 2.453 1.746 0.457 7.137-27.461-1.75-0.449-0.625 2.402c-0.703 2.715-2.09 4.414-4.152 5.129-1.145 0.379-3.543 0.086-7.195-0.864l-41.403-10.75c-4.031-1.054-6.426-2.128-7.18-3.242-1.066-1.582-1.285-3.593-0.656-6.015l0.629-2.414-1.75-0.457-6.105 23.496c-1.489 5.73-2.075 10.41-1.75 14.023 0.32 3.613 1.59 6.914 3.8 9.922 2.219 2.988 5.247 4.988 9.094 5.984 5.231 1.36 9.93 0.743 14.102-1.851 4.176-2.602 7.078-7.055 8.715-13.352 0.402-1.543 0.726-3.242 0.972-5.097 0.246-1.856 0.414-3.86 0.508-6.016"/><path d="m126.25 518.64 26.035 2.644-1.476 14.477c-0.379 3.762-1.2 6.211-2.465 7.359-1.66 1.531-4.379 2.203-8.152 2.016l-0.188 1.797 22.93 2.336 0.179-1.797c-3.16-0.781-5.164-1.446-6.031-1.989-1.07-0.699-1.863-1.75-2.375-3.14-0.515-1.395-0.633-3.465-0.351-6.219l1.472-14.469 21.715 2.207c2.914 0.293 4.68 0.606 5.277 0.926 0.606 0.324 1.067 0.832 1.372 1.516 0.304 0.683 0.367 1.933 0.183 3.75l-1.141 11.168c-0.378 3.722-0.91 6.406-1.597 8.035-0.692 1.633-1.875 3.144-3.559 4.547-2.211 1.801-5.445 3.551-9.711 5.246l-0.199 1.941 17.094-4.004 5.168-50.761-1.797-0.188-0.234 2.336c-0.165 1.555-0.684 2.988-1.571 4.309-0.625 0.984-1.472 1.609-2.547 1.875-1.074 0.261-3.214 0.242-6.422-0.09l-42.792-4.356c-4.18-0.429-6.708-1.113-7.598-2.05-1.176-1.297-1.625-3.301-1.348-6.028l0.235-2.332-1.797-0.176-5.164 50.758 14.355 2.196 0.192-1.895c-3.395-1.027-5.7-2.027-6.911-2.984-1.211-0.961-2.078-2.285-2.593-3.969-0.352-1.348-0.364-3.652-0.032-6.922l1.844-18.07"/><path d="m169.14 623.25 0.426 1.594 17.656-6.571-2.602-51.207-1.804 0.094 0.125 2.492c0.144 2.793-0.665 4.836-2.426 6.133-1.004 0.734-3.395 1.199-7.16 1.391l-42.672 2.168c-4.125 0.211-6.735-0.114-7.825-0.973-1.492-1.195-2.304-3.039-2.429-5.547l-0.129-2.484-1.805 0.086 1.524 29.945 1.8-0.09c-0.211-3.512-7e-3 -5.992 0.602-7.441 0.609-1.446 1.426-2.457 2.437-3.031 1.012-0.575 3.489-0.958 7.418-1.161l41.551-2.105c2.699-0.141 4.567 0.027 5.602 0.496 0.703 0.355 1.234 0.93 1.597 1.727 0.368 0.793 0.661 3.324 0.875 7.578l0.247 4.832c0.257 5.074 0.066 8.652-0.579 10.738-0.644 2.082-1.875 4.02-3.691 5.809s-4.727 3.628-8.738 5.527"/><path d="m181.29 686.29 0.66 1.508 16.449-9.188-10.378-50.203-1.77 0.36 0.504 2.445c0.566 2.738 0.078 4.887-1.461 6.433-0.883 0.879-3.176 1.7-6.871 2.465l-41.84 8.653c-4.047 0.836-6.676 0.914-7.883 0.23-1.66-0.953-2.742-2.656-3.25-5.105l-0.504-2.446-1.765 0.368 6.066 29.363 1.77-0.367c-0.743-3.438-0.922-5.918-0.536-7.442 0.379-1.523 1.028-2.652 1.942-3.371 0.914-0.723 3.301-1.48 7.156-2.277l40.742-8.426c2.645-0.547 4.516-0.668 5.61-0.359 0.75 0.242 1.367 0.73 1.847 1.464 0.485 0.727 1.161 3.184 2.024 7.36l0.976 4.734c1.032 4.973 1.379 8.539 1.063 10.699-0.317 2.157-1.235 4.262-2.758 6.301-1.523 2.043-4.121 4.309-7.793 6.801"/><path d="m191.9 737.22-29.011-0.578 20.625-20.575zm3.864-0.059-9.45-23.832 8.059-8.027c1.98-1.981 3.563-3.199 4.746-3.668 0.938-0.371 1.938-0.25 3.004 0.359 1.063 0.613 2.293 2.356 3.68 5.242l1.679-0.671-7.683-19.379-1.68 0.664c0.567 2.754 0.633 4.648 0.207 5.695-0.84 2.117-3.113 5-6.812 8.641l-42.078 41.734 0.628 1.586 59.696 1.129c4.801 0.094 8.09 0.601 9.879 1.519 1.781 0.922 3.246 2.606 4.39 5.063l1.684-0.668-9.629-24.281-1.684 0.664c0.856 2.5 1.102 4.312 0.75 5.457-0.355 1.136-1.031 1.906-2.031 2.301-1.328 0.527-3.672 0.753-7.027 0.683l-10.328-0.211"/><path d="m193.46 826.9 13.805-7.148-0.934-1.609c-2.543 1.062-4.476 1.617-5.805 1.671-2.14 0.075-4.015-0.39-5.628-1.39-1.618-1.008-3.11-2.692-4.481-5.055l-4.672-8.07 43.774-25.352c3.527-2.039 5.945-2.929 7.257-2.676 1.801 0.383 3.344 1.688 4.633 3.915l1.153 1.988 1.562-0.903-14.066-24.296-1.563 0.902 1.172 2.027c1.399 2.426 1.664 4.567 0.785 6.43-0.543 1.137-2.418 2.641-5.629 4.504l-43.773 25.344-3.992-6.883c-1.547-2.676-2.45-4.696-2.707-6.051-0.317-1.773-0.016-3.621 0.902-5.547s2.617-3.73 5.094-5.43l-0.93-1.605-13.047 8.457 27.09 46.777"/><path d="m270.3 821.68 1.441-1.086-17.16-22.602-1.433 1.098 1.418 1.863c1.652 2.18 2.214 4.242 1.691 6.192-0.356 1.254-2.113 3.082-5.277 5.484l-34.067 25.863c-2.672 2.028-4.562 3.192-5.676 3.504-0.843 0.235-1.804 0.129-2.879-0.32-1.492-0.668-2.707-1.625-3.652-2.871l-1.418-1.867-1.437 1.093 17.152 22.594 1.438-1.094-1.446-1.902c-1.633-2.152-2.183-4.203-1.668-6.152 0.34-1.282 2.09-3.118 5.254-5.52l34.067-25.863c2.671-2.027 4.562-3.199 5.675-3.512 0.844-0.234 1.817-0.109 2.91 0.363 1.469 0.645 2.676 1.586 3.622 2.832l1.445 1.903"/><path d="m252.23 894.08c-4.196-4.18-6.012-9.09-5.45-14.73 0.703-7.024 4.778-14.27 12.215-21.743 7.629-7.656 15.133-11.914 22.524-12.785 5.636-0.629 10.519 1.11 14.652 5.223 4.402 4.387 6.328 9.73 5.773 16.027-0.55 6.293-4.515 13.145-11.886 20.547-7.992 8.028-15.539 12.438-22.621 13.235-5.664 0.609-10.735-1.317-15.207-5.774zm-1.856 3.18c6.082 6.07 13.668 9.008 22.734 8.832 9.067-0.18 17.047-3.731 23.942-10.645 7.098-7.129 10.742-15.281 10.933-24.468 0.188-9.184-2.914-16.957-9.296-23.321-6.461-6.433-14.172-9.543-23.137-9.328-8.965 0.207-17.074 3.957-24.336 11.25-7.422 7.445-10.938 16.055-10.551 25.809 0.336 8.472 3.574 15.761 9.711 21.871"/><path d="m285.15 928.46 14.852 10.109 61.406-18.265-21.488 31.562c-2.289 3.363-4.098 5.207-5.414 5.527-1.77 0.45-3.727-0.05-5.879-1.523l-1.895-1.289-1.019 1.496 19.051 12.969 1.015-1.496-1.937-1.317c-2.317-1.578-3.477-3.394-3.492-5.449-8e-3 -1.266 1.035-3.434 3.121-6.5l31.41-46.133-1.453-0.992-66.09 19.512 22.941-33.703c2.293-3.368 4.082-5.215 5.379-5.555 1.789-0.434 3.75 0.074 5.871 1.52l1.942 1.32 1.015-1.496-19.05-12.969-1.012 1.492 1.89 1.289c2.344 1.598 3.524 3.426 3.539 5.485 4e-3 1.261-1.039 3.429-3.125 6.496l-25.91 38.058c-2.855 0.778-4.89 1.184-6.113 1.219-1.227 0.027-2.809-0.234-4.742-0.809-0.945-0.285-2.211-0.972-3.797-2.054l-1.016 1.496"/><path d="m423.4 938.2c4.196 0.563 7.61 1.321 10.239 2.281 7.093 2.586 12.07 7.231 14.933 13.922 2.856 6.696 2.731 14.305-0.386 22.836-3.133 8.594-7.95 14.512-14.434 17.758-6.488 3.246-13.398 3.531-20.738 0.852-2.754-1.008-5.727-2.594-8.918-4.762zm-16.109-10.976-0.617 1.699 2.336 0.851c2.633 0.961 4.191 2.485 4.676 4.567 0.304 1.254-0.184 3.64-1.465 7.156l-14.668 40.18c-1.418 3.883-2.738 6.16-3.946 6.828-1.687 0.906-3.707 0.93-6.062 0.07l-2.34-0.851-0.617 1.699 25.316 9.242c9.297 3.396 16.754 4.916 22.371 4.576 5.618-0.34 10.797-2.43 15.547-6.279 4.746-3.844 8.297-8.996 10.657-15.445 3.16-8.657 3.168-16.844 0.031-24.575-3.535-8.636-11.344-15.164-23.426-19.57l-27.793-10.148"/><path d="m472.62 989.9-5.918 13.452c-1.66 3.72-2.652 6.26-2.972 7.62-0.485 2.03-0.426 3.6 0.179 4.71 0.606 1.12 1.617 1.85 3.043 2.18 1.426 0.34 2.715 0.16 3.871-0.56 1.157-0.7 1.918-1.82 2.282-3.34 0.277-1.17 0.554-4.15 0.824-8.94l0.781-14.618-2.09-0.504"/><path d="m519.22 1023.6c-5.883-0.69-10.34-3.44-13.379-8.22-3.785-5.96-5.055-14.18-3.809-24.652 1.282-10.726 4.555-18.715 9.832-23.953 4.051-3.98 8.961-5.621 14.754-4.933 6.172 0.734 10.985 3.746 14.434 9.043 3.453 5.293 4.558 13.128 3.328 23.507-1.336 11.248-4.551 19.378-9.637 24.378-4.078 3.97-9.254 5.58-15.523 4.83zm0.5 3.66c8.535 1.01 16.312-1.35 23.34-7.09 7.023-5.73 11.113-13.45 12.269-23.149 1.188-9.988-0.976-18.656-6.5-26-5.515-7.343-12.754-11.547-21.711-12.609-9.047-1.074-17.035 1.234-23.957 6.93-6.926 5.703-10.992 13.66-12.207 23.875-1.242 10.437 1.297 19.383 7.625 26.823 5.492 6.45 12.539 10.19 21.141 11.22"/><path d="m585.84 996.69c0.605-0.039 1.152-0.078 1.601-0.121 0.45-0.047 0.821-0.078 1.114-0.093 6.308-0.387 11.14 0.687 14.511 3.222 3.36 2.531 5.176 5.911 5.43 10.141 0.254 4.12-0.828 7.55-3.262 10.3-2.421 2.74-5.761 4.24-10.019 4.5-1.875 0.11-4.453-0.04-7.703-0.46zm44.851-36.836-17.644 1.079-20.481 32.261c-1.668 0.039-3.015 0.086-4.05 0.153-0.43 0.023-0.879 0.058-1.368 0.105-0.488 0.047-0.988 0.102-1.503 0.168l-1.172-19.203c-0.254-4.16 0.043-6.77 0.898-7.832 1.145-1.508 2.949-2.336 5.422-2.488l2.586-0.157-0.117-1.8-28.317 1.726 0.114 1.805 2.484-0.152c2.793-0.172 4.852 0.617 6.164 2.363 0.742 0.965 1.231 3.332 1.461 7.097l2.602 42.7c0.253 4.16-0.043 6.77-0.891 7.83-1.18 1.51-3.024 2.34-5.524 2.49l-2.484 0.15 0.109 1.81 24.079-1.47c7.019-0.43 12.156-1.26 15.425-2.49 3.274-1.22 5.981-3.28 8.137-6.16 2.149-2.89 3.113-6.24 2.891-10.04-0.254-4.06-1.797-7.51-4.629-10.335-2.82-2.828-7.051-4.688-12.688-5.582l12.493-19.793c2.851-4.543 5.351-7.598 7.507-9.164 2.16-1.571 5.032-2.66 8.606-3.266l-0.11-1.805"/><path d="m660.61 954.78-0.34-1.777-27.863 5.344 0.344 1.769 2.305-0.437c2.675-0.516 4.785-0.11 6.289 1.23 0.976 0.871 1.828 3.262 2.578 7.16l8.047 42.004c0.625 3.3 0.84 5.51 0.625 6.64-0.164 0.86-0.684 1.68-1.563 2.45-1.269 1.03-2.656 1.7-4.199 1.99l-2.305 0.44 0.352 1.78 27.851-5.34-0.332-1.78-2.351 0.46c-2.656 0.5-4.738 0.09-6.262-1.25-0.996-0.86-1.855-3.25-2.605-7.15l-8.059-42.009c-0.625-3.289-0.84-5.504-0.625-6.641 0.168-0.859 0.703-1.676 1.621-2.445 1.231-1.031 2.609-1.695 4.141-1.988l2.351-0.45"/><path d="m742.79 998.49-5.02-20.359-1.621 0.539c0.02 5.488-0.839 9.918-2.597 13.285-2.52 4.863-6.719 8.277-12.586 10.247-8 2.68-15.129 1.55-21.418-3.384-5.274-4.175-9.16-9.949-11.621-17.324-2.012-5.988-2.676-11.844-2.024-17.554 0.657-5.715 2.485-10.348 5.461-13.903 2.981-3.558 6.446-5.996 10.391-7.316 2.324-0.778 4.66-1.239 7.012-1.375 2.363-0.137 4.726 0.031 7.121 0.5l6.082 18.148c1.054 3.149 1.504 5.289 1.347 6.422-0.156 1.133-0.644 2.121-1.472 2.969-0.832 0.844-2.512 1.691-5.051 2.539l0.598 1.758 24.304-8.141-0.586-1.762-1.164 0.391c-2.41 0.805-4.324 0.555-5.761-0.746-1.004-0.942-2.059-3.086-3.192-6.453l-6.433-19.211c-4.192-0.731-8.168-0.957-11.926-0.695-3.75 0.261-7.742 1.105-11.973 2.519-12.129 4.063-20.039 11.039-23.73 20.93-2.774 7.414-2.871 14.933-0.325 22.554 1.848 5.524 4.954 10.379 9.309 14.547 5.156 4.967 11.035 8.157 17.617 9.547 5.488 1.15 11.367 0.67 17.637-1.43 2.285-0.77 4.297-1.64 6.047-2.64 1.746-1 4.109-2.7 7.117-5.113 1.504-1.227 2.559-1.942 3.144-2.141 0.586-0.195 1.172-0.094 1.778 0.309 0.597 0.402 1.211 1.371 1.828 2.914l1.707-0.571"/><path d="m759.45 917.72-0.801-1.621-25.468 12.488 0.8 1.629 2.102-1.039c2.449-1.2 4.59-1.36 6.394-0.473 1.165 0.594 2.618 2.672 4.368 6.234l18.836 38.407c1.472 3.011 2.254 5.09 2.351 6.246 0.07 0.867-0.222 1.789-0.867 2.761-0.945 1.333-2.117 2.344-3.523 3.032l-2.102 1.031 0.793 1.621 25.477-12.488-0.801-1.621-2.149 1.05c-2.422 1.188-4.55 1.34-6.355 0.45-1.195-0.575-2.668-2.645-4.406-6.207l-18.836-38.407c-1.477-3.011-2.258-5.093-2.356-6.246-0.058-0.871 0.235-1.8 0.918-2.785 0.918-1.312 2.07-2.32 3.477-3.008l2.148-1.054"/><path d="m797.27 971.89 14.934-9.992 6.035-63.778 21.231 31.738c2.265 3.383 3.3 5.747 3.105 7.09-0.242 1.809-1.445 3.434-3.613 4.883l-1.914 1.274 1.015 1.503 19.153-12.812-1.008-1.504-1.941 1.305c-2.336 1.558-4.446 1.957-6.36 1.203-1.18-0.473-2.805-2.246-4.863-5.328l-31.035-46.395-1.453 0.981-6.641 68.586-22.668-33.887c-2.266-3.383-3.312-5.738-3.145-7.066 0.274-1.825 1.473-3.45 3.614-4.883l1.953-1.297-1.016-1.504-19.148 12.812 1.004 1.504 1.906-1.277c2.352-1.574 4.488-1.984 6.402-1.227 1.172 0.469 2.793 2.239 4.856 5.325l25.605 38.273c-0.351 2.934-0.742 4.977-1.172 6.121-0.421 1.149-1.257 2.516-2.519 4.098-0.613 0.765-1.719 1.683-3.32 2.754l1.003 1.5"/><path d="m879.78 906.39-18.047-18.957 10.547-10.036c2.735-2.601 4.961-3.929 6.66-3.976 2.254-0.086 4.766 1.176 7.5 3.777l1.309-1.246-15.879-16.691-1.309 1.242c1.883 2.648 2.989 4.461 3.282 5.434 0.363 1.234 0.285 2.539-0.235 3.933-0.527 1.391-1.777 3.039-3.789 4.945l-10.539 10.036-15.047-15.813c-2.011-2.121-3.152-3.504-3.398-4.144-0.254-0.641-0.274-1.321-0.059-2.036 0.215-0.722 0.977-1.711 2.305-2.968l8.137-7.743c2.703-2.582 4.851-4.265 6.445-5.05 1.59-0.793 3.465-1.172 5.652-1.137 2.852 0.066 6.446 0.848 10.789 2.336l1.418-1.348-15.586-8.086-36.961 35.172 1.239 1.309 1.699-1.614c1.133-1.078 2.461-1.828 4.004-2.25 1.113-0.339 2.156-0.261 3.144 0.235 0.997 0.496 2.598 1.91 4.825 4.246l29.648 31.164c2.891 3.039 4.375 5.207 4.434 6.5 0.047 1.75-0.918 3.57-2.891 5.453l-1.699 1.613 1.238 1.309 36.965-35.172-9.473-11.012-1.367 1.317c1.895 2.992 3.008 5.246 3.301 6.762 0.293 1.511 0.09 3.078-0.625 4.695-0.606 1.258-2.09 3.012-4.473 5.277l-13.164 12.524"/><path d="m921.29 815.73c0.703-1.613 1.348-3.019 1.953-4.214 0.613-1.203 1.184-2.192 1.707-2.973 1.887-2.813 4.602-4.508 8.156-5.082 3.543-0.578 7.051 0.293 10.508 2.621 2.371 1.598 4.258 3.563 5.645 5.906 1.387 2.344 1.98 4.75 1.797 7.211-0.188 2.469-1.035 4.836-2.559 7.102-0.937 1.383-2.383 2.976-4.348 4.797zm-2.305-1.554-16.004-10.754c-3.468-2.324-5.351-4.149-5.683-5.465-0.5-1.828-0.051-3.781 1.355-5.859l1.407-2.11-1.496-1.008-15.829 23.547 1.504 1.004 1.387-2.062c1.563-2.328 3.438-3.481 5.625-3.465 1.191 0.023 3.359 1.09 6.504 3.199l35.488 23.856c3.457 2.328 5.371 4.132 5.711 5.425 0.481 1.856 0.031 3.821-1.375 5.899l-1.387 2.07 1.504 1.008 13.535-20.145c3.301-4.914 5.403-9.132 6.29-12.648 0.898-3.516 0.8-7.059-0.301-10.621-1.098-3.559-3.293-6.449-6.594-8.66-4.48-3.02-9.121-3.992-13.926-2.922-4.797 1.07-9.004 4.305-12.636 9.711-0.899 1.324-1.758 2.816-2.61 4.488-0.848 1.664-1.668 3.508-2.469 5.512"/><path d="m952.73 763.46c0.261-0.563 0.476-1.059 0.652-1.477 0.176-0.421 0.312-0.765 0.437-1.031 2.629-5.742 5.864-9.5 9.68-11.277 3.828-1.774 7.656-1.785 11.504-0.02 3.762 1.723 6.27 4.301 7.551 7.731 1.277 3.429 1.023 7.082-0.754 10.961-0.781 1.718-2.129 3.91-4.031 6.582zm-11.36-56.926-7.363 16.07 18.809 33.27c-0.743 1.48-1.336 2.695-1.778 3.645-0.176 0.382-0.351 0.8-0.547 1.25-0.183 0.453-0.371 0.921-0.566 1.41l-17.481-8.02c-3.789-1.73-5.957-3.226-6.484-4.476-0.801-1.719-0.676-3.707 0.359-5.954l1.079-2.351-1.641-0.75-11.816 25.789 1.636 0.754 1.047-2.27c1.152-2.543 2.82-3.98 4.981-4.32 1.203-0.199 3.515 0.488 6.953 2.063l38.886 17.816c3.789 1.734 5.95 3.227 6.485 4.477 0.781 1.75 0.644 3.765-0.41 6.039l-1.036 2.265 1.641 0.754 10.059-21.93c2.929-6.39 4.621-11.316 5.078-14.781 0.449-3.457-0.078-6.82-1.613-10.082-1.532-3.262-4.032-5.683-7.489-7.269-3.703-1.696-7.461-1.957-11.289-0.797-3.828 1.168-7.461 4.019-10.906 8.566l-11.574-20.344c-2.664-4.656-4.18-8.304-4.551-10.941-0.359-2.641 0.027-5.684 1.172-9.133l-1.641-0.75"/><path d="m1012.2 688.32c-1.45 5.75-4.75 9.821-9.89 12.219-6.382 2.992-14.683 3.199-24.918 0.625-10.488-2.637-17.988-6.902-22.5-12.812-3.437-4.516-4.433-9.606-3.007-15.254 1.503-6.032 5.117-10.418 10.8-13.164 5.703-2.75 13.614-2.848 23.75-0.297 10.977 2.761 18.635 6.988 22.935 12.668 3.42 4.55 4.37 9.894 2.83 16.015zm3.67-0.027c2.11-8.336 0.76-16.352-4.04-24.055-4.79-7.699-11.918-12.742-21.391-15.125-9.758-2.457-18.633-1.41-26.621 3.121-7.988 4.536-13.074 11.176-15.273 19.922-2.227 8.836-0.957 17.055 3.808 24.649 4.766 7.597 12.149 12.644 22.117 15.156 10.2 2.566 19.387 1.184 27.58-4.137 7.1-4.625 11.71-11.133 13.82-19.531"/><path d="m1028.9 584.37-15.42-1.93-0.15 1.848c2.7 0.57 4.61 1.211 5.73 1.914 1.81 1.152 3.09 2.602 3.85 4.34 0.76 1.742 1.04 3.977 0.83 6.699l-0.72 9.305-50.432-3.918c-4.063-0.316-6.563-0.953-7.5-1.906-1.27-1.34-1.797-3.289-1.602-5.852l0.176-2.293-1.797-0.14-2.18 27.992 1.809 0.144 0.176-2.34c0.215-2.789 1.211-4.703 2.988-5.742 1.094-0.629 3.496-0.804 7.195-0.519l50.437 3.918-0.62 7.933c-0.23 3.086-0.64 5.262-1.19 6.52-0.74 1.64-2.04 2.992-3.89 4.058-1.84 1.063-4.28 1.598-7.27 1.59l-0.15 1.848 15.55 0.426 4.18-53.895"/><path d="m1047.8 528.2-15.79 15.563 0.12 1.656 16.44-6.305zm-23.62 22.477-26.103 1.851-1.035-14.515c-0.262-3.766 0.125-6.325 1.172-7.672 1.379-1.797 3.946-2.918 7.696-3.379l-0.14-1.797-22.986 1.621 0.137 1.797c3.242 0.234 5.332 0.547 6.277 0.93 1.184 0.504 2.141 1.394 2.883 2.683s1.211 3.313 1.407 6.071l1.035 14.511-21.778 1.543c-2.922 0.203-4.707 0.203-5.359-0.011-0.656-0.215-1.184-0.633-1.613-1.258-0.41-0.621-0.684-1.84-0.821-3.664l-0.793-11.2c-0.261-3.738-0.191-6.461 0.207-8.187 0.403-1.731 1.309-3.43 2.727-5.09 1.863-2.156 4.754-4.434 8.672-6.836l-0.149-1.941-16.152 6.863 3.606 50.902 1.804-0.125-0.168-2.339c-0.105-1.559 0.157-3.063 0.813-4.512 0.437-1.074 1.172-1.836 2.187-2.285 1.004-0.446 3.125-0.782 6.328-1.012l42.906-3.035c4.2-0.297 6.81-0.059 7.85 0.715 1.37 1.082 2.16 2.98 2.36 5.711l0.17 2.335 1.79-0.125-3.59-50.898-14.53 0.293 0.13 1.895c3.53 0.441 5.97 1.027 7.33 1.757 1.36 0.743 2.44 1.895 3.23 3.477 0.58 1.262 0.99 3.535 1.22 6.816l1.28 18.11"/><path d="m1010.4 438.75-20.702 3.348 0.41 1.652c5.469 0.426 9.805 1.648 13.032 3.68 4.63 2.91 7.69 7.363 9.18 13.379 2.01 8.183 0.31 15.203-5.12 21.074-4.59 4.922-10.654 8.301-18.205 10.176-6.133 1.503-12.024 1.699-17.656 0.578-5.645-1.125-10.118-3.313-13.418-6.575-3.301-3.261-5.45-6.914-6.446-10.957-0.586-2.375-0.859-4.738-0.8-7.097 0.058-2.356 0.41-4.707 1.074-7.051l18.586-4.582c3.23-0.801 5.398-1.074 6.511-0.828 1.114 0.242 2.063 0.808 2.832 1.707 0.782 0.898 1.485 2.656 2.129 5.234l1.797-0.437-6.133-24.895-1.804 0.449 0.293 1.192c0.601 2.461 0.203 4.355-1.223 5.672-1.016 0.929-3.242 1.808-6.68 2.66l-19.675 4.851c-1.067 4.121-1.614 8.059-1.664 11.817-0.047 3.769 0.468 7.82 1.535 12.148 3.066 12.422 9.375 20.879 18.925 25.352 7.168 3.371 14.661 4.082 22.461 2.168 5.664-1.406 10.741-4.102 15.251-8.086 5.37-4.746 9.03-10.352 10.96-16.785 1.58-5.395 1.58-11.293 0-17.707-0.57-2.344-1.29-4.414-2.14-6.231-0.85-1.824-2.35-4.336-4.52-7.519-1.09-1.602-1.72-2.707-1.87-3.301-0.14-0.606 0-1.192 0.45-1.758 0.44-0.559 1.47-1.086 3.06-1.582l-0.43-1.746"/><path d="m1004.8 370.73-9.556 20 0.684 1.524 13.312-11.524zm-14.556 29.18-23.925 10.613-5.899-13.289c-1.543-3.457-2.043-5.996-1.515-7.617 0.675-2.148 2.707-4.082 6.085-5.801l-0.742-1.64-21.054 9.343 0.722 1.653c3.137-0.891 5.215-1.309 6.231-1.27 1.269 0.078 2.48 0.586 3.625 1.543 1.133 0.957 2.261 2.696 3.386 5.235l5.899 13.3-19.942 8.848c-2.675 1.191-4.355 1.797-5.039 1.816-0.683 0.02-1.336-0.195-1.945-0.632-0.601-0.442-1.277-1.496-2.019-3.168l-4.551-10.262c-1.524-3.418-2.395-6.016-2.598-7.773-0.215-1.758 0.059-3.653 0.82-5.704 1.036-2.668 2.969-5.793 5.84-9.375l-0.8-1.789-12.852 11.965 20.715 46.633 1.648-0.734-0.957-2.149c-0.625-1.426-0.887-2.93-0.769-4.512 0.047-1.164 0.476-2.128 1.277-2.89s2.676-1.797 5.613-3.106l39.321-17.461c3.836-1.711 6.375-2.375 7.605-1.992 1.672 0.535 3.059 2.063 4.16 4.563l0.957 2.136 1.649-0.73-20.711-46.633-13.555 5.215 0.781 1.738c3.457-0.781 5.957-1.062 7.481-0.84 1.523 0.235 2.929 0.957 4.219 2.168 0.976 0.989 2.128 2.989 3.457 5.997l7.382 16.601"/><path d="m957.6 336.76-21.895 14.324-7.969-12.168c-2.07-3.164-2.968-5.586-2.714-7.266 0.332-2.246 2.011-4.472 5.078-6.711l-0.996-1.511-19.289 12.617 0.988 1.523c2.949-1.386 4.929-2.14 5.937-2.257 1.282-0.133 2.559 0.187 3.828 0.941 1.27 0.762 2.676 2.293 4.18 4.617l7.969 12.168-18.262 11.953c-2.441 1.602-4.004 2.473-4.687 2.598-0.664 0.137-1.348 0.027-2.012-0.313-0.664-0.332-1.504-1.269-2.5-2.793l-6.152-9.394c-2.051-3.145-3.321-5.559-3.809-7.254-0.488-1.711-0.527-3.625-0.098-5.773 0.586-2.793 1.993-6.192 4.239-10.196l-1.067-1.633-10.769 13.879 27.949 42.696 1.504-0.996-1.281-1.954c-0.848-1.308-1.356-2.754-1.493-4.336-0.136-1.152 0.137-2.175 0.801-3.066 0.664-0.879 2.344-2.207 5.039-3.965l35.996-23.554c3.516-2.305 5.918-3.36 7.2-3.184 1.726 0.262 3.347 1.543 4.832 3.828l1.289 1.965 1.511-0.988-27.937-42.696-12.539 7.325 1.047 1.589c3.289-1.336 5.711-2.011 7.254-2.031 1.543-0.019 3.046 0.461 4.511 1.457 1.114 0.82 2.578 2.606 4.375 5.352l9.942 15.207"/><path d="m886.86 274.41c-2.343-2.441-5.214-3.691-8.601-3.738-3.391-0.063-6.289 1.094-8.723 3.445-2.441 2.356-3.679 5.215-3.73 8.606-0.059 3.386 1.094 6.297 3.437 8.719 2.364 2.441 5.227 3.679 8.614 3.742 3.378 0.047 6.289-1.094 8.718-3.45 2.434-2.351 3.684-5.214 3.75-8.593 0.071-3.36-1.082-6.282-3.465-8.731"/></g></g></g></svg>
