<?xml version="1.0" encoding="UTF-8" standalone="no"?>
<!-- Created with Inkscape (http://www.inkscape.org/) -->

<svg
   version="1.1"
   id="svg1"
   width="167.05333"
   height="124.72"
   viewBox="0 0 167.05333 124.72"
   sodipodi:docname="1.6(FH).eps"
   xmlns:inkscape="http://www.inkscape.org/namespaces/inkscape"
   xmlns:sodipodi="http://sodipodi.sourceforge.net/DTD/sodipodi-0.dtd"
   xmlns="http://www.w3.org/2000/svg"
   xmlns:svg="http://www.w3.org/2000/svg">
  <defs
     id="defs1" />
  <sodipodi:namedview
     id="namedview1"
     pagecolor="#ffffff"
     bordercolor="#000000"
     borderopacity="0.25"
     inkscape:showpageshadow="2"
     inkscape:pageopacity="0.0"
     inkscape:pagecheckerboard="0"
     inkscape:deskcolor="#d1d1d1">
    <inkscape:page
       x="0"
       y="0"
       inkscape:label="1"
       id="page1"
       width="167.05333"
       height="124.72"
       margin="0"
       bleed="0" />
  </sodipodi:namedview>
  <g
     id="g1"
     inkscape:groupmode="layer"
     inkscape:label="1">
    <g
       id="group-R5">
      <path
         id="path2"
         d="M 2.49609,2.49609 V 932.934 H 1250.42 V 2.49609 H 2.49609"
         style="fill:#ffffff;fill-opacity:1;fill-rule:nonzero;stroke:none"
         transform="matrix(0.13333333,0,0,-0.13333333,0,124.72)" />
      <path
         id="path3"
         d="M 1252.91,935.434 H 0 V 0 h 1252.91 v 935.434 z m -5,-5 V 5 H 5 v 925.434 h 1242.91"
         style="fill:#231f20;fill-opacity:1;fill-rule:nonzero;stroke:none"
         transform="matrix(0.13333333,0,0,-0.13333333,0,124.72)" />
      <path
         id="path4"
         d="M 611.234,567.73 C 581.242,643.484 522.555,705.07 448.957,738.477 H 1210.02 V 567.73 H 611.234"
         style="fill:#ffffff;fill-opacity:1;fill-rule:nonzero;stroke:none"
         transform="matrix(0.13333333,0,0,-0.13333333,0,124.72)" />
      <path
         id="path5"
         d="M 1212.51,740.977 H 436.828 c 78.899,-32.11 141.602,-95.926 172.699,-175.75 h 602.983 v 175.75 z m -5,-4.997 V 570.227 H 612.926 C 583.902,642.395 529.004,701.645 460.031,735.98 h 747.479"
         style="fill:#231f20;fill-opacity:1;fill-rule:nonzero;stroke:none"
         transform="matrix(0.13333333,0,0,-0.13333333,0,124.72)" />
      <path
         id="path6"
         d="M 1212.51,541.977 V 366.23 H 619.027 c 7.602,27.106 11.7,55.715 11.7,85.321 0,31.41 -4.598,61.82 -13.297,90.426 h 595.08"
         style="fill:#231f20;fill-opacity:1;fill-rule:nonzero;stroke:none"
         transform="matrix(0.13333333,0,0,-0.13333333,0,124.72)" />
      <path
         id="path7"
         d="m 459.895,169.73 c 70.125,35.278 125.566,96.895 153.273,170.747 H 1210.02 V 169.73 H 459.895"
         style="fill:#ffffff;fill-opacity:1;fill-rule:nonzero;stroke:none"
         transform="matrix(0.13333333,0,0,-0.13333333,0,124.72)" />
      <path
         id="path8"
         d="M 1212.51,342.977 H 611.43 C 582.629,264.855 523.727,201.539 448.93,167.23 h 763.58 v 175.747 z m -5,-5 V 172.227 H 470.051 c 65.894,35.914 117.937,95.234 144.844,165.75 h 592.615"
         style="fill:#231f20;fill-opacity:1;fill-rule:nonzero;stroke:none"
         transform="matrix(0.13333333,0,0,-0.13333333,0,124.72)" />
      <path
         id="path9"
         d="m 702.879,910.777 h 19.336 L 708.484,890.605 H 695.32 Z m 28.992,-26.054 V 868.195 H 696.16 V 844.66 h 33.613 V 828.129 H 696.16 v -26.895 h 37.117 v -16.527 h -57.293 v 100.016 h 55.887"
         style="fill:#231f20;fill-opacity:1;fill-rule:nonzero;stroke:none"
         transform="matrix(0.13333333,0,0,-0.13333333,0,124.72)" />
      <path
         id="path10"
         d="m 746.98,884.723 h 19.329 V 784.707 H 746.98 v 100.016"
         style="fill:#231f20;fill-opacity:1;fill-rule:nonzero;stroke:none"
         transform="matrix(0.13333333,0,0,-0.13333333,0,124.72)" />
      <path
         id="path11"
         d="m 819.668,830.934 c -0.422,11.484 -1.828,17.929 -9.809,17.929 -7.703,0 -9.949,-7.984 -9.949,-14.992 v -2.937 z M 799.91,819.445 v -6.019 c 0,-8.824 2.383,-17.512 9.531,-17.512 6.446,0 9.102,4.902 10.227,14.145 h 17.359 c -0.691,-17.508 -9.101,-27.317 -27.312,-27.317 -28.008,0 -29.133,21.574 -29.133,40.344 0,20.172 3.93,38.945 29.981,38.945 22.55,0 27.589,-15.129 27.589,-38.242 v -4.344 H 799.91"
         style="fill:#231f20;fill-opacity:1;fill-rule:nonzero;stroke:none"
         transform="matrix(0.13333333,0,0,-0.13333333,0,124.72)" />
      <path
         id="path12"
         d="m 887.43,860.07 h 19.336 l -18.914,-75.363 h -22.407 l -19.468,75.363 h 20.164 l 10.793,-53.933 h 0.269 l 10.227,53.933"
         style="fill:#231f20;fill-opacity:1;fill-rule:nonzero;stroke:none"
         transform="matrix(0.13333333,0,0,-0.13333333,0,124.72)" />
      <path
         id="path13"
         d="m 941.91,889.063 h 19.328 l -13.722,-20.172 h -13.172 z m 11.77,-58.129 c -0.418,11.484 -1.828,17.929 -9.805,17.929 -7.703,0 -9.953,-7.984 -9.953,-14.992 v -2.937 z m -19.758,-11.489 v -6.019 c 0,-8.824 2.383,-17.512 9.531,-17.512 6.445,0 9.102,4.902 10.227,14.145 h 17.363 c -0.691,-17.508 -9.102,-27.317 -27.316,-27.317 -28.004,0 -29.129,21.574 -29.129,40.344 0,20.172 3.925,38.945 29.968,38.945 22.559,0 27.598,-15.129 27.598,-38.242 v -4.344 h -38.242"
         style="fill:#231f20;fill-opacity:1;fill-rule:nonzero;stroke:none"
         transform="matrix(0.13333333,0,0,-0.13333333,0,124.72)" />
      <path
         id="path14"
         d="m 1059.12,830.934 c -0.42,11.484 -1.83,17.929 -9.81,17.929 -7.7,0 -9.95,-7.984 -9.95,-14.992 v -2.937 z m -19.76,-11.489 v -6.019 c 0,-8.824 2.39,-17.512 9.53,-17.512 6.45,0 9.11,4.902 10.23,14.145 h 17.36 c -0.69,-17.508 -9.1,-27.317 -27.31,-27.317 -28.01,0 -29.13,21.574 -29.13,40.344 0,20.172 3.92,38.945 29.98,38.945 22.55,0 27.59,-15.129 27.59,-38.242 v -4.344 h -38.25"
         style="fill:#231f20;fill-opacity:1;fill-rule:nonzero;stroke:none"
         transform="matrix(0.13333333,0,0,-0.13333333,0,124.72)" />
      <path
         id="path15"
         d="m 1091.17,860.07 h 18.49 v -8.824 h 0.28 c 4.06,7.422 11.06,10.785 19.19,10.785 12.05,0 19.19,-6.586 19.19,-21.433 v -55.891 h -19.33 v 51.969 c 0,7.562 -2.53,10.508 -8.27,10.508 -6.58,0 -10.22,-4.063 -10.22,-12.473 v -50.004 h -19.33 v 75.363"
         style="fill:#231f20;fill-opacity:1;fill-rule:nonzero;stroke:none"
         transform="matrix(0.13333333,0,0,-0.13333333,0,124.72)" />
      <path
         id="path16"
         d="m 692.242,436.996 v -2.937 c 0,-9.387 2.668,-15.411 13.313,-15.411 6.164,0 12.043,3.918 12.043,12.325 0,9.101 -4.621,12.468 -17.93,17.09 -17.934,6.164 -26.191,13.582 -26.191,30.253 0,19.473 11.902,29.414 30.957,29.414 17.925,0 30.953,-7.699 30.953,-26.894 v -2.801 h -19.324 c 0,9.387 -3.223,14.852 -10.926,14.852 -9.114,0 -11.496,-5.746 -11.496,-11.625 0,-6.168 1.828,-9.946 10.371,-13.59 l 15.547,-6.719 c 15.129,-6.582 19.05,-14.289 19.05,-26.476 0,-21.153 -12.886,-30.68 -34.734,-30.68 -22.832,0 -31.797,10.652 -31.797,29.141 v 4.058 h 20.164"
         style="fill:#ffffff;fill-opacity:1;fill-rule:nonzero;stroke:none"
         transform="matrix(0.13333333,0,0,-0.13333333,0,124.72)" />
      <path
         id="path17"
         d="m 790.273,414.586 h -0.285 c -4.062,-7.422 -11.066,-10.789 -19.191,-10.789 -12.051,0 -19.188,6.59 -19.188,21.433 v 55.887 h 19.329 v -51.961 c 0,-7.566 2.515,-10.508 8.269,-10.508 6.582,0 10.227,4.063 10.227,12.461 v 50.008 h 19.324 v -75.359 h -18.485 v 8.828"
         style="fill:#ffffff;fill-opacity:1;fill-rule:nonzero;stroke:none"
         transform="matrix(0.13333333,0,0,-0.13333333,0,124.72)" />
      <path
         id="path18"
         d="m 861.414,453.941 c 0,7.286 -1.406,15.129 -8.684,15.129 -9.531,0 -11.074,-8.398 -11.074,-25.773 0,-18.625 1.692,-26.328 10.371,-26.328 6.45,0 9.387,5.461 9.387,17.644 h 18.488 c 0,-19.746 -8.265,-30.816 -28.714,-30.816 -19.336,0 -28.856,9.383 -28.856,39.644 0,30.954 12.742,39.641 30.535,39.641 17.793,0 27.035,-11.348 27.035,-29.141 h -18.488"
         style="fill:#ffffff;fill-opacity:1;fill-rule:nonzero;stroke:none"
         transform="matrix(0.13333333,0,0,-0.13333333,0,124.72)" />
      <path
         id="path19"
         d="m 893.465,481.117 h 18.484 v -10.086 h 0.285 c 3.926,7.285 9.383,12.051 17.364,12.051 1.121,0 2.382,-0.141 3.504,-0.285 v -18.488 c -1.961,0.14 -4.063,0.281 -6.024,0.281 -6.719,0 -14.285,-3.5 -14.285,-13.586 v -45.246 h -19.328 v 75.359"
         style="fill:#ffffff;fill-opacity:1;fill-rule:nonzero;stroke:none"
         transform="matrix(0.13333333,0,0,-0.13333333,0,124.72)" />
      <path
         id="path20"
         d="m 979.879,451.988 c -0.418,11.481 -1.824,17.922 -9.805,17.922 -7.703,0 -9.949,-7.98 -9.949,-14.98 v -2.942 z m -19.754,-11.496 v -6.015 c 0,-8.825 2.383,-17.508 9.531,-17.508 6.446,0 9.102,4.902 10.223,14.14 h 17.363 c -0.691,-17.507 -9.101,-27.312 -27.312,-27.312 -28.008,0 -29.133,21.57 -29.133,40.34 0,20.172 3.93,38.945 29.973,38.945 22.558,0 27.597,-15.133 27.597,-38.242 v -4.348 h -38.242"
         style="fill:#ffffff;fill-opacity:1;fill-rule:nonzero;stroke:none"
         transform="matrix(0.13333333,0,0,-0.13333333,0,124.72)" />
      <path
         id="path21"
         d="m 1026.08,430.414 v -2.519 c 0,-6.59 3.5,-10.926 10.08,-10.926 5.89,0 9.8,2.937 9.8,8.965 0,4.902 -3.22,7.14 -7,8.543 l -13.58,4.902 c -10.65,3.781 -16.11,10.363 -16.11,21.008 0,12.465 7.85,22.695 27.73,22.695 17.51,0 25.78,-7.848 25.78,-21.437 v -3.075 h -17.37 c 0,7.559 -2.25,11.34 -8.55,11.34 -4.9,0 -9.1,-2.801 -9.1,-8.117 0,-3.641 1.95,-6.727 8.4,-8.828 l 11.63,-3.926 c 12.19,-4.062 16.67,-10.223 16.67,-21.562 0,-15.832 -11.77,-23.68 -28.02,-23.68 -21.71,0 -27.73,9.527 -27.73,23.953 v 2.664 h 17.37"
         style="fill:#ffffff;fill-opacity:1;fill-rule:nonzero;stroke:none"
         transform="matrix(0.13333333,0,0,-0.13333333,0,124.72)" />
      <path
         id="path22"
         d="M 470.816,354.027 C 419.242,266.164 306.117,236.707 218.355,288.293 130.496,339.867 101.027,453.094 152.602,540.953 204.188,628.715 316.441,657.969 405.27,606.609 494.086,555.352 522.5,441.801 470.816,354.027 Z M 435.559,659.824 C 318.402,728.652 169.055,689.688 100.129,572.523 39.8555,468.516 62.8906,338.523 150.422,263.16 L 51.8672,97.5547 C 42.0664,80.8242 48.1836,59.3008 65.3203,50.2266 L 88.9648,37.7109 C 105.266,29.082 125.469,34.9922 134.551,51.043 l 93.48,166.469 c 109.559,-39.434 234.258,3.73 294.832,106.883 68.731,117.14 29.95,266.613 -87.304,335.429"
         style="fill:#231f20;fill-opacity:1;fill-rule:nonzero;stroke:none"
         transform="matrix(0.13333333,0,0,-0.13333333,0,124.72)" />
      <path
         id="path23"
         d="m 362.137,113.414 c 0,8.992 -3.242,15.223 -13.321,15.223 -8.867,0 -14.152,-4.793 -14.152,-13.907 0,-24.1089 40.422,-9.714 40.422,-41.023 0,-19.7851 -14.512,-25.4218 -26.633,-25.4218 -20.027,0 -25.898,10.3164 -25.898,28.5468 h 10.547 c 0,-9.6015 0.605,-19.9101 16.078,-19.9101 8.394,0 14.871,5.9922 14.871,15.1054 0,24.2305 -40.422,10.1954 -40.422,41.6207 0,7.918 3.359,23.625 25.07,23.625 16.309,0 23.75,-8.156 23.985,-23.859 h -10.547"
         style="fill:#231f20;fill-opacity:1;fill-rule:nonzero;stroke:none"
         transform="matrix(0.13333333,0,0,-0.13333333,0,124.72)" />
      <path
         id="path24"
         d="m 414.938,84.9883 c -3.719,-3.957 -12.598,-4.7969 -17.157,-7.5625 -3.234,-2.0391 -4.914,-4.5586 -4.914,-10.1953 0,-6.4727 2.278,-11.0352 9.113,-11.0352 6.602,0 12.958,5.6445 12.958,12.2383 z m -31.063,9.832 c 0,14.6287 6.23,21.1017 21.582,21.1017 19.551,0 19.551,-11.746 19.551,-18.465 V 61.5977 c 0,-2.6368 0,-5.1563 3.125,-5.1563 1.316,0 1.914,0.2344 2.394,0.5938 v -7.1954 c -0.714,-0.1171 -3.363,-0.5976 -5.882,-0.5976 -3.836,0 -8.633,0 -9.11,8.2734 h -0.234 c -3.242,-5.7539 -9.485,-9.2304 -15.481,-9.2304 -11.992,0 -17.507,7.1992 -17.507,18.7109 0,8.9961 3.839,15.2266 12.117,17.7461 l 13.547,4.082 c 7.324,2.2774 7.324,4.3164 7.324,9.7149 0,5.9959 -3.606,9.4729 -10.324,9.4729 -11.036,0 -11.036,-10.3128 -11.036,-12.5979 v -0.5938 h -10.066"
         style="fill:#231f20;fill-opacity:1;fill-rule:nonzero;stroke:none"
         transform="matrix(0.13333333,0,0,-0.13333333,0,124.72)" />
      <path
         id="path25"
         d="m 438.707,114.242 h 9.602 v -7.547 h 0.246 c 2.633,5.879 9.343,9.227 15.582,9.227 16.918,0 16.918,-12.832 16.918,-20.379 V 49.9648 h -10.078 v 44.375 c 0,4.9141 -0.364,12.9492 -9.473,12.9492 -5.402,0 -12.719,-3.594 -12.719,-12.9492 v -44.375 h -10.078 v 64.2772"
         style="fill:#231f20;fill-opacity:1;fill-rule:nonzero;stroke:none"
         transform="matrix(0.13333333,0,0,-0.13333333,0,124.72)" />
      <path
         id="path26"
         d="m 497.273,132.953 h 10.067 v -18.711 h 11.152 v -7.91 H 507.34 V 65.0742 c 0,-5.1562 1.32,-7.1992 6.601,-7.1992 2.161,0 3.352,0.2461 4.438,0.3633 v -8.2735 c -1.32,-0.2421 -3.957,-0.7226 -8.156,-0.7226 -10.442,0 -12.95,4.3203 -12.95,12.7148 v 44.375 h -9.355 v 7.91 h 9.355 v 18.711"
         style="fill:#231f20;fill-opacity:1;fill-rule:nonzero;stroke:none"
         transform="matrix(0.13333333,0,0,-0.13333333,0,124.72)" />
      <path
         id="path27"
         d="m 547.77,140.152 h 11.757 L 546.57,123.121 h -7.199 z m 9.242,-51.3278 v 3.4766 c 0,7.1953 -2.285,15.7112 -11.153,15.7112 -10.558,0 -11.757,-12.9573 -11.757,-16.7972 v -2.3906 z m -23.274,-7.9219 c 0,-9.832 0,-24.707 12.352,-24.707 9.601,0 10.922,10.082 10.922,14.875 h 10.066 c 0,-6.8359 -4.074,-22.7851 -21.582,-22.7851 -15.715,0 -22.316,10.9101 -22.316,32.9804 0,16.0742 3.125,34.6564 22.91,34.6564 19.672,0 21.465,-17.1447 21.465,-30.9337 v -4.086 h -33.817"
         style="fill:#231f20;fill-opacity:1;fill-rule:nonzero;stroke:none"
         transform="matrix(0.13333333,0,0,-0.13333333,0,124.72)" />
      <path
         id="path28"
         d="m 660.191,79.3516 c -0.957,-16.1914 -7.312,-31.0664 -26.023,-31.0664 -24.348,0 -27.578,22.9101 -27.578,44.4921 0,21.5937 3.957,44.4957 27.578,44.4957 17.508,0 24.824,-9.835 25.312,-26.621 h -11.035 c -0.246,9.715 -3.359,17.985 -14.277,17.985 -14.629,0 -16.555,-16.063 -16.555,-35.8597 0,-19.7851 1.926,-35.8554 16.555,-35.8554 12.832,0 14.629,11.9883 14.988,22.4297 h 11.035"
         style="fill:#231f20;fill-opacity:1;fill-rule:nonzero;stroke:none"
         transform="matrix(0.13333333,0,0,-0.13333333,0,124.72)" />
      <path
         id="path29"
         d="m 699.207,84.9883 c -3.723,-3.957 -12.598,-4.7969 -17.16,-7.5625 -3.231,-2.0391 -4.91,-4.5586 -4.91,-10.1953 0,-6.4727 2.273,-11.0352 9.109,-11.0352 6.606,0 12.961,5.6445 12.961,12.2383 z m -31.066,9.832 c 0,14.6287 6.23,21.1017 21.586,21.1017 19.55,0 19.55,-11.746 19.55,-18.465 V 61.5977 c 0,-2.6368 0,-5.1563 3.125,-5.1563 1.317,0 1.911,0.2344 2.391,0.5938 v -7.1954 c -0.715,-0.1171 -3.359,-0.5976 -5.879,-0.5976 -3.84,0 -8.633,0 -9.113,8.2734 h -0.242 c -3.235,-5.7539 -9.473,-9.2304 -15.469,-9.2304 -11.992,0 -17.512,7.1992 -17.512,18.7109 0,8.9961 3.84,15.2266 12.121,17.7461 l 13.543,4.082 c 7.317,2.2774 7.317,4.3164 7.317,9.7149 0,5.9959 -3.594,9.4729 -10.313,9.4729 -11.035,0 -11.035,-10.3128 -11.035,-12.5979 v -0.5938 h -10.07"
         style="fill:#231f20;fill-opacity:1;fill-rule:nonzero;stroke:none"
         transform="matrix(0.13333333,0,0,-0.13333333,0,124.72)" />
      <path
         id="path30"
         d="m 722.977,114.242 h 9.597 v -7.547 h 0.246 c 2.637,5.879 9.348,9.227 15.586,9.227 16.914,0 16.914,-12.832 16.914,-20.379 V 49.9648 h -10.078 v 44.375 c 0,4.9141 -0.359,12.9492 -9.472,12.9492 -5.403,0 -12.715,-3.594 -12.715,-12.9492 v -44.375 h -10.078 v 64.2772"
         style="fill:#231f20;fill-opacity:1;fill-rule:nonzero;stroke:none"
         transform="matrix(0.13333333,0,0,-0.13333333,0,124.72)" />
      <path
         id="path31"
         d="m 808.047,84.9883 c -3.723,-3.957 -12.602,-4.7969 -17.16,-7.5625 -3.235,-2.0391 -4.91,-4.5586 -4.91,-10.1953 0,-6.4727 2.273,-11.0352 9.109,-11.0352 6.602,0 12.961,5.6445 12.961,12.2383 z m -31.067,9.832 c 0,14.6287 6.231,21.1017 21.583,21.1017 19.55,0 19.55,-11.746 19.55,-18.465 V 61.5977 c 0,-2.6368 0,-5.1563 3.125,-5.1563 1.321,0 1.914,0.2344 2.395,0.5938 v -7.1954 c -0.715,-0.1171 -3.36,-0.5976 -5.883,-0.5976 -3.836,0 -8.633,0 -9.109,8.2734 h -0.235 c -3.242,-5.7539 -9.484,-9.2304 -15.48,-9.2304 -11.988,0 -17.508,7.1992 -17.508,18.7109 0,8.9961 3.84,15.2266 12.117,17.7461 l 13.547,4.082 c 7.324,2.2774 7.324,4.3164 7.324,9.7149 0,5.9959 -3.605,9.4729 -10.324,9.4729 -11.035,0 -11.035,-10.3128 -11.035,-12.5979 V 94.8203 H 776.98"
         style="fill:#231f20;fill-opacity:1;fill-rule:nonzero;stroke:none"
         transform="matrix(0.13333333,0,0,-0.13333333,0,124.72)" />
      <path
         id="path32"
         d="m 851.727,56.9219 c 11.152,0 12.961,10.5547 12.961,25.1836 0,12.4687 -2.172,25.1835 -12.961,25.1835 -9.356,0 -11.75,-9.832 -11.75,-25.1835 0,-15.3516 2.394,-25.1836 11.75,-25.1836 z m 22.429,-6.9571 h -9.597 v 7.9102 h -0.235 c -1.316,-4.793 -6.965,-9.5898 -13.918,-9.5898 -15.234,0 -20.984,13.5546 -20.984,33.8203 0,13.4375 2.156,33.8165 20.266,33.8165 5.757,0 11.875,-3.477 14.16,-8.992 h 0.23 v 28.672 h 10.078 V 49.9648"
         style="fill:#231f20;fill-opacity:1;fill-rule:nonzero;stroke:none"
         transform="matrix(0.13333333,0,0,-0.13333333,0,124.72)" />
      <path
         id="path33"
         d="m 916.883,84.9883 c -3.723,-3.957 -12.598,-4.7969 -17.156,-7.5625 -3.235,-2.0391 -4.914,-4.5586 -4.914,-10.1953 0,-6.4727 2.273,-11.0352 9.109,-11.0352 6.605,0 12.961,5.6445 12.961,12.2383 z m -31.067,9.832 c 0,14.6287 6.231,21.1017 21.586,21.1017 19.547,0 19.547,-11.746 19.547,-18.465 V 61.5977 c 0,-2.6368 0,-5.1563 3.125,-5.1563 1.321,0 1.914,0.2344 2.395,0.5938 v -7.1954 c -0.715,-0.1171 -3.36,-0.5976 -5.879,-0.5976 -3.84,0 -8.633,0 -9.113,8.2734 h -0.243 c -3.234,-5.7539 -9.472,-9.2304 -15.468,-9.2304 -11.993,0 -17.508,7.1992 -17.508,18.7109 0,8.9961 3.836,15.2266 12.117,17.7461 l 13.547,4.082 c 7.312,2.2774 7.312,4.3164 7.312,9.7149 0,5.9959 -3.593,9.4729 -10.312,9.4729 -11.035,0 -11.035,-10.3128 -11.035,-12.5979 v -0.5938 h -10.071"
         style="fill:#231f20;fill-opacity:1;fill-rule:nonzero;stroke:none"
         transform="matrix(0.13333333,0,0,-0.13333333,0,124.72)" />
    </g>
  </g>
</svg>
