<?xml version="1.0" encoding="UTF-8" standalone="no"?>
<!-- Created with Inkscape (http://www.inkscape.org/) -->

<svg
   version="1.1"
   id="svg1"
   width="167.05333"
   height="124.72"
   viewBox="0 0 167.05333 124.72"
   sodipodi:docname="1.7(FH).eps"
   xmlns:inkscape="http://www.inkscape.org/namespaces/inkscape"
   xmlns:sodipodi="http://sodipodi.sourceforge.net/DTD/sodipodi-0.dtd"
   xmlns="http://www.w3.org/2000/svg"
   xmlns:svg="http://www.w3.org/2000/svg">
  <defs
     id="defs1" />
  <sodipodi:namedview
     id="namedview1"
     pagecolor="#ffffff"
     bordercolor="#000000"
     borderopacity="0.25"
     inkscape:showpageshadow="2"
     inkscape:pageopacity="0.0"
     inkscape:pagecheckerboard="0"
     inkscape:deskcolor="#d1d1d1">
    <inkscape:page
       x="0"
       y="0"
       inkscape:label="1"
       id="page1"
       width="167.05333"
       height="124.72"
       margin="0"
       bleed="0" />
  </sodipodi:namedview>
  <g
     id="g1"
     inkscape:groupmode="layer"
     inkscape:label="1">
    <g
       id="group-R5">
      <path
         id="path2"
         d="M 2.49609,2.49609 V 932.934 H 1250.42 V 2.49609 H 2.49609"
         style="fill:#ffffff;fill-opacity:1;fill-rule:nonzero;stroke:none"
         transform="matrix(0.13333333,0,0,-0.13333333,0,124.72)" />
      <path
         id="path3"
         d="M 1252.92,935.434 H -0.00390625 V -0.00390625 H 1252.92 V 935.434 Z m -5,-5 V 4.99609 H 4.99609 V 930.434 H 1247.92"
         style="fill:#231f20;fill-opacity:1;fill-rule:nonzero;stroke:none"
         transform="matrix(0.13333333,0,0,-0.13333333,0,124.72)" />
      <path
         id="path4"
         d="M 611.234,567.73 C 581.242,643.48 522.555,705.07 448.957,738.477 H 1210.02 V 567.73 H 611.234"
         style="fill:#ffffff;fill-opacity:1;fill-rule:nonzero;stroke:none"
         transform="matrix(0.13333333,0,0,-0.13333333,0,124.72)" />
      <path
         id="path5"
         d="M 1212.52,740.977 H 436.828 C 515.73,708.867 578.43,645.051 609.527,565.23 h 602.993 v 175.747 z m -5,-5 V 570.227 H 612.926 c -29.028,72.168 -83.918,131.418 -152.895,165.75 h 747.489"
         style="fill:#231f20;fill-opacity:1;fill-rule:nonzero;stroke:none"
         transform="matrix(0.13333333,0,0,-0.13333333,0,124.72)" />
      <path
         id="path6"
         d="m 622.309,368.727 c 7.25,26.933 10.921,54.785 10.921,82.824 0,30.086 -4.183,59.644 -12.445,87.926 H 1210.02 V 368.727 H 622.309"
         style="fill:#ffffff;fill-opacity:1;fill-rule:nonzero;stroke:none"
         transform="matrix(0.13333333,0,0,-0.13333333,0,124.72)" />
      <path
         id="path7"
         d="M 1212.52,541.977 H 617.43 c 8.703,-28.606 13.3,-59.016 13.3,-90.426 0,-29.602 -4.101,-58.215 -11.699,-85.324 h 593.489 v 175.75 z m -5,-5 V 371.227 H 625.551 c 6.758,26.16 10.179,53.144 10.179,80.324 0,29.191 -3.917,57.894 -11.636,85.426 h 583.426"
         style="fill:#231f20;fill-opacity:1;fill-rule:nonzero;stroke:none"
         transform="matrix(0.13333333,0,0,-0.13333333,0,124.72)" />
      <path
         id="path8"
         d="M 1212.52,342.973 V 167.23 H 448.93 c 74.797,34.309 133.699,97.629 162.5,175.743 h 601.09"
         style="fill:#231f20;fill-opacity:1;fill-rule:nonzero;stroke:none"
         transform="matrix(0.13333333,0,0,-0.13333333,0,124.72)" />
      <path
         id="path9"
         d="m 702.879,910.777 h 19.336 L 708.484,890.605 H 695.32 Z m 28.996,-26.054 V 868.195 H 696.16 V 844.66 h 33.613 V 828.133 H 696.16 v -26.899 h 37.117 v -16.527 h -57.293 v 100.016 h 55.891"
         style="fill:#231f20;fill-opacity:1;fill-rule:nonzero;stroke:none"
         transform="matrix(0.13333333,0,0,-0.13333333,0,124.72)" />
      <path
         id="path10"
         d="m 746.98,884.723 h 19.325 V 784.707 H 746.98 v 100.016"
         style="fill:#231f20;fill-opacity:1;fill-rule:nonzero;stroke:none"
         transform="matrix(0.13333333,0,0,-0.13333333,0,124.72)" />
      <path
         id="path11"
         d="m 819.668,830.934 c -0.422,11.484 -1.828,17.929 -9.809,17.929 -7.703,0 -9.949,-7.984 -9.949,-14.992 v -2.937 z M 799.91,819.445 v -6.019 c 0,-8.824 2.383,-17.512 9.531,-17.512 6.446,0 9.102,4.902 10.227,14.145 h 17.359 c -0.691,-17.508 -9.101,-27.313 -27.312,-27.313 -28.008,0 -29.129,21.57 -29.129,40.34 0,20.172 3.922,38.945 29.977,38.945 22.55,0 27.589,-15.133 27.589,-38.242 v -4.344 H 799.91"
         style="fill:#231f20;fill-opacity:1;fill-rule:nonzero;stroke:none"
         transform="matrix(0.13333333,0,0,-0.13333333,0,124.72)" />
      <path
         id="path12"
         d="m 887.43,860.07 h 19.336 l -18.918,-75.363 h -22.403 l -19.472,75.363 h 20.168 l 10.789,-53.933 h 0.273 l 10.227,53.933"
         style="fill:#231f20;fill-opacity:1;fill-rule:nonzero;stroke:none"
         transform="matrix(0.13333333,0,0,-0.13333333,0,124.72)" />
      <path
         id="path13"
         d="m 941.91,889.063 h 19.328 l -13.722,-20.172 h -13.172 z m 11.77,-58.129 c -0.422,11.484 -1.828,17.929 -9.805,17.929 -7.703,0 -9.953,-7.984 -9.953,-14.992 v -2.937 z m -19.758,-11.489 v -6.019 c 0,-8.824 2.383,-17.512 9.531,-17.512 6.445,0 9.102,4.902 10.227,14.145 h 17.363 c -0.695,-17.508 -9.102,-27.313 -27.316,-27.313 -28.008,0 -29.129,21.57 -29.129,40.34 0,20.172 3.925,38.945 29.968,38.945 22.563,0 27.602,-15.133 27.602,-38.242 v -4.344 h -38.246"
         style="fill:#231f20;fill-opacity:1;fill-rule:nonzero;stroke:none"
         transform="matrix(0.13333333,0,0,-0.13333333,0,124.72)" />
      <path
         id="path14"
         d="m 1059.12,830.934 c -0.42,11.484 -1.83,17.929 -9.81,17.929 -7.7,0 -9.95,-7.984 -9.95,-14.992 v -2.937 z m -19.76,-11.489 v -6.019 c 0,-8.824 2.39,-17.512 9.53,-17.512 6.45,0 9.11,4.902 10.23,14.145 h 17.36 c -0.69,-17.508 -9.1,-27.313 -27.31,-27.313 -28.01,0 -29.13,21.57 -29.13,40.34 0,20.172 3.92,38.945 29.98,38.945 22.55,0 27.59,-15.133 27.59,-38.242 v -4.344 h -38.25"
         style="fill:#231f20;fill-opacity:1;fill-rule:nonzero;stroke:none"
         transform="matrix(0.13333333,0,0,-0.13333333,0,124.72)" />
      <path
         id="path15"
         d="m 1091.17,860.07 h 18.49 v -8.824 h 0.28 c 4.06,7.422 11.06,10.785 19.19,10.785 12.05,0 19.19,-6.586 19.19,-21.433 v -55.891 h -19.33 v 51.969 c 0,7.562 -2.53,10.508 -8.27,10.508 -6.58,0 -10.22,-4.063 -10.22,-12.469 v -50.008 h -19.33 v 75.363"
         style="fill:#231f20;fill-opacity:1;fill-rule:nonzero;stroke:none"
         transform="matrix(0.13333333,0,0,-0.13333333,0,124.72)" />
      <path
         id="path16"
         d="m 470.816,354.027 c -51.57,-87.859 -164.695,-117.324 -252.461,-65.73 -87.859,51.57 -117.328,164.797 -65.753,252.656 51.586,87.766 163.839,117.016 252.668,65.66 88.816,-51.261 117.234,-164.812 65.546,-252.586 z M 435.559,659.824 C 318.406,728.652 169.055,689.688 100.129,572.52 39.8555,468.516 62.8867,338.52 150.422,263.16 L 51.8672,97.5547 C 42.0625,80.8242 48.1797,59.3008 65.3203,50.2305 L 88.9609,37.7109 c 16.3011,-8.6328 36.5121,-2.7148 45.5861,13.3282 l 93.488,166.4769 c 109.555,-39.434 234.254,3.73 294.828,106.875 68.731,117.148 29.946,266.617 -87.304,335.433"
         style="fill:#231f20;fill-opacity:1;fill-rule:nonzero;stroke:none"
         transform="matrix(0.13333333,0,0,-0.13333333,0,124.72)" />
      <path
         id="path17"
         d="m 692.242,237.762 v -2.942 c 0,-9.386 2.668,-15.41 13.313,-15.41 6.16,0 12.039,3.926 12.039,12.324 0,9.102 -4.617,12.469 -17.926,17.09 -17.934,6.172 -26.195,13.594 -26.195,30.254 0,19.473 11.906,29.426 30.957,29.426 17.929,0 30.957,-7.707 30.957,-26.899 v -2.8 h -19.324 c 0,9.383 -3.223,14.843 -10.93,14.843 -9.11,0 -11.492,-5.742 -11.492,-11.621 0,-6.172 1.824,-9.941 10.371,-13.593 l 15.547,-6.719 c 15.125,-6.582 19.05,-14.289 19.05,-26.477 0,-21.148 -12.89,-30.672 -34.734,-30.672 -22.832,0 -31.797,10.645 -31.797,29.129 v 4.067 h 20.164"
         style="fill:#ffffff;fill-opacity:1;fill-rule:nonzero;stroke:none"
         transform="matrix(0.13333333,0,0,-0.13333333,0,124.72)" />
      <path
         id="path18"
         d="m 778.777,217.73 c 7.852,0 10.371,7.704 10.371,26.473 0,18.77 -2.519,26.477 -10.371,26.477 -9.519,0 -10.359,-11.067 -10.359,-26.477 0,-15.406 0.84,-26.473 10.359,-26.473 z m 0,66.114 c 23.262,0.429 29.696,-13.449 29.696,-39.641 0,-25.769 -7.555,-39.637 -29.696,-39.637 -23.254,-0.429 -29.687,13.438 -29.687,39.637 0,25.774 7.558,39.641 29.687,39.641"
         style="fill:#ffffff;fill-opacity:1;fill-rule:nonzero;stroke:none"
         transform="matrix(0.13333333,0,0,-0.13333333,0,124.72)" />
      <path
         id="path19"
         d="m 849.93,219.41 c 8.535,0 10.222,8.406 10.222,24.793 0,16.391 -1.687,24.797 -10.222,24.797 -8.41,0 -10.09,-8.406 -10.09,-24.797 0,-16.387 1.68,-24.793 10.09,-24.793 z m 11.062,-4.902 h -0.281 c -4.199,-7 -9.523,-9.942 -17.09,-9.942 -15.828,0 -23.113,11.622 -23.113,39.637 0,28.02 7.285,39.641 23.113,39.641 7.285,0 12.188,-2.942 16.25,-8.965 h 0.281 v 31.66 H 879.48 V 206.52 h -18.488 v 7.988"
         style="fill:#ffffff;fill-opacity:1;fill-rule:nonzero;stroke:none"
         transform="matrix(0.13333333,0,0,-0.13333333,0,124.72)" />
      <path
         id="path20"
         d="m 896.551,281.891 h 19.328 V 206.52 h -19.328 z m 0,25.761 h 19.328 v -16.523 h -19.328 v 16.523"
         style="fill:#ffffff;fill-opacity:1;fill-rule:nonzero;stroke:none"
         transform="matrix(0.13333333,0,0,-0.13333333,0,124.72)" />
      <path
         id="path21"
         d="m 971.617,215.348 h -0.281 c -4.063,-7.422 -11.066,-10.782 -19.191,-10.782 -12.051,0 -19.188,6.582 -19.188,21.426 v 55.899 h 19.324 v -51.973 c 0,-7.559 2.52,-10.508 8.274,-10.508 6.582,0 10.222,4.063 10.222,12.461 v 50.02 h 19.328 V 206.52 h -18.488 v 8.828"
         style="fill:#ffffff;fill-opacity:1;fill-rule:nonzero;stroke:none"
         transform="matrix(0.13333333,0,0,-0.13333333,0,124.72)" />
      <path
         id="path22"
         d="m 1006.47,281.891 h 18.49 v -7.715 h 0.28 c 4.9,6.875 10.93,9.668 19.05,9.668 8.82,0 15.27,-4.336 17.37,-12.051 h 0.28 c 2.94,7.988 9.94,12.051 19.05,12.051 12.75,0 18.77,-7.989 18.77,-22.547 V 206.52 h -19.33 v 52.675 c 0,6.297 -2.1,9.805 -7.56,9.805 -6.16,0 -10.09,-4.199 -10.09,-12.891 V 206.52 h -19.33 v 52.675 c 0,6.297 -2.1,9.805 -7.56,9.805 -6.17,0 -10.09,-4.199 -10.09,-12.891 V 206.52 h -19.33 v 75.371"
         style="fill:#ffffff;fill-opacity:1;fill-rule:nonzero;stroke:none"
         transform="matrix(0.13333333,0,0,-0.13333333,0,124.72)" />
      <path
         id="path23"
         d="m 362.137,113.414 c 0,8.992 -3.242,15.223 -13.321,15.223 -8.867,0 -14.152,-4.793 -14.152,-13.907 0,-24.1089 40.422,-9.714 40.422,-41.023 0,-19.7851 -14.512,-25.4218 -26.633,-25.4218 -20.027,0 -25.898,10.3125 -25.898,28.5468 h 10.547 c 0,-9.6015 0.609,-19.9101 16.074,-19.9101 8.398,0 14.875,5.9922 14.875,15.1054 0,24.2305 -40.418,10.1954 -40.418,41.6207 0,7.918 3.355,23.622 25.066,23.622 16.309,0 23.75,-8.153 23.985,-23.856 h -10.547"
         style="fill:#231f20;fill-opacity:1;fill-rule:nonzero;stroke:none"
         transform="matrix(0.13333333,0,0,-0.13333333,0,124.72)" />
      <path
         id="path24"
         d="m 414.938,84.9844 c -3.719,-3.9531 -12.598,-4.793 -17.157,-7.5586 -3.234,-2.0391 -4.914,-4.5586 -4.914,-10.1953 0,-6.4727 2.278,-11.0352 9.113,-11.0352 6.602,0 12.958,5.6485 12.958,12.2383 z m -31.063,9.8359 c 0,14.6287 6.23,21.1057 21.582,21.1057 19.551,0 19.551,-11.75 19.551,-18.469 V 61.5977 c 0,-2.6368 0,-5.1563 3.125,-5.1563 1.316,0 1.914,0.2344 2.39,0.5938 v -7.1954 c -0.71,-0.1171 -3.359,-0.5976 -5.878,-0.5976 -3.836,0 -8.633,0 -9.11,8.2734 h -0.234 c -3.242,-5.7539 -9.485,-9.2304 -15.481,-9.2304 -11.992,0 -17.507,7.1992 -17.507,18.7109 0,8.9961 3.835,15.2266 12.117,17.7461 l 13.547,4.082 c 7.324,2.2735 7.324,4.3164 7.324,9.7149 0,5.9959 -3.606,9.4729 -10.324,9.4729 -11.036,0 -11.036,-10.3128 -11.036,-12.5979 v -0.5938 h -10.066"
         style="fill:#231f20;fill-opacity:1;fill-rule:nonzero;stroke:none"
         transform="matrix(0.13333333,0,0,-0.13333333,0,124.72)" />
      <path
         id="path25"
         d="m 438.711,114.242 h 9.598 v -7.547 h 0.242 c 2.637,5.879 9.347,9.231 15.586,9.231 16.914,0 16.914,-12.832 16.914,-20.383 V 49.9688 h -10.078 v 44.375 c 0,4.9101 -0.36,12.9452 -9.469,12.9452 -5.402,0 -12.719,-3.594 -12.719,-12.9452 v -44.375 h -10.074 v 64.2732"
         style="fill:#231f20;fill-opacity:1;fill-rule:nonzero;stroke:none"
         transform="matrix(0.13333333,0,0,-0.13333333,0,124.72)" />
      <path
         id="path26"
         d="m 497.273,132.953 h 10.067 v -18.711 h 11.152 v -7.906 H 507.34 V 65.0742 c 0,-5.1562 1.32,-7.1953 6.601,-7.1953 2.161,0 3.352,0.2422 4.438,0.3594 v -8.2695 c -1.32,-0.2461 -3.957,-0.7266 -8.156,-0.7266 -10.442,0 -12.95,4.3164 -12.95,12.7187 v 44.3751 h -9.355 v 7.906 h 9.355 v 18.711"
         style="fill:#231f20;fill-opacity:1;fill-rule:nonzero;stroke:none"
         transform="matrix(0.13333333,0,0,-0.13333333,0,124.72)" />
      <path
         id="path27"
         d="m 547.77,140.152 h 11.757 L 546.57,123.121 h -7.195 z m 9.238,-51.3278 v 3.4766 c 0,7.1953 -2.285,15.7112 -11.153,15.7112 -10.554,0 -11.757,-12.9573 -11.757,-16.7932 v -2.3946 z m -23.27,-7.9219 c 0,-9.832 0,-24.707 12.352,-24.707 9.601,0 10.918,10.0781 10.918,14.875 h 10.07 c 0,-6.8359 -4.07,-22.7851 -21.582,-22.7851 -15.715,0 -22.316,10.9101 -22.316,32.9804 0,16.0742 3.125,34.6604 22.91,34.6604 19.668,0 21.465,-17.1526 21.465,-30.9416 v -4.0821 h -33.817"
         style="fill:#231f20;fill-opacity:1;fill-rule:nonzero;stroke:none"
         transform="matrix(0.13333333,0,0,-0.13333333,0,124.72)" />
      <path
         id="path28"
         d="m 660.191,79.3516 c -0.957,-16.1914 -7.312,-31.0664 -26.023,-31.0664 -24.348,0 -27.578,22.9101 -27.578,44.4921 0,21.5937 3.957,44.4927 27.578,44.4927 17.508,0 24.824,-9.832 25.312,-26.622 h -11.035 c -0.246,9.719 -3.359,17.989 -14.277,17.989 -14.629,0 -16.555,-16.063 -16.555,-35.8597 0,-19.7851 1.926,-35.8554 16.555,-35.8554 12.832,0 14.629,11.9883 14.988,22.4297 h 11.035"
         style="fill:#231f20;fill-opacity:1;fill-rule:nonzero;stroke:none"
         transform="matrix(0.13333333,0,0,-0.13333333,0,124.72)" />
      <path
         id="path29"
         d="m 699.207,84.9844 c -3.723,-3.9531 -12.598,-4.793 -17.16,-7.5586 -3.231,-2.0391 -4.91,-4.5586 -4.91,-10.1953 0,-6.4727 2.273,-11.0352 9.113,-11.0352 6.598,0 12.957,5.6485 12.957,12.2383 z m -31.066,9.8359 c 0,14.6287 6.234,21.1057 21.582,21.1057 19.55,0 19.55,-11.75 19.55,-18.469 V 61.5977 c 0,-2.6368 0,-5.1563 3.125,-5.1563 1.321,0 1.915,0.2344 2.395,0.5938 v -7.1954 c -0.715,-0.1171 -3.359,-0.5976 -5.879,-0.5976 -3.84,0 -8.633,0 -9.113,8.2734 h -0.242 c -3.235,-5.7539 -9.473,-9.2304 -15.469,-9.2304 -11.992,0 -17.512,7.1992 -17.512,18.7109 0,8.9961 3.84,15.2266 12.121,17.7461 l 13.543,4.082 c 7.317,2.2735 7.317,4.3164 7.317,9.7149 0,5.9959 -3.594,9.4729 -10.313,9.4729 -11.035,0 -11.035,-10.3128 -11.035,-12.5979 v -0.5938 h -10.07"
         style="fill:#231f20;fill-opacity:1;fill-rule:nonzero;stroke:none"
         transform="matrix(0.13333333,0,0,-0.13333333,0,124.72)" />
      <path
         id="path30"
         d="m 722.977,114.242 h 9.597 v -7.547 h 0.246 c 2.637,5.879 9.348,9.231 15.586,9.231 16.914,0 16.914,-12.832 16.914,-20.383 V 49.9688 h -10.078 v 44.375 c 0,4.9101 -0.359,12.9452 -9.472,12.9452 -5.403,0 -12.715,-3.594 -12.715,-12.9452 v -44.375 h -10.078 v 64.2732"
         style="fill:#231f20;fill-opacity:1;fill-rule:nonzero;stroke:none"
         transform="matrix(0.13333333,0,0,-0.13333333,0,124.72)" />
      <path
         id="path31"
         d="m 808.047,84.9844 c -3.723,-3.9531 -12.602,-4.793 -17.16,-7.5586 -3.235,-2.0391 -4.914,-4.5586 -4.914,-10.1953 0,-6.4727 2.277,-11.0352 9.113,-11.0352 6.602,0 12.961,5.6485 12.961,12.2383 z m -31.067,9.8359 c 0,14.6287 6.231,21.1057 21.583,21.1057 19.55,0 19.55,-11.75 19.55,-18.469 V 61.5977 c 0,-2.6368 0,-5.1563 3.125,-5.1563 1.317,0 1.914,0.2344 2.395,0.5938 v -7.1954 c -0.715,-0.1171 -3.363,-0.5976 -5.879,-0.5976 -3.84,0 -8.637,0 -9.113,8.2734 h -0.235 c -3.242,-5.7539 -9.484,-9.2304 -15.48,-9.2304 -11.992,0 -17.508,7.1992 -17.508,18.7109 0,8.9961 3.84,15.2266 12.117,17.7461 l 13.547,4.082 c 7.324,2.2735 7.324,4.3164 7.324,9.7149 0,5.9959 -3.605,9.4729 -10.32,9.4729 -11.039,0 -11.039,-10.3128 -11.039,-12.5979 V 94.8203 H 776.98"
         style="fill:#231f20;fill-opacity:1;fill-rule:nonzero;stroke:none"
         transform="matrix(0.13333333,0,0,-0.13333333,0,124.72)" />
      <path
         id="path32"
         d="m 851.727,56.9219 c 11.152,0 12.957,10.5547 12.957,25.1836 0,12.4687 -2.168,25.1835 -12.957,25.1835 -9.356,0 -11.75,-9.832 -11.75,-25.1835 0,-15.3516 2.394,-25.1836 11.75,-25.1836 z m 22.429,-6.9531 h -9.597 v 7.9101 h -0.235 c -1.316,-4.7969 -6.965,-9.5937 -13.918,-9.5937 -15.234,0 -20.984,13.5586 -20.984,33.8203 0,13.4375 2.156,33.8205 20.262,33.8205 5.761,0 11.875,-3.481 14.16,-8.996 h 0.234 v 28.672 h 10.078 V 49.9688"
         style="fill:#231f20;fill-opacity:1;fill-rule:nonzero;stroke:none"
         transform="matrix(0.13333333,0,0,-0.13333333,0,124.72)" />
      <path
         id="path33"
         d="m 916.883,84.9844 c -3.723,-3.9531 -12.598,-4.793 -17.16,-7.5586 -3.231,-2.0391 -4.91,-4.5586 -4.91,-10.1953 0,-6.4727 2.277,-11.0352 9.109,-11.0352 6.601,0 12.961,5.6485 12.961,12.2383 z m -31.067,9.8359 c 0,14.6287 6.231,21.1057 21.582,21.1057 19.551,0 19.551,-11.75 19.551,-18.469 V 61.5977 c 0,-2.6368 0,-5.1563 3.125,-5.1563 1.321,0 1.914,0.2344 2.395,0.5938 v -7.1954 c -0.711,-0.1171 -3.36,-0.5976 -5.879,-0.5976 -3.836,0 -8.633,0 -9.113,8.2734 h -0.243 c -3.23,-5.7539 -9.472,-9.2304 -15.468,-9.2304 -11.993,0 -17.508,7.1992 -17.508,18.7109 0,8.9961 3.836,15.2266 12.117,17.7461 l 13.547,4.082 c 7.312,2.2735 7.312,4.3164 7.312,9.7149 0,5.9959 -3.593,9.4729 -10.312,9.4729 -11.035,0 -11.035,-10.3128 -11.035,-12.5979 v -0.5938 h -10.071"
         style="fill:#231f20;fill-opacity:1;fill-rule:nonzero;stroke:none"
         transform="matrix(0.13333333,0,0,-0.13333333,0,124.72)" />
    </g>
  </g>
</svg>
