<?xml version="1.0" encoding="UTF-8" standalone="no"?>
<!-- Created with Inkscape (http://www.inkscape.org/) -->

<svg
   version="1.1"
   id="svg1"
   width="82.013336"
   height="103.93333"
   viewBox="0 0 82.013336 103.93333"
   sodipodi:docname="3.5(FV).eps"
   xmlns:inkscape="http://www.inkscape.org/namespaces/inkscape"
   xmlns:sodipodi="http://sodipodi.sourceforge.net/DTD/sodipodi-0.dtd"
   xmlns="http://www.w3.org/2000/svg"
   xmlns:svg="http://www.w3.org/2000/svg">
  <defs
     id="defs1" />
  <sodipodi:namedview
     id="namedview1"
     pagecolor="#ffffff"
     bordercolor="#000000"
     borderopacity="0.25"
     inkscape:showpageshadow="2"
     inkscape:pageopacity="0.0"
     inkscape:pagecheckerboard="0"
     inkscape:deskcolor="#d1d1d1">
    <inkscape:page
       x="0"
       y="0"
       inkscape:label="1"
       id="page1"
       width="82.013336"
       height="103.93333"
       margin="0"
       bleed="0" />
  </sodipodi:namedview>
  <g
     id="g1"
     inkscape:groupmode="layer"
     inkscape:label="1">
    <g
       id="group-R5">
      <path
         id="path2"
         d="M 2.5,2.49609 V 777.027 H 612.617 V 2.49609 H 2.5"
         style="fill:#ffffff;fill-opacity:1;fill-rule:nonzero;stroke:none"
         transform="matrix(0.13333333,0,0,-0.13333333,0,103.93333)" />
      <path
         id="path3"
         d="M 615.117,779.527 H 0 V 0 h 615.117 v 779.527 z m -5,-5 V 5 H 5 v 769.527 h 605.117"
         style="fill:#231f20;fill-opacity:1;fill-rule:nonzero;stroke:none"
         transform="matrix(0.13333333,0,0,-0.13333333,0,103.93333)" />
      <path
         id="path4"
         d="m 262.285,711.203 h 13.789 l -9.797,-14.394 h -9.394 z m 20.684,-18.586 V 680.816 H 257.48 v -16.785 h 23.993 V 652.234 H 257.48 v -19.191 h 26.493 v -11.789 h -40.879 v 71.363 h 39.875"
         style="fill:#231f20;fill-opacity:1;fill-rule:nonzero;stroke:none"
         transform="matrix(0.13333333,0,0,-0.13333333,0,103.93333)" />
      <path
         id="path5"
         d="m 293.789,692.617 h 13.789 v -71.363 h -13.789 v 71.363"
         style="fill:#231f20;fill-opacity:1;fill-rule:nonzero;stroke:none"
         transform="matrix(0.13333333,0,0,-0.13333333,0,103.93333)" />
      <path
         id="path6"
         d="m 345.664,654.234 c -0.293,8.196 -1.301,12.793 -6.992,12.793 -5.5,0 -7.102,-5.699 -7.102,-10.691 v -2.102 z m -14.094,-8.199 v -4.297 c 0,-6.293 1.7,-12.488 6.797,-12.488 4.602,0 6.504,3.496 7.297,10.094 h 12.402 c -0.507,-12.496 -6.503,-19.492 -19.492,-19.492 -19.992,0 -20.793,15.394 -20.793,28.785 0,14.394 2.805,27.785 21.387,27.785 16.094,0 19.687,-10.793 19.687,-27.285 v -3.102 H 331.57"
         style="fill:#231f20;fill-opacity:1;fill-rule:nonzero;stroke:none"
         transform="matrix(0.13333333,0,0,-0.13333333,0,103.93333)" />
      <path
         id="path7"
         d="m 394.07,675.023 h 13.789 l -13.496,-53.769 h -15.984 l -13.899,53.769 h 14.395 l 7.695,-38.476 h 0.196 l 7.304,38.476"
         style="fill:#231f20;fill-opacity:1;fill-rule:nonzero;stroke:none"
         transform="matrix(0.13333333,0,0,-0.13333333,0,103.93333)" />
      <path
         id="path8"
         d="m 432.969,695.711 h 13.789 l -9.797,-14.391 h -9.395 z m 8.386,-41.477 c -0.292,8.196 -1.296,12.793 -6.992,12.793 -5.496,0 -7.097,-5.699 -7.097,-10.691 v -2.102 z m -14.089,-8.199 v -4.297 c 0,-6.293 1.699,-12.488 6.797,-12.488 4.597,0 6.503,3.496 7.292,10.094 h 12.403 c -0.508,-12.496 -6.504,-19.492 -19.492,-19.492 -19.989,0 -20.789,15.394 -20.789,28.785 0,14.394 2.8,27.785 21.386,27.785 16.094,0 19.688,-10.793 19.688,-27.285 v -3.102 h -27.285"
         style="fill:#231f20;fill-opacity:1;fill-rule:nonzero;stroke:none"
         transform="matrix(0.13333333,0,0,-0.13333333,0,103.93333)" />
      <path
         id="path9"
         d="m 516.66,654.234 c -0.293,8.196 -1.301,12.793 -6.992,12.793 -5.5,0 -7.102,-5.699 -7.102,-10.691 v -2.102 z m -14.094,-8.199 v -4.297 c 0,-6.293 1.7,-12.488 6.797,-12.488 4.602,0 6.504,3.496 7.297,10.094 h 12.403 c -0.508,-12.496 -6.504,-19.492 -19.493,-19.492 -19.992,0 -20.793,15.394 -20.793,28.785 0,14.394 2.805,27.785 21.387,27.785 16.094,0 19.688,-10.793 19.688,-27.285 v -3.102 h -27.286"
         style="fill:#231f20;fill-opacity:1;fill-rule:nonzero;stroke:none"
         transform="matrix(0.13333333,0,0,-0.13333333,0,103.93333)" />
      <path
         id="path10"
         d="m 539.578,675.023 h 13.195 v -6.296 h 0.196 c 2.898,5.3 7.898,7.695 13.691,7.695 8.594,0 13.692,-4.695 13.692,-15.293 v -39.875 h -13.789 v 37.078 c 0,5.395 -1.797,7.496 -5.899,7.496 -4.699,0 -7.297,-2.902 -7.297,-8.898 v -35.676 h -13.789 v 53.769"
         style="fill:#231f20;fill-opacity:1;fill-rule:nonzero;stroke:none"
         transform="matrix(0.13333333,0,0,-0.13333333,0,103.93333)" />
      <path
         id="path11"
         d="M 108.477,533.938 V 409.215 H 586.781 V 533.938 H 108.477"
         style="fill:#231f20;fill-opacity:1;fill-rule:nonzero;stroke:none"
         transform="matrix(0.13333333,0,0,-0.13333333,0,103.93333)" />
      <path
         id="path12"
         d="M 110.977,267.547 V 387.273 H 584.285 V 267.547 H 110.977"
         style="fill:#ffffff;fill-opacity:1;fill-rule:nonzero;stroke:none"
         transform="matrix(0.13333333,0,0,-0.13333333,0,103.93333)" />
      <path
         id="path13"
         d="M 586.781,389.773 H 108.477 V 265.047 h 478.304 v 124.726 z m -4.996,-5 V 270.047 H 113.477 v 114.726 h 468.308"
         style="fill:#231f20;fill-opacity:1;fill-rule:nonzero;stroke:none"
         transform="matrix(0.13333333,0,0,-0.13333333,0,103.93333)" />
      <path
         id="path14"
         d="m 200.586,490.59 c 0,5.297 -2.402,11.996 -8.195,11.996 -7,0 -9.793,-7.199 -9.793,-24.992 0,-17.188 1.601,-27.981 9.89,-27.981 3.399,0 8.899,3.696 8.899,11.395 v 7.297 h -9.492 v 10.59 h 23.281 v -38.477 h -10.598 v 6.598 h -0.195 c -3.399,-5.598 -8.301,-8 -14.988,-8 -17.696,0 -21.192,13.191 -21.192,37.882 0,23.989 5.594,36.278 23.985,36.278 15.789,0 22.187,-8.098 22.187,-22.586 h -13.789"
         style="fill:#ffffff;fill-opacity:1;fill-rule:nonzero;stroke:none"
         transform="matrix(0.13333333,0,0,-0.13333333,0,103.93333)" />
      <path
         id="path15"
         d="m 226.582,494.188 h 13.191 v -7.2 h 0.196 c 2.804,5.203 6.699,8.602 12.394,8.602 0.801,0 1.7,-0.106 2.5,-0.203 v -13.192 c -1.398,0.098 -2.902,0.2 -4.297,0.2 -4.796,0 -10.195,-2.5 -10.195,-9.696 v -32.281 h -13.789 v 53.77"
         style="fill:#ffffff;fill-opacity:1;fill-rule:nonzero;stroke:none"
         transform="matrix(0.13333333,0,0,-0.13333333,0,103.93333)" />
      <path
         id="path16"
         d="m 287.461,467.301 c -1.906,-1.395 -4.199,-2.297 -5.898,-2.699 -5.598,-1.196 -7.793,-3.899 -7.793,-8.692 0,-4.101 1.492,-7.5 5.195,-7.5 3.691,0 8.496,2.403 8.496,8.297 z m -25.188,10.398 v 1.297 c 0,12.395 8.489,16.594 18.887,16.594 16.387,0 19.492,-6.801 19.492,-16.496 v -28.281 c 0,-5 0.293,-7.293 1.7,-10.395 H 289.16 c -0.91,1.699 -1.301,3.797 -1.699,5.594 h -0.207 c -3.191,-5.594 -7.098,-6.996 -13.691,-6.996 -9.59,0 -12.989,8.199 -12.989,15.394 0,10.094 4.094,14.192 13.586,16.789 l 7.801,2.098 c 4.094,1.101 5.5,2.699 5.5,6.301 0,4.097 -1.809,6.597 -6.398,6.597 -4.2,0 -6.395,-2.8 -6.395,-7 v -1.496 h -12.395"
         style="fill:#ffffff;fill-opacity:1;fill-rule:nonzero;stroke:none"
         transform="matrix(0.13333333,0,0,-0.13333333,0,103.93333)" />
      <path
         id="path17"
         d="m 323.047,458.012 v -1.805 c 0,-4.695 2.5,-7.797 7.195,-7.797 4.199,0 7.004,2.102 7.004,6.399 0,3.5 -2.305,5.097 -5,6.097 l -9.699,3.5 c -7.598,2.696 -11.492,7.395 -11.492,14.992 0,8.895 5.593,16.192 19.793,16.192 12.492,0 18.39,-5.598 18.39,-15.293 v -2.199 h -12.394 c 0,5.394 -1.602,8.097 -6.102,8.097 -3.496,0 -6.496,-2.004 -6.496,-5.8 0,-2.598 1.406,-4.797 5.996,-6.297 l 8.301,-2.797 c 8.691,-2.899 11.895,-7.293 11.895,-15.391 0,-11.293 -8.399,-16.894 -19.989,-16.894 -15.5,0 -19.797,6.797 -19.797,17.093 v 1.903 h 12.395"
         style="fill:#ffffff;fill-opacity:1;fill-rule:nonzero;stroke:none"
         transform="matrix(0.13333333,0,0,-0.13333333,0,103.93333)" />
      <path
         id="path18"
         d="m 396.426,458.012 v -1.805 c 0,-4.695 2.5,-7.797 7.195,-7.797 4.199,0 7.004,2.102 7.004,6.399 0,3.5 -2.305,5.097 -5,6.097 l -9.699,3.5 c -7.598,2.696 -11.492,7.395 -11.492,14.992 0,8.895 5.593,16.192 19.793,16.192 12.492,0 18.39,-5.598 18.39,-15.293 v -2.199 h -12.394 c 0,5.394 -1.602,8.097 -6.102,8.097 -3.496,0 -6.496,-2.004 -6.496,-5.8 0,-2.598 1.406,-4.797 5.996,-6.297 l 8.301,-2.797 c 8.691,-2.899 11.894,-7.293 11.894,-15.391 0,-11.293 -8.398,-16.894 -19.988,-16.894 -15.5,0 -19.797,6.797 -19.797,17.093 v 1.903 h 12.395"
         style="fill:#ffffff;fill-opacity:1;fill-rule:nonzero;stroke:none"
         transform="matrix(0.13333333,0,0,-0.13333333,0,103.93333)" />
      <path
         id="path19"
         d="m 458.301,467.301 c -1.906,-1.395 -4.199,-2.297 -5.899,-2.699 -5.597,-1.196 -7.793,-3.899 -7.793,-8.692 0,-4.101 1.493,-7.5 5.196,-7.5 3.691,0 8.496,2.403 8.496,8.297 z m -25.188,10.398 v 1.297 c 0,12.395 8.489,16.594 18.887,16.594 16.387,0 19.492,-6.801 19.492,-16.496 v -28.281 c 0,-5 0.293,-7.293 1.699,-10.395 H 460 c -0.91,1.699 -1.301,3.797 -1.699,5.594 h -0.207 c -3.192,-5.594 -7.098,-6.996 -13.692,-6.996 -9.589,0 -12.988,8.199 -12.988,15.394 0,10.094 4.094,14.192 13.586,16.789 l 7.801,2.098 c 4.094,1.101 5.5,2.699 5.5,6.301 0,4.097 -1.809,6.597 -6.399,6.597 -4.199,0 -6.394,-2.8 -6.394,-7 v -1.496 h -12.395"
         style="fill:#ffffff;fill-opacity:1;fill-rule:nonzero;stroke:none"
         transform="matrix(0.13333333,0,0,-0.13333333,0,103.93333)" />
      <path
         id="path20"
         d="m 486.797,509.578 h 13.789 v -15.39 h 7.996 v -9.395 h -7.996 v -29.082 c 0,-4.199 0.898,-5.898 4.902,-5.898 1.094,0 2.196,0.101 3.094,0.199 v -9.594 c -2.996,-0.301 -5.801,-0.602 -8.992,-0.602 -10.801,0 -12.793,3.301 -12.793,14.196 v 30.781 h -7.004 v 9.395 h 7.004 v 15.39"
         style="fill:#ffffff;fill-opacity:1;fill-rule:nonzero;stroke:none"
         transform="matrix(0.13333333,0,0,-0.13333333,0,103.93333)" />
      <path
         id="path21"
         d="m 529.883,456.008 v -15.59 h -13.195 v 15.59 h 13.195"
         style="fill:#ffffff;fill-opacity:1;fill-rule:nonzero;stroke:none"
         transform="matrix(0.13333333,0,0,-0.13333333,0,103.93333)" />
      <path
         id="path22"
         d="M 110.977,125.047 V 244.773 H 584.285 V 125.047 H 110.977"
         style="fill:#ffffff;fill-opacity:1;fill-rule:nonzero;stroke:none"
         transform="matrix(0.13333333,0,0,-0.13333333,0,103.93333)" />
      <path
         id="path23"
         d="M 586.781,247.273 H 108.477 V 122.547 h 478.304 v 124.726 z m -4.996,-5 V 127.547 H 113.477 v 114.726 h 468.308"
         style="fill:#231f20;fill-opacity:1;fill-rule:nonzero;stroke:none"
         transform="matrix(0.13333333,0,0,-0.13333333,0,103.93333)" />
      <path
         id="path24"
         d="m 131.406,83.1406 c 0,6.0078 -2.16,10.1563 -8.879,10.1563 -5.918,0 -9.433,-3.1914 -9.433,-9.2656 0,-16.0743 26.945,-6.4844 26.945,-27.3555 0,-13.1914 -9.68,-16.9414 -17.754,-16.9414 -13.351,0 -17.265,6.875 -17.265,19.0234 h 7.031 c 0,-6.3984 0.398,-13.2734 10.711,-13.2734 5.605,0 9.922,4.0039 9.922,10.0781 0,16.1523 -26.942,6.7969 -26.942,27.7461 0,5.2734 2.235,15.75 16.707,15.75 10.871,0 15.832,-5.4375 15.989,-15.918 h -7.032"
         style="fill:#231f20;fill-opacity:1;fill-rule:nonzero;stroke:none"
         transform="matrix(0.13333333,0,0,-0.13333333,0,103.93333)" />
      <path
         id="path25"
         d="m 166.602,64.1953 c -2.473,-2.6367 -8.391,-3.1914 -11.426,-5.039 -2.16,-1.3555 -3.281,-3.0352 -3.281,-6.7969 0,-4.3164 1.523,-7.3516 6.074,-7.3516 4.394,0 8.633,3.7578 8.633,8.1524 z M 145.898,70.75 c 0,9.7539 4.161,14.0703 14.395,14.0703 13.027,0 13.027,-7.832 13.027,-12.3047 v -23.914 c 0,-1.7578 0,-3.4375 2.078,-3.4375 0.879,0 1.282,0.164 1.602,0.3984 v -4.793 c -0.477,-0.0781 -2.234,-0.4023 -3.914,-0.4023 -2.559,0 -5.762,0 -6.086,5.5195 h -0.156 c -2.156,-3.8398 -6.317,-6.1523 -10.313,-6.1523 -7.996,0 -11.679,4.7929 -11.679,12.4687 0,5.9961 2.558,10.1563 8.078,11.836 l 9.043,2.7148 c 4.871,1.5234 4.871,2.8828 4.871,6.4766 0,4.0039 -2.403,6.3164 -6.875,6.3164 -7.352,0 -7.352,-6.875 -7.352,-8.3985 V 70.75 h -6.719"
         style="fill:#231f20;fill-opacity:1;fill-rule:nonzero;stroke:none"
         transform="matrix(0.13333333,0,0,-0.13333333,0,103.93333)" />
      <path
         id="path26"
         d="m 182.449,83.707 h 6.399 v -5.039 h 0.164 c 1.758,3.9179 6.23,6.1523 10.39,6.1523 11.282,0 11.282,-8.5547 11.282,-13.582 V 40.8477 h -6.719 v 29.5898 c 0,3.2695 -0.246,8.6328 -6.32,8.6328 -3.602,0 -8.477,-2.4023 -8.477,-8.6328 V 40.8477 h -6.719 V 83.707"
         style="fill:#231f20;fill-opacity:1;fill-rule:nonzero;stroke:none"
         transform="matrix(0.13333333,0,0,-0.13333333,0,103.93333)" />
      <path
         id="path27"
         d="m 221.492,96.1797 h 6.719 V 83.707 h 7.434 v -5.2812 h -7.434 v -27.5 c 0,-3.4375 0.879,-4.7969 4.394,-4.7969 1.438,0 2.239,0.1563 2.961,0.2344 v -5.5156 c -0.878,-0.1563 -2.636,-0.4805 -5.441,-0.4805 -6.953,0 -8.633,2.8828 -8.633,8.4766 v 29.582 h -6.238 v 5.2812 h 6.238 v 12.4727"
         style="fill:#231f20;fill-opacity:1;fill-rule:nonzero;stroke:none"
         transform="matrix(0.13333333,0,0,-0.13333333,0,103.93333)" />
      <path
         id="path28"
         d="m 255.164,100.973 h 7.844 l -8.633,-11.348 h -4.805 z m 6.164,-34.2191 v 2.3164 c 0,4.8047 -1.523,10.4766 -7.441,10.4766 -7.032,0 -7.832,-8.6328 -7.832,-11.1914 v -1.6016 z m -15.519,-5.2734 c 0,-6.5625 0,-16.4727 8.242,-16.4727 6.398,0 7.277,6.7188 7.277,9.9102 h 6.719 c 0,-4.5508 -2.727,-15.1836 -14.395,-15.1836 -10.48,0 -14.875,7.2734 -14.875,21.9804 0,10.7149 2.082,23.1055 15.274,23.1055 13.117,0 14.308,-11.4258 14.308,-20.625 v -2.7148 h -22.55"
         style="fill:#231f20;fill-opacity:1;fill-rule:nonzero;stroke:none"
         transform="matrix(0.13333333,0,0,-0.13333333,0,103.93333)" />
      <path
         id="path29"
         d="m 330.117,60.4375 c -0.644,-10.793 -4.883,-20.7031 -17.355,-20.7031 -16.231,0 -18.387,15.2617 -18.387,29.6562 0,14.3946 2.637,29.668 18.387,29.668 11.672,0 16.554,-6.5625 16.875,-17.7539 h -7.364 c -0.156,6.4766 -2.234,11.9922 -9.511,11.9922 -9.754,0 -11.035,-10.711 -11.035,-23.9063 0,-13.1914 1.281,-23.9062 11.035,-23.9062 8.554,0 9.758,8 10,14.9531 h 7.355"
         style="fill:#231f20;fill-opacity:1;fill-rule:nonzero;stroke:none"
         transform="matrix(0.13333333,0,0,-0.13333333,0,103.93333)" />
      <path
         id="path30"
         d="m 356.121,64.1953 c -2.469,-2.6367 -8.387,-3.1914 -11.426,-5.039 -2.156,-1.3555 -3.281,-3.0352 -3.281,-6.7969 0,-4.3164 1.516,-7.3516 6.074,-7.3516 4.407,0 8.633,3.7578 8.633,8.1524 z M 335.418,70.75 c 0,9.7539 4.16,14.0703 14.395,14.0703 13.027,0 13.027,-7.832 13.027,-12.3047 v -23.914 c 0,-1.7578 0,-3.4375 2.082,-3.4375 0.879,0 1.277,0.164 1.601,0.3984 v -4.793 c -0.48,-0.0781 -2.238,-0.4023 -3.918,-0.4023 -2.558,0 -5.761,0 -6.082,5.5195 h -0.156 c -2.16,-3.8398 -6.32,-6.1523 -10.312,-6.1523 -8,0 -11.68,4.7929 -11.68,12.4687 0,5.9961 2.559,10.1563 8.074,11.836 l 9.043,2.7148 c 4.875,1.5234 4.875,2.8828 4.875,6.4766 0,4.0039 -2.402,6.3164 -6.875,6.3164 -7.355,0 -7.355,-6.875 -7.355,-8.3985 V 70.75 h -6.719"
         style="fill:#231f20;fill-opacity:1;fill-rule:nonzero;stroke:none"
         transform="matrix(0.13333333,0,0,-0.13333333,0,103.93333)" />
      <path
         id="path31"
         d="m 371.973,83.707 h 6.394 v -5.039 h 0.168 c 1.758,3.9179 6.231,6.1523 10.391,6.1523 11.269,0 11.269,-8.5547 11.269,-13.582 V 40.8477 h -6.711 v 29.5898 c 0,3.2695 -0.242,8.6328 -6.316,8.6328 -3.594,0 -8.477,-2.4023 -8.477,-8.6328 V 40.8477 h -6.718 V 83.707"
         style="fill:#231f20;fill-opacity:1;fill-rule:nonzero;stroke:none"
         transform="matrix(0.13333333,0,0,-0.13333333,0,103.93333)" />
      <path
         id="path32"
         d="m 428.68,64.1953 c -2.469,-2.6367 -8.387,-3.1914 -11.426,-5.039 -2.156,-1.3555 -3.281,-3.0352 -3.281,-6.7969 0,-4.3164 1.515,-7.3516 6.074,-7.3516 4.406,0 8.633,3.7578 8.633,8.1524 z M 407.977,70.75 c 0,9.7539 4.16,14.0703 14.394,14.0703 13.027,0 13.027,-7.832 13.027,-12.3047 v -23.914 c 0,-1.7578 0,-3.4375 2.082,-3.4375 0.879,0 1.278,0.164 1.602,0.3984 v -4.793 c -0.48,-0.0781 -2.238,-0.4023 -3.918,-0.4023 -2.559,0 -5.762,0 -6.082,5.5195 h -0.156 c -2.16,-3.8398 -6.321,-6.1523 -10.313,-6.1523 -8,0 -11.679,4.7929 -11.679,12.4687 0,5.9961 2.558,10.1563 8.074,11.836 l 9.043,2.7148 c 4.875,1.5234 4.875,2.8828 4.875,6.4766 0,4.0039 -2.403,6.3164 -6.875,6.3164 -7.356,0 -7.356,-6.875 -7.356,-8.3985 V 70.75 h -6.718"
         style="fill:#231f20;fill-opacity:1;fill-rule:nonzero;stroke:none"
         transform="matrix(0.13333333,0,0,-0.13333333,0,103.93333)" />
      <path
         id="path33"
         d="m 457.801,45.4844 c 7.441,0 8.644,7.0429 8.644,16.7969 0,8.3125 -1.445,16.789 -8.644,16.789 -6.231,0 -7.832,-6.5547 -7.832,-16.789 0,-10.2344 1.601,-16.7969 7.832,-16.7969 z m 14.953,-4.6367 h -6.387 v 5.2812 h -0.168 c -0.879,-3.2031 -4.636,-6.3945 -9.277,-6.3945 -10.145,0 -13.984,9.0312 -13.984,22.5469 0,8.957 1.437,22.539 13.507,22.539 3.836,0 7.918,-2.3125 9.434,-5.9961 h 0.164 v 19.1133 h 6.711 V 40.8477"
         style="fill:#231f20;fill-opacity:1;fill-rule:nonzero;stroke:none"
         transform="matrix(0.13333333,0,0,-0.13333333,0,103.93333)" />
      <path
         id="path34"
         d="m 501.238,64.1953 c -2.468,-2.6367 -8.386,-3.1914 -11.425,-5.039 -2.157,-1.3555 -3.282,-3.0352 -3.282,-6.7969 0,-4.3164 1.516,-7.3516 6.074,-7.3516 4.407,0 8.633,3.7578 8.633,8.1524 z M 480.535,70.75 c 0,9.7539 4.16,14.0703 14.395,14.0703 13.027,0 13.027,-7.832 13.027,-12.3047 v -23.914 c 0,-1.7578 0,-3.4375 2.082,-3.4375 0.879,0 1.277,0.164 1.602,0.3984 v -4.793 c -0.481,-0.0781 -2.239,-0.4023 -3.918,-0.4023 -2.559,0 -5.762,0 -6.082,5.5195 h -0.157 c -2.16,-3.8398 -6.32,-6.1523 -10.312,-6.1523 -8,0 -11.68,4.7929 -11.68,12.4687 0,5.9961 2.559,10.1563 8.074,11.836 l 9.043,2.7148 c 4.875,1.5234 4.875,2.8828 4.875,6.4766 0,4.0039 -2.402,6.3164 -6.875,6.3164 -7.355,0 -7.355,-6.875 -7.355,-8.3985 V 70.75 h -6.719"
         style="fill:#231f20;fill-opacity:1;fill-rule:nonzero;stroke:none"
         transform="matrix(0.13333333,0,0,-0.13333333,0,103.93333)" />
      <path
         id="path35"
         d="m 185.973,632.465 c -18.539,-31.582 -59.207,-42.176 -90.7582,-23.629 -31.582,18.539 -42.1757,59.242 -23.6367,90.828 18.543,31.547 58.8989,42.063 90.8319,23.602 31.93,-18.426 42.145,-59.246 23.563,-90.801 z m -12.676,109.93 C 131.184,767.137 77.4922,753.133 52.7148,711.012 31.0508,673.621 39.3281,626.891 70.7969,599.801 L 35.3672,540.266 c -3.5234,-6.012 -1.3242,-13.75 4.8359,-17.012 l 8.5,-4.5 c 5.8594,-3.102 13.1211,-0.977 16.3867,4.793 l 33.6055,59.844 c 39.3827,-14.176 84.2107,1.339 105.9887,38.422 24.707,42.113 10.765,95.843 -31.387,120.582"
         style="fill:#231f20;fill-opacity:1;fill-rule:nonzero;stroke:none"
         transform="matrix(0.13333333,0,0,-0.13333333,0,103.93333)" />
    </g>
  </g>
</svg>
