<?xml version="1.0" encoding="UTF-8" standalone="no"?>
<!-- Created with Inkscape (http://www.inkscape.org/) -->

<svg
   version="1.1"
   id="svg1"
   width="82.013336"
   height="154.96001"
   viewBox="0 0 82.013336 154.96001"
   sodipodi:docname="3.6(VB).eps"
   xmlns:inkscape="http://www.inkscape.org/namespaces/inkscape"
   xmlns:sodipodi="http://sodipodi.sourceforge.net/DTD/sodipodi-0.dtd"
   xmlns="http://www.w3.org/2000/svg"
   xmlns:svg="http://www.w3.org/2000/svg">
  <defs
     id="defs1" />
  <sodipodi:namedview
     id="namedview1"
     pagecolor="#ffffff"
     bordercolor="#000000"
     borderopacity="0.25"
     inkscape:showpageshadow="2"
     inkscape:pageopacity="0.0"
     inkscape:pagecheckerboard="0"
     inkscape:deskcolor="#d1d1d1">
    <inkscape:page
       x="0"
       y="0"
       inkscape:label="1"
       id="page1"
       width="82.013336"
       height="154.96001"
       margin="0"
       bleed="0" />
  </sodipodi:namedview>
  <g
     id="g1"
     inkscape:groupmode="layer"
     inkscape:label="1">
    <g
       id="group-R5">
      <path
         id="path2"
         d="M 2.5,2.48828 V 1159.7 H 612.617 V 2.48828 H 2.5"
         style="fill:#ffffff;fill-opacity:1;fill-rule:nonzero;stroke:none"
         transform="matrix(0.13333333,0,0,-0.13333333,0,154.96)" />
      <path
         id="path3"
         d="M 615.117,1162.2 H 0 V 0 h 615.117 v 1162.2 z m -5,-5 V 5 H 5.00391 V 1157.2 H 610.117"
         style="fill:#231f20;fill-opacity:1;fill-rule:nonzero;stroke:none"
         transform="matrix(0.13333333,0,0,-0.13333333,0,154.96)" />
      <path
         id="path4"
         d="m 265.926,1140.32 h 13.789 l -9.793,-14.39 h -9.395 z m 20.683,-18.58 v -11.8 h -25.488 v -16.79 h 23.996 v -11.79 h -23.996 v -19.19 h 26.496 v -11.79 h -40.879 v 71.36 h 39.871"
         style="fill:#231f20;fill-opacity:1;fill-rule:nonzero;stroke:none"
         transform="matrix(0.13333333,0,0,-0.13333333,0,154.96)" />
      <path
         id="path5"
         d="m 297.422,1121.74 h 13.789 v -71.36 h -13.789 v 71.36"
         style="fill:#231f20;fill-opacity:1;fill-rule:nonzero;stroke:none"
         transform="matrix(0.13333333,0,0,-0.13333333,0,154.96)" />
      <path
         id="path6"
         d="m 349.297,1083.36 c -0.293,8.19 -1.301,12.79 -6.992,12.79 -5.5,0 -7.102,-5.7 -7.102,-10.69 v -2.1 z m -14.094,-8.2 v -4.3 c 0,-6.29 1.699,-12.49 6.797,-12.49 4.602,0 6.504,3.5 7.297,10.09 h 12.402 c -0.508,-12.49 -6.504,-19.49 -19.492,-19.49 -19.992,0 -20.793,15.4 -20.793,28.79 0,14.39 2.805,27.79 21.387,27.79 16.094,0 19.687,-10.8 19.687,-27.29 v -3.1 h -27.285"
         style="fill:#231f20;fill-opacity:1;fill-rule:nonzero;stroke:none"
         transform="matrix(0.13333333,0,0,-0.13333333,0,154.96)" />
      <path
         id="path7"
         d="m 397.684,1104.14 h 13.789 l -13.496,-53.76 h -15.985 l -13.898,53.76 h 14.394 l 7.696,-38.47 h 0.195 l 7.305,38.47"
         style="fill:#231f20;fill-opacity:1;fill-rule:nonzero;stroke:none"
         transform="matrix(0.13333333,0,0,-0.13333333,0,154.96)" />
      <path
         id="path8"
         d="m 436.57,1124.83 h 13.789 l -9.793,-14.39 h -9.394 z m 8.391,-41.47 c -0.293,8.19 -1.301,12.79 -6.992,12.79 -5.5,0 -7.102,-5.7 -7.102,-10.69 v -2.1 z m -14.094,-8.2 v -4.3 c 0,-6.29 1.699,-12.49 6.797,-12.49 4.602,0 6.504,3.5 7.297,10.09 h 12.402 c -0.508,-12.49 -6.504,-19.49 -19.492,-19.49 -19.992,0 -20.793,15.4 -20.793,28.79 0,14.39 2.805,27.79 21.387,27.79 16.094,0 19.687,-10.8 19.687,-27.29 v -3.1 h -27.285"
         style="fill:#231f20;fill-opacity:1;fill-rule:nonzero;stroke:none"
         transform="matrix(0.13333333,0,0,-0.13333333,0,154.96)" />
      <path
         id="path9"
         d="m 520.223,1083.36 c -0.293,8.19 -1.297,12.79 -6.993,12.79 -5.496,0 -7.097,-5.7 -7.097,-10.69 v -2.1 z m -14.09,-8.2 v -4.3 c 0,-6.29 1.699,-12.49 6.797,-12.49 4.597,0 6.504,3.5 7.293,10.09 h 12.402 c -0.508,-12.49 -6.504,-19.49 -19.492,-19.49 -19.988,0 -20.789,15.4 -20.789,28.79 0,14.39 2.801,27.79 21.386,27.79 16.094,0 19.688,-10.8 19.688,-27.29 v -3.1 h -27.285"
         style="fill:#231f20;fill-opacity:1;fill-rule:nonzero;stroke:none"
         transform="matrix(0.13333333,0,0,-0.13333333,0,154.96)" />
      <path
         id="path10"
         d="m 543.125,1104.14 h 13.191 v -6.29 h 0.196 c 2.902,5.3 7.902,7.7 13.691,7.7 8.594,0 13.692,-4.7 13.692,-15.3 v -39.87 h -13.79 v 37.07 c 0,5.4 -1.796,7.5 -5.898,7.5 -4.695,0 -7.293,-2.9 -7.293,-8.9 v -35.67 h -13.789 v 53.76"
         style="fill:#231f20;fill-opacity:1;fill-rule:nonzero;stroke:none"
         transform="matrix(0.13333333,0,0,-0.13333333,0,154.96)" />
      <path
         id="path11"
         d="m 246.738,1021.74 h 14.383 v -27.287 h 16.797 v 27.287 h 14.395 v -71.365 h -14.395 v 31.684 h -16.797 v -31.684 h -14.383 v 71.365"
         style="fill:#231f20;fill-opacity:1;fill-rule:nonzero;stroke:none"
         transform="matrix(0.13333333,0,0,-0.13333333,0,154.96)" />
      <path
         id="path12"
         d="m 304.91,1004.14 h 13.789 V 950.375 H 304.91 Z m 0,18.39 h 13.789 v -11.79 H 304.91 v 11.79"
         style="fill:#231f20;fill-opacity:1;fill-rule:nonzero;stroke:none"
         transform="matrix(0.13333333,0,0,-0.13333333,0,154.96)" />
      <path
         id="path13"
         d="m 350.496,961.566 c 5.793,0 7.492,6.297 7.492,15.395 0,13.09 -1.699,17.988 -7.199,17.988 -6.094,0 -7.187,-4.898 -7.187,-19.39 0,-7.399 1.093,-13.993 6.894,-13.993 z m 20.684,42.574 v -51.066 c 0,-14.195 -6.297,-21.09 -22.383,-21.09 -11.699,0 -18.289,5.196 -18.289,14.391 h 13.191 c 0,-1.797 0.801,-3.199 2.102,-4.098 1.297,-0.898 2.89,-1.496 4.59,-1.496 5.605,0 7.597,4.199 7.597,9.692 v 7.097 h -0.195 c -2.805,-3.996 -7.102,-6.593 -11.496,-6.593 -10.996,0 -16.492,7.492 -16.492,27.179 0,12.594 1.902,27.394 16.894,27.394 3.797,0 8.496,-1.81 11.094,-7.402 h 0.195 v 5.992 h 13.192"
         style="fill:#231f20;fill-opacity:1;fill-rule:nonzero;stroke:none"
         transform="matrix(0.13333333,0,0,-0.13333333,0,154.96)" />
      <path
         id="path14"
         d="m 383.387,1021.74 h 13.789 v -23.095 h 0.207 c 2.597,4.605 7.293,6.905 13.086,6.905 8.594,0 13.691,-4.7 13.691,-15.296 v -39.879 h -13.789 v 37.078 c 0,5.399 -1.797,7.496 -5.898,7.496 -4.7,0 -7.297,-2.898 -7.297,-8.894 v -35.68 h -13.789 v 71.365"
         style="fill:#231f20;fill-opacity:1;fill-rule:nonzero;stroke:none"
         transform="matrix(0.13333333,0,0,-0.13333333,0,154.96)" />
      <path
         id="path15"
         d="m 462.859,1004.14 h 13.789 v -53.765 h -13.789 z m 0,18.39 h 13.789 v -11.79 h -13.789 v 11.79"
         style="fill:#231f20;fill-opacity:1;fill-rule:nonzero;stroke:none"
         transform="matrix(0.13333333,0,0,-0.13333333,0,154.96)" />
      <path
         id="path16"
         d="m 488.848,1004.14 h 13.191 v -6.288 h 0.195 c 2.903,5.298 7.903,7.698 13.692,7.698 8.594,0 13.691,-4.7 13.691,-15.296 v -39.879 h -13.789 v 37.078 c 0,5.399 -1.797,7.496 -5.898,7.496 -4.696,0 -7.293,-2.898 -7.293,-8.894 v -35.68 h -13.789 v 53.765"
         style="fill:#231f20;fill-opacity:1;fill-rule:nonzero;stroke:none"
         transform="matrix(0.13333333,0,0,-0.13333333,0,154.96)" />
      <path
         id="path17"
         d="m 133.863,164.77 c 0,5.996 -2.16,10.156 -8.879,10.156 -5.918,0 -9.433,-3.203 -9.433,-9.278 0,-16.078 26.945,-6.476 26.945,-27.347 0,-13.192 -9.68,-16.949 -17.754,-16.949 -13.351,0 -17.265,6.878 -17.265,19.027 h 7.031 c 0,-6.391 0.398,-13.27 10.711,-13.27 5.605,0 9.922,4 9.922,10.071 0,16.148 -26.953,6.8 -26.953,27.746 0,5.281 2.246,15.75 16.718,15.75 10.871,0 15.832,-5.438 15.989,-15.906 h -7.032"
         style="fill:#231f20;fill-opacity:1;fill-rule:nonzero;stroke:none"
         transform="matrix(0.13333333,0,0,-0.13333333,0,154.96)" />
      <path
         id="path18"
         d="m 169.059,145.809 c -2.473,-2.629 -8.391,-3.188 -11.426,-5.02 -2.16,-1.367 -3.281,-3.039 -3.281,-6.801 0,-4.316 1.511,-7.367 6.074,-7.367 4.402,0 8.633,3.758 8.633,8.168 z m -20.704,6.57 c 0,9.75 4.161,14.07 14.391,14.07 13.031,0 13.031,-7.84 13.031,-12.32 V 130.23 c 0,-1.761 0,-3.441 2.078,-3.441 0.879,0 1.282,0.16 1.602,0.402 v -4.793 C 178.98,122.309 177.223,122 175.539,122 c -2.555,0 -5.758,0 -6.082,5.512 h -0.156 c -2.156,-3.832 -6.317,-6.16 -10.313,-6.16 -7.996,0 -11.679,4.796 -11.679,12.468 0,6 2.558,10.16 8.078,11.84 l 9.043,2.711 c 4.871,1.527 4.871,2.879 4.871,6.488 0,3.993 -2.403,6.313 -6.875,6.313 -7.352,0 -7.352,-6.883 -7.352,-8.391 v -0.402 h -6.719"
         style="fill:#231f20;fill-opacity:1;fill-rule:nonzero;stroke:none"
         transform="matrix(0.13333333,0,0,-0.13333333,0,154.96)" />
      <path
         id="path19"
         d="m 184.906,165.324 h 6.399 v -5.035 h 0.164 c 1.758,3.922 6.23,6.16 10.39,6.16 11.27,0 11.27,-8.558 11.27,-13.59 v -30.39 h -6.707 v 29.582 c 0,3.289 -0.246,8.64 -6.32,8.64 -3.594,0 -8.477,-2.402 -8.477,-8.64 v -29.582 h -6.719 v 42.855"
         style="fill:#231f20;fill-opacity:1;fill-rule:nonzero;stroke:none"
         transform="matrix(0.13333333,0,0,-0.13333333,0,154.96)" />
      <path
         id="path20"
         d="m 223.949,177.797 h 6.719 v -12.473 h 7.434 v -5.273 h -7.434 v -27.512 c 0,-3.43 0.879,-4.789 4.395,-4.789 1.433,0 2.238,0.148 2.96,0.238 v -5.519 c -0.878,-0.16 -2.636,-0.469 -5.441,-0.469 -6.953,0 -8.633,2.871 -8.633,8.461 v 29.59 h -6.238 v 5.273 h 6.238 v 12.473"
         style="fill:#231f20;fill-opacity:1;fill-rule:nonzero;stroke:none"
         transform="matrix(0.13333333,0,0,-0.13333333,0,154.96)" />
      <path
         id="path21"
         d="m 257.621,182.602 h 7.844 l -8.645,-11.36 h -4.793 z m 6.164,-34.231 v 2.328 c 0,4.789 -1.523,10.473 -7.441,10.473 -7.031,0 -7.832,-8.641 -7.832,-11.203 v -1.598 z m -15.519,-5.269 c 0,-6.551 0,-16.481 8.242,-16.481 6.398,0 7.277,6.719 7.277,9.93 h 6.719 c 0,-4.563 -2.727,-15.199 -14.395,-15.199 -10.48,0 -14.875,7.277 -14.875,21.988 0,10.719 2.082,23.109 15.274,23.109 13.105,0 14.308,-11.437 14.308,-20.64 v -2.707 h -22.55"
         style="fill:#231f20;fill-opacity:1;fill-rule:nonzero;stroke:none"
         transform="matrix(0.13333333,0,0,-0.13333333,0,154.96)" />
      <path
         id="path22"
         d="m 332.566,142.059 c -0.644,-10.797 -4.882,-20.707 -17.347,-20.707 -16.231,0 -18.391,15.269 -18.391,29.668 0,14.382 2.641,29.656 18.391,29.656 11.676,0 16.547,-6.551 16.871,-17.742 h -7.363 c -0.157,6.472 -2.239,11.992 -9.508,11.992 -9.754,0 -11.035,-10.715 -11.035,-23.906 0,-13.192 1.281,-23.911 11.035,-23.911 8.551,0 9.75,7.993 9.996,14.95 h 7.351"
         style="fill:#231f20;fill-opacity:1;fill-rule:nonzero;stroke:none"
         transform="matrix(0.13333333,0,0,-0.13333333,0,154.96)" />
      <path
         id="path23"
         d="m 358.574,145.809 c -2.472,-2.629 -8.39,-3.188 -11.426,-5.02 -2.16,-1.367 -3.281,-3.039 -3.281,-6.801 0,-4.316 1.524,-7.367 6.074,-7.367 4.395,0 8.633,3.758 8.633,8.168 z m -20.703,6.57 c 0,9.75 4.16,14.07 14.395,14.07 13.027,0 13.027,-7.84 13.027,-12.32 V 130.23 c 0,-1.761 0,-3.441 2.078,-3.441 0.879,0 1.281,0.16 1.602,0.402 v -4.793 c -0.477,-0.089 -2.235,-0.398 -3.914,-0.398 -2.559,0 -5.762,0 -6.086,5.512 h -0.157 c -2.156,-3.832 -6.316,-6.16 -10.312,-6.16 -7.996,0 -11.68,4.796 -11.68,12.468 0,6 2.559,10.16 8.078,11.84 l 9.043,2.711 c 4.871,1.527 4.871,2.879 4.871,6.488 0,3.993 -2.402,6.313 -6.875,6.313 -7.351,0 -7.351,-6.883 -7.351,-8.391 v -0.402 h -6.719"
         style="fill:#231f20;fill-opacity:1;fill-rule:nonzero;stroke:none"
         transform="matrix(0.13333333,0,0,-0.13333333,0,154.96)" />
      <path
         id="path24"
         d="m 374.422,165.324 h 6.398 v -5.035 h 0.164 c 1.758,3.922 6.231,6.16 10.391,6.16 11.281,0 11.281,-8.558 11.281,-13.59 v -30.39 h -6.718 v 29.582 c 0,3.289 -0.247,8.64 -6.321,8.64 -3.601,0 -8.476,-2.402 -8.476,-8.64 v -29.582 h -6.719 v 42.855"
         style="fill:#231f20;fill-opacity:1;fill-rule:nonzero;stroke:none"
         transform="matrix(0.13333333,0,0,-0.13333333,0,154.96)" />
      <path
         id="path25"
         d="m 431.133,145.809 c -2.473,-2.629 -8.391,-3.188 -11.426,-5.02 -2.16,-1.367 -3.281,-3.039 -3.281,-6.801 0,-4.316 1.523,-7.367 6.074,-7.367 4.395,0 8.633,3.758 8.633,8.168 z m -20.703,6.57 c 0,9.75 4.16,14.07 14.394,14.07 13.028,0 13.028,-7.84 13.028,-12.32 V 130.23 c 0,-1.761 0,-3.441 2.078,-3.441 0.879,0 1.281,0.16 1.601,0.402 v -4.793 c -0.476,-0.089 -2.234,-0.398 -3.914,-0.398 -2.558,0 -5.762,0 -6.086,5.512 h -0.156 c -2.156,-3.832 -6.316,-6.16 -10.312,-6.16 -7.997,0 -11.68,4.796 -11.68,12.468 0,6 2.558,10.16 8.078,11.84 l 9.043,2.711 c 4.871,1.527 4.871,2.879 4.871,6.488 0,3.993 -2.402,6.313 -6.875,6.313 -7.352,0 -7.352,-6.883 -7.352,-8.391 v -0.402 h -6.718"
         style="fill:#231f20;fill-opacity:1;fill-rule:nonzero;stroke:none"
         transform="matrix(0.13333333,0,0,-0.13333333,0,154.96)" />
      <path
         id="path26"
         d="m 460.254,127.109 c 7.441,0 8.641,7.032 8.641,16.789 0,8.313 -1.446,16.793 -8.641,16.793 -6.231,0 -7.832,-6.562 -7.832,-16.793 0,-10.226 1.601,-16.789 7.832,-16.789 z m 14.961,-4.64 h -6.406 v 5.281 h -0.157 c -0.879,-3.199 -4.64,-6.398 -9.277,-6.398 -10.148,0 -13.984,9.027 -13.984,22.546 0,8.961 1.433,22.551 13.504,22.551 3.839,0 7.921,-2.324 9.433,-6 h 0.168 v 19.114 h 6.719 v -57.094"
         style="fill:#231f20;fill-opacity:1;fill-rule:nonzero;stroke:none"
         transform="matrix(0.13333333,0,0,-0.13333333,0,154.96)" />
      <path
         id="path27"
         d="m 503.691,145.809 c -2.472,-2.629 -8.39,-3.188 -11.425,-5.02 -2.161,-1.367 -3.282,-3.039 -3.282,-6.801 0,-4.316 1.524,-7.367 6.075,-7.367 4.394,0 8.632,3.758 8.632,8.168 z m -20.703,6.57 c 0,9.75 4.16,14.07 14.395,14.07 13.027,0 13.027,-7.84 13.027,-12.32 V 130.23 c 0,-1.761 0,-3.441 2.078,-3.441 0.879,0 1.282,0.16 1.602,0.402 v -4.793 c -0.477,-0.089 -2.235,-0.398 -3.914,-0.398 -2.559,0 -5.762,0 -6.086,5.512 h -0.156 c -2.157,-3.832 -6.317,-6.16 -10.313,-6.16 -7.996,0 -11.68,4.796 -11.68,12.468 0,6 2.559,10.16 8.079,11.84 l 9.043,2.711 c 4.871,1.527 4.871,2.879 4.871,6.488 0,3.993 -2.403,6.313 -6.875,6.313 -7.352,0 -7.352,-6.883 -7.352,-8.391 v -0.402 h -6.719"
         style="fill:#231f20;fill-opacity:1;fill-rule:nonzero;stroke:none"
         transform="matrix(0.13333333,0,0,-0.13333333,0,154.96)" />
      <path
         id="path28"
         d="m 133.656,42.4688 h -7.039 v 27.5 h -19.59 v -27.5 h -7.0309 v 57.0898 h 7.0309 V 76.2109 h 19.59 v 23.3477 h 7.039 V 42.4688"
         style="fill:#231f20;fill-opacity:1;fill-rule:nonzero;stroke:none"
         transform="matrix(0.13333333,0,0,-0.13333333,0,154.96)" />
      <path
         id="path29"
         d="m 163.824,68.3711 v 2.3281 c 0,4.7891 -1.523,10.4727 -7.441,10.4727 -7.031,0 -7.832,-8.6406 -7.832,-11.2031 v -1.5977 z m -15.519,-5.2695 c 0,-6.5508 0,-16.4805 8.242,-16.4805 6.398,0 7.277,6.7187 7.277,9.9297 h 6.715 c 0,-4.5625 -2.723,-15.1992 -14.391,-15.1992 -10.48,0 -14.875,7.2773 -14.875,21.9882 0,10.7188 2.082,23.1094 15.274,23.1094 13.105,0 14.308,-11.4375 14.308,-20.6406 v -2.707 h -22.55"
         style="fill:#231f20;fill-opacity:1;fill-rule:nonzero;stroke:none"
         transform="matrix(0.13333333,0,0,-0.13333333,0,154.96)" />
      <path
         id="path30"
         d="m 197.895,65.8086 c -2.469,-2.6289 -8.387,-3.1875 -11.426,-5.0195 -2.156,-1.3672 -3.281,-3.0391 -3.281,-6.8008 0,-4.3164 1.523,-7.3672 6.074,-7.3672 4.394,0 8.633,3.7578 8.633,8.168 z m -20.704,6.5703 c 0,9.75 4.161,14.0703 14.395,14.0703 13.027,0 13.027,-7.8398 13.027,-12.3203 V 50.2305 c 0,-1.7617 0,-3.4414 2.082,-3.4414 0.879,0 1.278,0.1601 1.602,0.4023 v -4.793 C 207.816,42.3086 206.059,42 204.379,42 c -2.559,0 -5.762,0 -6.082,5.5117 h -0.156 c -2.161,-3.832 -6.321,-6.1601 -10.313,-6.1601 -8,0 -11.68,4.7968 -11.68,12.4687 0,6 2.555,10.1602 8.075,11.8399 l 9.043,2.7109 c 4.875,1.5273 4.875,2.8789 4.875,6.4883 0,3.9922 -2.403,6.3125 -6.875,6.3125 -7.356,0 -7.356,-6.8828 -7.356,-8.3906 v -0.4024 h -6.719"
         style="fill:#231f20;fill-opacity:1;fill-rule:nonzero;stroke:none"
         transform="matrix(0.13333333,0,0,-0.13333333,0,154.96)" />
      <path
         id="path31"
         d="m 214.145,99.5586 h 6.718 V 42.4688 h -6.718 v 57.0898"
         style="fill:#231f20;fill-opacity:1;fill-rule:nonzero;stroke:none"
         transform="matrix(0.13333333,0,0,-0.13333333,0,154.96)" />
      <path
         id="path32"
         d="m 232.066,97.8008 h 6.719 V 85.3281 h 7.43 v -5.2773 h -7.43 V 52.5391 c 0,-3.4297 0.879,-4.7891 4.395,-4.7891 1.433,0 2.234,0.1484 2.957,0.2383 V 42.4688 C 245.258,42.3086 243.5,42 240.699,42 c -6.953,0 -8.633,2.8711 -8.633,8.4609 v 29.5899 h -6.242 v 5.2773 h 6.242 v 12.4727"
         style="fill:#231f20;fill-opacity:1;fill-rule:nonzero;stroke:none"
         transform="matrix(0.13333333,0,0,-0.13333333,0,154.96)" />
      <path
         id="path33"
         d="m 250.785,99.5586 h 6.719 V 80.4492 h 0.156 c 1.77,3.5196 6.485,6 10.324,6 11.024,0 11.024,-8.5586 11.024,-13.5898 V 42.4688 h -6.707 v 29.582 c 0,3.289 -0.246,8.6406 -6.321,8.6406 -3.593,0 -8.476,-2.4023 -8.476,-8.6406 v -29.582 h -6.719 v 57.0898"
         style="fill:#231f20;fill-opacity:1;fill-rule:nonzero;stroke:none"
         transform="matrix(0.13333333,0,0,-0.13333333,0,154.96)" />
      <path
         id="path34"
         d="m 342.207,62.0586 c -0.644,-10.7969 -4.883,-20.707 -17.355,-20.707 -16.223,0 -18.383,15.2695 -18.383,29.6679 0,14.3789 2.636,29.6605 18.383,29.6605 11.671,0 16.554,-6.5589 16.875,-17.7503 h -7.364 c -0.156,6.4805 -2.234,12 -9.511,12 -9.75,0 -11.028,-10.7188 -11.028,-23.9102 0,-13.1914 1.278,-23.9101 11.028,-23.9101 8.554,0 9.757,7.9922 10,14.9492 h 7.355"
         style="fill:#231f20;fill-opacity:1;fill-rule:nonzero;stroke:none"
         transform="matrix(0.13333333,0,0,-0.13333333,0,154.96)" />
      <path
         id="path35"
         d="m 368.211,65.8086 c -2.469,-2.6289 -8.387,-3.1875 -11.426,-5.0195 -2.156,-1.3672 -3.281,-3.0391 -3.281,-6.8008 0,-4.3164 1.516,-7.3672 6.074,-7.3672 4.406,0 8.633,3.7578 8.633,8.168 z m -20.703,6.5703 c 0,9.75 4.16,14.0703 14.394,14.0703 13.028,0 13.028,-7.8398 13.028,-12.3203 V 50.2305 c 0,-1.7617 0,-3.4414 2.082,-3.4414 0.879,0 1.277,0.1601 1.601,0.4023 v -4.793 C 378.133,42.3086 376.375,42 374.695,42 c -2.558,0 -5.761,0 -6.082,5.5117 h -0.156 c -2.16,-3.832 -6.32,-6.1601 -10.312,-6.1601 -8,0 -11.68,4.7968 -11.68,12.4687 0,6 2.558,10.1602 8.074,11.8399 l 9.043,2.7109 c 4.875,1.5273 4.875,2.8789 4.875,6.4883 0,3.9922 -2.402,6.3125 -6.875,6.3125 -7.355,0 -7.355,-6.8828 -7.355,-8.3906 v -0.4024 h -6.719"
         style="fill:#231f20;fill-opacity:1;fill-rule:nonzero;stroke:none"
         transform="matrix(0.13333333,0,0,-0.13333333,0,154.96)" />
      <path
         id="path36"
         d="m 384.063,85.3281 h 6.394 v -5.039 h 0.168 c 1.758,3.9218 6.23,6.1601 10.391,6.1601 11.269,0 11.269,-8.5586 11.269,-13.5898 V 42.4688 h -6.711 v 29.582 c 0,3.289 -0.242,8.6406 -6.316,8.6406 -3.594,0 -8.477,-2.4023 -8.477,-8.6406 v -29.582 h -6.718 v 42.8593"
         style="fill:#231f20;fill-opacity:1;fill-rule:nonzero;stroke:none"
         transform="matrix(0.13333333,0,0,-0.13333333,0,154.96)" />
      <path
         id="path37"
         d="m 440.77,65.8086 c -2.469,-2.6289 -8.387,-3.1875 -11.426,-5.0195 -2.156,-1.3672 -3.281,-3.0391 -3.281,-6.8008 0,-4.3164 1.515,-7.3672 6.074,-7.3672 4.406,0 8.633,3.7578 8.633,8.168 z m -20.704,6.5703 c 0,9.75 4.161,14.0703 14.395,14.0703 13.027,0 13.027,-7.8398 13.027,-12.3203 V 50.2305 c 0,-1.7617 0,-3.4414 2.082,-3.4414 0.879,0 1.278,0.1601 1.602,0.4023 v -4.793 C 450.691,42.3086 448.934,42 447.254,42 c -2.559,0 -5.762,0 -6.082,5.5117 h -0.156 c -2.161,-3.832 -6.321,-6.1601 -10.313,-6.1601 -8,0 -11.68,4.7968 -11.68,12.4687 0,6 2.559,10.1602 8.075,11.8399 l 9.043,2.7109 c 4.875,1.5273 4.875,2.8789 4.875,6.4883 0,3.9922 -2.403,6.3125 -6.875,6.3125 -7.356,0 -7.356,-6.8828 -7.356,-8.3906 v -0.4024 h -6.719"
         style="fill:#231f20;fill-opacity:1;fill-rule:nonzero;stroke:none"
         transform="matrix(0.13333333,0,0,-0.13333333,0,154.96)" />
      <path
         id="path38"
         d="m 469.891,47.1094 c 7.441,0 8.644,7.0312 8.644,16.789 0,8.3125 -1.445,16.793 -8.644,16.793 -6.231,0 -7.832,-6.5625 -7.832,-16.793 0,-10.2265 1.601,-16.789 7.832,-16.789 z m 14.953,-4.6406 h -6.387 V 47.75 h -0.168 c -0.879,-3.1992 -4.637,-6.3984 -9.277,-6.3984 -10.145,0 -13.985,9.0273 -13.985,22.5468 0,8.961 1.438,22.5508 13.508,22.5508 3.836,0 7.918,-2.3281 9.434,-6 h 0.164 v 19.1094 h 6.711 V 42.4688"
         style="fill:#231f20;fill-opacity:1;fill-rule:nonzero;stroke:none"
         transform="matrix(0.13333333,0,0,-0.13333333,0,154.96)" />
      <path
         id="path39"
         d="m 513.328,65.8086 c -2.469,-2.6289 -8.387,-3.1875 -11.426,-5.0195 -2.156,-1.3672 -3.281,-3.0391 -3.281,-6.8008 0,-4.3164 1.516,-7.3672 6.074,-7.3672 4.407,0 8.633,3.7578 8.633,8.168 z m -20.703,6.5703 c 0,9.75 4.16,14.0703 14.395,14.0703 13.027,0 13.027,-7.8398 13.027,-12.3203 V 50.2305 c 0,-1.7617 0,-3.4414 2.082,-3.4414 0.879,0 1.277,0.1601 1.601,0.4023 v -4.793 C 523.25,42.3086 521.492,42 519.813,42 c -2.559,0 -5.762,0 -6.083,5.5117 h -0.156 c -2.16,-3.832 -6.32,-6.1601 -10.312,-6.1601 -8,0 -11.68,4.7968 -11.68,12.4687 0,6 2.559,10.1602 8.074,11.8399 l 9.043,2.7109 c 4.875,1.5273 4.875,2.8789 4.875,6.4883 0,3.9922 -2.402,6.3125 -6.875,6.3125 -7.355,0 -7.355,-6.8828 -7.355,-8.3906 v -0.4024 h -6.719"
         style="fill:#231f20;fill-opacity:1;fill-rule:nonzero;stroke:none"
         transform="matrix(0.13333333,0,0,-0.13333333,0,154.96)" />
      <path
         id="path40"
         d="M 103.426,216.938 V 433.039 H 581.395 V 216.938 H 103.426"
         style="fill:#ffffff;fill-opacity:1;fill-rule:nonzero;stroke:none"
         transform="matrix(0.13333333,0,0,-0.13333333,0,154.96)" />
      <path
         id="path41"
         d="M 583.895,435.543 H 100.926 V 214.438 h 482.969 v 221.105 z m -5,-5.004 V 219.441 H 105.93 v 211.098 h 472.965"
         style="fill:#231f20;fill-opacity:1;fill-rule:nonzero;stroke:none"
         transform="matrix(0.13333333,0,0,-0.13333333,0,154.96)" />
      <path
         id="path42"
         d="M 100.926,675.391 V 454.289 H 583.895 V 675.391 H 100.926"
         style="fill:#231f20;fill-opacity:1;fill-rule:nonzero;stroke:none"
         transform="matrix(0.13333333,0,0,-0.13333333,0,154.96)" />
      <path
         id="path43"
         d="m 188.324,607.297 v -2.098 c 0,-6.699 1.895,-10.996 9.492,-10.996 4.395,0 8.594,2.797 8.594,8.793 0,6.5 -3.289,8.899 -12.793,12.199 -12.793,4.395 -18.679,9.692 -18.679,21.586 0,13.891 8.484,20.985 22.078,20.985 12.793,0 22.089,-5.496 22.089,-19.188 v -2 h -13.789 c 0,6.695 -2.304,10.598 -7.8,10.598 -6.496,0 -8.196,-4.102 -8.196,-8.297 0,-4.399 1.301,-7.098 7.403,-9.695 l 11.093,-4.797 c 10.793,-4.696 13.586,-10.196 13.586,-18.891 0,-15.094 -9.191,-21.891 -24.785,-21.891 -16.289,0 -22.687,7.598 -22.687,20.793 v 2.899 h 14.394"
         style="fill:#ffffff;fill-opacity:1;fill-rule:nonzero;stroke:none"
         transform="matrix(0.13333333,0,0,-0.13333333,0,154.96)" />
      <path
         id="path44"
         d="m 258.297,591.309 h -0.195 c -2.903,-5.301 -7.903,-7.704 -13.692,-7.704 -8.594,0 -13.691,4.7 -13.691,15.293 v 39.879 h 13.789 v -37.078 c 0,-5.398 1.797,-7.496 5.898,-7.496 4.696,0 7.293,2.899 7.293,8.895 v 35.679 h 13.789 v -53.769 h -13.191 v 6.301"
         style="fill:#ffffff;fill-opacity:1;fill-rule:nonzero;stroke:none"
         transform="matrix(0.13333333,0,0,-0.13333333,0,154.96)" />
      <path
         id="path45"
         d="m 309.078,619.387 c 0,5.203 -1,10.797 -6.191,10.797 -6.797,0 -7.903,-5.996 -7.903,-18.387 0,-13.297 1.204,-18.789 7.403,-18.789 4.601,0 6.691,3.894 6.691,12.59 h 13.188 c 0,-14.094 -5.891,-21.993 -20.485,-21.993 -13.789,0 -20.586,6.7 -20.586,28.29 0,22.089 9.094,28.285 21.789,28.285 12.696,0 19.282,-8.098 19.282,-20.793 h -13.188"
         style="fill:#ffffff;fill-opacity:1;fill-rule:nonzero;stroke:none"
         transform="matrix(0.13333333,0,0,-0.13333333,0,154.96)" />
      <path
         id="path46"
         d="m 331.973,638.777 h 13.191 v -7.199 h 0.195 c 2.805,5.203 6.7,8.602 12.395,8.602 0.801,0 1.699,-0.102 2.5,-0.2 v -13.195 c -1.399,0.098 -2.902,0.199 -4.297,0.199 -4.797,0 -10.195,-2.5 -10.195,-9.695 v -32.281 h -13.789 v 53.769"
         style="fill:#ffffff;fill-opacity:1;fill-rule:nonzero;stroke:none"
         transform="matrix(0.13333333,0,0,-0.13333333,0,154.96)" />
      <path
         id="path47"
         d="m 393.641,617.992 c -0.293,8.192 -1.297,12.793 -6.993,12.793 -5.496,0 -7.097,-5.699 -7.097,-10.695 v -2.098 z m -14.09,-8.199 v -4.297 c 0,-6.293 1.699,-12.488 6.797,-12.488 4.597,0 6.504,3.496 7.293,10.09 h 12.402 c -0.508,-12.493 -6.504,-19.493 -19.492,-19.493 -19.988,0 -20.789,15.399 -20.789,28.786 0,14.394 2.801,27.789 21.386,27.789 16.094,0 19.688,-10.797 19.688,-27.285 v -3.102 h -27.285"
         style="fill:#ffffff;fill-opacity:1;fill-rule:nonzero;stroke:none"
         transform="matrix(0.13333333,0,0,-0.13333333,0,154.96)" />
      <path
         id="path48"
         d="m 426.629,602.598 v -1.797 c 0,-4.699 2.5,-7.793 7.199,-7.793 4.199,0 7,2.094 7,6.394 0,3.496 -2.305,5.094 -5,6.094 l -9.695,3.496 c -7.598,2.699 -11.496,7.399 -11.496,14.996 0,8.895 5.597,16.192 19.797,16.192 12.488,0 18.386,-5.602 18.386,-15.293 v -2.199 h -12.39 c 0,5.398 -1.602,8.097 -6.106,8.097 -3.496,0 -6.492,-2.004 -6.492,-5.797 0,-2.601 1.406,-4.8 5.996,-6.297 l 8.301,-2.8 c 8.691,-2.899 11.894,-7.293 11.894,-15.391 0,-11.293 -8.398,-16.895 -19.992,-16.895 -15.496,0 -19.793,6.797 -19.793,17.098 v 1.895 h 12.391"
         style="fill:#ffffff;fill-opacity:1;fill-rule:nonzero;stroke:none"
         transform="matrix(0.13333333,0,0,-0.13333333,0,154.96)" />
      <path
         id="path49"
         d="m 188.324,507.297 v -2.098 c 0,-6.699 1.895,-10.996 9.492,-10.996 4.395,0 8.594,2.793 8.594,8.789 0,6.504 -3.289,8.895 -12.793,12.196 -12.793,4.394 -18.679,9.699 -18.679,21.593 0,13.887 8.484,20.985 22.078,20.985 12.793,0 22.089,-5.496 22.089,-19.188 v -2.004 h -13.789 c 0,6.699 -2.304,10.598 -7.8,10.598 -6.496,0 -8.196,-4.102 -8.196,-8.293 0,-4.402 1.301,-7.098 7.403,-9.695 l 11.093,-4.797 c 10.793,-4.696 13.586,-10.196 13.586,-18.895 0,-15.09 -9.191,-21.887 -24.785,-21.887 -16.289,0 -22.687,7.598 -22.687,20.793 v 2.899 h 14.394"
         style="fill:#ffffff;fill-opacity:1;fill-rule:nonzero;stroke:none"
         transform="matrix(0.13333333,0,0,-0.13333333,0,154.96)" />
      <path
         id="path50"
         d="m 258.297,491.301 h -0.195 c -2.903,-5.293 -7.903,-7.696 -13.692,-7.696 -8.594,0 -13.691,4.7 -13.691,15.293 v 39.875 h 13.789 v -37.082 c 0,-5.39 1.797,-7.488 5.898,-7.488 4.696,0 7.293,2.899 7.293,8.895 v 35.675 h 13.789 v -53.769 h -13.191 v 6.297"
         style="fill:#ffffff;fill-opacity:1;fill-rule:nonzero;stroke:none"
         transform="matrix(0.13333333,0,0,-0.13333333,0,154.96)" />
      <path
         id="path51"
         d="m 302.789,496.195 c 5.789,0 7.488,6.297 7.488,15.399 0,13.086 -1.699,17.988 -7.199,17.988 -6.09,0 -7.183,-4.902 -7.183,-19.394 0,-7.391 1.093,-13.993 6.894,-13.993 z m 20.676,42.578 v -51.066 c 0,-14.199 -6.297,-21.094 -22.375,-21.094 -11.699,0 -18.293,5.196 -18.293,14.395 h 13.195 c 0,-1.797 0.801,-3.203 2.098,-4.102 1.301,-0.898 2.902,-1.492 4.59,-1.492 5.605,0 7.597,4.199 7.597,9.688 v 7.097 h -0.195 c -2.801,-3.992 -7.098,-6.59 -11.492,-6.59 -10.996,0 -16.496,7.489 -16.496,27.176 0,12.598 1.902,27.395 16.894,27.395 3.801,0 8.496,-1.809 11.094,-7.403 h 0.195 v 5.996 h 13.188"
         style="fill:#ffffff;fill-opacity:1;fill-rule:nonzero;stroke:none"
         transform="matrix(0.13333333,0,0,-0.13333333,0,154.96)" />
      <path
         id="path52"
         d="m 360.762,511.887 c -1.907,-1.395 -4.199,-2.293 -5.899,-2.696 -5.597,-1.199 -7.804,-3.894 -7.804,-8.691 0,-4.102 1.504,-7.5 5.207,-7.5 3.691,0 8.496,2.402 8.496,8.293 z m -25.188,10.402 v 1.297 c 0,12.394 8.489,16.594 18.887,16.594 16.387,0 19.492,-6.797 19.492,-16.496 v -28.282 c 0,-5 0.293,-7.293 1.699,-10.398 h -13.191 c -0.91,1.699 -1.301,3.797 -1.699,5.594 h -0.207 c -3.192,-5.594 -7.09,-6.993 -13.692,-6.993 -9.59,0 -12.988,8.196 -12.988,15.391 0,10.098 4.094,14.192 13.586,16.789 l 7.801,2.098 c 4.093,1.105 5.5,2.707 5.5,6.301 0,4.101 -1.809,6.601 -6.399,6.601 -4.199,0 -6.394,-2.805 -6.394,-7.004 v -1.492 h -12.395"
         style="fill:#ffffff;fill-opacity:1;fill-rule:nonzero;stroke:none"
         transform="matrix(0.13333333,0,0,-0.13333333,0,154.96)" />
      <path
         id="path53"
         d="m 386.258,538.773 h 13.195 v -7.199 h 0.195 c 2.801,5.207 6.7,8.606 12.391,8.606 0.801,0 1.699,-0.11 2.5,-0.207 v -13.192 c -1.394,0.098 -2.898,0.203 -4.297,0.203 -4.793,0 -10.195,-2.5 -10.195,-9.695 v -32.285 h -13.789 v 53.769"
         style="fill:#ffffff;fill-opacity:1;fill-rule:nonzero;stroke:none"
         transform="matrix(0.13333333,0,0,-0.13333333,0,154.96)" />
      <path
         id="path54"
         d="m 432.137,502.59 v -1.797 c 0,-4.695 2.5,-7.793 7.199,-7.793 4.199,0 7,2.102 7,6.398 0,3.497 -2.305,5.098 -5,6.094 l -9.695,3.496 c -7.598,2.703 -11.496,7.403 -11.496,15 0,8.895 5.597,16.192 19.796,16.192 12.489,0 18.387,-5.606 18.387,-15.293 v -2.199 h -12.39 c 0,5.39 -1.602,8.097 -6.106,8.097 -3.496,0 -6.492,-2.004 -6.492,-5.801 0,-2.597 1.406,-4.796 5.996,-6.3 l 8.301,-2.793 c 8.691,-2.899 11.894,-7.293 11.894,-15.391 0,-11.297 -8.398,-16.895 -19.992,-16.895 -15.496,0 -19.793,6.797 -19.793,17.09 v 1.895 h 12.391"
         style="fill:#ffffff;fill-opacity:1;fill-rule:nonzero;stroke:none"
         transform="matrix(0.13333333,0,0,-0.13333333,0,154.96)" />
      <path
         id="path55"
         d="M 103.426,696.789 V 912.895 H 581.395 V 696.789 H 103.426"
         style="fill:#ffffff;fill-opacity:1;fill-rule:nonzero;stroke:none"
         transform="matrix(0.13333333,0,0,-0.13333333,0,154.96)" />
      <path
         id="path56"
         d="M 583.895,915.391 H 100.926 V 694.289 h 482.969 v 221.102 z m -5,-5 V 699.293 H 105.93 v 211.098 h 472.965"
         style="fill:#231f20;fill-opacity:1;fill-rule:nonzero;stroke:none"
         transform="matrix(0.13333333,0,0,-0.13333333,0,154.96)" />
      <path
         id="path57"
         d="m 180.941,1004.9 c -18.543,-31.584 -59.207,-42.17 -90.7574,-23.627 -31.582,18.54 -42.1797,59.247 -23.6367,90.827 18.5429,31.55 58.8981,42.06 90.8321,23.6 31.926,-18.42 42.141,-59.24 23.562,-90.8 z m -12.675,109.93 c -42.118,24.74 -95.8051,10.74 -120.5824,-31.38 -21.668,-37.39 -13.3867,-84.122 18.0781,-111.212 L 30.332,912.703 c -3.5234,-6.012 -1.3242,-13.75 4.836,-17.012 l 8.5,-4.5 c 5.8593,-3.101 13.125,-0.976 16.3906,4.793 l 33.6055,59.844 c 39.3829,-14.176 84.2109,1.344 105.9839,38.422 24.707,42.11 10.766,95.84 -31.382,120.58"
         style="fill:#231f20;fill-opacity:1;fill-rule:nonzero;stroke:none"
         transform="matrix(0.13333333,0,0,-0.13333333,0,154.96)" />
    </g>
  </g>
</svg>
