<?xml version="1.0" encoding="UTF-8"?>
<svg width="162px" height="162px" viewBox="0 0 162 162" version="1.1" xmlns="http://www.w3.org/2000/svg" xmlns:xlink="http://www.w3.org/1999/xlink">
    <title>hve_prod_coul</title>
    <desc>Created from official PDF file.</desc>
    <g id="hve_prod_coul" stroke="none" stroke-width="1" fill="none" fill-rule="evenodd">
        <path d="M81.5132726,161 C71.3305407,161 58.0161177,158.869018 54.0040435,152.863975 C53.4925639,152.097141 53.1455952,151.287427 52.9641346,150.44381 C51.7966051,151.195686 50.3798165,151.582594 48.745674,151.583591 C37.2069726,151.584588 14.3558972,130.081311 11.6987954,116.723034 C11.165381,114.046592 11.4824386,111.783981 12.5911429,110.056858 C10.7855102,109.662971 8.60100359,108.387572 6.66775017,105.039028 C0.444249461,94.2624601 0.444249461,68.7445202 6.66675313,57.9629662 C8.60100359,54.613425 10.7855102,53.3380266 12.5911429,52.9431417 C11.4834356,51.2170161 11.166378,48.9534083 11.6987954,46.2779635 C14.3549002,32.9206831 37.2069726,11.4174062 48.745674,11.4174062 C50.3798165,11.4174062 51.7966051,11.8043136 52.9641346,12.5561904 C53.1455952,11.7135699 53.4925639,10.9028592 54.0040435,10.1360247 C58.0161177,4.13098232 71.3305407,2 81.5132726,2 C91.6950075,2 105.010428,4.13098232 109.022502,10.1360247 C109.533981,10.9028592 109.881947,11.7135699 110.062411,12.5561904 C111.22994,11.8043136 112.646729,11.4174062 114.280871,11.4174062 C125.819573,11.4174062 148.670648,32.9196859 151.32775,46.2779635 C151.85917,48.9504167 151.544107,51.211033 150.438393,52.9361614 C157.716758,54.4738192 160.998005,68.0355223 161,81.4825493 C161.001993,94.9455312 157.722741,108.523189 150.437396,110.062841 C151.54311,111.786973 151.858173,114.048586 151.32775,116.720042 C148.672642,130.075328 125.821567,151.580599 114.281868,151.583591 L114.278877,151.583591 C112.644735,151.583591 111.228943,151.196684 110.062411,150.44381 C109.88095,151.287427 109.533981,152.097141 109.022502,152.863975 C105.010428,158.869018 91.6950075,161 81.5132726,161" id="Fill-1" fill="#FFFFFE"></path>
        <path d="M81.0005002,0 C69.9708917,0 56.6555355,2.29072115 52.3611305,8.71774448 C52.0670343,9.15688272 51.8189531,9.60902506 51.616887,10.0711706 C50.5675437,9.65904081 49.3971608,9.44697405 48.1247445,9.44697405 C42.1918035,9.44697405 33.5789857,14.2874979 25.0852069,22.39405 C18.6551032,28.530982 11.2446788,37.8039012 9.72818268,45.4232999 C9.26603148,47.7490321 9.39607402,49.8346887 10.0732956,51.5862401 C2.70588526,54.705222 0,68.7596466 0,81.0015005 C0,93.2403534 2.70588526,107.292777 10.0732956,110.41276 C9.3950737,112.164311 9.26603148,114.249968 9.72818268,116.5767 C11.2436785,124.195098 18.6551032,133.467017 25.0852069,139.60595 C33.579986,147.712502 42.1928038,152.553026 48.1247445,152.553026 C49.3971608,152.553026 50.5675437,152.339959 51.616887,151.927829 C51.8189531,152.390975 52.0670343,152.842117 52.3611305,153.282256 C56.6555355,159.710279 69.9708917,162 81.0005002,162 C92.0301086,162 105.344465,159.710279 109.63987,153.282256 C109.933966,152.842117 110.182047,152.390975 110.384113,151.927829 C111.432456,152.339959 112.60384,152.553026 113.876256,152.553026 C119.808197,152.553026 128.422015,147.712502 136.914793,139.60595 C143.345897,133.468018 150.756322,124.195098 152.271817,116.5767 C152.733969,114.249968 152.604926,112.164311 151.926704,110.41276 C159.294115,107.292777 162,93.2393531 162,80.9984995 C162,68.7586462 159.294115,54.705222 151.926704,51.5862401 C152.604926,49.8346887 152.733969,47.7480318 152.271817,45.4232999 C150.756322,37.8039012 143.345897,28.530982 136.914793,22.39405 C128.421014,14.2864976 119.808197,9.44697405 113.876256,9.44697405 C112.60384,9.44697405 111.432456,9.65904081 110.384113,10.0711706 C110.182047,9.60902506 109.933966,9.15688272 109.63987,8.71774448 C105.344465,2.29072115 92.0301086,0 81.0005002,0 M81.0005002,2.50078728 C96.3385182,2.50078728 111.676536,6.94418613 107.995332,15.8309838 C109.1207,13.1141285 111.209383,11.9477613 113.876256,11.9477613 C128.659092,11.9477613 161.226747,47.7680381 146.169821,54.0050016 C147.075117,53.6298835 147.936399,53.4528277 148.749665,53.4528277 C163.083354,53.4528277 163.081354,108.547172 148.749665,108.547172 C147.935399,108.547172 147.076117,108.369116 146.169821,107.993998 C161.225747,114.230962 128.661093,150.052239 113.876256,150.052239 C111.208383,150.052239 109.1207,148.885871 107.995332,146.169016 C111.676536,155.055814 96.3385182,159.499213 81.0005002,159.499213 C65.6624822,159.499213 50.3244642,155.055814 54.0056685,146.169016 C52.8803003,148.884871 50.791617,150.052239 48.1247445,150.052239 C33.3409078,150.052239 0.773252978,114.230962 15.830179,107.993998 C14.9248828,108.369116 14.0636011,108.547172 13.250335,108.547172 C-1.08335443,108.547172 -1.08135378,53.4528277 13.250335,53.4528277 C14.0646014,53.4528277 14.9228822,53.6298835 15.830179,54.0050016 C0.774253305,47.7690384 33.3399075,11.9477613 48.1247445,11.9477613 C50.7926173,11.9477613 52.8803003,13.1131282 54.0056685,15.8309838 C50.3244642,6.94418613 65.6624822,2.50078728 81.0005002,2.50078728" id="Fill-3" fill="#B74E25"></path>
        <polygon id="Fill-5" fill="#B74E25" points="17 78.4284655 17.1137044 76 27 76.5715345 26.8862956 79"></polygon>
        <path d="M23.2550712,73.7606421 C24.5011872,73.9769794 25.146258,73.002939 25.3214033,71.798975 C25.4381669,71.0109638 25.4084975,69.7662405 24.449505,69.6011135 C23.4388302,69.421355 23.0425998,70.9252649 22.447297,72.3643782 C21.8558226,73.8202133 21.0892029,75.2624619 19.3310499,74.95311 C17.4130649,74.6092696 16.7861786,72.468889 17.0618171,70.6211386 C17.3757388,68.4818032 18.5213616,66.6695864 20.6891441,67.0510507 L20.3656516,69.2290552 C19.2238571,69.1005069 18.8056139,69.9292773 18.6496101,71.0046931 C18.5414603,71.721637 18.696507,72.5995275 19.4813112,72.7416621 C20.2039054,72.8681201 20.3675658,72.3946864 21.3514423,69.935548 C21.6337804,69.2206943 22.4109281,67.0019307 24.5385132,67.3802597 C26.2555118,67.684386 27.3245683,69.3847762 26.9111105,72.1710333 C26.5770901,74.4326464 25.2400517,76.3734113 22.9306216,75.9386465 L23.2550712,73.7606421 Z" id="Fill-7" fill="#B74E25"></path>
        <path d="M25.8783287,64.8214144 C27.0714814,65.2238794 27.8405502,64.4150037 28.1826762,63.322035 C28.4094896,62.6039111 28.5505332,61.4438649 27.6299378,61.1341247 C26.6635985,60.8125472 26.0622572,62.1471922 25.2798464,63.3979904 C24.4993416,64.6655579 23.5463443,65.8808444 21.8576331,65.3185771 C20.0202543,64.700083 19.7038592,62.605884 20.2270547,60.9299329 C20.834114,58.9876446 22.2092891,57.4754415 24.2896822,58.1728502 L23.669281,60.1516366 C22.5685691,59.85472 22.0415616,60.5560744 21.7346964,61.5346168 C21.530755,62.1856632 21.5583919,63.0320234 22.3160248,63.2806047 C23.0079008,63.515376 23.2318552,63.1030466 24.5441325,60.964458 C24.9186605,60.3400454 25.9869704,58.3938114 28.0225727,59.0803694 C29.671258,59.6347452 30.4860707,61.389611 29.695083,63.9158681 C29.0499038,65.9735691 27.4650693,67.5686327 25.2569745,66.8061193 L25.8783287,64.8214144 Z" id="Fill-9" fill="#B74E25"></path>
        <path d="M31.6730638,50.8531104 C34.1303215,52.0954316 34.5765323,54.1149586 33.317433,56.4848323 C32.0521363,58.8677936 30.1299183,59.6601006 27.6582,58.4177794 L22,55.564669 L23.034961,53.611587 L28.694194,56.4646974 C29.6847405,56.9680691 30.7971686,57.2157279 31.6348467,55.639168 C32.3754325,54.246842 31.986031,53.4837306 30.6381028,52.8021654 L24.9840343,49.949055 L26.0189953,48 L31.6730638,50.8531104 Z" id="Fill-11" fill="#B74E25"></path>
        <path d="M37.218882,45.2416944 L38.4384755,43.821893 C39.2326962,42.8976186 39.4262217,41.523305 37.8416124,40.1306026 C36.3949618,38.8617821 35.0316614,38.5578846 33.671235,40.1412487 L32.6978596,41.283284 L37.218882,45.2416944 Z M30,41.712999 L32.685405,38.5820802 C34.2977976,36.7093359 36.6775856,36.3154305 39.0592898,38.404968 C41.1411253,40.2283531 41.7600235,42.6595333 39.8621329,44.8748882 L37.1757699,48 L30,41.712999 Z" id="Fill-13" fill="#B74E25"></path>
        <path d="M37,33.4393776 L38.6410256,32 L40.255057,33.6944024 C41.2246006,34.6550681 41.2257254,36.0350119 40.386654,37 L39.6870529,36.2673439 C40.0975905,35.5606224 39.9018822,35.0224768 39.3844924,34.4778474 L38.6230295,35.1424249 L37,33.4393776 Z" id="Fill-15" fill="#B74E25"></path>
        <path d="M50.1293573,31.1210036 C51.6399603,33.3428255 51.1264327,35.3708245 49.041375,36.9469103 C46.9427779,38.5270765 44.9902123,38.3832396 43.4728396,36.1461159 L40,31.0271525 L41.712726,29.7326199 L45.1855656,34.8505632 C45.7967699,35.7492891 46.6197681,36.4725544 48.0085171,35.4248909 C49.2318928,34.5016821 49.2405966,33.6376402 48.4117959,32.4165563 L44.9389563,27.2955527 L46.6555506,26 L50.1293573,31.1210036 Z" id="Fill-17" fill="#B74E25"></path>
        <polygon id="Fill-19" fill="#B74E25" points="50 24.7457978 51.9807204 23.778539 58.6778285 28.1322393 58.7031963 28.1177408 55.7858955 21.9144428 57.6570269 21 62 30.2531666 60.0091324 31.2245678 53.3262303 26.8760456 53.3008625 26.8915797 56.2141045 33.0855572 54.3450025 34"></polygon>
        <polygon id="Fill-21" fill="#B74E25" points="60 20.1474011 67.1210153 18 67.6346557 19.8226015 62.607175 21.3369537 63.1997602 23.4502198 67.8115319 22.0610292 68.2832018 23.7419188 63.67143 25.1311094 64.3509543 27.5474528 69.4883581 26.0020688 70 27.8226015 62.7690617 30"></polygon>
        <polygon id="Fill-23" fill="#B74E25" points="73 17.4809542 80.2431243 17 80.363403 18.7602924 75.2540032 19.100808 75.3879721 21.1429396 80.0817748 20.8274336 80.1942305 22.4578684 75.5023836 22.7676029 75.6627552 25.0992689 80.8787434 24.7568295 81 26.5180839 73.6551766 27"></polygon>
        <polygon id="Fill-25" fill="#B74E25" points="84.9162314 21.1360863 82.1229409 16 84.6500603 16.2219615 86.3234231 19.648428 88.6074729 16.5709057 91 16.7784139 87.4102049 21.3683717 90.4274809 27 87.8350743 26.7718442 85.9578144 23.0532145 83.45681 26.3908963 81 26.1730643"></polygon>
        <path d="M94.2285062,22.975874 L95.8049066,23.375677 C96.7507468,23.6139833 97.641964,23.6139833 97.9284951,22.4027573 C98.2159846,21.1944855 97.4301801,20.774003 96.4843399,20.534712 L94.9079396,20.1349089 L94.2285062,22.975874 Z M93.266375,18 L97.4292218,19.0526834 C99.7281789,19.6326933 100.262909,21.3579517 99.8930062,22.901034 C99.5240614,24.441162 98.275399,25.7163959 95.9764419,25.1354013 L93.8394372,24.5987198 L93.0306336,28 L91,27.487937 L93.266375,18 Z" id="Fill-27" fill="#B74E25"></path>
        <polygon id="Fill-29" fill="#B74E25" points="102.664717 20 104.633528 20.8396147 101.6423 28.4194693 106 30.2791955 105.324561 32 99 29.3026872"></polygon>
        <path d="M110.262207,32.7522963 C111.914641,33.7361414 113.395996,32.7407556 114.248419,31.3924166 C115.151274,29.9681012 115.394541,28.2331485 113.743096,27.2464183 C112.095607,26.2606497 110.614252,27.257959 109.712385,28.676504 C108.858974,30.0306134 108.615707,31.7646043 110.262207,32.7522963 M114.694408,25.7461266 C117.278375,27.2916194 117.613608,30.0796614 116.083797,32.4858984 C114.605408,34.8276998 111.898818,35.7932721 109.314852,34.2535497 C106.732862,32.7070952 106.397629,29.9200149 107.877996,27.5753284 C109.406818,25.1690913 112.11143,24.203519 114.694408,25.7461266" id="Fill-31" fill="#B74E25"></path>
        <polygon id="Fill-33" fill="#B74E25" points="120.278776 30 122 31.3514851 115.720212 39 114 37.6485149"></polygon>
        <polygon id="Fill-35" fill="#B74E25" points="124.876599 35.4972826 122.688394 33.3471702 124.022009 32 130 37.884464 128.667419 39.2254498 126.479214 37.0773988 120.606753 43 119 41.4240067"></polygon>
        <path d="M126.428795,44.6322874 L128.062744,46.7083179 L130.269461,43.4211846 L130.249675,43.3997401 L126.428795,44.6322874 Z M131.57433,41 L133,42.8033791 L127.184848,52 L125.745639,50.1710917 L127.089039,48.1849239 L124.726113,45.1867805 L122.404842,45.9363164 L121,44.1492759 L131.57433,41 Z" id="Fill-37" fill="#B74E25"></path>
        <polygon id="Fill-39" fill="#B74E25" points="134.900493 48.3355975 133.436453 45.8768839 135.00197 45 139 51.7275525 137.435468 52.6006156 135.971429 50.1419019 129.070936 54 128 52.1975165"></polygon>
        <polygon id="Fill-41" fill="#B74E25" points="140.110932 54 141 55.9850523 131.889068 60 131 58.0129547"></polygon>
        <path d="M134.914501,64.9757126 C135.455914,66.872297 137.190546,67.0978641 138.711109,66.611327 C140.304628,66.1075942 141.628401,64.9049068 141.086988,63.0083225 C140.544616,61.1157842 138.810943,60.8922401 137.214544,61.3959729 C135.694942,61.8814985 134.372129,63.0771053 134.914501,64.9757126 M142.771703,62.4762674 C143.62126,65.4460656 142.018141,67.8635784 139.316838,68.7253863 C136.683691,69.562918 134.079343,68.4826235 133.228827,65.5128253 C132.37927,62.5379696 133.981428,60.1255143 136.609775,59.2879827 C139.316838,58.4261747 141.921186,59.5014116 142.771703,62.4762674" id="Fill-43" fill="#B74E25"></path>
        <polygon id="Fill-45" fill="#B74E25" points="145.034659 70 145.283384 72.0510918 139.029562 76.6894212 139.03262 76.7151791 145.763507 75.995866 146 77.9305703 135.966361 79 135.70948 76.9384142 141.955148 72.3124868 141.953109 72.2857749 135.233435 73.00318 135 71.0694297"></polygon>
        <polygon id="Fill-47" fill="#B74E25" points="28.0467357 91 30 99.0784 28.143098 99.5939765 26.7612623 93.8915765 24.6114189 94.4920471 25.8776199 99.7254588 24.1623705 100.2048 22.8942424 94.9734588 20.4302578 95.6608941 21.8381113 101.486494 19.9812093 102 18 93.8087529"></polygon>
        <polygon id="Fill-49" fill="#B74E25" points="30.0403522 100 31.059281 102.163961 26.2851064 109.402528 26.2953778 109.436007 33.0314013 106.326518 34 108.371781 23.9575935 113 22.9283933 110.820821 27.6974321 103.596457 27.6861335 103.569065 20.9665444 106.667395 20 104.628219"></polygon>
        <polygon id="Fill-51" fill="#B74E25" points="29.4908153 119 28 116.868762 34.5617145 108 35.9210442 109.949565 31.2736062 116.13621 31.2910087 116.161605 38.6348695 113.82623 40 115.779702"></polygon>
        <polygon id="Fill-53" fill="#B74E25" points="40.3411581 116 42 117.758782 33.6588419 125 32 123.241218"></polygon>
        <path d="M41.8031028,124.168625 L43.8454895,125.819275 C44.6742093,126.491945 45.429655,126.515582 46.1562039,125.707 C46.8486958,124.923039 46.6980194,124.218853 45.8682676,123.545199 L43.8258809,121.889624 L41.8031028,124.168625 Z M43.1942787,119 L47.7651381,122.701161 C49.2832537,123.932255 49.3462075,125.716848 48.2574162,126.940063 C47.414248,127.896377 46.3729301,128.281463 45.1128219,127.881604 L45.0942453,127.906226 C45.8063458,128.869434 45.3099395,129.932114 44.6453124,130.795849 C44.2263084,131.337531 43.3697238,132.276117 43.2964497,133 L41.4346682,131.490186 C41.6596506,130.795849 42.3820714,130.037496 42.8599011,129.314597 C43.4884072,128.360253 43.4729267,127.706296 42.5358438,126.944003 L40.6719983,125.434189 L37.8648776,128.596623 L36,127.08484 L43.1942787,119 Z" id="Fill-55" fill="#B74E25"></path>
        <path d="M50.7129399,135.592231 C52.5770334,136.605821 54.162919,135.450348 55.0447477,133.927534 C55.972777,132.331834 56.1646099,130.414468 54.3005164,129.400878 C52.4364229,128.395062 50.8445111,129.550536 49.9184906,131.147207 C49.0356575,132.669049 48.8508551,134.584472 50.7129399,135.592231 M55.2787637,127.715773 C58.1994447,129.301754 58.6935902,132.342524 57.12277,135.056768 C55.5981505,137.693268 52.6543692,138.866233 49.7346925,137.285111 C46.8140116,135.700101 46.3148443,132.657388 47.8464944,130.017972 C49.4163102,127.309559 52.3590871,126.126876 55.2787637,127.715773" id="Fill-57" fill="#B74E25"></path>
        <polygon id="Fill-59" fill="#B74E25" points="60.3292774 131 62.567464 131.725646 64.6266356 139.952286 64.6546379 139.95825 66.8848237 133.114314 69 133.794235 65.675723 144 63.4155346 143.274354 61.368364 135.067594 61.3423619 135.055666 59.1161763 141.889662 57 141.209742"></polygon>
        <polygon id="Fill-61" fill="#B74E25" points="70.2344841 134 72.503685 134.286126 76.0073701 142.141875 76.0354926 142.145948 76.8655935 134.832923 79 135.09563 77.7655159 146 75.4788596 145.711837 71.9906905 137.876453 71.9635376 137.874417 71.1344065 145.173186 69 144.902333"></polygon>
        <polygon id="Fill-63" fill="#B74E25" points="81 135.488802 89.2012921 135 89.3267596 136.945432 83.5379123 137.287593 83.6786807 139.541948 88.9962598 139.225204 89.1084665 141.023996 83.7959878 141.338784 83.9632778 143.912815 89.8755525 143.563811 90 145.509243 81.6752805 146"></polygon>
        <polygon id="Fill-65" fill="#B74E25" points="90 134.901595 93.2231582 134.067169 97.5706739 140.383033 97.6026556 140.37528 97.9944318 132.832488 101.218589 132 104 142.094528 101.853227 142.652751 99.8823529 135.4918 99.8533695 135.503429 99.2717019 143.319517 97.5097087 143.773073 93.0022844 137.35448 92.973301 137.358357 94.9271845 144.447592 92.7814106 145"></polygon>
        <polygon id="Fill-67" fill="#B74E25" points="102 131.550536 109.116049 128 109.996049 129.748303 104.974815 132.249661 106.000988 134.277417 110.611358 131.978051 111.429136 133.588098 106.813827 135.894328 107.988148 138.207422 113.120988 135.647232 114 137.393574 106.780247 141"></polygon>
        <polygon id="Fill-69" fill="#B74E25" points="110 127.447146 111.914313 126.037717 120.000581 129.082878 120.023963 129.06799 115.599593 123.330025 117.39801 122 124 130.554839 122.078571 131.974194 114.012635 128.926055 113.988236 128.945906 118.40854 134.67196 116.603006 136"></polygon>
        <polygon id="Fill-71" fill="#B74E25" points="121.752947 120.240154 119.494618 122.512008 118 121.210375 124.175295 115 125.670938 116.309318 123.408508 118.574448 130 124.334294 128.341363 126"></polygon>
        <path d="M130.516689,116.686782 L132.153987,114.475096 L127.979447,113.407088 L127.960806,113.431992 L130.516689,116.686782 Z M125,112.920498 L126.423962,111 L138,113.658046 L136.557397,115.605364 L134.029475,114.943487 L131.660002,118.135057 L133.217558,120.10249 L131.808094,122 L125,112.920498 Z" id="Fill-73" fill="#B74E25"></path>
        <polygon id="Fill-75" fill="#B74E25" points="129 107.291263 130.003772 105.073687 137.9699 108.914182 140.19361 104 142 104.867209 138.773518 112"></polygon>
        <polygon id="Fill-77" fill="#B74E25" points="132 98.9979381 134.255481 91 136.232126 91.5536082 134.643788 97.2041237 136.939546 97.8443299 138.39776 92.6618557 140.229822 93.1783505 138.770575 98.3618557 141.395774 99.0969072 143.017159 93.3298969 145 93.885567 142.712504 102"></polygon>
        <polygon id="Fill-79" fill="#B74E25" points="42.9095841 97 43.9705166 98.9018344 40.5516157 100.702529 42.5140341 104.20476 45.932935 102.397124 47 104.300942 38.0924601 109 37.024373 107.096182 40.8674424 105.072385 38.905024 101.572137 35.0619546 103.601884 34 101.698066"></polygon>
        <path d="M45.0358426,110.835579 L46.6591885,112.774399 L48.5100342,109.442553 L48.4975024,109.421522 L45.0358426,110.835579 Z M49.5887302,107 L51,108.687454 L46.1318903,118 L44.7042328,116.288511 L45.8359478,114.270575 L43.4915432,111.471504 L41.3948821,112.331755 L40,110.665331 L49.5887302,107 Z" id="Fill-81" fill="#B74E25"></path>
        <path d="M56.4661211,122.204751 C54.926972,124.403011 52.9543953,124.517419 50.9009121,122.903454 C48.8349077,121.281318 48.3706587,119.278163 49.9155869,117.063558 L53.4494658,112 L55.1379067,113.326924 L51.604991,118.388439 C50.9866344,119.280206 50.5878811,120.32724 51.9526962,121.39879 C53.1556983,122.346739 53.9329782,122.087278 54.7767171,120.879869 L58.3105959,115.816311 L60,117.141192 L56.4661211,122.204751 Z" id="Fill-83" fill="#B74E25"></path>
        <polygon id="Fill-85" fill="#B74E25" points="62.4463962 119.86485 59.6915231 118.642409 60.4707616 117 68 120.343968 67.2156618 121.984406 64.4658885 120.761965 61.024592 128 59 127.104858"></polygon>
        <polygon id="Fill-87" fill="#B74E25" points="68.4370541 121 76 122.6745 75.5530843 124.3953 70.2089803 123.211768 69.6886278 125.200719 74.5879144 126.291652 74.1745699 127.880305 69.2679396 126.79516 68.6731011 129.074448 74.1273605 130.282094 73.6741502 132 66 130.301385"></polygon>
        <polygon id="Fill-89" fill="#B74E25" points="85.116349 131.899557 82.6539619 132 79 122.373215 81.2597793 122.27868 83.7673019 129.054653 83.7943831 129.052683 85.7442327 122.092565 88 122"></polygon>
        <path d="M91.4608631,127.467773 L93.8417601,126.881425 L91.8892532,123.630587 L91.8645018,123.640558 L91.4608631,127.467773 Z M90.3289613,121.509564 L92.4004654,121 L98,129.785242 L95.9027925,130.301786 L94.7242437,128.326353 L91.2847472,129.175959 L91.0458007,131.495422 L89,132 L90.3289613,121.509564 Z" id="Fill-91" fill="#B74E25"></path>
        <polygon id="Fill-93" fill="#B74E25" points="95 119.910281 97.0800343 119 100.595261 126.404088 105.198135 124.382137 106 126.059712 99.3160449 129"></polygon>
        <polygon id="Fill-95" fill="#B74E25" points="102 117.163582 108.109642 113 109.178779 114.448961 104.870905 117.385678 106.111832 119.065465 110.066021 116.370242 111.056337 117.70864 107.101137 120.406773 108.523958 122.327083 112.925811 119.325386 114 120.774347 107.7984 125"></polygon>
        <path d="M119.51064,110.300359 C121.537392,112.168869 121.428834,114.283968 119.590522,116.301051 C117.744017,118.334642 115.691661,118.617343 113.658765,116.742643 L109,112.442284 L110.507518,110.780125 L115.166283,115.080484 C115.986611,115.835729 116.986161,116.370179 118.206923,115.027864 C119.283283,113.845472 119.114302,112.988083 118.004146,111.962518 L113.34026,107.662159 L114.852899,106 L119.51064,110.300359 Z" id="Fill-97" fill="#B74E25"></path>
        <path d="M120.036018,105.45306 L121.235987,103.396016 C121.720433,102.560094 121.618071,101.902872 120.741405,101.408467 C119.899197,100.938881 119.265768,101.187076 118.782334,102.02697 L117.581352,104.085999 L120.036018,105.45306 Z M115,105.131398 L117.678647,100.525884 C118.569502,98.9940216 120.222499,98.6316563 121.539019,99.3663147 C122.567709,99.9401426 123.098776,100.774079 122.941686,101.937619 L122.967023,101.953504 C123.743354,101.166228 124.812583,101.418395 125.726748,101.844298 C126.297342,102.118306 127.31995,102.703054 128,102.637531 L126.908474,104.520838 C126.229438,104.437444 125.398378,103.944031 124.648398,103.652154 C123.656194,103.269933 123.048102,103.39403 122.499805,104.338166 L121.408279,106.218494 L124.812583,108.117686 L123.721057,110 L115,105.131398 Z" id="Fill-99" fill="#B74E25"></path>
        <path d="M24,85.5020333 C24,86.8816592 22.8808701,88 21.4974588,88 C20.1191299,88 19,86.8816592 19,85.5020333 C19,84.1203741 20.1191299,83 21.4974588,83 C22.8808701,83 24,84.1203741 24,85.5020333" id="Fill-101" fill="#B74E25"></path>
        <path d="M144,85.5020333 C144,86.8816592 142.879626,88 141.502033,88 C140.119357,88 139,86.8816592 139,85.5020333 C139,84.1203741 140.119357,83 141.502033,83 C142.879626,83 144,84.1203741 144,85.5020333" id="Fill-103" fill="#B74E25"></path>
        <path d="M122,79.8238601 C121.993094,79.769831 121.979282,79.7138723 121.961523,79.6627376 C121.801697,79.1784052 121.331097,78.9593944 120.913773,79.1812996 C120.897987,79.1890181 120.886148,79.204455 120.870363,79.2102438 C120.580308,78.7645036 120.056433,78.5975923 119.57794,78.8484417 C119.557222,78.8580898 119.536504,78.8783507 119.516772,78.8870339 C119.183307,78.0949286 118.369376,77.7562818 117.638319,78.1441337 C117.422257,78.2492975 117.241713,78.41042 117.094712,78.6014515 C116.723757,78.3081506 116.26105,78.192374 115.789463,78.306221 C115.779597,78.1750075 115.765785,78.0544068 115.724349,77.9338061 C115.505328,77.264231 114.863062,76.9747893 114.282952,77.2738791 C113.914957,77.4687698 113.667324,77.859516 113.585438,78.2849953 C113.126677,78.1190487 112.605762,78.1422041 112.110497,78.400772 C111.971389,78.4740972 111.843133,78.5551408 111.724743,78.6603046 C111.089384,77.8257478 110.031768,77.5430598 109.064917,78.053442 C108.9485,78.1113303 108.839976,78.1817611 108.733425,78.2637696 C108.40884,77.4369312 107.635359,76.9043585 106.802684,77.0143464 C106.171271,77.09539 105.655288,77.5305173 105.382991,78.1190487 C105.158051,78.092999 104.928177,78.0872101 104.69041,78.1200135 C103.133583,78.3216579 102,79.8161417 102,81.5402492 L102,83 C107.651144,81.7727673 114.820639,80.4181804 122,79.8238601 L122,79.8238601 Z" id="Fill-105" fill="#B74E25"></path>
        <path d="M118.767444,54.1867566 C117.65223,52.2286498 110.034922,49.9138807 105.445618,53.0763545 C105.544195,52.6610903 105.584024,52.2003593 105.494409,51.8053027 C105.667665,51.7194208 105.827977,51.5830202 105.951447,51.4031735 C106.299952,50.9000067 106.233238,50.2452837 105.803084,49.9391401 C105.373926,49.6340068 104.743631,49.7936461 104.396123,50.2968128 C104.272652,50.4766596 104.201956,50.6736827 104.181046,50.8686851 C103.786738,50.9181935 103.376499,51.1131958 103.019033,51.3536651 C104.381187,45.8956193 99.6345582,39.4221467 97.4389812,39.02709 C95.9374256,38.7573199 94.6698657,40.5527563 94.7714298,42.1703667 C94.9327375,44.6963042 93.2141135,44.8812028 93.7478229,46.9241811 C94.3432674,49.2056078 97.2229086,50.9020275 97.2249,50.9040482 C97.0845026,50.8211975 96.820635,50.8353427 96.6613188,50.8191767 C96.1734128,50.7706787 95.6745538,50.7615853 95.1737033,50.8141248 C92.9153956,51.0455007 90.5734467,53.1066657 91.0663314,55.6326032 C91.3511092,57.0946159 92.2153998,58.3626365 93.6721477,58.5899709 C94.4637503,58.7122262 95.5192205,58.6930291 96.3387034,58.4515495 C97.5037034,58.1070116 98.6238958,57.4300604 99.6604471,56.7086526 C99.5578873,57.0228792 99.4632933,57.3381162 99.3796522,57.655374 C99.2721138,58.0706381 98.9186309,59.0739405 99.2850582,59.3800841 C99.6952976,59.6256052 100.503828,58.9456229 100.85034,58.7001017 C101.116199,58.5111616 101.37708,58.3141385 101.631986,58.1110531 C101.318332,59.344721 101.073383,60.6450736 101.154037,61.8736896 C101.208802,62.7375603 101.551332,63.7509664 101.935682,64.4642911 C102.643644,65.7757579 104.113336,66.1657626 105.56411,65.9394386 C108.073341,65.5453924 109.181584,62.6082323 108.624973,60.3753035 C108.500507,59.8802197 108.324264,59.4073642 108.112174,58.9587577 C108.042473,58.811243 107.964806,58.5556181 107.840341,58.4505391 C107.842332,58.4515495 110.397366,60.6167831 112.715418,60.4056147 C114.789516,60.2166746 114.374298,58.5152031 116.767029,57.8038991 C118.300448,57.3492304 119.53017,55.5265139 118.767444,54.1867566 M106.282029,50.2089102 C106.345755,50.2766053 106.422426,50.3059062 106.466238,50.2614497 C106.929251,49.8259781 107.518721,49.5511561 107.946883,49.4289007 C108.380024,49.297552 108.669781,49.329884 108.687704,49.2743133 C108.706623,49.2318776 108.415871,49.0985081 107.929956,49.1722655 C107.452007,49.2440021 106.802794,49.4905336 106.253153,50.0027937 C106.200379,50.0563436 106.218302,50.1432358 106.282029,50.2089102 M105.544195,47.721367 C105.576058,48.1699735 105.523285,48.8257068 105.278336,49.4177866 C105.252447,49.4743676 105.305221,49.5370108 105.388862,49.5754051 C105.471507,49.6137993 105.559131,49.6006645 105.589999,49.531959 C105.877764,48.8327795 105.884734,48.1295585 105.787153,47.64862 C105.689571,47.1606088 105.466529,46.9282226 105.43367,46.9625753 C105.38687,46.9969281 105.516315,47.2616463 105.544195,47.721367" id="Fill-107" fill="#B74E25"></path>
        <path d="M117.112745,90.2154799 L117.116751,90.2134593 C117.558497,89.6810494 117.99824,89.1142904 118.428968,88.5202542 C117.137787,88.84657 115.851614,89.18905 114.57045,89.5547662 C115.522058,89.7931889 116.380508,90.0184781 117.112745,90.2154799 M95.239797,90.1972951 L91.6787817,90.2670034 C94.6307682,91.5076096 97.542687,92.9320841 100.397509,94.5424474 C101.122734,94.9505948 101.839946,95.3728858 102.561164,95.8073 C104.548521,97.0226495 106.53087,98.3248819 108.475154,99.7301613 C108.919905,100.051426 109.367662,100.382793 109.810409,100.718201 C110.61577,99.8958449 111.39709,99.0411602 112.154369,98.1511162 C109.103215,96.2558579 106.007986,94.6172071 102.864677,93.1735376 C100.346423,92.0369888 97.8011235,91.0479387 95.239797,90.1972951 M102.38086,88.5899625 L102.38086,90.0710119 L102.344799,90.0710119 C104.68375,90.949943 107.015689,91.923839 109.322585,93.023008 C110.956345,93.8089946 112.588102,94.6353919 114.213848,95.5375591 C114.707682,94.8627016 115.226558,94.1120743 115.763465,93.281636 C113.745056,92.3835099 111.707614,91.5752974 109.656149,90.8155776 C107.243073,89.9629135 104.815973,89.2233991 102.38086,88.5899625 M96.0742064,95.5234153 C93.0350728,93.8261691 89.9468562,92.391592 86.8255838,91.1863451 C83.702308,89.9861496 80.5419695,89.0122535 77.3585922,88.2505133 C83.0241624,90.4680463 88.5284602,93.426104 93.7673096,97.1155939 C94.4504636,97.5954701 95.1256041,98.0844387 95.8017462,98.5936125 C97.6709036,100.012025 99.5210288,101.521362 101.325076,103.125664 C102.241624,103.940948 103.142146,104.793613 104.03265,105.65941 C105.149536,104.866352 106.231364,104.007626 107.28314,103.090305 C106.529868,102.50031 105.773591,101.918397 105.013306,101.36174 C102.083357,99.1937103 99.1113367,97.2398566 96.0742064,95.5234153 M107.305178,87.9383412 C108.291844,88.1282711 109.23644,88.3252729 110.135959,88.5202542 C111.067533,88.2444517 111.993096,87.9656184 112.926673,87.7019391 C115.326728,87.016979 117.741807,86.3936451 120.172914,85.8450709 C120.358227,85.5217859 120.539533,85.187388 120.717834,84.8469285 C118.012264,85.3278149 115.315709,85.9036663 112.6462,86.5573081 C110.859181,86.9856607 109.078173,87.4513932 107.305178,87.9383412 M102.38086,85.7753626 L102.38086,87.0291022 C105.257719,86.2158384 108.151607,85.4520776 111.051506,84.7600456 C114.591486,83.9215252 118.158511,83.1911031 121.748575,82.6405084 C121.836724,82.4253218 121.917861,82.2121558 122,82 C118.275709,82.4414861 114.571452,83.0729021 110.893239,83.8285807 C108.044426,84.4185759 105.206633,85.0671664 102.38086,85.7753626 M55.3373942,99.4695128 C52.9804129,97.1509532 50.527269,95.1284015 48,93.4038781 C50.9569949,96.2063549 53.7437022,99.4957797 56.3110389,103.14789 C58.1902132,104.775428 60.1715601,106.220108 62.2400541,107.462734 C62.1939763,107.400098 62.1509036,107.338472 62.1048257,107.281897 C59.960203,104.384455 57.6953773,101.786052 55.3373942,99.4695128 M89.2777259,97.8692521 C86.4178951,95.9457064 83.4979628,94.270686 80.5269442,92.8472218 C77.5589306,91.4187062 74.5398308,90.2356852 71.4876751,89.2819945 C76.9639255,91.9440443 82.2167986,95.4446146 87.1351066,99.6846994 C87.7731844,100.231253 88.4092589,100.802053 89.0413266,101.373863 C90.793286,103.011504 92.5111878,104.721884 94.1770017,106.526218 C95.0975567,107.539514 96.0070931,108.576047 96.8905854,109.642887 C96.911621,109.673195 96.9336582,109.696431 96.9556954,109.720678 C98.3580643,109.091282 99.7333875,108.380055 101.077658,107.584976 C99.939736,106.49389 98.794802,105.444224 97.6438579,104.433958 C94.911242,102.036598 92.1405618,99.8291673 89.2777259,97.8692521 M82.4862538,100.227212 C79.8057259,98.0571615 77.0450626,96.1548314 74.2323113,94.5010266 C71.4155533,92.8512628 68.5366904,91.4570963 65.6177597,90.3165064 C70.8946734,93.4200424 75.8991269,97.4651458 80.4988968,102.249764 C81.0989103,102.873098 81.6929137,103.512596 82.2819086,104.168258 C83.9146667,105.998859 85.5013469,107.920385 87.0279255,109.929803 C87.6179222,110.714779 88.1969002,111.505817 88.7648596,112.31706 C90.3755804,112.000847 91.9732792,111.580577 93.5379222,111.054228 C92.4631066,109.826756 91.3692589,108.658889 90.2784162,107.514258 C87.7451371,104.876454 85.1717902,102.409386 82.4862538,100.227212 M75.6897733,102.573049 C73.1885482,100.164576 70.5971709,98.0308946 67.9346734,96.1608929 C65.2681692,94.289881 62.5335499,92.6835587 59.7428359,91.3439466 C64.8284264,94.902102 69.588467,99.4836565 73.8686971,104.818869 C74.4266396,105.516963 74.9765685,106.226169 75.521489,106.946489 C76.9448934,108.863973 78.3182132,110.862278 79.6244196,112.932312 C80.335621,112.977774 81.0498274,113 81.7640338,113 C82.7486971,113 83.7303553,112.956559 84.7060034,112.877758 C84.1140034,112.099853 83.5159932,111.340134 82.9109712,110.592537 C80.5850423,107.704188 78.2000135,104.992635 75.6897733,102.573049 M61.6360338,97.8136875 C59.1227885,95.7204171 56.5304095,93.9090109 53.8689137,92.3784585 C58.7641827,96.3760795 63.2707953,101.506208 67.2324873,107.385954 C67.7533672,108.153756 68.2592217,108.938732 68.7600677,109.731791 C68.9934619,110.112661 69.2218477,110.48949 69.4512352,110.864299 C71.1320745,111.468437 72.850978,111.930129 74.5929205,112.285742 C72.7708426,109.65097 70.8796481,107.182891 68.8993029,104.927978 C66.5733739,102.277041 64.1492792,99.9079681 61.6360338,97.8136875" id="Fill-109" fill="#B74E25"></path>
        <path d="M73.4171145,57.1445824 C74.1298793,58.0273138 74.7189496,58.987246 75.1812836,60 C75.8565345,57.6758465 77.8326067,54.8336343 81,51 C76.5976883,53.3028217 73.4090033,54.6436795 71,54.8194131 C71.8901957,55.4837472 72.7043496,56.2628668 73.4171145,57.1445824" id="Fill-111" fill="#B74E25"></path>
        <path d="M75,42 C71.6813947,47.3208733 69.167687,51.0869326 67,53.2971572 C68.2541922,53.7024501 69.4476976,54.274148 70.5400586,55 C71.0372638,52.00267 72.6193772,47.7874195 75,42" id="Fill-113" fill="#B74E25"></path>
        <path d="M67,52.955255 C65.5342382,51.0182957 64.4944334,47.7678234 63.4258045,43 C62.4276346,47.7807497 61.4369376,51.0441484 60,53 C61.1305475,52.7205926 62.304865,52.5724371 63.4973311,52.5644825 C64.6897972,52.5595108 65.8662498,52.6907627 67,52.955255" id="Fill-115" fill="#B74E25"></path>
        <path d="M76,61.0801616 C76.4250391,62.3399957 76.6816117,63.6593664 76.7639085,65 C79.264765,63.4275994 83.309898,61.9157984 89,60 C83.1133537,60.871784 78.8707083,61.3576441 76,61.0801616" id="Fill-117" fill="#B74E25"></path>
        <path d="M50.4273764,66 C48.7627376,67.6654135 45.6572243,69.2406015 41,71.1607143 C46.1214829,71.0140977 49.6839354,71.1776316 52,72 C51.4688213,71.087406 51.059981,70.1109023 50.793346,69.0892857 C50.5256654,68.0657895 50.4054183,67.0291353 50.4273764,66" id="Fill-119" fill="#B74E25"></path>
        <path d="M62.9787419,72.5319591 L60.2062989,72.5496331 L70.4095166,66.5375112 L73.9527909,66.5041268 C74.2107154,63.7852691 73.4065402,61.0516831 71.6687373,58.9013406 C69.65928,56.4132274 66.6279319,54.9767201 63.4298645,55.0002855 C60.2347393,55.0209052 57.2220245,56.4996339 55.2459111,59.0142581 C53.2717591,61.5298643 52.5460401,64.8103639 53.2805854,67.9249239 C54.011208,71.038502 56.1216775,73.6503335 59.0098432,75.0190903 C60.2710252,75.6170623 61.6204704,75.9332314 62.9787419,76 L62.9787419,72.5319591 Z" id="Fill-121" fill="#B74E25"></path>
        <path d="M51,61.3036269 C48.0865457,61.4860104 43.8416478,60.9388601 38,60 C43.6225246,61.9295337 47.6522298,63.4549223 50.1746032,65 C50.2856387,63.7336788 50.5627362,62.4901554 51,61.3036269" id="Fill-123" fill="#B74E25"></path>
        <path d="M59,53.4133858 C57.0871534,51.1573228 54.8918474,47.3545669 52,42 C54.0300576,47.7722047 55.3818282,51.9946457 55.8007137,55 C56.7902827,54.3162205 57.8682405,53.7818898 59,53.4133858" id="Fill-125" fill="#B74E25"></path>
        <path d="M52.6275973,58.0960137 C53.3245915,57.1949886 54.1224531,56.3985194 55,55.7168565 C52.6023805,55.5723235 49.4119427,54.2643508 45,52 C48.2045592,55.8244875 50.207787,58.6649203 50.9118418,61 C51.3566673,59.973918 51.9316119,58.9970387 52.6275973,58.0960137" id="Fill-127" fill="#B74E25"></path>
        <path d="M86.395374,71.3817044 C86.0582393,71.3817044 71.7512703,71.3434405 66.660635,71.3689497 C68.6152254,70.2318258 70.5055526,69.1231546 70.6904329,69.0162119 C71.026579,69.0122874 85.5520429,68.9220239 90.7099073,68.852364 C88.6366772,70.0660157 86.5940956,71.2639694 86.395374,71.3817044 L86.395374,71.3817044 Z M93.7895983,67 L70.286069,67.211923 L60,73.2193515 L62.7949555,73.2016913 L62.7949555,76.4933657 C62.9412779,76.6925341 63.0747477,76.903476 63.1805348,77.131097 C63.5423861,76.8387217 63.9605914,76.6199309 64.4094452,76.4806111 L64.4094452,73.1879555 L85.7161612,73.1899178 L85.7161612,85.8905812 L83.9563378,85.6197907 L83.9563378,78.795085 L75.5971766,78.4144085 L75.5971766,84.3364792 L71.4754328,83.7016913 C71.5594693,84.0696132 71.6039593,84.453233 71.5851746,84.8496075 C71.5733106,85.1194169 71.5228887,85.3764717 71.4625802,85.6296019 L85.7161612,88 L100.574805,87.8145674 L100.574805,73.7560269 L103,73.7403289 L93.7895983,67 Z" id="Fill-129" fill="#B74E25"></path>
        <path d="M46.6372761,85.4112088 C46.8138984,85.070989 46.9134314,84.6832967 46.9134314,84.2698901 C46.9134314,84.0087912 46.8783021,83.7674725 46.8090193,83.540989 C46.9875932,83.5953846 47.1856834,83.6240659 47.3827978,83.6240659 C47.4374434,83.6240659 47.4979438,83.6201099 47.5506378,83.6171429 C47.7438489,84.0068132 47.9029065,84.4202198 47.9087614,84.8642857 C47.9165679,85.5694505 47.9390116,85.5635165 47.93706,86.2686813 C47.7126228,86.150989 47.0324807,85.7613187 46.6372761,85.4112088 M44.4280337,84.977033 C43.7410608,84.977033 43.1858228,84.3836264 43.1858228,83.6418681 C43.1858228,83.3461538 43.2795009,83.0702198 43.4297763,82.8476923 C42.8081829,82.642967 42.3544295,82.0189011 42.3544295,81.2801099 C42.3544295,80.3791209 43.0394508,79.6413187 43.881578,79.6413187 C44.7237053,79.6413187 45.4097024,80.3791209 45.4097024,81.2801099 C45.4097024,81.7340659 45.2379592,82.1445055 44.9618039,82.4382418 C45.385307,82.6528571 45.6751237,83.1087912 45.6751237,83.6418681 C45.6751237,84.3836264 45.1189099,84.977033 44.4280337,84.977033 M49.4729909,88.3030769 C49.5871611,87.9361538 50.0945842,87.1884615 50.5102809,86.6632967 C50.0321322,85.8068132 49.7510978,84.7831868 49.7510978,83.6804396 C49.7510978,80.6926374 51.7983551,78.2725275 54.3257127,78.2725275 C54.5540531,78.2725275 54.7794661,78.2992308 55,78.3378022 C54.8175228,77.3102198 54.1002997,76.4893407 53.1703492,76.2114286 C53.1732766,76.2035165 53.1742525,76.1946154 53.1771799,76.1867033 C52.8844358,74.9316484 51.8305569,74 50.5678539,74 C49.6261936,74 48.7987036,74.5162637 48.3176274,75.3045055 C47.7731233,74.6092308 46.9612463,74.1701099 46.0537395,74.1701099 C44.4221789,74.1701099 43.0989754,75.5942857 43.0989754,77.3398901 C43.0989754,77.5564835 43.1194675,77.7691209 43.1604517,77.9718681 C41.9260473,78.2369231 41,79.402967 41,80.8014286 C41,82.0248352 41.7064892,83.0642857 42.6998676,83.4935165 C42.6218025,83.7328571 42.5759392,83.9969231 42.5759392,84.2698901 C42.5759392,85.5526374 43.5478497,86.5950549 44.746149,86.5950549 C45.0242559,86.5950549 45.2896773,86.5396703 45.5336307,86.4368132 C45.8439395,86.51 46.1620548,86.5891209 46.4635812,86.688022 C46.8626891,86.8215385 47.9331568,87.2923077 47.9263261,87.7442857 C47.9019307,89.2208791 48.1449083,88.6818681 48.0034153,90.1535165 C47.9409633,90.8102198 48.0902628,91.3917582 48.1507632,91.9940659 L49.9130829,92 C49.7696383,91.6756044 49.5783788,91.2701099 49.4837248,90.8062637 C49.1890291,89.3632967 49.0143584,89.7242857 49.4729909,88.3030769" id="Fill-131" fill="#B74E25"></path>
        <path d="M64.9098239,85.0200832 C64.0350636,84.9834269 63.3414608,84.2829946 63.2293634,83.4002715 C62.7129146,84.1591558 61.8541682,84.630734 60.9013401,84.5871427 C60.1366756,84.5514771 59.4600875,84.1819421 58.9936822,83.6192185 L58.9866761,83.6271442 C58.6794091,83.3190332 58.2910716,83.104049 57.8446836,83.0346993 C56.6986876,82.8543899 55.6287577,83.6786611 55.4546064,84.8764302 C55.3515168,85.5966768 55.5937273,86.287202 56.0461205,86.759771 C56.3273649,85.7046642 57.280193,84.9447892 58.3741437,84.9972969 C59.6452485,85.0626838 60.6261009,86.1930845 60.564047,87.5275717 C60.5079983,88.8571052 59.4280597,89.8824907 58.1599576,89.8250295 C56.8888529,89.7586519 55.9009943,88.6322139 55.9630483,87.3036711 C55.96505,87.2313492 55.9720561,87.160018 55.9820648,87.0906683 C55.703823,87.1679437 55.4175742,87.2105443 55.1103072,87.1927115 C53.5719702,87.1193989 52.3789333,85.7452834 52.4539986,84.1353787 C52.5260612,82.5225019 53.835199,81.2732159 55.3745368,81.3544541 C55.4586099,81.3574263 55.5476873,81.365352 55.6377656,81.3802126 C55.7518647,80.4013906 56.449471,79.6286363 57.3392443,79.4215778 C57.3232304,79.3017019 57.3122208,79.1788537 57.3182261,79.04808 C57.3672687,77.9711776 58.2380254,77.13799 59.2659188,77.1934698 C60.1877199,77.2340889 60.9223584,77.9791033 61.025448,78.9123526 C61.0684854,78.9123526 61.1135245,78.9103712 61.1535593,78.9103712 C62.6398511,78.9876466 63.7878488,80.2934031 63.7378053,81.8448559 C64.0791019,81.4852279 64.5585186,81.2732159 65.0769692,81.2979836 C66.0568208,81.3465285 66.8154801,82.224298 66.7684392,83.247702 C66.7223992,84.2790317 65.8896755,85.0706095 64.9098239,85.0200832 M62.0743596,88.2963631 C62.0893726,87.5295531 61.8932022,86.8083158 61.540896,86.195066 C62.1764483,86.2158709 62.7659607,86.0088124 63.2483799,85.6571101 C63.2734017,85.7710418 63.3124356,85.8849736 63.3464652,85.9969238 C63.3344547,86.8311021 62.4386762,87.5553116 62.0743596,88.2963631 M61.6319751,92.462301 C61.4458133,92.0729517 61.0384593,91.7361101 60.5660487,91.438897 C60.9293645,91.1496095 61.2436376,90.791963 61.4888507,90.3818088 C61.5058655,90.4808799 61.5118707,90.5749974 61.5108699,90.6641613 C61.3837594,91.40125 61.779103,91.6895467 61.6319751,92.462301 M70.9951126,84.8457182 C71.0801866,83.0485692 70.046288,81.4723487 68.5439823,80.8323497 C68.5690041,80.6857245 68.5800137,80.5371179 68.5910232,80.3795949 C68.6881076,78.1930967 67.0737045,76.3295702 64.9808857,76.2304991 C64.048075,76.1839357 63.1743156,76.497991 62.486718,77.0527889 C61.9542552,75.8956389 60.8492949,75.0713677 59.5351528,75.0039994 C57.6304974,74.9108726 56.0120909,76.4553904 55.9220126,78.455635 C55.8939883,78.9935909 55.98807,79.5087604 56.1682266,79.9813293 C55.9430309,79.9327845 55.7158334,79.9020725 55.4756247,79.8872118 C53.1205779,79.7693172 51.1188382,81.6784165 51.004739,84.1571743 C50.904652,86.400143 52.4009525,88.3429265 54.4477313,88.761997 C54.6859383,90.6542542 56.1822388,92.1621157 58.0668767,92.2512796 C58.5002534,92.2720846 58.9166152,92.2205676 59.3089562,92.0997009 C59.3940301,92.1908463 59.4861102,92.2918988 59.5831945,92.4058305 C60.0165712,92.8912787 60.9583897,93.5421755 61.1005132,94.1881188 C61.4918533,96.0090448 60.9043427,96.1576514 60.5079983,97.2216745 C60.0876329,98.3441496 60.386893,97.6149866 60.1506877,98.7543038 C61.4067794,99.0951082 62.1163961,98.8395049 62.8980755,99 C62.8029929,97.7150484 62.6088241,97.4178352 62.7819746,96.1427907 C62.8830624,95.3878693 63.0992503,94.447685 63.1542982,93.6303487 C63.1933321,93.0904115 63.1272747,91.8639118 63.1152643,90.8484335 C63.6667435,91.9005681 64.7096499,92.6346846 65.9347146,92.6961087 C67.8123465,92.7832912 69.4057313,91.2625505 69.4958096,89.29599 C69.5168278,88.8531424 69.4557748,88.4241647 69.3316669,88.0288712 C70.2874976,87.3125875 70.938063,86.1693075 70.9951126,84.8457182" id="Fill-133" fill="#B74E25"></path>
    </g>
</svg>
