<?xml version="1.0" encoding="UTF-8"?>
<!-- Created with Inkscape (http://www.inkscape.org/) -->
<svg width="90" height="90" version="1.1" viewBox="0 0 90 90" xml:space="preserve" xmlns="http://www.w3.org/2000/svg" xmlns:cc="http://creativecommons.org/ns#" xmlns:dc="http://purl.org/dc/elements/1.1/" xmlns:rdf="http://www.w3.org/1999/02/22-rdf-syntax-ns#"><metadata><rdf:RDF><cc:Work rdf:about=""><dc:format>image/svg+xml</dc:format><dc:type rdf:resource="http://purl.org/dc/dcmitype/StillImage"/><dc:title/></cc:Work></rdf:RDF></metadata><g transform="matrix(1.3333 0 0 -1.3333 -31.533 121.56)"><g transform="matrix(.058778 0 0 .058778 23.65 23.67)"><path d="m614.18 1086.8 49.336 54.44 30.293-67.11 57.226 46.07 19.434-71.02 63.75 36.54 8.086-73.19 68.672 26.11-3.438-73.553 71.875 15.039-14.883-72.11 73.363 3.606-26-68.899 73.03-7.929-36.43-63.965 70.88-19.277-45.98-57.461 67-30.145-54.4-49.562 61.45-40.262-61.49-40.453 54.44-49.375-67.07-30.313 46.03-57.285-70.96-19.453 36.51-63.789-73.11-8.078 26.08-68.75-73.479 3.457 15.019-71.961-72.031 14.91 3.574-73.441-68.828 26.007-7.93-73.078-63.925 36.469-19.258-70.949-57.422 46.031-30.117-67.063-49.532 54.453-40.214-61.512-40.411 61.539-49.339-54.481-30.293 67.09-57.246-46.059-19.434 71-63.742-36.52-8.098 73.192-68.66-26.102 3.445 73.551-71.902-15.039 14.902 72.117-73.371-3.601 25.988 68.906-73.027 7.929 36.426 63.946-70.879 19.297 45.996 57.48-67.012 30.117 54.402 49.571-61.473 40.265 61.473 40.43-54.402 49.375 67.051 30.332-46.035 57.305 70.965 19.453-36.512 63.789 73.125 8.086-26.086 68.73 73.481-3.437-15.024 71.965 72.043-14.914-3.574 73.427 68.828-26.01 7.93 73.09 63.926-36.46 19.257 70.94 57.434-46.02 30.105 67.06 49.528-54.43 40.234 61.49 40.43-61.55" fill="#254aa5"/><path d="m71.934 574.2c0 277.36 224.65 502.21 501.79 502.21 277.13 0 501.77-224.85 501.77-502.21 0-277.36-224.64-502.19-501.77-502.19-277.14 0-501.79 224.83-501.79 502.19" fill="#fddd1b"/><path d="m71.934 574.2c0 277.36 224.65 502.21 501.79 502.21 277.13 0 501.77-224.85 501.77-502.21 0-277.36-224.64-502.19-501.77-502.19-277.14 0-501.79 224.83-501.79 502.19" fill="#fddd1b"/><path d="m231.9 574.44c0 188.8 152.93 341.86 341.59 341.86 188.65 0 341.56-153.07 341.56-341.86 0-188.81-152.91-341.86-341.56-341.86-188.66 0-341.59 153.05-341.59 341.86" fill="#254aa5"/><path d="m231.9 574.44c0 188.8 152.93 341.86 341.59 341.86 188.65 0 341.56-153.07 341.56-341.86 0-188.81-152.91-341.86-341.56-341.86-188.66 0-341.59 153.05-341.59 341.86" fill="#254aa5"/><g fill="#fddd1b"><path d="m829.86 733.56-10.488 30.293-10.117-30.313-32.715-8e-3 26.524-18.781-10.176-30.281 26.523 18.777 26.426-18.777-9.707 30.207 26.074 18.855-32.344 0.028"/><path d="m724.74 833.02-10.508 30.281-10.117-30.301-32.734-0.02 26.523-18.781-10.156-30.273 26.523 18.769 26.426-18.769-9.726 30.187 26.093 18.867-32.324 0.04"/><path d="m582.3 872.3-10.508 30.293-10.098-30.324h-32.734l26.523-18.778-10.156-30.285 26.524 18.781 26.406-18.781-9.707 30.195 26.074 18.868-32.324 0.031"/><path d="m441.57 833-10.515 30.301-10.11-30.321-32.722-0.011 26.523-18.77-10.156-30.293 26.523 18.782 26.414-18.782-9.714 30.207 26.082 18.856-32.325 0.031"/><path d="m336.44 733.56-10.508 30.293-10.11-30.313-32.722-8e-3 26.519-18.781-10.164-30.281 26.524 18.777 26.418-18.777-9.707 30.207 26.074 18.855-32.324 0.028"/><path d="m297.46 583.2-10.508 30.301-10.105-30.312-32.739-0.02 26.536-18.769-10.165-30.286 26.524 18.774 26.426-18.774-9.719 30.188 26.074 18.867-32.324 0.031"/><path d="m342.22 446.08-10.52 30.293-10.105-30.312-32.727-0.02 26.524-18.77-10.157-30.293 26.512 18.79 26.43-18.79-9.719 30.196 26.086 18.867-32.324 0.039"/><path d="m435.79 346.65-10.512 30.274-10.105-30.305h-32.727l26.528-18.777-10.168-30.293 26.523 18.789 26.414-18.789-9.703 30.195 26.07 18.875-32.32 0.031"/><path d="m582.3 295.38-10.508 30.293-10.117-30.305h-32.715l26.523-18.777-10.175-30.293 26.523 18.769 26.426-18.769-9.707 30.215 26.074 18.855-32.324 0.012"/><path d="m728.82 346.63-10.508 30.293-10.117-30.305-32.734-0.027 26.543-18.762-10.176-30.293 26.523 18.781 26.426-18.781-9.707 30.188 26.074 18.867-32.324 0.039"/><path d="m822.42 446.08-10.508 30.273-10.117-30.312h-32.734l26.543-18.77-10.196-30.293 26.543 18.79 26.426-18.79-9.707 30.196 26.074 18.867-32.324 0.039"/><path d="m870.52 583.83-10.507 30.305-10.098-30.324-32.734-0.02 26.543-18.758-10.196-30.297 26.543 18.782 26.426-18.782-9.707 30.207 26.055 18.848-32.325 0.039"/><path d="m691.19 393.44c-59.375 62.325-182.66 117.5-328.89 139.61l-0.688 3.73c-1.558 8.867-2.554 17.699-3.015 26.469 151.44-21.742 288.8-79.106 356.21-151.98-7.403-6.445-15.293-12.402-23.613-17.832"/><path d="m600.66 360.32c-27.461 46.836-111.21 92.715-218.02 114.3-5.34 10.274-9.903 21.074-13.582 32.344 122.58-21.133 230.53-74.668 261.64-140.66-6.386-1.738-12.91-3.203-19.57-4.395-3.496-0.605-6.973-1.132-10.469-1.582"/><path d="m399.72 447.08c57.566-15.43 106.43-42.773 122.58-82.265-49.227 12.148-92.758 41.425-122.58 82.265"/><path d="m577.59 566.16c73.984 20.359 148.65 28.074 211.05 22.41 0.508-7.519 0.625-15 0.352-22.39-50.312 4.949-111.02 0.808-174.63-13.645 10.879-4.269 21.504-8.703 31.895-13.293 52.05 8.027 101.62 6.953 139.34-4.101-1.348-7.344-3.067-14.59-5.176-21.7-25.469 7.637-58.77 10.528-96.153 7.871 29.356-14.863 56.153-30.898 79.844-47.929-4.57-8.633-9.707-16.934-15.39-24.864-89.161 64.649-230 117.73-389.96 139.98 0.64 9.746 1.929 19.363 3.867 28.789 50.254-7.043 99.246-17.109 145.78-29.766 92.012 32 187.64 48.446 271.56 48.836 2.148-7.148 3.925-14.48 5.351-21.972-72.207 0.332-155.45-11.797-239.53-37.774 10.762-3.34 21.348-6.836 31.797-10.457"/><path d="m829.86 733.56-10.488 30.293-10.117-30.313-32.715-8e-3 26.524-18.781-10.176-30.281 26.523 18.777 26.426-18.777-9.707 30.207 26.074 18.855-32.344 0.028"/><path d="m724.74 833.02-10.508 30.281-10.117-30.301-32.734-0.02 26.523-18.781-10.156-30.273 26.523 18.769 26.426-18.769-9.726 30.187 26.093 18.867-32.324 0.04"/><path d="m582.3 872.3-10.508 30.293-10.098-30.324h-32.734l26.523-18.778-10.156-30.285 26.524 18.781 26.406-18.781-9.707 30.195 26.074 18.868-32.324 0.031"/><path d="m441.57 833-10.515 30.301-10.11-30.321-32.722-0.011 26.523-18.77-10.156-30.293 26.523 18.782 26.414-18.782-9.714 30.207 26.082 18.856-32.325 0.031"/><path d="m336.44 733.56-10.508 30.293-10.11-30.313-32.722-8e-3 26.519-18.781-10.164-30.281 26.524 18.777 26.418-18.777-9.707 30.207 26.074 18.855-32.324 0.028"/><path d="m297.46 583.2-10.508 30.301-10.105-30.312-32.739-0.02 26.536-18.769-10.165-30.286 26.524 18.774 26.426-18.774-9.719 30.188 26.074 18.867-32.324 0.031"/><path d="m342.22 446.08-10.52 30.293-10.105-30.312-32.727-0.02 26.524-18.77-10.157-30.293 26.512 18.79 26.43-18.79-9.719 30.196 26.086 18.867-32.324 0.039"/><path d="m435.79 346.65-10.512 30.274-10.105-30.305h-32.727l26.528-18.777-10.168-30.293 26.523 18.789 26.414-18.789-9.703 30.195 26.07 18.875-32.32 0.031"/><path d="m582.3 295.38-10.508 30.293-10.117-30.305h-32.715l26.523-18.777-10.175-30.293 26.523 18.769 26.426-18.769-9.707 30.215 26.074 18.855-32.324 0.012"/><path d="m728.82 346.63-10.508 30.293-10.117-30.305-32.734-0.027 26.543-18.762-10.176-30.293 26.523 18.781 26.426-18.781-9.707 30.188 26.074 18.867-32.324 0.039"/><path d="m822.42 446.08-10.508 30.273-10.117-30.312h-32.734l26.543-18.77-10.196-30.293 26.543 18.79 26.426-18.79-9.707 30.196 26.074 18.867-32.324 0.039"/><path d="m870.52 583.83-10.507 30.305-10.098-30.324-32.734-0.02 26.543-18.758-10.196-30.297 26.543 18.782 26.426-18.782-9.707 30.207 26.055 18.848-32.325 0.039"/><path d="m691.19 393.44c-59.375 62.325-182.66 117.5-328.89 139.61l-0.688 3.73c-1.558 8.867-2.554 17.699-3.015 26.469 151.44-21.742 288.8-79.106 356.21-151.98-7.403-6.445-15.293-12.402-23.613-17.832"/><path d="m600.66 360.32c-27.461 46.836-111.21 92.715-218.02 114.3-5.34 10.274-9.903 21.074-13.582 32.344 122.58-21.133 230.53-74.668 261.64-140.66-6.386-1.738-12.91-3.203-19.57-4.395-3.496-0.605-6.973-1.132-10.469-1.582"/><path d="m399.72 447.08c57.566-15.43 106.43-42.773 122.58-82.265-49.227 12.148-92.758 41.425-122.58 82.265"/><path d="m577.59 566.16c73.984 20.359 148.65 28.074 211.05 22.41 0.508-7.519 0.625-15 0.352-22.39-50.312 4.949-111.02 0.808-174.63-13.645 10.879-4.269 21.504-8.703 31.895-13.293 52.05 8.027 101.62 6.953 139.34-4.101-1.348-7.344-3.067-14.59-5.176-21.7-25.469 7.637-58.77 10.528-96.153 7.871 29.356-14.863 56.153-30.898 79.844-47.929-4.57-8.633-9.707-16.934-15.39-24.864-89.161 64.649-230 117.73-389.96 139.98 0.64 9.746 1.929 19.363 3.867 28.789 50.254-7.043 99.246-17.109 145.78-29.766 92.012 32 187.64 48.446 271.56 48.836 2.148-7.148 3.925-14.48 5.351-21.972-72.207 0.332-155.45-11.797-239.53-37.774 10.762-3.34 21.348-6.836 31.797-10.457"/></g><g fill="#254aa5"><path d="m341.93 209.36c-2.852 1.817-4.645 4.383-5.371 7.684-0.731 3.312-0.18 6.387 1.644 9.238 1.82 2.852 4.387 4.641 7.692 5.371 3.304 0.735 6.378 0.176 9.234-1.648 2.855-1.817 4.641-4.375 5.367-7.688 0.731-3.308 0.184-6.375-1.641-9.226-1.824-2.864-4.378-4.649-7.667-5.391-3.293-0.742-6.379-0.187-9.258 1.66"/><path d="m307.27 290.77 1.183 1.367 21.41-18.614-1.187-1.367-1.766 1.543c-2.066 1.797-4.082 2.5-6.066 2.11-1.274-0.274-3.211-1.914-5.821-4.914l-28.058-32.274c-2.199-2.539-3.492-4.348-3.879-5.43-0.289-0.832-0.242-1.796 0.133-2.902 0.57-1.531 1.445-2.801 2.621-3.836l1.765-1.535-1.183-1.355-21.406 18.613 1.183 1.355 1.805-1.57c2.039-1.77 4.051-2.461 6.027-2.07 1.301 0.254 3.25 1.875 5.856 4.882l28.062 32.274c2.203 2.531 3.496 4.348 3.883 5.43 0.285 0.832 0.231 1.808-0.172 2.929-0.547 1.504-1.406 2.774-2.59 3.801l-1.8 1.563"/><path d="m256.9 248.06-11.886 13.465 10.453 63.214-28.633-25.273c-3.047-2.688-4.652-4.707-4.805-6.055-0.23-1.816 0.52-3.691 2.242-5.644l1.516-1.719-1.351-1.191-15.25 17.273 1.355 1.203 1.551-1.758c1.851-2.109 3.801-3.027 5.844-2.793 1.257 0.157 3.273 1.453 6.054 3.907l41.852 36.933 1.164-1.32-11.102-68.016 30.574 26.981c3.051 2.687 4.665 4.699 4.836 6.027 0.207 1.836-0.539 3.711-2.238 5.645l-1.555 1.757 1.36 1.192 15.242-17.285-1.352-1.192-1.519 1.719c-1.875 2.129-3.832 3.066-5.879 2.832-1.254-0.156-3.27-1.465-6.055-3.918l-34.523-30.457c-0.418-2.93-0.563-5-0.442-6.223 0.118-1.218 0.583-2.754 1.387-4.597 0.406-0.91 1.246-2.071 2.516-3.516l-1.356-1.191"/><path d="m243 362.51c-1.332 4.012-2.715 7.226-4.152 9.629-3.864 6.484-9.348 10.508-16.457 12.07-7.114 1.563-14.563 0.02-22.368-4.629-7.855-4.687-12.777-10.519-14.754-17.5-1.976-6.973-0.964-13.82 3.032-20.527 1.5-2.52 3.613-5.137 6.343-7.871zm13.789-13.789-1.555-0.918-1.273 2.129c-1.438 2.41-3.219 3.652-5.356 3.75-1.289 0.058-3.546-0.86-6.757-2.774l-36.747-21.914c-3.546-2.109-5.535-3.828-5.964-5.137-0.582-1.835-0.231-3.82 1.054-5.976l1.274-2.129-1.551-0.93-13.801 23.157c-5.066 8.496-7.957 15.535-8.672 21.113-0.707 5.586 0.383 11.074 3.274 16.445 2.894 5.391 7.289 9.844 13.191 13.36 7.91 4.707 15.957 6.25 24.137 4.609 9.144-1.867 17.012-8.32 23.594-19.367l15.152-25.418"/><path d="m208.21 437.64 1.664 0.691 11.035-26.133-1.664-0.703-0.914 2.16c-1.062 2.52-2.566 4.043-4.519 4.559-1.266 0.312-3.719-0.301-7.383-1.844l-39.406-16.641c-3.09-1.3-5.047-2.355-5.872-3.164-0.621-0.617-1.007-1.504-1.152-2.656-0.168-1.621 0.059-3.164 0.664-4.601l0.91-2.157-1.664-0.703-11.027 26.133 1.656 0.703 0.934-2.207c1.051-2.48 2.554-3.984 4.504-4.512 1.277-0.332 3.746 0.254 7.402 1.805l39.402 16.633c3.09 1.308 5.051 2.363 5.875 3.164 0.621 0.625 1 1.523 1.137 2.715 0.176 1.59-0.043 3.105-0.648 4.551l-0.934 2.207"/><path d="m126.65 480.44 21.313 7.402 0.398-1.465c-5.964-3.73-9.882-7.785-11.754-12.18-1.863-4.394-2.109-9.109-0.722-14.168 1.164-4.238 3.289-7.773 6.375-10.605s7.254-4.59 12.5-5.266c5.246-0.672 11.371-0.047 18.371 1.867 5.777 1.582 10.531 3.887 14.266 6.895 3.726 3.008 6.214 6.687 7.453 11.035 1.246 4.336 1.211 8.887-0.098 13.66-1.133 4.153-3.02 7.559-5.664 10.246-2.641 2.684-7.117 5.204-13.438 7.559l0.543 1.719c6.563-1.641 11.743-4.239 15.551-7.793 3.809-3.547 6.516-8.254 8.121-14.121 2.903-10.586 1.223-19.856-5.039-27.813-4.652-5.937-10.937-9.98-18.847-12.148-6.372-1.739-12.622-1.914-18.743-0.528-6.117 1.407-11.332 4.2-15.636 8.399-4.309 4.207-7.278 9.277-8.899 15.215-1.261 4.609-1.383 9.472-0.351 14.578 0.332 1.515 0.418 2.551 0.265 3.117-0.234 0.84-0.734 1.504-1.504 1.961-1.07 0.586-2.41 0.851-4.007 0.773l-0.454 1.661"/><path d="m160.53 546.65-25.695-13.476 27.644-9.192zm3.485 1.68 2.195-25.547 10.797-3.574c2.656-0.879 4.613-1.269 5.883-1.164 1 0.09 1.843 0.637 2.523 1.672 0.684 1.015 1 3.125 0.953 6.328l1.801 0.156 1.781-20.781-1.797-0.156c-0.726 2.715-1.507 4.453-2.355 5.195-1.699 1.523-5.02 3.074-9.961 4.676l-56.285 18.547-0.149 1.699 52.903 27.676c4.254 2.226 6.968 4.152 8.156 5.773 1.18 1.621 1.742 3.785 1.668 6.492l1.801 0.149 2.238-26.028-1.797-0.156c-0.355 2.617-0.949 4.36-1.773 5.219-0.825 0.859-1.774 1.246-2.848 1.152-1.426-0.121-3.621-0.961-6.59-2.523l-9.144-4.805"/><path d="m121.36 626.98 15.539-0.078-0.093-1.855c-2.75-0.215-4.731-0.602-5.93-1.156-1.938-0.911-3.399-2.18-4.379-3.805s-1.543-3.805-1.687-6.539l-0.489-9.313 50.52-2.644c4.062-0.215 6.621 0.094 7.672 0.918 1.429 1.16 2.214 3.027 2.347 5.593l0.121 2.297 1.801-0.097-1.469-28.039-1.8 0.097 0.121 2.34c0.148 2.797-0.594 4.824-2.223 6.086-1.004 0.766-3.355 1.25-7.062 1.445l-50.52 2.645-0.414-7.949c-0.16-3.09-0.051-5.293 0.336-6.621 0.531-1.719 1.641-3.227 3.336-4.52 1.687-1.301 4.027-2.141 7.008-2.519l-0.098-1.856-15.469 1.59 2.832 53.98"/><path d="m191.85 657.34 1.781-0.305-4.781-27.961-1.782 0.301 0.395 2.309c0.461 2.695 0.012 4.785-1.352 6.277-0.898 0.945-3.3 1.75-7.218 2.422l-42.161 7.207c-3.3 0.566-5.523 0.727-6.652 0.492-0.859-0.187-1.66-0.723-2.406-1.621-1.012-1.281-1.652-2.691-1.914-4.23l-0.399-2.309-1.773 0.305 4.777 27.961 1.778-0.301-0.399-2.36c-0.457-2.664 0-4.742 1.363-6.226 0.887-0.981 3.29-1.801 7.208-2.469l42.16-7.207c3.3-0.566 5.523-0.734 6.652-0.492 0.859 0.18 1.66 0.734 2.414 1.664 1.008 1.25 1.645 2.645 1.906 4.184l0.403 2.359"/><path d="m142.37 713.38c-1.785-5.648-1.121-10.84 1.988-15.578 3.871-5.902 10.836-10.442 20.891-13.621 10.309-3.254 18.934-3.559 25.883-0.906 5.289 2.05 8.812 5.851 10.566 11.41 1.875 5.925 1.114 11.55-2.297 16.879-3.402 5.328-10.082 9.566-20.047 12.714-10.8 3.415-19.527 3.829-26.179 1.254-5.301-2.078-8.903-6.132-10.805-12.152zm-3.117 1.957c2.586 8.199 7.941 14.313 16.062 18.356 8.125 4.039 16.84 4.585 26.153 1.64 9.59-3.027 16.597-8.57 21.015-16.625 4.418-8.051 5.27-16.379 2.551-24.976-2.746-8.692-8.14-15.02-16.187-18.981-8.043-3.957-16.973-4.387-26.782-1.289-10.027 3.172-17.125 9.168-21.3 18-3.618 7.66-4.125 15.621-1.512 23.875"/><path d="m155.75 759.39 8.562 15.8 62.946 11.93-33.574 18.192c-3.575 1.941-6.028 2.746-7.348 2.429-1.774-0.41-3.281-1.758-4.524-4.051l-1.093-2.015-1.59 0.859 10.98 20.266 1.586-0.86-1.113-2.062c-1.332-2.461-1.539-4.613-0.606-6.449 0.579-1.125 2.493-2.575 5.758-4.34l49.067-26.59-0.84-1.547-67.676-12.973 35.852-19.429c3.574-1.938 6.011-2.758 7.324-2.465 1.789 0.434 3.301 1.781 4.519 4.043l1.118 2.059 1.586-0.86-10.973-20.262-1.594 0.86 1.094 2.019c1.351 2.489 1.562 4.657 0.629 6.493-0.574 1.121-2.492 2.57-5.754 4.339l-40.485 21.934c-2.89-0.617-4.882-1.191-5.988-1.723-1.101-0.535-2.383-1.496-3.844-2.886-0.707-0.696-1.515-1.879-2.429-3.571l-1.59 0.86"/><path d="m256.33 904.08 16.426-13.035-1.172-1.25c-4.98 2.301-9.363 3.355-13.16 3.16-5.473-0.269-10.32-2.66-14.551-7.18-5.762-6.152-7.711-13.113-5.844-20.882 1.598-6.54 5.235-12.461 10.914-17.778 4.614-4.316 9.653-7.363 15.122-9.14 5.472-1.778 10.445-2.051 14.917-0.829 4.473 1.231 8.133 3.368 10.981 6.407 1.672 1.785 3.059 3.718 4.16 5.808 1.109 2.082 1.942 4.309 2.512 6.68l-13.973 13.078c-2.422 2.274-4.183 3.57-5.273 3.906-1.094 0.332-2.199 0.293-3.317-0.109-1.109-0.406-2.582-1.582-4.406-3.531l-1.351 1.269 17.515 18.711 1.356-1.269-0.832-0.891c-1.739-1.855-2.309-3.703-1.719-5.547 0.433-1.301 1.945-3.164 4.539-5.586l14.789-13.851c-1.086-4.11-2.531-7.821-4.332-11.129-1.801-3.305-4.231-6.586-7.274-9.844-8.746-9.336-18.378-13.625-28.91-12.863-7.894 0.57-14.777 3.601-20.648 9.093-4.25 3.985-7.367 8.821-9.356 14.512-2.363 6.766-2.812 13.43-1.347 19.996 1.25 5.473 4.133 10.625 8.648 15.45 1.645 1.757 3.285 3.222 4.918 4.394 1.629 1.168 4.168 2.617 7.61 4.34 1.746 0.867 2.828 1.523 3.253 1.973 0.426 0.449 0.579 1.031 0.457 1.746-0.109 0.707-0.742 1.668-1.886 2.875l1.234 1.316"/><path d="m294.09 960.6-1.359-22.121-1.332-1.004-6.043 16.54zm-1.434-32.57 15.75-20.898 11.621 8.754c3.012 2.273 4.688 4.246 5.016 5.922 0.449 2.21-0.383 4.886-2.5 8.019l1.445 1.09 13.868-18.406-1.442-1.09c-2.305 2.301-3.91 3.679-4.824 4.133-1.152 0.554-2.461 0.691-3.914 0.41-1.461-0.285-3.293-1.262-5.504-2.926l-11.621-8.754 13.141-17.434c1.761-2.335 2.937-3.683 3.531-4.031 0.586-0.351 1.254-0.484 2-0.386 0.742 0.089 1.844 0.683 3.301 1.781l8.968 6.758c2.989 2.257 5 4.097 6.039 5.535 1.043 1.433 1.727 3.23 2.047 5.394 0.403 2.828 0.223 6.504-0.543 11.024l1.567 1.179 5.425-16.699-40.75-30.711-1.085 1.442 1.871 1.41c1.25 0.945 2.207 2.129 2.871 3.574 0.523 1.043 0.617 2.09 0.289 3.152-0.328 1.055-1.465 2.871-3.403 5.442l-25.89 34.355c-2.528 3.352-4.422 5.164-5.688 5.438-1.718 0.332-3.672-0.324-5.855-1.969l-1.867-1.41-1.09 1.445 40.746 30.707 9.316-11.137-1.523-1.148c-2.641 2.367-4.688 3.824-6.133 4.363-1.445 0.543-3.027 0.598-4.734 0.164-1.336-0.398-3.317-1.582-5.942-3.562l-14.504-10.93"/><path d="m364.75 976.13c-5.269-2.707-8.484-6.84-9.664-12.387-1.461-6.898 0.223-15.043 5.051-24.418 4.945-9.609 10.805-15.949 17.582-19.015 5.18-2.313 10.359-2.133 15.543 0.531 5.527 2.844 8.984 7.351 10.363 13.515 1.391 6.168-0.308 13.899-5.09 23.192-5.187 10.07-11.035 16.562-17.551 19.473-5.21 2.293-10.621 2-16.234-0.891zm-0.805 3.594c7.641 3.929 15.754 4.437 24.34 1.519 8.59-2.922 15.117-8.726 19.586-17.406 4.606-8.945 5.602-17.824 2.996-26.633-2.605-8.808-7.918-15.277-15.937-19.398-8.102-4.176-16.391-4.801-24.871-1.875-8.477 2.918-15.071 8.953-19.778 18.101-4.808 9.348-5.55 18.617-2.226 27.797 2.894 7.969 8.187 13.934 15.89 17.895"/><path d="m466.06 1018.4 7.64-19.526-1.64-0.492c-3.149 4.488-6.41 7.608-9.785 9.348-4.868 2.51-10.262 2.89-16.184 1.11-8.078-2.42-13.266-7.46-15.555-15.111-1.902-6.457-1.738-13.402 0.492-20.855 1.821-6.051 4.641-11.223 8.481-15.508 3.832-4.289 7.992-7.023 12.476-8.207 4.485-1.188 8.723-1.184 12.715 0.012 2.34 0.703 4.508 1.675 6.516 2.925 2.004 1.247 3.848 2.75 5.527 4.512l-5.5 18.336c-0.957 3.18-1.82 5.184-2.593 6.024-0.786 0.835-1.754 1.363-2.922 1.574s-3.032-0.071-5.586-0.836l-0.532 1.777 24.551 7.363 0.532-1.777-1.168-0.351c-2.43-0.727-3.856-2.04-4.274-3.93-0.277-1.344 0.094-3.711 1.109-7.11l5.829-19.41c-3.008-3.008-6.121-5.488-9.344-7.441s-6.969-3.57-11.238-4.848c-12.25-3.676-22.743-2.539-31.457 3.406-6.54 4.465-10.961 10.547-13.27 18.25-1.676 5.579-1.937 11.329-0.793 17.247 1.359 7.035 4.316 13.019 8.887 17.958 3.836 4.1 8.914 7.11 15.246 9.01 2.305 0.69 4.457 1.13 6.453 1.32 2.004 0.2 4.922 0.17 8.766-0.07 1.945-0.13 3.211-0.11 3.804 0.07 0.59 0.18 1.016 0.6 1.274 1.27 0.258 0.68 0.195 1.82-0.192 3.44l1.735 0.52"/><path d="m512.72 992.56c0.609 0.07 1.148 0.117 1.601 0.156 0.454 0.035 0.829 0.07 1.118 0.102 6.277 0.714 10.851 2.609 13.73 5.683 2.879 3.084 4.078 6.724 3.602 10.934-0.465 4.1-2.129 7.3-4.996 9.57-2.864 2.29-6.415 3.18-10.653 2.7-1.875-0.21-4.379-0.81-7.512-1.79zm50.562-28.508-17.562-2-25.766 28.234c-1.644-0.254-2.98-0.441-4.015-0.558-0.422-0.047-0.875-0.094-1.364-0.125-0.484-0.039-0.992-0.075-1.507-0.098l2.167-19.117c0.473-4.141 1.215-6.66 2.235-7.563 1.39-1.285 3.316-1.785 5.773-1.504l2.575 0.293 0.203-1.796-28.188-3.204-0.207 1.797 2.477 0.282c2.777 0.312 4.668 1.445 5.66 3.394 0.566 1.078 0.633 3.496 0.211 7.246l-4.832 42.502c-0.469 4.14-1.215 6.66-2.231 7.56-1.426 1.28-3.383 1.78-5.875 1.5l-2.468-0.29-0.208 1.8 23.965 2.72c6.989 0.79 12.2 0.87 15.625 0.23 3.434-0.65 6.461-2.21 9.082-4.67 2.621-2.48 4.153-5.6 4.582-9.38 0.457-4.05-0.461-7.71-2.757-10.98-2.301-3.277-6.145-5.84-11.536-7.703l15.727-17.328c3.602-3.984 6.594-6.559 8.984-7.723 2.395-1.171 5.411-1.75 9.043-1.73l0.207-1.789"/><path d="m608.51 986.98-9.434 27.44-13.262-25.936zm1.133-3.699-25.586 1.696-5.176-10.125c-1.27-2.497-1.953-4.375-2.031-5.641-0.071-1.008 0.351-1.926 1.257-2.75 0.911-0.828 2.942-1.461 6.114-1.898l-0.125-1.801-20.797 1.375 0.117 1.808c2.793 0.301 4.625 0.813 5.488 1.543 1.758 1.45 3.805 4.492 6.129 9.133l26.856 52.829 1.699-0.11 19.355-56.481c1.563-4.543 3.047-7.519 4.473-8.937 1.426-1.414 3.477-2.293 6.16-2.633l-0.125-1.805-26.055 1.727 0.118 1.809c2.636-0.051 4.441 0.273 5.418 0.96 0.968 0.684 1.496 1.563 1.574 2.633 0.097 1.43-0.41 3.731-1.504 6.903l-3.359 9.765"/><path d="m662.28 986.94c1.61-0.707 3.047-1.293 4.305-1.757 1.262-0.465 2.355-0.801 3.273-1.016 3.301-0.774 6.446-0.156 9.434 1.836s4.961 5.015 5.898 9.07c0.664 2.789 0.692 5.512 0.118 8.172-0.586 2.66-1.789 4.83-3.594 6.51-1.817 1.68-4.063 2.83-6.719 3.45-1.621 0.38-3.769 0.56-6.445 0.55zm-0.625-2.711-4.394-18.777c-0.938-4.062-1.094-6.687-0.43-7.871 0.879-1.68 2.539-2.805 4.981-3.375l2.468-0.578-0.41-1.758-27.625 6.457 0.41 1.758 2.422-0.567c2.735-0.64 4.883-0.207 6.473 1.293 0.871 0.836 1.73 3.09 2.59 6.77l9.726 41.654c0.946 4.06 1.113 6.67 0.488 7.86-0.917 1.68-2.597 2.81-5.039 3.38l-2.421 0.57 0.41 1.75 23.633-5.52c5.769-1.35 10.175-3 13.23-4.97 3.059-1.96 5.383-4.62 7.012-7.98 1.621-3.35 1.984-6.967 1.086-10.834-1.231-5.258-3.965-9.133-8.215-11.621-4.238-2.484-9.531-2.988-15.867-1.504-1.555 0.363-3.204 0.867-4.961 1.512-1.758 0.644-3.614 1.426-5.567 2.351"/><path d="m721.76 971.59 28.437-11.738 7.227 17.507c1.301 3.129 1.945 5.274 1.965 6.426 0.019 0.879-0.352 1.789-1.094 2.727-0.996 1.254-2.207 2.179-3.652 2.777l-2.168 0.895 0.683 1.668 26.18-10.805-0.692-1.672-2.168 0.895c-1.445 0.597-2.949 0.816-4.531 0.66-1.164-0.082-2.121-0.547-2.871-1.383-0.742-0.836-1.738-2.754-2.988-5.762l-16.301-39.492c-1.277-3.102-1.922-5.23-1.941-6.383-0.02-0.879 0.332-1.777 1.043-2.703 1.027-1.269 2.257-2.203 3.703-2.797l2.168-0.894-0.684-1.672-26.172 10.808 0.684 1.668 2.168-0.894c2.5-1.028 4.617-1.043 6.367-0.043 1.152 0.656 2.48 2.812 4.004 6.484l7.695 18.645-28.437 11.738-7.696-18.645c-1.281-3.101-1.933-5.222-1.953-6.382 0-0.871 0.36-1.782 1.102-2.719 0.988-1.258 2.219-2.184 3.664-2.777l2.207-0.914-0.684-1.668-26.23 10.82 0.691 1.668 2.16-0.895c2.54-1.039 4.668-1.062 6.426-0.058 1.114 0.664 2.442 2.832 3.946 6.504l16.308 39.492c1.289 3.125 1.953 5.269 1.973 6.426 0 0.875-0.352 1.778-1.055 2.698-1.027 1.27-2.266 2.2-3.711 2.8l-2.168 0.9 0.703 1.67 26.211-10.826-0.683-1.668-2.207 0.91c-1.446 0.598-2.969 0.816-4.543 0.656-1.133-0.097-2.078-0.558-2.84-1.387-0.762-0.832-1.778-2.75-3.008-5.757l-7.238-17.508"/><path d="m783.08 903.96-0.898-1.566-24.551 14.214 0.898 1.567 2.032-1.176c2.363-1.367 4.48-1.676 6.347-0.914 1.211 0.508 2.793 2.48 4.785 5.918l21.434 37.019c1.68 2.903 2.609 4.922 2.785 6.067 0.117 0.863-0.109 1.805-0.684 2.816-0.851 1.399-1.953 2.485-3.3 3.266l-2.032 1.172 0.907 1.57 24.55-14.219-0.906-1.562-2.07 1.199c-2.344 1.352-4.445 1.652-6.309 0.891-1.23-0.496-2.832-2.461-4.824-5.895l-21.437-37.023c-1.68-2.899-2.606-4.922-2.782-6.063-0.117-0.863 0.118-1.812 0.731-2.844 0.812-1.375 1.906-2.46 3.254-3.242l2.07-1.195"/><path d="m852.59 930.85c-4.688 3.625-9.746 4.875-15.196 3.742-6.855-1.406-13.632-6.43-20.332-15.078-6.554-8.465-9.785-16.407-9.668-23.817 0.098-5.718 2.481-10.382 7.129-13.988 4.844-3.746 10.098-5.008 15.801-3.769 6.699 1.476 13.203 6.281 19.492 14.414 4.844 6.253 7.969 12.253 9.375 18 1.094 4.429 1.016 8.367-0.215 11.808-1.222 3.438-3.359 6.336-6.386 8.688zm-33.137-56.172c-0.879-6.563-0.625-12.09 0.773-16.594 1.387-4.496 3.915-8.402 7.559-11.723l-0.957-1.234c-3.449 2.879-6.691 6.531-9.727 10.961-3.027 4.43-5.468 9.199-7.296 14.301-1.836 5.101-3.055 9.972-3.661 14.605-2.558 4.36-4.257 8.219-5.136 11.563-1.203 4.929-1.262 9.886-0.176 14.871 1.074 4.992 3.543 9.969 7.391 14.933 6.066 7.821 13.625 12.36 22.707 13.602 9.082 1.25 17.214-0.914 24.421-6.496 6.848-5.305 10.762-12.488 11.75-21.551 0.997-9.062-1.574-17.543-7.695-25.441-4.961-6.414-11.094-10.657-18.41-12.731-7.312-2.082-14.492-1.769-21.543 0.934"/><path d="m922.12 864.97 1.348 1.195 15.547-17.539-1.348-1.195-1.652 1.859c-1.727 1.953-3.875 2.723-6.434 2.324-1.211-0.156-3.184-1.457-5.938-3.898l-20.097-17.813c-4.961-4.406-9.258-7.332-12.871-8.773-3.614-1.445-7.688-1.59-12.207-0.445-4.512 1.152-8.985 4.211-13.379 9.179-4.805 5.407-7.5 10.344-8.106 14.809-0.605 4.461 0.157 8.68 2.285 12.66 1.465 2.699 5.196 6.691 11.161 11.984l19.367 17.168c3.047 2.704 4.668 4.895 4.871 6.575 0.207 1.683-0.516 3.461-2.188 5.336l-1.648 1.867 1.348 1.195 18.984-21.41-1.348-1.199-1.691 1.902c-1.805 2.047-3.758 2.934-5.82 2.664-1.414-0.164-3.516-1.48-6.297-3.945l-21.582-19.141c-1.934-1.707-3.985-3.836-6.153-6.394-2.168-2.555-3.535-4.911-4.101-7.067-0.567-2.16-0.528-4.508 0.105-7.047 0.645-2.539 2.09-5.078 4.336-7.613 2.871-3.234 6.145-5.512 9.836-6.816 3.672-1.301 7.031-1.45 10.067-0.434 3.039 1.02 7.179 3.859 12.453 8.527l20.058 17.782c3.086 2.738 4.727 4.8 4.903 6.172 0.222 1.898-0.489 3.789-2.161 5.664l-1.648 1.867"/><path d="m954.24 818.3-22.312-13.664 7.597-12.414c1.973-3.219 3.77-5.075 5.411-5.563 2.156-0.656 4.902-0.086 8.222 1.719l0.938-1.543-19.649-12.035-0.949 1.543c2.512 2.07 4.035 3.539 4.582 4.406 0.664 1.094 0.918 2.383 0.781 3.855-0.136 1.481-0.937 3.399-2.383 5.758l-7.597 12.41-18.613-11.398c-2.5-1.531-3.946-2.57-4.356-3.125s-0.598-1.207-0.578-1.961c0.019-0.746 0.508-1.898 1.457-3.457l5.867-9.574c1.965-3.192 3.606-5.375 4.934-6.547s3.047-2.023 5.164-2.559c2.785-0.664 6.457-0.839 11.027-0.519l1.016-1.664-17.129-3.797-26.66 43.516 1.543 0.941 1.23-1.996c0.82-1.336 1.903-2.403 3.281-3.203 0.977-0.617 2.012-0.817 3.106-0.594 1.074 0.23 2.996 1.184 5.742 2.867l36.688 22.461c3.586 2.191 5.566 3.906 5.957 5.137 0.5 1.679 0.031 3.687-1.395 6.019l-1.223 2 1.536 0.942 26.66-43.516-11.992-8.195-0.997 1.621c2.618 2.402 4.258 4.297 4.942 5.683 0.672 1.395 0.879 2.958 0.605 4.704-0.254 1.363-1.25 3.449-2.968 6.254l-9.485 15.488"/><path d="m970.84 719.94c0.246-1.735 0.508-3.262 0.793-4.579 0.273-1.312 0.566-2.418 0.859-3.312 1.094-3.207 3.281-5.551 6.551-7.031 3.273-1.481 6.887-1.551 10.832-0.203 2.703 0.921 5.039 2.332 6.992 4.234 1.942 1.902 3.139 4.066 3.609 6.492 0.46 2.426 0.26 4.938-0.621 7.524-0.546 1.574-1.523 3.492-2.949 5.757zm-2.637-0.891-18.25-6.223c-3.945-1.344-6.25-2.609-6.914-3.801-0.957-1.628-1.035-3.632-0.227-6.003l0.821-2.403-1.707-0.586-9.141 26.856 1.699 0.582 0.801-2.356c0.906-2.652 2.422-4.254 4.531-4.804 1.16-0.293 3.535 0.171 7.11 1.39l40.488 13.789c3.945 1.344 6.25 2.594 6.922 3.75 0.949 1.668 1.015 3.684 0.207 6.059l-0.801 2.355 1.707 0.582 7.827-22.968c1.91-5.61 2.84-10.231 2.79-13.86-0.06-3.625-1.07-7.019-3.07-10.168-1.98-3.156-4.859-5.371-8.609-6.652-5.118-1.742-9.856-1.473-14.211 0.812-4.344 2.278-7.578 6.504-9.676 12.665-0.508 1.507-0.957 3.179-1.348 5.011-0.383 1.828-0.703 3.817-0.949 5.973"/><path d="m987.6 661.3c0.109-0.606 0.187-1.137 0.246-1.59 0.058-0.449 0.117-0.82 0.175-1.11 1.055-6.226 3.211-10.687 6.446-13.39 3.242-2.695 6.941-3.692 11.111-2.977 4.07 0.7 7.17 2.543 9.28 5.528 2.12 2.988 2.81 6.586 2.1 10.785-0.32 1.867-1.06 4.332-2.21 7.402zm-25.614-52.09-2.98 17.422 26.73 27.316c-0.343 1.625-0.605 2.953-0.781 3.977-0.059 0.422-0.137 0.871-0.195 1.355-0.078 0.481-0.137 0.985-0.196 1.504l-18.957-3.25c-4.109-0.703-6.582-1.586-7.421-2.656-1.2-1.457-1.59-3.406-1.18-5.848l0.437-2.551-1.785-0.304-4.785 27.961 1.785 0.304 0.422-2.453c0.469-2.758 1.707-4.578 3.711-5.457 1.102-0.504 3.516-0.441 7.246 0.199l42.161 7.219c4.11 0.703 6.58 1.586 7.42 2.656 1.2 1.493 1.59 3.477 1.16 5.946l-0.42 2.453 1.79 0.305 4.06-23.774c1.19-6.934 1.56-12.129 1.11-15.59s-1.83-6.574-4.16-9.332c-2.31-2.754-5.35-4.457-9.1-5.097-4.01-0.688-7.71 0.027-11.111 2.132-3.398 2.11-6.183 5.801-8.34 11.082l-16.418-16.679c-3.777-3.817-6.179-6.953-7.207-9.41-1.035-2.454-1.433-5.493-1.211-9.122l-1.785-0.308"/><path d="m1026.1 573.08c0.1 5.926-2.02 10.711-6.36 14.363-5.39 4.551-13.36 6.914-23.905 7.09-10.801 0.176-19.16-1.996-25.059-6.523-4.492-3.469-6.777-8.117-6.875-13.949-0.097-6.215 2.235-11.391 7.012-15.524 4.785-4.129 12.402-6.281 22.852-6.457 11.325-0.187 19.805 1.902 25.445 6.27 4.5 3.507 6.78 8.418 6.89 14.73zm3.54-0.988c-0.13-8.586-3.52-15.981-10.15-22.172-6.62-6.191-14.83-9.207-24.592-9.043-10.059 0.168-18.36 3.488-24.883 9.934-6.543 6.457-9.727 14.199-9.582 23.211 0.148 9.117 3.515 16.718 10.09 22.812 6.582 6.09 15.019 9.055 25.3 8.883 10.517-0.176 19.037-3.899 25.557-11.168 5.66-6.313 8.41-13.797 8.26-22.457"/><path d="m1017.1 469.3-15.43 1.875 0.31 1.824c2.76-0.106 4.76 0.051 6.02 0.461 2.03 0.683 3.63 1.777 4.79 3.281 1.17 1.504 1.97 3.594 2.43 6.289l1.56 9.199-49.87 8.457c-4.015 0.684-6.594 0.672-7.734-0.019-1.555-0.996-2.539-2.754-2.969-5.293l-0.391-2.266-1.777 0.313 4.688 27.676 1.785-0.305-0.391-2.313c-0.469-2.754 0.031-4.863 1.504-6.289 0.91-0.879 3.195-1.64 6.848-2.257l49.877-8.465 1.33 7.851c0.51 3.047 0.67 5.254 0.43 6.61-0.33 1.769-1.26 3.41-2.79 4.882-1.52 1.477-3.75 2.59-6.66 3.313l0.3 1.836 15.19-3.379-9.05-53.281"/><path d="m1021 409.54-11.31 19.063 0.53 1.562 14.3-10.273zm-17.13 27.734-24.782 8.418-4.687-13.769c-1.211-3.574-1.485-6.152-0.813-7.715 0.871-2.09 3.067-3.828 6.582-5.234l-0.574-1.7-21.836 7.403 0.586 1.719c3.203-0.606 5.301-0.84 6.309-0.704 1.269 0.184 2.421 0.809 3.476 1.856 1.043 1.055 2.012 2.898 2.899 5.516l4.679 13.781-20.664 7.019c-2.773 0.95-4.504 1.399-5.187 1.348-0.692-0.047-1.309-0.313-1.875-0.809-0.555-0.488-1.141-1.601-1.727-3.332l-3.613-10.632c-1.203-3.547-1.828-6.204-1.875-7.969-0.059-1.778 0.39-3.645 1.336-5.617 1.261-2.559 3.488-5.497 6.652-8.809l-0.625-1.844-13.887 10.742 16.414 48.321 1.711-0.586-0.754-2.219c-0.496-1.473-0.625-2.996-0.359-4.57 0.156-1.153 0.664-2.078 1.531-2.762 0.871-0.684 2.825-1.555 5.871-2.59l40.743-13.836c3.959-1.347 6.559-1.777 7.749-1.289 1.61 0.684 2.86 2.324 3.73 4.91l0.77 2.219 1.69-0.578-16.4-48.309-13.965 3.965 0.605 1.805c3.524-0.477 6.035-0.527 7.539-0.164 1.493 0.371 2.832 1.211 4.004 2.539 0.879 1.074 1.844 3.164 2.91 6.289l5.837 17.187"/><path d="m961.72 332.6-19.121 8.594 0.82 1.504c5.399-1.015 9.91-0.957 13.535 0.164 5.242 1.613 9.356 5.129 12.344 10.539 4.07 7.383 4.246 14.61 0.527 21.68-3.156 5.937-8.144 10.789-14.953 14.551-5.535 3.047-11.16 4.765-16.902 5.136-5.742 0.379-10.625-0.578-14.668-2.871-4.024-2.285-7.051-5.254-9.063-8.906-1.171-2.141-2.05-4.355-2.609-6.652-0.555-2.293-0.82-4.656-0.789-7.09l16.758-9.246c2.91-1.602 4.941-2.422 6.074-2.481 1.152-0.058 2.207 0.254 3.184 0.918 0.984 0.664 2.117 2.168 3.406 4.512l1.633-0.898-12.383-22.454-1.621 0.899 0.586 1.066c1.23 2.227 1.328 4.16 0.293 5.801-0.743 1.152-2.657 2.586-5.762 4.297l-17.754 9.785c0.047 4.258 0.535 8.211 1.465 11.856 0.937 3.652 2.48 7.421 4.637 11.328 6.183 11.211 14.464 17.734 24.855 19.59 7.793 1.386 15.203 0.136 22.246-3.75 5.098-2.813 9.317-6.731 12.637-11.758 3.953-5.977 6.035-12.324 6.23-19.043 0.137-5.625-1.398-11.321-4.59-17.11-1.164-2.109-2.382-3.925-3.683-5.468-1.297-1.535-3.399-3.555-6.309-6.075-1.472-1.269-2.371-2.168-2.664-2.714-0.304-0.547-0.312-1.145-0.019-1.797 0.281-0.664 1.133-1.446 2.539-2.324l-0.879-1.583"/><path d="m938.8 268.45-4.063 21.789 1.035 1.289 9.903-14.57zm-6.543 31.945-20.364 16.426-9.14-11.328c-2.371-2.93-3.504-5.254-3.418-6.953 0.098-2.266 1.555-4.648 4.375-7.168l-1.133-1.406-17.937 14.461 1.132 1.406c2.793-1.668 4.688-2.606 5.684-2.82 1.258-0.266 2.559-0.078 3.906 0.547 1.348 0.632 2.879 2.031 4.617 4.179l9.133 11.328-16.984 13.7c-2.274 1.847-3.738 2.863-4.403 3.058-0.664 0.195-1.339 0.156-2.031-0.117-0.703-0.273-1.621-1.113-2.773-2.539l-7.051-8.731c-2.344-2.921-3.848-5.195-4.512-6.847-0.664-1.641-0.879-3.555-0.675-5.731 0.304-2.832 1.378-6.347 3.214-10.558l-1.23-1.512-9.328 14.863 32.043 39.707 1.406-1.133-1.477-1.816c-0.984-1.223-1.621-2.609-1.921-4.16-0.247-1.145-0.079-2.188 0.496-3.125 0.578-0.957 2.121-2.441 4.621-4.453l33.484-27.012c3.274-2.637 5.547-3.945 6.848-3.887 1.738 0.086 3.476 1.2 5.195 3.321l1.465 1.836 1.406-1.133-32.031-39.719-11.758 8.535 1.199 1.477c3.137-1.653 5.481-2.559 7.012-2.735 1.535-0.175 3.078 0.157 4.641 0.996 1.191 0.704 2.832 2.344 4.882 4.903l11.407 14.14"/><path d="m884.64 247.83-17.559 19.426-10.793-9.766c-2.801-2.531-4.285-4.648-4.461-6.34-0.254-2.246 0.809-4.832 3.203-7.761l-1.347-1.211-15.45 17.09 1.336 1.211c2.5-2.09 4.231-3.313 5.168-3.684 1.211-0.457 2.52-0.477 3.946-0.059 1.425 0.411 3.164 1.543 5.214 3.399l10.801 9.758-14.64 16.191c-1.961 2.176-3.25 3.418-3.875 3.711-0.618 0.293-1.29 0.359-2.032 0.195-0.722-0.156-1.777-0.84-3.125-2.07l-8.332-7.52c-2.781-2.519-4.617-4.531-5.527-6.054-0.906-1.524-1.426-3.371-1.551-5.559-0.156-2.84 0.352-6.492 1.512-10.926l-1.445-1.308-6.895 16.14 37.852 34.211 1.222-1.328-1.75-1.582c-1.16-1.047-2-2.316-2.539-3.808-0.418-1.086-0.43-2.141-8e-3 -3.164 0.43-1.016 1.719-2.735 3.875-5.118l28.84-31.914c2.82-3.117 4.871-4.758 6.153-4.914 1.738-0.183 3.632 0.656 5.664 2.481l1.738 1.574 1.211-1.34-37.863-34.219-10.262 10.266 1.406 1.289c2.852-2.129 5.02-3.398 6.504-3.809 1.484-0.41 3.066-0.324 4.727 0.262 1.296 0.508 3.164 1.867 5.605 4.074l13.477 12.176"/><path d="m800.76 205.43c-2.883-1.766-5.969-2.266-9.258-1.473-3.293 0.781-5.82 2.617-7.598 5.496-1.777 2.883-2.265 5.969-1.484 9.27 0.781 3.281 2.617 5.82 5.508 7.597 2.879 1.766 5.976 2.266 9.258 1.473 3.3-0.781 5.82-2.617 7.597-5.496 1.778-2.891 2.274-5.977 1.504-9.258-0.773-3.281-2.617-5.82-5.527-7.609"/></g></g></g></svg>
