<?xml version="1.0" encoding="UTF-8"?>
<svg id="Espace_de_travail" data-name="Espace de travail" xmlns="http://www.w3.org/2000/svg" xmlns:xlink="http://www.w3.org/1999/xlink" viewBox="0 0 170.08 141.73">
  <defs>
    <clipPath id="clippath">
      <rect x="0" y="0" width="170.08" height="141.73" style="fill: #fff; stroke-width: 0px;"/>
    </clipPath>
  </defs>
  <g>
    <rect x="0" y="0" width="170.08" height="141.73" style="fill: #fff;"/>
    <g style="clip-path: url(#clippath);">
      <rect x="0" y="0" width="170.08" height="141.73" style="fill: #fff; stroke-width: 0px;"/>
    </g>
  </g>
  <path d="M85.41,100.14h-32.77c-.86,0-1.56.73-1.56,1.63h0c0,.9.7,1.63,1.56,1.63h48.32c.86,0,1.56-.73,1.56-1.63h0c0-.9-.7-1.63-1.56-1.63h-15.56Z" style="fill: #9f352d; stroke-width: 0px;"/>
  <path d="M39.39,117.18h2c1.43,0,2.32.74,2.32,1.94,0,.79-.38,1.39-1.05,1.7l2.05,2.89h-1.56l-1.73-2.64h-.7v2.64h-1.32v-6.52ZM40.71,118.38v1.48h.75c.55,0,.89-.27.89-.75s-.34-.74-.89-.74h-.75Z" style="fill: #100c08; stroke-width: 0px;"/>
  <path d="M45.52,117.18h3.8v1.2h-2.48v1.4h2.11v1.2h-2.11v1.52h2.48v1.2h-3.8v-6.52ZM46.7,116.72l1.05-1.26h1.38l-1.21,1.26h-1.22Z" style="fill: #100c08; stroke-width: 0px;"/>
  <path d="M50.85,117.18h2.14c1.43,0,2.32.74,2.32,1.94s-.89,1.95-2.32,1.95h-.82v2.64h-1.32v-6.52ZM52.18,118.38v1.48h.89c.55,0,.89-.27.89-.75s-.34-.74-.89-.74h-.89Z" style="fill: #100c08; stroke-width: 0px;"/>
  <path d="M60.73,117.18h1.32v3.59c0,1.95-1.12,3.12-2.92,3.12s-2.93-1.17-2.93-3.12v-3.59h1.32v3.7c0,1.12.6,1.77,1.61,1.77s1.58-.65,1.58-1.77v-3.7Z" style="fill: #100c08; stroke-width: 0px;"/>
  <path d="M63.7,117.18h1.86c1.35,0,2.19.67,2.19,1.77,0,.52-.23.97-.66,1.28.66.32,1.03.88,1.03,1.56,0,1.19-.92,1.92-2.41,1.92h-2v-6.52ZM65.02,118.38v1.32h.6c.48,0,.75-.24.75-.68,0-.41-.28-.64-.75-.64h-.6ZM65.02,120.91v1.59h.74c.62,0,.98-.29.98-.79s-.36-.8-.98-.8h-.74Z" style="fill: #100c08; stroke-width: 0px;"/>
  <polygon points="69.48 117.18 70.8 117.18 70.8 122.5 73.28 122.5 73.28 123.71 69.48 123.71 69.48 117.18" style="fill: #100c08; stroke-width: 0px;"/>
  <rect x="74.44" y="117.18" width="1.32" height="6.52" style="fill: #100c08; stroke-width: 0px;"/>
  <path d="M84.39,124.02c.15,0,.33-.02.48-.07v1.12c-.21.08-.41.11-.69.11-.75,0-1.42-.32-2.12-.86l-.69-.54c-.28.08-.59.11-.9.11-2.07,0-3.47-1.58-3.47-3.45s1.4-3.45,3.47-3.45,3.46,1.58,3.46,3.45c0,1.08-.47,2.07-1.27,2.7l.31.25c.54.43,1,.62,1.42.62M82.55,120.44c0-1.25-.88-2.21-2.09-2.21s-2.1.97-2.1,2.21.88,2.21,2.1,2.21,2.09-.97,2.09-2.21" style="fill: #100c08; stroke-width: 0px;"/>
  <path d="M89.58,117.18h1.32v3.59c0,1.95-1.12,3.12-2.92,3.12s-2.93-1.17-2.93-3.12v-3.59h1.32v3.7c0,1.12.6,1.77,1.61,1.77s1.59-.65,1.59-1.77v-3.7Z" style="fill: #100c08; stroke-width: 0px;"/>
  <polygon points="92.55 117.18 96.35 117.18 96.35 118.38 93.87 118.38 93.87 119.78 95.97 119.78 95.97 120.98 93.87 120.98 93.87 122.5 96.35 122.5 96.35 123.71 92.55 123.71 92.55 117.18" style="fill: #100c08; stroke-width: 0px;"/>
  <polygon points="100.27 117.18 104.07 117.18 104.07 118.38 101.59 118.38 101.59 119.78 103.7 119.78 103.7 120.98 101.59 120.98 101.59 123.71 100.27 123.71 100.27 117.18" style="fill: #100c08; stroke-width: 0px;"/>
  <path d="M105.23,117.18h2c1.44,0,2.32.74,2.32,1.94,0,.79-.38,1.39-1.05,1.7l2.05,2.89h-1.57l-1.73-2.64h-.7v2.64h-1.32v-6.52ZM106.55,118.38v1.48h.75c.55,0,.89-.27.89-.75s-.33-.74-.89-.74h-.75Z" style="fill: #100c08; stroke-width: 0px;"/>
  <path d="M113.01,117.18h1.73l2.48,6.52h-1.41l-.62-1.71h-2.63l-.62,1.71h-1.41l2.48-6.52ZM114.78,120.88l-.9-2.46-.9,2.46h1.81Z" style="fill: #100c08; stroke-width: 0px;"/>
  <polygon points="118.22 117.18 119.92 117.18 122.84 121.85 122.84 117.18 124.16 117.18 124.16 123.71 122.46 123.71 119.55 119.02 119.55 123.71 118.22 123.71 118.22 117.18" style="fill: #100c08; stroke-width: 0px;"/>
  <path d="M130.6,121.76l1.05.81c-.53.7-1.33,1.18-2.33,1.3l-.79,1.33h-1.18l.82-1.37c-1.66-.33-2.74-1.74-2.74-3.38,0-1.86,1.4-3.45,3.46-3.45,1.19,0,2.16.52,2.77,1.33l-1.05.8c-.36-.52-.95-.9-1.7-.9-1.23,0-2.11.97-2.11,2.21s.88,2.21,2.11,2.21c.74,0,1.33-.37,1.7-.89" style="fill: #100c08; stroke-width: 0px;"/>
  <path d="M134.49,117.18h1.73l2.48,6.52h-1.41l-.62-1.71h-2.63l-.62,1.71h-1.41l2.48-6.52ZM136.26,120.88l-.9-2.46-.9,2.46h1.81Z" style="fill: #100c08; stroke-width: 0px;"/>
  <rect x="139.7" y="117.18" width="1.32" height="6.52" style="fill: #100c08; stroke-width: 0px;"/>
  <path d="M143.22,121.91c.39.51.91.81,1.44.81s.84-.29.84-.75c0-1.18-2.96-.93-2.96-3.09,0-1.03.86-1.88,2.09-1.88.98,0,1.72.43,2.27,1.08l-.96.9c-.37-.49-.81-.81-1.3-.81-.47,0-.76.28-.76.66,0,1.16,2.96.9,2.96,3.11-.02,1.21-.97,1.96-2.16,1.96-1.11,0-1.84-.41-2.42-1.1l.96-.89Z" style="fill: #100c08; stroke-width: 0px;"/>
  <polygon points="148.24 117.18 152.04 117.18 152.04 118.38 149.56 118.38 149.56 119.78 151.67 119.78 151.67 120.98 149.56 120.98 149.56 122.5 152.04 122.5 152.04 123.71 148.24 123.71 148.24 117.18" style="fill: #100c08; stroke-width: 0px;"/>
  <path d="M26.29,122.08s-.01,0-.02.01c0,0,.02,0,.02-.01" style="fill: #273371; stroke-width: 0px;"/>
  <path d="M25.53,122.92c.07-.07.14-.15.21-.22h0c.13-.15.26-.29.41-.42.05-.04.09-.08.14-.11.01-.01.01-.04.02-.05-.06.03-.1.08-.16.1-.01,0-.02-.01-.01-.02.04-.03.09-.07.13-.1h0s-.01-.01-.01-.02c-.16-.03-.28.09-.4.19-.02.01-.05-.01-.06-.01-.19.06-.32.22-.51.3v-.02c-.07.02-.15.07-.22.09-.11.02-.21.01-.31.01-.15.02-.3.05-.45.08,0,0,0,0-.01,0-.08.02-.16.05-.23.09h0s-.01.02-.02.03c-.03.03-.05.06-.08.07-.08.04-.14.11-.2.16,0,0-.01,0-.02,0-.07.06-.13.13-.2.19,0,0-.02,0-.04,0,0,0,0,0,0,0,0,0,0,0,0-.01,0-.02.02-.03.03-.05.01-.02.02-.04.04-.06.02-.03.03-.05.05-.07,0,0,0-.01,0-.02,0,0,0,0-.02,0,.06-.06.13-.11.21-.16h0s-.02,0-.01-.01c0-.01.01-.02.02-.03,0,0,0,0,0-.01,0,0,0,0,0,0-.02.01-.04.03-.06.04-.03.03-.05.08-.1.08,0,0-.01,0-.02,0,0,0,0,0-.01,0,0,0,0,0,0,0,0,0,0,0,0,0,0,0,0,0,0,0h0s0-.02,0-.02c0,0,0,0,0,0,0,0,0,0,0-.02,0,0,0,0,0-.01l.02-.03s0,0,0-.01c0,0,0-.02.01-.02,0,0,0-.02,0-.02.02-.03.05-.05.08-.07h0s.1-.05.14-.08c0,0,.01-.01.02-.02-.07.02-.13.06-.2.1,0,0-.02,0-.02.01,0,0-.01,0-.03-.01,0,0,0,0,0,0,.01-.02.05-.04.07-.06.01,0,.02,0,.02.01.4-.31.94-.23,1.4-.4.04-.02.07-.05.11-.07.06-.02.11-.09.19-.12.1-.07.17-.16.21-.28,0-.01-.01-.02-.01-.02-.16.17-.35.31-.54.41-.26.14-.54.11-.82.15.01-.02.04-.02.06-.02,0-.04.02-.05.05-.07h.04s.01-.03.02-.03c.02,0,.06-.01.05-.01-.04-.05-.11.04-.17,0,.02-.02.01-.06.04-.07h.05s.02-.05.02-.05c.19-.11.36-.2.53-.3-.04,0-.06.04-.1.01.03,0,0-.04.03-.04.14-.04.25-.11.38-.16-.05,0-.09.04-.14,0,.03-.01.04-.04.07-.04v-.04s.01-.01.03-.01c-.01,0-.03-.01-.03-.01.01-.02.05-.01.07-.04-.01,0-.04,0-.04-.01.04-.05.1-.06.16-.07-.01-.02-.05,0-.05-.02,0-.01.01-.01.03-.01h-.03s-.01-.04-.01-.05c.07-.09.07-.2.11-.3-.01,0-.03,0-.03-.01-.12.14-.32.19-.51.23h-.06c-.06.02-.15.02-.21-.01-.05-.02-.07-.06-.12-.1-.1-.06-.2-.11-.31-.15-.31-.1-.63-.15-.95-.14.14-.07.29-.08.43-.12.21-.06.41-.14.63-.12-.04-.01-.09,0-.12,0-.17-.01-.35.04-.53.07-.12.02-.23.07-.36.1-.07.02-.11.1-.2.09v-.04c.12-.15.27-.3.47-.31.22-.04.43,0,.65.02.16.01.31.05.47.09.06,0,.07.1.12.11.07.02.15,0,.22.05,0-.03-.01-.05,0-.07.05-.05.11.01.16-.01.1-.06-.09-.17-.14-.26,0-.01.01-.02.01-.02.1.09.17.19.3.25.06.02.21.06.19-.01-.06-.14-.19-.25-.28-.37v-.05s-.02-.01-.04-.02v-.05s-.04-.07-.06-.11c-.04-.06-.01-.15-.04-.22-.03-.07-.04-.14-.05-.21-.04-.21-.09-.4-.11-.59-.02-.23.14-.42.25-.63.09-.15.19-.3.35-.4.04-.15.14-.27.23-.4.1-.12.26-.19.38-.25.17-.08.33-.13.33-.13h-8.54v6.54h6.06c.23-.17.47-.25.8-.41.15-.08.51-.24.63-.36M23.63,122.03s-.07.01-.06-.01c.01-.06.1-.06.15-.09.02-.01.06-.04.09-.02.02.04.06.02.09.05-.07.07-.17.04-.26.07M21.74,121.76s-.01-.01-.01-.02c.16-.21.28-.41.4-.63.16-.09.29-.21.42-.35.21-.22.43-.42.69-.54.1-.04.22-.02.32.01-.04.05-.1.04-.15.07-.01,0-.02,0-.04-.01.01-.01.01-.02.01-.04-.12.14-.3.2-.4.36-.07.12-.12.28-.28.32-.05.01.01-.04-.01-.02-.38.23-.65.52-.95.85M22.77,120.95s-.03.03-.04.05c-.01.03-.02.04-.05.05-.01,0-.02,0-.02-.01.01-.05.05-.1.1-.11.01,0,.01.01.01.03M23.34,122.8s-.02.03-.03.04c.01,0,.03,0,.02.02-.03.03-.06.05-.09.07,0,0,0,0-.02,0-.01.02-.03.03-.05.04-.01.01-.08,0-.06-.01.03-.03.06-.06.09-.09.02-.02.04-.03.05-.05,0,0,.02-.02.03-.03,0,0,.08-.01.07.01M23.12,122.7s0,0,0,0c-.05.03-.09.07-.14.1-.05.03-.11.05-.16.08,0,0,0,0,0,0,0,0-.01,0-.02,0-.05.02-.09.06-.12.09,0,0-.01.01-.02.02,0,0,0,0,0,0t0,0s-.01.01-.02.02c0,0,0,0,0,0,0,0,0,0,0,0,0,0-.02.02-.03.03,0,0,0,.01-.02.02s-.03,0-.03,0h0s-.01,0-.02,0c0,0-.01,0-.02.01,0,0,0,0,0,0,0,0,0,0,0,0-.01.01-.03.02-.04.04-.03.02-.05.05-.07.08t0,0h0s0,0,0,0c0,0,0,0,0,0h0s0,0,0,.01h0s0,0-.01,0c0,0,0,0,0,0,0,0,0,0,0,0,0,0,0-.01,0-.02h0s0,0,0,0c.01-.01.03-.03.04-.04h0s0-.01.01-.02l.02-.03s0,0,0,0c.01-.02.03-.03.04-.05,0,0,0,0,0,0,0,0,0,0,0,0,0,0,.01-.02.02-.03,0,0,0-.02.01-.03h0s0,0,0,0c0,0,0,0,0,0,0,0,0-.02.01-.03t0,0s0,0,0,0c0,0,0,0,0-.01,0,0,0,0,0,0,0,0,0-.01,0-.02,0,0,0,0,0,0,.01-.02.03-.05.05-.07,0,0,0,0,0,0-.02.01-.03.03-.05.04-.01,0-.04,0-.02-.02.01,0,.02-.02.03-.03,0,0,0,0,0,0,.02-.02.04-.05.06-.06.01,0,.03-.02.04-.03,0,0,0,0,0,0,0-.01.02-.02.03-.03,0,0,0,0,0,0,.12-.11.32-.11.47-.18.06-.02.14.01.2,0,.04,0,.07,0,.11.02-.11.06-.21.13-.31.19M23.37,121.84s.04,0,.05-.02h-.1s-.01-.01-.01-.03c-.06.01-.14.04-.2.05-.09.02-.16.09-.26.11-.14.05-.25.16-.4.21-.01,0-.01-.01-.01-.02.01-.04.06-.05.09-.09,0-.01,0-.02-.01-.02.1-.14.23-.21.36-.32v-.04s.1-.07.12-.14c.01-.04.06-.09.12-.11-.01-.01-.04-.01-.04-.04-.05,0-.1.02-.15-.01.02-.02.05-.04.08-.04,0,0-.02,0-.03-.02-.01-.02.02-.05.06-.06.05-.01.11-.01.15-.05-.09-.01-.19.02-.27-.02.06-.16.16-.3.31-.37.01,0,.04,0,.04.01,0,.06-.04.11-.1.12.1.02.2.02.3.07-.01.02-.04.01-.05.01.06.04.14.01.2.06-.04.04-.07,0-.11,0,.38.11.79.2,1.11.44-.27.14-.56.2-.85.26-.04,0-.06,0-.1-.01,0,.01,0,.04-.01.04-.05,0-.09,0-.12.02-.05.02-.12.04-.16,0" style="fill: #273375; stroke-width: 0px;"/>
  <path d="M36.08,117.15h-7.04s.01,0,.07.03c.06.03.13.07.18.1.09.05.18.11.23.2.03.04.06.11.04.16-.02.06-.04.16-.1.19-.07.04-.17.04-.26.03-.05,0-.1-.01-.15-.03.19.07.36.16.48.33.01.03.06.04.11.04.01,0,.01.03.01.04-.02.03-.05.04-.04.08h.04c.06-.03.05-.15.14-.11.06.04.09.12.05.19-.05.05-.1.09-.15.12-.01.03-.01.06,0,.09.04.05.05.1.06.15.04.09.05.19.09.27.05.19.1.37.09.56,0,.1-.05.19-.01.28.02.1.09.17.14.26.05.07.1.12.14.2.07.12.21.25.15.4-.04.09-.17.07-.26.12-.07.06-.01.16.02.22.06.11-.07.19-.16.22.02.04.07.02.09.05.01.06.07.1.04.16-.05.07-.2.11-.12.22.05.09.02.18-.01.27-.04.11-.14.16-.22.19-.07.02-.16.02-.23.01-.03-.01-.05-.02-.07-.02-.21-.03-.42-.09-.63-.09-.06.01-.12.02-.17.05-.06.04-.11.09-.15.13,0,0,0,0,0,0,0,.01-.02.02-.03.03,0,0-.01.01-.02.02,0,0,0,0-.01.01-.04.04-.07.09-.1.14,0,0,0,0,0,0,0,0,0,.01,0,.02-.04.08-.07.15-.09.23-.08.28-.05.53.01.59.02.02.41.14.68.26.13.06.22.1.29.15h6.91v-6.54Z" style="fill: #e30613; stroke-width: 0px;"/>
  <path d="M29.47,119.54s.12.01.12.04c-.03.1-.17.12-.25.22h-.04s-.02.09-.06.09c-.04-.01-.07,0-.11.01.05.05.11.09.19.07.01,0,.04.02.04.05,0,0,.01,0,.02-.01.01,0,.03,0,.03.01v.05s-.1.02-.15.04c.1.02.2.02.28,0,.07-.02,0-.15.05-.21-.03,0,0-.04-.03-.04.03-.02.05-.06.07-.07.03,0,.06-.01.07-.04,0-.02-.05-.04-.04-.06.07-.05.14-.12.11-.2-.01-.04-.11-.04-.17-.06-.06-.02-.14,0-.21.01-.06,0-.12.04-.19.05-.09.03-.16.07-.23.12.09-.04.17-.05.27-.07.07,0,.14-.02.21,0" style="fill: gray; stroke-width: 0px;"/>
  <g>
    <path d="M90.84,63.62c0,7.35-3.01,12.95-9.45,12.95s-9.45-5.6-9.45-12.95,3.01-12.95,9.45-12.95,9.45,5.6,9.45,12.95ZM76.77,63.62c0,5.18,1.51,8.58,4.62,8.58s4.59-3.43,4.59-8.58-1.5-8.58-4.59-8.58-4.62,3.43-4.62,8.58Z" style="fill: #1e1e1c; stroke-width: 0px;"/>
    <path d="M92.63,73.25c0-1.65,1.37-3.04,3.08-3.04s3.08,1.4,3.08,3.04-1.44,3.05-3.08,3.05-3.08-1.37-3.08-3.05Z" style="fill: #1e1e1c; stroke-width: 0px;"/>
    <path d="M101.55,72.58l3.64-3.01c1.26,1.68,2.7,2.73,4.66,2.73,3.54,0,5.39-2.56,5.71-7.39-1.58,1.4-3.57,2.17-5.99,2.17-4.87,0-7.95-3.47-7.95-7.95s3.33-8.47,8.93-8.47c6.37,0,9.91,4.66,9.91,12.85,0,7.63-3.15,13.06-10.68,13.06-4.06,0-6.65-1.86-8.23-3.99ZM110.44,62.89c2,0,3.78-.81,4.97-2.42-.56-3.99-2.27-5.53-4.8-5.53s-4.13,1.72-4.13,4.03,1.61,3.92,3.96,3.92Z" style="fill: #1e1e1c; stroke-width: 0px;"/>
  </g>
  <g>
    <path d="M106.63,104.06v-5.6h1.58c.59,0,1.05.15,1.38.44.34.29.51.68.51,1.18,0,.69-.31,1.17-.92,1.43l1.77,2.55h-1.09l-1.56-2.37h-.77v2.37h-.91ZM108.26,99.24h-.72v1.68h.72c.28,0,.5-.08.66-.23.16-.15.24-.36.24-.63s-.08-.46-.24-.6c-.16-.15-.38-.22-.66-.22Z" style="fill: #1e1e1c; stroke-width: 0px;"/>
    <path d="M115.25,103.41c-.4.54-.98.82-1.74.82-.67,0-1.21-.21-1.61-.63-.4-.42-.6-.93-.6-1.55s.18-1.14.55-1.56c.37-.41.87-.62,1.49-.62.55,0,.99.17,1.32.5.34.34.5.76.5,1.28,0,.19-.02.35-.06.49h-2.97c.03.43.16.76.41.99.24.23.56.34.96.34.49,0,.87-.18,1.14-.55l.6.48ZM113.32,100.56c-.3,0-.55.08-.75.25s-.33.41-.4.72h2.16c-.01-.27-.11-.49-.29-.68-.18-.19-.43-.28-.73-.28ZM113.78,99.39h-.8l.83-1.33h.91l-.94,1.33Z" style="fill: #1e1e1c; stroke-width: 0px;"/>
    <path d="M116.23,106.03v-6h.82v.42c.36-.38.81-.58,1.36-.58.61,0,1.11.21,1.48.63.38.42.57.94.57,1.54s-.19,1.12-.57,1.54-.87.63-1.48.63c-.55,0-1-.19-1.36-.58v2.38h-.82ZM118.31,100.65c-.54,0-.96.23-1.25.69v1.42c.3.46.72.69,1.25.69.38,0,.69-.13.93-.4s.36-.6.36-1-.12-.73-.36-1c-.24-.27-.55-.4-.93-.4Z" style="fill: #1e1e1c; stroke-width: 0px;"/>
    <path d="M122.5,104.18c-.4,0-.72-.11-.97-.32s-.37-.5-.37-.85c0-.3.11-.56.34-.77.23-.21.56-.35.98-.42l1.3-.22v-.21c0-.25-.08-.44-.25-.58-.17-.14-.38-.22-.64-.22-.43,0-.76.18-1.01.53l-.61-.47c.39-.52.94-.78,1.65-.78.53,0,.95.14,1.24.42s.44.65.44,1.1v2.66h-.82v-.46c-.14.18-.33.32-.56.42-.23.1-.47.16-.72.16ZM121.99,102.98c0,.16.06.29.18.38.12.1.28.14.48.14.49,0,.87-.21,1.13-.62v-.7l-1.09.18c-.47.09-.71.29-.71.61Z" style="fill: #1e1e1c; stroke-width: 0px;"/>
    <path d="M125.89,104.06v-4.03h.82v.46c.32-.36.69-.54,1.13-.54.11,0,.23.02.35.06v.81c-.15-.04-.29-.06-.42-.06-.45,0-.8.21-1.05.62v2.69h-.82Z" style="fill: #1e1e1c; stroke-width: 0px;"/>
    <path d="M130.01,104.18c-.4,0-.72-.11-.97-.32s-.37-.5-.37-.85c0-.3.11-.56.34-.77.23-.21.56-.35.98-.42l1.3-.22v-.21c0-.25-.08-.44-.25-.58-.17-.14-.38-.22-.64-.22-.43,0-.76.18-1.01.53l-.61-.47c.39-.52.94-.78,1.65-.78.53,0,.95.14,1.24.42s.44.65.44,1.1v2.66h-.82v-.46c-.14.18-.33.32-.56.42-.23.1-.47.16-.72.16ZM129.49,102.98c0,.16.06.29.18.38.12.1.28.14.48.14.49,0,.87-.21,1.13-.62v-.7l-1.09.18c-.47.09-.71.29-.71.61Z" style="fill: #1e1e1c; stroke-width: 0px;"/>
    <path d="M137.05,100.5c.38.42.57.94.57,1.54s-.19,1.12-.57,1.54-.87.63-1.48.63c-.55,0-1-.19-1.36-.58v.42h-.82v-6h.82v2.38c.36-.38.81-.58,1.36-.58.61,0,1.11.21,1.48.63ZM135.47,100.65c-.54,0-.96.23-1.25.68v1.44c.3.45.72.68,1.25.68.38,0,.69-.13.93-.4s.36-.6.36-1-.12-.73-.36-1c-.24-.27-.55-.4-.93-.4Z" style="fill: #1e1e1c; stroke-width: 0px;"/>
    <path d="M139.45,98.97c-.11.11-.24.17-.39.17s-.28-.06-.39-.17c-.11-.11-.17-.24-.17-.39s.06-.28.17-.39.24-.17.39-.17.28.06.39.17.17.24.17.39-.06.28-.17.39ZM138.64,104.06v-4.03h.82v4.03h-.82Z" style="fill: #1e1e1c; stroke-width: 0px;"/>
    <path d="M140.8,104.06v-6h.82v6h-.82Z" style="fill: #1e1e1c; stroke-width: 0px;"/>
    <path d="M143.76,98.97c-.11.11-.24.17-.39.17s-.28-.06-.39-.17c-.11-.11-.17-.24-.17-.39s.06-.28.17-.39.24-.17.39-.17.28.06.39.17.17.24.17.39-.06.28-.17.39ZM142.95,104.06v-4.03h.82v4.03h-.82Z" style="fill: #1e1e1c; stroke-width: 0px;"/>
    <path d="M145.35,102.66v-1.89h-.76v-.74h.76v-1.01h.83v1.01h1.33v.74h-1.33v1.89c0,.48.24.72.73.72.25,0,.45-.03.6-.09v.73c-.19.08-.43.12-.73.12-.96,0-1.44-.49-1.44-1.48Z" style="fill: #1e1e1c; stroke-width: 0px;"/>
    <path d="M152.04,103.41c-.4.54-.98.82-1.74.82-.67,0-1.21-.21-1.61-.63-.4-.42-.6-.93-.6-1.55s.18-1.14.55-1.56c.37-.41.87-.62,1.49-.62.55,0,.99.17,1.32.5.34.34.5.76.5,1.28,0,.19-.02.35-.06.49h-2.97c.03.43.16.76.41.99.24.23.56.34.96.34.49,0,.87-.18,1.14-.55l.6.48ZM150.11,100.56c-.3,0-.55.08-.75.25s-.33.41-.4.72h2.16c-.01-.27-.11-.49-.29-.68-.18-.19-.43-.28-.73-.28ZM150.58,99.39h-.8l.83-1.33h.91l-.94,1.33Z" style="fill: #1e1e1c; stroke-width: 0px;"/>
  </g>
  <g>
    <path d="M18.04,104.06v-5.6h3.11v.78h-2.2v1.58h1.88v.78h-1.88v2.46h-.91Z" style="fill: #1e1e1c; stroke-width: 0px;"/>
    <path d="M22.9,98.97c-.11.11-.24.17-.39.17s-.28-.06-.39-.17c-.11-.11-.17-.24-.17-.39s.06-.28.17-.39.24-.17.39-.17.28.06.39.17.17.24.17.39-.06.28-.17.39ZM22.09,104.06v-4.03h.82v4.03h-.82Z" style="fill: #1e1e1c; stroke-width: 0px;"/>
    <path d="M25.35,104.18c-.4,0-.72-.11-.97-.32s-.37-.5-.37-.85c0-.3.11-.56.34-.77.23-.21.56-.35.98-.42l1.3-.22v-.21c0-.25-.08-.44-.25-.58-.17-.14-.38-.22-.64-.22-.43,0-.76.18-1.01.53l-.61-.47c.39-.52.94-.78,1.65-.78.53,0,.95.14,1.24.42s.44.65.44,1.1v2.66h-.82v-.46c-.14.18-.33.32-.56.42-.23.1-.47.16-.72.16ZM24.84,102.98c0,.16.06.29.18.38.12.1.28.14.48.14.49,0,.87-.21,1.13-.62v-.7l-1.09.18c-.47.09-.71.29-.71.61Z" style="fill: #1e1e1c; stroke-width: 0px;"/>
    <path d="M32.4,100.5c.38.42.57.94.57,1.54s-.19,1.12-.57,1.54-.87.63-1.48.63c-.55,0-1-.19-1.36-.58v.42h-.82v-6h.82v2.38c.36-.38.81-.58,1.36-.58.61,0,1.11.21,1.48.63ZM30.81,100.65c-.54,0-.96.23-1.25.68v1.44c.3.45.72.68,1.25.68.38,0,.69-.13.93-.4s.36-.6.36-1-.12-.73-.36-1c-.24-.27-.55-.4-.93-.4Z" style="fill: #1e1e1c; stroke-width: 0px;"/>
    <path d="M34.8,98.97c-.11.11-.24.17-.39.17s-.28-.06-.39-.17c-.11-.11-.17-.24-.17-.39s.06-.28.17-.39.24-.17.39-.17.28.06.39.17.17.24.17.39-.06.28-.17.39ZM33.99,104.06v-4.03h.82v4.03h-.82Z" style="fill: #1e1e1c; stroke-width: 0px;"/>
    <path d="M36.15,104.06v-6h.82v6h-.82Z" style="fill: #1e1e1c; stroke-width: 0px;"/>
    <path d="M39.11,98.97c-.11.11-.24.17-.39.17s-.28-.06-.39-.17c-.11-.11-.17-.24-.17-.39s.06-.28.17-.39.24-.17.39-.17.28.06.39.17.17.24.17.39-.06.28-.17.39ZM38.3,104.06v-4.03h.82v4.03h-.82Z" style="fill: #1e1e1c; stroke-width: 0px;"/>
    <path d="M40.7,102.66v-1.89h-.76v-.74h.76v-1.01h.83v1.01h1.33v.74h-1.33v1.89c0,.48.24.72.73.72.25,0,.45-.03.6-.09v.73c-.19.08-.43.12-.73.12-.96,0-1.44-.49-1.44-1.48Z" style="fill: #1e1e1c; stroke-width: 0px;"/>
    <path d="M47.39,103.41c-.4.54-.98.82-1.74.82-.67,0-1.21-.21-1.61-.63-.4-.42-.6-.93-.6-1.55s.18-1.14.55-1.56c.37-.41.87-.62,1.49-.62.55,0,.99.17,1.32.5.34.34.5.76.5,1.28,0,.19-.02.35-.06.49h-2.97c.03.43.16.76.41.99.24.23.56.34.96.34.49,0,.87-.18,1.14-.55l.6.48ZM45.46,100.56c-.3,0-.55.08-.75.25s-.33.41-.4.72h2.16c-.01-.27-.11-.49-.29-.68-.18-.19-.43-.28-.73-.28ZM45.93,99.39h-.8l.83-1.33h.91l-.94,1.33Z" style="fill: #1e1e1c; stroke-width: 0px;"/>
  </g>
  <g>
    <g>
      <path d="M133.3,75.42v-9.45l-2.87,1.55-.71-.99,3.57-1.97h1.4v10.87h-1.38Z" style="fill: #1e1e1c; stroke-width: 0px;"/>
      <path d="M141.43,64.24c1.31,0,2.32.53,3.02,1.6s1.05,2.45,1.05,4.15-.35,3.08-1.05,4.15-1.71,1.6-3.02,1.6-2.3-.54-3-1.61c-.7-1.07-1.05-2.45-1.05-4.14s.35-3.07,1.05-4.14,1.7-1.61,3-1.61ZM143.38,66.77c-.45-.82-1.09-1.23-1.93-1.23s-1.49.41-1.95,1.23c-.46.82-.69,1.89-.69,3.21s.23,2.4.69,3.21c.46.82,1.11,1.23,1.95,1.23s1.48-.41,1.93-1.23.68-1.89.68-3.21-.23-2.4-.68-3.21Z" style="fill: #1e1e1c; stroke-width: 0px;"/>
    </g>
    <path d="M123.13,75.62l2.75-10.76h.98l-2.75,10.76h-.98Z" style="fill: #1e1e1c; stroke-width: 0px;"/>
  </g>
  <g>
    <path d="M42.93,61.33c1.33-.07,3.2-1.43,3.2-1.43,2.02-1.55,3.33-3.1,4.13-4.19,1.11-1.52,1.48-2.48,1.61-2.86.47-1.32.51-2.41.54-3.41.02-.7,0-1.64-.18-2.73h0v-.06c-.08-.4-.16-.82-.27-1.25l-.07-.27h-18.33l-.28,1.59c-.12.85-.18,1.8-.17,2.89,0,.33.02.67.07,1.11.04.31.44,2.29,1.37,3.96,1.64,2.96,5.07,5.17,5.44,5.4,0,0,1.97,1.32,2.93,1.26Z" style="fill: #9f352d; stroke-width: 0px;"/>
    <path d="M33.17,77.49c-.02.7,0,1.64.18,2.73h0v.06c.08.4.16.82.27,1.25l.07.27h18.33l.28-1.59c.12-.85.18-1.8.17-2.89,0-.17,0-.35-.02-.54h-19.25c-.01.24-.02.47-.03.7Z" style="fill: #9f352d; stroke-width: 0px;"/>
    <path d="M147.79,35.52H22.29c-2.35,0-4.25,1.9-4.25,4.25v47.45c0,2.35,1.9,4.25,4.25,4.25h125.49c2.35,0,4.25-1.9,4.25-4.25v-47.45c0-2.35-1.9-4.25-4.25-4.25ZM54.61,84.14c-.19.46-.69.59-.93.73-4.62,0-9.23,0-13.85,0-2.24,0-4.84,0-7.19,0-.73,0-1.4-.44-1.66-1.13,0,0,0,0,0-.01-.21-.54-.89-3.52-1.03-5.98-.22-3.7,1.77-6.71,3.08-8.44,1.71-2.28,3.73-3.96,4.95-4.87,1.4-1.12.19-1.8.19-1.8-3.08-2.27-8.18-6.97-8.23-13.22-.02-2.69.33-4.85,1.07-6.61.19-.46.69-.59.93-.73,4.62,0,9.23,0,13.85,0,2.24,0,4.84,0,7.19,0,.73,0,1.4.44,1.66,1.13,0,0,0,0,0,.01.21.54.89,3.52,1.03,5.98.22,3.7-1.77,6.71-3.08,8.44-1.71,2.28-6.13,5.82-4.95,4.87-1.25,1.01-.19,1.8-.19,1.8,3.08,2.27,8.18,6.97,8.23,13.22.02,2.69-.33,4.85-1.07,6.61ZM148.77,85.33c0,1.59-1.29,2.88-2.88,2.88h-75.46c-1.59,0-2.88-1.29-2.88-2.88v-43.67c0-1.59,1.29-2.88,2.88-2.88h75.46c1.59,0,2.88,1.29,2.88,2.88v43.67Z" style="fill: #9f352d; stroke-width: 0px;"/>
  </g>
  <g>
    <path d="M18.04,28.98v-10.1h1.35v10.1h-1.35Z" style="fill: #1e1e1c; stroke-width: 0px;"/>
    <path d="M22.29,28.98v-7.27h1.22v.82c.67-.74,1.48-1.11,2.42-1.11.84,0,1.53.28,2.05.83.52.55.78,1.33.78,2.33v4.4h-1.22v-4.36c0-.64-.17-1.15-.5-1.51-.34-.36-.79-.54-1.35-.54-.9,0-1.63.46-2.17,1.37v5.04h-1.22Z" style="fill: #1e1e1c; stroke-width: 0px;"/>
    <path d="M31.65,28.13c-.69-.76-1.04-1.69-1.04-2.78s.35-2.02,1.04-2.78,1.59-1.14,2.69-1.14c1.04,0,1.9.38,2.58,1.15v-4.41h1.22v10.82h-1.22v-.87c-.68.77-1.54,1.15-2.58,1.15-1.1,0-2-.38-2.69-1.14ZM32.63,23.37c-.48.53-.72,1.19-.72,1.98s.24,1.45.72,1.98c.48.53,1.1.79,1.86.79.51,0,.97-.12,1.4-.35s.77-.56,1.04-.99v-2.86c-.58-.89-1.39-1.34-2.43-1.34-.76,0-1.38.26-1.86.79Z" style="fill: #1e1e1c; stroke-width: 0px;"/>
    <path d="M41.94,19.56c-.16.17-.36.25-.61.25s-.44-.08-.61-.25c-.17-.17-.25-.37-.25-.61s.08-.43.25-.6.37-.25.61-.25.44.08.61.25c.16.17.24.37.24.6s-.08.45-.24.61ZM40.72,28.98v-7.27h1.22v7.27h-1.22Z" style="fill: #1e1e1c; stroke-width: 0px;"/>
    <path d="M47.88,28.11c.88,0,1.57-.36,2.07-1.07l.96.74c-.74.99-1.76,1.49-3.05,1.49-1.17,0-2.12-.38-2.85-1.14-.73-.76-1.09-1.69-1.09-2.78s.36-2.02,1.09-2.78c.73-.76,1.68-1.14,2.85-1.14,1.29,0,2.3.5,3.05,1.49l-.96.74c-.5-.71-1.2-1.07-2.09-1.07-.77,0-1.4.27-1.91.8-.5.53-.76,1.19-.76,1.97s.25,1.45.76,1.98c.5.53,1.14.79,1.92.79Z" style="fill: #1e1e1c; stroke-width: 0px;"/>
    <path d="M58.76,27.78c-.74.99-1.78,1.49-3.11,1.49-1.19,0-2.15-.38-2.87-1.14-.73-.76-1.09-1.69-1.09-2.78s.33-2.06,1-2.81,1.55-1.12,2.66-1.12c.97,0,1.75.3,2.35.9s.9,1.36.9,2.27c0,.24-.03.5-.09.76h-5.57c.02.87.28,1.55.78,2.05s1.14.75,1.93.75c.94,0,1.67-.36,2.2-1.08l.91.71ZM55.32,22.46c-.59,0-1.09.17-1.5.51-.4.34-.67.82-.79,1.45h4.35c-.02-.56-.21-1.02-.58-1.4-.37-.37-.86-.56-1.48-.56Z" style="fill: #1e1e1c; stroke-width: 0px;"/>
    <path d="M64.98,28.13c-.69-.76-1.04-1.69-1.04-2.78s.35-2.02,1.04-2.78,1.59-1.14,2.69-1.14c1.04,0,1.9.38,2.58,1.15v-4.41h1.22v10.82h-1.22v-.87c-.68.77-1.54,1.15-2.58,1.15-1.1,0-2-.38-2.69-1.14ZM65.96,23.37c-.48.53-.72,1.19-.72,1.98s.24,1.45.72,1.98c.48.53,1.1.79,1.86.79.51,0,.97-.12,1.4-.35s.77-.56,1.04-.99v-2.86c-.58-.89-1.39-1.34-2.43-1.34-.76,0-1.38.26-1.86.79Z" style="fill: #1e1e1c; stroke-width: 0px;"/>
    <path d="M80.5,27.78c-.74.99-1.78,1.49-3.11,1.49-1.19,0-2.15-.38-2.87-1.14-.73-.76-1.09-1.69-1.09-2.78s.33-2.06,1-2.81,1.55-1.12,2.66-1.12c.97,0,1.75.3,2.35.9s.9,1.36.9,2.27c0,.24-.03.5-.09.76h-5.57c.02.87.28,1.55.78,2.05s1.14.75,1.93.75c.94,0,1.67-.36,2.2-1.08l.91.71ZM77.06,22.46c-.59,0-1.09.17-1.5.51-.4.34-.67.82-.79,1.45h4.35c-.02-.56-.21-1.02-.58-1.4-.37-.37-.86-.56-1.48-.56Z" style="fill: #1e1e1c; stroke-width: 0px;"/>
    <path d="M86.6,28.13c-.67-.76-1.01-1.69-1.01-2.78s.34-2.02,1.01-2.78c.67-.76,1.56-1.14,2.68-1.14.92,0,1.67.29,2.25.87v-4.13h1.84v10.82h-1.84v-.58c-.58.58-1.32.87-2.25.87-1.11,0-2.01-.38-2.68-1.14ZM88.06,23.76c-.37.41-.55.94-.55,1.58s.18,1.17.55,1.58.86.61,1.48.61c.83,0,1.49-.34,1.99-1.01v-2.37c-.5-.67-1.16-1.01-1.99-1.01-.61,0-1.11.2-1.48.61Z" style="fill: #1e1e1c; stroke-width: 0px;"/>
    <path d="M100.33,25.83v-4.13h1.84v4.04c0,1.1-.3,1.96-.9,2.58-.6.63-1.43.94-2.5.94s-1.9-.31-2.49-.94c-.6-.63-.89-1.49-.89-2.58v-4.04h1.84v4.13c0,.53.13.95.4,1.25.27.3.65.45,1.15.45s.87-.15,1.14-.45c.27-.3.4-.72.4-1.25Z" style="fill: #1e1e1c; stroke-width: 0px;"/>
    <path d="M104.21,28.98v-7.27h1.83v.72c.56-.58,1.2-.87,1.91-.87.22,0,.43.03.63.1v1.8c-.27-.07-.54-.1-.81-.1-.79,0-1.37.32-1.74.95v4.66h-1.83Z" style="fill: #1e1e1c; stroke-width: 0px;"/>
    <path d="M111.75,29.19c-.73,0-1.32-.2-1.77-.59-.45-.39-.68-.92-.68-1.59,0-.56.21-1.03.63-1.41.42-.38,1.01-.64,1.78-.76l2.22-.37v-.19c0-.38-.13-.68-.39-.91-.26-.23-.6-.35-1.02-.35-.67,0-1.22.29-1.64.87l-1.34-1.02c.7-.96,1.71-1.44,3.04-1.44,1.02,0,1.8.27,2.35.8.55.53.83,1.22.83,2.06v4.7h-1.83v-.71c-.23.28-.54.5-.94.67-.4.17-.81.25-1.23.25ZM111.12,26.93c0,.25.09.45.27.59.18.14.43.22.73.22.8,0,1.4-.32,1.8-.97v-1.02l-1.73.29c-.72.12-1.08.42-1.08.89Z" style="fill: #1e1e1c; stroke-width: 0px;"/>
    <path d="M124.61,22.56c.67.76,1.01,1.69,1.01,2.78s-.34,2.02-1.01,2.78c-.67.76-1.57,1.14-2.68,1.14-.92,0-1.68-.29-2.26-.88v.59h-1.83v-10.82h1.83v4.14c.59-.59,1.34-.88,2.26-.88,1.11,0,2.01.38,2.68,1.14ZM121.67,23.15c-.86,0-1.53.35-2,1.04v2.31c.5.69,1.17,1.04,2,1.04.61,0,1.11-.2,1.48-.61s.56-.94.56-1.58-.19-1.17-.56-1.58c-.37-.41-.87-.61-1.48-.61Z" style="fill: #1e1e1c; stroke-width: 0px;"/>
    <path d="M129.04,20.08c-.23.24-.51.35-.84.35s-.61-.12-.84-.35c-.24-.24-.35-.52-.35-.84s.12-.61.35-.84c.23-.24.52-.35.84-.35s.61.12.84.35c.23.24.35.52.35.84s-.12.61-.35.84ZM127.29,28.98v-7.27h1.83v7.27h-1.83Z" style="fill: #1e1e1c; stroke-width: 0px;"/>
    <path d="M131.3,28.98v-10.82h1.83v10.82h-1.83Z" style="fill: #1e1e1c; stroke-width: 0px;"/>
    <path d="M137.08,20.08c-.23.24-.51.35-.84.35s-.61-.12-.84-.35c-.24-.24-.35-.52-.35-.84s.12-.61.35-.84c.23-.24.52-.35.84-.35s.61.12.84.35c.23.24.35.52.35.84s-.12.61-.35.84ZM135.32,28.98v-7.27h1.83v7.27h-1.83Z" style="fill: #1e1e1c; stroke-width: 0px;"/>
    <path d="M139.8,26.32v-2.97h-1.35v-1.64h1.35v-1.82h1.84v1.82h2.22v1.64h-2.22v2.97c0,.75.38,1.13,1.15,1.13.46,0,.82-.05,1.08-.16v1.6c-.35.15-.81.23-1.4.23-.89,0-1.56-.24-2.01-.72-.45-.48-.67-1.17-.67-2.08Z" style="fill: #1e1e1c; stroke-width: 0px;"/>
    <path d="M152.04,27.79c-.73.98-1.79,1.47-3.17,1.47-1.25,0-2.23-.38-2.95-1.13-.72-.76-1.08-1.69-1.08-2.79s.33-2.05,1-2.8c.67-.75,1.58-1.13,2.73-1.13,1,0,1.8.31,2.42.92.61.61.92,1.4.92,2.36,0,.36-.04.7-.12,1.02h-5.08c.16,1.27.88,1.9,2.15,1.9.82,0,1.44-.29,1.87-.87l1.31,1.04ZM148.52,22.92c-.96,0-1.55.49-1.76,1.47h3.34c-.02-.4-.17-.75-.45-1.04s-.66-.43-1.14-.43ZM149.57,20.55h-1.76l1.5-2.4h1.99l-1.73,2.4Z" style="fill: #1e1e1c; stroke-width: 0px;"/>
  </g>
</svg>