<?xml version="1.0" encoding="UTF-8" standalone="no"?>
<!-- Created with Inkscape (http://www.inkscape.org/) -->

<svg
   xmlns:dc="http://purl.org/dc/elements/1.1/"
   xmlns:cc="http://creativecommons.org/ns#"
   xmlns:rdf="http://www.w3.org/1999/02/22-rdf-syntax-ns#"
   xmlns:svg="http://www.w3.org/2000/svg"
   xmlns="http://www.w3.org/2000/svg"
   xmlns:sodipodi="http://sodipodi.sourceforge.net/DTD/sodipodi-0.dtd"
   xmlns:inkscape="http://www.inkscape.org/namespaces/inkscape"
   id="svg2"
   version="1.1"
   inkscape:version="0.48.3.1 r9886"
   width="242.5"
   height="242.5"
   xml:space="preserve"
   sodipodi:docname="Label_Rouge.eps"><metadata
     id="metadata8"><rdf:RDF><cc:Work
         rdf:about=""><dc:format>image/svg+xml</dc:format><dc:type
           rdf:resource="http://purl.org/dc/dcmitype/StillImage" /><dc:title></dc:title></cc:Work></rdf:RDF></metadata><defs
     id="defs6" /><sodipodi:namedview
     pagecolor="#ffffff"
     bordercolor="#666666"
     borderopacity="1"
     objecttolerance="10"
     gridtolerance="10"
     guidetolerance="10"
     inkscape:pageopacity="0"
     inkscape:pageshadow="2"
     inkscape:window-width="1280"
     inkscape:window-height="1000"
     id="namedview4"
     showgrid="false"
     inkscape:zoom="1"
     inkscape:cx="-83.230932"
     inkscape:cy="121.25"
     inkscape:window-x="1280"
     inkscape:window-y="0"
     inkscape:window-maximized="1"
     inkscape:current-layer="g12" /><g
     id="g10"
     inkscape:groupmode="layer"
     inkscape:label="ink_ext_XXXXXX"
     transform="matrix(1.25,0,0,-1.25,0,242.5)"><g
       id="g12"
       transform="scale(0.1,0.1)"><path
         d="m 2.59766,5.66797 1927.56004,0 0,1927.56003 -1927.56004,0 0,-1927.56003 z"
         style="fill:#ffffff;fill-opacity:1;fill-rule:evenodd;stroke:none"
         id="path14" /><path
         d="m 134.207,936.047 c 0,-298.922 257.887,-529.024 676.137,-529.024 418.246,0 988.196,210.747 988.196,673.097 0,462.36 -561.28,505.36 -680.47,505.36 -489.761,0 -983.863,-243 -983.863,-649.433"
         style="fill:#ed1c24;fill-opacity:1;fill-rule:evenodd;stroke:none"
         id="path16" /><g
         id="g18"
         transform="scale(1.00385,0.996149)"><path
           d="m 87.3005,936.281 c 0,-316.868 271.2715,-560.788 711.2375,-560.788 439.962,0 1039.502,223.403 1039.502,713.517 0,490.11 -590.41,535.71 -715.81,535.71 -515.181,0 -1034.9295,-257.6 -1034.9295,-688.439"
           style="fill:none;stroke:#ed1c24;stroke-opacity:1;stroke-width:13.5353;stroke-linecap:butt;stroke-linejoin:miter;stroke-miterlimit:2.6131;stroke-dasharray:none"
           id="path20" /></g><path
         d="m 191.219,1021.6 c 0.847,-0.12 1.707,-0.16 2.547,-0.28 18.773,-2.6 28.148,-11.24 26.578,-22.343 -1.539,-10.883 -12.867,-16.707 -30.641,-14.239 -17.773,2.469 -27.113,11.321 -25.492,22.802 1.105,7.85 6.758,12.87 16.355,14.18 l 3.196,-10.11 c -5.571,-0.05 -8.586,-1.97 -9.121,-5.75 -0.817,-5.78 4.695,-8.962 16.543,-10.606 11.851,-1.652 18.183,0.418 18.925,5.676 0.649,4.6 -3.023,8.05 -10.64,9.1 l -1.324,-9.4 -9.696,1.35 2.77,19.62"
         style="fill:#ffffff;fill-opacity:1;fill-rule:evenodd;stroke:none"
         id="path22" /><path
         d="m 207.953,1036.22 c -8.289,3.37 -16.312,6.53 -23.992,9.45 8.727,-1.25 17.297,-2.15 25.676,-2.54 l -1.684,-6.91 z m 14.461,-18.08 2.516,10.32 -9.055,3.87 2.535,10.38 9.863,-0.51 2.512,10.32 -56.64,1.43 -2.637,-10.84 50.906,-24.97"
         style="fill:#ffffff;fill-opacity:1;fill-rule:evenodd;stroke:none"
         id="path24" /><path
         d="m 205.332,1074.8 -14.578,4.88 c 0.098,0.52 0.238,0.94 0.383,1.37 1.519,4.46 4.379,5.64 9.383,3.96 5.003,-1.67 6.742,-4.78 5.269,-9.1 -0.121,-0.36 -0.336,-0.75 -0.457,-1.11 z m 26.418,-19.73 3.328,9.78 -21.793,7.29 24.582,0.93 3.61,10.63 -27.223,-1.7 c 0.012,6.07 -3.688,10.15 -11.047,12.61 -10.605,3.55 -16.578,-0.29 -20.383,-11.49 l -3.562,-10.49 52.488,-17.56"
         style="fill:#ffffff;fill-opacity:1;fill-rule:evenodd;stroke:none"
         id="path26" /><path
         d="m 229.836,1102.58 c -7.578,4.75 -14.93,9.24 -21.984,13.44 8.378,-2.73 16.664,-5.1 24.847,-6.92 l -2.863,-6.52 z m 11.078,-20.3 4.281,9.74 -8.242,5.36 4.313,9.8 9.621,-2.21 4.277,9.73 -55.531,11.16 -4.488,-10.22 45.769,-33.36"
         style="fill:#ffffff;fill-opacity:1;fill-rule:evenodd;stroke:none"
         id="path28" /><path
         d="m 207.879,1143.55 5.226,9.44 31.368,-4.82 c 1.785,-0.29 5.672,-1.12 11.605,-2.58 -6.976,2.61 -13.055,5.25 -18.293,8.11 l -18.66,10.17 4.793,8.65 48.547,-26.48 -4.793,-8.65 -32.824,4.6 c -1,0.11 -4.09,0.95 -9.305,2.26 4.719,-1.89 9.762,-4.48 15.207,-7.45 l 20.426,-11.13 -4.754,-8.59 -48.543,26.47"
         style="fill:#ffffff;fill-opacity:1;fill-rule:evenodd;stroke:none"
         id="path30" /><path
         d="m 241.559,1180.98 -4.516,-6.81 -8.57,5.59 14.965,22.55 8.566,-5.6 -4.52,-6.8 37.704,-24.63 -5.926,-8.93 -37.703,24.63"
         style="fill:#ffffff;fill-opacity:1;fill-rule:evenodd;stroke:none"
         id="path32" /><path
         d="m 248.152,1208.64 6.481,8.74 44.601,-32.6 -6.484,-8.74 -44.598,32.6"
         style="fill:#ffffff;fill-opacity:1;fill-rule:evenodd;stroke:none"
         id="path34" /><path
         d="m 261.336,1226.16 14.312,17.36 7.938,-6.44 -7.727,-9.38 8.661,-7.03 7.011,8.51 7.879,-6.39 -7.015,-8.51 10.046,-8.15 7.727,9.37 8.359,-6.78 -14.312,-17.36 -42.879,34.8"
         style="fill:#ffffff;fill-opacity:1;fill-rule:evenodd;stroke:none"
         id="path36" /><path
         d="m 331.684,1253.48 -0.571,-7.56 8.555,-0.54 c -0.313,-0.43 -0.684,-0.9 -1.055,-1.27 -3.675,-3.66 -9.765,-1.76 -17.801,6.19 -8.972,8.86 -11.624,15.07 -7.632,19.05 3.828,3.81 10.09,1.53 18.566,-6.85 3.192,-3.16 5.84,-6.2 7.574,-9.49 l -7.636,0.47 z m 26.644,-1.64 -8.281,0.48 c -0.527,5.38 -3.985,11.01 -10.309,17.27 -13.375,13.22 -25.64,15.42 -33.992,7.1 -8.082,-8.05 -6.086,-20.37 6.246,-32.55 13.207,-13.07 25.582,-15.38 33.883,-7.11 2.336,2.33 3.867,4.72 4.414,7.56 l 7.637,-0.48 0.402,7.73"
         style="fill:#ffffff;fill-opacity:1;fill-rule:evenodd;stroke:none"
         id="path38" /><path
         d="m 374.574,1291.56 c 3.934,-4.47 6.785,-7.83 7.641,-11.08 1.586,-5.79 -0.52,-10.78 -6.258,-15.75 -5.734,-4.97 -11.066,-6.41 -16.625,-4.06 -3.176,1.34 -6.148,4.6 -10.027,9.02 l -22.883,26.02 8.066,6.98 23.442,-26.66 c 4.699,-5.35 7.386,-7.73 11.648,-4.04 4.145,3.59 2.453,6.42 -2.453,12 l -23.437,26.67 8.003,6.93 22.883,-26.03"
         style="fill:#ffffff;fill-opacity:1;fill-rule:evenodd;stroke:none"
         id="path40" /><path
         d="m 390.383,1301.05 c -4.356,7.77 -8.637,15.21 -12.801,22.25 6.035,-6.38 12.16,-12.4 18.457,-17.9 l -5.656,-4.35 z m -0.094,-23.08 8.461,6.5 -4.641,8.63 8.524,6.54 7.375,-6.51 8.457,6.5 -43.336,36.22 -8.879,-6.83 24.039,-51.05"
         style="fill:#ffffff;fill-opacity:1;fill-rule:evenodd;stroke:none"
         id="path42" /><path
         d="m 389.281,1346.33 8.676,6.08 25.746,-36.13 9.965,7 6.238,-8.75 -18.644,-13.08 -31.981,44.88"
         style="fill:#ffffff;fill-opacity:1;fill-rule:evenodd;stroke:none"
         id="path44" /><path
         d="m 412.945,1362.66 9.117,5.98 30.543,-45.85 -9.113,-5.99 -30.547,45.86"
         style="fill:#ffffff;fill-opacity:1;fill-rule:evenodd;stroke:none"
         id="path46" /><path
         d="m 440.371,1368.17 -6.996,-4.28 -5.383,8.66 23.153,14.18 5.386,-8.67 -6.992,-4.27 23.703,-38.13 -9.172,-5.61 -23.699,38.12"
         style="fill:#ffffff;fill-opacity:1;fill-rule:evenodd;stroke:none"
         id="path48" /><path
         d="m 463.664,1399.63 -4.258,-2.4 -0.996,15.49 7.86,4.44 -2.606,-17.53 z m -6.676,-9.53 19.653,11.1 5.074,-8.85 -10.613,-5.99 5.539,-9.65 9.625,5.44 5.035,-8.77 -9.629,-5.45 6.418,-11.18 10.613,5.99 5.34,-9.31 -19.645,-11.11 -27.41,47.78"
         style="fill:#ffffff;fill-opacity:1;fill-rule:evenodd;stroke:none"
         id="path50" /><path
         d="m 517.34,1375.6 c 3.437,-0.96 6.285,-0.92 8.711,0.29 3.297,1.65 4.277,4.55 2.773,7.51 -1.746,3.44 -5.004,3.55 -9.156,4.75 -7.422,2.17 -11.934,4.57 -15.039,10.7 -4.293,8.47 -2.074,16.75 5.465,20.51 2.761,1.38 5.738,1.83 9.301,1.62 l 4.394,-8.68 c -3.453,0 -5.828,-0.15 -7.512,-0.99 -2.757,-1.37 -3.734,-4.27 -2.269,-7.17 1.711,-3.37 4.945,-4.26 9.812,-5.54 6.809,-1.78 11.133,-3.16 14.625,-10.05 4.469,-8.82 2.145,-17.05 -6.472,-21.35 -3.235,-1.61 -6.309,-2.2 -9.465,-1.79 l -5.168,10.19"
         style="fill:#ffffff;fill-opacity:1;fill-rule:evenodd;stroke:none"
         id="path52" /><path
         d="m 571.934,1409.39 c 2.5,-5.39 4.273,-9.43 4.164,-12.77 -0.129,-6.01 -3.578,-10.2 -10.5,-13.35 -6.918,-3.15 -12.446,-3.03 -17.11,0.79 -2.66,2.18 -4.578,6.14 -7.039,11.47 l -14.496,31.4 9.727,4.42 14.855,-32.17 c 2.977,-6.45 4.879,-9.48 10.016,-7.15 5,2.28 4.191,5.47 1.082,12.2 l -14.856,32.17 9.657,4.39 14.5,-31.4"
         style="fill:#ffffff;fill-opacity:1;fill-rule:evenodd;stroke:none"
         id="path54" /><path
         d="m 585.145,1426.51 -5.895,14.1 c 0.352,0.14 0.668,0.35 1.016,0.5 4.457,1.83 7.422,0.38 9.418,-4.38 1.964,-4.71 0.711,-8.14 -3.469,-9.86 -0.344,-0.15 -0.727,-0.22 -1.07,-0.36 z m 2.414,-32.73 9.609,3.95 -8.809,21.08 c 0.793,0.25 1.559,0.57 2.254,0.85 9.258,3.81 12.332,11.5 8.34,21.05 -4.195,10.04 -11.449,12.56 -22.308,8.09 l -10.305,-4.24 21.219,-50.78"
         style="fill:#ffffff;fill-opacity:1;fill-rule:evenodd;stroke:none"
         id="path56" /><path
         d="m 607.301,1466.31 -4.582,-1.73 1.41,15.46 8.453,3.19 -5.281,-16.92 z m -8.067,-8.41 21.129,7.98 3.649,-9.52 -11.41,-4.3 3.976,-10.38 10.356,3.91 3.617,-9.44 -10.356,-3.9 4.61,-12.04 11.414,4.31 3.84,-10.02 -21.133,-7.97 -19.692,51.37"
         style="fill:#ffffff;fill-opacity:1;fill-rule:evenodd;stroke:none"
         id="path58" /><path
         d="m 645.996,1449.65 -5.055,14.41 c 0.469,0.25 0.895,0.4 1.329,0.55 4.48,1.55 7.168,0.03 8.906,-4.93 1.734,-4.95 0.328,-8.21 -4.012,-9.71 -0.355,-0.12 -0.809,-0.2 -1.168,-0.32 z m 0.504,-32.81 9.82,3.39 -7.562,21.56 15.82,-18.7 10.676,3.69 -18.055,20.29 c 4.84,3.72 5.817,9.11 3.262,16.39 -3.68,10.49 -10.402,12.82 -21.645,8.93 l -10.535,-3.64 18.219,-51.91"
         style="fill:#ffffff;fill-opacity:1;fill-rule:evenodd;stroke:none"
         id="path60" /><path
         d="m 662.797,1480.46 10.398,3.32 16.977,-52.33 -10.399,-3.32 -16.976,52.33"
         style="fill:#ffffff;fill-opacity:1;fill-rule:evenodd;stroke:none"
         id="path62" /><path
         d="m 682.941,1486.84 21.664,6.42 2.938,-9.74 -11.699,-3.48 3.203,-10.63 10.613,3.14 2.918,-9.67 -10.613,-3.15 3.715,-12.34 11.699,3.48 3.09,-10.27 -21.66,-6.43 -15.868,52.67"
         style="fill:#ffffff;fill-opacity:1;fill-rule:evenodd;stroke:none"
         id="path64" /><path
         d="m 753.82,1470.79 c 1.547,-5.73 2.625,-9.99 1.953,-13.29 -1.14,-5.89 -5.246,-9.45 -12.593,-11.41 -7.356,-1.96 -12.782,-0.93 -16.739,3.61 -2.261,2.59 -3.484,6.81 -5.011,12.47 l -9.024,33.36 10.336,2.75 9.246,-34.18 c 1.852,-6.85 3.215,-10.15 8.672,-8.71 5.313,1.42 5.051,4.7 3.117,11.85 l -9.246,34.18 10.266,2.73 9.023,-33.36"
         style="fill:#ffffff;fill-opacity:1;fill-rule:evenodd;stroke:none"
         id="path66" /><path
         d="m 769.559,1485.58 -3.555,14.85 c 0.496,0.2 0.937,0.3 1.379,0.41 4.617,1.08 7.133,-0.7 8.355,-5.8 1.219,-5.11 -0.519,-8.2 -4.992,-9.26 -0.363,-0.08 -0.82,-0.12 -1.187,-0.2 z m -2.875,-32.69 10.117,2.39 -5.309,22.2 13.813,-20.2 11,2.59 -15.875,22.01 c 5.199,3.21 6.73,8.48 4.937,15.98 -2.586,10.8 -9.031,13.8 -20.617,11.07 l -10.852,-2.55 12.786,-53.49"
         style="fill:#ffffff;fill-opacity:1;fill-rule:evenodd;stroke:none"
         id="path68" /><path
         d="m 789.012,1514.49 22.117,4.64 2.121,-9.95 -11.941,-2.5 2.316,-10.87 10.836,2.27 2.113,-9.87 -10.84,-2.28 2.688,-12.6 11.941,2.51 2.235,-10.48 -22.118,-4.65 -11.468,53.78"
         style="fill:#ffffff;fill-opacity:1;fill-rule:evenodd;stroke:none"
         id="path70" /><path
         d="m 970.625,311.445 0,30.457 2.488,0 c 11.078,0 16.571,-4.32 16.571,-15.269 0,-10.789 -5.356,-15.188 -16.571,-15.188 l -2.488,0 z m -14.551,-12.332 14.996,0 c 8.973,0 16.43,0.309 23.137,5.164 6.793,4.938 10.413,12.571 10.413,22.356 0,9.863 -3.62,17.496 -10.413,22.359 -7.082,5.094 -15.148,5.242 -25.168,5.242 l -12.965,0 0,-55.121"
         style="fill:#ed1c24;fill-opacity:1;fill-rule:evenodd;stroke:none"
         id="path72" /><path
         d="m 1029.93,360.094 -5.65,0 6.7,13.183 10.34,0 -11.39,-13.183 z m -16.12,-5.86 33,0 0,-12.101 -18.7,0 0,-9.563 17.64,0 0,-11.8 -17.64,0 0,-9.325 18.7,0 0,-12.332 -33,0 0,55.121"
         style="fill:#ed1c24;fill-opacity:1;fill-rule:evenodd;stroke:none"
         id="path74" /><path
         d="m 1095.57,335.652 c -3.92,4.465 -7.69,6.633 -12.44,6.633 -8.52,0 -14.17,-6.633 -14.17,-15.961 0,-8.476 5.58,-15.344 14.17,-15.344 4.75,0 8.52,2.165 12.44,6.633 l 0,-16.422 c -4.68,-2.312 -9.12,-3.464 -13.95,-3.464 -15.89,0 -27.35,12.253 -27.35,28.906 0,16.652 11.46,28.91 27.35,28.91 4.83,0 9.27,-1.156 13.95,-3.469 l 0,-16.422"
         style="fill:#ed1c24;fill-opacity:1;fill-rule:evenodd;stroke:none"
         id="path76" /><path
         d="m 1117.64,328.172 0,14.504 2.94,0 c 6.11,0 8.89,-1.86 8.89,-7.633 0,-4.863 -2.93,-6.871 -9.11,-6.871 l -2.72,0 z m -13.79,-29.059 13.79,0 0,21.59 12.36,-21.59 16.58,0 -14.69,22.203 c 7.84,1.696 12.06,7.176 12.06,15.719 0,5.707 -2.11,10.414 -6.03,13.496 -4.6,3.625 -10.33,3.703 -17.78,3.703 l -16.29,0 0,-55.121"
         style="fill:#ed1c24;fill-opacity:1;fill-rule:evenodd;stroke:none"
         id="path78" /><path
         d="m 1152.16,354.234 33,0 0,-12.101 -18.68,0 0,-9.563 17.64,0 0,-11.8 -17.64,0 0,-9.325 18.68,0 0,-12.332 -33,0 0,55.121"
         style="fill:#ed1c24;fill-opacity:1;fill-rule:evenodd;stroke:none"
         id="path80" /><path
         d="m 1202.65,341.203 -11.98,0 0,13.031 38.74,0 0,-13.031 -12.06,0 0,-42.09 -14.7,0 0,42.09"
         style="fill:#ed1c24;fill-opacity:1;fill-rule:evenodd;stroke:none"
         id="path82" /><path
         d="m 1274.7,311.445 0,30.457 2.48,0 c 11.07,0 16.58,-4.32 16.58,-15.269 0,-10.789 -5.35,-15.188 -16.58,-15.188 l -2.48,0 z m -14.55,-12.332 14.99,0 c 8.97,0 16.43,0.309 23.14,5.164 6.77,4.938 10.4,12.571 10.4,22.356 0,9.863 -3.63,17.496 -10.4,22.359 -7.08,5.094 -15.14,5.242 -25.18,5.242 l -12.95,0 0,-55.121"
         style="fill:#ed1c24;fill-opacity:1;fill-rule:evenodd;stroke:none"
         id="path84" /><path
         d="m 1332.19,354.234 0,-29.91 c 0,-9.797 1.73,-14.035 9.35,-14.035 8.96,0 9.34,5.707 9.34,17.508 l 0,26.437 14.62,0 0,-32.765 c 0,-16.653 -6.86,-23.821 -23.96,-23.821 -9.13,0 -15.46,2.153 -19.31,6.704 -4.28,5.015 -4.66,11.492 -4.66,20.128 l 0,29.754 14.62,0"
         style="fill:#ed1c24;fill-opacity:1;fill-rule:evenodd;stroke:none"
         id="path86" /><path
         d="m 1412.6,341.203 -11.53,0 6.33,12.496 18.61,0 0,-54.586 -13.41,0 0,42.09"
         style="fill:#ed1c24;fill-opacity:1;fill-rule:evenodd;stroke:none"
         id="path88" /><path
         d="m 1443.04,299.113 24.19,29.293 c 2.86,3.477 4.3,6.324 4.3,8.864 0,3.855 -2.56,6.558 -6.48,6.558 -4.52,0 -7.16,-3.09 -7.16,-8.785 l 0,-0.699 -12.96,0 0,0.386 c 0,12.489 7.76,20.114 19.96,20.114 12.52,0 19.82,-7.395 19.82,-17.496 0,-5.778 -2.63,-10.25 -7.3,-15.578 l -9.72,-10.946 16.49,0 0,-11.711 -41.14,0"
         style="fill:#ed1c24;fill-opacity:1;fill-rule:evenodd;stroke:none"
         id="path90" /><path
         d="m 1500.46,312.914 c 4.15,0 7.47,-3.391 7.47,-7.633 0,-4.316 -3.32,-7.633 -7.47,-7.633 -4.14,0 -7.38,3.387 -7.38,7.633 0,4.164 3.17,7.633 7.38,7.633"
         style="fill:#ed1c24;fill-opacity:1;fill-rule:evenodd;stroke:none"
         id="path92" /><path
         d="m 1528.95,326.246 c 0,11.723 1.89,17.352 6.86,17.352 4.82,0 6.78,-5.707 6.78,-17.352 0,-11.566 -1.88,-17.34 -6.78,-17.34 -4.9,0 -6.86,5.707 -6.86,17.34 z m 27.21,-0.543 c 0,18.738 -7.69,29.074 -20.35,29.074 -12.43,0 -20.42,-10.492 -20.42,-28.531 0,-18.117 7.99,-28.598 20.42,-28.598 12.44,0 20.35,10.403 20.35,28.055"
         style="fill:#ed1c24;fill-opacity:1;fill-rule:evenodd;stroke:none"
         id="path94" /><path
         d="m 1576.05,317.391 0,-0.93 c 0,-4.785 2.26,-7.324 6.56,-7.324 4.52,0 7,2.461 7,6.937 0,5.164 -2.48,7.399 -7.99,7.399 -0.53,0 -1.05,0 -1.65,-0.078 l 0,8.867 0.75,0 c 4.98,0 7.69,2.316 7.69,6.48 0,3.391 -2.56,5.699 -5.96,5.699 -3.69,0 -5.95,-2.156 -5.95,-5.929 l -13.04,0 c 0.24,10.172 7.24,16.265 19.68,16.265 11.3,0 17.7,-5.707 17.7,-14.183 0,-5.551 -3.01,-9.641 -8.51,-11.344 6.79,-1.145 10.62,-6.238 10.62,-13.562 0,-10.715 -8.21,-18.04 -20.11,-18.04 -12.51,0 -20.43,7.403 -20.43,18.969 l 0,0.774 13.64,0"
         style="fill:#ed1c24;fill-opacity:1;fill-rule:evenodd;stroke:none"
         id="path96" /><path
         d="m 1618.17,312.914 c 4.15,0 7.47,-3.391 7.47,-7.633 0,-4.316 -3.32,-7.633 -7.47,-7.633 -4.14,0 -7.38,3.387 -7.38,7.633 0,4.164 3.16,7.633 7.38,7.633"
         style="fill:#ed1c24;fill-opacity:1;fill-rule:evenodd;stroke:none"
         id="path98" /><path
         d="m 1653.9,327.02 c -4.98,0 -8.15,3.16 -8.15,8.41 0,5.23 3.17,8.468 8.15,8.468 4.97,0 8.13,-3.238 8.13,-8.468 0,-5.25 -3.16,-8.41 -8.13,-8.41 z m 0.67,-8.786 -12.58,-19.121 15,0 7.46,11.641 c 5.88,9.098 9.64,16.266 9.64,24.133 0,11.801 -7.54,19.957 -20.42,19.957 -12.81,0 -20.57,-8.324 -20.57,-20.114 0,-10.335 7.01,-17.339 15.82,-17.339 1.89,0 3.78,0.3 5.65,0.843"
         style="fill:#ed1c24;fill-opacity:1;fill-rule:evenodd;stroke:none"
         id="path100" /><path
         d="m 1700.62,325.48 c 4.97,0 8.14,-3.242 8.14,-8.48 0,-5.246 -3.17,-8.402 -8.14,-8.402 -4.98,0 -8.14,3.156 -8.14,8.402 0,5.238 3.16,8.48 8.14,8.48 z m -0.67,8.786 12.57,19.433 -15,0 -7.53,-11.953 c -5.35,-8.633 -9.64,-15.652 -9.64,-24.133 0,-11.797 7.53,-19.965 20.42,-19.965 12.81,0 20.64,8.254 20.64,20.043 0,10.329 -7,17.426 -15.82,17.426 -1.88,0 -3.76,-0.308 -5.64,-0.851"
         style="fill:#ed1c24;fill-opacity:1;fill-rule:evenodd;stroke:none"
         id="path102" /><path
         d="m 1176.27,1048.27 c 161.48,62.18 285.11,157.37 298.03,312.11 12.93,154.74 -199.69,188.44 -407.66,184.26 l -1.62,96.61 -171.54,-1.12 C 878.109,1053.62 690.824,747.367 272.848,379.238 l 278.59,-1.066 c 159.808,157.133 366.812,174.43 477.082,170.461 l 126.43,137.469 c 69.03,-106.977 159.34,-215.43 278.79,-305.258 l 281.86,-1.211 c -234.48,185.308 -421.24,368.168 -539.33,668.637 z m -116.09,306.93 c 100.77,3.07 176.88,9.03 174.03,-46.45 -2.86,-55.48 -130.23,-127.54 -212.99,-133.16 0,0 31.16,124.37 38.96,179.61 z M 824.254,712.793 c 78.59,117.055 129.496,240.477 157.035,327.407 27.631,-71.493 66.821,-169.095 125.011,-273.177 -84.6,0.489 -191.339,-16.929 -282.046,-54.23"
         style="fill:#ffffff;fill-opacity:1;fill-rule:evenodd;stroke:#ed1c24;stroke-opacity:1;stroke-width:13.536;stroke-miterlimit:4;stroke-dasharray:none"
         id="path104" /><path
         d="m 257.477,714.016 c -3.614,12.961 -4.5,52.035 -2.168,97.191 26.144,30.008 45.253,63.684 70.343,138.719 39.055,116.794 21.278,163.074 15.047,165.814 -7.285,2.79 -53.074,-24.93 -97.605,-171.654 -16.66,-54.902 -23.774,-101.418 -25.477,-139.535 -10.754,-11.946 -22.551,-24.371 -35.5,-37.426 0,0 -4.844,-4.832 4.988,-10.793 9.825,-5.969 9.918,-2.32 15.79,1.707 5.097,5.035 9.925,9.75 14.539,14.25 1.464,-40.684 9.281,-68.648 15.796,-83.742 1.497,-3.453 2.395,-9.43 8.79,-5.418 6.402,4.008 15.562,13.699 18.972,24.555 0,0 -1.574,0.039 -3.515,6.332 z m 8.496,199.32 c 12.855,75.223 48.093,143.144 52.285,142.774 6.32,-0.54 3.711,-41.5 -11.117,-101.309 -8.371,-33.754 -23.727,-65.602 -48.7,-100.254 1.875,20.152 4.368,40.273 7.532,58.789"
         style="fill:#ffffff;fill-opacity:1;fill-rule:evenodd;stroke:none"
         id="path106" /><path
         d="m 386.973,858.863 -9.809,7.004 c 0,0 1.715,5.703 6.582,11.828 4.883,6.129 7.219,15.977 2.524,17.137 -4.704,1.152 -16.18,4.027 -32.219,-8.082 -16.047,-12.121 -52.629,-48.758 -67.492,-98.941 -14.868,-50.164 -5.739,-85.297 11.519,-87.789 17.262,-2.485 28.707,14.953 34.758,26.261 -4.191,-21.258 3.195,-19.863 15.875,-16.527 12.68,3.348 12.281,8.558 14.543,15.289 5.738,20.172 24.184,109.855 26.578,121.777 2.387,11.922 -2.859,12.043 -2.859,12.043 z M 332.355,749.734 c -13.781,-27.289 -23.832,-8.8 -22.472,4.184 5.39,51.383 28.75,81.621 36.285,89.246 9.723,11.227 12.613,0.746 12.387,-8.617 -0.668,-27.621 -12.414,-57.527 -26.2,-84.813"
         style="fill:#ffffff;fill-opacity:1;fill-rule:evenodd;stroke:none"
         id="path108" /><path
         d="m 493.723,909.977 c -11.106,-3.375 -26.942,-7.168 -26.942,-7.168 10.008,45.07 24.172,109.331 24.172,109.331 1.313,10.91 2.996,15.56 -14.914,12.86 -17.918,-2.7 -17.98,-5.31 -20.305,-14.63 -9.562,-48.214 -50.214,-231.12 -56.683,-259.616 -6.461,-28.504 2.992,-28.207 9.277,-28.879 6.277,-0.672 63.914,-5.164 94.988,85.773 31.082,90.942 16.352,111.602 -9.593,102.329 z M 446.945,755.871 c -9.66,-8.629 -11.418,5.465 -10.273,9.086 1.133,3.609 21.805,98.453 24.14,108.301 0,0 2.262,6.711 6.997,7.121 4.734,0.41 13.617,-1.359 13.265,-15.949 -0.91,-37.477 -24.469,-99.95 -34.129,-108.559"
         style="fill:#ffffff;fill-opacity:1;fill-rule:evenodd;stroke:none"
         id="path110" /><path
         d="m 746.816,1172.73 c -23.546,3.17 -77.539,-58.57 -107.504,-233.925 -5.578,-32.59 -8.429,-61.453 -9.23,-87.11 -12.644,-22.371 -22.855,-38.422 -39.926,-56.547 -30.59,-32.457 -51.746,-19.675 -42.679,18.805 17.859,9.918 52.859,42.652 63.347,76.039 11.379,36.199 10.762,53.926 -0.156,58.344 -10.922,4.43 -28.656,-12.856 -34.086,-20.008 -13.488,-15.316 -38.016,-52.762 -46.633,-83.293 -8.617,-30.531 -10.148,-72.168 -4.808,-90 5.343,-17.84 31.043,-14.984 42.382,-5.691 22.672,18.554 43.571,40.75 62.868,65.613 4.441,-87.016 35.078,-129.246 55.191,-154.387 5.106,-6.375 20.73,-11.437 31.688,7.571 10.957,19.011 13.128,27.187 2.019,40.062 -37.891,43.934 -56.113,88.332 -56.851,152.567 28.148,44.429 52.429,94.273 73.519,145.53 41.84,101.62 34.406,163.27 10.859,166.43 z M 584.043,910.953 c 15.215,21.504 18.773,16.746 11.375,-7.047 -7.398,-23.781 -15.602,-37.144 -19.879,-40.683 -3.82,-3.149 -9.777,-8.723 -15.34,-3.903 6.875,20.723 14.762,38.793 23.844,51.633 z m 85.832,10.977 c -1.605,-2.711 -3.141,-5.309 -4.645,-7.883 2.375,22.301 6.219,46.75 11.493,73.871 11.39,58.592 24.289,91.612 34.804,114.812 4.438,9.79 20.285,22.43 19.27,-6.19 -1.672,-47.36 -21.488,-108.106 -60.922,-174.61"
         style="fill:#ffffff;fill-opacity:1;fill-rule:evenodd;stroke:#ed1c24;stroke-opacity:1;stroke-width:8;stroke-miterlimit:4;stroke-dasharray:none"
         id="path112" /><path
         d="m 1428.23,914.25 c 15.29,2.238 29.26,15.453 35.34,27.809 -6.68,6.402 -4.55,29.281 -1.68,39.629 2.88,10.343 27.41,90.502 33.87,119.002 0,0 -21.06,-2.62 -37.38,-4.31 0,0 -21.45,-82.84 -28.88,-108.708 -46.01,-79.121 -43.2,-27.621 -39.09,-9.488 2.68,11.781 22.5,83.336 31.55,110.206 l -23.57,2.64 c -9.29,-9.78 -42.1,-30.51 -55.41,-34.64 -2.64,15.16 -9.2,24.25 -17.2,27 -11.46,3.91 -27.44,-5.6 -37.82,-22.54 -14.22,-1.75 -33.71,-4.93 -58.45,-72.58 -12.13,-33.125 -14.94,-56.801 -13.96,-73.2 -8.92,-12.922 -32.39,-28.89 -49.51,-32.59 -19.53,-4.23 -2.23,-27.042 6.1,-30.359 7.97,-3.195 23.87,1.633 52.7,32.984 0.94,-1.125 1.7,-1.785 2.11,-2 3.12,-1.636 22.15,-17.195 58.32,2.258 44.41,23.895 56.96,118.977 58.72,148.097 0.07,1.2 0.09,2.36 0.14,3.53 8.52,2.12 24.82,6.4 30.62,9.28 0,0 -23.16,-67.676 -28.34,-86.313 -5.18,-18.625 -11.23,-51.297 0.59,-62.004 11.81,-10.699 43.88,12.5 58.39,26.223 1.4,-6.805 7.58,-12.172 22.84,-9.926 z m -121.45,57.074 c -9.36,-39.902 -28.8,-61.828 -39.78,-59.992 -10.98,1.816 -15.04,28.992 -5.9,59.527 9.14,30.501 28.88,64.941 39.81,61.031 10.39,-4.43 15.24,-20.68 5.87,-60.566"
         style="fill:#ffffff;fill-opacity:1;fill-rule:evenodd;stroke:#ed1c24;stroke-opacity:1;stroke-width:8;stroke-miterlimit:4;stroke-dasharray:none"
         id="path114" /><path
         d="m 1712.65,887.664 c -20.68,3.934 -64.87,37.106 -67.18,99.684 37.37,31.662 64.92,63.602 82.31,91.652 32.78,52.88 40.93,85.5 25.93,95.24 -21.19,13.76 -73.05,-25.35 -102.89,-64.75 -26.72,-35.3 -43.03,-76.74 -48.24,-125.392 -16.84,-10.188 -33.91,-19.215 -51.33,-29.024 -21.41,28.824 -25,66.616 -15.44,87.366 9.97,21.63 24.44,33.27 30.83,37.29 6.39,4.01 18.59,8.93 16.36,-18.11 7.43,3.47 32.4,15.9 32.4,15.9 6.82,21.19 5.95,50.39 -8.61,55.94 -14.57,5.56 -50.6,-8.16 -81.48,-47.55 -30.87,-39.37 -51.2,-83.01 -30.89,-126.871 4.89,-10.578 9.8,-20.207 14.32,-29.195 -50.54,-31.129 -104.24,-70.328 -136.11,-143.985 -37.25,-86.101 76.93,-84.699 119.65,-45.558 85.43,78.293 88.41,150.492 73.49,190.039 12.53,7.586 24.46,15.344 35.73,23.215 4.86,-51.141 50.55,-97.524 74.98,-107.215 26.5,-10.535 39.94,2.156 48.58,11.859 8.64,9.692 9.53,25.301 -12.41,29.465 z m -18.97,235.386 c 21.01,22.43 29.29,17.54 31.36,15.93 2.05,-1.62 13.69,-15.74 -27.97,-70.71 -16.77,-22.11 -33.52,-39.13 -50.37,-53.16 5.87,59.17 27.62,87.3 46.98,107.94 z M 1523.21,846.867 c -15.58,-36.086 -78.84,-133.555 -113.78,-102 -34.52,31.207 19.95,112.153 110.97,160.192 8.33,-20.118 11.51,-37.993 2.81,-58.192"
         style="fill:#ffffff;fill-opacity:1;fill-rule:evenodd;stroke:none"
         id="path116" /></g></g></svg>