<svg width="65" height="90" viewBox="0 0 65 90" fill="none" xmlns="http://www.w3.org/2000/svg">
<path d="M59.69 62.4233H3.98132V5.80633H59.69V62.4233Z" fill="white"/>
<path d="M59.6914 33.971C59.6914 18.5857 47.2194 6.1137 31.8341 6.1137C16.4491 6.1137 3.97707 18.5857 3.97707 33.971C3.97707 34.019 3.97873 34.066 3.97873 34.1137H3.9774V62.418H59.6861V34.387C59.6881 34.2484 59.6914 34.1104 59.6914 33.971Z" fill="#006260"/>
<path d="M40.4155 52.4788C31.4549 51.9515 26.7225 46.3665 24.6295 41.4618C22.9182 37.4522 23.0975 34.1138 23.0975 34.1138H41.1799C41.1799 34.1138 40.2749 15.7962 22.7562 15.7962C14.7472 15.7962 5.00052 21.6265 5.00052 34.6505C5.00052 47.6738 18.0689 61.2868 31.1355 61.2868C49.9922 61.2868 56.2432 47.8345 58.0548 42.1492C52.7235 51.5832 47.1705 52.8762 40.4155 52.4788Z" fill="white"/>
<path d="M50.4958 42.737C55.2791 42.737 59.1561 38.8593 59.1561 34.077C59.1561 29.2936 55.2791 25.4163 50.4958 25.4163C45.7131 25.4163 41.8361 29.2936 41.8361 34.077C41.8361 38.8593 45.7131 42.737 50.4958 42.737Z" fill="white"/>
<path d="M38.7017 5.80064C48.7123 8.2103 56.7307 15.7296 59.6863 25.446V5.80064H38.7017Z" fill="#006260"/>
<path d="M3.9772 25.5273C7.35754 15.3093 15.1159 8.12166 24.7582 5.80066H3.9772V25.5273Z" fill="#006260"/>
<path d="M59.492 72.0847H51.8413V64.4343H59.492V72.0847Z" fill="#BF2033"/>
<path d="M54.8704 67.3522C54.8571 67.0529 54.9471 66.8432 55.3104 66.6295C55.6741 66.4152 56.0418 66.4882 56.2941 66.6595C56.5461 66.8305 56.6491 67.0269 56.7258 67.0995C56.8028 67.1725 56.9871 67.2839 57.1191 67.0399C57.2521 66.7962 57.2734 66.5995 57.2818 66.4582C57.2904 66.3172 57.2091 66.0352 56.6961 65.9282C56.1831 65.8212 55.7511 65.7655 55.3621 65.8982C54.9728 66.0305 54.6581 66.3002 54.5494 66.5182C54.4408 66.7362 54.3998 67.0269 54.4681 67.2362C54.5364 67.4459 54.6304 67.5615 54.6604 67.6255C54.6908 67.6899 54.7084 67.7109 54.6788 67.7239C54.6031 67.7565 54.0731 67.8662 53.6828 68.2199C53.2924 68.5732 53.0814 68.8259 53.0858 69.2989C53.0904 69.7722 53.4608 70.3419 53.9401 70.6172C54.4494 70.9095 55.0008 70.9815 55.3194 70.9829C55.6984 70.9842 56.1841 70.9369 56.5924 70.7622C57.0014 70.5879 57.2048 70.3939 57.3888 70.1255C57.5598 69.8685 57.5591 69.6462 57.5591 69.5455C57.5591 69.4445 57.5301 69.3489 57.5494 69.3302C57.5688 69.3112 57.7241 69.3255 57.8894 69.2792C58.0548 69.2339 58.3301 69.0229 58.4607 68.6372C58.5367 68.4149 58.5367 68.2749 58.5321 68.1692C58.5277 68.0639 58.4491 67.9719 58.3897 68.0682C58.3301 68.1649 58.3301 68.2565 58.2154 68.3759C58.1001 68.4955 57.7378 68.5825 57.4484 68.5825C57.1588 68.5825 56.8514 68.5182 56.5854 68.5782C56.3188 68.6372 56.2178 68.6559 55.9971 68.7845C55.7768 68.9132 55.6208 69.1475 55.5431 69.3129C55.4644 69.4779 55.4418 69.5585 55.4554 69.6505C55.4694 69.7422 55.4878 69.7535 55.5611 69.6755C55.6348 69.5975 55.7738 69.4295 55.9011 69.3542C56.0891 69.2422 56.3438 69.2839 56.6834 69.3025C57.0234 69.3205 57.2488 69.3189 57.2661 69.3369C57.2831 69.3549 57.2911 69.7422 57.1264 69.9539C56.9621 70.1649 56.6724 70.2902 56.3724 70.3712C56.1001 70.4439 55.8641 70.4565 55.5611 70.4102C55.2331 70.3605 54.9224 70.2629 54.5648 69.9325C54.2064 69.6022 54.1621 69.1752 54.1804 68.8762C54.1988 68.5782 54.3354 68.3392 54.5598 68.1329C54.7851 67.9259 54.8781 67.8935 54.8781 67.8935C54.8781 67.8935 55.1811 68.0829 55.4368 68.1555C55.6984 68.2299 55.8501 68.2519 56.0111 68.2152C56.1718 68.1785 56.2804 68.1535 56.3048 67.9885C56.3294 67.8235 56.1841 67.7365 55.9884 67.6732C55.6431 67.5625 55.0144 67.6602 55.0144 67.6602C55.0144 67.6602 54.9364 67.5722 54.9134 67.5172C54.8908 67.4622 54.8704 67.3522 54.8704 67.3522Z" fill="white"/>
<path d="M4.50795 81.2402C4.50795 81.8026 4.47995 82.2382 4.04429 82.4069C3.74929 82.5332 3.28562 82.5189 3.28562 82.6596C3.28562 82.8146 3.32762 82.8562 3.51029 82.8562C3.94595 82.8562 4.22695 82.8002 5.11229 82.8002C5.98362 82.8002 6.29262 82.8562 6.79862 82.8562C6.86895 82.8562 7.07962 82.8426 7.07962 82.7019C7.07962 82.4769 6.53162 82.6172 5.98362 82.4069C5.85695 82.3502 5.71629 82.2802 5.71629 81.9006V79.1609C5.71629 78.9639 5.71629 78.8796 5.78662 78.8796C5.85695 78.8796 6.47529 79.3292 7.38895 79.3292C9.31395 79.3292 10.087 77.5442 10.087 76.5609C10.087 75.2116 8.97695 74.1999 7.17829 74.1999C6.61595 74.1999 6.03962 74.2562 5.47762 74.2562C4.83129 74.2562 4.18495 74.1999 3.53829 74.1999C3.35562 74.1999 3.24329 74.2702 3.24329 74.4389C3.24329 74.6499 3.52429 74.6499 3.90362 74.6779C4.46595 74.7199 4.50795 74.9026 4.50795 75.4226V81.2402ZM5.71629 75.3946C5.71629 74.9166 5.78662 74.6779 6.67229 74.6779C8.44262 74.6779 8.87829 75.9426 8.87829 76.6732C8.87829 77.2492 8.61162 78.6826 6.57362 78.6826C5.74462 78.6826 5.71629 78.5986 5.71629 78.3876V75.3946Z" fill="#006260"/>
<path d="M11.3657 81.7604C11.3657 82.2521 11.0284 82.3644 10.6914 82.4067C10.3541 82.4627 10.0027 82.4347 10.0027 82.6737C9.98873 82.8281 10.1571 82.8561 10.2274 82.8561C10.9021 82.8561 11.5341 82.8001 12.1807 82.8001C12.7007 82.8001 13.2347 82.8561 13.7547 82.8561C13.8107 82.8561 14.1201 82.8424 14.1201 82.6737C14.1201 82.4767 13.8107 82.4627 13.5581 82.4067C12.5744 82.2101 12.5744 82.0977 12.5744 81.3951V78.9637C12.5744 78.6971 12.5744 78.5844 12.9957 78.5844C13.3611 78.5844 13.7407 78.7671 13.8811 79.0057L15.9467 82.6457C16.0171 82.7721 16.0734 82.7721 17.2117 82.7721C17.6614 82.7721 17.9001 82.7861 18.4904 82.7861C18.5887 82.7861 18.6307 82.7297 18.6307 82.6594C18.6307 82.5051 18.3497 82.4907 17.9704 82.4067C17.2677 82.2384 16.9867 81.9147 16.7197 81.4934L15.0614 78.7671C14.9911 78.6551 14.9491 78.5987 14.9491 78.5281C14.9491 78.3174 16.4667 77.7974 16.4667 76.3641C16.4667 74.6217 15.0474 74.1997 13.8811 74.1997C13.2487 74.1997 12.6021 74.2561 11.9697 74.2561C11.5484 74.2561 10.4524 74.1997 10.3401 74.1997C10.2131 74.1997 10.0307 74.2561 10.0307 74.4247C10.0307 74.6217 10.3681 74.6354 10.5224 74.6497C11.0284 74.6921 11.3657 74.7621 11.3657 75.0574V81.7604ZM12.5744 75.0574C12.5744 74.6217 12.9257 74.6217 13.0521 74.6217C14.1904 74.6217 15.2584 74.9587 15.2584 76.3504C15.2584 78.1064 14.1761 78.2191 13.3611 78.2191C12.7007 78.2191 12.5744 78.1771 12.5744 78.0504V75.0574Z" fill="#006260"/>
<path d="M17.8158 78.528C17.8158 81.2123 19.7971 83.053 22.4108 83.053C25.8538 83.053 27.1888 80.4673 27.1888 78.472C27.1888 76.561 25.7834 74.0033 22.4814 74.0033C19.7971 74.0033 17.8158 75.9987 17.8158 78.528ZM19.3051 78.556C19.3051 75.591 20.9074 74.4247 22.4248 74.4247C24.6591 74.4247 25.6994 76.4483 25.6994 78.261C25.6994 78.964 25.5728 82.6317 22.4814 82.6317C21.3291 82.6317 19.3051 81.7603 19.3051 78.556" fill="#006260"/>
<path d="M35.0861 80.2145C35.0861 79.3432 35.0721 79.1889 34.2431 79.1889C33.4418 79.1889 33.3014 79.1609 33.3014 78.9919C33.3014 78.7249 33.5824 78.7249 33.7934 78.7249C34.3834 78.7249 34.9598 78.7529 35.5501 78.7529C36.1541 78.7529 36.7584 78.7249 37.1798 78.7249C37.4891 78.7249 37.6438 78.7529 37.6438 78.8935C37.6438 79.1185 37.3348 79.1185 36.9551 79.1185C36.6598 79.1185 36.2944 79.1322 36.2944 79.6105V81.8305C36.2944 82.0132 36.2524 82.2802 35.9994 82.4069C35.2124 82.7722 34.3131 83.0532 32.8658 83.0532C30.3504 83.0532 28.0034 81.6055 28.0034 78.7529C28.0034 75.7879 30.2101 74.0032 33.1608 74.0032C34.1024 74.0032 34.7348 74.1575 35.4938 74.3685C36.0418 74.5232 36.0838 74.7202 36.0838 76.1112C36.0838 76.2232 36.0278 76.2232 35.9011 76.2232C35.5921 76.2232 35.3954 74.4249 33.2451 74.4249C32.2614 74.4249 29.4931 74.6922 29.4931 78.6262C29.4931 81.2545 31.4888 82.6315 33.0624 82.6315C33.4138 82.6315 33.8494 82.5892 34.1868 82.4909C34.6504 82.3502 35.0861 82.3085 35.0861 81.0155V80.2145Z" fill="#006260"/>
<path d="M39.6248 81.7604C39.6248 82.2521 39.2875 82.3644 38.9505 82.4067C38.6132 82.4627 38.2618 82.4347 38.2618 82.6737C38.2478 82.8281 38.4165 82.8561 38.4865 82.8561C39.1612 82.8561 39.7935 82.8001 40.4398 82.8001C40.9598 82.8001 41.4938 82.8561 42.0138 82.8561C42.0702 82.8561 42.3788 82.8424 42.3788 82.6737C42.3788 82.4767 42.0702 82.4627 41.8172 82.4067C40.8332 82.2101 40.8332 82.0977 40.8332 81.3951V78.9637C40.8332 78.6971 40.8332 78.5844 41.2552 78.5844C41.6205 78.5844 41.9998 78.7671 42.1402 79.0057L44.2062 82.6457C44.2765 82.7721 44.3328 82.7721 45.4708 82.7721C45.9205 82.7721 46.1595 82.7861 46.7495 82.7861C46.8475 82.7861 46.8898 82.7297 46.8898 82.6594C46.8898 82.5051 46.6092 82.4907 46.2298 82.4067C45.5268 82.2384 45.2462 81.9147 44.9788 81.4934L43.3202 78.7671C43.2502 78.6551 43.2082 78.5987 43.2082 78.5281C43.2082 78.3174 44.7258 77.7974 44.7258 76.3641C44.7258 74.6217 43.3065 74.1997 42.1402 74.1997C41.5078 74.1997 40.8615 74.2561 40.2292 74.2561C39.8075 74.2561 38.7115 74.1997 38.5992 74.1997C38.4725 74.1997 38.2898 74.2561 38.2898 74.4247C38.2898 74.6217 38.6272 74.6354 38.7815 74.6497C39.2875 74.6921 39.6248 74.7621 39.6248 75.0574V81.7604ZM40.8332 75.0574C40.8332 74.6217 41.1848 74.6217 41.3112 74.6217C42.4495 74.6217 43.5175 74.9587 43.5175 76.3504C43.5175 78.1064 42.4355 78.2191 41.6205 78.2191C40.9598 78.2191 40.8332 78.1771 40.8332 78.0504V75.0574Z" fill="#006260"/>
<path d="M48.1126 75.1979C48.1126 74.8322 47.972 74.7619 47.452 74.6496C47.0163 74.5652 46.8336 74.5372 46.8336 74.3686C46.8336 74.2422 47.0306 74.1999 47.2413 74.1999C47.761 74.1999 48.9133 74.2562 49.265 74.2562C49.6866 74.2562 51.668 74.1999 52.8623 74.1999C53.073 74.1999 53.073 74.3546 53.073 74.6496V75.9986C53.073 76.0549 53.017 76.0829 52.9606 76.0829C52.778 76.0829 52.806 75.9282 52.5813 75.4509C52.3703 74.9586 52.3003 74.7339 49.9113 74.7339C49.4056 74.7339 49.321 74.9166 49.321 75.3946V77.8256C49.321 78.1066 49.532 78.1349 50.0233 78.1349H51.246C52.2863 78.1349 51.963 76.9266 52.314 76.9266C52.497 76.9266 52.511 77.0526 52.511 77.2069C52.511 77.5306 52.4546 77.7272 52.4546 78.3876C52.4546 78.9779 52.511 79.3576 52.511 79.7506C52.511 79.8772 52.497 79.9896 52.356 79.9896C52.146 79.9896 52.1316 79.7649 52.0613 79.3576C51.935 78.6262 51.8083 78.5279 50.0796 78.5279C49.4193 78.5279 49.321 78.6126 49.321 78.8936V81.6199C49.321 82.2519 49.3773 82.3222 51.0076 82.3222C51.963 82.3222 52.2863 82.1816 52.5813 81.8446C53.256 81.0716 53.1856 80.7062 53.4246 80.7062C53.5506 80.7062 53.565 80.7766 53.565 80.8469C53.565 80.9029 53.5226 80.9732 53.5086 81.0716L53.2416 82.5052C53.1996 82.7299 53.1153 82.8002 52.9186 82.8002H48.9133C47.3536 82.8002 47.2133 82.8562 47.0723 82.8562C46.9603 82.8562 46.7356 82.8562 46.7356 82.6879C46.7356 82.4769 46.9883 82.5052 47.3396 82.4069C47.705 82.2942 48.1126 82.3646 48.1126 81.7742V75.1979Z" fill="#006260"/>
<path d="M59.3828 76.1393C59.3828 76.1953 59.3405 76.2517 59.2561 76.2517C58.7785 76.2517 59.2561 74.481 57.3451 74.481C56.2491 74.481 55.8131 75.0997 55.8131 75.7877C55.8131 77.8117 60.0291 77.5443 60.0291 80.4393C60.0291 82.252 58.7225 83.053 57.0218 83.053C56.7828 83.053 56.1368 82.9407 55.6588 82.8423C54.7875 82.6597 54.6328 82.407 54.6328 81.5493C54.6328 81.17 54.6751 80.327 54.9561 80.327C55.3215 80.327 55.0125 80.7343 55.4338 81.5073C55.5741 81.7603 56.0521 82.5753 57.2325 82.5753C58.5678 82.5753 59.1015 81.7603 59.1015 81.0577C59.1015 78.9217 54.8861 79.0623 54.8861 76.364C54.8861 75.1837 55.7571 74.0033 57.5418 74.0033C57.7381 74.0033 58.0195 74.0173 58.3008 74.0737C59.3828 74.2847 59.3828 74.4387 59.3828 74.9727V76.1393Z" fill="#006260"/>
<path d="M10.8636 65.2715C10.8636 64.9125 10.6719 64.9248 9.8416 64.8625C9.6756 64.8502 9.41993 64.8502 9.41993 64.6772C9.41993 64.4792 9.64993 64.4668 9.80326 64.4668C10.2759 64.4668 10.7616 64.5162 11.2343 64.5162C11.6046 64.5162 12.0899 64.4668 12.3583 64.4668C12.4989 64.4668 12.6523 64.5038 12.6523 64.6648C12.6269 64.8255 12.4736 64.8625 12.2179 64.8625C11.4129 64.8625 11.3749 65.0855 11.3749 66.0145V72.0208C11.3749 72.2562 11.3493 72.4915 11.1576 72.4915C10.9916 72.4915 10.8253 72.3182 10.6719 72.1445L5.24293 66.0395C5.21726 66.0145 5.1786 65.9898 5.1406 65.9898C5.10226 65.9898 5.10226 66.0518 5.10226 66.2252L5.1276 70.2005C5.1276 70.5098 5.15326 70.6835 5.15326 70.9435C5.15326 71.6118 5.44693 71.6742 5.7536 71.6988C6.3796 71.7488 6.75026 71.7362 6.75026 71.9342C6.75026 72.0952 6.63526 72.0952 6.5076 72.0952C6.09893 72.0952 5.57493 72.0455 5.0256 72.0455C3.96526 72.0455 3.78626 72.0952 3.39026 72.0952C3.30093 72.0952 3.16026 72.0828 3.16026 71.9588C3.16026 71.7858 3.22426 71.7732 4.09293 71.6988C4.36126 71.6742 4.4636 71.5625 4.4636 71.3645L4.6166 66.4728C4.6296 66.1878 4.64226 65.9278 4.64226 65.8412C4.64226 65.0118 4.4636 64.9742 4.08026 64.9372C3.32626 64.8755 3.17326 64.8755 3.17326 64.6895C3.17326 64.5535 3.3646 64.4668 3.56926 64.4668C3.74793 64.4668 4.04193 64.5162 4.4636 64.5162C4.83393 64.5162 5.0126 64.4668 5.16593 64.4668C5.44693 64.4668 5.57493 64.6525 5.67693 64.7638L10.6846 70.4855C10.7106 70.5098 10.7233 70.5468 10.7869 70.5468C10.8766 70.5468 10.8636 70.4108 10.8636 70.2128V65.2715Z" fill="#006260"/>
<path d="M17.89 71.0671C17.9156 71.1664 17.9666 71.2901 17.9666 71.3771C17.9666 71.5877 17.724 71.6861 17.6473 71.6991C17.1873 71.7731 16.932 71.8104 16.932 71.9591C16.932 72.0084 16.983 72.0951 17.111 72.0951C17.609 72.0951 18.056 72.0457 18.529 72.0457C19.027 72.0457 19.4613 72.0951 20.0106 72.0951C20.164 72.0951 20.266 72.0704 20.266 71.9467C20.266 71.7607 20.0233 71.7981 19.6783 71.6991C19.5123 71.6491 19.257 71.4884 19.014 70.8074L16.638 64.2311C16.6253 64.1817 16.5613 64.1444 16.485 64.1444C16.4336 64.1444 16.3826 64.1694 16.357 64.2187L13.0993 71.3894C13.0356 71.5254 12.9716 71.6121 12.716 71.6991C12.397 71.8104 12.0646 71.7857 12.0646 71.9467C12.0646 72.0581 12.1156 72.0951 12.218 72.0951C12.6523 72.0951 13.1503 72.0457 13.636 72.0457C14.0063 72.0457 14.4153 72.0951 14.76 72.0951C14.8496 72.0951 15.054 72.0951 15.054 71.9467C15.054 71.8477 14.7983 71.7981 14.4023 71.6991C14.3 71.6741 14.032 71.5747 14.032 71.3274C14.032 71.1914 14.6323 69.4821 14.9386 68.8754C14.99 68.7761 15.1943 68.7267 16.0633 68.7391C17.111 68.7514 17.1616 68.7514 17.264 69.0611L17.89 71.0671ZM16.0633 65.9154C16.076 65.8784 16.1016 65.8534 16.127 65.8534C16.178 65.8534 16.1906 65.9034 16.2036 65.9277L16.881 67.8847C16.919 67.9961 16.9446 68.0581 16.9446 68.1197C16.9446 68.1941 16.127 68.1941 16.0503 68.1941C15.9483 68.1941 15.1306 68.1941 15.1306 68.1321C15.1306 68.0581 15.1816 67.9837 15.2073 67.9094L16.0633 65.9154Z" fill="#006260"/>
<path d="M25.402 64.7389C25.5807 64.7389 25.7597 64.7513 25.9384 64.7266C26.3857 64.6523 26.2964 64.1693 26.5264 64.1693C26.7177 64.1693 26.7177 64.5656 26.7177 65.0856C26.7177 65.6556 26.705 66.2996 26.475 66.2996C26.2197 66.2996 26.258 65.7546 26.092 65.5069C26.015 65.3953 25.517 65.1603 24.2394 65.1603C23.7284 65.1603 23.639 65.1973 23.639 65.9526V70.9433C23.639 71.5253 23.818 71.6246 24.3674 71.6989C24.712 71.7486 25.0444 71.7359 25.0444 71.9343C25.0444 72.0949 24.8527 72.0949 24.776 72.0949C24.3927 72.0949 23.69 72.0456 23.128 72.0456C22.604 72.0456 21.991 72.0949 21.3267 72.0949C21.2627 72.0949 21.1097 72.0949 21.1097 71.9713C21.1097 71.7733 21.5184 71.7606 21.8377 71.6989C22.4127 71.5876 22.5404 71.4016 22.5404 70.6709V65.6926C22.5404 65.1849 22.451 65.1603 21.4034 65.1603C20.2407 65.1603 19.7554 66.3859 19.487 66.3859C19.3594 66.3859 19.334 66.2873 19.334 66.2253C19.334 66.0643 19.717 65.0856 19.8577 64.7143C19.9854 64.3796 20.0364 64.1693 20.2154 64.1693C20.4837 64.1693 20.2537 64.5906 20.688 64.6523C21.3267 64.7266 21.9527 64.7389 22.5787 64.7389H25.402Z" fill="#006260"/>
<path d="M33.8971 65.5563C33.8971 64.9743 33.7441 64.9496 33.2711 64.8626C33.0668 64.8256 32.8368 64.8626 32.8368 64.6276C32.8368 64.5286 32.9521 64.4666 33.1051 64.4666C33.4628 64.4666 33.8461 64.5163 34.2038 64.5163C34.5745 64.5163 34.9575 64.4666 35.3278 64.4666C35.5068 64.4666 35.5708 64.5533 35.5708 64.6646C35.5708 64.8626 35.4048 64.8256 35.1491 64.8626C34.6891 64.9246 34.4081 64.962 34.4081 65.5443V69.1603C34.4081 71.1786 33.8208 72.2683 30.9845 72.2683C28.4551 72.2683 28.1231 71.2033 28.1231 69.358C28.1231 67.897 28.1741 66.8073 28.1741 65.73C28.1741 65.1106 28.1231 64.8753 27.6375 64.8626C27.2288 64.8503 26.9348 64.8503 26.9348 64.702C26.9348 64.5286 27.0115 64.4666 27.2161 64.4666C27.7525 64.4666 28.1611 64.5163 28.6978 64.5163C29.2598 64.5163 29.5155 64.4666 30.1285 64.4666C30.2051 64.4666 30.4478 64.5163 30.4478 64.6523C30.4478 64.8626 30.2948 64.8626 29.8858 64.8626C29.6688 64.8876 29.4005 64.962 29.3491 65.1973C29.2215 65.7546 29.2215 68.9 29.2215 69.5936C29.2215 71.1046 29.7838 71.8476 31.4571 71.8476C33.2328 71.8476 33.8971 71.03 33.8971 69.123V65.5563Z" fill="#006260"/>
<path d="M37.2824 71.1292C37.2824 71.5626 36.9761 71.6619 36.6694 71.6989C36.3627 71.7486 36.0434 71.7232 36.0434 71.9342C36.0304 72.0702 36.1841 72.0949 36.2477 72.0949C36.8607 72.0949 37.4357 72.0456 38.0234 72.0456C38.4961 72.0456 38.9817 72.0949 39.4544 72.0949C39.5051 72.0949 39.7864 72.0826 39.7864 71.9342C39.7864 71.7609 39.5051 71.7486 39.2754 71.6989C38.3811 71.5252 38.3811 71.4266 38.3811 70.8072V68.6646C38.3811 68.4292 38.3811 68.3306 38.7644 68.3306C39.0964 68.3306 39.4414 68.4916 39.5691 68.7019L41.4474 71.9096C41.5111 72.0209 41.5617 72.0209 42.5971 72.0209C43.0057 72.0209 43.2227 72.0332 43.7594 72.0332C43.8491 72.0332 43.8874 71.9836 43.8874 71.9219C43.8874 71.7859 43.6314 71.7732 43.2864 71.6989C42.6481 71.5502 42.3927 71.2656 42.1497 70.8939L40.6424 68.4916C40.5784 68.3922 40.5401 68.3429 40.5401 68.2809C40.5401 68.0949 41.9201 67.6366 41.9201 66.3736C41.9201 64.8382 40.6297 64.4669 39.5691 64.4669C38.9944 64.4669 38.4067 64.5162 37.8317 64.5162C37.4484 64.5162 36.4521 64.4669 36.3501 64.4669C36.2347 64.4669 36.0687 64.5162 36.0687 64.6646C36.0687 64.8382 36.3754 64.8502 36.5161 64.8626C36.9761 64.9002 37.2824 64.9619 37.2824 65.2219V71.1292ZM38.3811 65.2219C38.3811 64.8382 38.7004 64.8382 38.8154 64.8382C39.8504 64.8382 40.8214 65.1356 40.8214 66.3612C40.8214 67.9096 39.8374 68.0086 39.0964 68.0086C38.4961 68.0086 38.3811 67.9712 38.3811 67.8599V65.2219Z" fill="#006260"/>
<path d="M45.3177 65.3457C45.3177 65.024 45.19 64.962 44.7174 64.8627C44.3217 64.7884 44.1554 64.7637 44.1554 64.6154C44.1554 64.504 44.334 64.4667 44.5257 64.4667C44.9987 64.4667 46.0464 64.5164 46.3654 64.5164C46.7487 64.5164 48.55 64.4667 49.6357 64.4667C49.8273 64.4667 49.8273 64.6027 49.8273 64.8627V66.0517C49.8273 66.1014 49.7767 66.1264 49.7253 66.1264C49.5593 66.1264 49.5847 65.99 49.3803 65.5687C49.1883 65.1354 49.125 64.937 46.953 64.937C46.493 64.937 46.4167 65.0984 46.4167 65.5194V67.6617C46.4167 67.9094 46.608 67.9344 47.0554 67.9344H48.1667C49.112 67.9344 48.8183 66.869 49.1377 66.869C49.3037 66.869 49.3163 66.9804 49.3163 67.1167C49.3163 67.4017 49.2653 67.5747 49.2653 68.157C49.2653 68.677 49.3163 69.0117 49.3163 69.358C49.3163 69.47 49.3037 69.5687 49.1757 69.5687C48.9843 69.5687 48.9713 69.3704 48.9077 69.0114C48.7923 68.3677 48.6777 68.281 47.1064 68.281C46.5057 68.281 46.4167 68.355 46.4167 68.6027V71.0054C46.4167 71.5624 46.4674 71.6247 47.9497 71.6247C48.8183 71.6247 49.112 71.5007 49.3803 71.2034C49.9933 70.5224 49.9297 70.2004 50.147 70.2004C50.2617 70.2004 50.2747 70.2624 50.2747 70.3244C50.2747 70.3737 50.2363 70.4357 50.2233 70.5224L49.981 71.7857C49.9427 71.9837 49.866 72.0457 49.6867 72.0457H46.0464C44.6284 72.0457 44.5004 72.095 44.3724 72.095C44.27 72.095 44.0657 72.095 44.0657 71.9467C44.0657 71.7607 44.296 71.7857 44.6154 71.699C44.9474 71.5997 45.3177 71.6617 45.3177 71.1417V65.3457Z" fill="#006260"/>
</svg>
