<?xml version="1.0" encoding="UTF-8"?>
<!-- Created with Inkscape (http://www.inkscape.org/) -->
<svg width="90" height="90" version="1.1" viewBox="0 0 90 90" xml:space="preserve" xmlns="http://www.w3.org/2000/svg" xmlns:cc="http://creativecommons.org/ns#" xmlns:dc="http://purl.org/dc/elements/1.1/" xmlns:rdf="http://www.w3.org/1999/02/22-rdf-syntax-ns#"><metadata><rdf:RDF><cc:Work rdf:about=""><dc:format>image/svg+xml</dc:format><dc:type rdf:resource="http://purl.org/dc/dcmitype/StillImage"/><dc:title/></cc:Work></rdf:RDF></metadata><g transform="matrix(1.3333 0 0 -1.3333 -31.533 121.56)"><g transform="matrix(.058778 0 0 .058778 23.65 23.67)"><g fill="#fddd1b"><path d="m614.17 1086.8 49.344 54.45 30.293-67.11 57.226 46.07 19.434-71.03 63.742 36.54 8.086-73.18 68.68 26.11-3.45-73.553 71.887 15.039-14.883-72.11 73.359 3.594-26-68.887 73.03-7.929-36.42-63.965 70.88-19.277-45.98-57.465 66.99-30.157-54.39-49.539 61.44-40.273-61.48-40.449 54.43-49.375-67.07-30.313 46.04-57.285-70.96-19.453 36.5-63.789-73.1-8.078 26.07-68.75-73.475 3.457 15.007-71.961-72.031 14.91 3.586-73.441-68.828 26.007-7.93-73.078-63.926 36.469-19.257-70.949-57.43 46.031-30.109-67.063-49.532 54.453-40.215-61.512-40.417 61.539-49.336-54.481-30.293 67.09-57.246-46.059-19.434 71-63.742-36.52-8.098 73.192-68.66-26.102 3.445 73.551-71.902-15.039 14.902 72.117-73.371-3.601 25.988 68.906-73.027 7.929 36.426 63.946-70.879 19.297 45.996 57.48-67.012 30.117 54.402 49.571-61.473 40.273 61.473 40.43-54.402 49.363 67.051 30.332-46.035 57.309 70.965 19.453-36.512 63.789 73.125 8.086-26.086 68.73 73.481-3.437-15.024 71.953 72.043-14.902-3.574 73.417 68.828-26.02 7.93 73.11 63.926-36.46 19.257 70.93 57.434-46.01 30.105 67.05 49.532-54.42 40.222 61.49 40.434-61.56"/><path d="m71.934 574.21c0 277.36 224.65 502.2 501.79 502.2 277.14 0 501.79-224.85 501.79-502.2 0-277.36-224.65-502.2-501.79-502.2-277.14 0-501.79 224.83-501.79 502.2"/><path d="m71.934 574.21c0 277.36 224.65 502.2 501.79 502.2 277.14 0 501.79-224.85 501.79-502.2 0-277.36-224.65-502.2-501.79-502.2-277.14 0-501.79 224.83-501.79 502.2"/></g><path d="m71.934 574.21c0 277.36 224.65 502.2 501.79 502.2 277.14 0 501.79-224.85 501.79-502.2 0-277.36-224.65-502.2-501.79-502.2-277.14 0-501.79 224.83-501.79 502.2z" fill="none" stroke="#254aa5" stroke-width="10"/><path d="m231.9 574.44c0 188.8 152.93 341.87 341.59 341.87 188.64 0 341.56-153.07 341.56-341.87 0-188.81-152.92-341.86-341.56-341.86-188.66 0-341.59 153.05-341.59 341.86" fill="#254aa5"/><path d="m231.9 574.44c0 188.8 152.93 341.87 341.59 341.87 188.64 0 341.56-153.07 341.56-341.87 0-188.81-152.92-341.86-341.56-341.86-188.66 0-341.59 153.05-341.59 341.86" fill="#254aa5"/><g fill="#fddd1b"><path d="m829.86 733.56-10.5 30.293-10.105-30.313-32.715-0.019 26.523-18.77-10.175-30.297 26.523 18.793 26.426-18.793-9.707 30.223 26.074 18.844-32.344 0.039"/><path d="m724.73 833.01-10.496 30.293-10.117-30.313-32.734-0.019 26.523-18.77-10.156-30.273 26.523 18.769 26.414-18.769-9.714 30.176 26.093 18.867-32.336 0.039"/><path d="m582.3 872.28-10.508 30.293-10.109-30.312h-32.735l26.535-18.789-10.168-30.274 26.535 18.77 26.407-18.77-9.707 30.195 26.074 18.868-32.324 0.019"/><path d="m441.57 832.99-10.515 30.313-10.11-30.332h-32.722l26.523-18.77-10.156-30.293 26.523 18.77 26.414-18.77-9.714 30.196 26.082 18.867-32.325 0.019"/><path d="m336.44 733.56-10.508 30.293-10.11-30.313-32.722-0.019 26.519-18.77-10.164-30.297 26.524 18.793 26.418-18.793-9.707 30.223 26.074 18.844-32.324 0.039"/><path d="m297.46 583.19-10.508 30.313-10.105-30.313-32.739-0.019 26.536-18.77-10.165-30.293 26.524 18.77 26.426-18.77-9.719 30.196 26.074 18.867-32.324 0.019"/><path d="m342.22 446.08-10.52 30.293-10.105-30.312-32.727-0.02 26.524-18.77-10.157-30.293 26.512 18.79 26.43-18.79-9.719 30.196 26.086 18.867-32.324 0.039"/><path d="m435.79 346.65-10.512 30.274-10.105-30.305h-32.727l26.528-18.777-10.168-30.293 26.523 18.789 26.414-18.789-9.703 30.195 26.07 18.875-32.32 0.031"/><path d="m582.3 295.38-10.508 30.293-10.117-30.305h-32.727l26.535-18.777-10.175-30.293 26.523 18.769 26.426-18.769-9.707 30.215 26.074 18.855-32.324 0.012"/><path d="m728.83 346.63-10.515 30.293-10.11-30.305-32.734-0.027 26.543-18.762-10.188-30.293 26.535 18.781 26.426-18.781-9.719 30.188 26.086 18.867-32.324 0.039"/><path d="m822.42 446.08-10.52 30.273-10.117-30.312h-32.722l26.542-18.77-10.195-30.293 26.543 18.79 26.426-18.79-9.707 30.196 26.074 18.867-32.324 0.039"/><path d="m870.53 583.84-10.507 30.293-10.098-30.313-32.734-0.019 26.535-18.77-10.188-30.293 26.543 18.789 26.426-18.789-9.719 30.215 26.067 18.848-32.325 0.039"/><path d="m829.86 733.56-10.5 30.293-10.105-30.313-32.715-0.019 26.523-18.77-10.175-30.297 26.523 18.793 26.426-18.793-9.707 30.223 26.074 18.844-32.344 0.039"/><path d="m724.73 833.01-10.496 30.293-10.117-30.313-32.734-0.019 26.523-18.77-10.156-30.273 26.523 18.769 26.414-18.769-9.714 30.176 26.093 18.867-32.336 0.039"/><path d="m582.3 872.28-10.508 30.293-10.109-30.312h-32.735l26.535-18.789-10.168-30.274 26.535 18.77 26.407-18.77-9.707 30.195 26.074 18.868-32.324 0.019"/><path d="m441.57 832.99-10.515 30.313-10.11-30.332h-32.722l26.523-18.77-10.156-30.293 26.523 18.77 26.414-18.77-9.714 30.196 26.082 18.867-32.325 0.019"/><path d="m336.44 733.56-10.508 30.293-10.11-30.313-32.722-0.019 26.519-18.77-10.164-30.297 26.524 18.793 26.418-18.793-9.707 30.223 26.074 18.844-32.324 0.039"/><path d="m297.46 583.19-10.508 30.313-10.105-30.313-32.739-0.019 26.536-18.77-10.165-30.293 26.524 18.77 26.426-18.77-9.719 30.196 26.074 18.867-32.324 0.019"/><path d="m342.22 446.08-10.52 30.293-10.105-30.312-32.727-0.02 26.524-18.77-10.157-30.293 26.512 18.79 26.43-18.79-9.719 30.196 26.086 18.867-32.324 0.039"/><path d="m435.79 346.65-10.512 30.274-10.105-30.305h-32.727l26.528-18.777-10.168-30.293 26.523 18.789 26.414-18.789-9.703 30.195 26.07 18.875-32.32 0.031"/><path d="m582.3 295.38-10.508 30.293-10.117-30.305h-32.727l26.535-18.777-10.175-30.293 26.523 18.769 26.426-18.769-9.707 30.215 26.074 18.855-32.324 0.012"/><path d="m728.83 346.63-10.515 30.293-10.11-30.305-32.734-0.027 26.543-18.762-10.188-30.293 26.535 18.781 26.426-18.781-9.719 30.188 26.086 18.867-32.324 0.039"/><path d="m822.42 446.08-10.52 30.273-10.117-30.312h-32.722l26.542-18.77-10.195-30.293 26.543 18.79 26.426-18.79-9.707 30.196 26.074 18.867-32.324 0.039"/><path d="m870.53 583.84-10.507 30.293-10.098-30.313-32.734-0.019 26.535-18.77-10.188-30.293 26.543 18.789 26.426-18.789-9.719 30.215 26.067 18.848-32.325 0.039"/></g><g fill="#254aa5"><path d="m370.35 192.61c-2.981 1.614-4.954 4.035-5.922 7.278-0.969 3.242-0.653 6.347 0.957 9.336 1.609 2.968 4.031 4.949 7.273 5.918 3.242 0.976 6.356 0.644 9.332-0.957 2.985-1.602 4.957-4.036 5.922-7.278 0.973-3.242 0.649-6.355-0.957-9.324-1.605-2.988-4.023-4.961-7.25-5.938-3.227-0.976-6.348-0.656-9.355 0.965"/><path d="m277.17 229.17 14.215 17.957 1.414-1.121c-2.266-3.809-3.617-7.207-4.047-10.188-0.43-2.976-0.02-5.937 1.223-8.875 1.242-2.941 3.039-5.332 5.386-7.199 2.653-2.097 5.493-3.027 8.508-2.781 3.024 0.254 5.348 1.406 6.988 3.477 1.25 1.582 1.844 3.457 1.778 5.625-0.067 3.164-1.809 8.691-5.231 16.601-2.785 6.434-4.511 11.055-5.183 13.848-0.676 2.801-0.739 5.527-0.203 8.164 0.539 2.656 1.629 5 3.261 7.07 3.118 3.926 7.325 6.113 12.629 6.543 5.301 0.43 10.352-1.25 15.145-5.059 1.512-1.191 2.832-2.421 3.98-3.71 0.688-0.754 1.957-2.52 3.809-5.293 1.851-2.774 3.109-4.414 3.773-4.942 0.641-0.508 1.293-0.722 1.969-0.625 0.676 0.086 1.57 0.664 2.699 1.719l1.418-1.125-14.097-17.801-1.414 1.133c2.289 4.246 3.601 7.734 3.945 10.477 0.34 2.746-0.156 5.636-1.496 8.691-1.336 3.059-3.391 5.676-6.145 7.863-3.191 2.52-6.375 3.672-9.558 3.457-3.184-0.215-5.688-1.484-7.504-3.769-1.012-1.282-1.68-2.852-2.012-4.707-0.328-1.856-0.195-3.926 0.395-6.231 0.386-1.543 1.816-5.332 4.289-11.328 2.468-6.016 4.05-10.488 4.753-13.457 0.708-2.969 0.836-5.723 0.391-8.281-0.445-2.559-1.519-4.903-3.215-7.051-2.953-3.723-6.922-5.801-11.914-6.23-4.988-0.43-9.691 1.113-14.105 4.609-2.758 2.176-5.141 5.164-7.157 8.965-0.921 1.777-1.679 2.89-2.265 3.359-0.664 0.516-1.363 0.75-2.102 0.684-0.73-0.059-1.703-0.586-2.902-1.582l-1.418 1.113"/><path d="m272.93 279.84c-0.953 1.476-1.832 2.746-2.637 3.82-0.809 1.082-1.535 1.961-2.184 2.645-2.339 2.453-5.3 3.664-8.894 3.625-3.598-0.032-6.898-1.485-9.914-4.356-2.07-1.984-3.59-4.238-4.563-6.789-0.964-2.547-1.148-5.008-0.55-7.41 0.601-2.402 1.847-4.59 3.738-6.562 1.144-1.204 2.84-2.532 5.086-3.985zm2.015 1.926 13.95 13.32c3.011 2.871 4.57 4.988 4.672 6.348 0.183 1.875-0.594 3.73-2.325 5.546l-1.75 1.836 1.309 1.25 19.586-20.527-1.305-1.25-1.723 1.797c-1.929 2.031-3.972 2.852-6.125 2.461-1.175-0.227-3.132-1.641-5.863-4.25l-30.941-29.539c-3.016-2.871-4.582-4.981-4.707-6.309-0.156-1.906 0.629-3.769 2.355-5.586l1.719-1.797-1.305-1.25-16.758 17.559c-4.089 4.285-6.875 8.086-8.347 11.406-1.481 3.309-1.977 6.817-1.504 10.508 0.476 3.699 2.152 6.914 5.023 9.656 3.911 3.743 8.321 5.481 13.235 5.246 4.906-0.253 9.609-2.726 14.105-7.433 1.106-1.153 2.211-2.481 3.324-3.973 1.122-1.504 2.243-3.183 3.375-5.019"/><path d="m209.73 309.46 21.395 15.078-8.387 11.895c-2.176 3.086-4.094 4.824-5.762 5.195-2.195 0.527-4.894-0.227-8.093-2.246l-1.039 1.484 18.832 13.281 1.047-1.484c-2.375-2.226-3.801-3.789-4.286-4.687-0.589-1.133-0.769-2.434-0.531-3.907 0.235-1.465 1.153-3.32 2.742-5.586l8.387-11.894 17.84 12.578c2.394 1.687 3.773 2.82 4.141 3.398 0.371 0.586 0.523 1.25 0.449 1.993-0.067 0.75-0.625 1.875-1.68 3.359l-6.469 9.18c-2.16 3.054-3.933 5.125-5.336 6.211-1.402 1.082-3.179 1.824-5.328 2.226-2.812 0.477-6.488 0.41-11.035-0.195l-1.129 1.59 16.863 4.894 29.403-41.699-1.477-1.035-1.351 1.914c-0.899 1.269-2.059 2.266-3.477 2.988-1.023 0.547-2.074 0.672-3.14 0.371-1.067-0.293-2.918-1.367-5.551-3.222l-35.157-24.786c-3.429-2.421-5.3-4.257-5.613-5.507-0.39-1.719 0.203-3.684 1.778-5.918l1.351-1.914-1.476-1.047-29.403 41.711 11.43 8.945 1.098-1.555c-2.454-2.566-3.973-4.558-4.559-5.984s-0.688-3.008-0.309-4.727c0.352-1.347 1.477-3.371 3.371-6.054zm-32.507 2.461 22.07-2.063 0.957-1.355-16.723-5.508-6.304 8.926"/><path d="m150.29 403.39 19.633 11.113 0.656-1.367c-5.195-4.727-8.32-9.434-9.371-14.082-1.051-4.66-0.441-9.356 1.824-14.082 1.906-3.957 4.629-7.051 8.176-9.278 3.551-2.246 7.965-3.222 13.242-2.929 5.281 0.273 11.195 1.992 17.738 5.125 5.403 2.59 9.664 5.715 12.793 9.347 3.129 3.633 4.918 7.696 5.364 12.188 0.437 4.492-0.41 8.965-2.551 13.426-1.863 3.879-4.328 6.886-7.414 9.054-3.082 2.168-7.942 3.848-14.57 5.028l0.222 1.789c6.746-0.442 12.317-2.071 16.695-4.875 4.379-2.801 7.891-6.953 10.524-12.43 4.75-9.902 4.758-19.316 0.031-28.262-3.512-6.679-8.965-11.789-16.359-15.343-5.957-2.86-12.071-4.149-18.34-3.875-6.273 0.273-11.902 2.089-16.898 5.449-4.989 3.367-8.817 7.82-11.477 13.367-2.074 4.309-3.063 9.074-2.965 14.289 0.055 1.543-0.051 2.578-0.297 3.106-0.383 0.789-0.992 1.347-1.832 1.66-1.164 0.39-2.519 0.398-4.082 0.047l-0.742 1.535"/><path d="m198.24 467.74 1.719 0.555 8.812-26.961-1.71-0.566-0.731 2.226c-0.848 2.598-2.227 4.238-4.125 4.922-1.234 0.418-3.734 0.02-7.516-1.223l-40.652-13.289c-3.184-1.047-5.226-1.933-6.113-2.676-0.676-0.558-1.129-1.406-1.371-2.55-0.301-1.61-0.207-3.153 0.277-4.637l0.731-2.227-1.719-0.558-8.817 26.965 1.719 0.566 0.742-2.285c0.84-2.559 2.211-4.18 4.11-4.863 1.246-0.45 3.757-0.059 7.531 1.172l40.652 13.3c3.184 1.035 5.227 1.922 6.114 2.657 0.675 0.566 1.125 1.433 1.359 2.605 0.309 1.574 0.219 3.098-0.27 4.582l-0.742 2.285"/><path d="m164.66 509.66-24.371-15.742 28.363-6.66zm3.32 1.992 4.496-25.246 11.079-2.586c2.726-0.644 4.711-0.839 5.961-0.625 0.992 0.176 1.785 0.801 2.371 1.895 0.582 1.074 0.707 3.203 0.371 6.387l1.777 0.312 3.66-20.527-1.777-0.313c-0.965 2.637-1.906 4.285-2.817 4.95-1.832 1.359-5.277 2.609-10.339 3.761l-57.743 13.36-0.296 1.687 50.175 32.356c4.036 2.605 6.567 4.765 7.598 6.484 1.035 1.727 1.391 3.926 1.078 6.621l1.777 0.313 4.586-25.715-1.777-0.321c-0.59 2.579-1.34 4.258-2.234 5.039-0.903 0.782-1.883 1.075-2.938 0.887-1.41-0.254-3.523-1.289-6.344-3.113l-8.664-5.606"/><path d="m166.75 598.84 0.32 1.613 18.063-5.359 0.863-51.254-1.808-0.039-0.039 2.5c-0.047 2.793-0.997 4.785-2.836 5.957-1.055 0.656-3.465 0.961-7.243 0.898l-42.718-0.722c-4.137-0.071-6.715-0.567-7.739-1.496-1.414-1.297-2.093-3.192-2.054-5.704l0.043-2.488-1.809-0.031-0.508 29.977 1.809 0.027c0.027-3.516 0.394-5.969 1.101-7.375s1.586-2.36 2.637-2.863c1.051-0.504 3.547-0.723 7.481-0.653l41.597 0.703c2.699 0.043 4.555 0.336 5.551 0.871 0.68 0.403 1.172 1.012 1.484 1.832 0.313 0.821 0.43 3.36 0.364 7.629l-0.082 4.829c-0.09 5.078-0.52 8.636-1.305 10.671-0.781 2.043-2.141 3.887-4.074 5.547-1.934 1.66-4.965 3.309-9.098 4.93"/><path d="m187.73 633.9 1.797-0.195-3.109-28.199-1.797 0.195 0.258 2.336c0.297 2.715-0.278 4.774-1.731 6.18-0.945 0.89-3.39 1.554-7.339 1.988l-42.516 4.691c-3.336 0.368-5.559 0.399-6.672 0.098-0.844-0.238-1.613-0.824-2.309-1.762-0.933-1.336-1.484-2.781-1.656-4.336l-0.258-2.328-1.793 0.196 3.114 28.199 1.789-0.195-0.258-2.379c-0.297-2.688 0.277-4.731 1.726-6.137 0.95-0.926 3.395-1.602 7.34-2.039l42.52-4.688c3.332-0.371 5.555-0.398 6.672-0.097 0.843 0.234 1.609 0.836 2.308 1.808 0.926 1.309 1.481 2.735 1.653 4.285l0.261 2.379"/><path d="m137.57 707.45 15.285-2.808-0.418-1.805c-2.746 0.265-4.753 0.238-6.039-0.098-2.066-0.558-3.726-1.551-4.98-2.98-1.25-1.426-2.188-3.473-2.809-6.137l-2.113-9.082 49.266-11.477c3.961-0.921 6.535-1.074 7.714-0.441 1.614 0.891 2.711 2.59 3.297 5.098l0.52 2.234 1.762-0.41-6.371-27.344-1.758 0.41 0.531 2.282c0.633 2.722 0.258 4.851-1.125 6.375-0.848 0.933-3.086 1.824-6.699 2.668l-49.266 11.472-1.808-7.746c-0.7-3.016-0.977-5.207-0.829-6.578 0.219-1.789 1.047-3.473 2.485-5.039 1.441-1.574 3.594-2.813 6.461-3.711l-0.426-1.809-14.941 4.286 12.261 52.64"/><path d="m152.79 738.74 24.219-9.918 5.511 13.461c1.43 3.496 1.864 6.047 1.29 7.653-0.747 2.132-2.829 4.007-6.25 5.621l0.683 1.668 21.332-8.731-0.687-1.672c-3.153 0.801-5.239 1.16-6.254 1.086-1.274-0.109-2.473-0.664-3.578-1.648-1.11-0.992-2.184-2.766-3.235-5.324l-5.511-13.465 20.195-8.274c2.715-1.105 4.41-1.664 5.097-1.664 0.684 0 1.329 0.231 1.918 0.695 0.59 0.458 1.239 1.532 1.926 3.223l4.258 10.391c1.414 3.465 2.207 6.078 2.367 7.84 0.156 1.761-0.176 3.664-0.996 5.683-1.101 2.637-3.14 5.699-6.101 9.199l0.742 1.809 13.195-11.578-19.336-47.219-1.668 0.684 0.887 2.168c0.594 1.445 0.808 2.961 0.644 4.539-0.086 1.16-0.543 2.113-1.367 2.855-0.82 0.739-2.722 1.723-5.707 2.946l-39.808 16.296c-3.883 1.594-6.442 2.18-7.664 1.77-1.649-0.594-2.993-2.156-4.028-4.684l-0.887-2.168-1.675 0.684 19.336 47.223 13.695-4.821-0.719-1.761c-3.48 0.687-5.984 0.89-7.504 0.617-1.515-0.278-2.902-1.035-4.152-2.285-0.945-1.02-2.043-3.051-3.289-6.094zm-15.41 28.731 10.133-19.711-0.629-1.539-13.649 11.129 4.145 10.121"/><path d="m216.34 858.3 13.125-8.324-1.067-1.52c-2.445 1.281-4.324 2.004-5.636 2.168-2.125 0.262-4.036-0.039-5.731-0.898-1.699-0.852-3.328-2.403-4.902-4.641l-5.36-7.633 41.395-29.074c3.332-2.336 5.66-3.438 6.992-3.293 1.832 0.223 3.485 1.391 4.961 3.496l1.32 1.875 1.481-1.035-16.141-22.981-1.472 1.039 1.339 1.922c1.614 2.289 2.063 4.399 1.348 6.332-0.437 1.18-2.176 2.84-5.215 4.977l-41.394 29.07-4.574-6.511c-1.778-2.532-2.86-4.461-3.235-5.79-0.465-1.742-0.324-3.605 0.422-5.605 0.746-1.996 2.277-3.945 4.598-5.852l-1.063-1.519-12.262 9.566 31.071 44.231"/><path d="m262.57 861.71c0.434 0.437 0.817 0.816 1.149 1.129 0.332 0.312 0.597 0.574 0.808 0.781 4.438 4.492 6.813 8.836 7.125 13.039 0.309 4.207-1.043 7.793-4.051 10.77-2.937 2.902-6.238 4.347-9.902 4.328-3.656-0.024-6.984-1.547-9.984-4.578-1.328-1.344-2.906-3.379-4.731-6.106zm57.262 9.508-12.43-12.571-37.773 5.832c-1.117-1.226-2.043-2.214-2.778-2.949-0.296-0.304-0.625-0.621-0.98-0.957-0.352-0.34-0.723-0.679-1.113-1.027l13.676-13.524c2.964-2.929 5.125-4.425 6.484-4.488 1.891-0.129 3.699 0.688 5.437 2.449l1.825 1.836 1.285-1.269-19.949-20.168-1.286 1.269 1.754 1.77c1.969 1.988 2.727 4.055 2.278 6.191-0.235 1.2-1.696 3.121-4.379 5.778l-30.422 30.074c-2.957 2.93-5.121 4.422-6.481 4.488-1.91 0.102-3.75-0.738-5.511-2.515l-1.746-1.774-1.286 1.27 16.957 17.152c4.946 5 8.957 8.328 12.032 9.977 3.07 1.652 6.406 2.339 10 2.062 3.59-0.285 6.742-1.758 9.449-4.441 2.894-2.86 4.473-6.282 4.734-10.278 0.266-3.992-1.117-8.402-4.152-13.226l23.117-3.633c5.305-0.844 9.25-0.977 11.848-0.387 2.597 0.59 5.304 2.035 8.125 4.332l1.285-1.273"/><path d="m340.78 917.53-24.558 15.453 5.929-28.519zm3.195-2.175-20.988-14.719 2.324-11.133c0.575-2.746 1.223-4.637 1.954-5.676 0.578-0.824 1.48-1.273 2.707-1.347 1.222-0.079 3.207 0.707 5.953 2.355l1.035-1.48-17.067-11.973-1.043 1.48c1.989 1.985 3.086 3.536 3.309 4.641 0.465 2.234 0.141 5.887-0.953 10.965l-12.231 57.98 1.403 0.989 50.496-31.856c4.062-2.558 7.09-3.941 9.086-4.152 2-0.207 4.144 0.398 6.457 1.812l1.035-1.48-21.387-15-1.035 1.48c2.082 1.617 3.289 3.004 3.617 4.145 0.332 1.148 0.188 2.16-0.429 3.043-0.821 1.172-2.657 2.648-5.496 4.433l-8.747 5.493"/><path d="m395.1 925.29c4.14 0.883 7.48 1.91 10.031 3.07 6.871 3.141 11.469 8.157 13.797 15.051 2.324 6.895 1.605 14.473-2.168 22.735-3.797 8.32-9.059 13.847-15.778 16.578-6.714 2.726-13.629 2.468-20.742-0.774-2.664-1.215-5.5-3.031-8.512-5.445zm-15.204-12.203-0.75 1.648 2.27 1.036c2.543 1.16 3.977 2.796 4.301 4.914 0.203 1.277-0.469 3.613-2.024 7.019l-17.761 38.91c-1.715 3.766-3.204 5.926-4.469 6.5-1.746 0.774-3.766 0.637-6.039-0.402l-2.266-1.031-0.754 1.64 24.524 11.192c9 4.113 16.312 6.218 21.941 6.316 5.625 0.098 10.953-1.582 15.988-5.051 5.036-3.461 8.981-8.32 11.829-14.566 3.824-8.379 4.472-16.547 1.949-24.496-2.852-8.887-10.121-16-21.821-21.336l-26.918-12.293"/><path d="m473.57 951.83 0.524-1.73-27.157-8.211-0.519 1.726 2.238 0.68c2.625 0.793 4.289 2.129 5.012 4.016 0.449 1.218 0.098 3.734-1.055 7.539l-12.383 40.937c-0.964 3.211-1.812 5.265-2.531 6.175-0.547 0.68-1.387 1.16-2.523 1.43-1.594 0.33-3.145 0.27-4.637-0.18l-2.242-0.68-0.524 1.73 27.157 8.21 0.519-1.72-2.289-0.7c-2.59-0.78-4.242-2.11-4.961-4-0.476-1.23-0.14-3.75 1.008-7.55l12.383-40.945c0.969-3.207 1.812-5.262 2.527-6.172 0.547-0.684 1.406-1.156 2.574-1.414 1.563-0.344 3.094-0.289 4.59 0.164l2.289 0.695"/><path d="m521.91 1026.8 3.395-15.17-1.832-0.32c-0.821 2.64-1.641 4.47-2.446 5.52-1.324 1.69-2.883 2.83-4.687 3.43-1.809 0.59-4.059 0.65-6.75 0.18l-9.188-1.61 8.696-49.824c0.699-4.016 1.566-6.438 2.609-7.282 1.449-1.132 3.445-1.48 5.977-1.039l2.257 0.395 0.313-1.777-27.656-4.825-0.313 1.778 2.313 0.406c2.757 0.476 4.562 1.656 5.425 3.519 0.532 1.153 0.477 3.555-0.164 7.211l-8.691 49.828-7.844-1.36c-3.047-0.54-5.168-1.14-6.375-1.81-1.562-0.9-2.781-2.32-3.668-4.26-0.883-1.94-1.18-4.4-0.89-7.39l-1.829-0.32-1.898 15.43 53.246 9.29"/><path d="m567.43 964.68 0.089-1.801-28.335-1.438-0.086 1.801 2.339 0.125c2.731 0.137 4.672 1.035 5.829 2.688 0.726 1.082 0.992 3.605 0.789 7.57l-2.164 42.715c-0.172 3.35-0.497 5.55-0.973 6.6-0.367 0.8-1.07 1.47-2.106 2-1.468 0.7-2.98 1.02-4.546 0.94l-2.336-0.12-0.094 1.81 28.336 1.43 0.086-1.8-2.387-0.12c-2.699-0.14-4.625-1.03-5.781-2.69-0.758-1.08-1.039-3.61-0.84-7.57l2.168-42.722c0.172-3.348 0.492-5.547 0.973-6.602 0.367-0.797 1.082-1.461 2.152-1.992 1.433-0.707 2.933-1.024 4.496-0.941l2.391 0.117"/><path d="m610.91 1025.2c-5.894 0.5-10.816-1.28-14.761-5.35-4.907-5.08-7.817-12.87-8.711-23.376-0.918-10.765 0.679-19.25 4.793-25.449 3.156-4.711 7.636-7.316 13.449-7.812 6.187-0.532 11.512 1.453 15.965 5.937 4.445 4.488 7.121 11.942 8.007 22.352 0.965 11.288-0.539 19.888-4.503 25.818-3.204 4.71-7.938 7.34-14.239 7.88zm1.235 3.47c8.562-0.73 15.703-4.62 21.422-11.65 5.722-7.04 8.167-15.43 7.343-25.159-0.855-10.019-4.734-18.07-11.621-24.144-6.89-6.079-14.82-8.731-23.805-7.965-9.085 0.773-16.449 4.652-22.074 11.636-5.625 6.977-8.008 15.594-7.129 25.844 0.903 10.468 5.2 18.718 12.895 24.728 6.687 5.21 14.344 7.44 22.969 6.71"/><path d="m658.55 1022.3 17.312-4.78 25.789-58.645 10.176 36.801c1.074 3.926 1.313 6.494 0.703 7.714-0.797 1.63-2.437 2.8-4.961 3.49l-2.207 0.61 0.481 1.74 22.219-6.13-0.493-1.74-2.246 0.62c-2.703 0.75-4.84 0.46-6.425-0.86-0.965-0.81-1.942-3.006-2.926-6.588l-14.864-53.793-1.703 0.469-27.871 63.022-10.855-39.308c-1.086-3.918-1.328-6.488-0.766-7.695 0.844-1.644 2.485-2.812 4.961-3.496l2.27-0.625-0.493-1.738-22.207 6.132 0.481 1.747 2.219-0.614c2.722-0.754 4.879-0.472 6.464 0.848 0.958 0.812 1.942 3.012 2.926 6.586l12.27 44.383c-1.262 2.68-2.27 4.49-3.039 5.45-0.774 0.95-1.992 1.98-3.684 3.09-0.828 0.53-2.168 1.06-4.019 1.57l0.488 1.74"/><path d="m739.84 998.9 16.164-7.855 14.707-62.355 16.687 34.347c1.778 3.656 2.469 6.141 2.102 7.445-0.488 1.758-1.906 3.204-4.238 4.34l-2.075 1.008 0.793 1.621 20.735-10.07-0.801-1.625-2.102 1.023c-2.519 1.223-4.675 1.328-6.472 0.321-1.098-0.625-2.461-2.606-4.082-5.946l-24.387-50.199-1.582 0.774-15.969 67.035-17.808-36.676c-1.782-3.656-2.493-6.133-2.153-7.426 0.532-1.769 1.938-3.219 4.25-4.34l2.11-1.027-0.789-1.625-20.723 10.074 0.777 1.625 2.075-1c2.539-1.242 4.707-1.355 6.5-0.344 1.105 0.625 2.46 2.602 4.082 5.942l20.128 41.418c-0.753 2.855-1.418 4.828-1.992 5.902-0.578 1.078-1.593 2.317-3.054 3.711-0.723 0.68-1.946 1.438-3.672 2.277l0.789 1.625"/><path d="m830.39 945.46-15.235-21.285 11.836-8.465c3.067-2.203 5.449-3.211 7.149-3.02 2.246 0.235 4.55 1.829 6.906 4.786l1.465-1.055-13.41-18.738-1.473 1.054c1.504 2.883 2.344 4.828 2.5 5.832 0.191 1.27-0.078 2.555-0.781 3.864-0.703 1.304-2.192 2.765-4.438 4.375l-11.836 8.468-12.691-17.746c-1.699-2.383-2.641-3.91-2.793-4.574-0.156-0.668-0.078-1.348 0.23-2.027 0.305-0.684 1.203-1.559 2.688-2.617l9.133-6.54c3.047-2.175 5.41-3.546 7.089-4.109 1.676-0.562 3.59-0.676 5.758-0.344 2.817 0.469 6.274 1.739 10.356 3.821l1.582-1.137-14.297-10.176-41.496 29.699 1.047 1.465 1.914-1.359c1.265-0.91 2.691-1.465 4.258-1.676 1.152-0.18 2.183 0.043 3.093 0.672 0.91 0.625 2.305 2.254 4.18 4.875l25.039 34.98c2.441 3.414 3.606 5.766 3.484 7.051-0.195 1.738-1.406 3.406-3.628 5l-1.899 1.363 1.047 1.469 41.492-29.695-7.847-12.223-1.543 1.106c1.46 3.234 2.246 5.617 2.324 7.16 0.086 1.543-0.332 3.066-1.262 4.57-0.769 1.153-2.488 2.684-5.164 4.598l-14.777 10.578"/><path d="m880.34 843.98 0.906-1.371-16.648-8.828-36.528 35.981 1.274 1.289 1.773-1.746c1.992-1.965 4.067-2.723 6.192-2.266 1.234 0.258 3.167 1.738 5.812 4.422l29.98 30.441c2.903 2.942 4.395 5.106 4.485 6.489 0.098 1.91-0.742 3.746-2.539 5.504l-1.77 1.746 1.27 1.289 21.355-21.039-1.265-1.289c-2.485 2.488-4.473 3.988-5.957 4.496-1.489 0.507-2.786 0.574-3.887 0.195-1.098-0.375-3.027-1.969-5.805-4.773l-29.195-29.637c-1.899-1.922-3.012-3.426-3.344-4.512-0.203-0.762-0.137-1.543 0.219-2.348 0.348-0.8 2.051-2.699 5.086-5.691l3.445-3.394c3.613-3.567 6.418-5.797 8.402-6.704 1.993-0.906 4.254-1.277 6.793-1.105 2.54 0.168 5.864 1.117 9.946 2.851"/><path d="m918.94 792.82 0.679-1.5-17.84-6.066-30.324 41.336 1.445 1.066 1.489-2.004c1.648-2.257 3.574-3.332 5.75-3.222 1.242 0.062 3.386 1.211 6.433 3.445l34.446 25.273c3.332 2.446 5.144 4.348 5.449 5.7 0.398 1.871-0.137 3.816-1.61 5.836l-1.488 2.011 1.469 1.063 17.73-24.168-1.461-1.07c-2.05 2.855-3.769 4.648-5.16 5.386-1.382 0.735-2.652 1.008-3.804 0.813-1.157-0.199-3.313-1.457-6.489-3.793l-33.535-24.61c-2.183-1.597-3.523-2.906-4.019-3.921-0.332-0.723-0.371-1.504-0.16-2.352 0.214-0.852 1.582-2.992 4.113-6.43l2.859-3.898c3.012-4.098 5.41-6.746 7.231-7.957 1.812-1.211 3.992-1.934 6.531-2.176 2.527-0.234 5.957 0.176 10.266 1.238"/><path d="m971.71 788.68-23.32-11.879 6.597-12.965c1.723-3.363 3.371-5.356 4.961-5.969 2.102-0.828 4.887-0.473 8.344 1.067l0.816-1.614-20.546-10.457-0.821 1.61c2.68 1.867 4.301 3.214 4.903 4.035 0.761 1.035 1.117 2.301 1.093 3.785-0.027 1.484-0.664 3.461-1.922 5.922l-6.613 12.969-19.441-9.907c-2.61-1.328-4.129-2.258-4.578-2.773-0.454-0.524-0.696-1.16-0.735-1.906-0.039-0.75 0.364-1.938 1.184-3.563l5.097-10.008c1.7-3.332 3.165-5.636 4.391-6.914 1.234-1.269 2.895-2.254 4.965-2.953 2.715-0.883 6.363-1.344 10.957-1.383l0.879-1.734-17.387-2.449-23.164 45.468 1.613 0.821 1.067-2.09c0.703-1.391 1.719-2.543 3.015-3.445 0.938-0.696 1.954-0.973 3.055-0.832 1.098 0.136 3.09 0.937 5.957 2.402l38.32 19.527c3.75 1.903 5.864 3.457 6.348 4.653 0.625 1.636 0.324 3.671-0.918 6.109l-1.062 2.086 1.613 0.82 23.152-45.465-12.59-7.238-0.855 1.699c2.793 2.188 4.566 3.953 5.359 5.282 0.782 1.332 1.106 2.875 0.989 4.636-0.161 1.383-0.989 3.535-2.485 6.465l-8.238 16.188"/><path d="m1023.3 656.63-19.96-6.422-0.39 1.664c4.69 2.867 8 5.93 9.94 9.195 2.81 4.703 3.52 10.063 2.11 16.086-1.91 8.211-6.62 13.696-14.12 16.453-6.327 2.305-13.273 2.571-20.851 0.801-6.144-1.441-11.476-3.941-15.996-7.5-4.523-3.562-7.512-7.543-8.977-11.949-1.453-4.402-1.714-8.633-0.757-12.688 0.546-2.378 1.382-4.605 2.507-6.687 1.122-2.074 2.508-4.008 4.168-5.793l18.633 4.355c3.235 0.75 5.293 1.493 6.176 2.215 0.887 0.727 1.465 1.664 1.758 2.817 0.269 1.152 0.117 3.027-0.488 5.633l1.792 0.417 5.84-24.96-1.804-0.426-0.286 1.191c-0.574 2.473-1.792 3.977-3.652 4.508-1.324 0.363-3.711 0.137-7.168-0.668l-19.734-4.609c-2.821 3.183-5.098 6.445-6.848 9.781-1.746 3.332-3.125 7.176-4.14 11.516-2.911 12.457-1.129 22.851 5.355 31.187 4.852 6.25 11.187 10.289 19.02 12.113 5.683 1.328 11.425 1.239 17.265-0.277 6.938-1.785 12.737-5.113 17.387-9.981 3.85-4.078 6.54-9.335 8.04-15.769 0.55-2.344 0.85-4.523 0.92-6.531 0.06-2.004-0.13-4.914-0.61-8.739-0.26-1.933-0.31-3.199-0.17-3.8 0.14-0.606 0.54-1.055 1.19-1.352 0.66-0.297 1.8-0.309 3.44-0.023l0.41-1.758"/><path d="m987.67 587.3 26.192 12.496-27.278 10.227zm-3.535-1.539-1.235 25.605-10.652 3.985c-2.629 0.988-4.558 1.445-5.828 1.386-1.02-0.046-1.875-0.57-2.602-1.566-0.711-0.996-1.113-3.09-1.187-6.289l-1.801-0.09-0.992 20.828 1.797 0.086c0.625-2.738 1.347-4.496 2.168-5.273 1.637-1.586 4.89-3.27 9.762-5.059l55.547-20.66 0.08-1.707-53.909-25.649c-4.336-2.066-7.129-3.886-8.367-5.46-1.238-1.579-1.887-3.715-1.926-6.426l-1.797-0.082-1.25 26.093 1.809 0.083c0.254-2.625 0.77-4.383 1.57-5.278 0.793-0.89 1.723-1.308 2.793-1.262 1.438 0.071 3.664 0.832 6.692 2.278l9.328 4.457"/><path d="m994.35 533.62c-0.071-0.617-0.149-1.152-0.215-1.601-0.078-0.45-0.129-0.821-0.156-1.114-0.786-6.261 0-11.152 2.324-14.668 2.32-3.515 5.579-5.527 9.779-6.054 4.11-0.5 7.6 0.371 10.49 2.636 2.87 2.246 4.58 5.489 5.1 9.727 0.23 1.875 0.23 4.441 0.02 7.715zm-39.512-42.519 2.168 17.539 33.457 18.476c0.137 1.649 0.262 2.996 0.391 4.031 0.054 0.422 0.117 0.872 0.195 1.36 0.066 0.476 0.152 0.976 0.254 1.484l-19.106 2.344c-4.129 0.508-6.757 0.371-7.871-0.41-1.558-1.055-2.5-2.805-2.808-5.254l-0.317-2.578-1.797 0.222 3.457 28.161 1.797-0.219-0.301-2.477c-0.339-2.777 0.325-4.867 1.985-6.293 0.918-0.8 3.25-1.425 7-1.894l42.45-5.215c4.14-0.508 6.76-0.371 7.87 0.41 1.58 1.094 2.52 2.879 2.83 5.371l0.3 2.461 1.79-0.215-2.94-23.945c-0.85-6.973-2-12.051-3.42-15.246-1.42-3.192-3.64-5.77-6.65-7.742-3.02-1.973-6.42-2.735-10.19-2.266-4.04 0.496-7.384 2.246-10.036 5.242-2.649 3-4.25 7.336-4.797 13.008l-20.52-11.258c-4.707-2.558-7.91-4.883-9.605-6.933-1.699-2.051-2.961-4.844-3.789-8.391l-1.797 0.227"/><path d="m966.52 441.46 28.882 2.727-22.097 18.984zm-3.86-0.223 7.649 24.461-8.633 7.414c-2.121 1.817-3.789 2.918-5 3.301-0.957 0.293-1.953 0.098-2.973-0.586-1.011-0.683-2.105-2.519-3.277-5.5l-1.723 0.539 6.211 19.903 1.731-0.54c-0.364-2.781-0.286-4.687 0.214-5.691 0.997-2.051 3.477-4.758 7.442-8.105l45.063-38.496-0.51-1.633-59.448-5.555c-4.785-0.449-8.023-1.203-9.734-2.258-1.707-1.043-3.047-2.84-4.016-5.371l-1.714 0.539 7.792 24.942 1.727-0.547c-0.664-2.559-0.769-4.387-0.344-5.489 0.442-1.113 1.172-1.836 2.2-2.148 1.367-0.43 3.718-0.488 7.058-0.168l10.285 0.988"/><path d="m992.41 392.1-8.531-15.821-62.91-12.062 33.601-18.125c3.582-1.922 6.028-2.735 7.356-2.41 1.773 0.41 3.277 1.758 4.512 4.062l1.089 2.012 1.582-0.859-10.933-20.286-1.582 0.86 1.109 2.062c1.328 2.461 1.527 4.61 0.59 6.446-0.578 1.132-2.5 2.578-5.766 4.336l-49.121 26.484 0.832 1.551 67.649 13.117-35.879 19.355c-3.586 1.922-6.028 2.743-7.336 2.442-1.785-0.43-3.289-1.778-4.524-4.043l-1.101-2.071-1.594 0.86 10.942 20.293 1.589-0.86-1.086-2.031c-1.343-2.48-1.558-4.648-0.625-6.484 0.586-1.125 2.5-2.571 5.762-4.336l40.528-21.856c2.89 0.625 4.894 1.211 6 1.739 1.089 0.547 2.378 1.504 3.828 2.898 0.711 0.695 1.519 1.887 2.429 3.574l1.59-0.847"/><path d="m914.91 272.68-12.637 9.05 1.157 1.457c2.363-1.418 4.199-2.246 5.496-2.48 2.109-0.383 4.035-0.195 5.769 0.566 1.743 0.762 3.457 2.207 5.16 4.356l5.782 7.324-39.68 31.367c-3.191 2.52-5.461 3.75-6.785 3.692-1.848-0.129-3.567-1.192-5.156-3.215l-1.426-1.805-1.418 1.133 17.414 22.019 1.414-1.121-1.453-1.836c-1.738-2.199-2.309-4.277-1.699-6.25 0.371-1.211 2.007-2.968 4.922-5.265l39.683-31.375 4.942 6.25c1.918 2.422 3.097 4.297 3.546 5.594 0.567 1.71 0.539 3.585-0.105 5.617-0.625 2.039-2.055 4.082-4.262 6.113l1.156 1.445 11.7-10.234-33.52-42.402"/><path d="m839.64 288.75-1.274 1.281 20.168 19.961 1.27-1.289-1.668-1.64c-1.938-1.926-2.793-3.887-2.551-5.899 0.184-1.289 1.672-3.34 4.465-6.164l30.078-30.398c2.359-2.383 4.07-3.809 5.137-4.278 0.797-0.351 1.754-0.371 2.886-0.078 1.575 0.449 2.911 1.231 4.028 2.324l1.66 1.649 1.265-1.277-20.156-19.961-1.265 1.289 1.699 1.679c1.914 1.895 2.754 3.848 2.515 5.86-0.156 1.308-1.636 3.379-4.429 6.191l-30.09 30.41c-2.356 2.383-4.063 3.809-5.125 4.266-0.805 0.351-1.777 0.363-2.934 0.051-1.543-0.43-2.871-1.192-3.98-2.285l-1.699-1.692"/><path d="m859.03 225.41-16.051 20.664-11.496-8.925c-2.976-2.313-4.621-4.317-4.929-5.997-0.41-2.214 0.457-4.871 2.617-7.976l-1.43-1.113-14.137 18.203 1.422 1.113c2.344-2.266 3.965-3.625 4.883-4.062 1.176-0.547 2.485-0.665 3.93-0.352 1.453 0.301 3.277 1.309 5.457 2.996l11.496 8.938-13.398 17.226c-1.797 2.313-2.993 3.641-3.586 3.984-0.594 0.34-1.258 0.458-2 0.352-0.754-0.098-1.836-0.703-3.286-1.828l-8.867-6.895c-2.957-2.293-4.937-4.168-5.957-5.613-1.011-1.445-1.679-3.262-1.969-5.43-0.351-2.832-0.121-6.503 0.704-11.015l-1.543-1.192-5.676 16.61 40.293 31.301 1.101-1.426-1.843-1.426c-1.231-0.969-2.176-2.168-2.825-3.613-0.496-1.055-0.586-2.11-0.23-3.164 0.34-1.055 1.504-2.852 3.477-5.391l26.394-33.965c2.578-3.32 4.504-5.109 5.773-5.351 1.715-0.313 3.661 0.371 5.821 2.05l1.851 1.434 1.106-1.434-40.293-31.3-9.485 11.007 1.504 1.172c2.676-2.343 4.746-3.769 6.204-4.277 1.457-0.527 3.039-0.547 4.738-0.098 1.328 0.41 3.301 1.629 5.887 3.653l14.343 11.14"/><path d="m772.14 189.25c-3.008-1.551-6.125-1.824-9.348-0.789-3.223 1.015-5.613 3.035-7.168 6.043s-1.824 6.125-0.789 9.347c1.016 3.223 3.047 5.614 6.043 7.168 3.008 1.563 6.125 1.817 9.348 0.801 3.218-1.035 5.613-3.047 7.168-6.054 1.558-3.008 1.835-6.114 0.82-9.336-1.02-3.223-3.039-5.606-6.074-7.18"/></g></g></g></svg>
