<?xml version="1.0" encoding="UTF-8" standalone="no"?>
<!-- Created with Inkscape (http://www.inkscape.org/) -->

<svg
   width="200"
   height="100"
   viewBox="0 0 96 96"
   version="1.1"
   id="svg39064"
   inkscape:version="1.2 (dc2aeda, 2022-05-15)"
   sodipodi:docname="backmarket.200x100.svg"
   xmlns:inkscape="http://www.inkscape.org/namespaces/inkscape"
   xmlns:sodipodi="http://sodipodi.sourceforge.net/DTD/sodipodi-0.dtd"
   xmlns="http://www.w3.org/2000/svg"
   xmlns:svg="http://www.w3.org/2000/svg">
  <sodipodi:namedview
     id="namedview39066"
     pagecolor="#ffffff"
     bordercolor="#666666"
     borderopacity="1.0"
     inkscape:showpageshadow="2"
     inkscape:pageopacity="0.0"
     inkscape:pagecheckerboard="0"
     inkscape:deskcolor="#d1d1d1"
     inkscape:document-units="mm"
     showgrid="false"
     showguides="false"
     inkscape:zoom="1.4485269"
     inkscape:cx="175.69573"
     inkscape:cy="250.94459"
     inkscape:window-width="2560"
     inkscape:window-height="1376"
     inkscape:window-x="0"
     inkscape:window-y="0"
     inkscape:window-maximized="1"
     inkscape:current-layer="layer1" />
  <defs
     id="defs39061" />
  <g
     inkscape:label="Calque 1"
     inkscape:groupmode="layer"
     id="layer1">
    <path
       d="M -21.15877,58.487736 V 37.297292 h 8.13836 c 3.716,0 6.29572,2.395442 6.29572,5.80434 0,1.811936 -0.89062,3.470318 -2.48758,4.360932 2.11904,0.798478 3.34748,2.610416 3.34748,4.975146 0,3.562452 -2.51828,6.050026 -6.35714,6.050026 z m 3.53174,-12.222894 h 4.2381 c 1.93478,0 3.1632,-1.16701 3.1632,-2.917524 0,-1.750516 -1.22842,-2.948236 -3.1632,-2.948236 h -4.2381 z m 0,9.121104 h 4.66804 c 2.14976,0 3.56246,-1.197722 3.56246,-3.071078 0,-1.873358 -1.4127,-3.071078 -3.56246,-3.071078 h -4.66804 z m 13.2466,-4.514486 c 0,-4.453064 3.31676,-7.923382 7.67768,-7.923382 2.14976,0 3.9617,0.859902 5.098,2.334016 v -2.026908 h 3.25534 v 15.23255 H 8.39525 v -2.026912 c -1.1056,1.474116 -2.94824,2.334016 -5.098,2.334016 -4.36092,0 -7.67768,-3.470318 -7.67768,-7.92338 z m 12.65284,0 c 0,-2.73326 -1.93478,-4.729462 -4.60662,-4.729462 -2.67184,0 -4.63734,1.996202 -4.63734,4.729462 0,2.733262 1.9655,4.69875 4.63734,4.69875 2.67184,0 4.60662,-1.965488 4.60662,-4.69875 z m 5.24514,0 c 0,-4.453064 3.47032,-7.923382 8.01552,-7.923382 3.74672,0 6.2957,2.303306 7.24774,4.729458 l -3.19392,1.228432 c -0.61422,-1.59696 -2.18046,-2.76397 -4.05382,-2.76397 -2.67184,0 -4.60662,2.057624 -4.60662,4.729462 0,2.671838 1.96548,4.72946 4.60662,4.72946 1.90406,0 3.4396,-1.1363 4.05382,-2.73326 l 3.19392,1.197722 c -0.95204,2.456862 -3.50102,4.729458 -7.24774,4.729458 -4.5452,0 -8.01552,-3.470318 -8.01552,-7.92338 z m 17.44372,7.616276 V 37.297292 h 3.4089 v 12.714266 l 5.9579,-6.756372 h 4.02312 l -6.32644,7.278454 6.60282,7.954096 h -4.14594 l -6.11146,-7.247748 v 7.247748 z m 18.35098,-0.0038 V 37.20516 h 4.25216 l 7.4333,14.03099 7.4013,-14.03099 h 4.15746 v 21.278738 h -3.4959 V 43.218076 l -6.77174,12.79744 h -2.70894 l -6.77172,-12.79744 v 15.264542 h -3.49592 z m 25.11758,-7.616274 c 0,-4.453066 3.31678,-7.923384 7.6777,-7.923384 2.14976,0 3.9617,0.859904 5.098,2.334018 V 43.25139 h 3.25534 v 15.232552 h -3.25534 v -2.026914 c -1.1056,1.474118 -2.94824,2.33402 -5.098,2.33402 -4.36092,0 -7.6777,-3.470318 -7.6777,-7.923382 z m 12.65286,0 c 0,-2.733262 -1.93478,-4.729464 -4.60662,-4.729464 -2.67184,0 -4.63734,1.996202 -4.63734,4.729464 0,2.73326 1.9655,4.698748 4.63734,4.698748 2.67184,0 4.60662,-1.965488 4.60662,-4.698748 z m 5.72244,7.616274 V 43.25139 h 3.25534 v 2.119044 c 0.8599,-1.320564 2.3033,-2.119044 4.45306,-2.119044 h 1.04416 v 3.408896 h -1.4434 c -2.76396,0 -3.90026,1.50483 -3.90026,3.86956 v 7.954096 z m 10.68734,0 v -21.19176 h 3.4089 v 12.715546 l 5.9579,-6.756374 h 4.02312 l -6.32644,7.278456 6.60282,7.954096 h -4.14594 l -6.11146,-7.247748 V 58.4839 Z"
       id="path38918"
       style="stroke-width:0.127962" />
    <path
       d="m 117.8357,50.823474 c 0,-4.453066 3.40888,-7.923384 7.73912,-7.923384 4.33022,0 7.61626,3.316766 7.61626,7.83125 0,0.36853 0,0.767772 -0.0614,1.1363 H 121.2139 c 0.39924,2.487574 2.11904,3.90027 4.51448,3.90027 1.84264,0 3.25534,-0.921324 4.05382,-2.30331 l 2.8254,1.596962 c -1.53554,2.303308 -3.93098,3.685294 -6.87922,3.685294 -4.48378,0 -7.89266,-3.50103 -7.89266,-7.923382 z m 3.4703,-1.443408 h 8.44548 c -0.30712,-2.057624 -1.90408,-3.53174 -4.20738,-3.53174 -2.11904,0 -3.74672,1.320564 -4.2381,3.53174 z m 20.35998,9.059684 c -3.47032,0 -5.1287,-1.50483 -5.1287,-4.668042 v -7.43201 H 134.019 v -3.1325 h 1.7505 c 0.46068,0 0.76778,-0.307108 0.76778,-0.859902 V 39.39778 h 3.4089 v 3.808138 H 144 v 3.1325 h -4.05382 v 7.094192 c 0,1.19772 0.5835,1.811938 1.96548,1.811938 H 144 v 3.193922 h -2.33402 z M -26.57282,37.253144 h -19.56534 c -1.0288,0 -1.86184,0.830472 -1.86184,1.856724 v 17.476998 c 0,1.02625 0.83304,1.856722 1.86184,1.856722 h 19.56534 c 1.02752,0 1.86184,-0.831752 1.86184,-1.856722 V 39.109868 c 0,-1.024974 -0.83304,-1.856724 -1.86184,-1.856724 z M -35.31388,54.2682 h -3.84014 c -0.1228,0 -0.23928,-0.04862 -0.32628,-0.13564 l -6.1473,-6.147276 c -0.0754,-0.0755 -0.0754,-0.19834 0,-0.275118 l 6.1473,-6.147274 c 0.087,-0.08702 0.20344,-0.13564 0.32628,-0.13564 h 3.84014 c 0.105,0 0.1574,0.12668 0.0832,0.19962 l -6.08328,6.083294 c -0.0756,0.0755 -0.0756,0.19834 0,0.275118 l 6.08328,6.083296 c 0.0742,0.07422 0.0218,0.19962 -0.0832,0.19962 z m 2.0525,-6.282916 6.0833,6.083296 c 0.0742,0.07422 0.0218,0.19962 -0.0832,0.19962 h -3.84014 c -0.1228,0 -0.23928,-0.04862 -0.3263,-0.13564 l -6.14724,-6.148556 c -0.0756,-0.0755 -0.0756,-0.19834 0,-0.275116 l 6.14724,-6.147276 c 0.087,-0.08702 0.20346,-0.13564 0.3263,-0.13564 h 3.84014 c 0.105,0 0.1574,0.12668 0.0832,0.19962 l -6.0833,6.083296 c -0.0756,0.0755 -0.0756,0.19834 0,0.275116 z"
       id="path38920"
       style="stroke-width:0.127962" />
  </g>
</svg>
