<svg height="25" viewBox="0 0 80 25" width="80" xmlns="http://www.w3.org/2000/svg"><path d="m47.284 11.712c0-3.931.791-5.942 2.118-5.942.827 0 1.472.792 1.472 2.956 0 2.196-1.09 3.843-3.368 3.983a.188.188 0 0 1 -.202-.166c-.02-.25-.02-.534-.02-.83m-17.568 0c0-3.932.79-5.943 2.118-5.943.826 0 1.472.792 1.472 2.956 0 2.196-1.09 3.843-3.369 3.983a.188.188 0 0 1 -.201-.166c-.02-.25-.02-.534-.02-.83m48.842-4.064a5.233 5.233 0 0 1 -2.768 1.992.2.2 0 0 1 -.169-.024.18.18 0 0 1 -.082-.143c-.193-4.06-1.806-5.334-3.71-5.35l.023.026h-.062c-1.337.035-2.446.815-2.858 2.537-.074.31-.112.625-.115.942 0 1.762 1.196 3.155 2.952 3.682l.224.08c.505.178 1.03.298 1.565.358.026 0-.226 1.57-.253 1.685a9.782 9.782 0 0 1 -.465 1.477c-.451 1.095-1.195 2.07-2.241 2.72-1.25.772-2.741.626-3.718-.474-.693-.777-.977-1.827-1.098-2.802a9.786 9.786 0 0 1 -.068-1.227v-5.449c-.111-2.63-1.87-3.566-5.424-3.566h-1.674a.188.188 0 0 0 -.192.183v7.657c-.003.712.05 1.424.157 2.129a.172.172 0 0 1 -.023.116c-1.493 2.548-3.786 3.978-6.326 3.978-2.629 0-4.265-1.047-4.775-3.99a.175.175 0 0 1 .045-.15.196.196 0 0 1 .15-.062c.286.01.634.028 1.026.028 4.2 0 7.97-1.586 7.97-5.029s-3.008-4.91-7.462-4.91c-4.453 0-9.154 2.38-9.154 8.016-.01.943.142 1.881.448 2.778a.176.176 0 0 1 -.024.162c-1.48 2.03-3.537 3.155-5.787 3.155-2.63 0-4.265-1.047-4.775-3.99a.175.175 0 0 1 .044-.15.196.196 0 0 1 .15-.062c.287.009.635.027 1.027.027 4.2 0 7.97-1.585 7.97-5.028 0-3.444-3.016-4.907-7.467-4.907-4.45 0-9.154 2.38-9.154 8.016 0 5.637 4.744 8.142 9.692 8.142 3.834 0 6.853-1.127 8.951-3.575a.195.195 0 0 1 .158-.068.194.194 0 0 1 .15.08c1.766 2.44 4.99 3.563 8.304 3.563 4.123 0 7.307-1.304 9.408-4.151.517-.708.953-1.467 1.299-2.265a.194.194 0 0 1 .232-.103c.094.027.15.117.132.209-.355 1.878-1.318 2.942-1.285 3.006 1.25 2.238 3.571 3.359 6.923 3.359 5.019 0 8.373-3.695 9.016-8.322.009-.07.06-.13.132-.15 1.765-.47 3.352-1.622 4.374-3.089a.178.178 0 0 0 -.037-.24l-1.08-.866a.198.198 0 0 0 -.285.044m-57.989 3.435c-.829 1.15-2.194 1.808-3.558 2.209a12.142 12.142 0 0 1 -4.723.42.22.22 0 0 0 -.161.032.2.2 0 0 0 -.089.132l-.116 1.339a.19.19 0 0 0 .166.194c.962.18 1.948.203 2.918.07.047 1.534-.315 2.61-1.459 3.295-1.562.936-3.446.31-4.528-1.02-1.038-1.278-1.39-2.99-1.515-4.562-.068-.868-.08-1.74-.081-2.61v-.093c0-2.703-.217-7.756 3.366-8.628 1.738-.422 3.558.473 4.06 2.07.396 1.26.409 2.982.174 4.29-.144.765-.692 1.406-1.45 1.697-.317.115-.731.211-.79.528-.043.22.131.435.349.524.263.113.577.089.863.067 1.613-.125 3.302-.375 4.693-1.207 1.1-.66 2.004-1.653 2.196-2.91.044-.3.06-.6.046-.901-.116-2.806-3.156-4.868-5.693-5.495-3.022-.752-6.414-.61-9.24.751-2.474 1.193-4.312 3.31-5.271 5.78-.136.349-.253.704-.35 1.065-.234.879-.357 1.78-.367 2.687v.264c.117 6.819 4.535 10.704 10.016 10.704 2.201 0 3.751-.626 4.7-1.793.17-.208.264-.18.272.092.01.584-.015 1.188.18 1.754.151.453.434.856.816 1.163.442.325.961.54 1.512.627.999.19 2.026.146 3.04.146h.181a.15.15 0 0 0 .154-.146l-.031-12.45a.148.148 0 0 0 -.109-.138.159.159 0 0 0 -.172.056" fill="#ffc639"/></svg>