<?xml version="1.0" encoding="UTF-8"?><svg id="a" xmlns="http://www.w3.org/2000/svg" viewBox="0 0 1192.66 329.42"><defs><style>.b{fill:#010101;}.c{fill:#e6e6e6;}.d{fill:#fff;}.e{fill:#b3b3b3;}.f{fill:gray;}.g{fill:#4d4d4d;}</style></defs><rect class="b" y="0" width="1192.66" height="329.42"/><g><g><path class="d" d="M917.52,120.44c-3.73,0-6.96,.68-9.71,2.04-2.75,1.36-4.86,3.33-6.34,5.9-1.48,2.57-2.22,5.72-2.22,9.45v1.51h-8.51v10.38h8.51v37.87h11.62v-37.87h10.73v-10.38h-10.73v-1.51c0-2.48,.71-4.3,2.13-5.45,1.42-1.15,3.43-1.73,6.03-1.73,.41,0,.87,.02,1.37,.04,.5,.03,1.05,.1,1.64,.22v-10.02c-.59-.12-1.32-.22-2.17-.31-.86-.09-1.64-.13-2.35-.13Z"/><path class="d" d="M956,140.44c-3.02-1.45-6.51-2.17-10.47-2.17-3.25,0-6.27,.53-9.05,1.6-2.78,1.06-5.19,2.53-7.23,4.39-2.04,1.86-3.53,4.07-4.48,6.61l9.49,4.61c.89-2.13,2.29-3.87,4.21-5.23,1.92-1.36,4.12-2.04,6.61-2.04,2.66,0,4.79,.7,6.39,2.08,1.6,1.39,2.39,3.12,2.39,5.19v1.56l-14.28,2.34c-3.79,.59-6.92,1.6-9.4,3.02-2.48,1.42-4.33,3.18-5.54,5.28-1.21,2.1-1.82,4.48-1.82,7.14s.68,5.22,2.04,7.32c1.36,2.1,3.3,3.71,5.81,4.83,2.51,1.12,5.45,1.69,8.83,1.69,2.66,0,5.07-.35,7.23-1.06,2.16-.71,4.11-1.77,5.85-3.19,.71-.58,1.37-1.22,2-1.89v5.09h11v-32.11c0-3.37-.84-6.36-2.53-8.96-1.69-2.6-4.04-4.63-7.05-6.08Zm-3.64,33.48c-1.01,1.83-2.44,3.27-4.3,4.3-1.86,1.04-4.01,1.55-6.43,1.55-1.89,0-3.47-.49-4.75-1.46-1.27-.98-1.91-2.29-1.91-3.95s.56-3.09,1.69-4.12c1.12-1.03,2.84-1.76,5.14-2.17l12.06-2.14v2.05c0,2.13-.5,4.11-1.51,5.94Z"/><path class="d" d="M990.21,150.81c1.98-1.21,4.24-1.82,6.79-1.82,2.72,0,5.13,.72,7.23,2.17,2.1,1.45,3.59,3.41,4.48,5.9l10.2-4.52c-.95-2.84-2.5-5.32-4.66-7.45-2.16-2.13-4.72-3.8-7.67-5.01-2.96-1.21-6.15-1.82-9.58-1.82-4.85,0-9.18,1.09-12.99,3.28-3.81,2.19-6.82,5.17-9,8.96-2.19,3.78-3.28,8.07-3.28,12.86s1.11,9.09,3.33,12.9c2.22,3.81,5.22,6.83,9,9.05,3.78,2.22,8.1,3.33,12.95,3.33,3.49,0,6.71-.61,9.67-1.82,2.96-1.21,5.5-2.9,7.63-5.06,2.13-2.16,3.67-4.6,4.61-7.32l-10.2-4.61c-.95,2.48-2.44,4.46-4.48,5.94-2.04,1.48-4.45,2.22-7.23,2.22-2.54,0-4.81-.62-6.79-1.86-1.98-1.24-3.53-2.96-4.66-5.14-1.12-2.19-1.69-4.7-1.69-7.54s.56-5.28,1.69-7.49c1.12-2.22,2.67-3.93,4.66-5.14Z"/><path class="d" d="M1049.58,177.91c-1.89,0-3.45-.3-4.66-.89-1.21-.59-2.1-1.45-2.66-2.57-.56-1.12-.84-2.48-.84-4.08v-20.67h11.09v-10.38h-11.09v-11h-11.71v3.73c0,2.37-.64,4.17-1.91,5.41-1.27,1.24-3.09,1.86-5.45,1.86h-.89v10.38h8.25v21.29c0,5.44,1.51,9.65,4.52,12.64,3.02,2.99,7.24,4.48,12.68,4.48,.89,0,1.86-.06,2.93-.18,1.06-.12,2.01-.24,2.84-.35v-9.93c-.53,.06-1.08,.12-1.64,.18-.56,.06-1.05,.09-1.46,.09Z"/><path class="d" d="M1082.19,159.9l-7.72-2.31c-1.12-.35-2.11-.74-2.97-1.15-.86-.41-1.52-.94-2-1.6-.47-.65-.71-1.39-.71-2.22,0-1.48,.56-2.65,1.69-3.5,1.12-.86,2.66-1.29,4.61-1.29,2.42,0,4.61,.64,6.56,1.91,1.95,1.27,3.34,3,4.17,5.19l8.87-4.17c-1.48-3.96-3.96-7.04-7.45-9.22-3.49-2.19-7.51-3.28-12.06-3.28-3.49,0-6.58,.62-9.27,1.86-2.69,1.24-4.79,2.97-6.3,5.19-1.51,2.22-2.26,4.8-2.26,7.76,0,3.31,1.05,6.19,3.15,8.65,2.1,2.45,5.16,4.24,9.18,5.37l7.89,2.22c1.06,.3,2.01,.67,2.84,1.11,.83,.44,1.49,.98,2,1.6,.5,.62,.75,1.41,.75,2.35,0,1.54-.62,2.78-1.86,3.73-1.24,.95-2.9,1.42-4.97,1.42-2.72,0-5.19-.77-7.41-2.31-2.22-1.54-3.95-3.67-5.19-6.39l-8.78,4.17c1.48,4.2,4.12,7.53,7.94,9.98,3.81,2.45,8.29,3.68,13.44,3.68,3.67,0,6.86-.62,9.58-1.86,2.72-1.24,4.85-2.97,6.39-5.19,1.54-2.22,2.31-4.77,2.31-7.67,0-3.43-1.08-6.33-3.24-8.69-2.16-2.36-5.22-4.14-9.18-5.32Z"/></g><g><path class="d" d="M258.51,141.54c-3.84-2.19-8.16-3.28-12.95-3.28s-9.02,1.09-12.86,3.28c-3.84,2.19-6.92,5.17-9.22,8.96-2.31,3.78-3.46,8.1-3.46,12.95s1.15,9.17,3.46,12.95c2.31,3.78,5.39,6.77,9.27,8.96,3.87,2.19,8.14,3.28,12.82,3.28s9.02-1.09,12.86-3.28c3.84-2.19,6.92-5.17,9.22-8.96,2.31-3.78,3.46-8.1,3.46-12.95s-1.14-9.24-3.41-12.99c-2.28-3.75-5.34-6.73-9.18-8.91Zm-1.29,29.4c-1.15,2.22-2.72,3.95-4.7,5.19-1.98,1.24-4.3,1.86-6.96,1.86s-4.91-.62-6.92-1.86c-2.01-1.24-3.59-2.97-4.75-5.19-1.15-2.22-1.73-4.71-1.73-7.49s.58-5.26,1.73-7.45c1.15-2.19,2.73-3.9,4.75-5.14,2.01-1.24,4.32-1.86,6.92-1.86s4.98,.62,6.96,1.86c1.98,1.24,3.55,2.96,4.7,5.14,1.15,2.19,1.73,4.67,1.73,7.45s-.58,5.28-1.73,7.49Z"/><path class="d" d="M316.21,141.63c-3.67-2.25-7.78-3.37-12.33-3.37-3.72,0-7.01,.72-9.84,2.17-2.27,1.16-4.16,2.7-5.68,4.6v-5.71h-11v65.99h11.71v-22.37c1.42,1.51,3.12,2.74,5.1,3.66,2.93,1.36,6.13,2.04,9.62,2.04,4.67,0,8.84-1.11,12.51-3.33,3.67-2.22,6.56-5.25,8.69-9.09,2.13-3.84,3.19-8.1,3.19-12.77s-1.08-8.99-3.24-12.77c-2.16-3.78-5.07-6.8-8.74-9.05Zm-1.86,29.36c-1.18,2.19-2.79,3.9-4.83,5.14-2.04,1.24-4.39,1.86-7.05,1.86s-4.83-.62-6.87-1.86c-2.04-1.24-3.64-2.96-4.79-5.14-1.15-2.19-1.73-4.7-1.73-7.54s.58-5.26,1.73-7.45c1.15-2.19,2.75-3.9,4.79-5.14,2.04-1.24,4.33-1.86,6.87-1.86s5.01,.62,7.05,1.86c2.04,1.24,3.65,2.96,4.83,5.14,1.18,2.19,1.77,4.67,1.77,7.45s-.59,5.35-1.77,7.54Z"/><path class="d" d="M373.68,145.27c-2.01-2.19-4.45-3.9-7.32-5.14-2.87-1.24-6.19-1.86-9.98-1.86-4.55,0-8.63,1.09-12.24,3.28-3.61,2.19-6.47,5.16-8.6,8.91-2.13,3.76-3.19,8.06-3.19,12.9s1.03,8.93,3.1,12.77c2.07,3.84,4.98,6.89,8.74,9.14,3.75,2.25,8.12,3.37,13.08,3.37,3.25,0,6.27-.5,9.05-1.51,2.78-1,5.17-2.39,7.18-4.17,2.01-1.77,3.49-3.81,4.43-6.12l-9.4-4.61c-1.06,1.89-2.53,3.4-4.39,4.52-1.86,1.12-4.12,1.69-6.79,1.69s-5.01-.62-7.05-1.86c-2.04-1.24-3.58-3-4.61-5.28-.62-1.37-1.01-2.86-1.17-4.48h34.74c.24-.71,.4-1.49,.49-2.35,.09-.86,.13-1.73,.13-2.62,0-3.25-.53-6.28-1.6-9.09-1.06-2.81-2.6-5.31-4.61-7.49Zm-28.92,12.59c.2-1.02,.48-1.96,.85-2.84,.98-2.31,2.41-4.08,4.3-5.32,1.89-1.24,4.05-1.86,6.47-1.86s4.71,.62,6.52,1.86c1.8,1.24,3.1,2.93,3.9,5.06,.36,.97,.58,2.01,.65,3.1h-22.7Z"/><path class="d" d="M420.42,140.57c-2.75-1.54-5.9-2.31-9.45-2.31s-6.43,.75-9,2.26c-1.99,1.16-3.53,2.75-4.66,4.74v-5.93h-11v48.25h11.71v-28.29c0-2.13,.41-3.96,1.24-5.5,.83-1.54,1.98-2.72,3.46-3.55,1.48-.83,3.16-1.24,5.06-1.24s3.58,.41,5.06,1.24c1.48,.83,2.63,2.01,3.46,3.55,.83,1.54,1.24,3.37,1.24,5.5v28.29h11.62v-31.04c0-3.61-.77-6.79-2.31-9.53-1.54-2.75-3.68-4.89-6.43-6.43Z"/></g><g><rect class="f" x="442.37" y="115.48" width="433.91" height="89.14" rx="14.79" ry="14.79" transform="translate(-11.44 58.07) rotate(-5)"/><g><path class="d" d="M495.29,154.61c-1.9-2.46-4.37-4.22-7.4-5.29-3.04-1.07-6.45-1.44-10.23-1.11l-21.07,1.84,4.8,54.89,11.42-1-1.74-19.9,9.65-.84c3.73-.33,7-1.29,9.81-2.9,2.8-1.61,4.94-3.79,6.41-6.54,1.47-2.75,2.04-5.99,1.71-9.73-.34-3.83-1.45-6.98-3.35-9.43Zm-8.72,14.43c-.56,1.19-1.41,2.15-2.53,2.89-1.12,.74-2.49,1.18-4.12,1.33l-9.73,.85-1.32-15.1,9.73-.85c1.62-.14,3.05,.05,4.28,.59,1.24,.54,2.23,1.34,3,2.41,.76,1.07,1.21,2.37,1.34,3.89,.13,1.47-.09,2.8-.65,3.99Z"/><path class="d" d="M543.13,169.76c1.49-2.78,2.07-6.03,1.74-9.77-.34-3.83-1.45-6.98-3.35-9.43-1.9-2.46-4.37-4.22-7.4-5.29-3.04-1.07-6.45-1.44-10.23-1.11l-21,1.84,4.8,54.89,11.42-1-1.74-19.9,8.1-.71,12.87,18.92,12.82-1.12-14.44-20.79c2.78-1.58,4.92-3.76,6.41-6.54Zm-10.33-4.78c-.56,1.19-1.41,2.15-2.53,2.89-1.12,.74-2.49,1.18-4.12,1.33l-9.65,.84-1.32-15.1,9.65-.84c1.62-.14,3.05,.05,4.28,.59,1.24,.54,2.23,1.34,3,2.41,.76,1.07,1.21,2.37,1.34,3.89,.13,1.47-.09,2.8-.65,3.99Z"/><path class="d" d="M606.9,153.23c-1.75-3.31-4.05-6.13-6.9-8.45-2.85-2.32-6.11-4.04-9.77-5.16-3.66-1.11-7.58-1.49-11.75-1.12-4.18,.37-7.97,1.42-11.38,3.15-3.41,1.74-6.32,3.99-8.73,6.78-2.41,2.78-4.18,5.96-5.33,9.52-1.15,3.57-1.55,7.36-1.19,11.39,.35,4.03,1.42,7.7,3.19,11.01,1.78,3.31,4.09,6.14,6.94,8.49,2.85,2.35,6.11,4.08,9.77,5.2,3.66,1.12,7.56,1.49,11.68,1.13,4.13-.36,7.9-1.41,11.31-3.14,3.41-1.73,6.32-4.01,8.72-6.81,2.4-2.81,4.19-6,5.36-9.57,1.17-3.57,1.58-7.36,1.23-11.39-.35-4.03-1.4-7.7-3.15-11.01Zm-8.95,19.42c-.69,2.29-1.78,4.3-3.26,6.04-1.48,1.74-3.25,3.14-5.31,4.21-2.06,1.07-4.34,1.72-6.85,1.94-2.5,.22-4.86-.02-7.08-.72s-4.2-1.77-5.96-3.23c-1.76-1.45-3.18-3.25-4.26-5.38-1.08-2.13-1.73-4.53-1.96-7.18-.23-2.65,0-5.11,.69-7.37,.69-2.26,1.78-4.28,3.26-6.04,1.48-1.76,3.25-3.17,5.31-4.21s4.35-1.68,6.85-1.9c2.5-.22,4.86,0,7.07,.68,2.21,.67,4.2,1.75,5.96,3.23,1.76,1.48,3.18,3.27,4.26,5.38,1.07,2.11,1.73,4.49,1.96,7.14,.23,2.65,0,5.12-.69,7.41Z"/><path class="d" d="M660.05,145.61c-2.77-3.92-6.44-6.86-11.02-8.84-4.58-1.98-9.84-2.7-15.78-2.18l-17.9,1.57,4.8,54.89,17.9-1.57c5.94-.52,11-2.15,15.17-4.89,4.17-2.74,7.27-6.29,9.31-10.65,2.04-4.36,2.83-9.2,2.37-14.5-.47-5.31-2.08-9.92-4.85-13.83Zm-7.94,24.27c-1.22,2.76-3.07,4.97-5.55,6.65-2.48,1.68-5.51,2.67-9.09,2.99l-6.78,.59-3.06-35,6.78-.59c3.59-.31,6.74,.13,9.47,1.32,2.73,1.2,4.93,3.03,6.61,5.51,1.68,2.48,2.67,5.51,2.99,9.09,.31,3.54-.15,6.68-1.36,9.44Z"/><path class="d" d="M714.57,127.48l-11.42,1,2.98,34.04c.19,2.16-.12,4.16-.92,5.98-.8,1.83-1.99,3.3-3.55,4.43-1.56,1.13-3.42,1.78-5.58,1.97-2.11,.18-4.05-.14-5.8-.98-1.75-.84-3.19-2.08-4.3-3.74-1.11-1.66-1.76-3.57-1.95-5.73l-2.98-34.04-11.42,1,3.04,34.78c.35,4.03,1.64,7.54,3.86,10.54,2.22,3,5.1,5.26,8.65,6.78,3.55,1.52,7.48,2.09,11.81,1.71,4.32-.38,8.1-1.62,11.33-3.74,3.23-2.11,5.68-4.84,7.34-8.18,1.66-3.34,2.32-7.02,1.97-11.05l-3.04-34.78Z"/><path class="d" d="M761.47,166.55c-2.18,1.95-4.94,3.07-8.28,3.36-3.24,.28-6.16-.23-8.75-1.54-2.59-1.31-4.68-3.25-6.26-5.84-1.59-2.58-2.54-5.67-2.85-9.25-.31-3.59,.09-6.78,1.2-9.57,1.12-2.8,2.84-5.06,5.16-6.8,2.32-1.74,5.1-2.75,8.35-3.03,3.34-.29,6.25,.33,8.74,1.87,2.48,1.54,4.31,3.59,5.48,6.17l9.67-5.75c-1.17-2.62-2.96-4.94-5.36-6.96-2.41-2.02-5.25-3.55-8.53-4.6-3.28-1.05-6.92-1.4-10.9-1.05-3.98,.35-7.59,1.37-10.83,3.06-3.24,1.69-6.01,3.92-8.29,6.67-2.29,2.75-3.96,5.92-5.03,9.5-1.07,3.58-1.43,7.41-1.08,11.49,.36,4.08,1.39,7.77,3.09,11.09,1.7,3.32,3.92,6.14,6.65,8.48,2.73,2.33,5.84,4.07,9.33,5.2,3.49,1.13,7.2,1.52,11.13,1.18,3.98-.35,7.5-1.32,10.55-2.93,3.05-1.6,5.59-3.61,7.6-6.01s3.37-5,4.07-7.78l-10.52-3.98c-.7,2.73-2.14,5.08-4.32,7.02Z"/><polygon class="d" points="814.57 118.73 775.51 122.15 776.38 132.09 790.31 130.88 794.24 175.82 805.66 174.82 801.73 129.88 815.44 128.68 814.57 118.73"/><path class="d" d="M862.65,154.17c-.32-3.68-1.69-6.71-4.1-9.07-2.41-2.36-5.89-4.06-10.43-5.1l-10.83-2.47c-1.72-.39-3.03-1.03-3.95-1.92-.92-.88-1.43-1.96-1.55-3.24-.1-1.18,.12-2.25,.68-3.21,.56-.96,1.41-1.74,2.54-2.34,1.14-.59,2.46-.96,3.99-1.09,2.65-.23,5.07,.29,7.26,1.55,2.19,1.27,3.91,3.14,5.17,5.6l8.92-5.01c-1.29-2.81-3.04-5.15-5.26-7.04-2.22-1.88-4.78-3.27-7.68-4.15-2.9-.88-5.99-1.18-9.28-.9-3.73,.33-6.98,1.31-9.73,2.93-2.75,1.63-4.82,3.74-6.2,6.33-1.38,2.6-1.93,5.51-1.65,8.76,.32,3.68,1.7,6.74,4.14,9.18,2.44,2.43,5.91,4.17,10.4,5.21l11.07,2.6c1.72,.4,3.01,1.01,3.87,1.85,.87,.84,1.35,1.9,1.47,3.18,.1,1.18-.13,2.23-.69,3.14-.56,.92-1.39,1.67-2.48,2.26-1.09,.59-2.42,.95-3.99,1.09-2.95,.26-5.71-.37-8.29-1.87-2.58-1.51-4.69-3.7-6.33-6.57l-8.99,5.02c1.35,3.05,3.23,5.63,5.61,7.75,2.39,2.12,5.15,3.67,8.28,4.66,3.13,.99,6.41,1.33,9.85,1.03,3.88-.34,7.22-1.34,10.02-2.99,2.8-1.65,4.93-3.8,6.38-6.42,1.45-2.63,2.04-5.54,1.76-8.73Z"/></g></g><g><path class="d" d="M146.94,199.64c-20.16,0-36.56-16.4-36.56-36.56h-12.41c0,18.39,10.19,34.44,25.22,42.81l-8.7,20.77,11.45,4.8,8.78-20.95c3.91,1.01,8.01,1.55,12.23,1.55,27,0,48.97-21.97,48.97-48.97h-12.41c0,20.16-16.4,36.56-36.56,36.56Z"/><g><path class="e" d="M178.11,119.1h-62.33c-9.84,0-17.81,7.97-17.81,17.81v26.17h12.41c0-20.19,16.37-36.56,36.56-36.56s36.56,16.37,36.56,36.56h12.41v-26.17c0-9.84-7.97-17.81-17.81-17.81Z"/><path class="g" d="M167.1,106.58h-13.2c-2.78,0-5.22,1.85-5.97,4.53l-2.23,8h29.6l-2.23-8c-.75-2.68-3.19-4.53-5.97-4.53Z"/><path class="g" d="M120.64,111.55h7.15c1.08,0,1.95,.87,1.95,1.95v5.6h-11.05v-5.6c0-1.08,.87-1.95,1.95-1.95Z"/><rect class="c" x="177.72" y="127.57" width="9.45" height="9.42" rx="4.71" ry="4.71"/><path class="g" d="M146.94,126.52c-20.19,0-36.56,16.37-36.56,36.56h10.47c0-14.41,11.68-26.09,26.09-26.09s26.09,11.68,26.09,26.09h10.47c0-20.19-16.37-36.56-36.56-36.56Z"/><path class="c" d="M146.94,136.98c-14.41,0-26.09,11.68-26.09,26.09h52.19c0-14.41-11.68-26.09-26.09-26.09Z"/><path class="d" d="M163.85,155.49c-.67,0-1.31-.36-1.64-.99-.84-1.61-1.94-3.06-3.26-4.31-.74-.7-.77-1.87-.07-2.61,.7-.74,1.88-.77,2.61-.07,1.61,1.53,2.95,3.31,3.98,5.27,.47,.9,.13,2.02-.78,2.5-.27,.14-.57,.21-.86,.21Z"/><path class="d" d="M155.39,147.38c-.26,0-.53-.06-.79-.18-.55-.26-1.12-.49-1.69-.68-.97-.33-1.48-1.38-1.15-2.35,.33-.97,1.38-1.48,2.35-1.15,.7,.24,1.39,.52,2.06,.84,.92,.43,1.32,1.54,.88,2.46-.31,.67-.98,1.06-1.67,1.06Z"/></g></g></g></svg>