<?xml version="1.0" encoding="UTF-8"?><svg id="a" xmlns="http://www.w3.org/2000/svg" viewBox="0 0 244.92 244.92"><defs><style>.b{fill:none;}.c{fill:#00652d;}.d{fill:#fff;}.e{fill:#f39200;}.f{fill:#8f3d15;}.g{fill:#1d1d1b;}.h{fill:#289b38;}</style></defs><rect class="b" y="-.1" width="244.92" height="244.92"/><g><g><path class="e" d="M61.62,122.32c0-33.82,27.41-61.23,61.23-61.23s61.23,27.41,61.23,61.23H61.62Z"/><path class="d" d="M168.55,122.32c0,25.24-20.46,45.71-45.71,45.71-25.24,0-45.71-20.46-45.71-45.71h91.42Z"/><circle class="f" cx="143.58" cy="82.78" r="3.37"/><circle class="f" cx="159.98" cy="97.84" r="3.37"/><circle class="f" cx="141.43" cy="101.52" r="3.37"/></g><path class="g" d="M93.15,175.84l-10.88,25.97,14.32,6,10.97-26.19c4.89,1.26,10.01,1.93,15.29,1.93,33.76,0,61.23-27.47,61.23-61.23h-15.52c0,25.2-20.5,45.71-45.71,45.71s-45.71-20.5-45.71-45.71h-15.52c0,22.99,12.74,43.05,31.53,53.52Z"/><path class="c" d="M148.17,30.34c-12.04,0-22.5,6.71-27.88,16.59,4.14,3.86,7.27,8.79,8.89,14.38,14.01-3.14,24.53-15.53,24.77-30.43-1.87-.35-3.8-.53-5.78-.53Z"/><path class="h" d="M98.68,38.42c-2.38,0-4.7,.27-6.94,.77,3.83,13.23,16.03,22.91,30.5,22.91,2.38,0,4.7-.27,6.94-.77-3.83-13.23-16.03-22.91-30.5-22.91Z"/></g></svg>