<?xml version="1.0" encoding="UTF-8"?><svg id="a" xmlns="http://www.w3.org/2000/svg" viewBox="0 0 633.62 572.85"><defs><style>.b{fill:none;}.c{fill:#0067b1;}.d{fill:#fff;}.e{fill:#ffed00;}.f{fill:#83d0f5;}.g{fill:#bdbcbc;}.h{fill:#1d1d1b;}.i{fill:#646363;}</style></defs><rect class="b" width="633.62" height="572.85"/><g><g><rect class="c" x="99.8" y="304.59" width="433.91" height="89.14" rx="14.79" ry="14.79" transform="translate(-29.23 28.94) rotate(-5)"/><g><path class="d" d="M152.71,343.72c-1.9-2.46-4.37-4.22-7.4-5.29-3.04-1.07-6.45-1.44-10.23-1.11l-21.07,1.84,4.8,54.89,11.42-1-1.74-19.9,9.65-.84c3.73-.33,7-1.29,9.81-2.9,2.8-1.61,4.94-3.79,6.41-6.54,1.47-2.75,2.04-5.99,1.71-9.73-.34-3.83-1.45-6.98-3.35-9.43Zm-8.72,14.43c-.56,1.19-1.41,2.15-2.53,2.89-1.12,.74-2.49,1.18-4.12,1.33l-9.73,.85-1.32-15.1,9.73-.85c1.62-.14,3.05,.05,4.28,.59,1.23,.54,2.23,1.34,3,2.41,.76,1.07,1.21,2.37,1.34,3.89,.13,1.47-.09,2.8-.65,3.99Z"/><path class="d" d="M200.55,358.88c1.49-2.78,2.07-6.03,1.74-9.77-.34-3.83-1.45-6.98-3.35-9.43-1.9-2.46-4.37-4.22-7.4-5.29-3.04-1.07-6.45-1.44-10.23-1.11l-21,1.84,4.8,54.89,11.42-1-1.74-19.9,8.1-.71,12.87,18.92,12.82-1.12-14.44-20.79c2.78-1.58,4.92-3.76,6.41-6.54Zm-10.33-4.78c-.56,1.19-1.41,2.15-2.53,2.89-1.12,.74-2.49,1.18-4.12,1.33l-9.65,.84-1.32-15.1,9.65-.84c1.62-.14,3.05,.05,4.28,.59,1.24,.54,2.23,1.34,3,2.41,.76,1.07,1.21,2.37,1.34,3.89,.13,1.47-.09,2.8-.65,3.99Z"/><path class="d" d="M264.32,342.35c-1.75-3.31-4.05-6.13-6.9-8.45-2.85-2.32-6.11-4.04-9.77-5.16-3.66-1.11-7.58-1.49-11.75-1.12-4.18,.37-7.97,1.42-11.38,3.15-3.41,1.74-6.32,3.99-8.73,6.78-2.4,2.78-4.18,5.96-5.33,9.52-1.15,3.57-1.55,7.36-1.19,11.39,.35,4.03,1.42,7.7,3.19,11.01,1.78,3.31,4.09,6.14,6.94,8.49,2.85,2.35,6.11,4.08,9.77,5.2,3.66,1.12,7.56,1.49,11.68,1.13,4.13-.36,7.9-1.41,11.31-3.14,3.41-1.73,6.32-4.01,8.72-6.81,2.4-2.81,4.19-6,5.36-9.57,1.17-3.57,1.58-7.36,1.23-11.39-.35-4.03-1.4-7.7-3.15-11.01Zm-8.95,19.42c-.69,2.29-1.78,4.3-3.26,6.04-1.48,1.74-3.25,3.14-5.31,4.21-2.06,1.07-4.34,1.72-6.85,1.94-2.5,.22-4.86-.02-7.08-.72-2.21-.7-4.2-1.77-5.96-3.23-1.76-1.45-3.18-3.25-4.26-5.38-1.08-2.13-1.73-4.53-1.96-7.18-.23-2.65,0-5.11,.69-7.37,.69-2.26,1.78-4.28,3.26-6.04,1.48-1.76,3.25-3.17,5.31-4.21s4.35-1.68,6.85-1.9c2.5-.22,4.86,0,7.07,.68,2.21,.67,4.2,1.75,5.96,3.23,1.76,1.48,3.18,3.27,4.26,5.38,1.07,2.11,1.73,4.49,1.96,7.14,.23,2.65,0,5.12-.69,7.41Z"/><path class="d" d="M317.47,334.73c-2.77-3.92-6.44-6.86-11.02-8.84-4.58-1.98-9.84-2.7-15.78-2.18l-17.9,1.57,4.8,54.89,17.9-1.57c5.94-.52,11-2.15,15.17-4.89,4.17-2.74,7.27-6.29,9.31-10.65,2.04-4.36,2.83-9.2,2.37-14.5-.47-5.31-2.08-9.92-4.85-13.83Zm-7.94,24.27c-1.22,2.76-3.07,4.97-5.55,6.65-2.48,1.68-5.51,2.67-9.09,2.99l-6.78,.59-3.06-35,6.78-.59c3.59-.31,6.74,.13,9.47,1.32,2.73,1.2,4.93,3.03,6.61,5.51,1.68,2.48,2.67,5.51,2.99,9.09,.31,3.54-.15,6.68-1.36,9.44Z"/><path class="d" d="M371.99,316.59l-11.42,1,2.98,34.04c.19,2.16-.12,4.16-.92,5.98-.8,1.83-1.99,3.3-3.55,4.43-1.56,1.13-3.42,1.78-5.58,1.97-2.11,.18-4.05-.14-5.8-.98-1.76-.84-3.19-2.08-4.3-3.74-1.11-1.66-1.76-3.57-1.95-5.73l-2.98-34.04-11.42,1,3.04,34.78c.35,4.03,1.64,7.54,3.86,10.54,2.22,3,5.1,5.26,8.65,6.78,3.55,1.52,7.48,2.09,11.81,1.71,4.32-.38,8.1-1.62,11.33-3.74,3.23-2.11,5.68-4.84,7.34-8.18,1.66-3.34,2.32-7.02,1.97-11.05l-3.04-34.78Z"/><path class="d" d="M418.89,355.67c-2.18,1.95-4.94,3.07-8.28,3.36-3.24,.28-6.16-.23-8.75-1.54-2.59-1.31-4.68-3.25-6.26-5.84-1.59-2.58-2.54-5.67-2.85-9.25-.31-3.59,.09-6.78,1.2-9.57,1.12-2.8,2.84-5.06,5.16-6.8,2.32-1.74,5.1-2.75,8.35-3.03,3.34-.29,6.25,.33,8.74,1.87,2.48,1.54,4.31,3.59,5.48,6.17l9.67-5.75c-1.17-2.62-2.96-4.94-5.36-6.96-2.4-2.02-5.25-3.55-8.53-4.6-3.28-1.05-6.92-1.4-10.9-1.05-3.98,.35-7.59,1.37-10.83,3.06-3.24,1.69-6.01,3.92-8.29,6.67-2.29,2.75-3.96,5.91-5.03,9.5-1.07,3.58-1.43,7.41-1.08,11.49,.36,4.08,1.39,7.77,3.09,11.09,1.7,3.32,3.92,6.14,6.65,8.48,2.73,2.33,5.84,4.07,9.33,5.2,3.49,1.13,7.2,1.52,11.13,1.18,3.98-.35,7.5-1.32,10.55-2.93,3.05-1.6,5.59-3.61,7.6-6.01s3.37-5,4.07-7.78l-10.52-3.98c-.7,2.73-2.14,5.08-4.32,7.02Z"/><polygon class="d" points="471.99 307.85 432.94 311.26 433.8 321.21 447.73 319.99 451.66 364.94 463.09 363.94 459.15 318.99 472.86 317.79 471.99 307.85"/><path class="d" d="M520.08,343.29c-.32-3.68-1.69-6.71-4.1-9.07-2.41-2.36-5.89-4.06-10.43-5.1l-10.83-2.47c-1.72-.39-3.03-1.03-3.95-1.92-.92-.88-1.43-1.96-1.55-3.24-.1-1.18,.12-2.25,.68-3.21,.56-.96,1.41-1.74,2.54-2.34,1.14-.59,2.46-.96,3.99-1.09,2.65-.23,5.07,.29,7.26,1.55,2.19,1.27,3.91,3.14,5.17,5.6l8.92-5.01c-1.29-2.81-3.04-5.15-5.26-7.04-2.22-1.88-4.78-3.27-7.68-4.15-2.9-.88-5.99-1.18-9.28-.9-3.73,.33-6.98,1.31-9.73,2.93-2.75,1.63-4.82,3.74-6.2,6.33-1.38,2.6-1.93,5.51-1.65,8.76,.32,3.68,1.7,6.74,4.14,9.18,2.44,2.43,5.91,4.17,10.4,5.21l11.07,2.6c1.72,.4,3.01,1.01,3.87,1.85,.87,.84,1.35,1.9,1.47,3.18,.1,1.18-.13,2.23-.69,3.14-.56,.92-1.39,1.67-2.48,2.26-1.09,.59-2.42,.95-3.99,1.09-2.95,.26-5.71-.37-8.29-1.87-2.58-1.51-4.69-3.7-6.33-6.57l-8.99,5.02c1.35,3.05,3.23,5.63,5.61,7.75,2.39,2.12,5.15,3.67,8.28,4.66,3.13,.99,6.41,1.33,9.85,1.03,3.88-.34,7.22-1.34,10.02-2.99,2.8-1.65,4.93-3.8,6.38-6.42,1.45-2.63,2.04-5.54,1.76-8.73Z"/></g></g><g><path class="h" d="M239.05,406.54c-3.73,0-6.98,.68-9.73,2.04-2.76,1.36-4.87,3.33-6.35,5.91-1.48,2.58-2.22,5.73-2.22,9.46v1.51h-8.53v10.4h8.53v37.95h11.64v-37.95h10.75v-10.4h-10.75v-1.51c0-2.49,.71-4.31,2.13-5.47,1.42-1.16,3.44-1.73,6.04-1.73,.41,0,.87,.02,1.38,.04,.5,.03,1.05,.1,1.64,.22v-10.04c-.59-.12-1.32-.22-2.18-.31-.86-.09-1.64-.13-2.35-.13Z"/><path class="h" d="M277.6,426.58c-3.02-1.45-6.52-2.18-10.49-2.18-3.26,0-6.28,.53-9.06,1.6-2.79,1.07-5.2,2.53-7.24,4.4-2.04,1.87-3.54,4.07-4.49,6.62l9.51,4.62c.89-2.13,2.3-3.88,4.22-5.24,1.92-1.36,4.13-2.04,6.62-2.04,2.67,0,4.8,.7,6.4,2.09,1.6,1.39,2.4,3.13,2.4,5.2v1.57l-14.31,2.34c-3.79,.59-6.93,1.6-9.42,3.02-2.49,1.42-4.34,3.19-5.55,5.29-1.22,2.1-1.82,4.49-1.82,7.15s.68,5.23,2.04,7.33c1.36,2.1,3.3,3.72,5.82,4.84,2.52,1.12,5.47,1.69,8.84,1.69,2.67,0,5.08-.36,7.24-1.07,2.16-.71,4.12-1.78,5.87-3.2,.71-.58,1.37-1.22,2-1.9v5.1h11.02v-32.17c0-3.38-.84-6.37-2.53-8.98-1.69-2.61-4.04-4.64-7.06-6.09Zm-3.64,33.55c-1.01,1.84-2.44,3.27-4.31,4.31-1.87,1.04-4.01,1.56-6.44,1.56-1.9,0-3.48-.49-4.75-1.47-1.27-.98-1.91-2.3-1.91-3.95s.56-3.1,1.69-4.13c1.12-1.04,2.84-1.76,5.15-2.18l12.09-2.15v2.06c0,2.13-.5,4.12-1.51,5.95Z"/><path class="h" d="M311.88,436.98c1.98-1.21,4.25-1.82,6.8-1.82,2.72,0,5.14,.73,7.24,2.18,2.1,1.45,3.6,3.42,4.49,5.91l10.22-4.53c-.95-2.84-2.5-5.33-4.67-7.47-2.16-2.13-4.73-3.81-7.69-5.02-2.96-1.21-6.16-1.82-9.6-1.82-4.86,0-9.2,1.1-13.02,3.29-3.82,2.19-6.83,5.19-9.02,8.98-2.19,3.79-3.29,8.09-3.29,12.89s1.11,9.11,3.33,12.93c2.22,3.82,5.23,6.84,9.02,9.06,3.79,2.22,8.12,3.33,12.97,3.33,3.49,0,6.72-.61,9.69-1.82,2.96-1.21,5.51-2.9,7.64-5.07,2.13-2.16,3.67-4.61,4.62-7.33l-10.22-4.62c-.95,2.49-2.44,4.47-4.49,5.95-2.04,1.48-4.46,2.22-7.24,2.22-2.55,0-4.81-.62-6.8-1.87-1.99-1.24-3.54-2.96-4.67-5.15-1.13-2.19-1.69-4.71-1.69-7.55s.56-5.29,1.69-7.51c1.12-2.22,2.68-3.94,4.67-5.15Z"/><path class="h" d="M371.37,464.13c-1.9,0-3.45-.3-4.67-.89-1.22-.59-2.1-1.45-2.67-2.58-.56-1.12-.84-2.49-.84-4.09v-20.71h11.11v-10.4h-11.11v-11.02h-11.73v3.73c0,2.37-.64,4.18-1.91,5.42-1.27,1.24-3.1,1.87-5.47,1.87h-.89v10.4h8.26v21.33c0,5.45,1.51,9.67,4.53,12.66,3.02,2.99,7.26,4.49,12.71,4.49,.89,0,1.87-.06,2.93-.18,1.07-.12,2.01-.24,2.84-.36v-9.95c-.53,.06-1.08,.12-1.64,.18-.56,.06-1.05,.09-1.47,.09Z"/><path class="h" d="M404.04,446.09l-7.73-2.31c-1.13-.36-2.12-.74-2.98-1.16-.86-.41-1.53-.95-2-1.6-.47-.65-.71-1.39-.71-2.22,0-1.48,.56-2.65,1.69-3.51,1.12-.86,2.67-1.29,4.62-1.29,2.43,0,4.62,.64,6.58,1.91,1.95,1.27,3.35,3.01,4.18,5.2l8.89-4.18c-1.48-3.97-3.97-7.05-7.47-9.24-3.5-2.19-7.52-3.29-12.09-3.29-3.5,0-6.59,.62-9.29,1.87-2.7,1.24-4.8,2.98-6.31,5.2-1.51,2.22-2.27,4.81-2.27,7.78,0,3.32,1.05,6.21,3.15,8.66,2.1,2.46,5.17,4.25,9.2,5.38l7.91,2.22c1.07,.3,2.01,.67,2.84,1.11,.83,.44,1.5,.98,2,1.6,.5,.62,.76,1.41,.76,2.35,0,1.54-.62,2.79-1.87,3.73-1.24,.95-2.9,1.42-4.98,1.42-2.73,0-5.2-.77-7.42-2.31-2.22-1.54-3.95-3.67-5.2-6.4l-8.8,4.18c1.48,4.21,4.13,7.54,7.95,10,3.82,2.46,8.31,3.69,13.46,3.69,3.67,0,6.87-.62,9.6-1.87,2.72-1.24,4.86-2.98,6.4-5.2,1.54-2.22,2.31-4.78,2.31-7.69,0-3.44-1.08-6.34-3.24-8.71-2.16-2.37-5.23-4.15-9.2-5.33Z"/></g><g><path class="h" d="M249.95,239.17c-3.85-2.19-8.18-3.29-12.97-3.29s-9.04,1.1-12.89,3.29c-3.85,2.19-6.93,5.19-9.24,8.98-2.31,3.79-3.47,8.12-3.47,12.97s1.16,9.18,3.47,12.97c2.31,3.79,5.41,6.78,9.29,8.98,3.88,2.19,8.16,3.29,12.84,3.29s9.03-1.1,12.89-3.29c3.85-2.19,6.93-5.18,9.24-8.98,2.31-3.79,3.47-8.12,3.47-12.97s-1.14-9.26-3.42-13.02c-2.28-3.76-5.35-6.74-9.2-8.93Zm-1.29,29.46c-1.16,2.22-2.73,3.95-4.71,5.2-1.99,1.24-4.31,1.87-6.98,1.87s-4.92-.62-6.93-1.87c-2.02-1.24-3.6-2.98-4.75-5.2-1.16-2.22-1.73-4.72-1.73-7.51s.58-5.27,1.73-7.47c1.16-2.19,2.74-3.91,4.75-5.15,2.01-1.24,4.32-1.87,6.93-1.87s4.99,.62,6.98,1.87c1.98,1.24,3.55,2.96,4.71,5.15,1.16,2.19,1.73,4.68,1.73,7.47s-.58,5.29-1.73,7.51Z"/><path class="h" d="M307.77,239.26c-3.67-2.25-7.79-3.38-12.35-3.38-3.73,0-7.02,.73-9.86,2.18-2.28,1.16-4.17,2.7-5.69,4.61v-5.72h-11.02v66.12h11.73v-22.42c1.43,1.52,3.13,2.74,5.11,3.67,2.93,1.36,6.15,2.04,9.64,2.04,4.68,0,8.86-1.11,12.53-3.33,3.67-2.22,6.58-5.26,8.71-9.11,2.13-3.85,3.2-8.12,3.2-12.8s-1.08-9.01-3.24-12.8c-2.16-3.79-5.08-6.81-8.75-9.06Zm-1.87,29.42c-1.19,2.19-2.8,3.91-4.84,5.15s-4.4,1.87-7.07,1.87-4.84-.62-6.89-1.87c-2.04-1.24-3.64-2.96-4.8-5.15-1.16-2.19-1.73-4.71-1.73-7.55s.58-5.27,1.73-7.47c1.16-2.19,2.75-3.91,4.8-5.15,2.04-1.24,4.34-1.87,6.89-1.87s5.02,.62,7.07,1.87c2.04,1.24,3.66,2.96,4.84,5.15,1.18,2.19,1.78,4.68,1.78,7.47s-.59,5.36-1.78,7.55Z"/><path class="h" d="M365.36,242.9c-2.01-2.19-4.46-3.91-7.33-5.15-2.87-1.24-6.21-1.87-10-1.87-4.56,0-8.65,1.1-12.26,3.29-3.61,2.19-6.49,5.17-8.62,8.93-2.13,3.76-3.2,8.07-3.2,12.93s1.04,8.95,3.11,12.8c2.07,3.85,4.99,6.9,8.75,9.15,3.76,2.25,8.13,3.38,13.11,3.38,3.26,0,6.28-.5,9.06-1.51,2.78-1.01,5.18-2.4,7.2-4.18,2.01-1.78,3.5-3.82,4.44-6.13l-9.42-4.62c-1.07,1.9-2.53,3.41-4.4,4.53-1.87,1.13-4.13,1.69-6.8,1.69s-5.02-.62-7.07-1.87c-2.04-1.24-3.59-3.01-4.62-5.29-.62-1.37-1.01-2.87-1.18-4.49h34.81c.24-.71,.4-1.5,.49-2.35,.09-.86,.13-1.73,.13-2.62,0-3.26-.53-6.29-1.6-9.11-1.07-2.81-2.61-5.32-4.62-7.51Zm-28.98,12.62c.2-1.02,.48-1.97,.85-2.84,.98-2.31,2.41-4.09,4.31-5.33,1.9-1.24,4.06-1.87,6.49-1.87s4.72,.62,6.53,1.87c1.81,1.24,3.11,2.93,3.91,5.07,.37,.97,.58,2.01,.65,3.11h-22.74Z"/><path class="h" d="M412.18,238.19c-2.76-1.54-5.91-2.31-9.46-2.31s-6.44,.76-9.02,2.27c-1.99,1.17-3.54,2.75-4.67,4.75v-5.95h-11.02v48.35h11.73v-28.35c0-2.13,.41-3.97,1.24-5.51,.83-1.54,1.98-2.72,3.47-3.55,1.48-.83,3.17-1.24,5.07-1.24s3.58,.42,5.07,1.24c1.48,.83,2.64,2.01,3.47,3.55,.83,1.54,1.24,3.38,1.24,5.51v28.35h11.64v-31.1c0-3.61-.77-6.8-2.31-9.55-1.54-2.75-3.69-4.9-6.44-6.44Z"/></g><g><path class="h" d="M316.75,191.03c-20.16,0-36.56-16.4-36.56-36.56h-12.41c0,18.39,10.19,34.44,25.22,42.81l-8.7,20.77,11.45,4.8,8.78-20.95c3.91,1.01,8.01,1.55,12.23,1.55,27,0,48.97-21.97,48.97-48.97h-12.41c0,20.16-16.4,36.56-36.56,36.56Z"/><path class="d" d="M353.31,154.49c0,20.19-16.37,36.56-36.56,36.56-20.19,0-36.56-16.37-36.56-36.56h73.12Z"/><g><path class="g" d="M347.92,110.5h-62.33c-9.84,0-17.81,7.97-17.81,17.81v26.17h12.41c0-20.19,16.37-36.56,36.56-36.56s36.56,16.37,36.56,36.56h12.41v-26.17c0-9.84-7.97-17.81-17.81-17.81Z"/><path class="i" d="M336.91,97.97h-13.2c-2.78,0-5.22,1.85-5.97,4.53l-2.23,8h29.6l-2.23-8c-.75-2.68-3.19-4.53-5.97-4.53Z"/><path class="i" d="M290.45,102.94h7.15c1.08,0,1.95,.87,1.95,1.95v5.6h-11.05v-5.6c0-1.08,.87-1.95,1.95-1.95Z"/><rect class="e" x="347.53" y="118.96" width="9.45" height="9.42" rx="4.71" ry="4.71"/><path class="i" d="M316.75,117.91c-20.19,0-36.56,16.37-36.56,36.56h10.47c0-14.41,11.68-26.09,26.09-26.09s26.09,11.68,26.09,26.09h10.47c0-20.19-16.37-36.56-36.56-36.56Z"/><path class="f" d="M316.75,128.38c-14.41,0-26.09,11.68-26.09,26.09h52.19c0-14.41-11.68-26.09-26.09-26.09Z"/><path class="d" d="M333.66,146.88c-.67,0-1.31-.36-1.64-.99-.84-1.61-1.94-3.06-3.26-4.31-.74-.7-.77-1.87-.07-2.61,.7-.74,1.88-.77,2.61-.07,1.61,1.53,2.95,3.31,3.98,5.27,.47,.9,.13,2.02-.78,2.5-.27,.14-.57,.21-.86,.21Z"/><path class="d" d="M325.2,138.77c-.26,0-.53-.06-.79-.18-.55-.26-1.12-.49-1.69-.68-.97-.33-1.48-1.38-1.15-2.35,.33-.97,1.38-1.48,2.35-1.15,.7,.24,1.39,.52,2.06,.84,.92,.43,1.32,1.54,.88,2.46-.31,.67-.98,1.06-1.67,1.06Z"/></g></g></g></svg>