<?xml version="1.0" encoding="UTF-8"?><svg id="a" xmlns="http://www.w3.org/2000/svg" viewBox="0 0 1080.64 342"><defs><style>.b{fill:none;}.c{fill:#008f8b;}.d{fill:#fff;}.e{fill:#83d0f5;}.f{fill:#1d1d1b;}</style></defs><rect class="b" y="0" width="1080.64" height="342"/><g><g><path class="f" d="M805.51,132.94c-3.73,0-6.96,.68-9.71,2.04-2.75,1.36-4.86,3.33-6.34,5.9-1.48,2.57-2.22,5.72-2.22,9.45v1.51h-8.51v10.38h8.51v37.87h11.62v-37.87h10.73v-10.38h-10.73v-1.51c0-2.48,.71-4.3,2.13-5.45,1.42-1.15,3.43-1.73,6.03-1.73,.41,0,.87,.02,1.37,.04,.5,.03,1.05,.1,1.64,.22v-10.02c-.59-.12-1.32-.22-2.17-.31-.86-.09-1.64-.13-2.35-.13Z"/><path class="f" d="M843.98,152.94c-3.02-1.45-6.51-2.17-10.47-2.17-3.25,0-6.27,.53-9.05,1.6-2.78,1.06-5.19,2.53-7.23,4.39-2.04,1.86-3.53,4.07-4.48,6.61l9.49,4.61c.89-2.13,2.29-3.87,4.21-5.23,1.92-1.36,4.12-2.04,6.61-2.04,2.66,0,4.79,.7,6.39,2.08,1.6,1.39,2.39,3.12,2.39,5.19v1.56l-14.28,2.34c-3.79,.59-6.92,1.6-9.4,3.02-2.48,1.42-4.33,3.18-5.54,5.28-1.21,2.1-1.82,4.48-1.82,7.14s.68,5.22,2.04,7.32c1.36,2.1,3.3,3.71,5.81,4.83,2.51,1.12,5.45,1.69,8.83,1.69,2.66,0,5.07-.35,7.23-1.06,2.16-.71,4.11-1.77,5.85-3.19,.71-.58,1.37-1.22,2-1.89v5.09h11v-32.11c0-3.37-.84-6.36-2.53-8.96-1.69-2.6-4.04-4.63-7.05-6.08Zm-3.64,33.48c-1.01,1.83-2.44,3.27-4.3,4.3-1.86,1.04-4.01,1.55-6.43,1.55-1.89,0-3.47-.49-4.75-1.46-1.27-.98-1.91-2.29-1.91-3.95s.56-3.09,1.69-4.12c1.12-1.03,2.84-1.76,5.14-2.17l12.06-2.14v2.05c0,2.13-.5,4.11-1.51,5.94Z"/><path class="f" d="M878.2,163.32c1.98-1.21,4.24-1.82,6.79-1.82,2.72,0,5.13,.72,7.23,2.17,2.1,1.45,3.59,3.41,4.48,5.9l10.2-4.52c-.95-2.84-2.5-5.32-4.66-7.45-2.16-2.13-4.72-3.8-7.67-5.01-2.96-1.21-6.15-1.82-9.58-1.82-4.85,0-9.18,1.09-12.99,3.28-3.81,2.19-6.82,5.17-9,8.96-2.19,3.78-3.28,8.07-3.28,12.86s1.11,9.09,3.33,12.9c2.22,3.81,5.22,6.83,9,9.05,3.78,2.22,8.1,3.33,12.95,3.33,3.49,0,6.71-.61,9.67-1.82,2.96-1.21,5.5-2.9,7.63-5.06,2.13-2.16,3.67-4.6,4.61-7.32l-10.2-4.61c-.95,2.48-2.44,4.46-4.48,5.94-2.04,1.48-4.45,2.22-7.23,2.22-2.54,0-4.81-.62-6.79-1.86-1.98-1.24-3.53-2.96-4.66-5.14-1.12-2.19-1.69-4.7-1.69-7.54s.56-5.28,1.69-7.49c1.12-2.22,2.67-3.93,4.66-5.14Z"/><path class="f" d="M937.57,190.41c-1.89,0-3.45-.3-4.66-.89-1.21-.59-2.1-1.45-2.66-2.57-.56-1.12-.84-2.48-.84-4.08v-20.67h11.09v-10.38h-11.09v-11h-11.71v3.73c0,2.37-.64,4.17-1.91,5.41-1.27,1.24-3.09,1.86-5.45,1.86h-.89v10.38h8.25v21.29c0,5.44,1.51,9.65,4.52,12.64,3.02,2.99,7.24,4.48,12.68,4.48,.89,0,1.86-.06,2.93-.18,1.06-.12,2.01-.24,2.84-.35v-9.93c-.53,.06-1.08,.12-1.64,.18-.56,.06-1.05,.09-1.46,.09Z"/><path class="f" d="M970.17,172.41l-7.72-2.31c-1.12-.35-2.11-.74-2.97-1.15-.86-.41-1.52-.94-2-1.6-.47-.65-.71-1.39-.71-2.22,0-1.48,.56-2.65,1.69-3.5,1.12-.86,2.66-1.29,4.61-1.29,2.42,0,4.61,.64,6.56,1.91,1.95,1.27,3.34,3,4.17,5.19l8.87-4.17c-1.48-3.96-3.96-7.04-7.45-9.22-3.49-2.19-7.51-3.28-12.06-3.28-3.49,0-6.58,.62-9.27,1.86-2.69,1.24-4.79,2.97-6.3,5.19-1.51,2.22-2.26,4.8-2.26,7.76,0,3.31,1.05,6.19,3.15,8.65,2.1,2.45,5.16,4.24,9.18,5.37l7.89,2.22c1.06,.3,2.01,.67,2.84,1.11,.83,.44,1.49,.98,2,1.6,.5,.62,.75,1.41,.75,2.35,0,1.54-.62,2.78-1.86,3.73-1.24,.95-2.9,1.42-4.97,1.42-2.72,0-5.19-.77-7.41-2.31-2.22-1.54-3.95-3.67-5.19-6.39l-8.78,4.17c1.48,4.2,4.12,7.53,7.94,9.98,3.81,2.45,8.29,3.68,13.44,3.68,3.67,0,6.86-.62,9.58-1.86,2.72-1.24,4.85-2.97,6.39-5.19,1.54-2.22,2.31-4.77,2.31-7.67,0-3.43-1.08-6.33-3.24-8.69-2.16-2.36-5.22-4.14-9.18-5.32Z"/></g><g><path class="f" d="M258.5,154.05c-3.84-2.19-8.16-3.28-12.95-3.28s-9.02,1.09-12.86,3.28c-3.84,2.19-6.92,5.17-9.22,8.96-2.31,3.78-3.46,8.1-3.46,12.95s1.15,9.17,3.46,12.95c2.31,3.78,5.39,6.77,9.27,8.96,3.87,2.19,8.14,3.28,12.82,3.28s9.02-1.09,12.86-3.28c3.84-2.19,6.92-5.17,9.22-8.96,2.31-3.78,3.46-8.1,3.46-12.95s-1.14-9.24-3.41-12.99c-2.28-3.75-5.34-6.73-9.18-8.91Zm-1.29,29.4c-1.15,2.22-2.72,3.95-4.7,5.19-1.98,1.24-4.3,1.86-6.96,1.86s-4.91-.62-6.92-1.86c-2.01-1.24-3.59-2.97-4.75-5.19-1.15-2.22-1.73-4.71-1.73-7.49s.58-5.26,1.73-7.45c1.15-2.19,2.73-3.9,4.75-5.14,2.01-1.24,4.32-1.86,6.92-1.86s4.98,.62,6.96,1.86c1.98,1.24,3.55,2.96,4.7,5.14,1.15,2.19,1.73,4.67,1.73,7.45s-.58,5.28-1.73,7.49Z"/><path class="f" d="M316.2,154.14c-3.67-2.25-7.78-3.37-12.33-3.37-3.72,0-7.01,.72-9.84,2.17-2.27,1.16-4.16,2.7-5.68,4.6v-5.71h-11v65.99h11.71v-22.37c1.42,1.51,3.12,2.74,5.1,3.66,2.93,1.36,6.13,2.04,9.62,2.04,4.67,0,8.84-1.11,12.51-3.33,3.67-2.22,6.56-5.25,8.69-9.09,2.13-3.84,3.19-8.1,3.19-12.77s-1.08-8.99-3.24-12.77c-2.16-3.78-5.07-6.8-8.74-9.05Zm-1.86,29.36c-1.18,2.19-2.79,3.9-4.83,5.14-2.04,1.24-4.39,1.86-7.05,1.86s-4.83-.62-6.87-1.86c-2.04-1.24-3.64-2.96-4.79-5.14-1.15-2.19-1.73-4.7-1.73-7.54s.58-5.26,1.73-7.45c1.15-2.19,2.75-3.9,4.79-5.14,2.04-1.24,4.33-1.86,6.87-1.86s5.01,.62,7.05,1.86,3.65,2.96,4.83,5.14c1.18,2.19,1.77,4.67,1.77,7.45s-.59,5.35-1.77,7.54Z"/><path class="f" d="M373.68,157.77c-2.01-2.19-4.45-3.9-7.32-5.14-2.87-1.24-6.19-1.86-9.98-1.86-4.55,0-8.63,1.09-12.24,3.28-3.61,2.19-6.47,5.16-8.6,8.91-2.13,3.76-3.19,8.06-3.19,12.9s1.03,8.93,3.1,12.77c2.07,3.84,4.98,6.89,8.74,9.14,3.75,2.25,8.12,3.37,13.08,3.37,3.25,0,6.27-.5,9.05-1.51,2.78-1,5.17-2.39,7.18-4.17,2.01-1.77,3.49-3.81,4.43-6.12l-9.4-4.61c-1.06,1.89-2.53,3.4-4.39,4.52-1.86,1.12-4.12,1.69-6.79,1.69s-5.01-.62-7.05-1.86c-2.04-1.24-3.58-3-4.61-5.28-.62-1.37-1.01-2.86-1.17-4.48h34.74c.24-.71,.4-1.49,.49-2.35,.09-.86,.13-1.73,.13-2.62,0-3.25-.53-6.28-1.6-9.09-1.06-2.81-2.6-5.31-4.61-7.49Zm-28.92,12.59c.2-1.02,.48-1.96,.85-2.84,.98-2.31,2.41-4.08,4.3-5.32,1.89-1.24,4.05-1.86,6.47-1.86s4.71,.62,6.52,1.86c1.8,1.24,3.1,2.93,3.9,5.06,.36,.97,.58,2.01,.65,3.1h-22.7Z"/><path class="f" d="M420.41,153.07c-2.75-1.54-5.9-2.31-9.45-2.31s-6.43,.75-9,2.26c-1.99,1.16-3.53,2.75-4.66,4.74v-5.93h-11v48.25h11.71v-28.29c0-2.13,.41-3.96,1.24-5.5,.83-1.54,1.98-2.72,3.46-3.55,1.48-.83,3.16-1.24,5.06-1.24s3.58,.41,5.06,1.24c1.48,.83,2.63,2.01,3.46,3.55,.83,1.54,1.24,3.37,1.24,5.5v28.29h11.62v-31.04c0-3.61-.77-6.79-2.31-9.53-1.54-2.75-3.68-4.89-6.43-6.43Z"/></g><g><rect class="c" x="442.95" y="128.12" width="320.87" height="89.05" rx="14.79" ry="14.79" transform="translate(-12.75 53.24) rotate(-5)"/><g><path class="d" d="M503.27,185.99c-.75-1.79-1.98-3.4-3.69-4.84-.63-.53-1.38-1.01-2.19-1.46,.68-.79,1.27-1.6,1.7-2.46,1.14-2.3,1.6-4.66,1.39-7.06-.3-3.39-1.26-6.21-2.89-8.47-1.64-2.26-3.86-3.91-6.67-4.95-2.81-1.04-6.11-1.4-9.89-1.06l-23.21,2.03,4.8,54.89,23.21-2.03c6.38-.56,11.24-2.49,14.56-5.8,3.32-3.31,4.75-7.67,4.28-13.07-.18-2.01-.64-3.92-1.39-5.71Zm-33.2-19.7l12.6-1.1c1.77-.15,3.22,.23,4.37,1.14,1.14,.92,1.79,2.21,1.93,3.88,.15,1.67-.26,3.06-1.23,4.15-.97,1.1-2.34,1.73-4.11,1.88l-12.6,1.1-.97-11.05Zm21.56,31.75c-1.26,1.45-3.04,2.27-5.35,2.47l-13.12,1.15-1.26-14.37,13.12-1.15c2.31-.2,4.21,.3,5.7,1.51,1.49,1.21,2.33,2.89,2.52,5.05,.18,2.11-.35,3.89-1.61,5.34Z"/><polygon class="d" points="524.38 197.18 523.28 184.58 547.3 182.47 546.43 172.53 522.41 174.63 521.32 162.18 546.81 159.95 545.94 150 509.03 153.23 513.83 208.12 550.74 204.89 549.87 194.94 524.38 197.18"/><path class="d" d="M568.83,148l-13.77,56.52,12.38-1.08,2.7-11.52,20.12-1.76,4.66,10.88,12.45-1.09-23.37-53.27-15.18,1.33Zm3.62,33.69l5.07-21.78,8.71,20.58-13.78,1.21Z"/><path class="d" d="M650.9,140.82l-11.42,1,2.98,34.04c.19,2.16-.12,4.16-.92,5.98-.81,1.83-1.99,3.31-3.55,4.43-1.56,1.13-3.42,1.78-5.58,1.97-2.11,.18-4.05-.14-5.8-.98-1.75-.84-3.19-2.08-4.3-3.74-1.11-1.66-1.76-3.57-1.95-5.73l-2.98-34.04-11.42,1,3.04,34.78c.35,4.03,1.64,7.54,3.86,10.54,2.22,3,5.1,5.26,8.65,6.78,3.55,1.52,7.48,2.09,11.81,1.71,4.32-.38,8.1-1.62,11.33-3.74,3.23-2.11,5.68-4.84,7.34-8.18,1.66-3.34,2.32-7.02,1.97-11.05l-3.04-34.78Z"/><polygon class="d" points="695.24 136.94 656.19 140.35 657.06 150.3 670.99 149.08 674.92 194.03 686.34 193.03 682.41 148.08 696.11 146.88 695.24 136.94"/><polygon class="d" points="747.8 132.34 734.76 133.48 725.56 153.63 712.95 135.39 699.91 136.53 720.89 165.88 722.98 189.82 734.4 188.82 732.3 164.8 747.8 132.34"/></g></g><g><path class="c" d="M147.02,126.59c5.29,0,10.38,.85,15.15,2.4v-11.83c0-1.02-.83-1.85-1.85-1.85h-5.07v-12.47h8c1.35,0,2.44-1.09,2.44-2.44s-1.09-2.44-2.44-2.44h-22.6c-1.02,0-1.85,.83-1.85,1.85v15.49h-5.07c-1.02,0-1.85,.83-1.85,1.85v11.83c4.77-1.55,9.86-2.4,15.15-2.4Z"/><path class="f" d="M123.23,218.42l-8.71,20.8,11.47,4.81,8.79-20.98c3.92,1.01,8.02,1.55,12.25,1.55,27.05,0,49.05-22,49.05-49.05h-12.43c0,20.19-16.43,36.62-36.62,36.62s-36.62-16.43-36.62-36.62h-12.43c0,18.42,10.21,34.49,25.26,42.87Z"/><path class="e" d="M98.06,175.55c0-27.04,21.92-48.96,48.96-48.96s48.96,21.92,48.96,48.96H98.06Z"/><path class="d" d="M183.63,175.55c0,20.22-16.39,36.62-36.62,36.62-20.22,0-36.62-16.39-36.62-36.62h73.23Z"/></g></g></svg>