<?xml version="1.0" encoding="UTF-8"?><svg id="a" xmlns="http://www.w3.org/2000/svg" viewBox="0 0 244.92 244.92"><defs><style>.b{fill:none;}.c{fill:#0064c8;}</style></defs><rect class="b" x="0" width="244.92" height="244.92"/><g><g><path class="c" d="M122.46,168.1c-25.2,0-45.7-20.5-45.7-45.7h-15.52c0,22.99,12.74,43.04,31.53,53.51l-10.88,25.96,14.31,6,10.97-26.19c4.89,1.26,10.01,1.93,15.28,1.93,33.76,0,61.22-27.46,61.22-61.22h-15.52c0,25.2-20.5,45.7-45.7,45.7Z"/><path class="c" d="M161.42,67.43H83.5c-12.29,0-22.26,9.97-22.26,22.26v32.71h15.52c0-25.24,20.46-45.7,45.7-45.7s45.7,20.46,45.7,45.7h15.52v-32.71c0-12.29-9.97-22.26-22.26-22.26Zm5.43,22.35h-.03c-3.25,0-5.89-2.64-5.89-5.89s2.64-5.89,5.89-5.89h.03c3.25,0,5.89,2.64,5.89,5.89s-2.64,5.89-5.89,5.89Z"/><g><path class="c" d="M147.66,51.77h-16.51c-3.47,0-6.52,2.32-7.46,5.66l-2.79,10h37l-2.79-10c-.93-3.35-3.98-5.66-7.46-5.66Z"/><path class="c" d="M98.52,57.99h-8.94c-1.35,0-2.44,1.09-2.44,2.44v7h13.81v-7c0-1.35-1.09-2.44-2.44-2.44Z"/><path class="c" d="M122.46,89.78c-18.01,0-32.62,14.6-32.62,32.62h65.23c0-18.01-14.6-32.62-32.62-32.62Zm12.65,11.67c-.39,.84-1.22,1.33-2.09,1.33-.33,0-.66-.07-.98-.22-.69-.32-1.4-.61-2.11-.86-1.21-.41-1.85-1.73-1.44-2.94,.41-1.21,1.73-1.85,2.94-1.44,.87,.3,1.74,.65,2.58,1.05,1.15,.54,1.65,1.92,1.11,3.08Zm9.56,11.2c-.34,.18-.71,.27-1.07,.27-.83,0-1.64-.45-2.05-1.24-1.05-2.01-2.42-3.82-4.07-5.39-.93-.88-.96-2.34-.08-3.27,.88-.93,2.34-.96,3.27-.08,2.02,1.92,3.69,4.14,4.98,6.59,.59,1.13,.16,2.53-.97,3.12Z"/></g></g><g><path class="c" d="M122.46,168.1c-25.2,0-45.7-20.5-45.7-45.7h-15.52c0,22.99,12.74,43.04,31.53,53.51l-10.88,25.96,14.31,6,10.97-26.19c4.89,1.26,10.01,1.93,15.28,1.93,33.76,0,61.22-27.46,61.22-61.22h-15.52c0,25.2-20.5,45.7-45.7,45.7Z"/><path class="c" d="M161.42,67.43H83.5c-12.29,0-22.26,9.97-22.26,22.26v32.71h15.52c0-25.24,20.46-45.7,45.7-45.7s45.7,20.46,45.7,45.7h15.52v-32.71c0-12.29-9.97-22.26-22.26-22.26Zm5.43,22.35h-.03c-3.25,0-5.89-2.64-5.89-5.89s2.64-5.89,5.89-5.89h.03c3.25,0,5.89,2.64,5.89,5.89s-2.64,5.89-5.89,5.89Z"/><g><path class="c" d="M147.66,51.77h-16.51c-3.47,0-6.52,2.32-7.46,5.66l-2.79,10h37l-2.79-10c-.93-3.35-3.98-5.66-7.46-5.66Z"/><path class="c" d="M98.52,57.99h-8.94c-1.35,0-2.44,1.09-2.44,2.44v7h13.81v-7c0-1.35-1.09-2.44-2.44-2.44Z"/><path class="c" d="M122.46,89.78c-18.01,0-32.62,14.6-32.62,32.62h65.23c0-18.01-14.6-32.62-32.62-32.62Zm12.65,11.67c-.39,.84-1.22,1.33-2.09,1.33-.33,0-.66-.07-.98-.22-.69-.32-1.4-.61-2.11-.86-1.21-.41-1.85-1.73-1.44-2.94,.41-1.21,1.73-1.85,2.94-1.44,.87,.3,1.74,.65,2.58,1.05,1.15,.54,1.65,1.92,1.11,3.08Zm9.56,11.2c-.34,.18-.71,.27-1.07,.27-.83,0-1.64-.45-2.05-1.24-1.05-2.01-2.42-3.82-4.07-5.39-.93-.88-.96-2.34-.08-3.27,.88-.93,2.34-.96,3.27-.08,2.02,1.92,3.69,4.14,4.98,6.59,.59,1.13,.16,2.53-.97,3.12Z"/></g></g></g></svg>