<?xml version="1.0" encoding="UTF-8"?><svg id="a" xmlns="http://www.w3.org/2000/svg" viewBox="0 0 593.54 574.27"><defs><style>.b{fill:none;}.c{fill:#ff6e78;}</style></defs><rect class="b" width="593.54" height="574.27"/><g><g><path class="c" d="M410.73,333.24c-1.08-2.11-2.49-3.9-4.26-5.38-1.76-1.48-3.75-2.55-5.96-3.23-2.21-.67-4.57-.9-7.07-.68-2.5,.22-4.79,.85-6.85,1.9-2.06,1.05-3.83,2.45-5.31,4.21-1.48,1.76-2.57,3.78-3.26,6.04-.69,2.26-.92,4.72-.69,7.37,.23,2.65,.89,5.05,1.96,7.18,1.08,2.13,2.5,3.93,4.26,5.38,1.76,1.45,3.75,2.53,5.96,3.23,2.21,.7,4.57,.94,7.08,.72,2.5-.22,4.79-.86,6.85-1.94,2.06-1.07,3.83-2.48,5.31-4.21,1.48-1.74,2.57-3.75,3.26-6.04,.69-2.29,.92-4.76,.69-7.41-.23-2.65-.89-5.03-1.96-7.14Z"/><path class="c" d="M347.09,338.81c-1.07-2.11-2.49-3.9-4.26-5.38-1.76-1.48-3.75-2.55-5.96-3.23-2.21-.67-4.57-.9-7.07-.68-2.51,.22-4.79,.85-6.85,1.9-2.06,1.05-3.83,2.45-5.31,4.21-1.48,1.76-2.57,3.78-3.26,6.04-.69,2.26-.92,4.72-.69,7.37,.23,2.65,.89,5.05,1.96,7.18,1.08,2.13,2.5,3.93,4.26,5.38,1.76,1.45,3.75,2.53,5.96,3.23,2.21,.7,4.57,.94,7.08,.72,2.5-.22,4.79-.86,6.85-1.94,2.06-1.07,3.83-2.48,5.31-4.21,1.48-1.74,2.57-3.75,3.26-6.04,.69-2.29,.92-4.76,.69-7.41-.23-2.65-.89-5.03-1.96-7.14Z"/><path class="c" d="M143.75,349.96c-.76-1.07-1.76-1.87-2.99-2.41-1.24-.53-2.66-.73-4.28-.59l-9.73,.85,1.32,15.1,9.73-.85c1.62-.14,2.99-.58,4.12-1.33,1.12-.74,1.97-1.71,2.53-2.89,.56-1.19,.78-2.52,.65-3.99-.13-1.52-.58-2.82-1.34-3.89Z"/><path class="c" d="M495.03,363.17l-5.2-59.46c-.71-8.14-7.89-14.16-16.03-13.45l-362.33,31.7c-8.14,.71-14.16,7.89-13.45,16.03l5.2,59.46c.71,8.14,7.89,14.16,16.03,13.45l362.33-31.7c8.14-.71,14.16-7.89,13.45-16.03Zm-340.23-.6c-1.47,2.75-3.6,4.93-6.41,6.54-2.81,1.61-6.08,2.57-9.81,2.9l-9.65,.84,1.74,19.89-11.42,1-4.8-54.89,21.07-1.84c3.78-.33,7.19,.04,10.23,1.11,3.04,1.07,5.51,2.84,7.41,5.29,1.9,2.46,3.01,5.6,3.35,9.43,.33,3.73-.24,6.98-1.71,9.73Zm10.76,27.12l-4.8-54.89,36.91-3.23,.87,9.95-25.49,2.23,1.09,12.45,24.02-2.1,.87,9.95-24.02,2.1,1.1,12.6,25.49-2.23,.87,9.95-36.92,3.23Zm66.55-5.82l-11.42,1-3.93-44.95-13.93,1.22-.87-9.95,39.05-3.42,.87,9.95-13.7,1.2,3.93,44.95Zm40.61-34.81l22.47-1.97,.87,9.95-22.47,1.97,1.84,21.07-11.42,1-4.8-54.89,37.58-3.29,.87,9.95-26.16,2.29,1.22,13.93Zm86.52,7.28c-1.17,3.57-2.96,6.76-5.36,9.57-2.4,2.81-5.31,5.08-8.72,6.81-3.41,1.73-7.18,2.78-11.31,3.14-4.13,.36-8.02-.02-11.68-1.13-3.66-1.12-6.92-2.85-9.77-5.2-2.86-2.35-5.17-5.18-6.94-8.49-1.78-3.31-2.84-6.98-3.19-11.01-.35-4.03,.04-7.82,1.19-11.39,1.15-3.56,2.93-6.74,5.33-9.52,2.41-2.78,5.31-5.04,8.73-6.78,3.41-1.73,7.2-2.78,11.38-3.15,4.17-.37,8.09,0,11.75,1.12,3.66,1.12,6.92,2.84,9.77,5.16,2.85,2.33,5.15,5.14,6.9,8.45,1.75,3.31,2.8,6.98,3.15,11.01,.35,4.03-.06,7.83-1.23,11.39Zm63.64-5.57c-1.17,3.57-2.96,6.76-5.36,9.57-2.4,2.81-5.31,5.08-8.72,6.81-3.41,1.73-7.18,2.78-11.31,3.14-4.13,.36-8.02-.02-11.68-1.13-3.66-1.12-6.92-2.85-9.77-5.2-2.85-2.35-5.17-5.18-6.94-8.49-1.77-3.31-2.84-6.98-3.19-11.01-.35-4.03,.04-7.82,1.19-11.39,1.15-3.56,2.92-6.74,5.33-9.52,2.4-2.78,5.31-5.04,8.72-6.78,3.41-1.73,7.21-2.78,11.38-3.15,4.18-.37,8.09,0,11.76,1.12,3.66,1.12,6.92,2.84,9.77,5.16,2.85,2.33,5.15,5.14,6.9,8.45,1.75,3.31,2.8,6.98,3.15,11.01,.35,4.03-.06,7.83-1.23,11.39Zm53.7-1.69c-2.04,4.36-5.15,7.91-9.31,10.65-4.17,2.74-9.22,4.37-15.17,4.89l-17.9,1.57-4.8-54.89,17.9-1.57c5.94-.52,11.21,.21,15.78,2.18,4.58,1.97,8.25,4.92,11.02,8.84,2.77,3.92,4.38,8.53,4.85,13.83,.46,5.3-.33,10.14-2.37,14.5Z"/><path class="c" d="M464.55,326.49c-1.68-2.47-3.88-4.31-6.61-5.51-2.73-1.2-5.89-1.64-9.47-1.32l-6.78,.59,3.06,35,6.78-.59c3.59-.31,6.62-1.31,9.09-2.99,2.48-1.68,4.32-3.89,5.54-6.65,1.22-2.75,1.67-5.9,1.36-9.44-.31-3.59-1.31-6.62-2.99-9.09Z"/></g><path class="c" d="M218.82,407.96c-3.73,0-6.98,.68-9.73,2.04-2.76,1.36-4.87,3.33-6.35,5.91-1.48,2.58-2.22,5.73-2.22,9.46v1.51h-8.53v10.4h8.53v37.95h11.64v-37.95h10.75v-10.4h-10.75v-1.51c0-2.49,.71-4.31,2.13-5.47,1.42-1.16,3.44-1.73,6.04-1.73,.41,0,.87,.02,1.38,.04,.5,.03,1.05,.1,1.64,.22v-10.04c-.59-.12-1.32-.22-2.18-.31-.86-.09-1.64-.13-2.35-.13Z"/><path class="c" d="M257.37,428c-3.02-1.45-6.52-2.18-10.49-2.18-3.26,0-6.28,.53-9.06,1.6-2.79,1.07-5.2,2.53-7.24,4.4-2.04,1.87-3.54,4.07-4.49,6.62l9.51,4.62c.89-2.13,2.3-3.88,4.22-5.24,1.92-1.36,4.13-2.04,6.62-2.04,2.67,0,4.8,.7,6.4,2.09,1.6,1.39,2.4,3.13,2.4,5.2v1.57l-14.31,2.34c-3.79,.59-6.93,1.6-9.42,3.02-2.49,1.42-4.34,3.19-5.55,5.29-1.22,2.1-1.82,4.49-1.82,7.15s.68,5.23,2.04,7.33c1.36,2.1,3.3,3.72,5.82,4.84,2.52,1.12,5.47,1.69,8.84,1.69,2.67,0,5.08-.36,7.24-1.07,2.16-.71,4.12-1.78,5.87-3.2,.71-.58,1.37-1.22,2-1.9v5.1h11.02v-32.17c0-3.38-.84-6.37-2.53-8.98-1.69-2.61-4.04-4.64-7.06-6.09Zm-3.64,33.55c-1.01,1.84-2.44,3.27-4.31,4.31-1.87,1.04-4.01,1.56-6.44,1.56-1.9,0-3.48-.49-4.75-1.47-1.27-.98-1.91-2.3-1.91-3.95s.56-3.1,1.69-4.13c1.12-1.04,2.84-1.76,5.15-2.18l12.09-2.15v2.06c0,2.13-.5,4.12-1.51,5.95Z"/><path class="c" d="M291.66,438.4c1.98-1.21,4.25-1.82,6.8-1.82,2.72,0,5.14,.73,7.24,2.18,2.1,1.45,3.6,3.42,4.49,5.91l10.22-4.53c-.95-2.84-2.5-5.33-4.67-7.47-2.16-2.13-4.73-3.81-7.69-5.02-2.96-1.21-6.16-1.82-9.6-1.82-4.86,0-9.2,1.1-13.02,3.29-3.82,2.19-6.83,5.19-9.02,8.98-2.19,3.79-3.29,8.09-3.29,12.89s1.11,9.11,3.33,12.93c2.22,3.82,5.23,6.84,9.02,9.06,3.79,2.22,8.12,3.33,12.97,3.33,3.49,0,6.72-.61,9.69-1.82,2.96-1.21,5.51-2.9,7.64-5.07,2.13-2.16,3.67-4.61,4.62-7.33l-10.22-4.62c-.95,2.49-2.44,4.47-4.49,5.95-2.04,1.48-4.46,2.22-7.24,2.22-2.55,0-4.81-.62-6.8-1.87-1.99-1.24-3.54-2.96-4.67-5.15-1.13-2.19-1.69-4.71-1.69-7.55s.56-5.29,1.69-7.51c1.12-2.22,2.68-3.94,4.67-5.15Z"/><path class="c" d="M351.15,465.55c-1.9,0-3.45-.3-4.67-.89-1.22-.59-2.1-1.45-2.67-2.58-.56-1.12-.84-2.49-.84-4.09v-20.71h11.11v-10.4h-11.11v-11.02h-11.73v3.73c0,2.37-.64,4.18-1.91,5.42-1.27,1.24-3.1,1.87-5.47,1.87h-.89v10.4h8.26v21.33c0,5.45,1.51,9.67,4.53,12.66,3.02,2.99,7.26,4.49,12.71,4.49,.89,0,1.87-.06,2.93-.18,1.07-.12,2.01-.24,2.84-.36v-9.95c-.53,.06-1.08,.12-1.64,.18-.56,.06-1.05,.09-1.47,.09Z"/><path class="c" d="M383.82,447.51l-7.73-2.31c-1.13-.36-2.12-.74-2.98-1.16-.86-.41-1.53-.95-2-1.6-.47-.65-.71-1.39-.71-2.22,0-1.48,.56-2.65,1.69-3.51,1.12-.86,2.67-1.29,4.62-1.29,2.43,0,4.62,.64,6.58,1.91,1.95,1.27,3.35,3.01,4.18,5.2l8.89-4.18c-1.48-3.97-3.97-7.05-7.47-9.24-3.5-2.19-7.52-3.29-12.09-3.29-3.5,0-6.59,.62-9.29,1.87-2.7,1.24-4.8,2.98-6.31,5.2-1.51,2.22-2.27,4.81-2.27,7.78,0,3.32,1.05,6.21,3.15,8.66,2.1,2.46,5.17,4.25,9.2,5.38l7.91,2.22c1.07,.3,2.01,.67,2.84,1.11,.83,.44,1.5,.98,2,1.6,.5,.62,.76,1.41,.76,2.35,0,1.54-.62,2.79-1.87,3.73-1.24,.95-2.9,1.42-4.98,1.42-2.73,0-5.2-.77-7.42-2.31-2.22-1.54-3.95-3.67-5.2-6.4l-8.8,4.18c1.48,4.21,4.13,7.54,7.95,10,3.82,2.46,8.31,3.69,13.46,3.69,3.67,0,6.87-.62,9.6-1.87,2.72-1.24,4.86-2.98,6.4-5.2,1.54-2.22,2.31-4.78,2.31-7.69,0-3.44-1.08-6.34-3.24-8.71-2.16-2.37-5.23-4.15-9.2-5.33Z"/><path class="c" d="M229.73,240.59c-3.85-2.19-8.18-3.29-12.97-3.29s-9.04,1.1-12.89,3.29c-3.85,2.19-6.93,5.19-9.24,8.98-2.31,3.79-3.47,8.12-3.47,12.97s1.16,9.18,3.47,12.97c2.31,3.79,5.41,6.78,9.29,8.98,3.88,2.19,8.16,3.29,12.84,3.29s9.03-1.1,12.89-3.29c3.85-2.19,6.93-5.18,9.24-8.98,2.31-3.79,3.47-8.12,3.47-12.97s-1.14-9.26-3.42-13.02c-2.28-3.76-5.35-6.74-9.2-8.93Zm-1.29,29.46c-1.16,2.22-2.73,3.95-4.71,5.2-1.99,1.24-4.31,1.87-6.98,1.87s-4.92-.62-6.93-1.87c-2.02-1.24-3.6-2.98-4.75-5.2-1.16-2.22-1.73-4.72-1.73-7.51s.58-5.27,1.73-7.47c1.16-2.19,2.74-3.91,4.75-5.15,2.01-1.24,4.32-1.87,6.93-1.87s4.99,.62,6.98,1.87c1.98,1.24,3.55,2.96,4.71,5.15,1.16,2.19,1.73,4.68,1.73,7.47s-.58,5.29-1.73,7.51Z"/><path class="c" d="M287.55,240.68c-3.67-2.25-7.79-3.38-12.35-3.38-3.73,0-7.02,.73-9.86,2.18-2.28,1.16-4.17,2.7-5.69,4.61v-5.72h-11.02v66.12h11.73v-22.42c1.43,1.52,3.13,2.74,5.11,3.67,2.93,1.36,6.15,2.04,9.64,2.04,4.68,0,8.86-1.11,12.53-3.33,3.67-2.22,6.58-5.26,8.71-9.11,2.13-3.85,3.2-8.12,3.2-12.8s-1.08-9.01-3.24-12.8c-2.16-3.79-5.08-6.81-8.75-9.06Zm-1.87,29.42c-1.19,2.19-2.8,3.91-4.84,5.15-2.04,1.24-4.4,1.87-7.07,1.87s-4.84-.62-6.89-1.87c-2.04-1.24-3.64-2.96-4.8-5.15-1.16-2.19-1.73-4.71-1.73-7.55s.58-5.27,1.73-7.47c1.16-2.19,2.75-3.91,4.8-5.15,2.04-1.24,4.34-1.87,6.89-1.87s5.02,.62,7.07,1.87c2.04,1.24,3.66,2.96,4.84,5.15,1.18,2.19,1.78,4.68,1.78,7.47s-.59,5.36-1.78,7.55Z"/><path class="c" d="M345.14,244.32c-2.01-2.19-4.46-3.91-7.33-5.15-2.87-1.24-6.21-1.87-10-1.87-4.56,0-8.65,1.1-12.26,3.29-3.61,2.19-6.49,5.17-8.62,8.93-2.13,3.76-3.2,8.07-3.2,12.93s1.04,8.95,3.11,12.8c2.07,3.85,4.99,6.9,8.75,9.15,3.76,2.25,8.13,3.38,13.11,3.38,3.26,0,6.28-.5,9.06-1.51,2.78-1.01,5.18-2.4,7.2-4.18,2.01-1.78,3.5-3.82,4.44-6.13l-9.42-4.62c-1.07,1.9-2.53,3.41-4.4,4.53-1.87,1.13-4.13,1.69-6.8,1.69s-5.02-.62-7.07-1.87c-2.04-1.24-3.59-3.01-4.62-5.29-.62-1.37-1.01-2.87-1.18-4.49h34.81c.24-.71,.4-1.5,.49-2.35,.09-.86,.13-1.73,.13-2.62,0-3.26-.53-6.29-1.6-9.11-1.07-2.81-2.61-5.32-4.62-7.51Zm-28.98,12.62c.2-1.02,.48-1.97,.85-2.84,.98-2.31,2.41-4.09,4.31-5.33,1.9-1.24,4.06-1.87,6.49-1.87s4.72,.62,6.53,1.87c1.81,1.24,3.11,2.93,3.91,5.07,.37,.97,.58,2.01,.65,3.11h-22.74Z"/><path class="c" d="M391.96,239.61c-2.76-1.54-5.91-2.31-9.46-2.31s-6.44,.76-9.02,2.27c-1.99,1.17-3.54,2.75-4.67,4.75v-5.95h-11.02v48.35h11.73v-28.35c0-2.13,.41-3.97,1.24-5.51,.83-1.54,1.98-2.72,3.47-3.55,1.48-.83,3.17-1.24,5.07-1.24s3.58,.42,5.07,1.24c1.48,.83,2.64,2.01,3.47,3.55,.83,1.54,1.24,3.38,1.24,5.51v28.35h11.64v-31.1c0-3.61-.77-6.8-2.31-9.55-1.54-2.75-3.69-4.9-6.44-6.44Z"/><g><path class="c" d="M309.66,136.67c-1.2,0-2.23-.74-2.65-1.78-.93,1.54-1.48,3.46-1.48,5.56,0,5,3.14,9.06,7.01,9.06s7.01-4.06,7.01-9.06-3.14-9.06-7.01-9.06c-.4,0-.78,.05-1.16,.13,.7,.52,1.16,1.35,1.16,2.28,0,1.58-1.28,2.86-2.87,2.86Z"/><path class="c" d="M281.78,131.54c-.41-.09-.82-.15-1.25-.15-3.87,0-7.01,4.06-7.01,9.06s3.14,9.06,7.01,9.06,7.01-4.06,7.01-9.06c0-2.05-.53-3.94-1.42-5.45-.45,.99-1.45,1.67-2.6,1.67-1.58,0-2.87-1.28-2.87-2.86,0-.93,.45-1.74,1.14-2.27Z"/><path class="c" d="M268.24,155.88c-.24-1.81-.38-3.7-.38-5.65,0-4.07,.55-7.9,1.53-11.25,.78-2.67,1.83-5.04,3.08-6.96,.31-.48,.64-.93,.98-1.36,.67-.85,1.39-1.58,2.15-2.18,1.51-1.19,3.18-1.85,4.93-1.85,.42,0,.84,.04,1.25,.12,.14,.03,.27,.08,.41,.11,.27,.07,.54,.13,.81,.23,.16,.06,.32,.14,.48,.21,.23,.1,.47,.21,.7,.33,.17,.09,.33,.21,.5,.32,.21,.14,.42,.27,.63,.43,.17,.13,.33,.27,.5,.42,.19,.17,.39,.33,.58,.52,.17,.16,.33,.34,.49,.51,.18,.19,.36,.39,.53,.6,.16,.19,.32,.4,.47,.6,.16,.22,.32,.44,.48,.67,.15,.23,.3,.46,.45,.7,.15,.24,.29,.48,.43,.73,.15,.26,.29,.52,.43,.79,.13,.25,.26,.52,.38,.78,.14,.29,.27,.58,.4,.88,.11,.27,.22,.54,.33,.82,.12,.32,.25,.64,.36,.97,.1,.28,.18,.56,.28,.84,.11,.35,.22,.7,.33,1.06,.08,.28,.15,.57,.22,.86,.1,.38,.2,.76,.28,1.15,.06,.27,.11,.55,.16,.83,.08,.42,.17,.84,.24,1.28,.03,.2,.06,.41,.09,.62,.18,1.19,.31,2.41,.38,3.67v.04c-3.13,1.35-5.33,4.5-5.33,8.18h17.49c0-3.67-2.2-6.83-5.33-8.18h0c.07-1.3,.21-2.57,.4-3.8,.03-.18,.05-.36,.07-.54,.07-.45,.16-.88,.25-1.31,.05-.26,.1-.53,.16-.79,.09-.4,.19-.78,.29-1.17,.07-.28,.14-.57,.22-.84,.1-.36,.21-.71,.33-1.06,.09-.28,.18-.57,.28-.85,.12-.33,.24-.64,.36-.96,.11-.28,.22-.55,.33-.82,.13-.3,.26-.59,.4-.87,.12-.27,.25-.53,.38-.78,.14-.27,.28-.53,.43-.79,.14-.25,.28-.49,.43-.73,.15-.24,.3-.47,.45-.69,.16-.23,.32-.45,.48-.67,.15-.21,.31-.41,.47-.6,.17-.21,.35-.41,.53-.6,.16-.17,.32-.35,.49-.51,.19-.19,.38-.35,.58-.52,.16-.14,.33-.29,.5-.41,.21-.16,.42-.29,.63-.43,.17-.11,.33-.22,.5-.31,.23-.13,.46-.23,.7-.33,.16-.07,.32-.15,.48-.21,.27-.1,.54-.16,.81-.23,.14-.03,.27-.08,.41-.11,.41-.08,.83-.12,1.25-.12s.87,.04,1.29,.12c6.38,1.21,11.37,11.26,11.37,23.47,0,1.95-.14,3.83-.38,5.65h20.72c0-10.25-3.15-19.76-8.53-27.62l3.84-25.8c.46-3.07-2.67-5.42-5.49-4.13l-23.81,10.89c-1.7-.55-3.46-.97-5.23-1.33,.04,.13,.08,.27,.08,.42v10c0,.77-.62,1.39-1.39,1.39s-1.39-.62-1.39-1.39v-10c0-.33,.13-.63,.33-.86-2.04-.31-4.13-.48-6.25-.53,.11,.2,.19,.42,.19,.66v15.77c0,.77-.62,1.39-1.39,1.39s-1.39-.62-1.39-1.39v-15.77c0-.24,.08-.46,.19-.66-2.12,.05-4.2,.22-6.24,.53,.19,.24,.32,.53,.32,.86v10c0,.77-.62,1.39-1.39,1.39s-1.39-.62-1.39-1.39v-10c0-.14,.04-.28,.08-.41-1.8,.37-3.58,.8-5.3,1.36l.04-.03-23.82-10.9c-2.82-1.29-5.95,1.06-5.49,4.13l3.85,25.88c-5.34,7.85-8.47,17.33-8.47,27.54h20.72Zm65.86-50.68c.26-.12,.54,.1,.5,.38l-2.48,16.64c-3.83-4.05-8.34-7.44-13.35-10l15.33-7.01Zm-37.57,41.8h0Zm-37.65-41.8l15.37,7.03c-5.03,2.57-9.55,5.98-13.38,10.05l-2.49-16.7c-.04-.28,.24-.49,.5-.38Z"/><path class="c" d="M296.53,192.46c-20.17,0-36.58-16.41-36.58-36.58h-12.42c0,18.4,10.2,34.46,25.24,42.84l-8.71,20.79,11.46,4.8,8.78-20.97c3.91,1.01,8.01,1.55,12.24,1.55,27.02,0,49.01-21.98,49.01-49.01h-12.42c0,20.17-16.41,36.58-36.58,36.58Z"/></g></g></svg>