<?xml version="1.0" encoding="UTF-8"?><svg id="a" xmlns="http://www.w3.org/2000/svg" viewBox="0 0 244.92 244.92"><defs><style>.b{fill:#ff8714;}</style></defs><rect x="0" y="-.1" width="244.92" height="244.92"/><g><path class="b" d="M122.79,61.15c-33.78,0-61.17,27.39-61.17,61.17h122.34c0-33.78-27.39-61.17-61.17-61.17Zm21.36,42.26c-1.04,1.54-3.13,1.96-4.67,.92-1.54-1.04-1.96-3.13-.92-4.67,1.04-1.54,3.13-1.96,4.67-.92,1.54,1.04,1.96,3.13,.92,4.67Zm2.15-18.72c-1.04,1.54-3.13,1.96-4.67,.92-1.54-1.04-1.95-3.13-.92-4.67,1.04-1.54,3.13-1.96,4.67-.92,1.54,1.04,1.96,3.13,.92,4.67Zm16.38,15.04c-1.04,1.54-3.13,1.96-4.67,.92-1.54-1.04-1.95-3.13-.92-4.67,1.04-1.54,3.13-1.96,4.67-.92,1.54,1.04,1.95,3.13,.92,4.67Z"/><path class="b" d="M93.12,175.79l-10.87,25.94,14.3,5.99,10.96-26.17c4.88,1.26,10,1.93,15.27,1.93,33.73,0,61.17-27.44,61.17-61.17h-15.51c0,25.18-20.48,45.66-45.66,45.66s-45.66-20.48-45.66-45.66h-15.51c0,22.97,12.73,43.01,31.5,53.47Z"/><path class="b" d="M148.08,30.43c-12.03,0-22.48,6.7-27.86,16.57,4.14,3.85,7.26,8.78,8.88,14.36,14-3.14,24.5-15.51,24.75-30.4-1.87-.34-3.8-.53-5.77-.53Z"/><path class="b" d="M98.64,38.5c-2.38,0-4.7,.27-6.93,.77,3.83,13.22,16.02,22.89,30.47,22.89,2.38,0,4.7-.27,6.93-.77-3.83-13.22-16.02-22.89-30.47-22.89Z"/></g></svg>