<?xml version="1.0" encoding="UTF-8"?><svg id="a" xmlns="http://www.w3.org/2000/svg" viewBox="0 0 244.92 244.92"><defs><style>.b{fill:none;}.c{fill:#ff6e78;}</style></defs><rect class="b" x="0" y="0" width="244.92" height="244.92"/><g><path class="c" d="M138.89,98.39c-1.5,0-2.78-.92-3.32-2.23-1.16,1.92-1.86,4.33-1.86,6.95,0,6.25,3.92,11.32,8.76,11.32s8.76-5.07,8.76-11.32-3.92-11.32-8.76-11.32c-.49,0-.98,.07-1.45,.17,.87,.65,1.45,1.68,1.45,2.85,0,1.97-1.6,3.57-3.59,3.57Z"/><path class="c" d="M104.05,91.98c-.51-.12-1.03-.19-1.56-.19-4.84,0-8.76,5.07-8.76,11.32s3.92,11.32,8.76,11.32,8.76-5.07,8.76-11.32c0-2.56-.67-4.92-1.78-6.82-.57,1.23-1.81,2.09-3.25,2.09-1.98,0-3.59-1.6-3.59-3.57,0-1.16,.56-2.18,1.42-2.83Z"/><path class="c" d="M87.14,122.39c-.3-2.27-.48-4.62-.48-7.06,0-5.09,.69-9.88,1.91-14.05,.97-3.34,2.28-6.29,3.85-8.7,.39-.6,.8-1.17,1.22-1.7,.84-1.06,1.74-1.97,2.69-2.72,1.89-1.49,3.97-2.32,6.16-2.32,.53,0,1.05,.05,1.57,.15,.17,.03,.34,.09,.51,.14,.34,.08,.68,.16,1.01,.29,.2,.08,.4,.18,.6,.27,.29,.13,.58,.26,.87,.42,.21,.12,.42,.26,.62,.4,.26,.17,.53,.34,.79,.54,.21,.16,.42,.34,.62,.52,.24,.21,.48,.42,.72,.65,.21,.2,.41,.42,.61,.64,.22,.24,.44,.49,.66,.75,.2,.24,.4,.5,.59,.76,.2,.27,.4,.55,.6,.83,.19,.28,.38,.57,.56,.87,.18,.3,.36,.6,.54,.91,.18,.32,.36,.65,.53,.98,.16,.32,.32,.64,.47,.97,.17,.36,.34,.72,.5,1.09,.14,.33,.28,.68,.41,1.02,.15,.4,.31,.79,.45,1.21,.12,.34,.23,.7,.34,1.06,.14,.44,.28,.87,.41,1.32,.1,.35,.18,.71,.28,1.07,.12,.48,.25,.95,.36,1.44,.07,.34,.14,.69,.2,1.03,.1,.53,.21,1.05,.3,1.59,.04,.25,.07,.52,.11,.77,.22,1.49,.39,3.02,.48,4.59,0,.02,0,.04,0,.06-3.91,1.69-6.66,5.63-6.66,10.22h21.86c0-4.59-2.75-8.53-6.66-10.22h0c.09-1.63,.27-3.21,.5-4.74,.03-.22,.06-.45,.09-.67,.09-.56,.2-1.1,.31-1.64,.07-.33,.12-.67,.19-.99,.11-.5,.24-.98,.36-1.46,.09-.35,.17-.71,.27-1.05,.13-.45,.27-.88,.41-1.32,.11-.35,.22-.71,.34-1.06,.14-.41,.3-.81,.45-1.2,.14-.35,.27-.69,.41-1.03,.16-.37,.33-.73,.49-1.09,.16-.33,.31-.66,.48-.98,.17-.34,.35-.66,.53-.98,.18-.31,.36-.62,.54-.91,.18-.3,.37-.59,.56-.87,.2-.29,.4-.57,.6-.84,.19-.26,.39-.51,.59-.75,.22-.26,.44-.51,.66-.75,.2-.22,.4-.43,.61-.64,.24-.23,.48-.44,.73-.65,.21-.18,.41-.36,.62-.52,.26-.2,.53-.37,.79-.54,.21-.13,.41-.28,.62-.39,.29-.16,.58-.29,.87-.42,.2-.09,.4-.19,.6-.27,.33-.12,.67-.2,1.01-.29,.17-.04,.34-.1,.51-.14,.52-.09,1.04-.15,1.57-.15s1.09,.05,1.62,.15c7.98,1.51,14.2,14.06,14.2,29.33,0,2.44-.18,4.79-.48,7.06h25.9c0-12.81-3.94-24.69-10.66-34.52l4.8-32.23c.57-3.83-3.34-6.77-6.86-5.16l-29.75,13.61c-2.13-.68-4.32-1.21-6.54-1.67,.05,.17,.1,.34,.1,.52v12.5c0,.96-.78,1.73-1.73,1.73s-1.73-.78-1.73-1.73v-12.5c0-.42,.17-.78,.41-1.08-2.55-.39-5.16-.59-7.81-.66,.14,.25,.24,.52,.24,.82v19.7c0,.96-.78,1.73-1.73,1.73s-1.73-.78-1.73-1.73v-19.7c0-.3,.1-.57,.23-.82-2.64,.07-5.25,.27-7.8,.66,.24,.3,.41,.66,.41,1.07v12.5c0,.96-.78,1.73-1.73,1.73s-1.73-.78-1.73-1.73v-12.5c0-.18,.05-.35,.1-.51-2.25,.46-4.47,1-6.62,1.7l.05-.04-29.76-13.62c-3.52-1.61-7.43,1.33-6.86,5.16l4.81,32.34c-6.67,9.81-10.58,21.65-10.58,34.41h25.9Zm82.29-63.33c.32-.15,.68,.12,.62,.47l-3.1,20.79c-4.79-5.06-10.42-9.3-16.68-12.49l19.16-8.76Zm-46.95,52.23h0Zm-47.04-52.23l19.2,8.79c-6.28,3.21-11.93,7.47-16.72,12.56l-3.11-20.87c-.05-.35,.3-.62,.63-.47Z"/><path class="c" d="M122.48,168.11c-25.21,0-45.71-20.51-45.71-45.71h-15.52c0,22.99,12.75,43.06,31.54,53.53l-10.88,25.97,14.32,6,10.97-26.2c4.89,1.26,10.01,1.93,15.29,1.93,33.77,0,61.24-27.47,61.24-61.24h-15.52c0,25.21-20.51,45.71-45.71,45.71Z"/></g></svg>