<?xml version="1.0" encoding="UTF-8"?><svg id="a" xmlns="http://www.w3.org/2000/svg" viewBox="0 0 1152.14 327.76"><defs><style>.b{fill:#fff;}.c{fill:#ffe6dc;}.d{fill:#ff6e78;}.e{fill:#aaa;}</style></defs><rect width="1152.14" height="327.76"/><g><g><path class="b" d="M877,118.72c-3.73,0-6.96,.68-9.71,2.04-2.75,1.36-4.86,3.33-6.34,5.9-1.48,2.57-2.22,5.72-2.22,9.45v1.51h-8.51v10.38h8.51v37.87h11.62v-37.87h10.73v-10.38h-10.73v-1.51c0-2.48,.71-4.3,2.13-5.45,1.42-1.15,3.43-1.73,6.03-1.73,.41,0,.87,.02,1.37,.04,.5,.03,1.05,.1,1.64,.22v-10.02c-.59-.12-1.32-.22-2.17-.31-.86-.09-1.64-.13-2.35-.13Z"/><path class="b" d="M915.48,138.72c-3.02-1.45-6.51-2.17-10.47-2.17-3.25,0-6.27,.53-9.05,1.6-2.78,1.06-5.19,2.53-7.23,4.39-2.04,1.86-3.53,4.07-4.48,6.61l9.49,4.61c.89-2.13,2.29-3.87,4.21-5.23,1.92-1.36,4.12-2.04,6.61-2.04,2.66,0,4.79,.7,6.39,2.08,1.6,1.39,2.39,3.12,2.39,5.19v1.56l-14.28,2.34c-3.79,.59-6.92,1.6-9.4,3.02-2.48,1.42-4.33,3.18-5.54,5.28-1.21,2.1-1.82,4.48-1.82,7.14s.68,5.22,2.04,7.32c1.36,2.1,3.3,3.71,5.81,4.83,2.51,1.12,5.45,1.69,8.83,1.69,2.66,0,5.07-.35,7.23-1.06,2.16-.71,4.11-1.77,5.85-3.19,.71-.58,1.37-1.22,2-1.89v5.09h11v-32.11c0-3.37-.84-6.36-2.53-8.96-1.69-2.6-4.04-4.63-7.05-6.08Zm-3.64,33.48c-1.01,1.83-2.44,3.27-4.3,4.3-1.86,1.04-4.01,1.55-6.43,1.55-1.89,0-3.47-.49-4.75-1.46-1.27-.98-1.91-2.29-1.91-3.95s.56-3.09,1.69-4.12c1.12-1.03,2.84-1.76,5.14-2.17l12.06-2.14v2.05c0,2.13-.5,4.11-1.51,5.94Z"/><path class="b" d="M949.69,149.1c1.98-1.21,4.24-1.82,6.79-1.82,2.72,0,5.13,.72,7.23,2.17,2.1,1.45,3.59,3.41,4.48,5.9l10.2-4.52c-.95-2.84-2.5-5.32-4.66-7.45-2.16-2.13-4.72-3.8-7.67-5.01-2.96-1.21-6.15-1.82-9.58-1.82-4.85,0-9.18,1.09-12.99,3.28-3.81,2.19-6.82,5.17-9,8.96-2.19,3.78-3.28,8.07-3.28,12.86s1.11,9.09,3.33,12.9c2.22,3.81,5.22,6.83,9,9.05,3.78,2.22,8.1,3.33,12.95,3.33,3.49,0,6.71-.61,9.67-1.82,2.96-1.21,5.5-2.9,7.63-5.06,2.13-2.16,3.67-4.6,4.61-7.32l-10.2-4.61c-.95,2.48-2.44,4.46-4.48,5.94-2.04,1.48-4.45,2.22-7.23,2.22-2.54,0-4.81-.62-6.79-1.86-1.98-1.24-3.53-2.96-4.66-5.14-1.12-2.19-1.69-4.7-1.69-7.54s.56-5.28,1.69-7.49c1.12-2.22,2.67-3.93,4.66-5.14Z"/><path class="b" d="M1009.06,176.19c-1.89,0-3.45-.3-4.66-.89-1.21-.59-2.1-1.45-2.66-2.57-.56-1.12-.84-2.48-.84-4.08v-20.67h11.09v-10.38h-11.09v-11h-11.71v3.73c0,2.37-.64,4.17-1.91,5.41-1.27,1.24-3.09,1.86-5.45,1.86h-.89v10.38h8.25v21.29c0,5.44,1.51,9.65,4.52,12.64,3.02,2.99,7.24,4.48,12.68,4.48,.89,0,1.86-.06,2.93-.18,1.06-.12,2.01-.24,2.84-.35v-9.93c-.53,.06-1.08,.12-1.64,.18-.56,.06-1.05,.09-1.46,.09Z"/><path class="b" d="M1041.67,158.19l-7.72-2.31c-1.12-.35-2.11-.74-2.97-1.15-.86-.41-1.52-.94-2-1.6-.47-.65-.71-1.39-.71-2.22,0-1.48,.56-2.65,1.69-3.5,1.12-.86,2.66-1.29,4.61-1.29,2.42,0,4.61,.64,6.56,1.91,1.95,1.27,3.34,3,4.17,5.19l8.87-4.17c-1.48-3.96-3.96-7.04-7.45-9.22-3.49-2.19-7.51-3.28-12.06-3.28-3.49,0-6.58,.62-9.27,1.86-2.69,1.24-4.79,2.97-6.3,5.19-1.51,2.22-2.26,4.8-2.26,7.76,0,3.31,1.05,6.19,3.15,8.65,2.1,2.45,5.16,4.24,9.18,5.37l7.89,2.22c1.06,.3,2.01,.67,2.84,1.11,.83,.44,1.49,.98,2,1.6,.5,.62,.75,1.41,.75,2.35,0,1.54-.62,2.78-1.86,3.73-1.24,.95-2.9,1.42-4.97,1.42-2.72,0-5.19-.77-7.41-2.31-2.22-1.54-3.95-3.67-5.19-6.39l-8.78,4.17c1.48,4.2,4.12,7.53,7.94,9.98,3.81,2.45,8.29,3.68,13.44,3.68,3.67,0,6.86-.62,9.58-1.86,2.72-1.24,4.85-2.97,6.39-5.19,1.54-2.22,2.31-4.77,2.31-7.67,0-3.43-1.08-6.33-3.24-8.69-2.16-2.36-5.22-4.14-9.18-5.32Z"/></g><g><path class="b" d="M258.56,139.83c-3.84-2.19-8.16-3.28-12.95-3.28s-9.02,1.09-12.86,3.28c-3.84,2.19-6.92,5.17-9.22,8.96-2.31,3.78-3.46,8.1-3.46,12.95s1.15,9.17,3.46,12.95c2.31,3.78,5.39,6.77,9.27,8.96,3.87,2.19,8.14,3.28,12.82,3.28s9.02-1.09,12.86-3.28c3.84-2.19,6.92-5.17,9.22-8.96,2.31-3.78,3.46-8.1,3.46-12.95s-1.14-9.24-3.41-12.99c-2.28-3.75-5.34-6.73-9.18-8.91Zm-1.29,29.4c-1.15,2.22-2.72,3.95-4.7,5.19-1.98,1.24-4.3,1.86-6.96,1.86s-4.91-.62-6.92-1.86c-2.01-1.24-3.59-2.97-4.75-5.19-1.15-2.22-1.73-4.71-1.73-7.49s.58-5.26,1.73-7.45c1.15-2.19,2.73-3.9,4.75-5.14,2.01-1.24,4.32-1.86,6.92-1.86s4.98,.62,6.96,1.86c1.98,1.24,3.55,2.96,4.7,5.14,1.15,2.19,1.73,4.67,1.73,7.45s-.58,5.28-1.73,7.49Z"/><path class="b" d="M316.26,139.92c-3.67-2.25-7.78-3.37-12.33-3.37-3.72,0-7.01,.72-9.84,2.17-2.27,1.16-4.16,2.7-5.68,4.6v-5.71h-11v65.99h11.71v-22.37c1.42,1.51,3.12,2.74,5.1,3.66,2.93,1.36,6.13,2.04,9.62,2.04,4.67,0,8.84-1.11,12.51-3.33,3.67-2.22,6.56-5.25,8.69-9.09,2.13-3.84,3.19-8.1,3.19-12.77s-1.08-8.99-3.24-12.77c-2.16-3.78-5.07-6.8-8.74-9.05Zm-1.86,29.36c-1.18,2.19-2.79,3.9-4.83,5.14-2.04,1.24-4.39,1.86-7.05,1.86s-4.83-.62-6.87-1.86c-2.04-1.24-3.64-2.96-4.79-5.14-1.15-2.19-1.73-4.7-1.73-7.54s.58-5.26,1.73-7.45c1.15-2.19,2.75-3.9,4.79-5.14,2.04-1.24,4.33-1.86,6.87-1.86s5.01,.62,7.05,1.86c2.04,1.24,3.65,2.96,4.83,5.14,1.18,2.19,1.77,4.67,1.77,7.45s-.59,5.35-1.77,7.54Z"/><path class="b" d="M373.73,143.55c-2.01-2.19-4.45-3.9-7.32-5.14-2.87-1.24-6.19-1.86-9.98-1.86-4.55,0-8.63,1.09-12.24,3.28-3.61,2.19-6.47,5.16-8.6,8.91-2.13,3.76-3.19,8.06-3.19,12.9s1.03,8.93,3.1,12.77c2.07,3.84,4.98,6.89,8.74,9.14,3.75,2.25,8.12,3.37,13.08,3.37,3.25,0,6.27-.5,9.05-1.51,2.78-1,5.17-2.39,7.18-4.17,2.01-1.77,3.49-3.81,4.43-6.12l-9.4-4.61c-1.06,1.89-2.53,3.4-4.39,4.52-1.86,1.12-4.12,1.69-6.79,1.69s-5.01-.62-7.05-1.86c-2.04-1.24-3.58-3-4.61-5.28-.62-1.37-1.01-2.86-1.17-4.48h34.74c.24-.71,.4-1.49,.49-2.35,.09-.86,.13-1.73,.13-2.62,0-3.25-.53-6.28-1.6-9.09-1.06-2.81-2.6-5.31-4.61-7.49Zm-28.92,12.59c.2-1.02,.48-1.96,.85-2.84,.98-2.31,2.41-4.08,4.3-5.32,1.89-1.24,4.05-1.86,6.47-1.86s4.71,.62,6.52,1.86c1.8,1.24,3.1,2.93,3.9,5.06,.36,.97,.58,2.01,.65,3.1h-22.7Z"/><path class="b" d="M420.46,138.85c-2.75-1.54-5.9-2.31-9.45-2.31s-6.43,.75-9,2.26c-1.99,1.16-3.53,2.75-4.66,4.74v-5.93h-11v48.25h11.71v-28.29c0-2.13,.41-3.96,1.24-5.5,.83-1.54,1.98-2.72,3.46-3.55,1.48-.83,3.16-1.24,5.06-1.24s3.58,.41,5.06,1.24c1.48,.83,2.63,2.01,3.46,3.55,.83,1.54,1.24,3.37,1.24,5.5v28.29h11.62v-31.04c0-3.61-.77-6.79-2.31-9.53-1.54-2.75-3.68-4.89-6.43-6.43Z"/></g><g><rect class="d" x="442.45" y="113.71" width="393.3" height="89.27" rx="14.79" ry="14.79" transform="translate(-11.37 56.3) rotate(-5)"/><g><path class="b" d="M461.83,201.51l-4.8-54.89,21.07-1.84c3.78-.33,7.19,.04,10.23,1.11s5.51,2.84,7.41,5.29c1.9,2.46,3.01,5.6,3.35,9.43,.33,3.73-.24,6.98-1.71,9.73-1.47,2.75-3.6,4.93-6.41,6.54-2.81,1.61-6.08,2.57-9.81,2.9l-9.65,.84,1.74,19.89-11.42,1Zm8.81-30.84l9.73-.85c1.62-.14,2.99-.58,4.12-1.33,1.12-.74,1.97-1.71,2.53-2.89,.56-1.19,.78-2.52,.65-3.99-.13-1.52-.58-2.82-1.34-3.89-.76-1.07-1.76-1.87-2.99-2.41-1.24-.53-2.66-.73-4.28-.59l-9.73,.85,1.32,15.1Z"/><path class="b" d="M508.14,197.46l-4.8-54.89,36.91-3.23,.87,9.95-25.49,2.23,1.09,12.45,24.02-2.1,.87,9.95-24.02,2.1,1.1,12.6,25.49-2.23,.87,9.95-36.92,3.23Z"/><path class="b" d="M563.27,192.64l-3.93-44.95-13.93,1.22-.87-9.95,39.05-3.42,.87,9.95-13.7,1.2,3.93,44.95-11.42,1Z"/><path class="b" d="M606.59,188.85l-4.8-54.89,37.58-3.29,.87,9.95-26.16,2.29,1.22,13.93,22.47-1.97,.87,9.95-22.47,1.97,1.84,21.07-11.42,1Z"/><path class="b" d="M676.42,183.63c-4.13,.36-8.02-.02-11.68-1.13-3.66-1.12-6.92-2.85-9.77-5.2-2.86-2.35-5.17-5.18-6.94-8.49-1.78-3.31-2.84-6.98-3.19-11.01-.35-4.03,.04-7.82,1.19-11.39,1.15-3.56,2.92-6.74,5.33-9.52,2.41-2.78,5.31-5.04,8.73-6.78,3.41-1.73,7.2-2.78,11.38-3.15,4.17-.37,8.09,0,11.75,1.12,3.66,1.12,6.92,2.84,9.77,5.16,2.85,2.33,5.15,5.14,6.9,8.45,1.75,3.31,2.8,6.98,3.15,11.01,.35,4.03-.06,7.83-1.23,11.39-1.17,3.57-2.96,6.76-5.36,9.57-2.41,2.81-5.31,5.08-8.72,6.81-3.41,1.73-7.18,2.78-11.31,3.14Zm-.9-10.32c2.5-.22,4.79-.86,6.85-1.94,2.06-1.07,3.83-2.48,5.31-4.21,1.48-1.74,2.57-3.75,3.26-6.04,.69-2.29,.92-4.76,.69-7.41-.23-2.65-.89-5.03-1.96-7.14-1.07-2.11-2.49-3.9-4.26-5.38-1.76-1.48-3.75-2.55-5.96-3.23-2.21-.67-4.57-.9-7.07-.68-2.51,.22-4.79,.85-6.85,1.9-2.06,1.05-3.83,2.45-5.31,4.21-1.48,1.76-2.57,3.78-3.26,6.04-.69,2.26-.92,4.72-.69,7.37,.23,2.65,.89,5.05,1.96,7.18,1.08,2.13,2.5,3.93,4.26,5.38,1.76,1.45,3.75,2.53,5.96,3.23,2.21,.7,4.57,.94,7.08,.72Z"/><path class="b" d="M740.06,178.06c-4.13,.36-8.02-.02-11.68-1.13-3.66-1.12-6.92-2.85-9.77-5.2-2.85-2.35-5.17-5.18-6.94-8.49-1.77-3.31-2.84-6.98-3.19-11.01-.35-4.03,.04-7.82,1.19-11.39,1.15-3.56,2.92-6.74,5.33-9.52,2.4-2.78,5.31-5.04,8.72-6.78,3.41-1.73,7.21-2.78,11.38-3.15,4.18-.37,8.09,0,11.76,1.12,3.66,1.12,6.92,2.84,9.77,5.16,2.85,2.33,5.15,5.14,6.9,8.45,1.75,3.31,2.8,6.98,3.15,11.01,.35,4.03-.06,7.83-1.23,11.39-1.17,3.57-2.96,6.76-5.36,9.57-2.4,2.81-5.31,5.08-8.72,6.81-3.41,1.73-7.18,2.78-11.31,3.14Zm-.9-10.32c2.5-.22,4.79-.86,6.85-1.94,2.06-1.07,3.83-2.48,5.31-4.21,1.48-1.74,2.57-3.75,3.26-6.04,.69-2.29,.92-4.76,.69-7.41-.23-2.65-.89-5.03-1.96-7.14-1.08-2.11-2.49-3.9-4.26-5.38-1.76-1.48-3.75-2.55-5.96-3.23-2.21-.67-4.57-.9-7.07-.68-2.5,.22-4.79,.85-6.85,1.9-2.06,1.05-3.83,2.45-5.31,4.21-1.48,1.76-2.57,3.78-3.26,6.04-.69,2.26-.92,4.72-.69,7.37,.23,2.65,.89,5.05,1.96,7.18,1.08,2.13,2.5,3.93,4.26,5.38,1.76,1.45,3.75,2.53,5.96,3.23,2.21,.7,4.57,.94,7.08,.72Z"/><path class="b" d="M776.78,173.96l-4.8-54.89,17.9-1.57c5.94-.52,11.21,.21,15.78,2.18,4.58,1.97,8.25,4.92,11.02,8.84,2.77,3.92,4.38,8.53,4.85,13.83,.46,5.3-.33,10.14-2.37,14.5-2.04,4.36-5.15,7.91-9.31,10.65-4.17,2.74-9.22,4.37-15.17,4.89l-17.9,1.57Zm10.55-10.95l6.78-.59c3.59-.31,6.62-1.31,9.09-2.99,2.48-1.68,4.32-3.89,5.54-6.65,1.22-2.75,1.67-5.9,1.36-9.44-.31-3.59-1.31-6.62-2.99-9.09-1.68-2.48-3.88-4.31-6.61-5.51-2.73-1.2-5.89-1.64-9.47-1.32l-6.78,.59,3.06,35Z"/></g></g><g><g><path class="b" d="M143.56,153.19c-.68-11.84-6.05-21.07-12.59-21.07-6.99,0-12.66,10.56-12.66,23.59,0,1.95,.14,3.83,.38,5.65h19.54c0-3.67,2.2-6.83,5.33-8.18Z"/><path class="b" d="M175.64,155.72c0-13.03-5.67-23.59-12.66-23.59-6.53,0-11.91,9.22-12.59,21.07,3.13,1.35,5.33,4.5,5.33,8.18h19.54c.24-1.81,.38-3.7,.38-5.65Z"/></g><path class="e" d="M195.98,161.36c0-10.25-3.15-19.76-8.53-27.62l3.84-25.8c.46-3.07-2.67-5.42-5.49-4.13l-23.81,10.89c-4.73-1.52-9.78-2.35-15.02-2.35s-10.36,.84-15.12,2.39l.04-.03-23.82-10.9c-2.82-1.29-5.95,1.06-5.49,4.13l3.85,25.88c-5.34,7.85-8.47,17.33-8.47,27.54h20.72c-.24-1.81-.38-3.7-.38-5.65,0-13.03,5.67-23.59,12.66-23.59,6.53,0,11.91,9.23,12.59,21.07,1.05-.45,2.2-.7,3.42-.7s2.37,.25,3.42,.7c.68-11.84,6.05-21.07,12.59-21.07,6.99,0,12.66,10.56,12.66,23.59,0,1.95-.14,3.83-.38,5.65h20.72Z"/><g><path d="M162.98,136.87c-.4,0-.78,.05-1.16,.13,.7,.52,1.16,1.35,1.16,2.28,0,1.58-1.28,2.86-2.87,2.86-1.2,0-2.23-.74-2.65-1.78-.93,1.54-1.48,3.46-1.48,5.56,0,5,3.14,9.06,7.01,9.06s7.01-4.06,7.01-9.06-3.14-9.06-7.01-9.06Z"/><path d="M136.56,140.48c-.45,.99-1.45,1.67-2.6,1.67-1.58,0-2.87-1.28-2.87-2.86,0-.93,.45-1.74,1.14-2.27-.41-.09-.82-.15-1.25-.15-3.87,0-7.01,4.06-7.01,9.06s3.14,9.06,7.01,9.06,7.01-4.06,7.01-9.06c0-2.05-.53-3.94-1.42-5.45Z"/></g><path class="b" d="M125.96,229.79l8.78-20.97c3.91,1.01,8.01,1.55,12.24,1.55,27.02,0,49.01-21.98,49.01-49.01h-12.42c0,20.17-16.41,36.58-36.58,36.58s-36.58-16.41-36.58-36.58h-12.42c0,18.4,10.2,34.46,25.24,42.84l-8.71,20.79,11.46,4.8Z"/><path class="c" d="M182.57,127.7l2.48-16.64c.04-.28-.24-.49-.5-.38l-15.33,7.01c5.01,2.56,9.52,5.95,13.35,10Z"/><g><path d="M138.46,125.18c-.77,0-1.39-.62-1.39-1.39v-10c0-.77,.62-1.39,1.39-1.39s1.39,.62,1.39,1.39v10c0,.77-.62,1.39-1.39,1.39Z"/><path d="M155.46,125.18c-.77,0-1.39-.62-1.39-1.39v-10c0-.77,.62-1.39,1.39-1.39s1.39,.62,1.39,1.39v10c0,.77-.62,1.39-1.39,1.39Z"/><path d="M146.96,130.21c-.77,0-1.39-.62-1.39-1.39v-15.77c0-.77,.62-1.39,1.39-1.39s1.39,.62,1.39,1.39v15.77c0,.77-.62,1.39-1.39,1.39Z"/></g><path class="c" d="M124.7,117.72l-15.37-7.03c-.26-.12-.54,.1-.5,.38l2.49,16.7c3.84-4.07,8.36-7.48,13.38-10.05Z"/></g></g><path d="M155.72,161.36c0-4.9-3.92-8.88-8.75-8.88s-8.75,3.98-8.75,8.88h17.49Z"/></svg>