<?xml version="1.0" encoding="UTF-8" standalone="no"?>
<!-- Created with Inkscape (http://www.inkscape.org/) -->

<svg
   width="178"
   height="178"
   viewBox="0 0 178 178"
   version="1.1"
   id="svg3069"
   inkscape:version="1.2 (dc2aeda, 2022-05-15)"
   sodipodi:docname="obf-logo-icon-dark.svg"
   xmlns:inkscape="http://www.inkscape.org/namespaces/inkscape"
   xmlns:sodipodi="http://sodipodi.sourceforge.net/DTD/sodipodi-0.dtd"
   xmlns="http://www.w3.org/2000/svg"
   xmlns:svg="http://www.w3.org/2000/svg">
  <sodipodi:namedview
     id="namedview3071"
     pagecolor="#ffffff"
     bordercolor="#666666"
     borderopacity="1.0"
     inkscape:showpageshadow="2"
     inkscape:pageopacity="0.0"
     inkscape:pagecheckerboard="0"
     inkscape:deskcolor="#d1d1d1"
     inkscape:document-units="mm"
     showgrid="false"
     inkscape:zoom="0.80354938"
     inkscape:cx="130.67025"
     inkscape:cy="564.37104"
     inkscape:window-width="1731"
     inkscape:window-height="1282"
     inkscape:window-x="26"
     inkscape:window-y="23"
     inkscape:window-maximized="0"
     inkscape:current-layer="layer1" />
  <defs
     id="defs3066" />
  <g
     inkscape:label="Calque 1"
     inkscape:groupmode="layer"
     id="layer1">
    <g
       id="g521"
       transform="matrix(0.97185806,0,0,0.97185806,-30.013738,-24.391539)">
      <path
         class="b"
         d="m 122.46,61.16 c 6.61,0 12.97,1.06 18.93,3 V 49.37 c 0,-1.28 -1.04,-2.31 -2.31,-2.31 h -6.34 V 31.47 h 10 c 1.68,0 3.05,-1.36 3.05,-3.05 0,-1.69 -1.36,-3.05 -3.05,-3.05 h -28.25 c -1.28,0 -2.31,1.04 -2.31,2.31 v 19.36 h -6.34 c -1.28,0 -2.31,1.04 -2.31,2.31 v 14.79 c 5.96,-1.94 12.32,-3 18.93,-3 z"
         id="path515"
         style="fill:#008c8c" />
      <path
         class="c"
         d="m 92.72,175.96 -10.89,26.01 14.33,6.01 10.99,-26.23 c 4.89,1.26 10.02,1.93 15.31,1.93 33.81,0 61.31,-27.5 61.31,-61.31 h -15.54 c 0,25.24 -20.53,45.77 -45.77,45.77 -25.24,0 -45.77,-20.53 -45.77,-45.77 H 61.15 c 0,23.02 12.76,43.11 31.58,53.59 z"
         id="path517"
         style="fill:#ffffff" />
      <path
         class="d"
         d="m 61.26,122.36 c 0,-33.8 27.4,-61.2 61.2,-61.2 33.8,0 61.2,27.4 61.2,61.2 z"
         id="path519"
         style="fill:#82dcff" />
    </g>
  </g>
</svg>
