<?xml version="1.0" encoding="UTF-8" standalone="no"?>
<!-- Created with Inkscape (http://www.inkscape.org/) -->

<svg
   width="292"
   height="48"
   viewBox="0 0 292 48"
   version="1.1"
   id="svg1329"
   inkscape:version="1.2 (dc2aeda, 2022-05-15)"
   sodipodi:docname="obf-logo-horizontal-mono-black.svg"
   xmlns:inkscape="http://www.inkscape.org/namespaces/inkscape"
   xmlns:sodipodi="http://sodipodi.sourceforge.net/DTD/sodipodi-0.dtd"
   xmlns="http://www.w3.org/2000/svg"
   xmlns:svg="http://www.w3.org/2000/svg">
  <sodipodi:namedview
     id="namedview1331"
     pagecolor="#ffffff"
     bordercolor="#666666"
     borderopacity="1.0"
     inkscape:showpageshadow="2"
     inkscape:pageopacity="0.0"
     inkscape:pagecheckerboard="0"
     inkscape:deskcolor="#d1d1d1"
     inkscape:document-units="mm"
     showgrid="false"
     inkscape:zoom="3.2141976"
     inkscape:cx="36.245438"
     inkscape:cy="90.380256"
     inkscape:window-width="2560"
     inkscape:window-height="1376"
     inkscape:window-x="0"
     inkscape:window-y="0"
     inkscape:window-maximized="1"
     inkscape:current-layer="layer1" />
  <defs
     id="defs1326" />
  <g
     inkscape:label="Calque 1"
     inkscape:groupmode="layer"
     id="layer1">
    <g
       id="g2137"
       transform="matrix(0.32860957,0,0,0.32860957,-32.197166,-32.190593)">
      <g
         id="g2107">
        <path
           d="m 805.51,132.94 c -3.73,0 -6.96,0.68 -9.71,2.04 -2.75,1.36 -4.86,3.33 -6.34,5.9 -1.48,2.57 -2.22,5.72 -2.22,9.45 v 1.51 h -8.51 v 10.38 h 8.51 v 37.87 h 11.62 v -37.87 h 10.73 v -10.38 h -10.73 v -1.51 c 0,-2.48 0.71,-4.3 2.13,-5.45 1.42,-1.15 3.43,-1.73 6.03,-1.73 0.41,0 0.87,0.02 1.37,0.04 0.5,0.03 1.05,0.1 1.64,0.22 v -10.02 c -0.59,-0.12 -1.32,-0.22 -2.17,-0.31 -0.86,-0.09 -1.64,-0.13 -2.35,-0.13 z"
           id="path2097" />
        <path
           d="m 843.98,152.94 c -3.02,-1.45 -6.51,-2.17 -10.47,-2.17 -3.25,0 -6.27,0.53 -9.05,1.6 -2.78,1.06 -5.19,2.53 -7.23,4.39 -2.04,1.86 -3.53,4.07 -4.48,6.61 l 9.49,4.61 c 0.89,-2.13 2.29,-3.87 4.21,-5.23 1.92,-1.36 4.12,-2.04 6.61,-2.04 2.66,0 4.79,0.7 6.39,2.08 1.6,1.39 2.39,3.12 2.39,5.19 v 1.56 l -14.28,2.34 c -3.79,0.59 -6.92,1.6 -9.4,3.02 -2.48,1.42 -4.33,3.18 -5.54,5.28 -1.21,2.1 -1.82,4.48 -1.82,7.14 0,2.66 0.68,5.22 2.04,7.32 1.36,2.1 3.3,3.71 5.81,4.83 2.51,1.12 5.45,1.69 8.83,1.69 2.66,0 5.07,-0.35 7.23,-1.06 2.16,-0.71 4.11,-1.77 5.85,-3.19 0.71,-0.58 1.37,-1.22 2,-1.89 v 5.09 h 11 V 168 c 0,-3.37 -0.84,-6.36 -2.53,-8.96 -1.69,-2.6 -4.04,-4.63 -7.05,-6.08 z m -3.64,33.48 c -1.01,1.83 -2.44,3.27 -4.3,4.3 -1.86,1.04 -4.01,1.55 -6.43,1.55 -1.89,0 -3.47,-0.49 -4.75,-1.46 -1.27,-0.98 -1.91,-2.29 -1.91,-3.95 0,-1.66 0.56,-3.09 1.69,-4.12 1.12,-1.03 2.84,-1.76 5.14,-2.17 l 12.06,-2.14 v 2.05 c 0,2.13 -0.5,4.11 -1.51,5.94 z"
           id="path2099" />
        <path
           d="m 878.2,163.32 c 1.98,-1.21 4.24,-1.82 6.79,-1.82 2.72,0 5.13,0.72 7.23,2.17 2.1,1.45 3.59,3.41 4.48,5.9 l 10.2,-4.52 c -0.95,-2.84 -2.5,-5.32 -4.66,-7.45 -2.16,-2.13 -4.72,-3.8 -7.67,-5.01 -2.96,-1.21 -6.15,-1.82 -9.58,-1.82 -4.85,0 -9.18,1.09 -12.99,3.28 -3.81,2.19 -6.82,5.17 -9,8.96 -2.19,3.78 -3.28,8.07 -3.28,12.86 0,4.79 1.11,9.09 3.33,12.9 2.22,3.81 5.22,6.83 9,9.05 3.78,2.22 8.1,3.33 12.95,3.33 3.49,0 6.71,-0.61 9.67,-1.82 2.96,-1.21 5.5,-2.9 7.63,-5.06 2.13,-2.16 3.67,-4.6 4.61,-7.32 l -10.2,-4.61 c -0.95,2.48 -2.44,4.46 -4.48,5.94 -2.04,1.48 -4.45,2.22 -7.23,2.22 -2.54,0 -4.81,-0.62 -6.79,-1.86 -1.98,-1.24 -3.53,-2.96 -4.66,-5.14 -1.12,-2.19 -1.69,-4.7 -1.69,-7.54 0,-2.84 0.56,-5.28 1.69,-7.49 1.12,-2.22 2.67,-3.93 4.66,-5.14 z"
           id="path2101" />
        <path
           d="m 937.57,190.41 c -1.89,0 -3.45,-0.3 -4.66,-0.89 -1.21,-0.59 -2.1,-1.45 -2.66,-2.57 -0.56,-1.12 -0.84,-2.48 -0.84,-4.08 V 162.2 h 11.09 v -10.38 h -11.09 v -11 H 917.7 v 3.73 c 0,2.37 -0.64,4.17 -1.91,5.41 -1.27,1.24 -3.09,1.86 -5.45,1.86 h -0.89 v 10.38 h 8.25 v 21.29 c 0,5.44 1.51,9.65 4.52,12.64 3.02,2.99 7.24,4.48 12.68,4.48 0.89,0 1.86,-0.06 2.93,-0.18 1.06,-0.12 2.01,-0.24 2.84,-0.35 v -9.93 c -0.53,0.06 -1.08,0.12 -1.64,0.18 -0.56,0.06 -1.05,0.09 -1.46,0.09 z"
           id="path2103" />
        <path
           d="m 970.17,172.41 -7.72,-2.31 c -1.12,-0.35 -2.11,-0.74 -2.97,-1.15 -0.86,-0.41 -1.52,-0.94 -2,-1.6 -0.47,-0.65 -0.71,-1.39 -0.71,-2.22 0,-1.48 0.56,-2.65 1.69,-3.5 1.12,-0.86 2.66,-1.29 4.61,-1.29 2.42,0 4.61,0.64 6.56,1.91 1.95,1.27 3.34,3 4.17,5.19 l 8.87,-4.17 c -1.48,-3.96 -3.96,-7.04 -7.45,-9.22 -3.49,-2.19 -7.51,-3.28 -12.06,-3.28 -3.49,0 -6.58,0.62 -9.27,1.86 -2.69,1.24 -4.79,2.97 -6.3,5.19 -1.51,2.22 -2.26,4.8 -2.26,7.76 0,3.31 1.05,6.19 3.15,8.65 2.1,2.45 5.16,4.24 9.18,5.37 l 7.89,2.22 c 1.06,0.3 2.01,0.67 2.84,1.11 0.83,0.44 1.49,0.98 2,1.6 0.5,0.62 0.75,1.41 0.75,2.35 0,1.54 -0.62,2.78 -1.86,3.73 -1.24,0.95 -2.9,1.42 -4.97,1.42 -2.72,0 -5.19,-0.77 -7.41,-2.31 -2.22,-1.54 -3.95,-3.67 -5.19,-6.39 l -8.78,4.17 c 1.48,4.2 4.12,7.53 7.94,9.98 3.81,2.45 8.29,3.68 13.44,3.68 3.67,0 6.86,-0.62 9.58,-1.86 2.72,-1.24 4.85,-2.97 6.39,-5.19 1.54,-2.22 2.31,-4.77 2.31,-7.67 0,-3.43 -1.08,-6.33 -3.24,-8.69 -2.16,-2.36 -5.22,-4.14 -9.18,-5.32 z"
           id="path2105" />
      </g>
      <g
         id="g2117">
        <path
           d="m 258.5,154.05 c -3.84,-2.19 -8.16,-3.28 -12.95,-3.28 -4.79,0 -9.02,1.09 -12.86,3.28 -3.84,2.19 -6.92,5.17 -9.22,8.96 -2.31,3.78 -3.46,8.1 -3.46,12.95 0,4.85 1.15,9.17 3.46,12.95 2.31,3.78 5.39,6.77 9.27,8.96 3.87,2.19 8.14,3.28 12.82,3.28 4.68,0 9.02,-1.09 12.86,-3.28 3.84,-2.19 6.92,-5.17 9.22,-8.96 2.31,-3.78 3.46,-8.1 3.46,-12.95 0,-4.85 -1.14,-9.24 -3.41,-12.99 -2.28,-3.75 -5.34,-6.73 -9.18,-8.91 z m -1.29,29.4 c -1.15,2.22 -2.72,3.95 -4.7,5.19 -1.98,1.24 -4.3,1.86 -6.96,1.86 -2.66,0 -4.91,-0.62 -6.92,-1.86 -2.01,-1.24 -3.59,-2.97 -4.75,-5.19 -1.15,-2.22 -1.73,-4.71 -1.73,-7.49 0,-2.78 0.58,-5.26 1.73,-7.45 1.15,-2.19 2.73,-3.9 4.75,-5.14 2.01,-1.24 4.32,-1.86 6.92,-1.86 2.6,0 4.98,0.62 6.96,1.86 1.98,1.24 3.55,2.96 4.7,5.14 1.15,2.19 1.73,4.67 1.73,7.45 0,2.78 -0.58,5.28 -1.73,7.49 z"
           id="path2109" />
        <path
           d="m 316.2,154.14 c -3.67,-2.25 -7.78,-3.37 -12.33,-3.37 -3.72,0 -7.01,0.72 -9.84,2.17 -2.27,1.16 -4.16,2.7 -5.68,4.6 v -5.71 h -11 v 65.99 h 11.71 v -22.37 c 1.42,1.51 3.12,2.74 5.1,3.66 2.93,1.36 6.13,2.04 9.62,2.04 4.67,0 8.84,-1.11 12.51,-3.33 3.67,-2.22 6.56,-5.25 8.69,-9.09 2.13,-3.84 3.19,-8.1 3.19,-12.77 0,-4.67 -1.08,-8.99 -3.24,-12.77 -2.16,-3.78 -5.07,-6.8 -8.74,-9.05 z m -1.86,29.36 c -1.18,2.19 -2.79,3.9 -4.83,5.14 -2.04,1.24 -4.39,1.86 -7.05,1.86 -2.66,0 -4.83,-0.62 -6.87,-1.86 -2.04,-1.24 -3.64,-2.96 -4.79,-5.14 -1.15,-2.19 -1.73,-4.7 -1.73,-7.54 0,-2.84 0.58,-5.26 1.73,-7.45 1.15,-2.19 2.75,-3.9 4.79,-5.14 2.04,-1.24 4.33,-1.86 6.87,-1.86 2.54,0 5.01,0.62 7.05,1.86 2.04,1.24 3.65,2.96 4.83,5.14 1.18,2.19 1.77,4.67 1.77,7.45 0,2.78 -0.59,5.35 -1.77,7.54 z"
           id="path2111" />
        <path
           d="m 373.68,157.77 c -2.01,-2.19 -4.45,-3.9 -7.32,-5.14 -2.87,-1.24 -6.19,-1.86 -9.98,-1.86 -4.55,0 -8.63,1.09 -12.24,3.28 -3.61,2.19 -6.47,5.16 -8.6,8.91 -2.13,3.76 -3.19,8.06 -3.19,12.9 0,4.84 1.03,8.93 3.1,12.77 2.07,3.84 4.98,6.89 8.74,9.14 3.75,2.25 8.12,3.37 13.08,3.37 3.25,0 6.27,-0.5 9.05,-1.51 2.78,-1 5.17,-2.39 7.18,-4.17 2.01,-1.77 3.49,-3.81 4.43,-6.12 l -9.4,-4.61 c -1.06,1.89 -2.53,3.4 -4.39,4.52 -1.86,1.12 -4.12,1.69 -6.79,1.69 -2.67,0 -5.01,-0.62 -7.05,-1.86 -2.04,-1.24 -3.58,-3 -4.61,-5.28 -0.62,-1.37 -1.01,-2.86 -1.17,-4.48 h 34.74 c 0.24,-0.71 0.4,-1.49 0.49,-2.35 0.09,-0.86 0.13,-1.73 0.13,-2.62 0,-3.25 -0.53,-6.28 -1.6,-9.09 -1.06,-2.81 -2.6,-5.31 -4.61,-7.49 z m -28.92,12.59 c 0.2,-1.02 0.48,-1.96 0.85,-2.84 0.98,-2.31 2.41,-4.08 4.3,-5.32 1.89,-1.24 4.05,-1.86 6.47,-1.86 2.42,0 4.71,0.62 6.52,1.86 1.8,1.24 3.1,2.93 3.9,5.06 0.36,0.97 0.58,2.01 0.65,3.1 h -22.7 z"
           id="path2113" />
        <path
           d="m 420.41,153.07 c -2.75,-1.54 -5.9,-2.31 -9.45,-2.31 -3.55,0 -6.43,0.75 -9,2.26 -1.99,1.16 -3.53,2.75 -4.66,4.74 v -5.93 h -11 v 48.25 h 11.71 v -28.29 c 0,-2.13 0.41,-3.96 1.24,-5.5 0.83,-1.54 1.98,-2.72 3.46,-3.55 1.48,-0.83 3.16,-1.24 5.06,-1.24 1.9,0 3.58,0.41 5.06,1.24 1.48,0.83 2.63,2.01 3.46,3.55 0.83,1.54 1.24,3.37 1.24,5.5 v 28.29 h 11.62 v -31.04 c 0,-3.61 -0.77,-6.79 -2.31,-9.53 -1.54,-2.75 -3.68,-4.89 -6.43,-6.43 z"
           id="path2115" />
      </g>
      <g
         id="g2127">
        <polygon
           points="586.23,180.48 577.52,159.9 572.45,181.68 "
           id="polygon2119" />
        <path
           d="m 487.73,174.36 c 0.97,-1.1 1.38,-2.48 1.23,-4.15 -0.15,-1.67 -0.79,-2.96 -1.93,-3.88 -1.15,-0.91 -2.6,-1.29 -4.37,-1.14 l -12.6,1.1 0.97,11.05 12.6,-1.1 c 1.77,-0.16 3.14,-0.78 4.1,-1.88 z"
           id="path2121" />
        <path
           d="m 490.71,187.65 c -1.49,-1.2 -3.39,-1.71 -5.7,-1.51 l -13.12,1.15 1.26,14.37 13.12,-1.15 c 2.31,-0.2 4.09,-1.02 5.35,-2.47 1.26,-1.45 1.8,-3.23 1.61,-5.34 -0.19,-2.16 -1.03,-3.84 -2.52,-5.05 z"
           id="path2123" />
        <path
           d="m 765.79,188.28 -5.18,-59.24 c -0.71,-8.14 -7.89,-14.16 -16.03,-13.45 l -290.17,25.39 c -8.14,0.71 -14.16,7.89 -13.45,16.03 l 5.18,59.24 c 0.71,8.14 7.89,14.16 16.03,13.45 l 290.17,-25.39 c 8.14,-0.71 14.16,-7.89 13.45,-16.03 z m -265.41,16.49 c -3.32,3.31 -8.18,5.24 -14.56,5.8 l -23.21,2.03 -4.8,-54.89 23.21,-2.03 c 3.78,-0.33 7.08,0.02 9.89,1.06 2.81,1.04 5.04,2.69 6.67,4.95 1.63,2.26 2.6,5.08 2.89,8.47 0.21,2.41 -0.25,4.76 -1.39,7.06 -0.43,0.87 -1.02,1.68 -1.7,2.46 0.81,0.45 1.56,0.93 2.19,1.46 1.71,1.44 2.94,3.05 3.69,4.84 0.75,1.79 1.21,3.69 1.39,5.71 0.47,5.41 -0.95,9.76 -4.28,13.07 z m 13.45,3.35 -4.8,-54.89 36.91,-3.23 0.87,9.95 -25.49,2.23 1.09,12.45 24.02,-2.1 0.87,9.95 -24.02,2.1 1.1,12.6 25.49,-2.23 0.87,9.95 -36.92,3.23 z m 81.1,-7.1 -4.66,-10.88 -20.12,1.76 -2.7,11.52 -12.38,1.08 13.77,-56.52 15.18,-1.33 23.37,53.27 -12.45,1.09 z m 57.04,-14.38 c -1.67,3.34 -4.11,6.07 -7.34,8.18 -3.23,2.11 -7.01,3.36 -11.33,3.74 -4.32,0.38 -8.26,-0.19 -11.81,-1.71 -3.55,-1.52 -6.43,-3.78 -8.65,-6.78 -2.22,-3 -3.5,-6.51 -3.86,-10.54 l -3.04,-34.78 11.42,-1 2.98,34.04 c 0.19,2.16 0.84,4.07 1.95,5.73 1.11,1.66 2.55,2.91 4.3,3.74 1.76,0.84 3.69,1.16 5.8,0.98 2.16,-0.19 4.02,-0.85 5.58,-1.97 1.56,-1.13 2.74,-2.6 3.55,-4.43 0.81,-1.83 1.11,-3.82 0.92,-5.98 l -2.98,-34.04 11.42,-1 3.04,34.78 c 0.35,4.03 -0.3,7.71 -1.97,11.05 z m 34.37,6.39 -11.42,1 -3.93,-44.95 -13.93,1.22 -0.87,-9.95 39.05,-3.42 0.87,9.95 -13.7,1.2 z m 48.06,-4.2 -11.42,1 -2.1,-23.95 -20.98,-29.35 13.04,-1.14 12.61,18.24 9.19,-20.15 13.04,-1.14 -15.5,32.47 2.1,24.02 z"
           id="path2125" />
      </g>
      <g
         id="g2135">
        <path
           d="m 147.17756,128.73767 c 5.29,0 10.22244,-1.29767 14.99244,0.25233 v -11.83 c 0,-1.02 -0.83,-1.85 -1.85,-1.85 h -5.07 v -12.47 h 8 c 1.35,0 2.44,-1.09 2.44,-2.44 0,-1.35 -1.09,-2.44 -2.44,-2.44 h -22.6 c -1.02,0 -1.85,0.83 -1.85,1.85 v 15.49 h -5.07 c -1.02,0 -1.85,0.83 -1.85,1.85 v 11.83 c 4.77,-1.55 10.01756,-0.25233 15.30756,-0.25233 z"
           id="path2129"
           sodipodi:nodetypes="ccssccssssscssccc" />
        <path
           d="m 123.23,218.42 -8.71,20.8 11.47,4.81 8.79,-20.98 c 3.92,1.01 8.02,1.55 12.25,1.55 27.05,0 49.05,-22 49.05,-49.05 -4.14333,-3.01014 -8.28667,-2.43756 -12.43,0 0,20.19 -16.43,36.62 -36.62,36.62 -20.19,0 -36.62,-16.43 -36.62,-36.62 -3.96523,-2.32508 -8.0221,-3.45386 -12.43,0 0,18.42 10.21,34.49 25.26,42.87 z"
           id="path2131"
           sodipodi:nodetypes="ccccsccscccc" />
        <path
           d="m 98.06,175.55 c 0,-27.04 21.92,-48.96 48.96,-48.96 27.04,0 48.96,21.92 48.96,48.96 z"
           id="path2133" />
      </g>
    </g>
  </g>
</svg>
