<?xml version="1.0" encoding="UTF-8" standalone="no"?>
<!-- Created with Inkscape (http://www.inkscape.org/) -->

<svg
   width="276"
   height="48"
   viewBox="0 0 276 48"
   version="1.1"
   id="svg1329"
   inkscape:version="1.2 (dc2aeda, 2022-05-15)"
   sodipodi:docname="off-logo-horizontal-mono-white.svg"
   xmlns:inkscape="http://www.inkscape.org/namespaces/inkscape"
   xmlns:sodipodi="http://sodipodi.sourceforge.net/DTD/sodipodi-0.dtd"
   xmlns="http://www.w3.org/2000/svg"
   xmlns:svg="http://www.w3.org/2000/svg">
  <sodipodi:namedview
     id="namedview1331"
     pagecolor="#ffffff"
     bordercolor="#666666"
     borderopacity="1.0"
     inkscape:showpageshadow="2"
     inkscape:pageopacity="0.0"
     inkscape:pagecheckerboard="0"
     inkscape:deskcolor="#d1d1d1"
     inkscape:document-units="mm"
     showgrid="false"
     inkscape:zoom="4.5455618"
     inkscape:cx="131.2269"
     inkscape:cy="36.629136"
     inkscape:window-width="1920"
     inkscape:window-height="1016"
     inkscape:window-x="0"
     inkscape:window-y="0"
     inkscape:window-maximized="1"
     inkscape:current-layer="layer1" />
  <defs
     id="defs1326" />
  <g
     inkscape:label="Calque 1"
     inkscape:groupmode="layer"
     id="layer1">
    <g
       id="g1174465"
       style="fill:#ffffff">
      <path
         id="rect1125"
         style="fill:#ffffff;stroke-width:0.338076"
         class="g"
         d="M 194.68645 22.630331 C 194.51806 22.613333 194.34798 22.605189 194.17497 22.605189 L 119.77078 22.604809 C 117.00258 22.604809 114.77323 24.834121 114.77323 27.602323 L 114.77329 47.680686 C 114.77329 50.448888 117.00277 52.676288 119.77097 52.676288 L 194.17516 52.676668 C 196.94337 52.676668 199.17077 50.447185 199.17077 47.678983 L 199.17071 27.600621 C 199.17071 25.005431 197.21221 22.885305 194.68645 22.630331 z M 185.32234 28.371197 C 186.73439 28.521302 187.99718 28.89588 189.10798 29.494475 C 190.58907 30.292605 191.7385 31.395427 192.5562 32.79389 C 193.37053 34.192057 193.77881 35.791933 193.77756 37.590466 C 193.77633 39.389001 193.36843 40.992183 192.5529 42.400471 C 191.7374 43.808763 190.58644 44.911923 189.10466 45.712149 C 187.62288 46.512374 185.87278 46.91354 183.85693 46.913647 L 177.78676 46.915856 L 177.78905 46.912135 L 177.78831 28.29827 L 183.86042 28.296231 C 184.36439 28.296206 184.85166 28.321162 185.32234 28.371197 z M 166.68843 28.040809 C 167.70994 28.130816 168.6703 28.35458 169.57003 28.718364 C 170.76968 29.20341 171.81504 29.874856 172.70624 30.74355 C 173.59772 31.608874 174.28851 32.627013 174.78035 33.793348 C 175.27221 34.959683 175.51723 36.226517 175.51665 37.59072 C 175.51578 38.95829 175.26579 40.222983 174.76687 41.387477 C 174.26763 42.555338 173.57064 43.57397 172.67954 44.449629 C 171.78846 45.325289 170.74222 46.004562 169.54279 46.486729 C 168.34337 46.968897 167.04275 47.21043 165.64459 47.210278 C 164.2479 47.209671 162.95037 46.966595 161.75154 46.485406 C 160.5516 46.003728 159.5085 45.322676 158.61424 44.450322 C 157.72364 43.574893 157.02736 42.556651 156.52541 41.389433 C 156.02682 40.222509 155.77463 38.958439 155.7755 37.590869 C 155.77608 36.226666 156.02282 34.958297 156.51165 33.792921 C 157.00386 32.627838 157.69403 31.614112 158.58789 30.745484 C 159.4781 29.879927 160.52402 29.204171 161.72345 28.722003 C 162.92287 28.239835 164.2302 27.996401 165.64551 27.99466 C 165.99926 27.995066 166.34792 28.010807 166.68843 28.040809 z M 145.44742 28.041097 C 146.46898 28.130632 147.42911 28.356812 148.32885 28.720597 C 149.52849 29.205642 150.57386 29.87709 151.46506 30.745783 C 152.35654 31.611109 153.04733 32.629247 153.53917 33.795581 C 154.03102 34.961915 154.27604 36.228751 154.27547 37.592953 C 154.2746 38.960526 154.02461 40.225216 153.52569 41.38971 C 153.02675 42.554203 152.32962 43.574256 151.43853 44.449916 C 150.54744 45.325576 149.50121 46.004848 148.30178 46.487017 C 147.10236 46.969185 145.80158 47.212664 144.40341 47.212511 C 143.00673 47.211906 141.70919 46.968828 140.51036 46.487639 C 139.31042 46.005962 138.26732 45.324911 137.37306 44.452555 C 136.48245 43.577126 135.78619 42.558885 135.28423 41.391666 C 134.78565 40.224742 134.53345 38.960673 134.53432 37.593102 C 134.53489 36.228899 134.78164 34.96053 135.27047 33.795154 C 135.76268 32.630071 136.45302 31.6144 137.34688 30.745771 C 138.2371 29.880216 139.28301 29.204458 140.48244 28.72229 C 141.68185 28.240121 142.98902 27.998633 144.40433 27.996893 C 144.75816 27.996457 145.1069 28.011253 145.44742 28.041097 z M 184.84352 31.715237 C 184.56058 31.685393 184.26689 31.670969 183.96312 31.671542 L 181.6654 31.670498 L 181.66624 43.537996 L 183.96006 43.5387 C 185.17491 43.539782 186.22404 43.291853 187.10847 42.802488 C 187.98985 42.309463 188.67807 41.620355 189.16998 40.730134 C 189.6619 39.839913 189.90542 38.792764 189.90503 37.594766 C 189.9061 36.379928 189.6603 35.329022 189.17093 34.444579 C 188.67792 33.56321 187.98994 32.880057 187.10923 32.395766 C 186.44618 32.032326 185.69231 31.804768 184.84352 31.715237 z M 133.83435 28.293583 L 133.83519 31.667825 L 124.96352 31.668046 L 124.96381 36.393083 L 132.58655 36.393387 L 132.58739 39.767628 L 124.96483 39.765379 L 124.96291 46.913507 L 121.09072 46.913915 L 121.09106 46.910024 L 121.09226 28.296329 L 133.83435 28.293583 z M 166.27832 31.518299 C 166.0738 31.500034 165.86543 31.490959 165.65331 31.491066 C 164.80486 31.4915 164.01444 31.636382 163.28972 31.929311 C 162.565 32.222242 161.92783 32.642143 161.37753 33.191283 C 160.82722 33.740422 160.40284 34.385891 160.1005 35.126408 C 159.80152 35.86722 159.65254 36.687643 159.65192 37.58691 C 159.65134 38.486181 159.80266 39.310333 160.10026 40.059221 C 160.40123 40.808403 160.82728 41.454618 161.37364 41.997893 C 161.92366 42.538095 162.56276 42.960339 163.28644 43.261209 C 164.01012 43.562079 164.79646 43.711091 165.64491 43.710661 L 165.6488 43.711002 C 166.49726 43.710568 167.28405 43.562354 168.00936 43.262688 C 168.73467 42.963022 169.37166 42.545066 169.92138 42.002661 C 170.47109 41.460258 170.89689 40.814912 171.19646 40.067366 C 171.49632 39.31645 171.64743 38.494103 171.64835 37.591469 C 171.64892 36.692198 171.49734 35.871036 171.19916 35.128886 C 170.90096 34.386734 170.47473 33.742465 169.92561 33.19216 C 169.37646 32.641854 168.73707 32.222979 168.01281 31.928844 C 167.46939 31.710769 166.89186 31.57309 166.27832 31.518299 z M 145.03714 31.520532 C 144.83262 31.502267 144.62425 31.493192 144.41213 31.493299 C 143.56368 31.493733 142.77714 31.638953 142.05243 31.931884 C 141.3277 32.224812 140.68877 32.642601 140.13847 33.191741 C 139.58815 33.74088 139.16572 34.38652 138.86338 35.127036 C 138.5644 35.867847 138.41525 36.690217 138.41463 37.589483 C 138.41405 38.488755 138.56536 39.312905 138.86297 40.061795 C 139.16394 40.810976 139.59015 41.455244 140.13652 41.998521 C 140.68654 42.538724 141.32369 42.960796 142.04737 43.261666 C 142.77105 43.562537 143.55918 43.713665 144.40762 43.713235 C 145.25608 43.712801 146.04287 43.564586 146.76818 43.264921 C 147.4935 42.965256 148.13064 42.545352 148.68037 42.002949 C 149.23008 41.460544 149.65589 40.815199 149.95545 40.067653 C 150.25531 39.316738 150.40625 38.496337 150.40717 37.593702 C 150.40774 36.694431 150.25617 35.873272 149.95798 35.131119 C 149.65978 34.388968 149.23357 33.744699 148.68443 33.194393 C 148.13529 32.644088 147.4959 32.225213 146.77163 31.931077 C 146.22822 31.713004 145.65069 31.575323 145.03714 31.520532 z "
         transform="rotate(-5.0000006)" />
      <g
         id="g1149"
         transform="matrix(0.33807579,0,0,0.33807579,-33.117904,-33.121285)"
         style="fill:#ffffff">
        <path
           d="m 737.25,128.92 c -3.73,0 -6.96,0.68 -9.71,2.04 -2.75,1.36 -4.86,3.33 -6.34,5.9 -1.48,2.57 -2.22,5.72 -2.22,9.45 v 1.51 h -8.51 v 10.38 h 8.51 v 37.87 H 730.6 V 158.2 h 10.73 V 147.82 H 730.6 v -1.51 c 0,-2.48 0.71,-4.3 2.13,-5.45 1.42,-1.15 3.43,-1.73 6.03,-1.73 0.41,0 0.87,0.02 1.37,0.04 0.5,0.03 1.05,0.1 1.64,0.22 v -10.02 c -0.59,-0.12 -1.32,-0.22 -2.17,-0.31 -0.86,-0.09 -1.64,-0.13 -2.35,-0.13 z"
           id="path1139"
           style="fill:#ffffff" />
        <path
           d="m 775.73,148.92 c -3.02,-1.45 -6.51,-2.17 -10.47,-2.17 -3.25,0 -6.27,0.53 -9.05,1.6 -2.78,1.06 -5.19,2.53 -7.23,4.39 -2.04,1.86 -3.53,4.07 -4.48,6.61 l 9.49,4.61 c 0.89,-2.13 2.29,-3.87 4.21,-5.23 1.92,-1.36 4.12,-2.04 6.61,-2.04 2.66,0 4.79,0.7 6.39,2.08 1.6,1.39 2.39,3.12 2.39,5.19 v 1.56 l -14.28,2.34 c -3.79,0.59 -6.92,1.6 -9.4,3.02 -2.48,1.42 -4.33,3.18 -5.54,5.28 -1.21,2.1 -1.82,4.48 -1.82,7.14 0,2.66 0.68,5.22 2.04,7.32 1.36,2.1 3.3,3.71 5.81,4.83 2.51,1.12 5.45,1.69 8.83,1.69 2.66,0 5.07,-0.35 7.23,-1.06 2.16,-0.71 4.11,-1.77 5.85,-3.19 0.71,-0.58 1.37,-1.22 2,-1.89 v 5.09 h 11 v -32.11 c 0,-3.37 -0.84,-6.36 -2.53,-8.96 -1.69,-2.6 -4.04,-4.63 -7.05,-6.08 z m -3.64,33.48 c -1.01,1.83 -2.44,3.27 -4.3,4.3 -1.86,1.04 -4.01,1.55 -6.43,1.55 -1.89,0 -3.47,-0.49 -4.75,-1.46 -1.27,-0.98 -1.91,-2.29 -1.91,-3.95 0,-1.66 0.56,-3.09 1.69,-4.12 1.12,-1.03 2.84,-1.76 5.14,-2.17 l 12.06,-2.14 v 2.05 c 0,2.13 -0.5,4.11 -1.51,5.94 z"
           id="path1141"
           style="fill:#ffffff" />
        <path
           d="m 809.94,159.3 c 1.98,-1.21 4.24,-1.82 6.79,-1.82 2.72,0 5.13,0.72 7.23,2.17 2.1,1.45 3.59,3.41 4.48,5.9 l 10.2,-4.52 c -0.95,-2.84 -2.5,-5.32 -4.66,-7.45 -2.16,-2.13 -4.72,-3.8 -7.67,-5.01 -2.96,-1.21 -6.15,-1.82 -9.58,-1.82 -4.85,0 -9.18,1.09 -12.99,3.28 -3.81,2.19 -6.82,5.17 -9,8.96 -2.19,3.78 -3.28,8.07 -3.28,12.86 0,4.79 1.11,9.09 3.33,12.9 2.22,3.81 5.22,6.83 9,9.05 3.78,2.22 8.1,3.33 12.95,3.33 3.49,0 6.71,-0.61 9.67,-1.82 2.96,-1.21 5.5,-2.9 7.63,-5.06 2.13,-2.16 3.67,-4.6 4.61,-7.32 l -10.2,-4.61 c -0.95,2.48 -2.44,4.46 -4.48,5.94 -2.04,1.48 -4.45,2.22 -7.23,2.22 -2.54,0 -4.81,-0.62 -6.79,-1.86 -1.98,-1.24 -3.53,-2.96 -4.66,-5.14 -1.12,-2.19 -1.69,-4.7 -1.69,-7.54 0,-2.84 0.56,-5.28 1.69,-7.49 1.12,-2.22 2.67,-3.93 4.66,-5.14 z"
           id="path1143"
           style="fill:#ffffff" />
        <path
           d="m 869.31,186.4 c -1.89,0 -3.45,-0.3 -4.66,-0.89 -1.21,-0.59 -2.1,-1.45 -2.66,-2.57 -0.56,-1.12 -0.84,-2.48 -0.84,-4.08 v -20.67 h 11.09 v -10.38 h -11.09 v -11 h -11.71 v 3.73 c 0,2.37 -0.64,4.17 -1.91,5.41 -1.27,1.24 -3.09,1.86 -5.45,1.86 h -0.89 v 10.38 h 8.25 v 21.29 c 0,5.44 1.51,9.65 4.52,12.64 3.02,2.99 7.24,4.48 12.68,4.48 0.89,0 1.86,-0.06 2.93,-0.18 1.06,-0.12 2.01,-0.24 2.84,-0.35 v -9.93 c -0.53,0.06 -1.08,0.12 -1.64,0.18 -0.56,0.06 -1.05,0.09 -1.46,0.09 z"
           id="path1145"
           style="fill:#ffffff" />
        <path
           d="m 901.92,168.39 -7.72,-2.31 c -1.12,-0.35 -2.11,-0.74 -2.97,-1.15 -0.86,-0.41 -1.52,-0.94 -2,-1.6 -0.47,-0.65 -0.71,-1.39 -0.71,-2.22 0,-1.48 0.56,-2.65 1.69,-3.5 1.12,-0.86 2.66,-1.29 4.61,-1.29 2.42,0 4.61,0.64 6.56,1.91 1.95,1.27 3.34,3 4.17,5.19 l 8.87,-4.17 c -1.48,-3.96 -3.96,-7.04 -7.45,-9.22 -3.49,-2.19 -7.51,-3.28 -12.06,-3.28 -3.49,0 -6.58,0.62 -9.27,1.86 -2.69,1.24 -4.79,2.97 -6.3,5.19 -1.51,2.22 -2.26,4.8 -2.26,7.76 0,3.31 1.05,6.19 3.15,8.65 2.1,2.45 5.16,4.24 9.18,5.37 l 7.89,2.22 c 1.06,0.3 2.01,0.67 2.84,1.11 0.83,0.44 1.49,0.98 2,1.6 0.5,0.62 0.75,1.41 0.75,2.35 0,1.54 -0.62,2.78 -1.86,3.73 -1.24,0.95 -2.9,1.42 -4.97,1.42 -2.72,0 -5.19,-0.77 -7.41,-2.31 -2.22,-1.54 -3.95,-3.67 -5.19,-6.39 l -8.78,4.17 c 1.48,4.2 4.12,7.53 7.94,9.98 3.81,2.45 8.29,3.68 13.44,3.68 3.67,0 6.86,-0.62 9.58,-1.86 2.72,-1.24 4.85,-2.97 6.39,-5.19 1.54,-2.22 2.31,-4.77 2.31,-7.67 0,-3.43 -1.08,-6.33 -3.24,-8.69 -2.16,-2.36 -5.22,-4.14 -9.18,-5.32 z"
           id="path1147"
           style="fill:#ffffff" />
      </g>
      <g
         id="g1159"
         transform="matrix(0.33807579,0,0,0.33807579,-33.117904,-33.121285)"
         style="fill:#ffffff">
        <path
           d="m 258.53,150.03 c -3.84,-2.19 -8.16,-3.28 -12.95,-3.28 -4.79,0 -9.02,1.09 -12.86,3.28 -3.84,2.19 -6.92,5.17 -9.22,8.96 -2.31,3.78 -3.46,8.1 -3.46,12.95 0,4.85 1.15,9.17 3.46,12.95 2.31,3.78 5.39,6.77 9.27,8.96 3.87,2.19 8.14,3.28 12.82,3.28 4.68,0 9.02,-1.09 12.86,-3.28 3.84,-2.19 6.92,-5.17 9.22,-8.96 2.31,-3.78 3.46,-8.1 3.46,-12.95 0,-4.85 -1.14,-9.24 -3.41,-12.99 -2.28,-3.75 -5.34,-6.73 -9.18,-8.91 z m -1.29,29.4 c -1.15,2.22 -2.72,3.95 -4.7,5.19 -1.98,1.24 -4.3,1.86 -6.96,1.86 -2.66,0 -4.91,-0.62 -6.92,-1.86 -2.01,-1.24 -3.59,-2.97 -4.75,-5.19 -1.15,-2.22 -1.73,-4.71 -1.73,-7.49 0,-2.78 0.58,-5.26 1.73,-7.45 1.15,-2.19 2.73,-3.9 4.75,-5.14 2.01,-1.24 4.32,-1.86 6.92,-1.86 2.6,0 4.98,0.62 6.96,1.86 1.98,1.24 3.55,2.96 4.7,5.14 1.15,2.19 1.73,4.67 1.73,7.45 0,2.78 -0.58,5.28 -1.73,7.49 z"
           id="path1151"
           style="fill:#ffffff" />
        <path
           d="m 316.23,150.12 c -3.67,-2.25 -7.78,-3.37 -12.33,-3.37 -3.72,0 -7.01,0.72 -9.84,2.17 -2.27,1.16 -4.16,2.7 -5.68,4.6 v -5.71 h -11 v 65.99 h 11.71 v -22.37 c 1.42,1.51 3.12,2.74 5.1,3.66 2.93,1.36 6.13,2.04 9.62,2.04 4.67,0 8.84,-1.11 12.51,-3.33 3.67,-2.22 6.56,-5.25 8.69,-9.09 2.13,-3.84 3.19,-8.1 3.19,-12.77 0,-4.67 -1.08,-8.99 -3.24,-12.77 -2.16,-3.78 -5.07,-6.8 -8.74,-9.05 z m -1.86,29.36 c -1.18,2.19 -2.79,3.9 -4.83,5.14 -2.04,1.24 -4.39,1.86 -7.05,1.86 -2.66,0 -4.83,-0.62 -6.87,-1.86 -2.04,-1.24 -3.64,-2.96 -4.79,-5.14 -1.15,-2.19 -1.73,-4.7 -1.73,-7.54 0,-2.84 0.58,-5.26 1.73,-7.45 1.15,-2.19 2.75,-3.9 4.79,-5.14 2.04,-1.24 4.33,-1.86 6.87,-1.86 2.54,0 5.01,0.62 7.05,1.86 2.04,1.24 3.65,2.96 4.83,5.14 1.18,2.19 1.77,4.67 1.77,7.45 0,2.78 -0.59,5.35 -1.77,7.54 z"
           id="path1153"
           style="fill:#ffffff" />
        <path
           d="m 373.71,153.76 c -2.01,-2.19 -4.45,-3.9 -7.32,-5.14 -2.87,-1.24 -6.19,-1.86 -9.98,-1.86 -4.55,0 -8.63,1.09 -12.24,3.28 -3.61,2.19 -6.47,5.16 -8.6,8.91 -2.13,3.76 -3.19,8.06 -3.19,12.9 0,4.84 1.03,8.93 3.1,12.77 2.07,3.84 4.98,6.89 8.74,9.14 3.75,2.25 8.12,3.37 13.08,3.37 3.25,0 6.27,-0.5 9.05,-1.51 2.78,-1 5.17,-2.39 7.18,-4.17 2.01,-1.77 3.49,-3.81 4.43,-6.12 l -9.4,-4.61 c -1.06,1.89 -2.53,3.4 -4.39,4.52 -1.86,1.12 -4.12,1.69 -6.79,1.69 -2.67,0 -5.01,-0.62 -7.05,-1.86 -2.04,-1.24 -3.58,-3 -4.61,-5.28 -0.62,-1.37 -1.01,-2.86 -1.17,-4.48 h 34.74 c 0.24,-0.71 0.4,-1.49 0.49,-2.35 0.09,-0.86 0.13,-1.73 0.13,-2.62 0,-3.25 -0.53,-6.28 -1.6,-9.09 -1.06,-2.81 -2.6,-5.31 -4.61,-7.49 z m -28.92,12.59 c 0.2,-1.02 0.48,-1.96 0.85,-2.84 0.98,-2.31 2.41,-4.08 4.3,-5.32 1.89,-1.24 4.05,-1.86 6.47,-1.86 2.42,0 4.71,0.62 6.52,1.86 1.8,1.24 3.1,2.93 3.9,5.06 0.36,0.97 0.58,2.01 0.65,3.1 h -22.7 z"
           id="path1155"
           style="fill:#ffffff" />
        <path
           d="m 420.44,149.06 c -2.75,-1.54 -5.9,-2.31 -9.45,-2.31 -3.55,0 -6.43,0.75 -9,2.26 -1.99,1.16 -3.53,2.75 -4.66,4.74 v -5.93 h -11 v 48.25 h 11.71 v -28.29 c 0,-2.13 0.41,-3.96 1.24,-5.5 0.83,-1.54 1.98,-2.72 3.46,-3.55 1.48,-0.83 3.16,-1.24 5.06,-1.24 1.9,0 3.58,0.41 5.06,1.24 1.48,0.83 2.63,2.01 3.46,3.55 0.83,1.54 1.24,3.37 1.24,5.5 v 28.29 h 11.62 v -31.04 c 0,-3.61 -0.77,-6.79 -2.31,-9.53 -1.54,-2.75 -3.68,-4.89 -6.43,-6.43 z"
           id="path1157"
           style="fill:#ffffff" />
      </g>
      <path
         id="path1161"
         style="fill:#ffffff;stroke-width:0.338076"
         class="f"
         d="M 16.5625 8.3164062 C 7.4175593 8.3164062 0.00390625 15.730059 0.00390625 24.875 L 33.121094 24.875 C 33.121094 15.730059 25.707441 8.3164062 16.5625 8.3164062 z M 22.171875 13.273438 A 0.90942389 0.90942389 0 0 1 23.080078 14.181641 A 0.90942389 0.90942389 0 0 1 22.171875 15.091797 A 0.90942389 0.90942389 0 0 1 21.261719 14.181641 A 0.90942389 0.90942389 0 0 1 22.171875 13.273438 z M 26.607422 17.34375 A 0.90942389 0.90942389 0 0 1 27.515625 18.251953 A 0.90942389 0.90942389 0 0 1 26.607422 19.162109 A 0.90942389 0.90942389 0 0 1 25.697266 18.251953 A 0.90942389 0.90942389 0 0 1 26.607422 17.34375 z M 21.589844 18.339844 A 0.90942389 0.90942389 0 0 1 22.498047 19.25 A 0.90942389 0.90942389 0 0 1 21.589844 20.160156 A 0.90942389 0.90942389 0 0 1 20.679688 19.25 A 0.90942389 0.90942389 0 0 1 21.589844 18.339844 z " />
      <path
         id="path1173"
         style="stroke-width:0.338076;fill:#ffffff"
         d="M 0 24.878906 C 0 31.096113 3.4480228 36.522397 8.5292969 39.355469 L 8.5332031 39.351562 L 5.5917969 46.376953 L 9.4628906 48 L 12.431641 40.914062 C 13.753516 41.255519 15.139728 41.4375 16.566406 41.4375 C 25.697824 41.4375 33.125 34.010324 33.125 24.878906 L 28.925781 24.878906 C 28.925517 25.731176 28.838242 26.563524 28.673828 27.367188 C 28.591621 27.769018 28.489294 28.164193 28.369141 28.550781 C 28.368957 28.551371 28.369324 28.552145 28.369141 28.552734 C 27.405982 31.649994 25.258001 34.223632 22.455078 35.746094 C 22.279945 35.841449 22.101975 35.932529 21.921875 36.019531 C 21.381366 36.27994 20.819017 36.503002 20.238281 36.683594 C 20.0454 36.743766 19.849126 36.79878 19.652344 36.849609 C 19.650958 36.849967 19.649824 36.851205 19.648438 36.851562 C 19.452248 36.901957 19.254519 36.9474 19.054688 36.988281 C 18.24919 37.153848 17.416348 37.242188 16.5625 37.242188 C 15.708657 37.242188 14.875805 37.15376 14.070312 36.988281 C 13.669646 36.905969 13.274269 36.805697 12.888672 36.685547 C 12.887292 36.685117 12.886146 36.684024 12.884766 36.683594 C 12.692568 36.623826 12.502501 36.559001 12.314453 36.490234 C 12.313086 36.489733 12.311913 36.488783 12.310547 36.488281 C 12.122546 36.419457 11.937502 36.347097 11.753906 36.269531 C 11.752563 36.268962 11.751343 36.268148 11.75 36.267578 C 11.566988 36.190183 11.385412 36.107316 11.207031 36.021484 C 11.205196 36.020599 11.203007 36.020418 11.201172 36.019531 C 11.022838 35.933613 10.847278 35.842148 10.673828 35.748047 C 10.672051 35.74708 10.669746 35.747061 10.667969 35.746094 C 10.494564 35.651905 10.324516 35.55329 10.15625 35.451172 C 7.774647 34.005811 5.9204674 31.780025 4.9492188 29.126953 C 4.8105694 28.748217 4.6895134 28.359905 4.5878906 27.964844 C 4.4940721 27.600121 4.4179859 27.228503 4.3574219 26.851562 C 4.3523675 26.820159 4.3466135 26.789294 4.3417969 26.757812 C 4.2793672 26.349127 4.2362354 25.934508 4.2148438 25.513672 C 4.2148109 25.513025 4.2148765 25.512366 4.2148438 25.511719 C 4.2042294 25.302259 4.1992846 25.090992 4.1992188 24.878906 L 0 24.878906 z " />
      <path
         class="c"
         d="m 23.411749,1.463e-7 c -3.25567,0 -6.085364,1.8154669537 -7.542471,4.4862657537 1.122412,1.0412734 1.96422,2.3766728 2.403719,3.8878716 3.789829,-0.851951 6.633047,-4.1989013 6.700662,-8.22876476 C 24.466545,0.05071151 23.945909,1.463e-7 23.411749,1.463e-7 Z"
         id="path1175"
         style="fill:#ffffff;stroke-width:0.338076" />
      <path
         class="d"
         d="m 10.027328,2.1839697 c -0.6457244,0 -1.2711647,0.074377 -1.8763203,0.2062263 1.0378927,3.5802226 4.3375123,6.1969292 8.2490493,6.1969292 0.645725,0 1.271165,-0.074377 1.876321,-0.2062262 -1.037893,-3.5802226 -4.337513,-6.1969293 -8.24905,-6.1969293 z"
         id="path1177"
         style="fill:#ffffff;stroke-width:0.338076" />
    </g>
  </g>
</svg>
