<?xml version="1.0" encoding="UTF-8" standalone="no"?>
<!-- Created with Inkscape (http://www.inkscape.org/) -->

<svg
   width="276"
   height="48"
   viewBox="0 0 276 48"
   version="1.1"
   id="svg1329"
   inkscape:version="1.2 (1:1.2+202205241504+da316b6974)"
   sodipodi:docname="off-logo-horizontal-light.svg"
   xmlns:inkscape="http://www.inkscape.org/namespaces/inkscape"
   xmlns:sodipodi="http://sodipodi.sourceforge.net/DTD/sodipodi-0.dtd"
   xmlns="http://www.w3.org/2000/svg"
   xmlns:svg="http://www.w3.org/2000/svg">
  <sodipodi:namedview
     id="namedview1331"
     pagecolor="#ffffff"
     bordercolor="#666666"
     borderopacity="1.0"
     inkscape:showpageshadow="2"
     inkscape:pageopacity="0.0"
     inkscape:pagecheckerboard="0"
     inkscape:deskcolor="#d1d1d1"
     inkscape:document-units="mm"
     showgrid="false"
     inkscape:zoom="2.2727809"
     inkscape:cx="130.01693"
     inkscape:cy="88.657909"
     inkscape:window-width="2560"
     inkscape:window-height="1440"
     inkscape:window-x="0"
     inkscape:window-y="-37"
     inkscape:window-maximized="1"
     inkscape:current-layer="layer1" />
  <defs
     id="defs1326" />
  <g
     inkscape:label="Calque 1"
     inkscape:groupmode="layer"
     id="layer1">
    <g
       id="g1181"
       transform="matrix(0.33807579,0,0,0.33807579,-33.117904,-33.121285)">
      <g
         id="g1137">
        <rect
           class="g"
           x="445.39001"
           y="123.94"
           width="249.64"
           height="88.949997"
           rx="14.78"
           ry="14.78"
           transform="rotate(-5,570.23278,168.43305)"
           id="rect1125"
           style="fill:#ff8714" />
        <g
           id="g1135">
          <path
             class="e"
             d="m 466.87,204.98 -4.8,-54.85 37.55,-3.29 0.87,9.94 -26.14,2.29 1.22,13.92 22.46,-1.96 0.87,9.94 -22.46,1.96 1.84,21.06 -11.41,1 z"
             id="path1127"
             style="fill:#ffffff" />
          <path
             class="e"
             d="m 535.65,199.86 c -4.12,0.36 -8.01,-0.02 -11.67,-1.13 -3.66,-1.11 -6.91,-2.85 -9.77,-5.19 -2.85,-2.35 -5.16,-5.17 -6.94,-8.48 -1.77,-3.31 -2.84,-6.97 -3.19,-11 -0.35,-4.02 0.05,-7.82 1.19,-11.38 1.15,-3.56 2.92,-6.73 5.33,-9.52 2.4,-2.78 5.31,-5.04 8.72,-6.77 3.41,-1.73 7.2,-2.78 11.37,-3.15 4.17,-0.37 8.09,0 11.75,1.12 3.66,1.12 6.91,2.83 9.76,5.16 2.85,2.32 5.15,5.14 6.9,8.45 1.75,3.31 2.8,6.98 3.15,11 0.35,4.03 -0.06,7.82 -1.23,11.38 -1.17,3.56 -2.96,6.75 -5.36,9.56 -2.4,2.81 -5.31,5.08 -8.72,6.81 -3.41,1.73 -7.18,2.78 -11.3,3.14 z m -0.9,-10.31 c 2.5,-0.22 4.78,-0.86 6.84,-1.93 2.06,-1.07 3.83,-2.47 5.31,-4.21 1.48,-1.74 2.57,-3.75 3.26,-6.03 0.69,-2.29 0.92,-4.75 0.69,-7.41 -0.23,-2.65 -0.89,-5.03 -1.96,-7.14 -1.07,-2.11 -2.49,-3.9 -4.25,-5.38 -1.76,-1.48 -3.75,-2.55 -5.96,-3.23 -2.21,-0.67 -4.57,-0.9 -7.07,-0.68 -2.5,0.22 -4.78,0.85 -6.84,1.9 -2.06,1.05 -3.83,2.45 -5.31,4.21 -1.48,1.76 -2.56,3.77 -3.26,6.03 -0.69,2.26 -0.92,4.72 -0.69,7.37 0.23,2.65 0.89,5.04 1.96,7.17 1.08,2.13 2.5,3.92 4.25,5.38 1.76,1.45 3.75,2.53 5.96,3.23 2.21,0.7 4.57,0.94 7.07,0.72 z"
             id="path1129"
             style="fill:#ffffff" />
          <path
             class="e"
             d="m 598.24,194.38 c -4.12,0.36 -8.01,-0.02 -11.67,-1.13 -3.66,-1.11 -6.91,-2.85 -9.77,-5.19 -2.85,-2.35 -5.16,-5.17 -6.94,-8.48 -1.77,-3.31 -2.84,-6.97 -3.19,-11 -0.35,-4.02 0.05,-7.82 1.19,-11.38 1.15,-3.56 2.92,-6.73 5.33,-9.52 2.4,-2.78 5.31,-5.04 8.72,-6.77 3.41,-1.73 7.2,-2.78 11.37,-3.15 4.17,-0.36 8.09,0 11.75,1.12 3.66,1.12 6.91,2.83 9.76,5.16 2.85,2.32 5.15,5.14 6.9,8.45 1.75,3.31 2.8,6.98 3.15,11 0.35,4.03 -0.06,7.82 -1.23,11.38 -1.17,3.57 -2.96,6.75 -5.36,9.56 -2.4,2.81 -5.31,5.08 -8.72,6.81 -3.41,1.73 -7.18,2.78 -11.3,3.14 z m -0.9,-10.31 c 2.5,-0.22 4.78,-0.86 6.84,-1.93 2.06,-1.07 3.83,-2.47 5.31,-4.21 1.48,-1.74 2.57,-3.75 3.26,-6.03 0.69,-2.29 0.92,-4.75 0.69,-7.41 -0.23,-2.65 -0.89,-5.03 -1.96,-7.14 -1.07,-2.11 -2.49,-3.9 -4.25,-5.38 -1.76,-1.48 -3.75,-2.55 -5.96,-3.23 -2.21,-0.67 -4.57,-0.9 -7.07,-0.68 -2.5,0.22 -4.79,0.85 -6.85,1.9 -2.06,1.05 -3.83,2.45 -5.31,4.21 -1.48,1.76 -2.56,3.77 -3.26,6.03 -0.69,2.26 -0.92,4.72 -0.69,7.37 0.23,2.65 0.89,5.04 1.96,7.17 1.08,2.13 2.5,3.92 4.25,5.38 1.76,1.45 3.75,2.53 5.96,3.23 2.21,0.7 4.57,0.94 7.07,0.72 z"
             id="path1131"
             style="fill:#ffffff" />
          <path
             class="e"
             d="m 633.94,190.37 -4.8,-54.85 17.89,-1.57 c 5.94,-0.52 11.2,0.21 15.77,2.18 4.57,1.97 8.24,4.92 11.01,8.83 2.76,3.91 4.38,8.52 4.84,13.82 0.46,5.3 -0.33,10.13 -2.37,14.49 -2.04,4.36 -5.15,7.91 -9.31,10.65 -4.16,2.74 -9.21,4.37 -15.15,4.89 l -17.89,1.57 z m 10.54,-10.94 6.77,-0.59 c 3.58,-0.31 6.61,-1.31 9.09,-2.98 2.47,-1.68 4.32,-3.89 5.54,-6.64 1.22,-2.75 1.67,-5.9 1.36,-9.43 -0.31,-3.58 -1.31,-6.61 -2.98,-9.09 -1.68,-2.47 -3.88,-4.31 -6.6,-5.51 -2.73,-1.2 -5.88,-1.64 -9.46,-1.32 l -6.77,0.59 3.06,34.97 z"
             id="path1133"
             style="fill:#ffffff" />
        </g>
      </g>
      <g
         id="g1149">
        <path
           d="m 737.25,128.92 c -3.73,0 -6.96,0.68 -9.71,2.04 -2.75,1.36 -4.86,3.33 -6.34,5.9 -1.48,2.57 -2.22,5.72 -2.22,9.45 v 1.51 h -8.51 v 10.38 h 8.51 v 37.87 H 730.6 V 158.2 h 10.73 V 147.82 H 730.6 v -1.51 c 0,-2.48 0.71,-4.3 2.13,-5.45 1.42,-1.15 3.43,-1.73 6.03,-1.73 0.41,0 0.87,0.02 1.37,0.04 0.5,0.03 1.05,0.1 1.64,0.22 v -10.02 c -0.59,-0.12 -1.32,-0.22 -2.17,-0.31 -0.86,-0.09 -1.64,-0.13 -2.35,-0.13 z"
           id="path1139" />
        <path
           d="m 775.73,148.92 c -3.02,-1.45 -6.51,-2.17 -10.47,-2.17 -3.25,0 -6.27,0.53 -9.05,1.6 -2.78,1.06 -5.19,2.53 -7.23,4.39 -2.04,1.86 -3.53,4.07 -4.48,6.61 l 9.49,4.61 c 0.89,-2.13 2.29,-3.87 4.21,-5.23 1.92,-1.36 4.12,-2.04 6.61,-2.04 2.66,0 4.79,0.7 6.39,2.08 1.6,1.39 2.39,3.12 2.39,5.19 v 1.56 l -14.28,2.34 c -3.79,0.59 -6.92,1.6 -9.4,3.02 -2.48,1.42 -4.33,3.18 -5.54,5.28 -1.21,2.1 -1.82,4.48 -1.82,7.14 0,2.66 0.68,5.22 2.04,7.32 1.36,2.1 3.3,3.71 5.81,4.83 2.51,1.12 5.45,1.69 8.83,1.69 2.66,0 5.07,-0.35 7.23,-1.06 2.16,-0.71 4.11,-1.77 5.85,-3.19 0.71,-0.58 1.37,-1.22 2,-1.89 v 5.09 h 11 v -32.11 c 0,-3.37 -0.84,-6.36 -2.53,-8.96 -1.69,-2.6 -4.04,-4.63 -7.05,-6.08 z m -3.64,33.48 c -1.01,1.83 -2.44,3.27 -4.3,4.3 -1.86,1.04 -4.01,1.55 -6.43,1.55 -1.89,0 -3.47,-0.49 -4.75,-1.46 -1.27,-0.98 -1.91,-2.29 -1.91,-3.95 0,-1.66 0.56,-3.09 1.69,-4.12 1.12,-1.03 2.84,-1.76 5.14,-2.17 l 12.06,-2.14 v 2.05 c 0,2.13 -0.5,4.11 -1.51,5.94 z"
           id="path1141" />
        <path
           d="m 809.94,159.3 c 1.98,-1.21 4.24,-1.82 6.79,-1.82 2.72,0 5.13,0.72 7.23,2.17 2.1,1.45 3.59,3.41 4.48,5.9 l 10.2,-4.52 c -0.95,-2.84 -2.5,-5.32 -4.66,-7.45 -2.16,-2.13 -4.72,-3.8 -7.67,-5.01 -2.96,-1.21 -6.15,-1.82 -9.58,-1.82 -4.85,0 -9.18,1.09 -12.99,3.28 -3.81,2.19 -6.82,5.17 -9,8.96 -2.19,3.78 -3.28,8.07 -3.28,12.86 0,4.79 1.11,9.09 3.33,12.9 2.22,3.81 5.22,6.83 9,9.05 3.78,2.22 8.1,3.33 12.95,3.33 3.49,0 6.71,-0.61 9.67,-1.82 2.96,-1.21 5.5,-2.9 7.63,-5.06 2.13,-2.16 3.67,-4.6 4.61,-7.32 l -10.2,-4.61 c -0.95,2.48 -2.44,4.46 -4.48,5.94 -2.04,1.48 -4.45,2.22 -7.23,2.22 -2.54,0 -4.81,-0.62 -6.79,-1.86 -1.98,-1.24 -3.53,-2.96 -4.66,-5.14 -1.12,-2.19 -1.69,-4.7 -1.69,-7.54 0,-2.84 0.56,-5.28 1.69,-7.49 1.12,-2.22 2.67,-3.93 4.66,-5.14 z"
           id="path1143" />
        <path
           d="m 869.31,186.4 c -1.89,0 -3.45,-0.3 -4.66,-0.89 -1.21,-0.59 -2.1,-1.45 -2.66,-2.57 -0.56,-1.12 -0.84,-2.48 -0.84,-4.08 v -20.67 h 11.09 v -10.38 h -11.09 v -11 h -11.71 v 3.73 c 0,2.37 -0.64,4.17 -1.91,5.41 -1.27,1.24 -3.09,1.86 -5.45,1.86 h -0.89 v 10.38 h 8.25 v 21.29 c 0,5.44 1.51,9.65 4.52,12.64 3.02,2.99 7.24,4.48 12.68,4.48 0.89,0 1.86,-0.06 2.93,-0.18 1.06,-0.12 2.01,-0.24 2.84,-0.35 v -9.93 c -0.53,0.06 -1.08,0.12 -1.64,0.18 -0.56,0.06 -1.05,0.09 -1.46,0.09 z"
           id="path1145" />
        <path
           d="m 901.92,168.39 -7.72,-2.31 c -1.12,-0.35 -2.11,-0.74 -2.97,-1.15 -0.86,-0.41 -1.52,-0.94 -2,-1.6 -0.47,-0.65 -0.71,-1.39 -0.71,-2.22 0,-1.48 0.56,-2.65 1.69,-3.5 1.12,-0.86 2.66,-1.29 4.61,-1.29 2.42,0 4.61,0.64 6.56,1.91 1.95,1.27 3.34,3 4.17,5.19 l 8.87,-4.17 c -1.48,-3.96 -3.96,-7.04 -7.45,-9.22 -3.49,-2.19 -7.51,-3.28 -12.06,-3.28 -3.49,0 -6.58,0.62 -9.27,1.86 -2.69,1.24 -4.79,2.97 -6.3,5.19 -1.51,2.22 -2.26,4.8 -2.26,7.76 0,3.31 1.05,6.19 3.15,8.65 2.1,2.45 5.16,4.24 9.18,5.37 l 7.89,2.22 c 1.06,0.3 2.01,0.67 2.84,1.11 0.83,0.44 1.49,0.98 2,1.6 0.5,0.62 0.75,1.41 0.75,2.35 0,1.54 -0.62,2.78 -1.86,3.73 -1.24,0.95 -2.9,1.42 -4.97,1.42 -2.72,0 -5.19,-0.77 -7.41,-2.31 -2.22,-1.54 -3.95,-3.67 -5.19,-6.39 l -8.78,4.17 c 1.48,4.2 4.12,7.53 7.94,9.98 3.81,2.45 8.29,3.68 13.44,3.68 3.67,0 6.86,-0.62 9.58,-1.86 2.72,-1.24 4.85,-2.97 6.39,-5.19 1.54,-2.22 2.31,-4.77 2.31,-7.67 0,-3.43 -1.08,-6.33 -3.24,-8.69 -2.16,-2.36 -5.22,-4.14 -9.18,-5.32 z"
           id="path1147" />
      </g>
      <g
         id="g1159">
        <path
           d="m 258.53,150.03 c -3.84,-2.19 -8.16,-3.28 -12.95,-3.28 -4.79,0 -9.02,1.09 -12.86,3.28 -3.84,2.19 -6.92,5.17 -9.22,8.96 -2.31,3.78 -3.46,8.1 -3.46,12.95 0,4.85 1.15,9.17 3.46,12.95 2.31,3.78 5.39,6.77 9.27,8.96 3.87,2.19 8.14,3.28 12.82,3.28 4.68,0 9.02,-1.09 12.86,-3.28 3.84,-2.19 6.92,-5.17 9.22,-8.96 2.31,-3.78 3.46,-8.1 3.46,-12.95 0,-4.85 -1.14,-9.24 -3.41,-12.99 -2.28,-3.75 -5.34,-6.73 -9.18,-8.91 z m -1.29,29.4 c -1.15,2.22 -2.72,3.95 -4.7,5.19 -1.98,1.24 -4.3,1.86 -6.96,1.86 -2.66,0 -4.91,-0.62 -6.92,-1.86 -2.01,-1.24 -3.59,-2.97 -4.75,-5.19 -1.15,-2.22 -1.73,-4.71 -1.73,-7.49 0,-2.78 0.58,-5.26 1.73,-7.45 1.15,-2.19 2.73,-3.9 4.75,-5.14 2.01,-1.24 4.32,-1.86 6.92,-1.86 2.6,0 4.98,0.62 6.96,1.86 1.98,1.24 3.55,2.96 4.7,5.14 1.15,2.19 1.73,4.67 1.73,7.45 0,2.78 -0.58,5.28 -1.73,7.49 z"
           id="path1151" />
        <path
           d="m 316.23,150.12 c -3.67,-2.25 -7.78,-3.37 -12.33,-3.37 -3.72,0 -7.01,0.72 -9.84,2.17 -2.27,1.16 -4.16,2.7 -5.68,4.6 v -5.71 h -11 v 65.99 h 11.71 v -22.37 c 1.42,1.51 3.12,2.74 5.1,3.66 2.93,1.36 6.13,2.04 9.62,2.04 4.67,0 8.84,-1.11 12.51,-3.33 3.67,-2.22 6.56,-5.25 8.69,-9.09 2.13,-3.84 3.19,-8.1 3.19,-12.77 0,-4.67 -1.08,-8.99 -3.24,-12.77 -2.16,-3.78 -5.07,-6.8 -8.74,-9.05 z m -1.86,29.36 c -1.18,2.19 -2.79,3.9 -4.83,5.14 -2.04,1.24 -4.39,1.86 -7.05,1.86 -2.66,0 -4.83,-0.62 -6.87,-1.86 -2.04,-1.24 -3.64,-2.96 -4.79,-5.14 -1.15,-2.19 -1.73,-4.7 -1.73,-7.54 0,-2.84 0.58,-5.26 1.73,-7.45 1.15,-2.19 2.75,-3.9 4.79,-5.14 2.04,-1.24 4.33,-1.86 6.87,-1.86 2.54,0 5.01,0.62 7.05,1.86 2.04,1.24 3.65,2.96 4.83,5.14 1.18,2.19 1.77,4.67 1.77,7.45 0,2.78 -0.59,5.35 -1.77,7.54 z"
           id="path1153" />
        <path
           d="m 373.71,153.76 c -2.01,-2.19 -4.45,-3.9 -7.32,-5.14 -2.87,-1.24 -6.19,-1.86 -9.98,-1.86 -4.55,0 -8.63,1.09 -12.24,3.28 -3.61,2.19 -6.47,5.16 -8.6,8.91 -2.13,3.76 -3.19,8.06 -3.19,12.9 0,4.84 1.03,8.93 3.1,12.77 2.07,3.84 4.98,6.89 8.74,9.14 3.75,2.25 8.12,3.37 13.08,3.37 3.25,0 6.27,-0.5 9.05,-1.51 2.78,-1 5.17,-2.39 7.18,-4.17 2.01,-1.77 3.49,-3.81 4.43,-6.12 l -9.4,-4.61 c -1.06,1.89 -2.53,3.4 -4.39,4.52 -1.86,1.12 -4.12,1.69 -6.79,1.69 -2.67,0 -5.01,-0.62 -7.05,-1.86 -2.04,-1.24 -3.58,-3 -4.61,-5.28 -0.62,-1.37 -1.01,-2.86 -1.17,-4.48 h 34.74 c 0.24,-0.71 0.4,-1.49 0.49,-2.35 0.09,-0.86 0.13,-1.73 0.13,-2.62 0,-3.25 -0.53,-6.28 -1.6,-9.09 -1.06,-2.81 -2.6,-5.31 -4.61,-7.49 z m -28.92,12.59 c 0.2,-1.02 0.48,-1.96 0.85,-2.84 0.98,-2.31 2.41,-4.08 4.3,-5.32 1.89,-1.24 4.05,-1.86 6.47,-1.86 2.42,0 4.71,0.62 6.52,1.86 1.8,1.24 3.1,2.93 3.9,5.06 0.36,0.97 0.58,2.01 0.65,3.1 h -22.7 z"
           id="path1155" />
        <path
           d="m 420.44,149.06 c -2.75,-1.54 -5.9,-2.31 -9.45,-2.31 -3.55,0 -6.43,0.75 -9,2.26 -1.99,1.16 -3.53,2.75 -4.66,4.74 v -5.93 h -11 v 48.25 h 11.71 v -28.29 c 0,-2.13 0.41,-3.96 1.24,-5.5 0.83,-1.54 1.98,-2.72 3.46,-3.55 1.48,-0.83 3.16,-1.24 5.06,-1.24 1.9,0 3.58,0.41 5.06,1.24 1.48,0.83 2.63,2.01 3.46,3.55 0.83,1.54 1.24,3.37 1.24,5.5 v 28.29 h 11.62 v -31.04 c 0,-3.61 -0.77,-6.79 -2.31,-9.53 -1.54,-2.75 -3.68,-4.89 -6.43,-6.43 z"
           id="path1157" />
      </g>
      <g
         id="g1179">
        <g
           id="g1171">
          <path
             class="f"
             d="m 97.97,171.55 c 0,-27.05 21.93,-48.98 48.98,-48.98 27.05,0 48.98,21.93 48.98,48.98 z"
             id="path1161"
             style="fill:#ff8c14" />
          <path
             class="e"
             d="m 183.52,171.55 c 0,20.2 -16.37,36.57 -36.57,36.57 -20.2,0 -36.57,-16.37 -36.57,-36.57 h 73.13 z"
             id="path1163"
             style="fill:#ffffff" />
          <circle
             class="h"
             cx="163.53999"
             cy="139.92"
             r="2.6900001"
             id="circle1165"
             style="fill:#8c3c00" />
          <circle
             class="h"
             cx="176.66"
             cy="151.96001"
             r="2.6900001"
             id="circle1167"
             style="fill:#8c3c00" />
          <circle
             class="h"
             cx="161.82001"
             cy="154.91"
             r="2.6900001"
             id="circle1169"
             style="fill:#8c3c00" />
        </g>
        <path
           d="m 123.2,214.37 -8.7,20.78 11.45,4.8 8.78,-20.96 c 3.91,1.01 8.01,1.55 12.23,1.55 27.01,0 48.98,-21.97 48.98,-48.98 h -12.42 c 0,20.16 -16.4,36.57 -36.57,36.57 -20.17,0 -36.57,-16.4 -36.57,-36.57 H 97.96 c 0,18.39 10.2,34.44 25.23,42.82 z"
           id="path1173" />
        <path
           class="c"
           d="m 167.21,97.97 c -9.63,0 -18,5.37 -22.31,13.27 3.32,3.08 5.81,7.03 7.11,11.5 11.21,-2.52 19.62,-12.42 19.82,-24.34 -1.5,-0.28 -3.04,-0.43 -4.62,-0.43 z"
           id="path1175"
           style="fill:#00641e" />
        <path
           class="d"
           d="m 127.62,104.43 c -1.91,0 -3.76,0.22 -5.55,0.61 3.07,10.59 12.83,18.33 24.4,18.33 1.91,0 3.76,-0.22 5.55,-0.61 -3.07,-10.59 -12.83,-18.33 -24.4,-18.33 z"
           id="path1177"
           style="fill:#00961e" />
      </g>
    </g>
  </g>
</svg>
