<?xml version="1.0" encoding="UTF-8"?>
<svg width="178px" height="178px" viewBox="0 0 178 178" version="1.1" xmlns="http://www.w3.org/2000/svg" xmlns:xlink="http://www.w3.org/1999/xlink">
    <title>Artboard</title>
    <g id="Artboard" stroke="none" stroke-width="1" fill="none" fill-rule="evenodd">
        <g id="off-logo-icon-dark" transform="translate(27.77, 0.265)" fill-rule="nonzero">
            <g id="g2989" transform="translate(0, 30.75)">
                <path d="M0,61.23 C0,27.41 27.41,-1.19949929e-24 61.23,-1.19949929e-24 C95.05,-1.19949929e-24 122.46,27.41 122.46,61.23 L0,61.23 Z" id="path2979" fill="#FF8C14"></path>
                <circle id="circle2983" fill="#8C3C00" cx="81.96" cy="21.689999" r="3.3699999"></circle>
                <circle id="circle2985" fill="#8C3C00" cx="98.36" cy="36.749996" r="3.3699999"></circle>
                <circle id="circle2987" fill="#8C3C00" cx="79.80999" cy="40.43" r="3.3699999"></circle>
            </g>
            <path d="M31.53,145.5 L20.65,171.47 L34.97,177.47 L45.94,151.28 C50.83,152.54 55.95,153.21 61.23,153.21 C94.99,153.21 122.46,125.74 122.46,91.98 L106.94,91.98 C106.94,117.18 86.44,137.69 61.23,137.69 C36.02,137.69 15.52,117.19 15.52,91.98 L0,91.98 C0,114.97 12.74,135.03 31.53,145.5 L31.53,145.5 Z" id="path2991" fill="#FFFFFF"></path>
            <path d="M86.55,-3.55271368e-15 C74.51,-3.55271368e-15 64.05,6.71 58.67,16.59 C62.81,20.45 65.94,25.38 67.56,30.97 C81.57,27.83 92.09,15.44 92.33,0.54 C90.46,0.19 88.53,0.01 86.55,0.01 L86.55,-3.55271368e-15 Z" id="path2993" fill="#00641E"></path>
            <path d="M37.06,8.08 C34.68,8.08 32.36,8.35 30.12,8.85 C33.95,22.08 46.15,31.76 60.62,31.76 C63,31.76 65.32,31.49 67.56,30.99 C63.73,17.76 51.53,8.08 37.06,8.08 Z" id="path2995" fill="#00961E"></path>
        </g>
    </g>
</svg>