<?xml version="1.0" encoding="UTF-8" standalone="no"?>
<!-- Created with Inkscape (http://www.inkscape.org/) -->

<svg
   width="178"
   height="178"
   viewBox="0 0 178 178"
   version="1.1"
   id="svg3069"
   inkscape:version="1.2 (dc2aeda, 2022-05-15)"
   sodipodi:docname="opf-logo-icon-dark.svg"
   inkscape:export-filename="off-logo-icon-light.png"
   inkscape:export-xdpi="138.06741"
   inkscape:export-ydpi="138.06741"
   xmlns:inkscape="http://www.inkscape.org/namespaces/inkscape"
   xmlns:sodipodi="http://sodipodi.sourceforge.net/DTD/sodipodi-0.dtd"
   xmlns="http://www.w3.org/2000/svg"
   xmlns:svg="http://www.w3.org/2000/svg">
  <sodipodi:namedview
     id="namedview3071"
     pagecolor="#ffffff"
     bordercolor="#666666"
     borderopacity="1.0"
     inkscape:showpageshadow="2"
     inkscape:pageopacity="0.0"
     inkscape:pagecheckerboard="0"
     inkscape:deskcolor="#d1d1d1"
     inkscape:document-units="mm"
     showgrid="false"
     inkscape:zoom="0.80354938"
     inkscape:cx="131.29249"
     inkscape:cy="564.37104"
     inkscape:window-width="2560"
     inkscape:window-height="1376"
     inkscape:window-x="0"
     inkscape:window-y="0"
     inkscape:window-maximized="1"
     inkscape:current-layer="layer1" />
  <defs
     id="defs3066" />
  <g
     inkscape:label="Calque 1"
     inkscape:groupmode="layer"
     id="layer1">
    <g
       id="g442547"
       transform="translate(-33.46,-29.87)">
      <path
         class="b"
         d="m 122.46,168.1 c -25.2,0 -45.7,-20.5 -45.7,-45.7 H 61.24 c 0,22.99 12.74,43.04 31.53,53.51 l -10.88,25.96 14.31,6 10.97,-26.19 c 4.89,1.26 10.01,1.93 15.28,1.93 33.76,0 61.22,-27.46 61.22,-61.22 h -15.52 c 0,25.2 -20.5,45.7 -45.7,45.7 z"
         id="path442527"
         style="fill:#ffffff" />
      <g
         id="g442545">
        <path
           class="d"
           d="M 161.42,67.43 H 83.5 c -12.29,0 -22.26,9.97 -22.26,22.26 v 32.71 h 15.52 c 0,-25.24 20.46,-45.7 45.7,-45.7 25.24,0 45.7,20.46 45.7,45.7 h 15.52 V 89.69 c 0,-12.29 -9.97,-22.26 -22.26,-22.26 z"
           id="path442529"
           style="fill:#bebebe" />
        <path
           class="e"
           d="m 147.66,51.77 h -16.51 c -3.47,0 -6.52,2.32 -7.46,5.66 l -2.79,10 h 37 l -2.79,-10 c -0.93,-3.35 -3.98,-5.66 -7.46,-5.66 z"
           id="path442531"
           style="fill:#646464" />
        <path
           class="e"
           d="m 89.58,57.99 h 8.94 c 1.35,0 2.44,1.09 2.44,2.44 v 7 H 87.15 v -7 c 0,-1.35 1.09,-2.44 2.44,-2.44 z"
           id="path442533"
           style="fill:#646464" />
        <rect
           class="c"
           x="160.92999"
           y="78.010002"
           width="11.81"
           height="11.77"
           rx="5.8899999"
           ry="5.8899999"
           id="rect442535"
           style="fill:#ffe600" />
        <path
           class="e"
           d="m 122.46,76.7 c -25.24,0 -45.7,20.46 -45.7,45.7 h 13.08 c 0,-18.01 14.6,-32.62 32.62,-32.62 18.02,0 32.62,14.6 32.62,32.62 h 13.08 c 0,-25.24 -20.46,-45.7 -45.7,-45.7 z"
           id="path442537"
           style="fill:#646464" />
        <path
           class="f"
           d="m 122.46,89.78 c -18.01,0 -32.62,14.6 -32.62,32.62 h 65.23 c 0,-18.01 -14.6,-32.62 -32.62,-32.62 z"
           id="path442539"
           style="fill:#82dcff" />
        <path
           class="b"
           d="m 143.6,112.91 c -0.83,0 -1.64,-0.45 -2.05,-1.24 -1.05,-2.01 -2.42,-3.82 -4.07,-5.39 -0.93,-0.88 -0.96,-2.34 -0.08,-3.27 0.88,-0.93 2.34,-0.96 3.27,-0.08 2.02,1.92 3.69,4.14 4.98,6.59 0.59,1.13 0.16,2.53 -0.97,3.12 -0.34,0.18 -0.71,0.27 -1.07,0.27 z"
           id="path442541"
           style="fill:#ffffff" />
        <path
           class="b"
           d="m 133.02,102.78 c -0.33,0 -0.67,-0.07 -0.98,-0.22 -0.69,-0.32 -1.4,-0.61 -2.11,-0.86 -1.21,-0.41 -1.85,-1.73 -1.44,-2.94 0.41,-1.21 1.73,-1.85 2.94,-1.44 0.87,0.3 1.74,0.65 2.58,1.05 1.15,0.54 1.65,1.92 1.11,3.08 -0.39,0.84 -1.22,1.33 -2.09,1.33 z"
           id="path442543"
           style="fill:#ffffff" />
      </g>
    </g>
  </g>
</svg>
