<?xml version="1.0" encoding="UTF-8" standalone="no"?>
<!-- Created with Inkscape (http://www.inkscape.org/) -->

<svg
   width="398"
   height="400"
   viewBox="0 0 398 400"
   version="1.1"
   id="svg2229"
   inkscape:version="1.2 (dc2aeda, 2022-05-15)"
   sodipodi:docname="opff-logo-vertical-dark.svg"
   inkscape:export-filename="obf-logo-vertical-dark.png"
   inkscape:export-xdpi="96"
   inkscape:export-ydpi="96"
   xmlns:inkscape="http://www.inkscape.org/namespaces/inkscape"
   xmlns:sodipodi="http://sodipodi.sourceforge.net/DTD/sodipodi-0.dtd"
   xmlns="http://www.w3.org/2000/svg"
   xmlns:svg="http://www.w3.org/2000/svg">
  <sodipodi:namedview
     id="namedview2231"
     pagecolor="#ffffff"
     bordercolor="#666666"
     borderopacity="1.0"
     inkscape:showpageshadow="2"
     inkscape:pageopacity="0.0"
     inkscape:pagecheckerboard="0"
     inkscape:deskcolor="#d1d1d1"
     inkscape:document-units="mm"
     showgrid="false"
     inkscape:zoom="0.80354938"
     inkscape:cx="131.91473"
     inkscape:cy="566.86"
     inkscape:window-width="1731"
     inkscape:window-height="1282"
     inkscape:window-x="26"
     inkscape:window-y="23"
     inkscape:window-maximized="0"
     inkscape:current-layer="layer1" />
  <defs
     id="defs2226" />
  <g
     inkscape:label="Calque 1"
     inkscape:groupmode="layer"
     id="layer1">
    <g
       id="g441565"
       transform="translate(-97.527102,-76.31)">
      <g
         id="g441511">
        <rect
           class="d"
           x="99.879997"
           y="305.95001"
           width="393.29999"
           height="89.269997"
           rx="14.79"
           ry="14.79"
           transform="rotate(-5,296.54717,350.61891)"
           id="rect441493"
           style="fill:#ff6e78" />
        <g
           id="g441509">
          <path
             class="b"
             d="m 119.26,393.75 -4.8,-54.89 21.07,-1.84 c 3.78,-0.33 7.19,0.04 10.23,1.11 3.04,1.07 5.51,2.84 7.41,5.29 1.9,2.46 3.01,5.6 3.35,9.43 0.33,3.73 -0.24,6.98 -1.71,9.73 -1.47,2.75 -3.6,4.93 -6.41,6.54 -2.81,1.61 -6.08,2.57 -9.81,2.9 l -9.65,0.84 1.74,19.89 z m 8.81,-30.84 9.73,-0.85 c 1.62,-0.14 2.99,-0.58 4.12,-1.33 1.12,-0.74 1.97,-1.71 2.53,-2.89 0.56,-1.19 0.78,-2.52 0.65,-3.99 -0.13,-1.52 -0.58,-2.82 -1.34,-3.89 -0.76,-1.07 -1.76,-1.87 -2.99,-2.41 -1.24,-0.53 -2.66,-0.73 -4.28,-0.59 l -9.73,0.85 1.32,15.1 z"
             id="path441495"
             style="fill:#ffffff" />
          <path
             class="b"
             d="m 165.57,389.7 -4.8,-54.89 36.91,-3.23 0.87,9.95 -25.49,2.23 1.09,12.45 24.02,-2.1 0.87,9.95 -24.02,2.1 1.1,12.6 25.49,-2.23 0.87,9.95 -36.92,3.23 z"
             id="path441497"
             style="fill:#ffffff" />
          <path
             class="b"
             d="m 220.69,384.88 -3.93,-44.95 -13.93,1.22 -0.87,-9.95 39.05,-3.42 0.87,9.95 -13.7,1.2 3.93,44.95 z"
             id="path441499"
             style="fill:#ffffff" />
          <path
             class="b"
             d="m 264.02,381.09 -4.8,-54.89 37.58,-3.29 0.87,9.95 -26.16,2.29 1.22,13.93 22.47,-1.97 0.87,9.95 -22.47,1.97 1.84,21.07 -11.42,1 z"
             id="path441501"
             style="fill:#ffffff" />
          <path
             class="b"
             d="m 333.85,375.87 c -4.13,0.36 -8.02,-0.02 -11.68,-1.13 -3.66,-1.12 -6.92,-2.85 -9.77,-5.2 -2.86,-2.35 -5.17,-5.18 -6.94,-8.49 -1.78,-3.31 -2.84,-6.98 -3.19,-11.01 -0.35,-4.03 0.04,-7.82 1.19,-11.39 1.15,-3.56 2.92,-6.74 5.33,-9.52 2.41,-2.78 5.31,-5.04 8.73,-6.78 3.41,-1.73 7.2,-2.78 11.38,-3.15 4.17,-0.37 8.09,0 11.75,1.12 3.66,1.12 6.92,2.84 9.77,5.16 2.85,2.33 5.15,5.14 6.9,8.45 1.75,3.31 2.8,6.98 3.15,11.01 0.35,4.03 -0.06,7.83 -1.23,11.39 -1.17,3.57 -2.96,6.76 -5.36,9.57 -2.4,2.81 -5.31,5.08 -8.72,6.81 -3.41,1.73 -7.18,2.78 -11.31,3.14 z m -0.9,-10.32 c 2.5,-0.22 4.79,-0.86 6.85,-1.94 2.06,-1.07 3.83,-2.48 5.31,-4.21 1.48,-1.74 2.57,-3.75 3.26,-6.04 0.69,-2.29 0.92,-4.76 0.69,-7.41 -0.23,-2.65 -0.89,-5.03 -1.96,-7.14 -1.07,-2.11 -2.49,-3.9 -4.26,-5.38 -1.76,-1.48 -3.75,-2.55 -5.96,-3.23 -2.21,-0.67 -4.57,-0.9 -7.07,-0.68 -2.51,0.22 -4.79,0.85 -6.85,1.9 -2.06,1.05 -3.83,2.45 -5.31,4.21 -1.48,1.76 -2.57,3.78 -3.26,6.04 -0.69,2.26 -0.92,4.72 -0.69,7.37 0.23,2.65 0.89,5.05 1.96,7.18 1.08,2.13 2.5,3.93 4.26,5.38 1.76,1.45 3.75,2.53 5.96,3.23 2.21,0.7 4.57,0.94 7.08,0.72 z"
             id="path441503"
             style="fill:#ffffff" />
          <path
             class="b"
             d="m 397.49,370.3 c -4.13,0.36 -8.02,-0.02 -11.68,-1.13 -3.66,-1.12 -6.92,-2.85 -9.77,-5.2 -2.85,-2.35 -5.17,-5.18 -6.94,-8.49 -1.77,-3.31 -2.84,-6.98 -3.19,-11.01 -0.35,-4.03 0.04,-7.82 1.19,-11.39 1.15,-3.56 2.92,-6.74 5.33,-9.52 2.4,-2.78 5.31,-5.04 8.72,-6.78 3.41,-1.73 7.21,-2.78 11.38,-3.15 4.18,-0.37 8.09,0 11.76,1.12 3.66,1.12 6.92,2.84 9.77,5.16 2.85,2.33 5.15,5.14 6.9,8.45 1.75,3.31 2.8,6.98 3.15,11.01 0.35,4.03 -0.06,7.83 -1.23,11.39 -1.17,3.57 -2.96,6.76 -5.36,9.57 -2.4,2.81 -5.31,5.08 -8.72,6.81 -3.41,1.73 -7.18,2.78 -11.31,3.14 z m -0.9,-10.32 c 2.5,-0.22 4.79,-0.86 6.85,-1.94 2.06,-1.07 3.83,-2.48 5.31,-4.21 1.48,-1.74 2.57,-3.75 3.26,-6.04 0.69,-2.29 0.92,-4.76 0.69,-7.41 -0.23,-2.65 -0.89,-5.03 -1.96,-7.14 -1.08,-2.11 -2.49,-3.9 -4.26,-5.38 -1.76,-1.48 -3.75,-2.55 -5.96,-3.23 -2.21,-0.67 -4.57,-0.9 -7.07,-0.68 -2.5,0.22 -4.79,0.85 -6.85,1.9 -2.06,1.05 -3.83,2.45 -5.31,4.21 -1.48,1.76 -2.57,3.78 -3.26,6.04 -0.69,2.26 -0.92,4.72 -0.69,7.37 0.23,2.65 0.89,5.05 1.96,7.18 1.08,2.13 2.5,3.93 4.26,5.38 1.76,1.45 3.75,2.53 5.96,3.23 2.21,0.7 4.57,0.94 7.08,0.72 z"
             id="path441505"
             style="fill:#ffffff" />
          <path
             class="b"
             d="m 434.2,366.2 -4.8,-54.89 17.9,-1.57 c 5.94,-0.52 11.21,0.21 15.78,2.18 4.58,1.97 8.25,4.92 11.02,8.84 2.77,3.92 4.38,8.53 4.85,13.83 0.46,5.3 -0.33,10.14 -2.37,14.5 -2.04,4.36 -5.15,7.91 -9.31,10.65 -4.17,2.74 -9.22,4.37 -15.17,4.89 z m 10.55,-10.95 6.78,-0.59 c 3.59,-0.31 6.62,-1.31 9.09,-2.99 2.48,-1.68 4.32,-3.89 5.54,-6.65 1.22,-2.75 1.67,-5.9 1.37,-9.44 -0.31,-3.59 -1.31,-6.62 -2.99,-9.09 -1.68,-2.48 -3.88,-4.31 -6.61,-5.51 -2.73,-1.2 -5.89,-1.64 -9.47,-1.32 l -6.78,0.59 3.06,35 z"
             id="path441507"
             style="fill:#ffffff" />
        </g>
      </g>
      <g
         id="g441523">
        <path
           class="b"
           d="m 218.82,407.96 c -3.73,0 -6.98,0.68 -9.73,2.04 -2.76,1.36 -4.87,3.33 -6.35,5.91 -1.48,2.58 -2.22,5.73 -2.22,9.46 v 1.51 h -8.53 v 10.4 h 8.53 v 37.95 h 11.64 v -37.95 h 10.75 v -10.4 h -10.75 v -1.51 c 0,-2.49 0.71,-4.31 2.13,-5.47 1.42,-1.16 3.44,-1.73 6.04,-1.73 0.41,0 0.87,0.02 1.38,0.04 0.5,0.03 1.05,0.1 1.64,0.22 v -10.04 c -0.59,-0.12 -1.32,-0.22 -2.18,-0.31 -0.86,-0.09 -1.64,-0.13 -2.35,-0.13 z"
           id="path441513"
           style="fill:#ffffff" />
        <path
           class="b"
           d="m 257.37,428 c -3.02,-1.45 -6.52,-2.18 -10.49,-2.18 -3.26,0 -6.28,0.53 -9.06,1.6 -2.79,1.07 -5.2,2.53 -7.24,4.4 -2.04,1.87 -3.54,4.07 -4.49,6.62 l 9.51,4.62 c 0.89,-2.13 2.3,-3.88 4.22,-5.24 1.92,-1.36 4.13,-2.04 6.62,-2.04 2.67,0 4.8,0.7 6.4,2.09 1.6,1.39 2.4,3.13 2.4,5.2 v 1.57 l -14.31,2.34 c -3.79,0.59 -6.93,1.6 -9.42,3.02 -2.49,1.42 -4.34,3.19 -5.55,5.29 -1.22,2.1 -1.82,4.49 -1.82,7.15 0,2.66 0.68,5.23 2.04,7.33 1.36,2.1 3.3,3.72 5.82,4.84 2.52,1.12 5.47,1.69 8.84,1.69 2.67,0 5.08,-0.36 7.24,-1.07 2.16,-0.71 4.12,-1.78 5.87,-3.2 0.71,-0.58 1.37,-1.22 2,-1.9 v 5.1 h 11.02 v -32.17 c 0,-3.38 -0.84,-6.37 -2.53,-8.98 -1.69,-2.61 -4.04,-4.64 -7.06,-6.09 z m -3.64,33.55 c -1.01,1.84 -2.44,3.27 -4.31,4.31 -1.87,1.04 -4.01,1.56 -6.44,1.56 -1.9,0 -3.48,-0.49 -4.75,-1.47 -1.27,-0.98 -1.91,-2.3 -1.91,-3.95 0,-1.65 0.56,-3.1 1.69,-4.13 1.12,-1.04 2.84,-1.76 5.15,-2.18 l 12.09,-2.15 v 2.06 c 0,2.13 -0.5,4.12 -1.51,5.95 z"
           id="path441515"
           style="fill:#ffffff" />
        <path
           class="b"
           d="m 291.66,438.4 c 1.98,-1.21 4.25,-1.82 6.8,-1.82 2.72,0 5.14,0.73 7.24,2.18 2.1,1.45 3.6,3.42 4.49,5.91 l 10.22,-4.53 c -0.95,-2.84 -2.5,-5.33 -4.67,-7.47 -2.16,-2.13 -4.73,-3.81 -7.69,-5.02 -2.96,-1.21 -6.16,-1.82 -9.6,-1.82 -4.86,0 -9.2,1.1 -13.02,3.29 -3.82,2.19 -6.83,5.19 -9.02,8.98 -2.19,3.79 -3.29,8.09 -3.29,12.89 0,4.8 1.11,9.11 3.33,12.93 2.22,3.82 5.23,6.84 9.02,9.06 3.79,2.22 8.12,3.33 12.97,3.33 3.49,0 6.72,-0.61 9.69,-1.82 2.96,-1.21 5.51,-2.9 7.64,-5.07 2.13,-2.16 3.67,-4.61 4.62,-7.33 l -10.22,-4.62 c -0.95,2.49 -2.44,4.47 -4.49,5.95 -2.04,1.48 -4.46,2.22 -7.24,2.22 -2.55,0 -4.81,-0.62 -6.8,-1.87 -1.99,-1.24 -3.54,-2.96 -4.67,-5.15 -1.13,-2.19 -1.69,-4.71 -1.69,-7.55 0,-2.84 0.56,-5.29 1.69,-7.51 1.12,-2.22 2.68,-3.94 4.67,-5.15 z"
           id="path441517"
           style="fill:#ffffff" />
        <path
           class="b"
           d="m 351.15,465.55 c -1.9,0 -3.45,-0.3 -4.67,-0.89 -1.22,-0.59 -2.1,-1.45 -2.67,-2.58 -0.56,-1.12 -0.84,-2.49 -0.84,-4.09 v -20.71 h 11.11 v -10.4 h -11.11 v -11.02 h -11.73 v 3.73 c 0,2.37 -0.64,4.18 -1.91,5.42 -1.27,1.24 -3.1,1.87 -5.47,1.87 h -0.89 v 10.4 h 8.26 v 21.33 c 0,5.45 1.51,9.67 4.53,12.66 3.02,2.99 7.26,4.49 12.71,4.49 0.89,0 1.87,-0.06 2.93,-0.18 1.07,-0.12 2.01,-0.24 2.84,-0.36 v -9.95 c -0.53,0.06 -1.08,0.12 -1.64,0.18 -0.56,0.06 -1.05,0.09 -1.47,0.09 z"
           id="path441519"
           style="fill:#ffffff" />
        <path
           class="b"
           d="m 383.82,447.51 -7.73,-2.31 c -1.13,-0.36 -2.12,-0.74 -2.98,-1.16 -0.86,-0.41 -1.53,-0.95 -2,-1.6 -0.47,-0.65 -0.71,-1.39 -0.71,-2.22 0,-1.48 0.56,-2.65 1.69,-3.51 1.12,-0.86 2.67,-1.29 4.62,-1.29 2.43,0 4.62,0.64 6.58,1.91 1.95,1.27 3.35,3.01 4.18,5.2 l 8.89,-4.18 c -1.48,-3.97 -3.97,-7.05 -7.47,-9.24 -3.5,-2.19 -7.52,-3.29 -12.09,-3.29 -3.5,0 -6.59,0.62 -9.29,1.87 -2.7,1.24 -4.8,2.98 -6.31,5.2 -1.51,2.22 -2.27,4.81 -2.27,7.78 0,3.32 1.05,6.21 3.15,8.66 2.1,2.46 5.17,4.25 9.2,5.38 l 7.91,2.22 c 1.07,0.3 2.01,0.67 2.84,1.11 0.83,0.44 1.5,0.98 2,1.6 0.5,0.62 0.76,1.41 0.76,2.35 0,1.54 -0.62,2.79 -1.87,3.73 -1.24,0.95 -2.9,1.42 -4.98,1.42 -2.73,0 -5.2,-0.77 -7.42,-2.31 -2.22,-1.54 -3.95,-3.67 -5.2,-6.4 l -8.8,4.18 c 1.48,4.21 4.13,7.54 7.95,10 3.82,2.46 8.31,3.69 13.46,3.69 3.67,0 6.87,-0.62 9.6,-1.87 2.72,-1.24 4.86,-2.98 6.4,-5.2 1.54,-2.22 2.31,-4.78 2.31,-7.69 0,-3.44 -1.08,-6.34 -3.24,-8.71 -2.16,-2.37 -5.23,-4.15 -9.2,-5.33 z"
           id="path441521"
           style="fill:#ffffff" />
      </g>
      <g
         id="g441533">
        <path
           class="b"
           d="m 229.73,240.59 c -3.85,-2.19 -8.18,-3.29 -12.97,-3.29 -4.79,0 -9.04,1.1 -12.89,3.29 -3.85,2.19 -6.93,5.19 -9.24,8.98 -2.31,3.79 -3.47,8.12 -3.47,12.97 0,4.85 1.16,9.18 3.47,12.97 2.31,3.79 5.41,6.78 9.29,8.98 3.88,2.19 8.16,3.29 12.84,3.29 4.68,0 9.03,-1.1 12.89,-3.29 3.85,-2.19 6.93,-5.18 9.24,-8.98 2.31,-3.79 3.47,-8.12 3.47,-12.97 0,-4.85 -1.14,-9.26 -3.42,-13.02 -2.28,-3.76 -5.35,-6.74 -9.2,-8.93 z m -1.29,29.46 c -1.16,2.22 -2.73,3.95 -4.71,5.2 -1.99,1.24 -4.31,1.87 -6.98,1.87 -2.67,0 -4.92,-0.62 -6.93,-1.87 -2.02,-1.24 -3.6,-2.98 -4.75,-5.2 -1.16,-2.22 -1.73,-4.72 -1.73,-7.51 0,-2.79 0.58,-5.27 1.73,-7.47 1.16,-2.19 2.74,-3.91 4.75,-5.15 2.01,-1.24 4.32,-1.87 6.93,-1.87 2.61,0 4.99,0.62 6.98,1.87 1.98,1.24 3.55,2.96 4.71,5.15 1.16,2.19 1.73,4.68 1.73,7.47 0,2.79 -0.58,5.29 -1.73,7.51 z"
           id="path441525"
           style="fill:#ffffff" />
        <path
           class="b"
           d="m 287.55,240.68 c -3.67,-2.25 -7.79,-3.38 -12.35,-3.38 -3.73,0 -7.02,0.73 -9.86,2.18 -2.28,1.16 -4.17,2.7 -5.69,4.61 v -5.72 h -11.02 v 66.12 h 11.73 v -22.42 c 1.43,1.52 3.13,2.74 5.11,3.67 2.93,1.36 6.15,2.04 9.64,2.04 4.68,0 8.86,-1.11 12.53,-3.33 3.67,-2.22 6.58,-5.26 8.71,-9.11 2.13,-3.85 3.2,-8.12 3.2,-12.8 0,-4.68 -1.08,-9.01 -3.24,-12.8 -2.16,-3.79 -5.08,-6.81 -8.75,-9.06 z m -1.87,29.42 c -1.19,2.19 -2.8,3.91 -4.84,5.15 -2.04,1.24 -4.4,1.87 -7.07,1.87 -2.67,0 -4.84,-0.62 -6.89,-1.87 -2.04,-1.24 -3.64,-2.96 -4.8,-5.15 -1.16,-2.19 -1.73,-4.71 -1.73,-7.55 0,-2.84 0.58,-5.27 1.73,-7.47 1.16,-2.19 2.75,-3.91 4.8,-5.15 2.04,-1.24 4.34,-1.87 6.89,-1.87 2.55,0 5.02,0.62 7.07,1.87 2.04,1.24 3.66,2.96 4.84,5.15 1.18,2.19 1.78,4.68 1.78,7.47 0,2.79 -0.59,5.36 -1.78,7.55 z"
           id="path441527"
           style="fill:#ffffff" />
        <path
           class="b"
           d="m 345.14,244.32 c -2.01,-2.19 -4.46,-3.91 -7.33,-5.15 -2.87,-1.24 -6.21,-1.87 -10,-1.87 -4.56,0 -8.65,1.1 -12.26,3.29 -3.61,2.19 -6.49,5.17 -8.62,8.93 -2.13,3.76 -3.2,8.07 -3.2,12.93 0,4.86 1.04,8.95 3.11,12.8 2.07,3.85 4.99,6.9 8.75,9.15 3.76,2.25 8.13,3.38 13.11,3.38 3.26,0 6.28,-0.5 9.06,-1.51 2.78,-1.01 5.18,-2.4 7.2,-4.18 2.01,-1.78 3.5,-3.82 4.44,-6.13 l -9.42,-4.62 c -1.07,1.9 -2.53,3.41 -4.4,4.53 -1.87,1.13 -4.13,1.69 -6.8,1.69 -2.67,0 -5.02,-0.62 -7.07,-1.87 -2.04,-1.24 -3.59,-3.01 -4.62,-5.29 -0.62,-1.37 -1.01,-2.87 -1.18,-4.49 h 34.81 c 0.24,-0.71 0.4,-1.5 0.49,-2.35 0.09,-0.86 0.13,-1.73 0.13,-2.62 0,-3.26 -0.53,-6.29 -1.6,-9.11 -1.07,-2.81 -2.61,-5.32 -4.62,-7.51 z m -28.98,12.62 c 0.2,-1.02 0.48,-1.97 0.85,-2.84 0.98,-2.31 2.41,-4.09 4.31,-5.33 1.9,-1.24 4.06,-1.87 6.49,-1.87 2.43,0 4.72,0.62 6.53,1.87 1.81,1.24 3.11,2.93 3.91,5.07 0.37,0.97 0.58,2.01 0.65,3.11 h -22.74 z"
           id="path441529"
           style="fill:#ffffff" />
        <path
           class="b"
           d="m 391.96,239.61 c -2.76,-1.54 -5.91,-2.31 -9.46,-2.31 -3.55,0 -6.44,0.76 -9.02,2.27 -1.99,1.17 -3.54,2.75 -4.67,4.75 v -5.95 h -11.02 v 48.35 h 11.73 v -28.35 c 0,-2.13 0.41,-3.97 1.24,-5.51 0.83,-1.54 1.98,-2.72 3.47,-3.55 1.48,-0.83 3.17,-1.24 5.07,-1.24 1.9,0 3.58,0.42 5.07,1.24 1.48,0.83 2.64,2.01 3.47,3.55 0.83,1.54 1.24,3.38 1.24,5.51 v 28.35 h 11.64 v -31.1 c 0,-3.61 -0.77,-6.8 -2.31,-9.55 -1.54,-2.75 -3.69,-4.9 -6.44,-6.44 z"
           id="path441531"
           style="fill:#ffffff" />
      </g>
      <g
         id="g441563">
        <g
           id="g441539">
          <path
             class="b"
             d="m 293.11,147.7 c -0.68,-11.84 -6.05,-21.07 -12.59,-21.07 -6.99,0 -12.66,10.56 -12.66,23.59 0,1.95 0.14,3.83 0.38,5.65 h 19.54 c 0,-3.67 2.2,-6.83 5.33,-8.18 z"
             id="path441535"
             style="fill:#ffffff" />
          <path
             class="b"
             d="m 325.19,150.23 c 0,-13.03 -5.67,-23.59 -12.66,-23.59 -6.53,0 -11.91,9.22 -12.59,21.07 3.13,1.35 5.33,4.5 5.33,8.18 h 19.54 c 0.24,-1.81 0.38,-3.7 0.38,-5.65 z"
             id="path441537"
             style="fill:#ffffff" />
        </g>
        <path
           class="e"
           d="m 345.54,155.88 c 0,-10.25 -3.15,-19.76 -8.53,-27.62 l 3.84,-25.8 c 0.46,-3.07 -2.67,-5.42 -5.49,-4.13 l -23.81,10.89 c -4.73,-1.52 -9.78,-2.35 -15.02,-2.35 -5.24,0 -10.36,0.84 -15.12,2.39 l 0.04,-0.03 -23.82,-10.9 c -2.82,-1.29 -5.95,1.06 -5.49,4.13 l 3.85,25.88 c -5.34,7.85 -8.47,17.33 -8.47,27.54 h 20.72 c -0.24,-1.81 -0.38,-3.7 -0.38,-5.65 0,-13.03 5.67,-23.59 12.66,-23.59 6.53,0 11.91,9.23 12.59,21.07 1.05,-0.45 2.2,-0.7 3.42,-0.7 1.22,0 2.37,0.25 3.42,0.7 0.68,-11.84 6.05,-21.07 12.59,-21.07 6.99,0 12.66,10.56 12.66,23.59 0,1.95 -0.14,3.83 -0.38,5.65 z"
           id="path441541"
           style="fill:#aaaaaa" />
        <g
           id="g441547">
          <path
             d="m 312.53,131.39 c -0.4,0 -0.78,0.05 -1.16,0.13 0.7,0.52 1.16,1.35 1.16,2.28 0,1.58 -1.28,2.86 -2.87,2.86 -1.2,0 -2.23,-0.74 -2.65,-1.78 -0.93,1.54 -1.48,3.46 -1.48,5.56 0,5 3.14,9.06 7.01,9.06 3.87,0 7.01,-4.06 7.01,-9.06 0,-5 -3.14,-9.06 -7.01,-9.06 z"
             id="path441543" />
          <path
             d="m 286.11,134.99 c -0.45,0.99 -1.45,1.67 -2.6,1.67 -1.58,0 -2.87,-1.28 -2.87,-2.86 0,-0.93 0.45,-1.74 1.14,-2.27 -0.41,-0.09 -0.82,-0.15 -1.25,-0.15 -3.87,0 -7.01,4.06 -7.01,9.06 0,5 3.14,9.06 7.01,9.06 3.87,0 7.01,-4.06 7.01,-9.06 0,-2.05 -0.53,-3.94 -1.42,-5.45 z"
             id="path441545" />
        </g>
        <path
           class="b"
           d="m 275.51,224.31 8.78,-20.97 c 3.91,1.01 8.01,1.55 12.24,1.55 27.02,0 49.01,-21.98 49.01,-49.01 h -12.42 c 0,20.17 -16.41,36.58 -36.58,36.58 -20.17,0 -36.58,-16.41 -36.58,-36.58 h -12.42 c 0,18.4 10.2,34.46 25.24,42.84 l -8.71,20.79 11.46,4.8 z"
           id="path441549"
           style="fill:#ffffff" />
        <path
           class="c"
           d="m 332.12,122.21 2.48,-16.64 c 0.04,-0.28 -0.24,-0.49 -0.5,-0.38 l -15.33,7.01 c 5.01,2.56 9.52,5.95 13.35,10 z"
           id="path441551"
           style="fill:#ffe6dc" />
        <g
           id="g441559">
          <path
             d="m 288.01,119.69 c -0.77,0 -1.39,-0.62 -1.39,-1.39 v -10 c 0,-0.77 0.62,-1.39 1.39,-1.39 0.77,0 1.39,0.62 1.39,1.39 v 10 c 0,0.77 -0.62,1.39 -1.39,1.39 z"
             id="path441553" />
          <path
             d="m 305.01,119.69 c -0.77,0 -1.39,-0.62 -1.39,-1.39 v -10 c 0,-0.77 0.62,-1.39 1.39,-1.39 0.77,0 1.39,0.62 1.39,1.39 v 10 c 0,0.77 -0.62,1.39 -1.39,1.39 z"
             id="path441555" />
          <path
             d="m 296.51,124.73 c -0.77,0 -1.39,-0.62 -1.39,-1.39 v -15.77 c 0,-0.77 0.62,-1.39 1.39,-1.39 0.77,0 1.39,0.62 1.39,1.39 v 15.77 c 0,0.77 -0.62,1.39 -1.39,1.39 z"
             id="path441557" />
        </g>
        <path
           class="c"
           d="m 274.25,112.23 -15.37,-7.03 c -0.26,-0.12 -0.54,0.1 -0.5,0.38 l 2.49,16.7 c 3.84,-4.07 8.36,-7.48 13.38,-10.05 z"
           id="path441561"
           style="fill:#ffe6dc" />
      </g>
    </g>
  </g>
</svg>
