<?xml version="1.0" encoding="UTF-8" standalone="no"?>
<!-- Created with Inkscape (http://www.inkscape.org/) -->

<svg
   width="324"
   height="48"
   viewBox="0 0 324 48"
   version="1.1"
   id="svg1329"
   inkscape:version="1.2 (dc2aeda, 2022-05-15)"
   sodipodi:docname="opff-logo-horizontal-mono-white.svg"
   xmlns:inkscape="http://www.inkscape.org/namespaces/inkscape"
   xmlns:sodipodi="http://sodipodi.sourceforge.net/DTD/sodipodi-0.dtd"
   xmlns="http://www.w3.org/2000/svg"
   xmlns:svg="http://www.w3.org/2000/svg">
  <sodipodi:namedview
     id="namedview1331"
     pagecolor="#ffffff"
     bordercolor="#666666"
     borderopacity="1.0"
     inkscape:showpageshadow="2"
     inkscape:pageopacity="0.0"
     inkscape:pagecheckerboard="0"
     inkscape:deskcolor="#d1d1d1"
     inkscape:document-units="mm"
     showgrid="false"
     inkscape:zoom="3.2141976"
     inkscape:cx="116.66987"
     inkscape:cy="20.067217"
     inkscape:window-width="2481"
     inkscape:window-height="1282"
     inkscape:window-x="26"
     inkscape:window-y="23"
     inkscape:window-maximized="0"
     inkscape:current-layer="layer1" />
  <defs
     id="defs1326" />
  <g
     inkscape:label="Calque 1"
     inkscape:groupmode="layer"
     id="layer1">
    <g
       id="g438613"
       transform="matrix(0.33785884,0,0,0.33785884,-33.096652,-33.097708)">
      <g
         id="g438579">
        <path
           class="b"
           d="m 877,118.72 c -3.73,0 -6.96,0.68 -9.71,2.04 -2.75,1.36 -4.86,3.33 -6.34,5.9 -1.48,2.57 -2.22,5.72 -2.22,9.45 v 1.51 h -8.51 V 148 h 8.51 v 37.87 h 11.62 V 148 h 10.73 v -10.38 h -10.73 v -1.51 c 0,-2.48 0.71,-4.3 2.13,-5.45 1.42,-1.15 3.43,-1.73 6.03,-1.73 0.41,0 0.87,0.02 1.37,0.04 0.5,0.03 1.05,0.1 1.64,0.22 v -10.02 c -0.59,-0.12 -1.32,-0.22 -2.17,-0.31 -0.86,-0.09 -1.64,-0.13 -2.35,-0.13 z"
           id="path438569"
           style="fill:#ffffff" />
        <path
           class="b"
           d="m 915.48,138.72 c -3.02,-1.45 -6.51,-2.17 -10.47,-2.17 -3.25,0 -6.27,0.53 -9.05,1.6 -2.78,1.06 -5.19,2.53 -7.23,4.39 -2.04,1.86 -3.53,4.07 -4.48,6.61 l 9.49,4.61 c 0.89,-2.13 2.29,-3.87 4.21,-5.23 1.92,-1.36 4.12,-2.04 6.61,-2.04 2.66,0 4.79,0.7 6.39,2.08 1.6,1.39 2.39,3.12 2.39,5.19 v 1.56 l -14.28,2.34 c -3.79,0.59 -6.92,1.6 -9.4,3.02 -2.48,1.42 -4.33,3.18 -5.54,5.28 -1.21,2.1 -1.82,4.48 -1.82,7.14 0,2.66 0.68,5.22 2.04,7.32 1.36,2.1 3.3,3.71 5.81,4.83 2.51,1.12 5.45,1.69 8.83,1.69 2.66,0 5.07,-0.35 7.23,-1.06 2.16,-0.71 4.11,-1.77 5.85,-3.19 0.71,-0.58 1.37,-1.22 2,-1.89 v 5.09 h 11 v -32.11 c 0,-3.37 -0.84,-6.36 -2.53,-8.96 -1.69,-2.6 -4.04,-4.63 -7.05,-6.08 z m -3.64,33.48 c -1.01,1.83 -2.44,3.27 -4.3,4.3 -1.86,1.04 -4.01,1.55 -6.43,1.55 -1.89,0 -3.47,-0.49 -4.75,-1.46 -1.27,-0.98 -1.91,-2.29 -1.91,-3.95 0,-1.66 0.56,-3.09 1.69,-4.12 1.12,-1.03 2.84,-1.76 5.14,-2.17 l 12.06,-2.14 v 2.05 c 0,2.13 -0.5,4.11 -1.51,5.94 z"
           id="path438571"
           style="fill:#ffffff" />
        <path
           class="b"
           d="m 949.69,149.1 c 1.98,-1.21 4.24,-1.82 6.79,-1.82 2.72,0 5.13,0.72 7.23,2.17 2.1,1.45 3.59,3.41 4.48,5.9 l 10.2,-4.52 c -0.95,-2.84 -2.5,-5.32 -4.66,-7.45 -2.16,-2.13 -4.72,-3.8 -7.67,-5.01 -2.96,-1.21 -6.15,-1.82 -9.58,-1.82 -4.85,0 -9.18,1.09 -12.99,3.28 -3.81,2.19 -6.82,5.17 -9,8.96 -2.19,3.78 -3.28,8.07 -3.28,12.86 0,4.79 1.11,9.09 3.33,12.9 2.22,3.81 5.22,6.83 9,9.05 3.78,2.22 8.1,3.33 12.95,3.33 3.49,0 6.71,-0.61 9.67,-1.82 2.96,-1.21 5.5,-2.9 7.63,-5.06 2.13,-2.16 3.67,-4.6 4.61,-7.32 l -10.2,-4.61 c -0.95,2.48 -2.44,4.46 -4.48,5.94 -2.04,1.48 -4.45,2.22 -7.23,2.22 -2.54,0 -4.81,-0.62 -6.79,-1.86 -1.98,-1.24 -3.53,-2.96 -4.66,-5.14 -1.12,-2.19 -1.69,-4.7 -1.69,-7.54 0,-2.84 0.56,-5.28 1.69,-7.49 1.12,-2.22 2.67,-3.93 4.66,-5.14 z"
           id="path438573"
           style="fill:#ffffff" />
        <path
           class="b"
           d="m 1009.06,176.19 c -1.89,0 -3.45,-0.3 -4.66,-0.89 -1.21,-0.59 -2.1,-1.45 -2.66,-2.57 -0.56,-1.12 -0.84,-2.48 -0.84,-4.08 v -20.67 h 11.09 V 137.6 h -11.09 v -11 h -11.71 v 3.73 c 0,2.37 -0.64,4.17 -1.91,5.41 -1.27,1.24 -3.09,1.86 -5.45,1.86 h -0.89 v 10.38 h 8.25 v 21.29 c 0,5.44 1.51,9.65 4.52,12.64 3.02,2.99 7.24,4.48 12.68,4.48 0.89,0 1.86,-0.06 2.93,-0.18 1.06,-0.12 2.01,-0.24 2.84,-0.35 v -9.93 c -0.53,0.06 -1.08,0.12 -1.64,0.18 -0.56,0.06 -1.05,0.09 -1.46,0.09 z"
           id="path438575"
           style="fill:#ffffff" />
        <path
           class="b"
           d="m 1041.67,158.19 -7.72,-2.31 c -1.12,-0.35 -2.11,-0.74 -2.97,-1.15 -0.86,-0.41 -1.52,-0.94 -2,-1.6 -0.47,-0.65 -0.71,-1.39 -0.71,-2.22 0,-1.48 0.56,-2.65 1.69,-3.5 1.12,-0.86 2.66,-1.29 4.61,-1.29 2.42,0 4.61,0.64 6.56,1.91 1.95,1.27 3.34,3 4.17,5.19 l 8.87,-4.17 c -1.48,-3.96 -3.96,-7.04 -7.45,-9.22 -3.49,-2.19 -7.51,-3.28 -12.06,-3.28 -3.49,0 -6.58,0.62 -9.27,1.86 -2.69,1.24 -4.79,2.97 -6.3,5.19 -1.51,2.22 -2.26,4.8 -2.26,7.76 0,3.31 1.05,6.19 3.15,8.65 2.1,2.45 5.16,4.24 9.18,5.37 l 7.89,2.22 c 1.06,0.3 2.01,0.67 2.84,1.11 0.83,0.44 1.49,0.98 2,1.6 0.5,0.62 0.75,1.41 0.75,2.35 0,1.54 -0.62,2.78 -1.86,3.73 -1.24,0.95 -2.9,1.42 -4.97,1.42 -2.72,0 -5.19,-0.77 -7.41,-2.31 -2.22,-1.54 -3.95,-3.67 -5.19,-6.39 l -8.78,4.17 c 1.48,4.2 4.12,7.53 7.94,9.98 3.81,2.45 8.29,3.68 13.44,3.68 3.67,0 6.86,-0.62 9.58,-1.86 2.72,-1.24 4.85,-2.97 6.39,-5.19 1.54,-2.22 2.31,-4.77 2.31,-7.67 0,-3.43 -1.08,-6.33 -3.24,-8.69 -2.16,-2.36 -5.22,-4.14 -9.18,-5.32 z"
           id="path438577"
           style="fill:#ffffff" />
      </g>
      <g
         id="g438589">
        <path
           class="b"
           d="m 258.56,139.83 c -3.84,-2.19 -8.16,-3.28 -12.95,-3.28 -4.79,0 -9.02,1.09 -12.86,3.28 -3.84,2.19 -6.92,5.17 -9.22,8.96 -2.31,3.78 -3.46,8.1 -3.46,12.95 0,4.85 1.15,9.17 3.46,12.95 2.31,3.78 5.39,6.77 9.27,8.96 3.87,2.19 8.14,3.28 12.82,3.28 4.68,0 9.02,-1.09 12.86,-3.28 3.84,-2.19 6.92,-5.17 9.22,-8.96 2.31,-3.78 3.46,-8.1 3.46,-12.95 0,-4.85 -1.14,-9.24 -3.41,-12.99 -2.28,-3.75 -5.34,-6.73 -9.18,-8.91 z m -1.29,29.4 c -1.15,2.22 -2.72,3.95 -4.7,5.19 -1.98,1.24 -4.3,1.86 -6.96,1.86 -2.66,0 -4.91,-0.62 -6.92,-1.86 -2.01,-1.24 -3.59,-2.97 -4.75,-5.19 -1.15,-2.22 -1.73,-4.71 -1.73,-7.49 0,-2.78 0.58,-5.26 1.73,-7.45 1.15,-2.19 2.73,-3.9 4.75,-5.14 2.01,-1.24 4.32,-1.86 6.92,-1.86 2.6,0 4.98,0.62 6.96,1.86 1.98,1.24 3.55,2.96 4.7,5.14 1.15,2.19 1.73,4.67 1.73,7.45 0,2.78 -0.58,5.28 -1.73,7.49 z"
           id="path438581"
           style="fill:#ffffff" />
        <path
           class="b"
           d="m 316.26,139.92 c -3.67,-2.25 -7.78,-3.37 -12.33,-3.37 -3.72,0 -7.01,0.72 -9.84,2.17 -2.27,1.16 -4.16,2.7 -5.68,4.6 v -5.71 h -11 v 65.99 h 11.71 v -22.37 c 1.42,1.51 3.12,2.74 5.1,3.66 2.93,1.36 6.13,2.04 9.62,2.04 4.67,0 8.84,-1.11 12.51,-3.33 3.67,-2.22 6.56,-5.25 8.69,-9.09 2.13,-3.84 3.19,-8.1 3.19,-12.77 0,-4.67 -1.08,-8.99 -3.24,-12.77 -2.16,-3.78 -5.07,-6.8 -8.74,-9.05 z m -1.86,29.36 c -1.18,2.19 -2.79,3.9 -4.83,5.14 -2.04,1.24 -4.39,1.86 -7.05,1.86 -2.66,0 -4.83,-0.62 -6.87,-1.86 -2.04,-1.24 -3.64,-2.96 -4.79,-5.14 -1.15,-2.19 -1.73,-4.7 -1.73,-7.54 0,-2.84 0.58,-5.26 1.73,-7.45 1.15,-2.19 2.75,-3.9 4.79,-5.14 2.04,-1.24 4.33,-1.86 6.87,-1.86 2.54,0 5.01,0.62 7.05,1.86 2.04,1.24 3.65,2.96 4.83,5.14 1.18,2.19 1.77,4.67 1.77,7.45 0,2.78 -0.59,5.35 -1.77,7.54 z"
           id="path438583"
           style="fill:#ffffff" />
        <path
           class="b"
           d="m 373.73,143.55 c -2.01,-2.19 -4.45,-3.9 -7.32,-5.14 -2.87,-1.24 -6.19,-1.86 -9.98,-1.86 -4.55,0 -8.63,1.09 -12.24,3.28 -3.61,2.19 -6.47,5.16 -8.6,8.91 -2.13,3.76 -3.19,8.06 -3.19,12.9 0,4.84 1.03,8.93 3.1,12.77 2.07,3.84 4.98,6.89 8.74,9.14 3.75,2.25 8.12,3.37 13.08,3.37 3.25,0 6.27,-0.5 9.05,-1.51 2.78,-1 5.17,-2.39 7.18,-4.17 2.01,-1.77 3.49,-3.81 4.43,-6.12 l -9.4,-4.61 c -1.06,1.89 -2.53,3.4 -4.39,4.52 -1.86,1.12 -4.12,1.69 -6.79,1.69 -2.67,0 -5.01,-0.62 -7.05,-1.86 -2.04,-1.24 -3.58,-3 -4.61,-5.28 -0.62,-1.37 -1.01,-2.86 -1.17,-4.48 h 34.74 c 0.24,-0.71 0.4,-1.49 0.49,-2.35 0.09,-0.86 0.13,-1.73 0.13,-2.62 0,-3.25 -0.53,-6.28 -1.6,-9.09 -1.06,-2.81 -2.6,-5.31 -4.61,-7.49 z m -28.92,12.59 c 0.2,-1.02 0.48,-1.96 0.85,-2.84 0.98,-2.31 2.41,-4.08 4.3,-5.32 1.89,-1.24 4.05,-1.86 6.47,-1.86 2.42,0 4.71,0.62 6.52,1.86 1.8,1.24 3.1,2.93 3.9,5.06 0.36,0.97 0.58,2.01 0.65,3.1 h -22.7 z"
           id="path438585"
           style="fill:#ffffff" />
        <path
           class="b"
           d="m 420.46,138.85 c -2.75,-1.54 -5.9,-2.31 -9.45,-2.31 -3.55,0 -6.43,0.75 -9,2.26 -1.99,1.16 -3.53,2.75 -4.66,4.74 v -5.93 h -11 v 48.25 h 11.71 v -28.29 c 0,-2.13 0.41,-3.96 1.24,-5.5 0.83,-1.54 1.98,-2.72 3.46,-3.55 1.48,-0.83 3.16,-1.24 5.06,-1.24 1.9,0 3.58,0.41 5.06,1.24 1.48,0.83 2.63,2.01 3.46,3.55 0.83,1.54 1.24,3.37 1.24,5.5 v 28.29 h 11.62 v -31.04 c 0,-3.61 -0.77,-6.79 -2.31,-9.53 -1.54,-2.75 -3.68,-4.89 -6.43,-6.43 z"
           id="path438587"
           style="fill:#ffffff" />
      </g>
      <g
         id="g438601">
        <path
           class="b"
           d="m 486.32,157.72 c -0.76,-1.07 -1.76,-1.87 -2.99,-2.41 -1.23,-0.53 -2.66,-0.73 -4.28,-0.59 l -9.73,0.85 1.32,15.1 9.73,-0.85 c 1.62,-0.14 2.99,-0.58 4.12,-1.33 1.12,-0.74 1.97,-1.71 2.53,-2.89 0.56,-1.19 0.78,-2.52 0.65,-3.99 -0.13,-1.52 -0.58,-2.82 -1.34,-3.89 z"
           id="path438591"
           style="fill:#ffffff" />
        <path
           class="b"
           d="m 753.31,141 c -1.08,-2.11 -2.49,-3.9 -4.26,-5.38 -1.76,-1.48 -3.75,-2.55 -5.96,-3.23 -2.21,-0.67 -4.57,-0.9 -7.07,-0.68 -2.5,0.22 -4.79,0.85 -6.85,1.9 -2.06,1.05 -3.83,2.45 -5.31,4.21 -1.48,1.76 -2.57,3.78 -3.26,6.04 -0.69,2.26 -0.92,4.72 -0.69,7.37 0.23,2.65 0.89,5.05 1.96,7.18 1.08,2.13 2.5,3.93 4.26,5.38 1.76,1.45 3.75,2.53 5.96,3.23 2.21,0.7 4.57,0.94 7.08,0.72 2.5,-0.22 4.79,-0.86 6.85,-1.94 2.06,-1.07 3.83,-2.47 5.31,-4.21 1.48,-1.74 2.57,-3.75 3.26,-6.04 0.69,-2.29 0.92,-4.76 0.69,-7.41 -0.23,-2.65 -0.89,-5.03 -1.96,-7.14 z"
           id="path438593"
           style="fill:#ffffff" />
        <path
           class="b"
           d="m 689.66,146.57 c -1.07,-2.11 -2.49,-3.9 -4.26,-5.38 -1.76,-1.48 -3.75,-2.55 -5.96,-3.23 -2.21,-0.67 -4.57,-0.9 -7.07,-0.68 -2.51,0.22 -4.79,0.85 -6.85,1.9 -2.06,1.05 -3.83,2.45 -5.31,4.21 -1.48,1.76 -2.57,3.78 -3.26,6.04 -0.69,2.26 -0.92,4.72 -0.69,7.37 0.23,2.65 0.89,5.05 1.96,7.18 1.08,2.13 2.5,3.93 4.26,5.38 1.76,1.45 3.75,2.53 5.96,3.23 2.21,0.7 4.57,0.94 7.08,0.72 2.5,-0.22 4.79,-0.86 6.84,-1.94 2.06,-1.07 3.83,-2.48 5.31,-4.21 1.48,-1.74 2.57,-3.75 3.26,-6.04 0.69,-2.29 0.92,-4.76 0.69,-7.41 -0.23,-2.65 -0.89,-5.03 -1.96,-7.14 z"
           id="path438595"
           style="fill:#ffffff" />
        <path
           class="b"
           d="m 837.6,170.93 -5.2,-59.46 c -0.71,-8.14 -7.89,-14.16 -16.03,-13.45 l -362.33,31.7 c -8.14,0.71 -14.16,7.89 -13.45,16.03 l 5.2,59.46 c 0.71,8.14 7.89,14.16 16.03,13.45 l 362.33,-31.7 c 8.14,-0.71 14.16,-7.89 13.45,-16.03 z m -340.23,-0.6 c -1.47,2.75 -3.6,4.93 -6.41,6.54 -2.81,1.61 -6.08,2.57 -9.81,2.9 l -9.65,0.84 1.74,19.89 -11.42,1 -4.8,-54.89 21.07,-1.84 c 3.78,-0.33 7.19,0.04 10.23,1.11 3.04,1.07 5.51,2.84 7.41,5.29 1.9,2.46 3.01,5.6 3.35,9.43 0.33,3.73 -0.24,6.98 -1.71,9.73 z m 10.76,27.12 -4.8,-54.89 36.91,-3.23 0.87,9.95 -25.49,2.23 1.09,12.45 24.02,-2.1 0.87,9.95 -24.02,2.1 1.1,12.6 25.49,-2.23 0.87,9.95 -36.92,3.23 z m 66.55,-5.82 -11.42,1 -3.93,-44.95 -13.93,1.22 -0.87,-9.95 39.05,-3.42 0.87,9.95 -13.7,1.2 z m 40.61,-34.81 22.47,-1.97 0.87,9.95 -22.47,1.97 1.84,21.07 -11.42,1 -4.8,-54.89 37.58,-3.29 0.87,9.95 -26.16,2.29 1.22,13.93 z m 86.52,7.28 c -1.17,3.57 -2.96,6.76 -5.36,9.57 -2.4,2.81 -5.31,5.08 -8.72,6.81 -3.41,1.73 -7.18,2.78 -11.31,3.14 -4.12,0.36 -8.02,-0.02 -11.68,-1.13 -3.66,-1.12 -6.92,-2.85 -9.77,-5.2 -2.86,-2.35 -5.17,-5.18 -6.94,-8.49 -1.78,-3.31 -2.84,-6.98 -3.19,-11.01 -0.35,-4.03 0.04,-7.82 1.19,-11.39 1.15,-3.56 2.93,-6.74 5.33,-9.52 2.41,-2.78 5.31,-5.04 8.73,-6.78 3.41,-1.73 7.2,-2.78 11.38,-3.15 4.17,-0.37 8.09,0 11.75,1.12 3.66,1.12 6.92,2.84 9.77,5.16 2.85,2.33 5.15,5.14 6.9,8.45 1.75,3.31 2.8,6.98 3.15,11.01 0.35,4.03 -0.06,7.83 -1.23,11.39 z m 63.64,-5.57 c -1.17,3.57 -2.96,6.76 -5.36,9.57 -2.4,2.81 -5.31,5.08 -8.72,6.81 -3.41,1.73 -7.18,2.78 -11.31,3.14 -4.13,0.36 -8.02,-0.02 -11.68,-1.13 -3.66,-1.12 -6.92,-2.85 -9.77,-5.2 -2.85,-2.35 -5.17,-5.18 -6.94,-8.49 -1.77,-3.31 -2.84,-6.98 -3.19,-11.01 -0.35,-4.03 0.04,-7.82 1.19,-11.39 1.15,-3.56 2.92,-6.74 5.33,-9.52 2.4,-2.78 5.31,-5.04 8.72,-6.78 3.41,-1.73 7.21,-2.78 11.38,-3.15 4.18,-0.37 8.09,0 11.76,1.12 3.66,1.12 6.92,2.84 9.77,5.16 2.85,2.33 5.15,5.14 6.9,8.45 1.75,3.31 2.8,6.98 3.15,11.01 0.35,4.03 -0.06,7.83 -1.23,11.39 z m 53.7,-1.69 c -2.04,4.36 -5.15,7.91 -9.31,10.65 -4.17,2.74 -9.22,4.37 -15.17,4.89 l -17.9,1.57 -4.8,-54.89 17.9,-1.57 c 5.94,-0.52 11.21,0.21 15.78,2.18 4.58,1.97 8.25,4.92 11.02,8.84 2.77,3.92 4.38,8.53 4.85,13.83 0.46,5.3 -0.33,10.14 -2.37,14.5 z"
           id="path438597"
           style="fill:#ffffff" />
        <path
           class="b"
           d="m 807.12,134.25 c -1.68,-2.48 -3.88,-4.31 -6.61,-5.51 -2.73,-1.2 -5.89,-1.64 -9.47,-1.32 l -6.78,0.59 3.06,35 6.78,-0.59 c 3.58,-0.31 6.62,-1.31 9.09,-2.99 2.48,-1.68 4.32,-3.89 5.54,-6.65 1.22,-2.75 1.67,-5.9 1.36,-9.44 -0.31,-3.59 -1.31,-6.62 -2.99,-9.09 z"
           id="path438599"
           style="fill:#ffffff" />
      </g>
      <g
         id="g438611">
        <path
           class="b"
           d="m 160.11,142.15 c -1.2,0 -2.23,-0.74 -2.65,-1.78 -0.93,1.54 -1.48,3.46 -1.48,5.56 0,5 3.14,9.06 7.01,9.06 3.87,0 7.01,-4.06 7.01,-9.06 0,-5 -3.14,-9.06 -7.01,-9.06 -0.4,0 -0.78,0.05 -1.16,0.13 0.7,0.52 1.16,1.35 1.16,2.28 0,1.58 -1.28,2.86 -2.87,2.86 z"
           id="path438603"
           style="fill:#ffffff" />
        <path
           class="b"
           d="m 132.22,137.03 c -0.41,-0.09 -0.82,-0.15 -1.25,-0.15 -3.87,0 -7.01,4.06 -7.01,9.06 0,5 3.14,9.06 7.01,9.06 3.87,0 7.01,-4.06 7.01,-9.06 0,-2.05 -0.53,-3.94 -1.42,-5.45 -0.45,0.99 -1.45,1.67 -2.6,1.67 -1.58,0 -2.87,-1.28 -2.87,-2.86 0,-0.93 0.45,-1.74 1.14,-2.27 z"
           id="path438605"
           style="fill:#ffffff" />
        <path
           class="b"
           d="m 118.69,161.36 c -0.24,-1.81 -0.38,-3.7 -0.38,-5.65 0,-4.07 0.55,-7.9 1.53,-11.25 0.78,-2.67 1.83,-5.04 3.08,-6.96 0.31,-0.48 0.64,-0.93 0.98,-1.36 0.67,-0.85 1.39,-1.58 2.15,-2.18 1.51,-1.19 3.18,-1.85 4.93,-1.85 0.42,0 0.84,0.04 1.25,0.12 0.14,0.03 0.27,0.08 0.41,0.11 0.27,0.07 0.54,0.13 0.81,0.23 0.16,0.06 0.32,0.14 0.48,0.21 0.23,0.1 0.47,0.21 0.7,0.33 0.17,0.09 0.33,0.21 0.5,0.32 0.21,0.14 0.42,0.27 0.63,0.43 0.17,0.13 0.33,0.27 0.5,0.42 0.19,0.17 0.39,0.33 0.58,0.52 0.17,0.16 0.33,0.34 0.49,0.51 0.18,0.19 0.36,0.39 0.53,0.6 0.16,0.19 0.32,0.4 0.47,0.6 0.16,0.22 0.32,0.44 0.48,0.67 0.15,0.23 0.3,0.46 0.45,0.7 0.15,0.24 0.29,0.48 0.43,0.73 0.15,0.26 0.29,0.52 0.43,0.79 0.13,0.25 0.26,0.52 0.38,0.78 0.14,0.29 0.27,0.58 0.4,0.88 0.11,0.27 0.22,0.54 0.33,0.82 0.12,0.32 0.25,0.64 0.36,0.97 0.1,0.28 0.18,0.56 0.28,0.84 0.11,0.35 0.22,0.7 0.33,1.06 0.08,0.28 0.15,0.57 0.22,0.86 0.1,0.38 0.2,0.76 0.28,1.15 0.06,0.27 0.11,0.55 0.16,0.83 0.08,0.42 0.17,0.84 0.24,1.28 0.03,0.2 0.06,0.41 0.09,0.62 0.18,1.19 0.31,2.41 0.38,3.67 v 0.04 c -3.13,1.35 -5.33,4.5 -5.33,8.18 h 17.49 c 0,-3.67 -2.2,-6.83 -5.33,-8.18 v 0 c 0.07,-1.3 0.21,-2.57 0.4,-3.8 0.03,-0.18 0.05,-0.36 0.07,-0.54 0.07,-0.45 0.16,-0.88 0.25,-1.31 0.05,-0.26 0.1,-0.53 0.16,-0.79 0.09,-0.4 0.19,-0.78 0.29,-1.17 0.07,-0.28 0.14,-0.57 0.22,-0.84 0.1,-0.36 0.21,-0.71 0.33,-1.06 0.09,-0.28 0.18,-0.57 0.28,-0.85 0.12,-0.33 0.24,-0.64 0.36,-0.96 0.11,-0.28 0.22,-0.55 0.33,-0.82 0.13,-0.3 0.26,-0.59 0.4,-0.87 0.12,-0.27 0.25,-0.53 0.38,-0.78 0.14,-0.27 0.28,-0.53 0.43,-0.79 0.14,-0.25 0.28,-0.49 0.43,-0.73 0.15,-0.24 0.3,-0.47 0.45,-0.69 0.16,-0.23 0.32,-0.45 0.48,-0.67 0.15,-0.21 0.31,-0.41 0.47,-0.6 0.17,-0.21 0.35,-0.41 0.53,-0.6 0.16,-0.17 0.32,-0.35 0.49,-0.51 0.19,-0.19 0.38,-0.35 0.58,-0.52 0.16,-0.14 0.33,-0.29 0.5,-0.41 0.21,-0.16 0.42,-0.29 0.63,-0.43 0.17,-0.11 0.33,-0.22 0.5,-0.31 0.23,-0.13 0.46,-0.23 0.7,-0.33 0.16,-0.07 0.32,-0.15 0.48,-0.21 0.27,-0.1 0.54,-0.16 0.81,-0.23 0.14,-0.03 0.27,-0.08 0.41,-0.11 0.41,-0.08 0.83,-0.12 1.25,-0.12 0.42,0 0.87,0.04 1.29,0.12 6.38,1.21 11.37,11.26 11.37,23.47 0,1.95 -0.14,3.83 -0.38,5.65 h 20.72 c 0,-10.25 -3.15,-19.76 -8.53,-27.62 l 3.84,-25.8 c 0.46,-3.07 -2.67,-5.42 -5.49,-4.13 l -23.81,10.89 c -1.7,-0.55 -3.46,-0.97 -5.23,-1.33 0.04,0.13 0.08,0.27 0.08,0.42 v 10 c 0,0.77 -0.62,1.39 -1.39,1.39 -0.77,0 -1.39,-0.62 -1.39,-1.39 v -10 c 0,-0.33 0.13,-0.63 0.33,-0.86 -2.04,-0.31 -4.13,-0.48 -6.25,-0.53 0.11,0.2 0.19,0.42 0.19,0.66 v 15.77 c 0,0.77 -0.62,1.39 -1.39,1.39 -0.77,0 -1.39,-0.62 -1.39,-1.39 v -15.77 c 0,-0.24 0.08,-0.46 0.19,-0.66 -2.12,0.05 -4.2,0.22 -6.24,0.53 0.19,0.24 0.32,0.53 0.32,0.86 v 10 c 0,0.77 -0.62,1.39 -1.39,1.39 -0.77,0 -1.39,-0.62 -1.39,-1.39 v -10 c 0,-0.14 0.04,-0.28 0.08,-0.41 -1.8,0.37 -3.58,0.8 -5.3,1.36 l 0.04,-0.03 -23.82,-10.9 c -2.82,-1.29 -5.95,1.06 -5.49,4.13 l 3.85,25.88 c -5.34,7.85 -8.47,17.33 -8.47,27.54 h 20.72 z m 65.86,-50.68 c 0.26,-0.12 0.54,0.1 0.5,0.38 l -2.48,16.64 c -3.83,-4.05 -8.34,-7.44 -13.35,-10 l 15.33,-7.01 z m -75.22,0 15.37,7.03 c -5.03,2.57 -9.55,5.98 -13.38,10.05 l -2.49,-16.7 c -0.04,-0.28 0.24,-0.49 0.5,-0.38 z"
           id="path438607"
           style="fill:#ffffff" />
        <path
           class="b"
           d="m 146.98,197.95 c -20.17,0 -36.58,-16.41 -36.58,-36.59 H 97.98 c 0,18.4 10.2,34.46 25.24,42.84 l -8.71,20.79 11.46,4.8 8.78,-20.97 c 3.91,1.01 8.01,1.55 12.24,1.55 27.02,0 49.01,-21.98 49.01,-49.01 h -12.42 c 0,20.17 -16.41,36.59 -36.58,36.59 z"
           id="path438609"
           style="fill:#ffffff" />
      </g>
    </g>
  </g>
</svg>
