<?xml version="1.0" encoding="UTF-8" standalone="no"?>
<!-- Created with Inkscape (http://www.inkscape.org/) -->

<svg
   width="178"
   height="178"
   viewBox="0 0 178 178"
   version="1.1"
   id="svg3069"
   inkscape:version="1.2 (dc2aeda, 2022-05-15)"
   sodipodi:docname="opff-logo-icon-dark.svg"
   inkscape:export-filename="off-logo-icon-light.png"
   inkscape:export-xdpi="138.06741"
   inkscape:export-ydpi="138.06741"
   xmlns:inkscape="http://www.inkscape.org/namespaces/inkscape"
   xmlns:sodipodi="http://sodipodi.sourceforge.net/DTD/sodipodi-0.dtd"
   xmlns="http://www.w3.org/2000/svg"
   xmlns:svg="http://www.w3.org/2000/svg">
  <sodipodi:namedview
     id="namedview3071"
     pagecolor="#ffffff"
     bordercolor="#666666"
     borderopacity="1.0"
     inkscape:showpageshadow="2"
     inkscape:pageopacity="0.0"
     inkscape:pagecheckerboard="0"
     inkscape:deskcolor="#d1d1d1"
     inkscape:document-units="mm"
     showgrid="false"
     inkscape:zoom="0.80354938"
     inkscape:cx="131.29249"
     inkscape:cy="564.37104"
     inkscape:window-width="2560"
     inkscape:window-height="1376"
     inkscape:window-x="0"
     inkscape:window-y="0"
     inkscape:window-maximized="1"
     inkscape:current-layer="layer1" />
  <defs
     id="defs3066" />
  <g
     inkscape:label="Calque 1"
     inkscape:groupmode="layer"
     id="layer1">
    <g
       id="g442821"
       transform="translate(-33.46,-29.9)">
      <g
         id="g442797">
        <path
           class="b"
           d="m 118.19,112.14 c -0.85,-14.8 -7.57,-26.33 -15.73,-26.33 -8.74,0 -15.83,13.2 -15.83,29.49 0,2.44 0.18,4.79 0.48,7.06 h 24.42 c 0,-4.59 2.75,-8.53 6.66,-10.22 z"
           id="path442793"
           style="fill:#ffffff" />
        <path
           class="b"
           d="m 158.29,115.3 c 0,-16.29 -7.09,-29.49 -15.83,-29.49 -8.17,0 -14.89,11.53 -15.74,26.33 3.92,1.69 6.67,5.63 6.67,10.22 h 24.42 c 0.3,-2.27 0.48,-4.62 0.48,-7.06 z"
           id="path442795"
           style="fill:#ffffff" />
      </g>
      <path
         class="d"
         d="m 183.72,122.36 c 0,-12.81 -3.94,-24.7 -10.66,-34.53 l 4.8,-32.24 c 0.57,-3.83 -3.34,-6.77 -6.86,-5.16 l -29.76,13.62 c -5.92,-1.9 -12.22,-2.94 -18.78,-2.94 -6.56,0 -12.95,1.06 -18.9,2.99 l 0.05,-0.04 -29.77,-13.62 c -3.52,-1.61 -7.43,1.33 -6.86,5.16 l 4.82,32.35 c -6.68,9.81 -10.58,21.66 -10.58,34.42 h 25.9 c -0.3,-2.27 -0.48,-4.62 -0.48,-7.06 0,-16.29 7.09,-29.49 15.83,-29.49 8.17,0 14.89,11.53 15.73,26.33 1.31,-0.57 2.76,-0.88 4.27,-0.88 1.51,0 2.96,0.31 4.27,0.88 0.85,-14.8 7.57,-26.33 15.73,-26.33 8.74,0 15.83,13.2 15.83,29.49 0,2.44 -0.18,4.79 -0.48,7.06 h 25.9 z"
         id="path442799"
         style="fill:#aaaaaa" />
      <g
         id="g442805">
        <path
           d="m 142.46,91.75 c -0.5,0 -0.98,0.07 -1.45,0.17 0.88,0.65 1.45,1.68 1.45,2.86 0,1.97 -1.61,3.57 -3.59,3.57 -1.5,0 -2.78,-0.92 -3.32,-2.23 -1.16,1.92 -1.86,4.33 -1.86,6.95 0,6.25 3.92,11.32 8.76,11.32 4.84,0 8.76,-5.07 8.76,-11.32 0,-6.25 -3.92,-11.32 -8.76,-11.32 z"
           id="path442801" />
        <path
           d="m 109.44,96.26 c -0.57,1.23 -1.81,2.09 -3.25,2.09 -1.98,0 -3.59,-1.6 -3.59,-3.57 0,-1.16 0.56,-2.18 1.42,-2.83 -0.51,-0.12 -1.03,-0.19 -1.56,-0.19 -4.84,0 -8.76,5.07 -8.76,11.32 0,6.25 3.92,11.32 8.76,11.32 4.84,0 8.76,-5.07 8.76,-11.32 0,-2.56 -0.67,-4.92 -1.78,-6.82 z"
           id="path442803" />
      </g>
      <path
         class="b"
         d="m 96.19,207.9 10.98,-26.21 c 4.89,1.26 10.02,1.93 15.29,1.93 33.78,0 61.26,-27.48 61.26,-61.26 h -15.53 c 0,25.22 -20.51,45.73 -45.73,45.73 -25.22,0 -45.73,-20.51 -45.73,-45.73 H 61.2 c 0,23 12.75,43.08 31.55,53.55 l -10.88,25.98 14.32,6 z"
         id="path442807"
         style="fill:#ffffff" />
      <path
         class="c"
         d="m 166.95,80.28 3.1,-20.8 c 0.05,-0.35 -0.3,-0.62 -0.63,-0.47 l -19.16,8.77 c 6.26,3.2 11.9,7.44 16.69,12.5 z"
         id="path442809"
         style="fill:#ffe6dc" />
      <g
         id="g442817">
        <path
           d="m 111.81,77.13 c -0.96,0 -1.73,-0.78 -1.73,-1.73 V 62.9 c 0,-0.96 0.78,-1.73 1.73,-1.73 0.95,0 1.73,0.78 1.73,1.73 v 12.5 c 0,0.96 -0.78,1.73 -1.73,1.73 z"
           id="path442811" />
        <path
           d="m 133.07,77.13 c -0.96,0 -1.73,-0.78 -1.73,-1.73 V 62.9 c 0,-0.96 0.78,-1.73 1.73,-1.73 0.95,0 1.73,0.78 1.73,1.73 v 12.5 c 0,0.96 -0.78,1.73 -1.73,1.73 z"
           id="path442813" />
        <path
           d="m 122.44,83.42 c -0.96,0 -1.73,-0.78 -1.73,-1.73 V 61.98 c 0,-0.96 0.78,-1.73 1.73,-1.73 0.95,0 1.73,0.78 1.73,1.73 v 19.71 c 0,0.96 -0.78,1.73 -1.73,1.73 z"
           id="path442815" />
      </g>
      <path
         class="c"
         d="M 94.61,67.8 75.4,59.01 c -0.32,-0.15 -0.68,0.12 -0.63,0.47 l 3.11,20.88 C 82.67,75.27 88.33,71.01 94.61,67.8 Z"
         id="path442819"
         style="fill:#ffe6dc" />
    </g>
  </g>
</svg>
