<?xml version="1.0" standalone="no"?>
<!DOCTYPE svg PUBLIC "-//W3C//DTD SVG 20010904//EN"
 "http://www.w3.org/TR/2001/REC-SVG-20010904/DTD/svg10.dtd">
<svg version="1.0" xmlns="http://www.w3.org/2000/svg"
 width="700.000000pt" height="700.000000pt" viewBox="0 0 700.000000 700.000000"
 preserveAspectRatio="xMidYMid meet">
<metadata>
Created by potrace 1.11, written by Peter Selinger 2001-2013
</metadata>
<g transform="translate(0.000000,700.000000) scale(0.100000,-0.100000)"
fill="#000000" stroke="none">
<path d="M3235 6994 c-504 -49 -881 -154 -1295 -360 -992 -494 -1699 -1438
-1889 -2524 -41 -236 -46 -300 -46 -610 0 -310 5 -374 46 -610 130 -746 521
-1459 1079 -1968 499 -454 1112 -758 1760 -871 232 -40 302 -46 585 -46 284 0
381 7 610 46 610 102 1199 375 1670 772 95 81 310 294 394 392 418 484 695
1073 800 1700 38 223 46 327 46 585 0 319 -25 531 -95 827 -54 225 -169 544
-267 736 -30 60 -34 56 -57 -68 -9 -49 -19 -98 -22 -107 -5 -17 -53 -18 -782
-20 l-777 -3 -87 -445 c-48 -245 -87 -453 -87 -462 -1 -17 41 -18 744 -18
l745 0 -5 -22 c-6 -28 -65 -320 -65 -324 0 -2 -336 -5 -747 -6 l-747 -3 -108
-560 c-59 -308 -108 -561 -108 -562 0 -2 358 -3 795 -3 437 0 795 -1 795 -3 0
-8 -62 -324 -66 -339 -5 -17 -62 -18 -1010 -18 -815 0 -1004 2 -1004 13 0 16
598 3087 605 3105 3 9 203 12 951 12 l946 0 -27 48 c-58 99 -197 301 -282 407
-104 130 -322 356 -448 465 -533 458 -1159 734 -1875 825 -118 16 -580 28
-675 19z m-1661 -1773 c3 -5 84 -465 181 -1022 96 -558 178 -1027 182 -1043 8
-27 59 59 613 1022 l604 1052 323 0 c178 0 323 -3 323 -7 1 -21 -604 -3109
-609 -3116 -4 -4 -97 -6 -207 -5 l-200 3 263 1350 c144 743 261 1354 260 1359
-2 4 -276 -470 -611 -1053 l-608 -1061 -207 2 -206 3 -196 1057 c-107 582
-198 1060 -200 1062 -3 3 -124 -609 -269 -1359 l-264 -1365 -208 0 c-161 0
-206 3 -203 13 2 6 140 707 305 1556 165 849 303 1548 306 1553 7 11 621 10
628 -1z"/>
</g>
</svg>
