<?xml version="1.0" encoding="UTF-8" standalone="no"?>
<svg
   id="svg2032"
   width="240"
   height="162"
   version="1.1"
   viewBox="0 0 240 162"
   sodipodi:docname="nutriscore-new-formula-source.svg"
   xml:space="preserve"
   inkscape:version="1.2 (dc2aeda, 2022-05-15)"
   xmlns:inkscape="http://www.inkscape.org/namespaces/inkscape"
   xmlns:sodipodi="http://sodipodi.sourceforge.net/DTD/sodipodi-0.dtd"
   xmlns="http://www.w3.org/2000/svg"
   xmlns:svg="http://www.w3.org/2000/svg"><sodipodi:namedview
     id="namedview15955"
     pagecolor="#ffffff"
     bordercolor="#666666"
     borderopacity="1.0"
     inkscape:showpageshadow="2"
     inkscape:pageopacity="0.0"
     inkscape:pagecheckerboard="0"
     inkscape:deskcolor="#d1d1d1"
     showgrid="false"
     inkscape:zoom="3.1269231"
     inkscape:cx="124.88315"
     inkscape:cy="159.10209"
     inkscape:window-width="2560"
     inkscape:window-height="1376"
     inkscape:window-x="0"
     inkscape:window-y="0"
     inkscape:window-maximized="1"
     inkscape:current-layer="svg2032" /><defs
     id="defs2029"><clipPath
       id="clipPath1593"
       clipPathUnits="userSpaceOnUse"><path
         id="path1595"
         stroke-width="1"
         d="M-503.056-291.81h841.89v595.277h-841.89z" /></clipPath><clipPath
       id="clipPath1929"
       clipPathUnits="userSpaceOnUse"><path
         id="path1931"
         stroke-width="1"
         d="M-503.055-239.322h841.89v595.276h-841.89z" /></clipPath><clipPath
       id="clipPath1605"
       clipPathUnits="userSpaceOnUse"><path
         id="path1607"
         stroke-width="1"
         d="M-427.382-279.942h841.89v595.276h-841.89z" /></clipPath><clipPath
       id="clipPath1618"
       clipPathUnits="userSpaceOnUse"><path
         id="path1620"
         stroke-width="1"
         d="M-458.785-283.881h841.89v595.276h-841.89z" /></clipPath><clipPath
       id="clipPath1611"
       clipPathUnits="userSpaceOnUse"><path
         id="path1613"
         stroke-width="1"
         d="M-460.394-282.347h841.89v595.276h-841.89z" /></clipPath><clipPath
       id="clipPath1599"
       clipPathUnits="userSpaceOnUse"><path
         id="path1601"
         stroke-width="1"
         d="M-471.214-278.353h841.89v595.276h-841.89z" /></clipPath><clipPath
       id="clipPath1624"
       clipPathUnits="userSpaceOnUse"><path
         id="path1626"
         stroke-width="1"
         d="M-441.091-250.452h841.89v595.276h-841.89z" /></clipPath><clipPath
       id="clipPath1630"
       clipPathUnits="userSpaceOnUse"><path
         id="path1632"
         stroke-width="1"
         d="M-461.62-262.929h841.89v595.276h-841.89z" /></clipPath><clipPath
       id="clipPath1636"
       clipPathUnits="userSpaceOnUse"><path
         id="path1638"
         stroke-width="1"
         d="M-478.601-250.452h841.89v595.276h-841.89z" /></clipPath><clipPath
       id="clipPath1642"
       clipPathUnits="userSpaceOnUse"><path
         id="path1644"
         stroke-width="1"
         d="M-420.708-232.9h841.89v595.276h-841.89z" /></clipPath><clipPath
       id="clipPath1922"
       clipPathUnits="userSpaceOnUse"><path
         id="path1924"
         stroke-width="1"
         d="M-422.121-235.273h841.89v595.276h-841.89z" /></clipPath></defs><rect
     style="fill:#ffffff;fill-opacity:1;stroke:none;stroke-width:2.65346;stroke-linecap:round;stroke-linejoin:round;paint-order:stroke fill markers"
     id="rect18499"
     width="239.17799"
     height="30"
     x="0"
     y="98" /><path
     id="path126"
     fill="#ffffff"
     d="M 211.77,-0.003 H 27.413 C 12.299,-0.003 0,12.296 0,27.407 v 70.77 l 0.005,0.008 v 4.023 c 0,15.324 13.476,27.79 30.04,27.79 h 3.119 c 5.958,0 11.501,-1.633 16.175,-4.41 h 162.43 c 15.113,0 27.409,-12.296 27.409,-27.412 V 27.408 c 0,-15.112 -12.296,-27.41 -27.408,-27.41"
     clip-path="url(#clipPath1593)"
     style="fill-opacity:1;fill-rule:nonzero;stroke:none" /><path
     id="path130"
     fill="#e63312"
     d="M 211.768,115.826 H 185.516 V 44.318 h 26.252 a 17.647,17.647 0 0 1 17.647,17.647 v 36.211 a 17.647,17.647 0 0 1 -17.647,17.65"
     clip-path="url(#clipPath1929)"
     style="fill-opacity:1;fill-rule:nonzero;stroke:none" /><path
     id="path134"
     fill="#f28f66"
     d="m 217.582,64.192 h -20.236 v 31.874 h 20.428 V 91.265 H 203.5 v -9.38 h 9.999 v -4.803 h -10 v -8.084 h 14.084 z"
     style="fill-opacity:1;fill-rule:nonzero;stroke:none" /><path
     id="path138"
     fill="#7c7b7b"
     d="m 23.185,19.799 v 9.754 h -3.94 V 12.497 h 3.074 L 30.27,22.515 V 12.497 h 3.94 V 29.55 h -3.172 z"
     style="fill-opacity:1;fill-rule:nonzero;stroke:none" /><path
     id="path150"
     fill="#7c7b7b"
     d="m 44.775,26.187 c 0.674,0 1.24,-0.139 1.706,-0.419 0.464,-0.28 0.841,-0.653 1.13,-1.117 0.287,-0.465 0.492,-0.997 0.611,-1.597 0.122,-0.6 0.181,-1.214 0.181,-1.839 v -8.718 h 3.94 v 8.718 a 11.894,11.894 0 0 1 -0.444,3.315 7.67,7.67 0 0 1 -1.37,2.692 6.422,6.422 0 0 1 -2.355,1.814 c -0.951,0.437 -2.086,0.658 -3.399,0.658 -1.359,0 -2.52,-0.23 -3.482,-0.695 a 6.422,6.422 0 0 1 -2.341,-1.86 7.71,7.71 0 0 1 -1.322,-2.704 12.15,12.15 0 0 1 -0.422,-3.22 v -8.718 h 3.942 v 8.718 c 0,0.656 0.062,1.283 0.192,1.876 0.128,0.59 0.337,1.121 0.624,1.585 0.29,0.465 0.66,0.832 1.117,1.103 0.454,0.274 1.022,0.408 1.692,0.408"
     clip-path="url(#clipPath1605)"
     style="fill-opacity:1;fill-rule:nonzero;stroke:none" /><path
     id="path154"
     fill="#7c7b7b"
     d="M 68.364,15.957 H 63.178 V 29.55 H 59.236 V 15.957 h -5.212 v -3.46 h 14.34 z"
     style="fill-opacity:1;fill-rule:nonzero;stroke:none" /><path
     id="path166"
     fill="#7c7b7b"
     d="M 70.31,29.55 V 12.497 h 7.684 a 4.965,4.965 0 0 1 2.224,0.507 c 0.68,0.333 1.267,0.775 1.766,1.32 0.494,0.543 0.882,1.16 1.163,1.849 0.282,0.688 0.421,1.384 0.421,2.09 a 5.991,5.991 0 0 1 -0.746,2.906 5.208,5.208 0 0 1 -2.041,2.041 l 3.917,6.34 h -4.444 l -3.436,-5.499 h -2.569 v 5.5 z m 3.939,-8.935 h 3.601 c 0.466,0 0.865,-0.218 1.203,-0.66 0.335,-0.441 0.503,-1.004 0.503,-1.692 0,-0.706 -0.192,-1.265 -0.574,-1.684 -0.386,-0.415 -0.803,-0.622 -1.25,-0.622 h -3.483 z"
     style="fill-opacity:1;fill-rule:nonzero;stroke:none" /><path
     id="path168"
     fill="#7c7b7b"
     d="m 86.642,12.497 h 3.94 V 29.55 h -3.94 z"
     style="fill-opacity:1;fill-rule:nonzero;stroke:none" /><path
     id="path170"
     fill="#7c7b7b"
     d="m 93.512,21.215 h 7.399 v 3.46 h -7.4 z"
     style="fill-opacity:1;fill-rule:nonzero;stroke:none" /><path
     id="path182"
     fill="#7c7b7b"
     d="m 114.074,17.495 -0.53,-0.362 a 10.725,10.725 0 0 0 -2.497,-1.057 5.68,5.68 0 0 0 -1.536,-0.214 c -0.675,0 -1.19,0.119 -1.552,0.36 a 1.185,1.185 0 0 0 -0.538,1.057 l 0.24,0.721 0.685,0.514 a 6.201,6.201 0 0 0 1.103,0.422 c 0.441,0.128 0.949,0.273 1.527,0.432 0.817,0.225 1.551,0.468 2.209,0.733 a 6.108,6.108 0 0 1 1.682,0.984 c 0.463,0.393 0.82,0.87 1.068,1.43 0.247,0.56 0.373,1.234 0.373,2.017 0,0.96 -0.181,1.772 -0.541,2.436 a 4.55,4.55 0 0 1 -1.43,1.611 6.042,6.042 0 0 1 -2.052,0.89 10.26,10.26 0 0 1 -2.39,0.276 13.622,13.622 0 0 1 -3.82,-0.565 15.756,15.756 0 0 1 -1.825,-0.66 9.96,9.96 0 0 1 -1.635,-0.89 l 1.73,-3.435 0.649,0.456 c 0.35,0.228 0.783,0.45 1.297,0.673 0.512,0.225 1.088,0.426 1.728,0.6 a 7.311,7.311 0 0 0 1.946,0.265 c 1.395,0 2.09,-0.425 2.09,-1.273 l -0.311,-0.792 -0.865,-0.563 a 9.249,9.249 0 0 0 -1.298,-0.47 l -1.633,-0.48 a 14.18,14.18 0 0 1 -2.04,-0.782 5.612,5.612 0 0 1 -1.444,-0.971 3.497,3.497 0 0 1 -0.852,-1.273 4.705,4.705 0 0 1 -0.274,-1.682 c 0,-0.898 0.166,-1.688 0.504,-2.377 a 5.154,5.154 0 0 1 1.368,-1.743 5.917,5.917 0 0 1 2.006,-1.068 c 0.759,-0.24 1.562,-0.36 2.414,-0.36 0.609,0 1.2,0.055 1.776,0.166 0.579,0.114 1.126,0.258 1.647,0.432 a 14.163,14.163 0 0 1 2.725,1.274 z"
     clip-path="url(#clipPath1618)"
     style="fill-opacity:1;fill-rule:nonzero;stroke:none" /><path
     id="path186"
     fill="#7c7b7b"
     d="m 117.625,20.88 a 8.89,8.89 0 0 1 0.554,-3.063 8.39,8.39 0 0 1 1.609,-2.725 8.125,8.125 0 0 1 2.582,-1.947 c 1.017,-0.496 2.173,-0.743 3.469,-0.743 1.522,0 2.844,0.344 3.965,1.032 a 6.494,6.494 0 0 1 2.498,2.69 l -3.027,2.112 a 3.614,3.614 0 0 0 -0.671,-1.116 l -0.89,-0.72 -0.997,-0.384 -0.973,-0.108 a 3.509,3.509 0 0 0 -1.825,0.457 4.038,4.038 0 0 0 -1.274,1.176 5.248,5.248 0 0 0 -0.754,1.633 6.845,6.845 0 0 0 -0.254,1.85 c 0,0.673 0.1,1.321 0.3,1.946 0.199,0.624 0.481,1.176 0.84,1.657 0.36,0.479 0.797,0.86 1.31,1.141 0.511,0.28 1.08,0.42 1.705,0.42 l 0.998,-0.13 0.995,-0.411 0.867,-0.72 c 0.254,-0.295 0.464,-0.662 0.623,-1.092 l 3.241,1.895 a 5.113,5.113 0 0 1 -1.116,1.684 6.894,6.894 0 0 1 -1.669,1.247 8.569,8.569 0 0 1 -4.036,1.033 7.062,7.062 0 0 1 -3.255,-0.755 8.35,8.35 0 0 1 -2.546,-2.006 9.52,9.52 0 0 1 -1.666,-2.833 8.997,8.997 0 0 1 -0.603,-3.22"
     clip-path="url(#clipPath1611)"
     style="fill-opacity:1;fill-rule:nonzero;stroke:none" /><path
     id="path190"
     fill="#7c7b7b"
     d="m 141.502,29.694 c -1.218,0 -2.321,-0.247 -3.314,-0.744 a 8.275,8.275 0 0 1 -2.558,-1.957 8.836,8.836 0 0 1 -1.657,-2.776 9.017,9.017 0 0 1 0.022,-6.46 c 0.41,-1.039 0.977,-1.96 1.706,-2.751 a 8.314,8.314 0 0 1 2.595,-1.896 c 1,-0.472 2.092,-0.708 3.279,-0.708 1.214,0 2.321,0.247 3.312,0.743 a 8.24,8.24 0 0 1 2.56,1.97 8.91,8.91 0 0 1 1.644,2.786 9.104,9.104 0 0 1 0.576,3.171 8.791,8.791 0 0 1 -0.611,3.242 8.893,8.893 0 0 1 -1.693,2.752 8.289,8.289 0 0 1 -2.582,1.908 7.472,7.472 0 0 1 -3.279,0.72 m -4.109,-8.644 c 0,0.655 0.093,1.29 0.278,1.907 0.183,0.617 0.448,1.165 0.79,1.648 a 3.928,3.928 0 0 0 1.3,1.152 c 0.519,0.287 1.117,0.43 1.787,0.43 0.689,0 1.291,-0.152 1.803,-0.457 0.512,-0.302 0.94,-0.7 1.287,-1.187 a 5.284,5.284 0 0 0 0.768,-1.657 7.26,7.26 0 0 0 0.251,-1.885 c 0,-0.657 -0.094,-1.295 -0.278,-1.91 a 5.131,5.131 0 0 0 -0.803,-1.634 4.034,4.034 0 0 0 -1.297,-1.13 c -0.512,-0.28 -1.097,-0.419 -1.753,-0.419 a 3.53,3.53 0 0 0 -1.8,0.444 4.094,4.094 0 0 0 -1.287,1.165 5.34,5.34 0 0 0 -0.781,1.644 6.923,6.923 0 0 0 -0.265,1.889"
     clip-path="url(#clipPath1599)"
     style="fill-opacity:1;fill-rule:nonzero;stroke:none" /><path
     id="path194"
     fill="#7c7b7b"
     d="M 151.975,29.55 V 12.497 h 7.684 c 0.801,0 1.54,0.17 2.225,0.507 a 5.904,5.904 0 0 1 1.765,1.32 c 0.495,0.543 0.883,1.16 1.163,1.849 a 5.539,5.539 0 0 1 0.422,2.09 6.08,6.08 0 0 1 -0.192,1.525 6.029,6.029 0 0 1 -0.552,1.381 5.274,5.274 0 0 1 -2.043,2.041 l 3.914,6.34 h -4.442 l -3.438,-5.499 h -2.569 v 5.5 z m 3.937,-8.935 h 3.604 c 0.463,0 0.863,-0.218 1.2,-0.66 0.338,-0.441 0.504,-1.004 0.504,-1.692 0,-0.706 -0.192,-1.265 -0.574,-1.684 -0.386,-0.415 -0.803,-0.622 -1.25,-0.622 h -3.484 z"
     style="fill-opacity:1;fill-rule:nonzero;stroke:none" /><path
     id="path198"
     fill="#7c7b7b"
     d="M 180.293,26.092 V 29.55 H 168.308 V 12.497 h 11.768 v 3.46 h -7.83 v 3.314 h 6.727 v 3.193 h -6.726 v 3.628 z"
     style="fill-opacity:1;fill-rule:nonzero;stroke:none" /><path
     id="path200"
     fill="#87bd25"
     d="M 97.614,115.826 H 53.664 V 44.318 h 43.95 z"
     style="fill-opacity:1;fill-rule:nonzero;stroke:none" /><path
     id="path202"
     fill="#ffcc00"
     d="M 141.566,115.826 H 97.614 V 44.318 h 43.952 z"
     style="fill-opacity:1;fill-rule:nonzero;stroke:none" /><path
     id="path204"
     fill="#ef7d00"
     d="m 185.516,115.826 h -43.95 V 44.318 h 43.95 z"
     style="fill-opacity:1;fill-rule:nonzero;stroke:none" /><path
     id="path216"
     fill="#bdd684"
     d="m 75.028,91.265 v -9.008 h 3.028 c 5.622,0.044 7.452,1.708 7.452,4.343 0,3.277 -2.406,4.665 -7.068,4.665 z m 0,-13.444 v -8.823 h 1.827 c 4.855,0 6.823,1.433 6.823,4.297 0,2.633 -1.873,4.433 -5.814,4.48 z m 2.597,-13.627 h -8.752 v 31.873 h 9.856 c 9.277,0 13.075,-3.741 13.075,-9.467 0,-3.145 -1.73,-5.637 -5.336,-7.069 2.068,-1.617 3.509,-3.88 3.509,-6.79 0,-4.714 -3.317,-8.547 -12.352,-8.547"
     clip-path="url(#clipPath1624)"
     style="fill-opacity:1;fill-rule:nonzero;stroke:none" /><path
     id="path220"
     fill="#ffdf7d"
     d="m 120.33,63.73 c -8.555,0 -15.142,6.376 -15.142,16.353 0,10.027 6.06,16.447 15.237,16.447 5.915,0 10.145,-2.31 12.786,-6.7 l -4.614,-3.372 c -1.874,3.05 -4.469,4.76 -7.931,4.76 -5.866,0 -9.134,-4.067 -9.134,-11.181 0,-6.652 3.368,-10.992 8.558,-10.992 3.414,0 5.914,1.708 7.115,4.619 l 5.863,-2.172 c -1.922,-4.48 -5.43,-7.761 -12.737,-7.761"
     clip-path="url(#clipPath1630)"
     style="fill-opacity:1;fill-rule:nonzero;stroke:none" /><path
     id="path224"
     fill="#f8b472"
     d="M 157.804,91.265 V 69.09 h 3.462 c 7.642,0 11.345,4.065 11.345,11.04 0,6.376 -3.992,11.134 -12.113,11.134 z m 3.51,-27.07 h -9.663 v 31.872 h 8.99 c 11.392,0 18.314,-6.788 18.314,-15.936 0,-9.976 -6.441,-15.937 -17.64,-15.937"
     clip-path="url(#clipPath1636)"
     style="fill-opacity:1;fill-rule:nonzero;stroke:none" /><path
     id="path228"
     fill="#ffffff"
     d="M 30.048,129.998 C 13.48,129.998 0.005,117.532 0.005,102.21 V 57.936 c 0,-15.324 13.476,-27.79 30.043,-27.79 h 3.118 c 16.566,0 30.043,12.466 30.043,27.79 v 44.274 c 0,15.322 -13.477,27.788 -30.043,27.788 z"
     clip-path="url(#clipPath1642)"
     style="fill-opacity:1;fill-rule:nonzero;stroke:none" /><path
     id="path232"
     fill="#00803d"
     d="m 33.166,124.761 h -3.118 c -13.702,0 -24.809,-10.096 -24.809,-22.55 V 57.935 c 0,-12.455 11.107,-22.551 24.809,-22.551 h 3.118 c 13.7,0 24.806,10.096 24.806,22.55 v 44.275 c 0,12.455 -11.107,22.551 -24.806,22.551"
     clip-path="url(#clipPath1922)"
     style="fill-opacity:1;fill-rule:nonzero;stroke:none" /><path
     id="path236"
     fill="#ffffff"
     d="M 11.873,99.613 27.62,57.119 h 8.684 l 15.63,42.494 H 40.82 L 38.68,92.776 H 24.32 l -2.256,6.837 z M 27.214,84.095 H 35.9 L 31.672,70.667 Z"
     style="fill-opacity:1;fill-rule:nonzero;stroke:none" /><path
     id="path16330"
     style="fill:#093c6b;fill-opacity:1;fill-rule:nonzero;stroke:none"
     d="M 0 33.997 L 0 27.407156 C 2.3684734e-15 12.296171 12.298124 -0.003 27.412109 -0.003 L 211.76953 -0.003 L 211.76953 -0.001046875 C 226.88152 -0.001046875 239.17773 12.295171 239.17773 27.407156 L 239.17773 33.997 L 0 33.997 z "
     transform="matrix(1,0,0,-1,0,161.997)"
     clip-path="url(#clipPath1593)" /><text
     xml:space="preserve"
     style="font-size:21.2243px;line-height:1.25;font-family:'Open Sans';-inkscape-font-specification:'Open Sans';stroke-width:0.530607"
     x="39.753796"
     y="152.5134"
     id="text18503"><tspan
       sodipodi:role="line"
       id="tspan18501"
       x="39.753796"
       y="152.5134"
       style="font-style:normal;font-variant:normal;font-weight:800;font-stretch:normal;font-family:Raleway;-inkscape-font-specification:'Raleway Ultra-Bold';fill:#ffffff;stroke-width:0.530607">NEW FORMULA</tspan></text></svg>
