<?xml version="1.0" encoding="UTF-8" standalone="no"?>
<svg xmlns:dc="http://purl.org/dc/elements/1.1/" xmlns:cc="http://creativecommons.org/ns#" xmlns:rdf="http://www.w3.org/1999/02/22-rdf-syntax-ns#" xmlns:svg="http://www.w3.org/2000/svg" xmlns="http://www.w3.org/2000/svg" xmlns:xlink="http://www.w3.org/1999/xlink" height="73" width="51" xml:space="preserve" enable-background="new 0 0 100 100" viewBox="0 0 51 73" y="0px" x="0px" id="Layer_1" version="1.1"><metadata id="metadata165"><rdf:RDF><cc:Work rdf:about=""><dc:format>image/svg+xml</dc:format><dc:type rdf:resource="http://purl.org/dc/dcmitype/StillImage"/><dc:title/></cc:Work></rdf:RDF></metadata><defs id="defs163"/><g transform="translate(-5.2,-12.4)" id="g158"><defs id="defs93"><rect height="93.5" width="131.5" y="2" x="-15.4" id="SVGID_3_"/></defs><clipPath id="SVGID_1_"><use height="100%" width="100%" y="0" x="0" style="overflow:visible" id="use95" overflow="visible" xlink:href="#SVGID_3_"/></clipPath><path style="clip-rule:evenodd;fill:#00478c;fill-rule:evenodd" id="path98" d="m 23.7,16.4 v -2.3 l -4.4,-1.7 v 54.2 c -8,0.7 -14.1,4.7 -14.1,9.4 0,5.2 7.3,9.4 16.2,9.4 9,0 16.2,-4.2 16.2,-9.4 0,-4.7 -6.1,-8.7 -14.1,-9.4 V 37.3 H 56.2 V 16.4 Z M 33.2,76 c 0,3.3 -5.2,5.9 -11.7,5.9 C 15,81.9 9.8,79.3 9.8,76 9.8,72.7 15,70.1 21.5,70.1 28,70 33.2,72.7 33.2,76" clip-path="url(#SVGID_1_)"/><path style="fill:#00478c" id="path100" d="m 13.9,59.3 c 0,-0.8 -0.6,-1.1 -1.3,-1.1 h -1.4 v 3.6 H 12 v -1.4 h 0.4 l 0.7,1.4 H 14 l -0.9,-1.5 c 0.5,-0.1 0.8,-0.5 0.8,-1 m -1.5,0.4 H 12 v -0.8 h 0.5 c 0.3,0 0.6,0.1 0.6,0.4 0,0.4 -0.4,0.4 -0.7,0.4" clip-path="url(#SVGID_1_)"/><path style="fill:#00478c" id="path102" d="M 12.5,56.5 C 10.6,56.5 9,58.1 9,60 c 0,1.9 1.6,3.5 3.5,3.5 1.9,0 3.5,-1.6 3.5,-3.5 0,-1.9 -1.6,-3.5 -3.5,-3.5 m 0,6.3 C 11,62.8 9.7,61.5 9.7,60 c 0,-1.5 1.3,-2.8 2.8,-2.8 1.5,0 2.8,1.3 2.8,2.8 0,1.6 -1.2,2.8 -2.8,2.8" clip-path="url(#SVGID_1_)"/><path style="clip-rule:evenodd;fill:#ffffff;fill-rule:evenodd" id="path104" d="m 23.7,24.2 h 8.9 v -7.1 h -8.9 z m 14.2,0 H 55.7 V 17.1 H 37.9 Z M 23.7,36.6 h 8.9 v -7.1 h -8.9 z m 14.2,0 H 55.7 V 29.5 H 37.9 Z" clip-path="url(#SVGID_1_)"/></g></svg>
