<?xml version="1.0" encoding="UTF-8" standalone="no"?>
<svg
   xmlns:dc="http://purl.org/dc/elements/1.1/"
   xmlns:cc="http://creativecommons.org/ns#"
   xmlns:rdf="http://www.w3.org/1999/02/22-rdf-syntax-ns#"
   xmlns:svg="http://www.w3.org/2000/svg"
   xmlns="http://www.w3.org/2000/svg"
   version="1.1"
   id="svg2"
   viewBox="0 0 90.000001 90.000002"
   height="90"
   width="90">
  <defs
     id="defs4">
    <clipPath
       id="clipPath154"
       clipPathUnits="userSpaceOnUse">
      <path
         id="path156"
         d="m 227.832,458.981 h 38.503 v 38.5 h -38.503 z" />
    </clipPath>
  </defs>
  <metadata
     id="metadata7">
    <rdf:RDF>
      <cc:Work
         rdf:about="">
        <dc:format>image/svg+xml</dc:format>
        <dc:type
           rdf:resource="http://purl.org/dc/dcmitype/StillImage" />
        <dc:title></dc:title>
      </cc:Work>
    </rdf:RDF>
  </metadata>
  <g
     transform="translate(0,-962.3622)"
     id="layer1">
    <g
       transform="matrix(2.3374923,0,0,-2.3376623,-532.55605,2125.3048)"
       id="g150">
      <g
         clip-path="url(#clipPath154)"
         id="g152">
        <g
           transform="translate(228.0042,478.2305)"
           id="g158">
          <path
             id="path160"
             style="fill:#ffffff;fill-opacity:1;fill-rule:nonzero;stroke:none"
             d="M 0,0 C 0,10.537 8.543,19.079 19.08,19.079 29.616,19.079 38.159,10.537 38.159,0 38.159,-10.537 29.616,-19.079 19.08,-19.079 8.543,-19.079 0,-10.537 0,0" />
        </g>
        <g
           transform="translate(228.0042,478.2305)"
           id="g162">
          <path
             id="path164"
             style="fill:#1478c6;fill-opacity:1;fill-rule:nonzero;stroke:none"
             d="m 0,0 h 0.173 c 0,5.221 2.115,9.948 5.536,13.369 3.423,3.422 8.149,5.538 13.371,5.538 5.221,0 9.946,-2.116 13.369,-5.538 C 35.871,9.948 37.986,5.221 37.987,0 c -0.001,-5.222 -2.116,-9.948 -5.538,-13.369 -3.423,-3.422 -8.148,-5.537 -13.369,-5.537 -5.222,0 -9.948,2.115 -13.371,5.537 C 2.288,-9.948 0.173,-5.222 0.173,0 H 0 -0.172 c 0,-10.633 8.62,-19.25 19.252,-19.25 10.633,0 19.251,8.617 19.251,19.25 0,10.632 -8.618,19.251 -19.251,19.251 C 8.448,19.251 -0.172,10.632 -0.172,0 Z" />
        </g>
        <g
           transform="translate(243.4034,492.3534)"
           id="g166">
          <path
             id="path168"
             style="fill:#1478c6;fill-opacity:1;fill-rule:nonzero;stroke:none"
             d="M 0,0 C 0.038,-0.093 0.039,-0.127 0.144,-0.133 0.386,-0.146 0.608,-0.206 0.854,-0.165 1.38,-0.072 1.69,0.349 1.599,0.877 1.511,1.388 1.214,1.515 0.751,1.63 0.171,1.774 -0.059,1.788 -0.107,2.058 -0.153,2.328 0.002,2.512 0.268,2.557 0.96,2.677 1.15,1.94 1.242,1.955 1.332,1.972 1.335,2.02 1.312,2.108 L 1.173,2.64 C 1.15,2.731 1.153,2.793 1.092,2.782 1.039,2.774 0.95,2.693 0.897,2.683 0.777,2.663 0.581,2.79 0.249,2.733 -0.221,2.651 -0.484,2.257 -0.404,1.796 -0.332,1.372 -0.067,1.256 0.305,1.162 1.003,0.988 1.266,0.981 1.325,0.639 1.38,0.316 1.173,0.082 0.858,0.028 0.411,-0.05 0.1,0.272 -0.097,0.638 -0.122,0.688 -0.137,0.722 -0.202,0.712 -0.301,0.693 -0.241,0.583 -0.219,0.529 Z" />
        </g>
        <g
           transform="translate(249.1535,493.8139)"
           id="g170">
          <path
             id="path172"
             style="fill:#1478c6;fill-opacity:1;fill-rule:nonzero;stroke:none"
             d="M 0,0 C -0.175,-0.82 0.248,-1.481 1.05,-1.657 2.324,-1.935 2.778,-1 2.901,-0.437 3.083,0.419 2.598,1.069 1.818,1.231 0.861,1.432 0.189,0.882 0,0 M 0.54,0.122 C 0.667,0.706 0.983,1.22 1.662,1.084 2.179,0.98 2.566,0.404 2.375,-0.484 2.233,-1.156 1.892,-1.647 1.204,-1.508 0.485,-1.364 0.414,-0.466 0.54,0.122" />
        </g>
        <g
           transform="translate(257.8228,488.0784)"
           id="g174">
          <path
             id="path176"
             style="fill:#1478c6;fill-opacity:1;fill-rule:nonzero;stroke:none"
             d="M 0,0 C -0.061,-0.079 -0.087,-0.097 -0.04,-0.191 0.075,-0.404 0.137,-0.626 0.299,-0.815 0.649,-1.221 1.17,-1.268 1.576,-0.917 1.967,-0.578 1.925,-0.26 1.784,0.198 1.609,0.768 1.502,0.973 1.709,1.152 1.917,1.332 2.154,1.294 2.332,1.089 2.79,0.556 2.255,0.015 2.316,-0.056 2.375,-0.124 2.419,-0.102 2.482,-0.037 l 0.386,0.392 c 0.064,0.067 0.12,0.097 0.079,0.144 L 2.762,0.614 C 2.682,0.706 2.691,0.94 2.471,1.195 2.159,1.556 1.686,1.58 1.33,1.274 1.004,0.992 1.042,0.706 1.154,0.338 1.365,-0.35 1.492,-0.578 1.23,-0.806 0.983,-1.019 0.674,-0.962 0.465,-0.721 0.168,-0.377 0.285,0.058 0.498,0.413 0.528,0.461 0.548,0.49 0.507,0.54 0.44,0.617 0.376,0.508 0.341,0.462 Z" />
        </g>
        <g
           transform="translate(232.8049,475.7186)"
           id="g178">
          <path
             id="path180"
             style="fill:#1478c6;fill-opacity:1;fill-rule:nonzero;stroke:none"
             d="M 0,0 C 0.065,0.007 0.154,0.017 0.148,0.077 0.142,0.143 0.025,0.139 0.016,0.229 0.004,0.338 0.232,0.71 0.171,1.278 0.058,2.303 -0.888,2.627 -1.574,2.55 -1.894,2.517 -2.919,2.219 -2.789,1.025 -2.74,0.579 -2.504,0.147 -2.25,-0.216 c 0.025,-0.035 0.046,-0.036 0.112,-0.03 0.056,0.007 0.17,0.032 0.337,0.051 0.521,0.057 0.331,-0.25 0.506,-0.231 l 0.054,0.051 c -0.016,0.148 -0.048,0.288 -0.066,0.439 -0.019,0.191 -0.024,0.382 -0.046,0.573 -0.006,0.07 0.012,0.203 -0.105,0.19 C -1.614,0.811 -1.284,0.355 -1.921,0.285 -2.158,0.261 -2.5,0.234 -2.58,0.968 c -0.072,0.661 0.639,1.028 1.197,1.089 1.031,0.111 1.338,-0.4 1.38,-0.778 0.117,-1.074 -0.772,-1.17 -0.764,-1.259 0.01,-0.077 0.033,-0.1 0.086,-0.094 z" />
        </g>
        <g
           transform="translate(231.6603,474.7444)"
           id="g182">
          <path
             id="path184"
             style="fill:#1478c6;fill-opacity:1;fill-rule:nonzero;stroke:none"
             d="m 0,0 c -0.791,-0.244 -1.156,-0.934 -0.913,-1.718 0.386,-1.245 1.415,-1.187 1.961,-1.019 0.828,0.256 1.15,0.994 0.907,1.753 C 1.658,-0.055 0.855,0.265 0,0 m 0.371,-0.41 c 0.566,0.174 1.165,0.146 1.38,-0.51 0.164,-0.5 -0.141,-1.116 -1.004,-1.384 -0.647,-0.2 -1.237,-0.144 -1.457,0.523 -0.228,0.695 0.511,1.194 1.081,1.371" />
        </g>
        <g
           transform="translate(253.9782,465.1511)"
           id="g186">
          <path
             id="path188"
             style="fill:#1478c6;fill-opacity:1;fill-rule:nonzero;stroke:none"
             d="M 0,0 C -0.182,0.344 0.16,0.357 0.094,0.479 0.071,0.523 0.051,0.521 -0.059,0.463 -0.265,0.357 -0.388,0.272 -0.517,0.204 -0.644,0.137 -0.793,0.076 -0.932,0.003 -0.966,-0.014 -1.06,-0.051 -1.028,-0.113 c 0.064,-0.127 0.42,0.19 0.594,-0.139 L 0.479,-1.986 C 0.66,-2.329 0.351,-2.372 0.418,-2.499 l 0.061,-0.022 c 0.095,0.049 0.242,0.145 0.397,0.228 0.284,0.148 0.425,0.204 0.557,0.275 0.085,0.045 0.109,0.075 0.088,0.113 -0.06,0.118 -0.378,-0.262 -0.613,0.181 z" />
        </g>
        <g
           transform="translate(263.6286,475.5572)"
           id="g190">
          <path
             id="path192"
             style="fill:#1478c6;fill-opacity:1;fill-rule:nonzero;stroke:none"
             d="M 0,0 C 0.363,-0.049 0.166,-0.353 0.321,-0.374 0.392,-0.383 0.389,-0.289 0.399,-0.218 0.415,-0.093 0.415,0.03 0.434,0.156 0.453,0.307 0.499,0.527 0.565,1.002 0.623,1.435 0.402,2.542 -0.77,2.703 -2.038,2.874 -2.263,1.702 -2.337,1.16 -2.366,0.949 -2.379,0.74 -2.406,0.529 -2.46,0.128 -2.487,0.049 -2.498,-0.027 l 0.054,-0.083 c 0.15,-0.019 0.075,0.432 0.49,0.375 z m -1.847,0.759 c -0.279,0.037 -0.378,0.077 -0.335,0.38 0.136,1.013 1.086,1.087 1.474,1.034 C 0.13,2.06 0.482,1.554 0.397,0.921 0.375,0.763 0.306,0.466 0.039,0.504 Z" />
        </g>
        <g
           transform="translate(234.2453,478.1674)"
           id="g194">
          <path
             id="path196"
             style="fill:#1478c6;fill-opacity:1;fill-rule:nonzero;stroke:none"
             d="m 0,0 c 0,7.103 5.759,12.861 12.861,12.861 7.103,0 12.861,-5.758 12.861,-12.861 0,-7.102 -5.758,-12.86 -12.861,-12.86 C 5.759,-12.86 0,-7.102 0,0" />
        </g>
        <g
           transform="translate(262.5103,479.9895)"
           id="g198">
          <path
             id="path200"
             style="fill:#1478c6;fill-opacity:1;fill-rule:nonzero;stroke:none"
             d="M 0,0 C 0,0.25 0.202,0.454 0.454,0.454 0.704,0.454 0.908,0.25 0.908,0 0.908,-0.251 0.704,-0.454 0.454,-0.454 0.202,-0.454 0,-0.251 0,0" />
        </g>
        <g
           transform="translate(230.763,480.004)"
           id="g202">
          <path
             id="path204"
             style="fill:#1478c6;fill-opacity:1;fill-rule:nonzero;stroke:none"
             d="M 0,0 C 0,0.251 0.205,0.454 0.454,0.454 0.705,0.454 0.909,0.251 0.909,0 0.909,-0.251 0.705,-0.455 0.454,-0.455 0.205,-0.455 0,-0.251 0,0" />
        </g>
        <g
           transform="translate(253.2958,493.1243)"
           id="g206">
          <path
             id="path208"
             style="fill:#1478c6;fill-opacity:1;fill-rule:nonzero;stroke:none"
             d="M 0,0 0.071,0.078 0.08,-0.004 0.014,-1.933 C 0.012,-1.982 0,-2.054 0.056,-2.081 0.114,-2.11 0.155,-2.062 0.202,-2.025 l 1.404,1.107 c 0.115,0.095 0.195,0.146 0.21,0.138 C 1.837,-0.79 1.815,-0.846 1.764,-0.959 L 1.273,-2.096 C 1.094,-2.515 0.868,-2.253 0.807,-2.378 0.775,-2.443 0.871,-2.477 0.949,-2.515 1.032,-2.557 1.107,-2.61 1.347,-2.728 1.451,-2.78 1.491,-2.865 1.599,-2.918 1.727,-2.981 1.73,-3.046 1.805,-2.973 1.915,-2.87 1.53,-2.757 1.748,-2.268 l 0.737,1.654 c 0.192,0.429 0.519,0.111 0.584,0.242 0.013,0.03 0.013,0.047 -0.086,0.097 -0.101,0.05 -0.202,0.104 -0.269,0.136 C 2.659,-0.111 2.618,-0.063 2.53,-0.018 2.46,0.014 2.425,-0.026 2.402,-0.047 L 0.645,-1.437 0.549,-1.486 0.529,-1.404 0.594,0.801 C 0.598,0.936 0.56,0.951 0.519,0.971 0.397,1.03 0.324,1.021 0.24,1.063 0.123,1.12 0,1.174 -0.046,1.199 L -0.115,1.169 C -0.196,1.008 0.281,0.986 -0.038,0.392 l -0.777,-1.448 c -0.205,-0.378 -0.459,-0.198 -0.524,-0.33 -0.01,-0.023 -0.01,-0.059 0.045,-0.087 0.055,-0.027 0.24,-0.06 0.419,-0.148 0.17,-0.082 0.188,-0.091 0.32,-0.155 0.104,-0.05 0.109,0 0.118,0.016 0.072,0.15 -0.435,0.135 -0.104,0.751 z" />
        </g>
        <g
           transform="translate(261.711,483.5401)"
           id="g210">
          <path
             id="path212"
             style="fill:#1478c6;fill-opacity:1;fill-rule:nonzero;stroke:none"
             d="M 0,0 C -0.023,0.071 -0.043,0.124 -0.005,0.136 0.048,0.153 0.098,0.143 0.152,0.14 L 0.937,0.06 C 0.985,0.056 0.996,0.041 0.997,0.032 l -0.021,-0.04 -0.6,-0.544 C 0.334,-0.587 0.298,-0.623 0.244,-0.643 0.206,-0.654 0.193,-0.597 0.17,-0.529 Z m -0.001,-0.717 c 0.03,-0.101 0,-0.133 -0.263,-0.358 -0.092,-0.076 -0.152,-0.127 -0.239,-0.154 -0.238,-0.076 -0.284,0.214 -0.394,0.177 -0.056,-0.017 -0.031,-0.065 -0.008,-0.135 0.035,-0.112 0.096,-0.252 0.151,-0.423 0.084,-0.257 0.058,-0.412 0.102,-0.551 0.034,-0.106 0.015,-0.127 0.102,-0.122 0.111,0.005 -0.033,0.259 0.201,0.473 l 2.034,1.802 C 1.784,0.08 1.79,0.09 1.778,0.126 1.762,0.177 1.682,0.172 1.611,0.179 l -2.745,0.297 c -0.25,0.028 -0.288,0.167 -0.377,0.138 -0.051,-0.016 -0.024,-0.076 -0.006,-0.132 0.035,-0.111 0.142,-0.218 0.18,-0.335 0.04,-0.126 0.06,-0.178 0.101,-0.303 0.024,-0.081 0.036,-0.212 0.118,-0.185 0.105,0.034 -0.092,0.433 0.188,0.524 0.093,0.029 0.247,0.018 0.334,0.016 0.285,-0.007 0.326,-0.084 0.35,-0.15 z" />
        </g>
        <g
           transform="translate(238.5499,493.5484)"
           id="g214">
          <path
             id="path216"
             style="fill:#1478c6;fill-opacity:1;fill-rule:nonzero;stroke:none"
             d="M 0,0 C 0.017,0.107 0.119,0.18 0.225,0.164 0.332,0.146 0.405,0.044 0.389,-0.064 0.37,-0.17 0.271,-0.242 0.162,-0.225 0.055,-0.209 -0.017,-0.106 0,0" />
        </g>
        <g
           transform="translate(239.2039,493.8973)"
           id="g218">
          <path
             id="path220"
             style="fill:#1478c6;fill-opacity:1;fill-rule:nonzero;stroke:none"
             d="M 0,0 C 0.018,0.108 0.118,0.181 0.226,0.163 0.333,0.146 0.405,0.044 0.389,-0.063 0.371,-0.17 0.27,-0.243 0.163,-0.226 0.055,-0.208 -0.018,-0.107 0,0" />
        </g>
        <g
           transform="translate(239.5784,491.8151)"
           id="g222">
          <path
             id="path224"
             style="fill:#1478c6;fill-opacity:1;fill-rule:nonzero;stroke:none"
             d="m 0,0 c -0.066,-0.034 -0.115,-0.062 -0.133,-0.026 -0.027,0.052 -0.024,0.103 -0.03,0.155 l -0.043,0.787 c -0.002,0.05 0.012,0.061 0.017,0.065 L -0.144,0.966 0.488,0.457 C 0.529,0.423 0.571,0.393 0.595,0.342 0.615,0.307 0.562,0.284 0.496,0.251 Z m 0.708,0.111 c 0.096,0.049 0.131,0.02 0.396,-0.203 0.09,-0.079 0.148,-0.131 0.189,-0.212 0.112,-0.222 -0.168,-0.312 -0.114,-0.418 0.026,-0.051 0.069,-0.019 0.136,0.014 0.105,0.053 0.234,0.136 0.393,0.216 0.241,0.122 0.347,0.112 0.479,0.178 0.098,0.051 0.12,0.055 0.103,0.122 -0.025,0.098 -0.186,-0.122 -0.433,0.078 l -2.113,1.78 C -0.359,1.751 -0.37,1.754 -0.401,1.738 -0.45,1.714 -0.432,1.635 -0.43,1.564 L -0.301,-1.2 c 0.012,-0.249 -0.186,-0.321 -0.144,-0.406 0.025,-0.048 0.08,-0.01 0.131,0.017 0.104,0.052 0.255,0.173 0.363,0.229 0.117,0.058 0.183,0.105 0.3,0.163 0.076,0.039 0.202,0.07 0.163,0.147 -0.049,0.099 -0.415,-0.158 -0.547,0.104 -0.043,0.088 -0.057,0.241 -0.069,0.326 -0.038,0.284 0.032,0.336 0.094,0.369 z" />
        </g>
        <g
           transform="translate(241.338,464.6484)"
           id="g226">
          <path
             id="path228"
             style="fill:#1478c6;fill-opacity:1;fill-rule:nonzero;stroke:none"
             d="m 0,0 c 0.098,0.225 0.213,0.176 0.352,0.118 0.379,-0.164 0.471,-0.532 0.312,-0.899 -0.093,-0.22 -0.206,-0.422 -0.778,-0.177 -0.113,0.048 -0.25,0.107 -0.21,0.201 z m -1.207,-1.539 c -0.202,-0.472 -0.453,-0.218 -0.504,-0.338 -0.033,-0.075 0.051,-0.098 0.093,-0.116 0.188,-0.08 0.326,-0.145 0.528,-0.234 0.159,-0.066 0.307,-0.172 0.372,-0.2 0.086,-0.037 0.126,-0.026 0.14,0.007 0.058,0.135 -0.38,0.141 -0.207,0.543 l 0.279,0.697 c 0.056,0.131 0.045,0.165 0.244,0.081 0.188,-0.08 0.24,-0.143 0.254,-0.345 l 0.062,-0.729 c 0.024,-0.266 0.042,-0.555 0.34,-0.682 0.149,-0.065 0.433,-0.089 0.482,0.028 L 0.842,-2.75 0.721,-2.725 c -0.029,0.013 -0.103,0.044 -0.11,0.119 -0.068,0.588 -0.153,1.269 -0.144,1.292 0.016,0.037 0.14,0.025 0.286,0.065 C 0.9,-1.207 1.07,-1.113 1.172,-0.875 1.245,-0.701 1.397,-0.14 0.575,0.212 0.323,0.32 0.105,0.426 -0.147,0.534 -0.383,0.636 -0.413,0.687 -0.585,0.761 -0.632,0.779 -0.677,0.777 -0.692,0.74 -0.75,0.603 -0.282,0.568 -0.462,0.148 Z" />
        </g>
        <g
           transform="translate(243.7716,462.5631)"
           id="g230">
          <path
             id="path232"
             style="fill:#1478c6;fill-opacity:1;fill-rule:nonzero;stroke:none"
             d="M 0,0 C -0.073,0.013 -0.13,0.02 -0.123,0.059 -0.112,0.116 -0.08,0.156 -0.052,0.2 L 0.386,0.856 0.44,0.897 0.466,0.858 0.664,0.071 C 0.676,0.02 0.692,-0.029 0.682,-0.085 0.674,-0.126 0.617,-0.112 0.546,-0.099 Z M 0.632,-0.337 C 0.737,-0.358 0.75,-0.401 0.825,-0.738 0.85,-0.855 0.866,-1.008 0.851,-1.096 0.807,-1.342 0.529,-1.245 0.509,-1.363 0.498,-1.419 0.551,-1.42 0.623,-1.433 c 0.119,-0.021 0.31,0.007 0.486,-0.025 0.267,-0.048 0.33,-0.047 0.475,-0.072 0.108,-0.019 0.143,-0.035 0.155,0.034 0.023,0.132 -0.221,0.014 -0.298,0.324 L 0.798,1.483 C 0.768,1.614 0.76,1.623 0.725,1.629 0.671,1.639 0.639,1.565 0.599,1.507 l -1.527,-2.236 c -0.142,-0.208 -0.343,-0.146 -0.358,-0.24 -0.01,-0.051 0.056,-0.055 0.112,-0.065 0.117,-0.02 0.248,-0.049 0.369,-0.071 0.129,-0.022 0.235,-0.086 0.364,-0.109 0.084,-0.015 0.203,-0.066 0.219,0.019 0.018,0.109 -0.428,0.17 -0.376,0.46 0.017,0.096 0.099,0.227 0.142,0.301 0.14,0.249 0.228,0.251 0.297,0.239 z" />
        </g>
        <g
           transform="translate(244.6066,465.0262)"
           id="g234">
          <path
             id="path236"
             style="fill:#1478c6;fill-opacity:1;fill-rule:nonzero;stroke:none"
             d="m 0,0 c 0.121,-0.021 0.21,-0.141 0.187,-0.266 -0.021,-0.126 -0.148,-0.21 -0.269,-0.189 -0.124,0.023 -0.211,0.147 -0.187,0.27 C -0.248,-0.059 -0.124,0.021 0,0 m -0.115,-0.636 c 0.225,-0.039 0.443,0.112 0.484,0.337 0.04,0.226 -0.117,0.439 -0.338,0.48 -0.22,0.04 -0.441,-0.107 -0.48,-0.333 -0.042,-0.225 0.108,-0.443 0.334,-0.484" />
        </g>
        <g
           transform="translate(246.3708,461.517)"
           id="g238">
          <path
             id="path240"
             style="fill:#1478c6;fill-opacity:1;fill-rule:nonzero;stroke:none"
             d="m 0,0 c 0.013,-0.416 -0.38,-0.355 -0.376,-0.519 0.002,-0.069 0.083,-0.046 0.129,-0.045 0.108,0.003 0.244,0.002 0.374,0.006 0.143,0.005 0.259,-0.04 0.459,-0.035 0.053,0.002 0.154,0.001 0.154,0.058 C 0.733,-0.342 0.219,-0.582 0.195,0.203 L 0.151,1.591 0.181,1.658 0.256,1.605 2.287,-0.456 c 0.029,-0.031 0.051,-0.056 0.107,-0.053 0.05,0 0.049,0.034 0.047,0.123 L 2.367,1.96 C 2.353,2.388 2.704,2.302 2.7,2.423 2.699,2.436 2.698,2.477 2.62,2.473 2.585,2.472 2.443,2.398 2.185,2.389 1.903,2.381 1.785,2.393 1.72,2.392 1.665,2.389 1.656,2.348 1.657,2.321 1.66,2.185 2.156,2.273 2.168,1.903 L 2.211,0.544 C 2.214,0.443 2.207,0.392 2.183,0.392 2.158,0.391 2.108,0.438 2.053,0.492 L 0.354,2.242 C 0.278,2.317 0.326,2.348 0.197,2.344 -0.021,2.337 -0.121,2.383 -0.225,2.38 -0.303,2.377 -0.378,2.391 -0.456,2.388 c -0.048,0 -0.069,-0.035 -0.066,-0.071 0.005,-0.196 0.454,0.083 0.479,-0.7 z" />
        </g>
        <g
           transform="translate(251.5346,464.0767)"
           id="g242">
          <path
             id="path244"
             style="fill:#1478c6;fill-opacity:1;fill-rule:nonzero;stroke:none"
             d="M 0,0 C -0.092,0.268 -0.077,0.276 0.391,0.436 1.137,0.69 0.99,0.135 1.17,0.197 1.26,0.226 1.198,0.348 1.176,0.397 L 1.031,0.775 C 1.019,0.809 0.98,0.839 0.928,0.822 0.589,0.706 0.327,0.6 0.052,0.507 -0.54,0.305 -0.83,0.245 -0.989,0.193 -1.043,0.173 -1.063,0.132 -1.052,0.097 c 0.054,-0.155 0.449,0.118 0.566,-0.23 l 0.625,-1.83 c 0.159,-0.472 -0.207,-0.363 -0.145,-0.541 0.009,-0.023 0.037,-0.034 0.087,-0.018 0.213,0.074 0.411,0.13 0.533,0.171 0.169,0.059 0.306,0.076 0.453,0.125 0.097,0.033 0.183,0.046 0.156,0.122 -0.035,0.105 -0.439,-0.141 -0.585,0.289 l -0.225,0.602 c -0.076,0.225 -0.108,0.265 0.07,0.325 L 0.77,-0.789 C 1.172,-0.653 1.202,-1.1 1.326,-1.058 1.42,-1.026 1.35,-0.895 1.328,-0.845 L 1.066,-0.168 C 1.028,-0.063 0.987,-0.086 0.961,-0.095 0.884,-0.12 0.993,-0.481 0.66,-0.594 L 0.416,-0.677 C 0.251,-0.734 0.24,-0.707 0.185,-0.541 Z" />
        </g>
        <g
           transform="translate(256.1916,464.2137)"
           id="g246">
          <path
             id="path248"
             style="fill:#1478c6;fill-opacity:1;fill-rule:nonzero;stroke:none"
             d="m 0,0 c 0.251,-0.332 -0.107,-0.509 -0.009,-0.64 0.041,-0.057 0.093,0.009 0.13,0.037 0.088,0.066 0.223,0.166 0.328,0.244 0.115,0.086 0.206,0.11 0.365,0.23 0.043,0.031 0.127,0.089 0.093,0.134 C 0.791,0.16 0.539,-0.376 0.07,0.252 L -0.79,1.39 -0.801,1.463 c 0.016,0.011 0.047,0.009 0.091,0.002 L 2.134,0.94 C 2.177,0.929 2.208,0.923 2.254,0.957 2.294,0.985 2.275,1.013 2.22,1.085 L 0.825,2.959 C 0.567,3.303 0.904,3.432 0.83,3.53 0.822,3.541 0.799,3.572 0.735,3.526 0.707,3.503 0.624,3.366 0.419,3.211 0.195,3.043 0.089,2.985 0.036,2.946 -0.005,2.914 0.009,2.873 0.026,2.851 0.106,2.743 0.462,3.101 0.684,2.802 L 1.498,1.713 C 1.561,1.632 1.583,1.588 1.564,1.573 1.544,1.559 1.476,1.568 1.399,1.581 L -0.995,2.043 C -1.1,2.06 -1.079,2.112 -1.183,2.033 -1.356,1.904 -1.323,1.939 -1.408,1.874 -1.47,1.828 -1.682,1.747 -1.744,1.7 L -1.758,1.603 c 0.116,-0.157 0.324,0.331 0.794,-0.298 z" />
        </g>
        <g
           transform="translate(260.5733,469.6263)"
           id="g250">
          <path
             id="path252"
             style="fill:#1478c6;fill-opacity:1;fill-rule:nonzero;stroke:none"
             d="m 0,0 c -0.037,-0.065 -0.062,-0.117 -0.098,-0.096 -0.048,0.029 -0.074,0.072 -0.108,0.115 l -0.47,0.632 -0.02,0.064 0.044,0.011 0.808,-0.078 C 0.21,0.642 0.262,0.642 0.31,0.613 0.345,0.592 0.313,0.546 0.276,0.48 Z M 0.53,0.48 C 0.584,0.573 0.631,0.57 0.973,0.527 1.091,0.512 1.214,0.5 1.29,0.455 1.507,0.332 1.323,0.102 1.425,0.043 1.476,0.014 1.494,0.065 1.532,0.129 1.59,0.231 1.651,0.382 1.74,0.537 1.875,0.772 1.902,0.847 1.975,0.975 2.031,1.071 2.056,1.098 1.995,1.133 1.879,1.201 1.905,0.929 1.59,0.961 L -1.127,1.25 C -1.261,1.266 -1.272,1.263 -1.29,1.231 -1.316,1.185 -1.259,1.128 -1.217,1.071 L 0.374,-1.12 c 0.148,-0.203 0.022,-0.372 0.103,-0.419 0.046,-0.026 0.073,0.036 0.101,0.085 0.059,0.103 0.148,0.24 0.21,0.347 0.065,0.114 0.165,0.184 0.232,0.296 0.042,0.077 0.13,0.17 0.056,0.215 -0.097,0.054 -0.26,-0.361 -0.514,-0.215 -0.086,0.048 -0.252,0.17 -0.309,0.235 -0.186,0.215 -0.158,0.299 -0.121,0.359 z" />
        </g>
        <g
           transform="translate(259.9109,485.7098)"
           id="g254">
          <path
             id="path256"
             style="fill:#1478c6;fill-opacity:1;fill-rule:nonzero;stroke:none"
             d="M 0,0 C -0.427,-0.233 -0.536,0.264 -0.674,0.188 -0.755,0.145 -0.717,0.085 -0.682,0.02 c 0.078,-0.141 0.217,-0.252 0.349,-0.491 0.133,-0.241 0.133,-0.367 0.212,-0.511 0.058,-0.104 0.085,-0.181 0.171,-0.133 0.101,0.055 -0.206,0.457 0.235,0.698 l 1.618,0.891 c 0.173,0.094 0.21,0.068 0.29,-0.078 L 2.36,0.09 C 2.6,-0.314 2.14,-0.418 2.219,-0.56 2.27,-0.653 2.388,-0.537 2.428,-0.506 l 0.306,0.22 c 0.035,0.023 0.086,0.05 0.055,0.104 C 2.607,0.151 2.513,0.393 2.228,0.915 1.941,1.438 1.767,1.676 1.586,2.008 1.555,2.063 1.505,2.036 1.469,2.019 L 0.963,1.817 C 0.913,1.799 0.822,1.777 0.865,1.702 0.953,1.541 1.362,1.906 1.584,1.501 L 1.749,1.2 C 1.831,1.053 1.831,1.008 1.661,0.913 Z" />
        </g>
        <g
           transform="translate(257.6674,491.1427)"
           id="g258">
          <path
             id="path260"
             style="fill:#1478c6;fill-opacity:1;fill-rule:nonzero;stroke:none"
             d="m 0,0 c 0.183,0.214 0.196,0.206 0.575,-0.112 0.601,-0.509 0.05,-0.668 0.196,-0.792 0.072,-0.061 0.144,0.055 0.175,0.098 L 1.218,-0.462 1.205,-0.35 C 0.93,-0.119 0.735,0.071 0.513,0.258 0.037,0.661 -0.082,0.741 -0.359,0.929 -0.405,0.96 -0.448,0.961 -0.471,0.934 -0.578,0.809 -0.141,0.611 -0.377,0.33 L -1.611,-1.131 C -1.933,-1.51 -2.053,-1.166 -2.175,-1.31 l 0.033,-0.083 c 0.171,-0.146 0.335,-0.22 0.433,-0.301 0.155,-0.132 0.333,-0.303 0.807,-0.704 0.255,-0.216 0.655,-0.116 0.86,0.128 0.051,0.059 0.035,0.086 0.023,0.098 -0.118,0.099 -0.418,-0.346 -1.194,0.307 -0.222,0.191 -0.116,0.292 0.048,0.485 l 0.337,0.399 c 0.152,0.181 0.172,0.23 0.317,0.108 l 0.231,-0.195 c 0.323,-0.274 -0.043,-0.531 0.055,-0.615 0.077,-0.063 0.152,0.065 0.183,0.108 l 0.447,0.573 c 0.069,0.088 0.03,0.11 0.008,0.129 -0.063,0.052 -0.315,-0.227 -0.584,0 l -0.196,0.166 c -0.133,0.113 -0.114,0.136 -0.003,0.269 z" />
        </g>
        <g
           transform="translate(248.4901,494.88)"
           id="g262">
          <path
             id="path264"
             style="fill:#1478c6;fill-opacity:1;fill-rule:nonzero;stroke:none"
             d="M 0,0 C 0.01,0.463 0.338,0.309 0.339,0.42 0.341,0.464 0.315,0.474 0.267,0.475 0.063,0.47 -0.06,0.481 -0.195,0.485 -0.31,0.486 -0.469,0.539 -0.585,0.548 -0.64,0.551 -0.708,0.572 -0.71,0.506 -0.713,0.36 -0.207,0.418 -0.217,-0.052 l -0.017,-0.809 c -0.015,-0.689 -0.135,-1.334 -0.947,-1.316 -0.731,0.016 -0.883,0.538 -0.87,1.162 l 0.042,0.855 c 0.014,0.67 0.351,0.539 0.354,0.677 L -1.692,0.575 C -1.769,0.577 -2.066,0.525 -2.275,0.529 -2.479,0.534 -2.784,0.506 -2.838,0.508 -2.87,0.509 -2.923,0.498 -2.925,0.444 -2.927,0.289 -2.5,0.411 -2.506,0.06 L -2.56,-1.241 c -0.015,-0.792 0.386,-1.156 1.149,-1.172 1.127,-0.024 1.375,0.661 1.392,1.49 z" />
        </g>
        <g
           transform="translate(235.5079,491.4667)"
           id="g266">
          <path
             id="path268"
             style="fill:#1478c6;fill-opacity:1;fill-rule:nonzero;stroke:none"
             d="M 0,0 C -0.002,0.109 0.085,0.198 0.193,0.199 0.301,0.201 0.391,0.114 0.393,0.006 0.395,-0.103 0.309,-0.192 0.199,-0.194 0.091,-0.196 0.002,-0.108 0,0" />
        </g>
        <g
           transform="translate(236.0903,491.9239)"
           id="g270">
          <path
             id="path272"
             style="fill:#1478c6;fill-opacity:1;fill-rule:nonzero;stroke:none"
             d="M 0,0 C -0.001,0.11 0.086,0.198 0.194,0.2 0.303,0.201 0.392,0.115 0.395,0.006 0.395,-0.102 0.308,-0.192 0.2,-0.194 0.09,-0.195 0.003,-0.109 0,0" />
        </g>
        <g
           transform="translate(236.8804,489.9502)"
           id="g274">
          <path
             id="path276"
             style="fill:#1478c6;fill-opacity:1;fill-rule:nonzero;stroke:none"
             d="m 0,0 c -0.057,-0.046 -0.098,-0.085 -0.125,-0.054 -0.037,0.046 -0.044,0.096 -0.06,0.147 l -0.207,0.76 c -0.012,0.048 -0.001,0.061 0.004,0.066 L -0.342,0.914 0.383,0.548 C 0.429,0.524 0.476,0.503 0.513,0.459 0.537,0.427 0.491,0.394 0.434,0.348 Z M 0.67,0.256 C 0.753,0.321 0.794,0.304 1.099,0.139 1.204,0.081 1.272,0.042 1.329,-0.028 1.483,-0.222 1.231,-0.369 1.304,-0.462 1.341,-0.506 1.378,-0.466 1.433,-0.421 1.526,-0.346 1.669,-0.227 1.817,-0.125 1.94,-0.041 2.065,0.073 2.196,0.119 2.299,0.155 2.36,0.205 2.315,0.259 2.231,0.364 2.158,0.175 1.874,0.319 l -2.47,1.256 c -0.117,0.062 -0.129,0.063 -0.157,0.041 -0.042,-0.033 -0.01,-0.107 0.01,-0.175 l 0.686,-2.696 c 0.064,-0.242 -0.114,-0.355 -0.054,-0.427 0.033,-0.042 0.079,0.005 0.123,0.042 0.093,0.075 0.172,0.238 0.268,0.314 0.103,0.081 0.208,0.145 0.31,0.227 0.066,0.054 0.184,0.111 0.13,0.178 -0.07,0.086 -0.372,-0.241 -0.556,-0.013 -0.061,0.078 -0.105,0.224 -0.135,0.306 -0.096,0.268 -0.04,0.336 0.014,0.379 z" />
        </g>
        <g
           transform="translate(235.0203,490.0447)"
           id="g278">
          <path
             id="path280"
             style="fill:#1478c6;fill-opacity:1;fill-rule:nonzero;stroke:none"
             d="M 0,0 C -0.113,0.24 0.069,0.3 -0.004,0.359 -0.057,0.405 -0.085,0.352 -0.14,0.288 -0.213,0.2 -0.272,0.161 -0.345,0.074 c -0.077,-0.091 -0.223,-0.17 -0.301,-0.261 -0.03,-0.038 -0.117,-0.12 -0.058,-0.171 0.11,-0.092 0.262,0.321 0.553,0.072 0.051,-0.041 0.154,-0.139 0.285,-0.41 L 0.72,-1.926 0.753,-2.021 0.65,-2.01 -0.698,-1.566 c -0.256,0.084 -0.438,0.167 -0.531,0.245 -0.131,0.111 0.075,0.26 -0.01,0.33 -0.053,0.045 -0.063,0.027 -0.148,-0.074 -0.041,-0.048 -0.089,-0.196 -0.257,-0.396 -0.09,-0.106 -0.146,-0.155 -0.234,-0.258 -0.039,-0.046 -0.146,-0.122 -0.071,-0.185 l 0.086,0.013 c 0.139,0.1 0.148,0.115 0.314,0.065 l 2.473,-0.757 c 0.178,-0.056 0.236,-0.05 0.262,-0.019 0.029,0.035 0.025,0.066 -0.028,0.169 z" />
        </g>
        <g
           transform="translate(233.4287,485.8619)"
           id="g282">
          <path
             id="path284"
             style="fill:#1478c6;fill-opacity:1;fill-rule:nonzero;stroke:none"
             d="m 0,0 c 0.103,-0.003 0.141,-0.005 0.257,-0.071 l 0.458,-0.266 c 0.45,-0.259 0.032,-0.533 0.192,-0.625 0.032,-0.018 0.061,0.017 0.095,0.073 0.055,0.1 0.064,0.194 0.248,0.512 C 1.505,0.066 1.59,0.129 1.604,0.159 1.64,0.218 1.667,0.273 1.628,0.296 1.446,0.4 1.44,-0.177 0.996,0.08 L 0.468,0.386 C 0.341,0.458 0.322,0.483 0.272,0.56 L -0.337,1.529 C -0.606,1.964 -0.387,2.024 -0.482,2.08 -0.508,2.094 -0.532,2.085 -0.559,2.04 -0.616,1.941 -0.617,1.985 -0.772,1.715 -0.878,1.531 -0.998,1.431 -1.026,1.384 l 0.015,-0.096 c 0.11,-0.066 0.229,0.323 0.463,0.189 C -0.523,1.463 -0.471,1.437 -0.39,1.3 L 0.008,0.642 C 0.062,0.554 0.076,0.514 0.063,0.493 0.046,0.464 -0.013,0.466 -0.162,0.477 L -1.005,0.538 C -1.118,0.547 -1.163,0.564 -1.196,0.583 -1.316,0.652 -1.175,0.83 -1.257,0.877 -1.278,0.889 -1.313,0.896 -1.337,0.843 -1.447,0.62 -1.473,0.474 -1.559,0.326 -1.661,0.148 -1.74,0.018 -1.776,-0.047 c -0.048,-0.08 -0.071,-0.121 -0.03,-0.147 0.114,-0.066 0.103,0.249 0.437,0.24 z" />
        </g>
        <g
           transform="translate(231.6146,484.7408)"
           id="g286">
          <path
             id="path288"
             style="fill:#1478c6;fill-opacity:1;fill-rule:nonzero;stroke:none"
             d="M 0,0 C -0.378,0.13 -0.134,0.383 -0.28,0.432 -0.315,0.445 -0.332,0.433 -0.355,0.368 -0.413,0.201 -0.494,0.053 -0.563,-0.147 c -0.084,-0.239 -0.155,-0.335 -0.21,-0.493 -0.019,-0.054 -0.04,-0.085 0.031,-0.109 0.112,-0.041 0.142,0.433 0.566,0.286 l 0.545,-0.188 c 0.084,-0.03 0.165,-0.085 0.126,-0.196 L 0.097,-1.992 C 0.071,-2.073 0.014,-2.072 -0.089,-2.036 l -0.614,0.212 c -0.343,0.12 -0.129,0.394 -0.249,0.436 -0.039,0.013 -0.07,-0.014 -0.088,-0.069 -0.039,-0.112 -0.035,-0.288 -0.115,-0.519 -0.07,-0.201 -0.126,-0.312 -0.165,-0.427 -0.026,-0.074 -0.062,-0.19 -0.005,-0.211 0.146,-0.05 0.128,0.445 0.549,0.298 l 1.68,-0.594 c 0.478,-0.166 0.266,-0.488 0.421,-0.541 0.05,-0.018 0.07,0.018 0.086,0.064 0.068,0.194 0.068,0.402 0.124,0.564 0.097,0.278 0.156,0.4 0.211,0.558 0.042,0.123 0.009,0.127 -0.014,0.134 -0.14,0.049 -0.167,-0.478 -0.644,-0.311 l -0.606,0.209 c -0.17,0.058 -0.205,0.084 -0.144,0.261 l 0.357,1.03 c 0.06,0.169 0.098,0.145 0.26,0.088 L 1.65,-1.095 c 0.373,-0.129 0.172,-0.375 0.307,-0.422 0.027,-0.009 0.051,0.01 0.068,0.063 0.069,0.196 0.107,0.352 0.153,0.491 0.057,0.158 0.21,0.38 0.254,0.509 0.019,0.049 0.033,0.079 -0.018,0.096 -0.151,0.052 -0.208,-0.399 -0.696,-0.229 z" />
        </g>
        <g
           transform="translate(232.5323,470.2277)"
           id="g290">
          <path
             id="path292"
             style="fill:#1478c6;fill-opacity:1;fill-rule:nonzero;stroke:none"
             d="m 0,0 c -0.428,-0.229 -0.535,0.269 -0.675,0.194 -0.08,-0.043 -0.044,-0.102 -0.009,-0.165 0.078,-0.146 0.217,-0.255 0.347,-0.497 0.129,-0.241 0.178,-0.367 0.256,-0.512 0.056,-0.104 0.084,-0.181 0.169,-0.134 0.102,0.053 -0.25,0.457 0.192,0.695 L 1.908,0.453 C 2.081,0.546 2.146,0.536 2.225,0.389 L 2.39,0.082 c 0.236,-0.406 -0.225,-0.503 -0.148,-0.649 0.05,-0.093 0.169,0.021 0.209,0.052 l 0.309,0.218 c 0.034,0.022 0.085,0.048 0.056,0.103 C 2.637,0.14 2.401,0.347 2.119,0.873 1.838,1.398 1.787,1.658 1.606,1.993 1.578,2.047 1.527,2.019 1.489,2.004 L 0.983,1.807 C 0.933,1.79 0.842,1.768 0.883,1.691 0.97,1.532 1.384,1.891 1.601,1.485 L 1.764,1.181 C 1.842,1.034 1.844,0.988 1.67,0.896 Z" />
        </g>
        <g
           transform="translate(234.5073,467.3462)"
           id="g294">
          <path
             id="path296"
             style="fill:#1478c6;fill-opacity:1;fill-rule:nonzero;stroke:none"
             d="m 0,0 c -0.365,-0.321 -0.541,0.131 -0.662,0.025 -0.066,-0.059 -0.017,-0.107 0.031,-0.163 0.108,-0.123 0.229,-0.189 0.408,-0.395 0.18,-0.205 0.257,-0.317 0.365,-0.44 0.078,-0.09 0.12,-0.16 0.195,-0.095 0.086,0.076 -0.348,0.391 0.031,0.723 l 1.39,1.215 c 0.147,0.128 0.208,0.144 0.32,0.018 L 2.306,0.627 C 2.628,0.283 2.201,0.082 2.308,-0.04 c 0.07,-0.079 0.16,0.059 0.191,0.098 l 0.254,0.28 C 2.781,0.37 2.824,0.406 2.783,0.453 2.534,0.74 2.315,0.856 1.923,1.305 1.53,1.755 1.368,2.016 1.117,2.302 1.076,2.348 1.034,2.31 1.001,2.286 L 0.552,1.981 C 0.506,1.952 0.423,1.911 0.478,1.847 0.6,1.708 0.921,2.153 1.225,1.806 L 1.452,1.547 C 1.563,1.422 1.574,1.378 1.427,1.248 Z" />
        </g>
        <g
           transform="translate(239.0583,465.8196)"
           id="g298">
          <path
             id="path300"
             style="fill:#1478c6;fill-opacity:1;fill-rule:nonzero;stroke:none"
             d="m 0,0 c 0.155,0.236 0.197,0.274 0.61,0.002 0.658,-0.434 0.128,-0.658 0.289,-0.764 0.078,-0.051 0.135,0.072 0.162,0.12 l 0.208,0.345 c 0.02,0.032 0.019,0.064 -0.024,0.094 C 0.944,-0.004 0.674,0.11 0.431,0.268 -0.09,0.611 -0.326,0.788 -0.465,0.879 -0.514,0.912 -0.56,0.902 -0.579,0.871 -0.669,0.736 -0.212,0.59 -0.414,0.284 l -1.053,-1.595 c -0.274,-0.417 -0.411,-0.062 -0.516,-0.219 -0.012,-0.02 -0.003,-0.05 0.04,-0.08 0.188,-0.124 0.34,-0.205 0.447,-0.273 0.149,-0.101 0.267,-0.196 0.397,-0.283 0.084,-0.056 0.147,-0.117 0.191,-0.048 0.061,0.091 -0.38,0.26 -0.131,0.639 l 0.333,0.503 c 0.13,0.199 0.145,0.249 0.301,0.146 l 0.253,-0.167 c 0.354,-0.233 0.019,-0.532 0.129,-0.603 0.081,-0.054 0.143,0.082 0.168,0.127 l 0.376,0.623 c 0.058,0.095 0.015,0.113 -0.009,0.128 -0.068,0.046 -0.283,-0.261 -0.578,-0.068 l -0.214,0.142 c -0.146,0.096 -0.131,0.12 -0.034,0.266 z" />
        </g>
        <g
           transform="translate(262.4147,471.6476)"
           id="g302">
          <path
             id="path304"
             style="fill:#1478c6;fill-opacity:1;fill-rule:nonzero;stroke:none"
             d="m 0,0 c 0.394,-0.134 0.197,-0.481 0.352,-0.535 0.065,-0.023 0.074,0.062 0.089,0.104 0.034,0.105 0.101,0.258 0.143,0.381 0.047,0.135 0.119,0.196 0.185,0.385 0.016,0.049 0.053,0.145 0,0.163 C 0.586,0.561 0.68,-0.024 -0.062,0.231 L -1.435,0.703 -1.487,0.755 -1.412,0.808 1.234,1.98 C 1.275,1.996 1.304,2.007 1.323,2.062 1.34,2.109 1.308,2.119 1.223,2.146 L -0.986,2.897 C -1.392,3.036 -1.188,3.333 -1.303,3.373 -1.314,3.377 -1.352,3.389 -1.378,3.316 -1.39,3.281 -1.387,3.134 -1.469,2.89 -1.56,2.623 -1.609,2.516 -1.63,2.455 -1.647,2.405 -1.613,2.379 -1.584,2.37 -1.459,2.327 -1.366,2.822 -1.015,2.702 L 0.273,2.261 C 0.369,2.228 0.413,2.204 0.405,2.182 0.397,2.157 0.335,2.128 0.264,2.096 L -1.971,1.126 C -2.071,1.081 -2.081,1.136 -2.124,1.013 -2.195,0.807 -2.267,0.722 -2.303,0.621 -2.326,0.549 -2.367,0.483 -2.391,0.409 -2.407,0.364 -2.384,0.333 -2.348,0.321 c 0.185,-0.063 0.082,0.456 0.823,0.202 z" />
        </g>
        <g
           transform="translate(256.6017,475.9166)"
           id="g306">
          <path
             id="path308"
             style="fill:#ffffff;fill-opacity:1;fill-rule:nonzero;stroke:none"
             d="m 0,0 c -0.527,-0.405 -0.533,-0.363 -1.002,-0.512 -0.54,-0.174 -1.054,-0.234 -1.47,-0.195 H -6.478 L -8.479,-3.54 h 3.657 c 0.781,0.004 1.271,0.125 2.029,0.493 0.511,0.249 1.192,0.759 1.586,1.307 z" />
        </g>
        <g
           transform="translate(251.1119,476.6196)"
           id="g310">
          <path
             id="path312"
             style="fill:#ffffff;fill-opacity:1;fill-rule:nonzero;stroke:none"
             d="M 0,0 H 3.911 C 4.869,-0.008 5.493,0.29 5.844,0.472 6.25,0.679 6.908,1.349 7.166,1.726 l 1.673,2.387 c 0,0 -0.763,-0.647 -1.67,-0.942 C 6.432,2.934 5.22,2.79 4.035,2.832 L 1.928,2.836 Z" />
        </g>
        <g
           transform="translate(243.1306,484.4156)"
           id="g314">
          <path
             id="path316"
             style="fill:#ffffff;fill-opacity:1;fill-rule:nonzero;stroke:none"
             d="m 0,0 c -0.152,-1.037 -0.228,-1.187 -0.477,-1.873 -0.273,-0.754 -0.918,-1.779 -1.68,-2.798 -0.533,-0.713 -1.053,-1.295 -1.538,-1.86 -0.307,-0.354 -0.597,-0.701 -0.871,-1.068 -0.785,-1.057 -1.291,-1.953 -1.443,-2.875 -0.099,-0.605 -0.145,-0.99 -0.052,-1.565 h 9.274 l 2.043,2.833 H 3.436 C 2.558,-9.215 1.419,-9.241 0.512,-9.488 c -0.989,-0.267 -1.658,-0.517 -2.437,-1.028 0.493,0.453 1.473,1.265 2.671,1.81 1.159,0.528 2.452,0.882 4.073,0.91 l 1.408,0.004 1.963,2.83 H 6.957 C 5.785,-5.024 3.967,-5.269 2.228,-6.112 1.383,-6.569 0.271,-7.221 -0.835,-8.13 c -0.704,-0.579 -0.996,-0.822 -1.701,-1.604 0.014,0.363 0.052,0.581 0.131,0.947 0.237,1.077 0.73,1.562 1.214,2.551 0.634,1.294 1.095,1.976 1.676,3.294 0.412,0.93 0.682,1.446 0.963,2.424 0.24,0.842 0.376,1.381 0.432,2.204 0,0.943 -0.786,1.75 -1.73,1.75 C -0.908,3.393 -1.722,2.744 -2.248,2.449 -2.837,2.119 -3.329,1.859 -4.384,1.531 L -1.628,1.525 C -1.308,1.502 -1.244,1.478 -1.017,1.426 -0.422,1.28 0,0.748 0,0.108 Z" />
        </g>
        <g
           transform="translate(258.1193,468.5141)"
           id="g318">
          <path
             id="path320"
             style="fill:#1478c6;fill-opacity:1;fill-rule:nonzero;stroke:none"
             d="M 0,0 C -0.24,0.197 0.115,0.381 -0.006,0.479 -0.045,0.51 -0.061,0.497 -0.115,0.431 -0.155,0.379 -0.226,0.277 -0.447,0.008 c -0.099,-0.121 -0.3,-0.257 -0.401,-0.384 -0.055,-0.065 -0.058,-0.121 -0.03,-0.145 0.111,-0.089 0.319,0.337 0.587,0.118 L 1.241,-1.665 C 1.627,-1.979 1.259,-2.08 1.405,-2.2 l 0.082,0.032 c 0.143,0.174 0.241,0.317 0.32,0.416 0.129,0.158 0.34,0.295 0.733,0.774 0.213,0.259 0.107,0.659 -0.139,0.861 C 2.34,-0.068 2.314,-0.083 2.302,-0.096 2.204,-0.215 2.655,-0.51 2.012,-1.294 1.826,-1.522 1.678,-1.374 1.483,-1.212 Z" />
        </g>
      </g>
    </g>
  </g>
</svg>
