<?xml version="1.0" encoding="UTF-8"?>
<svg width="90" height="90" version="1.1" viewBox="0 0 23.812 23.813" xmlns="http://www.w3.org/2000/svg" xmlns:cc="http://creativecommons.org/ns#" xmlns:dc="http://purl.org/dc/elements/1.1/" xmlns:rdf="http://www.w3.org/1999/02/22-rdf-syntax-ns#">
 <metadata>
  <rdf:RDF>
   <cc:Work rdf:about="">
    <dc:format>image/svg+xml</dc:format>
    <dc:type rdf:resource="http://purl.org/dc/dcmitype/StillImage"/>
    <dc:title/>
   </cc:Work>
  </rdf:RDF>
 </metadata>
 <g transform="translate(-73.423 -122.04)">
  <g transform="matrix(.29971 0 0 .2998 53.614 89.532)" stroke-width=".26458">
   <path d="m66.146 148.17v-39.688h79.375v79.375h-79.375z" fill="#fbfdfb"/>
   <path d="m98.16 187.28c-15.796-3.2584-27.726-15.032-31.368-30.955-0.30572-1.3366-0.4844-3.6438-0.57146-7.3787l-0.12666-5.434 0.57468-2.7681c1.7365-8.3643 5.1284-14.672 11.101-20.645 5.9727-5.9727 12.281-9.3646 20.645-11.101l2.7681-0.57467 5.434 0.12666c5.8026 0.13525 7.3411 0.37153 11.744 1.8037 5.8792 1.9122 10.743 4.9635 15.541 9.7485 5.902 5.887 9.3526 12.28 11.069 20.508 0.69634 3.3377 0.77637 10.997 0.14915 14.274-1.6479 8.6119-4.9943 15.094-10.924 21.159-5.9645 6.1008-13.229 9.911-21.756 11.412-3.349 0.58938-11.032 0.49547-14.28-0.17453zm13.361-2.9168c4.4938-0.68988 9.9351-2.7137 13.527-5.0313 2.8919-1.8659 3.497-2.3323 5.6428-4.3487 7.0057-6.5834 10.869-14.5 11.646-23.865 0.39424-4.7526-0.3183-10.63-1.8019-14.862-2.2358-6.3786-6.7597-12.675-12.213-16.999-8.4404-6.6918-19.876-9.2333-30.669-6.8162-9.3303 2.0894-17.783 8.1445-22.987 16.467-3.6016 5.7594-5.4019 12.118-5.4142 19.122-0.0074 4.2453 0.35198 6.7773 1.5491 10.914 0.84125 2.9067 3.3964 8.0881 5.1866 10.518 2.0066 2.7232 6.9063 7.488 9.3399 9.0828 7.9807 5.23 16.992 7.2319 26.194 5.8193zm-3.4396-4.848c-0.14552-0.0498-0.83986-0.16825-1.543-0.26315l-1.2784-0.17256-0.40687-0.97273c-1.0158-2.4286-1.696-6.0225-1.8617-9.8363l-0.16663-3.8365-0.35311 1.1906c-0.6344 2.1391-0.99192 7.0506-0.69334 9.525 0.14926 1.2369 0.23511 2.293 0.19077 2.3468-0.0443 0.0538-0.6805-0.34256-1.4137-0.88078-4.203-3.0853-6.8938-8.7338-6.8938-14.471 0-4.6002 1.1496-8.3556 3.7265-12.173 3.4566-5.1206 9.8593-9.7534 13.464-9.7421 3.3174 0.0104 8.026 1.6014 11.439 3.8654 3.9367 2.6109 7.3052 6.7465 8.9329 10.967l0.81579 2.1154-0.26281 2.0408c-0.52553 4.0809-1.7783 7.5201-3.9043 10.718-3.1455 4.7315-8.2041 8.1696-13.687 9.302-1.751 0.36169-5.3774 0.52622-6.1053 0.27701zm-26.128-21.403c-0.25466-0.19301-0.46503-0.57594-0.46749-0.85093-0.0033-0.37258-0.94068-0.98885-3.6781-2.4182-3.7263-1.9457-4.3894-2.1762-4.5838-1.5931-0.07941 0.23824-0.2974 0.20127-0.81571-0.13833l-0.70734-0.46347 1.0698-2.1278c1.0646-2.1174 1.6425-2.5476 2.1011-1.5643 0.10179 0.21828 0.30279 0.635 0.44666 0.92604 0.26952 0.5452 6.2373 3.8126 6.9916 3.8279 0.24118 5e-3 0.62615-0.4423 0.8961-1.0409l0.47326-1.0495-0.87914-1.3417 0.41016-0.79316c0.22559-0.43623 0.5083-0.79315 0.62825-0.79315 0.19518 0 2.2107 1.351 2.7658 1.8539 0.22669 0.20538-3.5823 7.7407-3.9701 7.854-0.1199 0.035-0.42637-0.0942-0.68103-0.28723zm49.546-6.3119c-1.8045-4.2387-5.7212-8.2463-10.298-10.537-2.0158-1.0089-5.5419-2.0966-6.797-2.0966-0.33193 0-0.66729-0.10319-0.74523-0.2293-0.22414-0.36267 2.6321-0.82904 5.0774-0.82904 4.9711 0 9.1584 2.0625 11.48 5.6547 1.2889 1.9942 1.9911 4.2504 2.2268 7.1548 0.21613 2.6637-0.0712 2.9324-0.94378 0.8827zm-45.114-3.431c-0.29104-0.16832-1.4122-1.0591-2.4914-1.9794-1.4207-1.2116-2.141-1.6543-2.6101-1.6042-1.1446 0.12236-1.3072-0.63175-0.43383-2.0122 0.42433-0.67073 0.93015-1.2804 1.124-1.3548 0.1939-0.0744 1.2386 0.63752 2.3216 1.5821 3.5194 3.0695 3.9889 3.1581 3.6998 0.69863-0.12908-1.0983-0.35978-1.6765-0.89215-2.2362-1.0252-1.0778-1.5967-1.3426-2.0628-0.95576-0.30662 0.25447-0.48962 0.22471-0.89958-0.14629l-0.51465-0.46576 0.7534-1.0921c0.41437-0.60067 0.97859-1.2947 1.2538-1.5423l0.50043-0.45015 0.91943 0.84746c0.50569 0.46611 1.8033 1.5888 2.8836 2.495 1.5283 1.2818 2.0431 1.5819 2.3201 1.3521 0.26913-0.22335 0.48373-0.1797 0.88012 0.17902 0.28831 0.26092 0.5242 0.57767 0.5242 0.70389 0 0.12621-0.48899 0.75997-1.0866 1.4084-0.88804 0.96342-1.175 1.1316-1.5701 0.92013-0.7057-0.37767-0.70384-0.38011-0.84747 1.1146-0.10729 1.1166-0.28747 1.5123-0.96388 2.1167-0.88392 0.78978-1.9056 0.94304-2.8079 0.42119zm6.6146-8.5401c-1.7757-1.1731-2.619-2.6101-2.7348-4.6606l-0.09941-1.7594 1.0022-1.1093c1.9225-2.128 4.4151-2.7394 6.2247-1.527 1.2338 0.82668 2.5524 2.8752 2.7656 4.2966 0.54279 3.6196-4.1553 6.7435-7.1582 4.7597zm3.9039-2.4487c0.43736-0.48914 0.54424-0.88816 0.49311-1.8409-0.04692-0.87435-1.9195-2.7231-2.7582-2.7231-0.8698 0-1.7711 0.94172-1.7711 1.8506 0 0.71159 0.90096 2.1382 1.7628 2.7913 0.67586 0.51215 1.7796 0.47437 2.2733-0.0778zm4.8029-2.3185c-0.0937-0.37333-0.029-0.83098 0.14744-1.0436 0.49411-0.59536-1.4444-5.6431-2.209-5.7522-0.39851-0.0569-0.55977-0.26946-0.55977-0.73796 0-0.51525 0.2584-0.7874 1.1906-1.254 1.4183-0.70992 1.749-0.73862 2.0622-0.17891 0.19608 0.35036 0.32943 0.26496 0.78079-0.50003 0.79806-1.3526 2.4584-1.8124 4.0764-1.1288 0.31247 0.13202 0.56802-0.0367 0.89576-0.59157 0.59717-1.0109 1.6928-1.6418 2.8515-1.6418 1.2715 0 1.9949 0.92742 3.0879 3.9587 0.66097 1.833 1.026 2.4913 1.4765 2.6626 0.64311 0.24451 1.1048 1.235 0.7362 1.5795-0.1236 0.11553-1.0784 0.51426-2.1217 0.88606l-1.897 0.676-0.24878-0.71425c-0.16518-0.47425-0.15233-0.86701 0.0382-1.1688 0.21916-0.34712 0.13223-0.90472-0.36777-2.3589-0.9631-2.801-1.4337-3.1158-2.2625-1.5131-0.57247 1.107-0.5466 2.014 0.099 3.4736 0.4006 0.90561 0.70272 1.2498 1.0969 1.2498 0.29922 0 0.5619 0.1786 0.58373 0.39688 0.0218 0.21828 0.0516 0.52475 0.0662 0.68105 0.0219 0.23496-3.5555 1.8283-4.112 1.8315-0.33777 2e-3 -0.50876-1.3795-0.21461-1.7339 0.32756-0.3947 0.11094-1.2935-0.87613-3.6351-0.64647-1.5336-1.1699-1.5536-1.8929-0.0725l-0.50758 1.0398 0.50758 1.4724c0.37144 1.0775 0.70274 1.5654 1.2352 1.8189 0.48455 0.2307 0.7276 0.55109 0.7276 0.95914v0.61271l-1.9599 0.69577c-1.0779 0.38267-2.0282 0.69576-2.1116 0.69576-0.0835 0-0.22686-0.2992-0.31864-0.66489zm17.17-4.8945c-0.88221-0.35527-1.2882-1.4461-1.661-4.4623-0.28362-2.2951-0.42056-2.7669-0.83437-2.8751-0.33211-0.0868-0.49506-0.36866-0.49506-0.8562v-0.72673l1.6124-0.34218c1.2319-0.26143 1.6579-0.2686 1.8051-0.0304 0.10599 0.17149 0.33819 1.5634 0.51602 3.0932 0.36166 3.1113 0.47989 3.5571 0.94342 3.5571 0.75706 0 2.309-2.4157 2.138-3.3279-0.0524-0.27968-0.10442-0.83367-0.11556-1.2311-0.0152-0.54171-0.1858-0.76412-0.6817-0.88858-0.46821-0.11751-0.66146-0.34568-0.66146-0.78096 0-0.67918 0.30629-0.8282 2.3741-1.1551l1.3394-0.21174 0.11821 0.55654c0.065 0.3061 0.25939 1.9182 0.43193 3.5826l0.31372 3.026 0.62171 0.57618c1.2475 1.1561 0.45835 1.9707-1.909 1.9707-0.99701 0-1.1734-0.0795-1.1734-0.52917 0-0.68347-0.32063-0.67117-0.95118 0.0365-0.95278 1.0693-2.5338 1.501-3.7313 1.0187z" fill="#b2eecb"/>
   <path d="m99.88 187.47c-6.5331-1.035-12.534-3.5494-17.859-7.4835-2.6833-1.9822-6.6549-6.0622-8.6521-8.8884-3.3015-4.6717-5.7486-10.641-6.741-16.444-0.45958-2.6874-0.52012-3.8692-0.39316-7.6744 0.08254-2.4738 0.33253-5.3909 0.55553-6.4823 1.0468-5.123 3.6647-11.172 6.667-15.405 1.9655-2.7711 6.4825-7.2824 9.3101-9.2986 4.3304-3.0878 10.032-5.5303 15.658-6.7081 3.1538-0.66026 11.6-0.65911 14.87 2e-3 5.3829 1.0883 11.244 3.6055 15.616 6.7061 2.7711 1.9655 7.2824 6.4825 9.2986 9.3101 3.0878 4.3304 5.5303 10.032 6.7081 15.658 0.66594 3.1809 0.66594 11.636 0 14.817-1.178 5.6267-3.6211 11.329-6.7081 15.657-1.9414 2.7218-5.9571 6.8253-8.5637 8.7508-5.4748 4.0443-11.937 6.68-18.606 7.5891-2.7186 0.37057-8.4991 0.31589-11.159-0.10557zm12.784-3.1854c18.711-3.5943 31.744-21.102 29.702-39.902-1.7373-15.998-13.36-28.857-29.124-32.222-3.9495-0.84311-10.839-0.8494-14.75-0.0135-14.511 3.1012-25.58 14.17-28.681 28.681-0.83594 3.9116-0.82966 10.801 0.01346 14.75 1.8299 8.5721 6.5828 16.219 13.338 21.459 5.37 4.1658 11.685 6.8118 18.221 7.6348 2.6381 0.33218 8.6011 0.12718 11.282-0.38788zm-5.6002-4.9065c-1.8984-0.31854-1.9223-0.33892-2.5198-2.1508-0.93942-2.8489-1.3856-5.4998-1.5481-9.1973-0.17633-4.0125-0.37776-3.9388-1.0411 0.38093-0.28921 1.8832-0.35859 3.5419-0.24072 5.7547 0.0998 1.8735 0.0671 3.1089-0.0822 3.1089-0.13627 0-0.90018-0.53145-1.6976-1.181-5.9113-4.8153-7.9232-14.136-4.7579-22.043 1.9782-4.9416 6.7433-10.023 11.876-12.664 2.5554-1.3149 3.7273-1.4415 6.9905-0.75503 7.794 1.6395 14.544 7.4071 17.329 14.808l0.67381 1.7902-0.2769 1.9908c-0.80673 5.8002-2.969 10.353-6.6652 14.035-4.9466 4.9274-11.635 7.1973-18.041 6.1226zm-25.237-21.473c-0.15286-0.18815-0.3205-0.56075-0.37254-0.82802-0.14109-0.72462-7.5592-4.5368-8.0444-4.134-0.39238 0.32564-1.4429 0.10778-1.4429-0.29924 0-0.21713 1.7702-3.9162 1.9927-4.1642 0.25242-0.28121 1.1604 0.5958 1.2308 1.1889l0.08373 0.70465 3.513 1.8353c3.7994 1.9849 3.9204 1.9962 4.5716 0.42383 0.2669-0.64434 0.26989-0.99602 0.01449-1.7023-0.2927-0.80945-0.17117-1.5198 0.37258-2.1777 0.03612-0.0437 0.72495 0.38235 1.5307 0.94679l1.465 1.0263-1.9383 3.6834c-1.8897 3.591-2.4065 4.198-2.9766 3.4963zm49.848-5.8312c-1.1407-2.9564-4.3384-6.8547-7.453-9.0857-2.5326-1.8142-6.2344-3.3576-8.9015-3.7114-0.71325-0.0946-1.3509-0.25952-1.417-0.36646-0.19283-0.312 2.6996-0.79416 4.764-0.79416 2.2515 0 5.4922 0.77545 7.2587 1.7369 1.7585 0.95709 4.0552 3.3821 4.9956 5.2746 1.0171 2.047 1.432 4.0368 1.3241 6.35l-0.0864 1.8521zm-44.888-3.6704c-0.3617-0.14428-1.3737-0.87261-2.249-1.6185s-1.8067-1.538-2.0699-1.7604c-0.26322-0.2223-0.82094-0.3781-1.2394-0.34622-1.174 0.0894-1.2058-0.39324-0.12893-1.9568l0.98929-1.4364 1.4871 1.2471c0.81792 0.68589 1.934 1.6397 2.4801 2.1196s1.2307 0.87249 1.5214 0.87249c0.44718 0 0.5284-0.17695 0.5284-1.1512 0-0.63312-0.12822-1.519-0.28493-1.9685-0.38462-1.1033-1.9329-2.2704-2.7425-2.0672-0.3814 0.0957-0.7393 6e-3 -0.93934-0.23474-0.26337-0.31734-0.15827-0.61895 0.56798-1.63 0.49013-0.68235 1.0092-1.28 1.1536-1.3281 0.14434-0.0481 1.5122 0.98405 3.0398 2.2937 2.3284 1.9962 2.8881 2.3579 3.4628 2.2375 0.43402-0.091 0.80633 2e-3 1.015 0.25339 0.27314 0.32911 0.15753 0.6029-0.67533 1.5993-0.99413 1.1893-1.5016 1.4509-1.8189 0.93758-0.34164-0.55278-0.66146-0.22885-0.66146 0.66996 0 1.3773-0.64129 2.6772-1.5535 3.1489-0.91304 0.47215-0.98458 0.47666-1.8822 0.11856zm6.7431-8.3214c-2.9441-1.5281-4.1787-5.1838-2.5317-7.4968 0.79321-1.114 3.0763-2.4011 4.2647-2.4042 1.8612-5e-3 4.119 2.1546 4.7665 4.5591 0.37955 1.4096-0.06182 2.7896-1.2681 3.9651-1.7266 1.6825-3.6613 2.1917-5.2313 1.3768zm3.0371-2.36c1.4321-0.74057 1.3721-2.1455-0.16418-3.846-1.0569-1.1699-2.1852-1.3969-3.0505-0.61378-1.2943 1.1713 0.22616 4.2672 2.3736 4.8329 0.04361 0.0115 0.42212-0.15639 0.84114-0.37308zm5.1477-2.8355c-0.11217-0.35342-0.067-0.62301 0.11447-0.68351 0.46861-0.1562 0.36367-0.78261-0.53898-3.2175-0.94423-2.547-1.2185-3.0032-1.6954-2.8202-0.30801 0.11819-0.64096-0.35636-0.64096-0.91356 0-0.24374 1.55-1.1047 2.5373-1.4094 0.40641-0.12541 0.61867-0.0233 0.80103 0.3854l0.2481 0.55601 0.65579-1.0147c0.45671-0.70663 0.99437-1.1319 1.7711-1.4008l1.1153-0.3861 1.5246 1.1272 0.43249-0.90692c0.4957-1.0395 1.836-1.9592 2.8574-1.9606 1.209-2e-3 1.8562 0.83245 2.9979 3.8641 0.89098 2.3658 1.1902 2.8969 1.6711 2.9664 0.3222 0.0465 0.58582 0.18559 0.58582 0.30909 0 0.12349 0.0653 0.3948 0.14519 0.60291 0.21684 0.56507-3.8059 2.0116-4.1376 1.4878-0.30632-0.48371-0.2984-0.67972 0.05-1.2376 0.22809-0.36524 0.10813-0.9398-0.5555-2.6606-0.46552-1.2072-1.0304-2.2654-1.2552-2.3517-0.4921-0.18883-1.0355 0.49088-1.4198 1.7761-0.36602 1.2239 0.5705 3.9738 1.3533 3.9738 0.52969 0 0.99074 0.9786 0.62042 1.3169-0.29982 0.27387-3.1924 1.329-3.6434 1.329-0.46823 0-0.7535-1.1154-0.34917-1.3653 0.65303-0.40359-1.1431-5.3337-1.8924-5.1944-0.65679 0.12209-1.396 1.7902-1.2656 2.8556 0.18646 1.5224 0.88154 2.9104 1.4574 2.9104 0.51968 0 0.99725 1.0231 0.63101 1.3518-0.2823 0.25337-3.1947 1.294-3.6214 1.294-0.20302 0-0.45248-0.26263-0.55436-0.58361zm17.344-4.73c-1.0195-0.37544-1.3027-1.0733-1.7202-4.2388-0.41934-3.1794-0.49363-3.4122-1.0887-3.4122-0.26313 0-0.37078-0.20338-0.31511-0.59532 0.0708-0.49855 0.34194-0.6461 1.6682-0.90784 0.87101-0.17188 1.616-0.28013 1.6556-0.24053 0.0396 0.0396 0.2544 1.5453 0.47734 3.3461 0.22919 1.8513 0.54383 3.3597 0.72404 3.4711 0.48382 0.29901 1.2719-0.35355 1.9979-1.6544 0.55307-0.99093 0.62387-1.3645 0.46242-2.4403-0.15167-1.0106-0.32209-1.3202-0.83385-1.5148-1.094-0.41594-0.82179-1.2082 0.53227-1.5492 0.64652-0.1628 1.4664-0.29599 1.822-0.29599h0.64655l0.15169 1.1245c0.0834 0.61846 0.2922 2.3008 0.46392 3.7386 0.25957 2.1732 0.39524 2.6358 0.80439 2.7428 0.32896 0.086 0.49216 0.36941 0.49216 0.85458v0.72587l-1.5034 0.15516c-1.7712 0.1828-1.9362 0.11314-1.9362-0.81717v-0.7048l-0.78957 0.86447c-0.70425 0.77105-2.2858 1.6698-2.84 1.6138-0.11382-0.0115-0.50602-0.13103-0.87156-0.26564z" fill="#93d7af"/>
   <path d="m99.88 187.45c-18.946-3.0629-32.927-18.735-33.666-37.738-0.75751-19.477 12.449-36.312 31.764-40.493 2.2283-0.48226 3.5672-0.58576 7.7228-0.597l5.0271-0.0136 2.887 0.61783c14.819 3.1712 26.252 13.758 30.43 28.177 2.1456 7.4041 1.8919 16.349-0.67066 23.645-4.6634 13.277-15.789 23.075-29.551 26.024-3.4184 0.73262-10.55 0.92529-13.943 0.3767zm13.494-3.2676c7.2128-1.5923 13.199-4.8691 18.404-10.074 4.337-4.337 7.0583-8.739 8.9856-14.535 5.1738-15.56-0.80403-32.826-14.529-41.963-5.9713-3.9753-11.665-5.8178-18.946-6.1312-10.416-0.44824-19.943 3.286-27.401 10.74-5.2476 5.2446-8.6206 11.471-10.184 18.801-0.67113 3.1463-0.79447 8.843-0.26924 12.435 0.49346 3.3751 1.982 8.1804 3.4162 11.028 3.4728 6.896 9.7367 13.175 16.583 16.623 3.2877 1.6557 8.3825 3.1917 12.167 3.6682 2.2541 0.28383 9.4429-0.078 11.774-0.59263zm-6.3103-4.8104c-1.8984-0.31854-1.9223-0.33892-2.5198-2.1508-0.93942-2.8489-1.3856-5.4998-1.5481-9.1973-0.17633-4.0125-0.37776-3.9388-1.0411 0.38093-0.28921 1.8832-0.35859 3.5419-0.24072 5.7547 0.0998 1.8735 0.0671 3.1089-0.0822 3.1089-0.48958 0-3.1161-2.3472-4.203-3.756-1.2191-1.5802-2.3955-3.9919-3.139-6.4349-0.67168-2.2073-0.6649-7.7277 0.01267-10.314 1.6493-6.296 6.5267-12.18 12.75-15.383 2.5554-1.3149 3.7273-1.4415 6.9905-0.75503 7.794 1.6395 14.544 7.4071 17.329 14.808l0.6738 1.7902-0.27689 1.9908c-0.80673 5.8002-2.969 10.353-6.6652 14.035-4.9466 4.9274-11.635 7.1973-18.041 6.1226zm-25.098-21.433c-0.24862-0.14494-0.39203-0.41991-0.31869-0.61102 0.18574-0.48402-0.08209-0.66382-4.1723-2.801l-3.6201-1.8915-0.54281 0.33899c-0.45594 0.28474-0.61274 0.26906-0.97974-0.0979l-0.43693-0.43693 0.9895-1.8069c1.1991-2.1896 1.0422-2.0245 1.719-1.8097 0.38233 0.12135 0.51347 0.32491 0.41307 0.64122-0.08447 0.26614 0.05163 0.63486 0.31967 0.86609 0.59329 0.51179 6.6867 3.6549 7.0856 3.6549 0.16433 0 0.56867-0.5404 0.89854-1.2009l0.59976-1.2009-0.44792-0.68362c-0.37745-0.57606-0.39496-0.78257-0.11128-1.3126 0.18515-0.34596 0.4439-0.62902 0.57499-0.62902 0.37378 0 2.5826 1.5851 2.5826 1.8534 0 0.37855-3.7293 7.408-3.9254 7.399-0.0966-4e-3 -0.37904-0.12663-0.62766-0.27158zm49.4-6.617c-2.6423-5.6236-8.6507-10.458-14.619-11.763-3.2296-0.70614-3.3423-0.80053-1.3663-1.145 9.4904-1.6544 17.318 4.4277 16.859 13.099l-0.0794 1.4983zm-44.378-2.9105c-0.39677-0.10887-1.7065-1.0452-2.9104-2.0808-1.6422-1.4125-2.3302-1.8489-2.7541-1.7469-1.0641 0.25601-1.2306-0.46852-0.37822-1.6453 0.42681-0.58919 0.908-1.1528 1.0693-1.2525 0.1613-0.0997 0.95757 0.39444 1.7695 1.0981 2.6152 2.2664 3.614 3.0147 3.8977 2.9201 0.45242-0.15081 0.60585-1.2927 0.34489-2.5668-0.25922-1.2656-0.66173-1.8536-1.8479-2.699-0.60308-0.42986-0.80973-0.46485-1.1378-0.19261-0.32551 0.27015-0.47731 0.25617-0.80787-0.0744l-0.40704-0.40704 0.97431-1.3562c0.53587-0.7459 1.0524-1.3525 1.1479-1.348 0.09549 4e-3 1.4167 1.077 2.9361 2.3834 2.0578 1.7693 2.9261 2.3578 3.4038 2.3069 0.36296-0.0386 0.76186 0.11803 0.91896 0.36087 0.21798 0.33698 0.08363 0.66262-0.62572 1.5166-0.97971 1.1795-1.3226 1.3107-1.8293 0.70013-0.52038-0.62702-0.69598-0.46962-0.58042 0.52027 0.14793 1.2671-0.81158 3.1979-1.748 3.5174-0.39286 0.13406-1.0389 0.15466-1.4357 0.0458zm6.4638-8.4703c-1.7804-0.90123-3.2305-3.1762-3.2275-5.0636 0.0019-1.1925 1.0119-2.7572 2.3675-3.6677 2.1746-1.4605 4.0271-1.2676 5.7092 0.59429 2.499 2.7661 2.2911 5.7155-0.54134 7.6786-1.4871 1.0307-2.8836 1.1793-4.3078 0.45832zm3.5615-2.5118c0.5534-0.5534 0.65327-0.85113 0.53336-1.59-0.18782-1.1574-1.0595-2.3855-2.0606-2.9032-0.65433-0.33837-0.89573-0.34843-1.4928-0.0622-1.63 0.78158-1.6078 2.3414 0.05814 4.0801 1.2818 1.3377 1.9863 1.4508 2.9618 0.47532zm4.7909-2.428c-0.0546-0.25466 0.026-0.67355 0.17904-0.93086 0.21127-0.35525 0.0959-0.99198-0.4792-2.6458-0.86834-2.4969-1.3512-3.3686-1.8662-3.3686-0.32482 0-0.81388-0.75174-0.61709-0.94853 0.04347-0.0435 0.73088-0.38263 1.5276-0.7537l1.4486-0.67468 0.57632 1.3691 0.34209-0.82589c0.69718-1.6831 3.0701-2.5332 4.2048-1.5064l0.51746 0.46828 0.16715-0.52667c0.5535-1.7439 2.6436-2.7859 4.089-2.0385 0.61734 0.31924 0.94628 0.85203 1.5983 2.5887 1.2864 3.4267 1.5439 3.9065 2.0958 3.9065 0.31881 0 0.54649 0.22956 0.62261 0.62776l0.12 0.62775-1.7428 0.606c-0.95854 0.3333-1.8809 0.65474-2.0496 0.7143-0.45687 0.16125-0.69159-0.8796-0.32922-1.4598 0.25891-0.41458 0.1739-0.87568-0.47634-2.5837-1.1541-3.0316-2.0241-3.2812-2.724-0.78148l-0.33045 1.1803 0.59279 1.4605c0.40611 1.0006 0.74083 1.4605 1.0629 1.4605 0.42595 0 0.79133 0.48798 0.79133 1.0568 0 0.31864-3.6384 1.6609-3.9612 1.4613-0.35254-0.21788-0.34991-1.0116 5e-3 -1.3661 0.19245-0.19245 9e-3 -0.99358-0.60299-2.6326-0.6864-1.8385-0.99091-2.356-1.3863-2.356-0.61806 0-1.4924 1.411-1.5092 2.4354-0.0199 1.2143 0.99849 3.2531 1.6249 3.2531 0.29621 0 0.53857 0.10932 0.53857 0.24294s0.0671 0.41795 0.14923 0.63185c0.10958 0.28555-0.33142 0.57258-1.6592 1.08-2.1367 0.81646-2.3882 0.83923-2.5191 0.22804zm16.625-5.3265c-0.55843-0.61706-0.85664-1.743-1.091-4.1193-0.21812-2.2112-0.50759-3.0557-1.0474-3.0557-0.2238 0-0.40343-0.23008-0.40343-0.51673 0-0.37174 0.27841-0.59405 0.99219-0.79228 1.1872-0.32969 2.4474-0.36225 2.4474-0.0632 0 0.97544 0.84593 6.2928 1.0305 6.4773 0.39834 0.39834 1.2939-0.28354 2.0364-1.5505 0.58838-1.004 0.68095-1.4196 0.57102-2.5636-0.0722-0.75096-0.26748-1.4108-0.43406-1.4663-0.56422-0.18808-1.1254-0.91508-0.88888-1.1516 0.27223-0.27223 3.1705-0.91546 3.3381-0.74086 0.0628 0.0654 0.30733 1.7119 0.54337 3.6588 0.46121 3.8041 0.51503 4.0007 1.0952 4.0007 0.47419 0 0.51967 1.297 0.0505 1.441-0.1819 0.0558-0.89961 0.16934-1.5949 0.25224l-1.2642 0.15072-0.15849-0.79242-0.15848-0.79242-1.1511 1.061c-0.9771 0.90066-1.3258 1.061-2.3066 1.061-0.7953 0-1.296-0.15521-1.6061-0.49787z" fill="#de8d6b"/>
   <path d="m99.88 187.45c-18.946-3.0629-32.927-18.735-33.666-37.738-0.75751-19.477 12.449-36.312 31.764-40.493 2.2283-0.48226 3.5672-0.58576 7.7228-0.597l5.0271-0.0136 2.887 0.61783c14.819 3.1712 26.252 13.758 30.43 28.177 2.1456 7.4041 1.8919 16.349-0.67066 23.645-4.6634 13.277-15.789 23.075-29.551 26.024-3.4184 0.73262-10.55 0.92529-13.943 0.3767zm13.494-3.2676c7.2128-1.5923 13.199-4.8691 18.404-10.074 4.337-4.337 7.0583-8.739 8.9856-14.535 5.1738-15.56-0.80403-32.826-14.529-41.963-5.9713-3.9753-11.665-5.8178-18.946-6.1312-10.416-0.44824-19.943 3.286-27.401 10.74-5.2476 5.2446-8.6206 11.471-10.184 18.801-0.67113 3.1463-0.79447 8.843-0.26924 12.435 0.49346 3.3751 1.982 8.1804 3.4162 11.028 3.4728 6.896 9.7367 13.175 16.583 16.623 3.2877 1.6557 8.3825 3.1917 12.167 3.6682 2.2541 0.28383 9.4429-0.078 11.774-0.59263zm-7.0018-5.1494-1.181-0.30943-0.60901-1.9502c-0.91166-2.9194-1.3924-6.3949-1.3936-10.075-5.3e-4 -1.9294-0.0983-3.1899-0.23581-3.0427-0.82439 0.88274-1.564 6.7124-1.3528 10.662 0.0728 1.3604 0.0541 2.5214-0.0414 2.58-0.31092 0.19078-3.0505-2.2233-3.9975-3.5226-1.2439-1.7066-2.1261-3.5123-3.02-6.1815l-0.74632-2.2286 0.01688-3.175c0.01548-2.9123 0.6137-6.5812 1.1432-7.0115 0.08954-0.0728 0.54813-0.9349 1.0191-1.9159 2.3208-4.8341 6.866-9.2751 11.914-11.641l2.2537-1.0561 2.0131 0.32249c8.1623 1.3075 14.562 5.8804 18.156 12.974 1.6 3.1575 1.7094 4.1033 0.90423 7.8196-1.941 8.9588-7.9526 15.467-16.23 17.57-2.3774 0.60416-6.653 0.69342-8.6131 0.17983zm-24.406-21.094c-0.24862-0.14494-0.39203-0.41991-0.31869-0.61102 0.18574-0.48402-0.08209-0.66382-4.1723-2.801l-3.6201-1.8915-0.54281 0.33899c-0.45594 0.28474-0.61274 0.26906-0.97974-0.0979l-0.43693-0.43693 0.9895-1.8069c1.1991-2.1896 1.0422-2.0245 1.719-1.8097 0.38233 0.12135 0.51347 0.32491 0.41307 0.64122-0.08447 0.26614 0.05163 0.63486 0.31967 0.86609 0.59329 0.51179 6.6867 3.6549 7.0856 3.6549 0.16433 0 0.56867-0.5404 0.89854-1.2009l0.59976-1.2009-0.44792-0.68362c-0.37745-0.57606-0.39496-0.78257-0.11128-1.3126 0.18515-0.34596 0.4439-0.62902 0.57499-0.62902 0.37378 0 2.5826 1.5851 2.5826 1.8534 0 0.37855-3.7293 7.408-3.9254 7.399-0.0966-4e-3 -0.37904-0.12663-0.62766-0.27158zm49.4-6.617c-2.6423-5.6236-8.6507-10.458-14.619-11.763-3.2296-0.70614-3.3423-0.80053-1.3663-1.145 9.4904-1.6544 17.318 4.4277 16.859 13.099l-0.0794 1.4983zm-44.378-2.9105c-0.39677-0.10887-1.7065-1.0452-2.9104-2.0808-1.6422-1.4125-2.3302-1.8489-2.7541-1.7469-1.0641 0.25601-1.2306-0.46852-0.37822-1.6453 0.42681-0.58919 0.908-1.1528 1.0693-1.2525 0.1613-0.0997 0.95757 0.39444 1.7695 1.0981 2.6152 2.2664 3.614 3.0147 3.8977 2.9201 0.45242-0.15081 0.60585-1.2927 0.34489-2.5668-0.25922-1.2656-0.66173-1.8536-1.8479-2.699-0.60308-0.42986-0.80973-0.46485-1.1378-0.19261-0.32551 0.27015-0.47731 0.25617-0.80787-0.0744l-0.40704-0.40704 0.97431-1.3562c0.53587-0.7459 1.0524-1.3525 1.1479-1.348 0.09549 4e-3 1.4167 1.077 2.9361 2.3834 2.0578 1.7693 2.9261 2.3578 3.4038 2.3069 0.36296-0.0386 0.76186 0.11803 0.91896 0.36087 0.21798 0.33698 0.08363 0.66262-0.62572 1.5166-0.97971 1.1795-1.3226 1.3107-1.8293 0.70013-0.52038-0.62702-0.69598-0.46962-0.58042 0.52027 0.14793 1.2671-0.81158 3.1979-1.748 3.5174-0.39286 0.13406-1.0389 0.15466-1.4357 0.0458zm6.4638-8.4703c-1.7804-0.90123-3.2305-3.1762-3.2275-5.0636 0.0019-1.1925 1.0119-2.7572 2.3675-3.6677 2.1746-1.4605 4.0271-1.2676 5.7092 0.59429 2.499 2.7661 2.2911 5.7155-0.54134 7.6786-1.4871 1.0307-2.8836 1.1793-4.3078 0.45832zm3.5615-2.5118c0.5534-0.5534 0.65327-0.85113 0.53336-1.59-0.18782-1.1574-1.0595-2.3855-2.0606-2.9032-0.65433-0.33837-0.89573-0.34843-1.4928-0.0622-1.63 0.78158-1.6078 2.3414 0.05814 4.0801 1.2818 1.3377 1.9863 1.4508 2.9618 0.47532zm4.7909-2.428c-0.0546-0.25466 0.026-0.67355 0.17904-0.93086 0.21127-0.35525 0.0959-0.99198-0.4792-2.6458-0.86834-2.4969-1.3512-3.3686-1.8662-3.3686-0.32482 0-0.81388-0.75174-0.61709-0.94853 0.04347-0.0435 0.73088-0.38263 1.5276-0.7537l1.4486-0.67468 0.57632 1.3691 0.34209-0.82589c0.69718-1.6831 3.0701-2.5332 4.2048-1.5064l0.51746 0.46828 0.16715-0.52667c0.5535-1.7439 2.6436-2.7859 4.089-2.0385 0.61734 0.31924 0.94628 0.85203 1.5983 2.5887 1.2864 3.4267 1.5439 3.9065 2.0958 3.9065 0.31881 0 0.54649 0.22956 0.62261 0.62776l0.12 0.62775-1.7428 0.606c-0.95854 0.3333-1.8809 0.65474-2.0496 0.7143-0.45687 0.16125-0.69159-0.8796-0.32922-1.4598 0.25891-0.41458 0.1739-0.87568-0.47634-2.5837-1.1541-3.0316-2.0241-3.2812-2.724-0.78148l-0.33045 1.1803 0.59279 1.4605c0.40611 1.0006 0.74083 1.4605 1.0629 1.4605 0.42595 0 0.79133 0.48798 0.79133 1.0568 0 0.31864-3.6384 1.6609-3.9612 1.4613-0.35254-0.21788-0.34991-1.0116 5e-3 -1.3661 0.19245-0.19245 9e-3 -0.99358-0.60299-2.6326-0.6864-1.8385-0.99091-2.356-1.3863-2.356-0.61806 0-1.4924 1.411-1.5092 2.4354-0.0199 1.2143 0.99849 3.2531 1.6249 3.2531 0.29621 0 0.53857 0.10932 0.53857 0.24294s0.0671 0.41795 0.14923 0.63185c0.10958 0.28555-0.33142 0.57258-1.6592 1.08-2.1367 0.81646-2.3882 0.83923-2.5191 0.22804zm16.625-5.3265c-0.55843-0.61706-0.85664-1.743-1.091-4.1193-0.21812-2.2112-0.50759-3.0557-1.0474-3.0557-0.2238 0-0.40343-0.23008-0.40343-0.51673 0-0.37174 0.27841-0.59405 0.99219-0.79228 1.1872-0.32969 2.4474-0.36225 2.4474-0.0632 0 0.97544 0.84593 6.2928 1.0305 6.4773 0.39834 0.39834 1.2939-0.28354 2.0364-1.5505 0.58838-1.004 0.68095-1.4196 0.57102-2.5636-0.0722-0.75096-0.26748-1.4108-0.43406-1.4663-0.56422-0.18808-1.1254-0.91508-0.88888-1.1516 0.27223-0.27223 3.1705-0.91546 3.3381-0.74086 0.0628 0.0654 0.30733 1.7119 0.54337 3.6588 0.46121 3.8041 0.51503 4.0007 1.0952 4.0007 0.47419 0 0.51967 1.297 0.0505 1.441-0.1819 0.0558-0.89961 0.16934-1.5949 0.25224l-1.2642 0.15072-0.15849-0.79242-0.15848-0.79242-1.1511 1.061c-0.9771 0.90066-1.3258 1.061-2.3066 1.061-0.7953 0-1.296-0.15521-1.6061-0.49787z" fill="#6dbd90"/>
   <path d="m100.45 187.46c-12.251-1.7571-23.005-9.0946-29.16-19.896-8.5971-15.086-6.175-34.077 5.9606-46.735 15.252-15.91 40.057-16.48 55.889-1.2846 9.3358 8.9608 13.724 21.382 11.977 33.906-2.3376 16.76-14.841 30.107-31.475 33.599-3.489 0.73251-9.619 0.92361-13.191 0.41124zm11.083-2.9091c5.2403-0.84995 10.866-3.0834 15.14-6.0108 2.7926-1.9126 7.0794-6.1161 9.074-8.8976 7.7937-10.869 9.0648-25.249 3.2961-37.289-1.8675-3.8977-3.6608-6.4628-6.8103-9.7411-11.161-11.617-28.52-14.572-42.95-7.3119-7.0395 3.5421-12.91 9.4785-16.517 16.703-3.982 7.9748-4.8036 17.69-2.2509 26.619 0.88587 3.0985 3.3629 8.134 5.4224 11.023 1.9338 2.7128 5.9435 6.6861 8.7323 8.653 4.1536 2.9295 9.6848 5.2377 14.684 6.1277 3.3157 0.59025 8.9525 0.64795 12.179 0.12467zm-5.1576-5.5186-1.181-0.30943-0.60901-1.9502c-0.91166-2.9194-1.3924-6.3949-1.3936-10.075-5.3e-4 -1.9294-0.0983-3.1899-0.23581-3.0427-0.82439 0.88274-1.564 6.7124-1.3528 10.662 0.0728 1.3604 0.0541 2.5214-0.0414 2.58-0.31092 0.19078-3.0505-2.2233-3.9975-3.5226-2.0333-2.7896-3.5669-6.924-3.8067-10.262-0.61156-8.5121 5.3769-17.787 14.133-21.891l2.2537-1.0561 2.0131 0.32249c8.1623 1.3075 14.562 5.8804 18.156 12.974 1.6 3.1575 1.7094 4.1033 0.90423 7.8196-1.941 8.9588-7.9526 15.467-16.23 17.57-2.3774 0.60416-6.653 0.69342-8.6131 0.17983zm-24.375-21.154c-0.23105-0.17727-0.37698-0.45007-0.32429-0.60621 0.15487-0.45892-0.63808-0.98754-4.3617-2.9077-2.9405-1.5163-3.5987-1.7644-4.006-1.5101-0.36927 0.23061-0.59164 0.22806-0.91782-0.0105l-0.43048-0.31491 0.97152-1.8521c0.53434-1.0186 1.0037-1.8927 1.0431-1.9424 0.03935-0.0497 0.31888-0.0118 0.62118 0.0841 0.41799 0.13266 0.51268 0.32164 0.39538 0.78902l-0.15425 0.61457 3.5601 1.881c1.958 1.0345 3.7552 1.881 3.9936 1.881 0.25069 0 0.67354-0.49395 1.0025-1.1711l0.56896-1.1711-0.44797-0.68369c-0.41606-0.635-0.33135-1.2892 0.255-1.9691 0.10715-0.12425 2.7523 1.5576 2.7523 1.75 0 0.27314-3.8177 7.4782-3.9581 7.4699-0.07864-5e-3 -0.33203-0.15346-0.56308-0.33073zm49.684-5.988c-1.4185-3.4641-4.9057-7.4376-8.4854-9.6687-2.0558-1.2813-6.5757-3.0437-7.8374-3.0559-1.1489-0.0111-1.4707-0.43136-0.48437-0.63249 5.2852-1.0777 10.464 0.25222 13.74 3.5287 2.4543 2.4543 3.8323 6.076 3.6303 9.5409l-0.0849 1.4552zm-45.295-3.7807c-0.29104-0.16616-1.4075-1.0654-2.4811-1.9984-1.4483-1.2586-2.0933-1.6593-2.4998-1.553-0.3013 0.0788-0.7001 0.0169-0.88622-0.13759-0.26729-0.22183-0.17217-0.52245 0.45268-1.4306 0.43509-0.63239 0.90799-1.222 1.0509-1.3104 0.1429-0.0883 1.3617 0.79632 2.7086 1.9659 1.3468 1.1696 2.5934 2.1287 2.7702 2.1314 0.68488 0.0107 0.94985-1.0692 0.62191-2.5346-0.24114-1.0775-0.5497-1.6095-1.3561-2.338-1.1404-1.0303-1.3156-1.0933-1.772-0.63686-0.23199 0.232-0.40614 0.22342-0.71796-0.0354l-0.41167-0.34166 0.46661-0.71508c0.25663-0.39329 0.72864-1.0408 1.0489-1.439l0.58229-0.72388 2.8209 2.4216c2.2562 1.9368 2.9413 2.3914 3.4223 2.2706 0.78186-0.19624 1.3292 0.41683 0.96768 1.0838-0.1431 0.26396-0.6076 0.81046-1.0322 1.2144l-0.77206 0.73451-0.74469-0.58577-0.74469-0.58578 0.171 0.91154c0.36183 1.9287-0.83304 3.957-2.3224 3.9423-0.44758-4e-3 -1.0519-0.144-1.3429-0.31017zm7.6729-7.898c-0.96029-0.28602-2.0231-1.2433-2.9717-2.6768-0.92312-1.3949-1.005-3.5155-0.17873-4.6311 0.85456-1.1539 2.6019-2.3802 3.6797-2.5824 2.3051-0.43243 5.138 2.2276 5.3715 5.0437 0.10049 1.2118 0.01431 1.5848-0.57018 2.468-1.1718 1.7707-3.6535 2.878-5.3306 2.3785zm2.8747-2.6509c1.0933-0.85999 0.91341-2.3883-0.4604-3.9115-1.2371-1.3716-2.9913-1.2551-3.6104 0.23975l-0.31546 0.76159 0.59347 1.2259c0.58068 1.1995 1.8124 2.2296 2.6684 2.2316 0.23504 5.3e-4 0.74105-0.24577 1.1245-0.54738zm4.9305-2.706c0-0.3347 0.11087-0.72165 0.24638-0.8599 0.15267-0.15576 2e-3 -0.95572-0.39561-2.1034-1.0287-2.9678-1.4769-3.8364-1.9793-3.8364-0.25337 0-0.53575-0.19564-0.6275-0.43475-0.19818-0.51644-0.28767-0.42462 1.0919-1.1202 1.411-0.7115 1.7836-0.70587 2.1128 0.0319l0.26488 0.59363 0.43173-0.83485c0.90486-1.7498 2.7669-2.4531 4.0729-1.5383l0.57338 0.40161 0.44721-0.94243c0.52167-1.0993 1.5528-1.7129 2.8788-1.7129 1.2548 0 1.6556 0.51779 2.8219 3.6453 0.74747 2.0044 1.1126 2.6487 1.6536 2.9176 1.2485 0.62066 0.88308 1.2283-1.2016 1.998-1.0428 0.385-1.921 0.67014-1.9515 0.63365-0.26341-0.31474-0.36768-1.257-0.13909-1.257 0.48062 0 0.31585-0.9887-0.53057-3.1835-0.62158-1.6118-0.93161-2.1081-1.3168-2.1081-0.62089 0-1.2867 0.97196-1.4762 2.1548-0.207 1.2926 0.66907 3.5088 1.4303 3.6183 0.32347 0.0465 0.58813 0.18559 0.58813 0.30909s0.0649 0.39364 0.1442 0.60032c0.10385 0.27063-0.38634 0.57166-1.7518 1.0758-1.0428 0.385-2.0007 0.63533-2.1286 0.55628-0.31488-0.19461-0.29442-1.0031 0.0337-1.3312 0.25889-0.25889-0.59171-3.2327-1.3069-4.569-0.5735-1.0716-1.6192-0.41931-2.0678 1.2898-0.3713 1.4147 0.7381 4.3374 1.5778 4.1567 0.14218-0.0306 0.35826 0.20137 0.48019 0.51549l0.22169 0.57114-1.8498 0.68563c-2.256 0.83624-2.3486 0.83928-2.3486 0.0771zm16.87-4.9671c-0.72817-0.42423-0.95122-1.0615-1.2523-3.5779-0.38847-3.2471-0.52558-3.8111-0.92651-3.8111-0.48154 0-0.75935-0.83881-0.35962-1.0859 0.36303-0.22436 2.8504-0.60985 2.9853-0.46266 0.047 0.0513 0.26277 1.5013 0.47943 3.2223 0.21665 1.7209 0.51974 3.2548 0.67351 3.4086 0.40902 0.40901 0.95741 0.10809 1.7884-0.98133 1.2015-1.5752 1.183-4.8948-0.0273-4.8948-0.21316 0-0.38756-0.22186-0.38756-0.49302 0-0.38897 0.33638-0.56439 1.594-0.83129 0.87673-0.18606 1.6328-0.29162 1.6801-0.23459 0.0473 0.057 0.26846 1.7069 0.49137 3.6665l0.40529 3.5628 0.56041 0.3721c0.65968 0.43801 0.73724 1.2414 0.14189 1.4699-0.23018 0.0883-0.94754 0.1606-1.5941 0.1606h-1.1756l-0.16411-0.82057-0.16412-0.82058-0.6463 0.82582c-1.1122 1.4212-2.9297 2.0083-4.1022 1.3251z" fill="#e75c25"/>
   <path d="m100.45 187.46c-12.251-1.7571-23.005-9.0946-29.16-19.896-8.5971-15.086-6.175-34.077 5.9606-46.735 15.252-15.91 40.057-16.48 55.889-1.2846 9.3358 8.9608 13.724 21.382 11.977 33.906-2.3376 16.76-14.841 30.107-31.475 33.599-3.489 0.73251-9.619 0.92361-13.191 0.41124zm11.083-2.9091c5.2403-0.84995 10.866-3.0834 15.14-6.0108 2.7926-1.9126 7.0794-6.1161 9.074-8.8976 7.7937-10.869 9.0648-25.249 3.2961-37.289-1.8675-3.8977-3.6608-6.4628-6.8103-9.7411-11.161-11.617-28.52-14.572-42.95-7.3119-7.0395 3.5421-12.91 9.4785-16.517 16.703-3.982 7.9748-4.8036 17.69-2.2509 26.619 0.88587 3.0985 3.3629 8.134 5.4224 11.023 1.9338 2.7128 5.9435 6.6861 8.7323 8.653 4.1536 2.9295 9.6848 5.2377 14.684 6.1277 3.3157 0.59025 8.9525 0.64795 12.179 0.12467zm1.3849-13.368c-4.3626-1.3136-5.7232-7.0141-2.4086-10.091 1.5947-1.4805 3.4514-2.0146 5.3882-1.5499 3.5055 0.84095 5.483 4.2563 4.4537 7.6918-0.88126 2.9414-4.4622 4.8439-7.4334 3.9493zm-19.13-7.2785c-0.219-2.045 0.0289-4.8996 0.63173-7.2747l0.4365-1.7198 0.66146 0.0742c1.5292 0.17162 3.346 2.4244 3.6234 4.4929 0.30061 2.2412-1.094 4.6873-3.2243 5.655-1.7713 0.80469-1.9204 0.71872-2.1288-1.2277zm-11.787-6.0264c-0.23105-0.17727-0.37698-0.45007-0.32429-0.60621 0.15487-0.45892-0.63808-0.98754-4.3617-2.9077-2.9405-1.5163-3.5987-1.7644-4.006-1.5101-0.36927 0.23061-0.59164 0.22806-0.91782-0.0105l-0.43048-0.31491 0.97152-1.8521c0.53434-1.0186 1.0037-1.8927 1.0431-1.9424 0.03935-0.0497 0.31888-0.0118 0.62118 0.0841 0.41799 0.13266 0.51268 0.32164 0.39538 0.78902l-0.15425 0.61457 3.5601 1.881c1.958 1.0345 3.7552 1.881 3.9936 1.881 0.25069 0 0.67354-0.49395 1.0025-1.1711l0.56896-1.1711-0.44797-0.68369c-0.41606-0.635-0.33135-1.2892 0.255-1.9691 0.10715-0.12425 2.7523 1.5576 2.7523 1.75 0 0.27314-3.8177 7.4782-3.9581 7.4699-0.07864-5e-3 -0.33203-0.15346-0.56308-0.33073zm49.684-5.988c-1.4185-3.4641-4.9057-7.4376-8.4854-9.6687-2.0558-1.2813-6.5757-3.0437-7.8374-3.0559-1.1489-0.0111-1.4707-0.43136-0.48437-0.63249 5.2852-1.0777 10.464 0.25222 13.74 3.5287 2.4543 2.4543 3.8323 6.076 3.6303 9.5409l-0.0849 1.4552zm-22.069-2.8458c-0.59909-0.38845-1.2182-0.98937-1.3759-1.3354-1.1265-2.4724 1.3501-5.1021 4.805-5.1021 1.8871 0 3.0444 0.45673 3.9827 1.5718 1.3191 1.5677 0.64894 3.7276-1.5415 4.9682-1.5949 0.90334-4.3944 0.85442-5.8703-0.10259zm-23.226-0.93485c-0.29104-0.16616-1.4075-1.0654-2.4811-1.9984-1.4483-1.2586-2.0933-1.6593-2.4998-1.553-0.3013 0.0788-0.7001 0.0169-0.88622-0.13759-0.26729-0.22183-0.17217-0.52245 0.45268-1.4306 0.43509-0.63239 0.90799-1.222 1.0509-1.3104 0.1429-0.0883 1.3617 0.79632 2.7086 1.9659 1.3468 1.1696 2.5934 2.1287 2.7702 2.1314 0.68488 0.0107 0.94985-1.0692 0.62191-2.5346-0.24114-1.0775-0.5497-1.6095-1.3561-2.338-1.1404-1.0303-1.3156-1.0933-1.772-0.63686-0.23199 0.232-0.40614 0.22342-0.71796-0.0354l-0.41167-0.34166 0.46661-0.71508c0.25663-0.39329 0.72864-1.0408 1.0489-1.439l0.58229-0.72388 2.8209 2.4216c2.2562 1.9368 2.9413 2.3914 3.4223 2.2706 0.78186-0.19624 1.3292 0.41683 0.96768 1.0838-0.1431 0.26396-0.6076 0.81046-1.0322 1.2144l-0.77206 0.73451-0.74469-0.58577-0.74469-0.58578 0.171 0.91154c0.36183 1.9287-0.83304 3.957-2.3224 3.9423-0.44758-4e-3 -1.0519-0.144-1.3429-0.31017zm7.6729-7.898c-0.96029-0.28602-2.0231-1.2433-2.9717-2.6768-0.92312-1.3949-1.005-3.5155-0.17873-4.6311 0.85456-1.1539 2.6019-2.3802 3.6797-2.5824 2.3051-0.43243 5.138 2.2276 5.3715 5.0437 0.10049 1.2118 0.01431 1.5848-0.57018 2.468-1.1718 1.7707-3.6535 2.878-5.3306 2.3785zm2.8747-2.6509c1.0933-0.85999 0.91341-2.3883-0.4604-3.9115-1.2371-1.3716-2.9913-1.2551-3.6104 0.23975l-0.31546 0.76159 0.59347 1.2259c0.58068 1.1995 1.8124 2.2296 2.6684 2.2316 0.23504 5.3e-4 0.74105-0.24577 1.1245-0.54738zm4.9305-2.706c0-0.3347 0.11087-0.72165 0.24638-0.8599 0.15267-0.15576 2e-3 -0.95572-0.39561-2.1034-1.0287-2.9678-1.4769-3.8364-1.9793-3.8364-0.25337 0-0.53575-0.19564-0.6275-0.43475-0.19818-0.51644-0.28767-0.42462 1.0919-1.1202 1.411-0.7115 1.7836-0.70587 2.1128 0.0319l0.26488 0.59363 0.43173-0.83485c0.90486-1.7498 2.7669-2.4531 4.0729-1.5383l0.57338 0.40161 0.44721-0.94243c0.52167-1.0993 1.5528-1.7129 2.8788-1.7129 1.2548 0 1.6556 0.51779 2.8219 3.6453 0.74747 2.0044 1.1126 2.6487 1.6536 2.9176 1.2485 0.62066 0.88308 1.2283-1.2016 1.998-1.0428 0.385-1.921 0.67014-1.9515 0.63365-0.26341-0.31474-0.36768-1.257-0.13909-1.257 0.48062 0 0.31585-0.9887-0.53057-3.1835-0.62158-1.6118-0.93161-2.1081-1.3168-2.1081-0.62089 0-1.2867 0.97196-1.4762 2.1548-0.207 1.2926 0.66907 3.5088 1.4303 3.6183 0.32347 0.0465 0.58813 0.18559 0.58813 0.30909s0.0649 0.39364 0.1442 0.60032c0.10385 0.27063-0.38634 0.57166-1.7518 1.0758-1.0428 0.385-2.0007 0.63533-2.1286 0.55628-0.31488-0.19461-0.29442-1.0031 0.0337-1.3312 0.25889-0.25889-0.59171-3.2327-1.3069-4.569-0.5735-1.0716-1.6192-0.41931-2.0678 1.2898-0.3713 1.4147 0.7381 4.3374 1.5778 4.1567 0.14218-0.0306 0.35826 0.20137 0.48019 0.51549l0.22169 0.57114-1.8498 0.68563c-2.256 0.83624-2.3486 0.83928-2.3486 0.0771zm16.87-4.9671c-0.72817-0.42423-0.95122-1.0615-1.2523-3.5779-0.38847-3.2471-0.52558-3.8111-0.92651-3.8111-0.48154 0-0.75935-0.83881-0.35962-1.0859 0.36303-0.22436 2.8504-0.60985 2.9853-0.46266 0.047 0.0513 0.26277 1.5013 0.47943 3.2223 0.21665 1.7209 0.51974 3.2548 0.67351 3.4086 0.40902 0.40901 0.95741 0.10809 1.7884-0.98133 1.2015-1.5752 1.183-4.8948-0.0273-4.8948-0.21316 0-0.38756-0.22186-0.38756-0.49302 0-0.38897 0.33638-0.56439 1.594-0.83129 0.87673-0.18606 1.6328-0.29162 1.6801-0.23459 0.0473 0.057 0.26846 1.7069 0.49137 3.6665l0.40529 3.5628 0.56041 0.3721c0.65968 0.43801 0.73724 1.2414 0.14189 1.4699-0.23018 0.0883-0.94754 0.1606-1.5941 0.1606h-1.1756l-0.16411-0.82057-0.16412-0.82058-0.6463 0.82582c-1.1122 1.4212-2.9297 2.0083-4.1022 1.3251z" fill="#4da371"/>
   <path d="m101.07 187.47c-4.9685-0.72091-8.6003-1.811-12.546-3.7657-5.0219-2.4879-9.4128-5.8975-12.817-9.953-10.162-12.105-12.31-28.387-5.5978-42.428 3.1597-6.6094 7.1138-11.308 13.102-15.57 7.3232-5.2116 17.249-7.9152 25.863-7.0444 13.366 1.3512 24.597 8.5534 31.199 20.008 3.452 5.9893 5.5375 14.516 5.1339 20.989-0.37855 6.0712-1.5498 10.566-4.1136 15.788-2.1642 4.4076-4.2436 7.3121-7.6712 10.716-5.7984 5.7575-13.23 9.5876-21.307 10.981-3.4337 0.59227-8.2616 0.7122-11.245 0.27935zm11.17-2.9398c10.979-1.8081 21.43-9.5565 26.513-19.656 5.2361-10.405 5.2947-22.878 0.15573-33.118-6.8198-13.589-21.122-21.631-36.185-20.346-7.1602 0.61066-13.309 2.9869-19.227 7.4298-10.148 7.6192-15.632 20.147-14.4 32.896 1.5544 16.086 13.264 29.066 29.459 32.658 3.7099 0.82271 9.1854 0.87733 13.684 0.13649zm0.67346-13.346c-4.3626-1.3136-5.7232-7.0141-2.4086-10.091 1.5947-1.4805 3.4514-2.0146 5.3882-1.5499 3.5055 0.84095 5.483 4.2563 4.4537 7.6918-0.88126 2.9414-4.4622 4.8439-7.4334 3.9493zm-19.086-7.4756c-0.18021-2.0128 0.13196-5.2379 0.72347-7.4745l0.34988-1.3229 0.63719 0.0742c0.88589 0.10321 2.3539 1.3524 2.9586 2.5176 1.4854 2.8623 0.31711 6.3126-2.5837 7.6304-1.7838 0.81034-1.8919 0.73645-2.0854-1.4248zm-11.896-5.9311c-0.09701-0.097-0.17639-0.37336-0.17639-0.61411 0-0.42039-1.9613-1.6287-6.0114-3.7035-1.2583-0.64459-1.8346-0.80166-2.4476-0.66702-1.2196 0.26786-1.2637-0.38759-0.15912-2.3628 1.0119-1.8094 1.6349-2.0608 1.7897-0.72201l0.08156 0.70521 3.3073 1.7659c1.819 0.97124 3.5728 1.7749 3.8972 1.7859 0.43044 0.0146 0.73445-0.26322 1.1245-1.0277 0.64396-1.2623 0.65963-1.5504 0.11691-2.1502l-0.41763-0.46148 0.44658-0.68156c0.24916-0.38025 0.57999-0.60312 0.74836-0.50414 1.1074 0.65102 2.0355 1.5518 1.9677 1.9099-0.04391 0.23194-0.82458 1.8802-1.7348 3.6629-1.5064 2.9502-2.0227 3.5749-2.5328 3.0648zm49.698-6.1679c-2.652-5.9334-8.8147-10.85-15.478-12.348l-1.9844-0.44612 0.79375-0.22804c1.2724-0.36554 5.692-0.34649 7.276 0.0314 3.9135 0.93352 6.9863 3.3071 8.5761 6.6245 0.95461 1.9919 1.571 4.804 1.43 6.5237l-0.0842 1.0264zm-22.018-2.5641c-0.59909-0.38845-1.2182-0.98937-1.3759-1.3354-1.1265-2.4724 1.3501-5.1021 4.805-5.1021 1.8871 0 3.0444 0.45673 3.9827 1.5718 1.3191 1.5677 0.64894 3.7276-1.5415 4.9682-1.5949 0.90334-4.3944 0.85442-5.8703-0.10259zm-22.961-0.87072c-0.29104-0.1213-1.4221-1.004-2.5135-1.9615-1.5635-1.3717-2.1667-1.7422-2.8443-1.7471-0.47294-3e-3 -0.8599-0.13593-0.8599-0.29458 0-0.44683 1.4182-2.3454 1.7567-2.3517 0.1658-3e-3 1.3437 0.88732 2.6177 1.9787 1.2739 1.0914 2.535 1.9844 2.8024 1.9844 0.68621 0 0.89388-1.1046 0.52096-2.771-0.25128-1.1228-0.51661-1.5564-1.3741-2.2455-0.78265-0.62895-1.2286-0.81232-1.6925-0.69588-0.34643 0.0869-0.7031 0.0396-0.79262-0.10525-0.18037-0.29184 1.3423-2.649 1.7112-2.649 0.1279 0 1.4021 1.0088 2.8316 2.2418 2.0729 1.788 2.7699 2.2432 3.4433 2.249 1.2414 0.0105 1.2869 0.40047 0.20112 1.7255l-0.97201 1.1862-1.5286-1.0885v1.3583c0 2.5439-1.4641 3.9543-3.3073 3.1861zm6.4823-8.5268c-1.1625-0.78575-2.5228-2.7836-2.7615-4.0557-0.42222-2.2506 2.0025-4.8724 4.7141-5.0973l1.4326-0.1188 1.2046 1.1104c2.1947 2.023 2.8534 4.3937 1.694 6.0968-1.6618 2.441-4.3973 3.3398-6.2839 2.0646zm3.56-1.7022c0.75805-0.29089 1.2091-1.5108 0.92877-2.5122-0.31171-1.1136-1.6365-2.5532-2.5636-2.7859-1.4342-0.35995-2.7422 1.1047-2.357 2.6392 0.09534 0.37987 0.62979 1.1705 1.1877 1.757 0.99775 1.0488 1.7722 1.2979 2.8042 0.90191zm5.2896-2.7686c-0.0931-0.15066-0.0331-0.60277 0.13338-1.0047l0.30268-0.73073-1.0113-2.6267c-0.82205-2.1352-1.1215-2.6426-1.6001-2.7113-1.0582-0.15195-0.69267-0.96699 0.73331-1.6349 0.72718-0.3406 1.3586-0.56931 1.4032-0.50825 0.0446 0.0611 0.20767 0.40867 0.36241 0.77247l0.28133 0.66146 0.4162-0.9864c0.45504-1.0784 1.7895-2.0538 2.8122-2.0553 0.35443-5.6e-4 0.9126 0.25096 1.2404 0.5589l0.59597 0.55989 0.3812-0.91234c0.53097-1.2708 1.6198-2.0595 2.8431-2.0595 1.2124 0 1.85 0.69031 2.5189 2.727 0.86498 2.6338 1.6724 4.2186 2.0712 4.0656 0.41628-0.15975 0.82411 0.58593 0.49533 0.90567-0.29765 0.28948-2.9329 1.2976-3.3919 1.2976-0.44464 0-0.5202-0.81939-0.11311-1.2265 0.29992-0.29991-1.0902-4.4508-1.6969-5.0671-0.48384-0.49147-1.1193-0.14759-1.6003 0.86597-0.58875 1.2407-0.59171 1.9186-0.0153 3.5183 0.36491 1.0128 0.67065 1.4398 1.1097 1.55 0.34738 0.0872 0.606 0.35287 0.606 0.62254 0 0.33895-0.49921 0.65572-1.7859 1.1333l-1.7859 0.66283-0.22586-0.39371c-0.13557-0.23634-0.10913-0.51043 0.0661-0.68571 0.16059-0.1606 0.29199-0.44056 0.29199-0.62213 0-0.74527-1.6505-4.8232-2.0075-4.9603-0.53942-0.20699-1.3458 0.68095-1.703 1.8754l-0.30131 1.0074 0.57575 1.5374c0.40562 1.0831 0.76381 1.6089 1.2122 1.7794 0.35004 0.13309 0.63644 0.42352 0.63644 0.6454s-0.0454 0.40342-0.10079 0.40342c-0.0554 0-0.88369 0.29468-1.8406 0.65485-1.1235 0.42287-1.7997 0.5578-1.9091 0.3809zm16.604-5.541c-0.65714-0.61222-0.7313-0.87474-1.119-3.9614-0.35164-2.7992-0.46244-3.175-0.93625-3.175-0.20847 0-0.37904-0.22399-0.37904-0.49776 0-0.36818 0.306-0.57481 1.1755-0.79375 1.9771-0.49784 1.8908-0.60376 2.2293 2.7355 0.16903 1.6673 0.3778 3.2151 0.46394 3.4396 0.25139 0.65511 0.99356 0.47394 1.8507-0.45179 1.0842-1.171 1.47-2.1793 1.2757-3.3348-0.27679-1.646-0.39941-1.8908-0.94701-1.8908-0.36056 0-0.50249-0.14667-0.44265-0.4574 0.0607-0.31515 0.53773-0.55725 1.534-0.77848 0.79524-0.17659 1.4925-0.27446 1.5495-0.21748 0.057 0.057 0.26597 1.3896 0.46443 2.9613 0.54429 4.3106 0.59898 4.53 1.1745 4.7127 0.92867 0.29475 0.6322 1.0999-0.47221 1.2825-1.873 0.30959-2.126 0.23705-2.3245-0.66656l-0.1837-0.83638-0.82951 0.94621c-1.4158 1.615-2.9973 1.996-4.0837 0.98381z" fill="#0b9146"/>
   <path d="m104.19 187.55c-0.0591-0.17727-0.87606-0.35332-1.9403-0.41811-1.011-0.0616-2.9693-0.3485-4.3518-0.63766s-2.6921-0.5475-2.9104-0.57408c-0.21828-0.0266-0.46157-0.13463-0.54065-0.24009-0.07908-0.10547-0.40343-0.23138-0.72079-0.27981-0.31735-0.0484-0.65945-0.1705-0.76022-0.27127-0.10076-0.10076-0.45399-0.18321-0.78495-0.18321s-0.67533-0.11906-0.76527-0.26458c-0.08994-0.14552-0.38612-0.26458-0.65817-0.26458s-0.67325-0.1786-0.89153-0.39688-0.50986-0.39687-0.64796-0.39687c-0.1381 0-0.4038-0.18402-0.59046-0.40892-0.18665-0.2249-0.47354-0.35743-0.63753-0.2945-0.43063 0.16525-3.2026-1.5498-3.1162-1.9281 0.03999-0.17504-0.04931-0.24285-0.19844-0.15069-0.2413 0.14913-0.38445-0.18531-0.30564-0.71403 0.01549-0.1039-0.15899-0.1171-0.38773-0.0293-0.33803 0.12972-0.34982 0.206-0.06297 0.4075 0.2801 0.19675 0.27102 0.22423-0.04396 0.13314-0.21828-0.0631-0.37964-0.31449-0.35858-0.55859 0.03026-0.35067-0.03917-0.37954-0.33073-0.13757-0.33795 0.28048-0.4806 0.1544-0.40036-0.35384 0.01723-0.10914-0.05796-0.17921-0.1671-0.15571-0.48773 0.10501-1.5649-0.57322-1.8976-1.1948-0.20074-0.37509-0.44626-0.63176-0.5456-0.57037-0.09934 0.0614-0.18061-0.0668-0.18061-0.285 0-0.22925 0.15467-0.33727 0.36652-0.25597 0.20228 0.0776 0.2935 0.0225 0.20357-0.12301-0.08962-0.14502-0.42892-0.21543-0.754-0.15649-0.66687 0.12093-1.9076-0.96708-1.6248-1.4247 0.09478-0.15336 0.07418-0.26178-0.04578-0.24094-0.66193 0.11498-1.0983-0.0854-1.2228-0.56154-0.0772-0.29522-0.23992-0.50358-0.36159-0.46302-0.12167 0.0405-0.2484-0.018-0.28161-0.13004-0.03321-0.11207-0.36188-0.52879-0.73037-0.92604-0.36942-0.39824-0.60312-0.89669-0.52094-1.1111 0.08197-0.21384 0.06441-0.30417-0.03904-0.20073-0.10344 0.10344-0.34933 0.0543-0.54641-0.10931-0.28987-0.24057-0.29452-0.37474-0.02434-0.70219 0.27514-0.33347 0.26506-0.38201-0.05718-0.27548-0.5148 0.17019-1.1412-0.44658-1.8577-1.8292-0.3205-0.61847-0.6793-1.1245-0.79734-1.1245s-0.29452-0.47295-0.39218-1.051-0.31107-1.0245-0.47425-0.99218c-0.16318 0.0323-0.31238-0.0603-0.33156-0.20578-0.01918-0.14552-0.11389-0.47294-0.21046-0.72761-0.43113-1.1369-0.52437-1.4097-0.58992-1.7259-0.0384-0.18528-0.32034-0.76147-0.62653-1.2804-0.89137-1.5108-1.7211-4.8483-2.1543-8.6652-0.12985-1.1442-0.35637-2.5134-0.50338-3.0427-0.32824-1.1817-0.35454-3.4758-0.03984-3.4758 0.12672 0 0.31082-0.71075 0.4091-1.5794 0.09828-0.86869 0.29225-1.6496 0.43105-1.7354 0.1388-0.0858 0.25053-0.3573 0.2483-0.60337l-0.0041-0.44741-0.25648 0.39688c-0.21255 0.3289-0.25713 0.30624-0.26025-0.13229-0.0062-0.87294 1.3313-6.0056 1.7901-6.8695 0.23467-0.44188 0.43295-0.92248 0.44061-1.068 0.03093-0.58752 1.3352-3.459 1.6943-3.7302 0.21165-0.15982 0.29937-0.42886 0.19492-0.59786-0.22628-0.36613 0.74223-1.6912 1.0362-1.4177 0.112 0.10421 0.1439 0.0109 0.07088-0.20741-0.18693-0.55879 0.28576-1.3754 0.6689-1.1556 0.1746 0.10016 0.22919 0.0847 0.12131-0.0344-0.10788-0.11909-0.06115-0.37918 0.10385-0.57798 0.165-0.19881 0.23113-0.43033 0.14697-0.51449-0.08416-0.0842 0.29434-0.59152 0.84111-1.1275 0.54677-0.53595 0.94963-1.108 0.89524-1.2711-0.11654-0.34961 0.97389-1.1792 1.2918-0.98271 0.12014 0.0742 0.14003-0.0693 0.04421-0.31902-0.1182-0.30804-0.07469-0.39251 0.13532-0.26271 0.19806 0.1224 0.30955-5e-3 0.30955-0.35348 0-0.29962 0.09882-0.54478 0.2196-0.54478 0.12078 0 0.81939-0.56554 1.5525-1.2568 0.73307-0.69122 1.4975-1.3896 1.6986-1.552 0.20117-0.16237 0.54088-0.54932 0.7549-0.85989 0.41044-0.59559 0.97066-0.80058 0.63933-0.23394-0.10636 0.1819 0.0624 0.10646 0.37502-0.16765 0.31262-0.27411 0.49215-0.62177 0.39895-0.77257-0.10333-0.16719-3.7e-4 -0.20931 0.26382-0.10792 0.2383 0.0915 0.52573 0.016 0.63872-0.16767 0.4083-0.66369 2.6749-2.0838 3.0026-1.8813 0.1984 0.12261 0.26002 0.0934 0.15644-0.0742-0.19721-0.31909 0.92117-1.1282 1.5595-1.1282 0.23683 0 0.73332-0.23812 1.1033-0.52917 0.37-0.29104 0.90182-0.52916 1.1818-0.52916s0.44586-0.10233 0.36856-0.22739c-0.07729-0.12507 0.1538-0.19508 0.51355-0.15559 0.35975 0.0395 0.65409-0.0462 0.65409-0.19051 0-0.15429 0.3541-0.19256 0.8599-0.0929 0.63959 0.12598 0.75822 0.0985 0.46302-0.10722-0.21828-0.15212-0.33734-0.28752-0.26458-0.30088 0.45211-0.083 1.0692-0.27346 2.1142-0.65247 1.0501-0.38088 1.6815-0.53012 3.1822-0.75218 0.22084-0.0327 0.55503-0.15429 0.74264-0.27024 0.18761-0.11595 0.64284-0.13509 1.0116-0.0425 0.37646 0.0945 1.6672-0.0814 2.9431-0.40104 2.4039-0.60223 2.6118-0.59822 7.3365 0.14134 1.4552 0.22779 2.9435 0.45687 3.3073 0.50908 1.3344 0.19148 4.8624 1.2561 5.9217 1.787 0.59934 0.30036 1.3288 0.57959 1.6209 0.62051 1.0057 0.14086 2.5503 0.9165 2.3786 1.1944-0.094 0.15218-0.0728 0.25014 0.0471 0.21771 0.36442-0.0985 1.5127 0.34817 2.004 0.77962 0.25466 0.22363 0.46302 0.31996 0.46302 0.21409 0-0.10588 0.31371 0.0543 0.69714 0.35587 0.38343 0.3016 0.8667 0.54837 1.074 0.54837 0.20724 0 0.31923 0.0932 0.24887 0.207-0.0704 0.11385 0.27807 0.48521 0.7743 0.82523 0.49622 0.34002 0.83824 0.72175 0.76004 0.84829-0.0782 0.12655 0.0128 0.1719 0.20227 0.10079 0.45148-0.16945 3.1226 2.3008 3.1226 2.8878 0 0.25581 0.12389 0.37717 0.284 0.27822 0.28756-0.17772 3.6848 3.0686 3.6848 3.5211 0 0.13494 0.23812 0.46085 0.52916 0.72424 0.29295 0.26511 0.52917 0.8149 0.52917 1.2316 0 0.45416 0.14115 0.75274 0.35587 0.75274 0.41929 0 1.3138 0.92839 1.3892 1.4418 0.0289 0.19692 0.32424 0.72553 0.65631 1.1747s0.5301 0.8903 0.44006 0.98035c-0.09 0.09 0.0672 0.41161 0.34952 0.7146 0.28228 0.30299 0.51324 0.83312 0.51324 1.1781 0 0.35075 0.11661 0.55511 0.26458 0.46366 0.15478-0.0956 0.26458 0.17885 0.26458 0.66146 0 0.48262 0.1098 0.75712 0.26459 0.66146 0.14944-0.0924 0.26458 0.12434 0.26458 0.49794 0 0.3638 0.11906 0.73504 0.26458 0.82498 0.14552 0.0899 0.26459 0.51368 0.26459 0.94166 0 0.42797 0.105 0.77813 0.23334 0.77813 0.2085 0 0.77731 2.807 1.2331 6.0854 0.0911 0.65484 0.33412 1.7778 0.54016 2.4954 0.49866 1.7369 0.48093 3.4459-0.0412 3.968-0.22867 0.22868-0.2882 0.41577-0.13229 0.41577 0.15592 0 0.28348 0.12609 0.28348 0.2802s-0.10357 0.21619-0.23015 0.13796c-0.12658-0.0782-0.3065 0.71841-0.3998 1.7703-0.33948 3.827-0.91613 7.0719-1.2568 7.0719-0.12648 0-0.22996 0.3024-0.22996 0.672s-0.23925 1.141-0.53167 1.7141c-0.29241 0.57318-0.5558 1.3338-0.58529 1.6902-0.0295 0.35642-0.14744 0.59006-0.26209 0.5192-0.11465-0.0709-0.20845 0.16127-0.20845 0.51584s-0.16579 0.78227-0.36841 0.95043c-0.20263 0.16817-0.52275 0.68876-0.71138 1.1569s-0.60434 1.2083-0.9238 1.6449-0.6622 1.0616-0.76166 1.3891c-0.0995 0.32743-0.28216 0.59532-0.406 0.59532-0.12385 0-0.49461 0.44648-0.82391 0.99218-0.32931 0.54571-0.99386 1.439-1.4768 1.9851s-0.87805 1.1079-0.87805 1.2485c0 0.14053-0.16947 0.19049-0.37659 0.11101-0.36469-0.13995-1.1265 0.85039-0.99843 1.2979 0.0332 0.11593-0.30479 0.33805-0.75105 0.49361-0.44625 0.15557-0.75142 0.34279-0.67817 0.41605 0.14734 0.14733 0.0658 0.23442-1.808 1.9312-0.71775 0.64993-1.2094 1.021-1.0926 0.82456 0.16939-0.28475 0.10578-0.30004-0.31386-0.0755-0.28947 0.15492-0.6015 0.22633-0.69339 0.15869-0.0919-0.0676-0.10588-0.0419-0.0311 0.0571 0.18896 0.25023-1.2133 1.672-1.649 1.672-0.19562 0-0.42394 0.17791-0.50738 0.39535-0.0834 0.21745-0.24239 0.33932-0.35321 0.27083-0.11083-0.0685-0.41192 0.10797-0.6691 0.39215s-0.57004 0.45337-0.69526 0.37598c-0.12522-0.0774-0.66558 0.19331-1.2008 0.60155-0.53524 0.40825-1.0122 0.7125-1.0599 0.67612-0.0847-0.0646-0.14308-0.0587-0.54976 0.0559-0.21182 0.0597-0.28175 0.0851-2.3151 0.83984-0.72761 0.27008-1.4556 0.49336-1.6178 0.49617-0.16218 3e-3 -0.45983 0.13616-0.66145 0.29634-0.5088 0.40421-1.6658 0.66441-3.6077 0.8114-0.90951 0.0688-1.6536 0.23407-1.6536 0.36717 0 0.13311-0.64781 0.24201-1.4396 0.24201s-1.5202 0.13045-1.6188 0.28988c-0.0985 0.15944-0.58181 0.24288-1.074 0.18542-0.49213-0.0574-0.89479-9e-3 -0.89479 0.10699 0 0.33873-2.5896 0.24799-2.7038-0.0947zm4.0267-2.2091c0.65484-0.0921 2.1759-0.27114 3.3802-0.39796 2.1787-0.22942 7.2218-1.7076 9.1071-2.6694 1.038-0.52954 2.0012-0.70999 1.271-0.23811-0.21828 0.14106-0.26054 0.2583-0.0939 0.26053 0.16663 2e-3 0.58335-0.29887 0.92604-0.66911 0.61284-0.66208 1.9699-1.5228 2.18-1.3827 0.059 0.0393 0.35041-0.14852 0.64756-0.41743 0.3061-0.27702 0.67989-0.40265 0.86241-0.28985 0.17902 0.11064 0.25398 0.0888 0.16873-0.0491-0.14037-0.22712 1.2686-1.5533 1.6502-1.5533 0.0904 0 0.72466-0.55242 1.4095-1.2276 0.68487-0.67519 1.2452-1.1762 1.2452-1.1133 0 0.0628 0.47625-0.38637 1.0583-0.99827 0.58208-0.6119 1.0583-1.2321 1.0583-1.3782 0-0.14608 0.0752-0.19039 0.16716-0.0985 0.0919 0.0919 0.63784-0.424 1.2131-1.1465s1.1619-1.3137 1.3037-1.3137c0.14174 0 0.19178-0.10666 0.11121-0.23702-0.0806-0.13036 0.10007-0.51732 0.40142-0.8599 0.30134-0.34258 0.46021-0.44427 0.35303-0.22599s-0.10632 0.3175 2e-3 0.22048c0.10822-0.097 0.18185-0.24879 0.16363-0.33728-0.0333-0.16158 0.79982-1.7523 1.0474-1.9999 0.0728-0.0728 0.31585-0.48948 0.54019-0.92604 0.22435-0.43656 0.6029-0.79527 0.84123-0.79713 0.23832-2e-3 0.53101-0.11024 0.65043-0.24085 0.12165-0.13307 0.0862-0.16279-0.0805-0.0676-0.48769 0.27835-0.34983-1.1538 0.19745-2.0513 0.27231-0.44654 0.49555-1.0203 0.49609-1.2749 5.3e-4 -0.25466 0.1399-0.46302 0.30967-0.46302 0.16978 0 0.23944-0.0692 0.15481-0.15387-0.0846-0.0846 0.0162-0.56088 0.22404-1.0583 0.20789-0.49745 0.32323-0.90446 0.25636-0.90446-0.0669 0 0.1144-0.68461 0.40285-1.5214 0.86843-2.5192 1.6812-11.04 1.2178-12.766-0.13671-0.50932-0.29872-1.5809-0.36001-2.3812-0.0613-0.80036-0.22596-1.6933-0.36593-1.9844-0.33315-0.69274-0.7704-3.1091-0.60967-3.3691 0.0689-0.11151-0.0135-0.20274-0.18321-0.20274-0.16967 0-0.23997-0.17859-0.15621-0.39688 0.0838-0.21828 0.0667-0.3978-0.0378-0.39893-0.25843-3e-3 -0.8516-1.3173-0.8516-1.8872 0-0.25344-0.11906-0.53438-0.26458-0.62432-0.14552-0.0899-0.26641-0.54345-0.26863-1.0078-3e-3 -0.64243-0.0654-0.7494-0.26054-0.44741-0.20851 0.32265-0.25724 0.28846-0.26053-0.18282-2e-3 -0.31884-0.13123-0.6583-0.28667-0.75437-0.15544-0.0961-0.20868-0.36736-0.11831-0.60286 0.0904-0.23551 0.0791-0.34296-0.0251-0.23877-0.10418 0.10418-0.41329-0.17869-0.6869-0.62861-0.37091-0.60992-0.4234-0.90729-0.20631-1.1689 0.2312-0.27858 0.16987-0.31911-0.29776-0.19682-0.46652 0.12199-0.55455 0.0644-0.42355-0.27693 0.0909-0.23701 0.0331-0.51267-0.12854-0.61258-0.19036-0.11764-0.21849-0.0596-0.0799 0.1647 0.14164 0.22918 0.11071 0.28248-0.0914 0.15756-0.16801-0.10383-0.30546-0.35185-0.30546-0.55115s-0.18619-0.54854-0.41375-0.7761-0.32823-0.55212-0.2237-0.72124c0.1186-0.19191 0.0745-0.23609-0.11729-0.11755-0.17188 0.10622-0.37704 8e-3 -0.46548-0.22219-0.087-0.22666-0.2945-0.33042-0.46115-0.23056-0.16666 0.0999-0.12442-0.0427 0.0939-0.31689 0.21828-0.27415 0.2585-0.4155 0.0894-0.31412-0.44059 0.26413-2.0065-1.7639-1.6428-2.1276 0.19249-0.19249 0.18715-0.33198-0.0175-0.45848-0.16181-0.1-0.26148-0.039-0.22149 0.1355 0.18786 0.81996-0.6154 0.40619-1.5238-0.78492-0.55395-0.72639-1.1357-1.2438-1.2929-1.1498-0.15712 0.094-0.13005-0.0212 0.0602-0.25599l0.34585-0.42685-0.54429 0.14234c-0.32139 0.084-0.54428 0.0149-0.54428-0.16873 0-0.17108 0.1177-0.23831 0.26155-0.1494 0.15287 0.0945 0.19254-0.0182 0.0955-0.27116-0.10996-0.28655-0.22763-0.3332-0.34824-0.13806-0.13072 0.21151-0.38067 0.19174-0.88521-0.07-0.38669-0.20061-0.63937-0.42844-0.56153-0.50628 0.16542-0.16542-2.401-1.7907-2.8277-1.7907-0.1589 0-0.22555-0.16511-0.14811-0.36692 0.10129-0.26395-0.0138-0.32651-0.40994-0.22291-0.40746 0.10655-0.49493 0.0537-0.3362-0.20312 0.13312-0.21539 0.11081-0.28303-0.0588-0.17822-0.32488 0.20079-1.9251-0.54756-1.9251-0.90029 0-0.13486-0.21576-0.2452-0.47947-0.2452s-0.97233-0.23813-1.5747-0.52917-1.2271-0.52917-1.3882-0.52917-0.23802-0.0893-0.17085-0.19843c0.0672-0.10914-0.24561-0.22515-0.69507-0.2578-0.44945-0.0326-1.2415-0.26538-1.7602-0.5172-0.51864-0.25181-1.5978-0.54485-2.3982-0.65119-0.80036-0.10635-2.4672-0.36387-3.7042-0.57228-2.6694-0.44976-7.3249-0.54543-8.9958-0.18486-0.65484 0.14131-2.1431 0.43219-3.3073 0.64641-3.7261 0.68561-4.0644 0.77821-5.4865 1.5016-0.25269 0.12854-0.63964 0.23371-0.8599 0.23371s-0.40046 0.11907-0.40046 0.26459-0.35719 0.26458-0.79375 0.26458c-0.43656 0-0.76398 0.0893-0.7276 0.19844s-0.02577 0.22342-0.13812 0.25396c-0.11235 0.0305-0.86382 0.41749-1.6699 0.85989-0.80612 0.44241-1.6283 0.80438-1.827 0.80438s-0.60336 0.30763-0.89912 0.68363c-0.3351 0.42601-0.66639 0.60944-0.8791 0.48675-0.18774-0.10829-0.25793-0.1043-0.15597 9e-3 0.10196 0.11317-0.49335 0.70552-1.3229 1.3164-3.3671 2.4792-8.2649 8.0859-9.6655 11.064-0.25662 0.54571-0.52755 0.99219-0.60207 0.99219-0.07452 0-0.05054-0.13746 0.05329-0.30546 0.1179-0.19078 0.07248-0.23358-0.12099-0.11401-0.17038 0.1053-0.24492 0.2964-0.16564 0.42467 0.07928 0.12827-0.09738 0.68382-0.39256 1.2346-0.29518 0.55074-0.53669 1.1519-0.53669 1.336s-0.11906 0.33465-0.26458 0.33465c-0.14552 0-0.26458 0.23974-0.26458 0.53275 0 0.29302-0.11906 0.76927-0.26458 1.0583-0.14552 0.28906-0.38365 0.76208-0.52917 1.0512s-0.26458 0.76693-0.26458 1.0619c0 0.295-0.10652 0.74309-0.2367 0.99578-0.31942 0.61999-0.77968 3.5208-1.1408 7.1898-0.23065 2.3436-0.22146 3.7461 0.04075 6.2177 0.18622 1.7553 0.45279 3.3332 0.59238 3.5064 0.13958 0.17322 0.21924 0.53041 0.17702 0.79375-0.08339 0.52008 0.5267 2.9605 0.84728 3.3892 0.10881 0.14552 0.23763 0.62177 0.28626 1.0583 0.04863 0.43657 0.40998 1.394 0.803 2.1277 0.39302 0.73367 0.75716 1.6519 0.8092 2.0405 0.05204 0.38862 0.19759 0.80039 0.32344 0.91503 0.12842 0.11699 0.12988 0.0343 0.0033-0.18843l-0.2255-0.39688 0.45406 0.36843c0.24973 0.20264 0.39323 0.42927 0.31888 0.50361-0.07435 0.0743 0.11804 0.5634 0.42754 1.0868 0.73276 1.2391 1.9026 3.0322 2.0881 3.2006 0.08018 0.0728 0.40665 0.50605 0.72549 0.96287 0.31884 0.45681 0.99831 1.2492 1.5099 1.7608 0.64301 0.64301 0.88127 1.081 0.77165 1.4184-0.09842 0.30296-0.0732 0.37123 0.06649 0.17997 0.27679-0.379 1.291 0.25919 1.0449 0.65747-0.08573 0.13871 0.0201 0.39825 0.23518 0.57675s0.31443 0.44851 0.22079 0.60002c-0.10212 0.16524-0.04111 0.19567 0.15244 0.076 0.2425-0.14988 0.20959-0.32443-0.13242-0.70234-0.80695-0.89167-0.23602-0.5358 1.0825 0.67476 0.70549 0.64771 1.4107 1.1049 1.5672 1.0159 0.15646-0.089 0.20178-0.0699 0.10071 0.0424-0.24062 0.26729 1.1921 1.4682 1.7516 1.4682 0.23822 0 0.50166 0.17859 0.58543 0.39687 0.08376 0.21828 0.32518 0.39688 0.53648 0.39688 0.2113 0 0.33252 0.0893 0.26938 0.19843-0.06314 0.10914-0.019 0.43657 0.09808 0.72761 0.18075 0.4493 0.21568 0.45929 0.23148 0.0661 0.02027-0.50466 0.41891-0.62098 0.68006-0.19843 0.08994 0.14552 0.42438 0.2664 0.74322 0.26863 0.47128 3e-3 0.50548 0.052 0.18282 0.26053-0.30926 0.19986-0.23626 0.25738 0.33073 0.26054 0.63352 4e-3 0.83823 0.22046 0.77364 0.81984-0.0091 0.0849 0.15346 0.15435 0.36134 0.15435 0.30254 0 0.31441-0.0836 0.05945-0.41893-0.17519-0.23041-0.01564-0.14994 0.35456 0.17881 0.37019 0.32875 0.74584 0.52497 0.83478 0.43604 0.08893-0.0889 0.42119 0.02 0.73835 0.2422 0.31716 0.22214 0.74158 0.34061 0.94315 0.26326 0.20158-0.0773 0.3665-0.0221 0.3665 0.12281 0 0.14489 0.41672 0.34162 0.92604 0.43717 0.50932 0.0956 0.92604 0.29442 0.92604 0.44193 0 0.14752 0.0893 0.214 0.19844 0.14775 0.31131-0.18898 3.0491 0.30765 3.2201 0.58413 0.08434 0.13637 0.92726 0.31682 1.8731 0.40101 0.94589 0.0842 2.6723 0.25138 3.8365 0.37155 1.1642 0.12018 2.3548 0.18932 2.6458 0.15364 0.29105-0.0357 1.065-0.14018 1.7198-0.23225zm4.7001-14.152c-4.3626-1.3136-5.7232-7.0141-2.4086-10.091 1.5947-1.4805 3.4514-2.0146 5.3882-1.5499 3.5055 0.84095 5.483 4.2563 4.4537 7.6918-0.88126 2.9414-4.4622 4.8439-7.4334 3.9493zm-19.086-7.4756c-0.18021-2.0128 0.13196-5.2379 0.72347-7.4745l0.34988-1.3229 0.63719 0.0742c0.88589 0.10321 2.3539 1.3524 2.9586 2.5176 1.4854 2.8623 0.31711 6.3126-2.5837 7.6304-1.7838 0.81034-1.8919 0.73645-2.0854-1.4248zm-11.701-6.3867c-0.08463-0.22054-0.07676-0.52575 0.01748-0.67823 0.09424-0.15249 0.03824-0.27726-0.12446-0.27726-0.1627 0-0.22909-0.10795-0.14754-0.2399 0.08155-0.13196-0.07658-0.18111-0.3514-0.10925-0.27482 0.0719-0.59104-0.0172-0.7027-0.19784-0.13943-0.22561-0.09454-0.26146 0.14331-0.11447 0.22431 0.13864 0.28234 0.1105 0.1647-0.0798-0.0999-0.16165-0.35643-0.22684-0.57005-0.14487-0.21362 0.082-0.3884 0.0267-0.3884-0.12282 0-0.14953-0.34778-0.34825-0.77284-0.44161-0.42506-0.0934-1.0814-0.4557-1.4585-0.8052-0.37712-0.3495-0.8437-0.57482-1.0368-0.5007-0.45282 0.17376-1.0702-0.56355-0.81615-0.97465 0.14137-0.22874-0.0039-0.26495-0.5317-0.13249-0.4194 0.10526-0.87607 0.0579-1.0809-0.11206-0.2542-0.21097-0.50441-0.2142-0.88334-0.0114-0.29078 0.15563-0.65365 0.28296-0.80638 0.28296-0.27776 0 0.2192-1.2716 1.0644-2.7235l0.43024-0.73907 0.45246 0.95349c0.24886 0.52442 0.65182 1.0252 0.89549 1.1129 0.24366 0.0876 0.80021 0.40788 1.2368 0.71163 0.43656 0.30374 0.97234 0.57336 1.1906 0.59915 0.21828 0.0258 0.9785 0.33831 1.6894 0.69447l1.2925 0.64757-0.49874 0.30136-0.49874 0.30135 0.79375-0.15733c0.62131-0.12315 0.70753-0.0935 0.39688 0.1367-0.30865 0.22866-0.22042 0.25469 0.39688 0.11709 1.0856-0.24199 1.7198-0.59308 1.7198-0.9521 0-0.16532 0.16225-0.48856 0.36056-0.7183 0.46855-0.54281 0.77515-2.1375 0.41096-2.1375-0.15047 0-0.20628-0.10889-0.12403-0.24198 0.08225-0.13309-1.5e-5 -0.29782-0.18282-0.36607-0.23208-0.0866-0.19911-0.17937 0.10927-0.30729 0.25572-0.10608 0.73915 0.0117 1.1483 0.27984 0.56314 0.36899 0.67756 0.60873 0.56325 1.1802-0.12206 0.61031-0.94783 2.0858-1.6941 3.0271-0.11537 0.14552-0.16785 0.47294-0.11662 0.7276 0.05123 0.25466-0.03464 0.46302-0.19084 0.46302-0.15619 0-0.28398 0.19133-0.28398 0.42519 0 0.25897-0.14715 0.36871-0.37643 0.28073-0.27671-0.10618-0.34624 0.022-0.26248 0.48394 0.12942 0.71371-0.34233 1.171-0.57704 0.55938zm0.42219-1.8532c0-0.0572-0.18478-0.17489-0.41062-0.26155-0.23546-0.0904-0.34166-0.046-0.24897 0.10398 0.15538 0.25141 0.65959 0.37186 0.65959 0.15757zm49.08-3.8591c-2.652-5.9334-8.8147-10.85-15.478-12.348l-1.9844-0.44612 0.79375-0.22804c1.2724-0.36554 5.692-0.34649 7.276 0.0314 3.9135 0.93352 6.9863 3.3071 8.5761 6.6245 0.95461 1.9919 1.571 4.804 1.43 6.5237l-0.0842 1.0264zm-22.018-2.5641c-0.59909-0.38845-1.2182-0.98937-1.3759-1.3354-1.1265-2.4724 1.3501-5.1021 4.805-5.1021 1.8871 0 3.0444 0.45673 3.9827 1.5718 1.3191 1.5677 0.64894 3.7276-1.5415 4.9682-1.5949 0.90334-4.3944 0.85442-5.8703-0.10259zm-23.21-1.5641c-0.22728-0.22728-0.41323-0.32444-0.41323-0.21592s-0.29239-0.0774-0.64975-0.4131c-0.35736-0.33572-0.62525-0.73802-0.59531-0.89399 0.02994-0.15597-0.12416-0.2944-0.34244-0.30763-0.21828-0.0132-0.37178-0.15346-0.3411-0.31163 0.03067-0.15817-0.14792-0.27182-0.39688-0.25256-0.33006 0.0255-0.4554-0.17489-0.46283-0.74008-0.0056-0.4263-0.15451-0.8232-0.33091-0.882-0.19976-0.0666-0.26008 0.0511-0.15994 0.31208 0.12879 0.33561-0.03351 0.41898-0.81562 0.41898-0.68695 0-0.9307-0.098-0.82223-0.33073 0.08479-0.1819 0.22766-0.53909 0.31749-0.79375 0.08983-0.25466 0.23873-0.47213 0.3309-0.48326 0.09217-0.0111 0.37973-0.0607 0.63903-0.11012 0.27513-0.0524 0.64526 0.17539 0.88884 0.54714 0.22956 0.35036 0.50751 0.58131 0.61767 0.51323 0.11016-0.0681 0.40254 0.0997 0.64975 0.37288 0.33825 0.37376 0.36962 0.54601 0.12677 0.6961-0.21968 0.13577-0.25436 0.0889-0.10865-0.14691 0.1427-0.23089 0.11079-0.28252-0.09573-0.15489-0.49249 0.30437-0.11036 0.62479 0.58629 0.49161 0.41521-0.0794 0.76132 0.0476 0.9985 0.36622 0.47542 0.6387 1.4785 1.4273 1.1756 0.92431-0.17352-0.2882-0.10848-0.30011 0.33699-0.0617l0.552 0.29542 0.34454-0.73205c0.7377-1.5674 0.07691-4.5685-1.0059-4.5685-0.15915 0-0.44171-0.28465-0.62791-0.63257-0.27692-0.51743-0.52329-0.62248-1.3536-0.57716-1.0977 0.0599-1.099 0.0288-0.06081-1.3749 0.64803-0.87617 1.2533-0.95262 0.94096-0.11886l-0.17027 0.45454 0.44641-0.36312c0.24553-0.19972 0.4613-0.28902 0.47949-0.19844 0.1213 0.604 0.08403 0.8521-0.15651 1.0419-0.15039 0.11867-0.0055 0.14041 0.32188 0.0483 0.38622-0.10864 0.59531-0.0528 0.59531 0.15906 0 0.17958 0.07778 0.24873 0.17284 0.15367 0.09506-0.0951 0.45225 0.20589 0.79375 0.66877s0.62091 0.74978 0.62091 0.63755 0.36635 0.1623 0.8141 0.61005c0.77186 0.77187 1.2222 1.0617 0.93986 0.60482-0.07114-0.11511 0.30879-0.15239 0.84428-0.0829 0.5355 0.0696 0.75894 0.17368 0.49656 0.2314-0.40279 0.0886-0.42339 0.17102-0.13229 0.52926l0.34478 0.4243-0.44955-0.16835c-0.32137-0.12036-0.4076-0.059-0.30242 0.21504 0.08092 0.21087 0.04509 0.39251-0.07962 0.40365-0.12471 0.0111-0.43509 0.0601-0.68972 0.10887-0.25464 0.0488-0.56558-0.0947-0.69099-0.3188-0.26801-0.4789-0.60338-0.0916-0.71505 0.82586-0.22635 1.8595-0.59761 3.068-0.94255 3.068-0.1443 0-0.20073 0.0997-0.12539 0.22164 0.25865 0.4185-1.9119 0.31566-2.3384-0.11079zm7.5243-7.7322c-0.21828-0.072-0.48183-0.26185-0.58566-0.42193-0.10383-0.16008-0.34196-0.29373-0.52917-0.29699-0.18721-3e-3 -0.30265-0.22358-0.25654-0.48957 0.04611-0.266-0.01815-0.4206-0.14282-0.34356-0.12466 0.0771-0.5637-0.39266-0.97563-1.0438-0.63096-0.99734-0.72232-1.3592-0.57983-2.2964 0.23627-1.5539 0.93268-2.7596 1.8019-3.1197 0.40621-0.16825 0.73856-0.39069 0.73856-0.49431 0-0.20377 0.25411-0.24719 1.8063-0.30865 1.0418-0.0412 2.5404 0.69291 2.2787 1.1163-0.07907 0.12793 0.04588 0.15983 0.27768 0.0709 0.23179-0.089 0.3868-0.0555 0.34447 0.0743-0.04233 0.12981 0.16258 0.49362 0.45535 0.80848 0.29277 0.31486 0.68828 1.1007 0.87891 1.7463l0.34659 1.1738-0.53708 1.0021c-0.68792 1.2835-2.3461 2.8528-2.8215 2.6703-0.20165-0.0774-0.43205-0.0349-0.512 0.0945-0.15269 0.24705-1.3121 0.28076-1.9883 0.0578zm3.3122-1.622c0.07007-9e-3 0.13588-0.10636 0.14625-0.2155 0.01037-0.10914 0.1779-0.37704 0.37228-0.59532 0.4821-0.54136 0.54481-1.3104 0.17939-2.2-0.16827-0.40966-0.30594-0.83354-0.30594-0.94196 0-0.47052-1.6569-1.8328-2.4132-1.9841-1.1783-0.23566-1.6115-0.20553-1.4233 0.099 0.14652 0.23708-0.39943 0.36767-0.82959 0.19844-0.57021-0.22434-0.86718 2.7551-0.33866 3.3978 0.13069 0.15891 0.15927 0.36727 0.06352 0.46302-0.09575 0.0958-0.04907 0.17409 0.10373 0.17409 0.1528 0 0.3347 0.2175 0.40422 0.48333 0.20015 0.76538 2.1936 1.6317 3.1341 1.362 0.42889-0.12301 0.83713-0.23132 0.9072-0.24071zm5.2266-4.5241c0-0.96163-0.28096-1.9772-0.92382-3.3391-0.14799-0.31355-0.17711-0.7189-0.0647-0.90078 0.12672-0.20503 0.0964-0.26396-0.0798-0.15508-0.16687 0.10313-0.4106-0.20759-0.59056-0.75287-0.16854-0.51066-0.41626-0.92848-0.55049-0.92848-0.53113 0-0.20078-0.4829 0.54035-0.78988 0.65535-0.27146 0.85125-0.25808 1.1906 0.0813 0.22342 0.22341 0.40621 0.54983 0.40621 0.72537s0.23813 0.0164 0.52917-0.35356c0.29104-0.37 0.52917-0.87013 0.52917-1.1114 0-0.36454 0.21238-0.41748 1.2568-0.31325 1.0248 0.10228 1.1469 0.0736 0.66146-0.15534-0.32743-0.15442-0.59532-0.44117-0.59532-0.63721 0-0.55491 1.1556-0.41933 1.8371 0.21552 0.47407 0.44166 0.71146 0.50754 1.0421 0.2892 0.23548-0.15552 0.38846-0.44266 0.33995-0.63811-0.0485-0.19544-9e-3 -0.27597 0.0882-0.17896 0.24743 0.24743 1.2444-0.80138 1.0542-1.109-0.0892-0.14437 0.0381-0.17753 0.29833-0.0777 0.2854 0.10952 0.38991 0.0705 0.28141-0.10507-0.098-0.15855 0.10801-0.33293 0.47653-0.40338 0.35703-0.0682 0.70343 7e-3 0.76978 0.16818 0.0841 0.20368 0.12697 0.19953 0.14152-0.0137 0.0294-0.43128 1.0486-0.1175 1.3159 0.40515 0.12097 0.23649 0.19663 0.69781 0.16814 1.0252-0.0285 0.32735 6e-3 0.53751 0.0764 0.46702 0.20188-0.20187 0.74868 1.0047 0.9559 2.1093 0.10376 0.55307 0.36549 1.1824 0.58162 1.3986 0.21613 0.21613 0.33265 0.55015 0.25894 0.74225-0.0837 0.21814 5e-3 0.29587 0.23669 0.20703 0.2039-0.0782 0.50128-0.0616 0.66083 0.037 0.44702 0.27627-0.21462 0.92593-0.943 0.92593-0.33739 0-0.67815 0.10469-0.75723 0.23264-0.18898 0.30578-1.2104 0.56922-1.2104 0.31219 0-0.10966 0.26789-0.34032 0.59531-0.51258s0.39302-0.25605 0.14577-0.1862c-0.27611 0.078-0.40288 5e-3 -0.32859-0.19026 0.0665-0.17449-0.11105-0.95104-0.39462-1.7257-0.28356-0.77463-0.45627-1.5629-0.38381-1.7518 0.0725-0.18886-0.0537-0.41453-0.28031-0.5015-0.22665-0.087-0.41208-0.4525-0.41208-0.81228s-0.10539-0.71928-0.23419-0.79888c-0.38423-0.23747-1.8825 0.39993-1.8825 0.80084 0 0.20405-0.0893 0.37193-0.19844 0.37306-0.61736 6e-3 -1.1449 2.701-0.59531 3.0406 0.14552 0.0899 0.26458 0.42766 0.26458 0.7505 0 0.32283 0.19918 0.87134 0.44262 1.2189 0.24344 0.34756 0.31119 0.5507 0.15057 0.45143-0.16062-0.0993-0.36039-0.0699-0.44392 0.0653-0.0835 0.13515 0.13762 0.21396 0.49145 0.17512 0.35383-0.0388 0.79044 0.0203 0.97025 0.13144 0.50578 0.31258-0.27159 0.92485-1.148 0.90414-0.40018-9e-3 -0.7276 0.0523-0.7276 0.13723 0 0.0849-0.24832 0.17313-0.55182 0.19599-0.39428 0.0297-0.50759-0.0737-0.39687-0.36221 0.0852-0.22207 0.15494-0.57263 0.15494-0.77901s0.18562-0.37523 0.41249-0.37523 0.34212-0.11387 0.25611-0.25303c-0.086-0.13917-0.31032-0.19396-0.49847-0.12176-0.2323 0.0891-0.49019-0.40284-0.80351-1.5329-0.54243-1.9564-1.2584-2.8614-2.0969-2.6508-0.31734 0.0797-0.67219 0.30452-0.78856 0.4996-0.11637 0.19507-0.36512 0.35468-0.55278 0.35468-0.22026 0-0.32093 0.30476-0.28403 0.8599 0.0314 0.47294-0.044 0.98722-0.16756 1.1428-0.49683 0.62554 1.4686 4.3769 2.0235 3.8622 0.1046-0.097 0.049 0.0948-0.12352 0.42633-0.17253 0.3315-0.41856 0.53792-0.54672 0.45871-0.12817-0.0792-0.29654-0.0413-0.37417 0.0844-0.0776 0.1256-0.48633 0.23818-0.90824 0.25018l-0.76711 0.0218v-1.03zm11.04-4.7534c0-0.14552-0.18562-0.26459-0.41249-0.26459s-0.3389 0.11907-0.24897 0.26459c0.0899 0.14552 0.27556 0.26458 0.4125 0.26458 0.13693 0 0.24896-0.11906 0.24896-0.26458zm-11.112-0.54478c0-0.15411-0.13929-0.19411-0.30954-0.0889-0.21605 0.13352-0.25128 0.0383-0.11662-0.31512 0.14719-0.38634 0.1194-0.43347-0.11719-0.19875-0.17057 0.16923-0.23013 0.43712-0.13235 0.59532 0.22765 0.36835 0.6757 0.37328 0.6757 7e-3zm16.999 1.3303c-0.32742-0.13161-0.60471-0.45148-0.6162-0.71083-0.0165-0.37335-0.0535-0.3889-0.17744-0.0747-0.216 0.54757-0.83491-2.2109-0.84879-3.7831-6e-3 -0.69825-0.23559-1.734-0.50983-2.3016-0.27423-0.5676-0.43298-1.0976-0.35277-1.1778 0.0802-0.0802 0.5298-0.14584 0.99909-0.14584 1.0438 0 1.1375 0.25279 1.5661 4.2292 0.086 0.79808 0.2621 1.5567 0.39126 1.6859s0.17188 0.39893 0.0949 0.59948c-0.0968 0.25227 0.0724 0.36463 0.54923 0.36463 0.71241 0 2.7917-1.691 2.4722-2.0105-0.093-0.093 0.0183-0.35662 0.24747-0.58576 0.66636-0.66635 0.10425-4.6231-0.61502-4.3292-0.11574 0.0473-0.2531-0.042-0.30524-0.19844-0.0521-0.15643 0.0788-0.28442 0.29104-0.28442 0.21221 0 0.75792-0.0744 1.2127-0.16537l0.82682-0.16536v0.7739c0 0.42565 0.1105 0.88702 0.24556 1.0253 0.31088 0.31822 0.4438 3.8008 0.16864 4.4186-0.12417 0.27877-0.0951 0.46302 0.073 0.46302 0.48135 0 1.6792 1.2609 1.3759 1.4484-0.15383 0.0951-0.46587-0.0133-0.69343-0.24089-0.46546-0.46546-0.75652-0.55088-0.50824-0.14916 0.34309 0.55513-0.88153 0.23506-1.2654-0.33073-0.31125-0.45873-0.47781-0.52418-0.72598-0.28526-0.17713 0.17053-0.5159 0.24086-0.75283 0.15628-0.23693-0.0846-0.34567-0.0596-0.24165 0.0555 0.31198 0.34515-0.26366 1.1304-1.1544 1.5748-0.94448 0.47117-0.93509 0.47039-1.7467 0.14415zm-0.64979-2.8079c-0.0771-0.36375-0.14363-0.29722-0.25654 0.25654-0.0984 0.48282-0.0616 0.65679 0.1041 0.49113 0.1411-0.1411 0.2097-0.47755 0.15244-0.74767zm-0.97102-4.1336c-0.26131-0.25936-0.2917-0.22897-0.14812 0.14812 0.0994 0.26093 0.24731 0.40778 0.32877 0.32632 0.0815-0.0815 1.7e-4 -0.29496-0.18065-0.47444zm4.0752 59.917c-0.0815-0.0815-0.29496-1.7e-4 -0.47443 0.18065-0.25936 0.26131-0.22897 0.2917 0.14811 0.14812 0.26094-0.0994 0.40778-0.24731 0.32632-0.32877zm6.2107-2.7968c0-0.0549-0.168-0.23931-0.37332-0.40972-0.28586-0.23724-0.41941-0.23525-0.57005 8e-3 -0.12025 0.19457-0.0851 0.24931 0.0905 0.14082 0.15795-0.0976 0.36197-0.0565 0.45337 0.0914 0.16357 0.26466 0.39955 0.36447 0.39955 0.169zm4.6908-4.0287c-0.0879-0.0879-0.31613-0.0973-0.50712-0.0209-0.21107 0.0845-0.14837 0.14716 0.15985 0.15985 0.27892 0.0115 0.43519-0.051 0.34727-0.13896zm0.9977-1.1631c0.0899-0.14552 0.0374-0.26458-0.11668-0.26458-0.15411 0-0.2802 0.11906-0.2802 0.26458s0.0525 0.26459 0.11668 0.26459c0.0642 0 0.19026-0.11907 0.2802-0.26459zm-55.581-1.0284c0.07975-0.12903-0.02169-0.37294-0.22541-0.54201-0.26014-0.2159-0.42266-0.22287-0.54592-0.0234-0.09653 0.15619-0.07737 0.26693 0.04259 0.2461 0.53492-0.0929 0.7136 0.0546 0.3504 0.28936-0.23847 0.15411-0.2711 0.2581-0.08176 0.26053 0.17331 2e-3 0.38036-0.10152 0.46011-0.23055zm57.83-1.7174c0-0.0549-0.20836-0.2633-0.46302-0.46302l-0.46303-0.36312 0.36313 0.46302c0.34564 0.44073 0.56292 0.58089 0.56292 0.36312zm-60.234-1.1021c-0.08617-0.22455-0.21342-0.35154-0.28277-0.28218-0.06936 0.0693-0.04762 0.25308 0.0483 0.40828 0.26089 0.42214 0.41338 0.34013 0.23447-0.1261zm61.292-0.65004c0-0.14552-0.12609-0.26459-0.2802-0.26459s-0.20661 0.11907-0.11668 0.26459c0.0899 0.14552 0.21603 0.26458 0.2802 0.26458 0.0642 0 0.11668-0.11906 0.11668-0.26458zm3.5309-6.2291c-0.0862-0.22456-0.21343-0.35154-0.28278-0.28219-0.0693 0.0694-0.0476 0.25309 0.0483 0.40829 0.26089 0.42213 0.41338 0.34012 0.23448-0.1261zm-1.1496-33.884c0-0.21898-0.51375-0.34281-0.63154-0.15222-0.0764 0.12364 0.0344 0.2248 0.2463 0.2248 0.21188 0 0.38524-0.0327 0.38524-0.0726zm-65.749-2.4851c0.08994-0.14552 0.03743-0.26458-0.11668-0.26458-0.15411 0-0.2802 0.11906-0.2802 0.26458s0.0525 0.26458 0.11668 0.26458c0.06417 0 0.19026-0.11906 0.2802-0.26458zm61.78-4.8624c0-0.055-0.20836-0.26331-0.46302-0.46303l-0.46302-0.36312 0.36312 0.46302c0.34565 0.44073 0.56292 0.58089 0.56292 0.36313zm-3.0826-1.6114c0.082-0.21362 0.0168-0.47014-0.14487-0.57005-0.17797-0.10999-0.21944-0.0612-0.10512 0.12382 0.10384 0.16801 0.0557 0.30547-0.10702 0.30547-0.1627 0-0.22223 0.11906-0.1323 0.26458 0.22088 0.35738 0.31367 0.3339 0.48931-0.12382zm-7.2362-5.9616c0-0.14552-0.0525-0.26458-0.11668-0.26458-0.0642 0-0.19026 0.11906-0.2802 0.26458-0.0899 0.14552-0.0374 0.26459 0.11668 0.26459 0.15411 0 0.2802-0.11907 0.2802-0.26459zm-0.66146-1.0583c-0.0899-0.14552-0.30532-0.26276-0.47864-0.26053-0.18933 2e-3 -0.1567 0.10642 0.0818 0.26053 0.50829 0.32849 0.59989 0.32849 0.39687 0z" fill="#01923c"/>
   <path d="m112.91 171.19c-4.3626-1.3136-5.7232-7.0141-2.4086-10.091 1.5947-1.4805 3.4514-2.0146 5.3882-1.5499 3.5055 0.84095 5.483 4.2563 4.4537 7.6918-0.88126 2.9414-4.4622 4.8439-7.4334 3.9493zm-19.086-7.4756c-0.18021-2.0128 0.13196-5.2379 0.72347-7.4745l0.34988-1.3229 0.63719 0.0742c0.88589 0.10321 2.3539 1.3524 2.9586 2.5176 1.4854 2.8623 0.31711 6.3126-2.5837 7.6304-1.7838 0.81034-1.8919 0.73645-2.0854-1.4248zm37.802-12.099c-2.652-5.9334-8.8147-10.85-15.478-12.348l-1.9844-0.44612 0.79375-0.22804c1.2724-0.36554 5.692-0.34649 7.276 0.0314 3.9135 0.93352 6.9863 3.3071 8.5761 6.6245 0.95461 1.9919 1.571 4.804 1.43 6.5237l-0.0842 1.0264zm-22.018-2.5641c-0.59909-0.38845-1.2182-0.98937-1.3759-1.3354-1.1265-2.4724 1.3501-5.1021 4.805-5.1021 1.8871 0 3.0444 0.45673 3.9827 1.5718 1.3191 1.5677 0.64894 3.7276-1.5415 4.9682-1.5949 0.90334-4.3944 0.85442-5.8703-0.10259z" fill="#211e1a"/>
  </g>
 </g>
</svg>
