<svg fill="none" height="45" viewBox="0 0 45 45" width="45" xmlns="http://www.w3.org/2000/svg" xmlns:xlink="http://www.w3.org/1999/xlink"><clipPath id="a"><path d="m0 0h45v45h-45z"/></clipPath><g clip-path="url(#a)"><path d="m45 22.5037c0-12.4296-10.0741-22.5037-22.5037-22.5037s-22.4963 10.0741-22.4963 22.5037 10.0741 22.5037 22.4963 22.5037 22.5037-10.0741 22.5037-22.5037z" fill="#fff"/><path d="m32.889 30.0815c-.4889-.4296-1.2297-.3926-1.6667.0963-2.2 2.4666-5.3481 3.8815-8.6444 3.8815-6.3778 0-11.5704-5.1852-11.5704-11.563s5.1852-11.5704 11.5704-11.5704c2.7555 0 5.2 1.2223 6.6963 3.363.1185.1704.2296.3481.3333.5259-.637-.2889-1.3333-.437-2.0593-.437-1.2963 0-2.8889.3704-4.074 1.9333-1.1704-1.5481-2.7852-1.9333-4.0963-1.9333-1.6297 0-3.0963.7481-4.126 2.1111-1.2222 1.6148-1.6814 3.8518-1.1629 5.6963 1.5407 5.4815 7.1407 8.7926 8.8222 9.6815.1704.0889.363.1333.5481.1333.1852 0 .3778-.0444.5482-.1333 1.6815-.8815 7.2889-4.2 8.8222-9.6741.1408-.4963.2074-.837.2963-1.563.2148-2.4889-.3185-5.437-1.9259-7.6889-1.9704-2.7555-5.0815-4.37033-8.6296-4.37033-7.6815 0-13.92597 6.24443-13.92597 13.92593s6.24447 13.9259 13.92597 13.9259c3.9703 0 7.7629-1.7037 10.4074-4.674.437-.4815.3926-1.2297-.0963-1.6667m-9.4297-.6c-2.9037-1.6593-6.1407-4.5111-7.1037-7.9259-.3111-1.126 0-2.6149.7704-3.6297.4074-.5407 1.1259-1.1777 2.2444-1.1777 1.8667 0 2.4889 1.1629 2.8519 2.3037.0815.2666.3407 1.074 1.2296 1.074s1.1482-.8074 1.2297-1.074c.3629-1.1408.9851-2.3037 2.8518-2.3037 1.1185 0 1.8445.6444 2.2519 1.1851.5481.7186.8592 1.6815.8889 2.5852.0074 1-.2741 1.563-.563 2.2593-1.2963 2.8741-4.1037 5.2592-6.6593 6.7185" fill="#e10d49"/><g fill="#222221"><path d="m2.74083 23.1555c-.1926 0-.34074-.1629-.33334-.3555l.04445-1.1852c.02963-.9111.56296-1.4593 1.34815-1.4296h.0074c.87408.0296 1.30371.7481 1.27408 1.6l-.02963.7703.94074.0297c.19259 0 .33333.1629.32592.3481-.0074.1926-.16296.3408-.35555.3333l-3.22963-.1111zm1.72592-1.4222c.02222-.5111-.25926-.8444-.66666-.8592h-.00741c-.45926-.0149-.70371.3037-.72593.8148l-.02963.7926 1.4.0518.02963-.7926z"/><path d="m5.97046 19.8963-2.72592-2.2371c-.14815-.1185-.20741-.2815-.16297-.4666v-.0297c.05926-.1852.1926-.2889.38519-.3185l3.48889-.5481c.05185-.0148.1037-.0148.14815 0 .17777.0518.28148.2222.22963.4-.04445.1555-.16297.237-.31852.2592l-.78519.1111-.49629 1.8223.63703.5111c.11852.0889.16297.2222.12593.3629-.05185.1704-.22222.2667-.39259.2223-.05186-.0149-.08889-.0445-.14074-.0815m-.3926-2.7408-1.69629.2445 1.33333 1.0741z"/><path d="m4.66662 13.9333c-.17037-.0963-.22223-.3037-.12593-.4741l.6963-1.2c.24444-.4222.56296-.6814.89629-.7777.28148-.0741.5926-.0297.88889.1407h.01482c.53333.3185.68148.8148.56296 1.3481l1.18518-.1777c.10371-.0148.1926-.0148.28149.037.16296.0963.19259.2963.11111.4445-.08148.1333-.19259.1851-.31852.2l-1.51111.2148-.42963.7481.9037.5185c.16297.0963.21482.2963.12593.4593-.0963.1704-.30371.2222-.46667.1259l-2.8-1.6148zm2.2074-.6667c.24445-.4222.17778-.8222-.16296-1.0148-.36296-.2148-.71111-.0666-.96296.3704l-.4963.8593 1.13333.6518.4963-.8667z"/><path d="m9.65923 12.0074-2.30371-2.22223c-.14074-.13333-.14074-.34815-.0074-.48889l1.57037-1.62963c.11851-.11851.31111-.12592.43703-.0074.12593.11851.12593.31111.00741.42963l-1.33333 1.38518.73333.70374 1.16296-1.20744c.11111-.11852.31111-.12593.43701 0 .1185.11852.1185.31111 0 .42963l-1.16293 1.20741.75555.7259 1.35558-1.39998c.1111-.11852.3111-.12593.4296-.00741.1259.11849.1259.31109.0074.42959l-1.5852 1.6519c-.1333.1407-.34812.1407-.48145.0074"/><path d="m10.7185 6.53332c-.0963-.16296-.0519-.37037.1185-.47407l.0593-.03704c.1259-.07407.2518-.05926.3629 0l1.963.97778.0592-2.19259c0-.14074.0593-.24445.1778-.31111l.0593-.03704c.1704-.0963.3778-.04444.4741.11852l1.674 2.79259c.0963.16296.0445.37037-.1259.46667-.1556.09629-.3704.04444-.4593-.11852l-1.2-2-.0814 1.71111c0 .13333-.0445.23704-.1556.3037-.1037.06667-.2148.05186-.3333 0l-1.5408-.72592 1.2 1.99259c.0963.16296.0445.36296-.1185.45926-.1629.0963-.3629.04444-.4592-.11111l-1.6741-2.8z"/><path d="m15.852 3.88146c-.0519-.18518.0518-.37037.237-.42222l1.1407-.31852c.8741-.24444 1.5556.0963 1.7704.84445.237.85185-.3111 1.47407-1.1333 1.7037l-.7408.20741.2519.9037c.0518.18519-.0519.36297-.2371.41482-.1851.05185-.3703-.05185-.4222-.22963l-.8741-3.10371zm1.874 1.21482c.4963-.14074.726-.5037.6148-.8963-.1259-.44444-.5037-.58518-.9926-.45185l-.7629.21482.3778 1.34814z"/><path d="m20.1999 2.86667c-.0222-.18518.1111-.34815.3111-.37037.1852-.01481.3556.11852.3704.30371l.3259 3.25185c.0223.18518-.1185.35555-.3037.37037-.1926.02222-.3555-.11852-.3778-.30371z"/><path d="m25.3555 6.34075-.6963-3.40741c-.0074-.05185-.0148-.1037 0-.16296.037-.17778.2148-.2963.4-.25926.1704.03704.2667.15555.2963.31111l.5407 2.97037 1.6741-2.54074c.0667-.1037.2074-.18519.363-.15556.1851.03704.3037.20741.2666.38519-.0074.05185-.037.1037-.0666.13333l-1.9778 2.88148c-.1037.15556-.2519.22963-.4371.1926h-.037c-.1852-.04445-.2889-.17778-.3259-.35556"/><path d="m27.7852 6.61481 2.6592-2.31852c.1408-.12592.3111-.16296.4889-.08148l.0297.01482c.1777.08148.2518.22963.2518.42222l-.0444 3.52592c0 .05926 0 .10371-.0223.14815-.074.16297-.2666.23704-.4296.16297-.1407-.06667-.2074-.2-.2-.35556l.0148-.79259-1.7111-.7926-.6074.54075c-.1111.1037-.2518.12592-.3778.06666-.1629-.07407-.2296-.25926-.1555-.42222.0222-.04444.0592-.08148.1037-.12593m2.7703.06667.0371-1.71111-1.2815 1.14074z"/><path d="m33.889 6.30369c.1185-.14815.3259-.17037.4815-.05185.1481.11852.1703.32593.0518.47407l-1.8518 2.31112 1.3778 1.10367c.1333.1111.1555.3037.0518.4371-.1111.1333-.3037.1555-.437.0518l-1.6371-1.31109c-.1555-.12593-.1777-.33334-.0518-.48148l2.0222-2.52593z"/><path d="m37.0223 9.08887c.1407-.12593.3555-.11111.4814.02963.126.14074.1111.35555-.0296.48148l-2.4444 2.17782c-.1408.1259-.3556.1111-.4815-.0297-.1259-.1481-.1185-.3555.0222-.4815l2.437-2.17773z"/><path d="m38.6075 10.9555c.163-.0963.3704-.0444.4741.1185l.037.0593c.0889.1407.0593.2667.0074.4074l-1.163 2.9556 2.0519-1.2223c.1556-.0963.363-.0444.4518.1112.0963.1629.0445.3703-.1111.4592l-2.8 1.6667c-.1629.0963-.3629.0518-.4592-.1111l-.0148-.0223c-.0815-.1407-.0593-.2666 0-.4074l1.2-3.037-2.1111 1.2593c-.1556.0963-.363.0444-.4593-.1186-.0963-.1629-.0445-.3703.1111-.4592l2.8-1.6667z"/><path d="m41.0445 16.6741-.2667-.9037c-.0518-.1704.0519-.3407.2148-.3926.163-.0518.3408.0445.3926.2148l.7259 2.4741c.0519.163-.0518.3407-.2148.3852-.1629.0444-.3407-.0445-.3926-.2074l-.2666-.9111-2.8148.8296c-.1778.0518-.3704-.0519-.4223-.237-.0518-.1778.0445-.3704.2297-.4223z"/><path d="m38.9704 19.5408 3.3111 1.237c.1778.0667.2889.2.3037.3926v.037c.0148.1926-.0815.3334-.2518.4222l-3.1186 1.6519c-.0518.0296-.0963.0444-.1407.0444-.1852.0149-.3333-.1185-.3482-.3037-.0074-.1629.0741-.2814.2149-.3481l.7037-.363-.126-1.8889-.7703-.2814c-.1408-.0445-.2297-.1556-.2371-.3037-.0148-.1778.1186-.326.2963-.3334.0519 0 .1037.0074.1556.0297m1.2667 2.4666 1.5259-.7852-1.6148-.5777z"/><path d="m36.0814 31.9333c-.163-.0963-.2148-.3037-.1185-.4666.0962-.163.3037-.2148.4666-.1185l2.5408 1.4963.8888-1.5186c.0889-.1481.2815-.2.4223-.1111.1481.0889.2.2815.1111.4297l-1.0667 1.8074c-.0963.1703-.3037.2222-.4741.1259l-2.7851-1.637z"/><path d="m35.1926 37.5777-1.2814-3.2888c-.0667-.1778-.0445-.3482.0888-.4889l.0223-.0223c.1333-.1407.3037-.1629.4815-.0962l3.3111 1.2296c.0592.0148.0963.0444.1333.0741.1333.1259.1333.3259.0074.4592-.1111.1111-.2593.1259-.4.0741l-.7407-.2889-1.326 1.3482.3037.7629c.0593.1408.0371.2741-.0666.3778-.126.1259-.3185.1259-.4445 0-.037-.037-.0592-.0815-.0815-.1408m1-2.5851-1.6-.6149.6371 1.5926.9555-.9777z"/><path d="m32.2371 39.8-2.8-2.0667c-.0445-.0296-.0815-.0666-.1111-.1185-.0889-.1555-.0445-.363.1259-.4593.1556-.0888.3037-.0592.4222.0297l2.3852 1.8444-.4518-3.0148c-.0223-.1259.0296-.2741.1703-.3555.163-.0963.363-.0445.4593.1111.0222.0444.0444.0963.0444.1407l.4593 3.4667c.0222.1852-.0296.3407-.2.437l-.0296.0222c-.163.0963-.326.0667-.4741-.0444"/><path d="m24.5851 42.163-.5481-3.1482c-.0296-.1926.0889-.3629.2815-.4l2.2222-.3852c.163-.0296.3259.0815.3556.2445.0296.1704-.0815.3259-.2519.3555l-1.8889.326.1704.9926 1.6444-.2889c.163-.0297.3259.0815.3556.2518.0296.163-.0889.3185-.2519.3482l-1.6444.2889.1778 1.0296 1.9185-.3333c.1629-.0297.3259.0814.3555.2444.0297.1704-.0814.3259-.2444.3481l-2.2519.3926c-.1926.0371-.3629-.0888-.4-.2814"/><path d="m19.8591 38.8741c.0149-.1926.1704-.3333.3704-.3185l1.3852.0963c.4889.037.8593.2074 1.0889.4666.1926.2223.2889.5186.2667.8593-.0445.6296-.4297.9852-.9556 1.1111l.6741.9926c.0592.0889.1037.163.0889.2667-.0074.1852-.1778.3037-.3482.2963-.1555-.0074-.2518-.0889-.3259-.2l-.8593-1.2667-.8592-.0593-.0741 1.0445c-.0148.1852-.1704.3259-.363.3111s-.3333-.1704-.3259-.363l.2222-3.2296zm1.5704 1.6963c.4889.037.8148-.2.8445-.5926.0296-.4296-.2519-.6741-.763-.7111l-.9926-.0667-.0889 1.3037z"/><path d="m17.0668 38.4148-.9038-.2815c-.1703-.0518-.2592-.2296-.2074-.4.0519-.1629.2297-.2592.4-.2074l2.4593.7778c.163.0519.2518.2296.2.3926-.0519.163-.2296.2593-.3926.2074l-.9037-.2889-.8889 2.8074c-.0592.1778-.2518.2741-.4296.2148-.1778-.0592-.2815-.2444-.2222-.4222l.8889-2.8074z"/><path d="m13.6148 36.7852-.8074-.4815c-.1482-.0889-.2-.2815-.1111-.4296.0889-.1482.2814-.2.437-.1111l2.2148 1.3185c.1482.0889.1926.2815.1037.4296-.0889.1482-.2815.2-.4296.1111l-.8148-.4814-1.5037 2.5259c-.0963.1629-.3037.2074-.4667.1111s-.2222-.3037-.1259-.4667z"/><path d="m7.30363 35.0519 3.28887-1.2519c.1778-.0666.3482-.0444.4815.0963l.0222.0222c.1408.1334.1556.3037.0889.4815l-1.25184 3.2889c-.01482.0519-.04445.0963-.07408.1259-.12592.126-.32592.1334-.45926 0-.11111-.1111-.12592-.2592-.06666-.4074l.28889-.7333-1.33334-1.3333-.75555.2963c-.14074.0592-.27408.0296-.37778-.0667-.12593-.1259-.12593-.3185 0-.4444.03704-.0371.08148-.0593.14074-.0815m2.57037 1.0222.62961-1.5926-1.59257.6296zm1.55551-2.7852-.0296.0296c-.1407.1408-.3555.126-.4963-.0148-.1407-.1481-.1629-.3555-.0222-.4963l.0296-.0296c.1408-.1407.3556-.1333.5037.0148.1408.1408.1556.3556.0148.4963zm.7778.7778-.0296.0296c-.1407.1408-.3556.1259-.4963-.0148-.1407-.1481-.163-.3556-.0222-.4963l.0296-.0296c.1407-.1408.3556-.1259.5037.0148.1408.1407.1482.3555.0074.4963"/><path d="m7.45187 29.5111c.16297-.0963.37037-.0445.46667.1259l.7037 1.2074c.22223.3852.2963.7482.21482 1.0519-.05926.237-.2.4148-.42222.5481h-.00741c-.4.2445-.74815.1334-1.02222-.037.09629.4741.02963.8741-.42223 1.1407h-.0074c-.6.3556-1.20741.0519-1.64445-.6963l-.73333-1.2518c-.0963-.1704-.04444-.3704.12593-.4667l2.75555-1.6074zm-1.62222 3.037c.23704.4.53334.5556.83704.3778h.00741c.28148-.1704.31851-.4963.04444-.9556l-.54815-.9333-.91852.5333.57037.9778zm1.31852-1c.22222.3778.51852.5482.82222.363h.00741c.25926-.1556.3037-.4667.08148-.8445l-.49629-.8444-.88889.5185.46666.8z"/><path d="m5.08901 26.763c0 .3481-.28148.6296-.62963.6296s-.62222-.2815-.62222-.6296c0-.3482.28148-.6296.62222-.6296s.62963.2814.62963.6296z"/><path d="m41.2222 26.763c0 .3481-.2815.6296-.6297.6296-.3481 0-.6296-.2815-.6296-.6296 0-.3482.2815-.6296.6296-.6296.3482 0 .6297.2814.6297.6296z"/></g></g></svg>