<?xml version="1.0" encoding="utf-8"?>
<!-- Generator: Adobe Illustrator 26.3.1, SVG Export Plug-In . SVG Version: 6.00 Build 0)  -->
<svg version="1.1" id="Capa_1" xmlns="http://www.w3.org/2000/svg" xmlns:xlink="http://www.w3.org/1999/xlink" x="0px" y="0px"
	 viewBox="0 0 82.7 120" style="enable-background:new 0 0 82.7 120;" xml:space="preserve">
<style type="text/css">
	.st0{fill:#007565;}
</style>
<g id="Logos">
	<path class="st0" d="M62.6,0H20.1C19.9,0,0,0.2,0,20.1v99.8h82.7V20.1C82.7,19.9,82.5,0,62.6,0z M80.1,117.3H2.6V20.1
		C2.6,2.9,19.4,2.6,20.1,2.6h42.5c17.2,0,17.5,16.8,17.5,17.5V117.3z"/>
	<polygon class="st0" points="31.4,107.4 35.3,107.4 35.3,106.4 30.3,106.4 30.3,113.1 31.4,113.1 31.4,110.3 34.8,110.3
		34.8,109.3 31.4,109.3 	"/>
	<polygon class="st0" points="25.5,106.4 24.3,106.4 24.3,113.1 29,113.1 29,112 25.5,112 	"/>
	<polygon class="st0" points="13.8,111.3 12.2,106.3 11.2,106.3 9.5,111.3 7.9,106.4 6.6,106.4 9,113.1 10,113.1 11.7,108.3
		13.3,113.1 14.3,113.1 16.7,106.4 15.4,106.4 	"/>
	<polygon class="st0" points="19.1,110.2 22.4,110.2 22.4,109.2 19.1,109.2 19.1,107.4 22.9,107.4 22.9,106.4 17.9,106.4
		17.9,113.1 22.9,113.1 22.9,112 19.1,112 	"/>
	<path class="st0" d="M38.2,106.3l-3,6.8h1.2l0.7-1.6h3.2l0.7,1.6h1.3l-3-6.8H38.2z M37.5,110.4l1.2-2.7l1.2,2.7H37.5z"/>
	<path class="st0" d="M51.9,108.5c0-1.3-0.9-2.1-2.5-2.1h-3v6.7h1.2v-2.3h1.5l1.7,2.3h1.4l-1.8-2.5
		C51.3,110.3,51.9,109.6,51.9,108.5z M47.6,109.7v-2.3h1.7c0.9,0,1.4,0.4,1.4,1.1c0,0.7-0.5,1.1-1.4,1.1L47.6,109.7z"/>
	<rect x="43.4" y="106.4" class="st0" width="1.2" height="6.7"/>
	<path class="st0" d="M10.3,97.7c0.7,0,1.4,0.3,1.9,0.8l0.8-0.9c-0.7-0.7-1.6-1.1-2.6-1c-1.9,0-3.4,1.6-3.4,3.5
		c0,1.8,1.5,3.3,3.4,3.4c1,0,2-0.4,2.7-1.2l-0.8-0.8c-0.6,0.5-1.1,0.9-1.9,0.9c-1.3,0-2.2-1.1-2.2-2.4S9,97.7,10.3,97.7z"/>
	<path class="st0" d="M55.7,96.7l-3,6.8h1.2l0.7-1.6h3.2l0.7,1.6h1.3l-3-6.8L55.7,96.7z M55,100.8l1.2-2.7l1.2,2.7H55z"/>
	<polygon class="st0" points="19.2,97.8 19.2,96.7 14.2,96.7 14.2,103.4 19.3,103.4 19.3,102.4 15.4,102.4 15.4,100.6 18.8,100.6
		18.8,99.5 15.4,99.5 15.4,97.8 	"/>
	<path class="st0" d="M63.4,96.7h-2.5v6.7h2.5c2.1,0,3.6-1.5,3.6-3.4S65.5,96.7,63.4,96.7z M63.4,102.4h-1.3v-4.6h1.3
		c1.4,0,2.3,1,2.3,2.3C65.7,101.4,64.8,102.4,63.4,102.4L63.4,102.4z"/>
	<polygon class="st0" points="41.9,97.8 41.9,96.7 36.9,96.7 36.9,103.4 38,103.4 38,100.7 41.4,100.7 41.4,99.6 38,99.6 38,97.8
		"/>
	<rect x="33.9" y="96.7" class="st0" width="1.2" height="6.7"/>
	<path class="st0" d="M71.6,96.6c-1.9,0-3.5,1.6-3.4,3.5c0,1.9,1.6,3.5,3.5,3.4c1.9,0,3.4-1.6,3.4-3.5
		C75.1,98.2,73.6,96.6,71.6,96.6C71.7,96.6,71.6,96.6,71.6,96.6z M71.6,102.5c-1.3,0-2.3-1.1-2.3-2.4s0.9-2.4,2.3-2.4
		s2.3,1.1,2.3,2.4S72.9,102.5,71.6,102.5z"/>
	<path class="st0" d="M26.4,103.4l-1.8-2.6c0.9-0.3,1.6-0.9,1.6-2.1c0-1.3-0.9-2.1-2.5-2.1h-3v6.7h1.2v-2.3h1.5l1.7,2.3L26.4,103.4z
		 M21.9,100v-2.2h1.7c0.9,0,1.4,0.4,1.4,1.1c0,0.7-0.5,1.1-1.4,1.1L21.9,100z"/>
	<polygon class="st0" points="30.4,103.4 30.4,97.8 32.6,97.8 32.6,96.7 27.1,96.7 27.1,97.8 29.2,97.8 29.2,103.4 	"/>
	<rect x="43.2" y="96.7" class="st0" width="1.2" height="6.7"/>
	<path class="st0" d="M49.3,103.5c1,0,2-0.4,2.7-1.2l-0.8-0.8c-0.6,0.5-1.1,0.9-1.9,0.9c-1.3,0-2.2-1.1-2.2-2.4s0.9-2.4,2.2-2.4
		c0.7,0,1.4,0.3,1.9,0.8l0.8-0.9c-0.7-0.7-1.6-1.1-2.6-1c-1.9,0-3.4,1.6-3.4,3.5C46,102,47.5,103.5,49.3,103.5L49.3,103.5z"/>
	<path class="st0" d="M9.4,90.6h3.2l0.6,1.5h2.5l-3.6-8.5H9.9l-3.6,8.5h2.4L9.4,90.6z M11,86.4l0.9,2.4h-1.9L11,86.4z"/>
	<path class="st0" d="M48.4,92.1l-3.6-8.5h-2.2L39,92.1h2.5l0.6-1.5h3.2l0.6,1.5H48.4z M42.8,88.8l0.9-2.4l0.9,2.4H42.8z"/>
	<polygon class="st0" points="33.9,86.9 31.9,83.7 29.5,83.7 29.5,92.1 31.7,92.1 31.7,87.3 33.9,90.6 33.9,90.6 36.1,87.3
		36.1,92.1 38.4,92.1 38.4,83.7 35.9,83.7 	"/>
	<polygon class="st0" points="49.1,92.1 55.5,92.1 55.5,90.1 51.4,90.1 51.4,83.7 49.1,83.7 	"/>
	<rect x="25.7" y="83.7" class="st0" width="2.3" height="8.4"/>
	<polygon class="st0" points="16.4,83.7 16.4,92.1 18.7,92.1 18.7,87.5 22.3,92.1 24.3,92.1 24.3,83.7 22,83.7 22,88.1 18.6,83.7
		"/>
	<path class="st0" d="M75.1,75L75.1,75c0-0.8-0.2-1.5-0.7-2c-0.6-0.6-1.4-0.9-2.7-0.9h-4v8.4H70V78h1l1.7,2.6h2.7l-2-2.9
		C74.5,77.2,75.2,76.1,75.1,75z M72.8,75.1c0,0.6-0.5,1-1.2,1H70v-2h1.5C72.3,74.1,72.8,74.4,72.8,75.1L72.8,75.1z"/>
	<rect x="15.5" y="72.1" class="st0" width="2.3" height="8.4"/>
	<path class="st0" d="M61.2,72l-3.6,8.5h2.4l0.6-1.5h3.2l0.6,1.5H67L63.5,72H61.2z M61.4,77.2l0.9-2.4l0.9,2.4H61.4z"/>
	<polygon class="st0" points="43.1,74.1 43.1,72.1 36.4,72.1 36.4,80.5 43.1,80.5 43.1,78.5 38.7,78.5 38.7,77.2 42.7,77.2
		42.7,75.4 38.7,75.4 38.7,74.1 	"/>
	<polygon class="st0" points="26,74.1 26,72.1 19.2,72.1 19.2,80.5 26,80.5 26,78.5 21.5,78.5 21.5,77.2 25.6,77.2 25.6,75.4
		21.5,75.4 21.5,74.1 	"/>
	<path class="st0" d="M14.5,78.2L14.5,78.2c0-1.2-0.6-1.8-1.7-2.1c0.7-0.3,1.3-0.9,1.3-1.9v0c0-0.5-0.2-1-0.5-1.4
		c-0.5-0.5-1.2-0.8-2.3-0.8H7v8.4h4.3C13.3,80.5,14.5,79.7,14.5,78.2z M9.3,74h1.5c0.7,0,1,0.3,1,0.7v0c0,0.5-0.4,0.7-1.1,0.7H9.3
		V74z M9.3,78.7v-1.6h1.8c0.8,0,1.1,0.3,1.1,0.8v0c0,0.5-0.4,0.8-1.1,0.8L9.3,78.7z"/>
	<polygon class="st0" points="32.7,76.5 29.3,72.1 27.1,72.1 27.1,80.5 29.4,80.5 29.4,75.9 33,80.5 35,80.5 35,72.1 32.7,72.1 	"/>
	<polygon class="st0" points="56,80.5 56,74.1 58.5,74.1 58.5,72.1 51.2,72.1 51.2,74.1 53.7,74.1 53.7,80.5 	"/>
	<path class="st0" d="M47.6,78.7c-1,0-2-0.4-2.7-1l-1.3,1.6c1.1,0.9,2.5,1.4,3.9,1.4c2,0,3.4-1,3.4-2.8v0c0-1.6-1.2-2.2-3.1-2.6
		c-1.2-0.3-1.4-0.4-1.4-0.8v0c0-0.3,0.3-0.5,0.8-0.5c0.8,0,1.7,0.3,2.3,0.8l1.2-1.7c-0.9-0.7-2-1.1-3.4-1.1c-2,0-3.2,1.1-3.2,2.7v0
		c0,1.7,1.4,2.2,3.2,2.7c1.1,0.3,1.4,0.5,1.4,0.8v0C48.5,78.5,48.2,78.7,47.6,78.7z"/>
	<path class="st0" d="M54.6,22.4L54.6,22.4C47.3,18.9,42,18.5,38.8,21c-0.6,0.4-0.9,1.1-0.8,1.9c0.2,2.2,4,4.7,6,5.6
		c10.3,6,15.8,16.9,13,25.8c-0.6,2.1-1.9,3.6-3.4,3.9c-1.2,0.2-2.3-0.2-3.2-1.3c-0.6-0.8-1-1.4-1.3-1.8c2.4-7.2,0.8-12.4-1.8-15
		c-1.8-1.8-4.3-2.4-6.2-1.5c-2.2,1-3.3,3.8-3,7.5l0,0c0.3,3.3,0.2,7.7-1.1,10c-0.6,1.1-1.4,1.6-2.3,1.6c-2.1-0.1-4.9-2.8-6.3-6.2
		c-3.9-9.2-2.1-16.6-0.7-20.1c3.6-9.1,7.6-13.3,12.8-17.1c0.4-0.2,0.7-0.5,1.1-0.7c1.5-0.9,3.4-1.9,3.2-3.7
		c-0.1-0.5-0.3-0.9-0.7-1.2c-1.2-0.9-3.6-0.6-4.6-0.4c-7.1,1.7-10.8,5-16,11.4c-8.1,10.1-10,21.6-5.2,31.5c3.9,8.1,11.9,14,19.1,14
		h0.1c4,0,7.2-1.9,9.4-5.2c1.1,1.8,3,3.4,5.9,3.7c0.3,0,0.6,0.1,1,0.1c4,0,8.1-2.7,10.5-6.9c3.2-5.7,4-13.2,2-20
		C64.2,30.3,60.1,25.3,54.6,22.4z"/>
	<path class="st0" d="M56.3,108.5c-0.2,0.5-0.6,0.9-1.1,1.1c-0.5,0.2-1.1,0.2-1.6,0c-0.7-0.3-1.2-1-1.2-1.9c0-0.3,0.1-0.5,0.2-0.8
		c0.2-0.5,0.6-0.9,1.1-1.1c0.5-0.2,1.1-0.2,1.6,0c0.2,0.1,0.5,0.3,0.6,0.4c0.2,0.2,0.3,0.4,0.4,0.6C56.5,107.5,56.5,108,56.3,108.5
		L56.3,108.5z M56.1,107c-0.2-0.4-0.5-0.8-0.9-1c-0.2-0.1-0.5-0.1-0.7-0.1c-0.2,0-0.5,0-0.7,0.1c-0.4,0.2-0.8,0.5-1,1
		c-0.2,0.5-0.2,1,0,1.4c0.3,0.7,0.9,1.1,1.7,1.1c0.2,0,0.5,0,0.7-0.1c0.2-0.1,0.4-0.2,0.6-0.4c0.3-0.3,0.5-0.8,0.5-1.3
		C56.3,107.5,56.2,107.3,56.1,107z M55.3,107.7c-0.1,0.1-0.2,0.2-0.4,0.2l0.6,0.8H55l-0.5-0.7h-0.4v0.7h-0.4v-2.1h0.9
		c0.2,0,0.4,0.1,0.6,0.2c0.1,0.1,0.2,0.3,0.2,0.5C55.4,107.5,55.4,107.6,55.3,107.7L55.3,107.7z M54.9,107.1
		c-0.1-0.1-0.2-0.1-0.3-0.1h-0.5v0.7h0.5c0.1,0,0.2,0,0.3-0.1C55,107.5,55,107.2,54.9,107.1C54.9,107.1,54.9,107.1,54.9,107.1
		L54.9,107.1z"/>
</g>
</svg>
