<?xml version="1.0" encoding="UTF-8"?>
<svg width="90" height="90" version="1.1" viewBox="0 0 23.812 23.812" xmlns="http://www.w3.org/2000/svg">
 <g transform="matrix(1.196 0 0 1.196 -.01999 -.01685)">
  <g transform="matrix(.35278 0 0 -.35278 14.096 .15583)">
   <path d="m-0.30134 0.40179h-39.609v-56.438h56.437v39.61z" fill="#1d71b7"/>
  </g>
  <g transform="matrix(.35278 0 0 -.35278 2.5222 3.1362)">
   <path d="m0 0c0.347 0 0.613 0.081 0.8 0.245 0.186 0.163 0.28 0.438 0.28 0.824 0 0.66-0.333 0.991-1 0.991h-0.68v-2.06zm0.62 3.12c0.6 0 1.067-0.152 1.4-0.455 0.333-0.304 0.5-0.766 0.5-1.386 0-0.479-0.097-0.871-0.29-1.175-0.193-0.302-0.494-0.498-0.9-0.584v-0.02c0.36-0.054 0.623-0.17 0.79-0.351 0.167-0.179 0.27-0.469 0.31-0.87 0.013-0.133 0.023-0.278 0.03-0.434 6e-3 -0.157 0.013-0.332 0.02-0.526 0.013-0.38 0.033-0.67 0.06-0.869 0.04-0.2 0.127-0.337 0.26-0.41v-0.061h-1.56c-0.073 0.101-0.12 0.215-0.14 0.346-0.02 0.13-0.034 0.265-0.04 0.404l-0.04 1.371c-0.014 0.28-0.083 0.5-0.21 0.66s-0.34 0.24-0.64 0.24h-0.77v-3.021h-1.44v7.141z" fill="#fff"/>
  </g>
  <g transform="matrix(.35278 0 0 -.35278 5.341 2.452)">
   <path d="m0 0h-2.55v-1.68h2.4v-1.179h-2.4v-1.92h2.65v-1.181h-4.09v7.141h3.99z" fill="#fff"/>
  </g>
  <g transform="matrix(.35278 0 0 -.35278 6.8103 2.4854)">
   <path d="m0 0c-0.124 0.236-0.349 0.355-0.675 0.355-0.18 0-0.329-0.048-0.445-0.145-0.117-0.097-0.209-0.253-0.275-0.47-0.067-0.217-0.114-0.5-0.14-0.85-0.027-0.35-0.04-0.779-0.04-1.285 0-0.54 0.018-0.977 0.055-1.31 0.036-0.333 0.093-0.592 0.17-0.775s0.173-0.307 0.29-0.37c0.116-0.063 0.251-0.095 0.405-0.095 0.126 0 0.245 0.021 0.355 0.065 0.11 0.043 0.205 0.13 0.285 0.26s0.143 0.313 0.19 0.55c0.046 0.237 0.07 0.549 0.07 0.935h1.44c0-0.386-0.03-0.754-0.09-1.1-0.06-0.347-0.172-0.65-0.335-0.91-0.164-0.26-0.394-0.463-0.69-0.61-0.297-0.146-0.682-0.22-1.155-0.22-0.54 0-0.97 0.086-1.29 0.26-0.32 0.173-0.565 0.423-0.735 0.75-0.17 0.326-0.28 0.717-0.33 1.17s-0.075 0.953-0.075 1.5c0 0.54 0.025 1.038 0.075 1.495 0.05 0.456 0.16 0.848 0.33 1.175 0.17 0.326 0.415 0.582 0.735 0.765s0.75 0.275 1.29 0.275c0.513 0 0.918-0.083 1.215-0.25 0.296-0.167 0.518-0.379 0.665-0.635 0.146-0.257 0.238-0.534 0.275-0.83 0.036-0.297 0.055-0.575 0.055-0.835h-1.44c0 0.52-0.062 0.899-0.185 1.135" fill="#fff"/>
  </g>
  <path d="m7.8103 2.0354h0.508v2.5192h-0.508z" fill="#fff"/>
  <g transform="matrix(.35278 0 0 -.35278 9.8975 2.4854)">
   <path d="m0 0c-0.124 0.236-0.349 0.355-0.675 0.355-0.18 0-0.329-0.048-0.445-0.145-0.117-0.097-0.209-0.253-0.275-0.47-0.067-0.217-0.114-0.5-0.14-0.85-0.027-0.35-0.04-0.779-0.04-1.285 0-0.54 0.018-0.977 0.055-1.31 0.036-0.333 0.093-0.592 0.17-0.775s0.173-0.307 0.29-0.37c0.116-0.063 0.251-0.095 0.405-0.095 0.126 0 0.245 0.021 0.355 0.065 0.11 0.043 0.205 0.13 0.285 0.26s0.143 0.313 0.19 0.55c0.046 0.237 0.07 0.549 0.07 0.935h1.44c0-0.386-0.03-0.754-0.09-1.1-0.06-0.347-0.172-0.65-0.335-0.91-0.164-0.26-0.394-0.463-0.69-0.61-0.297-0.146-0.682-0.22-1.155-0.22-0.54 0-0.97 0.086-1.29 0.26-0.32 0.173-0.565 0.423-0.735 0.75-0.17 0.326-0.28 0.717-0.33 1.17s-0.075 0.953-0.075 1.5c0 0.54 0.025 1.038 0.075 1.495 0.05 0.456 0.16 0.848 0.33 1.175 0.17 0.326 0.415 0.582 0.735 0.765s0.75 0.275 1.29 0.275c0.513 0 0.918-0.083 1.215-0.25 0.296-0.167 0.518-0.379 0.665-0.635 0.146-0.257 0.238-0.534 0.275-0.83 0.036-0.297 0.055-0.575 0.055-0.835h-1.44c0 0.52-0.062 0.899-0.185 1.135" fill="#fff"/>
  </g>
  <g transform="matrix(.35278 0 0 -.35278 10.883 2.0355)">
   <path d="m0 0h1.44v-5.96h2.55v-1.181h-3.99z" fill="#fff"/>
  </g>
  <g transform="matrix(.35278 0 0 -.35278 13.659 3.6054)">
   <path d="m0 0-0.69 3.21h-0.02l-0.69-3.21zm0.19 4.45 1.89-7.14h-1.5l-0.33 1.509h-1.9l-0.33-1.509h-1.5l1.89 7.14z" fill="#fff"/>
  </g>
  <g transform="matrix(.35278 0 0 -.35278 14.937 9.1124)">
   <path d="m0 0c0-1.5-1.216-2.715-2.715-2.715s-2.715 1.215-2.715 2.715c0 1.499 1.216 2.715 2.715 2.715s2.715-1.216 2.715-2.715" fill="#fff"/>
  </g>
  <g transform="matrix(.35278 0 0 -.35278 9.7511 11.692)">
   <path d="m0 0c0-1.85-1.5-3.349-3.349-3.349s-3.348 1.499-3.348 3.349c0 1.849 1.499 3.348 3.348 3.348s3.349-1.499 3.349-3.348" fill="#fff"/>
  </g>
  <g transform="matrix(.35278 0 0 -.35278 17.261 17.991)">
   <path d="m0 0-3.085 19.234c-0.334 1.61-1.911 2.568-3.676 2.301l-12.494-1.978c-0.763-0.15-0.819-1.377 0.026-1.428h8.14c1.528 0 2.865-1.228 2.595-2.675l-2.316-15.454c-0.247-1.242 1.586-1.619 2.012-0.268l2.957 9.11c0.077 0.207 0.257 0.304 0.436 0.305 0.179-1e-3 0.359-0.098 0.437-0.305l2.957-9.11c0.426-1.351 2.258-0.974 2.011 0.268" fill="#fff"/>
  </g>
  <g transform="matrix(.35278 0 0 -.35278 11.24 16.634)">
   <path d="m0 0-1.617 11.887c-0.48-1.347-1.4-2.48-2.591-3.23l1.216-8.947c-0.045-0.992-0.867-1.785-1.87-1.785h-13.943c-1.003 0-1.825 0.793-1.87 1.785l1.835 13.498c0.15 0.97 0.735 2.102 1.89 2.102h3.188c0.24 1.147 0.795 2.176 1.564 3.003h-4.752c-2.438 0-4.435-1.911-4.862-4.673l-1.855-13.64c-9e-3 -0.067-0.014-0.135-0.014-0.203 0-2.689 2.188-4.875 4.876-4.875h13.943c2.688 0 4.876 2.186 4.876 4.875 0 0.068-5e-3 0.136-0.014 0.203" fill="#fff"/>
  </g>
  <g transform="matrix(.35278 0 0 -.35278 2.7847 6.893)">
   <path d="m0 0-0.552 2.568h-0.016l-0.552-2.568zm0.152 3.56 1.512-5.712h-1.2l-0.264 1.208h-1.52l-0.264-1.208h-1.2l1.512 5.712z" fill="#fff"/>
  </g>
  <path d="m4.0207 7.6523h-0.38947v-2.0151h0.38947z" fill="#fff"/>
  <g transform="matrix(.35278 0 0 -.35278 5.9513 6.893)">
   <path d="m0 0-0.552 2.568h-0.016l-0.552-2.568zm0.152 3.56 1.512-5.712h-1.2l-0.264 1.208h-1.52l-0.264-1.208h-1.2l1.512 5.712z" fill="#fff"/>
  </g>
  <g transform="matrix(.35278 0 0 -.35278 7.3285 6.45)">
   <path d="m0 0h-1.64v0.896h2.944v-0.848l-1.72-2.56h1.72v-0.896h-3.024v0.848z" fill="#fff"/>
  </g>
  <g transform="matrix(.35278 0 0 -.35278 8.875 7.4746)">
   <path d="m0 0c-0.118-0.213-0.27-0.365-0.456-0.456-0.187-0.09-0.4-0.136-0.64-0.136-0.352 0-0.623 0.092-0.812 0.277-0.19 0.183-0.284 0.492-0.284 0.923v3.193h1.104v-2.969c0-0.224 0.037-0.38 0.112-0.468s0.195-0.132 0.36-0.132c0.389 0 0.584 0.238 0.584 0.712v2.857h1.104v-4.305h-1.056v0.504z" fill="#fff"/>
  </g>
  <path d="m10.032 7.6523h-0.38947v-2.0151h0.38947z" fill="#fff"/>
 </g>
</svg>
