<?xml version="1.0" encoding="UTF-8"?>
<svg width="90" height="90" version="1.1" viewBox="0 0 23.812 23.812" xmlns="http://www.w3.org/2000/svg">
 <g transform="matrix(1.196 0 0 1.196 -27.084 -.18637)">
  <g transform="matrix(.35278 0 0 -.35278 36.619 .15583)">
   <path d="m0 0h-39.609v-56.438h56.437v39.61z" fill="#f9d832"/>
  </g>
  <g transform="matrix(.35278 0 0 -.35278 37.46 9.1124)">
   <path d="m0 0c0-1.5-1.216-2.715-2.715-2.715-1.5 0-2.715 1.215-2.715 2.715 0 1.499 1.215 2.715 2.715 2.715 1.499 0 2.715-1.216 2.715-2.715"/>
  </g>
  <g transform="matrix(.35278 0 0 -.35278 32.274 11.692)">
   <path d="m0 0c0-1.85-1.499-3.349-3.348-3.349-1.85 0-3.349 1.499-3.349 3.349 0 1.849 1.499 3.348 3.349 3.348 1.849 0 3.348-1.499 3.348-3.348"/>
  </g>
  <g transform="matrix(.35278 0 0 -.35278 39.784 17.991)">
   <path d="m0 0-3.085 19.234c-0.335 1.61-1.911 2.568-3.676 2.301l-12.494-1.978c-0.763-0.15-0.819-1.377 0.026-1.428h8.139c1.529 0 2.866-1.228 2.596-2.675l-2.316-15.454c-0.247-1.242 1.586-1.619 2.012-0.268l2.957 9.11c0.077 0.207 0.257 0.304 0.436 0.305 0.179-1e-3 0.359-0.098 0.436-0.305l2.958-9.11c0.426-1.351 2.258-0.974 2.011 0.268"/>
  </g>
  <g transform="matrix(.35278 0 0 -.35278 33.763 16.634)">
   <path d="m0 0-1.616 11.887c-0.481-1.347-1.401-2.48-2.592-3.23l1.217-8.947c-0.046-0.992-0.867-1.785-1.871-1.785h-13.942c-1.004 0-1.826 0.793-1.871 1.785l1.835 13.498c0.15 0.97 0.735 2.102 1.89 2.102h3.189c0.24 1.147 0.794 2.176 1.563 3.003h-4.752c-2.437 0-4.435-1.911-4.862-4.673l-1.855-13.64c-9e-3 -0.067-0.013-0.135-0.013-0.203 0-2.689 2.187-4.875 4.876-4.875h13.942c2.689 0 4.876 2.186 4.876 4.875 0 0.068-5e-3 0.136-0.014 0.203"/>
  </g>
  <g>
   <g transform="matrix(.35278 0 0 -.35278 25.045 3.1362)">
    <path d="m0 0c0.347 0 0.613 0.081 0.8 0.245 0.186 0.163 0.28 0.438 0.28 0.824 0 0.66-0.333 0.991-1 0.991h-0.68v-2.06zm0.62 3.12c0.6 0 1.067-0.152 1.4-0.455 0.333-0.304 0.5-0.766 0.5-1.386 0-0.479-0.097-0.871-0.29-1.175-0.193-0.302-0.494-0.498-0.9-0.584v-0.02c0.36-0.054 0.623-0.17 0.79-0.351 0.167-0.179 0.27-0.469 0.31-0.87 0.013-0.133 0.023-0.278 0.03-0.434 6e-3 -0.157 0.013-0.332 0.02-0.526 0.013-0.38 0.033-0.67 0.06-0.869 0.04-0.2 0.127-0.337 0.26-0.41v-0.061h-1.56c-0.073 0.101-0.12 0.215-0.14 0.346-0.02 0.13-0.034 0.265-0.04 0.404l-0.04 1.371c-0.014 0.28-0.083 0.5-0.21 0.66s-0.34 0.24-0.64 0.24h-0.77v-3.021h-1.44v7.141z"/>
   </g>
   <g transform="matrix(.35278 0 0 -.35278 27.864 2.452)">
    <path d="m0 0h-2.55v-1.68h2.4v-1.179h-2.4v-1.92h2.65v-1.181h-4.09v7.141h3.99z"/>
   </g>
   <g transform="matrix(.35278 0 0 -.35278 29.333 2.4854)">
    <path d="m0 0c-0.124 0.236-0.349 0.355-0.675 0.355-0.18 0-0.329-0.048-0.445-0.145-0.117-0.097-0.209-0.253-0.275-0.47-0.067-0.217-0.114-0.5-0.14-0.85-0.027-0.35-0.04-0.779-0.04-1.285 0-0.54 0.018-0.977 0.055-1.31 0.036-0.333 0.093-0.592 0.17-0.775s0.173-0.307 0.29-0.37c0.116-0.063 0.251-0.095 0.405-0.095 0.126 0 0.245 0.021 0.355 0.065 0.11 0.043 0.205 0.13 0.285 0.26s0.143 0.313 0.19 0.55c0.046 0.237 0.07 0.549 0.07 0.935h1.44c0-0.386-0.03-0.754-0.09-1.1-0.06-0.347-0.172-0.65-0.335-0.91-0.164-0.26-0.394-0.463-0.69-0.61-0.297-0.146-0.682-0.22-1.155-0.22-0.54 0-0.97 0.086-1.29 0.26-0.32 0.173-0.565 0.423-0.735 0.75-0.17 0.326-0.28 0.717-0.33 1.17s-0.075 0.953-0.075 1.5c0 0.54 0.025 1.038 0.075 1.495 0.05 0.456 0.16 0.848 0.33 1.175 0.17 0.326 0.415 0.582 0.735 0.765s0.75 0.275 1.29 0.275c0.513 0 0.918-0.083 1.215-0.25 0.296-0.167 0.518-0.379 0.665-0.635 0.146-0.257 0.238-0.534 0.275-0.83 0.036-0.297 0.055-0.575 0.055-0.835h-1.44c0 0.52-0.062 0.899-0.185 1.135"/>
   </g>
   <path d="m30.333 2.0354h0.508v2.5192h-0.508z"/>
   <g transform="matrix(.35278 0 0 -.35278 32.42 2.4854)">
    <path d="m0 0c-0.124 0.236-0.349 0.355-0.675 0.355-0.18 0-0.329-0.048-0.445-0.145-0.117-0.097-0.209-0.253-0.275-0.47-0.067-0.217-0.114-0.5-0.14-0.85-0.027-0.35-0.04-0.779-0.04-1.285 0-0.54 0.018-0.977 0.055-1.31 0.036-0.333 0.093-0.592 0.17-0.775s0.173-0.307 0.29-0.37c0.116-0.063 0.251-0.095 0.405-0.095 0.126 0 0.245 0.021 0.355 0.065 0.11 0.043 0.205 0.13 0.285 0.26s0.143 0.313 0.19 0.55c0.046 0.237 0.07 0.549 0.07 0.935h1.44c0-0.386-0.03-0.754-0.09-1.1-0.06-0.347-0.172-0.65-0.335-0.91-0.164-0.26-0.394-0.463-0.69-0.61-0.297-0.146-0.682-0.22-1.155-0.22-0.54 0-0.97 0.086-1.29 0.26-0.32 0.173-0.565 0.423-0.735 0.75-0.17 0.326-0.28 0.717-0.33 1.17s-0.075 0.953-0.075 1.5c0 0.54 0.025 1.038 0.075 1.495 0.05 0.456 0.16 0.848 0.33 1.175 0.17 0.326 0.415 0.582 0.735 0.765s0.75 0.275 1.29 0.275c0.513 0 0.918-0.083 1.215-0.25 0.296-0.167 0.518-0.379 0.665-0.635 0.146-0.257 0.238-0.534 0.275-0.83 0.036-0.297 0.055-0.575 0.055-0.835h-1.44c0 0.52-0.062 0.899-0.185 1.135"/>
   </g>
   <g transform="matrix(.35278 0 0 -.35278 33.405 2.0355)">
    <path d="m0 0h1.44v-5.96h2.55v-1.181h-3.99z"/>
   </g>
   <g transform="matrix(.35278 0 0 -.35278 36.182 3.6054)">
    <path d="m0 0-0.69 3.21h-0.02l-0.69-3.21zm0.19 4.45 1.89-7.14h-1.5l-0.33 1.509h-1.9l-0.33-1.509h-1.5l1.89 7.14z"/>
   </g>
   <g transform="matrix(.35278 0 0 -.35278 25.308 6.893)">
    <path d="m0 0-0.552 2.568h-0.016l-0.552-2.568zm0.152 3.56 1.512-5.712h-1.2l-0.264 1.208h-1.52l-0.264-1.208h-1.2l1.512 5.712z"/>
   </g>
   <path d="m26.544 7.6523h-0.38947v-2.0151h0.38947z"/>
   <g transform="matrix(.35278 0 0 -.35278 28.474 6.893)">
    <path d="m0 0-0.552 2.568h-0.016l-0.552-2.568zm0.152 3.56 1.512-5.712h-1.2l-0.264 1.208h-1.52l-0.264-1.208h-1.2l1.512 5.712z"/>
   </g>
   <g transform="matrix(.35278 0 0 -.35278 29.679 6.1338)">
    <path d="m0 0v-0.44h0.016c0.139 0.197 0.295 0.338 0.468 0.423s0.38 0.128 0.62 0.128c0.256 0 0.471-0.058 0.644-0.175 0.173-0.118 0.29-0.289 0.348-0.512h0.016c0.085 0.228 0.223 0.401 0.412 0.515 0.189 0.115 0.415 0.172 0.676 0.172 0.368 0 0.639-0.11 0.812-0.332 0.174-0.22 0.26-0.54 0.26-0.956v-3.128h-1.104v3.008c0 0.182-0.033 0.32-0.1 0.416-0.067 0.097-0.177 0.145-0.332 0.145-0.176 0-0.316-0.059-0.42-0.176-0.104-0.118-0.156-0.305-0.156-0.561v-2.832h-1.104v3.008c0 0.182-0.033 0.32-0.1 0.416-0.066 0.097-0.177 0.145-0.332 0.145-0.176 0-0.316-0.059-0.42-0.176-0.104-0.118-0.156-0.305-0.156-0.561v-2.832h-1.104v4.305z"/>
   </g>
   <g transform="matrix(.35278 0 0 -.35278 32.185 6.9423)">
    <path d="m0 0c-0.085-0.035-0.163-0.061-0.232-0.076-0.224-0.048-0.384-0.128-0.48-0.24-0.096-0.113-0.144-0.264-0.144-0.456 0-0.165 0.032-0.307 0.096-0.424s0.17-0.176 0.32-0.176c0.074 0 0.152 0.012 0.232 0.035 0.08 0.025 0.153 0.064 0.22 0.116 0.067 0.054 0.121 0.123 0.164 0.208 0.042 0.086 0.064 0.187 0.064 0.305v0.848c-0.075-0.059-0.155-0.106-0.24-0.14m-1.776 1.075c0 0.251 0.04 0.46 0.12 0.628s0.188 0.305 0.324 0.408c0.136 0.105 0.296 0.179 0.48 0.225 0.184 0.045 0.38 0.067 0.588 0.067 0.33 0 0.597-0.032 0.8-0.095 0.202-0.065 0.36-0.156 0.472-0.273s0.188-0.257 0.228-0.42c0.04-0.162 0.06-0.34 0.06-0.531v-2.265c0-0.202 9e-3 -0.359 0.028-0.471 0.018-0.113 0.054-0.233 0.108-0.361h-1.056c-0.038 0.07-0.065 0.143-0.084 0.221-0.019 0.077-0.036 0.152-0.052 0.228h-0.016c-0.128-0.224-0.276-0.37-0.444-0.436-0.168-0.067-0.385-0.101-0.652-0.101-0.192 0-0.355 0.034-0.488 0.101-0.134 0.066-0.24 0.158-0.32 0.275-0.08 0.118-0.139 0.249-0.176 0.397-0.038 0.146-0.056 0.292-0.056 0.435 0 0.204 0.021 0.377 0.064 0.525 0.042 0.146 0.108 0.271 0.196 0.376 0.088 0.103 0.2 0.19 0.336 0.26 0.136 0.069 0.3 0.13 0.492 0.183l0.624 0.168c0.165 0.043 0.28 0.102 0.344 0.177 0.064 0.074 0.096 0.183 0.096 0.328 0 0.165-0.039 0.294-0.116 0.388-0.078 0.092-0.209 0.139-0.396 0.139-0.171 0-0.299-0.05-0.384-0.151-0.086-0.102-0.128-0.238-0.128-0.408v-0.12h-0.992z"/>
   </g>
   <g transform="matrix(.35278 0 0 -.35278 33.407 6.1338)">
    <path d="m0 0v-0.576h0.016c0.112 0.208 0.248 0.374 0.408 0.5 0.16 0.125 0.355 0.187 0.584 0.187 0.032 0 0.065-1e-3 0.1-4e-3s0.068-6e-3 0.1-0.011v-1.056c-0.059 5e-3 -0.116 9e-3 -0.172 0.012-0.056 2e-3 -0.113 4e-3 -0.172 4e-3 -0.096 0-0.192-0.014-0.288-0.04-0.096-0.027-0.184-0.072-0.264-0.132-0.08-0.062-0.144-0.142-0.192-0.24-0.048-0.099-0.072-0.22-0.072-0.365v-2.584h-1.104v4.305z"/>
   </g>
   <g>
    <path d="m34.494 7.6523h-0.38947v-1.5187h0.38947zm0-1.7046h-0.38947v-0.33302h0.38947z"/>
    <path d="m35.287 7.6523h-0.38947v-2.0151h0.38947z"/>
    <path d="m36.08 7.6523h-0.38947v-2.0151h0.38947z"/>
   </g>
   <g transform="matrix(.35278 0 0 -.35278 36.814 7.1077)">
    <path d="m0 0c0.01-0.187 0.036-0.347 0.076-0.479 0.04-0.134 0.1-0.238 0.18-0.313 0.08-0.074 0.186-0.111 0.32-0.111 0.224 0 0.379 0.117 0.464 0.351 0.085 0.235 0.128 0.621 0.128 1.16 0 0.538-0.043 0.925-0.128 1.161-0.085 0.234-0.24 0.351-0.464 0.351-0.134 0-0.24-0.037-0.32-0.112-0.08-0.074-0.14-0.179-0.18-0.312-0.04-0.134-0.066-0.293-0.076-0.48-0.011-0.187-0.016-0.389-0.016-0.608 0-0.218 5e-3 -0.421 0.016-0.608m-1.032 1.584c0.058 0.283 0.155 0.519 0.288 0.708s0.308 0.334 0.524 0.433c0.216 0.098 0.481 0.147 0.796 0.147 0.33 6e-3 0.605-0.038 0.824-0.132 0.218-0.094 0.392-0.236 0.52-0.427 0.128-0.193 0.218-0.43 0.272-0.712 0.053-0.284 0.08-0.614 0.08-0.993 0-0.368-0.03-0.693-0.088-0.976-0.059-0.282-0.155-0.519-0.288-0.708-0.134-0.189-0.308-0.329-0.524-0.42-0.216-0.09-0.481-0.136-0.796-0.136-0.331-5e-3 -0.606 0.036-0.824 0.124-0.219 0.088-0.392 0.227-0.52 0.416-0.128 0.19-0.219 0.427-0.272 0.712-0.054 0.285-0.08 0.615-0.08 0.988 0 0.369 0.029 0.694 0.088 0.976"/>
   </g>
  </g>
 </g>
</svg>
