<?xml version="1.0" encoding="UTF-8" standalone="no"?>
<svg
   width="565"
   height="180"
   version="1.1"
   id="svg78"
   sodipodi:docname="get-it-on-ta.svg"
   xmlns:inkscape="http://www.inkscape.org/namespaces/inkscape"
   xmlns:sodipodi="http://sodipodi.sourceforge.net/DTD/sodipodi-0.dtd"
   xmlns:xlink="http://www.w3.org/1999/xlink"
   xmlns="http://www.w3.org/2000/svg"
   xmlns:svg="http://www.w3.org/2000/svg">
  <sodipodi:namedview
     id="namedview80"
     pagecolor="#ffffff"
     bordercolor="#000000"
     borderopacity="0.25"
     inkscape:showpageshadow="2"
     inkscape:pageopacity="0.0"
     inkscape:pagecheckerboard="0"
     inkscape:deskcolor="#d1d1d1" />
  <defs
     id="defs8">
    <radialGradient
       xlink:href="#a"
       id="b"
       cx="113"
       cy="-12.89"
       r="59.662"
       fx="113"
       fy="-12.89"
       gradientTransform="matrix(0 1.96105 -1.97781 0 254.507 78.763)"
       gradientUnits="userSpaceOnUse" />
    <linearGradient
       id="a">
      <stop
         offset="0"
         style="stop-color:#fff;stop-opacity:.09803922"
         id="stop3" />
      <stop
         offset="1"
         style="stop-color:#fff;stop-opacity:0"
         id="stop5" />
    </linearGradient>
  </defs>
  <g
     transform="translate(-329,-347.362)"
     id="g76">
    <path
       id="rect10"
       style="display:inline;overflow:visible;stroke:#a6a6a6;stroke-width:4;marker:none"
       d="m 352,349.362 h 520 c 11.08,0 20,8.92 20,20 v 136 c 0,11.08 -8.92,20 -20,20 H 352 c -11.08,0 -20,-8.92 -20,-20 v -136 c 0,-11.08 8.92,-20 20,-20 z" />
    <g
       aria-label="இல் பெறுக"
       id="text14"
       style="font-size:12.3952px;line-height:100%;font-family:'DejaVu Sans';-inkscape-font-specification:'DejaVu Sans';letter-spacing:0;word-spacing:0;display:inline;overflow:visible;fill:#ffffff;stroke-width:1px;marker:none">
      <path
         d="m 517.68699,500.80611 q -3.31013,0 -5.187,-1.70625 -1.87688,-1.70625 -1.87688,-4.67512 0,-2.11575 0.9555,-3.78788 0.98963,-1.67212 2.62763,-2.90062 -1.29675,-2.52525 -1.97925,-5.15288 -0.6825,-2.66175 -0.6825,-5.66475 0,-2.96887 0.98962,-5.80125 1.02375,-2.83237 3.07125,-5.08462 2.08163,-2.25225 5.22113,-3.58313 3.17362,-1.365 7.47337,-1.365 8.29238,0 12.21675,4.641 1.94513,2.28638 2.90063,5.39175 0.9555,3.10538 0.9555,7.74638 v 10.98825 h -2.93475 v -9.282 q 0,-4.87988 -0.88725,-8.22413 -0.85313,-3.34425 -2.83238,-5.39175 -1.60387,-1.67212 -3.89025,-2.49112 -2.28637,-0.819 -5.52825,-0.819 -2.8665,0 -5.39175,0.88725 -2.49112,0.85312 -4.40212,2.55937 -1.87688,1.70625 -2.96888,4.19738 -1.05787,2.49112 -1.05787,5.76712 0,2.79825 0.546,4.98225 0.546,2.184 1.56975,4.33388 1.84275,-0.819 4.06087,-1.2285 2.25225,-0.44363 4.641,-0.44363 2.184,0 4.06088,0.30713 1.87687,0.30712 3.4125,0.85312 0.58012,-2.21812 0.58012,-4.53862 0,-2.42288 -0.64837,-4.06088 -0.64838,-1.67212 -1.67213,-2.66175 -1.02375,-1.02375 -2.14987,-1.43325 0.47775,0.6825 0.75075,1.53563 0.30712,0.819 0.30712,1.7745 0,2.21812 -1.43325,3.65137 -1.43325,1.39913 -4.12912,1.39913 -1.53563,0 -2.79825,-0.64838 -1.26263,-0.64837 -2.01338,-1.84275 -0.75075,-1.19437 -0.75075,-2.76412 0,-1.94513 0.98963,-3.20775 1.02375,-1.29675 2.76412,-1.911 1.74038,-0.61425 3.89025,-0.61425 3.276,0 5.46,1.33087 2.184,1.33088 3.276,3.71963 1.12613,2.38875 1.12613,5.5965 0,1.2285 -0.20475,2.76412 -0.17063,1.53563 -0.6825,3.1395 2.28637,1.39913 3.4125,3.34425 1.16025,1.94513 1.16025,3.99263 0,2.96887 -1.87688,4.67512 -1.84275,1.70625 -5.35762,1.70625 -3.89025,0 -7.43925,-1.7745 -1.87688,0.85313 -3.78788,1.29675 -1.87687,0.47775 -3.85612,0.47775 z m 3.822,-24.57 q 0,1.26263 0.75075,2.11575 0.78487,0.85313 2.184,0.85313 1.26262,0 2.0475,-0.78488 0.78487,-0.819 0.78487,-2.28637 0,-1.74038 -1.16025,-3.24188 -0.1365,0 -0.273,0 -1.84275,0 -3.10537,0.819 -1.2285,0.819 -1.2285,2.52525 z m 3.85612,10.92 q -2.42287,0 -4.33387,0.4095 -1.911,0.37538 -3.31013,1.05788 1.16025,2.08162 3.10538,4.12912 1.97925,2.08163 4.40212,3.549 2.28638,-1.39912 4.06088,-3.58312 1.80862,-2.184 2.73,-4.47038 -1.46738,-0.58012 -3.20775,-0.819 -1.70625,-0.273 -3.44663,-0.273 z m 11.70488,7.098 q 0,-1.39912 -0.71663,-2.62762 -0.6825,-1.19438 -1.87687,-2.08163 -1.05788,2.49113 -2.76413,4.53863 -1.70625,2.08162 -3.85612,3.549 1.05787,0.37537 2.184,0.546 1.16025,0.17062 2.42287,0.17062 2.52525,0 3.549,-1.16025 1.05788,-1.12612 1.05788,-2.93475 z m -23.54625,-0.0341 q 0,1.87687 1.05787,3.003 1.092,1.12612 3.51488,1.12612 1.2285,0 2.35462,-0.1365 1.16025,-0.1365 2.25225,-0.61425 -2.08162,-1.2285 -3.99262,-3.276 -1.87688,-2.01337 -3.24188,-4.26562 -0.98962,0.92137 -1.46737,1.97925 -0.47775,1.05787 -0.47775,2.184 z"
         style="font-size:34.125px"
         id="path83" />
      <path
         d="m 555.87285,490.26149 q -1.80863,0 -3.31013,-0.88725 -1.5015,-0.88725 -2.38875,-2.79825 -0.85312,-1.94513 -0.85312,-4.98225 0,-3.6855 1.39912,-6.1425 1.43325,-2.457 3.78788,-3.6855 2.35462,-1.2285 5.11875,-1.2285 1.638,0 3.34425,0.44362 1.70625,0.44363 3.003,1.74038 1.43325,1.39912 1.94512,3.4125 0.51188,2.01337 0.51188,5.11875 0,1.7745 0.273,3.1395 0.273,1.33087 1.12612,2.21812 1.02375,1.12613 2.93475,1.12613 1.12613,0 2.0475,-0.546 0.92138,-0.546 1.46738,-1.84275 0.546,-1.29675 0.546,-3.58313 0,-3.37837 -1.2285,-5.97187 -1.19438,-2.62763 -3.03713,-4.60688 l 2.66175,-1.80862 q 2.11575,2.69587 3.34425,5.66475 1.2285,2.96887 1.2285,6.48375 0,4.33387 -1.87687,6.552 -1.84275,2.184 -5.39175,2.184 -3.003,0 -4.7775,-1.70625 -2.25225,-2.08163 -2.28638,-7.2345 0,-1.2285 -0.1365,-2.52525 -0.1365,-1.29675 -0.546,-2.457 -0.4095,-1.19438 -1.29675,-2.01338 -0.6825,-0.61425 -1.638,-0.92137 -0.9555,-0.34125 -2.35462,-0.34125 -3.07125,0 -4.98225,1.911 -1.87688,1.911 -2.35463,4.98225 0.92138,-0.61425 1.94513,-0.9555 1.05787,-0.34125 2.184,-0.34125 2.457,0 3.9585,1.5015 1.53562,1.5015 1.53562,4.06087 0,2.83238 -1.60387,4.43625 -1.56975,1.60388 -4.29975,1.60388 z m -0.0682,-9.21375 q -1.05788,0 -2.01338,0.44362 -0.92137,0.4095 -1.7745,1.12613 0.1365,2.93475 1.26263,4.12912 1.12612,1.19438 2.73,1.19438 1.39912,0 2.184,-0.85313 0.78487,-0.88725 0.78487,-2.52525 0,-1.70625 -0.88725,-2.5935 -0.88725,-0.92137 -2.28637,-0.92137 z m 8.8725,-14.3325 q -0.98963,0 -1.638,-0.61425 -0.64838,-0.64838 -0.64838,-1.67213 0,-0.98962 0.64838,-1.638 0.64837,-0.64837 1.638,-0.64837 0.98962,0 1.638,0.64837 0.64837,0.64838 0.64837,1.638 0,1.02375 -0.64837,1.67213 -0.64838,0.61425 -1.638,0.61425 z"
         style="font-size:34.125px"
         id="path85" />
      <path
         d="m 593.81987,489.85199 v -18.90525 h 2.93475 v 16.44825 h 14.67375 v -16.44825 h 2.93475 v 18.90525 z"
         style="font-size:34.125px"
         id="path87" />
      <path
         d="m 631.01612,490.26149 q -3.4125,0 -6.07425,-1.70625 -2.62763,-1.74038 -4.12913,-4.84575 -1.5015,-3.10538 -1.5015,-7.26863 0,-3.822 1.2285,-6.6885 1.26263,-2.8665 3.31013,-4.7775 2.08162,-1.94512 4.60687,-2.90062 2.52525,-0.98963 5.11875,-0.98963 2.73,0 4.641,0.6825 1.911,0.6825 3.276,1.87688 1.29675,1.12612 2.08163,2.69587 0.78487,1.53563 1.16025,3.78788 0.37537,2.25225 0.37537,5.56237 v 14.16188 h -2.93475 v -12.45563 q 0,-4.67512 -0.58012,-7.40512 -0.546,-2.76413 -2.11575,-4.33388 -1.94513,-2.01337 -5.90363,-2.01337 -1.74037,0 -3.71962,0.6825 -1.97925,0.6825 -3.71963,2.21812 -1.70625,1.53563 -2.79825,4.02675 -1.092,2.49113 -1.092,6.1425 0,3.71963 1.26263,6.24488 1.29675,2.49112 3.34425,3.75375 -0.34125,-0.71663 -0.546,-1.53563 -0.17063,-0.85312 -0.17063,-1.87687 0,-1.43325 0.64838,-2.62763 0.64837,-1.2285 1.97925,-1.97925 1.33087,-0.75075 3.34425,-0.75075 2.49112,0 4.12912,1.56975 1.67213,1.56975 1.67213,4.43625 0,2.21813 -0.9555,3.61725 -0.92138,1.39913 -2.49113,2.0475 -1.53562,0.64838 -3.44662,0.64838 z m -2.21813,-6.24488 q 0,1.02375 0.273,1.97925 0.273,0.9555 0.85313,1.7745 0.71662,0.10238 1.46737,0.10238 1.74038,0 2.76413,-0.9555 1.05787,-0.98963 1.05787,-2.96888 0,-1.53562 -0.85312,-2.52525 -0.819,-1.02375 -2.3205,-1.02375 -1.46738,0 -2.35463,0.9555 -0.88725,0.9555 -0.88725,2.66175 z"
         style="font-size:34.125px"
         id="path89" />
      <path
         d="m 657.7019,475.38299 q -1.092,0 -1.092,-1.092 0,-1.05788 1.092,-1.05788 1.05788,0 1.05788,1.05788 0,1.092 -1.05788,1.092 z m -4.87987,1.87687 q -1.092,0 -1.092,-1.092 0,-1.05787 1.092,-1.05787 1.05787,0 1.05787,1.05787 0,1.092 -1.05787,1.092 z m 9.72562,0 q -1.092,0 -1.092,-1.092 0,-1.05787 1.092,-1.05787 1.092,0 1.092,1.05787 0,1.092 -1.092,1.092 z m -11.39775,4.70925 q -1.092,0 -1.092,-1.12612 0,-1.05788 1.092,-1.05788 1.092,0 1.092,1.05788 0,1.12612 -1.092,1.12612 z m 13.06988,0 q -1.05788,0 -1.05788,-1.12612 0,-1.05788 1.05788,-1.05788 1.092,0 1.092,1.05788 0,1.12612 -1.092,1.12612 z m -11.39775,4.641 q -1.092,0 -1.092,-1.092 0,-1.05787 1.092,-1.05787 1.05787,0 1.05787,1.05787 0,1.092 -1.05787,1.092 z m 9.72562,0 q -1.092,0 -1.092,-1.092 0,-1.05787 1.092,-1.05787 1.092,0 1.092,1.05787 0,1.092 -1.092,1.092 z m -4.84575,1.87688 q -1.092,0 -1.092,-1.092 0,-1.092 1.092,-1.092 1.05788,0 1.05788,1.092 0,1.092 -1.05788,1.092 z"
         style="font-size:34.125px"
         id="path91" />
      <path
         d="m 686.74228,470.53724 q 3.89025,0 5.93775,2.8665 2.08163,2.8665 2.08163,8.12175 0,3.4125 -0.6825,6.24487 -0.64838,2.83238 -1.7745,4.94813 h 7.7805 v -21.77175 h 2.93475 v 24.22875 h -12.04613 q -2.38875,2.93475 -5.66475,4.26562 -3.24187,1.365 -7.60987,1.365 h -0.6825 q -2.11575,0 -4.06088,-0.546 -1.94512,-0.51187 -3.20775,-1.67212 -1.2285,-1.16025 -1.2285,-3.03713 0,-1.5015 1.05788,-2.184 0.47775,-0.34125 1.12612,-0.51187 0.6825,-0.1365 2.14988,-0.1365 h 16.00462 q 1.33088,-1.97925 2.08163,-4.84575 0.78487,-2.90063 0.78487,-6.44963 0,-3.10537 -0.6825,-4.94812 -0.64837,-1.84275 -1.84275,-2.66175 -1.16025,-0.819 -2.69587,-0.819 -0.88725,0 -1.67213,0.30712 -0.78487,0.273 -1.365,0.92138 -0.6825,0.78487 -0.9555,1.84275 -0.273,1.05787 -0.273,2.90062 v 10.88588 h -2.93475 v -10.95413 q 0,-1.67212 -0.17062,-2.83237 -0.17063,-1.19438 -0.6825,-1.94513 -0.34125,-0.51187 -0.88725,-0.819 -0.546,-0.30712 -1.33088,-0.30712 -0.78487,0 -1.33087,0.30712 -0.51188,0.273 -0.88725,0.75075 -0.546,0.75075 -0.71663,1.94513 -0.1365,1.19437 -0.1365,2.69587 v 11.15888 h -2.93475 v -11.63663 q 0,-2.49112 0.37538,-3.822 0.37537,-1.365 1.43325,-2.42287 1.43325,-1.43325 3.9585,-1.43325 3.4125,0 4.914,3.20775 0.71662,-1.39913 2.14987,-2.28638 1.46738,-0.92137 3.6855,-0.92137 z m -8.97487,27.77775 q 2.93475,0 5.25525,-0.71663 2.35462,-0.71662 4.26562,-2.42287 h -14.742 q -0.4095,0 -0.819,0.10237 -0.37537,0.1365 -0.37537,0.71663 0,0.98962 1.5015,1.638 1.53562,0.6825 4.53862,0.6825 z"
         style="font-size:34.125px"
         id="path93" />
      <path
         d="m 714.92954,490.26149 q -2.0475,0 -3.6855,-0.64838 -1.638,-0.64837 -2.5935,-1.911 -0.9555,-1.26262 -0.9555,-3.03712 0,-1.7745 0.88725,-3.10538 0.92138,-1.33087 2.90063,-2.0475 v -8.56537 h 17.84737 v 2.457 h -6.38137 v 5.25525 h 0.546 q 2.66175,0 4.29975,0.4095 1.638,0.37537 2.79825,1.26262 0.88725,0.6825 1.39912,1.80863 0.51188,1.092 0.51188,2.52525 0,2.5935 -1.56975,4.02675 -1.53563,1.43325 -4.368,1.43325 -0.78488,0 -1.70625,-0.10238 -0.92138,-0.10237 -1.70625,-0.34125 l 0.64837,-2.28637 q 1.12613,0.34125 2.49113,0.34125 3.276,0 3.276,-3.20775 0,-1.56975 -0.88725,-2.28638 -0.85313,-0.75075 -2.184,-0.9555 -1.33088,-0.23887 -2.76413,-0.23887 h -0.78487 v 1.092 q 0,2.28637 -0.4095,3.58312 -0.37538,1.29675 -1.092,2.184 -1.05788,1.29675 -2.73,1.84275 -1.638,0.51188 -3.78788,0.51188 z m -0.75075,-16.85775 v 5.46 q 1.43325,-0.20475 3.17363,-0.20475 h 2.69587 v -5.25525 z m -3.549,11.22712 q 0,1.56975 1.29675,2.38875 1.29675,0.78488 3.276,0.78488 1.5015,0 2.55938,-0.44363 1.092,-0.47775 1.67212,-1.60387 0.61425,-1.12613 0.61425,-3.17363 v -1.53562 h -2.93475 q -1.74037,0 -2.96887,0.20475 -1.19438,0.20475 -2.0475,0.6825 -1.46738,0.85312 -1.46738,2.69587 z"
         style="font-size:34.125px"
         id="path95" />
    </g>
    <path
       d="m 2.589,1006.862 4.25,5.5"
       style="fill:#8ab000;fill-opacity:1;fill-rule:evenodd;stroke:#769616;stroke-width:2.5;stroke-linecap:round;stroke-linejoin:miter;stroke-miterlimit:4;stroke-dasharray:none;stroke-opacity:1"
       transform="matrix(-2.63159,0,0,2.63157,483.158,-2270.475)"
       id="path16" />
    <path
       d="m 2.611,1005.61 c -0.453,0.011 -0.761,0.188 -0.98,0.448 2.027,2.409 2.368,2.792 5.135,6.221 1.02,1.32 2.082,0.638 1.062,-0.681 l -4.25,-5.5 a 1.24,1.24 0 0 0 -0.967,-0.489"
       style="color:#000000;font-style:normal;font-variant:normal;font-weight:400;font-stretch:normal;font-size:medium;line-height:normal;font-family:sans-serif;text-indent:0;text-align:start;text-decoration:none;text-decoration-line:none;text-decoration-style:solid;text-decoration-color:#000000;letter-spacing:normal;word-spacing:normal;text-transform:none;writing-mode:lr-tb;direction:ltr;baseline-shift:baseline;text-anchor:start;white-space:normal;clip-rule:nonzero;display:inline;overflow:visible;visibility:visible;opacity:1;isolation:auto;mix-blend-mode:normal;color-interpolation:sRGB;color-interpolation-filters:linearRGB;solid-color:#000000;solid-opacity:1;fill:#ffffff;fill-opacity:0.298039;fill-rule:evenodd;stroke:none;stroke-width:2.5;stroke-linecap:round;stroke-linejoin:miter;stroke-miterlimit:4;stroke-dasharray:none;stroke-dashoffset:0;stroke-opacity:1;color-rendering:auto;image-rendering:auto;shape-rendering:auto;text-rendering:auto"
       transform="matrix(-2.63159,0,0,2.63157,483.158,-2270.475)"
       id="path18" />
    <path
       d="m 1.622,1006.07 a 1.25,1.25 0 0 0 -0.022,1.557 l 4.25,5.5 c 1.02,1.319 1.15,-0.613 1.15,-0.613 0,0 -3.735,-4.51 -5.378,-6.443"
       style="color:#000000;font-style:normal;font-variant:normal;font-weight:400;font-stretch:normal;font-size:medium;line-height:normal;font-family:sans-serif;text-indent:0;text-align:start;text-decoration:none;text-decoration-line:none;text-decoration-style:solid;text-decoration-color:#000000;letter-spacing:normal;word-spacing:normal;text-transform:none;writing-mode:lr-tb;direction:ltr;baseline-shift:baseline;text-anchor:start;white-space:normal;clip-rule:nonzero;display:inline;overflow:visible;visibility:visible;opacity:1;isolation:auto;mix-blend-mode:normal;color-interpolation:sRGB;color-interpolation-filters:linearRGB;solid-color:#000000;solid-opacity:1;fill:#263238;fill-opacity:0.2;fill-rule:evenodd;stroke:none;stroke-width:2.5;stroke-linecap:round;stroke-linejoin:miter;stroke-miterlimit:4;stroke-dasharray:none;stroke-dashoffset:0;stroke-opacity:1;color-rendering:auto;image-rendering:auto;shape-rendering:auto;text-rendering:auto"
       transform="matrix(-2.63159,0,0,2.63157,483.158,-2270.475)"
       id="path20" />
    <path
       d="m 2.338,1005.844 c -0.438,0 -0.96,0.142 -0.824,0.799 0.103,0.501 4.66,6.074 4.66,6.074 1.02,1.32 2.494,0.677 1.474,-0.642 l -4.234,-5.473 c -0.26,-0.29 -0.608,-0.744 -1.076,-0.758"
       style="color:#000000;font-style:normal;font-variant:normal;font-weight:400;font-stretch:normal;font-size:medium;line-height:normal;font-family:sans-serif;text-indent:0;text-align:start;text-decoration:none;text-decoration-line:none;text-decoration-style:solid;text-decoration-color:#000000;letter-spacing:normal;word-spacing:normal;text-transform:none;writing-mode:lr-tb;direction:ltr;baseline-shift:baseline;text-anchor:start;white-space:normal;clip-rule:nonzero;display:inline;overflow:visible;visibility:visible;opacity:1;isolation:auto;mix-blend-mode:normal;color-interpolation:sRGB;color-interpolation-filters:linearRGB;solid-color:#000000;solid-opacity:1;fill:#8ab000;fill-opacity:1;fill-rule:evenodd;stroke:none;stroke-width:2.5;stroke-linecap:round;stroke-linejoin:miter;stroke-miterlimit:4;stroke-dasharray:none;stroke-dashoffset:0;stroke-opacity:1;color-rendering:auto;image-rendering:auto;shape-rendering:auto;text-rendering:auto"
       transform="matrix(-2.63159,0,0,2.63157,483.158,-2270.475)"
       id="path22" />
    <path
       d="m 2.589,1006.862 4.25,5.5"
       style="fill:#8ab000;fill-opacity:1;fill-rule:evenodd;stroke:#769616;stroke-width:2.5;stroke-linecap:round;stroke-linejoin:miter;stroke-miterlimit:4;stroke-dasharray:none;stroke-opacity:1"
       transform="matrix(2.63159,0,0,2.63157,356.842,-2270.475)"
       id="path24" />
    <path
       d="m 2.611,1005.61 c -0.453,0.011 -0.761,0.188 -0.98,0.448 2.027,2.409 2.368,2.792 5.135,6.221 1.02,1.32 2.082,0.638 1.062,-0.681 l -4.25,-5.5 a 1.24,1.24 0 0 0 -0.967,-0.489"
       style="color:#000000;font-style:normal;font-variant:normal;font-weight:400;font-stretch:normal;font-size:medium;line-height:normal;font-family:sans-serif;text-indent:0;text-align:start;text-decoration:none;text-decoration-line:none;text-decoration-style:solid;text-decoration-color:#000000;letter-spacing:normal;word-spacing:normal;text-transform:none;writing-mode:lr-tb;direction:ltr;baseline-shift:baseline;text-anchor:start;white-space:normal;clip-rule:nonzero;display:inline;overflow:visible;visibility:visible;opacity:1;isolation:auto;mix-blend-mode:normal;color-interpolation:sRGB;color-interpolation-filters:linearRGB;solid-color:#000000;solid-opacity:1;fill:#ffffff;fill-opacity:0.298039;fill-rule:evenodd;stroke:none;stroke-width:2.5;stroke-linecap:round;stroke-linejoin:miter;stroke-miterlimit:4;stroke-dasharray:none;stroke-dashoffset:0;stroke-opacity:1;color-rendering:auto;image-rendering:auto;shape-rendering:auto;text-rendering:auto"
       transform="matrix(2.63159,0,0,2.63157,356.842,-2270.475)"
       id="path26" />
    <path
       d="m 1.622,1006.07 a 1.25,1.25 0 0 0 -0.022,1.557 l 4.25,5.5 c 1.02,1.319 1.15,-0.613 1.15,-0.613 0,0 -3.735,-4.51 -5.378,-6.443"
       style="color:#000000;font-style:normal;font-variant:normal;font-weight:400;font-stretch:normal;font-size:medium;line-height:normal;font-family:sans-serif;text-indent:0;text-align:start;text-decoration:none;text-decoration-line:none;text-decoration-style:solid;text-decoration-color:#000000;letter-spacing:normal;word-spacing:normal;text-transform:none;writing-mode:lr-tb;direction:ltr;baseline-shift:baseline;text-anchor:start;white-space:normal;clip-rule:nonzero;display:inline;overflow:visible;visibility:visible;opacity:1;isolation:auto;mix-blend-mode:normal;color-interpolation:sRGB;color-interpolation-filters:linearRGB;solid-color:#000000;solid-opacity:1;fill:#263238;fill-opacity:0.2;fill-rule:evenodd;stroke:none;stroke-width:2.5;stroke-linecap:round;stroke-linejoin:miter;stroke-miterlimit:4;stroke-dasharray:none;stroke-dashoffset:0;stroke-opacity:1;color-rendering:auto;image-rendering:auto;shape-rendering:auto;text-rendering:auto"
       transform="matrix(2.63159,0,0,2.63157,356.842,-2270.475)"
       id="path28" />
    <path
       d="m 2.338,1005.844 c -0.438,0 -0.96,0.142 -0.824,0.799 0.103,0.501 4.66,6.074 4.66,6.074 1.02,1.32 2.494,0.677 1.474,-0.642 l -4.234,-5.473 c -0.26,-0.29 -0.608,-0.744 -1.076,-0.758"
       style="color:#000000;font-style:normal;font-variant:normal;font-weight:400;font-stretch:normal;font-size:medium;line-height:normal;font-family:sans-serif;text-indent:0;text-align:start;text-decoration:none;text-decoration-line:none;text-decoration-style:solid;text-decoration-color:#000000;letter-spacing:normal;word-spacing:normal;text-transform:none;writing-mode:lr-tb;direction:ltr;baseline-shift:baseline;text-anchor:start;white-space:normal;clip-rule:nonzero;display:inline;overflow:visible;visibility:visible;opacity:1;isolation:auto;mix-blend-mode:normal;color-interpolation:sRGB;color-interpolation-filters:linearRGB;solid-color:#000000;solid-opacity:1;fill:#8ab000;fill-opacity:1;fill-rule:evenodd;stroke:none;stroke-width:2.5;stroke-linecap:round;stroke-linejoin:miter;stroke-miterlimit:4;stroke-dasharray:none;stroke-dashoffset:0;stroke-opacity:1;color-rendering:auto;image-rendering:auto;shape-rendering:auto;text-rendering:auto"
       transform="matrix(2.63159,0,0,2.63157,356.842,-2270.475)"
       id="path30" />
    <g
       transform="matrix(2.63159,0,0,2.63157,467.369,-2270.475)"
       id="g40">
      <path
         id="rect32"
         style="opacity:1;fill:#aeea00;stroke-width:3;stroke-linecap:round;stroke-miterlimit:3"
         d="m -34,1010.36 h 32 c 1.662,0 3,1.338 3,3 v 6.92 c 0,1.662 -1.338,3 -3,3 h -32 c -1.662,0 -3,-1.338 -3,-3 v -6.92 c 0,-1.662 1.338,-3 3,-3 z" />
      <path
         id="rect34"
         style="opacity:1;fill:#263238;fill-opacity:0.2;stroke-width:3;stroke-linecap:round;stroke-miterlimit:3"
         d="m -34,1013.279 h 32 c 1.662,0 3,1.338 3,3 v 4 c 0,1.662 -1.338,3 -3,3 h -32 c -1.662,0 -3,-1.338 -3,-3 v -4 c 0,-1.662 1.338,-3 3,-3 z" />
      <path
         id="rect36"
         style="opacity:1;fill:#ffffff;fill-opacity:0.298039;stroke-width:3;stroke-linecap:round;stroke-miterlimit:3"
         d="m -34,1010.362 h 32 c 1.662,0 3,1.338 3,3 v 4 c 0,1.662 -1.338,3 -3,3 h -32 c -1.662,0 -3,-1.338 -3,-3 v -4 c 0,-1.662 1.338,-3 3,-3 z" />
      <path
         id="rect38"
         style="opacity:1;fill:#aeea00;stroke-width:3;stroke-linecap:round;stroke-miterlimit:3"
         d="m -34,1011.5 h 32 c 1.662,0 3,1.0954 3,2.456 v 5.729 c 0,1.3606 -1.338,2.456 -3,2.456 h -32 c -1.662,0 -3,-1.0954 -3,-2.456 v -5.729 c 0,-1.3606 1.338,-2.456 3,-2.456 z" />
    </g>
    <g
       transform="matrix(2.63159,0,0,2.63157,356.842,-2270.745)"
       id="g50">
      <path
         id="rect42"
         style="opacity:1;fill:#1976d2;stroke-width:3;stroke-linecap:round;stroke-miterlimit:3"
         d="m 8,1024.522 h 32 c 1.662,0 3,1.338 3,3 v 19.84 c 0,1.662 -1.338,3 -3,3 H 8 c -1.662,0 -3,-1.338 -3,-3 v -19.84 c 0,-1.662 1.338,-3 3,-3 z" />
      <path
         id="rect44"
         style="opacity:1;fill:#263238;fill-opacity:0.2;stroke-width:3;stroke-linecap:round;stroke-miterlimit:3"
         d="m 8,1037.3621 h 32 c 1.662,0 3,1.338 3,3 v 7 c 0,1.662 -1.338,3 -3,3 H 8 c -1.662,0 -3,-1.338 -3,-3 v -7 c 0,-1.662 1.338,-3 3,-3 z" />
      <path
         id="rect46"
         style="opacity:1;fill:#ffffff;fill-opacity:0.2;stroke-width:3;stroke-linecap:round;stroke-miterlimit:3"
         d="m 8,1024.442 h 32 c 1.662,0 3,1.338 3,3 v 7 c 0,1.662 -1.338,3 -3,3 H 8 c -1.662,0 -3,-1.338 -3,-3 v -7 c 0,-1.662 1.338,-3 3,-3 z" />
      <path
         id="rect48"
         style="opacity:1;fill:#1976d2;stroke-width:3;stroke-linecap:round;stroke-miterlimit:3"
         d="m 8,1025.662 h 32 c 1.662,0 3,1.2122 3,2.718 v 18.124 c 0,1.5058 -1.338,2.718 -3,2.718 H 8 c -1.662,0 -3,-1.2122 -3,-2.718 v -18.124 c 0,-1.5058 1.338,-2.718 3,-2.718 z" />
    </g>
    <g
       transform="matrix(2.63159,0,0,2.63157,356.842,396.264)"
       id="g56">
      <path
         d="m 24,17.75 c -2.88,0 -5.32,1.985 -6.033,4.65 H 21.18 A 3.22,3.22 0 0 1 24,20.75 3.23,3.23 0 0 1 27.25,24 3.23,3.23 0 0 1 24,27.25 3.22,3.22 0 0 1 21.07,25.4 h -3.154 c 0.642,2.766 3.132,4.85 6.084,4.85 3.434,0 6.25,-2.816 6.25,-6.25 0,-3.434 -2.816,-6.25 -6.25,-6.25"
         style="color:#000000;font-style:normal;font-variant:normal;font-weight:400;font-stretch:normal;font-size:medium;line-height:normal;font-family:sans-serif;text-indent:0;text-align:start;text-decoration:none;text-decoration-line:none;text-decoration-style:solid;text-decoration-color:#000000;letter-spacing:normal;word-spacing:normal;text-transform:none;writing-mode:lr-tb;direction:ltr;baseline-shift:baseline;text-anchor:start;white-space:normal;clip-rule:nonzero;display:inline;overflow:visible;visibility:visible;opacity:1;isolation:auto;mix-blend-mode:normal;color-interpolation:sRGB;color-interpolation-filters:linearRGB;solid-color:#000000;solid-opacity:1;fill:#0d47a1;fill-opacity:1;fill-rule:nonzero;stroke:none;stroke-width:3;stroke-linecap:round;stroke-linejoin:miter;stroke-miterlimit:4;stroke-dasharray:none;stroke-dashoffset:0;stroke-opacity:1;color-rendering:auto;image-rendering:auto;shape-rendering:auto;text-rendering:auto"
         id="path52" />
      <path
         id="circle54"
         style="opacity:1;fill:none;fill-opacity:0.403922;stroke:#0d47a1;stroke-width:1.9;stroke-linecap:round"
         d="M 33.55,24 A 9.5500002,9.5500002 0 0 1 24,33.55 9.5500002,9.5500002 0 0 1 14.45,24 9.5500002,9.5500002 0 0 1 24,14.45 9.5500002,9.5500002 0 0 1 33.55,24 Z" />
    </g>
    <g
       transform="matrix(2.63159,0,0,2.63157,356.842,-2269.159)"
       id="g62">
      <path
         id="ellipse58"
         style="opacity:1;fill:#263238;fill-opacity:0.2;stroke-width:1.9;stroke-linecap:round;stroke-opacity:0.697211"
         d="m 17.75,1016.487 a 3.375,3.875 0 0 1 -3.375,3.875 3.375,3.875 0 0 1 -3.375,-3.875 3.375,3.875 0 0 1 3.375,-3.875 3.375,3.875 0 0 1 3.375,3.875 z" />
      <path
         id="circle60"
         style="opacity:1;fill:#ffffff;stroke-width:1.9;stroke-linecap:round;stroke-opacity:0.697211"
         d="m 17.75,1016.987 a 3.375,3.375 0 0 1 -3.375,3.375 3.375,3.375 0 0 1 -3.375,-3.375 3.375,3.375 0 0 1 3.375,-3.375 3.375,3.375 0 0 1 3.375,3.375 z" />
    </g>
    <g
       transform="matrix(2.63159,0,0,2.63157,408.158,-2269.159)"
       id="g68">
      <path
         id="ellipse64"
         style="opacity:1;fill:#263238;fill-opacity:0.2;stroke-width:1.9;stroke-linecap:round;stroke-opacity:0.697211"
         d="m 17.75,1016.487 a 3.375,3.875 0 0 1 -3.375,3.875 3.375,3.875 0 0 1 -3.375,-3.875 3.375,3.875 0 0 1 3.375,-3.875 3.375,3.875 0 0 1 3.375,3.875 z" />
      <path
         id="circle66"
         style="opacity:1;fill:#ffffff;stroke-width:1.9;stroke-linecap:round;stroke-opacity:0.697211"
         d="m 17.75,1016.987 a 3.375,3.375 0 0 1 -3.375,3.375 3.375,3.375 0 0 1 -3.375,-3.375 3.375,3.375 0 0 1 3.375,-3.375 3.375,3.375 0 0 1 3.375,3.375 z" />
    </g>
    <path
       d="m 282.715,299.835 a 3.29,3.29 0 0 0 -2.662,5.336 l 9.474,12.261 A 7.9,7.9 0 0 0 289,320.257 v 18.21 a 7.877,7.877 0 0 0 7.895,7.895 h 84.21 A 7.877,7.877 0 0 0 389,338.468 v -18.211 c 0,-0.999 -0.19,-1.949 -0.525,-2.826 l 9.472,-12.26 a 3.29,3.29 0 0 0 -2.433,-5.334 3.29,3.29 0 0 0 -2.772,1.31 l -9.013,11.666 a 7.9,7.9 0 0 0 -2.624,-0.45 h -84.21 c -0.922,0 -1.8,0.163 -2.622,0.45 l -9.015,-11.666 a 3.29,3.29 0 0 0 -2.543,-1.312 m 14.18,49.527 A 7.877,7.877 0 0 0 289,357.257 v 52.21 a 7.877,7.877 0 0 0 7.895,7.895 h 84.21 A 7.877,7.877 0 0 0 389,409.468 v -52.211 a 7.877,7.877 0 0 0 -7.895,-7.895 z"
       style="color:#000000;font-style:normal;font-variant:normal;font-weight:400;font-stretch:normal;font-size:medium;line-height:normal;font-family:sans-serif;text-indent:0;text-align:start;text-decoration:none;text-decoration-line:none;text-decoration-style:solid;text-decoration-color:#000000;letter-spacing:normal;word-spacing:normal;text-transform:none;writing-mode:lr-tb;direction:ltr;baseline-shift:baseline;text-anchor:start;white-space:normal;clip-rule:nonzero;display:inline;overflow:visible;visibility:visible;opacity:1;isolation:auto;mix-blend-mode:normal;color-interpolation:sRGB;color-interpolation-filters:linearRGB;solid-color:#000000;solid-opacity:1;fill:url(#b);fill-opacity:1;fill-rule:evenodd;stroke:none;stroke-width:6.57895;stroke-linecap:round;stroke-linejoin:miter;stroke-miterlimit:4;stroke-dasharray:none;stroke-dashoffset:0;stroke-opacity:1;color-rendering:auto;image-rendering:auto;shape-rendering:auto;text-rendering:auto"
       transform="translate(81,76)"
       id="path70" />
    <g
       aria-label="F-Droid"
       id="text74"
       style="font-weight:700;font-size:29.7088px;line-height:100%;font-family:Rokkitt;-inkscape-font-specification:'Rokkitt Bold';letter-spacing:0;word-spacing:0;display:inline;overflow:visible;fill:#ffffff;stroke-width:1px;marker:none">
      <path
         d="m 510.81067,441.28534 v 8.11768 h 27.97119 v -8.11768 l -7.23633,-1.3916 v -18.55469 h 23.65723 v -10.43701 h -23.65723 v -18.60108 h 22.03369 l 0.60303,8.07129 h 10.39063 v -18.5083 h -53.76221 v 8.16407 l 7.18994,1.3916 v 48.47412 z"
         style="font-size:95px;line-height:100%;font-family:'Roboto Slab';-inkscape-font-specification:'Roboto Slab Bold'"
         id="path111" />
      <path
         d="m 599.13098,425.74579 v -10.43701 h -26.16211 v 10.43701 z"
         style="font-size:95px;line-height:100%;font-family:'Roboto Slab';-inkscape-font-specification:'Roboto Slab Bold'"
         id="path113" />
      <path
         d="m 637.67834,381.86395 h -30.3833 v 8.16407 l 7.18995,1.3916 v 48.47412 l -7.18995,1.3916 v 8.11768 h 30.3833 c 16.51368,0 28.43506,-11.59668 28.43506,-28.15674 v -11.1792 c 0,-16.51367 -11.92138,-28.20313 -28.43506,-28.20313 z m -9.64843,10.43701 h 8.95263 c 9.69483,0 15.53955,7.23633 15.53955,17.67334 v 11.27198 c 0,10.57617 -5.84472,17.76611 -15.53955,17.76611 h -8.95263 z"
         style="font-size:95px;line-height:100%;font-family:'Roboto Slab';-inkscape-font-specification:'Roboto Slab Bold'"
         id="path115" />
      <path
         d="m 674.09192,441.28534 v 8.11768 h 26.5332 v -8.11768 l -6.49414,-1.3916 v -24.58496 c 1.48438,-2.82959 3.89649,-4.31397 7.88574,-4.12842 l 6.67969,0.32471 1.43799,-12.47803 c -1.29883,-0.46387 -3.43262,-0.74219 -5.33447,-0.74219 -4.87061,0 -8.62793,3.06152 -10.99366,8.25684 l -0.0928,-1.11328 -0.51025,-6.21582 h -19.80713 v 8.16406 l 7.18994,1.3916 v 31.12549 z"
         style="font-size:95px;line-height:100%;font-family:'Roboto Slab';-inkscape-font-specification:'Roboto Slab Bold'"
         id="path117" />
      <path
         d="m 713.24231,423.84393 v 0.97412 c 0,15.07569 8.85986,25.55909 23.75,25.55909 14.70459,0 23.61084,-10.4834 23.61084,-25.55909 v -0.97412 c 0,-15.02929 -8.85986,-25.55908 -23.70361,-25.55908 -14.79737,0 -23.65723,10.57617 -23.65723,25.55908 z m 13.54492,0.97412 v -0.97412 c 0,-8.90625 3.06152,-15.12207 10.11231,-15.12207 7.05078,0 10.20507,6.21582 10.20507,15.12207 v 0.97412 c 0,9.0918 -3.10791,15.16846 -10.1123,15.16846 -7.18994,0 -10.20508,-6.03027 -10.20508,-15.16846 z"
         style="font-size:95px;line-height:100%;font-family:'Roboto Slab';-inkscape-font-specification:'Roboto Slab Bold'"
         id="path119" />
      <path
         d="m 786.16223,388.59003 v -11.5503 h -14.00879 v 11.5503 z m -20.08545,52.69531 v 8.11768 h 26.57959 v -8.11768 l -6.49414,-1.3916 v -40.68115 h -20.78125 v 8.16406 l 7.23633,1.3916 v 31.12549 z"
         style="font-size:95px;line-height:100%;font-family:'Roboto Slab';-inkscape-font-specification:'Roboto Slab Bold'"
         id="path121" />
      <path
         d="m 829.76575,443.27997 1.0205,6.12305 h 18.22999 v -8.11768 l -6.49415,-1.3916 v -62.85401 h -20.78125 v 8.16407 l 7.23633,1.3916 v 17.99804 c -3.01513,-4.03564 -7.05078,-6.30859 -12.06054,-6.30859 -12.43164,0 -19.62159,10.62256 -19.62159,26.44043 v 0.97412 c 0,14.84375 7.14356,24.67774 19.52881,24.67774 5.52002,0 9.7876,-2.4585 12.9419,-7.09717 z M 810.83997,425.6994 v -0.97412 c 0,-9.46289 2.87597,-15.91064 9.50927,-15.91064 3.89649,0 6.77246,1.85546 8.62793,5.05615 v 21.2915 c -1.85547,3.01514 -4.77783,4.68506 -8.7207,4.68506 -6.67969,0 -9.4165,-5.38086 -9.4165,-14.14795 z"
         style="font-size:95px;line-height:100%;font-family:'Roboto Slab';-inkscape-font-specification:'Roboto Slab Bold'"
         id="path123" />
    </g>
  </g>
</svg>
