<?xml version="1.0" encoding="UTF-8" standalone="no"?>
<svg
   width="565"
   height="180"
   version="1.1"
   id="svg78"
   sodipodi:docname="get-it-on-lo.svg"
   xmlns:inkscape="http://www.inkscape.org/namespaces/inkscape"
   xmlns:sodipodi="http://sodipodi.sourceforge.net/DTD/sodipodi-0.dtd"
   xmlns:xlink="http://www.w3.org/1999/xlink"
   xmlns="http://www.w3.org/2000/svg"
   xmlns:svg="http://www.w3.org/2000/svg">
  <sodipodi:namedview
     id="namedview80"
     pagecolor="#ffffff"
     bordercolor="#000000"
     borderopacity="0.25"
     inkscape:showpageshadow="2"
     inkscape:pageopacity="0.0"
     inkscape:pagecheckerboard="0"
     inkscape:deskcolor="#d1d1d1" />
  <defs
     id="defs8">
    <radialGradient
       xlink:href="#a"
       id="b"
       cx="113"
       cy="-12.89"
       r="59.662"
       fx="113"
       fy="-12.89"
       gradientTransform="matrix(0 1.96105 -1.97781 0 254.507 78.763)"
       gradientUnits="userSpaceOnUse" />
    <linearGradient
       id="a">
      <stop
         offset="0"
         style="stop-color:#fff;stop-opacity:.09803922"
         id="stop3" />
      <stop
         offset="1"
         style="stop-color:#fff;stop-opacity:0"
         id="stop5" />
    </linearGradient>
  </defs>
  <g
     transform="translate(-329,-347.362)"
     id="g76">
    <path
       id="rect10"
       style="display:inline;overflow:visible;stroke:#a6a6a6;stroke-width:4;marker:none"
       d="m 352,349.362 h 520 c 11.08,0 20,8.92 20,20 v 136 c 0,11.08 -8.92,20 -20,20 H 352 c -11.08,0 -20,-8.92 -20,-20 v -136 c 0,-11.08 8.92,-20 20,-20 z" />
    <g
       aria-label="ດາວໂຫລດໄດ້ຈາກ"
       id="text14"
       style="font-size:12.3952px;line-height:100%;font-family:'DejaVu Sans';-inkscape-font-specification:'DejaVu Sans';letter-spacing:0;word-spacing:0;display:inline;overflow:visible;fill:#ffffff;stroke-width:1px;marker:none">
      <path
         d="m 515.96594,398.45129 q -1.0664,0 -1.0664,1.06641 0,1.06641 1.0664,1.06641 1.06641,0 1.06641,-1.06641 0,-1.06641 -1.06641,-1.06641 z m 10.1142,3.91571 v -13.31341 q 0,-3.2992 -5.44867,-3.2992 -5.51532,0 -5.51532,3.2992 v 7.19824 q 4.68219,0 4.68219,3.26587 0,3.33252 -3.8324,3.33252 -3.91571,0 -3.91571,-3.33252 v -10.89734 q 0,-3.39917 2.38275,-4.38226 2.39942,-0.9831 6.19849,-0.9831 3.5658,0 6.03186,0.9831 2.48273,0.98309 2.48273,4.38226 V 402.367 Z"
         style="font-size:34.125px"
         id="path83" />
      <path
         d="m 540.62659,383.255 q 7.31488,0 7.31488,6.76502 V 402.367 h -3.06592 v -11.91375 q 0,-4.68219 -4.24896,-4.68219 -1.83289,0 -2.84931,1.43298 3.63245,0 3.63245,3.21588 0,3.31586 -3.81574,3.31586 -3.74908,0 -3.74908,-3.31586 0,-7.16492 6.78168,-7.16492 z m -4.01569,7.16492 q 0,0.91644 0.98309,0.91644 1.1164,0 1.1164,-0.91644 0,-0.91644 -1.03308,-0.91644 -1.06641,0 -1.06641,0.91644 z"
         style="font-size:34.125px"
         id="path85" />
      <path
         d="m 555.8562,396.70172 q -1.06641,0 -1.06641,1.06641 0,1.0664 1.06641,1.0664 1.06641,0 1.06641,-1.0664 0,-1.06641 -1.06641,-1.06641 z m -3.33252,-7.69812 q 0.68317,-5.7486 8.36463,-5.7486 8.33129,0 8.33129,4.9488 v 9.73095 q 0,4.88214 -7.96472,4.88214 -4.26562,0 -6.71502,-1.29968 -2.43274,-1.31634 -2.43274,-3.69909 0,-3.49915 3.81573,-3.49915 3.68244,0 3.68244,3.58246 0,1.01642 -1.14972,2.23279 0.41656,0.1333 2.79931,0.1333 4.76551,0 4.76551,-3.59912 v -7.5315 q 0,-3.39917 -5.13208,-3.39917 -4.91547,0 -5.31537,3.54914 z"
         style="font-size:34.125px"
         id="path87" />
      <path
         d="m 581.59991,397.80145 q -0.59985,0 -0.83313,0.2666 -0.23327,0.26661 -0.23327,0.79981 0,0.61651 0.2666,0.84979 0.2666,0.21662 0.7998,0.21662 0.61652,0 0.83313,-0.28327 0.23328,-0.28326 0.23328,-0.78314 0,-0.61652 -0.2666,-0.83313 -0.2666,-0.23328 -0.79981,-0.23328 z m -5.26538,-21.72802 q -1.9162,-2.39942 -2.4494,-1.96619 -0.59985,0.48321 2.78266,4.86548 l 2.33276,2.99926 q 1.68292,2.18281 1.68292,5.19874 v 8.04803 h 0.38324 q 4.31561,0 4.29895,3.84906 -0.0167,3.44916 -3.53247,3.46582 h -0.0333 q -4.18232,0 -4.18232,-5.19873 v -9.36438 q 0,-2.89929 -2.39941,-5.99854 0,0 -2.3161,-2.99926 -1.88287,-2.41608 -1.88287,-4.43225 0,-2.76599 3.34918,-2.76599 2.53271,0 4.56555,2.59936 l 6.08185,7.7981 -2.21613,1.96618 z"
         style="font-size:34.125px"
         id="path89" />
      <path
         d="m 594.53009,386.30426 q 0,-1.06641 -1.06641,-1.06641 -1.0664,0 -1.0664,1.06641 -0.0167,1.06641 1.0664,1.06641 1.04975,0 1.06641,-1.06641 z m 7.99805,0 q 0,-1.06641 -1.06641,-1.06641 -1.06641,0 -1.06641,1.06641 -0.0167,1.06641 1.06641,1.06641 1.04974,0 1.06641,-1.06641 z m -4.38227,16.46265 q -8.06469,-0.0167 -8.06469,-5.03211 0,-4.43225 2.716,-7.94806 -3.23254,-0.78314 -3.21588,-3.33252 0.0167,-3.58245 3.8324,-3.56579 3.96569,0.0167 3.93237,3.54913 -0.0167,2.3161 -1.96619,4.26563 -2.29944,2.29943 -2.09948,6.93164 0.11663,2.64935 4.84881,2.63269 4.26563,-0.0167 4.26563,-3.0326 v -7.23156 q -0.33326,0.14996 -0.81647,0.14996 h -0.0333 q -3.83239,-0.1 -3.81573,-4.06567 0.0167,-3.34919 3.53247,-3.33252 2.69934,0 3.58246,1.64959 1.89953,-1.66626 4.41559,-1.64959 4.21563,0.0333 4.21563,5.36535 V 402.367 h -3.06591 v -14.24652 q 0,-2.1828 -1.36634,-2.16613 -1.46631,0.0167 -2.36609,0.9331 -0.63317,0.64984 -1.23303,1.1164 l 0.0167,9.23107 q 0,5.54865 -7.31488,5.53199 z"
         style="font-size:34.125px"
         id="path91" />
      <path
         d="m 620.54041,398.23468 q -0.61652,0 -0.8498,0.28326 -0.21661,0.26661 -0.21661,0.78315 0,0.59985 0.2666,0.83313 0.2666,0.23327 0.79981,0.23327 0.59985,0 0.83313,-0.2666 0.23327,-0.2666 0.23327,-0.7998 0,-0.59986 -0.2666,-0.81647 -0.2666,-0.23328 -0.7998,-0.24994 z m 4.98211,0.51654 q -0.73315,-4.04901 -3.58246,-4.099 -1.13305,-0.0167 -1.333,1.383 3.78241,0.0167 3.74908,3.06592 -0.0333,3.56579 -3.48248,3.54913 -4.14899,-0.0167 -4.14899,-3.93237 0,-6.54841 4.94879,-6.54841 5.26538,0 6.71503,5.59864 0.61651,2.41607 1.74957,2.39941 1.96619,-0.0333 1.96619,-2.93262 v -7.06494 q 0,-4.66552 -5.83191,-4.66552 -4.48224,0 -5.13208,1.89953 -0.43323,1.23303 -0.46655,2.88263 l -3.04926,-0.33325 q 0.1,-1.84955 0.38324,-2.84931 1.18304,-4.14898 8.13135,-4.13232 9.16443,0.0167 9.16443,6.26514 v 9.2644 q 0,4.16565 -5.36536,4.14899 -3.6991,-0.0167 -4.41559,-3.89905 z"
         style="font-size:34.125px"
         id="path93" />
      <path
         d="m 644.58453,398.45129 q -1.0664,0 -1.0664,1.06641 0,1.06641 1.0664,1.06641 1.06641,0 1.06641,-1.06641 0,-1.06641 -1.06641,-1.06641 z m 10.1142,3.91571 v -13.31341 q 0,-3.2992 -5.44867,-3.2992 -5.51532,0 -5.51532,3.2992 v 7.19824 q 4.68219,0 4.68219,3.26587 0,3.33252 -3.8324,3.33252 -3.91571,0 -3.91571,-3.33252 v -10.89734 q 0,-3.39917 2.38275,-4.38226 2.39942,-0.9831 6.19849,-0.9831 3.5658,0 6.03186,0.9831 2.48273,0.98309 2.48273,4.38226 V 402.367 Z"
         style="font-size:34.125px"
         id="path95" />
      <path
         d="m 671.84454,398.0014 q -0.59985,0 -0.83313,0.26661 -0.23327,0.2666 -0.23327,0.7998 0,0.61652 0.2666,0.84979 0.2666,0.21662 0.7998,0.21662 0.61652,0 0.83313,-0.28327 0.23328,-0.28326 0.23328,-0.78314 0,-0.61652 -0.2666,-0.83313 -0.2666,-0.23328 -0.79981,-0.23328 z m -6.33178,-16.12939 v -2.26611 q -0.0333,-2.61603 -1.96619,-5.8819 l 2.76599,-1.58295 q 2.19946,4.13233 2.26611,5.99854 l 0.0666,2.48272 h 5.03211 l 0.98309,3.14924 q -3.73242,2.86596 -3.73242,5.39868 v 6.24847 q 4.69885,-0.16662 4.68219,3.84906 -0.0167,3.46582 -3.5658,3.46582 -4.18231,0 -4.18231,-5.19873 v -9.56433 q 0,-2.54938 2.59937,-4.4989 h -3.98236 z"
         style="font-size:34.125px"
         id="path97" />
      <path
         d="m 684.19153,398.45129 q -1.06641,0 -1.06641,1.06641 0,1.06641 1.06641,1.06641 1.0664,0 1.0664,-1.06641 0,-1.06641 -1.0664,-1.06641 z m 10.1142,3.91571 v -13.31341 q 0,-3.2992 -5.44867,-3.2992 -5.51532,0 -5.51532,3.2992 v 7.19824 q 4.68219,0 4.68219,3.26587 0,3.33252 -3.8324,3.33252 -3.91571,0 -3.91571,-3.33252 v -10.89734 q 0,-3.39917 2.38275,-4.38226 2.39941,-0.9831 6.19849,-0.9831 3.56579,0 6.03186,0.9831 2.48272,0.98309 2.48272,4.38226 V 402.367 Z"
         style="font-size:34.125px"
         id="path99" />
      <path
         d="m 683.37506,375.35693 q 0.71649,0.0167 0.68317,-0.69983 0.0167,-0.71649 -0.68317,-0.68316 -0.71649,0 -0.69983,0.68316 -0.0167,0.73316 0.69983,0.69983 z m 15.09631,-2.0495 q 0,3.81574 -1.78289,6.24848 -1.79956,2.41607 -8.13135,2.41607 h -7.11493 v -2.21612 q 2.39941,-0.76648 2.39941,-2.63269 -3.04925,0.11664 -3.03259,-2.49939 0,-2.26611 2.61603,-2.24945 2.41608,0.0167 2.41608,2.19946 v 3.04926 q 0,1.53296 -1.18305,2.19946 7.21491,0 9.24774,-1.16638 2.01618,-1.18305 2.01618,-5.3487 z"
         style="font-size:34.125px"
         id="path101" />
      <path
         d="m 711.48486,392.23615 q -0.59985,0 -0.83313,0.2666 -0.23327,0.2666 -0.23327,0.7998 0,0.61652 0.2666,0.84979 0.2666,0.21662 0.7998,0.21662 0.61652,0 0.83313,-0.28327 0.23328,-0.28326 0.23328,-0.78314 0,-0.61651 -0.2666,-0.83313 -0.2666,-0.23327 -0.79981,-0.23327 z m -0.88311,-9.49769 q 4.88214,0 6.9483,2.01618 2.0495,1.99951 2.0495,6.91498 V 402.367 l -3.06592,0.0167 0.0167,-4.94879 q 0,-2.36609 -1.68292,-3.73243 0,2.76599 -3.33252,2.74933 -3.61578,-0.0333 -3.61578,-3.08258 0,-3.19922 3.63244,-3.19922 4.06568,0 4.96546,1.73291 0,-6.76501 -5.98187,-6.66504 -3.78241,0.0667 -5.04877,2.29944 -0.28327,0.49988 -0.28327,2.73267 v 1.24969 h -3.06591 v -1.24969 q 0,-2.83264 0.49987,-3.86572 1.76624,-3.66578 7.96473,-3.66578 z"
         style="font-size:34.125px"
         id="path103" />
      <path
         d="m 730.28027,383.255 q 7.31488,0 7.31488,6.76502 V 402.367 h -3.06591 v -11.91375 q 0,-4.68219 -4.24897,-4.68219 -1.83288,0 -2.8493,1.43298 3.63245,0 3.63245,3.21588 0,3.31586 -3.81574,3.31586 -3.74908,0 -3.74908,-3.31586 0,-7.16492 6.78167,-7.16492 z m -4.01568,7.16492 q 0,0.91644 0.98309,0.91644 1.11639,0 1.11639,-0.91644 0,-0.91644 -1.03308,-0.91644 -1.0664,0 -1.0664,0.91644 z"
         style="font-size:34.125px"
         id="path105" />
      <path
         d="m 745.84314,398.36798 q -1.04974,0 -1.04974,1.06641 0,1.0664 1.04974,1.0664 1.08307,0 1.08307,-1.0664 0,-1.06641 -1.08307,-1.06641 z m 0,-12.91351 q -1.04974,0 -1.04974,1.0664 0,1.06641 1.04974,1.06641 1.08307,0 1.08307,-1.06641 0,-1.0664 -1.08307,-1.0664 z m 4.14899,13.84662 q 0,3.41583 -4.14899,3.41583 -3.8324,0 -3.8324,-3.34918 0,-3.46582 4.91547,-3.46582 v -6.13184 q -0.71649,0.1333 -1.08307,0.1333 -3.8324,0 -3.8324,-3.59912 0,-3.04926 3.8324,-3.04926 2.79932,0 3.53247,1.34968 1.26636,-1.34968 4.41559,-1.34968 6.76501,0 6.76501,5.36536 V 402.367 h -3.06591 v -13.74664 q 0,-2.83264 -3.76575,-2.83264 -2.28278,0 -3.73242,2.36609 z"
         style="font-size:34.125px"
         id="path107" />
    </g>
    <g
       aria-label="F-Droid"
       id="text18"
       style="font-weight:700;font-size:29.7088px;line-height:100%;font-family:Rokkitt;-inkscape-font-specification:'Rokkitt Bold';letter-spacing:0;word-spacing:0;display:inline;overflow:visible;fill:#ffffff;stroke-width:1px;marker:none">
      <path
         d="m 510.81067,481.24332 v 8.11767 h 27.97119 v -8.11767 l -7.23633,-1.3916 v -18.55469 h 23.65723 v -10.43701 h -23.65723 v -18.60108 h 22.03369 l 0.60303,8.07129 h 10.39063 v -18.5083 h -53.76221 v 8.16406 l 7.18994,1.3916 v 48.47413 z"
         style="font-size:95px;line-height:100%;font-family:'Roboto Slab';-inkscape-font-specification:'Roboto Slab Bold'"
         id="path110" />
      <path
         d="m 599.13098,465.70377 v -10.43702 h -26.16211 v 10.43702 z"
         style="font-size:95px;line-height:100%;font-family:'Roboto Slab';-inkscape-font-specification:'Roboto Slab Bold'"
         id="path112" />
      <path
         d="m 637.67834,421.82193 h -30.3833 v 8.16406 l 7.18995,1.3916 v 48.47413 l -7.18995,1.3916 v 8.11767 h 30.3833 c 16.51368,0 28.43506,-11.59668 28.43506,-28.15674 v -11.1792 c 0,-16.51367 -11.92138,-28.20312 -28.43506,-28.20312 z m -9.64843,10.43701 h 8.95263 c 9.69483,0 15.53955,7.23633 15.53955,17.67334 v 11.27197 c 0,10.57618 -5.84472,17.76612 -15.53955,17.76612 h -8.95263 z"
         style="font-size:95px;line-height:100%;font-family:'Roboto Slab';-inkscape-font-specification:'Roboto Slab Bold'"
         id="path114" />
      <path
         d="m 674.09192,481.24332 v 8.11767 h 26.5332 v -8.11767 l -6.49414,-1.3916 v -24.58497 c 1.48438,-2.82959 3.89649,-4.31396 7.88574,-4.12841 l 6.67969,0.3247 1.43799,-12.47802 c -1.29883,-0.46387 -3.43262,-0.74219 -5.33447,-0.74219 -4.87061,0 -8.62793,3.06152 -10.99366,8.25683 l -0.0928,-1.11328 -0.51025,-6.21582 h -19.80713 v 8.16407 l 7.18994,1.3916 v 31.12549 z"
         style="font-size:95px;line-height:100%;font-family:'Roboto Slab';-inkscape-font-specification:'Roboto Slab Bold'"
         id="path116" />
      <path
         d="m 713.24231,463.80191 v 0.97412 c 0,15.07569 8.85986,25.55908 23.75,25.55908 14.70459,0 23.61084,-10.48339 23.61084,-25.55908 v -0.97412 c 0,-15.0293 -8.85986,-25.55908 -23.70361,-25.55908 -14.79737,0 -23.65723,10.57617 -23.65723,25.55908 z m 13.54492,0.97412 v -0.97412 c 0,-8.90625 3.06152,-15.12207 10.11231,-15.12207 7.05078,0 10.20507,6.21582 10.20507,15.12207 v 0.97412 c 0,9.0918 -3.10791,15.16846 -10.1123,15.16846 -7.18994,0 -10.20508,-6.03027 -10.20508,-15.16846 z"
         style="font-size:95px;line-height:100%;font-family:'Roboto Slab';-inkscape-font-specification:'Roboto Slab Bold'"
         id="path118" />
      <path
         d="M 786.16223,428.548 V 416.99771 H 772.15344 V 428.548 Z m -20.08545,52.69532 v 8.11767 h 26.57959 v -8.11767 l -6.49414,-1.3916 v -40.68116 h -20.78125 v 8.16407 l 7.23633,1.3916 v 31.12549 z"
         style="font-size:95px;line-height:100%;font-family:'Roboto Slab';-inkscape-font-specification:'Roboto Slab Bold'"
         id="path120" />
      <path
         d="m 829.76575,483.23795 1.0205,6.12304 h 18.22999 v -8.11767 l -6.49415,-1.3916 v -62.85401 h -20.78125 v 8.16406 l 7.23633,1.39161 v 17.99804 c -3.01513,-4.03564 -7.05078,-6.30859 -12.06054,-6.30859 -12.43164,0 -19.62159,10.62256 -19.62159,26.44043 v 0.97412 c 0,14.84375 7.14356,24.67773 19.52881,24.67773 5.52002,0 9.7876,-2.45849 12.9419,-7.09716 z m -18.92578,-17.58057 v -0.97412 c 0,-9.46289 2.87597,-15.91065 9.50927,-15.91065 3.89649,0 6.77246,1.85547 8.62793,5.05616 v 21.2915 c -1.85547,3.01514 -4.77783,4.68506 -8.7207,4.68506 -6.67969,0 -9.4165,-5.38086 -9.4165,-14.14795 z"
         style="font-size:95px;line-height:100%;font-family:'Roboto Slab';-inkscape-font-specification:'Roboto Slab Bold'"
         id="path122" />
    </g>
    <path
       d="m 2.589,1006.862 4.25,5.5"
       style="fill:#8ab000;fill-opacity:1;fill-rule:evenodd;stroke:#769616;stroke-width:2.5;stroke-linecap:round;stroke-linejoin:miter;stroke-miterlimit:4;stroke-dasharray:none;stroke-opacity:1"
       transform="matrix(-2.63159,0,0,2.63157,483.158,-2270.475)"
       id="path20" />
    <path
       d="m 2.611,1005.61 c -0.453,0.011 -0.761,0.188 -0.98,0.448 2.027,2.409 2.368,2.792 5.135,6.221 1.02,1.32 2.082,0.638 1.062,-0.681 l -4.25,-5.5 a 1.24,1.24 0 0 0 -0.967,-0.489"
       style="color:#000000;font-style:normal;font-variant:normal;font-weight:400;font-stretch:normal;font-size:medium;line-height:normal;font-family:sans-serif;text-indent:0;text-align:start;text-decoration:none;text-decoration-line:none;text-decoration-style:solid;text-decoration-color:#000000;letter-spacing:normal;word-spacing:normal;text-transform:none;writing-mode:lr-tb;direction:ltr;baseline-shift:baseline;text-anchor:start;white-space:normal;clip-rule:nonzero;display:inline;overflow:visible;visibility:visible;opacity:1;isolation:auto;mix-blend-mode:normal;color-interpolation:sRGB;color-interpolation-filters:linearRGB;solid-color:#000000;solid-opacity:1;fill:#ffffff;fill-opacity:0.298039;fill-rule:evenodd;stroke:none;stroke-width:2.5;stroke-linecap:round;stroke-linejoin:miter;stroke-miterlimit:4;stroke-dasharray:none;stroke-dashoffset:0;stroke-opacity:1;color-rendering:auto;image-rendering:auto;shape-rendering:auto;text-rendering:auto"
       transform="matrix(-2.63159,0,0,2.63157,483.158,-2270.475)"
       id="path22" />
    <path
       d="m 1.622,1006.07 a 1.25,1.25 0 0 0 -0.022,1.557 l 4.25,5.5 c 1.02,1.319 1.15,-0.613 1.15,-0.613 0,0 -3.735,-4.51 -5.378,-6.443"
       style="color:#000000;font-style:normal;font-variant:normal;font-weight:400;font-stretch:normal;font-size:medium;line-height:normal;font-family:sans-serif;text-indent:0;text-align:start;text-decoration:none;text-decoration-line:none;text-decoration-style:solid;text-decoration-color:#000000;letter-spacing:normal;word-spacing:normal;text-transform:none;writing-mode:lr-tb;direction:ltr;baseline-shift:baseline;text-anchor:start;white-space:normal;clip-rule:nonzero;display:inline;overflow:visible;visibility:visible;opacity:1;isolation:auto;mix-blend-mode:normal;color-interpolation:sRGB;color-interpolation-filters:linearRGB;solid-color:#000000;solid-opacity:1;fill:#263238;fill-opacity:0.2;fill-rule:evenodd;stroke:none;stroke-width:2.5;stroke-linecap:round;stroke-linejoin:miter;stroke-miterlimit:4;stroke-dasharray:none;stroke-dashoffset:0;stroke-opacity:1;color-rendering:auto;image-rendering:auto;shape-rendering:auto;text-rendering:auto"
       transform="matrix(-2.63159,0,0,2.63157,483.158,-2270.475)"
       id="path24" />
    <path
       d="m 2.338,1005.844 c -0.438,0 -0.96,0.142 -0.824,0.799 0.103,0.501 4.66,6.074 4.66,6.074 1.02,1.32 2.494,0.677 1.474,-0.642 l -4.234,-5.473 c -0.26,-0.29 -0.608,-0.744 -1.076,-0.758"
       style="color:#000000;font-style:normal;font-variant:normal;font-weight:400;font-stretch:normal;font-size:medium;line-height:normal;font-family:sans-serif;text-indent:0;text-align:start;text-decoration:none;text-decoration-line:none;text-decoration-style:solid;text-decoration-color:#000000;letter-spacing:normal;word-spacing:normal;text-transform:none;writing-mode:lr-tb;direction:ltr;baseline-shift:baseline;text-anchor:start;white-space:normal;clip-rule:nonzero;display:inline;overflow:visible;visibility:visible;opacity:1;isolation:auto;mix-blend-mode:normal;color-interpolation:sRGB;color-interpolation-filters:linearRGB;solid-color:#000000;solid-opacity:1;fill:#8ab000;fill-opacity:1;fill-rule:evenodd;stroke:none;stroke-width:2.5;stroke-linecap:round;stroke-linejoin:miter;stroke-miterlimit:4;stroke-dasharray:none;stroke-dashoffset:0;stroke-opacity:1;color-rendering:auto;image-rendering:auto;shape-rendering:auto;text-rendering:auto"
       transform="matrix(-2.63159,0,0,2.63157,483.158,-2270.475)"
       id="path26" />
    <path
       d="m 2.589,1006.862 4.25,5.5"
       style="fill:#8ab000;fill-opacity:1;fill-rule:evenodd;stroke:#769616;stroke-width:2.5;stroke-linecap:round;stroke-linejoin:miter;stroke-miterlimit:4;stroke-dasharray:none;stroke-opacity:1"
       transform="matrix(2.63159,0,0,2.63157,356.842,-2270.475)"
       id="path28" />
    <path
       d="m 2.611,1005.61 c -0.453,0.011 -0.761,0.188 -0.98,0.448 2.027,2.409 2.368,2.792 5.135,6.221 1.02,1.32 2.082,0.638 1.062,-0.681 l -4.25,-5.5 a 1.24,1.24 0 0 0 -0.967,-0.489"
       style="color:#000000;font-style:normal;font-variant:normal;font-weight:400;font-stretch:normal;font-size:medium;line-height:normal;font-family:sans-serif;text-indent:0;text-align:start;text-decoration:none;text-decoration-line:none;text-decoration-style:solid;text-decoration-color:#000000;letter-spacing:normal;word-spacing:normal;text-transform:none;writing-mode:lr-tb;direction:ltr;baseline-shift:baseline;text-anchor:start;white-space:normal;clip-rule:nonzero;display:inline;overflow:visible;visibility:visible;opacity:1;isolation:auto;mix-blend-mode:normal;color-interpolation:sRGB;color-interpolation-filters:linearRGB;solid-color:#000000;solid-opacity:1;fill:#ffffff;fill-opacity:0.298039;fill-rule:evenodd;stroke:none;stroke-width:2.5;stroke-linecap:round;stroke-linejoin:miter;stroke-miterlimit:4;stroke-dasharray:none;stroke-dashoffset:0;stroke-opacity:1;color-rendering:auto;image-rendering:auto;shape-rendering:auto;text-rendering:auto"
       transform="matrix(2.63159,0,0,2.63157,356.842,-2270.475)"
       id="path30" />
    <path
       d="m 1.622,1006.07 a 1.25,1.25 0 0 0 -0.022,1.557 l 4.25,5.5 c 1.02,1.319 1.15,-0.613 1.15,-0.613 0,0 -3.735,-4.51 -5.378,-6.443"
       style="color:#000000;font-style:normal;font-variant:normal;font-weight:400;font-stretch:normal;font-size:medium;line-height:normal;font-family:sans-serif;text-indent:0;text-align:start;text-decoration:none;text-decoration-line:none;text-decoration-style:solid;text-decoration-color:#000000;letter-spacing:normal;word-spacing:normal;text-transform:none;writing-mode:lr-tb;direction:ltr;baseline-shift:baseline;text-anchor:start;white-space:normal;clip-rule:nonzero;display:inline;overflow:visible;visibility:visible;opacity:1;isolation:auto;mix-blend-mode:normal;color-interpolation:sRGB;color-interpolation-filters:linearRGB;solid-color:#000000;solid-opacity:1;fill:#263238;fill-opacity:0.2;fill-rule:evenodd;stroke:none;stroke-width:2.5;stroke-linecap:round;stroke-linejoin:miter;stroke-miterlimit:4;stroke-dasharray:none;stroke-dashoffset:0;stroke-opacity:1;color-rendering:auto;image-rendering:auto;shape-rendering:auto;text-rendering:auto"
       transform="matrix(2.63159,0,0,2.63157,356.842,-2270.475)"
       id="path32" />
    <path
       d="m 2.338,1005.844 c -0.438,0 -0.96,0.142 -0.824,0.799 0.103,0.501 4.66,6.074 4.66,6.074 1.02,1.32 2.494,0.677 1.474,-0.642 l -4.234,-5.473 c -0.26,-0.29 -0.608,-0.744 -1.076,-0.758"
       style="color:#000000;font-style:normal;font-variant:normal;font-weight:400;font-stretch:normal;font-size:medium;line-height:normal;font-family:sans-serif;text-indent:0;text-align:start;text-decoration:none;text-decoration-line:none;text-decoration-style:solid;text-decoration-color:#000000;letter-spacing:normal;word-spacing:normal;text-transform:none;writing-mode:lr-tb;direction:ltr;baseline-shift:baseline;text-anchor:start;white-space:normal;clip-rule:nonzero;display:inline;overflow:visible;visibility:visible;opacity:1;isolation:auto;mix-blend-mode:normal;color-interpolation:sRGB;color-interpolation-filters:linearRGB;solid-color:#000000;solid-opacity:1;fill:#8ab000;fill-opacity:1;fill-rule:evenodd;stroke:none;stroke-width:2.5;stroke-linecap:round;stroke-linejoin:miter;stroke-miterlimit:4;stroke-dasharray:none;stroke-dashoffset:0;stroke-opacity:1;color-rendering:auto;image-rendering:auto;shape-rendering:auto;text-rendering:auto"
       transform="matrix(2.63159,0,0,2.63157,356.842,-2270.475)"
       id="path34" />
    <g
       transform="matrix(2.63159,0,0,2.63157,467.369,-2270.475)"
       id="g44">
      <path
         id="rect36"
         style="opacity:1;fill:#aeea00;stroke-width:3;stroke-linecap:round;stroke-miterlimit:3"
         d="m -34,1010.36 h 32 c 1.662,0 3,1.338 3,3 v 6.92 c 0,1.662 -1.338,3 -3,3 h -32 c -1.662,0 -3,-1.338 -3,-3 v -6.92 c 0,-1.662 1.338,-3 3,-3 z" />
      <path
         id="rect38"
         style="opacity:1;fill:#263238;fill-opacity:0.2;stroke-width:3;stroke-linecap:round;stroke-miterlimit:3"
         d="m -34,1013.279 h 32 c 1.662,0 3,1.338 3,3 v 4 c 0,1.662 -1.338,3 -3,3 h -32 c -1.662,0 -3,-1.338 -3,-3 v -4 c 0,-1.662 1.338,-3 3,-3 z" />
      <path
         id="rect40"
         style="opacity:1;fill:#ffffff;fill-opacity:0.298039;stroke-width:3;stroke-linecap:round;stroke-miterlimit:3"
         d="m -34,1010.362 h 32 c 1.662,0 3,1.338 3,3 v 4 c 0,1.662 -1.338,3 -3,3 h -32 c -1.662,0 -3,-1.338 -3,-3 v -4 c 0,-1.662 1.338,-3 3,-3 z" />
      <path
         id="rect42"
         style="opacity:1;fill:#aeea00;stroke-width:3;stroke-linecap:round;stroke-miterlimit:3"
         d="m -34,1011.5 h 32 c 1.662,0 3,1.0954 3,2.456 v 5.729 c 0,1.3606 -1.338,2.456 -3,2.456 h -32 c -1.662,0 -3,-1.0954 -3,-2.456 v -5.729 c 0,-1.3606 1.338,-2.456 3,-2.456 z" />
    </g>
    <g
       transform="matrix(2.63159,0,0,2.63157,356.842,-2270.745)"
       id="g54">
      <path
         id="rect46"
         style="opacity:1;fill:#1976d2;stroke-width:3;stroke-linecap:round;stroke-miterlimit:3"
         d="m 8,1024.522 h 32 c 1.662,0 3,1.338 3,3 v 19.84 c 0,1.662 -1.338,3 -3,3 H 8 c -1.662,0 -3,-1.338 -3,-3 v -19.84 c 0,-1.662 1.338,-3 3,-3 z" />
      <path
         id="rect48"
         style="opacity:1;fill:#263238;fill-opacity:0.2;stroke-width:3;stroke-linecap:round;stroke-miterlimit:3"
         d="m 8,1037.3621 h 32 c 1.662,0 3,1.338 3,3 v 7 c 0,1.662 -1.338,3 -3,3 H 8 c -1.662,0 -3,-1.338 -3,-3 v -7 c 0,-1.662 1.338,-3 3,-3 z" />
      <path
         id="rect50"
         style="opacity:1;fill:#ffffff;fill-opacity:0.2;stroke-width:3;stroke-linecap:round;stroke-miterlimit:3"
         d="m 8,1024.442 h 32 c 1.662,0 3,1.338 3,3 v 7 c 0,1.662 -1.338,3 -3,3 H 8 c -1.662,0 -3,-1.338 -3,-3 v -7 c 0,-1.662 1.338,-3 3,-3 z" />
      <path
         id="rect52"
         style="opacity:1;fill:#1976d2;stroke-width:3;stroke-linecap:round;stroke-miterlimit:3"
         d="m 8,1025.662 h 32 c 1.662,0 3,1.2122 3,2.718 v 18.124 c 0,1.5058 -1.338,2.718 -3,2.718 H 8 c -1.662,0 -3,-1.2122 -3,-2.718 v -18.124 c 0,-1.5058 1.338,-2.718 3,-2.718 z" />
    </g>
    <g
       transform="matrix(2.63159,0,0,2.63157,356.842,396.264)"
       id="g60">
      <path
         d="m 24,17.75 c -2.88,0 -5.32,1.985 -6.033,4.65 H 21.18 A 3.22,3.22 0 0 1 24,20.75 3.23,3.23 0 0 1 27.25,24 3.23,3.23 0 0 1 24,27.25 3.22,3.22 0 0 1 21.07,25.4 h -3.154 c 0.642,2.766 3.132,4.85 6.084,4.85 3.434,0 6.25,-2.816 6.25,-6.25 0,-3.434 -2.816,-6.25 -6.25,-6.25"
         style="color:#000000;font-style:normal;font-variant:normal;font-weight:400;font-stretch:normal;font-size:medium;line-height:normal;font-family:sans-serif;text-indent:0;text-align:start;text-decoration:none;text-decoration-line:none;text-decoration-style:solid;text-decoration-color:#000000;letter-spacing:normal;word-spacing:normal;text-transform:none;writing-mode:lr-tb;direction:ltr;baseline-shift:baseline;text-anchor:start;white-space:normal;clip-rule:nonzero;display:inline;overflow:visible;visibility:visible;opacity:1;isolation:auto;mix-blend-mode:normal;color-interpolation:sRGB;color-interpolation-filters:linearRGB;solid-color:#000000;solid-opacity:1;fill:#0d47a1;fill-opacity:1;fill-rule:nonzero;stroke:none;stroke-width:3;stroke-linecap:round;stroke-linejoin:miter;stroke-miterlimit:4;stroke-dasharray:none;stroke-dashoffset:0;stroke-opacity:1;color-rendering:auto;image-rendering:auto;shape-rendering:auto;text-rendering:auto"
         id="path56" />
      <path
         id="circle58"
         style="opacity:1;fill:none;fill-opacity:0.403922;stroke:#0d47a1;stroke-width:1.9;stroke-linecap:round"
         d="M 33.55,24 A 9.5500002,9.5500002 0 0 1 24,33.55 9.5500002,9.5500002 0 0 1 14.45,24 9.5500002,9.5500002 0 0 1 24,14.45 9.5500002,9.5500002 0 0 1 33.55,24 Z" />
    </g>
    <g
       transform="matrix(2.63159,0,0,2.63157,356.842,-2269.159)"
       id="g66">
      <path
         id="ellipse62"
         style="opacity:1;fill:#263238;fill-opacity:0.2;stroke-width:1.9;stroke-linecap:round;stroke-opacity:0.697211"
         d="m 17.75,1016.487 a 3.375,3.875 0 0 1 -3.375,3.875 3.375,3.875 0 0 1 -3.375,-3.875 3.375,3.875 0 0 1 3.375,-3.875 3.375,3.875 0 0 1 3.375,3.875 z" />
      <path
         id="circle64"
         style="opacity:1;fill:#ffffff;stroke-width:1.9;stroke-linecap:round;stroke-opacity:0.697211"
         d="m 17.75,1016.987 a 3.375,3.375 0 0 1 -3.375,3.375 3.375,3.375 0 0 1 -3.375,-3.375 3.375,3.375 0 0 1 3.375,-3.375 3.375,3.375 0 0 1 3.375,3.375 z" />
    </g>
    <g
       transform="matrix(2.63159,0,0,2.63157,408.158,-2269.159)"
       id="g72">
      <path
         id="ellipse68"
         style="opacity:1;fill:#263238;fill-opacity:0.2;stroke-width:1.9;stroke-linecap:round;stroke-opacity:0.697211"
         d="m 17.75,1016.487 a 3.375,3.875 0 0 1 -3.375,3.875 3.375,3.875 0 0 1 -3.375,-3.875 3.375,3.875 0 0 1 3.375,-3.875 3.375,3.875 0 0 1 3.375,3.875 z" />
      <path
         id="circle70"
         style="opacity:1;fill:#ffffff;stroke-width:1.9;stroke-linecap:round;stroke-opacity:0.697211"
         d="m 17.75,1016.987 a 3.375,3.375 0 0 1 -3.375,3.375 3.375,3.375 0 0 1 -3.375,-3.375 3.375,3.375 0 0 1 3.375,-3.375 3.375,3.375 0 0 1 3.375,3.375 z" />
    </g>
    <path
       d="m 282.715,299.835 a 3.29,3.29 0 0 0 -2.662,5.336 l 9.474,12.261 A 7.9,7.9 0 0 0 289,320.257 v 18.21 a 7.877,7.877 0 0 0 7.895,7.895 h 84.21 A 7.877,7.877 0 0 0 389,338.468 v -18.211 c 0,-0.999 -0.19,-1.949 -0.525,-2.826 l 9.472,-12.26 a 3.29,3.29 0 0 0 -2.433,-5.334 3.29,3.29 0 0 0 -2.772,1.31 l -9.013,11.666 a 7.9,7.9 0 0 0 -2.624,-0.45 h -84.21 c -0.922,0 -1.8,0.163 -2.622,0.45 l -9.015,-11.666 a 3.29,3.29 0 0 0 -2.543,-1.312 m 14.18,49.527 A 7.877,7.877 0 0 0 289,357.257 v 52.21 a 7.877,7.877 0 0 0 7.895,7.895 h 84.21 A 7.877,7.877 0 0 0 389,409.468 v -52.211 a 7.877,7.877 0 0 0 -7.895,-7.895 z"
       style="color:#000000;font-style:normal;font-variant:normal;font-weight:400;font-stretch:normal;font-size:medium;line-height:normal;font-family:sans-serif;text-indent:0;text-align:start;text-decoration:none;text-decoration-line:none;text-decoration-style:solid;text-decoration-color:#000000;letter-spacing:normal;word-spacing:normal;text-transform:none;writing-mode:lr-tb;direction:ltr;baseline-shift:baseline;text-anchor:start;white-space:normal;clip-rule:nonzero;display:inline;overflow:visible;visibility:visible;opacity:1;isolation:auto;mix-blend-mode:normal;color-interpolation:sRGB;color-interpolation-filters:linearRGB;solid-color:#000000;solid-opacity:1;fill:url(#b);fill-opacity:1;fill-rule:evenodd;stroke:none;stroke-width:6.57895;stroke-linecap:round;stroke-linejoin:miter;stroke-miterlimit:4;stroke-dasharray:none;stroke-dashoffset:0;stroke-opacity:1;color-rendering:auto;image-rendering:auto;shape-rendering:auto;text-rendering:auto"
       transform="translate(81,76)"
       id="path74" />
  </g>
</svg>
