<?xml version="1.0" encoding="UTF-8" standalone="no"?>
<svg
   width="565"
   height="180"
   version="1.1"
   id="svg82"
   sodipodi:docname="get-it-on-is.svg"
   xmlns:inkscape="http://www.inkscape.org/namespaces/inkscape"
   xmlns:sodipodi="http://sodipodi.sourceforge.net/DTD/sodipodi-0.dtd"
   xmlns:xlink="http://www.w3.org/1999/xlink"
   xmlns="http://www.w3.org/2000/svg"
   xmlns:svg="http://www.w3.org/2000/svg">
  <sodipodi:namedview
     id="namedview84"
     pagecolor="#ffffff"
     bordercolor="#000000"
     borderopacity="0.25"
     inkscape:showpageshadow="2"
     inkscape:pageopacity="0.0"
     inkscape:pagecheckerboard="0"
     inkscape:deskcolor="#d1d1d1" />
  <defs
     id="defs8">
    <radialGradient
       xlink:href="#a"
       id="b"
       cx="113"
       cy="-12.89"
       r="59.662"
       fx="113"
       fy="-12.89"
       gradientTransform="matrix(0 1.96105 -1.97781 0 254.507 78.763)"
       gradientUnits="userSpaceOnUse" />
    <linearGradient
       id="a">
      <stop
         offset="0"
         style="stop-color:#fff;stop-opacity:.09803922"
         id="stop3" />
      <stop
         offset="1"
         style="stop-color:#fff;stop-opacity:0"
         id="stop5" />
    </linearGradient>
  </defs>
  <g
     transform="translate(-329,-347.362)"
     id="g80">
    <path
       id="rect10"
       style="display:inline;overflow:visible;stroke:#a6a6a6;stroke-width:4;marker:none"
       d="m 352,349.362 h 520 c 11.08,0 20,8.92 20,20 v 136 c 0,11.08 -8.92,20 -20,20 H 352 c -11.08,0 -20,-8.92 -20,-20 v -136 c 0,-11.08 8.92,-20 20,-20 z" />
    <path
       d="m 2.589,1006.862 4.25,5.5"
       style="fill:#8ab000;fill-opacity:1;fill-rule:evenodd;stroke:#769616;stroke-width:2.5;stroke-linecap:round;stroke-linejoin:miter;stroke-miterlimit:4;stroke-dasharray:none;stroke-opacity:1"
       transform="matrix(-2.63159,0,0,2.63157,483.158,-2270.475)"
       id="path12" />
    <path
       d="m 2.611,1005.61 c -0.453,0.011 -0.761,0.188 -0.98,0.448 2.027,2.409 2.368,2.792 5.135,6.221 1.02,1.32 2.082,0.638 1.062,-0.681 l -4.25,-5.5 a 1.24,1.24 0 0 0 -0.967,-0.489"
       style="color:#000000;font-style:normal;font-variant:normal;font-weight:400;font-stretch:normal;font-size:medium;line-height:normal;font-family:sans-serif;text-indent:0;text-align:start;text-decoration:none;text-decoration-line:none;text-decoration-style:solid;text-decoration-color:#000000;letter-spacing:normal;word-spacing:normal;text-transform:none;writing-mode:lr-tb;direction:ltr;baseline-shift:baseline;text-anchor:start;white-space:normal;clip-rule:nonzero;display:inline;overflow:visible;visibility:visible;opacity:1;isolation:auto;mix-blend-mode:normal;color-interpolation:sRGB;color-interpolation-filters:linearRGB;solid-color:#000000;solid-opacity:1;fill:#ffffff;fill-opacity:0.298039;fill-rule:evenodd;stroke:none;stroke-width:2.5;stroke-linecap:round;stroke-linejoin:miter;stroke-miterlimit:4;stroke-dasharray:none;stroke-dashoffset:0;stroke-opacity:1;color-rendering:auto;image-rendering:auto;shape-rendering:auto;text-rendering:auto"
       transform="matrix(-2.63159,0,0,2.63157,483.158,-2270.475)"
       id="path14" />
    <path
       d="m 1.622,1006.07 a 1.25,1.25 0 0 0 -0.022,1.557 l 4.25,5.5 c 1.02,1.319 1.15,-0.613 1.15,-0.613 0,0 -3.735,-4.51 -5.378,-6.443"
       style="color:#000000;font-style:normal;font-variant:normal;font-weight:400;font-stretch:normal;font-size:medium;line-height:normal;font-family:sans-serif;text-indent:0;text-align:start;text-decoration:none;text-decoration-line:none;text-decoration-style:solid;text-decoration-color:#000000;letter-spacing:normal;word-spacing:normal;text-transform:none;writing-mode:lr-tb;direction:ltr;baseline-shift:baseline;text-anchor:start;white-space:normal;clip-rule:nonzero;display:inline;overflow:visible;visibility:visible;opacity:1;isolation:auto;mix-blend-mode:normal;color-interpolation:sRGB;color-interpolation-filters:linearRGB;solid-color:#000000;solid-opacity:1;fill:#263238;fill-opacity:0.2;fill-rule:evenodd;stroke:none;stroke-width:2.5;stroke-linecap:round;stroke-linejoin:miter;stroke-miterlimit:4;stroke-dasharray:none;stroke-dashoffset:0;stroke-opacity:1;color-rendering:auto;image-rendering:auto;shape-rendering:auto;text-rendering:auto"
       transform="matrix(-2.63159,0,0,2.63157,483.158,-2270.475)"
       id="path16" />
    <path
       d="m 2.338,1005.844 c -0.438,0 -0.96,0.142 -0.824,0.799 0.103,0.501 4.66,6.074 4.66,6.074 1.02,1.32 2.494,0.677 1.474,-0.642 l -4.234,-5.473 c -0.26,-0.29 -0.608,-0.744 -1.076,-0.758"
       style="color:#000000;font-style:normal;font-variant:normal;font-weight:400;font-stretch:normal;font-size:medium;line-height:normal;font-family:sans-serif;text-indent:0;text-align:start;text-decoration:none;text-decoration-line:none;text-decoration-style:solid;text-decoration-color:#000000;letter-spacing:normal;word-spacing:normal;text-transform:none;writing-mode:lr-tb;direction:ltr;baseline-shift:baseline;text-anchor:start;white-space:normal;clip-rule:nonzero;display:inline;overflow:visible;visibility:visible;opacity:1;isolation:auto;mix-blend-mode:normal;color-interpolation:sRGB;color-interpolation-filters:linearRGB;solid-color:#000000;solid-opacity:1;fill:#8ab000;fill-opacity:1;fill-rule:evenodd;stroke:none;stroke-width:2.5;stroke-linecap:round;stroke-linejoin:miter;stroke-miterlimit:4;stroke-dasharray:none;stroke-dashoffset:0;stroke-opacity:1;color-rendering:auto;image-rendering:auto;shape-rendering:auto;text-rendering:auto"
       transform="matrix(-2.63159,0,0,2.63157,483.158,-2270.475)"
       id="path18" />
    <path
       d="m 2.589,1006.862 4.25,5.5"
       style="fill:#8ab000;fill-opacity:1;fill-rule:evenodd;stroke:#769616;stroke-width:2.5;stroke-linecap:round;stroke-linejoin:miter;stroke-miterlimit:4;stroke-dasharray:none;stroke-opacity:1"
       transform="matrix(2.63159,0,0,2.63157,356.842,-2270.475)"
       id="path20" />
    <path
       d="m 2.611,1005.61 c -0.453,0.011 -0.761,0.188 -0.98,0.448 2.027,2.409 2.368,2.792 5.135,6.221 1.02,1.32 2.082,0.638 1.062,-0.681 l -4.25,-5.5 a 1.24,1.24 0 0 0 -0.967,-0.489"
       style="color:#000000;font-style:normal;font-variant:normal;font-weight:400;font-stretch:normal;font-size:medium;line-height:normal;font-family:sans-serif;text-indent:0;text-align:start;text-decoration:none;text-decoration-line:none;text-decoration-style:solid;text-decoration-color:#000000;letter-spacing:normal;word-spacing:normal;text-transform:none;writing-mode:lr-tb;direction:ltr;baseline-shift:baseline;text-anchor:start;white-space:normal;clip-rule:nonzero;display:inline;overflow:visible;visibility:visible;opacity:1;isolation:auto;mix-blend-mode:normal;color-interpolation:sRGB;color-interpolation-filters:linearRGB;solid-color:#000000;solid-opacity:1;fill:#ffffff;fill-opacity:0.298039;fill-rule:evenodd;stroke:none;stroke-width:2.5;stroke-linecap:round;stroke-linejoin:miter;stroke-miterlimit:4;stroke-dasharray:none;stroke-dashoffset:0;stroke-opacity:1;color-rendering:auto;image-rendering:auto;shape-rendering:auto;text-rendering:auto"
       transform="matrix(2.63159,0,0,2.63157,356.842,-2270.475)"
       id="path22" />
    <path
       d="m 1.622,1006.07 a 1.25,1.25 0 0 0 -0.022,1.557 l 4.25,5.5 c 1.02,1.319 1.15,-0.613 1.15,-0.613 0,0 -3.735,-4.51 -5.378,-6.443"
       style="color:#000000;font-style:normal;font-variant:normal;font-weight:400;font-stretch:normal;font-size:medium;line-height:normal;font-family:sans-serif;text-indent:0;text-align:start;text-decoration:none;text-decoration-line:none;text-decoration-style:solid;text-decoration-color:#000000;letter-spacing:normal;word-spacing:normal;text-transform:none;writing-mode:lr-tb;direction:ltr;baseline-shift:baseline;text-anchor:start;white-space:normal;clip-rule:nonzero;display:inline;overflow:visible;visibility:visible;opacity:1;isolation:auto;mix-blend-mode:normal;color-interpolation:sRGB;color-interpolation-filters:linearRGB;solid-color:#000000;solid-opacity:1;fill:#263238;fill-opacity:0.2;fill-rule:evenodd;stroke:none;stroke-width:2.5;stroke-linecap:round;stroke-linejoin:miter;stroke-miterlimit:4;stroke-dasharray:none;stroke-dashoffset:0;stroke-opacity:1;color-rendering:auto;image-rendering:auto;shape-rendering:auto;text-rendering:auto"
       transform="matrix(2.63159,0,0,2.63157,356.842,-2270.475)"
       id="path24" />
    <path
       d="m 2.338,1005.844 c -0.438,0 -0.96,0.142 -0.824,0.799 0.103,0.501 4.66,6.074 4.66,6.074 1.02,1.32 2.494,0.677 1.474,-0.642 l -4.234,-5.473 c -0.26,-0.29 -0.608,-0.744 -1.076,-0.758"
       style="color:#000000;font-style:normal;font-variant:normal;font-weight:400;font-stretch:normal;font-size:medium;line-height:normal;font-family:sans-serif;text-indent:0;text-align:start;text-decoration:none;text-decoration-line:none;text-decoration-style:solid;text-decoration-color:#000000;letter-spacing:normal;word-spacing:normal;text-transform:none;writing-mode:lr-tb;direction:ltr;baseline-shift:baseline;text-anchor:start;white-space:normal;clip-rule:nonzero;display:inline;overflow:visible;visibility:visible;opacity:1;isolation:auto;mix-blend-mode:normal;color-interpolation:sRGB;color-interpolation-filters:linearRGB;solid-color:#000000;solid-opacity:1;fill:#8ab000;fill-opacity:1;fill-rule:evenodd;stroke:none;stroke-width:2.5;stroke-linecap:round;stroke-linejoin:miter;stroke-miterlimit:4;stroke-dasharray:none;stroke-dashoffset:0;stroke-opacity:1;color-rendering:auto;image-rendering:auto;shape-rendering:auto;text-rendering:auto"
       transform="matrix(2.63159,0,0,2.63157,356.842,-2270.475)"
       id="path26" />
    <g
       transform="matrix(2.63159,0,0,2.63157,467.369,-2270.475)"
       id="g36">
      <path
         id="rect28"
         style="opacity:1;fill:#aeea00;stroke-width:3;stroke-linecap:round;stroke-miterlimit:3"
         d="m -34,1010.36 h 32 c 1.662,0 3,1.338 3,3 v 6.92 c 0,1.662 -1.338,3 -3,3 h -32 c -1.662,0 -3,-1.338 -3,-3 v -6.92 c 0,-1.662 1.338,-3 3,-3 z" />
      <path
         id="rect30"
         style="opacity:1;fill:#263238;fill-opacity:0.2;stroke-width:3;stroke-linecap:round;stroke-miterlimit:3"
         d="m -34,1013.279 h 32 c 1.662,0 3,1.338 3,3 v 4 c 0,1.662 -1.338,3 -3,3 h -32 c -1.662,0 -3,-1.338 -3,-3 v -4 c 0,-1.662 1.338,-3 3,-3 z" />
      <path
         id="rect32"
         style="opacity:1;fill:#ffffff;fill-opacity:0.298039;stroke-width:3;stroke-linecap:round;stroke-miterlimit:3"
         d="m -34,1010.362 h 32 c 1.662,0 3,1.338 3,3 v 4 c 0,1.662 -1.338,3 -3,3 h -32 c -1.662,0 -3,-1.338 -3,-3 v -4 c 0,-1.662 1.338,-3 3,-3 z" />
      <path
         id="rect34"
         style="opacity:1;fill:#aeea00;stroke-width:3;stroke-linecap:round;stroke-miterlimit:3"
         d="m -34,1011.5 h 32 c 1.662,0 3,1.0954 3,2.456 v 5.729 c 0,1.3606 -1.338,2.456 -3,2.456 h -32 c -1.662,0 -3,-1.0954 -3,-2.456 v -5.729 c 0,-1.3606 1.338,-2.456 3,-2.456 z" />
    </g>
    <g
       transform="matrix(2.63159,0,0,2.63157,356.842,-2270.745)"
       id="g46">
      <path
         id="rect38"
         style="opacity:1;fill:#1976d2;stroke-width:3;stroke-linecap:round;stroke-miterlimit:3"
         d="m 8,1024.522 h 32 c 1.662,0 3,1.338 3,3 v 19.84 c 0,1.662 -1.338,3 -3,3 H 8 c -1.662,0 -3,-1.338 -3,-3 v -19.84 c 0,-1.662 1.338,-3 3,-3 z" />
      <path
         id="rect40"
         style="opacity:1;fill:#263238;fill-opacity:0.2;stroke-width:3;stroke-linecap:round;stroke-miterlimit:3"
         d="m 8,1037.3621 h 32 c 1.662,0 3,1.338 3,3 v 7 c 0,1.662 -1.338,3 -3,3 H 8 c -1.662,0 -3,-1.338 -3,-3 v -7 c 0,-1.662 1.338,-3 3,-3 z" />
      <path
         id="rect42"
         style="opacity:1;fill:#ffffff;fill-opacity:0.2;stroke-width:3;stroke-linecap:round;stroke-miterlimit:3"
         d="m 8,1024.442 h 32 c 1.662,0 3,1.338 3,3 v 7 c 0,1.662 -1.338,3 -3,3 H 8 c -1.662,0 -3,-1.338 -3,-3 v -7 c 0,-1.662 1.338,-3 3,-3 z" />
      <path
         id="rect44"
         style="opacity:1;fill:#1976d2;stroke-width:3;stroke-linecap:round;stroke-miterlimit:3"
         d="m 8,1025.662 h 32 c 1.662,0 3,1.2122 3,2.718 v 18.124 c 0,1.5058 -1.338,2.718 -3,2.718 H 8 c -1.662,0 -3,-1.2122 -3,-2.718 v -18.124 c 0,-1.5058 1.338,-2.718 3,-2.718 z" />
    </g>
    <g
       transform="matrix(2.63159,0,0,2.63157,356.842,396.264)"
       id="g52">
      <path
         d="m 24,17.75 c -2.88,0 -5.32,1.985 -6.033,4.65 H 21.18 A 3.22,3.22 0 0 1 24,20.75 3.23,3.23 0 0 1 27.25,24 3.23,3.23 0 0 1 24,27.25 3.22,3.22 0 0 1 21.07,25.4 h -3.154 c 0.642,2.766 3.132,4.85 6.084,4.85 3.434,0 6.25,-2.816 6.25,-6.25 0,-3.434 -2.816,-6.25 -6.25,-6.25"
         style="color:#000000;font-style:normal;font-variant:normal;font-weight:400;font-stretch:normal;font-size:medium;line-height:normal;font-family:sans-serif;text-indent:0;text-align:start;text-decoration:none;text-decoration-line:none;text-decoration-style:solid;text-decoration-color:#000000;letter-spacing:normal;word-spacing:normal;text-transform:none;writing-mode:lr-tb;direction:ltr;baseline-shift:baseline;text-anchor:start;white-space:normal;clip-rule:nonzero;display:inline;overflow:visible;visibility:visible;opacity:1;isolation:auto;mix-blend-mode:normal;color-interpolation:sRGB;color-interpolation-filters:linearRGB;solid-color:#000000;solid-opacity:1;fill:#0d47a1;fill-opacity:1;fill-rule:nonzero;stroke:none;stroke-width:3;stroke-linecap:round;stroke-linejoin:miter;stroke-miterlimit:4;stroke-dasharray:none;stroke-dashoffset:0;stroke-opacity:1;color-rendering:auto;image-rendering:auto;shape-rendering:auto;text-rendering:auto"
         id="path48" />
      <path
         id="circle50"
         style="opacity:1;fill:none;fill-opacity:0.403922;stroke:#0d47a1;stroke-width:1.9;stroke-linecap:round"
         d="M 33.55,24 A 9.5500002,9.5500002 0 0 1 24,33.55 9.5500002,9.5500002 0 0 1 14.45,24 9.5500002,9.5500002 0 0 1 24,14.45 9.5500002,9.5500002 0 0 1 33.55,24 Z" />
    </g>
    <g
       transform="matrix(2.63159,0,0,2.63157,356.842,-2269.159)"
       id="g58">
      <path
         id="ellipse54"
         style="opacity:1;fill:#263238;fill-opacity:0.2;stroke-width:1.9;stroke-linecap:round;stroke-opacity:0.697211"
         d="m 17.75,1016.487 a 3.375,3.875 0 0 1 -3.375,3.875 3.375,3.875 0 0 1 -3.375,-3.875 3.375,3.875 0 0 1 3.375,-3.875 3.375,3.875 0 0 1 3.375,3.875 z" />
      <path
         id="circle56"
         style="opacity:1;fill:#ffffff;stroke-width:1.9;stroke-linecap:round;stroke-opacity:0.697211"
         d="m 17.75,1016.987 a 3.375,3.375 0 0 1 -3.375,3.375 3.375,3.375 0 0 1 -3.375,-3.375 3.375,3.375 0 0 1 3.375,-3.375 3.375,3.375 0 0 1 3.375,3.375 z" />
    </g>
    <g
       transform="matrix(2.63159,0,0,2.63157,408.158,-2269.159)"
       id="g64">
      <path
         id="ellipse60"
         style="opacity:1;fill:#263238;fill-opacity:0.2;stroke-width:1.9;stroke-linecap:round;stroke-opacity:0.697211"
         d="m 17.75,1016.487 a 3.375,3.875 0 0 1 -3.375,3.875 3.375,3.875 0 0 1 -3.375,-3.875 3.375,3.875 0 0 1 3.375,-3.875 3.375,3.875 0 0 1 3.375,3.875 z" />
      <path
         id="circle62"
         style="opacity:1;fill:#ffffff;stroke-width:1.9;stroke-linecap:round;stroke-opacity:0.697211"
         d="m 17.75,1016.987 a 3.375,3.375 0 0 1 -3.375,3.375 3.375,3.375 0 0 1 -3.375,-3.375 3.375,3.375 0 0 1 3.375,-3.375 3.375,3.375 0 0 1 3.375,3.375 z" />
    </g>
    <path
       d="m 282.715,299.835 a 3.29,3.29 0 0 0 -2.662,5.336 l 9.474,12.261 A 7.9,7.9 0 0 0 289,320.257 v 18.21 a 7.877,7.877 0 0 0 7.895,7.895 h 84.21 A 7.877,7.877 0 0 0 389,338.468 v -18.211 c 0,-0.999 -0.19,-1.949 -0.525,-2.826 l 9.472,-12.26 a 3.29,3.29 0 0 0 -2.433,-5.334 3.29,3.29 0 0 0 -2.772,1.31 l -9.013,11.666 a 7.9,7.9 0 0 0 -2.624,-0.45 h -84.21 c -0.922,0 -1.8,0.163 -2.622,0.45 l -9.015,-11.666 a 3.29,3.29 0 0 0 -2.543,-1.312 m 14.18,49.527 A 7.877,7.877 0 0 0 289,357.257 v 52.21 a 7.877,7.877 0 0 0 7.895,7.895 h 84.21 A 7.877,7.877 0 0 0 389,409.468 v -52.211 a 7.877,7.877 0 0 0 -7.895,-7.895 z"
       style="color:#000000;font-style:normal;font-variant:normal;font-weight:400;font-stretch:normal;font-size:medium;line-height:normal;font-family:sans-serif;text-indent:0;text-align:start;text-decoration:none;text-decoration-line:none;text-decoration-style:solid;text-decoration-color:#000000;letter-spacing:normal;word-spacing:normal;text-transform:none;writing-mode:lr-tb;direction:ltr;baseline-shift:baseline;text-anchor:start;white-space:normal;clip-rule:nonzero;display:inline;overflow:visible;visibility:visible;opacity:1;isolation:auto;mix-blend-mode:normal;color-interpolation:sRGB;color-interpolation-filters:linearRGB;solid-color:#000000;solid-opacity:1;fill:url(#b);fill-opacity:1;fill-rule:evenodd;stroke:none;stroke-width:6.57895;stroke-linecap:round;stroke-linejoin:miter;stroke-miterlimit:4;stroke-dasharray:none;stroke-dashoffset:0;stroke-opacity:1;color-rendering:auto;image-rendering:auto;shape-rendering:auto;text-rendering:auto"
       transform="translate(81,76)"
       id="path66" />
    <g
       aria-label="SÆKTU ÞAÐ FRÁ"
       id="text70"
       style="font-size:12.3952px;line-height:100%;font-family:'DejaVu Sans';-inkscape-font-specification:'DejaVu Sans';letter-spacing:0;word-spacing:0;display:inline;overflow:visible;fill:#ffffff;stroke-width:1px;marker:none">
      <path
         d="m 523.22586,378.0137 v 2.52503 q -1.474,-0.70496 -2.78137,-1.05103 -1.30737,-0.34607 -2.52503,-0.34607 -2.11486,0 -3.26843,0.82031 -1.14075,0.82032 -1.14075,2.33277 0,1.26892 0.75623,1.92261 0.76904,0.64086 2.89673,1.0382 l 1.56372,0.32044 q 2.89673,0.55115 4.26819,1.94824 1.38428,1.38428 1.38428,3.71704 0,2.78137 -1.87134,4.21692 -1.85852,1.43555 -5.46021,1.43555 -1.35864,0 -2.89673,-0.30762 -1.52526,-0.30762 -3.16589,-0.91003 v -2.66602 q 1.57654,0.8844 3.08899,1.33301 1.51245,0.44861 2.97363,0.44861 2.21741,0 3.42224,-0.87159 1.20484,-0.87158 1.20484,-2.48657 0,-1.40991 -0.87158,-2.20459 -0.85877,-0.79468 -2.83265,-1.19201 l -1.57653,-0.30762 q -2.89673,-0.57678 -4.19129,-1.80725 -1.29455,-1.23047 -1.29455,-3.42224 0,-2.53785 1.78161,-3.99903 1.79444,-1.46118 4.93469,-1.46118 1.34583,0 2.74292,0.24353 1.3971,0.24353 2.85828,0.73059 z"
         style="font-size:26.25px"
         id="path100" />
      <path
         d="m 549.48868,377.38565 v 2.17896 H 539.991 v 5.66528 h 9.11316 v 2.17895 H 539.991 v 6.93421 h 9.74121 v 2.17895 h -12.34314 v -4.90905 h -6.76758 l -2.05078,4.90905 h -2.62756 l 8.01086,-19.13635 z m -13.75305,2.02515 -4.22974,10.04883 h 5.88318 V 379.4108 Z"
         style="font-size:26.25px"
         id="path102" />
      <path
         d="m 553.98758,377.38565 h 2.58911 v 8.08777 l 8.58765,-8.08777 h 3.33252 l -9.49768,8.9209 10.177,10.21545 h -3.40943 l -9.19006,-9.2157 v 9.2157 h -2.58911 z"
         style="font-size:26.25px"
         id="path104" />
      <path
         d="m 566.51016,377.38565 h 16.18836 v 2.17896 H 575.9053 V 396.522 h -2.60192 v -16.95739 h -6.79322 z"
         style="font-size:26.25px"
         id="path106" />
      <path
         d="m 584.90311,377.38565 h 2.60193 v 11.62537 q 0,3.07617 1.11511,4.43481 1.11511,1.34583 3.6145,1.34583 2.48657,0 3.60168,-1.34583 1.11512,-1.35864 1.11512,-4.43481 v -11.62537 h 2.60193 v 11.9458 q 0,3.74268 -1.85853,5.65247 -1.8457,1.90979 -5.4602,1.90979 -3.62732,0 -5.48584,-1.90979 -1.8457,-1.90979 -1.8457,-5.65247 z"
         style="font-size:26.25px"
         id="path108" />
      <path
         d="m 612.75528,377.38565 h 2.58911 v 3.38379 h 3.25562 q 3.21716,0 4.85778,1.44836 1.65345,1.43555 1.65345,4.25538 0,2.81982 -1.65345,4.26818 -1.64062,1.44837 -4.85778,1.44837 h -3.25562 v 4.33227 h -2.58911 z m 2.58911,5.51148 v 7.16491 h 3.25562 q 1.80725,0 2.79419,-0.93567 0.98693,-0.93567 0.98693,-2.65319 0,-1.71753 -0.98693,-2.64039 -0.97413,-0.93566 -2.79419,-0.93566 z"
         style="font-size:26.25px"
         id="path110" />
      <path
         d="m 635.03189,379.93631 -3.51196,9.52332 h 7.03674 z m -1.46118,-2.55066 h 2.93518 l 7.29309,19.13635 h -2.69165 l -1.74316,-4.90905 h -8.6261 l -1.74317,4.90905 h -2.7301 z"
         style="font-size:26.25px"
         id="path112" />
      <path
         d="m 646.72134,377.38565 h 5.33204 q 5.54992,0 8.15185,2.31995 2.60193,2.30713 2.60193,7.229 0,4.94751 -2.61475,7.26746 -2.60193,2.31994 -8.13903,2.31994 h -5.33204 v -8.97216 h -2.57629 v -1.84571 h 2.57629 z m 2.60193,2.12769 v 6.19079 h 4.30664 v 1.84571 h -4.30664 v 6.84448 h 3.11463 q 3.96057,0 5.79345,-1.79444 1.84571,-1.79443 1.84571,-5.66528 0,-3.84521 -1.84571,-5.62683 -1.83288,-1.79443 -5.79345,-1.79443 z"
         style="font-size:26.25px"
         id="path114" />
      <path
         d="m 675.27847,377.38565 h 10.99732 v 2.17896 h -8.40821 v 5.63964 h 7.58789 v 2.17896 h -7.58789 v 9.13879 h -2.58911 z"
         style="font-size:26.25px"
         id="path116" />
      <path
         d="m 699.45206,387.54984 q 0.83313,0.28198 1.61499,1.20483 0.79467,0.92285 1.58935,2.53784 l 2.62757,5.22949 h -2.78138 l -2.44812,-4.90905 q -0.94848,-1.92261 -1.8457,-2.55066 -0.8844,-0.62806 -2.42248,-0.62806 h -2.81983 v 8.08777 h -2.58911 v -19.13635 h 5.84473 q 3.28125,0 4.89624,1.37146 1.61499,1.37146 1.61499,4.14002 0,1.80725 -0.84595,2.99926 -0.83313,1.19202 -2.4353,1.65345 z m -6.4856,-8.0365 v 6.79321 h 3.25562 q 1.87133,0 2.81982,-0.85877 0.9613,-0.87158 0.9613,-2.55065 0,-1.67908 -0.9613,-2.52503 -0.94849,-0.85876 -2.81982,-0.85876 z"
         style="font-size:26.25px"
         id="path118" />
      <path
         d="m 713.94852,379.93631 -3.51197,9.52332 h 7.03675 z m -1.46118,-2.55066 h 2.93518 l 7.29309,19.13635 h -2.69165 l -1.74317,-4.90905 h -8.6261 l -1.74316,4.90905 h -2.7301 z m 2.16613,-5.20386 h 2.37122 l -2.92236,3.38379 h -1.96106 z"
         style="font-size:26.25px"
         id="path120" />
    </g>
    <g
       aria-label="SAFNINU"
       id="text74"
       style="font-size:12.3952px;line-height:100%;font-family:'DejaVu Sans';-inkscape-font-specification:'DejaVu Sans';letter-spacing:0;word-spacing:0;display:inline;overflow:visible;fill:#ffffff;stroke-width:1px;marker:none">
      <path
         d="m 523.22586,471.52771 v 2.52502 q -1.474,-0.70495 -2.78137,-1.05102 -1.30737,-0.34607 -2.52503,-0.34607 -2.11486,0 -3.26843,0.82031 -1.14075,0.82031 -1.14075,2.33277 0,1.26892 0.75623,1.9226 0.76904,0.64087 2.89673,1.03821 l 1.56372,0.32044 q 2.89673,0.55114 4.26819,1.94824 1.38428,1.38428 1.38428,3.71704 0,2.78137 -1.87134,4.21692 -1.85852,1.43554 -5.46021,1.43554 -1.35864,0 -2.89673,-0.30761 -1.52526,-0.30762 -3.16589,-0.91004 v -2.66601 q 1.57654,0.8844 3.08899,1.33301 1.51245,0.4486 2.97363,0.4486 2.21741,0 3.42224,-0.87158 1.20484,-0.87158 1.20484,-2.48657 0,-1.40991 -0.87158,-2.20459 -0.85877,-0.79468 -2.83265,-1.19202 l -1.57653,-0.30761 q -2.89673,-0.57679 -4.19129,-1.80725 -1.29455,-1.23047 -1.29455,-3.42225 0,-2.53784 1.78161,-3.99902 1.79444,-1.46118 4.93469,-1.46118 1.34583,0 2.74292,0.24353 1.3971,0.24353 2.85828,0.73059 z"
         style="font-size:26.25px"
         id="path123" />
      <path
         d="m 535.29984,473.45032 -3.51197,9.52331 h 7.03675 z m -1.46119,-2.55066 h 2.93518 l 7.2931,19.13635 h -2.69166 l -1.74316,-4.90906 h -8.6261 l -1.74316,4.90906 h -2.7301 z"
         style="font-size:26.25px"
         id="path125" />
      <path
         d="m 546.86111,470.89966 h 10.99732 v 2.17895 h -8.4082 v 5.63965 h 7.58789 v 2.17896 h -7.58789 v 9.13879 h -2.58912 z"
         style="font-size:26.25px"
         id="path127" />
      <path
         d="m 561.95999,470.89966 h 3.48633 l 8.48511,16.00891 v -16.00891 h 2.5122 v 19.13635 h -3.48632 L 564.4722,474.0271 v 16.00891 h -2.51221 z"
         style="font-size:26.25px"
         id="path129" />
      <path
         d="m 581.59622,470.89966 h 2.58911 v 19.13635 h -2.58911 z"
         style="font-size:26.25px"
         id="path131" />
      <path
         d="m 589.33792,470.89966 h 3.48633 l 8.48511,16.00891 v -16.00891 h 2.5122 v 19.13635 h -3.48632 l -8.48511,-16.00891 v 16.00891 h -2.51221 z"
         style="font-size:26.25px"
         id="path133" />
      <path
         d="m 608.67935,470.89966 h 2.60193 v 11.62536 q 0,3.07618 1.11511,4.43482 1.11512,1.34582 3.6145,1.34582 2.48658,0 3.60169,-1.34582 1.11511,-1.35864 1.11511,-4.43482 v -11.62536 h 2.60193 v 11.9458 q 0,3.74267 -1.85852,5.65246 -1.8457,1.90979 -5.46021,1.90979 -3.62731,0 -5.48584,-1.90979 -1.8457,-1.90979 -1.8457,-5.65246 z"
         style="font-size:26.25px"
         id="path135" />
    </g>
    <g
       aria-label="F-Droid"
       id="text78"
       style="font-weight:700;font-size:29.7088px;line-height:100%;font-family:Rokkitt;-inkscape-font-specification:'Rokkitt Bold';letter-spacing:0;word-spacing:0;display:inline;overflow:visible;fill:#ffffff;stroke-width:1px;marker:none">
      <path
         d="m 510.40051,457.11905 v 6.83594 h 23.55469 v -6.83594 l -6.09375,-1.17188 v -15.625 h 19.92188 v -8.78906 h -19.92188 v -15.66406 h 18.55469 l 0.50781,6.79687 h 8.75 v -15.58593 h -45.27344 v 6.875 l 6.05469,1.17187 v 40.82031 z"
         style="font-size:80px;line-height:100%;font-family:'Roboto Slab';-inkscape-font-specification:'Roboto Slab Bold'"
         id="path138" />
      <path
         d="m 584.77551,444.03311 v -8.78906 h -22.03125 v 8.78906 z"
         style="font-size:80px;line-height:100%;font-family:'Roboto Slab';-inkscape-font-specification:'Roboto Slab Bold'"
         id="path140" />
      <path
         d="m 617.23645,407.07999 h -25.58594 v 6.875 l 6.05469,1.17187 v 40.82031 l -6.05469,1.17188 v 6.83594 h 25.58594 c 13.90625,0 23.94531,-9.76563 23.94531,-23.71094 v -9.41406 c 0,-13.90625 -10.03906,-23.75 -23.94531,-23.75 z m -8.125,8.78906 h 7.53906 c 8.16407,0 13.08594,6.09375 13.08594,14.88281 v 9.49219 c 0,8.90625 -4.92187,14.96094 -13.08594,14.96094 h -7.53906 z"
         style="font-size:80px;line-height:100%;font-family:'Roboto Slab';-inkscape-font-specification:'Roboto Slab Bold'"
         id="path142" />
      <path
         d="m 647.90051,457.11905 v 6.83594 h 22.34375 v -6.83594 l -5.46875,-1.17188 v -20.70312 c 1.25,-2.38281 3.28125,-3.63281 6.64063,-3.47656 l 5.625,0.27343 1.21094,-10.50781 c -1.09375,-0.39062 -2.89063,-0.625 -4.49219,-0.625 -4.10156,0 -7.26563,2.57813 -9.25781,6.95313 l -0.0781,-0.9375 -0.42969,-5.23438 h -16.67968 v 6.875 l 6.05468,1.17188 v 26.21093 z"
         style="font-size:80px;line-height:100%;font-family:'Roboto Slab';-inkscape-font-specification:'Roboto Slab Bold'"
         id="path144" />
      <path
         d="m 680.86926,442.43155 v 0.82031 c 0,12.69531 7.46094,21.52344 20,21.52344 12.38282,0 19.88282,-8.82813 19.88282,-21.52344 v -0.82031 c 0,-12.65625 -7.46094,-21.52344 -19.96094,-21.52344 -12.46094,0 -19.92188,8.90625 -19.92188,21.52344 z m 11.40625,0.82031 v -0.82031 c 0,-7.5 2.57813,-12.73438 8.51563,-12.73438 5.9375,0 8.59375,5.23438 8.59375,12.73438 v 0.82031 c 0,7.65625 -2.61719,12.77344 -8.51563,12.77344 -6.05468,0 -8.59375,-5.07813 -8.59375,-12.77344 z"
         style="font-size:80px;line-height:100%;font-family:'Roboto Slab';-inkscape-font-specification:'Roboto Slab Bold'"
         id="path146" />
      <path
         d="m 742.27551,412.74405 v -9.72656 h -11.79687 v 9.72656 z m -16.91406,44.375 v 6.83594 h 22.38281 v -6.83594 l -5.46875,-1.17188 v -34.25781 h -17.5 v 6.875 l 6.09375,1.17188 v 26.21093 z"
         style="font-size:80px;line-height:100%;font-family:'Roboto Slab';-inkscape-font-specification:'Roboto Slab Bold'"
         id="path148" />
      <path
         d="m 778.99426,458.79874 0.85938,5.15625 h 15.35156 v -6.83594 l -5.46875,-1.17188 v -52.92968 h -17.5 v 6.875 l 6.09375,1.17187 v 15.15625 c -2.53906,-3.39844 -5.9375,-5.3125 -10.15625,-5.3125 -10.46875,0 -16.52344,8.94531 -16.52344,22.26563 v 0.82031 c 0,12.5 6.01563,20.78125 16.44532,20.78125 4.64843,0 8.24218,-2.07031 10.89843,-5.97656 z m -15.9375,-14.80469 v -0.82031 c 0,-7.96875 2.42188,-13.39844 8.00782,-13.39844 3.28125,0 5.70312,1.5625 7.26562,4.25781 v 17.92969 c -1.5625,2.53906 -4.02344,3.94531 -7.34375,3.94531 -5.625,0 -7.92969,-4.53125 -7.92969,-11.91406 z"
         style="font-size:80px;line-height:100%;font-family:'Roboto Slab';-inkscape-font-specification:'Roboto Slab Bold'"
         id="path150" />
    </g>
  </g>
</svg>
