<?xml version="1.0" encoding="UTF-8" standalone="no"?>
<svg
   width="565"
   height="180"
   version="1.1"
   id="svg82"
   sodipodi:docname="get-it-on-sw.svg"
   xmlns:inkscape="http://www.inkscape.org/namespaces/inkscape"
   xmlns:sodipodi="http://sodipodi.sourceforge.net/DTD/sodipodi-0.dtd"
   xmlns:xlink="http://www.w3.org/1999/xlink"
   xmlns="http://www.w3.org/2000/svg"
   xmlns:svg="http://www.w3.org/2000/svg">
  <sodipodi:namedview
     id="namedview84"
     pagecolor="#ffffff"
     bordercolor="#000000"
     borderopacity="0.25"
     inkscape:showpageshadow="2"
     inkscape:pageopacity="0.0"
     inkscape:pagecheckerboard="0"
     inkscape:deskcolor="#d1d1d1" />
  <defs
     id="defs8">
    <radialGradient
       xlink:href="#a"
       id="b"
       cx="113"
       cy="-12.89"
       r="59.662"
       fx="113"
       fy="-12.89"
       gradientTransform="matrix(0 1.96105 -1.97781 0 254.507 78.763)"
       gradientUnits="userSpaceOnUse" />
    <linearGradient
       id="a">
      <stop
         offset="0"
         style="stop-color:#fff;stop-opacity:.09803922"
         id="stop3" />
      <stop
         offset="1"
         style="stop-color:#fff;stop-opacity:0"
         id="stop5" />
    </linearGradient>
  </defs>
  <g
     transform="translate(-329,-347.362)"
     id="g80">
    <path
       id="rect10"
       style="display:inline;overflow:visible;stroke:#a6a6a6;stroke-width:4;marker:none"
       d="m 352,349.362 h 520 c 11.08,0 20,8.92 20,20 v 136 c 0,11.08 -8.92,20 -20,20 H 352 c -11.08,0 -20,-8.92 -20,-20 v -136 c 0,-11.08 8.92,-20 20,-20 z" />
    <path
       d="m 2.589,1006.862 4.25,5.5"
       style="fill:#8ab000;fill-opacity:1;fill-rule:evenodd;stroke:#769616;stroke-width:2.5;stroke-linecap:round;stroke-linejoin:miter;stroke-miterlimit:4;stroke-dasharray:none;stroke-opacity:1"
       transform="matrix(-2.63159,0,0,2.63157,483.158,-2270.475)"
       id="path12" />
    <path
       d="m 2.611,1005.61 c -0.453,0.011 -0.761,0.188 -0.98,0.448 2.027,2.409 2.368,2.792 5.135,6.221 1.02,1.32 2.082,0.638 1.062,-0.681 l -4.25,-5.5 a 1.24,1.24 0 0 0 -0.967,-0.489"
       style="color:#000000;font-style:normal;font-variant:normal;font-weight:400;font-stretch:normal;font-size:medium;line-height:normal;font-family:sans-serif;text-indent:0;text-align:start;text-decoration:none;text-decoration-line:none;text-decoration-style:solid;text-decoration-color:#000000;letter-spacing:normal;word-spacing:normal;text-transform:none;writing-mode:lr-tb;direction:ltr;baseline-shift:baseline;text-anchor:start;white-space:normal;clip-rule:nonzero;display:inline;overflow:visible;visibility:visible;opacity:1;isolation:auto;mix-blend-mode:normal;color-interpolation:sRGB;color-interpolation-filters:linearRGB;solid-color:#000000;solid-opacity:1;fill:#ffffff;fill-opacity:0.298039;fill-rule:evenodd;stroke:none;stroke-width:2.5;stroke-linecap:round;stroke-linejoin:miter;stroke-miterlimit:4;stroke-dasharray:none;stroke-dashoffset:0;stroke-opacity:1;color-rendering:auto;image-rendering:auto;shape-rendering:auto;text-rendering:auto"
       transform="matrix(-2.63159,0,0,2.63157,483.158,-2270.475)"
       id="path14" />
    <path
       d="m 1.622,1006.07 a 1.25,1.25 0 0 0 -0.022,1.557 l 4.25,5.5 c 1.02,1.319 1.15,-0.613 1.15,-0.613 0,0 -3.735,-4.51 -5.378,-6.443"
       style="color:#000000;font-style:normal;font-variant:normal;font-weight:400;font-stretch:normal;font-size:medium;line-height:normal;font-family:sans-serif;text-indent:0;text-align:start;text-decoration:none;text-decoration-line:none;text-decoration-style:solid;text-decoration-color:#000000;letter-spacing:normal;word-spacing:normal;text-transform:none;writing-mode:lr-tb;direction:ltr;baseline-shift:baseline;text-anchor:start;white-space:normal;clip-rule:nonzero;display:inline;overflow:visible;visibility:visible;opacity:1;isolation:auto;mix-blend-mode:normal;color-interpolation:sRGB;color-interpolation-filters:linearRGB;solid-color:#000000;solid-opacity:1;fill:#263238;fill-opacity:0.2;fill-rule:evenodd;stroke:none;stroke-width:2.5;stroke-linecap:round;stroke-linejoin:miter;stroke-miterlimit:4;stroke-dasharray:none;stroke-dashoffset:0;stroke-opacity:1;color-rendering:auto;image-rendering:auto;shape-rendering:auto;text-rendering:auto"
       transform="matrix(-2.63159,0,0,2.63157,483.158,-2270.475)"
       id="path16" />
    <path
       d="m 2.338,1005.844 c -0.438,0 -0.96,0.142 -0.824,0.799 0.103,0.501 4.66,6.074 4.66,6.074 1.02,1.32 2.494,0.677 1.474,-0.642 l -4.234,-5.473 c -0.26,-0.29 -0.608,-0.744 -1.076,-0.758"
       style="color:#000000;font-style:normal;font-variant:normal;font-weight:400;font-stretch:normal;font-size:medium;line-height:normal;font-family:sans-serif;text-indent:0;text-align:start;text-decoration:none;text-decoration-line:none;text-decoration-style:solid;text-decoration-color:#000000;letter-spacing:normal;word-spacing:normal;text-transform:none;writing-mode:lr-tb;direction:ltr;baseline-shift:baseline;text-anchor:start;white-space:normal;clip-rule:nonzero;display:inline;overflow:visible;visibility:visible;opacity:1;isolation:auto;mix-blend-mode:normal;color-interpolation:sRGB;color-interpolation-filters:linearRGB;solid-color:#000000;solid-opacity:1;fill:#8ab000;fill-opacity:1;fill-rule:evenodd;stroke:none;stroke-width:2.5;stroke-linecap:round;stroke-linejoin:miter;stroke-miterlimit:4;stroke-dasharray:none;stroke-dashoffset:0;stroke-opacity:1;color-rendering:auto;image-rendering:auto;shape-rendering:auto;text-rendering:auto"
       transform="matrix(-2.63159,0,0,2.63157,483.158,-2270.475)"
       id="path18" />
    <path
       d="m 2.589,1006.862 4.25,5.5"
       style="fill:#8ab000;fill-opacity:1;fill-rule:evenodd;stroke:#769616;stroke-width:2.5;stroke-linecap:round;stroke-linejoin:miter;stroke-miterlimit:4;stroke-dasharray:none;stroke-opacity:1"
       transform="matrix(2.63159,0,0,2.63157,356.842,-2270.475)"
       id="path20" />
    <path
       d="m 2.611,1005.61 c -0.453,0.011 -0.761,0.188 -0.98,0.448 2.027,2.409 2.368,2.792 5.135,6.221 1.02,1.32 2.082,0.638 1.062,-0.681 l -4.25,-5.5 a 1.24,1.24 0 0 0 -0.967,-0.489"
       style="color:#000000;font-style:normal;font-variant:normal;font-weight:400;font-stretch:normal;font-size:medium;line-height:normal;font-family:sans-serif;text-indent:0;text-align:start;text-decoration:none;text-decoration-line:none;text-decoration-style:solid;text-decoration-color:#000000;letter-spacing:normal;word-spacing:normal;text-transform:none;writing-mode:lr-tb;direction:ltr;baseline-shift:baseline;text-anchor:start;white-space:normal;clip-rule:nonzero;display:inline;overflow:visible;visibility:visible;opacity:1;isolation:auto;mix-blend-mode:normal;color-interpolation:sRGB;color-interpolation-filters:linearRGB;solid-color:#000000;solid-opacity:1;fill:#ffffff;fill-opacity:0.298039;fill-rule:evenodd;stroke:none;stroke-width:2.5;stroke-linecap:round;stroke-linejoin:miter;stroke-miterlimit:4;stroke-dasharray:none;stroke-dashoffset:0;stroke-opacity:1;color-rendering:auto;image-rendering:auto;shape-rendering:auto;text-rendering:auto"
       transform="matrix(2.63159,0,0,2.63157,356.842,-2270.475)"
       id="path22" />
    <path
       d="m 1.622,1006.07 a 1.25,1.25 0 0 0 -0.022,1.557 l 4.25,5.5 c 1.02,1.319 1.15,-0.613 1.15,-0.613 0,0 -3.735,-4.51 -5.378,-6.443"
       style="color:#000000;font-style:normal;font-variant:normal;font-weight:400;font-stretch:normal;font-size:medium;line-height:normal;font-family:sans-serif;text-indent:0;text-align:start;text-decoration:none;text-decoration-line:none;text-decoration-style:solid;text-decoration-color:#000000;letter-spacing:normal;word-spacing:normal;text-transform:none;writing-mode:lr-tb;direction:ltr;baseline-shift:baseline;text-anchor:start;white-space:normal;clip-rule:nonzero;display:inline;overflow:visible;visibility:visible;opacity:1;isolation:auto;mix-blend-mode:normal;color-interpolation:sRGB;color-interpolation-filters:linearRGB;solid-color:#000000;solid-opacity:1;fill:#263238;fill-opacity:0.2;fill-rule:evenodd;stroke:none;stroke-width:2.5;stroke-linecap:round;stroke-linejoin:miter;stroke-miterlimit:4;stroke-dasharray:none;stroke-dashoffset:0;stroke-opacity:1;color-rendering:auto;image-rendering:auto;shape-rendering:auto;text-rendering:auto"
       transform="matrix(2.63159,0,0,2.63157,356.842,-2270.475)"
       id="path24" />
    <path
       d="m 2.338,1005.844 c -0.438,0 -0.96,0.142 -0.824,0.799 0.103,0.501 4.66,6.074 4.66,6.074 1.02,1.32 2.494,0.677 1.474,-0.642 l -4.234,-5.473 c -0.26,-0.29 -0.608,-0.744 -1.076,-0.758"
       style="color:#000000;font-style:normal;font-variant:normal;font-weight:400;font-stretch:normal;font-size:medium;line-height:normal;font-family:sans-serif;text-indent:0;text-align:start;text-decoration:none;text-decoration-line:none;text-decoration-style:solid;text-decoration-color:#000000;letter-spacing:normal;word-spacing:normal;text-transform:none;writing-mode:lr-tb;direction:ltr;baseline-shift:baseline;text-anchor:start;white-space:normal;clip-rule:nonzero;display:inline;overflow:visible;visibility:visible;opacity:1;isolation:auto;mix-blend-mode:normal;color-interpolation:sRGB;color-interpolation-filters:linearRGB;solid-color:#000000;solid-opacity:1;fill:#8ab000;fill-opacity:1;fill-rule:evenodd;stroke:none;stroke-width:2.5;stroke-linecap:round;stroke-linejoin:miter;stroke-miterlimit:4;stroke-dasharray:none;stroke-dashoffset:0;stroke-opacity:1;color-rendering:auto;image-rendering:auto;shape-rendering:auto;text-rendering:auto"
       transform="matrix(2.63159,0,0,2.63157,356.842,-2270.475)"
       id="path26" />
    <g
       transform="matrix(2.63159,0,0,2.63157,467.369,-2270.475)"
       id="g36">
      <path
         id="rect28"
         style="opacity:1;fill:#aeea00;stroke-width:3;stroke-linecap:round;stroke-miterlimit:3"
         d="m -34,1010.36 h 32 c 1.662,0 3,1.338 3,3 v 6.92 c 0,1.662 -1.338,3 -3,3 h -32 c -1.662,0 -3,-1.338 -3,-3 v -6.92 c 0,-1.662 1.338,-3 3,-3 z" />
      <path
         id="rect30"
         style="opacity:1;fill:#263238;fill-opacity:0.2;stroke-width:3;stroke-linecap:round;stroke-miterlimit:3"
         d="m -34,1013.279 h 32 c 1.662,0 3,1.338 3,3 v 4 c 0,1.662 -1.338,3 -3,3 h -32 c -1.662,0 -3,-1.338 -3,-3 v -4 c 0,-1.662 1.338,-3 3,-3 z" />
      <path
         id="rect32"
         style="opacity:1;fill:#ffffff;fill-opacity:0.298039;stroke-width:3;stroke-linecap:round;stroke-miterlimit:3"
         d="m -34,1010.362 h 32 c 1.662,0 3,1.338 3,3 v 4 c 0,1.662 -1.338,3 -3,3 h -32 c -1.662,0 -3,-1.338 -3,-3 v -4 c 0,-1.662 1.338,-3 3,-3 z" />
      <path
         id="rect34"
         style="opacity:1;fill:#aeea00;stroke-width:3;stroke-linecap:round;stroke-miterlimit:3"
         d="m -34,1011.5 h 32 c 1.662,0 3,1.0954 3,2.456 v 5.729 c 0,1.3606 -1.338,2.456 -3,2.456 h -32 c -1.662,0 -3,-1.0954 -3,-2.456 v -5.729 c 0,-1.3606 1.338,-2.456 3,-2.456 z" />
    </g>
    <g
       transform="matrix(2.63159,0,0,2.63157,356.842,-2270.745)"
       id="g46">
      <path
         id="rect38"
         style="opacity:1;fill:#1976d2;stroke-width:3;stroke-linecap:round;stroke-miterlimit:3"
         d="m 8,1024.522 h 32 c 1.662,0 3,1.338 3,3 v 19.84 c 0,1.662 -1.338,3 -3,3 H 8 c -1.662,0 -3,-1.338 -3,-3 v -19.84 c 0,-1.662 1.338,-3 3,-3 z" />
      <path
         id="rect40"
         style="opacity:1;fill:#263238;fill-opacity:0.2;stroke-width:3;stroke-linecap:round;stroke-miterlimit:3"
         d="m 8,1037.3621 h 32 c 1.662,0 3,1.338 3,3 v 7 c 0,1.662 -1.338,3 -3,3 H 8 c -1.662,0 -3,-1.338 -3,-3 v -7 c 0,-1.662 1.338,-3 3,-3 z" />
      <path
         id="rect42"
         style="opacity:1;fill:#ffffff;fill-opacity:0.2;stroke-width:3;stroke-linecap:round;stroke-miterlimit:3"
         d="m 8,1024.442 h 32 c 1.662,0 3,1.338 3,3 v 7 c 0,1.662 -1.338,3 -3,3 H 8 c -1.662,0 -3,-1.338 -3,-3 v -7 c 0,-1.662 1.338,-3 3,-3 z" />
      <path
         id="rect44"
         style="opacity:1;fill:#1976d2;stroke-width:3;stroke-linecap:round;stroke-miterlimit:3"
         d="m 8,1025.662 h 32 c 1.662,0 3,1.2122 3,2.718 v 18.124 c 0,1.5058 -1.338,2.718 -3,2.718 H 8 c -1.662,0 -3,-1.2122 -3,-2.718 v -18.124 c 0,-1.5058 1.338,-2.718 3,-2.718 z" />
    </g>
    <g
       transform="matrix(2.63159,0,0,2.63157,356.842,396.264)"
       id="g52">
      <path
         d="m 24,17.75 c -2.88,0 -5.32,1.985 -6.033,4.65 H 21.18 A 3.22,3.22 0 0 1 24,20.75 3.23,3.23 0 0 1 27.25,24 3.23,3.23 0 0 1 24,27.25 3.22,3.22 0 0 1 21.07,25.4 h -3.154 c 0.642,2.766 3.132,4.85 6.084,4.85 3.434,0 6.25,-2.816 6.25,-6.25 0,-3.434 -2.816,-6.25 -6.25,-6.25"
         style="color:#000000;font-style:normal;font-variant:normal;font-weight:400;font-stretch:normal;font-size:medium;line-height:normal;font-family:sans-serif;text-indent:0;text-align:start;text-decoration:none;text-decoration-line:none;text-decoration-style:solid;text-decoration-color:#000000;letter-spacing:normal;word-spacing:normal;text-transform:none;writing-mode:lr-tb;direction:ltr;baseline-shift:baseline;text-anchor:start;white-space:normal;clip-rule:nonzero;display:inline;overflow:visible;visibility:visible;opacity:1;isolation:auto;mix-blend-mode:normal;color-interpolation:sRGB;color-interpolation-filters:linearRGB;solid-color:#000000;solid-opacity:1;fill:#0d47a1;fill-opacity:1;fill-rule:nonzero;stroke:none;stroke-width:3;stroke-linecap:round;stroke-linejoin:miter;stroke-miterlimit:4;stroke-dasharray:none;stroke-dashoffset:0;stroke-opacity:1;color-rendering:auto;image-rendering:auto;shape-rendering:auto;text-rendering:auto"
         id="path48" />
      <path
         id="circle50"
         style="opacity:1;fill:none;fill-opacity:0.403922;stroke:#0d47a1;stroke-width:1.9;stroke-linecap:round"
         d="M 33.55,24 A 9.5500002,9.5500002 0 0 1 24,33.55 9.5500002,9.5500002 0 0 1 14.45,24 9.5500002,9.5500002 0 0 1 24,14.45 9.5500002,9.5500002 0 0 1 33.55,24 Z" />
    </g>
    <g
       transform="matrix(2.63159,0,0,2.63157,356.842,-2269.159)"
       id="g58">
      <path
         id="ellipse54"
         style="opacity:1;fill:#263238;fill-opacity:0.2;stroke-width:1.9;stroke-linecap:round;stroke-opacity:0.697211"
         d="m 17.75,1016.487 a 3.375,3.875 0 0 1 -3.375,3.875 3.375,3.875 0 0 1 -3.375,-3.875 3.375,3.875 0 0 1 3.375,-3.875 3.375,3.875 0 0 1 3.375,3.875 z" />
      <path
         id="circle56"
         style="opacity:1;fill:#ffffff;stroke-width:1.9;stroke-linecap:round;stroke-opacity:0.697211"
         d="m 17.75,1016.987 a 3.375,3.375 0 0 1 -3.375,3.375 3.375,3.375 0 0 1 -3.375,-3.375 3.375,3.375 0 0 1 3.375,-3.375 3.375,3.375 0 0 1 3.375,3.375 z" />
    </g>
    <g
       transform="matrix(2.63159,0,0,2.63157,408.158,-2269.159)"
       id="g64">
      <path
         id="ellipse60"
         style="opacity:1;fill:#263238;fill-opacity:0.2;stroke-width:1.9;stroke-linecap:round;stroke-opacity:0.697211"
         d="m 17.75,1016.487 a 3.375,3.875 0 0 1 -3.375,3.875 3.375,3.875 0 0 1 -3.375,-3.875 3.375,3.875 0 0 1 3.375,-3.875 3.375,3.875 0 0 1 3.375,3.875 z" />
      <path
         id="circle62"
         style="opacity:1;fill:#ffffff;stroke-width:1.9;stroke-linecap:round;stroke-opacity:0.697211"
         d="m 17.75,1016.987 a 3.375,3.375 0 0 1 -3.375,3.375 3.375,3.375 0 0 1 -3.375,-3.375 3.375,3.375 0 0 1 3.375,-3.375 3.375,3.375 0 0 1 3.375,3.375 z" />
    </g>
    <path
       d="m 282.715,299.835 a 3.29,3.29 0 0 0 -2.662,5.336 l 9.474,12.261 A 7.9,7.9 0 0 0 289,320.257 v 18.21 a 7.877,7.877 0 0 0 7.895,7.895 h 84.21 A 7.877,7.877 0 0 0 389,338.468 v -18.211 c 0,-0.999 -0.19,-1.949 -0.525,-2.826 l 9.472,-12.26 a 3.29,3.29 0 0 0 -2.433,-5.334 3.29,3.29 0 0 0 -2.772,1.31 l -9.013,11.666 a 7.9,7.9 0 0 0 -2.624,-0.45 h -84.21 c -0.922,0 -1.8,0.163 -2.622,0.45 l -9.015,-11.666 a 3.29,3.29 0 0 0 -2.543,-1.312 m 14.18,49.527 A 7.877,7.877 0 0 0 289,357.257 v 52.21 a 7.877,7.877 0 0 0 7.895,7.895 h 84.21 A 7.877,7.877 0 0 0 389,409.468 v -52.211 a 7.877,7.877 0 0 0 -7.895,-7.895 z"
       style="color:#000000;font-style:normal;font-variant:normal;font-weight:400;font-stretch:normal;font-size:medium;line-height:normal;font-family:sans-serif;text-indent:0;text-align:start;text-decoration:none;text-decoration-line:none;text-decoration-style:solid;text-decoration-color:#000000;letter-spacing:normal;word-spacing:normal;text-transform:none;writing-mode:lr-tb;direction:ltr;baseline-shift:baseline;text-anchor:start;white-space:normal;clip-rule:nonzero;display:inline;overflow:visible;visibility:visible;opacity:1;isolation:auto;mix-blend-mode:normal;color-interpolation:sRGB;color-interpolation-filters:linearRGB;solid-color:#000000;solid-opacity:1;fill:url(#b);fill-opacity:1;fill-rule:evenodd;stroke:none;stroke-width:6.57895;stroke-linecap:round;stroke-linejoin:miter;stroke-miterlimit:4;stroke-dasharray:none;stroke-dashoffset:0;stroke-opacity:1;color-rendering:auto;image-rendering:auto;shape-rendering:auto;text-rendering:auto"
       transform="translate(81,76)"
       id="path66" />
    <g
       aria-label="IPATE KWENYE"
       id="text70"
       style="font-size:12.3952px;line-height:100%;font-family:'DejaVu Sans';-inkscape-font-specification:'DejaVu Sans';letter-spacing:0;word-spacing:0;display:inline;overflow:visible;fill:#ffffff;stroke-width:1px;marker:none">
      <path
         d="m 511.7543,377.38565 h 2.58911 V 396.522 h -2.58911 z"
         style="font-size:26.25px"
         id="path100" />
      <path
         d="m 522.08511,379.51334 v 7.19055 h 3.25562 q 1.80725,0 2.79419,-0.93567 0.98694,-0.93567 0.98694,-2.66602 0,-1.71753 -0.98694,-2.65319 -0.98694,-0.93567 -2.79419,-0.93567 z m -2.58911,-2.12769 h 5.84473 q 3.21716,0 4.85779,1.46118 1.65344,1.44837 1.65344,4.25537 0,2.83264 -1.65344,4.28101 -1.64063,1.44836 -4.85779,1.44836 h -3.25562 V 396.522 H 519.496 Z"
         style="font-size:26.25px"
         id="path102" />
      <path
         d="m 540.04227,379.93631 -3.51197,9.52332 h 7.03675 z m -1.46118,-2.55066 h 2.93518 l 7.29309,19.13635 h -2.69165 l -1.74317,-4.90905 h -8.6261 l -1.74316,4.90905 h -2.7301 z"
         style="font-size:26.25px"
         id="path104" />
      <path
         d="m 546.91238,377.38565 h 16.18836 v 2.17896 h -6.79321 V 396.522 h -2.60193 v -16.95739 h -6.79322 z"
         style="font-size:26.25px"
         id="path106" />
      <path
         d="m 565.60013,377.38565 h 12.09961 v 2.17896 h -9.5105 v 5.66528 h 9.11316 v 2.17895 h -9.11316 v 6.93421 h 9.74121 v 2.17895 h -12.33032 z"
         style="font-size:26.25px"
         id="path108" />
      <path
         d="m 590.52994,377.38565 h 2.58911 v 8.08777 l 8.58765,-8.08777 h 3.33252 l -9.49769,8.9209 10.17701,10.21545 h -3.40943 l -9.19006,-9.2157 v 9.2157 h -2.58911 z"
         style="font-size:26.25px"
         id="path110" />
      <path
         d="m 605.1033,377.38565 h 2.61475 l 4.02466,16.17554 4.01184,-16.17554 h 2.90954 l 4.02466,16.17554 4.01184,-16.17554 h 2.62757 l -4.80652,19.13635 h -3.25562 l -4.03747,-16.61132 -4.07593,16.61132 H 609.897 Z"
         style="font-size:26.25px"
         id="path112" />
      <path
         d="m 632.76321,377.38565 h 12.09961 v 2.17896 h -9.51049 v 5.66528 h 9.11315 v 2.17895 h -9.11315 v 6.93421 h 9.74121 v 2.17895 h -12.33033 z"
         style="font-size:26.25px"
         id="path114" />
      <path
         d="m 649.34891,377.38565 h 3.48633 l 8.4851,16.00891 v -16.00891 h 2.51221 V 396.522 h -3.48633 l -8.48511,-16.00891 V 396.522 h -2.5122 z"
         style="font-size:26.25px"
         id="path116" />
      <path
         d="m 666.35757,377.38565 h 2.78138 l 5.30639,7.86987 5.26795,-7.86987 h 2.78137 l -6.76758,10.02319 v 9.11316 h -2.60193 v -9.11316 z"
         style="font-size:26.25px"
         id="path118" />
      <path
         d="m 685.01968,377.38565 h 12.09961 v 2.17896 h -9.51049 v 5.66528 h 9.11315 v 2.17895 h -9.11315 v 6.93421 h 9.74121 v 2.17895 h -12.33033 z"
         style="font-size:26.25px"
         id="path120" />
    </g>
    <g
       aria-label="UZI HUU UTAONGEZWA KWA BEJI CHINI YA NENO &quot;F-DROID&quot;. IWACHE BILA TAFSIRI AU ONGEZA NAFASI IKIWA HAKUNA NENO LINAHITAJI KUONGEZWA HAPA"
       id="text74"
       style="font-size:12.3952px;line-height:100%;font-family:'DejaVu Sans';-inkscape-font-specification:'DejaVu Sans';letter-spacing:0;word-spacing:0;display:inline;overflow:visible;fill:#ffffff;stroke-width:1px;marker:none">
      <path
         d="m 511.4595,470.89966 h 2.60193 v 11.62536 q 0,3.07618 1.11511,4.43482 1.11512,1.34582 3.61451,1.34582 2.48657,0 3.60168,-1.34582 1.11511,-1.35864 1.11511,-4.43482 v -11.62536 h 2.60193 v 11.9458 q 0,3.74267 -1.85852,5.65246 -1.8457,1.90979 -5.4602,1.90979 -3.62732,0 -5.48584,-1.90979 -1.84571,-1.90979 -1.84571,-5.65246 z"
         style="font-size:26.25px"
         id="path123" />
      <path
         d="m 529.40384,470.89966 h 15.03479 v 1.97388 l -12.09961,14.98352 h 12.39441 v 2.17895 h -15.62439 v -1.97388 l 12.09961,-14.98352 h -11.80481 z"
         style="font-size:26.25px"
         id="path125" />
      <path
         d="m 548.48892,470.89966 h 2.58911 v 19.13635 h -2.58911 z"
         style="font-size:26.25px"
         id="path127" />
      <path
         d="m 564.57474,470.89966 h 2.58911 v 7.84424 h 9.40796 v -7.84424 h 2.58911 v 19.13635 h -2.58911 v -9.11316 h -9.40796 v 9.11316 h -2.58911 z"
         style="font-size:26.25px"
         id="path129" />
      <path
         d="m 584.01871,470.89966 h 2.60193 v 11.62536 q 0,3.07618 1.11511,4.43482 1.11511,1.34582 3.6145,1.34582 2.48657,0 3.60168,-1.34582 1.11512,-1.35864 1.11512,-4.43482 v -11.62536 h 2.60193 v 11.9458 q 0,3.74267 -1.85852,5.65246 -1.84571,1.90979 -5.46021,1.90979 -3.62732,0 -5.48584,-1.90979 -1.8457,-1.90979 -1.8457,-5.65246 z"
         style="font-size:26.25px"
         id="path131" />
      <path
         d="m 603.23196,470.89966 h 2.60193 v 11.62536 q 0,3.07618 1.11512,4.43482 1.11511,1.34582 3.6145,1.34582 2.48657,0 3.60168,-1.34582 1.11511,-1.35864 1.11511,-4.43482 v -11.62536 h 2.60193 v 11.9458 q 0,3.74267 -1.85852,5.65246 -1.8457,1.90979 -5.4602,1.90979 -3.62732,0 -5.48584,-1.90979 -1.84571,-1.90979 -1.84571,-5.65246 z"
         style="font-size:26.25px"
         id="path133" />
      <path
         d="m 630.78934,470.89966 h 2.60193 v 11.62536 q 0,3.07618 1.11511,4.43482 1.11511,1.34582 3.6145,1.34582 2.48657,0 3.60168,-1.34582 1.11512,-1.35864 1.11512,-4.43482 v -11.62536 h 2.60193 v 11.9458 q 0,3.74267 -1.85852,5.65246 -1.84571,1.90979 -5.46021,1.90979 -3.62732,0 -5.48584,-1.90979 -1.8457,-1.90979 -1.8457,-5.65246 z"
         style="font-size:26.25px"
         id="path135" />
      <path
         d="m 647.6442,470.89966 h 16.18835 v 2.17895 h -6.79321 v 16.9574 h -2.60193 v -16.9574 h -6.79321 z"
         style="font-size:26.25px"
         id="path137" />
      <path
         d="m 670.68985,473.45032 -3.51196,9.52331 h 7.03674 z m -1.46118,-2.55066 h 2.93518 l 7.29309,19.13635 h -2.69165 l -1.74316,-4.90906 h -8.6261 l -1.74317,4.90906 h -2.7301 z"
         style="font-size:26.25px"
         id="path139" />
      <path
         d="m 689.55704,472.65564 q -2.81983,0 -4.48609,2.10205 -1.65344,2.10205 -1.65344,5.72937 0,3.6145 1.65344,5.71655 1.66626,2.10205 4.48609,2.10205 2.81982,0 4.46045,-2.10205 1.65344,-2.10205 1.65344,-5.71655 0,-3.62732 -1.65344,-5.72937 -1.64063,-2.10205 -4.46045,-2.10205 z m 0,-2.10205 q 4.02466,0 6.43432,2.70447 2.40967,2.69165 2.40967,7.229 0,4.52454 -2.40967,7.229 -2.40966,2.69165 -6.43432,2.69165 -4.03748,0 -6.45996,-2.69165 -2.40967,-2.69165 -2.40967,-7.229 0,-4.53735 2.40967,-7.229 2.42248,-2.70447 6.45996,-2.70447 z"
         style="font-size:26.25px"
         id="path141" />
      <path
         d="m 702.45132,470.89966 h 3.48633 l 8.48511,16.00891 v -16.00891 h 2.51221 v 19.13635 h -3.48633 l -8.48511,-16.00891 v 16.00891 h -2.51221 z"
         style="font-size:26.25px"
         id="path143" />
      <path
         d="m 735.13565,487.30591 v -5.13977 h -4.22974 v -2.12769 h 6.79322 v 8.21594 q -1.49964,1.06385 -3.30689,1.61499 -1.80725,0.53833 -3.85803,0.53833 -4.48608,0 -7.02393,-2.61474 -2.52502,-2.62756 -2.52502,-7.30591 0,-4.69116 2.52502,-7.30591 2.53785,-2.62756 7.02393,-2.62756 1.87134,0 3.55042,0.46142 1.69189,0.46143 3.11462,1.35865 v 2.75573 q -1.43555,-1.21765 -3.05054,-1.83288 -1.61499,-0.61524 -3.3966,-0.61524 -3.51197,0 -5.28077,1.96106 -1.75598,1.96106 -1.75598,5.84473 0,3.87085 1.75598,5.83191 1.7688,1.96106 5.28077,1.96106 1.37146,0 2.44812,-0.23071 1.07666,-0.24353 1.93542,-0.74341 z"
         style="font-size:26.25px"
         id="path145" />
      <path
         d="m 742.42874,470.89966 h 12.09961 v 2.17895 h -9.5105 v 5.66529 h 9.11316 v 2.17895 h -9.11316 v 6.93421 h 9.74121 v 2.17895 h -12.33032 z"
         style="font-size:26.25px"
         id="path147" />
      <path
         d="m 757.91214,470.89966 h 15.03479 v 1.97388 l -12.09961,14.98352 h 12.39441 v 2.17895 h -15.62439 v -1.97388 l 12.09961,-14.98352 h -11.80481 z"
         style="font-size:26.25px"
         id="path149" />
      <path
         d="m 775.29251,470.89966 h 2.61475 l 4.02466,16.17554 4.01184,-16.17554 h 2.90954 l 4.02466,16.17554 4.01184,-16.17554 h 2.62756 l -4.80651,19.13635 h -3.25562 l -4.03747,-16.61133 -4.07593,16.61133 h -3.25562 z"
         style="font-size:26.25px"
         id="path151" />
      <path
         d="m 807.91275,473.45032 -3.51196,9.52331 h 7.03674 z m -1.46118,-2.55066 h 2.93518 l 7.29309,19.13635 h -2.69165 l -1.74316,-4.90906 h -8.6261 l -1.74317,4.90906 h -2.7301 z"
         style="font-size:26.25px"
         id="path153" />
      <path
         d="m 827.81815,470.89966 h 2.58911 v 8.08777 l 8.58764,-8.08777 h 3.33252 l -9.49768,8.9209 10.177,10.21545 h -3.40942 l -9.19006,-9.2157 v 9.2157 h -2.58911 z"
         style="font-size:26.25px"
         id="path155" />
      <path
         d="m 842.39151,470.89966 h 2.61475 l 4.02465,16.17554 4.01185,-16.17554 h 2.90954 l 4.02466,16.17554 4.01184,-16.17554 h 2.62756 l -4.80652,19.13635 h -3.25561 l -4.03748,-16.61133 -4.07592,16.61133 h -3.25562 z"
         style="font-size:26.25px"
         id="path157" />
      <path
         d="m 875.01175,473.45032 -3.51196,9.52331 h 7.03674 z m -1.46118,-2.55066 h 2.93518 l 7.29309,19.13635 h -2.69165 l -1.74317,-4.90906 h -8.62609 l -1.74317,4.90906 h -2.7301 z"
         style="font-size:26.25px"
         id="path159" />
      <path
         d="m 897.50626,480.89722 v 7.01111 h 4.15283 q 2.08923,0 3.08899,-0.85877 1.01257,-0.87158 1.01257,-2.6532 0,-1.79443 -1.01257,-2.64038 -0.99976,-0.85876 -3.08899,-0.85876 z m 0,-7.86988 v 5.76783 h 3.83239 q 1.89698,0 2.81983,-0.70496 0.93567,-0.71777 0.93567,-2.17896 0,-1.44836 -0.93567,-2.16613 -0.92285,-0.71778 -2.81983,-0.71778 z m -2.58912,-2.12768 h 6.61377 q 2.96082,0 4.56299,1.23047 1.60218,1.23047 1.60218,3.49914 0,1.75598 -0.82032,2.79419 -0.82031,1.03821 -2.40967,1.29456 1.9098,0.41015 2.96082,1.71753 1.06384,1.29455 1.06384,3.24279 0,2.56348 -1.74316,3.96058 -1.74316,1.39709 -4.96033,1.39709 h -6.87012 z"
         style="font-size:26.25px"
         id="path161" />
      <path
         d="m 912.92557,470.89966 h 12.09961 v 2.17895 h -9.5105 v 5.66529 h 9.11316 v 2.17895 h -9.11316 v 6.93421 h 9.74121 v 2.17895 h -12.33032 z"
         style="font-size:26.25px"
         id="path163" />
      <path
         d="m 929.51126,470.89966 h 2.58911 V 488.703 q 0,3.4607 -1.32019,5.02442 -1.30737,1.56372 -4.21692,1.56372 h -0.98694 v -2.17896 h 0.8075 q 1.71753,0 2.42248,-0.9613 0.70496,-0.9613 0.70496,-3.44788 z"
         style="font-size:26.25px"
         id="path165" />
      <path
         d="m 937.25296,470.89966 h 2.58911 v 19.13635 h -2.58911 z"
         style="font-size:26.25px"
         id="path167" />
      <path
         d="m 967.66861,472.37366 v 2.7301 q -1.30737,-1.21765 -2.79419,-1.82007 -1.474,-0.60242 -3.14026,-0.60242 -3.28125,0 -5.02441,2.01233 -1.74317,1.99952 -1.74317,5.79346 0,3.78113 1.74317,5.79346 1.74316,1.99951 5.02441,1.99951 1.66626,0 3.14026,-0.60242 1.48682,-0.60241 2.79419,-1.82007 v 2.70447 q -1.35864,0.92285 -2.88391,1.38428 -1.51245,0.46142 -3.20435,0.46142 -4.34509,0 -6.84448,-2.65319 -2.49939,-2.66602 -2.49939,-7.26746 0,-4.61426 2.49939,-7.26746 2.49939,-2.66601 6.84448,-2.66601 1.71753,0 3.22998,0.46142 1.52527,0.44861 2.85828,1.35865 z"
         style="font-size:26.25px"
         id="path169" />
      <path
         d="m 971.66763,470.89966 h 2.58911 v 7.84424 h 9.40796 v -7.84424 h 2.58911 v 19.13635 h -2.58911 v -9.11316 h -9.40796 v 9.11316 h -2.58911 z"
         style="font-size:26.25px"
         id="path171" />
      <path
         d="m 991.4064,470.89966 h 2.58911 v 19.13635 h -2.58911 z"
         style="font-size:26.25px"
         id="path173" />
      <path
         d="m 999.1481,470.89966 h 3.4863 l 8.4851,16.00891 v -16.00891 h 2.5122 v 19.13635 h -3.4863 l -8.4851,-16.00891 v 16.00891 h -2.5122 z"
         style="font-size:26.25px"
         id="path175" />
      <path
         d="m 1018.7843,470.89966 h 2.5891 v 19.13635 h -2.5891 z"
         style="font-size:26.25px"
         id="path177" />
      <path
         d="m 1032.2426,470.89966 h 2.7814 l 5.3064,7.86987 5.2679,-7.86987 h 2.7814 l -6.7676,10.02319 v 9.11316 h -2.6019 v -9.11316 z"
         style="font-size:26.25px"
         id="path179" />
      <path
         d="m 1055.2626,473.45032 -3.512,9.52331 h 7.0368 z m -1.4612,-2.55066 h 2.9352 l 7.2931,19.13635 h -2.6917 l -1.7431,-4.90906 h -8.6261 l -1.7432,4.90906 h -2.7301 z"
         style="font-size:26.25px"
         id="path181" />
      <path
         d="m 1075.168,470.89966 h 3.4863 l 8.4851,16.00891 v -16.00891 h 2.5122 v 19.13635 h -3.4863 l -8.4851,-16.00891 v 16.00891 h -2.5122 z"
         style="font-size:26.25px"
         id="path183" />
      <path
         d="m 1094.8042,470.89966 h 12.0996 v 2.17895 h -9.5105 v 5.66529 h 9.1132 v 2.17895 h -9.1132 v 6.93421 h 9.7413 v 2.17895 h -12.3304 z"
         style="font-size:26.25px"
         id="path185" />
      <path
         d="m 1111.3899,470.89966 h 3.4864 l 8.4851,16.00891 v -16.00891 h 2.5122 v 19.13635 h -3.4864 l -8.4851,-16.00891 v 16.00891 h -2.5122 z"
         style="font-size:26.25px"
         id="path187" />
      <path
         d="m 1138.7935,472.65564 q -2.8198,0 -4.4861,2.10205 -1.6534,2.10205 -1.6534,5.72937 0,3.6145 1.6534,5.71655 1.6663,2.10205 4.4861,2.10205 2.8198,0 4.4604,-2.10205 1.6535,-2.10205 1.6535,-5.71655 0,-3.62732 -1.6535,-5.72937 -1.6406,-2.10205 -4.4604,-2.10205 z m 0,-2.10205 q 4.0246,0 6.4343,2.70447 2.4097,2.69165 2.4097,7.229 0,4.52454 -2.4097,7.229 -2.4097,2.69165 -6.4343,2.69165 -4.0375,0 -6.46,-2.69165 -2.4096,-2.69165 -2.4096,-7.229 0,-4.53735 2.4096,-7.229 2.4225,-2.70447 6.46,-2.70447 z"
         style="font-size:26.25px"
         id="path189" />
      <path
         d="m 1162.1596,470.89966 v 7.11365 h -2.179 v -7.11365 z m 4.8449,0 v 7.11365 h -2.1789 v -7.11365 z"
         style="font-size:26.25px"
         id="path191" />
      <path
         d="m 1172.1059,470.89966 h 10.9973 v 2.17895 h -8.4082 v 5.63965 h 7.5879 v 2.17896 h -7.5879 v 9.13879 h -2.5891 z"
         style="font-size:26.25px"
         id="path193" />
      <path
         d="m 1185.9102,481.79443 h 6.9086 v 2.10205 h -6.9086 z"
         style="font-size:26.25px"
         id="path195" />
      <path
         d="m 1199.2659,473.02734 v 14.88099 h 3.1274 q 3.9606,0 5.7935,-1.79444 1.8457,-1.79443 1.8457,-5.66528 0,-3.84522 -1.8457,-5.62683 -1.8329,-1.79444 -5.7935,-1.79444 z m -2.5891,-2.12768 h 5.3192 q 5.5627,0 8.1647,2.31994 2.6019,2.30713 2.6019,7.22901 0,4.94751 -2.6147,7.26745 -2.6148,2.31995 -8.1519,2.31995 h -5.3192 z"
         style="font-size:26.25px"
         id="path197" />
      <path
         d="m 1225.9645,481.06384 q 0.8331,0.28199 1.615,1.20484 0.7947,0.92285 1.5894,2.53784 l 2.6275,5.22949 h -2.7814 l -2.4481,-4.90906 q -0.9485,-1.9226 -1.8457,-2.55066 -0.8844,-0.62805 -2.4225,-0.62805 h -2.8198 v 8.08777 h -2.5891 v -19.13635 h 5.8447 q 3.2813,0 4.8963,1.37146 1.615,1.37146 1.615,4.14001 0,1.80725 -0.846,2.99927 -0.8331,1.19202 -2.4353,1.65344 z m -6.4856,-8.0365 v 6.79322 h 3.2556 q 1.8714,0 2.8199,-0.85877 0.9613,-0.87158 0.9613,-2.55066 0,-1.67907 -0.9613,-2.52502 -0.9485,-0.85877 -2.8199,-0.85877 z"
         style="font-size:26.25px"
         id="path199" />
      <path
         d="m 1242.8963,472.65564 q -2.8199,0 -4.4861,2.10205 -1.6535,2.10205 -1.6535,5.72937 0,3.6145 1.6535,5.71655 1.6662,2.10205 4.4861,2.10205 2.8198,0 4.4604,-2.10205 1.6535,-2.10205 1.6535,-5.71655 0,-3.62732 -1.6535,-5.72937 -1.6406,-2.10205 -4.4604,-2.10205 z m 0,-2.10205 q 4.0246,0 6.4343,2.70447 2.4097,2.69165 2.4097,7.229 0,4.52454 -2.4097,7.229 -2.4097,2.69165 -6.4343,2.69165 -4.0375,0 -6.46,-2.69165 -2.4097,-2.69165 -2.4097,-7.229 0,-4.53735 2.4097,-7.229 2.4225,-2.70447 6.46,-2.70447 z"
         style="font-size:26.25px"
         id="path201" />
      <path
         d="m 1255.7906,470.89966 h 2.5891 v 19.13635 h -2.5891 z"
         style="font-size:26.25px"
         id="path203" />
      <path
         d="m 1266.1214,473.02734 v 14.88099 h 3.1274 q 3.9606,0 5.7935,-1.79444 1.8457,-1.79443 1.8457,-5.66528 0,-3.84522 -1.8457,-5.62683 -1.8329,-1.79444 -5.7935,-1.79444 z m -2.5891,-2.12768 h 5.3192 q 5.5627,0 8.1646,2.31994 2.602,2.30713 2.602,7.22901 0,4.94751 -2.6148,7.26745 -2.6147,2.31995 -8.1518,2.31995 h -5.3192 z"
         style="font-size:26.25px"
         id="path205" />
      <path
         d="m 1285.873,470.89966 v 7.11365 h -2.179 v -7.11365 z m 4.8449,0 v 7.11365 h -2.1789 v -7.11365 z"
         style="font-size:26.25px"
         id="path207" />
      <path
         d="m 1296.05,486.7804 h 2.7044 v 3.25561 h -2.7044 z"
         style="font-size:26.25px"
         id="path209" />
      <path
         d="m 1312.5075,470.89966 h 2.5891 v 19.13635 h -2.5891 z"
         style="font-size:26.25px"
         id="path211" />
      <path
         d="m 1318.5445,470.89966 h 2.6147 l 4.0247,16.17554 4.0118,-16.17554 h 2.9096 l 4.0246,16.17554 4.0119,-16.17554 h 2.6275 l -4.8065,19.13635 h -3.2556 l -4.0375,-16.61133 -4.0759,16.61133 h -3.2556 z"
         style="font-size:26.25px"
         id="path213" />
      <path
         d="m 1351.1647,473.45032 -3.512,9.52331 h 7.0368 z m -1.4612,-2.55066 h 2.9352 l 7.2931,19.13635 h -2.6917 l -1.7431,-4.90906 h -8.6261 l -1.7432,4.90906 h -2.7301 z"
         style="font-size:26.25px"
         id="path215" />
      <path
         d="m 1376.5944,472.37366 v 2.7301 q -1.3074,-1.21765 -2.7942,-1.82007 -1.474,-0.60242 -3.1403,-0.60242 -3.2812,0 -5.0244,2.01233 -1.7431,1.99952 -1.7431,5.79346 0,3.78113 1.7431,5.79346 1.7432,1.99951 5.0244,1.99951 1.6663,0 3.1403,-0.60242 1.4868,-0.60241 2.7942,-1.82007 v 2.70447 q -1.3587,0.92285 -2.8839,1.38428 -1.5125,0.46142 -3.2044,0.46142 -4.3451,0 -6.8444,-2.65319 -2.4994,-2.66602 -2.4994,-7.26746 0,-4.61426 2.4994,-7.26746 2.4993,-2.66601 6.8444,-2.66601 1.7176,0 3.23,0.46142 1.5253,0.44861 2.8583,1.35865 z"
         style="font-size:26.25px"
         id="path217" />
      <path
         d="m 1380.5934,470.89966 h 2.5891 v 7.84424 h 9.408 v -7.84424 h 2.5891 v 19.13635 h -2.5891 v -9.11316 h -9.408 v 9.11316 h -2.5891 z"
         style="font-size:26.25px"
         id="path219" />
      <path
         d="m 1400.3322,470.89966 h 12.0996 v 2.17895 h -9.5105 v 5.66529 h 9.1132 v 2.17895 h -9.1132 v 6.93421 h 9.7412 v 2.17895 h -12.3303 z"
         style="font-size:26.25px"
         id="path221" />
      <path
         d="m 1427.8511,480.89722 v 7.01111 h 4.1528 q 2.0893,0 3.089,-0.85877 1.0126,-0.87158 1.0126,-2.6532 0,-1.79443 -1.0126,-2.64038 -0.9997,-0.85876 -3.089,-0.85876 z m 0,-7.86988 v 5.76783 h 3.8324 q 1.897,0 2.8198,-0.70496 0.9357,-0.71777 0.9357,-2.17896 0,-1.44836 -0.9357,-2.16613 -0.9228,-0.71778 -2.8198,-0.71778 z m -2.5891,-2.12768 h 6.6138 q 2.9608,0 4.563,1.23047 1.6021,1.23047 1.6021,3.49914 0,1.75598 -0.8203,2.79419 -0.8203,1.03821 -2.4097,1.29456 1.9098,0.41015 2.9609,1.71753 1.0638,1.29455 1.0638,3.24279 0,2.56348 -1.7432,3.96058 -1.7431,1.39709 -4.9603,1.39709 h -6.8701 z"
         style="font-size:26.25px"
         id="path223" />
      <path
         d="m 1443.2704,470.89966 h 2.5891 v 19.13635 h -2.5891 z"
         style="font-size:26.25px"
         id="path225" />
      <path
         d="m 1451.0121,470.89966 h 2.5891 v 16.9574 h 9.3183 v 2.17895 h -11.9074 z"
         style="font-size:26.25px"
         id="path227" />
      <path
         d="m 1472.635,473.45032 -3.5119,9.52331 h 7.0367 z m -1.4611,-2.55066 h 2.9351 l 7.2931,19.13635 h -2.6916 l -1.7432,-4.90906 h -8.6261 l -1.7431,4.90906 h -2.7301 z"
         style="font-size:26.25px"
         id="path229" />
      <path
         d="m 1489.8872,470.89966 h 16.1884 v 2.17895 h -6.7932 v 16.9574 h -2.6019 v -16.9574 h -6.7933 z"
         style="font-size:26.25px"
         id="path231" />
      <path
         d="m 1512.9329,473.45032 -3.512,9.52331 h 7.0368 z m -1.4612,-2.55066 h 2.9352 l 7.2931,19.13635 h -2.6917 l -1.7431,-4.90906 h -8.6261 l -1.7432,4.90906 h -2.7301 z"
         style="font-size:26.25px"
         id="path233" />
      <path
         d="m 1524.4942,470.89966 h 10.9973 v 2.17895 h -8.4082 v 5.63965 h 7.5879 v 2.17896 h -7.5879 v 9.13879 h -2.5891 z"
         style="font-size:26.25px"
         id="path235" />
      <path
         d="m 1550.6032,471.52771 v 2.52502 q -1.474,-0.70495 -2.7814,-1.05102 -1.3074,-0.34607 -2.525,-0.34607 -2.1149,0 -3.2684,0.82031 -1.1408,0.82031 -1.1408,2.33277 0,1.26892 0.7562,1.9226 0.7691,0.64087 2.8968,1.03821 l 1.5637,0.32044 q 2.8967,0.55114 4.2682,1.94824 1.3842,1.38428 1.3842,3.71704 0,2.78137 -1.8713,4.21692 -1.8585,1.43554 -5.4602,1.43554 -1.3586,0 -2.8967,-0.30761 -1.5253,-0.30762 -3.1659,-0.91004 v -2.66601 q 1.5765,0.8844 3.089,1.33301 1.5124,0.4486 2.9736,0.4486 2.2174,0 3.4222,-0.87158 1.2049,-0.87158 1.2049,-2.48657 0,-1.40991 -0.8716,-2.20459 -0.8588,-0.79468 -2.8326,-1.19202 l -1.5766,-0.30761 q -2.8967,-0.57679 -4.1913,-1.80725 -1.2945,-1.23047 -1.2945,-3.42225 0,-2.53784 1.7816,-3.99902 1.7944,-1.46118 4.9347,-1.46118 1.3458,0 2.7429,0.24353 1.3971,0.24353 2.8583,0.73059 z"
         style="font-size:26.25px"
         id="path237" />
      <path
         d="m 1555.7942,470.89966 h 2.5891 v 19.13635 h -2.5891 z"
         style="font-size:26.25px"
         id="path239" />
      <path
         d="m 1572.6106,481.06384 q 0.8332,0.28199 1.615,1.20484 0.7947,0.92285 1.5894,2.53784 l 2.6275,5.22949 h -2.7813 l -2.4482,-4.90906 q -0.9484,-1.9226 -1.8457,-2.55066 -0.8844,-0.62805 -2.4224,-0.62805 h -2.8199 v 8.08777 h -2.5891 v -19.13635 h 5.8447 q 3.2813,0 4.8963,1.37146 1.615,1.37146 1.615,4.14001 0,1.80725 -0.846,2.99927 -0.8331,1.19202 -2.4353,1.65344 z m -6.4856,-8.0365 v 6.79322 h 3.2556 q 1.8714,0 2.8199,-0.85877 0.9613,-0.87158 0.9613,-2.55066 0,-1.67907 -0.9613,-2.52502 -0.9485,-0.85877 -2.8199,-0.85877 z"
         style="font-size:26.25px"
         id="path241" />
      <path
         d="m 1581.7751,470.89966 h 2.5891 v 19.13635 h -2.5891 z"
         style="font-size:26.25px"
         id="path243" />
      <path
         d="m 1604.2567,473.45032 -3.5119,9.52331 h 7.0367 z m -1.4611,-2.55066 h 2.9351 l 7.2931,19.13635 h -2.6916 l -1.7432,-4.90906 h -8.6261 l -1.7431,4.90906 h -2.7301 z"
         style="font-size:26.25px"
         id="path245" />
      <path
         d="m 1615.5232,470.89966 h 2.602 v 11.62536 q 0,3.07618 1.1151,4.43482 1.1151,1.34582 3.6145,1.34582 2.4865,0 3.6017,-1.34582 1.1151,-1.35864 1.1151,-4.43482 v -11.62536 h 2.6019 v 11.9458 q 0,3.74267 -1.8585,5.65246 -1.8457,1.90979 -5.4602,1.90979 -3.6274,0 -5.4859,-1.90979 -1.8457,-1.90979 -1.8457,-5.65246 z"
         style="font-size:26.25px"
         id="path247" />
      <path
         d="m 1651.1427,472.65564 q -2.8198,0 -4.4861,2.10205 -1.6534,2.10205 -1.6534,5.72937 0,3.6145 1.6534,5.71655 1.6663,2.10205 4.4861,2.10205 2.8199,0 4.4605,-2.10205 1.6534,-2.10205 1.6534,-5.71655 0,-3.62732 -1.6534,-5.72937 -1.6406,-2.10205 -4.4605,-2.10205 z m 0,-2.10205 q 4.0247,0 6.4344,2.70447 2.4096,2.69165 2.4096,7.229 0,4.52454 -2.4096,7.229 -2.4097,2.69165 -6.4344,2.69165 -4.0374,0 -6.4599,-2.69165 -2.4097,-2.69165 -2.4097,-7.229 0,-4.53735 2.4097,-7.229 2.4225,-2.70447 6.4599,-2.70447 z"
         style="font-size:26.25px"
         id="path249" />
      <path
         d="m 1664.037,470.89966 h 3.4863 l 8.4852,16.00891 v -16.00891 h 2.5122 v 19.13635 h -3.4864 l -8.4851,-16.00891 v 16.00891 h -2.5122 z"
         style="font-size:26.25px"
         id="path251" />
      <path
         d="m 1696.7213,487.30591 v -5.13977 h -4.2297 v -2.12769 h 6.7932 v 8.21594 q -1.4996,1.06385 -3.3069,1.61499 -1.8072,0.53833 -3.858,0.53833 -4.4861,0 -7.0239,-2.61474 -2.525,-2.62756 -2.525,-7.30591 0,-4.69116 2.525,-7.30591 2.5378,-2.62756 7.0239,-2.62756 1.8713,0 3.5504,0.46142 1.6919,0.46143 3.1146,1.35865 v 2.75573 q -1.4355,-1.21765 -3.0505,-1.83288 -1.615,-0.61524 -3.3966,-0.61524 -3.512,0 -5.2808,1.96106 -1.7559,1.96106 -1.7559,5.84473 0,3.87085 1.7559,5.83191 1.7688,1.96106 5.2808,1.96106 1.3715,0 2.4481,-0.23071 1.0767,-0.24353 1.9354,-0.74341 z"
         style="font-size:26.25px"
         id="path253" />
      <path
         d="m 1704.0144,470.89966 h 12.0996 v 2.17895 h -9.5105 v 5.66529 h 9.1132 v 2.17895 h -9.1132 v 6.93421 h 9.7413 v 2.17895 h -12.3304 z"
         style="font-size:26.25px"
         id="path255" />
      <path
         d="m 1719.4978,470.89966 h 15.0348 v 1.97388 l -12.0996,14.98352 h 12.3944 v 2.17895 h -15.6244 v -1.97388 l 12.0996,-14.98352 h -11.8048 z"
         style="font-size:26.25px"
         id="path257" />
      <path
         d="m 1744.9788,473.45032 -3.512,9.52331 h 7.0368 z m -1.4612,-2.55066 h 2.9352 l 7.2931,19.13635 h -2.6917 l -1.7431,-4.90906 h -8.6261 l -1.7432,4.90906 h -2.7301 z"
         style="font-size:26.25px"
         id="path259" />
      <path
         d="m 1764.8842,470.89966 h 3.4863 l 8.4851,16.00891 v -16.00891 h 2.5122 v 19.13635 h -3.4863 l -8.4851,-16.00891 v 16.00891 h -2.5122 z"
         style="font-size:26.25px"
         id="path261" />
      <path
         d="m 1790.9163,473.45032 -3.512,9.52331 h 7.0368 z m -1.4612,-2.55066 h 2.9352 l 7.2931,19.13635 h -2.6917 l -1.7431,-4.90906 h -8.6261 l -1.7432,4.90906 h -2.7301 z"
         style="font-size:26.25px"
         id="path263" />
      <path
         d="m 1802.4776,470.89966 h 10.9973 v 2.17895 h -8.4082 v 5.63965 h 7.5879 v 2.17896 h -7.5879 v 9.13879 h -2.5891 z"
         style="font-size:26.25px"
         id="path265" />
      <path
         d="m 1821.5627,473.45032 -3.512,9.52331 h 7.0367 z m -1.4612,-2.55066 h 2.9352 l 7.293,19.13635 h -2.6916 l -1.7432,-4.90906 h -8.6261 l -1.7431,4.90906 h -2.7301 z"
         style="font-size:26.25px"
         id="path267" />
      <path
         d="m 1844.5955,471.52771 v 2.52502 q -1.474,-0.70495 -2.7814,-1.05102 -1.3074,-0.34607 -2.525,-0.34607 -2.1149,0 -3.2684,0.82031 -1.1408,0.82031 -1.1408,2.33277 0,1.26892 0.7562,1.9226 0.7691,0.64087 2.8968,1.03821 l 1.5637,0.32044 q 2.8967,0.55114 4.2682,1.94824 1.3843,1.38428 1.3843,3.71704 0,2.78137 -1.8714,4.21692 -1.8585,1.43554 -5.4602,1.43554 -1.3586,0 -2.8967,-0.30761 -1.5253,-0.30762 -3.1659,-0.91004 v -2.66601 q 1.5765,0.8844 3.089,1.33301 1.5124,0.4486 2.9736,0.4486 2.2174,0 3.4223,-0.87158 1.2048,-0.87158 1.2048,-2.48657 0,-1.40991 -0.8716,-2.20459 -0.8588,-0.79468 -2.8326,-1.19202 l -1.5766,-0.30761 q -2.8967,-0.57679 -4.1913,-1.80725 -1.2945,-1.23047 -1.2945,-3.42225 0,-2.53784 1.7816,-3.99902 1.7944,-1.46118 4.9347,-1.46118 1.3458,0 2.7429,0.24353 1.3971,0.24353 2.8583,0.73059 z"
         style="font-size:26.25px"
         id="path269" />
      <path
         d="m 1849.7865,470.89966 h 2.5891 v 19.13635 h -2.5891 z"
         style="font-size:26.25px"
         id="path271" />
      <path
         d="m 1865.8723,470.89966 h 2.5892 v 19.13635 h -2.5892 z"
         style="font-size:26.25px"
         id="path273" />
      <path
         d="m 1873.614,470.89966 h 2.5892 v 8.08777 l 8.5876,-8.08777 h 3.3325 l -9.4977,8.9209 10.177,10.21545 h -3.4094 l -9.19,-9.2157 v 9.2157 h -2.5892 z"
         style="font-size:26.25px"
         id="path275" />
      <path
         d="m 1890.8278,470.89966 h 2.5891 v 19.13635 h -2.5891 z"
         style="font-size:26.25px"
         id="path277" />
      <path
         d="m 1896.8648,470.89966 h 2.6147 l 4.0247,16.17554 4.0118,-16.17554 h 2.9096 l 4.0246,16.17554 4.0119,-16.17554 h 2.6275 l -4.8065,19.13635 h -3.2556 l -4.0375,-16.61133 -4.0759,16.61133 h -3.2556 z"
         style="font-size:26.25px"
         id="path279" />
      <path
         d="m 1929.485,473.45032 -3.5119,9.52331 h 7.0367 z m -1.4612,-2.55066 h 2.9352 l 7.2931,19.13635 h -2.6916 l -1.7432,-4.90906 h -8.6261 l -1.7432,4.90906 h -2.7301 z"
         style="font-size:26.25px"
         id="path281" />
      <path
         d="m 1949.3904,470.89966 h 2.5891 v 7.84424 h 9.408 v -7.84424 h 2.5891 v 19.13635 h -2.5891 v -9.11316 h -9.408 v 9.11316 h -2.5891 z"
         style="font-size:26.25px"
         id="path283" />
      <path
         d="m 1975.5251,473.45032 -3.512,9.52331 h 7.0367 z m -1.4612,-2.55066 h 2.9352 l 7.293,19.13635 h -2.6916 l -1.7432,-4.90906 h -8.6261 l -1.7431,4.90906 h -2.7301 z"
         style="font-size:26.25px"
         id="path285" />
      <path
         d="m 1987.0863,470.89966 h 2.5891 v 8.08777 l 8.5877,-8.08777 h 3.3325 l -9.4977,8.9209 10.177,10.21545 h -3.4094 l -9.1901,-9.2157 v 9.2157 h -2.5891 z"
         style="font-size:26.25px"
         id="path287" />
      <path
         d="m 2003.3003,470.89966 h 2.602 v 11.62536 q 0,3.07618 1.1151,4.43482 1.1151,1.34582 3.6145,1.34582 2.4865,0 3.6017,-1.34582 1.1151,-1.35864 1.1151,-4.43482 v -11.62536 h 2.6019 v 11.9458 q 0,3.74267 -1.8585,5.65246 -1.8457,1.90979 -5.4602,1.90979 -3.6274,0 -5.4859,-1.90979 -1.8457,-1.90979 -1.8457,-5.65246 z"
         style="font-size:26.25px"
         id="path289" />
      <path
         d="m 2022.8084,470.89966 h 3.4863 l 8.4851,16.00891 v -16.00891 h 2.5122 v 19.13635 h -3.4863 l -8.4851,-16.00891 v 16.00891 h -2.5122 z"
         style="font-size:26.25px"
         id="path291" />
      <path
         d="m 2048.8405,473.45032 -3.512,9.52331 h 7.0368 z m -1.4612,-2.55066 h 2.9352 l 7.2931,19.13635 h -2.6917 l -1.7431,-4.90906 h -8.6261 l -1.7432,4.90906 h -2.7301 z"
         style="font-size:26.25px"
         id="path293" />
      <path
         d="m 2068.7459,470.89966 h 3.4863 l 8.4851,16.00891 v -16.00891 h 2.5122 v 19.13635 h -3.4863 l -8.4851,-16.00891 v 16.00891 h -2.5122 z"
         style="font-size:26.25px"
         id="path295" />
      <path
         d="m 2088.3821,470.89966 h 12.0996 v 2.17895 h -9.5105 v 5.66529 h 9.1132 v 2.17895 h -9.1132 v 6.93421 h 9.7412 v 2.17895 h -12.3303 z"
         style="font-size:26.25px"
         id="path297" />
      <path
         d="m 2104.9678,470.89966 h 3.4863 l 8.4851,16.00891 v -16.00891 h 2.5122 v 19.13635 h -3.4863 L 2107.48,474.0271 v 16.00891 h -2.5122 z"
         style="font-size:26.25px"
         id="path299" />
      <path
         d="m 2132.3714,472.65564 q -2.8199,0 -4.4861,2.10205 -1.6535,2.10205 -1.6535,5.72937 0,3.6145 1.6535,5.71655 1.6662,2.10205 4.4861,2.10205 2.8198,0 4.4604,-2.10205 1.6535,-2.10205 1.6535,-5.71655 0,-3.62732 -1.6535,-5.72937 -1.6406,-2.10205 -4.4604,-2.10205 z m 0,-2.10205 q 4.0246,0 6.4343,2.70447 2.4097,2.69165 2.4097,7.229 0,4.52454 -2.4097,7.229 -2.4097,2.69165 -6.4343,2.69165 -4.0375,0 -6.46,-2.69165 -2.4097,-2.69165 -2.4097,-7.229 0,-4.53735 2.4097,-7.229 2.4225,-2.70447 6.46,-2.70447 z"
         style="font-size:26.25px"
         id="path301" />
      <path
         d="m 2153.6098,470.89966 h 2.5891 v 16.9574 h 9.3182 v 2.17895 h -11.9073 z"
         style="font-size:26.25px"
         id="path303" />
      <path
         d="m 2168.2344,470.89966 h 2.5891 v 19.13635 h -2.5891 z"
         style="font-size:26.25px"
         id="path305" />
      <path
         d="m 2175.9761,470.89966 h 3.4863 l 8.4851,16.00891 v -16.00891 h 2.5122 v 19.13635 h -3.4863 l -8.4851,-16.00891 v 16.00891 h -2.5122 z"
         style="font-size:26.25px"
         id="path307" />
      <path
         d="m 2202.0082,473.45032 -3.512,9.52331 h 7.0368 z m -1.4612,-2.55066 h 2.9352 l 7.2931,19.13635 h -2.6917 l -1.7431,-4.90906 h -8.6261 l -1.7432,4.90906 h -2.7301 z"
         style="font-size:26.25px"
         id="path309" />
      <path
         d="m 2213.5695,470.89966 h 2.5891 v 7.84424 h 9.408 v -7.84424 h 2.5891 v 19.13635 h -2.5891 v -9.11316 h -9.408 v 9.11316 h -2.5891 z"
         style="font-size:26.25px"
         id="path311" />
      <path
         d="m 2233.3083,470.89966 h 2.5891 v 19.13635 h -2.5891 z"
         style="font-size:26.25px"
         id="path313" />
      <path
         d="m 2238.3968,470.89966 h 16.1883 v 2.17895 h -6.7932 v 16.9574 h -2.6019 v -16.9574 h -6.7932 z"
         style="font-size:26.25px"
         id="path315" />
      <path
         d="m 2261.4424,473.45032 -3.5119,9.52331 h 7.0367 z m -1.4612,-2.55066 h 2.9352 l 7.2931,19.13635 h -2.6916 l -1.7432,-4.90906 h -8.6261 l -1.7432,4.90906 h -2.7301 z"
         style="font-size:26.25px"
         id="path317" />
      <path
         d="m 2273.0037,470.89966 h 2.5891 V 488.703 q 0,3.4607 -1.3202,5.02442 -1.3074,1.56372 -4.2169,1.56372 h -0.9869 v -2.17896 h 0.8075 q 1.7175,0 2.4224,-0.9613 0.705,-0.9613 0.705,-3.44788 z"
         style="font-size:26.25px"
         id="path319" />
      <path
         d="m 2280.7454,470.89966 h 2.5891 v 19.13635 h -2.5891 z"
         style="font-size:26.25px"
         id="path321" />
      <path
         d="m 2296.8312,470.89966 h 2.5891 v 8.08777 l 8.5877,-8.08777 h 3.3325 l -9.4977,8.9209 10.177,10.21545 h -3.4094 l -9.1901,-9.2157 v 9.2157 h -2.5891 z"
         style="font-size:26.25px"
         id="path323" />
      <path
         d="m 2313.0452,470.89966 h 2.6019 v 11.62536 q 0,3.07618 1.1151,4.43482 1.1151,1.34582 3.6145,1.34582 2.4866,0 3.6017,-1.34582 1.1151,-1.35864 1.1151,-4.43482 v -11.62536 h 2.602 v 11.9458 q 0,3.74267 -1.8586,5.65246 -1.8457,1.90979 -5.4602,1.90979 -3.6273,0 -5.4858,-1.90979 -1.8457,-1.90979 -1.8457,-5.65246 z"
         style="font-size:26.25px"
         id="path325" />
      <path
         d="m 2340.3206,472.65564 q -2.8198,0 -4.4861,2.10205 -1.6534,2.10205 -1.6534,5.72937 0,3.6145 1.6534,5.71655 1.6663,2.10205 4.4861,2.10205 2.8198,0 4.4604,-2.10205 1.6535,-2.10205 1.6535,-5.71655 0,-3.62732 -1.6535,-5.72937 -1.6406,-2.10205 -4.4604,-2.10205 z m 0,-2.10205 q 4.0246,0 6.4343,2.70447 2.4097,2.69165 2.4097,7.229 0,4.52454 -2.4097,7.229 -2.4097,2.69165 -6.4343,2.69165 -4.0375,0 -6.46,-2.69165 -2.4096,-2.69165 -2.4096,-7.229 0,-4.53735 2.4096,-7.229 2.4225,-2.70447 6.46,-2.70447 z"
         style="font-size:26.25px"
         id="path327" />
      <path
         d="m 2353.2149,470.89966 h 3.4863 l 8.4851,16.00891 v -16.00891 h 2.5122 v 19.13635 h -3.4863 l -8.4851,-16.00891 v 16.00891 h -2.5122 z"
         style="font-size:26.25px"
         id="path329" />
      <path
         d="m 2385.8992,487.30591 v -5.13977 h -4.2297 v -2.12769 h 6.7932 v 8.21594 q -1.4997,1.06385 -3.3069,1.61499 -1.8073,0.53833 -3.858,0.53833 -4.4861,0 -7.024,-2.61474 -2.525,-2.62756 -2.525,-7.30591 0,-4.69116 2.525,-7.30591 2.5379,-2.62756 7.024,-2.62756 1.8713,0 3.5504,0.46142 1.6919,0.46143 3.1146,1.35865 v 2.75573 q -1.4355,-1.21765 -3.0505,-1.83288 -1.615,-0.61524 -3.3966,-0.61524 -3.512,0 -5.2808,1.96106 -1.756,1.96106 -1.756,5.84473 0,3.87085 1.756,5.83191 1.7688,1.96106 5.2808,1.96106 1.3714,0 2.4481,-0.23071 1.0766,-0.24353 1.9354,-0.74341 z"
         style="font-size:26.25px"
         id="path331" />
      <path
         d="m 2393.1923,470.89966 h 12.0996 v 2.17895 h -9.5105 v 5.66529 h 9.1132 v 2.17895 h -9.1132 v 6.93421 h 9.7412 v 2.17895 h -12.3303 z"
         style="font-size:26.25px"
         id="path333" />
      <path
         d="m 2408.6757,470.89966 h 15.0348 v 1.97388 l -12.0996,14.98352 h 12.3944 v 2.17895 h -15.6244 v -1.97388 l 12.0996,-14.98352 h -11.8048 z"
         style="font-size:26.25px"
         id="path335" />
      <path
         d="m 2426.0561,470.89966 h 2.6147 l 4.0247,16.17554 4.0118,-16.17554 h 2.9096 l 4.0246,16.17554 4.0119,-16.17554 h 2.6275 l -4.8065,19.13635 h -3.2556 l -4.0375,-16.61133 -4.0759,16.61133 h -3.2556 z"
         style="font-size:26.25px"
         id="path337" />
      <path
         d="m 2458.6763,473.45032 -3.512,9.52331 h 7.0368 z m -1.4612,-2.55066 h 2.9352 l 7.2931,19.13635 h -2.6917 l -1.7431,-4.90906 h -8.6261 l -1.7432,4.90906 h -2.7301 z"
         style="font-size:26.25px"
         id="path339" />
      <path
         d="m 2478.5817,470.89966 h 2.5891 v 7.84424 h 9.408 v -7.84424 h 2.5891 v 19.13635 h -2.5891 v -9.11316 h -9.408 v 9.11316 h -2.5891 z"
         style="font-size:26.25px"
         id="path341" />
      <path
         d="m 2504.7163,473.45032 -3.5119,9.52331 h 7.0367 z m -1.4611,-2.55066 h 2.9351 l 7.2931,19.13635 h -2.6916 l -1.7432,-4.90906 h -8.6261 l -1.7431,4.90906 h -2.7302 z"
         style="font-size:26.25px"
         id="path343" />
      <path
         d="m 2518.8667,473.02734 v 7.19056 h 3.2556 q 1.8073,0 2.7942,-0.93567 0.987,-0.93567 0.987,-2.66602 0,-1.71753 -0.987,-2.6532 -0.9869,-0.93567 -2.7942,-0.93567 z m -2.5891,-2.12768 h 5.8447 q 3.2172,0 4.8578,1.46118 1.6535,1.44836 1.6535,4.25537 0,2.83264 -1.6535,4.28101 -1.6406,1.44836 -4.8578,1.44836 h -3.2556 v 7.69043 h -2.5891 z"
         style="font-size:26.25px"
         id="path345" />
      <path
         d="m 2536.8239,473.45032 -3.512,9.52331 h 7.0368 z m -1.4612,-2.55066 h 2.9352 l 7.2931,19.13635 h -2.6917 l -1.7431,-4.90906 h -8.6261 l -1.7432,4.90906 h -2.7301 z"
         style="font-size:26.25px"
         id="path347" />
    </g>
    <g
       aria-label="F-Droid"
       id="text78"
       style="font-weight:700;font-size:29.7088px;line-height:100%;font-family:Rokkitt;-inkscape-font-specification:'Rokkitt Bold';letter-spacing:0;word-spacing:0;display:inline;overflow:visible;fill:#ffffff;stroke-width:1px;marker:none">
      <path
         d="m 510.40051,457.11905 v 6.83594 h 23.55469 v -6.83594 l -6.09375,-1.17188 v -15.625 h 19.92188 v -8.78906 h -19.92188 v -15.66406 h 18.55469 l 0.50781,6.79687 h 8.75 v -15.58593 h -45.27344 v 6.875 l 6.05469,1.17187 v 40.82031 z"
         style="font-size:80px;line-height:100%;font-family:'Roboto Slab';-inkscape-font-specification:'Roboto Slab Bold'"
         id="path350" />
      <path
         d="m 584.77551,444.03311 v -8.78906 h -22.03125 v 8.78906 z"
         style="font-size:80px;line-height:100%;font-family:'Roboto Slab';-inkscape-font-specification:'Roboto Slab Bold'"
         id="path352" />
      <path
         d="m 617.23645,407.07999 h -25.58594 v 6.875 l 6.05469,1.17187 v 40.82031 l -6.05469,1.17188 v 6.83594 h 25.58594 c 13.90625,0 23.94531,-9.76563 23.94531,-23.71094 v -9.41406 c 0,-13.90625 -10.03906,-23.75 -23.94531,-23.75 z m -8.125,8.78906 h 7.53906 c 8.16407,0 13.08594,6.09375 13.08594,14.88281 v 9.49219 c 0,8.90625 -4.92187,14.96094 -13.08594,14.96094 h -7.53906 z"
         style="font-size:80px;line-height:100%;font-family:'Roboto Slab';-inkscape-font-specification:'Roboto Slab Bold'"
         id="path354" />
      <path
         d="m 647.90051,457.11905 v 6.83594 h 22.34375 v -6.83594 l -5.46875,-1.17188 v -20.70312 c 1.25,-2.38281 3.28125,-3.63281 6.64063,-3.47656 l 5.625,0.27343 1.21094,-10.50781 c -1.09375,-0.39062 -2.89063,-0.625 -4.49219,-0.625 -4.10156,0 -7.26563,2.57813 -9.25781,6.95313 l -0.0781,-0.9375 -0.42969,-5.23438 h -16.67968 v 6.875 l 6.05468,1.17188 v 26.21093 z"
         style="font-size:80px;line-height:100%;font-family:'Roboto Slab';-inkscape-font-specification:'Roboto Slab Bold'"
         id="path356" />
      <path
         d="m 680.86926,442.43155 v 0.82031 c 0,12.69531 7.46094,21.52344 20,21.52344 12.38282,0 19.88282,-8.82813 19.88282,-21.52344 v -0.82031 c 0,-12.65625 -7.46094,-21.52344 -19.96094,-21.52344 -12.46094,0 -19.92188,8.90625 -19.92188,21.52344 z m 11.40625,0.82031 v -0.82031 c 0,-7.5 2.57813,-12.73438 8.51563,-12.73438 5.9375,0 8.59375,5.23438 8.59375,12.73438 v 0.82031 c 0,7.65625 -2.61719,12.77344 -8.51563,12.77344 -6.05468,0 -8.59375,-5.07813 -8.59375,-12.77344 z"
         style="font-size:80px;line-height:100%;font-family:'Roboto Slab';-inkscape-font-specification:'Roboto Slab Bold'"
         id="path358" />
      <path
         d="m 742.27551,412.74405 v -9.72656 h -11.79687 v 9.72656 z m -16.91406,44.375 v 6.83594 h 22.38281 v -6.83594 l -5.46875,-1.17188 v -34.25781 h -17.5 v 6.875 l 6.09375,1.17188 v 26.21093 z"
         style="font-size:80px;line-height:100%;font-family:'Roboto Slab';-inkscape-font-specification:'Roboto Slab Bold'"
         id="path360" />
      <path
         d="m 778.99426,458.79874 0.85938,5.15625 h 15.35156 v -6.83594 l -5.46875,-1.17188 v -52.92968 h -17.5 v 6.875 l 6.09375,1.17187 v 15.15625 c -2.53906,-3.39844 -5.9375,-5.3125 -10.15625,-5.3125 -10.46875,0 -16.52344,8.94531 -16.52344,22.26563 v 0.82031 c 0,12.5 6.01563,20.78125 16.44532,20.78125 4.64843,0 8.24218,-2.07031 10.89843,-5.97656 z m -15.9375,-14.80469 v -0.82031 c 0,-7.96875 2.42188,-13.39844 8.00782,-13.39844 3.28125,0 5.70312,1.5625 7.26562,4.25781 v 17.92969 c -1.5625,2.53906 -4.02344,3.94531 -7.34375,3.94531 -5.625,0 -7.92969,-4.53125 -7.92969,-11.91406 z"
         style="font-size:80px;line-height:100%;font-family:'Roboto Slab';-inkscape-font-specification:'Roboto Slab Bold'"
         id="path362" />
    </g>
  </g>
</svg>
