<?xml version="1.0" encoding="UTF-8" standalone="no"?>
<svg
   width="565"
   height="180"
   version="1.1"
   id="svg78"
   sodipodi:docname="get-it-on-km.svg"
   xmlns:inkscape="http://www.inkscape.org/namespaces/inkscape"
   xmlns:sodipodi="http://sodipodi.sourceforge.net/DTD/sodipodi-0.dtd"
   xmlns:xlink="http://www.w3.org/1999/xlink"
   xmlns="http://www.w3.org/2000/svg"
   xmlns:svg="http://www.w3.org/2000/svg">
  <sodipodi:namedview
     id="namedview80"
     pagecolor="#ffffff"
     bordercolor="#000000"
     borderopacity="0.25"
     inkscape:showpageshadow="2"
     inkscape:pageopacity="0.0"
     inkscape:pagecheckerboard="0"
     inkscape:deskcolor="#d1d1d1" />
  <defs
     id="defs8">
    <radialGradient
       xlink:href="#a"
       id="b"
       cx="113"
       cy="-12.89"
       r="59.662"
       fx="113"
       fy="-12.89"
       gradientTransform="matrix(0 1.96105 -1.97781 0 254.507 78.763)"
       gradientUnits="userSpaceOnUse" />
    <linearGradient
       id="a">
      <stop
         offset="0"
         style="stop-color:#fff;stop-opacity:.09803922"
         id="stop3" />
      <stop
         offset="1"
         style="stop-color:#fff;stop-opacity:0"
         id="stop5" />
    </linearGradient>
  </defs>
  <g
     transform="translate(-329,-347.362)"
     id="g76">
    <path
       id="rect10"
       style="display:inline;overflow:visible;stroke:#a6a6a6;stroke-width:4;marker:none"
       d="m 352,349.362 h 520 c 11.08,0 20,8.92 20,20 v 136 c 0,11.08 -8.92,20 -20,20 H 352 c -11.08,0 -20,-8.92 -20,-20 v -136 c 0,-11.08 8.92,-20 20,-20 z" />
    <g
       aria-label="ទាញយកវានៅលើ"
       id="text14"
       style="font-size:12.3952px;line-height:100%;font-family:'DejaVu Sans';-inkscape-font-specification:'DejaVu Sans';letter-spacing:0;word-spacing:0;display:inline;overflow:visible;fill:#ffffff;stroke-width:1px;marker:none">
      <path
         d="m 519.05199,402.367 q -6.552,0 -6.552,-5.39175 v -2.5935 h 3.1395 v 2.5935 q 0,3.10538 3.4125,3.10538 3.44662,0 3.44662,-3.10538 v -2.62762 q -3.822,-0.58013 -6.21075,-1.365 -2.38875,-0.819 -3.51487,-2.08163 -1.092,-1.26262 -1.092,-3.1395 0,-1.53562 0.71662,-2.76412 0.71663,-1.2285 2.35463,-1.911 1.638,-0.71663 4.40212,-0.71663 2.79825,0 4.43625,0.71663 1.638,0.71662 2.35463,1.87687 0.71662,1.12613 0.71662,2.457 v 0.819 h -3.1395 v -0.819 q 0,-1.19437 -0.98962,-1.97925 -0.9555,-0.78487 -3.37838,-0.78487 -2.38875,0 -3.37837,0.78487 -0.98963,0.78488 -0.98963,2.3205 0,1.87688 1.84275,2.79825 1.84275,0.88725 6.006,1.46738 0.4095,-1.365 1.94513,-1.365 0.9555,0 1.5015,0.61425 0.58012,0.61425 0.58012,1.33087 0,0.75075 -0.34125,1.26263 -0.30712,0.47775 -0.6825,0.64837 v 2.457 q 0,5.39175 -6.58612,5.39175 z m 14.77612,0 v -15.62925 q 0,-1.19437 -0.546,-1.638 -0.51187,-0.44362 -2.11575,-0.44362 h -4.70925 v -2.28638 h 6.279 q 1.74038,0 2.62763,0.51188 0.92137,0.47775 1.26262,1.43325 0.34125,0.9555 0.34125,2.42287 V 402.367 Z"
         style="font-size:34.125px"
         id="path83" />
      <path
         d="m 547.99001,384.86088 q -1.19437,0 -1.19437,2.11575 v 7.917 q 1.56975,0 2.5935,0.85312 1.02375,0.85313 1.02375,2.76413 0,1.7745 -1.02375,2.83237 -1.02375,1.02375 -2.52525,1.02375 h -0.9555 q -0.92138,0 -1.60388,-0.51187 -0.64837,-0.51188 -0.64837,-1.53563 v -13.34287 q 0,-1.26263 0.37537,-2.28638 0.37538,-1.05787 1.2285,-1.67212 0.88725,-0.64838 2.35463,-0.64838 1.67212,0 3.51487,2.08163 h 0.0683 q 0.9555,-1.02375 1.84275,-1.53563 0.92138,-0.546 2.184,-0.546 0.98963,0 1.638,0.4095 0.64838,0.37538 1.05788,1.02375 0.819,-0.64837 2.01337,-1.12612 1.19438,-0.47775 2.8665,-0.47775 2.66175,0 4.095,0.75075 1.43325,0.75075 1.97925,2.01337 0.58013,1.26263 0.58013,2.79825 v 14.6055 h -3.1395 v -14.6055 q 0,-1.53562 -0.9555,-2.38875 -0.9555,-0.88725 -2.8665,-0.88725 -1.46738,0 -2.3205,0.4095 -0.819,0.4095 -1.60388,1.05788 0.0683,0.47775 0.0683,1.02375 V 402.367 h -3.1395 v -15.39037 q 0,-2.11575 -1.19437,-2.11575 -0.6825,0 -1.19438,0.51187 -0.51187,0.51188 -0.9555,1.05788 -0.44362,0.51187 -1.02375,0.51187 -0.51187,0 -1.02375,-0.51187 -0.47775,-0.546 -0.98962,-1.05788 -0.47775,-0.51187 -1.12613,-0.51187 z m -1.19437,15.21975 q 1.5015,0 1.5015,-1.53563 0,-1.29675 -1.5015,-1.33087 z m 16.82362,10.61287 q -1.97925,0 -3.4125,-0.61425 -1.39912,-0.61425 -2.76412,-1.46737 -1.33088,-0.819 -3.24188,-1.05788 -1.87687,-0.20475 -3.89025,-0.20475 h -6.65437 V 405.37 h 6.65437 q 2.69588,0 4.81163,0.4095 2.14987,0.4095 3.51487,1.2285 1.39913,0.819 2.5935,1.26263 1.2285,0.44362 2.38875,0.44362 1.56975,0 2.184,-0.71662 0.64838,-0.6825 0.71663,-1.97925 h -2.52525 v -1.97925 h 5.46 v 0.71662 q 0,2.76413 -1.56975,4.33388 -1.53563,1.60387 -4.26563,1.60387 z"
         style="font-size:34.125px"
         id="path85" />
      <path
         d="m 598.66562,384.69025 3.31013,3.6855 v 8.5995 q 0,2.28638 -1.67213,3.85613 -1.67212,1.53562 -5.3235,1.53562 -1.80862,0 -3.1395,-0.44362 -1.33087,-0.44363 -2.184,-1.19438 h -0.10237 q -0.92138,0.85313 -2.35463,1.2285 -1.39912,0.37538 -3.4125,0.4095 h -0.17062 q -2.76413,0 -4.40213,-0.71662 -1.638,-0.71663 -2.38875,-1.911 -0.71662,-1.2285 -0.71662,-2.76413 V 384.076 q 0,-1.70625 2.52525,-1.70625 h 2.96887 v 2.28638 q -2.35462,0 -2.35462,0.78487 v 11.53425 q 0,1.53563 0.98962,2.3205 0.98963,0.78488 3.37838,0.78488 2.42287,0 3.37837,-0.78488 0.98963,-0.78487 0.98963,-2.3205 v -8.0535 q -1.05788,-1.33087 -1.56975,-1.94512 -0.51188,-0.61425 -0.64838,-0.88725 -0.1365,-0.273 -0.1365,-0.47775 0,-0.20475 0.17063,-0.47775 0.17062,-0.30713 0.61425,-0.92138 0.47775,-0.64837 1.39912,-1.84275 h 4.12913 v 2.28638 h -4.12913 v 0.0341 l 3.31013,3.6855 v 8.5995 q 0,3.10538 3.85612,3.10538 3.85613,0 3.85613,-3.10538 v -8.0535 q -1.05788,-1.33087 -1.56975,-1.94512 -0.51188,-0.61425 -0.64838,-0.88725 -0.1365,-0.273 -0.1365,-0.47775 0,-0.20475 0.17063,-0.47775 0.17062,-0.30713 0.61425,-0.92138 0.47775,-0.64837 1.39912,-1.84275 h 4.12913 v 2.28638 h -4.12913 z"
         style="font-size:34.125px"
         id="path87" />
      <path
         d="m 608.66422,384.65613 v -2.28638 h 15.015 v 2.28638 z m 0,17.71087 v -9.99862 q 0,-5.39175 7.5075,-5.39175 7.5075,0 7.5075,5.39175 v 9.99862 h -3.1395 v -9.99862 q 0,-3.10538 -4.368,-3.10538 -4.368,0 -4.368,3.10538 v 9.99862 z"
         style="font-size:34.125px"
         id="path89" />
      <path
         d="m 641.52659,402.367 v -15.62925 q 0,-1.19437 -0.546,-1.638 -0.51188,-0.44362 -2.11575,-0.44362 h -8.19 v 0.0341 l 4.16325,3.6855 v 11.63663 q 0,1.26262 -0.61425,1.80862 -0.61425,0.546 -1.74038,0.546 h -0.61425 q -0.92137,0 -1.84275,-0.273 -0.92137,-0.30712 -1.53562,-1.092 -0.61425,-0.819 -0.61425,-2.3205 0,-1.365 0.61425,-2.14987 0.61425,-0.819 1.5015,-1.19438 0.88725,-0.37537 1.70625,-0.44362 v -5.97188 q -1.43325,-1.365 -2.11575,-2.01337 -0.64838,-0.64838 -0.85313,-0.92138 -0.17062,-0.273 -0.17062,-0.47775 0,-0.20475 0.1365,-0.47775 0.17062,-0.273 0.61425,-0.88725 0.47775,-0.61425 1.365,-1.7745 h 1.67212 q 1.19438,0 1.19438,-0.819 v -2.184 h 3.1395 v 2.184 q 0,0.44363 -0.10238,0.819 h 3.85613 q 1.74037,0 2.62762,0.51188 0.92138,0.47775 1.26263,1.43325 0.34125,0.9555 0.34125,2.42287 V 402.367 Z m -9.828,-2.28637 v -2.8665 q -0.47775,0 -1.02375,0.30712 -0.51188,0.30713 -0.51188,1.12613 0,0.819 0.47775,1.12612 0.51188,0.30713 1.05788,0.30713 z"
         style="font-size:34.125px"
         id="path91" />
      <path
         d="m 651.14983,384.69025 3.31013,3.6855 v 10.5105 q 0,0.6825 0.23887,0.9555 0.23888,0.23888 0.85313,0.23888 h 1.60387 v 2.28637 h -3.31012 q -2.52525,0 -2.52525,-1.70625 v -11.739 q -1.05788,-1.33087 -1.56975,-1.94512 -0.51188,-0.61425 -0.64838,-0.88725 -0.1365,-0.273 -0.1365,-0.47775 0,-0.20475 0.17063,-0.47775 0.17062,-0.30713 0.61425,-0.92138 0.47775,-0.64837 1.39912,-1.84275 h 4.12913 v 2.28638 h -4.12913 z"
         style="font-size:34.125px"
         id="path93" />
      <path
         d="m 685.65021,381.72138 h -3.1395 v -4.94813 q 0,-0.71662 -0.20475,-0.98962 -0.20475,-0.273 -0.9555,-0.273 h -2.14988 v -2.28638 h 3.48075 q 1.911,0 2.42288,0.92138 0.546,0.92137 0.546,2.62762 z M 661.14846,402.367 v -8.39475 h 3.1395 v 2.55938 q 1.94512,0 2.96887,0.64837 1.02375,0.61425 1.74038,1.26263 0.546,0.47775 1.16025,1.05787 0.61425,0.58013 1.29675,0.58013 0.64837,0 1.26262,-0.64838 0.64838,-0.64837 0.64838,-2.14987 0,-1.39913 -0.819,-2.184 -0.78488,-0.78488 -2.49113,-1.05788 -4.40212,-0.71662 -6.65437,-2.25225 -2.21813,-1.53562 -2.21813,-4.02675 0,-1.53562 0.71663,-2.76412 0.71662,-1.2285 2.35462,-1.911 1.638,-0.71663 4.40213,-0.71663 2.79825,0 4.43625,0.61425 1.638,0.61425 2.35462,1.638 0.71663,0.98963 0.71663,2.184 0,0.92138 -0.44363,1.74038 -0.44362,0.819 -1.43325,1.33087 -0.98962,0.51188 -2.69587,0.51188 h -0.23888 v -2.0475 q 0.85313,0 1.26263,-0.44363 0.4095,-0.47775 0.4095,-1.19437 0,-0.78488 -0.9555,-1.39913 -0.92138,-0.64837 -3.20775,-0.64837 -2.55938,0 -3.58313,0.78487 -0.98962,0.78488 -0.98962,2.3205 0,1.56975 1.5015,2.55938 1.5015,0.9555 4.43625,1.43325 3.37837,0.546 4.81162,1.97925 1.46738,1.39912 1.46738,3.61725 0,1.56975 -0.71663,2.69587 -0.6825,1.12613 -1.84275,1.74038 -1.12612,0.58012 -2.49112,0.58012 -1.2285,0 -2.0475,-0.546 -0.819,-0.546 -1.70625,-1.33087 -0.85313,-0.78488 -1.53563,-1.2285 -0.6825,-0.44363 -1.87687,-0.44363 v 3.549 z m 21.73762,0 v -15.62925 q 0,-1.19437 -0.546,-1.638 -0.51187,-0.44362 -2.11575,-0.44362 h -4.70925 v -2.28638 h 6.279 q 1.74038,0 2.62763,0.51188 0.92137,0.47775 1.26262,1.43325 0.34125,0.9555 0.34125,2.42287 V 402.367 Z"
         style="font-size:34.125px"
         id="path95" />
      <path
         d="m 692.50933,384.69025 3.31012,3.6855 v 10.5105 q 0,0.6825 0.23888,0.9555 0.23887,0.23888 0.85312,0.23888 h 1.60388 v 2.28637 h -3.31013 q -2.52525,0 -2.52525,-1.70625 v -11.739 q -1.05787,-1.33087 -1.56975,-1.94512 -0.51187,-0.61425 -0.64837,-0.88725 -0.1365,-0.273 -0.1365,-0.47775 0,-0.20475 0.17062,-0.47775 0.17063,-0.30713 0.61425,-0.92138 0.47775,-0.64837 1.39913,-1.84275 h 4.12912 v 2.28638 h -4.12912 z"
         style="font-size:34.125px"
         id="path97" />
      <path
         d="m 709.60596,384.65613 q -3.92438,0 -3.92438,3.10537 v 7.13213 q 1.56975,0 2.5935,0.85312 1.02375,0.85313 1.02375,2.76413 0,1.7745 -1.02375,2.83237 -1.02375,1.02375 -2.52525,1.02375 h -0.9555 q -0.92137,0 -1.60387,-0.51187 -0.64838,-0.51188 -0.64838,-1.53563 v -12.558 q 0,-5.39175 7.06388,-5.39175 7.098,0 7.098,5.39175 v 9.21375 q 0,3.10538 3.822,3.10538 3.85612,0 3.85612,-3.10538 v -8.0535 q -1.05787,-1.33087 -1.56975,-1.94512 -0.51187,-0.61425 -0.64837,-0.88725 -0.1365,-0.273 -0.1365,-0.47775 0,-0.20475 0.17062,-0.47775 0.17063,-0.30713 0.61425,-0.92138 0.47775,-0.64837 1.39913,-1.84275 h 4.12912 v 2.28638 h -4.12912 v 0.0341 l 3.31012,3.6855 v 8.5995 q 0,5.39175 -6.99562,5.39175 -6.9615,0 -6.9615,-5.39175 v -9.21375 q 0,-3.10537 -3.9585,-3.10537 z m -3.92438,15.4245 q 1.5015,0 1.5015,-1.53563 0,-1.29675 -1.5015,-1.33087 z"
         style="font-size:34.125px"
         id="path99" />
      <path
         d="m 714.24697,380.01511 q -1.67213,0 -1.67213,-2.49113 0,-1.67212 1.365,-2.90062 1.33088,-1.26263 3.822,-1.26263 1.7745,0 3.48075,0.6825 1.70625,0.64838 3.20775,1.67213 v -3.17363 h 2.28638 v 7.47338 z m 0.85312,-2.14988 h 8.463 q -1.87687,-1.33087 -3.34425,-1.84275 -1.46737,-0.51187 -2.457,-0.51187 -1.26262,0 -1.94512,0.51187 -0.71663,0.51188 -0.71663,1.84275 z"
         style="font-size:34.125px"
         id="path101" />
    </g>
    <g
       aria-label="F-Droid"
       id="text18"
       style="font-weight:700;font-size:29.7088px;line-height:100%;font-family:Rokkitt;-inkscape-font-specification:'Rokkitt Bold';letter-spacing:0;word-spacing:0;display:inline;overflow:visible;fill:#ffffff;stroke-width:1px;marker:none">
      <path
         d="m 510.81067,481.24332 v 8.11767 h 27.97119 v -8.11767 l -7.23633,-1.3916 v -18.55469 h 23.65723 v -10.43701 h -23.65723 v -18.60108 h 22.03369 l 0.60303,8.07129 h 10.39063 v -18.5083 h -53.76221 v 8.16406 l 7.18994,1.3916 v 48.47413 z"
         style="font-size:95px;line-height:100%;font-family:'Roboto Slab';-inkscape-font-specification:'Roboto Slab Bold'"
         id="path104" />
      <path
         d="m 599.13098,465.70377 v -10.43702 h -26.16211 v 10.43702 z"
         style="font-size:95px;line-height:100%;font-family:'Roboto Slab';-inkscape-font-specification:'Roboto Slab Bold'"
         id="path106" />
      <path
         d="m 637.67834,421.82193 h -30.3833 v 8.16406 l 7.18995,1.3916 v 48.47413 l -7.18995,1.3916 v 8.11767 h 30.3833 c 16.51368,0 28.43506,-11.59668 28.43506,-28.15674 v -11.1792 c 0,-16.51367 -11.92138,-28.20312 -28.43506,-28.20312 z m -9.64843,10.43701 h 8.95263 c 9.69483,0 15.53955,7.23633 15.53955,17.67334 v 11.27197 c 0,10.57618 -5.84472,17.76612 -15.53955,17.76612 h -8.95263 z"
         style="font-size:95px;line-height:100%;font-family:'Roboto Slab';-inkscape-font-specification:'Roboto Slab Bold'"
         id="path108" />
      <path
         d="m 674.09192,481.24332 v 8.11767 h 26.5332 v -8.11767 l -6.49414,-1.3916 v -24.58497 c 1.48438,-2.82959 3.89649,-4.31396 7.88574,-4.12841 l 6.67969,0.3247 1.43799,-12.47802 c -1.29883,-0.46387 -3.43262,-0.74219 -5.33447,-0.74219 -4.87061,0 -8.62793,3.06152 -10.99366,8.25683 l -0.0928,-1.11328 -0.51025,-6.21582 h -19.80713 v 8.16407 l 7.18994,1.3916 v 31.12549 z"
         style="font-size:95px;line-height:100%;font-family:'Roboto Slab';-inkscape-font-specification:'Roboto Slab Bold'"
         id="path110" />
      <path
         d="m 713.24231,463.80191 v 0.97412 c 0,15.07569 8.85986,25.55908 23.75,25.55908 14.70459,0 23.61084,-10.48339 23.61084,-25.55908 v -0.97412 c 0,-15.0293 -8.85986,-25.55908 -23.70361,-25.55908 -14.79737,0 -23.65723,10.57617 -23.65723,25.55908 z m 13.54492,0.97412 v -0.97412 c 0,-8.90625 3.06152,-15.12207 10.11231,-15.12207 7.05078,0 10.20507,6.21582 10.20507,15.12207 v 0.97412 c 0,9.0918 -3.10791,15.16846 -10.1123,15.16846 -7.18994,0 -10.20508,-6.03027 -10.20508,-15.16846 z"
         style="font-size:95px;line-height:100%;font-family:'Roboto Slab';-inkscape-font-specification:'Roboto Slab Bold'"
         id="path112" />
      <path
         d="M 786.16223,428.548 V 416.99771 H 772.15344 V 428.548 Z m -20.08545,52.69532 v 8.11767 h 26.57959 v -8.11767 l -6.49414,-1.3916 v -40.68116 h -20.78125 v 8.16407 l 7.23633,1.3916 v 31.12549 z"
         style="font-size:95px;line-height:100%;font-family:'Roboto Slab';-inkscape-font-specification:'Roboto Slab Bold'"
         id="path114" />
      <path
         d="m 829.76575,483.23795 1.0205,6.12304 h 18.22999 v -8.11767 l -6.49415,-1.3916 v -62.85401 h -20.78125 v 8.16406 l 7.23633,1.39161 v 17.99804 c -3.01513,-4.03564 -7.05078,-6.30859 -12.06054,-6.30859 -12.43164,0 -19.62159,10.62256 -19.62159,26.44043 v 0.97412 c 0,14.84375 7.14356,24.67773 19.52881,24.67773 5.52002,0 9.7876,-2.45849 12.9419,-7.09716 z m -18.92578,-17.58057 v -0.97412 c 0,-9.46289 2.87597,-15.91065 9.50927,-15.91065 3.89649,0 6.77246,1.85547 8.62793,5.05616 v 21.2915 c -1.85547,3.01514 -4.77783,4.68506 -8.7207,4.68506 -6.67969,0 -9.4165,-5.38086 -9.4165,-14.14795 z"
         style="font-size:95px;line-height:100%;font-family:'Roboto Slab';-inkscape-font-specification:'Roboto Slab Bold'"
         id="path116" />
    </g>
    <path
       d="m 2.589,1006.862 4.25,5.5"
       style="fill:#8ab000;fill-opacity:1;fill-rule:evenodd;stroke:#769616;stroke-width:2.5;stroke-linecap:round;stroke-linejoin:miter;stroke-miterlimit:4;stroke-dasharray:none;stroke-opacity:1"
       transform="matrix(-2.63159,0,0,2.63157,483.158,-2270.475)"
       id="path20" />
    <path
       d="m 2.611,1005.61 c -0.453,0.011 -0.761,0.188 -0.98,0.448 2.027,2.409 2.368,2.792 5.135,6.221 1.02,1.32 2.082,0.638 1.062,-0.681 l -4.25,-5.5 a 1.24,1.24 0 0 0 -0.967,-0.489"
       style="color:#000000;font-style:normal;font-variant:normal;font-weight:400;font-stretch:normal;font-size:medium;line-height:normal;font-family:sans-serif;text-indent:0;text-align:start;text-decoration:none;text-decoration-line:none;text-decoration-style:solid;text-decoration-color:#000000;letter-spacing:normal;word-spacing:normal;text-transform:none;writing-mode:lr-tb;direction:ltr;baseline-shift:baseline;text-anchor:start;white-space:normal;clip-rule:nonzero;display:inline;overflow:visible;visibility:visible;opacity:1;isolation:auto;mix-blend-mode:normal;color-interpolation:sRGB;color-interpolation-filters:linearRGB;solid-color:#000000;solid-opacity:1;fill:#ffffff;fill-opacity:0.298039;fill-rule:evenodd;stroke:none;stroke-width:2.5;stroke-linecap:round;stroke-linejoin:miter;stroke-miterlimit:4;stroke-dasharray:none;stroke-dashoffset:0;stroke-opacity:1;color-rendering:auto;image-rendering:auto;shape-rendering:auto;text-rendering:auto"
       transform="matrix(-2.63159,0,0,2.63157,483.158,-2270.475)"
       id="path22" />
    <path
       d="m 1.622,1006.07 a 1.25,1.25 0 0 0 -0.022,1.557 l 4.25,5.5 c 1.02,1.319 1.15,-0.613 1.15,-0.613 0,0 -3.735,-4.51 -5.378,-6.443"
       style="color:#000000;font-style:normal;font-variant:normal;font-weight:400;font-stretch:normal;font-size:medium;line-height:normal;font-family:sans-serif;text-indent:0;text-align:start;text-decoration:none;text-decoration-line:none;text-decoration-style:solid;text-decoration-color:#000000;letter-spacing:normal;word-spacing:normal;text-transform:none;writing-mode:lr-tb;direction:ltr;baseline-shift:baseline;text-anchor:start;white-space:normal;clip-rule:nonzero;display:inline;overflow:visible;visibility:visible;opacity:1;isolation:auto;mix-blend-mode:normal;color-interpolation:sRGB;color-interpolation-filters:linearRGB;solid-color:#000000;solid-opacity:1;fill:#263238;fill-opacity:0.2;fill-rule:evenodd;stroke:none;stroke-width:2.5;stroke-linecap:round;stroke-linejoin:miter;stroke-miterlimit:4;stroke-dasharray:none;stroke-dashoffset:0;stroke-opacity:1;color-rendering:auto;image-rendering:auto;shape-rendering:auto;text-rendering:auto"
       transform="matrix(-2.63159,0,0,2.63157,483.158,-2270.475)"
       id="path24" />
    <path
       d="m 2.338,1005.844 c -0.438,0 -0.96,0.142 -0.824,0.799 0.103,0.501 4.66,6.074 4.66,6.074 1.02,1.32 2.494,0.677 1.474,-0.642 l -4.234,-5.473 c -0.26,-0.29 -0.608,-0.744 -1.076,-0.758"
       style="color:#000000;font-style:normal;font-variant:normal;font-weight:400;font-stretch:normal;font-size:medium;line-height:normal;font-family:sans-serif;text-indent:0;text-align:start;text-decoration:none;text-decoration-line:none;text-decoration-style:solid;text-decoration-color:#000000;letter-spacing:normal;word-spacing:normal;text-transform:none;writing-mode:lr-tb;direction:ltr;baseline-shift:baseline;text-anchor:start;white-space:normal;clip-rule:nonzero;display:inline;overflow:visible;visibility:visible;opacity:1;isolation:auto;mix-blend-mode:normal;color-interpolation:sRGB;color-interpolation-filters:linearRGB;solid-color:#000000;solid-opacity:1;fill:#8ab000;fill-opacity:1;fill-rule:evenodd;stroke:none;stroke-width:2.5;stroke-linecap:round;stroke-linejoin:miter;stroke-miterlimit:4;stroke-dasharray:none;stroke-dashoffset:0;stroke-opacity:1;color-rendering:auto;image-rendering:auto;shape-rendering:auto;text-rendering:auto"
       transform="matrix(-2.63159,0,0,2.63157,483.158,-2270.475)"
       id="path26" />
    <path
       d="m 2.589,1006.862 4.25,5.5"
       style="fill:#8ab000;fill-opacity:1;fill-rule:evenodd;stroke:#769616;stroke-width:2.5;stroke-linecap:round;stroke-linejoin:miter;stroke-miterlimit:4;stroke-dasharray:none;stroke-opacity:1"
       transform="matrix(2.63159,0,0,2.63157,356.842,-2270.475)"
       id="path28" />
    <path
       d="m 2.611,1005.61 c -0.453,0.011 -0.761,0.188 -0.98,0.448 2.027,2.409 2.368,2.792 5.135,6.221 1.02,1.32 2.082,0.638 1.062,-0.681 l -4.25,-5.5 a 1.24,1.24 0 0 0 -0.967,-0.489"
       style="color:#000000;font-style:normal;font-variant:normal;font-weight:400;font-stretch:normal;font-size:medium;line-height:normal;font-family:sans-serif;text-indent:0;text-align:start;text-decoration:none;text-decoration-line:none;text-decoration-style:solid;text-decoration-color:#000000;letter-spacing:normal;word-spacing:normal;text-transform:none;writing-mode:lr-tb;direction:ltr;baseline-shift:baseline;text-anchor:start;white-space:normal;clip-rule:nonzero;display:inline;overflow:visible;visibility:visible;opacity:1;isolation:auto;mix-blend-mode:normal;color-interpolation:sRGB;color-interpolation-filters:linearRGB;solid-color:#000000;solid-opacity:1;fill:#ffffff;fill-opacity:0.298039;fill-rule:evenodd;stroke:none;stroke-width:2.5;stroke-linecap:round;stroke-linejoin:miter;stroke-miterlimit:4;stroke-dasharray:none;stroke-dashoffset:0;stroke-opacity:1;color-rendering:auto;image-rendering:auto;shape-rendering:auto;text-rendering:auto"
       transform="matrix(2.63159,0,0,2.63157,356.842,-2270.475)"
       id="path30" />
    <path
       d="m 1.622,1006.07 a 1.25,1.25 0 0 0 -0.022,1.557 l 4.25,5.5 c 1.02,1.319 1.15,-0.613 1.15,-0.613 0,0 -3.735,-4.51 -5.378,-6.443"
       style="color:#000000;font-style:normal;font-variant:normal;font-weight:400;font-stretch:normal;font-size:medium;line-height:normal;font-family:sans-serif;text-indent:0;text-align:start;text-decoration:none;text-decoration-line:none;text-decoration-style:solid;text-decoration-color:#000000;letter-spacing:normal;word-spacing:normal;text-transform:none;writing-mode:lr-tb;direction:ltr;baseline-shift:baseline;text-anchor:start;white-space:normal;clip-rule:nonzero;display:inline;overflow:visible;visibility:visible;opacity:1;isolation:auto;mix-blend-mode:normal;color-interpolation:sRGB;color-interpolation-filters:linearRGB;solid-color:#000000;solid-opacity:1;fill:#263238;fill-opacity:0.2;fill-rule:evenodd;stroke:none;stroke-width:2.5;stroke-linecap:round;stroke-linejoin:miter;stroke-miterlimit:4;stroke-dasharray:none;stroke-dashoffset:0;stroke-opacity:1;color-rendering:auto;image-rendering:auto;shape-rendering:auto;text-rendering:auto"
       transform="matrix(2.63159,0,0,2.63157,356.842,-2270.475)"
       id="path32" />
    <path
       d="m 2.338,1005.844 c -0.438,0 -0.96,0.142 -0.824,0.799 0.103,0.501 4.66,6.074 4.66,6.074 1.02,1.32 2.494,0.677 1.474,-0.642 l -4.234,-5.473 c -0.26,-0.29 -0.608,-0.744 -1.076,-0.758"
       style="color:#000000;font-style:normal;font-variant:normal;font-weight:400;font-stretch:normal;font-size:medium;line-height:normal;font-family:sans-serif;text-indent:0;text-align:start;text-decoration:none;text-decoration-line:none;text-decoration-style:solid;text-decoration-color:#000000;letter-spacing:normal;word-spacing:normal;text-transform:none;writing-mode:lr-tb;direction:ltr;baseline-shift:baseline;text-anchor:start;white-space:normal;clip-rule:nonzero;display:inline;overflow:visible;visibility:visible;opacity:1;isolation:auto;mix-blend-mode:normal;color-interpolation:sRGB;color-interpolation-filters:linearRGB;solid-color:#000000;solid-opacity:1;fill:#8ab000;fill-opacity:1;fill-rule:evenodd;stroke:none;stroke-width:2.5;stroke-linecap:round;stroke-linejoin:miter;stroke-miterlimit:4;stroke-dasharray:none;stroke-dashoffset:0;stroke-opacity:1;color-rendering:auto;image-rendering:auto;shape-rendering:auto;text-rendering:auto"
       transform="matrix(2.63159,0,0,2.63157,356.842,-2270.475)"
       id="path34" />
    <g
       transform="matrix(2.63159,0,0,2.63157,467.369,-2270.475)"
       id="g44">
      <path
         id="rect36"
         style="opacity:1;fill:#aeea00;stroke-width:3;stroke-linecap:round;stroke-miterlimit:3"
         d="m -34,1010.36 h 32 c 1.662,0 3,1.338 3,3 v 6.92 c 0,1.662 -1.338,3 -3,3 h -32 c -1.662,0 -3,-1.338 -3,-3 v -6.92 c 0,-1.662 1.338,-3 3,-3 z" />
      <path
         id="rect38"
         style="opacity:1;fill:#263238;fill-opacity:0.2;stroke-width:3;stroke-linecap:round;stroke-miterlimit:3"
         d="m -34,1013.279 h 32 c 1.662,0 3,1.338 3,3 v 4 c 0,1.662 -1.338,3 -3,3 h -32 c -1.662,0 -3,-1.338 -3,-3 v -4 c 0,-1.662 1.338,-3 3,-3 z" />
      <path
         id="rect40"
         style="opacity:1;fill:#ffffff;fill-opacity:0.298039;stroke-width:3;stroke-linecap:round;stroke-miterlimit:3"
         d="m -34,1010.362 h 32 c 1.662,0 3,1.338 3,3 v 4 c 0,1.662 -1.338,3 -3,3 h -32 c -1.662,0 -3,-1.338 -3,-3 v -4 c 0,-1.662 1.338,-3 3,-3 z" />
      <path
         id="rect42"
         style="opacity:1;fill:#aeea00;stroke-width:3;stroke-linecap:round;stroke-miterlimit:3"
         d="m -34,1011.5 h 32 c 1.662,0 3,1.0954 3,2.456 v 5.729 c 0,1.3606 -1.338,2.456 -3,2.456 h -32 c -1.662,0 -3,-1.0954 -3,-2.456 v -5.729 c 0,-1.3606 1.338,-2.456 3,-2.456 z" />
    </g>
    <g
       transform="matrix(2.63159,0,0,2.63157,356.842,-2270.745)"
       id="g54">
      <path
         id="rect46"
         style="opacity:1;fill:#1976d2;stroke-width:3;stroke-linecap:round;stroke-miterlimit:3"
         d="m 8,1024.522 h 32 c 1.662,0 3,1.338 3,3 v 19.84 c 0,1.662 -1.338,3 -3,3 H 8 c -1.662,0 -3,-1.338 -3,-3 v -19.84 c 0,-1.662 1.338,-3 3,-3 z" />
      <path
         id="rect48"
         style="opacity:1;fill:#263238;fill-opacity:0.2;stroke-width:3;stroke-linecap:round;stroke-miterlimit:3"
         d="m 8,1037.3621 h 32 c 1.662,0 3,1.338 3,3 v 7 c 0,1.662 -1.338,3 -3,3 H 8 c -1.662,0 -3,-1.338 -3,-3 v -7 c 0,-1.662 1.338,-3 3,-3 z" />
      <path
         id="rect50"
         style="opacity:1;fill:#ffffff;fill-opacity:0.2;stroke-width:3;stroke-linecap:round;stroke-miterlimit:3"
         d="m 8,1024.442 h 32 c 1.662,0 3,1.338 3,3 v 7 c 0,1.662 -1.338,3 -3,3 H 8 c -1.662,0 -3,-1.338 -3,-3 v -7 c 0,-1.662 1.338,-3 3,-3 z" />
      <path
         id="rect52"
         style="opacity:1;fill:#1976d2;stroke-width:3;stroke-linecap:round;stroke-miterlimit:3"
         d="m 8,1025.662 h 32 c 1.662,0 3,1.2122 3,2.718 v 18.124 c 0,1.5058 -1.338,2.718 -3,2.718 H 8 c -1.662,0 -3,-1.2122 -3,-2.718 v -18.124 c 0,-1.5058 1.338,-2.718 3,-2.718 z" />
    </g>
    <g
       transform="matrix(2.63159,0,0,2.63157,356.842,396.264)"
       id="g60">
      <path
         d="m 24,17.75 c -2.88,0 -5.32,1.985 -6.033,4.65 H 21.18 A 3.22,3.22 0 0 1 24,20.75 3.23,3.23 0 0 1 27.25,24 3.23,3.23 0 0 1 24,27.25 3.22,3.22 0 0 1 21.07,25.4 h -3.154 c 0.642,2.766 3.132,4.85 6.084,4.85 3.434,0 6.25,-2.816 6.25,-6.25 0,-3.434 -2.816,-6.25 -6.25,-6.25"
         style="color:#000000;font-style:normal;font-variant:normal;font-weight:400;font-stretch:normal;font-size:medium;line-height:normal;font-family:sans-serif;text-indent:0;text-align:start;text-decoration:none;text-decoration-line:none;text-decoration-style:solid;text-decoration-color:#000000;letter-spacing:normal;word-spacing:normal;text-transform:none;writing-mode:lr-tb;direction:ltr;baseline-shift:baseline;text-anchor:start;white-space:normal;clip-rule:nonzero;display:inline;overflow:visible;visibility:visible;opacity:1;isolation:auto;mix-blend-mode:normal;color-interpolation:sRGB;color-interpolation-filters:linearRGB;solid-color:#000000;solid-opacity:1;fill:#0d47a1;fill-opacity:1;fill-rule:nonzero;stroke:none;stroke-width:3;stroke-linecap:round;stroke-linejoin:miter;stroke-miterlimit:4;stroke-dasharray:none;stroke-dashoffset:0;stroke-opacity:1;color-rendering:auto;image-rendering:auto;shape-rendering:auto;text-rendering:auto"
         id="path56" />
      <path
         id="circle58"
         style="opacity:1;fill:none;fill-opacity:0.403922;stroke:#0d47a1;stroke-width:1.9;stroke-linecap:round"
         d="M 33.55,24 A 9.5500002,9.5500002 0 0 1 24,33.55 9.5500002,9.5500002 0 0 1 14.45,24 9.5500002,9.5500002 0 0 1 24,14.45 9.5500002,9.5500002 0 0 1 33.55,24 Z" />
    </g>
    <g
       transform="matrix(2.63159,0,0,2.63157,356.842,-2269.159)"
       id="g66">
      <path
         id="ellipse62"
         style="opacity:1;fill:#263238;fill-opacity:0.2;stroke-width:1.9;stroke-linecap:round;stroke-opacity:0.697211"
         d="m 17.75,1016.487 a 3.375,3.875 0 0 1 -3.375,3.875 3.375,3.875 0 0 1 -3.375,-3.875 3.375,3.875 0 0 1 3.375,-3.875 3.375,3.875 0 0 1 3.375,3.875 z" />
      <path
         id="circle64"
         style="opacity:1;fill:#ffffff;stroke-width:1.9;stroke-linecap:round;stroke-opacity:0.697211"
         d="m 17.75,1016.987 a 3.375,3.375 0 0 1 -3.375,3.375 3.375,3.375 0 0 1 -3.375,-3.375 3.375,3.375 0 0 1 3.375,-3.375 3.375,3.375 0 0 1 3.375,3.375 z" />
    </g>
    <g
       transform="matrix(2.63159,0,0,2.63157,408.158,-2269.159)"
       id="g72">
      <path
         id="ellipse68"
         style="opacity:1;fill:#263238;fill-opacity:0.2;stroke-width:1.9;stroke-linecap:round;stroke-opacity:0.697211"
         d="m 17.75,1016.487 a 3.375,3.875 0 0 1 -3.375,3.875 3.375,3.875 0 0 1 -3.375,-3.875 3.375,3.875 0 0 1 3.375,-3.875 3.375,3.875 0 0 1 3.375,3.875 z" />
      <path
         id="circle70"
         style="opacity:1;fill:#ffffff;stroke-width:1.9;stroke-linecap:round;stroke-opacity:0.697211"
         d="m 17.75,1016.987 a 3.375,3.375 0 0 1 -3.375,3.375 3.375,3.375 0 0 1 -3.375,-3.375 3.375,3.375 0 0 1 3.375,-3.375 3.375,3.375 0 0 1 3.375,3.375 z" />
    </g>
    <path
       d="m 282.715,299.835 a 3.29,3.29 0 0 0 -2.662,5.336 l 9.474,12.261 A 7.9,7.9 0 0 0 289,320.257 v 18.21 a 7.877,7.877 0 0 0 7.895,7.895 h 84.21 A 7.877,7.877 0 0 0 389,338.468 v -18.211 c 0,-0.999 -0.19,-1.949 -0.525,-2.826 l 9.472,-12.26 a 3.29,3.29 0 0 0 -2.433,-5.334 3.29,3.29 0 0 0 -2.772,1.31 l -9.013,11.666 a 7.9,7.9 0 0 0 -2.624,-0.45 h -84.21 c -0.922,0 -1.8,0.163 -2.622,0.45 l -9.015,-11.666 a 3.29,3.29 0 0 0 -2.543,-1.312 m 14.18,49.527 A 7.877,7.877 0 0 0 289,357.257 v 52.21 a 7.877,7.877 0 0 0 7.895,7.895 h 84.21 A 7.877,7.877 0 0 0 389,409.468 v -52.211 a 7.877,7.877 0 0 0 -7.895,-7.895 z"
       style="color:#000000;font-style:normal;font-variant:normal;font-weight:400;font-stretch:normal;font-size:medium;line-height:normal;font-family:sans-serif;text-indent:0;text-align:start;text-decoration:none;text-decoration-line:none;text-decoration-style:solid;text-decoration-color:#000000;letter-spacing:normal;word-spacing:normal;text-transform:none;writing-mode:lr-tb;direction:ltr;baseline-shift:baseline;text-anchor:start;white-space:normal;clip-rule:nonzero;display:inline;overflow:visible;visibility:visible;opacity:1;isolation:auto;mix-blend-mode:normal;color-interpolation:sRGB;color-interpolation-filters:linearRGB;solid-color:#000000;solid-opacity:1;fill:url(#b);fill-opacity:1;fill-rule:evenodd;stroke:none;stroke-width:6.57895;stroke-linecap:round;stroke-linejoin:miter;stroke-miterlimit:4;stroke-dasharray:none;stroke-dashoffset:0;stroke-opacity:1;color-rendering:auto;image-rendering:auto;shape-rendering:auto;text-rendering:auto"
       transform="translate(81,76)"
       id="path74" />
  </g>
</svg>
