<?xml version="1.0" encoding="UTF-8" standalone="no"?>
<svg
   width="565"
   height="180"
   version="1.1"
   id="svg82"
   sodipodi:docname="get-it-on-si.svg"
   xmlns:inkscape="http://www.inkscape.org/namespaces/inkscape"
   xmlns:sodipodi="http://sodipodi.sourceforge.net/DTD/sodipodi-0.dtd"
   xmlns:xlink="http://www.w3.org/1999/xlink"
   xmlns="http://www.w3.org/2000/svg"
   xmlns:svg="http://www.w3.org/2000/svg">
  <sodipodi:namedview
     id="namedview84"
     pagecolor="#ffffff"
     bordercolor="#000000"
     borderopacity="0.25"
     inkscape:showpageshadow="2"
     inkscape:pageopacity="0.0"
     inkscape:pagecheckerboard="0"
     inkscape:deskcolor="#d1d1d1" />
  <defs
     id="defs8">
    <radialGradient
       xlink:href="#a"
       id="b"
       cx="113"
       cy="-12.89"
       r="59.662"
       fx="113"
       fy="-12.89"
       gradientTransform="matrix(0 1.96105 -1.97781 0 254.507 78.763)"
       gradientUnits="userSpaceOnUse" />
    <linearGradient
       id="a">
      <stop
         offset="0"
         style="stop-color:#fff;stop-opacity:.09803922"
         id="stop3" />
      <stop
         offset="1"
         style="stop-color:#fff;stop-opacity:0"
         id="stop5" />
    </linearGradient>
  </defs>
  <g
     transform="translate(-329,-347.362)"
     id="g80">
    <path
       id="rect10"
       style="display:inline;overflow:visible;stroke:#a6a6a6;stroke-width:4;marker:none"
       d="m 352,349.362 h 520 c 11.08,0 20,8.92 20,20 v 136 c 0,11.08 -8.92,20 -20,20 H 352 c -11.08,0 -20,-8.92 -20,-20 v -136 c 0,-11.08 8.92,-20 20,-20 z" />
    <path
       d="m 2.589,1006.862 4.25,5.5"
       style="fill:#8ab000;fill-opacity:1;fill-rule:evenodd;stroke:#769616;stroke-width:2.5;stroke-linecap:round;stroke-linejoin:miter;stroke-miterlimit:4;stroke-dasharray:none;stroke-opacity:1"
       transform="matrix(-2.63159,0,0,2.63157,483.158,-2270.475)"
       id="path12" />
    <path
       d="m 2.611,1005.61 c -0.453,0.011 -0.761,0.188 -0.98,0.448 2.027,2.409 2.368,2.792 5.135,6.221 1.02,1.32 2.082,0.638 1.062,-0.681 l -4.25,-5.5 a 1.24,1.24 0 0 0 -0.967,-0.489"
       style="color:#000000;font-style:normal;font-variant:normal;font-weight:400;font-stretch:normal;font-size:medium;line-height:normal;font-family:sans-serif;text-indent:0;text-align:start;text-decoration:none;text-decoration-line:none;text-decoration-style:solid;text-decoration-color:#000000;letter-spacing:normal;word-spacing:normal;text-transform:none;writing-mode:lr-tb;direction:ltr;baseline-shift:baseline;text-anchor:start;white-space:normal;clip-rule:nonzero;display:inline;overflow:visible;visibility:visible;opacity:1;isolation:auto;mix-blend-mode:normal;color-interpolation:sRGB;color-interpolation-filters:linearRGB;solid-color:#000000;solid-opacity:1;fill:#ffffff;fill-opacity:0.298039;fill-rule:evenodd;stroke:none;stroke-width:2.5;stroke-linecap:round;stroke-linejoin:miter;stroke-miterlimit:4;stroke-dasharray:none;stroke-dashoffset:0;stroke-opacity:1;color-rendering:auto;image-rendering:auto;shape-rendering:auto;text-rendering:auto"
       transform="matrix(-2.63159,0,0,2.63157,483.158,-2270.475)"
       id="path14" />
    <path
       d="m 1.622,1006.07 a 1.25,1.25 0 0 0 -0.022,1.557 l 4.25,5.5 c 1.02,1.319 1.15,-0.613 1.15,-0.613 0,0 -3.735,-4.51 -5.378,-6.443"
       style="color:#000000;font-style:normal;font-variant:normal;font-weight:400;font-stretch:normal;font-size:medium;line-height:normal;font-family:sans-serif;text-indent:0;text-align:start;text-decoration:none;text-decoration-line:none;text-decoration-style:solid;text-decoration-color:#000000;letter-spacing:normal;word-spacing:normal;text-transform:none;writing-mode:lr-tb;direction:ltr;baseline-shift:baseline;text-anchor:start;white-space:normal;clip-rule:nonzero;display:inline;overflow:visible;visibility:visible;opacity:1;isolation:auto;mix-blend-mode:normal;color-interpolation:sRGB;color-interpolation-filters:linearRGB;solid-color:#000000;solid-opacity:1;fill:#263238;fill-opacity:0.2;fill-rule:evenodd;stroke:none;stroke-width:2.5;stroke-linecap:round;stroke-linejoin:miter;stroke-miterlimit:4;stroke-dasharray:none;stroke-dashoffset:0;stroke-opacity:1;color-rendering:auto;image-rendering:auto;shape-rendering:auto;text-rendering:auto"
       transform="matrix(-2.63159,0,0,2.63157,483.158,-2270.475)"
       id="path16" />
    <path
       d="m 2.338,1005.844 c -0.438,0 -0.96,0.142 -0.824,0.799 0.103,0.501 4.66,6.074 4.66,6.074 1.02,1.32 2.494,0.677 1.474,-0.642 l -4.234,-5.473 c -0.26,-0.29 -0.608,-0.744 -1.076,-0.758"
       style="color:#000000;font-style:normal;font-variant:normal;font-weight:400;font-stretch:normal;font-size:medium;line-height:normal;font-family:sans-serif;text-indent:0;text-align:start;text-decoration:none;text-decoration-line:none;text-decoration-style:solid;text-decoration-color:#000000;letter-spacing:normal;word-spacing:normal;text-transform:none;writing-mode:lr-tb;direction:ltr;baseline-shift:baseline;text-anchor:start;white-space:normal;clip-rule:nonzero;display:inline;overflow:visible;visibility:visible;opacity:1;isolation:auto;mix-blend-mode:normal;color-interpolation:sRGB;color-interpolation-filters:linearRGB;solid-color:#000000;solid-opacity:1;fill:#8ab000;fill-opacity:1;fill-rule:evenodd;stroke:none;stroke-width:2.5;stroke-linecap:round;stroke-linejoin:miter;stroke-miterlimit:4;stroke-dasharray:none;stroke-dashoffset:0;stroke-opacity:1;color-rendering:auto;image-rendering:auto;shape-rendering:auto;text-rendering:auto"
       transform="matrix(-2.63159,0,0,2.63157,483.158,-2270.475)"
       id="path18" />
    <path
       d="m 2.589,1006.862 4.25,5.5"
       style="fill:#8ab000;fill-opacity:1;fill-rule:evenodd;stroke:#769616;stroke-width:2.5;stroke-linecap:round;stroke-linejoin:miter;stroke-miterlimit:4;stroke-dasharray:none;stroke-opacity:1"
       transform="matrix(2.63159,0,0,2.63157,356.842,-2270.475)"
       id="path20" />
    <path
       d="m 2.611,1005.61 c -0.453,0.011 -0.761,0.188 -0.98,0.448 2.027,2.409 2.368,2.792 5.135,6.221 1.02,1.32 2.082,0.638 1.062,-0.681 l -4.25,-5.5 a 1.24,1.24 0 0 0 -0.967,-0.489"
       style="color:#000000;font-style:normal;font-variant:normal;font-weight:400;font-stretch:normal;font-size:medium;line-height:normal;font-family:sans-serif;text-indent:0;text-align:start;text-decoration:none;text-decoration-line:none;text-decoration-style:solid;text-decoration-color:#000000;letter-spacing:normal;word-spacing:normal;text-transform:none;writing-mode:lr-tb;direction:ltr;baseline-shift:baseline;text-anchor:start;white-space:normal;clip-rule:nonzero;display:inline;overflow:visible;visibility:visible;opacity:1;isolation:auto;mix-blend-mode:normal;color-interpolation:sRGB;color-interpolation-filters:linearRGB;solid-color:#000000;solid-opacity:1;fill:#ffffff;fill-opacity:0.298039;fill-rule:evenodd;stroke:none;stroke-width:2.5;stroke-linecap:round;stroke-linejoin:miter;stroke-miterlimit:4;stroke-dasharray:none;stroke-dashoffset:0;stroke-opacity:1;color-rendering:auto;image-rendering:auto;shape-rendering:auto;text-rendering:auto"
       transform="matrix(2.63159,0,0,2.63157,356.842,-2270.475)"
       id="path22" />
    <path
       d="m 1.622,1006.07 a 1.25,1.25 0 0 0 -0.022,1.557 l 4.25,5.5 c 1.02,1.319 1.15,-0.613 1.15,-0.613 0,0 -3.735,-4.51 -5.378,-6.443"
       style="color:#000000;font-style:normal;font-variant:normal;font-weight:400;font-stretch:normal;font-size:medium;line-height:normal;font-family:sans-serif;text-indent:0;text-align:start;text-decoration:none;text-decoration-line:none;text-decoration-style:solid;text-decoration-color:#000000;letter-spacing:normal;word-spacing:normal;text-transform:none;writing-mode:lr-tb;direction:ltr;baseline-shift:baseline;text-anchor:start;white-space:normal;clip-rule:nonzero;display:inline;overflow:visible;visibility:visible;opacity:1;isolation:auto;mix-blend-mode:normal;color-interpolation:sRGB;color-interpolation-filters:linearRGB;solid-color:#000000;solid-opacity:1;fill:#263238;fill-opacity:0.2;fill-rule:evenodd;stroke:none;stroke-width:2.5;stroke-linecap:round;stroke-linejoin:miter;stroke-miterlimit:4;stroke-dasharray:none;stroke-dashoffset:0;stroke-opacity:1;color-rendering:auto;image-rendering:auto;shape-rendering:auto;text-rendering:auto"
       transform="matrix(2.63159,0,0,2.63157,356.842,-2270.475)"
       id="path24" />
    <path
       d="m 2.338,1005.844 c -0.438,0 -0.96,0.142 -0.824,0.799 0.103,0.501 4.66,6.074 4.66,6.074 1.02,1.32 2.494,0.677 1.474,-0.642 l -4.234,-5.473 c -0.26,-0.29 -0.608,-0.744 -1.076,-0.758"
       style="color:#000000;font-style:normal;font-variant:normal;font-weight:400;font-stretch:normal;font-size:medium;line-height:normal;font-family:sans-serif;text-indent:0;text-align:start;text-decoration:none;text-decoration-line:none;text-decoration-style:solid;text-decoration-color:#000000;letter-spacing:normal;word-spacing:normal;text-transform:none;writing-mode:lr-tb;direction:ltr;baseline-shift:baseline;text-anchor:start;white-space:normal;clip-rule:nonzero;display:inline;overflow:visible;visibility:visible;opacity:1;isolation:auto;mix-blend-mode:normal;color-interpolation:sRGB;color-interpolation-filters:linearRGB;solid-color:#000000;solid-opacity:1;fill:#8ab000;fill-opacity:1;fill-rule:evenodd;stroke:none;stroke-width:2.5;stroke-linecap:round;stroke-linejoin:miter;stroke-miterlimit:4;stroke-dasharray:none;stroke-dashoffset:0;stroke-opacity:1;color-rendering:auto;image-rendering:auto;shape-rendering:auto;text-rendering:auto"
       transform="matrix(2.63159,0,0,2.63157,356.842,-2270.475)"
       id="path26" />
    <g
       transform="matrix(2.63159,0,0,2.63157,467.369,-2270.475)"
       id="g36">
      <path
         id="rect28"
         style="opacity:1;fill:#aeea00;stroke-width:3;stroke-linecap:round;stroke-miterlimit:3"
         d="m -34,1010.36 h 32 c 1.662,0 3,1.338 3,3 v 6.92 c 0,1.662 -1.338,3 -3,3 h -32 c -1.662,0 -3,-1.338 -3,-3 v -6.92 c 0,-1.662 1.338,-3 3,-3 z" />
      <path
         id="rect30"
         style="opacity:1;fill:#263238;fill-opacity:0.2;stroke-width:3;stroke-linecap:round;stroke-miterlimit:3"
         d="m -34,1013.279 h 32 c 1.662,0 3,1.338 3,3 v 4 c 0,1.662 -1.338,3 -3,3 h -32 c -1.662,0 -3,-1.338 -3,-3 v -4 c 0,-1.662 1.338,-3 3,-3 z" />
      <path
         id="rect32"
         style="opacity:1;fill:#ffffff;fill-opacity:0.298039;stroke-width:3;stroke-linecap:round;stroke-miterlimit:3"
         d="m -34,1010.362 h 32 c 1.662,0 3,1.338 3,3 v 4 c 0,1.662 -1.338,3 -3,3 h -32 c -1.662,0 -3,-1.338 -3,-3 v -4 c 0,-1.662 1.338,-3 3,-3 z" />
      <path
         id="rect34"
         style="opacity:1;fill:#aeea00;stroke-width:3;stroke-linecap:round;stroke-miterlimit:3"
         d="m -34,1011.5 h 32 c 1.662,0 3,1.0954 3,2.456 v 5.729 c 0,1.3606 -1.338,2.456 -3,2.456 h -32 c -1.662,0 -3,-1.0954 -3,-2.456 v -5.729 c 0,-1.3606 1.338,-2.456 3,-2.456 z" />
    </g>
    <g
       transform="matrix(2.63159,0,0,2.63157,356.842,-2270.745)"
       id="g46">
      <path
         id="rect38"
         style="opacity:1;fill:#1976d2;stroke-width:3;stroke-linecap:round;stroke-miterlimit:3"
         d="m 8,1024.522 h 32 c 1.662,0 3,1.338 3,3 v 19.84 c 0,1.662 -1.338,3 -3,3 H 8 c -1.662,0 -3,-1.338 -3,-3 v -19.84 c 0,-1.662 1.338,-3 3,-3 z" />
      <path
         id="rect40"
         style="opacity:1;fill:#263238;fill-opacity:0.2;stroke-width:3;stroke-linecap:round;stroke-miterlimit:3"
         d="m 8,1037.3621 h 32 c 1.662,0 3,1.338 3,3 v 7 c 0,1.662 -1.338,3 -3,3 H 8 c -1.662,0 -3,-1.338 -3,-3 v -7 c 0,-1.662 1.338,-3 3,-3 z" />
      <path
         id="rect42"
         style="opacity:1;fill:#ffffff;fill-opacity:0.2;stroke-width:3;stroke-linecap:round;stroke-miterlimit:3"
         d="m 8,1024.442 h 32 c 1.662,0 3,1.338 3,3 v 7 c 0,1.662 -1.338,3 -3,3 H 8 c -1.662,0 -3,-1.338 -3,-3 v -7 c 0,-1.662 1.338,-3 3,-3 z" />
      <path
         id="rect44"
         style="opacity:1;fill:#1976d2;stroke-width:3;stroke-linecap:round;stroke-miterlimit:3"
         d="m 8,1025.662 h 32 c 1.662,0 3,1.2122 3,2.718 v 18.124 c 0,1.5058 -1.338,2.718 -3,2.718 H 8 c -1.662,0 -3,-1.2122 -3,-2.718 v -18.124 c 0,-1.5058 1.338,-2.718 3,-2.718 z" />
    </g>
    <g
       transform="matrix(2.63159,0,0,2.63157,356.842,396.264)"
       id="g52">
      <path
         d="m 24,17.75 c -2.88,0 -5.32,1.985 -6.033,4.65 H 21.18 A 3.22,3.22 0 0 1 24,20.75 3.23,3.23 0 0 1 27.25,24 3.23,3.23 0 0 1 24,27.25 3.22,3.22 0 0 1 21.07,25.4 h -3.154 c 0.642,2.766 3.132,4.85 6.084,4.85 3.434,0 6.25,-2.816 6.25,-6.25 0,-3.434 -2.816,-6.25 -6.25,-6.25"
         style="color:#000000;font-style:normal;font-variant:normal;font-weight:400;font-stretch:normal;font-size:medium;line-height:normal;font-family:sans-serif;text-indent:0;text-align:start;text-decoration:none;text-decoration-line:none;text-decoration-style:solid;text-decoration-color:#000000;letter-spacing:normal;word-spacing:normal;text-transform:none;writing-mode:lr-tb;direction:ltr;baseline-shift:baseline;text-anchor:start;white-space:normal;clip-rule:nonzero;display:inline;overflow:visible;visibility:visible;opacity:1;isolation:auto;mix-blend-mode:normal;color-interpolation:sRGB;color-interpolation-filters:linearRGB;solid-color:#000000;solid-opacity:1;fill:#0d47a1;fill-opacity:1;fill-rule:nonzero;stroke:none;stroke-width:3;stroke-linecap:round;stroke-linejoin:miter;stroke-miterlimit:4;stroke-dasharray:none;stroke-dashoffset:0;stroke-opacity:1;color-rendering:auto;image-rendering:auto;shape-rendering:auto;text-rendering:auto"
         id="path48" />
      <path
         id="circle50"
         style="opacity:1;fill:none;fill-opacity:0.403922;stroke:#0d47a1;stroke-width:1.9;stroke-linecap:round"
         d="M 33.55,24 A 9.5500002,9.5500002 0 0 1 24,33.55 9.5500002,9.5500002 0 0 1 14.45,24 9.5500002,9.5500002 0 0 1 24,14.45 9.5500002,9.5500002 0 0 1 33.55,24 Z" />
    </g>
    <g
       transform="matrix(2.63159,0,0,2.63157,356.842,-2269.159)"
       id="g58">
      <path
         id="ellipse54"
         style="opacity:1;fill:#263238;fill-opacity:0.2;stroke-width:1.9;stroke-linecap:round;stroke-opacity:0.697211"
         d="m 17.75,1016.487 a 3.375,3.875 0 0 1 -3.375,3.875 3.375,3.875 0 0 1 -3.375,-3.875 3.375,3.875 0 0 1 3.375,-3.875 3.375,3.875 0 0 1 3.375,3.875 z" />
      <path
         id="circle56"
         style="opacity:1;fill:#ffffff;stroke-width:1.9;stroke-linecap:round;stroke-opacity:0.697211"
         d="m 17.75,1016.987 a 3.375,3.375 0 0 1 -3.375,3.375 3.375,3.375 0 0 1 -3.375,-3.375 3.375,3.375 0 0 1 3.375,-3.375 3.375,3.375 0 0 1 3.375,3.375 z" />
    </g>
    <g
       transform="matrix(2.63159,0,0,2.63157,408.158,-2269.159)"
       id="g64">
      <path
         id="ellipse60"
         style="opacity:1;fill:#263238;fill-opacity:0.2;stroke-width:1.9;stroke-linecap:round;stroke-opacity:0.697211"
         d="m 17.75,1016.487 a 3.375,3.875 0 0 1 -3.375,3.875 3.375,3.875 0 0 1 -3.375,-3.875 3.375,3.875 0 0 1 3.375,-3.875 3.375,3.875 0 0 1 3.375,3.875 z" />
      <path
         id="circle62"
         style="opacity:1;fill:#ffffff;stroke-width:1.9;stroke-linecap:round;stroke-opacity:0.697211"
         d="m 17.75,1016.987 a 3.375,3.375 0 0 1 -3.375,3.375 3.375,3.375 0 0 1 -3.375,-3.375 3.375,3.375 0 0 1 3.375,-3.375 3.375,3.375 0 0 1 3.375,3.375 z" />
    </g>
    <path
       d="m 282.715,299.835 a 3.29,3.29 0 0 0 -2.662,5.336 l 9.474,12.261 A 7.9,7.9 0 0 0 289,320.257 v 18.21 a 7.877,7.877 0 0 0 7.895,7.895 h 84.21 A 7.877,7.877 0 0 0 389,338.468 v -18.211 c 0,-0.999 -0.19,-1.949 -0.525,-2.826 l 9.472,-12.26 a 3.29,3.29 0 0 0 -2.433,-5.334 3.29,3.29 0 0 0 -2.772,1.31 l -9.013,11.666 a 7.9,7.9 0 0 0 -2.624,-0.45 h -84.21 c -0.922,0 -1.8,0.163 -2.622,0.45 l -9.015,-11.666 a 3.29,3.29 0 0 0 -2.543,-1.312 m 14.18,49.527 A 7.877,7.877 0 0 0 289,357.257 v 52.21 a 7.877,7.877 0 0 0 7.895,7.895 h 84.21 A 7.877,7.877 0 0 0 389,409.468 v -52.211 a 7.877,7.877 0 0 0 -7.895,-7.895 z"
       style="color:#000000;font-style:normal;font-variant:normal;font-weight:400;font-stretch:normal;font-size:medium;line-height:normal;font-family:sans-serif;text-indent:0;text-align:start;text-decoration:none;text-decoration-line:none;text-decoration-style:solid;text-decoration-color:#000000;letter-spacing:normal;word-spacing:normal;text-transform:none;writing-mode:lr-tb;direction:ltr;baseline-shift:baseline;text-anchor:start;white-space:normal;clip-rule:nonzero;display:inline;overflow:visible;visibility:visible;opacity:1;isolation:auto;mix-blend-mode:normal;color-interpolation:sRGB;color-interpolation-filters:linearRGB;solid-color:#000000;solid-opacity:1;fill:url(#b);fill-opacity:1;fill-rule:evenodd;stroke:none;stroke-width:6.57895;stroke-linecap:round;stroke-linejoin:miter;stroke-miterlimit:4;stroke-dasharray:none;stroke-dashoffset:0;stroke-opacity:1;color-rendering:auto;image-rendering:auto;shape-rendering:auto;text-rendering:auto"
       transform="translate(81,76)"
       id="path66" />
    <g
       aria-label="එය"
       id="text70"
       style="font-size:12.3952px;line-height:100%;font-family:'DejaVu Sans';-inkscape-font-specification:'DejaVu Sans';letter-spacing:0;word-spacing:0;display:inline;overflow:visible;fill:#ffffff;stroke-width:1px;marker:none">
      <path
         d="m 518.49676,396.7845 q -4.01625,0 -5.9325,-1.575 -1.89,-1.60125 -1.89,-4.305 0,-1.54875 0.7875,-2.7825 0.7875,-1.23375 2.1,-1.9425 -0.65625,0.0525 -1.44375,0.0787 -0.76125,0 -1.39125,0 h -0.91875 v -1.33875 h 9.16125 q -0.18375,-0.91875 -0.7875,-1.65375 -0.5775,-0.76125 -1.89,-0.76125 -1.575,0 -1.575,1.39125 0,0.105 0.0263,0.28875 0.0263,0.1575 0.0525,0.28875 l -2.1525,0.18375 q -0.0788,-0.21 -0.13125,-0.525 -0.0263,-0.315 -0.0263,-0.4725 0,-1.28625 0.97125,-1.9425 0.97125,-0.65625 2.38875,-0.65625 2.23125,0 3.4125,1.33875 1.2075,1.3125 1.2075,3.49125 v 0.3675 h -4.4625 q -1.75875,0.525 -2.73,1.5225 -0.97125,0.9975 -0.97125,2.44125 0,1.12875 0.55125,1.995 0.55125,0.86625 1.86375,1.33875 1.33875,0.4725 3.64875,0.4725 2.59875,0 4.33125,-0.70875 1.7325,-0.70875 2.75625,-1.89 1.05,-1.18125 1.47,-2.65125 0.44625,-1.47 0.44625,-2.96625 0,-2.1 -0.60375,-3.6225 -0.5775,-1.5225 -1.6275,-2.5725 -0.525,0.97125 -1.33875,1.65375 -0.81375,0.65625 -2.12625,0.65625 -1.12875,0 -1.8375,-0.4725 -0.6825,-0.49875 -1.07625,-1.3125 -0.39375,-0.81375 -0.63,-1.7325 -0.21,-0.81375 -0.4725,-1.18125 -0.23625,-0.3675 -0.4725,-0.525 -0.2625,-0.0263 -0.55125,-0.0263 l 0.18375,-1.47 q 2.52,0.18375 4.725,0.8925 2.205,0.6825 3.885,1.96875 1.70625,1.28625 2.65125,3.255 0.945,1.9425 0.945,4.62 0,3.12375 -1.12875,5.59125 -1.12875,2.44125 -3.465,3.85875 -2.31,1.39125 -5.9325,1.39125 z m 1.07625,-18.5325 q 0.28875,1.07625 0.7875,1.575 0.525,0.49875 1.49625,0.49875 0.735,0 1.26,-0.39375 0.525,-0.42 0.8925,-1.23375 -1.07625,-0.735 -2.38875,-1.155 -1.28625,-0.44625 -2.70375,-0.65625 0.42,0.55125 0.65625,1.365 z"
         style="font-size:26.25px"
         id="path100" />
      <path
         d="m 545.1405,396.7845 q -1.995,0 -3.0975,-1.02375 -1.07625,-1.05 -1.60125,-2.59875 -0.315,0.945 -0.945,1.785 -0.63,0.81375 -1.575,1.33875 -0.945,0.49875 -2.205,0.49875 -2.07375,0 -3.33375,-1.365 -1.26,-1.365 -1.26,-4.17375 0,-1.995 0.81375,-3.4125 0.84,-1.44375 2.28375,-2.23125 1.47,-0.7875 3.36,-0.7875 0.28875,0 0.65625,0.0263 0.39375,0 0.60375,0.0525 l -0.13125,1.33875 q -0.315,-0.0525 -0.5775,-0.0525 -0.2625,0 -0.60375,0 -1.26,0 -2.3625,0.4725 -1.1025,0.44625 -1.785,1.4175 -0.6825,0.97125 -0.6825,2.52 0,1.65375 0.86625,2.54625 0.8925,0.8925 2.44125,0.8925 1.23375,0 1.96875,-0.39375 0.76125,-0.39375 1.18125,-1.05 0.42,-0.65625 0.60375,-1.4175 h 1.39125 q 0.1575,1.33875 1.12875,2.1 0.97125,0.76125 2.49375,0.76125 1.6275,0 2.52,-0.81375 0.91875,-0.84 0.91875,-2.44125 0,-1.3125 -0.70875,-2.33625 -0.6825,-1.02375 -2.17875,-1.60125 -1.47,-0.5775 -3.85875,-0.5775 h -0.34125 V 386.127 q 0,-2.415 1.28625,-3.7275 1.28625,-1.33875 3.22875,-1.33875 1.8375,0 2.65125,0.8925 0.81375,0.8925 0.81375,2.28375 0,0.60375 -0.105,1.07625 -0.0788,0.44625 -0.21,0.7875 l -1.33875,-0.42 q 0.13125,-0.28875 0.18375,-0.63 0.0525,-0.34125 0.0525,-0.60375 0,-0.91875 -0.60375,-1.365 -0.60375,-0.44625 -1.68,-0.44625 -1.2075,0 -1.89,0.65625 -0.65625,0.65625 -0.86625,1.65375 1.91625,0.0788 3.54375,0.76125 1.6275,0.65625 2.59875,1.995 0.9975,1.33875 0.9975,3.43875 0,2.5725 -1.2075,4.12125 -1.18125,1.5225 -3.43875,1.5225 z"
         style="font-size:26.25px"
         id="path102" />
    </g>
    <g
       aria-label="වෙතින් ලබාගන්න"
       id="text74"
       style="font-size:12.3952px;line-height:100%;font-family:'DejaVu Sans';-inkscape-font-specification:'DejaVu Sans';letter-spacing:0;word-spacing:0;display:inline;overflow:visible;fill:#ffffff;stroke-width:1px;marker:none">
      <path
         d="m 510.22801,482.94851 q 0,-2.07375 0.945,-3.6225 0.97125,-1.575 2.75625,-2.44125 1.785,-0.86625 4.305,-0.86625 1.60125,0 2.80875,0.23625 1.2075,0.21 2.205,0.60375 0.9975,0.39375 1.9425,0.91875 l -0.735,1.28625 q -1.18125,-0.7875 -2.73,-1.23375 -1.54875,-0.4725 -3.465,-0.4725 -1.8375,0 -3.3075,0.5775 -1.47,0.5775 -2.31,1.785 -0.84,1.18125 -0.84,2.9925 0,1.4175 0.60375,2.5725 0.63,1.155 1.96875,1.8375 1.33875,0.65625 3.54375,0.65625 2.12625,0 3.3075,-0.525 1.18125,-0.55125 1.65375,-1.39125 0.4725,-0.84 0.4725,-1.75875 0,-1.02375 -0.76125,-1.91625 -0.735,-0.8925 -2.415,-1.18125 0.4725,0.34125 0.65625,0.84 0.18375,0.49875 0.18375,0.97125 0,1.365 -0.84,2.07375 -0.84,0.6825 -2.23125,0.6825 -1.49625,0 -2.31,-0.7875 -0.81375,-0.81375 -0.81375,-2.1 0,-1.39125 1.02375,-2.23125 1.05,-0.86625 3.045,-0.86625 1.995,0 3.3075,0.65625 1.3125,0.65625 1.96875,1.75875 0.6825,1.07625 0.6825,2.415 0,1.70625 -0.76125,3.045 -0.76125,1.3125 -2.28375,2.07375 -1.49625,0.76125 -3.80625,0.76125 -2.75625,0 -4.4625,-0.9975 -1.70625,-0.9975 -2.52,-2.6775 -0.7875,-1.68 -0.7875,-3.675 z m 9.2925,-0.315 q 0,-0.5775 -0.3675,-1.02375 -0.3675,-0.4725 -1.23375,-0.4725 -0.6825,0 -1.155,0.42 -0.44625,0.39375 -0.44625,1.07625 0,0.70875 0.39375,1.155 0.39375,0.44625 1.23375,0.44625 0.735,0 1.155,-0.39375 0.42,-0.39375 0.42,-1.2075 z"
         style="font-size:26.25px"
         id="path105" />
      <path
         d="m 535.19178,490.29851 q -4.01625,0 -6.16875,-1.785 -2.12625,-1.785 -2.12625,-4.8825 0,-1.4175 0.60375,-2.54625 0.63,-1.155 1.995,-1.8375 0.81375,-0.39375 1.89,-0.60375 1.1025,-0.21 2.835,-0.21 h 2.1525 q -0.1575,-0.9975 -0.7875,-1.70625 -0.63,-0.70875 -2.02125,-0.70875 -1.47,0 -1.47,1.39125 0,0.3675 0.105,0.76125 l -2.0475,0.2625 q -0.105,-0.21 -0.21,-0.49875 -0.0788,-0.28875 -0.0788,-0.76125 0,-1.28625 0.945,-1.9425 0.945,-0.65625 2.3625,-0.65625 2.33625,0 3.49125,1.3125 1.18125,1.28625 1.18125,3.5175 v 0.3675 h -3.43875 q -1.81125,0 -2.80875,0.21 -0.97125,0.18375 -1.6275,0.55125 -0.81375,0.49875 -1.155,1.2075 -0.34125,0.6825 -0.34125,1.5225 0,2.07375 1.68,3.17625 1.70625,1.1025 4.83,1.1025 2.5725,0 4.305,-0.70875 1.7325,-0.735 2.75625,-1.96875 1.02375,-1.23375 1.44375,-2.75625 0.44625,-1.54875 0.44625,-3.15 0,-2.49375 -0.76125,-4.1475 -0.76125,-1.68 -2.02125,-2.65125 -1.23375,-0.9975 -2.73,-1.4175 -1.47,-0.44625 -2.94,-0.44625 -1.995,0 -3.885,0.5775 -1.86375,0.55125 -3.78,1.995 l -0.8925,-1.2075 q 1.75875,-1.23375 3.78,-1.96875 2.02125,-0.76125 4.64625,-0.76125 1.995,0 3.8325,0.60375 1.8375,0.5775 3.28125,1.86375 1.44375,1.26 2.28375,3.255 0.84,1.995 0.84,4.83 0,2.2575 -0.63,4.22625 -0.60375,1.9425 -1.89,3.43875 -1.28625,1.47 -3.255,2.31 -1.9425,0.84 -4.62,0.84 z"
         style="font-size:26.25px"
         id="path107" />
      <path
         d="m 555.61426,490.29851 q -1.07625,0 -2.205,-0.23625 -1.1025,-0.23625 -2.0475,-0.76125 -0.945,-0.525 -1.5225,-1.4175 -0.5775,-0.8925 -0.5775,-2.205 l -1.02375,-0.1575 -1.155,-0.8925 q 1.75875,-1.70625 3.33375,-3.2025 1.60125,-1.5225 3.0975,-2.75625 -0.44625,-1.02375 -0.9975,-1.575 -0.55125,-0.55125 -1.33875,-0.55125 -0.81375,0 -1.12875,0.5775 -0.28875,0.55125 -0.28875,1.1025 0,0.55125 0.105,0.97125 0.13125,0.42 0.2625,0.70875 l -1.995,0.49875 q -0.2625,-0.39375 -0.44625,-0.97125 -0.1575,-0.60375 -0.1575,-1.155 0,-1.6275 0.97125,-2.415 0.97125,-0.81375 2.415,-0.81375 1.365,0 2.2575,0.81375 0.91875,0.81375 1.44375,1.91625 0.9975,-0.735 1.89,-1.3125 -1.02375,-0.70875 -1.70625,-1.7325 -0.6825,-1.02375 -0.6825,-2.38875 0,-1.3125 0.7875,-2.3625 0.81375,-1.07625 2.415,-1.68 1.60125,-0.63 4.01625,-0.63 2.23125,0 3.675,0.44625 1.47,0.42 2.28375,1.12875 0.84,0.70875 1.155,1.54875 0.34125,0.81375 0.34125,1.6275 0,1.28625 -0.4725,2.1 -0.4725,0.81375 -1.18125,1.33875 1.5225,1.05 2.33625,2.835 0.81375,1.785 0.81375,4.12125 0,2.12625 -0.6825,3.80625 -0.6825,1.68 -2.0475,2.65125 -1.33875,0.97125 -3.4125,0.97125 -0.735,0 -1.39125,-0.105 -0.65625,-0.105 -1.4175,-0.39375 l 0.42,-1.28625 q 1.1025,0.42 2.12625,0.42 2.5725,0 3.64875,-1.5225 1.07625,-1.54875 1.07625,-4.12125 0,-1.75875 -0.70875,-3.2025 -0.6825,-1.47 -2.12625,-2.33625 -1.4175,-0.8925 -3.64875,-0.8925 -1.9425,0 -3.33375,0.39375 -1.365,0.39375 -2.70375,1.23375 1.70625,0.0263 2.835,0.4725 1.12875,0.44625 1.785,1.155 0.6825,0.6825 0.9975,1.47 0.34125,0.76125 0.44625,1.47 0.105,0.70875 0.105,1.155 0,0.9975 -0.2625,2.07375 -0.2625,1.07625 -0.97125,1.995 -0.6825,0.91875 -1.995,1.49625 -1.3125,0.5775 -3.4125,0.5775 z m 0.0788,-17.50875 q 0,1.02375 0.60375,1.7325 0.63,0.70875 1.6275,1.18125 1.1025,-0.55125 2.23125,-0.84 1.12875,-0.28875 2.31,-0.28875 1.7325,0 3.12375,0.525 0.7875,-0.34125 1.28625,-0.91875 0.49875,-0.5775 0.49875,-1.47 0,-1.33875 -1.44375,-2.17875 -1.4175,-0.84 -4.54125,-0.84 -2.6775,0 -4.2,0.735 -1.49625,0.735 -1.49625,2.3625 z m -5.0925,12.0225 q 0,1.02375 0.70875,1.6275 0.70875,0.60375 1.8375,0.86625 1.12875,0.23625 2.415,0.23625 2.80875,0 4.01625,-1.07625 1.2075,-1.07625 1.2075,-2.65125 0,-1.02375 -0.42,-1.9425 -0.42,-0.91875 -1.54875,-1.49625 -1.12875,-0.60375 -3.255,-0.60375 -0.105,0 -0.4725,0 -0.34125,0 -0.81375,0.0263 -1.28625,1.02375 -2.4675,2.12625 -1.155,1.07625 -2.23125,2.205 l 1.1025,0.1575 q -0.0263,0.18375 -0.0525,0.28875 -0.0263,0.105 -0.0263,0.23625 z"
         style="font-size:26.25px"
         id="path109" />
      <path
         d="m 579.92175,490.29851 q -2.4675,0 -4.1475,-0.9975 -1.65375,-0.9975 -2.49375,-2.73 -0.84,-1.75875 -0.84,-3.99 0,-0.18375 0,-0.315 0.0263,-0.1575 0.0525,-0.28875 l 1.33875,0.105 q -0.0263,0.18375 -0.0525,0.315 0.1575,0.0263 0.28875,0.0263 0.70875,0 1.3125,-0.18375 0.63,-0.21 1.39125,-0.86625 0.76125,-0.65625 1.89,-1.96875 0.2625,-0.28875 0.4725,-0.525 -0.44625,-1.12875 -1.02375,-1.7325 -0.55125,-0.60375 -1.39125,-0.60375 -0.81375,0 -1.12875,0.5775 -0.28875,0.55125 -0.28875,1.1025 0,0.49875 0.105,0.91875 0.105,0.42 0.28875,0.735 l -2.02125,0.525 q -0.2625,-0.39375 -0.44625,-0.97125 -0.1575,-0.60375 -0.1575,-1.155 0,-1.6275 0.97125,-2.415 0.97125,-0.81375 2.415,-0.81375 1.365,0 2.31,0.7875 0.97125,0.76125 1.44375,1.86375 1.28625,-1.28625 2.91375,-2.205 1.6275,-0.91875 3.9375,-0.91875 2.44125,0 4.1475,1.1025 1.70625,1.1025 2.59875,2.94 0.91875,1.8375 0.91875,4.0425 0,3.59625 -1.575,5.59125 -1.54875,1.995 -4.59375,1.995 -1.07625,0 -1.89,-0.1575 -0.81375,-0.13125 -1.28625,-0.34125 l 0.34125,-1.33875 q 0.70875,0.2625 1.365,0.3675 0.65625,0.105 1.65375,0.105 2.02125,0 3.15,-1.5225 1.155,-1.5225 1.155,-4.0425 0,-2.1525 -0.84,-3.59625 -0.84,-1.44375 -2.31,-2.17875 -1.44375,-0.735 -3.3075,-0.735 -1.785,0 -2.94,0.39375 -1.12875,0.3675 -2.23125,1.26 2.54625,0.18375 3.91125,1.60125 1.39125,1.4175 1.39125,3.885 0,1.07625 -0.315,2.205 -0.28875,1.1025 -1.05,2.0475 -0.735,0.945 -2.07375,1.5225 -1.3125,0.5775 -3.36,0.5775 z m -5.69625,-6.4575 q -0.1575,0 -0.315,-0.0263 0.3675,1.575 1.81125,2.65125 1.47,1.07625 4.2,1.07625 2.49375,0 3.91125,-1.07625 1.4175,-1.1025 1.4175,-3.07125 0,-1.68 -1.155,-2.65125 -1.12875,-0.97125 -3.38625,-0.97125 -0.28875,0 -0.55125,0 -0.1575,0.18375 -0.315,0.39375 -0.1575,0.18375 -0.34125,0.39375 -1.05,1.3125 -1.9425,2.02125 -0.86625,0.70875 -1.68,0.9975 -0.7875,0.2625 -1.65375,0.2625 z m 19.29375,-19.08375 q 1.1025,0 1.68,0.735 0.60375,0.70875 0.60375,1.81125 0,1.1025 -0.5775,1.8375 -0.55125,0.70875 -1.7325,0.70875 -0.34125,0 -0.735,-0.105 -0.3675,-0.13125 -0.6825,-0.39375 0.0263,0.39375 0.0263,0.7875 0,0.39375 0,0.7875 v 6.27375 h -1.365 v -9.42375 q 0,-0.9975 -0.39375,-1.3125 -0.39375,-0.34125 -0.7875,-0.34125 -0.23625,0 -0.39375,0.0263 -0.1575,0 -0.23625,0.0263 l -0.21,-1.18125 q 0.21,-0.105 0.4725,-0.1575 0.28875,-0.0788 0.76125,-0.0788 0.4725,0 0.8925,0.2625 0.42,0.23625 0.70875,0.70875 0.81375,-0.97125 1.96875,-0.97125 z m -0.21,1.155 q -0.44625,0 -0.76125,0.2625 -0.28875,0.2625 -0.44625,0.70875 v 0.86625 q 0.1575,0.42 0.44625,0.6825 0.28875,0.23625 0.81375,0.23625 1.07625,0 1.07625,-1.33875 0,-1.4175 -1.12875,-1.4175 z"
         style="font-size:26.25px"
         id="path111" />
      <path
         d="m 620.81924,496.75601 q -3.22875,0 -5.69625,-1.26 -2.44125,-1.23375 -3.8325,-3.70125 -1.365,-2.4675 -1.365,-6.09 0,-2.3625 0.7875,-4.43625 0.7875,-2.1 2.33625,-3.70125 1.54875,-1.6275 3.78,-2.54625 2.2575,-0.91875 5.17125,-0.91875 2.31,0 3.85875,0.525 1.575,0.49875 2.49375,1.365 0.945,0.86625 1.33875,1.9425 0.42,1.05 0.42,2.17875 0,1.44375 -0.55125,2.6775 -0.525,1.2075 -1.65375,1.9425 -1.12875,0.735 -2.91375,0.735 -2.205,0 -3.2025,-0.9975 -0.97125,-0.9975 -0.97125,-2.44125 0,-0.6825 0.23625,-1.26 0.2625,-0.5775 0.70875,-1.02375 -0.84,0.0788 -1.7325,0.0788 h -1.89 v -1.39125 h 8.37375 v 1.39125 h -2.80875 q -1.28625,0.65625 -1.28625,1.91625 0,0.86625 0.60375,1.365 0.63,0.4725 2.07375,0.4725 1.65375,0 2.5725,-0.8925 0.91875,-0.91875 0.91875,-2.65125 0,-1.2075 -0.60375,-2.23125 -0.5775,-1.05 -1.995,-1.68 -1.4175,-0.65625 -3.9375,-0.65625 -3.12375,0 -5.3025,1.28625 -2.17875,1.26 -3.33375,3.49125 -1.12875,2.205 -1.12875,5.04 0,4.515 2.3625,6.9825 2.38875,2.49375 6.74625,2.49375 3.8325,0 5.8275,-1.70625 1.995,-1.70625 1.995,-4.83 0,-0.21 -0.0263,-0.60375 0,-0.39375 -0.0525,-0.6825 l 1.47,-0.0788 q 0.0525,0.34125 0.0525,0.7875 0.0263,0.44625 0.0263,0.97125 0,2.3625 -1.12875,4.2 -1.1025,1.8375 -3.3075,2.8875 -2.17875,1.05 -5.43375,1.05 z"
         style="font-size:26.25px"
         id="path113" />
      <path
         d="m 645.6255,490.29851 q -1.54875,0 -2.4675,-0.70875 -0.8925,-0.735 -0.8925,-2.17875 0,-0.7875 0.28875,-1.4175 0.28875,-0.63 0.65625,-1.23375 0.3675,-0.63 0.65625,-1.28625 0.28875,-0.6825 0.28875,-1.54875 0,-1.89 -1.26,-2.86125 -1.26,-0.97125 -3.38625,-0.97125 -2.49375,0 -4.06875,1.5225 -1.54875,1.49625 -1.54875,4.305 0,1.39125 0.315,2.28375 0.315,0.86625 0.945,1.6275 -0.18375,-0.44625 -0.18375,-0.91875 0,-1.44375 0.8925,-2.1525 0.91875,-0.735 2.205,-0.735 1.6275,0 2.4675,0.86625 0.86625,0.86625 0.86625,2.23125 0,1.49625 -0.8925,2.33625 -0.86625,0.84 -2.415,0.84 -1.68,0 -2.9925,-0.84 -1.3125,-0.86625 -2.0475,-2.38875 -0.735,-1.54875 -0.735,-3.57 0,-1.995 0.60375,-3.465 0.63,-1.47 1.68,-2.44125 1.07625,-0.97125 2.415,-1.44375 1.33875,-0.49875 2.7825,-0.49875 2.07375,0 3.43875,0.735 1.39125,0.70875 2.1,1.9425 0.70875,1.2075 0.70875,2.70375 0,1.07625 -0.315,1.86375 -0.28875,0.7875 -0.70875,1.4175 -0.39375,0.63 -0.70875,1.2075 -0.28875,0.55125 -0.28875,1.18125 0,1.18125 1.575,1.18125 1.155,0 2.28375,-0.7875 1.155,-0.81375 1.89,-2.44125 0.76125,-1.65375 0.76125,-4.17375 0,-2.12625 -0.49875,-3.96375 -0.49875,-1.86375 -1.575,-3.255 -1.07625,-1.39125 -2.7825,-2.17875 -1.70625,-0.7875 -4.12125,-0.7875 -2.59875,0 -4.5675,0.65625 -1.96875,0.65625 -3.78,1.9425 l -0.8925,-1.2075 q 1.81125,-1.18125 3.99,-1.96875 2.205,-0.7875 5.27625,-0.7875 5.17125,0 7.875,3.17625 2.73,3.17625 2.73,8.89875 0,3.15 -0.91875,5.22375 -0.91875,2.0475 -2.415,3.07125 -1.49625,0.9975 -3.22875,0.9975 z m -7.56,-4.935 q -0.7875,0 -1.28625,0.4725 -0.4725,0.44625 -0.4725,1.365 0,0.65625 0.39375,1.18125 0.42,0.525 1.39125,0.525 0.7875,0 1.28625,-0.44625 0.525,-0.4725 0.525,-1.26 0,-0.84 -0.44625,-1.33875 -0.42,-0.49875 -1.39125,-0.49875 z"
         style="font-size:26.25px"
         id="path115" />
      <path
         d="m 662.058,483.52601 q 0,3.64875 -1.26,5.22375 -1.23375,1.54875 -3.38625,1.54875 -1.5225,0 -2.54625,-0.76125 -0.9975,-0.76125 -1.65375,-2.12625 l 1.33875,-0.65625 q 0.4725,0.945 1.05,1.60125 0.5775,0.63 1.54875,0.63 1.3125,0 1.9425,-1.28625 0.65625,-1.28625 0.65625,-4.17375 0,-2.8875 -0.65625,-4.1475 -0.63,-1.26 -1.9425,-1.26 -0.97125,0 -1.575,0.63 -0.5775,0.60375 -0.9975,1.49625 l -1.365,-0.65625 q 0.70875,-1.23375 1.70625,-1.995 1.02375,-0.7875 2.49375,-0.7875 2.1525,0 3.38625,1.54875 1.26,1.54875 1.26,5.17125 z"
         style="font-size:26.25px"
         id="path117" />
      <path
         d="m 678.88424,490.24601 q -1.575,0 -2.54625,-0.2625 l 0.34125,-1.365 q 0.4725,0.13125 0.945,0.21 0.49875,0.0525 1.23375,0.0525 2.4675,0 3.80625,-1.49625 1.33875,-1.5225 1.33875,-4.2525 0,-2.80875 -1.28625,-4.515 -1.26,-1.7325 -3.75375,-1.7325 -2.02125,0 -3.3075,1.155 -1.26,1.12875 -1.89,3.22875 0.13125,0 0.28875,0 1.44375,0 2.38875,0.84 0.945,0.81375 0.945,2.80875 0,0.91875 -0.315,1.86375 -0.315,0.945 -1.05,1.75875 -0.70875,0.7875 -1.89,1.28625 -1.18125,0.4725 -2.8875,0.4725 -2.28375,0 -3.85875,-0.945 -1.54875,-0.97125 -2.3625,-2.70375 -0.7875,-1.7325 -0.7875,-4.01625 0,-2.70375 1.02375,-4.48875 1.02375,-1.785 2.7825,-2.6775 1.75875,-0.8925 3.9375,-0.8925 0.3675,0 0.84,0.0262 0.4725,0.0263 0.76125,0.0788 l -0.105,1.365 q -0.2625,-0.0525 -0.63,-0.0788 -0.3675,-0.0263 -0.84,-0.0263 -2.75625,0 -4.4625,1.6275 -1.70625,1.6275 -1.70625,4.62 0,2.3625 1.3125,3.85875 1.3125,1.49625 4.1475,1.49625 1.75875,0 2.73,-0.44625 0.9975,-0.4725 1.39125,-1.155 0.42,-0.70875 0.42,-1.4175 0,-1.2075 -0.60375,-1.575 -0.5775,-0.3675 -1.39125,-0.3675 -0.1575,0 -0.315,0.0263 -0.1575,0 -0.3675,0.0263 l -0.97125,-0.2625 q 0.60375,-3.96375 2.49375,-5.88 1.91625,-1.91625 4.62,-1.91625 2.1,0 3.5175,1.05 1.4175,1.05 2.12625,2.86125 0.735,1.785 0.735,3.99 0,2.75625 -0.91875,4.4625 -0.91875,1.70625 -2.4675,2.52 -1.5225,0.7875 -3.4125,0.7875 z"
         style="font-size:26.25px"
         id="path119" />
      <path
         d="m 695.34298,490.29851 q -2.4675,0 -4.1475,-0.9975 -1.65375,-0.9975 -2.49375,-2.73 -0.84,-1.75875 -0.84,-3.99 0,-0.18375 0,-0.315 0.0263,-0.1575 0.0525,-0.28875 l 1.33875,0.105 q -0.0263,0.18375 -0.0525,0.315 0.1575,0.0263 0.28875,0.0263 0.70875,0 1.3125,-0.18375 0.63,-0.21 1.39125,-0.86625 0.76125,-0.65625 1.89,-1.96875 0.2625,-0.28875 0.4725,-0.525 -0.44625,-1.12875 -1.02375,-1.7325 -0.55125,-0.60375 -1.39125,-0.60375 -0.81375,0 -1.12875,0.5775 -0.28875,0.55125 -0.28875,1.1025 0,0.49875 0.105,0.91875 0.105,0.42 0.28875,0.735 l -2.02125,0.525 q -0.2625,-0.39375 -0.44625,-0.97125 -0.1575,-0.60375 -0.1575,-1.155 0,-1.6275 0.97125,-2.415 0.97125,-0.81375 2.415,-0.81375 1.365,0 2.31,0.7875 0.97125,0.76125 1.44375,1.86375 1.28625,-1.28625 2.91375,-2.205 1.6275,-0.91875 3.9375,-0.91875 2.44125,0 4.1475,1.1025 1.70625,1.1025 2.59875,2.94 0.91875,1.8375 0.91875,4.0425 0,3.59625 -1.575,5.59125 -1.54875,1.995 -4.59375,1.995 -1.07625,0 -1.89,-0.1575 -0.81375,-0.13125 -1.28625,-0.34125 l 0.34125,-1.33875 q 0.70875,0.2625 1.365,0.3675 0.65625,0.105 1.65375,0.105 2.02125,0 3.15,-1.5225 1.155,-1.5225 1.155,-4.0425 0,-2.1525 -0.84,-3.59625 -0.84,-1.44375 -2.31,-2.17875 -1.44375,-0.735 -3.3075,-0.735 -1.785,0 -2.94,0.39375 -1.12875,0.3675 -2.23125,1.26 2.54625,0.18375 3.91125,1.60125 1.39125,1.4175 1.39125,3.885 0,1.07625 -0.315,2.205 -0.28875,1.1025 -1.05,2.0475 -0.735,0.945 -2.07375,1.5225 -1.3125,0.5775 -3.36,0.5775 z m -5.69625,-6.4575 q -0.1575,0 -0.315,-0.0263 0.3675,1.575 1.81125,2.65125 1.47,1.07625 4.2,1.07625 2.49375,0 3.91125,-1.07625 1.4175,-1.1025 1.4175,-3.07125 0,-1.68 -1.155,-2.65125 -1.12875,-0.97125 -3.38625,-0.97125 -0.28875,0 -0.55125,0 -0.1575,0.18375 -0.315,0.39375 -0.1575,0.18375 -0.34125,0.39375 -1.05,1.3125 -1.9425,2.02125 -0.86625,0.70875 -1.68,0.9975 -0.7875,0.2625 -1.65375,0.2625 z m 19.29375,-19.08375 q 1.1025,0 1.68,0.735 0.60375,0.70875 0.60375,1.81125 0,1.1025 -0.5775,1.8375 -0.55125,0.70875 -1.7325,0.70875 -0.34125,0 -0.735,-0.105 -0.3675,-0.13125 -0.6825,-0.39375 0.0263,0.39375 0.0263,0.7875 0,0.39375 0,0.7875 v 6.27375 h -1.365 v -9.42375 q 0,-0.9975 -0.39375,-1.3125 -0.39375,-0.34125 -0.7875,-0.34125 -0.23625,0 -0.39375,0.0263 -0.1575,0 -0.23625,0.0263 l -0.21,-1.18125 q 0.21,-0.105 0.4725,-0.1575 0.28875,-0.0788 0.76125,-0.0788 0.4725,0 0.8925,0.2625 0.42,0.23625 0.70875,0.70875 0.81375,-0.97125 1.96875,-0.97125 z m -0.21,1.155 q -0.44625,0 -0.76125,0.2625 -0.28875,0.2625 -0.44625,0.70875 v 0.86625 q 0.1575,0.42 0.44625,0.6825 0.28875,0.23625 0.81375,0.23625 1.07625,0 1.07625,-1.33875 0,-1.4175 -1.12875,-1.4175 z"
         style="font-size:26.25px"
         id="path121" />
      <path
         d="m 719.78173,490.29851 q -2.4675,0 -4.1475,-0.9975 -1.65375,-0.9975 -2.49375,-2.73 -0.84,-1.75875 -0.84,-3.99 0,-0.18375 0,-0.315 0.0263,-0.1575 0.0525,-0.28875 l 1.33875,0.105 q -0.0263,0.18375 -0.0525,0.315 0.1575,0.0263 0.28875,0.0263 0.70875,0 1.3125,-0.18375 0.63,-0.21 1.39125,-0.86625 0.76125,-0.65625 1.89,-1.96875 0.2625,-0.28875 0.4725,-0.525 -0.44625,-1.12875 -1.02375,-1.7325 -0.55125,-0.60375 -1.39125,-0.60375 -0.81375,0 -1.12875,0.5775 -0.28875,0.55125 -0.28875,1.1025 0,0.49875 0.105,0.91875 0.105,0.42 0.28875,0.735 l -2.02125,0.525 q -0.2625,-0.39375 -0.44625,-0.97125 -0.1575,-0.60375 -0.1575,-1.155 0,-1.6275 0.97125,-2.415 0.97125,-0.81375 2.415,-0.81375 1.365,0 2.31,0.7875 0.97125,0.76125 1.44375,1.86375 1.28625,-1.28625 2.91375,-2.205 1.6275,-0.91875 3.9375,-0.91875 2.44125,0 4.1475,1.1025 1.70625,1.1025 2.59875,2.94 0.91875,1.8375 0.91875,4.0425 0,3.59625 -1.575,5.59125 -1.54875,1.995 -4.59375,1.995 -1.07625,0 -1.89,-0.1575 -0.81375,-0.13125 -1.28625,-0.34125 l 0.34125,-1.33875 q 0.70875,0.2625 1.365,0.3675 0.65625,0.105 1.65375,0.105 2.02125,0 3.15,-1.5225 1.155,-1.5225 1.155,-4.0425 0,-2.1525 -0.84,-3.59625 -0.84,-1.44375 -2.31,-2.17875 -1.44375,-0.735 -3.3075,-0.735 -1.785,0 -2.94,0.39375 -1.12875,0.3675 -2.23125,1.26 2.54625,0.18375 3.91125,1.60125 1.39125,1.4175 1.39125,3.885 0,1.07625 -0.315,2.205 -0.28875,1.1025 -1.05,2.0475 -0.735,0.945 -2.07375,1.5225 -1.3125,0.5775 -3.36,0.5775 z m -5.69625,-6.4575 q -0.1575,0 -0.315,-0.0263 0.3675,1.575 1.81125,2.65125 1.47,1.07625 4.2,1.07625 2.49375,0 3.91125,-1.07625 1.4175,-1.1025 1.4175,-3.07125 0,-1.68 -1.155,-2.65125 -1.12875,-0.97125 -3.38625,-0.97125 -0.28875,0 -0.55125,0 -0.1575,0.18375 -0.315,0.39375 -0.1575,0.18375 -0.34125,0.39375 -1.05,1.3125 -1.9425,2.02125 -0.86625,0.70875 -1.68,0.9975 -0.7875,0.2625 -1.65375,0.2625 z"
         style="font-size:26.25px"
         id="path123" />
    </g>
    <g
       aria-label="F-Droid"
       id="text78"
       style="font-weight:700;font-size:29.7088px;line-height:100%;font-family:Rokkitt;-inkscape-font-specification:'Rokkitt Bold';letter-spacing:0;word-spacing:0;display:inline;overflow:visible;fill:#ffffff;stroke-width:1px;marker:none">
      <path
         d="m 510.40051,457.11905 v 6.83594 h 23.55469 v -6.83594 l -6.09375,-1.17188 v -15.625 h 19.92188 v -8.78906 h -19.92188 v -15.66406 h 18.55469 l 0.50781,6.79687 h 8.75 v -15.58593 h -45.27344 v 6.875 l 6.05469,1.17187 v 40.82031 z"
         style="font-size:80px;line-height:100%;font-family:'Roboto Slab';-inkscape-font-specification:'Roboto Slab Bold'"
         id="path126" />
      <path
         d="m 584.77551,444.03311 v -8.78906 h -22.03125 v 8.78906 z"
         style="font-size:80px;line-height:100%;font-family:'Roboto Slab';-inkscape-font-specification:'Roboto Slab Bold'"
         id="path128" />
      <path
         d="m 617.23645,407.07999 h -25.58594 v 6.875 l 6.05469,1.17187 v 40.82031 l -6.05469,1.17188 v 6.83594 h 25.58594 c 13.90625,0 23.94531,-9.76563 23.94531,-23.71094 v -9.41406 c 0,-13.90625 -10.03906,-23.75 -23.94531,-23.75 z m -8.125,8.78906 h 7.53906 c 8.16407,0 13.08594,6.09375 13.08594,14.88281 v 9.49219 c 0,8.90625 -4.92187,14.96094 -13.08594,14.96094 h -7.53906 z"
         style="font-size:80px;line-height:100%;font-family:'Roboto Slab';-inkscape-font-specification:'Roboto Slab Bold'"
         id="path130" />
      <path
         d="m 647.90051,457.11905 v 6.83594 h 22.34375 v -6.83594 l -5.46875,-1.17188 v -20.70312 c 1.25,-2.38281 3.28125,-3.63281 6.64063,-3.47656 l 5.625,0.27343 1.21094,-10.50781 c -1.09375,-0.39062 -2.89063,-0.625 -4.49219,-0.625 -4.10156,0 -7.26563,2.57813 -9.25781,6.95313 l -0.0781,-0.9375 -0.42969,-5.23438 h -16.67968 v 6.875 l 6.05468,1.17188 v 26.21093 z"
         style="font-size:80px;line-height:100%;font-family:'Roboto Slab';-inkscape-font-specification:'Roboto Slab Bold'"
         id="path132" />
      <path
         d="m 680.86926,442.43155 v 0.82031 c 0,12.69531 7.46094,21.52344 20,21.52344 12.38282,0 19.88282,-8.82813 19.88282,-21.52344 v -0.82031 c 0,-12.65625 -7.46094,-21.52344 -19.96094,-21.52344 -12.46094,0 -19.92188,8.90625 -19.92188,21.52344 z m 11.40625,0.82031 v -0.82031 c 0,-7.5 2.57813,-12.73438 8.51563,-12.73438 5.9375,0 8.59375,5.23438 8.59375,12.73438 v 0.82031 c 0,7.65625 -2.61719,12.77344 -8.51563,12.77344 -6.05468,0 -8.59375,-5.07813 -8.59375,-12.77344 z"
         style="font-size:80px;line-height:100%;font-family:'Roboto Slab';-inkscape-font-specification:'Roboto Slab Bold'"
         id="path134" />
      <path
         d="m 742.27551,412.74405 v -9.72656 h -11.79687 v 9.72656 z m -16.91406,44.375 v 6.83594 h 22.38281 v -6.83594 l -5.46875,-1.17188 v -34.25781 h -17.5 v 6.875 l 6.09375,1.17188 v 26.21093 z"
         style="font-size:80px;line-height:100%;font-family:'Roboto Slab';-inkscape-font-specification:'Roboto Slab Bold'"
         id="path136" />
      <path
         d="m 778.99426,458.79874 0.85938,5.15625 h 15.35156 v -6.83594 l -5.46875,-1.17188 v -52.92968 h -17.5 v 6.875 l 6.09375,1.17187 v 15.15625 c -2.53906,-3.39844 -5.9375,-5.3125 -10.15625,-5.3125 -10.46875,0 -16.52344,8.94531 -16.52344,22.26563 v 0.82031 c 0,12.5 6.01563,20.78125 16.44532,20.78125 4.64843,0 8.24218,-2.07031 10.89843,-5.97656 z m -15.9375,-14.80469 v -0.82031 c 0,-7.96875 2.42188,-13.39844 8.00782,-13.39844 3.28125,0 5.70312,1.5625 7.26562,4.25781 v 17.92969 c -1.5625,2.53906 -4.02344,3.94531 -7.34375,3.94531 -5.625,0 -7.92969,-4.53125 -7.92969,-11.91406 z"
         style="font-size:80px;line-height:100%;font-family:'Roboto Slab';-inkscape-font-specification:'Roboto Slab Bold'"
         id="path138" />
    </g>
  </g>
</svg>
