<?xml version="1.0" encoding="UTF-8" standalone="no"?>
<svg
   width="565"
   height="180"
   version="1.1"
   id="svg82"
   sodipodi:docname="get-it-on-zh-tw.svg"
   xmlns:inkscape="http://www.inkscape.org/namespaces/inkscape"
   xmlns:sodipodi="http://sodipodi.sourceforge.net/DTD/sodipodi-0.dtd"
   xmlns:xlink="http://www.w3.org/1999/xlink"
   xmlns="http://www.w3.org/2000/svg"
   xmlns:svg="http://www.w3.org/2000/svg">
  <sodipodi:namedview
     id="namedview84"
     pagecolor="#ffffff"
     bordercolor="#000000"
     borderopacity="0.25"
     inkscape:showpageshadow="2"
     inkscape:pageopacity="0.0"
     inkscape:pagecheckerboard="0"
     inkscape:deskcolor="#d1d1d1" />
  <defs
     id="defs8">
    <radialGradient
       xlink:href="#a"
       id="b"
       cx="113"
       cy="-12.89"
       r="59.662"
       fx="113"
       fy="-12.89"
       gradientTransform="matrix(0 1.96105 -1.97781 0 254.507 78.763)"
       gradientUnits="userSpaceOnUse" />
    <linearGradient
       id="a">
      <stop
         offset="0"
         style="stop-color:#fff;stop-opacity:.09803922"
         id="stop3" />
      <stop
         offset="1"
         style="stop-color:#fff;stop-opacity:0"
         id="stop5" />
    </linearGradient>
  </defs>
  <g
     transform="translate(-329,-347.362)"
     id="g80">
    <path
       id="rect10"
       style="display:inline;overflow:visible;stroke:#a6a6a6;stroke-width:4;marker:none"
       d="m 352,349.362 h 520 c 11.08,0 20,8.92 20,20 v 136 c 0,11.08 -8.92,20 -20,20 H 352 c -11.08,0 -20,-8.92 -20,-20 v -136 c 0,-11.08 8.92,-20 20,-20 z" />
    <path
       d="m 2.589,1006.862 4.25,5.5"
       style="fill:#8ab000;fill-opacity:1;fill-rule:evenodd;stroke:#769616;stroke-width:2.5;stroke-linecap:round;stroke-linejoin:miter;stroke-miterlimit:4;stroke-dasharray:none;stroke-opacity:1"
       transform="matrix(-2.63159,0,0,2.63157,483.158,-2270.475)"
       id="path12" />
    <path
       d="m 2.611,1005.61 c -0.453,0.011 -0.761,0.188 -0.98,0.448 2.027,2.409 2.368,2.792 5.135,6.221 1.02,1.32 2.082,0.638 1.062,-0.681 l -4.25,-5.5 a 1.24,1.24 0 0 0 -0.967,-0.489"
       style="color:#000000;font-style:normal;font-variant:normal;font-weight:400;font-stretch:normal;font-size:medium;line-height:normal;font-family:sans-serif;text-indent:0;text-align:start;text-decoration:none;text-decoration-line:none;text-decoration-style:solid;text-decoration-color:#000000;letter-spacing:normal;word-spacing:normal;text-transform:none;writing-mode:lr-tb;direction:ltr;baseline-shift:baseline;text-anchor:start;white-space:normal;clip-rule:nonzero;display:inline;overflow:visible;visibility:visible;opacity:1;isolation:auto;mix-blend-mode:normal;color-interpolation:sRGB;color-interpolation-filters:linearRGB;solid-color:#000000;solid-opacity:1;fill:#ffffff;fill-opacity:0.298039;fill-rule:evenodd;stroke:none;stroke-width:2.5;stroke-linecap:round;stroke-linejoin:miter;stroke-miterlimit:4;stroke-dasharray:none;stroke-dashoffset:0;stroke-opacity:1;color-rendering:auto;image-rendering:auto;shape-rendering:auto;text-rendering:auto"
       transform="matrix(-2.63159,0,0,2.63157,483.158,-2270.475)"
       id="path14" />
    <path
       d="m 1.622,1006.07 a 1.25,1.25 0 0 0 -0.022,1.557 l 4.25,5.5 c 1.02,1.319 1.15,-0.613 1.15,-0.613 0,0 -3.735,-4.51 -5.378,-6.443"
       style="color:#000000;font-style:normal;font-variant:normal;font-weight:400;font-stretch:normal;font-size:medium;line-height:normal;font-family:sans-serif;text-indent:0;text-align:start;text-decoration:none;text-decoration-line:none;text-decoration-style:solid;text-decoration-color:#000000;letter-spacing:normal;word-spacing:normal;text-transform:none;writing-mode:lr-tb;direction:ltr;baseline-shift:baseline;text-anchor:start;white-space:normal;clip-rule:nonzero;display:inline;overflow:visible;visibility:visible;opacity:1;isolation:auto;mix-blend-mode:normal;color-interpolation:sRGB;color-interpolation-filters:linearRGB;solid-color:#000000;solid-opacity:1;fill:#263238;fill-opacity:0.2;fill-rule:evenodd;stroke:none;stroke-width:2.5;stroke-linecap:round;stroke-linejoin:miter;stroke-miterlimit:4;stroke-dasharray:none;stroke-dashoffset:0;stroke-opacity:1;color-rendering:auto;image-rendering:auto;shape-rendering:auto;text-rendering:auto"
       transform="matrix(-2.63159,0,0,2.63157,483.158,-2270.475)"
       id="path16" />
    <path
       d="m 2.338,1005.844 c -0.438,0 -0.96,0.142 -0.824,0.799 0.103,0.501 4.66,6.074 4.66,6.074 1.02,1.32 2.494,0.677 1.474,-0.642 l -4.234,-5.473 c -0.26,-0.29 -0.608,-0.744 -1.076,-0.758"
       style="color:#000000;font-style:normal;font-variant:normal;font-weight:400;font-stretch:normal;font-size:medium;line-height:normal;font-family:sans-serif;text-indent:0;text-align:start;text-decoration:none;text-decoration-line:none;text-decoration-style:solid;text-decoration-color:#000000;letter-spacing:normal;word-spacing:normal;text-transform:none;writing-mode:lr-tb;direction:ltr;baseline-shift:baseline;text-anchor:start;white-space:normal;clip-rule:nonzero;display:inline;overflow:visible;visibility:visible;opacity:1;isolation:auto;mix-blend-mode:normal;color-interpolation:sRGB;color-interpolation-filters:linearRGB;solid-color:#000000;solid-opacity:1;fill:#8ab000;fill-opacity:1;fill-rule:evenodd;stroke:none;stroke-width:2.5;stroke-linecap:round;stroke-linejoin:miter;stroke-miterlimit:4;stroke-dasharray:none;stroke-dashoffset:0;stroke-opacity:1;color-rendering:auto;image-rendering:auto;shape-rendering:auto;text-rendering:auto"
       transform="matrix(-2.63159,0,0,2.63157,483.158,-2270.475)"
       id="path18" />
    <path
       d="m 2.589,1006.862 4.25,5.5"
       style="fill:#8ab000;fill-opacity:1;fill-rule:evenodd;stroke:#769616;stroke-width:2.5;stroke-linecap:round;stroke-linejoin:miter;stroke-miterlimit:4;stroke-dasharray:none;stroke-opacity:1"
       transform="matrix(2.63159,0,0,2.63157,356.842,-2270.475)"
       id="path20" />
    <path
       d="m 2.611,1005.61 c -0.453,0.011 -0.761,0.188 -0.98,0.448 2.027,2.409 2.368,2.792 5.135,6.221 1.02,1.32 2.082,0.638 1.062,-0.681 l -4.25,-5.5 a 1.24,1.24 0 0 0 -0.967,-0.489"
       style="color:#000000;font-style:normal;font-variant:normal;font-weight:400;font-stretch:normal;font-size:medium;line-height:normal;font-family:sans-serif;text-indent:0;text-align:start;text-decoration:none;text-decoration-line:none;text-decoration-style:solid;text-decoration-color:#000000;letter-spacing:normal;word-spacing:normal;text-transform:none;writing-mode:lr-tb;direction:ltr;baseline-shift:baseline;text-anchor:start;white-space:normal;clip-rule:nonzero;display:inline;overflow:visible;visibility:visible;opacity:1;isolation:auto;mix-blend-mode:normal;color-interpolation:sRGB;color-interpolation-filters:linearRGB;solid-color:#000000;solid-opacity:1;fill:#ffffff;fill-opacity:0.298039;fill-rule:evenodd;stroke:none;stroke-width:2.5;stroke-linecap:round;stroke-linejoin:miter;stroke-miterlimit:4;stroke-dasharray:none;stroke-dashoffset:0;stroke-opacity:1;color-rendering:auto;image-rendering:auto;shape-rendering:auto;text-rendering:auto"
       transform="matrix(2.63159,0,0,2.63157,356.842,-2270.475)"
       id="path22" />
    <path
       d="m 1.622,1006.07 a 1.25,1.25 0 0 0 -0.022,1.557 l 4.25,5.5 c 1.02,1.319 1.15,-0.613 1.15,-0.613 0,0 -3.735,-4.51 -5.378,-6.443"
       style="color:#000000;font-style:normal;font-variant:normal;font-weight:400;font-stretch:normal;font-size:medium;line-height:normal;font-family:sans-serif;text-indent:0;text-align:start;text-decoration:none;text-decoration-line:none;text-decoration-style:solid;text-decoration-color:#000000;letter-spacing:normal;word-spacing:normal;text-transform:none;writing-mode:lr-tb;direction:ltr;baseline-shift:baseline;text-anchor:start;white-space:normal;clip-rule:nonzero;display:inline;overflow:visible;visibility:visible;opacity:1;isolation:auto;mix-blend-mode:normal;color-interpolation:sRGB;color-interpolation-filters:linearRGB;solid-color:#000000;solid-opacity:1;fill:#263238;fill-opacity:0.2;fill-rule:evenodd;stroke:none;stroke-width:2.5;stroke-linecap:round;stroke-linejoin:miter;stroke-miterlimit:4;stroke-dasharray:none;stroke-dashoffset:0;stroke-opacity:1;color-rendering:auto;image-rendering:auto;shape-rendering:auto;text-rendering:auto"
       transform="matrix(2.63159,0,0,2.63157,356.842,-2270.475)"
       id="path24" />
    <path
       d="m 2.338,1005.844 c -0.438,0 -0.96,0.142 -0.824,0.799 0.103,0.501 4.66,6.074 4.66,6.074 1.02,1.32 2.494,0.677 1.474,-0.642 l -4.234,-5.473 c -0.26,-0.29 -0.608,-0.744 -1.076,-0.758"
       style="color:#000000;font-style:normal;font-variant:normal;font-weight:400;font-stretch:normal;font-size:medium;line-height:normal;font-family:sans-serif;text-indent:0;text-align:start;text-decoration:none;text-decoration-line:none;text-decoration-style:solid;text-decoration-color:#000000;letter-spacing:normal;word-spacing:normal;text-transform:none;writing-mode:lr-tb;direction:ltr;baseline-shift:baseline;text-anchor:start;white-space:normal;clip-rule:nonzero;display:inline;overflow:visible;visibility:visible;opacity:1;isolation:auto;mix-blend-mode:normal;color-interpolation:sRGB;color-interpolation-filters:linearRGB;solid-color:#000000;solid-opacity:1;fill:#8ab000;fill-opacity:1;fill-rule:evenodd;stroke:none;stroke-width:2.5;stroke-linecap:round;stroke-linejoin:miter;stroke-miterlimit:4;stroke-dasharray:none;stroke-dashoffset:0;stroke-opacity:1;color-rendering:auto;image-rendering:auto;shape-rendering:auto;text-rendering:auto"
       transform="matrix(2.63159,0,0,2.63157,356.842,-2270.475)"
       id="path26" />
    <g
       transform="matrix(2.63159,0,0,2.63157,467.369,-2270.475)"
       id="g36">
      <path
         id="rect28"
         style="opacity:1;fill:#aeea00;stroke-width:3;stroke-linecap:round;stroke-miterlimit:3"
         d="m -34,1010.36 h 32 c 1.662,0 3,1.338 3,3 v 6.92 c 0,1.662 -1.338,3 -3,3 h -32 c -1.662,0 -3,-1.338 -3,-3 v -6.92 c 0,-1.662 1.338,-3 3,-3 z" />
      <path
         id="rect30"
         style="opacity:1;fill:#263238;fill-opacity:0.2;stroke-width:3;stroke-linecap:round;stroke-miterlimit:3"
         d="m -34,1013.279 h 32 c 1.662,0 3,1.338 3,3 v 4 c 0,1.662 -1.338,3 -3,3 h -32 c -1.662,0 -3,-1.338 -3,-3 v -4 c 0,-1.662 1.338,-3 3,-3 z" />
      <path
         id="rect32"
         style="opacity:1;fill:#ffffff;fill-opacity:0.298039;stroke-width:3;stroke-linecap:round;stroke-miterlimit:3"
         d="m -34,1010.362 h 32 c 1.662,0 3,1.338 3,3 v 4 c 0,1.662 -1.338,3 -3,3 h -32 c -1.662,0 -3,-1.338 -3,-3 v -4 c 0,-1.662 1.338,-3 3,-3 z" />
      <path
         id="rect34"
         style="opacity:1;fill:#aeea00;stroke-width:3;stroke-linecap:round;stroke-miterlimit:3"
         d="m -34,1011.5 h 32 c 1.662,0 3,1.0954 3,2.456 v 5.729 c 0,1.3606 -1.338,2.456 -3,2.456 h -32 c -1.662,0 -3,-1.0954 -3,-2.456 v -5.729 c 0,-1.3606 1.338,-2.456 3,-2.456 z" />
    </g>
    <g
       transform="matrix(2.63159,0,0,2.63157,356.842,-2270.745)"
       id="g46">
      <path
         id="rect38"
         style="opacity:1;fill:#1976d2;stroke-width:3;stroke-linecap:round;stroke-miterlimit:3"
         d="m 8,1024.522 h 32 c 1.662,0 3,1.338 3,3 v 19.84 c 0,1.662 -1.338,3 -3,3 H 8 c -1.662,0 -3,-1.338 -3,-3 v -19.84 c 0,-1.662 1.338,-3 3,-3 z" />
      <path
         id="rect40"
         style="opacity:1;fill:#263238;fill-opacity:0.2;stroke-width:3;stroke-linecap:round;stroke-miterlimit:3"
         d="m 8,1037.3621 h 32 c 1.662,0 3,1.338 3,3 v 7 c 0,1.662 -1.338,3 -3,3 H 8 c -1.662,0 -3,-1.338 -3,-3 v -7 c 0,-1.662 1.338,-3 3,-3 z" />
      <path
         id="rect42"
         style="opacity:1;fill:#ffffff;fill-opacity:0.2;stroke-width:3;stroke-linecap:round;stroke-miterlimit:3"
         d="m 8,1024.442 h 32 c 1.662,0 3,1.338 3,3 v 7 c 0,1.662 -1.338,3 -3,3 H 8 c -1.662,0 -3,-1.338 -3,-3 v -7 c 0,-1.662 1.338,-3 3,-3 z" />
      <path
         id="rect44"
         style="opacity:1;fill:#1976d2;stroke-width:3;stroke-linecap:round;stroke-miterlimit:3"
         d="m 8,1025.662 h 32 c 1.662,0 3,1.2122 3,2.718 v 18.124 c 0,1.5058 -1.338,2.718 -3,2.718 H 8 c -1.662,0 -3,-1.2122 -3,-2.718 v -18.124 c 0,-1.5058 1.338,-2.718 3,-2.718 z" />
    </g>
    <g
       transform="matrix(2.63159,0,0,2.63157,356.842,396.264)"
       id="g52">
      <path
         d="m 24,17.75 c -2.88,0 -5.32,1.985 -6.033,4.65 H 21.18 A 3.22,3.22 0 0 1 24,20.75 3.23,3.23 0 0 1 27.25,24 3.23,3.23 0 0 1 24,27.25 3.22,3.22 0 0 1 21.07,25.4 h -3.154 c 0.642,2.766 3.132,4.85 6.084,4.85 3.434,0 6.25,-2.816 6.25,-6.25 0,-3.434 -2.816,-6.25 -6.25,-6.25"
         style="color:#000000;font-style:normal;font-variant:normal;font-weight:400;font-stretch:normal;font-size:medium;line-height:normal;font-family:sans-serif;text-indent:0;text-align:start;text-decoration:none;text-decoration-line:none;text-decoration-style:solid;text-decoration-color:#000000;letter-spacing:normal;word-spacing:normal;text-transform:none;writing-mode:lr-tb;direction:ltr;baseline-shift:baseline;text-anchor:start;white-space:normal;clip-rule:nonzero;display:inline;overflow:visible;visibility:visible;opacity:1;isolation:auto;mix-blend-mode:normal;color-interpolation:sRGB;color-interpolation-filters:linearRGB;solid-color:#000000;solid-opacity:1;fill:#0d47a1;fill-opacity:1;fill-rule:nonzero;stroke:none;stroke-width:3;stroke-linecap:round;stroke-linejoin:miter;stroke-miterlimit:4;stroke-dasharray:none;stroke-dashoffset:0;stroke-opacity:1;color-rendering:auto;image-rendering:auto;shape-rendering:auto;text-rendering:auto"
         id="path48" />
      <path
         id="circle50"
         style="opacity:1;fill:none;fill-opacity:0.403922;stroke:#0d47a1;stroke-width:1.9;stroke-linecap:round"
         d="M 33.55,24 A 9.5500002,9.5500002 0 0 1 24,33.55 9.5500002,9.5500002 0 0 1 14.45,24 9.5500002,9.5500002 0 0 1 24,14.45 9.5500002,9.5500002 0 0 1 33.55,24 Z" />
    </g>
    <g
       transform="matrix(2.63159,0,0,2.63157,356.842,-2269.159)"
       id="g58">
      <path
         id="ellipse54"
         style="opacity:1;fill:#263238;fill-opacity:0.2;stroke-width:1.9;stroke-linecap:round;stroke-opacity:0.697211"
         d="m 17.75,1016.487 a 3.375,3.875 0 0 1 -3.375,3.875 3.375,3.875 0 0 1 -3.375,-3.875 3.375,3.875 0 0 1 3.375,-3.875 3.375,3.875 0 0 1 3.375,3.875 z" />
      <path
         id="circle56"
         style="opacity:1;fill:#ffffff;stroke-width:1.9;stroke-linecap:round;stroke-opacity:0.697211"
         d="m 17.75,1016.987 a 3.375,3.375 0 0 1 -3.375,3.375 3.375,3.375 0 0 1 -3.375,-3.375 3.375,3.375 0 0 1 3.375,-3.375 3.375,3.375 0 0 1 3.375,3.375 z" />
    </g>
    <g
       transform="matrix(2.63159,0,0,2.63157,408.158,-2269.159)"
       id="g64">
      <path
         id="ellipse60"
         style="opacity:1;fill:#263238;fill-opacity:0.2;stroke-width:1.9;stroke-linecap:round;stroke-opacity:0.697211"
         d="m 17.75,1016.487 a 3.375,3.875 0 0 1 -3.375,3.875 3.375,3.875 0 0 1 -3.375,-3.875 3.375,3.875 0 0 1 3.375,-3.875 3.375,3.875 0 0 1 3.375,3.875 z" />
      <path
         id="circle62"
         style="opacity:1;fill:#ffffff;stroke-width:1.9;stroke-linecap:round;stroke-opacity:0.697211"
         d="m 17.75,1016.987 a 3.375,3.375 0 0 1 -3.375,3.375 3.375,3.375 0 0 1 -3.375,-3.375 3.375,3.375 0 0 1 3.375,-3.375 3.375,3.375 0 0 1 3.375,3.375 z" />
    </g>
    <path
       d="m 282.715,299.835 a 3.29,3.29 0 0 0 -2.662,5.336 l 9.474,12.261 A 7.9,7.9 0 0 0 289,320.257 v 18.21 a 7.877,7.877 0 0 0 7.895,7.895 h 84.21 A 7.877,7.877 0 0 0 389,338.468 v -18.211 c 0,-0.999 -0.19,-1.949 -0.525,-2.826 l 9.472,-12.26 a 3.29,3.29 0 0 0 -2.433,-5.334 3.29,3.29 0 0 0 -2.772,1.31 l -9.013,11.666 a 7.9,7.9 0 0 0 -2.624,-0.45 h -84.21 c -0.922,0 -1.8,0.163 -2.622,0.45 l -9.015,-11.666 a 3.29,3.29 0 0 0 -2.543,-1.312 m 14.18,49.527 A 7.877,7.877 0 0 0 289,357.257 v 52.21 a 7.877,7.877 0 0 0 7.895,7.895 h 84.21 A 7.877,7.877 0 0 0 389,409.468 v -52.211 a 7.877,7.877 0 0 0 -7.895,-7.895 z"
       style="color:#000000;font-style:normal;font-variant:normal;font-weight:400;font-stretch:normal;font-size:medium;line-height:normal;font-family:sans-serif;text-indent:0;text-align:start;text-decoration:none;text-decoration-line:none;text-decoration-style:solid;text-decoration-color:#000000;letter-spacing:normal;word-spacing:normal;text-transform:none;writing-mode:lr-tb;direction:ltr;baseline-shift:baseline;text-anchor:start;white-space:normal;clip-rule:nonzero;display:inline;overflow:visible;visibility:visible;opacity:1;isolation:auto;mix-blend-mode:normal;color-interpolation:sRGB;color-interpolation-filters:linearRGB;solid-color:#000000;solid-opacity:1;fill:url(#b);fill-opacity:1;fill-rule:evenodd;stroke:none;stroke-width:6.57895;stroke-linecap:round;stroke-linejoin:miter;stroke-miterlimit:4;stroke-dasharray:none;stroke-dashoffset:0;stroke-opacity:1;color-rendering:auto;image-rendering:auto;shape-rendering:auto;text-rendering:auto"
       transform="translate(81,76)"
       id="path66" />
    <g
       aria-label="取得於"
       id="text70"
       style="font-size:12.3952px;line-height:100%;font-family:'Noto Sans CJK TC';-inkscape-font-specification:'Noto Sans CJK TC';letter-spacing:0;word-spacing:0;display:inline;overflow:visible;fill:#ffffff;stroke-width:1px;marker:none">
      <path
         d="m 524.98051,380.11575 -1.89,0.3675 c 0.86625,4.33125 2.1,8.1375 3.91125,11.26125 -1.54875,2.17875 -3.43875,3.80625 -5.5125,4.8825 0.44625,0.39375 0.9975,1.12875 1.28625,1.6275 2.02125,-1.18125 3.85875,-2.73 5.4075,-4.69875 1.44375,1.96875 3.17625,3.59625 5.27625,4.7775 0.315,-0.49875 0.91875,-1.26 1.365,-1.6275 -2.17875,-1.12875 -3.96375,-2.80875 -5.43375,-4.90875 2.12625,-3.36 3.6225,-7.77 4.27875,-13.44 l -1.26,-0.34125 -0.34125,0.0787 h -9.47625 v 1.91625 h 8.89875 c -0.63,3.885 -1.75875,7.1925 -3.28125,9.87 -1.49625,-2.80875 -2.54625,-6.11625 -3.22875,-9.765 z m -15.09375,13.1775 0.3675,1.9425 c 2.49375,-0.3675 5.90625,-0.8925 9.24,-1.44375 v 4.7775 h 1.91625 v -20.60625 h 1.8375 v -1.86375 h -12.81 v 1.86375 h 2.02125 V 392.952 Z m 4.4625,-15.33 h 5.145 v 3.49125 h -5.145 z m 0,5.27625 h 5.145 v 3.675 h -5.145 z m 0,5.46 h 5.145 v 3.255 l -5.145,0.735 z"
         style="font-size:26.25px"
         id="path100" />
      <path
         d="m 548.08051,380.32575 h 8.68875 v 2.1525 h -8.68875 z m 0,-3.54375 h 8.68875 v 2.1 h -8.68875 z m -1.91625,-1.49625 v 8.68875 h 12.57375 v -8.68875 z m 0.0525,17.45625 c 1.18125,1.155 2.59875,2.7825 3.255,3.8325 l 1.49625,-1.07625 c -0.6825,-1.02375 -2.12625,-2.5725 -3.36,-3.675 z m -4.2,-18.2175 c -1.155,1.86375 -3.5175,4.06875 -5.59125,5.4075 0.315,0.39375 0.81375,1.18125 1.05,1.6275 2.33625,-1.575 4.85625,-4.01625 6.405,-6.3 z m 1.91625,15.1725 v 1.70625 h 10.605 v 5.01375 c 0,0.34125 -0.105,0.42 -0.525,0.44625 -0.39375,0.0525 -1.68,0.0525 -3.17625,0 0.2625,0.525 0.55125,1.23375 0.65625,1.785 1.9425,0 3.2025,-0.0263 3.99,-0.315 0.81375,-0.28875 1.02375,-0.81375 1.02375,-1.89 v -5.04 h 3.9375 V 389.697 h -3.9375 v -2.2575 h 3.49125 v -1.68 h -15.46125 v 1.68 h 10.00125 v 2.2575 z m -1.44375,-9.37125 c -1.575,2.70375 -4.095,5.4075 -6.48375,7.14 0.315,0.4725 0.86625,1.49625 1.02375,1.91625 1.02375,-0.81375 2.07375,-1.81125 3.0975,-2.8875 v 12.10125 h 1.91625 V 384.237 c 0.81375,-1.05 1.54875,-2.12625 2.17875,-3.22875 z"
         style="font-size:26.25px"
         id="path102" />
      <path
         d="m 577.08676,385.89075 c 1.575,1.1025 3.57,2.65125 4.5675,3.675 l 1.33875,-1.49625 c -1.02375,-0.97125 -3.045,-2.44125 -4.62,-3.465 z m -1.60125,7.48125 c 2.4675,1.28625 5.64375,3.255 7.16625,4.6725 l 1.33875,-1.7325 c -1.60125,-1.33875 -4.83,-3.22875 -7.245,-4.43625 z m -12.495,-14.56875 v 1.8375 h 2.65125 c -0.105,7.16625 -0.315,13.04625 -3.15,16.45875 0.49875,0.315 1.155,0.945 1.47,1.4175 2.33625,-2.86125 3.12375,-7.16625 3.43875,-12.41625 h 3.38625 c -0.28875,6.825 -0.5775,9.345 -1.07625,9.975 -0.21,0.2625 -0.42,0.34125 -0.76125,0.315 -0.3675,0 -1.12875,0 -2.02125,-0.0788 0.2625,0.4725 0.4725,1.26 0.49875,1.81125 0.945,0.0525 1.86375,0.0525 2.415,-0.0263 0.65625,-0.0787 1.1025,-0.2625 1.49625,-0.84 0.76125,-0.945 1.05,-3.78 1.33875,-12.10125 0.0263,-0.23625 0.0263,-0.86625 0.0263,-0.86625 h -5.22375 l 0.0788,-3.64875 h 6.11625 v -1.8375 z m 3.15,-3.75375 c 0.86625,1.155 1.81125,2.70375 2.1525,3.75375 l 1.8375,-0.7875 c -0.39375,-0.9975 -1.365,-2.52 -2.2575,-3.64875 z m 13.23,-0.70875 c -1.155,4.0425 -3.5175,7.48125 -6.58875,9.42375 0.49875,0.3675 1.07625,1.02375 1.39125,1.54875 2.44125,-1.68 4.33125,-4.12125 5.7225,-7.00875 1.49625,2.75625 3.675,5.38125 5.85375,6.79875 0.34125,-0.49875 0.97125,-1.2075 1.44375,-1.60125 -2.4675,-1.365 -5.0925,-4.3575 -6.4575,-7.1925 l 0.4725,-1.4175 z"
         style="font-size:26.25px"
         id="path104" />
    </g>
    <g
       aria-label="立即下載"
       id="text74"
       style="font-size:12.3952px;line-height:100%;font-family:'Noto Sans CJK TC';-inkscape-font-specification:'Noto Sans CJK TC';letter-spacing:0;word-spacing:0;display:inline;overflow:visible;fill:#ffffff;stroke-width:1px;marker:none">
      <path
         d="m 511.72426,472.94726 v 1.96875 h 21.23625 v -1.96875 z m 3.64875,3.8325 c 0.97125,3.49125 2.1,8.1375 2.49375,11.13 l 2.07375,-0.525 c -0.44625,-3.01875 -1.54875,-7.5075 -2.625,-11.05125 z m 5.04,-8.42625 c 0.49875,1.33875 1.05,3.12375 1.28625,4.27875 l 2.02125,-0.60375 c -0.2625,-1.12875 -0.86625,-2.86125 -1.39125,-4.2 z m 6.90375,7.98 c -0.86625,3.8325 -2.49375,9.2925 -3.9375,12.705 h -12.78375 v 1.96875 h 23.44125 v -1.96875 h -8.53125 c 1.39125,-3.36 2.96625,-8.3475 4.0425,-12.31125 z"
         style="font-size:26.25px"
         id="path107" />
      <path
         d="m 546.40051,476.35976 v 3.6225 h -6.16875 v -3.6225 z m 0,-1.81125 h -6.16875 v -3.4125 h 6.16875 z m -2.70375,9.37125 c 0.49875,0.84 1.02375,1.75875 1.54875,2.70375 l -5.01375,1.6275 v -6.48375 h 8.1375 v -12.39 h -10.10625 v 18.27 c 0,0.9975 -0.6825,1.47 -1.12875,1.70625 0.315,0.4725 0.70875,1.4175 0.84,1.995 0.55125,-0.44625 1.4175,-0.7875 8.085,-3.15 0.49875,0.97125 0.91875,1.91625 1.2075,2.625 l 1.785,-0.97125 c -0.70875,-1.7325 -2.33625,-4.59375 -3.70125,-6.74625 z m 7.06125,-14.385 v 22.60125 h 1.9425 v -20.76375 h 4.7775 v 13.2825 c 0,0.3675 -0.105,0.4725 -0.49875,0.4725 -0.34125,0.0263 -1.575,0.0263 -2.91375,-0.0263 0.2625,0.55125 0.525,1.365 0.5775,1.89 1.91625,0.0263 3.0975,0 3.8325,-0.34125 0.735,-0.315 0.945,-0.8925 0.945,-1.96875 v -15.14625 z"
         style="font-size:26.25px"
         id="path109" />
      <path
         d="m 563.12176,469.92851 v 1.96875 h 10.1325 v 20.2125 h 2.07375 v -13.9125 c 3.01875,1.6275 6.53625,3.80625 8.37375,5.27625 l 1.39125,-1.785 c -2.1,-1.60125 -6.27375,-3.96375 -9.3975,-5.48625 l -0.3675,0.42 v -4.725 h 11.1825 v -1.96875 z"
         style="font-size:26.25px"
         id="path111" />
      <path
         d="m 607.09051,469.29851 c 1.33875,1.07625 2.91375,2.65125 3.6225,3.70125 l 1.47,-1.07625 c -0.735,-1.05 -2.33625,-2.54625 -3.675,-3.59625 z m 2.86125,7.58625 c -0.7875,2.54625 -1.89,4.935 -3.255,7.0875 -0.525,-2.33625 -0.91875,-5.22375 -1.12875,-8.505 h 7.32375 v -1.68 h -7.42875 c -0.0788,-1.8375 -0.13125,-3.75375 -0.105,-5.775 h -1.96875 c 0,1.96875 0.0525,3.91125 0.1575,5.775 h -6.37875 v -2.12625 h 4.75125 v -1.575 h -4.75125 v -2.12625 h -1.89 v 2.12625 h -4.75125 v 1.575 h 4.75125 v 2.12625 h -5.9325 v 1.68 h 14.30625 c 0.2625,4.095 0.76125,7.74375 1.575,10.57875 -0.81375,1.05 -1.7325,1.995 -2.70375,2.86125 v -0.91875 h -5.46 v -1.44375 h 4.7775 v -6.43125 h -4.75125 v -1.4175 h 5.32875 v -1.49625 h -5.32875 v -1.68 h -1.785 v 1.68 h -5.25 v 1.49625 h 5.25 v 1.4175 h -4.62 v 6.43125 h 4.62 v 1.44375 h -5.64375 v 1.54875 h 5.64375 v 2.625 h 1.75875 v -2.625 h 4.69875 c -0.525,0.42 -1.07625,0.7875 -1.6275,1.12875 0.49875,0.39375 1.1025,1.02375 1.4175,1.47 1.6275,-1.1025 3.0975,-2.44125 4.41,-3.96375 1.05,2.49375 2.4675,3.96375 4.33125,3.96375 1.91625,0 2.625,-1.23375 2.94,-5.43375 -0.49875,-0.1575 -1.2075,-0.5775 -1.6275,-0.9975 -0.1575,3.22875 -0.42,4.48875 -1.155,4.48875 -1.23375,0 -2.28375,-1.39125 -3.0975,-3.80625 1.86375,-2.625 3.33375,-5.67 4.3575,-8.925 z m -17.7975,6.9825 h 3.28125 v 1.5225 h -3.28125 z m 4.80375,0 h 3.33375 v 1.5225 h -3.33375 z m -4.80375,-2.59875 h 3.28125 v 1.49625 h -3.28125 z m 4.80375,0 h 3.33375 v 1.49625 h -3.33375 z"
         style="font-size:26.25px"
         id="path113" />
    </g>
    <g
       aria-label="F-Droid"
       id="text78"
       style="font-weight:700;font-size:29.7088px;line-height:100%;font-family:Rokkitt;-inkscape-font-specification:'Rokkitt Bold';letter-spacing:0;word-spacing:0;display:inline;overflow:visible;fill:#ffffff;stroke-width:1px;marker:none">
      <path
         d="m 510.40051,457.11905 v 6.83594 h 23.55469 v -6.83594 l -6.09375,-1.17188 v -15.625 h 19.92188 v -8.78906 h -19.92188 v -15.66406 h 18.55469 l 0.50781,6.79687 h 8.75 v -15.58593 h -45.27344 v 6.875 l 6.05469,1.17187 v 40.82031 z"
         style="font-size:80px;line-height:100%;font-family:'Roboto Slab';-inkscape-font-specification:'Roboto Slab Bold'"
         id="path116" />
      <path
         d="m 584.77551,444.03311 v -8.78906 h -22.03125 v 8.78906 z"
         style="font-size:80px;line-height:100%;font-family:'Roboto Slab';-inkscape-font-specification:'Roboto Slab Bold'"
         id="path118" />
      <path
         d="m 617.23645,407.07999 h -25.58594 v 6.875 l 6.05469,1.17187 v 40.82031 l -6.05469,1.17188 v 6.83594 h 25.58594 c 13.90625,0 23.94531,-9.76563 23.94531,-23.71094 v -9.41406 c 0,-13.90625 -10.03906,-23.75 -23.94531,-23.75 z m -8.125,8.78906 h 7.53906 c 8.16407,0 13.08594,6.09375 13.08594,14.88281 v 9.49219 c 0,8.90625 -4.92187,14.96094 -13.08594,14.96094 h -7.53906 z"
         style="font-size:80px;line-height:100%;font-family:'Roboto Slab';-inkscape-font-specification:'Roboto Slab Bold'"
         id="path120" />
      <path
         d="m 647.90051,457.11905 v 6.83594 h 22.34375 v -6.83594 l -5.46875,-1.17188 v -20.70312 c 1.25,-2.38281 3.28125,-3.63281 6.64063,-3.47656 l 5.625,0.27343 1.21094,-10.50781 c -1.09375,-0.39062 -2.89063,-0.625 -4.49219,-0.625 -4.10156,0 -7.26563,2.57813 -9.25781,6.95313 l -0.0781,-0.9375 -0.42969,-5.23438 h -16.67968 v 6.875 l 6.05468,1.17188 v 26.21093 z"
         style="font-size:80px;line-height:100%;font-family:'Roboto Slab';-inkscape-font-specification:'Roboto Slab Bold'"
         id="path122" />
      <path
         d="m 680.86926,442.43155 v 0.82031 c 0,12.69531 7.46094,21.52344 20,21.52344 12.38282,0 19.88282,-8.82813 19.88282,-21.52344 v -0.82031 c 0,-12.65625 -7.46094,-21.52344 -19.96094,-21.52344 -12.46094,0 -19.92188,8.90625 -19.92188,21.52344 z m 11.40625,0.82031 v -0.82031 c 0,-7.5 2.57813,-12.73438 8.51563,-12.73438 5.9375,0 8.59375,5.23438 8.59375,12.73438 v 0.82031 c 0,7.65625 -2.61719,12.77344 -8.51563,12.77344 -6.05468,0 -8.59375,-5.07813 -8.59375,-12.77344 z"
         style="font-size:80px;line-height:100%;font-family:'Roboto Slab';-inkscape-font-specification:'Roboto Slab Bold'"
         id="path124" />
      <path
         d="m 742.27551,412.74405 v -9.72656 h -11.79687 v 9.72656 z m -16.91406,44.375 v 6.83594 h 22.38281 v -6.83594 l -5.46875,-1.17188 v -34.25781 h -17.5 v 6.875 l 6.09375,1.17188 v 26.21093 z"
         style="font-size:80px;line-height:100%;font-family:'Roboto Slab';-inkscape-font-specification:'Roboto Slab Bold'"
         id="path126" />
      <path
         d="m 778.99426,458.79874 0.85938,5.15625 h 15.35156 v -6.83594 l -5.46875,-1.17188 v -52.92968 h -17.5 v 6.875 l 6.09375,1.17187 v 15.15625 c -2.53906,-3.39844 -5.9375,-5.3125 -10.15625,-5.3125 -10.46875,0 -16.52344,8.94531 -16.52344,22.26563 v 0.82031 c 0,12.5 6.01563,20.78125 16.44532,20.78125 4.64843,0 8.24218,-2.07031 10.89843,-5.97656 z m -15.9375,-14.80469 v -0.82031 c 0,-7.96875 2.42188,-13.39844 8.00782,-13.39844 3.28125,0 5.70312,1.5625 7.26562,4.25781 v 17.92969 c -1.5625,2.53906 -4.02344,3.94531 -7.34375,3.94531 -5.625,0 -7.92969,-4.53125 -7.92969,-11.91406 z"
         style="font-size:80px;line-height:100%;font-family:'Roboto Slab';-inkscape-font-specification:'Roboto Slab Bold'"
         id="path128" />
    </g>
  </g>
</svg>
