<?xml version="1.0" encoding="UTF-8" standalone="no"?>
<svg
   width="565"
   height="180"
   version="1.1"
   id="svg78"
   sodipodi:docname="get-it-on-hy.svg"
   xmlns:inkscape="http://www.inkscape.org/namespaces/inkscape"
   xmlns:sodipodi="http://sodipodi.sourceforge.net/DTD/sodipodi-0.dtd"
   xmlns:xlink="http://www.w3.org/1999/xlink"
   xmlns="http://www.w3.org/2000/svg"
   xmlns:svg="http://www.w3.org/2000/svg">
  <sodipodi:namedview
     id="namedview80"
     pagecolor="#ffffff"
     bordercolor="#000000"
     borderopacity="0.25"
     inkscape:showpageshadow="2"
     inkscape:pageopacity="0.0"
     inkscape:pagecheckerboard="0"
     inkscape:deskcolor="#d1d1d1" />
  <defs
     id="defs8">
    <radialGradient
       xlink:href="#a"
       id="b"
       cx="113"
       cy="-12.89"
       r="59.662"
       fx="113"
       fy="-12.89"
       gradientTransform="matrix(0 1.96105 -1.97781 0 254.507 78.763)"
       gradientUnits="userSpaceOnUse" />
    <linearGradient
       id="a">
      <stop
         offset="0"
         style="stop-color:#fff;stop-opacity:.09803922"
         id="stop3" />
      <stop
         offset="1"
         style="stop-color:#fff;stop-opacity:0"
         id="stop5" />
    </linearGradient>
  </defs>
  <g
     transform="translate(-329,-347.362)"
     id="g76">
    <path
       id="rect10"
       style="display:inline;overflow:visible;stroke:#a6a6a6;stroke-width:4;marker:none"
       d="m 352,349.362 h 520 c 11.08,0 20,8.92 20,20 v 136 c 0,11.08 -8.92,20 -20,20 H 352 c -11.08,0 -20,-8.92 -20,-20 v -136 c 0,-11.08 8.92,-20 20,-20 z" />
    <g
       aria-label="ԳՏԵՔ ԵՒՅՍՏԵՂ՝"
       id="text14"
       style="font-size:12.3952px;line-height:100%;font-family:'DejaVu Sans';-inkscape-font-specification:'DejaVu Sans';letter-spacing:0;word-spacing:0;display:inline;overflow:visible;fill:#ffffff;stroke-width:1px;marker:none">
      <path
         d="m 529.6626,391.93622 h 4.16565 v 2.91595 h -4.16565 v 7.51483 h -3.38251 v -7.51483 h -6.11517 q -2.3161,0 -4.11566,-0.6665 -1.79957,-0.6665 -3.0326,-1.84955 -1.23303,-1.18304 -1.88287,-2.81598 -0.63318,-1.63293 -0.63318,-3.56579 0,-1.93287 0.63318,-3.5658 0.64984,-1.6496 1.88287,-2.83264 1.23303,-1.19971 3.0326,-1.86621 1.79956,-0.68317 4.13232,-0.68317 4.64886,0 7.06494,2.48273 2.41608,2.48272 2.41608,7.3482 z m -3.38251,0 v -4.68219 q 0,-2.01618 -0.34991,-3.4325 -0.34992,-1.43298 -1.09974,-2.33276 -0.74981,-0.91644 -1.89953,-1.33301 -1.14972,-0.41656 -2.74933,-0.41656 -1.74957,0 -2.94928,0.48321 -1.18304,0.48322 -1.89954,1.31635 -0.71649,0.83313 -1.03308,1.96618 -0.29992,1.13306 -0.29992,2.44941 0,1.31634 0.36657,2.41607 0.36658,1.09973 1.1164,1.89954 0.76648,0.78314 1.9162,1.23303 1.16638,0.43323 2.74932,0.43323 z"
         style="font-size:34.125px"
         id="path83" />
      <path
         d="m 537.16077,394.85217 h 3.3825 q 0,1.13306 0.43323,2.09949 0.44989,0.96643 1.2497,1.66626 0.7998,0.69983 1.9162,1.09973 1.13305,0.3999 2.49938,0.3999 1.33301,0 2.46607,-0.2666 1.13306,-0.2666 1.96619,-0.83313 0.83313,-0.56653 1.29968,-1.43298 0.46655,-0.88312 0.46655,-2.09949 0,-0.96643 -0.44989,-1.66626 -0.44989,-0.71649 -1.26636,-1.21637 -0.7998,-0.51654 -1.94952,-0.84979 -1.13306,-0.33325 -2.53272,-0.54987 -1.11639,-0.16662 -2.1828,-0.41656 -1.04974,-0.24994 -1.99951,-0.61652 -0.9331,-0.38324 -1.73291,-0.89978 -0.78314,-0.5332 -1.36633,-1.26635 -0.58319,-0.73316 -0.91644,-1.68293 -0.33326,-0.96643 -0.36658,-2.21612 -0.0333,-1.49964 0.56653,-2.78266 0.61651,-1.28302 1.73291,-2.23278 1.13305,-0.94977 2.716,-1.48298 1.59961,-0.5332 3.54913,-0.5332 1.94953,0 3.5658,0.51654 1.63294,0.49988 2.79932,1.39966 1.18304,0.89978 1.83288,2.11615 0.64984,1.19971 0.64984,2.59937 h -3.3825 q -0.05,-0.73316 -0.38324,-1.43299 -0.31659,-0.69983 -0.96643,-1.24969 -0.64985,-0.54987 -1.66626,-0.88312 -1.01642,-0.34992 -2.44941,-0.34992 -1.31634,0 -2.3161,0.33326 -0.99975,0.31659 -1.66626,0.89978 -0.64984,0.58319 -0.94976,1.38299 -0.29993,0.78314 -0.23328,1.69959 0.0667,0.83313 0.38324,1.44964 0.31659,0.59986 0.9331,1.04975 0.63318,0.43322 1.56629,0.74981 0.94977,0.29993 2.28277,0.51654 2.26612,0.38324 4.03235,0.93311 1.7829,0.54987 3.01593,1.43298 1.23304,0.86646 1.88288,2.14948 0.64984,1.26636 0.64984,3.09924 0,1.69959 -0.68317,3.06592 -0.68316,1.36633 -1.93286,2.33276 -1.24969,0.94977 -3.03259,1.46631 -1.76624,0.49988 -3.93238,0.49988 -2.16613,0 -3.91571,-0.61652 -1.74957,-0.63318 -2.99926,-1.71624 -1.23304,-1.08307 -1.89954,-2.53272 -0.6665,-1.46631 -0.6665,-3.13257 z"
         style="font-size:34.125px"
         id="path85" />
      <path
         d="m 565.07062,377.48975 v 6.21515 h 15.82947 v 2.91595 h -15.82947 v 5.98187 q 0,2.01618 0.34991,3.44916 0.34992,1.41632 1.09973,2.33276 0.74982,0.89978 1.89954,1.31635 1.16638,0.41656 2.79932,0.41656 1.59961,0 2.74932,-0.41656 1.16639,-0.41657 1.9162,-1.31635 0.74982,-0.91644 1.09973,-2.33276 0.36658,-1.43298 0.36658,-3.44916 v -0.5332 h 3.38251 v 0.94977 q 0,4.91546 -2.43274,7.38153 -2.43274,2.4494 -7.11493,2.4494 -4.66553,0 -7.0816,-2.46606 -2.41608,-2.48273 -2.41608,-7.36487 v -15.52954 z"
         style="font-size:34.125px"
         id="path87" />
      <path
         d="m 597.19611,394.51892 q -1.03309,0 -1.94953,-0.16663 -0.91644,-0.18328 -1.69958,-0.48321 -0.78315,-0.31659 -1.41632,-0.74982 -0.61652,-0.43322 -1.04975,-0.9331 v 4.69885 h 15.32959 v 2.91595 h -15.32959 v 2.56604 h -3.3825 v -2.56604 h -3.1659 v -2.91595 h 3.1659 v -10.21417 q 0,-4.86548 2.41607,-7.2649 2.41608,-2.39941 7.06494,-2.39941 2.3161,0 4.11566,0.64984 1.81623,0.64984 3.04926,1.81623 1.23303,1.14971 1.86621,2.76599 0.64984,1.61627 0.64984,3.54913 0,1.93286 -0.64984,3.54913 -0.63318,1.59961 -1.86621,2.74933 -1.23303,1.14972 -3.03259,1.79956 -1.79956,0.63318 -4.11566,0.63318 z m -5.81525,-11.13061 q -0.29993,1.09973 -0.29993,2.39941 0,1.29968 0.29993,2.38275 0.29993,1.06641 1.01642,1.83289 0.71649,0.76648 1.88287,1.18304 1.18305,0.41657 2.93262,0.41657 1.74957,0 2.93262,-0.41657 1.18304,-0.41656 1.88287,-1.16638 0.71649,-0.76648 1.01642,-1.83289 0.31659,-1.08307 0.31659,-2.39941 0,-1.31635 -0.31659,-2.41608 -0.31659,-1.11639 -1.04975,-1.9162 -0.71649,-0.81646 -1.89953,-1.26635 -1.18305,-0.44989 -2.91596,-0.44989 -1.73291,0 -2.89929,0.46655 -1.16638,0.44989 -1.88287,1.26636 -0.71649,0.7998 -1.01642,1.9162 z"
         style="font-size:34.125px"
         id="path89" />
      <path
         d="m 626.72223,377.48975 v 6.21515 h 15.82947 v 2.91595 h -15.82947 v 5.98187 q 0,2.01618 0.34991,3.44916 0.34992,1.41632 1.09973,2.33276 0.74982,0.89978 1.89954,1.31635 1.16638,0.41656 2.79932,0.41656 1.59961,0 2.74933,-0.41656 1.16638,-0.41657 1.91619,-1.31635 0.74982,-0.91644 1.09974,-2.33276 0.36657,-1.43298 0.36657,-3.44916 v -0.5332 h 3.38251 v 0.94977 q 0,4.91546 -2.43274,7.38153 -2.43274,2.4494 -7.11493,2.4494 -4.66553,0 -7.0816,-2.46606 -2.41608,-2.48273 -2.41608,-7.36487 v -15.52954 z"
         style="font-size:34.125px"
         id="path91" />
      <path
         d="m 651.86609,377.48975 v 6.21515 h 11.83044 v 2.91595 H 651.86609 V 402.367 h -3.38251 v -24.87725 z"
         style="font-size:34.125px"
         id="path93" />
      <path
         d="m 686.50763,394.96881 q 0,1.71625 -0.64984,3.16589 -0.63318,1.43299 -1.9162,2.48273 -1.26636,1.04975 -3.18256,1.6496 -1.9162,0.58319 -4.46557,0.58319 -2.54938,0 -4.46558,-0.61652 -1.89954,-0.61651 -3.16589,-1.69958 -1.26636,-1.08307 -1.89954,-2.53272 -0.63318,-1.4663 -0.63318,-3.14923 h 3.38251 q 0,1.08307 0.34991,2.03284 0.36658,0.94977 1.16639,1.68292 0.7998,0.71649 2.08282,1.13306 1.29968,0.41656 3.18256,0.41656 1.86621,0 3.14923,-0.41656 1.29968,-0.41657 2.08282,-1.13306 0.78314,-0.71649 1.13306,-1.6496 0.34991,-0.9331 0.34991,-1.96618 0,-2.13281 -1.68292,-3.18256 -1.68292,-1.0664 -5.0321,-1.0664 h -9.86426 v -2.91596 h 9.86426 q 1.34967,0 2.33276,-0.31659 0.99976,-0.33325 1.63294,-0.88312 0.64984,-0.56652 0.94976,-1.333 0.31659,-0.76648 0.31659,-1.6496 0,-1.96619 -1.33301,-2.89929 -1.31634,-0.94977 -3.89904,-0.94977 -2.58271,0 -3.91571,0.94977 -1.33301,0.94977 -1.33301,2.99927 h -3.38251 q 0,-1.58295 0.61652,-2.81598 0.61651,-1.2497 1.74957,-2.09949 1.13306,-0.86646 2.716,-1.31635 1.59961,-0.44989 3.54914,-0.44989 1.94952,0 3.54913,0.44989 1.59961,0.43323 2.73267,1.28302 1.14972,0.8498 1.78289,2.08283 0.63318,1.21637 0.63318,2.76599 0,0.98309 -0.31659,1.84955 -0.29992,0.86645 -0.83313,1.56628 -0.5332,0.68317 -1.23303,1.18305 -0.69983,0.49987 -1.46631,0.74981 1.13306,0.28327 2.09949,0.81647 0.98309,0.51654 1.69959,1.28302 0.73315,0.74982 1.14971,1.73291 0.41657,0.98309 0.41657,2.1828 z"
         style="font-size:34.125px"
         id="path95" />
      <path
         d="m 691.48975,377.48975 h 3.3825 v 15.11297 q 0,3.99903 1.44965,5.76526 1.44965,1.74957 4.69885,1.74957 3.23255,0 4.68219,-1.74957 1.44965,-1.76623 1.44965,-5.76526 v -15.11297 h 3.38251 v 15.52954 q 0,4.86548 -2.41608,7.3482 -2.39942,2.48273 -7.09827,2.48273 -4.71551,0 -7.13159,-2.48273 -2.39941,-2.48272 -2.39941,-7.3482 z"
         style="font-size:34.125px"
         id="path97" />
      <path
         d="m 716.00043,394.85217 h 3.3825 q 0,1.13306 0.43323,2.09949 0.44989,0.96643 1.2497,1.66626 0.7998,0.69983 1.9162,1.09973 1.13305,0.3999 2.49939,0.3999 1.333,0 2.46606,-0.2666 1.13306,-0.2666 1.96619,-0.83313 0.83313,-0.56653 1.29968,-1.43298 0.46655,-0.88312 0.46655,-2.09949 0,-0.96643 -0.44989,-1.66626 -0.44989,-0.71649 -1.26636,-1.21637 -0.7998,-0.51654 -1.94952,-0.84979 -1.13306,-0.33325 -2.53271,-0.54987 -1.1164,-0.16662 -2.1828,-0.41656 -1.04975,-0.24994 -1.99952,-0.61652 -0.9331,-0.38324 -1.73291,-0.89978 -0.78314,-0.5332 -1.36633,-1.26635 -0.58319,-0.73316 -0.91644,-1.68293 -0.33325,-0.96643 -0.36658,-2.21612 -0.0333,-1.49964 0.56653,-2.78266 0.61651,-1.28302 1.73291,-2.23278 1.13306,-0.94977 2.716,-1.48298 1.59961,-0.5332 3.54914,-0.5332 1.94952,0 3.56579,0.51654 1.63294,0.49988 2.79932,1.39966 1.18304,0.89978 1.83288,2.11615 0.64984,1.19971 0.64984,2.59937 h -3.3825 q -0.05,-0.73316 -0.38324,-1.43299 -0.31659,-0.69983 -0.96643,-1.24969 -0.64984,-0.54987 -1.66626,-0.88312 -1.01642,-0.34992 -2.4494,-0.34992 -1.31635,0 -2.31611,0.33326 -0.99975,0.31659 -1.66626,0.89978 -0.64984,0.58319 -0.94976,1.38299 -0.29993,0.78314 -0.23328,1.69959 0.0666,0.83313 0.38324,1.44964 0.31659,0.59986 0.93311,1.04975 0.63317,0.43322 1.56628,0.74981 0.94977,0.29993 2.28278,0.51654 2.26611,0.38324 4.03234,0.93311 1.7829,0.54987 3.01593,1.43298 1.23304,0.86646 1.88288,2.14948 0.64984,1.26636 0.64984,3.09924 0,1.69959 -0.68317,3.06592 -0.68316,1.36633 -1.93286,2.33276 -1.24969,0.94977 -3.03259,1.46631 -1.76624,0.49988 -3.93237,0.49988 -2.16614,0 -3.91572,-0.61652 -1.74957,-0.63318 -2.99926,-1.71624 -1.23303,-1.08307 -1.89954,-2.53272 -0.6665,-1.46631 -0.6665,-3.13257 z"
         style="font-size:34.125px"
         id="path99" />
      <path
         d="m 743.91028,377.48975 v 6.21515 h 15.82947 v 2.91595 h -15.82947 v 5.98187 q 0,2.01618 0.34991,3.44916 0.34992,1.41632 1.09973,2.33276 0.74982,0.89978 1.89954,1.31635 1.16638,0.41656 2.79932,0.41656 1.59961,0 2.74933,-0.41656 1.16638,-0.41657 1.91619,-1.31635 0.74982,-0.91644 1.09974,-2.33276 0.36657,-1.43298 0.36657,-3.44916 v -0.5332 h 3.38251 v 0.94977 q 0,4.91546 -2.43274,7.38153 -2.43274,2.4494 -7.11493,2.4494 -4.66553,0 -7.0816,-2.46606 -2.41608,-2.48273 -2.41608,-7.36487 v -15.52954 z"
         style="font-size:34.125px"
         id="path101" />
      <path
         d="m 783.25067,399.45105 h 4.16565 v 2.91595 h -7.54816 v -15.11297 q 0,-2.01618 -0.36657,-3.4325 -0.34992,-1.43298 -1.09973,-2.33276 -0.74982,-0.91644 -1.9162,-1.33301 -1.16639,-0.41656 -2.78266,-0.41656 -1.63293,0 -2.79931,0.43322 -1.14972,0.43323 -1.89954,1.34967 -0.73315,0.89978 -1.08307,2.33277 -0.33325,1.41632 -0.33325,3.39917 v 0.5332 h -3.38251 v -0.94977 q 0,-4.91546 2.39942,-7.36486 2.39941,-2.46607 7.13159,-2.46607 4.69885,0 7.09826,2.48273 2.41608,2.48272 2.41608,7.3482 z"
         style="font-size:34.125px"
         id="path103" />
      <path
         d="m 791.51532,375.07367 4.69885,6.23181 h -2.54938 l -5.432,-6.23181 z"
         style="font-size:34.125px"
         id="path105" />
    </g>
    <g
       aria-label="F-Droid"
       id="text18"
       style="font-weight:700;font-size:29.7088px;line-height:100%;font-family:Rokkitt;-inkscape-font-specification:'Rokkitt Bold';letter-spacing:0;word-spacing:0;display:inline;overflow:visible;fill:#ffffff;stroke-width:1px;marker:none">
      <path
         d="m 510.81067,481.24332 v 8.11767 h 27.97119 v -8.11767 l -7.23633,-1.3916 v -18.55469 h 23.65723 v -10.43701 h -23.65723 v -18.60108 h 22.03369 l 0.60303,8.07129 h 10.39063 v -18.5083 h -53.76221 v 8.16406 l 7.18994,1.3916 v 48.47413 z"
         style="font-size:95px;line-height:100%;font-family:'Roboto Slab';-inkscape-font-specification:'Roboto Slab Bold'"
         id="path108" />
      <path
         d="m 599.13098,465.70377 v -10.43702 h -26.16211 v 10.43702 z"
         style="font-size:95px;line-height:100%;font-family:'Roboto Slab';-inkscape-font-specification:'Roboto Slab Bold'"
         id="path110" />
      <path
         d="m 637.67834,421.82193 h -30.3833 v 8.16406 l 7.18995,1.3916 v 48.47413 l -7.18995,1.3916 v 8.11767 h 30.3833 c 16.51368,0 28.43506,-11.59668 28.43506,-28.15674 v -11.1792 c 0,-16.51367 -11.92138,-28.20312 -28.43506,-28.20312 z m -9.64843,10.43701 h 8.95263 c 9.69483,0 15.53955,7.23633 15.53955,17.67334 v 11.27197 c 0,10.57618 -5.84472,17.76612 -15.53955,17.76612 h -8.95263 z"
         style="font-size:95px;line-height:100%;font-family:'Roboto Slab';-inkscape-font-specification:'Roboto Slab Bold'"
         id="path112" />
      <path
         d="m 674.09192,481.24332 v 8.11767 h 26.5332 v -8.11767 l -6.49414,-1.3916 v -24.58497 c 1.48438,-2.82959 3.89649,-4.31396 7.88574,-4.12841 l 6.67969,0.3247 1.43799,-12.47802 c -1.29883,-0.46387 -3.43262,-0.74219 -5.33447,-0.74219 -4.87061,0 -8.62793,3.06152 -10.99366,8.25683 l -0.0928,-1.11328 -0.51025,-6.21582 h -19.80713 v 8.16407 l 7.18994,1.3916 v 31.12549 z"
         style="font-size:95px;line-height:100%;font-family:'Roboto Slab';-inkscape-font-specification:'Roboto Slab Bold'"
         id="path114" />
      <path
         d="m 713.24231,463.80191 v 0.97412 c 0,15.07569 8.85986,25.55908 23.75,25.55908 14.70459,0 23.61084,-10.48339 23.61084,-25.55908 v -0.97412 c 0,-15.0293 -8.85986,-25.55908 -23.70361,-25.55908 -14.79737,0 -23.65723,10.57617 -23.65723,25.55908 z m 13.54492,0.97412 v -0.97412 c 0,-8.90625 3.06152,-15.12207 10.11231,-15.12207 7.05078,0 10.20507,6.21582 10.20507,15.12207 v 0.97412 c 0,9.0918 -3.10791,15.16846 -10.1123,15.16846 -7.18994,0 -10.20508,-6.03027 -10.20508,-15.16846 z"
         style="font-size:95px;line-height:100%;font-family:'Roboto Slab';-inkscape-font-specification:'Roboto Slab Bold'"
         id="path116" />
      <path
         d="M 786.16223,428.548 V 416.99771 H 772.15344 V 428.548 Z m -20.08545,52.69532 v 8.11767 h 26.57959 v -8.11767 l -6.49414,-1.3916 v -40.68116 h -20.78125 v 8.16407 l 7.23633,1.3916 v 31.12549 z"
         style="font-size:95px;line-height:100%;font-family:'Roboto Slab';-inkscape-font-specification:'Roboto Slab Bold'"
         id="path118" />
      <path
         d="m 829.76575,483.23795 1.0205,6.12304 h 18.22999 v -8.11767 l -6.49415,-1.3916 v -62.85401 h -20.78125 v 8.16406 l 7.23633,1.39161 v 17.99804 c -3.01513,-4.03564 -7.05078,-6.30859 -12.06054,-6.30859 -12.43164,0 -19.62159,10.62256 -19.62159,26.44043 v 0.97412 c 0,14.84375 7.14356,24.67773 19.52881,24.67773 5.52002,0 9.7876,-2.45849 12.9419,-7.09716 z m -18.92578,-17.58057 v -0.97412 c 0,-9.46289 2.87597,-15.91065 9.50927,-15.91065 3.89649,0 6.77246,1.85547 8.62793,5.05616 v 21.2915 c -1.85547,3.01514 -4.77783,4.68506 -8.7207,4.68506 -6.67969,0 -9.4165,-5.38086 -9.4165,-14.14795 z"
         style="font-size:95px;line-height:100%;font-family:'Roboto Slab';-inkscape-font-specification:'Roboto Slab Bold'"
         id="path120" />
    </g>
    <path
       d="m 2.589,1006.862 4.25,5.5"
       style="fill:#8ab000;fill-opacity:1;fill-rule:evenodd;stroke:#769616;stroke-width:2.5;stroke-linecap:round;stroke-linejoin:miter;stroke-miterlimit:4;stroke-dasharray:none;stroke-opacity:1"
       transform="matrix(-2.63159,0,0,2.63157,483.158,-2270.475)"
       id="path20" />
    <path
       d="m 2.611,1005.61 c -0.453,0.011 -0.761,0.188 -0.98,0.448 2.027,2.409 2.368,2.792 5.135,6.221 1.02,1.32 2.082,0.638 1.062,-0.681 l -4.25,-5.5 a 1.24,1.24 0 0 0 -0.967,-0.489"
       style="color:#000000;font-style:normal;font-variant:normal;font-weight:400;font-stretch:normal;font-size:medium;line-height:normal;font-family:sans-serif;text-indent:0;text-align:start;text-decoration:none;text-decoration-line:none;text-decoration-style:solid;text-decoration-color:#000000;letter-spacing:normal;word-spacing:normal;text-transform:none;writing-mode:lr-tb;direction:ltr;baseline-shift:baseline;text-anchor:start;white-space:normal;clip-rule:nonzero;display:inline;overflow:visible;visibility:visible;opacity:1;isolation:auto;mix-blend-mode:normal;color-interpolation:sRGB;color-interpolation-filters:linearRGB;solid-color:#000000;solid-opacity:1;fill:#ffffff;fill-opacity:0.298039;fill-rule:evenodd;stroke:none;stroke-width:2.5;stroke-linecap:round;stroke-linejoin:miter;stroke-miterlimit:4;stroke-dasharray:none;stroke-dashoffset:0;stroke-opacity:1;color-rendering:auto;image-rendering:auto;shape-rendering:auto;text-rendering:auto"
       transform="matrix(-2.63159,0,0,2.63157,483.158,-2270.475)"
       id="path22" />
    <path
       d="m 1.622,1006.07 a 1.25,1.25 0 0 0 -0.022,1.557 l 4.25,5.5 c 1.02,1.319 1.15,-0.613 1.15,-0.613 0,0 -3.735,-4.51 -5.378,-6.443"
       style="color:#000000;font-style:normal;font-variant:normal;font-weight:400;font-stretch:normal;font-size:medium;line-height:normal;font-family:sans-serif;text-indent:0;text-align:start;text-decoration:none;text-decoration-line:none;text-decoration-style:solid;text-decoration-color:#000000;letter-spacing:normal;word-spacing:normal;text-transform:none;writing-mode:lr-tb;direction:ltr;baseline-shift:baseline;text-anchor:start;white-space:normal;clip-rule:nonzero;display:inline;overflow:visible;visibility:visible;opacity:1;isolation:auto;mix-blend-mode:normal;color-interpolation:sRGB;color-interpolation-filters:linearRGB;solid-color:#000000;solid-opacity:1;fill:#263238;fill-opacity:0.2;fill-rule:evenodd;stroke:none;stroke-width:2.5;stroke-linecap:round;stroke-linejoin:miter;stroke-miterlimit:4;stroke-dasharray:none;stroke-dashoffset:0;stroke-opacity:1;color-rendering:auto;image-rendering:auto;shape-rendering:auto;text-rendering:auto"
       transform="matrix(-2.63159,0,0,2.63157,483.158,-2270.475)"
       id="path24" />
    <path
       d="m 2.338,1005.844 c -0.438,0 -0.96,0.142 -0.824,0.799 0.103,0.501 4.66,6.074 4.66,6.074 1.02,1.32 2.494,0.677 1.474,-0.642 l -4.234,-5.473 c -0.26,-0.29 -0.608,-0.744 -1.076,-0.758"
       style="color:#000000;font-style:normal;font-variant:normal;font-weight:400;font-stretch:normal;font-size:medium;line-height:normal;font-family:sans-serif;text-indent:0;text-align:start;text-decoration:none;text-decoration-line:none;text-decoration-style:solid;text-decoration-color:#000000;letter-spacing:normal;word-spacing:normal;text-transform:none;writing-mode:lr-tb;direction:ltr;baseline-shift:baseline;text-anchor:start;white-space:normal;clip-rule:nonzero;display:inline;overflow:visible;visibility:visible;opacity:1;isolation:auto;mix-blend-mode:normal;color-interpolation:sRGB;color-interpolation-filters:linearRGB;solid-color:#000000;solid-opacity:1;fill:#8ab000;fill-opacity:1;fill-rule:evenodd;stroke:none;stroke-width:2.5;stroke-linecap:round;stroke-linejoin:miter;stroke-miterlimit:4;stroke-dasharray:none;stroke-dashoffset:0;stroke-opacity:1;color-rendering:auto;image-rendering:auto;shape-rendering:auto;text-rendering:auto"
       transform="matrix(-2.63159,0,0,2.63157,483.158,-2270.475)"
       id="path26" />
    <path
       d="m 2.589,1006.862 4.25,5.5"
       style="fill:#8ab000;fill-opacity:1;fill-rule:evenodd;stroke:#769616;stroke-width:2.5;stroke-linecap:round;stroke-linejoin:miter;stroke-miterlimit:4;stroke-dasharray:none;stroke-opacity:1"
       transform="matrix(2.63159,0,0,2.63157,356.842,-2270.475)"
       id="path28" />
    <path
       d="m 2.611,1005.61 c -0.453,0.011 -0.761,0.188 -0.98,0.448 2.027,2.409 2.368,2.792 5.135,6.221 1.02,1.32 2.082,0.638 1.062,-0.681 l -4.25,-5.5 a 1.24,1.24 0 0 0 -0.967,-0.489"
       style="color:#000000;font-style:normal;font-variant:normal;font-weight:400;font-stretch:normal;font-size:medium;line-height:normal;font-family:sans-serif;text-indent:0;text-align:start;text-decoration:none;text-decoration-line:none;text-decoration-style:solid;text-decoration-color:#000000;letter-spacing:normal;word-spacing:normal;text-transform:none;writing-mode:lr-tb;direction:ltr;baseline-shift:baseline;text-anchor:start;white-space:normal;clip-rule:nonzero;display:inline;overflow:visible;visibility:visible;opacity:1;isolation:auto;mix-blend-mode:normal;color-interpolation:sRGB;color-interpolation-filters:linearRGB;solid-color:#000000;solid-opacity:1;fill:#ffffff;fill-opacity:0.298039;fill-rule:evenodd;stroke:none;stroke-width:2.5;stroke-linecap:round;stroke-linejoin:miter;stroke-miterlimit:4;stroke-dasharray:none;stroke-dashoffset:0;stroke-opacity:1;color-rendering:auto;image-rendering:auto;shape-rendering:auto;text-rendering:auto"
       transform="matrix(2.63159,0,0,2.63157,356.842,-2270.475)"
       id="path30" />
    <path
       d="m 1.622,1006.07 a 1.25,1.25 0 0 0 -0.022,1.557 l 4.25,5.5 c 1.02,1.319 1.15,-0.613 1.15,-0.613 0,0 -3.735,-4.51 -5.378,-6.443"
       style="color:#000000;font-style:normal;font-variant:normal;font-weight:400;font-stretch:normal;font-size:medium;line-height:normal;font-family:sans-serif;text-indent:0;text-align:start;text-decoration:none;text-decoration-line:none;text-decoration-style:solid;text-decoration-color:#000000;letter-spacing:normal;word-spacing:normal;text-transform:none;writing-mode:lr-tb;direction:ltr;baseline-shift:baseline;text-anchor:start;white-space:normal;clip-rule:nonzero;display:inline;overflow:visible;visibility:visible;opacity:1;isolation:auto;mix-blend-mode:normal;color-interpolation:sRGB;color-interpolation-filters:linearRGB;solid-color:#000000;solid-opacity:1;fill:#263238;fill-opacity:0.2;fill-rule:evenodd;stroke:none;stroke-width:2.5;stroke-linecap:round;stroke-linejoin:miter;stroke-miterlimit:4;stroke-dasharray:none;stroke-dashoffset:0;stroke-opacity:1;color-rendering:auto;image-rendering:auto;shape-rendering:auto;text-rendering:auto"
       transform="matrix(2.63159,0,0,2.63157,356.842,-2270.475)"
       id="path32" />
    <path
       d="m 2.338,1005.844 c -0.438,0 -0.96,0.142 -0.824,0.799 0.103,0.501 4.66,6.074 4.66,6.074 1.02,1.32 2.494,0.677 1.474,-0.642 l -4.234,-5.473 c -0.26,-0.29 -0.608,-0.744 -1.076,-0.758"
       style="color:#000000;font-style:normal;font-variant:normal;font-weight:400;font-stretch:normal;font-size:medium;line-height:normal;font-family:sans-serif;text-indent:0;text-align:start;text-decoration:none;text-decoration-line:none;text-decoration-style:solid;text-decoration-color:#000000;letter-spacing:normal;word-spacing:normal;text-transform:none;writing-mode:lr-tb;direction:ltr;baseline-shift:baseline;text-anchor:start;white-space:normal;clip-rule:nonzero;display:inline;overflow:visible;visibility:visible;opacity:1;isolation:auto;mix-blend-mode:normal;color-interpolation:sRGB;color-interpolation-filters:linearRGB;solid-color:#000000;solid-opacity:1;fill:#8ab000;fill-opacity:1;fill-rule:evenodd;stroke:none;stroke-width:2.5;stroke-linecap:round;stroke-linejoin:miter;stroke-miterlimit:4;stroke-dasharray:none;stroke-dashoffset:0;stroke-opacity:1;color-rendering:auto;image-rendering:auto;shape-rendering:auto;text-rendering:auto"
       transform="matrix(2.63159,0,0,2.63157,356.842,-2270.475)"
       id="path34" />
    <g
       transform="matrix(2.63159,0,0,2.63157,467.369,-2270.475)"
       id="g44">
      <path
         id="rect36"
         style="opacity:1;fill:#aeea00;stroke-width:3;stroke-linecap:round;stroke-miterlimit:3"
         d="m -34,1010.36 h 32 c 1.662,0 3,1.338 3,3 v 6.92 c 0,1.662 -1.338,3 -3,3 h -32 c -1.662,0 -3,-1.338 -3,-3 v -6.92 c 0,-1.662 1.338,-3 3,-3 z" />
      <path
         id="rect38"
         style="opacity:1;fill:#263238;fill-opacity:0.2;stroke-width:3;stroke-linecap:round;stroke-miterlimit:3"
         d="m -34,1013.279 h 32 c 1.662,0 3,1.338 3,3 v 4 c 0,1.662 -1.338,3 -3,3 h -32 c -1.662,0 -3,-1.338 -3,-3 v -4 c 0,-1.662 1.338,-3 3,-3 z" />
      <path
         id="rect40"
         style="opacity:1;fill:#ffffff;fill-opacity:0.298039;stroke-width:3;stroke-linecap:round;stroke-miterlimit:3"
         d="m -34,1010.362 h 32 c 1.662,0 3,1.338 3,3 v 4 c 0,1.662 -1.338,3 -3,3 h -32 c -1.662,0 -3,-1.338 -3,-3 v -4 c 0,-1.662 1.338,-3 3,-3 z" />
      <path
         id="rect42"
         style="opacity:1;fill:#aeea00;stroke-width:3;stroke-linecap:round;stroke-miterlimit:3"
         d="m -34,1011.5 h 32 c 1.662,0 3,1.0954 3,2.456 v 5.729 c 0,1.3606 -1.338,2.456 -3,2.456 h -32 c -1.662,0 -3,-1.0954 -3,-2.456 v -5.729 c 0,-1.3606 1.338,-2.456 3,-2.456 z" />
    </g>
    <g
       transform="matrix(2.63159,0,0,2.63157,356.842,-2270.745)"
       id="g54">
      <path
         id="rect46"
         style="opacity:1;fill:#1976d2;stroke-width:3;stroke-linecap:round;stroke-miterlimit:3"
         d="m 8,1024.522 h 32 c 1.662,0 3,1.338 3,3 v 19.84 c 0,1.662 -1.338,3 -3,3 H 8 c -1.662,0 -3,-1.338 -3,-3 v -19.84 c 0,-1.662 1.338,-3 3,-3 z" />
      <path
         id="rect48"
         style="opacity:1;fill:#263238;fill-opacity:0.2;stroke-width:3;stroke-linecap:round;stroke-miterlimit:3"
         d="m 8,1037.3621 h 32 c 1.662,0 3,1.338 3,3 v 7 c 0,1.662 -1.338,3 -3,3 H 8 c -1.662,0 -3,-1.338 -3,-3 v -7 c 0,-1.662 1.338,-3 3,-3 z" />
      <path
         id="rect50"
         style="opacity:1;fill:#ffffff;fill-opacity:0.2;stroke-width:3;stroke-linecap:round;stroke-miterlimit:3"
         d="m 8,1024.442 h 32 c 1.662,0 3,1.338 3,3 v 7 c 0,1.662 -1.338,3 -3,3 H 8 c -1.662,0 -3,-1.338 -3,-3 v -7 c 0,-1.662 1.338,-3 3,-3 z" />
      <path
         id="rect52"
         style="opacity:1;fill:#1976d2;stroke-width:3;stroke-linecap:round;stroke-miterlimit:3"
         d="m 8,1025.662 h 32 c 1.662,0 3,1.2122 3,2.718 v 18.124 c 0,1.5058 -1.338,2.718 -3,2.718 H 8 c -1.662,0 -3,-1.2122 -3,-2.718 v -18.124 c 0,-1.5058 1.338,-2.718 3,-2.718 z" />
    </g>
    <g
       transform="matrix(2.63159,0,0,2.63157,356.842,396.264)"
       id="g60">
      <path
         d="m 24,17.75 c -2.88,0 -5.32,1.985 -6.033,4.65 H 21.18 A 3.22,3.22 0 0 1 24,20.75 3.23,3.23 0 0 1 27.25,24 3.23,3.23 0 0 1 24,27.25 3.22,3.22 0 0 1 21.07,25.4 h -3.154 c 0.642,2.766 3.132,4.85 6.084,4.85 3.434,0 6.25,-2.816 6.25,-6.25 0,-3.434 -2.816,-6.25 -6.25,-6.25"
         style="color:#000000;font-style:normal;font-variant:normal;font-weight:400;font-stretch:normal;font-size:medium;line-height:normal;font-family:sans-serif;text-indent:0;text-align:start;text-decoration:none;text-decoration-line:none;text-decoration-style:solid;text-decoration-color:#000000;letter-spacing:normal;word-spacing:normal;text-transform:none;writing-mode:lr-tb;direction:ltr;baseline-shift:baseline;text-anchor:start;white-space:normal;clip-rule:nonzero;display:inline;overflow:visible;visibility:visible;opacity:1;isolation:auto;mix-blend-mode:normal;color-interpolation:sRGB;color-interpolation-filters:linearRGB;solid-color:#000000;solid-opacity:1;fill:#0d47a1;fill-opacity:1;fill-rule:nonzero;stroke:none;stroke-width:3;stroke-linecap:round;stroke-linejoin:miter;stroke-miterlimit:4;stroke-dasharray:none;stroke-dashoffset:0;stroke-opacity:1;color-rendering:auto;image-rendering:auto;shape-rendering:auto;text-rendering:auto"
         id="path56" />
      <path
         id="circle58"
         style="opacity:1;fill:none;fill-opacity:0.403922;stroke:#0d47a1;stroke-width:1.9;stroke-linecap:round"
         d="M 33.55,24 A 9.5500002,9.5500002 0 0 1 24,33.55 9.5500002,9.5500002 0 0 1 14.45,24 9.5500002,9.5500002 0 0 1 24,14.45 9.5500002,9.5500002 0 0 1 33.55,24 Z" />
    </g>
    <g
       transform="matrix(2.63159,0,0,2.63157,356.842,-2269.159)"
       id="g66">
      <path
         id="ellipse62"
         style="opacity:1;fill:#263238;fill-opacity:0.2;stroke-width:1.9;stroke-linecap:round;stroke-opacity:0.697211"
         d="m 17.75,1016.487 a 3.375,3.875 0 0 1 -3.375,3.875 3.375,3.875 0 0 1 -3.375,-3.875 3.375,3.875 0 0 1 3.375,-3.875 3.375,3.875 0 0 1 3.375,3.875 z" />
      <path
         id="circle64"
         style="opacity:1;fill:#ffffff;stroke-width:1.9;stroke-linecap:round;stroke-opacity:0.697211"
         d="m 17.75,1016.987 a 3.375,3.375 0 0 1 -3.375,3.375 3.375,3.375 0 0 1 -3.375,-3.375 3.375,3.375 0 0 1 3.375,-3.375 3.375,3.375 0 0 1 3.375,3.375 z" />
    </g>
    <g
       transform="matrix(2.63159,0,0,2.63157,408.158,-2269.159)"
       id="g72">
      <path
         id="ellipse68"
         style="opacity:1;fill:#263238;fill-opacity:0.2;stroke-width:1.9;stroke-linecap:round;stroke-opacity:0.697211"
         d="m 17.75,1016.487 a 3.375,3.875 0 0 1 -3.375,3.875 3.375,3.875 0 0 1 -3.375,-3.875 3.375,3.875 0 0 1 3.375,-3.875 3.375,3.875 0 0 1 3.375,3.875 z" />
      <path
         id="circle70"
         style="opacity:1;fill:#ffffff;stroke-width:1.9;stroke-linecap:round;stroke-opacity:0.697211"
         d="m 17.75,1016.987 a 3.375,3.375 0 0 1 -3.375,3.375 3.375,3.375 0 0 1 -3.375,-3.375 3.375,3.375 0 0 1 3.375,-3.375 3.375,3.375 0 0 1 3.375,3.375 z" />
    </g>
    <path
       d="m 282.715,299.835 a 3.29,3.29 0 0 0 -2.662,5.336 l 9.474,12.261 A 7.9,7.9 0 0 0 289,320.257 v 18.21 a 7.877,7.877 0 0 0 7.895,7.895 h 84.21 A 7.877,7.877 0 0 0 389,338.468 v -18.211 c 0,-0.999 -0.19,-1.949 -0.525,-2.826 l 9.472,-12.26 a 3.29,3.29 0 0 0 -2.433,-5.334 3.29,3.29 0 0 0 -2.772,1.31 l -9.013,11.666 a 7.9,7.9 0 0 0 -2.624,-0.45 h -84.21 c -0.922,0 -1.8,0.163 -2.622,0.45 l -9.015,-11.666 a 3.29,3.29 0 0 0 -2.543,-1.312 m 14.18,49.527 A 7.877,7.877 0 0 0 289,357.257 v 52.21 a 7.877,7.877 0 0 0 7.895,7.895 h 84.21 A 7.877,7.877 0 0 0 389,409.468 v -52.211 a 7.877,7.877 0 0 0 -7.895,-7.895 z"
       style="color:#000000;font-style:normal;font-variant:normal;font-weight:400;font-stretch:normal;font-size:medium;line-height:normal;font-family:sans-serif;text-indent:0;text-align:start;text-decoration:none;text-decoration-line:none;text-decoration-style:solid;text-decoration-color:#000000;letter-spacing:normal;word-spacing:normal;text-transform:none;writing-mode:lr-tb;direction:ltr;baseline-shift:baseline;text-anchor:start;white-space:normal;clip-rule:nonzero;display:inline;overflow:visible;visibility:visible;opacity:1;isolation:auto;mix-blend-mode:normal;color-interpolation:sRGB;color-interpolation-filters:linearRGB;solid-color:#000000;solid-opacity:1;fill:url(#b);fill-opacity:1;fill-rule:evenodd;stroke:none;stroke-width:6.57895;stroke-linecap:round;stroke-linejoin:miter;stroke-miterlimit:4;stroke-dasharray:none;stroke-dashoffset:0;stroke-opacity:1;color-rendering:auto;image-rendering:auto;shape-rendering:auto;text-rendering:auto"
       transform="translate(81,76)"
       id="path74" />
  </g>
</svg>
