<?xml version="1.0" encoding="UTF-8" standalone="no"?>
<svg
   width="565"
   height="180"
   version="1.1"
   id="svg82"
   sodipodi:docname="get-it-on-kn.svg"
   xmlns:inkscape="http://www.inkscape.org/namespaces/inkscape"
   xmlns:sodipodi="http://sodipodi.sourceforge.net/DTD/sodipodi-0.dtd"
   xmlns:xlink="http://www.w3.org/1999/xlink"
   xmlns="http://www.w3.org/2000/svg"
   xmlns:svg="http://www.w3.org/2000/svg">
  <sodipodi:namedview
     id="namedview84"
     pagecolor="#ffffff"
     bordercolor="#000000"
     borderopacity="0.25"
     inkscape:showpageshadow="2"
     inkscape:pageopacity="0.0"
     inkscape:pagecheckerboard="0"
     inkscape:deskcolor="#d1d1d1" />
  <defs
     id="defs8">
    <radialGradient
       xlink:href="#a"
       id="b"
       cx="113"
       cy="-12.89"
       r="59.662"
       fx="113"
       fy="-12.89"
       gradientTransform="matrix(0 1.96105 -1.97781 0 254.507 78.763)"
       gradientUnits="userSpaceOnUse" />
    <linearGradient
       id="a">
      <stop
         offset="0"
         style="stop-color:#fff;stop-opacity:.09803922"
         id="stop3" />
      <stop
         offset="1"
         style="stop-color:#fff;stop-opacity:0"
         id="stop5" />
    </linearGradient>
  </defs>
  <g
     transform="translate(-329,-347.362)"
     id="g80">
    <path
       id="rect10"
       style="display:inline;overflow:visible;stroke:#a6a6a6;stroke-width:4;marker:none"
       d="m 352,349.362 h 520 c 11.08,0 20,8.92 20,20 v 136 c 0,11.08 -8.92,20 -20,20 H 352 c -11.08,0 -20,-8.92 -20,-20 v -136 c 0,-11.08 8.92,-20 20,-20 z" />
    <path
       d="m 2.589,1006.862 4.25,5.5"
       style="fill:#8ab000;fill-opacity:1;fill-rule:evenodd;stroke:#769616;stroke-width:2.5;stroke-linecap:round;stroke-linejoin:miter;stroke-miterlimit:4;stroke-dasharray:none;stroke-opacity:1"
       transform="matrix(-2.63159,0,0,2.63157,483.158,-2270.475)"
       id="path12" />
    <path
       d="m 2.611,1005.61 c -0.453,0.011 -0.761,0.188 -0.98,0.448 2.027,2.409 2.368,2.792 5.135,6.221 1.02,1.32 2.082,0.638 1.062,-0.681 l -4.25,-5.5 a 1.24,1.24 0 0 0 -0.967,-0.489"
       style="color:#000000;font-style:normal;font-variant:normal;font-weight:400;font-stretch:normal;font-size:medium;line-height:normal;font-family:sans-serif;text-indent:0;text-align:start;text-decoration:none;text-decoration-line:none;text-decoration-style:solid;text-decoration-color:#000000;letter-spacing:normal;word-spacing:normal;text-transform:none;writing-mode:lr-tb;direction:ltr;baseline-shift:baseline;text-anchor:start;white-space:normal;clip-rule:nonzero;display:inline;overflow:visible;visibility:visible;opacity:1;isolation:auto;mix-blend-mode:normal;color-interpolation:sRGB;color-interpolation-filters:linearRGB;solid-color:#000000;solid-opacity:1;fill:#ffffff;fill-opacity:0.298039;fill-rule:evenodd;stroke:none;stroke-width:2.5;stroke-linecap:round;stroke-linejoin:miter;stroke-miterlimit:4;stroke-dasharray:none;stroke-dashoffset:0;stroke-opacity:1;color-rendering:auto;image-rendering:auto;shape-rendering:auto;text-rendering:auto"
       transform="matrix(-2.63159,0,0,2.63157,483.158,-2270.475)"
       id="path14" />
    <path
       d="m 1.622,1006.07 a 1.25,1.25 0 0 0 -0.022,1.557 l 4.25,5.5 c 1.02,1.319 1.15,-0.613 1.15,-0.613 0,0 -3.735,-4.51 -5.378,-6.443"
       style="color:#000000;font-style:normal;font-variant:normal;font-weight:400;font-stretch:normal;font-size:medium;line-height:normal;font-family:sans-serif;text-indent:0;text-align:start;text-decoration:none;text-decoration-line:none;text-decoration-style:solid;text-decoration-color:#000000;letter-spacing:normal;word-spacing:normal;text-transform:none;writing-mode:lr-tb;direction:ltr;baseline-shift:baseline;text-anchor:start;white-space:normal;clip-rule:nonzero;display:inline;overflow:visible;visibility:visible;opacity:1;isolation:auto;mix-blend-mode:normal;color-interpolation:sRGB;color-interpolation-filters:linearRGB;solid-color:#000000;solid-opacity:1;fill:#263238;fill-opacity:0.2;fill-rule:evenodd;stroke:none;stroke-width:2.5;stroke-linecap:round;stroke-linejoin:miter;stroke-miterlimit:4;stroke-dasharray:none;stroke-dashoffset:0;stroke-opacity:1;color-rendering:auto;image-rendering:auto;shape-rendering:auto;text-rendering:auto"
       transform="matrix(-2.63159,0,0,2.63157,483.158,-2270.475)"
       id="path16" />
    <path
       d="m 2.338,1005.844 c -0.438,0 -0.96,0.142 -0.824,0.799 0.103,0.501 4.66,6.074 4.66,6.074 1.02,1.32 2.494,0.677 1.474,-0.642 l -4.234,-5.473 c -0.26,-0.29 -0.608,-0.744 -1.076,-0.758"
       style="color:#000000;font-style:normal;font-variant:normal;font-weight:400;font-stretch:normal;font-size:medium;line-height:normal;font-family:sans-serif;text-indent:0;text-align:start;text-decoration:none;text-decoration-line:none;text-decoration-style:solid;text-decoration-color:#000000;letter-spacing:normal;word-spacing:normal;text-transform:none;writing-mode:lr-tb;direction:ltr;baseline-shift:baseline;text-anchor:start;white-space:normal;clip-rule:nonzero;display:inline;overflow:visible;visibility:visible;opacity:1;isolation:auto;mix-blend-mode:normal;color-interpolation:sRGB;color-interpolation-filters:linearRGB;solid-color:#000000;solid-opacity:1;fill:#8ab000;fill-opacity:1;fill-rule:evenodd;stroke:none;stroke-width:2.5;stroke-linecap:round;stroke-linejoin:miter;stroke-miterlimit:4;stroke-dasharray:none;stroke-dashoffset:0;stroke-opacity:1;color-rendering:auto;image-rendering:auto;shape-rendering:auto;text-rendering:auto"
       transform="matrix(-2.63159,0,0,2.63157,483.158,-2270.475)"
       id="path18" />
    <path
       d="m 2.589,1006.862 4.25,5.5"
       style="fill:#8ab000;fill-opacity:1;fill-rule:evenodd;stroke:#769616;stroke-width:2.5;stroke-linecap:round;stroke-linejoin:miter;stroke-miterlimit:4;stroke-dasharray:none;stroke-opacity:1"
       transform="matrix(2.63159,0,0,2.63157,356.842,-2270.475)"
       id="path20" />
    <path
       d="m 2.611,1005.61 c -0.453,0.011 -0.761,0.188 -0.98,0.448 2.027,2.409 2.368,2.792 5.135,6.221 1.02,1.32 2.082,0.638 1.062,-0.681 l -4.25,-5.5 a 1.24,1.24 0 0 0 -0.967,-0.489"
       style="color:#000000;font-style:normal;font-variant:normal;font-weight:400;font-stretch:normal;font-size:medium;line-height:normal;font-family:sans-serif;text-indent:0;text-align:start;text-decoration:none;text-decoration-line:none;text-decoration-style:solid;text-decoration-color:#000000;letter-spacing:normal;word-spacing:normal;text-transform:none;writing-mode:lr-tb;direction:ltr;baseline-shift:baseline;text-anchor:start;white-space:normal;clip-rule:nonzero;display:inline;overflow:visible;visibility:visible;opacity:1;isolation:auto;mix-blend-mode:normal;color-interpolation:sRGB;color-interpolation-filters:linearRGB;solid-color:#000000;solid-opacity:1;fill:#ffffff;fill-opacity:0.298039;fill-rule:evenodd;stroke:none;stroke-width:2.5;stroke-linecap:round;stroke-linejoin:miter;stroke-miterlimit:4;stroke-dasharray:none;stroke-dashoffset:0;stroke-opacity:1;color-rendering:auto;image-rendering:auto;shape-rendering:auto;text-rendering:auto"
       transform="matrix(2.63159,0,0,2.63157,356.842,-2270.475)"
       id="path22" />
    <path
       d="m 1.622,1006.07 a 1.25,1.25 0 0 0 -0.022,1.557 l 4.25,5.5 c 1.02,1.319 1.15,-0.613 1.15,-0.613 0,0 -3.735,-4.51 -5.378,-6.443"
       style="color:#000000;font-style:normal;font-variant:normal;font-weight:400;font-stretch:normal;font-size:medium;line-height:normal;font-family:sans-serif;text-indent:0;text-align:start;text-decoration:none;text-decoration-line:none;text-decoration-style:solid;text-decoration-color:#000000;letter-spacing:normal;word-spacing:normal;text-transform:none;writing-mode:lr-tb;direction:ltr;baseline-shift:baseline;text-anchor:start;white-space:normal;clip-rule:nonzero;display:inline;overflow:visible;visibility:visible;opacity:1;isolation:auto;mix-blend-mode:normal;color-interpolation:sRGB;color-interpolation-filters:linearRGB;solid-color:#000000;solid-opacity:1;fill:#263238;fill-opacity:0.2;fill-rule:evenodd;stroke:none;stroke-width:2.5;stroke-linecap:round;stroke-linejoin:miter;stroke-miterlimit:4;stroke-dasharray:none;stroke-dashoffset:0;stroke-opacity:1;color-rendering:auto;image-rendering:auto;shape-rendering:auto;text-rendering:auto"
       transform="matrix(2.63159,0,0,2.63157,356.842,-2270.475)"
       id="path24" />
    <path
       d="m 2.338,1005.844 c -0.438,0 -0.96,0.142 -0.824,0.799 0.103,0.501 4.66,6.074 4.66,6.074 1.02,1.32 2.494,0.677 1.474,-0.642 l -4.234,-5.473 c -0.26,-0.29 -0.608,-0.744 -1.076,-0.758"
       style="color:#000000;font-style:normal;font-variant:normal;font-weight:400;font-stretch:normal;font-size:medium;line-height:normal;font-family:sans-serif;text-indent:0;text-align:start;text-decoration:none;text-decoration-line:none;text-decoration-style:solid;text-decoration-color:#000000;letter-spacing:normal;word-spacing:normal;text-transform:none;writing-mode:lr-tb;direction:ltr;baseline-shift:baseline;text-anchor:start;white-space:normal;clip-rule:nonzero;display:inline;overflow:visible;visibility:visible;opacity:1;isolation:auto;mix-blend-mode:normal;color-interpolation:sRGB;color-interpolation-filters:linearRGB;solid-color:#000000;solid-opacity:1;fill:#8ab000;fill-opacity:1;fill-rule:evenodd;stroke:none;stroke-width:2.5;stroke-linecap:round;stroke-linejoin:miter;stroke-miterlimit:4;stroke-dasharray:none;stroke-dashoffset:0;stroke-opacity:1;color-rendering:auto;image-rendering:auto;shape-rendering:auto;text-rendering:auto"
       transform="matrix(2.63159,0,0,2.63157,356.842,-2270.475)"
       id="path26" />
    <g
       transform="matrix(2.63159,0,0,2.63157,467.369,-2270.475)"
       id="g36">
      <path
         id="rect28"
         style="opacity:1;fill:#aeea00;stroke-width:3;stroke-linecap:round;stroke-miterlimit:3"
         d="m -34,1010.36 h 32 c 1.662,0 3,1.338 3,3 v 6.92 c 0,1.662 -1.338,3 -3,3 h -32 c -1.662,0 -3,-1.338 -3,-3 v -6.92 c 0,-1.662 1.338,-3 3,-3 z" />
      <path
         id="rect30"
         style="opacity:1;fill:#263238;fill-opacity:0.2;stroke-width:3;stroke-linecap:round;stroke-miterlimit:3"
         d="m -34,1013.279 h 32 c 1.662,0 3,1.338 3,3 v 4 c 0,1.662 -1.338,3 -3,3 h -32 c -1.662,0 -3,-1.338 -3,-3 v -4 c 0,-1.662 1.338,-3 3,-3 z" />
      <path
         id="rect32"
         style="opacity:1;fill:#ffffff;fill-opacity:0.298039;stroke-width:3;stroke-linecap:round;stroke-miterlimit:3"
         d="m -34,1010.362 h 32 c 1.662,0 3,1.338 3,3 v 4 c 0,1.662 -1.338,3 -3,3 h -32 c -1.662,0 -3,-1.338 -3,-3 v -4 c 0,-1.662 1.338,-3 3,-3 z" />
      <path
         id="rect34"
         style="opacity:1;fill:#aeea00;stroke-width:3;stroke-linecap:round;stroke-miterlimit:3"
         d="m -34,1011.5 h 32 c 1.662,0 3,1.0954 3,2.456 v 5.729 c 0,1.3606 -1.338,2.456 -3,2.456 h -32 c -1.662,0 -3,-1.0954 -3,-2.456 v -5.729 c 0,-1.3606 1.338,-2.456 3,-2.456 z" />
    </g>
    <g
       transform="matrix(2.63159,0,0,2.63157,356.842,-2270.745)"
       id="g46">
      <path
         id="rect38"
         style="opacity:1;fill:#1976d2;stroke-width:3;stroke-linecap:round;stroke-miterlimit:3"
         d="m 8,1024.522 h 32 c 1.662,0 3,1.338 3,3 v 19.84 c 0,1.662 -1.338,3 -3,3 H 8 c -1.662,0 -3,-1.338 -3,-3 v -19.84 c 0,-1.662 1.338,-3 3,-3 z" />
      <path
         id="rect40"
         style="opacity:1;fill:#263238;fill-opacity:0.2;stroke-width:3;stroke-linecap:round;stroke-miterlimit:3"
         d="m 8,1037.3621 h 32 c 1.662,0 3,1.338 3,3 v 7 c 0,1.662 -1.338,3 -3,3 H 8 c -1.662,0 -3,-1.338 -3,-3 v -7 c 0,-1.662 1.338,-3 3,-3 z" />
      <path
         id="rect42"
         style="opacity:1;fill:#ffffff;fill-opacity:0.2;stroke-width:3;stroke-linecap:round;stroke-miterlimit:3"
         d="m 8,1024.442 h 32 c 1.662,0 3,1.338 3,3 v 7 c 0,1.662 -1.338,3 -3,3 H 8 c -1.662,0 -3,-1.338 -3,-3 v -7 c 0,-1.662 1.338,-3 3,-3 z" />
      <path
         id="rect44"
         style="opacity:1;fill:#1976d2;stroke-width:3;stroke-linecap:round;stroke-miterlimit:3"
         d="m 8,1025.662 h 32 c 1.662,0 3,1.2122 3,2.718 v 18.124 c 0,1.5058 -1.338,2.718 -3,2.718 H 8 c -1.662,0 -3,-1.2122 -3,-2.718 v -18.124 c 0,-1.5058 1.338,-2.718 3,-2.718 z" />
    </g>
    <g
       transform="matrix(2.63159,0,0,2.63157,356.842,396.264)"
       id="g52">
      <path
         d="m 24,17.75 c -2.88,0 -5.32,1.985 -6.033,4.65 H 21.18 A 3.22,3.22 0 0 1 24,20.75 3.23,3.23 0 0 1 27.25,24 3.23,3.23 0 0 1 24,27.25 3.22,3.22 0 0 1 21.07,25.4 h -3.154 c 0.642,2.766 3.132,4.85 6.084,4.85 3.434,0 6.25,-2.816 6.25,-6.25 0,-3.434 -2.816,-6.25 -6.25,-6.25"
         style="color:#000000;font-style:normal;font-variant:normal;font-weight:400;font-stretch:normal;font-size:medium;line-height:normal;font-family:sans-serif;text-indent:0;text-align:start;text-decoration:none;text-decoration-line:none;text-decoration-style:solid;text-decoration-color:#000000;letter-spacing:normal;word-spacing:normal;text-transform:none;writing-mode:lr-tb;direction:ltr;baseline-shift:baseline;text-anchor:start;white-space:normal;clip-rule:nonzero;display:inline;overflow:visible;visibility:visible;opacity:1;isolation:auto;mix-blend-mode:normal;color-interpolation:sRGB;color-interpolation-filters:linearRGB;solid-color:#000000;solid-opacity:1;fill:#0d47a1;fill-opacity:1;fill-rule:nonzero;stroke:none;stroke-width:3;stroke-linecap:round;stroke-linejoin:miter;stroke-miterlimit:4;stroke-dasharray:none;stroke-dashoffset:0;stroke-opacity:1;color-rendering:auto;image-rendering:auto;shape-rendering:auto;text-rendering:auto"
         id="path48" />
      <path
         id="circle50"
         style="opacity:1;fill:none;fill-opacity:0.403922;stroke:#0d47a1;stroke-width:1.9;stroke-linecap:round"
         d="M 33.55,24 A 9.5500002,9.5500002 0 0 1 24,33.55 9.5500002,9.5500002 0 0 1 14.45,24 9.5500002,9.5500002 0 0 1 24,14.45 9.5500002,9.5500002 0 0 1 33.55,24 Z" />
    </g>
    <g
       transform="matrix(2.63159,0,0,2.63157,356.842,-2269.159)"
       id="g58">
      <path
         id="ellipse54"
         style="opacity:1;fill:#263238;fill-opacity:0.2;stroke-width:1.9;stroke-linecap:round;stroke-opacity:0.697211"
         d="m 17.75,1016.487 a 3.375,3.875 0 0 1 -3.375,3.875 3.375,3.875 0 0 1 -3.375,-3.875 3.375,3.875 0 0 1 3.375,-3.875 3.375,3.875 0 0 1 3.375,3.875 z" />
      <path
         id="circle56"
         style="opacity:1;fill:#ffffff;stroke-width:1.9;stroke-linecap:round;stroke-opacity:0.697211"
         d="m 17.75,1016.987 a 3.375,3.375 0 0 1 -3.375,3.375 3.375,3.375 0 0 1 -3.375,-3.375 3.375,3.375 0 0 1 3.375,-3.375 3.375,3.375 0 0 1 3.375,3.375 z" />
    </g>
    <g
       transform="matrix(2.63159,0,0,2.63157,408.158,-2269.159)"
       id="g64">
      <path
         id="ellipse60"
         style="opacity:1;fill:#263238;fill-opacity:0.2;stroke-width:1.9;stroke-linecap:round;stroke-opacity:0.697211"
         d="m 17.75,1016.487 a 3.375,3.875 0 0 1 -3.375,3.875 3.375,3.875 0 0 1 -3.375,-3.875 3.375,3.875 0 0 1 3.375,-3.875 3.375,3.875 0 0 1 3.375,3.875 z" />
      <path
         id="circle62"
         style="opacity:1;fill:#ffffff;stroke-width:1.9;stroke-linecap:round;stroke-opacity:0.697211"
         d="m 17.75,1016.987 a 3.375,3.375 0 0 1 -3.375,3.375 3.375,3.375 0 0 1 -3.375,-3.375 3.375,3.375 0 0 1 3.375,-3.375 3.375,3.375 0 0 1 3.375,3.375 z" />
    </g>
    <path
       d="m 282.715,299.835 a 3.29,3.29 0 0 0 -2.662,5.336 l 9.474,12.261 A 7.9,7.9 0 0 0 289,320.257 v 18.21 a 7.877,7.877 0 0 0 7.895,7.895 h 84.21 A 7.877,7.877 0 0 0 389,338.468 v -18.211 c 0,-0.999 -0.19,-1.949 -0.525,-2.826 l 9.472,-12.26 a 3.29,3.29 0 0 0 -2.433,-5.334 3.29,3.29 0 0 0 -2.772,1.31 l -9.013,11.666 a 7.9,7.9 0 0 0 -2.624,-0.45 h -84.21 c -0.922,0 -1.8,0.163 -2.622,0.45 l -9.015,-11.666 a 3.29,3.29 0 0 0 -2.543,-1.312 m 14.18,49.527 A 7.877,7.877 0 0 0 289,357.257 v 52.21 a 7.877,7.877 0 0 0 7.895,7.895 h 84.21 A 7.877,7.877 0 0 0 389,409.468 v -52.211 a 7.877,7.877 0 0 0 -7.895,-7.895 z"
       style="color:#000000;font-style:normal;font-variant:normal;font-weight:400;font-stretch:normal;font-size:medium;line-height:normal;font-family:sans-serif;text-indent:0;text-align:start;text-decoration:none;text-decoration-line:none;text-decoration-style:solid;text-decoration-color:#000000;letter-spacing:normal;word-spacing:normal;text-transform:none;writing-mode:lr-tb;direction:ltr;baseline-shift:baseline;text-anchor:start;white-space:normal;clip-rule:nonzero;display:inline;overflow:visible;visibility:visible;opacity:1;isolation:auto;mix-blend-mode:normal;color-interpolation:sRGB;color-interpolation-filters:linearRGB;solid-color:#000000;solid-opacity:1;fill:url(#b);fill-opacity:1;fill-rule:evenodd;stroke:none;stroke-width:6.57895;stroke-linecap:round;stroke-linejoin:miter;stroke-miterlimit:4;stroke-dasharray:none;stroke-dashoffset:0;stroke-opacity:1;color-rendering:auto;image-rendering:auto;shape-rendering:auto;text-rendering:auto"
       transform="translate(81,76)"
       id="path66" />
    <g
       aria-label="ಅದನ್ನು"
       id="text70"
       style="font-size:12.3952px;line-height:100%;font-family:'DejaVu Sans';-inkscape-font-specification:'DejaVu Sans';letter-spacing:0;word-spacing:0;display:inline;overflow:visible;fill:#ffffff;stroke-width:1px;marker:none">
      <path
         d="m 529.52176,388.332 q 0,4.305 -2.31,6.405 -2.28375,2.1 -7.1925,2.1 -4.75125,0 -7.0875,-2.1 -2.33625,-2.12625 -2.33625,-6.195 0,-1.995 0.6825,-3.49125 0.6825,-1.49625 1.86375,-2.33625 1.2075,-0.84 2.73,-0.84 1.6275,0 2.3625,1.1025 0.735,1.07625 0.735,2.5725 0,1.60125 -0.735,2.625 -0.735,0.9975 -2.205,0.9975 -1.44375,0 -2.23125,-0.91875 -0.76125,-0.945 -0.76125,-2.52 0,-0.63 0.1575,-1.1025 -0.6825,0.735 -1.05,1.70625 -0.34125,0.945 -0.34125,2.2575 0,1.575 0.76125,2.86125 0.76125,1.28625 2.54625,2.0475 1.81125,0.76125 4.90875,0.76125 2.44125,0 4.0425,-0.4725 1.60125,-0.4725 2.54625,-1.28625 0.945,-0.84 1.33875,-1.89 0.39375,-1.07625 0.39375,-2.28375 0,-2.02125 -0.735,-3.28125 -0.735,-1.26 -2.0475,-1.26 -0.735,0 -1.2075,0.42 -0.4725,0.42 -0.4725,1.18125 0,1.1025 0.8925,1.70625 0.91875,0.5775 2.205,0.5775 v 1.9425 h -7.5075 l 0.13125,-2.0475 h 2.44125 q 0.525,0 1.02375,0 0.525,0 0.9975,0.0525 -0.8925,-0.49875 -1.4175,-1.23375 -0.525,-0.735 -0.525,-1.70625 0,-1.23375 0.84,-2.02125 0.86625,-0.7875 2.17875,-0.7875 1.39125,0 2.3625,0.8925 0.9975,0.86625 1.49625,2.33625 0.525,1.44375 0.525,3.22875 z m -15.435,-2.7825 q 0,0.735 0.4725,1.2075 0.49875,0.44625 1.39125,0.44625 0.9975,0 1.4175,-0.4725 0.44625,-0.49875 0.44625,-1.2075 0,-0.65625 -0.44625,-1.155 -0.42,-0.49875 -1.365,-0.49875 -0.945,0 -1.44375,0.4725 -0.4725,0.4725 -0.4725,1.2075 z"
         style="font-size:26.25px"
         id="path100" />
      <path
         d="m 536.76677,396.81075 q -1.54875,0 -2.54625,-0.76125 -0.97125,-0.7875 -1.4175,-1.995 -0.44625,-1.23375 -0.44625,-2.54625 0,-2.415 1.18125,-4.27875 1.18125,-1.86375 3.12375,-2.7825 h -4.2525 l 0.18375,-2.28375 h 11.57625 q 1.3125,0 1.9425,-0.13125 0.63,-0.1575 0.9975,-0.4725 0.60375,-0.525 0.60375,-1.5225 0,-1.5225 -1.44375,-3.045 l 0.945,-0.70875 q 0.8925,0.945 1.365,2.0475 0.49875,1.1025 0.49875,2.31 0,0.70875 -0.18375,1.4175 -0.1575,0.70875 -0.76125,1.26 -0.4725,0.44625 -1.2075,0.76125 -0.70875,0.28875 -2.17875,0.3675 1.96875,0.8925 3.15,2.75625 1.18125,1.8375 1.18125,4.305 0,0.86625 -0.21,1.785 -0.21,0.91875 -0.735,1.7325 -0.49875,0.7875 -1.33875,1.28625 -0.84,0.49875 -2.1,0.49875 -1.65375,0 -2.59875,-0.945 -0.91875,-0.97125 -1.365,-2.625 -0.3675,1.60125 -1.39125,2.59875 -0.9975,0.97125 -2.5725,0.97125 z m 0.105,-2.52 q 1.1025,0 1.75875,-0.39375 0.65625,-0.39375 1.02375,-1.07625 0.39375,-0.6825 0.63,-1.54875 h 0.8925 q 0.42,1.39125 1.155,2.205 0.735,0.81375 2.2575,0.81375 1.44375,0 2.0475,-0.97125 0.63,-0.97125 0.63,-2.49375 0,-1.7325 -0.7875,-3.17625 -0.76125,-1.47 -2.205,-2.33625 -1.44375,-0.8925 -3.49125,-0.8925 h -0.105 q -2.02125,0 -3.49125,0.8925 -1.47,0.8925 -2.2575,2.3625 -0.76125,1.44375 -0.76125,3.15 0,1.68 0.70875,2.5725 0.70875,0.8925 1.995,0.8925 z"
         style="font-size:26.25px"
         id="path102" />
      <path
         d="m 554.56429,397.887 q -0.55125,0 -1.18125,-0.63 -0.60375,-0.63 -1.05,-1.81125 -0.42,-1.18125 -0.42,-2.80875 0,-2.07375 0.8925,-3.17625 0.91875,-1.12875 2.23125,-1.12875 0.84,0 1.44375,0.39375 0.60375,0.3675 1.23375,1.18125 0.63,0.7875 1.49625,2.0475 0.84,1.18125 1.49625,1.785 0.65625,0.60375 1.785,0.60375 1.44375,0 2.0475,-0.91875 0.63,-0.945 0.63,-2.31 0,-1.91625 -0.84,-3.4125 -0.84,-1.5225 -2.33625,-2.38875 -1.49625,-0.86625 -3.49125,-0.86625 h -6.53625 l 0.18375,-2.28375 h 9.9225 q 1.3125,0 1.9425,-0.13125 0.63,-0.1575 0.9975,-0.4725 0.60375,-0.4725 0.60375,-1.5225 0,-1.5225 -1.44375,-3.045 l 0.945,-0.70875 q 0.8925,0.945 1.365,2.0475 0.49875,1.1025 0.49875,2.31 0,0.70875 -0.18375,1.4175 -0.1575,0.70875 -0.76125,1.26 -0.44625,0.44625 -1.155,0.76125 -0.70875,0.28875 -2.1525,0.34125 1.44375,0.76125 2.38875,1.9425 0.945,1.18125 1.39125,2.5725 0.4725,1.39125 0.4725,2.73 0,0.7875 -0.18375,1.68 -0.1575,0.8925 -0.5775,1.70625 -0.42,0.7875 -1.2075,1.28625 -0.76125,0.49875 -1.995,0.49875 -1.155,0 -1.9425,-0.4725 -0.7875,-0.49875 -1.39125,-1.28625 -0.5775,-0.81375 -1.2075,-1.75875 -0.76125,-1.18125 -1.5225,-1.86375 -0.735,-0.70875 -1.75875,-0.70875 -0.945,0 -1.5225,0.5775 -0.55125,0.55125 -0.55125,1.6275 0,1.05 0.5775,1.995 0.60375,0.945 1.9425,1.3125 0,0.315 -0.0788,0.6825 -0.0525,0.39375 -0.28875,0.65625 -0.23625,0.28875 -0.70875,0.28875 z"
         style="font-size:26.25px"
         id="path104" />
      <path
         d="m 571.54803,396.81075 q -1.28625,0 -2.2575,-0.60375 -0.945,-0.63 -1.7325,-1.785 -0.7875,-1.155 -1.60125,-2.75625 l 0.525,-0.34125 q 0.55125,0.76125 1.23375,1.47 0.6825,0.6825 1.575,1.1025 0.91875,0.42 2.17875,0.42 1.26,0 1.995,-0.525 0.76125,-0.525 1.1025,-1.33875 0.34125,-0.84 0.34125,-1.785 0,-2.28375 -1.28625,-3.5175 -1.26,-1.26 -3.49125,-1.995 -0.0525,-0.1575 -0.105,-0.42 -0.0525,-0.28875 -0.0525,-0.55125 0,-0.525 0.21,-0.91875 0.21,-0.42 0.6825,-0.42 0.63,0 1.5225,0.60375 0.8925,0.60375 1.7325,1.68 0.86625,1.07625 1.4175,2.52 0.5775,1.44375 0.5775,3.12375 0,1.65375 -0.49875,3.045 -0.4725,1.365 -1.49625,2.17875 -0.9975,0.81375 -2.5725,0.81375 z"
         style="font-size:26.25px"
         id="path106" />
      <path
         d="m 581.02431,407.15325 q -0.9975,0 -1.75875,-0.60375 -0.76125,-0.5775 -1.44375,-1.44375 -0.6825,0.4725 -1.49625,0.70875 -0.84,0.2625 -1.785,0.2625 -1.91625,0 -3.12375,-0.97125 -1.23375,-0.97125 -1.23375,-2.5725 0,-1.18125 0.7875,-1.96875 0.7875,-0.76125 2.17875,-0.76125 1.05,0 1.8375,0.4725 0.7875,0.4725 1.44375,1.18125 0.65625,0.70875 1.23375,1.44375 0.7875,-0.55125 1.23375,-1.39125 0.44625,-0.81375 0.44625,-1.9425 0,-1.12875 -0.60375,-1.995 -0.60375,-0.86625 -1.6275,-1.26 -0.105,-0.23625 -0.105,-0.60375 0,-0.86625 0.735,-0.86625 0.6825,0 1.3125,0.70875 0.63,0.70875 1.02375,1.81125 0.39375,1.12875 0.39375,2.3625 0,2.73 -1.65375,4.54125 0.44625,0.42 0.91875,0.6825 0.49875,0.28875 1.05,0.28875 0.60375,0 1.05,-0.3675 0.525,0.4725 0.525,1.12875 0,0.55125 -0.3675,0.84 -0.3675,0.315 -0.97125,0.315 z m -9.63375,-4.9875 q 0,0.735 0.735,1.2075 0.735,0.4725 2.02125,0.4725 1.365,0 2.44125,-0.39375 -0.76125,-1.02375 -1.60125,-1.785 -0.84,-0.76125 -1.995,-0.76125 -0.76125,0 -1.18125,0.34125 -0.42,0.3675 -0.42,0.91875 z"
         style="font-size:26.25px"
         id="path108" />
    </g>
    <g
       aria-label="ನಲ್ಲಿ ಪಡೆದುಕೊಳ್ಳಿ"
       id="text74"
       style="font-size:12.3952px;line-height:100%;font-family:'DejaVu Sans';-inkscape-font-specification:'DejaVu Sans';letter-spacing:0;word-spacing:0;display:inline;overflow:visible;fill:#ffffff;stroke-width:1px;marker:none">
      <path
         d="m 513.24676,491.40101 q -0.55125,0 -1.18125,-0.63 -0.60375,-0.63 -1.05,-1.81125 -0.42,-1.18125 -0.42,-2.80875 0,-2.07375 0.8925,-3.17625 0.91875,-1.12875 2.23125,-1.12875 0.84,0 1.44375,0.39375 0.60375,0.3675 1.23375,1.18125 0.63,0.7875 1.49625,2.0475 0.84,1.18125 1.49625,1.785 0.65625,0.60375 1.785,0.60375 1.44375,0 2.0475,-0.91875 0.63,-0.945 0.63,-2.31 0,-1.91625 -0.84,-3.4125 -0.84,-1.5225 -2.33625,-2.38875 -1.49625,-0.86625 -3.49125,-0.86625 h -6.53625 l 0.18375,-2.28375 h 9.9225 q 1.3125,0 1.9425,-0.13125 0.63,-0.1575 0.9975,-0.4725 0.60375,-0.4725 0.60375,-1.5225 0,-1.5225 -1.44375,-3.045 l 0.945,-0.70875 q 0.8925,0.945 1.365,2.0475 0.49875,1.1025 0.49875,2.31 0,0.70875 -0.18375,1.4175 -0.1575,0.70875 -0.76125,1.26 -0.44625,0.44625 -1.155,0.76125 -0.70875,0.28875 -2.1525,0.34125 1.44375,0.76125 2.38875,1.9425 0.945,1.18125 1.39125,2.5725 0.4725,1.39125 0.4725,2.73 0,0.7875 -0.18375,1.68 -0.1575,0.8925 -0.5775,1.70625 -0.42,0.7875 -1.2075,1.28625 -0.76125,0.49875 -1.995,0.49875 -1.155,0 -1.9425,-0.4725 -0.7875,-0.49875 -1.39125,-1.28625 -0.5775,-0.81375 -1.2075,-1.75875 -0.76125,-1.18125 -1.5225,-1.86375 -0.735,-0.70875 -1.75875,-0.70875 -0.945,0 -1.5225,0.5775 -0.55125,0.55125 -0.55125,1.6275 0,1.05 0.5775,1.995 0.60375,0.945 1.9425,1.3125 0,0.315 -0.0787,0.6825 -0.0525,0.39375 -0.28875,0.65625 -0.23625,0.28875 -0.70875,0.28875 z"
         style="font-size:26.25px"
         id="path111" />
      <path
         d="m 536.79299,490.32476 q -2.49375,0 -4.38375,-0.86625 -1.86375,-0.8925 -2.8875,-2.6775 -1.02375,-1.785 -1.02375,-4.48875 0,-2.12625 0.70875,-3.675 0.70875,-1.575 1.91625,-2.415 1.2075,-0.84 2.70375,-0.84 1.12875,0 1.81125,0.49875 0.70875,0.49875 1.02375,1.33875 0.34125,0.81375 0.34125,1.81125 0,1.6275 -0.76125,2.59875 -0.735,0.97125 -2.17875,0.97125 -1.44375,0 -2.23125,-0.8925 -0.76125,-0.91875 -0.76125,-2.49375 0,-0.3675 0.0525,-0.6825 0.0525,-0.315 0.13125,-0.525 -0.70875,0.735 -1.1025,1.7325 -0.3675,0.9975 -0.3675,2.3625 0,2.59875 1.75875,4.1475 1.75875,1.5225 5.25,1.5225 2.17875,0 3.85875,-0.81375 1.70625,-0.84 2.65125,-2.52 0.97125,-1.70625 0.97125,-4.27875 0,-4.725 -2.33625,-7.0875 0.0525,0.2625 0.0525,0.55125 0,1.33875 -0.6825,2.12625 -0.6825,0.7875 -2.07375,0.7875 -1.47,0 -2.23125,-0.8925 -0.76125,-0.91875 -0.76125,-2.12625 0,-1.39125 0.84,-2.33625 0.84,-0.945 2.415,-0.945 1.70625,0 3.07125,1.26 1.365,1.26 2.17875,3.49125 0.81375,2.23125 0.81375,5.17125 0,5.04 -2.205,7.6125 -2.17875,2.5725 -6.5625,2.5725 z m 2.33625,-15.5925 q 0.86625,0 1.3125,-0.3675 0.44625,-0.39375 0.44625,-0.97125 0,-0.60375 -0.44625,-0.9975 -0.44625,-0.39375 -1.3125,-0.39375 -0.945,0 -1.33875,0.42 -0.39375,0.42 -0.39375,0.91875 0,0.60375 0.39375,0.9975 0.42,0.39375 1.33875,0.39375 z m -5.11875,5.90625 q 0.9975,0 1.4175,-0.49875 0.42,-0.49875 0.42,-1.18125 0,-0.63 -0.44625,-1.1025 -0.42,-0.49875 -1.365,-0.49875 -0.91875,0 -1.4175,0.4725 -0.49875,0.44625 -0.49875,1.18125 0,0.735 0.49875,1.18125 0.49875,0.44625 1.39125,0.44625 z"
         style="font-size:26.25px"
         id="path113" />
      <path
         d="m 541.12425,499.77476 q -0.81375,0 -1.365,-0.60375 -0.5775,-0.5775 -0.86625,-1.5225 -0.28875,-0.91875 -0.28875,-1.91625 0,-1.9425 0.81375,-3.0975 0.7875,-1.12875 2.23125,-1.12875 1.07625,0 1.8375,0.63 0.735,0.65625 1.07625,1.785 0.3675,-1.12875 1.1025,-1.785 0.735,-0.63 1.81125,-0.63 1.47,0 2.2575,1.12875 0.81375,1.155 0.81375,3.0975 0,0.9975 -0.28875,1.91625 -0.28875,0.945 -0.86625,1.5225 -0.55125,0.60375 -1.365,0.60375 -0.9975,0 -0.9975,-1.28625 1.155,-0.3675 1.785,-1.02375 0.63,-0.63 0.63,-1.65375 0,-1.02375 -0.60375,-1.54875 -0.5775,-0.525 -1.47,-0.525 -0.91875,0 -1.49625,0.42 -0.60375,0.44625 -0.84,1.44375 h -0.91875 q -0.2625,-0.9975 -0.84,-1.44375 -0.5775,-0.42 -1.49625,-0.42 -0.8925,0 -1.47,0.525 -0.60375,0.525 -0.60375,1.54875 0,1.02375 0.63,1.65375 0.63,0.65625 1.75875,1.02375 0,1.28625 -0.97125,1.28625 z"
         style="font-size:26.25px"
         id="path115" />
      <path
         d="m 554.56426,477.96101 0.1575,-2.28375 h 11.36625 q 1.3125,0 1.9425,-0.13125 0.63,-0.1575 0.9975,-0.4725 0.60375,-0.4725 0.60375,-1.5225 0,-1.5225 -1.44375,-3.045 l 0.945,-0.70875 q 0.8925,0.945 1.365,2.0475 0.49875,1.1025 0.49875,2.31 0,0.70875 -0.18375,1.4175 -0.1575,0.70875 -0.76125,1.26 -0.34125,0.315 -0.81375,0.5775 -0.4725,0.2625 -1.23375,0.42 -0.76125,0.13125 -2.02125,0.13125 z m 8.4525,4.095 q -0.65625,0 -1.07625,-0.42 -0.42,-0.42 -0.42,-1.05 0,-0.63 0.42,-1.05 0.42,-0.42 1.07625,-0.42 0.6825,0 1.07625,0.42 0.42,0.42 0.42,1.05 0,0.63 -0.42,1.05 -0.39375,0.42 -1.07625,0.42 z m -4.43625,8.26875 q -1.365,0 -2.31,-0.65625 -0.91875,-0.65625 -1.39125,-1.7325 -0.44625,-1.07625 -0.44625,-2.31 0,-1.68 0.8925,-2.80875 0.91875,-1.155 2.49375,-1.155 1.23375,0 1.89,0.6825 0.6825,0.65625 0.6825,1.68 0,0.9975 -0.63,1.575 -0.63,0.5775 -1.75875,0.735 l -0.1575,-0.97125 q 0.945,-0.21 0.945,-1.07625 0,-0.4725 -0.315,-0.76125 -0.315,-0.315 -0.97125,-0.315 -0.86625,0 -1.39125,0.5775 -0.49875,0.55125 -0.49875,1.47 0,1.28625 0.84,1.9425 0.84,0.63 2.415,0.63 2.80875,0 3.64875,-3.045 h 0.8925 q 0.39375,1.3125 1.12875,2.17875 0.76125,0.86625 2.3625,0.86625 1.47,0 2.1525,-0.91875 0.70875,-0.945 0.70875,-2.3625 0,-1.54875 -0.6825,-2.625 -0.6825,-1.07625 -1.5225,-1.86375 0.13125,-0.39375 0.39375,-0.65625 0.28875,-0.2625 0.65625,-0.2625 0.63,0 1.155,0.735 0.55125,0.735 0.8925,1.96875 0.34125,1.23375 0.34125,2.73 0,0.8925 -0.18375,1.89 -0.1575,0.9975 -0.60375,1.89 -0.42,0.86625 -1.2075,1.4175 -0.76125,0.55125 -1.96875,0.55125 -1.6275,0 -2.65125,-0.97125 -0.9975,-0.9975 -1.49625,-2.5725 -0.525,1.60125 -1.5225,2.5725 -0.97125,0.97125 -2.7825,0.97125 z"
         style="font-size:26.25px"
         id="path117" />
      <path
         d="m 578.24177,490.35101 q -1.54875,0 -2.54625,-0.76125 -0.97125,-0.7875 -1.4175,-2.02125 -0.44625,-1.23375 -0.44625,-2.54625 0,-2.415 1.18125,-4.27875 1.18125,-1.89 3.15,-2.7825 h -4.2 l 0.1575,-2.28375 h 11.34 q 1.60125,0 2.38875,-0.18375 0.7875,-0.18375 1.2075,-0.5775 0.6825,-0.65625 0.6825,-1.89 0,-1.05 -0.6825,-1.8375 -0.6825,-0.7875 -2.02125,-0.7875 -0.97125,0 -1.49625,0.4725 -0.49875,0.4725 -0.49875,1.2075 0,0.60375 0.2625,0.945 v -0.0525 q 0,-0.44625 0.28875,-0.76125 0.315,-0.315 0.81375,-0.315 0.55125,0 0.81375,0.34125 0.28875,0.34125 0.28875,0.7875 0,0.55125 -0.3675,0.8925 -0.3675,0.315 -1.05,0.315 -0.8925,0 -1.575,-0.60375 -0.65625,-0.60375 -0.65625,-1.75875 0,-0.6825 0.315,-1.33875 0.34125,-0.6825 1.05,-1.12875 0.735,-0.44625 1.86375,-0.44625 1.23375,0 2.07375,0.65625 0.86625,0.63 1.3125,1.65375 0.4725,0.9975 0.4725,2.12625 0,1.89 -0.91875,3.01875 -0.8925,1.1025 -2.91375,1.4175 1.2075,0.525 1.70625,1.44375 0.49875,0.91875 0.55125,1.81125 0.76125,0.76125 1.18125,1.86375 0.42,1.1025 0.42,2.205 0,2.54625 -1.28625,3.885 -1.26,1.3125 -3.28125,1.3125 -1.8375,0 -2.7825,-0.97125 -0.91875,-0.9975 -1.44375,-2.625 -0.34125,1.60125 -1.365,2.59875 -1.02375,0.9975 -2.5725,0.9975 z m 0.2625,-2.49375 q 1.05,0 1.65375,-0.39375 0.63,-0.39375 0.97125,-1.07625 0.3675,-0.70875 0.60375,-1.60125 h 0.8925 q 0.39375,1.4175 1.155,2.2575 0.7875,0.81375 2.3625,0.81375 1.47,0 2.3625,-0.76125 0.8925,-0.7875 0.8925,-2.415 0,-0.49875 -0.105,-0.9975 -0.105,-0.525 -0.34125,-0.9975 -0.34125,0.84 -1.12875,1.47 -0.76125,0.60375 -2.0475,0.60375 -1.2075,0 -2.02125,-0.6825 -0.7875,-0.6825 -0.7875,-1.81125 0,-1.1025 0.76125,-1.75875 0.7875,-0.6825 2.1,-0.6825 1.2075,0 2.12625,0.44625 -0.2625,-1.155 -1.44375,-1.7325 -1.155,-0.60375 -2.9925,-0.60375 h -1.33875 q -2.02125,0 -3.49125,0.8925 -1.47,0.8925 -2.2575,2.3625 -0.7875,1.44375 -0.7875,3.15 0,1.68 0.735,2.59875 0.76125,0.91875 2.12625,0.91875 z m 5.8275,-5.8275 q 0,1.02375 1.49625,1.02375 0.8925,0 1.44375,-0.3675 0.5775,-0.39375 0.70875,-1.18125 -0.3675,-0.28875 -0.86625,-0.44625 -0.4725,-0.1575 -1.1025,-0.1575 -0.735,0 -1.2075,0.2625 -0.4725,0.23625 -0.4725,0.86625 z"
         style="font-size:26.25px"
         id="path119" />
      <path
         d="m 598.21801,490.32476 q -1.54875,0 -2.54625,-0.76125 -0.97125,-0.7875 -1.4175,-1.995 -0.44625,-1.23375 -0.44625,-2.54625 0,-2.415 1.18125,-4.27875 1.18125,-1.86375 3.12375,-2.7825 h -4.2525 l 0.18375,-2.28375 h 11.57625 q 1.3125,0 1.9425,-0.13125 0.63,-0.1575 0.9975,-0.4725 0.60375,-0.525 0.60375,-1.5225 0,-1.5225 -1.44375,-3.045 l 0.945,-0.70875 q 0.8925,0.945 1.365,2.0475 0.49875,1.1025 0.49875,2.31 0,0.70875 -0.18375,1.4175 -0.1575,0.70875 -0.76125,1.26 -0.4725,0.44625 -1.2075,0.76125 -0.70875,0.28875 -2.17875,0.3675 1.96875,0.8925 3.15,2.75625 1.18125,1.8375 1.18125,4.305 0,0.86625 -0.21,1.785 -0.21,0.91875 -0.735,1.7325 -0.49875,0.7875 -1.33875,1.28625 -0.84,0.49875 -2.1,0.49875 -1.65375,0 -2.59875,-0.945 -0.91875,-0.97125 -1.365,-2.625 -0.3675,1.60125 -1.39125,2.59875 -0.9975,0.97125 -2.5725,0.97125 z m 0.105,-2.52 q 1.1025,0 1.75875,-0.39375 0.65625,-0.39375 1.02375,-1.07625 0.39375,-0.6825 0.63,-1.54875 h 0.8925 q 0.42,1.39125 1.155,2.205 0.735,0.81375 2.2575,0.81375 1.44375,0 2.0475,-0.97125 0.63,-0.97125 0.63,-2.49375 0,-1.7325 -0.7875,-3.17625 -0.76125,-1.47 -2.205,-2.33625 -1.44375,-0.8925 -3.49125,-0.8925 h -0.105 q -2.02125,0 -3.49125,0.8925 -1.47,0.8925 -2.2575,2.3625 -0.76125,1.44375 -0.76125,3.15 0,1.68 0.70875,2.5725 0.70875,0.8925 1.995,0.8925 z"
         style="font-size:26.25px"
         id="path121" />
      <path
         d="m 615.09679,490.32476 q -1.28625,0 -2.2575,-0.60375 -0.945,-0.63 -1.7325,-1.785 -0.7875,-1.155 -1.60125,-2.75625 l 0.525,-0.34125 q 0.55125,0.76125 1.23375,1.47 0.6825,0.6825 1.575,1.1025 0.91875,0.42 2.17875,0.42 1.26,0 1.995,-0.525 0.76125,-0.525 1.1025,-1.33875 0.34125,-0.84 0.34125,-1.785 0,-2.28375 -1.28625,-3.5175 -1.26,-1.26 -3.49125,-1.995 -0.0525,-0.1575 -0.105,-0.42 -0.0525,-0.28875 -0.0525,-0.55125 0,-0.525 0.21,-0.91875 0.21,-0.42 0.6825,-0.42 0.63,0 1.5225,0.60375 0.8925,0.60375 1.7325,1.68 0.86625,1.07625 1.4175,2.52 0.5775,1.44375 0.5775,3.12375 0,1.65375 -0.49875,3.045 -0.4725,1.365 -1.49625,2.17875 -0.9975,0.81375 -2.5725,0.81375 z"
         style="font-size:26.25px"
         id="path123" />
      <path
         d="m 628.56305,490.29851 q -1.4175,0 -2.52,-0.5775 -1.07625,-0.5775 -1.68,-1.54875 -0.60375,-0.9975 -0.60375,-2.205 0,-1.23375 0.55125,-2.1525 0.55125,-0.945 1.47,-1.54875 -0.5775,0.0263 -1.12875,0.0525 -0.55125,0 -1.365,0 h -0.70875 l 0.105,-1.75875 h 5.04 q 0.34125,-0.28875 0.525,-0.63 0.21,-0.34125 0.21,-0.84 0,-0.34125 -0.0788,-0.63 -0.0787,-0.28875 -0.21,-0.49875 h -5.6175 l 0.1575,-2.28375 h 6.51 q 1.60125,0 2.38875,-0.18375 0.7875,-0.18375 1.2075,-0.5775 0.6825,-0.65625 0.6825,-1.89 0,-1.05 -0.6825,-1.8375 -0.6825,-0.7875 -2.02125,-0.7875 -0.97125,0 -1.49625,0.4725 -0.49875,0.4725 -0.49875,1.2075 0,0.60375 0.2625,0.945 v -0.0525 q 0,-0.44625 0.28875,-0.76125 0.315,-0.315 0.81375,-0.315 0.55125,0 0.81375,0.34125 0.28875,0.34125 0.28875,0.7875 0,0.55125 -0.3675,0.8925 -0.3675,0.315 -1.05,0.315 -0.8925,0 -1.575,-0.60375 -0.65625,-0.60375 -0.65625,-1.75875 0,-0.6825 0.315,-1.33875 0.34125,-0.6825 1.05,-1.12875 0.735,-0.44625 1.86375,-0.44625 1.23375,0 2.07375,0.65625 0.86625,0.63 1.3125,1.65375 0.4725,0.9975 0.4725,2.12625 0,2.1525 -1.2075,3.3075 -1.18125,1.155 -3.85875,1.26 0.2625,0.63 0.2625,1.2075 0,0.39375 -0.105,0.76125 -0.0788,0.34125 -0.21,0.63 h 5.01375 v 1.75875 h -0.55125 q -0.91875,0 -1.5225,0 -0.5775,-0.0263 -1.155,-0.0525 0.945,0.60375 1.49625,1.54875 0.55125,0.91875 0.55125,2.1525 0,1.2075 -0.63,2.205 -0.60375,0.97125 -1.70625,1.54875 -1.07625,0.5775 -2.52,0.5775 z m 0,-2.3625 q 1.70625,0 2.44125,-0.7875 0.76125,-0.81375 0.76125,-1.91625 0,-1.33875 -0.8925,-2.12625 -0.86625,-0.81375 -2.28375,-0.81375 -1.5225,0 -2.3625,0.81375 -0.81375,0.81375 -0.81375,2.12625 0,1.2075 0.81375,1.96875 0.81375,0.735 2.33625,0.735 z"
         style="font-size:26.25px"
         id="path125" />
      <path
         d="m 638.17054,490.32476 q -1.5225,0 -2.86125,-1.3125 -1.33875,-1.33875 -2.5725,-3.885 l 0.525,-0.34125 q 1.12875,1.60125 2.28375,2.33625 1.155,0.70875 2.23125,0.70875 1.05,0 1.49625,-0.60375 0.4725,-0.60375 0.4725,-1.785 0,-0.76125 -0.0525,-1.68 -0.0263,-0.91875 -0.0263,-1.89 0,-1.9425 0.735,-3.38625 0.735,-1.47 2.0475,-2.28375 1.33875,-0.81375 3.12375,-0.81375 2.02125,0 3.4125,0.9975 1.39125,0.9975 2.1,2.80875 0.735,1.81125 0.735,4.27875 0,1.89 -0.525,3.465 -0.525,1.54875 -1.60125,2.4675 -1.05,0.91875 -2.65125,0.91875 -1.91625,0 -3.045,-1.12875 -1.1025,-1.12875 -1.1025,-2.96625 0,-1.68 0.91875,-2.625 0.91875,-0.97125 2.12625,-0.97125 0.86625,0 1.3125,0.4725 0.44625,0.4725 0.44625,1.23375 0,0.63 -0.39375,1.05 -0.3675,0.42 -1.05,0.42 -0.60375,0 -1.02375,-0.3675 -0.39375,-0.3675 -0.39375,-1.02375 v -0.0788 q -0.3675,0.28875 -0.5775,0.76125 -0.21,0.44625 -0.21,1.02375 0,1.02375 0.70875,1.6275 0.735,0.60375 2.07375,0.60375 1.75875,0 2.75625,-1.28625 1.02375,-1.28625 1.02375,-3.57 0,-2.73 -1.28625,-4.22625 -1.26,-1.5225 -3.64875,-1.5225 -2.33625,0 -3.57,1.33875 -1.23375,1.33875 -1.23375,3.64875 0,0.84 0.0263,1.86375 0.0263,0.9975 0.0263,2.1 0,1.7325 -0.65625,2.6775 -0.65625,0.945 -2.1,0.945 z"
         style="font-size:26.25px"
         id="path127" />
      <path
         d="m 662.29431,490.32476 q -1.60125,0 -2.49375,-0.7875 -0.86625,-0.7875 -0.86625,-2.1 0,-0.42 0.18375,-0.945 0.18375,-0.525 0.70875,-0.945 -2.65125,-0.0525 -4.12125,-1.4175 -1.47,-1.365 -1.47,-3.59625 0,-1.39125 0.525,-2.54625 0.55125,-1.18125 1.60125,-1.89 1.05,-0.70875 2.54625,-0.70875 1.54875,0 2.28375,0.91875 0.735,0.91875 0.735,2.2575 0,1.4175 -0.70875,2.31 -0.70875,0.8925 -2.02125,0.8925 -1.3125,0 -2.02125,-0.81375 -0.6825,-0.81375 -0.6825,-2.17875 0,-0.7875 0.23625,-1.2075 -0.70875,0.55125 -1.02375,1.26 -0.28875,0.6825 -0.28875,1.33875 0,1.4175 1.05,2.205 1.05,0.76125 3.59625,0.945 1.28625,0.0788 2.17875,0.2625 0.91875,0.18375 1.575,0.55125 1.54875,-0.49875 2.835,-1.3125 1.28625,-0.84 2.0475,-2.07375 0.76125,-1.26 0.76125,-2.96625 0,-2.33625 -1.65375,-3.59625 0.13125,0.4725 0.13125,0.945 0,1.33875 -0.65625,2.12625 -0.65625,0.76125 -2.02125,0.76125 -1.28625,0 -2.1,-0.84 -0.7875,-0.84 -0.7875,-2.205 0,-1.3125 0.8925,-2.2575 0.8925,-0.945 2.54625,-0.945 1.3125,0 2.23125,0.525 0.91875,0.525 1.49625,1.4175 0.60375,0.86625 0.86625,1.91625 0.28875,1.02375 0.28875,2.0475 0,2.02125 -0.76125,3.465 -0.76125,1.4175 -2.07375,2.415 -1.28625,0.97125 -2.94,1.6275 0.7875,0.84 0.7875,2.12625 0,1.28625 -0.76125,2.1525 -0.76125,0.86625 -2.65125,0.86625 z m 2.8875,-14.14875 q 0.84,0 1.23375,-0.3675 0.42,-0.3675 0.42,-0.91875 0,-0.525 -0.42,-0.8925 -0.39375,-0.3675 -1.23375,-0.3675 -0.84,0 -1.26,0.3675 -0.39375,0.3675 -0.39375,0.8925 0,0.55125 0.39375,0.91875 0.42,0.3675 1.26,0.3675 z m -6.0375,3.80625 q 0.84,0 1.23375,-0.3675 0.39375,-0.39375 0.39375,-1.02375 0,-0.55125 -0.42,-0.945 -0.39375,-0.39375 -1.18125,-0.39375 -0.81375,0 -1.23375,0.3675 -0.39375,0.3675 -0.39375,0.9975 0,1.365 1.60125,1.365 z m 3.2025,8.4 q 0.9975,0 1.49625,-0.39375 0.525,-0.39375 0.525,-1.07625 0,-0.70875 -0.525,-1.1025 -0.525,-0.39375 -1.47,-0.39375 -1.02375,0 -1.5225,0.42 -0.49875,0.42 -0.49875,1.1025 0,0.63 0.49875,1.05 0.525,0.39375 1.49625,0.39375 z"
         style="font-size:26.25px"
         id="path129" />
      <path
         d="m 668.46307,501.19226 q -1.12875,0 -1.70625,-0.49875 -0.60375,-0.4725 -0.60375,-1.28625 0,-0.70875 0.49875,-1.155 -1.68,-0.105 -2.59875,-0.9975 -0.91875,-0.86625 -0.91875,-2.33625 0,-1.39125 0.86625,-2.415 0.84,-0.9975 2.415,-0.9975 1.1025,0 1.68,0.5775 0.5775,0.60375 0.5775,1.5225 0,0.91875 -0.49875,1.47 -0.525,0.55125 -1.49625,0.55125 -0.97125,0 -1.44375,-0.55125 -0.49875,-0.525 -0.49875,-1.33875 0,-0.18375 0.0525,-0.34125 -0.55125,0.49875 -0.55125,1.23375 0,0.81375 0.70875,1.26 0.6825,0.4725 2.2575,0.5775 0.945,0.0788 1.54875,0.21 0.5775,0.13125 0.9975,0.4725 2.80875,-1.155 2.80875,-3.64875 0,-1.28625 -0.60375,-2.12625 -0.63,-0.84 -1.75875,-1.26 -0.13125,-0.23625 -0.13125,-0.60375 0,-0.76125 0.735,-0.76125 0.735,0 1.365,0.65625 0.65625,0.65625 1.07625,1.7325 0.42,1.07625 0.42,2.33625 0,1.65375 -0.91875,2.7825 -0.8925,1.12875 -2.23125,1.785 0.315,0.525 0.315,1.2075 0,0.86625 -0.55125,1.39125 -0.5775,0.55125 -1.81125,0.55125 z m -1.81125,-6.9825 q 1.02375,0 1.02375,-0.65625 0,-0.2625 -0.23625,-0.44625 -0.2625,-0.1575 -0.7875,-0.1575 -1.05,0 -1.05,0.63 0,0.63 1.05,0.63 z m 1.86375,5.355 q 1.2075,0 1.2075,-0.63 0,-0.60375 -1.2075,-0.60375 -1.18125,0 -1.18125,0.63 0,0.60375 1.18125,0.60375 z"
         style="font-size:26.25px"
         id="path131" />
    </g>
    <g
       aria-label="F-Droid"
       id="text78"
       style="font-weight:700;font-size:29.7088px;line-height:100%;font-family:Rokkitt;-inkscape-font-specification:'Rokkitt Bold';letter-spacing:0;word-spacing:0;display:inline;overflow:visible;fill:#ffffff;stroke-width:1px;marker:none">
      <path
         d="m 510.40051,457.11905 v 6.83594 h 23.55469 v -6.83594 l -6.09375,-1.17188 v -15.625 h 19.92188 v -8.78906 h -19.92188 v -15.66406 h 18.55469 l 0.50781,6.79687 h 8.75 v -15.58593 h -45.27344 v 6.875 l 6.05469,1.17187 v 40.82031 z"
         style="font-size:80px;line-height:100%;font-family:'Roboto Slab';-inkscape-font-specification:'Roboto Slab Bold'"
         id="path134" />
      <path
         d="m 584.77551,444.03311 v -8.78906 h -22.03125 v 8.78906 z"
         style="font-size:80px;line-height:100%;font-family:'Roboto Slab';-inkscape-font-specification:'Roboto Slab Bold'"
         id="path136" />
      <path
         d="m 617.23645,407.07999 h -25.58594 v 6.875 l 6.05469,1.17187 v 40.82031 l -6.05469,1.17188 v 6.83594 h 25.58594 c 13.90625,0 23.94531,-9.76563 23.94531,-23.71094 v -9.41406 c 0,-13.90625 -10.03906,-23.75 -23.94531,-23.75 z m -8.125,8.78906 h 7.53906 c 8.16407,0 13.08594,6.09375 13.08594,14.88281 v 9.49219 c 0,8.90625 -4.92187,14.96094 -13.08594,14.96094 h -7.53906 z"
         style="font-size:80px;line-height:100%;font-family:'Roboto Slab';-inkscape-font-specification:'Roboto Slab Bold'"
         id="path138" />
      <path
         d="m 647.90051,457.11905 v 6.83594 h 22.34375 v -6.83594 l -5.46875,-1.17188 v -20.70312 c 1.25,-2.38281 3.28125,-3.63281 6.64063,-3.47656 l 5.625,0.27343 1.21094,-10.50781 c -1.09375,-0.39062 -2.89063,-0.625 -4.49219,-0.625 -4.10156,0 -7.26563,2.57813 -9.25781,6.95313 l -0.0781,-0.9375 -0.42969,-5.23438 h -16.67968 v 6.875 l 6.05468,1.17188 v 26.21093 z"
         style="font-size:80px;line-height:100%;font-family:'Roboto Slab';-inkscape-font-specification:'Roboto Slab Bold'"
         id="path140" />
      <path
         d="m 680.86926,442.43155 v 0.82031 c 0,12.69531 7.46094,21.52344 20,21.52344 12.38282,0 19.88282,-8.82813 19.88282,-21.52344 v -0.82031 c 0,-12.65625 -7.46094,-21.52344 -19.96094,-21.52344 -12.46094,0 -19.92188,8.90625 -19.92188,21.52344 z m 11.40625,0.82031 v -0.82031 c 0,-7.5 2.57813,-12.73438 8.51563,-12.73438 5.9375,0 8.59375,5.23438 8.59375,12.73438 v 0.82031 c 0,7.65625 -2.61719,12.77344 -8.51563,12.77344 -6.05468,0 -8.59375,-5.07813 -8.59375,-12.77344 z"
         style="font-size:80px;line-height:100%;font-family:'Roboto Slab';-inkscape-font-specification:'Roboto Slab Bold'"
         id="path142" />
      <path
         d="m 742.27551,412.74405 v -9.72656 h -11.79687 v 9.72656 z m -16.91406,44.375 v 6.83594 h 22.38281 v -6.83594 l -5.46875,-1.17188 v -34.25781 h -17.5 v 6.875 l 6.09375,1.17188 v 26.21093 z"
         style="font-size:80px;line-height:100%;font-family:'Roboto Slab';-inkscape-font-specification:'Roboto Slab Bold'"
         id="path144" />
      <path
         d="m 778.99426,458.79874 0.85938,5.15625 h 15.35156 v -6.83594 l -5.46875,-1.17188 v -52.92968 h -17.5 v 6.875 l 6.09375,1.17187 v 15.15625 c -2.53906,-3.39844 -5.9375,-5.3125 -10.15625,-5.3125 -10.46875,0 -16.52344,8.94531 -16.52344,22.26563 v 0.82031 c 0,12.5 6.01563,20.78125 16.44532,20.78125 4.64843,0 8.24218,-2.07031 10.89843,-5.97656 z m -15.9375,-14.80469 v -0.82031 c 0,-7.96875 2.42188,-13.39844 8.00782,-13.39844 3.28125,0 5.70312,1.5625 7.26562,4.25781 v 17.92969 c -1.5625,2.53906 -4.02344,3.94531 -7.34375,3.94531 -5.625,0 -7.92969,-4.53125 -7.92969,-11.91406 z"
         style="font-size:80px;line-height:100%;font-family:'Roboto Slab';-inkscape-font-specification:'Roboto Slab Bold'"
         id="path146" />
    </g>
  </g>
</svg>
