<?xml version="1.0" encoding="UTF-8" standalone="no"?>
<svg
   width="565"
   height="180"
   version="1.1"
   id="svg78"
   sodipodi:docname="get-it-on-fi.svg"
   xmlns:inkscape="http://www.inkscape.org/namespaces/inkscape"
   xmlns:sodipodi="http://sodipodi.sourceforge.net/DTD/sodipodi-0.dtd"
   xmlns:xlink="http://www.w3.org/1999/xlink"
   xmlns="http://www.w3.org/2000/svg"
   xmlns:svg="http://www.w3.org/2000/svg">
  <sodipodi:namedview
     id="namedview80"
     pagecolor="#ffffff"
     bordercolor="#000000"
     borderopacity="0.25"
     inkscape:showpageshadow="2"
     inkscape:pageopacity="0.0"
     inkscape:pagecheckerboard="0"
     inkscape:deskcolor="#d1d1d1" />
  <defs
     id="defs8">
    <radialGradient
       xlink:href="#a"
       id="b"
       cx="113"
       cy="-12.89"
       r="59.662"
       fx="113"
       fy="-12.89"
       gradientTransform="matrix(0 1.96105 -1.97781 0 254.507 78.763)"
       gradientUnits="userSpaceOnUse" />
    <linearGradient
       id="a">
      <stop
         offset="0"
         style="stop-color:#fff;stop-opacity:.09803922"
         id="stop3" />
      <stop
         offset="1"
         style="stop-color:#fff;stop-opacity:0"
         id="stop5" />
    </linearGradient>
  </defs>
  <g
     transform="translate(-329,-347.362)"
     id="g76">
    <path
       id="rect10"
       style="display:inline;overflow:visible;stroke:#a6a6a6;stroke-width:4;marker:none"
       d="m 352,349.362 h 520 c 11.08,0 20,8.92 20,20 v 136 c 0,11.08 -8.92,20 -20,20 H 352 c -11.08,0 -20,-8.92 -20,-20 v -136 c 0,-11.08 8.92,-20 20,-20 z" />
    <g
       aria-label="LATAA"
       id="text14"
       style="font-size:12.3952px;line-height:100%;font-family:'DejaVu Sans';-inkscape-font-specification:'DejaVu Sans';letter-spacing:0;word-spacing:0;display:inline;overflow:visible;fill:#ffffff;stroke-width:1px;marker:none">
      <path
         d="m 512.30017,377.48975 h 3.36585 v 22.04461 h 12.1137 v 2.83264 h -15.47955 z"
         style="font-size:34.125px"
         id="path83" />
      <path
         d="m 540.40997,380.8056 -4.56555,12.38031 h 9.14777 z m -1.89953,-3.31585 h 3.81573 l 9.48102,24.87725 h -3.49915 l -2.26611,-6.38177 H 534.828 l -2.26611,6.38177 h -3.54913 z"
         style="font-size:34.125px"
         id="path85" />
      <path
         d="m 549.34113,377.48975 h 21.04486 v 2.83264 h -8.83118 V 402.367 h -3.38251 v -22.04461 h -8.83117 z"
         style="font-size:34.125px"
         id="path87" />
      <path
         d="m 579.30048,380.8056 -4.56556,12.38031 h 9.14777 z m -1.89954,-3.31585 h 3.81573 l 9.48102,24.87725 h -3.49914 l -2.26612,-6.38177 h -11.21392 l -2.26612,6.38177 h -3.54913 z"
         style="font-size:34.125px"
         id="path89" />
      <path
         d="m 603.59454,380.8056 -4.56555,12.38031 h 9.14777 z m -1.89953,-3.31585 h 3.81573 l 9.48102,24.87725 h -3.49915 l -2.26611,-6.38177 h -11.21393 l -2.26611,6.38177 h -3.54913 z"
         style="font-size:34.125px"
         id="path91" />
    </g>
    <g
       aria-label="F-Droidista"
       id="text18"
       style="font-weight:700;font-size:29.7088px;line-height:100%;font-family:Rokkitt;-inkscape-font-specification:'Rokkitt Bold';letter-spacing:0;word-spacing:0;display:inline;overflow:visible;fill:#ffffff;stroke-width:1px;marker:none">
      <path
         d="m 510.40051,482.52505 v 6.83594 h 23.55469 v -6.83594 l -6.09375,-1.17187 v -15.625 h 19.92188 v -8.78906 h -19.92188 v -15.66407 h 18.55469 l 0.50781,6.79688 h 8.75 v -15.58594 h -45.27344 v 6.875 l 6.05469,1.17188 v 40.82031 z"
         style="font-size:80px;line-height:100%;font-family:'Roboto Slab';-inkscape-font-specification:'Roboto Slab Bold'"
         id="path94" />
      <path
         d="m 584.77551,469.43912 v -8.78907 h -22.03125 v 8.78907 z"
         style="font-size:80px;line-height:100%;font-family:'Roboto Slab';-inkscape-font-specification:'Roboto Slab Bold'"
         id="path96" />
      <path
         d="m 617.23645,432.48599 h -25.58594 v 6.875 l 6.05469,1.17188 v 40.82031 l -6.05469,1.17187 v 6.83594 h 25.58594 c 13.90625,0 23.94531,-9.76562 23.94531,-23.71094 v -9.41406 c 0,-13.90625 -10.03906,-23.75 -23.94531,-23.75 z m -8.125,8.78906 h 7.53906 c 8.16407,0 13.08594,6.09375 13.08594,14.88282 v 9.49218 c 0,8.90625 -4.92187,14.96094 -13.08594,14.96094 h -7.53906 z"
         style="font-size:80px;line-height:100%;font-family:'Roboto Slab';-inkscape-font-specification:'Roboto Slab Bold'"
         id="path98" />
      <path
         d="m 647.90051,482.52505 v 6.83594 h 22.34375 v -6.83594 l -5.46875,-1.17187 v -20.70313 c 1.25,-2.38281 3.28125,-3.63281 6.64063,-3.47656 l 5.625,0.27344 1.21094,-10.50781 c -1.09375,-0.39063 -2.89063,-0.625 -4.49219,-0.625 -4.10156,0 -7.26563,2.57812 -9.25781,6.95312 l -0.0781,-0.9375 -0.42969,-5.23437 h -16.67968 v 6.875 l 6.05468,1.17187 v 26.21094 z"
         style="font-size:80px;line-height:100%;font-family:'Roboto Slab';-inkscape-font-specification:'Roboto Slab Bold'"
         id="path100" />
      <path
         d="m 680.86926,467.83755 v 0.82032 c 0,12.69531 7.46094,21.52343 20,21.52343 12.38282,0 19.88282,-8.82812 19.88282,-21.52343 v -0.82032 c 0,-12.65625 -7.46094,-21.52343 -19.96094,-21.52343 -12.46094,0 -19.92188,8.90625 -19.92188,21.52343 z m 11.40625,0.82032 v -0.82032 c 0,-7.5 2.57813,-12.73437 8.51563,-12.73437 5.9375,0 8.59375,5.23437 8.59375,12.73437 v 0.82032 c 0,7.65625 -2.61719,12.77343 -8.51563,12.77343 -6.05468,0 -8.59375,-5.07812 -8.59375,-12.77343 z"
         style="font-size:80px;line-height:100%;font-family:'Roboto Slab';-inkscape-font-specification:'Roboto Slab Bold'"
         id="path102" />
      <path
         d="m 742.27551,438.15005 v -9.72656 h -11.79687 v 9.72656 z m -16.91406,44.375 v 6.83594 h 22.38281 v -6.83594 l -5.46875,-1.17187 v -34.25781 h -17.5 v 6.875 l 6.09375,1.17187 v 26.21094 z"
         style="font-size:80px;line-height:100%;font-family:'Roboto Slab';-inkscape-font-specification:'Roboto Slab Bold'"
         id="path104" />
      <path
         d="m 778.99426,484.20474 0.85938,5.15625 h 15.35156 v -6.83594 l -5.46875,-1.17187 v -52.92969 h -17.5 v 6.875 l 6.09375,1.17188 v 15.15625 c -2.53906,-3.39844 -5.9375,-5.3125 -10.15625,-5.3125 -10.46875,0 -16.52344,8.94531 -16.52344,22.26562 v 0.82031 c 0,12.5 6.01563,20.78125 16.44532,20.78125 4.64843,0 8.24218,-2.07031 10.89843,-5.97656 z m -15.9375,-14.80469 v -0.82031 c 0,-7.96875 2.42188,-13.39844 8.00782,-13.39844 3.28125,0 5.70312,1.5625 7.26562,4.25782 v 17.92968 c -1.5625,2.53907 -4.02344,3.94532 -7.34375,3.94532 -5.625,0 -7.92969,-4.53125 -7.92969,-11.91407 z"
         style="font-size:80px;line-height:100%;font-family:'Roboto Slab';-inkscape-font-specification:'Roboto Slab Bold'"
         id="path106" />
      <path
         d="m 815.40051,438.15005 v -9.72656 h -11.79687 v 9.72656 z m -16.91406,44.375 v 6.83594 h 22.38281 v -6.83594 l -5.46875,-1.17187 v -34.25781 h -17.5 v 6.875 l 6.09375,1.17187 v 26.21094 z"
         style="font-size:80px;line-height:100%;font-family:'Roboto Slab';-inkscape-font-specification:'Roboto Slab Bold'"
         id="path108" />
      <path
         d="m 858.09583,461.27505 -0.11719,-11.5625 c -3.35938,-1.99218 -9.02344,-3.32031 -15.58594,-3.32031 -11.17187,0 -16.36719,5.82031 -16.36719,12.8125 0,6.83594 4.57032,11.17188 14.60938,13.24219 6.5625,1.36719 8.28125,3.125 8.28125,5.27344 0,2.69531 -1.83594,4.57031 -7.1875,4.57031 -2.46094,0 -4.64844,-0.54688 -6.28906,-1.44531 l -1.52344,-6.09375 h -7.92969 l 0.11719,11.95312 c 5,2.26563 10.35156,3.47656 16.64062,3.47656 11.36719,0 17.07032,-5.3125 17.07032,-12.92968 0,-7.42188 -3.67188,-10.82032 -15.03907,-13.39844 -6.64062,-1.52344 -7.69531,-2.89063 -7.69531,-5.07813 0,-2.65625 2.22656,-4.60937 6.21094,-4.60937 2.38281,0 4.25781,0.54687 5.70312,1.5625 l 1.21094,5.54687 z"
         style="font-size:80px;line-height:100%;font-family:'Roboto Slab';-inkscape-font-specification:'Roboto Slab Bold'"
         id="path110" />
      <path
         d="m 881.84583,436.7438 h -11.36719 v 10.35157 h -6.21094 v 8.00781 h 6.21094 v 21.5625 c 0,9.375 4.41406,13.51562 12.26562,13.51562 2.92969,0 5.3125,-0.39062 7.85157,-1.17187 l -0.97657,-8.24219 c -1.44531,0.3125 -2.46093,0.42969 -4.02343,0.42969 -2.30469,0 -3.75,-1.28906 -3.75,-4.57031 v -21.52344 h 7.42187 v -8.00781 h -7.42187 z"
         style="font-size:80px;line-height:100%;font-family:'Roboto Slab';-inkscape-font-specification:'Roboto Slab Bold'"
         id="path112" />
      <path
         d="m 921.68958,489.36099 h 14.33593 v -6.83594 l -4.96093,-0.625 c -0.15625,-1.05468 -0.15625,-2.14843 -0.15625,-3.32031 v -17.42187 c 0,-9.49219 -6.79688,-14.84375 -17.73438,-14.84375 -6.25,0 -11.25,1.71875 -15.58594,4.21875 l 0.11719,10.97656 h 8.20313 l 0.89843,-5.58594 c 1.52344,-1.09375 3.59375,-1.71875 5.74219,-1.71875 4.64844,0 6.91406,2.77344 6.91406,6.83594 v 3.125 h -5.42968 c -12.30469,0 -18.75,5.50781 -18.75,13.4375 0,7.77344 5.23437,12.57812 13.51562,12.57812 5,0 8.51563,-2.10937 11.21094,-5.23437 0.27344,1.52344 0.97656,3.00781 1.67969,4.41406 z m -9.80469,-7.61719 c -3.28125,0 -5.23438,-1.71875 -5.23438,-4.57031 0,-3.39844 2.53907,-6.01562 7.38282,-6.01562 h 5.42968 v 6.67968 c -1.5625,2.34375 -4.49218,3.90625 -7.57812,3.90625 z"
         style="font-size:80px;line-height:100%;font-family:'Roboto Slab';-inkscape-font-specification:'Roboto Slab Bold'"
         id="path114" />
    </g>
    <path
       d="m 2.589,1006.862 4.25,5.5"
       style="fill:#8ab000;fill-opacity:1;fill-rule:evenodd;stroke:#769616;stroke-width:2.5;stroke-linecap:round;stroke-linejoin:miter;stroke-miterlimit:4;stroke-dasharray:none;stroke-opacity:1"
       transform="matrix(-2.63159,0,0,2.63157,483.158,-2270.475)"
       id="path20" />
    <path
       d="m 2.611,1005.61 c -0.453,0.011 -0.761,0.188 -0.98,0.448 2.027,2.409 2.368,2.792 5.135,6.221 1.02,1.32 2.082,0.638 1.062,-0.681 l -4.25,-5.5 a 1.24,1.24 0 0 0 -0.967,-0.489"
       style="color:#000000;font-style:normal;font-variant:normal;font-weight:400;font-stretch:normal;font-size:medium;line-height:normal;font-family:sans-serif;text-indent:0;text-align:start;text-decoration:none;text-decoration-line:none;text-decoration-style:solid;text-decoration-color:#000000;letter-spacing:normal;word-spacing:normal;text-transform:none;writing-mode:lr-tb;direction:ltr;baseline-shift:baseline;text-anchor:start;white-space:normal;clip-rule:nonzero;display:inline;overflow:visible;visibility:visible;opacity:1;isolation:auto;mix-blend-mode:normal;color-interpolation:sRGB;color-interpolation-filters:linearRGB;solid-color:#000000;solid-opacity:1;fill:#ffffff;fill-opacity:0.298039;fill-rule:evenodd;stroke:none;stroke-width:2.5;stroke-linecap:round;stroke-linejoin:miter;stroke-miterlimit:4;stroke-dasharray:none;stroke-dashoffset:0;stroke-opacity:1;color-rendering:auto;image-rendering:auto;shape-rendering:auto;text-rendering:auto"
       transform="matrix(-2.63159,0,0,2.63157,483.158,-2270.475)"
       id="path22" />
    <path
       d="m 1.622,1006.07 a 1.25,1.25 0 0 0 -0.022,1.557 l 4.25,5.5 c 1.02,1.319 1.15,-0.613 1.15,-0.613 0,0 -3.735,-4.51 -5.378,-6.443"
       style="color:#000000;font-style:normal;font-variant:normal;font-weight:400;font-stretch:normal;font-size:medium;line-height:normal;font-family:sans-serif;text-indent:0;text-align:start;text-decoration:none;text-decoration-line:none;text-decoration-style:solid;text-decoration-color:#000000;letter-spacing:normal;word-spacing:normal;text-transform:none;writing-mode:lr-tb;direction:ltr;baseline-shift:baseline;text-anchor:start;white-space:normal;clip-rule:nonzero;display:inline;overflow:visible;visibility:visible;opacity:1;isolation:auto;mix-blend-mode:normal;color-interpolation:sRGB;color-interpolation-filters:linearRGB;solid-color:#000000;solid-opacity:1;fill:#263238;fill-opacity:0.2;fill-rule:evenodd;stroke:none;stroke-width:2.5;stroke-linecap:round;stroke-linejoin:miter;stroke-miterlimit:4;stroke-dasharray:none;stroke-dashoffset:0;stroke-opacity:1;color-rendering:auto;image-rendering:auto;shape-rendering:auto;text-rendering:auto"
       transform="matrix(-2.63159,0,0,2.63157,483.158,-2270.475)"
       id="path24" />
    <path
       d="m 2.338,1005.844 c -0.438,0 -0.96,0.142 -0.824,0.799 0.103,0.501 4.66,6.074 4.66,6.074 1.02,1.32 2.494,0.677 1.474,-0.642 l -4.234,-5.473 c -0.26,-0.29 -0.608,-0.744 -1.076,-0.758"
       style="color:#000000;font-style:normal;font-variant:normal;font-weight:400;font-stretch:normal;font-size:medium;line-height:normal;font-family:sans-serif;text-indent:0;text-align:start;text-decoration:none;text-decoration-line:none;text-decoration-style:solid;text-decoration-color:#000000;letter-spacing:normal;word-spacing:normal;text-transform:none;writing-mode:lr-tb;direction:ltr;baseline-shift:baseline;text-anchor:start;white-space:normal;clip-rule:nonzero;display:inline;overflow:visible;visibility:visible;opacity:1;isolation:auto;mix-blend-mode:normal;color-interpolation:sRGB;color-interpolation-filters:linearRGB;solid-color:#000000;solid-opacity:1;fill:#8ab000;fill-opacity:1;fill-rule:evenodd;stroke:none;stroke-width:2.5;stroke-linecap:round;stroke-linejoin:miter;stroke-miterlimit:4;stroke-dasharray:none;stroke-dashoffset:0;stroke-opacity:1;color-rendering:auto;image-rendering:auto;shape-rendering:auto;text-rendering:auto"
       transform="matrix(-2.63159,0,0,2.63157,483.158,-2270.475)"
       id="path26" />
    <path
       d="m 2.589,1006.862 4.25,5.5"
       style="fill:#8ab000;fill-opacity:1;fill-rule:evenodd;stroke:#769616;stroke-width:2.5;stroke-linecap:round;stroke-linejoin:miter;stroke-miterlimit:4;stroke-dasharray:none;stroke-opacity:1"
       transform="matrix(2.63159,0,0,2.63157,356.842,-2270.475)"
       id="path28" />
    <path
       d="m 2.611,1005.61 c -0.453,0.011 -0.761,0.188 -0.98,0.448 2.027,2.409 2.368,2.792 5.135,6.221 1.02,1.32 2.082,0.638 1.062,-0.681 l -4.25,-5.5 a 1.24,1.24 0 0 0 -0.967,-0.489"
       style="color:#000000;font-style:normal;font-variant:normal;font-weight:400;font-stretch:normal;font-size:medium;line-height:normal;font-family:sans-serif;text-indent:0;text-align:start;text-decoration:none;text-decoration-line:none;text-decoration-style:solid;text-decoration-color:#000000;letter-spacing:normal;word-spacing:normal;text-transform:none;writing-mode:lr-tb;direction:ltr;baseline-shift:baseline;text-anchor:start;white-space:normal;clip-rule:nonzero;display:inline;overflow:visible;visibility:visible;opacity:1;isolation:auto;mix-blend-mode:normal;color-interpolation:sRGB;color-interpolation-filters:linearRGB;solid-color:#000000;solid-opacity:1;fill:#ffffff;fill-opacity:0.298039;fill-rule:evenodd;stroke:none;stroke-width:2.5;stroke-linecap:round;stroke-linejoin:miter;stroke-miterlimit:4;stroke-dasharray:none;stroke-dashoffset:0;stroke-opacity:1;color-rendering:auto;image-rendering:auto;shape-rendering:auto;text-rendering:auto"
       transform="matrix(2.63159,0,0,2.63157,356.842,-2270.475)"
       id="path30" />
    <path
       d="m 1.622,1006.07 a 1.25,1.25 0 0 0 -0.022,1.557 l 4.25,5.5 c 1.02,1.319 1.15,-0.613 1.15,-0.613 0,0 -3.735,-4.51 -5.378,-6.443"
       style="color:#000000;font-style:normal;font-variant:normal;font-weight:400;font-stretch:normal;font-size:medium;line-height:normal;font-family:sans-serif;text-indent:0;text-align:start;text-decoration:none;text-decoration-line:none;text-decoration-style:solid;text-decoration-color:#000000;letter-spacing:normal;word-spacing:normal;text-transform:none;writing-mode:lr-tb;direction:ltr;baseline-shift:baseline;text-anchor:start;white-space:normal;clip-rule:nonzero;display:inline;overflow:visible;visibility:visible;opacity:1;isolation:auto;mix-blend-mode:normal;color-interpolation:sRGB;color-interpolation-filters:linearRGB;solid-color:#000000;solid-opacity:1;fill:#263238;fill-opacity:0.2;fill-rule:evenodd;stroke:none;stroke-width:2.5;stroke-linecap:round;stroke-linejoin:miter;stroke-miterlimit:4;stroke-dasharray:none;stroke-dashoffset:0;stroke-opacity:1;color-rendering:auto;image-rendering:auto;shape-rendering:auto;text-rendering:auto"
       transform="matrix(2.63159,0,0,2.63157,356.842,-2270.475)"
       id="path32" />
    <path
       d="m 2.338,1005.844 c -0.438,0 -0.96,0.142 -0.824,0.799 0.103,0.501 4.66,6.074 4.66,6.074 1.02,1.32 2.494,0.677 1.474,-0.642 l -4.234,-5.473 c -0.26,-0.29 -0.608,-0.744 -1.076,-0.758"
       style="color:#000000;font-style:normal;font-variant:normal;font-weight:400;font-stretch:normal;font-size:medium;line-height:normal;font-family:sans-serif;text-indent:0;text-align:start;text-decoration:none;text-decoration-line:none;text-decoration-style:solid;text-decoration-color:#000000;letter-spacing:normal;word-spacing:normal;text-transform:none;writing-mode:lr-tb;direction:ltr;baseline-shift:baseline;text-anchor:start;white-space:normal;clip-rule:nonzero;display:inline;overflow:visible;visibility:visible;opacity:1;isolation:auto;mix-blend-mode:normal;color-interpolation:sRGB;color-interpolation-filters:linearRGB;solid-color:#000000;solid-opacity:1;fill:#8ab000;fill-opacity:1;fill-rule:evenodd;stroke:none;stroke-width:2.5;stroke-linecap:round;stroke-linejoin:miter;stroke-miterlimit:4;stroke-dasharray:none;stroke-dashoffset:0;stroke-opacity:1;color-rendering:auto;image-rendering:auto;shape-rendering:auto;text-rendering:auto"
       transform="matrix(2.63159,0,0,2.63157,356.842,-2270.475)"
       id="path34" />
    <g
       transform="matrix(2.63159,0,0,2.63157,467.369,-2270.475)"
       id="g44">
      <path
         id="rect36"
         style="opacity:1;fill:#aeea00;stroke-width:3;stroke-linecap:round;stroke-miterlimit:3"
         d="m -34,1010.36 h 32 c 1.662,0 3,1.338 3,3 v 6.92 c 0,1.662 -1.338,3 -3,3 h -32 c -1.662,0 -3,-1.338 -3,-3 v -6.92 c 0,-1.662 1.338,-3 3,-3 z" />
      <path
         id="rect38"
         style="opacity:1;fill:#263238;fill-opacity:0.2;stroke-width:3;stroke-linecap:round;stroke-miterlimit:3"
         d="m -34,1013.279 h 32 c 1.662,0 3,1.338 3,3 v 4 c 0,1.662 -1.338,3 -3,3 h -32 c -1.662,0 -3,-1.338 -3,-3 v -4 c 0,-1.662 1.338,-3 3,-3 z" />
      <path
         id="rect40"
         style="opacity:1;fill:#ffffff;fill-opacity:0.298039;stroke-width:3;stroke-linecap:round;stroke-miterlimit:3"
         d="m -34,1010.362 h 32 c 1.662,0 3,1.338 3,3 v 4 c 0,1.662 -1.338,3 -3,3 h -32 c -1.662,0 -3,-1.338 -3,-3 v -4 c 0,-1.662 1.338,-3 3,-3 z" />
      <path
         id="rect42"
         style="opacity:1;fill:#aeea00;stroke-width:3;stroke-linecap:round;stroke-miterlimit:3"
         d="m -34,1011.5 h 32 c 1.662,0 3,1.0954 3,2.456 v 5.729 c 0,1.3606 -1.338,2.456 -3,2.456 h -32 c -1.662,0 -3,-1.0954 -3,-2.456 v -5.729 c 0,-1.3606 1.338,-2.456 3,-2.456 z" />
    </g>
    <g
       transform="matrix(2.63159,0,0,2.63157,356.842,-2270.745)"
       id="g54">
      <path
         id="rect46"
         style="opacity:1;fill:#1976d2;stroke-width:3;stroke-linecap:round;stroke-miterlimit:3"
         d="m 8,1024.522 h 32 c 1.662,0 3,1.338 3,3 v 19.84 c 0,1.662 -1.338,3 -3,3 H 8 c -1.662,0 -3,-1.338 -3,-3 v -19.84 c 0,-1.662 1.338,-3 3,-3 z" />
      <path
         id="rect48"
         style="opacity:1;fill:#263238;fill-opacity:0.2;stroke-width:3;stroke-linecap:round;stroke-miterlimit:3"
         d="m 8,1037.3621 h 32 c 1.662,0 3,1.338 3,3 v 7 c 0,1.662 -1.338,3 -3,3 H 8 c -1.662,0 -3,-1.338 -3,-3 v -7 c 0,-1.662 1.338,-3 3,-3 z" />
      <path
         id="rect50"
         style="opacity:1;fill:#ffffff;fill-opacity:0.2;stroke-width:3;stroke-linecap:round;stroke-miterlimit:3"
         d="m 8,1024.442 h 32 c 1.662,0 3,1.338 3,3 v 7 c 0,1.662 -1.338,3 -3,3 H 8 c -1.662,0 -3,-1.338 -3,-3 v -7 c 0,-1.662 1.338,-3 3,-3 z" />
      <path
         id="rect52"
         style="opacity:1;fill:#1976d2;stroke-width:3;stroke-linecap:round;stroke-miterlimit:3"
         d="m 8,1025.662 h 32 c 1.662,0 3,1.2122 3,2.718 v 18.124 c 0,1.5058 -1.338,2.718 -3,2.718 H 8 c -1.662,0 -3,-1.2122 -3,-2.718 v -18.124 c 0,-1.5058 1.338,-2.718 3,-2.718 z" />
    </g>
    <g
       transform="matrix(2.63159,0,0,2.63157,356.842,396.264)"
       id="g60">
      <path
         d="m 24,17.75 c -2.88,0 -5.32,1.985 -6.033,4.65 H 21.18 A 3.22,3.22 0 0 1 24,20.75 3.23,3.23 0 0 1 27.25,24 3.23,3.23 0 0 1 24,27.25 3.22,3.22 0 0 1 21.07,25.4 h -3.154 c 0.642,2.766 3.132,4.85 6.084,4.85 3.434,0 6.25,-2.816 6.25,-6.25 0,-3.434 -2.816,-6.25 -6.25,-6.25"
         style="color:#000000;font-style:normal;font-variant:normal;font-weight:400;font-stretch:normal;font-size:medium;line-height:normal;font-family:sans-serif;text-indent:0;text-align:start;text-decoration:none;text-decoration-line:none;text-decoration-style:solid;text-decoration-color:#000000;letter-spacing:normal;word-spacing:normal;text-transform:none;writing-mode:lr-tb;direction:ltr;baseline-shift:baseline;text-anchor:start;white-space:normal;clip-rule:nonzero;display:inline;overflow:visible;visibility:visible;opacity:1;isolation:auto;mix-blend-mode:normal;color-interpolation:sRGB;color-interpolation-filters:linearRGB;solid-color:#000000;solid-opacity:1;fill:#0d47a1;fill-opacity:1;fill-rule:nonzero;stroke:none;stroke-width:3;stroke-linecap:round;stroke-linejoin:miter;stroke-miterlimit:4;stroke-dasharray:none;stroke-dashoffset:0;stroke-opacity:1;color-rendering:auto;image-rendering:auto;shape-rendering:auto;text-rendering:auto"
         id="path56" />
      <path
         id="circle58"
         style="opacity:1;fill:none;fill-opacity:0.403922;stroke:#0d47a1;stroke-width:1.9;stroke-linecap:round"
         d="M 33.55,24 A 9.5500002,9.5500002 0 0 1 24,33.55 9.5500002,9.5500002 0 0 1 14.45,24 9.5500002,9.5500002 0 0 1 24,14.45 9.5500002,9.5500002 0 0 1 33.55,24 Z" />
    </g>
    <g
       transform="matrix(2.63159,0,0,2.63157,356.842,-2269.159)"
       id="g66">
      <path
         id="ellipse62"
         style="opacity:1;fill:#263238;fill-opacity:0.2;stroke-width:1.9;stroke-linecap:round;stroke-opacity:0.697211"
         d="m 17.75,1016.487 a 3.375,3.875 0 0 1 -3.375,3.875 3.375,3.875 0 0 1 -3.375,-3.875 3.375,3.875 0 0 1 3.375,-3.875 3.375,3.875 0 0 1 3.375,3.875 z" />
      <path
         id="circle64"
         style="opacity:1;fill:#ffffff;stroke-width:1.9;stroke-linecap:round;stroke-opacity:0.697211"
         d="m 17.75,1016.987 a 3.375,3.375 0 0 1 -3.375,3.375 3.375,3.375 0 0 1 -3.375,-3.375 3.375,3.375 0 0 1 3.375,-3.375 3.375,3.375 0 0 1 3.375,3.375 z" />
    </g>
    <g
       transform="matrix(2.63159,0,0,2.63157,408.158,-2269.159)"
       id="g72">
      <path
         id="ellipse68"
         style="opacity:1;fill:#263238;fill-opacity:0.2;stroke-width:1.9;stroke-linecap:round;stroke-opacity:0.697211"
         d="m 17.75,1016.487 a 3.375,3.875 0 0 1 -3.375,3.875 3.375,3.875 0 0 1 -3.375,-3.875 3.375,3.875 0 0 1 3.375,-3.875 3.375,3.875 0 0 1 3.375,3.875 z" />
      <path
         id="circle70"
         style="opacity:1;fill:#ffffff;stroke-width:1.9;stroke-linecap:round;stroke-opacity:0.697211"
         d="m 17.75,1016.987 a 3.375,3.375 0 0 1 -3.375,3.375 3.375,3.375 0 0 1 -3.375,-3.375 3.375,3.375 0 0 1 3.375,-3.375 3.375,3.375 0 0 1 3.375,3.375 z" />
    </g>
    <path
       d="m 282.715,299.835 a 3.29,3.29 0 0 0 -2.662,5.336 l 9.474,12.261 A 7.9,7.9 0 0 0 289,320.257 v 18.21 a 7.877,7.877 0 0 0 7.895,7.895 h 84.21 A 7.877,7.877 0 0 0 389,338.468 v -18.211 c 0,-0.999 -0.19,-1.949 -0.525,-2.826 l 9.472,-12.26 a 3.29,3.29 0 0 0 -2.433,-5.334 3.29,3.29 0 0 0 -2.772,1.31 l -9.013,11.666 a 7.9,7.9 0 0 0 -2.624,-0.45 h -84.21 c -0.922,0 -1.8,0.163 -2.622,0.45 l -9.015,-11.666 a 3.29,3.29 0 0 0 -2.543,-1.312 m 14.18,49.527 A 7.877,7.877 0 0 0 289,357.257 v 52.21 a 7.877,7.877 0 0 0 7.895,7.895 h 84.21 A 7.877,7.877 0 0 0 389,409.468 v -52.211 a 7.877,7.877 0 0 0 -7.895,-7.895 z"
       style="color:#000000;font-style:normal;font-variant:normal;font-weight:400;font-stretch:normal;font-size:medium;line-height:normal;font-family:sans-serif;text-indent:0;text-align:start;text-decoration:none;text-decoration-line:none;text-decoration-style:solid;text-decoration-color:#000000;letter-spacing:normal;word-spacing:normal;text-transform:none;writing-mode:lr-tb;direction:ltr;baseline-shift:baseline;text-anchor:start;white-space:normal;clip-rule:nonzero;display:inline;overflow:visible;visibility:visible;opacity:1;isolation:auto;mix-blend-mode:normal;color-interpolation:sRGB;color-interpolation-filters:linearRGB;solid-color:#000000;solid-opacity:1;fill:url(#b);fill-opacity:1;fill-rule:evenodd;stroke:none;stroke-width:6.57895;stroke-linecap:round;stroke-linejoin:miter;stroke-miterlimit:4;stroke-dasharray:none;stroke-dashoffset:0;stroke-opacity:1;color-rendering:auto;image-rendering:auto;shape-rendering:auto;text-rendering:auto"
       transform="translate(81,76)"
       id="path74" />
  </g>
</svg>
