<?xml version="1.0" encoding="UTF-8" standalone="no"?>
<svg
   width="565"
   height="180"
   version="1.1"
   id="svg78"
   sodipodi:docname="get-it-on-ar.svg"
   xmlns:inkscape="http://www.inkscape.org/namespaces/inkscape"
   xmlns:sodipodi="http://sodipodi.sourceforge.net/DTD/sodipodi-0.dtd"
   xmlns:xlink="http://www.w3.org/1999/xlink"
   xmlns="http://www.w3.org/2000/svg"
   xmlns:svg="http://www.w3.org/2000/svg">
  <sodipodi:namedview
     id="namedview80"
     pagecolor="#ffffff"
     bordercolor="#000000"
     borderopacity="0.25"
     inkscape:showpageshadow="2"
     inkscape:pageopacity="0.0"
     inkscape:pagecheckerboard="0"
     inkscape:deskcolor="#d1d1d1" />
  <defs
     id="defs8">
    <radialGradient
       xlink:href="#a"
       id="b"
       cx="113"
       cy="-12.89"
       r="59.662"
       fx="113"
       fy="-12.89"
       gradientTransform="matrix(0 1.96105 -1.97781 0 254.507 78.763)"
       gradientUnits="userSpaceOnUse" />
    <linearGradient
       id="a">
      <stop
         offset="0"
         style="stop-color:#fff;stop-opacity:.09803922"
         id="stop3" />
      <stop
         offset="1"
         style="stop-color:#fff;stop-opacity:0"
         id="stop5" />
    </linearGradient>
  </defs>
  <g
     transform="translate(-329,-347.362)"
     id="g76">
    <path
       id="rect10"
       style="display:inline;overflow:visible;stroke:#a6a6a6;stroke-width:4;marker:none"
       d="m 352,349.362 h 520 c 11.08,0 20,8.92 20,20 v 136 c 0,11.08 -8.92,20 -20,20 H 352 c -11.08,0 -20,-8.92 -20,-20 v -136 c 0,-11.08 8.92,-20 20,-20 z" />
    <g
       aria-label="احصل عليه من"
       id="text14"
       style="font-size:12.3952px;line-height:100%;font-family:'Noto Sans Arabic';-inkscape-font-specification:'Noto Sans Arabic';text-align:end;letter-spacing:0;word-spacing:0;text-anchor:end;display:inline;overflow:visible;fill:#ffffff;stroke-width:1px;marker:none">
      <path
         d="m 844.9587,402.367 -0.6825,-24.36525 h 2.76413 l 0.6825,24.36525 z"
         style="font-size:34.125px"
         id="path83" />
      <path
         d="m 821.71955,402.53763 0.30712,-2.79825 q 3.549,0 6.825,-1.05788 3.31013,-1.05787 6.04013,-2.93475 -1.33088,-1.19437 -3.276,-1.87687 -1.911,-0.71663 -4.2315,-0.71663 -0.85313,0 -1.5015,0.10238 -0.64838,0.0682 -1.56975,0.273 l -0.546,-2.5935 q 1.911,-0.58013 3.61725,-0.58013 1.7745,0 3.20775,0.44363 1.43325,0.4095 2.5935,1.02375 1.19437,0.61425 2.21812,1.2285 1.05788,0.61425 2.0475,1.05787 0.98963,0.4095 2.0475,0.4095 h 0.71663 l 0.23887,2.457 q -1.74037,0 -3.17362,0.58013 -1.43325,0.546 -2.90063,1.365 -1.43325,0.819 -3.17362,1.67212 -1.70625,0.819 -3.99263,1.39913 -2.28637,0.546 -5.49412,0.546 z"
         style="font-size:34.125px"
         id="path85" />
      <path
         d="m 805.85145,402.98125 q -3.65138,0 -5.90363,-0.34125 -2.21812,-0.30712 -3.37837,-0.9555 -1.16025,-0.6825 -1.60388,-1.70625 -0.819,1.19438 -1.74037,1.74038 -0.88725,0.51187 -1.87688,0.64837 -0.9555,0.17063 -2.01337,0.17063 l 0.34125,-2.79825 q 1.60387,0 2.457,-0.61425 0.85312,-0.64838 1.365,-2.11575 0.51187,-1.46738 1.092,-4.02675 l 2.49112,0.64837 q -0.34125,1.19438 -0.546,2.14988 -0.17062,0.9555 -0.17062,1.43325 0,0.9555 0.51187,1.60387 0.546,0.61425 2.21813,0.92138 1.092,-1.70625 2.5935,-3.44663 1.5015,-1.7745 3.276,-3.24187 1.7745,-1.46738 3.6855,-2.35463 1.94512,-0.92137 3.92437,-0.92137 1.87688,0 3.20775,0.78487 1.365,0.75075 2.08163,2.0475 0.75075,1.29675 0.75075,2.93475 0,0.9555 -0.273,1.87688 -0.23888,0.88725 -0.78488,1.67212 1.12613,0.4095 2.28638,0.546 1.19437,0.10238 2.21812,0.10238 0.71663,0 1.02375,0.4095 0.34125,0.37537 0.34125,0.92137 0,0.546 -0.47775,1.02375 -0.47775,0.44363 -1.2285,0.44363 -0.75075,0 -1.87687,-0.1365 -1.092,-0.1365 -2.28638,-0.44363 -1.16025,-0.30712 -2.14987,-0.88725 -1.53563,0.88725 -3.89025,1.39913 -2.3205,0.51187 -5.66475,0.51187 z m 6.51787,-10.40812 q -1.53562,0 -3.10537,0.78487 -1.53563,0.75075 -2.93475,1.94513 -1.39913,1.19437 -2.52525,2.49112 -1.12613,1.26263 -1.87688,2.28638 1.80863,0.10237 4.53863,0.10237 4.5045,0 6.99562,-1.092 2.52525,-1.12612 2.52525,-3.276 0,-0.75075 -0.37537,-1.46737 -0.37538,-0.75075 -1.16025,-1.26263 -0.78488,-0.51187 -2.08163,-0.51187 z"
         style="font-size:34.125px"
         id="path87" />
      <path
         d="m 765.44747,402.40113 q 0,-1.2285 0.34125,-2.73 0.34125,-1.5015 1.092,-3.31013 l 2.457,0.9555 q -0.546,1.43325 -0.819,2.62763 -0.273,1.19437 -0.273,2.21812 0,1.74038 0.92137,2.93475 0.92138,1.19438 2.38875,1.7745 1.5015,0.61425 3.20775,0.61425 3.34425,0 5.22113,-1.19437 1.87687,-1.16025 2.62762,-3.10538 0.75075,-1.911 0.64838,-4.19737 l -0.75075,-20.98688 h 2.83237 l 0.546,17.30138 q 0.0683,1.74037 0.546,2.73 0.51188,0.9555 1.365,1.33087 0.85313,0.37538 1.87688,0.37538 0.71662,0 1.02375,0.4095 0.34125,0.37537 0.34125,0.92137 0,0.546 -0.47775,1.02375 -0.47775,0.44363 -1.2285,0.44363 -1.26263,0 -2.08163,-0.37538 -0.78487,-0.4095 -1.26262,-0.98962 -0.23888,1.70625 -0.9555,3.31012 -0.6825,1.638 -2.01338,2.93475 -1.33087,1.33088 -3.4125,2.08163 -2.0475,0.78487 -5.01637,0.78487 -2.38875,0 -4.47038,-0.9555 -2.08162,-0.92137 -3.37837,-2.69587 -1.29675,-1.74038 -1.29675,-4.2315 z"
         style="font-size:34.125px"
         id="path89" />
      <path
         d="m 738.38632,402.53763 0.34125,-2.79825 q 2.14987,0 3.31012,-0.0341 1.19438,-0.0341 1.74038,-0.0682 0.546,-0.0682 0.75075,-0.0682 -0.61425,-0.34125 -1.43325,-1.05787 -0.819,-0.75075 -1.43325,-1.87688 -0.61425,-1.16025 -0.61425,-2.73 0,-1.94512 0.88725,-3.4125 0.92137,-1.46737 2.49112,-2.28637 1.60388,-0.819 3.65138,-0.819 1.638,0 3.37837,0.546 l -0.58012,2.62762 q -1.43325,-0.37537 -2.79825,-0.37537 -1.87688,0 -3.07125,1.02375 -1.16025,0.98962 -1.16025,2.69587 0,1.12613 0.58012,2.01338 0.58013,0.85312 1.43325,1.46737 0.88725,0.58013 1.80863,0.88725 0.9555,0.30713 1.70625,0.273 0.546,-0.17062 0.98962,-0.30712 0.47775,-0.17063 1.19438,-0.44363 0.71662,-0.30712 2.01337,-0.88725 l 0.9555,2.49113 q -2.28637,0.92137 -4.67512,1.638 -2.35463,0.71662 -5.15288,1.12612 -2.76412,0.37538 -6.31312,0.37538 z"
         style="font-size:34.125px"
         id="path91" />
      <path
         d="m 728.14884,402.53763 0.30713,-2.79825 q 1.94512,0 2.73,-0.37538 0.78487,-0.37537 0.88725,-1.33087 0.1365,-0.9555 0.0683,-2.66175 l -0.58013,-17.36963 h 2.83238 l 0.546,17.30138 q 0.0683,1.74037 0.546,2.73 0.51187,0.9555 1.365,1.33087 0.85312,0.37538 1.87687,0.37538 0.71663,0 1.02375,0.4095 0.34125,0.37537 0.34125,0.92137 0,0.546 -0.47775,1.02375 -0.47775,0.44363 -1.2285,0.44363 -1.74037,0 -2.76412,-0.64838 -1.02375,-0.6825 -1.46738,-1.638 -0.6825,1.12613 -2.11575,1.70625 -1.39912,0.58013 -3.89025,0.58013 z"
         style="font-size:34.125px"
         id="path93" />
      <path
         d="m 715.42025,402.53763 0.34125,-2.79825 q 1.70625,0 2.66175,-0.23888 0.9555,-0.273 1.43325,-0.98962 0.51187,-0.75075 0.819,-2.14988 0.30712,-1.39912 0.75075,-3.65137 l 2.66175,0.51187 q -0.20475,0.92138 -0.47775,2.11575 -0.23888,1.19438 -0.23888,2.01338 0,0.51187 0.0683,0.9555 0.0683,0.44362 0.51188,0.75075 0.44362,0.30712 1.5015,0.51187 1.05787,0.17063 3.03712,0.17063 0.71663,0 1.02375,0.4095 0.34125,0.37537 0.34125,0.92137 0,0.546 -0.47775,1.02375 -0.47775,0.44363 -1.2285,0.44363 -2.21812,0 -3.48075,-0.23888 -1.2285,-0.273 -1.84275,-0.75075 -0.58012,-0.51187 -0.85312,-1.26262 -0.98963,1.39912 -2.457,1.84275 -1.43325,0.4095 -4.095,0.4095 z m 8.5995,6.44962 q -0.71663,0 -1.2285,-0.51187 -0.47775,-0.47775 -0.47775,-1.16025 0,-0.6825 0.47775,-1.19438 0.51187,-0.51187 1.2285,-0.51187 0.6825,0 1.16025,0.51187 0.51187,0.51188 0.51187,1.19438 0,0.6825 -0.51187,1.16025 -0.47775,0.51187 -1.16025,0.51187 z m -4.67513,0 q -0.71662,0 -1.2285,-0.51187 -0.47775,-0.47775 -0.47775,-1.16025 0,-0.6825 0.47775,-1.19438 0.51188,-0.51187 1.2285,-0.51187 0.6825,0 1.16025,0.51187 0.51188,0.51188 0.51188,1.19438 0,0.6825 -0.51188,1.16025 -0.47775,0.51187 -1.16025,0.51187 z"
         style="font-size:34.125px"
         id="path95" />
      <path
         d="m 715.42024,402.53763 q -2.21812,0 -3.822,-0.75075 -1.56975,-0.75075 -2.21812,-2.76413 -1.84275,0.44363 -3.549,0.37538 -1.67213,-0.10238 -3.03713,-0.64838 -1.365,-0.58012 -2.14987,-1.56975 -0.78488,-1.02375 -0.78488,-2.42287 0,-1.84275 1.16025,-3.34425 1.16025,-1.53563 3.1395,-2.5935 1.97925,-1.05788 4.368,-1.46738 l -0.10237,-2.5935 h 2.76412 l 0.546,11.26125 q 0.10238,1.60388 0.58013,2.42288 0.47775,0.78487 1.33087,1.05787 0.88725,0.23888 2.11575,0.23888 0.71663,0 1.02375,0.4095 0.34125,0.37537 0.34125,0.92137 0,0.546 -0.47775,1.02375 -0.47775,0.44363 -1.2285,0.44363 z m -12.86512,-8.22413 q 0,0.78488 0.61425,1.29675 0.64837,0.51188 1.638,0.75075 0.98962,0.23888 2.08162,0.23888 1.12613,0 2.08163,-0.17063 l -0.30713,-6.24487 q -1.94512,0.20475 -3.31012,0.88725 -1.365,0.64837 -2.08163,1.53562 -0.71662,0.85313 -0.71662,1.70625 z"
         style="font-size:34.125px"
         id="path97" />
      <path
         d="m 672.04737,402.53763 0.34125,-2.79825 q 0.9555,0 1.60388,-0.4095 0.64837,-0.4095 1.26262,-1.365 0.61425,-0.9555 1.33088,-2.55938 0.98962,-2.184 1.94512,-3.31012 0.98963,-1.12613 1.94513,-1.53563 0.98962,-0.4095 1.94512,-0.4095 1.16025,0 2.14988,0.61425 0.98962,0.58013 1.74037,1.56975 0.75075,0.98963 1.16025,2.184 0.44363,1.16025 0.44363,2.3205 0,2.0475 -0.71663,3.276 -0.71662,1.19438 -1.84275,1.74038 -1.092,0.51187 -2.28637,0.51187 -0.98963,0 -2.52525,-0.34125 -1.5015,-0.34125 -3.78788,-1.7745 -1.092,1.56975 -2.184,1.94513 -1.092,0.34125 -2.52525,0.34125 z m 6.38138,-5.3235 q -0.20475,0.44362 -0.37538,0.85312 1.46738,0.85313 2.66175,1.19438 1.2285,0.30712 2.0475,0.30712 1.46738,0 2.08163,-0.64837 0.61425,-0.64838 0.61425,-1.70625 0,-0.98963 -0.47775,-1.97925 -0.47775,-0.98963 -1.2285,-1.638 -0.71663,-0.64838 -1.53563,-0.64838 -0.61425,0 -1.19437,0.34125 -0.58013,0.34125 -1.19438,1.26263 -0.61425,0.92137 -1.39912,2.66175 z"
         style="font-size:34.125px"
         id="path99" />
      <path
         d="m 648.15989,402.40113 q 0,-1.2285 0.34125,-2.73 0.34125,-1.5015 1.092,-3.31013 l 2.457,0.9555 q -0.546,1.43325 -0.819,2.62763 -0.273,1.19437 -0.273,2.21812 0,1.87688 0.92138,3.03713 0.9555,1.19437 2.52525,1.74037 1.60387,0.546 3.51487,0.546 3.10538,0 4.84575,-0.88725 1.7745,-0.85312 2.49113,-2.21812 0.75075,-1.365 0.75075,-2.90063 0,-2.25225 -0.51188,-4.12912 -0.47775,-1.911 -1.05787,-3.92438 l 2.76412,-0.75075 q 0.546,1.94513 0.75075,2.83238 0.23888,0.85312 0.37538,1.39912 0.37537,1.26263 0.98962,1.87688 0.61425,0.58012 1.39913,0.78487 0.819,0.17063 1.67212,0.17063 0.71663,0 1.02375,0.4095 0.34125,0.37537 0.34125,0.92137 0,0.546 -0.47775,1.02375 -0.47775,0.44363 -1.2285,0.44363 -1.05787,0 -1.87687,-0.273 -0.78488,-0.30713 -1.33088,-0.75075 -0.17062,1.67212 -0.78487,3.24187 -0.61425,1.56975 -1.87688,2.79825 -1.2285,1.26263 -3.276,1.97925 -2.0475,0.75075 -5.08462,0.75075 -2.55938,0 -4.7775,-0.85312 -2.184,-0.85313 -3.549,-2.62763 -1.33088,-1.74037 -1.33088,-4.40212 z m 10.30575,-13.61588 q -0.71662,0 -1.2285,-0.47775 -0.47775,-0.51187 -0.47775,-1.19437 0,-0.6825 0.47775,-1.19438 0.51188,-0.51187 1.2285,-0.51187 0.6825,0 1.16025,0.51187 0.51188,0.51188 0.51188,1.19438 0,0.6825 -0.51188,1.19437 -0.47775,0.47775 -1.16025,0.47775 z"
         style="font-size:34.125px"
         id="path101" />
    </g>
    <g
       aria-label="F-Droid"
       id="text18"
       style="font-weight:700;font-size:29.7088px;line-height:100%;font-family:Rokkitt;-inkscape-font-specification:'Rokkitt Bold';letter-spacing:0;word-spacing:0;display:inline;overflow:visible;fill:#ffffff;stroke-width:1px;marker:none">
      <path
         d="m 510.81067,481.24332 v 8.11767 h 27.97119 v -8.11767 l -7.23633,-1.3916 v -18.55469 h 23.65723 v -10.43701 h -23.65723 v -18.60108 h 22.03369 l 0.60303,8.07129 h 10.39063 v -18.5083 h -53.76221 v 8.16406 l 7.18994,1.3916 v 48.47413 z"
         style="font-size:95px;line-height:100%;font-family:'Roboto Slab';-inkscape-font-specification:'Roboto Slab Bold'"
         id="path104" />
      <path
         d="m 599.13098,465.70377 v -10.43702 h -26.16211 v 10.43702 z"
         style="font-size:95px;line-height:100%;font-family:'Roboto Slab';-inkscape-font-specification:'Roboto Slab Bold'"
         id="path106" />
      <path
         d="m 637.67834,421.82193 h -30.3833 v 8.16406 l 7.18995,1.3916 v 48.47413 l -7.18995,1.3916 v 8.11767 h 30.3833 c 16.51368,0 28.43506,-11.59668 28.43506,-28.15674 v -11.1792 c 0,-16.51367 -11.92138,-28.20312 -28.43506,-28.20312 z m -9.64843,10.43701 h 8.95263 c 9.69483,0 15.53955,7.23633 15.53955,17.67334 v 11.27197 c 0,10.57618 -5.84472,17.76612 -15.53955,17.76612 h -8.95263 z"
         style="font-size:95px;line-height:100%;font-family:'Roboto Slab';-inkscape-font-specification:'Roboto Slab Bold'"
         id="path108" />
      <path
         d="m 674.09192,481.24332 v 8.11767 h 26.5332 v -8.11767 l -6.49414,-1.3916 v -24.58497 c 1.48438,-2.82959 3.89649,-4.31396 7.88574,-4.12841 l 6.67969,0.3247 1.43799,-12.47802 c -1.29883,-0.46387 -3.43262,-0.74219 -5.33447,-0.74219 -4.87061,0 -8.62793,3.06152 -10.99366,8.25683 l -0.0928,-1.11328 -0.51025,-6.21582 h -19.80713 v 8.16407 l 7.18994,1.3916 v 31.12549 z"
         style="font-size:95px;line-height:100%;font-family:'Roboto Slab';-inkscape-font-specification:'Roboto Slab Bold'"
         id="path110" />
      <path
         d="m 713.24231,463.80191 v 0.97412 c 0,15.07569 8.85986,25.55908 23.75,25.55908 14.70459,0 23.61084,-10.48339 23.61084,-25.55908 v -0.97412 c 0,-15.0293 -8.85986,-25.55908 -23.70361,-25.55908 -14.79737,0 -23.65723,10.57617 -23.65723,25.55908 z m 13.54492,0.97412 v -0.97412 c 0,-8.90625 3.06152,-15.12207 10.11231,-15.12207 7.05078,0 10.20507,6.21582 10.20507,15.12207 v 0.97412 c 0,9.0918 -3.10791,15.16846 -10.1123,15.16846 -7.18994,0 -10.20508,-6.03027 -10.20508,-15.16846 z"
         style="font-size:95px;line-height:100%;font-family:'Roboto Slab';-inkscape-font-specification:'Roboto Slab Bold'"
         id="path112" />
      <path
         d="M 786.16223,428.548 V 416.99771 H 772.15344 V 428.548 Z m -20.08545,52.69532 v 8.11767 h 26.57959 v -8.11767 l -6.49414,-1.3916 v -40.68116 h -20.78125 v 8.16407 l 7.23633,1.3916 v 31.12549 z"
         style="font-size:95px;line-height:100%;font-family:'Roboto Slab';-inkscape-font-specification:'Roboto Slab Bold'"
         id="path114" />
      <path
         d="m 829.76575,483.23795 1.0205,6.12304 h 18.22999 v -8.11767 l -6.49415,-1.3916 v -62.85401 h -20.78125 v 8.16406 l 7.23633,1.39161 v 17.99804 c -3.01513,-4.03564 -7.05078,-6.30859 -12.06054,-6.30859 -12.43164,0 -19.62159,10.62256 -19.62159,26.44043 v 0.97412 c 0,14.84375 7.14356,24.67773 19.52881,24.67773 5.52002,0 9.7876,-2.45849 12.9419,-7.09716 z m -18.92578,-17.58057 v -0.97412 c 0,-9.46289 2.87597,-15.91065 9.50927,-15.91065 3.89649,0 6.77246,1.85547 8.62793,5.05616 v 21.2915 c -1.85547,3.01514 -4.77783,4.68506 -8.7207,4.68506 -6.67969,0 -9.4165,-5.38086 -9.4165,-14.14795 z"
         style="font-size:95px;line-height:100%;font-family:'Roboto Slab';-inkscape-font-specification:'Roboto Slab Bold'"
         id="path116" />
    </g>
    <path
       d="m 2.589,1006.862 4.25,5.5"
       style="fill:#8ab000;fill-opacity:1;fill-rule:evenodd;stroke:#769616;stroke-width:2.5;stroke-linecap:round;stroke-linejoin:miter;stroke-miterlimit:4;stroke-dasharray:none;stroke-opacity:1"
       transform="matrix(-2.63159,0,0,2.63157,483.158,-2270.475)"
       id="path20" />
    <path
       d="m 2.611,1005.61 c -0.453,0.011 -0.761,0.188 -0.98,0.448 2.027,2.409 2.368,2.792 5.135,6.221 1.02,1.32 2.082,0.638 1.062,-0.681 l -4.25,-5.5 a 1.24,1.24 0 0 0 -0.967,-0.489"
       style="color:#000000;font-style:normal;font-variant:normal;font-weight:400;font-stretch:normal;font-size:medium;line-height:normal;font-family:sans-serif;text-indent:0;text-align:start;text-decoration:none;text-decoration-line:none;text-decoration-style:solid;text-decoration-color:#000000;letter-spacing:normal;word-spacing:normal;text-transform:none;writing-mode:lr-tb;direction:ltr;baseline-shift:baseline;text-anchor:start;white-space:normal;clip-rule:nonzero;display:inline;overflow:visible;visibility:visible;opacity:1;isolation:auto;mix-blend-mode:normal;color-interpolation:sRGB;color-interpolation-filters:linearRGB;solid-color:#000000;solid-opacity:1;fill:#ffffff;fill-opacity:0.298039;fill-rule:evenodd;stroke:none;stroke-width:2.5;stroke-linecap:round;stroke-linejoin:miter;stroke-miterlimit:4;stroke-dasharray:none;stroke-dashoffset:0;stroke-opacity:1;color-rendering:auto;image-rendering:auto;shape-rendering:auto;text-rendering:auto"
       transform="matrix(-2.63159,0,0,2.63157,483.158,-2270.475)"
       id="path22" />
    <path
       d="m 1.622,1006.07 a 1.25,1.25 0 0 0 -0.022,1.557 l 4.25,5.5 c 1.02,1.319 1.15,-0.613 1.15,-0.613 0,0 -3.735,-4.51 -5.378,-6.443"
       style="color:#000000;font-style:normal;font-variant:normal;font-weight:400;font-stretch:normal;font-size:medium;line-height:normal;font-family:sans-serif;text-indent:0;text-align:start;text-decoration:none;text-decoration-line:none;text-decoration-style:solid;text-decoration-color:#000000;letter-spacing:normal;word-spacing:normal;text-transform:none;writing-mode:lr-tb;direction:ltr;baseline-shift:baseline;text-anchor:start;white-space:normal;clip-rule:nonzero;display:inline;overflow:visible;visibility:visible;opacity:1;isolation:auto;mix-blend-mode:normal;color-interpolation:sRGB;color-interpolation-filters:linearRGB;solid-color:#000000;solid-opacity:1;fill:#263238;fill-opacity:0.2;fill-rule:evenodd;stroke:none;stroke-width:2.5;stroke-linecap:round;stroke-linejoin:miter;stroke-miterlimit:4;stroke-dasharray:none;stroke-dashoffset:0;stroke-opacity:1;color-rendering:auto;image-rendering:auto;shape-rendering:auto;text-rendering:auto"
       transform="matrix(-2.63159,0,0,2.63157,483.158,-2270.475)"
       id="path24" />
    <path
       d="m 2.338,1005.844 c -0.438,0 -0.96,0.142 -0.824,0.799 0.103,0.501 4.66,6.074 4.66,6.074 1.02,1.32 2.494,0.677 1.474,-0.642 l -4.234,-5.473 c -0.26,-0.29 -0.608,-0.744 -1.076,-0.758"
       style="color:#000000;font-style:normal;font-variant:normal;font-weight:400;font-stretch:normal;font-size:medium;line-height:normal;font-family:sans-serif;text-indent:0;text-align:start;text-decoration:none;text-decoration-line:none;text-decoration-style:solid;text-decoration-color:#000000;letter-spacing:normal;word-spacing:normal;text-transform:none;writing-mode:lr-tb;direction:ltr;baseline-shift:baseline;text-anchor:start;white-space:normal;clip-rule:nonzero;display:inline;overflow:visible;visibility:visible;opacity:1;isolation:auto;mix-blend-mode:normal;color-interpolation:sRGB;color-interpolation-filters:linearRGB;solid-color:#000000;solid-opacity:1;fill:#8ab000;fill-opacity:1;fill-rule:evenodd;stroke:none;stroke-width:2.5;stroke-linecap:round;stroke-linejoin:miter;stroke-miterlimit:4;stroke-dasharray:none;stroke-dashoffset:0;stroke-opacity:1;color-rendering:auto;image-rendering:auto;shape-rendering:auto;text-rendering:auto"
       transform="matrix(-2.63159,0,0,2.63157,483.158,-2270.475)"
       id="path26" />
    <path
       d="m 2.589,1006.862 4.25,5.5"
       style="fill:#8ab000;fill-opacity:1;fill-rule:evenodd;stroke:#769616;stroke-width:2.5;stroke-linecap:round;stroke-linejoin:miter;stroke-miterlimit:4;stroke-dasharray:none;stroke-opacity:1"
       transform="matrix(2.63159,0,0,2.63157,356.842,-2270.475)"
       id="path28" />
    <path
       d="m 2.611,1005.61 c -0.453,0.011 -0.761,0.188 -0.98,0.448 2.027,2.409 2.368,2.792 5.135,6.221 1.02,1.32 2.082,0.638 1.062,-0.681 l -4.25,-5.5 a 1.24,1.24 0 0 0 -0.967,-0.489"
       style="color:#000000;font-style:normal;font-variant:normal;font-weight:400;font-stretch:normal;font-size:medium;line-height:normal;font-family:sans-serif;text-indent:0;text-align:start;text-decoration:none;text-decoration-line:none;text-decoration-style:solid;text-decoration-color:#000000;letter-spacing:normal;word-spacing:normal;text-transform:none;writing-mode:lr-tb;direction:ltr;baseline-shift:baseline;text-anchor:start;white-space:normal;clip-rule:nonzero;display:inline;overflow:visible;visibility:visible;opacity:1;isolation:auto;mix-blend-mode:normal;color-interpolation:sRGB;color-interpolation-filters:linearRGB;solid-color:#000000;solid-opacity:1;fill:#ffffff;fill-opacity:0.298039;fill-rule:evenodd;stroke:none;stroke-width:2.5;stroke-linecap:round;stroke-linejoin:miter;stroke-miterlimit:4;stroke-dasharray:none;stroke-dashoffset:0;stroke-opacity:1;color-rendering:auto;image-rendering:auto;shape-rendering:auto;text-rendering:auto"
       transform="matrix(2.63159,0,0,2.63157,356.842,-2270.475)"
       id="path30" />
    <path
       d="m 1.622,1006.07 a 1.25,1.25 0 0 0 -0.022,1.557 l 4.25,5.5 c 1.02,1.319 1.15,-0.613 1.15,-0.613 0,0 -3.735,-4.51 -5.378,-6.443"
       style="color:#000000;font-style:normal;font-variant:normal;font-weight:400;font-stretch:normal;font-size:medium;line-height:normal;font-family:sans-serif;text-indent:0;text-align:start;text-decoration:none;text-decoration-line:none;text-decoration-style:solid;text-decoration-color:#000000;letter-spacing:normal;word-spacing:normal;text-transform:none;writing-mode:lr-tb;direction:ltr;baseline-shift:baseline;text-anchor:start;white-space:normal;clip-rule:nonzero;display:inline;overflow:visible;visibility:visible;opacity:1;isolation:auto;mix-blend-mode:normal;color-interpolation:sRGB;color-interpolation-filters:linearRGB;solid-color:#000000;solid-opacity:1;fill:#263238;fill-opacity:0.2;fill-rule:evenodd;stroke:none;stroke-width:2.5;stroke-linecap:round;stroke-linejoin:miter;stroke-miterlimit:4;stroke-dasharray:none;stroke-dashoffset:0;stroke-opacity:1;color-rendering:auto;image-rendering:auto;shape-rendering:auto;text-rendering:auto"
       transform="matrix(2.63159,0,0,2.63157,356.842,-2270.475)"
       id="path32" />
    <path
       d="m 2.338,1005.844 c -0.438,0 -0.96,0.142 -0.824,0.799 0.103,0.501 4.66,6.074 4.66,6.074 1.02,1.32 2.494,0.677 1.474,-0.642 l -4.234,-5.473 c -0.26,-0.29 -0.608,-0.744 -1.076,-0.758"
       style="color:#000000;font-style:normal;font-variant:normal;font-weight:400;font-stretch:normal;font-size:medium;line-height:normal;font-family:sans-serif;text-indent:0;text-align:start;text-decoration:none;text-decoration-line:none;text-decoration-style:solid;text-decoration-color:#000000;letter-spacing:normal;word-spacing:normal;text-transform:none;writing-mode:lr-tb;direction:ltr;baseline-shift:baseline;text-anchor:start;white-space:normal;clip-rule:nonzero;display:inline;overflow:visible;visibility:visible;opacity:1;isolation:auto;mix-blend-mode:normal;color-interpolation:sRGB;color-interpolation-filters:linearRGB;solid-color:#000000;solid-opacity:1;fill:#8ab000;fill-opacity:1;fill-rule:evenodd;stroke:none;stroke-width:2.5;stroke-linecap:round;stroke-linejoin:miter;stroke-miterlimit:4;stroke-dasharray:none;stroke-dashoffset:0;stroke-opacity:1;color-rendering:auto;image-rendering:auto;shape-rendering:auto;text-rendering:auto"
       transform="matrix(2.63159,0,0,2.63157,356.842,-2270.475)"
       id="path34" />
    <g
       transform="matrix(2.63159,0,0,2.63157,467.369,-2270.475)"
       id="g44">
      <path
         id="rect36"
         style="opacity:1;fill:#aeea00;stroke-width:3;stroke-linecap:round;stroke-miterlimit:3"
         d="m -34,1010.36 h 32 c 1.662,0 3,1.338 3,3 v 6.92 c 0,1.662 -1.338,3 -3,3 h -32 c -1.662,0 -3,-1.338 -3,-3 v -6.92 c 0,-1.662 1.338,-3 3,-3 z" />
      <path
         id="rect38"
         style="opacity:1;fill:#263238;fill-opacity:0.2;stroke-width:3;stroke-linecap:round;stroke-miterlimit:3"
         d="m -34,1013.279 h 32 c 1.662,0 3,1.338 3,3 v 4 c 0,1.662 -1.338,3 -3,3 h -32 c -1.662,0 -3,-1.338 -3,-3 v -4 c 0,-1.662 1.338,-3 3,-3 z" />
      <path
         id="rect40"
         style="opacity:1;fill:#ffffff;fill-opacity:0.298039;stroke-width:3;stroke-linecap:round;stroke-miterlimit:3"
         d="m -34,1010.362 h 32 c 1.662,0 3,1.338 3,3 v 4 c 0,1.662 -1.338,3 -3,3 h -32 c -1.662,0 -3,-1.338 -3,-3 v -4 c 0,-1.662 1.338,-3 3,-3 z" />
      <path
         id="rect42"
         style="opacity:1;fill:#aeea00;stroke-width:3;stroke-linecap:round;stroke-miterlimit:3"
         d="m -34,1011.5 h 32 c 1.662,0 3,1.0954 3,2.456 v 5.729 c 0,1.3606 -1.338,2.456 -3,2.456 h -32 c -1.662,0 -3,-1.0954 -3,-2.456 v -5.729 c 0,-1.3606 1.338,-2.456 3,-2.456 z" />
    </g>
    <g
       transform="matrix(2.63159,0,0,2.63157,356.842,-2270.745)"
       id="g54">
      <path
         id="rect46"
         style="opacity:1;fill:#1976d2;stroke-width:3;stroke-linecap:round;stroke-miterlimit:3"
         d="m 8,1024.522 h 32 c 1.662,0 3,1.338 3,3 v 19.84 c 0,1.662 -1.338,3 -3,3 H 8 c -1.662,0 -3,-1.338 -3,-3 v -19.84 c 0,-1.662 1.338,-3 3,-3 z" />
      <path
         id="rect48"
         style="opacity:1;fill:#263238;fill-opacity:0.2;stroke-width:3;stroke-linecap:round;stroke-miterlimit:3"
         d="m 8,1037.3621 h 32 c 1.662,0 3,1.338 3,3 v 7 c 0,1.662 -1.338,3 -3,3 H 8 c -1.662,0 -3,-1.338 -3,-3 v -7 c 0,-1.662 1.338,-3 3,-3 z" />
      <path
         id="rect50"
         style="opacity:1;fill:#ffffff;fill-opacity:0.2;stroke-width:3;stroke-linecap:round;stroke-miterlimit:3"
         d="m 8,1024.442 h 32 c 1.662,0 3,1.338 3,3 v 7 c 0,1.662 -1.338,3 -3,3 H 8 c -1.662,0 -3,-1.338 -3,-3 v -7 c 0,-1.662 1.338,-3 3,-3 z" />
      <path
         id="rect52"
         style="opacity:1;fill:#1976d2;stroke-width:3;stroke-linecap:round;stroke-miterlimit:3"
         d="m 8,1025.662 h 32 c 1.662,0 3,1.2122 3,2.718 v 18.124 c 0,1.5058 -1.338,2.718 -3,2.718 H 8 c -1.662,0 -3,-1.2122 -3,-2.718 v -18.124 c 0,-1.5058 1.338,-2.718 3,-2.718 z" />
    </g>
    <g
       transform="matrix(2.63159,0,0,2.63157,356.842,396.264)"
       id="g60">
      <path
         d="m 24,17.75 c -2.88,0 -5.32,1.985 -6.033,4.65 H 21.18 A 3.22,3.22 0 0 1 24,20.75 3.23,3.23 0 0 1 27.25,24 3.23,3.23 0 0 1 24,27.25 3.22,3.22 0 0 1 21.07,25.4 h -3.154 c 0.642,2.766 3.132,4.85 6.084,4.85 3.434,0 6.25,-2.816 6.25,-6.25 0,-3.434 -2.816,-6.25 -6.25,-6.25"
         style="color:#000000;font-style:normal;font-variant:normal;font-weight:400;font-stretch:normal;font-size:medium;line-height:normal;font-family:sans-serif;text-indent:0;text-align:start;text-decoration:none;text-decoration-line:none;text-decoration-style:solid;text-decoration-color:#000000;letter-spacing:normal;word-spacing:normal;text-transform:none;writing-mode:lr-tb;direction:ltr;baseline-shift:baseline;text-anchor:start;white-space:normal;clip-rule:nonzero;display:inline;overflow:visible;visibility:visible;opacity:1;isolation:auto;mix-blend-mode:normal;color-interpolation:sRGB;color-interpolation-filters:linearRGB;solid-color:#000000;solid-opacity:1;fill:#0d47a1;fill-opacity:1;fill-rule:nonzero;stroke:none;stroke-width:3;stroke-linecap:round;stroke-linejoin:miter;stroke-miterlimit:4;stroke-dasharray:none;stroke-dashoffset:0;stroke-opacity:1;color-rendering:auto;image-rendering:auto;shape-rendering:auto;text-rendering:auto"
         id="path56" />
      <path
         id="circle58"
         style="opacity:1;fill:none;fill-opacity:0.403922;stroke:#0d47a1;stroke-width:1.9;stroke-linecap:round"
         d="M 33.55,24 A 9.5500002,9.5500002 0 0 1 24,33.55 9.5500002,9.5500002 0 0 1 14.45,24 9.5500002,9.5500002 0 0 1 24,14.45 9.5500002,9.5500002 0 0 1 33.55,24 Z" />
    </g>
    <g
       transform="matrix(2.63159,0,0,2.63157,356.842,-2269.159)"
       id="g66">
      <path
         id="ellipse62"
         style="opacity:1;fill:#263238;fill-opacity:0.2;stroke-width:1.9;stroke-linecap:round;stroke-opacity:0.697211"
         d="m 17.75,1016.487 a 3.375,3.875 0 0 1 -3.375,3.875 3.375,3.875 0 0 1 -3.375,-3.875 3.375,3.875 0 0 1 3.375,-3.875 3.375,3.875 0 0 1 3.375,3.875 z" />
      <path
         id="circle64"
         style="opacity:1;fill:#ffffff;stroke-width:1.9;stroke-linecap:round;stroke-opacity:0.697211"
         d="m 17.75,1016.987 a 3.375,3.375 0 0 1 -3.375,3.375 3.375,3.375 0 0 1 -3.375,-3.375 3.375,3.375 0 0 1 3.375,-3.375 3.375,3.375 0 0 1 3.375,3.375 z" />
    </g>
    <g
       transform="matrix(2.63159,0,0,2.63157,408.158,-2269.159)"
       id="g72">
      <path
         id="ellipse68"
         style="opacity:1;fill:#263238;fill-opacity:0.2;stroke-width:1.9;stroke-linecap:round;stroke-opacity:0.697211"
         d="m 17.75,1016.487 a 3.375,3.875 0 0 1 -3.375,3.875 3.375,3.875 0 0 1 -3.375,-3.875 3.375,3.875 0 0 1 3.375,-3.875 3.375,3.875 0 0 1 3.375,3.875 z" />
      <path
         id="circle70"
         style="opacity:1;fill:#ffffff;stroke-width:1.9;stroke-linecap:round;stroke-opacity:0.697211"
         d="m 17.75,1016.987 a 3.375,3.375 0 0 1 -3.375,3.375 3.375,3.375 0 0 1 -3.375,-3.375 3.375,3.375 0 0 1 3.375,-3.375 3.375,3.375 0 0 1 3.375,3.375 z" />
    </g>
    <path
       d="m 282.715,299.835 a 3.29,3.29 0 0 0 -2.662,5.336 l 9.474,12.261 A 7.9,7.9 0 0 0 289,320.257 v 18.21 a 7.877,7.877 0 0 0 7.895,7.895 h 84.21 A 7.877,7.877 0 0 0 389,338.468 v -18.211 c 0,-0.999 -0.19,-1.949 -0.525,-2.826 l 9.472,-12.26 a 3.29,3.29 0 0 0 -2.433,-5.334 3.29,3.29 0 0 0 -2.772,1.31 l -9.013,11.666 a 7.9,7.9 0 0 0 -2.624,-0.45 h -84.21 c -0.922,0 -1.8,0.163 -2.622,0.45 l -9.015,-11.666 a 3.29,3.29 0 0 0 -2.543,-1.312 m 14.18,49.527 A 7.877,7.877 0 0 0 289,357.257 v 52.21 a 7.877,7.877 0 0 0 7.895,7.895 h 84.21 A 7.877,7.877 0 0 0 389,409.468 v -52.211 a 7.877,7.877 0 0 0 -7.895,-7.895 z"
       style="color:#000000;font-style:normal;font-variant:normal;font-weight:400;font-stretch:normal;font-size:medium;line-height:normal;font-family:sans-serif;text-indent:0;text-align:start;text-decoration:none;text-decoration-line:none;text-decoration-style:solid;text-decoration-color:#000000;letter-spacing:normal;word-spacing:normal;text-transform:none;writing-mode:lr-tb;direction:ltr;baseline-shift:baseline;text-anchor:start;white-space:normal;clip-rule:nonzero;display:inline;overflow:visible;visibility:visible;opacity:1;isolation:auto;mix-blend-mode:normal;color-interpolation:sRGB;color-interpolation-filters:linearRGB;solid-color:#000000;solid-opacity:1;fill:url(#b);fill-opacity:1;fill-rule:evenodd;stroke:none;stroke-width:6.57895;stroke-linecap:round;stroke-linejoin:miter;stroke-miterlimit:4;stroke-dasharray:none;stroke-dashoffset:0;stroke-opacity:1;color-rendering:auto;image-rendering:auto;shape-rendering:auto;text-rendering:auto"
       transform="translate(81,76)"
       id="path74" />
  </g>
</svg>
