<svg xmlns="http://www.w3.org/2000/svg" width="70" height="90"><path d="M70.404 76.596c.012 0 .022.01.022.022v13.36c0 .012-.01.022-.022.022h-13.36c-.013 0-.023-.01-.023-.022v-13.36c0-.012.01-.022.023-.022h13.36zm-57.447 0H-.403c-.013 0-.023.01-.023.022v13.36c0 .012.01.022.022.022h13.36c.013 0 .023-.01.023-.022v-13.36c0-.012-.01-.022-.023-.022zm42.15-34.085h-5.362v6.13h5.36c5.747.002 5.744 11.873 0 11.87H16.81v-6.893L4.936 63.574l11.872 9.958v-6.51h38.298c5.742-.002 10.725-5.745 10.724-11.49 0-7.657-4.98-13.02-10.724-13.02zm-19.904-6.127h-8.82c0 .007-1.145 1.917-1.15 1.915v17.617c.316 1.276 1.802 2.022 2.66 1.92h6.16c.815-.062 2.386-.77 2.287-2.303V38.298l-1.137-1.915zM44 14.936h-4.977l-.01 2.686.39.378c.248.422.285.693 0 1.15-1.952 3.1-3.135 7.03-3.83 11.488v3.447c.053.28.235.3.384.383 2.482-.032 2.83.5 3.064 1.915v19.15h4.597c1.583-.142 3.224-.142 3.83-2.682V30.64c-.226-2.423-.555-4.985-3.83-11.49-.25-.418-.24-.81 0-1.148l.383-.383v-2.68zM70.425 0H37.872l32.553 32.553V0zM32.128 0H-.426v32.553L32.128 0z"/></svg>