<svg xmlns="http://www.w3.org/2000/svg" width="84" height="90"><path d="M83.724 41.72C83.724 18.68 65.044 0 41.997 0 18.96 0 .277 18.68.277 41.72c0 3.126.353 6.166 1.004 9.093V90h81.414V50.917a41.771 41.771 0 0 0 1.03-9.196" fill="#FFF"/><path d="M46.318 63.84H37.81v24.735h8.508zm-43.612.435H21.44V55.76H2.706zM81.27 55.76h-18.6v8.515h18.6z" fill="#E73B22"/><path d="M2.706 40.054v13.092h18.95zm78.564.041L62.3 53.205h18.97zm-45.91 48.48v-21.33L12.07 88.576zM2.706 67.246v17.34l18.95-17.34z" fill="#004289"/><path d="M9.16 88.575l23.282-21.33H27.98L4.645 88.576z" fill="#E73B22"/><path d="M81.27 67.246H62.3L81.27 84.61zm-9.305 21.329l-23.377-21.41v21.41z" fill="#004289"/><path d="M81.27 87.34L59.196 67.167h-4.46L78.1 88.576h3.17z" fill="#E73B22"/><path d="M41.997 2.355c21.743 0 39.376 17.628 39.376 39.373 0 21.74-17.633 39.364-39.376 39.364-21.735 0-39.377-17.623-39.377-39.364 0-21.745 17.642-39.373 39.377-39.373" fill="#FFF"/><path d="M1.86 41.728c0 22.123 18.01 40.128 40.137 40.128 22.132 0 40.14-18.005 40.14-40.128 0-22.13-18.008-40.135-40.14-40.135V3.12c21.29 0 38.61 17.315 38.61 38.608 0 21.28-17.32 38.603-38.61 38.603C20.71 80.33 3.39 63.01 3.39 41.73c0-21.293 17.32-38.61 38.607-38.61V1.594C19.87 1.593 1.86 19.6 1.86 41.728" fill="#004289"/><path d="M17.075 41.72c0-13.747 11.18-24.926 24.922-24.926 13.747 0 24.927 11.18 24.927 24.927 0 13.748-11.18 24.934-24.927 24.934-13.743 0-24.922-11.186-24.922-24.933m-1.53 0c0 14.59 11.865 26.462 26.452 26.462 14.59 0 26.456-11.872 26.456-26.46 0-14.59-11.866-26.46-26.456-26.46-14.587 0-26.452 11.87-26.452 26.46" fill="#004289"/><path d="M11.71 43.36l.1-3.233-2.088-.067-.084 2.7c-.01.258-.07.437-.185.56a.571.571 0 0 1-.46.17.557.557 0 0 1-.435-.203c-.11-.126-.157-.314-.152-.564l.083-2.704-2.67-.08c-.34-.01-.586-.097-.75-.254a.759.759 0 0 1-.225-.588.77.77 0 0 1 .265-.583c.17-.15.426-.215.76-.206l6.237.192c.236.007.428.052.576.124a.667.667 0 0 1 .32.336c.064.153.092.34.08.568l-.122 3.865c-.002.263-.068.46-.183.582a.59.59 0 0 1-.46.176.606.606 0 0 1-.453-.205c-.11-.13-.164-.328-.154-.588m-1.35 8.076c.58-.14 1.06-.355 1.44-.642.373-.288.635-.632.77-1.032.133-.4.15-.828.042-1.278a2.2 2.2 0 0 0-.392-.845 2.002 2.002 0 0 0-.695-.584 2.526 2.526 0 0 0-.992-.252c-.383-.03-.8.01-1.248.114-.447.11-.84.26-1.176.46-.336.2-.6.433-.79.696-.192.263-.31.543-.366.844-.056.296-.044.606.03.926.097.414.294.766.58 1.062.287.295.667.497 1.145.603.47.096 1.023.076 1.65-.07m3.513-3.25c.194.817.194 1.56 0 2.222a3.316 3.316 0 0 1-1.097 1.67c-.537.442-1.22.766-2.045.96a5.35 5.35 0 0 1-1.72.15 3.693 3.693 0 0 1-1.475-.438 3.296 3.296 0 0 1-1.126-1.015c-.31-.44-.536-.962-.683-1.585-.147-.62-.182-1.193-.098-1.73.082-.535.27-1.008.552-1.42a3.72 3.72 0 0 1 1.134-1.052 5.642 5.642 0 0 1 1.594-.64c.6-.142 1.18-.19 1.723-.136a3.68 3.68 0 0 1 1.474.453c.435.244.8.583 1.103 1.007.296.432.523.952.663 1.553m.61 11.629c.512-.302.91-.65 1.187-1.03.276-.383.42-.795.436-1.214.012-.426-.103-.834-.337-1.236a2.38 2.38 0 0 0-.625-.697c-.25-.175-.53-.29-.836-.35a2.522 2.522 0 0 0-1.022.05 4.122 4.122 0 0 0-1.158.476c-.397.24-.726.496-.99.788-.264.295-.445.585-.548.897-.105.31-.14.615-.105.915.036.3.14.59.306.874.216.368.5.65.865.844.362.2.786.278 1.27.238.487-.043 1.003-.23 1.56-.554m2.403-4.138c.424.723.646 1.43.657 2.125a3.314 3.314 0 0 1-.562 1.92c-.38.585-.943 1.09-1.672 1.523a5.535 5.535 0 0 1-1.602.648 3.605 3.605 0 0 1-1.536.018 3.337 3.337 0 0 1-1.372-.64c-.426-.322-.8-.76-1.12-1.312-.325-.548-.523-1.087-.597-1.624a3.303 3.303 0 0 1 .1-1.52c.153-.478.412-.928.78-1.34.36-.41.81-.775 1.326-1.08a5.1 5.1 0 0 1 1.62-.637 3.723 3.723 0 0 1 1.537-.01c.48.115.934.326 1.346.647.412.32.777.747 1.093 1.284m2.711 6.059l-3.8 4.003.904.863c.2.187.36.33.483.427.123.094.263.178.427.25.162.072.322.114.488.114.718.043 1.468-.35 2.254-1.178.55-.58.88-1.1.978-1.558.096-.45.058-.85-.126-1.17-.18-.323-.46-.662-.818-1.002zm.44-1.374l1.552 1.467c.403.39.71.758.934 1.103.216.348.346.74.39 1.162.1 1.104-.35 2.19-1.367 3.267-.34.353-.674.644-1.012.88-.336.236-.68.408-1.032.52-.35.117-.71.173-1.086.17a2.793 2.793 0 0 1-.836-.153 3.12 3.12 0 0 1-.776-.394 6.614 6.614 0 0 1-.774-.633l-1.55-1.474c-.215-.205-.352-.393-.398-.56a.63.63 0 0 1 .046-.48c.087-.156.213-.323.395-.513l4.097-4.323c.24-.254.477-.387.697-.395.228-.01.465.11.722.354m12.087 14.046c-.18.458-.457.824-.834 1.092-.376.276-.833.43-1.364.46-.533.03-1.11-.078-1.73-.325-.74-.286-1.303-.663-1.67-1.136a2.581 2.581 0 0 1-.517-1.14c-.087-.42-.066-.794.06-1.11a.696.696 0 0 1 .38-.404.735.735 0 0 1 .57-.007.654.654 0 0 1 .35.312c.068.15.104.337.104.575.002.273.03.513.074.72.048.207.156.4.316.583.164.188.408.342.74.47.45.173.86.217 1.226.113.364-.1.613-.305.733-.624.098-.254.1-.482.007-.7-.09-.216-.24-.41-.45-.59-.208-.176-.5-.392-.87-.64-.49-.34-.888-.66-1.188-.973a2.44 2.44 0 0 1-.598-1.04c-.102-.376-.062-.782.106-1.217.162-.414.42-.74.77-.977.354-.233.774-.355 1.277-.356.492-.01 1.03.1 1.61.325.46.185.84.395 1.135.642.292.246.513.505.656.784.15.28.233.544.254.794.024.253-.004.47-.084.675-.07.18-.2.32-.38.415a.65.65 0 0 1-.565.03c-.174-.064-.292-.165-.343-.288a1.764 1.764 0 0 1-.128-.546 2.096 2.096 0 0 0-.23-.856c-.136-.237-.415-.435-.838-.598-.397-.16-.745-.195-1.06-.115-.306.078-.512.235-.606.483a.71.71 0 0 0-.033.44c.044.14.12.28.235.415.113.136.24.255.363.356.13.104.35.263.658.484.383.26.72.523 1.023.772.297.257.53.522.704.78.173.267.28.56.307.872.037.318-.02.668-.17 1.046m7.889-3.03l-1.773-.257-.853 5.825c-.046.33-.157.57-.327.713a.795.795 0 0 1-.62.162c-.235-.042-.422-.15-.543-.334-.133-.184-.17-.45-.12-.775l.85-5.834-1.77-.253c-.283-.044-.478-.135-.595-.274a.642.642 0 0 1-.13-.52.622.622 0 0 1 .28-.463c.158-.098.374-.132.638-.097l5.16.753c.278.044.48.14.596.28.12.147.168.32.136.523a.624.624 0 0 1-.28.458c-.154.103-.372.134-.65.094m2.996 3.545l2.422-.15-1.434-3.263zm3.39 2.04l-.45-.99-3.29.21-.32 1.064c-.126.41-.237.694-.336.835-.094.148-.266.234-.514.246a.721.721 0 0 1-.555-.19.677.677 0 0 1-.273-.498 1.042 1.042 0 0 1 .034-.344c.03-.123.08-.287.15-.504l1.738-5.39c.047-.15.108-.334.176-.55.07-.222.148-.403.232-.55.085-.14.202-.264.35-.362a1.17 1.17 0 0 1 .557-.165c.23-.012.422.015.58.096.16.076.286.177.39.307.104.124.19.272.262.424.077.153.17.36.29.614l2.444 5.084c.194.387.295.67.302.848a.706.706 0 0 1-.2.533.757.757 0 0 1-.55.27.779.779 0 0 1-.337-.044.826.826 0 0 1-.245-.173 1.829 1.829 0 0 1-.223-.35 29.97 29.97 0 0 1-.214-.424m4.118-7.297l4.512 3.532-1.528-4.577c-.098-.298-.108-.538-.033-.732a.66.66 0 0 1 .436-.392.697.697 0 0 1 .6.046c.182.11.316.312.42.61l2.015 6.044c.222.676.057 1.11-.497 1.292-.14.044-.275.066-.395.066a1.024 1.024 0 0 1-.376-.09 1.652 1.652 0 0 1-.373-.215c-.124-.09-.246-.18-.374-.277l-4.414-3.495 1.503 4.5c.094.295.102.538.014.732a.733.733 0 0 1-.45.404c-.222.067-.424.055-.603-.055-.186-.106-.327-.308-.422-.595l-1.98-5.935c-.082-.248-.124-.456-.116-.616a.961.961 0 0 1 .653-.817.908.908 0 0 1 .382-.05c.113.017.225.044.328.096.1.05.208.127.33.222.114.098.242.197.37.304m7.239-2.618l3.063 4.596 1.035-.69c.23-.153.406-.278.53-.38.117-.096.232-.215.335-.353.11-.144.183-.296.223-.45.196-.696-.017-1.516-.65-2.464-.44-.67-.876-1.102-1.303-1.297-.42-.203-.808-.247-1.163-.14-.357.106-.747.297-1.162.575zm-1.242-.732l1.78-1.187c.463-.305.892-.532 1.278-.662a2.747 2.747 0 0 1 1.225-.127c1.1.148 2.055.834 2.875 2.06.27.41.48.802.635 1.184.157.38.246.752.283 1.12.034.37.008.732-.08 1.096-.076.284-.18.544-.335.785-.15.243-.333.462-.553.666a6.722 6.722 0 0 1-.793.617l-1.783 1.187c-.243.16-.46.252-.636.26a.618.618 0 0 1-.452-.158 2.097 2.097 0 0 1-.415-.495l-3.3-4.95c-.197-.297-.274-.554-.23-.775.042-.218.21-.427.503-.62m10.159-1.695l1.627-1.8L65 61.48zm3.85-.91l-1.012-.394-2.21 2.448.508.984c.202.38.316.66.35.835.03.173-.032.35-.198.533a.774.774 0 0 1-.533.257.713.713 0 0 1-.544-.17 1.074 1.074 0 0 1-.214-.272 7.899 7.899 0 0 1-.246-.463l-2.515-5.07c-.073-.142-.156-.32-.26-.527a2.533 2.533 0 0 1-.212-.543 1.184 1.184 0 0 1-.006-.51c.036-.17.134-.342.282-.507.155-.164.313-.283.482-.338.166-.056.334-.07.496-.048.164.02.324.063.486.115.16.062.37.14.626.24l5.307 1.938c.41.14.68.27.812.395.14.12.217.3.224.52a.737.737 0 0 1-.203.58.754.754 0 0 1-.274.2.76.76 0 0 1-.297.045 2.46 2.46 0 0 1-.407-.09c-.165-.058-.317-.11-.442-.156m-1.404-8.848l-.692 1.36 2 1.018.673-1.317c.18-.358.3-.676.365-.944.062-.274.047-.515-.033-.715-.08-.202-.253-.37-.515-.502a1.024 1.024 0 0 0-.61-.115 1.082 1.082 0 0 0-.56.25c-.156.136-.37.456-.626.964m2.613 2.385l-.264.52 2.327 1.18c.303.156.496.335.576.546a.783.783 0 0 1-.052.63c-.12.237-.28.37-.498.425-.214.052-.47 0-.762-.145l-5.567-2.827c-.315-.157-.512-.345-.577-.56-.07-.216-.03-.483.13-.797l1.21-2.384c.17-.332.327-.606.472-.824.15-.22.314-.4.492-.546.21-.177.444-.307.717-.388.266-.083.535-.11.815-.08.283.03.555.112.817.247.54.275.895.64 1.063 1.11.167.465.166 1.037-.01 1.72.27-.19.595-.332.985-.43a7.33 7.33 0 0 1 1.18-.193 6.89 6.89 0 0 1 1.046-.013c.293.014.49.05.58.098.098.052.18.13.24.238.06.105.09.227.097.36 0 .136-.035.27-.105.4a.787.787 0 0 1-.32.36c-.138.07-.283.12-.442.135a9.16 9.16 0 0 1-.693.067l-1.27.09c-.47.027-.835.083-1.112.153-.27.068-.486.176-.64.31-.156.14-.302.338-.435.597m-.301-8.175l5.42 1.054.237-1.226c.05-.266.088-.477.102-.634.016-.154.01-.318-.014-.498a1.357 1.357 0 0 0-.167-.466c-.348-.63-1.084-1.056-2.202-1.275-.787-.15-1.403-.15-1.842.014-.438.16-.74.403-.918.73-.18.332-.312.74-.41 1.233zm-1.398.37l.414-2.105c.104-.54.245-1.002.423-1.372.176-.37.435-.69.78-.95.867-.686 2.03-.886 3.48-.604.474.093.908.222 1.29.378.374.157.71.356.992.59.285.234.525.51.722.83.152.25.26.51.325.79.064.27.095.56.084.857-.01.304-.047.636-.122 1l-.407 2.098c-.06.288-.145.507-.263.636-.12.13-.264.2-.433.215a2.44 2.44 0 0 1-.64-.055l-5.842-1.137c-.35-.072-.583-.197-.713-.378-.124-.187-.152-.452-.09-.796m6.302-13.097c.49-.035.94.058 1.345.282.41.226.742.57.998 1.037.257.465.41 1.033.457 1.698.057.793-.048 1.46-.314 2-.19.383-.46.7-.805.955-.35.26-.693.4-1.036.424a.702.702 0 0 1-.52-.172.698.698 0 0 1-.25-.51.61.61 0 0 1 .136-.45c.098-.128.255-.24.466-.34.244-.122.454-.25.62-.383a1.27 1.27 0 0 0 .39-.532c.095-.226.132-.518.107-.868-.032-.486-.176-.87-.416-1.16-.254-.283-.548-.418-.888-.394a.92.92 0 0 0-.635.29 1.56 1.56 0 0 0-.332.667c-.073.263-.142.615-.212 1.054a7.453 7.453 0 0 1-.37 1.496 2.37 2.37 0 0 1-.672.983c-.302.25-.687.395-1.147.425-.45.035-.85-.06-1.215-.277-.362-.217-.653-.552-.873-.99-.218-.446-.35-.98-.393-1.602-.038-.494-.008-.927.09-1.3.1-.368.24-.68.43-.93a1.96 1.96 0 0 1 .602-.57c.216-.127.43-.195.644-.214a.777.777 0 0 1 .54.167c.17.126.258.29.27.495.016.186-.025.33-.11.435-.086.098-.235.22-.444.346a2.17 2.17 0 0 0-.67.583c-.154.213-.218.556-.18 1.008.026.423.148.76.35 1.006.203.244.434.36.695.338a.66.66 0 0 0 .41-.164c.112-.092.203-.225.276-.383.08-.16.13-.327.167-.484.036-.16.088-.425.156-.798.073-.457.16-.88.265-1.254.098-.38.235-.706.4-.976.166-.267.38-.49.654-.65.27-.167.608-.266 1.016-.292M18.588 20.405l1.708-1.722-3.236-1.485zm3.885-.73l-.99-.437-2.323 2.344.465 1.003c.18.392.283.672.31.85.026.175-.05.348-.22.522a.761.761 0 0 1-.547.23.709.709 0 0 1-.533-.19 1.127 1.127 0 0 1-.206-.284 4.662 4.662 0 0 1-.22-.475l-2.28-5.178c-.065-.15-.142-.328-.235-.537a2.71 2.71 0 0 1-.186-.56 1.056 1.056 0 0 1 .017-.502 1.09 1.09 0 0 1 .306-.492 1.17 1.17 0 0 1 .49-.316c.173-.05.338-.057.504-.03.16.03.318.078.48.14l.62.266 5.204 2.184c.402.16.665.305.79.43.138.13.204.307.204.532a.732.732 0 0 1-.232.567.68.68 0 0 1-.284.195c-.096.028-.197.038-.294.028a1.619 1.619 0 0 1-.4-.114 9.123 9.123 0 0 1-.44-.176m6.53-6.183c.252.425.37.868.354 1.334-.02.465-.174.92-.48 1.36-.304.434-.74.823-1.308 1.165-.693.406-1.334.613-1.934.616a2.575 2.575 0 0 1-1.214-.287c-.385-.192-.667-.438-.842-.735a.715.715 0 0 1 .261-.996.608.608 0 0 1 .464-.085c.16.04.327.122.515.264.218.17.425.3.62.383.187.088.408.123.65.11.245-.014.515-.11.823-.293.42-.247.698-.55.844-.9.144-.346.133-.67-.042-.96a.89.89 0 0 0-.545-.437 1.563 1.563 0 0 0-.743-.005c-.274.06-.617.154-1.04.293a8.267 8.267 0 0 1-1.502.34c-.43.042-.82-.01-1.18-.164-.364-.158-.66-.433-.9-.837a1.998 1.998 0 0 1-.295-1.205c.033-.423.195-.83.496-1.228.3-.393.717-.747 1.253-1.068.422-.253.825-.423 1.2-.5.373-.076.713-.095 1.028-.04.306.053.566.148.777.287.208.134.367.295.48.478a.8.8 0 0 1 .092.56.661.661 0 0 1-.32.464c-.162.096-.307.125-.44.096-.13-.035-.3-.114-.51-.242a2.1 2.1 0 0 0-.818-.337c-.264-.04-.596.052-.99.287-.36.222-.608.473-.737.765-.127.294-.125.55.01.778.08.138.19.237.325.292.138.06.295.08.476.07.173-.004.34-.025.5-.064a27.2 27.2 0 0 0 .785-.222c.44-.143.86-.25 1.244-.327.38-.08.733-.106 1.046-.08.315.024.613.122.877.287.267.17.51.43.716.778m7.285-2.325c.142.468.146.927.017 1.378-.126.442-.39.843-.79 1.194-.402.354-.917.624-1.558.817-.765.228-1.44.277-2.024.134a2.654 2.654 0 0 1-1.11-.577c-.323-.28-.53-.586-.633-.915a.726.726 0 0 1 .494-.909.598.598 0 0 1 .462.04c.153.066.297.192.443.375.172.22.343.39.506.525.163.135.367.218.61.266.238.043.528.015.867-.09.462-.135.812-.36 1.034-.66.232-.31.294-.625.195-.95a.884.884 0 0 0-.424-.553 1.493 1.493 0 0 0-.716-.183c-.273-.014-.636 0-1.08.028-.596.035-1.108.023-1.54-.04a2.376 2.376 0 0 1-1.104-.44c-.312-.238-.536-.58-.67-1.027a2 2 0 0 1 .004-1.243c.137-.398.393-.76.778-1.07.392-.313.883-.553 1.477-.734a4.181 4.181 0 0 1 1.285-.195c.382.02.72.084 1.003.214.29.126.518.28.692.464.167.185.286.38.345.584a.77.77 0 0 1-.044.564.635.635 0 0 1-.42.37c-.183.058-.33.052-.452-.008a2.126 2.126 0 0 1-.435-.355 2.108 2.108 0 0 0-.712-.53c-.247-.11-.59-.09-1.027.042-.408.12-.706.307-.903.56-.195.254-.253.505-.176.76.042.15.123.275.24.362.12.085.268.148.442.183.172.04.342.053.51.053.162 0 .436-.004.81-.02.465-.03.895-.038 1.284-.02.392.02.735.078 1.036.18.302.098.564.266.782.492.22.23.39.544.506.934m1.466-1.174l-.12-3.897c-.014-.327.055-.582.2-.753a.767.767 0 0 1 .576-.267c.25-.007.454.07.605.232.153.16.234.41.246.74l.126 3.99c.012.452.075.828.187 1.13.11.303.296.534.562.693.264.157.627.23 1.094.217.64-.016 1.087-.206 1.35-.556.252-.348.37-.87.347-1.562l-.124-4.026c-.013-.33.055-.583.195-.75a.736.736 0 0 1 .577-.268.791.791 0 0 1 .606.23c.153.16.24.406.247.743l.122 3.897c.018.634-.024 1.164-.134 1.595a2.43 2.43 0 0 1-.658 1.135c-.287.28-.622.488-1.007.626-.385.136-.84.21-1.36.228-.622.02-1.163-.027-1.61-.148-.46-.127-.828-.32-1.12-.594-.295-.27-.51-.626-.657-1.062-.15-.436-.23-.96-.25-1.572m12.83-2.654l-1.488-.36-.528 2.185 1.442.345c.387.092.717.14.994.14.28-.006.512-.07.69-.2.174-.127.3-.326.37-.61a1.05 1.05 0 0 0-.026-.62 1.02 1.02 0 0 0-.375-.49c-.167-.124-.528-.257-1.08-.39m-1.728 3.09l-.558-.138-.62 2.532c-.083.337-.21.563-.396.682a.75.75 0 0 1-.628.1c-.253-.058-.428-.194-.526-.388-.095-.2-.11-.458-.028-.78l1.472-6.062c.083-.345.222-.577.416-.694.187-.115.458-.133.8-.046l2.602.63c.356.09.663.178.91.272.24.088.457.21.642.35.217.162.4.368.538.607.144.242.235.498.267.776.038.28.02.564-.05.854-.142.585-.422 1.014-.836 1.287-.42.27-.978.4-1.68.385.246.222.456.507.643.86.187.36.34.726.458 1.107.122.38.204.716.253 1.01.05.296.06.49.035.59a.65.65 0 0 1-.173.29.799.799 0 0 1-.334.176.945.945 0 0 1-.415-.01.776.776 0 0 1-.42-.236 1.287 1.287 0 0 1-.236-.394c-.055-.153-.13-.37-.218-.657l-.377-1.22c-.14-.45-.27-.798-.404-1.046a1.57 1.57 0 0 0-.452-.555c-.166-.123-.397-.215-.683-.284m12.346 1.331l-3.26-1.752-.96 1.782 3.004 1.615c.22.12.358.26.415.416a.59.59 0 0 1-.05.478.579.579 0 0 1-.372.306c-.157.05-.356.004-.577-.115L56.4 12.872l-1.093 2.037 3.372 1.808c.226.128.367.27.427.435.06.167.043.34-.05.514a.626.626 0 0 1-.395.316c-.172.042-.368 0-.6-.123l-3.922-2.11c-.316-.168-.505-.357-.567-.572-.06-.212-.003-.476.164-.787l2.893-5.373c.107-.207.228-.366.362-.462.133-.1.28-.142.44-.133.163.012.348.07.548.178l3.82 2.054c.227.126.374.264.43.428a.585.585 0 0 1-.042.485.597.597 0 0 1-.39.314c-.165.044-.363 0-.595-.126m4.043 3.078l-3.768 4.04.912.85c.198.182.36.325.487.42.12.094.26.177.426.25.16.07.326.108.485.108.72.038 1.468-.36 2.25-1.193.545-.59.867-1.11.962-1.567.096-.46.055-.846-.133-1.172a4.34 4.34 0 0 0-.828-.993zm.42-1.38l1.567 1.46c.408.378.723.743.943 1.09.22.344.353.733.397 1.162.118 1.103-.326 2.195-1.335 3.27a6.597 6.597 0 0 1-1.002.893c-.34.24-.68.41-1.03.532-.35.118-.71.174-1.09.174a2.818 2.818 0 0 1-.834-.143 3.212 3.212 0 0 1-.778-.383c-.25-.168-.51-.38-.777-.633l-1.566-1.46c-.218-.2-.354-.386-.398-.552a.63.63 0 0 1 .043-.485c.077-.15.206-.32.388-.515l4.057-4.352c.242-.256.475-.395.7-.4.22-.014.457.104.716.343"/><path d="M41.65 46.057c0 6.026-4.937 10.87-10.962 10.87-6.023 0-10.972-4.844-10.972-10.87 0-6.027 4.95-10.87 10.972-10.87 6.025 0 10.963 4.843 10.963 10.87M30.69 41.225c-2.644 0-4.73 2.17-4.73 4.823 0 2.634 2.086 4.84 4.73 4.84 2.638 0 4.723-2.206 4.723-4.84 0-2.652-2.084-4.823-4.722-4.823m25.839 7.929c-1.14 0-2.044.935-2.044 2.075 0 1.15.903 2.093 2.045 2.093 1.135 0 2.033-.944 2.033-2.094 0-1.14-.898-2.076-2.032-2.076m5.755 2.075c0 3.164-2.598 5.7-5.763 5.7-3.156 0-5.76-2.536-5.76-5.7 0-3.17 2.604-5.696 5.76-5.696 3.165 0 5.763 2.527 5.763 5.695" fill="#004289"/><path d="M60.102 33.183h-9.428l.006-1.325v-7.25a1.33 1.33 0 0 0-1.327-1.327h-5.136c-.72 0-1.317.6-1.317 1.328v8.575h-3.664l-.003-1.325v-8.02c0-.728-.59-1.318-1.32-1.318h-8.822c-.725 0-1.323.59-1.323 1.32v11.737c.93-.25 1.914-.39 2.92-.39 5.523 0 10.14 4.07 10.863 9.386h18.552a1.32 1.32 0 0 0 1.318-1.32v-8.742c0-.732-.59-1.327-1.318-1.327m-29.41 8.063c-.967 0-1.86.29-2.598.785v.885c0 .728.595 1.266 1.32 1.266h5.624c-.713-1.727-2.37-2.936-4.347-2.936" fill="#E73B22"/></svg>