<svg xmlns="http://www.w3.org/2000/svg" width="84" height="90"><path d="M83.724 41.72C83.724 18.68 65.044 0 41.997 0 18.96 0 .277 18.68.277 41.72c0 3.126.353 6.166 1.004 9.093V90h81.414V50.917c.667-2.96 1.03-6.034 1.03-9.196" fill="#FFF"/><path d="M46.318 63.84H37.81v24.735h8.508zM2.706 64.275H21.44V55.76H2.706zM81.27 55.76h-18.6v8.515h18.6z" fill="#E73B22"/><path d="M2.706 40.054v13.092h18.95zM81.27 40.095L62.3 53.205H81.27zM35.36 88.575v-21.33L12.07 88.576zM2.706 67.246v17.34l18.95-17.34z" fill="#004289"/><path d="M9.16 88.575l23.282-21.33H27.98L4.645 88.576z" fill="#E73B22"/><path d="M81.27 67.246H62.3L81.27 84.61zM71.965 88.575l-23.377-21.41v21.41z" fill="#004289"/><path d="M81.27 87.34L59.196 67.167h-4.46L78.1 88.576h3.17z" fill="#E73B22"/><path d="M41.997 2.355c21.743 0 39.376 17.628 39.376 39.373 0 21.74-17.633 39.364-39.376 39.364-21.735 0-39.377-17.623-39.377-39.364 0-21.745 17.642-39.373 39.377-39.373" fill="#FFF"/><path d="M1.86 41.728c0 22.123 18.01 40.128 40.137 40.128 22.132 0 40.14-18.005 40.14-40.128 0-22.13-18.008-40.135-40.14-40.135V3.12c21.29 0 38.61 17.315 38.61 38.608 0 21.28-17.32 38.603-38.61 38.603C20.71 80.33 3.39 63.01 3.39 41.73c0-21.293 17.32-38.61 38.607-38.61V1.594C19.87 1.593 1.86 19.6 1.86 41.728" fill="#004289"/><path d="M17.075 41.72c0-13.747 11.18-24.926 24.922-24.926 13.747 0 24.927 11.18 24.927 24.927 0 13.748-11.18 24.934-24.927 24.934-13.743 0-24.922-11.186-24.922-24.933m-1.53 0c0 14.59 11.865 26.462 26.452 26.462 14.59 0 26.456-11.872 26.456-26.46 0-14.59-11.866-26.46-26.456-26.46-14.587 0-26.452 11.87-26.452 26.46" fill="#004289"/><path d="M11.71 43.36l.1-3.233-2.088-.067-.084 2.7c-.01.258-.07.437-.185.56-.114.12-.265.177-.46.17-.184-.004-.328-.075-.435-.203-.11-.126-.157-.314-.152-.564l.083-2.704-2.67-.08c-.34-.01-.586-.097-.75-.254-.158-.156-.232-.353-.225-.588.008-.242.096-.436.265-.583.17-.15.426-.215.76-.206l6.237.192c.236.007.428.052.576.124.148.073.252.186.32.336.064.153.092.34.08.568l-.122 3.865c-.002.263-.068.46-.183.582-.12.12-.27.183-.46.176-.188-.006-.34-.077-.453-.205-.11-.13-.164-.328-.154-.588M10.36 51.434c.58-.14 1.06-.355 1.44-.642.373-.288.635-.632.77-1.032.133-.4.15-.828.042-1.278-.077-.323-.207-.605-.392-.845-.188-.25-.417-.44-.695-.584-.277-.14-.606-.228-.992-.252-.383-.03-.8.01-1.248.114-.447.11-.84.26-1.176.46-.336.2-.6.433-.79.696-.192.263-.31.543-.366.844-.056.296-.044.606.03.926.097.414.294.766.58 1.062.287.295.667.497 1.145.603.47.096 1.023.076 1.65-.07m3.513-3.25c.194.817.194 1.56 0 2.222-.19.664-.556 1.22-1.097 1.67-.537.442-1.22.766-2.045.96-.612.15-1.184.194-1.72.15-.537-.05-1.03-.19-1.475-.438-.444-.245-.823-.58-1.126-1.015-.31-.44-.536-.962-.683-1.585-.147-.62-.182-1.193-.098-1.73.082-.535.27-1.008.552-1.42.285-.412.663-.763 1.134-1.052.467-.283 1.003-.496 1.594-.64.6-.142 1.18-.19 1.723-.136.55.056 1.04.205 1.474.453.435.244.8.583 1.103 1.007.296.432.523.952.663 1.553M14.48 59.814c.512-.302.91-.65 1.187-1.03.276-.383.42-.795.436-1.214.012-.426-.103-.834-.337-1.236-.173-.282-.377-.517-.625-.697-.25-.175-.53-.29-.836-.35-.306-.053-.645-.04-1.022.05-.377.088-.763.243-1.158.476-.397.24-.726.496-.99.788-.264.295-.445.585-.548.897-.105.31-.14.615-.105.915.036.3.14.59.306.874.216.368.5.65.865.844.362.2.786.278 1.27.238.487-.043 1.003-.23 1.56-.554m2.403-4.138c.424.723.646 1.43.657 2.125.01.696-.175 1.335-.562 1.92-.38.585-.943 1.09-1.672 1.523-.54.314-1.072.533-1.602.648-.525.116-1.04.123-1.536.018-.494-.103-.955-.317-1.372-.64-.426-.322-.8-.76-1.12-1.312-.325-.548-.523-1.087-.597-1.624-.09-.537-.044-1.04.1-1.52.153-.478.412-.928.78-1.34.36-.41.81-.775 1.326-1.08.54-.32 1.077-.53 1.62-.637.533-.112 1.046-.112 1.537-.01.48.115.934.326 1.346.647.412.32.777.747 1.093 1.284M19.595 61.738l-3.8 4.003.904.863c.2.187.36.33.483.427.123.094.263.178.427.25.162.072.322.114.488.114.718.043 1.468-.35 2.254-1.178.55-.58.88-1.1.978-1.558.096-.45.058-.85-.126-1.17-.18-.323-.46-.662-.818-1.002zm.44-1.374l1.552 1.467c.403.39.71.758.934 1.103.216.348.346.74.39 1.162.1 1.104-.35 2.19-1.367 3.267-.34.353-.674.644-1.012.88-.336.236-.68.408-1.032.52-.35.117-.71.173-1.086.17-.292-.012-.572-.058-.836-.153-.27-.092-.53-.223-.776-.394-.245-.17-.507-.38-.774-.633l-1.55-1.474c-.215-.205-.352-.393-.398-.56-.05-.17-.03-.334.046-.48.087-.156.213-.323.395-.513l4.097-4.323c.24-.254.477-.387.697-.395.228-.01.465.11.722.354M32.124 74.408c-.18.458-.457.824-.834 1.092-.376.276-.833.43-1.364.46-.533.03-1.11-.078-1.73-.325-.74-.286-1.303-.663-1.67-1.136-.264-.34-.44-.715-.517-1.14-.087-.42-.066-.794.06-1.11.068-.187.198-.32.38-.404.176-.08.367-.08.57-.007.155.064.276.165.35.312.068.15.104.337.104.575.002.273.03.513.074.72.048.207.156.4.316.583.164.188.408.342.74.47.45.173.86.217 1.226.113.364-.1.613-.305.733-.624.098-.254.1-.482.007-.7-.09-.216-.24-.41-.45-.59-.208-.176-.5-.392-.87-.64-.49-.34-.888-.66-1.188-.973-.298-.317-.494-.66-.598-1.04-.102-.376-.062-.782.106-1.217.162-.414.42-.74.77-.977.354-.233.774-.355 1.277-.356.492-.01 1.03.1 1.61.325.46.185.84.395 1.135.642.292.246.513.505.656.784.15.28.233.544.254.794.024.253-.004.47-.084.675-.07.18-.2.32-.38.415-.188.093-.375.11-.565.03-.174-.064-.292-.165-.343-.288-.057-.122-.103-.304-.128-.546-.024-.335-.103-.623-.23-.856-.136-.237-.415-.435-.838-.598-.397-.16-.745-.195-1.06-.115-.306.078-.512.235-.606.483-.057.148-.07.294-.033.44.044.14.12.28.235.415.113.136.24.255.363.356.13.104.35.263.658.484.383.26.72.523 1.023.772.297.257.53.522.704.78.173.267.28.56.307.872.037.318-.02.668-.17 1.046M40.013 71.374l-1.773-.257-.853 5.825c-.046.33-.157.57-.327.713-.18.14-.383.193-.62.162-.235-.042-.422-.15-.543-.334-.133-.184-.17-.45-.12-.775l.85-5.834-1.77-.253c-.283-.044-.478-.135-.595-.274-.115-.144-.16-.312-.13-.52.03-.21.124-.363.28-.463.158-.098.374-.132.638-.097l5.16.753c.278.044.48.14.596.28.12.147.168.32.136.523-.026.198-.122.354-.28.458-.154.103-.372.134-.65.094M43.008 74.92l2.422-.15-1.434-3.263zm3.39 2.04l-.45-.99-3.29.21-.32 1.064c-.126.41-.237.694-.336.835-.094.148-.266.234-.514.246-.205.016-.39-.044-.555-.19-.172-.134-.26-.308-.273-.498-.008-.105.002-.225.034-.344.03-.123.08-.287.15-.504l1.738-5.39c.047-.15.108-.334.176-.55.07-.222.148-.403.232-.55.085-.14.202-.264.35-.362.146-.093.332-.15.557-.165.23-.012.422.015.58.096.16.076.286.177.39.307.104.124.19.272.262.424.077.153.17.36.29.614l2.444 5.084c.194.387.295.67.302.848.015.187-.053.368-.2.533-.144.167-.33.258-.55.27-.13.007-.24-.005-.337-.044-.097-.044-.176-.104-.245-.173-.07-.078-.14-.194-.223-.35-.085-.166-.154-.302-.214-.424M50.514 69.66l4.512 3.532-1.528-4.577c-.098-.298-.108-.538-.033-.732.08-.193.22-.323.436-.392.22-.076.424-.057.6.046.182.11.316.312.42.61l2.015 6.044c.222.676.057 1.11-.497 1.292-.14.044-.275.066-.395.066-.125-.007-.253-.033-.376-.09-.127-.05-.25-.124-.373-.215-.124-.09-.246-.18-.374-.277l-4.414-3.495 1.503 4.5c.094.295.102.538.014.732-.084.195-.236.326-.45.404-.222.067-.424.055-.603-.055-.186-.106-.327-.308-.422-.595l-1.98-5.935c-.082-.248-.124-.456-.116-.616.02-.18.084-.35.203-.5.118-.148.274-.255.45-.317.14-.045.27-.064.382-.05.113.017.225.044.328.096.1.05.208.127.33.222.114.098.242.197.37.304M57.755 67.044l3.063 4.596 1.035-.69c.23-.153.406-.278.53-.38.117-.096.232-.215.335-.353.11-.144.183-.296.223-.45.196-.696-.017-1.516-.65-2.464-.44-.67-.876-1.102-1.303-1.297-.42-.203-.808-.247-1.163-.14-.357.106-.747.297-1.162.575zm-1.242-.732l1.78-1.187c.463-.305.892-.532 1.278-.662.387-.134.796-.176 1.225-.127 1.1.148 2.055.834 2.875 2.06.27.41.48.802.635 1.184.157.38.246.752.283 1.12.034.37.008.732-.08 1.096-.076.284-.18.544-.335.785-.15.243-.333.462-.553.666-.222.202-.487.413-.793.617l-1.783 1.187c-.243.16-.46.252-.636.26-.173.006-.326-.044-.452-.158-.132-.107-.27-.27-.415-.495l-3.3-4.95c-.197-.297-.274-.554-.23-.775.042-.218.21-.427.503-.62M66.674 64.618l1.627-1.8L65 61.48zm3.85-.91l-1.012-.394-2.21 2.448.508.984c.202.38.316.66.35.835.03.173-.032.35-.198.533-.138.156-.316.237-.533.257-.22.014-.4-.042-.544-.17-.083-.076-.155-.166-.214-.272-.065-.107-.145-.264-.246-.463l-2.515-5.07c-.073-.142-.156-.32-.26-.527-.103-.2-.174-.387-.212-.543-.04-.168-.04-.335-.006-.51.036-.17.134-.342.282-.507.155-.164.313-.283.482-.338.166-.056.334-.07.496-.048.164.02.324.063.486.115.16.062.37.14.626.24l5.307 1.938c.41.14.68.27.812.395.14.12.217.3.224.52.015.222-.05.42-.203.58-.09.097-.175.16-.274.2-.1.035-.194.05-.297.045-.097-.01-.236-.04-.407-.09-.165-.058-.317-.11-.442-.156M69.12 54.862l-.692 1.36 2 1.018.673-1.317c.18-.358.3-.676.365-.944.062-.274.047-.515-.033-.715-.08-.202-.253-.37-.515-.502-.198-.102-.403-.142-.61-.115-.205.025-.392.112-.56.25-.156.136-.37.456-.626.964m2.613 2.385l-.264.52 2.327 1.18c.303.156.496.335.576.546.072.204.055.415-.052.63-.12.237-.28.37-.498.425-.214.052-.47 0-.762-.145l-5.567-2.827c-.315-.157-.512-.345-.577-.56-.07-.216-.03-.483.13-.797l1.21-2.384c.17-.332.327-.606.472-.824.15-.22.314-.4.492-.546.21-.177.444-.307.717-.388.266-.083.535-.11.815-.08.283.03.555.112.817.247.54.275.895.64 1.063 1.11.167.465.166 1.037-.01 1.72.27-.19.595-.332.985-.43.39-.096.784-.162 1.18-.193.398-.03.75-.037 1.046-.013.293.014.49.05.58.098.098.052.18.13.24.238.06.105.09.227.097.36 0 .136-.035.27-.105.4-.08.17-.193.288-.32.36-.138.07-.283.12-.442.135-.165.024-.39.047-.693.067l-1.27.09c-.47.027-.835.083-1.112.153-.27.068-.486.176-.64.31-.156.14-.302.338-.435.597M71.434 49.07l5.42 1.054.237-1.226c.05-.266.088-.477.102-.634.016-.154.01-.318-.014-.498-.027-.17-.087-.328-.167-.466-.348-.63-1.084-1.056-2.202-1.275-.787-.15-1.403-.15-1.842.014-.438.16-.74.403-.918.73-.18.332-.312.74-.41 1.233zm-1.398.37l.414-2.105c.104-.54.245-1.002.423-1.372.176-.37.435-.69.78-.95.867-.686 2.03-.886 3.48-.604.474.093.908.222 1.29.378.374.157.71.356.992.59.285.234.525.51.722.83.152.25.26.51.325.79.064.27.095.56.084.857-.01.304-.047.636-.122 1l-.407 2.098c-.06.288-.145.507-.263.636-.12.13-.264.2-.433.215-.17.013-.378-.004-.64-.055l-5.842-1.137c-.35-.072-.583-.197-.713-.378-.124-.187-.152-.452-.09-.796M76.338 36.34c.49-.035.94.058 1.345.282.41.226.742.57.998 1.037.257.465.41 1.033.457 1.698.057.793-.048 1.46-.314 2-.19.383-.46.7-.805.955-.35.26-.693.4-1.036.424-.196.015-.37-.046-.52-.172-.155-.13-.235-.3-.25-.51-.015-.17.032-.32.136-.45.098-.128.255-.24.466-.34.244-.122.454-.25.62-.383.168-.13.297-.308.39-.532.095-.226.132-.518.107-.868-.032-.486-.176-.87-.416-1.16-.254-.283-.548-.418-.888-.394-.263.018-.48.12-.635.29-.156.18-.266.398-.332.667-.073.263-.142.615-.212 1.054-.092.594-.215 1.088-.37 1.496-.152.404-.378.73-.672.983-.302.25-.687.395-1.147.425-.45.035-.85-.06-1.215-.277-.362-.217-.653-.552-.873-.99-.218-.446-.35-.98-.393-1.602-.038-.494-.008-.927.09-1.3.1-.368.24-.68.43-.93.183-.256.386-.445.602-.57.216-.127.43-.195.644-.214.194-.016.377.044.54.167.17.126.258.29.27.495.016.186-.025.33-.11.435-.086.098-.235.22-.444.346-.29.17-.512.366-.67.583-.154.213-.218.556-.18 1.008.026.423.148.76.35 1.006.203.244.434.36.695.338.163-.012.297-.063.41-.164.112-.092.203-.225.276-.383.08-.16.13-.327.167-.484.036-.16.088-.425.156-.798.073-.457.16-.88.265-1.254.098-.38.235-.706.4-.976.166-.267.38-.49.654-.65.27-.167.608-.266 1.016-.292M18.588 20.405l1.708-1.722-3.236-1.485zm3.885-.73l-.99-.437-2.323 2.344.465 1.003c.18.392.283.672.31.85.026.175-.05.348-.22.522-.15.15-.33.226-.547.23-.224.007-.397-.062-.533-.19-.08-.082-.148-.17-.206-.284-.062-.107-.13-.262-.22-.475l-2.28-5.178c-.065-.15-.142-.328-.235-.537-.09-.206-.154-.393-.186-.56-.036-.167-.028-.33.017-.502.047-.17.145-.336.306-.492.164-.165.327-.268.49-.316.173-.05.338-.057.504-.03.16.03.318.078.48.14l.62.266 5.204 2.184c.402.16.665.305.79.43.138.13.204.307.204.532.007.22-.072.412-.232.567-.09.097-.183.162-.284.195-.096.028-.197.038-.294.028-.1-.012-.235-.047-.4-.114-.17-.064-.312-.12-.44-.176M29.003 13.492c.252.425.37.868.354 1.334-.02.465-.174.92-.48 1.36-.304.434-.74.823-1.308 1.165-.693.406-1.334.613-1.934.616-.428.004-.833-.092-1.214-.287-.385-.192-.667-.438-.842-.735-.1-.17-.13-.353-.085-.543.047-.195.163-.345.346-.453.15-.09.303-.122.464-.085.16.04.327.122.515.264.218.17.425.3.62.383.187.088.408.123.65.11.245-.014.515-.11.823-.293.42-.247.698-.55.844-.9.144-.346.133-.67-.042-.96-.137-.233-.32-.377-.545-.437-.226-.062-.476-.062-.743-.005-.274.06-.617.154-1.04.293-.568.18-1.068.288-1.502.34-.43.042-.82-.01-1.18-.164-.364-.158-.66-.433-.9-.837-.23-.382-.326-.782-.295-1.205.033-.423.195-.83.496-1.228.3-.393.717-.747 1.253-1.068.422-.253.825-.423 1.2-.5.373-.076.713-.095 1.028-.04.306.053.566.148.777.287.208.134.367.295.48.478.096.167.13.353.092.56-.04.205-.144.358-.32.464-.162.096-.307.125-.44.096-.13-.035-.3-.114-.51-.242-.28-.182-.554-.297-.818-.337-.264-.04-.596.052-.99.287-.36.222-.608.473-.737.765-.127.294-.125.55.01.778.08.138.19.237.325.292.138.06.295.08.476.07.173-.004.34-.025.5-.064.16-.042.424-.115.785-.222.44-.143.86-.25 1.244-.327.38-.08.733-.106 1.046-.08.315.024.613.122.877.287.267.17.51.43.716.778M36.284 11.162c.142.468.146.927.017 1.378-.126.442-.39.843-.79 1.194-.402.354-.917.624-1.558.817-.765.228-1.44.277-2.024.134-.41-.104-.786-.293-1.11-.577-.323-.28-.53-.586-.633-.915-.053-.187-.04-.375.05-.547.095-.175.24-.298.444-.362.163-.047.323-.036.462.04.153.066.297.192.443.375.172.22.343.39.506.525.163.135.367.218.61.266.238.043.528.015.867-.09.462-.135.812-.36 1.034-.66.232-.31.294-.625.195-.95-.074-.255-.217-.438-.424-.553-.205-.113-.442-.18-.716-.183-.273-.014-.636 0-1.08.028-.596.035-1.108.023-1.54-.04-.422-.06-.794-.208-1.104-.44-.312-.238-.536-.58-.67-1.027-.13-.427-.13-.84.004-1.243.137-.398.393-.76.778-1.07.392-.313.883-.553 1.477-.734.472-.142.902-.203 1.285-.195.382.02.72.084 1.003.214.29.126.518.28.692.464.167.185.286.38.345.584.057.187.043.374-.044.564-.085.192-.226.313-.42.37-.183.058-.33.052-.452-.008-.12-.066-.262-.183-.435-.355-.23-.25-.468-.426-.712-.53-.247-.11-.59-.09-1.027.042-.408.12-.706.307-.903.56-.195.254-.253.505-.176.76.042.15.123.275.24.362.12.085.268.148.442.183.172.04.342.053.51.053.162 0 .436-.004.81-.02.465-.03.895-.038 1.284-.02.392.02.735.078 1.036.18.302.098.564.266.782.492.22.23.39.544.506.934M37.754 9.988l-.12-3.897c-.014-.327.055-.582.2-.753.144-.165.333-.258.576-.267.25-.007.454.07.605.232.153.16.234.41.246.74l.126 3.99c.012.452.075.828.187 1.13.11.303.296.534.562.693.264.157.627.23 1.094.217.64-.016 1.087-.206 1.35-.556.252-.348.37-.87.347-1.562l-.124-4.026c-.013-.33.055-.583.195-.75.14-.172.333-.26.577-.268.247-.006.448.072.606.23.153.16.24.406.247.743l.122 3.897c.018.634-.024 1.164-.134 1.595-.107.426-.328.804-.658 1.135-.287.28-.622.488-1.007.626-.385.136-.84.21-1.36.228-.622.02-1.163-.027-1.61-.148-.46-.127-.828-.32-1.12-.594-.295-.27-.51-.626-.657-1.062-.15-.436-.23-.96-.25-1.572M50.584 7.335l-1.488-.36-.528 2.185 1.442.345c.387.092.717.14.994.14.28-.006.512-.07.69-.2.174-.127.3-.326.37-.61.056-.218.042-.426-.026-.62-.07-.198-.195-.358-.375-.49-.167-.124-.528-.257-1.08-.39m-1.728 3.09l-.558-.138-.62 2.532c-.083.337-.21.563-.396.682-.187.126-.39.157-.628.1-.253-.058-.428-.194-.526-.388-.095-.2-.11-.458-.028-.78l1.472-6.062c.083-.345.222-.577.416-.694.187-.115.458-.133.8-.046l2.602.63c.356.09.663.178.91.272.24.088.457.21.642.35.217.162.4.368.538.607.144.242.235.498.267.776.038.28.02.564-.05.854-.142.585-.422 1.014-.836 1.287-.42.27-.978.4-1.68.385.246.222.456.507.643.86.187.36.34.726.458 1.107.122.38.204.716.253 1.01.05.296.06.49.035.59-.03.107-.084.2-.173.29-.09.08-.202.142-.334.176-.127.026-.264.026-.415-.01-.183-.044-.317-.12-.42-.236-.1-.113-.178-.244-.236-.394-.055-.153-.13-.37-.218-.657l-.377-1.22c-.14-.45-.27-.798-.404-1.046-.13-.25-.285-.433-.452-.555-.166-.123-.397-.215-.683-.284M61.203 11.754l-3.26-1.752-.96 1.782 3.004 1.615c.22.12.358.26.415.416.05.155.038.315-.05.478-.086.16-.208.263-.372.306-.157.05-.356.004-.577-.115L56.4 12.872l-1.093 2.037 3.372 1.808c.226.128.367.27.427.435.06.167.043.34-.05.514-.095.168-.225.27-.395.316-.172.042-.368 0-.6-.123l-3.922-2.11c-.316-.168-.505-.357-.567-.572-.06-.212-.003-.476.164-.787l2.893-5.373c.107-.207.228-.366.362-.462.133-.1.28-.142.44-.133.163.012.348.07.548.178l3.82 2.054c.227.126.374.264.43.428.056.16.044.324-.042.485-.092.17-.226.274-.39.314-.165.044-.363 0-.595-.126M65.245 14.833l-3.768 4.04.912.85c.198.182.36.325.487.42.12.094.26.177.426.25.16.07.326.108.485.108.72.038 1.468-.36 2.25-1.193.545-.59.867-1.11.962-1.567.096-.46.055-.846-.133-1.172-.185-.32-.46-.654-.828-.993zm.42-1.38l1.567 1.46c.408.378.723.743.943 1.09.22.344.353.733.397 1.162.118 1.103-.326 2.195-1.335 3.27-.335.358-.667.657-1.002.893-.34.24-.68.41-1.03.532-.35.118-.71.174-1.09.174-.286-.006-.568-.054-.834-.143-.267-.09-.53-.215-.778-.383-.25-.168-.51-.38-.777-.633l-1.566-1.46c-.218-.2-.354-.386-.398-.552-.05-.172-.036-.335.043-.485.077-.15.206-.32.388-.515l4.057-4.352c.242-.256.475-.395.7-.4.22-.014.457.104.716.343"/><path d="M41.65 46.057c0 6.026-4.937 10.87-10.962 10.87-6.023 0-10.972-4.844-10.972-10.87 0-6.027 4.95-10.87 10.972-10.87 6.025 0 10.963 4.843 10.963 10.87M30.69 41.225c-2.644 0-4.73 2.17-4.73 4.823 0 2.634 2.086 4.84 4.73 4.84 2.638 0 4.723-2.206 4.723-4.84 0-2.652-2.084-4.823-4.722-4.823M56.53 49.154c-1.14 0-2.044.935-2.044 2.075 0 1.15.903 2.093 2.045 2.093 1.135 0 2.033-.944 2.033-2.094 0-1.14-.898-2.076-2.032-2.076m5.755 2.075c0 3.164-2.598 5.7-5.763 5.7-3.156 0-5.76-2.536-5.76-5.7 0-3.17 2.604-5.696 5.76-5.696 3.165 0 5.763 2.527 5.763 5.695" fill="#004289"/><path d="M60.102 33.183h-9.428l.006-1.325v-7.25c0-.73-.597-1.327-1.327-1.327h-5.136c-.72 0-1.317.6-1.317 1.328v8.575h-3.664l-.003-1.325v-8.02c0-.728-.59-1.318-1.32-1.318h-8.822c-.725 0-1.323.59-1.323 1.32v11.737c.93-.25 1.914-.39 2.92-.39 5.523 0 10.14 4.07 10.863 9.386h18.552c.73 0 1.318-.594 1.318-1.32v-8.742c0-.732-.59-1.327-1.318-1.327M30.693 41.248c-.967 0-1.86.29-2.598.785v.885c0 .728.595 1.266 1.32 1.266h5.624c-.713-1.727-2.37-2.936-4.347-2.936" fill="#E73B22"/></svg>