<svg xmlns="http://www.w3.org/2000/svg" width="90" height="90"><path d="M0 90h90V0H0z"/><path d="M4.5 85.5c0-48.454 69.445-30.45 69.445-62.52 0-6.78-3.708-13.55-14.808-18.478H85.5v81z" fill="#FFED00"/><path d="M27.643 85.5c0-48.454 49.603-30.45 49.603-62.52 0-6.78-2.648-13.55-10.577-18.478H85.5v81z" fill="#E30613"/><path d="M7.863 9.416h-1.35v1.43h1.35c.55 0 .732-.377.732-.722 0-.343-.182-.708-.732-.708m-.103-3.12H6.514V7.62H7.76c.55 0 .72-.342.72-.663 0-.322-.17-.665-.72-.665m.297 6.344H4.515V4.5h3.37c1.693 0 2.596.95 2.596 2.356 0 .927-.64 1.44-.89 1.613.33.202 1.006.625 1.006 1.77 0 1.553-1.085 2.4-2.538 2.4m3.92 0V4.502h5.532v1.783h-3.532v1.36h3.018v1.783h-3.018v1.43h3.532v1.782zm6.95 0V4.502h2v6.355h3.417v1.783zm11.486-.846c-.697.72-1.474.914-2.365.914-.95 0-1.67-.32-2.266-.914-.857-.858-.822-2-.822-3.223 0-1.222-.035-2.365.822-3.222.594-.594 1.28-.914 2.264-.914 2.09 0 2.982 1.36 3.175 2.697h-2.01c-.16-.615-.48-.914-1.166-.914-.368 0-.642.16-.79.356-.183.24-.297.515-.297 2 0 1.487.114 1.773.297 2.012.148.194.422.343.79.343.42 0 .707-.125.89-.32.228-.23.31-.56.31-.87v-.113h-1.2v-1.67h3.187v1.13c0 1.316-.205 2.08-.823 2.71m2.21-7.292h2v8.138h-2zm6.606 3.085l-.73 2.172h1.416zm1.59 5.052l-.378-1.213h-2.502l-.402 1.21h-2.09l2.96-8.137h1.543l2.96 8.14zm7.52 0L45.73 8.547v4.093h-2V4.502h1.75l2.604 4.09v-4.09h2v8.138zm-41.82 5.392v1.428H9.53v1.783H6.515v3.143h-2V16.25h5.532v1.782zm7.096 1.303l-.73 2.172h1.416zm1.59 5.05l-.378-1.21h-2.502l-.402 1.21H9.83l2.96-8.136h1.543l2.96 8.135zm8.503.002V20.49L22.55 22.5h-1.28l-1.154-2.01v3.897h-2V16.25h1.967l1.83 3.587 1.826-3.588h1.965v8.136zm3.645-8.137h2v8.137h-2zm3.647 8.137V16.25h2v6.354h3.418v1.783zm9.315-3.315v3.315h-2v-3.315l-2.457-4.823h2.183l1.28 2.924 1.27-2.926h2.182zM7.862 32.91h-1.35v1.43h1.35c.55 0 .733-.376.733-.72s-.182-.71-.732-.71m-.103-3.12H6.514v1.327H7.76c.55 0 .72-.343.72-.663s-.17-.664-.72-.664m.297 6.344H4.515v-8.138h3.37c1.693 0 2.596.95 2.596 2.354 0 .928-.64 1.442-.89 1.613.33.205 1.006.627 1.006 1.77 0 1.556-1.085 2.4-2.538 2.4m7.052-6.343h-1.132v1.647h1.132c.55 0 .868-.4.868-.823 0-.423-.32-.823-.868-.823m.983 6.345l-1.44-3.03h-.675v3.03h-2v-8.137H15.2c1.807 0 2.778 1.28 2.778 2.617 0 1.108-.685 1.805-1.325 2.126l1.76 3.395zm3.337 0v-8.138h5.532v1.783H21.43v1.36h3.018v1.783H21.43v1.43h3.532v1.78zm14.253 0h-1.635l-1.314-4.01-1.314 4.01h-1.623l-2.24-8.138h2.09l1.064 4.297 1.317-4.297h1.418l1.314 4.297 1.06-4.297h2.093zm3.052 0v-8.138h5.532v1.783h-3.532v1.36h3.018v1.783h-3.018v1.43h3.532v1.78zm10.08-6.345h-1.13v1.647h1.13c.55 0 .87-.4.87-.823 0-.423-.32-.823-.87-.823m.984 6.345l-1.44-3.03h-.677v3.03h-2v-8.137h3.222c1.807 0 2.78 1.28 2.78 2.617 0 1.108-.687 1.805-1.327 2.126l1.76 3.395zm5.657.068c-1.246 0-2.264-.23-3.086-1.075l1.28-1.28c.425.423 1.168.572 1.82.572.79 0 1.166-.263 1.166-.732 0-.193-.046-.354-.16-.48-.104-.102-.275-.183-.537-.217l-.985-.136c-.72-.1-1.27-.343-1.634-.72-.377-.388-.56-.937-.56-1.634 0-1.487 1.12-2.573 2.97-2.573 1.168 0 2.05.275 2.746.972l-1.258 1.255c-.514-.514-1.19-.48-1.543-.48-.697 0-.982.4-.982.755 0 .104.033.252.16.38.102.1.273.203.56.238l.98.137c.733.103 1.26.332 1.602.675.435.422.606 1.028.606 1.782 0 1.658-1.43 2.56-3.142 2.56M60.61 78.85h2.848v2.845H60.61zm8.4-3.417c-.966 0-1.076.775-1.076 2.01 0 1.232.11 2.007 1.075 2.007.963 0 1.072-.775 1.072-2.008 0-1.234-.11-2.01-1.074-2.01m2.877 5.583c-.49.49-1.25.775-2.072.775-.886 0-1.438-.27-1.96-.79v.696H65.34v-11.26h2.594v3.37c.473-.476 1.06-.713 1.897-.713.824 0 1.567.285 2.058.775.838.838.79 2.324.79 3.574s.048 2.735-.79 3.573m7.004-5.123c-.16-.364-.506-.664-1.122-.664-.618 0-.965.3-1.123.664-.11.22-.142.46-.142.664h2.53c0-.205-.032-.443-.143-.664m-2.387 2.388c0 .695.538 1.328 1.5 1.328.903 0 1.298-.252 1.757-.71l1.55 1.548c-.87.87-1.725 1.345-3.306 1.345-1.88 0-4.048-.68-4.048-4.35 0-2.78 1.58-4.346 3.812-4.346 2.467 0 3.827 1.802 3.827 4.032v1.155z" fill="#FFF"/></svg>