<svg xmlns="http://www.w3.org/2000/svg" xmlns:xlink="http://www.w3.org/1999/xlink" width="335" height="448" version="1"><defs><linearGradient id="c"><stop offset="0" stop-color="#238132"/><stop offset="1" stop-color="#41a23b"/></linearGradient><linearGradient id="b"><stop offset="0" stop-color="#1a7c31"/><stop offset="1" stop-color="#42a33a"/></linearGradient><linearGradient id="a"><stop offset="0" stop-color="#f4bc1d"/><stop offset="1" stop-color="#ec9d26"/></linearGradient><linearGradient xlink:href="#a" id="d" x1="26.737" y1="327.979" x2="23.172" y2="7.13" gradientUnits="userSpaceOnUse" gradientTransform="matrix(.9979 0 0 1 .593 .594)"/><linearGradient xlink:href="#b" id="e" x1="245.39" y1="449.188" x2="193.698" y2="358.349" gradientUnits="userSpaceOnUse" gradientTransform="translate(-1.891 -1.188)"/><linearGradient xlink:href="#c" id="f" x1="35.632" y1="448.002" x2="35.632" y2="344.477" gradientUnits="userSpaceOnUse"/></defs><path d="M-27.332 317.878l363.63-6.536.742 50.504-256.366 86.107c-5.338.921-9.573-.402-11.93-5.546l-96.076-124.529z" fill="#fff" fill-rule="evenodd"/><path d="M23.39 0h288.813C324.833 0 335 10.189 335 22.845v309.62c-104.933 3.566-160.864 38.145-160.864 38.145C109.923 326.048 0 332.466 0 332.466L.593 22.845C.593 10.189 10.76 0 23.39 0z" fill="url(#d)" fill-rule="evenodd"/><path d="M335 347.853v77.302A22.795 22.795 0 0 1 312.155 448H77.696C102.038 418.837 203.83 345.643 335 347.853z" fill="url(#e)" fill-rule="evenodd"/><path d="M162.535 375.958c-57.634 32.679-84.822 72.038-84.822 72.038L22.845 448A22.795 22.795 0 0 1 0 425.155v-80.273c56.466-1.9 118.648 3.219 162.535 31.076z" fill="url(#f)" fill-rule="evenodd"/><path d="M295.5 177.293a128 128 0 1 1-256 0 128 128 0 1 1 256 0z" fill="#1c9d29" fill-rule="evenodd"/><path d="M283.105 174.942a115.63 115.63-.72 1 1-231.21 4.794 115.63 115.63-.72 1 1 231.21-4.794z" fill="#fff" fill-rule="evenodd"/><path d="M91.644 195.026v-93.214h36.125c9.08 0 15.952 2.335 20.62 7.005 4.667 4.67 7.001 10.674 7.001 18.01 0 3.838-.938 7.528-2.813 11.068-1.876 3.54-5.52 6.525-10.934 8.957v.255c5.115 1.195 8.93 3.892 11.445 8.094 2.515 4.2 3.773 8.669 3.773 13.403 0 8.06-2.569 14.48-7.705 19.257-5.136 4.777-11.2 7.165-18.19 7.165H91.644zm35.87-41.393h-21.74v28.086h21.74c5.242 0 9.089-1.418 11.54-4.254 2.45-2.837 3.676-6.089 3.676-9.757 0-3.668-1.225-6.93-3.676-9.788-2.451-2.858-6.298-4.287-11.54-4.287zm-1.28-39.282h-20.46v26.743h20.46c5.073 0 8.845-1.301 11.317-3.903 2.473-2.602 3.709-5.758 3.709-9.469 0-3.582-1.236-6.706-3.709-9.372-2.472-2.666-6.244-3.999-11.317-3.999zm41.076 80.675v-66.408h13.363v66.408H167.31zm0-79.843v-13.371h13.363v13.37H167.31zm26.132 46.575c0-7.123.555-12.433 1.663-15.93s2.94-6.654 5.498-9.469c1.833-2.004 4.359-3.924 7.577-5.758s7.427-2.75 12.628-2.75c5.115 0 9.292.916 12.532 2.75 3.239 1.834 5.775 3.754 7.608 5.758 2.558 2.815 4.39 5.972 5.499 9.469 1.108 3.497 1.662 8.807 1.662 15.93 0 7.251-.554 12.625-1.662 16.122-1.109 3.498-2.941 6.654-5.499 9.47-1.833 2.046-4.369 3.966-7.608 5.757-3.24 1.791-7.417 2.687-12.532 2.687-5.2 0-9.41-.896-12.628-2.687s-5.744-3.71-7.577-5.758c-2.557-2.815-4.39-5.971-5.498-9.469-1.108-3.497-1.663-8.871-1.663-16.122zm41.368.128c0-4.82-.245-8.21-.735-10.172-.49-1.962-1.332-3.839-2.526-5.63-2.344-3.242-5.925-4.862-10.741-4.862-4.902 0-8.483 1.62-10.742 4.862-1.279 1.791-2.142 3.668-2.59 5.63-.447 1.962-.67 5.31-.67 10.044 0 4.863.223 8.285.67 10.269.448 1.983 1.311 3.849 2.59 5.598 2.26 3.241 5.84 4.862 10.742 4.862 4.816 0 8.397-1.62 10.741-4.862 1.194-1.75 2.036-3.604 2.526-5.566.49-1.962.735-5.353.735-10.173z" font-size="130.985" font-weight="700" fill="#1c9d29" font-family="DIN 1451 Mittelschrift"/><path d="M97.92 211.441l-5.055 15.221h10.127l-5.073-15.22zm-2.103-4.076h4.224l10.495 30.585h-3.873l-2.509-7.846H91.74l-2.509 7.846h-3.928l10.514-30.585zm18.298 0h3.744v18.58c0 3.278.535 5.637 1.605 7.078 1.07 1.44 2.804 2.161 5.201 2.161 2.386 0 4.114-.72 5.184-2.161 1.07-1.44 1.604-3.8 1.604-7.078v-18.58h3.745v19.092c0 3.988-.889 7-2.666 9.034-1.776 2.035-4.399 3.053-7.867 3.053-3.48 0-6.108-1.018-7.885-3.053-1.777-2.034-2.665-5.046-2.665-9.034v-19.092zm44.601 1.004v4.035c-1.414-.75-2.748-1.31-4.003-1.68-1.254-.368-2.465-.553-3.633-.553-2.03 0-3.594.437-4.695 1.311-1.1.874-1.65 2.117-1.65 3.729 0 1.352.365 2.373 1.097 3.062.731.69 2.118 1.247 4.16 1.67l2.25.512c2.779.587 4.83 1.622 6.151 3.104 1.322 1.481 1.983 3.465 1.983 5.95 0 2.964-.895 5.21-2.684 6.74-1.789 1.53-4.411 2.295-7.867 2.295-1.303 0-2.69-.164-4.16-.492a28.624 28.624 0 0 1-4.565-1.454v-4.261c1.513.942 2.995 1.652 4.446 2.13 1.45.478 2.877.717 4.28.717 2.127 0 3.768-.464 4.924-1.393 1.156-.929 1.734-2.253 1.734-3.974 0-1.502-.415-2.677-1.245-3.524-.83-.846-2.192-1.481-4.086-1.905l-2.268-.491c-2.78-.615-4.79-1.578-6.032-2.889-1.242-1.31-1.863-3.134-1.863-5.47 0-2.704.857-4.834 2.573-6.391 1.715-1.557 4.08-2.335 7.092-2.335 1.291 0 2.607.13 3.948.389 1.34.26 2.711.649 4.113 1.168zm3.652-1.004h23.297v3.482h-9.776v27.103h-3.745v-27.103h-9.776v-3.482zm39.972 16.245c.8.3 1.577.942 2.333 1.925.756.984 1.516 2.336 2.278 4.057l3.782 8.358h-4.003l-3.523-7.846c-.91-2.049-1.793-3.408-2.647-4.077-.855-.67-2.02-1.004-3.496-1.004h-4.058v12.927h-3.726v-30.585h8.412c3.148 0 5.496.73 7.046 2.192 1.55 1.461 2.324 3.667 2.324 6.617 0 1.925-.403 3.523-1.208 4.793-.806 1.27-1.977 2.151-3.514 2.643zm-9.334-12.845v10.858h4.686c1.795 0 3.15-.461 4.067-1.383.916-.922 1.374-2.277 1.374-4.066 0-1.79-.458-3.138-1.374-4.046-.916-.909-2.272-1.363-4.067-1.363h-4.686zm22.54-3.4h3.727v30.585h-3.726v-30.585zm20.346 4.076l-5.054 15.221h10.127l-5.073-15.22zm-2.102-4.076h4.224l10.495 30.585h-3.873l-2.51-7.846h-12.413l-2.509 7.846h-3.928l10.514-30.585z" font-size="39.811" font-weight="400" fill="#cb0b18" font-family="Bitstream Vera Sans"/></svg>