<svg xmlns="http://www.w3.org/2000/svg" width="943" height="768" viewBox="-2.27216241 -2.27216241 98.57944282 80.28307182"><path d="M24.382 28.056c0-12.396 10.049-22.443 22.445-22.443 12.395 0 22.444 10.047 22.444 22.444 0 12.395-10.049 22.443-22.444 22.443-12.396 0-22.445-10.048-22.445-22.444" fill="#30a32d"/><path d="M47.154 8.394s-18.902 11.394-6.439 30.804c0 0-7.206-3.631-8.793-14.217-.048-.438-.565-.96-.94.104-3.742 10.692 1.85 24.12 17.11 23.473 15.388-.654 18.88-18.325 10.955-29.239-.287-.447-.7-.563-.463.298 1.539 5.578-1.024 12.123-1.939 13.605C61.25 18.109 48.17 8.518 47.154 8.394" fill="#fff"/><path d="M86.749 75.427V61.672h7.209v1.033h-6.04v5.085h5.63v1.032h-5.63v5.573h6.117v1.032H86.75zm-7.14.235c-1.773 0-3.331-.74-4.014-2.455-.233-.585-.291-1.19-.33-1.813h1.169c.057 1.93 1.246 3.215 3.234 3.215 1.597 0 3.078-.994 3.078-2.709 0-.895-.41-1.518-1.091-2.045-.896-.7-2.183-1.15-3.215-1.656-.468-.214-.935-.429-1.364-.741-.876-.623-1.363-1.519-1.363-2.61 0-2.221 1.948-3.41 3.973-3.41 1.735 0 3.254.839 3.741 2.572.098.352.118.702.137 1.053h-1.15c-.039-.41-.117-.839-.312-1.209-.487-.954-1.48-1.364-2.512-1.364-1.345 0-2.67.838-2.67 2.3 0 3.078 7.054 2.435 7.054 7.033 0 2.494-2.047 3.839-4.365 3.839m-10.776 0c-1.772 0-3.331-.74-4.014-2.455-.233-.585-.292-1.19-.33-1.813h1.168c.059 1.93 1.247 3.215 3.235 3.215 1.597 0 3.079-.994 3.079-2.709 0-.895-.41-1.518-1.092-2.045-.897-.7-2.182-1.15-3.215-1.656-.467-.214-.935-.429-1.363-.741-.878-.623-1.364-1.519-1.364-2.61 0-2.221 1.949-3.41 3.974-3.41 1.735 0 3.253.839 3.74 2.572.098.352.117.702.137 1.053h-1.15c-.039-.41-.116-.839-.311-1.209-.488-.954-1.481-1.364-2.513-1.364-1.345 0-2.67.838-2.67 2.3 0 3.078 7.053 2.435 7.053 7.033 0 2.494-2.045 3.839-4.364 3.839m-8.671-13.99h1.207v13.755h-1.207V61.672zM56.498 72.31c-.39 2.358-2.377 3.351-4.598 3.351-1.89 0-3.839-.76-4.462-2.708-.195-.584-.214-1.208-.214-1.832v-9.448h1.169c0 3.077-.02 6.136-.02 9.216 0 .779.078 1.577.467 2.279.624 1.09 1.871 1.44 3.06 1.44.681 0 1.461-.174 2.065-.485 1.618-.84 1.423-2.592 1.423-4.132v-8.318h1.188v9.41c0 .41-.02.818-.078 1.227m-16.232 3.352c-1.772 0-3.331-.74-4.014-2.455-.233-.585-.292-1.19-.33-1.813h1.168c.059 1.93 1.247 3.215 3.235 3.215 1.597 0 3.079-.994 3.079-2.709 0-.895-.41-1.518-1.092-2.045-.896-.7-2.182-1.15-3.215-1.656-.467-.214-.936-.429-1.363-.741-.878-.623-1.364-1.519-1.364-2.61 0-2.221 1.947-3.41 3.974-3.41 1.733 0 3.253.839 3.74 2.572.098.352.118.702.137 1.053h-1.149c-.04-.41-.117-.839-.312-1.209-.488-.954-1.481-1.364-2.513-1.364-1.345 0-2.67.838-2.67 2.3 0 3.078 7.054 2.435 7.054 7.033 0 2.494-2.046 3.839-4.365 3.839M27.274 64.18c-2.417 0-3.158 2.359-3.158 4.366 0 2.066.721 4.366 3.196 4.366 2.398 0 3.158-2.28 3.158-4.307 0-2.086-.683-4.425-3.196-4.425m.018 11.559c-4.287 0-6.957-2.983-6.957-7.193 0-4.249 2.65-7.192 6.977-7.192 4.288 0 6.96 3.002 6.96 7.192 0 4.21-2.69 7.193-6.98 7.193M14.411 61.667h3.646v13.76H14.41v-13.76zm-8.3 7.912H3.567v3.158h2.68c1.132 0 2.184-.194 2.184-1.56 0-1.462-1.15-1.598-2.32-1.598m-.176-5.242H3.567v2.688h2.117c1.012 0 2.085-.097 2.085-1.383 0-1.13-.898-1.305-1.834-1.305m4.269 10.33c-1.285.72-3.099.76-4.542.76H0v-13.76h5.644c1.735 0 3.898.038 5.066 1.558.449.565.645 1.307.645 2.027 0 1.385-.741 2.32-2.048 2.767 1.697.371 2.847 1.541 2.847 3.334a3.765 3.765 0 0 1-1.95 3.314" fill="#30a32d"/><path d="M81.137 15.089c-.05-1.94-.06-3-.322-5.388-.783.859-1.635 1.789-2.663 2.69-.198-1.687-.53-3.255-.72-4.302-1.36 1.412-1.945 2.02-3.086 3.12.169 1.058.373 2.242.468 3.737A49.217 49.217 0 0 1 71.5 17.21c.154 1.83.213 2.81.325 4.456.26-.149 1.681-1.096 3.275-2.125.023 1.672.07 3.237.006 4.605.335-.195 2.23-1.183 3.509-2.48.184-1.388.079-2.93.015-4.61 1.359-.945 2.262-1.593 2.506-1.966" fill="#fff"/><path d="M81.139 14.924c-.373.421-1.414 1.206-2.669 2.085.093 1.602.1 3.165-.044 4.49-1.172 1.262-2.803 2.12-3.113 2.311a71.144 71.144 0 0 0-.064-4.625 135.651 135.651 0 0 1-3.226 2.068c-.102-1.572-.135-2.135-.282-3.882a52.45 52.45 0 0 0 3.244-2.261c-.13-1.461-.291-2.795-.476-3.821 1.049-1.071 1.595-1.581 2.844-2.956a70.62 70.62 0 0 1 .697 4.303c1.054-.92 2.021-1.842 2.794-2.702-.615-5.57-1.97-9.424-1.973-9.435L78.695 0l-.259.459s-.082.147-.245.416c-1.072 1.792-5.6 8.955-11.683 13.439a23.881 23.881 0 0 1 4.331 13.744c0 1.61-.161 3.185-.465 4.707.851-.443 1.744-.915 2.681-1.42 1.863-1.084 3.345-1.84 4.55-2.986 1.206-1.144 2.103-2.669 2.778-5.217l.002-.005v-.01c.547-2.72.754-5.4.754-7.91v-.293M25.277 38.657c-8.363 4.568-6.28 9.895-.061 12.862 7.335 3.5 21.992 5.222 29.05 2.47-12.995.7-24.612-3.862-28.99-15.332" fill="#e2001a"/></svg>