<svg xmlns="http://www.w3.org/2000/svg" width="538.583" height="538.583"><defs><clipPath id="a"><path d="M31.181 14.173h51.024v51.024H31.181V14.173z"/></clipPath></defs><g clip-path="url(#a)" transform="matrix(10.4168 0 0 -10.41665 -321.265 682.675)"><path d="M32.64 65.197h48.105a1.46 1.46 0 0 0 1.46-1.458V15.632a1.46 1.46 0 0 0-1.46-1.46H32.64a1.46 1.46 0 0 0-1.458 1.46v48.107c0 .805.653 1.458 1.458 1.458" fill="#fff"/><path d="M33.125 63.982H80.26c.404 0 .73-.326.73-.729V16.117a.73.73 0 0 0-.73-.729H33.125a.73.73 0 0 0-.729.73v47.135c0 .403.326.73.73.73" fill="#008143"/><path d="M56.794 29.663c.018-1.257.002-9.259.002-9.259.11-.332.453-.774.145-1.055-.076-.07-.126-.122-.23-.134-.806-.097-1.378-.115-2.297.015-.175.025-.32.198-.367.34-.098.571.31.621.327.998 0 0 .01 4.317.01 7.16 0 .494-.76.696-.405 1.25.348.54 1.028.744 1.552.923.274.092 1.256.207 1.263-.238m12.868-3.773c.742-.847.645-1.865.734-2.866.044-.832.019-1.416.113-2.506.058-.363.652-.737.264-1.162-.23-.253-.768-.177-1.165-.177-.632 0-1.69-.169-1.777.355-.08.473.483.637.42 1.08-.063 1.302.136 2.666-.252 3.883-.125.325-.4.367-.604.375-.155.005-.349-.154-.354-.283-.04-.949-.006-4.14-.006-4.14.118-.333.6-.579.34-.989-.163-.255-.459-.238-.72-.285l-1.855.015a.595.595 0 0 0-.395.31c-.18.708.374.576.384 1.338a73.603 73.603 0 0 1-.02 3.671c-.01.358-.61.408-.578.716.008.215.183.412.38.491.603.241 1.169.576 1.785.773.242.08.442-.087.545-.284.01-.022.03-.032.039-.056.162-.483.917.45 1.46.364.599-.092.845-.149 1.262-.623" fill="#fff"/><path d="M60.951 22.99c.034-.623-.023-1.258-.032-1.897 0-.166-.222-.37-.398-.416-.169-.04-.367-.04-.486.094-.306.348-.293.782-.152 1.232.156.404.666.829 1.068.988m1.728 2.955c.293-.362.432-.832.398-1.336l.05-3.772a.4.4 0 0 1 .287-.256c.15-.023.268.07.391.039.313-.08-.109-.684-.304-.968-.302-.437-.842-.596-1.298-.532-.396.055-.668.306-.972.552-.357.286-.84-.43-1.309-.514-.729-.134-1.449.064-1.889.586a2.38 2.38 0 0 0-.109 2.672c.615 1.016 1.654 1.065 2.65 1.622.37.204.38.569.377.914 0 .144-.089.363-.229.427-.149.067-.382.07-.49-.05-.163-.178-.01-.41-.053-.63-.067-.345-.385-.57-.708-.696-.326-.127-.84-.161-1.119.092-.353.318-.384.83-.25 1.28.218.74.981 1.097 1.66 1.248 1.075.189 2.217.182 2.917-.678m-9.8-.854c.84-1.441.782-3.5-.19-4.89-.514-.735-1.303-1.207-2.18-1.177-.908.034-1.737.735-2.18 1.534-.777 1.4-.766 3.458.174 4.794.58.824 1.477 1.398 2.52 1.2.808-.152 1.437-.743 1.856-1.461m-1.872-1.368c.44-.745.793-1.86.793-2.412 0-.238-.02-.514-.395-.554-.393-.04-.83.455-1.027.81-.33.594-1.087 1.934-.823 2.992.088.348.433.333.575.246.399-.243.648-.695.877-1.082m-10.915 4.162c.174-.444.158-1.07-.04-1.48a.67.67 0 0 0-.799-.345c-.178.059-.2.148-.208.266l-.006 2.126c0 .104.017.17.222.17.427 0 .65-.272.831-.737m.357-4.2c.396-.824.535-2.161-.199-2.888-.224-.221-.662-.258-.972-.184-.238.057-.188.17-.205.7-.04 1.258.034 3.058.034 3.058.035.152.035.204.22.223.544.052.916-.482 1.122-.91m1.461 5.443c.64-.656 1.035-1.58.774-2.48-.134-.45-.45-.861-.853-1.161 1.221-.777 1.998-2.203 1.785-3.562-.166-1.154-.99-2.157-2.26-2.568-.37-.121-.987-.166-.987-.166h-3.83c-.206.04-.427.135-.53.348-.183.383.388.596.39 1.02.01 1.868.013 4.888.013 4.888s-.023 1.887-.013 3.308c.003.415-.619.57-.405.98a.766.766 0 0 0 .584.396c1.798.24 3.965.442 5.332-1.003" fill="#fff" fill-rule="evenodd"/><path d="M44.523 27.547c-.307.472-.042 1.19.593 1.602.635.414 1.399.363 1.706-.11.307-.474.042-1.19-.593-1.604-.634-.412-1.397-.362-1.705.112m2.422-1.705l.011-5.516c.095-.347.543-.594.206-1.082-.15-.216-.405-.142-.674-.164-.691-.06-1.007-.04-1.837.02a.435.435 0 0 0-.388.318c-.107.337.237.56.3.869v4.02c-.008.395-.609.586-.395 1.043.333.713 1.421.917 1.888.969.259.029.827-.052.889-.477" fill="#fff"/><path d="M74.674 24.809c.355-1.175.316-2.484.129-3.675-.042-.257-.121-.432-.327-.51-.231-.09-.406.016-.544.392-.16.433-.18.788-.212 1.35-.027.43-.074 1.808.36 2.53.145.239.474.315.594-.087M77.1 29.87c.259-.29.119-.83.135-1.257l.056-7.716c.125-.27.497-.467.378-.813-.067-.194-.276-.325-.45-.395-.571-.233-1.105-.53-1.73-.625-.23-.015-.403.23-.53.395-.06.079-.178-.083-.178-.083s-.08-.091-.286-.208c-.643-.367-1.281-.278-1.85.102-1.386.924-1.366 2.662-1.113 4.13.22 1.162.79 2.607 2.1 3.034.404.132.814.072 1.178-.166.057-.037.093.03.108.078 0 0 .06 1.047.002 1.66-.037.386-.584.528-.355.932 0 0 .14.172.26.244.577.354 1.033.57 1.8.814.197.062.34.023.475-.126" fill="#fff" fill-rule="evenodd"/></g></svg>