<?xml version="1.0" encoding="UTF-8" standalone="no"?>
<svg
   version="1.1"
   id="Ebene_1"
   x="0"
   y="0"
   viewBox="0 0 68 68"
   xml:space="preserve"
   sodipodi:docname="logo_en.svg"
   width="68"
   height="68"
   inkscape:version="1.3.2 (091e20e, 2023-11-25)"
   xmlns:inkscape="http://www.inkscape.org/namespaces/inkscape"
   xmlns:sodipodi="http://sodipodi.sourceforge.net/DTD/sodipodi-0.dtd"
   xmlns:xlink="http://www.w3.org/1999/xlink"
   xmlns="http://www.w3.org/2000/svg"
   xmlns:svg="http://www.w3.org/2000/svg"><sodipodi:namedview
     id="namedview7"
     pagecolor="#ffffff"
     bordercolor="#000000"
     borderopacity="0.25"
     inkscape:showpageshadow="2"
     inkscape:pageopacity="0.0"
     inkscape:pagecheckerboard="0"
     inkscape:deskcolor="#d1d1d1"
     inkscape:zoom="11.279412"
     inkscape:cx="33.955671"
     inkscape:cy="34"
     inkscape:window-width="1680"
     inkscape:window-height="980"
     inkscape:window-x="0"
     inkscape:window-y="23"
     inkscape:window-maximized="0"
     inkscape:current-layer="Ebene_1" /><style
     id="style1">.st1{fill:#005ca9}.st2{fill:#1a5ba5}</style><defs
     id="defs1"><path
       id="SVGID_1_"
       fill="#ffffff"
       d="M 0,0 H 67 V 67 H 0 Z" /></defs><clipPath
     id="SVGID_2_"
     fill="#ffffff"><use
       xlink:href="#SVGID_1_"
       overflow="visible"
       id="use1" /></clipPath><g
     id="g7"
     transform="translate(0.5,0.5)"><path
       fill="#ffffff"
       d="M 33.5,0 C 15,0 0,15 0,33.5 0,52 15,67 33.5,67 52,67 67,52 67,33.5 67,15 52,0 33.5,0 Z"
       clip-path="url(#SVGID_2_)"
       id="path1" /><path
       class="st1"
       fill="#005CA9"
       d="m 17.1,14.8 c 0.4,-0.4 0.3,-0.7 0.1,-1.1 -0.4,-0.4 -0.8,-0.4 -1.1,-0.2 l -0.3,0.3 1,1.2 z m -2.5,-2.9 -0.3,0.2 0.8,1 0.3,-0.2 c 0.4,-0.3 0.3,-0.6 0.1,-1 -0.2,-0.2 -0.5,-0.4 -0.9,0 z M 35.8,5.1 h -0.1 l -0.6,2.5 1,0.1 z m 9,51.5 c -0.5,0.2 -0.3,0.7 0.2,1.7 0.5,1.1 0.8,1.4 1.3,1.2 0.5,-0.2 0.4,-0.7 -0.2,-1.7 -0.5,-1 -0.8,-1.4 -1.3,-1.2 z"
       id="path2" /><path
       class="st2"
       fill="#1A5BA5"
       d="m 54.8,47.1 0.4,-0.8 3.2,1.9 0.8,-1.4 0.6,0.4 -1.2,2.1 z m 1.9,4.9 -3.6,-2.6 1.5,-2 0.6,0.4 -0.9,1.3 0.8,0.6 0.9,-1.2 0.6,0.4 -0.9,1.2 1,0.7 1,-1.3 0.6,0.4 z m -1.5,1.7 -1,1.1 -3.2,-3 1,-1.1 c 0.5,-0.5 1.1,-0.7 1.7,-0.1 0.3,0.3 0.5,0.7 0.2,1.1 0.4,-0.3 0.9,-0.3 1.3,0.1 0.5,0.5 0.7,1.2 0,1.9 z m -2.2,2.2 -0.8,-0.6 -0.9,0.7 0.4,0.9 -0.7,0.6 -1.9,-4.2 0.9,-0.7 3.7,2.7 z m -4.4,3.1 -2.4,-3.7 0.8,-0.5 2,3.1 1.3,-0.9 0.4,0.6 z m -2,1.2 c -1.2,0.6 -1.8,-0.2 -2.4,-1.4 -0.6,-1.2 -0.9,-2.1 0.3,-2.7 1.2,-0.6 1.8,0.2 2.4,1.4 0.6,1.2 0.9,2.1 -0.3,2.7 z m -3.4,1.4 C 41.9,62 41.5,61.2 41,59.9 c -0.4,-1.3 -0.6,-2.2 0.7,-2.7 1.2,-0.4 1.6,0.4 1.8,1 l -0.8,0.3 c -0.2,-0.6 -0.4,-0.8 -0.8,-0.7 -0.4,0.1 -0.4,0.6 0,1.8 0.4,1.3 0.7,1.4 1.1,1.3 0.3,-0.1 0.5,-0.3 0.2,-1.2 L 44,59.4 c 0.3,1 0.3,1.8 -0.8,2.2 z m -4.6,1.1 -0.9,-4.3 2.4,-0.5 0.2,0.7 -1.5,0.3 0.2,1 1.5,-0.3 0.2,0.7 -1.5,0.3 0.3,1.2 1.6,-0.4 0.2,0.7 z M 35,63.1 33.8,60 33.9,63.1 H 33.1 L 33,58.8 h 1 l 1.2,3 -0.1,-3 h 0.8 l 0.2,4.4 z m -3.5,0 -0.1,-1 -1.2,-0.1 -0.2,1 -1,-0.1 1.6,-4.3 1.1,0.1 0.8,4.5 z m -4,-0.5 0.8,-3.4 -1.6,3.2 -0.7,-0.2 0.1,-3.6 -0.8,3.4 -0.8,-0.2 1,-4.3 1.3,0.3 -0.1,3.2 1.4,-2.9 1.3,0.3 -1,4.3 z m -3.7,-1.9 c -0.2,0.4 -0.2,0.7 -0.1,0.8 l -0.9,-0.4 c 0,-0.1 0,-0.3 0.1,-0.5 l 0.3,-0.8 c 0.1,-0.3 0.1,-0.6 -0.3,-0.7 l -0.5,-0.1 -0.7,1.7 -0.8,-0.3 1.7,-4.1 1.5,0.6 c 0.7,0.3 0.9,0.8 0.7,1.5 -0.2,0.5 -0.6,0.8 -1.1,0.7 0.5,0.4 0.4,0.7 0.1,1.6 z M 20.2,60.1 18,58.9 20.1,55 l 2.2,1.2 -0.4,0.6 -1.4,-0.8 -0.5,1 1.3,0.7 -0.3,0.6 -1.3,-0.7 -0.6,1 1.4,0.8 z M 16.7,58 16.9,57.7 c -0.4,0.2 -0.7,0.1 -1,-0.1 -0.9,-0.6 -0.6,-1.4 0.3,-2.7 0.9,-1.2 1.6,-1.6 2.5,-1 0.8,0.6 0.8,1.2 0.3,1.9 l -0.7,-0.5 c 0.2,-0.3 0.3,-0.7 0,-0.9 -0.4,-0.3 -0.8,0 -1.4,0.9 -0.6,0.9 -0.9,1.5 -0.5,1.8 0.2,0.1 0.6,0.1 0.9,-0.3 l 0.3,-0.4 -0.6,-0.3 0.4,-0.5 1.2,0.8 -1.4,1.9 z m -2.4,-4.3 -1,-1.1 -0.9,0.8 1.1,1.2 -0.5,0.5 -1.8,-1.8 3.2,-3.1 1.7,1.8 -0.5,0.5 -1.1,-1.1 -0.7,0.7 1,1.1 z m -4.2,-1.8 1.6,-1.2 -0.6,-0.8 -1.6,1.2 -0.5,-0.8 3.5,-2.7 0.5,0.7 -1.3,1 0.6,0.8 1.3,-1 0.5,0.7 -3.5,2.7 z m -2.5,-3.7 3.2,-1.9 -0.5,-0.8 0.6,-0.4 1.4,2.4 -0.6,0.4 L 11.2,47.1 8,49 Z m 8.6,-7 c 0,-1.6 0.3,-3.2 0.8,-4.8 1.9,3.6 2.3,8.1 1.9,8.4 l -0.1,0.1 c -0.2,0.1 -7.4,-0.7 -7.3,-8.3 2.2,1.9 3.5,3.4 4.7,4.6 z M 11.6,29.9 c 1.4,1.5 1.9,2.9 2.7,4.5 0.7,-1.1 1.7,-2.1 2.8,-3.1 -0.3,4.3 -1.3,7.7 -1.9,7.8 -0.6,0 -4.2,-2.9 -3.6,-9.2 z m 2.6,-19.1 c 0.8,-0.6 1.6,-0.7 2.2,0 0.4,0.5 0.5,1.2 0.1,1.6 0.4,-0.2 1,-0.5 1.8,0.4 0.4,0.5 0.8,1.4 -0.4,2.5 l -1.6,1.3 -3.8,-4.5 z m 4,-2.7 2.4,4.1 1.7,-1 0.6,1 -2.9,1.7 -3,-5.1 z m 4.1,-2.1 1.5,4 c 0.2,0.4 0.4,0.6 0.8,0.5 0.3,-0.1 0.4,-0.4 0.3,-0.9 l -1.5,-4 1.3,-0.5 1.3,3.7 c 0.4,1.1 0.4,2 -1.1,2.6 -1.5,0.6 -2.1,-0.2 -2.5,-1.2 L 21,6.5 Z m 7.3,-1.9 0.2,1.1 -2,0.4 0.2,1.2 1.9,-0.3 0.2,1.1 -1.9,0.3 0.2,1.3 2.1,-0.4 0.2,1.1 -3.4,0.6 -1.1,-5.8 z m -1.3,13.1 c 1,0.3 1.9,0.8 2.7,1.3 -4.1,0.4 -5.7,-0.4 -5.8,-0.8 0,-0.4 2.5,-2.5 6.1,-1.9 -1,0.7 -1.8,0.9 -3,1.4 z M 35,4 36.7,4.1 37.7,10 36.3,9.9 36.2,8.8 34.8,8.7 34.5,9.8 33.1,9.7 Z m 4.6,0.5 1.5,0.4 0.1,4 1,-3.7 1.2,0.3 -1.6,5.6 -1.5,-0.4 -0.1,-4.2 -1.1,3.9 -1.2,-0.3 z M 47,7 c 1.6,0.8 1.1,1.9 0.8,2.5 L 46.6,8.9 C 46.8,8.6 47,8 46.6,7.8 46.1,7.6 45.8,8 45.1,9.4 c -0.7,1.4 -0.9,1.9 -0.4,2.2 0.4,0.2 0.8,-0.1 1.1,-0.8 l 0.1,-0.2 -0.6,-0.3 0.4,-0.8 1.7,0.9 -1.4,2.8 -0.8,-0.4 0.2,-0.5 c -0.4,0.4 -1,0.3 -1.4,0 C 42.7,11.7 42.9,10.6 43.8,8.9 44.6,7.2 45.2,6.1 47,7 Z m 5.8,3.8 -0.7,0.9 -1.6,-1.2 -0.7,0.9 1.5,1.1 -0.7,0.9 -1.5,-1.1 -0.8,1.1 1.7,1.2 -0.7,0.9 -2.8,-2.1 3.5,-4.6 z m 2.1,2 -3.4,3.3 1.4,1.4 -0.8,0.8 L 49.8,16 54,11.9 Z m -7.3,32.3 c -0.5,-0.4 0.2,-4.6 2.3,-8.1 0.5,1.6 0.6,3 0.5,4.6 1.2,-1.1 2.9,-3.5 4.7,-4.5 -1,6.9 -7.3,8.1 -7.5,8 z m -4.9,3.6 c -0.1,-0.3 1.2,-4.8 4.3,-6.1 -0.1,1.8 -0.1,3.1 -0.6,4 1.5,-0.5 4.4,-2.1 6.3,-2.3 -4.3,7 -9.9,4.6 -10,4.4 z M 30,44.7 C 25.5,43.2 22.2,39 22.2,34 c 0,-1.3 0.2,-2.5 0.6,-3.7 2.3,0.1 6.7,-0.7 8.4,1.6 2.9,4 0.2,10.7 -1.2,12.8 z M 44.7,34.1 c 0,5 -3.3,9.2 -7.8,10.7 -1.4,-2.2 -4.1,-8.9 -1.3,-12.7 1.7,-2.3 6.1,-1.5 8.4,-1.6 0.5,1.1 0.7,2.3 0.7,3.6 z M 42.8,17.2 c 1.8,-0.5 3.1,0.3 3.5,1.8 -1.5,-0.2 -2.9,-0.7 -3.5,-1.8 z m 10.7,7.4 c 1.8,4 -0.4,7.7 -0.8,7.9 -0.5,0 -1.9,-1.8 -2.9,-6.4 1,0.8 2,1.5 2.6,2.6 0.3,-1.6 0.5,-2.7 1.1,-4.1 z m -3.2,-4.4 c 2.9,2.6 2.2,6.2 1.9,6.5 -0.4,0.2 -2.4,-0.6 -4.5,-4.4 1.1,0.3 2.2,0.7 3.1,1.3 -0.3,-1.3 -0.6,-2.1 -0.5,-3.4 z m -3.6,-2.7 c 2.8,1.2 3.1,4 2.9,4.3 -0.3,0.2 -2,0.1 -4.5,-2.1 0.9,0 1.9,0 2.7,0.3 -0.4,-1 -0.8,-1.5 -1.1,-2.5 z m -2.9,12 c -2,-0.2 -7.1,-0.6 -10,-0.6 1,-0.1 1.7,-0.9 1.7,-1.9 0,-1.1 -0.9,-1.9 -1.9,-1.9 -1.1,0 -1.9,0.9 -1.9,1.9 0,1 0.8,1.8 1.7,1.9 -2.9,0 -8.1,0.4 -10.1,0.6 1.7,-3.9 5.7,-6.7 10.3,-6.7 4.6,0 8.4,2.8 10.2,6.7 z m -4.7,-9.6 c -1.2,0.3 -2.7,-0.7 -4,-1.9 1.4,-0.5 2.9,0 4,1.9 z m -5.8,-2.4 c 0.8,0.5 1.5,1.1 2.1,1.8 -3.7,-0.6 -4.9,-1.8 -4.9,-2.1 0.1,-0.3 2.9,-1.6 5.8,-0.2 -1.1,0.3 -1.8,0.3 -3,0.5 z m -6.7,1.4 c -4.1,2.3 -6.4,2 -6.7,1.6 -0.2,-0.4 1.4,-3.8 5.6,-4.7 -0.7,1.2 -1.6,1.5 -2.6,2.7 1.2,-0.1 2.5,0.1 3.7,0.4 z M 19,25.8 c -2,5.1 -4.1,6.9 -4.6,6.8 -0.5,-0.3 -2.4,-5 0.6,-9.3 0.4,1.7 0.4,3.1 0.5,5 0.9,-1.2 2.2,-1.8 3.5,-2.5 z m -2.8,0.6 c -0.4,-0.4 -1.5,-5.2 3.4,-7.8 -0.5,1.8 -0.7,2.7 -1.3,4 1.3,-0.7 2.5,-1 4,-1.3 -3.4,4.3 -5.6,5.3 -6.1,5.1 z m 3.5,16 c 3.2,1.4 4.4,5.9 4.3,6.1 -0.1,0.2 -5.7,2.6 -10,-4.4 1.9,0.2 4.8,1.8 6.3,2.3 -0.5,-0.8 -0.5,-2.1 -0.6,-4 z m 14.5,7.1 c 1.2,0.4 4,2.2 5.4,3.5 0.6,0.6 -0.9,0.6 -1.2,0.3 -3,-2.7 -3.9,-3.4 -4.9,-3.4 -1,0 -1.9,0.7 -4.9,3.4 -0.3,0.3 -1.8,0.2 -1.2,-0.3 1.4,-1.3 4.2,-3.1 5.4,-3.5 0.1,0 -2.7,-1.1 -5.8,1.1 -1.5,1.1 -3.2,2.4 -5.6,1.2 -1.8,-0.9 -2.5,-2.2 -2.5,-2.2 1.8,0.5 4,0.7 7.1,-0.8 3.4,-1.6 6.5,-0.1 7.5,0.2 1,-0.3 4.1,-1.8 7.5,-0.2 3.1,1.4 5.3,1.3 7.1,0.8 0,0 -0.7,1.3 -2.5,2.2 C 43.2,53 41.5,51.7 40,50.6 36.8,48.4 34,49.4 34.2,49.5 Z m 17.1,-10 c -0.6,-0.1 -1.3,-4.5 -1.1,-9 1,1.2 1.7,2.6 2.2,4 0.9,-1.6 1.9,-3.2 3.1,-4.7 0.4,5.1 -3.6,9.8 -4.2,9.7 z M 33.5,1.1 C 15.6,1.1 1.1,15.6 1.1,33.5 1.1,51.4 15.6,65.9 33.5,65.9 51.4,65.9 65.9,51.4 65.9,33.5 65.9,15.6 51.4,1.1 33.5,1.1 Z"
       id="path3" /><path
       class="st1"
       fill="#005CA9"
       d="m 53.6,52.5 -0.3,0.3 1,0.9 0.2,-0.3 c 0.3,-0.3 0.4,-0.6 0,-1 -0.3,-0.3 -0.6,-0.2 -0.9,0.1 z m -22.5,6.9 -0.6,1.9 0.8,0.1 z m -7.2,-1.2 c 0.2,-0.4 0,-0.6 -0.3,-0.8 l -0.4,-0.2 -0.5,1.2 0.3,0.1 c 0.4,0.3 0.7,0.2 0.9,-0.3 z M 51.6,54.8 50.1,53.5 H 50 l 1,1.8 z m 0.7,-3.5 -0.3,0.3 0.8,0.8 0.2,-0.2 c 0.3,-0.4 0.4,-0.6 0.1,-0.9 -0.3,-0.3 -0.5,-0.3 -0.8,0 z"
       id="path4" /></g></svg>
