<?xml version="1.0" encoding="UTF-8"?>
<svg width="380px" height="380px" viewBox="0 0 380 380" version="1.1" xmlns="http://www.w3.org/2000/svg" xmlns:xlink="http://www.w3.org/1999/xlink">
    <title>Canada Organic</title>
    <desc>Canada Organic</desc>
    <defs>
        <polygon id="path-1" points="0.104109589 0.191 379.819543 0.191 379.819543 380.263636 0.104109589 380.263636"></polygon>
    </defs>
    <g id="vegetarian-copy-3" stroke="none" stroke-width="1" fill="none" fill-rule="evenodd">
        <g id="canadaorganictradeassociation">
            <g id="Group-4">
                <mask id="mask-2" fill="white">
                    <use xlink:href="#path-1"></use>
                </mask>
                <g id="Clip-2"></g>
                <path d="M189.847306,379.987555 C294.539909,379.987555 379.410046,295.048118 379.410046,190.2933 C379.410046,85.5280636 294.539909,0.595572727 189.847306,0.595572727 C85.1547032,0.595572727 0.28803653,85.5280636 0.28803653,190.2933 C0.28803653,295.048118 85.1547032,379.987555 189.847306,379.987555" id="Fill-1" fill="#FFFFFE" mask="url(#mask-2)"></path>
                <path d="M0,190.225582 C0,295.009918 85.1980822,380.263636 189.909772,380.263636 C294.624932,380.263636 379.819543,295.009918 379.819543,190.225582 C379.819543,85.4395091 294.624932,0.191 189.909772,0.191 C85.1980822,0.191 0,85.4395091 0,190.225582 M6.53808219,190.225582 C6.53808219,89.0337818 88.800274,6.73014545 189.909772,6.73014545 C291.024475,6.73014545 373.284932,89.0337818 373.284932,190.225582 C373.284932,291.410436 291.024475,373.7297 189.909772,373.7297 C88.800274,373.7297 6.53808219,291.410436 6.53808219,190.225582" id="Fill-3" fill="#61B347" mask="url(#mask-2)"></path>
            </g>
            <path d="M57,190.5 C57,263.553716 116.447242,323 189.501738,323 C262.557971,323 322,263.553716 322,190.5 C322,117.434121 262.557971,58 189.501738,58 C116.447242,58 57,117.434121 57,190.5 M63.5438534,190.5 C63.5438534,121.046667 120.04584,64.5422016 189.501738,64.5422016 C258.948947,64.5422016 315.454409,121.046667 315.454409,190.5 C315.454409,259.946382 258.948947,316.452585 189.501738,316.452585 C120.04584,316.452585 63.5438534,259.946382 63.5438534,190.5" id="Fill-5" fill="#61B347"></path>
            <path d="M104.200909,170.891033 C101.587357,172.824121 96,175.227842 96,175.227842 L109.60814,186.223257 C119.464819,186.047205 129.889586,186.840311 140.007794,189 C164.258931,177.980182 193.363066,170.38728 229.795194,186.32087 C230.907123,186.803706 231.979216,187.276084 233.044382,187.750204 C244.445984,185.977481 255.87703,185.438866 266.856029,185.853722 L280,175.227842 C280,175.227842 274.421303,172.824121 271.799091,170.891033 C269.182074,168.968405 270.749513,164.138301 270.749513,164.138301 L278.778956,140.678046 C278.778956,140.678046 262.025547,143.412955 256.61312,144.213034 C251.195497,145.016599 250.67244,141.811055 250.67244,141.811055 L245.433211,130.071341 L222.041134,153.698932 C219.24226,155.940546 214.53648,154.500754 215.57913,149.996608 L227.631955,101.474199 L210.873349,110.468546 C206.330375,113.046577 204.064949,108.221702 204.064949,108.221702 L188.002598,78 L171.941979,108.221702 C171.941979,108.221702 169.666162,113.046577 165.133579,110.468546 L148.371509,101.474199 L160.417406,149.996608 C161.470448,154.500754 156.745616,155.940546 153.957134,153.698932 L130.568521,130.071341 L125.332756,141.811055 C125.332756,141.811055 124.807967,145.016599 119.38688,144.213034 C113.979649,143.412955 97.2227755,140.678046 97.2227755,140.678046 L105.250487,164.138301 C105.250487,164.138301 106.823122,168.968405 104.200909,170.891033" id="Fill-6" fill="#D1233A"></path>
            <path d="M223,189.860487 C193.734639,178.441691 169.942517,182.893233 149,191.476862 C160.232821,194.867603 170.737716,200.19244 179.184755,208 C192.644476,199.08129 207.648019,193.256437 223,189.860487" id="Fill-7" fill="#61B347"></path>
            <path d="M297.703845,190.712454 C265.11292,185.946278 215.545895,189.074462 184.304122,212.863612 C184.317977,212.889694 184.349151,212.91056 184.364738,212.943599 C183.831313,213.300062 183.323866,213.654786 182.807759,214.021683 C175.876689,219.549474 169.892968,226.134483 165.308625,233.955812 C161.065466,233.705418 156.735712,233.854959 152.272601,234.187078 C158.926567,225.237239 166.586768,217.782807 174.943194,211.613381 C153.971597,192.555631 119.496363,186.370556 94.1153446,188.352841 C88.7325944,189.142277 83.3792865,190.109075 78,191.044574 C78,253.427407 128.372359,304 190.50433,304 C252.632837,304 303,253.427407 303,191.044574 C301.249047,190.903727 299.487703,190.797658 297.703845,190.712454" id="Fill-8" fill="#61B347"></path>
            <path d="M134.367532,321.082389 C137.662944,322.402306 140.254179,324.60159 141.62958,328.269954 C142.807257,331.449202 142.366712,335.318763 140.840416,339.11721 C139.504907,342.459497 137.957797,344.764583 135.687431,346.660338 C131.748546,349.931512 127.121093,350.259323 122.453747,348.39132 C119.715086,347.295147 117.151602,345.378578 116.39886,343.696161 L121.33851,339.802318 C122.171036,341.200286 123.30882,342.237488 124.767474,342.820263 C125.952088,343.295503 127.192204,343.435993 128.172156,342.978098 C130.014118,342.166375 130.97846,340.952259 132.249795,337.809434 C134.013708,333.40046 134.665853,331.215052 134.076148,329.468459 C133.606118,328.072226 132.759717,326.977788 131.335752,326.400216 C129.613465,325.720311 128.064621,325.590227 126.028403,326.329103 L124.956527,320.471862 C127.270253,319.57862 130.452928,319.514445 134.367532,321.082389 L134.367532,321.082389 Z M108.890523,307.787822 L102.136661,303.484649 L94.0073983,332.436105 L100.48722,336.562364 L123.756303,317.259659 L117.207104,313.096977 L112.907457,316.916238 L107.171705,313.249608 L108.890523,307.787822 Z M105.360962,318.860557 L108.48987,320.846504 L104.986326,324.202666 C103.524203,325.578086 102.509563,326.778326 101.86609,327.647286 C102.407232,326.71762 103.142629,325.177428 103.591846,323.940764 L105.360962,318.860557 Z M88.4763082,290.743372 L82.9955166,285.484517 L63.066942,306.24763 L68.1332054,311.105827 L74.3060337,304.671014 C75.6241987,303.295594 77.5667578,301.212519 78.5866013,299.856178 C77.7558104,301.743261 76.9787868,303.802054 76.5139602,305.470596 L73.4665706,316.222457 L78.5866013,321.143095 L98.5117071,300.378248 L93.4523814,295.518316 L87.8484454,301.353009 C85.3872924,303.919997 83.7413205,306.003072 83.0909101,306.915393 C83.9234354,305.144519 84.7264755,303.047568 85.2190529,301.469217 L88.4763082,290.743372 Z M69.72541,267.624875 L65.1361142,261.059978 L46.5361112,284.67106 L50.9380888,290.965382 L79.8093729,282.07979 L75.3640346,275.705682 L69.9387446,277.596234 L66.0380167,272.013036 L69.72541,267.624875 Z M62.2188068,276.489654 L64.3452152,279.538819 L59.8287654,281.283677 C57.9521146,281.989598 56.5472281,282.718068 55.6227781,283.267889 C56.4761166,282.610532 57.7474521,281.470998 58.6337447,280.506643 L62.2188068,276.489654 Z M52.398477,241.29591 C48.5168277,240.163313 44.7010867,241.118996 40.6199783,242.919356 C35.2484556,245.283412 32.2028005,248.200759 31.434449,252.106742 C30.8933075,254.871457 31.7813345,257.278875 32.5809057,259.09658 L36.6741552,268.401909 L63.0166436,256.78976 L58.8089219,247.232935 C57.2427336,243.68078 55.1354039,242.072944 52.398477,241.29591 L52.398477,241.29591 Z M43.6691022,250.469421 C50.9658397,247.260686 52.5736542,248.342984 53.4061795,250.23527 L54.4086787,252.507401 L39.2428426,259.185037 L38.3357369,257.10543 C37.4303657,255.062247 37.5361657,253.161289 43.6691022,250.469421 L43.6691022,250.469421 Z M49.300789,216.789852 L47.5438138,208.974416 L21.3799714,223.798768 L23.0658352,231.282924 L53.1841727,233.986933 L51.474027,226.426461 L45.7243991,226.102119 L44.2293224,219.448765 L49.300789,216.789852 Z M38.9965539,222.156243 L39.8186726,225.777777 L34.9657438,225.684116 C32.9642142,225.632083 31.3876194,225.777777 30.3244152,225.932143 C31.3720096,225.654631 32.9642142,225.082262 34.1575005,224.518565 L38.9965539,222.156243 Z M47.7172565,179.925831 C48.437044,169.659615 40.9113621,166.527197 32.6728304,165.961766 C26.3733889,165.514277 18.7124216,167.838442 18.0394636,177.601666 C17.501791,185.179483 22.4622543,191.161604 32.6762992,191.867526 C41.2912018,192.472849 47.1362232,188.244257 47.7172565,179.925831 L47.7172565,179.925831 Z M33.0058405,174.25591 C40.3840961,174.774511 42.1323992,176.255732 41.9190646,179.398558 C41.7022612,182.442519 39.7649054,184.091982 32.4404171,183.575115 C26.957891,183.188333 23.5549438,181.549277 23.7838883,178.208724 C24.0076294,175.032944 25.8357163,173.763326 33.0058405,174.25591 L33.0058405,174.25591 Z M53.2483466,147.503738 L55.5707453,139.280706 C53.2483466,139.608518 47.4674989,140.503494 45.3358873,140.890277 C43.7141973,141.162586 42.1185238,141.950026 41.5704446,142.825924 C41.9381433,139.409056 40.2193254,136.224604 35.453118,134.880404 C30.8412747,133.574363 26.8069958,135.267187 24.5088791,143.410434 L21.8049062,152.951649 L49.495045,160.772288 L51.5069811,153.657571 L40.5488667,150.561576 C40.9824736,149.012711 41.5218807,148.4785 44.682008,148.20966 L53.2483466,147.503738 Z M33.7707231,142.940398 C35.6421707,143.467671 36.5596829,144.633222 35.874584,147.047578 L35.3004884,149.07862 L29.6635983,147.482925 L30.2186151,145.495244 C30.8482124,143.271678 31.7882722,142.387108 33.7707231,142.940398 L33.7707231,142.940398 Z M47.5056563,108.256582 L45.3254807,102.513815 C41.9242679,103.87189 39.2081541,106.41286 37.4771952,109.749944 C36.2769712,112.067171 35.7705183,113.850186 35.7841166,116.269745 C35.7705183,121.658684 39.3503772,126.256714 44.8068868,129.092541 C48.2982898,130.891167 51.1219382,131.467005 54.4225541,130.996969 C58.5487577,130.388176 61.4313766,128.162876 63.6323654,123.906533 C65.3355734,120.609342 66.1472856,117.256648 65.8663083,113.388822 L53.4061795,106.927992 L48.0051715,117.348574 L53.5952321,119.313707 L55.2065155,116.198633 L59.2425288,118.27824 C59.1748861,119.129855 58.8089219,120.019628 58.3735805,120.857368 C56.7935169,123.90133 53.5241206,124.116401 48.4301063,121.471364 C42.7134325,118.515859 41.0431786,115.879494 42.8400457,112.43314 C43.842545,110.490555 45.4902513,108.92608 47.5056563,108.256582 L47.5056563,108.256582 Z M81.3391381,96.8820522 L86.3689785,90.6432321 L58.4897872,79.3849108 L53.6715469,85.3670322 L70.2908335,110.611966 L75.1541688,104.56567 L71.8292709,99.880918 L76.1011664,94.573498 L81.3391381,96.8820522 Z M70.7365814,92.1626111 L68.3951039,95.0470031 L65.4587178,91.1965219 C64.2584938,89.5956237 63.1710076,88.4560894 62.3835774,87.7137444 C63.245588,88.3537568 64.697304,89.2591402 65.8663083,89.8384468 L70.7365814,92.1626111 Z M100.461204,78.5072786 L106.281943,73.6317369 L87.8311011,51.5625827 L82.4404997,56.0669518 L88.158908,62.9076265 C89.3834139,64.3628309 91.2427205,66.5187534 92.489774,67.6912423 C90.701579,66.6453684 88.7364724,65.6549968 87.1286579,65.0080466 L76.7758587,60.8089408 L71.3314901,65.3618746 L89.7875356,87.4310289 L95.1711993,82.9388008 L89.9817915,76.7259974 C87.7096912,74.0029094 85.8191649,72.1383746 84.9727642,71.3856229 C86.6499558,72.408949 88.6289379,73.4461506 90.1587031,74.1035076 L100.461204,78.5072786 Z M113.053149,69.4794613 L119.545112,65.5960255 L104.743506,40.8905058 L98.2584806,44.7722071 L113.053149,69.4794613 Z M137.293511,57.7146803 C141.182098,56.1033753 143.417775,53.8312445 144.439353,51.5729894 L139.582956,48.137042 C138.649834,50.0917682 137.451344,51.0786708 135.734261,51.7967335 C134.324171,52.3777746 132.947035,52.1904539 131.642746,51.5278936 C129.995039,50.683216 128.935304,48.667784 127.110686,44.279623 C125.818537,41.1541423 125.669377,39.610481 126.41518,37.7390084 C126.793286,36.7278234 127.769768,35.9611961 128.959586,35.4668776 C130.407833,34.8667575 131.951474,34.8077862 133.512459,35.2327267 L134.318968,28.9973754 C132.607087,28.3192051 129.434819,28.7493489 126.72044,29.8680698 C122.068705,31.8019827 118.995299,35.2691502 118.468033,40.3545604 C118.171445,43.3031271 118.676164,46.0452941 120.0533,49.3615644 C121.629894,53.1322608 124.018201,56.2074424 127.077732,57.6591778 C130.626371,59.3277197 134.02238,59.0779587 137.293511,57.7146803 L137.293511,57.7146803 Z M172.592584,40.9859006 C176.611253,40.5384122 179.488669,36.9394265 179.041187,32.9085624 C178.581563,28.8829017 174.980891,26.0089164 170.958753,26.4564048 C166.93835,26.9142998 164.064403,30.51502 164.508417,34.5372119 C164.962837,38.5611381 168.572181,41.4368578 172.592584,40.9859006 L172.592584,40.9859006 Z M212.744586,49.2002604 C219.220939,50.1888975 222.835487,47.0686202 223.621183,41.8791428 C224.138042,38.4553366 222.039385,35.8311123 219.359694,34.6794368 C222.663779,34.1365537 224.132839,31.6042553 224.531757,29.0320645 C225.315719,23.8096326 222.240578,21.5427051 218.114375,20.9148339 L205.503351,19 L201.189829,47.4484649 L212.744586,49.2002604 Z M215.252569,40.3545604 C214.981998,42.1150282 214.028063,43.1782466 212.186101,42.8955311 L209.419688,42.4792629 L210.273027,36.8440317 L212.968328,37.2550965 C215.205739,37.5967834 215.465903,38.9305762 215.252569,40.3545604 L215.252569,40.3545604 Z M216.830898,29.1604138 C216.607157,30.6208215 215.805851,31.7620903 214.052345,31.4915159 L211.147178,31.0474965 L211.901654,26.1147179 L214.711427,26.5379239 C216.430245,26.8015605 217.054639,27.6930683 216.830898,29.1604138 L216.830898,29.1604138 Z M228.725603,52.7402749 L235.946026,55.0089367 L244.567866,27.5421711 L237.361319,25.2787125 L228.725603,52.7402749 Z M253.713504,63.1261673 C262.883423,67.7779648 268.697225,62.0664178 272.429713,54.7071423 C275.289785,49.0805833 276.127513,41.1263911 267.399873,36.7035411 C260.623464,33.2675937 253.193175,35.5119733 248.558785,44.6438577 C244.656322,52.3378822 246.279747,59.3606742 253.713504,63.1261673 L253.713504,63.1261673 Z M264.650805,51.7845924 C261.312032,58.3755061 259.261938,59.4127078 256.466041,57.9973958 C253.737786,56.609835 252.979841,54.1902759 256.299536,47.6357856 C258.783236,42.741165 261.619025,40.2435556 264.603976,41.7629346 C267.439765,43.1955911 267.897654,45.3775305 264.650805,51.7845924 L264.650805,51.7845924 Z M283.228261,82.1166711 L288.075986,78.1256994 L280.324828,72.1626569 L294.162093,54.2093548 L288.247694,49.6460143 L270.676207,72.4332313 L283.228261,82.1166711 Z M294.652936,94.3202682 C301.588912,101.929305 309.041748,98.6477233 315.148668,93.0922769 C319.822951,88.8376686 323.432295,81.7021373 316.838001,74.4677423 C311.730111,68.8446522 303.972016,68.301769 296.402974,75.1996806 C290.028952,81.0066224 289.052469,88.150826 294.652936,94.3202682 L294.652936,94.3202682 Z M308.920338,87.5975362 C303.451688,92.573676 301.165712,92.8112958 299.053179,90.4906004 C296.994413,88.2340797 297.143574,85.7017812 302.581005,80.7499237 C306.639566,77.0572776 310.179533,75.7304226 312.427351,78.1968119 C314.562432,80.5539307 314.234625,82.7618868 308.920338,87.5975362 L308.920338,87.5975362 Z M334.768515,114.141574 L340.790448,115.374769 C341.456468,111.772314 340.769635,108.11956 338.872171,104.870933 C337.567881,102.624819 336.332969,101.242462 334.296751,99.950296 C329.747347,97.0468251 323.949155,97.6018494 318.626196,100.703048 C315.244062,102.67165 313.252939,104.74085 311.868866,107.783077 C310.167392,111.5954 310.510809,115.213465 312.912991,119.360537 C314.789642,122.57274 317.19009,125.042598 320.586099,126.879382 L332.72189,119.821901 L326.821367,109.684035 L322.17657,113.350664 L323.940483,116.385953 L320.010269,118.668491 C319.335577,118.155093 318.790967,117.378059 318.303593,116.550726 C316.58304,113.596956 318.157901,110.72644 323.118364,107.833376 C328.692815,104.598625 331.800909,104.598625 333.750406,107.949584 C334.843095,109.845339 335.280171,112.067171 334.768515,114.141574 L334.768515,114.141574 Z M321.356185,135.282797 L324.075768,142.328137 L350.92124,132.001216 L348.206861,124.954141 L321.356185,135.282797 Z M326.616705,175.435337 L331.634404,176.255732 C331.542479,175.820385 331.471368,175.449213 331.386381,175.058961 C330.742908,171.895323 332.473867,170.280549 332.437444,168.27032 C334.810141,170.599688 338.924204,172.367093 347.008371,170.714161 C355.253841,169.021337 359.635005,163.654946 357.973424,155.574139 C356.450596,148.138548 350.066168,143.712229 340.570176,145.654814 C331.592778,147.503738 327.000013,152.656792 328.899212,161.906619 C328.508965,166.750941 325.168457,168.785452 326.157081,173.595085 C326.302773,174.327023 326.43459,174.925408 326.616705,175.435337 L326.616705,175.435337 Z M344.463966,162.808534 C337.226199,164.291489 335.134479,163.328869 334.504882,160.253688 C333.885691,157.266963 335.309656,155.16134 342.512735,153.680118 C347.887726,152.587414 351.602871,153.256912 352.279297,156.531556 C352.912363,159.644895 351.493602,161.362002 344.463966,162.808534 L344.463966,162.808534 Z M336.25492,200.919625 C337.404845,201.504135 338.520082,201.635953 341.003783,201.649829 L360.897669,201.741755 L360.932357,194.354728 L342.028829,194.259333 C339.217322,194.247192 337.737855,193.494441 337.746527,190.858075 C337.763872,188.247726 339.545129,187.436003 342.179725,187.448144 L360.96878,187.538336 L361,180.107948 L341.426983,180.019491 C337.592163,179.996943 336.841156,180.277924 335.313125,181.389707 C332.912677,183.068656 331.705516,186.244436 331.674005,190.786963 C331.644811,196.4829 333.861409,199.672555 336.25492,200.919625 L336.25492,200.919625 Z M331.122748,209.142657 L327.900181,226.084774 L333.942927,227.224309 L335.781421,217.542603 L341.539721,218.637042 L340.200743,225.694523 L345.957308,226.778555 L347.299755,219.729746 L352.039946,220.633395 L350.397443,229.260554 L356.25634,230.925627 L359.376576,214.509049 L331.122748,209.142657 Z M316.638542,253.763143 C314.817393,257.566794 314.664763,260.739105 315.400161,263.106631 L321.319762,262.426726 C320.717916,260.341916 320.952064,258.81213 321.756838,257.131447 C322.415921,255.752558 323.567581,254.977259 324.979405,254.600883 C326.772803,254.130847 328.906149,254.928694 333.181514,256.989222 C336.241044,258.456568 337.37536,259.507645 338.076069,261.399931 C338.46458,262.400709 338.239105,263.623497 337.685822,264.785579 C337.002458,266.200891 335.899362,267.267578 334.451115,267.997782 L338.004957,273.178587 C339.732447,272.543778 341.815495,270.119016 343.085096,267.472244 C345.26874,262.929717 345.251396,258.291795 342.252571,254.149926 C340.509471,251.752914 338.292872,250.06009 335.05643,248.493881 C331.379443,246.724741 327.541155,246.036164 324.285634,246.990112 C320.537535,248.127912 318.175245,250.564816 316.638542,253.763143 L316.638542,253.763143 Z M301.653086,278.314297 L296.890348,284.771658 L325.253444,294.812394 L329.79938,288.623873 L312.096076,264.105674 L307.496373,270.365308 L311.025934,274.907835 L306.984717,280.400841 L301.653086,278.314297 Z M312.460306,282.575843 L314.664763,279.583915 L317.762451,283.307781 C319.040724,284.854911 320.181978,285.954553 320.99369,286.660475 C320.107397,286.056886 318.617524,285.212208 317.4173,284.684935 L312.460306,282.575843 Z M283.309779,297.532014 L277.69717,302.655582 L297.100214,323.906075 L302.279215,319.176227 L296.26075,312.590517 C294.984212,311.189081 293.038184,309.114677 291.746035,308.00116 C293.572388,308.962046 295.573917,309.870898 297.218155,310.445001 L307.739193,314.196619 L312.984103,309.411268 L293.589732,288.155572 L288.396855,292.881951 L293.856834,298.867541 C296.246875,301.484827 298.210247,303.269577 299.086133,303.989375 C297.377722,303.02502 295.348441,302.091885 293.803066,301.495234 L283.309779,297.532014 Z M258.944538,314.741236 L252.086611,318.872698 L274.396554,339.021815 L280.980442,335.058595 L274.044466,305.637103 L267.399873,309.647154 L268.907091,315.190459 L263.07421,318.707926 L258.944538,314.741236 Z M267.294073,322.825512 L270.476748,320.896803 L271.91112,325.529521 C272.490418,327.449559 273.123485,328.897825 273.605655,329.860445 C273.017684,328.960265 271.966621,327.612597 271.057781,326.672524 L267.294073,322.825512 Z M231.545783,330.221211 C230.156506,334.007518 230.852012,337.884016 232.371371,342.079652 C234.359025,347.588269 237.062998,350.824754 240.908224,351.84808 C243.620869,352.57655 246.083756,351.867159 247.95,351.187255 L257.504963,347.7409 L247.715853,320.6852 L237.897257,324.232152 C234.249756,325.5486 232.513594,327.538016 231.545783,330.221211 L231.545783,330.221211 Z M240.099981,339.543885 C237.387336,332.047588 238.592763,330.517802 240.530119,329.818819 L242.864658,328.979344 L248.487673,344.542573 L246.356061,345.314404 C244.255669,346.070624 242.373815,345.833004 240.099981,339.543885 L240.099981,339.543885 Z M206.91344,331.671212 L199.000981,332.906141 L212.054284,360 L219.637202,358.822308 L224.342705,328.960265 L216.671331,330.153568 L215.970622,335.859911 L209.244511,336.90752 L206.91344,331.671212 Z M211.591192,342.315538 L215.266444,341.743169 L214.843244,346.571881 C214.650722,348.564765 214.687145,350.141381 214.773867,351.213271 C214.569204,350.165663 214.107847,348.524872 213.618738,347.302084 L211.591192,342.315538 Z M173.34706,339.092928 C169.323188,338.66105 165.729454,341.552379 165.299316,345.576306 C164.863974,349.595029 167.758734,353.188811 171.777403,353.622424 C175.801276,354.056036 179.393275,351.166441 179.825148,347.137312 C180.255286,343.113385 177.369198,339.526541 173.34706,339.092928 L173.34706,339.092928 Z" id="Fill-9" fill="#6F8F9D"></path>
        </g>
    </g>
</svg>
