<?xml version="1.0" encoding="UTF-8" standalone="no"?>
<!-- Created with Inkscape (http://www.inkscape.org/) -->

<svg
   version="1.1"
   id="svg2"
   width="173.47467"
   height="280.43625"
   viewBox="0 0 173.47467 280.43624"
   sodipodi:docname="CCPAE-segell-producte_RGB.ai"
   inkscape:export-filename="CCPAE-segell-producte_RGB.ai.svg"
   inkscape:export-xdpi="96"
   inkscape:export-ydpi="96"
   xmlns:inkscape="http://www.inkscape.org/namespaces/inkscape"
   xmlns:sodipodi="http://sodipodi.sourceforge.net/DTD/sodipodi-0.dtd"
   xmlns="http://www.w3.org/2000/svg"
   xmlns:svg="http://www.w3.org/2000/svg">
  <defs
     id="defs6">
    <clipPath
       clipPathUnits="userSpaceOnUse"
       id="clipPath32">
      <path
         d="M 0,841.89 H 595.275 V 0 H 0 Z"
         id="path30" />
    </clipPath>
  </defs>
  <sodipodi:namedview
     id="namedview4"
     pagecolor="#ffffff"
     bordercolor="#000000"
     borderopacity="0.25"
     inkscape:showpageshadow="2"
     inkscape:pageopacity="0.0"
     inkscape:pagecheckerboard="0"
     inkscape:deskcolor="#d1d1d1"
     showgrid="false" />
  <g
     id="g8"
     inkscape:groupmode="layer"
     inkscape:label="CCPAE-segell-producte_RGB"
     transform="matrix(1.3333333,0,0,-1.3333333,-314.3772,705.60877)">
    <g
       id="g10"
       transform="translate(237.0635,522.8696)">
      <path
         d="m 0,0 h 6.29 v -17.028 l -6.006,0.051 z"
         style="fill:#4f98d8;fill-opacity:1;fill-rule:nonzero;stroke:none"
         id="path12" />
    </g>
    <g
       id="g14"
       transform="translate(358.9229,522.0435)">
      <path
         d="M 0,0 H 6.966 V -17.24 H 0.312 Z"
         style="fill:#fff200;fill-opacity:1;fill-rule:nonzero;stroke:none"
         id="path16" />
    </g>
    <g
       id="g18"
       transform="translate(237.623,362.3154)">
      <path
         d="M 0,0 H 14.179 L 12.579,-42.635 1.44,-43.436 Z"
         style="fill:#59c134;fill-opacity:1;fill-rule:nonzero;stroke:none"
         id="path20" />
    </g>
    <g
       id="g22"
       transform="translate(352.502,363.5957)">
      <path
         d="m 0,0 12.579,0.8 0.48,-42.635 H 0.64 Z"
         style="fill:#cd6610;fill-opacity:1;fill-rule:nonzero;stroke:none"
         id="path24" />
    </g>
    <g
       id="g26">
      <g
         id="g28"
         clip-path="url(#clipPath32)">
        <g
           id="g34"
           transform="translate(258.6982,492.9956)">
          <path
             d="m 0,0 0.247,6.817 c 0,0 0.082,0.321 0.238,0.435 C 0.64,7.366 0.969,7.35 0.969,7.35 l 45.691,0.007 0.882,1.102 35.002,0.22 0.544,-52.656 c 0,0 -0.19,-0.637 -0.428,-0.979 -0.442,-0.635 -1.647,-1.106 -1.647,-1.106 l -4.476,-2.49 -8.95,-5.202 c 0,0 -7.929,-4.871 -13.002,-7.979 -2.802,-1.717 -4.374,-2.7 -7.187,-4.401 -0.743,-0.449 -1.16,-0.706 -1.907,-1.15 -0.907,-0.538 -1.373,-0.934 -2.338,-1.361 -0.652,-0.288 -1.721,-0.61 -1.721,-0.61 L 1.216,-69.541 c 0,0 -0.52,0.017 -0.798,0.171 -0.189,0.105 -0.42,0.361 -0.42,0.361 l 0.492,19.3 -0.123,16.966 -0.091,8.33 c 0,0 0.807,-0.303 1.332,-0.47 0.784,-0.25 1.224,-0.423 2.037,-0.549 0.663,-0.103 1.046,-0.143 1.716,-0.112 0.767,0.036 1.209,0.102 1.94,0.34 0.529,0.172 1.304,0.577 1.304,0.577 l -1.599,3.195 c 0,0 -0.68,1.32 -0.984,2.214 -0.348,1.024 -0.511,1.627 -0.615,2.704 -0.078,0.811 -0.044,1.276 0,2.091 0.047,0.866 0.043,1.367 0.246,2.211 0.217,0.9 0.471,1.374 0.861,2.214 0.279,0.601 0.434,0.946 0.787,1.507 0.427,0.679 0.709,1.043 1.261,1.627 0.579,0.614 0.942,0.938 1.64,1.414 0.673,0.46 1.102,0.648 1.844,0.984 1.017,0.461 1.618,0.678 2.701,0.948 0.701,0.175 1.101,0.284 1.821,0.339 0.728,0.057 1.145,-0.131 1.872,-0.056 0.506,0.051 1.252,0.166 1.28,0.25 0.286,0.056 0.325,0.397 0.196,0.61 -0.278,0.461 -0.486,0.806 -0.875,1.26 -0.497,0.579 -0.85,0.844 -1.455,1.309 C 16.78,0.813 16.295,1.149 15.365,1.559 14.538,1.923 14.028,2.031 13.146,2.23 12.306,2.421 11.82,2.477 10.964,2.57 9.918,2.685 9.322,2.746 8.271,2.716 7.454,2.692 6.991,2.653 6.185,2.521 5.393,2.392 4.941,2.309 4.18,2.051 3.572,1.845 3.226,1.721 2.667,1.406 1.962,1.009 1.503,0.582 1.018,0.146 0.707,-0.136 0,0 0,0 m 27.66,-14.054 c -0.338,-0.089 -0.531,-0.134 -0.861,-0.246 -0.752,-0.255 -1.128,-0.517 -1.842,-0.862 -0.87,-0.419 -1.395,-0.596 -2.215,-1.107 -0.984,-0.612 -1.463,-1.077 -2.334,-1.842 -1.07,-0.94 -1.622,-1.531 -2.583,-2.583 -1.287,-1.41 -2.005,-2.228 -3.072,-3.81 -0.566,-0.839 -0.879,-1.32 -1.354,-2.214 -0.491,-0.929 -0.744,-1.471 -1.107,-2.458 -0.545,-1.485 -0.677,-2.384 -0.983,-3.936 -0.486,-2.462 -0.641,-3.885 -0.738,-6.393 -0.041,-1.054 -0.098,-1.652 -0.019,-2.703 0.103,-1.361 0.223,-2.141 0.634,-3.442 0.329,-1.045 0.589,-1.617 1.106,-2.583 0.555,-1.036 0.966,-1.568 1.664,-2.514 0.607,-0.821 0.979,-1.264 1.649,-2.034 0.626,-0.718 0.972,-1.134 1.665,-1.787 0.767,-0.724 1.237,-1.098 2.096,-1.711 1.536,-1.098 2.544,-1.508 4.238,-2.343 1.434,-0.706 2.255,-1.085 3.745,-1.664 1.068,-0.415 1.678,-0.636 2.774,-0.971 1.556,-0.475 2.436,-0.806 4.053,-0.986 1.141,-0.128 1.796,-0.097 2.944,-0.062 0.963,0.029 1.517,0.01 2.466,0.181 1.115,0.201 1.719,0.454 2.774,0.867 1.214,0.475 1.836,0.888 3.004,1.467 0.77,0.381 1.222,0.561 1.969,0.984 0.844,0.479 1.286,0.807 2.088,1.353 1.078,0.734 1.678,1.164 2.706,1.966 0.833,0.648 1.336,0.981 2.089,1.721 0.948,0.934 1.426,1.535 2.153,2.65 0.579,0.887 0.869,1.418 1.29,2.391 0.422,0.975 0.578,1.56 0.862,2.583 0.223,0.806 0.349,1.264 0.489,2.088 0.193,1.139 0.199,1.798 0.246,2.952 0.045,1.102 0,1.725 0,2.827 0,1.247 0.085,1.954 0,3.198 -0.076,1.109 -0.153,1.736 -0.369,2.826 -0.322,1.622 -0.613,2.522 -1.228,4.057 -0.455,1.134 -0.747,1.766 -1.352,2.829 -0.599,1.051 -1.014,1.599 -1.723,2.58 -0.868,1.202 -1.362,1.883 -2.365,2.975 -0.931,1.013 -1.44,1.625 -2.552,2.435 -1.266,0.92 -2.15,1.173 -3.564,1.845 -1.417,0.673 -2.184,1.163 -3.691,1.599 -1.491,0.431 -2.386,0.495 -3.933,0.615 -1.53,0.118 -2.4,0.032 -3.934,0 -1.246,-0.027 -1.954,-0.003 -3.195,-0.123 -1.452,-0.141 -2.279,-0.245 -3.69,-0.615"
             style="fill:#4f98d8;fill-opacity:1;fill-rule:evenodd;stroke:none"
             id="path36" />
        </g>
        <g
           id="g38"
           transform="translate(288.6953,476.4814)">
          <path
             d="M 0,0 C 1.231,0.305 1.936,0.456 3.195,0.615 4.279,0.751 4.896,0.794 5.989,0.811 6.83,0.823 7.306,0.805 8.146,0.75 9.041,0.692 9.547,0.641 10.435,0.509 c 1.062,-0.157 1.669,-0.238 2.699,-0.542 1.042,-0.307 1.607,-0.561 2.591,-1.024 1.097,-0.518 1.688,-0.876 2.714,-1.524 0.789,-0.497 1.256,-0.753 1.969,-1.353 0.637,-0.535 0.929,-0.911 1.509,-1.508 0.713,-0.735 1.184,-1.094 1.795,-1.916 0.378,-0.509 0.529,-0.839 0.875,-1.37 0.379,-0.58 0.618,-0.889 0.984,-1.476 0.619,-0.993 1.02,-1.538 1.453,-2.623 0.329,-0.819 0.426,-1.315 0.638,-2.172 0.328,-1.323 0.412,-2.093 0.615,-3.441 0.14,-0.928 0.231,-1.452 0.314,-2.387 0.113,-1.259 0.167,-1.978 0.108,-3.241 -0.048,-1.015 -0.09,-1.593 -0.289,-2.591 -0.177,-0.885 -0.351,-1.369 -0.625,-2.231 -0.261,-0.824 -0.396,-1.296 -0.737,-2.091 -0.297,-0.689 -0.487,-1.071 -0.861,-1.722 -0.431,-0.749 -0.691,-1.167 -1.231,-1.842 -0.584,-0.731 -0.967,-1.105 -1.666,-1.727 -0.987,-0.877 -1.679,-1.204 -2.759,-1.963 -1.24,-0.871 -1.873,-1.471 -3.195,-2.212 -0.655,-0.366 -1.051,-0.525 -1.723,-0.861 -0.863,-0.431 -1.31,-0.767 -2.214,-1.107 -0.88,-0.331 -1.415,-0.411 -2.334,-0.615 -1.094,-0.242 -1.711,-0.422 -2.829,-0.492 -1.513,-0.095 -2.377,0.095 -3.874,0.334 -1.739,0.278 -2.707,0.547 -4.385,1.084 -1.097,0.352 -1.705,0.587 -2.771,1.024 -1.383,0.568 -2.171,0.889 -3.477,1.618 -0.94,0.525 -1.47,0.833 -2.337,1.473 -1.256,0.927 -1.898,1.551 -2.949,2.706 -0.736,0.808 -1.122,1.295 -1.754,2.188 -0.861,1.217 -1.366,1.917 -1.946,3.29 -0.438,1.036 -0.598,1.66 -0.848,2.758 -0.376,1.646 -0.469,2.613 -0.493,4.302 -0.019,1.394 0.06,2.185 0.246,3.567 0.216,1.603 0.401,2.506 0.862,4.056 0.423,1.425 0.707,2.225 1.35,3.565 0.511,1.063 0.838,1.65 1.491,2.633 0.764,1.15 1.296,1.731 2.199,2.776 0.967,1.12 1.431,1.857 2.608,2.754 0.888,0.677 1.474,0.943 2.47,1.446 0.999,0.505 1.585,0.751 2.638,1.132 C -1.688,-0.437 -1.08,-0.269 0,0"
             style="fill:#fff200;fill-opacity:1;fill-rule:nonzero;stroke:none"
             id="path40" />
        </g>
        <g
           id="g42"
           transform="translate(259.7095,422.8794)">
          <path
             d="M 0,0 C 0.143,0.172 1.032,0.115 1.032,0.115 L 6.15,0.136 h 10.547 c 0,0 3.566,-0.102 5.845,-0.116 1.869,-0.012 2.924,-0.006 4.792,0.023 2.195,0.036 3.432,0.1 5.626,0.163 1.496,0.044 3.834,0.111 3.834,0.111 h 3.082 l 1.178,0.09 c 0,0 0.535,-0.097 0.609,-0.364 0.087,-0.319 -0.552,-0.645 -0.552,-0.645 L 40.239,-0.771 36.885,-2.917 35.373,-3.915 33.65,-5.093 31.294,-6.271 c 0,0 -0.876,-0.605 -1.441,-0.983 -0.497,-0.332 -0.77,-0.53 -1.28,-0.84 -0.572,-0.35 -0.862,-0.632 -1.499,-0.841 -0.601,-0.198 -0.98,-0.141 -1.608,-0.22 -0.567,-0.071 -1.456,-0.17 -1.456,-0.17 0,0 -0.806,-0.203 -1.266,-0.455 -0.397,-0.218 -0.565,-0.428 -0.932,-0.69 -0.582,-0.416 -1.518,-1.03 -1.518,-1.03 l -1.421,-0.997 -1.632,-0.878 -1.45,-0.815 c 0,0 -0.847,-0.465 -1.399,-0.739 -0.672,-0.334 -1.135,-0.371 -1.749,-0.803 -0.429,-0.301 -0.993,-0.905 -0.993,-0.905 l -1.269,-0.997 -0.816,-1.059 -0.634,-1.269 c 0,0 -0.344,-0.592 -0.697,-0.821 -0.453,-0.293 -1.359,-0.266 -1.359,-0.266 l -1.45,-0.091 -0.816,-0.453 -0.815,-1.088 -0.606,-0.787 -0.725,-0.725 -0.634,-0.815 -0.635,-0.544 -0.453,-0.273 c 0,0 -0.336,-0.502 -0.658,-0.498 -0.287,0.003 -0.611,0.407 -0.611,0.407 l 0.453,22.273 -0.091,2.963 c 0,0 -0.009,0.47 0.166,0.68"
             style="fill:#cd6610;fill-opacity:1;fill-rule:nonzero;stroke:none"
             id="path44" />
        </g>
        <g
           id="g46"
           transform="translate(337.5234,444.6831)">
          <path
             d="M 0,0 1.531,1.057 2.347,1.51 c 0,0 0.39,0.268 0.632,0.181 C 3.191,1.614 3.344,1.238 3.344,1.238 L 3.253,-0.393 3.435,-1.752 3.253,-2.63 2.618,-3.355 1.894,-3.809 c 0,0 -0.417,-0.162 -0.602,-0.365 C 0.976,-4.522 1.016,-5.35 1.016,-5.35 L 0.563,-6.074 -0.162,-6.799 -1.341,-7.496 c 0,0 -0.515,-0.537 -0.815,-0.906 -0.303,-0.374 -0.486,-0.58 -0.726,-0.997 -0.213,-0.371 -0.209,-0.646 -0.453,-0.997 -0.338,-0.488 -1.149,-0.997 -1.149,-0.997 l -1.451,-0.997 -1.45,-0.968 -2.599,-1.632 -1.36,-1.178 -2.265,-1.36 -1.875,-1.058 -2.175,-1.088 c 0,0 -1.333,-0.315 -1.904,-0.908 -0.319,-0.331 -0.634,-0.996 -0.634,-0.996 l -1.059,-0.816 c 0,0 -0.812,-0.427 -1.359,-0.634 -0.45,-0.169 -0.752,-0.142 -1.179,-0.363 -0.484,-0.25 -0.753,-0.447 -1.088,-0.877 -0.292,-0.374 -0.544,-1.088 -0.544,-1.088 l -0.696,-0.726 -0.725,-0.633 -1.088,-0.726 -1.541,-0.181 c 0,0 -1.358,-0.235 -2.237,-0.272 -0.459,-0.02 -0.749,0.164 -1.178,0 -0.33,-0.126 -0.432,-0.346 -0.725,-0.544 -0.599,-0.404 -1.631,-0.877 -1.631,-0.877 l -1.875,-1.723 -2.085,-1.63 c 0,0 -0.627,-0.797 -1.181,-1.091 -0.453,-0.241 -1.266,-0.361 -1.266,-0.361 l -1.241,-0.605 -0.725,-0.725 -1.45,-1.178 -1.722,-1.54 -1.24,-0.908 -1.631,-0.815 -1.632,-0.152 -1.512,-0.544 -1.541,-0.997 -0.906,-0.726 -1.632,-1.269 -1.33,-1.088 -1.541,-0.967 -1.904,-1.45 -0.997,-0.998 -1.965,-1.541 -1.631,-1.239 -1.36,-0.997 -0.816,-0.635 c 0,0 -0.6,-0.257 -0.967,-0.453 -0.365,-0.194 -0.573,-0.303 -0.907,-0.544 -0.425,-0.308 -0.633,-0.527 -0.997,-0.906 -0.367,-0.382 -0.444,-0.731 -0.874,-1.04 -0.298,-0.215 -0.486,-0.353 -0.848,-0.41 -0.47,-0.075 -0.715,0.238 -1.189,0.27 -0.522,0.035 -0.83,-0.003 -1.335,-0.138 -0.73,-0.197 -0.953,-0.964 -1.707,-0.919 -0.471,0.028 -0.737,0.184 -1.118,0.464 -0.327,0.24 -0.59,0.383 -0.695,0.776 -0.085,0.316 0.064,0.51 0.093,0.836 0.078,0.838 -0.118,1.34 0.088,2.155 0.141,0.558 0.316,0.844 0.561,1.364 0.332,0.707 0.499,1.129 0.972,1.751 0.541,0.712 1.667,1.575 1.667,1.575 l 1.065,1.204 0.872,0.966 c 0,0 0.272,0.486 0.547,0.695 0.354,0.271 1.085,0.363 1.085,0.363 0,0 0.839,-0.02 1.359,0.088 0.517,0.107 0.836,0.164 1.274,0.46 0.555,0.375 1.054,1.355 1.054,1.355 0,0 0.548,1.35 1.179,1.999 0.563,0.578 1.722,1.145 1.722,1.145 l 2.328,1.541 3.172,1.903 2.871,1.785 1.722,1.177 1.269,0.544 1.875,0.273 1.903,0.271 1.088,0.816 1.904,1.45 2.69,1.422 2.356,1.178 2.69,1.631 2.539,1.785 2.69,2.175 3.869,2.175 2.084,1.512 2.539,0.997 1.42,0.997 1.541,0.725 1.541,1.36 1.241,1.15 2.991,2.175 c 0,0 1.585,1.108 2.637,1.756 0.886,0.546 1.399,0.837 2.315,1.332 0.803,0.434 1.266,0.659 2.084,1.064 0.788,0.39 1.26,0.556 2.031,0.977 0.839,0.458 2.081,1.293 2.081,1.293 l 1.755,1.072 c 0,0 0.68,0.806 1.243,1.152 0.363,0.223 0.995,0.45 0.995,0.45 0,0 0.746,0.203 1.185,0.42 0.216,0.107 0.536,0.306 0.536,0.306 z"
             style="fill:#59c134;fill-opacity:1;fill-rule:nonzero;stroke:none"
             id="path48" />
        </g>
        <g
           id="g50"
           transform="translate(276.9507,396.5107)">
          <path
             d="m 0,0 0.272,0.544 1.722,1.269 1.784,1.241 1.994,1.268 1.903,1.45 1.241,0.544 1.812,0.634 c 0,0 1.211,0.446 1.947,0.817 0.553,0.279 1.378,0.787 1.378,0.787 l 1.45,1.45 1.722,1.45 0.634,0.816 1.15,0.634 1.632,0.452 1.178,0.697 2.085,1.632 1.24,1.178 1.179,1.178 0.815,0.726 0.906,0.514 0.907,0.182 1.331,0.091 1.484,0.135 1.76,0.186 c 0,0 0.847,0.397 1.016,0.039 0.158,-0.337 -0.544,-0.785 -0.544,-0.785 L 32.638,18.223 30.917,17.316 28.951,16.138 27.41,15.231 25.87,14.325 24.509,12.904 23.451,11.997 22.273,11.363 20.459,10.819 19.553,10.366 17.769,8.825 16.137,7.494 14.687,6.044 11.906,4.05 10.638,3.054 9.278,1.994 7.766,0.997 6.044,0 c 0,0 -0.467,-0.393 -0.819,-0.547 -0.808,-0.354 -2.263,0.004 -2.263,0.004 L 0.634,-0.725 0.09,-0.453 Z"
             style="fill:#cd6610;fill-opacity:1;fill-rule:nonzero;stroke:none"
             id="path52" />
        </g>
        <g
           id="g54"
           transform="translate(312.6416,417.7861)">
          <path
             d="M 0,0 0.453,0.997 1.27,1.994 2.176,2.72 3.263,3.416 4.26,3.688 5.229,3.779 c 0,0 0.415,-0.143 0.455,-0.367 C 5.735,3.125 5.138,2.901 5.138,2.901 L 3.988,2.176 3.173,1.632 2.447,0.906 1.45,0.091 0.635,-0.362 c 0,0 -0.655,-0.277 -0.73,-0.002 C -0.134,-0.223 0,0 0,0"
             style="fill:#cd6610;fill-opacity:1;fill-rule:nonzero;stroke:none"
             id="path56" />
        </g>
        <g
           id="g58"
           transform="translate(319.501,423.1055)">
          <path
             d="M 0,0 C 0.138,0.304 0.398,0.39 0.726,0.453 1.005,0.507 1.45,0.363 1.45,0.363 L 1.813,0.091 1.088,-0.634 0.182,-1.45 0,-0.634 c 0,0 -0.102,0.408 0,0.634"
             style="fill:#cd6610;fill-opacity:1;fill-rule:nonzero;stroke:none"
             id="path60" />
        </g>
        <g
           id="g62"
           transform="translate(333.5547,430.9624)">
          <path
             d="M 0,0 C 0,0 0.696,0.801 1.265,1.151 1.724,1.435 2.537,1.693 2.537,1.693 L 3.534,2.6 4.26,2.872 c 0,0 0.659,0.219 1.088,0.181 C 5.704,3.021 5.938,2.994 6.225,2.781 6.556,2.535 6.769,1.874 6.769,1.874 L 7.313,1.059 c 0,0 0.509,-0.535 0.634,-0.969 0.117,-0.407 0,-1.087 0,-1.087 0,0 -0.613,-0.98 -1.088,-1.541 C 6.3,-3.2 5.257,-4.079 5.257,-4.079 L 3.625,-5.41 1.813,-7.222 0,-8.673 -1.331,-9.76 -2.51,-10.366 c 0,0 -1.087,-0.725 -1.268,-0.725 -0.182,0 -1.603,-0.726 -1.603,-0.726 l -1.812,-0.271 -1.088,-0.544 -0.544,-0.997 -0.726,-1.179 c 0,0 -0.789,-0.831 -1.273,-1.382 -0.547,-0.622 -0.733,-1.09 -1.36,-1.631 -0.456,-0.394 -0.778,-0.535 -1.282,-0.867 -0.543,-0.356 -1.403,-0.895 -1.403,-0.895 l -1.36,-1.087 -1.965,-1.331 -1.54,-0.907 -1.632,-1.177 -1.421,-0.998 -1.27,-1.087 c 0,0 -0.922,-0.961 -1.628,-1.42 -0.523,-0.34 -1.424,-0.727 -1.424,-0.727 l -1.36,-0.815 -1.632,-1.088 -0.906,-0.726 -1.088,-0.968 -1.33,-0.815 -1.36,-0.997 -1.45,-0.726 -1.451,-1.177 c 0,0 -0.975,-1.016 -1.621,-1.643 -0.617,-0.599 -1.612,-1.501 -1.612,-1.501 l -2.085,-2.176 -2.147,-1.874 -1.178,-0.997 -1.269,-0.635 -1.512,-1.541 -0.635,-0.634 -0.906,-0.634 -1.631,-0.362 c 0,0 -1.173,-0.205 -1.875,0 -0.455,0.131 -0.656,0.347 -1.088,0.543 -0.245,0.112 -0.433,0.093 -0.634,0.272 -0.285,0.253 -0.257,0.541 -0.363,0.906 -0.187,0.649 -0.181,1.723 -0.181,1.723 v 1.874 l 0.272,1.269 c 0,0 0.362,0.725 0.544,0.906 0.181,0.181 1.269,1.36 1.269,1.36 l 1.149,1.178 1.45,1.24 1.904,1.36 3.144,1.812 1.63,1.269 1.541,1.603 1.422,0.906 1.903,1.814 2.357,1.783 1.24,0.906 0.997,0.454 1.904,0.543 1.511,1.088 1.452,1.359 2.537,2.147 2.69,1.36 1.813,1.269 1.813,1.179 2.147,1.239 1.268,1.179 0.906,0.815 1.088,0.906 1.059,0.907 0.997,0.606 0.544,0.544 1.632,1.541 1.784,0.996 1.178,0.726 1.812,0.725 1.36,0.181 0.634,0.272 1.059,1.059 1.269,0.816 c 0,0 0.907,0.634 1.087,0.815 0.182,0.182 1.179,1.088 1.179,1.088 z"
             style="fill:#59c134;fill-opacity:1;fill-rule:nonzero;stroke:none"
             id="path64" />
        </g>
        <g
           id="g66"
           transform="translate(333.7354,420.8682)">
          <path
             d="M 0,0 C 0.274,0.316 0.445,0.503 0.816,0.697 1.203,0.899 1.491,0.824 1.903,0.968 2.307,1.11 2.495,1.555 2.9,1.421 3.21,1.32 3.348,1.098 3.444,0.787 3.559,0.42 3.439,0.161 3.264,-0.181 3.046,-0.604 2.779,-0.778 2.356,-0.997 1.969,-1.198 1.7,-1.198 1.27,-1.27 0.884,-1.333 0.653,-1.444 0.272,-1.359 c -0.252,0.055 -0.468,0.052 -0.606,0.271 -0.131,0.21 -0.081,0.401 0,0.635 C -0.261,-0.246 -0.144,-0.166 0,0"
             style="fill:#cd6610;fill-opacity:1;fill-rule:nonzero;stroke:none"
             id="path68" />
        </g>
        <g
           id="g70"
           transform="translate(326.4512,416.9707)">
          <path
             d="m 0,0 c -0.181,0 0.816,0.906 0.816,0.906 l 0.968,0.363 0.997,0.272 0.544,0.272 0.997,0.453 c 0,0 0.624,0.313 0.997,0.181 C 5.579,2.355 5.771,2.254 5.863,1.994 5.976,1.678 5.788,1.45 5.591,1.178 5.43,0.954 5.047,0.725 5.047,0.725 L 4.413,0.271 3.144,-0.544 1.723,-1.422 1.27,-2.056 0.363,-2.69 -0.906,-3.234 c 0,0 -0.603,-0.71 -1.087,-0.635 -0.235,0.037 -0.408,0.078 -0.544,0.272 -0.245,0.35 0.227,0.634 0.453,0.997 0.33,0.532 1.088,1.178 1.088,1.178 l 0.362,0.696 C -0.634,-0.726 0.182,0 0,0"
             style="fill:#cd6610;fill-opacity:1;fill-rule:nonzero;stroke:none"
             id="path72" />
        </g>
        <g
           id="g74"
           transform="translate(315.2705,407.4209)">
          <path
             d="M 0,0 C 0.709,0.445 1.903,0.997 1.903,0.997 L 3.324,2.175 4.865,3.233 5.953,4.05 c 0,0 0.494,0.234 0.816,0.18 C 7.004,4.192 7.181,4.164 7.321,3.972 7.591,3.601 6.687,3.038 6.21,2.498 5.757,1.984 5.474,1.718 4.956,1.269 4.614,0.972 4.05,0.544 4.05,0.544 L 2.78,-0.363 1.631,-1.27 -0.182,-2.69 -1.359,-3.416 -2.447,-4.141 -3.416,-5.138 -4.05,-5.772 l -1.903,-1.904 -1.27,-1.422 -1.088,-1.087 -0.605,-0.544 -0.906,-0.543 c 0,0 -0.938,-0.129 -1.541,-0.181 -0.741,-0.065 -1.209,-0.357 -1.904,-0.091 -0.265,0.102 -0.491,0.115 -0.634,0.362 -0.238,0.411 0.247,0.719 0.544,1.088 0.294,0.364 0.554,0.478 0.931,0.754 0.367,0.271 0.973,0.649 0.973,0.649 l 1.389,1.103 1.797,1.111 1.436,1.158 1.481,1.065 0.88,0.694 0.787,0.556 c 0,0 0.576,0.574 0.964,0.918 0.385,0.34 0.619,0.512 1.02,0.834 0.341,0.273 0.526,0.437 0.879,0.694 C -0.508,-0.33 -0.327,-0.206 0,0"
             style="fill:#cd6610;fill-opacity:1;fill-rule:nonzero;stroke:none"
             id="path76" />
        </g>
        <g
           id="g78"
           transform="translate(333.1299,418.7832)">
          <path
             d="M 0,0 1.693,0.635 3.053,0.997 4.594,1.179 6.105,1.088 7.193,0.453 8.19,-0.362 8.463,-1.632 V -3.144 L 8.009,-4.05 6.378,-5.229 5.138,-6.406 4.141,-7.223 3.053,-8.4 l -1.36,-1.059 -1.331,-0.997 -1.177,-0.635 -0.907,-0.362 -0.725,-0.726 -0.725,-1.177 -0.453,-1.241 -0.726,-1.178 -1.149,-0.816 -1.088,-0.815 -1.268,-0.453 -1.541,-0.091 -0.454,-0.363 -1.693,-0.998 -1.541,-1.783 -1.178,-1.269 -1.602,-1.36 -1.361,-0.815 -1.45,-0.968 -1.268,-0.816 -0.816,-0.907 -1.422,-1.359 -2.174,-1.875 -1.36,-1.088 -1.24,-0.815 -1.541,-0.816 -1.541,-0.634 -0.816,-0.725 -1.421,-1.06 -0.454,-1.087 c 0,0 -0.354,-0.869 -0.697,-1.353 -0.338,-0.478 -1.025,-1.094 -1.025,-1.094 l -1.541,-0.997 -1.36,-0.635 -0.968,-0.877 -1.54,-0.906 -0.997,-1.179 c 0,0 -0.693,-0.516 -0.907,-0.997 -0.16,-0.361 -0.04,-0.628 -0.181,-0.997 -0.144,-0.376 -0.272,-0.58 -0.544,-0.877 -0.337,-0.37 -0.653,-0.432 -1.059,-0.725 -0.286,-0.207 -0.404,-0.396 -0.725,-0.544 -0.808,-0.374 -1.376,0.248 -2.266,0.272 -0.732,0.02 -1.143,-0.115 -1.875,-0.091 -0.906,0.03 -1.398,0.321 -2.306,0.309 -0.544,-0.006 -0.872,-0.309 -1.389,-0.139 -0.438,0.145 -0.625,0.387 -0.927,0.737 -0.311,0.359 -0.502,0.594 -0.606,1.058 -0.077,0.345 -0.099,0.568 0,0.907 0.166,0.568 0.588,0.729 1.059,1.087 0.391,0.298 0.63,0.458 1.088,0.634 0.537,0.209 0.936,0.014 1.45,0.273 0.36,0.181 0.816,0.634 0.816,0.634 l 1.059,1.421 1.45,1.541 1.269,1.451 0.635,0.906 0.906,1.088 1.421,1.149 0.997,0.544 c 0,0 0.916,0.037 1.358,0.362 0.41,0.303 0.727,1.088 0.727,1.088 l 1.903,1.631 1.421,1.422 0.907,0.997 1.36,1.088 0.725,0.725 0.453,0.453 c 0,0 0.528,0.594 0.968,0.816 0.546,0.274 0.945,0.139 1.541,0.272 0.536,0.12 0.859,0.136 1.359,0.362 0.594,0.268 0.916,0.493 1.361,0.968 0.241,0.258 0.359,0.424 0.543,0.725 0.203,0.334 0.425,0.907 0.425,0.907 l 0.725,1.087 1.903,2.147 1.178,0.815 1.36,1.088 0.968,0.816 1.631,1.088 0.906,0.906 1.088,0.969 0.878,0.815 1.088,1.088 2.447,1.812 1.722,1.875 1.421,1.087 1.451,0.817 1.449,0.906 0.908,1.088 0.605,0.724 1.994,1.422 1.178,0.725 0.816,0.453 z"
             style="fill:#59c134;fill-opacity:1;fill-rule:nonzero;stroke:none"
             id="path80" />
        </g>
        <g
           id="g82"
           transform="translate(341.3936,412.2139)">
          <path
             d="M 0,0 0.816,0.635 1.36,0.906 1.541,-15.413 1.179,-15.956 c 0,0 -7.342,-0.1 -12.035,-0.11 -1.515,-0.004 -3.883,0 -3.883,0 h -4.265 l -0.186,0.291 0.272,0.997 0.634,0.816 0.878,0.725 1.268,0.605 0.908,0.273 1.721,0.18 0.635,0.273 0.696,0.724 1.631,1.541 1.632,1.632 1.088,1.421 0.696,0.997 1.36,0.997 1.541,0.997 1.63,1.631 1.059,0.697 0.635,0.634 z"
             style="fill:#cd6610;fill-opacity:1;fill-rule:nonzero;stroke:none"
             id="path84" />
        </g>
        <g
           id="g86"
           transform="translate(268.0649,381.0205)">
          <path
             d="M 0,0 1.737,1.168 2.85,2.183 c 0,0 0.722,0.646 1.279,0.889 C 4.524,3.245 4.764,3.333 5.193,3.371 5.605,3.408 5.859,3.415 6.25,3.278 6.562,3.17 6.717,3.05 6.979,2.851 7.3,2.606 7.513,2.469 7.703,2.114 7.892,1.762 7.774,1.484 7.917,1.11 8.05,0.763 8.248,0.624 8.38,0.276 8.575,-0.235 8.506,-0.571 8.593,-1.113 8.656,-1.504 8.805,-1.721 8.76,-2.114 8.704,-2.603 8.375,-2.784 8.195,-3.242 7.963,-3.83 8.104,-4.267 7.778,-4.809 7.522,-5.235 7.293,-5.43 6.898,-5.734 6.376,-6.138 5.984,-6.214 5.378,-6.475 5.021,-6.629 4.788,-6.648 4.453,-6.846 3.935,-7.149 3.729,-7.453 3.341,-7.91 3.059,-8.243 2.683,-8.815 2.683,-8.815 L 1.767,-9.477 0.794,-10.032 -0.17,-10.079 c 0,0 -1.092,-0.222 -1.204,-0.277 -0.111,-0.056 -1.102,-0.695 -1.157,-0.695 -0.056,0 -0.649,-0.648 -0.649,-0.648 0,0 -0.509,-0.223 -0.833,-0.371 -0.302,-0.138 -0.444,-0.31 -0.772,-0.363 -0.422,-0.067 -0.654,0.137 -1.072,0.224 -0.686,0.144 -1.136,0.051 -1.76,0.371 -0.334,0.171 -0.565,0.252 -0.787,0.556 -0.303,0.414 -0.187,0.784 -0.231,1.296 -0.042,0.486 0.085,0.423 0,1.25 -0.008,0.078 0.332,1.157 0.332,1.157 0,0 0.494,0.597 0.825,0.965 0.436,0.483 0.758,0.687 1.156,1.201 0.451,0.582 0.44,1.107 0.968,1.62 0.506,0.492 1.57,0.899 1.57,0.899 l 1.002,0.891 1.168,0.778 1.002,0.557 z"
             style="fill:#59c134;fill-opacity:1;fill-rule:nonzero;stroke:none"
             id="path88" />
        </g>
        <g
           id="g90"
           transform="translate(236.043,478.9072)">
          <path
             d="m 0,0 c 0,-0.52 0.019,-0.818 0.595,-0.818 0.297,0 0.632,0.019 0.947,0.019 2.603,0 5.223,-0.149 9.33,-0.149 0.576,0 1.543,0 1.711,0.093 0.241,0.13 0.798,1.004 0.798,1.078 0,0.074 -0.186,0.353 -0.65,3.439 -0.13,0.854 -0.223,0.966 -0.558,0.966 -0.873,0 -1.449,-0.762 -1.486,-1.023 -0.056,-0.334 -0.094,-0.687 -0.094,-0.91 0,-0.427 0.075,-0.874 0.075,-1.301 0,-0.167 -0.056,-0.205 -0.223,-0.205 -3.141,0 -6.3,-0.055 -9.442,-0.055 C 0.297,1.134 0,0.65 0,0"
             style="fill:#231f20;fill-opacity:1;fill-rule:nonzero;stroke:none"
             id="path92" />
        </g>
        <g
           id="g94"
           transform="translate(239.1099,488.48)">
          <path
             d="m 0,0 c 1.896,0.26 3.902,0.781 4.293,0.781 0.167,0 0.167,-0.484 0.167,-0.614 0,-0.446 0.056,-0.855 0.056,-1.096 0,-0.131 -0.056,-0.242 -0.149,-0.242 -0.223,0 -2.881,0.688 -4.33,1.06 z m 10.11,-4.33 c 0.539,0 0.65,0.966 0.65,1.152 0,0.149 -0.073,0.409 -0.241,0.483 -1.078,0.484 -3.847,0.744 -3.847,1.115 0,0.242 -0.279,1.208 -0.279,2.138 0,0.13 0,0.353 0.037,0.464 1.208,0.428 3.624,0.54 3.624,1.543 0,0.464 -0.018,1.134 -0.371,1.134 -1.06,0 -11.858,-2.063 -12.36,-2.137 -0.427,-0.057 -0.65,-2.138 -0.65,-2.491 0,-0.223 0.093,-0.335 0.316,-0.409 2.23,-0.744 11.634,-2.992 13.121,-2.992"
             style="fill:#231f20;fill-opacity:1;fill-rule:evenodd;stroke:none"
             id="path96" />
        </g>
        <g
           id="g98"
           transform="translate(263.375,525.5825)">
          <path
             d="m 0,0 c -0.39,0 -1.71,-0.019 -1.933,-0.372 -0.074,-0.111 -0.074,-0.278 -0.074,-0.576 0,-3.494 -0.037,-6.375 -0.037,-9.255 0,-0.446 0.037,-0.874 0.037,-1.301 0,-1.227 0.018,-1.394 0.056,-1.45 0.297,-0.446 1.04,-0.688 1.43,-0.688 0.502,0 0.54,0.614 0.54,1.097 0,0.576 -0.038,0.948 -0.038,1.319 0,0.502 0.093,2.026 0.093,2.324 0,0.074 0.056,0.149 0.205,0.204 1.375,0.576 3.884,1.617 3.884,4.962 0,1.32 -0.52,1.97 -1.319,2.751 C 1.952,-0.111 0.948,0 0,0 m 0.074,-4.182 c 0,0.409 -0.036,0.818 -0.036,1.227 0,0.223 0.036,0.465 0.036,0.688 0,0.241 0.223,0.26 0.428,0.26 1.171,0 1.431,-0.669 1.431,-1.803 0,-1.003 -0.688,-2.695 -1.636,-2.695 -0.204,0 -0.223,0.13 -0.223,0.335 z"
             style="fill:#231f20;fill-opacity:1;fill-rule:evenodd;stroke:none"
             id="path100" />
        </g>
        <g
           id="g102"
           transform="translate(269.6035,517.0518)">
          <path
             d="m 0,0 c 0,-0.836 0.093,-1.654 0.093,-2.472 0,-1.728 0,-1.895 0.074,-2.1 0.056,-0.148 0.836,-0.353 1.375,-0.353 0.224,0 0.316,0.093 0.316,0.186 0,0.372 0.075,1.505 0.075,2.565 0,2.118 0,2.304 0.13,2.304 0.074,0 0.26,-0.316 0.539,-0.743 0.279,-0.39 2.936,-4.498 3.866,-4.498 0.483,0 0.873,0.669 0.873,0.874 0,0.52 -2.955,4.665 -2.955,4.739 0,0.167 0.26,0.334 0.539,0.483 0.595,0.316 2.565,1.896 2.565,3.736 0,1.245 -1.375,3.55 -3.438,3.55 -1.71,0 -2.156,-0.409 -2.417,-0.409 -0.334,0 -0.557,0.167 -0.817,0.26 -0.112,0 -0.279,0 -0.502,-0.223 C 0,7.583 0,4.851 0,4.033 Z m 2.1,5.501 c 0,0.651 1.821,0.837 2.268,0.837 0.576,0 1.04,-0.038 1.04,-0.725 0,-2.231 -2.899,-3.68 -3.178,-3.68 -0.148,0 -0.167,0.019 -0.167,0.149 0,0.427 0.037,0.855 0.037,1.264 z"
             style="fill:#231f20;fill-opacity:1;fill-rule:evenodd;stroke:none"
             id="path104" />
        </g>
        <g
           id="g106"
           transform="translate(286.9824,519.2446)">
          <path
             d="m 0,0 c 0,1.654 -0.353,4.164 -2.1,5.464 -0.149,0.112 -0.26,0.149 -0.743,0.279 -0.762,0.204 -1.487,0.595 -1.951,0.595 -2.343,0 -3.29,-5.149 -3.29,-7.1 0,-2.806 1.041,-6.542 4.479,-6.542 C -0.947,-7.304 0,-1.877 0,0 m -3.772,4.554 c 0.892,0 1.468,-2.658 1.468,-4.312 0,-1.096 -0.669,-5.836 -2.342,-5.836 -0.818,0 -1.245,2.657 -1.245,4.312 0,1.096 0.669,5.836 2.119,5.836"
             style="fill:#231f20;fill-opacity:1;fill-rule:evenodd;stroke:none"
             id="path108" />
        </g>
        <g
           id="g110"
           transform="translate(296.3154,519.7095)">
          <path
             d="m 0,0 c 0,2.212 -0.818,3.42 -1.914,4.423 -0.763,0.706 -2.361,1.153 -3.272,1.153 -0.241,0 -1.635,-0.019 -1.635,-0.409 0,-0.112 0.092,-0.26 0.092,-0.502 0,-3.531 -0.056,-7.044 -0.056,-10.575 0,-0.725 0.038,-1.227 0.131,-1.245 0.167,-0.037 1.561,-0.818 1.896,-0.818 0.576,0 1.431,0.669 1.691,0.873 C -1.004,-5.482 0,-2.899 0,0 m -4.702,1.301 c 0,0.465 0.018,1.394 0.093,1.896 0.018,0.111 0.185,0.149 0.446,0.149 1.598,0 1.895,-2.249 1.895,-3.42 0,-1.487 -0.743,-3.643 -1.486,-4.61 -0.131,-0.167 -0.67,-0.873 -0.874,-0.873 -0.037,0 -0.074,0.075 -0.074,1.301 z"
             style="fill:#231f20;fill-opacity:1;fill-rule:evenodd;stroke:none"
             id="path112" />
        </g>
        <g
           id="g114"
           transform="translate(299.1592,517.3491)">
          <path
             d="m 0,0 c 0,-1.784 0.483,-3.624 0.948,-4.014 0.892,-0.744 2.044,-1.394 2.974,-1.394 2.527,0 2.862,3.029 2.862,5.26 0,1.523 -0.037,3.047 -0.037,4.571 0,0.707 0.037,1.413 0.037,3.03 0,0.335 -1.208,0.52 -1.469,0.52 -0.557,0 -0.669,-0.018 -0.669,-1.301 0,-0.818 0.056,-2.174 0.056,-4.442 0,-2.49 0,-5.705 -1.319,-5.705 -1.097,0 -1.338,1.208 -1.338,3.494 0,2.378 0.223,3.475 0.223,7.118 0,0.279 -0.986,0.576 -1.542,0.576 -0.41,0 -0.447,-0.26 -0.447,-1.282 C 0.279,6.003 0,2.305 0,0"
             style="fill:#231f20;fill-opacity:1;fill-rule:nonzero;stroke:none"
             id="path116" />
        </g>
        <g
           id="g118"
           transform="translate(308.5098,517.1636)">
          <path
             d="m 0,0 c 0,-2.23 0.613,-5.223 3.438,-5.223 2.528,0 3.308,2.844 3.308,4.331 0,0.892 -0.445,1.226 -1.077,1.226 -1.041,0 -1.041,-4.033 -2.491,-4.033 -0.873,0 -0.873,3.55 -0.873,4.331 0,1.71 0.799,5.705 1.356,5.705 0.8,0 0,-3.215 1.841,-3.215 0.836,0 0.836,0.391 0.836,1.952 0,1.412 -0.186,2.23 -1.245,2.62 C 4.888,7.769 4.163,8.419 3.457,8.419 0.799,8.419 0,2.193 0,0"
             style="fill:#231f20;fill-opacity:1;fill-rule:nonzero;stroke:none"
             id="path120" />
        </g>
        <g
           id="g122"
           transform="translate(317.1182,517.1636)">
          <path
             d="m 0,0 c 0,-2.23 0.613,-5.223 3.438,-5.223 2.528,0 3.308,2.844 3.308,4.331 0,0.892 -0.445,1.226 -1.077,1.226 -1.041,0 -1.041,-4.033 -2.491,-4.033 -0.873,0 -0.873,3.55 -0.873,4.331 0,1.71 0.799,5.705 1.356,5.705 0.799,0 0,-3.215 1.84,-3.215 0.837,0 0.837,0.391 0.837,1.952 0,1.412 -0.187,2.23 -1.246,2.62 C 4.888,7.769 4.163,8.419 3.457,8.419 0.799,8.419 0,2.193 0,0"
             style="fill:#231f20;fill-opacity:1;fill-rule:nonzero;stroke:none"
             id="path124" />
        </g>
        <g
           id="g126"
           transform="translate(326.6553,512.9634)">
          <path
             d="m 0,0 c 0,-0.465 1.395,-1.022 1.617,-1.022 0.502,0 0.484,0.39 0.484,1.17 0,2.918 -0.019,5.836 -0.019,8.754 0,1.022 0.037,2.026 0.037,3.048 0,0.298 -0.632,0.669 -1.134,0.669 -0.724,0 -0.891,-0.056 -0.891,-1.078 C 0.094,10.408 0,9.255 0,8.121 Z"
             style="fill:#231f20;fill-opacity:1;fill-rule:nonzero;stroke:none"
             id="path128" />
        </g>
        <g
           id="g130"
           transform="translate(339.668,519.2446)">
          <path
             d="m 0,0 c 0,1.654 -0.354,4.164 -2.101,5.464 -0.148,0.112 -0.259,0.149 -0.743,0.279 -0.761,0.204 -1.486,0.595 -1.951,0.595 -2.342,0 -3.29,-5.149 -3.29,-7.1 0,-2.806 1.041,-6.542 4.48,-6.542 C -0.948,-7.304 0,-1.877 0,0 m -3.772,4.554 c 0.891,0 1.467,-2.658 1.467,-4.312 0,-1.096 -0.669,-5.836 -2.341,-5.836 -0.818,0 -1.246,2.657 -1.246,4.312 0,1.096 0.669,5.836 2.12,5.836 m 1.671,5.408 c -0.204,0 -3.493,-1.747 -3.605,-1.84 -0.074,-0.056 -0.167,-0.13 -0.167,-0.205 0,-0.167 0.074,-0.594 0.391,-0.594 0.296,0 3.14,1.189 3.716,1.338 0.204,0.056 0.242,0.111 0.242,0.316 0,0.242 -0.223,0.985 -0.577,0.985"
             style="fill:#231f20;fill-opacity:1;fill-rule:evenodd;stroke:none"
             id="path132" />
        </g>
        <g
           id="g134"
           transform="translate(244.4253,378.9561)">
          <path
             d="m 0,0 c 2.231,0 5.225,0.613 5.225,3.439 0,2.529 -2.845,3.31 -4.332,3.31 C 0,6.749 -0.334,6.303 -0.334,5.671 -0.334,4.629 3.7,4.629 3.7,3.18 3.7,2.306 0.149,2.306 -0.632,2.306 c -1.711,0 -5.708,0.799 -5.708,1.356 0,0.8 3.216,0 3.216,1.841 0,0.837 -0.39,0.837 -1.952,0.837 -1.413,0 -2.231,-0.186 -2.621,-1.245 C -7.771,4.89 -8.422,4.165 -8.422,3.458 -8.422,0.8 -2.194,0 0,0"
             style="fill:#231f20;fill-opacity:1;fill-rule:nonzero;stroke:none"
             id="path136" />
        </g>
        <g
           id="g138"
           transform="translate(242.3428,395.2803)">
          <path
             d="m 0,0 c -1.654,0 -4.165,-0.354 -5.466,-2.101 -0.112,-0.149 -0.149,-0.26 -0.279,-0.744 -0.204,-0.761 -0.595,-1.487 -0.595,-1.952 0,-2.343 5.15,-3.291 7.103,-3.291 2.807,0 6.544,1.041 6.544,4.482 C 7.307,-0.948 1.878,0 0,0 m -4.555,-3.774 c 0,0.892 2.659,1.468 4.313,1.468 1.097,0 5.839,-0.669 5.839,-2.342 0,-0.818 -2.659,-1.246 -4.314,-1.246 -1.097,0 -5.838,0.669 -5.838,2.12"
             style="fill:#231f20;fill-opacity:1;fill-rule:evenodd;stroke:none"
             id="path140" />
        </g>
        <g
           id="g142"
           transform="translate(245.2617,399.8896)">
          <path
             d="m 0,0 c -0.502,0 -1.246,-0.019 -1.543,-0.056 -0.279,-0.037 -0.595,-0.037 -0.762,-0.037 -0.484,0 -0.539,0 -0.539,0.074 0,0.093 4.239,1.953 6.284,3.031 0.297,0.148 0.372,0.259 0.372,0.539 0,0.316 0.037,0.633 0.037,0.948 0,0.409 -0.149,0.483 -1.618,0.483 H -8.143 c -0.521,0 -0.818,-0.074 -0.856,-0.204 -0.13,-0.465 -0.26,-1.004 -0.26,-1.209 0,-0.465 0.205,-0.52 0.8,-0.52 1.915,0 3.923,-0.149 5.931,-0.149 0.502,0 1.004,0.038 1.487,0.038 0.149,0 0.335,-0.019 0.335,-0.075 0,-0.092 -0.707,-0.26 -1.376,-0.576 -2.547,-1.209 -5.801,-1.989 -5.968,-2.455 -0.261,-0.743 -0.354,-1.06 -0.354,-1.356 0,-0.372 0.131,-0.428 0.781,-0.428 2.102,0 4.239,-0.131 6.34,-0.131 h 2.882 c 0.409,0 0.837,0.057 1.246,0.057 0.52,0 1.06,0 1.097,0.167 0.056,0.279 0.446,0.874 0.446,1.152 C 4.388,-0.13 4.09,0 3.533,0 Z"
             style="fill:#231f20;fill-opacity:1;fill-rule:nonzero;stroke:none"
             id="path144" />
        </g>
        <g
           id="g146"
           transform="translate(240.186,407.8086)">
          <path
             d="m 0,0 c 2.994,0 3.905,3.57 6.229,3.57 0.818,0 1.264,-0.037 1.264,-0.948 0,-1.152 -2.176,-2.194 -2.176,-3.104 0,-0.335 0.28,-0.428 0.558,-0.428 2.083,0 3.589,2.119 3.589,4.071 0,1.265 -1.748,2.938 -3.012,2.938 -3.31,0 -4.462,-4.016 -6.619,-4.016 -0.837,0 -1.785,1.041 -1.785,1.376 0,0.111 0.074,0.167 0.279,0.167 2.138,0 2.733,0.8 2.733,1.729 0,0.707 -0.632,0.8 -1.302,0.8 -1.673,0 -2.528,-0.39 -3.328,-1.674 C -4.053,3.7 -4.183,3.31 -4.183,3.217 -4.183,2.548 -3.012,0 0,0"
             style="fill:#231f20;fill-opacity:1;fill-rule:nonzero;stroke:none"
             id="path148" />
        </g>
        <g
           id="g150"
           transform="translate(247.8276,416.4541)">
          <path
             d="m 0,0 c 1.116,0 1.785,0.595 1.785,1.747 0,0.502 -0.558,3.087 -0.558,3.384 0,0.298 -0.111,0.428 -0.428,0.428 -1.301,0 -1.692,-0.744 -1.692,-1.041 0,-0.242 0.372,-1.86 0.372,-2.25 0,-0.316 -0.148,-0.334 -0.483,-0.334 H -3.31 c -0.78,0 -0.892,0.074 -0.892,0.874 0,0.891 -0.167,1.375 -0.167,2.082 0,0.148 -0.111,0.446 -0.335,0.446 -1.506,0 -1.729,-0.335 -1.729,-0.948 0,-1.358 0.149,-1.952 0.149,-2.287 0,-0.056 -0.074,-0.075 -0.13,-0.075 -0.446,0 -1.767,0.075 -2.361,0.075 -0.484,0 -0.633,0.055 -0.633,0.948 0,1.692 -0.297,2.156 -0.743,2.156 -0.67,0 -1.413,-0.576 -1.413,-1.078 0,-0.911 0.316,-1.915 0.316,-2.845 0,-0.241 -0.075,-0.408 -0.075,-0.576 0,-0.391 0.409,-0.52 0.744,-0.539 C -7.474,0 -3.198,0 0,0"
             style="fill:#231f20;fill-opacity:1;fill-rule:nonzero;stroke:none"
             id="path152" />
        </g>
        <g
           id="g154"
           transform="translate(236.2632,425.9541)">
          <path
             d="m 0,0 c 0,-0.521 0.019,-0.817 0.595,-0.817 0.298,0 0.632,0.018 0.948,0.018 2.603,0 5.225,-0.149 9.333,-0.149 0.577,0 1.544,0 1.711,0.093 0.242,0.13 0.8,1.004 0.8,1.079 0,0.074 -0.186,0.353 -0.651,3.439 C 12.605,4.519 12.513,4.63 12.178,4.63 11.304,4.63 10.728,3.868 10.69,3.607 10.635,3.272 10.598,2.919 10.598,2.696 10.598,2.269 10.672,1.822 10.672,1.395 10.672,1.228 10.616,1.19 10.449,1.19 7.307,1.19 4.146,1.135 1.004,1.135 0.297,1.135 0,0.651 0,0"
             style="fill:#231f20;fill-opacity:1;fill-rule:nonzero;stroke:none"
             id="path156" />
        </g>
        <g
           id="g158"
           transform="translate(236.2632,433.186)">
          <path
             d="m 0,0 c 0,-0.521 0.019,-0.818 0.595,-0.818 0.298,0 0.632,0.019 0.948,0.019 2.603,0 5.225,-0.149 9.333,-0.149 0.577,0 1.544,0 1.711,0.093 0.242,0.13 0.8,1.004 0.8,1.078 0,0.074 -0.186,0.353 -0.651,3.44 -0.131,0.855 -0.223,0.966 -0.558,0.966 -0.874,0 -1.45,-0.762 -1.488,-1.022 -0.055,-0.335 -0.092,-0.688 -0.092,-0.911 0,-0.428 0.074,-0.874 0.074,-1.301 0,-0.168 -0.056,-0.206 -0.223,-0.206 C 7.307,1.189 4.146,1.134 1.004,1.134 0.297,1.134 0,0.65 0,0"
             style="fill:#231f20;fill-opacity:1;fill-rule:nonzero;stroke:none"
             id="path160" />
        </g>
        <g
           id="g162"
           transform="translate(241.8779,457.0444)">
          <path
             d="m 0,0 c -2.212,0 -3.421,-0.818 -4.425,-1.915 -0.706,-0.762 -1.153,-2.361 -1.153,-3.272 0,-0.242 0.019,-1.636 0.41,-1.636 0.111,0 0.26,0.093 0.501,0.093 3.533,0 7.047,-0.056 10.58,-0.056 0.725,0 1.227,0.037 1.245,0.13 0.037,0.168 0.818,1.562 0.818,1.897 0,0.576 -0.669,1.431 -0.873,1.692 C 5.485,-1.003 2.9,0 0,0 m -1.301,-4.704 c -0.465,0 -1.395,0.019 -1.897,0.094 -0.111,0.018 -0.149,0.185 -0.149,0.445 0,1.6 2.25,1.897 3.422,1.897 1.487,0 3.644,-0.744 4.611,-1.487 0.167,-0.13 0.873,-0.67 0.873,-0.874 0,-0.038 -0.074,-0.075 -1.301,-0.075 z"
             style="fill:#231f20;fill-opacity:1;fill-rule:evenodd;stroke:none"
             id="path164" />
        </g>
        <g
           id="g166"
           transform="translate(247.8276,459.9424)">
          <path
             d="m 0,0 c 1.116,0 1.785,0.595 1.785,1.748 0,0.502 -0.558,3.086 -0.558,3.383 0,0.298 -0.111,0.428 -0.428,0.428 -1.301,0 -1.692,-0.744 -1.692,-1.041 0,-0.242 0.372,-1.859 0.372,-2.25 0,-0.316 -0.148,-0.334 -0.483,-0.334 H -3.31 c -0.78,0 -0.892,0.074 -0.892,0.873 0,0.893 -0.167,1.376 -0.167,2.082 0,0.15 -0.111,0.446 -0.335,0.446 -1.506,0 -1.729,-0.334 -1.729,-0.947 0,-1.358 0.149,-1.953 0.149,-2.287 0,-0.056 -0.074,-0.075 -0.13,-0.075 -0.446,0 -1.767,0.075 -2.361,0.075 -0.484,0 -0.633,0.056 -0.633,0.948 0,1.692 -0.297,2.157 -0.743,2.157 -0.67,0 -1.413,-0.577 -1.413,-1.079 0,-0.911 0.316,-1.915 0.316,-2.844 0,-0.242 -0.075,-0.409 -0.075,-0.576 0,-0.391 0.409,-0.521 0.744,-0.54 C -7.474,0 -3.198,0 0,0"
             style="fill:#231f20;fill-opacity:1;fill-rule:nonzero;stroke:none"
             id="path168" />
        </g>
        <g
           id="g170"
           transform="translate(357.54,500.0884)">
          <path
             d="m 0,0 c -1.794,-0.246 -3.692,-0.738 -4.062,-0.738 -0.158,0 -0.158,0.457 -0.158,0.58 0,0.422 -0.052,0.809 -0.052,1.037 0,0.123 0.052,0.229 0.14,0.229 0.211,0 2.726,-0.65 4.097,-1.002 z m -9.564,4.097 c -0.51,0 -0.616,-0.914 -0.616,-1.09 0,-0.141 0.071,-0.387 0.229,-0.458 1.019,-0.457 3.638,-0.703 3.638,-1.054 0,-0.229 0.265,-1.143 0.265,-2.022 0,-0.123 0,-0.334 -0.035,-0.44 -1.144,-0.404 -3.429,-0.51 -3.429,-1.459 0,-0.439 0.018,-1.073 0.352,-1.073 1.002,0 11.217,1.952 11.691,2.022 0.405,0.053 0.615,2.022 0.615,2.356 0,0.211 -0.087,0.317 -0.298,0.387 -2.11,0.703 -11.006,2.831 -12.412,2.831"
             style="fill:#231f20;fill-opacity:1;fill-rule:evenodd;stroke:none"
             id="path172" />
        </g>
        <g
           id="g174"
           transform="translate(353.4434,495.0068)">
          <path
             d="m 0,0 c -2.462,0 -5.661,-0.773 -5.661,-3.797 0,-2.304 3.34,-3.499 5.239,-3.499 0.51,0 0.967,0.563 0.967,1.125 0,0.598 -0.457,3.604 -0.774,3.604 -0.228,0 -1.3,-0.334 -1.3,-1.564 0,-0.176 0.052,-0.37 0.052,-0.528 0,-0.123 -0.035,-0.352 -0.193,-0.352 -0.774,0 -2.585,0.809 -2.585,1.759 0,1.072 3.499,1.212 4.308,1.212 2.672,0 5.503,-1.582 5.503,-2.355 0,-0.176 -0.264,-0.176 -0.44,-0.176 -0.597,0 -1.213,0.052 -1.81,0.052 -0.951,0 -1.531,-0.158 -1.531,-1.195 0,-0.879 0.633,-1.019 1.742,-1.019 1.546,0 2.408,0.087 3.076,1.582 0.211,0.474 0.65,0.966 0.65,1.283 C 7.243,-1.881 3.394,0 0,0"
             style="fill:#231f20;fill-opacity:1;fill-rule:nonzero;stroke:none"
             id="path176" />
        </g>
        <g
           id="g178"
           transform="translate(352.6172,485.2358)">
          <path
             d="m 0,0 c -0.791,0 -1.565,-0.088 -2.339,-0.088 -1.635,0 -1.793,0 -1.986,-0.07 -0.141,-0.053 -0.334,-0.791 -0.334,-1.301 0,-0.211 0.088,-0.299 0.176,-0.299 0.351,0 1.423,-0.07 2.425,-0.07 2.005,0 2.181,0 2.181,-0.123 0,-0.07 -0.299,-0.246 -0.703,-0.51 -0.369,-0.264 -4.255,-2.778 -4.255,-3.657 0,-0.457 0.633,-0.826 0.826,-0.826 0.492,0 4.413,2.795 4.484,2.795 0.158,0 0.316,-0.246 0.457,-0.51 0.298,-0.563 1.793,-2.426 3.534,-2.426 1.178,0 3.357,1.301 3.357,3.252 0,1.618 -0.386,2.04 -0.386,2.286 0,0.317 0.158,0.527 0.246,0.774 0,0.105 0,0.263 -0.211,0.474 C 7.173,0 4.589,0 3.815,0 Z m 5.204,-1.986 c 0.615,0 0.791,-1.723 0.791,-2.145 0,-0.545 -0.035,-0.985 -0.685,-0.985 -2.111,0 -3.482,2.743 -3.482,3.007 0,0.14 0.018,0.158 0.141,0.158 0.404,0 0.808,-0.035 1.196,-0.035 z"
             style="fill:#231f20;fill-opacity:1;fill-rule:evenodd;stroke:none"
             id="path180" />
        </g>
        <g
           id="g182"
           transform="translate(357.54,472.7388)">
          <path
             d="m 0,0 c -1.794,-0.246 -3.692,-0.738 -4.062,-0.738 -0.158,0 -0.158,0.457 -0.158,0.58 0,0.422 -0.052,0.808 -0.052,1.037 0,0.123 0.052,0.229 0.14,0.229 0.211,0 2.726,-0.651 4.097,-1.003 z m -9.564,4.097 c -0.51,0 -0.616,-0.914 -0.616,-1.09 0,-0.141 0.071,-0.387 0.229,-0.458 1.019,-0.457 3.638,-0.703 3.638,-1.054 0,-0.229 0.265,-1.143 0.265,-2.022 0,-0.123 0,-0.334 -0.035,-0.44 -1.144,-0.404 -3.429,-0.51 -3.429,-1.459 0,-0.439 0.018,-1.073 0.352,-1.073 1.002,0 11.217,1.952 11.691,2.022 0.405,0.053 0.615,2.022 0.615,2.356 0,0.211 -0.087,0.317 -0.298,0.387 C 0.738,1.969 -8.158,4.097 -9.564,4.097 M 6.575,1.635 C 6.575,1.969 5.872,2.18 5.644,2.18 5.45,2.18 5.397,2.145 5.345,1.952 5.204,1.407 4.079,-1.283 4.079,-1.564 c 0,-0.299 0.404,-0.37 0.563,-0.37 0.07,0 0.14,0.088 0.193,0.159 0.088,0.105 1.74,3.217 1.74,3.41"
             style="fill:#231f20;fill-opacity:1;fill-rule:evenodd;stroke:none"
             id="path184" />
        </g>
        <g
           id="g186"
           transform="translate(352.6172,467.0068)">
          <path
             d="m 0,0 c -0.791,0 -1.565,-0.088 -2.339,-0.088 -1.635,0 -1.793,0 -1.986,-0.07 -0.141,-0.053 -0.334,-0.791 -0.334,-1.301 0,-0.211 0.088,-0.299 0.176,-0.299 0.351,0 1.423,-0.071 2.425,-0.071 2.005,0 2.181,0 2.181,-0.123 0,-0.07 -0.299,-0.246 -0.703,-0.509 -0.369,-0.264 -4.255,-2.778 -4.255,-3.657 0,-0.457 0.633,-0.827 0.826,-0.827 0.492,0 4.413,2.796 4.484,2.796 0.158,0 0.316,-0.247 0.457,-0.51 0.298,-0.563 1.793,-2.426 3.534,-2.426 1.178,0 3.357,1.301 3.357,3.252 0,1.618 -0.386,2.04 -0.386,2.286 0,0.316 0.158,0.527 0.246,0.774 0,0.105 0,0.263 -0.211,0.474 C 7.173,0 4.589,0 3.815,0 Z m 5.204,-1.987 c 0.615,0 0.791,-1.723 0.791,-2.145 0,-0.545 -0.035,-0.984 -0.685,-0.984 -2.111,0 -3.482,2.742 -3.482,3.006 0,0.141 0.018,0.158 0.141,0.158 0.404,0 0.808,-0.035 1.196,-0.035 z"
             style="fill:#231f20;fill-opacity:1;fill-rule:evenodd;stroke:none"
             id="path188" />
        </g>
        <g
           id="g190"
           transform="translate(348.749,457.3403)">
          <path
             d="m 0,0 c -0.439,0 -0.967,-1.319 -0.967,-1.529 0,-0.475 0.369,-0.458 1.108,-0.458 2.76,0 5.52,0.018 8.281,0.018 0.967,0 1.916,-0.035 2.883,-0.035 0.281,0 0.633,0.597 0.633,1.072 0,0.686 -0.053,0.844 -1.02,0.844 C 9.846,-0.088 8.756,0 7.684,0 Z"
             style="fill:#231f20;fill-opacity:1;fill-rule:nonzero;stroke:none"
             id="path192" />
        </g>
        <g
           id="g194"
           transform="translate(357.54,448.9722)">
          <path
             d="m 0,0 c -1.794,-0.246 -3.692,-0.738 -4.062,-0.738 -0.158,0 -0.158,0.457 -0.158,0.58 0,0.422 -0.052,0.808 -0.052,1.037 0,0.123 0.052,0.228 0.14,0.228 0.211,0 2.726,-0.65 4.097,-1.002 z m -9.564,4.097 c -0.51,0 -0.616,-0.914 -0.616,-1.091 0,-0.14 0.071,-0.386 0.229,-0.457 1.019,-0.457 3.638,-0.703 3.638,-1.055 0,-0.228 0.265,-1.142 0.265,-2.021 0,-0.123 0,-0.334 -0.035,-0.44 -1.144,-0.404 -3.429,-0.51 -3.429,-1.459 0,-0.44 0.018,-1.073 0.352,-1.073 1.002,0 11.217,1.952 11.691,2.022 0.405,0.053 0.615,2.022 0.615,2.356 0,0.211 -0.087,0.316 -0.298,0.387 -2.11,0.703 -11.006,2.831 -12.412,2.831"
             style="fill:#231f20;fill-opacity:1;fill-rule:evenodd;stroke:none"
             id="path196" />
        </g>
        <g
           id="g198"
           transform="translate(349.5049,440.1128)">
          <path
             d="m 0,0 c -1.055,0 -1.688,-0.563 -1.688,-1.652 0,-0.475 0.528,-2.919 0.528,-3.2 0,-0.282 0.105,-0.404 0.404,-0.404 1.231,0 1.6,0.703 1.6,0.984 0,0.229 -0.352,1.758 -0.352,2.127 0,0.299 0.141,0.317 0.457,0.317 H 3.13 c 0.738,0 0.844,-0.07 0.844,-0.827 0,-0.844 0.158,-1.301 0.158,-1.969 0,-0.14 0.105,-0.422 0.316,-0.422 1.424,0 1.635,0.317 1.635,0.897 0,1.283 -0.141,1.846 -0.141,2.163 0,0.052 0.071,0.07 0.123,0.07 0.422,0 1.671,-0.07 2.234,-0.07 0.457,0 0.597,-0.053 0.597,-0.897 0,-1.6 0.282,-2.039 0.704,-2.039 0.632,0 1.336,0.545 1.336,1.019 0,0.861 -0.299,1.811 -0.299,2.69 0,0.229 0.07,0.387 0.07,0.545 0,0.369 -0.387,0.492 -0.703,0.51 C 7.068,0 3.024,0 0,0"
             style="fill:#231f20;fill-opacity:1;fill-rule:nonzero;stroke:none"
             id="path200" />
        </g>
        <g
           id="g202"
           transform="translate(352.7227,432.6245)">
          <path
             d="m 0,0 c -2.11,0 -4.94,-0.58 -4.94,-3.252 0,-2.391 2.689,-3.13 4.096,-3.13 0.844,0 1.16,0.422 1.16,1.02 0,0.985 -3.815,0.985 -3.815,2.356 0,0.826 3.358,0.826 4.097,0.826 1.617,0 5.397,-0.756 5.397,-1.283 0,-0.756 -3.042,0 -3.042,-1.741 0,-0.791 0.37,-0.791 1.847,-0.791 1.336,0 2.109,0.176 2.478,1.178 0.071,0.193 0.686,0.879 0.686,1.547 C 7.964,-0.756 2.074,0 0,0"
             style="fill:#231f20;fill-opacity:1;fill-rule:nonzero;stroke:none"
             id="path204" />
        </g>
        <g
           id="g206"
           transform="translate(354.6914,416.8379)">
          <path
             d="m 0,0 c 1.564,0 3.938,0.334 5.169,1.986 0.105,0.141 0.141,0.246 0.264,0.704 0.193,0.721 0.562,1.407 0.562,1.846 0,2.215 -4.87,3.112 -6.716,3.112 -2.654,0 -6.188,-0.984 -6.188,-4.237 C -6.909,0.896 -1.775,0 0,0 M 4.308,3.569 C 4.308,2.726 1.794,2.18 0.229,2.18 c -1.038,0 -5.521,0.633 -5.521,2.216 0,0.773 2.515,1.178 4.079,1.178 1.037,0 5.521,-0.634 5.521,-2.005"
             style="fill:#231f20;fill-opacity:1;fill-rule:evenodd;stroke:none"
             id="path208" />
        </g>
        <g
           id="g210"
           transform="translate(360.4404,413.5527)">
          <path
             d="m 0,0 c 0,0.492 -0.018,0.773 -0.563,0.773 -0.281,0 -0.597,-0.017 -0.896,-0.017 -2.461,0 -4.94,0.14 -8.826,0.14 -0.545,0 -1.459,0 -1.617,-0.087 -0.229,-0.123 -0.756,-0.95 -0.756,-1.02 0,-0.07 0.176,-0.334 0.615,-3.252 0.123,-0.808 0.211,-0.915 0.527,-0.915 0.827,0 1.371,0.722 1.407,0.968 0.052,0.316 0.088,0.65 0.088,0.861 0,0.404 -0.071,0.826 -0.071,1.231 0,0.158 0.053,0.193 0.211,0.193 2.972,0 5.961,0.053 8.932,0.053 C -0.281,-1.072 0,-0.615 0,0"
             style="fill:#231f20;fill-opacity:1;fill-rule:nonzero;stroke:none"
             id="path212" />
        </g>
        <g
           id="g214"
           transform="translate(354.6914,400.5625)">
          <path
             d="m 0,0 c 1.564,0 3.938,0.334 5.169,1.987 0.105,0.141 0.141,0.246 0.264,0.703 0.193,0.721 0.562,1.407 0.562,1.847 0,2.215 -4.87,3.111 -6.716,3.111 -2.654,0 -6.188,-0.984 -6.188,-4.237 C -6.909,0.897 -1.775,0 0,0 m 4.308,3.569 c 0,-0.843 -2.514,-1.388 -4.079,-1.388 -1.038,0 -5.521,0.632 -5.521,2.215 0,0.774 2.515,1.178 4.079,1.178 1.037,0 5.521,-0.633 5.521,-2.005 M 9.424,5.662 C 9.424,5.996 8.721,6.207 8.492,6.207 8.299,6.207 8.246,6.172 8.193,5.979 8.053,5.434 6.928,2.743 6.928,2.462 c 0,-0.299 0.404,-0.369 0.562,-0.369 0.071,0 0.141,0.088 0.194,0.158 0.087,0.105 1.74,3.218 1.74,3.411"
             style="fill:#231f20;fill-opacity:1;fill-rule:evenodd;stroke:none"
             id="path216" />
        </g>
        <g
           id="g218"
           transform="translate(353.4434,398.7734)">
          <path
             d="m 0,0 c -2.462,0 -5.661,-0.773 -5.661,-3.798 0,-2.303 3.34,-3.499 5.239,-3.499 0.51,0 0.967,0.563 0.967,1.126 0,0.598 -0.457,3.604 -0.774,3.604 -0.228,0 -1.3,-0.334 -1.3,-1.565 0,-0.176 0.052,-0.369 0.052,-0.527 0,-0.123 -0.035,-0.352 -0.193,-0.352 -0.774,0 -2.585,0.809 -2.585,1.758 0,1.072 3.499,1.213 4.308,1.213 2.672,0 5.503,-1.582 5.503,-2.356 0,-0.175 -0.264,-0.175 -0.44,-0.175 -0.597,0 -1.213,0.052 -1.81,0.052 -0.951,0 -1.531,-0.158 -1.531,-1.195 0,-0.879 0.633,-1.02 1.742,-1.02 1.546,0 2.408,0.088 3.076,1.583 0.211,0.474 0.65,0.966 0.65,1.283 C 7.243,-1.882 3.394,0 0,0"
             style="fill:#231f20;fill-opacity:1;fill-rule:nonzero;stroke:none"
             id="path220" />
        </g>
        <g
           id="g222"
           transform="translate(348.749,388.7734)">
          <path
             d="m 0,0 c -0.439,0 -0.967,-1.318 -0.967,-1.529 0,-0.475 0.369,-0.457 1.108,-0.457 2.76,0 5.52,0.017 8.281,0.017 0.967,0 1.916,-0.035 2.883,-0.035 0.281,0 0.633,0.598 0.633,1.072 0,0.686 -0.053,0.844 -1.02,0.844 C 9.846,-0.088 8.756,0 7.684,0 Z"
             style="fill:#231f20;fill-opacity:1;fill-rule:nonzero;stroke:none"
             id="path224" />
        </g>
        <g
           id="g226"
           transform="translate(352.7227,384.1152)">
          <path
             d="m 0,0 c -2.11,0 -4.94,-0.58 -4.94,-3.253 0,-2.391 2.689,-3.129 4.096,-3.129 0.844,0 1.16,0.422 1.16,1.02 0,0.984 -3.815,0.984 -3.815,2.355 0,0.827 3.358,0.827 4.097,0.827 1.617,0 5.397,-0.757 5.397,-1.284 0,-0.756 -3.042,0 -3.042,-1.74 0,-0.791 0.37,-0.791 1.847,-0.791 1.336,0 2.109,0.176 2.478,1.178 0.071,0.193 0.686,0.879 0.686,1.546 C 7.964,-0.756 2.074,0 0,0"
             style="fill:#231f20;fill-opacity:1;fill-rule:nonzero;stroke:none"
             id="path228" />
        </g>
        <g
           id="g230"
           transform="translate(357.54,372.2666)">
          <path
             d="m 0,0 c -1.794,-0.246 -3.692,-0.738 -4.062,-0.738 -0.158,0 -0.158,0.457 -0.158,0.58 0,0.422 -0.052,0.808 -0.052,1.037 0,0.123 0.052,0.228 0.14,0.228 0.211,0 2.726,-0.65 4.097,-1.002 z m -9.564,4.097 c -0.51,0 -0.616,-0.914 -0.616,-1.09 0,-0.141 0.071,-0.387 0.229,-0.457 1.019,-0.457 3.638,-0.703 3.638,-1.055 0,-0.229 0.265,-1.143 0.265,-2.022 0,-0.123 0,-0.334 -0.035,-0.44 -1.144,-0.404 -3.429,-0.51 -3.429,-1.459 0,-0.439 0.018,-1.072 0.352,-1.072 1.002,0 11.217,1.951 11.691,2.021 0.405,0.053 0.615,2.022 0.615,2.356 0,0.211 -0.087,0.316 -0.298,0.387 C 0.738,1.97 -8.158,4.097 -9.564,4.097"
             style="fill:#231f20;fill-opacity:1;fill-rule:evenodd;stroke:none"
             id="path232" />
        </g>
        <g
           id="g234"
           transform="translate(269.291,322.3994)">
          <path
             d="m 0,0 c 1.817,0 3.303,0.719 4.458,2.158 l 2.37,-2.442 C 4.947,-2.403 2.73,-3.463 0.177,-3.463 c -2.552,0 -4.655,0.807 -6.306,2.419 -1.653,1.612 -2.479,3.648 -2.479,6.106 0,2.459 0.842,4.509 2.526,6.154 1.683,1.643 3.743,2.465 6.176,2.465 2.719,0 4.995,-1.035 6.83,-3.106 L 4.623,7.967 c -1.169,1.453 -2.624,2.181 -4.362,2.181 -1.392,0 -2.581,-0.456 -3.57,-1.363 -0.986,-0.91 -1.48,-2.135 -1.48,-3.676 0,-1.541 0.465,-2.778 1.397,-3.711 C -2.459,0.466 -1.329,0 0,0"
             style="fill:#231f20;fill-opacity:1;fill-rule:nonzero;stroke:none"
             id="path236" />
        </g>
        <g
           id="g238"
           transform="translate(286.6484,322.3994)">
          <path
             d="m 0,0 c 1.816,0 3.303,0.719 4.456,2.158 l 2.371,-2.442 c -1.881,-2.119 -4.098,-3.179 -6.65,-3.179 -2.553,0 -4.656,0.807 -6.307,2.419 -1.652,1.612 -2.478,3.648 -2.478,6.106 0,2.459 0.841,4.509 2.526,6.154 1.682,1.643 3.741,2.465 6.177,2.465 2.718,0 4.994,-1.035 6.828,-3.106 L 4.622,7.967 C 3.453,9.42 1.999,10.148 0.261,10.148 -1.132,10.148 -2.32,9.692 -3.308,8.785 -4.296,7.875 -4.79,6.65 -4.79,5.109 -4.79,3.568 -4.325,2.331 -3.392,1.398 -2.459,0.466 -1.329,0 0,0"
             style="fill:#231f20;fill-opacity:1;fill-rule:nonzero;stroke:none"
             id="path240" />
        </g>
        <g
           id="g242"
           transform="translate(307.8096,334.2197)">
          <path
             d="m 0,0 c 1.162,-0.988 1.744,-2.506 1.744,-4.553 0,-2.048 -0.598,-3.544 -1.79,-4.493 -1.194,-0.949 -3.017,-1.423 -5.467,-1.423 h -2.204 v -4.624 h -3.699 V 1.482 H -5.56 C -3.016,1.482 -1.161,0.987 0,0 m -2.715,-6.521 c 0.444,0.498 0.664,1.224 0.664,2.181 0,0.956 -0.288,1.637 -0.864,2.039 -0.578,0.404 -1.476,0.606 -2.692,0.606 h -2.11 v -5.573 h 2.489 c 1.234,0 2.071,0.248 2.513,0.747"
             style="fill:#231f20;fill-opacity:1;fill-rule:nonzero;stroke:none"
             id="path244" />
        </g>
        <g
           id="g246"
           transform="translate(323.2822,319.127)">
          <path
             d="M 0,0 -1.541,3.58 H -8.488 L -10.03,0 h -3.936 l 7.16,16.575 h 3.58 L 3.936,0 Z M -5.003,11.643 -7.091,6.828 h 4.151 z"
             style="fill:#231f20;fill-opacity:1;fill-rule:nonzero;stroke:none"
             id="path248" />
        </g>
        <g
           id="g250"
           transform="translate(341.0898,335.7021)">
          <path
             d="m 0,0 v -3.297 h -8.252 v -3.414 h 7.422 v -3.153 h -7.422 v -3.439 h 8.514 v -3.272 H -11.95 V 0 Z"
             style="fill:#231f20;fill-opacity:1;fill-rule:nonzero;stroke:none"
             id="path252" />
        </g>
        <g
           id="g254"
           transform="translate(309.7334,348.9424)">
          <path
             d="m 0,0 c 0.006,-0.763 -1.212,-1.363 -2.717,-1.429 -1.507,-0.056 -2.738,0.468 -2.75,1.281 C -5.48,0.664 -4.265,1.458 -2.75,1.464 -1.236,1.471 -0.005,0.759 0,0"
             style="fill:#231f20;fill-opacity:1;fill-rule:nonzero;stroke:none"
             id="path256" />
        </g>
        <g
           id="g258"
           transform="translate(309.6895,353.2324)">
          <path
             d="m 0,0 c 0.007,-0.606 -1.222,-0.956 -2.74,-0.927 -1.521,0.034 -2.763,0.446 -2.776,1.098 -0.012,0.651 1.215,1.257 2.743,1.175 C -1.246,1.269 -0.005,0.6 0,0"
             style="fill:#231f20;fill-opacity:1;fill-rule:nonzero;stroke:none"
             id="path260" />
        </g>
        <g
           id="g262"
           transform="translate(301.9082,347.6025)">
          <path
             d="m 0,0 c 0.002,-0.078 -0.01,-0.162 -0.035,-0.249 -0.312,-1.061 -1.778,-1.697 -2.719,-2.009 -0.602,-0.2 -1.285,-0.303 -1.908,-0.145 -0.874,0.22 -1.011,0.91 -0.509,1.58 0.629,0.842 1.593,1.459 2.609,1.714 C -1.821,1.077 -0.019,1.163 0,0"
             style="fill:#231f20;fill-opacity:1;fill-rule:nonzero;stroke:none"
             id="path264" />
        </g>
        <g
           id="g266"
           transform="translate(309.624,360.7539)">
          <path
             d="m 0,0 c -0.065,-0.54 -1.535,-0.568 -3.06,-0.366 -1.523,0.204 -2.598,0.786 -2.47,1.26 0.12,0.438 1.303,0.774 2.832,0.527 C -1.168,1.182 0.017,0.603 0,0"
             style="fill:#231f20;fill-opacity:1;fill-rule:nonzero;stroke:none"
             id="path268" />
        </g>
        <g
           id="g270"
           transform="translate(341.3975,354.9336)">
          <path
             d="m 0,0 c 0.212,-0.479 -0.652,-1.349 -1.996,-1.803 -1.344,-0.454 -2.664,-0.323 -2.892,0.174 -0.229,0.501 0.721,1.193 2.08,1.632 C -1.444,0.436 -0.21,0.479 0,0"
             style="fill:#231f20;fill-opacity:1;fill-rule:nonzero;stroke:none"
             id="path272" />
        </g>
        <g
           id="g274"
           transform="translate(301.9082,342.4951)">
          <path
             d="m 0,0 c 0.002,-0.078 -0.01,-0.163 -0.035,-0.25 -0.312,-1.06 -1.778,-1.696 -2.719,-2.008 -0.602,-0.199 -1.285,-0.304 -1.908,-0.145 -0.874,0.22 -1.011,0.91 -0.509,1.58 0.629,0.841 1.593,1.46 2.609,1.715 C -1.821,1.076 -0.019,1.163 0,0"
             style="fill:#231f20;fill-opacity:1;fill-rule:nonzero;stroke:none"
             id="path276" />
        </g>
        <g
           id="g278"
           transform="translate(334.0801,353.2461)">
          <path
             d="m 0,0 c 0.085,-0.536 -0.884,-0.916 -2.475,-0.734 -1.592,0.18 -2.958,0.757 -3.044,1.25 -0.085,0.494 1.14,0.761 2.732,0.627 C -1.195,1.007 -0.086,0.538 0,0"
             style="fill:#231f20;fill-opacity:1;fill-rule:nonzero;stroke:none"
             id="path280" />
        </g>
        <g
           id="g282"
           transform="translate(334.0801,349.3369)">
          <path
             d="m 0,0 c 0.085,-0.537 -0.884,-0.917 -2.475,-0.735 -1.592,0.181 -2.958,0.758 -3.044,1.251 -0.085,0.493 1.14,0.76 2.732,0.627 C -1.195,1.006 -0.086,0.537 0,0"
             style="fill:#231f20;fill-opacity:1;fill-rule:nonzero;stroke:none"
             id="path284" />
        </g>
        <g
           id="g286"
           transform="translate(325.8408,350.1504)">
          <path
             d="M 0,0 C 0.045,-0.541 -0.947,-0.849 -2.522,-0.549 -4.096,-0.25 -5.415,0.428 -5.464,0.924 -5.513,1.423 -4.271,1.599 -2.693,1.347 -1.117,1.092 -0.045,0.543 0,0"
             style="fill:#231f20;fill-opacity:1;fill-rule:nonzero;stroke:none"
             id="path288" />
        </g>
        <g
           id="g290"
           transform="translate(325.8379,346.417)">
          <path
             d="M 0,0 C 0.04,-0.541 -0.955,-0.838 -2.527,-0.526 -4.1,-0.213 -5.412,0.476 -5.456,0.974 -5.5,1.473 -4.257,1.637 -2.683,1.372 -1.108,1.103 -0.04,0.543 0,0"
             style="fill:#231f20;fill-opacity:1;fill-rule:nonzero;stroke:none"
             id="path292" />
        </g>
        <g
           id="g294"
           transform="translate(317.9932,351.9512)">
          <path
             d="M 0,0 C 0.082,-0.576 -1.124,-0.86 -2.688,-0.68 -4.25,-0.496 -5.59,0.118 -5.689,0.747 -5.787,1.377 -4.593,1.741 -3.014,1.506 -1.436,1.272 -0.083,0.577 0,0"
             style="fill:#231f20;fill-opacity:1;fill-rule:nonzero;stroke:none"
             id="path296" />
        </g>
        <g
           id="g298"
           transform="translate(317.9805,355.7695)">
          <path
             d="M 0,0 C 0.065,-0.58 -1.148,-0.829 -2.705,-0.603 -4.264,-0.376 -5.586,0.276 -5.665,0.908 -5.748,1.54 -4.542,1.872 -2.97,1.591 -1.399,1.312 -0.066,0.578 0,0"
             style="fill:#231f20;fill-opacity:1;fill-rule:nonzero;stroke:none"
             id="path300" />
        </g>
        <g
           id="g302"
           transform="translate(318.209,347.8105)">
          <path
             d="m 0,0 c 0.079,-0.578 -1.128,-0.855 -2.69,-0.666 -1.563,0.192 -2.9,0.813 -2.996,1.442 -0.094,0.631 1.103,0.989 2.68,0.745 C -1.428,1.278 -0.08,0.575 0,0"
             style="fill:#231f20;fill-opacity:1;fill-rule:nonzero;stroke:none"
             id="path304" />
        </g>
        <g
           id="g306"
           transform="translate(309.7666,344.2334)">
          <path
             d="m 0,0 c 0.069,-0.761 -1.093,-1.462 -2.586,-1.655 -1.496,-0.185 -2.767,0.234 -2.85,1.043 -0.08,0.809 1.063,1.703 2.572,1.837 C -1.355,1.359 -0.069,0.754 0,0"
             style="fill:#231f20;fill-opacity:1;fill-rule:nonzero;stroke:none"
             id="path308" />
        </g>
        <g
           id="g310"
           transform="translate(325.8203,353.9072)">
          <path
             d="m 0,0 c 0.022,-0.543 -0.983,-0.806 -2.544,-0.438 -1.56,0.369 -2.848,1.101 -2.874,1.601 -0.026,0.5 1.222,0.622 2.786,0.3 C -1.067,1.14 -0.021,0.544 0,0"
             style="fill:#231f20;fill-opacity:1;fill-rule:nonzero;stroke:none"
             id="path312" />
        </g>
        <g
           id="g314"
           transform="translate(309.6816,357.0898)">
          <path
             d="m 0,0 c -0.017,-0.606 -1.237,-0.786 -2.754,-0.703 -1.517,0.089 -2.764,0.418 -2.753,1.071 0.01,0.652 1.259,1.212 2.782,1.075 C -1.201,1.312 0.016,0.601 0,0"
             style="fill:#231f20;fill-opacity:1;fill-rule:nonzero;stroke:none"
             id="path316" />
        </g>
      </g>
    </g>
  </g>
</svg>
