<svg clip-rule="evenodd" fill-rule="evenodd" height="200" width="280" xmlns="http://www.w3.org/2000/svg"><path d="m110 199.498744a100 100 0 0 1 -10 .501256 100 100 0 0 1 0-200 100 100 0 0 1 10 .501256v30a70 70 0 0 0 -10-.501256 70 70 0 0 0 0 140 70 70 0 0 0 10-.501256z"/><path d="m280 199.498744a100 100 0 0 1 -10 .501256 100 100 0 0 1 0-200 100 100 0 0 1 10 .501256v30a70 70 0 0 0 -10-.501256 70 70 0 0 0 -68.379717 55h58.379717v30h-58.379717a70 70 0 0 0 68.379717 55 70 70 0 0 0 10-.501256z"/></svg>