<?xml version="1.0" encoding="UTF-8"?>
<svg width="60" height="90" version="1.1" viewBox="0 0 60 90" xmlns="http://www.w3.org/2000/svg">
 <g transform="translate(-7.4375 -6.8413)">
  <g transform="matrix(.16267 0 0 .16267 6.7276 5.7284)">
   <path transform="matrix(.13333 0 0 -.13333 0 566.93)" d="m60.781 3932c0 145.63 118.06 263.69 263.69 263.69h2185.7c145.63 0 263.67-118.06 263.67-263.69v-3612c0-145.63-118.04-263.69-263.67-263.69h-2185.7c-145.63 0-263.69 118.06-263.69 263.69z" fill="none" stroke="#231f20" stroke-miterlimit="10" stroke-width="10"/>
   <path transform="matrix(.13333 0 0 -.13333 0 566.93)" d="m60.781 3932c0 145.63 118.06 263.69 263.69 263.69h2185.7c145.63 0 263.67-118.06 263.67-263.69v-3612c0-145.63-118.04-263.69-263.67-263.69h-2185.7c-145.63 0-263.69 118.06-263.69 263.69z" fill="none" stroke="#231f20" stroke-miterlimit="10" stroke-width="10"/>
   <g fill="#bb541f" fill-rule="evenodd">
    <path transform="matrix(.13333 0 0 -.13333 0 566.93)" d="m1873.9 1738.9 389.51 9.69 1.93 302.32-48.44-27.12-36.81-25.2-29.06-21.33-38.77-32.93-25.18-23.24-36.82-38.79-32.95-40.68-23.26-32.95-50.39-25.2-44.57-17.44-25.19-27.13"/>
    <path transform="matrix(.13333 0 0 -.13333 0 566.93)" d="m2211.1 2277.7-32.95-30.99-36.83-42.64-31-21.32-34.88-29.07-46.5-29.06-32.95-25.2-36.82-27.13-27.13-19.37-32.95-25.22-25.19-17.44-29.07-13.55-21.32-13.56-23.27-25.21-36.81-29.07-25.18-21.32-29.08-21.31-27.13-21.33-32.95-29.06-36.81-29.07-27.13-25.21-27.15-29.04-15.49-21.33-118.22-1.93 50.39 36.81 38.75 36.82 54.28 44.57 32.94 27.13 36.82 29.1 19.4 13.55 29.04 29.07 29.08 19.37 25.2 23.26 30.99 27.13 23.26 13.58 23.25 23.26 32.95 27.11 31.01 21.33 19.38 21.32 29.06 17.44 25.19 19.38 31.02 19.38 23.24 7.75 15.51 11.61 17.44 5.83 23.26 7.75 25.18 19.37 29.1 25.2 27.11 9.68 23.26 11.63 23.24 1.96 17.46-1.96"/>
    <path transform="matrix(.13333 0 0 -.13333 0 566.93)" d="m1749.9 2246.7-5.82 13.57-32.95-13.57-27.13-11.63-48.43-19.38-38.77-25.18-31-17.47-29.08-21.31-31.02-21.31-19.35-7.75-21.33-3.88-36.82-19.38-29.08-13.57-17.42-17.44-44.59-32.95-21.31-15.49-21.33-15.51-34.88-23.26-29.06-13.56-34.88-21.32-25.2-29.07-23.26-17.44-23.24-21.31-19.38-13.59h-25.21l-32.93-19.38-23.25-27.12-23.257-29.07-21.328-19.39-23.262-19.38 63.967-1.93 58.12 19.38 32.95 17.44 13.58 11.64 25.19 19.35 23.26 15.51 15.49 13.57 23.26 21.33 21.31 13.56 21.33 11.64 27.13 23.26 25.17 9.69 19.4 23.26 23.26 17.42 17.44 15.51 25.18 17.44 15.51 17.44 21.32 19.38 17.43 1.95 19.39 15.51 19.4 11.62 21.28 11.62 13.6 9.69 17.42 5.82 31.02 23.24 27.1 19.4 19.4 11.63 15.49 15.48 25.21 15.52 17.44 13.58 27.11 17.42 23.26 21.33 17.47 7.76 9.68 9.68"/>
    <path transform="matrix(.13333 0 0 -.13333 0 566.93)" d="m567.72 1775.8 36.816 31.01 27.129 21.31 31.016 17.44 42.637 15.51 30.996 21.31 40.703 34.9 34.883 21.31 17.441 15.51 17.441 11.62 29.063 17.46 23.262 11.62 29.062 15.49 17.441 11.64 15.508 7.76 9.688 9.68 23.242 11.62 21.327 19.38 17.44 11.62 25.2 1.95 27.13 7.76 17.44 5.8 30.99 15.51 31.02 15.51 25.2 23.25 32.94 23.25 27.11 19.39 25.22 19.39 17.44 11.63 21.33 17.42 23.24 17.46 15.49 9.68 17.46 7.74-808.12-1.93 5.82-500"/>
   </g>
   <path transform="matrix(.13333 0 0 -.13333 0 566.93)" d="m560.53 2308.7-7.129 71.7-3.476 46.51-1.074 98.85-0.86 124.02 2.735 91.09-0.801 129.83 2.773 94.97 4.551 77.51-3.144 83.33-7.168 67.82-3.262 69.78 0.195 21.32s65.41-54.26 195.51-25.19c0 0-150.06 187.21-37.676 346.89 111.86 158.91 279.96 102.71 279.96 102.71s-22.539 81.4-130.76 116.27c-108.22 34.89-73.378 31.01-182.09 9.7-70.684-13.87-110.8-38.77-120.57-48.46l-3.262 71.71 2.715 89.15 763.62 5.81h238.38l46.56 7.75 668.57-1.94s3.52-263.56 6.9-321.7c3.36-58.14-14.59-560.07-7.4-624.02 7.2-63.95-5.14-145.34 2.4-168.6 0 0-101.43-75.57-128.75-98.83-27.34-23.25-247.29-131.78-259.02-145.36-11.74-13.56-229.89-137.58-251.29-149.22-21.45-11.61-210.63-151.17-210.63-151.17zm350.24 383.71c-84.336 106.59-135.66 220.93-93.008 445.73 39.941 210.44 285.86 335.27 404.28 356.58 118.4 21.32 227.17 48.46 421.37-127.9 0 0 92.11-102.71 162.32-273.25 0 0 30.16-317.83-190.21-476.75 0 0-183.54-158.89-415.59-100.76 0 0-151.44 2.32-289.16 176.35" fill="#77b5e6" fill-rule="evenodd"/>
   <g fill="#6ac32f" fill-rule="evenodd">
    <path transform="matrix(.13333 0 0 -.13333 0 566.93)" d="m2077.4 2640.1 34.89 25.19 31.01 21.32 27.13 25.18 25.18 17.43 19.39 13.58 21.33 11.62 9.69 9.7 11.64-9.7 15.49-21.3 1.93-17.46-1.93-19.37-7.78-21.3-19.35-31.03-19.38-21.32-13.57-13.56-23.24-25.19-21.33-21.31-54.28-34.89-32.93-17.44-46.5-25.2-38.77-17.43-46.51-29.09-32.95-36.81-34.88-13.56-36.82-21.32-58.14-42.64-38.77-29.06-44.55-27.13-46.5-27.14-40.73-25.19-60.06-32.95-36.81-15.49-40.72-7.76-36.82-34.88-56.21-36.82-54.24-36.84-46.52-34.88-54.26-30.99-58.13-38.77-42.65-32.93-63.95-36.84-65.877-40.7-54.278-36.82-52.324-38.77-46.504-36.81-40.703-25.2-29.062-13.55-40.703-27.15-44.571-38.75-29.062-17.43-40.703-5.84-21.309 3.89-23.281-19.37-25.176 3.86-17.441 19.4-3.887 38.73 9.707 44.59 17.441 23.24 29.063 27.15s25.195 34.88 32.93 44.55c7.773 9.71 25.214 31.02 25.214 31.02l29.063 17.44h31.016l19.355-7.74s5.84 11.62 11.641 19.38c5.82 7.73 25.195 27.13 25.195 27.13l27.129 31.01 27.129 11.62 21.328 21.33 29.062 21.31 32.95 23.24 34.882 19.4 34.883 25.19 27.11 11.62 29.083 25.18 34.88 5.84 52.33 3.87 32.93 11.62 34.88 27.15 42.65 25.2 40.71 31 42.61 27.14 36.84 32.93 40.7 27.13 40.69 23.26 40.7 19.37 27.13 19.38 31 15.5 34.88 19.38 40.7 11.64 25.22 19.37 29.04 23.26 23.26 21.32 32.95 25.19 40.7 19.39 34.89 15.49 44.57 19.4 29.06 17.42 29.08 15.51 19.36 15.5 27.14 15.49 13.58 15.52 19.37 9.69 21.29 9.68 36.84 9.69 31 11.63 21.32 17.46"/>
    <path transform="matrix(.13333 0 0 -.13333 0 566.93)" d="m2019.2 2403.6 31.01 17.46 23.25 15.49 23.26 17.44 29.04 13.58 15.51 17.43 19.37 5.83 21.33 5.79 31.02-5.79 15.49-7.77 17.46-3.86-3.89-19.39 13.57-13.56 5.8-13.56 9.71-13.58-3.88-19.37-19.38-19.39-38.75-31-19.37-17.44-19.4-15.52-31-25.18-23.26-19.37-38.77-21.33-29.06-17.44-27.15-15.51-21.31-9.69-27.13-11.63-27.1-11.62-29.09-23.27-27.13-17.43-34.88-36.81-27.13-23.27-30.99-29.06-36.84-27.15-32.93-27.13-34.88-30.99-36.84-27.15-32.95-27.11-40.7-32.97-21.33-13.55-30.99-25.18-25.2-21.33-31-23.26-25.19-15.51-31-21.32-17.46-15.51-23.26-17.42-23.26-17.47-19.36-15.48-23.26-15.51-25.19-19.38-25.2-13.55-25.19-15.51-5.81-21.33-13.57-21.31-21.31-23.24-21.31-13.59-21.32-13.58-31.02-19.37-29.06-13.56-21.31-13.57-23.26-13.55-19.4-21.33-17.44-17.42-27.128-3.89-19.375 7.75-17.442 17.44-23.261 11.63-19.375 21.32-3.867 23.26-1.934 27.13 5.801 31 13.574 31 15.508 31.03 21.328 21.31 19.355 19.37 23.243 19.38 32.953 27.13 23.26 13.57 29.08 13.58 25.19 13.55 38.74 29.06 34.88 19.38 21.33 25.19 27.14 17.47 29.07 21.32 25.17 15.49 27.15 23.26 27.13 21.31 19.38 9.71 17.44 11.62 21.32 13.56 21.33 13.57 17.42 15.51 17.47 3.86 9.68 17.45 15.49 5.82 23.26 21.3 15.51 9.69 17.44 17.44 17.44 3.87 21.31 17.46 25.2 13.56 17.44 17.45 17.44 9.69 19.38 15.51 13.55 11.63 17.46 7.73 23.26 17.46 17.42 13.55 19.4 13.57 27.13 13.57 25.19 15.51 11.62 15.5 21.33 13.55 11.62 13.58 19.38 11.63 21.33 13.55 15.49 9.7 13.57 15.51 21.31 3.86 13.57 11.64 23.26 17.44 21.29 7.76 13.6 15.51 17.44 5.79"/>
    <path transform="matrix(.13333 0 0 -.13333 0 566.93)" d="m2118.1 2167.2 23.24 15.49 31.01 15.49 19.4 19.39 29.06 15.51 23.26 7.75 13.58-7.75 13.55-19.37 17.44-23.25 13.56-11.64v-31.01l-1.94-31.03-17.44-17.42-32.95-13.57-29.06-21.31-19.37-19.4-29.09-13.55-11.64-17.44-19.37-15.51-27.13-27.13-21.31-19.37-23.24-32.95-27.15-23.26-36.82-40.69-27.12-21.33-31-29.08-34.88-21.31-27.15-13.57-23.24-15.49-23.27-29.08-27.12-25.2-23.27-19.37-36.81-23.26-36.82-23.25-27.15-25.21s-38.75-1.93-30.97-9.67c7.71-7.75-31.04-19.37-31.04-19.37l-21.31-21.33-21.33-9.69-15.48-15.49-19.4-5.84-13.55-9.67-21.33-17.44-15.49-19.39-21.33-17.42-15.49-23.26-21.32-27.13-27.13-23.27-15.51-21.32-50.37-23.25-17.46-19.37-27.13-25.2-27.13-27.14-34.88-29.07-32.93-17.46-34.89-21.29-29.08-7.75-19.37-3.89-23.27-3.86-23.26 3.86-19.37 1.94-11.62-13.56-19.4-1.95-21.31 13.57-19.371 15.51-13.575 19.38-9.687 9.68-13.574 3.89 1.953 17.44 15.508 11.62 25.175 13.56 21.331 9.7 25.19 15.51 23.25 21.29 19.39 17.46 11.62 19.38 5.8 17.44 9.71 17.44 15.51 13.57 23.24 17.43 23.26 21.32 13.57 17.45 19.36 13.57 9.71 11.64 23.24 11.62 17.46 17.42 17.42 9.69 11.62 19.39 19.4 5.81 19.37 13.57 13.58 15.51 19.37 11.64 19.38 11.62 19.39 17.44 19.38 13.56 19.37 15.5 13.56 15.49 17.46-3.87 27.11 3.87 17.46 9.71 25.19 7.75 9.69 25.2 19.38 19.37 19.37 21.31 17.44 13.58 15.51 19.37 21.33 23.24 27.11 17.46 19.39 15.49 17.42 15.51 21.33 15.51 23.26 21.35 23.25 9.66 19.39 19.38 17.44 17.46 25.2 19.37 19.37 9.67 13.58 9.71 21.3 9.69 21.31 21.32 17.44 19.38 17.45 11.62 21.32 19.38 23.27 15.5 29.06 21.31 19.37 13.58 25.2 13.58 23.26 7.74 13.55 13.56 23.27 13.58"/>
    <path transform="matrix(.13333 0 0 -.13333 0 566.93)" d="m848.71 1494.8 23.242-25.21 5.82-25.18 15.508-17.44 11.621-5.82v-17.44l-1.933-27.13-9.688-27.13-19.375-21.31-15.508-21.33-25.195-15.48-23.262-17.46-19.375-15.49-23.261-17.44-15.489-15.51-11.64-15.51-11.621-11.62h-15.489l-23.261-1.95-23.262-11.62-32.949-5.83-23.242-5.8-27.129-3.88-32.95 5.82-11.64 15.51v15.5l11.64 19.38 13.555 23.24 15.508 11.64 11.621 25.18 15.508 19.39s0 7.76 1.933 15.51c1.954 7.75 7.754 15.51 7.754 15.51l21.309 13.55 13.574 11.64 23.262 9.69 15.508 11.62 13.554 15.51 21.309 11.62 11.641 15.51 15.507 13.55 17.442 17.44 21.308 9.71 17.442 15.49 17.441 9.69 23.262 3.88"/>
   </g>
   <path transform="matrix(.13333 0 0 -.13333 0 566.93)" d="m1096.8 3423c85.27 25.19 156.99 83.34 312.01 50.39 155.04-32.95 251.93-170.54 251.93-170.54s75.59-89.14 122.09-213.19c0 0 36.84-197.66-94.96-368.19-131.76-170.55-286.79-203.49-381.78-197.68-94.94 5.82-253.86 32.95-379.84 187.98-125.96 155.03-96.563 370.9-77.5 432.17 27.129 87.21 162.79 253.87 248.05 279.06" fill="#f8de05" fill-rule="evenodd"/>
   <g fill="#231f20">
    <path transform="matrix(.13333 0 0 -.13333 0 566.93)" d="m378.44 426.77v-46.661l-131.02-75.347v-1.051c23.144 1.48 39.648 2.238 49.531 2.238h81.492v-32.808h-173.19v46.308l129.72 75.231v0.832c-22.512-1.203-38.418-1.782-47.746-1.782h-81.973v33.04h173.19"/>
    <path transform="matrix(.13333 0 0 -.13333 0 566.93)" d="m378.44 588.06v-99.739h-173.19v99.739h30.098v-63.02h38.027v58.652h30.078v-58.652h44.668v63.02h30.32"/>
    <path transform="matrix(.13333 0 0 -.13333 0 566.93)" d="m378.44 781.46v-41.699l-72.976-45.352 11.14-15.531h61.836v-36.711h-173.19v36.711h79.258l-20.379 14.461-58.879 46.91v40.738l76.641-60.41 96.55 60.883"/>
    <path transform="matrix(.13333 0 0 -.13333 0 566.93)" d="m306.43 905.92c-37.363-11.629-58.477-18.148-63.379-19.609-4.902-1.469-8.77-2.5-11.609-3.149 10.105-2.601 35.105-10.058 74.988-22.379zm72.019 21.32-41.218-12.558v-63.141l41.218-12.559v-39.57l-173.89 61.129v44.91l173.89 61.34v-39.551"/>
    <path transform="matrix(.13333 0 0 -.13333 0 566.93)" d="m378.44 1119.4v-128.89h-23.804l-119.06 83.051v-80.801h-30.332v124.39h23.691l119.18-82.93v85.18h30.32"/>
    <path transform="matrix(.13333 0 0 -.13333 0 566.93)" d="m306.43 1249.7c-37.363-11.62-58.477-18.14-63.379-19.61-4.902-1.46-8.77-2.5-11.609-3.14 10.105-2.6 35.105-10.06 74.988-22.38zm72.019 21.33-41.218-12.56v-63.14l41.218-12.56v-39.57l-173.89 61.13v44.91l173.89 61.34v-39.55"/>
    <path transform="matrix(.13333 0 0 -.13333 0 566.93)" d="m282.14 1387v11.85c0 11.61-1.938 20.18-5.813 25.71-3.867 5.52-9.941 8.3-18.242 8.3-8.203 0-14.055-2.83-17.527-8.48-3.469-5.64-5.207-14.39-5.207-26.23v-11.15zm29.851 0h66.453v-36.72h-173.19v50.47c0 23.53 4.285 40.96 12.851 52.24 8.575 11.29 21.583 16.94 39.043 16.94 10.176 0 19.239-2.8 27.188-8.42 7.93-5.61 14.148-13.54 18.652-23.81 38.938 26.08 64.082 43.05 75.457 50.94v-40.74l-66.453-41.35v-19.55"/>
    <path transform="matrix(.13333 0 0 -.13333 0 566.93)" d="m378.44 1528.4h-173.19v36.72h173.19v-36.72"/>
    <path transform="matrix(.13333 0 0 -.13333 0 566.93)" d="m378.44 1693.5v-36.74h-142.62v-47.03h-30.566v130.78h30.566v-47.01h142.62"/>
    <path transform="matrix(.13333 0 0 -.13333 0 566.93)" d="m378.44 1898.1v-128.88h-23.804l-119.06 83.04v-80.8h-30.332v124.4h23.691l119.18-82.93v85.17h30.32"/>
    <path transform="matrix(.13333 0 0 -.13333 0 566.93)" d="m306.43 2028.3c-37.363-11.61-58.477-18.15-63.379-19.61-4.902-1.47-8.77-2.5-11.609-3.15 10.105-2.59 35.105-10.05 74.988-22.38zm72.019 21.32-41.218-12.55v-63.15l41.218-12.56v-39.57l-173.89 61.14v44.89l173.89 61.37v-39.57"/>
    <path transform="matrix(.13333 0 0 -.13333 0 566.93)" d="m378.44 2309.7v-99.75h-173.19v99.75h30.098v-63.03h38.027v58.64h30.078v-58.64h44.668v63.03h30.32"/>
    <path transform="matrix(.13333 0 0 -.13333 0 566.93)" d="m378.44 2503.1v-41.7l-72.976-45.37 11.14-15.51h61.836v-36.73h-173.19v36.73h79.258l-20.379 14.45-58.879 46.91v40.75l76.641-60.41 96.55 60.88"/>
    <path transform="matrix(.13333 0 0 -.13333 0 566.93)" d="m291.62 2573.6c19.348 0 33.914 3.67 43.711 11.01 9.785 7.34 14.688 18.32 14.688 32.94 0 29.29-19.473 43.94-58.399 43.94-39.023 0-58.523-14.57-58.523-43.71 0-14.61 4.91-25.63 14.746-33.05 9.832-7.42 24.422-11.13 43.777-11.13zm0 126.39c28.66 0 50.692-7.1 66.094-21.32 15.398-14.22 23.105-34.59 23.105-61.12 0-26.54-7.707-46.92-23.105-61.13-15.402-14.22-37.512-21.33-66.336-21.33-28.82 0-50.832 7.13-66.047 21.39-15.195 14.25-22.793 34.68-22.793 61.3 0 26.61 7.656 46.97 22.969 61.07 15.332 14.1 37.363 21.14 66.113 21.14"/>
    <path transform="matrix(.13333 0 0 -.13333 0 566.93)" d="m378.44 2753.9h-173.19v36.72h142.87v70.25h30.32v-106.97"/>
    <path transform="matrix(.13333 0 0 -.13333 0 566.93)" d="m291.62 2939.7c19.348 0 33.914 3.67 43.711 11.01 9.785 7.34 14.688 18.32 14.688 32.94 0 29.29-19.473 43.94-58.399 43.94-39.023 0-58.523-14.57-58.523-43.71 0-14.61 4.91-25.63 14.746-33.05 9.832-7.42 24.422-11.13 43.777-11.13zm0 126.39c28.66 0 50.692-7.1 66.094-21.32 15.398-14.22 23.105-34.59 23.105-61.12 0-26.54-7.707-46.92-23.105-61.13-15.402-14.22-37.512-21.33-66.336-21.33-28.82 0-50.832 7.13-66.047 21.39-15.195 14.25-22.793 34.68-22.793 61.3 0 26.61 7.656 46.97 22.969 61.07 15.332 14.1 37.363 21.14 66.113 21.14"/>
    <path transform="matrix(.13333 0 0 -.13333 0 566.93)" d="m281.19 3185.7v68.7h89.793c3.633-11.13 6.184-21.62 7.637-31.45 1.457-9.83 2.199-19.88 2.199-30.15 0-26.14-7.683-46.1-23.047-59.88-15.351-13.78-37.414-20.67-66.152-20.67-27.969 0-49.766 8-65.391 23.99-15.644 15.99-23.457 38.16-23.457 66.51 0 17.77 3.555 34.91 10.665 51.42l29.375-12.2c-6.321-12.64-9.485-25.79-9.485-39.45 0-15.88 5.332-28.59 15.996-38.15 10.656-9.55 24.992-14.33 43-14.33 18.797 0 33.156 3.85 43.067 11.55 9.902 7.7 14.863 18.89 14.863 33.58 0 7.66-0.789 15.44-2.363 23.34h-36.133v-32.81h-30.567"/>
    <path transform="matrix(.13333 0 0 -.13333 0 566.93)" d="m378.44 3313.6h-173.19v36.72h173.19v-36.72"/>
    <path transform="matrix(.13333 0 0 -.13333 0 566.93)" d="m378.44 3551.1v-41.7l-72.976-45.37 11.14-15.52h61.836v-36.72h-173.19v36.72h79.258l-20.379 14.46-58.879 46.91v40.75l76.641-60.42 96.55 60.89"/>
    <path transform="matrix(.13333 0 0 -.13333 0 566.93)" d="m291.62 3621.7c19.348 0 33.914 3.68 43.711 11.02 9.785 7.34 14.688 18.32 14.688 32.93 0 29.3-19.473 43.95-58.399 43.95-39.023 0-58.523-14.57-58.523-43.71 0-14.61 4.91-25.63 14.746-33.05 9.832-7.43 24.422-11.14 43.777-11.14zm0 126.4c28.66 0 50.692-7.11 66.094-21.33 15.398-14.21 23.105-34.59 23.105-61.12 0-26.54-7.707-46.91-23.105-61.13-15.402-14.21-37.512-21.32-66.336-21.32-28.82 0-50.832 7.12-66.047 21.38-15.195 14.26-22.793 34.69-22.793 61.31 0 26.61 7.656 46.97 22.969 61.07 15.332 14.09 37.363 21.14 66.113 21.14"/>
    <path transform="matrix(.13333 0 0 -.13333 0 566.93)" d="m306.43 3886.6c-37.363-11.61-58.477-18.15-63.379-19.61s-8.77-2.5-11.609-3.14c10.105-2.6 35.105-10.07 74.988-22.39zm72.019 21.32-41.218-12.56v-63.14l41.218-12.55v-39.57l-173.89 61.13v44.89l173.89 61.37v-39.57"/>
    <path transform="matrix(.13333 0 0 -.13333 0 566.93)" d="m2527.2 332.95c-37.36-11.609-58.48-18.148-63.38-19.597-4.89-1.473-8.76-2.512-11.6-3.153 10.1-2.609 35.09-10.07 74.98-22.379zm72.03 21.321-41.23-12.551v-63.149l41.23-12.55v-39.571l-173.91 61.129v44.902l173.91 61.36v-39.57"/>
    <path transform="matrix(.13333 0 0 -.13333 0 566.93)" d="m2502 508.79v68.711h89.81c3.63-11.141 6.17-21.621 7.63-31.461 1.46-9.82 2.19-19.879 2.19-30.141 0-26.148-7.67-46.109-23.05-59.886-15.35-13.782-37.4-20.66-66.15-20.66-27.96 0-49.75 7.988-65.39 23.976-15.64 16-23.46 38.172-23.46 66.524 0 17.769 3.56 34.898 10.67 51.41l29.37-12.203c-6.31-12.637-9.47-25.789-9.47-39.45 0-15.879 5.33-28.589 16-38.14 10.65-9.559 24.99-14.34 42.99-14.34 18.8 0 33.16 3.851 43.06 11.551 9.91 7.699 14.86 18.898 14.86 33.59 0 7.66-0.78 15.441-2.36 23.339h-36.13v-32.82h-30.57"/>
    <path transform="matrix(.13333 0 0 -.13333 0 566.93)" d="m2503 682.86v11.84c0 11.621-1.93 20.192-5.81 25.719-3.87 5.523-9.95 8.293-18.24 8.293-8.22 0-14.06-2.82-17.53-8.473-3.48-5.648-5.22-14.386-5.22-26.238v-11.141zm29.84 0h66.47v-36.718h-173.2v50.468c0 23.52 4.29 40.95 12.86 52.231 8.56 11.289 21.58 16.949 39.03 16.949 10.18 0 19.25-2.801 27.19-8.418 7.93-5.609 14.16-13.543 18.65-23.812 38.94 26.07 64.09 43.05 75.47 50.941v-40.75l-66.47-41.34v-19.551"/>
    <path transform="matrix(.13333 0 0 -.13333 0 566.93)" d="m2599.3 833.71h-173.2v36.719h173.2v-36.719"/>
    <path transform="matrix(.13333 0 0 -.13333 0 566.93)" d="m2454.1 1015c0-13.82 5.2-24.52 15.58-32.102 10.38-7.589 24.85-11.378 43.41-11.378 38.62 0 57.92 14.492 57.92 43.48 0 12.16-3.03 26.89-9.12 44.19h30.8c5.93-14.22 8.89-30.09 8.89-47.63 0-25.201-7.64-44.458-22.92-57.802-15.28-13.348-37.22-20.02-65.81-20.02-18.01 0-33.77 3.274-47.32 9.821-13.54 6.562-23.93 15.98-31.16 28.25-7.22 12.293-10.84 26.679-10.84 43.191 0 16.82 4.07 33.72 12.21 50.7l29.85-11.85c-3.08-6.47-5.77-12.99-8.05-19.55-2.3-6.55-3.44-12.98-3.44-19.3"/>
    <path transform="matrix(.13333 0 0 -.13333 0 566.93)" d="m2426.1 1264.4h112.07c12.79 0 24-2.86 33.64-8.58 9.64-5.73 17.02-14.01 22.16-24.83 5.13-10.82 7.69-23.61 7.69-38.38 0-22.26-5.7-39.56-17.11-51.88s-27.03-18.48-46.85-18.48h-111.6v36.6h106.03c13.34 0 23.13 2.69 29.37 8.06 6.25 5.37 9.36 14.26 9.36 26.65 0 12-3.14 20.71-9.41 26.12-6.28 5.41-16.14 8.12-29.55 8.12h-105.8v36.6"/>
    <path transform="matrix(.13333 0 0 -.13333 0 566.93)" d="m2599.3 1334.2h-173.2v36.71h142.87v70.26h30.33v-106.97"/>
    <path transform="matrix(.13333 0 0 -.13333 0 566.93)" d="m2599.3 1565.5v-36.72h-142.64v-47.04h-30.56v130.79h30.56v-47.03h142.64"/>
    <path transform="matrix(.13333 0 0 -.13333 0 566.93)" d="m2426.1 1807.6h112.07c12.79 0 24-2.87 33.64-8.59 9.64-5.73 17.02-14 22.16-24.82 5.13-10.82 7.69-23.62 7.69-38.38 0-22.27-5.7-39.56-17.11-51.89-11.41-12.32-27.03-18.47-46.85-18.47h-111.6v36.6h106.03c13.34 0 23.13 2.68 29.37 8.05 6.25 5.38 9.36 14.26 9.36 26.66 0 12-3.14 20.71-9.41 26.12-6.28 5.41-16.14 8.11-29.55 8.11h-105.8v36.61"/>
    <path transform="matrix(.13333 0 0 -.13333 0 566.93)" d="m2503 1914.1v11.84c0 11.62-1.93 20.18-5.81 25.72-3.87 5.51-9.95 8.29-18.24 8.29-8.22 0-14.06-2.83-17.53-8.48-3.48-5.64-5.22-14.39-5.22-26.23v-11.14zm29.84 0h66.47v-36.72h-173.2v50.47c0 23.52 4.29 40.95 12.86 52.23 8.56 11.29 21.58 16.94 39.03 16.94 10.18 0 19.25-2.79 27.19-8.4 7.93-5.62 14.16-13.56 18.65-23.81 38.94 26.06 64.09 43.03 75.47 50.94v-40.76l-66.47-41.34v-19.55"/>
    <path transform="matrix(.13333 0 0 -.13333 0 566.93)" d="m2527.2 2149.7c-37.36-11.61-58.48-18.15-63.38-19.61-4.89-1.46-8.76-2.5-11.6-3.14 10.1-2.6 35.09-10.07 74.98-22.39zm72.03 21.32-41.23-12.56v-63.14l41.23-12.55v-39.57l-173.91 61.13v44.89l173.91 61.37v-39.57"/>
    <path transform="matrix(.13333 0 0 -.13333 0 566.93)" d="m2599.3 2450v-99.74h-173.2v99.74h30.09v-63.02h38.03v58.64h30.09v-58.64h44.66v63.02h30.33"/>
    <path transform="matrix(.13333 0 0 -.13333 0 566.93)" d="m2454.1 2587.1c0-13.83 5.2-24.52 15.58-32.11 10.38-7.58 24.85-11.37 43.41-11.37 38.62 0 57.92 14.49 57.92 43.48 0 12.16-3.03 26.89-9.12 44.18h30.8c5.93-14.21 8.89-30.09 8.89-47.62 0-25.19-7.64-44.46-22.92-57.81-15.28-13.34-37.22-20.02-65.81-20.02-18.01 0-33.77 3.28-47.32 9.84-13.54 6.55-23.93 15.97-31.16 28.25-7.22 12.28-10.84 26.67-10.84 43.18 0 16.82 4.07 33.72 12.21 50.7l29.85-11.85c-3.08-6.47-5.77-12.99-8.05-19.54-2.3-6.56-3.44-12.99-3.44-19.31"/>
    <path transform="matrix(.13333 0 0 -.13333 0 566.93)" d="m2512.4 2726.3c19.36 0 33.93 3.67 43.71 11.02 9.8 7.34 14.69 18.32 14.69 32.93 0 29.3-19.46 43.95-58.4 43.95-39.01 0-58.51-14.57-58.51-43.71 0-14.61 4.91-25.63 14.74-33.06 9.83-7.42 24.42-11.13 43.77-11.13zm0 126.4c28.67 0 50.71-7.11 66.1-21.33 15.41-14.21 23.1-34.59 23.1-61.12 0-26.54-7.69-46.91-23.1-61.13-15.39-14.21-37.5-21.32-66.33-21.32s-50.84 7.12-66.05 21.38c-15.2 14.25-22.8 34.69-22.8 61.31 0 26.61 7.66 46.97 22.98 61.06 15.32 14.1 37.35 21.15 66.1 21.15"/>
    <path transform="matrix(.13333 0 0 -.13333 0 566.93)" d="m2599.3 2916h-173.2v36.73h142.87v70.25h30.33v-106.98"/>
    <path transform="matrix(.13333 0 0 -.13333 0 566.93)" d="m2512.4 3111.3c19.36 0 33.93 3.67 43.71 11.02 9.8 7.34 14.69 18.32 14.69 32.93 0 29.3-19.46 43.95-58.4 43.95-39.01 0-58.51-14.57-58.51-43.71 0-14.61 4.91-25.63 14.74-33.06 9.83-7.42 24.42-11.13 43.77-11.13zm0 126.4c28.67 0 50.71-7.11 66.1-21.33 15.41-14.21 23.1-34.59 23.1-61.12 0-26.54-7.69-46.91-23.1-61.13-15.39-14.21-37.5-21.32-66.33-21.32s-50.84 7.12-66.05 21.38c-15.2 14.25-22.8 34.69-22.8 61.31 0 26.61 7.66 46.97 22.98 61.06 15.32 14.1 37.35 21.15 66.1 21.15zm-100.21-101.05h-3.21c-15.8 13.58-27.67 22.86-35.65 27.84v40.51h2.49c4.1-4.1 10.2-11.12 18.3-21.02 8.09-9.92 14.12-17.67 18.07-23.28v-24.05"/>
    <path transform="matrix(.13333 0 0 -.13333 0 566.93)" d="m2502 3366.8v68.71h89.81c3.63-11.14 6.17-21.62 7.63-31.45 1.46-9.84 2.19-19.89 2.19-30.15 0-26.14-7.67-46.1-23.05-59.88-15.35-13.79-37.4-20.68-66.15-20.68-27.96 0-49.75 8-65.39 23.99s-23.46 38.17-23.46 66.51c0 17.77 3.56 34.91 10.67 51.42l29.37-12.2c-6.31-12.64-9.47-25.79-9.47-39.45 0-15.87 5.33-28.59 16-38.14 10.65-9.56 24.99-14.34 42.99-14.34 18.8 0 33.16 3.86 43.06 11.55 9.91 7.7 14.86 18.9 14.86 33.59 0 7.65-0.78 15.44-2.36 23.33h-36.13v-32.81h-30.57"/>
    <path transform="matrix(.13333 0 0 -.13333 0 566.93)" d="m2599.3 3504.1h-173.2v36.72h173.2v-36.72"/>
    <path transform="matrix(.13333 0 0 -.13333 0 566.93)" d="m2454.1 3685.4c0-13.82 5.2-24.52 15.58-32.1s24.85-11.38 43.41-11.38c38.62 0 57.92 14.5 57.92 43.48 0 12.16-3.03 26.89-9.12 44.19h30.8c5.93-14.22 8.89-30.09 8.89-47.63 0-25.18-7.64-44.46-22.92-57.8-15.28-13.35-37.22-20.02-65.81-20.02-18.01 0-33.77 3.28-47.32 9.83-13.54 6.56-23.93 15.97-31.16 28.25-7.22 12.28-10.84 26.67-10.84 43.18 0 16.82 4.07 33.72 12.21 50.71l29.85-11.85c-3.08-6.48-5.77-12.99-8.05-19.55-2.3-6.55-3.44-12.99-3.44-19.31"/>
    <path transform="matrix(.13333 0 0 -.13333 0 566.93)" d="m2527.2 3878.5c-37.36-11.61-58.48-18.15-63.38-19.61-4.89-1.46-8.76-2.51-11.6-3.14 10.1-2.6 35.09-10.07 74.98-22.39zm72.03 21.32-41.23-12.56v-63.14l41.23-12.55v-39.57l-173.91 61.12v44.9l173.91 61.37v-39.57"/>
    <path transform="matrix(.13333 0 0 -.13333 0 566.93)" d="m823.24 952.68c-19.824 0-35.273-8.078-46.387-24.328-11.093-16.25-16.66-38.641-16.66-67.172 0-59.321 22.578-88.989 67.696-88.989 13.652 0 26.855 1.899 39.648 5.688 12.774 3.812 25.664 8.379 38.613 13.73v-70.449c-25.722-11.39-54.843-17.09-87.324-17.09-46.543 0-82.246 13.5-107.01 40.469-24.843 27.012-37.226 66.051-37.226 117.07 0 31.891 5.976 59.961 18.027 84.141 12.012 24.18 29.297 42.789 51.875 55.8 22.539 12.99 49.102 19.49 79.61 19.49 33.339 0 65.175-7.22 95.527-21.739l-25.508-65.543c-11.367 5.312-22.793 9.801-34.18 13.453-11.367 3.68-23.613 5.469-36.699 5.469"/>
    <path transform="matrix(.13333 0 0 -.13333 0 566.93)" d="m1064.6 878.48h15.18c12.5 0 22.44 3.52 29.84 10.551 7.34 7.008 11.05 16.719 11.05 29.098 0 20.82-11.52 31.191-34.59 31.191h-21.48zm140.43 40.079c0-34.45-10.12-61.09-30.45-79.84s-49.18-28.129-86.6-28.129h-23.38v-102.3h-83.32v308.3h106.7c38.94 0 68.22-8.5 87.73-25.488 19.57-17.051 29.32-41.211 29.32-72.543"/>
    <path transform="matrix(.13333 0 0 -.13333 0 566.93)" d="m1410.9 834.4-13.32 50.633c-3.07 11.25-6.84 25.797-11.27 43.629-4.42 17.852-7.35 30.641-8.73 38.399-1.29-7.168-3.75-18.969-7.5-35.43-3.73-16.469-11.99-48.891-24.77-97.231zm32.46-126.11-15.2 57.77h-100.13l-15.61-57.77h-91.56l100.6 309.57h111.14l101.87-309.57h-91.11"/>
    <path transform="matrix(.13333 0 0 -.13333 0 566.93)" d="m1771.7 708.29h-183.09v308.3h183.09v-66.84h-99.78v-48.492h92.36v-66.86h-92.36v-58.199h99.78v-67.91"/>
    <path transform="matrix(.13333 0 0 -.13333 0 566.93)" d="m2141.2 708.29h-109.2l-112.65 217.22h-1.9c2.68-34.16 4.02-60.231 4.02-78.262v-138.96h-73.84v308.3h108.86l112.17-214.24h1.25c-1.97 31.078-2.93 56.019-2.93 74.839v139.4h74.22v-308.3"/>
    <path transform="matrix(.13333 0 0 -.13333 0 566.93)" d="m943.01 251.34h-22.637l-190.23 285.09h-1.778c1.778-33.942 2.676-59.571 2.676-76.852v-208.24h-21.543v321.11h22.383l190.04-284.65h1.309c-1.309 26.367-1.993 51.367-1.993 75.14v209.51h21.778v-321.11"/>
    <path transform="matrix(.13333 0 0 -.13333 0 566.93)" d="m1279.8 251.34h-22.6l-190.2 285.09h-1.81c1.81-33.942 2.67-59.571 2.67-76.852v-208.24h-21.52v321.11h22.38l190.02-284.65h1.31c-1.31 26.367-1.99 51.367-1.99 75.14v209.51h21.74v-321.11"/>
    <path transform="matrix(.13333 0 0 -.13333 0 566.93)" d="m1405.5 403.35h44.14c36.23 0 62.32 5.949 78.44 17.867 16.11 11.949 24.14 31.351 24.14 58.14 0 24.731-7.62 43.071-22.82 55-15.25 11.961-38.84 17.911-70.74 17.911h-53.16zm170.92 76.867c0-31.051-10.55-54.84-31.64-71.379-21.1-16.57-51-24.828-89.65-24.828h-49.63v-132.67h-22.4v321.11h78.63c76.46 0 114.69-30.699 114.69-92.23"/>
    <path transform="matrix(.13333 0 0 -.13333 0 566.93)" d="m1830.4 251.34h-175.49v321.11h175.49v-20.648h-153.09v-121.44h144.54v-20.648h-144.54v-137.75h153.09v-20.621"/>
    <path transform="matrix(.13333 0 0 -.13333 0 566.93)" d="m2126.3 251.34h-27.44l-123.24 169.55-42.82-37.762v-131.79h-22.4v321.11h22.4v-166.92l35.59 35.59 125.86 131.33h28.55l-131.6-135.72 135.1-185.39"/>
   </g>
  </g>
 </g>
</svg>
