<?xml version="1.0" encoding="UTF-8"?>
<svg width="61" height="90" version="1.1" viewBox="0 0 61 90" xmlns="http://www.w3.org/2000/svg">
 <defs>
  <clipPath id="clipPath3">
   <path d="m2039 7511.8v-2213.4h1874.8v2213.4z"/>
  </clipPath>
 </defs>
 <g transform="translate(-222.68 -120.94)">
  <g>
   <path d="m231.53 120.94v50.106h42.441v-50.106h-42.441" fill="#6bb1e5"/>
   <path transform="matrix(.022638 0 0 -.022638 185.37 291)" d="m2583.6 7151c-62.93 89.13-163.16 151.06-280.37 161.31-211.34 18.49-397.66-137.85-416.15-349.19s137.85-397.66 349.19-416.15c14.93-1.31 29.71-1.65 44.33-1.25-91.32 69.73-146.01 181.31-135.46 301.88 16.59 189.67 188.19 329.59 383.28 312.52 18.9-1.65 37.32-4.76 55.18-9.12" clip-path="url(#clipPath3)" fill="#fff"/>
   <path d="m231.53 172.41v17.647h42.441v-17.647h-42.441" fill="#b75726"/>
   <path d="m249.66 165.36c6.852 0 12.407-6.4049 12.407-14.306 0-7.9008-5.5546-14.306-12.407-14.306s-12.407 6.4049-12.407 14.306c0 7.9008 5.5549 14.306 12.407 14.306" fill="#f7de05"/>
  </g>
  <path d="m249.66 165.36c6.852 0 12.407-6.4049 12.407-14.306 0-7.9008-5.5546-14.306-12.407-14.306s-12.407 6.4049-12.407 14.306c0 7.9008 5.5549 14.306 12.407 14.306z" fill="none" stroke="#fff" stroke-width=".67913"/>
  <path d="m269.08 160.58c0.2094-0.21348 0.64541-0.623 0.86409-0.82719 0.1897-0.17703 0.58949-0.51026 0.76787-0.69883 0.18314-0.19378 0.48966-0.63318 0.67235-0.82718 0.14511-0.15394 0.46815-0.42854 0.6239-0.57206 0.1202-0.11093 0.3536-0.34115 0.48037-0.44483 0.12587-0.10323 0.41178-0.26758 0.52814-0.38145 0.0711-0.0697 0.14035-0.31376 0.23973-0.31829 0.10708-5e-3 0.2257 0.23091 0.28796 0.31829 0.1159 0.16231 0.32666 0.50822 0.38416 0.69905 0.0417 0.13764 0.0473 0.42876 0.048 0.57229 6.8e-4 0.15959-0.0206 0.47901-0.048 0.63589-0.0308 0.17884-0.12926 0.52973-0.19219 0.69974-0.0976 0.26373-0.34002 0.77331-0.47993 1.0171-0.10549 0.18405-0.35609 0.52747-0.47992 0.69951-0.0815 0.11319-0.25399 0.3321-0.33594 0.44484-0.14783 0.20396-0.42808 0.62299-0.57591 0.82673-0.12881 0.17748-0.37805 0.53991-0.52836 0.69928-0.3029 0.32123-0.99516 0.8745-1.3445 1.1446-0.19718 0.15258-0.61281 0.42808-0.8161 0.57228-0.28931 0.2051-0.85571 0.63228-1.1523 0.82651-0.23362 0.15326-0.73143 0.41133-0.95984 0.57228-0.30539 0.21574-0.90076 0.67687-1.152 0.95373-0.24494 0.27007-0.54376 0.96641-0.81632 1.2084-0.18156 0.16118-0.65876 0.31466-0.86409 0.44461-0.24267 0.15393-0.69453 0.51184-0.91185 0.69973-0.37986 0.32825-1.0821 1.0472-1.4402 1.399-0.24131 0.23701-0.70833 0.72803-0.96029 0.95373-0.26418 0.23634-0.82605 0.6703-1.1043 0.88989-0.28569 0.2257-0.86726 0.66374-1.1523 0.89034-0.2549 0.20307-0.74999 0.6273-1.0081 0.82651-0.36402 0.28094-1.1004 0.83353-1.488 1.081-0.22004 0.1408-0.66963 0.41268-0.91253 0.50889-0.24155 0.096-0.78961 0.11342-1.0081 0.25423-0.30743 0.19808-0.65876 0.88038-0.91186 1.1446-0.31896 0.33255-1.047 0.90303-1.3924 1.208-0.33866 0.29927-1.0155 0.89804-1.344 1.2084-0.29497 0.2789-0.84575 0.87812-1.1525 1.1444-0.31829 0.27618-1.0178 0.75044-1.344 1.0171-0.37194 0.30403-1.092 0.94083-1.4402 1.2718-0.27369 0.26034-0.77308 0.83059-1.056 1.081-0.37307 0.33006-1.1932 0.8994-1.5842 1.2082-0.41359 0.32666-1.2322 0.99199-1.6324 1.3352-0.34296 0.29406-1.0146 0.89894-1.344 1.2082-0.33097 0.31081-0.9775 0.94829-1.2962 1.2716-0.29293 0.29724-0.8462 0.9243-1.152 1.2082-0.23906 0.22163-0.74298 0.63726-1.0081 0.82674-0.17251 0.12292-0.55056 0.31851-0.72057 0.44483-0.27007 0.20034-0.77104 0.65151-1.0076 0.89034-0.29655 0.29905-0.80024 0.98067-1.1045 1.2718-0.16594 0.15914-0.51094 0.47652-0.71989 0.57228-0.23339 0.10685-0.7518 0.19717-1.0083 0.19084-0.13583-3e-3 -0.39843-0.16752-0.52814-0.12746-0.2051 0.0632-0.37217 0.56912-0.57614 0.6359-0.15122 0.0496-0.49146-0.0389-0.62389-0.12722-0.16005-0.1064-0.36855-0.45457-0.43193-0.63613-0.10527-0.30085-0.11025-0.95305-0.0962-1.2716 0.0161-0.37013 0.11703-1.1129 0.24018-1.4622 0.0729-0.20668 0.30856-0.58179 0.43193-0.76312 0.16118-0.23656 0.55984-0.6531 0.72011-0.89034 0.23453-0.34681 0.60488-1.1009 0.81632-1.4622 0.15077-0.25762 0.42604-0.79413 0.6239-1.0176 0.15235-0.17205 0.50301-0.49645 0.72011-0.57206 0.18133-0.0634 0.58156-0.0464 0.76787 0 0.13198 0.0326 0.35179 0.29837 0.48038 0.25423 0.16525-0.0564 0.2017-0.48423 0.28817-0.6359 0.13447-0.23611 0.47087-0.66555 0.6239-0.89034 0.17137-0.25196 0.44914-0.80908 0.67167-1.0171 0.14126-0.13198 0.527-0.254 0.67234-0.38145 0.16458-0.14443 0.38303-0.53538 0.52814-0.69951 0.16616-0.18812 0.53833-0.52633 0.72011-0.69928 0.20215-0.19265 0.60126-0.58451 0.81609-0.76312 0.20646-0.17137 0.65899-0.46339 0.86431-0.63589 0.22887-0.1922 0.62413-0.6479 0.86409-0.82628 0.15484-0.11546 0.52225-0.25943 0.67166-0.38168 0.21234-0.1734 0.4849-0.68683 0.72056-0.82673 0.19039-0.11274 0.64563-0.15598 0.86409-0.19061 0.32168-0.0512 0.98225-0.041 1.2962-0.127 0.2171-0.0595 0.63227-0.25105 0.81564-0.38167 0.25286-0.17997 0.63363-0.68299 0.86431-0.89035 0.24924-0.22411 0.80591-0.60352 1.0563-0.82628 0.26758-0.23815 0.74501-0.77489 1.0083-1.0178 0.25354-0.23408 0.81156-0.64586 1.0558-0.8899 0.25014-0.24992 0.66532-0.82809 0.91253-1.081 0.23498-0.24041 0.74772-0.67732 1.0081-0.89035 0.24471-0.20011 0.74818-0.58315 1.0081-0.76289 0.24517-0.16956 0.77285-0.45298 1.0081-0.63567 0.18269-0.14194 0.49079-0.49215 0.67189-0.6359 0.18042-0.14329 0.57953-0.37669 0.76833-0.50867 0.22004-0.15348 0.62842-0.50776 0.86408-0.63589 0.23679-0.12881 0.78259-0.2343 1.0083-0.38145 0.18631-0.12179 0.46928-0.47539 0.6239-0.6359 0.18178-0.18902 0.54648-0.56617 0.72011-0.76289 0.14986-0.17001 0.42423-0.53154 0.5759-0.69974 0.19469-0.21551 0.58994-0.64449 0.81632-0.82628 0.23227-0.18676 0.75362-0.48082 1.0081-0.63612 0.21416-0.13039 0.64745-0.38235 0.86409-0.50844 0.2755-0.16028 0.84099-0.45683 1.1045-0.6359 0.19016-0.12926 0.53606-0.43442 0.71988-0.57228 0.17635-0.13221 0.55372-0.36402 0.72011-0.50867 0.1322-0.11455 0.34975-0.39209 0.47992-0.50868 0.15688-0.1408 0.52814-0.35496 0.67234-0.50867 0.10436-0.11115 0.22842-0.40069 0.33618-0.50867 0.10187-0.10164 0.35835-0.24109 0.47992-0.31806 0.13016-0.0822 0.38846-0.25219 0.52791-0.31761 0.21868-0.10277 0.68977-0.22434 0.9123-0.31783 0.19763-0.0833 0.59651-0.25309 0.7681-0.38168 0.15575-0.11681 0.39164-0.43328 0.52814-0.57205" fill="#67c530"/>
  <path d="m269.08 160.58c0.2094-0.21348 0.64541-0.623 0.86409-0.82719 0.1897-0.17703 0.58949-0.51026 0.76787-0.69883 0.18314-0.19378 0.48966-0.63318 0.67235-0.82718 0.14511-0.15394 0.46815-0.42854 0.6239-0.57206 0.1202-0.11093 0.3536-0.34115 0.48037-0.44483 0.12587-0.10323 0.41178-0.26758 0.52814-0.38145 0.0711-0.0697 0.14035-0.31376 0.23973-0.31829 0.10708-5e-3 0.2257 0.23091 0.28796 0.31829 0.1159 0.16231 0.32666 0.50822 0.38416 0.69905 0.0417 0.13764 0.0473 0.42876 0.048 0.57229 6.8e-4 0.15959-0.0206 0.47901-0.048 0.63589-0.0308 0.17884-0.12926 0.52973-0.19219 0.69974-0.0976 0.26373-0.34002 0.77331-0.47993 1.0171-0.10549 0.18405-0.35609 0.52747-0.47992 0.69951-0.0815 0.11319-0.25399 0.3321-0.33594 0.44484-0.14783 0.20396-0.42808 0.62299-0.57591 0.82673-0.12881 0.17748-0.37805 0.53991-0.52836 0.69928-0.3029 0.32123-0.99516 0.8745-1.3445 1.1446-0.19718 0.15258-0.61281 0.42808-0.8161 0.57228-0.28931 0.2051-0.85571 0.63228-1.1523 0.82651-0.23362 0.15326-0.73143 0.41133-0.95984 0.57228-0.30539 0.21574-0.90076 0.67687-1.152 0.95373-0.24494 0.27007-0.54376 0.96641-0.81632 1.2084-0.18156 0.16118-0.65876 0.31466-0.86409 0.44461-0.24267 0.15393-0.69453 0.51184-0.91185 0.69973-0.37986 0.32825-1.0821 1.0472-1.4402 1.399-0.24131 0.23701-0.70833 0.72803-0.96029 0.95373-0.26418 0.23634-0.82605 0.6703-1.1043 0.88989-0.28569 0.2257-0.86726 0.66374-1.1523 0.89034-0.2549 0.20307-0.74999 0.6273-1.0081 0.82651-0.36402 0.28094-1.1004 0.83353-1.488 1.081-0.22004 0.1408-0.66963 0.41268-0.91253 0.50889-0.24155 0.096-0.78961 0.11342-1.0081 0.25423-0.30743 0.19808-0.65876 0.88038-0.91186 1.1446-0.31896 0.33255-1.047 0.90303-1.3924 1.208-0.33866 0.29927-1.0155 0.89804-1.344 1.2084-0.29497 0.2789-0.84575 0.87812-1.1525 1.1444-0.31829 0.27618-1.0178 0.75044-1.344 1.0171-0.37194 0.30403-1.092 0.94083-1.4402 1.2718-0.27369 0.26034-0.77308 0.83059-1.056 1.081-0.37307 0.33006-1.1932 0.8994-1.5842 1.2082-0.41359 0.32666-1.2322 0.99199-1.6324 1.3352-0.34296 0.29406-1.0146 0.89894-1.344 1.2082-0.33097 0.31081-0.9775 0.94829-1.2962 1.2716-0.29293 0.29724-0.8462 0.9243-1.152 1.2082-0.23906 0.22163-0.74298 0.63726-1.0081 0.82674-0.17251 0.12292-0.55056 0.31851-0.72057 0.44483-0.27007 0.20034-0.77104 0.65151-1.0076 0.89034-0.29655 0.29905-0.80024 0.98067-1.1045 1.2718-0.16594 0.15914-0.51094 0.47652-0.71989 0.57228-0.23339 0.10685-0.7518 0.19717-1.0083 0.19084-0.13583-3e-3 -0.39843-0.16752-0.52814-0.12746-0.2051 0.0632-0.37217 0.56912-0.57614 0.6359-0.15122 0.0496-0.49146-0.0389-0.62389-0.12722-0.16005-0.1064-0.36855-0.45457-0.43193-0.63613-0.10527-0.30085-0.11025-0.95305-0.0962-1.2716 0.0161-0.37013 0.11703-1.1129 0.24018-1.4622 0.0729-0.20668 0.30856-0.58179 0.43193-0.76312 0.16118-0.23656 0.55984-0.6531 0.72011-0.89034 0.23453-0.34681 0.60488-1.1009 0.81632-1.4622 0.15077-0.25762 0.42604-0.79413 0.6239-1.0176 0.15235-0.17205 0.50301-0.49645 0.72011-0.57206 0.18133-0.0634 0.58156-0.0464 0.76787 0 0.13198 0.0326 0.35179 0.29837 0.48038 0.25423 0.16525-0.0564 0.2017-0.48423 0.28817-0.6359 0.13447-0.23611 0.47087-0.66555 0.6239-0.89034 0.17137-0.25196 0.44914-0.80908 0.67167-1.0171 0.14126-0.13198 0.527-0.254 0.67234-0.38145 0.16458-0.14443 0.38303-0.53538 0.52814-0.69951 0.16616-0.18812 0.53833-0.52633 0.72011-0.69928 0.20215-0.19265 0.60126-0.58451 0.81609-0.76312 0.20646-0.17137 0.65899-0.46339 0.86431-0.63589 0.22887-0.1922 0.62413-0.6479 0.86409-0.82628 0.15484-0.11546 0.52225-0.25943 0.67166-0.38168 0.21234-0.1734 0.4849-0.68683 0.72056-0.82673 0.19039-0.11274 0.64563-0.15598 0.86409-0.19061 0.32168-0.0512 0.98225-0.041 1.2962-0.127 0.2171-0.0595 0.63227-0.25105 0.81564-0.38167 0.25286-0.17997 0.63363-0.68299 0.86431-0.89035 0.24924-0.22411 0.80591-0.60352 1.0563-0.82628 0.26758-0.23815 0.74501-0.77489 1.0083-1.0178 0.25354-0.23408 0.81156-0.64586 1.0558-0.8899 0.25014-0.24992 0.66532-0.82809 0.91253-1.081 0.23498-0.24041 0.74772-0.67732 1.0081-0.89035 0.24471-0.20011 0.74818-0.58315 1.0081-0.76289 0.24517-0.16956 0.77285-0.45298 1.0081-0.63567 0.18269-0.14194 0.49079-0.49215 0.67189-0.6359 0.18042-0.14329 0.57953-0.37669 0.76833-0.50867 0.22004-0.15348 0.62842-0.50776 0.86408-0.63589 0.23679-0.12881 0.78259-0.2343 1.0083-0.38145 0.18631-0.12179 0.46928-0.47539 0.6239-0.6359 0.18178-0.18902 0.54648-0.56617 0.72011-0.76289 0.14986-0.17001 0.42423-0.53154 0.5759-0.69974 0.19469-0.21551 0.58994-0.64449 0.81632-0.82628 0.23227-0.18676 0.75362-0.48082 1.0081-0.63612 0.21416-0.13039 0.64745-0.38235 0.86409-0.50844 0.2755-0.16028 0.84099-0.45683 1.1045-0.6359 0.19016-0.12926 0.53606-0.43442 0.71988-0.57228 0.17635-0.13221 0.55372-0.36402 0.72011-0.50867 0.1322-0.11455 0.34975-0.39209 0.47992-0.50868 0.15688-0.1408 0.52814-0.35496 0.67234-0.50867 0.10436-0.11115 0.22842-0.40069 0.33618-0.50867 0.10187-0.10164 0.35835-0.24109 0.47992-0.31806 0.13016-0.0822 0.38846-0.25219 0.52791-0.31761 0.21868-0.10277 0.68977-0.22434 0.9123-0.31783 0.19763-0.0833 0.59651-0.25309 0.7681-0.38168 0.15575-0.11681 0.39164-0.43328 0.52814-0.57205z" fill="none" stroke="#fff" stroke-miterlimit="10" stroke-width=".532"/>
  <path d="m270.07 175.95c0.14489-0.11567 0.41518-0.3708 0.56414-0.48105 0.17929-0.13288 0.58677-0.33096 0.75203-0.48105 0.14103-0.12836 0.33119-0.47042 0.47041-0.60081 0.15575-0.14579 0.51795-0.37873 0.70517-0.48105 0.13447-0.0736 0.41178-0.25762 0.56391-0.24019 0.10119 0.0115 0.26192 0.16367 0.32892 0.24019 0.11319 0.12881 0.24494 0.45207 0.32938 0.60126 0.10301 0.18178 0.29882 0.55281 0.42265 0.72101 0.0724 0.0985 0.28524 0.24698 0.32938 0.36085 0.0869 0.22411 6e-3 0.72124 0 0.96165-6e-3 0.24064 0.0367 0.73618-0.0473 0.96166-0.0598 0.16095-0.2909 0.43102-0.42265 0.54104-0.17318 0.14466-0.61529 0.28976-0.79934 0.42084-0.19672 0.14012-0.54195 0.48263-0.70494 0.66102-0.12881 0.14081-0.32689 0.47494-0.46996 0.60103-0.15417 0.13583-0.56459 0.27121-0.70562 0.42061-0.10482 0.11093-0.19265 0.41745-0.28207 0.54082-0.0987 0.13606-0.35926 0.35451-0.46996 0.48106-0.1759 0.20102-0.48875 0.63499-0.65831 0.84144-0.12564 0.15326-0.40408 0.43827-0.51727 0.60104-0.16639 0.2395-0.39413 0.7844-0.56414 1.0216-0.14216 0.19831-0.50482 0.53131-0.65762 0.72147-0.24246 0.30108-0.64428 0.96641-0.89307 1.2621-0.15031 0.17861-0.5012 0.48875-0.6583 0.66102-0.19786 0.2171-0.54127 0.69747-0.75203 0.90166-0.19288 0.18677-0.62707 0.50596-0.8462 0.66103-0.15937 0.11273-0.5012 0.3047-0.65808 0.42083-0.14896 0.11025-0.44303 0.34048-0.56414 0.48083-0.17386 0.20125-0.40816 0.68661-0.56459 0.90144-0.15031 0.20646-0.48829 0.59062-0.65785 0.78146-0.13696 0.15393-0.41314 0.4609-0.56413 0.60103-0.21031 0.19536-0.66986 0.54104-0.89307 0.72124-0.2232 0.18042-0.68841 0.52044-0.89351 0.72124-0.18246 0.17861-0.45117 0.6316-0.65808 0.78123-0.16412 0.1184-0.57704 0.19876-0.75203 0.30063-0.20804 0.12111-0.5827 0.43012-0.75203 0.60126-0.1476 0.14896-0.35903 0.52316-0.51727 0.6608-0.11274 0.0983-0.40454 0.20261-0.51727 0.30086-0.115 0.10028-0.2531 0.39005-0.37579 0.4806-0.10119 0.0749-0.36311 0.11432-0.47042 0.18042-0.0946 0.0584-0.24924 0.22253-0.3287 0.3004-0.13401 0.13085-0.4025 0.39322-0.51727 0.54105-0.10889 0.1399-0.26713 0.46113-0.37579 0.60103-0.115 0.1476-0.40838 0.38892-0.51727 0.54082-0.11862 0.16525-0.27596 0.54444-0.37624 0.72124-0.12179 0.21483-0.36832 0.64427-0.51682 0.84145-0.14692 0.19491-0.51479 0.52361-0.65831 0.72124-0.11183 0.15371-0.24268 0.52565-0.37624 0.66125-0.24879 0.25286-0.96166 0.4806-1.2224 0.72124-0.13492 0.12451-0.31082 0.45524-0.42288 0.6008-0.15597 0.20239-0.4969 0.58338-0.65785 0.78191-0.16843 0.20714-0.48445 0.63839-0.65831 0.84123-0.20125 0.23452-0.61099 0.70086-0.8462 0.90143-0.18359 0.15666-0.6042 0.39911-0.79934 0.54105-0.21687 0.15801-0.61009 0.53334-0.8462 0.66102-0.16367 0.0885-0.52656 0.18722-0.70494 0.24041-0.11636 0.0346-0.35202 0.0926-0.46997 0.12021-0.14035 0.0328-0.41993 0.12043-0.56413 0.12043s-0.42197-0.0962-0.56413-0.12043c-0.11681-0.0199-0.36243-0.10911-0.47042-0.06-0.11522 0.0525-0.17431 0.35406-0.28206 0.42061-0.10074 0.0623-0.3561 0.0926-0.46997 0.0602-0.16027-0.0457-0.39412-0.30856-0.51704-0.42084-0.12428-0.11341-0.3699-0.34568-0.46996-0.48083-0.1021-0.13763-0.23521-0.45796-0.32938-0.60103-0.0525-0.0797-0.15779-0.24449-0.23476-0.3004-0.0708-0.0516-0.28229-0.0462-0.32938-0.12021-0.0729-0.11455-0.0113-0.41857 0.0473-0.54082 0.0561-0.11749 0.27527-0.27844 0.37624-0.36062 0.14375-0.11726 0.45411-0.32168 0.61099-0.42083 0.12632-0.0801 0.39344-0.21642 0.51705-0.30041 0.16095-0.10934 0.47086-0.34636 0.61099-0.48105 0.15666-0.15054 0.42242-0.49668 0.56414-0.66125 0.11681-0.13583 0.37216-0.39096 0.46996-0.54105 0.0906-0.13899 0.2257-0.44483 0.28206-0.6008 0.0475-0.1313 0.0953-0.40884 0.14104-0.54105 0.0482-0.13922 0.15575-0.41653 0.2352-0.54081 0.0761-0.11885 0.27822-0.3192 0.37624-0.42084 0.13561-0.14058 0.4299-0.39888 0.56414-0.54082 0.14896-0.15801 0.43668-0.48513 0.56391-0.66102 0.0928-0.12836 0.22796-0.41925 0.32892-0.54105 0.10097-0.12111 0.36742-0.30108 0.46996-0.42083 0.0702-0.0815 0.15892-0.28479 0.23521-0.36062 0.11908-0.11772 0.44031-0.24789 0.56414-0.36062 0.12699-0.11546 0.29904-0.4222 0.4231-0.54082 0.0939-0.0897 0.33979-0.2008 0.4231-0.3004 0.10639-0.12745 0.1605-0.48808 0.28206-0.60126 0.0921-0.0856 0.36289-0.11455 0.47042-0.1802 0.13447-0.0822 0.36582-0.30222 0.46996-0.42084 0.096-0.10956 0.22864-0.37511 0.32893-0.48105 0.10187-0.10753 0.35269-0.2703 0.47018-0.36062 0.11749-0.0901 0.36221-0.2592 0.46996-0.36062 0.13062-0.1227 0.34455-0.41314 0.47042-0.54082 0.1107-0.11228 0.35609-0.3115 0.46996-0.42061 0.12156-0.11613 0.36334-0.35111 0.46996-0.48105 0.0924-0.11251 0.19197-0.43103 0.32893-0.4806 0.10345-0.0376 0.31353 0.11477 0.42355 0.11998 0.16707 8e-3 0.50369-0.055 0.65786-0.11998 0.11952-0.0505 0.309-0.23861 0.4231-0.30041 0.14442-0.0783 0.50006-0.11975 0.61144-0.24064 0.13809-0.15009 0.14081-0.60013 0.23453-0.78145 0.0878-0.16934 0.35609-0.44778 0.46996-0.60081 0.12134-0.16254 0.33934-0.50664 0.47042-0.66125 0.0964-0.11364 0.33005-0.30403 0.4231-0.42061 0.11069-0.13855 0.27754-0.45366 0.37624-0.60104 0.1236-0.18427 0.36514-0.55938 0.51682-0.72124 0.14556-0.15552 0.5012-0.39706 0.6583-0.54104 0.12383-0.11342 0.35587-0.35723 0.47019-0.4806 0.10889-0.11727 0.31127-0.36628 0.42265-0.48105 0.12315-0.12655 0.39526-0.35338 0.51727-0.48083 0.15032-0.15688 0.39481-0.52475 0.56414-0.6608 0.12473-0.10028 0.44166-0.19808 0.56413-0.30086 0.14624-0.12269 0.35293-0.45071 0.47042-0.60103 0.10571-0.13515 0.30832-0.41291 0.42264-0.54104 0.14262-0.15983 0.4437-0.46747 0.61145-0.60104 0.10911-0.0869 0.35926-0.21551 0.46996-0.3004 0.0883-0.0677 0.23951-0.23453 0.32938-0.3004 0.12043-0.0885 0.40409-0.20261 0.51682-0.30063 0.15801-0.13787 0.39209-0.4926 0.51705-0.66103 0.10957-0.1476 0.29927-0.46543 0.4231-0.60126 0.0937-0.10277 0.32463-0.2626 0.4231-0.36062 0.14058-0.13967 0.37692-0.4609 0.51728-0.60081 0.13129-0.13084 0.42604-0.35745 0.56413-0.48105 0.1802-0.16095 0.52701-0.49781 0.70517-0.66102 0.11613-0.1064 0.3459-0.32327 0.46996-0.42084 0.14556-0.11455 0.44845-0.33119 0.61099-0.42038 0.13424-0.074 0.44235-0.14738 0.56391-0.24087 0.10595-0.0813 0.23385-0.32712 0.32938-0.42038 0.12587-0.12293 0.42672-0.31105 0.56413-0.42062" fill="#67c530"/>
  <path d="m270.07 175.95c0.14489-0.11567 0.41518-0.3708 0.56414-0.48105 0.17929-0.13288 0.58677-0.33096 0.75203-0.48105 0.14103-0.12836 0.33119-0.47042 0.47041-0.60081 0.15575-0.14579 0.51795-0.37873 0.70517-0.48105 0.13447-0.0736 0.41178-0.25762 0.56391-0.24019 0.10119 0.0115 0.26192 0.16367 0.32892 0.24019 0.11319 0.12881 0.24494 0.45207 0.32938 0.60126 0.10301 0.18178 0.29882 0.55281 0.42265 0.72101 0.0724 0.0985 0.28524 0.24698 0.32938 0.36085 0.0869 0.22411 6e-3 0.72124 0 0.96165-6e-3 0.24064 0.0367 0.73618-0.0473 0.96166-0.0598 0.16095-0.2909 0.43102-0.42265 0.54104-0.17318 0.14466-0.61529 0.28976-0.79934 0.42084-0.19672 0.14012-0.54195 0.48263-0.70494 0.66102-0.12881 0.14081-0.32689 0.47494-0.46996 0.60103-0.15417 0.13583-0.56459 0.27121-0.70562 0.42061-0.10482 0.11093-0.19265 0.41745-0.28207 0.54082-0.0987 0.13606-0.35926 0.35451-0.46996 0.48106-0.1759 0.20102-0.48875 0.63499-0.65831 0.84144-0.12564 0.15326-0.40408 0.43827-0.51727 0.60104-0.16639 0.2395-0.39413 0.7844-0.56414 1.0216-0.14216 0.19831-0.50482 0.53131-0.65762 0.72147-0.24246 0.30108-0.64428 0.96641-0.89307 1.2621-0.15031 0.17861-0.5012 0.48875-0.6583 0.66102-0.19786 0.2171-0.54127 0.69747-0.75203 0.90166-0.19288 0.18677-0.62707 0.50596-0.8462 0.66103-0.15937 0.11273-0.5012 0.3047-0.65808 0.42083-0.14896 0.11025-0.44303 0.34048-0.56414 0.48083-0.17386 0.20125-0.40816 0.68661-0.56459 0.90144-0.15031 0.20646-0.48829 0.59062-0.65785 0.78146-0.13696 0.15393-0.41314 0.4609-0.56413 0.60103-0.21031 0.19536-0.66986 0.54104-0.89307 0.72124-0.2232 0.18042-0.68841 0.52044-0.89351 0.72124-0.18246 0.17861-0.45117 0.6316-0.65808 0.78123-0.16412 0.1184-0.57704 0.19876-0.75203 0.30063-0.20804 0.12111-0.5827 0.43012-0.75203 0.60126-0.1476 0.14896-0.35903 0.52316-0.51727 0.6608-0.11274 0.0983-0.40454 0.20261-0.51727 0.30086-0.115 0.10028-0.2531 0.39005-0.37579 0.4806-0.10119 0.0749-0.36311 0.11432-0.47042 0.18042-0.0946 0.0584-0.24924 0.22253-0.3287 0.3004-0.13401 0.13085-0.4025 0.39322-0.51727 0.54105-0.10889 0.1399-0.26713 0.46113-0.37579 0.60103-0.115 0.1476-0.40838 0.38892-0.51727 0.54082-0.11862 0.16525-0.27596 0.54444-0.37624 0.72124-0.12179 0.21483-0.36832 0.64427-0.51682 0.84145-0.14692 0.19491-0.51479 0.52361-0.65831 0.72124-0.11183 0.15371-0.24268 0.52565-0.37624 0.66125-0.24879 0.25286-0.96166 0.4806-1.2224 0.72124-0.13492 0.12451-0.31082 0.45524-0.42288 0.6008-0.15597 0.20239-0.4969 0.58338-0.65785 0.78191-0.16843 0.20714-0.48445 0.63839-0.65831 0.84123-0.20125 0.23452-0.61099 0.70086-0.8462 0.90143-0.18359 0.15666-0.6042 0.39911-0.79934 0.54105-0.21687 0.15801-0.61009 0.53334-0.8462 0.66102-0.16367 0.0885-0.52656 0.18722-0.70494 0.24041-0.11636 0.0346-0.35202 0.0926-0.46997 0.12021-0.14035 0.0328-0.41993 0.12043-0.56413 0.12043s-0.42197-0.0962-0.56413-0.12043c-0.11681-0.0199-0.36243-0.10911-0.47042-0.06-0.11522 0.0525-0.17431 0.35406-0.28206 0.42061-0.10074 0.0623-0.3561 0.0926-0.46997 0.0602-0.16027-0.0457-0.39412-0.30856-0.51704-0.42084-0.12428-0.11341-0.3699-0.34568-0.46996-0.48083-0.1021-0.13763-0.23521-0.45796-0.32938-0.60103-0.0525-0.0797-0.15779-0.24449-0.23476-0.3004-0.0708-0.0516-0.28229-0.0462-0.32938-0.12021-0.0729-0.11455-0.0113-0.41857 0.0473-0.54082 0.0561-0.11749 0.27527-0.27844 0.37624-0.36062 0.14375-0.11726 0.45411-0.32168 0.61099-0.42083 0.12632-0.0801 0.39344-0.21642 0.51705-0.30041 0.16095-0.10934 0.47086-0.34636 0.61099-0.48105 0.15666-0.15054 0.42242-0.49668 0.56414-0.66125 0.11681-0.13583 0.37216-0.39096 0.46996-0.54105 0.0906-0.13899 0.2257-0.44483 0.28206-0.6008 0.0475-0.1313 0.0953-0.40884 0.14104-0.54105 0.0482-0.13922 0.15575-0.41653 0.2352-0.54081 0.0761-0.11885 0.27822-0.3192 0.37624-0.42084 0.13561-0.14058 0.4299-0.39888 0.56414-0.54082 0.14896-0.15801 0.43668-0.48513 0.56391-0.66102 0.0928-0.12836 0.22796-0.41925 0.32892-0.54105 0.10097-0.12111 0.36742-0.30108 0.46996-0.42083 0.0702-0.0815 0.15892-0.28479 0.23521-0.36062 0.11908-0.11772 0.44031-0.24789 0.56414-0.36062 0.12699-0.11546 0.29904-0.4222 0.4231-0.54082 0.0939-0.0897 0.33979-0.2008 0.4231-0.3004 0.10639-0.12745 0.1605-0.48808 0.28206-0.60126 0.0921-0.0856 0.36289-0.11455 0.47042-0.1802 0.13447-0.0822 0.36582-0.30222 0.46996-0.42084 0.096-0.10956 0.22864-0.37511 0.32893-0.48105 0.10187-0.10753 0.35269-0.2703 0.47018-0.36062 0.11749-0.0901 0.36221-0.2592 0.46996-0.36062 0.13062-0.1227 0.34455-0.41314 0.47042-0.54082 0.1107-0.11228 0.35609-0.3115 0.46996-0.42061 0.12156-0.11613 0.36334-0.35111 0.46996-0.48105 0.0924-0.11251 0.19197-0.43103 0.32893-0.4806 0.10345-0.0376 0.31353 0.11477 0.42355 0.11998 0.16707 8e-3 0.50369-0.055 0.65786-0.11998 0.11952-0.0505 0.309-0.23861 0.4231-0.30041 0.14442-0.0783 0.50006-0.11975 0.61144-0.24064 0.13809-0.15009 0.14081-0.60013 0.23453-0.78145 0.0878-0.16934 0.35609-0.44778 0.46996-0.60081 0.12134-0.16254 0.33934-0.50664 0.47042-0.66125 0.0964-0.11364 0.33005-0.30403 0.4231-0.42061 0.11069-0.13855 0.27754-0.45366 0.37624-0.60104 0.1236-0.18427 0.36514-0.55938 0.51682-0.72124 0.14556-0.15552 0.5012-0.39706 0.6583-0.54104 0.12383-0.11342 0.35587-0.35723 0.47019-0.4806 0.10889-0.11727 0.31127-0.36628 0.42265-0.48105 0.12315-0.12655 0.39526-0.35338 0.51727-0.48083 0.15032-0.15688 0.39481-0.52475 0.56414-0.6608 0.12473-0.10028 0.44166-0.19808 0.56413-0.30086 0.14624-0.12269 0.35293-0.45071 0.47042-0.60103 0.10571-0.13515 0.30832-0.41291 0.42264-0.54104 0.14262-0.15983 0.4437-0.46747 0.61145-0.60104 0.10911-0.0869 0.35926-0.21551 0.46996-0.3004 0.0883-0.0677 0.23951-0.23453 0.32938-0.3004 0.12043-0.0885 0.40409-0.20261 0.51682-0.30063 0.15801-0.13787 0.39209-0.4926 0.51705-0.66103 0.10957-0.1476 0.29927-0.46543 0.4231-0.60126 0.0937-0.10277 0.32463-0.2626 0.4231-0.36062 0.14058-0.13967 0.37692-0.4609 0.51728-0.60081 0.13129-0.13084 0.42604-0.35745 0.56413-0.48105 0.1802-0.16095 0.52701-0.49781 0.70517-0.66102 0.11613-0.1064 0.3459-0.32327 0.46996-0.42084 0.14556-0.11455 0.44845-0.33119 0.61099-0.42038 0.13424-0.074 0.44235-0.14738 0.56391-0.24087 0.10595-0.0813 0.23385-0.32712 0.32938-0.42038 0.12587-0.12293 0.42672-0.31105 0.56413-0.42062z" fill="none" stroke="#fff" stroke-miterlimit="10" stroke-width=".532"/>
  <path d="m267.67 168.62c0.2017-0.11364 0.56979-0.39798 0.75203-0.54082 0.14579-0.11432 0.42672-0.35677 0.56413-0.48105 0.14489-0.13108 0.40862-0.42243 0.56414-0.54082 0.16322-0.12451 0.55485-0.28094 0.70494-0.42084 0.12066-0.11228 0.24675-0.4394 0.37624-0.54104 0.0992-0.0777 0.35179-0.13696 0.46996-0.1802 0.12858-0.0471 0.38054-0.1734 0.51727-0.1802 0.19333-0.01 0.57455 0.10437 0.75248 0.1802 0.10255 0.0437 0.27415 0.19469 0.37579 0.24042 0.10029 0.0453 0.36379 0.0276 0.4231 0.1202 0.0591 0.0926-0.13243 0.45389-0.0942 0.60104 0.0335 0.12926 0.26599 0.30289 0.32938 0.42061 0.0525 0.0976 0.096 0.31919 0.14103 0.42061 0.0487 0.11024 0.21393 0.30221 0.23521 0.42083 0.0267 0.14987-0.0337 0.46136-0.0942 0.60081-0.0761 0.17522-0.34432 0.45796-0.46996 0.60149-0.2214 0.25309-0.71242 0.71422-0.94038 0.96143-0.12134 0.13175-0.34862 0.40906-0.46996 0.54081-0.11409 0.1236-0.35315 0.3604-0.47041 0.48106-0.1888 0.19445-0.56527 0.58473-0.75203 0.78123-0.14194 0.14918-0.40839 0.46588-0.56391 0.60103-0.2171 0.18835-0.70879 0.49079-0.94037 0.66102-0.17907 0.13153-0.52724 0.40771-0.70517 0.54082-0.16322 0.12225-0.48762 0.36945-0.65831 0.48105-0.12519 0.0817-0.38688 0.22684-0.51727 0.30041-0.16322 0.0921-0.49328 0.27052-0.65786 0.36062-0.16435 0.0901-0.50867 0.2472-0.65808 0.36062-0.20102 0.15235-0.51931 0.551-0.70517 0.72147-0.15688 0.14397-0.51138 0.38642-0.6583 0.54081-0.24472 0.2574-0.62028 0.86748-0.8462 1.1416-0.15507 0.18857-0.49758 0.53742-0.65809 0.72124-0.1931 0.22117-0.551 0.68796-0.75202 0.90166-0.21031 0.22344-0.67574 0.62503-0.89307 0.84168-0.20555 0.20464-0.60352 0.62706-0.79934 0.84122-0.21596 0.23634-0.62344 0.73142-0.8462 0.96165-0.21302 0.22049-0.67551 0.6248-0.89283 0.84122-0.20578 0.20487-0.59877 0.63182-0.79934 0.84145-0.24585 0.25649-0.72555 0.78168-0.98724 1.0219-0.1227 0.11251-0.39458 0.30765-0.51727 0.42038-0.19944 0.1836-0.56595 0.58451-0.75203 0.78169-0.15439 0.1639-0.45366 0.50052-0.61122 0.66102-0.18246 0.18586-0.55553 0.55033-0.75203 0.72124-0.14669 0.12745-0.46158 0.35632-0.61099 0.4806-0.19242 0.16028-0.57478 0.48445-0.75203 0.66148-0.11319 0.11319-0.31263 0.36515-0.42355 0.4806-0.13515 0.14103-0.42311 0.4059-0.56414 0.54104-0.14081 0.13515-0.42514 0.40341-0.56391 0.54082-0.11952 0.11817-0.34726 0.36605-0.46996 0.4806-0.13537 0.12655-0.4274 0.35609-0.56413 0.48106-0.15801 0.14488-0.44619 0.46452-0.61145 0.6008-0.14307 0.11817-0.46158 0.31082-0.61099 0.42084-0.15643 0.11523-0.50822 0.3158-0.61077 0.48083-0.0894 0.14352-0.0854 0.50165-0.14126 0.66125-0.0609 0.17431-0.23408 0.50301-0.32916 0.66125-0.11454 0.18993-0.36492 0.5596-0.51682 0.72124-0.11432 0.12134-0.38801 0.31534-0.51727 0.42038-0.12926 0.10527-0.38711 0.31625-0.51682 0.42084-0.18744 0.15122-0.55463 0.46407-0.75248 0.60126-0.16865 0.11681-0.53697 0.30289-0.70517 0.42038-0.13651 0.0955-0.38575 0.31829-0.51705 0.42084-0.13899 0.10821-0.44121 0.29497-0.56413 0.42084-0.14171 0.14488-0.34885 0.49848-0.46996 0.66079-0.10278 0.13764-0.27618 0.45231-0.4231 0.54105-0.14307 0.0865-0.49283 0.14443-0.65831 0.11998-0.13039-0.019-0.36809-0.1562-0.46996-0.24019-0.13243-0.10911-0.29588-0.42536-0.4231-0.54082-0.12383-0.11251-0.4428-0.24516-0.56391-0.36062-0.14715-0.1399-0.39639-0.47245-0.47041-0.66125-0.0663-0.16933-0.077-0.54013-0.0937-0.72124-0.0195-0.20962-0.0564-0.63091-0.0469-0.84122 0.0109-0.2429 0.0833-0.72554 0.14058-0.96165 0.0598-0.24698 0.24177-0.72305 0.32938-0.96166 0.0887-0.24245 0.24811-0.73754 0.37601-0.96188 0.10391-0.18223 0.38779-0.49576 0.51682-0.66102 0.11749-0.15032 0.34591-0.45615 0.46996-0.60103 0.13424-0.15643 0.42265-0.45095 0.56414-0.60081 0.19921-0.21099 0.58224-0.64903 0.79934-0.84168 0.13152-0.11681 0.41789-0.32258 0.56413-0.42038 0.17046-0.11409 0.53222-0.30991 0.70517-0.42084 0.15597-0.10028 0.46747-0.30357 0.61122-0.42083 0.25241-0.20555 0.6891-0.69408 0.93992-0.90144 0.19989-0.16548 0.66578-0.4145 0.8462-0.60081 0.163-0.16842 0.3604-0.60737 0.51728-0.78146 0.14262-0.15823 0.49803-0.40068 0.65808-0.54127 0.18155-0.15937 0.52203-0.50323 0.70517-0.66057 0.14759-0.12677 0.4686-0.34862 0.61099-0.48105 0.17884-0.16616 0.48988-0.54444 0.65831-0.72124 0.16095-0.16888 0.47652-0.51501 0.65831-0.66125 0.10843-0.0876 0.3579-0.21755 0.46996-0.3004 0.1116-0.0826 0.31625-0.27166 0.42287-0.36063 0.12813-0.10662 0.38801-0.31557 0.51727-0.42083 0.12949-0.10504 0.3973-0.30493 0.51728-0.42039 0.11545-0.11115 0.28727-0.3957 0.42265-0.48105 0.093-0.0589 0.3407-0.0475 0.42355-0.12021 0.11092-0.0969 0.13243-0.43464 0.23475-0.54081 0.0724-0.0752 0.29362-0.11681 0.37624-0.1802 0.17228-0.13243 0.40794-0.51003 0.56414-0.66102 0.0863-0.0838 0.29112-0.21529 0.37579-0.30086 0.12066-0.12202 0.28093-0.44506 0.42355-0.54082 0.091-0.0614 0.32847-0.0634 0.42242-0.1202 0.16028-0.0964 0.37488-0.41948 0.51727-0.54082 0.14126-0.12021 0.4763-0.29361 0.61145-0.42084 0.12496-0.11749 0.29905-0.42219 0.4231-0.54082 0.0937-0.0896 0.3244-0.21641 0.4231-0.30063 0.12768-0.10934 0.35451-0.35835 0.46996-0.4806 0.0838-0.0887 0.23363-0.28433 0.32893-0.36062 0.0951-0.0761 0.32576-0.16797 0.42333-0.24064 0.15665-0.11681 0.42446-0.40453 0.56413-0.54104 0.10663-0.10413 0.31422-0.31829 0.42265-0.42038 0.11477-0.10844 0.34477-0.32554 0.47041-0.42084 0.15553-0.11817 0.49871-0.30788 0.65786-0.42084 0.15846-0.11251 0.48354-0.33413 0.61145-0.4806 0.0915-0.10504 0.19129-0.37511 0.28206-0.48083 0.10844-0.12632 0.40454-0.29768 0.51682-0.42061 0.0851-0.0937 0.19537-0.3287 0.28184-0.42083 0.10142-0.10821 0.35429-0.26894 0.47042-0.36062 0.13084-0.10323 0.38756-0.31603 0.51727-0.42061 0.0937-0.0756 0.29384-0.21257 0.37579-0.30063 0.0992-0.10685 0.20917-0.39866 0.32938-0.48083 0.10957-0.0747 0.40227-0.053 0.51682-0.11998 0.10527-0.0618 0.24404-0.27324 0.32938-0.36062 0.13651-0.1399 0.40273-0.43057 0.56414-0.54105 0.11749-0.0804 0.40793-0.1485 0.51659-0.24064 0.11115-0.0942 0.21687-0.38823 0.32938-0.48037 0.089-0.0729 0.32304-0.12383 0.4231-0.18042" fill="#67c530"/>
  <path d="m267.67 168.62c0.2017-0.11364 0.56979-0.39798 0.75203-0.54082 0.14579-0.11432 0.42672-0.35677 0.56413-0.48105 0.14489-0.13108 0.40862-0.42243 0.56414-0.54082 0.16322-0.12451 0.55485-0.28094 0.70494-0.42084 0.12066-0.11228 0.24675-0.4394 0.37624-0.54104 0.0992-0.0777 0.35179-0.13696 0.46996-0.1802 0.12858-0.0471 0.38054-0.1734 0.51727-0.1802 0.19333-0.01 0.57455 0.10437 0.75248 0.1802 0.10255 0.0437 0.27415 0.19469 0.37579 0.24042 0.10029 0.0453 0.36379 0.0276 0.4231 0.1202 0.0591 0.0926-0.13243 0.45389-0.0942 0.60104 0.0335 0.12926 0.26599 0.30289 0.32938 0.42061 0.0525 0.0976 0.096 0.31919 0.14103 0.42061 0.0487 0.11024 0.21393 0.30221 0.23521 0.42083 0.0267 0.14987-0.0337 0.46136-0.0942 0.60081-0.0761 0.17522-0.34432 0.45796-0.46996 0.60149-0.2214 0.25309-0.71242 0.71422-0.94038 0.96143-0.12134 0.13175-0.34862 0.40906-0.46996 0.54081-0.11409 0.1236-0.35315 0.3604-0.47041 0.48106-0.1888 0.19445-0.56527 0.58473-0.75203 0.78123-0.14194 0.14918-0.40839 0.46588-0.56391 0.60103-0.2171 0.18835-0.70879 0.49079-0.94037 0.66102-0.17907 0.13153-0.52724 0.40771-0.70517 0.54082-0.16322 0.12225-0.48762 0.36945-0.65831 0.48105-0.12519 0.0817-0.38688 0.22684-0.51727 0.30041-0.16322 0.0921-0.49328 0.27052-0.65786 0.36062-0.16435 0.0901-0.50867 0.2472-0.65808 0.36062-0.20102 0.15235-0.51931 0.551-0.70517 0.72147-0.15688 0.14397-0.51138 0.38642-0.6583 0.54081-0.24472 0.2574-0.62028 0.86748-0.8462 1.1416-0.15507 0.18857-0.49758 0.53742-0.65809 0.72124-0.1931 0.22117-0.551 0.68796-0.75202 0.90166-0.21031 0.22344-0.67574 0.62503-0.89307 0.84168-0.20555 0.20464-0.60352 0.62706-0.79934 0.84122-0.21596 0.23634-0.62344 0.73142-0.8462 0.96165-0.21302 0.22049-0.67551 0.6248-0.89283 0.84122-0.20578 0.20487-0.59877 0.63182-0.79934 0.84145-0.24585 0.25649-0.72555 0.78168-0.98724 1.0219-0.1227 0.11251-0.39458 0.30765-0.51727 0.42038-0.19944 0.1836-0.56595 0.58451-0.75203 0.78169-0.15439 0.1639-0.45366 0.50052-0.61122 0.66102-0.18246 0.18586-0.55553 0.55033-0.75203 0.72124-0.14669 0.12745-0.46158 0.35632-0.61099 0.4806-0.19242 0.16028-0.57478 0.48445-0.75203 0.66148-0.11319 0.11319-0.31263 0.36515-0.42355 0.4806-0.13515 0.14103-0.42311 0.4059-0.56414 0.54104-0.14081 0.13515-0.42514 0.40341-0.56391 0.54082-0.11952 0.11817-0.34726 0.36605-0.46996 0.4806-0.13537 0.12655-0.4274 0.35609-0.56413 0.48106-0.15801 0.14488-0.44619 0.46452-0.61145 0.6008-0.14307 0.11817-0.46158 0.31082-0.61099 0.42084-0.15643 0.11523-0.50822 0.3158-0.61077 0.48083-0.0894 0.14352-0.0854 0.50165-0.14126 0.66125-0.0609 0.17431-0.23408 0.50301-0.32916 0.66125-0.11454 0.18993-0.36492 0.5596-0.51682 0.72124-0.11432 0.12134-0.38801 0.31534-0.51727 0.42038-0.12926 0.10527-0.38711 0.31625-0.51682 0.42084-0.18744 0.15122-0.55463 0.46407-0.75248 0.60126-0.16865 0.11681-0.53697 0.30289-0.70517 0.42038-0.13651 0.0955-0.38575 0.31829-0.51705 0.42084-0.13899 0.10821-0.44121 0.29497-0.56413 0.42084-0.14171 0.14488-0.34885 0.49848-0.46996 0.66079-0.10278 0.13764-0.27618 0.45231-0.4231 0.54105-0.14307 0.0865-0.49283 0.14443-0.65831 0.11998-0.13039-0.019-0.36809-0.1562-0.46996-0.24019-0.13243-0.10911-0.29588-0.42536-0.4231-0.54082-0.12383-0.11251-0.4428-0.24516-0.56391-0.36062-0.14715-0.1399-0.39639-0.47245-0.47041-0.66125-0.0663-0.16933-0.077-0.54013-0.0937-0.72124-0.0195-0.20962-0.0564-0.63091-0.0469-0.84122 0.0109-0.2429 0.0833-0.72554 0.14058-0.96165 0.0598-0.24698 0.24177-0.72305 0.32938-0.96166 0.0887-0.24245 0.24811-0.73754 0.37601-0.96188 0.10391-0.18223 0.38779-0.49576 0.51682-0.66102 0.11749-0.15032 0.34591-0.45615 0.46996-0.60103 0.13424-0.15643 0.42265-0.45095 0.56414-0.60081 0.19921-0.21099 0.58224-0.64903 0.79934-0.84168 0.13152-0.11681 0.41789-0.32258 0.56413-0.42038 0.17046-0.11409 0.53222-0.30991 0.70517-0.42084 0.15597-0.10028 0.46747-0.30357 0.61122-0.42083 0.25241-0.20555 0.6891-0.69408 0.93992-0.90144 0.19989-0.16548 0.66578-0.4145 0.8462-0.60081 0.163-0.16842 0.3604-0.60737 0.51728-0.78146 0.14262-0.15823 0.49803-0.40068 0.65808-0.54127 0.18155-0.15937 0.52203-0.50323 0.70517-0.66057 0.14759-0.12677 0.4686-0.34862 0.61099-0.48105 0.17884-0.16616 0.48988-0.54444 0.65831-0.72124 0.16095-0.16888 0.47652-0.51501 0.65831-0.66125 0.10843-0.0876 0.3579-0.21755 0.46996-0.3004 0.1116-0.0826 0.31625-0.27166 0.42287-0.36063 0.12813-0.10662 0.38801-0.31557 0.51727-0.42083 0.12949-0.10504 0.3973-0.30493 0.51728-0.42039 0.11545-0.11115 0.28727-0.3957 0.42265-0.48105 0.093-0.0589 0.3407-0.0475 0.42355-0.12021 0.11092-0.0969 0.13243-0.43464 0.23475-0.54081 0.0724-0.0752 0.29362-0.11681 0.37624-0.1802 0.17228-0.13243 0.40794-0.51003 0.56414-0.66102 0.0863-0.0838 0.29112-0.21529 0.37579-0.30086 0.12066-0.12202 0.28093-0.44506 0.42355-0.54082 0.091-0.0614 0.32847-0.0634 0.42242-0.1202 0.16028-0.0964 0.37488-0.41948 0.51727-0.54082 0.14126-0.12021 0.4763-0.29361 0.61145-0.42084 0.12496-0.11749 0.29905-0.42219 0.4231-0.54082 0.0937-0.0896 0.3244-0.21641 0.4231-0.30063 0.12768-0.10934 0.35451-0.35835 0.46996-0.4806 0.0838-0.0887 0.23363-0.28433 0.32893-0.36062 0.0951-0.0761 0.32576-0.16797 0.42333-0.24064 0.15665-0.11681 0.42446-0.40453 0.56413-0.54104 0.10663-0.10413 0.31422-0.31829 0.42265-0.42038 0.11477-0.10844 0.34477-0.32554 0.47041-0.42084 0.15553-0.11817 0.49871-0.30788 0.65786-0.42084 0.15846-0.11251 0.48354-0.33413 0.61145-0.4806 0.0915-0.10504 0.19129-0.37511 0.28206-0.48083 0.10844-0.12632 0.40454-0.29768 0.51682-0.42061 0.0851-0.0937 0.19537-0.3287 0.28184-0.42083 0.10142-0.10821 0.35429-0.26894 0.47042-0.36062 0.13084-0.10323 0.38756-0.31603 0.51727-0.42061 0.0937-0.0756 0.29384-0.21257 0.37579-0.30063 0.0992-0.10685 0.20917-0.39866 0.32938-0.48083 0.10957-0.0747 0.40227-0.053 0.51682-0.11998 0.10527-0.0618 0.24404-0.27324 0.32938-0.36062 0.13651-0.1399 0.40273-0.43057 0.56414-0.54105 0.11749-0.0804 0.40793-0.1485 0.51659-0.24064 0.11115-0.0942 0.21687-0.38823 0.32938-0.48037 0.089-0.0729 0.32304-0.12383 0.4231-0.18042z" fill="none" stroke="#fff" stroke-miterlimit="10" stroke-width=".532"/>
  <path d="m239.29 196.8c0.13469 0.0521 0.47041 0.55983 0.56481 0.78168 0.0942 0.22162 0.065 0.59809 0.14104 0.78146 0.0761 0.18336 0.25784 0.42672 0.37669 0.54104 0.11885 0.11409 0.24222 0.10685 0.28229 0.1802 0.0403 0.0736 4e-3 0.40589 0 0.54104s-0.0127 0.63386-0.0473 0.84167c-0.0344 0.20782-0.14081 0.64405-0.23498 0.84123-0.094 0.19694-0.3613 0.49033-0.47041 0.66125-0.10912 0.17114-0.25242 0.51727-0.3767 0.66125-0.12428 0.1442-0.4652 0.35337-0.61212 0.48082-0.14692 0.12768-0.42582 0.40363-0.56482 0.54105-0.13899 0.13763-0.35088 0.36243-0.47041 0.48082-0.11953 0.11817-0.43352 0.39594-0.56481 0.54105-0.13108 0.14488-0.29067 0.35473-0.3767 0.48105-0.0858 0.12609-0.20374 0.36537-0.28229 0.4806-0.0783 0.11523-0.17929 0.31059-0.28229 0.36062-0.10301 0.0503-0.2823-5e-3 -0.37624 0-0.094 5e-3 -0.4308 0.0134-0.56482 0.0602-0.13401 0.0471-0.40997 0.29633-0.56459 0.36062-0.15461 0.0645-0.60239 0.12677-0.80024 0.18042-0.19786 0.0539-0.42106 0.14443-0.56482 0.18042-0.14375 0.0358-0.49146 0.12361-0.65898 0.11999-0.16752-3e-3 -0.63454-0.0593-0.80025-0.1802-0.16571-0.12111-0.24584-0.34636-0.28229-0.48083-0.0367-0.13447-0.0263-0.36356 0-0.48105 0.026-0.11727 0.21257-0.45027 0.28229-0.60081 0.0697-0.15077 0.21483-0.55983 0.32983-0.72147 0.11478-0.16163 0.30516-0.25128 0.37625-0.36062 0.0709-0.10934 0.19128-0.59469 0.28229-0.78145 0.091-0.18677 0.31942-0.43329 0.37669-0.60126 0.0573-0.16775 0.019-0.36357 0.0473-0.48106s0.11206-0.37624 0.18812-0.48037c0.0761-0.10436 0.39617-0.30674 0.51728-0.42106 0.12134-0.11455 0.23317-0.28592 0.32983-0.36085 0.0964-0.0747 0.4351-0.20646 0.56459-0.29995 0.12971-0.0939 0.29248-0.2617 0.37669-0.36108 0.0844-0.0994 0.22683-0.37737 0.32938-0.48082 0.10255-0.10346 0.41065-0.24472 0.51773-0.36062 0.1073-0.11568 0.20034-0.36832 0.28252-0.48106 0.0822-0.11251 0.28569-0.3124 0.37601-0.42061 0.0906-0.10798 0.29407-0.42808 0.42378-0.54081 0.12949-0.11297 0.40205-0.20578 0.51773-0.30086 0.11568-0.0949 0.30448-0.37352 0.42355-0.4806 0.11908-0.1073 0.30471-0.24834 0.42356-0.30063 0.11884-0.0521 0.43011-0.17227 0.56481-0.12043" fill="#67c530"/>
  <path d="m239.29 196.8c0.13469 0.0521 0.47041 0.55983 0.56481 0.78168 0.0942 0.22162 0.065 0.59809 0.14104 0.78146 0.0761 0.18336 0.25784 0.42672 0.37669 0.54104 0.11885 0.11409 0.24222 0.10685 0.28229 0.1802 0.0403 0.0736 4e-3 0.40589 0 0.54104s-0.0127 0.63386-0.0473 0.84167c-0.0344 0.20782-0.14081 0.64405-0.23498 0.84123-0.094 0.19694-0.3613 0.49033-0.47041 0.66125-0.10912 0.17114-0.25242 0.51727-0.3767 0.66125-0.12428 0.1442-0.4652 0.35337-0.61212 0.48082-0.14692 0.12768-0.42582 0.40363-0.56482 0.54105-0.13899 0.13763-0.35088 0.36243-0.47041 0.48082-0.11953 0.11817-0.43352 0.39594-0.56481 0.54105-0.13108 0.14488-0.29067 0.35473-0.3767 0.48105-0.0858 0.12609-0.20374 0.36537-0.28229 0.4806-0.0783 0.11523-0.17929 0.31059-0.28229 0.36062-0.10301 0.0503-0.2823-5e-3 -0.37624 0-0.094 5e-3 -0.4308 0.0134-0.56482 0.0602-0.13401 0.0471-0.40997 0.29633-0.56459 0.36062-0.15461 0.0645-0.60239 0.12677-0.80024 0.18042-0.19786 0.0539-0.42106 0.14443-0.56482 0.18042-0.14375 0.0358-0.49146 0.12361-0.65898 0.11999-0.16752-3e-3 -0.63454-0.0593-0.80025-0.1802-0.16571-0.12111-0.24584-0.34636-0.28229-0.48083-0.0367-0.13447-0.0263-0.36356 0-0.48105 0.026-0.11727 0.21257-0.45027 0.28229-0.60081 0.0697-0.15077 0.21483-0.55983 0.32983-0.72147 0.11478-0.16163 0.30516-0.25128 0.37625-0.36062 0.0709-0.10934 0.19128-0.59469 0.28229-0.78145 0.091-0.18677 0.31942-0.43329 0.37669-0.60126 0.0573-0.16775 0.019-0.36357 0.0473-0.48106s0.11206-0.37624 0.18812-0.48037c0.0761-0.10436 0.39617-0.30674 0.51728-0.42106 0.12134-0.11455 0.23317-0.28592 0.32983-0.36085 0.0964-0.0747 0.4351-0.20646 0.56459-0.29995 0.12971-0.0939 0.29248-0.2617 0.37669-0.36108 0.0844-0.0994 0.22683-0.37737 0.32938-0.48082 0.10255-0.10346 0.41065-0.24472 0.51773-0.36062 0.1073-0.11568 0.20034-0.36832 0.28252-0.48106 0.0822-0.11251 0.28569-0.3124 0.37601-0.42061 0.0906-0.10798 0.29407-0.42808 0.42378-0.54081 0.12949-0.11297 0.40205-0.20578 0.51773-0.30086 0.11568-0.0949 0.30448-0.37352 0.42355-0.4806 0.11908-0.1073 0.30471-0.24834 0.42356-0.30063 0.11884-0.0521 0.43011-0.17227 0.56481-0.12043z" fill="none" stroke="#fff" stroke-miterlimit="10" stroke-width=".532"/>
  <g fill="#231f20">
   <path d="m225.04 192.52c-1.0432 0-1.7386 0.60307-1.7386 1.4615 0 1.1029 1.1011 1.7983 2.76 1.7983 1.2967 0 2.6296-0.44007 2.6296-1.7929 0-0.35858-0.10866-0.79866-0.58677-1.1464-0.43465-0.31512-0.92-0.33685-1.2315-0.35315v0.88559c0.69544 0.0163 0.99245 0.35315 0.99245 0.7063 0 0.8204-1.485 0.8204-1.7965 0.8204-1.0794 0-1.9487-0.26079-1.9487-0.88559 0-0.57048 0.73889-0.61938 0.92-0.63567zm0.98519-0.39073c0.47811 0 1.3474-0.0543 1.9559-0.48354 0.49984-0.35859 0.71717-0.87473 0.71717-1.3909 0-0.32598-0.0942-0.96165-0.74615-1.3963-0.47811-0.32055-1.2894-0.49441-2.0501-0.49441-0.51433 0-1.3329 0.0815-1.9704 0.49984-0.57953 0.38575-0.70992 0.96166-0.70992 1.38 0 1.4126 1.4126 1.8853 2.8035 1.8853zm-0.0362-0.88016c-0.59401 0-1.159-0.0652-1.5213-0.28795-0.26803-0.15756-0.44189-0.40748-0.44189-0.7226 0-0.40205 0.28252-0.73346 0.92725-0.89646 0.31874-0.0815 0.68094-0.0978 0.93449-0.0978 0.83307 0 1.2387 0.13583 1.4995 0.26622 0.32599 0.15756 0.48536 0.39118 0.48536 0.73346 0 0.39119-0.20284 0.59221-0.42016 0.71174-0.40567 0.23362-0.96346 0.29338-1.4633 0.29338zm2.5789-3.4765v-0.79323h-4.3465l4.3465-1.5213v-1.1572h-5.2375v0.78236h4.1219l-4.1219 1.4724v1.217zm-1.6734-4.0184c0.50708-5e-3 1.7965-0.0163 1.7965-1.5213 0-1.0866-0.76063-1.6734-1.7024-1.6734-1.0214 0-1.2677 0.66827-1.485 1.3474-0.18835 0.56504-0.27528 0.853-0.76063 0.853-0.4274 0-0.70992-0.25536-0.70992-0.64654 0-0.58134 0.61575-0.6248 0.79685-0.63567v-0.80953c-0.17386 0-0.59402 0-0.97071 0.22276-0.4926 0.29338-0.61575 0.77693-0.61575 1.1844 0 1.092 0.76063 1.5539 1.6227 1.5539 0.90551 0 1.275-0.51071 1.5865-1.4452 0.15937-0.49984 0.23905-0.74433 0.70267-0.74433 0.44189 0 0.73166 0.28795 0.73166 0.74433 0 0.7226-0.74614 0.71173-0.99244 0.71173zm1.6734-3.7912v-2.6894h-0.86929v1.8472h-1.4126v-1.6734h-0.8548v1.6734h-1.246v-1.7875h-0.8548v2.6296zm0-3.277v-2.5427h-0.89102v1.6842h-4.3392v0.85843zm0-2.973v-2.5427h-0.89102v1.6843h-4.3392v0.85842zm-2.5427-2.7697c0.47811 0 1.3474-0.0543 1.9559-0.48355 0.49984-0.35858 0.71717-0.87472 0.71717-1.3909 0-0.32599-0.0942-0.96166-0.74615-1.3963-0.47811-0.32056-1.2894-0.49441-2.0501-0.49441-0.51433 0-1.3329 0.0815-1.9704 0.49984-0.57953 0.38575-0.70992 0.96165-0.70992 1.38 0 1.4126 1.4126 1.8853 2.8035 1.8853zm-0.0362-0.88016c-0.59401 0-1.159-0.0652-1.5213-0.28795-0.26803-0.15756-0.44189-0.40749-0.44189-0.7226 0-0.40205 0.28252-0.73347 0.92725-0.89646 0.31874-0.0815 0.68094-0.0978 0.93449-0.0978 0.83307 0 1.2387 0.13583 1.4995 0.26622 0.32599 0.15756 0.48536 0.39119 0.48536 0.73347 0 0.39118-0.20284 0.5922-0.42016 0.71173-0.40567 0.23362-0.96346 0.29339-1.4633 0.29339zm2.5789-5.6531v-0.85842h-2.1153v-0.7389c0-0.14126 0-0.34772 0.297-0.42378 0.20284-0.0543 1.5285-0.17386 1.8183-0.21189v-0.92905c-0.0869 0.0435-0.14488 0.0761-0.37669 0.11952-0.14488 0.0272-0.39843 0.0598-1.0142 0.11953-0.68095 0.0706-1.1301 0.1141-1.2025 0.7063-0.0725-0.19016-0.30426-0.82039-1.2822-0.82039-0.34047 0-0.72441 0.0978-1.0069 0.34228-0.3622 0.31512-0.3622 0.7552-0.35496 1.1898v1.505zm-4.4116-0.83126v-0.56504c0-0.26622 0-0.42377 0.12315-0.55417 0.0652-0.0761 0.23181-0.20646 0.58677-0.20646 0.36945 0 0.55055 0.15756 0.6085 0.21733 0.14488 0.13582 0.14488 0.33142 0.14488 0.42921v0.67913zm4.4116-2.8555v-2.6894h-0.86929v1.8472h-1.4126v-1.6734h-0.8548v1.6734h-1.246v-1.7875h-0.8548v2.6296zm-3.6293-6.7184c-0.28252 5e-3 -0.69543 0.0217-1.0939 0.28252-0.47087 0.30969-0.65921 0.83126-0.65921 1.3365 0 1.1898 0.99244 2.0591 2.8469 2.0591 0.55055 0 1.3836-0.0815 1.9559-0.52157 0.40566-0.30969 0.69543-0.7715 0.69543-1.668 0-0.7878-0.1811-1.1898-0.28977-1.4343h-2.6151v1.6028h0.86929v-0.76063h1.1011c0.0362 0.0924 0.10142 0.23362 0.10142 0.6411 0 0.46725-0.15937 0.72803-0.44914 0.92363-0.41291 0.28795-1.0504 0.32598-1.4054 0.32598-0.8041 0-1.9921-0.19016-1.9921-1.1464 0-0.18472 0.058-0.49441 0.40567-0.6574 0.20284-0.0978 0.39118-0.10323 0.52882-0.10866zm-1.5937-0.66283h3.1294c0.48535 0 0.89102-0.0109 1.2894-0.20103 0.7896-0.36944 0.90551-1.0866 0.90551-1.4778 0-0.79323-0.49984-1.7223-2.0573-1.7223h-3.2671v0.8204h3.1294c0.52882 0 0.73165 0.0435 0.89102 0.12496 0.44914 0.21732 0.45638 0.6248 0.45638 0.76063 0 0.82039-0.71716 0.85299-1.2894 0.85299h-3.1874zm5.223-4.1597v-2.5427h-0.89102v1.6843h-4.3392v0.85842zm-5.2375-4.2226 5.2375 1.418v-0.80409l-1.1301-0.29339v-1.5539l1.1301-0.28252v-0.84756l-5.2375 1.3637zm3.2598 0.10323-2.2312-0.58134 2.2312-0.54331zm1.9776-2.894v-1.2224c0-0.39661-0.0217-0.55961-0.058-0.7063-0.1811-0.74433-1.0214-1.3909-2.6296-1.3909-0.74614 0-1.572 0.17386-2.0573 0.66827-0.46362 0.47268-0.47087 1.1355-0.47087 1.3528l-7e-3 1.2985zm-4.3754-0.85299c-0.029-0.48354 7e-3 -0.7063 0.0724-0.88016 0.19559-0.52701 0.87653-0.71716 1.6154-0.71716 0.25355 0 1.0359 0.0217 1.4778 0.35315 0.32598 0.24448 0.3622 0.55417 0.3622 0.91275 0 0.0978-7e-3 0.23906-0.0145 0.33142zm1.8328-2.8994c0.47811 0 1.3474-0.0543 1.9559-0.48354 0.49984-0.35859 0.71717-0.87473 0.71717-1.3909 0-0.32599-0.0942-0.96166-0.74615-1.3963-0.47811-0.32055-1.2894-0.49441-2.0501-0.49441-0.51433 0-1.3329 0.0815-1.9704 0.49984-0.57953 0.38575-0.70992 0.96166-0.70992 1.38 0 1.4126 1.4126 1.8853 2.8035 1.8853zm-0.0362-0.88016c-0.59401 0-1.159-0.0652-1.5213-0.28795-0.26803-0.15756-0.44189-0.40748-0.44189-0.7226 0-0.40205 0.28252-0.73347 0.92725-0.89646 0.31874-0.0815 0.68094-0.0978 0.93449-0.0978 0.83307 0 1.2387 0.13582 1.4995 0.26622 0.32599 0.15756 0.48536 0.39118 0.48536 0.73346 0 0.39118-0.20284 0.59221-0.42016 0.71173-0.40567 0.23363-0.96346 0.29339-1.4633 0.29339zm2.5789-3.4452v-0.85842h-2.1153v-0.7389c0-0.14126 0-0.34772 0.297-0.42378 0.20284-0.0543 1.5285-0.17386 1.8183-0.21189v-0.92906c-0.0869 0.0435-0.14488 0.0761-0.37669 0.11953-0.14488 0.0272-0.39843 0.0598-1.0142 0.11953-0.68095 0.0706-1.1301 0.11409-1.2025 0.7063-0.0725-0.19016-0.30426-0.8204-1.2822-0.8204-0.34047 0-0.72441 0.0978-1.0069 0.34229-0.3622 0.31512-0.3622 0.7552-0.35496 1.1898v1.505zm-4.4116-0.83126v-0.56504c0-0.26622 0-0.42378 0.12315-0.55417 0.0652-0.0761 0.23181-0.20646 0.58677-0.20646 0.36945 0 0.55055 0.15756 0.6085 0.21733 0.14488 0.13582 0.14488 0.33141 0.14488 0.42921v0.67913zm4.4116-5.0281v-1.2224c0-0.39662-0.0217-0.55961-0.058-0.7063-0.1811-0.74433-1.0214-1.3909-2.6296-1.3909-0.74614 0-1.572 0.17386-2.0573 0.66827-0.46362 0.47268-0.47087 1.1355-0.47087 1.3528l-7e-3 1.2985zm-4.3754-0.85299c-0.029-0.48355 7e-3 -0.7063 0.0724-0.88016 0.19559-0.52701 0.87653-0.71717 1.6154-0.71717 0.25355 0 1.0359 0.0217 1.4778 0.35315 0.32598 0.24449 0.3622 0.55418 0.3622 0.91276 0 0.0978-7e-3 0.23905-0.0145 0.33142zm-0.86205-3.9564 5.2375 1.418v-0.8041l-1.1301-0.29338v-1.5539l1.1301-0.28252v-0.84756l-5.2375 1.3637zm3.2598 0.10323-2.2312-0.58134 2.2312-0.54331z"/>
   <path d="m281.86 122.45-5.2375-1.4749v0.83624l1.1301 0.30516v1.6161l-1.1301 0.29384v0.88152l5.2375-1.4183zm-3.2598-0.10731 2.2312 0.60443-2.2312 0.56527zm1.6517 6.5136c0.28252-6e-3 0.69543-0.0226 1.0939-0.29384 0.47086-0.32191 0.65921-0.86431 0.65921-1.39 0-1.2374-0.99244-2.1415-2.8469-2.1415-0.55055 0-1.3836 0.0849-1.9559 0.54263-0.40567 0.32191-0.69543 0.80228-0.69543 1.7345 0 0.81926 0.1811 1.2374 0.28976 1.4918h2.6151v-1.6668h-0.86929v0.79096h-1.1011c-0.0362-0.096-0.10142-0.2429-0.10142-0.66668 0-0.48603 0.15937-0.75723 0.44913-0.96075 0.41292-0.29927 1.0504-0.33889 1.4054-0.33889 0.80409 0 1.9921 0.19763 1.9921 1.1921 0 0.1922-0.058 0.51433-0.40566 0.68389-0.20284 0.10164-0.39119 0.1073-0.52882 0.11296zm-3.6293 0.68208v0.89283h2.1153v0.76833c0 0.14692 0 0.36175-0.29701 0.44076-0.20283 0.0566-1.5285 0.18087-1.8183 0.22049v0.96618c0.0869-0.0453 0.14488-0.0792 0.3767-0.12428 0.14488-0.0283 0.39842-0.0623 1.0142-0.12451 0.68095-0.0734 1.1301-0.11862 1.2025-0.73437 0.0724 0.19763 0.30425 0.85322 1.2822 0.85322 0.34047 0 0.72441-0.10187 1.0069-0.35609 0.3622-0.3278 0.3622-0.78531 0.35496-1.2374v-1.5652zm4.4117 0.86453v0.58768c0 0.27686 0 0.44076-0.12315 0.57636-0.0652 0.079-0.23181 0.21461-0.58677 0.21461-0.36945 0-0.55055-0.1639-0.60851-0.22593-0.14488-0.14126-0.14488-0.34477-0.14488-0.44642v-0.7063zm-4.4117 2.9284v0.87586h5.252v-0.87586zm3.5279 4.8277c1.0432 0 1.7386-0.62707 1.7386-1.5199 0-1.1471-1.1011-1.8703-2.76-1.8703-1.2967 0-2.6296 0.45774-2.6296 1.8647 0 0.37284 0.10866 0.83058 0.58678 1.1923 0.43464 0.32757 0.92 0.35021 1.2315 0.36719v-0.92091c-0.69543-0.017-0.99244-0.36741-0.99244-0.7346 0-0.85322 1.485-0.85322 1.7965-0.85322 1.0794 0 1.9487 0.27121 1.9487 0.92091 0 0.59334-0.7389 0.64427-0.92 0.66125zm1.6951 0.55553h-3.1294c-0.48536 0-0.89103 0.0113-1.2894 0.20895-0.78961 0.38416-0.90551 1.1301-0.90551 1.5369 0 0.82492 0.49984 1.7913 2.0573 1.7913h3.2671v-0.85322h-3.1294c-0.52882 0-0.73166-0.0453-0.89103-0.12994-0.44913-0.22615-0.45637-0.64993-0.45637-0.79119 0-0.85322 0.71716-0.88718 1.2894-0.88718h3.1874zm-5.223 4.3259v2.6443h0.89103v-1.7515h4.3392v-0.89283zm0 3.5258v0.88151h4.3682v1.2148h0.8693v-3.311h-0.8693v1.2148zm5.223 2.5329h-3.1294c-0.48536 0-0.89103 0.0113-1.2894 0.20918-0.78961 0.38416-0.90551 1.1301-0.90551 1.5369 0 0.82492 0.49984 1.7911 2.0573 1.7911h3.2671v-0.85322h-3.1294c-0.52882 0-0.73166-0.0451-0.89103-0.12994-0.44913-0.22593-0.45637-0.6497-0.45637-0.79096 0-0.85322 0.71716-0.88718 1.2894-0.88718h3.1874zm-5.223 4.3012v0.89283h2.1153v0.76833c0 0.14692 0 0.36175-0.29701 0.44076-0.20283 0.0566-1.5285 0.18087-1.8183 0.22026v0.96641c0.0869-0.0453 0.14488-0.0792 0.3767-0.12428 0.14488-0.0283 0.39842-0.0623 1.0142-0.12451 0.68095-0.0734 1.1301-0.11862 1.2025-0.73437 0.0724 0.19763 0.30425 0.85322 1.2822 0.85322 0.34047 0 0.72441-0.10187 1.0069-0.35609 0.3622-0.3278 0.3622-0.78531 0.35496-1.2374v-1.5652zm4.4117 0.86453v0.58768c0 0.27686 0 0.44076-0.12315 0.57636-0.0652 0.079-0.23181 0.21461-0.58677 0.21461-0.36945 0-0.55055-0.1639-0.60851-0.22593-0.14488-0.14126-0.14488-0.34477-0.14488-0.44642v-0.7063zm0.82583 4.1907-5.2375-1.4746v0.83624l1.1301 0.30516v1.6159l-1.1301 0.29384v0.88152l5.2375-1.4183zm-3.2598-0.1073 2.2312 0.60466-2.2312 0.56504zm-1.9776 5.9601v2.7969h0.86929v-1.921h1.4126v1.7402h0.85481v-1.7402h1.246v1.8588h0.85481v-2.7346zm3.5279 6.5414c1.0432 0 1.7386-0.62729 1.7386-1.5199 0-1.1471-1.1011-1.8703-2.76-1.8703-1.2967 0-2.6296 0.45773-2.6296 1.8647 0 0.37285 0.10866 0.83058 0.58678 1.1921 0.43464 0.3278 0.92 0.35043 1.2315 0.36741v-0.92113c-0.69543-0.017-0.99244-0.36719-0.99244-0.7346 0-0.85322 1.485-0.85322 1.7965-0.85322 1.0794 0 1.9487 0.2712 1.9487 0.92114 0 0.59333-0.7389 0.64404-0.92 0.66102zm-0.9852 0.40613c-0.47811 0-1.3474 0.0566-1.9559 0.50301-0.49984 0.37284-0.71716 0.90959-0.71716 1.4463 0 0.33911 0.0942 1.0001 0.74614 1.4522 0.47811 0.33346 1.2894 0.51411 2.0501 0.51411 0.51433 0 1.3329-0.0847 1.9704-0.51977 0.57952-0.40114 0.70992-1.0001 0.70992-1.4352 0-1.469-1.4126-1.9607-2.8035-1.9607zm0.0362 0.91547c0.59402 0 1.1591 0.0677 1.5213 0.2995 0.26803 0.16367 0.44189 0.42378 0.44189 0.75135 0 0.41812-0.28252 0.76289-0.92724 0.93245-0.31874 0.0847-0.68095 0.10164-0.93449 0.10164-0.83307 0-1.2387-0.14126-1.4995-0.27686-0.32598-0.1639-0.48535-0.4068-0.48535-0.76289 0-0.4068 0.20283-0.61575 0.42015-0.74003 0.40567-0.24313 0.96347-0.30516 1.4633-0.30516zm-2.5789 3.6071v2.6443h0.89103v-1.7515h4.3392v-0.89283zm2.5427 2.8807c-0.47811 0-1.3474 0.0564-1.9559 0.50278-0.49984 0.37308-0.71716 0.90982-0.71716 1.4466 0 0.33912 0.0942 1.0001 0.74614 1.4522 0.47811 0.33322 1.2894 0.5141 2.0501 0.5141 0.51433 0 1.3329-0.0847 1.9704-0.51976 0.57952-0.40115 0.70992-1.0001 0.70992-1.4352 0-1.4692-1.4126-1.9607-2.8035-1.9607zm0.0362 0.91525c0.59402 0 1.1591 0.0679 1.5213 0.29949 0.26803 0.1639 0.44189 0.42378 0.44189 0.75158 0 0.41812-0.28252 0.76267-0.92724 0.93222-0.31874 0.0849-0.68095 0.10187-0.93449 0.10187-0.83307 0-1.2387-0.14126-1.4995-0.27708-0.32598-0.16367-0.48535-0.4068-0.48535-0.76267 0-0.4068 0.20283-0.61598 0.42015-0.74026 0.40567-0.2429 0.96347-0.30515 1.4633-0.30515zm4.0712 1.893v-0.75724l-1.0504-0.46882v0.45185zm-1.4126 1.2362-2.5282 1.3392-2.7093-1.4352v0.93788l1.9704 0.9775-1.9704 0.90981v1.0735l2.7165-1.4239 2.521 1.3449v-0.93811l-1.782-0.88129 1.782-0.82492zm-5.2375 4.2281v0.87586h5.252v-0.87586zm3.5279 4.8277c1.0432 0 1.7386-0.62707 1.7386-1.5199 0-1.1471-1.1011-1.8703-2.76-1.8703-1.2967 0-2.6296 0.45774-2.6296 1.8647 0 0.37284 0.10866 0.83058 0.58678 1.1921 0.43464 0.32779 0.92 0.35043 1.2315 0.36741v-0.92113c-0.69543-0.0168-0.99244-0.36719-0.99244-0.73437 0-0.85322 1.485-0.85322 1.7965-0.85322 1.0794 0 1.9487 0.2712 1.9487 0.9209 0 0.59334-0.7389 0.64427-0.92 0.66103zm1.7096 1.6306-5.2375-1.4746v0.83624l1.1301 0.30515v1.6159l-1.1301 0.29384v0.88152l5.2375-1.4183zm-3.2598-0.1073 2.2312 0.60466-2.2312 0.56504z"/>
   <path d="m232.43 203.76c0-2.0537-1.5831-3.4228-3.8364-3.4228-2.8952 0-4.7207 2.1678-4.7207 5.4338 0 2.5529 1.1552 5.177 4.7064 5.177 0.94128 0 2.0965-0.21393 3.0092-1.1552 0.82718-0.85571 0.88423-1.8112 0.92702-2.4245h-2.3247c-0.0428 1.3691-0.92702 1.9539-1.854 1.9539-2.1535 0-2.1535-2.9237-2.1535-3.5369 0-2.125 0.68457-3.8364 2.3247-3.8364 1.4975 0 1.6258 1.4547 1.6686 1.8112zm1.2863 6.9455h2.2534v-4.1644h1.9396c0.37081 0 0.91276 0 1.1124 0.58474 0.14262 0.39933 0.45638 3.0092 0.55621 3.5797h2.4388c-0.11409-0.17114-0.19966-0.28523-0.31376-0.74161-0.0713-0.28524-0.15688-0.7844-0.31376-1.9967-0.1854-1.3406-0.29949-2.2248-1.854-2.3675 0.49916-0.14262 2.1535-0.59899 2.1535-2.5243 0-0.6703-0.25671-1.4262-0.89849-1.9824-0.82719-0.71309-1.9824-0.71309-3.1233-0.69883h-3.9505zm2.182-8.6854h1.4832c0.69883 0 1.1124 0 1.4547 0.24245 0.19966 0.12835 0.54195 0.45638 0.54195 1.1552 0 0.72736-0.4136 1.0839-0.57048 1.198-0.35654 0.28523-0.86997 0.28523-1.1267 0.28523h-1.7827zm10.465-1.6258-3.7223 10.311h2.1108l0.77014-2.2248h4.0789l0.74161 2.2248h2.2248l-3.5797-10.311zm-0.27098 6.4178 1.526-4.3926 1.4262 4.3926zm7.5244 3.8935h7.0596v-1.7114h-4.849v-2.7811h4.3926v-1.6829h-4.3926v-2.453h4.6921v-1.6829h-6.9027zm17.498-7.1452c-0.0143-0.55621-0.057-1.3691-0.74161-2.1535-0.81293-0.92702-2.1821-1.2978-3.5084-1.2978-3.1233 0-5.4052 1.9539-5.4052 5.6049 0 1.0839 0.21393 2.724 1.3691 3.8507 0.81292 0.79866 2.0252 1.3691 4.3784 1.3691 2.068 0 3.1233-0.35654 3.7651-0.57047v-5.1485h-4.2072v1.7114h1.9966v2.1678c-0.24245 0.0713-0.61326 0.19966-1.6829 0.19966-1.2265 0-1.9111-0.31376-2.4245-0.88423-0.75588-0.81292-0.85571-2.068-0.85571-2.7668 0-1.5831 0.49916-3.922 3.0092-3.922 0.48491 0 1.2978 0.11409 1.7257 0.79866 0.25672 0.39933 0.27098 0.77014 0.28524 1.0411zm4.4954-3.1661-3.7223 10.311h2.1108l0.77014-2.2248h4.0789l0.74162 2.2248h2.2248l-3.5797-10.311zm-0.27098 6.4178 1.526-4.3926 1.4262 4.3926z"/>
  </g>
 </g>
</svg>
