<?xml version="1.0" encoding="utf-8"?>
<!-- Generator: Adobe Illustrator 23.1.1, SVG Export Plug-In . SVG Version: 6.00 Build 0)  -->
<svg version="1.1" id="a" xmlns="http://www.w3.org/2000/svg" xmlns:xlink="http://www.w3.org/1999/xlink" x="0px" y="0px"
	 viewBox="0 0 90 90" style="enable-background:new 0 0 90 90;" xml:space="preserve">
<style type="text/css">
	.st0{fill:none;stroke:#000000;stroke-width:4.1;stroke-miterlimit:10;}
</style>
<g>
	<path class="st0" d="M45,87.7c23.6,0,42.7-19.1,42.7-42.7S68.6,2.3,45,2.3S2.3,21.4,2.3,45S21.4,87.7,45,87.7L45,87.7z"/>
	<path d="M69.8,14.6c0.4-0.3,1,0.1,1,0.6c0,1.4-0.4,2.7-0.9,4c-0.4,0.8-0.7,1.8-1.5,2.2c-0.5,0.3-1.2,0-1.6,0.4
		c-0.6,0.6-1.2,1.4-2,1.7c-0.2,0.1-0.4,0-0.7,0c-0.1-1.1,0.1-2.2,0.3-3.2c0.3-1,0.5-2.2,1.2-3c0.4-0.5,1.1-0.6,1.8-0.8
		C68.4,16.2,69,15.2,69.8,14.6"/>
	<path d="M63.2,15.2c0.4-0.2,1.1,0.1,1,0.6c-0.1,1.3-1,2.5-0.6,3.8c0.3,0.8,0.2,1.6-0.2,2.3c-0.8,1.1-1.8,1.9-2.9,2.7
		c-0.7,0.5-1.3,0.9-2.1,1.2c-0.3,0.2-0.6-0.1-0.6-0.4c-0.1-1.1,0.5-2.1,0.8-3.2c0-0.5-0.5-1-0.4-1.5c0.1-1.2,1-2.1,1.7-2.9
		C60.9,16.8,61.9,15.7,63.2,15.2"/>
	<path d="M56.1,21.4c0.3-0.2,0.8-0.2,1,0.2c0.2,0.4,0.1,0.9,0,1.3c-0.2,1-0.4,2,0,3c0.4,0.7,0.4,1.6,0,2.3c-0.5,1-1.2,1.8-2,2.6
		c-0.7,0.7-1.4,1.4-2.3,2c-0.3,0.2-0.7,0-0.7-0.3c-0.2-1.1,0.2-2.2,0.3-3.2c-0.1-0.6-0.6-0.9-0.6-1.5c-0.1-1.2,0.6-2.2,1.2-3.1
		C54,23.4,54.9,22.2,56.1,21.4"/>
	<path d="M66.3,23.8c0.5-0.3,1.3-0.1,1.2,0.6c-0.3,1.2-1.1,2.2-1.9,3.2c-0.9,1-1.8,2.1-3.1,2.5c-0.6,0.2-1.2-0.2-1.8-0.3
		c-1,0.3-1.9,1-3.1,1c-0.3,0-0.7-0.1-0.6-0.5c0.2-0.8,0.6-1.5,1-2.1c0.7-1.1,1.5-2.2,2.5-3.1c0.6-0.5,1.4-0.7,2.2-0.5
		C64,24.9,65.2,24.2,66.3,23.8"/>
	<path d="M16.2,28.4c2.4-1.4,5.3-2,8.1-1.5c4.1,0.6,7.8,2.7,10.9,5.3c1.8,1.4,3.3,3.1,4.9,4.8c0.9,1,1.9,2,2.8,2.9
		c0.5-1,1.2-2,1.9-2.8c0.3-0.3,0.7-0.7,1.2-0.5c0.5,0.2,0.4,0.8,0.4,1.2c-0.1,1.1-0.2,2.3,0.5,3.3c0.6,0.9,0.4,2-0.1,2.9
		c0.2,0.3,0.5,0.5,0.7,0.8c0.5-1.5,1.3-2.9,2.2-4.1c0.6-0.8,1.3-1.7,2.4-1.8c0.7,0,1.4,0.2,2,0c0.9-0.2,1.6-0.9,2.5-1.1
		c0.4-0.1,0.9,0.3,0.8,0.7c-0.1,0.7-0.5,1.4-0.8,2c-0.7,1.1-1.5,2.2-2.4,3.1c-0.6,0.5-1.3,1-2.1,0.8c-0.4-0.1-0.8-0.3-1.2-0.1
		c-0.9,0.4-1.7,1-2.6,1.2c4.2,4.3,8.4,8.7,12.6,13c1.8,1.8,4.3,3.2,7,3c1.9-0.3,3.5-1.5,5.1-2.6c0.8-0.6,1.6-1.3,2.4-2
		c0.5-0.4,1.3-0.8,1.9-0.3c0.5,0.5,0.2,1.3-0.3,1.7c-2.4,2.2-4.8,4.4-7.5,6.2c-1.6,1-3.4,2.1-5.4,2.3c-2.1,0-4.1-1-5.9-2.1
		c-1.5-1-2.8-2.1-4-3.4c-3.8-4.1-7.6-8.1-11.3-12.2c-2.5,2.8-4.8,5.7-7,8.7c1.4-0.6,2.7-1.4,4.2-1.8c0.6-0.2,1,0.4,1,0.9
		c0.2,1.3-0.2,2.5-0.5,3.7c-0.4,1.4-0.9,2.7-1.3,4c-0.4,2.3-0.4,4.8-1,7.1c-0.4,1.4-1.1,2.8-1.7,4.2c-0.4,0.7-0.8,1.5-1.4,2
		c-0.1,0.1-0.3,0.2-0.5,0.2c-0.4-0.4-0.5-1-0.6-1.5c-0.3-2.5-0.2-5-0.1-7.4c0.1-1.9,0.9-3.8,0.7-5.8c0-0.3-0.3-0.9-0.7-0.6
		c-0.8,0.3-1.4,0.9-2,1.4c-0.6,0.6-1.3,1.1-1.8,1.8c-2.3,3.8-4.5,7.7-5.7,12c-0.3,0.7-1.3,0.6-1.8,0.3c-0.6-0.2-0.9-0.9-0.8-1.5
		c0.1-1.3,0.7-2.5,1.3-3.7c1.4-2.8,3.2-5.4,5-8c4.2-6,8.7-11.7,13.3-17.4c-3-3.3-6.1-6.6-9.2-9.8c-1.7-1.7-3.7-3.1-5.8-4.2
		c-2.4-1.2-5.2-2-8-1.6c-1.8,0.3-3.4,1.3-4.8,2.5c-0.8,0.7-1.4,1.6-2.3,2.1c-0.3,0.2-0.9,0.3-1-0.2c-0.1-0.9,0.2-1.7,0.6-2.4
		C12.2,31.7,14,29.8,16.2,28.4"/>
	<path d="M50.2,28.8c0.4-0.2,1,0,1,0.5c0.1,1-0.1,2,0.1,3c0.1,0.7,0.8,1.2,0.8,2c0.1,0.9-0.3,1.7-0.7,2.5c-0.7,1.3-1.6,2.4-2.6,3.5
		c-0.3,0.2-0.7,0.6-1,0.2c-0.5-0.9-0.2-2.1-0.2-3.1c0.1-0.7-0.8-1-0.8-1.7c-0.2-1.3,0.5-2.6,1.1-3.7C48.4,30.7,49.1,29.5,50.2,28.8"
		/>
	<path d="M61.5,31c0.3-0.1,0.8-0.3,1.1,0.1c0.4,0.4,0,1-0.2,1.5c-0.8,1.3-1.8,2.5-2.9,3.5c-0.6,0.6-1.4,1.2-2.3,1.1
		c-0.5,0-1-0.5-1.5-0.3c-1,0.4-2,1-3,0.9c-0.6-0.1-0.3-0.8-0.1-1.1c0.8-1.5,1.8-2.9,3-4.2c0.5-0.6,1.3-1,2.1-1
		c0.5,0.1,1,0.2,1.5,0.2C60,31.6,60.7,31.2,61.5,31"/>
</g>
</svg>
