<?xml version="1.0" encoding="UTF-8"?>
<svg width="98" height="90" fill-rule="evenodd" version="1.1" viewBox="0 0 73.5 67.5" xmlns="http://www.w3.org/2000/svg" xmlns:cc="http://creativecommons.org/ns#" xmlns:dc="http://purl.org/dc/elements/1.1/" xmlns:rdf="http://www.w3.org/1999/02/22-rdf-syntax-ns#">
 <metadata>
  <rdf:RDF>
   <cc:Work rdf:about="">
    <dc:format>image/svg+xml</dc:format>
    <dc:type rdf:resource="http://purl.org/dc/dcmitype/StillImage"/>
    <dc:title/>
   </cc:Work>
  </rdf:RDF>
 </metadata>
 <defs>
  <clipPath id="clipPath835">
   <rect x="191.14" y="184.25" width="416.91" height="383.82" opacity=".48" stroke-width=".75"/>
  </clipPath>
 </defs>
 <g transform="matrix(.17586 0 0 .17586 -33.523 -32.402)" clip-path="url(#clipPath835)">
  <path d="m0-3.0518e-4h1190.6v841.89h-1190.6z" fill="none"/>
  <path d="m620.54 585.2c0 15.656-12.691 28.346-28.346 28.346h-396.85c-15.656 0-28.347-12.69-28.347-28.346v-396.85c0-15.656 12.691-28.347 28.347-28.347h396.85c15.655 0 28.346 12.691 28.346 28.347z" fill="#fff"/>
  <path d="m0-3.0518e-4h1190.6v841.89h-1190.6z" fill="none"/>
  <g fill="#e21c2a">
   <path d="m320.63 458.45c-21.144-20.107-34.329-48.506-34.329-79.988 0-60.955 49.415-110.37 110.37-110.37 10.635 0 20.917 1.506 30.673 4.314 4.899 1.41 11.963 0.322 15.904-6.49s25.616-44.996 29.225-51.472c4.984-8.944-0.218-18.165-11.567-18.165h-73.942c-100.59 0-182.13 81.595-182.13 182.18 0 41.098 13.616 79.01 36.578 109.48-7.538 13.181-28.329 50.1-34.856 61.493-3.466 6.052-1.708 11.266 5.852 11.266h55.437c6.646 0 9.57-3.022 12.656-8.364 3.441-6.291 33.247-58.81 42.272-74.384 2.911-5.019 6.165-11.604-2.146-19.505"/>
   <path d="m472.74 298.53c21.144 20.106 34.328 48.505 34.328 79.987 0 60.956-49.415 110.37-110.37 110.37-10.634 0-20.917-1.508-30.673-4.315-4.899-1.41-11.962-0.322-15.903 6.491-3.941 6.812-25.617 44.995-29.225 51.47-4.984 8.945 0.218 18.166 11.565 18.166h73.943c100.59 0 182.13-81.595 182.13-182.18 0-41.095-13.614-79.009-36.577-109.48 7.537-13.181 28.328-50.1 34.856-61.493 3.466-6.053 1.708-11.266-5.853-11.266h-55.436c-6.646 0-9.57 3.023-12.656 8.364-3.442 6.289-33.248 58.81-42.273 74.384-2.91 5.021-6.165 11.603 2.147 19.506"/>
   <path d="m407.15 315.92c0 5.789-4.693 10.482-10.482 10.482-5.79 0-10.483-4.693-10.483-10.482s4.693-10.483 10.483-10.483c5.789 0 10.482 4.694 10.482 10.483"/>
   <path d="m334.99 435.7h123.41v-14.991h-123.41z"/>
   <path d="m316.09 392.05c4.288 6.269 7.78 9.767 11.821 14.077l7.189 7.76h123.46l7.053-7.76c4.042-4.31 8.249-8.752 11.822-14.077 16.878-25.162-3.12-51.687-26.223-49.931-0.426 0.033-0.845 0.038-1.265 0.064-0.718-1.17-1.522-2.358-2.427-3.565-7.39-9.854-19.76-14.232-32.281-11.43-7.531 1.688-13.928 5.67-18.477 11.181-4.548-5.511-10.946-9.493-18.476-11.181-12.521-2.802-24.891 1.576-32.281 11.43-0.905 1.207-1.709 2.395-2.427 3.565-0.42-0.026-1.265-0.064-1.265-0.064-21.053-2.242-44.123 23.761-26.223 49.931m72.835-36.386c-14.118-1.119-23.119-5.245-30.559-8.674-0.026-0.012-0.051-0.023-0.078-0.035 3.939-4.81 10.147-6.802 16.763-5.32 5.582 1.25 12.129 5.459 13.825 13.511 0.018 0.141 0.034 0.321 0.049 0.518m46.311-8.709c-0.027 0.012-0.051 0.023-0.078 0.035-7.439 3.429-16.44 7.555-30.558 8.674 0.015-0.197 0.031-0.377 0.048-0.518 1.697-8.052 8.243-12.261 13.826-13.511 6.616-1.482 12.823 0.51 16.762 5.32m-5.955 52.131c6.288-6.649 13.73-15.698 15.612-18.068 1.747-2.2 10.492-11.615 9.979-23.864 10.637 1.382 14.042 10.175 14.042 14.722 0 3.216-1.065 7.934-3.731 11.865-2.944 4.343-6.552 8.19-10.37 12.265 0 0-1.432 1.557-2.832 3.08zm-25.05-28.551c16.495-1.09 27.612-5.75 35.453-9.333-0.842 3.292-4.279 7.961-5.647 9.642-5.121 6.293-18.993 21.785-25.219 28.242h-4.587s-0.046-22.502 0-28.551m-19.525 28.551c-6.225-6.457-21.513-23.567-24.206-26.962-2.694-3.395-5.817-7.63-6.659-10.922 7.84 3.583 18.958 8.243 35.452 9.333 0.047 6.049 0 28.551 0 28.551zm-60.095-27.21c0-6.562 5.312-13.588 14.041-14.722-0.452 10.808 5.14 17.656 9.263 22.92 3.913 4.998 10.041 12.363 16.328 19.012h-22.699c-1.4-1.523-2.832-3.08-2.832-3.08-3.819-4.075-7.426-7.922-10.37-12.265-2.666-3.931-3.731-8.574-3.731-11.865"/>
  </g>
 </g>
</svg>
