<svg xmlns="http://www.w3.org/2000/svg" version="1" width="744.094" height="371.339"><path fill="#f47920" d="M17.912 17.705h708.466v230.008L587.69 277.95l-212.489 10.935-357.486 56.537.196-327.718z"/><path d="M496.166 96.29c-5.214 1.035-20.593 5.986-21.085 15.21-.014.439-.15 8.155-.173 12.79 0 1.04-.235 2.637-.692 3.283-.456.655-1.534.712-3.63 1.21-7.385 1.752-8.194 7.485-8.64 18.148 1.606-.09 6.407-.41 8.468-.692 2.847-.442 4.665 1.566 4.667 4.321v74.837c0 .657.96 1.418 1.9 1.21 5.215-1.037 20.247-3.224 20.74-12.444.105-2.938.203-48.71.174-65.331-.004-2.916-.345-3.648 1.037-5.012.977-.962.834-.908 3.283-1.21 13.677-1.491 12.906-17.744 12.963-19.185l-15.037 1.556c-1.273.149-2.427-.208-2.42-1.901V97.5c0-.662-.614-1.415-1.555-1.21zm-323.025 2.42c-2.062-.006-36.866.78-42.863 11.58-5.375 9.687.007 16.227 6.913 63.603-18.8 2.167-58.562 13.907-60.146 38.714-.364 5.723 1.844 12.53 6.05 19.358 10.26 16.653 31.991 33.682 54.96 36.986 4.788.688 19.462 1.058 25.061-12.444 1.31-2.112 2.737-11.502 3.976-24.542 3.797-39.984 6.865-115.296 7.431-128.07.069-1.262-.4-5.345-1.382-5.185zm457.835 21.259c-13.465 1.158-19.664 7.274-21.777 7.086-.496-.041-4.8-2.756-6.913-2.938-1.246-.11-6.339-1.173-11.061.345 0 0 1.442 5.06 2.765 15.383 3.235 25.295 3.191 60.145 3.11 69.651.068.774.012 1.254.52 1.729.36.335.839.6 1.21.518 20.64-3.786 18.923-5.711 19.184-28.863 0 0-.71-21.706 0-29.727.907-10.343 22.543-3.668 22.814-26.098.017-1.25-.277-4.543-.864-6.222-1.14-.149-8.988-.864-8.988-.864zm-65.33 8.123c-16.339-.4-50.065 3.523-55.307 28.345-3.998 18.909 12.969 59.348 46.146 60.146 11.484.274 24.277-10.812 30.246-17.802.09-.11.141-.374.173-.519.082-.37.006-.777-.692-.691-10.517 2.587-30.497-.16-38.369-4.84 4.633-4.12 35.252-32.74 36.814-51.85.997-12.31-17.775-12.762-19.012-12.79zm-123.75 15.555c-16.343-.398-50.237 3.517-55.479 28.345-3.884 18.387 12.146 57.12 43.554 59.973.88.078 1.864.153 2.765.173.9.023 1.684-.056 2.593-.173 10.717-1.296 21.98-11.188 27.48-17.63.089-.105.31-.367.346-.518.082-.37-.16-.783-.864-.691-10.518 2.583-30.503-.33-38.37-5.012 4.63-4.12 35.431-32.569 36.987-51.677 1.004-12.311-17.775-12.759-19.011-12.79zm106.12 4.666c5.914-.141 10.654 2.28 10.543 8.642-.13 7.218-13.749 25.9-19.357 29.555-5.832-4.5-14.414-16.74-14.345-23.333.076-7.465 13.303-14.628 23.16-14.864zm-197.548 5.358c-18.25 1.364-23.27 6.34-25.752 9.16-7.633-4.717-18.22-4.779-24.37-4.148-11.12.835-21.887 5.308-24.37 8.124-8.305-6.242-16.782-1.607-19.53-1.729 0 0 2.083 4.974 2.247 15.21v69.997s21.8-.926 22.641-13.135v-51.677c9.11-2.515 27.437-15.743 27.135 20.221V245.1s22.667-.924 23.506-13.135v-51.332c10.84-4.438 26.474-15.376 26.443 20.222v39.233s22.286-1.303 22.296-13.135c0 0 .15-48.692 0-50.468-1.543-14.946-16.854-23.813-30.246-22.814zm73.627 10.025c5.913-.142 10.654 2.277 10.543 8.641-.128 7.214-13.751 26.073-19.358 29.728-5.832-4.494-14.414-16.74-14.345-23.333.076-7.466 13.304-14.8 23.16-15.036zm-191.5 3.975c-16.343-.398-50.064 3.517-55.306 28.344-1.954 9.227.959 23.584 8.469 35.95 7.88 12.98 20.69 23.79 37.677 24.196 11.49.279 24.1-10.811 30.073-17.801.086-.104.313-.368.346-.519.08-.368.008-.78-.691-.691-10.516 2.58-30.5-.33-38.37-5.012.077-.069.081-.1.173-.173 5.391-4.84 35.109-32.717 36.641-51.505 1.005-12.31-17.779-12.758-19.012-12.79zm-17.629 20.221c5.914-.141 10.654 2.106 10.543 8.47-.127 7.213-13.75 26.068-19.357 29.726-5.832-4.499-14.41-16.738-14.345-23.332.08-7.466 13.304-14.628 23.16-14.864zm-78.466 7.432c2.14-.131 3.713.955 5.012 4.667 1.705 7.633 2.504 12.38 3.284 20.394.414 4.229.566 8.115.691 11.58.079 2.216.207 4.325.173 6.222-.155 8.852-5.962 7.21-10.197 6.567-7.602-1.16-19.646-5.325-28.345-12.79-2.816-2.417-5.234-5.193-7.086-8.295-5.187-8.691 18.484-21.989 31.974-27.135 1.635-.623 3.21-1.131 4.494-1.21z" fill="#fff"/><path fill="#00805f" d="M44.427 309.933l116.778-2.744 229.714-30.453 196.733-11.602L705.84 237.15l.432 34.236-170.807 23.457-226.265 21.87-137.276 26.143-127.497 10.778v-43.701z"/></svg>