<svg xmlns="http://www.w3.org/2000/svg" width="90" height="90"><path d="M77.02 79.413v1.926c0 .192.003.356.015.487.012.13.042.237.09.32a.409.409 0 0 0 .203.188c.093.038.22.06.382.06.11 0 .232-.022.363-.06.133-.04.263-.098.385-.173v-2.75h1.28v3.88h-1.28v-.43c-.237.177-.456.31-.65.4-.196.092-.43.136-.7.136-.44 0-.78-.124-1.018-.37-.236-.245-.356-.61-.356-1.09v-2.525h1.285zm-31.348-.323c.694 0 1.233.185 1.612.555.38.367.57.87.57 1.51 0 .636-.19 1.138-.573 1.504-.38.366-.918.55-1.607.55-.69 0-1.226-.184-1.61-.55-.382-.367-.573-.87-.573-1.506 0-.643.193-1.147.58-1.515.382-.367.917-.55 1.603-.55zm0 .868c-.122 0-.232.016-.33.05a.65.65 0 0 0-.273.19.972.972 0 0 0-.187.37c-.045.157-.07.353-.07.59 0 .212.022.396.06.553.042.155.1.28.18.374.075.09.164.156.272.198.102.04.223.062.358.062.115 0 .227-.02.33-.058a.61.61 0 0 0 .27-.19c.082-.1.144-.22.186-.358.04-.14.063-.333.063-.58 0-.225-.023-.417-.067-.572a.942.942 0 0 0-.175-.368.643.643 0 0 0-.274-.2.962.962 0 0 0-.343-.06zm27.418-.868c.65 0 1.137.16 1.464.48.327.32.49.78.49 1.376v.435H72.12c.018.304.138.536.355.696.22.163.542.243.97.243.266 0 .528-.047.782-.142a2.43 2.43 0 0 0 .598-.303h.142v.996c-.287.114-.56.198-.815.247-.257.05-.538.077-.846.077-.8 0-1.415-.177-1.84-.527-.424-.35-.637-.846-.637-1.494 0-.64.202-1.147.605-1.52.4-.374.954-.562 1.656-.562zm-.1.778c-.247 0-.448.062-.607.186-.16.124-.247.325-.265.598h1.654c-.005-.26-.072-.455-.198-.587-.124-.13-.32-.197-.585-.197zm-36.334-.778c.647 0 1.132.16 1.46.48.327.32.49.78.49 1.376v.435h-2.922c.017.304.135.536.354.696.22.163.542.243.967.243.268 0 .533-.047.783-.142.255-.094.455-.195.6-.303h.14v.996c-.285.114-.56.198-.812.247-.256.05-.54.077-.85.077-.798 0-1.41-.177-1.837-.527-.427-.35-.64-.846-.64-1.494 0-.64.202-1.147.604-1.52.406-.374.957-.562 1.662-.562zm-.105.778a.957.957 0 0 0-.605.186c-.16.124-.247.325-.266.598h1.655c-.006-.26-.07-.455-.198-.587-.125-.13-.32-.197-.586-.197zm26.609-.778c.647 0 1.135.16 1.46.48.326.32.49.78.49 1.376v.435h-2.923c.02.304.14.536.357.696.217.163.54.243.965.243.267 0 .532-.047.785-.142.252-.094.453-.195.598-.303h.142v.996c-.287.114-.56.198-.816.247-.256.05-.538.077-.848.077-.8 0-1.412-.177-1.837-.527-.426-.35-.64-.846-.64-1.494 0-.64.2-1.147.604-1.52.403-.374.956-.562 1.66-.562zm-.105.778a.969.969 0 0 0-.607.186c-.156.124-.246.325-.263.598h1.654c-.007-.26-.073-.455-.2-.587-.123-.13-.32-.197-.585-.197zm-10.181-.766c.725 0 1.25.11 1.574.326.323.218.484.56.484 1.024v2.64h-1.268v-.413l-.253.182a1.93 1.93 0 0 1-.285.167 1.782 1.782 0 0 1-.392.123c-.136.026-.284.04-.442.04-.38 0-.697-.114-.952-.34a1.126 1.126 0 0 1-.384-.875c0-.285.067-.514.195-.693.13-.182.314-.32.554-.425.235-.105.53-.178.878-.222.35-.043.715-.076 1.09-.096v-.022c0-.214-.09-.362-.27-.44-.177-.085-.444-.126-.793-.126-.212 0-.435.035-.677.11-.237.072-.41.13-.515.167h-.115v-.935c.134-.035.354-.075.66-.122.302-.048.606-.07.91-.07zm.79 2.167c-.17.015-.358.033-.56.056a2.754 2.754 0 0 0-.457.085.655.655 0 0 0-.292.173.409.409 0 0 0-.102.29c0 .083.008.148.022.2.016.05.05.096.107.144.053.045.117.08.193.102.076.018.195.03.356.03.13 0 .258-.025.388-.076.133-.05.247-.117.346-.198v-.807zm-12.121-2.164c.272 0 .524.03.752.087.23.057.444.133.643.226v1.058h-.182c-.048-.042-.108-.09-.177-.146a1.995 1.995 0 0 0-.26-.162 1.457 1.457 0 0 0-.721-.175c-.343 0-.602.104-.785.315-.185.212-.276.497-.276.86 0 .37.093.654.28.848.188.192.454.29.8.29.16 0 .305-.018.433-.053.13-.036.237-.078.32-.127.08-.046.153-.094.214-.144.06-.053.12-.102.17-.148h.18v1.06c-.2.09-.41.165-.63.217-.218.056-.46.083-.725.083-.348 0-.664-.04-.952-.12a2.13 2.13 0 0 1-.75-.373 1.697 1.697 0 0 1-.49-.637 2.127 2.127 0 0 1-.175-.895c0-.363.063-.676.187-.936a1.76 1.76 0 0 1 .52-.654c.215-.162.46-.283.745-.36.28-.075.573-.113.876-.113zm15.844-1.387v1.9c.196-.154.396-.278.6-.37a1.66 1.66 0 0 1 .706-.142c.506 0 .892.176 1.163.53.273.352.41.84.41 1.46 0 .61-.177 1.11-.522 1.493a1.67 1.67 0 0 1-1.294.575c-.223 0-.416-.022-.585-.07a1.929 1.929 0 0 1-.478-.2l-.055.195h-1.227v-5.372h1.282zm.736 2.33a1.598 1.598 0 0 0-.735.205V82.2c.092.033.18.054.26.066.084.012.185.017.3.017.335 0 .588-.095.75-.287.17-.194.25-.484.25-.87 0-.344-.06-.61-.182-.794-.12-.19-.333-.282-.642-.282zM18.72 79.21l.684 2.674.85-2.673h1.13l.81 2.674.673-2.673h1.31l-1.234 3.88h-1.357l-.81-2.614-.803 2.614h-1.37l-1.224-3.88h1.34zm-7.118 0l.685 2.674.85-2.673h1.132l.807 2.674.672-2.673h1.31l-1.233 3.88H14.47l-.812-2.614-.8 2.614h-1.37l-1.225-3.88h1.34zm14.233 0l.684 2.674.85-2.673h1.133l.808 2.674.674-2.673h1.31l-1.234 3.88h-1.355l-.814-2.614-.8 2.614h-1.37l-1.223-3.88h1.338zm41.457-1.49v5.37h-1.28v-5.37h1.28zm-17.242 0v5.37h-1.28v-5.37h1.28zm-16.62 4.013v1.357h-1.326v-1.357h1.327zm36.437 0v1.357H68.54v-1.357h1.327zM22.626 44.336v4.72c0 .42.03.753.09 1 .06.24.158.462.298.662.158.227.373.398.642.514.272.115.597.173.98.173.382 0 .708-.058.977-.17a1.46 1.46 0 0 0 .644-.517 1.9 1.9 0 0 0 .3-.683 4.3 4.3 0 0 0 .088-.957v-4.742h1.065V49c0 .566-.063 1.06-.19 1.48a2.42 2.42 0 0 1-.626 1.05c-.277.266-.6.46-.97.58-.37.123-.798.186-1.29.186-.504 0-.94-.066-1.315-.196-.37-.13-.686-.32-.94-.57a2.5 2.5 0 0 1-.628-1.036c-.127-.406-.19-.903-.19-1.493v-4.664h1.064zm-2.636-.001v.92h-4.21v2.138h4.21v.92h-4.21v2.897h4.21v.92h-5.276v-7.795h5.276zm25.025-7.298c1.02.245.824 1.19.843 2.014-.195 4.602-1.914 3.504-1.67 11.528-.745-4.924.057-5.596 1.216-9.95-1.313 3.903-1.978 3.61-1.46 10.096-.327.348.08 1.734-1.193 1.098-1.05-1.698-1.012-4.476 1.768-14.395.166-.298.036-.132.497-.39zm9.921 8.681c2.03-.032 5.367.51 6.875 1.72-.72-.254-2.423-.764-3.306-.67.23.16.263.223.295.32 0 0-.62 0-.917.254.23-.063 1.504.064 2.06.095-.62.128-2.62.446-3.04.573.26.096.39.16.554.257-1.44.127-4.78 1.686-6.152 1.718-1.375.033-3.6-.063-3.6-1.91 0-1.05 2.225-1.432 3.077-1.626.848-.19 2.648-.71 4.154-.732zM34.948 44.32c1.218-.04 2.35.21 3.415.783.982.668 1.834 1.255 2.096 1.656.227.35.357.762.522 1.082.165.318-1.138.318-1.833.318-1.015 0-4.008-3.79-5.695-3.79.748-.025.25-.01 1.493-.05zm22.622-5.483c3.448.582 1.985.186 4.437.99-.915.062-2.585-.032-3.436.38.262.383 2.063.51 3.697.637-.522-.285-.72-.444-1.175-.507 2.615-.288 4.155 1.272 5.858 1.72-.886.062-1.473.062-1.703.062.03.125.1.094.26.286-.882-.35-4.024-.127-5.136.158-1.112.286-1.8.033-2.522.065.133.157.298.19.393.35-1.207-.288-3.925-.064-5.79.827.165-.19.33-.35.522-.444-1.7.38-3.532 1.72-4.023 1.43-1.973-3.545 3.257-5.55 5.918-5.877.894-.11 1.8-.053 2.7-.08zM51.34 14.34l1.148.303c.257.097.506.21.74.337.382.203.454.654.243 1.025-.206.37-.616.52-.996.315a4.939 4.939 0 0 0-.557-.233c-1.96-.73-4.13.03-5.19 1.71l3.15 1.176c.406.15.54.59.38.985-.153.395-.537.596-.944.445l-3.15-1.177c-.37 1.94.72 3.923 2.68 4.655.187.072.376.127.565.17.422.096.616.527.52.938-.1.412-.453.663-.878.567a6.131 6.131 0 0 1-.776-.23c-3.03-1.132-4.545-4.443-3.382-7.39.783-1.764 2.237-3.097 4.167-3.525.74-.164 1.52-.047 2.28-.07z" fill="#4EA546"/><path d="M48.146 5.853h4.16L48.938 8.23l1.286-3.847L51.51 8.23zm7.201 1.783h4.157l-3.365 2.38 1.286-3.85 1.287 3.85zm5.04 5.287h4.16l-3.366 2.38 1.286-3.848 1.287 3.847zM45.102 7.636h-4.16l3.364 2.38-1.285-3.85-1.284 3.85zm-5.04 5.287h-4.16l3.366 2.38-1.287-3.848-1.285 3.847zm22.092 6.625h4.158l-3.364 2.378 1.286-3.848 1.284 3.848zm-1.966 6.886h4.16l-3.367 2.38 1.285-3.85 1.29 3.85zm-5.208 4.944h4.158l-3.363 2.38 1.284-3.85 1.286 3.85zm-14.72-4.944H36.1l3.366 2.38-1.287-3.85-1.287 3.85zm5.206 4.944h-4.158l3.366 2.38-1.285-3.85-1.288 3.85zm-7.172-11.83h-4.158l3.365 2.378-1.286-3.848-1.287 3.848zm9.852 13.84h4.16l-3.367 2.38 1.286-3.85 1.285 3.85zM14.608 75.51V53.096h6.45v1.777h-4.654V64.3h2.828v1.78h-2.828v7.652h4.655v1.78zM27.86 65.305v-2.55c0-.382-.138-.707-.415-.974-.28-.268-.614-.4-1.01-.4-.4 0-.736.132-1.013.4a1.306 1.306 0 0 0-.416.974v9.804c0 .382.14.707.416.975.277.267.614.4 1.012.4.397 0 .732-.133 1.01-.4.278-.268.417-.593.417-.975v-2.35h1.797v2.35a3.078 3.078 0 0 1-.937 2.235 3.248 3.248 0 0 1-2.286.918 3.233 3.233 0 0 1-2.288-.917 3.094 3.094 0 0 1-.938-2.235v-9.804c0-.44.083-.85.25-1.23.164-.384.394-.718.688-1.005a3.227 3.227 0 0 1 2.287-.919 3.235 3.235 0 0 1 2.287.919c.293.286.523.62.69 1.003.165.38.247.792.247 1.23v2.552zm9.075-2.551c0-.382-.14-.707-.418-.974a1.4 1.4 0 0 0-1.01-.4c-.398 0-.735.132-1.013.4-.28.267-.418.592-.418.974v9.803c0 .383.14.708.418.975.278.268.615.402 1.012.402.396 0 .734-.134 1.01-.402.28-.267.42-.592.42-.975zm1.796 9.803c0 .44-.083.85-.246 1.233-.17.382-.4.717-.692 1.004a3.238 3.238 0 0 1-2.285.916 3.258 3.258 0 0 1-2.29-.916 3.184 3.184 0 0 1-.69-1.004 3.096 3.096 0 0 1-.247-1.233v-9.803a3.082 3.082 0 0 1 .938-2.234c.295-.288.636-.51 1.026-.676.39-.16.81-.243 1.262-.243.45 0 .87.084 1.26.244a3.202 3.202 0 0 1 1.718 1.678c.163.382.247.795.247 1.232zm4.419 2.953h-1.798V53.124h1.798zm4.417-2.953c0 .384.14.708.415.975.28.27.618.402 1.014.402s.732-.133 1.01-.402c.28-.267.417-.59.417-.975v-4.702c0-.38-.138-.705-.418-.97a1.391 1.391 0 0 0-1.01-.404 1.41 1.41 0 0 0-1.013.404c-.276.266-.415.59-.415.97zm2.856 2.84c-.215.094-.438.17-.662.227a3.046 3.046 0 0 1-.75.087 3.278 3.278 0 0 1-2.3-.916 3.187 3.187 0 0 1-.69-1.005 3.056 3.056 0 0 1-.248-1.233v-4.702c0-.437.082-.85.25-1.23.165-.383.398-.718.688-1.004.298-.286.64-.51 1.034-.674.394-.16.816-.242 1.266-.242.276 0 .535.035.78.102.245.065.457.136.633.214v-2.266c0-.382-.138-.707-.418-.974a1.4 1.4 0 0 0-1.01-.4c-.395 0-.733.133-1.013.4a1.306 1.306 0 0 0-.415.974v.774h-1.795v-.774c0-.437.08-.85.246-1.232.17-.382.397-.716.69-1.003a3.28 3.28 0 0 1 1.025-.675c.392-.16.815-.243 1.263-.243.45 0 .87.082 1.26.243.392.165.732.39 1.027.674a3.11 3.11 0 0 1 .94 2.234v12.758h-1.8zm8.655-13.617a1.408 1.408 0 0 0-1.01-.402c-.398 0-.734.135-1.012.403a1.304 1.304 0 0 0-.416.973v9.805c0 .383.14.707.416.974.278.268.614.402 1.012.402.394 0 .732-.134 1.01-.402.28-.267.418-.59.418-.974v-9.805c0-.38-.14-.706-.418-.972m-1.806-2.078c.246-.066.505-.1.78-.1a3.265 3.265 0 0 1 2.297.917c.295.286.524.62.692 1.003.167.38.25.793.25 1.23v9.805c0 .438-.083.85-.25 1.232a3.13 3.13 0 0 1-.692 1.003 3.254 3.254 0 0 1-2.297.919c-.276 0-.527-.03-.753-.087a4.404 4.404 0 0 1-.66-.228v.114h-1.798V53.125h1.798v6.794c.177-.078.388-.15.632-.216m8.441 7.352h2.856v-4.3c0-.382-.14-.707-.417-.975a1.409 1.409 0 0 0-1.01-.4c-.397 0-.735.134-1.014.4a1.312 1.312 0 0 0-.414.974zm-1.797-4.3c0-.44.08-.85.25-1.233a3.07 3.07 0 0 1 .685-1.003c.294-.287.637-.51 1.027-.676.392-.16.812-.243 1.263-.243.45 0 .87.083 1.26.244.39.165.732.39 1.026.675.296.286.523.62.688 1.002.168.383.252.793.252 1.232v6.08h-4.654v3.723c0 .383.14.708.414.975.28.27.617.4 1.014.4.395 0 .732-.13 1.01-.4.28-.267.418-.592.418-.975v-1.174h1.798v1.174c0 .44-.084.85-.252 1.232a3.047 3.047 0 0 1-.688 1.003 3.252 3.252 0 0 1-2.285.918 3.241 3.241 0 0 1-2.29-.917 3.092 3.092 0 0 1-.686-1.004 3.034 3.034 0 0 1-.25-1.233zm10.87 12.755h-1.8V53.124h1.8z" fill="#2F5F8B"/></svg>