<svg enable-background="new 0 0 152 63.653" viewBox="0 0 41.379 30.612" xmlns="http://www.w3.org/2000/svg"><g transform="translate(-9.478 -11.315)"><path d="m46.222 33.083c-1.843 2.789-4.829 4.605-8.195 4.605-5.585 0-10.129-5-10.129-11.146 0-6.145 4.544-11.145 10.129-11.145 3.366 0 6.353 1.817 8.195 4.605v-.004h4.635c-2.288-5.13-7.179-8.683-12.83-8.683-7.206 0-13.172 5.778-14.086 13.236h-9.542v-7.955h9.84v-4.606h-13.505c-.694 0-1.256.563-1.256 1.256v28.681h4.92v-13.502h9.529c.868 7.512 6.858 13.346 14.099 13.346 5.556 0 10.374-3.435 12.71-8.426h-4.515v-.262z"/><path d="m42.431 29.471c-.871 1.506-2.411 2.513-4.166 2.513-2.713 0-4.92-2.395-4.92-5.338s2.208-5.338 4.92-5.338c1.673 0 3.152.913 4.042 2.303h3.482c-1.163-3.18-4.097-5.443-7.523-5.443-4.444 0-8.061 3.804-8.061 8.479s3.616 8.479 8.061 8.479c3.502 0 6.488-2.364 7.597-5.654h-3.432z"/></g></svg>