<?xml version="1.0" encoding="UTF-8"?>
<!-- Generator: Adobe Illustrator 19.1.0, SVG Export Plug-In . SVG Version: 6.00 Build 0)  -->
<svg id="Layer_1" enable-background="new -163.5 280.8 255.1 255.1" version="1.1" viewBox="-163.5 280.8 255.1 255.1" xml:space="preserve" xmlns="http://www.w3.org/2000/svg">
<style type="text/css">
	.st0{fill:#066BB3;}
	.st1{fill:#FED500;}
</style>

	<path class="st0" d="m-35.9 535.9c70.4 0 127.6-57.1 127.6-127.6s-57.2-127.5-127.6-127.5-127.6 57.1-127.6 127.6c0 70.4 57.1 127.5 127.6 127.5"/>


	<path class="st1" d="m-157.2 448.7s1 2.9 1.9 5.7c0.6 1.8 2.4 5 2.4 5s65.9 16 114 20.2c65.9 5.9 108.4 1.2 108.4 1.2s3.3-4.4 6.7-10.6c5.6-9.9 6.4-14.5 6.4-14.5s-23.9 4-87 6.6c-64.2 2.7-152.8-13.6-152.8-13.6m147.6-17.6h8.8v-32.1h-8.8v32.1zm-14.3-21.2c0 2.1-1.2 3-4 3h-5.5v-6h5.5c2.7 0 4 0.9 4 3m9.8 21.2-7.2-11.4c4.1-1.5 6.2-4.8 6.2-9.9 0-7.2-4.3-10.8-12.5-10.8h-14.6v32.1h8.8v-10.4h3.2l5.8 10.4h10.3zm-49.1-7.8v-4.6h12.1v-7.1h-12.1v-4.7h15.6v-7.8h-24.4v32.1h24.4v-7.8l-15.6-0.1zm-47.4-2.1c0-6.4-3.3-9.3-11.5-10.1-4.1-0.4-5.2-1-5.2-2.4 0-1.7 1.6-2.6 4.6-2.6 4 0 7.5 1.3 9.7 3.5h0.4v-9c-1.9-1.3-6-2.1-9.9-2.1-8.6 0-13.5 3.9-13.5 10.7 0 6.2 3.3 9.1 11.5 9.8 4.1 0.3 5.3 1 5.3 2.4 0 1.7-1.5 2.6-4.9 2.6-4.2 0-8.2-1.4-11.2-3.9h-0.4v9c2.6 1.7 6.5 2.5 11.9 2.5 8.5 0 13.2-3.7 13.2-10.4m34.7-22.2h-9.2l-7.1 20.5h-0.1l-7.1-20.5h-9.4l12.1 32.1h8.7l12.1-32.1zm-0.7-31.5h11.4v-5.7h-17.8v23.4h6.4v-8.3h8.8v-5.7h-8.8v-3.7zm28.3 2.2c0 1.5-0.9 2.2-2.9 2.2h-4v-4.4h4c2 0 2.9 0.7 2.9 2.2m7.2 15.5-5.3-8.3c3-1.1 4.6-3.5 4.6-7.2 0-5.2-3.1-7.9-9.1-7.9h-10.7v23.4h6.4v-7.6h2.4l4.2 7.6h7.5zm16.5-28.5c0 0.8-0.6 1.4-1.4 1.4s-1.4-0.6-1.4-1.4 0.6-1.4 1.4-1.4 1.4 0.6 1.4 1.4m2.7 0c0-2.4-1.8-4.1-4.1-4.1-2.4 0-4.1 1.8-4.1 4.1 0 2.4 1.8 4.1 4.1 4.1 2.3 0.1 4.1-1.7 4.1-4.1m-1.5 19.8h-5.4l2.6-7.3h0.1l2.7 7.3zm3.2 8.7h6.9l-9.6-23.4h-6.2l-9.6 23.4h6.7l1.2-3.4h9.4l1.2 3.4zm24 0h7.4v-23.4h-6.2v13.4h-0.1l-6.8-13.4h-8.5v23.4h6.2v-15.5h0.1l7.9 15.5zm18.3 46.4c4.7 0 8.2-0.6 11.2-2.1v-17.1h-14.1v7.2h5.7v4.1c-0.8 0.1-1.5 0.1-2.3 0.1-5.9 0-9.6-3.3-9.6-8.7s3.7-8.7 9.6-8.7c4.1 0 7.7 1.3 10.4 3.8h0.4v-9.5c-3-1.5-6.5-2.1-11.2-2.1-11.2 0-18.2 6.3-18.2 16.5 0 10.1 7 16.5 18.1 16.5m17.3-0.5h24.4v-7.8h-15.6v-4.6h12.1v-7.2h-12.1v-4.7h15.6v-7.8h-24.4v32.1z"/>

</svg>
