<?xml version="1.0" encoding="UTF-8" standalone="no"?>
<!-- Created with Inkscape (http://www.inkscape.org/) -->

<svg
   version="1.1"
   id="svg1"
   width="82.013336"
   height="154.96001"
   viewBox="0 0 82.013336 154.96001"
   sodipodi:docname="3.6(BV).eps"
   xmlns:inkscape="http://www.inkscape.org/namespaces/inkscape"
   xmlns:sodipodi="http://sodipodi.sourceforge.net/DTD/sodipodi-0.dtd"
   xmlns="http://www.w3.org/2000/svg"
   xmlns:svg="http://www.w3.org/2000/svg">
  <defs
     id="defs1" />
  <sodipodi:namedview
     id="namedview1"
     pagecolor="#ffffff"
     bordercolor="#000000"
     borderopacity="0.25"
     inkscape:showpageshadow="2"
     inkscape:pageopacity="0.0"
     inkscape:pagecheckerboard="0"
     inkscape:deskcolor="#d1d1d1">
    <inkscape:page
       x="0"
       y="0"
       inkscape:label="1"
       id="page1"
       width="82.013336"
       height="154.96001"
       margin="0"
       bleed="0" />
  </sodipodi:namedview>
  <g
     id="g1"
     inkscape:groupmode="layer"
     inkscape:label="1">
    <g
       id="group-R5">
      <path
         id="path2"
         d="M 2.5,2.48828 V 1159.7 H 612.617 V 2.48828 H 2.5"
         style="fill:#ffffff;fill-opacity:1;fill-rule:nonzero;stroke:none"
         transform="matrix(0.13333333,0,0,-0.13333333,0,154.96)" />
      <path
         id="path3"
         d="M 615.117,1162.2 H 0 V 0 h 615.117 v 1162.2 z m -5,-5 V 5 H 5.00391 V 1157.2 H 610.117"
         style="fill:#231f20;fill-opacity:1;fill-rule:nonzero;stroke:none"
         transform="matrix(0.13333333,0,0,-0.13333333,0,154.96)" />
      <path
         id="path4"
         d="m 246.738,1121.74 h 14.383 v -27.29 h 16.797 v 27.29 h 14.395 v -71.36 h -14.395 v 31.68 h -16.797 v -31.68 h -14.383 v 71.36"
         style="fill:#231f20;fill-opacity:1;fill-rule:nonzero;stroke:none"
         transform="matrix(0.13333333,0,0,-0.13333333,0,154.96)" />
      <path
         id="path5"
         d="m 304.91,1104.14 h 13.789 v -53.76 H 304.91 Z m 0,18.39 h 13.789 v -11.79 H 304.91 v 11.79"
         style="fill:#231f20;fill-opacity:1;fill-rule:nonzero;stroke:none"
         transform="matrix(0.13333333,0,0,-0.13333333,0,154.96)" />
      <path
         id="path6"
         d="m 350.496,1061.57 c 5.793,0 7.492,6.3 7.492,15.39 0,13.09 -1.699,17.99 -7.199,17.99 -6.094,0 -7.187,-4.9 -7.187,-19.39 0,-7.4 1.093,-13.99 6.894,-13.99 z m 20.684,42.57 v -51.07 c 0,-14.19 -6.297,-21.09 -22.383,-21.09 -11.699,0 -18.289,5.2 -18.289,14.4 h 13.191 c 0,-1.8 0.801,-3.2 2.102,-4.1 1.297,-0.9 2.89,-1.5 4.59,-1.5 5.605,0 7.597,4.2 7.597,9.69 v 7.1 h -0.195 c -2.805,-4 -7.102,-6.59 -11.496,-6.59 -10.996,0 -16.492,7.49 -16.492,27.18 0,12.59 1.902,27.39 16.894,27.39 3.797,0 8.496,-1.8 11.094,-7.4 h 0.195 v 5.99 h 13.192"
         style="fill:#231f20;fill-opacity:1;fill-rule:nonzero;stroke:none"
         transform="matrix(0.13333333,0,0,-0.13333333,0,154.96)" />
      <path
         id="path7"
         d="m 383.387,1121.74 h 13.789 v -23.1 h 0.207 c 2.597,4.61 7.293,6.91 13.086,6.91 8.594,0 13.691,-4.7 13.691,-15.3 v -39.87 h -13.789 v 37.07 c 0,5.4 -1.797,7.5 -5.898,7.5 -4.7,0 -7.297,-2.9 -7.297,-8.9 v -35.67 h -13.789 v 71.36"
         style="fill:#231f20;fill-opacity:1;fill-rule:nonzero;stroke:none"
         transform="matrix(0.13333333,0,0,-0.13333333,0,154.96)" />
      <path
         id="path8"
         d="m 462.859,1104.14 h 13.789 v -53.76 h -13.789 z m 0,18.39 h 13.789 v -11.79 h -13.789 v 11.79"
         style="fill:#231f20;fill-opacity:1;fill-rule:nonzero;stroke:none"
         transform="matrix(0.13333333,0,0,-0.13333333,0,154.96)" />
      <path
         id="path9"
         d="m 488.848,1104.14 h 13.191 v -6.29 h 0.195 c 2.903,5.3 7.903,7.7 13.692,7.7 8.594,0 13.691,-4.7 13.691,-15.3 v -39.87 h -13.789 v 37.07 c 0,5.4 -1.797,7.5 -5.898,7.5 -4.696,0 -7.293,-2.9 -7.293,-8.9 v -35.67 h -13.789 v 53.76"
         style="fill:#231f20;fill-opacity:1;fill-rule:nonzero;stroke:none"
         transform="matrix(0.13333333,0,0,-0.13333333,0,154.96)" />
      <path
         id="path10"
         d="m 265.926,1040.32 h 13.789 l -9.793,-14.39 h -9.395 z m 20.683,-18.58 v -11.8 h -25.488 v -16.788 h 23.996 v -11.797 h -23.996 v -19.191 h 26.496 v -11.789 h -40.879 v 71.365 h 39.871"
         style="fill:#231f20;fill-opacity:1;fill-rule:nonzero;stroke:none"
         transform="matrix(0.13333333,0,0,-0.13333333,0,154.96)" />
      <path
         id="path11"
         d="m 297.422,1021.74 h 13.789 v -71.365 h -13.789 v 71.365"
         style="fill:#231f20;fill-opacity:1;fill-rule:nonzero;stroke:none"
         transform="matrix(0.13333333,0,0,-0.13333333,0,154.96)" />
      <path
         id="path12"
         d="m 349.297,983.359 c -0.293,8.192 -1.301,12.793 -6.992,12.793 -5.5,0 -7.102,-5.699 -7.102,-10.695 v -2.098 z m -14.094,-8.199 v -4.297 c 0,-6.293 1.699,-12.492 6.797,-12.492 4.602,0 6.504,3.496 7.297,10.094 h 12.402 c -0.508,-12.496 -6.504,-19.492 -19.492,-19.492 -19.992,0 -20.793,15.394 -20.793,28.785 0,14.394 2.805,27.792 21.387,27.792 16.094,0 19.687,-10.8 19.687,-27.288 v -3.102 h -27.285"
         style="fill:#231f20;fill-opacity:1;fill-rule:nonzero;stroke:none"
         transform="matrix(0.13333333,0,0,-0.13333333,0,154.96)" />
      <path
         id="path13"
         d="m 397.684,1004.14 h 13.789 l -13.496,-53.765 h -15.985 l -13.898,53.765 h 14.394 l 7.696,-38.472 h 0.195 l 7.305,38.472"
         style="fill:#231f20;fill-opacity:1;fill-rule:nonzero;stroke:none"
         transform="matrix(0.13333333,0,0,-0.13333333,0,154.96)" />
      <path
         id="path14"
         d="m 436.57,1024.83 h 13.789 l -9.793,-14.39 h -9.394 z m 8.391,-41.471 c -0.293,8.192 -1.301,12.793 -6.992,12.793 -5.5,0 -7.102,-5.699 -7.102,-10.695 v -2.098 z m -14.094,-8.199 v -4.297 c 0,-6.293 1.699,-12.492 6.797,-12.492 4.602,0 6.504,3.496 7.297,10.094 h 12.402 c -0.508,-12.496 -6.504,-19.492 -19.492,-19.492 -19.992,0 -20.793,15.394 -20.793,28.785 0,14.394 2.805,27.792 21.387,27.792 16.094,0 19.687,-10.8 19.687,-27.288 v -3.102 h -27.285"
         style="fill:#231f20;fill-opacity:1;fill-rule:nonzero;stroke:none"
         transform="matrix(0.13333333,0,0,-0.13333333,0,154.96)" />
      <path
         id="path15"
         d="m 520.223,983.359 c -0.293,8.192 -1.297,12.793 -6.993,12.793 -5.496,0 -7.097,-5.699 -7.097,-10.695 v -2.098 z m -14.09,-8.199 v -4.297 c 0,-6.293 1.699,-12.492 6.797,-12.492 4.597,0 6.504,3.496 7.293,10.094 h 12.402 c -0.508,-12.496 -6.504,-19.492 -19.492,-19.492 -19.988,0 -20.789,15.394 -20.789,28.785 0,14.394 2.801,27.792 21.386,27.792 16.094,0 19.688,-10.8 19.688,-27.288 v -3.102 h -27.285"
         style="fill:#231f20;fill-opacity:1;fill-rule:nonzero;stroke:none"
         transform="matrix(0.13333333,0,0,-0.13333333,0,154.96)" />
      <path
         id="path16"
         d="m 543.125,1004.14 h 13.191 v -6.288 h 0.196 c 2.902,5.298 7.902,7.698 13.691,7.698 8.594,0 13.692,-4.7 13.692,-15.296 v -39.879 h -13.79 v 37.078 c 0,5.399 -1.796,7.496 -5.898,7.496 -4.695,0 -7.293,-2.898 -7.293,-8.894 v -35.68 h -13.789 v 53.765"
         style="fill:#231f20;fill-opacity:1;fill-rule:nonzero;stroke:none"
         transform="matrix(0.13333333,0,0,-0.13333333,0,154.96)" />
      <path
         id="path17"
         d="m 133.656,122.469 h -7.039 v 27.511 h -19.59 v -27.511 h -7.0309 v 57.094 h 7.0309 v -23.352 h 19.59 v 23.352 h 7.039 v -57.094"
         style="fill:#231f20;fill-opacity:1;fill-rule:nonzero;stroke:none"
         transform="matrix(0.13333333,0,0,-0.13333333,0,154.96)" />
      <path
         id="path18"
         d="m 163.824,148.379 v 2.32 c 0,4.801 -1.523,10.481 -7.441,10.481 -7.031,0 -7.832,-8.641 -7.832,-11.2 v -1.601 z m -15.519,-5.27 c 0,-6.558 0,-16.48 8.242,-16.48 6.398,0 7.277,6.723 7.277,9.922 h 6.715 c 0,-4.551 -2.723,-15.192 -14.391,-15.192 -10.48,0 -14.875,7.282 -14.875,21.981 0,10.719 2.082,23.109 15.274,23.109 13.105,0 14.308,-11.429 14.308,-20.629 v -2.711 h -22.55"
         style="fill:#231f20;fill-opacity:1;fill-rule:nonzero;stroke:none"
         transform="matrix(0.13333333,0,0,-0.13333333,0,154.96)" />
      <path
         id="path19"
         d="m 197.895,145.82 c -2.469,-2.629 -8.387,-3.199 -11.426,-5.031 -2.156,-1.359 -3.281,-3.039 -3.281,-6.801 0,-4.316 1.523,-7.359 6.074,-7.359 4.394,0 8.633,3.762 8.633,8.16 z m -20.704,6.559 c 0,9.75 4.161,14.07 14.395,14.07 13.027,0 13.027,-7.828 13.027,-12.32 V 130.23 c 0,-1.761 0,-3.441 2.082,-3.441 0.879,0 1.278,0.172 1.602,0.402 v -4.793 C 207.816,122.32 206.059,122 204.379,122 c -2.559,0 -5.762,0 -6.082,5.512 h -0.156 c -2.161,-3.832 -6.321,-6.153 -10.313,-6.153 -8,0 -11.68,4.801 -11.68,12.469 0,6 2.555,10.16 8.075,11.844 l 9.043,2.707 c 4.875,1.531 4.875,2.883 4.875,6.48 0,4 -2.403,6.321 -6.875,6.321 -7.356,0 -7.356,-6.879 -7.356,-8.399 v -0.402 h -6.719"
         style="fill:#231f20;fill-opacity:1;fill-rule:nonzero;stroke:none"
         transform="matrix(0.13333333,0,0,-0.13333333,0,154.96)" />
      <path
         id="path20"
         d="m 214.145,179.563 h 6.718 v -57.094 h -6.718 v 57.094"
         style="fill:#231f20;fill-opacity:1;fill-rule:nonzero;stroke:none"
         transform="matrix(0.13333333,0,0,-0.13333333,0,154.96)" />
      <path
         id="path21"
         d="m 232.066,177.805 h 6.719 v -12.469 h 7.43 v -5.285 h -7.43 v -27.5 c 0,-3.43 0.879,-4.789 4.395,-4.789 1.433,0 2.234,0.148 2.957,0.226 v -5.519 C 245.258,122.32 243.5,122 240.699,122 c -6.953,0 -8.633,2.879 -8.633,8.469 v 29.582 h -6.242 v 5.285 h 6.242 v 12.469"
         style="fill:#231f20;fill-opacity:1;fill-rule:nonzero;stroke:none"
         transform="matrix(0.13333333,0,0,-0.13333333,0,154.96)" />
      <path
         id="path22"
         d="m 250.785,179.563 h 6.719 v -19.114 h 0.156 c 1.77,3.528 6.485,6 10.324,6 11.024,0 11.024,-8.558 11.024,-13.59 v -30.39 h -6.707 v 29.59 c 0,3.281 -0.246,8.64 -6.321,8.64 -3.593,0 -8.476,-2.41 -8.476,-8.64 v -29.59 h -6.719 v 57.094"
         style="fill:#231f20;fill-opacity:1;fill-rule:nonzero;stroke:none"
         transform="matrix(0.13333333,0,0,-0.13333333,0,154.96)" />
      <path
         id="path23"
         d="m 342.207,142.059 c -0.644,-10.789 -4.883,-20.7 -17.355,-20.7 -16.223,0 -18.383,15.262 -18.383,29.661 0,14.394 2.636,29.668 18.383,29.668 11.671,0 16.554,-6.563 16.875,-17.754 h -7.364 c -0.156,6.472 -2.234,11.992 -9.511,11.992 -9.75,0 -11.028,-10.715 -11.028,-23.906 0,-13.192 1.278,-23.911 11.028,-23.911 8.554,0 9.757,8 10,14.95 h 7.355"
         style="fill:#231f20;fill-opacity:1;fill-rule:nonzero;stroke:none"
         transform="matrix(0.13333333,0,0,-0.13333333,0,154.96)" />
      <path
         id="path24"
         d="m 368.211,145.82 c -2.469,-2.629 -8.387,-3.199 -11.426,-5.031 -2.156,-1.359 -3.281,-3.039 -3.281,-6.801 0,-4.316 1.516,-7.359 6.074,-7.359 4.406,0 8.633,3.762 8.633,8.16 z m -20.703,6.559 c 0,9.75 4.16,14.07 14.394,14.07 13.028,0 13.028,-7.828 13.028,-12.32 V 130.23 c 0,-1.761 0,-3.441 2.082,-3.441 0.879,0 1.277,0.172 1.601,0.402 v -4.793 c -0.48,-0.078 -2.238,-0.398 -3.918,-0.398 -2.558,0 -5.761,0 -6.082,5.512 h -0.156 c -2.16,-3.832 -6.32,-6.153 -10.312,-6.153 -8,0 -11.68,4.801 -11.68,12.469 0,6 2.558,10.16 8.074,11.844 l 9.043,2.707 c 4.875,1.531 4.875,2.883 4.875,6.48 0,4 -2.402,6.321 -6.875,6.321 -7.355,0 -7.355,-6.879 -7.355,-8.399 v -0.402 h -6.719"
         style="fill:#231f20;fill-opacity:1;fill-rule:nonzero;stroke:none"
         transform="matrix(0.13333333,0,0,-0.13333333,0,154.96)" />
      <path
         id="path25"
         d="m 384.063,165.336 h 6.394 v -5.035 h 0.168 c 1.758,3.91 6.23,6.148 10.391,6.148 11.269,0 11.269,-8.558 11.269,-13.59 v -30.39 h -6.711 v 29.59 c 0,3.281 -0.242,8.64 -6.316,8.64 -3.594,0 -8.477,-2.41 -8.477,-8.64 v -29.59 h -6.718 v 42.867"
         style="fill:#231f20;fill-opacity:1;fill-rule:nonzero;stroke:none"
         transform="matrix(0.13333333,0,0,-0.13333333,0,154.96)" />
      <path
         id="path26"
         d="m 440.77,145.82 c -2.469,-2.629 -8.387,-3.199 -11.426,-5.031 -2.156,-1.359 -3.281,-3.039 -3.281,-6.801 0,-4.316 1.515,-7.359 6.074,-7.359 4.406,0 8.633,3.762 8.633,8.16 z m -20.704,6.559 c 0,9.75 4.161,14.07 14.395,14.07 13.027,0 13.027,-7.828 13.027,-12.32 V 130.23 c 0,-1.761 0,-3.441 2.082,-3.441 0.879,0 1.278,0.172 1.602,0.402 v -4.793 C 450.691,122.32 448.934,122 447.254,122 c -2.559,0 -5.762,0 -6.082,5.512 h -0.156 c -2.161,-3.832 -6.321,-6.153 -10.313,-6.153 -8,0 -11.68,4.801 -11.68,12.469 0,6 2.559,10.16 8.075,11.844 l 9.043,2.707 c 4.875,1.531 4.875,2.883 4.875,6.48 0,4 -2.403,6.321 -6.875,6.321 -7.356,0 -7.356,-6.879 -7.356,-8.399 v -0.402 h -6.719"
         style="fill:#231f20;fill-opacity:1;fill-rule:nonzero;stroke:none"
         transform="matrix(0.13333333,0,0,-0.13333333,0,154.96)" />
      <path
         id="path27"
         d="m 469.891,127.109 c 7.441,0 8.644,7.039 8.644,16.789 0,8.321 -1.445,16.801 -8.644,16.801 -6.231,0 -7.832,-6.57 -7.832,-16.801 0,-10.226 1.601,-16.789 7.832,-16.789 z m 14.953,-4.64 h -6.387 v 5.293 h -0.168 c -0.879,-3.211 -4.637,-6.403 -9.277,-6.403 -10.145,0 -13.985,9.032 -13.985,22.539 0,8.961 1.438,22.551 13.508,22.551 3.836,0 7.918,-2.316 9.434,-6 h 0.164 v 19.114 h 6.711 v -57.094"
         style="fill:#231f20;fill-opacity:1;fill-rule:nonzero;stroke:none"
         transform="matrix(0.13333333,0,0,-0.13333333,0,154.96)" />
      <path
         id="path28"
         d="m 513.328,145.82 c -2.469,-2.629 -8.387,-3.199 -11.426,-5.031 -2.156,-1.359 -3.281,-3.039 -3.281,-6.801 0,-4.316 1.516,-7.359 6.074,-7.359 4.407,0 8.633,3.762 8.633,8.16 z m -20.703,6.559 c 0,9.75 4.16,14.07 14.395,14.07 13.027,0 13.027,-7.828 13.027,-12.32 V 130.23 c 0,-1.761 0,-3.441 2.082,-3.441 0.879,0 1.277,0.172 1.601,0.402 v -4.793 C 523.25,122.32 521.492,122 519.813,122 c -2.559,0 -5.762,0 -6.083,5.512 h -0.156 c -2.16,-3.832 -6.32,-6.153 -10.312,-6.153 -8,0 -11.68,4.801 -11.68,12.469 0,6 2.559,10.16 8.074,11.844 l 9.043,2.707 c 4.875,1.531 4.875,2.883 4.875,6.48 0,4 -2.402,6.321 -6.875,6.321 -7.355,0 -7.355,-6.879 -7.355,-8.399 v -0.402 h -6.719"
         style="fill:#231f20;fill-opacity:1;fill-rule:nonzero;stroke:none"
         transform="matrix(0.13333333,0,0,-0.13333333,0,154.96)" />
      <path
         id="path29"
         d="m 133.863,84.7695 c 0,6 -2.16,10.1602 -8.879,10.1602 -5.918,0 -9.433,-3.1992 -9.433,-9.2813 0,-16.0703 26.945,-6.4765 26.945,-27.3476 0,-13.1914 -9.68,-16.9414 -17.754,-16.9414 -13.351,0 -17.265,6.8789 -17.265,19.0195 h 7.031 c 0,-6.3906 0.398,-13.2695 10.711,-13.2695 5.605,0 9.922,4 9.922,10.082 0,16.1484 -26.953,6.7969 -26.953,27.75 0,5.2695 2.246,15.7496 16.718,15.7496 10.871,0 15.832,-5.441 15.989,-15.9215 h -7.032"
         style="fill:#231f20;fill-opacity:1;fill-rule:nonzero;stroke:none"
         transform="matrix(0.13333333,0,0,-0.13333333,0,154.96)" />
      <path
         id="path30"
         d="m 169.059,65.8203 c -2.473,-2.6289 -8.391,-3.1992 -11.426,-5.0312 -2.16,-1.3594 -3.281,-3.0391 -3.281,-6.8008 0,-4.3164 1.511,-7.3594 6.074,-7.3594 4.402,0 8.633,3.7617 8.633,8.1602 z m -20.704,6.5586 c 0,9.75 4.161,14.0703 14.391,14.0703 13.031,0 13.031,-7.8281 13.031,-12.3203 V 50.2305 c 0,-1.7617 0,-3.4414 2.078,-3.4414 0.879,0 1.282,0.1718 1.602,0.4023 v -4.793 C 178.98,42.3203 177.223,42 175.539,42 c -2.555,0 -5.758,0 -6.082,5.5117 h -0.156 c -2.156,-3.832 -6.317,-6.1523 -10.313,-6.1523 -7.996,0 -11.679,4.8008 -11.679,12.4687 0,6 2.558,10.1602 8.078,11.8438 l 9.043,2.707 c 4.871,1.5313 4.871,2.8828 4.871,6.4805 0,4 -2.403,6.3203 -6.875,6.3203 -7.352,0 -7.352,-6.8789 -7.352,-8.3984 v -0.4024 h -6.719"
         style="fill:#231f20;fill-opacity:1;fill-rule:nonzero;stroke:none"
         transform="matrix(0.13333333,0,0,-0.13333333,0,154.96)" />
      <path
         id="path31"
         d="m 184.906,85.3398 h 6.399 v -5.039 h 0.164 c 1.758,3.9101 6.23,6.1484 10.39,6.1484 11.27,0 11.27,-8.5586 11.27,-13.5898 V 42.4688 h -6.707 v 29.5898 c 0,3.2812 -0.246,8.6406 -6.32,8.6406 -3.594,0 -8.477,-2.4101 -8.477,-8.6406 V 42.4688 h -6.719 v 42.871"
         style="fill:#231f20;fill-opacity:1;fill-rule:nonzero;stroke:none"
         transform="matrix(0.13333333,0,0,-0.13333333,0,154.96)" />
      <path
         id="path32"
         d="m 223.949,97.8086 h 6.719 V 85.3398 h 7.434 v -5.289 h -7.434 v -27.5 c 0,-3.4297 0.879,-4.7891 4.395,-4.7891 1.433,0 2.238,0.1485 2.96,0.2266 V 42.4688 C 237.145,42.3203 235.387,42 232.582,42 c -6.953,0 -8.633,2.8789 -8.633,8.4688 v 29.582 h -6.238 v 5.289 h 6.238 v 12.4688"
         style="fill:#231f20;fill-opacity:1;fill-rule:nonzero;stroke:none"
         transform="matrix(0.13333333,0,0,-0.13333333,0,154.96)" />
      <path
         id="path33"
         d="m 257.621,102.602 h 7.844 L 256.82,91.25 h -4.793 z m 6.164,-34.2231 v 2.3203 c 0,4.8008 -1.523,10.4805 -7.441,10.4805 -7.031,0 -7.832,-8.6406 -7.832,-11.1992 v -1.6016 z m -15.519,-5.2695 c 0,-6.5586 0,-16.4805 8.242,-16.4805 6.398,0 7.277,6.7227 7.277,9.9219 h 6.719 c 0,-4.5508 -2.727,-15.1914 -14.395,-15.1914 -10.48,0 -14.875,7.2812 -14.875,21.9804 0,10.7188 2.082,23.1094 15.274,23.1094 13.105,0 14.308,-11.4297 14.308,-20.6289 v -2.7109 h -22.55"
         style="fill:#231f20;fill-opacity:1;fill-rule:nonzero;stroke:none"
         transform="matrix(0.13333333,0,0,-0.13333333,0,154.96)" />
      <path
         id="path34"
         d="m 332.566,62.0586 c -0.644,-10.7891 -4.882,-20.6992 -17.347,-20.6992 -16.231,0 -18.391,15.2617 -18.391,29.6601 0,14.3907 2.641,29.6715 18.391,29.6715 11.676,0 16.547,-6.5699 16.871,-17.7613 h -7.363 c -0.157,6.4805 -2.239,12 -9.508,12 -9.754,0 -11.035,-10.7188 -11.035,-23.9102 0,-13.1914 1.281,-23.9101 11.035,-23.9101 8.551,0 9.75,8 9.996,14.9492 h 7.351"
         style="fill:#231f20;fill-opacity:1;fill-rule:nonzero;stroke:none"
         transform="matrix(0.13333333,0,0,-0.13333333,0,154.96)" />
      <path
         id="path35"
         d="m 358.574,65.8203 c -2.472,-2.6289 -8.39,-3.1992 -11.426,-5.0312 -2.16,-1.3594 -3.281,-3.0391 -3.281,-6.8008 0,-4.3164 1.524,-7.3594 6.074,-7.3594 4.395,0 8.633,3.7617 8.633,8.1602 z m -20.703,6.5586 c 0,9.75 4.16,14.0703 14.395,14.0703 13.027,0 13.027,-7.8281 13.027,-12.3203 V 50.2305 c 0,-1.7617 0,-3.4414 2.078,-3.4414 0.879,0 1.281,0.1718 1.602,0.4023 v -4.793 C 368.496,42.3203 366.738,42 365.059,42 c -2.559,0 -5.762,0 -6.086,5.5117 h -0.157 c -2.156,-3.832 -6.316,-6.1523 -10.312,-6.1523 -7.996,0 -11.68,4.8008 -11.68,12.4687 0,6 2.559,10.1602 8.078,11.8438 l 9.043,2.707 c 4.871,1.5313 4.871,2.8828 4.871,6.4805 0,4 -2.402,6.3203 -6.875,6.3203 -7.351,0 -7.351,-6.8789 -7.351,-8.3984 v -0.4024 h -6.719"
         style="fill:#231f20;fill-opacity:1;fill-rule:nonzero;stroke:none"
         transform="matrix(0.13333333,0,0,-0.13333333,0,154.96)" />
      <path
         id="path36"
         d="m 374.422,85.3398 h 6.398 v -5.039 h 0.164 c 1.758,3.9101 6.231,6.1484 10.391,6.1484 11.281,0 11.281,-8.5586 11.281,-13.5898 V 42.4688 h -6.718 v 29.5898 c 0,3.2812 -0.247,8.6406 -6.321,8.6406 -3.601,0 -8.476,-2.4101 -8.476,-8.6406 V 42.4688 h -6.719 v 42.871"
         style="fill:#231f20;fill-opacity:1;fill-rule:nonzero;stroke:none"
         transform="matrix(0.13333333,0,0,-0.13333333,0,154.96)" />
      <path
         id="path37"
         d="m 431.133,65.8203 c -2.473,-2.6289 -8.391,-3.1992 -11.426,-5.0312 -2.16,-1.3594 -3.281,-3.0391 -3.281,-6.8008 0,-4.3164 1.523,-7.3594 6.074,-7.3594 4.395,0 8.633,3.7617 8.633,8.1602 z m -20.703,6.5586 c 0,9.75 4.16,14.0703 14.394,14.0703 13.028,0 13.028,-7.8281 13.028,-12.3203 V 50.2305 c 0,-1.7617 0,-3.4414 2.078,-3.4414 0.879,0 1.281,0.1718 1.601,0.4023 v -4.793 C 441.055,42.3203 439.297,42 437.617,42 c -2.558,0 -5.762,0 -6.086,5.5117 h -0.156 c -2.156,-3.832 -6.316,-6.1523 -10.312,-6.1523 -7.997,0 -11.68,4.8008 -11.68,12.4687 0,6 2.558,10.1602 8.078,11.8438 l 9.043,2.707 c 4.871,1.5313 4.871,2.8828 4.871,6.4805 0,4 -2.402,6.3203 -6.875,6.3203 -7.352,0 -7.352,-6.8789 -7.352,-8.3984 v -0.4024 h -6.718"
         style="fill:#231f20;fill-opacity:1;fill-rule:nonzero;stroke:none"
         transform="matrix(0.13333333,0,0,-0.13333333,0,154.96)" />
      <path
         id="path38"
         d="m 460.254,47.1094 c 7.441,0 8.641,7.039 8.641,16.789 0,8.3204 -1.446,16.8008 -8.641,16.8008 -6.231,0 -7.832,-6.5703 -7.832,-16.8008 0,-10.2265 1.601,-16.789 7.832,-16.789 z m 14.961,-4.6406 h -6.406 v 5.2929 h -0.157 c -0.879,-3.2109 -4.64,-6.4023 -9.277,-6.4023 -10.148,0 -13.984,9.0312 -13.984,22.539 0,8.961 1.433,22.5508 13.504,22.5508 3.839,0 7.921,-2.3203 9.433,-6 h 0.168 v 19.1094 h 6.719 V 42.4688"
         style="fill:#231f20;fill-opacity:1;fill-rule:nonzero;stroke:none"
         transform="matrix(0.13333333,0,0,-0.13333333,0,154.96)" />
      <path
         id="path39"
         d="m 503.691,65.8203 c -2.472,-2.6289 -8.39,-3.1992 -11.425,-5.0312 -2.161,-1.3594 -3.282,-3.0391 -3.282,-6.8008 0,-4.3164 1.524,-7.3594 6.075,-7.3594 4.394,0 8.632,3.7617 8.632,8.1602 z m -20.703,6.5586 c 0,9.75 4.16,14.0703 14.395,14.0703 13.027,0 13.027,-7.8281 13.027,-12.3203 V 50.2305 c 0,-1.7617 0,-3.4414 2.078,-3.4414 0.879,0 1.282,0.1718 1.602,0.4023 v -4.793 C 513.613,42.3203 511.855,42 510.176,42 c -2.559,0 -5.762,0 -6.086,5.5117 h -0.156 c -2.157,-3.832 -6.317,-6.1523 -10.313,-6.1523 -7.996,0 -11.68,4.8008 -11.68,12.4687 0,6 2.559,10.1602 8.079,11.8438 l 9.043,2.707 c 4.871,1.5313 4.871,2.8828 4.871,6.4805 0,4 -2.403,6.3203 -6.875,6.3203 -7.352,0 -7.352,-6.8789 -7.352,-8.3984 v -0.4024 h -6.719"
         style="fill:#231f20;fill-opacity:1;fill-rule:nonzero;stroke:none"
         transform="matrix(0.13333333,0,0,-0.13333333,0,154.96)" />
      <path
         id="path40"
         d="M 103.426,216.938 V 433.039 H 581.395 V 216.938 H 103.426"
         style="fill:#ffffff;fill-opacity:1;fill-rule:nonzero;stroke:none"
         transform="matrix(0.13333333,0,0,-0.13333333,0,154.96)" />
      <path
         id="path41"
         d="M 583.895,435.543 H 100.926 V 214.438 h 482.969 v 221.105 z m -5,-5.004 V 219.441 H 105.93 v 211.098 h 472.965"
         style="fill:#231f20;fill-opacity:1;fill-rule:nonzero;stroke:none"
         transform="matrix(0.13333333,0,0,-0.13333333,0,154.96)" />
      <path
         id="path42"
         d="M 100.926,675.391 V 454.289 H 583.895 V 675.391 H 100.926"
         style="fill:#231f20;fill-opacity:1;fill-rule:nonzero;stroke:none"
         transform="matrix(0.13333333,0,0,-0.13333333,0,154.96)" />
      <path
         id="path43"
         d="m 188.336,607.297 v -2.098 c 0,-6.699 1.894,-10.996 9.492,-10.996 4.395,0 8.594,2.797 8.594,8.793 0,6.5 -3.293,8.899 -12.793,12.199 -12.793,4.395 -18.684,9.692 -18.684,21.586 0,13.891 8.489,20.985 22.082,20.985 12.793,0 22.09,-5.496 22.09,-19.188 v -2 h -13.789 c 0,6.695 -2.305,10.598 -7.805,10.598 -6.492,0 -8.195,-4.102 -8.195,-8.297 0,-4.399 1.301,-7.098 7.406,-9.695 l 11.094,-4.797 c 10.789,-4.696 13.582,-10.196 13.582,-18.891 0,-15.094 -9.187,-21.891 -24.785,-21.891 -16.289,0 -22.684,7.598 -22.684,20.793 v 2.899 h 14.395"
         style="fill:#ffffff;fill-opacity:1;fill-rule:nonzero;stroke:none"
         transform="matrix(0.13333333,0,0,-0.13333333,0,154.96)" />
      <path
         id="path44"
         d="m 258.305,591.309 h -0.196 c -2.898,-5.301 -7.898,-7.704 -13.691,-7.704 -8.594,0 -13.691,4.7 -13.691,15.293 v 39.879 h 13.789 v -37.078 c 0,-5.398 1.797,-7.496 5.898,-7.496 4.699,0 7.297,2.899 7.297,8.895 v 35.679 h 13.785 v -53.769 h -13.191 v 6.301"
         style="fill:#ffffff;fill-opacity:1;fill-rule:nonzero;stroke:none"
         transform="matrix(0.13333333,0,0,-0.13333333,0,154.96)" />
      <path
         id="path45"
         d="m 302.797,596.199 c 5.793,0 7.492,6.297 7.492,15.395 0,13.094 -1.699,17.988 -7.199,17.988 -6.094,0 -7.188,-4.894 -7.188,-19.387 0,-7.398 1.094,-13.996 6.895,-13.996 z m 20.68,42.578 v -51.07 c 0,-14.199 -6.301,-21.094 -22.379,-21.094 -11.7,0 -18.289,5.196 -18.289,14.395 H 296 c 0,-1.797 0.801,-3.195 2.102,-4.098 1.296,-0.902 2.898,-1.496 4.589,-1.496 5.606,0 7.598,4.199 7.598,9.691 v 7.098 h -0.195 c -2.805,-3.996 -7.102,-6.594 -11.496,-6.594 -10.996,0 -16.493,7.496 -16.493,27.18 0,12.594 1.903,27.391 16.891,27.391 3.801,0 8.5,-1.801 11.098,-7.399 h 0.195 v 5.996 h 13.188"
         style="fill:#ffffff;fill-opacity:1;fill-rule:nonzero;stroke:none"
         transform="matrix(0.13333333,0,0,-0.13333333,0,154.96)" />
      <path
         id="path46"
         d="m 360.77,611.895 c -1.903,-1.399 -4.2,-2.301 -5.899,-2.704 -5.594,-1.195 -7.801,-3.894 -7.801,-8.691 0,-4.102 1.504,-7.492 5.203,-7.492 3.692,0 8.497,2.394 8.497,8.289 z m -25.184,10.394 v 1.297 c 0,12.394 8.484,16.594 18.887,16.594 16.386,0 19.492,-6.797 19.492,-16.496 v -28.282 c 0,-5 0.293,-7.293 1.699,-10.394 h -13.195 c -0.906,1.699 -1.297,3.801 -1.699,5.597 h -0.204 c -3.195,-5.597 -7.089,-7 -13.691,-7 -9.59,0 -12.988,8.2 -12.988,15.399 0,10.09 4.09,14.187 13.582,16.785 l 7.804,2.102 c 4.09,1.097 5.497,2.699 5.497,6.297 0,4.097 -1.805,6.597 -6.395,6.597 -4.199,0 -6.398,-2.797 -6.398,-7 v -1.496 h -12.391"
         style="fill:#ffffff;fill-opacity:1;fill-rule:nonzero;stroke:none"
         transform="matrix(0.13333333,0,0,-0.13333333,0,154.96)" />
      <path
         id="path47"
         d="m 386.27,638.777 h 13.191 v -7.199 h 0.195 c 2.805,5.203 6.699,8.602 12.395,8.602 0.801,0 1.699,-0.102 2.5,-0.2 v -13.195 c -1.399,0.098 -2.903,0.199 -4.297,0.199 -4.797,0 -10.195,-2.5 -10.195,-9.695 V 585.008 H 386.27 v 53.769"
         style="fill:#ffffff;fill-opacity:1;fill-rule:nonzero;stroke:none"
         transform="matrix(0.13333333,0,0,-0.13333333,0,154.96)" />
      <path
         id="path48"
         d="m 432.148,602.598 v -1.797 c 0,-4.699 2.5,-7.793 7.196,-7.793 4.199,0 7.004,2.094 7.004,6.394 0,3.496 -2.305,5.094 -5,6.094 l -9.7,3.496 c -7.597,2.699 -11.492,7.399 -11.492,14.996 0,8.895 5.594,16.192 19.793,16.192 12.492,0 18.391,-5.602 18.391,-15.293 v -2.199 h -12.395 c 0,5.398 -1.601,8.097 -6.101,8.097 -3.496,0 -6.496,-2.004 -6.496,-5.797 0,-2.601 1.406,-4.8 5.996,-6.297 l 8.301,-2.8 c 8.691,-2.899 11.894,-7.293 11.894,-15.391 0,-11.293 -8.398,-16.895 -19.988,-16.895 -15.5,0 -19.797,6.797 -19.797,17.098 v 1.895 h 12.394"
         style="fill:#ffffff;fill-opacity:1;fill-rule:nonzero;stroke:none"
         transform="matrix(0.13333333,0,0,-0.13333333,0,154.96)" />
      <path
         id="path49"
         d="m 188.336,507.297 v -2.098 c 0,-6.699 1.894,-10.996 9.492,-10.996 4.395,0 8.594,2.793 8.594,8.789 0,6.504 -3.293,8.895 -12.793,12.196 -12.793,4.394 -18.684,9.699 -18.684,21.593 0,13.887 8.489,20.985 22.082,20.985 12.793,0 22.09,-5.496 22.09,-19.188 v -2.004 h -13.789 c 0,6.699 -2.305,10.598 -7.805,10.598 -6.492,0 -8.195,-4.102 -8.195,-8.293 0,-4.402 1.301,-7.098 7.406,-9.695 l 11.094,-4.797 c 10.789,-4.696 13.582,-10.196 13.582,-18.895 0,-15.09 -9.187,-21.887 -24.785,-21.887 -16.289,0 -22.684,7.598 -22.684,20.793 v 2.899 h 14.395"
         style="fill:#ffffff;fill-opacity:1;fill-rule:nonzero;stroke:none"
         transform="matrix(0.13333333,0,0,-0.13333333,0,154.96)" />
      <path
         id="path50"
         d="m 258.305,491.301 h -0.196 c -2.898,-5.293 -7.898,-7.696 -13.691,-7.696 -8.594,0 -13.691,4.7 -13.691,15.293 v 39.875 h 13.789 v -37.082 c 0,-5.39 1.797,-7.488 5.898,-7.488 4.699,0 7.297,2.899 7.297,8.895 v 35.675 h 13.785 v -53.769 h -13.191 v 6.297"
         style="fill:#ffffff;fill-opacity:1;fill-rule:nonzero;stroke:none"
         transform="matrix(0.13333333,0,0,-0.13333333,0,154.96)" />
      <path
         id="path51"
         d="m 309.086,519.387 c 0,5.195 -0.996,10.793 -6.191,10.793 -6.797,0 -7.899,-5.996 -7.899,-18.391 0,-13.289 1.199,-18.789 7.402,-18.789 4.598,0 6.688,3.898 6.688,12.598 h 13.187 c 0,-14.102 -5.886,-21.993 -20.48,-21.993 -13.789,0 -20.59,6.7 -20.59,28.282 0,22.09 9.094,28.293 21.789,28.293 12.696,0 19.281,-8.098 19.281,-20.793 h -13.187"
         style="fill:#ffffff;fill-opacity:1;fill-rule:nonzero;stroke:none"
         transform="matrix(0.13333333,0,0,-0.13333333,0,154.96)" />
      <path
         id="path52"
         d="m 331.98,538.773 h 13.196 v -7.199 h 0.195 c 2.801,5.207 6.699,8.606 12.391,8.606 0.801,0 1.699,-0.11 2.5,-0.207 v -13.192 c -1.395,0.098 -2.899,0.203 -4.297,0.203 -4.793,0 -10.195,-2.5 -10.195,-9.695 v -32.285 h -13.79 v 53.769"
         style="fill:#ffffff;fill-opacity:1;fill-rule:nonzero;stroke:none"
         transform="matrix(0.13333333,0,0,-0.13333333,0,154.96)" />
      <path
         id="path53"
         d="m 393.652,517.992 c -0.293,8.192 -1.3,12.793 -6.992,12.793 -5.5,0 -7.101,-5.703 -7.101,-10.695 v -2.098 z m -14.093,-8.203 v -4.297 c 0,-6.289 1.699,-12.492 6.796,-12.492 4.602,0 6.504,3.496 7.297,10.098 h 12.403 c -0.508,-12.5 -6.504,-19.493 -19.492,-19.493 -19.993,0 -20.793,15.391 -20.793,28.782 0,14.394 2.804,27.793 21.386,27.793 16.094,0 19.688,-10.801 19.688,-27.285 v -3.106 h -27.285"
         style="fill:#ffffff;fill-opacity:1;fill-rule:nonzero;stroke:none"
         transform="matrix(0.13333333,0,0,-0.13333333,0,154.96)" />
      <path
         id="path54"
         d="m 426.641,502.59 v -1.797 c 0,-4.695 2.5,-7.793 7.195,-7.793 4.199,0 7.004,2.102 7.004,6.398 0,3.497 -2.305,5.098 -5,6.094 l -9.699,3.496 c -7.598,2.703 -11.493,7.403 -11.493,15 0,8.895 5.594,16.192 19.793,16.192 12.493,0 18.391,-5.606 18.391,-15.293 v -2.199 h -12.394 c 0,5.39 -1.602,8.097 -6.102,8.097 -3.496,0 -6.496,-2.004 -6.496,-5.801 0,-2.597 1.406,-4.796 5.996,-6.3 l 8.301,-2.793 c 8.691,-2.899 11.894,-7.293 11.894,-15.391 0,-11.297 -8.398,-16.895 -19.988,-16.895 -15.5,0 -19.797,6.797 -19.797,17.09 v 1.895 h 12.395"
         style="fill:#ffffff;fill-opacity:1;fill-rule:nonzero;stroke:none"
         transform="matrix(0.13333333,0,0,-0.13333333,0,154.96)" />
      <path
         id="path55"
         d="M 103.426,696.789 V 912.895 H 581.395 V 696.789 H 103.426"
         style="fill:#ffffff;fill-opacity:1;fill-rule:nonzero;stroke:none"
         transform="matrix(0.13333333,0,0,-0.13333333,0,154.96)" />
      <path
         id="path56"
         d="M 583.895,915.391 H 100.926 V 694.289 h 482.969 v 221.102 z m -5,-5 V 699.293 H 105.93 v 211.098 h 472.965"
         style="fill:#231f20;fill-opacity:1;fill-rule:nonzero;stroke:none"
         transform="matrix(0.13333333,0,0,-0.13333333,0,154.96)" />
      <path
         id="path57"
         d="m 180.941,1004.9 c -18.543,-31.584 -59.207,-42.17 -90.7574,-23.627 -31.582,18.54 -42.1797,59.247 -23.6367,90.827 18.5429,31.55 58.8981,42.06 90.8321,23.6 31.926,-18.42 42.141,-59.24 23.562,-90.8 z m -12.675,109.93 c -42.118,24.74 -95.8051,10.74 -120.5824,-31.38 -21.668,-37.39 -13.3867,-84.122 18.0781,-111.212 L 30.332,912.703 c -3.5234,-6.012 -1.3242,-13.75 4.836,-17.012 l 8.5,-4.5 c 5.8593,-3.101 13.125,-0.976 16.3906,4.793 l 33.6055,59.844 c 39.3829,-14.176 84.2109,1.344 105.9839,38.422 24.707,42.11 10.766,95.84 -31.382,120.58"
         style="fill:#231f20;fill-opacity:1;fill-rule:nonzero;stroke:none"
         transform="matrix(0.13333333,0,0,-0.13333333,0,154.96)" />
    </g>
  </g>
</svg>
