<?xml version="1.0" encoding="UTF-8" standalone="no"?>
<!-- Created with Inkscape (http://www.inkscape.org/) -->
<svg xmlns:svg="http://www.w3.org/2000/svg" xmlns="http://www.w3.org/2000/svg" version="1.0" width="73" height="90" id="svg2">
  <defs id="defs4"/>
  <g transform="matrix(0.08015111,0,0,0.08015111,-224.26135,28.964519)" id="layer1">
    <g transform="matrix(2.8482808,0,0,2.8482808,-4938.1708,-1161.0172)" id="g15654">
      <path d="M 2904.651,289.50663 C 2828.4729,289.50663 2801.5753,407.93641 2776.5551,503.1004 C 2767.5036,493.93712 2739.6673,466.16792 2739.6226,466.21262 C 2734.0241,460.65878 2727.5986,462.43556 2723.6427,466.31319 C 2719.6981,470.2914 2719.1058,477.63319 2723.6427,482.06956 C 2723.8662,482.27071 2761.3686,519.6837 2774.3648,532.64638 C 2777.9519,536.14407 2783.1035,538.18905 2788.255,535.13835 C 2793.6412,531.86415 2794.3788,526.01977 2794.4905,526.01977 C 2838.9548,326.8861 2878.7033,312.05723 2904.5504,312.05723 C 2926.1624,312.05723 2951.149,328.07062 2951.149,360.05269 C 2983.5334,360.05269 3003.7932,402.56136 2977.7449,428.73258 C 2999.3345,439.18095 3008.9447,452.03189 3008.9447,468.2576 C 3008.9447,484.528 2995.3116,501.13365 2975.4653,501.08895 C 2955.7642,501.08895 2945.7293,488.42798 2930.3641,488.39446 C 2923.4245,488.39446 2919.1334,494.00417 2919.1334,499.53566 L 2919.1334,539.76469 L 2890.1574,539.76469 L 2890.1574,499.70328 C 2890.1239,493.42308 2885.4528,488.48385 2879.7537,488.48385 C 2879.6308,488.48385 2877.2282,488.5509 2877.3064,488.61795 L 2838.4407,493.44543 C 2833.7585,494.08239 2829.4451,499.18924 2829.4451,504.45254 C 2829.4451,510.65452 2834.5072,515.73902 2841.3797,515.64962 C 2842.2401,515.64962 2843.3911,515.64962 2843.3017,515.56022 C 2843.2235,515.56022 2867.8973,512.4313 2867.8973,512.4313 C 2867.8973,512.4313 2867.8973,551.95632 2867.8973,552.11276 C 2867.8973,557.16374 2873.5853,562.03592 2878.7033,562.0471 L 2930.297,562.0471 C 2936.309,562.0471 2941.5276,556.89555 2941.5276,550.77179 L 2941.5276,514.53215 C 2952.3,521.13641 2967.2965,523.69543 2975.0294,523.69543 C 3003.9608,523.69543 3031.5959,500.94368 3031.4618,467.57594 C 3031.3389,437.29242 3008.2296,422.21771 3008.2296,422.21771 C 3021.7957,386.02276 2999.8597,351.05704 2971.3641,341.3462 C 2961.0722,304.00025 2929.1795,289.50663 2904.651,289.50663" id="path13902" style="fill:#5a772a;fill-opacity:1;fill-rule:nonzero;stroke:none"/>
      <path d="M 2872.0879,606.37724 C 2872.0879,615.71931 2882.5363,621.35138 2899.7454,629.50893 C 2913.3562,635.92322 2921.2008,642.67276 2921.2008,648.0925 C 2921.2008,656.86467 2911.7023,659.99359 2902.9302,659.99359 C 2889.2188,659.99359 2881.0947,654.52915 2876.636,642.29282 L 2876.2672,641.22005 L 2875.1386,641.22005 C 2872.7025,641.22005 2870.7916,641.33179 2869.7412,642.68393 C 2868.8025,643.89081 2869.0595,645.54467 2869.4842,647.13148 C 2869.4395,647.09795 2872.479,659.70305 2872.479,659.70305 C 2873.2724,662.7761 2874.3899,663.26779 2879.2956,664.21764 C 2881.4076,664.60875 2892.5041,666.53081 2901.8462,666.53081 C 2928.0509,666.53081 2939.7062,655.89246 2939.7062,645.35469 C 2939.7062,637.70001 2932.0962,630.31351 2915.7587,622.17831 L 2908.2493,618.58004 C 2897.0858,613.22735 2890.2692,610.0202 2890.2692,604.39931 C 2890.2692,598.96839 2897.3093,595.12429 2907.4,595.12429 C 2920.4745,595.12429 2923.9163,602.45491 2925.559,608.82451 L 2925.8607,610.03138 L 2927.0676,610.03138 C 2930.0065,610.03138 2931.8168,609.79671 2932.9343,608.61219 C 2933.5824,607.95288 2933.7948,607.04772 2933.683,605.9526 L 2932.6102,595.03489 C 2932.3197,591.5819 2929.6266,591.05669 2925.9836,590.31915 C 2921.5584,589.51457 2916.284,588.58707 2908.3834,588.58707 C 2885.6317,588.58707 2872.0879,595.23604 2872.0879,606.37724" id="path13910" style="fill:#5a772a;fill-opacity:1;fill-rule:nonzero;stroke:none"/>
      <path d="M 2947.4503,628.41381 C 2947.4503,647.3438 2963.8883,666.53081 2995.3117,666.53081 C 3011.1798,666.53081 3020.1196,662.92137 3026.735,659.35663 L 3028.5788,658.38443 L 3025.6287,655.16611 L 3025.7963,655.33373 C 3025.137,654.32801 3024.5224,654.16039 3023.4832,654.16039 L 3021.941,654.69677 C 3019.572,655.81425 3012.2861,659.17784 2999.0887,659.17784 C 2982.8183,659.17784 2965.3187,648.56185 2965.3187,625.21784 C 2965.3187,603.00248 2984.2822,595.12429 3000.5079,595.12429 C 3012.1632,595.12429 3018.3875,599.29247 3019.505,607.91936 L 3019.6726,609.3162 L 3021.1365,609.3162 C 3022.4998,609.3162 3026.2098,609.3162 3026.2098,606.56721 L 3026.2098,593.59335 C 3026.2098,590.41973 3022.5668,589.95039 3021.0135,589.74925 L 3019.4714,589.53693 C 3015.7279,589.02289 3012.1408,588.58708 3002.687,588.58708 C 2970.6937,588.58708 2947.4503,605.32682 2947.4503,628.41381" id="path13914" style="fill:#5a772a;fill-opacity:1;fill-rule:nonzero;stroke:none"/>
      <path d="M 2828.9087,589.49223 L 2800.5919,589.74925 L 2781.7066,589.40283 L 2778.8347,589.32461 C 2777.1585,589.32461 2775.9405,590.565 2775.9405,592.30826 C 2775.9405,593.11284 2775.9405,595.64951 2779.0806,595.64951 C 2790.4788,595.64951 2790.8923,596.58818 2791.004,600.94633 L 2791.0711,603.70649 L 2791.2722,615.36173 L 2791.2722,640.49369 C 2791.2722,644.66187 2791.1381,651.28848 2790.8699,656.63 C 2790.7917,658.14976 2790.7023,659.61365 2780.6227,659.61365 C 2777.8178,659.61365 2776.0969,660.16122 2776.0969,662.96607 C 2776.0969,663.77065 2776.0969,665.92738 2778.8347,665.92738 L 2779.4717,665.9162 C 2780.6786,665.84915 2783.8857,665.71506 2799.6309,665.71506 C 2816.4265,665.71506 2819.8125,665.8715 2820.9188,665.9162 L 2821.5557,665.92738 C 2823.7348,665.92738 2825.6457,665.70388 2825.6457,662.96607 C 2825.6457,659.83715 2823.0755,659.61365 2818.8179,659.61365 C 2808.6824,659.61365 2808.6266,658.14976 2808.5595,656.64118 C 2808.3248,651.73547 2808.1349,645.10886 2808.1349,640.49369 C 2808.1349,640.49369 2808.1349,633.78886 2808.1349,631.45334 C 2810.4145,631.45334 2816.5941,631.45334 2816.5941,631.45334 C 2829.5792,631.45334 2831.0542,631.79975 2832.9093,641.82349 C 2833.4345,643.99138 2835.1665,644.25958 2836.6193,644.25958 C 2839.6923,644.25958 2840.0052,642.59454 2840.0052,641.83466 L 2839.7705,638.12465 C 2839.5694,635.9791 2839.3235,633.28599 2839.3235,629.63186 L 2839.3235,614.24425 C 2839.3235,611.91991 2836.5634,611.91991 2835.0772,611.91991 C 2832.6075,611.91991 2832.0488,613.49555 2830.4843,620.7703 C 2829.7915,623.54163 2824.4388,625.12844 2815.7896,625.12844 C 2815.7896,625.12844 2810.3586,625.12844 2808.1349,625.12844 C 2808.1349,622.31241 2808.1349,602.54431 2808.1349,602.54431 C 2808.1349,596.37586 2809.2077,596.33116 2810.571,596.28647 C 2815.5214,596.06297 2827.5789,595.64951 2831.1995,595.64951 C 2834.6302,595.64951 2837.8038,596.40939 2839.8599,597.7727 C 2846.2519,601.77326 2849.5596,604.47754 2851.5375,606.09788 C 2853.4931,607.68469 2854.5882,608.60102 2856.2086,608.60102 C 2857.1025,608.60102 2859.8739,608.60102 2859.8739,606.23197 C 2859.8739,605.65089 2859.6392,605.1145 2858.7229,603.19245 C 2857.6836,600.8681 2855.9068,597.05752 2853.6831,591.19079 C 2853.0573,589.32461 2850.9229,589.32461 2846.9559,589.32461 L 2828.9087,589.49223" id="path13918" style="fill:#5a772a;fill-opacity:1;fill-rule:nonzero;stroke:none"/>
    </g>
  </g>
</svg>
