<svg xmlns="http://www.w3.org/2000/svg" width="90" height="90" viewBox="0, 0, 90, 90"><path d="M45 2.196c23.575 0 42.804 19.23 42.804 42.804 0 23.575-19.23 42.804-42.804 42.804-23.575 0-42.804-19.23-42.804-42.804C2.196 21.425 21.426 2.196 45 2.196" fill="#FFF"/><path d="M45 2.196c23.575 0 42.804 19.23 42.804 42.804 0 23.575-19.23 42.804-42.804 42.804-23.575 0-42.804-19.23-42.804-42.804C2.196 21.425 21.426 2.196 45 2.196" stroke="#000" stroke-width="4.4" fill="none"/><path d="M58.205 62.438c1.02 0 1.846.057 2.464.172.62.114 1.138.355 1.55.718.292.252.52.607.69 1.068.166.463.25.9.25 1.322v3.932c0 .418.027.747.08.984.053.238.167.54.348.91h-3.203c-.128-.23-.21-.403-.25-.523-.04-.12-.08-.308-.12-.566-.445.432-.892.738-1.332.92-.604.248-1.305.37-2.104.37-1.062 0-1.87-.246-2.422-.738-.55-.49-.824-1.096-.824-1.817 0-.68.198-1.234.595-1.67.397-.437 1.127-.76 2.194-.972 1.282-.258 2.112-.438 2.493-.54.378-.104.78-.242 1.205-.408 0-.42-.086-.712-.258-.88-.174-.167-.478-.253-.916-.253-.558 0-.975.092-1.256.27-.217.14-.395.403-.53.786l-3.26-.343c.124-.57.302-1.02.533-1.345.232-.327.564-.61 1.002-.85.312-.175.744-.31 1.29-.404.547-.093 1.14-.142 1.778-.142zm1.617 4.88c-.47.168-.96.317-1.465.446-.693.183-1.134.366-1.317.544-.192.186-.286.395-.286.63 0 .268.094.486.28.657.19.17.464.255.827.255.382 0 .734-.09 1.063-.275.326-.186.558-.412.696-.675.136-.266.202-.612.202-1.036v-.547zm-17.17 0v.546c0 .424-.067.77-.204 1.036-.137.263-.37.49-.695.675-.33.184-.68.275-1.062.275-.363 0-.637-.086-.826-.255-.186-.17-.28-.39-.28-.658 0-.234.094-.443.286-.63.183-.177.623-.36 1.316-.543.507-.13.996-.278 1.465-.447zm-1.618-4.88c-.638 0-1.23.05-1.777.143-.546.096-.98.23-1.29.405-.438.24-.77.523-1.002.85-.232.326-.41.775-.533 1.345l3.26.343c.135-.383.312-.647.53-.787.28-.177.698-.27 1.256-.27.438 0 .74.087.916.253.17.168.257.46.257.88-.422.166-.826.304-1.204.407-.38.103-1.21.283-2.492.54-1.068.212-1.797.536-2.195.974-.4.436-.596.99-.596 1.67 0 .72.274 1.327.824 1.816.552.492 1.36.74 2.42.74.8 0 1.5-.124 2.104-.37.44-.184.887-.49 1.334-.922.04.258.077.446.117.567.04.12.123.295.252.524h3.202c-.18-.37-.294-.672-.35-.91-.05-.237-.08-.566-.08-.984v-3.932c0-.42-.082-.86-.248-1.322-.17-.46-.4-.816-.69-1.068-.413-.363-.93-.604-1.552-.718-.618-.115-1.442-.172-2.464-.172zM26.32 59.253H22.52v12.29h3.797v-4.97h4.152v4.97h3.814v-12.29h-3.814v4.3H26.32v-4.3zm25.254 0h-3.422v12.29h3.422v-12.29zm17.17 0h-3.422v12.29h3.423v-12.29zm-21.42-37.438l-.185 1.018c-.186 1.018-3.89 3.98-3.704 4.814.185.833 1.204 1.944 2.037 6.295.833 4.35 1.11 10.275 1.11 10.275s.37.648-1.018 1.944c-1.388 1.297-4.258 2.778-7.96 2.964-3.704.185-5.277-1.667-6.296-1.852-1.02-.185-2.408.926-1.945 1.852.463.925 2.5 1.666 4.26 2.5 1.757.832 7.034.37 9.626-1.205 2.593-1.574 4.63-4.35 5.278-4.537.648-.185 1.85 1.204 3.98 2.407 2.13 1.204 7.313.648 11.387-.185 4.073-.833 8.61-4.166 12.96-6.387 4.35-2.222 5-3.425 5-3.425s-.372.092-1.297.185c-.926.092-4.166-.37-8.61-2.963-4.443-2.592-7.683-4.443-10.368-4.35-2.684.092-4.443 3.24-3.795 5.646 2.13-1.757 3.98-1.48 5.647-1.387 1.666.092 2.777 1.296 5.462 2.962 2.684 1.667 3.425 2.037 3.425 2.037s-4.445 1.48-5.926 2.314c-1.48.833-5.37 2.592-11.11 2.87-5.738.277-5.553-1.39-6.108-2.315-.556-.924 0-6.85-.185-10.922-.185-4.073-1.666-10.553-1.666-10.553zm-16.848-.093s-2.87 1.944-3.333 4.536c-.462 2.592.74 5.74 1.02 7.684.277 1.944.462 7.035.09 8.424-.37 1.388-2.128 4.906-7.404 5.74-5.278.832-6.296-2.408-6.852-5.555-.555-3.147 3.333-6.942 3.333-6.942s-2.59.74-3.98 1.944c-1.388 1.203-3.61 5.184-1.944 9.257 1.666 4.072 7.128 5.09 10.646 4.165 3.518-.926 6.48-3.055 8.61-10.183 2.128-7.128-.186-19.07-.186-19.07zm4.77 5.396c-.525.1-.664.25-.697.806 0 1.02-.093 2.315-.65 3.703-.554 1.39-.276 1.667-.276 1.667s-.278-.926 2.59 2.036c2.87 2.963 3.334 3.518 4.908 5.74 1.574 2.22 2.407 3.518 2.407 3.517 0 0 1.48-.462 1.48-1.388 0-.927-2.592-6.574-5.925-10.092-3.332-3.517-3.518-4.906-3.518-5.554-.067-.328.013-.167-.322-.436z"/></svg>