<?xml version="1.0" encoding="UTF-8" standalone="no"?>
<!-- Created with Inkscape (http://www.inkscape.org/) -->

<svg
   version="1.1"
   id="svg1"
   width="237.73334"
   height="124.72"
   viewBox="0 0 237.73334 124.72"
   sodipodi:docname="1.4(BH).eps"
   xmlns:inkscape="http://www.inkscape.org/namespaces/inkscape"
   xmlns:sodipodi="http://sodipodi.sourceforge.net/DTD/sodipodi-0.dtd"
   xmlns="http://www.w3.org/2000/svg"
   xmlns:svg="http://www.w3.org/2000/svg">
  <defs
     id="defs1" />
  <sodipodi:namedview
     id="namedview1"
     pagecolor="#ffffff"
     bordercolor="#000000"
     borderopacity="0.25"
     inkscape:showpageshadow="2"
     inkscape:pageopacity="0.0"
     inkscape:pagecheckerboard="0"
     inkscape:deskcolor="#d1d1d1">
    <inkscape:page
       x="0"
       y="0"
       inkscape:label="1"
       id="page1"
       width="237.73334"
       height="124.72"
       margin="0"
       bleed="0" />
  </sodipodi:namedview>
  <g
     id="g1"
     inkscape:groupmode="layer"
     inkscape:label="1">
    <g
       id="group-R5">
      <path
         id="path2"
         d="M 2.49609,2.49609 V 932.938 H 1780.5 V 2.49609 H 2.49609"
         style="fill:#ffffff;fill-opacity:1;fill-rule:nonzero;stroke:none"
         transform="matrix(0.13333333,0,0,-0.13333333,0,124.72)" />
      <path
         id="path3"
         d="M 1782.99,935.434 H 0 V 0 h 1782.99 v 935.434 z m -5,-5 V 5 H 5 v 925.434 h 1772.99"
         style="fill:#231f20;fill-opacity:1;fill-rule:nonzero;stroke:none"
         transform="matrix(0.13333333,0,0,-0.13333333,0,124.72)" />
      <path
         id="path4"
         d="M 1739.73,740.977 V 565.23 H 609.527 C 578.43,645.051 515.73,708.867 436.828,740.977 H 1739.73"
         style="fill:#231f20;fill-opacity:1;fill-rule:nonzero;stroke:none"
         transform="matrix(0.13333333,0,0,-0.13333333,0,124.72)" />
      <path
         id="path5"
         d="m 622.309,368.727 c 7.25,26.933 10.921,54.785 10.921,82.824 0,30.086 -4.183,59.648 -12.445,87.929 H 1737.22 V 368.727 H 622.309"
         style="fill:#ffffff;fill-opacity:1;fill-rule:nonzero;stroke:none"
         transform="matrix(0.13333333,0,0,-0.13333333,0,124.72)" />
      <path
         id="path6"
         d="M 1739.73,541.977 H 617.43 c 8.699,-28.606 13.3,-59.016 13.3,-90.422 0,-29.61 -4.101,-58.219 -11.703,-85.325 H 1739.73 v 175.747 z m -5,-4.997 V 371.227 H 625.551 c 6.754,26.16 10.176,53.148 10.176,80.328 0,29.187 -3.911,57.89 -11.629,85.425 H 1734.73"
         style="fill:#231f20;fill-opacity:1;fill-rule:nonzero;stroke:none"
         transform="matrix(0.13333333,0,0,-0.13333333,0,124.72)" />
      <path
         id="path7"
         d="M 1739.73,342.977 V 167.23 H 448.93 c 74.8,34.309 133.699,97.625 162.5,175.747 h 1128.3"
         style="fill:#231f20;fill-opacity:1;fill-rule:nonzero;stroke:none"
         transform="matrix(0.13333333,0,0,-0.13333333,0,124.72)" />
      <path
         id="path8"
         d="m 671.652,884.723 h 20.176 V 846.48 h 23.527 v 38.243 h 20.176 V 784.707 h -20.176 v 44.406 h -23.527 v -44.406 h -20.176 v 100.016"
         style="fill:#231f20;fill-opacity:1;fill-rule:nonzero;stroke:none"
         transform="matrix(0.13333333,0,0,-0.13333333,0,124.72)" />
      <path
         id="path9"
         d="m 753.156,860.07 h 19.328 v -75.363 h -19.328 z m 0,25.77 h 19.328 v -16.527 h -19.328 v 16.527"
         style="fill:#231f20;fill-opacity:1;fill-rule:nonzero;stroke:none"
         transform="matrix(0.13333333,0,0,-0.13333333,0,124.72)" />
      <path
         id="path10"
         d="m 817.016,800.398 c 8.125,0 10.507,8.821 10.507,21.571 0,18.351 -2.382,25.215 -10.089,25.215 -8.543,0 -10.086,-6.864 -10.086,-27.176 0,-10.367 1.543,-19.61 9.668,-19.61 z m 28.992,59.672 v -71.578 c 0,-19.89 -8.817,-29.554 -31.375,-29.554 -16.387,0 -25.637,7.281 -25.637,20.164 h 18.496 c 0,-2.52 1.125,-4.481 2.942,-5.743 1.824,-1.257 4.062,-2.097 6.445,-2.097 7.84,0 10.644,5.883 10.644,13.59 v 9.945 h -0.285 c -3.914,-5.606 -9.941,-9.25 -16.101,-9.25 -15.41,0 -23.117,10.508 -23.117,38.101 0,17.653 2.668,38.383 23.671,38.383 5.325,0 11.907,-2.523 15.547,-10.363 h 0.285 v 8.402 h 18.485"
         style="fill:#231f20;fill-opacity:1;fill-rule:nonzero;stroke:none"
         transform="matrix(0.13333333,0,0,-0.13333333,0,124.72)" />
      <path
         id="path11"
         d="m 863.078,884.723 h 19.328 v -32.356 h 0.282 c 3.644,6.442 10.226,9.664 18.351,9.664 12.047,0 19.184,-6.586 19.184,-21.433 v -55.891 h -19.321 v 51.969 c 0,7.566 -2.531,10.508 -8.273,10.508 -6.582,0 -10.223,-4.063 -10.223,-12.469 v -50.008 h -19.328 v 100.016"
         style="fill:#231f20;fill-opacity:1;fill-rule:nonzero;stroke:none"
         transform="matrix(0.13333333,0,0,-0.13333333,0,124.72)" />
      <path
         id="path12"
         d="m 974.402,860.07 h 19.328 v -75.363 h -19.328 z m 0,25.77 h 19.328 v -16.527 h -19.328 v 16.527"
         style="fill:#231f20;fill-opacity:1;fill-rule:nonzero;stroke:none"
         transform="matrix(0.13333333,0,0,-0.13333333,0,124.72)" />
      <path
         id="path13"
         d="m 1010.81,860.07 h 18.48 v -8.824 h 0.29 c 4.06,7.422 11.06,10.785 19.19,10.785 12.05,0 19.19,-6.586 19.19,-21.433 v -55.891 h -19.33 v 51.969 c 0,7.566 -2.53,10.508 -8.27,10.508 -6.58,0 -10.23,-4.063 -10.23,-12.469 v -50.008 h -19.32 v 75.363"
         style="fill:#231f20;fill-opacity:1;fill-rule:nonzero;stroke:none"
         transform="matrix(0.13333333,0,0,-0.13333333,0,124.72)" />
      <path
         id="path14"
         d="m 1146.23,886.68 h 15.68 l -31.66,-103.934 h -15.68 l 31.66,103.934"
         style="fill:#231f20;fill-opacity:1;fill-rule:nonzero;stroke:none"
         transform="matrix(0.13333333,0,0,-0.13333333,0,124.72)" />
      <path
         id="path15"
         d="m 1235.98,910.777 h 19.34 l -13.73,-20.168 h -13.16 z m 29,-26.054 v -16.528 h -35.71 V 844.66 h 33.61 v -16.527 h -33.61 v -26.895 h 37.11 v -16.531 h -57.29 v 100.016 h 55.89"
         style="fill:#231f20;fill-opacity:1;fill-rule:nonzero;stroke:none"
         transform="matrix(0.13333333,0,0,-0.13333333,0,124.72)" />
      <path
         id="path16"
         d="m 1280.09,884.723 h 19.32 V 784.707 h -19.32 v 100.016"
         style="fill:#231f20;fill-opacity:1;fill-rule:nonzero;stroke:none"
         transform="matrix(0.13333333,0,0,-0.13333333,0,124.72)" />
      <path
         id="path17"
         d="m 1352.77,830.934 c -0.42,11.484 -1.83,17.929 -9.8,17.929 -7.71,0 -9.95,-7.984 -9.95,-14.988 v -2.941 z m -19.75,-11.489 v -6.019 c 0,-8.824 2.38,-17.512 9.53,-17.512 6.44,0 9.1,4.902 10.22,14.145 h 17.36 c -0.69,-17.508 -9.1,-27.313 -27.31,-27.313 -28.01,0 -29.13,21.57 -29.13,40.34 0,20.172 3.92,38.945 29.97,38.945 22.56,0 27.6,-15.129 27.6,-38.242 v -4.344 h -38.24"
         style="fill:#231f20;fill-opacity:1;fill-rule:nonzero;stroke:none"
         transform="matrix(0.13333333,0,0,-0.13333333,0,124.72)" />
      <path
         id="path18"
         d="m 1420.53,860.07 h 19.34 l -18.91,-75.363 h -22.42 l -19.46,75.363 h 20.17 l 10.79,-53.929 h 0.27 l 10.22,53.929"
         style="fill:#231f20;fill-opacity:1;fill-rule:nonzero;stroke:none"
         transform="matrix(0.13333333,0,0,-0.13333333,0,124.72)" />
      <path
         id="path19"
         d="m 1475.02,889.066 h 19.32 l -13.72,-20.171 h -13.17 z m 11.76,-58.132 c -0.42,11.484 -1.82,17.929 -9.8,17.929 -7.7,0 -9.95,-7.984 -9.95,-14.988 v -2.941 z m -19.75,-11.489 v -6.019 c 0,-8.824 2.38,-17.512 9.53,-17.512 6.45,0 9.1,4.902 10.22,14.145 h 17.37 c -0.7,-17.508 -9.1,-27.313 -27.32,-27.313 -28,0 -29.13,21.57 -29.13,40.34 0,20.172 3.93,38.945 29.98,38.945 22.55,0 27.59,-15.129 27.59,-38.242 v -4.344 h -38.24"
         style="fill:#231f20;fill-opacity:1;fill-rule:nonzero;stroke:none"
         transform="matrix(0.13333333,0,0,-0.13333333,0,124.72)" />
      <path
         id="path20"
         d="m 1592.22,830.934 c -0.42,11.484 -1.82,17.929 -9.8,17.929 -7.71,0 -9.95,-7.984 -9.95,-14.988 v -2.941 z m -19.75,-11.489 v -6.019 c 0,-8.824 2.38,-17.512 9.53,-17.512 6.44,0 9.1,4.902 10.22,14.145 h 17.37 c -0.7,-17.508 -9.1,-27.313 -27.32,-27.313 -28,0 -29.13,21.57 -29.13,40.34 0,20.172 3.93,38.945 29.97,38.945 22.56,0 27.6,-15.129 27.6,-38.242 v -4.344 h -38.24"
         style="fill:#231f20;fill-opacity:1;fill-rule:nonzero;stroke:none"
         transform="matrix(0.13333333,0,0,-0.13333333,0,124.72)" />
      <path
         id="path21"
         d="m 1624.28,860.07 h 18.48 v -8.824 h 0.28 c 4.07,7.422 11.07,10.785 19.19,10.785 12.05,0 19.19,-6.586 19.19,-21.433 v -55.891 h -19.32 v 51.969 c 0,7.566 -2.53,10.508 -8.27,10.508 -6.59,0 -10.23,-4.063 -10.23,-12.469 v -50.008 h -19.32 v 75.363"
         style="fill:#231f20;fill-opacity:1;fill-rule:nonzero;stroke:none"
         transform="matrix(0.13333333,0,0,-0.13333333,0,124.72)" />
      <path
         id="path22"
         d="M 306.191,45.75 H 295.633 V 87.0078 H 266.246 V 45.75 h -10.555 v 85.633 h 10.555 V 96.3633 h 29.387 v 35.0197 h 10.558 V 45.75"
         style="fill:#231f20;fill-opacity:1;fill-rule:nonzero;stroke:none"
         transform="matrix(0.13333333,0,0,-0.13333333,0,124.72)" />
      <path
         id="path23"
         d="m 351.445,84.6055 v 3.4883 c 0,7.1875 -2.289,15.7032 -11.156,15.7032 -10.555,0 -11.758,-12.9493 -11.758,-16.7892 v -2.4023 z m -23.273,-7.9102 c 0,-9.832 0,-24.707 12.355,-24.707 9.598,0 10.918,10.0781 10.918,14.875 h 10.067 c 0,-6.836 -4.071,-22.793 -21.582,-22.793 -15.711,0 -22.317,10.918 -22.317,32.9883 0,16.0625 3.125,34.6564 22.914,34.6564 19.668,0 21.461,-17.1486 21.461,-30.9455 v -4.0742 h -33.816"
         style="fill:#231f20;fill-opacity:1;fill-rule:nonzero;stroke:none"
         transform="matrix(0.13333333,0,0,-0.13333333,0,124.72)" />
      <path
         id="path24"
         d="m 402.566,80.7695 c -3.718,-3.957 -12.597,-4.7968 -17.16,-7.5507 -3.23,-2.0391 -4.91,-4.5625 -4.91,-10.1954 0,-6.4726 2.277,-11.0351 9.113,-11.0351 6.602,0 12.957,5.6367 12.957,12.2383 z m -31.062,9.8321 c 0,14.6364 6.23,21.1134 21.582,21.1134 19.551,0 19.551,-11.758 19.551,-18.465 V 57.3906 c 0,-2.6484 0,-5.1679 3.125,-5.1679 1.316,0 1.914,0.2461 2.39,0.6054 v -7.1953 c -0.711,-0.1172 -3.359,-0.5976 -5.879,-0.5976 -3.835,0 -8.632,0 -9.113,8.2734 h -0.23 c -3.242,-5.7617 -9.485,-9.2383 -15.481,-9.2383 -11.992,0 -17.508,7.1953 -17.508,18.711 0,8.9921 3.836,15.2343 12.118,17.75 l 13.546,4.0742 c 7.325,2.2851 7.325,4.3281 7.325,9.7187 0,5.9958 -3.606,9.4728 -10.325,9.4728 -11.035,0 -11.035,-10.3126 -11.035,-12.59 v -0.6054 h -10.066"
         style="fill:#231f20;fill-opacity:1;fill-rule:nonzero;stroke:none"
         transform="matrix(0.13333333,0,0,-0.13333333,0,124.72)" />
      <path
         id="path25"
         d="m 426.941,131.383 h 10.071 V 45.75 h -10.071 v 85.633"
         style="fill:#231f20;fill-opacity:1;fill-rule:nonzero;stroke:none"
         transform="matrix(0.13333333,0,0,-0.13333333,0,124.72)" />
      <path
         id="path26"
         d="m 453.824,128.746 h 10.071 v -18.711 h 11.152 v -7.922 H 463.895 V 60.8633 c 0,-5.1524 1.32,-7.1953 6.601,-7.1953 2.156,0 3.352,0.2343 4.434,0.3633 V 45.75 c -1.321,-0.2344 -3.953,-0.7148 -8.153,-0.7148 -10.441,0 -12.953,4.3164 -12.953,12.7031 v 44.3747 h -9.351 v 7.922 h 9.351 v 18.711"
         style="fill:#231f20;fill-opacity:1;fill-rule:nonzero;stroke:none"
         transform="matrix(0.13333333,0,0,-0.13333333,0,124.72)" />
      <path
         id="path27"
         d="m 481.895,131.383 h 10.078 v -28.66 h 0.242 c 2.637,5.269 9.707,8.992 15.469,8.992 16.55,0 16.55,-12.8322 16.55,-20.3908 V 45.75 h -10.078 v 44.375 c 0,4.9219 -0.359,12.957 -9.468,12.957 -5.403,0 -12.715,-3.6015 -12.715,-12.957 V 45.75 h -10.078 v 85.633"
         style="fill:#231f20;fill-opacity:1;fill-rule:nonzero;stroke:none"
         transform="matrix(0.13333333,0,0,-0.13333333,0,124.72)" />
      <path
         id="path28"
         d="m 619.023,75.1328 c -0.957,-16.1914 -7.316,-31.0625 -26.027,-31.0625 -24.344,0 -27.59,22.9102 -27.59,44.5 0,21.5817 3.969,44.4927 27.59,44.4927 17.512,0 24.824,-9.833 25.313,-26.622 h -11.036 c -0.246,9.707 -3.359,17.989 -14.277,17.989 -14.629,0 -16.551,-16.075 -16.551,-35.8597 0,-19.793 1.922,-35.8594 16.551,-35.8594 12.832,0 14.641,11.9922 14.988,22.4219 h 11.039"
         style="fill:#231f20;fill-opacity:1;fill-rule:nonzero;stroke:none"
         transform="matrix(0.13333333,0,0,-0.13333333,0,124.72)" />
      <path
         id="path29"
         d="m 658.035,80.7695 c -3.719,-3.957 -12.597,-4.7968 -17.156,-7.5507 -3.234,-2.0391 -4.914,-4.5625 -4.914,-10.1954 0,-6.4726 2.273,-11.0351 9.109,-11.0351 6.606,0 12.961,5.6367 12.961,12.2383 z m -31.062,9.8321 c 0,14.6364 6.226,21.1134 21.582,21.1134 19.55,0 19.55,-11.758 19.55,-18.465 V 57.3906 c 0,-2.6484 0,-5.1679 3.125,-5.1679 1.317,0 1.915,0.2461 2.391,0.6054 v -7.1953 c -0.715,-0.1172 -3.359,-0.5976 -5.879,-0.5976 -3.84,0 -8.633,0 -9.109,8.2734 h -0.235 c -3.246,-5.7617 -9.484,-9.2383 -15.48,-9.2383 -11.992,0 -17.512,7.1953 -17.512,18.711 0,8.9921 3.84,15.2343 12.121,17.75 l 13.543,4.0742 c 7.328,2.2851 7.328,4.3281 7.328,9.7187 0,5.9958 -3.605,9.4728 -10.324,9.4728 -11.035,0 -11.035,-10.3126 -11.035,-12.59 v -0.6054 h -10.066"
         style="fill:#231f20;fill-opacity:1;fill-rule:nonzero;stroke:none"
         transform="matrix(0.13333333,0,0,-0.13333333,0,124.72)" />
      <path
         id="path30"
         d="m 681.805,110.035 h 9.597 v -7.558 h 0.246 c 2.637,5.878 9.344,9.238 15.586,9.238 16.914,0 16.914,-12.8322 16.914,-20.3908 V 45.75 H 714.07 v 44.375 c 0,4.9219 -0.359,12.957 -9.472,12.957 -5.403,0 -12.715,-3.6015 -12.715,-12.957 V 45.75 h -10.078 v 64.285"
         style="fill:#231f20;fill-opacity:1;fill-rule:nonzero;stroke:none"
         transform="matrix(0.13333333,0,0,-0.13333333,0,124.72)" />
      <path
         id="path31"
         d="m 766.875,80.7695 c -3.723,-3.957 -12.598,-4.7968 -17.16,-7.5507 -3.231,-2.0391 -4.91,-4.5625 -4.91,-10.1954 0,-6.4726 2.273,-11.0351 9.109,-11.0351 6.602,0 12.961,5.6367 12.961,12.2383 z m -31.066,9.8321 c 0,14.6364 6.23,21.1134 21.582,21.1134 19.55,0 19.55,-11.758 19.55,-18.465 V 57.3906 c 0,-2.6484 0,-5.1679 3.125,-5.1679 1.321,0 1.914,0.2461 2.395,0.6054 v -7.1953 c -0.715,-0.1172 -3.359,-0.5976 -5.883,-0.5976 -3.836,0 -8.633,0 -9.109,8.2734 h -0.242 c -3.235,-5.7617 -9.473,-9.2383 -15.469,-9.2383 -11.992,0 -17.512,7.1953 -17.512,18.711 0,8.9921 3.84,15.2343 12.117,17.75 l 13.547,4.0742 c 7.317,2.2851 7.317,4.3281 7.317,9.7187 0,5.9958 -3.594,9.4728 -10.317,9.4728 -11.031,0 -11.031,-10.3126 -11.031,-12.59 v -0.6054 h -10.07"
         style="fill:#231f20;fill-opacity:1;fill-rule:nonzero;stroke:none"
         transform="matrix(0.13333333,0,0,-0.13333333,0,124.72)" />
      <path
         id="path32"
         d="m 810.555,52.7109 c 11.152,0 12.961,10.5469 12.961,25.1875 0,12.4688 -2.168,25.1836 -12.961,25.1836 -9.356,0 -11.746,-9.832 -11.746,-25.1836 0,-15.3515 2.39,-25.1875 11.746,-25.1875 z M 832.984,45.75 h -9.597 v 7.918 h -0.235 c -1.316,-4.793 -6.961,-9.5977 -13.918,-9.5977 -15.23,0 -20.984,13.5547 -20.984,33.8281 0,13.4258 2.156,33.8166 20.266,33.8166 5.761,0 11.875,-3.477 14.16,-8.992 h 0.23 v 28.66 h 10.078 V 45.75"
         style="fill:#231f20;fill-opacity:1;fill-rule:nonzero;stroke:none"
         transform="matrix(0.13333333,0,0,-0.13333333,0,124.72)" />
      <path
         id="path33"
         d="m 875.711,80.7695 c -3.723,-3.957 -12.598,-4.7968 -17.156,-7.5507 -3.235,-2.0391 -4.914,-4.5625 -4.914,-10.1954 0,-6.4726 2.277,-11.0351 9.113,-11.0351 6.601,0 12.957,5.6367 12.957,12.2383 z m -31.063,9.8321 c 0,14.6364 6.231,21.1134 21.582,21.1134 19.547,0 19.547,-11.758 19.547,-18.465 V 57.3906 c 0,-2.6484 0,-5.1679 3.125,-5.1679 1.321,0 1.918,0.2461 2.395,0.6054 v -7.1953 c -0.711,-0.1172 -3.359,-0.5976 -5.879,-0.5976 -3.84,0 -8.633,0 -9.109,8.2734 h -0.239 c -3.242,-5.7617 -9.48,-9.2383 -15.476,-9.2383 -11.992,0 -17.508,7.1953 -17.508,18.711 0,8.9921 3.836,15.2343 12.117,17.75 l 13.547,4.0742 c 7.32,2.2851 7.32,4.3281 7.32,9.7187 0,5.9958 -3.601,9.4728 -10.32,9.4728 -11.035,0 -11.035,-10.3126 -11.035,-12.59 v -0.6054 h -10.067"
         style="fill:#231f20;fill-opacity:1;fill-rule:nonzero;stroke:none"
         transform="matrix(0.13333333,0,0,-0.13333333,0,124.72)" />
      <path
         id="path34"
         d="m 948.309,133.063 h 7.921 L 928.406,44.0703 h -7.922 l 27.825,88.9927"
         style="fill:#231f20;fill-opacity:1;fill-rule:nonzero;stroke:none"
         transform="matrix(0.13333333,0,0,-0.13333333,0,124.72)" />
      <path
         id="path35"
         d="m 1027.15,109.195 c 0,8.996 -3.25,15.235 -13.32,15.235 -8.87,0 -14.154,-4.793 -14.154,-13.914 0,-24.1058 40.424,-9.719 40.424,-41.016 0,-19.7852 -14.52,-25.4297 -26.64,-25.4297 -20.022,0 -25.894,10.3203 -25.894,28.543 h 10.547 c 0,-9.5899 0.606,-19.9024 16.077,-19.9024 8.4,0 14.87,5.9961 14.87,15.1094 0,24.2266 -40.419,10.1953 -40.419,41.6207 0,7.911 3.359,23.622 25.069,23.622 16.31,0 23.75,-8.157 23.98,-23.868 h -10.54"
         style="fill:#231f20;fill-opacity:1;fill-rule:nonzero;stroke:none"
         transform="matrix(0.13333333,0,0,-0.13333333,0,124.72)" />
      <path
         id="path36"
         d="m 1079.95,80.7695 c -3.72,-3.957 -12.6,-4.7968 -17.16,-7.5507 -3.23,-2.0391 -4.91,-4.5625 -4.91,-10.1954 0,-6.4726 2.27,-11.0351 9.11,-11.0351 6.6,0 12.96,5.6367 12.96,12.2383 z m -31.07,9.8321 c 0,14.6364 6.23,21.1134 21.59,21.1134 19.55,0 19.55,-11.758 19.55,-18.465 V 57.3906 c 0,-2.6484 0,-5.1679 3.12,-5.1679 1.32,0 1.92,0.2461 2.39,0.6054 v -7.1953 c -0.71,-0.1172 -3.35,-0.5976 -5.87,-0.5976 -3.84,0 -8.64,0 -9.12,8.2734 h -0.23 c -3.24,-5.7617 -9.48,-9.2383 -15.48,-9.2383 -11.99,0 -17.51,7.1953 -17.51,18.711 0,8.9921 3.84,15.2343 12.12,17.75 l 13.55,4.0742 c 7.32,2.2851 7.32,4.3281 7.32,9.7187 0,5.9958 -3.6,9.4728 -10.32,9.4728 -11.04,0 -11.04,-10.3126 -11.04,-12.59 v -0.6054 h -10.07"
         style="fill:#231f20;fill-opacity:1;fill-rule:nonzero;stroke:none"
         transform="matrix(0.13333333,0,0,-0.13333333,0,124.72)" />
      <path
         id="path37"
         d="m 1103.72,110.035 h 9.6 v -7.558 h 0.24 c 2.64,5.878 9.35,9.238 15.59,9.238 16.91,0 16.91,-12.8322 16.91,-20.3908 V 45.75 h -10.08 v 44.375 c 0,4.9219 -0.36,12.957 -9.47,12.957 -5.4,0 -12.71,-3.6015 -12.71,-12.957 V 45.75 h -10.08 v 64.285"
         style="fill:#231f20;fill-opacity:1;fill-rule:nonzero;stroke:none"
         transform="matrix(0.13333333,0,0,-0.13333333,0,124.72)" />
      <path
         id="path38"
         d="m 1162.28,128.746 h 10.07 v -18.711 h 11.15 v -7.922 h -11.15 V 60.8633 c 0,-5.1524 1.32,-7.1953 6.6,-7.1953 2.16,0 3.35,0.2343 4.44,0.3633 V 45.75 c -1.32,-0.2344 -3.96,-0.7148 -8.16,-0.7148 -10.44,0 -12.95,4.3164 -12.95,12.7031 v 44.3747 h -9.35 v 7.922 h 9.35 v 18.711"
         style="fill:#231f20;fill-opacity:1;fill-rule:nonzero;stroke:none"
         transform="matrix(0.13333333,0,0,-0.13333333,0,124.72)" />
      <path
         id="path39"
         d="m 1212.78,135.945 h 11.76 l -12.96,-17.035 h -7.2 z m 9.24,-51.3395 v 3.4883 c 0,7.1875 -2.29,15.7032 -11.15,15.7032 -10.56,0 -11.76,-12.9493 -11.76,-16.7892 v -2.4023 z m -23.27,-7.9102 c 0,-9.832 0,-24.707 12.35,-24.707 9.6,0 10.92,10.0781 10.92,14.875 h 10.07 c 0,-6.836 -4.07,-22.793 -21.58,-22.793 -15.72,0 -22.32,10.918 -22.32,32.9883 0,16.0625 3.13,34.6564 22.91,34.6564 19.67,0 21.47,-17.1486 21.47,-30.9455 v -4.0742 h -33.82"
         style="fill:#231f20;fill-opacity:1;fill-rule:nonzero;stroke:none"
         transform="matrix(0.13333333,0,0,-0.13333333,0,124.72)" />
      <path
         id="path40"
         d="m 1325.2,75.1328 c -0.95,-16.1914 -7.31,-31.0625 -26.02,-31.0625 -24.35,0 -27.58,22.9102 -27.58,44.5 0,21.5817 3.95,44.4927 27.58,44.4927 17.51,0 24.82,-9.833 25.31,-26.622 h -11.04 c -0.24,9.707 -3.35,17.989 -14.27,17.989 -14.63,0 -16.56,-16.075 -16.56,-35.8597 0,-19.793 1.93,-35.8594 16.56,-35.8594 12.83,0 14.63,11.9922 14.99,22.4219 h 11.03"
         style="fill:#231f20;fill-opacity:1;fill-rule:nonzero;stroke:none"
         transform="matrix(0.13333333,0,0,-0.13333333,0,124.72)" />
      <path
         id="path41"
         d="m 1364.22,80.7695 c -3.72,-3.957 -12.6,-4.7968 -17.16,-7.5507 -3.23,-2.0391 -4.91,-4.5625 -4.91,-10.1954 0,-6.4726 2.27,-11.0351 9.11,-11.0351 6.6,0 12.96,5.6367 12.96,12.2383 z m -31.07,9.8321 c 0,14.6364 6.23,21.1134 21.58,21.1134 19.55,0 19.55,-11.758 19.55,-18.465 V 57.3906 c 0,-2.6484 0,-5.1679 3.13,-5.1679 1.32,0 1.91,0.2461 2.39,0.6054 v -7.1953 c -0.71,-0.1172 -3.36,-0.5976 -5.88,-0.5976 -3.83,0 -8.63,0 -9.11,8.2734 h -0.24 c -3.23,-5.7617 -9.47,-9.2383 -15.47,-9.2383 -11.99,0 -17.51,7.1953 -17.51,18.711 0,8.9921 3.84,15.2343 12.12,17.75 l 13.54,4.0742 c 7.32,2.2851 7.32,4.3281 7.32,9.7187 0,5.9958 -3.6,9.4728 -10.31,9.4728 -11.04,0 -11.04,-10.3126 -11.04,-12.59 v -0.6054 h -10.07"
         style="fill:#231f20;fill-opacity:1;fill-rule:nonzero;stroke:none"
         transform="matrix(0.13333333,0,0,-0.13333333,0,124.72)" />
      <path
         id="path42"
         d="m 1387.99,110.035 h 9.6 v -7.558 h 0.24 c 2.64,5.878 9.35,9.238 15.59,9.238 16.91,0 16.91,-12.8322 16.91,-20.3908 V 45.75 h -10.08 v 44.375 c 0,4.9219 -0.36,12.957 -9.47,12.957 -5.4,0 -12.72,-3.6015 -12.72,-12.957 V 45.75 h -10.07 v 64.285"
         style="fill:#231f20;fill-opacity:1;fill-rule:nonzero;stroke:none"
         transform="matrix(0.13333333,0,0,-0.13333333,0,124.72)" />
      <path
         id="path43"
         d="m 1473.05,80.7695 c -3.72,-3.957 -12.59,-4.7968 -17.15,-7.5507 -3.24,-2.0391 -4.92,-4.5625 -4.92,-10.1954 0,-6.4726 2.28,-11.0351 9.12,-11.0351 6.6,0 12.95,5.6367 12.95,12.2383 z m -31.06,9.8321 c 0,14.6364 6.23,21.1134 21.58,21.1134 19.55,0 19.55,-11.758 19.55,-18.465 V 57.3906 c 0,-2.6484 0,-5.1679 3.13,-5.1679 1.32,0 1.91,0.2461 2.39,0.6054 v -7.1953 c -0.71,-0.1172 -3.36,-0.5976 -5.88,-0.5976 -3.84,0 -8.63,0 -9.11,8.2734 h -0.23 c -3.25,-5.7617 -9.49,-9.2383 -15.48,-9.2383 -12,0 -17.51,7.1953 -17.51,18.711 0,8.9921 3.84,15.2343 12.12,17.75 l 13.54,4.0742 c 7.33,2.2851 7.33,4.3281 7.33,9.7187 0,5.9958 -3.61,9.4728 -10.33,9.4728 -11.03,0 -11.03,-10.3126 -11.03,-12.59 v -0.6054 h -10.07"
         style="fill:#231f20;fill-opacity:1;fill-rule:nonzero;stroke:none"
         transform="matrix(0.13333333,0,0,-0.13333333,0,124.72)" />
      <path
         id="path44"
         d="m 1516.74,52.7109 c 11.15,0 12.95,10.5469 12.95,25.1875 0,12.4688 -2.16,25.1836 -12.95,25.1836 -9.36,0 -11.75,-9.832 -11.75,-25.1836 0,-15.3515 2.39,-25.1875 11.75,-25.1875 z m 22.43,-6.9609 h -9.6 v 7.918 h -0.24 c -1.31,-4.793 -6.96,-9.5977 -13.91,-9.5977 -15.24,0 -20.99,13.5547 -20.99,33.8281 0,13.4258 2.16,33.8166 20.26,33.8166 5.77,0 11.88,-3.477 14.17,-8.992 h 0.23 v 28.66 h 10.08 V 45.75"
         style="fill:#231f20;fill-opacity:1;fill-rule:nonzero;stroke:none"
         transform="matrix(0.13333333,0,0,-0.13333333,0,124.72)" />
      <path
         id="path45"
         d="m 1581.89,80.7695 c -3.72,-3.957 -12.6,-4.7968 -17.16,-7.5507 -3.23,-2.0391 -4.91,-4.5625 -4.91,-10.1954 0,-6.4726 2.28,-11.0351 9.11,-11.0351 6.6,0 12.96,5.6367 12.96,12.2383 z m -31.06,9.8321 c 0,14.6364 6.23,21.1134 21.58,21.1134 19.55,0 19.55,-11.758 19.55,-18.465 V 57.3906 c 0,-2.6484 0,-5.1679 3.13,-5.1679 1.31,0 1.91,0.2461 2.39,0.6054 v -7.1953 c -0.71,-0.1172 -3.36,-0.5976 -5.88,-0.5976 -3.84,0 -8.63,0 -9.11,8.2734 h -0.25 c -3.23,-5.7617 -9.47,-9.2383 -15.46,-9.2383 -12,0 -17.51,7.1953 -17.51,18.711 0,8.9921 3.83,15.2343 12.11,17.75 l 13.55,4.0742 c 7.31,2.2851 7.31,4.3281 7.31,9.7187 0,5.9958 -3.59,9.4728 -10.31,9.4728 -11.03,0 -11.03,-10.3126 -11.03,-12.59 v -0.6054 h -10.07"
         style="fill:#231f20;fill-opacity:1;fill-rule:nonzero;stroke:none"
         transform="matrix(0.13333333,0,0,-0.13333333,0,124.72)" />
      <path
         id="path46"
         d="m 692.242,636.227 v -2.942 c 0,-9.383 2.668,-15.406 13.313,-15.406 6.164,0 12.043,3.926 12.043,12.328 0,9.102 -4.621,12.465 -17.93,17.09 -17.934,6.16 -26.191,13.582 -26.191,30.254 0,19.472 11.902,29.418 30.957,29.418 17.925,0 30.957,-7.703 30.957,-26.895 v -2.801 h -19.328 c 0,9.383 -3.223,14.848 -10.926,14.848 -9.114,0 -11.496,-5.746 -11.496,-11.629 0,-6.164 1.828,-9.945 10.371,-13.586 l 15.547,-6.722 c 15.129,-6.582 19.05,-14.289 19.05,-26.477 0,-21.152 -12.886,-30.68 -34.734,-30.68 -22.832,0 -31.797,10.653 -31.797,29.137 v 4.063 h 20.164"
         style="fill:#ffffff;fill-opacity:1;fill-rule:nonzero;stroke:none"
         transform="matrix(0.13333333,0,0,-0.13333333,0,124.72)" />
      <path
         id="path47"
         d="m 786.766,642.672 c -2.657,-1.961 -5.879,-3.223 -8.262,-3.785 -7.844,-1.68 -10.93,-5.457 -10.93,-12.184 0,-5.746 2.102,-10.504 7.285,-10.504 5.188,0 11.907,3.36 11.907,11.625 z m -35.301,14.566 v 1.821 c 0,17.375 11.914,23.254 26.473,23.254 22.98,0 27.316,-9.524 27.316,-23.114 v -39.64 c 0,-7.004 0.418,-10.227 2.383,-14.567 h -18.489 c -1.257,2.383 -1.828,5.321 -2.382,7.848 h -0.282 c -4.484,-7.848 -9.941,-9.813 -19.191,-9.813 -13.445,0 -18.203,11.493 -18.203,21.575 0,14.148 5.742,19.89 19.043,23.535 l 10.93,2.937 c 5.742,1.543 7.703,3.785 7.703,8.824 0,5.747 -2.52,9.25 -8.965,9.25 -5.879,0 -8.965,-3.921 -8.965,-9.804 v -2.106 h -17.371"
         style="fill:#ffffff;fill-opacity:1;fill-rule:nonzero;stroke:none"
         transform="matrix(0.13333333,0,0,-0.13333333,0,124.72)" />
      <path
         id="path48"
         d="m 826.668,701.926 h 19.336 v -21.574 h 11.199 v -13.168 h -11.199 v -40.762 c 0,-5.883 1.262,-8.262 6.855,-8.262 1.543,0 3.086,0.137 4.344,0.278 v -13.446 c -4.195,-0.422 -8.125,-0.84 -12.605,-0.84 -15.125,0 -17.93,4.625 -17.93,19.887 v 43.145 h -9.805 v 13.168 h 9.805 v 21.574"
         style="fill:#ffffff;fill-opacity:1;fill-rule:nonzero;stroke:none"
         transform="matrix(0.13333333,0,0,-0.13333333,0,124.72)" />
      <path
         id="path49"
         d="m 908.719,667.184 h -9.805 v 13.168 h 9.805 v 8.546 c 0,13.59 7.707,18.071 20.176,18.071 3.496,0 6.855,-0.141 10.363,-0.426 V 692.82 c -1.262,0.141 -2.524,0.141 -3.781,0.141 -5.469,0 -7.422,-1.684 -7.422,-6.027 v -6.582 h 11.203 v -13.168 h -11.203 v -62.192 h -19.336 v 62.192"
         style="fill:#ffffff;fill-opacity:1;fill-rule:nonzero;stroke:none"
         transform="matrix(0.13333333,0,0,-0.13333333,0,124.72)" />
      <path
         id="path50"
         d="m 981.816,642.672 c -2.66,-1.961 -5.878,-3.223 -8.261,-3.785 -7.844,-1.68 -10.93,-5.457 -10.93,-12.184 0,-5.746 2.102,-10.504 7.285,-10.504 5.188,0 11.906,3.36 11.906,11.625 z m -35.304,14.566 v 1.821 c 0,17.375 11.914,23.254 26.472,23.254 22.981,0 27.316,-9.524 27.316,-23.114 v -39.64 c 0,-7.004 0.43,-10.227 2.38,-14.567 h -18.485 c -1.257,2.383 -1.824,5.321 -2.379,7.848 h -0.285 c -4.48,-7.848 -9.941,-9.813 -19.187,-9.813 -13.449,0 -18.203,11.493 -18.203,21.575 0,14.148 5.742,19.89 19.043,23.535 l 10.925,2.937 c 5.743,1.543 7.707,3.785 7.707,8.824 0,5.747 -2.519,9.25 -8.964,9.25 -5.879,0 -8.965,-3.921 -8.965,-9.804 v -2.106 h -17.375"
         style="fill:#ffffff;fill-opacity:1;fill-rule:nonzero;stroke:none"
         transform="matrix(0.13333333,0,0,-0.13333333,0,124.72)" />
      <path
         id="path51"
         d="m 1021.72,701.926 h 19.33 v -21.574 h 11.2 v -13.168 h -11.2 v -40.762 c 0,-5.883 1.26,-8.262 6.86,-8.262 1.54,0 3.08,0.137 4.34,0.278 v -13.446 c -4.2,-0.422 -8.12,-0.84 -12.6,-0.84 -15.13,0 -17.93,4.625 -17.93,19.887 v 43.145 h -9.81 v 13.168 h 9.81 v 21.574"
         style="fill:#ffffff;fill-opacity:1;fill-rule:nonzero;stroke:none"
         transform="matrix(0.13333333,0,0,-0.13333333,0,124.72)" />
      <path
         id="path52"
         d="m 1124.36,706.969 h 15.69 l -31.66,-103.942 h -15.69 l 31.66,103.942"
         style="fill:#ffffff;fill-opacity:1;fill-rule:nonzero;stroke:none"
         transform="matrix(0.13333333,0,0,-0.13333333,0,124.72)" />
      <path
         id="path53"
         d="m 1231.63,675.309 c 0,7.425 -3.36,16.812 -11.49,16.812 -9.8,0 -13.73,-10.09 -13.73,-35.019 0,-24.098 2.25,-39.223 13.87,-39.223 4.77,0 12.47,5.184 12.47,15.969 v 10.226 h -13.31 v 14.848 h 32.64 v -53.93 h -14.85 v 9.242 h -0.28 c -4.76,-7.839 -11.62,-11.207 -21.01,-11.207 -24.79,0 -29.69,18.493 -29.69,53.09 0,33.621 7.84,50.852 33.61,50.852 22.14,0 31.1,-11.348 31.1,-31.66 h -19.33"
         style="fill:#ffffff;fill-opacity:1;fill-rule:nonzero;stroke:none"
         transform="matrix(0.13333333,0,0,-0.13333333,0,124.72)" />
      <path
         id="path54"
         d="m 1268.03,680.352 h 18.48 v -10.086 h 0.28 c 3.92,7.285 9.39,12.047 17.38,12.047 1.11,0 2.37,-0.137 3.49,-0.282 v -18.488 c -1.96,0.141 -4.06,0.281 -6.02,0.281 -6.72,0 -14.29,-3.5 -14.29,-13.59 v -45.242 h -19.32 v 75.36"
         style="fill:#ffffff;fill-opacity:1;fill-rule:nonzero;stroke:none"
         transform="matrix(0.13333333,0,0,-0.13333333,0,124.72)" />
      <path
         id="path55"
         d="m 1353.32,642.672 c -2.66,-1.961 -5.88,-3.223 -8.26,-3.785 -7.85,-1.68 -10.93,-5.457 -10.93,-12.184 0,-5.746 2.1,-10.504 7.28,-10.504 5.19,0 11.91,3.36 11.91,11.625 z m -35.3,14.566 v 1.821 c 0,17.375 11.91,23.254 26.47,23.254 22.98,0 27.31,-9.524 27.31,-23.114 v -39.64 c 0,-7.004 0.43,-10.227 2.39,-14.567 h -18.49 c -1.26,2.383 -1.83,5.321 -2.38,7.848 h -0.29 c -4.48,-7.848 -9.94,-9.813 -19.18,-9.813 -13.45,0 -18.21,11.493 -18.21,21.575 0,14.148 5.74,19.89 19.05,23.535 l 10.92,2.937 c 5.75,1.543 7.71,3.785 7.71,8.824 0,5.747 -2.52,9.25 -8.97,9.25 -5.88,0 -8.96,-3.921 -8.96,-9.804 v -2.106 h -17.37"
         style="fill:#ffffff;fill-opacity:1;fill-rule:nonzero;stroke:none"
         transform="matrix(0.13333333,0,0,-0.13333333,0,124.72)" />
      <path
         id="path56"
         d="m 1403.16,629.645 v -2.52 c 0,-6.586 3.5,-10.926 10.08,-10.926 5.89,0 9.8,2.938 9.8,8.961 0,4.906 -3.22,7.145 -7,8.547 l -13.58,4.902 c -10.65,3.786 -16.11,10.368 -16.11,21.012 0,12.465 7.85,22.692 27.73,22.692 17.51,0 25.78,-7.844 25.78,-21.434 v -3.078 h -17.37 c 0,7.562 -2.25,11.347 -8.55,11.347 -4.9,0 -9.1,-2.804 -9.1,-8.125 0,-3.644 1.95,-6.726 8.4,-8.824 l 11.63,-3.926 c 12.19,-4.058 16.67,-10.226 16.67,-21.57 0,-15.828 -11.77,-23.676 -28.02,-23.676 -21.71,0 -27.73,9.528 -27.73,23.957 v 2.661 h 17.37"
         style="fill:#ffffff;fill-opacity:1;fill-rule:nonzero;stroke:none"
         transform="matrix(0.13333333,0,0,-0.13333333,0,124.72)" />
      <path
         id="path57"
         d="m 1505.94,629.645 v -2.52 c 0,-6.586 3.5,-10.926 10.08,-10.926 5.89,0 9.81,2.938 9.81,8.961 0,4.906 -3.22,7.145 -7,8.547 l -13.59,4.902 c -10.64,3.786 -16.11,10.368 -16.11,21.012 0,12.465 7.85,22.692 27.73,22.692 17.51,0 25.78,-7.844 25.78,-21.434 v -3.078 h -17.37 c 0,7.562 -2.24,11.347 -8.54,11.347 -4.91,0 -9.11,-2.804 -9.11,-8.125 0,-3.644 1.96,-6.726 8.4,-8.824 l 11.63,-3.926 c 12.19,-4.058 16.67,-10.226 16.67,-21.57 0,-15.828 -11.76,-23.676 -28.01,-23.676 -21.71,0 -27.74,9.528 -27.74,23.957 v 2.661 h 17.37"
         style="fill:#ffffff;fill-opacity:1;fill-rule:nonzero;stroke:none"
         transform="matrix(0.13333333,0,0,-0.13333333,0,124.72)" />
      <path
         id="path58"
         d="m 1592.63,642.672 c -2.65,-1.961 -5.87,-3.223 -8.26,-3.785 -7.84,-1.68 -10.93,-5.457 -10.93,-12.184 0,-5.746 2.1,-10.504 7.29,-10.504 5.19,0 11.9,3.36 11.9,11.625 z m -35.3,14.566 v 1.821 c 0,17.375 11.92,23.254 26.48,23.254 22.97,0 27.31,-9.524 27.31,-23.114 v -39.64 c 0,-7.004 0.43,-10.227 2.38,-14.567 h -18.48 c -1.26,2.383 -1.83,5.321 -2.39,7.848 h -0.28 c -4.48,-7.848 -9.94,-9.813 -19.19,-9.813 -13.45,0 -18.2,11.493 -18.2,21.575 0,14.148 5.74,19.89 19.04,23.535 l 10.93,2.937 c 5.74,1.543 7.7,3.785 7.7,8.824 0,5.747 -2.52,9.25 -8.96,9.25 -5.88,0 -8.97,-3.921 -8.97,-9.804 v -2.106 h -17.37"
         style="fill:#ffffff;fill-opacity:1;fill-rule:nonzero;stroke:none"
         transform="matrix(0.13333333,0,0,-0.13333333,0,124.72)" />
      <path
         id="path59"
         d="m 1632.53,701.926 h 19.33 v -21.574 h 11.2 v -13.168 h -11.2 v -40.762 c 0,-5.883 1.26,-8.262 6.86,-8.262 1.54,0 3.08,0.137 4.34,0.278 v -13.446 c -4.2,-0.422 -8.12,-0.84 -12.6,-0.84 -15.13,0 -17.93,4.625 -17.93,19.887 v 43.145 h -9.81 v 13.168 h 9.81 v 21.574"
         style="fill:#ffffff;fill-opacity:1;fill-rule:nonzero;stroke:none"
         transform="matrix(0.13333333,0,0,-0.13333333,0,124.72)" />
      <path
         id="path60"
         d="m 1692.89,626.844 v -21.852 h -18.49 v 21.852 h 18.49"
         style="fill:#ffffff;fill-opacity:1;fill-rule:nonzero;stroke:none"
         transform="matrix(0.13333333,0,0,-0.13333333,0,124.72)" />
      <path
         id="path61"
         d="m 470.82,354.027 c -51.574,-87.863 -164.699,-117.316 -252.465,-65.73 -87.859,51.57 -117.328,164.797 -65.753,252.656 51.586,87.762 163.839,117.016 252.668,65.656 88.816,-51.257 117.234,-164.808 65.55,-252.582 z M 435.559,659.824 C 318.402,728.656 169.055,689.691 100.129,572.523 39.8555,468.516 62.8906,338.523 150.422,263.16 L 51.8672,97.5547 C 42.0664,80.8242 48.1836,59.3008 65.3203,50.2266 L 88.9648,37.7109 c 16.3012,-8.6289 36.5042,-2.7187 45.5862,13.336 l 93.48,166.4651 c 109.559,-39.434 234.258,3.734 294.832,106.883 68.731,117.14 29.95,266.613 -87.304,335.429"
         style="fill:#231f20;fill-opacity:1;fill-rule:nonzero;stroke:none"
         transform="matrix(0.13333333,0,0,-0.13333333,0,124.72)" />
      <path
         id="path62"
         d="m 692.238,237.762 v -2.942 c 0,-9.382 2.668,-15.41 13.313,-15.41 6.16,0 12.039,3.926 12.039,12.324 0,9.102 -4.617,12.469 -17.93,17.09 -17.93,6.172 -26.191,13.594 -26.191,30.254 0,19.473 11.906,29.426 30.957,29.426 17.929,0 30.957,-7.707 30.957,-26.895 v -2.804 h -19.324 c 0,9.386 -3.223,14.843 -10.93,14.843 -9.109,0 -11.492,-5.742 -11.492,-11.621 0,-6.172 1.824,-9.941 10.371,-13.593 l 15.547,-6.719 c 15.125,-6.582 19.05,-14.285 19.05,-26.477 0,-21.148 -12.89,-30.672 -34.734,-30.672 -22.832,0 -31.797,10.645 -31.797,29.133 v 4.063 h 20.164"
         style="fill:#ffffff;fill-opacity:1;fill-rule:nonzero;stroke:none"
         transform="matrix(0.13333333,0,0,-0.13333333,0,124.72)" />
      <path
         id="path63"
         d="m 778.773,217.73 c 7.852,0 10.372,7.708 10.372,26.473 0,18.774 -2.52,26.477 -10.372,26.477 -9.523,0 -10.363,-11.067 -10.363,-26.477 0,-15.406 0.84,-26.473 10.363,-26.473 z m 0,66.114 c 23.262,0.429 29.696,-13.446 29.696,-39.641 0,-25.769 -7.559,-39.637 -29.696,-39.637 -23.253,-0.429 -29.687,13.438 -29.687,39.637 0,25.774 7.559,39.641 29.687,39.641"
         style="fill:#ffffff;fill-opacity:1;fill-rule:nonzero;stroke:none"
         transform="matrix(0.13333333,0,0,-0.13333333,0,124.72)" />
      <path
         id="path64"
         d="m 849.926,219.41 c 8.535,0 10.222,8.41 10.222,24.793 0,16.391 -1.687,24.797 -10.222,24.797 -8.41,0 -10.09,-8.406 -10.09,-24.797 0,-16.383 1.68,-24.793 10.09,-24.793 z m 11.062,-4.902 h -0.281 c -4.199,-7 -9.523,-9.942 -17.09,-9.942 -15.832,0 -23.117,11.622 -23.117,39.637 0,28.02 7.285,39.641 23.117,39.641 7.285,0 12.188,-2.938 16.25,-8.965 h 0.281 v 31.66 h 19.329 V 206.52 h -18.489 v 7.988"
         style="fill:#ffffff;fill-opacity:1;fill-rule:nonzero;stroke:none"
         transform="matrix(0.13333333,0,0,-0.13333333,0,124.72)" />
      <path
         id="path65"
         d="m 896.547,281.891 h 19.332 V 206.52 h -19.332 z m 0,25.761 h 19.332 v -16.523 h -19.332 v 16.523"
         style="fill:#ffffff;fill-opacity:1;fill-rule:nonzero;stroke:none"
         transform="matrix(0.13333333,0,0,-0.13333333,0,124.72)" />
      <path
         id="path66"
         d="m 971.617,215.348 h -0.281 c -4.063,-7.422 -11.063,-10.782 -19.188,-10.782 -12.05,0 -19.191,6.582 -19.191,21.426 v 55.899 h 19.324 v -51.973 c 0,-7.559 2.524,-10.508 8.274,-10.508 6.582,0 10.222,4.063 10.222,12.461 v 50.02 h 19.328 V 206.52 h -18.488 v 8.828"
         style="fill:#ffffff;fill-opacity:1;fill-rule:nonzero;stroke:none"
         transform="matrix(0.13333333,0,0,-0.13333333,0,124.72)" />
      <path
         id="path67"
         d="m 1006.47,281.891 h 18.49 v -7.715 h 0.28 c 4.9,6.875 10.93,9.668 19.05,9.668 8.82,0 15.27,-4.336 17.37,-12.051 h 0.28 c 2.94,7.988 9.94,12.051 19.05,12.051 12.75,0 18.77,-7.989 18.77,-22.547 V 206.52 h -19.33 v 52.675 c 0,6.297 -2.1,9.805 -7.56,9.805 -6.16,0 -10.09,-4.199 -10.09,-12.891 V 206.52 h -19.33 v 52.675 c 0,6.297 -2.1,9.805 -7.56,9.805 -6.17,0 -10.09,-4.199 -10.09,-12.891 V 206.52 h -19.33 v 75.371"
         style="fill:#ffffff;fill-opacity:1;fill-rule:nonzero;stroke:none"
         transform="matrix(0.13333333,0,0,-0.13333333,0,124.72)" />
    </g>
  </g>
</svg>
