<?xml version="1.0" encoding="UTF-8" standalone="no"?>
<!-- Created with Inkscape (http://www.inkscape.org/) -->

<svg
   version="1.1"
   id="svg1"
   width="167.05333"
   height="124.72"
   viewBox="0 0 167.05333 124.72"
   sodipodi:docname="1.2(EH).eps"
   xmlns:inkscape="http://www.inkscape.org/namespaces/inkscape"
   xmlns:sodipodi="http://sodipodi.sourceforge.net/DTD/sodipodi-0.dtd"
   xmlns="http://www.w3.org/2000/svg"
   xmlns:svg="http://www.w3.org/2000/svg">
  <defs
     id="defs1" />
  <sodipodi:namedview
     id="namedview1"
     pagecolor="#ffffff"
     bordercolor="#000000"
     borderopacity="0.25"
     inkscape:showpageshadow="2"
     inkscape:pageopacity="0.0"
     inkscape:pagecheckerboard="0"
     inkscape:deskcolor="#d1d1d1">
    <inkscape:page
       x="0"
       y="0"
       inkscape:label="1"
       id="page1"
       width="167.05333"
       height="124.72"
       margin="0"
       bleed="0" />
  </sodipodi:namedview>
  <g
     id="g1"
     inkscape:groupmode="layer"
     inkscape:label="1">
    <g
       id="group-R5">
      <path
         id="path2"
         d="M 2.49609,2.49609 V 932.934 H 1250.42 V 2.49609 H 2.49609"
         style="fill:#ffffff;fill-opacity:1;fill-rule:nonzero;stroke:none"
         transform="matrix(0.13333333,0,0,-0.13333333,0,124.72)" />
      <path
         id="path3"
         d="M 1252.91,935.434 H 0 V 0 h 1252.91 v 935.434 z m -5,-5 V 5 H 5 v 925.434 h 1242.91"
         style="fill:#231f20;fill-opacity:1;fill-rule:nonzero;stroke:none"
         transform="matrix(0.13333333,0,0,-0.13333333,0,124.72)" />
      <path
         id="path4"
         d="M 1212.51,740.977 V 565.227 H 609.527 c -31.097,79.824 -93.8,143.64 -172.699,175.75 h 775.682"
         style="fill:#231f20;fill-opacity:1;fill-rule:nonzero;stroke:none"
         transform="matrix(0.13333333,0,0,-0.13333333,0,124.72)" />
      <path
         id="path5"
         d="M 1212.51,541.977 V 366.23 H 619.027 c 7.602,27.106 11.7,55.715 11.7,85.321 0,31.41 -4.598,61.82 -13.297,90.426 h 595.08"
         style="fill:#231f20;fill-opacity:1;fill-rule:nonzero;stroke:none"
         transform="matrix(0.13333333,0,0,-0.13333333,0,124.72)" />
      <path
         id="path6"
         d="m 459.895,169.73 c 70.125,35.278 125.566,96.895 153.273,170.747 H 1210.02 V 169.73 H 459.895"
         style="fill:#ffffff;fill-opacity:1;fill-rule:nonzero;stroke:none"
         transform="matrix(0.13333333,0,0,-0.13333333,0,124.72)" />
      <path
         id="path7"
         d="M 1212.51,342.977 H 611.43 C 582.629,264.855 523.727,201.539 448.93,167.23 h 763.58 v 175.747 z m -5,-5 V 172.227 H 470.051 c 65.894,35.914 117.937,95.234 144.844,165.75 h 592.615"
         style="fill:#231f20;fill-opacity:1;fill-rule:nonzero;stroke:none"
         transform="matrix(0.13333333,0,0,-0.13333333,0,124.72)" />
      <path
         id="path8"
         d="M 675.984,884.723 H 696.16 V 846.48 h 23.528 v 38.243 h 20.171 V 784.707 h -20.171 v 44.406 H 696.16 v -44.406 h -20.176 v 100.016"
         style="fill:#231f20;fill-opacity:1;fill-rule:nonzero;stroke:none"
         transform="matrix(0.13333333,0,0,-0.13333333,0,124.72)" />
      <path
         id="path9"
         d="m 757.488,860.07 h 19.325 v -75.363 h -19.325 z m 0,25.77 h 19.325 v -16.527 h -19.325 v 16.527"
         style="fill:#231f20;fill-opacity:1;fill-rule:nonzero;stroke:none"
         transform="matrix(0.13333333,0,0,-0.13333333,0,124.72)" />
      <path
         id="path10"
         d="m 821.348,800.398 c 8.125,0 10.504,8.821 10.504,21.571 0,18.351 -2.379,25.215 -10.086,25.215 -8.543,0 -10.09,-6.864 -10.09,-27.18 0,-10.363 1.547,-19.606 9.672,-19.606 z m 28.992,59.672 v -71.578 c 0,-19.89 -8.817,-29.554 -31.379,-29.554 -16.387,0 -25.633,7.281 -25.633,20.164 h 18.496 c 0,-2.52 1.121,-4.485 2.938,-5.743 1.816,-1.257 4.062,-2.097 6.445,-2.097 7.844,0 10.645,5.883 10.645,13.59 v 9.945 h -0.282 c -3.918,-5.606 -9.941,-9.25 -16.101,-9.25 -15.41,0 -23.117,10.508 -23.117,38.101 0,17.653 2.664,38.383 23.671,38.383 5.325,0 11.903,-2.523 15.547,-10.367 h 0.282 v 8.406 h 18.488"
         style="fill:#231f20;fill-opacity:1;fill-rule:nonzero;stroke:none"
         transform="matrix(0.13333333,0,0,-0.13333333,0,124.72)" />
      <path
         id="path11"
         d="m 867.41,884.723 h 19.324 v -32.36 h 0.286 c 3.64,6.446 10.222,9.668 18.347,9.668 12.055,0 19.192,-6.586 19.192,-21.433 V 784.707 H 905.23 v 51.969 c 0,7.562 -2.527,10.508 -8.269,10.508 -6.582,0 -10.227,-4.063 -10.227,-12.473 V 784.707 H 867.41 v 100.016"
         style="fill:#231f20;fill-opacity:1;fill-rule:nonzero;stroke:none"
         transform="matrix(0.13333333,0,0,-0.13333333,0,124.72)" />
      <path
         id="path12"
         d="m 978.738,860.07 h 19.325 v -75.363 h -19.325 z m 0,25.77 h 19.325 v -16.527 h -19.325 v 16.527"
         style="fill:#231f20;fill-opacity:1;fill-rule:nonzero;stroke:none"
         transform="matrix(0.13333333,0,0,-0.13333333,0,124.72)" />
      <path
         id="path13"
         d="m 1015.14,860.07 h 18.49 v -8.824 h 0.28 c 4.07,7.422 11.07,10.785 19.19,10.785 12.05,0 19.19,-6.586 19.19,-21.433 v -55.891 h -19.32 v 51.969 c 0,7.562 -2.53,10.508 -8.28,10.508 -6.58,0 -10.22,-4.063 -10.22,-12.473 v -50.004 h -19.33 v 75.363"
         style="fill:#231f20;fill-opacity:1;fill-rule:nonzero;stroke:none"
         transform="matrix(0.13333333,0,0,-0.13333333,0,124.72)" />
      <path
         id="path14"
         d="m 692.242,436.996 v -2.937 c 0,-9.387 2.668,-15.411 13.313,-15.411 6.164,0 12.043,3.918 12.043,12.325 0,9.101 -4.621,12.468 -17.93,17.09 -17.934,6.164 -26.191,13.582 -26.191,30.253 0,19.473 11.902,29.414 30.957,29.414 17.925,0 30.953,-7.699 30.953,-26.894 v -2.801 h -19.324 c 0,9.387 -3.223,14.852 -10.926,14.852 -9.114,0 -11.496,-5.746 -11.496,-11.625 0,-6.168 1.828,-9.946 10.371,-13.59 l 15.547,-6.719 c 15.129,-6.582 19.05,-14.289 19.05,-26.476 0,-21.153 -12.886,-30.68 -34.734,-30.68 -22.832,0 -31.797,10.652 -31.797,29.141 v 4.058 h 20.164"
         style="fill:#ffffff;fill-opacity:1;fill-rule:nonzero;stroke:none"
         transform="matrix(0.13333333,0,0,-0.13333333,0,124.72)" />
      <path
         id="path15"
         d="m 790.273,414.586 h -0.285 c -4.062,-7.422 -11.066,-10.789 -19.191,-10.789 -12.051,0 -19.188,6.59 -19.188,21.433 v 55.887 h 19.329 v -51.961 c 0,-7.566 2.515,-10.508 8.269,-10.508 6.582,0 10.227,4.063 10.227,12.461 v 50.008 h 19.324 v -75.359 h -18.485 v 8.828"
         style="fill:#ffffff;fill-opacity:1;fill-rule:nonzero;stroke:none"
         transform="matrix(0.13333333,0,0,-0.13333333,0,124.72)" />
      <path
         id="path16"
         d="m 852.586,421.449 c 8.125,0 10.508,8.821 10.508,21.574 0,18.348 -2.383,25.211 -10.086,25.211 -8.547,0 -10.09,-6.863 -10.09,-27.171 0,-10.372 1.543,-19.614 9.668,-19.614 z m 28.992,59.668 v -71.57 c 0,-19.895 -8.816,-29.563 -31.375,-29.563 -16.387,0 -25.637,7.286 -25.637,20.168 h 18.497 c 0,-2.519 1.125,-4.48 2.941,-5.742 1.816,-1.258 4.062,-2.097 6.445,-2.097 7.844,0 10.645,5.886 10.645,13.589 v 9.942 h -0.281 c -3.918,-5.606 -9.946,-9.246 -16.106,-9.246 -15.41,0 -23.113,10.507 -23.113,38.105 0,17.649 2.664,38.379 23.668,38.379 5.324,0 11.906,-2.523 15.551,-10.367 h 0.281 v 8.402 h 18.484"
         style="fill:#ffffff;fill-opacity:1;fill-rule:nonzero;stroke:none"
         transform="matrix(0.13333333,0,0,-0.13333333,0,124.72)" />
      <path
         id="path17"
         d="m 933.805,443.441 c -2.657,-1.961 -5.879,-3.222 -8.258,-3.789 -7.844,-1.675 -10.93,-5.457 -10.93,-12.175 0,-5.75 2.102,-10.508 7.285,-10.508 5.184,0 11.903,3.359 11.903,11.621 z m -35.301,14.563 v 1.824 c 0,17.367 11.914,23.254 26.473,23.254 22.98,0 27.316,-9.527 27.316,-23.113 v -39.641 c 0,-7.004 0.43,-10.226 2.383,-14.57 h -18.488 c -1.258,2.383 -1.825,5.32 -2.383,7.844 h -0.282 c -4.484,-7.844 -9.941,-9.805 -19.191,-9.805 -13.445,0 -18.199,11.492 -18.199,21.57 0,14.153 5.738,19.895 19.039,23.535 l 10.93,2.942 c 5.742,1.543 7.703,3.785 7.703,8.828 0,5.738 -2.52,9.238 -8.965,9.238 -5.879,0 -8.965,-3.918 -8.965,-9.797 v -2.109 h -17.371"
         style="fill:#ffffff;fill-opacity:1;fill-rule:nonzero;stroke:none"
         transform="matrix(0.13333333,0,0,-0.13333333,0,124.72)" />
      <path
         id="path18"
         d="m 969.512,481.117 h 18.484 v -10.086 h 0.281 c 3.918,7.285 9.387,12.051 17.373,12.051 1.12,0 2.38,-0.141 3.5,-0.285 v -18.488 c -1.96,0.14 -4.06,0.281 -6.03,0.281 -6.718,0 -14.284,-3.5 -14.284,-13.586 v -45.246 h -19.324 v 75.359"
         style="fill:#ffffff;fill-opacity:1;fill-rule:nonzero;stroke:none"
         transform="matrix(0.13333333,0,0,-0.13333333,0,124.72)" />
      <path
         id="path19"
         d="m 1033.79,430.414 v -2.519 c 0,-6.59 3.49,-10.926 10.07,-10.926 5.89,0 9.81,2.937 9.81,8.965 0,4.902 -3.22,7.14 -7,8.543 l -13.59,4.902 c -10.64,3.781 -16.11,10.363 -16.11,21.008 0,12.465 7.85,22.695 27.73,22.695 17.51,0 25.79,-7.848 25.79,-21.437 v -3.075 h -17.38 c 0,7.559 -2.24,11.34 -8.54,11.34 -4.9,0 -9.1,-2.801 -9.1,-8.117 0,-3.641 1.95,-6.727 8.39,-8.828 l 11.64,-3.926 c 12.18,-4.062 16.67,-10.223 16.67,-21.562 0,-15.832 -11.77,-23.68 -28.02,-23.68 -21.71,0 -27.74,9.527 -27.74,23.953 v 2.664 h 17.38"
         style="fill:#ffffff;fill-opacity:1;fill-rule:nonzero;stroke:none"
         transform="matrix(0.13333333,0,0,-0.13333333,0,124.72)" />
      <path
         id="path20"
         d="m 692.242,636.227 v -2.942 c 0,-9.383 2.668,-15.406 13.313,-15.406 6.164,0 12.043,3.922 12.043,12.324 0,9.106 -4.621,12.469 -17.93,17.094 -17.934,6.16 -26.191,13.582 -26.191,30.254 0,19.472 11.902,29.418 30.957,29.418 17.925,0 30.953,-7.703 30.953,-26.895 v -2.804 h -19.324 c 0,9.386 -3.223,14.847 -10.926,14.847 -9.114,0 -11.496,-5.746 -11.496,-11.625 0,-6.164 1.828,-9.945 10.371,-13.586 l 15.547,-6.726 c 15.129,-6.578 19.05,-14.285 19.05,-26.473 0,-21.152 -12.886,-30.68 -34.734,-30.68 -22.832,0 -31.797,10.653 -31.797,29.137 v 4.063 h 20.164"
         style="fill:#ffffff;fill-opacity:1;fill-rule:nonzero;stroke:none"
         transform="matrix(0.13333333,0,0,-0.13333333,0,124.72)" />
      <path
         id="path21"
         d="m 786.766,642.672 c -2.657,-1.965 -5.879,-3.223 -8.262,-3.785 -7.844,-1.68 -10.93,-5.457 -10.93,-12.184 0,-5.746 2.102,-10.504 7.285,-10.504 5.188,0 11.907,3.356 11.907,11.625 z m -35.305,14.566 v 1.821 c 0,17.371 11.914,23.25 26.477,23.25 22.98,0 27.312,-9.52 27.312,-23.11 v -39.644 c 0,-7 0.422,-10.223 2.387,-14.567 h -18.489 c -1.261,2.383 -1.828,5.325 -2.382,7.852 h -0.286 c -4.48,-7.852 -9.937,-9.813 -19.187,-9.813 -13.445,0 -18.203,11.493 -18.203,21.575 0,14.148 5.742,19.89 19.043,23.535 l 10.93,2.937 c 5.738,1.543 7.703,3.785 7.703,8.824 0,5.747 -2.52,9.247 -8.965,9.247 -5.879,0 -8.965,-3.918 -8.965,-9.801 v -2.106 h -17.375"
         style="fill:#ffffff;fill-opacity:1;fill-rule:nonzero;stroke:none"
         transform="matrix(0.13333333,0,0,-0.13333333,0,124.72)" />
      <path
         id="path22"
         d="m 826.668,701.926 h 19.336 v -21.574 h 11.199 v -13.168 h -11.199 v -40.762 c 0,-5.883 1.258,-8.262 6.855,-8.262 1.543,0 3.086,0.137 4.344,0.278 v -13.45 c -4.195,-0.418 -8.125,-0.836 -12.605,-0.836 -15.125,0 -17.93,4.625 -17.93,19.887 v 43.145 h -9.805 v 13.168 h 9.805 v 21.574"
         style="fill:#ffffff;fill-opacity:1;fill-rule:nonzero;stroke:none"
         transform="matrix(0.13333333,0,0,-0.13333333,0,124.72)" />
      <path
         id="path23"
         d="m 908.719,667.184 h -9.805 v 13.168 h 9.805 v 8.546 c 0,13.59 7.703,18.071 20.176,18.071 3.496,0 6.855,-0.141 10.359,-0.426 V 692.82 c -1.258,0.141 -2.52,0.141 -3.777,0.141 -5.469,0 -7.422,-1.688 -7.422,-6.027 v -6.582 h 11.199 v -13.168 h -11.199 v -62.196 h -19.336 v 62.196"
         style="fill:#ffffff;fill-opacity:1;fill-rule:nonzero;stroke:none"
         transform="matrix(0.13333333,0,0,-0.13333333,0,124.72)" />
      <path
         id="path24"
         d="m 981.813,642.672 c -2.657,-1.965 -5.879,-3.223 -8.262,-3.785 -7.84,-1.68 -10.926,-5.457 -10.926,-12.184 0,-5.746 2.102,-10.504 7.285,-10.504 5.184,0 11.903,3.356 11.903,11.625 z m -35.301,14.566 v 1.821 c 0,17.371 11.914,23.25 26.472,23.25 22.981,0 27.316,-9.52 27.316,-23.11 v -39.644 c 0,-7 0.43,-10.223 2.38,-14.567 h -18.485 c -1.257,2.383 -1.824,5.325 -2.382,7.852 h -0.282 c -4.484,-7.852 -9.941,-9.813 -19.191,-9.813 -13.445,0 -18.203,11.493 -18.203,21.575 0,14.148 5.742,19.89 19.043,23.535 l 10.929,2.937 c 5.743,1.543 7.704,3.785 7.704,8.824 0,5.747 -2.516,9.247 -8.961,9.247 -5.883,0 -8.965,-3.918 -8.965,-9.801 v -2.106 h -17.375"
         style="fill:#ffffff;fill-opacity:1;fill-rule:nonzero;stroke:none"
         transform="matrix(0.13333333,0,0,-0.13333333,0,124.72)" />
      <path
         id="path25"
         d="m 1021.72,701.926 h 19.33 v -21.574 h 11.2 v -13.168 h -11.2 v -40.762 c 0,-5.883 1.26,-8.262 6.86,-8.262 1.54,0 3.08,0.137 4.34,0.278 v -13.45 c -4.2,-0.418 -8.12,-0.836 -12.6,-0.836 -15.13,0 -17.93,4.625 -17.93,19.887 v 43.145 h -9.81 v 13.168 h 9.81 v 21.574"
         style="fill:#ffffff;fill-opacity:1;fill-rule:nonzero;stroke:none"
         transform="matrix(0.13333333,0,0,-0.13333333,0,124.72)" />
      <path
         id="path26"
         d="M 470.816,354.027 C 419.242,266.164 306.117,236.707 218.355,288.293 130.496,339.867 101.027,453.094 152.602,540.953 204.188,628.715 316.441,657.969 405.27,606.609 494.086,555.352 522.5,441.801 470.816,354.027 Z M 435.559,659.824 C 318.402,728.652 169.055,689.688 100.129,572.523 39.8555,468.516 62.8906,338.523 150.422,263.16 L 51.8672,97.5547 C 42.0664,80.8242 48.1836,59.3008 65.3203,50.2266 L 88.9648,37.7109 C 105.266,29.082 125.469,34.9922 134.551,51.043 l 93.48,166.469 c 109.559,-39.434 234.258,3.73 294.832,106.883 68.731,117.14 29.95,266.613 -87.304,335.429"
         style="fill:#231f20;fill-opacity:1;fill-rule:nonzero;stroke:none"
         transform="matrix(0.13333333,0,0,-0.13333333,0,124.72)" />
      <path
         id="path27"
         d="M 361.832,49.9648 H 351.277 V 91.2266 H 321.895 V 49.9648 h -10.559 v 85.6372 h 10.559 v -35.02 h 29.382 v 35.02 h 10.555 V 49.9648"
         style="fill:#231f20;fill-opacity:1;fill-rule:nonzero;stroke:none"
         transform="matrix(0.13333333,0,0,-0.13333333,0,124.72)" />
      <path
         id="path28"
         d="m 407.078,88.8242 v 3.4766 c 0,7.1953 -2.285,15.7112 -11.152,15.7112 -10.559,0 -11.758,-12.9573 -11.758,-16.7854 v -2.4024 z m -23.273,-7.9101 c 0,-9.8438 0,-24.7071 12.355,-24.7071 9.602,0 10.918,10.0782 10.918,14.8633 h 10.067 c 0,-6.8359 -4.071,-22.7851 -21.582,-22.7851 -15.711,0 -22.313,10.9101 -22.313,32.9804 0,16.0742 3.125,34.6684 22.91,34.6684 19.668,0 21.465,-17.1488 21.465,-30.9457 v -4.0742 h -33.82"
         style="fill:#231f20;fill-opacity:1;fill-rule:nonzero;stroke:none"
         transform="matrix(0.13333333,0,0,-0.13333333,0,124.72)" />
      <path
         id="path29"
         d="m 458.199,84.9883 c -3.719,-3.957 -12.597,-4.7969 -17.156,-7.5508 -3.23,-2.0508 -4.914,-4.5703 -4.914,-10.1953 0,-6.4844 2.277,-11.0352 9.113,-11.0352 6.602,0 12.957,5.6328 12.957,12.2266 z m -31.062,9.832 c 0,14.6287 6.23,21.1137 21.582,21.1137 19.551,0 19.551,-11.758 19.551,-18.477 V 61.5977 c 0,-2.6368 0,-5.1563 3.125,-5.1563 1.32,0 1.914,0.2344 2.39,0.6055 v -7.2071 c -0.711,-0.1171 -3.355,-0.5859 -5.879,-0.5859 -3.836,0 -8.629,0 -9.109,8.2617 h -0.234 c -3.243,-5.7539 -9.485,-9.2304 -15.481,-9.2304 -11.992,0 -17.508,7.1992 -17.508,18.7109 0,8.9961 3.836,15.2266 12.117,17.7461 l 13.547,4.082 c 7.325,2.2852 7.325,4.3164 7.325,9.7149 0,5.9959 -3.606,9.4729 -10.325,9.4729 -11.035,0 -11.035,-10.3128 -11.035,-12.5862 v -0.6055 h -10.066"
         style="fill:#231f20;fill-opacity:1;fill-rule:nonzero;stroke:none"
         transform="matrix(0.13333333,0,0,-0.13333333,0,124.72)" />
      <path
         id="path30"
         d="m 482.574,135.602 h 10.071 V 49.9648 h -10.071 v 85.6372"
         style="fill:#231f20;fill-opacity:1;fill-rule:nonzero;stroke:none"
         transform="matrix(0.13333333,0,0,-0.13333333,0,124.72)" />
      <path
         id="path31"
         d="m 509.461,132.965 h 10.066 v -18.711 h 11.153 v -7.922 H 519.527 V 65.0742 c 0,-5.1562 1.321,-7.1875 6.602,-7.1875 2.16,0 3.351,0.2344 4.434,0.3516 v -8.2735 c -1.317,-0.2421 -3.954,-0.7109 -8.153,-0.7109 -10.441,0 -12.949,4.3164 -12.949,12.7031 v 44.375 h -9.356 v 7.922 h 9.356 v 18.711"
         style="fill:#231f20;fill-opacity:1;fill-rule:nonzero;stroke:none"
         transform="matrix(0.13333333,0,0,-0.13333333,0,124.72)" />
      <path
         id="path32"
         d="m 537.527,135.602 h 10.078 V 106.93 h 0.247 c 2.632,5.281 9.703,9.004 15.464,9.004 16.555,0 16.555,-12.832 16.555,-20.391 V 49.9648 h -10.078 v 44.375 c 0,4.9141 -0.363,12.9612 -9.473,12.9612 -5.398,0 -12.715,-3.606 -12.715,-12.9612 v -44.375 h -10.078 v 85.6372"
         style="fill:#231f20;fill-opacity:1;fill-rule:nonzero;stroke:none"
         transform="matrix(0.13333333,0,0,-0.13333333,0,124.72)" />
      <path
         id="path33"
         d="m 674.656,79.3516 c -0.957,-16.1914 -7.312,-31.0664 -26.023,-31.0664 -24.348,0 -27.59,22.9101 -27.59,44.5039 0,21.5819 3.965,44.4919 27.59,44.4919 17.508,0 24.82,-9.843 25.308,-26.621 h -11.035 c -0.242,9.707 -3.359,17.988 -14.273,17.988 -14.629,0 -16.555,-16.074 -16.555,-35.8589 0,-19.7969 1.926,-35.8594 16.555,-35.8594 12.828,0 14.637,11.9922 14.988,22.4219 h 11.035"
         style="fill:#231f20;fill-opacity:1;fill-rule:nonzero;stroke:none"
         transform="matrix(0.13333333,0,0,-0.13333333,0,124.72)" />
      <path
         id="path34"
         d="m 713.672,84.9883 c -3.723,-3.957 -12.602,-4.7969 -17.16,-7.5508 -3.235,-2.0508 -4.91,-4.5703 -4.91,-10.1953 0,-6.4844 2.273,-11.0352 9.109,-11.0352 6.602,0 12.961,5.6328 12.961,12.2266 z m -31.067,9.832 c 0,14.6287 6.231,21.1137 21.583,21.1137 19.55,0 19.55,-11.758 19.55,-18.477 V 61.5977 c 0,-2.6368 0,-5.1563 3.125,-5.1563 1.321,0 1.914,0.2344 2.395,0.6055 v -7.2071 c -0.715,-0.1171 -3.36,-0.5859 -5.883,-0.5859 -3.836,0 -8.633,0 -9.109,8.2617 h -0.235 c -3.242,-5.7539 -9.484,-9.2304 -15.48,-9.2304 -11.988,0 -17.508,7.1992 -17.508,18.7109 0,8.9961 3.84,15.2266 12.117,17.7461 l 13.547,4.082 c 7.324,2.2852 7.324,4.3164 7.324,9.7149 0,5.9959 -3.605,9.4729 -10.324,9.4729 -11.035,0 -11.035,-10.3128 -11.035,-12.5862 v -0.6055 h -10.067"
         style="fill:#231f20;fill-opacity:1;fill-rule:nonzero;stroke:none"
         transform="matrix(0.13333333,0,0,-0.13333333,0,124.72)" />
      <path
         id="path35"
         d="m 737.438,114.254 h 9.601 v -7.559 h 0.242 c 2.641,5.879 9.348,9.239 15.586,9.239 16.914,0 16.914,-12.832 16.914,-20.391 V 49.9648 h -10.078 v 44.375 c 0,4.9141 -0.359,12.9612 -9.473,12.9612 -5.398,0 -12.714,-3.606 -12.714,-12.9612 v -44.375 h -10.078 v 64.2892"
         style="fill:#231f20;fill-opacity:1;fill-rule:nonzero;stroke:none"
         transform="matrix(0.13333333,0,0,-0.13333333,0,124.72)" />
      <path
         id="path36"
         d="m 822.508,84.9883 c -3.723,-3.957 -12.598,-4.7969 -17.156,-7.5508 -3.235,-2.0508 -4.914,-4.5703 -4.914,-10.1953 0,-6.4844 2.273,-11.0352 9.109,-11.0352 6.605,0 12.961,5.6328 12.961,12.2266 z m -31.067,9.832 c 0,14.6287 6.231,21.1137 21.586,21.1137 19.547,0 19.547,-11.758 19.547,-18.477 V 61.5977 c 0,-2.6368 0,-5.1563 3.125,-5.1563 1.321,0 1.914,0.2344 2.395,0.6055 v -7.2071 c -0.711,-0.1171 -3.36,-0.5859 -5.879,-0.5859 -3.84,0 -8.633,0 -9.113,8.2617 h -0.243 c -3.234,-5.7539 -9.472,-9.2304 -15.468,-9.2304 -11.993,0 -17.508,7.1992 -17.508,18.7109 0,8.9961 3.836,15.2266 12.117,17.7461 l 13.547,4.082 c 7.312,2.2852 7.312,4.3164 7.312,9.7149 0,5.9959 -3.593,9.4729 -10.312,9.4729 -11.035,0 -11.035,-10.3128 -11.035,-12.5862 v -0.6055 h -10.071"
         style="fill:#231f20;fill-opacity:1;fill-rule:nonzero;stroke:none"
         transform="matrix(0.13333333,0,0,-0.13333333,0,124.72)" />
      <path
         id="path37"
         d="m 866.188,56.9297 c 11.156,0 12.96,10.5469 12.96,25.1758 0,12.4804 -2.168,25.1955 -12.96,25.1955 -9.356,0 -11.747,-9.844 -11.747,-25.1955 0,-15.3516 2.391,-25.1758 11.747,-25.1758 z m 22.433,-6.9649 h -9.598 v 7.9219 h -0.238 c -1.316,-4.8047 -6.961,-9.6015 -13.914,-9.6015 -15.234,0 -20.984,13.5546 -20.984,33.8203 0,13.4375 2.156,33.8285 20.261,33.8285 5.762,0 11.875,-3.477 14.161,-9.004 h 0.234 v 28.672 h 10.078 V 49.9648"
         style="fill:#231f20;fill-opacity:1;fill-rule:nonzero;stroke:none"
         transform="matrix(0.13333333,0,0,-0.13333333,0,124.72)" />
      <path
         id="path38"
         d="m 931.344,84.9883 c -3.719,-3.957 -12.598,-4.7969 -17.156,-7.5508 -3.235,-2.0508 -4.911,-4.5703 -4.911,-10.1953 0,-6.4844 2.274,-11.0352 9.11,-11.0352 6.601,0 12.957,5.6328 12.957,12.2266 z m -31.063,9.832 c 0,14.6287 6.231,21.1137 21.582,21.1137 19.551,0 19.551,-11.758 19.551,-18.477 V 61.5977 c 0,-2.6368 0,-5.1563 3.125,-5.1563 1.316,0 1.914,0.2344 2.391,0.6055 v -7.2071 c -0.711,-0.1171 -3.36,-0.5859 -5.879,-0.5859 -3.836,0 -8.629,0 -9.11,8.2617 h -0.234 c -3.242,-5.7539 -9.48,-9.2304 -15.48,-9.2304 -11.993,0 -17.508,7.1992 -17.508,18.7109 0,8.9961 3.84,15.2266 12.117,17.7461 l 13.547,4.082 c 7.324,2.2852 7.324,4.3164 7.324,9.7149 0,5.9959 -3.605,9.4729 -10.32,9.4729 -11.035,0 -11.035,-10.3128 -11.035,-12.5862 v -0.6055 h -10.071"
         style="fill:#231f20;fill-opacity:1;fill-rule:nonzero;stroke:none"
         transform="matrix(0.13333333,0,0,-0.13333333,0,124.72)" />
    </g>
  </g>
</svg>
