<svg height="90" viewBox="0 0 90 90" width="90" xmlns="http://www.w3.org/2000/svg"><g transform="matrix(.01882845153 0 0 -.01882845153 0 90.00000008929)"><path d="m1195 984.609 797.4 1382.241c-235.24 137.07-393.45 391.86-393.45 683.77 0 436.9 354.17 791.06 791.05 791.06 436.91 0 791.05-354.16 791.05-791.06 0-291.16-157.39-545.41-391.65-682.74l795.6-1383.271zm1195 3795.391c-1319.97 0-2390-1070.05-2390-2390s1070.03-2390 2390-2390c1319.98 0 2390 1070.05 2390 2390s-1070.02 2390-2390 2390" fill="#007a33"/><path d="m3181.05 3050.62c0 436.9-354.14 791.06-791.05 791.06-436.88 0-791.05-354.16-791.05-791.06 0-291.91 158.21-546.7 393.45-683.77l-797.4-1382.241h2390l-795.6 1383.271c234.26 137.33 391.65 391.58 391.65 682.74" fill="#fff"/></g></svg>