<?xml version="1.0" standalone="no"?>
<!DOCTYPE svg PUBLIC "-//W3C//DTD SVG 20010904//EN"
 "http://www.w3.org/TR/2001/REC-SVG-20010904/DTD/svg10.dtd">
<svg version="1.0" xmlns="http://www.w3.org/2000/svg"
 width="481.000000pt" height="484.000000pt" viewBox="0 0 481.000000 484.000000"
 preserveAspectRatio="xMidYMid meet">

<g transform="translate(0.000000,484.000000) scale(0.100000,-0.100000)"
fill="#000000" stroke="none">
<path d="M2137 4655 c-665 -81 -1258 -446 -1632 -1006 -318 -476 -440 -1076
-334 -1639 175 -926 910 -1644 1849 -1810 157 -28 458 -38 622 -21 769 81
1458 556 1799 1241 391 785 295 1694 -251 2391 -136 174 -350 368 -545 494
-442 285 -990 412 -1508 350z m408 -125 c258 -19 477 -70 701 -166 695 -295
1181 -931 1279 -1672 19 -145 19 -399 0 -544 -124 -943 -855 -1678 -1815
-1825 -151 -23 -461 -23 -612 0 -704 107 -1305 543 -1613 1171 -96 196 -152
372 -192 601 -25 144 -25 500 0 649 115 682 536 1256 1146 1561 296 148 557
213 941 233 14 1 88 -3 165 -8z"/>
<path d="M2225 4413 c-372 -44 -650 -143 -932 -332 -471 -316 -778 -798 -869
-1366 -22 -134 -24 -426 -5 -565 45 -330 178 -653 379 -923 323 -434 804 -717
1347 -792 148 -21 462 -16 598 9 328 61 611 184 866 374 102 76 289 258 366
357 422 540 545 1227 334 1868 -244 745 -908 1281 -1691 1366 -90 10 -324 13
-393 4z m475 -57 c851 -133 1513 -793 1646 -1644 23 -144 23 -439 0 -582 -111
-710 -586 -1295 -1251 -1545 -936 -351 -1992 62 -2440 955 -143 285 -205 552
-205 880 0 338 68 618 221 910 305 581 887 973 1544 1040 117 12 365 4 485
-14z"/>
<path d="M2407 4213 c-9 -9 -9 -63 1 -63 4 0 6 -33 4 -74 l-3 -73 32 -7 c79
-16 83 -13 134 81 l47 87 -28 23 -29 23 -9 -27 c-7 -20 -5 -29 8 -39 16 -11
15 -15 -9 -54 -27 -42 -43 -54 -69 -48 -13 2 -12 10 6 51 11 26 27 47 34 47
21 0 17 47 -3 54 -10 3 -24 9 -32 12 -11 5 -13 -2 -8 -36 4 -32 0 -54 -16 -86
-24 -49 -37 -43 -37 19 0 24 5 40 15 43 21 8 19 43 -2 51 -10 4 -21 10 -24 15
-3 5 -8 5 -12 1z"/>
<path d="M2257 4189 c-7 -24 9 -44 35 -44 18 0 24 -6 26 -27 4 -33 -13 -68
-34 -68 -8 0 -19 -12 -24 -26 -14 -35 -13 -36 18 -32 21 2 30 11 39 38 l11 35
11 -28 c6 -16 11 -33 11 -40 0 -8 3 -8 12 1 9 9 8 24 -6 67 -10 32 -15 68 -11
84 7 33 -6 47 -52 53 -24 3 -33 0 -36 -13z"/>
<path d="M2130 4179 c-25 -5 -53 -6 -62 -3 -14 4 -18 0 -18 -21 0 -14 7 -28
15 -31 8 -4 12 -10 9 -16 -3 -5 -3 -41 1 -79 10 -98 30 -87 30 17 l0 79 37 3
36 3 7 -75 c7 -77 13 -87 34 -62 9 11 8 28 -4 75 -9 34 -13 66 -10 71 9 15 -4
50 -18 49 -7 -1 -32 -5 -57 -10z"/>
<path d="M2664 4166 c-9 -36 0 -43 57 -51 41 -6 49 -10 44 -24 -12 -28 -33
-136 -28 -141 12 -12 43 45 43 80 0 21 7 54 15 73 14 33 14 37 -3 45 -9 6 -36
13 -59 17 -24 4 -43 11 -43 16 0 20 -20 8 -26 -15z"/>
<path d="M1930 4135 c-25 -8 -53 -12 -62 -9 -12 3 -18 0 -18 -10 0 -24 11 -46
24 -46 6 0 17 -21 23 -47 9 -40 9 -50 -4 -60 -21 -16 -12 -49 12 -45 52 8 58
28 25 92 -28 55 -26 68 14 76 19 3 39 3 44 0 5 -3 18 -35 27 -71 17 -62 35
-78 35 -32 0 35 -38 149 -52 158 -16 11 -13 11 -68 -6z"/>
<path d="M2862 4138 c-24 -24 -14 -55 21 -64 26 -8 33 -15 35 -39 2 -17 -3
-39 -11 -49 -12 -17 -19 -18 -56 -9 -36 10 -43 9 -51 -7 -14 -26 -16 -25 50
-45 57 -17 62 -17 78 -1 13 13 14 18 4 25 -10 6 -8 18 8 55 29 65 24 96 -18
110 -18 6 -36 17 -41 24 -5 9 -10 9 -19 0z"/>
<path d="M2653 4068 c-5 -7 -14 -30 -20 -50 -10 -34 -9 -38 7 -38 19 0 23 8
35 68 7 33 -4 43 -22 20z"/>
<path d="M1422 3643 c-4 -10 -7 -59 -7 -109 0 -131 3 -134 157 -134 168 0 160
12 157 -236 -1 -107 1 -197 4 -200 12 -13 50 21 68 59 16 37 19 68 19 263 0
132 -4 233 -11 252 -19 55 -49 66 -197 70 -129 4 -134 5 -144 28 -13 28 -36
31 -46 7z"/>
<path d="M1910 3634 c-6 -14 -10 -60 -10 -103 0 -104 19 -131 90 -131 71 0 73
-5 69 -241 -4 -215 -2 -224 45 -169 43 51 48 88 44 333 l-3 229 -27 23 c-19
16 -45 24 -92 30 -59 6 -67 9 -72 31 -8 32 -32 31 -44 -2z"/>
<path d="M2554 3625 c-16 -40 -19 -122 -4 -160 6 -15 24 -32 45 -41 l35 -14
-17 -35 c-9 -19 -19 -35 -23 -35 -16 0 -249 248 -255 273 -5 17 -14 27 -25 27
-22 0 -78 -62 -86 -96 -11 -43 13 -99 62 -147 l47 -45 -36 -47 c-45 -59 -56
-116 -33 -181 23 -68 21 -92 -9 -106 -14 -6 -25 -19 -25 -30 0 -16 9 -18 94
-18 90 0 96 1 115 26 37 47 28 87 -43 193 -36 53 -46 94 -25 107 22 13 266
-249 276 -297 17 -85 113 -8 113 92 0 45 -2 49 -82 168 -35 51 -11 141 37 141
33 0 48 31 49 103 1 50 -2 61 -23 78 -13 11 -39 19 -60 19 -40 0 -81 23 -81
46 0 27 -31 14 -46 -21z"/>
<path d="M2849 3618 c-6 -24 -9 -74 -7 -111 3 -58 8 -73 27 -88 13 -11 33 -19
46 -19 39 0 47 -22 24 -66 -44 -83 -61 -148 -66 -256 l-6 -108 37 0 36 0 0 63
c0 244 103 399 245 373 39 -8 99 -55 119 -95 20 -40 28 -98 16 -121 -10 -19
-21 -20 -144 -20 l-134 0 -21 -85 c-11 -46 -21 -91 -21 -100 0 -13 22 -15 153
-15 l154 0 25 48 c113 208 71 514 -79 578 -61 26 -77 20 -101 -39 -21 -50
-105 -147 -117 -135 -3 3 -1 17 5 32 13 36 13 79 -2 110 -12 27 -19 31 -86 41
-33 5 -45 13 -52 31 -15 38 -38 29 -51 -18z"/>
<path d="M830 2785 c-21 -25 -25 -163 -7 -208 15 -35 18 -37 63 -37 40 0 45
-2 39 -17 -23 -54 -35 -123 -30 -165 l6 -48 -45 0 -44 0 -11 -62 c-6 -35 -13
-82 -17 -105 l-7 -43 95 0 c105 0 114 4 143 73 21 51 19 96 -10 179 -28 79
-32 145 -12 172 12 16 26 18 119 14 155 -5 148 6 148 -239 0 -109 4 -200 8
-203 12 -7 48 28 69 67 16 28 18 61 18 262 0 251 -2 261 -58 295 -29 18 -52
20 -217 20 -102 0 -190 4 -196 8 -7 4 -13 16 -15 26 -5 26 -23 30 -39 11z"/>
<path d="M1450 2784 c-21 -24 -25 -162 -7 -207 15 -36 18 -37 66 -37 83 0 83
0 81 -239 -2 -169 0 -205 11 -203 23 6 39 24 60 63 17 34 19 61 19 268 0 126
-4 241 -10 255 -12 33 -58 56 -112 56 -50 0 -63 7 -72 38 -9 26 -19 28 -36 6z"/>
<path d="M1770 2774 c-16 -41 -12 -186 5 -211 13 -19 26 -21 139 -24 104 -3
128 -7 143 -22 16 -16 18 -40 19 -220 2 -164 5 -201 15 -199 24 6 42 26 60 67
16 35 19 69 19 258 0 235 -7 273 -52 299 -14 8 -73 15 -158 18 l-135 5 -13 28
c-16 34 -30 34 -42 1z"/>
<path d="M2265 2776 c-14 -21 -19 -48 -19 -106 0 -86 19 -130 55 -130 17 0 20
-4 15 -22 -27 -89 -21 -261 12 -363 l17 -50 191 -3 c189 -2 190 -2 213 22 13
14 35 66 52 127 39 134 79 229 118 277 61 78 48 181 -26 201 -21 6 -43 11 -50
11 -6 0 -20 11 -31 25 -32 41 -49 32 -62 -31 -21 -100 6 -194 55 -194 31 0 42
-18 20 -34 -9 -6 -40 -49 -68 -96 -62 -100 -96 -123 -180 -118 l-54 3 51 120
c50 114 53 120 82 120 27 0 30 4 42 50 23 92 1 137 -73 150 -27 5 -49 17 -66
38 l-26 30 -18 -27 c-13 -19 -18 -47 -18 -104 -1 -83 11 -117 43 -127 11 -3
20 -10 20 -14 0 -22 -104 -241 -114 -241 -17 0 -53 40 -65 73 -6 16 -11 57
-11 91 0 67 14 92 44 80 21 -8 37 34 39 102 2 64 -18 90 -76 99 -30 5 -50 16
-68 38 l-26 30 -18 -27z"/>
<path d="M3050 2790 c-21 -13 -22 -209 -1 -233 11 -14 34 -17 130 -17 133 0
158 -9 184 -63 23 -46 16 -106 -18 -145 -23 -26 -27 -27 -157 -32 l-133 -5
-22 -90 c-12 -49 -22 -93 -23 -97 0 -5 66 -8 146 -8 130 0 150 2 179 20 38 24
60 55 81 113 38 105 34 349 -6 432 -30 62 -64 75 -194 75 -106 0 -110 1 -139
42 -8 13 -16 15 -27 8z"/>
<path d="M3539 2784 c-19 -23 -19 -182 0 -217 l14 -27 189 0 c103 0 188 -2
188 -5 0 -4 -6 -18 -14 -33 -9 -18 -15 -81 -19 -192 -3 -91 -9 -175 -12 -187
-19 -61 83 5 110 72 20 47 19 101 -6 199 l-21 84 21 47 c24 55 27 121 7 170
-8 19 -16 36 -18 37 -2 1 -88 4 -193 7 l-190 6 -13 28 c-15 31 -24 34 -43 11z"/>
<path d="M3603 2401 c-42 -26 -61 -85 -65 -203 -4 -109 0 -115 54 -76 52 36
68 89 61 193 -3 50 -8 93 -12 97 -4 4 -21 -1 -38 -11z"/>
<path d="M1965 1889 c-126 -19 -225 -97 -225 -179 0 -28 -7 -43 -31 -66 -40
-37 -59 -82 -59 -135 l0 -42 -77 6 c-174 13 -268 86 -249 191 10 52 47 79 114
84 47 3 63 0 91 -20 44 -29 51 -48 17 -48 -31 0 -40 -13 -32 -46 5 -20 12 -25
34 -22 36 4 53 48 32 85 -46 81 -173 98 -240 32 -26 -26 -30 -38 -30 -83 0
-119 127 -206 301 -206 50 0 59 -3 73 -25 9 -14 40 -41 69 -60 155 -103 459
-98 617 11 l52 36 27 -20 c94 -69 225 -107 346 -99 166 11 270 80 277 183 2
28 11 46 29 61 36 31 59 83 59 133 l0 42 89 -4 c151 -7 241 -70 241 -169 0
-21 -8 -47 -21 -62 -39 -50 -140 -58 -195 -15 l-25 20 23 12 c29 14 34 39 13
60 -21 20 -29 20 -50 0 -35 -35 14 -112 85 -133 79 -23 173 25 186 96 9 48
-20 116 -64 153 -51 42 -125 68 -219 76 -73 7 -80 9 -115 45 -72 74 -186 112
-338 112 -148 1 -273 -34 -347 -97 l-32 -27 -38 30 c-51 41 -148 79 -230 91
-76 11 -76 11 -158 -1z m936 -23 c84 -18 151 -50 197 -94 l37 -35 -72 -12
c-39 -7 -93 -20 -121 -29 -35 -12 -56 -14 -74 -7 -13 5 -51 12 -84 16 -32 4
-68 14 -79 21 -11 8 -43 14 -73 14 -43 0 -58 -5 -77 -25 -14 -13 -25 -32 -24
-42 0 -16 1 -15 9 2 16 42 68 60 130 47 l34 -8 -41 -12 c-70 -21 -65 -67 9
-78 21 -4 37 -9 34 -11 -14 -14 -90 -22 -153 -17 -71 6 -71 6 -77 39 -4 18
-20 52 -38 76 -38 53 -33 63 53 107 114 58 273 77 410 48z m-684 -24 c35 -11
86 -34 113 -52 47 -30 50 -34 37 -54 -8 -11 -20 -38 -27 -59 -10 -32 -16 -38
-34 -34 -11 2 -75 19 -140 36 -182 48 -295 50 -398 6 -24 -10 -24 24 -1 72 20
43 71 77 143 98 74 20 224 14 307 -13z m205 -133 c9 -13 25 -41 33 -63 l16
-38 -47 7 c-82 12 -89 23 -57 90 19 39 28 40 55 4z m726 -44 c5 -38 -21 -87
-57 -108 -27 -16 -28 -16 -42 9 -7 15 -38 44 -68 65 -30 21 -48 39 -40 40 8 0
41 6 74 14 33 8 76 13 95 12 31 -2 35 -5 38 -32z m-413 -5 c0 -17 -5 -25 -17
-24 -10 0 -32 1 -48 2 -34 2 -51 29 -29 43 8 5 32 8 54 7 35 -3 40 -6 40 -28z
m105 20 c27 -8 26 -8 -39 -29 -47 -15 -51 -14 -51 14 0 22 4 25 33 24 17 -1
43 -4 57 -9z m-657 -47 c81 -15 147 -29 147 -32 0 -3 -44 -6 -97 -6 -81 0
-104 -4 -133 -20 -19 -12 -72 -29 -117 -40 l-83 -18 -46 29 c-55 34 -93 79
-78 94 14 14 140 29 204 24 30 -3 121 -16 203 -31z m768 0 c27 -14 61 -41 75
-60 l25 -33 -28 -12 c-52 -23 -272 -15 -412 15 -69 15 -127 29 -129 32 -3 3
39 5 94 5 68 0 107 5 124 15 45 26 64 33 130 48 36 8 67 15 69 16 2 0 25 -11
52 -26z m-1180 -34 c12 -17 42 -44 66 -60 l45 -28 -39 -10 c-75 -20 -167 -29
-175 -17 -19 29 1 91 40 123 35 29 36 29 63 -8z m680 -9 c11 0 19 -4 19 -9 0
-10 -55 -5 -105 10 -24 7 -20 8 19 4 27 -3 57 -5 67 -5z m-135 -18 c6 -4 16
-22 22 -39 6 -18 25 -53 41 -77 l31 -44 -47 -31 c-84 -56 -146 -74 -278 -79
-71 -2 -144 0 -176 7 -112 23 -246 108 -209 131 8 5 26 10 39 10 14 0 60 10
103 21 66 18 85 20 123 10 24 -6 58 -11 74 -11 17 0 48 -9 68 -20 45 -24 93
-26 133 -5 28 14 50 58 36 72 -3 4 -6 -3 -6 -15 0 -11 -10 -28 -22 -36 -25
-18 -105 -21 -128 -6 -12 8 -10 10 10 10 30 0 70 26 70 45 0 19 -17 28 -65 36
-39 6 -39 6 -15 17 28 12 179 16 196 4z m124 -22 c19 -5 24 -12 21 -31 -4 -30
-29 -79 -40 -79 -19 0 -71 83 -71 114 0 16 20 15 90 -4z m-378 -41 l5 -30 -41
6 c-82 13 -85 17 -26 36 30 10 56 18 56 18 1 1 4 -13 6 -30z m109 20 c27 -14
9 -36 -38 -45 -39 -7 -70 13 -60 40 7 19 67 22 98 5z m414 -18 c196 -56 325
-66 423 -32 l52 18 0 -24 c0 -61 -61 -123 -143 -148 -70 -21 -225 -21 -297 1
-59 18 -119 45 -162 75 l-27 19 25 43 c13 23 24 50 24 60 0 13 5 17 18 13 9
-2 49 -14 87 -25z"/>
<path d="M3777 1532 c-22 -24 -21 -45 1 -65 35 -32 92 -11 92 33 0 45 -62 66
-93 32z"/>
<path d="M957 1522 c-22 -24 -22 -45 1 -65 25 -23 55 -21 77 3 15 16 17 26 9
48 -12 34 -61 43 -87 14z"/>
<path d="M1133 1395 c-29 -21 -29 -30 3 -68 l26 -31 -24 -21 c-14 -11 -42 -34
-64 -52 -32 -26 -36 -32 -18 -32 27 -1 154 97 154 119 0 9 -11 27 -24 39 -14
13 -26 32 -28 43 -3 17 -5 18 -25 3z"/>
<path d="M3638 1369 c-18 -23 -41 -44 -52 -48 -17 -7 -17 -8 -1 -24 25 -26 47
-20 80 22 l30 37 45 -33 c25 -19 53 -41 63 -49 23 -19 27 -18 27 6 0 14 -15
29 -47 48 -26 15 -59 39 -72 55 -14 15 -29 27 -33 27 -4 0 -22 -19 -40 -41z"/>
<path d="M1229 1269 c-20 -20 -20 -21 -3 -40 14 -15 16 -24 8 -37 -17 -26 -61
-39 -85 -24 -14 9 -25 10 -39 2 -24 -13 -25 -23 -4 -41 12 -10 22 -10 47 -1
39 15 42 11 17 -21 -11 -14 -16 -28 -11 -31 5 -4 20 8 33 25 13 18 43 51 67
75 l45 43 -23 25 c-13 13 -20 29 -16 35 11 19 -14 12 -36 -10z"/>
<path d="M3517 1240 c-19 -16 -40 -30 -46 -30 -8 0 -9 -5 -2 -19 18 -32 39
-32 76 1 l36 31 59 -52 c48 -42 60 -49 60 -33 0 20 -118 132 -139 132 -6 0
-26 -13 -44 -30z"/>
<path d="M3677 1255 c-6 -13 56 -75 75 -75 21 0 4 31 -31 59 -31 24 -40 28
-44 16z"/>
<path d="M1328 1189 c-20 -11 -24 -45 -6 -51 8 -3 -1 -20 -22 -46 -33 -38 -36
-40 -53 -24 -13 12 -22 13 -34 6 -27 -17 -25 -29 7 -52 24 -18 34 -20 50 -12
11 6 20 15 20 21 0 5 20 32 45 58 49 52 53 62 30 81 -8 7 -12 16 -9 21 7 12
-7 11 -28 -2z"/>
<path d="M3397 1135 c-16 -14 -33 -23 -38 -20 -15 10 -10 -23 7 -39 17 -17 40
-10 64 18 18 23 33 20 63 -12 34 -36 34 -45 -4 -75 -24 -19 -30 -29 -24 -46 3
-11 10 -21 14 -21 11 0 111 80 111 88 0 4 -7 15 -14 25 -10 12 -16 15 -21 7
-5 -8 -12 -3 -23 12 -28 42 -76 88 -91 88 -9 0 -29 -12 -44 -25z"/>
<path d="M1407 1128 c-21 -11 -22 -36 -1 -59 15 -17 14 -19 -17 -33 -33 -14
-33 -14 -8 -15 30 -1 79 33 79 56 0 8 -8 25 -18 38 -14 17 -22 21 -35 13z"/>
<path d="M1603 1095 c-3 -9 -3 -18 0 -22 4 -3 -5 -20 -18 -38 -35 -44 -31 -61
16 -85 28 -15 39 -26 35 -36 -3 -9 -6 -17 -6 -19 0 -2 -17 -7 -37 -11 -46 -8
-83 -30 -83 -49 0 -26 19 -26 42 0 12 14 30 25 39 25 32 0 65 21 83 51 23 38
16 53 -34 79 -22 11 -40 22 -40 25 0 2 11 16 25 30 20 23 22 30 12 46 -14 23
-26 24 -34 4z"/>
<path d="M1480 1065 c-11 -13 -11 -20 0 -41 13 -23 10 -29 -28 -84 -23 -32
-38 -61 -33 -65 5 -3 17 2 26 11 24 24 95 131 95 143 0 10 -35 51 -44 51 -2 0
-9 -7 -16 -15z"/>
<path d="M3218 1023 c-10 -2 -18 -10 -18 -18 0 -22 27 -36 54 -29 18 4 26 2
27 -7 1 -8 2 -18 4 -24 1 -5 3 -14 4 -20 1 -5 6 0 12 13 6 16 4 34 -6 58 -14
34 -30 40 -77 27z"/>
<path d="M3130 984 c0 -21 23 -54 38 -54 17 0 19 -6 14 -52 -3 -38 -10 -58
-26 -70 -21 -17 -21 -17 -30 39 -6 41 -5 57 4 63 22 14 -5 45 -39 45 -17 0
-31 -3 -31 -7 0 -19 21 -59 29 -54 9 6 25 -93 16 -102 -3 -3 -16 4 -28 16 -16
16 -22 35 -22 65 0 41 -1 42 -37 45 -33 3 -36 1 -31 -18 3 -11 13 -26 22 -33
9 -7 24 -28 34 -47 10 -20 28 -47 40 -62 l22 -26 53 24 52 24 0 94 c0 65 -4
97 -12 103 -13 7 -68 14 -68 7z"/>
<path d="M1780 909 c-14 -26 0 -45 41 -54 17 -4 33 -13 35 -20 3 -7 -6 -41
-20 -75 -27 -65 -27 -76 -3 -67 16 6 70 150 65 174 -2 9 -22 23 -45 31 -24 7
-43 18 -43 23 0 17 -19 9 -30 -12z"/>
<path d="M2470 882 c0 -11 7 -23 16 -26 8 -3 12 -11 9 -17 -4 -5 -4 -26 -1
-45 7 -34 7 -34 60 -34 70 0 77 -17 30 -70 -37 -41 -42 -72 -11 -78 13 -3 17
3 17 24 0 17 11 39 27 56 20 20 27 38 26 63 -2 54 -16 65 -74 58 l-49 -6 0 42
c0 22 -4 41 -9 41 -5 0 -16 3 -25 6 -11 4 -16 0 -16 -14z"/>
<path d="M2900 879 c-14 -6 -33 -8 -43 -5 -15 4 -18 -1 -15 -22 3 -28 20 -32
87 -21 22 4 27 -3 49 -61 29 -77 29 -77 43 -63 7 7 1 33 -17 84 -38 105 -46
111 -104 88z"/>
<path d="M1937 873 c-15 -15 -7 -55 13 -60 25 -7 25 -11 -2 -40 -16 -17 -18
-23 -6 -23 45 0 80 96 38 107 -11 3 -20 9 -20 14 0 11 -14 12 -23 2z"/>
<path d="M2760 834 c0 -13 7 -27 16 -32 12 -7 14 -14 8 -25 -8 -14 -17 -11
-62 23 -48 37 -52 38 -62 21 -8 -16 -4 -24 19 -44 20 -17 26 -28 20 -38 -12
-19 -11 -66 1 -74 6 -4 8 -15 5 -25 -5 -14 -1 -16 21 -12 35 6 40 26 15 58
-20 26 -28 54 -15 54 11 0 102 -70 106 -82 6 -17 28 0 28 22 0 10 -13 30 -30
43 -34 29 -37 48 -14 71 24 24 13 49 -24 57 -29 6 -32 4 -32 -17z"/>
<path d="M2030 835 c-10 -12 -9 -20 5 -41 16 -25 16 -27 -4 -48 -12 -13 -21
-36 -21 -54 0 -18 -4 -32 -10 -32 -5 0 -10 -4 -10 -10 0 -5 16 -10 36 -10 l36
0 -6 45 c-11 69 3 74 40 14 19 -30 34 -60 34 -66 0 -18 15 -16 30 2 11 13 10
22 -3 51 -24 48 -21 61 13 79 38 20 38 39 0 59 -28 13 -31 13 -41 -5 -7 -15
-7 -24 1 -34 11 -14 6 -35 -9 -35 -4 0 -20 22 -36 50 -33 54 -37 57 -55 35z"/>
<path d="M2214 805 c-7 -28 1 -45 22 -45 17 0 17 0 0 -36 -8 -16 -18 -49 -22
-73 -6 -35 -4 -43 7 -39 7 2 17 24 21 48 11 61 32 90 68 90 37 0 65 -38 56
-75 -6 -22 -12 -25 -52 -25 -31 0 -46 -5 -51 -15 -8 -22 0 -27 51 -32 45 -5
46 -5 61 30 17 42 20 110 5 137 -6 11 -19 24 -30 30 -17 9 -24 6 -45 -17 -23
-27 -24 -27 -25 -6 0 14 -11 27 -30 37 -29 14 -30 14 -36 -9z"/>
</g>
</svg>
