<?xml version="1.0" encoding="UTF-8"?>
<svg width="136" height="90" enable-background="new 0 0 841.89 595.275" version="1.1" viewBox="0 0 136 90" xml:space="preserve" xmlns="http://www.w3.org/2000/svg" xmlns:cc="http://creativecommons.org/ns#" xmlns:dc="http://purl.org/dc/elements/1.1/" xmlns:rdf="http://www.w3.org/1999/02/22-rdf-syntax-ns#"><metadata><rdf:RDF><cc:Work rdf:about=""><dc:format>image/svg+xml</dc:format><dc:type rdf:resource="http://purl.org/dc/dcmitype/StillImage"/><dc:title/></cc:Work></rdf:RDF></metadata>
<path d="m84.7 43.696c0 6.6442-5.6593 11.358-16.172 11.358-9.076 0-16.172-5.0849-16.172-11.358 0-6.2729 7.096-10.834 16.172-10.834 9.0757 0 16.172 4.5609 16.172 10.834z" fill="#fff" stroke-width=".055478"/><g fill="#006f51"><polygon transform="matrix(1.0142 0 0 1.0142 -357.48 -244.03)" points="371.33 301.58 378.77 301.58 378.77 288.27 379.1 288.72 389.15 301.58 398.8 301.58 385.95 286.13 397.72 272.26 388.51 272.26 379.1 284.49 378.77 284.94 378.77 272.26 371.33 272.26"/><polygon transform="matrix(1.0142 0 0 1.0142 -357.48 -244.03)" points="447.58 272.26 459.69 301.58 466.28 301.58 478.49 272.26 470.4 272.26 463.02 290.56 455.68 272.26"/><g stroke-width=".24657"><path d="m70.488 41.19c0-5.7741-3.7862-9.0826-10.383-9.0826h-11.63v29.735h7.5521v-12.102l0.34586 0.53755 7.4537 11.564h15.782l2.0944-5.2234h11.107l1.9747 5.2234h8.0531l-11.311-29.735h-8.3848l-8.6495 22.273c-0.0862 0.18865-0.17648 0.41077-0.27385 0.66433-0.93209 2.4382-1.7506 3.5225-2.6502 3.5276-0.83473 0-1.5853-0.89862-2.5508-2.1664l-0.0497-0.0426-5.266-6.7914 0.27993-0.0487c3.9566-0.69882 6.5064-3.9698 6.5064-8.333zm16.805-0.57001h0.0203l3.4809 10.355h-7.0419zm-30.33 4.9698h-0.93513v-7.8422h0.93513c2.4251 0 5.6504 0.40874 5.6504 3.9241 0 3.5113-3.2253 3.918-5.6504 3.918z"/><path d="m135.99 44.144c0-24.667-30.005-44.144-66.94-44.144-31.85 0-57.447 17.542-62.672 32.872 1.0721-8.9893 10.088-21.48 25.189-28.475-20.656 7.7874-31.563 22.303-31.563 38.991 0 13.31 8.4639 25.293 21.976 33.678 12.089 7.9943 28.716 12.935 47.071 12.935 5.1929 0 10.243-0.39455 15.097-1.1491 13.015-1.5234 22.315-5.2883 30.106-10.116 2.4697-1.5498 4.7609-3.2304 6.8492-5.0175-1.7536 1.353-3.8085 2.6056-5.8106 3.8054-11.197 5.8431-26.19 8.5886-42.998 8.5886-34.791 0-62.996-15.767-62.996-37.313 0-20.045 22.045-34.95 52.967-36.877 36.758-2.2902 51.052 12.975 52.783 15.434-7.5298-11.265-22.964-19.933-53.498-18.899-19.804 0.66839-39.48 8.3594-48.49 19.438 8.3564-14.498 31.779-24.106 57.561-24.106 35.69 0 64.25 17.31 64.25 40.521 0 6.5703-1.4656 12.289-4.1391 17.217 3.3835-5.3461 5.2578-11.217 5.2578-17.382z"/><path d="m125.03 61.842c2.068 0 3.6979-1.6309 3.6979-3.6868 0-2.0549-1.6299-3.6878-3.6979-3.6878-2.0609 0-3.6949 1.6329-3.6949 3.6878 9.9e-4 2.0559 1.634 3.6868 3.6949 3.6868zm0-6.7752c1.6908 0 3.0975 1.3418 3.0975 3.0874 0 1.7354-1.4068 3.0884-3.0975 3.0884-1.6867 0-3.0975-1.353-3.0975-3.0884 9.8e-4 -1.7445 1.4108-3.0874 3.0975-3.0874z"/><path d="m124.2 58.343h0.77184l1.0589 1.9159h0.68563l-1.0528-1.9159c0.55479-0.0182 1.1096-0.31847 1.1096-1.1349 0-0.87225-0.67447-1.0984-1.426-1.0984h-1.7475v4.1483h0.60144v-1.9149zm0-1.6329h1.0325c0.498 0 0.93919 0.0385 0.93919 0.56291 0 0.56291-0.76879 0.4696-1.3327 0.4696h-0.63797v-1.0325z"/></g></g></svg>
