<?xml version="1.0" encoding="UTF-8"?>
<svg width="232px" height="232px" viewBox="0 0 232 232" version="1.1" xmlns="http://www.w3.org/2000/svg" xmlns:xlink="http://www.w3.org/1999/xlink">
    <!-- Generator: Sketch 63.1 (92452) - https://sketch.com -->
    <title>Artboard</title>
    <desc>Created with Sketch.</desc>
    <g id="Artboard" stroke="none" stroke-width="1" fill="none" fill-rule="evenodd">
        <g id="Group" transform="translate(6.000000, 37.000000)">
            <g id="g18" transform="translate(110.000000, 80.461766) scale(-1, 1) rotate(-180.000000) translate(-110.000000, -80.461766) translate(0.000000, 2.461766)" fill="#FFFFFF" stroke="#FFFFFF" stroke-width="1.6919242">
                <path d="M0.0377071156,69.8899384 C0.0377071156,30.4339707 34.077194,0.0613876821 89.2846777,0.0613876821 C144.491659,0.0613876821 219.722688,27.8792221 219.722688,88.9075434 C219.722688,149.935367 145.637303,155.613416 129.901954,155.613416 C65.2563986,155.613416 0.0377071156,123.537418 0.0377071156,69.8899384" id="path20"></path>
            </g>
            <path d="M5.85900625,73.09925 C5.85900625,35.734 38.0948813,6.97125 90.3761313,6.97125 C142.656881,6.97125 213.900631,33.314625 213.900631,91.108375 C213.900631,148.903375 143.740631,154.278375 128.841881,154.278375 C67.6217563,154.278375 5.85900625,123.903375 5.85900625,73.09925" id="path16" fill="#ED1C24" transform="translate(109.879819, 80.624812) scale(-1, 1) rotate(-180.000000) translate(-109.879819, -80.624812) "></path>
            <g id="g18" transform="translate(109.921575, 80.637625) scale(-1, 1) rotate(-180.000000) translate(-109.921575, -80.637625) translate(0.000000, 2.813484)" stroke="#ED1C24" stroke-width="1.6919242">
                <path d="M0.0377071156,69.8899384 C0.0377071156,30.4339707 34.077194,0.0613876821 89.2846777,0.0613876821 C144.491659,0.0613876821 219.722688,27.8792221 219.722688,88.9075434 C219.722688,149.935367 145.637303,155.613416 129.901954,155.613416 C65.2563986,155.613416 0.0377071156,123.537418 0.0377071156,69.8899384" id="path20"></path>
            </g>
            <path d="M12.9855063,82.1192591 C13.0913813,82.1042591 13.1988813,82.0992591 13.3038813,82.0842591 C15.6505063,81.7592591 16.8223813,80.6792591 16.6261313,79.2913841 C16.4337563,77.9310091 15.0177563,77.2030091 12.7960063,77.5115091 C10.5743813,77.8201341 9.40688125,78.9266341 9.60950625,80.3617591 C9.74763125,81.3430091 10.4542563,81.9705091 11.6538813,82.1342591 L12.0533813,80.8705091 C11.3570063,80.8642591 10.9801313,80.6242591 10.9132563,80.1517591 C10.8111313,79.4292591 11.5001313,79.0315091 12.9811313,78.8260091 C14.4625063,78.6195091 15.2540063,78.8782591 15.3467563,79.5355091 C15.4278813,80.1105091 14.9688813,80.5417591 14.0167563,80.6730091 L13.8512563,79.4980091 L12.6392563,79.6667591 L12.9855063,82.1192591" id="path22" fill="#FFFFFF" transform="translate(13.117109, 79.787755) scale(-1, 1) rotate(-180.000000) translate(-13.117109, -79.787755) "></path>
            <path d="M15.0772563,75.6725 C14.0411313,76.09375 13.0382563,76.48875 12.0782563,76.85375 C13.1691313,76.6975 14.2403813,76.585 15.2877563,76.53625 L15.0772563,75.6725 Z M16.8848813,73.4125 L17.1993813,74.7025 L16.0675063,75.18625 L16.3843813,76.48375 L17.6172563,76.42 L17.9312563,77.71 L10.8512563,77.88875 L10.5216313,76.53375 L16.8848813,73.4125" id="path24" fill="#FFFFFF" transform="translate(14.226444, 75.650625) scale(-1, 1) rotate(-180.000000) translate(-14.226444, -75.650625) "></path>
            <path d="M14.7496313,70.6363219 L12.9273813,71.2463219 C12.9396313,71.3113219 12.9571313,71.3638219 12.9752563,71.4175719 C13.1651313,71.9750719 13.5226313,72.1225719 14.1481313,71.9125719 C14.7735063,71.7038219 14.9908813,71.3150719 14.8067563,70.7750719 C14.7916313,70.7300719 14.7647563,70.6813219 14.7496313,70.6363219 L14.7496313,70.6363219 Z M18.0518813,68.1700719 L18.4678813,69.3925719 L15.7437563,70.3038219 L18.8165063,70.4200719 L19.2677563,71.7488219 L15.8648813,71.5363219 C15.8663813,72.2950719 15.4038813,72.8050719 14.4840063,73.1125719 C13.1583813,73.5563219 12.4117563,73.0763219 11.9361313,71.6763219 L11.4908813,70.3650719 L18.0518813,68.1700719" id="path26" fill="#FFFFFF" transform="translate(15.379319, 70.721286) scale(-1, 1) rotate(-180.000000) translate(-15.379319, -70.721286) "></path>
            <path d="M17.8126313,66.96125 C16.8653813,67.555 15.9463813,68.11625 15.0646313,68.64125 C16.1118813,68.3 17.1476313,68.00375 18.1705063,67.77625 L17.8126313,66.96125 Z M19.1973813,64.42375 L19.7325063,65.64125 L18.7022563,66.31125 L19.2413813,67.53625 L20.4440063,67.26 L20.9786313,68.47625 L14.0372563,69.87125 L13.4762563,68.59375 L19.1973813,64.42375" id="path28" fill="#FFFFFF" transform="translate(17.227444, 67.147500) scale(-1, 1) rotate(-180.000000) translate(-17.227444, -67.147500) "></path>
            <path d="M15.0680062,61.9 L15.7212563,63.08 L19.6422563,62.4775 C19.8653813,62.44125 20.3512563,62.3375 21.0928813,62.155 C20.2208813,62.48125 19.4610063,62.81125 18.8062563,63.16875 L16.4737563,64.44 L17.0728813,65.52125 L23.1412563,62.21125 L22.5421313,61.13 L18.4391313,61.705 C18.3141313,61.71875 17.9278813,61.82375 17.2760063,61.9875 C17.8658813,61.75125 18.4962563,61.4275 19.1768813,61.05625 L21.7301312,59.665 L21.1358812,58.59125 L15.0680062,61.9" id="path30" fill="#FFFFFF" transform="translate(19.104631, 62.056250) scale(-1, 1) rotate(-180.000000) translate(-19.104631, -62.056250) "></path>
            <polyline id="path32" fill="#FFFFFF" transform="translate(21.186944, 57.740000) scale(-1, 1) rotate(-180.000000) translate(-21.186944, -57.740000) " points="19.2780063 57.94625 18.7135063 57.095 17.6422563 57.79375 19.5128813 60.6125 20.5836313 59.9125 20.0186313 59.0625 24.7316313 55.98375 23.9908813 54.8675 19.2780063 57.94625"></polyline>
            <polyline id="path34" fill="#FFFFFF" transform="translate(23.294756, 55.567500) scale(-1, 1) rotate(-180.000000) translate(-23.294756, -55.567500) " points="20.1021313 57.05875 20.9122563 58.15125 26.4873813 54.07625 25.6768813 52.98375 20.1021313 57.05875"></polyline>
            <polyline id="path36" fill="#FFFFFF" transform="translate(25.324569, 52.976250) scale(-1, 1) rotate(-180.000000) translate(-25.324569, -52.976250) " points="21.7501313 54.06625 23.5391313 56.23625 24.5313813 55.43125 23.5655063 54.25875 24.6481313 53.38 25.5245063 54.44375 26.5093813 53.645 25.6325063 52.58125 26.8882563 51.5625 27.8541313 52.73375 28.8990063 51.88625 27.1100063 49.71625 21.7501313 54.06625"></polyline>
            <path d="M30.5436313,47.617876 L30.4722563,46.672876 L31.5416313,46.605376 C31.5025063,46.551626 31.4561313,46.492876 31.4097563,46.446626 C30.9503813,45.989126 30.1891313,46.226626 29.1846313,47.220376 C28.0631313,48.327876 27.7316313,49.104126 28.2306313,49.601626 C28.7091313,50.077876 29.4918813,49.792876 30.5513813,48.745376 C30.9503813,48.350376 31.2813812,47.970376 31.4981313,47.559126 L30.5436313,47.617876 L30.5436313,47.617876 Z M33.8741313,47.412876 L32.8390063,47.472876 C32.7731313,48.145376 32.3408813,48.849126 31.5503813,49.631626 C29.8785063,51.284126 28.3453813,51.559126 27.3013813,50.519126 C26.2911313,49.512876 26.5406313,47.972876 28.0821312,46.450376 C29.7330062,44.816626 31.2798812,44.527876 32.3175063,45.561626 C32.6095062,45.852876 32.8008813,46.151626 32.8692562,46.506626 L33.8238812,46.446626 L33.8741313,47.412876" id="path38" fill="#FFFFFF" transform="translate(30.284976, 48.044563) scale(-1, 1) rotate(-180.000000) translate(-30.284976, -48.044563) "></path>
            <path d="M35.9048813,44.4563396 C36.3966313,43.8975896 36.7530063,43.4775896 36.8600063,43.0713396 C37.0582563,42.3475896 36.7950063,41.7238396 36.0777563,41.1025896 C35.3610063,40.4813396 34.6945063,40.3013396 33.9996313,40.5950896 C33.6026313,40.7625896 33.2311313,41.1700896 32.7462563,41.7225896 L29.8858813,44.9750896 L30.8941313,45.8475896 L33.8243813,42.5150896 C34.4117563,41.8463396 34.7476313,41.5488396 35.2803813,42.0100896 C35.7985063,42.4588396 35.5870063,42.8125896 34.9737563,43.5100896 L32.0441313,46.8438396 L33.0445063,47.7100896 L35.9048813,44.4563396" id="path40" fill="#FFFFFF" transform="translate(33.404917, 44.083795) scale(-1, 1) rotate(-180.000000) translate(-33.404917, -44.083795) "></path>
            <path d="M37.8810062,41.06 C37.3365062,42.03125 36.8013812,42.96125 36.2808813,43.84125 C37.0352563,43.04375 37.8008813,42.29125 38.5880062,41.60375 L37.8810062,41.06 Z M37.8692562,38.175 L38.9268813,38.9875 L38.3467562,40.06625 L39.4122562,40.88375 L40.3341312,40.07 L41.3912562,40.8825 L35.9742562,45.41 L34.8643812,44.55625 L37.8692562,38.175" id="path42" fill="#FFFFFF" transform="translate(38.127819, 41.792500) scale(-1, 1) rotate(-180.000000) translate(-38.127819, -41.792500) "></path>
            <polyline id="path44" fill="#FFFFFF" transform="translate(40.907319, 39.290000) scale(-1, 1) rotate(-180.000000) translate(-40.907319, -39.290000) " points="37.7432563 41.715 38.8277563 42.475 42.0460063 37.95875 43.2916313 38.83375 44.0713813 37.74 41.7408813 36.105 37.7432563 41.715"></polyline>
            <polyline id="path46" fill="#FFFFFF" transform="translate(43.180006, 37.316250) scale(-1, 1) rotate(-180.000000) translate(-43.180006, -37.316250) " points="40.7012563 39.80875 41.8408813 40.55625 45.6587563 34.825 44.5196313 34.07625 40.7012563 39.80875"></polyline>
            <polyline id="path48" fill="#FFFFFF" transform="translate(45.410256, 35.357500) scale(-1, 1) rotate(-180.000000) translate(-45.410256, -35.357500) " points="44.1295063 36.58 43.2550063 36.045 42.5821313 37.1275 45.4762563 38.9 46.1495063 37.81625 45.2755063 37.2825 48.2383813 32.51625 47.0918813 31.815 44.1295063 36.58"></polyline>
            <path d="M47.0411313,35.175 L46.5088813,34.875 L46.3843813,36.81125 L47.3668813,37.36625 L47.0411313,35.175 L47.0411313,35.175 Z M46.2066313,33.98375 L48.6632563,35.37125 L49.2975063,34.265 L47.9708813,33.51625 L48.6632563,32.31 L49.8663813,32.99 L50.4957563,31.89375 L49.2921313,31.2125 L50.0943813,29.815 L51.4210063,30.56375 L52.0885063,29.4 L49.6328813,28.01125 L46.2066313,33.98375" id="path50" fill="#FFFFFF" transform="translate(49.147569, 32.688750) scale(-1, 1) rotate(-180.000000) translate(-49.147569, -32.688750) "></path>
            <path d="M53.7506313,28.8171034 C54.1802563,28.6971034 54.5362563,28.7021034 54.8395063,28.8533534 C55.2516313,29.0596034 55.3741313,29.4221034 55.1861313,29.7921034 C54.9678813,30.2221034 54.5606313,30.2358534 54.0416313,30.3858534 C53.1138813,30.6571034 52.5498813,30.9571034 52.1617563,31.7233534 C51.6251313,32.7821034 51.9025063,33.8171034 52.8448813,34.2871034 C53.1900063,34.4596034 53.5621313,34.5158534 54.0075063,34.4896034 L54.5567563,33.4046034 C54.1251313,33.4046034 53.8282563,33.3858534 53.6177563,33.2808534 C53.2731313,33.1096034 53.1510063,32.7471034 53.3341313,32.3846034 C53.5480063,31.9633534 53.9522563,31.8521034 54.5606313,31.6921034 C55.4117563,31.4696034 55.9522563,31.2971034 56.3887563,30.4358534 C56.9473813,29.3333534 56.6568813,28.3046034 55.5797563,27.7671034 C55.1753813,27.5658534 54.7911313,27.4921034 54.3966313,27.5433534 L53.7506313,28.8171034" id="path52" fill="#FFFFFF" transform="translate(54.278746, 31.011677) scale(-1, 1) rotate(-180.000000) translate(-54.278746, -31.011677) "></path>
            <path d="M60.5748813,28.6012379 C60.8873813,27.9274879 61.1090063,27.4224879 61.0953813,27.0049879 C61.0792563,26.2537379 60.6481313,25.7299879 59.7828813,25.3362379 C58.9181313,24.9424879 58.2271312,24.9574879 57.6441313,25.4349879 C57.3116313,25.7074879 57.0718813,26.2024879 56.7642563,26.8687379 L54.9522563,30.7937379 L56.1681313,31.3462379 L58.0250063,27.3249879 C58.3971313,26.5187379 58.6348813,26.1399879 59.2770062,26.4312379 C59.9020062,26.7162379 59.8008813,27.1149879 59.4122562,27.9562379 L57.5552562,31.9774879 L58.7623813,32.5262379 L60.5748813,28.6012379" id="path54" fill="#FFFFFF" transform="translate(58.024116, 28.791869) scale(-1, 1) rotate(-180.000000) translate(-58.024116, -28.791869) "></path>
            <path d="M62.2262562,27.881643 L61.4893812,29.644143 C61.5333812,29.661643 61.5728812,29.687893 61.6163812,29.706643 C62.1735062,29.935393 62.5441312,29.754143 62.7936312,29.159143 C63.0391312,28.570393 62.8825062,28.141643 62.3600062,27.926643 C62.3170062,27.907893 62.2691312,27.899143 62.2262562,27.881643 L62.2262562,27.881643 Z M62.5280062,23.790393 L63.7291312,24.284143 L62.6280062,26.919143 C62.7271312,26.950393 62.8228812,26.990393 62.9097563,27.025393 C64.0670063,27.501643 64.4512563,28.462893 63.9522563,29.656643 C63.4278812,30.911643 62.5211313,31.226643 61.1637563,30.667893 L59.8756313,30.137893 L62.5280063,23.790393" id="path56" fill="#FFFFFF" transform="translate(62.020938, 27.362072) scale(-1, 1) rotate(-180.000000) translate(-62.020938, -27.362072) "></path>
            <path d="M64.9957563,27.225 L64.4230063,27.00875 L64.5992563,28.94125 L65.6558813,29.34 L64.9957563,27.225 Z M63.9873813,26.17375 L66.6285063,27.17125 L67.0846313,25.98125 L65.6583813,25.44375 L66.1553813,24.14625 L67.4498813,24.635 L67.9020063,23.455 L66.6075063,22.9675 L67.1837563,21.4625 L68.6105063,22.00125 L69.0905063,20.74875 L66.4488813,19.7525 L63.9873813,26.17375" id="path58" fill="#FFFFFF" transform="translate(66.538944, 24.546250) scale(-1, 1) rotate(-180.000000) translate(-66.538944, -24.546250) "></path>
            <path d="M69.8326313,24.9875937 L69.2007563,26.7888437 C69.2593813,26.8200937 69.3126313,26.8388437 69.3668813,26.8575937 C69.9268813,27.0513437 70.2628813,26.8613437 70.4801312,26.2413437 C70.6968813,25.6225937 70.5211312,25.2150937 69.9786313,25.0275937 C69.9342563,25.0125937 69.8775063,25.0025937 69.8326313,24.9875937 Z M69.8956313,20.8863437 L71.1231313,21.3100937 L70.1778813,24.0050937 L72.1553813,21.6675937 L73.4898813,22.1288437 L71.2330063,24.6650937 C71.8380063,25.1300937 71.9601313,25.8038437 71.6407563,26.7138437 C71.1807563,28.0250937 70.3405063,28.3163437 68.9351313,27.8300937 L67.6182563,27.3750937 L69.8956313,20.8863437" id="path60" fill="#FFFFFF" transform="translate(70.554069, 24.468797) scale(-1, 1) rotate(-180.000000) translate(-70.554069, -24.468797) "></path>
            <polyline id="path62" fill="#FFFFFF" transform="translate(73.643694, 23.161875) scale(-1, 1) rotate(-180.000000) translate(-73.643694, -23.161875) " points="71.9327563 26.225 73.2325063 26.64 75.3546313 20.09875 74.0547563 19.68375 71.9327563 26.225"></polyline>
            <polyline id="path64" fill="#FFFFFF" transform="translate(76.796256, 22.191875) scale(-1, 1) rotate(-180.000000) translate(-76.796256, -22.191875) " points="74.4507562 25.0825 77.1587562 25.885 77.5260062 24.6675 76.0636313 24.2325 76.4640062 22.90375 77.7906313 23.29625 78.1553813 22.0875 76.8287563 21.69375 77.2931313 20.15125 78.7555063 20.58625 79.1417563 19.3025 76.4342563 18.49875 74.4507563 25.0825"></polyline>
            <path d="M83.3106313,20.3432555 C83.5040063,19.6270055 83.6387563,19.0945055 83.5547563,18.6820055 C83.4122563,17.9457555 82.8990063,17.5007555 81.9806313,17.2557555 C81.0611313,17.0107555 80.3828813,17.1395055 79.8882563,17.7070055 C79.6056313,18.0307555 79.4527563,18.5582555 79.2618813,19.2657555 L78.1338813,23.4357555 L79.4258813,23.7795055 L80.5816313,19.5070055 C80.8131313,18.6507555 80.9835063,18.2382555 81.6656313,18.4182555 C82.3297563,18.5957555 82.2970063,19.0057555 82.0552563,19.8995055 L80.8995063,24.1720055 L82.1827563,24.5132555 L83.3106313,20.3432555" id="path66" fill="#FFFFFF" transform="translate(80.857051, 20.825378) scale(-1, 1) rotate(-180.000000) translate(-80.857051, -20.825378) "></path>
            <path d="M85.2780063,20.507601 L84.8336313,22.363851 C84.8956313,22.388851 84.9507563,22.401351 85.0060063,22.415101 C85.5831313,22.550101 85.8976313,22.327601 86.0503813,21.690101 C86.2027563,21.051351 85.9855063,20.665101 85.4263813,20.532601 C85.3810063,20.522601 85.3238813,20.517601 85.2780063,20.507601 L85.2780063,20.507601 Z M84.9186313,16.421351 L86.1832562,16.720101 L85.5196313,19.495101 L87.2462563,16.970101 L88.6212563,17.293851 L86.6368813,20.045101 C87.2867562,20.446351 87.4781313,21.105101 87.2540063,22.042601 C86.9307563,23.392601 86.1251313,23.767601 84.6768813,23.426351 L83.3203813,23.107601 L84.9186313,16.421351" id="path68" fill="#FFFFFF" transform="translate(85.970819, 19.983176) scale(-1, 1) rotate(-180.000000) translate(-85.970819, -19.983176) "></path>
            <polyline id="path70" fill="#FFFFFF" transform="translate(89.808756, 18.916250) scale(-1, 1) rotate(-180.000000) translate(-89.808756, -18.916250) " points="87.7096313 21.9875 90.4742563 22.5675 90.7393813 21.32375 89.2467563 21.01125 89.5362563 19.6525 90.8907563 19.93625 91.1548813 18.7025 89.7998813 18.4175 90.1358813 16.8425 91.6285063 17.15625 91.9078813 15.84625 89.1431313 15.265 87.7096313 21.9875"></polyline>
            <path d="M136.116881,83.76225 C156.301881,91.53475 171.755631,103.4335 173.370631,122.776 C174.986881,142.1185 148.409381,146.331 122.413131,145.8085 L122.210631,157.88475 L100.768131,157.74475 C98.8467562,84.431 75.4361312,46.149375 23.1891313,0.13325 L58.0128812,0 C77.9888813,19.641625 103.864381,21.80375 117.648131,21.307625 L133.451881,38.49125 C142.080631,25.119125 153.369381,11.5625 168.300631,0.334 L203.533131,0.182625 C174.223131,23.346125 150.878131,46.203625 136.116881,83.76225 Z M121.605631,122.1285 C134.201881,122.51225 143.715631,123.25725 143.359381,116.32225 C143.001881,109.38725 127.080631,100.37975 116.735631,99.67725 C116.735631,99.67725 120.630631,115.2235 121.605631,122.1285 L121.605631,122.1285 Z M92.1148812,41.827625 C101.938631,56.4595 108.301881,71.88725 111.744256,82.7535 C115.198131,73.816875 120.096881,61.616625 127.370631,48.606375 C116.795631,48.6675 103.453256,46.49025 92.1148812,41.827625" id="path104" stroke="#ED1C24" stroke-width="1.692" fill="#FFFFFF" transform="translate(113.361131, 78.942375) scale(-1, 1) rotate(-180.000000) translate(-113.361131, -78.942375) "></path>
            <path d="M21.2677563,69.6936621 C20.8160063,71.3137871 20.7052563,76.1980371 20.9967563,81.8425371 C24.2647563,85.5935371 26.6533813,89.8030371 29.7896313,99.1824121 C34.6715063,113.781662 32.4493813,119.566662 31.6705063,119.909162 C30.7598813,120.257912 25.0362563,116.792912 19.4698813,98.4524121 C17.3873813,91.5896621 16.4981313,85.7751621 16.2852563,81.0105371 C14.9410063,79.5172871 13.4663813,77.9641621 11.8477563,76.3322871 C11.8477563,76.3322871 11.2422563,75.7282871 12.4712563,74.9831621 C13.6993813,74.2370371 13.7110063,74.6931621 14.4450063,75.1965371 C15.0821313,75.8259121 15.6856313,76.4152871 16.2623813,76.9777871 C16.4453813,71.8922871 17.4225063,68.3967871 18.2368813,66.5100371 C18.4240063,66.0784121 18.5362563,65.3312871 19.3356313,65.8327871 C20.1358813,66.3337871 21.2808813,67.5451621 21.7071313,68.9021621 C21.7071313,68.9021621 21.5103813,68.9070371 21.2677563,69.6936621 Z M22.3297563,94.6086621 C23.9366313,104.011537 28.3413813,112.501662 28.8653813,112.4556 C29.6553813,112.387912 29.3292563,107.267912 27.4757562,99.7917871 C26.4293813,95.5725371 24.5098813,91.5915371 21.3882563,87.2600371 C21.6226313,89.7790371 21.9342563,92.2941621 22.3297562,94.6086621" id="path106" fill="#FFFFFF" transform="translate(22.276678, 92.798956) scale(-1, 1) rotate(-180.000000) translate(-22.276678, -92.798956) "></path>
            <path d="M37.4547563,113.04461 L36.2286313,113.92011 C36.2286313,113.92011 36.4430063,114.632985 37.0513813,115.39861 C37.6617563,116.164735 37.9537563,117.395735 37.3668813,117.540735 C36.7788813,117.684735 35.3443813,118.04411 33.3395063,116.530485 C31.3336313,115.01536 26.7608813,110.435735 24.9030063,104.16286 C23.0445063,97.8923604 24.1856313,93.5007354 26.3428813,93.1892354 C28.5006313,92.8786104 29.9312563,95.0583604 30.6876313,96.4718604 C30.1637563,93.8146104 31.0870063,93.9889854 32.6720063,94.4059854 C34.2570063,94.8244854 34.2071313,95.4757354 34.4898813,96.3171104 C35.2071313,98.8386104 37.5128813,110.048985 37.8121313,111.539235 C38.1105063,113.029485 37.4547563,113.04461 37.4547563,113.04461 L37.4547563,113.04461 Z M30.6275063,99.4034854 C28.9048813,95.9923604 27.6485063,98.3034854 27.8185063,99.9264854 C28.4922563,106.34936 31.4122563,110.12911 32.3541313,111.082235 C33.5695063,112.48561 33.9307563,111.175485 33.9025063,110.00511 C33.8190063,106.552485 32.3507563,102.814235 30.6275063,99.4034854" id="path108" fill="#FFFFFF" transform="translate(30.929429, 105.421493) scale(-1, 1) rotate(-180.000000) translate(-30.929429, -105.421493) "></path>
            <path d="M50.7985063,100.479868 C49.4102563,100.057993 47.4307563,99.5838678 47.4307563,99.5838678 C48.6817563,105.217618 50.4522563,113.250243 50.4522563,113.250243 C50.6163813,114.613993 50.8267563,115.195243 48.5880063,114.857743 C46.3482563,114.520243 46.3405063,114.193993 46.0498813,113.028993 C44.8546313,107.002243 39.7731313,84.1389928 38.9645063,80.5769928 C38.1568813,77.0139928 39.3385063,77.0511178 40.1241313,76.9671178 C40.9087563,76.8831178 48.1133813,76.3216178 51.9976313,87.6887428 C55.8828813,99.0564928 54.0416313,101.638993 50.7985063,100.479868 Z M44.9512563,81.2166178 C43.7437563,80.1379928 43.5240063,81.8997428 43.6671313,82.3523678 C43.8087563,82.8034928 46.3927563,94.6589928 46.6846313,95.8899928 C46.6846313,95.8899928 46.9673813,96.7288678 47.5592563,96.7801178 C48.1510063,96.8313678 49.2613813,96.6102428 49.2173813,94.7864928 C49.1036313,90.1018678 46.1587563,82.2927428 44.9512563,81.2166178" id="path110" fill="#FFFFFF" transform="translate(46.440862, 95.944496) scale(-1, 1) rotate(-180.000000) translate(-46.440862, -95.944496) "></path>
            <path d="M82.4351313,123.290165 C79.4918813,123.686415 72.7427563,115.968915 68.9971313,94.0495401 C68.2998813,89.9757901 67.9435063,86.3679151 67.8433813,83.1607901 C66.2628813,80.3644151 64.9865063,78.3580401 62.8526313,76.0924151 C59.0288813,72.0352901 56.3843813,73.6330401 57.5177563,78.4430401 C59.7501313,79.6827901 64.1251313,83.7745401 65.4361313,87.9479151 C66.8585063,92.4727901 66.7813813,94.6886651 65.4166313,95.2409151 C64.0513813,95.7946651 61.8346313,93.6339151 61.1558813,92.7399151 C59.4698813,90.8254151 56.4038813,86.1446651 55.3267563,82.3282901 C54.2496313,78.5119151 54.0582563,73.3072901 54.7257563,71.0782901 C55.3936313,68.8482901 58.6061313,69.2052901 60.0235063,70.3669151 C62.8575063,72.6861651 65.4698813,75.4606651 67.8820063,78.5685401 C68.4371313,67.6915401 72.2667563,62.4127901 74.7808813,59.2701651 C75.4191313,58.4732901 77.3721313,57.8405401 78.7418813,60.2165401 C80.1115063,62.5929151 80.3828813,63.6149151 78.9942563,65.2242901 C74.2578813,70.7160401 71.9801313,76.2657901 71.8878813,84.2951651 C75.4063813,89.8487901 78.4415063,96.0792901 81.0777563,102.486415 C86.3077563,115.188915 85.3785063,122.895165 82.4351313,123.290165 Z M62.0885063,90.5680401 C63.9903813,93.2560401 64.4351313,92.6612901 63.5103813,89.6871651 C62.5856313,86.7145401 61.5601313,85.0441651 61.0255063,84.6017901 C60.5480063,84.2081651 59.8033813,83.5114151 59.1080063,84.1139151 C59.9673813,86.7042901 60.9532563,88.9630401 62.0885063,90.5680401 Z M72.8175063,91.9401651 C72.6168813,91.6012901 72.4248813,91.2765401 72.2368813,90.9547901 C72.5337563,93.7424151 73.0142563,96.7985401 73.6735063,100.188665 C75.0972563,107.512665 76.7096313,111.640165 78.0240063,114.540165 C78.5787563,115.763915 80.5596313,117.343915 80.4327563,113.766415 C80.2237563,107.846415 77.7467563,100.253165 72.8175063,91.9401651" id="path112" stroke="#ED1C24" fill="#FFFFFF" transform="translate(69.580907, 90.927583) scale(-1, 1) rotate(-180.000000) translate(-69.580907, -90.927583) "></path>
            <path d="M167.611881,75.441534 C169.523131,75.721284 171.269381,77.373159 172.029381,78.917659 C171.194381,79.717909 171.460631,82.577784 171.819381,83.871284 C172.179381,85.164159 175.245631,95.184034 176.053131,98.746534 C176.053131,98.746534 173.420631,98.419034 171.380631,98.207784 C171.380631,98.207784 168.699381,87.852784 167.770631,84.619284 C162.019381,74.729159 162.370631,81.166659 162.884381,83.433284 C163.219381,84.905909 165.696881,93.850284 166.828131,97.209034 L163.881881,97.539034 C162.720631,96.316534 158.619381,93.725284 156.955631,93.209034 C156.625631,95.104034 155.805631,96.240284 154.805631,96.584034 C153.373131,97.072784 151.375631,95.884034 150.078131,93.766534 C148.300631,93.547784 145.864381,93.150284 142.771881,84.694034 C141.255631,80.553409 140.904381,77.593909 141.026881,75.544034 C139.911881,73.928784 136.978131,71.932784 134.838131,71.470284 C132.396881,70.941534 134.559381,68.090034 135.600631,67.675409 C136.596881,67.276034 138.584381,67.879534 142.188131,71.798409 C142.305631,71.657784 142.400631,71.575284 142.451881,71.548409 C142.841881,71.343909 145.220631,69.399034 149.741881,71.830659 C155.293131,74.817534 156.861881,86.702784 157.081881,90.342784 C157.090631,90.492784 157.093131,90.637784 157.099381,90.784034 C158.164381,91.049034 160.201881,91.584034 160.926881,91.944034 C160.926881,91.944034 158.031881,83.484534 157.384381,81.154909 C156.736881,78.826784 155.980631,74.742784 157.458131,73.404409 C158.934381,72.067034 162.943131,74.966909 164.756881,76.682284 C164.931881,75.831659 165.704381,75.160784 167.611881,75.441534 L167.611881,75.441534 Z M152.430631,82.575784 C151.260631,77.588034 148.830631,74.847284 147.458131,75.076784 C146.085631,75.303784 145.578131,78.700784 146.720631,82.517659 C147.863131,86.330284 150.330631,90.635284 151.696881,90.146534 C152.995631,89.592784 153.601881,87.561534 152.430631,82.575784" id="path114" stroke="#ED1C24" fill="#FFFFFF" transform="translate(154.886270, 83.158267) scale(-1, 1) rotate(-180.000000) translate(-154.886270, -83.158267) "></path>
            <path d="M203.164381,79.6550645 C200.579381,80.1468145 195.055631,84.2933145 194.766881,92.1155645 C199.438131,96.0733145 202.881881,100.065814 205.055631,103.572064 C209.153131,110.182064 210.171881,114.259564 208.296881,115.477064 C205.648131,117.197064 199.165631,112.308314 195.435631,107.383314 C192.095631,102.970814 190.056881,97.7908145 189.405631,91.7093145 C187.300631,90.4358145 185.166881,89.3074395 182.989381,88.0813145 C180.313131,91.6843145 179.864381,96.4083145 181.059381,99.0020645 C182.305631,101.705814 184.114381,103.160814 184.913131,103.663314 C185.711881,104.164564 187.236881,104.779564 186.958131,101.399564 C187.886881,101.833314 191.008131,103.387064 191.008131,103.387064 C191.860631,106.035814 191.751881,109.685814 189.931881,110.379564 C188.110631,111.074564 183.606881,109.359564 179.746881,104.435814 C175.888131,99.5145645 173.346881,94.0595645 175.885631,88.5769395 C176.496881,87.2546895 177.110631,86.0510645 177.675631,84.9275645 C171.358131,81.0364395 164.645631,76.1365645 160.661881,66.9294395 C156.005631,56.1668145 170.278131,56.3420645 175.618131,61.2346895 C186.296881,71.0213145 186.669381,80.0461895 184.804381,84.9895645 C186.370631,85.9378145 187.861881,86.9075645 189.270631,87.8914395 C189.878131,81.4988145 195.589381,75.7009395 198.643131,74.4895645 C201.955631,73.1726895 203.635631,74.7590645 204.715631,75.9719395 C205.795631,77.1834395 205.906881,79.1345645 203.164381,79.6550645 L203.164381,79.6550645 Z M200.793131,109.078314 C203.419381,111.882064 204.454381,111.270814 204.713131,111.069564 C204.969381,110.867064 206.424381,109.102064 201.216881,102.230814 C199.120631,99.4670645 197.026881,97.3395645 194.920631,95.5858145 C195.654381,102.982064 198.373131,106.498314 200.793131,109.078314 Z M179.484381,74.5554395 C177.536881,70.0446895 169.629381,57.8610645 165.261881,61.8054395 C160.946881,65.7063145 167.755631,75.8245645 179.133131,81.8294395 C180.174381,79.3146895 180.571881,77.0803145 179.484381,74.5554395" id="path116" fill="#FFFFFF" transform="translate(184.472102, 86.926657) scale(-1, 1) rotate(-180.000000) translate(-184.472102, -86.926657) "></path>
        </g>
    </g>
</svg>