<?xml version="1.0" encoding="utf-8"?>
<!-- Generator: Adobe Illustrator 19.2.1, SVG Export Plug-In . SVG Version: 6.00 Build 0)  -->
<svg version="1.1" id="layer" xmlns="http://www.w3.org/2000/svg" xmlns:xlink="http://www.w3.org/1999/xlink" x="0px" y="0px"
	 viewBox="0 0 652 652" style="enable-background:new 0 0 652 652;" xml:space="preserve">
<style type="text/css">
	.st0{fill:#A0C4E8;}
	.st1{fill:#231815;}
	.st2{fill:#004998;}
	.st3{fill:#408A34;}
	.st4{fill:#ED8D00;}
	.st5{fill:#FFFFFF;}
	.st6{fill:none;stroke:#FFFFFF;stroke-width:3.6148;}
</style>
<rect x="-24.2" y="70.8" class="st0" width="343.9" height="308.1"/>
<path class="st1" d="M207.6,134.3c-3-16-40.6-17.4-66.7,43.7c-13.9-31-34.8-63.2-64.1-80.6c-16.5-9.9-53.5,1.6-15,89.1
	c0,0-17.8,30.8,2.5,50.2c29.7,28.4,56.9,16.8,90.5,21c-6.3,10,8.2,24.7,9.6,8.1c0.2-2.6-0.2-6.3-0.9-10
	C172,244.8,216.9,183.7,207.6,134.3"/>
<rect x="319.7" y="70.8" class="st2" width="345.1" height="308.1"/>
<path class="st3" d="M170.8,378.9c18.4-107.8,72.9-206.2,139.7-292.8c-33.6,15.5-76.5,61.7-114,114.2
	c-11.7,27.1-28.1,49.3-32.8,55.4c0.7,3.8,1.2,7.5,0.9,10.1c-1,11.6-8.5,7.8-10.6,1c-13.6,23.9-24.9,47-32.7,67.4
	c-18.5-48.3-62.1-88.1-119.1-109.7C47.9,280,76.2,325.7,88,378.9H-24.2V488h689.1V378.9"/>
<path class="st4" d="M192.1,157.6c-1.4-16.4-29.4-15.3-46.4,29.9c0,0-0.1,0.2-0.4,0.7c9.4,23.3,14.9,45,17.1,58
	C168.6,236.5,195.1,192.6,192.1,157.6"/>
<path class="st4" d="M154.8,252.4c7.2,3.1-18-88.4-67.1-118.2c-12.4-7.6-33.7-1.1-7.2,58.6c0,0-19.8,31.9,10.6,46.1
	C110.2,247.8,135,243.8,154.8,252.4"/>
<polyline class="st5" points="46.5,456.6 46.3,456.6 27,403.3 16.8,403.3 42,468.8 50.4,468.8 76.1,403.3 66.4,403.3 "/>
<polygon class="st6" points="46.5,456.6 46.3,456.6 27,403.3 16.8,403.3 42,468.8 50.4,468.8 76.1,403.3 66.4,403.3 "/>
<polyline class="st5" points="124,439.4 155.1,439.4 155.1,431.1 124,431.1 124,411.6 157.4,411.6 157.4,403.3 115.1,403.3 
	115.1,468.7 159.1,468.7 159.1,460.4 124,460.4 "/>
<polygon class="st6" points="124,439.4 155.1,439.4 155.1,431.1 124,431.1 124,411.6 157.4,411.6 157.4,403.3 115.1,403.3 
	115.1,468.7 159.1,468.7 159.1,460.4 124,460.4 "/>
<path class="st5" d="M246.8,421.6c0-8.2-4.2-18.3-21-18.3h-23v65.5h8.9v-28.8h9.9l16.7,28.8h11.1l-18.6-29.9
	C240.6,437.8,246.8,429.9,246.8,421.6 M211.7,432.1v-21.1h11.7c7,0,14,1.7,14,10.6c0,8.9-7,10.5-14,10.5H211.7z"/>
<path class="st6" d="M211.7,432.1v-21.1h11.7c7,0,14,1.7,14,10.6c0,8.9-7,10.5-14,10.5H211.7z"/>
<path class="st6" d="M246.8,421.6c0-8.2-4.3-18.3-21-18.3h-23v65.5h8.9v-28.8h9.9l16.6,28.8h11.1l-18.6-29.9
	C240.6,437.8,246.8,429.9,246.8,421.6z"/>
<rect x="290.4" y="403.3" class="st5" width="8.9" height="65.5"/>
<rect x="290.4" y="403.3" class="st6" width="8.9" height="65.5"/>
<polyline class="st5" points="347.2,468.8 356.1,468.8 356.1,440.5 386.1,440.5 386.1,432.2 356.1,432.2 356.1,411.6 388.3,411.6 
	388.3,403.3 347.2,403.3 "/>
<polygon class="st6" points="347.2,468.8 356.1,468.8 356.1,440.5 386.1,440.5 386.1,432.2 356.1,432.2 356.1,411.6 388.3,411.6 
	388.3,403.3 347.2,403.3 "/>
<rect x="431.3" y="403.3" class="st5" width="8.9" height="65.5"/>
<rect x="431.3" y="403.3" class="st6" width="8.9" height="65.5"/>
<polyline class="st5" points="496.8,439.4 527.9,439.4 527.9,431.1 496.8,431.1 496.8,411.6 530.2,411.6 530.2,403.3 487.9,403.3 
	487.9,468.7 531.8,468.7 531.8,460.4 496.8,460.4 "/>
<polygon class="st6" points="496.8,439.4 527.9,439.4 527.9,431.1 496.8,431.1 496.8,411.6 530.2,411.6 530.2,403.3 487.9,403.3 
	487.9,468.7 531.8,468.7 531.8,460.4 496.8,460.4 "/>
<path class="st5" d="M596.7,403.3h-22.8v65.5h21.4c23.4,0,35.9-16,35.9-32.7C631.1,423.9,624.4,403.3,596.7,403.3 M594,460.4h-11.2
	v-48.8h13.3c21.3,0,25.6,16.1,25.6,24.4C621.7,452.2,608.9,460.4,594,460.4"/>
<path class="st6" d="M594,460.4h-11.2v-48.8h13.3c21.3,0,25.6,16.1,25.6,24.4C621.7,452.2,608.9,460.4,594,460.4z"/>
<path class="st6" d="M596.7,403.3h-22.8v65.5h21.3c23.4,0,35.9-16,35.9-32.8C631.1,423.9,624.4,403.3,596.7,403.3z"/>
<path class="st3" d="M-23.7,516h6.5v5.3h0.1c1.6-3.6,6-6.1,11.3-6.1c6.7,0,12.5,4,12.5,13.1v22.1H0.2v-20.3c0-6.5-3.7-8.9-7.8-8.9
	c-5.4,0-9.6,3.5-9.6,11.5v17.7h-6.5"/>
<path class="st3" d="M36.9,515.1c10.2,0,18.2,8,18.2,18s-8,18-18.2,18c-10.2,0-18.2-8-18.2-18S26.7,515.1,36.9,515.1 M36.9,545.1
	c7,0,11.3-5,11.3-12c0-7-4.4-12-11.3-12c-7,0-11.3,5-11.3,12C25.6,540.1,29.9,545.1,36.9,545.1"/>
<path class="st3" d="M67.1,516h6.5v5.3h0.1c1.6-3.6,6-6.1,11.3-6.1c6.7,0,12.5,4,12.5,13.1v22.1H91v-20.3c0-6.5-3.7-8.9-7.8-8.9
	c-5.4,0-9.6,3.5-9.6,11.5v17.7h-6.5"/>
<path class="st3" d="M146.6,550.1c0,10.4-7.5,17.7-18.8,17.7c-6.5,0-12-1.6-16.8-6.1l4.4-5.5c3.4,3.6,7.2,5.6,12.2,5.6
	c9.7,0,12.4-6.1,12.4-11.9v-5.1h-0.2c-2.5,4.1-7.2,6.1-11.9,6.1c-10.1,0-17.5-7.6-17.5-17.6c0-10.1,6.8-18,17.5-18
	c4.6,0,9.4,2.1,12,5.8h0.1V516h6.5 M117.5,533.2c0,7,4.4,11.5,11.3,11.5c6.9,0,11.3-4.6,11.3-11.5c0-7-4.3-12-11.3-12
	C121.8,521.2,117.5,526.2,117.5,533.2"/>
<path class="st3" d="M161.6,516h6.1v5.3h0.2c0.7-2,4.9-6.2,11-6.2c5.1,0,8.6,2.2,10.7,6.4c2.3-4.2,6.7-6.4,10.9-6.4
	c10.6,0,13,7.5,13,15.2v20H207v-19.1c0-5.2-1.1-10-7.4-10c-6.3,0-8.8,4.3-8.8,10.4v18.8h-6.5v-18c0-6.5-0.9-11.2-7.3-11.2
	c-4.7,0-8.9,3.6-8.9,11.3v17.8h-6.5"/>
<path class="st3" d="M243.7,515.1c10.2,0,18.3,8,18.3,18s-8,18-18.3,18c-10.2,0-18.3-8-18.3-18S233.5,515.1,243.7,515.1
	 M243.7,545.1c7,0,11.3-5,11.3-12c0-7-4.4-12-11.3-12c-7,0-11.3,5-11.3,12C232.4,540.1,236.8,545.1,243.7,545.1"/>
<path class="st3" d="M275.2,516h6.5v4.9h0.1c2.5-3.7,7.3-5.8,12-5.8c10.7,0,17.5,7.9,17.5,18c0,10.3-6.9,18-17.5,18
	c-4.9,0-9.6-2.2-12-5.8h-0.1v25.4h-6.5 M281.8,533.2c0,7,4.4,12,11.3,12c6.9,0,11.3-5,11.3-12c0-7-4.3-12-11.3-12
	C286.1,521.2,281.8,526.2,281.8,533.2"/>
<path class="st3" d="M323.2,516h6.5v5.3h0.1c1.6-3.6,6-6.1,10.3-6.1c1,0,2,0.1,2.9,0.4l-0.3,7c-1.1-0.3-2.2-0.5-3.2-0.5
	c-6.4,0-9.9,3.5-9.9,11v17.2h-6.5"/>
<path class="st3" d="M367.3,515.1c10.2,0,18.3,8,18.3,18s-8,18-18.3,18c-10.2,0-18.2-8-18.2-18S357.1,515.1,367.3,515.1
	 M367.3,545.1c7,0,11.3-5,11.3-12c0-7-4.4-12-11.3-12c-7,0-11.3,5-11.3,12C356,540.1,360.4,545.1,367.3,545.1"/>
<path class="st3" d="M404.6,516v39.3c0,3.6-0.1,12.5-10.5,12.5c-1.4,0-2.8-0.1-4.2-0.7l0.7-6c0.8,0.3,1.8,0.6,2.7,0.6
	c3.5,0,4.8-2.3,4.8-6.7v-39 M401.3,498.9c2.6,0,4.8,2.2,4.8,4.8c0,2.6-2.2,4.8-4.8,4.8c-2.6,0-4.8-2.2-4.8-4.8
	C396.5,501,398.7,498.9,401.3,498.9"/>
<path class="st3" d="M424.7,535.5c0,6,5.6,10,11.6,10c4,0,6.9-2,9.4-5.1l4.9,3.8c-3.6,4.7-8.6,7-15.2,7c-10.9,0-17.7-7.9-17.7-18.1
	c0-10.3,7.5-18,17.8-18c12.1,0,16.7,9.3,16.7,18.1v2.3 M445.2,530.3c-0.1-5.7-3.3-10-9.9-10c-6.5,0-10.7,5.4-10.7,10H445.2z"/>
<path class="st3" d="M486.9,525.1c-2.4-2.5-4.9-3.9-8.5-3.9c-7.1,0-10.7,5.7-10.7,12.2c0,6.5,4.4,11.7,11.1,11.7
	c3.6,0,6.2-1.3,8.3-3.8l4.7,4.7c-3.4,3.8-8,5.3-13,5.3c-10.6,0-18-7.3-18-17.9s7.3-18.1,18-18.1c5,0,9.8,1.8,13.2,5.4"/>
<path class="st3" d="M519.4,521.6h-9.4v15.6c0,3.9,0,7.9,4.9,7.9c1.5,0,3.3-0.2,4.7-1v6c-1.5,0.9-4.6,1.2-5.9,1.2
	c-10.1,0-10.2-6.1-10.2-11.7v-17.9H496V516h7.5v-9.6h6.5v9.6h9.4"/>
<path class="st3" d="M531.8,546c0-2.6,2.2-4.8,4.8-4.8c2.6,0,4.8,2.2,4.8,4.8c0,2.6-2.2,4.8-4.8,4.8
	C534,550.8,531.8,548.6,531.8,546"/>
<path class="st3" d="M571.6,515.1c10.2,0,18.3,8,18.3,18s-8,18-18.3,18c-10.2,0-18.3-8-18.3-18S561.4,515.1,571.6,515.1
	 M571.6,545.1c7,0,11.3-5,11.3-12c0-7-4.3-12-11.3-12c-7,0-11.3,5-11.3,12C560.3,540.1,564.6,545.1,571.6,545.1"/>
<path class="st3" d="M601.8,516h6.5v5.3h0.1c1.6-3.6,6-6.1,10.3-6.1c1,0,2,0.1,2.9,0.4l-0.3,7c-1.1-0.3-2.2-0.5-3.2-0.5
	c-6.4,0-9.9,3.5-9.9,11v17.2h-6.5"/>
<path class="st3" d="M665.2,550.1c0,10.4-7.5,17.7-18.8,17.7c-6.5,0-12-1.6-16.8-6.1l4.4-5.5c3.4,3.6,7.2,5.6,12.2,5.6
	c9.7,0,12.4-6.1,12.4-11.9v-5.1h-0.2c-2.5,4.1-7.2,6.1-11.9,6.1c-10.1,0-17.5-7.6-17.5-17.6c0-10.1,6.8-18,17.5-18
	c4.6,0,9.4,2.1,12,5.8h0.1V516h6.5 M636,533.2c0,7,4.4,11.5,11.3,11.5c6.9,0,11.3-4.6,11.3-11.5c0-7-4.3-12-11.3-12
	C640.4,521.2,636,526.2,636,533.2"/>
<polyline class="st5" points="378.8,123 379,123 413.8,179.6 436.7,179.6 436.7,100.1 419.2,100.1 419.2,155.3 418.9,155.3 
	385.1,100.1 361.3,100.1 361.3,179.6 378.8,179.6 "/>
<path class="st5" d="M495.3,181.7c24.8,0,43-16.3,43-41.9c0-25.5-18.1-41.8-43-41.8c-24.8,0-43,16.3-43,41.8
	C452.3,165.4,470.5,181.7,495.3,181.7 M495.3,114.2c14.9,0,24.7,10.8,24.7,25.6c0,14.9-9.8,25.7-24.7,25.7
	c-14.9,0-24.7-10.8-24.7-25.7C470.6,125,480.4,114.2,495.3,114.2"/>
<polyline class="st5" points="571.4,123 571.7,123 606.4,179.6 629.3,179.6 629.3,100.1 611.8,100.1 611.8,155.3 611.6,155.3 
	577.8,100.1 553.9,100.1 553.9,179.6 571.4,179.6 "/>
<path class="st5" d="M379,289.1h-22.3v62.8h8.6v-27.7H379c16.2,0,20.3-9.7,20.3-17.6C399.3,298.7,395.2,289.1,379,289.1
	 M376.6,316.7h-11.3v-20.2h11.3c6.8,0,13.6,1.6,13.6,10.1C390.2,315.1,383.4,316.7,376.6,316.7"/>
<path class="st5" d="M415.6,316.3h-0.2v-6.5h-8.1v42.1h8.1v-21.1c0-9.2,4.3-13.5,12.2-13.5c1.3,0,2.6,0.3,4,0.7l0.4-8.6
	c-1.1-0.4-2.3-0.5-3.6-0.5C423.1,308.8,417.7,311.9,415.6,316.3"/>
<path class="st5" d="M457.5,308.8c-12.6,0-22.6,9.8-22.6,22.1c0,12.2,10,22.1,22.6,22.1c12.6,0,22.6-9.8,22.6-22.1
	C480.1,318.6,470.2,308.8,457.5,308.8 M457.5,345.5c-8.6,0-14-6.1-14-14.6c0-8.5,5.4-14.7,14-14.7c8.6,0,14,6.1,14,14.7
	C471.5,339.4,466.2,345.5,457.5,345.5"/>
<path class="st5" d="M494.5,288.9c-3.2,0-5.9,2.7-5.9,5.9s2.7,5.9,5.9,5.9c3.2,0,5.9-2.7,5.9-5.9S497.7,288.9,494.5,288.9"/>
<path class="st5" d="M490.5,357.6c0,5.3-1.5,8.1-5.9,8.1c-1.1,0-2.3-0.3-3.3-0.7l-0.9,7.4c1.7,0.6,3.4,0.8,5.2,0.8
	c12.9,0,13-10.9,13-15.3v-48.1h-8"/>
<path class="st5" d="M531.7,308.8c-12.7,0-22,9.5-22,22.1c0,12.5,8.4,22.1,21.9,22.1c8.2,0,14.3-2.9,18.8-8.6l-6.1-4.6
	c-3.2,3.8-6.7,6.3-11.7,6.3c-7.4,0-14.3-4.9-14.3-12.3h34.1v-2.8C552.4,320.1,546.7,308.8,531.7,308.8 M518.4,327.4
	c0-5.6,5.2-12.2,13.2-12.2c8.2,0,12.1,5.2,12.3,12.2H518.4z"/>
<path class="st5" d="M581.8,316.3c4.5,0,7.6,1.6,10.6,4.7l6.1-5.5c-4.2-4.5-10.1-6.7-16.3-6.7c-13.3,0-22.2,9.2-22.2,22.2
	c0,12.9,9.1,21.9,22.2,21.9c6.2,0,11.9-1.9,16.1-6.5l-5.7-5.7c-2.7,3.1-5.8,4.7-10.3,4.7c-8.3,0-13.7-6.4-13.7-14.3
	C568.5,323.3,573,316.3,581.8,316.3"/>
<path class="st5" d="M622.3,335.8v-19.1h11.6v-6.9h-11.6V298h-8v11.8h-9.3v6.9h9.3v21.9c0,6.7,0.2,14.3,12.6,14.3
	c1.6,0,5.4-0.4,7.3-1.4v-7.3c-1.6,1-3.9,1.2-5.7,1.2C622.3,345.5,622.3,340.5,622.3,335.8"/>
<path class="st5" d="M396.1,278.2c11.7,0,23-2.2,33.4-7.6V229h-31.2v16.2h14.3v12.9c-3.3,1.8-8.9,3.9-16.5,3.9
	c-14.9,0-24.7-10.8-24.7-25.6c0-14.8,9.8-25.6,24.7-25.6c8.9,0,14.6,2.6,19.4,7.5l12.4-13.5c-8-7.4-19.1-10.2-31.7-10.2
	c-24.8,0-43,16.3-43,41.8C353.1,261.9,371.2,278.2,396.1,278.2"/>
<polyline class="st5" points="522.2,215.1 522.2,276.2 539.8,276.2 539.8,196.6 513.3,196.6 494.9,248.5 494.7,248.5 476.3,196.6 
	449.8,196.6 449.8,276.2 467.4,276.2 467.4,215.1 467.6,215.1 487.7,276.2 501.1,276.2 522,215.1 "/>
<path class="st5" d="M596.1,278.2c24.8,0,43-16.3,43-41.8s-18.1-41.8-43-41.8c-24.8,0-43,16.3-43,41.8S571.3,278.2,596.1,278.2
	 M596.1,210.7c14.9,0,24.7,10.8,24.7,25.6c0,14.8-9.8,25.6-24.7,25.6c-14.9,0-24.7-10.8-24.7-25.6
	C571.4,221.5,581.2,210.7,596.1,210.7"/>
</svg>
