<svg height="49.134666" viewBox="0 0 49.133331 49.134666" width="49.133331" xmlns="http://www.w3.org/2000/svg" xmlns:xlink="http://www.w3.org/1999/xlink"><clipPath id="a"><path d="m0 93.641h104.767v-93.641h-104.767z" transform="translate(-33.909801 -73.017202)"/></clipPath><clipPath id="b"><path d="m0 93.641h104.767v-93.641h-104.767z" transform="translate(-19.7502 -54.591501)"/></clipPath><clipPath id="c"><path d="m0 93.641h104.767v-93.641h-104.767z" transform="translate(-2.1948 -74.368502)"/></clipPath><clipPath id="d"><path d="m0 93.641h104.767v-93.641h-104.767z" transform="translate(-3.9312 -77.107702)"/></clipPath><clipPath id="e"><path d="m0 93.641h104.767v-93.641h-104.767z" transform="translate(-4.8443 -79.955402)"/></clipPath><clipPath id="f"><path d="m0 93.641h104.767v-93.641h-104.767z" transform="translate(-7.0972 -81.854802)"/></clipPath><clipPath id="g"><path d="m0 93.641h104.767v-93.641h-104.767z" transform="translate(-6.895 -85.004202)"/></clipPath><clipPath id="h"><path d="m0 93.641h104.767v-93.641h-104.767z" transform="translate(-9.677301 -86.468102)"/></clipPath><clipPath id="i"><path d="m0 93.641h104.767v-93.641h-104.767z" transform="translate(-12.509301 -87.197602)"/></clipPath><clipPath id="j"><path d="m0 93.641h104.767v-93.641h-104.767z" transform="translate(-13.7808 -89.652602)"/></clipPath><clipPath id="k"><path d="m0 93.641h104.767v-93.641h-104.767z" transform="translate(-18.119601 -89.019802)"/></clipPath><clipPath id="l"><path d="m0 93.641h104.767v-93.641h-104.767z" transform="translate(-20.406801 -90.635102)"/></clipPath><clipPath id="m"><path d="m0 93.641h104.767v-93.641h-104.767z" transform="translate(-24.7984 -89.910402)"/></clipPath><clipPath id="n"><path d="m0 93.641h104.767v-93.641h-104.767z" transform="translate(-28.462401 -87.422202)"/></clipPath><clipPath id="o"><path d="m0 93.641h104.767v-93.641h-104.767z" transform="translate(-29.364801 -86.276702)"/></clipPath><clipPath id="p"><path d="m0 93.641h104.767v-93.641h-104.767z" transform="translate(-32.355001 -85.351902)"/></clipPath><clipPath id="q"><path d="m0 93.641h104.767v-93.641h-104.767z" transform="translate(-33.022001 -82.157502)"/></clipPath><clipPath id="r"><path d="m0 93.641h104.767v-93.641h-104.767z" transform="translate(-34.746601 -80.113602)"/></clipPath><clipPath id="s"><path d="m0 93.641h104.767v-93.641h-104.767z" transform="translate(-36.654801 -78.100902)"/></clipPath><clipPath id="t"><path d="m0 93.641h104.767v-93.641h-104.767z" transform="translate(-37.235901 -75.420202)"/></clipPath><clipPath id="u"><path d="m0 93.641h104.767v-93.641h-104.767z" transform="translate(-30.450501 -82.310402)"/></clipPath><path clip-path="url(#a)" d="m0 0c0-7.824-6.339-14.167-14.16-14.167-7.82 0-14.159 6.343-14.159 14.167s6.339 14.167 14.159 14.167c7.821 0 14.16-6.343 14.16-14.167" fill="#fff" transform="matrix(1.3333333 0 0 -1.3333333 43.446133 24.567065)"/><path clip-path="url(#b)" d="m0 0c-10.16 0-18.425 8.266-18.425 18.426s8.265 18.425 18.425 18.425 18.425-8.265 18.425-18.425-8.265-18.426-18.425-18.426" fill="#fff" transform="matrix(1.3333333 0 0 -1.3333333 24.566666 49.134665)"/><g fill="#00a760"><path clip-path="url(#c)" d="m0 0 .062.461 1.994.889.001.006-1.838.251.056.416 2.496-.34-.064-.462-1.988-.884-.002-.011 1.834-.25-.057-.416z" transform="matrix(1.3333333 0 0 -1.3333333 1.159466 22.765332)"/><path clip-path="url(#d)" d="m0 0c.461-.142.982-.067 1.142.449s-.229.872-.691 1.015c-.462.141-.983.067-1.142-.448-.16-.517.229-.872.691-1.016m.581 1.885c.689-.212 1.128-.821.905-1.542-.222-.722-.929-.976-1.617-.763-.687.211-1.128.82-.904 1.542.223.721.929.976 1.616.763" transform="matrix(1.3333333 0 0 -1.3333333 3.474666 19.113065)"/><path clip-path="url(#e)" d="m0 0 .326.644c.126.248.072.445-.164.564-.286.146-.435-.012-.54-.216l-.322-.638zm-1.219.124.542 1.07c.248.492.601.628.982.435.429-.217.389-.571.378-.656l.005-.003c.088.126.289.272.644.092.26-.131.519-.214.652-.176l-.213-.421c-.127-.01-.25.052-.36.107-.412.208-.637.216-.819-.145l-.293-.578.924-.468-.2-.393z" transform="matrix(1.3333333 0 0 -1.3333333 4.692133 15.316132)"/><path clip-path="url(#f)" d="m0 0 .262.347c.416.552.189.909-.214 1.213-.403.303-.809.422-1.225-.13l-.26-.347zm-1.991.946.629.836c.466.62 1.12.548 1.675.13.556-.419.805-1.026.338-1.646l-.629-.835z" transform="matrix(1.3333333 0 0 -1.3333333 7.695999 12.783598)"/><path clip-path="url(#g)" d="m0 0 .305.318 1.817-1.734-.304-.317z" transform="matrix(1.3333333 0 0 -1.3333333 7.426399 8.584398)"/><path clip-path="url(#h)" d="m0 0c-.241.177-.521.222-.805-.012-.419-.342-.291-.854.016-1.229.308-.374.784-.6 1.203-.257.303.248.284.612.078.919l.334.273c.356-.49.289-1.084-.183-1.471-.585-.48-1.316-.302-1.773.256-.458.557-.488 1.309.097 1.789.442.357.988.399 1.374.011z" transform="matrix(1.3333333 0 0 -1.3333333 11.136133 6.632532)"/><path clip-path="url(#i)" d="m0 0c.165-.352.487-.367.807-.218.35.163.401.397.32.57-.082.175-.21.201-.319.193-.188-.015-.415-.07-.768-.13-.438-.077-.664.106-.774.341-.214.457.107.867.519 1.06.476.222.991.157 1.215-.318l-.399-.187c-.157.285-.406.3-.68.172-.185-.087-.387-.262-.279-.492.075-.16.225-.198.409-.167.039.007.604.112.739.132.341.051.605-.138.715-.373.239-.511-.119-.927-.572-1.139-.52-.243-1.058-.191-1.331.369z" transform="matrix(1.3333333 0 0 -1.3333333 14.912133 5.659865)"/><path clip-path="url(#j)" d="m0 0 .435.113.921-1.754.007.002.011 1.994.438.113.959-1.743.007.001-.026 1.984.435.112-.044-2.614-.435-.113-.971 1.741-.007-.001-.017-1.995-.441-.114z" transform="matrix(1.3333333 0 0 -1.3333333 16.607466 2.386532)"/><path clip-path="url(#k)" d="m0 0 .766.06-.459 1.047-.011-.001zm.038 1.521.467.036 1.159-2.431-.471-.036-.286.645-1.001-.078-.183-.681-.452-.035z" transform="matrix(1.3333333 0 0 -1.3333333 22.392533 3.230265)"/><path clip-path="url(#l)" d="m0 0 .463-.043.974-1.951.006-.001.171 1.847.417-.039-.23-2.505-.464.042-.97 1.947-.011.001-.169-1.842-.418.039z" transform="matrix(1.3333333 0 0 -1.3333333 25.442133 1.076532)"/><path clip-path="url(#m)" d="m0 0 1.709-.599-.125-.358-1.294.453-.218-.622 1.198-.419-.119-.339-1.197.418-.243-.695 1.317-.46-.126-.359-1.732.606z" transform="matrix(1.3333333 0 0 -1.3333333 31.297599 2.042798)"/><path clip-path="url(#n)" d="m0 0c.074.289.012.565-.311.741-.472.26-.9-.05-1.132-.472-.233-.425-.264-.952.21-1.211.344-.189.673-.036.881.269l.377-.207c-.321-.513-.895-.672-1.431-.378-.662.362-.77 1.106-.424 1.737.346.633 1.031.942 1.693.579.497-.277.74-.768.524-1.27z" transform="matrix(1.3333333 0 0 -1.3333333 36.182933 5.360398)"/><path clip-path="url(#o)" d="m0 0c-.301-.379-.422-.891.001-1.229.422-.335.895-.104 1.197.274.301.379.421.892-.001 1.228s-.895.105-1.197-.273m1.543-1.229c-.449-.564-1.177-.751-1.767-.281-.59.471-.57 1.222-.121 1.785s1.176.75 1.767.28c.591-.471.569-1.222.121-1.784" transform="matrix(1.3333333 0 0 -1.3333333 37.386133 6.887732)"/><path clip-path="url(#p)" d="m0 0 .295-.326-1.583-1.432.857-.947-.281-.256-1.153 1.274z" transform="matrix(1.3333333 0 0 -1.3333333 41.373066 8.120798)"/><path clip-path="url(#q)" d="m0 0 .422-.642.697.91-.006.008zm1.352.703.257-.391-1.572-2.194-.259.397.427.562-.551.84-.687-.169-.249.381z" transform="matrix(1.3333333 0 0 -1.3333333 42.262399 12.379998)"/><path clip-path="url(#r)" d="m0 0 .288-.661c.085-.193.262-.289.469-.198.233.101.265.258.169.478l-.289.659zm-1.014-.443.313-.716c.108-.245.304-.33.536-.228.227.1.294.298.186.544l-.313.715zm1.804 1.271.491-1.124c.182-.414.113-.767-.272-.935-.234-.103-.454-.057-.637.114l-.007-.003c.063-.309-.092-.557-.405-.693-.362-.16-.754-.031-1.017.569l-.464 1.06z" transform="matrix(1.3333333 0 0 -1.3333333 44.561866 15.105198)"/><path clip-path="url(#s)" d="m0 0 .437-1.758-.369-.092-.331 1.33-.639-.159.306-1.231-.348-.086-.307 1.23-.714-.177.337-1.355-.369-.092-.444 1.782z" transform="matrix(1.3333333 0 0 -1.3333333 47.106133 17.788798)"/><path clip-path="url(#t)" d="m0 0 .042-.438-2.127-.202.12-1.274-.379-.036-.162 1.714z" transform="matrix(1.3333333 0 0 -1.3333333 47.880933 21.363065)"/><path clip-path="url(#u)" d="m0 0-10.458-14.409h.886l10.043 13.838c-.152.194-.309.385-.471.571m2.103-3.206-8.131-11.203h.886l7.579 10.443c-.104.257-.216.51-.334.76m1.356-5.455c-.016.369-.046.735-.09 1.096l-4.967-6.844h.886zm-22.382-5.22c-.282 0-.51-.228-.51-.509s.228-.51.51-.51c.281 0 .509.229.509.51s-.228.509-.509.509m-.627-2.069-1.878-2.588c.631-.732 1.335-1.398 2.101-1.987l3.321 4.575zm4.43 0-3.628-4.998c.79-.547 1.637-1.016 2.532-1.395l4.64 6.393zm4.43 0-4.837-6.664c.961-.349 1.969-.597 3.014-.731l5.366 7.395zm8.859 0-5.08-6.999c3.776 1.043 6.919 3.611 8.726 6.999zm-7.943 20.794c-.304.019-.61.03-.919.03-.96 0-1.898-.096-2.804-.278l-11.268-15.525c.146-1.266.458-2.481.914-3.623zm3.513-20.794-5.425-7.476c.328-.022.659-.035.993-.035.929 0 1.836.091 2.715.261l5.261 7.25zm-16.938 0c.378-.709.814-1.383 1.302-2.013l1.461 2.013zm-.315.624c.956.008 2.236.355 2.934.916.648.52 1.001.965 1.655.965.106 0 .203-.007.295-.017l12.709 17.511c-.964.345-1.975.589-3.023.718l-14.575-20.082c.002-.004.004-.007.005-.011m20.824 17.723c-.792.544-1.642 1.009-2.539 1.384l-12.679-17.469c.587-.316.911-.831 1.917-.831.568 0 1.289.366 2 1.345zm-11.882 1.939-10.277-14.16c-.006.176-.011.353-.011.531 0 6.479 4.35 11.942 10.288 13.629" transform="matrix(1.3333333 0 0 -1.3333333 38.833733 12.176132)"/></g></svg>