<?xml version="1.0" encoding="UTF-8"?>
<svg width="90" height="90" overflow="visible" version="1.1" xml:space="preserve" xmlns="http://www.w3.org/2000/svg">
  <ellipse cx="45" cy="45" rx="45" ry="45" fill="#fff" stroke-width=".28957"/><g stroke-width=".15948"><path d="m65.904 20.995c0.28402-0.60568 0.48991-1.3409 0.5639-2.1089 0.01786-0.18563 0.02998-0.39582 0.02998-0.6253 0-1.3163-0.39709-3.2657-2.3703-4.8211-0.0072-0.0056-0.01435-0.011-0.02153-0.01642-1.795-1.3295-4.4611-1.615-6.4834-0.69419-1.8906 0.861-3.0335 2.624-3.2179 4.9643-0.02807 0.35451 0.15453 0.69244 0.46614 0.86356 0.31177 0.17112 0.69467 0.14353 0.97886-0.07017 0.66644-0.50155 1.6319-0.83134 2.3438-0.25293 0.39008 0.31704 0.53153 0.71939 0.53153 1.0726 0 0.25372-0.07304 0.48225-0.17941 0.63567-0.44238 0.6379-1.4367 0.90582-2.0308 1.0659 0 0-0.43026 0.12646-0.45418 0.13348-3.3187 1.0374-6.2978 3.1479-8.3906 5.9463-2.1697 2.9012-3.3166 6.3549-3.3166 9.9876 0 4.4581 1.7364 8.6496 4.8892 11.802 3.1528 3.1528 7.3444 4.8889 11.803 4.8889s8.6502-1.7362 11.803-4.8889 4.889-7.344 4.889-11.802c-3.19e-4 -7.6913-4.8051-14.122-11.834-16.08zm5.6661 26.604c-2.8114 2.8112-6.549 4.3594-10.525 4.3594-3.9755 0-7.7132-1.5482-10.525-4.3594-2.8112-2.8111-4.3594-6.5483-4.3594-10.524 0-3.2394 1.0224-6.3185 2.9565-8.9047 1.8708-2.5017 4.535-4.3876 7.501-5.3102-0.0064 0.0019 0.04051-0.01324 0.03397-0.01132l0.33203-0.09521c0.7784-0.20971 2.2269-0.59994 3.0463-1.7812 0.77951-1.1237 0.73183-2.9803-0.69738-4.142-0.7709-0.62642-1.7464-0.83022-2.7377-0.632 0.36264-0.8323 0.9602-1.4523 1.7758-1.8239 1.4252-0.6489 3.3774-0.43967 4.648 0.49565 1.378 1.0932 1.6699 2.4388 1.6707 3.3767v0.0033c0 1.714-0.46949 2.6964-2.6511 4.039 0 0 0.81444-0.0799 2.0861 0.13603 0.01977 0.0056 0.03843 0.01308 0.05885 0.01706l0.10541 0.02137c6.8536 1.3338 11.64 7.3422 11.64 14.611-1.6e-4 3.9752-1.5483 7.7125-4.3596 10.524zm-15.522-26.454h4.78e-4s0.0118-0.0035 0.01244-0.0037c0.0072-0.0022 0.01387-0.0053 0.02105-0.0075-0.0016 4.78e-4 -0.03397 0.011-0.03397 0.01116z"/><path d="m59.876 32.393-4.1463 7.0169c-0.16506 0.27956-0.16777 0.6261-0.0069 0.90805 0.16091 0.28195 0.46056 0.4561 0.78525 0.4561h6.6448c0.49932 0 0.90406-0.40491 0.90406-0.90406s-0.40475-0.90406-0.90406-0.90406h-5.0603c1.0462-1.7705 3.3402-5.6527 3.3402-5.6527 0.08532-0.14432 0.12582-0.30268 0.12582-0.45913 0-0.30922-0.15868-0.61047-0.4443-0.77919-0.42994-0.2542-0.98444-0.11147-1.2383 0.31815zm0.2904 11.094c-4.2313 0.0244-6.6054 2.4593-6.7048 2.5637-0.16649 0.17462-0.2491 0.39805-0.2491 0.62131 0 0.23714 0.09313 0.47412 0.27765 0.65193 0.35834 0.3451 0.92974 0.33442 1.2768-0.02233 0.0799-0.08197 1.9949-2.0087 5.462-2.0087 0.02233 0 0.04736-0.0011 0.06969-0.0027 0.03253-0.0026 3.2726-0.21465 5.5106 2.0234 0.35308 0.35308 0.92559 0.35308 1.2787 0s0.35308-0.92559 0-1.2787c-2.813-2.8125-6.6847-2.5659-6.9215-2.5479z"/><circle cx="66.183" cy="33.518" r="1.623"/><circle cx="54.003" cy="33.518" r="1.623"/><path d="m76.819 13.18c-8.4994-8.4994-19.8-13.18-31.819-13.18-12.02 0-23.32 4.6809-31.82 13.18-8.4994 8.4995-13.18 19.8-13.18 31.82s4.6809 23.32 13.18 31.82c8.4994 8.4994 19.8 13.18 31.82 13.18 12.019 0 23.32-4.6809 31.819-13.18 8.4994-8.4995 13.18-19.8 13.18-31.82 1.59e-4 -12.02-4.6804-23.32-13.18-31.82zm-69.586 31.82c0-9.2565 3.3494-17.744 8.8974-24.32l52.392 53.845c-6.4576 5.1555-14.635 8.2423-23.522 8.2423-20.825 0-37.767-16.942-37.767-37.767zm66.488 24.496-52.422-53.876c6.4854-5.2423 14.733-8.3869 23.702-8.3869 20.824 0 37.766 16.942 37.766 37.767 0 9.3392-3.4092 17.896-9.0462 24.496z" fill="#ed1c24"/></g><path d="m27.97 62.25q0 3.7187-1.2812 5.6353-1.2708 1.9166-3.8229 1.9166-5.0416 0-5.0416-7.552 0-2.6354 0.55208-4.302 0.55208-1.6666 1.6562-2.4583 1.1042-0.79165 2.9166-0.79165 2.6041 0 3.8124 1.8854 1.2083 1.8854 1.2083 5.6666zm-2.9375 0q0-2.0312-0.19791-3.1562-0.19791-1.125-0.63541-1.6146-0.43749-0.48958-1.2708-0.48958-0.8854 0-1.3437 0.49999-0.44791 0.48958-0.64582 1.6146-0.1875 1.1146-0.1875 3.1458 0 2.0104 0.19791 3.1458 0.20833 1.125 0.64582 1.6146 0.44791 0.48958 1.2916 0.48958 0.83332 0 1.2812-0.51041 0.45833-0.52082 0.65624-1.6562 0.20833-1.1354 0.20833-3.0833zm4.6458 1.1965v-2.5416h5.4166v2.5416zm17.541 1.2618q0 2.3333-1.4583 3.7187-1.4479 1.375-3.9791 1.375-2.2083 0-3.5416-0.98957-1.3229-0.99998-1.6354-2.8854l2.927-0.23958q0.22916 0.93748 0.81249 1.3646 0.58332 0.42708 1.4687 0.42708 1.0937 0 1.7396-0.6979 0.65624-0.69791 0.65624-2.0104 0-1.1562-0.61457-1.8437-0.61457-0.69791-1.7187-0.69791-1.2187 0-1.9896 0.9479h-2.8541l0.51041-8.2603h8.8228v2.177h-6.1666l-0.23958 3.7083q1.0625-0.93748 2.6562-0.93748 2.0937 0 3.3437 1.3021 1.2604 1.3021 1.2604 3.5416z" style="white-space:pre" aria-label="0-5"/></svg>
