<svg xmlns="http://www.w3.org/2000/svg" width="90" height="90"><path d="M45 85.327C22.765 85.327 4.674 67.237 4.674 45S22.763 4.673 45 4.673c22.236 0 40.326 18.09 40.326 40.327 0 22.236-18.09 40.327-40.325 40.327" fill="#FFF"/><path d="M62.488 17.62c-.243-.3-1.683.464-3.218 1.706-1.533 1.242-2.578 2.492-2.334 2.793.244.3 1.683-.465 3.217-1.706 1.534-1.243 2.578-2.493 2.335-2.793z" stroke="#231F20" stroke-width=".25" fill="none"/><path d="M42.837 6.633c1.962.032 4.127.145 5.757 1.374 1.475 1.277 1.717 1.62 2.616 3 1.003 1.892 1.113 3.894 1.003 4.67-.112.78.665 1.893 1.11 2.45.446.557.892 1 .78 1.445-.113.445-.78.557-1.11.668 0 0-.516.286-.475.485.04.2.44.28.38.44-.06.158-.42.517-.558.477-.142-.04 0 .16.238.26.24.1.34.58.26.738-.08.16-.62.298-.62.298s.24 1.517.16 1.837c-.08.32-.483.77-2.654.858-1.084.044-2.866.538-3.198 2.142-.33 1.6.276 3.923 1.16 4.476 0 0 2.203.71 3.193 1.546.992.836 3.447 3.81 3.968 4.335.522.522 4.855 4.073 5.377 4.595.524.52 1.15.992 1.15.992s2.4-3.5 2.714-5.69c.313-2.195 1.137-4.396.992-5.43-.13-.918-.13-1.263-.732-1.83-.815-.762-1.356-.884-1.774-1.357-.55-.625-.575-1.828-.575-1.828-.006-.182-.01-.365-.01-.547l-5.037-4.903c.28.258 1.695-.498 3.2-1.718 1.534-1.243 2.578-2.493 2.335-2.793l3.63 6.448c.144-.016.284-.003.425.017.522.103.626.575.626.575s.313-.314.678-.157c.365.157.834 1.096.784 1.41-.053.312 1.045 1.722.626 4.752-.417 3.027-.315 5.48-.576 7.255-.26 1.776-.886 5.326-1.252 6.894-.365 1.564-1.258 4.133-1.357 4.646-.16.833-.366 1.654-.888 2.02-.524.365-.94.38-1.827.172-.89-.208-1.827-.364-2.454-.575-.626-.208-1.252-.522-1.252-.522s.75.91 1.71 2.283c5.368 5.465 11.8 16.18-3.507 24.288 0 0 2.66 4.107 4.436 7.99l-9.798 1.78-12.698-.154c.163-1.51.158-3.1-.402-3.882-1.243-1.742-4.476-7.375-3.453-12.047.66-2.55 2.406-4.612 3.587-6.927.348-1.713.05-3.437-.418-5.09-1.847-1.147-4.142-1.116-6.183-1.73-3.68-1.264-5.914-2.215-7.485-3.344-2.268-1.318-2.823-2.352-3.118-2.548-.295-.197-.147-.638-.147-.638s.736-3.486 4.91-8.887c2.616-3.388 4.846-6.04 5.59-7.78.1-.237.207-.38.307-.46-.315-.217-.81-.667-1.55-1.53-2.984-3.48-3.61-11.127-3.39-12.84 1.006-7.193 6.327-7.85 7.37-6.806 0 0 .71-4.4 3.862-5.155 1.165-.312 2.365-.376 3.56-.447zm-7.422 38.18c-.997 1.24-4.745 4.398-4.745 4.398.786.247 4.22 1.318 6.235 3.31 2.357 1.796 2.48 1.87 2.24.747 0 0-.25-1.742-.5-2.736-.248-.995-1.242-2.734-1.74-3.73-.496-.993-1.49-1.988-1.49-1.988zm.4-24.282s.464 2.54.715 3.432c.5 1.466 1.41 3.272 1.08 3.978 0 0 .615-.177.966-.702.348-.526.7-2.367.613-2.98-.09-.613-.702-1.14-.702-1.14s-2.38-.967-2.673-2.587z" fill="#231F20"/><path d="M67.9 82.808l-4.648 3.057-47.622-72.71 4.647-3.057L67.9 82.808" fill="#ED1C24"/><path d="M45 0C20.147 0 0 20.147 0 45c0 24.852 20.146 45 45 45 24.853 0 45-20.148 45-45C90 20.147 69.853 0 45 0zm0 85.327C22.765 85.327 4.674 67.237 4.674 45S22.763 4.673 45 4.673c22.236 0 40.326 18.09 40.326 40.327 0 22.236-18.09 40.327-40.325 40.327" fill="#ED1C24"/></svg>