<?xml version="1.0" encoding="UTF-8"?>
<!-- Created with Inkscape (http://www.inkscape.org/) -->
<svg width="90" height="90" version="1.1" viewBox="0 0 90 90" xml:space="preserve" xmlns="http://www.w3.org/2000/svg" xmlns:cc="http://creativecommons.org/ns#" xmlns:dc="http://purl.org/dc/elements/1.1/" xmlns:rdf="http://www.w3.org/1999/02/22-rdf-syntax-ns#"><metadata><rdf:RDF><cc:Work rdf:about=""><dc:format>image/svg+xml</dc:format><dc:type rdf:resource="http://purl.org/dc/dcmitype/StillImage"/><dc:title/></cc:Work></rdf:RDF></metadata><g transform="matrix(1.3333 0 0 -1.3333 -177.04 267.04)"><g transform="matrix(.020268 0 0 .020268 132.78 132.78)"><path d="m1813 76.18c-81.54-81.578-213.82-81.578-295.4 0l-1441.4 1441.4c-81.582 81.6-81.582 213.83 0 295.4l1441.4 1441.4c81.58 81.57 213.86 81.57 295.4 0l1441.4-1441.4c81.57-81.57 81.6-213.8 0-295.4l-1441.4-1441.4" fill="#fff"/><path d="m1813 76.18c-81.54-81.578-213.82-81.578-295.4 0l-1441.4 1441.4c-81.582 81.6-81.582 213.83 0 295.4l1441.4 1441.4c81.58 81.57 213.86 81.57 295.4 0l1441.4-1441.4c81.57-81.57 81.6-213.8 0-295.4z" fill="none" stroke="#59c134" stroke-width="30"/><g><path d="m1800 213.66c-74.39-74.39-195.01-74.39-269.41 0l-1314.6 1314.6c-74.398 74.43-74.398 195.03 0 269.42l1314.6 1314.6c74.4 74.4 195.02 74.4 269.41 0l1314.6-1314.6c74.41-74.39 74.42-194.99 0-269.42l-1314.6-1314.6" fill="#59c134"/><path d="m1646.6 502.23h44.17s-10.91 53.02-9.67 122.21c0 0 21.52 8.707 31.72 9.84 10.18 1.129 87.08-14.66 166.47 9.418 100.8 30.563 233.3 97.403 302.38 285.4 42.37 115.29-225.69 15.207-296.71-30.59-115.36-74.383-146.65-162.85-170.4-197.38-7.91-11.527-33.21-40.59-33.21-40.59s3.83 26.992 11.64 44.602c9.14 20.597 84.37 124.3 88.9 281.71 4.54 157.41-78.15 326.17-113.25 326.17-35.11 0-120.06-190.28-114.39-331.83 5.67-141.57 80.41-259.34 87.21-271.81 6.8-12.457 14.73-38.488 14.73-49.828 0 0-28.21 30.918-34.42 42.648-6.69 12.633-61.85 124.96-172.84 195.18-83.36 52.742-251.33 105.17-293.33 66.812-26.04-23.781 70.22-175.52 135.91-231.02s151.77-92.891 225.38-98.551c73.61-5.652 91.23 1.008 102.27-0.34 12.14-1.48 37.17-9.66 37.17-9.66s3.87-80.492-9.73-122.39" fill="#fff"/><path d="m1236.3 2084.3h-49.68v414.55h53.42l189.46-294.58 17.29-32.9-1.07 32.59v294.89h49.68v-414.55h-52.89l-190.02 295.89-17.25 33.44 1.06-33.39v-295.94" fill="#fff"/></g><path d="m1236.3 2084.3h-49.68v414.55h53.42l189.46-294.58 17.29-32.9-1.07 32.59v294.89h49.68v-414.55h-52.89l-190.02 295.89-17.25 33.44 1.06-33.39z" fill="none" stroke="#fff" stroke-width="2.5"/><path d="m1700.8 2117.4c26.7 0 48.21 10.64 64.5 31.91 16.29 21.28 24.45 49.37 24.45 84.28 0 34.72-8.16 62.72-24.45 84.01-16.29 21.27-37.8 31.92-64.5 31.92-26.89 0-48.49-10.65-64.78-31.92-16.29-21.29-24.44-49.29-24.44-84.01 0-34.91 8.15-63 24.44-84.28 16.29-21.27 37.89-31.91 64.78-31.91zm0-41.41c-39 0-72.26 13.23-99.77 39.67s-41.27 65.75-41.27 117.93c0 51.99 13.76 91.22 41.27 117.66s60.77 39.67 99.77 39.67c38.81 0 71.98-13.23 99.5-39.67 27.5-26.44 41.27-65.67 41.27-117.66 0-52.18-13.77-91.49-41.27-117.93-27.52-26.44-60.69-39.67-99.5-39.67" fill="#fff"/><path d="m1700.8 2117.4c26.7 0 48.21 10.64 64.5 31.91 16.29 21.28 24.45 49.37 24.45 84.28 0 34.72-8.16 62.72-24.45 84.01-16.29 21.27-37.8 31.92-64.5 31.92-26.89 0-48.49-10.65-64.78-31.92-16.29-21.29-24.44-49.29-24.44-84.01 0-34.91 8.15-63 24.44-84.28 16.29-21.27 37.89-31.91 64.78-31.91zm0-41.41c-39 0-72.26 13.23-99.77 39.67s-41.27 65.75-41.27 117.93c0 51.99 13.76 91.22 41.27 117.66s60.77 39.67 99.77 39.67c38.81 0 71.98-13.23 99.5-39.67 27.5-26.44 41.27-65.67 41.27-117.66 0-52.18-13.77-91.49-41.27-117.93-27.52-26.44-60.69-39.67-99.5-39.67z" fill="none" stroke="#fff" stroke-width="2.5"/><path d="m1955.4 2084.3h-49.69v298.35h49.69v-51.55c10.5 16.2 20.7 28.23 30.58 36.06 9.88 7.84 20.2 13.76 30.98 17.76 10.78 4.02 22.75 6.02 35.94 6.02 18.69 0 35.46-3.84 50.33-11.49 14.88-7.66 26.4-18.92 34.61-33.79 8.18-14.87 12.28-38.69 12.28-71.45v-189.91h-49.69v168.54c0 26.71-1.77 45.63-5.35 56.76-3.55 11.13-10.5 19.86-20.82 26.18-10.33 6.32-21.56 9.48-33.67 9.48-14.59 0-28.48-4.27-41.66-12.82s-23.73-20.48-31.66-35.79c-7.91-15.32-11.87-37.22-11.87-65.71v-146.64" fill="#fff"/><path d="m1955.4 2084.3h-49.69v298.35h49.69v-51.55c10.5 16.2 20.7 28.23 30.58 36.06 9.88 7.84 20.2 13.76 30.98 17.76 10.78 4.02 22.75 6.02 35.94 6.02 18.69 0 35.46-3.84 50.33-11.49 14.88-7.66 26.4-18.92 34.61-33.79 8.18-14.87 12.28-38.69 12.28-71.45v-189.91h-49.69v168.54c0 26.71-1.77 45.63-5.35 56.76-3.55 11.13-10.5 19.86-20.82 26.18-10.33 6.32-21.56 9.48-33.67 9.48-14.59 0-28.48-4.27-41.66-12.82s-23.73-20.48-31.66-35.79c-7.91-15.32-11.87-37.22-11.87-65.71z" fill="none" stroke="#fff" stroke-width="2.5"/><path d="m1375.6 1490.5c-43.99-21-85.92-31.52-125.81-31.52-41.49 0-75.06 8.24-100.7 24.72-25.64 16.46-46.12 40.19-61.43 71.18-15.32 30.98-22.98 70.69-22.98 119.12 0 54.67 7.26 97.14 21.78 127.42 14.51 30.27 34.94 53.99 61.29 71.18 26.36 17.18 57.61 25.78 93.76 25.78 24.75 0 47.28-3.92 67.58-11.75 20.3-7.85 36.46-19.73 48.48-35.66 12.02-15.95 18.03-31.75 18.03-47.42v-2.67h-49.68v2.67c0 9.62-3.7 18.57-11.1 26.85s-17.12 14.78-29.15 19.5c-12.04 4.71-25.72 7.08-41.06 7.08-40.3 0-71.05-15.76-92.27-47.28s-31.83-74.97-31.83-130.35c0-55.2 10.88-98.83 32.63-130.89 21.75-32.05 52.42-48.07 92.01-48.07 23.18 0 50.1 5.51 80.77 16.56v118.33h-93.49v41.4h143.17v-186.18" fill="#fff"/><path d="m1375.6 1490.5c-43.99-21-85.92-31.52-125.81-31.52-41.49 0-75.06 8.24-100.7 24.72-25.64 16.46-46.12 40.19-61.43 71.18-15.32 30.98-22.98 70.69-22.98 119.12 0 54.67 7.26 97.14 21.78 127.42 14.51 30.27 34.94 53.99 61.29 71.18 26.36 17.18 57.61 25.78 93.76 25.78 24.75 0 47.28-3.92 67.58-11.75 20.3-7.85 36.46-19.73 48.48-35.66 12.02-15.95 18.03-31.75 18.03-47.42v-2.67h-49.68v2.67c0 9.62-3.7 18.57-11.1 26.85s-17.12 14.78-29.15 19.5c-12.04 4.71-25.72 7.08-41.06 7.08-40.3 0-71.05-15.76-92.27-47.28s-31.83-74.97-31.83-130.35c0-55.2 10.88-98.83 32.63-130.89 21.75-32.05 52.42-48.07 92.01-48.07 23.18 0 50.1 5.51 80.77 16.56v118.33h-93.49v41.4h143.17z" fill="none" stroke="#fff" stroke-width="2.5"/><path d="m1534.6 1471.5h-45.68v414.55h53.21l128.56-296.16 118.53 296.16h52.29v-414.55h-47.81v247.07l1.07 73.99h-1.07l-26.82-74.32-73.53-184.51h-54.14l-79.87 185.45-24.74 67.5h-1.07l1.07-67.36v-247.82" fill="#fff"/><path d="m1534.6 1471.5h-45.68v414.55h53.21l128.56-296.16 118.53 296.16h52.29v-414.55h-47.81v247.07l1.07 73.99h-1.07l-26.82-74.32-73.53-184.51h-54.14l-79.87 185.45-24.74 67.5h-1.07l1.07-67.36z" fill="none" stroke="#fff" stroke-width="2.5"/><path d="m2122.8 1500.4c37.79 0 67.29 16.26 88.51 48.78 21.21 32.52 31.82 75.69 31.82 129.51 0 53.64-10.61 96.76-31.82 129.38-21.22 32.61-50.72 48.92-88.51 48.92-37.62 0-67.07-16.31-88.38-48.92-21.3-32.62-31.96-75.74-31.96-129.38 0-53.82 10.66-96.99 31.96-129.51 21.31-32.52 50.76-48.78 88.38-48.78zm-0.13-41.41c-51.83 0-94.12 19.05-126.88 57.17-32.77 38.1-49.15 92.32-49.15 162.66s16.38 124.52 49.15 162.54c32.76 38.01 75.05 57.03 126.88 57.03 51.82 0 94.15-19.02 127-57.03 32.86-38.02 49.29-92.2 49.29-162.54s-16.43-124.56-49.29-162.66c-32.85-38.12-75.18-57.17-127-57.17" fill="#fff"/><path d="m2122.8 1500.4c37.79 0 67.29 16.26 88.51 48.78 21.21 32.52 31.82 75.69 31.82 129.51 0 53.64-10.61 96.76-31.82 129.38-21.22 32.61-50.72 48.92-88.51 48.92-37.62 0-67.07-16.31-88.38-48.92-21.3-32.62-31.96-75.74-31.96-129.38 0-53.82 10.66-96.99 31.96-129.51 21.31-32.52 50.76-48.78 88.38-48.78zm-0.13-41.41c-51.83 0-94.12 19.05-126.88 57.17-32.77 38.1-49.15 92.32-49.15 162.66s16.38 124.52 49.15 162.54c32.76 38.01 75.05 57.03 126.88 57.03 51.82 0 94.15-19.02 127-57.03 32.86-38.02 49.29-92.2 49.29-162.54s-16.43-124.56-49.29-162.66c-32.85-38.12-75.18-57.17-127-57.17z" fill="none" stroke="#fff" stroke-width="2.5"/></g></g></svg>
