<?xml version="1.0" encoding="UTF-8" standalone="no"?>
<!-- Created with Inkscape (http://www.inkscape.org/) -->
<svg
   xmlns:dc="http://purl.org/dc/elements/1.1/"
   xmlns:cc="http://web.resource.org/cc/"
   xmlns:rdf="http://www.w3.org/1999/02/22-rdf-syntax-ns#"
   xmlns:svg="http://www.w3.org/2000/svg"
   xmlns="http://www.w3.org/2000/svg"
   xmlns:sodipodi="http://inkscape.sourceforge.net/DTD/sodipodi-0.dtd"
   xmlns:inkscape="http://www.inkscape.org/namespaces/inkscape"
   width="490pt"
   height="490pt"
   id="svg2"
   sodipodi:version="0.32"
   inkscape:version="0.43"
   version="1.0"
   sodipodi:docbase="C:\Documents and Settings\James Hare\Desktop"
   sodipodi:docname="oukosher.svg">
  <defs
     id="defs4" />
  <sodipodi:namedview
     id="base"
     pagecolor="#ffffff"
     bordercolor="#666666"
     borderopacity="1.0"
     inkscape:pageopacity="0.0"
     inkscape:pageshadow="2"
     inkscape:zoom="0.5"
     inkscape:cx="375"
     inkscape:cy="212.81337"
     inkscape:document-units="px"
     inkscape:current-layer="layer1"
     showguides="true"
     showgrid="false"
     inkscape:guide-bbox="true"
     inkscape:window-width="1024"
     inkscape:window-height="712"
     inkscape:window-x="-4"
     inkscape:window-y="-4" />
  <metadata
     id="metadata7">
    <rdf:RDF>
      <cc:Work
         rdf:about="">
        <dc:format>image/svg+xml</dc:format>
        <dc:type
           rdf:resource="http://purl.org/dc/dcmitype/StillImage" />
      </cc:Work>
    </rdf:RDF>
  </metadata>
  <g
     inkscape:label="Layer 1"
     inkscape:groupmode="layer"
     id="layer1">
    <path
       sodipodi:type="arc"
       style="font-size:14.7590065px;font-style:normal;font-variant:normal;font-weight:normal;font-stretch:normal;text-align:start;line-height:125%;writing-mode:lr-tb;text-anchor:start;opacity:1;fill:#ffffff;fill-opacity:0;fill-rule:nonzero;stroke:#000000;stroke-width:59.4753418;stroke-miterlimit:4;stroke-dasharray:none;stroke-opacity:1;font-family:Arial"
       id="path1311"
       sodipodi:cx="220"
       sodipodi:cy="194.36218"
       sodipodi:rx="347"
       sodipodi:ry="312"
       d="M 567 194.36218 A 347 312 0 1 1  -127,194.36218 A 347 312 0 1 1  567 194.36218 z"
       transform="matrix(0.776535,0,0,0.851309,136.1619,141.3247)" />
    <path
       style="font-size:12px;font-style:normal;font-variant:normal;font-weight:normal;font-stretch:normal;text-align:start;line-height:125%;writing-mode:lr-tb;text-anchor:start;font-family:Arial"
       d="M 371.32339,190.55119 L 403.7559,190.55119 L 403.7559,332.98822 C 403.75562,357.765 400.96921,377.44029 395.39698,392.01465 C 389.82418,406.5893 379.73795,418.47299 365.13773,427.66602 C 350.64878,436.74712 331.59077,441.28753 307.96313,441.28753 C 285.00399,441.28753 266.22417,437.30764 251.62423,429.34787 C 237.02401,421.38781 226.60311,409.89644 220.36181,394.8735 C 214.12051,379.73862 211,359.11019 211,332.98822 L 211,190.55119 L 243.43251,190.55119 L 243.43251,332.82003 C 243.43251,354.23342 245.38293,370.04103 249.28378,380.24317 C 253.2959,390.33309 260.09443,398.12497 269.67935,403.61823 C 279.37555,409.11178 291.18937,411.85841 305.1211,411.85841 C 328.97157,411.85841 345.96788,406.42111 356.11031,395.54623 C 366.25217,384.67165 371.32311,363.76282 371.32339,332.82003 L 371.32339,190.55119"
       id="flowRoot3061" />
  </g>
</svg>
