<?xml version="1.0" encoding="UTF-8"?>
<!-- Created with Inkscape (http://www.inkscape.org/) -->
<svg width="90" height="90" version="1.1" viewBox="0 0 90 90" xml:space="preserve" xmlns="http://www.w3.org/2000/svg" xmlns:cc="http://creativecommons.org/ns#" xmlns:dc="http://purl.org/dc/elements/1.1/" xmlns:rdf="http://www.w3.org/1999/02/22-rdf-syntax-ns#"><metadata><rdf:RDF><cc:Work rdf:about=""><dc:format>image/svg+xml</dc:format><dc:type rdf:resource="http://purl.org/dc/dcmitype/StillImage"/><dc:title/></cc:Work></rdf:RDF></metadata><g transform="matrix(1.3333 0 0 -1.3333 -31.533 121.56)"><g transform="matrix(.058778 0 0 .058778 23.65 23.67)"><path d="m614.18 1086.8 49.336 54.44 30.293-67.11 57.226 46.07 19.434-71.02 63.75 36.54 8.086-73.19 68.672 26.11-3.438-73.553 71.875 15.039-14.883-72.11 73.359 3.606-26-68.899 73.03-7.929-36.42-63.965 70.88-19.277-45.98-57.461 66.99-30.145-54.39-49.562 61.44-40.262-61.48-40.449 54.43-49.375-67.07-30.313 46.04-57.285-70.96-19.453 36.5-63.789-73.1-8.078 26.07-68.75-73.475 3.457 15.019-71.961-72.031 14.91 3.574-73.445-68.828 26.019-7.93-73.09-63.926 36.469-19.257-70.938-57.422 46.02-30.117-67.063-49.532 54.461-40.218-61.52-40.414 61.539-49.336-54.481-30.293 67.09-57.246-46.047-19.434 70.988-63.742-36.52-8.098 73.192-68.66-26.09 3.445 73.543-71.902-15.039 14.902 72.121-73.371-3.606 25.988 68.907-73.027 7.929 36.426 63.946-70.879 19.297 45.996 57.48-67.012 30.117 54.402 49.571-61.473 40.261 61.473 40.43-54.402 49.375 67.051 30.332-46.035 57.305 70.965 19.453-36.512 63.789 73.125 8.086-26.086 68.73 73.481-3.437-15.024 71.965 72.043-14.914-3.574 73.427 68.828-26.01 7.93 73.09 63.926-36.46 19.257 70.94 57.434-46.02 30.105 67.06 49.532-54.43 40.23 61.49 40.434-61.55" fill="#ed1639"/><path d="m71.934 574.2c0 277.36 224.65 502.21 501.79 502.21 277.13 0 501.78-224.85 501.78-502.21 0-277.35-224.65-502.19-501.78-502.19-277.14 0-501.79 224.84-501.79 502.19" fill="#fddd1b"/><path d="m71.934 574.2c0 277.36 224.65 502.21 501.79 502.21 277.13 0 501.78-224.85 501.78-502.21 0-277.35-224.65-502.19-501.78-502.19-277.14 0-501.79 224.84-501.79 502.19" fill="#fddd1b"/><path d="m231.9 574.44c0 188.8 152.93 341.86 341.59 341.86s341.57-153.07 341.57-341.86c0-188.81-152.91-341.86-341.57-341.86s-341.59 153.05-341.59 341.86" fill="#ed1639"/><path d="m231.9 574.44c0 188.8 152.93 341.86 341.59 341.86s341.57-153.07 341.57-341.86c0-188.81-152.91-341.86-341.57-341.86s-341.59 153.05-341.59 341.86" fill="#ed1639"/><g fill="#fddd1b"><path d="m829.86 733.56-10.488 30.293-10.117-30.313-32.715-8e-3 26.523-18.781-10.175-30.281 26.523 18.777 26.426-18.777-9.707 30.207 26.074 18.855-32.344 0.028"/><path d="m724.75 833.02-10.508 30.281-10.117-30.301-32.734-0.02 26.523-18.781-10.156-30.273 26.523 18.769 26.426-18.769-9.726 30.187 26.093 18.867-32.324 0.04"/><path d="m582.3 872.3-10.508 30.293-10.098-30.324h-32.742l26.531-18.778-10.164-30.285 26.532 18.781 26.41-18.781-9.707 30.195 26.074 18.868-32.328 0.031"/><path d="m441.57 833-10.515 30.301-10.11-30.321-32.722-0.011 26.523-18.77-10.156-30.293 26.523 18.782 26.414-18.782-9.714 30.207 26.082 18.856-32.325 0.031"/><path d="m336.44 733.56-10.508 30.293-10.11-30.313-32.722-8e-3 26.519-18.781-10.164-30.281 26.524 18.777 26.418-18.777-9.707 30.207 26.074 18.855-32.324 0.028"/><path d="m297.46 583.2-10.508 30.301-10.105-30.312-32.739-0.02 26.536-18.769-10.165-30.282 26.524 18.77 26.426-18.77-9.719 30.184 26.074 18.867-32.324 0.031"/><path d="m342.22 446.09-10.52 30.293-10.105-30.313-32.727-0.019 26.524-18.77-10.157-30.293 26.512 18.789 26.43-18.789-9.719 30.196 26.086 18.867-32.324 0.039"/><path d="m435.79 346.65-10.512 30.274-10.105-30.305h-32.727l26.528-18.777-10.168-30.293 26.523 18.789 26.414-18.789-9.703 30.195 26.07 18.875-32.32 0.031"/><path d="m582.3 295.38-10.508 30.293-10.117-30.305h-32.723l26.531-18.777-10.171-30.293 26.519 18.769 26.43-18.769-9.707 30.215 26.074 18.855-32.328 0.012"/><path d="m728.83 346.63-10.508 30.293-10.117-30.305-32.734-0.027 26.543-18.762-10.176-30.293 26.523 18.781 26.426-18.781-9.707 30.188 26.074 18.867-32.324 0.039"/><path d="m822.42 446.09-10.508 30.273-10.117-30.312h-32.734l26.542-18.77-10.195-30.293 26.543 18.789 26.426-18.789-9.707 30.196 26.074 18.867-32.324 0.039"/><path d="m870.53 583.83-10.507 30.305-10.098-30.324-32.734-0.02 26.542-18.758-10.195-30.293 26.543 18.789 26.426-18.789-9.707 30.203 26.055 18.848-32.325 0.039"/><path d="m691.19 393.45c-59.375 62.324-182.67 117.5-328.89 139.61l-0.688 3.73c-1.558 8.867-2.554 17.695-3.015 26.465 151.44-21.738 288.81-79.102 356.21-151.97-7.403-6.445-15.293-12.402-23.614-17.832"/><path d="m600.66 360.32c-27.465 46.836-111.21 92.715-218.03 114.3-5.34 10.274-9.903 21.074-13.582 32.344 122.59-21.133 230.54-74.668 261.65-140.66-6.387-1.738-12.91-3.203-19.57-4.395-3.496-0.605-6.973-1.133-10.469-1.582"/><path d="m399.72 447.08c57.566-15.43 106.43-42.773 122.59-82.266-49.231 12.149-92.762 41.426-122.59 82.266"/><path d="m577.59 566.16c73.988 20.359 148.66 28.074 211.06 22.41 0.508-7.519 0.625-15 0.352-22.39-50.313 4.949-111.02 0.808-174.63-13.633 10.879-4.278 21.504-8.711 31.895-13.301 52.05 8.027 101.62 6.953 139.34-4.102-1.347-7.343-3.066-14.589-5.175-21.699-25.469 7.637-58.77 10.528-96.153 7.871 29.356-14.863 56.153-30.898 79.844-47.929-4.57-8.633-9.707-16.934-15.391-24.864-89.16 64.649-230.01 117.72-389.97 139.98 0.64 9.746 1.929 19.363 3.867 28.789 50.254-7.043 99.246-17.109 145.78-29.766 92.024 32 187.65 48.446 271.57 48.836 2.149-7.148 3.926-14.48 5.352-21.972-72.207 0.332-155.45-11.797-239.53-37.774 10.758-3.34 21.344-6.836 31.793-10.457"/><path d="m829.86 733.56-10.488 30.293-10.117-30.313-32.715-8e-3 26.523-18.781-10.175-30.281 26.523 18.777 26.426-18.777-9.707 30.207 26.074 18.855-32.344 0.028"/><path d="m724.75 833.02-10.508 30.281-10.117-30.301-32.734-0.02 26.523-18.781-10.156-30.273 26.523 18.769 26.426-18.769-9.726 30.187 26.093 18.867-32.324 0.04"/><path d="m582.3 872.3-10.508 30.293-10.098-30.324h-32.742l26.531-18.778-10.164-30.285 26.532 18.781 26.41-18.781-9.707 30.195 26.074 18.868-32.328 0.031"/><path d="m441.57 833-10.515 30.301-10.11-30.321-32.722-0.011 26.523-18.77-10.156-30.293 26.523 18.782 26.414-18.782-9.714 30.207 26.082 18.856-32.325 0.031"/><path d="m336.44 733.56-10.508 30.293-10.11-30.313-32.722-8e-3 26.519-18.781-10.164-30.281 26.524 18.777 26.418-18.777-9.707 30.207 26.074 18.855-32.324 0.028"/><path d="m297.46 583.2-10.508 30.301-10.105-30.312-32.739-0.02 26.536-18.769-10.165-30.282 26.524 18.77 26.426-18.77-9.719 30.184 26.074 18.867-32.324 0.031"/><path d="m342.22 446.09-10.52 30.293-10.105-30.313-32.727-0.019 26.524-18.77-10.157-30.293 26.512 18.789 26.43-18.789-9.719 30.196 26.086 18.867-32.324 0.039"/><path d="m435.79 346.65-10.512 30.274-10.105-30.305h-32.727l26.528-18.777-10.168-30.293 26.523 18.789 26.414-18.789-9.703 30.195 26.07 18.875-32.32 0.031"/><path d="m582.3 295.38-10.508 30.293-10.117-30.305h-32.723l26.531-18.777-10.171-30.293 26.519 18.769 26.43-18.769-9.707 30.215 26.074 18.855-32.328 0.012"/><path d="m728.83 346.63-10.508 30.293-10.117-30.305-32.734-0.027 26.543-18.762-10.176-30.293 26.523 18.781 26.426-18.781-9.707 30.188 26.074 18.867-32.324 0.039"/><path d="m822.42 446.09-10.508 30.273-10.117-30.312h-32.734l26.542-18.77-10.195-30.293 26.543 18.789 26.426-18.789-9.707 30.196 26.074 18.867-32.324 0.039"/><path d="m870.53 583.83-10.507 30.305-10.098-30.324-32.734-0.02 26.542-18.758-10.195-30.293 26.543 18.789 26.426-18.789-9.707 30.203 26.055 18.848-32.325 0.039"/><path d="m691.19 393.45c-59.375 62.324-182.67 117.5-328.89 139.61l-0.688 3.73c-1.558 8.867-2.554 17.695-3.015 26.465 151.44-21.738 288.81-79.102 356.21-151.97-7.403-6.445-15.293-12.402-23.614-17.832"/><path d="m600.66 360.32c-27.465 46.836-111.21 92.715-218.03 114.3-5.34 10.274-9.903 21.074-13.582 32.344 122.59-21.133 230.54-74.668 261.65-140.66-6.387-1.738-12.91-3.203-19.57-4.395-3.496-0.605-6.973-1.133-10.469-1.582"/><path d="m399.72 447.08c57.566-15.43 106.43-42.773 122.59-82.266-49.231 12.149-92.762 41.426-122.59 82.266"/><path d="m577.59 566.16c73.988 20.359 148.66 28.074 211.06 22.41 0.508-7.519 0.625-15 0.352-22.39-50.313 4.949-111.02 0.808-174.63-13.633 10.879-4.278 21.504-8.711 31.895-13.301 52.05 8.027 101.62 6.953 139.34-4.102-1.347-7.343-3.066-14.589-5.175-21.699-25.469 7.637-58.77 10.528-96.153 7.871 29.356-14.863 56.153-30.898 79.844-47.929-4.57-8.633-9.707-16.934-15.391-24.864-89.16 64.649-230.01 117.72-389.97 139.98 0.64 9.746 1.929 19.363 3.867 28.789 50.254-7.043 99.246-17.109 145.78-29.766 92.024 32 187.65 48.446 271.57 48.836 2.149-7.148 3.926-14.48 5.352-21.972-72.207 0.332-155.45-11.797-239.53-37.774 10.758-3.34 21.344-6.836 31.793-10.457"/></g><g fill="#ed1639"><path d="m286.64 251.12c-2.536 2.234-3.911 5.039-4.118 8.418s0.809 6.336 3.047 8.879c2.242 2.535 5.055 3.914 8.43 4.109 3.379 0.215 6.34-0.801 8.871-3.047 2.539-2.238 3.91-5.039 4.121-8.418 0.207-3.378-0.808-6.339-3.051-8.878-2.242-2.528-5.043-3.915-8.41-4.129-3.363-0.227-6.324 0.8-8.89 3.066"/><path d="m246.49 309.23c-0.812 1.551-1.574 2.911-2.273 4.051-0.703 1.145-1.348 2.09-1.934 2.832-2.097 2.649-4.941 4.133-8.519 4.426-3.586 0.301-7.008-0.84-10.274-3.43-2.242-1.777-3.965-3.894-5.168-6.336-1.195-2.441-1.605-4.882-1.23-7.324 0.379-2.441 1.418-4.738 3.117-6.875 1.027-1.308 2.598-2.793 4.695-4.445zm2.184 1.727 15.117 11.984c3.27 2.579 5.012 4.551 5.234 5.887 0.36 1.856-0.242 3.77-1.8 5.735l-1.579 1.992 1.418 1.121 17.618-22.235-1.418-1.125-1.547 1.954c-1.739 2.199-3.696 3.195-5.875 3.007-1.192-0.117-3.27-1.347-6.231-3.691l-33.523-26.563c-3.27-2.585-5.027-4.539-5.27-5.847-0.332-1.895 0.278-3.809 1.832-5.781l1.547-1.954-1.418-1.113-15.066 19.024c-3.684 4.636-6.106 8.671-7.266 12.109-1.168 3.437-1.344 6.98-0.527 10.613 0.816 3.645 2.777 6.692 5.894 9.153 4.235 3.359 8.786 4.687 13.653 4.003 4.867-0.695 9.32-3.593 13.363-8.691 0.992-1.25 1.973-2.676 2.949-4.277 0.973-1.59 1.938-3.36 2.895-5.305"/><path d="m210.91 358.96c-0.305 0.535-0.559 1.016-0.769 1.414-0.207 0.402-0.383 0.734-0.528 0.988-3.094 5.508-6.621 8.985-10.574 10.45-3.949 1.445-7.773 1.14-11.465-0.93-3.601-2.02-5.898-4.793-6.89-8.328-0.985-3.516-0.434-7.141 1.656-10.86 0.922-1.64 2.445-3.722 4.558-6.23zm6.637 57.656 8.656-15.402-16.008-34.707c0.871-1.414 1.559-2.578 2.071-3.484 0.207-0.372 0.425-0.762 0.652-1.204 0.223-0.437 0.445-0.886 0.672-1.355l16.773 9.422c3.633 2.043 5.668 3.711 6.098 4.992 0.644 1.785 0.359 3.75-0.856 5.918l-1.261 2.246 1.57 0.887 13.902-24.735-1.578-0.878-1.222 2.167c-1.372 2.442-3.141 3.739-5.325 3.899-1.211 0.105-3.468-0.774-6.757-2.629l-37.293-20.949c-3.629-2.039-5.665-3.699-6.098-4.988-0.625-1.817-0.324-3.809 0.902-5.997l1.223-2.168-1.578-0.89-11.817 21.027c-3.441 6.133-5.535 10.899-6.277 14.317-0.738 3.406-0.48 6.796 0.773 10.175 1.262 3.379 3.551 5.996 6.872 7.871 3.546 1.993 7.277 2.559 11.187 1.719s7.77-3.398 11.57-7.637l9.86 21.219c2.277 4.864 3.488 8.625 3.633 11.281 0.148 2.657-0.493 5.665-1.922 9.004l1.578 0.879"/><path d="m145.5 428.66c1.922-5.605 5.539-9.387 10.856-11.348 6.617-2.453 14.918-1.972 24.894 1.446 10.231 3.496 17.348 8.379 21.359 14.648 3.043 4.785 3.622 9.942 1.735 15.449-2.016 5.879-5.973 9.961-11.875 12.215-5.899 2.266-13.793 1.711-23.676-1.679-10.723-3.661-17.988-8.504-21.812-14.532-3.032-4.824-3.524-10.222-1.481-16.199zm-3.672-0.273c-2.781 8.132-2.101 16.23 2.031 24.304 4.137 8.078 10.825 13.692 20.067 16.856 9.516 3.254 18.441 2.961 26.781-0.899 8.336-3.855 13.965-10.047 16.887-18.582 2.945-8.625 2.367-16.914-1.754-24.882-4.121-7.961-11.051-13.614-20.781-16.934-9.95-3.41-19.227-2.793-27.828 1.824-7.461 4.016-12.598 10.129-15.403 18.313"/><path d="m120.48 531.61 15.231 3.106 0.281-1.836c-2.644-0.781-4.504-1.563-5.566-2.344-1.707-1.289-2.879-2.832-3.512-4.617-0.625-1.801-0.73-4.047-0.313-6.75l1.426-9.219 49.992 7.735c4.016 0.625 6.465 1.445 7.325 2.46 1.16 1.434 1.547 3.418 1.156 5.965l-0.352 2.266 1.782 0.285 4.293-27.754-1.789-0.273-0.356 2.312c-0.43 2.766-1.566 4.602-3.418 5.5-1.137 0.547-3.543 0.547-7.211-0.019l-49.988-7.735 1.215-7.871c0.472-3.047 1.035-5.195 1.683-6.406 0.867-1.582 2.266-2.832 4.184-3.75 1.922-0.918 4.383-1.27 7.375-1.035l0.281-1.836-15.465-1.602-8.254 53.418"/><path d="m122.79 566.73 26.164-0.425 0.235 14.55c0.066 3.778-0.461 6.305-1.583 7.594-1.468 1.719-4.089 2.707-7.863 2.961l0.028 1.805 23.046-0.371-0.027-1.805c-3.234-0.406-5.309-0.828-6.226-1.266-1.149-0.57-2.055-1.515-2.731-2.836-0.672-1.328-1.027-3.375-1.078-6.14l-0.234-14.551 21.828-0.352c2.922-0.046 4.711 0.055 5.347 0.305 0.641 0.25 1.149 0.699 1.535 1.344 0.387 0.644 0.59 1.879 0.622 3.699l0.183 11.231c0.059 3.742-0.156 6.464-0.648 8.164-0.492 1.703-1.492 3.343-2.996 4.933-1.989 2.051-4.996 4.168-9.032 6.348l0.032 1.953 16.507-5.977-0.824-51.023-1.808 0.031 0.039 2.344c0.023 1.563-0.325 3.047-1.055 4.453-0.504 1.055-1.27 1.777-2.309 2.168-1.035 0.391-3.164 0.613-6.382 0.664l-43.012 0.703c-4.199 0.059-6.797-0.312-7.781-1.152-1.325-1.152-2.008-3.086-2.051-5.82l-0.035-2.344-1.809 0.019 0.824 51.024 14.516 0.5-0.035-1.906c-3.492-0.625-5.895-1.348-7.211-2.153-1.317-0.808-2.332-2.019-3.039-3.636-0.508-1.293-0.789-3.586-0.844-6.875l-0.293-18.161"/><path d="m127.99 676.18 22.465-2.067-0.238-1.492c-6.973-0.93-12.219-3.008-15.738-6.238-3.516-3.227-5.688-7.426-6.516-12.602-0.695-4.34-0.223-8.437 1.418-12.293 1.641-3.859 4.707-7.176 9.211-9.957 4.496-2.777 10.332-4.746 17.5-5.894 5.914-0.946 11.191-0.821 15.836 0.382 4.64 1.2 8.426 3.52 11.351 6.957 2.922 3.438 4.782 7.602 5.563 12.485 0.676 4.242 0.371 8.137-0.926 11.672-1.297 3.539-4.336 7.683-9.109 12.441l1.199 1.336c5.293-4.207 8.941-8.719 10.941-13.519 2-4.805 2.516-10.215 1.555-16.223-1.734-10.832-7.094-18.578-16.086-23.234-6.687-3.485-14.078-4.571-22.18-3.274-6.523 1.047-12.285 3.469-17.281 7.266-4.996 3.804-8.59 8.508-10.769 14.117-2.184 5.605-2.789 11.449-1.821 17.523 0.758 4.723 2.664 9.2 5.715 13.422 0.922 1.242 1.43 2.149 1.524 2.727 0.136 0.867-0.043 1.668-0.551 2.41-0.738 0.976-1.848 1.766-3.332 2.363l0.269 1.692"/><path d="m151.88 748.19 14.953-4.257-0.594-1.758c-2.703 0.531-4.711 0.687-6.019 0.476-2.114-0.355-3.856-1.187-5.242-2.484-1.383-1.305-2.512-3.254-3.383-5.844l-2.977-8.84 47.946-16.132c3.859-1.297 6.406-1.688 7.64-1.18 1.692 0.734 2.945 2.324 3.766 4.758l0.73 2.179 1.715-0.578-8.953-26.609-1.715 0.574 0.746 2.223c0.895 2.652 0.731 4.804-0.504 6.457-0.758 1.008-2.898 2.109-6.414 3.289l-47.945 16.133-2.539-7.543c-0.985-2.93-1.469-5.09-1.453-6.465 0.047-1.801 0.711-3.555 1.992-5.254 1.281-1.703 3.305-3.141 6.074-4.313l-0.594-1.757-14.464 5.695 17.234 51.23"/><path d="m170.02 777.77 23.144-12.211 6.793 12.867c1.762 3.336 2.438 5.836 2.02 7.492-0.532 2.191-2.426 4.258-5.672 6.195l0.84 1.598 20.382-10.758-0.843-1.594c-3.063 1.098-5.102 1.661-6.121 1.684-1.282 0.016-2.52-0.422-3.715-1.293-1.203-0.879-2.45-2.539-3.739-4.988l-6.793-12.871 19.309-10.184c2.59-1.367 4.223-2.086 4.906-2.148 0.684-0.071 1.344 0.097 1.981 0.504 0.633 0.398 1.375 1.406 2.23 3.015l5.238 9.934c1.75 3.308 2.786 5.84 3.118 7.578 0.324 1.738 0.179 3.656-0.446 5.754-0.839 2.726-2.57 5.973-5.179 9.742l0.91 1.731 12.015-12.801-23.812-45.129-1.598 0.844 1.098 2.074c0.727 1.383 1.086 2.867 1.078 4.453 0.024 1.164-0.34 2.152-1.086 2.973-0.742 0.816-2.543 1.98-5.39 3.484l-38.047 20.07c-3.715 1.961-6.2 2.793-7.461 2.5-1.7-0.429-3.184-1.847-4.461-4.269l-1.094-2.071-1.598 0.84 23.813 45.129 13.172-6.121-0.891-1.68c-3.402 1.02-5.867 1.465-7.41 1.336-1.539-0.125-2.988-0.746-4.352-1.867-1.043-0.926-2.332-2.84-3.863-5.75l-8.476-16.062"/><path d="m252.72 803.69c3.258 2.699 5.746 5.156 7.465 7.363 4.644 5.957 6.402 12.535 5.273 19.722-1.129 7.192-5.273 13.575-12.433 19.157-7.219 5.617-14.442 8.086-21.665 7.394-7.214-0.687-13.226-4.113-18.027-10.277-1.801-2.313-3.48-5.238-5.031-8.77zm-7.836-17.852-1.426 1.109 1.527 1.969c1.723 2.207 2.239 4.324 1.543 6.348-0.406 1.222-2.085 2.988-5.039 5.285l-33.75 26.285c-3.261 2.539-5.582 3.77-6.964 3.691-1.907-0.121-3.637-1.171-5.172-3.148l-1.535-1.969-1.422 1.114 16.558 21.265c6.078 7.809 11.59 13.055 16.531 15.746 4.946 2.692 10.454 3.664 16.516 2.926 6.067-0.742 11.809-3.223 17.227-7.445 7.265-5.66 11.621-12.598 13.062-20.817 1.582-9.199-1.578-18.867-9.476-29.015l-18.18-23.344"/><path d="m319.65 875.73c3.832 1.801 6.856 3.555 9.078 5.262 5.981 4.61 9.329 10.531 10.036 17.778 0.707 7.242-1.711 14.464-7.246 21.656-5.582 7.246-11.957 11.441-19.122 12.578-7.164 1.144-13.839-0.672-20.031-5.438-2.316-1.789-4.676-4.199-7.062-7.234zm-12.05-15.32-1.098 1.434 1.973 1.515c2.214 1.711 3.242 3.629 3.082 5.762-0.094 1.289-1.278 3.414-3.563 6.383l-26.098 33.887c-2.523 3.277-4.46 5.05-5.82 5.316-1.879 0.363-3.812-0.223-5.801-1.75l-1.972-1.519-1.102 1.429 21.356 16.446c7.836 6.035 14.488 9.742 19.949 11.109 5.457 1.371 11.027 0.937 16.719-1.301 5.679-2.234 10.625-6.074 14.812-11.512 5.621-7.3 8.102-15.109 7.438-23.421-0.766-9.305-6.243-17.879-16.43-25.723l-23.445-18.055"/><path d="m352.93 968.12 12.238-23.137 12.859 6.801c3.34 1.766 5.305 3.445 5.895 5.047 0.797 2.117 0.398 4.891-1.196 8.32l1.594 0.84 10.778-20.371-1.594-0.844c-1.914 2.637-3.281 4.25-4.113 4.844-1.051 0.734-2.317 1.074-3.797 1.027-1.489-0.05-3.453-0.718-5.903-2.011l-12.859-6.805 10.199-19.297c1.371-2.586 2.32-4.101 2.848-4.539 0.527-0.441 1.168-0.676 1.914-0.699 0.754-0.028 1.933 0.387 3.547 1.234l9.926 5.25c3.308 1.754 5.589 3.254 6.843 4.504 1.25 1.254 2.211 2.918 2.875 5.004 0.84 2.723 1.246 6.383 1.219 10.965l1.727 0.914 2.707-17.344-45.11-23.851-0.843 1.597 2.074 1.098c1.383 0.726 2.515 1.754 3.406 3.066 0.672 0.946 0.937 1.973 0.777 3.067-0.152 1.093-0.984 3.066-2.492 5.918l-20.109 38.027c-1.961 3.715-3.543 5.805-4.75 6.27-1.645 0.605-3.676 0.269-6.094-1.012l-2.07-1.094-0.844 1.598 45.105 23.847 7.426-12.476-1.683-0.887c-2.231 2.758-4.016 4.516-5.36 5.281-1.344 0.762-2.89 1.067-4.648 0.911-1.383-0.176-3.528-1.036-6.434-2.571l-16.058-8.492"/><path d="m438.86 1010.6 7.583-21.607-1.708-0.598c-2.003 3.95-4.156 6.907-6.445 8.864-2.289 1.953-5.008 3.191-8.156 3.711-3.152 0.51-6.141 0.28-8.961-0.72-3.199-1.116-5.492-3.015-6.898-5.702-1.411-2.684-1.672-5.27-0.797-7.758 0.668-1.906 1.933-3.41 3.808-4.512 2.707-1.633 8.321-3.117 16.821-4.441 6.937-1.086 11.765-2.094 14.488-3.02 2.723-0.922 5.058-2.32 7.008-4.191 1.945-1.867 3.355-4.047 4.23-6.531 1.66-4.731 1.258-9.453-1.211-14.164-2.469-4.719-6.59-8.086-12.367-10.11-1.812-0.64-3.562-1.097-5.258-1.383-1.008-0.179-3.179-0.312-6.512-0.394-3.332-0.082-5.402-0.262-6.199-0.547-0.765-0.269-1.293-0.711-1.578-1.328-0.281-0.613-0.281-1.684 0.012-3.203l-1.703-0.602-7.516 21.426 1.703 0.602c2.371-4.207 4.625-7.188 6.758-8.934 2.129-1.758 4.844-2.883 8.145-3.379 3.296-0.5 6.601-0.168 9.921 0.996 3.836 1.348 6.512 3.422 8.032 6.235 1.515 2.808 1.789 5.593 0.82 8.359-0.539 1.531-1.508 2.937-2.898 4.207-1.399 1.269-3.223 2.266-5.481 2.996-1.516 0.5-5.476 1.313-11.875 2.43-6.391 1.117-11.027 2.172-13.914 3.164-2.883 0.988-5.285 2.355-7.207 4.097-1.922 1.739-3.336 3.899-4.238 6.481-1.574 4.48-1.211 8.949 1.093 13.398 2.305 4.446 6.114 7.598 11.426 9.468 3.317 1.16 7.117 1.58 11.407 1.26 1.992-0.17 3.339-0.12 4.046 0.12 0.797 0.29 1.368 0.75 1.704 1.41 0.343 0.64 0.41 1.75 0.21 3.3l1.707 0.6"/><path d="m500.41 957.9 0.407-1.761-27.668-6.297-0.403 1.765 2.285 0.516c2.668 0.609 4.43 1.828 5.282 3.656 0.531 1.188 0.355 3.723-0.524 7.594l-9.492 41.705c-0.742 3.27-1.441 5.38-2.09 6.34-0.5 0.72-1.305 1.25-2.418 1.6-1.57 0.44-3.117 0.49-4.64 0.14l-2.29-0.52-0.398 1.77 27.66 6.29 0.406-1.76-2.335-0.53c-2.633-0.6-4.379-1.82-5.227-3.65-0.566-1.19-0.406-3.73 0.473-7.6l9.492-41.703c0.742-3.273 1.441-5.383 2.09-6.34 0.5-0.719 1.32-1.25 2.464-1.59 1.54-0.449 3.075-0.504 4.594-0.156l2.332 0.531"/><path d="m558.18 1030.8 3.539-20.67-1.703-0.14c-2.176 5.03-4.742 8.74-7.699 11.13-4.254 3.45-9.465 4.9-15.629 4.35-8.399-0.74-14.493-4.63-18.282-11.66-3.172-5.93-4.414-12.77-3.73-20.524 0.558-6.289 2.277-11.922 5.168-16.895 2.89-4.976 6.41-8.496 10.566-10.562 4.149-2.07 8.301-2.918 12.453-2.551 2.434 0.215 4.758 0.727 6.969 1.547 2.219 0.816 4.328 1.914 6.328 3.301l-1.683 19.066c-0.289 3.305-0.735 5.449-1.325 6.426-0.593 0.977-1.437 1.691-2.543 2.129-1.097 0.445-2.976 0.547-5.64 0.312l-0.16 1.848 25.531 2.253 0.168-1.851-1.219-0.105c-2.527-0.219-4.187-1.215-4.976-2.988-0.547-1.254-0.661-3.653-0.348-7.188l1.781-20.187c-3.554-2.336-7.105-4.133-10.652-5.399-3.551-1.262-7.547-2.086-11.988-2.476-12.743-1.129-22.786 2.105-30.118 9.691-5.504 5.695-8.609 12.547-9.312 20.555-0.512 5.804 0.391 11.488 2.711 17.048 2.75 6.62 6.859 11.88 12.328 15.8 4.586 3.25 10.168 5.16 16.75 5.74 2.398 0.21 4.598 0.21 6.594-0.01 1.992-0.21 4.847-0.83 8.57-1.84 1.875-0.52 3.121-0.75 3.734-0.7 0.618 0.06 1.121 0.39 1.508 0.99 0.387 0.61 0.559 1.74 0.512 3.41l1.797 0.15"/><path d="m580.5 1030.4 17.875-1.77 35.391-53.408 3.769 37.998c0.391 4.05 0.195 6.62-0.613 7.72-1.067 1.47-2.895 2.34-5.481 2.6l-2.285 0.23 0.176 1.8 22.93-2.28-0.176-1.8-2.324 0.24c-2.793 0.27-4.844-0.38-6.18-1.95-0.813-0.96-1.406-3.29-1.77-6.98l-5.507-55.543-1.746 0.172-38.184 57.361-4.016-40.568c-0.41-4.047-0.215-6.621 0.559-7.711 1.094-1.481 2.918-2.348 5.476-2.602l2.332-0.23-0.171-1.801-22.938 2.274 0.176 1.796 2.285-0.222c2.816-0.285 4.895 0.359 6.227 1.933 0.82 0.965 1.406 3.297 1.777 6.989l4.531 45.822c-1.679 2.42-2.988 4.04-3.906 4.85s-2.305 1.62-4.148 2.42c-0.915 0.39-2.329 0.68-4.235 0.86l0.176 1.8"/><path d="m697.21 969.52-3.32 28.828-18.535-22.481zm0.305-3.856-24.621 7.156-7.227-8.781c-1.777-2.164-2.851-3.851-3.203-5.066-0.281-0.973-0.066-1.961 0.644-2.961 0.704-1 2.559-2.059 5.555-3.168l-0.496-1.735-20.019 5.817 0.5 1.738c2.793-0.305 4.683-0.195 5.691 0.328 2.031 1.039 4.68 3.574 7.949 7.606l37.578 45.822 1.641-0.47 6.758-59.321c0.547-4.77 1.367-8 2.441-9.688 1.094-1.691 2.91-2.988 5.457-3.894l-0.496-1.734-25.098 7.285 0.508 1.738c2.571-0.617 4.406-0.691 5.508-0.231 1.094 0.465 1.797 1.208 2.09 2.243 0.41 1.371 0.41 3.722 0.019 7.058l-1.179 10.258"/><path d="m786.19 977.07-5.703-14.457-1.699 0.762c0.801 2.637 1.152 4.621 1.074 5.941-0.144 2.137-0.8 3.957-1.965 5.461-1.16 1.504-2.988 2.817-5.476 3.942l-8.504 3.828-20.773-46.129c-1.661-3.711-2.305-6.207-1.915-7.484 0.567-1.754 2.024-3.161 4.368-4.215l2.09-0.942-0.735-1.652-25.605 11.527 0.742 1.649 2.129-0.965c2.558-1.145 4.719-1.191 6.484-0.129 1.074 0.656 2.383 2.676 3.906 6.059l20.762 46.129-7.266 3.265c-2.812 1.27-4.914 1.969-6.289 2.086-1.796 0.129-3.601-0.359-5.429-1.465-1.817-1.109-3.438-2.984-4.883-5.621l-1.691 0.762 7.082 13.836 49.296-22.188"/><path d="m789.02 900.2-0.925-1.547-24.297 14.649 0.926 1.547 2.011-1.211c2.344-1.41 4.453-1.75 6.336-1.024 1.203 0.489 2.832 2.43 4.887 5.836l22.078 36.629c1.738 2.871 2.695 4.879 2.891 6.016 0.136 0.863-0.078 1.812-0.633 2.832-0.832 1.41-1.906 2.516-3.242 3.324l-2.004 1.207 0.929 1.547 24.293-14.641-0.925-1.55-2.051 1.238c-2.324 1.394-4.414 1.726-6.301 1-1.238-0.473-2.879-2.406-4.93-5.813l-22.07-36.629c-1.738-2.875-2.695-4.878-2.891-6.015-0.136-0.863 0.079-1.817 0.672-2.856 0.793-1.394 1.868-2.492 3.196-3.3l2.05-1.239"/><path d="m858.98 926.11c-4.629 3.711-9.707 4.977-15.254 3.797-6.894-1.472-13.652-6.32-20.253-14.543-6.778-8.422-10.176-16.351-10.223-23.793-0.012-5.676 2.254-10.332 6.805-13.984 4.843-3.891 10.371-5.219 16.562-3.977 6.192 1.242 12.567 5.938 19.109 14.082 7.102 8.828 10.657 16.813 10.657 23.946-0.02 5.695-2.481 10.519-7.403 14.472zm2.95 2.2c6.699-5.383 10.461-12.594 11.289-21.622 0.82-9.035-1.836-17.359-7.95-24.972-6.296-7.84-14.003-12.364-23.105-13.563-9.109-1.203-17.188 1.024-24.207 6.668-7.102 5.711-11.047 13.035-11.828 21.965-0.781 8.934 2.058 17.41 8.496 25.43 6.594 8.199 14.758 12.64 24.492 13.336 8.457 0.593 16.067-1.817 22.813-7.242"/><path d="m896.93 897.1 11.66-13.664-11.465-63.032 29.043 24.805c3.086 2.641 4.726 4.641 4.902 5.988 0.254 1.801-0.469 3.696-2.156 5.672l-1.496 1.75 1.387 1.172 14.961-17.527-1.368-1.172-1.523 1.785c-1.816 2.129-3.75 3.086-5.801 2.879-1.262-0.133-3.301-1.406-6.113-3.813l-42.442-36.254-1.14 1.336 12.183 67.825-31.003-26.481c-3.086-2.648-4.727-4.629-4.922-5.953-0.246-1.824 0.468-3.719 2.148-5.672l1.524-1.785-1.375-1.176-14.973 17.524 1.367 1.171 1.492-1.742c1.848-2.152 3.781-3.125 5.832-2.914 1.262 0.133 3.301 1.403 6.121 3.813l35.012 29.91c0.457 2.918 0.645 4.988 0.535 6.203-0.105 1.223-0.535 2.766-1.316 4.625-0.391 0.906-1.211 2.094-2.461 3.555l1.387 1.172"/><path d="m981.52 772.75c-2.578 5.336-6.621 8.66-12.141 9.977-6.855 1.64-15.039 0.164-24.539-4.414-9.738-4.7-16.223-10.399-19.465-17.09-2.441-5.117-2.402-10.305 0.137-15.555 2.695-5.598 7.121-9.168 13.242-10.711 6.133-1.543 13.906-0.039 23.32 4.5 10.196 4.922 16.836 10.602 19.91 17.039 2.434 5.149 2.278 10.567-0.464 16.254zm3.613 0.711c3.738-7.738 4.031-15.863 0.887-24.375-3.145-8.504-9.102-14.883-17.903-19.129-9.058-4.371-17.957-5.14-26.695-2.308-8.742 2.832-15.07 8.308-18.996 16.429-3.953 8.207-4.363 16.512-1.231 24.91 3.145 8.399 9.344 14.836 18.614 19.309 9.472 4.57 18.75 5.074 27.84 1.508 7.89-3.094 13.722-8.543 17.484-16.344"/><path d="m1004.8 709.21-25.007-7.207 3.339-11.594c0.774-2.656 1.914-4.433 3.45-5.332 1.523-0.898 4.082-1.051 7.675-0.453l0.496-1.738-21.531-6.207-0.508 1.738c2.461 0.742 4.192 1.586 5.176 2.531 0.977 0.942 1.602 2.035 1.875 3.282 0.266 1.25 0.086 2.933-0.527 5.062l-3.34 11.586-19.98-5.762c-3.223-0.925-5.293-1.742-6.211-2.445-0.684-0.539-1.172-1.387-1.446-2.555-0.351-1.59-0.312-3.14 0.117-4.636l0.665-2.301-1.739-0.504-7.871 27.308 1.738 0.5 0.645-2.25c0.762-2.628 2.07-4.312 3.945-5.058 1.231-0.465 3.739-0.149 7.559 0.949l41.094 11.848c3.222 0.926 5.293 1.742 6.206 2.445 0.7 0.543 1.19 1.379 1.47 2.508 0.36 1.558 0.32 3.109-0.12 4.641l-0.64 2.25 1.73 0.503 13.64-47.343-13.81-4.637-0.47 1.641c2.74 1.668 4.65 3.246 5.72 4.726 1.09 1.477 1.71 3.098 1.88 4.856 0.17 1.765-0.22 4.304-1.17 7.617l-4.05 14.031"/><path d="m1025.4 601.3c-0.33 5.914-2.79 10.539-7.37 13.871-5.71 4.156-13.82 5.937-24.357 5.359-10.793-0.594-18.977-3.359-24.535-8.293-4.227-3.789-6.18-8.59-5.86-14.41 0.344-6.203 3.051-11.199 8.117-14.98 5.059-3.778 12.813-5.383 23.243-4.809 11.322 0.625 19.632 3.316 24.942 8.078 4.22 3.817 6.16 8.875 5.82 15.184zm3.6-0.731c0.48-8.582-2.37-16.199-8.54-22.844-6.17-6.648-14.13-10.238-23.889-10.777-10.039-0.555-18.555 2.156-25.527 8.125-6.985 5.977-10.723 13.465-11.211 22.469-0.508 9.101 2.305 16.922 8.437 23.469 6.121 6.55 14.317 10.109 24.59 10.675 10.5 0.575 19.26-2.523 26.29-9.312 6.09-5.887 9.37-13.16 9.85-21.805"/><path d="m994.67 536.77c-0.078-0.606-0.148-1.133-0.215-1.594-0.066-0.449-0.117-0.821-0.156-1.113-0.723-6.278 0.098-11.161 2.441-14.657 2.344-3.496 5.622-5.488 9.822-5.976 4.11-0.469 7.6 0.429 10.47 2.703 2.87 2.277 4.55 5.527 5.04 9.765 0.22 1.875 0.2 4.446-0.05 7.727zm-39.199-42.813 2.019 17.559 33.325 18.73c0.125 1.649 0.242 2.996 0.371 4.031 0.046 0.422 0.105 0.871 0.183 1.36 0.059 0.476 0.149 0.976 0.235 1.484l-19.102 2.207c-4.141 0.488-6.77 0.332-7.871-0.469-1.563-1.054-2.488-2.824-2.774-5.273l-0.292-2.578-1.797 0.215 3.242 28.172 1.797-0.204-0.285-2.48c-0.321-2.773 0.363-4.863 2.023-6.27 0.937-0.8 3.262-1.406 7.02-1.847l42.487-4.891c4.15-0.488 6.76-0.332 7.88 0.469 1.56 1.094 2.5 2.891 2.78 5.371l0.28 2.48 1.8-0.214-2.76-23.957c-0.82-6.981-1.91-12.079-3.32-15.274-1.4-3.191-3.59-5.789-6.6-7.793-2.99-2-6.38-2.781-10.17-2.344-4.05 0.469-7.405 2.2-10.073 5.168-2.664 2.989-4.304 7.305-4.89 12.977l-20.43-11.406c-4.695-2.606-7.879-4.942-9.563-7-1.675-2.071-2.918-4.883-3.718-8.418l-1.797 0.195"/><path d="m948.85 464.66-1.758 0.438 6.836 27.531 1.758-0.43-0.567-2.277c-0.652-2.645-0.359-4.774 0.891-6.356 0.816-1.015 3.152-1.992 7.019-2.949l41.503-10.312c3.26-0.801 5.45-1.133 6.6-0.977 0.86 0.117 1.71 0.594 2.52 1.426 1.11 1.211 1.84 2.566 2.23 4.082l0.56 2.273 1.74-0.437-6.83-27.531-1.75 0.441 0.58 2.324c0.64 2.617 0.35 4.727-0.9 6.309-0.82 1.035-3.15 2.031-7 2.988l-41.518 10.313c-3.25 0.808-5.449 1.132-6.602 0.988-0.859-0.121-1.711-0.617-2.527-1.488-1.098-1.172-1.828-2.508-2.207-4.032l-0.578-2.324"/><path d="m987.72 380.07-20.027 6.211 0.632 1.59c5.481-0.34 9.95 0.266 13.418 1.809 5 2.234 8.653 6.23 10.965 11.961 3.156 7.824 2.453 15.011-2.098 21.582-3.859 5.519-9.394 9.726-16.601 12.629-5.859 2.363-11.66 3.378-17.402 3.054-5.75-0.32-10.489-1.863-14.207-4.629-3.735-2.761-6.372-6.074-7.922-9.941-0.918-2.266-1.504-4.57-1.785-6.914-0.286-2.344-0.247-4.727 0.078-7.137l17.754-7.148c3.074-1.231 5.183-1.817 6.335-1.731 1.133 0.09 2.149 0.52 3.047 1.301 0.891 0.781 1.836 2.41 2.832 4.883l1.719-0.684-9.57-23.789-1.719 0.703 0.449 1.133c0.957 2.344 0.821 4.277-0.398 5.781-0.871 1.055-2.961 2.246-6.25 3.575l-18.801 7.558c-0.469 4.238-0.469 8.211 0.02 11.953 0.488 3.731 1.562 7.664 3.222 11.797 4.778 11.875 12.207 19.356 22.293 22.461 7.571 2.324 15.09 1.973 22.539-1.015 5.403-2.188 10.071-5.567 13.977-10.157 4.648-5.449 7.48-11.504 8.476-18.144 0.821-5.567 0-11.407-2.468-17.539-0.903-2.227-1.899-4.192-3-5.871-1.094-1.688-2.93-3.954-5.528-6.805-1.308-1.438-2.082-2.442-2.312-3.008-0.227-0.578-0.168-1.172 0.203-1.797 0.359-0.625 1.289-1.289 2.793-1.992l-0.664-1.68"/><path d="m905.78 368.23-1.562 0.899 14.16 24.59 1.562-0.899-1.171-2.031c-1.368-2.371-1.661-4.492-0.899-6.359 0.508-1.2 2.488-2.782 5.938-4.774l37.07-21.328c2.91-1.672 4.922-2.598 6.074-2.766 0.86-0.125 1.797 0.11 2.813 0.696 1.386 0.847 2.48 1.953 3.261 3.301l1.172 2.031 1.563-0.899-14.16-24.59-1.563 0.899 1.191 2.078c1.348 2.344 1.641 4.445 0.879 6.32-0.5 1.219-2.461 2.821-5.91 4.805l-37.078 21.328c-2.898 1.68-4.922 2.598-6.062 2.774-0.871 0.117-1.821-0.118-2.844-0.743-1.375-0.82-2.461-1.906-3.235-3.261l-1.199-2.071"/><path d="m956.99 326.36-11.035-14.179-64.055-1.446 30.141-23.449c3.211-2.5 5.496-3.699 6.844-3.601 1.816 0.117 3.535 1.191 5.136 3.25l1.407 1.808 1.425-1.105-14.16-18.192-1.425 1.114 1.445 1.855c1.719 2.207 2.265 4.297 1.648 6.25-0.379 1.211-2.039 2.949-4.968 5.234l-44.043 34.278 1.086 1.387 68.882 1.699-32.175 25.039c-3.211 2.5-5.489 3.711-6.817 3.633-1.836-0.137-3.555-1.211-5.137-3.243l-1.433-1.855-1.43 1.113 14.152 18.184 1.426-1.106-1.406-1.804c-1.738-2.246-2.305-4.336-1.68-6.309 0.379-1.203 2.032-2.949 4.961-5.215l36.348-28.281c2.949 0.137 5.012 0.371 6.191 0.723 1.172 0.332 2.586 1.074 4.258 2.207 0.813 0.566 1.809 1.609 2.988 3.125l1.426-1.114"/><path d="m857 246.32c-2.57-2.199-5.551-3.164-8.918-2.91-3.379 0.262-6.172 1.68-8.367 4.246-2.199 2.571-3.176 5.539-2.91 8.918 0.261 3.379 1.668 6.16 4.246 8.36 2.566 2.207 5.547 3.183 8.918 2.918 3.367-0.262 6.16-1.668 8.367-4.247 2.195-2.578 3.176-5.539 2.93-8.906-0.254-3.359-1.68-6.152-4.266-8.379"/></g></g></g></svg>
