<svg width="79" height="90" viewBox="0 0 79 90" fill="none" xmlns="http://www.w3.org/2000/svg">
<path d="M10.6653 76.3342L2.12244 76.3354V72.649H10.9115C14.7707 72.649 17.3043 75.0637 17.3043 78.1768C17.3043 81.2898 14.7707 83.7291 10.9115 83.7291H6.36629V88.2853H2.12244V80.0427L10.6653 80.0451C12.5116 80.0451 13.0604 79.223 13.0604 78.1768C13.0604 77.1562 12.5116 76.3342 10.6653 76.3342Z" fill="#006B4A"/>
<path d="M21.3383 88.2857V72.6493H35.4175V76.3345H25.5821V78.4503H32.2714V82.1367H25.5821V84.6017H35.4175V88.2857H21.3383Z" fill="#006B4A"/>
<path d="M40.0551 88.2857V72.6493H54.1343V76.3345H44.2989V78.4503H50.9906V82.1367H44.2989V88.2857H40.0551Z" fill="#006B4A"/>
<path d="M72.4148 85.731C70.5379 87.6765 67.9896 88.5856 65.4131 88.5856C60.2884 88.5856 56.183 85.0486 56.183 80.4678C56.183 75.8871 60.2884 72.3501 65.4131 72.3501C68.0018 72.3501 70.566 73.2702 72.4454 75.2353L69.0297 77.6108C68.1133 76.5805 66.8796 76.0353 65.4131 76.0353C62.8808 76.0353 60.5628 78.0041 60.5628 80.4678C60.5628 82.9316 62.8808 84.9004 65.4131 84.9004C66.8147 84.9004 68.0888 84.3834 68.9746 83.5172L72.4148 85.731Z" fill="#006B4A"/>
<path d="M53.8877 43.9718H43.8195V51.0984H37.1132V43.9718H26.6101L26.849 43.8934C31.3759 41.4162 34.4375 36.6664 34.4375 31.2145C34.4375 30.2883 34.348 29.3817 34.1802 28.5033L40.4774 16.5338L53.8877 43.9718Z" fill="#006B4A"/>
<path d="M6.83368 31.4232C6.83368 24.6862 12.3921 19.2258 19.2467 19.2258C26.1026 19.2258 31.6598 24.6862 31.6598 31.4232C31.6598 37.098 27.7148 41.8674 22.3733 43.2286V51.3083H15.6681V43.1048C10.5569 41.5955 6.83368 36.9363 6.83368 31.4232Z" fill="#006B4A"/>
<path d="M3.83052 34.1776C3.95058 33.6863 4.08044 33.1975 4.22133 32.7123C4.22133 32.7123 4.24094 32.6584 4.29729 32.6535C4.38918 32.6462 4.38305 32.7123 4.38305 32.7123C4.47004 33.6839 4.65013 34.6309 4.91353 35.5412C2.66542 49.6878 11.9776 60.8034 26.6315 60.8034C40.8369 60.8034 55.1146 50.3579 60.2013 36.8263L66.8501 30.6247L70.686 34.8845C65.9741 52.6526 47.6388 66.9389 29.3696 66.9389C10.8579 66.9389 -0.57751 52.274 3.83052 34.1776ZM61.696 31.4186C64.2638 17.0208 54.9014 5.632 40.0675 5.632C30.6805 5.632 21.2629 10.1944 14.4855 17.1911C13.7614 17.4374 13.0607 17.7363 12.3917 18.0842C12.3917 18.0842 12.306 18.1333 12.2312 18.0512C12.1663 17.9789 12.2129 17.9078 12.2129 17.9078C20.3919 8.05409 32.876 1.4151 45.3282 1.4151C62.4935 1.4151 73.5712 14.0266 71.5816 30.2866L67.6207 25.8896L61.696 31.4186Z" fill="#006B4A"/>
<path d="M73.8453 69.7736H75.982V70.3348H75.264V72.0401H74.562V70.3348H73.8453V69.7736Z" fill="#006B4A"/>
<path d="M76.2891 69.7736H77.2141L77.5633 71.1531L77.9124 69.7736H78.8349V72.0401H78.2616V70.3115L77.823 72.0401H77.2999L76.8649 70.3115V72.0401H76.2891V69.7736Z" fill="#006B4A"/>
</svg>
