<?xml version="1.0" encoding="utf-8"?>
<!-- Generator: Adobe Illustrator 15.0.0, SVG Export Plug-In . SVG Version: 6.00 Build 0)  -->
<!DOCTYPE svg PUBLIC "-//W3C//DTD SVG 1.1//EN" "http://www.w3.org/Graphics/SVG/1.1/DTD/svg11.dtd">
<svg version="1.1" id="Ebene_1" xmlns="http://www.w3.org/2000/svg" xmlns:xlink="http://www.w3.org/1999/xlink" x="0px" y="0px"
	 width="426.082px" height="519.378px" viewBox="0 0 426.082 519.378" enable-background="new 0 0 426.082 519.378"
	 xml:space="preserve">
<g>
	<g>
		<defs>
			<rect id="SVGID_1_" y="-3.624" width="426.082" height="536.125"/>
		</defs>
		<clipPath id="SVGID_2_">
			<use xlink:href="#SVGID_1_"  overflow="visible"/>
		</clipPath>
		<rect clip-path="url(#SVGID_2_)" fill="#A5C400" width="425.717" height="425.716"/>
	</g>
	<g>
		<defs>
			<rect id="SVGID_3_" y="-3.624" width="426.082" height="536.125"/>
		</defs>
		<clipPath id="SVGID_4_">
			<use xlink:href="#SVGID_3_"  overflow="visible"/>
		</clipPath>
	</g>
	<g>
		<defs>
			<rect id="SVGID_5_" y="-3.624" width="426.082" height="536.125"/>
		</defs>
		<clipPath id="SVGID_6_">
			<use xlink:href="#SVGID_5_"  overflow="visible"/>
		</clipPath>
		<path clip-path="url(#SVGID_6_)" d="M0,519.378h425.717V0H0 M417.205,417.194H8.522V8.508h408.682L417.205,417.194
			L417.205,417.194z"/>
	</g>
	<g>
		<defs>
			<rect id="SVGID_7_" y="-3.624" width="426.082" height="536.125"/>
		</defs>
		<clipPath id="SVGID_8_">
			<use xlink:href="#SVGID_7_"  overflow="visible"/>
		</clipPath>
		<path clip-path="url(#SVGID_8_)" d="M381.254,17.031v3.159h-6.729v21.33h-3.96V20.19h-6.739v-3.159H381.254z M408.691,41.52
			h-3.949V22.231h-0.125l-6.777,19.288h-3.24l-6.441-19.288h-0.115V41.52h-3.959V17.031h6.279l6.105,18.219h0.125l5.935-18.219
			h6.164L408.691,41.52L408.691,41.52z"/>
	</g>
	<g>
		<defs>
			<rect id="SVGID_9_" y="-3.624" width="426.082" height="536.125"/>
		</defs>
		<clipPath id="SVGID_10_">
			<use xlink:href="#SVGID_9_"  overflow="visible"/>
		</clipPath>
		<polygon clip-path="url(#SVGID_10_)" fill="#FFFFFF" points="27.039,487.455 34.263,487.455 40.901,455.167 41.045,455.167 
			47.976,487.455 54.759,487.455 64.115,447.929 57.64,447.929 51.523,480.246 51.365,480.246 44.808,447.929 37.512,447.929 
			30.797,480.246 30.653,480.246 24.312,447.929 17.822,447.929 		"/>
	</g>
	<g>
		<defs>
			<rect id="SVGID_11_" y="-3.624" width="426.082" height="536.125"/>
		</defs>
		<clipPath id="SVGID_12_">
			<use xlink:href="#SVGID_11_"  overflow="visible"/>
		</clipPath>
		<polygon clip-path="url(#SVGID_12_)" fill="#FFFFFF" points="74.838,487.455 82.062,487.455 88.7,455.167 88.854,455.167 
			95.785,487.455 102.548,487.455 111.924,447.929 105.434,447.929 99.322,480.246 99.164,480.246 92.597,447.929 85.302,447.929 
			78.596,480.246 78.447,480.246 72.105,447.929 65.621,447.929 		"/>
	</g>
	<g>
		<defs>
			<rect id="SVGID_13_" y="-3.624" width="426.082" height="536.125"/>
		</defs>
		<clipPath id="SVGID_14_">
			<use xlink:href="#SVGID_13_"  overflow="visible"/>
		</clipPath>
		<polygon clip-path="url(#SVGID_14_)" fill="#FFFFFF" points="122.627,487.455 129.855,487.455 136.489,455.167 136.638,455.167 
			143.579,487.455 150.352,487.455 159.718,447.929 153.237,447.929 147.111,480.246 146.963,480.246 140.396,447.929 
			133.105,447.929 126.39,480.246 126.241,480.246 119.9,447.929 113.4,447.929 		"/>
	</g>
	<g>
		<defs>
			<rect id="SVGID_15_" y="-3.624" width="426.082" height="536.125"/>
		</defs>
		<clipPath id="SVGID_16_">
			<use xlink:href="#SVGID_15_"  overflow="visible"/>
		</clipPath>
		<rect x="163.212" y="479.652" clip-path="url(#SVGID_16_)" fill="#FFFFFF" width="6.773" height="7.803"/>
	</g>
	<g>
		<defs>
			<rect id="SVGID_17_" y="-3.624" width="426.082" height="536.125"/>
		</defs>
		<clipPath id="SVGID_18_">
			<use xlink:href="#SVGID_17_"  overflow="visible"/>
		</clipPath>
		<path clip-path="url(#SVGID_18_)" fill="#FFFFFF" d="M185.323,467.707c0-9.012,1.107-15.492,7.972-15.492
			c5.752,0,7.223,6.061,7.223,14.744c0,10.182-1.471,16.221-7.223,16.221C186.661,483.179,185.323,475.367,185.323,467.707
			 M179.504,500.435h6.184v-17.467h0.158c1.4,3.385,4.722,5.521,8.254,5.521c10.248,0,12.908-12.539,12.908-21.531
			c0-11.715-3.533-20.055-12.908-20.055c-4.28,0-7.736,2.961-8.551,5.904H185.4v-4.881h-5.896V500.435z"/>
	</g>
	<g>
		<defs>
			<rect id="SVGID_19_" y="-3.624" width="426.082" height="536.125"/>
		</defs>
		<clipPath id="SVGID_20_">
			<use xlink:href="#SVGID_19_"  overflow="visible"/>
		</clipPath>
		<path clip-path="url(#SVGID_20_)" fill="#FFFFFF" d="M219.035,463.564v-1.477c0-2.34,0.738-10.314,7.224-10.314
			c5.464,0,6.864,5.225,6.864,9.652v2.139H219.035L219.035,463.564z M239.604,468.435v-2.502c0-8.484-1.112-19.029-13.191-19.029
			c-12.165,0-14.092,11.428-14.092,21.32c0,13.564,4.055,20.268,13.728,20.268c10.757,0,13.259-9.809,13.259-14.006h-6.184
			c0,2.941-0.825,9.145-6.711,9.145c-7.594,0-7.594-9.145-7.594-15.195H239.604L239.604,468.435z"/>
	</g>
	<g>
		<defs>
			<rect id="SVGID_21_" y="-3.624" width="426.082" height="536.125"/>
		</defs>
		<clipPath id="SVGID_22_">
			<use xlink:href="#SVGID_21_"  overflow="visible"/>
		</clipPath>
		<path clip-path="url(#SVGID_22_)" fill="#FFFFFF" d="M258.623,452.214c6.645,0,7.967,7.813,7.967,15.492
			c0,8.092-1.322,14.447-8.044,14.447c-6.173,0-7.142-8.043-7.142-14.447C251.404,458.273,252.871,452.214,258.623,452.214
			 M272.408,447.929h-5.887v5.033h-0.152c-0.807-3.105-4.275-6.059-8.553-6.059c-10.026,0-12.894,10.104-12.894,20.803
			c0,5.234,0.729,19.748,12.231,19.748c3.902,0,7.584-1.994,8.926-5.301h0.154v5.166c0,2.723,0.287,8.84-7.689,8.84
			c-3.24,0-6.039-1.4-6.326-5.004h-6.193c1.017,9.873,10.545,9.873,12.961,9.873c7.968,0,13.422-4.275,13.422-16.076V447.929z"/>
	</g>
	<g>
		<defs>
			<rect id="SVGID_23_" y="-3.624" width="426.082" height="536.125"/>
		</defs>
		<clipPath id="SVGID_24_">
			<use xlink:href="#SVGID_23_"  overflow="visible"/>
		</clipPath>
		<path clip-path="url(#SVGID_24_)" fill="#FFFFFF" d="M280.921,487.455h6.175v-39.518h-6.175V487.455z M280.921,441.9h6.175v-7.096
			h-6.175V441.9z"/>
	</g>
	<g>
		<defs>
			<rect id="SVGID_25_" y="-3.624" width="426.082" height="536.125"/>
		</defs>
		<clipPath id="SVGID_26_">
			<use xlink:href="#SVGID_25_"  overflow="visible"/>
		</clipPath>
		<rect x="296.969" y="479.652" clip-path="url(#SVGID_26_)" fill="#FFFFFF" width="6.787" height="7.803"/>
	</g>
	<g>
		<defs>
			<rect id="SVGID_27_" y="-3.624" width="426.082" height="536.125"/>
		</defs>
		<clipPath id="SVGID_28_">
			<use xlink:href="#SVGID_27_"  overflow="visible"/>
		</clipPath>
		<path clip-path="url(#SVGID_28_)" fill="#FFFFFF" d="M313.65,487.455h6.191v-39.518h-6.191V487.455z M313.65,441.9h6.191v-7.096
			h-6.191V441.9z"/>
	</g>
	<g>
		<defs>
			<rect id="SVGID_29_" y="-3.624" width="426.082" height="536.125"/>
		</defs>
		<clipPath id="SVGID_30_">
			<use xlink:href="#SVGID_29_"  overflow="visible"/>
		</clipPath>
		<path clip-path="url(#SVGID_30_)" fill="#FFFFFF" d="M328.317,487.455h6.174v-27.273c0-5.752,4.524-7.967,7.842-7.967
			c5.589,0,5.819,4.947,5.819,7.967v27.273h6.192v-28.021c0-4.631,0-12.529-10.4-12.529c-3.825,0-7.957,2.07-9.577,5.693h-0.163
			v-4.668h-5.887V487.455L328.317,487.455z"/>
	</g>
	<g>
		<defs>
			<rect id="SVGID_31_" y="-3.624" width="426.082" height="536.125"/>
		</defs>
		<clipPath id="SVGID_32_">
			<use xlink:href="#SVGID_31_"  overflow="visible"/>
		</clipPath>
		<path clip-path="url(#SVGID_32_)" fill="#FFFFFF" d="M364.305,487.455h6.212v-34.646h6.77v-4.879h-6.77v-4.631
			c0-2.73,1.323-3.758,3.979-3.758h2.866v-5.313h-4.496c-5.973,0-8.562,3.098-8.562,9.07v4.629h-5.742v4.881h5.742V487.455z"/>
	</g>
	<g>
		<defs>
			<rect id="SVGID_33_" y="-3.624" width="426.082" height="536.125"/>
		</defs>
		<clipPath id="SVGID_34_">
			<use xlink:href="#SVGID_33_"  overflow="visible"/>
		</clipPath>
		<path clip-path="url(#SVGID_34_)" fill="#FFFFFF" d="M379.644,467.707c0,11.121,2.818,20.783,14.228,20.783
			c11.36,0,14.227-9.662,14.227-20.783c0-11.15-2.8-20.803-14.227-20.803C382.539,446.904,379.644,456.556,379.644,467.707
			 M393.727,483.64c-6.337,0-7.584-7.4-7.584-15.934c0-8.57,1.323-15.934,7.584-15.934c6.635,0,7.898,7.361,7.898,15.934
			C401.625,476.238,400.293,483.64,393.727,483.64"/>
	</g>
</g>
<path id="path198" fill="#FFFFFF" d="m 198.8198,236.25253 c 0,-12.38022 3.41523,-17.07616 17.92997,-17.07616 15.36854,0 18.78377,4.69594 18.78377,17.07616 v 66.17012 c 0,12.38021 -3.41523,17.07616 -18.78377,17.07616 -14.51474,0 -17.92997,-4.69595 -17.92997,-17.07616 z m -70.86606,70.43916 c 0,43.97111 10.6726,63.18179 87.94222,63.18179 67.87773,0 87.94222,-12.38022 87.94222,-67.02393 v -77.69652 c 0.4269,-45.25183 -25.18734,-53.78991 -60.62037,-53.78991 -20.49139,0 -30.73708,4.26904 -43.5442,20.49139 h -0.85381 v -72.14677 c 0,-11.52641 4.26904,-15.36854 17.50306,-15.36854 13.66093,0 17.92997,3.84213 17.92997,15.36854 v 20.06449 h 63.18179 v -36.71375 c 0,-35.006121 -16.22235,-49.093953 -84.52699,-49.093953 -62.32798,0 -84.95389,15.368544 -84.95389,63.608693 z"/>
</svg>
