<?xml version="1.0" encoding="UTF-8"?>
<!-- Created with Inkscape (http://www.inkscape.org/) -->
<svg width="90" height="90" version="1.1" viewBox="0 0 90 90" xml:space="preserve" xmlns="http://www.w3.org/2000/svg" xmlns:cc="http://creativecommons.org/ns#" xmlns:dc="http://purl.org/dc/elements/1.1/" xmlns:rdf="http://www.w3.org/1999/02/22-rdf-syntax-ns#"><metadata><rdf:RDF><cc:Work rdf:about=""><dc:format>image/svg+xml</dc:format><dc:type rdf:resource="http://purl.org/dc/dcmitype/StillImage"/><dc:title/></cc:Work></rdf:RDF></metadata><g transform="matrix(1.3333 0 0 -1.3333 -31.534 121.56)"><g transform="matrix(.058777 0 0 .058777 23.65 23.67)"><path d="m614.18 1086.8 49.336 54.44 30.293-67.11 57.226 46.07 19.434-71.02 63.75 36.54 8.086-73.19 68.672 26.11-3.438-73.553 71.875 15.039-14.883-72.11 73.363 3.606-26-68.899 73.03-7.929-36.43-63.965 70.88-19.277-45.98-57.461 67-30.145-54.4-49.562 61.45-40.262-61.49-40.453 54.44-49.375-67.07-30.313 46.03-57.285-70.96-19.453 36.51-63.789-73.11-8.078 26.08-68.75-73.479 3.457 15.019-71.961-72.031 14.91 3.574-73.441-68.828 26.007-7.93-73.078-63.925 36.469-19.258-70.949-57.422 46.031-30.117-67.063-49.532 54.453-40.214-61.512-40.411 61.539-49.339-54.481-30.293 67.09-57.246-46.059-19.434 71-63.742-36.52-8.098 73.192-68.66-26.102 3.445 73.551-71.902-15.039 14.902 72.117-73.371-3.601 25.988 68.906-73.027 7.929 36.426 63.946-70.879 19.297 45.996 57.48-67.012 30.117 54.402 49.571-61.473 40.265 61.473 40.43-54.402 49.375 67.051 30.332-46.035 57.305 70.965 19.453-36.512 63.789 73.125 8.086-26.086 68.73 73.481-3.437-15.024 71.965 72.043-14.914-3.574 73.427 68.828-26.01 7.93 73.09 63.926-36.46 19.257 70.94 57.434-46.02 30.105 67.06 49.528-54.43 40.234 61.49 40.43-61.55" fill="#254aa5"/><path d="m71.934 574.2c0 277.36 224.65 502.21 501.79 502.21 277.13 0 501.77-224.85 501.77-502.21 0-277.36-224.64-502.19-501.77-502.19-277.14 0-501.79 224.83-501.79 502.19" fill="#fddd1b"/><path d="m71.934 574.2c0 277.36 224.65 502.21 501.79 502.21 277.13 0 501.77-224.85 501.77-502.21 0-277.36-224.64-502.19-501.77-502.19-277.14 0-501.79 224.83-501.79 502.19" fill="#fddd1b"/><path d="m231.9 574.44c0 188.8 152.93 341.86 341.59 341.86 188.65 0 341.56-153.07 341.56-341.86 0-188.81-152.91-341.86-341.56-341.86-188.66 0-341.59 153.05-341.59 341.86" fill="#254aa5"/><path d="m231.9 574.44c0 188.8 152.93 341.86 341.59 341.86 188.65 0 341.56-153.07 341.56-341.86 0-188.81-152.91-341.86-341.56-341.86-188.66 0-341.59 153.05-341.59 341.86" fill="#254aa5"/><g fill="#fddd1b"><path d="m829.86 733.56-10.488 30.293-10.117-30.313-32.715-8e-3 26.524-18.781-10.176-30.281 26.523 18.777 26.426-18.777-9.707 30.207 26.074 18.855-32.344 0.028"/><path d="m724.74 833.02-10.508 30.281-10.117-30.301-32.734-0.02 26.523-18.781-10.156-30.273 26.523 18.769 26.426-18.769-9.726 30.187 26.093 18.867-32.324 0.04"/><path d="m582.3 872.3-10.508 30.293-10.098-30.324h-32.734l26.523-18.778-10.156-30.285 26.524 18.781 26.406-18.781-9.707 30.195 26.074 18.868-32.324 0.031"/><path d="m441.57 833-10.515 30.301-10.11-30.321-32.722-0.011 26.523-18.77-10.156-30.293 26.523 18.782 26.414-18.782-9.714 30.207 26.082 18.856-32.325 0.031"/><path d="m336.44 733.56-10.508 30.293-10.11-30.313-32.722-8e-3 26.519-18.781-10.164-30.281 26.524 18.777 26.418-18.777-9.707 30.207 26.074 18.855-32.324 0.028"/><path d="m297.46 583.2-10.508 30.301-10.105-30.312-32.739-0.02 26.536-18.769-10.165-30.286 26.524 18.774 26.426-18.774-9.719 30.188 26.074 18.867-32.324 0.031"/><path d="m342.22 446.08-10.52 30.293-10.105-30.312-32.727-0.02 26.524-18.77-10.157-30.293 26.512 18.79 26.43-18.79-9.719 30.196 26.086 18.867-32.324 0.039"/><path d="m435.79 346.65-10.512 30.274-10.105-30.305h-32.727l26.528-18.777-10.168-30.293 26.523 18.789 26.414-18.789-9.703 30.195 26.07 18.875-32.32 0.031"/><path d="m582.3 295.38-10.508 30.293-10.117-30.305h-32.715l26.523-18.777-10.175-30.293 26.523 18.769 26.426-18.769-9.707 30.215 26.074 18.855-32.324 0.012"/><path d="m728.82 346.63-10.508 30.293-10.117-30.305-32.734-0.027 26.543-18.762-10.176-30.293 26.523 18.781 26.426-18.781-9.707 30.188 26.074 18.867-32.324 0.039"/><path d="m822.42 446.08-10.508 30.273-10.117-30.312h-32.734l26.543-18.77-10.196-30.293 26.543 18.79 26.426-18.79-9.707 30.196 26.074 18.867-32.324 0.039"/><path d="m870.52 583.83-10.507 30.305-10.098-30.324-32.734-0.02 26.543-18.758-10.196-30.297 26.543 18.782 26.426-18.782-9.707 30.207 26.055 18.848-32.325 0.039"/><path d="m691.19 393.44c-59.375 62.325-182.66 117.5-328.89 139.61l-0.688 3.73c-1.558 8.86-2.554 17.699-3.015 26.469 151.44-21.742 288.8-79.106 356.21-151.98-7.403-6.445-15.293-12.402-23.613-17.832"/><path d="m600.66 360.32c-27.461 46.836-111.21 92.715-218.02 114.3-5.34 10.274-9.903 21.074-13.582 32.344 122.58-21.133 230.53-74.668 261.64-140.66-6.386-1.738-12.91-3.203-19.57-4.395-3.496-0.605-6.973-1.132-10.469-1.582"/><path d="m399.72 447.08c57.566-15.43 106.43-42.773 122.58-82.265-49.227 12.148-92.758 41.425-122.58 82.265"/><path d="m577.59 566.16c73.984 20.359 148.65 28.074 211.05 22.41 0.508-7.519 0.625-15 0.352-22.39-50.312 4.949-111.02 0.808-174.63-13.645 10.879-4.277 21.504-8.711 31.895-13.293 52.05 8.02 101.62 6.945 139.34-4.101-1.348-7.344-3.067-14.59-5.176-21.7-25.469 7.637-58.77 10.528-96.153 7.871 29.356-14.863 56.153-30.898 79.844-47.929-4.57-8.633-9.707-16.934-15.39-24.864-89.161 64.649-230 117.73-389.96 139.98 0.64 9.746 1.929 19.363 3.867 28.789 50.254-7.043 99.246-17.109 145.78-29.766 92.012 32 187.64 48.446 271.56 48.836 2.148-7.148 3.925-14.48 5.351-21.972-72.207 0.332-155.45-11.797-239.53-37.774 10.762-3.34 21.348-6.836 31.797-10.457"/><path d="m829.86 733.56-10.488 30.293-10.117-30.313-32.715-8e-3 26.524-18.781-10.176-30.281 26.523 18.777 26.426-18.777-9.707 30.207 26.074 18.855-32.344 0.028"/><path d="m724.74 833.02-10.508 30.281-10.117-30.301-32.734-0.02 26.523-18.781-10.156-30.273 26.523 18.769 26.426-18.769-9.726 30.187 26.093 18.867-32.324 0.04"/><path d="m582.3 872.3-10.508 30.293-10.098-30.324h-32.734l26.523-18.778-10.156-30.285 26.524 18.781 26.406-18.781-9.707 30.195 26.074 18.868-32.324 0.031"/><path d="m441.57 833-10.515 30.301-10.11-30.321-32.722-0.011 26.523-18.77-10.156-30.293 26.523 18.782 26.414-18.782-9.714 30.207 26.082 18.856-32.325 0.031"/><path d="m336.44 733.56-10.508 30.293-10.11-30.313-32.722-8e-3 26.519-18.781-10.164-30.281 26.524 18.777 26.418-18.777-9.707 30.207 26.074 18.855-32.324 0.028"/><path d="m297.46 583.2-10.508 30.301-10.105-30.312-32.739-0.02 26.536-18.769-10.165-30.286 26.524 18.774 26.426-18.774-9.719 30.188 26.074 18.867-32.324 0.031"/><path d="m342.22 446.08-10.52 30.293-10.105-30.312-32.727-0.02 26.524-18.77-10.157-30.293 26.512 18.79 26.43-18.79-9.719 30.196 26.086 18.867-32.324 0.039"/><path d="m435.79 346.65-10.512 30.274-10.105-30.305h-32.727l26.528-18.777-10.168-30.293 26.523 18.789 26.414-18.789-9.703 30.195 26.07 18.875-32.32 0.031"/><path d="m582.3 295.38-10.508 30.293-10.117-30.305h-32.715l26.523-18.777-10.175-30.293 26.523 18.769 26.426-18.769-9.707 30.215 26.074 18.855-32.324 0.012"/><path d="m728.82 346.63-10.508 30.293-10.117-30.305-32.734-0.027 26.543-18.762-10.176-30.293 26.523 18.781 26.426-18.781-9.707 30.188 26.074 18.867-32.324 0.039"/><path d="m822.42 446.08-10.508 30.273-10.117-30.312h-32.734l26.543-18.77-10.196-30.293 26.543 18.79 26.426-18.79-9.707 30.196 26.074 18.867-32.324 0.039"/><path d="m870.52 583.83-10.507 30.305-10.098-30.324-32.734-0.02 26.543-18.758-10.196-30.297 26.543 18.782 26.426-18.782-9.707 30.207 26.055 18.848-32.325 0.039"/><path d="m691.19 393.44c-59.375 62.325-182.66 117.5-328.89 139.61l-0.688 3.73c-1.558 8.86-2.554 17.699-3.015 26.469 151.44-21.742 288.8-79.106 356.21-151.98-7.403-6.445-15.293-12.402-23.613-17.832"/><path d="m600.66 360.32c-27.461 46.836-111.21 92.715-218.02 114.3-5.34 10.274-9.903 21.074-13.582 32.344 122.58-21.133 230.53-74.668 261.64-140.66-6.386-1.738-12.91-3.203-19.57-4.395-3.496-0.605-6.973-1.132-10.469-1.582"/><path d="m399.72 447.08c57.566-15.43 106.43-42.773 122.58-82.265-49.227 12.148-92.758 41.425-122.58 82.265"/><path d="m577.59 566.16c73.984 20.359 148.65 28.074 211.05 22.41 0.508-7.519 0.625-15 0.352-22.39-50.312 4.949-111.02 0.808-174.63-13.645 10.879-4.277 21.504-8.711 31.895-13.293 52.05 8.02 101.62 6.945 139.34-4.101-1.348-7.344-3.067-14.59-5.176-21.7-25.469 7.637-58.77 10.528-96.153 7.871 29.356-14.863 56.153-30.898 79.844-47.929-4.57-8.633-9.707-16.934-15.39-24.864-89.161 64.649-230 117.73-389.96 139.98 0.64 9.746 1.929 19.363 3.867 28.789 50.254-7.043 99.246-17.109 145.78-29.766 92.012 32 187.64 48.446 271.56 48.836 2.148-7.148 3.925-14.48 5.351-21.972-72.207 0.332-155.45-11.797-239.53-37.774 10.762-3.34 21.348-6.836 31.797-10.457"/></g><g fill="#254aa5"><path d="m369.48 193.09c-2.972 1.621-4.945 4.043-5.906 7.285s-0.636 6.355 0.981 9.336c1.613 2.969 4.043 4.941 7.285 5.898 3.25 0.965 6.359 0.645 9.332-0.976 2.973-1.614 4.945-4.043 5.906-7.285 0.965-3.243 0.637-6.348-0.98-9.336-1.61-2.969-4.032-4.942-7.266-5.918-3.227-0.957-6.348-0.637-9.352 0.996"/><path d="m317.33 240.63c-1.144 1.328-2.191 2.48-3.133 3.437-0.941 0.957-1.785 1.727-2.523 2.313-2.649 2.109-5.754 2.902-9.309 2.383-3.554-0.516-6.625-2.411-9.222-5.672-1.786-2.246-2.981-4.688-3.594-7.344-0.609-2.656-0.461-5.117 0.465-7.422 0.918-2.285 2.449-4.277 4.59-5.988 1.296-1.035 3.164-2.117 5.586-3.25zm1.735 2.187 12.007 15.086c2.59 3.262 3.848 5.567 3.766 6.926-0.078 1.895-1.098 3.613-3.059 5.176l-1.988 1.582 1.125 1.414 22.199-17.664-1.121-1.406-1.953 1.543c-2.187 1.746-4.32 2.285-6.402 1.601-1.137-0.383-2.879-2.051-5.231-5.012l-26.629-33.464c-2.597-3.262-3.863-5.567-3.804-6.895 0.101-1.914 1.132-3.652 3.097-5.215l1.95-1.543-1.125-1.426-18.997 15.118c-4.632 3.691-7.91 7.07-9.824 10.156s-2.883 6.484-2.918 10.215c-0.027 3.73 1.192 7.148 3.668 10.254 3.364 4.218 7.492 6.55 12.387 6.98 4.898 0.43 9.898-1.375 14.988-5.437 1.25-0.989 2.531-2.149 3.84-3.477 1.309-1.34 2.652-2.844 4.024-4.512"/><path d="m271.59 280.67c-0.422 0.457-0.781 0.859-1.082 1.199-0.293 0.344-0.539 0.637-0.742 0.852-4.286 4.629-8.52 7.207-12.704 7.695-4.183 0.508-7.832-0.684-10.937-3.555-3.039-2.804-4.629-6.035-4.774-9.687-0.144-3.664 1.235-7.051 4.125-10.196 1.282-1.386 3.247-3.046 5.883-5zm-6.922 57.637 12-12.989-7.527-37.461c1.171-1.171 2.117-2.148 2.824-2.91 0.289-0.312 0.59-0.656 0.906-1.027 0.324-0.371 0.645-0.75 0.973-1.16l14.132 13.054c3.059 2.825 4.653 4.922 4.774 6.282 0.215 1.875-0.524 3.73-2.203 5.547l-1.75 1.894 1.32 1.231 19.254-20.84-1.324-1.231-1.688 1.836c-1.898 2.051-3.929 2.91-6.086 2.559-1.207-0.196-3.199-1.563-5.968-4.121l-31.414-29.035c-3.059-2.821-4.653-4.911-4.774-6.27-0.191-1.902 0.567-3.777 2.266-5.613l1.687-1.836-1.328-1.231-16.367 17.715c-4.774 5.176-7.914 9.324-9.422 12.469-1.516 3.156-2.051 6.516-1.605 10.09 0.437 3.574 2.054 6.66 4.851 9.238 2.988 2.762 6.485 4.18 10.485 4.266 4.003 0.089 8.343-1.493 13.031-4.746l4.668 22.941c1.086 5.254 1.39 9.187 0.918 11.816-0.473 2.618-1.793 5.391-3.953 8.301l1.32 1.231"/><path d="m191.79 332.96c3.191-4.992 7.605-7.812 13.234-8.457 7.012-0.812 14.957 1.621 23.844 7.305 9.102 5.828 14.863 12.254 17.281 19.297 1.821 5.371 1.157 10.507-1.98 15.41-3.352 5.242-8.16 8.261-14.43 9.062-6.269 0.801-13.808-1.613-22.609-7.246-9.543-6.094-15.457-12.531-17.742-19.289-1.801-5.398-1-10.762 2.402-16.082zm-3.504-1.133c-4.629 7.235-5.891 15.262-3.785 24.082 2.101 8.828 7.269 15.879 15.492 21.133 8.477 5.418 17.215 7.246 26.234 5.477 9.012-1.766 15.95-6.453 20.805-14.051 4.914-7.676 6.317-15.871 4.195-24.59-2.113-8.711-7.503-15.84-16.171-21.387-8.86-5.664-18.012-7.265-27.465-4.804-8.203 2.129-14.641 6.836-19.305 14.14"/><path d="m143.09 426.68 14.055 6.652 0.711-1.719c-2.387-1.386-4-2.578-4.844-3.605-1.36-1.649-2.125-3.426-2.305-5.32-0.183-1.895 0.25-4.102 1.305-6.621l3.582-8.614 46.699 19.453c3.758 1.563 5.934 2.95 6.524 4.141 0.789 1.668 0.683 3.691-0.301 6.062l-0.883 2.122 1.668 0.691 10.797-25.918-1.672-0.691-0.902 2.168c-1.075 2.578-2.618 4.082-4.633 4.511-1.239 0.274-3.567-0.312-6.992-1.738l-46.7-19.453 3.063-7.344c1.187-2.863 2.246-4.805 3.164-5.82 1.223-1.328 2.875-2.207 4.965-2.649 2.086-0.437 4.551-0.183 7.402 0.754l0.719-1.711-14.637-5.242-20.785 49.891"/><path d="m137.18 461.16 25.461 6.035-3.36 14.16c-0.867 3.672-2.008 5.997-3.406 6.973-1.852 1.297-4.637 1.602-8.355 0.926l-0.415 1.758 22.422 5.324 0.418-1.758c-3.031-1.191-4.933-2.109-5.715-2.765-0.972-0.829-1.625-1.981-1.949-3.426-0.328-1.446-0.168-3.516 0.469-6.211l3.363-14.16 21.235 5.039c2.851 0.683 4.554 1.218 5.113 1.621 0.559 0.398 0.941 0.957 1.156 1.679 0.211 0.723 0.11 1.973-0.312 3.739l-2.59 10.929c-0.867 3.641-1.75 6.231-2.645 7.754-0.898 1.524-2.269 2.871-4.121 4.043-2.429 1.493-5.867 2.801-10.316 3.926l-0.449 1.895 17.468-1.719 11.786-49.649-1.758-0.421-0.543 2.277c-0.364 1.523-1.067 2.879-2.117 4.07-0.75 0.891-1.672 1.399-2.77 1.524-1.102 0.129-3.219-0.184-6.355-0.926l-41.856-9.942c-4.086-0.968-6.508-1.972-7.258-3.027-0.996-1.437-1.183-3.488-0.547-6.152l0.539-2.278-1.753-0.418-11.79 49.649 13.942 4.062 0.437-1.855c-3.226-1.465-5.379-2.754-6.453-3.867-1.074-1.114-1.758-2.539-2.051-4.278-0.171-1.378 0.122-3.671 0.879-6.867l4.196-17.664"/><path d="m117.01 570.27 22.355 3.011 0.106-1.508c-6.586-2.464-11.239-5.664-13.942-9.593-2.707-3.938-3.886-8.516-3.535-13.746 0.293-4.383 1.668-8.27 4.129-11.668 2.465-3.379 6.199-5.938 11.207-7.637s11.133-2.316 18.375-1.836c5.977 0.41 11.094 1.707 15.352 3.926 4.254 2.207 7.422 5.312 9.508 9.316 2.078 4.004 2.953 8.477 2.621 13.41-0.286 4.289-1.454 8.008-3.512 11.168-2.051 3.16-5.942 6.52-11.66 10.082l0.875 1.578c6.097-2.918 10.664-6.5 13.687-10.73 3.024-4.234 4.735-9.391 5.145-15.465 0.726-10.941-2.762-19.691-10.485-26.246-5.734-4.891-12.699-7.605-20.886-8.152-6.59-0.43-12.75 0.633-18.465 3.222-5.719 2.586-10.27 6.368-13.653 11.348-3.386 4.98-5.285 10.527-5.695 16.668-0.316 4.777 0.535 9.566 2.563 14.367 0.625 1.41 0.918 2.41 0.875 2.992-0.059 0.879-0.414 1.621-1.075 2.231-0.937 0.789-2.191 1.305-3.773 1.558l-0.117 1.704"/><path d="m123.72 645.07 15.531-0.679-0.168-1.844c-2.754-0.113-4.742-0.422-5.969-0.93-1.964-0.836-3.476-2.047-4.519-3.633-1.047-1.589-1.692-3.746-1.934-6.468l-0.843-9.289 50.375-4.579c4.05-0.367 6.621-0.16 7.703 0.625 1.476 1.11 2.332 2.938 2.558 5.504l0.211 2.286 1.797-0.168-2.539-27.957-1.801 0.164 0.215 2.336c0.254 2.785-0.41 4.835-1.992 6.16-0.973 0.804-3.309 1.379-7.004 1.715l-50.375 4.578-0.723-7.93c-0.277-3.074-0.25-5.285 0.086-6.625 0.461-1.738 1.516-3.289 3.156-4.648 1.641-1.356 3.946-2.29 6.907-2.79l-0.168-1.843-15.395 2.183 4.891 53.832"/><path d="m134.32 678.07 25.387-6.367 3.543 14.109c0.918 3.664 0.98 6.25 0.18 7.758-1.039 2.004-3.368 3.563-6.985 4.668l0.442 1.754 22.351-5.605-0.437-1.754c-3.239 0.343-5.352 0.402-6.348 0.183-1.246-0.289-2.352-1.007-3.309-2.14-0.949-1.137-1.765-3.047-2.437-5.731l-3.543-14.113 21.168-5.313c2.844-0.71 4.605-1.019 5.281-0.921 0.68 0.097 1.281 0.418 1.805 0.961 0.519 0.539 1 1.695 1.445 3.46l2.735 10.895c0.906 3.629 1.316 6.328 1.222 8.098-0.09 1.765-0.691 3.597-1.797 5.488-1.464 2.445-3.914 5.187-7.347 8.23l0.48 1.895 14.711-9.578-12.418-49.492-1.754 0.437 0.574 2.277c0.379 1.512 0.379 3.04-0.011 4.582-0.246 1.133-0.832 2.012-1.75 2.629-0.926 0.614-2.946 1.317-6.071 2.106l-41.722 10.461c-4.074 1.027-6.688 1.242-7.844 0.66-1.547-0.82-2.652-2.555-3.32-5.211l-0.567-2.27-1.754 0.442 12.414 49.492 14.247-2.82-0.461-1.848c-3.547 0.184-6.051 0.031-7.516-0.457s-2.73-1.437-3.789-2.851c-0.785-1.141-1.582-3.309-2.383-6.497l-4.422-17.617"/><path d="m208.41 722.83c2.524 3.406 4.352 6.383 5.496 8.941 3.086 6.891 3.223 13.696 0.411 20.411-2.813 6.711-8.36 11.918-16.653 15.629-8.351 3.734-15.949 4.406-22.797 2.007-6.843-2.39-11.867-7.152-15.054-14.285-1.196-2.676-2.129-5.914-2.793-9.719zm-3.343-19.199-1.649 0.738 1.016 2.27c1.14 2.554 1.136 4.738-0.02 6.535-0.687 1.094-2.738 2.402-6.156 3.929l-39.051 17.461c-3.773 1.692-6.32 2.329-7.644 1.926-1.825-0.578-3.246-2.008-4.274-4.293l-1.015-2.277-1.653 0.738 11.008 24.606c4.039 9.031 8.137 15.449 12.297 19.242 4.152 3.789 9.266 6.051 15.332 6.777 6.066 0.735 12.234-0.308 18.504-3.109 8.406-3.762 14.297-9.465 17.656-17.094 3.734-8.555 2.981-18.703-2.269-30.437l-12.082-27.012"/><path d="m232.87 879.94 17.348-11.769-1.07-1.336c-5.141 1.926-9.594 2.648-13.364 2.168-5.433-0.676-10.093-3.426-13.968-8.242-5.29-6.567-6.711-13.657-4.27-21.262 2.082-6.398 6.148-12.039 12.207-16.914 4.922-3.961 10.176-6.621 15.762-7.988 5.586-1.364 10.566-1.266 14.937 0.293 4.371 1.562 7.864 3.964 10.473 7.211 1.527 1.898 2.769 3.929 3.719 6.093 0.945 2.164 1.613 4.45 2 6.852l-14.907 12c-2.589 2.086-4.437 3.25-5.55 3.5-1.118 0.25-2.215 0.133-3.297-0.356-1.086-0.488-2.461-1.769-4.133-3.851l-1.445 1.168 16.074 19.965 1.445-1.164-0.765-0.95c-1.59-1.98-2.028-3.867-1.297-5.66 0.531-1.265 2.175-3.008 4.937-5.234l15.781-12.707c-0.769-4.184-1.937-7.988-3.484-11.418-1.555-3.434-3.727-6.887-6.523-10.363-8.024-9.961-17.309-14.961-27.864-14.985-7.918-0.023-15.004 2.485-21.265 7.528-4.543 3.652-8.008 8.242-10.418 13.777-2.86 6.566-3.801 13.176-2.836 19.832 0.84 5.551 3.324 10.902 7.469 16.051 1.515 1.879 3.039 3.461 4.578 4.75s3.961 2.922 7.265 4.898c1.68 0.992 2.707 1.727 3.094 2.211 0.391 0.484 0.5 1.074 0.332 1.774-0.172 0.699-0.867 1.605-2.098 2.722l1.133 1.406"/><path d="m267.31 906.5 17.254-19.683 10.941 9.589c2.84 2.493 4.359 4.582 4.562 6.274 0.289 2.242-0.742 4.851-3.078 7.82l1.356 1.192 15.191-17.336-1.363-1.192c-2.465 2.125-4.168 3.379-5.109 3.766-1.196 0.469-2.508 0.508-3.938 0.117-1.437-0.391-3.191-1.496-5.273-3.32l-10.942-9.59 14.383-16.41c1.934-2.207 3.203-3.465 3.82-3.766 0.614-0.309 1.289-0.387 2.028-0.238 0.734 0.144 1.789 0.824 3.156 2.023l8.449 7.403c2.817 2.468 4.688 4.453 5.617 5.964 0.93 1.504 1.477 3.348 1.645 5.532 0.187 2.847-0.266 6.492-1.356 10.953l1.469 1.289 6.649-16.258-38.375-33.625-1.192 1.355 1.762 1.543c1.18 1.032 2.043 2.29 2.601 3.774 0.442 1.082 0.461 2.137 0.055 3.164-0.402 1.031-1.668 2.762-3.793 5.184l-28.355 32.351c-2.77 3.156-4.789 4.824-6.075 5-1.738 0.207-3.636-0.59-5.691-2.391l-1.766-1.55-1.187 1.363 38.371 33.629 10.113-10.422-1.429-1.258c-2.813 2.172-4.957 3.473-6.442 3.906-1.484 0.43-3.062 0.368-4.734-0.191-1.301-0.492-3.192-1.82-5.66-3.988l-13.664-11.973"/><path d="m335.75 959.8c-5.058-3.09-7.969-7.442-8.734-13.059-0.953-6.992 1.316-14.988 6.812-23.988 5.633-9.223 11.942-15.117 18.926-17.68 5.332-1.929 10.488-1.379 15.457 1.66 5.309 3.243 8.43 7.989 9.356 14.239 0.933 6.25-1.325 13.836-6.77 22.754-5.906 9.668-12.207 15.718-18.918 18.144-5.359 1.91-10.738 1.219-16.129-2.07zm-1.062 3.523c7.332 4.481 15.39 5.578 24.164 3.289 8.781-2.285 15.715-7.597 20.8-15.933 5.247-8.586 6.883-17.363 4.926-26.34-1.953-8.977-6.781-15.813-14.476-20.512-7.778-4.75-16-5.98-24.668-3.679-8.672 2.293-15.684 7.832-21.043 16.609-5.481 8.976-6.899 18.16-4.246 27.562 2.304 8.157 7.148 14.493 14.543 19.004"/><path d="m433.59 1009.3 9.047-18.918-1.594-0.61c-3.469 4.25-6.949 7.121-10.445 8.61-5.039 2.148-10.45 2.128-16.227-0.082-7.875-3.008-12.676-8.411-14.398-16.211-1.43-6.575-0.758-13.496 2.015-20.762 2.254-5.906 5.449-10.852 9.59-14.844 4.137-3.996 8.484-6.422 13.047-7.277 4.559-0.856 8.785-0.535 12.68 0.949 2.281 0.871 4.375 2 6.281 3.391 1.906 1.394 3.637 3.031 5.183 4.91l-6.824 17.879c-1.187 3.101-2.199 5.039-3.031 5.82-0.844 0.777-1.848 1.227-3.027 1.352-1.184 0.125-3.02-0.286-5.508-1.239l-0.664 1.735 23.949 9.14 0.656-1.734-1.136-0.434c-2.372-0.906-3.7-2.32-3.977-4.234-0.18-1.359 0.363-3.695 1.629-7.012l7.23-18.929c-2.777-3.219-5.703-5.926-8.769-8.102-3.071-2.184-6.688-4.074-10.856-5.664-11.953-4.563-22.492-4.195-31.621 1.098-6.847 3.968-11.703 9.711-14.574 17.226-2.078 5.442-2.762 11.156-2.051 17.145 0.84 7.113 3.356 13.3 7.551 18.558 3.52 4.375 8.367 7.746 14.539 10.099 2.254 0.86 4.367 1.46 6.344 1.8 1.98 0.33 4.898 0.52 8.746 0.57 1.945 0.01 3.211 0.13 3.789 0.34 0.574 0.22 0.973 0.68 1.176 1.37 0.211 0.69 0.062 1.83-0.442 3.41l1.692 0.65"/><path d="m482.01 986.95c0.605 0.117 1.136 0.207 1.586 0.281 0.449 0.067 0.82 0.125 1.109 0.18 6.207 1.176 10.629 3.402 13.273 6.684 2.641 3.285 3.567 7.012 2.782 11.162-0.766 4.06-2.664 7.12-5.688 9.19-3.023 2.06-6.633 2.69-10.82 1.9-1.856-0.35-4.309-1.13-7.359-2.33zm52.531-24.695-17.371-3.285-27.777 26.25c-1.618-0.371-2.942-0.657-3.961-0.852-0.418-0.078-0.868-0.156-1.352-0.23-0.477-0.071-0.98-0.145-1.5-0.207l3.574-18.903c0.778-4.097 1.703-6.554 2.789-7.375 1.485-1.179 3.438-1.535 5.868-1.078l2.546 0.485 0.336-1.778-27.875-5.273-0.34 1.777 2.45 0.457c2.754 0.524 4.55 1.793 5.394 3.805 0.485 1.121 0.375 3.535-0.328 7.246l-7.953 42.023c-0.773 4.09-1.703 6.56-2.781 7.38-1.516 1.17-3.508 1.52-5.969 1.06l-2.445-0.47-0.336 1.78 23.699 4.48c6.91 1.31 12.102 1.77 15.566 1.38 3.473-0.39 6.602-1.72 9.399-3.98 2.801-2.27 4.554-5.28 5.265-9.02 0.754-4 0.106-7.72-1.945-11.153-2.051-3.437-5.691-6.277-10.933-8.527l16.964-16.125c3.883-3.703 7.063-6.051 9.532-7.039 2.476-0.992 5.523-1.344 9.144-1.055l0.34-1.773"/><path d="m577.75 988.55-11.645 26.579-11.105-26.939zm1.426-3.594-25.629-0.406-4.328-10.516c-1.071-2.59-1.59-4.515-1.574-5.785 0.023-1.012 0.515-1.891 1.488-2.637 0.969-0.754 3.055-1.218 6.25-1.394l0.023-1.805-20.843-0.328-0.032 1.801c2.758 0.535 4.539 1.199 5.34 1.992 1.637 1.59 3.426 4.793 5.367 9.605l22.43 54.856 1.707 0.03 23.922-54.71c1.914-4.398 3.652-7.246 5.176-8.539 1.543-1.293 3.652-2.004 6.367-2.121l0.019-1.805-26.113-0.414-0.031 1.805c2.637 0.172 4.406 0.641 5.324 1.402 0.918 0.766 1.367 1.684 1.348 2.758-0.02 1.43-0.703 3.684-2.051 6.754l-4.16 9.457"/><path d="m631.66 992.39c1.652-0.594 3.125-1.071 4.426-1.438 1.289-0.371 2.402-0.629 3.328-0.777 3.352-0.528 6.437 0.312 9.27 2.515 2.839 2.207 4.589 5.368 5.234 9.489 0.449 2.83 0.281 5.55-0.488 8.15-0.782 2.62-2.129 4.69-4.063 6.23-1.933 1.54-4.25 2.53-6.953 2.95-1.641 0.26-3.789 0.29-6.465 0.08zm-0.437-2.75-3.008-19.047c-0.645-4.117-0.606-6.746 0.144-7.883 0.996-1.609 2.735-2.606 5.207-2.996l2.508-0.402-0.281-1.782-28.02 4.422 0.286 1.785 2.46-0.386c2.762-0.434 4.883 0.152 6.356 1.761 0.793 0.899 1.496 3.207 2.082 6.938l6.668 42.249c0.656 4.12 0.617 6.74-0.086 7.88-1.035 1.61-2.793 2.61-5.266 3l-2.449 0.39 0.274 1.79 23.972-3.79c5.852-0.92 10.364-2.25 13.555-3.99 3.184-1.74 5.715-4.22 7.57-7.45 1.875-3.23 2.489-6.8 1.875-10.73-0.84-5.334-3.293-9.396-7.344-12.185-4.042-2.789-9.289-3.676-15.722-2.66-1.563 0.25-3.262 0.629-5.059 1.148-1.797 0.512-3.703 1.16-5.722 1.938"/><path d="m692 981.42 29.211-9.645 5.938 17.996c1.062 3.211 1.562 5.395 1.492 6.547-0.047 0.875-0.477 1.758-1.289 2.637-1.082 1.183-2.371 2.013-3.856 2.503l-2.219 0.74 0.567 1.71 26.887-8.875-0.567-1.715-2.226 0.735c-1.477 0.492-3.008 0.601-4.571 0.328-1.152-0.168-2.07-0.695-2.754-1.582-0.683-0.891-1.543-2.879-2.558-5.969l-13.399-40.57c-1.047-3.184-1.543-5.352-1.476-6.504 0.051-0.879 0.469-1.75 1.242-2.621 1.113-1.192 2.422-2.032 3.906-2.52l2.227-0.738-0.567-1.715-26.894 8.879 0.566 1.711 2.227-0.731c2.558-0.851 4.676-0.707 6.355 0.418 1.106 0.735 2.278 2.985 3.516 6.758l6.32 19.153-29.211 9.636-6.316-19.148c-1.055-3.184-1.543-5.352-1.484-6.504 0.058-0.875 0.488-1.754 1.289-2.637 1.082-1.183 2.363-2.015 3.847-2.504l2.285-0.754-0.566-1.714-26.953 8.894 0.566 1.719 2.227-0.738c2.597-0.856 4.734-0.723 6.406 0.406 1.074 0.742 2.227 3 3.477 6.769l13.398 40.573c1.055 3.22 1.551 5.4 1.484 6.55-0.058 0.88-0.468 1.75-1.242 2.62-1.113 1.19-2.41 2.03-3.894 2.53l-2.227 0.73 0.567 1.72 26.933-8.89-0.566-1.72-2.266 0.75c-1.484 0.49-3.008 0.6-4.57 0.32-1.125-0.17-2.031-0.7-2.735-1.59-0.703-0.88-1.562-2.87-2.589-5.96l-5.938-17.988"/><path d="m758.13 918.4-0.789-1.625-25.508 12.399 0.781 1.625 2.11-1.024c2.461-1.199 4.59-1.343 6.406-0.449 1.152 0.594 2.598 2.676 4.336 6.25l18.691 38.473c1.465 3.016 2.246 5.101 2.332 6.25 0.071 0.871-0.222 1.793-0.886 2.762-0.938 1.328-2.122 2.332-3.516 3.015l-2.109 1.028 0.781 1.625 25.515-12.399-0.789-1.625-2.148 1.047c-2.434 1.18-4.551 1.32-6.359 0.43-1.192-0.582-2.645-2.657-4.383-6.231l-18.692-38.472c-1.464-3.02-2.246-5.098-2.336-6.25-0.066-0.875 0.247-1.801 0.93-2.786 0.918-1.316 2.078-2.312 3.484-2.996l2.149-1.047"/><path d="m847.43 940.46-11.043-19.672-1.262 0.824c1.992 6.746 2.238 12.383 0.715 16.91-1.504 4.524-4.465 8.223-8.848 11.086-3.683 2.403-7.617 3.641-11.808 3.711-4.188 0.075-8.465-1.375-12.84-4.347-4.375-2.981-8.547-7.508-12.52-13.586-3.273-5.016-5.312-9.887-6.093-14.614-0.801-4.73-0.227-9.132 1.718-13.203 1.953-4.074 5-7.461 9.141-10.168 3.594-2.347 7.273-3.652 11.035-3.91 3.758-0.258 8.789 0.832 15.067 3.254l0.734-1.648c-5.996-3.114-11.602-4.61-16.797-4.477-5.207 0.133-10.352 1.859-15.449 5.188-9.192 6-14.082 14.05-14.668 24.16-0.449 7.523 1.562 14.719 6.055 21.586 3.613 5.535 8.164 9.808 13.671 12.82 5.508 3.016 11.27 4.375 17.274 4.09 6.008-0.293 11.594-2.121 16.75-5.485 4.004-2.617 7.312-6.175 9.93-10.683 0.753-1.348 1.378-2.184 1.867-2.5 0.742-0.484 1.543-0.641 2.422-0.481 1.191 0.274 2.363 0.969 3.515 2.079l1.434-0.934"/><path d="m866.25 868.45 10.215 27.164-26.758-11.539zm-1.484-3.566-18.633 17.605-10.449-4.511c-2.559-1.114-4.289-2.129-5.157-3.055-0.695-0.731-0.957-1.707-0.781-2.922 0.176-1.211 1.348-3 3.504-5.359l-1.238-1.313-15.156 14.317 1.23 1.312c2.352-1.543 4.09-2.309 5.215-2.305 2.285 0 5.801 1.047 10.547 3.137l54.355 23.621 1.239-1.172-21.063-55.863c-1.691-4.496-2.441-7.738-2.246-9.734 0.195-2 1.23-3.985 3.074-5.957l-1.238-1.317-18.985 17.938 1.231 1.312c2.012-1.715 3.613-2.617 4.793-2.711 1.191-0.093 2.16 0.25 2.891 1.032 0.988 1.039 2.062 3.132 3.242 6.273l3.625 9.672"/><path d="m917.43 795.17 0.695-1.496-17.793-6.192-30.625 41.125 1.445 1.079 1.485-1.996c1.68-2.247 3.601-3.305 5.781-3.184 1.25 0.074 3.379 1.234 6.406 3.492l34.278 25.516c3.32 2.472 5.117 4.379 5.41 5.734 0.39 1.875-0.168 3.817-1.66 5.824l-1.485 1.996 1.446 1.079 17.91-24.043-1.457-1.079c-2.078 2.836-3.797 4.622-5.203 5.348-1.387 0.727-2.657 0.992-3.809 0.785-1.145-0.203-3.301-1.484-6.457-3.832l-33.367-24.847c-2.168-1.614-3.496-2.93-4.004-3.954-0.313-0.722-0.352-1.503-0.129-2.351 0.227-0.844 1.613-2.981 4.152-6.402l2.891-3.875c3.027-4.075 5.469-6.711 7.285-7.907 1.824-1.195 4.004-1.906 6.543-2.129 2.539-0.218 5.957 0.219 10.262 1.309"/><path d="m930.35 735.46-1.621-0.801-12.559 25.445 1.621 0.797 1.035-2.101c1.211-2.45 2.813-3.883 4.785-4.282 1.278-0.238 3.7 0.516 7.266 2.274l38.359 18.926c3.008 1.484 4.891 2.656 5.664 3.511 0.586 0.649 0.918 1.559 0.997 2.727 0.078 1.629-0.235 3.144-0.938 4.543l-1.035 2.101 1.621 0.801 12.559-25.441-1.622-0.801-1.054 2.149c-1.203 2.421-2.793 3.835-4.766 4.238-1.289 0.269-3.722-0.477-7.285-2.231l-38.359-18.929c-3.008-1.485-4.895-2.653-5.664-3.508-0.586-0.653-0.918-1.574-0.977-2.766-0.09-1.601 0.215-3.101 0.918-4.504l1.055-2.148"/><path d="m993.55 754.93 5.625-17.067-34.485-53.992 36.259 11.957c3.87 1.273 6.13 2.504 6.81 3.688 0.93 1.57 0.98 3.593 0.16 6.062l-0.72 2.184 1.72 0.566 7.21-21.891-1.71-0.566-0.73 2.227c-0.88 2.66-2.31 4.277-4.28 4.863-1.21 0.351-3.58-0.055-7.11-1.215l-52.999-17.48-0.555 1.668 36.973 58.16-38.731-12.774c-3.859-1.273-6.133-2.484-6.816-3.636-0.91-1.602-0.957-3.625-0.156-6.071l0.73-2.222-1.707-0.567-7.226 21.887 1.718 0.566 0.723-2.179c0.879-2.688 2.312-4.325 4.285-4.911 1.223-0.351 3.586 0.055 7.109 1.215l43.723 14.426c1.543 2.523 2.481 4.375 2.852 5.539 0.371 1.168 0.547 2.762 0.535 4.777-0.02 0.993-0.32 2.391-0.926 4.219l1.719 0.567"/><path d="m961.15 644.41c-0.363-4.219-0.351-7.715 0.02-10.488 0.996-7.485 4.453-13.348 10.359-17.582 5.918-4.239 13.379-5.758 22.383-4.559 9.06 1.203 15.89 4.629 20.46 10.258 4.57 5.633 6.33 12.324 5.3 20.066-0.38 2.903-1.3 6.149-2.72 9.735zm-7.246 18.102 1.797 0.238 0.332-2.469c0.371-2.773 1.512-4.625 3.438-5.547 1.172-0.57 3.594-0.605 7.304-0.113l42.397 5.641c4.11 0.547 6.61 1.343 7.52 2.382 1.25 1.446 1.72 3.415 1.39 5.899l-0.33 2.465 1.8 0.238 3.55-26.719c1.3-9.804 1.18-17.414-0.37-22.824-1.54-5.41-4.71-10.019-9.48-13.824-4.78-3.809-10.58-6.164-17.387-7.07-9.129-1.215-17.136 0.546-24.004 5.277-7.664 5.316-12.351 14.351-14.05 27.094l-3.907 29.332"/><path d="m964.03 561.52-1.804-0.028-0.469 28.363 1.816 0.028 0.039-2.344c0.039-2.734 0.868-4.707 2.481-5.918 1.055-0.762 3.574-1.113 7.539-1.047l42.771 0.696c3.35 0.054 5.57 0.304 6.62 0.742 0.82 0.34 1.51 1.015 2.07 2.039 0.76 1.445 1.14 2.949 1.1 4.512l-0.03 2.343 1.8 0.028 0.46-28.368-1.8-0.031-0.04 2.395c-0.04 2.703-0.88 4.656-2.49 5.867-1.06 0.797-3.57 1.164-7.53 1.098l-42.775-0.692c-3.359-0.058-5.566-0.305-6.633-0.742-0.808-0.344-1.492-1.035-2.058-2.086-0.762-1.414-1.133-2.898-1.106-4.461l0.039-2.394"/><path d="m1023.1 490.93-22.52 1.191 0.18 1.504c6.93 1.199 12.09 3.477 15.49 6.836 3.38 3.359 5.4 7.637 6.03 12.84 0.53 4.367-0.11 8.449-1.89 12.238-1.79 3.789-4.98 6.992-9.59 9.59-4.59 2.605-10.51 4.355-17.717 5.215-5.938 0.723-11.211 0.398-15.801-0.977-4.59-1.386-8.282-3.847-11.074-7.394-2.793-3.543-4.493-7.781-5.079-12.684-0.527-4.269-0.058-8.144 1.368-11.633 1.425-3.484 4.628-7.507 9.578-12.078l-1.153-1.386c-5.449 4.003-9.265 8.378-11.453 13.093-2.179 4.719-2.902 10.11-2.168 16.153 1.317 10.89 6.375 18.839 15.176 23.832 6.563 3.73 13.906 5.105 22.051 4.117 6.562-0.789 12.402-2.992 17.542-6.598 5.13-3.605 8.9-8.168 11.3-13.683 2.41-5.528 3.23-11.34 2.48-17.442-0.56-4.758-2.3-9.297-5.19-13.644-0.87-1.27-1.35-2.196-1.41-2.782-0.11-0.871 0.1-1.66 0.65-2.382 0.76-0.95 1.9-1.692 3.42-2.239l-0.22-1.687"/><path d="m966.81 442.41 28.886 2.793-22.148 18.934zm-3.848-0.234 7.578 24.472-8.645 7.391c-2.128 1.816-3.796 2.922-5.007 3.293-0.969 0.293-1.953 0.098-2.969-0.586-1.016-0.695-2.109-2.531-3.262-5.508l-1.738 0.535 6.18 19.915 1.73-0.528c-0.352-2.793-0.285-4.687 0.223-5.703 1.008-2.051 3.488-4.746 7.461-8.086l45.144-38.379-0.5-1.64-59.43-5.704c-4.773-0.46-8.015-1.21-9.734-2.265-1.699-1.067-3.027-2.852-3.984-5.391l-1.731 0.535 7.735 24.953 1.73-0.539c-0.664-2.546-0.762-4.382-0.332-5.496 0.449-1.105 1.172-1.816 2.207-2.129 1.367-0.429 3.719-0.48 7.059-0.156l10.285 1.016"/><path d="m972.26 353.07-14.317 6.074 0.801 1.661c2.617-0.86 4.59-1.262 5.918-1.211 2.129 0.097 3.965 0.703 5.508 1.824 1.523 1.125 2.891 2.922 4.07 5.383l4.035 8.406-45.605 21.894c-3.664 1.77-6.145 2.473-7.434 2.11-1.765-0.516-3.211-1.942-4.324-4.266l-0.996-2.07-1.621 0.789 12.148 25.305 1.629-0.782-1.004-2.109c-1.222-2.519-1.308-4.68-0.293-6.465 0.625-1.094 2.618-2.453 5.957-4.062l45.606-21.895 3.437 7.176c1.348 2.785 2.09 4.875 2.246 6.242 0.176 1.797-0.273 3.613-1.339 5.457-1.063 1.848-2.899 3.528-5.496 5.031l0.8 1.661 13.66-7.422-23.386-48.731"/><path d="m895.19 352.27-1.523 0.977 15.371 23.848 1.512-0.977-1.27-1.973c-1.484-2.296-1.883-4.394-1.218-6.308 0.449-1.211 2.351-2.902 5.683-5.051l35.957-23.172c2.82-1.816 4.805-2.832 5.938-3.066 0.859-0.156 1.797 0.019 2.839 0.547 1.438 0.781 2.571 1.836 3.418 3.144l1.27 1.973 1.516-0.977-15.364-23.847-1.511 0.976 1.289 2.012c1.465 2.266 1.863 4.355 1.191 6.258-0.43 1.25-2.324 2.949-5.664 5.109l-35.957 23.164c-2.813 1.817-4.785 2.832-5.918 3.067-0.859 0.156-1.816-0.039-2.871-0.586-1.426-0.762-2.551-1.797-3.399-3.106l-1.289-2.012"/><path d="m918.77 281.47c3.855 4.492 5.293 9.531 4.297 15.105-1.25 6.945-5.86 13.86-13.868 20.735-8.195 7.05-16.007 10.71-23.437 11.003-5.664 0.196-10.41-1.914-14.199-6.336-4.063-4.707-5.567-10.187-4.532-16.425 1.036-6.231 5.516-12.754 13.438-19.571 8.594-7.382 16.453-11.191 23.582-11.445 5.695-0.168 10.598 2.149 14.719 6.934zm2.089-3.028c-5.605-6.523-12.929-10.039-21.984-10.566-9.051-0.52-17.285 2.402-24.695 8.769-7.617 6.563-11.887 14.415-12.785 23.555-0.899 9.141 1.593 17.129 7.472 23.965 5.938 6.914 13.387 10.605 22.344 11.094 8.953 0.476 17.324-2.637 25.137-9.336 7.969-6.856 12.136-15.168 12.5-24.922 0.32-8.477-2.344-15.996-7.989-22.559"/><path d="m888.66 244.72-14.011-11.25-62.657 13.359 23.914-29.765c2.551-3.176 4.493-4.864 5.832-5.09 1.797-0.301 3.711 0.351 5.743 1.984l1.796 1.434 1.133-1.407-17.968-14.433-1.133 1.406 1.816 1.477c2.188 1.746 3.203 3.652 3.067 5.703-0.098 1.269-1.309 3.34-3.633 6.23l-34.953 43.516 1.378 1.094 67.422-14.231-25.539 31.789c-2.547 3.172-4.48 4.883-5.789 5.117-1.828 0.293-3.742-0.371-5.742-1.984l-1.828-1.473-1.133 1.414 17.969 14.426 1.125-1.406-1.777-1.426c-2.208-1.777-3.243-3.691-3.098-5.742 0.09-1.269 1.301-3.34 3.625-6.23l28.836-35.899c2.902-0.547 4.972-0.801 6.183-0.734 1.231 0.07 2.782 0.461 4.668 1.183 0.918 0.352 2.129 1.133 3.621 2.344l1.133-1.406"/><path d="m772.7 189.57c-3.008-1.55-6.121-1.824-9.344-0.808-3.222 1.023-5.625 3.035-7.179 6.043-1.563 3-1.824 6.125-0.809 9.347 1.024 3.223 3.035 5.614 6.035 7.176 3.008 1.555 6.133 1.828 9.356 0.813 3.222-1.028 5.613-3.039 7.168-6.047 1.562-2.996 1.836-6.121 0.84-9.336-1.016-3.211-3.028-5.613-6.067-7.188"/></g></g></g></svg>
