<svg viewBox="0 0 212.51 149.62" xmlns="http://www.w3.org/2000/svg" xmlns:xlink="http://www.w3.org/1999/xlink"><filter id="a" color-interpolation-filters="sRGB" height="1" width="1" x="0" y="0"><feFlood flood-color="#79bb31" result="result1"/><feImage result="result2" xlink:href=""/><feBlend in2="result1" mode="multiply" result="result4"/><feMerge result="result3"><feMergeNode in="result1"/><feMergeNode in="SourceGraphic"/></feMerge></filter><g filter="url(#a)"><g fill="#fff"><path d="m0 88.09h13.44v6.81c3.27-4.42 7.78-7.69 14.76-7.69 11.05 0 21.56 8.66 21.56 24.48v.18c0 15.82-10.33 24.49-21.56 24.49a18.2 18.2 0 0 1 -14.76-7.08v20.34h-13.44zm36.33 23.78v-.18c0-7.86-5.3-13.07-11.58-13.07s-11.49 5.21-11.49 13.07v.18c0 7.87 5.22 13.09 11.49 13.09s11.58-5.13 11.58-13.09z"/><path d="m55.1 121.86v-.18c0-10.34 7.86-15.11 19.09-15.11a33.91 33.91 0 0 1 11.58 1.94v-.79c0-5.57-3.45-8.66-10.17-8.66a34.92 34.92 0 0 0 -13.08 2.56l-3.36-10.25a41.82 41.82 0 0 1 18.39-3.8c7.34 0 12.64 1.94 16 5.3 3.55 3.54 5.14 8.75 5.14 15.12v27.48h-13v-5.12c-3.27 3.62-7.78 6-14.32 6-8.94.01-16.27-5.12-16.27-14.49zm30.84-3.09v-2.39a20.8 20.8 0 0 0 -8.57-1.76c-5.74 0-9.28 2.29-9.28 6.53v.18c0 3.63 3 5.74 7.34 5.74 6.27 0 10.51-3.44 10.51-8.3z"/><path d="m106.22 112.05v-.18a24.32 24.32 0 0 1 24.84-24.66c8.92 0 14.49 3 18.91 8l-8.22 8.79c-3-3.18-6-5.22-10.78-5.22-6.72 0-11.49 5.92-11.49 12.9v.18c0 7.25 4.68 13.09 12 13.09 4.51 0 7.6-1.95 10.87-5l7.87 8c-4.6 5-9.91 8.66-19.36 8.66a24.19 24.19 0 0 1 -24.64-24.56z"/><path d="m157.25 88h13.44v17.34l15.73-17.24h16.09l-18 18.66 18.64 28.72h-15.58l-12.11-19.48-4.77 5v14.4h-13.44z"/><path d="m0 17.16h13.44v6.84c3.27-4.43 7.78-7.7 14.77-7.7 11 0 21.58 8.67 21.58 24.5v.17c0 15.83-10.35 24.5-21.58 24.5a18.22 18.22 0 0 1 -14.77-7.07v20.31h-13.44zm36.34 23.78v-.17c0-7.87-5.3-13.09-11.58-13.09s-11.49 5.22-11.49 13.09v.17c0 7.87 5.21 13.06 11.49 13.06s11.58-5.1 11.58-13.06z"/><path d="m58.55 0h13.45v64.56h-13.45z"/><path d="m132.39 17.16h13.44v6.72c3.1-4 7.08-7.61 13.89-7.61 10.17 0 16.09 6.72 16.09 17.6v30.69h-13.44v-26.45c0-6.36-3-9.63-8.14-9.63s-8.4 3.27-8.4 9.63v26.45h-13.44z"/><path d="m187.93 51.11v-22.46h-5.66v-11.49h5.66v-12.16h13.44v12.16h11.14v11.49h-11.14v20.25c0 3.1 1.33 4.6 4.33 4.6a13.72 13.72 0 0 0 6.64-1.68v10.79a19.81 19.81 0 0 1 -10.61 2.74c-8.23 0-13.8-3.27-13.8-14.24z"/></g><path d="m125.37 6.07c-48 8.65-50.53 35.21-47.7 50.45a9.69 9.69 0 0 0 4.33 6.27c5.59-11.23 17.53-32.56 32.91-44.89 0 0-19.38 24.74-27.7 46.88a15.17 15.17 0 0 0 7.27-.58c45.68-15.48 30.89-58.13 30.89-58.13z" fill="#23661b"/></g></svg>