<svg fill="none" height="70.375397" viewBox="0 0 89.851776 70.375396" width="89.851776" xmlns="http://www.w3.org/2000/svg" xmlns:xlink="http://www.w3.org/1999/xlink"><clipPath id="a"><path d="m0 0h90v83h-90z"/></clipPath><filter id="b" color-interpolation-filters="sRGB" height="1" width="1" x="0" y="0"><feFlood flood-color="#fff" result="result1"/><feImage result="result2" xlink:href=""/><feBlend in2="result1" mode="multiply" result="result4"/><feMerge result="result3"><feMergeNode in="result1"/><feMergeNode in="SourceGraphic"/></feMerge></filter><g clip-path="url(#a)" filter="url(#b)" transform="translate(-.020325)"><path d="m50.3754 41.3387c4.4654 4.0492 10.3785 6.5375 16.8848 6.5375 6.5062 0 12.4194-2.4883 16.8848-6.5375-4.4654-4.0493-10.3786-6.5376-16.8848-6.5376-6.5063 0-12.4165 2.4883-16.8848 6.5376z" fill="#81a8e0"/><path d="m48.0496 36.083c6.0266-.2965 11.9659-2.715 16.565-7.3137 4.5992-4.5986 7.0208-10.5432 7.3174-16.5633-6.0208.2936-11.963 2.7179-16.565 7.3166-4.5992 4.6016-7.0179 10.5374-7.3174 16.5604z" fill="#d43541"/><path d="m42.7964 33.7663c4.0496-4.4708 6.5382-10.3776 6.5382-16.8832s-2.4886-12.41814-6.5382-16.8831c-4.0468 4.46496-6.5354 10.3746-6.5354 16.8831 0 6.5056 2.4886 12.4124 6.5354 16.8832z" fill="#7aa42a"/><path d="m37.6856 36.083c-.2994-6.0259-2.7153-11.9588-7.3115-16.5604-4.6021-4.6016-10.5472-7.0201-16.5679-7.3137.2994 6.0172 2.7182 11.956 7.3202 16.5575 4.5991 4.5987 10.5356 7.0201 16.5621 7.3166z" fill="#ad2f94"/><path d="m35.7145 41.3387c-4.4741-4.0493-10.3815-6.5405-16.8877-6.5405-6.5034 0-12.41944 2.4912-16.88484 6.5405 4.4654 4.0463 10.37854 6.5346 16.88484 6.5346 6.5062 0 12.4136-2.4883 16.8877-6.5346z" fill="#e79c2d"/><g fill="#366098"><path d="m5.54975 63.6693c-.65702 0-1.44486-.0552-2.10479-.0814v6.5521h-3.4246353v-19.8976c1.7820953-.2209 3.5554653-.3284 5.2009153-.3284 5.50906 0 8.33196 3.0144 8.33196 6.7701 0 4.0812-2.8781 6.9881-8.00345 6.9881zm.24711-10.6043c-.76749 0-1.63673.0552-2.34899.1657v7.3457c.68609.0552 1.4187.1104 2.02048.1104 3.09613 0 4.52355-1.6162 4.52355-3.8923 0-1.9737-1.39835-3.7266-4.19504-3.7266z"/><path d="m19.2193 61.8031v8.334h-3.381v-12.6624h3.2618v2.0755c1.1861-1.5726 2.5496-2.3138 4.509-2.3138v3.3225c-1.9565-.2064-3.6165.1483-4.3898 1.2442z"/><path d="m31.4468 70.3725c-4.0933 0-6.6428-2.994-6.6428-6.584s2.5495-6.5521 6.6428-6.5521 6.5848 2.965 6.5848 6.5521c0 3.587-2.5206 6.584-6.5848 6.584zm0-10.5548c-2.0175 0-3.2909 1.5406-3.2909 3.9737 0 2.433 1.2763 4.0027 3.2909 4.0027 2.0147 0 3.2619-1.5406 3.2619-4.0027 0-2.4302-1.2763-3.9737-3.2619-3.9737z"/><path d="m59.5067 64.8262h-8.7767c.2675 1.779 1.3344 2.9069 3.945 2.9069 1.067 0 2.4304-.2965 3.6776-.6802l.4157 2.6075c-1.5437.4156-3.1426.7121-4.4189.7121-4.7474 0-6.9394-2.9359-6.9394-6.523s2.2822-6.6131 6.4045-6.6131c3.7968 0 5.7824 2.6975 5.7824 6.0782 0 .4157 0 1.0669-.0872 1.5116zm-2.9071-2.1046c-.1454-1.7208-1.1571-2.8458-2.8461-2.8458-1.6891 0-2.727 1.0378-2.9653 2.8458z"/><path d="m65.0478 61.8031v8.334h-3.3811v-12.6624h3.2648v2.0755c1.1861-1.5726 2.5496-2.3138 4.5061-2.3138v3.3225c-1.9594-.2064-3.6165.1483-4.3898 1.2442z"/><path d="m74.2926 61.8031v8.334h-3.381v-12.6624h3.2618v2.0755c1.1861-1.5726 2.5496-2.3138 4.509-2.3138v3.3225c-1.9565-.2064-3.6194.1483-4.3898 1.2442z"/><path d="m86.6684 70.1371v-1.2151c-.9507.9186-2.0757 1.4534-3.6776 1.4534-2.4624 0-4.448-1.4534-4.448-4.0027 0-2.2529 1.8083-3.9447 4.5963-3.9447 1.5408 0 2.4623.3547 3.4101.8023v-.5348c0-1.9564-1.0379-2.8168-3.0526-2.8168-1.0378 0-2.1658.2384-3.1455.5349l-.3867-2.5203c1.1571-.3546 2.8171-.6511 4.0643-.6511 3.9741 0 5.8434 1.8691 5.8434 5.5754v7.3253h-3.2037zm-.1192-4.747c-.8925-.593-1.5118-.8604-2.6107-.8604-1.2733 0-2.2239.6802-2.2239 1.8081s.8314 1.84 2.285 1.84c1.1251 0 1.9565-.4738 2.5496-1.215z"/><path d="m54.018 49.539-1.41-3.0377c-3.0874 1.4331-6.3899 2.1598-9.8116 2.1598-3.4218 0-6.7243-.7267-9.8117-2.1598l-1.41 3.0377c2.9508 1.3662 6.0702 2.1627 9.2971 2.3923v18.2058h3.7067v-18.1942c3.2763-.2151 6.4451-1.0174 9.4395-2.4039z"/><path d="m42.7964 37.5016c-2.1165 0-3.8404 1.7209-3.8404 3.8371s1.721 3.84 3.8404 3.84c2.1193 0 3.8374-1.7209 3.8374-3.84s-1.721-3.8371-3.8374-3.8371z"/></g><g fill="#36609a"><path d="m77.9353 3.83417h-1.4129v-.99997h4.0468v.99997h-1.4362v4.26438h-1.1948v-4.26438z"/><path d="m85.6218 6.08118c-.0233-.6337-.0465-1.3982-.0465-2.16271h-.0233c-.1628.67149-.3837 1.42146-.5843 2.03772l-.6396 2.05516h-.9303l-.5611-2.03772c-.1715-.61626-.3517-1.36623-.4767-2.05516h-.0146c-.032.71218-.0552 1.5232-.093 2.18015l-.093 1.99993h-1.1018l.3372-5.26435h1.5873l.5146 1.75866c.1628.61045.3285 1.26449.4448 1.88366h.0232c.1483-.61045.3285-1.30519.5001-1.88947l.561-1.74994h1.5554l.2878 5.26435h-1.1629l-.0785-2.01446z"/></g></g></svg>