<?xml version="1.0" encoding="UTF-8"?>
<svg id="SVGRoot" width="500" height="500" version="1.1" viewBox="0 0 500 500.00198" xmlns="http://www.w3.org/2000/svg" xmlns:cc="http://creativecommons.org/ns#" xmlns:dc="http://purl.org/dc/elements/1.1/" xmlns:rdf="http://www.w3.org/1999/02/22-rdf-syntax-ns#"><metadata><rdf:RDF><cc:Work rdf:about=""><dc:format>image/svg+xml</dc:format><dc:type rdf:resource="http://purl.org/dc/dcmitype/StillImage"/><dc:title/></cc:Work></rdf:RDF></metadata><g transform="translate(-134.56 -26.359)"><g fill="#004d55"><path d="m384.55 499.15c-122.84 0-222.78-99.946-222.78-222.79 0-122.85 99.941-222.79 222.78-222.79 122.84 0 222.79 99.943 222.79 222.79 0 122.84-99.944 222.79-222.79 222.79m250-222.79c0-7.1646-12.28-13.741-12.892-20.753-0.61079-7.1278 10.348-15.72 9.1353-22.661-1.2348-7.0395-14.469-11.39-16.291-18.207-1.8417-6.8913 7.4506-17.263 5.0325-23.903-2.4377-6.7-16.231-8.6682-19.221-15.075-3.0122-6.4542 4.3241-18.289 0.77857-24.417-3.5652-6.1598-17.487-5.6948-21.555-11.499-4.0793-5.8174 1.0886-18.754-3.4748-24.185-4.563-5.4343-18.197-2.5732-23.216-7.5943-5.0148-5.0173-2.1557-18.649-7.5968-23.216-5.4279-4.561-18.36 0.61079-24.18-3.4724-5.7983-4.0704-5.3401-17.99-11.496-21.553-6.1358-3.5455-17.969 3.7908-24.417 0.77658-6.411-2.9951-8.3817-16.788-15.077-19.225-6.6416-2.4142-17.016 6.8737-23.907 5.0344-6.8197-1.8245-11.168-15.056-18.207-16.289-6.9409-1.2201-15.534 9.7417-22.661 9.1265-7.0071-0.6049-13.586-12.885-20.757-12.885-7.1646 0-13.741 12.28-20.753 12.885-7.1278 0.6152-15.72-10.347-22.659-9.1265-7.0375 1.2324-11.392 14.464-18.206 16.289-6.8933 1.8392-17.27-7.4486-23.905-5.0344-6.7019 2.4373-8.6726 16.23-15.08 19.225-6.4498 3.0118-18.287-4.3245-24.419-0.77658-6.153 3.5607-5.6972 17.48-11.497 21.553-5.813 4.0812-18.747-1.0911-24.178 3.468-5.4387 4.5674-2.5776 18.201-7.5988 23.218-5.0153 5.0217-18.649 2.1601-23.216 7.5968-4.561 5.4303 0.60884 18.363-3.4704 24.182-4.0748 5.8027-17.995 5.3401-21.558 11.5-3.5436 6.127 3.7932 17.964 0.77904 24.417-2.9926 6.4066-16.786 8.3773-19.223 15.075-2.4137 6.6416 6.8761 17.014 5.03 23.905-1.8201 6.8158-15.054 11.168-16.287 18.207-1.2152 6.9409 9.7421 15.534 9.1289 22.661-0.60685 7.0115-12.887 13.588-12.887 20.753 0 7.1705 12.28 13.748 12.887 20.757 0.61325 7.1322-10.344 15.723-9.1265 22.661 1.2304 7.0375 14.464 11.388 16.284 18.205 1.8436 6.8933-7.4438 17.27-5.03 23.905 2.4377 6.697 16.231 8.6702 19.223 15.079 3.0098 6.4459-4.3226 18.289-0.77904 24.412 3.5627 6.1618 17.483 5.6992 21.558 11.499 4.0768 5.8199-1.093 18.748 3.468 24.185 4.5698 5.4367 18.201 2.5731 23.219 7.5924 5.0192 5.0193 2.1537 18.653 7.5968 23.221 5.4299 4.561 18.36-0.6152 24.178 3.4724 5.8002 4.066 5.3421 17.99 11.499 21.551 6.1294 3.5455 17.964-3.7888 24.419-0.77463 6.4071 2.9901 8.3778 16.783 15.073 19.219 6.6411 2.4181 17.011-6.8698 23.905-5.03 6.8202 1.8221 11.175 15.06 18.212 16.286 6.9384 1.2176 15.531-9.7417 22.659-9.1265 7.0115 0.60884 13.588 12.889 20.753 12.889 7.1705 0 13.75-12.28 20.757-12.889 7.1322-0.6152 15.72 10.344 22.663 9.1265 7.0375-1.226 11.386-14.464 18.205-16.286 6.8914-1.8397 17.265 7.4482 23.905 5.03 6.6951-2.4358 8.6682-16.229 15.079-19.219 6.4478-3.0142 18.281 4.3241 24.415 0.77658 6.153-3.5626 5.6948-17.485 11.497-21.553 5.8174-4.0837 18.747 1.093 24.178-3.468 5.4411-4.5723 2.5815-18.204 7.5968-23.221 5.0192-5.0217 18.653-2.16 23.216-7.5948 4.5654-5.4323-0.60689-18.365 3.4743-24.184 4.0704-5.8002 17.992-5.3401 21.556-11.497 3.5455-6.1275-3.7888-17.967-0.77658-24.415 2.9901-6.4091 16.781-8.3817 19.219-15.081 2.4181-6.6353-6.8722-17.012-5.0305-23.905 1.8225-6.8177 15.056-11.168 16.291-18.205 1.2132-6.9409-9.7461-15.529-9.1353-22.661 0.61126-7.0091 12.892-13.586 12.892-20.757"/><path d="m568.15 304.46c-2.6531 0-5.0477 1.0778-6.7814 2.8229 1.723-1.6866 4.0768-2.7346 6.6799-2.7346 5.2841 0 9.5655 4.2838 9.5655 9.5656 0 2.631-1.065 5.0129-2.7861 6.7427 1.7769-1.7362 2.8871-4.1524 2.8871-6.831 0-5.2817-4.2833-9.5656-9.565-9.5656"/><path d="m209.7 314.11c0 2.6335-1.065 5.0128-2.7861 6.7427 1.7769-1.7362 2.8852-4.1524 2.8852-6.831 0-5.2837-4.2814-9.565-9.5656-9.565-2.6507 0-5.0472 1.0798-6.779 2.8229 1.7234-1.6891 4.0768-2.7346 6.6804-2.7346 5.2817 0 9.565 4.2834 9.565 9.565"/><path d="m336.5 198.55c-3.6922-3.8212-9.6494-3.7972-13.307 0.0497-1.6396 1.7273-2.5344 3.9306-2.6914 6.1765-0.011 0.25866-0.0184 0.51416-0.0331 0.76826-0.44106 9.7784-2.6075 19.628-6.6588 29.098-0.0813 0.19575-0.16337 0.38071-0.25352 0.5701l-0.011-2e-3c-1.3015 3.0422-4.716 4.404-7.6203 3.049-1.8157-0.84774-3.0015-2.5604-3.3198-4.4624l-0.0559 0.0147c-0.96353-5.0217-1.0263-10.275-0.0795-15.469 0.17845-0.94194 0.38071-1.8932 0.63039-2.8312 0.21746-2.7816-0.7035-5.6388-2.7429-7.7538-3.6922-3.8296-9.6494-3.8035-13.309 0.0497-0.23659 0.24321-0.45577 0.50577-0.66035 0.77463-1.0391 1.3403-1.6802 2.9087-1.9363 4.5242-0.44546 2.7581 0.24321 5.6712 2.0678 7.924 0.18507 0.23659 0.38266 0.44742 0.5848 0.66476 0.34881 0.3699 0.72066 0.69074 1.1146 0.9851 7.089 7.3196 11.177 17.255 11.473 27.581 0.0331 0.87817 0.0184 1.7558-0.0147 2.6399 6.2889-5.3656 13.15-10.774 20.484-16.082 4.1111-9.3821 9.7181-17.558 16.409-24.344l-0.0258-0.0331c3.6637-3.8511 3.6338-10.069-0.0442-13.892"/><path d="m364.18 190.19c-4.8622 5.0796-6.31 10.223-1.2844 13.584 2.0546 1.379 4.2362 2.3646 6.4994 3.1952 8.8811-4.4109 17.978-8.4298 27.168-11.891-8.4401-0.33741-14.882-1.3511-14.5-3.7736 1.0499-6.6284 13.137-17.65 26.508-18.429 5.8326-0.49941 11.192 1.9364 15.041 3.2595 1.0391 0.35469 2.1448 0.6 3.311 0.52689 4.3844-0.26455 7.7278-4.1523 7.4761-8.6918-0.25793-4.5375-4.0125-7.9883-8.395-7.7214-1.1681 0.071-2.2396 0.44741-3.2315 0.92721-4.2122 2.0482-9.8231 5.424-14.565 5.1826-3.8963-0.19317-5.7786-4.3393-1.5488-8.8444 10.138-10.908 15.841-12.61 19.516-14.316 0.99834-0.46655 1.9942-1.0239 2.8248-1.8799 3.1324-3.2144 3.2036-8.4382 0.1549-11.682-3.0529-3.2423-8.0574-3.2595-11.19-0.0442-0.83055 0.85609-1.3726 1.8888-1.8436 2.9215-1.745 3.8016-3.7889 10.583-13.847 20.346-3.8467 3.7412-8.6918 1.1725-8.4377-3.7241 0.35727-6.9301 3.9434-10.42 6.153-14.172 0.57204-0.97479 0.99591-2.0718 1.1637-3.2786 0.64364-4.5375-2.3215-8.7502-6.6264-9.4129-4.3069-0.66035-8.3067 2.4785-8.9434 7.0184-0.17404 1.2068-0.071 2.3857 0.21525 3.494 1.2603 4.978 2.8528 7.2372 1.8716 15.406-0.98314 8.1688-7.3903 25.053-23.489 42"/><path d="m468.15 220.94c3.8296-0.3895 5.8689-6.0995 5.2061-13.318-0.65594-7.2225-3.7044-12.356-7.5276-11.964-3.8276 0.39591-6.4306 6.1574-5.7684 13.377 0.65836 7.218 4.2603 12.298 8.0898 11.904"/><path d="m464.18 192.54c8.4446 0 15.286 7.1386 15.286 15.94 0 8.8056-6.8413 15.94-15.286 15.94s-15.286-7.1342-15.286-15.94c0-8.8017 6.8418-15.94 15.286-15.94m-104.94 198.22c12.304 8.8983 16.261 16.196 18.782 20.129 0.6839 1.0695 1.4433 2.1257 2.504 2.9347 3.9718 3.0466 9.5312 2.188 12.423-1.9256 2.8935-4.118 2.007-9.9138-1.9688-12.958-1.0562-0.81341-2.2415-1.2652-3.4292-1.6135-4.3397-1.2804-11.717-2.1861-24.281-12.302-5.2346-4.1739-3.8231-8.9479 0.34624-9.7936 5.0796-1.0302 12.055 0.63287 16.969 2.4721 1.1573 0.4327 2.3921 0.73787 3.7025 0.69272 4.927-0.16778 8.7953-4.4251 8.6383-9.5263-0.15748-5.1036-4.2794-9.0921-9.2064-8.9243-1.3163 0.0394-2.5275 0.43023-3.6574 0.94241-8.8188 3.991-13.694 8.3366-28.502 8.0658-6.7618-0.12252-16.68-3.309-23.479-6.8158 26.663-4.5051 48.521-12.702 58.578-18.795 4.8107-2.9175 6.7319-6.2114 6.5812-10.561-0.12069-3.5072-2.554-7.0807-7.0826-11.162-17.588-15.856-43.509-25.034-66.43-25.787-1.0803-0.0331-1.5429-0.25608-1.5664-0.57056-0.0184-0.40621 0.73783-0.94194 2.3946-1.1166 20.286-2.164 49.143 4.9957 60.58 14.156 7.2573-3.4076 13.529-9.7672 18.285-17.216 5.9813-9.3629 8.5672-16.958 10.026-24.4 0.22812-1.1618 0.51854-1.5812 1.0028-1.6263 0.54014-0.0603 0.83696 0.5681 0.92722 1.6866 0.95518 11.583-1.3339 20.828-2.6766 29.823-0.62797 4.2426-0.28589 7.3147 0.75108 9.4556 1.7254 3.5627 4.8794 4.3241 9.1416 4.0832 15.335-0.86489 35.408 3.4533 45.843 10.019 7.0998 4.4835 7.1513 7.3044 9.9291 11.562 0.61715 0.94682 1.4006 1.799 2.3902 2.4549 3.7005 2.4676 8.5907 1.3638 10.929-2.4677 2.345-3.834 1.2328-8.9307-2.4702-11.398-0.98509-0.65395-2.0585-1.0371-3.1368-1.224-4.1626-0.71234-9.0357-0.16374-14.285-4.4148-3.7113-3.0058-2.401-8.5157 2.8273-9.1073 13.653-1.5468 19.898 1.278 23.791 2.3906 1.0562 0.30318 2.1576 0.5529 3.3238 0.45183 4.3741-0.36794 7.6375-4.329 7.2912-8.862-0.35286-4.5286-4.1842-7.8956-8.5628-7.5256-1.1637 0.0968-2.2135 0.51608-3.2055 1.0023-3.6402 1.7838-8.6035 5.1742-23.143 6.0372-6.0259 0.38951-7.7945-3.806-5.3828-7.0115 2.9278-3.9007 9.047-6.1187 13.283-8.109 1.0028-0.46902 1.9707-1.069 2.7865-1.9427 3.0632-3.285 3.0245-8.5132-0.0946-11.684-3.1157-3.1692-8.1218-3.0721-11.184 0.21525-0.81732 0.87327-1.3639 1.904-1.7857 2.9602-1.5576 3.8982-3.3046 9.7308-7.4889 14.008-9.3114 10.047-27.601 12.741-30.686 8.8684-5.2753-6.62 9.8496-34.2 16.997-41.058 37.863-12.343 58.081-30.028 68.285-38.41 4.6321-3.808 6.2477-6.805 6.1898-10.774-0.0541-3.4317-2.1728-6.4954-5.267-9.3482-1.4605-1.3447-3.0892-2.4829-4.7631-3.5131-1.9192-1.1833-3.9115-2.2248-5.9357-3.1908-2.1493-1.0283-4.3334-1.9771-6.5254-2.8852-1.1166-0.46018-2.242-0.91007-3.3694-1.3467-0.56567-0.21929-1.1318-0.43222-1.6955-0.64563-0.41062-0.15711-0.757-0.37188-0.93998-0.80458-0.0442-0.1056-0.0795-0.21929-0.0968-0.33556-0.10781-0.68632-0.30355-1.5983-0.54014-2.5731-0.011-0.0184-0.011-0.0489-0.0147-0.0666-1.407-5.2493-5.0707-9.7049-9.8515-11.906-5.318-2.4441-11.557-1.9835-16.471 1.2525-2.2572 1.4865-4.2019 3.4896-5.6305 5.841-0.81094 1.3295-1.4458 2.7689-1.8912 4.277-0.099 0.33998-0.19317 0.68438-0.2778 1.0283 5.891-0.83645 12.849-0.3547 16.418 0.80899 0.35911 0.11627 0.56369 0.30355 0.63433 0.48616-5.0688 0.0394-10.565 0.38318-16.151 1.121-95.782 12.978-201.16 97.919-195.23 130.2 1.5341 8.3842 14.811 17.132 46.842 20.393 11.002 1.121 29.253 0.28663 38.96-2.1341 2.2612-0.56564 3.8772-1.3231 5.553-1.5144 1.4649-0.16779 2.7174 0.36095 2.9946 1.7146 0.28847 1.4134-0.6407 2.6958-2.4009 2.9259-2.3534 0.30576-2.5903-0.0968-6.9855 0.38071-12.254 1.3231-44.146 9.1073-57.28 14.415-5.8218 2.3558-9.6234 5.7855-8.8492 9.8192 0.62598 3.2982 4.6366 6.0524 16.063 8.2056 15.482 2.9156 39.216 8.8728 45.664 29.546 2.868 9.2555 0.92968 11.691 0.29031 17.438-0.13982 1.276-0.0776 2.6036 0.29914 3.9178 1.409 4.9353 6.3379 7.7538 11.018 6.2997 4.6876-1.459 7.3299-6.6396 5.9249-11.575-0.37629-1.3123-1.0175-2.4613-1.8049-3.4464-3.0294-3.8016-7.61-7.3025-9.0298-14.718-1.0047-5.239 3.8403-8.8036 8.552-5.396"/><path d="m368.97 132.7c2.6938 0 4.8755-2.1836 4.8755-4.873 0-2.6914-2.1816-4.875-4.8755-4.875l-1.3079 0.0294c-78.345 8.5343-137.43 74.487-137.43 153.41 0 62.162 36.996 117.98 94.317 142.22l2.0203 0.8193c0.60243 0.24542 1.222 0.35727 1.8334 0.35727 1.9256 0 3.7476-1.1485 4.5178-3.0422 1.0111-2.4932-0.1939-5.3352-2.685-6.3487l-1.9535-0.78935c-53.642-22.689-88.302-74.984-88.302-133.22 0-73.851 55.209-135.58 128.47-143.69h0.51608z"/><path d="m538.89 276.39c0-17.102-2.7797-33.905-8.2591-49.944-0.86933-2.5432-3.649-3.9007-6.1854-3.0338-2.5496 0.8693-3.9071 3.6402-3.0382 6.1898 5.1335 15.019 7.7366 30.762 7.7366 46.788 0 71.241-53.065 132.74-123.35 143.03l-3.4744 0.44495c-2.6698 0.34256-4.5546 2.7821-4.2103 5.4539 0.31607 2.4573 2.4093 4.2534 4.8274 4.2534 0.20458 0 0.41556-0.0147 0.6265-0.0442l3.5583-0.4543c75.12-11.002 131.77-76.645 131.77-152.69"/><path d="m558.58 314.02c0-2.633 1.0651-5.0128 2.7861-6.7422-1.7769 1.7362-2.8852 4.1519-2.8852 6.8305 0 5.2817 4.2838 9.5656 9.5655 9.5656 2.6507 0 5.0472-1.0803 6.779-2.8229-1.723 1.6891-4.0749 2.7346-6.6779 2.7346-5.2842 0-9.5675-4.2834-9.5675-9.5656"/><path d="m568.05 304.55c-2.6031 0-4.9569 1.0455-6.6799 2.7346-1.7215 1.7274-2.7861 4.1092-2.7861 6.7422 0 5.2822 4.2834 9.5656 9.5675 9.5656 2.6031 0 4.9545-1.0479 6.6779-2.7346 1.721-1.7298 2.7861-4.1092 2.7861-6.7427 0-5.2817-4.2814-9.565-9.5655-9.565"/><path d="m200.13 323.68c2.6502 0 5.0472-1.0778 6.779-2.8229-1.7234 1.6866-4.0768 2.7346-6.6804 2.7346-5.2817 0-9.565-4.2814-9.565-9.565 0-2.6315 1.0651-5.0153 2.7861-6.7427-1.7774 1.7362-2.8852 4.1523-2.8852 6.8305 0 5.2822 4.2814 9.5655 9.5655 9.5655"/><path d="m200.23 323.59c2.6031 0 4.9569-1.0455 6.6804-2.7346 1.721-1.7298 2.7861-4.1092 2.7861-6.7427 0-5.2817-4.2838-9.565-9.5655-9.565-2.6031 0-4.9569 1.0474-6.6804 2.7346-1.721 1.7293-2.7861 4.1092-2.7861 6.7422 0 5.2822 4.2838 9.5656 9.5655 9.5656"/><path d="m215.04 346.09 2.27-0.97872c0.27338-0.11811 0.50776-0.17846 0.71186-0.17846 0.61325 0 0.90367 0.50335 1.0714 0.88454l1.3187 3.0505c0.29031 0.67356 0.32085 1.379 0.0776 1.9834-0.24542 0.61766-0.75307 1.1038-1.4629 1.4095-0.40867 0.17846-0.81095 0.26676-1.1961 0.26676-0.9812 0-1.7921-0.57447-2.2224-1.5792l-1.3212-3.0593c-0.36169-0.84579-0.12252-1.4178 0.75307-1.799m2.0247 15.299c1.6371 0 3.4101-0.40669 5.2728-1.2113 6.7172-2.9023 8.7522-8.3454 5.7335-15.331l-4.38-10.136c-0.22371-0.51218-0.42633-0.58529-0.61126-0.58529-0.13724 0-0.3076 0.0489-0.52053 0.13982l-30.35 13.113c-0.31202 0.13577-0.49253 0.27779-0.55486 0.43906-0.0648 0.15895-0.0294 0.38708 0.10486 0.69468l2.6398 6.1059c0.22187 0.51659 0.42829 0.58724 0.61326 0.58724 0.1354 0 0.3076-0.0442 0.52052-0.1354l9.2535-3.9993c0.27338-0.11811 0.50776-0.17845 0.71627-0.17845 0.61127 0 0.89973 0.50533 1.0631 0.88652l0.86051 1.9834c2.1556 4.9893 5.4907 7.6267 9.6386 7.6267"/><path d="m235.97 386.21c0.0331-0.17404-0.0331-0.38954-0.21487-0.65641l-6.0588-9.1088c-0.26455-0.39396-0.35911-0.74229-0.27964-1.0631 0.071-0.30944 0.29472-0.57642 0.69711-0.84332l1.5532-1.0347c0.33998-0.22628 0.62403-0.33372 0.89531-0.33372 0.38708 0 0.72264 0.22555 1.0239 0.68191l7.4614 11.209c0.27338 0.4111 0.48373 0.46066 0.61961 0.46066 0.16521 0 0.36794-0.082 0.61719-0.24983l5.919-3.935c0.2881-0.19133 0.45183-0.37435 0.49061-0.55291 0.0442-0.17661-0.0294-0.39591-0.21083-0.67113l-12.257-18.43c-0.27522-0.41063-0.48616-0.46019-0.6152-0.46019-0.16778 0-0.36989 0.0795-0.61763 0.24726l-27.457 18.264c-0.29877 0.19574-0.46214 0.38067-0.49893 0.56564-0.0331 0.17661 0.0331 0.39149 0.21525 0.65394l12.256 18.434c0.27559 0.41062 0.48616 0.45823 0.61962 0.45823 0.16594 0 0.3704-0.0821 0.62208-0.24762l5.9165-3.937c0.5784-0.38509 0.64511-0.67996 0.2881-1.224l-7.4609-11.207c-0.25425-0.38071-0.34881-0.71627-0.28663-1.0263 0.0648-0.3249 0.28847-0.60442 0.70597-0.88211l1.51-1.0067c0.33998-0.22371 0.62403-0.3271 0.89532-0.3271 0.38707 0 0.7251 0.21966 1.0302 0.67801l6.0588 9.1068c0.27338 0.41556 0.48617 0.46508 0.62157 0.46508 0.16336 0 0.3661-0.0821 0.6152-0.24762l4.8304-3.2119c0.29436-0.20016 0.45824-0.38512 0.49452-0.5681"/><path d="m257.94 415.72c-1.7386 1.749-3.9802 2.711-6.3149 2.711-2.2351 0-4.3824-0.9125-6.0475-2.5648-3.5048-3.4871-3.4572-8.8184 0.10339-12.401 1.7293-1.7362 3.9541-2.6938 6.2624-2.6938 2.2356 0 4.3912 0.9164 6.0652 2.5864 1.7234 1.7102 2.6482 3.9218 2.6055 6.2325-0.0394 2.2592-0.99002 4.4339-2.6742 6.1294m11.773-6.4522c0.0394-4.5306-1.8417-8.9175-5.295-12.354-3.3797-3.3581-7.6934-5.2106-12.145-5.2106-4.6513 0-9.2015 2.0006-12.816 5.6389-3.546 3.5607-5.5206 8.0334-5.5682 12.592-0.0442 4.5458 1.8289 8.939 5.2817 12.369 3.3694 3.3498 7.6743 5.1954 12.128 5.1954 4.6709 0 9.2403-2.0114 12.863-5.6604 3.5436-3.5583 5.5142-8.0207 5.551-12.571"/><path d="m287.72 430.43c-0.53374 0.80458-1.278 1.25-2.0914 1.25-0.49944 0-1.0155-0.17036-1.4909-0.48226l-2.7733-1.8417c-0.38509-0.25167-0.60243-0.52247-0.66671-0.83254-0.0629-0.32489 0.0331-0.66918 0.30944-1.0842l1.3574-2.059c0.19832-0.30134 0.52296-0.70152 1.0219-0.70152 0.2605 0 0.53183 0.10156 0.85856 0.32085l2.7752 1.8328c1.2804 0.84333 1.562 2.2891 0.69957 3.5975m7.1038 4.8147c4.0341-6.1034 2.7606-11.777-3.5862-15.977l-9.2103-6.0863c-0.2388-0.16152-0.42829-0.23695-0.58334-0.23695-0.13982 0-0.33299 0.0559-0.6152 0.47586l-18.242 27.59c-0.18692 0.28405-0.25793 0.49698-0.22371 0.66719 0.0331 0.16962 0.18508 0.3374 0.47097 0.52888l5.5486 3.6706c0.24137 0.1549 0.43023 0.23254 0.5833 0.23254 0.13981 0 0.33114-0.0519 0.61325-0.47785l5.5633-8.4102c0.19832-0.30135 0.51854-0.69666 1.018-0.69666 0.26014 0 0.53131 0.10118 0.86246 0.31606l1.8054 1.1985c2.5859 1.7058 5.0727 2.5732 7.3878 2.5732h2e-3c3.3517 0 6.2477-1.8054 8.6054-5.368"/><path d="m314.09 431.84-6.3208-2.9087c-0.21525-0.0986-0.38955-0.14828-0.52738-0.14828-0.18286 0-0.38266 0.0688-0.61325 0.57204l-13.814 30.036c-0.2778 0.60685-0.18103 0.86294 0.42582 1.1426l11.857 5.4495c0.21929 0.10118 0.3959 0.14828 0.53377 0.14828 0.1825 0 0.38071-0.0688 0.60884-0.57009l3.4743-7.558c0.13982-0.30502 0.18066-0.52884 0.12069-0.69026-0.0585-0.15932-0.23438-0.3076-0.54014-0.44547l-3.5283-1.6243c-0.86492-0.39395-1.0651-0.93163-0.66917-1.7966l9.4149-20.466c0.27522-0.60684 0.1825-0.86488-0.42188-1.1406"/><path d="m349.39 443.75-21.319-5.9617c-0.15306-0.0442-0.29288-0.0666-0.40669-0.0666-0.28405 0-0.50971 0.12068-0.67112 0.71233l-8.8836 31.762c-0.0946 0.33998-0.0986 0.58724-4e-3 0.7506 0.0883 0.15491 0.28406 0.27118 0.59361 0.35507l21.317 5.966c0.1549 0.0442 0.29288 0.0644 0.40473 0.0644 0.28406 0 0.5053-0.12031 0.67113-0.71428l1.9167-6.8393c0.0971-0.34623 0.099-0.59363 4e-3 -0.75943-0.0879-0.1527-0.27964-0.26897-0.58724-0.35286l-12.971-3.6318c-0.44102-0.12253-0.73147-0.31643-0.88649-0.58967-0.16153-0.2881-0.17404-0.64956-0.0394-1.1269l0.4862-1.7514c0.13099-0.46067 0.38708-1.0714 1.1489-1.0714 0.16153 0 0.33556 0.0294 0.53771 0.082l10.535 2.9494c0.1549 0.0442 0.28847 0.0644 0.40279 0.0644 0.2881 0 0.50971-0.12216 0.67749-0.71182l1.564-5.583c0.18507-0.66472 0.0442-0.93799-0.59166-1.1127l-10.529-2.9474c-0.44742-0.12473-0.73787-0.32048-0.8973-0.59559-0.15895-0.28847-0.1722-0.64758-0.0331-1.1274l0.50335-1.7946c0.13099-0.46019 0.38707-1.0734 1.1509-1.0734 0.15932 0 0.33557 0.0294 0.54014 0.0839l12.96 3.623c0.15454 0.0442 0.29031 0.0688 0.40423 0.0688 0.28589 0 0.50974-0.12032 0.67359-0.71433l1.9123-6.8476c0.0946-0.33814 0.0971-0.58529 4e-3 -0.74866-0.0857-0.15748-0.27964-0.27338-0.58923-0.35948"/><path d="m383.54 458.89-0.26455 0.33557c-0.40231 0.28846-0.76583 0.42828-1.123 0.42828-0.35727 0-0.71234-0.13982-1.123-0.46261-0.75553-0.88406-1.1235-1.7279-1.1235-2.5751-2e-3 -1.3683 0.94687-2.3647 2.2572-2.3691h4e-3c1.379 0 2.3107 0.94687 2.3146 2.3583 0 1.0474-0.45824 1.6479-0.94245 2.2847m-2.6394 16.11c-1.7666 0-2.7198-1.3403-2.7198-2.6055 0-0.97678 0.27118-1.5468 1.0886-2.2587 0.19833-0.17036 0.46508-0.26492 0.75304-0.26492 0.32526 0 0.63286 0.11811 0.84579 0.3271l2.0629 2.1081c0.22813 0.22187 0.32931 0.51019 0.32931 0.92965 4e-3 1.1426-1.3682 1.7598-2.3597 1.7642m13.939-0.70792c-0.34439-0.34182-0.6304-0.65836-0.63481-1.0798 0-0.30135 0.15711-0.6049 0.47538-0.92965l5.0796-5.1076c0.495-0.49451 0.52296-0.83449 0.099-1.2628l-3.7908-3.8168c-0.22187-0.22371-0.45183-0.33299-0.68879-0.33299-0.36353 0-0.70549 0.26455-0.92479 0.4837l-4.3785 4.5978c-0.31201 0.31386-0.68827 0.63044-1.1337 0.63044-0.37188 0-0.64758-0.24542-0.88648-0.4862l-0.76142-0.85852c-0.25168-0.30319-0.36169-0.55534-0.36169-0.81536 0-0.44349 0.3076-0.70793 0.6088-0.90809 3.2727-2.1748 5.0712-5.1331 5.0649-8.3283-0.011-5.656-4.2603-9.6063-10.362-9.6063-7.2391 0.0258-10.525 5.2302-10.516 10.064 0.011 2.5692 0.75259 4.6626 2.4956 7.0051 0.41945 0.5745 0.35028 1.1725-0.19575 1.6504-3.0318 2.3946-4.3785 4.9181-4.376 8.1776 0.0147 5.8454 4.6017 8.9067 9.1196 8.9067h0.0331c3.6745-0.0147 6.233-0.8193 8.5652-2.6933 0.41946-0.31201 0.8129-0.60442 1.2068-0.60442 0.3699 0 0.63434 0.22997 0.88406 0.47733l1.0606 1.1598c0.87571 0.966 1.3599 1.123 2.4937 1.123l6.8501-0.0147c0.40032-2e-3 0.69468-0.15048 0.81536-0.40227 0.11443-0.25425 0.0394-0.58087-0.19133-0.84969l-5.6496-6.177z"/><path d="m444.85 437.65c-0.16153-0.59165-0.38513-0.71627-0.67113-0.71627-0.1137 0-0.24726 0.0258-0.40231 0.0648l-6.2177 1.7274c-0.62797 0.17404-0.77467 0.44301-0.58724 1.1122l3.8963 14.036c0.10302 0.37435 0.0559 0.70991-0.12473 0.95518-0.15932 0.20863-0.40915 0.32674-0.69516 0.32674-0.22555 0-0.4646-0.0751-0.69714-0.22114l-16.353-10.848-0.29914-0.20641c-0.55092-0.38513-0.85852-0.59802-1.2952-0.59802-0.17845 0-0.39395 0.0331-0.65641 0.11001l-3.9841 1.1014c-0.62845 0.17662-0.77022 0.44742-0.58772 1.1146l8.8189 31.773c0.16594 0.58918 0.38755 0.71428 0.67797 0.71428 0.11185 0 0.24726-0.0258 0.40231-0.0666l6.2153-1.7279c0.3076-0.0839 0.50136-0.202 0.58966-0.35728 0.0924-0.16152 0.0901-0.41062-4e-3 -0.75303l-3.8835-13.991c-0.10118-0.36993-0.0578-0.70991 0.12694-0.95323 0.15932-0.21046 0.40474-0.32673 0.69074-0.32673 0.22813 0 0.46656 0.0751 0.6991 0.22113l16.639 11.001c0.55092 0.38707 0.85852 0.60048 1.2971 0.60048 0.18103 0 0.3915-0.0331 0.65399-0.1056l3.9846-1.1058c0.3076-0.0839 0.50335-0.20273 0.5897-0.35727 0.0924-0.16373 0.0901-0.40915-4e-3 -0.75307z"/><path d="m475.93 445.26c-0.0578 0.36794-0.32673 0.68191-0.7938 0.92526l-2.7301 1.4262c-0.2778 0.14681-0.54014 0.21966-0.77658 0.21966-0.33373 0-0.92086-0.15306-1.1294-1.1897l-0.59849-4.6322c-0.0795-0.57642 0.0147-1.0327 0.26675-1.3231 0.16779-0.19575 0.40033-0.29914 0.66477-0.29914 0.35506 0 0.74666 0.18949 1.1318 0.54209l3.4748 3.1501c0.47928 0.50088 0.53573 0.9164 0.4901 1.1808m-7.7793-18.461c-0.57694-0.49944-0.99393-0.70991-1.3942-0.70991-0.20016 0-0.40426 0.0559-0.6216 0.16962l-5.1335 2.6894c-0.63875 0.32931-0.82173 0.84332-0.70792 1.9555l4.0037 34.309c0.0184 0.19133 0.14019 0.8193 0.65442 0.8193 0.13725 0 0.29693-0.0489 0.46655-0.13725l6.7319-3.5155c0.57252-0.34881 0.78103-0.73346 0.70991-1.332l-0.3979-3.2698c-0.0946-1.2481 0.30576-1.9795 1.379-2.5368l6.5622-3.4381c0.46902-0.241 0.87129-0.3547 1.2608-0.3547 0.53131 0 1.043 0.21488 1.6175 0.6839l2.4529 2.1861c0.26676 0.23438 0.52689 0.34402 0.81293 0.34402 0.20458 0 0.43071-0.0559 0.67356-0.16079l6.7446-3.5288c0.1939-0.10118 0.43465-0.27963 0.46901-0.54407 0.0294-0.2388-0.11369-0.51659-0.39347-0.7658z"/><path d="m496.63 418.86c-0.5617-0.75108-0.4798-1.332 0.26896-1.8995l3.182-2.3926c0.27523-0.20642 0.41309-0.38071 0.43664-0.55092 0.0258-0.16962-0.0578-0.38071-0.26896-0.65593l-4.5438-6.0436c-0.29693-0.39347-0.49062-0.43858-0.6113-0.43858-0.15895 0-0.35286 0.0901-0.5936 0.2708l-15.067 11.336c-0.53377 0.39786-0.57005 0.66672-0.16962 1.2024l4.5438 6.0436c0.29877 0.39591 0.49451 0.44301 0.6152 0.44301 0.15711 0 0.35286-0.0879 0.5936-0.27338l3.18-2.3902c0.3374-0.25351 0.62403-0.3763 0.8973-0.3763 0.47292 0 0.79818 0.36795 1.0023 0.63875l14.001 18.614c0.29472 0.39149 0.49058 0.43859 0.61325 0.43859 0.15932 0 0.35322-0.0901 0.59408-0.27264l5.1547-3.8791c0.53374-0.40227 0.57447-0.6716 0.17404-1.2049z"/><path d="m531.37 399.55-14.279-13.628c-0.27522-0.22812-0.49057-0.3374-0.67995-0.3374-0.19317 0-0.39345 0.11369-0.62356 0.3547l-4.5958 4.8151c-0.44742 0.47343-0.43223 0.77856 0.071 1.2545l14.367 13.707c1.2481 1.1877 1.93 2.2783 2.0914 3.3306 0.15454 1.0131-0.20016 1.9815-1.0543 2.8783-0.78349 0.81977-1.6376 1.2353-2.5452 1.2353-1.1426 0-2.3666-0.6368-3.7373-1.9452l-14.369-13.702c-0.27081-0.2605-0.48179-0.37872-0.6584-0.37872-0.16521 0-0.35065 0.10744-0.56369 0.33115l-4.6601 4.8902c-0.22113 0.22996-0.32931 0.4327-0.32489 0.60883 4e-3 0.18508 0.13136 0.39838 0.39149 0.64317l14.294 13.634c3.7241 3.5543 7.3171 5.3572 10.68 5.3572h4e-3c2.9303 0 5.7316-1.3771 8.3194-4.09 2.7821-2.9195 4.0125-6.0024 3.6598-9.1696-0.35727-3.1756-2.3043-6.465-5.7875-9.7888"/><path d="m537.96 379.29-0.14423 0.21341c-0.35286 0.52689-0.75307 0.78055-1.2304 0.78055-0.31827 0-0.65395-0.12031-1.0307-0.37434l-2.0114-1.3423c-0.4582-0.30576-0.72069-0.63922-0.80459-1.0155-0.0798-0.38314 0.0258-0.7874 0.32232-1.2348l0.13798-0.20899c0.54849-0.82172 1.3771-1.2927 2.2675-1.2927 0.56811 0 1.1318 0.1825 1.6764 0.54408 0.70741 0.47144 1.1592 1.095 1.3015 1.8073 0.14166 0.70546-0.0258 1.4394-0.48421 2.1232m23.07 0.54456-14.221-4.5914c-0.46456-0.16521-0.73979-0.43418-0.91198-0.88847-0.76827-1.7794-1.8289-3.8403-4.7548-5.7958-2.1576-1.4438-4.2814-2.1728-6.3188-2.1728-3.4077 0-6.6137 2.0973-9.2663 6.0691l-4.0037 5.9916c-0.37431 0.55537-0.31827 0.82419 0.23659 1.2005l27.491 18.369c0.241 0.15711 0.4327 0.23658 0.5833 0.23658 0.13724 0 0.33115-0.0534 0.61277-0.47538l3.6127-5.4043c0.19133-0.2859 0.26456-0.49699 0.22997-0.66672-0.0331-0.17219-0.18287-0.33593-0.47148-0.52936l-9.3845-6.2737c-0.32931-0.21745-0.43663-0.47538-0.47096-0.65199-0.0394-0.22371 0.011-0.46262 0.13981-0.652 0.1527-0.23438 0.43664-0.36537 0.77662-0.36537 0.17845 0 0.35911 0.0331 0.5269 0.10119l10.615 3.6318c0.45823 0.17183 0.75502 0.24469 0.98314 0.24469 0.3271 0 0.59607-0.13283 1.0607-0.83008l3.5563-5.3249c0.17036-0.25609 0.22187-0.47538 0.16373-0.65398-0.0798-0.22813-0.35948-0.42829-0.78544-0.56811"/><path d="m576.74 347.49-6.5057-2.868c-0.22371-0.0968-0.40669-0.14607-0.55533-0.14607-0.18692 0-0.40868 0.0666-0.62602 0.56369l-5.4303 12.319c-0.26014 0.57642-0.6152 0.86047-1.0886 0.86047-0.21745 0-0.46261-0.0603-0.74618-0.18728l-1.6612-0.73147c-0.8757-0.39344-1.1121-0.96596-0.74225-1.8093l4.4148-10.009c0.13099-0.29693 0.16153-0.51854 0.0968-0.68632-0.0666-0.17404-0.26235-0.33115-0.58525-0.47097l-5.3033-2.3386c-0.22371-0.099-0.40227-0.14608-0.55044-0.14608-0.18949 0-0.41306 0.0666-0.62845 0.56811l-4.4148 10.006c-0.25793 0.57892-0.61078 0.86297-1.0862 0.86297-0.21524 0-0.46066-0.0603-0.74865-0.18728l-1.7063-0.75303c-0.45824-0.202-0.72952-0.43859-0.84774-0.74671-0.11627-0.29435-0.082-0.6407 0.10339-1.0606l5.4298-12.319c0.13136-0.29288 0.16595-0.51659 0.10119-0.68437-0.0688-0.17404-0.25793-0.32931-0.58477-0.47343l-6.5038-2.868c-0.21966-0.0986-0.40032-0.14386-0.54897-0.14386-0.18692 0-0.41309 0.0666-0.63434 0.56564l-8.9288 20.25c-0.26456 0.59997-0.14608 0.88207 0.48421 1.1573l30.172 13.302c0.22187 0.099 0.40426 0.14607 0.54849 0.14607 0.18729 0 0.40868-0.0666 0.63239-0.56567l8.9287-20.25c0.2605-0.59805 0.14166-0.88211-0.48421-1.1573"/><path d="m191.35 278.22-2.4206-2e-3c-1.093-4e-3 -1.6435-0.54603-1.6435-1.6067v-0.25204c2e-3 -1.6803 1.1509-2.8077 2.8591-2.8077h4e-3c0.84332 2e-3 1.562 0.27118 2.0717 0.77908 0.51217 0.50578 0.78545 1.2132 0.77908 2.291 0 1.0607-0.55732 1.5989-1.6523 1.5989m22.315 6.6092 0.0147-6.5038c0-0.34256-0.0559-0.55975-0.17662-0.68191-0.12473-0.1251-0.34181-0.18103-0.68636-0.18103l-11.284-0.0184c-0.68879 0-1.0028-0.46656-1.0028-0.90566 2e-3 -0.43465 0.3959-0.82173 0.9444-0.93995l10.841-2.8528c1.1813-0.2778 1.3751-0.50578 1.3795-1.6224l0.0147-6.3983c0-0.27559-0.0622-0.47539-0.18287-0.59412-0.10744-0.10928-0.27117-0.16337-0.49061-0.16337-0.15491 0-0.33373 0.0294-0.52248 0.0821l-14.383 4.0577c-0.14865 0.0331-0.2778 0.0533-0.40669 0.0533-0.29251 0-0.56567-0.0924-0.84137-0.29031-1.6244-1.0582-3.651-2.188-7.2048-2.1925-6.934 0-10.762 4.2191-10.779 11.876l-0.0147 7.2053c0 0.67113 0.19575 0.86492 0.86493 0.86492l33.055 0.0666c0.66866 0 0.86246-0.1917 0.86246-0.85852"/><path d="m198.51 237.93 4.6346-0.72511 0.22371-0.011h0.0147c0.56564 0 0.86489 0.21745 1.0175 0.40032 0.22813 0.28147 0.29473 0.67307 0.19391 1.1725l-0.6 3.0118c-0.1917 0.97479-0.7771 1.121-1.1102 1.121-0.24983 0-0.52741-0.0821-0.84137-0.24726l-3.9866-2.4397c-0.63923-0.38513-0.9532-0.88211-0.85658-1.3575 0.0946-0.47586 0.57252-0.81337 1.3124-0.92523m-15.129 2.788 29.21 18.425c0.21745 0.13356 0.43023 0.20458 0.61321 0.20458 0.40868 0 0.56811-0.35323 0.62602-0.64563l1.4865-7.4462c0.0883-0.66671-0.0839-1.0714-0.58481-1.3918l-2.8037-1.747c-1.0263-0.70351-1.3447-1.4762-1.1033-2.6595l1.4497-7.2652c0.23695-1.1877 0.8286-1.7774 2.057-2.0374l3.2423-0.53131c0.59165-0.10339 0.90367-0.41113 1.0734-1.0415l1.4928-7.4653c0.0559-0.28847 0.0184-0.523-0.10486-0.6736-0.15491-0.19133-0.41556-0.23254-0.60689-0.23254-0.0865 0-0.17219 0.011-0.26234 0.0258l-34.045 5.7894c-1.1038 0.20421-1.5424 0.5269-1.6802 1.2304l-1.1357 5.682c-0.14018 0.70597 0.13982 1.1725 1.0754 1.7813"/><path d="m191.69 207.34 30.884 11.824c0.202 0.0776 0.36353 0.11627 0.49694 0.11627 0.19575 0 0.40621-0.0732 0.61079-0.61079l2.6011-6.7834c0.11811-0.31202 0.14166-0.54014 0.0754-0.69516-0.0736-0.15895-0.25425-0.29251-0.57693-0.41504l-30.882-11.825c-0.20201-0.0795-0.36795-0.1159-0.49894-0.1159-0.19611 0-0.40668 0.0751-0.61126 0.61274l-2.5987 6.777c-0.12252 0.31459-0.14681 0.5465-0.0754 0.70155 0.071 0.15932 0.25168 0.29031 0.57447 0.41305"/><path d="m200.82 184.78 28.373 16.796c0.24542 0.14386 0.44547 0.21487 0.60689 0.21487 0.15269 0 0.36095-0.0578 0.61961-0.49256l3.2874-5.553c0.16337-0.2778 0.22114-0.49695 0.17625-0.67113-0.0442-0.17845-0.21746-0.35727-0.52296-0.53816l-12.491-7.3966c-0.41751-0.24284-0.63044-0.61274-0.56811-0.99392 0.0648-0.39591 0.41305-0.71186 0.92523-0.81735l19.262-3.5391 0.3661-0.0559c0.94882-0.15048 1.2692-0.20016 1.7406-1.0003l2.1042-3.5563c0.33298-0.56369 0.24909-0.85657-0.3444-1.2093l-28.373-16.796c-0.24285-0.14424-0.43907-0.21304-0.60244-0.21304-0.15269 0-0.36537 0.0559-0.62598 0.49058l-3.2875 5.5569c-0.16153 0.27559-0.21929 0.49304-0.17661 0.66277 0.0489 0.18287 0.21966 0.35728 0.52542 0.54408l12.538 7.4226c0.41309 0.24542 0.62403 0.6152 0.56126 0.99396-0.0666 0.40032-0.41309 0.71429-0.9228 0.82173l-19.662 3.5651c-0.95761 0.15269-1.278 0.202-1.747 0.99639l-2.1105 3.5563c-0.32526 0.56123-0.24137 0.85606 0.34844 1.2113"/><path d="m250.5 168.58c0.25351 0.22408 0.46456 0.33372 0.64559 0.33372 0.18949 0 0.38512-0.12473 0.60883-0.37872l4.404-4.9868c0.42781-0.48815 0.39985-0.7938-0.11627-1.252l-8.0918-7.1322c-0.36095-0.32048-0.53962-0.6152-0.55927-0.92722-0.0184-0.31385 0.12252-0.62845 0.44105-0.98756l3.7628-4.2726c0.2193-0.24763 0.31827-0.45625 0.29914-0.63923-0.0147-0.18287-0.15049-0.38317-0.41309-0.61325l-4.871-4.2986c-0.25792-0.22555-0.46901-0.33373-0.64956-0.33373-0.18729 0-0.38756 0.12253-0.6088 0.37236l-3.7653 4.277c-0.3374 0.38119-0.65199 0.55533-0.98509 0.55533-0.29288 0-0.5897-0.13577-0.93163-0.43465l-1.0563-0.93604c-0.36168-0.31607-0.53815-0.60884-0.55728-0.92085-0.0258-0.31202 0.11811-0.62797 0.43859-0.99393l4.561-5.1762c0.21524-0.241 0.31459-0.44547 0.30355-0.62403-0.011-0.18692-0.14424-0.39149-0.41309-0.62797l-5.5937-4.9334c-0.25425-0.22371-0.46707-0.33372-0.64563-0.33372-0.18691 0-0.38512 0.12473-0.60883 0.37236l-10.439 11.839c-0.21084 0.2388-0.3076 0.44102-0.29693 0.61962 0.011 0.18691 0.14423 0.39149 0.41309 0.62793z"/><path d="m261.04 125.86c0.25792-2.2808 1.4629-4.3506 3.3861-5.8263 1.5728-1.2113 3.3993-1.8461 5.2753-1.8461 2.6894 0 5.2282 1.2952 6.9664 3.5523 3.0618 3.9841 2.4161 9.2619-1.4993 12.272-1.5576 1.1985-3.3738 1.8329-5.2454 1.8329h-2e-3c-2.711 0-5.2714-1.3055-7.0204-3.5818-1.4546-1.8932-2.1149-4.1651-1.8608-6.4027m9.0274 19.109c3.7604 0 7.4373-1.2996 10.639-3.7564 7.9858-6.1422 9.1863-16.583 2.8547-24.832-3.5779-4.6538-8.6829-7.3196-14.006-7.3196-3.7609 0-7.4482 1.304-10.661 3.7716-3.8551 2.9627-6.2712 7.0802-6.8025 11.594-0.53572 4.5247 0.85804 9.2104 3.9173 13.19 3.5887 4.6709 8.7114 7.3515 14.058 7.3515"/><path d="m296.41 100.27c0.12068-0.37236 0.41555-0.66914 0.89484-0.90366l0.22812-0.11001c0.43712-0.21304 0.88012-0.31827 1.3212-0.31827 1.0498 0 1.9447 0.60688 2.4613 1.6656 0.74424 1.536 0.23254 3.0657-1.276 3.8016l-0.23218 0.11627c-0.31017 0.14608-0.58528 0.2193-0.83695 0.2193-0.83056-4e-3 -1.2005-0.7619-1.3231-1.0111l-1.0587-2.1772c-0.241-0.49503-0.29877-0.91448-0.17845-1.2824m3.937 26.009c0.23879 0.49698 0.44352 0.56369 0.61325 0.56369 0.13982 0 0.32084-0.0515 0.54014-0.16153l5.8498-2.8395c0.59802-0.29031 0.68827-0.54651 0.40032-1.1514l-4.9334-10.152c-0.17403-0.35322-0.13981-0.63043-0.0839-0.79821 0.0776-0.21746 0.23659-0.39392 0.45379-0.49695l0.27338-0.0754h0.0603c0.33115 0 0.6775 0.1939 0.92722 0.50776l7.3216 8.4941c0.50334 0.61273 0.78739 0.81731 1.1294 0.81731 0.22371 0 0.51413-0.0883 0.93358-0.29252l5.7551-2.7949c0.27779-0.13982 0.43663-0.30135 0.47343-0.48616 0.0442-0.23659-0.0946-0.55093-0.39591-0.88406l-9.9546-11.145c-0.31643-0.38071-0.41306-0.75061-0.33373-1.2265 0.23438-1.932 0.35728-4.2534-1.1725-7.403-2.0114-4.1391-4.9849-6.2394-8.834-6.2394-2.0051 0-4.223 0.58334-6.5876 1.7343l-6.4777 3.1476c-0.60247 0.29031-0.69078 0.55096-0.40231 1.1534z"/><path d="m327.12 114.02c0.16521 0.58919 0.38906 0.71183 0.67555 0.71183 0.11369 0 0.24725-0.0184 0.39984-0.0622l21.31-5.9617c0.62796-0.17846 0.76778-0.44742 0.58282-1.1122l-1.9148-6.8418c-0.16152-0.5897-0.38707-0.70987-0.67554-0.70987-0.11369 0-0.2491 0.0184-0.39981 0.0603l-12.956 3.623c-0.20274 0.0578-0.38119 0.0857-0.54456 0.0857-0.75748 0-1.0155-0.6152-1.1446-1.0734l-0.48815-1.747c-0.25608-0.91886 0.0331-1.4654 0.92479-1.717l10.536-2.945c0.62797-0.17661 0.77025-0.44793 0.58528-1.1127l-1.5601-5.5785c-0.16778-0.59165-0.38954-0.71429-0.6775-0.71429-0.11185 0-0.24762 0.02576-0.40032 0.06218l-10.532 2.9475c-0.19758 0.05593-0.37629 0.08389-0.53767 0.08389-0.84774 0-1.0759-0.80653-1.149-1.0714l-0.50139-1.7941c-0.25572-0.9228 0.0331-1.4718 0.92526-1.7171l12.962-3.6269c0.31827-0.08831 0.51417-0.21341 0.59806-0.37236 0.0839-0.16594 0.0798-0.40669-0.0147-0.7403l-1.9128-6.8413c-0.16153-0.59165-0.38708-0.71432-0.67555-0.71432-0.11185 0-0.24983 0.02576-0.40227 0.06439l-21.303 5.9617c-0.6304 0.17404-0.77268 0.44348-0.58772 1.1102z"/><path d="m367.38 93.037c1.5576 0.03937 2.4162 0.80848 2.5579 2.2847 0.12068 1.3059-0.77905 2.345-2.1429 2.4765-0.10119 0.01104-0.202 0.01472-0.30135 0.01472-0.9228 0-2.0629-0.42586-2.2523-2.4569-0.0629-0.67749-0.31017-0.82614-0.8909-0.82614-0.0147 0-6.1726 0.57646-6.1726 0.57646-0.61961 0.06034-1.0499 0.20274-0.92721 1.5125 0.62403 6.6353 4.0449 10.14 9.8903 10.14 0.49695 0 1.0111-0.0258 1.5424-0.0754 6.6956-0.63238 10.301-5.1743 9.643-12.155-0.59411-6.2972-4.4943-9.7784-10.979-9.802-1.6396-0.01104-3.1864-0.29288-3.3733-2.2612-0.0559-0.62646 0.10928-1.1966 0.48175-1.6459 0.39149-0.47343 0.98314-0.7658 1.6587-0.82861 0.0968-0.01104 0.18949-0.01472 0.28589-0.01472 1.2912 0 2.1709 0.87765 2.3043 2.2999 0.0622 0.67113 0.3076 0.82419 0.88652 0.82419 0.0147 0 6.1809-0.57693 6.1809-0.57693 0.36169-0.03312 0.57009-0.1159 0.70156-0.27522 0.17403-0.21304 0.23217-0.59806 0.17845-1.1833-0.59408-6.308-4.3824-10.08-10.133-10.08-0.42387 0-0.8541 0.02576-1.2952 0.06476-3.1412 0.29693-5.6457 1.5145-7.2357 3.5239-1.6695 2.1086-2.345 5.0001-2.005 8.5907 0.63677 6.7579 4.0449 9.7098 11.396 9.8712"/><path d="m387.87 79.718 3.9738 0.25793c0.48175 0.03311 0.80212 0.15711 1.0086 0.39396 0.20899 0.23438 0.28662 0.56564 0.25608 1.0474l-1.5277 23.247c-0.0258 0.34403 0.0184 0.56369 0.13797 0.69468 0.11443 0.12915 0.3249 0.20016 0.67113 0.21929l6.6073 0.4327c0.47097 0 0.70546-0.12252 0.75108-0.81094l1.5253-23.244c0.0578-0.87129 0.43219-1.2633 1.4134-1.2633 0.011 0 4.1651 0.26492 4.1651 0.26492 0.47538 0 0.70792-0.12252 0.75307-0.80701l0.49252-7.5492c0.0258-0.34439-0.0184-0.56612-0.13356-0.6971-0.11185-0.13136-0.32489-0.20016-0.66671-0.22187l-18.986-1.2412c-0.47144 0-0.70351 0.12473-0.75303 0.80896l-0.49304 7.5492c-0.0184 0.33998 0.0184 0.56369 0.13577 0.69515 0.11369 0.12915 0.32673 0.20016 0.66917 0.22371"/><path d="m443.06 100.22 2.969-3.6078c0.37236-0.45625 0.7874-0.70987 1.1814-0.70987 0.46015 0 1.0086 0.38708 1.0175 1.4781l0.0732 4.6881c-0.0394 0.85411-0.44941 1.3403-1.125 1.3403-0.18729 0-0.39591-0.0394-0.61962-0.11884l-2.9048-1.015c-0.49452-0.17036-0.80653-0.43906-0.92085-0.79428-0.11811-0.36989-0.011-0.79129 0.32931-1.2608m-17.536 9.4581 7.1705 2.5064c0.19575 0.0533 0.36794 0.0795 0.52932 0.0795 0.36611 0 0.65399-0.14424 0.92969-0.47097l2.1169-2.528c0.58529-0.64117 1.1382-0.92523 1.7921-0.92523 0.30319 0 0.62797 0.0622 1.0003 0.19133l6.9943 2.4485c1.1446 0.39789 1.644 1.0695 1.7279 2.3215l0.0813 3.283c0.0184 0.60442 0.28405 0.95717 0.8821 1.2113l7.1901 2.5172c0.13356 0.0442 0.25866 0.0688 0.37235 0.0688 0.16779 0 0.31018-0.0559 0.41309-0.16153 0.1527-0.15711 0.22997-0.42387 0.22371-0.7506l-1.0092-34.533c-0.0534-1.1205-0.30944-1.6003-0.98951-1.8372l-5.4691-1.9148c-0.17182-0.05998-0.32489-0.09015-0.47979-0.09015-0.45577 0-0.87328 0.26492-1.435 0.91007l-22.308 26.385c-0.23879 0.28589-0.33997 0.58528-0.27963 0.81341 0.0732 0.26013 0.33556 0.40227 0.54654 0.47538"/><path d="m462.04 123.99 11.416 6.3316c0.22997 0.12694 0.41063 0.1917 0.55928 0.1917 0.15711 0 0.35285-0.0648 0.61078-0.52491l4.0297-7.2764c0.3271-0.58723 0.25167-0.84972-0.33115-1.1725l-3.3929-1.8824c-0.42387-0.23438-0.66281-0.47979-0.74865-0.78103-0.0857-0.30134-0.0184-0.63676 0.21745-1.0587l10.923-19.705c0.32231-0.58724 0.24909-0.84969-0.33557-1.1725l-6.0804-3.3733c-0.23438-0.12694-0.41699-0.18728-0.56564-0.18728-0.15712 0-0.35286 0.06034-0.61079 0.52299l-16.029 28.915c-0.16779 0.30135-0.22187 0.51858-0.1722 0.68831 0.0442 0.16374 0.21341 0.32269 0.51023 0.48422"/><path d="m481.42 135.53 10.495 7.769c0.24284 0.18066 0.43664 0.26639 0.5936 0.26639 0.12253 0 0.31643-0.0489 0.61079-0.443l4.9486-6.6887c0.2042-0.27559 0.2881-0.48421 0.26234-0.65398-0.0184-0.1722-0.16594-0.34881-0.43907-0.55092l-3.1216-2.3107c-0.75307-0.55928-0.83891-1.1426-0.28148-1.8956l13.41-18.113c0.20201-0.27559 0.2881-0.48222 0.26235-0.65641-0.0258-0.16962-0.16594-0.34439-0.44348-0.5465l-5.5913-4.146c-0.24321-0.17625-0.43469-0.26235-0.59412-0.26235-0.11811 0-0.31386 0.0442-0.61079 0.44543l-19.682 26.581c-0.3959 0.53572-0.35727 0.80458 0.18066 1.2049"/><path d="m498.87 149.11c4e-3 0.1722 0.12252 0.36353 0.36993 0.60048l5.2817 4.9825c0.24137 0.22371 0.43712 0.33557 0.60247 0.33557 0.17845 0 0.37431-0.1159 0.61568-0.37188l22.698-24.042c0.4582-0.48422 0.45183-0.76187-0.0331-1.2201l-5.2778-4.9805c-0.24542-0.22812-0.44105-0.33556-0.60883-0.33556-0.17662 0-0.36795 0.11627-0.61079 0.37188l-22.698 24.042c-0.23217 0.24542-0.34182 0.4479-0.3374 0.61763"/><path d="m530.23 161.45 4.4683-1.3815c0.25168-0.0813 0.49062-0.12031 0.70793-0.12031 0.44105 0 0.77856 0.17183 0.94634 0.48174 0.21084 0.38708 0.12511 0.91839-0.24541 1.4865l-2.5148 3.961c-0.33373 0.45382-0.70156 0.68389-1.0906 0.68389-0.3704 0-0.7187-0.20862-1.0371-0.62355l-1.8677-2.4466c-0.32048-0.41699-0.43024-0.8129-0.32931-1.1701 0.0732-0.25609 0.29472-0.61568 0.96202-0.87129m-20.037-2.4358c-0.082 0.25425 0.0604 0.51659 0.19391 0.69074l4.6106 6.0348c0.32931 0.38067 0.63875 0.5465 1.0003 0.5465 0.1354 0 0.2778-0.0257 0.43222-0.0666l3.1609-0.94881c0.31827-0.082 0.59997-0.12252 0.85804-0.12252 0.74667 0 1.3231 0.32268 1.8785 1.0479l4.4923 5.8886c0.73787 0.95518 0.78938 1.7897 0.17183 2.8891l-1.7426 2.7841c-0.31386 0.50975-0.2881 0.95076 0.0754 1.4973l4.6214 6.0499c0.13099 0.16778 0.33556 0.36795 0.59364 0.36795 0.24726 0 0.50776-0.18729 0.71234-0.51855l18.139-29.393c0.57251-0.96401 0.62156-1.5061 0.18728-2.0762l-3.522-4.6066c-0.27964-0.36758-0.6088-0.52885-1.0695-0.52885-0.26455 0-0.57892 0.0515-0.97678 0.16153l-33.134 9.7696c-0.35911 0.11186-0.61079 0.30319-0.68195 0.53326"/><path d="m533.82 191.7c-0.0622 0.16594-0.0294 0.38708 0.1056 0.6775l2.6825 5.8734c0.22407 0.49304 0.44546 0.5617 0.63043 0.5617 0.14865 0 0.33372-0.0497 0.55534-0.15049l13.216-6.0347c0.18102-0.082 0.36168-0.12473 0.53178-0.12473 0.30135 0 0.56123 0.1354 0.71628 0.36989 0.19133 0.28847 0.20457 0.68194 0.0331 1.0867l-8.1026 17.835-0.15711 0.32489c-0.42387 0.8693-0.56564 1.1637-0.18508 2.005l1.721 3.7609c0.22371 0.49256 0.44102 0.56126 0.6304 0.56126 0.14865 0 0.33151-0.0515 0.55533-0.1527l30.004-13.694c0.32232-0.14607 0.50971-0.30576 0.57642-0.4798 0.0622-0.16594 0.0294-0.38954-0.1056-0.68437l-2.6786-5.869c-0.22813-0.49256-0.44742-0.56174-0.63239-0.56174-0.15048 0-0.3293 0.0519-0.55732 0.15491l-13.259 6.0455c-0.18507 0.0883-0.36794 0.13136-0.53815 0.13136-0.29693 0-0.55927-0.13578-0.71186-0.37041-0.19391-0.2881-0.20458-0.67996-0.0331-1.0862l8.1516-17.859 0.15748-0.32673c0.41946-0.8693 0.56369-1.1617 0.17845-2.0011l-1.7171-3.7628c-0.22554-0.49058-0.44741-0.55732-0.63238-0.55732-0.15049 0-0.33556 0.0519-0.55533 0.15306l-30.004 13.692c-0.32268 0.14608-0.51217 0.3076-0.57645 0.48179"/><path d="m564.85 220.24c-4.9118 1.0739-8.9994 3.7501-11.512 7.5409-2.5089 3.78-3.3174 8.4789-2.2783 13.232 1.4414 6.62 6.0367 11.6 11.988 12.999 0.29693 0.0692 0.52738 0.10118 0.72507 0.10118 0.52495 0 0.80263-0.23659 0.94687-0.809l1.4306-6.2c0.19133-0.81146 0.0688-1.0607-0.67996-1.3943-3.0765-1.332-4.8343-3.4253-5.5226-6.5876-0.50971-2.3386-0.0901-4.6861 1.1833-6.6073 1.2564-1.902 3.2443-3.2291 5.5849-3.7393 0.67359-0.14828 1.358-0.22371 2.0291-0.22371 4.1563 0 7.5472 2.737 8.4337 6.8075 0.68831 3.1623-0.0331 5.7978-2.2655 8.2851-0.54655 0.61962-0.55291 0.89925-0.0442 1.5576l3.883 5.032c0.24321 0.30576 0.495 0.45625 0.75944 0.45625 0.28405 0 0.60685-0.15711 1.0607-0.5053 4.8215-3.7525 6.9212-10.193 5.4779-16.814-1.8093-8.2724-8.3974-13.619-16.784-13.619-1.4502 0-2.9322 0.16336-4.4148 0.48811"/><path d="m555.08 262.68 0.35911 22.128c0.0147 0.6407 0.2307 0.84969 0.89727 0.84969l7.1386-0.11811c0.69268-0.0147 0.90756-0.22813 0.89925-0.88207l-0.2193-13.453c-0.0147-0.92526 0.42387-1.3643 1.383-1.379l1.8633-0.0294c0.92526 0 1.3643 0.42633 1.3771 1.3364l0.18066 10.931c0.011 0.64317 0.22628 0.85168 0.92523 0.85168l5.7958-0.0968c0.35727-0.011 0.59412-0.0776 0.72757-0.21304 0.12032-0.12694 0.17625-0.34439 0.17183-0.66281l-0.17845-10.938c-0.0184-0.92527 0.42192-1.3643 1.379-1.3815l1.9172-0.0331c0.92916 0 1.3663 0.42387 1.3771 1.3358l0.22114 13.453c0.011 0.64316 0.2237 0.84969 0.92081 0.84969 2e-3 0 7.1106-0.11627 7.1106-0.11627 0.34624-4e-3 0.58084-0.0707 0.71429-0.19575 0.12915-0.12914 0.19133-0.35065 0.18691-0.68191l-0.36352-22.121c-0.011-0.64316-0.22371-0.84973-0.92475-0.84973-2e-3 0-32.962 0.54014-32.962 0.54014-0.68633 0.0147-0.90809 0.22555-0.89727 0.87571"/></g><path d="m456.01 327.57v16.102h-3.5327l-0.0924-11.056-4.8152 11.056h-2.7066l-4.8171-11.424v11.424h-3.3904v-16.102h5.0428l4.6321 11.698 5.0452-11.698zm-34.172 0h12.616v3.2124h-4.3609v12.889h-3.806v-12.889h-4.4492z" fill="#004c55"/></g></svg>
