<?xml version="1.0" encoding="UTF-8"?>
<svg width="188" height="90" version="1.1" viewBox="0 0 188 90" xml:space="preserve" xmlns="http://www.w3.org/2000/svg">
<style type="text/css">
	.st0{fill:#FFFFFF;}
	.st1{fill-rule:evenodd;clip-rule:evenodd;fill:#12B4AA;}
	.st2{fill-rule:evenodd;clip-rule:evenodd;fill:#FFFFFF;}
</style>
<path class="st0" d="m6.2 40.2h-0.7l1.2-3.2h0.8l1.2 3.2h-0.7l-0.2-0.7h-1.3zm0.5-1.3h0.9l-0.4-1.3z"/>
<g transform="scale(1.9868)">
	<path class="st0" d="m9.7 39.2c0 0.2 0.1 0.5 0.7 0.5 0.3 0 0.7-0.1 0.7-0.4 0-0.2-0.3-0.3-0.6-0.4l-0.4-0.1c-0.5-0.1-1.1-0.2-1.1-0.9 0-0.4 0.2-1 1.4-1 1.1 0 1.4 0.6 1.4 1h-0.7c0-0.1-0.1-0.5-0.7-0.5-0.3 0-0.6 0.1-0.6 0.4 0 0.2 0.2 0.3 0.4 0.3l0.9 0.2c0.5 0.1 0.9 0.3 0.9 0.9 0 1-1.1 1-1.4 1-1.3 0-1.5-0.7-1.5-1.1h0.6z"/>
	<path class="st0" d="m14.6 38c-0.1-0.2-0.2-0.6-0.8-0.6-0.4 0-0.9 0.2-0.9 1.1 0 0.6 0.2 1.1 0.9 1.1 0.4 0 0.7-0.2 0.8-0.6h0.7c-0.1 0.7-0.6 1.2-1.5 1.2s-1.6-0.6-1.6-1.7 0.7-1.7 1.6-1.7c1.1 0 1.5 0.7 1.5 1.1h-0.7z"/>
	<rect class="st0" x="15.8" y="38.3" width="1.4" height=".6"/>
	<path class="st0" d="m18.1 40.2h-0.8l1.3-3.2h0.8l1.2 3.2h-0.8l-0.2-0.7h-1.3zm0.5-1.3h0.9l-0.5-1.2z"/>
	<path class="st0" d="m23.8 40.4-0.4-0.4c-0.3 0.2-0.7 0.2-0.9 0.2-0.5 0-1.7-0.2-1.7-1.7s1.2-1.7 1.7-1.7 1.7 0.2 1.7 1.7c0 0.5-0.2 0.9-0.4 1.1l0.4 0.3zm-0.9-1.5 0.4 0.3c0.1-0.2 0.2-0.4 0.2-0.7 0-0.9-0.6-1.1-1-1.1s-1 0.2-1 1.1 0.6 1.1 1 1.1c0.1 0 0.3 0 0.4-0.1l-0.4-0.3z"/>
	<path class="st0" d="m27.6 39c0 0.8-0.6 1.2-1.4 1.2-0.3 0-0.8-0.1-1.1-0.4-0.2-0.2-0.3-0.5-0.3-0.8v-2h0.8v2c0 0.4 0.3 0.6 0.6 0.6 0.5 0 0.7-0.2 0.7-0.6v-2h0.8v2z"/>
	<path class="st0" d="m28.6 40.2h-0.8l1.3-3.2h0.9l1.2 3.2h-0.8l-0.2-0.7h-1.3zm0.5-1.3h0.9l-0.4-1.3z"/>
	<rect class="st0" x="31.7" y="39.5" width=".7" height=".7"/>
	<path class="st0" d="m34.5 36.9c0.5 0 1.7 0.2 1.7 1.7s-1.2 1.7-1.7 1.7-1.7-0.2-1.7-1.7 1.2-1.7 1.7-1.7m0 2.8c0.4 0 1-0.2 1-1.1s-0.6-1.1-1-1.1-1 0.2-1 1.1 0.6 1.1 1 1.1"/>
	<path class="st0" d="m36.7 37h1.8c0.9 0 1.1 0.6 1.1 0.9 0 0.4-0.2 0.7-0.5 0.8 0.3 0.1 0.4 0.2 0.4 0.8 0 0.5 0 0.6 0.2 0.6v0.1h-0.8c0-0.2-0.1-0.3-0.1-0.6 0-0.4 0-0.6-0.6-0.6h-0.8v1.3h-0.7zm1.6 1.4c0.4 0 0.6-0.1 0.6-0.4 0-0.2-0.1-0.4-0.5-0.4h-0.9v0.9h0.8z"/>
	<path class="st0" d="m41.9 38.4h1.5v1.7h-0.5l-0.1-0.4c-0.2 0.2-0.5 0.5-1.1 0.5-0.8 0-1.6-0.6-1.6-1.7 0-0.9 0.5-1.7 1.7-1.7 1.1 0 1.5 0.6 1.5 1.1h-0.7c0-0.1-0.2-0.5-0.8-0.5-0.5 0-1 0.3-1 1.2s0.5 1.1 1 1.1c0.2 0 0.7-0.1 0.9-0.7h-0.8z"/>
	<path class="st0" d="m84.6 37.7h-0.9v2.3h-0.9v-2.3h-0.8v-0.6h2.7v0.6zm2.6 1.1 0.7-1.8h1.2v3h-0.8v-2l-0.8 2h-0.6l-0.8-2v2h-0.8v-2.9h1.2z"/>
	<path class="st1" d="m93.7 39.7c0 2.6-2.2 4.8-4.8 4.8h-83.2c-2.6 0-4.8-2.2-4.8-4.8v-34c0-2.7 2.1-4.8 4.8-4.8h83.2c2.6 0 4.8 2.2 4.8 4.8z"/>
	<path class="st0" d="m88.9 45.3h-83.2c-3.1 0-5.7-2.5-5.7-5.7v-34c0-3.1 2.5-5.6 5.7-5.6h83.2c3.1 0 5.7 2.5 5.7 5.7v34c-0.1 3.1-2.6 5.6-5.7 5.6m-83.2-43.6c-2.2 0-3.9 1.8-3.9 3.9v34c0 2.2 1.8 3.9 3.9 3.9h83.2c2.2 0 3.9-1.8 3.9-3.9v-34c0-2.2-1.8-3.9-3.9-3.9z"/>
	<polygon class="st0" points="8.3 6.6 8.3 7.5 6.9 7.5 6.9 8.8 5.5 8.8 5.5 5.1 8.7 5.1 8.7 5.9 6.9 5.9 6.9 6.6"/>
	<path class="st0" d="m8.4 8.8 1.5-3.7h1.4l1.5 3.7h-1.3l-0.2-0.5h-1.4l-0.1 0.5zm2.2-2.6-0.4 1.3h0.8z"/>
	<path class="st0" d="m14.3 7.5v1.3h-1.3v-3.7h1.9c1.4 0 1.8 0.3 1.8 1.1 0 0.4-0.2 0.8-0.7 0.9 0.4 0.1 0.7 0.2 0.7 1 0 0.5 0 0.6 0.1 0.6v0.1h-1.4c0-0.1-0.1-0.3-0.1-0.6 0-0.5-0.1-0.6-0.7-0.6h-0.3zm0-0.8h0.5c0.4 0 0.6-0.1 0.6-0.3 0-0.3-0.2-0.4-0.5-0.4h-0.6z"/>
	<polygon class="st0" points="21.9 8.8 20.7 8.8 20.7 7.6 20.7 7.1 20.8 6.4 20.8 6.4 20 8.8 19.1 8.8 18.4 6.4 18.4 6.4 18.4 6.9 18.4 7.5 18.4 8.8 17.2 8.8 17.2 5.1 18.9 5.1 19.6 7.4 20.3 5.1 21.9 5.1"/>
	<polygon class="st0" points="25.6 6.5 25.6 7.3 23.9 7.3 23.9 7.9 26 7.9 26 8.8 22.6 8.8 22.6 5.1 25.9 5.1 25.9 5.9 23.9 5.9 23.9 6.5"/>
	<path class="st0" d="m26.5 8.8v-3.7h1.8c1.3 0 2.1 0.6 2.1 1.8 0 1.4-0.9 1.9-2.2 1.9zm1.3-0.9h0.3c0.6 0 1-0.3 1-1 0-0.8-0.3-1-1-1h-0.3z"/>
	<path class="st0" d="m6.8 13.1v1.3h-1.4v-3.7h1.9c1.4 0 1.8 0.3 1.8 1.1 0 0.4-0.2 0.8-0.7 0.9 0.4 0.1 0.7 0.2 0.7 1 0 0.5 0 0.6 0.1 0.6v0.1h-1.2c0-0.1-0.1-0.3-0.1-0.6 0-0.5-0.1-0.6-0.7-0.6h-0.4zm0-0.9h0.5c0.4 0 0.6-0.1 0.6-0.3 0-0.3-0.2-0.4-0.5-0.4h-0.6z"/>
	<polygon class="st0" points="12.9 12 12.9 12.9 11.2 12.9 11.2 13.5 13.2 13.5 13.2 14.4 9.8 14.4 9.8 10.6 13.2 10.6 13.2 11.5 11.2 11.5 11.2 12"/>
	<path class="st0" d="m15.8 11.7c0-0.1-0.1-0.2-0.2-0.3-0.1 0-0.2-0.1-0.3-0.1-0.3 0-0.4 0.1-0.4 0.2 0 0.6 2.3 0.2 2.3 1.6 0 0.9-0.8 1.3-1.9 1.3s-1.8-0.6-1.8-1.2h1.3c0 0.1 0.1 0.2 0.2 0.3s0.2 0.1 0.4 0.1c0.3 0 0.6-0.1 0.6-0.3 0-0.6-2.3-0.2-2.3-1.6 0-0.8 0.7-1.2 1.8-1.2s1.6 0.5 1.7 1.2z"/>
	<path class="st0" d="m17.6 14.4v-3.7h2c1.2 0 1.7 0.5 1.7 1.2 0 0.8-0.5 1.3-1.7 1.3h-0.6v1.2zm1.9-2.1c0.3 0 0.5-0.1 0.5-0.4s-0.4-0.4-0.7-0.4h-0.3v0.8z"/>
	<path class="st0" d="m25.9 12.5c0 1.3-0.9 2-2.1 2-1.3 0-2.1-0.7-2.1-2 0-1.2 0.9-1.9 2.1-1.9 1.4-0.1 2.1 0.9 2.1 1.9m-2.9 0c0 0.5 0.2 1.1 0.8 1.1s0.8-0.5 0.8-1.1c0-0.5-0.2-1-0.8-1s-0.8 0.5-0.8 1"/>
	<polygon class="st0" points="27.7 12.3 27.7 13.2 27.7 14.4 26.4 14.4 26.4 10.6 27.7 10.6 29.2 12.7 29.1 11.8 29.1 10.6 30.4 10.6 30.4 14.4 29.1 14.4"/>
	<path class="st0" d="m33.1 11.7c0-0.1-0.1-0.2-0.2-0.3-0.1 0-0.2-0.1-0.3-0.1-0.3 0-0.4 0.1-0.4 0.2 0 0.6 2.3 0.2 2.3 1.6 0 0.9-0.8 1.3-1.9 1.3s-1.8-0.6-1.8-1.2h1.3c0 0.1 0.1 0.2 0.2 0.3s0.2 0.1 0.4 0.1c0.3 0 0.6-0.1 0.6-0.3 0-0.6-2.3-0.2-2.3-1.6 0-0.8 0.7-1.2 1.8-1.2s1.6 0.5 1.7 1.2z"/>
	<rect class="st0" x="35" y="10.6" width="1.3" height="3.7"/>
	<path class="st0" d="m37 14.4v-3.7h1.9c0.9 0 1.6 0.2 1.6 0.9 0 0.4-0.3 0.7-0.5 0.8 0.4 0.1 0.7 0.4 0.7 0.8 0 0.8-0.7 1.1-1.8 1.1h-1.9zm1.3-2.9v0.6h0.6c0.3 0 0.5-0.1 0.5-0.3 0-0.3-0.3-0.3-0.5-0.3zm0 1.3v0.7h0.6c0.3 0 0.6-0.1 0.6-0.3 0-0.3-0.3-0.3-0.7-0.3h-0.5z"/>
	<polygon class="st0" points="41.3 14.4 41.3 10.6 42.6 10.6 42.6 13.5 44.4 13.5 44.4 14.4"/>
	<polygon class="st0" points="46.7 10.6 48.2 10.6 46.7 13 46.7 14.4 45.4 14.4 45.4 13 43.8 10.6 45.3 10.6 46 11.9"/>
	<path class="st0" d="m13.4 27.4-0.2-1.1c-1.2 1.1-2.4 1.4-4 1.4-2 0-3.8-1-3.8-3.2 0-4.8 7.5-2.6 7.5-4.6 0-0.8-0.9-0.9-1.4-0.9-0.6 0-1.4 0.1-1.5 1h-4c0-2.2 1.6-3.6 5.8-3.6 5 0 5.3 1.9 5.3 4.4v5c0 0.6 0 0.9 0.6 1.4v0.2zm-0.5-4.7c-1.4 0.7-3.2 0.3-3.2 1.7 0 0.5 0.5 0.9 1.3 0.9 1.5 0 2-1.1 1.9-2.6"/>
	<path class="st0" d="m22.2 24.1c0 0.4 0.2 0.7 0.4 1 0.3 0.2 0.6 0.3 1 0.3 0.6 0 1.3-0.2 1.3-1 0-1.7-6.5-0.3-6.5-4.5 0-2.7 2.8-3.5 5-3.5 2.3 0 5 0.5 5.3 3.3h-3.8c0-0.3-0.2-0.6-0.4-0.8s-0.5-0.3-0.8-0.3c-0.7 0-1.2 0.2-1.2 0.7 0 1.5 6.7 0.5 6.7 4.5 0 2.2-1.8 3.7-5.7 3.7-2.4 0-5.1-0.7-5.3-3.6h4z"/>
	<path class="st0" d="m37.4 20.8c0-0.5-0.2-0.8-0.4-1.1-0.3-0.3-0.6-0.4-1.1-0.4-1.6 0-1.8 1.6-1.8 2.9 0 1.6 0.6 2.6 1.8 2.6 1.1 0 1.5-0.7 1.6-1.6h4.2c-0.2 1.6-0.9 2.7-2 3.4s-2.4 1-3.9 1c-3.4 0-6-1.9-6-5.5s2.5-5.7 6-5.7c2.8 0 5.5 1.2 5.8 4.3h-4.2z"/>
	<path class="st0" d="m8.5 32.1c-0.1-0.3-0.2-0.7-1-0.7-0.5 0-1.1 0.3-1.1 1.5 0 0.8 0.3 1.4 1.1 1.4 0.5 0 0.9-0.3 1-0.8h1c-0.2 0.9-0.8 1.5-2 1.5s-2.1-0.8-2.1-2.2c0-1.5 0.9-2.2 2.1-2.2 1.4 0 1.9 0.9 2 1.5z"/>
	<polygon class="st0" points="11.1 34.2 13.6 34.2 13.6 34.9 10.1 34.9 10.1 30.7 13.5 30.7 13.5 31.5 11.1 31.5 11.1 32.4 13.3 32.4 13.3 33.1 11.1 33.1"/>
	<path class="st0" d="m14.3 30.7h2.3c1.2 0 1.4 0.8 1.4 1.2 0 0.5-0.3 0.9-0.7 1 0.4 0.2 0.6 0.3 0.6 1.1 0 0.6 0 0.8 0.2 0.8v0.1h-1.1c-0.1-0.2-0.1-0.4-0.1-0.8 0-0.6 0-0.8-0.8-0.8h-1v1.6h-0.9v-4.2zm2.1 1.9c0.5 0 0.7-0.2 0.7-0.6 0-0.2-0.1-0.5-0.7-0.5h-1.2v1.1z"/>
	<polygon class="st0" points="22.3 31.5 20.9 31.5 20.9 34.9 19.9 34.9 19.9 31.5 18.5 31.5 18.5 30.7 22.3 30.7"/>
	<rect class="st0" x="22.7" y="30.7" width="1" height="4.2"/>
	<polygon class="st0" points="25.5 32.4 27.5 32.4 27.5 33.2 25.5 33.2 25.5 34.9 24.6 34.9 24.6 30.7 27.8 30.7 27.8 31.5 25.5 31.5"/>
	<rect class="st0" x="28.3" y="30.7" width="1" height="4.2"/>
	<polygon class="st0" points="31.1 34.2 33.6 34.2 33.6 34.9 30.1 34.9 30.1 30.7 33.5 30.7 33.5 31.5 31.1 31.5 31.1 32.4 33.3 32.4 33.3 33.1 31.1 33.1"/>
	<path class="st0" d="m34.3 30.7h2c1.6 0 1.9 1.2 1.9 2 0 0.9-0.4 2.2-1.9 2.2h-2zm1 3.5h0.9c0.8 0 1-0.7 1-1.4 0-1.2-0.6-1.3-1.1-1.3h-0.9v2.7z"/>
	<path class="st0" d="m6.2 40.3h-0.7l1.3-3.2h0.8l1.2 3.2h-0.8l-0.2-0.7h-1.3zm0.5-1.2h0.9l-0.4-1.3z"/>
	<path class="st0" d="m9.7 39.3c0 0.2 0.1 0.5 0.7 0.5 0.3 0 0.7-0.1 0.7-0.4 0-0.2-0.3-0.3-0.6-0.4h-0.3c-0.6-0.2-1.2-0.3-1.2-1 0-0.4 0.2-1 1.4-1 1.1 0 1.4 0.6 1.4 1h-0.7c0-0.1-0.1-0.5-0.7-0.5-0.3 0-0.6 0.1-0.6 0.4 0 0.2 0.2 0.3 0.4 0.3l0.9 0.2c0.5 0.1 0.9 0.3 0.9 0.9 0 1-1.1 1-1.4 1-1.3 0-1.5-0.7-1.5-1.1h0.6z"/>
	<path class="st0" d="m14.6 38.2c-0.1-0.2-0.2-0.6-0.8-0.6-0.4 0-0.9 0.2-0.9 1.1 0 0.6 0.2 1.1 0.9 1.1 0.4 0 0.7-0.2 0.8-0.6h0.7c-0.1 0.7-0.6 1.2-1.5 1.2s-1.6-0.6-1.6-1.7 0.7-1.7 1.6-1.7c1.1 0 1.5 0.7 1.5 1.1h-0.7z"/>
	<rect class="st0" x="15.8" y="38.4" width="1.4" height=".6"/>
	<path class="st0" d="m18.1 40.3h-0.8l1.3-3.2h0.8l1.2 3.2h-0.8l-0.2-0.7h-1.3zm0.5-1.2h0.9l-0.5-1.3z"/>
	<path class="st0" d="m23.8 40.5-0.4-0.4c-0.3 0.2-0.7 0.2-0.9 0.2-0.5 0-1.7-0.2-1.7-1.7s1.2-1.7 1.7-1.7 1.7 0.2 1.7 1.7c0 0.5-0.2 0.9-0.4 1.1l0.4 0.3zm-0.9-1.4 0.4 0.3c0.1-0.2 0.2-0.4 0.2-0.7 0-0.9-0.6-1.1-1-1.1s-1 0.2-1 1.1 0.6 1.1 1 1.1c0.1 0 0.3 0 0.4-0.1l-0.4-0.3z"/>
	<path class="st0" d="m27.6 39.2c0 0.8-0.6 1.2-1.4 1.2-0.3 0-0.8-0.1-1.1-0.4-0.2-0.2-0.3-0.5-0.3-0.8v-2.1h0.8v2.1c0 0.4 0.3 0.6 0.6 0.6 0.5 0 0.7-0.2 0.7-0.6v-2.1h0.8v2.1z"/>
	<path class="st0" d="m28.6 40.3h-0.8l1.3-3.2h0.9l1.2 3.2h-0.8l-0.2-0.7h-1.3zm0.5-1.2h0.9l-0.4-1.3z"/>
	<rect class="st0" x="31.7" y="39.7" width=".7" height=".7"/>
	<path class="st0" d="m34.5 37c0.5 0 1.7 0.2 1.7 1.7s-1.2 1.7-1.7 1.7-1.7-0.2-1.7-1.7 1.2-1.7 1.7-1.7m0 2.8c0.4 0 1-0.2 1-1.1s-0.6-1.1-1-1.1-1 0.2-1 1.1 0.6 1.1 1 1.1"/>
	<path class="st0" d="m36.7 37.1h1.8c0.9 0 1.1 0.6 1.1 0.9 0 0.4-0.2 0.7-0.5 0.8 0.3 0.1 0.4 0.2 0.4 0.8 0 0.5 0 0.6 0.2 0.6v0.1h-0.8c0-0.2-0.1-0.3-0.1-0.6 0-0.4 0-0.6-0.6-0.6h-0.8v1.3h-0.7zm1.6 1.4c0.4 0 0.6-0.1 0.6-0.4 0-0.2-0.1-0.4-0.5-0.4h-0.9v0.9h0.8z"/>
	<path class="st0" d="m41.9 38.6h1.5v1.7h-0.5l-0.1-0.4c-0.2 0.2-0.5 0.5-1.1 0.5-0.8 0-1.6-0.6-1.6-1.7 0-0.9 0.5-1.7 1.7-1.7 1.1 0 1.5 0.6 1.5 1.1h-0.7c0-0.1-0.2-0.5-0.8-0.5-0.5 0-1 0.3-1 1.2s0.5 1.1 1 1.1c0.2 0 0.7-0.1 0.9-0.7h-0.8z"/>
	<path class="st0" d="m84.6 37.8h-0.9v2.3h-0.9v-2.3h-0.8v-0.6h2.7v0.6zm2.6 1.2 0.7-1.8h1.2v2.9h-0.8v-2l-0.8 2h-0.6l-0.8-2v2h-0.8v-2.9h1.2z"/>
	<path class="st2" d="m59.6 44.4h-4.8l-12.1-12.8c-1.1-1.1 0.1-2.1 1.3-3.3s2.1-1.2 3.3-0.2c5.4 4.2 9.5 11.9 9.5 11.9 0.8-12.9 5.5-27.6 19.4-39.1h10.8c-1.1 0.7-3.3 2.5-4 3-19 14.5-20.7 31.1-22 37.5-0.2 1.1-0.4 2.3-1.4 3"/>
	<path class="st0" d="m84.3 15c-0.4-0.2-0.9-0.1-1.1 0.4-0.2 0.4-0.1 1 0.3 1.2s0.9 0.1 1.1-0.4 0.1-1-0.3-1.2"/>
	<path class="st2" d="m89 10.8c-0.1-0.2-0.1-0.4-0.4-0.5-0.1 0-0.2-0.1-0.3 0-6 0.9-11.4 4.9-13.1 10.8-0.3 0.9-0.5 1.8-0.6 2.7s-0.2 1.7-0.2 2.6v2.4c0 0.8 0.1 1.5 0.2 2.2 0 0.8 0 1.7-0.8 2.2-2.8 1.7-9.8 3.2-9.6 4.1 0.2 0.8 3.1 0.6 3.7 0.6 1.5 0 3.1-0.6 4.6-0.3 0.8 0.1 1.5 0.4 2 1 0.4 0.5 1 1.9 1.9 1.5 1.3-0.5 0.4-3.9-0.3-6 4.9-1.7 8.6-3.2 11-7.7 1.3-2.4 2.1-5.2 2.3-7.9 0.1-0.6 0.1-1.2 0.1-1.8 0-1.6 0-3.3-0.2-4.9-0.2-0.3-0.2-0.6-0.3-1m-13.5 20.6c0.3-3.1 1.1-7.9 2.9-11.6 0.1-0.2 0.2-0.5 0.4-0.7 0.2 0.7 0.7 1.3 1.4 1.6 1.1 0.5 2.3 0.2 3-0.7-0.2 1.1 0.4 2.2 1.4 2.7 0.7 0.3 1.4 0.3 2 0-0.3 0.7-0.6 1.4-0.9 2.1-2 3.7-5.7 7.4-9.9 9l-0.1-0.4c-0.3-1.1-0.2-2-0.2-2m11.6-9.7c-0.6 0.2-1.3 0.2-1.9-0.1-1-0.5-1.6-1.5-1.5-2.6v-0.2l-0.1 0.1c-0.7 0.8-1.9 1-2.9 0.6-0.7-0.3-1.1-0.8-1.3-1.5 1.8-2.9 4.4-5.2 8.1-6.6 0.3-0.1 0.9-0.4 1 0.6 0.1 1.6-0.2 5.8-1.4 9.7"/>
</g>
</svg>
