<?xml version="1.0" encoding="UTF-8" standalone="no"?>
<!-- Created with Inkscape (http://www.inkscape.org/) -->
<svg id="svg3938" xmlns:rdf="http://www.w3.org/1999/02/22-rdf-syntax-ns#" xmlns="http://www.w3.org/2000/svg" height="100.05mm" width="98.778mm" version="1.1" xmlns:cc="http://creativecommons.org/ns#" xmlns:dc="http://purl.org/dc/elements/1.1/" viewBox="0 0 98.777779 100.04964">
 <metadata id="metadata3935">
  <rdf:RDF>
   <cc:Work rdf:about="">
    <dc:format>image/svg+xml</dc:format>
    <dc:type rdf:resource="http://purl.org/dc/dcmitype/StillImage"/>
    <dc:title/>
   </cc:Work>
  </rdf:RDF>
 </metadata>
 <g id="layer1" transform="translate(0 -191.66)">
  <g fill="#231f20">
   <path id="path4483" d="m10.536 271.66c-1.0517-1.3-0.8777-2.54-0.8777-2.54l0.87203-0.0785s-0.08544 1.0932 0.66657 2.0295c0.9763 1.2103 2.5306 1.2603 3.6795 0.3311 1.1546-0.93344 1.4857-2.5248 0.51806-3.7266-0.82208-1.0148-2.0524-1.1018-2.0524-1.1018l0.21534-0.84074s1.4587 0.0559 2.5463 1.4045c1.3117 1.6284 0.99054 3.7636-0.58946 5.0424-1.5728 1.2632-3.7166 1.0405-4.9783-0.52376"/>
   <path id="path4485" d="m6.876 266.2-1.9281-3.5395 0.73781-0.40541 1.4629 2.6789 1.9126-1.0362-1.1875-2.1836 0.74226-0.40966 1.1875 2.1894 1.9595-1.0705-1.5386-2.8245 0.73797-0.40537 2.0095 3.678z"/>
   <path id="path4487" d="m5.701 255.6c-0.24691-0.71081-0.85345-1.0091-1.5871-0.7608-0.48661 0.16717-0.76635 0.47111-0.83345 0.86349-0.03648 0.21007-0.020267 0.44679 0.14693 0.95626l0.36671 1.062 2.3522-0.79367zm-2.3992 3.3141-0.6794-2.0095c-0.23274-0.68369-0.27403-0.99768-0.27119-1.2846 0.028373-0.75363 0.54093-1.4116 1.4088-1.7042 0.84062-0.28698 1.7027-0.0611 2.1765 0.58234l0.016213-0.009s0.058667-0.104 0.23274-0.29548l2.0824-2.2664 0.35255 1.0447-2.1481 2.2722 0.47807 1.413 2.6161-0.88918 0.31127 0.92343z"/>
   <path id="path4489" d="m1.5684 249.41 0.38817 2.3449-0.83649 0.13559-0.93056-5.6562 0.83503-0.13843 0.38372 2.3578 6.016-0.99754 0.15826 0.96184z"/>
   <path id="path4491" d="m0.032427 242.97-0.032427-0.98l6.9464-0.20279 0.020267 0.97197z"/>
   <path id="path4493" d="m0.10083 237.33 0.40396-3.8078 0.83791 0.0911-0.29953 2.836 2.2693 0.24244 0.25541-2.4149 0.84204 0.0927-0.25986 2.4135 2.9574 0.31249-0.10283 0.97057z"/>
   <path id="path4495" d="m1.2046 230.06 0.22425-0.9463 6.7567 1.6014-0.22707 0.93772z"/>
   <path id="path4497" d="m2.5734 225.1 1.4372-3.7636 0.78634 0.30398-1.0904 2.8544 2.0338 0.7808 0.88203-2.3308 0.79366 0.30681-0.88789 2.3251 2.0839 0.79492 1.1503-3.0115 0.78922 0.30114-1.5 3.9192z"/>
   <path id="path4499" d="m12.158 218.86c0.8192-1.3331 0.56517-2.6846-0.89632-3.5709-1.4543-0.88919-2.7646-0.48536-3.5824 0.83917l-0.65511 1.0789 4.4815 2.7289zm-6.3584-1.2689 1.1975-1.9652c1.1075-1.8112 2.9129-2.3365 4.7884-1.1975 1.8769 1.1475 2.2437 3.0043 1.1332 4.817l-1.2003 1.9624z"/>
   <path id="path4501" d="m17.564 210.58s1.0505 0.0284 1.7897-0.69081c0.46824-0.45524 0.60946-1.0989 0.15138-1.5699-1.0405-1.0819-3.2342 1.4915-4.72-0.0442-0.74922-0.78367-0.6737-2.0438 0.26392-2.953 0.93201-0.89214 1.9011-0.86931 1.9011-0.86931l0.24245 0.89202s-0.87486 0.0162-1.5114 0.628c-0.53235 0.50964-0.58229 1.2032-0.20278 1.6014 0.99912 1.032 3.1514-1.58 4.7113 0.0404 0.7508 0.76923 0.76934 1.9796-0.21816 2.9373-1.0647 1.0206-2.2921 0.94344-2.2921 0.94344z"/>
   <path id="path4503" d="m19.587 201.52 0.80221-0.54664 2.4992 3.7223c0.59372 0.88062 1.5114 1.009 2.3935 0.42096 0.88632-0.59941 1.1246-1.5029 0.51948-2.4006l-2.4877-3.7009 0.80921-0.53947 2.4991 3.7138c0.85349 1.2817 0.51535 2.7589-0.83633 3.6638-1.346 0.89914-2.8446 0.66799-3.7009-0.61517z"/>
   <path id="path4505" d="m30.126 201.41s0.97201 0.38696 1.9196-0.0284c0.59805-0.25986 0.95489-0.81508 0.6894-1.4131-0.60658-1.3787-3.5552 0.2639-4.4115-1.6841-0.43112-0.99194 0.07413-2.1523 1.2744-2.6761 1.1776-0.51677 2.0825-0.14854 2.0825-0.14854l-0.08416 0.91489s-0.82062-0.28982-1.6357 0.0615c-0.67228 0.29548-0.96771 0.93343-0.7421 1.4372 0.57804 1.3174 3.4996-0.38979 4.4045 1.6699 0.4282 0.98471 0.03243 2.1252-1.2275 2.6761-1.3544 0.59375-2.4763 0.0898-2.4763 0.0898z"/>
   <path id="path4507" d="m36.86 194.1-2.3051 0.58518-0.20966-0.8222 5.5548-1.4101 0.21291 0.81921-2.3108 0.58229 1.5043 5.9075-0.93902 0.24529z"/>
   <path id="path4509" d="m44.739 192.8s-0.09995 0.6437-0.18134 1.009l-0.56663 2.2609 2.0924-0.19833-0.97059-2.1152c-0.14976-0.34243-0.357-0.95914-0.357-0.95914zm1.6798 3.855-2.6104 0.23963-0.49677 2.0582-0.99754 0.0911 1.8353-7.1448 1.0134-0.0972 3.1428 6.6767-1.0077 0.0972z"/>
   <path id="path4511" d="m50.979 191.66 0.97059 0.0425-0.2882 6.9294-0.97196-0.0469z"/>
   <path id="path4513" d="m56.204 192.02 0.9463 0.187 2.1594 5.0281c0.17405 0.41395 0.37401 1.0934 0.37401 1.0934l0.0162 0.003s0.05141-0.61941 0.12427-0.99483l0.88203-4.4274 0.95484 0.187-1.3459 6.8036-0.94059-0.1785-2.168-5.0167c-0.17404-0.4297-0.36954-1.1034-0.36954-1.1034l-0.02027-0.004s-0.04853 0.62086-0.12872 1.0062l-0.86758 4.423-0.9563-0.19105z"/>
   <path id="path4515" d="m67.545 196.13s-0.38251 0.52378-0.62658 0.80351l-1.5442 1.7526 1.9424 0.78649 0.12264-2.328c0.02433-0.36794 0.12548-1.009 0.12548-1.009zm-0.29548 4.1875-2.4149-0.98199-1.3929 1.5871-0.92632-0.37684 4.9241-5.4864 0.95055 0.38251-0.29953 7.3704-0.93914-0.38817z"/>
   <path id="path4517" d="m74.307 201.82c0.53089 0.33959 1.1004 0.17567 1.4258-0.33393 0.32705-0.51948 0.23152-1.0675-0.33273-1.4215l-1.2159-0.77079-1.1033 1.7542zm-1.6 2.746c0.63228 0.40683 1.256 0.23679 1.63-0.3655 0.38129-0.59372 0.24124-1.2517-0.374-1.6412l-1.3173-0.83078-1.2617 2.004zm1.1062-6.5069 2.0524 1.2988c0.98771 0.62516 1.3573 1.6214 0.76497 2.5691-0.36672 0.57659-0.93902 0.85203-1.5301 0.79921l-0.01216 0.0203c0.49806 0.56659 0.47952 1.3688 0.0656 2.0238-0.6979 1.1134-1.9154 1.1419-2.9444 0.48965l-2.1009-1.3331 3.7038-5.8689z"/>
   <path id="path4519" d="m80.925 203.02 0.73227 0.64369-4.0534 4.5558 2.3151 2.0652-0.56392 0.62658-3.0429-2.7032z"/>
   <path id="path4521" d="m86.312 208.23 2.5519 3.1171-0.65087 0.53806-1.9381-2.3649-1.6785 1.3858 1.5785 1.9183-0.6594 0.53234-1.5757-1.9183-1.7212 1.4102 2.0438 2.492-0.65228 0.53518-2.6618-3.2328z"/>
   <path id="path4523" d="m91.143 222.17c0.34405 0.75509 1.0275 1.0006 1.7883 0.65515 0.76205-0.35416 0.99326-1.0234 0.64941-1.7698l-0.58946-1.2874-2.4392 1.1204zm2.2107-3.6452 1.0562 2.3093c0.5266 1.1519 0.1356 2.3394-1.062 2.8888-1.196 0.55231-2.3864 0.0927-2.9116-1.0591l-0.658-1.4158-2.3306 1.0676-0.40112-0.88502z"/>
   <path id="path4525" d="m96.017 228.15s-0.64658 0.0162-1.0205 0l-2.3249-0.16837 0.5566 2.0252 1.9181-1.3187c0.30964-0.20724 0.87931-0.51823 0.87931-0.51823zm-3.5054 2.3194-0.68795-2.5234-2.1024-0.13277-0.26553-0.9733 7.3532 0.58229 0.27119 0.9776-6.0387 4.2434-0.26553-0.97059z"/>
   <path id="path4527" d="m98.303 234.51 0.08864 0.96767-6.063 0.59088 0.29953 3.09-0.83791 0.0814-0.39505-4.0578z"/>
   <path id="path4529" d="m98.778 242.06-0.08821 1.022-3.8707 1.2803c-0.39546 0.12265-0.96055 0.26554-0.96055 0.26554v0.0243s0.53235 0.2299 0.90203 0.41541l3.6138 1.8939-0.08011 1.0148-6.965-0.004 0.08011-0.95631 4.383 0.0122c0.42537 0 1.0234 0.07 1.0234 0.07v-0.0162s-0.6237-0.25824-0.98767-0.45536l-3.0058-1.6356 0.07125-0.86203 3.227-1.1176c0.38251-0.12831 1.0705-0.2882 1.0705-0.2882v-0.0203s-0.61659-0.0442-1.0405-0.1056l-4.3275-0.68087 0.07573-0.96913z"/>
   <path id="path4531" d="m89.497 256.9c-0.51803 1.3158 0.15867 2.8187 1.61 3.3925 1.4044 0.55817 2.8873-0.0798 3.4069-1.3973 0.52376-1.3174-0.10726-2.8032-1.52-3.3726-1.4516-0.56518-2.9731 0.0643-3.4969 1.3774m5.8404 2.3221c-0.73938 1.8654-2.7446 2.7375-4.6029 2.001-1.8969-0.76063-2.8074-2.7818-2.0624-4.6542 0.73356-1.8569 2.7946-2.7232 4.697-1.974 1.8526 0.73938 2.7061 2.7675 1.9683 4.6272"/>
   <path id="path4533" d="m91.998 265.82-0.50106 0.83346-5.9559-3.5481 0.49949-0.83916z"/>
   <path id="path4535" d="m88.897 270.54-0.60945 0.7578-4.7556-3.8107-1.9426 2.4178-0.65653-0.52389 2.5491-3.1784z"/>
  </g>
  <g fill="#f78f1e">
   <g>
    <path id="path4537" d="m34.472 283.77c0.72081 0.24853 1.316 0.003 1.5743-0.73651 0.23963-0.69782 0.11981-1.1975-1.0176-1.5927l-0.76508-0.26837-0.77638 2.2521zm-1.8026-5.3193 3.2228 1.1075c0.94771 0.32543 1.3787 0.54659 1.7269 0.8449 0.9106 0.76364 1.2432 1.9397 0.78063 3.2884-0.33797 0.98484-1.1775 1.8926-2.2578 2.0411l-0.0085 0.0243s0.07008 0.2198 0.15704 0.68227l0.68369 3.8593-2.5291-0.86775-0.56517-3.6936-1.0661-0.3655-1.0762 3.1227-2.2664-0.78351z"/>
    <path id="path4539" d="m41.445 287.98s0.98484 1.136 2.2066 1.2746c0.49519 0.0587 1.0448-0.0643 1.1118-0.65516 0.13843-1.1546-4.2475-1.6271-3.8992-4.6286 0.21573-1.7912 1.8626-2.8002 3.7994-2.569 2.0938 0.2469 2.9986 1.4701 2.9986 1.4701l-1.2389 1.8269s-0.87773-0.97483-2.0495-1.1118c-0.48818-0.0526-1.0562 0.0999-1.1219 0.64357-0.14531 1.2231 4.2618 1.52 3.9051 4.5944-0.19267 1.6171-1.5971 2.876-3.7894 2.6234-2.2835-0.27119-3.3869-1.8098-3.3869-1.8098z"/>
    <path id="path4541" d="m53.91 286.32c0.83078-0.0814 1.1918-0.67798 1.1219-1.4531-0.07285-0.77493-0.53247-1.2759-1.3217-1.2003l-1.2117 0.1056 0.23962 2.6475zm-3.9892-4.3732 4.0563-0.37117c1.8969-0.17 3.3041 1.1034 3.4826 3.0657 0.17971 1.9726-0.97343 3.4983-2.8745 3.6767l-1.6641 0.15705 0.27404 3.0116-2.3878 0.22141z"/>
    <path id="path4543" d="m65.091 286.99c1.3888-0.47377 2.0939-2.0495 1.5528-3.6323-0.51802-1.5158-2.0266-2.2807-3.4139-1.7969-1.3859 0.47394-2.1095 1.9925-1.59 3.5097 0.54518 1.5827 2.0624 2.3963 3.451 1.9195m-2.5676-7.5073c2.8003-0.96488 5.5578 0.41396 6.4712 3.07 0.9306 2.7289-0.39262 5.5549-3.1928 6.514-2.8003 0.95902-5.5805-0.47106-6.5096-3.1914-0.91202-2.6604 0.42808-5.4364 3.2313-6.3927"/>
   </g>
   <path id="path4545" d="m24.002 279.05-2.5234 0.40668-0.40667-2.5219 2.5219-0.3995z" fill-rule="evenodd"/>
   <path id="path4547" d="m77.867 278.96-2.5276-0.357 0.35254-2.5234 2.529 0.34971z" fill-rule="evenodd"/>
  </g>
  <g>
   <path id="path4549" d="m83.208 232.71c-0.91343-3.4896-2.3422-6.2827-4.3261-8.5777-0.42537-0.4939-0.73935-1.0677-1.1575-1.4659-3.5481-3.4125-8.1739-5.8688-13.132-7.4959 4.443 0.16716 8.2153 1.0419 10.66 3.1643 0.99912 0.87204 1.286 2.1437 2.3178 3.0215-0.10848-0.84508-0.59941-1.5843-1.0832-2.2437-0.45395-0.6223-1.0377-1.2303-1.5443-1.7755-3.2512-3.541-7.4659-5.8875-13.676-6.1844 1.2103-0.38655 2.0324-0.77779 3.267-0.65512 1.2874 0.104 2.9574 1.2831 2.9915 1.2831 0.03243 0-0.02433-0.27687-0.32543-0.53519-0.54821-0.4709-0.9106-0.69223-0.9106-0.69223-1.1019-0.7264-2.1125-1.1903-2.8446-1.4801-2.0667-0.85203-4.5329-1.3103-6.9022-0.62658-0.23274 0.0587-0.45682 0.14411-0.67939 0.22262 0-0.0611 0.05867-0.0785 0.07403-0.14409 0.25702-0.45823 0.56517-0.84491 0.92056-1.1603 0.07573-0.0643 0.34811-0.15544 0.23274-0.30682-1.336-0.21979-3.8222-1.0191-5.4064-0.77226-1.0377 0.15706-1.3888 0.92919-2.0111 1.4674-0.49377-0.75079-1.1632-1.4559-2.235-1.5472-1.3446-0.1101-3.3141 0.34243-4.5615 0.65499 0 0-0.41396 0.10848-0.55518 0.12427-0.04288 0.004-0.11698 0.0404-0.11698 0.0898 0 0.0469 0.08011 0.0526 0.11698 0.07 0.03637 0.0284 0.28819 0.12547 0.42237 0.22828 0.39263 0.30681 0.67511 0.83637 0.74939 1.1518-4.8527-1.0591-7.9598 0.36956-10.54 1.864-0.29103 0.17244-0.57517 0.30398-1.0618 0.84492-0.04576 0.053-0.13155 0.24528-0.13155 0.33959 0 0.0324 2.0468-1.296 3.3669-1.3188 1.6128-0.0203 3.0857 0.83361 3.1171 0.81508-4.366 0.0284-7.9413 1.1518-10.667 3.0186-2.2394 1.5357-4.4944 3.7136-5.7946 6.1029-0.16392 0.29953-0.59375 0.77352-0.31126 1.1646 0.96484-1.1148 1.4457-2.4392 2.552-3.404 2.5904-2.2694 6.6624-3.1086 11.437-2.9344-8.8804 2.6275-16.024 7.2861-19.164 15.607-1.0447 2.7732-1.9595 6.0273-1.6227 9.8096 0.30964-0.1785 0.26107-0.6437 0.3056-0.92056 0.18821-1.0919 0.21695-2.2794 0.38817-3.3198 0.7408-4.4986 2.7746-7.1135 5.5663-9.5112 3.5453-3.0444 8.0982-5.3207 13.211-6.8008-5.1296 3.5196-9.9037 7.7485-13.519 12.981-3.5467 5.1409-6.2058 11.965-5.258 20.785 0.41824-0.24246 0.31409-0.81208 0.38412-1.1546 0.09835-0.48235 0.15988-0.95625 0.23395-1.3901 1.052-6.1972 3.9435-11.084 7.2647-14.989 3.8894-4.5744 8.5064-8.4665 13.673-11.745-3.9135 5.2266-7.6444 11.181-10.35 17.925-2.2164 5.5362-4.2361 13.734-3.3226 21.617 0.11576 1.0148 0.08587 2.2437 0.77367 2.7746 0.62799-0.69211 0.80492-1.6984 1.0034-2.5433 0.22991-0.99196 0.374-2.5891 0.61642-3.534 2.8489-11.24 8.0312-20.637 13.754-28.896 0.94488-1.366 1.9111-2.7432 3.0172-3.9478-1.6043 6.8022-3.2241 14.471-4.0206 22.334-0.68215 6.7352-0.93044 15.734 0.37117 21.886 0.17689 0.82062 0.18417 1.874 1.0091 2.3121 1.1946-1.3529 1.2646-3.5609 1.6343-5.345 2.7816-13.388 4.8711-27.323 8.191-39.946 2.4919 10.856 4.3802 22.716 6.2585 34.304 0.47094 2.9031 0.81921 5.9489 1.4672 8.6592 0.19389 0.79633 0.25702 1.8612 1.0791 2.3192 0.69924-0.52377 0.80922-1.4272 1.0061-2.2464 0.65374-2.6904 0.90203-5.6849 1.0834-8.809 0.76921-13.035-1.5843-25.006-3.7095-35.467 6.7281 9.4954 13.175 20.078 15.997 33.379 0.30964 1.4772 0.46682 3.1156 0.85062 4.4815 0.09995 0.36834 0.21857 0.97343 0.69656 1.0847 0.9106-1.6527 0.90202-3.9021 0.99913-6.0316 0.33677-6.9607-1.1775-13.061-3.0086-17.925-1.2717-3.3698-2.8003-6.5838-4.4832-9.5725-1.7226-3.0715-3.6081-5.9189-5.4107-8.5864 4.9997 3.384 9.4784 7.3518 13.215 11.979 1.8726 2.305 3.6209 4.7913 4.8698 7.7271 1.2644 2.9715 1.8767 5.5064 2.3621 9.3528 0.49665-0.25418 0.39101-0.98199 0.4295-1.3915 0.71085-8.5722-1.8624-14.431-5.1109-19.239-3.6924-5.4621-8.662-9.8608-13.756-13.368 5.1252 1.4886 9.8823 3.574 13.446 6.641 1.7969 1.55 3.4183 3.3669 4.4032 5.6449 0.92485 2.1466 0.99484 4.7856 1.3158 7.4959 0.03232 0.31693-0.0085 0.78079 0.30681 0.99767 0.48395-2.9915-0.08139-5.3878-0.69782-7.7244" fill="#2ca243"/>
   <path id="path4551" d="m89.471 193.02h-1.6513v-0.78067h4.2104v0.78067h-1.6556v4.2375h-0.90345z" fill="#231f20"/>
   <path id="path4553" d="m92.928 192.24h0.98055l0.97901 2.4747c0.11293 0.29831 0.25419 0.73939 0.25419 0.73939h0.01622s0.13559-0.44095 0.24691-0.73939l0.98896-2.4747h0.97201l0.40234 5.0182h-0.90631l-0.21291-2.8103c-0.02027-0.32948-0.0043-0.77776-0.0043-0.77776h-0.01622s-0.14976 0.4909-0.26998 0.77776l-0.81212 1.9526h-0.79921l-0.80505-1.9526c-0.11981-0.28698-0.27848-0.78922-0.27848-0.78922h-0.0162s0.0162 0.45953-0.0043 0.78922l-0.21249 2.8103h-0.91631l0.41395-5.0182z" fill="#231f20"/>
  </g>
 </g>
</svg>
