<?xml version="1.0" encoding="UTF-8"?>
<svg width="500" height="797.19" version="1.1" viewBox="0 0 500 797.17762" xml:space="preserve" xmlns="http://www.w3.org/2000/svg" xmlns:cc="http://creativecommons.org/ns#" xmlns:dc="http://purl.org/dc/elements/1.1/" xmlns:rdf="http://www.w3.org/1999/02/22-rdf-syntax-ns#"><metadata><rdf:RDF><cc:Work rdf:about=""><dc:format>image/svg+xml</dc:format><dc:type rdf:resource="http://purl.org/dc/dcmitype/StillImage"/><dc:title/></cc:Work></rdf:RDF></metadata><g stroke-width="7.9918"><path d="m389.59 216.26s-8.5113-19.029-43.156-28.307c0.43156 13.386-1.6463 34.78-16.543 49.877-8.6152 8.7191-20.043 13.778-34.077 15.272 23.528 13.762 95.558 44.762 145.39-19.036 15.664-20.051 39.256-84.362-25.278-135.94-3.86 8.3035-10.797 16.767-22.505 23.552 39.591 58.404-3.8281 94.583-3.8281 94.583" fill="#0058a5"/><path d="m284.26 92.551c4.5793 0 8.823 1.4146 12.331 3.8201-8.2955 1.8062-14.513 9.1826-14.513 18.022 0 8.839 6.2176 16.215 14.513 18.014-3.5084 2.4055-7.7521 3.8201-12.331 3.8201-12.06 0-21.842-9.774-21.842-21.834 0-12.068 9.782-21.842 21.842-21.842m91.115-42.189c-4.3396 0-8.4234 1.023-12.084 2.8051 0.36762-1.902 0.57541-3.868 0.57541-5.882 0-16.991-13.778-30.768-30.768-30.768-9.3584 0-17.726 4.1877-23.368 10.781-3.1887-15.584-16.975-27.3-33.494-27.3-18.469 0-33.486 14.657-34.125 32.974-129.58 4.4834-233.27 110.87-233.27 241.54 0 9.5422 0.61537 18.933 1.6943 28.187 19.9 1.7342 64.366 2.0219 93.632-24.887l-23.967-61.241s32.846-7.4004 70.624 13.178c-7.3764-23.975-14.625-46.241-14.625-46.241s52.618-16.463 123.18 42.453c7.6482 6.3775 17.614 9.9019 28.283 10.158 53.194-0.0799 42.053-58.78 37.913-69.025 2.2057 0.11988 35.979 0.96701 61.201 20.723 12.443-25.758 0.15184-44.307-10.813-60.866-0.89508-1.3426-1.7582-2.6533-2.5973-3.932l-5.7062-8.783 9.6701-4.0199c16.463-6.841 22.393-16.287 24.375-23.6 0.8791-2.6932 1.3666-5.5703 1.3666-8.5592 0-15.288-12.403-27.692-27.7-27.692" fill="#f39325"/><path d="m153.51 362.67c-4.0119 0-7.7361-1.2387-10.813-3.3486 7.2726-1.5824 12.731-8.0558 12.731-15.808 0-7.7521-5.4584-14.225-12.731-15.808 3.0768-2.1098 6.801-3.3486 10.813-3.3486 10.581 0 19.156 8.5752 19.156 19.156 0 10.581-8.5752 19.156-19.156 19.156m102.82-116.35c-47.431-41.805-81.732-48.582-97.34-49.07 3.0768 9.7021 21.034 68.514 21.034 68.514l-19.164-11.197c-24.095-14.082-43.444-19.044-55.152-20.763l18.837 48.135s-29.01 48.382-124.55 38.233c4.0758 26.868 12.619 52.258 24.767 75.467l74.771 6.3375-48.462 8.8549c36.203 52.898 92.865 90.675 158.63 101.9-1.1188-16.303-1.1029-48.534 10.821-85.496 13.634-42.277 45.793-97.812 121.2-136.36-28.219-6.7771-62.04-23.975-85.393-44.554" fill="#d4215d"/></g><g fill="#0058a5" stroke-width="7.9918"><path d="m410.45 639.67 17.102-46.528h0.42356l19.34 46.528zm-192.16-21.242h-6.1857v-38.688h5.3625c16.863 0 28.411 2.3656 28.411 18.845 0 16.623-9.6941 19.844-27.588 19.844m-84.849 49.901c-12.987 0-23.88-8.807-28.003-18.645l-13.21 10.661-22.169-27.308c14.026-1.934 23.544-10.014 28.251-20.075 6.1297 7.3205 16.151 11.932 28.123 16.016 12.14 3.884 26.964 7.6242 26.964 20.875 0 9.8379-7.6162 18.477-19.956 18.477m-90.371-50.412h-3.916v-38.521h4.1158c16.064 0 28.195 3.0529 28.195 18.845 0 15.616-11.724 19.676-28.395 19.676m398.06-62.296h-23.464l-46.584 101.18c-8.1996 5.9299-19.036 9.8539-29.865 9.8539-28.203 0-45.489-21.546-45.489-43.116 0-22.073 16.671-44.139 45.689-44.139 12.963 0 25.734 5.0748 34.165 13.578v-29.881c-10.509-4.7471-22.425-7.4724-34.573-7.4724-29.226 0-52.482 13.25-65.413 32.351-4.8031-20.955-24.471-28.954-52.578-28.954h-41.174v73.389c-12.068-26.916-58.708-22.529-58.708-41.302 0-8.3115 9.2545-14.433 18.925-14.433 10.094 0 17.502 4.0838 23.272 10.525l14.193-17.294c-9.4623-8.6711-28.603-14.281-42.405-14.281-18.693 0-33.749 8.743-40.862 21.482-8.1996-12.619-24.974-18.085-46.392-18.085h-40.982v128h30.265v-51.595h0.41557l37.657 51.595h36.299c6.0338 2.2137 12.731 3.4125 20.107 3.4125 24.615 0 41.773-10.949 48.215-27.867v24.455h30.257v-47.855h15.025c16.367 0 29.034-3.5484 37.482-10.685 2.5494 33.446 33.957 61.953 75.786 61.953 7.9918 0 15.48-1.3186 22.801-3.4125h25.87l12.755-26.98h53.921l11.956 26.98h32.295z" fill-rule="evenodd"/><path d="m320.06 453.86c-2.8371 2.8371-6.3535 4.5953-10.022 5.2746 4.0279-6.2656 3.3086-14.697-2.1738-20.179-5.4824-5.4824-13.914-6.2016-20.179-2.1738 0.6873-3.6682 2.4375-7.1766 5.2826-10.014 7.4803-7.4803 19.612-7.4803 27.092 0s7.4803 19.612 0 27.092m172.28-179.38c0-32.063-6.2416-62.664-17.574-90.659l-0.016 0.032c-0.99898 26.157-9.6701 45.961-19.108 59.963-19.196 28.475-46.848 38.241-74.516 48.63-75.954 31.08-123.22 75.595-144.04 140.13-8.775 27.196-10.525 51.723-10.389 68.026h17.806v15.472c2.0379 0.048 4.0598 0.14386 6.0978 0.14386 39.631 0 77.009-9.5662 110.01-26.477 14.745-10.182 24.439-27.148 24.439-46.424 0-27.716-19.996-50.724-46.337-55.495 3.1967-0.60738 6.4894-0.95103 9.8619-0.95103 29.146 0 52.778 23.624 52.778 52.77 0 12.028-4.0598 23.072-10.837 31.935 15.28-10.877 29.25-23.48 41.613-37.538 42.828 6.3056 51.931-28.771 51.931-28.771l-22.705-12.411c19.7-34.996 30.984-75.355 30.984-118.37"/><path d="m44.906 743.16c-0.81516-2.3096-1.91-5.1707-2.5893-8.0318h-0.27172c-0.6793 2.8611-1.6303 5.85-2.4535 8.0318l-5.85 16.072h17.023zm18.381 52.155-7.2166-19.604h-27.644l-7.2166 19.604h-19.884l34.181-87.558h14.577l34.173 87.558z"/><path d="m111.24 796.55c-9.806 0-19.204-2.8611-24.375-5.9939l-2.0459-19.74c7.0808 4.899 16.343 8.3035 25.062 8.3035 7.4883 0 12.251-3.4045 12.251-8.7191 0-5.0348-3.1328-7.8959-11.165-10.07-17.023-4.6352-24.918-14.026-24.918-27.236 0-14.433 10.757-26.013 29.546-26.013 9.9418 0 18.253 2.8611 21.794 4.907l-3.8201 17.015c-3.5404-2.0379-10.485-4.4914-16.471-4.4914-7.3525 0-10.757 3.2686-10.757 7.4963 0 4.3555 3.6762 6.6732 10.349 8.5752 16.607 4.6273 26.549 13.21 26.549 28.595 0 16.751-10.893 27.372-31.999 27.372"/><path d="m173.57 796.55c-9.806 0-19.204-2.8611-24.375-5.9939l-2.0459-19.74c7.0807 4.899 16.343 8.3035 25.062 8.3035 7.4883 0 12.251-3.4045 12.251-8.7191 0-5.0348-3.1328-7.8959-11.165-10.07-17.023-4.6352-24.918-14.026-24.918-27.236 0-14.433 10.757-26.013 29.546-26.013 9.9418 0 18.253 2.8611 21.794 4.907l-3.8201 17.015c-3.5404-2.0379-10.485-4.4914-16.471-4.4914-7.3525 0-10.757 3.2686-10.757 7.4963 0 4.3555 3.6762 6.6732 10.349 8.5752 16.607 4.6273 26.549 13.21 26.549 28.595 0 16.751-10.893 27.372-31.999 27.372"/><path d="m248.54 797.19c-20.699 0-37.586-12.124-37.586-33.094v-55.695h21.106v54.2c0 10.349 6.6732 16.343 16.751 16.343 9.9418 0 16.751-5.9939 16.751-16.343v-54.2h20.699v55.695c0 20.835-16.887 33.094-37.721 33.094"/><path d="m322.06 725.42h-8.3035v19.476h8.3035c5.4504 0 10.893-2.9969 10.893-9.6701 0-6.5373-5.4424-9.806-10.893-9.806m20.563 69.856-23.288-34.181h-5.5783v34.181h-20.291v-86.879h31.728c14.841 0 28.051 9.9418 28.051 26.285 0 10.07-5.9939 18.381-13.346 21.786l27.644 38.808z"/><path d="m365.78 795.27v-86.879h49.837v17.294h-29.138v17.158h23.967v17.702h-23.967v17.43h33.222v17.294z"/><path d="m450.73 725.74h-6.809v52.426h6.809c14.977 0 27.372-8.7111 27.372-26.141 0-17.43-12.259-26.285-27.372-26.285m2.0459 69.585h-29.282v-86.879h29.282c24.918 0 46.568 16.343 46.568 43.444 0 26.964-21.514 43.436-46.568 43.436"/></g></svg>
