<?xml version="1.0" encoding="UTF-8" standalone="no"?>
<svg
   xmlns:dc="http://purl.org/dc/elements/1.1/"
   xmlns:cc="http://creativecommons.org/ns#"
   xmlns:rdf="http://www.w3.org/1999/02/22-rdf-syntax-ns#"
   xmlns:svg="http://www.w3.org/2000/svg"
   xmlns="http://www.w3.org/2000/svg"
   version="1.1"
   id="svg2"
   xml:space="preserve"
   width="145"
   height="90"
   viewBox="0 0 145 89.999992"><metadata
     id="metadata8"><rdf:RDF><cc:Work
         rdf:about=""><dc:format>image/svg+xml</dc:format><dc:type
           rdf:resource="http://purl.org/dc/dcmitype/StillImage" /><dc:title></dc:title></cc:Work></rdf:RDF></metadata><defs
     id="defs6" /><g
     id="g10"
     transform="matrix(1.3333333,0,0,-1.3333333,-0.41406266,125.82293)"><g
       id="g12"
       transform="scale(0.1)"><path
         d="m 43.531711,910.90005 c 29.895495,-57.82701 100.897069,-57.82701 160.006989,-60.2082 114.14641,2.38119 242.55938,7.82208 308.12461,-94.56259 19.02526,-34.35887 24.12214,-74.15991 25.82004,-115.65914 l 0.1125,-371.79812 h -30.34798 c 0.31774,103.73657 -10.19055,167.69962 -77.79569,214.6423 -22.76115,17.00757 -48.00712,18.78321 -79.15418,24.15177 C 253.7532,524.10878 137.634,488.75774 61.196475,561.21178 9.5580685,610.535 3.0480381,681.96935 3.3876493,753.06316 L 3.10547,929.27104 c 2.0376667,6.1194 3.7357224,11.90594 10.190846,13.94147 22.08217,4.08387 21.742591,-20.06726 30.235395,-32.31246"
         style="fill:#231f20;fill-opacity:1;fill-rule:nonzero;stroke:none;stroke-width:0.63968593"
         id="path52" /><path
         d="m 1090.6055,908.58928 -0.058,-207.56979 c -1.7,-66.67325 -33.2926,-134.36427 -94.43859,-165.31907 -89.68931,-42.18158 -210.28722,-7.14356 -304.73266,-27.21467 -62.17011,-22.11111 -122.63844,-77.21704 -123.9969,-148.65139 -1.01899,-2.38055 -3.39834,-1.02033 -5.09689,-1.36022 l -0.39441,2.04001 -0.28449,342.54599 c 7.47368,56.12882 47.56027,104.09183 99.1965,127.21879 21.4027,8.16773 44.84465,14.28713 67.9414,16.66831 l 278.23504,1.02417 c 37.0263,3.39895 69.6418,31.97321 80.1705,65.30983 4.7562,-0.33925 2.0968,-0.94735 3.4585,-4.69196"
         style="fill:#1a5dad;fill-opacity:1;fill-rule:nonzero;stroke:none;stroke-width:0.63968593"
         id="path54" /><path
         d="m 1080.3516,784.0186 c -4.4109,-19.0495 -15.2849,-35.37856 -33.6254,-44.89691 -16.9918,-8.50954 -36.0164,-11.22998 -55.71864,-11.91041 l -204.16944,1.02032 c -1.01643,35.71974 -1.01643,75.51501 0,108.51238 l 218.77678,0.67851 c 30.2373,3.0661 59.1705,17.69248 75.1331,43.54629 l -0.3964,-96.95018"
         style="fill:#ffffff;fill-opacity:1;fill-rule:nonzero;stroke:none;stroke-width:0.63968593"
         id="path56" /><path
         d="m 199.12072,820.07567 c 102.25793,-6.80431 228.63355,17.34682 283.32868,-83.33772 34.8823,-45.85003 20.44381,-131.74113 23.44005,-292.88224 v -2.38054 c -22.4217,59.18723 -85.94895,93.20493 -146.07976,98.64581 -63.86671,3.74333 -133.50985,6.80367 -195.33666,8.50379 C 106.71965,552.3681 61.196475,600.3311 44.890155,653.05713 26.438771,742.76389 35.780585,861.82327 33.340819,873.48596 70.368308,821.09984 138.653,823.13537 199.12072,820.07567"
         style="fill:#17ae65;fill-opacity:1;fill-rule:nonzero;stroke:none;stroke-width:0.63968593"
         id="path58" /><path
         d="M 695.79357,725.85105 C 640.07883,713.94704 589.80104,671.08502 570.43569,618.69889 c -1.29579,90.89736 2.94957,120.65964 39.46969,163.18176 24.62972,26.3659 64.14671,44.99933 85.88819,49.7617 v -105.7913"
         style="fill:#ffffff;fill-opacity:1;fill-rule:nonzero;stroke:none;stroke-width:0.63968593"
         id="path60" /><path
         d="M 984.21212,541.4812 C 927.4835,514.94953 853.13662,527.87643 786.55046,524.47364 l 0.28766,110.21314 207.57033,0.68235 c 35.67115,2.04001 70.65825,25.85188 85.26555,58.84734 -0.6776,-62.93057 -34.9935,-125.86049 -95.46188,-152.73527"
         style="fill:#ffffff;fill-opacity:1;fill-rule:nonzero;stroke:none;stroke-width:0.63968593"
         id="path62" /><path
         d="m 695.51232,523.11341 c -12.57441,-5.78334 -25.87758,-11.90465 -39.12961,-17.68799 -38.38612,-20.07047 -73.03636,-54.76668 -86.62593,-95.58548 3.73526,49.66312 -10.8701,111.57336 18.3438,152.73206 24.79913,37.7591 63.52598,64.97057 107.69299,70.07412 l -0.28125,-109.53271"
         style="fill:#ffffff;fill-opacity:1;fill-rule:nonzero;stroke:none;stroke-width:0.63968593"
         id="path64" /></g></g></svg>