<?xml version="1.0" encoding="UTF-8" standalone="no"?>
<!-- Created with Inkscape (http://www.inkscape.org/) -->
<svg
   xmlns:svg="http://www.w3.org/2000/svg"
   xmlns="http://www.w3.org/2000/svg"
   version="1.0"
   width="680.77002"
   height="486.17999"
   id="svg2">
  <defs
     id="defs4" />
  <g
     transform="translate(-3.1542661,-0.5287163)"
     id="layer1">
    <path
       d="M 216.73941,476.48163 C 196.45534,475.23018 172.32257,471.53052 153.12717,466.72972 C 75.568526,447.33203 26.264668,402.53862 14.622984,340.89631 C 12.673535,330.57404 12.662223,301.75356 14.603515,291.29232 C 22.436069,249.08432 43.04477,209.3888 77.320488,170.48983 C 114.53234,128.25871 163.62539,92.001419 221.88506,63.72281 C 372.90842,-9.5822708 547.3377,-6.8219068 627.84883,70.147233 C 649.64928,90.988582 664.15066,118.12125 668.39923,146.01859 C 668.8222,148.79588 669.38895,152.46657 669.65869,154.17567 C 669.92843,155.88477 670.14988,162.87656 670.15079,169.71297 C 670.15428,195.72287 664.03848,220.65415 650.73737,248.85248 C 640.60883,270.32496 624.21709,294.90902 605.59849,316.55101 C 599.14867,324.04817 570.12368,352.26897 561.27896,359.64257 C 485.01346,423.22304 384.58936,464.78982 282.38449,475.08047 C 271.00463,476.22627 227.61178,477.15245 216.73941,476.48163 z M 317.39361,452.00767 C 320.639,450.61156 321.22772,450.03497 321.22772,448.25285 C 321.22772,445.20086 320.51348,444.92072 318.03941,447.00256 C 311.06947,452.86735 301.02924,447.91483 301.02924,438.61204 C 301.02924,431.88361 307.74881,426.79747 314.32064,428.55156 C 317.1347,429.30271 317.34258,429.24514 317.33151,427.71837 C 317.30814,424.49663 316.27184,423.91461 311.21125,424.28059 C 302.56026,424.90635 296.40659,431.22568 296.38084,439.51024 C 296.36134,445.77892 299.73497,451.15063 304.91357,453.09652 C 307.61346,454.11103 313.74844,453.57577 317.39361,452.00767 z M 356.28599,444.00697 C 361.19058,441.93895 365.51777,435.74812 365.50469,430.81782 C 365.48809,424.56468 360.7145,417.96149 355.0676,416.38049 C 349.53048,414.83018 344.26964,416.42158 339.80146,420.99856 C 334.82994,426.09107 333.92661,431.09105 336.87698,437.18571 C 340.1502,443.94731 349.02783,447.06735 356.28599,444.00697 z M 346.00807,439.47304 C 338.6694,434.59611 338.4645,423.61303 345.65614,420.60811 C 350.56549,418.55688 356.5949,421.2794 359.23899,426.74138 C 361.13568,430.65942 361.23837,432.57378 359.74374,436.15093 C 357.6771,441.09707 350.91348,442.73291 346.00807,439.47304 z M 397.98354,431.59594 C 399.13834,430.99876 400.7472,429.77643 401.55877,428.87963 C 402.6263,427.70003 403.30347,427.47249 404.00744,428.05669 C 405.48792,429.28538 409.2327,428.10066 408.73637,426.56061 C 408.51319,425.86811 406.56149,420.46937 404.39926,414.56341 C 402.23703,408.65744 400.46794,403.20969 400.46794,402.45728 C 400.46794,400.38881 399.8556,400.14829 396.89901,401.05574 C 394.87437,401.67709 394.32726,402.19292 394.72432,403.10604 C 397.11705,408.60881 401.24481,420.57649 401.24481,422.0109 C 401.24481,424.36744 399.21471,427.16788 396.85649,428.06447 C 394.36664,429.01107 390.31379,427.34609 389.00527,424.839 C 387.56546,422.08027 383.37691,409.30807 383.37691,407.67627 C 383.37691,406.03615 382.91589,405.96817 379.60851,407.1212 C 377.18891,407.96463 376.54017,408.89975 377.82411,409.69332 C 378.18829,409.91838 379.81333,413.87184 381.43534,418.47888 C 383.05735,423.08585 384.90701,427.65684 385.54571,428.6367 C 387.99553,432.39486 393.77809,433.77069 397.98354,431.59594 z M 432.98034,417.84527 C 434.32592,417.3762 435.42685,416.83767 435.42685,416.64851 C 435.42685,416.45942 434.73839,415.35744 433.8969,414.19968 C 432.0667,411.68171 426.60314,399.80064 427.45234,400.18535 C 429.74497,401.22394 439.79298,406.59269 443.16215,408.57922 C 446.76436,410.70316 447.55183,410.89419 449.73481,410.17373 L 452.21494,409.35523 L 447.42632,399.60984 C 444.7926,394.24986 442.17389,388.39883 441.607,386.60761 C 441.0401,384.8164 440.5116,383.25031 440.43255,383.12749 C 440.32015,382.95285 436.67985,384.33039 435.59558,384.95786 C 435.47475,385.02778 436.74773,387.84112 438.42444,391.20968 C 441.9327,398.25786 444.04029,403.16082 443.5618,403.16082 C 443.3796,403.16082 441.3873,402.17287 439.13448,400.96532 C 436.88164,399.75776 431.85624,397.10103 427.96691,395.06153 L 420.8954,391.35325 L 417.92299,392.87824 L 414.95058,394.40314 L 417.61428,395.29755 C 420.07363,396.12328 420.62072,396.96594 424.74497,406.2804 C 427.2018,411.82907 429.21194,416.89299 429.21194,417.53351 C 429.21194,418.92349 429.75785,418.96862 432.98034,417.84527 z M 188.38384,407.3231 C 188.38384,406.67186 190.13595,400.941 192.27741,394.58795 C 206.00432,353.86421 231.00488,309.04485 260.9466,271.48226 C 326.66946,189.03138 419.35703,133.13355 533.31183,107.22478 C 540.78915,105.52473 551.10203,103.40252 556.22934,102.50874 C 561.35664,101.61497 565.9013,100.72543 566.32858,100.53199 C 568.08255,99.737921 534.37567,100.95448 523.21258,102.08814 C 375.67388,117.07133 259.22153,184.55222 196.03099,291.68075 C 193.25865,296.38078 189.98875,302.149 188.76456,304.49902 C 187.54036,306.84903 185.8722,309.9151 185.05751,311.31249 L 183.57626,313.85322 L 178.96398,309.58305 C 154.4081,286.84865 124.64663,269.94976 102.2443,266.0208 C 95.708824,264.87459 81.86291,264.45145 80.944508,265.36985 C 80.674494,265.63987 83.15075,267.79422 86.447298,270.1573 C 107.71211,285.40062 131.47558,307.67472 146.53186,326.47609 C 166.11664,350.9324 180.06016,377.83774 185.34434,401.36835 C 186.32235,405.72346 187.40633,409.11137 187.7532,408.89695 C 188.10005,408.68262 188.38384,407.97435 188.38384,407.3231 z M 480.87345,393.94153 C 484.98837,392.06571 489.03053,388.58932 489.03053,386.92613 C 489.03053,386.19122 488.54955,384.93215 487.96169,384.12817 C 486.94858,382.74271 486.82623,382.79531 485.61509,385.1374 C 482.85285,390.47897 474.12802,392.28098 469.96475,388.36978 C 465.74097,384.40178 464.67228,378.87136 467.29727,374.5659 C 468.92143,371.90196 474.03541,369.02643 477.20329,368.99586 C 478.91841,368.97931 478.93508,368.90897 477.76151,366.63953 C 476.73546,364.65539 476.23122,364.37379 474.43988,364.78457 C 471.13152,365.54323 466.69801,368.72092 464.26838,372.07492 C 460.11419,377.80962 460.46882,385.12272 465.16018,390.46583 C 469.49934,395.40786 474.99167,396.62272 480.87345,393.94153 z M 509.35958,376.6545 L 511.67215,375.00777 L 509.77699,372.96437 C 507.11789,370.09726 498.43267,356.92961 497.10537,353.75292 C 496.49822,352.29982 495.74396,351.12348 495.42924,351.13884 C 495.11452,351.15421 493.8151,352.01814 492.54165,353.05869 C 490.42469,354.78849 490.33937,355.03574 491.54596,355.944 C 493.3303,357.28716 504.51053,374.30651 505.06823,376.52857 C 505.61981,378.72617 506.41726,378.74955 509.35958,376.6545 z M 288.5994,368.95553 C 386.06426,361.96776 463.3056,334.71517 514.10574,289.39152 C 540.85532,265.52566 559.91932,239.12287 571.63105,209.72151 C 574.88217,201.5598 579.69363,185.14967 579.03007,184.4861 C 578.87795,184.33398 575.08391,186.99707 570.59886,190.40409 C 540.71687,213.10369 508.49034,227.086 486.3115,226.97435 C 473.23205,226.9085 462.40909,222.8226 455.61077,215.38415 C 446.58852,205.51237 445.64402,189.52242 452.96598,170.60924 C 457.10109,159.92792 457.09627,159.91202 451.39587,165.44021 C 437.12583,179.27918 429.98749,193.878 429.93368,209.33308 C 429.89626,220.08379 433.89449,229.1645 442.41864,237.68864 C 459.27748,254.54749 487.64927,253.98141 523.33349,236.07423 C 527.68275,233.89168 532.58109,231.26013 534.21869,230.22636 C 535.85629,229.19259 537.19614,228.58275 537.19614,228.87116 C 537.19614,229.15957 536.07454,231.17409 534.70369,233.34787 C 502.22861,284.84405 421.61399,328.07491 302.90821,357.65182 C 287.63019,361.45851 274.64652,364.34832 252.08676,368.9633 L 244.70655,370.47304 L 261.0207,370.1181 C 269.99349,369.92288 282.40391,369.39972 288.5994,368.95553 z M 534.71561,358.544 C 539.32976,355.05234 539.58474,354.69379 539.09122,352.39094 C 538.31583,348.77283 537.93558,348.47874 536.60921,350.47121 C 535.94832,351.46395 534.35342,353.40172 533.06497,354.77734 L 530.72234,357.27848 L 524.5484,348.95086 C 521.15275,344.37066 517.99392,339.74926 517.52878,338.68107 C 517.06364,337.61288 516.60202,336.61621 516.50296,336.46623 C 516.4039,336.31626 515.06744,337.15111 513.53306,338.32143 C 510.85845,340.36146 510.80571,340.49304 512.25542,341.50845 C 514.3376,342.96686 526.80921,359.62877 527.46909,361.8337 C 527.82785,363.03252 528.30318,363.39647 528.91019,362.93713 C 529.40834,362.56016 532.02078,360.58325 534.71561,358.544 z M 59.942567,291.03104 C 60.37824,288.34632 60.286166,288.18485 58.319509,288.18485 C 55.642666,288.18485 42.299181,284.2073 42.715612,283.53349 C 42.889024,283.25291 45.583246,282.03516 48.702777,280.82737 C 51.822317,279.61958 54.516135,278.51279 54.689041,278.36782 C 54.861955,278.22285 53.351257,275.61959 51.331936,272.58282 C 49.312616,269.54605 47.811573,266.91028 47.996289,266.72557 C 48.499153,266.2227 61.088279,270.28014 63.197435,271.62485 C 65.382227,273.01777 66.123978,272.41465 66.807985,268.68906 C 67.303197,265.99175 67.239665,265.89355 64.957244,265.82866 C 61.31374,265.72506 44.47452,260.25659 42.671618,258.59148 C 40.482235,256.56944 40.150412,256.69799 39.569752,259.79313 C 39.12046,262.18806 39.573925,263.20536 43.794957,269.27184 L 48.523461,276.0677 L 42.476501,278.50711 C 39.150672,279.84879 35.546882,281.16806 34.468081,281.43883 C 33.062057,281.79172 32.255174,282.75039 31.618681,284.82426 C 30.574194,288.2275 30.768208,288.60823 32.951493,287.43977 C 34.275209,286.73134 36.498464,287.17194 44.865213,289.80082 C 50.522684,291.57844 55.836462,293.51197 56.673612,294.09754 C 58.563623,295.41959 59.350129,294.6818 59.942567,291.03104 z M 76.164754,249.26836 C 77.323239,247.0281 77.279237,246.86829 74.605501,243.60535 C 73.092239,241.75862 71.854118,240.02671 71.854118,239.75668 C 71.854118,239.48664 72.932872,237.51251 74.251344,235.36971 C 76.866178,231.12008 77.89101,230.78454 82.847672,232.55518 L 85.684146,233.56845 L 87.314644,230.66737 C 88.211419,229.07177 88.942378,227.63908 88.939007,227.48363 C 88.935627,227.32816 86.750695,227.14323 84.083601,227.07267 C 81.4165,227.0021 74.347272,226.41226 68.374206,225.76192 C 62.401134,225.11156 57.373249,224.72029 57.201126,224.89241 C 57.029004,225.06453 60.410122,230.72341 64.714715,237.4677 C 69.019315,244.21199 72.772869,250.33983 73.055959,251.0851 C 73.699117,252.77835 74.63141,252.23353 76.164754,249.26836 z M 67.600223,233.60519 C 65.34939,229.90985 65.346904,229.87994 67.320646,230.24542 C 68.31859,230.43021 69.909873,230.60738 70.856833,230.63913 L 72.578583,230.69685 L 70.974318,233.41588 C 70.091971,234.91135 69.317188,236.1327 69.252568,236.13001 C 69.187956,236.1273 68.444396,234.99114 67.600223,233.60519 z M 100.99926,212.24631 C 103.30316,209.62872 103.34914,209.18278 101.37958,208.55767 C 100.52756,208.28725 99.391396,207.64446 98.854769,207.12924 C 98.318142,206.61403 96.870572,205.41336 95.637944,204.4611 C 94.405316,203.50884 93.531343,202.70717 93.695781,202.6796 C 93.86022,202.65204 97.451969,202.54263 101.67745,202.43648 C 108.76393,202.25845 109.47936,202.09655 110.89676,200.35022 L 112.43341,198.45696 L 106.32155,198.26131 C 97.272754,197.97163 96.713792,197.75689 96.713792,194.57009 C 96.713792,190.66314 93.295804,187.03706 89.613069,187.03706 C 85.842991,187.03706 82.84768,188.73287 79.701191,192.64873 C 77.512203,195.37296 77.260134,196.04668 78.227346,196.58797 C 80.683754,197.96263 98.267521,212.9168 98.267521,213.63118 C 98.267521,214.87623 99.020506,214.4945 100.99926,212.24631 z M 87.152793,197.50013 C 83.177685,194.27927 82.82122,193.76027 83.866343,192.71514 C 84.511103,192.07039 86.308139,191.54288 87.859779,191.54288 C 91.176331,191.54288 92.835271,193.32122 92.817574,196.8575 C 92.795519,201.26274 91.919208,201.36214 87.152793,197.50013 z M 126.67196,183.98273 C 128.46149,182.07469 128.70231,181.46722 127.78839,181.1666 C 126.33355,180.68806 110.43329,164.83603 109.28684,162.72119 C 108.4788,161.23059 108.3404,161.27364 105.88086,163.78084 C 103.89415,165.80604 103.5794,166.48715 104.48244,166.8071 C 106.14911,167.39761 120.67556,181.72946 122.19178,184.27918 C 122.89051,185.45419 123.671,186.41556 123.92622,186.41556 C 124.18142,186.41556 125.41701,185.32079 126.67196,183.98273 z M 515.83237,169.40544 C 528.63337,163.47876 528.71077,145.54235 515.9603,139.75309 C 507.78433,136.04083 498.22202,139.67896 494.38768,147.96075 C 489.54247,158.42593 497.59648,170.84415 509.22901,170.84415 C 511.15176,170.84415 514.12326,170.19672 515.83237,169.40544 z M 145.22418,166.71011 L 147.51111,164.88026 L 144.80715,162.50614 C 143.31997,161.20039 140.46301,158.04435 138.45835,155.49275 L 134.81353,150.85345 L 137.71009,151.52596 C 139.3032,151.89583 144.57761,153.11992 149.43101,154.24615 L 158.25538,156.29384 L 159.89161,154.6576 L 161.52786,153.02136 L 158.35337,149.71419 C 154.35763,145.55145 144.3715,133.23034 143.93708,131.92704 C 143.70644,131.23516 142.84816,131.49239 141.00261,132.80654 C 139.5095,133.86973 138.80276,134.80014 139.3498,134.9825 C 140.37368,135.32378 152.08169,149.17451 151.68317,149.57303 C 151.37131,149.88488 131.67491,145.49946 129.25474,144.57933 C 127.73894,144.00301 126.90388,144.27244 124.82387,146.00889 C 122.71395,147.77034 122.486,148.23502 123.53442,148.63733 C 124.23488,148.90613 125.40234,149.12605 126.12876,149.12605 C 127.43078,149.12605 138.31264,161.77511 140.85546,166.24434 C 141.57317,167.50578 142.33518,168.53832 142.54882,168.5389 C 142.76245,168.53949 143.96637,167.71652 145.22418,166.71011 z M 183.05841,138.07723 C 188.71749,134.24713 189.02783,133.88864 188.60673,131.6681 C 187.97466,128.33517 187.75614,128.29102 185.5901,131.05871 C 184.52598,132.41842 182.65274,134.2448 181.42736,135.11735 L 179.1994,136.7038 L 176.79984,132.80402 C 175.48008,130.65913 174.40027,128.73938 174.40027,128.53789 C 174.40027,128.3364 175.62384,127.66031 177.1193,127.03548 C 179.3844,126.08905 179.83833,125.50369 179.83833,123.52916 C 179.83833,122.22552 179.63913,121.15892 179.39566,121.15892 C 179.15218,121.15892 177.42348,122.21125 175.55408,123.49741 L 172.1552,125.83591 L 169.78185,122.38637 C 168.4765,120.48912 167.4085,118.60523 167.4085,118.19996 C 167.4085,117.54221 169.24675,116.63357 172.91677,115.47721 C 173.807,115.19671 174.05375,114.41647 173.79968,112.68536 C 173.60575,111.36396 173.24481,110.28281 172.99761,110.28281 C 172.13112,110.28281 160.41671,118.25357 160.41671,118.84315 C 160.41671,119.17084 160.88915,119.62025 161.46655,119.84182 C 162.6735,120.30497 174.76386,138.05459 175.54164,140.50517 C 175.82604,141.40118 176.28491,142.13427 176.56137,142.13427 C 176.83784,142.13427 179.7615,140.30861 183.05841,138.07723 z M 233.27874,108.80302 C 238.94674,105.89302 240.60923,99.462632 236.70336,95.556765 C 234.95833,93.811725 233.53327,93.267857 229.51736,92.814222 C 222.48815,92.02022 220.02327,89.438784 223.07474,86.066957 C 223.89846,85.156752 225.44092,84.646273 227.36744,84.646273 L 230.37444,84.646273 L 229.20922,82.392977 C 228.13879,80.322981 227.81975,80.190254 225.28741,80.76139 C 219.27432,82.117563 216.27909,86.270278 217.58934,91.43434 C 218.53519,95.162187 221.20337,96.930922 227.07676,97.723535 C 229.86703,98.10008 232.53922,98.94785 233.2843,99.692918 C 234.47831,100.88694 234.48737,101.18587 233.38806,103.11716 C 232.36473,104.91498 231.6941,105.22311 228.92848,105.16614 C 225.32815,105.09198 225.25517,105.18828 226.64444,108.1797 C 227.79513,110.65744 229.37723,110.80608 233.27874,108.80302 z M 266.10891,93.560269 C 268.56649,92.289403 268.86816,91.639184 267.5922,90.363214 C 267.1474,89.918412 264.8969,85.043321 262.59109,79.529679 C 258.06175,68.699103 258.06539,68.600045 263.0136,68.058338 C 265.2484,67.813679 265.54565,67.502203 265.60964,65.337997 C 265.64937,63.993773 265.46454,62.893973 265.19887,62.894004 C 264.93321,62.894035 260.47595,64.679908 255.29384,66.862602 C 245.88119,70.827208 245.87184,70.833756 245.87184,73.465954 C 245.87184,74.915101 246.13403,76.086552 246.45449,76.069188 C 246.77495,76.051826 248.24749,75.003058 249.72682,73.738594 C 251.20614,72.47413 252.79743,71.439571 253.26302,71.439571 C 253.99751,71.439571 261.2014,88.116241 262.57551,92.99757 C 263.15963,95.072569 263.1786,95.075583 266.10891,93.560269 z M 586.75533,90.666975 C 587.73397,88.851054 589.17138,86.598962 589.94957,85.662327 L 591.36448,83.959346 L 594.55081,85.535815 C 598.44399,87.462013 601.74955,86.950672 604.01393,84.071968 C 607.63658,79.466528 606.56522,75.193988 600.55224,70.266801 C 598.58492,68.654721 596.85671,67.472535 596.71181,67.639716 C 596.5669,67.806897 595.99486,68.817653 595.44062,69.885842 C 593.71867,73.204585 583.21257,86.721411 581.00582,88.457246 C 579.85293,89.364111 579.05042,90.210933 579.22247,90.339084 C 579.39451,90.467236 580.5438,91.336307 581.77643,92.270371 C 583.00906,93.204426 584.23321,93.968652 584.49679,93.968652 C 584.76035,93.968652 585.77671,92.482897 586.75533,90.666975 z M 593.52816,82.330743 C 593.26921,81.911748 594.51783,79.634532 596.30286,77.270268 C 598.88448,73.850944 599.76601,73.152185 600.61217,73.854432 C 602.32357,75.274774 601.88742,79.067351 599.76907,81.18569 C 597.84674,83.108026 594.39945,83.740511 593.52816,82.330743 z M 299.93202,81.016271 C 306.10946,79.00451 306.32133,78.854925 306.7519,76.20166 C 306.99631,74.695575 307.10804,73.375091 307.0002,73.267247 C 306.89235,73.159402 305.24257,74.066742 303.33403,75.283546 C 297.17708,79.208958 296.74891,79.136771 294.97154,73.873691 L 293.41428,69.262353 L 296.74946,68.762208 C 299.58733,68.336642 300.14484,67.948737 300.48834,66.160713 C 300.71038,65.004963 300.76706,63.932641 300.61431,63.777765 C 300.46156,63.622897 298.67652,64.061826 296.64753,64.753166 C 294.61856,65.444505 292.72333,65.746014 292.43593,65.423189 C 291.52177,64.396352 289.49401,57.597231 289.96226,57.128976 C 290.20967,56.881567 291.8992,56.67914 293.71678,56.67914 C 296.77409,56.67914 297.0607,56.500523 297.54556,54.293 C 297.83379,52.980618 297.92169,51.758905 297.74086,51.578074 C 297.41709,51.254308 284.00313,55.578408 283.37132,56.210216 C 283.19283,56.388709 283.6484,57.698161 284.38373,59.120103 C 286.3077,62.840665 291.70687,79.199394 291.70687,81.308209 C 291.70687,83.559152 292.1747,83.542551 299.93202,81.016271 z M 564.67203,78.952911 C 565.3564,76.226115 572.54073,61.345161 574.72072,58.138923 L 576.63334,55.325958 L 573.88518,54.015449 C 571.18034,52.725604 569.87651,53.170453 569.83637,55.396847 C 569.81685,56.479571 562.44357,71.633089 560.23039,75.138994 L 558.18039,78.386398 L 560.31232,79.543064 C 563.28417,81.155439 564.14859,81.038428 564.67203,78.952911 z M 334.78596,66.972599 C 335.04079,64.515764 335.50293,60.75768 335.81293,58.621302 L 336.37659,54.736978 L 340.64935,61.533263 C 342.99936,65.271218 345.2717,68.324771 345.69897,68.318936 C 347.81855,68.289983 348.58679,66.725089 348.78999,62.022556 C 349.34917,49.081961 349.30712,37.65908 348.70076,37.781903 C 348.3316,37.856677 347.1556,38.092159 346.0874,38.305191 L 344.14524,38.69252 L 344.3556,48.656915 C 344.59849,60.162617 344.99135,60.179274 337.70858,48.375053 C 333.80741,42.051878 332.6244,40.747623 332.43965,42.5661 C 332.41071,42.850946 332.10324,47.245522 331.75637,52.331819 C 331.14181,61.343848 331.09128,61.53397 329.77479,59.78865 C 329.03177,58.803609 326.90229,54.893462 325.04262,51.099448 C 321.71869,44.318071 321.62156,44.209752 319.30818,44.704452 C 316.26796,45.354579 316.04757,45.608963 317.14622,47.199811 C 318.00296,48.440364 322.3691,56.24683 327.66199,66.001518 C 328.93711,68.351534 330.12921,70.536466 330.31109,70.856923 C 330.49298,71.177379 331.46999,71.439571 332.48221,71.439571 C 334.15109,71.439571 334.36581,71.023218 334.78596,66.972599 z M 541.85733,69.586454 C 541.85733,67.219215 547.86895,47.499876 549.25284,45.32766 C 550.23053,43.793042 550.10733,43.629838 547.34709,42.80285 C 543.43903,41.631967 543.41107,41.638477 543.41107,43.719869 C 543.41107,46.094962 541.17377,53.574858 540.46773,53.560237 C 538.7877,53.525457 530.61797,50.539724 530.39812,49.880182 C 530.17776,49.219124 531.4256,45.527929 533.65416,40.248588 C 534.07,39.263477 533.54165,38.751205 531.37086,38.03478 C 529.81748,37.522119 528.4545,37.224906 528.342,37.374313 C 528.22951,37.523712 527.69614,39.688865 527.15674,42.185763 C 526.35955,45.875964 523.97861,53.495229 520.41351,63.764769 C 520.10787,64.645205 520.5582,65.169931 521.91075,65.509405 C 522.97464,65.776421 524.32103,66.177524 524.90272,66.400741 C 525.67779,66.698164 526.22282,65.423033 526.94272,61.628048 C 528.36187,54.146973 528.18012,54.282621 534.31698,56.124086 C 539.5747,57.70175 539.59297,57.716984 539.09361,60.106722 C 538.81791,61.426118 537.92436,64.045403 537.10795,65.927358 C 536.29155,67.809314 535.71521,69.422 535.82721,69.511113 C 536.15908,69.775154 540.64182,71.311621 541.27468,71.378246 C 541.59514,71.411978 541.85733,70.605669 541.85733,69.586454 z M 373.08346,62.404416 C 374.1637,62.114918 374.8314,61.337322 374.8314,60.368774 C 374.8314,59.506811 375.22385,57.491694 375.7035,55.89073 C 376.50789,53.205979 376.84815,52.942545 380.08469,52.498923 C 382.01468,52.234393 384.20963,52.017951 384.96234,52.017951 C 386.38796,52.017951 389.59183,56.66584 389.59183,58.733994 C 389.59183,59.700678 390.20956,59.821115 392.89351,59.377704 C 394.70943,59.077694 396.31367,58.724547 396.45851,58.592923 C 396.60334,58.461306 395.37286,56.491107 393.72413,54.214707 C 392.07539,51.938299 388.15105,46.14291 385.00338,41.336059 C 381.8557,36.529208 379.05841,32.596331 378.78719,32.596331 C 378.51596,32.596331 376.25016,38.801538 373.75207,46.38568 C 371.25397,53.969824 368.90173,60.507141 368.52485,60.913053 C 366.80645,62.763848 369.02902,63.490962 373.08346,62.404416 z M 378.29975,47.547948 C 378.58838,46.801886 379.02115,45.217082 379.26145,44.026172 L 379.69837,41.860871 L 381.60671,44.669236 C 382.65629,46.21383 383.39656,47.574991 383.25176,47.694022 C 383.10695,47.813061 381.81544,48.134092 380.38172,48.40744 C 378.11853,48.838926 377.84412,48.725644 378.29975,47.547948 z M 501.7035,58.879617 C 502.49387,58.456622 503.58928,57.043287 504.13775,55.738877 C 505.74315,51.920742 504.49019,48.485251 499.96802,44.306036 C 496.04154,40.677316 495.15915,38.431432 496.95455,36.636027 C 498.23413,35.356446 501.62486,35.465238 503.44826,36.844382 C 505.64353,38.504799 506.12156,38.305735 506.12156,35.731127 C 506.12156,33.259773 504.73073,32.090537 501.46037,31.812559 C 497.44529,31.471291 495.98002,31.87916 493.60838,33.998222 C 491.6677,35.732215 491.15282,36.829242 491.08615,39.372192 C 491.01075,42.24771 491.44781,43.034418 495.4545,47.235003 C 497.90317,49.802185 499.90663,52.278146 499.90663,52.737149 C 499.90663,54.000976 496.96316,56.67914 495.57413,56.67914 C 494.90034,56.67914 493.34959,55.679664 492.12801,54.458083 L 489.90695,52.237027 L 489.39161,55.287301 C 489.10817,56.964949 489.06804,58.529328 489.30241,58.763709 C 491.01276,60.474055 498.5919,60.544889 501.7035,58.879617 z M 419.48616,54.197546 C 419.28076,52.571498 418.92223,49.770589 418.68944,47.973305 L 418.2662,44.705524 L 424.08071,50.692332 C 429.48006,56.251678 432.2848,57.843754 433.42608,55.997138 C 433.6579,55.622029 432.52671,53.786686 430.91233,51.918598 C 429.29795,50.050502 427.23876,47.554987 426.33636,46.373002 L 424.69563,44.223945 L 426.95378,41.965794 C 428.69799,40.221585 429.21194,38.996647 429.21194,36.583736 C 429.21194,30.666117 424.06862,27.513398 415.97792,28.471621 L 412.32915,28.903768 L 412.9644,31.731051 C 413.31379,33.286055 413.70392,39.718946 413.83137,46.026357 L 414.06308,57.494389 L 416.96136,57.324194 C 419.84299,57.154985 419.85749,57.137039 419.48616,54.197546 z M 418.16181,37.063303 C 417.96966,33.965555 417.89242,31.323158 417.99018,31.191308 C 418.08792,31.059458 419.4168,31.473412 420.94324,32.111194 C 425.49283,34.012135 425.76386,39.296028 421.42681,41.538798 C 420.19649,42.175027 419.03715,42.695572 418.85051,42.695572 C 418.66387,42.695572 418.35395,40.161051 418.16181,37.063303 z M 467.1617,54.129492 C 472.836,50.374423 475.02048,42.504293 472.01511,36.64392 C 468.72283,30.224103 462.80595,27.315071 454.07161,27.822007 L 452.12945,27.934722 L 452.28112,38.24444 C 452.36454,43.914784 452.08762,50.090355 451.66577,51.967936 C 450.67094,56.395568 451.35781,56.844861 458.51609,56.448854 C 462.91126,56.20571 464.78319,55.703522 467.1617,54.129492 z M 457.35284,42.65415 C 457.56005,36.677147 457.91752,31.598929 458.14722,31.369226 C 458.37693,31.139522 459.76752,31.454083 461.23742,32.068249 C 470.96187,36.131384 469.68699,49.876002 459.3096,52.852195 L 456.97611,53.521433 L 457.35284,42.65415 z M 655.37818,314.16954 C 643.35325,310.56782 641.77874,294.01033 652.92567,288.37907 C 658.33312,285.64731 665.21507,286.46546 669.51162,290.35086 C 671.92832,292.5363 673.92435,297.22975 673.92435,300.7269 C 673.92435,310.31639 664.7398,316.97354 655.37818,314.16954 z M 665.23629,311.17608 C 672.06723,307.64367 673.18712,297.96118 667.43056,292.20463 C 665.14331,289.91738 664.05868,289.43876 660.57902,289.18122 C 653.36733,288.64744 648.29641,293.48807 648.29072,300.91143 C 648.28379,309.96069 657.17345,315.34554 665.23629,311.17608 z M 655.02269,307.57114 C 652.44119,305.54053 651.2799,301.48611 652.26151,297.93101 C 653.82344,292.2742 661.07653,290.02683 665.02572,293.97603 C 667.00348,295.95378 667.57013,298.2841 666.0733,298.2841 C 665.6007,298.2841 664.52656,297.41012 663.68632,296.34194 C 661.73199,293.8574 658.87268,293.84353 656.40959,296.30663 C 654.05069,298.66552 653.93354,302.01212 656.11285,304.78268 C 658.09277,307.29974 661.68207,307.53564 663.61694,305.27588 C 665.03766,303.61659 666.93257,303.19278 666.93257,304.53433 C 666.93257,304.98103 666.07448,306.20458 665.02572,307.25335 C 662.57828,309.70079 657.91831,309.84883 655.02269,307.57114 z"
       id="path2453"
       style="fill:#004890;fill-opacity:1" />
  </g>
</svg>
