<?xml version="1.0" encoding="UTF-8"?>
<svg width="113" height="90" version="1.1" xmlns="http://www.w3.org/2000/svg">
 <g transform="matrix(7.3392 0 0 7.3392 112.18 45.001)" stroke-width=".3528">
  <path d="m-2.464 2.6964 2.4636-3.0785h-2.5366l-1.2094 1.5185z" fill="#ed1c24"/>
  <path d="m-5.864 6.0964 0.00106 0.033869h4.7452v-0.035633s-0.071266-0.012701-0.14571-0.025049c-0.31752-0.04163-0.56942-0.12701-0.74652-0.2018-0.71583-0.29353-1.3174-0.87812-1.8289-1.4825 0 0-0.38032 0.49851-0.71795 0.86718-0.5038 0.55143-1.0489 0.78004-1.3057 0.8439m-2.5056 0c-0.30941-0.079733-0.60117-0.24308-0.69184-0.30306-0.9956-0.62234-1.6546-1.7068-1.6546-2.9921 0-1.9743 1.5971-3.5703 3.5703-3.5703 0.97373 0 1.9397 0.3715 2.7106 1.2736l0.043394 0.05292 0.031046-0.024696-3.8526-6.6644-7.0736 12.263h6.9149l0.00282-0.03528m1.2232-4.8757c0.4911 0 0.91446 0.21874 1.2225 0.58071 0.10937 0.13442 0.14606 0.16934 0.22932 0.27977 0.29212 0.37044 0.39478 0.50556 0.56695 0.72253-0.17217 0.20709-0.2713 0.35139-0.56695 0.72747-0.086789 0.1076-0.11995 0.145-0.22932 0.27518-0.30799 0.3655-0.73135 0.57859-1.2225 0.57859-0.87177 0-1.5777-0.70878-1.5777-1.5809-0.00141-0.87 0.70595-1.5851 1.5777-1.5851" fill="#2056ae"/>
 </g>
</svg>
