<?xml version="1.0" encoding="UTF-8"?>
<!-- Created with Inkscape (http://www.inkscape.org/) -->
<svg width="112" height="90" version="1.1" viewBox="0 0 112 90" xmlns="http://www.w3.org/2000/svg" xmlns:cc="http://creativecommons.org/ns#" xmlns:dc="http://purl.org/dc/elements/1.1/" xmlns:rdf="http://www.w3.org/1999/02/22-rdf-syntax-ns#">
 <metadata>
  <rdf:RDF>
   <cc:Work rdf:about="">
    <dc:format>image/svg+xml</dc:format>
    <dc:type rdf:resource="http://purl.org/dc/dcmitype/StillImage"/>
    <dc:title/>
   </cc:Work>
  </rdf:RDF>
 </metadata>
 <g transform="matrix(.1106 0 0 .1106 -.2454 -.4619)">
  <path d="m339.79 4.1797c-10.011-0.034807-19.399 0.20527-25.998 0.76758-53.618 4.5688-105.65 21.87-150.79 50.135-78.707 49.287-134.64 129.52-152.48 218.72-4.3162 21.584-5.6159 33.815-6.2109 58.439-0.61046 25.261 0.39797 42.985 3.6855 64.762 17.308 114.65 89.926 205.71 201.01 252.05 21.687 9.0484 47.125 16.906 78.5 24.246 4.2819 1.0018 7.2991 0.66367 7.8926-0.88281 1.2251-3.1925 0.61423-5.3779-1.6426-5.875-48.772-10.743-86.035-24.199-119.52-43.158-93.771-53.089-149.37-137.8-160.72-244.88-1.7224-16.243-1.9827-53.468-0.48047-68.645 13.373-135.1 107.09-247.32 238.66-285.76 11.825-3.4554 29.753-7.1962 46.814-9.7676 9.7116-1.4637 18.102-1.8019 44-1.7773 34.679 0.03289 44.167 0.96393 71.012 6.9707 130.69 29.242 232.39 137.42 253.4 269.53 3.5035 22.031 4.4016 36.708 3.7832 61.818-0.78988 32.072-3.8096 53.204-11.342 79.367-6.6639 23.147-20.994 56.208-36.199 83.516-2.8335 5.0888-5.1523 9.6906-5.1523 10.227 0 0.53601 1.1526 1.7298 2.5606 2.6523 2.1938 1.4375 2.7498 1.4769 3.8906 0.27344 0.73217-0.77237 5.3992-9.0543 10.371-18.404 24.951-46.921 36.778-82.777 42.385-128.5 1.9844-16.182 1.6366-63.303-0.58594-79.5-5.6313-41.039-16.346-75.92-34.1-111-50.685-100.15-145.89-167.82-257.52-183.06-10.112-1.38-28.528-2.2037-45.213-2.2617zm136.96 64.82c-1.7654 0-28.83 19.101-43.93 31.004-6.9742 5.4977-13.15 9.9961-13.725 9.9961-0.57419 0-1.7849-1.4305-2.6894-3.1797-1.3276-2.5672-1.5603-5.3144-1.209-14.25 0.23937-6.0883 0.99581-12.107 1.6816-13.373 0.68583-1.2663 1.059-3.0663 0.82812-4-0.5848-2.3649-16.683 14.149-23.02 23.613-2.6474 3.9543-4.9854 7.1895-5.1934 7.1895-0.20796 0-2.5081-2.8125-5.1133-6.25-13.165-17.372-20.368-23.551-27.992-24.014-3.4119-0.2072-3.84 0.0088-3.4902 1.7637 0.21921 1.1 0.41951 6.95 0.44531 13 0.0391 9.1729-0.35913 12.163-2.3984 18-2.1507 6.1562-2.7741 7.0378-5.1758 7.3144-3.5919 0.41376-14.802-5.5004-21.453-11.318-2.8269-2.4729-5.4048-4.4961-5.7285-4.4961-0.99968 0-0.65517 3.6449 0.91211 9.6621 1.5012 5.7634 2.035 18.779 0.89258 21.756-1.6043 4.1808-10.331-0.87151-13.479-7.8027-1.0281-2.2638-1.8805-5.5516-1.8926-7.3066-0.0293-4.2587-1.4212-4.8878-3.8848-1.7559-2.6707 3.3953-3.8264 7.1039-5.9277 19.025l-1.748 9.9219-4.6367-0.1543c-9.1893-0.30487-21.316-8.2549-27.982-18.346-2.8865-4.369-4.0749-1.3352-4.584 11.691-0.38901 9.9551-0.0617 13.762 2.084 24.246 1.3999 6.8405 2.3192 12.803 2.043 13.25-0.83358 1.3488-19.407 0.87966-26.748-0.67578-8.1213-1.7206-14.363-5.143-18.471-10.127-3.5717-4.3331-5.1682-3.7382-5.1602 1.9238 8e-3 5.8727 1.4656 10.555 7.2129 23.154 3.2463 7.1169 4.699 11.425 4.1406 12.277-0.4731 0.72211-7.1594 3.4866-14.859 6.1426s-22.4 8.7182-32.668 13.473c-10.268 4.7545-19.102 8.6445-19.629 8.6445-0.52735 0-1.4938 0.64475-2.1484 1.4336-1.8027 2.1722 4.1485 3.4866 19.195 4.2383 8.2616 0.41272 12.75 1.0257 12.75 1.7422 0 0.60811-8.325 9.4221-18.5 19.586s-18.5 18.822-18.5 19.24c0 1.8189 4.097 0.44222 11.115-3.7344 4.3783-2.6056 9.7811-4.917 12.855-5.5 7.1072-1.3479 27.029-1.3251 27.029 0.0312 0 0.57085-4.8537 6.3084-10.785 12.75-21.377 23.216-30.441 33.638-29.525 33.943 0.51278 0.17093 5.2845-1.7234 10.604-4.209 12.173-5.6884 24.514-9.2908 34.75-10.145 7.69-0.64132 7.957-0.59274 7.957 1.4941 0 1.1875-2.6777 7.503-5.9512 14.033-7.1599 14.283-10.049 22.494-10.049 28.564 0 2.4924 0.2053 4.5312 0.45703 4.5312 0.25172 0 4.1892-3.7617 8.75-8.3594 8.7776-8.8486 18.561-15.277 31.365-20.607 10.172-4.2348 16.151-5.7106 17.531-4.3301 1.4637 1.4637-1.2948 15.394-4.7754 24.117-1.3869 3.476-2.2551 6.5867-1.9297 6.9121 1.1938 1.1938 9.049-2.2662 15.617-6.8789 3.7112-2.6063 9.1627-7.5204 12.115-10.918 5.9019-6.7916 12.656-11.936 15.67-11.936 1.5693 0 2.7037 2.1452 5.9199 11.199 2.1882 6.16 4.4298 11.352 4.9805 11.535 0.55067 0.18355 2.4934-3.8451 4.3164-8.9512 4.3616-12.216 11.386-25.853 15.988-31.039l3.6973-4.168 1.2793 2.3887c1.2704 2.3738 0.99246 16.628-0.61133 31.391-0.60051 5.5277-0.53093 5.7978 1.2461 4.8027 4.6231-2.5888 16.977-14.436 20.836-19.98 2.3315-3.3502 5.7184-9.4858 7.5274-13.635 2.6954-6.182 3.6951-7.543 5.5391-7.543 3.8878 0 12.426 3.2216 15.096 5.6953l2.5625 2.373-0.65234 13.217c-1.5847 32.157-5.1848 47.231-17.682 74.031-16.31 34.977-23.256 55.922-28.914 87.184-1.9392 10.714-2.1089 14.197-1.584 32.5 0.32337 11.275 1.481 30.4 2.5723 42.5 3.8869 43.098 3.8325 49.5-0.41797 49.5-2.1715 0-3.3709-2.9384-9.1738-22.49-4.271-14.39-7.0375-21.426-13.77-35.01-25.058-50.56-64.103-94.235-104.13-116.47-15.38-8.5453-34.43-15.311-34.43-12.229 0 0.58039 4.1625 4.8001 9.25 9.377 25.963 23.357 47.396 47.844 64.283 73.438 33.797 51.222 47.925 81.711 60.879 131.39 6.317 24.225 12.499 56.545 15.088 78.887 0.85326 7.3628 1.7967 13.784 2.0957 14.268 0.29899 0.48377 12.323 0.75789 26.723 0.61132l26.182-0.26562 0.67773-13.5c2.7491-54.715 11.126-91.079 29.947-130 12.042-24.901 22.935-43.065 30.109-50.209l5.7324-5.709 9.8066 0.59766c8.9852 0.5474 10.761 0.32955 21.219-2.5898 14.208-3.9663 19.565-6.8474 28.055-15.09 11.347-11.017 15.886-22.751 18.953-49 2.8555-24.438 5.7332-32.44 18.787-52.246 6.9631-10.565 9.928-16.373 8.8906-17.41-0.32514-0.32514-2.7484 1.31-5.3848 3.6328-7.064 6.2239-21.268 15.47-31.01 20.186l-8.5508 4.1387-19.115 1.2852c-10.514 0.70642-22.267 1.7748-26.117 2.375-36.05 5.6206-57.406 28.712-57.482 62.152-0.0256 11.225 5.0061 34.379 7.3047 33.613 0.59397-0.19799 2.4676-5.0548 4.1641-10.793 10.08-34.095 26.951-50.124 57.814-54.93 6.5123-1.0139 8.6992-0.79247 8.6992 0.88281 0 2.3365-6.943 10.498-14.133 16.613-8.3411 7.0945-31.468 33.925-43.961 51-10.154 13.877-28.084 41.002-33.713 51-2.7868 4.95-8.9654 17.775-13.73 28.5-12.754 28.706-13.857 29.358-14.812 8.75-0.78823-17.007-2.6063-32.992-6.707-58.984-6.3468-40.229-6.2564-59.479 0.40234-85.814 3.7627-14.881 9.1088-29.019 20.379-53.898 18.023-39.786 20.312-51.194 20.875-104.05 0.28403-26.67 0.51922-30.541 1.8848-30.828 0.91142-0.19133 5.0919 3.2982 10.039 8.3808 4.6621 4.7898 8.5218 8.5376 8.5762 8.3281 0.0544-0.20947 0.26204-3.4565 0.46289-7.2148 0.37579-7.0317 4.7665-24.367 6.916-27.307 1.791-2.4493 6.1839-0.96234 8.5234 2.8848 1.0672 1.7548 2.2212 5.2297 2.5645 7.7227 0.34328 2.4929 1.2466 7.6348 2.0059 11.426 2.5584 12.774 3.3074 11.054 6.5312-14.996 1.4629-11.821 2.9357-21.768 3.2734-22.105 1.5651-1.5651 19.336-3.3099 31.623-3.1035 7.425 0.12473 13.5-0.11173 13.5-0.52734 0-0.4156-3.6-3.3263-8-6.4688-7.6992-5.4987-15.035-14.075-14.199-16.6 0.22986-0.69455 6.5119-1.3371 17.279-1.7676 16.443-0.65738 30.011-3.0153 32.674-5.6777 0.64497-0.64497-3.6197-3.9726-12.385-9.6621-13.559-8.8012-19.153-13.218-18.361-14.498 0.24033-0.38887 4.6857-2.8431 9.8789-5.4551s12.998-7.5619 17.344-10.998c7.8357-6.196 16.071-15.066 14.99-16.146-0.30923-0.30922-3.8616 0.55907-7.8926 1.9297-4.031 1.3706-9.2406 2.7999-11.578 3.1758-4.0247 0.64724-4.25 0.5547-4.25-1.7539 0-5.2544 10.044-15.704 21.818-22.699 3.9694-2.3582 7.5031-4.7506 7.8516-5.3144 1.2947-2.0948-24.444-0.0627-34.17 2.6973-4.95 1.4047-10.288 2.5594-11.863 2.5664-2.8496 0.0124-2.8599-0.0114-2.1582-4.7383 1.3762-9.2699 6.5107-23.078 11.15-29.984 2.5-3.7212 4.7582-7.1031 5.0176-7.5156 1.5076-2.3974-3.3828 0.14097-11.973 6.2148-13.464 9.5202-24.674 13.636-24.674 9.0605 0-4.8685 8.5175-22.72 12.363-25.912 1.9325-1.6038 2.169-4.1133 0.38672-4.1133zm-23.441 24.133c0.61509-0.02073 0.61297 0.5463 0.15235 1.6172-2.0405 4.7437-5.6103 18.396-6.1445 23.5-0.51747 4.9435-0.36642 5.75 1.0684 5.75 0.91788 0 7.7193-4.05 15.115-9s13.683-9 13.973-9c2.1093 0-0.95787 9.7732-7.4395 23.705-2.3554 5.0628-4.0308 9.8584-3.7246 10.656 0.45532 1.1865 3.4043 0.5575 16.193-3.4551 8.5999-2.6982 16.054-4.9062 16.566-4.9062 5.029 0-10.974 15.168-22.123 20.969-4.2625 2.2176-8.4134 4.0312-9.2246 4.0312s-2.0119 0.64538-2.666 1.4336c-2.2033 2.6548 3.0765 4.8393 13.279 5.4961l9.166 0.58984-8 3.1152c-4.4 1.7132-11.038 4.1087-14.75 5.3223-4.2444 1.3875-6.75 2.7478-6.75 3.666 0 0.83387 2.8323 2.7318 6.6035 4.4238 8.865 3.9774 23.645 13.704 23.139 15.229-0.97878 2.9472-14.934 3.0037-29.057 0.11719-10.326-2.1107-11.686-1.9424-11.686 1.4473 0 4.0249 5.1382 13.756 10.467 19.822 2.4935 2.8388 4.5332 5.4262 4.5332 5.75 0 1.5177-12.135 0.31837-21.094-2.084-11.67-3.1293-12.941-2.7264-11.074 3.5059 1.6691 5.571 1.4431 10.622-0.58203 13.004-1.5981 1.8798-2.2034 1.9648-6.9668 0.98438-5.6714-1.1673-18.666 0.15997-20.611 2.1055-0.7338 0.7338-0.25925 2.7858 1.5762 6.8106 3.1737 6.9593 3.9511 10.32 2.8125 12.162-0.695 1.1245-1.7658 0.85786-5.707-1.4199-9.3648-5.4122-12.248-6.6226-15-6.3027-3.5071 0.4076-4.6867 4.088-6.1641 19.25-0.58087 5.9613-1.4636 11.247-1.9629 11.746-0.54384 0.54384-4.2812-0.72766-9.3184-3.1699-5.2684-2.5543-9.4931-3.9683-11.312-3.7891-2.6405 0.26015-3.0538 0.83639-4.5605 6.3613-1.8542 6.7992-4.5428 11.668-10.311 18.674-6.3957 7.7681-6.9238 6.9832-6.127-9.1152 0.77037-15.564 0.29592-19.135-2.541-19.135-2.0456 0-10.41 5.8723-13.346 9.3691-0.98389 1.172-3.8434 6.1809-6.3535 11.131-4.5524 8.9775-8.6981 14.5-10.887 14.5-1.0511 0-6.5123-15.796-6.4824-18.75 0.0184-1.8221-2.4384-1.5283-4.1816 0.5-0.82724 0.9625-3.4522 5.3234-5.832 9.6914-4.748 8.7148-9.3948 14.374-15.375 18.723-2.145 1.5599-4.2564 2.8359-4.6914 2.8359-1.2586 0-2.09-1.8982-1.3535-3.0898 0.37036-0.59921 0.35307-6.2242-0.0391-12.5-0.51617-8.2616-1.067-11.41-1.998-11.41-0.70719 0-10.275 4.275-21.26 9.5-10.985 5.225-20.487 9.5-21.115 9.5-2.4566 0-1.2206-2.8812 7.6387-17.799 3.2073-5.4006 5.1449-9.6543 4.6211-10.148-0.5002-0.47186-9.0339 0.51168-19.16 2.207-10.042 1.6813-18.553 2.7632-18.912 2.4043-0.35888-0.35887 1.1289-2.7927 3.3066-5.4082 2.1777-2.6155 5.0417-6.3309 6.3633-8.2559s4.5042-5.975 7.0742-9c5.9278-6.9772 7.4931-9.8512 5.7188-10.506-0.71121-0.26242-9.0564-0.59441-18.545-0.73633-10.586-0.15833-17.286-0.64422-17.342-1.2578-0.0496-0.55 9.2709-6.9108 20.713-14.135 11.442-7.2239 20.994-13.705 21.227-14.404 0.32488-0.97462-0.83113-1.1194-4.9609-0.61914-2.9618 0.35876-9.834 0.9502-15.271 1.3144-8.1927 0.5488-9.807 0.42486-9.4238-0.72461 0.79789-2.3937 23.805-13.703 35.561-17.48 6.1875-1.9882 11.25-3.928 11.25-4.3106 0-0.38257-2.6099-2.9918-5.7988-5.7988-6.1978-5.4556-11.37-13.592-9.6836-15.234 0.62487-0.6089 3.9892-0.55502 9.2559 0.14844 12.956 1.7306 36.375-1.8705 37.893-5.8262 0.30844-0.80376-0.63873-5.3058-2.1035-10.004-1.8076-5.7975-2.5671-10.21-2.3633-13.734l0.30078-5.1914 4.5 0.082c3.3514 0.0608 7.4992 1.556 16.25 5.8594 6.4625 3.1781 11.736 6.066 11.719 6.418-0.0174 0.35198-3.0539 2.6656-6.7461 5.1406-19.819 13.286-38.883 31.587-51.863 49.789-10.45 14.653-14.424 23.39-15.096 33.186-0.60288 8.7959 1.1018 13.957 6.7285 20.365 12.134 13.82 35.319 16.479 69.928 8.0215 23.717-5.7957 39.752-12.7 67.471-29.049 16.112-9.5032 19.191-11.763 27.906-20.475 7.9527-7.9495 11.483-10.663 18.758-14.42 10.099-5.216 13.323-8.4049 24.191-23.918 10.333-14.749 13.991-23.08 14.545-33.133 1.055-19.154-8.5547-28.726-32.121-31.998-5.5937-0.77668-10.845-1.6141-11.67-1.8593-3.0733-0.91356-28.863 3.3396-38.908 6.416-22.765 6.972-47.85 17.596-65.342 27.674-2.612 1.5049-5.0619 2.4224-5.4453 2.0391-0.6869-0.6869 1.2014-16.186 2.3301-19.127 0.79959-2.0837 2.4854-1.9076 9.3379 0.97656 3.2516 1.3686 7.3802 2.6061 9.1758 2.75 2.743 0.21983 3.4948-0.20837 4.7051-2.6816 0.79228-1.619 1.6608-6.0181 1.9297-9.7754 0.26884-3.7573 0.87885-7.0726 1.3555-7.3672 0.47661-0.29457 4.5592 1.3134 9.0723 3.5723 4.6816 2.3432 9.2769 3.9796 10.701 3.8106 2.2028-0.26149 2.6283-1.0022 3.6113-6.2969 1.8338-9.8775 7.7608-28.673 9.2188-29.232 3.1207-1.1975 12.607 11.498 16.434 21.994 1.1895 3.2622 2.7698 6.1645 3.5117 6.4492 1.9581 0.75139 6.4309-1.3401 13.555-6.3359l6.2578-4.3887 2 2.3633c1.1 1.2996 2.4999 3.2142 3.1113 4.2559 1.0466 1.7831 1.2907 1.7044 4.1523-1.3555 2.7879-2.981 6.1857-4.5952 4.7363-2.25-1.054 1.7054 1.0666 1.1055 4.6113-1.3047 1.8642-1.2676 9.3008-6.6676 16.527-12 8.9806-6.6268 13.317-9.5169 14.67-9.5625zm-53.416 38.906c2.5669 9e-3 5.6541 0.082 9.6074 0.19141 14.812 0.40971 17.672 0.76065 22.227 2.7324 7.2956 3.1586 12.75 9.343 14.283 16.193 2.4888 11.121-2.7568 22.436-18.621 40.154-4.3384 4.8454-10.898 12.454-14.576 16.908-5.2675 6.3793-8.1334 8.8714-13.5 11.738-3.7471 2.0017-11.909 7.0955-18.139 11.32-31.333 21.25-65.048 35.394-98.326 41.25-13.748 2.4194-23.346 1.5171-33.859-3.1855-13.078-5.85-16.718-20.295-9.043-35.885 10.089-20.493 36.988-48.484 62.486-65.025 22.375-14.515 53.574-27.949 79.068-34.043 7.6741-1.8345 10.692-2.3771 18.393-2.3496zm590.12 398.14a22.925 23.773 0 0 0-22.924 23.773 22.925 23.773 0 0 0 22.924 23.771 22.925 23.773 0 0 0 22.926-23.771 22.925 23.773 0 0 0-22.926-23.773zm0 1.6211a21.197 22.151 0 0 1 21.199 22.152 21.197 22.151 0 0 1-21.199 22.15 21.197 22.151 0 0 1-21.197-22.15 21.197 22.151 0 0 1 21.197-22.152zm-10.863 7.584v27.701h5.7012v-10.982h6.5352c2.47 0 3.5352 0.98864 3.5352 3.3066 0 0.228-1e-3 0.60756-0.0391 1.1016-0.038 0.722-0.0371 1.4062-0.0371 1.8242 0 2.584 0.15105 3.42 0.87305 4.75h6.1192v-1.0254c-0.874-0.494-1.2168-1.0633-1.2168-2.2793-0.152-8.17-0.3039-8.5503-3.8379-10.07 3.116-1.216 4.6738-3.4578 4.6738-6.8398 0-2.204-0.7598-4.2179-2.0898-5.5859-1.254-1.292-3.0014-1.9004-5.3574-1.9004zm-245.95 1.3418c-0.82672 0.039-3.4888 1.1171-6.4238 2.6309-8.6985 4.4862-17.576 4.7881-31.777 1.0801-13.763-3.5936-23.088-3.7783-28.295-0.56054-3.7107 2.2933-11.094 10.591-14.393 16.176-0.93817 1.5882-2.2333 3.0909-2.877 3.3379-0.64361 0.24697-6.2922-0.47604-12.553-1.6055-15.921-2.8722-27.69-2.6924-41.383 0.63086-18.126 4.399-28.275 10.248-40.764 23.486-10.821 11.47-16.456 25.115-17.455 42.271-0.65424 11.233 0.27888 14.999 7.3535 29.678 9.0997 18.88 23.235 28.368 53.865 36.156 18.511 4.7068 28.232 8.3517 38.832 14.557 14.418 8.44 22.342 18.766 23.406 30.498 2.2583 24.905-30.829 51.838-57.838 47.08-22.67-3.9932-40.586-27.762-32.898-43.643 2.7325-5.6447 8.6126-10.168 14.33-11.021 5.343-0.79776 8.5441 0.46677 13.125 5.1836 2.0271 2.0872 4.89 4.5908 6.3633 5.5625 3.6144 2.3837 10.563 2.2562 15.82-0.28906 3.4615-1.6757 4.8476-3.2236 7.3145-8.1602 4.7695-9.5446 3.7764-14.869-4.4102-23.621-8.5699-9.1619-24.398-14.794-38.896-13.842-9.9174 0.65143-18.157 4.4948-26.836 12.516-7.4055 6.8436-11.606 13.178-15.367 23.176-2.5714 6.8351-2.8253 8.6968-2.8711 21-0.0482 12.955 0.0801 13.823 3.1816 21.5 6.7779 16.777 19.526 28.552 40.789 37.672 5.2364 2.2461 8.5203 3.1483 18.955 5.2031 5.2618 1.0362 26.617 0.45937 33-0.89062 14.493-3.0653 30.777-12.807 44.967-26.902 8.9658-8.9061 13.872-16.28 18.467-27.756 4.6339-11.573 5.4296-16.558 4.1699-26.119-2.6061-19.782-14.847-34.287-32.604-38.633-6.1531-1.5061-8.5-3.5115-8.5-7.2637 0-4.493 2.7874-7.7187 11.564-13.381 22.136-14.28 33.093-40.118 26.322-62.074-4.446-14.418-9.5664-21.215-24.344-32.322-11.692-8.7879-12.935-11.368-7.9062-16.396 4.1325-4.1325 8.7564-3.596 21.699 2.5215 17.289 8.1716 25.163 7.6407 34.102-2.3008 7.2566-8.0711 13.584-22.501 11-25.086-0.0386-0.0386-0.11823-0.0544-0.23633-0.0488zm251.65 3.4082h6.877c1.634 0 2.318 0.1507 3.002 0.7207s1.0273 1.5205 1.0273 2.8125c0 1.33-0.38134 2.3948-1.0273 2.9648-0.608 0.532-1.368 0.7207-3.002 0.7207h-6.877zm-517.29 14.164c-12.115 0.16925-25.79 4.3377-36.564 11.418-11.193 7.355-23.034 22.37-28.695 36.385-7.1086 17.599-7.082 43.527 0.0664 64.512 5.0989 14.968 10.156 23.2 20.512 33.391 13.282 13.07 25.372 19.701 40.088 21.986 16.306 2.5326 34.011-2.9711 46.932-14.588 9.0424-8.1299 19.098-24.145 19.098-30.416 0-2.5481-0.57797-3.326-3.3223-4.4726-4.9183-2.055-10.194-0.30511-18.307 6.0742-3.7796 2.9719-9.1211 7.1714-11.871 9.332-7.3466 5.7721-14.675 8.4028-21.691 7.7852-6.4532-0.5681-15.131-4.2054-20.859-8.7422-7.7344-6.1257-12.357-20.467-11.752-36.459l0.30273-8 87.467-0.52148 1.4453-2.2383c2.3038-3.5733 3.8553-14.537 3.1621-22.342-1.6695-18.798-11.933-39.311-24.729-49.426-6.0521-4.7839-23.264-11.598-33.197-13.143-2.5746-0.40027-5.2883-0.57421-8.084-0.53516zm462.13 4.5996c-8.9986 0.13388-15.937 4.0591-27.943 14.264-2.06 1.7509-4.0464 2.8813-4.416 2.5117-0.36962-0.36961-1.0233-3.2579-1.4512-6.4199-1.1257-8.32-3.6516-10.25-13.422-10.25-6.3725 0-8.877 0.58325-17.693 4.125-23.164 9.3056-29.771 14.434-29.771 23.107 0 4.8297 2.7088 7.8406 10.951 12.172 5.3018 2.786 7.1994 4.3505 7.6992 6.3418 0.8441 3.3632-0.39529 64.644-1.5625 77.254-1.1769 12.715-2.165 14.648-8.4356 16.51-10.569 3.1386-17.726 1.0693-21.133-6.1094-3.6752-7.745-4.0234-16.132-2.0996-50.596 2.5188-45.125 2.5133-47.299-0.15625-53.119-3.2128-7.0047-13.761-17.13-21.504-20.641-13.552-6.1448-34.676-7.8167-52.26-4.1348-10.931 2.289-16.331 4.5719-23.346 9.8652-17.916 13.519-22.74 38.955-10.008 52.768 4.7938 5.2007 9.1844 6.8751 15.689 5.9805 7.3255-1.0075 12.275-4.2375 15.041-9.8145l2.375-4.791-2.1973-5.709c-7.1787-18.655-7.3178-20.561-1.9609-26.662 13.593-15.481 38.906-5.4218 38.906 15.461 0 6.6284-2.6257 11.635-9.0488 17.254-6.8727 6.0121-16.594 11.445-36.193 20.227-24.674 11.055-33.599 16.723-39.236 24.924-6.7807 9.863-6.886 22.414-0.29296 34.84 4.8439 9.1292 14.611 16.922 26.258 20.949 10.246 3.5428 22.115 2.3041 45.326-4.7324 6.2921-1.9074 12.779-3.4688 14.414-3.4688 1.6633 0 5.5268 1.5781 8.7734 3.582 4.3854 2.7068 7.4759 3.7832 12.652 4.4121 7.4126 0.90062 106.72 1.26 109.6 0.39648 1.4011-0.4202 1.75-1.6647 1.75-6.2363 0-3.2879-0.59656-6.5608-1.4062-7.7168-1.3124-1.8738-6.0169-4.3656-14.766-7.8203-7.923-3.1287-8.5166-7.54-7-52.117 0.70857-20.826 1.4176-30.367 2.5117-33.848 3.5895-11.42 10.918-17.502 22.178-18.406 5.8644-0.47074 6.7547-0.27717 9.9707 2.1758 7.8289 5.9714 9.7716 16.326 8.4609 45.078-0.45128 9.9-0.84937 25.959-0.88477 35.686-0.0354 9.7267-0.49559 18.821-1.0234 20.209s-2.7361 3.43-4.9062 4.5371c-6.147 3.1359-8.2808 6.5038-7.9297 12.512l0.29492 5.0566 35.75 0.26172 35.75 0.26367v-5.877c0-7.0307-2.1472-10.402-7.7656-12.193-7.1595-2.2824-10.051-4.0976-11.289-7.0859-0.97991-2.3656-0.99593-9.4073-0.0781-33.68 1.9623-51.895 1.3027-72.093-2.6016-79.643-0.86354-1.6699-4.3142-5.778-7.668-9.1289-6.3972-6.3919-12.684-9.5372-22.951-11.484-3.7214-0.70574-6.9497-1.0837-9.9492-1.0391zm-463.31 17.354c4.7178 0.17916 9.6268 2.4586 14.232 7.1855 6.2942 6.46 9.5187 14.266 9.7324 23.566 0.0821 3.575-0.19811 7.7375-0.62109 9.25l-0.76953 2.75h-47.238l0.52734-8.75c1.277-21.198 12.08-34.46 24.137-34.002zm148.19 2.8867c0.61108-6e-3 1.2204 0.0142 1.8262 0.0644 6.1488 0.5099 13.469 3.8228 17.617 7.9707 5.5048 5.5048 6.2469 10.738 5.7695 40.697-0.38747 24.319-0.61006 27.104-2.5723 32.053-2.7889 7.034-7.3116 11.599-13.949 14.082-12.91 4.8301-26.683-0.26733-32.135-11.895l-2.6289-5.6074v-56l2.8008-5.7031c4.5233-9.2112 14.105-15.566 23.271-15.662zm164.78 65.865c1.0963 0 0.65678 10.073-0.79492 18.215-2.5186 14.124-8.4369 24.053-16.832 28.236-7.3666 3.671-16.566 3.3179-22.975-0.88086-2.7962-1.8322-5.748-8.0768-5.748-12.16 0-6.6424 10.65-16.478 26.059-24.066 11.365-5.5966 19.501-9.3438 20.291-9.3438z" fill="#0a844d" stroke-width="1.0658"/>
 </g>
</svg>
