<?xml version="1.0" encoding="UTF-8"?>
<svg version="1.1" viewBox="0 0 676.84 676.2" xmlns="http://www.w3.org/2000/svg">
<g fill="#040606">
<path transform="matrix(.13333 0 0 -.13333 0 676.2)" d="m1509.7 2747h-695.01c-449.23 0-814.71 360.58-814.71 803.8v1520.6h528.28v-1513.5c0-155.84 131.68-282.63 293.53-282.63h680.8c161.85 0 293.53 126.79 293.53 282.63v1513.5h528.28v-1520.6c0-443.22-365.47-803.8-814.7-803.8"/>
<path transform="matrix(.13333 0 0 -.13333 0 676.2)" d="m5076.3 5071.4h-683.14l-1117.8-879.7v879.71h-528.27v-2324.4h528.27v885.5l1117.8-885.5h680.29l-1470.4 1164.9 1473.4 1159.5"/>
<path transform="matrix(.13333 0 0 -.13333 0 676.2)" d="m2324.4-0.011719h-1520.6c-443.22 0-803.82 372.58-803.82 821.81v680.81c0 449.23 360.59 821.8 803.82 821.8h1520.6v-528.27h-1513.5c-155.84 0-282.63-131.68-282.63-293.53v-680.81c0-161.84 126.79-293.52 282.63-293.52h1513.5v-528.29"/>
<path transform="matrix(.13333 0 0 -.13333 0 676.2)" d="m3275.3 1056.6v456.95c0 155.84 131.68 282.64 293.53 282.64h680.81c161.85 0 293.53-126.8 293.53-282.64v-456.95zm981.44 1267.9h-695.01c-449.23 0-814.7-360.59-814.7-803.81v-1520.6h528.27v528.32h1267.9v-528.32h528.27v1520.6c0 443.22-365.47 803.81-814.7 803.81"/>
</g>
</svg>
