<?xml version="1.0" encoding="UTF-8"?>
<svg version="1.1" viewBox="0 0 219.55 219.55" xmlns="http://www.w3.org/2000/svg"><g transform="translate(-79.201 -80.164)"><g><path transform="matrix(.13333 0 0 -.13333 0 377.95)" d="m1417.3 586.71c453.54 0 823.32 370 823.32 823.33 0 453.53-369.78 823.33-823.32 823.33-453.33 0-823.33-369.8-823.33-823.33 0-453.33 369.99-823.33 823.33-823.33" fill="#fff200"/><g fill="#008940"><path transform="matrix(.13333 0 0 -.13333 0 377.95)" d="m755 1471-1.375-17.73-105.6-34.63 1.754 22.57 73.473 23.42-68.992 34.32 1.754 22.58 98.984-50.53"/><path transform="matrix(.13333 0 0 -.13333 0 377.95)" d="m737.43 1533.2-16.953 3.59 8.59 40.6 16.953-3.59-8.59-40.6"/><path transform="matrix(.13333 0 0 -.13333 0 377.95)" d="m682.01 1633.5 7.234 20.5 77.973-27.53 16.801 47.58 18.773-6.63-24.039-68.08-96.742 34.16"/><path transform="matrix(.13333 0 0 -.13333 0 377.95)" d="m808.86 1762-36.636 4.11 22.953-28.85zm11.723-56.68-10.957-19.82-68.738 87.7 8.601 15.56 110.82-11.62-10.961-19.82-19.434 2.24-21.555-38.97 12.223-15.27"/><path transform="matrix(.13333 0 0 -.13333 0 377.95)" d="m872.32 1862.1-19.449-24.15 17.992-14.49 19.45 24.15c1.972 2.45 2.773 5.22 2.402 8.31-0.367 3.1-1.817 5.66-4.34 7.7-2.527 2.03-5.344 2.9-8.441 2.6-3.11-0.3-5.641-1.67-7.614-4.12zm-32.679 22.42-17.547-21.78 15.98-12.87 17.547 21.78c1.649 2.05 2.43 4.32 2.344 6.8-0.082 2.47-1.063 4.66-2.922 6.54-0.094 0.21-0.453 0.57-1.09 1.08-2.281 1.84-4.781 2.61-7.492 2.32-2.707-0.29-4.981-1.58-6.82-3.87zm66.277-49.28-33.18-41.19-79.902 64.35 31.367 38.94c5.781 7.18 12.746 11.47 20.879 12.85 7.984 1.51 15.133-0.28 21.445-5.36 6.547-5.28 9.875-12.06 9.973-20.33 10.281 3.56 19.492 2.06 27.617-4.48 6.629-5.34 10.082-12.29 10.352-20.83 0.273-8.55-2.578-16.53-8.551-23.95"/><path transform="matrix(.13333 0 0 -.13333 0 377.95)" d="m877.77 1957.2 56.711 50.82 13.39-14.94-40.527-36.32 13.894-15.51 34.414 30.84 13.286-14.83-34.407-30.84 14.606-16.3 41.086 36.82 13.291-14.83-57.28-51.32-68.464 76.41"/><path transform="matrix(.13333 0 0 -.13333 0 377.95)" d="m969.72 2034.5 18.195 11.88 45.206-69.23 42.25 27.58 10.88-16.67-60.45-39.47-56.081 85.91"/><path transform="matrix(.13333 0 0 -.13333 0 377.95)" d="m1172.7 2028.6-20.07-8.32-39.32 94.76 20.08 8.33 39.31-94.77"/><path transform="matrix(.13333 0 0 -.13333 0 377.95)" d="m1221.9 2046.3-20.12-5.35-26.38 99.14 18.66 4.97 66.15-50.04-16.8 63.16 20.12 5.36 26.38-99.15-18.5-4.92-66.31 49.99 16.8-63.16"/><path transform="matrix(.13333 0 0 -.13333 0 377.95)" d="m1336.9 2153.3-32.54-3.01-1.85 19.98 86.58 8 1.84-19.98-32.54-3 7.6-82.18-21.5-1.99-7.59 82.18"/><path transform="matrix(.13333 0 0 -.13333 0 377.95)" d="m1427.3 2178.3 76.01-4.57-1.21-20.03-54.31 3.27-1.26-20.79 46.13-2.77-1.2-19.88-46.12 2.78-1.32-21.85 55.08-3.32-1.2-19.87-76.77 4.62 6.17 102.41"/><path transform="matrix(.13333 0 0 -.13333 0 377.95)" d="m1590.2 2137.4-25.34 5.79-6.26-27.42 25.34-5.78c3.95-0.91 7.51-0.34 10.67 1.69 3.17 2.03 5.2 5.02 6.11 8.98 0.9 3.94 0.36 7.5-1.62 10.65-1.99 3.16-4.95 5.18-8.9 6.09zm-42.07 30.18 46.53-10.62c10.28-2.35 18-7.44 23.18-15.27 5.37-7.88 6.97-16.56 4.81-26.05-1.47-6.42-4.45-11.84-8.94-16.27-4.5-4.43-9.88-7.39-16.14-8.87l13.52-42.53-23.56 5.38-12.17 38.17-21.2 4.84-7.68-33.63-21.19 4.84 22.84 100.01"/><path transform="matrix(.13333 0 0 -.13333 0 377.95)" d="m1653.3 2032.3-19.18 8.11 39.97 94.49 17.77-7.52 21.58-80.09 25.46 60.19 19.18-8.11-39.97-94.49-17.64 7.46-21.72 80.15-25.45-60.19"/><path transform="matrix(.13333 0 0 -.13333 0 377.95)" d="m1813.3 1990.7 6.8 36.23-30.46-20.75zm-57.4-7.5-18.95 12.39 92.53 62.08 14.89-9.74-19.78-109.66-18.95 12.4 3.67 19.21-37.27 24.38-16.14-11.06"/><path transform="matrix(.13333 0 0 -.13333 0 377.95)" d="m1905.8 1975.9-24.42 21.72 13.33 14.99 64.97-57.78-13.34-14.99-24.42 21.72-54.84-61.68-16.13 14.35 54.85 61.67"/><path transform="matrix(.13333 0 0 -.13333 0 377.95)" d="m1921.1 1844.1-14.45 16.22 76.58 68.27 14.47-16.23-76.6-68.26"/><path transform="matrix(.13333 0 0 -.13333 0 377.95)" d="m1995.5 1834.1c-7.65-5.13-12.42-11.85-14.28-20.18-1.86-8.32-0.28-16.23 4.74-23.72 4.96-7.41 11.65-11.83 20.05-13.27 8.55-1.47 16.61 0.33 24.19 5.41 7.49 5.02 12.18 11.76 14.07 20.23 1.86 8.32 0.31 16.18-4.65 23.59-5.02 7.49-11.74 11.96-20.14 13.4-8.41 1.44-16.4-0.38-23.98-5.46zm-35.62-15.09c2.8 14.2 10.43 25.47 22.89 33.82s25.78 11.13 39.99 8.32c14.31-2.97 25.7-10.77 34.16-23.4 8.51-12.71 11.37-26.16 8.57-40.36-2.81-14.2-10.44-25.47-22.9-33.82-12.45-8.35-25.78-11.12-39.98-8.32-14.06 2.78-25.38 10.56-33.95 23.36-8.58 12.79-11.5 26.26-8.78 40.4"/><path transform="matrix(.13333 0 0 -.13333 0 377.95)" d="m2020 1692.5-8.15 19.16 94.44 40.11 7.54-17.76-40.19-72.56 60.15 25.55 8.15-19.16-94.43-40.11-7.49 17.62 40.13 72.7-60.15-25.55"/><path transform="matrix(.13333 0 0 -.13333 0 377.95)" d="m2105.9 1551.3 30.1 21.28-36.32 6.3zm-46.44 34.56-4.98 22.09 109.65-19.83 3.91-17.35-90.53-64.97-4.98 22.09 16.01 11.24-9.8 43.45-19.28 3.28"/><path transform="matrix(.13333 0 0 -.13333 0 377.95)" d="m2181.4 1490.6 1.3-21.7-82.54-4.97 3.04-50.37-19.88-1.19-4.33 72.06 102.41 6.17"/><path transform="matrix(.13333 0 0 -.13333 0 377.95)" d="m922.41 811.34-14.039 11.898 34.918 109.54 17.875-15.152-24.871-75.801 70.581 37.07 17.87-15.148-102.33-52.41"/><path transform="matrix(.13333 0 0 -.13333 0 377.95)" d="m982.49 798.17 9.977 14.887 35.665-23.879-9.97-14.899-35.672 23.891"/><path transform="matrix(.13333 0 0 -.13333 0 377.95)" d="m1078.3 830.29 19.97-10.34-39.32-75.969 46.37-23.992-9.47-18.297-66.34 34.329 48.79 94.269"/><path transform="matrix(.13333 0 0 -.13333 0 377.95)" d="m1193.8 706.66-2.52 38.059-25.17-28.649zm-55.57-22.301-22.19 7.532 76.73 86.039 17.42-5.918 8.44-114.97-22.19 7.539-1.27 20.203-43.63 14.821-13.31-15.243"/><path transform="matrix(.13333 0 0 -.13333 0 377.95)" d="m1308.4 727.21-28.52 4.859-3.57-20.929 28.53-4.852c2.68-0.461 5.13-0.019 7.32 1.301 2.19 1.332 3.67 3.308 4.44 5.949 0.14 0.191 0.28 0.691 0.42 1.52 0.51 3-0.05 5.64-1.68 7.941s-3.94 3.711-6.94 4.211zm-3.76-40.832-31.62 5.383-4.01-23.563 31.62-5.379c3.21-0.55 6.11 0.129 8.72 2.02 2.61 1.898 4.19 4.5 4.76 7.808 0.56 3.301-0.08 6.282-1.91 8.942-1.84 2.64-4.35 4.25-7.56 4.789zm-7.31-43.899-53.95 9.18 17.81 104.64 51-8.68c9.4-1.59 16.78-5.723 22.14-12.371 5.39-6.449 7.38-13.809 5.97-22.078-1.46-8.582-5.9-15-13.32-19.262 8.4-7.488 11.7-16.57 9.88-27.211-1.47-8.679-6.01-15.301-13.58-19.859-7.59-4.559-16.23-6.012-25.95-4.36"/><path transform="matrix(.13333 0 0 -.13333 0 377.95)" d="m1364 740.49 78.76-1.738-0.46-20.75-56.28 1.238-0.47-21.527 47.79-1.063-0.46-20.589-47.79 1.062-0.51-22.652 57.07-1.258-0.45-20.602-79.55 1.77 2.35 106.11"/><path transform="matrix(.13333 0 0 -.13333 0 377.95)" d="m1458.8 739.83 22.35 2.539 9.65-85 51.87 5.891 2.32-20.473-74.21-8.418-11.98 105.46"/><path transform="matrix(.13333 0 0 -.13333 0 377.95)" d="m1566.8 658.05c-0.71 3.277-0.19 6.258 1.54 8.937 1.73 2.672 4.24 4.364 7.52 5.071 3.38 0.722 6.41 0.222 9.09-1.52 2.67-1.73 4.36-4.238 5.07-7.519 0.72-3.379 0.22-6.411-1.52-9.079-1.73-2.679-4.29-4.382-7.67-5.101-3.28-0.699-6.26-0.192-8.93 1.539-2.68 1.742-4.38 4.293-5.1 7.672"/><path transform="matrix(.13333 0 0 -.13333 0 377.95)" d="m1628.6 775.43c10.46 3.422 20.77 3.961 30.92 1.601 10.14-2.371 18.8-7.23 25.95-14.59l-18.13-14.371c-4.29 4-9.23 6.629-14.82 7.879-5.6 1.262-11.34 0.93-17.22-0.988-8.86-2.91-15.19-8.34-18.98-16.313-3.8-7.968-4.22-16.437-1.29-25.398 2.97-9.07 8.34-15.699 16.1-19.879 7.77-4.191 16.09-4.832 24.96-1.93 5.87 1.918 10.7 5.047 14.47 9.368 3.77 4.32 6.2 9.363 7.29 15.121l23.12-0.871c-1.41-10.168-5.52-19.2-12.3-27.11-6.79-7.898-15.42-13.558-25.88-16.988-15.15-4.949-29.38-4.09-42.7 2.578-13.36 6.762-22.45 17.52-27.28 32.27-4.82 14.742-3.85 28.8 2.92 42.152 6.97 13.418 17.93 22.578 32.87 27.469"/><path transform="matrix(.13333 0 0 -.13333 0 377.95)" d="m1728.6 755.9c4.49-8.418 10.92-14.019 19.29-16.808s16.67-1.988 24.91 2.398c8.14 4.332 13.39 10.75 15.76 19.25 2.4 8.653 1.39 17.133-3.05 25.461-4.38 8.242-10.83 13.77-19.35 16.602-8.37 2.789-16.63 2.008-24.77-2.321-8.24-4.39-13.53-10.832-15.9-19.332-2.36-8.507-1.32-16.918 3.11-25.25zm11.82-38.25c-14.33 4.372-25.13 13.411-32.42 27.102-7.3 13.691-8.76 27.699-4.39 42.031 4.55 14.418 13.77 25.321 27.66 32.707 13.97 7.442 28.11 8.981 42.44 4.614 14.32-4.372 25.12-13.403 32.42-27.102 7.29-13.691 8.75-27.699 4.38-42.02-4.32-14.179-13.52-25.019-27.58-32.511-14.07-7.489-28.24-9.09-42.51-4.821"/><path transform="matrix(.13333 0 0 -.13333 0 377.95)" d="m1877 782.87-17.23-13.949-66.77 82.519 17.24 13.938 69.23-27.309-12.14 73.5 17.24 13.95 66.76-82.52-17.24-13.941-40.55 50.121 10.37-59.571-11.49-9.3-55.77 22.441 40.35-49.879"/><path transform="matrix(.13333 0 0 -.13333 0 377.95)" d="m1430.4 816.5s5.93 33.09 8.04 47.859c13.71 85.789 22.16 173.14 43.99 257.18 25.89 96.21 53.57 198.63 98.81 288.07 8.32 13.69 21.64 40.07 41.39 38.98 51.73 4 103.95 20.83 146.42 51.98 31.67 23.37 56.65 49.72 74.33 85.18 13.62 35.89 19.43 71.16 19.23 109.65 0.58 34.71 5.98 65.94 19.43 98.02 2.94 8.84 6.36 17.45 5.71 26.95-19.76 2.02-45.13-14.81-63.3-21.55-43.01-14.3-90.19-20.58-134.46-29.19-36.02-6.1-68.87-16.42-98.68-38.33-48.81-34.59-73.27-77.31-91.52-133.96-7.76-31.97-14.25-68.92-12.01-101.67l1.74-3.78c8.26 2.76 22.55 27.96 27.18 35.41 29.15 45.19 57.9 86.08 102 119.41 7.28 4.41 48.95 27.23 54.14 15.92-0.69-14.75-24.57-35.36-34.11-47.18-85.93-101.3-136.31-237.16-181.21-360.33-24.7-68.16-40.08-140.43-69.12-206.51-1.37-2.41-3.43-7.2-6.02-8.43-7.98 7.94-12.59 27.11-15.86 37.75-13.19 46.81-24.72 95.33-38.13 142.14-32.82 123.72-71.7 268.47-147.21 374.09-57.9 76.45-135.69 163.27-228.71 196.57-1.18-0.02-3.559-0.06-4.75-0.08-3.434-7.43 4.738-12.98 9.344-18.13 111.78-114.26 201.72-270.24 250.22-421.48 50.3-158.59 97.69-327.9 125.75-492.08 2.37-13.27 5.35-29.441 8.65-42.461 0 0 30.14-1.879 44.21-1.879 14.05 0 44.51 1.879 44.51 1.879"/><path transform="matrix(.13333 0 0 -.13333 0 377.95)" d="m1536.5 921.64c30.7 0 54.54-23.84 54.54-53.563 0-30.379-23.84-53.887-54.86-53.887-30.7 0-55.2 23.508-55.2 53.887 0 29.723 24.5 53.563 55.2 53.563zm-0.65-10.782c-23.52 0-41.15-19.257-41.15-42.781 0-23.84 17.63-42.777 41.8-42.777 23.52-0.332 40.83 18.937 40.83 42.777 0 23.524-17.31 42.781-41.15 42.781zm-8.17-70.539h-12.41v53.231c4.9 0.98 11.76 1.961 20.58 1.961 10.12 0 14.69-1.633 18.61-4.242 2.94-2.29 5.23-6.54 5.23-11.43 0-6.211-4.57-10.781-11.11-12.738v-0.653c5.23-1.64 8.17-5.879 9.81-13.07 1.63-8.168 2.61-11.43 3.91-13.059h-13.39c-1.63 1.961-2.61 6.532-4.24 12.739-0.98 5.871-4.25 8.48-11.11 8.48h-5.88zm0.33 30.039h5.88c6.86 0 12.41 2.289 12.41 7.84 0 4.903-3.59 8.172-11.43 8.172-3.27 0-5.55-0.332-6.86-0.652v-15.36"/><path transform="matrix(.13333 0 0 -.13333 0 377.95)" d="m752.32 1101.8c18.223 0 33 14.78 33 33s-14.777 33-33 33c-18.222 0-33-14.78-33-33s14.778-33 33-33"/><path transform="matrix(.13333 0 0 -.13333 0 377.95)" d="m2086.5 1101.8c18.22 0 33 14.78 33 33s-14.78 33-33 33-33-14.78-33-33 14.78-33 33-33"/></g></g></g></svg>
