<?xml version="1.0" encoding="UTF-8"?>
<svg version="1.1" viewBox="0 0 248.98 292.88" xmlns="http://www.w3.org/2000/svg"><g transform="translate(-64.49 -39.491)"><g><path transform="matrix(.13333 0 0 -.13333 0 377.95)" d="m524.62 2538.4c-22.609 0-40.949-18.33-40.949-40.95v-2114.7c0-22.61 18.34-40.95 40.949-40.95h1785.4c22.6 0 40.94 18.34 40.94 40.95v2114.7c0 22.62-18.34 40.95-40.94 40.95h-1785.4" fill="#008940"/><path transform="matrix(.13333 0 0 -.13333 0 377.95)" d="m1417.3 781.43c453.54 0 823.32 370 823.32 823.33 0 453.54-369.78 823.33-823.32 823.33-453.33 0-823.32-369.79-823.32-823.33 0-453.33 369.99-823.33 823.32-823.33" fill="#fff200" stroke="#008940" stroke-miterlimit="10" stroke-width="20"/><path transform="matrix(.13333 0 0 -.13333 0 377.95)" d="m1417.3 1001.3c332.44 0 603.49 271.21 603.49 603.49 0 332.44-271.05 603.5-603.49 603.5-332.28 0-603.49-271.06-603.49-603.5 0-332.28 271.21-603.49 603.49-603.49" fill="#008940"/><path transform="matrix(.13333 0 0 -.13333 0 377.95)" d="m1426.7 1051.1s5.52 30.79 7.49 44.53c12.76 79.84 20.62 161.13 40.93 239.33 24.09 89.53 49.85 184.85 91.96 268.08 7.74 12.73 20.14 37.28 38.51 36.27 48.14 3.72 96.74 19.39 136.26 48.37 29.47 21.75 52.72 46.27 69.17 79.27 12.68 33.4 18.08 66.22 17.9 102.04 0.54 32.3 5.56 61.36 18.08 91.21 2.73 8.23 5.92 16.24 5.32 25.08-18.39 1.89-42.01-13.78-58.92-20.05-40.02-13.3-83.92-19.15-125.12-27.16-33.53-5.68-64.09-15.28-91.84-35.67-45.42-32.19-68.17-71.95-85.16-124.66-7.22-29.76-13.26-64.14-11.17-94.62l1.6-3.52c7.7 2.58 21 26.02 25.3 32.96 27.13 42.05 53.88 80.11 94.92 111.12 6.78 4.1 45.56 25.34 50.38 14.81-0.64-13.72-22.86-32.91-31.74-43.9-79.96-94.27-126.85-220.7-168.62-335.32-23-63.43-37.3-130.68-64.32-192.18-1.29-2.24-3.2-6.7-5.61-7.85-7.43 7.4-11.71 25.24-14.76 35.14-12.27 43.56-23 88.71-35.49 132.27-30.54 115.14-66.72 249.83-136.98 348.12-53.89 71.16-126.28 151.94-212.85 182.94-1.098-0.02-3.312-0.06-4.418-0.08-3.195-6.92 4.41-12.08 8.692-16.87 104.02-106.34 187.72-251.48 232.85-392.23 46.81-147.58 90.92-305.14 117.03-457.92 2.2-12.36 4.97-27.4 8.05-39.51 0 0 28.04-1.75 41.13-1.75 13.08 0 41.42 1.75 41.42 1.75" fill="#fff200"/><path transform="matrix(.13333 0 0 -.13333 0 377.95)" d="m1530.4 1156.8c30.7 0 54.54-23.84 54.54-53.56 0-30.38-23.84-53.89-54.86-53.89-30.7 0-55.2 23.51-55.2 53.89 0 29.72 24.5 53.56 55.2 53.56zm-0.65-10.78c-23.52 0-41.15-19.26-41.15-42.78 0-23.84 17.63-42.78 41.8-42.78 23.52-0.33 40.83 18.94 40.83 42.78 0 23.52-17.31 42.78-41.15 42.78zm-8.17-70.54h-12.41v53.23c4.9 0.98 11.76 1.96 20.58 1.96 10.12 0 14.69-1.63 18.61-4.24 2.94-2.29 5.23-6.54 5.23-11.43 0-6.21-4.57-10.78-11.11-12.74v-0.65c5.23-1.64 8.17-5.88 9.81-13.07 1.63-8.17 2.61-11.43 3.91-13.06h-13.39c-1.63 1.96-2.61 6.53-4.24 12.74-0.98 5.87-4.25 8.48-11.11 8.48h-5.88zm0.33 30.04h5.88c6.86 0 12.41 2.29 12.41 7.84 0 4.9-3.59 8.17-11.43 8.17-3.27 0-5.55-0.33-6.86-0.65v-15.36" fill="#fff200"/><g fill="#008940"><path transform="matrix(.13333 0 0 -.13333 0 377.95)" d="m751.22 1326.1c18.223 0 33 14.78 33 33s-14.777 33-33 33-33-14.78-33-33 14.777-33 33-33"/><path transform="matrix(.13333 0 0 -.13333 0 377.95)" d="m2084.9 1326.1c18.23 0 33 14.78 33 33s-14.77 33-33 33c-18.22 0-33-14.78-33-33s14.78-33 33-33"/><path transform="matrix(.13333 0 0 -.13333 0 377.95)" d="m763.78 1661.5-1.371-17.49-104.24-34.1 1.75 22.28 72.523 23.04-68.05 33.93 1.746 22.28 97.64-49.94"/><path transform="matrix(.13333 0 0 -.13333 0 377.95)" d="m746.43 1722.7-16.731 3.54 8.492 40.07 16.731-3.55-8.492-40.06"/><path transform="matrix(.13333 0 0 -.13333 0 377.95)" d="m691.87 1821.9 7.16 20.22 76.922-27.22 16.617 46.94 18.52-6.56-23.77-67.16-95.449 33.78"/><path transform="matrix(.13333 0 0 -.13333 0 377.95)" d="m817.02 1948.4-36.153 4.07 22.641-28.48zm11.55-55.94-10.824-19.56-67.804 86.58 8.5 15.35 109.36-11.51-10.824-19.55-19.176 2.21-21.285-38.45 12.054-15.07"/><path transform="matrix(.13333 0 0 -.13333 0 377.95)" d="m879.68 2047.1-19.203-23.83 17.75-14.3 19.203 23.82c1.945 2.41 2.734 5.15 2.375 8.21-0.364 3.05-1.793 5.58-4.285 7.59-2.489 2-5.266 2.86-8.329 2.57-3.062-0.3-5.566-1.65-7.511-4.06zm-32.25 22.14-17.321-21.49 15.77-12.71 17.316 21.49c1.633 2.02 2.41 4.25 2.321 6.7-0.082 2.45-1.039 4.6-2.879 6.46-0.094 0.21-0.449 0.56-1.074 1.07-2.258 1.82-4.723 2.58-7.395 2.29-2.672-0.28-4.918-1.56-6.738-3.81zm65.394-48.67-32.758-40.63-78.832 63.54 30.969 38.42c5.711 7.08 12.578 11.3 20.617 12.66 7.875 1.49 14.926-0.28 21.157-5.3 6.461-5.2 9.742-11.89 9.836-20.06 10.144 3.5 19.234 2.03 27.25-4.44 6.542-5.26 9.945-12.12 10.21-20.55 0.27-8.44-2.55-16.32-8.449-23.64"/><path transform="matrix(.13333 0 0 -.13333 0 377.95)" d="m885.09 2141 55.984 50.13 13.211-14.75-40.008-35.82 13.707-15.31 33.977 30.41 13.106-14.64-33.969-30.41 14.406-16.09 40.563 36.32 13.107-14.64-56.545-50.63-67.539 75.43"/><path transform="matrix(.13333 0 0 -.13333 0 377.95)" d="m975.86 2217.3 17.969 11.71 44.586-68.34 41.71 27.2 10.73-16.45-59.68-38.93-55.315 84.81"/><path transform="matrix(.13333 0 0 -.13333 0 377.95)" d="m1176.2 2211.4-19.81-8.21-38.76 93.53 19.82 8.22 38.75-93.54"/><path transform="matrix(.13333 0 0 -.13333 0 377.95)" d="m1224.8 2228.8-19.86-5.28-25.99 97.86 18.41 4.89 65.27-49.4-16.56 62.34 19.86 5.27 25.99-97.86-18.26-4.85-65.42 49.37 16.56-62.34"/><path transform="matrix(.13333 0 0 -.13333 0 377.95)" d="m1338 2334.3-32.11-2.96-1.82 19.71 85.43 7.89 1.83-19.71-32.12-2.97 7.5-81.11-21.21-1.95-7.5 81.1"/><path transform="matrix(.13333 0 0 -.13333 0 377.95)" d="m1427.2 2359.1 75.02-4.52-1.2-19.76-53.59 3.23-1.24-20.52 45.52-2.74-1.18-19.61-45.52 2.74-1.3-21.56 54.35-3.27-1.18-19.62-75.76 4.56 6.08 101.07"/><path transform="matrix(.13333 0 0 -.13333 0 377.95)" d="m1587.7 2318.7-25.01 5.7-6.16-27.06 25.01-5.7c3.89-0.89 7.4-0.33 10.53 1.67 3.12 2.01 5.13 4.96 6.02 8.87 0.89 3.89 0.36 7.4-1.6 10.52-1.96 3.1-4.89 5.11-8.79 6zm-41.52 29.77 45.92-10.47c10.14-2.31 17.77-7.33 22.88-15.06 5.3-7.78 6.89-16.34 4.75-25.7-1.44-6.34-4.38-11.69-8.81-16.07-4.44-4.37-9.74-7.29-15.92-8.75l13.36-41.97-23.26 5.3-12.03 37.67-20.91 4.76-7.57-33.2-20.91 4.77 22.5 98.72"/><path transform="matrix(.13333 0 0 -.13333 0 377.95)" d="m1650 2215-18.93 8 39.41 93.27 17.54-7.42 21.33-79.02 25.1 59.41 18.93-8-39.4-93.26-17.42 7.35-21.46 79.09-25.1-59.42"/><path transform="matrix(.13333 0 0 -.13333 0 377.95)" d="m1807.9 2174 6.7 35.75-30.05-20.49zm-56.63-7.43-18.71 12.22 91.29 61.3 14.69-9.6-19.47-108.23-18.71 12.22 3.61 18.97-36.79 24.04-15.91-10.92"/><path transform="matrix(.13333 0 0 -.13333 0 377.95)" d="m1899.2 2159.5-24.1 21.42 13.15 14.8 64.13-57-13.15-14.79-24.11 21.42-54.1-60.89-15.92 14.15 54.1 60.89"/><path transform="matrix(.13333 0 0 -.13333 0 377.95)" d="m1914.6 2029.2-14.27 16.01 75.58 67.38 14.27-16.02-75.58-67.37"/><path transform="matrix(.13333 0 0 -.13333 0 377.95)" d="m1987.8 2019.5c-7.56-5.07-12.26-11.72-14.1-19.93-1.83-8.22-0.27-16.02 4.69-23.41 4.9-7.31 11.5-11.68 19.8-13.09 8.43-1.45 16.39 0.34 23.86 5.35 7.39 4.96 12.02 11.61 13.88 19.96 1.84 8.22 0.3 15.98-4.6 23.29-4.96 7.39-11.59 11.79-19.88 13.22-8.3 1.41-16.18-0.38-23.65-5.39zm-35.16-14.91c2.76 14.01 10.29 25.14 22.58 33.38s25.44 10.99 39.46 8.22c14.12-2.93 25.37-10.62 33.72-23.08 8.41-12.54 11.23-25.81 8.47-39.83-2.76-14.01-10.29-25.14-22.58-33.39-12.29-8.24-25.44-10.98-39.46-8.22-13.87 2.74-25.04 10.42-33.51 23.04-8.47 12.63-11.36 25.92-8.68 39.88"/><path transform="matrix(.13333 0 0 -.13333 0 377.95)" d="m2012 1879.8-8.05 18.91 93.18 39.63 7.45-17.54-39.63-71.62 59.35 25.25 8.05-18.92-93.18-39.62-7.39 17.39 39.57 71.76-59.35-25.24"/><path transform="matrix(.13333 0 0 -.13333 0 377.95)" d="m2096.9 1740.5 29.7 21.01-35.85 6.21zm-45.84 34.09-4.92 21.8 108.21-19.53 3.87-17.12-89.31-64.16-4.93 21.8 15.8 11.11-9.69 42.87-19.03 3.23"/><path transform="matrix(.13333 0 0 -.13333 0 377.95)" d="m2171.4 1680.9 1.31-21.41-81.45-4.97 3.03-49.71-19.61-1.19-4.34 71.11 101.06 6.17"/><path transform="matrix(.13333 0 0 -.13333 0 377.95)" d="m915.6 1023.5-14.32 12.06 35.192 111.57 18.234-15.37-25.074-77.2 71.703 37.93 18.23-15.35-103.96-53.64"/><path transform="matrix(.13333 0 0 -.13333 0 377.95)" d="m976.78 1010.2 10.102 15.19 36.367-24.19-10.1-15.191-36.369 24.191"/><path transform="matrix(.13333 0 0 -.13333 0 377.95)" d="m1074.4 1043.1 20.36-10.45-39.74-77.429 47.26-24.261-9.57-18.641-67.61 34.691 49.3 96.09"/><path transform="matrix(.13333 0 0 -.13333 0 377.95)" d="m1192.4 917.68-2.69 38.711-25.52-29.243zm-56.46-22.899-22.6 7.59 77.76 87.82 17.75-5.972 8.99-116.94-22.59 7.578-1.38 20.551-44.44 14.93-13.49-15.559"/><path transform="matrix(.13333 0 0 -.13333 0 377.95)" d="m1309 938.99-29.04 4.832-3.55-21.3 29.04-4.84c2.74-0.45 5.22 0 7.45 1.359s3.72 3.379 4.5 6.063c0.13 0.187 0.27 0.707 0.42 1.546 0.5 3.051-0.08 5.75-1.74 8.082-1.67 2.329-4.03 3.75-7.08 4.258zm-3.67-41.558-32.2 5.359-4-23.988 32.2-5.36c3.26-0.543 6.22 0.149 8.87 2.09 2.65 1.938 4.25 4.59 4.81 7.957 0.56 3.371-0.1 6.391-1.97 9.082-1.88 2.7-4.45 4.321-7.71 4.86zm-7.28-44.692-54.93 9.141 17.74 106.53 51.93-8.64c9.57-1.59 17.1-5.758 22.57-12.52 5.5-6.539 7.56-14.02 6.16-22.43-1.46-8.742-5.96-15.289-13.49-19.648 8.57-7.602 11.96-16.813 10.15-27.652-1.47-8.84-6.05-15.59-13.75-20.25-7.7-4.668-16.49-6.18-26.38-4.532"/><path transform="matrix(.13333 0 0 -.13333 0 377.95)" d="m1365.6 952.69 80.14-1.492-0.39-21.121-57.27 1.07-0.41-21.918 48.64-0.902-0.39-20.957-48.63 0.91-0.43-23.043 58.07-1.078-0.39-20.961-80.95 1.512 2.01 107.98"/><path transform="matrix(.13333 0 0 -.13333 0 377.95)" d="m1462.3 952.37 22.73 2.68 10.16-86.449 52.76 6.199 2.44-20.813-75.48-8.879-12.61 107.26"/><path transform="matrix(.13333 0 0 -.13333 0 377.95)" d="m1572.4 869.6c-0.72 3.328-0.21 6.359 1.54 9.089 1.75 2.731 4.3 4.457 7.63 5.18 3.44 0.758 6.52 0.25 9.25-1.5s4.46-4.293 5.19-7.633c0.75-3.429 0.25-6.519-1.5-9.25-1.76-2.726-4.35-4.468-7.79-5.218-3.34-0.731-6.37-0.211-9.1 1.539s-4.47 4.339-5.22 7.793"/><path transform="matrix(.13333 0 0 -.13333 0 377.95)" d="m1634.8 989.25c10.63 3.531 21.12 4.109 31.45 1.75 10.34-2.371 19.16-7.281 26.46-14.738l-18.39-14.703c-4.37 4.062-9.41 6.711-15.11 7.972-5.7 1.258-11.54 0.899-17.51-1.082-9.01-2.988-15.43-8.551-19.25-16.668-3.83-8.121-4.23-16.742-1.21-25.851 3.06-9.211 8.54-15.942 16.46-20.168 7.92-4.231 16.39-4.852 25.4-1.864 5.97 1.981 10.87 5.18 14.69 9.59s6.27 9.551 7.36 15.422l23.53-0.801c-1.41-10.347-5.54-19.558-12.42-27.629-6.88-8.07-15.63-13.859-26.26-17.378-15.39-5.114-29.88-4.293-43.46 2.437-13.62 6.84-22.91 17.75-27.87 32.731-4.97 14.992-4.04 29.289 2.79 42.91 7.04 13.679 18.16 23.039 33.34 28.07"/><path transform="matrix(.13333 0 0 -.13333 0 377.95)" d="m1736.8 969.88c4.6-8.551 11.17-14.219 19.7-17.02 8.53-2.8 16.97-1.949 25.33 2.551 8.27 4.442 13.59 10.988 15.95 19.649 2.41 8.812 1.34 17.441-3.2 25.901-4.5 8.36-11.09 13.96-19.76 16.8-8.53 2.8-16.93 1.98-25.2-2.47-8.36-4.49-13.72-11.07-16.09-19.731-2.36-8.661-1.27-17.219 3.27-25.68zm12.19-38.859c-14.59 4.378-25.63 13.531-33.11 27.429-7.47 13.903-9.02 28.153-4.64 42.741 4.58 14.69 13.91 25.83 28 33.41 14.19 7.63 28.57 9.25 43.17 4.86 14.59-4.38 25.62-13.53 33.1-27.43 7.48-13.901 9.02-28.151 4.64-42.741-4.35-14.449-13.65-25.508-27.94-33.187-14.27-7.68-28.68-9.383-43.22-5.082"/><path transform="matrix(.13333 0 0 -.13333 0 377.95)" d="m1887.7 997.93-17.48-14.262-68.27 83.682 17.47 14.26 70.56-27.51-12.66 74.74 17.48 14.27 68.27-83.68-17.48-14.26-41.47 50.82 10.8-60.56-11.65-9.51-56.84 22.59 41.27-50.58"/></g><g fill="#fff200"><path transform="matrix(.13333 0 0 -.13333 0 377.95)" d="m658.15 444.29h-34.558l-82.989 202.5h44l56.418-140.99 56.114 140.99h44.004l-82.989-202.5"/><path transform="matrix(.13333 0 0 -.13333 0 377.95)" d="m755.61 646.79h147.97v-39.598h-105.73v-41.101h89.785v-39.301h-89.785v-43.199h107.21v-39.301h-149.45v202.5"/><path transform="matrix(.13333 0 0 -.13333 0 377.95)" d="m909.19 545.4c0 30 10.136 54.993 30.417 75 20.286 19.993 45.493 30 75.615 30 20.68 0 39.48-5.109 56.41-15.308 17.13-10.399 29.93-24.399 38.4-42l-40.76-15.301c-5.12 9.801-12.5 17.5-22.15 23.102-9.65 5.597-20.29 8.398-31.9 8.398-17.72 0-32.49-6.098-44.302-18.301-11.816-12.187-17.719-27.289-17.719-45.297 0-18 5.61-33.191 16.828-45.601 11.414-12.199 25.598-18.301 42.533-18.301 12.8 0 24.31 3.551 34.56 10.66 10.23 7.09 17.22 16.539 20.96 28.352h-60.54v36.59h108.4c0-1 0.14-2.84 0.44-5.551 0.29-2.692 0.43-4.449 0.43-5.238-0.39-30.614-10.33-55.801-29.82-75.614-19.89-20.199-44.5-30.297-73.84-30.297-29.529 0-54.248 10-74.13 30-19.891 20.2-29.832 45.098-29.832 74.707"/><path transform="matrix(.13333 0 0 -.13333 0 377.95)" d="m1133 646.79h147.97v-39.598h-105.73v-41.101h89.79v-39.301h-89.79v-43.199h107.21v-39.301h-149.45v202.5"/><path transform="matrix(.13333 0 0 -.13333 0 377.95)" d="m1360.8 607.19h-63.5v39.598h168.94v-39.598h-63.5v-162.9h-41.94v162.9"/><path transform="matrix(.13333 0 0 -.13333 0 377.95)" d="m1570.8 518.7-27.47 67.192-27.47-67.192zm-85.36-74.41h-44.01l84.48 202.5h34.55l84.47-202.5h-44.01l-14.48 35.711h-86.53l-14.47-35.711"/><path transform="matrix(.13333 0 0 -.13333 0 377.95)" d="m1752.1 607.19h-50.51v-55.492h50.51c7.87 0 14.36 2.641 19.49 7.942 5.12 5.3 7.68 11.949 7.68 19.961 0 7.988-2.56 14.589-7.68 19.789-5.13 5.211-11.62 7.8-19.49 7.8zm-92.75 39.598h92.75c20.47 0 37.3-6.398 50.5-19.199 13.58-12.801 20.38-28.789 20.38-47.988 0-13.012-3.3-24.762-9.9-35.262s-15.5-18.551-26.72-24.149l44-75.902h-46.96l-39.57 68.102h-42.24v-68.102h-42.24v202.5"/><path transform="matrix(.13333 0 0 -.13333 0 377.95)" d="m1890.6 444.29h-42.23v202.5h42.23v-202.5"/><path transform="matrix(.13333 0 0 -.13333 0 377.95)" d="m2034.1 518.7-27.47 67.192-27.47-67.192zm-85.36-74.41h-44.01l84.48 202.5h34.55l84.47-202.5h-44.01l-14.48 35.711h-86.53l-14.47-35.711"/><path transform="matrix(.13333 0 0 -.13333 0 377.95)" d="m2157.3 444.29h-40.47v202.5h37.51l99.24-129v129h40.46v-202.5h-37.21l-99.53 129.01v-129.01"/></g></g></g></svg>
