<?xml version="1.0" encoding="UTF-8"?>
<svg version="1.1" viewBox="0 0 219.55 292.49" xmlns="http://www.w3.org/2000/svg"><g transform="translate(-79.2 -39.459)"><g><path transform="matrix(.13333 0 0 -.13333 0 377.95)" d="m1417.3 892c453.54 0 823.32 370 823.32 823.33 0 453.54-369.78 823.33-823.32 823.33-453.33 0-823.33-369.79-823.33-823.33 0-453.33 369.99-823.33 823.33-823.33" fill="#fff200"/><g fill="#008940"><path transform="matrix(.13333 0 0 -.13333 0 377.95)" d="m755.03 1776.3-1.375-17.73-105.59-34.63 1.75 22.57 73.472 23.41-68.988 34.33 1.754 22.58 98.98-50.53"/><path transform="matrix(.13333 0 0 -.13333 0 377.95)" d="m737.45 1838.6-16.949 3.59 8.586 40.6 16.953-3.59-8.59-40.6"/><path transform="matrix(.13333 0 0 -.13333 0 377.95)" d="m682.04 1938.8 7.238 20.5 77.969-27.53 16.801 47.58 18.773-6.63-24.039-68.08-96.742 34.16"/><path transform="matrix(.13333 0 0 -.13333 0 377.95)" d="m808.89 2067.3-36.637 4.11 22.957-28.85zm11.722-56.68-10.957-19.82-68.738 87.7 8.602 15.56 110.82-11.62-10.961-19.82-19.434 2.24-21.55-38.97 12.218-15.27"/><path transform="matrix(.13333 0 0 -.13333 0 377.95)" d="m872.35 2167.4-19.45-24.15 17.997-14.49 19.445 24.15c1.973 2.45 2.773 5.22 2.402 8.31-0.363 3.1-1.816 5.66-4.34 7.7-2.523 2.03-5.339 2.9-8.441 2.6-3.106-0.3-5.641-1.67-7.613-4.12zm-32.68 22.42-17.543-21.78 15.98-12.87 17.543 21.78c1.653 2.05 2.43 4.32 2.344 6.8-0.082 2.47-1.058 4.66-2.922 6.54-0.09 0.21-0.453 0.57-1.086 1.08-2.285 1.84-4.785 2.61-7.496 2.32-2.707-0.29-4.98-1.58-6.82-3.87zm66.277-49.28-33.175-41.19-79.907 64.35 31.367 38.94c5.786 7.18 12.747 11.47 20.879 12.85 7.985 1.51 15.133-0.28 21.45-5.36 6.546-5.28 9.871-12.06 9.968-20.33 10.286 3.56 19.493 2.06 27.618-4.49 6.628-5.33 10.082-12.28 10.351-20.82 0.274-8.55-2.578-16.53-8.551-23.95"/><path transform="matrix(.13333 0 0 -.13333 0 377.95)" d="m877.79 2262.5 56.715 50.82 13.387-14.95-40.528-36.31 13.899-15.51 34.414 30.84 13.285-14.83-34.41-30.84 14.605-16.3 41.09 36.82 13.29-14.83-57.282-51.32-68.465 76.41"/><path transform="matrix(.13333 0 0 -.13333 0 377.95)" d="m969.75 2339.8 18.195 11.88 45.199-69.23 42.26 27.58 10.88-16.67-60.45-39.47-56.084 85.91"/><path transform="matrix(.13333 0 0 -.13333 0 377.95)" d="m1172.7 2333.9-20.07-8.32-39.32 94.76 20.08 8.33 39.31-94.77"/><path transform="matrix(.13333 0 0 -.13333 0 377.95)" d="m1222 2351.6-20.12-5.35-26.38 99.14 18.66 4.96 66.15-50.03-16.8 63.16 20.12 5.36 26.38-99.15-18.51-4.92-66.3 49.99 16.8-63.16"/><path transform="matrix(.13333 0 0 -.13333 0 377.95)" d="m1337 2458.6-32.54-3.01-1.85 19.98 86.57 8 1.85-19.98-32.54-3 7.59-82.18-21.49-1.99-7.59 82.18"/><path transform="matrix(.13333 0 0 -.13333 0 377.95)" d="m1427.3 2483.6 76.02-4.58-1.21-20.02-54.31 3.27-1.26-20.79 46.13-2.77-1.2-19.88-46.12 2.78-1.32-21.85 55.08-3.32-1.2-19.87-76.77 4.62 6.16 102.41"/><path transform="matrix(.13333 0 0 -.13333 0 377.95)" d="m1590.2 2442.7-25.33 5.79-6.26-27.42 25.33-5.79c3.95-0.89 7.51-0.33 10.68 1.7s5.2 5.02 6.11 8.98c0.89 3.94 0.36 7.5-1.62 10.65-1.99 3.16-4.96 5.19-8.91 6.09zm-42.06 30.19 46.53-10.63c10.27-2.35 18-7.44 23.18-15.27 5.37-7.88 6.97-16.56 4.8-26.05-1.46-6.42-4.44-11.84-8.94-16.27-4.49-4.43-9.87-7.39-16.13-8.87l13.52-42.53-23.56 5.38-12.18 38.17-21.19 4.84-7.68-33.63-21.19 4.84 22.84 100.02"/><path transform="matrix(.13333 0 0 -.13333 0 377.95)" d="m1653.4 2337.6-19.18 8.11 39.97 94.49 17.78-7.52 21.58-80.09 25.45 60.19 19.18-8.11-39.96-94.49-17.64 7.46-21.72 80.15-25.46-60.19"/><path transform="matrix(.13333 0 0 -.13333 0 377.95)" d="m1813.3 2296 6.81 36.23-30.46-20.75zm-57.39-7.5-18.95 12.39 92.53 62.08 14.88-9.74-19.77-109.66-18.95 12.4 3.67 19.21-37.28 24.38-16.13-11.06"/><path transform="matrix(.13333 0 0 -.13333 0 377.95)" d="m1905.8 2281.2-24.41 21.72 13.33 14.99 64.97-57.78-13.34-14.99-24.42 21.72-54.85-61.68-16.12 14.35 54.84 61.67"/><path transform="matrix(.13333 0 0 -.13333 0 377.95)" d="m1921.1 2149.4-14.46 16.22 76.59 68.27 14.46-16.23-76.59-68.26"/><path transform="matrix(.13333 0 0 -.13333 0 377.95)" d="m1995.5 2139.4c-7.65-5.13-12.42-11.85-14.28-20.18-1.87-8.32-0.28-16.23 4.74-23.72 4.96-7.41 11.65-11.83 20.05-13.28 8.55-1.46 16.61 0.34 24.18 5.42 7.49 5.02 12.19 11.76 14.08 20.23 1.86 8.32 0.31 16.18-4.65 23.59-5.02 7.49-11.74 11.96-20.14 13.4-8.41 1.44-16.4-0.38-23.98-5.46zm-35.62-15.09c2.8 14.2 10.43 25.47 22.89 33.82s25.78 11.13 39.99 8.32c14.3-2.97 25.7-10.77 34.16-23.4 8.51-12.71 11.37-26.16 8.57-40.36-2.81-14.2-10.44-25.47-22.9-33.82-12.45-8.35-25.78-11.13-39.98-8.32-14.06 2.78-25.38 10.56-33.95 23.36-8.58 12.79-11.5 26.26-8.78 40.4"/><path transform="matrix(.13333 0 0 -.13333 0 377.95)" d="m2020 1997.8-8.14 19.16 94.43 40.11 7.55-17.76-40.19-72.56 60.15 25.55 8.15-19.16-94.44-40.12-7.48 17.63 40.13 72.7-60.16-25.55"/><path transform="matrix(.13333 0 0 -.13333 0 377.95)" d="m2105.9 1856.6 30.1 21.28-36.32 6.3zm-46.44 34.56-4.98 22.09 109.64-19.84 3.92-17.34-90.53-64.97-4.98 22.09 16.01 11.24-9.8 43.45-19.28 3.28"/><path transform="matrix(.13333 0 0 -.13333 0 377.95)" d="m2181.5 1795.9 1.31-21.7-82.54-4.97 3.04-50.37-19.88-1.19-4.33 72.06 102.4 6.17"/><path transform="matrix(.13333 0 0 -.13333 0 377.95)" d="m922.42 1116.6-14.039 11.9 34.918 109.54 17.875-15.15-24.871-75.8 70.575 37.07 17.87-15.15-102.33-52.41"/><path transform="matrix(.13333 0 0 -.13333 0 377.95)" d="m982.5 1103.5 9.976 14.9 35.67-23.89-9.98-14.89-35.666 23.88"/><path transform="matrix(.13333 0 0 -.13333 0 377.95)" d="m1078.6 1135.4 19.98-10.32-39.29-75.99 46.37-23.98-9.45-18.3-66.36 34.31 48.75 94.28"/><path transform="matrix(.13333 0 0 -.13333 0 377.95)" d="m1193.9 1012-2.52 38.05-25.18-28.65zm-55.58-22.312-22.18 7.532 76.72 86.04 17.42-5.91 8.45-114.97-22.19 7.531-1.28 20.199-43.62 14.82-13.32-15.242"/><path transform="matrix(.13333 0 0 -.13333 0 377.95)" d="m1308.7 1032.5-28.53 4.84-3.55-20.93 28.53-4.84c2.68-0.46 5.12-0.02 7.31 1.31 2.2 1.32 3.68 3.31 4.44 5.94 0.14 0.19 0.28 0.7 0.42 1.53 0.51 2.99-0.06 5.64-1.68 7.94-1.63 2.29-3.95 3.7-6.94 4.21zm-3.74-40.841-31.63 5.371-4-23.57 31.63-5.36c3.2-0.55 6.1 0.129 8.71 2.032 2.61 1.886 4.2 4.488 4.76 7.796 0.56 3.313-0.08 6.293-1.92 8.942-1.83 2.648-4.35 4.25-7.55 4.789zm-7.29-43.899-53.96 9.161 17.76 104.64 51.01-8.65c9.4-1.6 16.79-5.72 22.14-12.37 5.39-6.45 7.39-13.8 5.99-22.07-1.46-8.58-5.9-15.01-13.32-19.268 8.4-7.492 11.7-16.563 9.9-27.203-1.48-8.68-6-15.309-13.58-19.867-7.59-4.563-16.23-6.024-25.94-4.372"/><path transform="matrix(.13333 0 0 -.13333 0 377.95)" d="m1364.1 1045.8 78.76-1.75-0.46-20.75-56.29 1.25-0.47-21.54 47.79-1.06-0.46-20.588-47.79 1.058-0.5-22.64 57.07-1.27-0.46-20.59-79.55 1.762 2.36 106.12"/><path transform="matrix(.13333 0 0 -.13333 0 377.95)" d="m1458.8 1045.1 22.34 2.53 9.65-85 51.87 5.891 2.33-20.473-74.22-8.418-11.97 105.47"/><path transform="matrix(.13333 0 0 -.13333 0 377.95)" d="m1567.1 963.41c-0.7 3.281-0.19 6.25 1.54 8.93s4.24 4.371 7.52 5.07c3.38 0.731 6.41 0.219 9.08-1.512 2.68-1.726 4.37-4.226 5.08-7.507 0.72-3.391 0.22-6.422-1.51-9.09-1.73-2.68-4.29-4.383-7.67-5.102-3.28-0.711-6.26-0.187-8.94 1.539-2.68 1.731-4.38 4.293-5.1 7.672"/><path transform="matrix(.13333 0 0 -.13333 0 377.95)" d="m1628.6 1080.7c10.46 3.43 20.76 3.96 30.91 1.6s18.8-7.23 25.95-14.59l-18.13-14.37c-4.28 4-9.23 6.63-14.82 7.89-5.6 1.25-11.33 0.92-17.21-1-8.87-2.9-15.2-8.34-18.99-16.31s-4.22-16.43-1.28-25.4c2.96-9.07 8.33-15.69 16.1-19.88 7.77-4.191 16.08-4.832 24.95-1.93 5.88 1.93 10.7 5.05 14.48 9.37 3.77 4.32 6.2 9.37 7.29 15.13l23.12-0.87c-1.42-10.18-5.52-19.21-12.31-27.11-6.79-7.91-15.42-13.57-25.88-16.988-15.14-4.961-29.38-4.102-42.7 2.566-13.36 6.774-22.44 17.531-27.27 32.272-4.83 14.75-3.86 28.8 2.92 42.16 6.96 13.42 17.92 22.57 32.87 27.46"/><path transform="matrix(.13333 0 0 -.13333 0 377.95)" d="m1728.6 1061.2c4.48-8.43 10.91-14.03 19.28-16.82 8.37-2.78 16.68-1.98 24.91 2.4 8.15 4.34 13.4 10.76 15.76 19.26 2.41 8.64 1.39 17.13-3.04 25.46-4.39 8.23-10.84 13.76-19.35 16.59-8.38 2.79-16.63 2.02-24.78-2.32-8.24-4.38-13.53-10.83-15.89-19.33-2.37-8.5-1.33-16.92 3.11-25.24zm11.81-38.25c-14.32 4.37-25.13 13.4-32.42 27.09-7.29 13.7-8.75 27.71-4.38 42.03 4.55 14.42 13.77 25.33 27.65 32.72 13.97 7.44 28.11 8.97 42.44 4.6 14.32-4.37 25.13-13.4 32.42-27.09 7.29-13.7 8.75-27.71 4.39-42.03-4.33-14.18-13.53-25.01-27.59-32.5-14.07-7.49-28.23-9.1-42.51-4.82"/><path transform="matrix(.13333 0 0 -.13333 0 377.95)" d="m1877 1088.2-17.24-13.94-66.76 82.51 17.23 13.95 69.24-27.32-12.15 73.51 17.24 13.94 66.76-82.51-17.23-13.95-40.56 50.12 10.37-59.57-11.48-9.3-55.78 22.44 40.36-49.88"/><path transform="matrix(.13333 0 0 -.13333 0 377.95)" d="m1430.4 1121.8s5.93 33.09 8.04 47.86c13.71 85.78 22.16 173.14 43.99 257.17 25.89 96.21 53.57 198.64 98.81 288.08 8.32 13.68 21.64 40.06 41.39 38.98 51.73 3.99 103.95 20.83 146.42 51.98 31.67 23.37 56.65 49.71 74.33 85.18 13.62 35.88 19.43 71.15 19.23 109.65 0.58 34.71 5.98 65.94 19.43 98.01 2.94 8.84 6.36 17.45 5.71 26.95-19.76 2.03-45.13-14.81-63.3-21.54-43.01-14.3-90.19-20.58-134.46-29.19-36.02-6.1-68.87-16.43-98.68-38.33-48.81-34.6-73.27-77.32-91.52-133.96-7.76-31.98-14.25-68.93-12.01-101.68l1.74-3.78c8.26 2.77 22.55 27.97 27.18 35.42 29.15 45.18 57.9 86.08 102 119.41 7.28 4.4 48.95 27.23 54.14 15.92-0.69-14.75-24.57-35.37-34.11-47.18-85.93-101.3-136.31-237.16-181.21-360.33-24.7-68.16-40.08-140.43-69.12-206.51-1.37-2.42-3.43-7.21-6.02-8.44-7.98 7.94-12.59 27.12-15.86 37.76-13.19 46.81-24.72 95.32-38.13 142.14-32.82 123.72-71.7 268.46-147.21 374.08-57.9 76.46-135.69 163.27-228.71 196.58-1.18-0.02-3.559-0.06-4.75-0.08-3.434-7.43 4.738-12.99 9.344-18.13 111.78-114.27 201.72-270.24 250.22-421.49 50.3-158.58 97.69-327.89 125.75-492.07 2.37-13.28 5.35-29.45 8.65-42.46 0 0 30.14-1.88 44.21-1.88 14.05 0 44.51 1.88 44.51 1.88"/><path transform="matrix(.13333 0 0 -.13333 0 377.95)" d="m1536.5 1226.9c30.7 0 54.54-23.84 54.54-53.56 0-30.38-23.84-53.89-54.86-53.89-30.7 0-55.2 23.51-55.2 53.89 0 29.72 24.5 53.56 55.2 53.56zm-0.65-10.78c-23.52 0-41.15-19.26-41.15-42.78 0-23.84 17.63-42.78 41.8-42.78 23.52-0.33 40.83 18.94 40.83 42.78 0 23.52-17.31 42.78-41.15 42.78zm-8.17-70.54h-12.41v53.23c4.9 0.98 11.76 1.96 20.58 1.96 10.12 0 14.69-1.63 18.61-4.24 2.94-2.29 5.23-6.54 5.23-11.43 0-6.21-4.57-10.78-11.11-12.74v-0.65c5.23-1.64 8.17-5.88 9.81-13.07 1.63-8.17 2.61-11.43 3.91-13.06h-13.39c-1.63 1.96-2.61 6.53-4.24 12.74-0.98 5.87-4.25 8.48-11.11 8.48h-5.88zm0.33 30.04h5.88c6.86 0 12.41 2.29 12.41 7.84 0 4.9-3.59 8.17-11.43 8.17-3.27 0-5.55-0.33-6.86-0.65v-15.36"/><path transform="matrix(.13333 0 0 -.13333 0 377.95)" d="m752.32 1407.1c18.223 0 33 14.77 33 33 0 18.22-14.777 33-33 33-18.222 0-33-14.78-33-33 0-18.23 14.778-33 33-33"/><path transform="matrix(.13333 0 0 -.13333 0 377.95)" d="m2086.5 1407.1c18.22 0 33 14.77 33 33 0 18.22-14.78 33-33 33-18.23 0-33-14.78-33-33 0-18.23 14.77-33 33-33"/></g><path transform="matrix(.13333 0 0 -.13333 0 377.95)" d="m632.27 771.07c-21.129 0-38.27-17.129-38.27-38.269v-349.58c0-21.129 17.141-38.27 38.27-38.27h1570.1c21.14 0 38.27 17.141 38.27 38.27v349.58c0 21.14-17.13 38.269-38.27 38.269h-1570.1" fill="#fff200"/><g fill="#008940"><path transform="matrix(.13333 0 0 -.13333 0 377.95)" d="m862.08 404.66h-51.121l-122.78 297h65.101l83.457-206.8 83.016 206.8h65.101l-122.78-297"/><path transform="matrix(.13333 0 0 -.13333 0 377.95)" d="m1004.6 701.66h218.91v-58.07h-156.42v-60.289h132.83v-57.629h-132.83v-63.363h158.61v-57.649h-221.1v297"/><path transform="matrix(.13333 0 0 -.13333 0 377.95)" d="m1245 552.94c0 44 15 80.661 45.01 110 30 29.329 67.29 44 111.86 44 30.58 0 58.4-7.48 83.45-22.441 25.34-15.25 44.27-35.789 56.8-61.602l-60.3-22.437c-7.57 14.379-18.5 25.66-32.76 33.879-14.28 8.211-30.01 12.32-47.19 12.32-26.22 0-48.07-8.949-65.54-26.828-17.48-17.902-26.22-40.043-26.22-66.453 0-26.399 8.3-48.688 24.9-66.867 16.9-17.91 37.87-26.852 62.92-26.852 18.93 0 35.97 5.199 51.13 15.621 15.14 10.41 25.48 24.27 31.02 41.59h-89.57v53.668h160.35c0-1.469 0.22-4.18 0.66-8.141 0.44-3.957 0.65-6.527 0.65-7.699-0.58-44.867-15.29-81.84-44.13-110.88-29.42-29.629-65.83-44.429-109.23-44.429-43.69 0-80.26 14.648-109.68 43.988-29.42 29.633-44.13 66.141-44.13 109.56"/><path transform="matrix(.13333 0 0 -.13333 0 377.95)" d="m1736.8 513.78-40.64 98.571-40.63-98.571zm-126.28-109.12h-65.1l124.96 297h51.12l124.97-297h-65.1l-21.42 52.36h-128.02l-21.41-52.36"/><path transform="matrix(.13333 0 0 -.13333 0 377.95)" d="m1925.8 404.66h-59.86v297h55.49l146.82-189.2v189.2h59.85v-297h-55.05l-147.25 189.2v-189.2"/></g></g></g></svg>
