<?xml version="1.0" encoding="UTF-8" standalone="no"?>
<svg
   width="360.87866"
   height="61.555199"
   viewBox="0 0 360.87866 61.555199"
   fill="none"
   version="1.1"
   id="svg111"
   sodipodi:docname="store-review-rating.svg"
   inkscape:version="1.2.2 (732a01da63, 2022-12-09, custom)"
   xmlns:inkscape="http://www.inkscape.org/namespaces/inkscape"
   xmlns:sodipodi="http://sodipodi.sourceforge.net/DTD/sodipodi-0.dtd"
   xmlns="http://www.w3.org/2000/svg"
   xmlns:svg="http://www.w3.org/2000/svg">
  <sodipodi:namedview
     id="namedview113"
     pagecolor="#ffffff"
     bordercolor="#000000"
     borderopacity="0.25"
     inkscape:showpageshadow="2"
     inkscape:pageopacity="0.0"
     inkscape:pagecheckerboard="0"
     inkscape:deskcolor="#d1d1d1"
     showgrid="false"
     inkscape:zoom="8.5583333"
     inkscape:cx="145.99805"
     inkscape:cy="37.799416"
     inkscape:window-width="2510"
     inkscape:window-height="1369"
     inkscape:window-x="0"
     inkscape:window-y="0"
     inkscape:window-maximized="1"
     inkscape:current-layer="g104" />
  <g
     clip-path="url(#clip0_1682_5679)"
     id="g104"
     transform="translate(-32.3995,-88.6088)">
    <mask
       id="mask0_1682_5679"
       maskUnits="userSpaceOnUse"
       x="32"
       y="88"
       width="54"
       height="63">
      <path
         d="M 32.2458,88.6088 H 85.2 V 150.164 H 32.2458 Z"
         fill="#ffffff"
         id="path18" />
    </mask>
    <g
       mask="url(#mask0_1682_5679)"
       id="g23">
      <path
         fill-rule="evenodd"
         clip-rule="evenodd"
         d="m 84.9851,111.7 v 14.871 c 0,2.097 -1.6791,3.806 -3.7419,3.806 -2.0639,0 -3.7326,-1.709 -3.7326,-3.806 V 111.7 c 0,-2.098 1.6664,-3.799 3.7326,-3.799 2.0662,0 3.7419,1.701 3.7419,3.799 z m -48.853,-3.803 c -2.0616,0 -3.7326,1.705 -3.7326,3.801 v 14.87 c 0,2.098 1.671,3.807 3.7326,3.807 2.0755,0 3.7418,-1.709 3.7418,-3.807 V 111.7 c 0,-2.098 -1.6663,-3.803 -3.7418,-3.803 z m 5.9964,27.272 c 0,1.617 1.307,2.919 2.9167,2.919 h 3.3339 v 8.274 c 0,2.099 1.678,3.8 3.7419,3.8 2.0627,0 3.7372,-1.701 3.7372,-3.8 v -8.272 h 5.815 v 8.275 c 0,2.098 1.6825,3.799 3.7418,3.799 2.0662,0 3.7418,-1.701 3.7418,-3.799 v -8.275 h 3.3258 c 1.6144,0 2.9214,-1.302 2.9214,-2.919 V 108.014 H 42.1285 Z M 75.3242,105.596 H 42.0534 c 0.4345,-5.052 3.862,-9.3772 8.7525,-11.6527 l -3.075,-4.4745 c -0.1815,-0.2627 -0.1422,-0.6111 0.097,-0.7766 0.2392,-0.1609 0.5813,-0.0799 0.7708,0.1828 l 3.1883,4.6447 c 2.1067,-0.8287 4.4398,-1.2974 6.9047,-1.2974 2.4661,0 4.7946,0.4687 6.9047,1.2974 l 3.1895,-4.6447 c 0.1883,-0.2627 0.5315,-0.3437 0.7708,-0.1828 0.238,0.1655 0.2785,0.5139 0.0959,0.7766 l -3.0751,4.4745 c 4.8882,2.2755 8.318,6.6007 8.7467,11.6527 z M 53.5181,99.1378 c 0,-1.0185 -0.8274,-1.8391 -1.8443,-1.8391 -1.0158,0 -1.8432,0.8229 -1.8432,1.8391 0,1.0232 0.8274,1.8472 1.8432,1.8472 1.0169,0 1.8443,-0.824 1.8443,-1.8472 z m 14.2624,0 c 0,-1.0185 -0.8216,-1.8391 -1.8432,-1.8391 -1.0169,0 -1.8374,0.8229 -1.8374,1.8391 0,1.0232 0.8228,1.8472 1.8374,1.8472 1.0216,0 1.8432,-0.824 1.8432,-1.8472 z"
         fill="#4a4a4a"
         id="path21" />
    </g>
    <mask
       id="mask1_1682_5679"
       maskUnits="userSpaceOnUse"
       x="236"
       y="101"
       width="45"
       height="42">
      <path
         d="m 236.57,101.926 h 43.709 v 40.683 H 236.57 Z"
         fill="#ffffff"
         id="path25" />
    </mask>
    <g
       mask="url(#mask1_1682_5679)"
       id="g30">
      <path
         d="m 280.022,126.11 c -0.178,-0.274 -0.462,-0.464 -0.787,-0.506 -4.264,-0.559 -7.268,-4.481 -6.711,-8.772 0.388,-3.025 2.499,-5.545 5.409,-6.452 0.588,-0.19 0.913,-0.822 0.725,-1.412 -0.032,-0.095 -0.074,-0.18 -0.126,-0.264 -1.954,-3.542 -5.441,-5.989 -9.432,-6.61 -2.017,0.095 -3.992,0.526 -5.871,1.265 -1.345,0.548 -2.773,0.875 -4.212,0.991 -1.449,-0.106 -2.867,-0.443 -4.211,-0.991 -1.87,-0.739 -3.855,-1.17 -5.872,-1.265 -4.19,0.01 -12.33,5.966 -12.33,16.878 0,10.374 7.542,23.616 13.443,23.616 2.258,0.021 4.485,-0.495 6.502,-1.507 0.757,-0.422 1.597,-0.675 2.468,-0.749 0.861,0.074 1.701,0.327 2.468,0.749 2.017,1.012 4.244,1.517 6.502,1.507 4.683,0 9.967,-8.065 12.183,-15.55 0.073,-0.317 0.021,-0.654 -0.148,-0.928 z"
         fill="#4a4a4a"
         id="path28" />
    </g>
    <mask
       id="mask2_1682_5679"
       maskUnits="userSpaceOnUse"
       x="256"
       y="88"
       width="15"
       height="15">
      <path
         d="m 256.487,88.6088 h 13.905 v 13.6132 h -13.905 z"
         fill="#ffffff"
         id="path32" />
    </mask>
    <g
       mask="url(#mask2_1682_5679)"
       id="g37">
      <path
         d="m 257.882,102.104 c 6.807,-0.01 12.32,-5.5449 12.32,-12.3667 0,-0.6215 -0.504,-1.1285 -1.123,-1.1285 -6.795,0.0116 -12.31,5.5463 -12.31,12.3672 0,0.622 0.494,1.128 1.113,1.128 z"
         fill="#4a4a4a"
         id="path35" />
    </g>
    <mask
       id="mask3_1682_5679"
       maskUnits="userSpaceOnUse"
       x="297"
       y="104"
       width="97"
       height="17">
      <path
         d="m 297.074,104.889 h 96.294 v 15.3 h -96.294 z"
         fill="#ffffff"
         id="path39" />
    </mask>
    <g
       mask="url(#mask3_1682_5679)"
       id="g44">
      <path
         d="m 312.828,111.023 -3.547,3.48 c -0.074,0.072 -0.107,0.176 -0.09,0.279 l 0.838,4.915 c 0.044,0.258 -0.226,0.455 -0.456,0.332 l -4.384,-2.32 c -0.091,-0.048 -0.2,-0.048 -0.291,0 l -4.384,2.32 c -0.23,0.121 -0.499,-0.074 -0.455,-0.332 l 0.838,-4.915 c 0.018,-0.103 -0.016,-0.207 -0.09,-0.279 l -3.548,-3.48 c -0.186,-0.183 -0.083,-0.501 0.174,-0.538 l 4.902,-0.718 c 0.101,-0.015 0.19,-0.079 0.235,-0.172 l 2.193,-4.471 c 0.114,-0.235 0.447,-0.235 0.561,0 l 2.192,4.471 c 0.047,0.093 0.134,0.157 0.237,0.172 l 4.901,0.718 c 0.258,0.037 0.36,0.355 0.174,0.538 z m 19.915,-0.538 -4.902,-0.718 c -0.102,-0.015 -0.191,-0.079 -0.236,-0.172 l -2.192,-4.471 c -0.114,-0.235 -0.447,-0.235 -0.561,0 l -2.193,4.471 c -0.046,0.093 -0.134,0.157 -0.236,0.172 l -4.901,0.718 c -0.258,0.037 -0.36,0.355 -0.174,0.538 l 3.547,3.48 c 0.074,0.072 0.107,0.176 0.09,0.279 l -0.838,4.915 c -0.044,0.258 0.225,0.455 0.455,0.332 l 4.384,-2.32 c 0.091,-0.048 0.201,-0.048 0.292,0 l 4.383,2.32 c 0.23,0.121 0.499,-0.074 0.455,-0.332 l -0.837,-4.915 c -0.018,-0.103 0.016,-0.207 0.09,-0.279 l 3.546,-3.48 c 0.186,-0.183 0.085,-0.501 -0.173,-0.538 z m 20.089,0 -4.902,-0.718 c -0.102,-0.015 -0.191,-0.079 -0.236,-0.172 l -2.192,-4.471 c -0.115,-0.235 -0.447,-0.235 -0.563,0 l -2.191,4.471 c -0.046,0.093 -0.134,0.157 -0.237,0.172 l -4.9,0.718 c -0.258,0.037 -0.361,0.355 -0.175,0.538 l 3.548,3.48 c 0.073,0.072 0.107,0.176 0.089,0.279 l -0.837,4.915 c -0.044,0.258 0.225,0.455 0.454,0.332 l 4.385,-2.32 c 0.091,-0.048 0.199,-0.048 0.291,0 l 4.384,2.32 c 0.23,0.121 0.499,-0.074 0.455,-0.332 l -0.837,-4.915 c -0.018,-0.103 0.016,-0.207 0.09,-0.279 l 3.546,-3.48 c 0.186,-0.183 0.083,-0.501 -0.173,-0.538 z m 20.089,0 -4.902,-0.718 c -0.102,-0.015 -0.191,-0.079 -0.236,-0.172 l -2.192,-4.471 c -0.115,-0.235 -0.447,-0.235 -0.563,0 l -2.191,4.471 c -0.046,0.093 -0.134,0.157 -0.237,0.172 l -4.901,0.718 c -0.257,0.037 -0.36,0.355 -0.174,0.538 l 3.548,3.48 c 0.072,0.072 0.107,0.176 0.089,0.279 l -0.837,4.915 c -0.044,0.258 0.225,0.455 0.454,0.332 l 4.385,-2.32 c 0.091,-0.048 0.199,-0.048 0.291,0 l 4.384,2.32 c 0.23,0.121 0.499,-0.074 0.455,-0.332 l -0.837,-4.915 c -0.018,-0.103 0.016,-0.207 0.09,-0.279 l 3.546,-3.48 c 0.186,-0.183 0.083,-0.501 -0.173,-0.538 z m 20.262,0.538 c 0.186,-0.183 0.084,-0.501 -0.173,-0.538 l -4.902,-0.718 c -0.102,-0.015 -0.191,-0.079 -0.236,-0.172 l -2.192,-4.471 c -0.116,-0.235 -0.447,-0.235 -0.563,0 l -2.192,4.471 c -0.045,0.093 -0.133,0.157 -0.236,0.172 l -4.901,0.718 c -0.257,0.037 -0.36,0.355 -0.174,0.538 l 3.548,3.48 c 0.072,0.072 0.107,0.176 0.089,0.279 l -0.837,4.915 c -0.044,0.258 0.225,0.455 0.454,0.332 l 4.384,-2.32 c 0.092,-0.048 0.2,-0.048 0.292,0 l 4.384,2.32 c 0.23,0.121 0.499,-0.074 0.455,-0.332 l -0.838,-4.915 c -0.017,-0.103 0.017,-0.207 0.091,-0.279 l 3.546,-3.48 z"
         fill="#ffc30f"
         id="path42" />
    </g>
    <mask
       id="mask4_1682_5679"
       maskUnits="userSpaceOnUse"
       x="-43"
       y="-24"
       width="512"
       height="288">
      <path
         d="M 468.6,-24 H -42.6 v 288 h 511.2 z"
         fill="#000000"
         fill-opacity="0.66"
         id="path46" />
    </mask>
    <rect
       style="fill:#000000"
       id="rect372"
       width="0"
       height="15.819404"
       x="393.93115"
       y="104.9022"
       mask="url(#mask2546)" />
    <rect
       style="fill:#9d4e4e;fill-opacity:1"
       id="rect376"
       width="10.85189"
       height="16.359169"
       x="383.23471"
       y="104.91557"
       mask="url(#mask2540)" />
    <mask
       id="mask8_1682_5679"
       maskUnits="userSpaceOnUse"
       x="182"
       y="101"
       width="16"
       height="22">
      <path
         d="m 197.321,101.63 h -14.496 v 21.333 h 14.496 z"
         fill="#ffffff"
         id="path70" />
    </mask>
    <path
       d="m 217.929,143.418 -0.007,-1.112 1.109,-0.007 0.007,1.112 m -1.123,-2.219 -0.007,-1.113 1.109,-0.007 0.007,1.113 m -1.123,-2.22 -0.007,-1.112 1.109,-0.007 0.007,1.113 m -1.123,-2.219 -0.006,-1.114 1.108,-0.007 0.007,1.114 m -1.122,-2.219 -0.007,-1.114 1.11,-0.007 0.007,1.114 m -1.124,-2.22 -0.006,-1.112 1.109,-0.007 0.007,1.112 m -1.123,-2.219 -0.007,-1.113 1.109,-0.007 0.007,1.113 m -1.122,-2.22 -0.007,-1.112 1.109,-0.007 0.006,1.114 m -1.122,-2.22 -0.007,-1.114 1.109,-0.007 0.007,1.114 m -1.123,-2.219 -0.007,-1.113 1.11,-0.007 0.007,1.113 m -1.124,-2.22 -0.007,-1.113 1.11,-0.006 0.007,1.112 m -1.122,-2.218 -0.007,-1.114 1.109,-0.007 0.007,1.114 m -1.123,-2.22 -0.007,-1.113 1.109,-0.007 0.007,1.113 m -1.123,-2.219 -0.007,-1.113 1.109,-0.007 0.007,1.113 m -1.123,-2.219 -0.006,-1.113 1.11,-0.007 0.005,1.113 m -1.122,-2.22 -0.007,-1.113 1.11,-0.006 0.007,1.112 m -1.124,-2.218 -0.007,-1.114 1.11,-0.007 0.007,1.114 m -1.123,-2.22 -0.007,-1.112 1.109,-0.007 0.007,1.112 m -1.122,-2.219 -0.007,-1.113 1.109,-0.007 0.007,1.113 m -1.123,-2.22 -0.007,-1.112 1.109,-0.007 0.007,1.114 m -1.123,-2.2204 -0.007,-1.1134 1.11,-0.0058 0.006,1.1123 m -1.123,-2.2187 -0.006,-1.1135 1.11,-0.0069 0.006,1.1134"
       fill="#737373"
       id="path82" />
    <path
       d="m 333.825,137.559 v -1.741 h -3.587 v -1.417 l 3.481,-4.949 h 1.789 v 4.949 h 1.252 v 1.417 h -1.252 v 1.741 z m -2.357,-2.547 -0.315,-0.611 h 2.672 v -3.643 l 0.425,0.129 z"
       fill="#000000"
       id="path84" />
    <path
       d="m 338.487,137.559 v -1.635 h 1.632 v 1.635 z"
       fill="#000000"
       id="path86" />
    <path
       d="m 341.979,137.559 v -1.306 l 2.172,-2.241 c 0.428,-0.444 0.751,-0.794 0.971,-1.051 0.222,-0.259 0.374,-0.474 0.458,-0.648 0.083,-0.176 0.124,-0.347 0.124,-0.514 0,-0.296 -0.095,-0.529 -0.286,-0.699 -0.192,-0.172 -0.433,-0.259 -0.726,-0.259 -0.296,0 -0.559,0.087 -0.79,0.259 -0.231,0.17 -0.402,0.43 -0.513,0.778 l -1.466,-0.481 c 0.086,-0.419 0.266,-0.785 0.541,-1.098 0.278,-0.311 0.611,-0.552 1.003,-0.722 0.391,-0.172 0.8,-0.259 1.225,-0.259 0.536,0 1.008,0.096 1.415,0.287 0.406,0.189 0.722,0.454 0.947,0.796 0.224,0.34 0.338,0.739 0.338,1.195 0,0.29 -0.051,0.576 -0.153,0.856 -0.102,0.278 -0.256,0.56 -0.462,0.847 -0.207,0.285 -0.474,0.595 -0.8,0.931 l -1.858,1.912 h 3.347 v 1.417 z"
       fill="#000000"
       id="path88" />
    <path
       d="m 348.216,138.864 3.587,-8.977 h 1.761 l -3.587,8.977 z"
       fill="#000000"
       id="path90" />
    <path
       d="m 356.989,137.688 c -0.429,0 -0.843,-0.082 -1.243,-0.245 -0.398,-0.163 -0.739,-0.395 -1.022,-0.695 -0.281,-0.302 -0.464,-0.663 -0.55,-1.083 l 1.489,-0.5 c 0.107,0.35 0.279,0.604 0.517,0.764 0.241,0.157 0.51,0.236 0.809,0.236 0.252,0 0.473,-0.052 0.661,-0.157 0.187,-0.105 0.334,-0.253 0.439,-0.445 0.104,-0.194 0.157,-0.418 0.157,-0.671 0,-0.252 -0.053,-0.473 -0.157,-0.662 -0.105,-0.191 -0.252,-0.339 -0.439,-0.445 -0.188,-0.104 -0.409,-0.157 -0.661,-0.157 -0.262,0 -0.494,0.058 -0.698,0.171 -0.203,0.111 -0.351,0.283 -0.444,0.514 l -1.382,-0.324 0.652,-4.537 h 4.521 v 1.412 h -3.837 l 0.633,-0.759 -0.448,3.37 -0.453,-0.403 c 0.178,-0.296 0.407,-0.511 0.684,-0.648 0.28,-0.139 0.643,-0.208 1.086,-0.208 0.542,0 1.009,0.115 1.401,0.343 0.391,0.229 0.693,0.541 0.906,0.939 0.215,0.399 0.324,0.864 0.324,1.394 0,0.531 -0.13,1.009 -0.389,1.435 -0.256,0.424 -0.605,0.757 -1.049,1 -0.441,0.241 -0.943,0.361 -1.507,0.361 z"
       fill="#000000"
       id="path92" />
    <path
       d="m 135.008,137.559 v -1.741 h -3.586 v -1.417 l 3.48,-4.949 h 1.789 v 4.949 h 1.253 v 1.417 h -1.253 v 1.741 z m -2.357,-2.547 -0.314,-0.611 h 2.671 v -3.643 l 0.426,0.129 z"
       fill="#000000"
       id="path94" />
    <path
       d="m 139.671,137.559 v -1.635 h 1.631 v 1.635 z"
       fill="#000000"
       id="path96" />
    <path
       d="m 144.553,137.559 v -6.686 h -1.576 v -1.421 h 3.259 v 8.107 z"
       fill="#000000"
       id="path98" />
    <path
       d="m 147.411,138.864 3.587,-8.977 h 1.761 l -3.587,8.977 z"
       fill="#000000"
       id="path100" />
    <path
       d="m 156.183,137.688 c -0.428,0 -0.843,-0.082 -1.243,-0.245 -0.398,-0.163 -0.738,-0.395 -1.022,-0.695 -0.28,-0.302 -0.464,-0.663 -0.55,-1.083 l 1.489,-0.5 c 0.107,0.35 0.279,0.604 0.517,0.764 0.241,0.157 0.51,0.236 0.809,0.236 0.252,0 0.473,-0.052 0.661,-0.157 0.188,-0.105 0.334,-0.253 0.44,-0.445 0.104,-0.194 0.157,-0.418 0.157,-0.671 0,-0.252 -0.053,-0.473 -0.157,-0.662 -0.106,-0.191 -0.252,-0.339 -0.44,-0.445 -0.188,-0.104 -0.409,-0.157 -0.661,-0.157 -0.262,0 -0.494,0.058 -0.698,0.171 -0.203,0.111 -0.351,0.283 -0.443,0.514 l -1.382,-0.324 0.651,-4.537 h 4.521 v 1.412 h -3.837 l 0.634,-0.759 -0.449,3.37 -0.453,-0.403 c 0.178,-0.296 0.407,-0.511 0.684,-0.648 0.28,-0.139 0.643,-0.208 1.087,-0.208 0.542,0 1.009,0.115 1.4,0.343 0.391,0.229 0.694,0.541 0.906,0.939 0.215,0.399 0.324,0.864 0.324,1.394 0,0.531 -0.13,1.009 -0.388,1.435 -0.257,0.424 -0.606,0.757 -1.05,1 -0.441,0.241 -0.943,0.361 -1.507,0.361 z"
       fill="#000000"
       id="path102" />
    <g
       mask="url(#mask8_1682_5679)"
       id="g2531"
       transform="matrix(0.65681705,0,0,1,263.8237,0.79692064)">
      <mask
         id="mask2525"
         maskUnits="userSpaceOnUse"
         x="183"
         y="101"
         width="15"
         height="22">
        <path
           d="m 183.056,101.703 h 14.014 v 21.056 h -14.014 z"
           fill="#ffffff"
           id="path2523" />
      </mask>
      <g
         mask="url(#mask9_1682_5679)"
         id="g2529">
        <path
           d="m 183.056,101.703 h 14.014 v 21.056 h -14.014 z"
           fill="#ffffff"
           id="path2527" />
      </g>
    </g>
    <g
       mask="url(#mask3_1682_5679)"
       id="g329"
       transform="translate(-199.81132)">
      <path
         d="m 312.828,111.023 -3.547,3.48 c -0.074,0.072 -0.107,0.176 -0.09,0.279 l 0.838,4.915 c 0.044,0.258 -0.226,0.455 -0.456,0.332 l -4.384,-2.32 c -0.091,-0.048 -0.2,-0.048 -0.291,0 l -4.384,2.32 c -0.23,0.121 -0.499,-0.074 -0.455,-0.332 l 0.838,-4.915 c 0.018,-0.103 -0.016,-0.207 -0.09,-0.279 l -3.548,-3.48 c -0.186,-0.183 -0.083,-0.501 0.174,-0.538 l 4.902,-0.718 c 0.101,-0.015 0.19,-0.079 0.235,-0.172 l 2.193,-4.471 c 0.114,-0.235 0.447,-0.235 0.561,0 l 2.192,4.471 c 0.047,0.093 0.134,0.157 0.237,0.172 l 4.901,0.718 c 0.258,0.037 0.36,0.355 0.174,0.538 z m 19.915,-0.538 -4.902,-0.718 c -0.102,-0.015 -0.191,-0.079 -0.236,-0.172 l -2.192,-4.471 c -0.114,-0.235 -0.447,-0.235 -0.561,0 l -2.193,4.471 c -0.046,0.093 -0.134,0.157 -0.236,0.172 l -4.901,0.718 c -0.258,0.037 -0.36,0.355 -0.174,0.538 l 3.547,3.48 c 0.074,0.072 0.107,0.176 0.09,0.279 l -0.838,4.915 c -0.044,0.258 0.225,0.455 0.455,0.332 l 4.384,-2.32 c 0.091,-0.048 0.201,-0.048 0.292,0 l 4.383,2.32 c 0.23,0.121 0.499,-0.074 0.455,-0.332 l -0.837,-4.915 c -0.018,-0.103 0.016,-0.207 0.09,-0.279 l 3.546,-3.48 c 0.186,-0.183 0.085,-0.501 -0.173,-0.538 z m 20.089,0 -4.902,-0.718 c -0.102,-0.015 -0.191,-0.079 -0.236,-0.172 l -2.192,-4.471 c -0.115,-0.235 -0.447,-0.235 -0.563,0 l -2.191,4.471 c -0.046,0.093 -0.134,0.157 -0.237,0.172 l -4.9,0.718 c -0.258,0.037 -0.361,0.355 -0.175,0.538 l 3.548,3.48 c 0.073,0.072 0.107,0.176 0.089,0.279 l -0.837,4.915 c -0.044,0.258 0.225,0.455 0.454,0.332 l 4.385,-2.32 c 0.091,-0.048 0.199,-0.048 0.291,0 l 4.384,2.32 c 0.23,0.121 0.499,-0.074 0.455,-0.332 l -0.837,-4.915 c -0.018,-0.103 0.016,-0.207 0.09,-0.279 l 3.546,-3.48 c 0.186,-0.183 0.083,-0.501 -0.173,-0.538 z m 20.089,0 -4.902,-0.718 c -0.102,-0.015 -0.191,-0.079 -0.236,-0.172 l -2.192,-4.471 c -0.115,-0.235 -0.447,-0.235 -0.563,0 l -2.191,4.471 c -0.046,0.093 -0.134,0.157 -0.237,0.172 l -4.901,0.718 c -0.257,0.037 -0.36,0.355 -0.174,0.538 l 3.548,3.48 c 0.072,0.072 0.107,0.176 0.089,0.279 l -0.837,4.915 c -0.044,0.258 0.225,0.455 0.454,0.332 l 4.385,-2.32 c 0.091,-0.048 0.199,-0.048 0.291,0 l 4.384,2.32 c 0.23,0.121 0.499,-0.074 0.455,-0.332 l -0.837,-4.915 c -0.018,-0.103 0.016,-0.207 0.09,-0.279 l 3.546,-3.48 c 0.186,-0.183 0.083,-0.501 -0.173,-0.538 z m 20.262,0.538 c 0.186,-0.183 0.084,-0.501 -0.173,-0.538 l -4.902,-0.718 c -0.102,-0.015 -0.191,-0.079 -0.236,-0.172 l -2.192,-4.471 c -0.116,-0.235 -0.447,-0.235 -0.563,0 l -2.192,4.471 c -0.045,0.093 -0.133,0.157 -0.236,0.172 l -4.901,0.718 c -0.257,0.037 -0.36,0.355 -0.174,0.538 l 3.548,3.48 c 0.072,0.072 0.107,0.176 0.089,0.279 l -0.837,4.915 c -0.044,0.258 0.225,0.455 0.454,0.332 l 4.384,-2.32 c 0.092,-0.048 0.2,-0.048 0.292,0 l 4.384,2.32 c 0.23,0.121 0.499,-0.074 0.455,-0.332 l -0.838,-4.915 c -0.017,-0.103 0.017,-0.207 0.091,-0.279 l 3.546,-3.48 z"
         fill="#ffc30f"
         id="path327" />
    </g>
    <g
       mask="url(#mask8_1682_5679)"
       id="g80"
       transform="translate(-0.19626339)">
      <mask
         id="mask9_1682_5679"
         maskUnits="userSpaceOnUse"
         x="183"
         y="101"
         width="15"
         height="22">
        <path
           d="m 183.056,101.703 h 14.014 v 21.056 h -14.014 z"
           fill="#ffffff"
           id="path73" />
      </mask>
      <g
         mask="url(#mask9_1682_5679)"
         id="g78">
        <path
           d="m 183.056,101.703 h 14.014 v 21.056 h -14.014 z"
           fill="#ffffff"
           id="path76" />
      </g>
    </g>
  </g>
  <defs
     id="defs109">
    <clipPath
       id="clip0_1682_5679">
      <rect
         width="426"
         height="240"
         fill="#ffffff"
         id="rect106"
         x="0"
         y="0" />
    </clipPath>
    <mask
       maskUnits="userSpaceOnUse"
       id="mask2540">
      <g
         id="g2544">
        <path
           d="m 97.3292,104.889 h 96.1458 v 15.3 H 97.3292 Z"
           fill="#ffffff"
           id="path2542" />
      </g>
    </mask>
    <mask
       maskUnits="userSpaceOnUse"
       id="mask2546">
      <g
         id="g2550">
        <path
           d="m 97.3292,104.889 h 96.1458 v 15.3 H 97.3292 Z"
           fill="#ffffff"
           id="path2548" />
      </g>
    </mask>
    <mask
       maskUnits="userSpaceOnUse"
       id="mask2552">
      <g
         id="g2556">
        <path
           d="m 97.3292,104.889 h 96.1458 v 15.3 H 97.3292 Z"
           fill="#ffffff"
           id="path2554" />
      </g>
    </mask>
  </defs>
</svg>
