<svg width="152" height="90" xmlns="http://www.w3.org/2000/svg" viewBox="0 0 590 350"><g fill-rule="evenodd"><path d="M-.5-.5h590v350H-.5V-.5Z" fill="#ff0100"/><path d="M8.5 8.5h572v166H8.5V8.5Z" fill="#fffdfd"/><path d="M208.5 50.5c14.3-2 26.2 2.3 35.5 13a56 56 0 0 1 5 34c-3.2 20.2-15 30.5-35.5 31-19.6-1.7-30.4-12.4-32.5-32-1.8-11.4.2-22 6-32a36 36 0 0 1 21.5-14Z" fill="#ff0d06"/><path d="M71.5 102.5h-11c-.3 5.9 0 11.5 1 17v7h-16c1.3-25 1.3-50 0-75 12-.2 24 0 36 .5 14.6 4 20.4 13.5 17.5 28.5a28 28 0 0 1-27.5 22Z" fill="#ff0804"/><path d="M129.5 104.5v22h-15c1.3-25 1.3-50 0-75 12-.2 24 0 36 .5 15.6 4.6 21 14.8 16.5 30.5-3 6-7 11-12.5 15 5.2 8.7 11 17 17.5 25 .5 1 .6 2 .5 3-5.4 1.2-10.7 2-16 2.5-5.4-8.4-10.4-17-15-26-4-.5-8-.7-12-.5v3Z" fill="#ff0b06"/><path d="M305.5 126.5c-9 .8-18 1.2-27 1h-12a741 741 0 0 0 0-76c13.3-.2 26.7 0 40 .5A29.8 29.8 0 0 1 330 76.5c2.7 15.8-.8 30-10.5 42.5-4.3 3.3-9 5.8-14 7.5Z" fill="#ff0603"/><path d="M345.5 51.5h15c-.2 18 0 36 .5 54 2 7 6.7 10.3 14 10 7 .3 12-2.7 15-9 .5-18.3.7-36.7.5-55h15c.2 18 0 36-.5 54-4 16.3-14.5 23.6-31.5 22a24.6 24.6 0 0 1-25.5-13 56 56 0 0 1-2-7c-.5-18.7-.7-37.3-.5-56Z" fill="#ff0704"/><path d="M441.5 51.5c-.2 11.7 0 23.3.5 35a422 422 0 0 0 24.5-34 36.6 36.6 0 0 1 17 0c-9 11.5-17.6 23.2-26 35a800 800 0 0 0 29 37 18 18 0 0 1-9 2.5c-3 .8-6 .7-9-.5-9-12.5-18-25.2-26.5-38a688 688 0 0 0-.5 38h-15c.6-25 .6-50 0-75h15Z" fill="#ff0803"/><path d="M527.5 63.5c-1 20.8-1.3 41.8-1 63h-15c1.3-21 1.3-42 0-63l-19 .5a22.9 22.9 0 0 1 0-12.5h54v13c-6.3-.5-12.7-.8-19-1Z" fill="#ff0903"/><path d="M65.5 91.5c-1-1-2.4-1.3-4-1v-10c-.3-5.7 0-11.4 1-17 18.7-2.4 24.6 5.2 17.5 23a15 15 0 0 1-14.5 5Zm67-29c19-.3 24 7.8 15 24.5-1.2.4-2.2 1-3 2-4.7.5-9.3.7-14 .5a96 96 0 0 1 2-27Z" fill="#fffaf9"/><path d="M208.5 63.5c13.7-2.8 21.9 2.6 24.5 16a87 87 0 0 1-1 25c-2.8 8-8.5 12-17 12-9.4-.7-15-5.7-17-15-.7-8.7-.7-17.3 0-26 2-5.5 5.5-9.5 10.5-12Z" fill="#fffbfb"/><path d="M290.5 115.5c-2.4-1-5.1-1.3-8-1v-50a47.6 47.6 0 0 1 21 .5A18 18 0 0 1 314 79.5c1.3 9.6.3 19-3 28-4.8 7.4-11.7 10-20.5 8Z" fill="#fffcfb"/><path d="m441.5 51.5 2 33c-.3.8-.8 1.5-1.5 2-.5-11.7-.7-23.3-.5-35Z" fill="#ffb5c7"/><path d="M61.5 80.5v10c1.6-.3 3 0 4 1h-5c-.3-3.9 0-7.5 1-11Z" fill="#ff5e8d"/><path d="M527.5 63.5v64a65 65 0 0 1-16-1h15c-.3-21.2 0-42.2 1-63Z" fill="#ffa9be"/><path d="M282.5 64.5v50c2.9-.3 5.6 0 8 1h-9c-.3-17.2 0-34.2 1-51Z" fill="#ffc5d3"/><path d="M71.5 102.5c-3.1 1-6.5 1.3-10 1v16c-1-5.5-1.3-11.1-1-17h11Z" fill="#ff94a2"/><path d="M129.5 104.5c1 7.5 1.3 15.1 1 23a65 65 0 0 1-16-1h15v-22Z" fill="#ff868f"/><path d="M305.5 126.5a64.2 64.2 0 0 1-27 1c9 .2 18-.2 27-1Z" fill="#ffc2c2"/><path d="M160.5 197.5c13.4-1.6 26 .6 38 6.5 10 7 16.6 16.5 19.5 28.5a88.8 88.8 0 0 1-7 56 51.5 51.5 0 0 1-54.5 20.5c-18-4-29.4-14.7-34.5-32.5a94.7 94.7 0 0 1 2-50c7-16.3 19.2-26 36.5-29Z" fill="#fffbfb"/><path d="M268.5 219.5v-20h-22v21a123 123 0 0 1-1-22h24c.3 7.2 0 14.2-1 21Z" fill="#ffb5b5"/><path d="M355.5 197.5c12.4-.7 24.4 1 36 5a81 81 0 0 1-4 21c-1.3 1-2.6 1-4 .5a34 34 0 0 0-29-7c-9.8 5.8-10.5 12.5-2 20 8.2 4.6 16.5 9 25 13 18.6 11.6 22.1 26.7 10.5 45.5a36.7 36.7 0 0 1-25.5 13.5c-13.9 2-27.2.1-40-5.5-1-7.4-.4-14.7 1.5-22 1.4-1 2.9-1.2 4.5-.5a40 40 0 0 0 34 10c7.3-2.6 10.2-7.8 8.5-15.5l-6.5-6.5c-9-3.8-17.6-8.1-26-13-15.6-11.3-18.7-25.5-9.5-42.5a41.2 41.2 0 0 1 26.5-16Z" fill="snow"/><path d="M481.5 199.5a79.3 79.3 0 0 1 25 0c-.1.6-.5 1-1 1-7.8-1-15.8-1.3-24-1Z" fill="#ffbbba"/><path d="M25.5 198.5a493 493 0 0 1 53 1.5 29.9 29.9 0 0 1 22.5 18.5A42 42 0 0 1 84.5 267a68.4 68.4 0 0 1-37 6.5 453 453 0 0 1 1 35h-23v-110Z" fill="snow"/><path d="M268.5 219.5v24c-1 15.2-1.3 30.5-1 46h38c1 4 1 8 0 12a9.6 9.6 0 0 0-1 6h-58v-108h22v20Z" fill="#fffefe"/><path d="M445.5 215.5c-.2 11 0 22 .5 33a883 883 0 0 0 35.5-49c8.2-.3 16.2 0 24 1a74208 74208 0 0 1-37 50 619 619 0 0 0 41.5 52c.7 1.3.5 2.5-.5 3.5a67.8 67.8 0 0 1-25 3 1655 1655 0 0 1-38-54.5c.1-.9-.2-1.5-1-2a172.7 172.7 0 0 0 0 37v18h-22v-108h22v16Z" fill="#fffcfc"/><path d="M531.5 199.5h22v39c0 23.3.2 46.7 1 70h-23v-109Z" fill="#fffbfb"/><path d="M531.5 199.5c7.5-1 15.1-1.3 23-1 .3 13.5 0 26.8-1 40v-39h-22Z" fill="#ffc1c0"/><path d="M445.5 215.5v-16h-22v50c-1-16.8-1.3-33.8-1-51h24c.3 5.9 0 11.5-1 17Z" fill="#ffa6a4"/><path d="M48.5 216.5c26.6-3.7 35.5 7 26.5 32a21.3 21.3 0 0 1-14.5 8c-3.8-1-7.8-1.3-12-1v-39Z" fill="#ff0502"/><path d="M162.5 216.5c8.2-1 15.9.5 23 4.5 3.6 3.5 6.1 7.6 7.5 12.5 4.1 16.7 3.1 33-3 49a26.8 26.8 0 0 1-28.5 8.5 21 21 0 0 1-15.5-18.5 80 80 0 0 1 1-43 23.2 23.2 0 0 1 15.5-13Z" fill="#ff0904"/><path d="M48.5 216.5v39c4.2-.3 8.2 0 12 1h-13c-.3-13.5 0-26.8 1-40Z" fill="#ff8e8c"/><path d="M446.5 254.5c-1 11.5-1.3 23.2-1 35a172.7 172.7 0 0 1 0-37c.8.5 1.1 1.1 1 2Z" fill="#ffabaa"/><path d="M268.5 243.5v45c12.5-.3 24.8 0 37 1h-38c-.3-15.5 0-30.8 1-46Z" fill="#ff8d8c"/><path d="M246.5 291.5v16h58c-.3-2.2 0-4.2 1-6v7h-60c-.3-5.9 0-11.5 1-17Z" fill="#ffcfce"/><path d="M423.5 293.5v14h22c-7.5 1-15.1 1.3-23 1-.3-5.2 0-10.2 1-15Z" fill="#ffd2d1"/></g></svg>