<svg width="83" height="90" xmlns="http://www.w3.org/2000/svg" xml:space="preserve" viewBox="112 144.5 249.3 271.4" fill-rule="evenodd" clip-rule="evenodd" stroke-linejoin="round" stroke-miterlimit="1.4"><path d="M304.3 221.9c0-41.6-43-75.3-96-75.3h-.2c-53 0-96 33.7-96 75.3v118.8c0 41.4 43.1 75.2 96 75.2h.2c53 0 96-33.8 96-75.2V221.9Z" fill="#1a1a18" fill-rule="nonzero"/><path d="M285.7 327.5c0 5-5 9-11.4 9H142.1c-6.3 0-11.4-4-11.4-9V221.9c0-33.6 34.7-60.7 77.4-60.7h.1c42.8 0 77.5 27.1 77.5 60.7v105.6Zm-1.2 17.2h3.6l4.6 11v-11h3.5v20h-3.5l-4.6-11v11h-3.6v-20ZM278 357l-1.3-7.2-1.3 7.2h2.6Zm.8 4.3h-4.3l-.6 3.3H270l4.6-20h4l4.7 20h-4l-.6-3.3Zm-14-16.7h3.8v20h-3.8v-20Zm-9.6 8.1h1.6c.2 0 .5 0 1-.3.3 0 .5-.3.6-.6.2-.3.3-.7.3-1.2 0-.6-.2-1.1-.4-1.5-.3-.3-.7-.5-1.4-.5H255v4.1Zm-3.8 12v-20.1h6.3c1.2 0 2 .1 2.7.5.6.3 1.1.9 1.5 1.8a9 9 0 0 1 .1 6.2c-.3.7-.7 1.4-1.2 1.9-.3.3-.7.6-1.3.8.5.2.8.5 1 .7l.6 1 .5 1.3 1.9 5.8H259l-2-6.1-.7-1.6c-.3-.3-.6-.4-1-.4h-.3v8.1h-3.8Zm-6.6-7.7H242l1.4-7.2 1.3 7.2Zm.8 4.3.6 3.3h4l-4.6-20h-4.1l-4.6 20h3.8l.6-3.3h4.3ZM226 344.7h11.4v5h-3.8v15h-3.8v-15H226v-5Zm-11.5 0h10v4.3h-6.2v3.1h5.8v4.1h-5.8v4h6.5v4.5h-10.3v-20Zm-8.1 12.8v-4.2h5.8v8.5a11.4 11.4 0 0 1-3 2.6c-.8.4-1.8.7-3 .7-1.4 0-2.6-.4-3.5-1.3-1-.8-1.7-2-2.2-3.6-.5-1.6-.7-3.4-.7-5.5 0-2.2.3-4 .8-5.7a7.7 7.7 0 0 1 2.4-3.7c.9-.6 2-1 3.4-1a6 6 0 0 1 3 .6c.7.4 1.2 1 1.7 1.9.4.8.7 2 1 3.2l-3.7 1c-.1-.7-.4-1.3-.7-1.7a2 2 0 0 0-1.4-.6c-.8 0-1.5.5-2 1.5-.5.9-.7 2.4-.7 4.4 0 2.2.2 3.8.7 4.7.5 1 1.2 1.4 2 1.4.5 0 1-.1 1.3-.3a6 6 0 0 0 1.3-1v-2h-2.5Zm-18.5-12.8H198v4.3h-6.3v3.1h5.9v4.1h-6v4h6.6v4.5H188v-20Zm-18.3 0h3.6l1.2 11.2 2-11.2h3.5l1.9 11.2 1.3-11.2h3.6l-2.7 20h-3.7l-2.2-12.6-2.1 12.6h-3.7l-2.7-20Zm-11 12.4-1.4-7.2-1.3 7.2h2.7Zm.8 4.3H155l-.6 3.3h-3.9l4.6-20h4.1l4.6 20h-4l-.5-3.3Zm-19-16.7h3.8v15h6v5h-9.8v-20Zm-9.4 4.5v11h1c.7 0 1.3-.2 1.6-.5.3-.2.6-.8.8-1.5.2-.7.3-1.8.3-3.4 0-2.2-.2-3.6-.7-4.4-.4-.8-1-1.2-2-1.2h-1Zm-3.8-4.5h5.6c1.1 0 2 .2 2.7.7a6 6 0 0 1 1.7 2.1c.4 1 .8 2 1 3.2a23.9 23.9 0 0 1-.2 9 9.5 9.5 0 0 1-1.2 2.9c-.5.8-1.1 1.3-1.7 1.6-.9.3-1.6.5-2.3.5h-5.6v-20Zm112.3 26.5h3.6l4.6 11.1v-11h3.5v20h-3.5l-4.6-11v11h-3.6v-20Zm-6.5 12.4-1.4-7.2-1.3 7.2h2.7Zm.7 4.3h-4.3l-.6 3.4H225l4.6-20h4.1l4.6 20h-4l-.6-3.4Zm-15.6-4v-4h5.9v8.5a11.4 11.4 0 0 1-3 2.5 6 6 0 0 1-3 .7c-1.5 0-2.7-.4-3.6-1.2-1-.8-1.6-2-2.1-3.6s-.8-3.5-.8-5.6c0-2.2.3-4 .8-5.7a7.7 7.7 0 0 1 2.5-3.7c.8-.6 2-1 3.3-1a6 6 0 0 1 3 .7c.7.4 1.3 1 1.7 1.8.5.9.8 2 1 3.2l-3.6 1.1c-.2-.7-.4-1.3-.8-1.7-.4-.4-.8-.6-1.4-.6-.8 0-1.5.4-2 1.4-.4 1-.7 2.4-.7 4.5s.3 3.7.8 4.6c.5 1 1.1 1.4 2 1.4.5 0 .9 0 1.2-.3a6 6 0 0 0 1.4-1v-2H218Zm-18.5-12.7h10.2v4.3h-6.4v3.2h6v4h-6v4h6.6v4.6h-10.4v-20Zm-18.3 0h3.6l1.3 11.2 1.9-11.2h3.6l1.8 11.2 1.3-11.2h3.6l-2.7 20H192l-2.1-12.6-2.2 12.7H184l-2.7-20Zm-11 0h3.9v20h-3.8v-20Z" fill="#fff" fill-rule="nonzero"/><path d="M156.5 283.8c.3 2.7 3 4.5 7.7 4.4 5-.2 8.7-2 13.7-5.1 34.4-22 62-71.3 135.4-104.5 0 0-50.9-2.4-118.2 68.2a6.4 6.4 0 0 1-4.3 2.3c-1.6 0-1.8-.7-1.4-2 4-15 8.7-46.4-26.5-68 18.7 27.5-8.3 85.6-6.4 104.7" fill="#c5c5c6" fill-rule="nonzero"/><path d="M169 273.5c.2 2.8 3 4.6 7.6 4.6 5 0 8.8-1.7 13.9-4.8 35.2-21.3 64.5-69.8 139.2-101.4 0 0-50.8-3.5-120.7 65.6a6.5 6.5 0 0 1-4.3 2.1c-1.6 0-1.8-.7-1.4-2 4.5-15 10.4-46.2-24-68.6 17.7 28-11.4 85.4-10.2 104.5Z" fill="#fff" fill-rule="nonzero"/><path d="m183.5 163 .2.1.2.2.3.1.2.2.2.1.2.2.2.1.2.1.2.2.2.1.3.2.2.1.2.2.2.1.2.2.2.1.2.2.2.1.2.2.2.1.2.1.2.2.2.1.2.2.2.1.2.2.2.1.2.2.2.1.2.2.1.1.2.2.2.1.2.2.2.1.2.2.2.2.2.1.1.2.2.1.2.2.2.1.2.2.1.1.2.2.2.1.2.2.2.1.1.2.2.2.2.1.2.2.1.1.2.2.2.1.1.2.2.1.2.2.1.2.2.1.2.2.1.1.2.2.2.1.1.2.2.2.1.1.2.2.2.1.1.2.2.2.1.1.2.2.1.1.2.2.2.2.1.1.2.2.1.1.2.2.1.2.2.1.1.2.1.2.2.1.1.2.2.1.1.2.2.2.1.1.2.2v.2l.2.1.2.2.1.1.1.2.2.2.1.1.2.2v.2l.2.1.1.2.2.2.1.1.1.2.2.2.1.1.1.2.2.2v.1l.2.2.1.2.2.1v.2l.2.2.1.1.1.2.2.2v.1l.2.2.1.2.1.1.1.2.2.2v.1l.2.2.1.2.1.1.1.2.1.2.1.2.2.1v.2l.2.2v.1l.2.2v.2l.2.1.1.2.1.2.1.1.1.2.1.2.1.2.1.1.1.2.1.2.1.1.1.2.1.2v.1l.2.2v.2l.2.2v.1l.2.2v.2l.1.1.1.2.1.2.1.2.2.3.2.3.1.4.2.3.2.4.1.3.2.4.1.3.2.3.1.4.2.3.1.4.2.3.1.4.1.3.2.3.1.4.1.3.2.4v.3l.2.4.1.3.1.3.2.4v.3l.2.4v.3l.2.3v.4l.2.3v.4l.2.3v.3l.2.4v.3l.1.4.1.3v.3l.2.4v.3l.1.3.1.4v.3l.1.4.1.3v.3l.1.4v.3l.1.3.1.4v.3l.1.3v.3l.1.4v.6l.1.4v.3l.1.3v.7l.1.3v.6l.1.4v.9l.1.3v1.9l.1.4v5.8l-.1.3v1.1l-.1.3v.9l-.1.2.4-.4.4-.3.4-.4.4-.4.4-.3.4-.4.4-.4.4-.3.4-.4.4-.3.4-.4.4-.4.4-.3.4-.4.4-.3.4-.4.4-.3.4-.4.4-.3.4-.4.4-.3.4-.3.4-.4.4-.3.4-.3.4-.4.4-.3.4-.3.4-.4.3-.3.4-.3.4-.4.4-.3.4-.3.4-.3.4-.3.4-.4.4-.3.4-.3.4-.3.3-.3.4-.3.4-.3.4-.3.4-.3.4-.4.4-.3.3-.3.4-.3.4-.3.4-.3.4-.3.4-.2.3-.3.4-.3.4-.3.4-.3.4-.3.3-.3.4-.3.4-.3.4-.2.3-.3.4-.3.4-.3.4-.3.3-.2.4-.3.4-.3.4-.3.3-.2.4-.3.4-.3.3-.2.4-.3.4-.3.3-.2.4-.3.4-.2.3-.3.4-.2.4-.3.3-.3.4-.2.4-.3.3-.2.4-.3.4-.2.3-.3.4-.2.3-.2.4-.3.4-.2.3-.3.4-.2.3-.2.4-.3.4-.2.3-.2.4-.3.3-.2.4-.2.3-.3.4-.2.3-.2.4-.2.3-.3.4-.2.3-.2.4-.2.3-.3.4-.2.3-.2.4-.2.3-.2.4-.2.3-.2.4-.3.3-.2.3-.2.4-.2.3-.2.4-.2.3-.2.3-.2.4-.2.3-.2.4-.2.3-.2.3-.2.4-.2.3-.2.3-.2.4-.2.3-.1.3-.2.4-.2.3-.2.3-.2.4-.2.3-.2.3-.1.4-.2.3-.2.3-.2.3-.2.4-.1.3-.2.3-.2.3-.2.4-.1.3-.2.3-.2.3-.2.3-.1.4-.2.3-.2.3-.1.3-.2.3-.1.4-.2.3-.2.3-.1.3-.2.3-.1.3-.2.3-.2.3-.1.4-.2.3-.1.3-.2.3-.1.3-.2.3-.1.3-.2.3-.1.3-.2.3-.1.3-.1.3-.2.3-.1.3-.2.3-.1.3-.2.6-.2.6-.3.6-.3.6-.2.6-.3.6-.2.6-.3.5-.2.6-.3.6-.2.6-.3.5-.2.6-.2.5-.2.6-.3.5-.2.6-.2.5-.2.6-.2.5-.2.6-.2.5-.2.5-.2.6-.2.5-.2.5-.2.5-.2.5-.2.6-.1.5-.2.5-.2.5-.1.5-.2.5-.2.5-.1.5-.2.4-.1.5-.2.5-.1.5-.2.5-.1.4-.1.5-.2.4-.1.5-.1.5-.2.4-.1.5-.1.4-.1.5-.2h.4l.4-.2h.5l.4-.2.4-.1.4-.1.4-.1h.5l.4-.2h.4l.4-.2h.4l.4-.1.4-.1.4-.1h.3l.4-.2h.4l.4-.1h.3l.4-.2h.7l.4-.1.3-.1h.4l.3-.1h.4l.3-.1h.3l.4-.1h.3l.3-.1h.3l.3-.1h.3l.3-.1h.6l.3-.1h.6l.3-.1h.5l.3-.1h.8l.2-.1h1.2l.3-.1h1.2l.4-.1h4l31.3 2-29.3 12.3-.4.2-.4.2-.4.1-.4.2-.5.2-.4.2-.4.2-.4.2-.4.1-.5.2-.4.2-.4.2-.4.2-.4.2-.4.2-.4.1-.4.2-.5.2-.4.2-.4.2-.4.2-.4.2-.4.2-.4.1-.4.2-.4.2-.4.2-.4.2-.4.2-.4.2-.4.2-.4.2-.4.2-.4.1-.3.2-.4.2-.4.2-.4.2-.4.2-.4.2-.4.2-.4.2-.3.2-.4.2-.4.2-.4.2-.4.2-.4.2-.3.2-.4.2-.4.2-.4.2-.3.2-.4.1-.4.2-.4.2-.3.2-.4.2-.4.2-.3.2-.4.2-.4.2-.3.2-.4.2-.4.2-.3.2-.4.2-.4.2-.3.2-.4.2-.3.2-.4.3-.4.2-.3.2-.4.2-.3.2-.4.2-.3.2-.4.2-.3.2-.4.2-.3.2-.4.2-.3.2-.4.2-.3.2-.4.2-.3.2-.4.2-.3.2-.4.2-.3.2-.3.3-.4.2-.3.2-.4.2-.3.2-.3.2-.4.2-.3.2-.3.2-.4.2-.3.2-.3.2-.4.3-.3.2-.3.2-.4.2-.3.2-.3.2-.4.2-.3.2-.3.2-.7.5-.6.4-.6.4-.7.4-.6.4-.7.5-.6.4-.6.4-.6.4-.7.5-.6.4-.6.4-.6.5-.6.4-.6.4-.7.4-.6.5-.6.4-.6.4-.6.5-.5.4-.6.4-.6.5-.6.4-.6.4-.6.5-.6.4-.5.4-.6.5-.6.4-.5.4-.6.5-.6.4-.5.4-.6.5-.6.4-.5.5-.6.4-.5.4-.6.5-.5.4-.5.4-.6.5-.5.4-.6.4-.5.5-.5.4-.6.5-.5.4-.5.4-.5.5-.6.4-.5.4-.5.5-.5.4-.5.5-.5.4-.6.4-.5.5-.5.4-.5.4-.5.5-.5.4-.5.4-.5.5-.5.4-.5.4-.5.5-.4.4-.5.4-.5.5-.5.4-.5.4-.5.5-.5.4-.4.4-.5.5-.5.4-.5.4-.4.5-.5.4-.5.4-.5.4-.4.5-.5.4-1 .8-.8.9-1 .8-.9.9-.9.8-.9.9-.9.8-.9.8-.9.9-1.7 1.6-1.8 1.7-1.7 1.6-.9.8-.9.8-.8.8-.9.8-.8.8-.9.8-.8.8-.9.7-.4.4-.4.4-.5.4-.4.4-.4.4-.4.3-.4.4-.5.4-.4.4-.4.4-.4.3-.5.4-.4.4-.4.3-.4.4-.4.4-.5.3-.4.4-.4.4-.4.3-.4.4-.4.3-.5.4-.4.4-.4.3-.4.4-.4.3-.5.4-.4.3-.4.4-.4.3-.4.3-.5.4-.4.3-.4.4-.4.3-.5.3-.4.4-.4.3-.4.3-.4.3-.5.4-.4.3-.4.3-.5.3-.4.3-.4.4-.4.3-.5.3-.4.3-.4.3-.4.3-.5.3-.4.3-.4.3-.5.3-.4.3-.4.3-.5.3-.4.3-.5.3-.4.2-.2.2-.2.1-.3.2-.2.1-.2.1-.2.2-.2.1-.3.2h-.2l-.2.2-.2.2h-.2l-.2.2-.3.2-.3.1-.2.2-.3.1-.2.2-.3.1-.2.2-.3.1-.2.2-.3.1-.2.1-.3.2-.3.1-.2.2h-.3l-.2.2-.3.2h-.2l-.3.2-.3.1-.2.2h-.3l-.2.2-.3.1-.3.1-.2.1-.3.1-.3.2h-.2l-.3.2h-.3l-.3.2h-.2l-.3.1-.3.1-.3.1-.2.1h-.4l-.2.1h-.1l-.1.1h-.2l-.2.1h-.1l-.2.1h-.2l-.2.1h-.4l-.2.1h-.3l-.1.1h-.4l-.2.1h-.6l-.1.1h-.6l-.2.1h-.9l-.1.1h-4.6l-.2-.1h-.4l-.2-.1h-.4l-.2-.1h-.3l-.1-.1h-.3l-.1-.1h-.3l-.2-.1h-.1l-.2-.1h-.1l-.2-.1h-.3l-.1-.1h-.2l-.1-.1-.2-.1h-.1l-.1-.1h-.2l-.1-.1-.2-.1h-.1l-.2-.1-.1-.1h-.1l-.2-.1-.1-.1-.2-.1h-.1l-.1-.2h-.2l-.1-.1-.2-.1-.2-.2h-.2l-.1-.2h-.1l-.2-.2h-.1l-.1-.2h-.2v-.2h-.2l-.1-.2h-.2l-.1-.2-.1-.1-.1-.1-.2-.2-.2-.2-.1-.1-.1-.2h-.1l-.2-.2v-.2h-.2v-.2l-.2-.2v-.1l-.2-.2v-.1l-.2-.2v-.1l-.2-.1v-.2l-.2-.2v-.1l-.1-.2-.1-.1v-.2l-.2-.1v-.2l-.1-.2v-.1l-.1-.2-.1-.2v-.1l-.1-.2v-.2l-.1-.1v-.2l-.1-.2v-.2l-.1-.1v-.4l-.1-.1v-.4l-.1-.2v-.8l-.1-.2v-4.4l.1-.3v-.7l.1-.3v-.3l.1-.4v-.6l.1-.4v-.3l.1-.4v-.3l.2-.3v-.7l.1-.4v-.3l.2-.4v-.3l.1-.4v-.4l.1-.3.1-.4v-.3l.2-.4v-.4l.1-.3.1-.4v-.4l.2-.4v-.3l.2-.4v-.4l.1-.4.1-.3.1-.4.1-.4.1-.4.1-.4.1-.4.1-.4.1-.4.1-.4.1-.4.1-.4.1-.4.2-.8.3-.8.2-.8.2-.8.2-.8.3-.9.2-.8.2-.9.3-.8.2-.9.5-1.7.5-1.7.5-1.8.2-.9.3-.9.2-.9.3-.9.2-.9.3-.9.2-.9.3-.9.2-.9.2-.9.3-1 .1-.4.1-.4.1-.5.2-.4v-.5l.2-.5.1-.4.1-.5.2-.5v-.4l.2-.5.1-.4.1-.5.1-.5.1-.4.1-.5.2-.4v-.5l.2-.5v-.4l.2-.5.1-.5.1-.4.1-.5.1-.4.1-.5.1-.5.1-.4.1-.5.1-.4v-.5l.2-.5v-.4l.2-.5v-.4l.2-.5v-.5l.1-.4.1-.5v-.4l.2-.5v-.4l.1-.5.1-.4v-.5l.2-.4v-.5l.1-.5v-.4l.1-.4.1-.5v-.4l.1-.5v-.4l.1-.5.1-.4v-.5l.1-.4v-.4l.1-.5v-.4l.1-.4v-.9l.1-.4v-.9l.1-.4v-.9l.1-.2v-1.9l.1-.2v-6.7l-.1-.2v-1.2l-.1-.1v-.8l-.1-.2v-.7l-.1-.2v-.5l-.1-.2v-.3l-.1-.2v-.5l-.1-.2v-.3l-.1-.2v-.4l-.1-.1v-.2l-.1-.2v-.3l-.1-.2v-.3l-.1-.1v-.2l-.1-.2v-.1l-.1-.2v-.3l-.1-.2v-.1l-.1-.2v-.1l-.1-.2v-.1l-.1-.2v-.2l-.1-.1v-.2l-.1-.1v-.2l-.1-.1v-.2l-.1-.1v-.1l-.1-.2v-.1l-.2-.2v-.3l-.1-.1v-.2l-.1-.1-.1-.1v-.2l-.1-.1v-.2l-.2-.1v-.3l-.1-.1-.1-.1v-.2l-.1-.1-.1-.1v-.2l-.2-.1v-.3h-.2v-.2l-.1-.2-.2-.2v-.1l-.1-.2-.2-.2-18-28.6 28.4 18.5Zm8.9 28.7v4.4l-.1.2v1.8l-.1.2v1.3l-.1.5v.4l-.1.5v1l-.1.5v.5l-.1.5-.1.5v.5l-.1.5v.5l-.1.5-.1.5v.5l-.1.5-.1.5v.5l-.2.5v.5l-.1.5-.1.5v.5l-.2.5v.5l-.1.5-.1.5-.1.5-.1.5v.5l-.2.5v.5l-.2.5v.5l-.2.5v.5l-.2.5v.5l-.2.5v.4l-.2.5-.1.5-.1.5-.1.5-.1.5-.1.5-.2.5v.5l-.2.5v.5l-.2.5-.1.4-.1.5-.2.5v.5l-.2.5-.1.5-.1.5-.2.4v.5l-.2.5-.1.5-.1.5-.2.4v.5l-.2.5-.1.5-.2.5-.2.9-.3 1-.2.9-.3 1-.2.8-.3 1-.2.9-.3.9-.2.9-.3.9-.2.9-.5 1.8-.5 1.7-.5 1.7-.3.9-.2.8-.2.8-.2.9-.3.8-.2.8-.2.8-.2.8-.2.7-.2.8-.1.4-.1.4-.1.3-.1.4-.1.4-.1.3-.1.4v.4l-.2.3v.4l-.2.3v.4l-.1.3-.1.4v.3l-.2.3v.4l-.1.3v.3l-.2.4v.3l-.1.3v.3l-.1.3v.3l-.1.3-.1.3v.3l-.1.3v.3l-.1.3v.3l-.1.3v.2l-.1.3v.5l-.1.3v.5l-.1.2v.7l-.1.2v.3h1.8v-.1h.6l.2-.1h.4v-.1h.3l.1-.1h.2l.1-.1h.2l.2-.1.2-.1h.2l.1-.1h.2l.1-.1.1-.1h.2l.1-.1h.2l.2-.2h.1l.2-.1h.1l.2-.2h.2l.1-.1.2-.1h.2l.1-.2h.2l.2-.2h.2l.2-.2h.2l.1-.2.2-.1.2-.1.2-.1.2-.1.2-.2.3-.1.2-.1.2-.2.2-.1.2-.1.2-.2h.2l.2-.2.2-.1.2-.1.2-.1.2-.2h.2l.2-.2.1-.1.2-.1.4-.3.4-.2.4-.3.4-.2.3-.3.4-.3.4-.2.4-.3.4-.3.4-.2.3-.3.4-.3.4-.2.4-.3.4-.3.4-.3.3-.3.4-.3.4-.3.4-.2.4-.3.4-.3.4-.3.3-.3.4-.3.4-.3.4-.4.4-.3.4-.3.4-.3.4-.3.4-.3.3-.4.4-.3.4-.3.4-.3.4-.4.4-.3.4-.3.4-.4.4-.3.4-.3.4-.4.4-.3.4-.4.4-.3.4-.4.4-.3.4-.4.4-.3.4-.4.4-.3.4-.4.4-.4.4-.3.4-.4.4-.4.4-.3.4-.4.4-.4.5-.4.4-.3.8-.8.8-.8.9-.7.8-.8.9-.8.8-.8.9-.8.8-.8 1.7-1.6 1.8-1.6 1.8-1.7.9-.8.9-.9.9-.8.9-.9 1-.8.8-.9 1-.8 1-.9.9-.9.4-.4.5-.4.5-.5.5-.4.5-.5.4-.4.5-.4.5-.5.5-.4.5-.5.5-.4.5-.4.5-.5.5-.4.5-.5.5-.4.5-.5.5-.4.5-.5.5-.4.5-.5.6-.4.5-.5.5-.4.5-.5.5-.4.6-.5.5-.4.5-.5.6-.4.5-.5.5-.4.6-.5.5-.4.6-.5.5-.5.6-.4.5-.5.6-.4.5-.5.6-.4.3-.3-.4.3-.3.2-.4.3-.3.2-.4.3-.3.2-.4.3-.3.2-.4.2-.3.3-.4.2-.3.3-.4.3-.3.2-.4.3-.3.2-.4.3-.3.2-.4.3-.3.3-.4.2-.4.3-.3.3-.4.2-.3.3-.4.3-.3.2-.4.3-.4.3-.3.3-.4.2-.3.3-.4.3-.4.3-.3.3-.4.2-.4.3-.3.3-.4.3-.4.3-.3.3-.4.3-.4.3-.3.3-.4.3-.4.3-.3.3-.4.3-.4.3-.4.3-.3.3-.4.3-.4.3-.3.3-.4.3-.4.3-.4.3-.3.4-.4.3-.4.3-.4.3-.4.3-.3.4-.4.3-.4.3-.4.3-.3.4-.4.3-.4.3-.4.4-.4.3-.4.3-.3.4-.4.3-.4.4-.4.3-.4.3-.4.4-.4.3-.3.4-.4.3-.4.4-.4.3-.4.4-.4.4-.4.3-.4.4-.4.3-.4.4-.3.4-.4.3-.4.4-.4.4-.4.3-.4.4-.4.4-.4.4-.4.3-.4.4-.4.4-.4.4-.4.4-.4.4-.4.4-.4.3-.4.4-.4.4-.4.4-.2.3v-.1.1l-.2.1-.1.2h-.1l-.2.2v.1l-.2.1-.1.2h-.2v.2h-.2l-.1.2h-.2l-.1.2h-.1l-.2.2-.2.2h-.2v.2h-.2l-.2.1-.1.1-.1.1h-.2l-.1.2h-.2l-.1.1-.1.1h-.2l-.1.2h-.2l-.1.1h-.2l-.1.1-.2.1h-.1l-.2.1-.2.1h-.1l-.2.1h-.1l-.2.1-.2.1h-.1l-.2.1h-.2l-.2.1h-.3l-.2.1h-.2l-.2.1h-.5l-.2.1h-1l-.3.1h-1.4l-.2-.1h-.5l-.2-.1h-.3l-.2-.2h-.3l-.3-.1-.2-.1-.3-.1-.3-.2-.3-.1-.3-.2-.3-.2-.3-.2-.3-.2-.3-.2-.3-.3-.3-.3-.3-.3-.2-.3-.3-.3-.2-.3-.2-.3-.2-.4-.1-.3-.2-.4-.1-.3-.1-.3-.1-.4-.1-.3v-.3l-.1-.3v-.3l-.1-.3v-2.2l.1-.2v-.3l.1-.2v-.2l.1-.1v-.3l.1-.1v-.3h.1v-.3l.2-.3v-.4l.2-.3v-.4l.2-.3v-.4l.2-.3v-.4l.2-.4v-.3l.1-.4.1-.4.1-.4v-.2l.1-.2v-.2l.1-.2v-.4l.1-.2v-.2l.1-.2v-.2l.1-.2v-.4l.1-.2v-.2l.1-.2v-.4l.1-.3v-.2l.1-.2v-.4l.1-.2v-.5l.1-.2v-.4l.1-.2v-.5l.1-.2v-.7l.1-.2v-.7l.1-.2v-.9l.1-.3v-1.1l.1-.3V212l-.1-.3v-.7l-.1-.3v-.7l-.1-.3v-.5l-.1-.2v-.3l-.1-.2v-.5l-.1-.3v-.2l-.1-.3v-.2l-.1-.3v-.2l-.1-.3v-.2l-.1-.3v-.2l-.1-.3-.1-.2v-.3l-.1-.2v-.3l-.2-.2v-.3l-.1-.2v-.3l-.1-.2-.1-.3-.1-.3v-.2l-.2-.3v-.2l-.1-.3-.1-.2-.1-.3v-.2l-.2-.3v-.2l-.2-.3v-.2l-.2-.3v-.3l-.2-.2v-.3l-.2-.2v-.3l-.2-.2-.1-.3-.1-.2-.2-.3v-.2l-.2-.3-.1-.2-.1-.3-.2-.3-.1-.2v-.1l-.1-.2h-.1v-.2l-.1-.1-.1-.2v-.1l-.1-.1-.1-.2-.1-.2-.1-.1v-.2h-.2v-.2l-.1-.1v-.2l-.2-.1v-.1l-.1-.2-.2-.2v-.1l-.1-.2h-.1v-.2l-.2-.1v-.2l-.1-.1-.1-.1Z" fill="#fff"/><path d="M265 297h-.2v-.2l-.4-.7-1-.5c-.4-.2-1-1-1.3-1.4-.3.3-.2.4-.6.5v-.3c-.1-.3-.4-.6-.6-.7v-.4h-.5c-.1.3-.1.4-.4.5l-.1-.6h-.2l-.4.1v.2l-.7.7v.4l-.4.3-.1.5-.3.2-.5 1.3v.5l-.2.3-.3 1.2c0 .4-.4.8-.5 1.1v.5c0 .2-.3.4-.4.6l.1.4-1.6 5.3-.1 1.2-.7 3.8c0 .5.3.5.2 1l-.4 1.2c.3 0 .3-.1.3.2l-.2.2.2.4c-.3.2-.3.2-.3.6h.5v.2l.2.5c.4-.3.7-.8 1.2-1 .5-.3 1.3-.2 1.7-.6l.3-.6.5-.5c.3-.3.4-.7.6-1l.4-.4.5-1 .3-.3c.1-.2 0-.4.2-.6l.4-.3.1-.7.5-.6v-.9l.9-.8v-.7l.6-1.4.4-.8.4-.3v-.4c0-.3.1-.7.3-1l.3-.3.3-.8.3-.4c.2-.5.4-2 .6-2.2V297Zm-109.8 19.7 1.4-4 .5-1.7 1.4-3.8 3-7.5c.6-1.2 1.2-2.5 1.6-3.8l-.1-.8.1-1.4c.2 0 .4.2.5.3.3 0 .3-.1.4-.2l.8.6h.3c0-.3 0-.3-.2-.4.7.2 1 .8 1.3 1.3.8 1.1 1.1 2 1.1 4v1.2l-.6 3v.5l-.3.2c-.1.3 0 .7-.2 1-.3 1-.6 2.2-1 3v1l-.7 1.4-.1 1.1-.5 1v.5l-.3 1.1c-.2.5-.2 1-.5 1.3l.1.3c.8 0 .9-.6 1.2-1.1l2.3-3.3c.2-.4.8-.7 1-1.1.5 0 1.3-1 1.5-1.3l.1-.5c.1-.1.3 0 .4-.2l1.5-2-.1.4c.5-.1.7-.6 1-1l1.8-2.5.8-.7c.2-.2 1-1.1.5-1.4.2-.6 2.2-2.5 3-2.6v-.6l.6-.3 1.4-1.3c0-.3-.2-.3-.3-.4.8-1 2-1.5 3-2.2.3-.2.5-.6.9-.8 0-.2 0-.3-.2-.4.2-.4 1.5-1.1 2-1.5 1.5-1 3.1-2.2 5-3 .5-.3 1-.4 1.6-.6l.3-.3c.3-.1.7 0 1-.2h.1v-.2h.6l.1-.2v-.2c.3 0 .7.2.9 0 .2 0 .1 0 .1-.2l1.2.3c.4 0 .4-.2.8 0l.4.3v.3l.5.3c.1.3 0 1.6-.2 1.9l-.7.7v1.4c-.3 0-.4.1-.7.3v.3c0 .7-.4.7-.8 1-.5.3-.8.8-1.2 1.2-.1 0-.3 0-.4.2-.7.8-1.4 1.7-2.3 2.2h-.4l-.1.4-.9.5-.2.4h-.4l-.7.9c-.6.5-1.3.7-2 1.1l-1.7 1.3c-.2 0-.4 0-.6.2l-.8.9-1 .5-.6 1-.4.1-.2.4-1.2 1.1-1.3 2c-.2.2-.5.2-.7.5-.4.3-.6.8-.9 1.2l-.3.2-1 1.7-1.1 1-4.3 5.8-1 1.6-.5.2-.5.8-1.4 1.8c-.2.3-.2.7-.5 1a11 11 0 0 1-1.8 1.9l-.7 1.1c-.2.3-.8.6-1 1v.3l-.3.3c-.6 1-1.8 2.8-2.9 3.2 0 0 .1.2-.3.3h-.8l-.5-.1-1.6-.5-.3-.2-.1-.3h-.3l-.1-.4-.3.2-.1-.3h-.2l-.9-.6.2-.3-.2-.3-.2-.2-.3-.6-.2-.8v-.8l-.1-.5v-.3l-.1-.4v-.5l.1-.6v-.4l.6-4.3.3-1.6c0-.3-.5 1.3.1-.8m30 .8c0-.8.6-1.4 1-2 .8-1.7 1.7-3.4 2.2-5.2.3-1 .2-3-.7-3l-.3.2-.2-.4-.5.3c-.1-.2-.4-.3-.6-.3 0 .4-.4.2-.5.5l-.2.4c-.6.7-1.4 1.2-2 2l-1.9 2.2a25.7 25.7 0 0 0-3.2 5.4c-.5 1.2-1 3.7-.5 4.8.3.5 1 1 1.5 1.3l.3.4h.3l.4.4c.2 0 .4 0 .5.2.2.1.1.3.4.4.2.2 1.3.2 1.7 0l.3-.4h.4l1.3-.6c.2-.2 0-.5.2-.7h.3l.4-.6c.3-.3.9-.5 1.2-.9.2-.2.1-.6.3-1l1-1 .3-.5.5-.3 1.4-2.1.4-.2 1.5-1.9.4-.2.5-.8 1.6-2.2.9-.8c.5-.6 1-1.3 1.6-1.8l1.2-1.2c.4-.3.9-.3 1.4-.6.7-.4.4-.6 1.7-.6l.6.4c.5.9-.1 2.8-.4 3.4l-1 2.5-.9 2.1c-.4 1-.7 2.3-1 3.5-.3.8-.2 1.7-.4 2.6a7 7 0 0 0 0 3.2l.7 1c.2.1.4 0 .6.2v.2c.5.5 1.3.7 2.1.7.1-.2.3-.1.5-.3l1.3-1.4.4-1 .6-.5.4-.6c.2-.4.7-.6 1-1l.7-1.3 1-1 .3-.6.8-1 2-2.8 1-.9c.3-.5.7-1.3 1.1-1.7l.5-.4c.5-.7 1.5-2.4 2.2-2.9.3-.2.6 0 .9-.2.4-.3.9-1.3 1.5-1.4h1l-.2-.4.9-.1c0-.6.3-.6.4-.9.2-.3.1-.7 0-.9-.4-1-1.2-.7-2.2-.8v.2c-.4 0-1 .3-1.2.5-.3.2-.7.2-1 .3-1 .4-1.8 1-2.6 1.6-.5.3-1.4.7-1.6 1.2v.2c-1 .7-1.6 1.8-2.4 2.9l-.5.4h-.2c-.2.1-.2.5-.4.7l-.3.1-.1.3h-.3l-.3.8c-.2.3-.8.4-1 .7-.6.7-1.6 2.9-2.3 3v-.3c.4-.5.5-2.7.9-3.5l.6-1.7c.1-.3.1-1 .3-1.3l.8-1.2.2-1.2c.3-.7.7-1.6.3-2.7-.2-.6-.7-1-1-1.5h-.1v.2c-.4 0-.4-.2-.6-.3 0 0-.2.1-.4 0l-.2-.1-1 .1-1.4.1-1.6.9a19.3 19.3 0 0 0-8 5.9c-.5.6-1.2 1-1.7 1.5-1 1.4-2.6 2.9-4 4-.5.4-1 1.3-1.9 1.3m46.7-.7c0 .6 0 1.2-.2 1.7a4 4 0 0 0 .2 1.7l.1 1a4.4 4.4 0 0 0 2.3 2.7c.5.3.9.8 1.4 1 .3.2.6 0 1 .2.6.3 1.3.6 2.2.2l.7-.7.8-.3c.2-.1.2-.5.4-.6.8-.7 1.6-1.2 2.2-2 .3-.4.3-1 .6-1.4 0-.2.4-.2.5-.3.1-.2 0-.4.2-.6.1-.3.9-1.2 1.2-1.5l.5-.1c.3-.2.5-.7.6-1.1l-.1-.3h-.1l-1.1.9c-1.3.8-2.6 1.3-4 2-1.2.6-2.4 1.3-4.1 1.3 0-1.4.8-3.2 1.2-4.5.3-.7.3-1.3.5-2 .4-1.2.7-1.3.3-2.6v-.8c-.2-.4-.5-.6-.8-.8-1.2-.8-2 0-3.6.1l-.3-.3c-.2-.3-.2-1-.6-1.2-.1.2-.2.2-.5.3-.5-.7-.4-.2-.9-.4-.1 0-.2-.2-.5-.2-.1 0-.4.2-.7.1l-.3-.2h-.4l-.1-.2h-.7c-.4.2-1.5.7-1.9.6l-1.2.4-2.5 1.3a19 19 0 0 0-8 7c-.4.7-1.4 2.5-1 3.9a6 6 0 0 0 1.2 1.5l.6.2.5.7c.3.2.7.3 1 .6l.4.4h.6l.3.2h.5a6 6 0 0 0 3-.8l1-.4.6-.7.6-.2.4-.5.6-.2c.2-.2.3-.6.5-.7l.4-.2.4-.9c.1-.3.6-.5 1-.8.6-.7 2-2.3 3-2.5m-2-4.1h.3l.1.3c-.7.4-1.1 1-1.7 1.5l-2.2 1.9-1.4 1.4-1 .5-.3.4c-.8.6-2 1.1-3.1.6l-.1-.8 1.4-1.7 3.5-2.5 3-1.2c.5-.1 1.1-.1 1.5-.4" fill="#1a1a18"/><path d="M169 273.5c.2 2.8 3 4.6 7.6 4.6 5 0 8.8-1.7 13.9-4.8 35.2-21.3 64.5-69.8 139.2-101.4 0 0-50.8-3.5-120.7 65.6a6.5 6.5 0 0 1-4.3 2.1c-1.6 0-1.8-.7-1.4-2 4.5-15 10.4-46.2-24-68.6 17.7 28-11.4 85.4-10.2 104.5" fill="#a4c855" fill-rule="nonzero"/><path d="M191.9 301.4c0-.3-.1-.3-.2-.5h-.3v.2l-.3.1v.4h-.3l-.4-.8c-.3.3-.6.2-1 .2 0 .3-.2.6-.4.7h-.2v.7c-.4.1-1 1.5-.7 2 0 .2.3.7.5.8.3.2.2 0 .5 0l.3.5.9.2c.7.2 1.4-.2 1.8-.4.8-.4 2-.6 2.5-1.1.2-.1.2-.3.3-.5l.1-.9a6.1 6.1 0 0 0-1.6-2.3c0 .5 0 .7-.5.7-.1-.2-.4-.6-.7-.7 0 .4 0 .6-.3.7m63 23v-.4c.1-.1.2-.3.5-.4h.5c.5-.3 1-1 1-1.7-.2-.3-.1-.7-.3-1-.2-.7-.7-1.8-1.4-2v.7h-.3c-.4-.6-.2 0-.7-.2-.2-.2-.1-.4-.5-.5v.4h-.3l-.4-.3c-.4.2-1-.2-1.3 0-.6 0-1.5.5-1.5 1.2.3.3 0 1 .3 1.4l.4.4c.4.7.8 2 1.7 2 .3-.2 1.7.3 2.2.3" fill="#a4c855"/><path d="M319.1 154.6h1c1.3 0 2.3-.4 2.3-1.4 0-.9-.6-1.5-2-1.5-.6 0-1 0-1.3.2v2.7Zm0 5.4h-2.3v-9.6c1-.1 2.2-.3 3.7-.3 1.9 0 2.7.3 3.4.7a3 3 0 0 1 1 2.1c0 1.1-.9 2-2 2.3v.1c.9.3 1.4 1 1.7 2.4.3 1.5.5 2 .7 2.3H323c-.3-.3-.5-1.1-.8-2.3-.1-1-.7-1.5-2-1.5h-1v3.8Zm1.4-12.7a7.5 7.5 0 0 0-7.4 7.7c0 4.3 3.2 7.7 7.6 7.7 4.2.1 7.3-3.4 7.3-7.7 0-4.2-3-7.7-7.4-7.7Zm.2-2c5.5 0 9.8 4.4 9.8 9.7 0 5.5-4.3 9.7-9.9 9.7-5.5 0-10-4.2-10-9.7 0-5.3 4.5-9.6 10-9.6Z" fill="#1a1a18" fill-rule="nonzero"/></svg>

