<?xml version="1.0" encoding="UTF-8" standalone="no"?>
<!-- Created with Inkscape (http://www.inkscape.org/) -->

<svg
   version="1.1"
   id="svg1"
   width="377.94666"
   height="377.94666"
   viewBox="0 0 377.94666 377.94666"
   sodipodi:docname="bio-garantie-at.90x90.eps"
   xmlns:inkscape="http://www.inkscape.org/namespaces/inkscape"
   xmlns:sodipodi="http://sodipodi.sourceforge.net/DTD/sodipodi-0.dtd"
   xmlns="http://www.w3.org/2000/svg"
   xmlns:svg="http://www.w3.org/2000/svg">
  <defs
     id="defs1" />
  <sodipodi:namedview
     id="namedview1"
     pagecolor="#ffffff"
     bordercolor="#000000"
     borderopacity="0.25"
     inkscape:showpageshadow="2"
     inkscape:pageopacity="0.0"
     inkscape:pagecheckerboard="0"
     inkscape:deskcolor="#d1d1d1">
    <inkscape:page
       x="0"
       y="0"
       inkscape:label="1"
       id="page1"
       width="377.94666"
       height="377.94666"
       margin="0"
       bleed="0" />
  </sodipodi:namedview>
  <g
     id="g1"
     inkscape:groupmode="layer"
     inkscape:label="1">
    <g
       id="group-R5">
      <path
         id="path2"
         d="M 2806.29,1417.42 C 2806.29,650.16 2184.46,28.3516 1417.34,28.3516 650.094,28.3516 28.3438,650.16 28.3438,1417.42 c 0,767.08 621.7502,1388.87 1388.9962,1388.87 767.12,0 1388.95,-621.79 1388.95,-1388.87"
         style="fill:#ffffff;fill-opacity:1;fill-rule:nonzero;stroke:none"
         transform="matrix(0.13333333,0,0,-0.13333333,0,377.94667)" />
      <path
         id="path3"
         d="M 2563.98,754.43 C 2386.68,447.32 2100.37,227.621 1757.79,135.809 1644.94,105.57 1529.06,90.2305 1413.39,90.2305 c -0.02,0 -0.04,0 -0.06,0 C 814.043,90.2695 286.988,495.102 131.609,1074.7 c -189.4059,707.22 231.676,1436.72 938.681,1626.17 112.82,30.22 228.69,45.56 344.39,45.56 599.38,0 1126.49,-404.81 1281.82,-984.44 91.84,-342.6 44.79,-700.41 -132.52,-1007.56 z m 222.29,1029.63 c -165.96,618.57 -728.46,1050.58 -1367.92,1050.58 -123.49,0 -247.18,-16.37 -367.59,-48.64 C 685.223,2688.07 379.703,2453.63 190.453,2125.86 1.21484,1798.08 -49.0625,1416.2 48.875,1050.59 214.547,432.02 776.965,0 1416.57,0 1540.03,0 1663.69,16.3516 1784.07,48.6094 2538.74,250.809 2988.33,1029.3 2786.27,1784.06"
         style="fill:#a71b25;fill-opacity:1;fill-rule:nonzero;stroke:none"
         transform="matrix(0.13333333,0,0,-0.13333333,0,377.94667)" />
      <path
         id="path4"
         d="m 592.445,814.93 c 1.141,4.621 -1.015,8.879 -3.125,12.531 l -41.14,71.309 c -2.032,3.5 -5.43,9.39 -12.34,9.39 -3.543,0 -6.887,-1.648 -9.977,-3.441 l -27.035,-15.598 c -4.058,-2.34 -7.961,-5.152 -9.105,-9.769 -1.133,-4.614 1.015,-8.883 3.121,-12.524 l 14.543,-25.187 -50.235,-29 c -4.711,3.687 -12.25,10.461 -18.492,21.257 -20.508,35.532 -0.754,65.403 70.457,106.512 66.602,38.418 104.543,40.75 124.813,5.649 11.535,-19.981 11.535,-43.18 11.535,-54.348 0,-5.313 0,-7.27 1.18,-9.32 1.152,-1.993 4.14,-5.36 11.21,-5.36 l 36.254,2.129 c 4.821,0.281 7.77,0.949 10.149,2.352 13.125,7.566 3.629,64.218 -16.653,99.359 C 644.012,1056.37 567.195,1066.25 466.273,1008 365.809,950.02 337.27,881.801 381.441,805.262 397.891,776.738 435.719,737 459.957,737 c 3.523,0 6.715,0.809 9.481,2.422 l 113.906,65.746 c 4.054,2.332 7.961,5.133 9.101,9.762"
         style="fill:#34b64e;fill-opacity:1;fill-rule:nonzero;stroke:none"
         transform="matrix(0.13333333,0,0,-0.13333333,0,377.94667)" />
      <path
         id="path5"
         d="m 769.164,716.352 c -4.922,-7.5 -9.5,-14.821 -13.141,-21.262 l -36.73,-66.039 -34.012,31.148 63.457,41.461 c 6.004,3.981 13.067,9.07 20.426,14.692 z m 86.738,51.937 -36.293,33.25 c -3.5,3.18 -6.75,5.859 -11.113,5.859 -3.359,0 -6.051,-1.597 -8.922,-3.289 l -274.832,-161.871 -1.406,-0.859 c -2.145,-1.277 -4.813,-2.859 -7.18,-5.539 -5.554,-8.129 2.16,-15.192 5.059,-17.871 l 35.238,-32.25 c 2.668,-2.449 5.887,-5.059 10.32,-5.059 4.032,0 7.391,2.129 11.547,5.02 l 61.922,40.699 52.731,-48.32 -34.203,-66.258 c -3.536,-6.949 -6.887,-13.531 0.601,-20.371 l 39.07,-35.821 c 4.446,-4.05 8.372,-6.031 11.997,-6.031 2.558,0 4.898,1 6.574,2.844 1.429,1.547 2.468,3.637 3.793,6.418 l 138.82,289.832 c 2.914,6.5 4.48,12.09 -3.723,19.617"
         style="fill:#34b64e;fill-opacity:1;fill-rule:nonzero;stroke:none"
         transform="matrix(0.13333333,0,0,-0.13333333,0,377.94667)" />
      <path
         id="path6"
         d="M 1043.29,536.18 C 1032.37,512.719 1020.14,510 1011.88,510 v 0 c -10.17,0.02 -21.841,4.809 -31.923,9.488 l -5.359,2.512 32.922,70.738 10.08,-4.687 c 10.94,-5.102 21.22,-10.301 26.78,-18.02 3.82,-5.312 7.87,-14.582 -1.09,-33.851 z m 5.39,106.308 -69.485,32.321 c -2.902,1.363 -6.011,2.621 -9.136,2.621 -7.661,0 -10.973,-7.129 -12.551,-10.539 L 829.16,391.129 c -1.949,-4.168 -3.519,-8.629 -1.918,-13.027 1.664,-4.551 5.946,-6.852 9.832,-8.653 l 39.879,-18.57 c 2.895,-1.34 6.016,-2.609 9.145,-2.609 7.66,0 10.961,7.128 12.539,10.519 l 49.605,106.59 11.215,-5.25 4.094,-138.488 c 0.762,-15.43 2.551,-21.11 7.367,-23.352 2.309,-1.09 5.641,-2 8.094,-2.469 l 40.908,-6.5 c 2.58,-0.359 5.18,-0.711 7.34,-0.711 6.43,0 9.17,2.993 10.34,5.512 1.89,4.051 1.34,9.238 0.94,12.918 l -10.12,137.672 c 21.98,1.187 60.05,6.918 84.76,60 41.22,88.559 -35.59,124.309 -64.5,137.777"
         style="fill:#34b64e;fill-opacity:1;fill-rule:nonzero;stroke:none"
         transform="matrix(0.13333333,0,0,-0.13333333,0,377.94667)" />
      <path
         id="path7"
         d="m 1300.72,370.98 -45.74,5.809 27.89,70.461 c 2.62,6.699 5.45,14.93 8.21,23.781 0.31,-8.91 0.79,-17.609 1.53,-24.941 z m 45.59,178.629 c -1.39,6.993 -3.33,12.481 -14.37,13.852 l -48.81,6.219 c -2.13,0.269 -3.81,0.398 -5.19,0.398 -8.2,0 -10.57,-5.219 -12.66,-9.848 l -131.03,-290.73 -0.66,-1.531 c -1.02,-2.278 -2.28,-5.098 -2.66,-8.66 0.14,-9.84 10.52,-11.137 14.43,-11.649 l 47.4,-6.039 c 1.51,-0.18 2.81,-0.293 3.95,-0.293 9.28,0 11.78,6.961 13.91,12.91 l 27.09,68.942 70.93,-9.02 10.31,-73.851 c 1.12,-7.707 2.18,-15.008 12.24,-16.297 l 52.55,-6.692 c 1.51,-0.191 3.02,-0.289 4.43,-0.289 10.68,0 12.34,6.399 12.59,8.399 0.27,2.109 -0.09,4.429 -0.61,7.461 l -53.84,316.718"
         style="fill:#34b64e;fill-opacity:1;fill-rule:nonzero;stroke:none"
         transform="matrix(0.13333333,0,0,-0.13333333,0,377.94667)" />
      <path
         id="path8"
         d="m 1706.18,583.871 c -0.83,4.051 -2.75,13.527 -13.1,13.527 -1.68,0 -3.7,-0.25 -6.15,-0.75 l -33.86,-6.859 c -11.54,-2.32 -15.11,-7.711 -12.78,-19.25 l 29.76,-147.019 c 1.11,-5.399 3.1,-14.11 5.3,-23.54 -6.32,9.532 -13.79,19.84 -22.41,30.391 l -105.66,128.328 c -2.7,3.192 -5.7,6.813 -11.93,6.813 -1.59,0 -3.54,-0.25 -6.13,-0.782 l -38.01,-7.691 c -11.54,-2.328 -15.11,-7.73 -12.79,-19.25 l 60.35,-298.211 c 0.82,-4.058 2.73,-13.539 13.07,-13.539 1.67,0 3.69,0.25 6.16,0.77 l 33.88,6.839 c 4.13,0.832 8.76,2.063 11.45,5.954 2.73,3.918 2.25,8.718 1.31,13.308 l -33.78,166.961 c -0.88,4.34 -1.83,8.758 -2.81,13.098 5.49,-7.457 12,-15.559 20.04,-25.25 l 116.76,-140.86 c 3.04,-3.89 6.29,-7.371 12.49,-7.371 1.56,0 3.42,0.242 5.79,0.711 l 30.61,6.199 c 11.82,2.422 15.17,7.442 12.77,19.25 l -60.33,298.223"
         style="fill:#34b64e;fill-opacity:1;fill-rule:nonzero;stroke:none"
         transform="matrix(0.13333333,0,0,-0.13333333,0,377.94667)" />
      <path
         id="path9"
         d="m 1895.31,621.699 45.83,25.172 c 3.35,1.848 12.24,6.738 8.99,19.008 l -9.26,37.441 -0.38,1.758 c -0.48,2.203 -0.85,3.934 -2.2,6.371 -2.66,4.86 -6.48,5.891 -9.2,5.891 -3.49,0 -7.16,-1.649 -12.36,-4.481 l -170.82,-93.918 c -8.86,-4.863 -10.57,-10.742 -5.7,-19.613 l 19.6,-35.629 c 1.5,-2.75 4.63,-8.429 11.16,-8.429 3.08,0 5.88,1.308 8.44,2.718 l 48.71,26.782 120.92,-219.961 c 1.83,-3.387 5.31,-9.688 12.43,-9.688 3.19,0 6.22,1.301 9.75,3.238 l 38.55,21.2 c 3.69,2.019 7.73,4.582 9.17,9.101 1.43,4.551 -0.47,8.969 -2.72,13.078 l -120.91,219.961"
         style="fill:#34b64e;fill-opacity:1;fill-rule:nonzero;stroke:none"
         transform="matrix(0.13333333,0,0,-0.13333333,0,377.94667)" />
      <path
         id="path10"
         d="m 2254.15,621.031 c -3.23,3.5 -6.89,6.731 -11.75,6.731 -4.64,0 -8.27,-3.012 -11.34,-5.813 l -14.41,-13.32 -149.66,161.922 14.44,13.32 c 8.6,7.981 8.86,14.469 0.9,23.078 l -17.34,18.781 c -3.25,3.481 -6.89,6.719 -11.76,6.719 -4.65,0 -8.29,-3.019 -11.33,-5.82 l -85.14,-78.68 c -8.64,-7.969 -8.87,-14.449 -0.92,-23.097 l 17.35,-18.743 c 3.24,-3.488 6.89,-6.73 11.75,-6.73 4.65,0 8.29,2.992 11.33,5.801 l 14.43,13.32 149.65,-161.922 -14.41,-13.316 c -3.15,-2.91 -6.53,-6.434 -6.72,-11.262 -0.18,-4.68 2.67,-8.449 5.79,-11.82 l 17.36,-18.77 c 3.23,-3.48 6.88,-6.719 11.73,-6.719 4.67,0 8.3,3 11.35,5.809 l 85.11,78.699 c 3.12,2.871 6.46,6.301 6.73,11.031 0.28,4.77 -2.63,8.59 -5.8,12.032 l -17.34,18.769"
         style="fill:#34b64e;fill-opacity:1;fill-rule:nonzero;stroke:none"
         transform="matrix(0.13333333,0,0,-0.13333333,0,377.94667)" />
      <path
         id="path11"
         d="m 2468.6,848.051 c -1.07,4.527 -4.83,7.34 -8.61,9.847 l -26.08,17.133 c -3.88,2.559 -7,4.141 -10.47,4.141 -6.36,0 -9.97,-5.512 -12.15,-8.813 l -52.11,-79.269 -66.79,43.93 40.66,61.871 c 6.48,9.8 5.15,16.129 -4.67,22.609 l -26.08,17.148 c -3.89,2.563 -7,4.153 -10.48,4.153 -6.35,0 -9.84,-5.313 -12.14,-8.832 l -40.67,-61.86 -54.54,35.86 46.9,71.359 c 5.04,7.633 4.73,14.692 -0.84,20.953 l -22.71,26.279 c -1.44,1.73 -2.58,3.07 -4.92,4.63 -2.12,1.38 -4.16,2.05 -6.25,2.05 -5.82,0 -9.39,-4.73 -13.44,-10.9 l -85.25,-129.692 c -2.33,-3.507 -4.72,-7.648 -3.86,-12.289 0.86,-4.711 4.62,-7.75 8.51,-10.32 l 254.2,-167.109 c 3.18,-2.09 6.61,-4.02 10.41,-4.02 6.5,0 10.07,5.442 12.22,8.711 l 85.49,130.051 c 2.33,3.547 4.73,7.707 3.67,12.379"
         style="fill:#34b64e;fill-opacity:1;fill-rule:nonzero;stroke:none"
         transform="matrix(0.13333333,0,0,-0.13333333,0,377.94667)" />
      <path
         id="path12"
         d="m 2322.51,1148.92 c 2.55,8.49 0.59,16.57 -8.3,19.26 -8.89,2.68 -15.17,-2.03 -18.45,-12.95 l -6.12,-20.19 26.29,-7.93 z m 67.29,18.5 -6.09,-20.21 -45.16,-3.56 -6.48,-21.42 40.43,-12.2 -5.49,-18.19 -100.21,30.26 10.11,33.53 c 5.73,18.99 15.56,39.84 44.66,31.06 17.77,-5.37 18.1,-17.38 19.4,-24.82 z m -35.24,55.6 c -44.45,13.41 -91.79,-11.97 -105.2,-56.42 -13.4,-44.46 11.98,-91.8 56.42,-105.22 44.46,-13.43 91.8,11.99 105.22,56.45 13.42,44.44 -11.98,91.77 -56.44,105.19 z m 70.58,-109.47 c -15.73,-52.15 -71.07,-82.18 -123.62,-66.32 -52.14,15.73 -82.02,71.51 -66.3,123.63 15.72,52.13 71.48,82.03 123.61,66.3 52.54,-15.84 82.04,-71.49 66.31,-123.61"
         style="fill:#34b64e;fill-opacity:1;fill-rule:nonzero;stroke:none"
         transform="matrix(0.13333333,0,0,-0.13333333,0,377.94667)" />
      <path
         id="path13"
         d="m 2342.25,1751.27 c -27.16,101.39 -82.2,183.16 -144.61,215.53 -36.82,28.71 -77.12,47.08 -120.28,55.27 -34.45,62.14 -76.79,118.86 -125.49,168.99 -48.25,-50.95 -116.39,-82.88 -192.08,-82.88 -146.21,0 -264.72,118.46 -264.72,264.68 0,17.4 1.8,34.37 5,50.83 -38.72,5.85 -78.21,8.97 -118.24,8.97 -69.34,0 -138.74,-9.19 -206.4,-27.3 -113.25,-30.37 -216.188,-84.19 -303.617,-157.16 -128.106,-51.99 -262.551,-122.69 -411.375,-216.06 -83.02,-51.58 -148.469,-92.24 -128.887,-164.87 10.211,-38.92 43.765,-65.31 83.433,-65.31 7.825,0 15.774,1.03 23.61,3.05 39.992,10.67 61.722,42.55 72.562,63.24 28.645,19.01 69.399,42.55 116.977,69.23 0.926,-12.02 2.082,-23.7 3.082,-35.59 -53.473,-150.45 -60.445,-313.35 -18.207,-470.97 31.457,-117.42 88.453,-222.8 163.926,-310.93 l 13.035,-45.2 c -0.703,-12.16 0.578,-24.31 3.832,-36.22 10.387,-38.718 42.781,-62.91 84.496,-62.91 12.726,0 26.594,2.07 43.668,6.52 1.926,0.511 3.57,1.14 5.406,1.691 129.959,-90.48 287.059,-142.652 453.539,-142.652 69.41,0 138.85,9.203 206.5,27.312 205.14,54.891 376.75,186.459 482.93,370.549 10.85,18.8 20.68,37.97 29.89,57.34 96.03,26.72 172.85,88.18 216.75,173.52 42.75,82.73 51.76,182.67 25.27,281.33"
         style="fill:#34b64e;fill-opacity:1;fill-rule:nonzero;stroke:none"
         transform="matrix(0.13333333,0,0,-0.13333333,0,377.94667)" />
      <path
         id="path14"
         d="m 1812.8,2224.9 c -16.59,-5.94 -34.41,-9.2 -53.01,-9.2 -86.64,0 -157.18,70.51 -157.18,157.13 0,86.7 70.54,157.15 157.18,157.15 86.67,0 157.14,-70.45 157.14,-157.15 0,-18.56 -3.25,-36.39 -9.16,-52.95 l 38.87,-38.91 c 13.76,27.71 21.49,58.91 21.49,91.86 0,114.87 -93.51,208.33 -208.34,208.33 -114.84,0 -208.32,-93.46 -208.32,-208.33 0,-114.84 93.48,-208.26 208.32,-208.26 32.99,0 64.19,7.74 91.94,21.39 l -38.93,38.94"
         style="fill:#34b64e;fill-opacity:1;fill-rule:nonzero;stroke:none"
         transform="matrix(0.13333333,0,0,-0.13333333,0,377.94667)" />
      <path
         id="path15"
         d="m 1702.54,2372.83 c 0,31.55 25.68,57.21 57.25,57.21 31.58,0 57.24,-25.66 57.24,-57.21 0,-31.56 -25.66,-57.21 -57.24,-57.21 -31.57,0 -57.25,25.65 -57.25,57.21 z m 206.9,-113.46 -57.16,57.18 c 10.04,16.46 15.9,35.66 15.9,56.28 0,59.78 -48.62,108.4 -108.39,108.4 -59.77,0 -108.39,-48.62 -108.39,-108.4 0,-59.79 48.62,-108.38 108.39,-108.38 20.64,0 39.82,5.9 56.27,15.93 l 57.21,-57.17 c 5.03,-4.99 11.59,-7.51 18.09,-7.51 6.52,0 13.09,2.52 18.08,7.51 10.03,9.97 10.03,26.16 0,36.16"
         style="fill:#171717;fill-opacity:1;fill-rule:nonzero;stroke:none"
         transform="matrix(0.13333333,0,0,-0.13333333,0,377.94667)" />
      <path
         id="path16"
         d="m 901.074,1184.97 c 4.496,2.94 9.387,5.54 14.461,7.03 4.598,1.2 8.992,1.8 13.199,1.8 17.836,0 32.383,-10.77 45.543,-32.07 19.934,-8.36 46.133,-12.54 76.643,-12.54 37.78,0 82.14,6.4 129.44,19.2 159.79,42.77 238.24,180.07 211.05,281.41 -22.46,84.18 -127.43,138.47 -267.26,138.47 -55.38,0 -114.03,-8.18 -174.42,-24.26 -31.898,-8.59 -76.39,-26.8 -128.835,-52.55 16.496,-84.68 29.781,-148.49 44.378,-202.62 8.676,-32.55 20.719,-73.13 35.801,-123.87 m -96.285,408.02 c 114.555,43.84 221.051,114.8 353.791,235.38 195.02,175.02 248.76,296.54 234.06,351.79 -11.13,41.24 -48.42,61.71 -111.82,61.71 -40.11,0 -90.66,-8.19 -151.64,-24.49 -148.395,-39.81 -282.438,-93.11 -378.34,-150.48 6.883,-166.77 24.98,-326.14 53.949,-473.91 m 470.041,702.76 c 128.2,0 170.54,-57.37 183.5,-105.5 33.88,-126.85 -122.21,-328.09 -418.71,-541.44 26.74,2.06 52.27,3.09 76.57,3.09 195.51,0 311.71,-66.31 346.64,-196.45 40.67,-152.08 -67.66,-295 -263.42,-347.46 -58.96,-15.73 -114,-23.64 -163.88,-23.64 -36.116,0 -69.538,4.15 -99.772,12.49 1.555,-2.12 3.273,-4 4.926,-5.91 3.91,-4.34 7.929,-8.85 9.496,-14.66 8.144,-31.31 -27.629,-40.99 -41.098,-44.59 -12.477,-3.25 -22.484,-4.88 -30.785,-4.88 -18.805,0 -30.656,8.48 -35.149,25.24 -2.464,9.01 -2.859,18.11 -1.222,27.22 l -19.856,68.78 c -13.047,45.29 -22.394,77.44 -27.574,96.62 -18.496,69.59 -36.305,153.68 -52.965,234.96 -4.859,-0.97 -9.613,-1.44 -14.183,-1.44 -22.489,0 -40.543,11.27 -45.301,29.39 -5.402,21.21 11.308,42.67 42.859,56.01 -24.574,145.51 -41.406,295.55 -51.289,457.83 l -7.363,-4.14 c -85.992,-47.75 -154.137,-85.63 -195.246,-114.49 -12.707,-28.35 -26.742,-43.31 -45.199,-48.25 -3.723,-0.96 -7.34,-1.41 -10.825,-1.41 -16.488,0 -29.578,10.43 -34.043,27.46 -9.703,35.99 31.743,61.67 106.688,108.23 223.137,139.99 412.844,228.21 597.011,277.48 72.94,19.55 136.84,29.46 190.19,29.46"
         style="fill:#ffffff;fill-opacity:1;fill-rule:nonzero;stroke:none"
         transform="matrix(0.13333333,0,0,-0.13333333,0,377.94667)" />
      <path
         id="path17"
         d="m 1585.03,1796.13 c 16.52,0 26.73,-9.34 31.55,-27.55 0.91,-3.33 0.76,-8.11 0.56,-17.5 -0.49,-33.46 -2.14,-122.25 40.7,-282.38 19,-70.5 39.22,-139.5 60.31,-139.5 1.13,0 2.32,0.19 3.67,0.55 1.12,0.37 3.83,1.81 6.5,3.34 4.75,2.59 10.75,5.92 17.59,7.76 2.51,0.67 5.04,0.99 7.53,0.99 13.85,0 26.6,-9.65 30.1,-22.93 2.7,-10.2 -0.1,-23.76 -7.45,-36.39 -8.88,-15.12 -22.33,-26.03 -36.81,-29.77 -5.48,-1.44 -11.06,-2.21 -16.53,-2.21 -59.56,0 -107.35,87.66 -164.75,302.53 -32.2,119.89 -37.94,185.07 -18.96,217.76 6.79,11.72 16.82,19.43 29.81,22.88 5.95,1.62 11.33,2.42 16.18,2.42"
         style="fill:#ffffff;fill-opacity:1;fill-rule:nonzero;stroke:none"
         transform="matrix(0.13333333,0,0,-0.13333333,0,377.94667)" />
      <path
         id="path18"
         d="m 2018.56,1405.5 c 16.47,0 33.39,2.3 50.34,6.91 130.04,34.94 194.04,159.45 155.78,302.79 -8.19,30.34 -24.84,63.63 -49.46,98.88 -29.11,18.54 -47.6,41.77 -58,72.81 -36.14,22.71 -68.48,33.29 -101.57,33.29 -15.09,0 -30.27,-2.13 -46.61,-6.48 -51.73,-13.82 -97.21,-56.42 -124.79,-116.78 -29.9,-65.12 -35.21,-142.45 -15.1,-217.7 29.21,-108.75 99.95,-173.72 189.41,-173.72 m 6.47,570.46 c 53.08,0 101.87,-17.64 145.05,-52.6 50.84,-23.6 98.86,-96.11 122.76,-185.36 23.13,-86.13 15.66,-173.07 -21.35,-244.66 -37.71,-73.34 -104.44,-126.13 -187.73,-148.47 -25.71,-6.79 -50.96,-10.33 -75.16,-10.33 -118.58,0 -208.23,80.52 -245.89,220.88 -23.82,88.73 -16.02,181.16 22.07,260.19 36.83,76.67 98.84,131.57 170.06,150.7 24.11,6.44 47.55,9.65 70.19,9.65"
         style="fill:#ffffff;fill-opacity:1;fill-rule:nonzero;stroke:none"
         transform="matrix(0.13333333,0,0,-0.13333333,0,377.94667)" />
      <path
         id="path19"
         d="m 1529.18,2036.9 c 29.97,0 53.1,-16.91 60.92,-45.67 7.97,-30.55 -14.23,-61.26 -51.78,-71.41 -7.54,-1.99 -15.09,-3.01 -22.34,-3.01 -29.56,0 -53.95,16.61 -60.7,41.32 -8.96,33.45 12.42,65.24 50.79,75.65 8.04,2.11 15.78,3.12 23.11,3.12"
         style="fill:#ffffff;fill-opacity:1;fill-rule:nonzero;stroke:none"
         transform="matrix(0.13333333,0,0,-0.13333333,0,377.94667)" />
    </g>
  </g>
</svg>
