<?xml version="1.0" encoding="UTF-8" standalone="no"?>
<!-- Generator: Adobe Illustrator 19.2.1, SVG Export Plug-In . SVG Version: 6.00 Build 0)  -->

<svg
   version="1.1"
   id="layer"
   x="0px"
   y="0px"
   viewBox="0 0 90 90"
   xml:space="preserve"
   sodipodi:docname="biokreis-ev-logo-vector.svg"
   width="90"
   height="90"
   inkscape:version="1.3.2 (091e20e, 2023-11-25)"
   xmlns:inkscape="http://www.inkscape.org/namespaces/inkscape"
   xmlns:sodipodi="http://sodipodi.sourceforge.net/DTD/sodipodi-0.dtd"
   xmlns="http://www.w3.org/2000/svg"
   xmlns:svg="http://www.w3.org/2000/svg"><defs
   id="defs2" /><sodipodi:namedview
   id="namedview2"
   pagecolor="#ffffff"
   bordercolor="#000000"
   borderopacity="0.25"
   inkscape:showpageshadow="2"
   inkscape:pageopacity="0.0"
   inkscape:pagecheckerboard="0"
   inkscape:deskcolor="#d1d1d1"
   inkscape:zoom="3.701063"
   inkscape:cx="6.6197197"
   inkscape:cy="81.598178"
   inkscape:window-width="1680"
   inkscape:window-height="1005"
   inkscape:window-x="0"
   inkscape:window-y="23"
   inkscape:window-maximized="0"
   inkscape:current-layer="layer" />
<style
   type="text/css"
   id="style1">
	.st0{fill:#F0E232;}
	.st1{fill:#009E69;}
</style>

<path
   class="st0"
   d="M 0,45 C 0,20.142 20.142,0 45,0 69.858,0 90,20.142 90,45 90,69.858 69.858,90 45,90 20.142,90 0,69.858 0,45"
   id="path1"
   style="stroke-width:0.18;fill:#feed01;fill-opacity:1" /><path
   class="st1"
   d="m 36.684,63.153034 -1.386,-2.25 h -0.432 v 2.25 h -1.764 v -7.2 l 1.746,-0.396 v 4.086 h 0.504 l 1.35,-1.674 h 1.908 l -1.98,2.34 2.052,2.826 h -1.998 z m 6.75,-5.04 c -0.126,-0.072 -0.27,-0.108 -0.414,-0.162 -0.144,-0.036 -0.306,-0.054 -0.504,-0.054 -0.306,0 -0.558,0.09 -0.792,0.252 -0.234,0.162 -0.432,0.414 -0.63,0.738 0,0 -0.09,-0.828 -0.09,-0.864 0.054,0 -1.44,0 -1.44,0 v 5.13 h 1.764 v -2.988 c 0.216,-0.324 0.414,-0.558 0.576,-0.666 0.162,-0.126 0.342,-0.18 0.504,-0.162 0.09,0 0.18,0.018 0.27,0.036 0.09,0.018 0.162,0.054 0.234,0.09 z m 2.916,0.954 c -0.27,0 -0.468,0.108 -0.612,0.342 -0.144,0.216 -0.234,0.522 -0.27,0.918 l 0.774,-0.18 c 0.234,-0.054 0.414,-0.126 0.54,-0.198 0.108,-0.09 0.18,-0.198 0.18,-0.36 0,-0.144 -0.054,-0.27 -0.18,-0.36 -0.126,-0.108 -0.27,-0.162 -0.432,-0.162 m 2.196,3.456 c -0.306,0.198 -0.648,0.36 -1.008,0.486 -0.378,0.126 -0.792,0.18 -1.26,0.198 -0.774,0 -1.422,-0.216 -1.908,-0.666 -0.486,-0.432 -0.738,-1.098 -0.756,-1.998 0.018,-0.846 0.27,-1.494 0.774,-1.962 0.504,-0.468 1.17,-0.684 1.98,-0.702 0.72,0.018 1.278,0.18 1.674,0.486 0.396,0.306 0.594,0.684 0.594,1.134 0,0.468 -0.162,0.81 -0.504,1.044 -0.342,0.234 -0.882,0.414 -1.584,0.54 l -0.99,0.198 c 0.072,0.234 0.18,0.396 0.342,0.504 0.162,0.108 0.36,0.162 0.63,0.162 0.27,0 0.54,-0.036 0.792,-0.108 0.234,-0.072 0.504,-0.18 0.792,-0.324 z m 2.97,0.432 v -5.238 l -1.782,0.432 v 4.806 z m -1.944,-6.714 c 0,0.306 0.108,0.54 0.306,0.738 0.198,0.198 0.45,0.288 0.738,0.288 0.288,0 0.522,-0.108 0.702,-0.288 0.18,-0.198 0.288,-0.432 0.288,-0.738 0,-0.288 -0.108,-0.54 -0.288,-0.72 -0.18,-0.198 -0.432,-0.288 -0.702,-0.306 -0.306,0 -0.54,0.108 -0.738,0.306 -0.198,0.18 -0.306,0.432 -0.306,0.72 m 7.758,5.346 c 0,-0.468 -0.144,-0.81 -0.414,-1.062 -0.27,-0.252 -0.666,-0.45 -1.206,-0.594 l -0.558,-0.162 c -0.18,-0.054 -0.324,-0.108 -0.45,-0.162 -0.126,-0.054 -0.18,-0.144 -0.18,-0.27 0,-0.108 0.054,-0.198 0.162,-0.234 0.108,-0.036 0.234,-0.054 0.378,-0.054 0.252,0 0.54,0.054 0.846,0.144 0.306,0.09 0.612,0.18 0.882,0.288 l 0.414,-1.08 c -0.414,-0.18 -0.81,-0.324 -1.188,-0.414 -0.378,-0.09 -0.756,-0.126 -1.152,-0.126 -0.396,0 -0.738,0.054 -1.062,0.162 -0.324,0.108 -0.576,0.288 -0.774,0.522 -0.198,0.234 -0.288,0.54 -0.288,0.918 0.018,0.468 0.162,0.828 0.45,1.08 0.288,0.252 0.63,0.432 1.026,0.54 l 0.648,0.18 c 0.216,0.054 0.378,0.108 0.504,0.162 0.108,0.054 0.18,0.144 0.18,0.234 0,0.108 -0.054,0.198 -0.144,0.234 -0.108,0.036 -0.234,0.054 -0.396,0.054 -0.27,0 -0.576,-0.054 -0.918,-0.126 -0.342,-0.09 -0.702,-0.198 -1.08,-0.342 l -0.414,1.08 c 0.378,0.162 0.774,0.306 1.188,0.414 0.432,0.108 0.882,0.18 1.35,0.18 0.63,0 1.134,-0.126 1.548,-0.396 0.432,-0.198 0.63,-0.612 0.648,-1.17 m -22.68,-47.682 c -8.028,2.988 -14.742,8.550001 -18.594,14.166001 -0.396,-3.42 -1.17,-3.996 -1.494,-6.264 -0.072,-0.36 -0.198,-1.638 0.432,-2.232 3.69,-4.176001 11.196,-8.478001 11.556,-8.622001 0,-0.018 -9.378,3.492 -14.652,10.026001 -0.81,1.008 -1.386,1.98 -1.962,3.222 -1.71,3.942 -0.162,8.028 2.034,8.388 0.36,0.09 1.188,-0.018 1.602,-0.126 -0.756,1.674 -1.548,4.14 -1.962,5.976 -0.522,-1.458 -1.926,-4.194 -3.564,-5.508 0,0 -0.558,-1.224 -0.36,-2.61 0.126,-1.53 0.684,-4.23 0.63,-4.122 -0.198,0.54 -1.566,4.374 -1.98,5.814 -0.378,1.314 -0.702,2.61 -0.702,2.61 -0.18,0.612 -2.07,7.812 3.15,9.882 0.846,0.288 1.584,0.162 2.016,0.108 0.018,0.54 0.018,1.278 0.072,1.836 0.108,1.404 0.144,2.034 0.306,2.916 0,0 0.234,1.548 0.252,1.818 -1.854,-3.168 -5.166,-4.158 -5.922,-4.608 -1.296,-2.052 -1.17,-8.28 -1.242,-7.452 -0.018,0.18 -0.126,1.458 -0.198,2.79 -0.162,3.852 -0.72,7.164 0.648,10.584 1.386,3.437999 5.454,4.139999 7.488,3.329999 0.072,-0.036 0.594,1.458 0.63,1.458 0.954,2.25 1.548,3.636 2.178,5.04 0.234,0.522 -2.124,-1.926 -7.092,-2.412 -0.864,-0.432 -1.584,-1.692 -2.142,-2.592 -0.828,-1.242 -1.674,-3.833999 -1.692,-3.707999 -0.018,0.18 0.288,1.601999 0.738,2.915999 0.162,0.324 1.368,4.68 2.358,6.678 0.216,0.558 0.504,1.044 0.792,1.494 1.026,1.566 2.448,2.574 3.924,2.97 0.324,0.09 0.648,0.144 0.99,0.18 0.99,0.108 2.466,-0.198 3.384,-0.738 0.396,-0.252 0.792,-0.558 1.116,-0.882 1.35,2.088 2.88,4.014 4.608,5.724 -0.486,-0.18 -1.152,-0.378 -1.512,-0.432 -1.98,-0.072 -1.728,0.45 -2.898,0.612 -3.204,0.72 -7.398,-3.96 -7.38,-3.816 0.036,0.18 0.396,0.648 1.26,1.566 0.432,0.414 2.556,3.042 2.61,3.132 1.242,1.98 2.232,3.042 2.304,3.078 1.17,1.044 2.322,1.746 3.456,2.124 3.06,1.044 5.634,-0.324 5.886,-3.078 2.232,1.584 4.968,3.06 7.65,3.96 0,0 0.63,-1.692 0.792,-2.232 -4.086,-1.962 -5.562,-2.898 -6.354,-3.564 6.354,-1.296 2.43,-7.218 0.882,-9.522 -1.584,-2.358 -2.214,-6.876 -2.304,-7.02 -0.054,-0.108 0.666,4.896 0.36,6.336 -0.63,2.088 -2.394,2.304 -2.79,7.902 -1.17,-0.954 -2.286,-1.962 -3.33,-3.042 -0.306,-0.378 -1.476,-1.89 -1.494,-1.89 l -0.306,-0.36 c 1.17,-0.036 3.78,-0.918 4.446,-2.268 1.476,-2.664 -0.774,-6.426 -0.954,-9.017999 0.036,-0.54 -0.234,-4.122 -0.234,-4.356 0,-0.126 -0.126,2.538 -0.594,3.96 -0.144,0.27 -0.594,2.177999 -2.142,3.113999 -2.43,1.656 -2.646,4.788 -2.682,4.788 -0.036,0 -1.944,-4.266 -2.646,-5.976 0,0 0.45,0.288 1.62,0.36 1.242,-0.18 4.068,-0.936 4.266,-5.075999 0.144,-1.746 -0.396,-3.204 -0.216,-3.618 0.378,-1.728 1.692,-5.598 1.692,-5.868 0,-0.126 -0.576,1.71 -1.674,3.636 -1.152,2.502 -2.772,2.898 -3.276,3.186 -2.7,1.674 -3.222,2.808 -3.366,2.538 -0.288,-1.926 -0.63,-3.96 -0.63,-6.498 1.17,0.576 3.132,0.936 5.184,-0.072 2.394,-1.368 2.646,-3.636 2.934,-4.446 0.378,-1.404 1.152,-2.988 2.934,-6.498 0.054,-0.09 -0.954,1.512 -1.998,2.772 -0.486,0.522 -1.188,0.972 -1.89,1.17 -0.324,0.144 -4.914,0.27 -6.534,2.106 -0.018,-0.684 0.738,-3.654 1.404,-5.346 0.198,-0.576 0.468,-1.296 0.468,-1.296 0.18,0.126 0.198,0.918 1.422,1.62 4.266,1.404 8.082,-4.194 9.738,-5.778 3.348,-3.186 6.57,-5.31 7.83,-6.138 l 2.286,-1.368 c -3.042,1.116 -9.774,5.958 -13.5,6.732 -1.062,0.036 -4.734,0.324 -5.688,0.594 4.05,-6.174 10.674,-11.214001 18.162,-14.346001 -0.396,-0.198 -0.108,-0.27 -0.54,-0.414 m 20.736,0 c -0.432,0.144 -0.144,0.216 -0.594,0.36 7.488,3.132 14.112,8.190001 18.162,14.346001 -0.954,-0.27 -4.626,-0.558 -5.688,-0.594 -3.744,-0.792 -10.476,-5.616 -13.5,-6.732 l 2.286,1.368 c 1.26,0.828 4.5,2.952 7.83,6.138 1.656,1.584 5.472,7.182 9.738,5.778 1.242,-0.702 1.242,-1.494 1.422,-1.62 0,0 0.27,0.72 0.468,1.296 0.666,1.692 1.422,4.662 1.404,5.346 -1.62,-1.836 -6.192,-1.962 -6.534,-2.106 -0.702,-0.198 -1.386,-0.648 -1.89,-1.17 -1.044,-1.26 -2.052,-2.862 -1.998,-2.772 1.8,3.51 2.574,5.112 2.934,6.498 0.288,0.81 0.522,3.078 2.934,4.446 2.052,1.008 4.014,0.648 5.184,0.072 0,2.52 -0.342,4.554 -0.63,6.498 -0.144,0.27 -0.666,-0.864 -3.366,-2.538 -0.504,-0.288 -2.142,-0.684 -3.276,-3.186 -1.098,-1.926 -1.674,-3.78 -1.674,-3.636 0,0.27 1.332,4.122 1.692,5.868 0.18,0.432 -0.36,1.872 -0.216,3.618 0.216,4.139999 3.042,4.913999 4.266,5.075999 1.17,-0.072 1.62,-0.36 1.62,-0.36 -0.684,1.71 -2.592,5.976 -2.646,5.976 -0.036,0 -0.252,-3.132 -2.682,-4.788 -1.548,-0.936 -1.998,-2.825999 -2.142,-3.113999 -0.468,-1.404 -0.594,-4.068 -0.594,-3.96 0,0.234 -0.252,3.798 -0.234,4.356 -0.18,2.609999 -2.43,6.353999 -0.954,9.017999 0.666,1.35 3.276,2.232 4.446,2.268 l -0.306,0.36 c 0,0.018 -1.188,1.53 -1.494,1.89 -1.044,1.08 -2.16,2.088 -3.33,3.042 -0.396,-5.598 -2.16,-5.814 -2.79,-7.902 -0.306,-1.458 0.414,-6.444 0.36,-6.336 -0.09,0.162 -0.702,4.68 -2.304,7.02 -1.548,2.304 -5.472,8.226 0.882,9.522 -0.81,0.666 -2.286,1.602 -6.354,3.564 0.162,0.54 0.792,2.232 0.792,2.232 2.682,-0.9 5.436,-2.376 7.65,-3.96 0.252,2.754 2.826,4.122 5.886,3.078 1.134,-0.378 2.286,-1.08 3.456,-2.124 0.072,-0.036 1.062,-1.116 2.304,-3.078 0.072,-0.09 2.196,-2.718 2.61,-3.132 0.864,-0.918 1.224,-1.386 1.26,-1.566 0.036,-0.144 -4.158,4.554 -7.38,3.816 -1.17,-0.144 -0.918,-0.684 -2.898,-0.612 -0.36,0.054 -1.008,0.252 -1.512,0.432 1.728,-1.71 3.276,-3.636 4.608,-5.724 0.324,0.324 0.72,0.63 1.116,0.882 0.918,0.54 2.394,0.846 3.384,0.738 0.324,-0.036 0.666,-0.09 0.99,-0.18 1.494,-0.414 2.916,-1.422 3.942,-2.97 0.288,-0.45 0.576,-0.936 0.792,-1.494 0.99,-1.98 2.196,-6.354 2.358,-6.678 0.45,-1.314 0.756,-2.735999 0.738,-2.915999 -0.018,-0.108 -0.864,2.465999 -1.692,3.707999 -0.558,0.9 -1.278,2.16 -2.142,2.592 -4.968,0.486 -7.326,2.934 -7.092,2.412 0.612,-1.404 1.224,-2.772 2.178,-5.04 0.036,0 0.558,-1.494 0.63,-1.458 2.034,0.81 6.12,0.108 7.488,-3.329999 1.368,-3.42 0.81,-6.732 0.648,-10.584 -0.072,-1.332 -0.18,-2.61 -0.198,-2.79 -0.072,-0.828 0.054,5.4 -1.242,7.452 -0.774,0.45 -4.068,1.422 -5.922,4.608 0.018,-0.27 0.252,-1.818 0.252,-1.818 0.144,-0.9 0.18,-1.512 0.306,-2.916 0.054,-0.558 0.054,-1.296 0.072,-1.836 0.432,0.054 1.17,0.18 2.016,-0.108 5.22,-2.07 3.33,-9.27 3.15,-9.882 0,0 -0.324,-1.296 -0.702,-2.61 -0.414,-1.44 -1.782,-5.274 -1.98,-5.814 -0.036,-0.108 0.522,2.574 0.63,4.122 0.198,1.386 -0.36,2.61 -0.36,2.61 -1.638,1.332 -3.042,4.05 -3.564,5.508 -0.414,-1.836 -1.206,-4.284 -1.962,-5.976 0.414,0.108 1.242,0.216 1.602,0.126 2.196,-0.36 3.744,-4.446 2.034,-8.388 -0.576,-1.224 -1.152,-2.214 -1.962,-3.222 C 72.846,14.373034 63.468,10.881034 63.45,10.899034 c 0.342,0.162 7.866,4.446 11.556,8.622001 0.63,0.594 0.504,1.89 0.432,2.232 -0.324,2.268 -1.098,2.862 -1.494,6.264 -3.816,-5.562 -10.548,-11.124001 -18.558,-14.112001 M 43.308,36.171035 c 0.054,0.018 0.09,0.072 0.18,0.144 l 0.054,0.054 0.072,0.072 0.072,0.054 0.072,0.054 0.09,0.054 0.108,0.054 0.072,0.036 0.09,0.036 0.09,0.036 0.108,0.036 h 0.054 c 0.054,0.018 0.144,0.036 0.216,0.072 l 0.072,0.018 0.108,0.018 0.162,0.018 0.216,-0.018 0.18,-0.018 0.09,-0.018 0.072,-0.018 0.072,-0.018 0.054,-0.018 0.054,-0.018 0.09,-0.018 0.108,-0.036 0.144,-0.054 0.09,-0.036 0.072,-0.036 0.054,-0.036 0.09,-0.054 0.054,-0.018 0.072,-0.036 0.054,-0.072 0.09,-0.054 0.072,-0.072 0.108,-0.126 0.126,-0.144 0.054,-0.072 0.072,-0.108 0.054,-0.054 0.036,-0.054 0.036,-0.072 0.054,-0.09 0.054,-0.144 0.018,-0.054 0.108,-0.342 0.018,-0.108 c 0.09,-0.324 0.072,-0.846 -0.018,-1.134 l -0.072,-0.234 -0.018,-0.072 -0.036,-0.108 -0.054,-0.108 -0.054,-0.09 -0.036,-0.072 -0.054,-0.09 -0.036,-0.072 -0.036,-0.054 -0.036,-0.054 -0.09,-0.108 -0.108,-0.108 -0.054,-0.036 -0.126,-0.108 -0.054,-0.054 -0.072,-0.072 -0.072,-0.054 -0.072,-0.054 -0.054,-0.036 -0.054,-0.036 -0.054,-0.018 -0.054,-0.018 -0.072,-0.036 -0.414,-0.144 -0.198,-0.036 -0.09,-0.018 h -0.144 c -0.054,-0.018 -0.234,-0.036 -0.288,0 l -0.234,0.018 -0.144,0.018 -0.054,0.018 -0.108,0.018 -0.072,0.036 -0.072,0.018 -0.072,0.018 c -0.666,0.306 -1.134,0.774 -1.404,1.494 l -0.018,0.072 c -0.108,0.252 -0.18,0.81 -0.09,1.152 l 0.018,0.198 0.144,0.414 0.054,0.108 0.018,0.054 0.054,0.09 0.018,0.054 0.054,0.072 0.036,0.072 0.036,0.054 0.036,0.054 0.054,0.036 c 0.09,0.09 0.126,0.144 0.18,0.216 m 4.104,1.692 c -0.36,0.09 -4.86,1.242 -4.86,1.242 v 13.356 h 4.86 v -14.598 m 8.64,3.618 c 0.162,0 0.324,0.036 0.45,0.072 l 0.072,0.018 0.072,0.036 0.054,0.018 0.054,0.036 0.054,0.036 0.036,0.054 0.036,0.018 0.09,0.072 0.054,0.072 0.018,0.036 0.018,0.036 0.036,0.054 0.036,0.072 0.036,0.072 0.018,0.054 0.018,0.036 0.018,0.054 0.018,0.072 0.018,0.072 0.018,0.036 0.018,0.036 0.018,0.036 0.018,0.09 0.018,0.108 0.018,0.054 0.018,0.054 0.018,0.054 0.018,0.162 c 0.036,0.108 0.036,0.27 0.054,0.396 v 0.144 l 0.018,0.18 0.018,0.612 c 0.018,0.27 0.018,0.612 0.018,0.9 v 0.54 c 0,0.09 0,0.216 -0.018,0.288 v 0.378 l -0.018,0.144 -0.018,0.252 -0.018,0.144 -0.018,0.108 -0.018,0.108 -0.018,0.09 c -0.018,0.054 -0.036,0.162 -0.054,0.216 l -0.018,0.126 -0.144,0.504 -0.036,0.072 -0.018,0.054 -0.018,0.054 -0.018,0.054 -0.036,0.054 -0.018,0.036 -0.036,0.054 -0.054,0.036 -0.108,0.108 -0.018,0.036 -0.054,0.054 -0.036,0.018 -0.036,0.036 -0.054,0.018 -0.09,0.054 -0.036,0.018 -0.036,0.018 -0.036,0.018 -0.054,0.018 -0.054,0.018 -0.252,0.036 h -0.072 c -0.144,0 -0.252,-0.018 -0.342,-0.072 l -0.072,-0.018 -0.072,-0.036 -0.072,-0.036 -0.036,-0.036 -0.036,-0.018 -0.036,-0.018 -0.054,-0.072 -0.036,-0.018 -0.072,-0.054 -0.054,-0.072 -0.036,-0.054 -0.018,-0.036 -0.018,-0.036 -0.036,-0.036 -0.018,-0.054 -0.054,-0.09 -0.036,-0.072 -0.018,-0.054 -0.036,-0.072 -0.09,-0.252 -0.018,-0.054 -0.018,-0.036 -0.018,-0.054 -0.018,-0.054 -0.018,-0.072 -0.018,-0.054 -0.018,-0.054 -0.018,-0.054 -0.018,-0.072 -0.018,-0.072 -0.018,-0.072 -0.018,-0.09 -0.018,-0.108 -0.018,-0.108 -0.018,-0.126 -0.018,-0.162 -0.018,-0.198 c -0.018,-0.072 0,-0.198 -0.018,-0.27 l -0.018,-0.234 -0.018,-0.9 0.018,-0.054 v -0.702 l 0.018,-0.144 0.018,-0.324 0.018,-0.144 0.018,-0.126 0.018,-0.108 0.018,-0.09 0.018,-0.162 c 0.036,-0.09 0.054,-0.216 0.072,-0.306 v -0.054 l 0.018,-0.036 0.018,-0.054 0.018,-0.036 0.018,-0.036 0.018,-0.036 0.018,-0.036 0.018,-0.072 0.018,-0.072 0.018,-0.054 0.036,-0.072 0.036,-0.036 0.018,-0.054 0.018,-0.054 0.018,-0.036 0.018,-0.036 0.018,-0.036 0.036,-0.036 0.072,-0.09 0.036,-0.054 0.09,-0.072 0.054,-0.036 0.036,-0.018 0.036,-0.036 0.054,-0.018 0.09,-0.054 0.036,-0.018 0.072,-0.018 0.036,-0.018 0.054,-0.018 0.054,-0.018 0.072,-0.018 c 0.162,-0.072 0.234,-0.036 0.27,-0.072 m -0.288,-3.438 c -0.054,0.036 -0.162,0 -0.234,0.018 l -0.162,0.018 -0.126,0.018 -0.108,0.018 h -0.108 c -0.09,0.036 -0.234,0.036 -0.324,0.072 l -0.054,0.018 -0.054,0.018 -0.054,0.018 -0.054,0.018 -0.054,0.018 -0.054,0.018 -0.054,0.018 -0.054,0.018 -0.054,0.018 -0.09,0.018 -0.09,0.036 -0.09,0.018 -0.072,0.018 -0.072,0.036 -0.072,0.018 -0.072,0.018 -0.054,0.036 -0.144,0.054 -0.126,0.054 -0.09,0.036 -0.144,0.072 -0.072,0.036 -0.054,0.018 -0.054,0.018 -0.09,0.054 -0.054,0.018 -0.09,0.054 h -0.09 l -0.054,0.036 -0.054,0.036 -0.072,0.054 -0.09,0.036 -0.054,0.054 -0.108,0.054 -0.054,0.036 -0.054,0.036 -0.054,0.036 -0.054,0.054 -0.054,0.054 -0.054,0.054 -0.09,0.072 -0.108,0.108 -0.162,0.18 -0.18,0.198 -0.108,0.126 -0.072,0.09 -0.054,0.072 -0.09,0.054 -0.054,0.072 -0.036,0.054 -0.036,0.054 -0.036,0.054 -0.054,0.054 -0.054,0.072 -0.054,0.108 -0.054,0.072 -0.054,0.072 -0.036,0.054 -0.054,0.09 -0.054,0.09 -0.018,0.054 -0.054,0.108 -0.018,0.054 -0.018,0.054 -0.018,0.054 -0.054,0.108 -0.054,0.144 -0.036,0.09 -0.018,0.054 -0.036,0.054 -0.018,0.054 -0.018,0.072 -0.036,0.108 -0.036,0.108 -0.018,0.072 -0.036,0.072 -0.018,0.072 -0.018,0.072 -0.018,0.054 -0.036,0.126 -0.018,0.054 -0.036,0.144 -0.018,0.108 c -0.054,0.144 -0.072,0.342 -0.108,0.504 v 0.072 c -0.036,0.108 -0.036,0.252 -0.054,0.36 l -0.018,0.108 -0.018,0.126 -0.036,0.396 v 0.234 c -0.018,0.09 -0.018,0.468 0,0.576 l 0.018,0.324 0.018,0.216 0.018,0.126 0.018,0.126 v 0.108 c 0.036,0.108 0.036,0.27 0.054,0.36 v 0.09 c 0.036,0.108 0.036,0.234 0.072,0.324 l 0.018,0.126 0.036,0.162 0.018,0.09 0.018,0.054 0.018,0.108 c 0.072,0.198 0.126,0.414 0.198,0.576 l 0.054,0.144 0.036,0.108 0.036,0.09 0.036,0.09 0.036,0.072 0.018,0.054 0.036,0.072 0.018,0.054 0.018,0.054 0.126,0.234 0.054,0.09 0.036,0.072 0.036,0.054 0.054,0.108 0.018,0.054 0.054,0.072 0.054,0.072 0.054,0.09 0.054,0.054 0.036,0.072 0.054,0.072 0.054,0.054 0.054,0.072 0.054,0.072 0.09,0.108 0.162,0.18 0.09,0.072 0.054,0.036 0.18,0.162 0.108,0.09 0.072,0.072 0.054,0.054 0.054,0.036 0.054,0.054 0.09,0.054 0.054,0.072 0.054,0.018 0.054,0.072 0.054,0.036 0.072,0.054 0.054,0.036 0.054,0.036 0.108,0.072 0.09,0.054 0.054,0.018 0.054,0.018 0.054,0.036 0.054,0.018 0.108,0.054 0.054,0.018 0.09,0.036 0.054,0.018 0.054,0.036 0.054,0.018 0.054,0.018 0.108,0.036 0.144,0.054 0.072,0.036 0.072,0.018 0.126,0.036 0.144,0.036 0.09,0.018 c 0.144,0.054 0.324,0.072 0.468,0.108 h 0.072 c 0.126,0.036 0.306,0.036 0.45,0.072 l 0.126,0.018 h 0.612 l 0.972,-0.018 h 0.126 c 0.108,-0.036 0.252,-0.036 0.342,-0.072 h 0.072 c 0.072,-0.018 0.18,-0.036 0.252,-0.054 h 0.054 c 0.216,-0.072 0.45,-0.108 0.684,-0.216 l 0.072,-0.036 0.054,-0.018 0.09,-0.036 0.108,-0.036 0.09,-0.036 0.072,-0.036 0.054,-0.036 0.072,-0.036 0.054,-0.018 0.054,-0.018 0.054,-0.036 0.054,-0.018 0.09,-0.054 0.09,-0.054 0.09,-0.054 0.108,-0.072 0.054,-0.018 0.072,-0.054 0.072,-0.054 0.072,-0.054 0.054,-0.072 0.072,-0.036 0.054,-0.036 0.054,-0.054 0.054,-0.054 0.054,-0.054 0.072,-0.054 0.108,-0.108 0.198,-0.216 c 0.108,-0.108 0.216,-0.216 0.306,-0.342 l 0.054,-0.072 0.054,-0.072 0.054,-0.054 0.036,-0.054 0.036,-0.054 0.036,-0.054 0.036,-0.054 0.054,-0.054 0.054,-0.072 0.054,-0.072 0.054,-0.072 0.036,-0.09 0.054,-0.072 0.036,-0.072 0.036,-0.054 0.054,-0.09 0.054,-0.09 0.018,-0.054 0.018,-0.054 0.036,-0.054 0.018,-0.054 0.054,-0.108 0.036,-0.072 0.036,-0.09 0.018,-0.054 0.036,-0.108 0.036,-0.054 0.018,-0.054 0.036,-0.108 0.054,-0.144 0.054,-0.144 0.018,-0.072 0.054,-0.162 0.018,-0.09 0.018,-0.054 0.018,-0.054 0.018,-0.09 0.018,-0.108 0.018,-0.054 0.018,-0.054 0.018,-0.072 0.018,-0.054 0.018,-0.054 0.108,-0.63 0.036,-0.342 0.018,-0.234 v -0.126 c 0.036,-0.126 0.018,-0.36 0.018,-0.504 0,-0.162 0.018,-0.378 -0.018,-0.504 v -0.144 l -0.018,-0.234 -0.018,-0.144 -0.018,-0.108 -0.018,-0.108 -0.018,-0.108 -0.018,-0.09 -0.018,-0.09 0.072,0.018 -0.018,-0.072 -0.018,-0.054 -0.036,-0.198 -0.054,-0.234 -0.036,-0.108 -0.018,-0.108 -0.036,-0.126 -0.036,-0.09 -0.018,-0.054 -0.018,-0.072 -0.018,-0.072 -0.036,-0.072 -0.018,-0.072 -0.054,-0.144 -0.054,-0.144 -0.054,-0.126 -0.036,-0.09 -0.036,-0.09 -0.036,-0.072 -0.036,-0.09 -0.054,-0.108 -0.054,-0.09 -0.018,-0.054 -0.036,-0.054 -0.054,-0.09 -0.054,-0.09 -0.036,-0.054 -0.054,-0.108 -0.036,-0.09 -0.054,-0.072 -0.054,-0.072 -0.054,-0.072 -0.036,-0.054 -0.036,-0.054 -0.036,-0.054 -0.036,-0.054 -0.036,-0.054 -0.054,-0.072 -0.054,-0.072 -0.072,-0.09 -0.09,-0.108 -0.126,-0.126 c -0.108,-0.108 -0.216,-0.216 -0.342,-0.324 l -0.072,-0.054 -0.072,-0.072 -0.036,-0.054 -0.072,-0.036 -0.054,-0.036 -0.054,-0.036 -0.054,-0.036 -0.054,-0.054 -0.072,-0.054 -0.072,-0.054 -0.09,-0.072 -0.054,-0.036 -0.054,-0.036 -0.09,-0.054 -0.072,-0.036 -0.09,-0.054 -0.072,-0.036 -0.108,-0.054 -0.072,-0.036 -0.09,-0.036 -0.09,-0.036 -0.054,-0.036 -0.054,-0.018 -0.108,-0.036 -0.09,-0.036 -0.144,-0.054 -0.072,-0.018 -0.126,-0.036 -0.09,-0.018 -0.144,-0.036 c -0.108,-0.036 -0.27,-0.054 -0.378,-0.108 l -0.234,-0.036 c -0.072,-0.018 -0.18,-0.036 -0.27,-0.054 l -0.108,-0.018 -0.126,-0.018 -0.306,0.018 -0.144,-0.018 h -0.648 m -21.726,3.744 0.09,0.018 0.072,0.018 0.054,0.018 0.09,0.018 0.072,0.036 0.054,0.018 0.072,0.036 0.072,0.036 0.054,0.036 0.036,0.018 0.018,0.036 0.054,0.054 0.072,0.072 0.108,0.09 0.054,0.072 0.036,0.054 0.018,0.036 0.018,0.036 0.036,0.036 0.036,0.036 0.018,0.054 0.018,0.054 0.018,0.054 0.054,0.108 0.018,0.072 0.036,0.108 0.018,0.054 0.018,0.036 0.018,0.036 0.018,0.09 0.018,0.09 0.054,0.234 c 0.036,0.108 0.036,0.252 0.072,0.378 v 0.09 l 0.018,0.108 0.018,0.108 0.018,0.144 0.018,0.45 c 0.018,0.09 0.018,0.216 0.018,0.324 v 0.612 l -0.018,0.162 -0.018,0.36 -0.018,0.108 -0.018,0.108 -0.018,0.09 -0.018,0.09 -0.018,0.072 -0.018,0.144 -0.018,0.054 -0.018,0.054 0.054,0.054 -0.018,0.054 -0.018,0.054 -0.018,0.09 -0.036,0.09 -0.018,0.036 -0.018,0.036 -0.018,0.072 -0.036,0.108 -0.018,0.054 -0.018,0.054 -0.018,0.054 -0.018,0.054 -0.018,0.054 -0.054,0.09 -0.036,0.072 -0.036,0.036 -0.018,0.036 -0.018,0.036 -0.036,0.018 -0.054,0.072 -0.072,0.09 -0.09,0.108 -0.054,0.054 -0.036,0.036 -0.036,0.018 -0.036,0.018 -0.054,0.018 -0.126,0.054 -0.054,0.036 -0.234,0.072 h -0.054 c -0.09,0.036 -0.288,0.036 -0.396,0.018 h -0.09 l -0.27,-0.09 -0.036,-0.036 -0.054,-0.018 -0.036,-0.018 -0.018,-0.036 -0.09,-0.072 c -0.216,-0.162 -0.324,-0.468 -0.414,-0.756 v -0.072 l -0.018,-0.054 -0.018,-0.072 -0.018,-0.108 c -0.036,-0.072 0.018,-0.18 -0.018,-0.216 v -3.834 -0.99 c 0,-0.072 -0.018,-0.306 0.018,-0.342 l 0.126,-0.036 0.036,-0.018 c 0.162,-0.072 0.342,-0.09 0.522,-0.144 h 0.072 c 0.054,-0.036 0.162,0 0.198,-0.036 h 0.414 z m -1.44,-9.882 c -0.108,0 -0.216,0.036 -0.306,0.054 l -0.054,0.018 -0.108,0.018 -0.054,0.018 -0.054,0.018 -0.108,0.018 -0.234,0.036 c -0.18,0.054 -0.378,0.09 -0.558,0.144 l -0.054,0.018 -0.054,0.018 -0.054,0.018 -0.144,0.018 -0.126,0.018 -0.234,0.036 c -0.234,0.072 -0.504,0.108 -0.738,0.18 l -0.126,0.018 -0.108,0.036 -0.054,0.018 -0.108,0.036 -0.054,0.018 -0.054,0.018 -0.054,0.018 -0.108,0.018 -0.126,0.018 c -0.144,0.036 -0.306,0.072 -0.45,0.108 l -0.054,0.018 -0.054,0.018 -0.054,0.018 -0.054,0.018 -0.054,0.018 -0.054,0.018 -0.054,0.018 h -0.054 c -0.054,0.018 -0.144,0.054 -0.234,0.054 v 10.818 2.61 l 0.018,1.062 0.018,0.144 0.018,0.126 0.018,0.108 0.018,0.09 0.018,0.072 0.018,0.072 0.036,0.198 0.018,0.108 0.018,0.108 0.036,0.126 0.018,0.054 0.018,0.072 0.018,0.072 0.018,0.072 0.036,0.108 0.054,0.144 0.036,0.09 0.018,0.054 0.018,0.054 0.054,0.108 0.036,0.054 0.018,0.054 0.054,0.09 0.054,0.09 0.036,0.072 0.036,0.054 0.018,0.054 0.054,0.072 0.054,0.072 0.036,0.072 0.054,0.09 0.054,0.054 0.036,0.054 0.054,0.054 0.054,0.072 0.072,0.09 0.18,0.162 0.27,0.252 0.072,0.09 0.09,0.054 0.072,0.054 0.054,0.036 0.054,0.036 0.054,0.036 0.054,0.072 0.054,0.018 0.054,0.054 0.054,0.036 0.072,0.054 0.054,0.036 0.054,0.036 0.108,0.072 0.09,0.054 0.054,0.036 0.054,0.018 0.054,0.018 0.054,0.036 0.108,0.054 0.108,0.054 0.054,0.036 0.054,0.018 0.054,0.018 0.054,0.036 0.612,0.198 0.09,0.018 c 0.126,0.036 0.27,0.072 0.378,0.108 h 0.072 c 0.09,0.036 0.216,0.036 0.324,0.054 l 0.09,0.018 0.108,0.018 h 0.972 c 0.234,0 0.558,0.036 0.756,-0.018 l 0.108,-0.018 0.108,-0.018 h 0.09 c 0.072,-0.018 0.162,-0.036 0.234,-0.054 l 0.144,-0.018 0.054,-0.018 0.054,-0.018 0.054,-0.018 0.108,-0.036 0.054,-0.018 0.144,-0.036 0.054,-0.018 0.144,-0.036 0.072,-0.036 0.054,-0.018 0.072,-0.036 0.072,-0.018 0.072,-0.018 0.072,-0.036 0.108,-0.036 0.09,-0.036 0.108,-0.036 0.054,-0.018 0.108,-0.036 0.054,-0.036 0.054,-0.018 0.108,-0.054 0.054,-0.018 0.054,-0.018 0.054,-0.036 0.054,-0.018 0.054,-0.018 0.09,-0.054 0.09,-0.054 0.09,-0.054 0.054,-0.036 0.054,-0.036 0.072,-0.054 0.054,-0.036 0.072,-0.036 0.054,-0.054 0.054,-0.018 0.054,-0.036 0.09,-0.054 0.036,-0.054 0.054,-0.036 0.09,-0.054 0.09,-0.108 0.054,-0.036 0.09,-0.108 c 0.108,-0.072 0.18,-0.18 0.27,-0.27 l 0.126,-0.144 0.09,-0.108 0.072,-0.054 0.018,-0.054 0.036,-0.054 0.054,-0.054 0.054,-0.072 0.036,-0.054 0.036,-0.054 0.054,-0.054 0.018,-0.072 0.054,-0.054 0.054,-0.072 0.054,-0.072 0.036,-0.072 0.054,-0.108 0.054,-0.09 0.054,-0.108 0.018,-0.054 0.036,-0.054 0.018,-0.054 0.018,-0.054 0.018,-0.054 0.054,-0.108 0.036,-0.072 0.036,-0.09 0.036,-0.09 0.018,-0.054 0.018,-0.054 0.018,-0.054 0.036,-0.108 0.054,-0.144 0.018,-0.072 0.036,-0.072 0.054,-0.216 0.036,-0.126 0.018,-0.054 0.018,-0.108 0.018,-0.108 0.018,-0.108 0.018,-0.126 c 0.036,-0.126 0.054,-0.306 0.09,-0.432 l 0.018,-0.09 0.018,-0.108 0.018,-0.108 0.018,-0.126 0.018,-0.144 v -0.198 c 0.036,-0.126 0.018,-0.342 0.018,-0.504 0,-0.162 0.018,-0.396 -0.018,-0.522 v -0.144 l -0.018,-0.288 -0.036,-0.414 -0.018,-0.108 -0.018,-0.108 -0.018,-0.09 v -0.09 c -0.018,-0.072 -0.036,-0.18 -0.054,-0.234 v -0.072 c -0.054,-0.144 -0.072,-0.342 -0.108,-0.486 l -0.054,-0.216 -0.036,-0.144 -0.036,-0.09 -0.018,-0.09 -0.054,-0.162 -0.018,-0.072 -0.054,-0.144 -0.054,-0.144 -0.054,-0.144 -0.054,-0.126 -0.036,-0.09 -0.036,-0.09 -0.036,-0.072 -0.036,-0.09 -0.036,-0.072 -0.018,-0.054 -0.054,-0.108 -0.018,-0.054 -0.054,-0.09 -0.054,-0.09 -0.054,-0.09 -0.054,-0.072 -0.036,-0.09 -0.054,-0.072 -0.036,-0.072 -0.054,-0.09 -0.036,-0.054 -0.036,-0.054 -0.036,-0.054 -0.054,-0.072 -0.054,-0.054 -0.072,-0.09 -0.108,-0.108 -0.126,-0.108 -0.198,-0.198 -0.09,-0.09 -0.09,-0.072 -0.054,-0.054 -0.054,-0.036 -0.054,-0.036 -0.072,-0.072 -0.072,-0.054 -0.072,-0.054 -0.072,-0.054 -0.054,-0.018 -0.072,-0.072 -0.108,-0.054 -0.054,-0.036 -0.054,-0.018 -0.054,-0.018 -0.054,-0.036 -0.072,-0.036 -0.054,-0.018 -0.054,-0.018 -0.054,-0.036 -0.054,-0.018 -0.108,-0.036 -0.108,-0.036 -0.072,-0.036 -0.072,-0.018 -0.09,-0.018 -0.054,-0.018 -0.054,-0.018 -0.054,-0.018 -0.054,-0.018 -0.054,-0.018 h -0.054 c -0.108,-0.036 -0.252,-0.036 -0.36,-0.072 l -0.108,-0.018 -0.342,-0.036 -0.216,-0.018 -0.198,0.018 c -0.072,0.018 -0.216,0 -0.288,0.018 l -0.342,0.036 -0.072,0.018 -0.072,0.018 -0.054,0.018 -0.108,0.018 -0.054,0.018 -0.126,0.036 -0.144,0.054 -0.144,0.054 -0.108,0.054 -0.108,0.054 -0.054,0.036 -0.09,0.054 -0.09,0.054 -0.072,0.036 -0.09,0.072 -0.054,0.054 -0.054,0.054 -0.09,0.072 -0.072,0.09 -0.252,0.252 -0.09,0.108 v -7.47"
   id="path2"
   style="stroke-width:0.18;fill:#016f32;fill-opacity:1" />
</svg>
