<?xml version="1.0" encoding="UTF-8" standalone="no"?>
<svg
   version="1.1"
   id="Ebene_1"
   x="0"
   y="0"
   viewBox="0 0 68 68"
   xml:space="preserve"
   sodipodi:docname="logo_de.svg"
   width="68"
   height="68"
   inkscape:version="1.3.2 (091e20e, 2023-11-25)"
   xmlns:inkscape="http://www.inkscape.org/namespaces/inkscape"
   xmlns:sodipodi="http://sodipodi.sourceforge.net/DTD/sodipodi-0.dtd"
   xmlns="http://www.w3.org/2000/svg"
   xmlns:svg="http://www.w3.org/2000/svg"><defs
     id="defs5" /><sodipodi:namedview
     id="namedview5"
     pagecolor="#ffffff"
     bordercolor="#000000"
     borderopacity="0.25"
     inkscape:showpageshadow="2"
     inkscape:pageopacity="0.0"
     inkscape:pagecheckerboard="0"
     inkscape:deskcolor="#d1d1d1"
     inkscape:zoom="8.7705429"
     inkscape:cx="19.041011"
     inkscape:cy="27.250309"
     inkscape:window-width="1680"
     inkscape:window-height="1005"
     inkscape:window-x="0"
     inkscape:window-y="23"
     inkscape:window-maximized="0"
     inkscape:current-layer="Ebene_1" /><style
     id="style1">.st1{fill:#1d5ca5}</style><g
     id="g5"
     transform="translate(0.83,1.17)"><path
       d="m 33.17,-0.76 c -18.55,0 -33.59,15.04 -33.59,33.59 0,18.55 15.04,33.59 33.59,33.59 18.55,0 33.59,-15.04 33.59,-33.59 0,-18.55 -15.04,-33.59 -33.59,-33.59 z"
       fill="#ffffff"
       id="path3"
       style="display:inline" /><path
       d="m 20.12,10.04 -1.6,-1.74 0.74,2.25 z m -6.53,7.17 c 0.17,-0.2 0.26,-0.41 0.28,-0.6 0.01,-0.19 -0.1,-0.39 -0.34,-0.59 -0.12,-0.1 -0.24,-0.17 -0.34,-0.2 -0.1,-0.03 -0.2,-0.04 -0.3,-0.03 a 0.66,0.66 0 0 0 -0.26,0.11 c -0.08,0.06 -0.17,0.14 -0.25,0.24 l -0.28,0.34 1.24,1.03 z M 32.93,5.57 c 0.26,0 0.46,-0.07 0.6,-0.19 0.13,-0.12 0.2,-0.33 0.2,-0.62 C 33.72,4.27 33.48,4.03 33,4.03 l -0.52,0.01 0.03,1.54 z m -21.32,9.01 c -0.2,-0.16 -0.37,-0.23 -0.53,-0.2 -0.16,0.03 -0.33,0.15 -0.5,0.36 l -0.23,0.28 1.07,0.89 0.18,-0.21 c 0.2,-0.23 0.3,-0.44 0.3,-0.61 0,-0.18 -0.09,-0.34 -0.29,-0.51 z m 2.09,37.94 0.88,-1.32 -1.35,0.84 z m -1.39,-3.21 c 0.13,-0.11 0.22,-0.22 0.28,-0.32 0.06,-0.1 0.08,-0.2 0.08,-0.29 a 0.596,0.596 0 0 0 -0.14,-0.32 l -0.18,-0.24 -2.19,1.63 0.19,0.25 c 0.08,0.11 0.16,0.18 0.24,0.22 0.05,0.02 0.1,0.03 0.16,0.03 0.04,0 0.08,0 0.13,-0.01 0.11,-0.03 0.25,-0.09 0.4,-0.18 0.16,-0.1 0.34,-0.22 0.56,-0.39 0.18,-0.14 0.34,-0.27 0.47,-0.38 z"
       fill="#005ca9"
       id="path4"
       style="display:inline" /><path
       class="st1"
       d="m 56.84,50.04 -2.65,-0.8 2.11,1.54 -0.5,0.68 -0.04,-0.03 -3.27,-2.4 0.6,-0.82 2.59,0.77 -2.06,-1.51 0.49,-0.68 0.04,0.03 3.28,2.4 z m -3.26,3.85 -0.03,-0.03 -2.96,-2.78 1.6,-1.7 0.55,0.52 -0.98,1.04 0.62,0.58 0.92,-0.98 0.55,0.52 -0.92,0.98 0.72,0.67 1.02,-1.09 0.55,0.52 z M 52.14,55.2 51,53.83 l -0.65,0.55 1.14,1.36 -0.69,0.58 -2.64,-3.15 0.69,-0.58 0.99,1.18 0.65,-0.55 -0.98,-1.18 0.69,-0.58 2.64,3.15 z m -2.7,1.99 c -0.1,0.17 -0.27,0.32 -0.49,0.47 -0.26,0.17 -0.5,0.26 -0.71,0.28 h -0.08 c -0.18,0 -0.36,-0.05 -0.52,-0.14 -0.18,-0.11 -0.36,-0.26 -0.52,-0.46 -0.16,-0.2 -0.33,-0.43 -0.49,-0.69 -0.16,-0.25 -0.31,-0.5 -0.42,-0.73 A 1.91,1.91 0 0 1 46,55.25 c -0.02,-0.21 0.02,-0.42 0.12,-0.61 0.1,-0.19 0.28,-0.37 0.54,-0.54 0.25,-0.16 0.47,-0.25 0.67,-0.26 0.2,-0.01 0.38,0.02 0.53,0.1 0.15,0.08 0.29,0.19 0.4,0.32 0.11,0.13 0.2,0.26 0.28,0.38 l 0.03,0.04 -0.76,0.49 -0.03,-0.04 c -0.15,-0.24 -0.29,-0.39 -0.42,-0.46 -0.11,-0.07 -0.24,-0.05 -0.38,0.04 -0.07,0.05 -0.12,0.11 -0.15,0.18 -0.02,0.07 -0.02,0.17 0.01,0.28 0.03,0.12 0.1,0.26 0.19,0.43 0.09,0.17 0.22,0.38 0.37,0.62 0.16,0.25 0.3,0.45 0.42,0.6 0.12,0.14 0.22,0.25 0.31,0.31 0.08,0.05 0.14,0.08 0.2,0.08 h 0.01 c 0.07,0 0.13,-0.03 0.2,-0.07 0.06,-0.04 0.1,-0.08 0.14,-0.13 0.03,-0.05 0.05,-0.11 0.05,-0.18 0,-0.08 -0.03,-0.18 -0.07,-0.3 a 2.37,2.37 0 0 0 -0.25,-0.45 l -0.03,-0.04 0.76,-0.49 0.03,0.04 c 0.12,0.18 0.22,0.37 0.3,0.55 0.08,0.19 0.12,0.37 0.12,0.55 0,0.16 -0.05,0.33 -0.15,0.5 z m -3.35,2.03 -1.89,-3.65 0.8,-0.42 0.02,0.04 1.86,3.61 z m -2.98,1.3 -1.55,-3.8 2.16,-0.88 0.29,0.7 -1.33,0.54 0.32,0.79 1.25,-0.51 0.29,0.7 -1.25,0.51 0.37,0.91 1.38,-0.56 0.29,0.7 z m -3.26,0.98 -0.18,-0.63 0.66,-2.99 -1.29,0.36 -0.21,-0.73 2.31,-0.65 0.18,0.65 v 0.01 l -0.68,2.96 1.43,-0.4 0.21,0.73 z m -1.77,-8.84 c -3,-2.75 -3.94,-3.38 -4.9,-3.43 -0.97,0.05 -1.91,0.67 -4.9,3.43 -0.34,0.31 -1.82,0.23 -1.2,-0.33 1.44,-1.29 4.24,-3.08 5.43,-3.47 0.15,-0.05 -2.67,-1.06 -5.77,1.14 -1.54,1.09 -3.24,2.38 -5.65,1.18 -1.77,-0.88 -2.47,-2.23 -2.47,-2.23 1.79,0.52 3.96,0.66 7.07,-0.79 3.37,-1.57 6.53,-0.07 7.49,0.24 0.96,-0.31 4.12,-1.81 7.49,-0.24 3.11,1.45 5.28,1.31 7.07,0.79 0,0 -0.71,1.35 -2.47,2.23 -2.41,1.2 -4.11,-0.09 -5.65,-1.18 -3.11,-2.2 -5.92,-1.19 -5.77,-1.14 1.19,0.39 3.99,2.18 5.43,3.47 0.62,0.56 -0.87,0.64 -1.2,0.33 z m 0.25,9.13 -0.89,0.15 -0.01,-0.05 -0.53,-3.26 -0.86,0.14 -0.12,-0.75 2.62,-0.43 0.12,0.75 -0.87,0.14 z m -4.11,0.45 -0.29,-4.1 0.9,-0.06 0.24,3.34 1.43,-0.1 0.05,0.76 z m -0.78,-3.32 -1.43,-0.05 -0.03,0.85 1.35,0.05 -0.03,0.76 -1.35,-0.05 -0.04,0.98 1.49,0.05 -0.03,0.76 -2.39,-0.09 0.15,-4.1 2.34,0.09 z m -4.06,3.11 -0.97,-0.17 0.07,-2.71 -0.88,2.57 -0.97,-0.17 -0.01,-4.18 0.86,0.15 -0.08,2.77 0.91,-2.62 0.84,0.15 -0.06,2.77 0.89,-2.62 0.86,0.15 z m -4.4,-0.9 -0.79,-0.29 0.98,-2.69 -1.58,2.48 -0.66,-0.24 0.38,-2.91 -0.98,2.69 -0.79,-0.29 1.4,-3.86 1.21,0.44 -0.4,2.69 1.42,-2.32 1.21,0.44 z m -4.21,-2.31 a 1.028,1.028 0 0 1 -0.94,0.2 1.96,1.96 0 0 1 -0.45,-0.19 c -0.15,-0.08 -0.28,-0.17 -0.41,-0.27 -0.13,-0.1 -0.22,-0.23 -0.29,-0.37 a 0.9,0.9 0 0 1 -0.07,-0.5 c 0.02,-0.19 0.09,-0.41 0.22,-0.65 l 1.35,-2.5 0.8,0.43 -1.35,2.5 c -0.05,0.09 -0.08,0.17 -0.11,0.25 -0.03,0.07 -0.04,0.15 -0.04,0.21 0,0.06 0.02,0.12 0.05,0.17 0.03,0.05 0.09,0.1 0.16,0.14 0.07,0.04 0.14,0.06 0.2,0.06 0.07,0 0.13,-0.02 0.18,-0.05 a 0.45,0.45 0 0 0 0.16,-0.15 c 0.05,-0.07 0.1,-0.14 0.15,-0.23 l 1.35,-2.5 0.8,0.43 -1.35,2.5 c -0.13,0.22 -0.27,0.4 -0.41,0.52 z m -2.66,-5.05 c -0.04,0.15 -0.12,0.31 -0.25,0.46 l -0.1,0.12 -0.68,-0.55 0.03,-0.04 c 0.11,-0.14 0.18,-0.27 0.19,-0.38 0.01,-0.11 -0.04,-0.2 -0.15,-0.29 a 0.47,0.47 0 0 0 -0.18,-0.1 0.266,0.266 0 0 0 -0.15,-0.01 0.31,0.31 0 0 0 -0.13,0.06 c -0.04,0.03 -0.08,0.07 -0.12,0.12 a 0.54,0.54 0 0 0 -0.12,0.27 c -0.01,0.09 0.03,0.21 0.11,0.36 l 0.32,0.6 c 0.08,0.15 0.13,0.29 0.16,0.41 0.03,0.12 0.04,0.24 0.03,0.35 a 0.85,0.85 0 0 1 -0.09,0.31 c -0.05,0.1 -0.11,0.19 -0.19,0.29 -0.27,0.34 -0.57,0.51 -0.89,0.51 h -0.01 c -0.32,0 -0.66,-0.15 -1.01,-0.43 -0.36,-0.29 -0.56,-0.59 -0.59,-0.88 -0.03,-0.29 0.08,-0.59 0.32,-0.88 l 0.13,-0.16 0.7,0.57 -0.1,0.13 c -0.06,0.07 -0.1,0.14 -0.14,0.21 -0.03,0.06 -0.05,0.12 -0.05,0.18 0,0.06 0.01,0.12 0.05,0.18 0.03,0.06 0.09,0.12 0.16,0.18 0.09,0.07 0.19,0.11 0.3,0.11 0.12,0 0.22,-0.06 0.32,-0.18 0.05,-0.07 0.09,-0.13 0.11,-0.19 0.02,-0.06 0.02,-0.12 0.02,-0.19 a 0.961,0.961 0 0 0 -0.08,-0.24 c -0.04,-0.09 -0.1,-0.19 -0.18,-0.31 -0.1,-0.16 -0.19,-0.31 -0.24,-0.45 -0.06,-0.14 -0.09,-0.28 -0.1,-0.42 -0.01,-0.14 0.01,-0.27 0.06,-0.4 0.05,-0.13 0.13,-0.26 0.23,-0.39 0.26,-0.32 0.54,-0.49 0.85,-0.5 0.31,-0.01 0.62,0.11 0.92,0.35 0.14,0.12 0.26,0.24 0.36,0.37 0.1,0.13 0.16,0.27 0.19,0.41 0.03,0.14 0.03,0.29 -0.01,0.44 z m -5.33,0.12 0.48,-0.72 -0.69,-0.71 -0.74,0.46 -0.66,-0.68 3.71,-2.08 0.75,0.77 -2.2,3.64 z m -1.92,-2.78 c -0.17,0 -0.34,-0.04 -0.49,-0.12 C 10.19,50.9 10.02,50.74 9.86,50.51 L 9.07,49.45 12.36,47 l 0.82,1.1 c 0.17,0.23 0.27,0.45 0.3,0.65 0.03,0.2 0,0.4 -0.08,0.58 -0.08,0.18 -0.21,0.36 -0.39,0.54 -0.17,0.17 -0.38,0.35 -0.62,0.52 -0.28,0.21 -0.55,0.38 -0.78,0.5 -0.24,0.12 -0.46,0.19 -0.67,0.21 -0.02,0.01 -0.05,0.01 -0.08,0.01 z M 10.09,13.86 c 0.15,-0.18 0.31,-0.34 0.48,-0.46 0.17,-0.13 0.35,-0.21 0.53,-0.25 0.18,-0.04 0.38,-0.03 0.58,0.03 0.2,0.06 0.41,0.18 0.62,0.35 0.24,0.2 0.41,0.44 0.49,0.69 0.07,0.22 0.06,0.44 -0.01,0.67 0.21,-0.16 0.44,-0.23 0.69,-0.23 h 0.01 c 0.3,0 0.61,0.13 0.91,0.38 0.17,0.14 0.32,0.31 0.44,0.48 0.12,0.18 0.2,0.38 0.22,0.59 0.03,0.21 0,0.44 -0.08,0.67 -0.08,0.24 -0.22,0.49 -0.44,0.75 l -1.27,1.52 -4.43,-3.69 z m 3.39,-3.44 3.07,3.61 1.54,-1.31 0.67,0.79 -2.49,2.12 -3.74,-4.39 z m 5.06,-3.55 4.25,4.19 -1.11,0.66 -0.84,-0.9 -1.23,0.73 0.38,1.17 -1.11,0.66 -1.61,-5.74 z m 3.78,-1.77 1.37,3.76 c 0.05,0.13 0.1,0.25 0.16,0.35 0.06,0.1 0.12,0.18 0.19,0.24 0.07,0.06 0.15,0.1 0.24,0.11 0.09,0.02 0.19,0 0.31,-0.04 0.12,-0.04 0.21,-0.1 0.27,-0.17 0.06,-0.07 0.09,-0.15 0.11,-0.24 A 0.82,0.82 0 0 0 24.96,8.8 1.92,1.92 0 0 0 24.85,8.43 l -1.37,-3.76 1.17,-0.42 1.37,3.76 c 0.12,0.34 0.18,0.65 0.17,0.91 -0.01,0.26 -0.08,0.49 -0.2,0.69 -0.12,0.19 -0.27,0.35 -0.47,0.47 -0.19,0.12 -0.4,0.22 -0.62,0.3 -0.22,0.08 -0.44,0.14 -0.67,0.17 -0.08,0.01 -0.16,0.02 -0.23,0.02 -0.14,0 -0.29,-0.02 -0.42,-0.07 C 23.37,10.43 23.17,10.3 22.99,10.11 22.81,9.92 22.65,9.63 22.52,9.27 L 21.15,5.51 Z m 7.28,-1.85 0.18,1.02 -1.99,0.35 0.21,1.22 1.88,-0.33 0.18,1.02 -1.88,0.33 0.25,1.41 2.07,-0.37 0.18,1.02 -3.3,0.58 -1,-5.68 z m -1.62,13.22 c 0.99,0.28 1.88,0.79 2.72,1.34 -4.1,0.45 -5.75,-0.44 -5.84,-0.78 V 17 c 0.05,-0.35 2.55,-2.52 6.13,-1.91 -1.01,0.67 -1.79,0.87 -3.01,1.38 z M 33.42,3.09 c 0.46,0 0.84,0.12 1.1,0.36 0.28,0.25 0.42,0.62 0.43,1.13 0.01,0.39 -0.07,0.71 -0.22,0.96 -0.13,0.21 -0.32,0.36 -0.57,0.45 0.21,0.05 0.38,0.13 0.49,0.25 0.14,0.15 0.23,0.39 0.27,0.71 0.01,0.11 0.02,0.22 0.03,0.35 0.01,0.12 0.01,0.26 0.02,0.42 0.01,0.3 0.03,0.53 0.06,0.69 0.03,0.14 0.09,0.24 0.19,0.29 l 0.03,0.01 V 8.83 L 33.94,8.85 33.93,8.83 A 0.58,0.58 0 0 1 33.81,8.54 C 33.79,8.44 33.78,8.33 33.77,8.21 L 33.72,7.12 C 33.71,6.91 33.65,6.74 33.56,6.63 33.47,6.52 33.32,6.47 33.11,6.47 l -0.58,0.01 0.04,2.4 -1.24,0.02 -0.09,-5.77 z m -0.46,13.66 c 0.8,0.48 1.46,1.14 2.06,1.81 -3.71,-0.6 -4.94,-1.76 -4.94,-2.08 l 0.01,-0.03 c 0.13,-0.29 2.86,-1.56 5.85,-0.17 -1.05,0.34 -1.79,0.33 -2.98,0.47 z m 5.79,2.48 c -1.25,0.27 -2.69,-0.74 -4,-1.94 1.45,-0.55 2.98,0.05 4,1.94 z m -0.71,-9.98 1.49,-5.52 3.15,0.85 -0.27,1 -1.96,-0.53 -0.32,1.2 1.84,0.5 -0.27,1 -1.84,-0.5 -0.36,1.37 2.03,0.55 -0.27,1 -3.23,-0.87 z m 7.55,-3.49 -0.4,3.91 1.59,-3.34 1.03,0.49 -0.02,0.04 -2.45,5.17 -1.25,-0.59 0.42,-3.99 -1.62,3.42 -1.03,-0.49 0.02,-0.04 2.45,-5.17 z m 3.79,2.77 c 0.27,-0.11 0.55,-0.14 0.82,-0.09 0.27,0.05 0.57,0.18 0.87,0.4 0.51,0.38 0.79,0.78 0.83,1.21 0.04,0.42 -0.12,0.88 -0.46,1.35 l -0.03,0.04 -0.96,-0.7 0.03,-0.04 c 0.06,-0.08 0.11,-0.17 0.16,-0.28 0.04,-0.1 0.07,-0.2 0.08,-0.3 0.01,-0.1 0,-0.2 -0.03,-0.29 A 0.464,0.464 0 0 0 50.52,9.6 c -0.21,-0.15 -0.44,-0.14 -0.7,0.02 -0.27,0.17 -0.62,0.54 -1.04,1.11 -0.2,0.27 -0.37,0.53 -0.52,0.76 -0.14,0.23 -0.25,0.44 -0.32,0.63 -0.07,0.18 -0.09,0.34 -0.07,0.48 0.02,0.13 0.09,0.24 0.21,0.33 0.05,0.04 0.12,0.06 0.2,0.08 0.08,0.02 0.17,0.02 0.27,0 0.09,-0.02 0.19,-0.06 0.29,-0.12 0.1,-0.06 0.19,-0.15 0.28,-0.27 l 0.31,-0.43 -0.61,-0.45 0.55,-0.76 1.57,1.15 -0.03,0.04 -1.84,2.51 -0.76,-0.55 0.26,-0.35 c -0.21,0.07 -0.4,0.08 -0.58,0.05 -0.22,-0.04 -0.44,-0.14 -0.66,-0.31 -0.29,-0.21 -0.49,-0.44 -0.6,-0.67 -0.11,-0.24 -0.14,-0.5 -0.09,-0.79 0.05,-0.28 0.17,-0.59 0.36,-0.92 0.19,-0.33 0.43,-0.69 0.72,-1.09 0.28,-0.39 0.56,-0.71 0.82,-0.96 0.3,-0.26 0.57,-0.45 0.84,-0.56 z m 6.73,5.08 -0.75,0.71 -1.4,-1.46 -0.89,0.86 1.32,1.38 -0.75,0.71 -1.32,-1.38 -1.03,0.99 1.46,1.52 -0.75,0.72 -2.31,-2.42 4.17,-3.99 z m -5.04,25.21 c -0.62,-0.13 -1.29,-4.5 -1.14,-9.06 0.99,1.23 1.73,2.56 2.23,4.01 0.86,-1.64 1.89,-3.2 3.09,-4.69 0.34,5.13 -3.64,9.82 -4.18,9.74 z m -3.76,5.6 -0.09,-0.07 c -0.36,-0.28 0.33,-4.59 2.42,-8.05 0.47,1.57 0.59,3.05 0.52,4.63 1.24,-1.11 2.94,-3.5 4.7,-4.56 -1.08,7 -7.36,8.17 -7.55,8.05 z m -0.56,-2.53 c -0.12,1.81 -0.12,3.15 -0.59,4.06 1.46,-0.49 4.42,-2.1 6.32,-2.32 -4.4,7.05 -9.95,4.61 -10.07,4.42 L 42.4,48 c -0.05,-0.23 1.18,-4.75 4.35,-6.11 z M 35.39,31.32 c 1.7,-2.3 6.11,-1.52 8.43,-1.6 0.4,1.15 0.61,2.38 0.61,3.67 0,5 -3.26,9.24 -7.77,10.71 -1.37,-2.18 -4.12,-8.91 -1.27,-12.78 z m 7.14,-14.8 c 1.82,-0.48 3.09,0.29 3.55,1.76 -1.53,-0.22 -3.01,-0.64 -3.55,-1.76 z m 10.7,7.4 c 1.85,4.05 -0.4,7.72 -0.85,7.88 l -0.04,0.01 c -0.48,0 -1.93,-1.8 -2.86,-6.37 0.97,0.83 1.98,1.52 2.63,2.61 0.3,-1.61 0.54,-2.74 1.12,-4.13 z m -3.21,-4.47 c 2.93,2.59 2.22,6.24 1.88,6.52 L 51.87,26 c -0.42,0.17 -2.41,-0.6 -4.55,-4.38 1.11,0.32 2.23,0.71 3.15,1.35 -0.24,-1.39 -0.52,-2.2 -0.45,-3.52 z m -3.6,-2.63 c 2.83,1.21 3.13,4 2.93,4.28 l -0.02,0.03 c -0.28,0.22 -1.97,0.11 -4.47,-2.14 0.92,-0.02 1.86,0.01 2.71,0.26 -0.5,-0.94 -0.9,-1.46 -1.15,-2.43 z M 21.91,33.39 c 0,-1.28 0.22,-2.52 0.61,-3.67 2.32,0.07 6.73,-0.7 8.43,1.6 2.85,3.87 0.11,10.6 -1.27,12.77 -4.51,-1.46 -7.77,-5.7 -7.77,-10.7 z m -2.02,12.46 c -0.47,-0.9 -0.47,-2.24 -0.59,-4.06 3.18,1.36 4.41,5.88 4.36,6.11 l -0.02,0.05 c -0.12,0.19 -5.67,2.63 -10.07,-4.42 1.9,0.22 4.85,1.83 6.32,2.32 z M 15.81,40.5 c 0.03,-1.64 0.25,-3.18 0.83,-4.79 1.88,3.65 2.29,8.13 1.91,8.41 l -0.1,0.07 c -0.19,0.13 -7.46,-0.73 -7.37,-8.31 2.2,1.97 3.55,3.43 4.73,4.62 z m -1.92,-6.75 c 0.7,-1.12 1.68,-2.09 2.86,-3.14 -0.32,4.31 -1.28,7.72 -1.95,7.77 -0.59,0.02 -4.18,-2.81 -3.57,-9.18 1.35,1.51 1.93,2.91 2.66,4.55 z m 4.78,-8.68 c -2.03,5.15 -4.1,6.94 -4.66,6.85 L 13.96,31.9 c -0.49,-0.28 -2.37,-5.01 0.63,-9.36 0.4,1.74 0.44,3.12 0.46,5.04 0.99,-1.14 2.32,-1.75 3.62,-2.51 z m 7.58,-6.85 c -4.12,2.32 -6.44,1.98 -6.76,1.6 l -0.02,-0.04 c -0.17,-0.44 1.36,-3.85 5.58,-4.67 -0.66,1.24 -1.57,1.54 -2.57,2.68 1.24,-0.1 2.53,0.13 3.77,0.43 z m -4.33,2.34 c -3.37,4.36 -5.56,5.34 -6.06,5.1 -0.37,-0.37 -1.54,-5.2 3.37,-7.82 -0.52,1.83 -0.66,2.75 -1.31,3.98 1.27,-0.69 2.55,-0.97 4,-1.26 z m 11.32,3.84 c -1.07,0 -1.93,0.85 -1.93,1.91 0,0.99 0.76,1.8 1.73,1.9 -2.92,0.02 -8.13,0.39 -10.15,0.61 1.75,-3.94 5.7,-6.69 10.29,-6.69 4.59,0 8.54,2.75 10.29,6.69 -1.99,-0.22 -7.08,-0.59 -10.02,-0.61 0.97,-0.1 1.73,-0.91 1.73,-1.9 0,-1.05 -0.87,-1.91 -1.94,-1.91 z m 23.9,-9.5 0.7,1.02 -3.9,2.69 1.15,1.67 -0.85,0.59 -0.03,-0.04 -1.83,-2.65 z M 33.17,0.32 c -17.95,0 -32.5,14.55 -32.5,32.5 0,17.95 14.55,32.5 32.5,32.5 17.95,0 32.5,-14.55 32.5,-32.5 C 65.68,14.87 51.12,0.32 33.17,0.32 Z"
       id="path5"
       style="display:inline" /></g></svg>
