<?xml version="1.0" encoding="UTF-8" standalone="no"?>
<svg
   xmlns:dc="http://purl.org/dc/elements/1.1/"
   xmlns:cc="http://creativecommons.org/ns#"
   xmlns:rdf="http://www.w3.org/1999/02/22-rdf-syntax-ns#"
   xmlns:svg="http://www.w3.org/2000/svg"
   xmlns="http://www.w3.org/2000/svg"
   viewBox="0 0 152.98666 153.12"
   height="153.12"
   width="152.98666"
   xml:space="preserve"
   id="svg2"
   version="1.1"><metadata
     id="metadata8"><rdf:RDF><cc:Work
         rdf:about=""><dc:format>image/svg+xml</dc:format><dc:type
           rdf:resource="http://purl.org/dc/dcmitype/StillImage" /></cc:Work></rdf:RDF></metadata><defs
     id="defs6" /><g
     transform="matrix(1.3333333,0,0,-1.3333333,0,153.12)"
     id="g10"><g
       transform="scale(0.1)"
       id="g12"><path
         id="path14"
         style="fill:#ed1639;fill-opacity:1;fill-rule:nonzero;stroke:none"
         d="m 614.172,1086.85 49.344,54.44 30.293,-67.11 57.226,46.07 19.434,-71.02 63.742,36.54 8.086,-73.19 68.68,26.11 -3.45,-73.553 71.887,15.039 -14.883,-72.11 73.349,3.606 -25.99,-68.899 73.03,-7.929 -36.43,-63.965 70.88,-19.277 -45.97,-57.461 66.99,-30.145 -54.39,-49.562 61.44,-40.262 -61.48,-40.453 54.43,-49.375 -67.07,-30.313 46.04,-57.285 -70.96,-19.453 36.5,-63.789 -73.11,-8.078 26.08,-68.75 -73.475,3.457 15.007,-71.961 -72.031,14.91 3.586,-73.441 -68.828,26.007 -7.93,-73.0777 L 770.273,99.0391 751.016,28.0898 693.586,74.1211 663.477,7.05859 613.945,61.5117 573.73,0 533.313,61.5391 483.977,7.05859 453.684,74.1484 396.438,28.0898 l -19.434,71 -63.742,-36.5195 -8.098,73.1917 -68.66,-26.102 3.445,73.551 -71.902,-15.039 14.902,72.117 -73.371,-3.601 25.988,68.906 -73.0269,7.929 36.4257,63.946 -70.8789,19.297 45.9961,57.48 L 7.07031,484.363 61.4727,533.934 0,574.199 l 61.4727,40.43 -54.40239,49.375 67.05079,30.332 -46.0352,57.305 70.9649,19.453 -36.5117,63.789 73.1249,8.086 -26.086,68.73 73.481,-3.437 -15.024,71.965 72.043,-14.914 -3.574,73.427 68.828,-26.01 7.93,73.09 63.926,-36.46 19.257,70.94 57.434,-46.02 30.105,67.06 49.532,-54.43 40.222,61.49 40.434,-61.55" /><path
         id="path16"
         style="fill:#fddd1b;fill-opacity:1;fill-rule:nonzero;stroke:none"
         d="m 71.9336,574.199 c 0,277.364 224.6484,502.211 501.7894,502.211 277.136,0 501.787,-224.847 501.787,-502.211 0,-277.355 -224.651,-502.1873 -501.787,-502.1873 -277.141,0 -501.7894,224.8323 -501.7894,502.1873" /><path
         id="path18"
         style="fill:#fddd1b;fill-opacity:1;fill-rule:nonzero;stroke:none"
         d="m 71.9336,574.199 c 0,277.364 224.6484,502.211 501.7894,502.211 277.136,0 501.787,-224.847 501.787,-502.211 0,-277.355 -224.651,-502.1873 -501.787,-502.1873 -277.141,0 -501.7894,224.8323 -501.7894,502.1873" /><path
         id="path20"
         style="fill:#ed1639;fill-opacity:1;fill-rule:nonzero;stroke:none"
         d="m 231.902,574.445 c 0,188.797 152.934,341.864 341.594,341.864 188.645,0 341.563,-153.067 341.563,-341.864 0,-188.812 -152.918,-341.859 -341.563,-341.859 -188.66,0 -341.594,153.047 -341.594,341.859" /><path
         id="path22"
         style="fill:#ed1639;fill-opacity:1;fill-rule:nonzero;stroke:none"
         d="m 231.902,574.445 c 0,188.797 152.934,341.864 341.594,341.864 188.645,0 341.563,-153.067 341.563,-341.864 0,-188.812 -152.918,-341.859 -341.563,-341.859 -188.66,0 -341.594,153.047 -341.594,341.859" /><path
         id="path24"
         style="fill:#fddd1b;fill-opacity:1;fill-rule:nonzero;stroke:none"
         d="m 829.863,733.555 -10.5,30.293 -10.105,-30.313 -32.715,-0.008 26.523,-18.781 -10.175,-30.281 26.523,18.777 26.426,-18.777 -9.707,30.207 26.074,18.855 -32.344,0.028" /><path
         id="path26"
         style="fill:#fddd1b;fill-opacity:1;fill-rule:nonzero;stroke:none"
         d="M 724.734,833.02 714.238,863.301 704.121,833 l -32.734,-0.02 26.523,-18.781 -10.156,-30.273 26.523,18.769 26.414,-18.769 -9.714,30.187 26.093,18.867 -32.336,0.04" /><path
         id="path28"
         style="fill:#fddd1b;fill-opacity:1;fill-rule:nonzero;stroke:none"
         d="m 582.305,872.297 -10.508,30.293 -10.109,-30.324 h -32.735 l 26.535,-18.778 -10.168,-30.285 26.535,18.781 26.407,-18.781 -9.707,30.195 26.074,18.868 -32.324,0.031" /><path
         id="path30"
         style="fill:#fddd1b;fill-opacity:1;fill-rule:nonzero;stroke:none"
         d="m 441.57,833 -10.515,30.301 -10.11,-30.321 -32.722,-0.011 26.523,-18.77 -10.156,-30.293 26.523,18.782 26.414,-18.782 -9.714,30.207 26.082,18.856 L 441.57,833" /><path
         id="path32"
         style="fill:#fddd1b;fill-opacity:1;fill-rule:nonzero;stroke:none"
         d="m 336.438,733.555 -10.508,30.293 -10.11,-30.313 -32.722,-0.008 26.519,-18.781 -10.164,-30.281 26.524,18.777 26.418,-18.777 -9.707,30.207 26.074,18.855 -32.324,0.028" /><path
         id="path34"
         style="fill:#fddd1b;fill-opacity:1;fill-rule:nonzero;stroke:none"
         d="m 297.461,583.195 -10.508,30.301 -10.105,-30.312 -32.739,-0.02 26.536,-18.769 -10.165,-30.286 26.524,18.774 26.426,-18.774 -9.719,30.188 26.074,18.867 -32.324,0.031" /><path
         id="path36"
         style="fill:#fddd1b;fill-opacity:1;fill-rule:nonzero;stroke:none"
         d="m 342.219,446.082 -10.52,30.293 -10.105,-30.312 -32.727,-0.02 26.524,-18.77 -10.157,-30.293 26.512,18.79 26.43,-18.79 -9.719,30.196 26.086,18.867 -32.324,0.039" /><path
         id="path38"
         style="fill:#fddd1b;fill-opacity:1;fill-rule:nonzero;stroke:none"
         d="m 435.793,346.648 -10.512,30.274 -10.105,-30.305 h -32.727 l 26.528,-18.777 -10.168,-30.293 26.523,18.789 26.414,-18.789 -9.703,30.195 26.07,18.875 -32.32,0.031" /><path
         id="path40"
         style="fill:#fddd1b;fill-opacity:1;fill-rule:nonzero;stroke:none"
         d="m 582.305,295.379 -10.508,30.293 -10.117,-30.305 h -32.727 l 26.535,-18.777 -10.175,-30.293 26.523,18.769 26.426,-18.769 -9.707,30.215 26.074,18.855 -32.324,0.012" /><path
         id="path42"
         style="fill:#fddd1b;fill-opacity:1;fill-rule:nonzero;stroke:none"
         d="m 728.828,346.629 -10.515,30.293 -10.11,-30.305 -32.734,-0.027 26.543,-18.762 -10.188,-30.293 26.535,18.781 26.426,-18.781 -9.719,30.188 26.086,18.867 -32.324,0.039" /><path
         id="path44"
         style="fill:#fddd1b;fill-opacity:1;fill-rule:nonzero;stroke:none"
         d="m 822.422,446.082 -10.52,30.273 -10.117,-30.312 h -32.722 l 26.542,-18.77 -10.195,-30.293 26.543,18.79 26.426,-18.79 -9.707,30.196 26.074,18.867 -32.324,0.039" /><path
         id="path46"
         style="fill:#fddd1b;fill-opacity:1;fill-rule:nonzero;stroke:none"
         d="m 870.527,583.828 -10.507,30.305 -10.098,-30.324 -32.734,-0.02 26.535,-18.758 -10.188,-30.297 26.543,18.782 26.426,-18.782 -9.719,30.207 26.067,18.848 -32.325,0.039" /><path
         id="path48"
         style="fill:#fddd1b;fill-opacity:1;fill-rule:nonzero;stroke:none"
         d="m 691.191,393.445 c -59.375,62.325 -182.668,117.5 -328.894,139.61 l -0.688,3.73 c -1.558,8.86 -2.554,17.699 -3.015,26.469 151.445,-21.742 288.808,-79.106 356.211,-151.977 -7.403,-6.445 -15.293,-12.402 -23.614,-17.832" /><path
         id="path50"
         style="fill:#fddd1b;fill-opacity:1;fill-rule:nonzero;stroke:none"
         d="m 600.664,360.32 c -27.473,46.836 -111.211,92.715 -218.027,114.297 -5.34,10.274 -9.903,21.074 -13.582,32.344 122.586,-21.133 230.535,-74.668 261.648,-140.664 -6.387,-1.738 -12.91,-3.203 -19.57,-4.395 -3.496,-0.605 -6.985,-1.132 -10.469,-1.582" /><path
         id="path52"
         style="fill:#fddd1b;fill-opacity:1;fill-rule:nonzero;stroke:none"
         d="m 399.719,447.078 c 57.566,-15.43 106.433,-42.773 122.586,-82.265 -49.231,12.148 -92.762,41.425 -122.586,82.265" /><path
         id="path54"
         style="fill:#fddd1b;fill-opacity:1;fill-rule:nonzero;stroke:none"
         d="m 577.59,566.164 c 73.98,20.359 148.66,28.074 211.062,22.41 0.508,-7.519 0.625,-15 0.352,-22.39 -50.32,4.949 -111.016,0.808 -174.629,-13.645 10.867,-4.277 21.504,-8.711 31.895,-13.293 52.05,8.02 101.621,6.945 139.335,-4.101 -1.347,-7.344 -3.078,-14.59 -5.175,-21.7 -25.469,7.637 -58.77,10.528 -96.153,7.871 29.344,-14.863 56.153,-30.898 79.844,-47.929 -4.57,-8.633 -9.707,-16.934 -15.391,-24.864 -89.16,64.649 -230.007,117.727 -389.968,139.985 0.64,9.746 1.929,19.363 3.867,28.789 50.254,-7.043 99.246,-17.109 145.777,-29.766 92.024,32 187.649,48.446 271.574,48.836 2.137,-7.148 3.926,-14.48 5.352,-21.972 -72.207,0.332 -155.449,-11.797 -239.531,-37.774 10.762,-3.34 21.347,-6.836 31.789,-10.457" /><path
         id="path56"
         style="fill:#fddd1b;fill-opacity:1;fill-rule:nonzero;stroke:none"
         d="m 829.863,733.555 -10.5,30.293 -10.105,-30.313 -32.715,-0.008 26.523,-18.781 -10.175,-30.281 26.523,18.777 26.426,-18.777 -9.707,30.207 26.074,18.855 -32.344,0.028" /><path
         id="path58"
         style="fill:#fddd1b;fill-opacity:1;fill-rule:nonzero;stroke:none"
         d="M 724.734,833.02 714.238,863.301 704.121,833 l -32.734,-0.02 26.523,-18.781 -10.156,-30.273 26.523,18.769 26.414,-18.769 -9.714,30.187 26.093,18.867 -32.336,0.04" /><path
         id="path60"
         style="fill:#fddd1b;fill-opacity:1;fill-rule:nonzero;stroke:none"
         d="m 582.305,872.297 -10.508,30.293 -10.109,-30.324 h -32.735 l 26.535,-18.778 -10.168,-30.285 26.535,18.781 26.407,-18.781 -9.707,30.195 26.074,18.868 -32.324,0.031" /><path
         id="path62"
         style="fill:#fddd1b;fill-opacity:1;fill-rule:nonzero;stroke:none"
         d="m 441.57,833 -10.515,30.301 -10.11,-30.321 -32.722,-0.011 26.523,-18.77 -10.156,-30.293 26.523,18.782 26.414,-18.782 -9.714,30.207 26.082,18.856 L 441.57,833" /><path
         id="path64"
         style="fill:#fddd1b;fill-opacity:1;fill-rule:nonzero;stroke:none"
         d="m 336.438,733.555 -10.508,30.293 -10.11,-30.313 -32.722,-0.008 26.519,-18.781 -10.164,-30.281 26.524,18.777 26.418,-18.777 -9.707,30.207 26.074,18.855 -32.324,0.028" /><path
         id="path66"
         style="fill:#fddd1b;fill-opacity:1;fill-rule:nonzero;stroke:none"
         d="m 297.461,583.195 -10.508,30.301 -10.105,-30.312 -32.739,-0.02 26.536,-18.769 -10.165,-30.286 26.524,18.774 26.426,-18.774 -9.719,30.188 26.074,18.867 -32.324,0.031" /><path
         id="path68"
         style="fill:#fddd1b;fill-opacity:1;fill-rule:nonzero;stroke:none"
         d="m 342.219,446.082 -10.52,30.293 -10.105,-30.312 -32.727,-0.02 26.524,-18.77 -10.157,-30.293 26.512,18.79 26.43,-18.79 -9.719,30.196 26.086,18.867 -32.324,0.039" /><path
         id="path70"
         style="fill:#fddd1b;fill-opacity:1;fill-rule:nonzero;stroke:none"
         d="m 435.793,346.648 -10.512,30.274 -10.105,-30.305 h -32.727 l 26.528,-18.777 -10.168,-30.293 26.523,18.789 26.414,-18.789 -9.703,30.195 26.07,18.875 -32.32,0.031" /><path
         id="path72"
         style="fill:#fddd1b;fill-opacity:1;fill-rule:nonzero;stroke:none"
         d="m 582.305,295.379 -10.508,30.293 -10.117,-30.305 h -32.727 l 26.535,-18.777 -10.175,-30.293 26.523,18.769 26.426,-18.769 -9.707,30.215 26.074,18.855 -32.324,0.012" /><path
         id="path74"
         style="fill:#fddd1b;fill-opacity:1;fill-rule:nonzero;stroke:none"
         d="m 728.828,346.629 -10.515,30.293 -10.11,-30.305 -32.734,-0.027 26.543,-18.762 -10.188,-30.293 26.535,18.781 26.426,-18.781 -9.719,30.188 26.086,18.867 -32.324,0.039" /><path
         id="path76"
         style="fill:#fddd1b;fill-opacity:1;fill-rule:nonzero;stroke:none"
         d="m 822.422,446.082 -10.52,30.273 -10.117,-30.312 h -32.722 l 26.542,-18.77 -10.195,-30.293 26.543,18.79 26.426,-18.79 -9.707,30.196 26.074,18.867 -32.324,0.039" /><path
         id="path78"
         style="fill:#fddd1b;fill-opacity:1;fill-rule:nonzero;stroke:none"
         d="m 870.527,583.828 -10.507,30.305 -10.098,-30.324 -32.734,-0.02 26.535,-18.758 -10.188,-30.297 26.543,18.782 26.426,-18.782 -9.719,30.207 26.067,18.848 -32.325,0.039" /><path
         id="path80"
         style="fill:#fddd1b;fill-opacity:1;fill-rule:nonzero;stroke:none"
         d="m 691.191,393.445 c -59.375,62.325 -182.668,117.5 -328.894,139.61 l -0.688,3.73 c -1.558,8.86 -2.554,17.699 -3.015,26.469 151.445,-21.742 288.808,-79.106 356.211,-151.977 -7.403,-6.445 -15.293,-12.402 -23.614,-17.832" /><path
         id="path82"
         style="fill:#fddd1b;fill-opacity:1;fill-rule:nonzero;stroke:none"
         d="m 600.664,360.32 c -27.473,46.836 -111.211,92.715 -218.027,114.297 -5.34,10.274 -9.903,21.074 -13.582,32.344 122.586,-21.133 230.535,-74.668 261.648,-140.664 -6.387,-1.738 -12.91,-3.203 -19.57,-4.395 -3.496,-0.605 -6.985,-1.132 -10.469,-1.582" /><path
         id="path84"
         style="fill:#fddd1b;fill-opacity:1;fill-rule:nonzero;stroke:none"
         d="m 399.719,447.078 c 57.566,-15.43 106.433,-42.773 122.586,-82.265 -49.231,12.148 -92.762,41.425 -122.586,82.265" /><path
         id="path86"
         style="fill:#fddd1b;fill-opacity:1;fill-rule:nonzero;stroke:none"
         d="m 577.59,566.164 c 73.98,20.359 148.66,28.074 211.062,22.41 0.508,-7.519 0.625,-15 0.352,-22.39 -50.32,4.949 -111.016,0.808 -174.629,-13.645 10.867,-4.277 21.504,-8.711 31.895,-13.293 52.05,8.02 101.621,6.945 139.335,-4.101 -1.347,-7.344 -3.078,-14.59 -5.175,-21.7 -25.469,7.637 -58.77,10.528 -96.153,7.871 29.344,-14.863 56.153,-30.898 79.844,-47.929 -4.57,-8.633 -9.707,-16.934 -15.391,-24.864 -89.16,64.649 -230.007,117.727 -389.968,139.985 0.64,9.746 1.929,19.363 3.867,28.789 50.254,-7.043 99.246,-17.109 145.777,-29.766 92.024,32 187.649,48.446 271.574,48.836 2.137,-7.148 3.926,-14.48 5.352,-21.972 -72.207,0.332 -155.449,-11.797 -239.531,-37.774 10.762,-3.34 21.347,-6.836 31.789,-10.457" /><path
         id="path88"
         style="fill:#ed1639;fill-opacity:1;fill-rule:nonzero;stroke:none"
         d="m 364.73,195.73 c -2.957,1.661 -4.894,4.11 -5.82,7.364 -0.922,3.261 -0.555,6.367 1.094,9.316 1.652,2.957 4.105,4.903 7.359,5.82 3.258,0.918 6.364,0.555 9.321,-1.093 2.957,-1.653 4.894,-4.102 5.816,-7.364 0.922,-3.253 0.559,-6.359 -1.094,-9.316 -1.648,-2.949 -4.097,-4.902 -7.34,-5.82 -3.242,-0.938 -6.351,-0.567 -9.336,1.093" /><path
         id="path90"
         style="fill:#ed1639;fill-opacity:1;fill-rule:nonzero;stroke:none"
         d="m 259.438,244.734 12.238,17.032 1.304,-1.114 c -2.062,-5.078 -2.906,-9.511 -2.531,-13.293 0.531,-5.457 3.156,-10.183 7.867,-14.187 6.426,-5.469 13.469,-7.07 21.141,-4.844 6.449,1.914 12.199,5.828 17.238,11.758 4.09,4.805 6.895,9.988 8.407,15.535 1.515,5.559 1.546,10.539 0.109,14.942 -1.441,4.406 -3.75,7.96 -6.926,10.664 -1.859,1.582 -3.855,2.871 -5.996,3.878 -2.133,1.004 -4.398,1.739 -6.793,2.188 l -12.398,-14.582 c -2.153,-2.527 -3.368,-4.344 -3.645,-5.457 -0.281,-1.106 -0.191,-2.207 0.266,-3.301 0.457,-1.094 1.703,-2.5 3.738,-4.238 l -1.199,-1.406 -19.531,16.601 1.199,1.406 0.933,-0.781 c 1.934,-1.64 3.809,-2.129 5.625,-1.445 1.274,0.488 3.063,2.09 5.36,4.785 l 13.125,15.449 c 4.16,-0.898 7.933,-2.16 11.324,-3.808 3.391,-1.641 6.781,-3.907 10.18,-6.797 9.746,-8.281 14.492,-17.696 14.234,-28.254 -0.191,-7.918 -2.891,-14.93 -8.102,-21.063 -3.773,-4.433 -8.457,-7.773 -14.046,-10.031 -6.641,-2.683 -13.278,-3.445 -19.903,-2.305 -5.531,0.989 -10.808,3.625 -15.843,7.903 -1.836,1.562 -3.379,3.125 -4.625,4.695 -1.25,1.574 -2.817,4.043 -4.704,7.395 -0.945,1.707 -1.656,2.754 -2.129,3.164 -0.468,0.39 -1.058,0.527 -1.761,0.371 -0.703,-0.149 -1.629,-0.821 -2.778,-2.031 l -1.378,1.171" /><path
         id="path92"
         style="fill:#ed1639;fill-opacity:1;fill-rule:nonzero;stroke:none"
         d="m 233.785,279.625 20.047,16.828 -9.359,11.152 c -2.426,2.891 -4.485,4.454 -6.172,4.688 -2.238,0.332 -4.863,-0.637 -7.879,-2.91 l -1.164,1.387 17.652,14.812 1.16,-1.387 c -2.172,-2.422 -3.465,-4.09 -3.871,-5.027 -0.492,-1.191 -0.562,-2.5 -0.199,-3.938 0.355,-1.445 1.426,-3.222 3.207,-5.339 l 9.356,-11.145 16.714,14.035 c 2.246,1.883 3.524,3.125 3.84,3.731 0.324,0.613 0.418,1.289 0.285,2.031 -0.132,0.73 -0.785,1.797 -1.957,3.203 l -7.222,8.594 c -2.407,2.871 -4.352,4.785 -5.84,5.742 -1.485,0.965 -3.32,1.551 -5.496,1.758 -2.844,0.254 -6.5,-0.117 -10.981,-1.113 l -1.258,1.492 16.391,6.301 32.809,-39.082 -1.383,-1.153 -1.508,1.785 c -1.008,1.203 -2.242,2.102 -3.715,2.688 -1.07,0.457 -2.125,0.496 -3.164,0.117 -1.035,-0.391 -2.789,-1.613 -5.262,-3.684 l -32.941,-27.664 c -3.219,-2.695 -4.93,-4.687 -5.133,-5.957 -0.246,-1.738 0.512,-3.652 2.27,-5.742 l 1.508,-1.797 -1.379,-1.164 -32.813,39.074 10.641,9.891 1.219,-1.453 c -2.227,-2.774 -3.571,-4.883 -4.036,-6.359 -0.461,-1.473 -0.433,-3.055 0.09,-4.735 0.465,-1.308 1.754,-3.222 3.867,-5.742 l 11.676,-13.918" /><path
         id="path94"
         style="fill:#ed1639;fill-opacity:1;fill-rule:nonzero;stroke:none"
         d="m 174.363,354.5 19.539,11.953 0.942,-1.543 c -3.442,-2.793 -5.879,-5.519 -7.309,-8.164 -1.437,-2.656 -2.07,-5.566 -1.914,-8.75 0.156,-3.195 1.016,-6.066 2.578,-8.613 1.766,-2.891 4.11,-4.746 7.028,-5.547 2.918,-0.82 5.5,-0.527 7.753,0.84 1.715,1.054 2.922,2.617 3.606,4.676 1.031,3 1.301,8.789 0.812,17.382 -0.394,7.004 -0.425,11.946 -0.093,14.797 0.332,2.852 1.207,5.43 2.629,7.735 1.414,2.293 3.25,4.14 5.496,5.507 4.277,2.618 8.98,3.211 14.105,1.797 5.129,-1.425 9.281,-4.746 12.481,-9.972 1.004,-1.641 1.816,-3.25 2.453,-4.852 0.386,-0.949 0.969,-3.047 1.754,-6.289 0.781,-3.242 1.394,-5.215 1.836,-5.937 0.421,-0.704 0.968,-1.114 1.629,-1.27 0.664,-0.137 1.707,0.078 3.128,0.684 l 0.95,-1.536 -19.371,-11.843 -0.942,1.531 c 3.613,3.203 6.051,6.027 7.313,8.488 1.269,2.449 1.797,5.34 1.593,8.672 -0.207,3.328 -1.222,6.484 -3.058,9.492 -2.121,3.465 -4.715,5.645 -7.781,6.543 -3.067,0.887 -5.844,0.567 -8.344,-0.957 -1.391,-0.851 -2.563,-2.09 -3.508,-3.722 -0.945,-1.629 -1.543,-3.622 -1.777,-5.985 -0.172,-1.582 -0.133,-5.625 0.117,-12.109 0.25,-6.496 0.191,-11.25 -0.172,-14.278 -0.359,-3.027 -1.191,-5.664 -2.488,-7.91 -1.293,-2.246 -3.114,-4.082 -5.446,-5.507 -4.05,-2.481 -8.496,-3.059 -13.332,-1.739 -4.828,1.317 -8.715,4.375 -11.652,9.18 -1.836,2.996 -3.047,6.629 -3.629,10.887 -0.258,1.984 -0.582,3.293 -0.973,3.937 -0.445,0.711 -1.019,1.172 -1.726,1.367 -0.715,0.196 -1.809,0.039 -3.281,-0.488 l -0.946,1.543" /><path
         id="path96"
         style="fill:#ed1639;fill-opacity:1;fill-rule:nonzero;stroke:none"
         d="m 140.992,428.367 20.262,9.922 0.57,-1.406 c -5.472,-4.414 -8.871,-8.918 -10.191,-13.496 -1.324,-4.59 -0.996,-9.317 0.988,-14.16 1.664,-4.075 4.199,-7.325 7.609,-9.766 3.403,-2.441 7.754,-3.672 13.04,-3.711 5.293,-0.039 11.296,1.328 18.015,4.07 5.547,2.278 9.985,5.129 13.324,8.567 3.34,3.437 5.368,7.39 6.075,11.855 0.707,4.453 0.129,8.965 -1.746,13.555 -1.629,3.965 -3.915,7.129 -6.864,9.48 -2.941,2.344 -7.695,4.309 -14.246,5.879 l 0.332,1.77 c 6.707,-0.84 12.168,-2.793 16.371,-5.86 4.207,-3.058 7.465,-7.402 9.77,-13.039 4.156,-10.156 3.605,-19.558 -1.649,-28.211 -3.902,-6.445 -9.648,-11.23 -17.242,-14.336 -6.117,-2.5 -12.297,-3.429 -18.539,-2.785 -6.242,0.657 -11.758,2.805 -16.539,6.457 -4.785,3.653 -8.34,8.321 -10.668,14.024 -1.812,4.422 -2.516,9.238 -2.109,14.433 0.144,1.532 0.105,2.579 -0.114,3.114 -0.332,0.812 -0.91,1.406 -1.726,1.769 -1.137,0.449 -2.492,0.547 -4.074,0.293 l -0.649,1.582" /><path
         id="path98"
         style="fill:#ed1639;fill-opacity:1;fill-rule:nonzero;stroke:none"
         d="m 162.031,472.84 -6.269,30.117 -18.543,-3.848 c -3.317,-0.695 -5.461,-1.359 -6.422,-1.992 -0.734,-0.488 -1.281,-1.289 -1.641,-2.433 -0.48,-1.532 -0.558,-3.055 -0.242,-4.59 l 0.481,-2.293 -1.774,-0.371 -5.766,27.734 1.766,0.359 0.481,-2.293 c 0.316,-1.523 0.988,-2.902 2.003,-4.121 0.719,-0.918 1.637,-1.445 2.75,-1.601 1.118,-0.149 3.262,0.117 6.45,0.781 l 41.828,8.691 c 3.281,0.684 5.406,1.348 6.375,1.981 0.726,0.48 1.277,1.281 1.644,2.394 0.473,1.551 0.551,3.106 0.235,4.629 l -0.481,2.293 1.77,0.371 5.769,-27.722 -1.765,-0.371 -0.481,2.293 c -0.551,2.648 -1.73,4.406 -3.543,5.304 -1.187,0.575 -3.726,0.469 -7.613,-0.343 l -19.742,-4.11 6.265,-30.117 19.747,4.109 c 3.281,0.684 5.406,1.34 6.371,1.973 0.726,0.481 1.277,1.301 1.636,2.434 0.481,1.531 0.563,3.066 0.243,4.59 l -0.489,2.343 1.77,0.371 5.781,-27.773 -1.773,-0.371 -0.473,2.293 c -0.559,2.676 -1.742,4.465 -3.559,5.344 -1.175,0.554 -3.711,0.429 -7.597,-0.383 l -41.832,-8.699 c -3.313,-0.696 -5.453,-1.36 -6.414,-1.993 -0.735,-0.48 -1.286,-1.281 -1.653,-2.382 -0.472,-1.563 -0.551,-3.106 -0.23,-4.641 l 0.472,-2.293 -1.765,-0.371 -5.781,27.773 1.773,0.371 0.48,-2.343 c 0.325,-1.524 0.993,-2.903 2.008,-4.121 0.719,-0.879 1.633,-1.407 2.746,-1.575 1.118,-0.164 3.27,0.09 6.453,0.754 l 18.551,3.848" /><path
         id="path100"
         style="fill:#ed1639;fill-opacity:1;fill-rule:nonzero;stroke:none"
         d="m 121.008,577.555 -1.809,-0.028 -0.426,23.43 1.809,0.035 0.043,-2.488 c 0.051,-2.609 1.176,-4.59 3.379,-5.949 1.023,-0.664 3.375,-0.965 7.051,-0.899 l 26.851,0.489 c 6.641,0.117 11.801,-0.446 15.489,-1.7 3.683,-1.25 6.875,-3.777 9.558,-7.593 2.692,-3.805 4.098,-9.032 4.219,-15.668 0.133,-7.227 -1.024,-12.735 -3.461,-16.524 -2.438,-3.789 -5.758,-6.5 -9.961,-8.14 -2.875,-1.086 -8.305,-1.711 -16.277,-1.86 l -25.875,-0.469 c -4.071,-0.066 -6.731,-0.683 -7.977,-1.824 -1.25,-1.152 -1.848,-2.969 -1.805,-5.48 l 0.043,-2.489 -1.804,-0.039 -0.52,28.614 1.809,0.031 0.043,-2.539 c 0.054,-2.735 0.949,-4.672 2.695,-5.809 1.188,-0.797 3.633,-1.156 7.344,-1.09 l 28.851,0.524 c 2.575,0.047 5.512,0.336 8.825,0.867 3.316,0.535 5.882,1.434 7.718,2.707 1.832,1.27 3.332,3.074 4.493,5.43 1.164,2.347 1.71,5.215 1.652,8.597 -0.078,4.329 -1.094,8.184 -3.043,11.567 -1.949,3.387 -4.41,5.676 -7.379,6.875 -2.969,1.199 -7.969,1.734 -15,1.609 l -26.801,-0.484 c -4.133,-0.078 -6.711,-0.582 -7.734,-1.508 -1.41,-1.297 -2.09,-3.199 -2.047,-5.703 z m -18.664,-18.407 c -0.031,1.497 0.469,2.766 1.496,3.813 1.019,1.043 2.265,1.582 3.726,1.605 1.465,0.024 2.723,-0.472 3.766,-1.492 1.039,-1.027 1.578,-2.254 1.602,-3.683 0.031,-1.465 -0.461,-2.731 -1.469,-3.789 -1.004,-1.059 -2.242,-1.602 -3.707,-1.629 -1.465,-0.028 -2.723,0.461 -3.781,1.468 -1.063,1.004 -1.61,2.243 -1.633,3.707 z m -0.313,17.235 c -0.027,1.465 0.469,2.719 1.492,3.762 1.024,1.043 2.266,1.582 3.735,1.605 1.465,0.027 2.719,-0.465 3.762,-1.469 1.043,-1.008 1.578,-2.242 1.601,-3.707 0.031,-1.465 -0.457,-2.726 -1.469,-3.785 -1.007,-1.062 -2.242,-1.605 -3.707,-1.629 -1.465,-0.031 -2.722,0.469 -3.785,1.492 -1.058,1.02 -1.605,2.266 -1.629,3.731" /><path
         id="path102"
         style="fill:#ed1639;fill-opacity:1;fill-rule:nonzero;stroke:none"
         d="m 128.246,670.203 15.469,-1.523 -0.27,-1.836 c -2.757,0.043 -4.757,-0.156 -6.007,-0.602 -2.012,-0.726 -3.586,-1.851 -4.711,-3.383 -1.129,-1.531 -1.891,-3.644 -2.289,-6.347 l -1.344,-9.231 50.051,-7.32 c 4.023,-0.59 6.601,-0.52 7.726,0.203 1.531,1.027 2.484,2.813 2.856,5.356 l 0.332,2.269 1.789,-0.258 -4.067,-27.785 -1.785,0.266 0.344,2.32 c 0.402,2.766 -0.149,4.856 -1.652,6.258 -0.926,0.859 -3.227,1.558 -6.899,2.094 l -50.055,7.32 -1.152,-7.875 c -0.449,-3.063 -0.535,-5.27 -0.277,-6.621 0.371,-1.77 1.332,-3.371 2.898,-4.817 1.563,-1.449 3.817,-2.5 6.742,-3.156 l -0.265,-1.836 -15.254,3.016 7.82,53.488" /><path
         id="path104"
         style="fill:#ed1639;fill-opacity:1;fill-rule:nonzero;stroke:none"
         d="m 148.102,738.469 46.445,-60.043 8.074,25.918 c 1.242,3.976 1.324,7.304 0.246,9.972 -1.074,2.672 -4.015,5.661 -8.82,8.961 l 0.762,1.45 15.804,-8.196 -16.039,-51.465 -1.722,0.536 -45.075,58.546 -6.3,-20.234 c -1.047,-3.355 -1.442,-5.906 -1.18,-7.637 0.262,-1.734 0.957,-3.214 2.098,-4.441 1.128,-1.219 3.496,-2.746 7.082,-4.582 l -0.551,-1.774 -15.395,6.231 14.571,46.758" /><path
         id="path106"
         style="fill:#ed1639;fill-opacity:1;fill-rule:nonzero;stroke:none"
         d="m 179.066,803.68 14.215,-6.285 -0.832,-1.661 c -2.601,0.903 -4.566,1.336 -5.89,1.309 -2.141,-0.059 -3.985,-0.641 -5.539,-1.738 -1.547,-1.098 -2.934,-2.871 -4.157,-5.317 l -4.168,-8.34 45.25,-22.613 c 3.641,-1.82 6.11,-2.558 7.407,-2.226 1.773,0.496 3.238,1.894 4.382,4.195 l 1.028,2.055 1.617,-0.813 -12.551,-25.109 -1.613,0.804 1.047,2.094 c 1.25,2.504 1.383,4.66 0.39,6.465 -0.609,1.105 -2.578,2.492 -5.898,4.145 l -45.246,22.613 -3.563,-7.117 c -1.382,-2.77 -2.156,-4.836 -2.332,-6.203 -0.207,-1.793 0.207,-3.618 1.242,-5.485 1.04,-1.859 2.844,-3.562 5.422,-5.105 l -0.832,-1.66 -13.539,7.64 24.16,48.352" /><path
         id="path108"
         style="fill:#ed1639;fill-opacity:1;fill-rule:nonzero;stroke:none"
         d="m 201.172,830.508 21.23,-15.301 8.512,11.801 c 2.207,3.062 3.219,5.441 3.035,7.14 -0.222,2.247 -1.808,4.555 -4.761,6.922 l 1.062,1.465 18.691,-13.48 -1.054,-1.465 c -2.883,1.519 -4.824,2.351 -5.832,2.519 -1.266,0.192 -2.551,-0.062 -3.864,-0.765 -1.304,-0.703 -2.769,-2.18 -4.386,-4.422 l -8.512,-11.801 17.703,-12.769 c 2.379,-1.707 3.899,-2.645 4.567,-2.805 0.664,-0.164 1.343,-0.09 2.027,0.223 0.683,0.308 1.558,1.203 2.629,2.679 l 6.566,9.114 c 2.188,3.035 3.57,5.39 4.137,7.07 0.562,1.676 0.687,3.597 0.359,5.762 -0.461,2.812 -1.718,6.269 -3.785,10.367 l 1.145,1.586 10.125,-14.348 -29.836,-41.387 -1.473,1.059 1.371,1.898 c 0.914,1.27 1.481,2.688 1.692,4.262 0.183,1.148 -0.036,2.184 -0.661,3.094 -0.625,0.914 -2.246,2.312 -4.855,4.195 l -34.899,25.156 c -3.406,2.457 -5.753,3.629 -7.042,3.512 -1.739,-0.187 -3.407,-1.391 -5.008,-3.609 l -1.371,-1.899 -1.465,1.055 29.844,41.391 12.191,-7.891 -1.117,-1.543 c -3.227,1.48 -5.61,2.266 -7.153,2.355 -1.543,0.086 -3.062,-0.328 -4.57,-1.246 -1.156,-0.773 -2.699,-2.492 -4.617,-5.156 l -10.625,-14.738" /><path
         id="path110"
         style="fill:#ed1639;fill-opacity:1;fill-rule:nonzero;stroke:none"
         d="m 286.582,925.496 -1.172,1.371 17.817,15.223 1.175,-1.375 -1.89,-1.617 c -1.985,-1.688 -2.793,-3.825 -2.446,-6.387 0.137,-1.211 1.399,-3.219 3.786,-6.016 l 17.449,-20.418 c 4.308,-5.05 7.156,-9.39 8.527,-13.035 1.379,-3.64 1.449,-7.707 0.223,-12.207 -1.235,-4.496 -4.371,-8.906 -9.422,-13.215 -5.496,-4.695 -10.484,-7.304 -14.953,-7.828 -4.477,-0.527 -8.684,0.313 -12.617,2.516 -2.672,1.523 -6.606,5.32 -11.782,11.387 l -16.808,19.675 c -2.645,3.09 -4.805,4.758 -6.481,4.996 -1.679,0.235 -3.472,-0.464 -5.375,-2.089 l -1.894,-1.618 -1.18,1.371 21.762,18.586 1.176,-1.371 -1.934,-1.652 c -2.082,-1.777 -3.004,-3.699 -2.773,-5.77 0.14,-1.421 1.414,-3.543 3.828,-6.363 l 18.746,-21.945 c 1.668,-1.957 3.758,-4.043 6.273,-6.258 2.52,-2.223 4.848,-3.633 6.992,-4.238 2.149,-0.61 4.496,-0.617 7.043,-0.02 2.555,0.598 5.118,1.992 7.692,4.196 3.293,2.812 5.625,6.043 7,9.699 1.371,3.652 1.582,7.008 0.617,10.066 -0.961,3.051 -3.727,7.25 -8.289,12.598 l -17.414,20.383 c -2.684,3.14 -4.711,4.816 -6.078,5.015 -1.899,0.266 -3.797,-0.418 -5.703,-2.047 l -1.895,-1.613" /><path
         id="path112"
         style="fill:#ed1639;fill-opacity:1;fill-rule:nonzero;stroke:none"
         d="m 347.867,932.066 c 0.535,0.313 1.004,0.579 1.406,0.793 0.399,0.215 0.727,0.399 0.981,0.547 5.449,3.188 8.871,6.77 10.258,10.746 1.386,3.981 1.015,7.797 -1.121,11.45 -2.086,3.57 -4.899,5.816 -8.438,6.742 -3.543,0.929 -7.152,0.32 -10.836,-1.836 -1.633,-0.949 -3.676,-2.508 -6.148,-4.668 z m 57.774,-5.648 -15.258,-8.922 -34.977,15.414 c -1.398,-0.89 -2.551,-1.605 -3.449,-2.129 -0.363,-0.215 -0.762,-0.437 -1.191,-0.668 -0.43,-0.234 -0.879,-0.468 -1.348,-0.703 l 9.715,-16.605 c 2.101,-3.598 3.801,-5.602 5.097,-6.016 1.79,-0.609 3.754,-0.293 5.891,0.957 l 2.234,1.309 0.911,-1.563 -24.493,-14.316 -0.914,1.558 2.157,1.254 c 2.418,1.414 3.679,3.211 3.8,5.395 0.079,1.215 -0.828,3.453 -2.738,6.715 l -21.586,36.922 c -2.105,3.601 -3.804,5.601 -5.097,6.011 -1.821,0.598 -3.813,0.266 -5.977,-1 l -2.148,-1.261 -0.915,1.562 20.829,12.176 c 6.066,3.547 10.796,5.722 14.199,6.523 3.394,0.793 6.797,0.594 10.191,-0.601 3.403,-1.203 6.059,-3.45 7.981,-6.735 2.054,-3.515 2.691,-7.23 1.914,-11.156 -0.781,-3.926 -3.262,-7.824 -7.442,-11.699 l 21.391,-9.496 c 4.898,-2.196 8.68,-3.336 11.34,-3.438 2.664,-0.105 5.652,0.586 8.969,2.074 l 0.914,-1.562" /><path
         id="path114"
         style="fill:#ed1639;fill-opacity:1;fill-rule:nonzero;stroke:none"
         d="m 423.355,1005.49 8.34,-21.33 -1.679,-0.656 c -2.149,3.879 -4.403,6.758 -6.758,8.625 -2.36,1.875 -5.121,3.016 -8.285,3.418 -3.164,0.406 -6.145,0.066 -8.934,-1.024 -3.152,-1.234 -5.379,-3.218 -6.687,-5.949 -1.309,-2.734 -1.485,-5.324 -0.524,-7.781 0.738,-1.879 2.055,-3.336 3.965,-4.371 2.77,-1.539 8.43,-2.82 16.973,-3.848 6.968,-0.84 11.832,-1.676 14.586,-2.5 2.753,-0.828 5.136,-2.144 7.148,-3.941 2.016,-1.801 3.504,-3.926 4.461,-6.379 1.828,-4.668 1.594,-9.402 -0.707,-14.199 -2.301,-4.797 -6.305,-8.313 -12,-10.543 -1.789,-0.699 -3.527,-1.223 -5.207,-1.563 -1,-0.215 -3.164,-0.426 -6.492,-0.625 -3.332,-0.207 -5.387,-0.461 -6.18,-0.765 -0.758,-0.301 -1.27,-0.758 -1.527,-1.387 -0.262,-0.625 -0.219,-1.695 0.129,-3.199 l -1.688,-0.66 -8.269,21.144 1.683,0.656 c 2.52,-4.113 4.871,-7.011 7.067,-8.691 2.195,-1.672 4.945,-2.703 8.261,-3.086 3.309,-0.379 6.606,0.07 9.875,1.348 3.797,1.488 6.395,3.66 7.809,6.519 1.418,2.856 1.594,5.656 0.523,8.379 -0.59,1.52 -1.605,2.887 -3.047,4.106 -1.441,1.222 -3.296,2.156 -5.578,2.8 -1.535,0.45 -5.519,1.117 -11.953,2.004 -6.43,0.895 -11.105,1.785 -14.019,2.672 -2.918,0.883 -5.368,2.164 -7.344,3.84 -1.984,1.668 -3.473,3.777 -4.469,6.32 -1.734,4.43 -1.527,8.906 0.613,13.434 2.145,4.527 5.84,7.812 11.086,9.863 3.278,1.285 7.059,1.836 11.356,1.664 1.992,-0.09 3.34,-0.004 4.039,0.265 0.785,0.31 1.34,0.8 1.656,1.47 0.317,0.66 0.348,1.77 0.094,3.31 l 1.683,0.66" /><path
         id="path116"
         style="fill:#ed1639;fill-opacity:1;fill-rule:nonzero;stroke:none"
         d="m 469.277,983.543 c 1.754,0.078 3.297,0.187 4.633,0.34 1.34,0.148 2.469,0.328 3.387,0.543 3.293,0.777 5.84,2.719 7.629,5.836 1.793,3.113 2.215,6.699 1.258,10.758 -0.657,2.78 -1.836,5.24 -3.543,7.37 -1.703,2.12 -3.739,3.52 -6.114,4.22 -2.367,0.7 -4.886,0.74 -7.547,0.1 -1.617,-0.37 -3.621,-1.16 -6.011,-2.36 z m 0.633,-2.711 4.422,-18.773 c 0.957,-4.055 1.992,-6.473 3.109,-7.243 1.536,-1.113 3.52,-1.382 5.957,-0.804 l 2.477,0.578 0.41,-1.758 -27.613,-6.496 -0.414,1.758 2.426,0.57 c 2.722,0.641 4.461,1.988 5.218,4.039 0.403,1.125 0.172,3.535 -0.699,7.211 l -9.797,41.636 c -0.953,4.05 -1.972,6.47 -3.062,7.25 -1.563,1.1 -3.567,1.37 -6.004,0.8 l -2.422,-0.58 -0.418,1.76 23.625,5.56 c 5.766,1.36 10.453,1.84 14.059,1.43 3.605,-0.41 6.882,-1.75 9.828,-4.03 2.941,-2.28 4.871,-5.36 5.781,-9.22 1.238,-5.266 0.512,-9.95 -2.184,-14.059 -2.691,-4.117 -7.207,-6.914 -13.546,-8.41 -1.551,-0.363 -3.254,-0.649 -5.118,-0.852 -1.859,-0.203 -3.867,-0.324 -6.035,-0.367" /><path
         id="path118"
         style="fill:#ed1639;fill-opacity:1;fill-rule:nonzero;stroke:none"
         d="m 529.285,994.609 c 0.617,0.051 1.153,0.079 1.61,0.098 0.453,0.016 0.828,0.035 1.121,0.059 6.3,0.464 10.945,2.175 13.941,5.136 2.996,2.968 4.34,6.558 4.027,10.778 -0.3,4.12 -1.839,7.38 -4.609,9.77 -2.773,2.39 -6.281,3.43 -10.535,3.12 -1.887,-0.14 -4.41,-0.64 -7.578,-1.49 z m 49.399,-30.48 -17.633,-1.301 -24.625,29.223 c -1.653,-0.184 -2.996,-0.317 -4.031,-0.391 -0.426,-0.031 -0.879,-0.058 -1.372,-0.078 -0.488,-0.019 -0.988,-0.031 -1.511,-0.035 l 1.41,-19.188 c 0.308,-4.156 0.953,-6.703 1.933,-7.64 1.344,-1.34 3.243,-1.918 5.715,-1.735 l 2.578,0.188 0.129,-1.805 -28.289,-2.078 -0.133,1.801 2.481,0.18 c 2.793,0.207 4.723,1.261 5.793,3.171 0.605,1.055 0.769,3.465 0.492,7.231 l -3.141,42.658 c -0.304,4.16 -0.953,6.7 -1.933,7.64 -1.371,1.34 -3.305,1.91 -5.805,1.73 l -2.484,-0.18 -0.133,1.8 24.059,1.77 c 7.011,0.52 12.214,0.39 15.621,-0.39 3.402,-0.77 6.367,-2.45 8.89,-5.02 2.52,-2.58 3.918,-5.76 4.203,-9.56 0.297,-4.06 -0.765,-7.68 -3.195,-10.86 -2.426,-3.182 -6.363,-5.596 -11.824,-7.237 l 15.027,-17.937 c 3.442,-4.121 6.328,-6.813 8.672,-8.078 2.348,-1.262 5.344,-1.957 8.969,-2.078 l 0.137,-1.801" /><path
         id="path120"
         style="fill:#ed1639;fill-opacity:1;fill-rule:nonzero;stroke:none"
         d="m 632.188,1023.32 0.183,1.79 23.313,-2.47 -0.196,-1.79 -2.48,0.26 c -2.586,0.27 -4.688,-0.6 -6.309,-2.62 -0.793,-0.94 -1.379,-3.22 -1.758,-6.89 l -2.832,-26.702 c -0.703,-6.601 -1.894,-11.656 -3.593,-15.16 -1.7,-3.5 -4.61,-6.351 -8.711,-8.554 -4.121,-2.2 -9.473,-2.95 -16.075,-2.246 -7.187,0.757 -12.519,2.582 -15.976,5.468 -3.457,2.887 -5.742,6.52 -6.848,10.891 -0.73,2.992 -0.672,8.449 0.168,16.379 l 2.727,25.734 c 0.418,4.05 0.144,6.76 -0.832,8.14 -0.989,1.38 -2.727,2.2 -5.215,2.47 l -2.481,0.26 0.196,1.8 28.457,-3.01 -0.196,-1.8 -2.519,0.27 c -2.727,0.29 -4.766,-0.37 -6.106,-1.96 -0.933,-1.08 -1.589,-3.47 -1.98,-7.15 l -3.047,-28.7 c -0.273,-2.558 -0.344,-5.511 -0.223,-8.867 0.125,-3.347 0.692,-6.011 1.727,-7.988 1.035,-1.977 2.656,-3.687 4.844,-5.125 2.187,-1.445 4.961,-2.344 8.32,-2.703 4.317,-0.453 8.262,0.074 11.856,1.594 3.601,1.519 6.171,3.675 7.734,6.472 1.562,2.801 2.707,7.692 3.445,14.684 l 2.824,26.663 c 0.43,4.11 0.254,6.73 -0.546,7.86 -1.114,1.56 -2.911,2.47 -5.403,2.73 l -2.468,0.27" /><path
         id="path122"
         style="fill:#ed1639;fill-opacity:1;fill-rule:nonzero;stroke:none"
         d="m 667.617,1020.47 17.219,-5.13 24.617,-59.141 10.899,36.598 c 1.164,3.898 1.445,6.461 0.859,7.683 -0.762,1.66 -2.383,2.86 -4.883,3.6 l -2.207,0.66 0.527,1.72 22.09,-6.569 -0.527,-1.731 -2.246,0.668 c -2.676,0.797 -4.824,0.555 -6.426,-0.73 -0.984,-0.797 -2.012,-2.973 -3.066,-6.528 l -15.926,-53.492 -1.692,0.504 -26.621,63.558 -11.629,-39.077 c -1.164,-3.895 -1.464,-6.461 -0.91,-7.676 0.801,-1.664 2.422,-2.86 4.883,-3.594 l 2.246,-0.668 -0.508,-1.734 -22.089,6.578 0.515,1.734 2.199,-0.656 c 2.715,-0.809 4.872,-0.57 6.485,0.719 0.976,0.789 2.004,2.968 3.066,6.523 l 13.137,44.131 c -1.203,2.7 -2.18,4.54 -2.922,5.51 -0.742,0.96 -1.953,2.02 -3.613,3.16 -0.821,0.55 -2.156,1.1 -4.004,1.65 l 0.527,1.73" /><path
         id="path124"
         style="fill:#ed1639;fill-opacity:1;fill-rule:nonzero;stroke:none"
         d="m 804.922,968.328 -7.988,-19.39 -1.524,0.777 c 0.84,5.422 0.637,9.93 -0.605,13.519 -1.778,5.188 -5.41,9.184 -10.918,11.996 -7.52,3.833 -14.746,3.774 -21.692,-0.164 -5.84,-3.347 -10.523,-8.484 -14.058,-15.41 -2.871,-5.625 -4.407,-11.316 -4.602,-17.062 -0.195,-5.746 0.918,-10.602 3.34,-14.559 2.422,-3.961 5.488,-6.887 9.199,-8.781 2.168,-1.109 4.414,-1.91 6.719,-2.391 2.312,-0.488 4.687,-0.675 7.117,-0.562 l 8.703,17.047 c 1.516,2.957 2.278,5.004 2.293,6.144 0.012,1.149 -0.32,2.199 -1.023,3.156 -0.703,0.961 -2.238,2.047 -4.61,3.262 l 0.84,1.649 22.832,-11.653 -0.84,-1.656 -1.093,0.555 c -2.254,1.16 -4.199,1.191 -5.801,0.117 -1.133,-0.774 -2.5,-2.746 -4.121,-5.906 l -9.207,-18.047 c -4.25,-0.094 -8.215,0.269 -11.887,1.082 -3.683,0.816 -7.512,2.242 -11.484,4.269 -11.387,5.817 -18.184,13.887 -20.364,24.215 -1.636,7.742 -0.632,15.195 3.032,22.356 2.644,5.191 6.433,9.527 11.355,13.007 5.84,4.141 12.117,6.422 18.836,6.829 5.609,0.316 11.359,-1.028 17.238,-4.028 2.149,-1.101 4.004,-2.265 5.586,-3.511 1.575,-1.247 3.672,-3.282 6.282,-6.114 1.316,-1.437 2.246,-2.297 2.793,-2.578 0.554,-0.285 1.152,-0.269 1.804,0.039 0.645,0.309 1.387,1.176 2.239,2.613 l 1.609,-0.82" /><path
         id="path126"
         style="fill:#ed1639;fill-opacity:1;fill-rule:nonzero;stroke:none"
         d="m 860.742,929.727 -13.574,-18.442 -1.465,1.074 c 2.141,3.887 3.367,7.325 3.692,10.317 0.332,3 -0.184,5.937 -1.536,8.836 -1.343,2.89 -3.23,5.222 -5.632,6.996 -2.735,2.012 -5.594,2.836 -8.606,2.484 -3.008,-0.351 -5.293,-1.59 -6.863,-3.715 -1.192,-1.625 -1.719,-3.519 -1.57,-5.687 0.171,-3.16 2.117,-8.629 5.808,-16.402 3.008,-6.344 4.902,-10.899 5.676,-13.668 0.769,-2.77 0.926,-5.489 0.484,-8.149 -0.437,-2.668 -1.453,-5.058 -3.015,-7.183 -2.969,-4.04 -7.09,-6.364 -12.383,-6.977 -5.281,-0.621 -10.391,0.887 -15.313,4.516 -1.55,1.136 -2.922,2.324 -4.101,3.566 -0.723,0.73 -2.051,2.445 -4.004,5.156 -1.953,2.703 -3.262,4.309 -3.945,4.813 -0.657,0.48 -1.321,0.664 -1.993,0.551 -0.664,-0.11 -1.543,-0.715 -2.636,-1.817 l -1.446,1.07 13.457,18.286 1.446,-1.067 c -2.129,-4.332 -3.321,-7.871 -3.567,-10.621 -0.242,-2.75 0.356,-5.625 1.809,-8.633 1.445,-3.004 3.574,-5.547 6.406,-7.633 3.281,-2.41 6.504,-3.453 9.68,-3.121 3.172,0.332 5.633,1.676 7.371,4.036 0.957,1.312 1.57,2.898 1.836,4.769 0.262,1.867 0.058,3.938 -0.606,6.211 -0.449,1.539 -2.011,5.266 -4.687,11.176 -2.676,5.914 -4.434,10.344 -5.235,13.281 -0.8,2.941 -1.035,5.695 -0.683,8.262 0.359,2.57 1.348,4.953 2.969,7.156 2.812,3.828 6.718,6.043 11.679,6.648 4.981,0.602 9.727,-0.765 14.258,-4.101 2.832,-2.086 5.332,-4.988 7.481,-8.715 0.976,-1.734 1.777,-2.828 2.382,-3.266 0.684,-0.504 1.387,-0.714 2.122,-0.625 0.73,0.086 1.675,0.653 2.847,1.692 l 1.457,-1.074" /><path
         id="path128"
         style="fill:#ed1639;fill-opacity:1;fill-rule:nonzero;stroke:none"
         d="m 869.121,880.695 c 0.684,-1.015 1.524,-2.113 2.539,-3.297 0.996,-1.175 2.149,-2.425 3.457,-3.75 3.34,-3.378 6.211,-5.562 8.633,-6.543 2.402,-0.98 4.805,-1.179 7.207,-0.593 2.402,0.578 4.492,1.75 6.27,3.515 2.753,2.723 4.003,6.164 3.73,10.336 -0.273,4.164 -2.539,8.403 -6.797,12.715 -2.285,2.313 -4.597,4.145 -6.933,5.496 z m -22.512,-22.238 c 2.024,-3.301 4.336,-6.262 6.926,-8.879 4.141,-4.191 8.242,-6.457 12.293,-6.789 4.067,-0.336 7.485,0.871 10.266,3.613 1.828,1.809 3.094,4.043 3.808,6.711 0.703,2.664 0.43,5.598 -0.82,8.809 -1.238,3.207 -3.496,6.465 -6.777,9.777 -1.407,1.438 -2.649,2.637 -3.7,3.614 -1.054,0.972 -1.945,1.714 -2.687,2.226 z m 38.618,2.184 c 2.527,-3.953 3.836,-7.496 3.906,-10.625 0.086,-4.352 -1.406,-8.047 -4.485,-11.09 -2.343,-2.313 -5.312,-3.781 -8.925,-4.418 -3.606,-0.633 -7.168,-0.145 -10.703,1.465 -3.536,1.613 -7.93,5.07 -13.165,10.371 l -21.96,22.23 1.277,1.27 1.758,-1.77 c 1.941,-1.969 3.965,-2.765 6.054,-2.383 1.348,0.266 3.329,1.704 5.977,4.309 l 30.43,30.059 c 2.91,2.886 4.422,5.039 4.519,6.464 0.129,1.911 -0.691,3.758 -2.449,5.54 l -1.746,1.773 1.277,1.269 20.117,-20.359 c 3.75,-3.797 6.485,-7.113 8.184,-9.953 2.598,-4.305 3.75,-8.41 3.437,-12.336 -0.312,-3.922 -1.855,-7.242 -4.609,-9.965 -2.363,-2.336 -5.176,-3.703 -8.469,-4.105 -3.281,-0.407 -6.757,0.343 -10.425,2.254" /><path
         id="path130"
         style="fill:#ed1639;fill-opacity:1;fill-rule:nonzero;stroke:none"
         d="m 938.691,840.996 -21.418,-15.039 8.364,-11.906 c 2.168,-3.094 4.09,-4.832 5.75,-5.215 2.187,-0.523 4.89,0.219 8.093,2.227 l 1.047,-1.477 -18.867,-13.242 -1.035,1.48 c 2.363,2.223 3.801,3.785 4.285,4.676 0.598,1.141 0.774,2.438 0.539,3.902 -0.234,1.469 -1.14,3.336 -2.734,5.602 l -8.36,11.91 -17.863,-12.547 c -2.39,-1.679 -3.777,-2.812 -4.148,-3.387 -0.371,-0.582 -0.528,-1.242 -0.449,-1.992 0.058,-0.746 0.625,-1.867 1.66,-3.359 l 6.465,-9.191 c 2.148,-3.067 3.925,-5.141 5.312,-6.223 1.406,-1.086 3.184,-1.832 5.332,-2.235 2.813,-0.488 6.484,-0.433 11.035,0.172 l 1.114,-1.597 -16.868,-4.864 -29.312,41.766 1.472,1.039 1.348,-1.918 c 0.899,-1.281 2.063,-2.277 3.477,-2.996 1.023,-0.551 2.07,-0.684 3.144,-0.391 1.055,0.293 2.91,1.364 5.547,3.219 l 35.215,24.711 c 3.437,2.414 5.312,4.25 5.625,5.504 0.391,1.703 -0.195,3.676 -1.77,5.918 l -1.343,1.914 1.472,1.039 29.317,-41.762 -11.446,-8.929 -1.093,1.558 c 2.461,2.559 3.984,4.555 4.57,5.981 0.586,1.426 0.691,3.004 0.32,4.73 -0.347,1.344 -1.472,3.364 -3.355,6.055 l -10.442,14.867" /><path
         id="path132"
         style="fill:#ed1639;fill-opacity:1;fill-rule:nonzero;stroke:none"
         d="m 995.293,748.918 -74.922,12.148 11.797,-24.453 c 1.809,-3.75 4.023,-6.234 6.621,-7.453 2.617,-1.215 6.809,-1.39 12.566,-0.527 l 0.442,-1.574 -17.149,-4.805 -23.425,48.547 1.629,0.789 72.902,-11.992 -9.211,19.086 c -1.523,3.168 -2.98,5.293 -4.355,6.382 -1.375,1.094 -2.891,1.692 -4.559,1.809 -1.672,0.125 -4.438,-0.375 -8.313,-1.484 l -0.8,1.672 15.5,5.96 21.277,-44.105" /><path
         id="path134"
         style="fill:#ed1639;fill-opacity:1;fill-rule:nonzero;stroke:none"
         d="m 1003.22,714.504 -25.095,-7.434 4.133,-13.949 c 1.07,-3.621 2.332,-5.879 3.789,-6.773 1.914,-1.2 4.715,-1.356 8.387,-0.469 l 0.507,-1.731 -22.089,-6.543 -0.516,1.731 c 2.957,1.348 4.812,2.375 5.555,3.074 0.925,0.883 1.511,2.055 1.757,3.52 0.247,1.465 -0.019,3.523 -0.808,6.175 l -4.133,13.958 -20.93,-6.2 c -2.8,-0.832 -4.48,-1.465 -5.007,-1.894 -0.547,-0.43 -0.899,-1.008 -1.075,-1.739 -0.175,-0.73 0,-1.972 0.528,-3.718 l 3.183,-10.766 c 1.055,-3.59 2.078,-6.125 3.067,-7.598 0.976,-1.476 2.422,-2.746 4.336,-3.808 2.5,-1.363 6.004,-2.481 10.507,-3.356 l 0.555,-1.871 -17.535,0.762 -14.484,48.926 1.726,0.512 0.664,-2.247 c 0.442,-1.496 1.223,-2.812 2.336,-3.937 0.801,-0.852 1.746,-1.309 2.852,-1.375 1.113,-0.063 3.203,0.363 6.3,1.281 l 41.239,12.211 c 4.035,1.192 6.386,2.336 7.091,3.418 0.92,1.496 0.98,3.555 0.21,6.176 l -0.661,2.246 1.721,0.516 14.49,-48.926 -13.69,-4.821 -0.55,1.825 c 3.15,1.648 5.23,3.047 6.24,4.215 1.01,1.168 1.61,2.628 1.81,4.378 0.1,1.387 -0.31,3.661 -1.25,6.813 l -5.16,17.418" /><path
         id="path136"
         style="fill:#ed1639;fill-opacity:1;fill-rule:nonzero;stroke:none"
         d="m 960.664,627.656 -1.777,-0.297 -4.668,27.985 1.777,0.297 0.391,-2.313 c 0.449,-2.695 1.562,-4.523 3.34,-5.48 1.152,-0.602 3.691,-0.571 7.609,0.082 l 42.184,7.047 c 3.31,0.55 5.46,1.125 6.45,1.718 0.75,0.453 1.32,1.231 1.74,2.321 0.53,1.543 0.67,3.086 0.42,4.625 l -0.4,2.312 1.79,0.297 4.68,-27.98 -1.79,-0.301 -0.4,2.359 c -0.44,2.668 -1.55,4.477 -3.32,5.434 -1.17,0.633 -3.71,0.621 -7.63,-0.032 l -42.181,-7.046 c -3.313,-0.551 -5.461,-1.125 -6.445,-1.719 -0.754,-0.453 -1.329,-1.246 -1.731,-2.367 -0.547,-1.512 -0.683,-3.039 -0.43,-4.578 l 0.391,-2.364" /><path
         id="path138"
         style="fill:#ed1639;fill-opacity:1;fill-rule:nonzero;stroke:none"
         d="m 1030.47,567.672 -22.44,-2.445 -0.06,1.511 c 6.65,2.297 11.38,5.379 14.18,9.239 2.81,3.863 4.1,8.414 3.89,13.648 -0.19,4.391 -1.47,8.316 -3.84,11.77 -2.38,3.449 -6.05,6.093 -11.01,7.921 -4.96,1.832 -11.07,2.594 -18.319,2.297 -5.984,-0.25 -11.133,-1.422 -15.449,-3.527 -4.309,-2.098 -7.559,-5.125 -9.734,-9.074 -2.18,-3.953 -3.176,-8.399 -2.969,-13.34 0.183,-4.297 1.258,-8.047 3.23,-11.258 1.973,-3.207 5.774,-6.668 11.399,-10.375 l -0.91,-1.551 c -6.028,3.071 -10.5,6.762 -13.418,11.075 -2.911,4.308 -4.493,9.503 -4.747,15.585 -0.449,10.961 3.262,19.618 11.145,25.969 5.867,4.742 12.891,7.281 21.082,7.625 6.602,0.274 12.73,-0.957 18.38,-3.687 5.66,-2.731 10.12,-6.625 13.37,-11.692 3.25,-5.062 5.01,-10.664 5.26,-16.808 0.2,-4.782 -0.78,-9.547 -2.93,-14.297 -0.65,-1.395 -0.97,-2.383 -0.95,-2.969 0.04,-0.879 0.39,-1.633 1.03,-2.258 0.91,-0.808 2.15,-1.355 3.73,-1.656 l 0.08,-1.703" /><path
         id="path140"
         style="fill:#ed1639;fill-opacity:1;fill-rule:nonzero;stroke:none"
         d="m 995.938,533.387 -3.958,-30.508 18.79,-2.434 c 3.36,-0.437 5.6,-0.515 6.71,-0.222 0.86,0.215 1.64,0.8 2.35,1.757 0.95,1.29 1.54,2.715 1.73,4.258 l 0.31,2.325 1.78,-0.235 -3.63,-28.086 -1.79,0.235 0.31,2.324 c 0.19,1.543 0.01,3.066 -0.55,4.551 -0.38,1.093 -1.08,1.902 -2.07,2.41 -1.01,0.508 -3.13,0.968 -6.35,1.386 l -42.375,5.481 c -3.328,0.43 -5.547,0.508 -6.668,0.223 -0.839,-0.215 -1.621,-0.789 -2.343,-1.707 -0.957,-1.329 -1.536,-2.754 -1.739,-4.317 l -0.293,-2.324 -1.797,0.234 3.633,28.086 1.797,-0.234 -0.305,-2.324 c -0.339,-2.676 0.2,-4.727 1.614,-6.164 0.937,-0.938 3.371,-1.668 7.304,-2.176 l 20,-2.578 3.946,30.507 -20,2.579 c -3.321,0.429 -5.547,0.507 -6.66,0.222 -0.848,-0.215 -1.641,-0.808 -2.344,-1.765 -0.957,-1.289 -1.543,-2.696 -1.738,-4.258 l -0.313,-2.363 -1.785,0.234 3.641,28.129 1.796,-0.235 -0.312,-2.324 c -0.344,-2.711 0.195,-4.781 1.621,-6.211 0.93,-0.91 3.359,-1.621 7.305,-2.129 l 42.365,-5.484 c 3.36,-0.437 5.6,-0.516 6.72,-0.223 0.85,0.215 1.63,0.782 2.34,1.707 0.96,1.325 1.53,2.758 1.74,4.309 l 0.29,2.324 1.8,-0.23 -3.64,-28.129 -1.79,0.222 0.3,2.375 c 0.21,1.543 0.02,3.067 -0.54,4.551 -0.39,1.074 -1.08,1.864 -2.09,2.383 -0.99,0.527 -3.1,0.996 -6.33,1.414 l -18.782,2.434" /><path
         id="path142"
         style="fill:#ed1639;fill-opacity:1;fill-rule:nonzero;stroke:none"
         d="m 1017.38,467 -5.59,-17.07 -59.798,-22.989 36.278,-11.894 c 3.871,-1.27 6.418,-1.633 7.668,-1.086 1.679,0.723 2.91,2.316 3.73,4.797 l 0.712,2.176 1.72,-0.555 -7.178,-21.906 -1.719,0.558 0.723,2.227 c 0.879,2.664 0.683,4.812 -0.547,6.453 -0.774,1.008 -2.918,2.082 -6.445,3.242 l -53.028,17.395 0.547,1.668 64.258,24.863 -38.731,12.707 c -3.867,1.269 -6.425,1.641 -7.656,1.121 -1.679,-0.75 -2.929,-2.352 -3.73,-4.793 l -0.723,-2.226 -1.719,0.566 7.176,21.894 1.723,-0.558 -0.715,-2.176 c -0.879,-2.695 -0.703,-4.863 0.535,-6.504 0.774,-1.008 2.922,-2.09 6.438,-3.242 l 43.761,-14.348 c 2.72,1.125 4.6,2.043 5.57,2.766 1,0.723 2.09,1.894 3.28,3.535 0.57,0.801 1.16,2.117 1.74,3.945 l 1.72,-0.566" /><path
         id="path144"
         style="fill:#ed1639;fill-opacity:1;fill-rule:nonzero;stroke:none"
         d="m 964.59,344.664 1.582,-0.879 -11.399,-20.476 -1.582,0.879 1.211,2.175 c 1.274,2.278 1.289,4.563 0.071,6.836 -0.547,1.086 -2.442,2.531 -5.645,4.317 l -23.469,13.058 c -5.808,3.242 -9.988,6.317 -12.546,9.258 -2.559,2.93 -4.043,6.719 -4.454,11.367 -0.41,4.637 0.996,9.864 4.231,15.664 3.515,6.309 7.273,10.496 11.289,12.547 4.012,2.051 8.238,2.727 12.703,2.043 3.035,-0.508 8.035,-2.695 15,-6.574 l 22.617,-12.586 c 3.555,-1.973 6.16,-2.793 7.813,-2.422 1.66,0.359 3.093,1.641 4.316,3.828 l 1.211,2.176 1.582,-0.879 -13.926,-25 -1.582,0.879 1.242,2.219 c 1.336,2.39 1.532,4.511 0.594,6.386 -0.636,1.27 -2.566,2.813 -5.808,4.629 l -25.215,14.024 c -2.246,1.258 -4.934,2.48 -8.071,3.691 -3.132,1.199 -5.808,1.707 -8.027,1.531 -2.215,-0.183 -4.422,-0.984 -6.609,-2.441 -2.188,-1.445 -4.102,-3.641 -5.742,-6.609 -2.11,-3.782 -3.164,-7.617 -3.184,-11.524 -0.02,-3.906 0.957,-7.129 2.93,-9.648 1.965,-2.531 6.015,-5.508 12.16,-8.926 l 23.426,-13.047 c 3.613,-2.004 6.093,-2.863 7.441,-2.578 1.875,0.41 3.418,1.719 4.629,3.906 l 1.211,2.176" /><path
         id="path146"
         style="fill:#ed1639;fill-opacity:1;fill-rule:nonzero;stroke:none"
         d="m 947.871,312.918 -11.543,-13.77 -64.062,0.84 29.277,-24.511 c 3.125,-2.61 5.359,-3.887 6.719,-3.84 1.828,0.051 3.574,1.066 5.246,3.058 l 1.472,1.766 1.387,-1.16 -14.804,-17.676 -1.387,1.172 1.504,1.797 c 1.804,2.136 2.429,4.199 1.883,6.191 -0.34,1.219 -1.922,3.016 -4.774,5.399 l -42.793,35.832 1.133,1.347 68.906,-0.761 -31.262,26.171 c -3.113,2.618 -5.347,3.907 -6.687,3.887 -1.836,-0.078 -3.582,-1.094 -5.234,-3.066 l -1.504,-1.797 -1.387,1.152 14.797,17.676 1.387,-1.164 -1.477,-1.758 c -1.816,-2.176 -2.461,-4.246 -1.914,-6.238 0.344,-1.211 1.934,-3.008 4.785,-5.391 l 35.293,-29.57 c 2.961,0.039 5.027,0.195 6.211,0.508 1.191,0.293 2.637,0.984 4.348,2.058 0.828,0.539 1.863,1.535 3.093,3.02 l 1.387,-1.172" /><path
         id="path148"
         style="fill:#ed1639;fill-opacity:1;fill-rule:nonzero;stroke:none"
         d="m 845.469,207.672 -14.61,15.051 1.329,1.074 c 4.636,-2.91 8.859,-4.531 12.636,-4.824 5.469,-0.43 10.586,1.316 15.352,5.254 6.512,5.351 9.336,12.011 8.484,19.961 -0.738,6.679 -3.582,13.027 -8.523,19.023 -4.024,4.883 -8.633,8.555 -13.828,11.016 -5.196,2.468 -10.086,3.378 -14.688,2.734 -4.59,-0.645 -8.496,-2.285 -11.711,-4.941 -1.883,-1.543 -3.504,-3.282 -4.871,-5.215 -1.367,-1.926 -2.48,-4.024 -3.351,-6.301 l 12.167,-14.774 c 2.122,-2.558 3.696,-4.082 4.739,-4.55 1.035,-0.469 2.136,-0.578 3.301,-0.313 1.152,0.254 2.753,1.231 4.824,2.93 l 1.172,-1.426 -19.786,-16.308 -1.171,1.433 0.937,0.774 c 1.965,1.621 2.774,3.378 2.422,5.281 -0.266,1.347 -1.523,3.39 -3.789,6.125 l -12.883,15.644 c 1.613,3.934 3.52,7.422 5.734,10.469 2.208,3.047 5.04,5.996 8.477,8.828 9.883,8.133 19.981,11.153 30.332,9.043 7.754,-1.582 14.18,-5.469 19.297,-11.68 3.711,-4.492 6.172,-9.699 7.41,-15.597 1.477,-7.012 1.067,-13.68 -1.238,-20 -1.934,-5.262 -5.457,-10.008 -10.567,-14.207 -1.855,-1.535 -3.671,-2.774 -5.429,-3.731 -1.778,-0.937 -4.473,-2.05 -8.117,-3.32 -1.844,-0.637 -2.997,-1.152 -3.473,-1.543 -0.481,-0.391 -0.715,-0.949 -0.688,-1.66 0.032,-0.723 0.532,-1.758 1.504,-3.098 l -1.394,-1.152" /><path
         id="path150"
         style="fill:#ed1639;fill-opacity:1;fill-rule:nonzero;stroke:none"
         d="m 777.891,192.262 c -2.989,-1.602 -6.106,-1.903 -9.336,-0.926 -3.242,0.977 -5.664,2.957 -7.266,5.937 -1.594,2.989 -1.902,6.102 -0.918,9.336 0.977,3.243 2.949,5.664 5.938,7.266 2.988,1.59 6.093,1.902 9.336,0.918 3.242,-0.977 5.664,-2.949 7.253,-5.938 1.606,-2.988 1.915,-6.093 0.95,-9.328 -0.957,-3.23 -2.95,-5.652 -5.957,-7.265" /></g></g></svg>