<?xml version="1.0" encoding="UTF-8" standalone="no"?>
<svg
   xmlns:dc="http://purl.org/dc/elements/1.1/"
   xmlns:cc="http://creativecommons.org/ns#"
   xmlns:rdf="http://www.w3.org/1999/02/22-rdf-syntax-ns#"
   xmlns:svg="http://www.w3.org/2000/svg"
   xmlns="http://www.w3.org/2000/svg"
   viewBox="0 0 152.98666 153.12"
   height="153.12"
   width="152.98666"
   xml:space="preserve"
   id="svg2"
   version="1.1"><metadata
     id="metadata8"><rdf:RDF><cc:Work
         rdf:about=""><dc:format>image/svg+xml</dc:format><dc:type
           rdf:resource="http://purl.org/dc/dcmitype/StillImage" /></cc:Work></rdf:RDF></metadata><defs
     id="defs6" /><g
     transform="matrix(1.3333333,0,0,-1.3333333,0,153.12)"
     id="g10"><g
       transform="scale(0.1)"
       id="g12"><path
         id="path14"
         style="fill:#254aa5;fill-opacity:1;fill-rule:nonzero;stroke:none"
         d="m 614.176,1086.85 49.336,54.44 30.293,-67.11 57.226,46.07 19.434,-71.02 63.75,36.54 8.086,-73.19 68.672,26.11 -3.438,-73.553 71.875,15.039 -14.883,-72.11 73.363,3.606 -26,-68.899 73.03,-7.929 -36.43,-63.965 70.88,-19.277 -45.98,-57.461 67,-30.145 -54.4,-49.562 61.45,-40.262 -61.49,-40.453 54.44,-49.375 -67.07,-30.313 46.03,-57.285 -70.96,-19.453 36.51,-63.789 -73.11,-8.078 26.08,-68.75 -73.479,3.457 15.019,-71.961 -72.031,14.91 3.574,-73.441 -68.828,26.007 -7.93,-73.0777 L 770.27,99.0391 751.012,28.0898 693.59,74.1211 663.473,7.05859 613.941,61.5117 573.727,0 533.316,61.5391 483.977,7.05859 453.684,74.1484 396.438,28.0898 l -19.434,71 -63.742,-36.5195 -8.098,73.1917 -68.66,-26.102 3.445,73.551 -71.902,-15.039 14.902,72.117 -73.371,-3.601 25.988,68.906 -73.0269,7.929 36.4257,63.946 -70.8789,19.297 45.9961,57.48 L 7.07031,484.363 61.4727,533.934 0,574.199 l 61.4727,40.43 -54.40239,49.375 67.05079,30.332 -46.0352,57.305 70.9649,19.453 -36.5117,63.789 73.1249,8.086 -26.086,68.73 73.481,-3.437 -15.024,71.965 72.043,-14.914 -3.574,73.427 68.828,-26.01 7.93,73.09 63.926,-36.46 19.257,70.94 57.434,-46.02 30.105,67.06 49.528,-54.43 40.234,61.49 40.43,-61.55" /><path
         id="path16"
         style="fill:#fddd1b;fill-opacity:1;fill-rule:nonzero;stroke:none"
         d="m 71.9336,574.199 c 0,277.364 224.6484,502.211 501.7934,502.211 277.128,0 501.773,-224.847 501.773,-502.211 C 1075.5,296.844 850.855,72.0117 573.727,72.0117 296.582,72.0117 71.9336,296.844 71.9336,574.199" /><path
         id="path18"
         style="fill:#fddd1b;fill-opacity:1;fill-rule:nonzero;stroke:none"
         d="m 71.9336,574.199 c 0,277.364 224.6484,502.211 501.7934,502.211 277.128,0 501.773,-224.847 501.773,-502.211 C 1075.5,296.844 850.855,72.0117 573.727,72.0117 296.582,72.0117 71.9336,296.844 71.9336,574.199" /><path
         id="path20"
         style="fill:#254aa5;fill-opacity:1;fill-rule:nonzero;stroke:none"
         d="m 231.902,574.445 c 0,188.797 152.934,341.864 341.59,341.864 188.653,0 341.563,-153.067 341.563,-341.864 0,-188.812 -152.91,-341.859 -341.563,-341.859 -188.656,0 -341.59,153.047 -341.59,341.859" /><path
         id="path22"
         style="fill:#254aa5;fill-opacity:1;fill-rule:nonzero;stroke:none"
         d="m 231.902,574.445 c 0,188.797 152.934,341.864 341.59,341.864 188.653,0 341.563,-153.067 341.563,-341.864 0,-188.812 -152.91,-341.859 -341.563,-341.859 -188.656,0 -341.59,153.047 -341.59,341.859" /><path
         id="path24"
         style="fill:#fddd1b;fill-opacity:1;fill-rule:nonzero;stroke:none"
         d="m 829.859,733.555 -10.488,30.293 -10.117,-30.313 -32.715,-0.008 26.524,-18.781 -10.176,-30.281 26.523,18.777 26.426,-18.777 -9.707,30.207 26.074,18.855 -32.344,0.028" /><path
         id="path26"
         style="fill:#fddd1b;fill-opacity:1;fill-rule:nonzero;stroke:none"
         d="M 724.742,833.02 714.234,863.301 704.117,833 l -32.734,-0.02 26.523,-18.781 -10.156,-30.273 26.523,18.769 26.426,-18.769 -9.726,30.187 26.093,18.867 -32.324,0.04" /><path
         id="path28"
         style="fill:#fddd1b;fill-opacity:1;fill-rule:nonzero;stroke:none"
         d="m 582.301,872.297 -10.508,30.293 -10.098,-30.324 h -32.734 l 26.523,-18.778 -10.156,-30.285 26.524,18.781 26.406,-18.781 -9.707,30.195 26.074,18.868 -32.324,0.031" /><path
         id="path30"
         style="fill:#fddd1b;fill-opacity:1;fill-rule:nonzero;stroke:none"
         d="m 441.57,833 -10.515,30.301 -10.11,-30.321 -32.722,-0.011 26.523,-18.77 -10.156,-30.293 26.523,18.782 26.414,-18.782 -9.714,30.207 26.082,18.856 L 441.57,833" /><path
         id="path32"
         style="fill:#fddd1b;fill-opacity:1;fill-rule:nonzero;stroke:none"
         d="m 336.438,733.555 -10.508,30.293 -10.11,-30.313 -32.722,-0.008 26.519,-18.781 -10.164,-30.281 26.524,18.777 26.418,-18.777 -9.707,30.207 26.074,18.855 -32.324,0.028" /><path
         id="path34"
         style="fill:#fddd1b;fill-opacity:1;fill-rule:nonzero;stroke:none"
         d="m 297.461,583.195 -10.508,30.301 -10.105,-30.312 -32.739,-0.02 26.536,-18.769 -10.165,-30.286 26.524,18.774 26.426,-18.774 -9.719,30.188 26.074,18.867 -32.324,0.031" /><path
         id="path36"
         style="fill:#fddd1b;fill-opacity:1;fill-rule:nonzero;stroke:none"
         d="m 342.219,446.082 -10.52,30.293 -10.105,-30.312 -32.727,-0.02 26.524,-18.77 -10.157,-30.293 26.512,18.79 26.43,-18.79 -9.719,30.196 26.086,18.867 -32.324,0.039" /><path
         id="path38"
         style="fill:#fddd1b;fill-opacity:1;fill-rule:nonzero;stroke:none"
         d="m 435.793,346.648 -10.512,30.274 -10.105,-30.305 h -32.727 l 26.528,-18.777 -10.168,-30.293 26.523,18.789 26.414,-18.789 -9.703,30.195 26.07,18.875 -32.32,0.031" /><path
         id="path40"
         style="fill:#fddd1b;fill-opacity:1;fill-rule:nonzero;stroke:none"
         d="m 582.301,295.379 -10.508,30.293 -10.117,-30.305 h -32.715 l 26.523,-18.777 -10.175,-30.293 26.523,18.769 26.426,-18.769 -9.707,30.215 26.074,18.855 -32.324,0.012" /><path
         id="path42"
         style="fill:#fddd1b;fill-opacity:1;fill-rule:nonzero;stroke:none"
         d="m 728.824,346.629 -10.508,30.293 -10.117,-30.305 -32.734,-0.027 26.543,-18.762 -10.176,-30.293 26.523,18.781 26.426,-18.781 -9.707,30.188 26.074,18.867 -32.324,0.039" /><path
         id="path44"
         style="fill:#fddd1b;fill-opacity:1;fill-rule:nonzero;stroke:none"
         d="m 822.418,446.082 -10.508,30.273 -10.117,-30.312 h -32.734 l 26.543,-18.77 -10.196,-30.293 26.543,18.79 26.426,-18.79 -9.707,30.196 26.074,18.867 -32.324,0.039" /><path
         id="path46"
         style="fill:#fddd1b;fill-opacity:1;fill-rule:nonzero;stroke:none"
         d="m 870.523,583.828 -10.507,30.305 -10.098,-30.324 -32.734,-0.02 26.543,-18.758 -10.196,-30.297 26.543,18.782 26.426,-18.782 -9.707,30.207 26.055,18.848 -32.325,0.039" /><path
         id="path48"
         style="fill:#fddd1b;fill-opacity:1;fill-rule:nonzero;stroke:none"
         d="m 691.188,393.445 c -59.375,62.325 -182.657,117.5 -328.891,139.61 l -0.688,3.73 c -1.558,8.86 -2.554,17.699 -3.015,26.469 151.441,-21.742 288.804,-79.106 356.207,-151.977 -7.403,-6.445 -15.293,-12.402 -23.613,-17.832" /><path
         id="path50"
         style="fill:#fddd1b;fill-opacity:1;fill-rule:nonzero;stroke:none"
         d="m 600.66,360.32 c -27.461,46.836 -111.207,92.715 -218.023,114.297 -5.34,10.274 -9.903,21.074 -13.582,32.344 122.582,-21.133 230.531,-74.668 261.644,-140.664 -6.386,-1.738 -12.91,-3.203 -19.57,-4.395 -3.496,-0.605 -6.973,-1.132 -10.469,-1.582" /><path
         id="path52"
         style="fill:#fddd1b;fill-opacity:1;fill-rule:nonzero;stroke:none"
         d="m 399.719,447.078 c 57.566,-15.43 106.429,-42.773 122.582,-82.265 -49.227,12.148 -92.758,41.425 -122.582,82.265" /><path
         id="path54"
         style="fill:#fddd1b;fill-opacity:1;fill-rule:nonzero;stroke:none"
         d="m 577.594,566.164 c 73.984,20.359 148.652,28.074 211.054,22.41 0.508,-7.519 0.625,-15 0.352,-22.39 -50.312,4.949 -111.016,0.808 -174.629,-13.645 10.879,-4.277 21.504,-8.711 31.895,-13.293 52.05,8.02 101.621,6.945 139.336,-4.101 -1.348,-7.344 -3.067,-14.59 -5.176,-21.7 -25.469,7.637 -58.77,10.528 -96.153,7.871 29.356,-14.863 56.153,-30.898 79.844,-47.929 -4.57,-8.633 -9.707,-16.934 -15.39,-24.864 -89.161,64.649 -230,117.727 -389.965,139.985 0.64,9.746 1.929,19.363 3.867,28.789 50.254,-7.043 99.246,-17.109 145.785,-29.766 92.012,32 187.637,48.446 271.563,48.836 2.148,-7.148 3.925,-14.48 5.351,-21.972 -72.207,0.332 -155.449,-11.797 -239.531,-37.774 10.762,-3.34 21.348,-6.836 31.797,-10.457" /><path
         id="path56"
         style="fill:#fddd1b;fill-opacity:1;fill-rule:nonzero;stroke:none"
         d="m 829.859,733.555 -10.488,30.293 -10.117,-30.313 -32.715,-0.008 26.524,-18.781 -10.176,-30.281 26.523,18.777 26.426,-18.777 -9.707,30.207 26.074,18.855 -32.344,0.028" /><path
         id="path58"
         style="fill:#fddd1b;fill-opacity:1;fill-rule:nonzero;stroke:none"
         d="M 724.742,833.02 714.234,863.301 704.117,833 l -32.734,-0.02 26.523,-18.781 -10.156,-30.273 26.523,18.769 26.426,-18.769 -9.726,30.187 26.093,18.867 -32.324,0.04" /><path
         id="path60"
         style="fill:#fddd1b;fill-opacity:1;fill-rule:nonzero;stroke:none"
         d="m 582.301,872.297 -10.508,30.293 -10.098,-30.324 h -32.734 l 26.523,-18.778 -10.156,-30.285 26.524,18.781 26.406,-18.781 -9.707,30.195 26.074,18.868 -32.324,0.031" /><path
         id="path62"
         style="fill:#fddd1b;fill-opacity:1;fill-rule:nonzero;stroke:none"
         d="m 441.57,833 -10.515,30.301 -10.11,-30.321 -32.722,-0.011 26.523,-18.77 -10.156,-30.293 26.523,18.782 26.414,-18.782 -9.714,30.207 26.082,18.856 L 441.57,833" /><path
         id="path64"
         style="fill:#fddd1b;fill-opacity:1;fill-rule:nonzero;stroke:none"
         d="m 336.438,733.555 -10.508,30.293 -10.11,-30.313 -32.722,-0.008 26.519,-18.781 -10.164,-30.281 26.524,18.777 26.418,-18.777 -9.707,30.207 26.074,18.855 -32.324,0.028" /><path
         id="path66"
         style="fill:#fddd1b;fill-opacity:1;fill-rule:nonzero;stroke:none"
         d="m 297.461,583.195 -10.508,30.301 -10.105,-30.312 -32.739,-0.02 26.536,-18.769 -10.165,-30.286 26.524,18.774 26.426,-18.774 -9.719,30.188 26.074,18.867 -32.324,0.031" /><path
         id="path68"
         style="fill:#fddd1b;fill-opacity:1;fill-rule:nonzero;stroke:none"
         d="m 342.219,446.082 -10.52,30.293 -10.105,-30.312 -32.727,-0.02 26.524,-18.77 -10.157,-30.293 26.512,18.79 26.43,-18.79 -9.719,30.196 26.086,18.867 -32.324,0.039" /><path
         id="path70"
         style="fill:#fddd1b;fill-opacity:1;fill-rule:nonzero;stroke:none"
         d="m 435.793,346.648 -10.512,30.274 -10.105,-30.305 h -32.727 l 26.528,-18.777 -10.168,-30.293 26.523,18.789 26.414,-18.789 -9.703,30.195 26.07,18.875 -32.32,0.031" /><path
         id="path72"
         style="fill:#fddd1b;fill-opacity:1;fill-rule:nonzero;stroke:none"
         d="m 582.301,295.379 -10.508,30.293 -10.117,-30.305 h -32.715 l 26.523,-18.777 -10.175,-30.293 26.523,18.769 26.426,-18.769 -9.707,30.215 26.074,18.855 -32.324,0.012" /><path
         id="path74"
         style="fill:#fddd1b;fill-opacity:1;fill-rule:nonzero;stroke:none"
         d="m 728.824,346.629 -10.508,30.293 -10.117,-30.305 -32.734,-0.027 26.543,-18.762 -10.176,-30.293 26.523,18.781 26.426,-18.781 -9.707,30.188 26.074,18.867 -32.324,0.039" /><path
         id="path76"
         style="fill:#fddd1b;fill-opacity:1;fill-rule:nonzero;stroke:none"
         d="m 822.418,446.082 -10.508,30.273 -10.117,-30.312 h -32.734 l 26.543,-18.77 -10.196,-30.293 26.543,18.79 26.426,-18.79 -9.707,30.196 26.074,18.867 -32.324,0.039" /><path
         id="path78"
         style="fill:#fddd1b;fill-opacity:1;fill-rule:nonzero;stroke:none"
         d="m 870.523,583.828 -10.507,30.305 -10.098,-30.324 -32.734,-0.02 26.543,-18.758 -10.196,-30.297 26.543,18.782 26.426,-18.782 -9.707,30.207 26.055,18.848 -32.325,0.039" /><path
         id="path80"
         style="fill:#fddd1b;fill-opacity:1;fill-rule:nonzero;stroke:none"
         d="m 691.188,393.445 c -59.375,62.325 -182.657,117.5 -328.891,139.61 l -0.688,3.73 c -1.558,8.86 -2.554,17.699 -3.015,26.469 151.441,-21.742 288.804,-79.106 356.207,-151.977 -7.403,-6.445 -15.293,-12.402 -23.613,-17.832" /><path
         id="path82"
         style="fill:#fddd1b;fill-opacity:1;fill-rule:nonzero;stroke:none"
         d="m 600.66,360.32 c -27.461,46.836 -111.207,92.715 -218.023,114.297 -5.34,10.274 -9.903,21.074 -13.582,32.344 122.582,-21.133 230.531,-74.668 261.644,-140.664 -6.386,-1.738 -12.91,-3.203 -19.57,-4.395 -3.496,-0.605 -6.973,-1.132 -10.469,-1.582" /><path
         id="path84"
         style="fill:#fddd1b;fill-opacity:1;fill-rule:nonzero;stroke:none"
         d="m 399.719,447.078 c 57.566,-15.43 106.429,-42.773 122.582,-82.265 -49.227,12.148 -92.758,41.425 -122.582,82.265" /><path
         id="path86"
         style="fill:#fddd1b;fill-opacity:1;fill-rule:nonzero;stroke:none"
         d="m 577.594,566.164 c 73.984,20.359 148.652,28.074 211.054,22.41 0.508,-7.519 0.625,-15 0.352,-22.39 -50.312,4.949 -111.016,0.808 -174.629,-13.645 10.879,-4.277 21.504,-8.711 31.895,-13.293 52.05,8.02 101.621,6.945 139.336,-4.101 -1.348,-7.344 -3.067,-14.59 -5.176,-21.7 -25.469,7.637 -58.77,10.528 -96.153,7.871 29.356,-14.863 56.153,-30.898 79.844,-47.929 -4.57,-8.633 -9.707,-16.934 -15.39,-24.864 -89.161,64.649 -230,117.727 -389.965,139.985 0.64,9.746 1.929,19.363 3.867,28.789 50.254,-7.043 99.246,-17.109 145.785,-29.766 92.012,32 187.637,48.446 271.563,48.836 2.148,-7.148 3.925,-14.48 5.351,-21.972 -72.207,0.332 -155.449,-11.797 -239.531,-37.774 10.762,-3.34 21.348,-6.836 31.797,-10.457" /><path
         id="path88"
         style="fill:#254aa5;fill-opacity:1;fill-rule:nonzero;stroke:none"
         d="m 316.621,226.805 c -2.719,2.011 -4.332,4.695 -4.828,8.047 -0.504,3.339 0.254,6.375 2.27,9.101 2.015,2.715 4.691,4.324 8.042,4.824 3.344,0.508 6.379,-0.254 9.102,-2.265 2.719,-2.024 4.328,-4.699 4.828,-8.047 0.496,-3.34 -0.258,-6.379 -2.269,-9.102 -2.02,-2.715 -4.696,-4.336 -8.024,-4.843 -3.336,-0.508 -6.379,0.253 -9.121,2.285" /><path
         id="path90"
         style="fill:#254aa5;fill-opacity:1;fill-rule:nonzero;stroke:none"
         d="m 218.402,288.953 14.325,15.313 1.152,-1.262 c -2.703,-4.774 -4.109,-9.07 -4.223,-12.859 -0.168,-5.481 1.824,-10.508 5.981,-15.09 5.664,-6.239 12.445,-8.739 20.34,-7.508 6.64,1.055 12.839,4.199 18.601,9.433 4.68,4.239 8.125,9.024 10.34,14.325 2.215,5.304 2.895,10.246 2.031,14.797 -0.863,4.57 -2.695,8.378 -5.496,11.464 -1.644,1.817 -3.457,3.36 -5.445,4.629 -1.988,1.27 -4.145,2.285 -6.457,3.035 l -14.168,-12.859 c -2.461,-2.226 -3.903,-3.887 -4.324,-4.941 -0.418,-1.067 -0.473,-2.168 -0.157,-3.313 0.313,-1.14 1.368,-2.703 3.161,-4.676 l -1.372,-1.25 -17.23,18.985 1.371,1.238 0.82,-0.906 c 1.707,-1.875 3.504,-2.598 5.395,-2.16 1.328,0.324 3.305,1.691 5.933,4.074 l 15.004,13.613 c 4.008,-1.406 7.594,-3.144 10.739,-5.215 3.148,-2.07 6.222,-4.746 9.222,-8.047 8.598,-9.472 12.09,-19.433 10.481,-29.863 -1.207,-7.812 -4.785,-14.433 -10.742,-19.844 -4.313,-3.906 -9.387,-6.621 -15.223,-8.144 -6.934,-1.809 -13.613,-1.719 -20.039,0.281 -5.356,1.692 -10.254,4.973 -14.695,9.875 -1.618,1.777 -2.946,3.535 -3.981,5.254 -1.035,1.719 -2.269,4.363 -3.711,7.938 -0.719,1.808 -1.289,2.941 -1.703,3.398 -0.418,0.461 -0.98,0.656 -1.699,0.598 -0.715,-0.051 -1.727,-0.606 -3.02,-1.641 l -1.211,1.328" /><path
         id="path92"
         style="fill:#254aa5;fill-opacity:1;fill-rule:nonzero;stroke:none"
         d="m 197.488,326.922 22.078,14.051 -7.812,12.277 c -2.027,3.184 -3.863,5.008 -5.504,5.469 -2.172,0.625 -4.902,0 -8.191,-1.856 l -0.973,1.524 19.441,12.371 0.973,-1.524 c -2.477,-2.117 -3.977,-3.601 -4.496,-4.48 -0.649,-1.113 -0.891,-2.402 -0.723,-3.867 0.168,-1.485 0.996,-3.391 2.481,-5.723 l 7.812,-12.277 18.41,11.718 c 2.477,1.575 3.911,2.649 4.305,3.204 0.395,0.558 0.574,1.222 0.539,1.964 -0.027,0.75 -0.535,1.895 -1.515,3.438 l -6.032,9.473 c -2.008,3.152 -3.687,5.312 -5.035,6.464 -1.348,1.141 -3.086,1.961 -5.219,2.461 -2.785,0.625 -6.461,0.723 -11.031,0.332 l -1.051,1.641 17.078,4.102 27.391,-43.047 -1.523,-0.977 -1.254,1.981 c -0.84,1.32 -1.953,2.363 -3.336,3.144 -0.996,0.598 -2.035,0.774 -3.117,0.539 -1.082,-0.254 -2.981,-1.23 -5.696,-2.969 l -36.293,-23.097 c -3.543,-2.254 -5.5,-3.992 -5.871,-5.242 -0.469,-1.68 0.035,-3.672 1.5,-5.989 l 1.262,-1.98 -1.523,-0.957 -27.399,43.035 11.84,8.41 1.019,-1.601 c -2.566,-2.454 -4.179,-4.375 -4.832,-5.782 -0.656,-1.386 -0.832,-2.968 -0.535,-4.707 0.289,-1.359 1.317,-3.418 3.078,-6.191 l 9.754,-15.332" /><path
         id="path94"
         style="fill:#254aa5;fill-opacity:1;fill-rule:nonzero;stroke:none"
         d="m 148.434,409.215 20.957,9.23 0.726,-1.66 c -3.785,-2.305 -6.562,-4.668 -8.34,-7.109 -1.773,-2.442 -2.793,-5.235 -3.066,-8.418 -0.273,-3.184 0.191,-6.133 1.394,-8.887 1.372,-3.098 3.442,-5.234 6.223,-6.426 2.789,-1.203 5.387,-1.269 7.797,-0.207 1.848,0.813 3.246,2.2 4.203,4.153 1.422,2.832 2.469,8.535 3.137,17.109 0.551,7 1.18,11.895 1.894,14.676 0.711,2.785 1.922,5.226 3.637,7.316 1.715,2.09 3.774,3.653 6.188,4.727 4.589,2.011 9.332,1.972 14.218,-0.129 4.887,-2.098 8.567,-5.945 11.032,-11.551 0.769,-1.758 1.367,-3.469 1.781,-5.137 0.254,-0.988 0.555,-3.144 0.894,-6.457 0.34,-3.32 0.684,-5.359 1.02,-6.14 0.328,-0.742 0.809,-1.231 1.449,-1.465 0.637,-0.235 1.699,-0.156 3.195,0.254 l 0.727,-1.66 -20.781,-9.141 -0.727,1.66 c 4.008,2.684 6.801,5.156 8.387,7.422 1.582,2.266 2.496,5.059 2.738,8.379 0.246,3.32 -0.34,6.601 -1.758,9.824 -1.636,3.711 -3.918,6.231 -6.836,7.52 -2.914,1.297 -5.714,1.347 -8.394,0.175 -1.492,-0.664 -2.816,-1.73 -3.977,-3.222 -1.156,-1.485 -2.011,-3.379 -2.562,-5.684 -0.383,-1.562 -0.887,-5.566 -1.512,-12.031 -0.617,-6.465 -1.316,-11.172 -2.078,-14.121 -0.766,-2.949 -1.937,-5.449 -3.531,-7.5 -1.586,-2.051 -3.633,-3.625 -6.133,-4.727 -4.352,-1.914 -8.832,-1.894 -13.441,0.059 -4.614,1.953 -8.051,5.508 -10.325,10.664 -1.414,3.223 -2.121,6.973 -2.132,11.277 0.011,2.004 -0.137,3.332 -0.434,4.024 -0.344,0.773 -0.852,1.301 -1.527,1.593 -0.68,0.293 -1.789,0.274 -3.317,-0.039 l -0.726,1.649" /><path
         id="path96"
         style="fill:#254aa5;fill-opacity:1;fill-rule:nonzero;stroke:none"
         d="m 125.367,486.863 21.414,7.09 0.383,-1.465 c -6.019,-3.644 -9.996,-7.648 -11.93,-12.011 -1.933,-4.368 -2.246,-9.082 -0.933,-14.161 1.097,-4.257 3.172,-7.812 6.219,-10.703 3.043,-2.871 7.183,-4.687 12.418,-5.429 5.242,-0.762 11.375,-0.227 18.402,1.589 5.801,1.497 10.586,3.723 14.359,6.692 3.774,2.949 6.317,6.59 7.621,10.918 1.305,4.316 1.336,8.867 0.102,13.66 -1.074,4.16 -2.91,7.609 -5.516,10.324 -2.597,2.723 -7.043,5.313 -13.32,7.754 l 0.566,1.719 c 6.532,-1.75 11.68,-4.414 15.434,-8.027 3.754,-3.594 6.391,-8.352 7.91,-14.239 2.742,-10.625 0.93,-19.863 -5.445,-27.734 -4.738,-5.86 -11.082,-9.824 -19.024,-11.875 -6.398,-1.641 -12.644,-1.731 -18.746,-0.246 -6.097,1.484 -11.273,4.367 -15.515,8.625 -4.243,4.277 -7.133,9.383 -8.672,15.34 -1.196,4.629 -1.246,9.492 -0.137,14.582 0.352,1.504 0.453,2.539 0.309,3.105 -0.219,0.859 -0.707,1.524 -1.477,1.992 -1.059,0.606 -2.391,0.879 -3.992,0.84 l -0.43,1.66" /><path
         id="path98"
         style="fill:#254aa5;fill-opacity:1;fill-rule:nonzero;stroke:none"
         d="m 152.184,528.355 -2.18,30.692 -18.899,-1.344 c -3.375,-0.242 -5.585,-0.613 -6.628,-1.109 -0.786,-0.383 -1.434,-1.114 -1.95,-2.192 -0.675,-1.457 -0.964,-2.961 -0.851,-4.519 l 0.164,-2.336 -1.801,-0.129 -2.008,28.246 1.805,0.129 0.164,-2.336 c 0.113,-1.562 0.59,-3.012 1.438,-4.355 0.593,-1 1.429,-1.649 2.511,-1.946 1.078,-0.301 3.246,-0.332 6.489,-0.105 l 42.621,3.027 c 3.343,0.235 5.539,0.606 6.582,1.106 0.785,0.379 1.437,1.093 1.953,2.144 0.676,1.485 0.961,3.008 0.847,4.563 l -0.168,2.339 1.805,0.129 2.008,-28.254 -1.805,-0.125 -0.164,2.336 c -0.191,2.696 -1.129,4.606 -2.808,5.723 -1.094,0.738 -3.621,0.969 -7.586,0.691 l -20.114,-1.433 2.176,-30.676 20.117,1.426 c 3.344,0.234 5.539,0.605 6.578,1.094 0.79,0.39 1.442,1.113 1.95,2.207 0.683,1.445 0.965,2.949 0.851,4.511 l -0.164,2.383 1.801,0.137 2.008,-28.301 -1.801,-0.137 -0.168,2.344 c -0.195,2.723 -1.129,4.649 -2.809,5.77 -1.089,0.703 -3.621,0.918 -7.582,0.636 l -42.617,-3.027 c -3.379,-0.234 -5.586,-0.605 -6.629,-1.105 -0.789,-0.379 -1.437,-1.102 -1.949,-2.149 -0.68,-1.484 -0.961,-2.996 -0.855,-4.558 l 0.168,-2.344 -1.801,-0.129 -2.008,28.301 1.801,0.129 0.168,-2.383 c 0.109,-1.563 0.59,-3.008 1.433,-4.356 0.59,-0.976 1.43,-1.613 2.516,-1.933 1.078,-0.313 3.246,-0.352 6.492,-0.117 l 18.899,1.335" /><path
         id="path100"
         style="fill:#254aa5;fill-opacity:1;fill-rule:nonzero;stroke:none"
         d="m 125.023,636.707 -1.796,0.188 2.496,23.308 1.797,-0.195 -0.262,-2.477 c -0.281,-2.59 0.594,-4.699 2.609,-6.32 0.934,-0.785 3.231,-1.375 6.887,-1.766 l 26.699,-2.863 c 6.606,-0.703 11.652,-1.906 15.156,-3.605 3.5,-1.707 6.352,-4.61 8.543,-8.727 2.196,-4.113 2.942,-9.473 2.235,-16.074 -0.774,-7.188 -2.602,-12.504 -5.492,-15.961 -2.887,-3.457 -6.524,-5.735 -10.899,-6.836 -2.992,-0.731 -8.449,-0.672 -16.379,0.18 l -25.734,2.754 c -4.047,0.433 -6.762,0.16 -8.145,-0.821 -1.383,-0.98 -2.203,-2.719 -2.468,-5.211 l -0.266,-2.476 -1.797,0.191 3.047,28.453 1.797,-0.195 -0.274,-2.524 c -0.289,-2.722 0.364,-4.753 1.95,-6.101 1.078,-0.938 3.464,-1.602 7.152,-1.996 l 28.695,-3.07 c 2.555,-0.274 5.512,-0.352 8.864,-0.235 3.351,0.113 6.015,0.688 7.996,1.719 1.976,1.035 3.683,2.641 5.129,4.828 1.445,2.188 2.347,4.961 2.71,8.332 0.457,4.301 -0.07,8.254 -1.582,11.856 -1.507,3.597 -3.668,6.175 -6.461,7.738 -2.796,1.558 -7.691,2.715 -14.679,3.461 l -26.656,2.855 c -4.114,0.442 -6.735,0.262 -7.868,-0.535 -1.558,-1.109 -2.468,-2.91 -2.738,-5.402 z m -18.972,1.195 c 0.156,1.453 0.804,2.637 1.953,3.543 1.141,0.91 2.445,1.289 3.898,1.133 1.457,-0.156 2.645,-0.801 3.551,-1.926 0.91,-1.129 1.289,-2.422 1.133,-3.879 -0.156,-1.453 -0.801,-2.652 -1.93,-3.574 -1.133,-0.926 -2.426,-1.312 -3.879,-1.156 -1.457,0.156 -2.648,0.805 -3.574,1.953 -0.926,1.149 -1.308,2.449 -1.152,3.906 z m -1.836,-17.14 c 0.16,1.492 0.812,2.687 1.957,3.593 1.148,0.911 2.445,1.29 3.902,1.133 1.453,-0.156 2.641,-0.808 3.547,-1.953 0.91,-1.144 1.285,-2.43 1.137,-3.851 -0.156,-1.454 -0.805,-2.653 -1.93,-3.575 -1.133,-0.925 -2.43,-1.312 -3.883,-1.156 -1.457,0.156 -2.644,0.801 -3.574,1.93 -0.93,1.133 -1.312,2.426 -1.156,3.879" /><path
         id="path102"
         style="fill:#254aa5;fill-opacity:1;fill-rule:nonzero;stroke:none"
         d="m 144.309,728.262 15.129,-3.543 -0.508,-1.781 c -2.723,0.398 -4.735,0.46 -6.035,0.187 -2.09,-0.453 -3.797,-1.359 -5.118,-2.727 -1.316,-1.367 -2.351,-3.371 -3.097,-5.996 l -2.555,-8.972 48.656,-13.84 c 3.91,-1.113 6.477,-1.387 7.688,-0.817 1.652,0.817 2.832,2.461 3.535,4.93 l 0.629,2.207 1.738,-0.492 -7.683,-27 -1.739,0.492 0.641,2.254 c 0.765,2.691 0.496,4.836 -0.809,6.422 -0.804,0.977 -2.996,1.969 -6.562,2.984 l -48.656,13.844 -2.18,-7.656 c -0.844,-2.977 -1.231,-5.153 -1.149,-6.531 0.133,-1.797 0.879,-3.516 2.243,-5.149 1.363,-1.64 3.453,-2.984 6.269,-4.019 l -0.508,-1.789 -14.722,5 14.793,51.992" /><path
         id="path104"
         style="fill:#254aa5;fill-opacity:1;fill-rule:nonzero;stroke:none"
         d="m 173.176,793.234 37.933,-65.754 11.496,24.598 c 1.766,3.774 2.293,7.059 1.583,9.852 -0.708,2.789 -3.215,6.144 -7.528,10.062 l 0.945,1.34 14.563,-10.254 -22.828,-48.832 -1.637,0.762 -36.773,64.082 -8.973,-19.199 c -1.488,-3.184 -2.223,-5.657 -2.195,-7.411 0.023,-1.757 0.515,-3.312 1.472,-4.679 0.961,-1.363 3.098,-3.199 6.407,-5.5 l -0.786,-1.68 -14.414,8.246 20.735,44.367" /><path
         id="path106"
         style="fill:#254aa5;fill-opacity:1;fill-rule:nonzero;stroke:none"
         d="m 212.695,853.688 13.235,-8.153 -1.047,-1.531 c -2.461,1.246 -4.348,1.945 -5.664,2.09 -2.129,0.234 -4.031,-0.09 -5.719,-0.969 -1.684,-0.879 -3.301,-2.449 -4.844,-4.707 l -5.258,-7.703 41.778,-28.524 c 3.363,-2.296 5.707,-3.363 7.035,-3.207 1.828,0.254 3.465,1.438 4.914,3.563 l 1.293,1.894 1.492,-1.019 -15.828,-23.184 -1.492,1.016 1.32,1.937 c 1.578,2.309 1.996,4.43 1.262,6.348 -0.453,1.184 -2.219,2.816 -5.277,4.906 l -41.782,28.528 -4.484,-6.575 c -1.75,-2.55 -2.801,-4.496 -3.156,-5.828 -0.446,-1.742 -0.278,-3.613 0.496,-5.597 0.769,-1.985 2.328,-3.918 4.676,-5.793 l -1.051,-1.535 -12.383,9.406 30.484,44.637" /><path
         id="path108"
         style="fill:#254aa5;fill-opacity:1;fill-rule:nonzero;stroke:none"
         d="m 238.266,877.355 18.98,-18.019 10.02,10.555 c 2.597,2.738 3.922,4.961 3.968,6.668 0.079,2.257 -1.179,4.757 -3.789,7.5 l 1.246,1.308 16.715,-15.867 -1.242,-1.309 c -2.648,1.887 -4.469,2.977 -5.437,3.274 -1.231,0.363 -2.539,0.281 -3.93,-0.238 -1.395,-0.524 -3.043,-1.782 -4.949,-3.789 l -10.012,-10.551 15.828,-15.032 c 2.125,-2.015 3.508,-3.148 4.145,-3.398 0.64,-0.246 1.32,-0.262 2.039,-0.047 0.718,0.215 1.707,0.981 2.961,2.305 l 7.73,8.144 c 2.578,2.715 4.262,4.864 5.051,6.45 0.785,1.586 1.164,3.476 1.133,5.66 -0.075,2.855 -0.864,6.449 -2.356,10.785 l 1.344,1.418 8.109,-15.574 -35.132,-37.004 -1.309,1.238 1.613,1.699 c 1.078,1.141 1.824,2.465 2.246,4 0.34,1.114 0.258,2.164 -0.242,3.153 -0.496,0.988 -1.91,2.593 -4.25,4.812 l -31.195,29.613 c -3.047,2.895 -5.215,4.371 -6.504,4.43 -1.754,0.043 -3.57,-0.926 -5.457,-2.906 l -1.61,-1.703 -1.308,1.242 35.125,37.008 11.019,-9.453 -1.304,-1.383 c -3,1.906 -5.254,3.004 -6.77,3.297 -1.519,0.293 -3.086,0.089 -4.703,-0.621 -1.25,-0.61 -3.008,-2.102 -5.269,-4.493 l -12.504,-13.172" /><path
         id="path110"
         style="fill:#254aa5;fill-opacity:1;fill-rule:nonzero;stroke:none"
         d="m 345.18,970.328 12.793,-16.609 -1.434,-0.93 c -4.277,3.434 -8.281,5.512 -12.012,6.242 -5.379,1.055 -10.66,-0.105 -15.851,-3.465 -7.074,-4.582 -10.645,-10.867 -10.703,-18.859 -0.028,-6.727 2.078,-13.355 6.304,-19.883 3.434,-5.304 7.594,-9.472 12.469,-12.515 4.887,-3.047 9.641,-4.512 14.277,-4.395 4.641,0.113 8.707,1.305 12.204,3.57 2.05,1.329 3.863,2.871 5.441,4.629 1.574,1.75 2.926,3.715 4.047,5.879 l -10.406,16.063 c -1.805,2.785 -3.2,4.472 -4.18,5.058 -0.981,0.586 -2.066,0.817 -3.242,0.696 -1.18,-0.129 -2.891,-0.914 -5.129,-2.364 l -1.008,1.555 21.516,13.938 1.004,-1.559 -1.02,-0.664 c -2.137,-1.383 -3.137,-3.035 -3.008,-4.969 0.106,-1.367 1.125,-3.535 3.055,-6.516 l 11.016,-17.007 c -2.04,-3.731 -4.34,-6.981 -6.883,-9.754 -2.551,-2.774 -5.696,-5.375 -9.434,-7.797 -10.738,-6.961 -21.125,-8.801 -31.156,-5.524 -7.527,2.457 -13.473,7.059 -17.848,13.809 -3.164,4.887 -5.023,10.336 -5.578,16.34 -0.664,7.133 0.504,13.707 3.512,19.723 2.527,5.015 6.566,9.316 12.113,12.91 2.024,1.308 3.965,2.336 5.832,3.082 1.863,0.742 4.676,1.535 8.438,2.379 1.898,0.418 3.109,0.797 3.629,1.132 0.519,0.332 0.808,0.86 0.867,1.579 0.058,0.714 -0.325,1.8 -1.145,3.246 l 1.52,0.98" /><path
         id="path112"
         style="fill:#254aa5;fill-opacity:1;fill-rule:nonzero;stroke:none"
         d="m 385.844,984.727 10.316,-24.051 13.375,5.738 c 3.473,1.488 5.567,3.008 6.281,4.555 0.965,2.047 0.793,4.84 -0.511,8.386 l 1.66,0.715 9.086,-21.183 -1.66,-0.711 c -1.692,2.781 -2.926,4.5 -3.703,5.16 -0.993,0.816 -2.227,1.262 -3.708,1.336 -1.484,0.066 -3.496,-0.442 -6.039,-1.531 l -13.375,-5.743 8.61,-20.054 c 1.16,-2.696 1.976,-4.281 2.469,-4.758 0.492,-0.484 1.105,-0.77 1.851,-0.856 0.75,-0.089 1.953,0.231 3.637,0.946 l 10.316,4.429 c 3.442,1.481 5.832,2.79 7.188,3.938 1.347,1.145 2.441,2.727 3.269,4.75 1.063,2.652 1.758,6.266 2.102,10.84 l 1.797,0.765 1.293,-17.507 -46.891,-20.118 -0.711,1.661 2.152,0.921 c 1.438,0.614 2.653,1.543 3.645,2.782 0.75,0.89 1.094,1.886 1.023,2.996 -0.07,1.101 -0.73,3.133 -2.007,6.097 l -16.961,39.532 c -1.657,3.855 -3.067,6.07 -4.231,6.636 -1.586,0.731 -3.64,0.559 -6.152,-0.519 l -2.152,-0.922 -0.711,1.66 46.886,20.123 6.395,-13.045 -1.75,-0.746 c -2,2.93 -3.645,4.828 -4.918,5.699 -1.277,0.868 -2.797,1.297 -4.567,1.286 -1.382,-0.067 -3.589,-0.75 -6.613,-2.043 l -16.691,-7.164" /><path
         id="path114"
         style="fill:#254aa5;fill-opacity:1;fill-rule:nonzero;stroke:none"
         d="m 467.285,1014.27 c -5.762,-1.37 -9.875,-4.61 -12.328,-9.72 -3.066,-6.359 -3.371,-14.667 -0.918,-24.925 2.52,-10.512 6.699,-18.062 12.555,-22.652 4.476,-3.481 9.551,-4.539 15.219,-3.188 6.042,1.449 10.476,5 13.289,10.664 2.812,5.66 3.003,13.571 0.574,23.731 -2.641,11.019 -6.774,18.71 -12.41,23.09 -4.512,3.47 -9.836,4.47 -15.981,3 z m 0.074,3.69 c 8.36,2 16.356,0.56 24.004,-4.33 7.645,-4.88 12.602,-12.07 14.875,-21.564 2.34,-9.781 1.2,-18.64 -3.429,-26.578 -4.625,-7.933 -11.325,-12.953 -20.094,-15.047 -8.867,-2.125 -17.067,-0.757 -24.606,4.102 -7.539,4.852 -12.504,12.285 -14.894,22.289 -2.453,10.227 -0.965,19.398 4.457,27.528 4.699,7.05 11.266,11.59 19.687,13.6" /><path
         id="path116"
         style="fill:#254aa5;fill-opacity:1;fill-rule:nonzero;stroke:none"
         d="m 576.188,1031.07 2.714,-20.79 -1.711,-0.08 c -1.98,5.12 -4.394,8.93 -7.25,11.43 -4.121,3.61 -9.265,5.27 -15.445,4.97 -8.422,-0.41 -14.66,-4.05 -18.73,-10.92 -3.403,-5.81 -4.914,-12.6 -4.539,-20.367 0.304,-6.309 1.8,-12.004 4.492,-17.09 2.687,-5.082 6.066,-8.739 10.136,-10.969 4.067,-2.234 8.184,-3.25 12.344,-3.047 2.442,0.117 4.785,0.539 7.031,1.27 2.247,0.726 4.395,1.742 6.45,3.05 l -0.922,19.118 c -0.16,3.312 -0.524,5.472 -1.074,6.472 -0.551,1 -1.371,1.742 -2.454,2.227 -1.082,0.488 -2.957,0.664 -5.625,0.539 l -0.085,1.847 25.605,1.243 0.086,-1.852 -1.219,-0.058 c -2.539,-0.125 -4.238,-1.055 -5.097,-2.793 -0.586,-1.231 -0.801,-3.622 -0.625,-7.168 l 0.976,-20.239 c -3.644,-2.199 -7.262,-3.851 -10.859,-4.972 -3.594,-1.121 -7.617,-1.786 -12.074,-2 -12.782,-0.621 -22.684,3.007 -29.708,10.879 -5.277,5.902 -8.109,12.871 -8.492,20.902 -0.285,5.82 0.844,11.468 3.383,16.938 3.008,6.5 7.324,11.59 12.949,15.28 4.707,3.07 10.364,4.76 16.957,5.08 2.411,0.12 4.606,0.03 6.594,-0.27 1.981,-0.29 4.813,-1.02 8.484,-2.18 1.856,-0.59 3.09,-0.87 3.711,-0.84 0.618,0.03 1.129,0.33 1.543,0.93 0.411,0.59 0.625,1.71 0.637,3.37 l 1.817,0.09" /><path
         id="path118"
         style="fill:#254aa5;fill-opacity:1;fill-rule:nonzero;stroke:none"
         d="m 615.191,994.758 c 0.614,-0.082 1.153,-0.16 1.602,-0.235 0.449,-0.078 0.82,-0.132 1.102,-0.171 6.261,-0.821 11.164,-0.082 14.699,2.211 3.535,2.296 5.574,5.537 6.121,9.737 0.539,4.1 -0.301,7.6 -2.527,10.5 -2.239,2.9 -5.469,4.63 -9.688,5.18 -1.875,0.25 -4.453,0.27 -7.734,0.08 z m 42.207,-39.86 -17.539,2.301 -18.195,33.602 c -1.648,0.152 -2.996,0.301 -4.031,0.429 -0.41,0.059 -0.871,0.125 -1.348,0.208 -0.488,0.078 -0.976,0.164 -1.496,0.269 l -2.5,-19.078 c -0.535,-4.133 -0.418,-6.754 0.344,-7.871 1.043,-1.582 2.793,-2.535 5.242,-2.856 l 2.57,-0.339 -0.234,-1.79 -28.125,3.692 0.234,1.785 2.461,-0.32 c 2.774,-0.364 4.883,0.277 6.309,1.925 0.82,0.915 1.465,3.243 1.953,6.989 l 5.566,42.406 c 0.536,4.13 0.418,6.76 -0.351,7.88 -1.074,1.58 -2.852,2.54 -5.332,2.86 l -2.473,0.33 0.235,1.79 23.917,-3.14 c 6.973,-0.91 12.04,-2.09 15.215,-3.54 3.184,-1.45 5.743,-3.69 7.696,-6.72 1.941,-3.03 2.675,-6.44 2.175,-10.21 -0.527,-4.04 -2.304,-7.363 -5.32,-9.992 -3.027,-2.621 -7.363,-4.188 -13.047,-4.692 l 11.082,-20.609 c 2.532,-4.73 4.817,-7.949 6.867,-9.664 2.032,-1.715 4.825,-2.996 8.36,-3.852 l -0.235,-1.793" /><path
         id="path120"
         style="fill:#254aa5;fill-opacity:1;fill-rule:nonzero;stroke:none"
         d="m 706.91,966.348 -2.617,28.898 -19.082,-22.023 z m 0.203,-3.856 -24.433,7.742 -7.442,-8.597 c -1.836,-2.117 -2.937,-3.785 -3.328,-4.989 -0.305,-0.968 -0.117,-1.953 0.567,-2.976 0.683,-1.02 2.519,-2.117 5.488,-3.301 l -0.547,-1.723 -19.863,6.305 0.535,1.719 c 2.785,-0.371 4.68,-0.309 5.695,0.195 2.059,0.985 4.766,3.457 8.145,7.406 l 38.672,44.907 1.621,-0.52 5.332,-59.469 c 0.429,-4.781 1.16,-8.027 2.207,-9.742 1.043,-1.715 2.832,-3.054 5.351,-4.027 l -0.547,-1.723 -24.902,7.895 0.547,1.722 c 2.559,-0.671 4.394,-0.789 5.496,-0.359 1.113,0.434 1.828,1.16 2.16,2.188 0.43,1.367 0.488,3.718 0.184,7.058 l -0.938,10.289" /><path
         id="path122"
         style="fill:#254aa5;fill-opacity:1;fill-rule:nonzero;stroke:none"
         d="M 771.988,979.328 760.238,956.105 771,950.66 c 2.473,-1.25 4.551,-1.621 6.25,-1.113 1.699,0.512 3.555,2.281 5.559,5.312 l 1.621,-0.812 -10.117,-19.996 -1.622,0.812 c 1.133,2.313 1.688,4.141 1.668,5.504 -0.027,1.363 -0.398,2.563 -1.132,3.61 -0.731,1.043 -2.079,2.066 -4.051,3.066 l -10.762,5.445 -9.394,-18.562 c -1.516,-2.992 -2.325,-5.063 -2.434,-6.211 -0.078,-0.871 0.227,-1.805 0.891,-2.801 0.918,-1.344 2.078,-2.367 3.476,-3.07 l 2.129,-1.082 -0.812,-1.61 -25.36,12.828 0.82,1.61 2.09,-1.059 c 2.442,-1.23 4.571,-1.418 6.395,-0.551 1.164,0.575 2.648,2.637 4.445,6.18 l 19.305,38.164 c 1.515,2.992 2.324,5.063 2.433,6.215 0.079,0.871 -0.207,1.797 -0.839,2.774 -0.899,1.328 -2.051,2.355 -3.477,3.078 l -2.09,1.054 0.809,1.618 43.957,-22.243 -5.996,-13.273 -1.524,0.773 c 0.645,3.141 0.782,5.61 0.438,7.41 -0.352,1.797 -1.113,3.36 -2.285,4.684 -1.172,1.324 -3.289,2.766 -6.375,4.32 l -13.028,6.594" /><path
         id="path124"
         style="fill:#254aa5;fill-opacity:1;fill-rule:nonzero;stroke:none"
         d="m 801.52,891.668 -0.997,-1.512 -23.722,15.563 0.988,1.515 1.973,-1.289 c 2.285,-1.5 4.375,-1.922 6.289,-1.265 1.219,0.437 2.929,2.324 5.097,5.644 l 23.477,35.762 c 1.836,2.801 2.871,4.769 3.105,5.898 0.176,0.86 0,1.813 -0.527,2.856 -0.762,1.437 -1.797,2.59 -3.105,3.441 l -1.965,1.285 0.988,1.516 23.731,-15.566 -0.997,-1.512 -2.003,1.316 c -2.254,1.485 -4.344,1.895 -6.25,1.239 -1.258,-0.426 -2.969,-2.293 -5.145,-5.614 l -23.469,-35.769 c -1.836,-2.801 -2.879,-4.77 -3.113,-5.899 -0.176,-0.855 0.02,-1.82 0.566,-2.879 0.743,-1.421 1.766,-2.558 3.067,-3.418 l 2.012,-1.312" /><path
         id="path126"
         style="fill:#254aa5;fill-opacity:1;fill-rule:nonzero;stroke:none"
         d="m 881.461,912.098 -14.641,-17.606 -1.394,1.16 c 2.363,3.75 3.797,7.114 4.297,10.082 0.507,2.969 0.175,5.938 -1.008,8.907 -1.172,2.964 -2.91,5.406 -5.203,7.32 -2.61,2.168 -5.43,3.164 -8.449,2.988 -3.016,-0.172 -5.379,-1.269 -7.059,-3.297 -1.289,-1.554 -1.934,-3.414 -1.914,-5.586 -0.02,-3.168 1.59,-8.742 4.824,-16.718 2.625,-6.508 4.246,-11.168 4.852,-13.981 0.597,-2.812 0.597,-5.531 0,-8.164 -0.594,-2.633 -1.746,-4.965 -3.426,-6.992 -3.215,-3.852 -7.473,-5.926 -12.785,-6.231 -5.313,-0.3 -10.321,1.504 -15.028,5.415 -1.464,1.23 -2.765,2.5 -3.879,3.804 -0.671,0.774 -1.902,2.571 -3.679,5.387 -1.789,2.816 -3.008,4.496 -3.653,5.039 -0.625,0.523 -1.281,0.742 -1.953,0.668 -0.675,-0.074 -1.593,-0.625 -2.746,-1.656 l -1.387,1.16 14.524,17.449 1.387,-1.152 c -2.383,-4.196 -3.789,-7.656 -4.2,-10.391 -0.41,-2.73 0.02,-5.633 1.289,-8.719 1.27,-3.086 3.243,-5.754 5.958,-8.004 3.125,-2.601 6.277,-3.832 9.472,-3.691 3.184,0.145 5.723,1.344 7.586,3.594 1.047,1.25 1.75,2.801 2.121,4.648 0.371,1.852 0.293,3.93 -0.234,6.235 -0.352,1.562 -1.699,5.375 -4.024,11.441 -2.324,6.059 -3.789,10.582 -4.433,13.563 -0.625,2.984 -0.684,5.742 -0.176,8.289 0.496,2.543 1.629,4.867 3.379,6.964 3.035,3.653 7.051,5.637 12.051,5.946 5,0.304 9.668,-1.34 14.004,-4.942 2.695,-2.246 5.007,-5.293 6.933,-9.14 0.879,-1.793 1.61,-2.926 2.188,-3.407 0.644,-0.539 1.347,-0.789 2.07,-0.746 0.742,0.043 1.719,0.551 2.949,1.52 l 1.387,-1.156" /><path
         id="path128"
         style="fill:#254aa5;fill-opacity:1;fill-rule:nonzero;stroke:none"
         d="m 936.859,853.039 -15.957,-15.941 -0.996,1.136 c 3.742,5.957 5.508,11.313 5.274,16.082 -0.223,4.766 -2.059,9.129 -5.516,13.075 -2.891,3.308 -6.34,5.57 -10.351,6.777 -4.016,1.203 -8.528,0.969 -13.547,-0.711 -5.008,-1.68 -10.262,-4.906 -15.731,-9.676 -4.512,-3.941 -7.785,-8.078 -9.836,-12.418 -2.039,-4.336 -2.683,-8.726 -1.914,-13.172 0.774,-4.449 2.785,-8.535 6.047,-12.261 2.82,-3.239 6.004,-5.492 9.551,-6.758 3.555,-1.27 8.68,-1.586 15.39,-0.957 l 0.254,-1.781 c -6.621,-1.375 -12.414,-1.297 -17.382,0.242 -4.973,1.539 -9.465,4.601 -13.457,9.183 -7.227,8.262 -9.747,17.34 -7.579,27.227 1.61,7.371 5.508,13.746 11.68,19.141 4.981,4.347 10.527,7.226 16.641,8.632 6.121,1.407 12.031,1.161 17.742,-0.75 5.715,-1.91 10.578,-5.179 14.629,-9.82 3.156,-3.601 5.363,-7.93 6.672,-12.976 0.351,-1.5 0.722,-2.473 1.113,-2.911 0.574,-0.664 1.309,-1.035 2.207,-1.125 1.211,-0.058 2.539,0.293 3.945,1.051 l 1.121,-1.289" /><path
         id="path130"
         style="fill:#254aa5;fill-opacity:1;fill-rule:nonzero;stroke:none"
         d="m 931.441,804.035 15.672,-26.476 16.301,9.656 c 2.91,1.723 4.727,3.039 5.43,3.953 0.547,0.695 0.801,1.637 0.769,2.832 -0.047,1.602 -0.457,3.078 -1.258,4.422 l -1.191,2.016 1.551,0.921 14.426,-24.371 -1.543,-0.922 -1.203,2.02 c -0.79,1.344 -1.875,2.43 -3.231,3.25 -0.976,0.633 -2.012,0.84 -3.117,0.625 -1.102,-0.223 -3.055,-1.16 -5.848,-2.813 l -36.777,-21.769 c -2.883,-1.707 -4.68,-3.016 -5.391,-3.926 -0.527,-0.699 -0.793,-1.625 -0.781,-2.793 0.059,-1.629 0.488,-3.121 1.277,-4.461 l 1.203,-2.019 -1.562,-0.922 -14.426,24.371 1.555,0.922 1.191,-2.016 c 1.375,-2.324 3.067,-3.613 5.078,-3.867 1.309,-0.172 3.672,0.758 7.09,2.781 L 944,775.719 928.336,802.195 910.98,791.922 c -2.878,-1.711 -4.675,-3.02 -5.39,-3.934 -0.535,-0.691 -0.789,-1.64 -0.762,-2.832 0.039,-1.601 0.461,-3.074 1.262,-4.422 l 1.211,-2.054 -1.555,-0.926 -14.453,24.418 1.555,0.914 1.191,-2.016 c 1.395,-2.351 3.094,-3.652 5.098,-3.906 1.289,-0.141 3.652,0.801 7.07,2.824 l 36.758,21.762 c 2.918,1.727 4.726,3.047 5.437,3.953 0.539,0.695 0.793,1.629 0.793,2.793 -0.058,1.633 -0.488,3.121 -1.289,4.465 l -1.191,2.016 1.562,0.918 14.453,-24.411 -1.562,-0.921 -1.211,2.062 c -0.801,1.34 -1.875,2.426 -3.242,3.25 -0.957,0.602 -1.992,0.801 -3.106,0.602 -1.105,-0.207 -3.066,-1.133 -5.859,-2.793 l -16.309,-9.649" /><path
         id="path132"
         style="fill:#254aa5;fill-opacity:1;fill-rule:nonzero;stroke:none"
         d="m 992.809,743.422 -24.524,-9.156 5.09,-13.633 c 1.328,-3.535 2.734,-5.703 4.246,-6.496 2.004,-1.059 4.797,-1.02 8.41,0.117 l 0.625,-1.695 -21.593,-8.059 -0.633,1.691 c 2.871,1.555 4.648,2.707 5.332,3.45 0.859,0.945 1.367,2.164 1.511,3.636 0.149,1.481 -0.261,3.516 -1.238,6.11 l -5.09,13.629 -20.449,-7.633 c -2.742,-1.028 -4.363,-1.774 -4.871,-2.238 -0.508,-0.461 -0.82,-1.067 -0.937,-1.809 -0.118,-0.742 0.136,-1.965 0.769,-3.672 l 3.938,-10.523 c 1.308,-3.508 2.5,-5.961 3.574,-7.364 1.082,-1.406 2.617,-2.574 4.59,-3.5 2.597,-1.183 6.171,-2.058 10.722,-2.613 l 0.684,-1.832 -17.551,-0.453 -17.84,47.801 1.688,0.633 0.812,-2.2 c 0.547,-1.465 1.426,-2.718 2.617,-3.769 0.848,-0.789 1.825,-1.18 2.93,-1.168 1.113,0.012 3.172,0.582 6.192,1.711 l 40.3,15.047 c 3.938,1.472 6.211,2.769 6.828,3.902 0.809,1.559 0.743,3.613 -0.214,6.176 l -0.821,2.195 1.688,0.633 17.856,-47.801 -13.333,-5.762 -0.664,1.786 c 3.027,1.855 5,3.402 5.926,4.64 0.931,1.231 1.441,2.727 1.491,4.492 0.01,1.391 -0.56,3.625 -1.714,6.707 l -6.347,17.02" /><path
         id="path134"
         style="fill:#254aa5;fill-opacity:1;fill-rule:nonzero;stroke:none"
         d="m 985.035,624.289 25.005,14.707 -28.052,7.848 z m -3.398,-1.836 -3.438,25.406 -10.949,3.055 c -2.695,0.754 -4.676,1.047 -5.926,0.879 -1.008,-0.137 -1.816,-0.73 -2.453,-1.785 -0.633,-1.051 -0.848,-3.176 -0.644,-6.367 l -1.786,-0.243 -2.793,20.661 1.797,0.246 c 0.86,-2.676 1.719,-4.367 2.598,-5.071 1.777,-1.433 5.164,-2.836 10.176,-4.199 l 57.121,-15.805 0.22,-1.695 -51.501,-30.195 c -4.141,-2.426 -6.758,-4.481 -7.871,-6.156 -1.094,-1.676 -1.555,-3.864 -1.348,-6.563 l -1.797,-0.246 -3.488,25.891 1.789,0.242 c 0.488,-2.598 1.152,-4.301 2.019,-5.121 0.871,-0.821 1.828,-1.157 2.903,-1.016 1.414,0.192 3.574,1.137 6.464,2.844 l 8.907,5.238" /><path
         id="path136"
         style="fill:#254aa5;fill-opacity:1;fill-rule:nonzero;stroke:none"
         d="m 1029.35,591.602 -0.75,-17.954 -51.319,-38.347 38.139,-1.602 c 4.07,-0.176 6.63,0.176 7.68,1.035 1.41,1.153 2.18,3.028 2.29,5.625 l 0.09,2.293 1.81,-0.078 -0.97,-23.027 -1.81,0.078 0.09,2.344 c 0.13,2.793 -0.64,4.816 -2.28,6.054 -1.01,0.762 -3.36,1.223 -7.07,1.379 l -55.762,2.344 0.078,1.758 55.104,41.371 -40.729,1.719 c -4.062,0.172 -6.621,-0.16 -7.668,-0.996 -1.414,-1.176 -2.175,-3.051 -2.293,-5.621 l -0.097,-2.344 -1.797,0.078 0.965,23.023 1.808,-0.074 -0.097,-2.293 c -0.117,-2.828 0.644,-4.863 2.285,-6.109 1.004,-0.758 3.359,-1.215 7.07,-1.371 l 46.003,-1.942 c 2.34,1.825 3.87,3.219 4.62,4.176 0.76,0.969 1.49,2.395 2.19,4.281 0.33,0.934 0.55,2.36 0.62,4.278 l 1.8,-0.078" /><path
         id="path138"
         style="fill:#254aa5;fill-opacity:1;fill-rule:nonzero;stroke:none"
         d="m 1012.46,445.828 -20.757,3.008 0.383,1.668 c 5.469,0.519 9.784,1.809 12.964,3.887 4.59,2.988 7.58,7.5 8.97,13.527 1.87,8.223 0.06,15.215 -5.47,20.996 -4.67,4.844 -10.78,8.125 -18.37,9.863 -6.16,1.414 -12.039,1.512 -17.664,0.293 -5.625,-1.211 -10.059,-3.476 -13.301,-6.789 -3.254,-3.308 -5.344,-7 -6.27,-11.062 -0.547,-2.383 -0.781,-4.746 -0.683,-7.11 0.097,-2.355 0.488,-4.707 1.191,-7.031 l 18.652,-4.277 c 3.243,-0.742 5.411,-0.977 6.524,-0.723 1.113,0.262 2.051,0.848 2.812,1.758 0.762,0.918 1.446,2.676 2.032,5.273 l 1.816,-0.41 -5.734,-24.992 -1.805,0.422 0.273,1.18 c 0.567,2.472 0.125,4.367 -1.308,5.664 -1.035,0.91 -3.274,1.75 -6.738,2.55 l -19.747,4.52 c -1.132,4.102 -1.75,8.039 -1.855,11.797 -0.098,3.762 0.352,7.824 1.348,12.168 2.851,12.472 9.023,21.027 18.496,25.664 7.109,3.488 14.59,4.328 22.422,2.531 5.683,-1.308 10.809,-3.926 15.389,-7.844 5.45,-4.656 9.18,-10.183 11.22,-16.601 1.68,-5.36 1.78,-11.258 0.3,-17.703 -0.54,-2.344 -1.22,-4.434 -2.04,-6.27 -0.82,-1.828 -2.28,-4.355 -4.39,-7.578 -1.08,-1.621 -1.68,-2.734 -1.82,-3.34 -0.14,-0.605 0.02,-1.191 0.48,-1.738 0.45,-0.559 1.48,-1.074 3.08,-1.535 l -0.4,-1.766" /><path
         id="path140"
         style="fill:#254aa5;fill-opacity:1;fill-rule:nonzero;stroke:none"
         d="m 949.691,399.352 29.016,-0.528 -19.824,21.34 z m -3.855,0.207 10.352,23.457 -7.754,8.32 c -1.907,2.059 -3.438,3.34 -4.59,3.848 -0.938,0.41 -1.934,0.332 -3.028,-0.235 -1.086,-0.578 -2.382,-2.265 -3.867,-5.097 l -1.66,0.722 8.418,19.082 1.66,-0.734 c -0.676,-2.723 -0.82,-4.617 -0.429,-5.684 0.761,-2.148 2.917,-5.105 6.484,-8.894 l 40.449,-43.301 -0.683,-1.563 -59.708,1.153 c -4.796,0.086 -8.105,-0.293 -9.921,-1.153 -1.817,-0.851 -3.34,-2.48 -4.59,-4.882 l -1.641,0.722 10.547,23.907 1.641,-0.723 c -0.938,-2.473 -1.25,-4.277 -0.95,-5.43 0.313,-1.152 0.957,-1.945 1.946,-2.383 1.308,-0.566 3.64,-0.89 6.992,-0.949 l 10.332,-0.183" /><path
         id="path142"
         style="fill:#254aa5;fill-opacity:1;fill-rule:nonzero;stroke:none"
         d="m 932.895,346.531 c -0.868,-0.871 -1.786,-1.914 -2.743,-3.125 -0.976,-1.211 -1.972,-2.578 -3.027,-4.113 -2.676,-3.914 -4.277,-7.156 -4.785,-9.715 -0.5,-2.558 -0.235,-4.953 0.801,-7.187 1.023,-2.246 2.578,-4.082 4.648,-5.489 3.191,-2.187 6.816,-2.754 10.859,-1.679 4.032,1.054 7.754,4.082 11.172,9.082 1.836,2.695 3.203,5.312 4.082,7.871 z m -26.122,17.852 c -2.851,-2.617 -5.312,-5.449 -7.402,-8.488 -3.32,-4.864 -4.758,-9.325 -4.316,-13.368 0.449,-4.054 2.285,-7.179 5.508,-9.386 2.128,-1.453 4.558,-2.274 7.312,-2.45 2.746,-0.195 5.578,0.633 8.488,2.469 2.91,1.836 5.684,4.68 8.309,8.516 1.144,1.672 2.082,3.117 2.844,4.328 0.75,1.23 1.308,2.246 1.679,3.066 z m 9.512,-37.492 c -3.398,-3.231 -6.621,-5.184 -9.687,-5.86 -4.258,-0.918 -8.164,-0.144 -11.739,2.297 -2.714,1.856 -4.726,4.492 -6.035,7.91 -1.308,3.418 -1.523,7.012 -0.605,10.789 0.898,3.782 3.457,8.743 7.656,14.895 l 17.637,25.801 1.504,-1.016 -1.407,-2.062 c -1.562,-2.274 -1.964,-4.422 -1.191,-6.395 0.516,-1.27 2.305,-2.949 5.371,-5.039 l 35.313,-24.141 c 3.386,-2.316 5.789,-3.379 7.207,-3.203 1.894,0.235 3.554,1.387 4.968,3.457 l 1.407,2.051 1.496,-1.016 -16.153,-23.625 c -3.007,-4.402 -5.742,-7.722 -8.214,-9.929 -3.719,-3.379 -7.54,-5.285 -11.446,-5.723 -3.914,-0.449 -7.469,0.43 -10.664,2.617 -2.742,1.875 -4.617,4.375 -5.652,7.52 -1.016,3.144 -0.938,6.707 0.234,10.672" /><path
         id="path144"
         style="fill:#254aa5;fill-opacity:1;fill-rule:nonzero;stroke:none"
         d="m 907.262,270.719 -18.879,18.125 -10.078,-10.496 c -2.617,-2.715 -3.953,-4.942 -4.012,-6.641 -0.09,-2.258 1.152,-4.766 3.75,-7.519 l -1.25,-1.309 -16.621,15.965 1.25,1.301 c 2.637,-1.895 4.441,-3.008 5.41,-3.301 1.231,-0.371 2.539,-0.293 3.934,0.215 1.398,0.507 3.058,1.757 4.972,3.757 l 10.078,10.5 -15.742,15.118 c -2.121,2.031 -3.496,3.164 -4.133,3.418 -0.632,0.253 -1.316,0.273 -2.039,0.058 -0.722,-0.207 -1.718,-0.969 -2.968,-2.285 l -7.786,-8.105 c -2.585,-2.696 -4.285,-4.836 -5.085,-6.418 -0.801,-1.582 -1.184,-3.465 -1.165,-5.653 0.059,-2.851 0.832,-6.445 2.297,-10.801 l -1.347,-1.406 -8.028,15.625 35.34,36.797 1.301,-1.25 -1.621,-1.68 c -1.074,-1.132 -1.836,-2.461 -2.266,-3.984 -0.351,-1.113 -0.273,-2.168 0.215,-3.164 0.496,-0.988 1.902,-2.598 4.227,-4.836 l 31.027,-29.793 c 3.035,-2.91 5.195,-4.394 6.484,-4.453 1.758,-0.059 3.575,0.898 5.469,2.871 l 1.621,1.688 1.309,-1.258 -35.352,-36.797 -10.957,9.512 1.309,1.375 c 2.988,-1.922 5.242,-3.036 6.758,-3.329 1.511,-0.312 3.086,-0.109 4.707,0.586 1.25,0.606 3.007,2.09 5.293,4.461 l 12.578,13.106" /><path
         id="path146"
         style="fill:#254aa5;fill-opacity:1;fill-rule:nonzero;stroke:none"
         d="m 826.363,222.379 c -2.754,-1.961 -5.8,-2.676 -9.14,-2.117 -3.34,0.554 -5.996,2.207 -7.969,4.961 -1.965,2.754 -2.668,5.8 -2.109,9.14 0.554,3.34 2.207,5.996 4.96,7.969 2.754,1.961 5.801,2.664 9.141,2.109 3.34,-0.558 5.996,-2.207 7.957,-4.961 1.965,-2.753 2.688,-5.8 2.141,-9.121 -0.547,-3.339 -2.207,-5.996 -4.981,-7.98" /></g></g></svg>