<?xml version="1.0" encoding="UTF-8" standalone="no"?>
<svg
   xmlns:dc="http://purl.org/dc/elements/1.1/"
   xmlns:cc="http://creativecommons.org/ns#"
   xmlns:rdf="http://www.w3.org/1999/02/22-rdf-syntax-ns#"
   xmlns:svg="http://www.w3.org/2000/svg"
   xmlns="http://www.w3.org/2000/svg"
   viewBox="0 0 152.98666 153.12"
   height="153.12"
   width="152.98666"
   xml:space="preserve"
   id="svg2"
   version="1.1"><metadata
     id="metadata8"><rdf:RDF><cc:Work
         rdf:about=""><dc:format>image/svg+xml</dc:format><dc:type
           rdf:resource="http://purl.org/dc/dcmitype/StillImage" /></cc:Work></rdf:RDF></metadata><defs
     id="defs6" /><g
     transform="matrix(1.3333333,0,0,-1.3333333,0,153.12)"
     id="g10"><g
       transform="scale(0.1)"
       id="g12"><path
         id="path14"
         style="fill:#fddd1b;fill-opacity:1;fill-rule:nonzero;stroke:none"
         d="m 614.172,1086.84 49.344,54.45 30.293,-67.11 57.226,46.07 19.434,-71.03 63.742,36.54 8.086,-73.18 68.68,26.11 -3.45,-73.553 71.887,15.039 -14.883,-72.11 73.359,3.594 -26,-68.887 73.03,-7.929 -36.42,-63.965 70.88,-19.277 -45.98,-57.465 66.99,-30.157 -54.39,-49.539 61.44,-40.273 -61.48,-40.449 54.43,-49.375 -67.07,-30.313 46.04,-57.285 -70.96,-19.453 36.5,-63.789 -73.1,-8.078 26.07,-68.75 -73.475,3.457 15.007,-71.961 -72.031,14.91 3.586,-73.441 -68.828,26.007 -7.93,-73.0777 L 770.273,99.0391 751.016,28.0898 693.586,74.1211 663.477,7.05859 613.945,61.5117 573.73,0 533.313,61.5391 483.977,7.05859 453.684,74.1484 396.438,28.0898 l -19.434,71 -63.742,-36.5195 -8.098,73.1917 -68.66,-26.102 3.445,73.551 -71.902,-15.039 14.902,72.117 -73.371,-3.601 25.988,68.906 -73.0269,7.929 36.4257,63.946 -70.8789,19.297 45.9961,57.48 L 7.07031,484.363 61.4727,533.934 0,574.207 61.4727,614.637 7.07031,664 l 67.05079,30.332 -46.0352,57.309 70.9649,19.453 -36.5117,63.789 73.1249,8.086 -26.086,68.73 73.481,-3.437 -15.024,71.953 72.043,-14.902 -3.574,73.417 68.828,-26.02 7.93,73.11 63.926,-36.46 19.257,70.93 57.434,-46.01 30.105,67.05 49.532,-54.42 40.222,61.49 40.434,-61.56" /><path
         id="path16"
         style="fill:#fddd1b;fill-opacity:1;fill-rule:nonzero;stroke:none"
         d="m 71.9336,574.207 c 0,277.356 224.6484,502.203 501.7894,502.203 277.136,0 501.787,-224.847 501.787,-502.203 0,-277.363 -224.651,-502.1953 -501.787,-502.1953 -277.141,0 -501.7894,224.8323 -501.7894,502.1953" /><path
         id="path18"
         style="fill:#fddd1b;fill-opacity:1;fill-rule:nonzero;stroke:none"
         d="m 71.9336,574.207 c 0,277.356 224.6484,502.203 501.7894,502.203 277.136,0 501.787,-224.847 501.787,-502.203 0,-277.363 -224.651,-502.1953 -501.787,-502.1953 -277.141,0 -501.7894,224.8323 -501.7894,502.1953" /><path
         id="path20"
         style="fill:none;stroke:#254aa5;stroke-width:10;stroke-linecap:butt;stroke-linejoin:miter;stroke-miterlimit:4;stroke-dasharray:none;stroke-opacity:1"
         d="m 71.9336,574.207 c 0,277.356 224.6484,502.203 501.7894,502.203 277.136,0 501.787,-224.847 501.787,-502.203 0,-277.363 -224.651,-502.1953 -501.787,-502.1953 -277.141,0 -501.7894,224.8323 -501.7894,502.1953 z" /><path
         id="path22"
         style="fill:#254aa5;fill-opacity:1;fill-rule:nonzero;stroke:none"
         d="m 231.902,574.441 c 0,188.801 152.934,341.868 341.594,341.868 188.645,0 341.563,-153.067 341.563,-341.868 0,-188.808 -152.918,-341.855 -341.563,-341.855 -188.66,0 -341.594,153.047 -341.594,341.855" /><path
         id="path24"
         style="fill:#254aa5;fill-opacity:1;fill-rule:nonzero;stroke:none"
         d="m 231.902,574.441 c 0,188.801 152.934,341.868 341.594,341.868 188.645,0 341.563,-153.067 341.563,-341.868 0,-188.808 -152.918,-341.855 -341.563,-341.855 -188.66,0 -341.594,153.047 -341.594,341.855" /><path
         id="path26"
         style="fill:#fddd1b;fill-opacity:1;fill-rule:nonzero;stroke:none"
         d="m 829.863,733.555 -10.5,30.293 -10.105,-30.313 -32.715,-0.019 26.523,-18.77 -10.175,-30.297 26.523,18.793 26.426,-18.793 -9.707,30.223 26.074,18.844 -32.344,0.039" /><path
         id="path28"
         style="fill:#fddd1b;fill-opacity:1;fill-rule:nonzero;stroke:none"
         d="m 724.734,833.008 -10.496,30.293 -10.117,-30.313 -32.734,-0.019 26.523,-18.77 -10.156,-30.273 26.523,18.769 26.414,-18.769 -9.714,30.176 26.093,18.867 -32.336,0.039" /><path
         id="path30"
         style="fill:#fddd1b;fill-opacity:1;fill-rule:nonzero;stroke:none"
         d="m 582.305,872.285 -10.508,30.293 -10.109,-30.312 h -32.735 l 26.535,-18.789 -10.168,-30.274 26.535,18.77 26.407,-18.77 -9.707,30.195 26.074,18.868 -32.324,0.019" /><path
         id="path32"
         style="fill:#fddd1b;fill-opacity:1;fill-rule:nonzero;stroke:none"
         d="m 441.57,832.988 -10.515,30.313 -10.11,-30.332 h -32.722 l 26.523,-18.77 -10.156,-30.293 26.523,18.77 26.414,-18.77 -9.714,30.196 26.082,18.867 -32.325,0.019" /><path
         id="path34"
         style="fill:#fddd1b;fill-opacity:1;fill-rule:nonzero;stroke:none"
         d="m 336.438,733.555 -10.508,30.293 -10.11,-30.313 -32.722,-0.019 26.519,-18.77 -10.164,-30.297 26.524,18.793 26.418,-18.793 -9.707,30.223 26.074,18.844 -32.324,0.039" /><path
         id="path36"
         style="fill:#fddd1b;fill-opacity:1;fill-rule:nonzero;stroke:none"
         d="m 297.461,583.191 -10.508,30.313 -10.105,-30.313 -32.739,-0.019 26.536,-18.77 -10.165,-30.293 26.524,18.77 26.426,-18.77 -9.719,30.196 26.074,18.867 -32.324,0.019" /><path
         id="path38"
         style="fill:#fddd1b;fill-opacity:1;fill-rule:nonzero;stroke:none"
         d="m 342.219,446.082 -10.52,30.293 -10.105,-30.312 -32.727,-0.02 26.524,-18.77 -10.157,-30.293 26.512,18.79 26.43,-18.79 -9.719,30.196 26.086,18.867 -32.324,0.039" /><path
         id="path40"
         style="fill:#fddd1b;fill-opacity:1;fill-rule:nonzero;stroke:none"
         d="m 435.793,346.648 -10.512,30.274 -10.105,-30.305 h -32.727 l 26.528,-18.777 -10.168,-30.293 26.523,18.789 26.414,-18.789 -9.703,30.195 26.07,18.875 -32.32,0.031" /><path
         id="path42"
         style="fill:#fddd1b;fill-opacity:1;fill-rule:nonzero;stroke:none"
         d="m 582.305,295.379 -10.508,30.293 -10.117,-30.305 h -32.727 l 26.535,-18.777 -10.175,-30.293 26.523,18.769 26.426,-18.769 -9.707,30.215 26.074,18.855 -32.324,0.012" /><path
         id="path44"
         style="fill:#fddd1b;fill-opacity:1;fill-rule:nonzero;stroke:none"
         d="m 728.828,346.629 -10.515,30.293 -10.11,-30.305 -32.734,-0.027 26.543,-18.762 -10.188,-30.293 26.535,18.781 26.426,-18.781 -9.719,30.188 26.086,18.867 -32.324,0.039" /><path
         id="path46"
         style="fill:#fddd1b;fill-opacity:1;fill-rule:nonzero;stroke:none"
         d="m 822.422,446.082 -10.52,30.273 -10.117,-30.312 h -32.722 l 26.542,-18.77 -10.195,-30.293 26.543,18.79 26.426,-18.79 -9.707,30.196 26.074,18.867 -32.324,0.039" /><path
         id="path48"
         style="fill:#fddd1b;fill-opacity:1;fill-rule:nonzero;stroke:none"
         d="m 870.527,583.836 -10.507,30.293 -10.098,-30.313 -32.734,-0.019 26.535,-18.77 -10.188,-30.293 26.543,18.789 26.426,-18.789 -9.719,30.215 26.067,18.848 -32.325,0.039" /><path
         id="path50"
         style="fill:#fddd1b;fill-opacity:1;fill-rule:nonzero;stroke:none"
         d="m 829.863,733.555 -10.5,30.293 -10.105,-30.313 -32.715,-0.019 26.523,-18.77 -10.175,-30.297 26.523,18.793 26.426,-18.793 -9.707,30.223 26.074,18.844 -32.344,0.039" /><path
         id="path52"
         style="fill:#fddd1b;fill-opacity:1;fill-rule:nonzero;stroke:none"
         d="m 724.734,833.008 -10.496,30.293 -10.117,-30.313 -32.734,-0.019 26.523,-18.77 -10.156,-30.273 26.523,18.769 26.414,-18.769 -9.714,30.176 26.093,18.867 -32.336,0.039" /><path
         id="path54"
         style="fill:#fddd1b;fill-opacity:1;fill-rule:nonzero;stroke:none"
         d="m 582.305,872.285 -10.508,30.293 -10.109,-30.312 h -32.735 l 26.535,-18.789 -10.168,-30.274 26.535,18.77 26.407,-18.77 -9.707,30.195 26.074,18.868 -32.324,0.019" /><path
         id="path56"
         style="fill:#fddd1b;fill-opacity:1;fill-rule:nonzero;stroke:none"
         d="m 441.57,832.988 -10.515,30.313 -10.11,-30.332 h -32.722 l 26.523,-18.77 -10.156,-30.293 26.523,18.77 26.414,-18.77 -9.714,30.196 26.082,18.867 -32.325,0.019" /><path
         id="path58"
         style="fill:#fddd1b;fill-opacity:1;fill-rule:nonzero;stroke:none"
         d="m 336.438,733.555 -10.508,30.293 -10.11,-30.313 -32.722,-0.019 26.519,-18.77 -10.164,-30.297 26.524,18.793 26.418,-18.793 -9.707,30.223 26.074,18.844 -32.324,0.039" /><path
         id="path60"
         style="fill:#fddd1b;fill-opacity:1;fill-rule:nonzero;stroke:none"
         d="m 297.461,583.191 -10.508,30.313 -10.105,-30.313 -32.739,-0.019 26.536,-18.77 -10.165,-30.293 26.524,18.77 26.426,-18.77 -9.719,30.196 26.074,18.867 -32.324,0.019" /><path
         id="path62"
         style="fill:#fddd1b;fill-opacity:1;fill-rule:nonzero;stroke:none"
         d="m 342.219,446.082 -10.52,30.293 -10.105,-30.312 -32.727,-0.02 26.524,-18.77 -10.157,-30.293 26.512,18.79 26.43,-18.79 -9.719,30.196 26.086,18.867 -32.324,0.039" /><path
         id="path64"
         style="fill:#fddd1b;fill-opacity:1;fill-rule:nonzero;stroke:none"
         d="m 435.793,346.648 -10.512,30.274 -10.105,-30.305 h -32.727 l 26.528,-18.777 -10.168,-30.293 26.523,18.789 26.414,-18.789 -9.703,30.195 26.07,18.875 -32.32,0.031" /><path
         id="path66"
         style="fill:#fddd1b;fill-opacity:1;fill-rule:nonzero;stroke:none"
         d="m 582.305,295.379 -10.508,30.293 -10.117,-30.305 h -32.727 l 26.535,-18.777 -10.175,-30.293 26.523,18.769 26.426,-18.769 -9.707,30.215 26.074,18.855 -32.324,0.012" /><path
         id="path68"
         style="fill:#fddd1b;fill-opacity:1;fill-rule:nonzero;stroke:none"
         d="m 728.828,346.629 -10.515,30.293 -10.11,-30.305 -32.734,-0.027 26.543,-18.762 -10.188,-30.293 26.535,18.781 26.426,-18.781 -9.719,30.188 26.086,18.867 -32.324,0.039" /><path
         id="path70"
         style="fill:#fddd1b;fill-opacity:1;fill-rule:nonzero;stroke:none"
         d="m 822.422,446.082 -10.52,30.273 -10.117,-30.312 h -32.722 l 26.542,-18.77 -10.195,-30.293 26.543,18.79 26.426,-18.79 -9.707,30.196 26.074,18.867 -32.324,0.039" /><path
         id="path72"
         style="fill:#fddd1b;fill-opacity:1;fill-rule:nonzero;stroke:none"
         d="m 870.527,583.836 -10.507,30.293 -10.098,-30.313 -32.734,-0.019 26.535,-18.77 -10.188,-30.293 26.543,18.789 26.426,-18.789 -9.719,30.215 26.067,18.848 -32.325,0.039" /><path
         id="path74"
         style="fill:#254aa5;fill-opacity:1;fill-rule:nonzero;stroke:none"
         d="m 427.398,166.832 c -3.175,1.172 -5.472,3.293 -6.89,6.367 -1.414,3.078 -1.539,6.203 -0.371,9.367 1.172,3.184 3.297,5.477 6.367,6.895 3.07,1.426 6.195,1.543 9.375,0.371 3.176,-1.172 5.473,-3.293 6.891,-6.367 1.414,-3.067 1.539,-6.192 0.371,-9.375 -1.172,-3.164 -3.286,-5.469 -6.344,-6.895 -3.059,-1.425 -6.192,-1.543 -9.399,-0.363" /><path
         id="path76"
         style="fill:#254aa5;fill-opacity:1;fill-rule:nonzero;stroke:none"
         d="m 315.746,199.051 9.481,18.711 1.453,-0.899 c -1.254,-5.332 -1.407,-9.843 -0.453,-13.527 1.363,-5.301 4.679,-9.578 9.949,-12.813 7.187,-4.414 14.398,-4.921 21.637,-1.531 6.078,2.871 11.152,7.625 15.222,14.258 3.309,5.379 5.281,10.926 5.926,16.641 0.644,5.722 -0.082,10.644 -2.188,14.785 -2.101,4.129 -4.925,7.285 -8.476,9.472 -2.082,1.27 -4.254,2.247 -6.524,2.911 -2.261,0.664 -4.617,1.035 -7.046,1.113 l -10.016,-16.309 c -1.738,-2.832 -2.656,-4.804 -2.762,-5.949 -0.109,-1.141 0.153,-2.215 0.77,-3.23 0.621,-1.008 2.066,-2.207 4.344,-3.606 l -0.973,-1.582 -21.848,13.41 0.973,1.582 1.039,-0.636 c 2.164,-1.329 4.094,-1.512 5.781,-0.575 1.188,0.684 2.707,2.539 4.563,5.567 l 10.605,17.265 c 4.242,-0.234 8.168,-0.898 11.766,-2.011 3.605,-1.094 7.304,-2.813 11.105,-5.149 10.903,-6.687 17.035,-15.273 18.403,-25.73 1.027,-7.852 -0.563,-15.207 -4.77,-22.051 -3.047,-4.973 -7.164,-9.004 -12.34,-12.09 -6.152,-3.672 -12.59,-5.449 -19.316,-5.324 -5.613,0.129 -11.238,1.914 -16.871,5.371 -2.051,1.262 -3.817,2.57 -5.285,3.938 -1.477,1.367 -3.407,3.554 -5.79,6.582 -1.195,1.543 -2.054,2.468 -2.582,2.793 -0.527,0.32 -1.128,0.351 -1.8,0.097 -0.668,-0.254 -1.485,-1.055 -2.438,-2.422 l -1.539,0.938" /><path
         id="path78"
         style="fill:#254aa5;fill-opacity:1;fill-rule:nonzero;stroke:none"
         d="m 291.484,272.977 -9.48,-27.422 26.434,12.246 z m 1.391,3.613 19.098,-17.102 10.316,4.785 c 2.539,1.184 4.234,2.239 5.078,3.196 0.676,0.742 0.91,1.726 0.703,2.937 -0.203,1.203 -1.422,2.961 -3.64,5.266 l 1.199,1.348 15.539,-13.907 -1.207,-1.347 c -2.387,1.472 -4.145,2.195 -5.273,2.156 -2.278,-0.047 -5.766,-1.199 -10.458,-3.406 l -53.703,-25.071 -1.273,1.145 19.57,56.406 c 1.567,4.531 2.231,7.793 1.981,9.785 -0.246,1.992 -1.325,3.953 -3.231,5.879 l 1.203,1.348 19.465,-17.422 -1.207,-1.348 c -2.051,1.66 -3.672,2.52 -4.863,2.578 -1.188,0.059 -2.145,-0.304 -2.856,-1.105 -0.957,-1.063 -1.98,-3.191 -3.078,-6.356 l -3.363,-9.765" /><path
         id="path80"
         style="fill:#254aa5;fill-opacity:1;fill-rule:nonzero;stroke:none"
         d="m 248.473,306.238 c -0.383,0.489 -0.707,0.907 -0.977,1.278 -0.269,0.363 -0.492,0.675 -0.676,0.898 -3.898,4.973 -7.914,7.863 -12.047,8.703 -4.128,0.84 -7.859,-0.058 -11.183,-2.668 -3.254,-2.547 -5.098,-5.644 -5.539,-9.285 -0.438,-3.633 0.66,-7.121 3.293,-10.469 1.168,-1.496 2.988,-3.312 5.465,-5.468 z m -2.262,57.996 10.914,-13.906 -10.516,-36.746 c 1.079,-1.262 1.938,-2.305 2.579,-3.125 0.261,-0.332 0.539,-0.695 0.828,-1.094 0.289,-0.39 0.582,-0.8 0.875,-1.23 l 15.132,11.875 c 3.278,2.578 5.032,4.531 5.266,5.879 0.359,1.855 -0.219,3.75 -1.75,5.703 l -1.594,2.031 1.418,1.113 17.516,-22.316 -1.418,-1.113 -1.539,1.965 c -1.731,2.195 -3.684,3.203 -5.859,3.027 -1.215,-0.078 -3.313,-1.289 -6.282,-3.625 l -33.644,-26.406 c -3.278,-2.567 -5.032,-4.532 -5.266,-5.868 -0.344,-1.886 0.258,-3.808 1.809,-5.781 l 1.535,-1.953 -1.418,-1.125 -14.895,18.977 c -4.339,5.527 -7.136,9.922 -8.394,13.183 -1.25,3.262 -1.512,6.649 -0.785,10.176 0.726,3.535 2.59,6.473 5.582,8.828 3.203,2.508 6.8,3.652 10.789,3.406 3.996,-0.242 8.199,-2.156 12.609,-5.769 l 6.496,22.48 c 1.504,5.145 2.125,9.043 1.867,11.7 -0.261,2.656 -1.351,5.515 -3.277,8.601 l 1.422,1.113" /><path
         id="path82"
         style="fill:#254aa5;fill-opacity:1;fill-rule:nonzero;stroke:none"
         d="m 202.93,390.68 -18.41,-22.43 29.043,2.313 z m 2.554,2.902 11.981,-22.668 11.34,0.91 c 2.789,0.223 4.746,0.633 5.867,1.231 0.894,0.468 1.449,1.308 1.68,2.519 0.23,1.199 -0.301,3.262 -1.59,6.192 l 1.593,0.847 9.743,-18.437 -1.594,-0.84 c -1.727,2.219 -3.121,3.508 -4.195,3.859 -2.161,0.743 -5.821,0.879 -10.996,0.43 l -59.059,-4.883 -0.801,1.524 37.926,46.113 c 3.047,3.711 4.801,6.543 5.258,8.496 0.461,1.953 0.129,4.16 -0.992,6.621 l 1.597,0.84 12.207,-23.086 -1.597,-0.84 c -1.348,2.266 -2.567,3.633 -3.661,4.102 -1.097,0.468 -2.121,0.457 -3.074,-0.039 -1.262,-0.676 -2.957,-2.305 -5.086,-4.903 l -6.547,-7.988" /><path
         id="path84"
         style="fill:#254aa5;fill-opacity:1;fill-rule:nonzero;stroke:none"
         d="m 149.668,406.98 -5.238,17.188 35.703,53.203 -36.528,-11.133 c -3.894,-1.191 -6.187,-2.363 -6.886,-3.535 -0.957,-1.543 -1.055,-3.574 -0.297,-6.055 l 0.668,-2.199 -1.731,-0.527 -6.714,22.043 1.726,0.527 0.684,-2.238 c 0.816,-2.684 2.207,-4.324 4.164,-4.961 1.207,-0.379 3.586,-0.027 7.136,1.047 l 53.387,16.269 0.512,-1.679 -38.281,-57.297 39,11.887 c 3.89,1.191 6.191,2.343 6.906,3.476 0.945,1.582 1.043,3.602 0.293,6.063 l -0.688,2.238 1.731,0.527 6.719,-22.043 -1.731,-0.527 -0.668,2.199 c -0.824,2.715 -2.215,4.375 -4.18,5 -1.207,0.391 -3.582,0.039 -7.132,-1.047 L 154.18,421.98 c -1.586,-2.48 -2.582,-4.316 -2.981,-5.468 -0.394,-1.164 -0.601,-2.754 -0.636,-4.766 -0.004,-0.988 0.273,-2.402 0.828,-4.238 l -1.723,-0.528" /><path
         id="path86"
         style="fill:#254aa5;fill-opacity:1;fill-rule:nonzero;stroke:none"
         d="m 119.336,546.441 15.328,2.594 0.219,-1.84 c -2.672,-0.683 -4.551,-1.406 -5.641,-2.16 -1.754,-1.23 -2.972,-2.722 -3.66,-4.5 -0.684,-1.777 -0.863,-4.015 -0.539,-6.73 l 1.117,-9.258 50.223,6.074 c 4.043,0.488 6.508,1.231 7.406,2.227 1.207,1.398 1.656,3.371 1.348,5.918 l -0.274,2.277 1.793,0.215 3.371,-27.871 -1.797,-0.215 -0.277,2.324 c -0.336,2.781 -1.414,4.649 -3.234,5.606 -1.121,0.586 -3.524,0.664 -7.207,0.214 l -50.223,-6.074 0.957,-7.91 c 0.371,-3.066 0.859,-5.215 1.473,-6.457 0.816,-1.609 2.172,-2.898 4.058,-3.887 1.891,-0.984 4.336,-1.414 7.336,-1.277 l 0.227,-1.836 -15.512,-1.094 -6.492,53.66" /><path
         id="path88"
         style="fill:#254aa5;fill-opacity:1;fill-rule:nonzero;stroke:none"
         d="m 183.945,588.582 1.809,-0.031 -0.461,-28.363 -1.809,0.027 0.039,2.344 c 0.047,2.738 -0.718,4.734 -2.293,5.996 -1.031,0.797 -3.531,1.226 -7.5,1.297 l -42.769,0.687 c -3.348,0.055 -5.566,-0.121 -6.648,-0.527 -0.817,-0.313 -1.532,-0.965 -2.129,-1.969 -0.805,-1.422 -1.223,-2.91 -1.246,-4.473 l -0.04,-2.343 -1.804,0.031 0.457,28.367 1.804,-0.027 -0.039,-2.395 c -0.043,-2.703 0.723,-4.687 2.297,-5.945 1.032,-0.832 3.532,-1.281 7.5,-1.344 l 42.77,-0.695 c 3.351,-0.051 5.57,0.125 6.648,0.527 0.821,0.313 1.532,0.988 2.133,2.02 0.805,1.386 1.219,2.859 1.242,4.422 l 0.039,2.394" /><path
         id="path90"
         style="fill:#254aa5;fill-opacity:1;fill-rule:nonzero;stroke:none"
         d="m 124.918,619.09 26,-2.996 1.664,14.453 c 0.43,3.75 0.156,6.324 -0.836,7.715 -1.285,1.851 -3.801,3.093 -7.531,3.718 l 0.211,1.797 22.894,-2.636 -0.211,-1.797 c -3.254,-0.086 -5.355,-0.297 -6.312,-0.653 -1.203,-0.449 -2.199,-1.3 -3,-2.55 -0.801,-1.25 -1.356,-3.254 -1.676,-6.004 l -1.664,-14.453 21.688,-2.5 c 2.91,-0.332 4.691,-0.411 5.355,-0.219 0.656,0.187 1.211,0.582 1.66,1.183 0.445,0.606 0.77,1.809 0.981,3.622 l 1.285,11.156 c 0.429,3.722 0.476,6.453 0.156,8.191 -0.324,1.742 -1.156,3.477 -2.496,5.203 -1.777,2.239 -4.563,4.641 -8.363,7.207 l 0.222,1.938 15.84,-7.57 -5.84,-50.696 -1.797,0.211 0.27,2.324 c 0.18,1.551 -0.02,3.067 -0.605,4.547 -0.395,1.094 -1.094,1.883 -2.086,2.375 -0.993,0.489 -3.09,0.918 -6.289,1.289 l -42.735,4.922 c -4.176,0.481 -6.793,0.36 -7.859,-0.371 -1.426,-1.016 -2.297,-2.879 -2.61,-5.598 l -0.265,-2.324 -1.797,0.203 5.84,50.688 14.492,-0.93 -0.223,-1.89 c -3.539,-0.278 -6,-0.758 -7.39,-1.438 -1.387,-0.672 -2.516,-1.781 -3.379,-3.32 -0.637,-1.239 -1.141,-3.489 -1.516,-6.758 l -2.078,-18.039" /><path
         id="path92"
         style="fill:#254aa5;fill-opacity:1;fill-rule:nonzero;stroke:none"
         d="m 164.309,680.867 c 0.164,0.594 0.32,1.106 0.461,1.543 0.14,0.434 0.25,0.793 0.332,1.074 1.73,6.075 1.714,11.028 -0.039,14.864 -1.75,3.828 -4.665,6.324 -8.735,7.48 -3.973,1.133 -7.562,0.809 -10.762,-0.973 -3.195,-1.781 -5.375,-4.722 -6.543,-8.824 -0.515,-1.816 -0.918,-4.359 -1.207,-7.625 z m 45.597,35.918 -4.84,-17.004 -35.906,-13.086 c -0.39,-1.617 -0.726,-2.925 -1.015,-3.925 -0.114,-0.407 -0.247,-0.844 -0.395,-1.309 -0.148,-0.465 -0.312,-0.941 -0.484,-1.434 l 18.5,-5.265 c 4.007,-1.137 6.629,-1.41 7.843,-0.809 1.719,0.801 2.914,2.387 3.594,4.766 l 0.707,2.488 1.735,-0.492 -7.758,-27.285 -1.742,0.492 0.679,2.394 c 0.77,2.696 0.442,4.868 -0.984,6.528 -0.781,0.933 -2.988,1.914 -6.621,2.949 l -41.145,11.703 c -4.008,1.137 -6.621,1.406 -7.84,0.805 -1.722,-0.824 -2.929,-2.446 -3.613,-4.856 l -0.683,-2.394 -1.739,0.496 6.602,23.195 c 1.922,6.762 3.832,11.613 5.73,14.543 1.903,2.922 4.492,5.129 7.774,6.621 3.281,1.485 6.758,1.707 10.422,0.664 3.91,-1.113 6.949,-3.355 9.101,-6.726 2.152,-3.371 3.067,-7.903 2.735,-13.598 l 22.003,7.953 c 5.055,1.813 8.579,3.606 10.571,5.371 1.992,1.77 3.664,4.336 5.031,7.707 l 1.738,-0.492" /><path
         id="path94"
         style="fill:#254aa5;fill-opacity:1;fill-rule:nonzero;stroke:none"
         d="m 171.84,790.738 14.422,-5.804 -0.774,-1.684 c -2.636,0.809 -4.613,1.18 -5.937,1.105 -2.141,-0.128 -3.961,-0.769 -5.473,-1.917 -1.515,-1.153 -2.844,-2.969 -3.98,-5.454 l -3.887,-8.476 45.977,-21.094 c 3.703,-1.695 6.191,-2.355 7.476,-1.976 1.758,0.554 3.172,2 4.242,4.339 l 0.957,2.086 1.645,-0.754 -11.707,-25.523 -1.641,0.758 0.977,2.129 c 1.168,2.543 1.222,4.703 0.176,6.476 -0.653,1.082 -2.657,2.395 -6.032,3.946 l -45.98,21.085 -3.317,-7.23 c -1.293,-2.812 -2.004,-4.902 -2.129,-6.277 -0.14,-1.797 0.333,-3.61 1.426,-5.438 1.098,-1.824 2.957,-3.465 5.586,-4.922 l -0.769,-1.687 -13.789,7.183 22.531,49.129" /><path
         id="path96"
         style="fill:#254aa5;fill-opacity:1;fill-rule:nonzero;stroke:none"
         d="m 226.484,870.535 12.825,-8.785 -1.121,-1.48 c -2.399,1.363 -4.247,2.152 -5.555,2.363 -2.113,0.336 -4.035,0.109 -5.762,-0.688 -1.726,-0.8 -3.414,-2.285 -5.062,-4.468 l -5.625,-7.438 40.336,-30.527 c 3.246,-2.453 5.531,-3.637 6.871,-3.543 1.836,0.16 3.527,1.269 5.082,3.32 l 1.382,1.832 1.438,-1.094 -16.938,-22.39 -1.441,1.093 1.41,1.868 c 1.692,2.23 2.215,4.324 1.574,6.285 -0.402,1.195 -2.082,2.918 -5.039,5.156 l -40.336,30.527 -4.8,-6.347 c -1.871,-2.469 -3.012,-4.356 -3.434,-5.672 -0.531,-1.723 -0.457,-3.594 0.223,-5.613 0.672,-2.024 2.133,-4.028 4.383,-6.016 l -1.118,-1.48 -11.91,9.996 32.617,43.101" /><path
         id="path98"
         style="fill:#254aa5;fill-opacity:1;fill-rule:nonzero;stroke:none"
         d="m 272.898,872.402 c 0.454,0.426 0.848,0.789 1.188,1.09 0.344,0.297 0.621,0.555 0.836,0.754 4.594,4.328 7.125,8.586 7.582,12.777 0.461,4.188 -0.762,7.821 -3.664,10.903 -2.832,3.008 -6.082,4.57 -9.738,4.679 -3.664,0.106 -7.039,-1.3 -10.149,-4.226 -1.371,-1.293 -3.015,-3.27 -4.937,-5.93 z m 57.563,7.477 -12.863,-12.125 -37.543,7.164 c -1.164,-1.188 -2.125,-2.133 -2.883,-2.848 -0.309,-0.293 -0.645,-0.597 -1.016,-0.922 -0.367,-0.32 -0.746,-0.648 -1.144,-0.98 l 13.187,-14.004 c 2.86,-3.031 4.965,-4.605 6.321,-4.711 1.882,-0.195 3.722,0.555 5.523,2.25 l 1.887,1.774 1.234,-1.317 -20.644,-19.453 -1.243,1.316 1.813,1.707 c 2.039,1.918 2.871,3.958 2.496,6.11 -0.191,1.199 -1.582,3.18 -4.176,5.926 l -29.332,31.132 c -2.855,3.036 -4.961,4.606 -6.316,4.715 -1.907,0.168 -3.77,-0.601 -5.598,-2.32 l -1.809,-1.711 -1.242,1.32 17.559,16.539 c 5.117,4.825 9.238,8 12.375,9.543 3.129,1.543 6.484,2.11 10.066,1.707 3.578,-0.406 6.676,-2 9.289,-4.765 2.786,-2.965 4.246,-6.446 4.368,-10.446 0.125,-4 -1.418,-8.355 -4.622,-13.07 l 22.977,-4.453 c 5.266,-1.031 9.211,-1.301 11.82,-0.801 2.618,0.496 5.379,1.844 8.278,4.035 l 1.238,-1.312" /><path
         id="path100"
         style="fill:#254aa5;fill-opacity:1;fill-rule:nonzero;stroke:none"
         d="m 352.953,925.391 -24.012,16.3 4.942,-28.711 z m 3.117,-2.278 -21.484,-13.984 1.937,-11.211 c 0.473,-2.762 1.059,-4.668 1.747,-5.734 0.554,-0.848 1.441,-1.329 2.664,-1.446 1.218,-0.117 3.23,0.598 6.031,2.149 l 0.984,-1.512 -17.476,-11.379 -0.985,1.516 c 2.055,1.918 3.207,3.426 3.461,4.523 0.543,2.219 0.352,5.879 -0.566,10.992 l -10.211,58.375 1.433,0.934 49.364,-33.586 c 3.969,-2.699 6.949,-4.187 8.933,-4.469 1.989,-0.277 4.161,0.25 6.516,1.59 l 0.98,-1.516 -21.886,-14.253 -0.989,1.519 c 2.137,1.543 3.395,2.887 3.758,4.02 0.371,1.132 0.266,2.152 -0.32,3.05 -0.781,1.204 -2.563,2.739 -5.344,4.625 l -8.547,5.797" /><path
         id="path102"
         style="fill:#254aa5;fill-opacity:1;fill-rule:nonzero;stroke:none"
         d="m 407.527,931.277 c 4.168,0.743 7.547,1.653 10.129,2.723 6.977,2.902 11.746,7.75 14.313,14.563 2.562,6.808 2.101,14.406 -1.379,22.796 -3.504,8.446 -8.574,14.149 -15.195,17.114 -6.622,2.961 -13.54,2.941 -20.754,-0.051 -2.707,-1.125 -5.61,-2.844 -8.703,-5.149 z m -15.617,-11.668 -0.695,1.672 2.301,0.953 c 2.589,1.075 4.078,2.664 4.472,4.766 0.25,1.27 -0.343,3.625 -1.777,7.082 l -16.402,39.508 c -1.586,3.82 -2.996,6.031 -4.243,6.644 -1.718,0.836 -3.742,0.774 -6.054,-0.187 l -2.301,-0.953 -0.688,1.668 24.895,10.332 c 9.133,3.797 16.516,5.644 22.145,5.554 5.625,-0.097 10.894,-1.964 15.808,-5.601 4.906,-3.633 8.68,-8.625 11.313,-14.965 3.535,-8.512 3.902,-16.695 1.101,-24.551 -3.156,-8.785 -10.672,-15.64 -22.547,-20.574 L 391.91,919.609" /><path
         id="path104"
         style="fill:#254aa5;fill-opacity:1;fill-rule:nonzero;stroke:none"
         d="m 486.934,955.094 0.464,-1.746 -27.425,-7.258 -0.465,1.742 2.265,0.602 c 2.645,0.699 4.36,1.976 5.145,3.839 0.488,1.204 0.227,3.731 -0.789,7.567 l -10.941,41.35 c -0.864,3.24 -1.633,5.33 -2.317,6.26 -0.523,0.7 -1.348,1.2 -2.473,1.51 -1.585,0.39 -3.132,0.39 -4.64,-0.01 l -2.266,-0.6 -0.465,1.74 27.426,7.27 0.461,-1.75 -2.309,-0.61 c -2.613,-0.7 -4.312,-1.97 -5.105,-3.83 -0.516,-1.22 -0.27,-3.74 0.746,-7.58 l 10.945,-41.352 c 0.86,-3.242 1.629,-5.328 2.313,-6.254 0.523,-0.703 1.363,-1.207 2.519,-1.504 1.555,-0.402 3.086,-0.398 4.594,0.004 l 2.317,0.61" /><path
         id="path106"
         style="fill:#254aa5;fill-opacity:1;fill-rule:nonzero;stroke:none"
         d="m 537.992,1028.34 2.852,-15.29 -1.84,-0.25 c -0.727,2.66 -1.481,4.53 -2.25,5.61 -1.262,1.73 -2.777,2.92 -4.563,3.58 -1.785,0.66 -4.027,0.8 -6.738,0.42 l -9.238,-1.27 6.922,-50.113 c 0.554,-4.027 1.34,-6.484 2.347,-7.363 1.414,-1.187 3.395,-1.601 5.942,-1.25 l 2.269,0.313 0.25,-1.789 -27.812,-3.84 -0.25,1.785 2.324,0.324 c 2.773,0.383 4.625,1.492 5.555,3.328 0.562,1.129 0.593,3.535 0.086,7.211 l -6.918,50.114 -7.887,-1.09 c -3.063,-0.43 -5.211,-0.96 -6.438,-1.58 -1.589,-0.85 -2.863,-2.22 -3.816,-4.13 -0.953,-1.91 -1.34,-4.36 -1.152,-7.36 l -1.836,-0.25 -1.352,15.49 53.543,7.4" /><path
         id="path108"
         style="fill:#254aa5;fill-opacity:1;fill-rule:nonzero;stroke:none"
         d="m 581.121,964.645 0.039,-1.805 -28.367,-0.449 -0.027,1.804 2.339,0.039 c 2.739,0.039 4.708,0.871 5.918,2.485 0.77,1.054 1.122,3.566 1.055,7.535 l -0.672,42.766 c -0.054,3.36 -0.301,5.57 -0.742,6.63 -0.336,0.81 -1.016,1.5 -2.031,2.07 -1.445,0.76 -2.949,1.13 -4.512,1.1 l -2.344,-0.03 -0.031,1.8 28.359,0.45 0.04,-1.81 -2.403,-0.03 c -2.691,-0.04 -4.652,-0.88 -5.863,-2.49 -0.793,-1.06 -1.16,-3.57 -1.102,-7.53 l 0.676,-42.774 c 0.051,-3.355 0.301,-5.566 0.738,-6.633 0.336,-0.808 1.032,-1.496 2.086,-2.07 1.414,-0.754 2.903,-1.121 4.461,-1.098 l 2.383,0.04" /><path
         id="path110"
         style="fill:#254aa5;fill-opacity:1;fill-rule:nonzero;stroke:none"
         d="m 626.941,1023.58 c -5.878,0.71 -10.867,-0.9 -14.949,-4.83 -5.09,-4.89 -8.262,-12.58 -9.531,-23.047 -1.301,-10.726 -0.012,-19.262 3.887,-25.605 2.988,-4.817 7.375,-7.582 13.156,-8.282 6.172,-0.746 11.559,1.043 16.172,5.372 4.605,4.328 7.539,11.675 8.797,22.05 1.355,11.242 0.168,19.902 -3.594,25.962 -3.02,4.83 -7.664,7.62 -13.938,8.38 z m 1.352,3.42 c 8.531,-1.03 15.523,-5.16 20.992,-12.4 5.473,-7.24 7.617,-15.702 6.445,-25.401 -1.21,-9.984 -5.371,-17.89 -12.46,-23.719 -7.11,-5.832 -15.133,-8.199 -24.082,-7.113 -9.051,1.094 -16.266,5.227 -21.637,12.406 -5.371,7.176 -7.446,15.868 -6.211,26.082 1.265,10.435 5.848,18.525 13.758,24.255 6.867,4.97 14.597,6.94 23.195,5.89" /><path
         id="path112"
         style="fill:#254aa5;fill-opacity:1;fill-rule:nonzero;stroke:none"
         d="m 674.246,1019 17.149,-5.38 23.75,-59.503 11.425,36.43 c 1.223,3.883 1.543,6.441 0.981,7.676 -0.742,1.668 -2.348,2.887 -4.836,3.667 l -2.188,0.69 0.536,1.72 21.996,-6.898 -0.547,-1.722 -2.231,0.703 c -2.676,0.836 -4.82,0.621 -6.441,-0.641 -0.996,-0.781 -2.055,-2.937 -3.164,-6.476 l -16.711,-53.254 -1.68,0.527 -25.676,63.941 -12.214,-38.898 c -1.219,-3.879 -1.551,-6.434 -1.028,-7.66 0.774,-1.676 2.387,-2.899 4.848,-3.668 l 2.223,-0.703 -0.536,-1.723 -21.98,6.899 0.535,1.726 2.188,-0.683 c 2.707,-0.852 4.875,-0.645 6.496,0.617 0.996,0.785 2.047,2.941 3.164,6.48 l 13.777,43.933 c -1.16,2.72 -2.102,4.57 -2.844,5.55 -0.718,0.98 -1.914,2.06 -3.562,3.22 -0.813,0.56 -2.141,1.13 -3.977,1.71 l 0.547,1.72" /><path
         id="path114"
         style="fill:#254aa5;fill-opacity:1;fill-rule:nonzero;stroke:none"
         d="m 771.785,979.484 -11.922,-23.3 12.957,-6.633 c 3.364,-1.719 5.864,-2.356 7.512,-1.922 2.188,0.562 4.231,2.48 6.121,5.75 l 1.613,-0.82 -10.5,-20.516 -1.597,0.82 c 1.051,3.075 1.59,5.125 1.597,6.141 0,1.285 -0.449,2.516 -1.343,3.707 -0.891,1.187 -2.563,2.414 -5.032,3.672 l -12.961,6.625 -9.929,-19.434 c -1.336,-2.605 -2.031,-4.25 -2.09,-4.933 -0.059,-0.684 0.117,-1.344 0.527,-1.973 0.41,-0.633 1.426,-1.359 3.059,-2.188 l 9.988,-5.117 c 3.328,-1.707 5.867,-2.711 7.617,-3.019 1.746,-0.309 3.661,-0.137 5.75,0.519 2.715,0.879 5.942,2.645 9.668,5.301 l 1.743,-0.887 -12.637,-12.179 -45.434,23.238 0.821,1.605 2.089,-1.062 c 1.391,-0.715 2.883,-1.055 4.477,-1.027 1.148,-0.008 2.144,0.363 2.945,1.117 0.813,0.758 1.953,2.57 3.418,5.441 l 19.594,38.301 c 1.91,3.734 2.715,6.234 2.398,7.488 -0.449,1.692 -1.89,3.16 -4.324,4.406 l -2.09,1.071 0.828,1.605 45.43,-23.238 -5.957,-13.242 -1.695,0.863 c 0.972,3.414 1.394,5.891 1.25,7.43 -0.149,1.535 -0.793,2.976 -1.938,4.328 -0.933,1.027 -2.859,2.293 -5.789,3.785 l -16.164,8.277" /><path
         id="path116"
         style="fill:#254aa5;fill-opacity:1;fill-rule:nonzero;stroke:none"
         d="m 836.121,886.695 1.113,-1.226 -15.132,-11.223 -41.504,30.086 1.05,1.465 2.012,-1.461 c 2.27,-1.645 4.438,-2.078 6.477,-1.313 1.164,0.446 2.851,2.192 5.066,5.25 l 25.078,34.594 c 2.422,3.352 3.574,5.715 3.449,7.09 -0.183,1.906 -1.296,3.594 -3.332,5.063 l -2.007,1.46 1.05,1.465 24.282,-17.597 -1.055,-1.461 c -2.832,2.09 -5.023,3.273 -6.563,3.551 -1.554,0.277 -2.843,0.148 -3.878,-0.391 -1.028,-0.535 -2.707,-2.402 -5.008,-5.59 l -24.414,-33.684 c -1.594,-2.191 -2.473,-3.839 -2.637,-4.964 -0.09,-0.786 0.098,-1.547 0.562,-2.286 0.469,-0.742 2.434,-2.363 5.879,-4.867 l 3.926,-2.836 c 4.106,-2.98 7.207,-4.773 9.32,-5.367 2.086,-0.598 4.391,-0.621 6.875,-0.074 2.489,0.547 5.625,1.988 9.391,4.316" /><path
         id="path118"
         style="fill:#254aa5;fill-opacity:1;fill-rule:nonzero;stroke:none"
         d="m 882.18,841.914 0.894,-1.375 -16.695,-8.711 -36.289,36.227 1.289,1.277 1.758,-1.758 c 1.968,-1.976 4.043,-2.75 6.172,-2.308 1.226,0.254 3.164,1.714 5.836,4.39 l 30.199,30.227 c 2.91,2.926 4.422,5.078 4.511,6.461 0.118,1.91 -0.714,3.75 -2.484,5.523 l -1.766,1.758 1.282,1.277 21.211,-21.183 -1.282,-1.281 c -2.468,2.511 -4.445,4.023 -5.925,4.535 -1.489,0.519 -2.778,0.593 -3.887,0.226 -1.098,-0.371 -3.051,-1.949 -5.82,-4.738 l -29.407,-29.434 c -1.906,-1.914 -3.039,-3.406 -3.379,-4.492 -0.207,-0.754 -0.136,-1.543 0.207,-2.347 0.348,-0.805 2.032,-2.715 5.047,-5.727 l 3.418,-3.414 c 3.594,-3.59 6.375,-5.844 8.368,-6.762 1.972,-0.918 4.242,-1.305 6.781,-1.152 2.539,0.152 5.855,1.078 9.961,2.781" /><path
         id="path120"
         style="fill:#254aa5;fill-opacity:1;fill-rule:nonzero;stroke:none"
         d="m 934.988,845.93 -21.211,-15.332 8.52,-11.793 c 2.215,-3.063 4.156,-4.77 5.816,-5.133 2.207,-0.492 4.907,0.285 8.078,2.34 l 1.055,-1.465 -18.672,-13.5 -1.062,1.465 c 2.343,2.254 3.75,3.836 4.226,4.742 0.575,1.137 0.742,2.441 0.489,3.906 -0.254,1.465 -1.192,3.313 -2.813,5.555 l -8.523,11.793 -17.7,-12.789 c -2.363,-1.719 -3.726,-2.867 -4.097,-3.453 -0.356,-0.578 -0.508,-1.243 -0.422,-1.993 0.078,-0.746 0.652,-1.859 1.719,-3.332 l 6.574,-9.101 c 2.207,-3.035 4.004,-5.086 5.418,-6.152 1.418,-1.067 3.191,-1.786 5.351,-2.157 2.825,-0.453 6.496,-0.34 11.036,0.328 l 1.14,-1.586 -16.797,-5.097 -29.898,41.351 1.465,1.055 1.367,-1.898 c 0.918,-1.266 2.09,-2.246 3.516,-2.942 1.035,-0.539 2.085,-0.652 3.14,-0.344 1.067,0.301 2.91,1.399 5.52,3.29 l 34.851,25.207 c 3.41,2.46 5.254,4.32 5.547,5.574 0.371,1.715 -0.242,3.676 -1.844,5.894 l -1.379,1.899 1.465,1.058 29.907,-41.347 -11.332,-9.09 -1.114,1.543 c 2.422,2.594 3.918,4.609 4.492,6.043 0.571,1.437 0.649,3.015 0.254,4.734 -0.371,1.344 -1.519,3.344 -3.445,6.008 l -10.637,14.719" /><path
         id="path122"
         style="fill:#254aa5;fill-opacity:1;fill-rule:nonzero;stroke:none"
         d="m 1000.26,739.18 -21.049,-9.016 -0.715,1.66 c 3.809,2.27 6.609,4.614 8.406,7.031 1.797,2.415 2.856,5.208 3.157,8.387 0.3,3.176 -0.125,6.137 -1.321,8.891 -1.328,3.113 -3.379,5.281 -6.148,6.5 -2.777,1.222 -5.371,1.312 -7.793,0.273 -1.859,-0.797 -3.274,-2.164 -4.238,-4.101 -1.457,-2.817 -2.563,-8.516 -3.313,-17.09 -0.613,-6.992 -1.301,-11.875 -2.031,-14.652 -0.742,-2.778 -1.985,-5.208 -3.711,-7.278 -1.731,-2.07 -3.816,-3.621 -6.238,-4.66 -4.614,-1.973 -9.336,-1.891 -14.211,0.258 -4.871,2.148 -8.504,6.031 -10.918,11.656 -0.75,1.766 -1.336,3.484 -1.731,5.156 -0.254,0.989 -0.523,3.149 -0.84,6.469 -0.3,3.32 -0.625,5.371 -0.957,6.149 -0.32,0.75 -0.796,1.242 -1.421,1.484 -0.645,0.242 -1.711,0.164 -3.208,-0.227 l -0.71,1.66 20.871,8.942 0.711,-1.66 c -4.036,-2.653 -6.856,-5.098 -8.457,-7.344 -1.614,-2.246 -2.547,-5.031 -2.825,-8.355 -0.269,-3.321 0.278,-6.602 1.66,-9.829 1.606,-3.742 3.86,-6.273 6.758,-7.597 2.91,-1.324 5.703,-1.407 8.403,-0.254 1.492,0.64 2.832,1.699 4.004,3.18 1.168,1.472 2.046,3.363 2.617,5.664 0.398,1.546 0.933,5.55 1.629,12.011 0.683,6.453 1.425,11.153 2.214,14.094 0.801,2.945 1.997,5.43 3.606,7.469 1.609,2.035 3.66,3.586 6.184,4.668 4.363,1.867 8.843,1.804 13.433,-0.192 4.594,-2.004 8,-5.586 10.219,-10.765 1.387,-3.231 2.058,-7 2.027,-11.297 -0.039,-1.996 0.102,-3.34 0.395,-4.027 0.332,-0.778 0.84,-1.313 1.519,-1.606 0.664,-0.297 1.782,-0.293 3.305,0.008 l 0.717,-1.66" /><path
         id="path124"
         style="fill:#254aa5;fill-opacity:1;fill-rule:nonzero;stroke:none"
         d="m 979.719,692.434 c 0.136,-1.754 0.293,-3.293 0.469,-4.625 0.183,-1.332 0.398,-2.457 0.64,-3.368 0.86,-3.273 2.871,-5.761 6.035,-7.468 3.164,-1.703 6.758,-2.024 10.782,-0.961 2.775,0.734 5.195,1.984 7.275,3.742 2.08,1.762 3.43,3.836 4.05,6.23 0.65,2.387 0.61,4.903 -0.09,7.547 -0.43,1.602 -1.27,3.586 -2.54,5.942 z m -2.688,-0.715 -18.64,-4.93 c -4.036,-1.07 -6.418,-2.168 -7.161,-3.312 -1.062,-1.563 -1.281,-3.555 -0.632,-5.977 l 0.64,-2.453 -1.746,-0.461 -7.258,27.422 1.75,0.465 0.633,-2.407 c 0.727,-2.707 2.113,-4.41 4.184,-5.109 1.14,-0.371 3.535,-0.074 7.183,0.895 l 41.352,10.937 c 4.034,1.07 6.424,2.152 7.164,3.262 1.07,1.597 1.27,3.601 0.64,6.023 l -0.64,2.41 1.74,0.461 6.21,-23.461 c 1.51,-5.726 2.12,-10.398 1.82,-14.011 -0.31,-3.621 -1.56,-6.93 -3.76,-9.938 -2.2,-3.008 -5.23,-5.019 -9.06,-6.035 -5.227,-1.383 -9.934,-0.781 -14.114,1.797 -4.184,2.582 -7.109,7.016 -8.773,13.308 -0.411,1.543 -0.743,3.243 -0.997,5.094 -0.253,1.852 -0.425,3.86 -0.535,6.02" /><path
         id="path126"
         style="fill:#254aa5;fill-opacity:1;fill-rule:nonzero;stroke:none"
         d="m 1020.73,635.871 -26.011,-2.867 1.59,-14.461 c 0.421,-3.75 1.257,-6.199 2.531,-7.336 1.67,-1.519 4.39,-2.168 8.16,-1.949 l 0.21,-1.797 -22.913,-2.523 -0.195,1.796 c 3.156,0.805 5.156,1.485 6.003,2.036 1.079,0.71 1.86,1.765 2.368,3.16 0.496,1.402 0.593,3.472 0.293,6.222 l -1.594,14.465 -21.692,-2.39 c -2.91,-0.325 -4.667,-0.645 -5.269,-0.973 -0.606,-0.328 -1.059,-0.832 -1.359,-1.524 -0.301,-0.687 -0.352,-1.937 -0.149,-3.753 l 1.235,-11.164 c 0.41,-3.719 0.957,-6.391 1.66,-8.016 0.703,-1.625 1.902,-3.129 3.59,-4.516 2.23,-1.789 5.48,-3.508 9.757,-5.168 l 0.215,-1.937 -17.129,3.855 -5.586,50.723 1.797,0.195 0.254,-2.328 c 0.164,-1.551 0.715,-2.984 1.609,-4.293 0.625,-0.98 1.489,-1.594 2.563,-1.855 1.07,-0.258 3.211,-0.207 6.414,0.144 l 42.768,4.707 c 4.17,0.461 6.69,1.164 7.57,2.114 1.17,1.308 1.61,3.32 1.29,6.035 l -0.25,2.332 1.8,0.195 5.58,-50.715 -14.33,-2.316 -0.21,1.89 c 3.39,1.063 5.68,2.075 6.89,3.043 1.21,0.969 2.05,2.297 2.55,3.993 0.35,1.347 0.34,3.652 -0.02,6.925 l -1.99,18.051" /><path
         id="path128"
         style="fill:#254aa5;fill-opacity:1;fill-rule:nonzero;stroke:none"
         d="m 1026.83,528.777 -60.475,45.899 -1.05,-27.129 c -0.168,-4.16 0.625,-7.395 2.351,-9.688 1.739,-2.304 5.352,-4.425 10.852,-6.367 l -0.356,-1.601 -17.398,3.808 2.098,53.867 1.804,-0.07 58.754,-44.801 0.82,21.172 c 0.14,3.516 -0.14,6.074 -0.84,7.684 -0.7,1.609 -1.77,2.855 -3.18,3.738 -1.42,0.891 -4.1,1.75 -8.04,2.59 l 0.07,1.848 16.49,-2.004 -1.9,-48.946" /><path
         id="path130"
         style="fill:#254aa5;fill-opacity:1;fill-rule:nonzero;stroke:none"
         d="m 956.672,497.078 -1.789,0.281 4.441,28.02 1.789,-0.285 -0.359,-2.313 c -0.434,-2.695 0.039,-4.785 1.426,-6.25 0.906,-0.937 3.316,-1.718 7.246,-2.343 l 42.244,-6.7 c 3.3,-0.527 5.53,-0.664 6.66,-0.422 0.85,0.196 1.64,0.754 2.38,1.653 1,1.289 1.62,2.715 1.86,4.258 l 0.37,2.304 1.78,-0.273 -4.44,-28.028 -1.79,0.293 0.38,2.364 c 0.42,2.656 -0.05,4.726 -1.44,6.211 -0.9,0.957 -3.32,1.757 -7.23,2.382 l -42.251,6.7 c -3.308,0.527 -5.527,0.664 -6.648,0.41 -0.863,-0.195 -1.66,-0.762 -2.406,-1.699 -0.997,-1.25 -1.598,-2.657 -1.852,-4.2 l -0.371,-2.363" /><path
         id="path132"
         style="fill:#254aa5;fill-opacity:1;fill-rule:nonzero;stroke:none"
         d="m 967.566,444.598 28.872,2.968 -22.25,18.797 z m -3.843,-0.266 7.437,24.523 -8.687,7.344 c -2.141,1.805 -3.813,2.891 -5.032,3.262 -0.964,0.293 -1.953,0.098 -2.961,-0.606 -1.011,-0.703 -2.085,-2.539 -3.242,-5.527 l -1.726,0.527 6.062,19.95 1.731,-0.528 c -0.34,-2.781 -0.254,-4.675 0.261,-5.691 1.008,-2.043 3.52,-4.727 7.5,-8.047 l 45.374,-38.125 -0.49,-1.633 -59.403,-6.043 c -4.777,-0.488 -8.02,-1.269 -9.719,-2.324 -1.695,-1.074 -3.023,-2.871 -3.965,-5.41 l -1.726,0.527 7.59,25 1.738,-0.527 c -0.649,-2.559 -0.742,-4.395 -0.293,-5.508 0.445,-1.105 1.18,-1.816 2.207,-2.129 1.363,-0.41 3.726,-0.449 7.066,-0.097 l 10.278,1.062" /><path
         id="path134"
         style="fill:#254aa5;fill-opacity:1;fill-rule:nonzero;stroke:none"
         d="m 924.57,366.102 -1.035,-1.289 -13.437,13.222 23.293,45.664 1.597,-0.82 -1.121,-2.219 c -1.277,-2.488 -1.379,-4.687 -0.293,-6.59 0.614,-1.074 2.61,-2.48 5.969,-4.199 l 38.062,-19.406 c 3.684,-1.875 6.196,-2.645 7.54,-2.313 1.859,0.489 3.351,1.844 4.496,4.082 l 1.121,2.207 1.609,-0.82 -13.609,-26.699 -1.621,0.82 c 1.629,3.113 2.461,5.457 2.5,7.031 0.027,1.571 -0.293,2.832 -0.996,3.77 -0.684,0.937 -2.786,2.293 -6.29,4.082 l -37.074,18.895 c -2.398,1.23 -4.176,1.847 -5.308,1.835 -0.785,-0.039 -1.504,-0.339 -2.168,-0.925 -0.664,-0.567 -1.953,-2.754 -3.887,-6.563 l -2.207,-4.308 c -2.309,-4.52 -3.598,-7.86 -3.852,-10.028 -0.269,-2.168 0.063,-4.445 0.996,-6.816 0.918,-2.375 2.833,-5.246 5.715,-8.613" /><path
         id="path136"
         style="fill:#254aa5;fill-opacity:1;fill-rule:nonzero;stroke:none"
         d="m 890.012,345.008 -1.496,1.015 15.918,23.477 1.496,-1.016 -1.313,-1.933 c -1.543,-2.266 -1.988,-4.356 -1.363,-6.281 0.43,-1.231 2.281,-2.957 5.562,-5.184 l 35.414,-24.004 c 2.774,-1.875 4.723,-2.949 5.848,-3.203 0.852,-0.188 1.809,-0.02 2.86,0.488 1.449,0.742 2.621,1.758 3.488,3.047 l 1.316,1.953 1.496,-1.015 -15.918,-23.489 -1.496,1.016 1.352,1.984 c 1.504,2.227 1.953,4.317 1.328,6.231 -0.41,1.25 -2.246,2.996 -5.539,5.234 l -35.402,23.992 c -2.782,1.887 -4.723,2.95 -5.86,3.203 -0.855,0.188 -1.812,0.012 -2.89,-0.515 -1.422,-0.723 -2.579,-1.731 -3.458,-3.028 l -1.343,-1.972" /><path
         id="path138"
         style="fill:#254aa5;fill-opacity:1;fill-rule:nonzero;stroke:none"
         d="m 899.348,256.102 -12.168,9.675 1.226,1.399 c 2.285,-1.535 4.082,-2.453 5.371,-2.754 2.09,-0.488 4.028,-0.391 5.801,0.273 1.777,0.672 3.559,2.039 5.363,4.102 l 6.145,7.012 -38.059,33.32 c -3.066,2.676 -5.261,4.023 -6.601,4.023 -1.848,-0.019 -3.613,-1.015 -5.305,-2.949 l -1.512,-1.719 -1.355,1.192 18.492,21.113 1.352,-1.184 -1.543,-1.765 c -1.836,-2.11 -2.512,-4.16 -2.012,-6.152 0.312,-1.231 1.863,-3.067 4.656,-5.508 l 38.059,-33.321 5.254,5.996 c 2.031,2.325 3.301,4.122 3.828,5.411 0.64,1.679 0.703,3.554 0.176,5.605 -0.532,2.07 -1.848,4.18 -3.95,6.317 l 1.211,1.398 11.172,-10.82 -35.601,-40.664" /><path
         id="path140"
         style="fill:#254aa5;fill-opacity:1;fill-rule:nonzero;stroke:none"
         d="m 879.07,214.988 c -1.148,-0.937 -2.461,-1.328 -3.925,-1.172 -1.446,0.176 -2.633,0.821 -3.551,1.954 -0.93,1.132 -1.313,2.441 -1.145,3.886 0.164,1.453 0.801,2.637 1.906,3.535 1.141,0.918 2.442,1.309 3.895,1.172 1.453,-0.136 2.645,-0.781 3.563,-1.914 0.917,-1.133 1.32,-2.433 1.171,-3.886 -0.132,-1.458 -0.769,-2.649 -1.914,-3.575 z m -13.379,-10.859 c -1.128,-0.918 -2.429,-1.301 -3.882,-1.133 -1.45,0.156 -2.637,0.801 -3.555,1.942 -0.941,1.144 -1.32,2.433 -1.176,3.878 0.156,1.434 0.805,2.618 1.938,3.536 1.129,0.925 2.437,1.328 3.882,1.179 1.465,-0.144 2.649,-0.769 3.579,-1.914 0.918,-1.14 1.304,-2.441 1.152,-3.906 -0.156,-1.465 -0.805,-2.656 -1.938,-3.582 z m -36.226,44.805 25.574,-13.704 -7.922,28.04 z m -3.344,1.933 19.902,16.16 -3.101,10.95 c -0.766,2.695 -1.543,4.531 -2.348,5.507 -0.625,0.789 -1.558,1.172 -2.793,1.172 -1.226,-0.019 -3.14,-0.937 -5.761,-2.773 l -1.153,1.406 16.196,13.133 1.14,-1.395 c -1.848,-2.129 -2.832,-3.75 -2.969,-4.863 -0.3,-2.266 0.262,-5.891 1.707,-10.879 l 16.274,-56.984 -1.328,-1.082 -52.61,28.242 c -4.226,2.266 -7.351,3.437 -9.355,3.516 -2,0.058 -4.109,-0.684 -6.309,-2.266 l -1.14,1.406 20.281,16.465 1.141,-1.406 c -1.969,-1.77 -3.075,-3.223 -3.321,-4.395 -0.254,-1.172 -0.039,-2.168 0.649,-3.008 0.894,-1.105 2.832,-2.453 5.789,-4.035 l 9.109,-4.871" /><path
         id="path142"
         style="fill:#254aa5;fill-opacity:1;fill-rule:nonzero;stroke:none"
         d="m 773.313,165.535 -8.286,13.164 1.621,0.918 c 1.665,-2.207 3.04,-3.672 4.165,-4.387 1.792,-1.14 3.652,-1.699 5.542,-1.648 1.915,0.039 4.043,0.742 6.426,2.078 l 8.125,4.59 -24.883,44.043 c -2,3.547 -3.628,5.539 -4.902,5.988 -1.734,0.574 -3.726,0.235 -5.976,-1.035 l -1.993,-1.125 -0.894,1.574 24.453,13.809 0.879,-1.574 -2.031,-1.153 c -2.446,-1.375 -3.75,-3.093 -3.95,-5.136 -0.105,-1.258 0.754,-3.504 2.579,-6.739 l 24.882,-44.043 6.926,3.918 c 2.695,1.524 4.5,2.793 5.399,3.836 1.171,1.367 1.859,3.117 2.035,5.246 0.183,2.118 -0.356,4.539 -1.633,7.254 l 1.609,0.91 6.953,-13.898 -47.046,-26.59" /><path
         id="path144"
         style="fill:#254aa5;fill-opacity:1;fill-rule:nonzero;stroke:none"
         d="m 714.48,164.469 c -3.191,-1.114 -6.316,-0.926 -9.363,0.539 -3.039,1.472 -5.129,3.808 -6.238,7 -1.113,3.195 -0.941,6.32 0.535,9.367 1.477,3.047 3.809,5.125 7.004,6.25 3.199,1.113 6.316,0.926 9.363,-0.547 3.047,-1.465 5.125,-3.808 6.239,-6.992 1.117,-3.203 0.949,-6.328 -0.504,-9.367 -1.465,-3.035 -3.801,-5.125 -7.036,-6.25" /></g></g></svg>