<svg xmlns="http://www.w3.org/2000/svg" width="110" height="90"><defs><linearGradient id="a" gradientUnits="userSpaceOnUse" x1="117.317" y1="145.508" x2="118.303" y2="145.508" gradientTransform="translate(-2227.98 -2810.47) scale(19.522)"><stop offset="0" stop-color="#71BF44"/><stop offset="1" stop-color="#FFF"/></linearGradient></defs><path d="M28.07 0L.748 44.876 28.16 90h53.71l27.383-45.08L81.977 0H28.07z" fill="#FFF"/><path d="M30.54 4.358L6.145 44.678 30.54 85.31h48.57l24.32-40.63L79.11 4.36H30.54zm46.06 4.45c1.186 1.968 20.378 33.79 21.64 35.88-1.256 2.096-20.467 34.19-21.652 36.17h-43.53L11.34 44.69l21.708-35.88h43.55z" fill="#71BF44"/><path d="M33.344 41.178h2.124c2.386 0 5.106.26 5.106 3.094 0 2.646-2.646 3.02-5.18 3.02h-2.05v-6.114zM26.41 52.21h10.96c4.658 0 10.137-1.304 10.137-7.528 0-3.168-1.79-5.032-5.256-5.74v-.075c2.91-.97 4.586-2.795 4.586-6.075 0-4.473-3.615-6.597-8.46-6.597H26.41V52.21zm6.934-21.095h2.012c2.31 0 4.548.223 4.548 2.61 0 2.197-2.348 2.757-4.622 2.757h-1.938v-5.367zM68.496 39.2c0-4.51 1.677-8.31 5.89-8.31 4.21 0 5.888 3.8 5.888 8.31 0 4.286-1.677 8.312-5.89 8.312-4.21 0-5.888-4.026-5.888-8.312zm-7.156 0c0 8.275 4.548 13.455 13.045 13.455 8.498 0 13.045-5.18 13.045-13.455 0-8.35-4.473-13.455-13.045-13.455-8.573 0-13.045 5.106-13.045 13.455zM56.387 29.38c0 1.922-1.56 3.482-3.48 3.482-1.923 0-3.482-1.56-3.482-3.482 0-1.92 1.56-3.48 3.48-3.48 1.923 0 3.482 1.56 3.482 3.48z" fill="#231F20"/><path d="M49.512 32.54v19.667h6.908c.324-.93 4.314-12.214 8.873-17.704 4.103-4.94 10.47-10.89 18.37-5.682 0 0-7.47-7.06-17.202-1.4-6.225 3.622-9.402 10.014-10.015 11.69v-6.74c-.828 1.043-2.104 1.715-3.54 1.715-1.352 0-2.565-.6-3.393-1.545z" fill="url(#a)"/><path d="M49.076 59.074c0-.247-.02-.495-.027-.736h.54l.02.51h.015c.18-.39.468-.557.863-.557.595 0 .997.343.997 1.093v2.368h-.562v-2.2c0-.542-.2-.777-.562-.777-.44 0-.722.31-.722.924v2.054h-.562v-2.676zM54.067 60.506c0 .47-.307.863-.796.863-.387 0-.574-.235-.574-.596 0-.395.314-.71.977-.71.153 0 .294 0 .394.014v.428zM52.494 59.1c.195-.213.53-.354.877-.354.236 0 .456.06.57.214.107.147.127.295.127.55v.153h-.328c-1.172 0-1.607.488-1.607 1.15 0 .657.422.985.984.985.522 0 .803-.248.957-.51h.013l.034.463h.51c-.014-.12-.028-.32-.028-.522v-1.78c0-.48-.146-.69-.293-.836-.11-.107-.41-.32-.912-.32-.334 0-.682.1-.964.28l.06.53zM57.41 58.934c-.195-.107-.39-.16-.65-.16-.55 0-.937.38-.937 1.305 0 .788.375 1.237.924 1.237.268 0 .495-.08.69-.18l.026.514c-.167.075-.47.148-.716.148-1.018 0-1.513-.756-1.513-1.72 0-1.104.576-1.787 1.526-1.787.234 0 .496.048.676.135l-.027.51zM58.004 56.734h.562v2.075h.014c.147-.29.44-.516.836-.516.596 0 .998.34.998 1.09v2.37h-.563V59.55c0-.542-.2-.777-.56-.777-.443 0-.724.31-.724.924v2.053h-.562v-5.02zM29.846 65.615h2.176v.508h-1.587v1.485h1.513v.51h-1.513v1.66h1.674v.51h-2.264v-4.673zM36.013 70.092c-.274.1-.743.24-1.158.24-1.48 0-2.1-1.123-2.1-2.388 0-1.46.848-2.376 2.067-2.376.4 0 .776.053 1.097.207v.59c-.355-.18-.75-.29-1.092-.29-.762 0-1.458.61-1.458 1.75 0 1.203.48 2 1.5 2 .186 0 .427-.047.58-.127v-1.473h-.782v-.51h1.345v2.377zM36.793 68.646h1.447v-.482h-1.447v.482zM40.823 65.154h.535v-.67h-.535v.67zm-1.07 0h.535v-.67h-.536v.67zM38.828 68c0 1.444.66 2.334 1.698 2.334 1.105 0 1.754-.816 1.754-2.43 0-1.445-.663-2.335-1.7-2.335-1.105 0-1.753.816-1.753 2.43zm.614 0c0-1.44.522-1.95 1.138-1.95.79 0 1.084.91 1.084 1.855 0 1.44-.522 1.948-1.138 1.948-.79 0-1.084-.91-1.084-1.854zM44.747 66.873h.655l-1.34 1.527 1.46 1.887h-.697l-1.238-1.72h-.01v1.72h-.563v-5.02h.562v2.978l1.17-1.372zM46.158 68.58c0-.857.248-1.3.783-1.3.536 0 .784.443.784 1.3s-.248 1.298-.783 1.298c-.534 0-.782-.44-.782-1.298zm-.59 0c0 1.07.47 1.753 1.373 1.753.904 0 1.373-.683 1.373-1.753 0-1.07-.47-1.754-1.372-1.754-.902 0-1.37.683-1.37 1.754zM48.82 68.646h1.448v-.482H48.82v.482zM50.594 65.615h.643l1.085 3.808h.015l1.142-3.808h.59l-1.467 4.672h-.59l-1.42-4.672zM54.713 68.32c.013-.797.334-1.064.696-1.064.447 0 .668.354.668 1.064h-1.365zm1.927.428v-.302c0-1.003-.428-1.62-1.198-1.62-.85 0-1.32.684-1.32 1.755 0 1.07.47 1.754 1.373 1.754.342 0 .69-.073.958-.2l-.027-.51c-.194.14-.502.282-.783.282-.622 0-.93-.368-.93-1.158h1.927zM57.26 67.608c0-.247-.02-.494-.027-.735h.542l.02.535h.014c.18-.415.467-.583.97-.583v.556c-.068-.013-.142-.02-.215-.02-.435 0-.743.376-.743 1.118v1.808h-.562v-2.678zM59.663 68.58c0-.857.248-1.3.784-1.3.535 0 .783.443.783 1.3s-.248 1.298-.783 1.298c-.536 0-.784-.44-.784-1.298zm-.59 0c0 1.07.47 1.753 1.374 1.753.903 0 1.372-.683 1.372-1.753 0-1.07-.47-1.754-1.373-1.754-.904 0-1.373.683-1.373 1.754zM62.467 67.608c0-.247-.02-.494-.027-.735h.542l.02.535h.013c.18-.415.47-.583.97-.583v.556c-.066-.013-.14-.02-.213-.02-.435 0-.743.376-.743 1.118v1.808h-.563v-2.678zM66.344 68.58c0 .857-.235 1.298-.75 1.298s-.75-.44-.75-1.298c0-.857.235-1.3.75-1.3s.75.443.75 1.3zm.562-3.313h-.562v2.075h-.013c-.227-.362-.482-.516-.87-.516-.702 0-1.178.576-1.178 1.754s.476 1.753 1.178 1.753c.495 0 .75-.28.897-.548h.013l.02.5h.543c-.008-.206-.027-.42-.027-.628v-4.39zM67.668 67.608c0-.247-.02-.494-.027-.735h.543l.02.508h.014c.18-.387.468-.555.863-.555.596 0 .998.342.998 1.092v2.37h-.563v-2.203c0-.543-.2-.776-.562-.776-.44 0-.722.307-.722.923v2.056h-.562v-2.678zM73.302 69.55c0 .25.02.497.027.738h-.543l-.02-.51h-.014c-.18.39-.468.556-.863.556-.595 0-.997-.34-.997-1.09v-2.37h.563v2.203c0 .54.2.776.562.776.44 0 .722-.31.722-.924v-2.055h.562v2.676zM74.12 67.608c0-.247-.02-.494-.03-.735h.544l.02.508h.014c.18-.387.468-.555.863-.555.597 0 .998.342.998 1.092v2.37h-.562v-2.203c0-.543-.2-.776-.562-.776-.442 0-.723.307-.723.923v2.056h-.56v-2.678zM77.74 68.58c0-.857.236-1.3.752-1.3.515 0 .75.443.75 1.3s-.235 1.298-.75 1.298c-.516 0-.75-.44-.75-1.298zm2.063-1.084c0-.208.02-.422.027-.623h-.542l-.02.495h-.014c-.187-.328-.495-.542-.836-.542-.763 0-1.238.576-1.238 1.754s.475 1.753 1.178 1.753c.375 0 .676-.187.896-.575h.014v.535c0 .59-.268.997-.957.997-.307 0-.695-.134-.936-.294l-.027.57c.248.1.71.206.997.206.75 0 1.46-.394 1.46-1.338v-2.938z" fill="#231F20"/></svg>