<svg xmlns="http://www.w3.org/2000/svg" width="90" height="90"><path d="M48.173 4.827l3.87-4.27 2.375 5.264 4.49-3.613 1.523 5.57 5.002-2.865.634 5.74 5.386-2.047-.27 5.77 5.64-1.18-1.17 5.655 5.755-.282-2.04 5.404 5.73.622-2.86 5.017 5.56 1.513-3.605 4.507 5.255 2.364-4.267 3.888L90 45.04l-4.823 3.172 4.27 3.874-5.26 2.377 3.61 4.493-5.566 1.527 2.865 5.003-5.735.633 2.046 5.39-5.763-.27 1.178 5.644-5.65-1.17.28 5.762-5.398-2.04-.622 5.732-5.013-2.86-1.512 5.564-4.503-3.61-2.363 5.26-3.886-4.272L45 90.075l-3.17-4.827-3.87 4.273-2.375-5.26-4.49 3.612-1.524-5.57-5 2.866-.634-5.74-5.386 2.046.27-5.77-5.64 1.18 1.17-5.656-5.754.282 2.036-5.404-5.727-.622 2.857-5.016-5.56-1.513 3.61-4.508-5.257-2.363 4.268-3.888L0 45.038l4.823-3.172-4.268-3.872 5.26-2.38L2.2 31.12l5.568-1.526-2.865-5.003 5.736-.634-2.044-5.39 5.762.27-1.178-5.646 5.65 1.17-.28-5.76 5.4 2.04.62-5.732 5.014 2.86 1.51-5.564 4.506 3.61 2.36-5.26 3.886 4.268L45.002 0l3.17 4.827" fill="#034EA2"/><path d="M5.642 45.038c0-21.755 17.62-39.392 39.36-39.392 21.735 0 39.355 17.637 39.355 39.392 0 21.755-17.62 39.39-39.356 39.39-21.737 0-39.358-17.635-39.358-39.39" fill="#FFDD2E"/><path d="M64.223 70.89l.192.013c.262.044.47.174.624.39.153.216.21.455.166.715-.042.262-.172.47-.39.626-.216.155-.457.21-.718.166-.262-.043-.47-.173-.624-.388-.155-.217-.21-.456-.167-.717.044-.262.174-.47.39-.626.273-.16.104-.083.526-.18zm-38.768-.34l-.192.012c-.263.04-.473.165-.63.38-.16.212-.22.45-.18.713.04.263.166.473.38.63.215.16.454.22.715.18.262-.04.47-.167.63-.38.158-.213.217-.45.177-.713-.04-.262-.165-.474-.378-.632-.27-.163-.103-.084-.522-.19zm19.393-51.27l.824 2.376 2.536.002-2.045 1.48.762 2.37-2.072-1.474-2.08 1.473.796-2.376-2.08-1.472h2.566l.792-2.378zm11.173 3.082l.825 2.375 2.536.003-2.046 1.48.763 2.367-2.073-1.472-2.08 1.472.797-2.374-2.08-1.473h2.568l.793-2.378zm-22.21 0l.826 2.377h2.534l-2.046 1.48.762 2.37-2.07-1.474-2.082 1.473.796-2.377-2.08-1.472h2.567l.792-2.378zm30.457 7.8l.824 2.376 2.537.002-2.045 1.48.762 2.37-2.073-1.474-2.08 1.473.798-2.377-2.08-1.473h2.566l.793-2.378zm-38.703 0l.824 2.376 2.536.002-2.045 1.48.76 2.37-2.073-1.474-2.08 1.473.798-2.377-2.08-1.473h2.567l.792-2.378zm41.89 11.744l.825 2.376 2.536.003-2.045 1.48.763 2.37-2.073-1.475-2.082 1.474.8-2.377-2.082-1.472h2.568l.79-2.38zm-44.947.05l.824 2.376 2.536.002-2.044 1.48.762 2.368-2.072-1.472-2.08 1.472.796-2.376-2.08-1.472h2.567l.792-2.38zm38.67-1.795c.17.562.308 1.137.42 1.724-5.663-.026-12.192.926-18.787 2.963.844.263 1.674.536 2.493.82 5.804-1.596 11.66-2.2 16.555-1.757.04.59.05 1.176.028 1.756-3.946-.387-8.708-.063-13.698 1.07.854.336 1.687.684 2.502 1.044 4.083-.63 7.97-.547 10.93.32-.107.577-.242 1.146-.407 1.703-1.997-.6-4.61-.826-7.542-.618 2.304 1.167 4.406 2.424 6.264 3.76-.358.677-.76 1.328-1.207 1.95-6.993-5.07-18.04-9.234-30.587-10.98.05-.764.152-1.52.303-2.258 3.942.552 7.784 1.342 11.434 2.335 7.218-2.51 14.718-3.8 21.3-3.83zm-35.16 12.55l.825 2.376 2.536.004-2.047 1.48.764 2.368-2.073-1.474-2.08 1.474.798-2.376-2.08-1.472 2.567-.002.79-2.377zm37.666.003l.824 2.373 2.535.004-2.045 1.48.76 2.368-2.07-1.474-2.083 1.474.8-2.376-2.082-1.472h2.566l.795-2.377zm-35.557-6.817C40.004 47.6 50.78 52.1 56.066 57.816c-.58.506-1.2.974-1.852 1.4-4.658-4.89-14.328-9.217-25.797-10.95l-.053-.293c-.123-.697-.2-1.39-.238-2.077zm3.226 9.112c4.515 1.21 8.348 3.356 9.614 6.453-3.86-.952-7.274-3.248-9.614-6.452zm-2.404-4.697c9.614 1.66 18.08 5.86 20.52 11.034-.5.137-1.01.252-1.534.345-.275.046-.546.088-.82.123-2.154-3.674-8.723-7.27-17.103-8.965-.417-.806-.774-1.653-1.063-2.537zm4.41 10.2l.824 2.376 2.535.002-2.045 1.48.76 2.37-2.07-1.475-2.082 1.474.8-2.376-2.082-1.472h2.566l.794-2.377zm22.984 0l.823 2.377 2.536.003-2.045 1.48.762 2.368-2.073-1.473-2.08 1.473.8-2.377-2.084-1.47 2.568-.002.794-2.377zm-11.494 4.02l.824 2.377h2.536l-2.045 1.48.762 2.37-2.074-1.472-2.078 1.472.797-2.376-2.08-1.472h2.566l.792-2.377zm.825-46.317l-.69-.01c-2.465.032-4.922.317-7.294 1.008-11.625 3.6-19.408 13.522-19.5 25.81.14 10.96 6.54 20.663 16.725 24.85 3.17 1.342 6.637 1.935 10.067 1.963 1.97-.025 3.94-.195 5.862-.648 12.11-2.48 20.945-13.947 20.928-26.166-.18-14.148-11.077-26.107-25.393-26.77-.25-.023-.016-.003-.707-.037zm22.97 46.162L65.87 67.26l.63 1.227.106-.11c-.116-.34-.175-.624-.18-.847-.002-.172.028-.32.09-.443.063-.124.196-.293.4-.505l.61-.635c.1-.102.177-.162.232-.18.057-.016.112-.015.16.005.052.02.16.11.324.27l1.237 1.185-.792.822c-.15.157-.28.255-.39.295-.11.04-.212.045-.31.018-.075-.025-.216-.11-.424-.26l-.098.1 1.304 1.253.098-.1c-.202-.217-.3-.415-.294-.59.005-.136.11-.308.316-.523l.79-.822 1.48 1.422-.986 1.028c-.178.186-.317.303-.416.35-.127.055-.25.07-.37.046-.117-.024-.294-.11-.527-.26l-.103.107.86.746 2.774-2.888-.102-.098-.127.133c-.15.154-.29.23-.428.226-.1-.007-.27-.124-.51-.35l-2.433-2.34c-.184-.174-.294-.3-.332-.378-.04-.078-.045-.16-.018-.248.033-.12.093-.224.178-.31l.127-.134-.102-.098zm-47.94-.422l-1.176 1.068c-.207.188-.362.294-.466.32-.147.034-.29-.02-.422-.17l-.064-.07-.108.098 1.352 1.488.108-.098c-.142-.154-.224-.276-.25-.367-.024-.088-.02-.175.014-.258.033-.083.146-.212.34-.388l1.11-1.01c.182.06.352.14.507.24.156.1.3.22.428.36.22.243.363.543.43.9.068.36.015.746-.16 1.163-.172.416-.444.79-.81 1.123-.452.41-.94.657-1.46.74-.618.098-1.15-.1-1.596-.588-.326-.36-.482-.755-.47-1.184.01-.297.12-.635.33-1.01l-.088-.098-1.124 1.2.096.106c.1-.082.18-.125.236-.13.056-.003.1.01.133.047.033.036.078.125.134.267.113.28.21.488.29.623.083.135.187.273.313.413.35.384.733.642 1.152.775.506.157 1.03.165 1.573.02.457-.117.855-.33 1.195-.637.466-.424.747-.943.842-1.557.127-.818-.148-1.6-.822-2.34-.236-.26-.476-.472-.724-.634-.246-.162-.528-.298-.843-.41zm50.42-2.458l1.758 1.202c-.028.064-.07.145-.13.24-.06.096-.133.208-.224.34-.204.3-.423.523-.65.667-.23.145-.45.21-.667.194-.217-.014-.41-.078-.576-.193-.252-.173-.397-.417-.43-.735-.037-.318.077-.667.337-1.05.165-.237.357-.46.582-.665zm2.05 1.4l1.646 1.127c-.07.2-.176.406-.32.618-.27.392-.56.63-.877.713-.318.083-.602.04-.852-.133-.16-.11-.283-.253-.364-.43-.08-.177-.102-.364-.062-.564.04-.2.164-.455.375-.762.08-.12.16-.228.236-.324.076-.095.148-.176.216-.244zm-1.522-2.84l-1.383 2.025c-.33.482-.53.872-.6 1.168-.073.297-.056.58.046.848.103.268.26.475.474.62.28.192.588.252.922.18.238-.053.492-.206.758-.46-.093.31-.1.59-.018.837.08.248.228.444.443.59.252.172.53.24.837.205.306-.034.606-.183.898-.447.194-.174.41-.434.645-.78l1.267-1.853-.118-.08-.11.162c-.112.16-.24.25-.39.27-.11.014-.3-.07-.566-.252l-2.77-1.894c-.24-.164-.38-.296-.42-.395-.06-.156-.03-.324.092-.502l.11-.163-.117-.08zm-53.375-.387l-1.34.32.084.13c.357-.032.646-.023.864.025.167.04.305.103.41.193.106.09.237.26.395.508l.47.742c.08.12.12.212.12.27.003.058-.01.11-.04.154-.033.044-.145.128-.34.25l-1.444.92-.613-.962c-.116-.183-.18-.333-.195-.45-.012-.114.007-.216.057-.302.04-.07.16-.186.354-.352l-.077-.12-1.526.972.076.12c.257-.147.473-.195.643-.147.13.035.272.18.43.428l.615.963-1.73 1.103-.767-1.2c-.138-.22-.22-.382-.242-.487-.022-.137-.007-.26.044-.37.05-.11.178-.26.38-.453l-.08-.126-.93.66 2.15 3.375.12-.075-.1-.155c-.115-.18-.153-.34-.117-.47.03-.097.183-.234.46-.412l2.846-1.81c.215-.137.363-.214.448-.233.085-.02.168-.006.245.04.11.063.195.144.26.248l.1.155.12-.077-2.15-3.375zm-2.418-3.713c-.144.004-.29.008-.434.006l-.272.09c-.188.083-.35.207-.485.37-.134.164-.23.355-.285.575-.057.217-.105.6-.15 1.15-.05.674-.134 1.12-.245 1.343-.074.154-.185.262-.33.325-.19.084-.393.078-.61-.014-.22-.095-.383-.263-.49-.507-.095-.214-.13-.447-.11-.696.022-.25.103-.47.24-.66.14-.192.36-.38.656-.56l-.057-.128-1.644.722.056.13c.12-.025.206-.026.26-.004.054.023.094.065.12.125.024.054.036.16.035.316.002.336.057.63.168.884.177.404.448.683.81.837.362.153.712.155 1.055.005.196-.087.357-.21.48-.37.125-.16.218-.357.278-.59.06-.23.115-.6.164-1.107.05-.508.09-.822.12-.944.042-.18.11-.33.2-.447.09-.116.195-.2.312-.252.21-.092.43-.087.658.014.228.1.408.297.537.59.11.253.158.508.138.77-.02.26-.09.48-.215.658-.123.177-.342.37-.658.58l.057.13 1.632-.716-.058-.13c-.117.033-.2.04-.25.02-.05-.018-.088-.056-.114-.115-.028-.06-.054-.22-.08-.48-.027-.26-.05-.43-.07-.51-.034-.13-.08-.264-.14-.402-.194-.44-.482-.742-.866-.906-.133-.045-.266-.107-.41-.105zm59.35 1.164l1.558 1.673-2.277-.04.72-1.634zm-1.188-2.313l-.66 1.497.13.055c.116-.222.217-.356.303-.4.086-.044.164-.05.236-.018.09.04.21.14.36.3l.608.654-.81 1.84-.812-.015c-.263-.004-.446-.028-.55-.074-.076-.034-.127-.096-.15-.186-.025-.09 0-.232.074-.426l-.13-.056-.827 1.873.13.06c.097-.19.217-.318.36-.385.142-.067.4-.096.778-.09l4.683.09.053-.12-3.172-3.398c-.28-.297-.45-.53-.508-.698-.03-.083-.02-.233.033-.446l-.13-.057zm-60.282-4.17l-.044.133c.492.192.84.395 1.045.608.202.214.346.484.43.81.097.376.095.733-.007 1.073-.103.34-.302.624-.597.857-.297.23-.673.406-1.127.523-.553.142-1.033.184-1.444.126-.41-.06-.735-.202-.974-.426-.238-.226-.4-.507-.488-.84-.102-.398-.077-.768.075-1.11.15-.343.46-.657.933-.942l-.03-.114-1.678.556.034.13c.124-.004.23.017.31.065.06.038.1.09.116.155.012.045.004.126-.023.244-.087.4-.083.782.01 1.145.12.465.347.866.68 1.2.334.334.74.56 1.218.677.478.116.968.11 1.47-.02.623-.16 1.12-.47 1.49-.93.502-.617.644-1.342.428-2.175-.118-.462-.326-.835-.62-1.117-.294-.282-.698-.493-1.21-.63zm63.284-.65c-.38.042-.736.082-1.08.27-.743.363-1.228 1.034-1.452 2.012-.077.34-.113.658-.105.953.008.296.057.605.146.927l1.55.355c.27.063.448.13.528.2.114.102.148.25.102.443l-.02.094.14.033.452-1.96-.143-.033c-.047.203-.1.342-.16.414-.06.07-.134.116-.22.137-.088.02-.258.002-.513-.057l-1.464-.335c-.054-.182-.085-.366-.093-.55-.007-.185.01-.37.053-.56.073-.318.237-.607.49-.866.257-.26.606-.44 1.046-.534.44-.095.902-.087 1.385.023.596.136 1.075.395 1.442.776.433.452.575 1 .428 1.645-.11.473-.344.827-.704 1.062-.248.163-.587.264-1.015.305l-.03.13 1.628.236.032-.138c-.126-.036-.206-.076-.243-.12-.035-.043-.047-.09-.037-.138.012-.046.058-.134.143-.262.166-.252.28-.45.344-.593.065-.145.12-.31.16-.493.117-.505.11-.97-.023-1.39-.16-.503-.454-.936-.882-1.3-.36-.31-.762-.514-1.207-.616-.17-.033-.338-.067-.513-.062l-.165-.01zm-62.584-5.433l-.143.01.015.184c.008.122-.015.24-.067.357-.04.083-.092.14-.154.17-.082.038-.255.067-.518.085l-3.342.238c-.256.018-.425.016-.51-.008-.084-.024-.15-.074-.197-.153-.066-.106-.104-.22-.112-.342L9.4 44.91l-.142.012.157 2.215.142-.01-.013-.183c-.01-.122.013-.24.067-.355.04-.084.09-.142.152-.172.08-.04.255-.068.52-.088l1.482-.104.17 2.406-1.48.106c-.256.02-.425.015-.51-.01-.085-.024-.15-.074-.2-.15-.064-.106-.102-.22-.11-.342l-.014-.187-.14.008.158 2.22.14-.01-.013-.183c-.008-.122.013-.24.067-.358.04-.082.092-.138.152-.168.082-.04.256-.07.52-.087l3.345-.238c.31-.022.507-.006.593.05.132.088.205.24.22.453l.013.183.142-.01-.157-2.22-.142.01.014.188c.01.123-.014.24-.067.354-.04.086-.09.143-.152.172-.083.04-.255.07-.517.087l-1.577.113-.173-2.406 1.578-.113c.31-.022.51-.005.595.054.132.088.205.237.22.45l.013.182.142-.01-.157-2.216zm66.158-.887c-.006.15-.023.262-.048.335-.056.15-.113.26-.173.336-.058.075-.18.184-.362.328l-3.608-.153c-.29-.012-.477-.048-.556-.108-.13-.097-.19-.257-.18-.48l.008-.178-.142-.006-.076 1.806.14.007.01-.184c.008-.203.068-.35.18-.442.082-.066.282-.09.6-.078l3.196.135-4.323 3.245-.006.138 4.375.184c.29.013.475.048.554.11.128.096.188.255.18.473l-.008.184.14.005.077-1.806-.14-.007-.008.18c-.01.203-.07.35-.18.44-.082.07-.283.096-.6.082l-2.995-.126 4.027-3.01.057-1.407-.14-.006zM9.86 38.29l-.196 1.83.14.015.022-.195c.02-.196.092-.337.214-.424.09-.062.294-.077.617-.042l2.09.224c.55.06.935.15 1.153.272.22.122.388.325.508.607.117.282.16.592.124.93-.03.264-.1.482-.214.654-.112.17-.246.298-.402.38-.156.08-.364.126-.626.134-.264.01-.496.003-.697-.018l-2.25-.24c-.29-.032-.477-.085-.562-.158-.123-.105-.174-.265-.15-.48l.02-.197-.14-.014-.24 2.232.14.015.022-.194c.02-.196.085-.332.194-.41.108-.076.32-.098.638-.064l2.02.216c.62.067 1.05.072 1.284.014.344-.086.628-.265.854-.536.227-.27.372-.688.43-1.252.057-.52 0-.94-.174-1.26-.17-.324-.395-.553-.67-.686-.275-.134-.67-.227-1.19-.283l-2.094-.225c-.287-.03-.466-.077-.54-.14-.157-.127-.226-.292-.205-.495l.02-.194-.14-.015zm67.163 1.05l2.2.616-1.962 1.154-.237-1.77zm-2.083-1.37l-.14.02.218 1.62.14-.018c-.015-.25.002-.418.05-.5.05-.083.115-.13.193-.14.1-.013.255.01.466.07l.86.24.27 1.992-.7.41c-.226.135-.397.21-.507.224-.085.01-.16-.015-.23-.08-.066-.064-.12-.198-.157-.4l-.14.018.273 2.03.14-.02c-.015-.21.02-.38.108-.513.086-.132.292-.292.617-.483l4.042-2.37-.018-.132-4.48-1.24c-.394-.107-.66-.217-.8-.33-.07-.055-.138-.188-.204-.398zM8.546 41.01c-.18.053-.11.016-.222.09-.09.072-.142.166-.154.282-.012.115.018.217.09.306.074.088.167.138.28.15.116.013.217-.017.306-.09.088-.073.14-.166.15-.28.013-.112-.016-.213-.088-.303s-.164-.14-.28-.153h-.082zm.144-1.34c-.18.052-.11.016-.224.09-.09.07-.14.164-.153.278-.01.115.02.216.09.307.073.09.167.14.282.152.114.013.215-.018.304-.09.088-.073.138-.166.15-.28.013-.114-.017-.216-.088-.304-.072-.09-.164-.14-.28-.152H8.69zm2.628-6.716l-1.16 4.078 1.155.392.04-.14c-.22-.08-.384-.186-.492-.315-.106-.13-.165-.265-.174-.405-.007-.108.024-.28.09-.512l.17-.6 3.817 1.085c.278.08.45.157.514.233.102.127.123.294.063.506l-.05.177.137.038.6-2.117-.134-.04-.05.175c-.055.193-.147.322-.278.386-.095.045-.295.024-.6-.064l-3.818-1.085.2-.703c.06-.207.14-.364.244-.47.105-.108.238-.18.402-.215.1-.022.26-.017.473.015l.04-.14-1.187-.278zm66.3-2.673l-.132.05.064.173c.074.2.08.362.016.484-.047.09-.227.19-.535.306l-3.16 1.18c-.236.088-.398.133-.485.134-.086 0-.164-.03-.23-.09-.094-.083-.162-.182-.205-.297l-.064-.172-.133.05 1.4 3.748 1.376-.036-.054-.143c-.356-.044-.637-.112-.84-.206-.156-.07-.276-.162-.36-.272-.086-.11-.18-.303-.282-.578l-.307-.825c-.052-.134-.072-.23-.06-.288.008-.058.034-.106.072-.142.038-.036.166-.095.382-.175l1.604-.6.397 1.07c.077.203.11.363.098.48-.01.115-.05.21-.117.284-.054.058-.194.15-.418.27l.05.133 1.693-.632-.05-.132c-.283.088-.503.09-.66.008-.117-.06-.23-.23-.333-.51l-.397-1.067 1.922-.717.498 1.334c.09.24.135.416.135.525-.005.138-.045.256-.118.353-.073.097-.228.217-.465.364l.053.14 1.045-.452-1.4-3.75zm-64.036-2.425l-1.628 3.48 1.13.65.062-.133c-.26-.18-.426-.325-.5-.43-.077-.11-.116-.232-.118-.37-.002-.137.056-.33.173-.58l.704-1.507 2.886 5.028.13.06 1.79-3.832-1.143-.803-.073.104c.338.31.534.572.59.792.056.22.014.476-.125.773l-.902 1.93-2.976-5.16zm60.794-3.343l-.123.073.094.158c.062.105.096.222.1.35.002.09-.02.164-.06.22-.057.07-.2.173-.427.31l-2.883 1.705c-.268.158-.452.232-.553.22-.158-.02-.29-.12-.4-.305l-.094-.158-.122.072 1.133 1.914.122-.072-.094-.16c-.062-.106-.095-.22-.1-.347-.002-.093.018-.167.06-.22.056-.073.197-.176.423-.31l1.363-.805 1.228 2.075-1.36.806c-.267.16-.454.23-.555.217-.158-.02-.29-.12-.398-.302l-.093-.158-.123.073 1.133 1.91.12-.072-.092-.158c-.06-.105-.095-.22-.1-.35 0-.09.02-.164.062-.218.055-.072.196-.174.422-.31l2.884-1.705c.22-.13.373-.203.458-.22.086-.017.168-.002.245.05.106.063.19.148.254.253l.094.158.122-.072-1.13-1.91-.124.072.094.16c.062.104.095.22.098.346.002.093-.018.167-.06.22-.055.073-.198.176-.426.31l-1.277.758-1.23-2.075 1.28-.756c.218-.13.372-.203.46-.22.085-.015.167 0 .243.048.106.065.19.15.253.255l.097.162.12-.073-1.13-1.915zm-57.694-1.396l-2.39 3.502.97.737.083-.12c-.183-.147-.307-.298-.367-.454-.06-.156-.074-.3-.04-.44.03-.103.11-.256.25-.456l.35-.515 3.277 2.236c.24.164.378.292.414.385.056.15.024.318-.1.5l-.104.15.118.08 1.24-1.818-.116-.08-.102.15c-.113.165-.24.26-.385.278-.103.012-.287-.07-.55-.252l-3.277-2.237.413-.603c.12-.177.247-.3.38-.37.13-.068.282-.093.448-.075.102.01.252.067.445.164l.08-.12-1.038-.64zm53.436-2.19l-.357.06c-.478.11-.913.335-1.303.676-.485.423-.79.924-.916 1.5-.17.777.028 1.488.594 2.136.314.36.665.6 1.055.72.39.12.844.127 1.364.02l-.02-.14c-.528.05-.93.024-1.208-.075-.278-.1-.528-.277-.75-.53-.255-.292-.412-.613-.472-.96-.06-.35-.01-.695.15-1.035.16-.34.417-.665.77-.974.43-.374.842-.626 1.235-.758.392-.132.746-.15 1.06-.056.315.094.586.272.812.53.27.31.415.653.432 1.026.02.374-.118.795-.413 1.26l.08.09 1.25-1.25-.087-.1c-.112.06-.214.087-.31.082-.07-.007-.128-.036-.174-.088-.03-.034-.06-.11-.09-.228-.1-.396-.274-.735-.52-1.018-.317-.363-.7-.62-1.148-.77-.563-.146-.222-.083-1.034-.117zM20.22 19.233l-2.757 2.904.103.097.127-.133c.148-.155.29-.232.427-.228.102.005.272.12.51.347l2.45 2.323c.182.173.294.3.332.377.04.077.046.16.02.247-.034.12-.092.225-.178.313l-.126.134.103.098 2.757-2.903-.636-1.223-.105.11c.118.34.18.623.185.847.003.17-.027.32-.09.443-.06.125-.193.294-.395.507l-.607.64c-.098.102-.176.164-.232.18-.056.017-.11.016-.16-.004s-.158-.108-.324-.267l-1.243-1.178.785-.83c.15-.156.278-.254.387-.296.11-.04.213-.048.31-.02.075.024.218.11.426.258l.098-.103-1.31-1.245-.1.103c.205.216.303.412.298.588-.004.135-.107.31-.312.524l-.786.828-1.488-1.413.98-1.035c.177-.187.315-.304.413-.352.128-.056.25-.072.37-.05.118.024.297.11.53.26l.103-.11-.863-.74zm46.602-2.1c-.393.025-.708.18-.946.467-.138.164-.226.346-.266.545-.04.2-.035.417.015.65.048.234.165.59.348 1.064.18.475.286.774.314.896.043.18.05.345.02.49-.03.145-.086.266-.167.364-.148.177-.346.27-.595.282-.25.01-.5-.086-.744-.29-.21-.176-.367-.385-.465-.627-.1-.242-.134-.47-.102-.684.032-.214.142-.485.33-.814l-.11-.09-1.14 1.368.11.09c.09-.08.163-.123.215-.13.054-.005.104.012.154.053.05.043.146.175.287.396.14.22.235.362.288.422.086.103.187.202.305.298.368.307.76.45 1.178.425.417-.023.75-.186 1.003-.488.133-.16.22-.342.27-.55.046-.206.046-.42 0-.64-.05-.22-.176-.586-.382-1.096-.253-.626-.378-1.063-.377-1.31 0-.172.048-.317.15-.44.132-.158.317-.245.553-.258.238-.013.458.064.662.235.18.15.317.343.41.575.092.233.12.466.08.7-.04.23-.152.495-.338.79l.108.09 1.15-1.38-.11-.09c-.096.075-.172.114-.23.118-.06.004-.112-.016-.164-.058-.045-.038-.1-.127-.17-.268-.153-.3-.333-.54-.545-.717-.34-.282-.706-.412-1.098-.387zm-3.046-2.44l-.078.12.155.1c.102.067.183.158.243.27.04.082.056.157.04.224-.017.09-.098.243-.242.463l-1.84 2.804c-.172.26-.305.408-.402.442-.148.052-.313.02-.493-.1l-.154-.1-.078.12 1.86 1.22.078-.12-.157-.103c-.102-.066-.184-.156-.243-.267-.042-.084-.056-.16-.043-.226.02-.09.1-.243.245-.463l1.84-2.804c.17-.26.303-.408.402-.44.15-.052.314-.02.49.096l.157.102.076-.118-1.86-1.22zm-36.703-.723l-.12.075c.065.113.095.2.09.255-.005.056-.027.098-.068.124-.04.026-.136.055-.284.088-.293.066-.514.13-.66.187-.147.058-.3.14-.458.24-.435.282-.752.62-.95 1.013-.236.47-.328.987-.275 1.547.043.47.19.898.437 1.28.343.53.81.89 1.4 1.084.786.256 1.6.112 2.443-.433.294-.19.54-.393.74-.61.2-.218.38-.473.54-.765l-.864-1.335c-.15-.232-.23-.403-.24-.51-.01-.152.07-.282.236-.39l.08-.052-.08-.122-1.687 1.093.08.122c.175-.115.31-.177.402-.186.09-.01.176.008.253.055.077.046.186.178.328.397l.816 1.26c-.088.17-.193.323-.317.46-.124.14-.266.26-.426.364-.276.178-.595.27-.96.28-.363.01-.735-.106-1.12-.344-.382-.24-.707-.566-.976-.982-.332-.512-.496-1.032-.495-1.56.004-.625.285-1.118.84-1.477.406-.265.82-.355 1.243-.272.29.057.605.22.94.49l.113-.074-1.003-1.3zM59.36 12.34l-.066.126.164.083c.113.057.203.138.274.242.05.077.072.15.066.218-.01.09-.073.252-.19.487l-1.515 2.993c-.142.278-.257.44-.348.485-.144.068-.312.053-.502-.043l-.164-.083-.065.125 1.988 1.006.064-.125-.168-.085c-.11-.056-.2-.136-.273-.242-.053-.077-.075-.15-.07-.22.01-.09.074-.25.192-.486l.734-1.456.845.427c.154.08.26.16.318.24.056.083.086.177.087.284.003.107-.04.25-.13.432l.126.063.796-1.568-.127-.065c-.158.238-.304.377-.437.417-.134.04-.298.01-.49-.087l-.844-.427.92-1.82 1.022.516c.24.12.407.234.5.338.092.103.152.226.18.366.026.142.014.336-.035.582l.118.06.47-1.04-3.446-1.744zm-26.89-.76l-3.677 1.58.056.13.168-.073c.198-.086.358-.1.482-.042.092.044.203.218.333.52l1.33 3.1c.1.232.15.392.157.48.004.086-.022.163-.08.233-.08.098-.174.17-.287.22l-.168.072.056.13 3.677-1.578-.1-1.372-.14.06c-.028.358-.083.642-.166.85-.064.158-.15.283-.256.372-.106.09-.294.193-.563.308l-.808.348c-.132.056-.227.08-.286.074-.058-.007-.107-.03-.145-.066-.037-.038-.1-.162-.192-.374l-.676-1.572 1.05-.45c.198-.086.356-.126.473-.12.116.005.212.04.29.104.06.052.158.186.29.405l.13-.055-.71-1.66-.13.055c.1.28.114.498.038.657-.056.122-.22.24-.49.358l-1.05.45-.81-1.886 1.31-.563c.235-.102.41-.155.518-.16.14-.002.258.032.36.1.1.07.228.218.384.448l.138-.06-.5-1.022zm22.77.43l.206 2.268-1.703-.54 1.497-1.728zm.494-1.092l-3.032 3.522c-.264.31-.477.504-.638.58-.08.04-.228.046-.448.016l-.042.135 1.56.494.04-.135c-.23-.092-.374-.178-.428-.258-.054-.08-.07-.158-.044-.234.028-.094.116-.225.26-.392l.583-.674 1.917.608.073.807c.024.26.02.445-.014.553-.025.08-.08.137-.168.17-.087.034-.23.026-.432-.028l-.043.135 1.954.62.043-.136c-.198-.075-.337-.18-.42-.315-.08-.136-.14-.39-.173-.766l-.418-4.663-.128-.04zm-18.568-.45c.277.053.515.098.74.285.44.343.765.947.972 1.81.19.8.176 1.42-.046 1.863-.22.444-.566.722-1.04.836-.446.107-.843.024-1.195-.25-.46-.36-.787-.952-.985-1.776-.192-.805-.17-1.456.072-1.955.193-.4.516-.656.967-.764.29-.056.118-.032.516-.05zm.217-.302c-.564.02-.323-.013-.725.063-.662.158-1.176.514-1.546 1.067-.425.638-.54 1.358-.35 2.16.188.784.577 1.367 1.17 1.748.59.382 1.233.488 1.93.322.688-.165 1.213-.56 1.576-1.18.363-.623.453-1.318.27-2.085-.18-.746-.57-1.31-1.168-1.692-.36-.21-.733-.377-1.157-.402zM48.715 9.9c.343.005.202-.005.424.015.33.044.583.18.758.407.174.228.24.503.2.824-.044.33-.204.584-.482.764-.277.18-.66.237-1.152.173-.023-.003-.052-.007-.088-.014-.035-.007-.075-.012-.124-.02l.28-2.14.183-.01zm-1.6-.543l-.02.14.194.025c.195.026.333.1.418.226.06.088.07.293.027.617l-.437 3.327c-.038.294-.088.476-.15.547-.114.128-.28.18-.497.15l-.193-.025-.018.14 2.204.29.02-.14-.2-.027c-.194-.025-.33-.1-.412-.224-.062-.088-.07-.294-.028-.618l.196-1.495.116.022.107.015c.082.012.187.022.317.034l1.427 2.637 1.375.18.017-.14c-.277-.068-.497-.168-.656-.303-.16-.134-.34-.387-.537-.758l-.87-1.616c.446-.04.786-.162 1.022-.367.238-.207.376-.468.417-.784.04-.297-.017-.564-.17-.802-.154-.237-.355-.413-.603-.527-.25-.113-.647-.205-1.194-.278l-1.875-.245zm-1.92-.157l-.142.007c-.003.13-.02.22-.05.265-.033.047-.074.07-.123.074-.048.002-.144-.02-.29-.067-.288-.092-.51-.148-.666-.172-.156-.023-.328-.03-.517-.02-.518.024-.96.157-1.33.397-.442.29-.78.69-1.017 1.2-.2.43-.287.872-.266 1.33.03.63.253 1.176.667 1.64.552.616 1.33.9 2.332.853.35-.017.665-.07.948-.157.282-.087.565-.217.85-.39l-.075-1.587c-.014-.28.003-.466.05-.564.066-.137.2-.21.4-.22l.094-.003-.007-.146-2.01.098.008.145c.21-.01.357.005.442.042.085.038.15.097.192.175.044.08.07.248.085.508l.07 1.5c-.16.103-.33.182-.506.24-.177.057-.36.09-.55.1-.328.016-.65-.065-.97-.24-.32-.175-.584-.462-.794-.86-.213-.4-.33-.846-.353-1.342-.03-.61.09-1.142.356-1.598.32-.538.81-.825 1.47-.857.484-.022.89.108 1.212.392.224.196.414.495.568.896l.134-.006-.212-1.632z" fill="#034EA2"/><path d="M65.09 32.538l-.823-2.376-.793 2.378h-2.566l2.08 1.473-.797 2.376 2.08-1.474 2.074 1.473-.762-2.37 2.045-1.48-2.536-.002M56.845 24.737l-.824-2.375-.792 2.377H52.66l2.08 1.473-.796 2.374 2.08-1.472 2.073 1.472-.763-2.367 2.047-1.48-2.535-.003M45.672 21.656l-.824-2.376-.792 2.378H41.49l2.08 1.473-.797 2.377 2.08-1.473 2.072 1.473-.762-2.37 2.045-1.48h-2.536M34.636 24.74l-.827-2.378-.793 2.378H30.45l2.08 1.473-.796 2.376 2.08-1.474 2.072 1.473-.762-2.37 2.046-1.48h-2.534M26.388 32.538l-.824-2.376-.792 2.378h-2.567l2.08 1.473-.797 2.376 2.08-1.474 2.073 1.473-.76-2.37 2.044-1.48-2.536-.002M23.33 44.332l-.823-2.377-.792 2.378h-2.567l2.08 1.473-.797 2.376 2.082-1.472 2.072 1.472-.762-2.368 2.044-1.48-2.535-.002M26.842 55.086l-.826-2.375-.79 2.378-2.57.002 2.082 1.472-.797 2.376 2.08-1.474 2.074 1.474-.763-2.368 2.048-1.48-2.536-.004M34.182 62.886l-.824-2.375-.794 2.378h-2.566l2.08 1.473-.798 2.377 2.08-1.474 2.073 1.474-.76-2.37 2.044-1.48h-2.535M45.672 66.907l-.824-2.376-.792 2.378H41.49l2.08 1.473-.798 2.377 2.08-1.472 2.073 1.472-.762-2.37 2.045-1.48h-2.536M57.165 62.887l-.823-2.376-.794 2.378-2.568.002 2.083 1.47-.8 2.378 2.08-1.473 2.074 1.473-.762-2.368 2.046-1.48-2.535-.003M64.507 55.086l-.824-2.373-.795 2.377h-2.566l2.08 1.472-.798 2.376 2.082-1.474 2.072 1.474-.76-2.368 2.044-1.48-2.535-.004M68.28 44.282l-.825-2.376-.79 2.378h-2.57l2.083 1.473-.8 2.377 2.082-1.474 2.073 1.474-.762-2.37 2.046-1.48-2.537-.002M54.214 59.216c-4.658-4.89-14.328-9.217-25.797-10.95l-.053-.293c-.123-.697-.2-1.39-.238-2.077C40.004 47.6 50.78 52.1 56.066 57.816c-.58.506-1.2.974-1.852 1.4M47.113 61.813c-2.153-3.674-8.722-7.27-17.102-8.965-.417-.806-.774-1.653-1.062-2.537 9.614 1.66 18.08 5.86 20.52 11.034-.5.137-1.01.252-1.534.345-.275.046-.546.088-.82.123M31.352 55.008c4.515 1.21 8.348 3.356 9.614 6.453-3.86-.952-7.274-3.248-9.614-6.452" fill="#FFDD2E"/><path d="M45.303 45.668c5.804-1.597 11.66-2.202 16.555-1.758.04.59.05 1.176.028 1.756-3.946-.387-8.708-.063-13.698 1.07.854.336 1.687.684 2.502 1.044 4.083-.63 7.97-.547 10.93.32-.107.577-.242 1.146-.407 1.703-1.997-.6-4.61-.826-7.542-.618 2.304 1.167 4.406 2.424 6.264 3.76-.358.677-.76 1.328-1.207 1.95-6.993-5.07-18.04-9.234-30.587-10.98.05-.764.152-1.52.303-2.258 3.942.552 7.784 1.342 11.434 2.335 7.218-2.51 14.718-3.8 21.3-3.83.17.56.308 1.135.42 1.722-5.663-.026-12.192.926-18.787 2.963.844.263 1.674.536 2.493.82" fill="#FFDD2E"/></svg>