<svg xmlns="http://www.w3.org/2000/svg" width="90" height="90"><path d="M45.01 0l3.17 4.824L52.047.557l2.374 5.26 4.486-3.612 1.523 5.567 4.994-2.864.633 5.736 5.383-2.046-.27 5.764 5.634-1.18-1.167 5.652 5.75-.282-2.038 5.4 5.723.622-2.856 5.012 5.555 1.51L84.17 35.6l5.25 2.363-4.263 3.884 4.796 3.143v.025l-4.8 3.157 4.267 3.87-5.257 2.375 3.608 4.49-5.56 1.525 2.86 5-5.73.632 2.045 5.387-5.758-.27 1.176 5.64-5.645-1.168.28 5.756-5.393-2.04-.622 5.73-5.01-2.86-1.51 5.56-4.5-3.607-2.36 5.257-3.88-4.268L45.01 90l-3.167-4.823-3.867 4.27-2.374-5.258-4.486 3.61-1.523-5.566-4.996 2.863-.634-5.737-5.38 2.046.27-5.764-5.636 1.178 1.168-5.652-5.75.283 2.037-5.4-5.724-.62 2.855-5.012-5.555-1.512L5.853 54.4.6 52.04l4.265-3.884L.047 45l4.818-3.168L.6 37.962l5.256-2.377-3.608-4.49L7.81 29.57l-2.862-5 5.73-.633-2.043-5.387 5.76.27-1.178-5.64 5.645 1.17-.28-5.756 5.394 2.038.62-5.728 5.012 2.858 1.51-5.56 4.5 3.607 2.36-5.257 3.88 4.265L45.012 0z" fill="#ED1A3A"/><path d="M5.684 45c0-21.737 17.606-39.358 39.326-39.358S84.335 23.262 84.335 45c0 21.737-17.606 39.357-39.325 39.357-21.72 0-39.326-17.62-39.326-39.357" fill="#FFDD2E"/><path d="M60.647 73.128l.188.038c.254.077.444.232.57.466.124.234.15.478.073.73-.075.254-.23.444-.467.57-.233.126-.477.15-.73.073-.255-.077-.444-.232-.57-.466-.125-.235-.15-.478-.072-.732.077-.254.232-.444.466-.57.29-.122.113-.068.543-.11zm-31.62-.267l-.19.037c-.255.072-.447.224-.577.456-.13.23-.158.474-.085.73.072.255.224.447.456.576.234.13.478.16.732.086.254-.073.446-.225.575-.457.13-.233.158-.476.086-.73-.072-.256-.224-.448-.456-.578-.288-.128-.112-.07-.54-.12zm37.187-5.134c-.2.01-.404-.007-.6.027-.554.094-1.044.377-1.474.725-.27.222-.49.453-.664.692-.174.238-.323.512-.45.82l1.01 1.226c.177.215.276.375.297.48.027.15-.036.288-.19.414l-.074.06.092.113 1.55-1.277-.092-.112c-.16.133-.287.21-.378.23-.09.02-.177.01-.26-.025-.08-.04-.204-.157-.37-.358l-.953-1.158c.067-.178.154-.343.26-.494.108-.15.235-.287.383-.41.252-.206.558-.335.918-.386.36-.05.745.02 1.152.215.408.192.77.48 1.083.86.388.472.61.97.67 1.493.066.623-.156 1.144-.666 1.564-.375.31-.776.446-1.204.412-.297-.024-.627-.15-.99-.38l-.104.086 1.144 1.178.11-.09c-.078-.105-.117-.185-.12-.242 0-.056.017-.1.055-.13s.13-.072.274-.12c.284-.1.496-.187.635-.262.138-.074.28-.172.425-.292.4-.33.676-.7.828-1.113.18-.496.213-1.018.097-1.568-.096-.462-.29-.87-.58-1.222-.4-.486-.905-.792-1.513-.915l-.303-.044zm-42.737-.79l-1.03 1.21c-.18.21-.32.336-.42.375-.14.054-.288.016-.44-.113l-.073-.062-.094.11 1.53 1.303.095-.11c-.16-.137-.257-.247-.293-.333-.036-.086-.043-.172-.02-.26.02-.086.116-.228.285-.427l.97-1.142c.19.035.366.092.534.17.168.08.325.18.47.305.25.213.43.49.543.837.113.346.11.736-.008 1.17-.12.436-.34.842-.66 1.22-.394.463-.844.77-1.35.92-.6.175-1.153.048-1.657-.38-.37-.313-.574-.684-.616-1.11-.03-.298.037-.645.198-1.044l-.102-.087-.96 1.335.108.092c.09-.094.163-.147.218-.158.055-.012.1-.002.138.03.037.03.093.113.167.246.147.263.27.457.367.58.098.123.22.246.363.368.395.336.808.542 1.242.62.52.09 1.04.03 1.56-.18.438-.178.805-.44 1.1-.788.41-.48.62-1.03.635-1.65.02-.827-.35-1.565-1.115-2.214-.266-.227-.532-.404-.798-.533-.265-.13-.56-.228-.887-.298zM44.86 19.263l.822 2.374 2.534.002-2.044 1.48.76 2.366-2.068-1.472-2.08 1.472.797-2.374-2.08-1.472h2.567l.792-2.376zm11.162 3.08l.823 2.372 2.534.003-2.046 1.478.76 2.365-2.07-1.47-2.078 1.47.796-2.372-2.078-1.47 2.565-.002.792-2.375zm-22.194 0l.825 2.374 2.534.002-2.045 1.478.762 2.367-2.07-1.472-2.08 1.472.797-2.374-2.078-1.47h2.565l.79-2.377zm-8.238 7.793l.824 2.374 2.533.003-2.043 1.48.76 2.366-2.07-1.473-2.08 1.472.798-2.375-2.078-1.472h2.564l.792-2.376zm38.67 0l.824 2.374 2.534.003-2.043 1.48.76 2.366-2.07-1.473-2.08 1.472.798-2.375-2.078-1.472h2.564l.79-2.376zm3.187 11.734l.823 2.375 2.534.004-2.043 1.476.762 2.368-2.07-1.473-2.08 1.474.798-2.375-2.08-1.47 2.566-.003.79-2.376zm-44.912.05l.706 2.036.12.34h2.533l-2.044 1.48.76 2.367-2.07-1.472-2.08 1.473.797-2.375-2.08-1.47 2.567-.002.79-2.376zm38.64-1.792c.308 1.138.168.564.42 1.722-5.66-.026-12.184.925-18.773 2.96.842.262 1.673.536 2.49.82 5.8-1.595 11.65-2.2 16.542-1.757.04.59.05 1.176.028 1.756-3.944-.39-8.7-.065-13.685 1.068.85.335 1.684.682 2.498 1.04 4.08-.627 7.964-.543 10.92.324-.106.575-.24 1.143-.406 1.7-1.997-.6-4.607-.826-7.536-.617 2.3 1.165 4.4 2.422 6.257 3.756-.357.678-.76 1.33-1.205 1.95-6.988-5.067-18.026-9.226-30.562-10.97.05-.764.15-1.518.304-2.257 3.938.55 7.778 1.34 11.424 2.333 6.86-2.308 14.024-3.795 21.284-3.828zm2.5 12.54l.825 2.372 2.533.004-2.043 1.48.76 2.365-2.07-1.474-2.08 1.473.8-2.375-2.082-1.47h2.565l.793-2.376zm-37.633 0l.687 1.975.137.397 2.533.004-1.59 1.15-.454.33.76 2.365-2.07-1.474-2.078 1.473.796-2.375-2.078-1.47 2.564-.003.477-1.43.315-.945zm2.107-6.81c1.715.26.74.103 2.92.484.488.085.258.04.693.13 8.67 1.877 17.975 4.713 24.303 11.296-.58.505-1.198.973-1.85 1.398-4.653-4.885-14.316-9.208-25.776-10.94l-.015-.083-.04-.21c-.12-.696-.2-1.388-.236-2.075zm3.223 9.104c4.512 1.21 8.34 3.353 9.607 6.447-3.857-.952-7.27-3.247-9.607-6.448zM28.97 50.27l.897.163h.002c2.938.59 5.873 1.333 8.65 2.484 3.074 1.166 6.084 2.736 8.448 5.056.137.122.065.053.214.21.353.345.21.185.445.466.77.763 1.358 1.682 1.848 2.643l-.468.116c-.546.135-.193.052-1.065.228-.274.047-.548.088-.82.124-2.154-3.67-8.717-7.266-17.087-8.958-.42-.805-.777-1.652-1.066-2.534zm4.406 10.19l.824 2.373 2.534.002-2.044 1.48.76 2.366-2.07-1.47-2.078 1.47.796-2.373-2.078-1.472h2.565l.79-2.374zm22.965 0l.825 2.374 2.533.004-2.044 1.478.762 2.366-2.07-1.47-2.08 1.47.798-2.374-2.08-1.47 2.565-.003.79-2.374zm-11.48 4.017l.822 2.374 2.534.002-2.044 1.478.76 2.368-2.07-1.47-2.08 1.47.8-2.374-2.08-1.472h2.564l.793-2.375zm.323-46.286h-.19c-14.787 0-26.772 11.995-26.772 26.79 0 14.798 11.986 26.793 26.772 26.793 14.784 0 26.768-11.995 26.768-26.792-.045-3.563-.67-7.124-2.102-10.404-1.614-3.82-4.106-7.29-7.283-9.965-3.07-2.535-6.59-4.543-10.48-5.514-1.555-.4-3.134-.71-4.74-.82-.126-.01-.07-.007-.172-.013-.6-.03-1.2-.074-1.8-.072zm24.985 44.175l-1.16 1.384.11.09.117-.14c.13-.155.266-.235.41-.24.105-.003.28.1.525.304l2.45 2.05-5.4-.06-.09.107 3.354 2.81c.223.185.348.326.374.422.043.155-.006.317-.147.485l-.117.14.11.092 1.16-1.386-.11-.09-.116.137c-.13.158-.267.238-.41.24-.107.006-.282-.095-.527-.3l-2.294-1.92 5.02.065.905-1.08-.108-.09c-.097.115-.177.194-.242.236-.134.085-.248.14-.34.163-.094.024-.256.037-.488.04l-2.766-2.318c-.223-.186-.348-.327-.375-.423-.04-.156.01-.318.15-.488l.117-.138-.11-.09zM20.505 63l-1.284.494.1.117c.35-.077.637-.106.86-.087.17.017.313.063.43.14.117.074.27.224.458.45l.566.673c.092.11.143.193.153.25.01.06.003.11-.022.16-.025.047-.125.144-.3.292l-1.31 1.1-.735-.874c-.14-.166-.223-.305-.25-.418-.03-.113-.024-.216.015-.308.032-.074.133-.205.303-.395l-.09-.11-1.384 1.163.09.108c.238-.178.443-.254.618-.228.133.02.294.14.484.368l.734.873-1.57 1.32-.917-1.09c-.165-.198-.266-.348-.302-.45-.04-.133-.043-.257-.006-.372.036-.116.14-.282.316-.498l-.096-.115-.834.775L19.1 69.4l.11-.09-.118-.142c-.138-.164-.197-.314-.178-.45.016-.1.15-.256.402-.468l2.582-2.167c.193-.163.33-.26.412-.29.082-.03.164-.026.248.01.115.047.213.117.29.21l.12.14.108-.09L20.506 63zm52.684-4.483c-.584.094-.344.015-.738.18-.314.16-.61.49-.884.984-.253.455-.364.865-.332 1.23.033.363.15.66.35.89.2.23.528.47.982.724l1.84 1.024c.25.14.4.253.442.338.096.18.094.358-.005.536l-.095.17.123.07.894-1.605-.124-.07-.095.17c-.095.173-.216.275-.363.307-.106.023-.3-.044-.583-.202l-1.836-1.022c-.48-.268-.8-.5-.953-.7-.154-.197-.23-.45-.23-.755.002-.306.085-.607.25-.904.13-.23.28-.403.45-.517.17-.113.344-.177.518-.19.175-.015.385.025.63.12.246.094.457.19.633.288l1.976 1.1c.253.143.404.263.454.364.073.146.058.313-.047.5l-.097.174.124.068 1.09-1.96-.123-.068-.094.17c-.095.172-.208.272-.338.3-.13.03-.334-.034-.612-.19l-1.772-.985c-.546-.305-.938-.476-1.176-.515l-.26-.02zm-55.592 1.13c-.236.03-.465.06-.668.198-.176.107-.32.25-.43.43-.112.18-.18.383-.206.607-.026.224-.024.61.007 1.16.04.673.018 1.127-.063 1.362-.053.162-.148.284-.283.366-.176.108-.378.13-.607.067-.228-.064-.412-.208-.55-.435-.123-.2-.19-.425-.203-.675-.012-.25.038-.478.15-.686.112-.206.303-.42.573-.64l-.074-.12-1.53.937.074.12c.115-.04.2-.053.257-.037.055.015.1.05.135.108.03.05.055.152.075.307.046.334.14.62.284.854.23.375.534.615.913.718.38.104.727.058 1.045-.136.182-.112.325-.256.426-.432.102-.176.167-.382.195-.62.028-.237.032-.61.013-1.118-.02-.508-.023-.825-.01-.95.02-.185.065-.34.14-.47.074-.127.166-.224.274-.29.196-.12.414-.145.654-.075.242.07.445.24.61.513.145.235.225.483.24.743.017.26-.024.488-.124.68-.1.193-.29.414-.573.665l.074.12 1.517-.928-.073-.12c-.11.046-.193.065-.245.053-.052-.012-.094-.045-.128-.1-.034-.056-.082-.21-.144-.465-.06-.254-.107-.418-.137-.492-.05-.125-.114-.252-.192-.38-.25-.41-.577-.67-.978-.782-.244-.056-.1-.03-.438-.058zm-2.805-4.987l-.025.138c.513.124.885.277 1.116.46.23.185.41.433.538.745.147.36.192.713.137 1.062-.057.35-.215.66-.477.93s-.61.492-1.045.67c-.526.215-.997.322-1.41.32-.416-.004-.757-.1-1.024-.292-.267-.19-.466-.446-.596-.765-.155-.38-.18-.75-.077-1.11.104-.36.37-.712.8-1.058l-.045-.11-1.588.778.05.124c.124-.02.23-.013.32.022.064.03.11.075.135.14.017.04.02.123.01.244-.033.407.022.784.164 1.13.183.447.46.814.836 1.1.375.286.807.455 1.296.505.49.05.974-.022 1.454-.218.595-.243 1.045-.617 1.35-1.123.413-.678.456-1.415.13-2.21-.18-.443-.436-.783-.765-1.024-.33-.24-.758-.392-1.284-.458zm59.966-2.603l-.564 1.716.135.044.058-.174c.063-.19.16-.317.292-.376.097-.04.297-.01.6.088l3.036.996-5.037 1.95-.044.13 4.156 1.363c.277.09.445.176.505.254.097.13.112.298.043.506l-.057.175.135.044.563-1.717-.134-.044-.056.172c-.064.194-.16.32-.292.376-.098.043-.298.015-.6-.085l-2.844-.932 4.686-1.8.44-1.34-.135-.043c-.047.143-.093.246-.138.31-.093.127-.178.22-.256.276-.077.056-.222.13-.437.217l-3.428-1.125c-.277-.09-.445-.175-.505-.254-.097-.127-.112-.297-.042-.508l.056-.17-.135-.045zM14.676 48.57l-.14.03.038.18c.025.12.02.24-.018.362-.03.087-.072.15-.13.187-.074.05-.24.1-.498.154l-3.28.682c-.25.052-.417.072-.505.06-.087-.012-.16-.053-.215-.125-.08-.094-.132-.202-.157-.322l-.038-.18-.138.03.452 2.172.137-.03-.037-.18c-.025-.12-.02-.24.02-.36.027-.088.07-.15.127-.19.076-.05.244-.1.503-.155l1.454-.302.49 2.36-1.453.302c-.248.052-.417.07-.504.058-.088-.013-.16-.054-.215-.123-.08-.096-.13-.203-.156-.323l-.04-.184-.137.03.452 2.175.138-.028-.037-.18c-.024-.12-.018-.24.02-.363.028-.087.07-.15.128-.187.076-.05.243-.102.503-.156l3.28-.682c.304-.063.502-.073.595-.03.142.07.235.21.278.42l.038.18.14-.03-.453-2.176-.14.028.04.184c.024.12.018.24-.02.36-.028.09-.07.152-.128.19-.077.05-.243.1-.5.155l-1.548.322-.49-2.36 1.546-.322c.305-.063.504-.072.597-.027.142.07.234.21.277.416l.038.18.14-.03-.453-2.172zm60.852-2.194l-.286 2.205.14.02.024-.187c.016-.12.06-.232.136-.333.056-.075.117-.122.184-.14.087-.02.26-.015.522.02l1.568.202-.31 2.39-1.567-.202c-.308-.04-.498-.097-.57-.17-.113-.113-.155-.274-.128-.484l.024-.182-.14-.018-.285 2.2.14.02.024-.183c.016-.122.062-.234.137-.338.056-.072.118-.117.184-.134.088-.02.262-.015.523.018l3.32.43c.253.033.42.07.497.11.078.038.133.1.163.187.044.117.058.236.042.357l-.024.182.14.018.285-2.2-.14-.02-.023.183c-.016.122-.06.233-.136.334-.055.074-.116.12-.182.137-.088.022-.264.016-.527-.018l-1.47-.19.308-2.392 1.473.19c.254.033.42.07.498.11.078.042.132.104.163.188.045.116.06.235.043.357l-.024.186.14.017.285-2.205-.14-.018-.024.182c-.015.12-.06.234-.135.337-.056.073-.117.118-.183.135-.088.022-.264.016-.527-.018l-3.32-.43c-.31-.04-.5-.095-.573-.166-.11-.113-.154-.275-.126-.487l.023-.183-.14-.018zM9.496 42.9l-.142.003.034 1.837.14-.003-.003-.195c-.004-.196.05-.346.16-.447.08-.073.283-.112.606-.118l2.1-.038c.552-.01.944.03 1.176.125.232.094.425.273.577.54.153.264.233.566.24.905.003.266-.04.49-.13.674-.092.184-.21.326-.353.426-.143.1-.345.17-.605.21-.26.043-.49.066-.692.07l-2.26.04c-.292.006-.484-.023-.577-.085-.136-.09-.206-.24-.21-.455l-.004-.2-.14.003.04 2.242.14-.002-.002-.195c-.004-.197.043-.34.14-.43.1-.09.307-.137.626-.143l2.028-.037c.625-.01 1.05-.06 1.276-.145.33-.13.59-.34.78-.638.19-.297.282-.73.272-1.295-.01-.52-.12-.93-.33-1.228-.212-.3-.46-.497-.75-.595-.29-.098-.694-.143-1.214-.133l-2.104.038c-.288.005-.473-.018-.553-.07-.173-.107-.26-.262-.264-.466l-.003-.195zm-1.02 2.855c-.115.002-.212.044-.292.126-.08.083-.12.182-.118.3.003.114.045.21.128.29.083.08.182.117.297.115.115-.002.212-.045.29-.128.08-.083.118-.182.116-.296-.003-.112-.044-.208-.126-.288-.082-.08-.18-.12-.295-.117zM78.21 41.2l-.38-.005c-.642.027-1.193.226-1.653.597-.617.498-.908 1.176-.873 2.035.02.477.144.884.372 1.222.23.337.58.626 1.05.867l.073-.122c-.442-.29-.74-.56-.895-.813-.154-.25-.24-.545-.253-.882-.016-.387.062-.736.233-1.045.17-.31.425-.547.763-.712.338-.165.74-.257 1.21-.276.57-.024 1.047.037 1.436.18.39.143.677.35.863.62.186.272.286.58.3.923.017.41-.084.767-.304 1.07-.22.302-.59.544-1.11.723l.004.12 1.757-.192-.005-.133c-.125-.023-.222-.067-.294-.13-.05-.05-.077-.108-.08-.177-.002-.045.023-.123.075-.232.17-.373.246-.746.23-1.12-.02-.482-.157-.92-.413-1.318-.255-.397-.604-.702-1.047-.916-.566-.23-.22-.115-1.06-.283zM8.454 44.41c-.115.002-.213.044-.293.126-.08.082-.12.18-.117.295.002.114.045.21.128.292.084.08.183.12.298.117.114-.003.21-.046.29-.13.08-.082.117-.18.115-.296-.002-.115-.044-.21-.126-.29-.08-.08-.18-.118-.294-.116zm1.645-6.932l-.613 4.192 1.195.236.02-.144c-.23-.05-.405-.134-.527-.247-.123-.113-.2-.24-.227-.378-.02-.106-.014-.28.02-.52L10.06 40l3.923.573c.288.042.47.097.54.164.12.11.162.274.13.49l-.026.183.14.02.318-2.177-.14-.02-.026.177c-.03.2-.103.34-.224.42-.088.057-.29.062-.605.016l-3.923-.574.106-.723c.03-.213.09-.38.18-.5.087-.12.21-.207.368-.264.098-.034.255-.05.47-.047l.022-.145-1.212-.12zm69.85.31l-.14.024.03.18c.02.122.008.242-.033.363-.032.086-.078.146-.137.182-.077.047-.246.092-.505.135l-3.306.552c-.307.05-.506.053-.597.006-.14-.075-.226-.218-.26-.43l-.032-.18-.14.023.367 2.194.14-.023-.032-.184c-.02-.12-.008-.24.034-.36.03-.087.077-.15.136-.185.077-.045.246-.09.505-.133l3.306-.553c.307-.05.506-.052.597-.002.14.075.228.217.262.426l.03.184.14-.023-.365-2.194zm-68.294-5.66l-1.142 3.664 1.206.488.044-.14c-.28-.143-.467-.262-.556-.358-.09-.096-.143-.212-.164-.348-.02-.136.01-.335.093-.598l.494-1.586 3.53 4.588.136.042 1.257-4.033-1.24-.643-.058.114c.376.26.607.493.69.702.085.21.08.47-.018.782l-.633 2.03-3.64-4.705zm66.867.382l-.135.04.052.176c.06.205.056.367-.016.484-.053.085-.24.174-.554.268l-3.233.957c-.242.072-.406.105-.493.1-.087-.005-.16-.04-.224-.107-.087-.09-.148-.192-.183-.31l-.052-.175-.135.04 1.135 3.835 1.375.06-.043-.147c-.353-.068-.628-.156-.825-.262-.15-.084-.262-.183-.34-.3-.076-.115-.156-.313-.24-.594l-.25-.844c-.04-.137-.053-.234-.04-.292.014-.057.042-.102.084-.136.043-.034.174-.083.394-.15l1.64-.484.324 1.093c.06.207.082.37.063.483-.018.115-.064.207-.136.277-.06.054-.204.135-.436.24l.04.136 1.732-.513-.04-.135c-.288.07-.507.057-.657-.037-.114-.07-.213-.246-.297-.53l-.324-1.094 1.967-.582.403 1.365c.073.247.106.424.098.533-.014.138-.06.252-.14.343-.08.092-.243.202-.49.33l.043.144 1.073-.378-1.135-3.834zm-2.14-4.657l-1.214.468.063.132c.303-.088.52-.126.65-.117.13.01.25.056.358.142.107.085.22.252.34.5l.723 1.496-5.713-.94-.127.063 1.836 3.805 1.343-.377-.035-.123c-.452.07-.78.055-.984-.04-.204-.096-.377-.29-.52-.585l-.924-1.916 5.872.952-1.667-3.457zm-62.3-.834l-1.893 3.79 1.06.598.066-.13c-.202-.12-.344-.254-.425-.4-.08-.146-.113-.29-.097-.43.014-.107.075-.27.184-.486l.278-.558 3.547 1.772c.26.13.413.24.46.326.08.14.068.31-.03.506l-.082.164.127.064.983-1.97-.126-.062-.08.16c-.09.18-.205.29-.345.33-.1.026-.294-.032-.58-.175l-3.546-1.772.328-.654c.095-.192.204-.33.326-.417.12-.086.266-.132.433-.137.104-.002.258.032.462.103l.064-.13-1.114-.494zm2.977-4.315l-2.34 3.244.116.083.107-.15c.126-.173.257-.267.393-.282.1-.01.285.083.552.275l2.735 1.972c.205.148.332.257.38.33.05.07.067.15.052.24-.016.125-.06.236-.132.335l-.107.15.114.082 2.34-3.245-.794-1.124-.09.125c.162.32.26.592.296.813.025.17.015.32-.03.45-.043.133-.152.317-.323.555l-.515.714c-.083.116-.152.186-.206.21-.053.025-.106.03-.16.018-.05-.012-.17-.086-.356-.22l-1.388-1 .667-.926c.126-.176.24-.292.343-.347.103-.055.204-.075.303-.06.08.013.23.08.457.197l.083-.115-1.465-1.056-.082.114c.23.186.355.367.373.543.015.133-.064.32-.237.56l-.667.924-1.664-1.198.832-1.155c.15-.21.27-.344.362-.404.118-.072.238-.105.358-.098.12.007.308.07.56.185l.088-.12-.955-.62zm55.938.02l-.116.08.105.15c.123.176.17.33.14.465-.026.098-.173.242-.442.43l-2.76 1.937c-.206.146-.352.23-.435.252-.084.023-.166.013-.246-.03-.11-.056-.202-.134-.272-.235l-.106-.15-.116.08 2.298 3.273 1.322-.38-.088-.126c-.357.048-.645.052-.865.013-.17-.03-.308-.09-.417-.174-.11-.085-.25-.248-.417-.488l-.505-.72c-.082-.118-.126-.205-.13-.264-.007-.058.005-.11.034-.156.028-.045.137-.133.325-.266l1.4-.982.655.933c.124.178.196.324.214.44.018.114.004.216-.042.305-.038.07-.15.192-.337.366l.082.117 1.478-1.037-.08-.116c-.253.157-.464.215-.636.174-.132-.03-.282-.165-.452-.407l-.655-.934 1.68-1.18.817 1.166c.148.21.236.37.263.475.03.136.02.26-.025.37-.046.113-.166.27-.358.47l.086.122.897-.7-2.298-3.273zm-3.417-3.14c.183.105.365.248.544.43.333.337.51.67.532.996.022.326-.075.596-.29.81-.14.138-.305.23-.493.275-.187.047-.375.032-.564-.045-.19-.077-.414-.248-.676-.513-.102-.104-.193-.202-.272-.294-.078-.093-.145-.18-.198-.258l1.418-1.4zm-1.67 1.647c.06.04.13.098.21.174.084.078.18.172.292.285.256.26.433.515.53.766.098.252.12.482.064.69-.055.21-.155.386-.298.527-.218.215-.486.31-.804.283-.318-.026-.64-.203-.964-.532-.203-.205-.383-.437-.542-.696l1.513-1.495zm.87-2.944l-.102.1.138.138c.138.14.2.286.192.436-.008.11-.127.28-.355.506l-2.384 2.356c-.207.204-.363.317-.468.338-.164.03-.322-.033-.475-.187l-.137-.14-.1.1 1.72 1.74c.41.417.755.688 1.032.814s.557.165.84.115c.282-.05.515-.166.698-.347.24-.238.36-.528.352-.87-.006-.244-.108-.522-.306-.832.287.15.56.21.817.178.256-.032.477-.14.663-.322.216-.213.336-.474.36-.78.025-.308-.065-.63-.268-.967-.134-.224-.348-.484-.642-.782l-1.576-1.595zM23.81 16.168l-1.397 1.193.092.108.148-.126c.15-.128.3-.18.447-.16.107.015.266.146.477.393l1.364 1.597c.357.42.574.748.65.988.074.24.058.502-.05.79-.107.285-.29.54-.548.76-.2.17-.402.28-.602.327-.2.047-.385.047-.552 0-.17-.05-.35-.16-.548-.333-.198-.174-.362-.338-.493-.49l-1.467-1.72c-.19-.222-.29-.388-.3-.5-.018-.162.054-.313.217-.452l.15-.13-.09-.107-1.706 1.457.092.107.15-.127c.148-.128.288-.182.42-.164.132.018.3.148.508.39l1.317 1.543c.407.475.715.772.925.892.308.172.638.238.988.197.35-.04.742-.246 1.172-.613.396-.34.642-.685.738-1.037.097-.353.09-.672-.016-.957-.108-.285-.33-.626-.67-1.022l-1.366-1.6c-.186-.22-.285-.376-.296-.47-.028-.202.036-.37.19-.502l.15-.127-.092-.107zM65.4 15.87l-.29.007c-.39.048-.695.22-.916.52-.127.174-.204.36-.232.562-.028.2-.01.416.053.646.064.23.2.578.41 1.04.21.464.333.757.367.877.053.178.07.34.05.487-.022.146-.07.27-.146.373-.136.185-.328.29-.577.317-.25.026-.503-.056-.76-.245-.22-.163-.39-.363-.502-.598-.114-.236-.16-.46-.142-.677.02-.215.113-.492.28-.832l-.114-.084-1.054 1.433.114.084c.085-.085.154-.132.207-.14.05-.01.103.005.154.042.054.04.157.165.31.378.152.212.256.346.312.404.094.097.2.19.322.28.386.284.787.4 1.2.353.415-.048.738-.23.97-.547.124-.166.202-.354.237-.563.035-.208.022-.42-.038-.638-.06-.218-.21-.575-.445-1.072-.29-.61-.44-1.038-.455-1.286-.01-.17.03-.318.124-.446.123-.166.302-.263.538-.29.235-.028.46.037.674.194.19.14.336.322.442.55.105.225.146.456.12.69-.025.235-.12.505-.29.81l.115.083 1.063-1.445-.114-.084c-.093.08-.167.125-.224.132-.058.007-.113-.01-.166-.048-.048-.035-.11-.12-.187-.257-.168-.29-.364-.518-.586-.68-.434-.27-.168-.14-.828-.33zM27.34 14.55l.21.03c.277.073.497.25.66.53.168.286.197.585.09.897-.11.31-.378.592-.805.842l-.078.042c-.032.017-.07.037-.11.062l-1.09-1.863c.194-.17.355-.29.482-.365.345-.167.137-.09.64-.176zm.364-.525l-.2.032c-.266.063-.637.233-1.112.51l-1.632.955.07.122.17-.098c.17-.1.325-.125.468-.08.1.033.235.19.4.472l1.69 2.894c.15.256.222.43.216.527-.01.17-.11.31-.298.42l-.17.1.073.122 1.92-1.122-.07-.122-.177.102c-.167.098-.32.123-.46.075-.103-.032-.236-.19-.4-.47l-.762-1.303c.038-.018.073-.037.107-.055l.093-.052c.07-.042.16-.097.27-.167l2.74 1.208 1.197-.7-.07-.122c-.26.117-.495.17-.704.163-.21-.008-.505-.098-.89-.27l-1.675-.744c.327-.304.522-.61.583-.917.062-.307.012-.6-.15-.874-.15-.258-.358-.434-.624-.528-.33-.092-.13-.052-.6-.08zm32.48-1.042c-.526.033-1.02.21-1.477.536-.386.272-.683.61-.89 1.018-.287.56-.366 1.145-.238 1.752.172.81.703 1.442 1.596 1.898.312.16.612.27.9.334.288.064.598.093.93.085l.724-1.414c.126-.248.233-.402.322-.463.126-.085.278-.082.455.01l.084.042.067-.13-1.79-.912-.065.13c.186.094.307.18.362.255.054.075.08.157.08.247-.002.09-.062.25-.18.482l-.682 1.336c-.19.008-.377-.006-.558-.044-.18-.038-.357-.1-.527-.188-.29-.148-.53-.378-.72-.688-.19-.31-.278-.69-.262-1.14.015-.45.135-.897.36-1.338.277-.543.644-.945 1.102-1.207.545-.31 1.11-.314 1.7-.013.43.22.717.533.856.94.096.28.112.634.047 1.06l.12.06.625-1.52-.126-.064c-.066.112-.124.18-.175.204-.05.025-.098.025-.142.003-.043-.022-.116-.09-.22-.202-.203-.222-.367-.38-.49-.48-.125-.096-.27-.188-.438-.274-.462-.236-.912-.34-1.35-.317zM33.226 11.2l-.132.05c.02.122.018.208-.007.26-.025.053-.068.09-.13.115-.055.022-.16.03-.316.02-.336-.012-.633.03-.89.13-.41.162-.7.42-.868.775-.168.355-.184.705-.048 1.052.078.2.195.365.35.496.155.13.347.23.576.3.228.07.595.14 1.098.21.505.07.817.122.937.157.18.05.325.124.438.22.112.095.192.203.238.32.085.215.07.434-.04.658-.11.225-.315.395-.612.51-.256.1-.514.137-.774.107-.26-.03-.475-.11-.647-.242-.172-.132-.357-.36-.554-.68l-.132.05.65 1.657.13-.05c-.026-.12-.03-.203-.01-.252.022-.05.062-.085.12-.11.063-.023.224-.043.485-.06.26-.014.43-.03.51-.048.13-.027.267-.067.407-.122.447-.175.76-.45.94-.826.18-.376.2-.747.056-1.113-.075-.193-.192-.36-.35-.5-.158-.14-.344-.244-.56-.31-.216-.064-.597-.13-1.143-.195-.67-.08-1.113-.182-1.33-.302-.15-.082-.253-.196-.31-.343-.076-.193-.063-.396.04-.61.103-.214.277-.37.524-.466.218-.086.45-.113.7-.082.247.032.464.12.65.268.183.147.36.373.528.676l.132-.05-.654-1.672zm19.142-1.174l-.04.135c.144.045.248.087.313.13.13.09.225.173.284.25.06.075.135.22.23.43l-1.03 3.46c-.084.277-.164.448-.24.51-.127.1-.296.12-.51.057l-.17-.052-.042.136 1.73.516.042-.135-.176-.052c-.193-.057-.32-.15-.384-.282-.043-.095-.02-.296.072-.6l.912-3.064 2.086 4.982.132.04 1.248-4.193c.083-.278.163-.448.24-.51.126-.1.294-.12.504-.058l.176.053.04-.136-1.73-.517-.04.136.172.05c.196.06.323.153.383.282.045.097.023.297-.07.603l-.853 2.868-1.93-4.635-1.35-.402zm-15.186.58c.072.004.14.018.21.036.186.054.346.165.48.332.133.166.225.36.277.577.074.32.04.6-.1.844s-.34.396-.598.457c-.072.018-.16.032-.265.044-.104.01-.226.02-.363.026l-.494-2.1c.187-.095.344-.157.47-.186l.155-.027h.227zm.347-.38c-.66.068-.37.02-.875.124l-1.85.435.032.138.19-.044c.19-.046.348-.026.47.06.085.062.166.252.24.57l.768 3.262c.068.29.086.477.054.565-.06.16-.196.266-.41.317l-.19.044.033.138 2.164-.51-.032-.137-.194.045c-.19.045-.346.024-.466-.063-.088-.06-.17-.25-.244-.568l-.346-1.47c.17-.005.327-.014.473-.03.145-.016.28-.038.4-.067.497-.116.85-.336 1.063-.658.21-.324.268-.69.17-1.103-.07-.303-.222-.544-.452-.723-.23-.18-.488-.284-.77-.316l-.23-.01zm8.4-.953l-.015.14.194.02c.194.022.33.086.407.195.077.108.1.32.066.638l-.214 2.016c-.067.622-.07 1.05-.014 1.284.087.343.266.627.537.854.27.226.688.37 1.25.428.52.055.94-.004 1.26-.176.324-.172.55-.396.684-.67.133-.275.227-.67.282-1.188l.22-2.093c.03-.286.077-.466.138-.54.127-.157.292-.226.495-.204l.194.02.015-.14-1.826-.194-.015.14.195.022c.195.02.337.092.424.214.06.09.075.294.04.616l-.22 2.09c-.058.547-.148.93-.27 1.15-.122.22-.324.39-.606.507-.282.12-.592.162-.93.126-.263-.028-.48-.098-.652-.21-.172-.114-.298-.248-.38-.403-.08-.155-.125-.364-.134-.626-.01-.263-.004-.495.017-.695l.238-2.25c.03-.288.083-.475.156-.56.104-.124.264-.175.477-.153l.198.02.015-.14-2.23-.237zm-3.968.51c.333-.025.608.056.825.244.217.187.338.442.362.765.023.33-.082.613-.317.845-.235.232-.6.366-1.093.403l-.088.004-.126.008-.158-2.153c.248-.068.446-.106.594-.117zm.35-.3c-.426.013-.24.003-.56.023l-1.884.14.01.14.195-.014c.196-.014.348.03.455.135.077.074.128.274.152.6l.246 3.342c.022.295.01.484-.04.566-.082.15-.234.233-.453.25l-.194.013.01.14 2.217-.163-.01-.14-.203.014c-.193.015-.343-.03-.448-.135-.077-.074-.127-.273-.15-.6l-.112-1.503c.04 0 .08 0 .12-.003l.106-.007c.08-.006.187-.016.316-.03l1.93 2.29 1.382-.102-.01-.14c-.285-.01-.52-.065-.703-.164-.184-.1-.41-.31-.68-.633l-1.178-1.405c.428-.13.737-.318.927-.568.19-.25.273-.533.25-.85-.022-.298-.132-.548-.33-.75-.197-.2-.43-.332-.696-.393-.22-.042-.442-.06-.666-.055z" fill="#ED1A3A"/></svg>