<?xml version="1.0" encoding="UTF-8"?>
<svg xmlns="http://www.w3.org/2000/svg" xmlns:xlink="http://www.w3.org/1999/xlink" id="Ebene_1" x="0px" y="0px" viewBox="0 0 63 70.3" style="enable-background:new 0 0 63 70.3;" xml:space="preserve">  <style type="text/css">	.st04{fill:#FFFFFF;}	.st14{fill:#1A1A18;}	.st244{fill:#85BC22;}	.st34{fill:#494948;}	.st44{enable-background:new    ;}	.st54{fill:#E73230;}	.st64{fill:#20B9D6;}	.st74{fill:#EF7C00;}	.st84{fill:#00963F;}</style>  <path class="st04" d="M62.1,69.4H3.6c-1.5,0-2.7-1.2-2.7-2.7V3.6c0-1.5,1.2-2.7,2.7-2.7h55.9c1.5,0,2.7,1.2,2.7,2.7v65.8H62.1z"></path>  <path class="st14" d="M9.6,66.2v-1.9c0-0.7-0.3-0.9-0.7-0.9s-0.7,0.3-0.7,0.9v2H7.5v-4.4l0.7-0.3v1.7c0.2-0.2,0.5-0.4,0.9-0.4  c0.8,0,1.2,0.5,1.2,1.5v2H9.6V66.2z"></path>  <path class="st14" d="M13.2,66.2v-0.3c-0.2,0.2-0.6,0.4-0.9,0.4c-0.6,0-1.2-0.3-1.2-1.2c0-0.8,0.6-1.1,1.4-1.1c0.3,0,0.6,0.1,0.8,0.1  v-0.2c0-0.4-0.2-0.6-0.6-0.6c-0.4,0-0.6,0.1-0.9,0.2L11.5,63c0.3-0.2,0.7-0.3,1.2-0.3c0.8,0,1.3,0.4,1.3,1.1v2.3L13.2,66.2  L13.2,66.2z M13.2,64.8c-0.2-0.1-0.4-0.2-0.8-0.2c-0.4,0-0.7,0.2-0.7,0.5s0.2,0.6,0.7,0.6c0.4,0,0.7-0.2,0.8-0.4V64.8L13.2,64.8z"></path>  <path class="st14" d="M14.8,66.2v-4.4l0.7-0.3v4.7H14.8z"></path>  <path class="st14" d="M18.1,66.2c-0.2,0.1-0.4,0.2-0.7,0.2c-0.5,0-0.8-0.3-0.8-0.9v-2h-0.5v-0.6h0.5v-1l0.7-0.3v1.3h0.9v0.6h-0.9v1.9  c0,0.3,0.1,0.4,0.4,0.4c0.2,0,0.4-0.1,0.5-0.1L18.1,66.2L18.1,66.2z"></path>  <path class="st14" d="M21.1,66.2v-0.3c-0.2,0.2-0.5,0.4-0.9,0.4c-0.8,0-1.2-0.5-1.2-1.5v-2h0.7v1.9c0,0.7,0.3,0.9,0.7,0.9  s0.7-0.3,0.7-0.9v-2h0.7v3.4L21.1,66.2L21.1,66.2z"></path>  <path class="st14" d="M24.9,66.2v-1.9c0-0.7-0.3-0.9-0.7-0.9s-0.7,0.3-0.7,0.9v2h-0.7v-3.4h0.7v0.3c0.2-0.2,0.5-0.4,0.9-0.4  c0.8,0,1.2,0.5,1.2,1.5v2L24.9,66.2L24.9,66.2z"></path>  <path class="st14" d="M27.6,67.5L27.4,67c1-0.1,1.2-0.3,1.2-1v-0.1c-0.2,0.2-0.5,0.4-0.9,0.4c-0.7,0-1.3-0.5-1.3-1.8  c0-1.2,0.6-1.7,1.4-1.7c0.3,0,0.7,0.2,0.9,0.4v-0.3h0.7V66C29.2,67,28.8,67.5,27.6,67.5L27.6,67.5z M28.6,63.8  c-0.1-0.2-0.5-0.5-0.8-0.5c-0.5,0-0.7,0.4-0.7,1.1c0,0.9,0.3,1.2,0.8,1.2c0.3,0,0.6-0.2,0.8-0.4C28.6,65.3,28.6,63.8,28.6,63.8z"></path>  <path class="st14" d="M31.3,66.3c-0.5,0-1-0.2-1.3-0.4l0.3-0.5c0.3,0.2,0.7,0.3,1,0.3c0.4,0,0.6-0.1,0.6-0.4s-0.3-0.4-0.8-0.6  c-0.7-0.3-1-0.5-1-1.1s0.5-0.9,1.2-0.9c0.4,0,0.9,0.2,1.2,0.4l-0.3,0.5c-0.3-0.2-0.6-0.3-0.9-0.3s-0.5,0.1-0.5,0.3s0.1,0.3,0.6,0.5  c0.8,0.3,1.2,0.5,1.2,1.2C32.6,66.1,32,66.3,31.3,66.3z"></path>  <path class="st14" d="M34.6,62.1c-0.2,0-0.3,0.1-0.3,0.3v0.4h0.6v0.6h-0.6v2.8h-0.7v-2.8h-0.4v-0.6h0.4v-0.5c0-0.6,0.4-0.9,0.9-0.9  c0.2,0,0.4,0,0.5,0.1v0.6C34.8,62.1,34.7,62.1,34.6,62.1L34.6,62.1z"></path>  <path class="st14" d="M37,66.3c-0.9,0-1.5-0.7-1.5-1.8s0.7-1.8,1.5-1.8s1.5,0.7,1.5,1.8C38.5,65.7,37.8,66.3,37,66.3z M36.9,63.4  c-0.5,0-0.8,0.5-0.8,1.1c0,0.8,0.3,1.2,0.8,1.2s0.8-0.5,0.8-1.1C37.8,63.9,37.5,63.4,36.9,63.4z"></path>  <path class="st14" d="M41.2,63.5c-0.1-0.1-0.3-0.1-0.5-0.1c-0.4,0-0.7,0.3-0.7,0.9v1.9h-0.7v-3.4H40v0.3c0.2-0.2,0.4-0.4,0.8-0.4  c0.3,0,0.4,0,0.6,0.1C41.4,62.9,41.2,63.5,41.2,63.5z"></path>  <path class="st14" d="M46,66.2v-1.9c0-0.7-0.2-0.9-0.7-0.9s-0.7,0.3-0.7,0.9v2H44v-1.9c0-0.7-0.2-0.9-0.7-0.9s-0.7,0.3-0.7,0.9v2H42  V63h0.7v0.3c0.2-0.2,0.5-0.4,0.8-0.4c0.5,0,0.8,0.2,0.9,0.5c0.2-0.3,0.5-0.5,1-0.5c0.8,0,1.2,0.5,1.2,1.5v2H46V66.2z"></path>  <path class="st14" d="M48,66.3c-0.3,0-0.5-0.2-0.5-0.5s0.2-0.5,0.5-0.5s0.5,0.2,0.5,0.5S48.3,66.3,48,66.3z"></path>  <path class="st14" d="M51.3,66.2v-0.3c-0.2,0.2-0.5,0.4-0.9,0.4c-0.7,0-1.3-0.5-1.3-1.8c0-1.2,0.6-1.7,1.3-1.7c0.3,0,0.7,0.2,0.9,0.4  v-1.3l0.7-0.3v4.7L51.3,66.2L51.3,66.2z M51.3,63.8c-0.2-0.2-0.5-0.5-0.8-0.5c-0.5,0-0.7,0.4-0.7,1.1c0,0.9,0.3,1.2,0.8,1.2  c0.3,0,0.6-0.2,0.8-0.4C51.3,65.3,51.3,63.8,51.3,63.8z"></path>  <path class="st14" d="M55.7,64.8h-2.3c0.1,0.7,0.4,0.9,0.9,0.9c0.3,0,0.5-0.1,0.7-0.3l0.4,0.4c-0.3,0.3-0.7,0.4-1.2,0.4  c-0.8,0-1.5-0.6-1.5-1.8s0.6-1.8,1.5-1.8c1,0,1.4,0.8,1.4,1.7C55.7,64.6,55.7,64.7,55.7,64.8L55.7,64.8z M54.2,63.4  c-0.5,0-0.7,0.3-0.8,0.9H55C55,63.8,54.8,63.4,54.2,63.4z"></path>  <path class="st244" d="M60.2,59.6H4.5c-1,0-1.7-0.8-1.7-1.7V45.5h57.5L60.2,59.6L60.2,59.6z"></path>  <path class="st34" d="M22.2,16.7c-0.3-0.1-0.5-0.1-0.8-0.1c-0.5,0-0.7,0.2-0.7,0.7v0.4h1.5V19h-1.5v5.6h-1.8V19h-1v-1.3h1v-0.5  c0-1.1,0.7-2.2,2.4-2.2c0.5,0,0.8,0.1,1.1,0.1C22.5,15.2,22.2,16.7,22.2,16.7z"></path>  <path class="st34" d="M22.6,21.2c0-2.1,0.9-3.6,3.1-3.6s3.1,1.4,3.1,3.5s-0.9,3.6-3.1,3.6S22.6,23.4,22.6,21.2z M25.7,23.3  c0.9,0,1.2-0.7,1.2-2.1S26.5,19,25.6,19c-0.8,0-1.2,0.7-1.2,2.1S24.8,23.3,25.7,23.3z"></path>  <path class="st34" d="M34.2,19.5c-0.2,0-0.5-0.1-0.8-0.1c-0.6,0-1.2,0.2-1.6,0.5v4.7H30v-6.9h1.4l0.4,1l0,0c0.3-0.7,0.9-1.2,1.8-1.2  c0.2,0,0.4,0,0.6,0.1V19.5L34.2,19.5z"></path>  <path class="st34" d="M42.4,17.6c1.3,0,2.1,0.7,2.1,2.3v4.8h-1.8v-4.4c0-0.8-0.4-1.1-0.9-1.1s-0.9,0.3-1.1,0.8v4.7h-1.8v-4.3  c0-0.8-0.3-1.2-1-1.2c-0.4,0-0.9,0.4-1,0.8v4.7h-1.8v-6.9h1.5l0.3,0.6l0,0c0.4-0.5,1.1-0.8,1.8-0.8c1,0,1.5,0.4,1.7,0.9l0,0  C40.8,18,41.5,17.6,42.4,17.6L42.4,17.6z"></path>  <path class="st34" d="M11.4,4.7v8.6H9.5V9.7h-3v3.5H4.7V4.7h1.8v3.5h3.1V4.7C9.5,4.7,11.4,4.7,11.4,4.7z"></path>  <path class="st34" d="M18,8.5v2.8c0,0.4,0.1,0.6,0.5,0.6h0.2v1.3c-0.3,0.2-0.6,0.2-0.9,0.2c-0.6,0-1-0.3-1.2-0.7l0,0  c-0.2,0.3-0.8,0.8-1.7,0.8c-1.3,0-2-0.9-2-1.9c0-1.6,1.4-2.3,3.5-2.2V8.7c0-0.8-0.4-1-1-1s-1,0.4-1.2,0.8l-1.3-1  c0.3-0.4,0.9-1.3,2.4-1.3C17.1,6.2,18,6.8,18,8.5L18,8.5z M16.3,10.5c-1.2-0.1-1.8,0.2-1.8,0.8c0,0.4,0.3,0.7,0.7,0.7s0.8-0.2,1-0.5  v-1H16.3z"></path>  <path class="st34" d="M21.5,4v7.1c0,0.5,0.2,0.7,0.6,0.7c0.1,0,0.2,0,0.2,0v1.4c-0.2,0.1-0.5,0.2-0.9,0.2c-1.1,0-1.8-0.7-1.8-1.8V4  C19.7,4,21.5,4,21.5,4z"></path>  <path class="st34" d="M23.6,11V7.7h-0.9V6.6l0.9-0.4l0.6-1.6h1.1v1.7H27v1.4h-1.7V11c0,0.5,0.3,0.7,0.7,0.7c0.3,0,0.7-0.1,0.9-0.3  l0.5,1.4c-0.2,0.2-0.8,0.4-1.9,0.4S23.6,12.7,23.6,11L23.6,11z"></path>  <path class="st34" d="M28.2,6.3H30v4.5c0,0.8,0.4,1.1,1,1.1c0.8,0,1.1-0.6,1.2-0.8V6.3H34v6.9h-1.5l-0.2-0.6l0,0  c-0.4,0.5-0.9,0.8-1.8,0.8c-1.5,0-2.1-0.8-2.1-2.4L28.2,6.3L28.2,6.3z"></path>  <path class="st34" d="M41.3,13.2h-1.8V8.8c0-0.7-0.3-1.1-0.9-1.1c-0.5,0-1,0.3-1.2,0.8v4.7h-1.8V6.3H37L37.4,7l0,0  c0.4-0.5,1.1-0.8,1.8-0.8c1.3,0,2.1,0.7,2.1,2.3V13.2L41.3,13.2z"></path>  <path class="st34" d="M48.4,12.9c0,1.9-1.3,2.8-3.1,2.8c-1.7,0-2.3-0.5-2.7-0.9l1-1.4c0.3,0.5,1,0.8,1.7,0.8c0.9,0,1.3-0.4,1.3-1.3  v-0.4l0,0c-0.2,0.2-0.7,0.4-1.3,0.4c-1.4,0-2.7-0.7-2.7-3.2c0-1.9,1.1-3.5,3.3-3.5c1.2,0,1.9,0.2,2.5,0.4V12.9L48.4,12.9z M45.9,7.7  c-1,0-1.5,0.7-1.5,2c0,1.4,0.5,1.8,1.3,1.8c0.4,0,0.7-0.1,1-0.4V7.8C46.4,7.7,46.2,7.7,45.9,7.7L45.9,7.7z"></path>  <path class="st34" d="M49.8,8.3c0-1.1,1-2.1,2.5-2.1c1.2,0,2,0.4,2.4,1l-1.2,1.2c-0.2-0.3-0.7-0.7-1.3-0.7c-0.4,0-0.7,0.2-0.7,0.5  c0,1,3.2,0.7,3.2,3c0,0.9-0.7,2.1-2.7,2.1c-1.5,0-2.4-0.6-2.8-1l1.1-1.3c0.3,0.4,1,0.9,1.8,0.9c0.6,0,0.8-0.3,0.8-0.6  C52.9,10.3,49.8,10.6,49.8,8.3L49.8,8.3z"></path>  <path class="st34" d="M55.6,10.1V8.6h2.8V10C58.4,10,55.6,10,55.6,10.1z"></path>  <g class="st44">	<path class="st04" d="M10.3,55.4H9l-0.4-1.2h-2l-0.4,1.2H5l2.1-5.5h1.1L10.3,55.4z M8.2,53.1l-0.4-1c-0.1-0.3-0.2-0.7-0.3-0.9   c-0.1,0.2-0.2,0.5-0.3,0.9l-0.4,1H8.2z"></path></g>  <g class="st44">	<path class="st04" d="M14.5,55.4h-1.1v-0.3c-0.2,0.2-0.5,0.4-1,0.4c-1.1,0-1.5-0.7-1.5-1.9v-2.3H12v2.2c0,0.7,0.3,1,0.7,1   c0.5,0,0.7-0.2,0.7-0.9v-2.3h1.1V55.4z"></path>	<path class="st04" d="M18.8,54.2c0,1-0.8,1.3-1.7,1.3c-0.7,0-1.3-0.2-1.7-0.5l0.4-0.8c0.4,0.2,0.9,0.4,1.4,0.4   c0.4,0,0.6-0.1,0.6-0.3c0-0.2-0.2-0.3-0.6-0.4c-1-0.3-1.6-0.5-1.6-1.4c0-0.9,0.7-1.2,1.7-1.2c0.5,0,1.1,0.2,1.5,0.4l-0.3,0.9   c-0.4-0.2-0.9-0.3-1.2-0.3c-0.4,0-0.6,0.1-0.6,0.3c0,0.2,0.1,0.2,0.9,0.5C18.2,53.1,18.8,53.3,18.8,54.2z"></path>	<path class="st04" d="M20.9,55.4h-1.1v-5.2l1.1-0.5V55.4z"></path>	<path class="st04" d="M25.4,55.4h-1.1v-0.3c-0.2,0.2-0.5,0.4-0.9,0.4c-0.8,0-1.5-0.5-1.5-1.5c0-0.9,0.7-1.4,1.7-1.4   c0.4,0,0.6,0.1,0.8,0.2v-0.2c0-0.3-0.2-0.5-0.6-0.5c-0.5,0-0.8,0.1-1.1,0.3l-0.4-0.8c0.5-0.3,0.9-0.4,1.6-0.4c1,0,1.7,0.5,1.7,1.5   V55.4z M24.3,54.2v-0.5c-0.2-0.1-0.4-0.2-0.8-0.2c-0.4,0-0.6,0.2-0.6,0.5c0,0.3,0.2,0.6,0.6,0.6C23.9,54.5,24.2,54.4,24.3,54.2z"></path>	<path class="st04" d="M29.9,55.4h-1.1v-0.3c-0.2,0.2-0.5,0.4-1,0.4c-1.1,0-1.5-0.7-1.5-1.9v-2.3h1.1v2.2c0,0.7,0.3,1,0.7,1   s0.7-0.2,0.7-0.9v-2.3h1.1V55.4z"></path></g>  <g class="st44">	<path class="st04" d="M33.1,50.6c-0.1-0.1-0.2-0.1-0.4-0.1c-0.3,0-0.4,0.1-0.4,0.3v0.3h0.7v1h-0.7v3.1h-1.1v-3.1h-0.5v-1h0.5v-0.5   c0-0.8,0.4-1.1,1.2-1.1c0.3,0,0.5,0,0.7,0.1V50.6z"></path></g>  <g class="st44">	<path class="st04" d="M36.6,49.1l-2.6,7H33l2.6-7H36.6z"></path></g>  <g class="st44">	<path class="st04" d="M43.2,49.8l-1.2,5.5H41l-0.7-2.8c-0.1-0.3-0.2-0.7-0.2-0.9c0,0.2-0.1,0.6-0.2,0.9l-0.7,2.8h-1L37,49.8h1.2   l0.5,2.7c0,0.3,0.1,0.7,0.1,0.9c0-0.2,0.1-0.6,0.2-0.9l0.6-2.7h1l0.7,2.7c0.1,0.3,0.2,0.7,0.2,0.9c0-0.2,0.1-0.6,0.1-0.9l0.5-2.7   H43.2z"></path></g>  <g class="st44">	<path class="st04" d="M47.1,53.3c0,0.2,0,0.3,0,0.3h-2.5c0,0.6,0.5,0.8,0.9,0.8c0.3,0,0.6-0.1,0.7-0.3l0.8,0.6   c-0.3,0.4-0.9,0.7-1.5,0.7c-1.2,0-2-0.8-2-2.2c0-1.3,0.8-2.2,1.8-2.2C46.5,51.1,47.1,52.1,47.1,53.3z M46.1,52.8   c0-0.4-0.3-0.7-0.7-0.7c-0.4,0-0.6,0.3-0.7,0.7H46.1z"></path>	<path class="st04" d="M49.2,50.3c0,0.3-0.3,0.6-0.6,0.6S48,50.6,48,50.3s0.3-0.6,0.6-0.6S49.2,49.9,49.2,50.3z M49.1,55.4H48v-4.1   h1.1V55.4z"></path>	<path class="st04" d="M53.6,55.4h-1.1v-0.3c-0.2,0.2-0.5,0.3-0.9,0.3c-0.9,0-1.6-0.7-1.6-2.2c0-1.2,0.6-2.1,1.6-2.1   c0.4,0,0.7,0.1,0.9,0.3v-1.3l1.1-0.5V55.4z M52.5,54.1v-1.6c-0.2-0.2-0.4-0.4-0.7-0.4c-0.4,0-0.6,0.4-0.6,1.1   c0,0.9,0.3,1.2,0.7,1.2C52.2,54.4,52.3,54.3,52.5,54.1z"></path>	<path class="st04" d="M58,53.3c0,0.2,0,0.3,0,0.3h-2.5c0,0.6,0.5,0.8,0.9,0.8c0.3,0,0.6-0.1,0.7-0.3l0.8,0.6   c-0.3,0.4-0.9,0.7-1.5,0.7c-1.2,0-2-0.8-2-2.2c0-1.3,0.8-2.2,1.8-2.2C57.4,51.1,58,52.1,58,53.3z M57,52.8c0-0.4-0.3-0.7-0.7-0.7   c-0.4,0-0.6,0.3-0.7,0.7H57z"></path></g>  <path class="st244" d="M50.4,43.6H32.5V27.9c0-0.8,0.6-1.4,1.4-1.4H49c0.8,0,1.4,0.6,1.4,1.4V43.6L50.4,43.6z"></path>  <path class="st04" d="M43.6,38.6v2.2h-1.4v-2.1H37v-1.4l5-6.2h1.7v6.2H45v1.3H43.6L43.6,38.6z M41.4,33.8l-1.9,2.4  c-0.3,0.4-0.7,0.9-0.9,1.1c0.3,0,1.1,0,1.6,0h2v-2.8c0-0.5,0-1.4,0-1.8C42.1,32.9,41.7,33.4,41.4,33.8L41.4,33.8z"></path>  <rect x="2.8" y="37" class="st54" width="9.9" height="6.5"></rect>  <path class="st04" d="M8.3,42.3H7.6v-2.9H6.9v-0.6c0.4,0,0.7-0.2,0.8-0.5h0.7L8.3,42.3L8.3,42.3z"></path>  <rect x="12.7" y="37" class="st64" width="9.9" height="6.5"></rect>  <path class="st04" d="M19.2,42.3h-3.1c0-1.4,0.9-2,1.8-2.4c0.3-0.2,0.5-0.3,0.5-0.5S18.2,39,17.7,39s-0.9,0.2-1.1,0.5L16.1,39  c0.4-0.4,1-0.7,1.6-0.7c1,0,1.5,0.4,1.5,1.2c0,0.7-0.4,0.9-1,1.2c-0.7,0.3-1,0.6-1.1,0.9h2.1V42.3L19.2,42.3z"></path>  <rect x="22.6" y="37" class="st74" width="9.9" height="6.5"></rect>  <path class="st04" d="M29.1,41.1c0,0.9-0.7,1.3-1.6,1.3c-0.6,0-1.1-0.2-1.6-0.8l0.6-0.5c0.3,0.3,0.6,0.5,1,0.5c0.5,0,0.8-0.2,0.8-0.5  s-0.2-0.5-0.6-0.5h-0.5v-0.8h0.4c0.3,0,0.5-0.1,0.5-0.4c0-0.2-0.2-0.4-0.7-0.4c-0.3,0-0.6,0.1-0.8,0.3L26,38.8  c0.4-0.4,0.8-0.6,1.4-0.6c0.8,0,1.5,0.4,1.5,1.1c0,0.4-0.2,0.7-0.5,0.8C28.8,40.3,29.2,40.6,29.1,41.1L29.1,41.1z"></path>  <rect x="50.3" y="37" class="st84" width="9.9" height="6.5"></rect>  <path class="st04" d="M56.9,41c0,1-0.7,1.5-1.7,1.5c-0.6,0-1.1-0.1-1.6-0.4l0.4-0.7c0.4,0.2,0.8,0.3,1.2,0.3c0.5,0,0.9-0.2,0.9-0.7  s-0.3-0.6-0.7-0.6s-0.6,0.1-0.8,0.2l-0.8-0.3l0.1-2h2.7v0.8h-1.9v0.7c0.2-0.1,0.5-0.2,0.8-0.2C56.4,39.6,56.9,40.2,56.9,41z"></path></svg>
