<svg width="90" height="90" version="1.1" viewBox="0 0 23.812 23.812" xmlns="http://www.w3.org/2000/svg"><title>Herkunftskennzeichen Deutschland - Gutes aus Deutscher Landwirtschaft</title><defs><clipPath id="j"><path transform="translate(-691.73 -388.06)" d="m647.51 365.95h44.224v44.224h-44.224z"/></clipPath><clipPath id="i"><path transform="translate(-678.03 -391.08)" d="m669.4 400.88c-7.077-0.118-12.718-5.953-12.598-13.03 0.119-7.078 5.953-12.718 13.03-12.598 7.077 0.119 12.718 5.952 12.598 13.03-0.118 7.003-5.831 12.601-12.809 12.6z"/></clipPath><clipPath id="h"><path transform="translate(-677.71 -387.36)" d="m669.4 400.88c-7.077-0.118-12.718-5.953-12.598-13.03 0.119-7.078 5.953-12.718 13.03-12.598 7.077 0.119 12.718 5.952 12.598 13.03-0.118 7.003-5.831 12.601-12.809 12.6z"/></clipPath><clipPath id="g"><path transform="translate(-674.58 -394.49)" d="m669.4 400.88c-7.077-0.118-12.718-5.953-12.598-13.03 0.119-7.078 5.953-12.718 13.03-12.598 7.077 0.119 12.718 5.952 12.598 13.03-0.118 7.003-5.831 12.601-12.809 12.6z"/></clipPath><clipPath id="f"><path transform="translate(-659.72 -381.54)" d="m669.4 400.88c-7.077-0.118-12.718-5.953-12.598-13.03 0.119-7.078 5.953-12.718 13.03-12.598 7.077 0.119 12.718 5.952 12.598 13.03-0.118 7.003-5.831 12.601-12.809 12.6z"/></clipPath><clipPath id="e"><path transform="translate(-660.14 -377.74)" d="m669.4 400.88c-7.077-0.118-12.718-5.953-12.598-13.03 0.119-7.078 5.953-12.718 13.03-12.598 7.077 0.119 12.718 5.952 12.598 13.03-0.118 7.003-5.831 12.601-12.809 12.6z"/></clipPath><clipPath id="d"><path transform="translate(-674.09 -383.26)" d="m669.4 400.88c-7.077-0.118-12.718-5.953-12.598-13.03 0.119-7.078 5.953-12.718 13.03-12.598 7.077 0.119 12.718 5.952 12.598 13.03-0.118 7.003-5.831 12.601-12.809 12.6z"/></clipPath><clipPath id="c"><path transform="translate(-665.35 -391.92)" d="m669.4 400.88c-7.077-0.118-12.718-5.953-12.598-13.03 0.119-7.078 5.953-12.718 13.03-12.598 7.077 0.119 12.718 5.952 12.598 13.03-0.118 7.003-5.831 12.601-12.809 12.6z"/></clipPath><clipPath id="b"><path transform="translate(-672.61 -394.07)" d="m669.4 400.88c-7.077-0.118-12.718-5.953-12.598-13.03 0.119-7.078 5.953-12.718 13.03-12.598 7.077 0.119 12.718 5.952 12.598 13.03-0.118 7.003-5.831 12.601-12.809 12.6z"/></clipPath><clipPath id="a"><path transform="translate(-668.24 -395.64)" d="m669.4 400.88c-7.077-0.118-12.718-5.953-12.598-13.03 0.119-7.078 5.953-12.718 13.03-12.598 7.077 0.119 12.718 5.952 12.598 13.03-0.118 7.003-5.831 12.601-12.809 12.6z"/></clipPath></defs><g><path transform="matrix(.53786 0 0 -.53786 23.786 11.893)" d="m0 0c0-12.212-9.9-22.112-22.112-22.112-12.213 0-22.112 9.9-22.112 22.112s9.899 22.112 22.112 22.112c12.212 0 22.112-9.9 22.112-22.112" clip-path="url(#j)" fill="#fff"/><path transform="matrix(.53786 0 0 -.53786 16.415 10.267)" d="m0 0c-0.118 0-0.237-1e-3 -0.355-3e-3 -2.68-0.044-5.264-0.599-7.697-1.642-2.461 1.125-5.091 1.742-7.834 1.831-11.269 0.335-20.734-8.523-21.092-19.795-0.083-2.61 0.322-5.167 1.203-7.603l1.816 0.656c-0.798 2.205-1.164 4.522-1.089 6.886 0.324 10.208 8.925 18.272 19.101 17.926 2.778-0.089 5.427-0.774 7.876-2.033l5e-3 9e-3c2.424 1.172 5.029 1.79 7.743 1.835 8.199 0.156 15.356-4.972 17.907-12.713l1.834 0.603c-2.781 8.438-10.556 14.043-19.418 14.043" clip-path="url(#i)" fill="#231f20"/><path transform="matrix(.53786 0 0 -.53786 16.245 12.268)" d="m0 0c-2.673-0.044-5.25-0.596-7.677-1.633-2.468 1.131-5.105 1.751-7.854 1.839-5.459 0.172-10.662-1.79-14.646-5.528-3.983-3.739-6.273-8.805-6.446-14.266-0.083-2.61 0.322-5.168 1.203-7.602l1.815 0.656c-0.797 2.204-1.163 4.52-1.088 6.886 0.156 4.944 2.23 9.532 5.838 12.918 3.608 3.385 8.322 5.171 13.262 5.006 2.777-0.087 5.427-0.771 7.877-2.032l5e-3 -0.01c2.424 1.173 5.029 1.79 7.743 1.836 0.108 2e-3 0.215 2e-3 0.322 2e-3 8.025 0 15.067-5.076 17.585-12.715l1.834 0.603c-2.818 8.549-10.747 14.159-19.773 14.04" clip-path="url(#h)" fill="#ed1c24"/><path transform="matrix(.53786 0 0 -.53786 14.559 8.4328)" d="m0 0c-2.424-0.401-4.666-1.22-6.677-2.361 0.813-0.265 1.61-0.575 2.384-0.931 2.557 1.163 5.45 1.791 8.614 1.618 7.321-0.401 13.835-5.224 16.271-12.139 3.777-10.725-2.854-21.959-13.6-24.163-1.377-0.282-2.749-0.396-4.098-0.366-0.572-0.632-1.182-1.23-1.826-1.795 2.054-0.229 4.177-0.15 6.308 0.287 11.269 2.311 18.44 13.615 15.561 24.89-2.575 10.083-12.67 16.66-22.937 14.96" clip-path="url(#g)" fill="#231f20"/><path transform="matrix(.53786 0 0 -.53786 6.5682 15.401)" d="m0 0c-10.058-1.122-17.328-10.218-16.206-20.276 1.123-10.058 10.218-17.328 20.277-16.206 10.058 1.123 17.327 10.219 16.205 20.277-1.122 10.057-10.218 17.327-20.276 16.205m4.283-38.383c-11.107-1.239-21.151 6.788-22.39 17.895-1.239 11.106 6.788 21.15 17.895 22.389 11.106 1.24 21.15-6.788 22.389-17.894 1.24-11.107-6.788-21.151-17.894-22.39" clip-path="url(#f)" fill="#f9a72b"/><path transform="matrix(.53786 0 0 -.53786 6.7964 17.446)" d="m0 0c-7.961-0.888-13.716-8.088-12.827-16.049 0.888-7.962 8.088-13.716 16.049-12.828 7.961 0.889 13.716 8.088 12.827 16.05-0.888 7.961-8.088 13.715-16.049 12.827m3.434-30.778c-9.01-1.005-17.157 5.507-18.163 14.516-1.005 9.01 5.507 17.158 14.517 18.163 9.01 1.006 17.157-5.506 18.163-14.516 1.005-9.01-5.507-17.158-14.517-18.163" clip-path="url(#e)" fill="#f9a72b"/><path transform="matrix(.53786 0 0 -.53786 14.3 14.476)" d="m0 0c-0.717-0.136-1.412-0.321-2.088-0.543 0.701-0.437 1.374-0.915 2.022-1.428 0.141 0.031 0.28 0.064 0.422 0.091 7.871 1.49 15.486-3.701 16.976-11.572s-3.702-15.487-11.573-16.977c-0.142-0.027-0.283-0.047-0.425-0.069-0.416-0.714-0.869-1.405-1.361-2.068 0.71 0.04 1.425 0.122 2.142 0.258 8.908 1.686 14.783 10.304 13.097 19.211-1.686 8.908-10.304 14.783-19.212 13.097" clip-path="url(#d)" fill="#ed1c24"/><g fill="#231f20"><path transform="matrix(.53786 0 0 -.53786 9.5948 9.8183)" d="m0 0c-0.712-0.24-1.483 0.144-1.723 0.856-0.239 0.712 0.144 1.483 0.856 1.722 0.712 0.24 1.483-0.143 1.722-0.855 0.24-0.712-0.143-1.483-0.855-1.723m-1.187 3.528c-1.236-0.416-1.901-1.756-1.485-2.992s1.755-1.901 2.991-1.485c1.237 0.416 1.902 1.755 1.486 2.991-0.416 1.237-1.756 1.902-2.992 1.486" clip-path="url(#c)"/><path transform="matrix(.53786 0 0 -.53786 13.501 8.6617)" d="m0 0c-0.556-0.187-1.157 0.112-1.344 0.667-0.187 0.556 0.112 1.158 0.667 1.345 0.556 0.187 1.157-0.112 1.344-0.668 0.187-0.555-0.111-1.157-0.667-1.344m-0.904 2.688c-0.929-0.313-1.429-1.319-1.116-2.248 0.312-0.929 1.319-1.428 2.247-1.116 0.929 0.313 1.429 1.319 1.116 2.248-0.312 0.928-1.319 1.428-2.247 1.116" clip-path="url(#b)"/><path transform="matrix(.53786 0 0 -.53786 11.153 7.8175)" d="m0 0-0.506-0.17c-0.586 0.665-1.411 1.078-2.294 1.15l-0.686 2.04 1.701 0.589 1.176-1.797zm-3.353 1.056-1.837-0.617-0.425 1.882 1.65 0.555zm6.218 1.727c-0.488-0.039-2.608-0.595-3.185-0.734l-1.454 2.212-4.457-1.527 0.156-0.543 0.135-0.024 0.369-1.808-0.695-0.233 0.387-1.148c0.341 0.597 0.881 1.084 1.58 1.328 0.946 0.33 1.999 0.055 2.796-0.553 0.796-0.607 1.04-1.273 1.108-1.936l2.409 0.811-0.036 0.08c-0.394 1.171 0.236 2.439 1.406 2.833 0.263 0.088 0.53 0.118 0.791 0.108l-0.271 0.688c-0.282 0.394-0.649 0.477-1.039 0.446" clip-path="url(#a)"/><path d="m1.5256 12.22c0.018906 0.6177 0.46012 0.76267 1.1976 0.74376 0.86982-0.02521 1.2165-0.18909 1.2039-0.71855-0.00625-0.208-0.088246-0.37188-0.27733-0.47273v-0.0062l0.2143-0.0062-0.00625-0.34667-1.2417 0.03152 0.018905 0.75637 0.34037-0.0062-0.00625-0.30885 0.23321-0.0062c0.25212-0.0062 0.37818 0.16388 0.37818 0.27733 0.00625 0.2143-0.19539 0.32146-0.89503 0.34036-0.64921 0.01891-0.80679-0.10716-0.81309-0.29624-0.00625-0.1954 0.2017-0.25843 0.37818-0.27103l-0.012655-0.44752c-0.49164 0.01266-0.72485 0.25212-0.71224 0.73746z" aria-label="G"/><path d="m1.5808 10.942 1.5947 0.26473c0.59879 0.094535 0.78158-0.23952 0.84461-0.61139 0.081933-0.49164-0.15758-0.76897-0.59879-0.83831l-1.601-0.26473-0.075638 0.45382 1.601 0.26473c0.26473 0.03781 0.37188 0.14496 0.34036 0.32776-0.031514 0.17649-0.16388 0.24582-0.42861 0.208l-1.601-0.26473z" aria-label="U"/><path d="m1.8833 9.2327 0.35927 0.11976 0.16388-0.47273 1.8216 0.624 0.15128-0.44121-1.8216-0.624 0.16388-0.47903-0.35927-0.11976z" aria-label="T"/><path d="m2.4663 7.6065 2.0422 1.0778 0.6177-1.1661-0.33406-0.17648-0.40339 0.75637-0.55467-0.28994 0.35927-0.68073-0.33406-0.17649-0.35927 0.68073-0.47903-0.25212 0.38448-0.72485-0.34036-0.18279z" aria-label="E"/><path d="m3.8199 5.3657c-0.28994 0.35927-0.26473 0.71855 0.075638 0.98958 0.31515 0.25843 0.57358 0.17018 0.86352 0.0062531l0.26473-0.15128c0.15757-0.094543 0.25212-0.050419 0.35927 0.037811 0.13867 0.11345 0.15127 0.26473 0.044123 0.39079-0.11976 0.15127-0.25212 0.19539-0.47273 0.018905l-0.05042-0.044123-0.28994 0.35927 0.056731 0.044123c0.39079 0.32146 0.69334 0.23952 0.99588-0.13237 0.32776-0.40339 0.32776-0.76897-0.044123-1.0652-0.24582-0.2017-0.46012-0.1954-0.75006-0.037826l-0.34667 0.17648c-0.16388 0.088246-0.25843 0.094543-0.39079-0.012654-0.13237-0.10086-0.15128-0.23321-0.037811-0.37188 0.10715-0.13237 0.23952-0.12606 0.4223 0.018905l0.28364-0.34667-0.044123-0.037826c-0.32776-0.25842-0.65552-0.19539-0.93915 0.15758z" aria-label="S"/><path d="m5.8652 3.4827 0.79418 2.2502 0.40339-0.27103-0.18279-0.46643 0.50424-0.34036 0.35927 0.34036 0.40339-0.27103-1.8027-1.5695zm0.46642 0.17018 0.76267 0.73115-0.37188 0.25212-0.39709-0.98328z" aria-label="A"/><path d="m7.2709 2.605 0.6177 1.4938c0.23321 0.56097 0.6177 0.53576 0.97067 0.39079 0.46012-0.18909 0.56727-0.52945 0.39709-0.94546l-0.624-1.5001-0.42861 0.17648 0.624 1.5001c0.10086 0.24582 0.063029 0.39079-0.10085 0.46012-0.17018 0.069325-0.29624-0.006251-0.39709-0.25212l-0.624-1.5001z" aria-label="U"/><path d="m9.9686 1.6737c-0.45382 0.088246-0.65552 0.37818-0.57988 0.80679 0.075638 0.39079 0.32146 0.49164 0.65552 0.56097l0.29624 0.056731c0.17649 0.031515 0.22691 0.11976 0.25212 0.26473 0.03152 0.17018-0.06303 0.30255-0.22061 0.32776-0.1954 0.037826-0.31515-0.018906-0.36558-0.29624l-0.012656-0.063029-0.46012 0.088246 0.012655 0.069341c0.094543 0.49164 0.37188 0.63661 0.84461 0.54837 0.51055-0.10086 0.74376-0.37818 0.66182-0.84461-0.06303-0.31515-0.22061-0.44752-0.54836-0.52315l-0.37818-0.081934c-0.18909-0.037826-0.26473-0.10086-0.29624-0.26473-0.031514-0.17018 0.044123-0.27733 0.22061-0.30885 0.16388-0.031514 0.26473 0.056732 0.30254 0.28364l0.44121-0.081934-0.0063-0.05042c-0.075588-0.4097-0.37183-0.57358-0.81935-0.49164z" aria-label="S"/><path d="m12.255 1.5193-0.23952 2.2943 0.74376 0.075638c0.64291 0.069341 0.81939-0.37188 0.90134-1.0967 0.050464-0.54206 0.056717-1.1219-0.63032-1.1913zm0.25842 2.0044 0.16388-1.6073 0.19539 0.018905c0.35297 0.037826 0.37187 0.29624 0.31516 0.8194-0.06297 0.6177-0.15124 0.8194-0.46013 0.78788z" aria-label="D"/><path d="m14.322 1.8092-0.66813 2.2061 1.2606 0.37818 0.10718-0.35927-0.81939-0.24582 0.18279-0.59879 0.73745 0.22061 0.11344-0.36558-0.73745-0.2206 0.15124-0.51685 0.78789 0.23951 0.11344-0.36558z" aria-label="E"/><path d="m16.078 2.386-0.75638 1.4371c-0.28363 0.52946-0.02515 0.80679 0.30885 0.98328 0.44122 0.23321 0.77528 0.094543 0.98329-0.30255l0.76266-1.4371-0.40969-0.2143-0.76267 1.4371c-0.11969 0.23952-0.25213 0.30255-0.416 0.2143-0.16388-0.081935-0.18279-0.22691-0.06297-0.46642l0.76266-1.4371z" aria-label="U"/><path d="m17.594 3.2117-0.23321 0.30255 0.39709 0.30255-1.1661 1.5316 0.37188 0.28364 1.1661-1.5316 0.40339 0.30885 0.23322-0.30255z" aria-label="T"/><path d="m19.448 4.7449c-0.31514-0.34036-0.66811-0.35297-0.98327-0.056732-0.29624 0.27733-0.24582 0.54206-0.11969 0.85721l0.10718 0.27733c0.07563 0.17018 0.02515 0.25212-0.08187 0.35297-0.12609 0.11976-0.28364 0.11345-0.39709-0.00625-0.13234-0.13867-0.15757-0.27733 0.05046-0.46643l0.04406-0.044124-0.31516-0.34036-0.05046 0.044124c-0.36558 0.34667-0.33406 0.66182-0.0061 1.0085 0.35927 0.38449 0.71855 0.4223 1.0589 0.10084 0.23321-0.22061 0.26472-0.42861 0.14499-0.74376l-0.13233-0.35928c-0.06297-0.17648-0.05672-0.27733 0.06937-0.39079 0.11984-0.11976 0.24582-0.11345 0.37189 0.012655 0.11344 0.12606 0.09453 0.25212-0.07563 0.416l0.30885 0.32776 0.03781-0.037826c0.30256-0.28994 0.28365-0.624-0.03155-0.95176z" aria-label="S"/><path d="m20.725 6.3931c-0.34667-0.56097-0.78158-0.42861-1.4245-0.025218-0.65552 0.4097-0.95176 0.74376-0.6051 1.2984 0.32146 0.51055 0.73116 0.4097 1.185 0.13237l-0.25213-0.39079c-0.35927 0.22061-0.54206 0.23952-0.64921 0.063029-0.11969-0.19539-0.0061-0.34667 0.54837-0.69333 0.49164-0.30885 0.75636-0.43491 0.88873-0.22061 0.13234 0.2017-0.01226 0.34036-0.25213 0.48533l0.23952 0.39079 0.01891-0.012655c0.416-0.25843 0.59249-0.56728 0.30255-1.0274z" aria-label="C"/><path d="m21.35 7.5939-2.1619 0.80049 0.15757 0.43491 0.95807-0.35297 0.18909 0.50425-0.95807 0.35297 0.16388 0.44121 2.1619-0.80049-0.16387-0.44121-0.8257 0.30254-0.1891-0.50424 0.8257-0.30254z" aria-label="H"/><path d="m22.037 9.6865-2.2817 0.35297 0.20171 1.2984 0.37188-0.05673-0.13234-0.84461 0.61771-0.09454 0.11969 0.76267 0.37188-0.05673-0.11969-0.76267 0.53576-0.08825 0.12609 0.81309 0.38448-0.05673z" aria-label="E"/><path d="m22.277 11.634-2.3069-0.10716-0.02516 0.46012 0.97698 0.04412-0.0061 0.25842c-0.01226 0.16388-0.11344 0.25212-0.30255 0.25212l-0.37188-0.0062c-0.15757-0.0062-0.27104 0.01266-0.32146 0.05042l-0.01891 0.49794 0.01891-1e-6c0.05672-0.10085 0.28994-0.08193 0.416-0.08193 0.46643 0.01266 0.66183-0.0062 0.71855-0.34036h0.0061c0.03781 0.25212 0.2206 0.39709 0.54835 0.4097 0.39709 0.01891 0.6114-0.2017 0.63032-0.57358zm-1.0337 0.4097 0.66182 0.03151-0.0061 0.23321c-0.01226 0.1954-0.11344 0.30255-0.32775 0.29624-0.23951-0.012651-0.34667-0.13866-0.33406-0.35297z" aria-label="R"/><path d="m21.903 14.617-2.1872-0.73115-0.4097 1.2165 0.35928 0.11976 0.26472-0.78158 1.8279 0.6114z" aria-label="L"/><path d="m20.937 16.924-1.664-1.7018-0.24582 0.416 0.35928 0.34036-0.31516 0.52315-0.47273-0.15127-0.24582 0.416 2.2943 0.64921zm-0.49164 0.05042-0.99588-0.34036 0.23321-0.39079 0.76267 0.72485z" aria-label="A"/><path d="m19.904 18.484-1.664-1.5947-0.28994 0.30255 1.1661 1.1156-0.0061 0.0062-1.5569-0.70594-0.36558 0.38449 1.664 1.5947 0.28994-0.30885-1.1409-1.0904 0.0061-0.0062 1.5253 0.68703z" aria-label="N"/><path d="m18.314 20.034-1.2921-1.9098-0.62401 0.4223c-0.52946 0.35927-0.38448 0.81309 0.02516 1.4182 0.30886 0.44752 0.67443 0.89503 1.2417 0.51055zm-1.4875-1.3615 0.90763 1.3426-0.16388 0.10716c-0.28994 0.1954-0.47273 0-0.76897-0.43491-0.34667-0.51685-0.4097-0.72485-0.15124-0.89503z" aria-label="D"/><path d="m16.815 21.067-1.2354-1.9918-0.47904 0.18909 0.36558 1.6514-0.85722-1.4623-0.47903 0.19539 0.45383 2.3006 0.416-0.16388-0.3908-1.6892 0.0061-3e-6 0.87612 1.4938 0.416-0.16388-0.37188-1.6892 0.0061-0.0062 0.85722 1.5001z" aria-label="W"/><path d="m14.121 21.993-0.4412-2.2628-0.46012 0.08825 0.4412 2.2628z" aria-label="I"/><path d="m12.97 22.204-0.06303-2.3069-0.46012 0.01266 0.02521 0.97697-0.25842 0.0062c-0.16388 0-0.25843-0.09453-0.27103-0.28364l-0.02521-0.37188c1e-6 -0.15758-0.03151-0.26473-0.06933-0.31515l-0.49794 0.01266v0.01891c0.10715 0.05673 0.10086 0.28994 0.11345 0.416 0.02521 0.46642 0.05673 0.65552 0.39079 0.68703v0.0062c-0.24582 0.05673-0.37818 0.25212-0.37188 0.57988 0.01266 0.39709 0.25212 0.59249 0.624 0.57988zm-0.48533-0.99588 0.01266 0.66182-0.23321 0.0062c-0.19539-2e-6 -0.30885-0.09454-0.31515-0.30885-0.0062-0.23951 0.11345-0.35297 0.32776-0.35297z" aria-label="R"/><path d="m11.217 22.231 0.05042-0.38449-0.49794-0.06932 0.26473-1.9035-0.46642-0.06303-0.26473 1.9035-0.49794-0.06932-0.050419 0.38449z" aria-label="T"/><path d="m8.8561 21.814c0.44121 0.13237 0.75636-0.02521 0.88873-0.44122 0.11976-0.38448-0.063028-0.58618-0.32146-0.80049l-0.22691-0.18909c-0.14496-0.11345-0.15127-0.2143-0.10715-0.35297 0.050419-0.17018 0.18909-0.23321 0.34667-0.18909 0.18909 0.06303 0.27733 0.16388 0.18909 0.43491l-0.018905 0.06303 0.44121 0.13867 0.02521-0.06932c0.14496-0.47903-0.03783-0.73745-0.49164-0.88242-0.50424-0.15128-0.8383-0.0062-0.97697 0.44121-0.094543 0.30885-0.018905 0.49794 0.23952 0.71855l0.29624 0.24582c0.14496 0.11976 0.18279 0.208 0.13237 0.37188-0.050421 0.15757-0.15758 0.2269-0.32776 0.17648-0.16387-0.05041-0.208-0.17648-0.13866-0.40339l-0.42861-0.13237-0.018905 0.05673c-0.11976 0.39709 0.063029 0.67442 0.49794 0.81309z" aria-label="S"/><path d="m6.9226 20.999c0.58618 0.31516 0.89503-0.018909 1.2543-0.68073 0.37188-0.68073 0.46643-1.1093-0.11345-1.4245-0.52315-0.28364-0.832-0.006193-1.0841 0.46012l0.4097 0.22691c0.2017-0.37188 0.35297-0.47903 0.53576-0.37818 0.2017 0.10715 0.17018 0.29624-0.14496 0.86982-0.27733 0.51055-0.44752 0.75006-0.66812 0.6303-0.21431-0.11345-0.15128-0.30254-0.018906-0.54837l-0.40339-0.22061-0.012655 0.01891c-0.22691 0.4286-0.22691 0.78788 0.24582 1.0463z" aria-label="C"/><path d="m5.8007 20.263 1.4875-1.7649-0.35297-0.29624-0.65552 0.78158-0.4097-0.34667 0.65552-0.78158-0.35927-0.30254-1.4875 1.7649 0.35927 0.30254 0.56727-0.67443 0.4097 0.34667-0.56727 0.67443z" aria-label="H"/><path d="m3.8231 18.347 2.2124-0.90764-0.28994-0.38448-0.45382 0.2017-0.36558-0.48534 0.32146-0.37818-0.29624-0.38448-1.4686 1.8783zm0.15128-0.47903 0.69334-0.80049 0.27103 0.35927-0.96437 0.44752z" aria-label="A"/><path d="m2.8414 16.899 2.08-1.0022-0.2017-0.416-0.90133 0.43491-0.33406-0.69964-0.34036 0.16388 0.33406 0.69964-0.49164 0.23321-0.35927-0.74376-0.34667 0.17018z" aria-label="F"/><path d="m2.2 15.536 0.37188-0.10715-0.13867-0.47903 1.8405-0.54836-0.13867-0.44752-1.8405 0.54837-0.13867-0.48533-0.37188 0.10715z" aria-label="T"/></g></g></svg>
