<svg xmlns="http://www.w3.org/2000/svg" width="125" height="90"><path d="M.473 0h124.054v90H.473z" fill="#FFF"/><path d="M1.367 1.204h122.215v87.592H1.367z" fill="#FFF"/><path d="M123.645 57.892c-.304-.583-.863-.545-1.167-1.083l-.72-.694c-.083-.365-6.565-.56-6.772-.863l-.037.036c-.402-.33-.317-1.07-.96-1.217-.306-.28-.743-.426-1.108-.634-.426-.194-.837-.34-1.3-.437-.145-.244-.498-.22-.656-.462h-.146c-.134-.158-.413-.4-.717-.39-.16-.12-.34-.242-.584-.17-.196-.194-.597-.074-.828-.303-.56.17-1.022-.38-1.57-.243-.583.048-1.23-.085-1.81-.256l.047-.036c-.694-.22-1.497-1.034-2.178-.45-.255.085-.4.255-.596.45-.754.06-1.666.51-2.407 0-.438-.073-.78-.426-1.242-.485-.365-.256-.78-.464-1.13-.79-.05-.194-.39-.438-.524-.633-1.292-.572-2.372-1.277-3.83-1.603-.44-.547-1.17-.57-1.79-.73-.133-.036-.22-.146-.38-.11-.047-.132-.242-.132-.337-.196-.623-.338-.96-.912-1.425-1.457-.095-.4-.583-.428-.864-.644-.532-.097-1.277-.097-1.775.18-.925-.158-1.582.623-2.53.56-.4.11-.68.33-1.104.243-.293-.035-.624-.305-.928-.485-.583-.413-1.445-.413-1.898-1.083h-.097c-.182-.268-.644-.463-.827-.73-.4-.146-.56-.487-.85-.73.01-.243-.244-.146-.354-.305-.657-.524-1.01-1.376-1.934-1.604-.38-.438-1.01-.573-1.3-1.12-.147-.242-.45-.427-.828-.352-.243.084-.547.207-.62.426-.173.124-.402.172-.5.352-.765-.06-.498-1.02-.96-1.362-.243-.4-.803-.22-1.167-.206-.062.11-.158.11-.244.172l-.036-.063c-.256.255-.56.67-.864.927-.4.11-.912.18-1.277.387-.778.205-1.642-.306-2.37-.692-.23-.183.108-.732-.28-.864.025-.23.18-.486 0-.67-.16-.415-.036-.996-.477-1.154-.937-.438-1.484.608-2.14.946-.27.097-.67.33-.72.693l-.074.62c-.192-.06-.073.172-.17.243-.17.23-.548.182-.548.534-1.07 1.093-2.846.8-4.062 1.57-.085.277-.4.328-.56.447.013.134-.23.134-.242.244-.18.012-.11.28-.33.38-.315.06-.73.328-.948.144-.39-.123-1.01.096-1.167-.388l-.038.06c.037-.278-.228-.278-.386-.4-.304-.486-.706-.572-1.024-.9-.633-.083-1.555-.475-2.08.133-1.12-.134-2.272.073-3.357 0-.788.34-1.908.645-1.873 1.8-.146.277-.4.4-.705.484-.365.585-1.25.792-1.837 1.315l-.097.085-.037-.037c-.352.134-.69.28-.946.56-.584.4-1.02.973-1.63 1.35-.705.96-1.447 1.616-2.3 2.396-.037.242-.56.277-.583.595-.304.18-.462.413-.864.386-.085.527-.56.184-.705.685-.926.268-1.79.837-2.773.815-.583.12-.997.57-1.532.45-.244.097-.56.316-.83.097-.255.048-.545-.243-.752-.34-.414.158-.414-.34-.815-.207-.096-.207-.33-.123-.485-.134-.134-.17-.413-.18-.608-.255-1.046-.34-1.97.207-2.93.318-.67.172-1.083.828-1.62 1.045-.777.427-1.554 1.045-2.492.73-.717-.145-1.3.38-1.873.622-.012.365-.462.242-.582.484-.56.33-1.168.91-1.714 1.216.123.268-.22.085-.28.182-.533.304-1.057.485-1.665.547-.365.122-.547-.208-.887-.304-.912.208-1.85.208-2.663.45-.51.22-9.268.317-9.79.67l-.33.194.013-55.642h122.216l.06 56.69z" fill="#2A7CB4"/><path d="M102.74 63.218c.74.063 1.42.476 2.188.39.243.096.462.206.732.242.593.304 1.29.377 1.897.634.474.062 1.083.123 1.508.436.533-.06 1.107.414 1.764.39.12.13.386.097.51.278.705.173 1.423.428 2.067.596.132.074.316.037.474.06.026.125.172.125.245.183 1.082.18 8.38.256 9.46.304v22.064H1.366V71.33c.192-.388 9.134-.074 9.39-.415.91.063 1.836-.24 2.638-.484v-.048c1.022-.218 2.48.23 3.48-.34 1.346-.304 3.122.05 4.414-.484.594.06 1.105-.257 1.628-.28.5-.353 1.19-.328 1.715-.596.5.146.572-.435 1.092-.228l.112-.146c.268.012.484-.244.8-.146.56-.122 1.144-.158 1.68-.34l.133-.147.036.037c.365-.158.572-.256.973-.28.352-.23.704-.476 1.106-.656.608-.34 1.445-.463 1.91-1.01.62-.67 1.69-.427 2.54-.692.074.146.133-.06.243-.05 1.263-.132 2.554-.132 3.722-.194.255.244.4-.06.68.037.685-.243 1.33.292 2.057.11 1.7.317 3.173.378 4.888.378.83-.084 1.728 0 2.53-.242 2.08.582 4.414.267 6.567.838l1.216.133c.16.146.438.146.682.207.596.085 1.39.036 2.068.036 1.02-.243 2.3.146 3.442-.317 1.252.012 2.384-.317 3.527-.415.704-.062 1.504-.256 2.272-.18 1.546.06 2.978-.124 4.487-.195.12-.195.474-.06.607-.11 1.143-.194 2.116-.182 3.27-.182.622-.158 1.46-.377 2.142-.304 1.203-.182 2.406 0 3.49-.33.56-.06 1.313.11 1.92.05.378-.146.74-.146 1.18-.208.718.062.925.16 1.582-.074 2.286-.365 4.428-.692 6.714-.9 2.14 0 4.29-.387 6.46 0l1.973.056z" fill="#589D26"/><path d="M122.502 59.12c-.158-.124-.316-.255-.365-.476h-.075c-.05-.013-.05-.035-.06-.098-.388-1.265-6.007-.897-6.29-1.14-.303-.365-1.53-.173-1.69-.718-.182-.183-.243-.428-.486-.584-.11-.426-.533-.547-.815-.827-.45-.026-.668-.38-1.106-.45 0-.243-.386-.124-.462-.28-.778-.413-1.556-.85-2.505-.912-.34-.365-.878-.06-1.242-.316h-1.897c-.526-.23-.988-.548-1.486-.79-.426-.172-.85.062-1.153.193-.5.477-1.424.304-2.008.39-.67.218-1.168-.183-1.69-.45-.463-.122-.852-.512-1.28-.67-.316-.316-.74-.34-.96-.73-.366-.34-.655-.802-1.29-.83-.534-.386-1.265-.46-1.86-.753-.682-.17-1.25-.51-1.923-.718-.28-.243-.682-.158-.995-.243l-.548-.402c-.11-.048-.06-.18-.133-.24-.05.01-.146-.027-.18.06-.365-.51-1.022-.693-1.205-1.326l-.037.05-.207-.244c-.717-.733-1.92-.28-2.627 0-.414-.086-.78.484-1.24.34-.573.268-1.243.304-1.923.338-.803-.158-1.3-1.043-2.104-1.216-.192-.255-.533-.034-.62-.377-.5-.353-1.058-.705-1.545-1.046-.28-.243-.596-.51-.863-.73-.098-.428-.672-.524-.84-.937-.34-.242-.596-.484-.912-.67-.024-.01-.06-.06-.048-.097h-.132c-.085.013-.124-.082-.112-.146h-.13c-.207-.218-.28-.484-.623-.484-.56-.96-1.167.025-1.824.034-.703.38-1.202-.192-1.678-.544-.073-.207-.23-.548-.484-.634-.085.18-.428.242-.486.378-.073.05-.11.146-.243.11-.753.68-2.188.45-3.232.426-.243-.098-.584-.146-.77-.33-.254.025-.64-.013-.862-.242.124-.243-.28-.34-.097-.523-.18-.43-.096-.998-.18-1.46-.086-.146-.196-.353-.086-.487-.463-.304-.633.51-1.044.525-.243.22-.367.484-.304.827-.367-.012-.097.436-.39.5-.315.12-.38.532-.717.62v.145c-.27.268-.743.436-1.168.56-.353.243-.767.34-1.204.435-.45.076-.827.243-1.253.39-.484-.098-.864.352-1.058.633-.17.034-.146.278-.353.278-.328.305-.85.694-1.41.733-.704.023-1.47-.125-2.066-.488l-.062.06c-.62-.364-.96-1.154-1.594-1.458-.62 0-1.107.367-1.69.428-.962-.013-1.79-.195-2.703-.146-.476.267-1.01.024-1.327.596.06.328-.243.85-.484 1.18-.463.376-1.07.863-1.606 1.216-.244.048-.645.206-.888.39-.426.227-.67.57-1.13.728-.172.33-.838.39-.865.828-.06.085-.157.048-.242.048-.195.28-.68.526-.803.888-.06.083-.143.083-.207.146.244.583-.56.195-.51.62-.29.183-.484.475-.69.633.023.22-.32.23-.342.415-.304.352-.948.788-1.325 1.153-.304.304-.705.535-1.19.656-.196.28-.72.195-1.06.428-.57.18-1.118.426-1.713.548-.145.338-.682.095-.926.377-.787.048-1.336.596-2.09.596-.378-.244-.73-.535-1.156-.694-.278-.086-.583-.22-.827-.244-.438-.523-1.265-.4-1.948-.484-.4.207-.877.207-1.29.387-.16.074-.365.28-.487.378v.11c-.533.182-.887.608-1.36.803-.754.548-1.778.78-2.64.524-.242.025-.512.158-.584.304-.026.06-.098.036-.147.036-.292.083-.523.243-.803.387v.098c-.158.207-.484.22-.582.45-.623.158-.83.83-1.438.912-.097.158-.377.28-.582.402-.22.304-.5.146-.815.33-1.34.425-2.762-.402-4.11.157-.196.206-.635.145-.804.364-.173.073-.45.158-.43.34-.033.083-.142.025-.206.035v.11c-.097.035-8.586.122-8.732.098.06.18-.146.095-.182.143V69.164c.74-.146 9.778-.134 10.45-.39.157-.182.337.146.483-.097.523.037 1.144-.06 1.618-.11.5-.38 1.278-.036 1.728-.486l.05.05c.084.01.17 0 .23-.084.985-.025 1.955-.16 3.015-.243.583-.037 1.167-.097 1.63-.243.34-.06.486-.098.83-.16.63-.412 1.408-.17 2.017-.57 1.105.06 2.032-.645 3.173-.657.22-.173.547-.085.732-.21.338.086.496-.303.778-.386 1.68-.158 2.883-1.47 4.342-2.19 1.435-.378 3.065-.254 4.634-.28l.29-.096c1.18.098 2.104.196 3.27.098 1.693.22 3.65-.267 5.4.037.255-.037.523.206.718 0 .57.206 1.24.024 1.92.146.585.18 1.266.06 1.91.305.718.082 1.545-.207 2.178.242 1.29-.096 2.563.388 3.828.144.244.065.487.257.684.342h.523c.925-.158 2.044.487 3.005.182 1.79.426 3.066-.754 4.95-.486.278-.122.596-.158.96-.146 1.168-.193 2.64-.193 3.868-.18.526-.195.998-.036 1.546-.16 1.298.22 2.845-.365 4.17-.24 1.253-.208 2.263-.755 3.516-.816 1.693-.097 3.37-.037 5.095-.062.184-.014.366.242.524 0 .973 0 2.02.062 2.895-.23.644-.085 1.29-.146 1.872-.33.292 0 .623-.23.96-.278.478.097.976-.158 1.438-.134.572-.328 1.314-.145 1.81-.546.85 0 1.703-.145 2.64-.242.305-.27.913.097 1.264-.05.477-.22 1.024.05 1.426-.035.435.18.897-.11 1.386.145.255.097.56.18.778.34.684.18 1.363.426 2.046.484.436.06.876.255 1.24.38.5 0 .95.12 1.34.315.304.084.573.18.863.292.72.096 1.327.497 2.103.484.462.196.986.183 1.447.38.387-.075.45.365.898.207.174.06.416.06.513.18.123.037.29-.06.353.097l.035-.035c.366.303.732.207 1.156.387 2.384.973 6.592.414 8.198.608 1.29.158 1.445-.255 1.507-.243.026-1.532 0-3.138 0-4.72l-.074-.096c-.206-.05-.39-.24-.644-.24-.09-.185-.224-.294-.37-.416" fill="#C1D5E7"/><path d="M102.143 81.097l-.74-1.7c-.146-.34-.255-.51-.584-.51h-.645v2.21h-1.57v-5.923c0-.13.147-.255.244-.255h2.213c1.204 0 2.237.254 2.237 1.79 0 .69-.39 1.395-1.106 1.532.365.12.717.582.912 1.082l.717 1.776-1.68-.003zm-1.18-4.986h-.79v1.545h.79c.462 0 .84-.24.84-.827 0-.596-.378-.717-.84-.717zm-13.11 4.987V74.92h-1.97l-1.534 3.49-1.472-3.49h-2.14v6.177h1.605v-3.563l1.52 3.563h.85l1.545-3.563v3.563h1.594zm1.227 0V74.92h1.375c.12 0 .228.123.228.254v5.923H89.08zm6.045-2.286h.766v1.086c-.206.034-.473.034-.692.034-1.18 0-1.812-.73-1.812-1.922 0-1.12.547-1.897 1.73-1.897.413 0 1.006.133 1.444.33l.634-1.058c-.51-.34-1.302-.573-2.204-.573-2.043 0-3.27 1.3-3.27 3.198 0 2.116 1.23 3.213 3.552 3.213.67 0 1.554-.074 2.13-.205v-3.187c0-.158-.1-.28-.257-.28h-2.02v1.263zm12.162 2.41c-2.046 0-3.126-1.424-3.126-3.214 0-1.776 1.084-3.2 3.127-3.2 1.922 0 3.004 1.424 3.004 3.2 0 1.79-1.08 3.213-3.003 3.213zm0-5.11c-.84 0-1.437.597-1.437 1.898 0 1.314.596 1.9 1.437 1.9.73 0 1.314-.584 1.314-1.9 0-1.3-.583-1.897-1.313-1.897zm8.745 2.956c0-1.228-1.3-1.532-2.25-1.824-.548-.158-.973-.316-.973-.643 0-.33.337-.548.923-.548.5 0 .924.195 1.362.45l.864-.975c-.39-.377-1.17-.718-2.166-.718-1.508 0-2.66.717-2.66 2.006 0 1.204 1.042 1.557 1.945 1.812.74.207 1.312.338 1.312.752 0 .438-.51.525-.912.525-.705 0-1.484-.364-1.885-.608l-.705 1.25c.436.292 1.41.672 2.47.672 1.65 0 2.672-.877 2.672-2.154z" fill="#FFF"/><g fill="#FFF"><path d="M54.54 16.224c-.06-.097-.23-.51-.51-1.228-.293-.778-.512-1.326-.684-1.654-.073-.11-.144-.097-.22.025-.218.353-.462.887-.73 1.63-.27.754-.498 1.302-.692 1.618-.013.024-.013.048 0 .06.012.013.036.013.073 0 .512-.133 1.12-.23 1.824-.29h.597c.243.012.365-.026.365-.084.002-.027.002-.05-.022-.076zm1.034 2.19c.036-.013 0-.132-.098-.353-.097-.206-.17-.364-.24-.46-.125-.196-.27-.28-.438-.257-.608.11-1.594.256-2.93.438-.196 0-.293.025-.293.086 0 .012.025.046.075.083.633.242 1.52.412 2.676.524.083 0 .207.012.377.025.17.024.304.024.39.024.19-.002.347-.038.48-.11zm1.508-1.387c.025.05 0 .097-.098.11-.06 0-.17-.013-.316-.037-.134-.024-.243-.034-.304-.034-.17 0-.292.06-.38.17l.293.888c.133.338.292.608.486.788.024.037.024.085.024.134 0 .05 0 .097-.024.122-.085.075-.207.11-.353.11-.06 0-.243-.025-.56-.084-1.094-.194-2.48-.574-4.183-1.12-.146-.035-.243-.062-.304-.062-.146 0-.243.076-.304.222-.035.194-.11.377-.22.57-.146.244-.292.366-.45.366-.134 0-.316-.06-.533-.18-.22-.124-.33-.207-.33-.27 0-.083.05-.207.135-.365.082-.158.13-.278.146-.353 0-.11-.05-.218-.183-.304-.243-.024-.5-.243-.754-.656-.048-.073 0-.132.135-.17.12-.026.278-.037.484-.037.23 0 .4 0 .485-.012.195-.037.34-.11.437-.23.378-1.132 1.142-2.896 2.288-5.302.012-.013.034-.024.073-.024.085 0 .292.06.596.194l.716.317c.085.036.134.097.134.158l-.015.112c-.012.048-.012.073 0 .096l.623 2.032c.24.827.474 1.472.69 1.968.086.075.256.124.5.16.243.025.413.083.51.193.098.025.195.11.304.243.116.153.2.25.25.287zM61.837 15.312l-.28.684c-.06.886-.024 1.885.112 2.992.11.12.13.218.082.304-.158.034-.387.024-.705-.05-.256-.096-.414-.22-.5-.366-.01-.268 0-.642.037-1.14.013-.038.013-.077-.012-.11-.025-.05-.06-.06-.11-.05-.123.074-.28.195-.46.378-.245.23-.403.38-.478.438-.073.024-.18.11-.338.255-.134.122-.256.17-.38.158-.292-.194-.498-.353-.608-.462-.207-.22-.304-.45-.304-.684 0-.083 0-.16.026-.24 0-1.17-.026-1.972-.085-2.422l-.122-.34c0-.06.024-.097.073-.132.207 0 .51.132.876.414.075.29.11.67.124 1.12v1.166c.034.06.146.06.304.025l1.07-.96c.414-.414.632-.827.68-1.228.038-.098.11-.158.222-.158.073 0 .16.024.256.072l.304.134c.118.067.18.13.215.202zM66.46 17.538c-.013.596-.28 1.01-.816 1.242-.268.11-.583.18-.973.192H63.7c-.78-.158-1.216-.462-1.314-.925-.036-.132.195-.267.67-.39.352-.094.74-.17 1.18-.218.036 0 .048.01.048.025 0 .024-.012.034-.05.034-.875.23-1.312.378-1.312.427.036.11.124.17.27.17l.386-.073c.402-.085.926-.243 1.57-.486.123-.037.182-.097.182-.18 0-.027-.012-.05-.037-.063-.18-.11-.522-.207-.996-.29-.474-.075-.8-.182-.985-.292-.305-.172-.476-.462-.512-.877.146-.013.207-.096.207-.242v-.124l-.012-.11c0-.072.024-.132.048-.18.305-.512.85-.753 1.653-.753.243 0 .486.024.742.073.582.194.912.475.973.827.012.025 0 .036-.025.036-.014 0-.075-.036-.182-.084-.096-.05-.18-.085-.228-.085-1.058.025-1.824.28-2.29.803-.01.012-.023.024-.023.05 0 .072.084.12.242.157l1.01.158c.413.073.73.195.96.34.32.19.514.47.587.835zM73.56 15.932v-.218c-.01-.098-.06-.17-.157-.195-.085-.025-.17-.025-.243 0-.435.22-.815.476-1.13.79-.378.386-.597.766-.67 1.167-.025.097.012.146.085.146.083 0 .24-.075.484-.23l.522-.354c.33-.195.696-.56 1.11-1.108zm1.266-3.454c.013.256-.048.573-.18.96-.146.44-.23.755-.23.95-.025.267-.025.533-.025.815 0 .278.062 1.41.18 3.417.086.16.135.244.135.27 0 .034-.012.06-.05.098-.06.034-.108.06-.17.06-.048 0-.123-.025-.22-.06l-.18-.064c-.353-.206-.536-.593-.536-1.153v-.328l.01-.33c0-.17-.01-.317-.033-.436 0-.013-.014-.037-.048-.05-.05-.01-.077 0-.1.037-.524.948-1.18 1.652-1.98 2.117-.064.012-.113.024-.16.024-.33 0-.595-.23-.816-.693-.06-.218-.083-.435-.083-.656 0-.533.16-1.057.485-1.554.304-.463.693-.84 1.155-1.12.17-.097.438-.16.79-.16.05 0 .17.097.34.292.18.182.303.28.38.28.07 0 .12-.06.157-.195-.026-.182-.037-.39-.037-.608 0-.44.05-.913.173-1.387.034-.086.073-.28.11-.574.024-.245.082-.437.194-.55.207.113.338.196.413.244.132.11.24.22.326.354zM78.706 15.908c.037-.025.06-.06.06-.097 0-.12-.084-.23-.267-.315l-.536-.244c-.22-.108-.39-.157-.523-.157s-.315.122-.522.353c-.112.158-.16.268-.16.292 0 .073.036.12.112.17.12.037.447.06.985.05.498 0 .778-.026.85-.05zm1.338 1.496c-.17.634-.547 1.134-1.13 1.486-.305.11-.635.17-.99.17-.446 0-.96-.097-1.52-.29-.582-.208-.897-.682-.96-1.436-.06-.864.292-1.557 1.058-2.068.026-.024.222-.122.574-.292.22-.122.387-.255.497-.4.063-.096.21-.133.428-.133.23 0 .45.038.633.123.34.158.608.38.815.67.23.33.33.657.292 1.023-.012.13-.06.268-.13.426-.077.158-.147.22-.196.182-.124-.146-.23-.22-.32-.22-.033 0-.08 0-.12.024-.426.17-.837.256-1.23.256-.266 0-.643-.05-1.118-.146-.085-.012-.133 0-.172.06-.034.05-.05.125-.05.183v.196l-.01.206c0 .304.133.45.4.45.23.012.45.025.693.025.913 0 1.75-.17 2.506-.534.025-.014.048-.014.048 0 .028.005.028.03.004.04zM83.486 15.264c-.11.39-.316.96-.608 1.702-.025.012-.037.025-.05.012-.01 0-.01-.024-.01-.048l.17-.475c.075-.206.11-.38.11-.51 0-.112-.026-.222-.074-.304-.025-.063-.122-.097-.28-.11-.158-.014-.304 0-.414.035-.12.05-.228.134-.304.28-.082.13-.12.267-.11.387.026.28.037.732.013 1.362-.025.584-.013 1.036.036 1.362-.086.036-.17.05-.268.05-.23 0-.477-.11-.732-.318-.144-.133-.22-.292-.22-.498 0-.183.062-.34.17-.475.027-.243.027-.498.027-.754 0-.814-.098-1.653-.292-2.516-.01-.037-.01-.073 0-.11.013-.048.037-.06.076-.06.06.034.22.06.496.11.21.023.34.108.43.242.023.05.06.207.12.498.037.256.097.378.183.378.024 0 .06-.012.097-.037.036-.012.097-.146.207-.386l.242-.61c.122-.048.255-.075.4-.075.18 0 .366.037.584.124.075.082.11.19.11.328 0 .148-.037.294-.11.416zM93.872 17.514c-.036.352-.182.924-.425 1.727-.183.035-.27.06-.244.06-.048 0-.097-.024-.124-.06-.51-.243-1.07-.608-1.69-1.094l-1.558-1.24c-.097-.026-.17 0-.207.072l-.048 1.046c-.06.402-.256.657-.572.767-.073.035-.158.06-.268.06-.097 0-.182-.024-.243-.06-.025-.182-.012-.45.012-.814.037-.368.05-.623.05-.78-.025-.074-.037-.147-.037-.242 0-.085.013-.22.047-.428.026-.195.037-.328.037-.414 0-.352-.17-.547-.533-.56-.074-.06-.11-.157-.096-.29l.024-.305c.012-.097.097-.207.28-.316.048.05.097.074.13.074.076 0 .135-.05.183-.132.014-.085.026-.194.026-.33l-.012-.18v-.206c0-.416.146-.683.437-.79.172-.183.45-.244.816-.16.025.014.037.038.037.074.012.037.012.062.034.076.013.255-.012.632-.073 1.12-.06.522-.085.91-.075 1.154 0 .034-.014.083-.05.145.428.025.85-.123 1.29-.437.403-.292.72-.657.95-1.094.122-.242.145-.463.096-.643-.682-.485-1.458-.73-2.31-.73-.668 0-1.276.157-1.812.486-.073.048-.11.11-.11.207 0 .06.027.158.062.29l.036.145c-.085-.012-.194-.13-.33-.365-.143-.267-.228-.533-.228-.815 0-.462.22-.766.645-.924.424-.158.885-.23 1.407-.23.95 0 1.79.23 2.544.692.85.535 1.29 1.168 1.29 1.91 0 .12-.012.228-.036.338-.06.292-.255.535-.583.72l-.9.377c-.18.05-.412.086-.68.122l-.683.076c-.097.048-.122.11-.05.194.658.51 1.68 1.24 3.054 2.163.086 0 .147-.073.196-.23.048-.145.124-.23.22-.23l.076.01zM97.716 15.908c.048-.025.073-.06.073-.097 0-.12-.1-.23-.28-.315l-.535-.244c-.207-.108-.387-.157-.51-.157-.147 0-.317.122-.524.353-.108.158-.17.268-.17.292 0 .073.035.12.11.17.132.037.462.06.995.05.5 0 .78-.026.84-.05zm1.35 1.496c-.173.634-.548 1.134-1.134 1.486-.304.11-.632.17-.985.17-.462 0-.973-.097-1.52-.29-.584-.208-.9-.682-.96-1.436-.062-.864.29-1.557 1.057-2.068.024-.024.22-.122.56-.292.228-.122.386-.255.498-.4.073-.096.22-.133.435-.133.232 0 .438.038.634.123.33.158.61.38.816.67.23.33.328.657.292 1.023-.015.13-.063.268-.134.426-.075.158-.146.22-.207.182-.11-.146-.22-.22-.316-.22-.035 0-.074 0-.11.024-.436.17-.838.256-1.23.256-.267 0-.644-.05-1.118-.146-.085-.012-.146 0-.17.06-.037.05-.05.125-.05.183v.196l-.012.206c0 .304.132.45.4.45.22.012.45.025.683.025.925 0 1.764-.17 2.518-.534.025-.014.035-.014.048 0 .02.005.02.03.008.04zM103.456 16.382l.037-.29c.012-.123.024-.23.024-.304 0-.16-.034-.28-.11-.38l-.18-.01c-.182 0-.39.036-.622.12l-.583.222-.888.583c-.338.243-.57.498-.705.754-.084.11-.062.207.048.292.39.277.84.424 1.35.424.352 0 .814-.073 1.386-.228.112-.037.182-.183.208-.465l.034-.718zm1.277-.352c0 .014-.012-.025-.012-.11-.023-.097-.06-.158-.11-.18-.07 0-.108.034-.12.11-.015.12-.015.18-.026.18l-.085 1.666c-.05.634-.18 1.143-.4 1.532l-.025.076c0 .036.036.073.11.11.084.048.123.084.123.133 0 .034-.014.083-.036.122-.365.74-1.204 1.105-2.493 1.105l-.695-.012c-.17-.014-.425-.085-.766-.22-.33-.132-.512-.23-.536-.29-.13-.56-.195-.913-.195-1.047 0-.158.025-.316.075-.462l.024-.025c.025 0 .084.084.18.242.1.172.172.255.22.292.684.255 1.314.39 1.91.39.377 0 .742-.05 1.094-.147.122-.036.22-.22.29-.535.063-.292.075-.45.036-.474-.048-.026-.097-.05-.146-.05-.073 0-.18.05-.316.16-.134.096-.243.157-.33.17-.192.036-.386.06-.57.06-.767 0-1.446-.377-2.02-1.14-.13-.183-.22-.34-.255-.487-.025-.12-.034-.228-.034-.352 0-.582.277-1.057.848-1.435.85-.377 1.534-.56 2.018-.56.34 0 .634.06.9.195l.122-.036c.05 0 .085-.037.097-.084l-.012-.34c-.012-.145.037-.243.122-.29.05-.014.085-.027.124-.027.133 0 .267.075.388.23l.29.38c.172.268.255.545.255.827 0 .104-.013.213-.05.323zM107.14 12.697c-.17.144-.315.35-.46.608l-.33.67c-.29.01-.545-.125-.78-.39.05-.426.342-.85.9-1.277.246 0 .477.122.67.39zm-.254 5.254c-.23.354-.535.707-.912 1.06l-.06.012c-.086 0-.16-.06-.244-.17-.134-.913-.17-2.068-.098-3.467.012-.124.073-.32.183-.596.18-.208.386-.305.632-.305.073 0 .146.012.207.037 0 .717.025 1.81.06 3.26.026.048.064.072.11.096.063.013.097 0 .124-.036.037-.037.05-.06.073-.06.06 0 .035.06-.074.17zM111.69 16.042c.05.024.073.122.073.278 0 .572-.134 1.07-.402 1.51-.18.303-.434.558-.765.765-.328.22-.656.34-.997.377-.912-.012-1.506-.304-1.8-.876-.206-.328-.315-.705-.315-1.12 0-.73.268-1.35.815-1.847.462-.43 1.034-.635 1.715-.61.024 0 .034.013.034.025 0 .024-.012.036-.034.048-.477.22-.818.402-.998.536-.364.266-.56.57-.596.91-.013.193-.025.35-.025.51 0 .683.192 1.18.608 1.496.05.012.11.026.18.026.28 0 .5-.076.657-.207.608-.513.912-1.143.924-1.888 0-.073-.034-.13-.095-.17-.064-.036-.134-.048-.21-.036-.082.037-.29.086-.608.134-.24.05-.435.11-.582.195-.098.023-.146-.016-.16-.11-.024-.38.133-.672.464-.865.352-.172.67-.242.973-.242.23 0 .437.048.62.158.16.062.255.23.28.5.024.26.11.43.243.502zM116.907 17.854c-.11.45-.416.85-.887 1.216l-.134.015c-.192 0-.352-.097-.462-.28-.17-.377-.268-.9-.28-1.58-.035-.99-.06-1.52-.074-1.606-.034-.1-.132-.123-.304-.062-.523.56-.912 1.107-1.153 1.678 0 .683-.076 1.29-.222 1.825-.047.013-.108.026-.157.026-.11 0-.243-.05-.39-.124l-.35-.207c-.11-.278-.123-.596-.026-.973.06-.255.085-.547.085-.9l-.025-.73-.025-.753c-.075-.573-.11-.89-.11-.94.436-.048.767.076.996.368.025.048.075.22.124.523.034.208.146.317.304.293.51-.596 1.12-.878 1.836-.83.256.026.438.173.523.414.098.477.183 1.377.244 2.712.047.11.144.145.303.096.025-.012.048-.06.074-.124.025-.06.047-.094.074-.094.013 0 .025.012.037.036zM118.95 18.778c-.048.073-.11.11-.194.11l-.146-.026-.17-.024c-.06 0-.124.024-.158.073-.026.013-.05.026-.076.026-.048 0-.11-.036-.17-.11-.06-.074-.097-.123-.085-.145.016-.096.016-.254-.023-.476-.037-.255-.05-.425-.05-.498 0-.158.037-.256.123-.29.085-.014.23.025.462.146.255.132.416.29.45.484.06.17.097.33.097.462 0 .1-.023.185-.06.27zM54.102 25.492c-.073-.024-.462-.05-1.19-.05-.718.013-1.095.027-1.144.05-.122.146-.194.316-.194.523 0 .075.014.194.036.367.026.17.036.29.036.377 0 .072-.012.157-.025.23-.01.06 0 .11.037.122.037.024.086.024.17-.012l1.633-.95c.435-.254.657-.45.657-.595-.003-.027-.003-.04-.015-.063zm-3.77 2.578c.012-.124-.012-.182-.098-.182-.025 0-.048.014-.085.025-.132.083-.207.195-.207.304 0 .098.085.16.255.17.097 0 .146-.11.134-.317zm5.084-2.906c.097.11-1.14.8-3.746 2.09-.034.014-.073.16-.098.415-.012.254 0 .4.05.425.084.014.18.014.27.014.108 0 .288-.015.544-.037.23-.037.416-.037.56-.037.427.026.887-.024 1.376-.17.024-.012.06-.06.11-.146.06-.085.11-.122.145-.122l.034.013c.087.06.126.146.126.256l-.014.13-.013.135c0 .11.035.196.123.244.024.025.048.073.048.18 0 .27-.074.465-.22.574-.083.05-.22.11-.387.158l-1.252.06c-.498.027-.937.038-1.3.027-.074 0-.098.083-.098.255 0 .365.085.642.255.864.183.22.27.474.27.754 0 .192-.075.35-.22.474-.132.122-.34.18-.61.18-.108 0-.303-.024-.607-.06-.122-.025-.18-.147-.194-.366-.013-.328-.025-.51-.035-.56-.024-.048-.024-.315-.035-.814-.012-.462-.025-.693-.06-.705-.196-.073-.39-.195-.573-.377-.22-.195-.33-.39-.33-.584 0-.06.013-.122.037-.17.06-.11.194-.222.4-.32.195-.094.305-.206.34-.337l-.026-.526-.025-.51c0-.376.074-.68.193-.897.015-.112-.048-.173-.18-.182-.39-.036-.717-.303-.96-.778-.098-.182-.195-.304-.304-.367-.015-.024.01-.073.08-.144.077-.074.125-.11.174-.096.024 0 .146.06.365.18.035.037.328.037.874 0 .477-.012.767-.034.88-.048.376-.05.935-.073 1.677-.073.74.012 1.3-.013 1.667-.06.22.023.365.17.436.434.107.36.18.566.253.627zM59.587 26.282l-.124.414c-.06.13-.158.23-.292.278-.157-.024-.303-.12-.45-.328-.08-.438-.094-.732-.045-.863.034 0 .11-.05.22-.146.072-.06.145-.086.206-.076.34.184.51.38.51.585 0 .052-.01.09-.023.137zm-2.092 0l-.11.414c-.06.13-.157.23-.303.278-.146-.024-.292-.12-.438-.328-.083-.438-.11-.732-.06-.863.036 0 .11-.05.22-.146.083-.06.144-.086.207-.076.34.184.512.38.512.585-.002.052-.002.09-.027.137zm2.603 1.934l-.28.68c-.06.89-.024 1.886.122 3.007.097.11.124.208.075.29-.158.037-.39.026-.705-.048-.256-.098-.414-.22-.5-.365-.01-.268 0-.645.038-1.14.012-.038.012-.076-.012-.113-.026-.034-.064-.06-.112-.05-.122.077-.28.196-.463.38-.24.23-.4.378-.473.437-.073.026-.182.11-.34.257-.132.123-.256.17-.365.17-.304-.205-.51-.364-.62-.473-.207-.22-.305-.45-.305-.683 0-.086 0-.16.025-.244 0-1.167-.025-1.97-.083-2.407l-.125-.352c0-.048.026-.097.075-.133.207 0 .51.134.876.413.073.292.11.672.122 1.12v1.18c.036.05.146.05.304.014l1.07-.96c.416-.415.634-.816.684-1.23.036-.097.11-.145.218-.145.076 0 .16.01.256.06l.304.133c.117.07.19.13.214.203zM63.6 28.18c-.11.378-.318.948-.607 1.69-.026.026-.037.026-.05.015-.01 0-.025-.026-.01-.05l.17-.476c.072-.207.096-.365.096-.51 0-.11-.013-.22-.06-.305-.027-.06-.126-.098-.28-.11-.157-.012-.305 0-.427.037-.11.048-.22.13-.304.278-.076.134-.11.27-.098.39.024.28.034.73.012 1.374-.024.57-.012 1.02.036 1.35-.085.034-.172.048-.27.048-.24 0-.484-.11-.73-.317-.145-.133-.218-.29-.218-.498 0-.182.06-.34.17-.476.026-.24.026-.483.026-.753 0-.815-.098-1.652-.304-2.516v-.108c.024-.05.048-.063.082-.063.05.035.222.074.5.11.193.025.34.11.425.24.026.05.064.223.112.5.034.256.098.38.193.38.025 0 .063-.015.097-.037.036-.012.097-.146.207-.38l.242-.62c.124-.048.255-.073.4-.073.184 0 .366.034.585.122.073.085.11.195.11.33.003.16-.033.294-.106.428zM70.63 28.836v-.218c-.012-.098-.06-.173-.158-.195-.082-.026-.17-.026-.24 0-.438.22-.818.474-1.134.788-.377.39-.608.782-.68 1.17-.013.096.01.145.082.145.097 0 .255-.073.498-.23l.526-.34c.316-.206.693-.57 1.106-1.12zm1.253-3.454c.012.256-.036.572-.17.96-.146.437-.23.755-.243.95-.013.267-.013.533-.013.815 0 .278.06 1.408.18 3.417.086.158.124.256.124.268 0 .036-.012.063-.035.097-.06.036-.122.06-.17.06-.064 0-.124-.012-.222-.047l-.18-.075c-.364-.206-.535-.596-.535-1.155v-.328l.012-.33c0-.17-.012-.316-.034-.435 0-.015-.025-.037-.06-.05-.037-.014-.076 0-.098.035-.51.95-1.182 1.654-1.97 2.116-.06.013-.11.027-.173.027-.316 0-.593-.23-.815-.693-.048-.22-.082-.438-.082-.657 0-.535.17-1.058.484-1.557.304-.462.693-.837 1.167-1.12.172-.096.427-.145.78-.145.06 0 .18.085.353.28.17.194.29.278.365.278.073 0 .13-.06.17-.193-.037-.18-.05-.388-.05-.608 0-.437.062-.9.184-1.388.034-.085.073-.278.097-.57.033-.245.096-.43.206-.55.207.123.338.196.413.245.13.11.24.22.313.352zM74.316 25.6c-.16.147-.317.354-.45.61l-.34.683c-.278 0-.534-.134-.767-.4.035-.43.34-.853.887-1.28.255-.002.474.12.67.388zm-.244 5.255c-.24.353-.545.706-.912 1.06l-.073.01c-.075 0-.158-.048-.23-.17-.147-.912-.17-2.067-.098-3.468 0-.122.062-.316.18-.596.17-.206.39-.303.635-.303.073 0 .13.014.207.036 0 .718.012 1.812.048 3.26.034.048.073.075.122.097.05.015.097 0 .122-.034.025-.037.048-.063.063-.063.07 0 .045.063-.065.172zM77.94 28.812c.05-.025.06-.063.06-.097 0-.124-.084-.23-.267-.32l-.535-.24c-.22-.097-.39-.16-.523-.16-.134 0-.304.124-.525.353-.098.16-.16.27-.16.304 0 .063.038.112.11.16.135.034.466.06.99.048.497 0 .79-.024.85-.048zm1.35 1.508c-.18.623-.56 1.12-1.13 1.472-.305.11-.634.173-.986.173-.465 0-.976-.098-1.535-.292-.573-.207-.888-.683-.947-1.435-.064-.864.278-1.557 1.055-2.068l.562-.292c.22-.122.387-.243.496-.4.064-.1.207-.134.438-.134.23 0 .438.035.633.123.33.158.596.39.817.67.23.33.328.668.29 1.02-.013.134-.06.27-.132.43-.085.157-.146.218-.207.18-.112-.147-.22-.22-.318-.22-.034 0-.073.012-.122.025-.426.172-.827.256-1.228.256-.27 0-.634-.05-1.12-.145-.075-.015-.133 0-.172.06-.024.062-.05.122-.05.18v.402c0 .304.135.45.403.45.22.026.45.026.683.026.926 0 1.75-.172 2.507-.534.036-.013.048-.013.06 0 .015.006.015.03.003.054zM89.628 30.418c-.034.352-.17.924-.414 1.727-.194.036-.267.062-.243.062-.06 0-.096-.026-.13-.062-.51-.242-1.07-.61-1.68-1.093l-1.556-1.24c-.097-.026-.17 0-.218.074l-.05 1.044c-.062.4-.255.656-.573.767-.073.035-.158.062-.256.062-.11 0-.18-.026-.255-.063-.012-.18 0-.45.026-.816.024-.364.048-.62.048-.777-.025-.06-.036-.146-.036-.244 0-.085.012-.22.036-.414.034-.207.05-.34.05-.426 0-.353-.184-.547-.548-.56-.076-.063-.098-.16-.098-.29l.037-.305c0-.098.097-.207.267-.316.05.047.098.07.146.07.073 0 .132-.047.17-.132.026-.083.037-.192.037-.317l-.012-.193v-.207c0-.413.146-.68.435-.788.173-.182.438-.23.815-.16.026.014.037.036.037.075 0 .04.012.06.025.073.012.255-.014.634-.063 1.12-.06.524-.083.912-.083 1.154 0 .037-.013.085-.035.146.413.026.85-.12 1.277-.436.413-.29.732-.656.948-1.094.122-.243.16-.462.098-.644-.684-.485-1.448-.73-2.3-.73-.682 0-1.278.158-1.826.484-.06.05-.11.124-.11.208 0 .062.026.16.076.29l.034.146c-.095-.012-.206-.132-.328-.364-.158-.256-.23-.536-.23-.815 0-.462.206-.766.632-.925.426-.16.9-.23 1.423-.23.936 0 1.787.23 2.53.693.863.532 1.288 1.167 1.288 1.92 0 .11 0 .22-.024.33-.06.29-.255.535-.596.717l-.9.38c-.18.048-.4.097-.67.12l-.68.077c-.11.047-.124.12-.062.192.67.51 1.692 1.24 3.054 2.176.083 0 .158-.083.207-.23.048-.157.11-.23.207-.23h.07v-.008zM93.483 28.812c.037-.025.063-.063.063-.097 0-.124-.085-.23-.27-.32l-.532-.24c-.222-.097-.39-.16-.526-.16-.13 0-.316.124-.523.353-.11.16-.158.27-.158.304 0 .063.037.112.11.16.124.034.462.06.987.048.496 0 .776-.024.85-.048zm1.338 1.508c-.172.623-.546 1.12-1.118 1.472-.304.11-.645.173-.997.173-.45 0-.96-.098-1.52-.292-.572-.207-.9-.683-.95-1.435-.072-.864.28-1.557 1.047-2.068l.57-.292c.223-.122.39-.243.5-.4.06-.1.207-.134.438-.134.23 0 .435.035.62.123.34.158.608.39.815.67.23.33.33.668.292 1.02-.012.134-.05.27-.134.43-.073.157-.13.218-.194.18-.123-.147-.22-.22-.318-.22-.036 0-.073.012-.12.025-.43.172-.84.256-1.232.256-.268 0-.642-.05-1.12-.145-.072-.015-.13 0-.17.06-.025.062-.048.122-.048.18v.195l-.012.207c0 .304.13.45.4.45.23.026.463.026.692.026.912 0 1.75-.172 2.508-.534.024-.013.05-.013.05 0 .025.006.025.03 0 .054zM99.224 29.286l.024-.29c.026-.123.036-.22.036-.305 0-.158-.036-.278-.11-.376l-.18-.015c-.18 0-.39.035-.622.123l-.583.23-.9.573c-.33.242-.56.498-.704.754-.076.11-.064.206.06.29.377.29.827.427 1.35.427.338 0 .8-.075 1.387-.23.11-.025.17-.18.207-.463l.034-.718zm1.277-.352c-.01.012-.01-.026-.025-.098-.012-.11-.05-.17-.11-.182-.06 0-.097.026-.12.097 0 .125-.013.184-.013.184l-.097 1.666c-.05.632-.183 1.14-.402 1.532l-.013.075c0 .035.035.074.11.122.074.036.11.072.11.133 0 .034-.012.073-.026.11-.377.74-1.2 1.106-2.505 1.106l-.684-.015c-.17-.012-.426-.083-.767-.22-.34-.133-.524-.23-.533-.29-.134-.56-.195-.913-.195-1.044 0-.16.024-.304.073-.464l.026-.012c.013 0 .074.075.17.23.098.17.183.256.232.293.67.255 1.3.387 1.907.387.366 0 .73-.05 1.084-.146.12-.034.22-.22.292-.533.073-.292.082-.45.048-.477-.048-.024-.097-.05-.146-.05-.075 0-.182.065-.318.162-.144.096-.256.158-.33.17-.205.05-.4.06-.582.06-.767 0-1.436-.376-2.017-1.14-.123-.172-.207-.34-.242-.486-.037-.11-.05-.23-.05-.34 0-.595.293-1.07.865-1.446.85-.38 1.52-.56 2.02-.56.327 0 .63.062.885.194l.134-.035c.05 0 .073-.036.084-.085l-.013-.34c0-.145.036-.24.133-.29.037-.015.085-.026.122-.026.124 0 .255.085.39.23l.29.378c.17.27.256.548.256.83.005.1-.02.222-.043.32zM102.897 25.6c-.158.147-.317.354-.45.61l-.338.683c-.28 0-.537-.134-.77-.4.036-.43.34-.853.888-1.28.255-.002.474.12.67.388zm-.244 5.255c-.24.353-.544.706-.912 1.06l-.072.01c-.075 0-.158-.048-.23-.17-.132-.912-.17-2.067-.098-3.468 0-.122.063-.316.182-.596.17-.206.377-.303.634-.303.073 0 .13.014.207.036 0 .718.012 1.812.048 3.26.035.048.074.075.123.097.05.015.097 0 .122-.034.025-.037.048-.063.063-.063.07 0 .045.063-.065.172zM107.457 28.946c.037.025.06.124.06.28 0 .57-.13 1.07-.4 1.505-.18.305-.436.56-.752.77-.33.22-.67.338-1.01.377-.91-.012-1.507-.304-1.79-.876-.218-.328-.328-.704-.328-1.118 0-.732.268-1.35.815-1.85.462-.425 1.034-.632 1.715-.608.024 0 .036.013.036.026 0 .024-.014.034-.036.05-.477.218-.803.4-.997.53-.353.27-.548.573-.583.914-.026.194-.036.352-.036.51 0 .684.207 1.182.61 1.496.047.025.108.025.18.025.278 0 .497-.06.67-.207.594-.51.912-1.14.924-1.885-.012-.073-.048-.134-.11-.17-.06-.037-.123-.05-.194-.037-.097.036-.304.085-.608.134-.243.046-.438.11-.584.192-.096.025-.158-.012-.17-.11-.012-.377.146-.668.474-.863.34-.16.672-.244.96-.244.244 0 .45.048.624.158.17.063.268.23.29.498.023.273.108.43.24.504zM112.675 30.758c-.122.45-.414.85-.9 1.216l-.122.012c-.194 0-.352-.097-.474-.278-.16-.38-.256-.9-.28-1.57-.025-.996-.05-1.534-.06-1.617-.038-.096-.147-.123-.306-.047-.535.547-.924 1.107-1.167 1.666 0 .68-.076 1.288-.22 1.823-.048.013-.096.025-.145.025-.124 0-.255-.05-.39-.122l-.364-.207c-.11-.27-.11-.597-.026-.975.06-.256.086-.546.086-.9l-.013-.73-.025-.74c-.083-.584-.122-.9-.122-.95.436-.048.78.074.998.366.034.05.073.22.13.524.037.22.135.32.305.304.5-.608 1.108-.887 1.825-.837.256.038.438.17.535.415.098.474.17 1.374.242 2.712.036.11.133.143.304.097.014-.014.036-.063.063-.124.023-.06.047-.097.07-.097.02 0 .043.01.055.035zM114.706 31.682c-.036.076-.097.124-.18.124l-.16-.036c-.073-.012-.122-.026-.16-.026-.072 0-.12.026-.17.076-.023.024-.035.024-.06.024-.06 0-.124-.034-.182-.11-.06-.072-.084-.12-.073-.145.013-.1 0-.257-.025-.476-.034-.255-.06-.426-.06-.498 0-.158.048-.256.133-.292.083-.012.23.036.45.146.268.134.414.292.448.486.075.18.097.33.097.463.004.092-.02.176-.057.262z"/></g><path d="M21.41 3.49c.292.475.097 1.23.462 1.74.402 1.143.718 2.37 1.217 3.49.047.39.412.535.412.95.96 2.395 2.034 4.706 3.393 6.81.304.182.694.23 1.01.025.84-.888 1.654-1.595 2.59-2.274.064-.096.124-.23.27-.206.18-.28.426-.486.67-.683.34.026.388-.328.668-.328.62-.742 1.34-1.447 2.068-2.094.366-.496.837-.946 1.326-1.348.5-.535.998-1.094 1.58-1.545.305-.387.804-.657 1.145-1.06.402-.266.755-.935 1.314-.835.195.097.316.498.29.693-.317.24-.122.67-.463.73-.108.754-.607 1.338-.896 1.982-.84 1.508-1.644 2.737-2.094 4.38-.69 1.594-1.3 3.297-2.053 4.84.12.316-.256.414-.173.718-.29.365-.23.83-.05 1.216.33.29.804-.11 1.135.194.497-.05.946.28 1.47.06.523.026 1.01.183 1.545.086.304.182.718-.076 1.046.11.633-.135 1.143.157 1.777.025.328.17.717.096 1.07.206.45-.024.9.05 1.34.1.33 0 .633-.016.91.157.243-.062.5-.11.657.06.133-.048.243-.012.367.06.463-.157.85.135 1.29-.023.23.28.572-.146.766.122.645-.06 1.253.097 1.86.158.05.146.11.304-.06.4-.39.45-1.167.086-1.556.548-.657.098-1.217.533-1.886.694-.352.35-1.094.365-1.605.57-.27.18-.524.074-.755.33-.435.036-.864.27-1.362.366-.338.29-.78.17-1.12.427-.337-.062-.4.327-.717.29l-.875.498c-1.106.317-2.213.887-3.37 1.278-.338.28-1.07.18-1.033.788.146.526.158 1.314.68 1.57.135.51.548.863.988 1.19.133.317.548.524.78.67.254.328.45.754.9.937.193.402.607.72 1.02.938.487.365.827.937 1.448 1.216.435.706 1.277.998 1.65 1.75.45.39.84.85 1.157 1.28.352.473 1.192.848.948 1.543-.887.28-1.556-.316-2.323-.582-.67-.608-1.398-.574-2.14-1.046l-.085.01c-.414-.337-.985-.483-1.265-.85-.572-.158-.997-.582-1.58-.74-.257-.33-.73-.33-1.06-.644-.486-.037-.753-.533-1.264-.572-.4-.4-1.057-.255-1.395-.78-.988-.16-1.645-.925-2.627-1.12-.222.076-.487.05-.574.27.014.338-.122.51-.22.837-.072 1.752-.097 3.567-.012 5.377-.085 2.08.132 4.232.414 6.385-.146.863.304 1.85-.012 2.688-.912.172-.56-1.106-1.12-1.472-.182-.56-.525-1.07-.56-1.642l-.17-.124c-.56-1.65-.9-3.344-1.424-4.877-.484-.596-.462-1.347-.937-2.004-.318-.91-.9-1.644-1.143-2.59-.073-.21-.23-.33-.34-.513-.24-.158-.56-.122-.8.026-.293.182-.526.437-.864.57-.548.707-1.17 1.424-1.922 1.97-.097.366-.535.464-.705.816-.293.194-.658.267-.804.668-.95.706-1.982 1.46-2.812 2.36-1.25.717-1.897 2.116-3.162 2.833-.426.11-.22-.34-.353-.51.206-.644.644-1.155 1.01-1.692.254-1.25.885-2.418 1.434-3.634.633-.222.413-.96.84-1.34.12-.533.425-1.107.74-1.52.074-.548.4-1.108.704-1.496.112-.732.732-1.374.732-2.143.195-.447.533-.936.195-1.408-.146-.438-.645-.22-.927-.38-1.69-.082-3.427.06-5.106-.024-.438 0-.927.195-1.3-.085-.877-.073-1.85.158-2.75 0-1.12-.11-2.252-.23-3.43-.05-.243-.108-.547.038-.79-.072-.23 0-.304.145-.496 0-.353-.014-.78.365-1.085-.014-.242-.22.062-.365.195-.484 1.12-.547 2.31-1.036 3.37-1.63.352 0 .545-.243.8-.353 1.472-.28 2.593-1.167 3.88-1.605.524-.23.937-.584 1.582-.67.23-.268.683-.242.9-.558.22-.086.532-.037.67-.244.874-.06 1.47-.705 2.25-.973.23-.23-.05-.498-.11-.705-.16-.365-.485-.45-.67-.815-.228.05-.267-.23-.4-.365-.036-.048.06-.112 0-.182-.403-.06-.682-.462-.938-.742-.367-.268-.575-.642-.79-.973-.476-.195-.767-.67-1.242-.876-.27-.693-.878-.85-1.242-1.483-.352.012-.194-.477-.56-.402-.51-.462-.826-1.046-1.444-1.447-.863-.9-1.666-1.788-2.31-2.81-.013-.194-.244-.525 0-.633 1.02.158 1.97.924 2.906 1.277.23.28.67.206.988.388.12.268.462.158.57.413.44-.06.707.488 1.145.318.387.21.876.34 1.29.525 1.02.474 2.165.864 3.138 1.46.632.532 1.47.484 1.982 1.14.39-.012.754.56 1.242.353.22-.645.024-1.338.17-2.005-.462-.79.17-1.594-.23-2.37.23-1.596-.22-3.126.123-4.67-.085-.77.133-1.473-.036-2.24.205-1.044-.087-2.044-.038-3.15.09-.486.868-.486 1.148-.17z" fill="#FFF"/><path d="M28.95 32.935l.34 1.423c-.27.292.22.693-.024.985.048.28.124.645.172.95-.063.048-.048.108-.025.157-.073-.024-.097.085-.122.11.05.22.28.29.11.535-.048.364.268.85-.11 1.13.1.367-.047.706.05 1.07-.183.222.083.417.13.61-.266.096.027.366-.08.56-.126 1.52-.05 3.065.12 4.657l-.097.025c-.803-1.546-.96-3.138-1.57-4.804-.413-2.103-2.018-3.515-2.356-5.655.11-.073.06-.158.05-.256.205-.012.093-.206.24-.304-.16-.328.318-.532.4-.778.244-.243.743-.122.974-.377.597.108 1.24-.634 1.8-.038z" fill="#EFBA1D"/><path d="M35.7 31.1c.79.777 1.448 1.53 2.31 2.285.147.18.45.158.464.387.425.304.827.817 1.277 1.155.366.535.938.645 1.253 1.204.377.427.803.804 1.01 1.35-.84-.084-1.486-.534-2.287-.838-.172-.328-.633-.267-.863-.582-.292-.112-.706-.34-.96-.43-.782-.57-1.51-.716-2.275-1.25-.207.17-.222-.193-.428-.084-1.168-1.085-3.09-1.12-3.525-2.785.73-.51 1.202-1.203 1.8-1.823 1.12-.34 1.557.9 2.226 1.412z" fill="#F7D622"/><path d="M35.7 31.1c.79.777 1.448 1.53 2.31 2.285.147.18.45.158.464.387.425.304.827.817 1.277 1.155.366.535.938.645 1.253 1.204.377.427.803.804 1.01 1.35-.84-.084-1.486-.534-2.287-.838-.172-.328-.633-.267-.863-.582-.292-.112-.706-.34-.96-.43-.782-.57-1.51-.716-2.275-1.25-.207.17-.222-.193-.428-.084-1.168-1.085-3.09-1.12-3.525-2.785.73-.51 1.202-1.203 1.8-1.823 1.12-.34 1.557.9 2.226 1.412z" fill="#EFBA1D"/><path d="M20.28 31.634c1.118.96 2.59.948 3.295 2.335.097.51-.414.682-.596 1.106-.414.243-.828.57-1.17.875-.227.44-.716.77-.984 1.145-.367.133-.51.596-.878.717-.192.438-.754.584-1.07.96-.05.232-.255.232-.426.33-.486.67-1.07 1.168-1.824 1.424-.085.267-.365.218-.45.45-.146 0-.353.13-.4-.064.024-1.14.947-2.053 1.3-3.172.69-1.155.985-2.274 1.69-3.38.086-.67.78-.96.767-1.63.343-.38.22-.95.744-1.096z" fill="#F7D622"/><path d="M20.28 31.634c1.118.96 2.59.948 3.295 2.335.097.51-.414.682-.596 1.106-.414.243-.828.57-1.17.875-.227.44-.716.77-.984 1.145-.367.133-.51.596-.878.717-.192.438-.754.584-1.07.96-.05.232-.255.232-.426.33-.486.67-1.07 1.168-1.824 1.424-.085.267-.365.218-.45.45-.146 0-.353.13-.4-.064.024-1.14.947-2.053 1.3-3.172.69-1.155.985-2.274 1.69-3.38.086-.67.78-.96.767-1.63.343-.38.22-.95.744-1.096zM34.424 21.734c.437-.085.936-.256 1.265-.012l.655-.112c.18.172.5.097.754.048.218.23.787-.13 1.118.146.572-.146 1.12-.048 1.653.037.803-.11 1.496.147 2.29.11l.13-.036c.243.16.596.085.888.21.377-.244.642.142 1.01-.016.17.207.483-.024.68.195.207-.06.414-.097.572.075.428-.048.732-.036 1.143-.112.098.086.073.222.11.305-.268 0-.437.183-.596.34l.014.098c-.524.146-1.18.33-1.69.634-.534.18-1.084.533-1.643.496-.523.256-1.156.45-1.752.477-.206.083-.377.316-.642.23-.255.242-.584.34-.863.546-.244.232-.72.11-.9.44-.526-.027-.9.46-1.39.497-.593.69-1.554.207-2.162.85-.317.182-.56-.098-.742-.193-.304-.754-.146-1.644-.39-2.447-.047-.803-.17-1.666-.376-2.444.06-.384.584-.615.864-.36z" fill="#EFBA1D"/><path d="M16.375 24.81c0 .062.083.084.13.122.21-.28.61-.133.928-.206.13 1.57.45 3.405 1.265 4.72-.146.4-.72.4-1.095.436-.413-.194-.9-.075-1.325-.11l-.645.074c-.243-.17-.62-.026-.924-.037-.755.025-1.497-.05-2.276-.013-.462-.146-.985.085-1.447.025-.435-.132-.936.048-1.347-.158-.317-.035-.694.158-.96-.083-.415-.062-.89.29-1.254.025-.18.037-.328.037-.435-.11-.33.025-.67.037-1.01.06-.29-.434.242-.388.415-.57.316-.134.608-.414.96-.4.268-.16.548-.403.986-.464.27-.205.718-.18.95-.46.57-.098 1.106-.414 1.568-.718.28-.183.62-.28.95-.402.06-.28.352.034.434-.243.173-.075.414 0 .487-.207.753.132.935-.596 1.58-.574.097-.228.474-.082.57-.304.415.173.44-.426.853-.228.13-.185.46-.198.642-.173z" fill="#F7D622"/><path d="M16.375 24.81c0 .062.083.084.13.122.21-.28.61-.133.928-.206.13 1.57.45 3.405 1.265 4.72-.146.4-.72.4-1.095.436-.413-.194-.9-.075-1.325-.11l-.645.074c-.243-.17-.62-.026-.924-.037-.755.025-1.497-.05-2.276-.013-.462-.146-.985.085-1.447.025-.435-.132-.936.048-1.347-.158-.317-.035-.694.158-.96-.083-.415-.062-.89.29-1.254.025-.18.037-.328.037-.435-.11-.33.025-.67.037-1.01.06-.29-.434.242-.388.415-.57.316-.134.608-.414.96-.4.268-.16.548-.403.986-.464.27-.205.718-.18.95-.46.57-.098 1.106-.414 1.568-.718.28-.183.62-.28.95-.402.06-.28.352.034.434-.243.173-.075.414 0 .487-.207.753.132.935-.596 1.58-.574.097-.228.474-.082.57-.304.415.173.44-.426.853-.228.13-.185.46-.198.642-.173z" fill="#EFBA1D"/><path d="M25.278 18.426c.085-.34.428-.112.644-.244.67.146 1.314.34 2.007.256 1.215.207 2.444.815 3.268 1.788-.097.486.5.498.462.987 1.17.656 1.06 2.31 1.33 3.428-.113.5.01.84.047 1.363-.075 1.01-.732 1.8-.644 2.846-.365.91-1.23 1.373-1.85 2.03-.144-.012-.22.075-.268.206-.9-.012-1.41.657-2.308.733-.574.595-1.41.424-2.177.558-.56 0-1.085.073-1.606 0-.243-.075-.438-.292-.705-.194-.22-.098-.415-.22-.72-.195-.123-.22-.4-.17-.595-.27-.802-.51-1.727-1.166-1.982-2.14-.39-.51-.85-.975-.973-1.644-.705-1.118-.83-2.687-.56-3.916-.085-1.265.414-2.773 1.555-3.478.16.173.38-.05.547.05.38-.27.39-1.023 1.058-.804.33-.034.195-.387.353-.56.523-.496 1.386-.255 1.85-.836.438.01.827.13 1.265.034z" fill="#F4EA26"/><path d="M38.133 8.647c-.426 1.168-1.495 2.202-1.776 3.406-.036.377-.206.717-.4 1.058-.132.256-.427.534-.305.864-.413.5-.316 1.12-.718 1.63.026.22-.11.292-.145.484-.1.526-.524.754-.573 1.253-.523.83-.634 1.862-1.168 2.737-.733.207-1.144-.498-1.52-.886-.646-.39-1.302-.877-2.008-1.094-.462-.17-.705-.62-.67-1.107.305-.5.635-.876.974-1.375.318-.073.414-.462.78-.414.084-.266.366-.205.524-.35.583-.804 1.57-1.07 2.14-1.9 1.326-1.387 2.628-2.59 4.03-3.904.227-.34.376-.608.765-.74l.068.34zM11.39 14.838c.17.17.51.292.78.365.352.146.73.17 1.07.425.255.026.644-.012.73.27.075.073.157.098.243.05.17.13.474.17.693.24.377.048.462.45.875.367.403.24.768.484 1.206.608l.024.083c.623.304 1.204.83 1.86.912 0 .4.536.076.487.487.256.12.594.243.608.608-.78.754-1.763 1.69-1.86 2.87-.244.29-.317.632-.684.752-.376-.304-.532-.74-.886-1.07-.304.025-.365-.414-.67-.533-.524-.51-1.36-.95-1.692-1.63-.206-.22-.523-.477-.73-.77-.11-.254-.34-.446-.547-.668-.364-.255-.644-.705-1.033-.946-.037-.28-.317-.32-.414-.525-.72-.51-1.073-1.397-1.9-1.788-.158-.28-.328-.608-.39-.876.783.1 1.525.573 2.23.768z" fill="#EFBA1D"/><path d="M21.252 6.19c.377 1.192.96 2.056 1.265 3.296.596.938.912 2.032 1.362 3.017.242.788.704 1.47 1.045 2.19.387.836 1.19 1.64.958 2.626-.364.4-.897.01-1.347.048-.39.278-.754-.244-1.058.158-.535-.134-1.01.228-1.4.498-.303 0-.425.28-.738.256-.33-.207-.195-.645-.195-.927-.134-.995.036-1.92-.182-2.93.075-.78-.06-1.616.014-2.43-.112-.977.034-1.923-.036-2.898-.025-.898.18-1.8.11-2.722.056-.073.068-.207.202-.182z" fill="#F7D622"/><path d="M21.252 6.19c.377 1.192.96 2.056 1.265 3.296.596.938.912 2.032 1.362 3.017.242.788.704 1.47 1.045 2.19.387.836 1.19 1.64.958 2.626-.364.4-.897.01-1.347.048-.39.278-.754-.244-1.058.158-.535-.134-1.01.228-1.4.498-.303 0-.425.28-.738.256-.33-.207-.195-.645-.195-.927-.134-.995.036-1.92-.182-2.93.075-.78-.06-1.616.014-2.43-.112-.977.034-1.923-.036-2.898-.025-.898.18-1.8.11-2.722.056-.073.068-.207.202-.182z" fill="#EFBA1D"/></svg>