<?xml version="1.0" encoding="UTF-8"?>
<!-- Created with Inkscape (http://www.inkscape.org/) -->
<svg width="69" height="90" version="1.1" viewBox="0 0 69 90" xmlns="http://www.w3.org/2000/svg" xmlns:cc="http://creativecommons.org/ns#" xmlns:dc="http://purl.org/dc/elements/1.1/" xmlns:rdf="http://www.w3.org/1999/02/22-rdf-syntax-ns#">
 <metadata>
  <rdf:RDF>
   <cc:Work rdf:about="">
    <dc:format>image/svg+xml</dc:format>
    <dc:type rdf:resource="http://purl.org/dc/dcmitype/StillImage"/>
    <dc:title/>
   </cc:Work>
  </rdf:RDF>
 </metadata>
 <g transform="matrix(.25406 0 0 .25406 .19725 .00051117)" stroke-width=".32">
  <path d="m0 177.12v-177.12h268.48v354.24h-268.48z" fill="#fcfdfc"/>
  <path d="m1.5528 177.12v-177.12h268.48v354.24h-268.48zm263.92 149.2-0.0821-22.8-259.04-0.1608v9.3879c0 5.1634-0.095439 15.46-0.21209 22.88l-0.21209 13.492h259.63zm-167.32 14.679c-4.8407-1.7299-7.4428-6.9551-7.4293-14.919 0.01072-6.3015 1.3314-10.261 4.3186-12.946 3.6144-3.2496 9.0484-3.1617 12.405 0.20082 0.94846 0.9501 2.8237 4.3225 2.5352 4.5592-0.0621 0.0509-1.3254 0.55038-2.8075 1.1099-2.7252 1.0289-3.2061 0.99614-3.2204-0.21938-0.0108-0.9128-0.99726-2.2528-1.8868-2.5629-1.4025-0.48891-2.8979 0.37188-3.7851 2.1788-1.7729 3.6106-1.814 11.986-0.07561 15.394 1.865 3.6558 5.4908 2.8223 6.3812-1.467 0.51872-2.4987 0.37234-2.727-1.7485-2.727h-1.77v-5.12h9.6l-5e-3 3.28c-8e-3 5.5408-1.3155 9.3343-4.0456 11.737-0.74352 0.65446-1.9171 1.3593-2.6079 1.5663-1.6306 0.48854-4.3952 0.45779-5.8586-0.0652zm45.714-0.016c-2.0433-0.72906-2.157-0.93603-2.157-3.9284 0-1.4891 0.108-2.6519 0.24-2.5839 3.2105 1.6526 5.3635 1.8317 6.6426 0.55257 1.0564-1.0563 1.3766-2.8995 0.68668-3.9524-0.28182-0.43008-1.7762-1.7281-3.3209-2.8846-3.9415-2.9508-5.1663-4.9616-5.1944-8.5277-0.0446-5.6552 3.8003-9.4472 8.9594-8.8361 0.84854 0.1005 2.1286 0.4816 2.8447 0.8469l1.3019 0.66417v2.7135c0 1.4924-0.108 2.709-0.24 2.7035-0.132-5e-3 -0.816-0.36475-1.52-0.79836-1.8062-1.1125-3.4594-1.0615-4.6646 0.14374-1.8884 1.8884-1.0681 3.6958 3.2088 7.0695 3.9704 3.1319 4.6563 4.3338 4.6542 8.1551-2e-3 3.371-0.63763 5.1115-2.5428 6.9618-2.0503 1.9912-5.98 2.7423-8.8986 1.7008zm-127.6-14.743v-14.88h6.08v11.52h5.76v-11.52h6.08v29.76h-6.08v-12.8h-5.76v12.8h-6.08zm28.8 0v-14.88h11.84v5.44h-6.08v6.4h5.12v5.76h-5.12v6.4h6.08v5.76h-11.84zm22.08-0.0269v-14.907l5.36 0.10986c4.7422 0.0972 5.5075 0.18893 6.64 0.79583 3.4491 1.8484 5.0812 6.286 3.8586 10.491-0.41892 1.441-0.89708 2.2064-2.1266 3.404l-1.5862 1.545 2.1245 5.5339c1.1685 3.0436 2.3173 6.0739 2.5529 6.7339l0.42835 1.2h-6.2568l-5.0748-13.28-0.17298 13.28h-5.747zm9.326-3.2171c1.5313-1.4671 1.6128-4.3879 0.16921-6.0662-0.52042-0.60503-1.1291-0.87927-2.2257-1.0029l-1.5094-0.17023v3.9883c0 2.1935 0.108 4.0969 0.24 4.2298 0.45941 0.4622 2.4259-0.11655 3.326-0.97885zm43.794 3.244v-14.88h11.84v5.44h-6.08v6.4h5.44v5.76h-5.44v6.4h6.08v5.76h-11.84zm45.44 2.72v-12.16h-4.48v-5.44h15.04v5.44h-4.48v24.32h-6.08zm18.24-2.72v-14.88h11.84v5.44h-6.08v6.4h5.44v5.76h-5.44v6.4h6.08v5.76h-11.84zm21.12 0v-14.88h6.08v24h6.08v5.76h-12.16zm20.16 0v-14.88h5.76v24h6.08v5.76h-11.84zm21.44 2.72v-12.16h-4.8v-5.44h15.36v5.44h-4.8v24.32h-5.76zm-185.18-39.02c6.7553-1.3468 12.656-3.7992 16.929-7.0352 2.9842-2.2604 6.9356-6.617 8.6097-9.4925 3.6907-6.3393 5.3865-13.03 5.3995-21.304 0.01261-8.0587-2.2286-14.869-6.7474-20.503-4.9162-6.1292-12.287-9.2918-29.616-12.708-4.4084-0.86903-8.2587-1.801-8.96-2.1688-1.2032-0.63096-1.2291-0.68231-1.1975-2.3727 0.01853-0.99217 0.31742-2.3725 0.70201-3.2419l0.66975-1.5141h6.0866c6.8816 0 10.441-0.5217 15.03-2.2031 4.8226-1.7667 8.1113-3.943 11.736-7.7662 4.9904-5.2633 7.545-11.733 7.6253-19.311 0.04309-4.0652-0.54863-6.8923-2.1539-10.198l-1.0325-2.1262 1.3083 0.17932c0.76279 0.10455 2.1591-0.0386 3.3487-0.34341 2.4047-0.61605 6.4032-2.8863 6.4032-2.8863l-6.8483-23.073s-0.96705 0.81976-1.9461 1.7145c-2.3327 2.132-6.1668 4.0392-9.1224 4.5377-2.942 0.49624-5.4063 0.14295-11.193-1.6046-6.4036-1.9339-9.6074-2.3182-16.324-2.102-5.9312 0.19093-8.9107 0.69472-13.407 2.2668-14.213 4.9701-22.093 18.325-20.571 34.866 0.80284 8.7264 3.8506 15.179 9.1497 19.373l1.7734 1.4033-1.6872 1.8224c-4.4691 4.8272-7.3237 11.341-7.7987 17.797-0.1478 2.0086-0.06328 2.9729 0.37864 4.32 2.0291 6.1854 9.697 11.796 18.346 13.424 1.701 0.32016 5.9728 0.82166 9.4928 1.1144s7.3542 0.72416 8.5203 0.95859c7.3336 1.4742 11.808 7.6865 11.407 15.837-0.15673 3.1848-1.0589 5.2917-3.1698 7.4025-4.9603 4.9603-15.804 5.0691-20.714 0.20793-2.3122-2.2893-2.7258-3.5856-2.8623-8.9705l-0.11964-4.72h-11.632c-6.3975 0-11.703 0.11492-11.79 0.25537-0.43263 0.70001-1.222 6.6661-1.2364 9.3446-0.03853 7.1728 3.2756 15.051 8.5505 20.326 4.6711 4.6711 11.008 7.6235 19.206 8.9482 4.3327 0.70009 14.903 0.45325 19.456-0.45431zm-12.997-100.96c-4.1467-1.4789-6.5026-7.1503-5.6746-13.66 0.58355-4.5877 2.0486-7.2192 4.8756-8.7579 3.1029-1.6888 7.7718-0.99839 10.076 1.49 2.0642 2.2291 3.1608 6.3514 2.905 10.92-0.38025 6.7895-3.6381 10.502-9.178 10.458-0.98065-8e-3 -2.3325-0.21004-3.0042-0.44957zm107.56 100.5c0.25672-0.15866 0.38076-1.3733 0.38076-3.7285v-3.4932l-0.82084 0.31208c-2.1314 0.81036-4.8252 0.10366-6.86-1.7996-2.8215-2.6391-4.2441-7.529-3.5494-12.2 0.47992-3.2268 1.4106-5.2355 3.2024-6.9115 1.8574-1.7374 3.3222-2.2462 5.9794-2.077l2.0484 0.13043v-3.2763c0-2.1875-0.12653-3.3545-0.38076-3.5116-0.20942-0.12943-1.4881-0.29942-2.8415-0.37777-6.3495-0.36757-12.005 3.9989-14.576 11.255-0.85362 2.4086-0.94359 4.5681-0.92167 7.2406 0.0185 2.252 0.0752 4.859 0.90012 7.2615 2.5393 7.3955 8.1378 11.8 14.639 11.517 1.3306-0.058 2.5906-0.21127 2.8-0.3407zm-45.059-14.758v-14.88h5.44v-7.05l-18.08 0.17v6.72l5.28 0.1858v14.654c0 8.0596 0.096 14.75 0.21334 14.867 0.11733 0.11733 1.7733 0.21333 3.68 0.21333h3.4667zm23.36 11.36v-3.52h-7.04v-8h6.08v-7.04h-6.08v-7.68h7.04v-7.04h-14.08v36.8h14.08zm34.24-4.16v-7.68h7.04v15.36h7.04v-36.8h-7.04v14.4h-7.04v-14.4h-7.04v36.8h7.04zm28.622-2.9564c-0.0137-8.1375 0.064-10.281 0.34785-9.6 0.20098 0.48201 2.0676 5.2324 4.1479 10.556l3.7825 9.68h6.6193v-36.8h-7.0796l0.1996 21.078-8.32-21.077-3.44-6.4e-4 -3.44-8.8e-4v36.821l7.2-0.181-0.0176-10.476zm29.458-7.7636v-18.24h-7.04l-0.0831 17.92c-0.0457 9.856-0.0123 18.105 0.0741 18.331 0.11763 0.30739 1.0252 0.38799 3.6031 0.32l3.4459-0.0909zm14.56 9.3582 0.16-8.8818 6.1386 17.764 3.7307 0.0902c2.0519 0.0496 3.7307 0.036 3.7307-0.0303 0-0.0662-1.6532-4.5281-3.6739-9.9152l-3.6739-9.7948 3.1939-8.2375c1.7566-4.5306 3.1939-8.3581 3.1939-8.5054 0-0.14735-1.603-0.22719-3.5623-0.17743l-3.5623 0.0905-5.5155 15.482-0.32-15.482h-7.04l-0.0831 17.92c-0.0457 9.856-0.0123 18.105 0.0741 18.331 0.11763 0.30739 1.0252 0.38799 3.6031 0.32l3.4459-0.0909zm-91.905-36.848c6.3917-1.6046 11.933-4.4058 17.345-8.7678 2.3828-1.9206 4.16-3.5372 4.16-3.784 0-0.11201-2.2489-4.2747-4.9976-9.2505l-4.9976-9.0468-2.3986 2.0101c-6.1273 5.1351-13.574 7.9759-19.464 7.4258-6.4518-0.60247-10.32-5.6971-11.159-14.697l-0.20132-2.16h43.609l-0.16146-10.32c-0.19875-12.703-0.89043-18.027-3.3362-25.68-2.8003-8.7621-7.0354-14.895-13.026-18.863-4.4618-2.9555-8.8721-4.4137-15.103-4.9935-8.6074-0.801-16.449 1.2918-22.78 6.0799-8.4126 6.3619-13.558 16.94-15.808 32.497-0.6544 4.5253-0.55148 19.241 0.16652 23.809 3.3064 21.037 13.728 33.354 30.757 36.352 1.8074 0.31819 4.3051 0.41845 8.3401 0.33478 4.8682-0.10095 6.2701-0.24751 9.0549-0.9466zm-21.519-62.19c0.41252-5.523 1.6104-9.5225 3.4596-11.551 1.0901-1.1959 3.0707-2.042 5.1553-2.2023 1.6739-0.12873 2.1625-0.0259 3.6894 0.77642 3.1599 1.6604 4.5675 5.0955 4.999 12.2l0.21725 3.577h-17.73zm84.304 28.26v-32.78l2.1094-1.7896c1.1602-0.98427 2.3296-2.0319 3.7331-2.6123 1.2522-0.51784 2.6531-0.81006 4.0039-0.70257 1.1556 0.092 2.5863 0.2119 3.2872 1.1352 2.1264 2.8014 1.7196 0.84118 1.827 36.493l0.0994 33.044 26.38-0.1671v-38.08c0-34.846-0.0473-38.33-0.55694-41.022-2.1781-11.508-7.8473-16.735-19.364-17.855-2.705-0.26308-7.8603 0.34204-11.231 1.3182-3.487 1.01-8.2069 3.467-11.003 5.728-1.2253 0.99068-2.265 1.7444-2.265 1.7444s-0.2112-1.6888-0.52947-3.8334c-0.56034-3.7756-0.86399-4.6627-0.86399-4.6627s-6.4574 1.1439-12.851 2.4491l-11.624 2.3731 0.19876 0.96022c0.51804 2.5027 1.4441 10.071 1.7497 14.3 0.20949 2.899 0.33964 18.42 0.33964 40.507 0 19.694 0.096 35.903 0.21333 36.02s6.0933 0.21333 13.28 0.21333h13.067zm53.361-143.14-0.08081-62-259.04-0.16078-1.517e-4 24.88c-8.35e-5 13.684-0.095878 41.62-0.21288 62.08l-0.21273 37.2h259.63zm-224.88 52.587c-13.014-2.7347-21.484-15.541-24.489-37.026-0.70363-5.0302-0.98396-19.623-0.49367-25.699 2.1769-26.975 12.997-42.703 29.4-42.737 14.848-0.031052 25.506 13.519 28.691 36.474 1.5339 11.056 1.3472 25.197-0.47308 35.84-3.0889 18.06-11.069 29.722-22.468 32.835-2.4687 0.67416-7.6811 0.83396-10.167 0.31168zm6.4329-18.791c4.6918-1.5709 7.7568-8.6844 9.2875-21.556 0.54996-4.6243 0.55778-19.993 0.01251-24.64-1.153-9.8262-3.0878-15.923-6.0621-19.103-1.7649-1.8868-3.586-2.6298-5.9627-2.4327-5.1365 0.42596-8.4391 6.3687-10.299 18.533-0.69692 4.5569-0.97422 20.312-0.45704 25.966 0.95706 10.464 3.0257 17.509 6.1358 20.896 2.2311 2.4297 4.7108 3.2184 7.3454 2.3363zm35.808-33.556v-49.92h17.6v39.04h17.92v-39.04h17.6v99.84h-17.6v-42.24h-17.92v42.24h-17.6zm66.88-0.0052v-49.925l17.018 0.17046 10.905 29.839c5.9979 16.411 10.946 29.798 10.996 29.748 0.0499-0.04991-0.13859-1.3094-0.41889-2.7989-0.4333-2.3025-0.52988-6.7708-0.64471-29.828l-0.13508-27.12h17.639v99.851l-16.736-0.1706-9.5516-26.4c-12.119-33.496-12.174-33.646-12.288-33.532-0.0524 0.05242 0.10398 2.3265 0.34755 5.0535 0.32959 3.69 0.44601 11.363 0.45516 29.998l0.0123 25.04h-17.6v-49.925zm68.48 0.0052v-49.92h35.52v18.56h-17.92v21.76h15.68v18.56h-15.68v22.4h18.24v18.56h-35.84z" fill="#00914a"/>
 </g>
</svg>
