<?xml version="1.0" encoding="UTF-8" standalone="no"?>
<!-- Created with Inkscape (http://www.inkscape.org/) -->

<svg
   width="58.666016"
   height="47.999996"
   id="svg8313"
   version="1.1"
   inkscape:version="1.1.1 (3bf5ae0d25, 2021-09-20)"
   sodipodi:docname="barcode.svg"
   inkscape:export-filename="C:\Users\Stéphane\Desktop\Blogs\OpenFoodFacts\openfoodfacts-logo-712x600.png"
   inkscape:export-xdpi="360"
   inkscape:export-ydpi="360"
   viewBox="0 0 54.999389 44.999996"
   xmlns:inkscape="http://www.inkscape.org/namespaces/inkscape"
   xmlns:sodipodi="http://sodipodi.sourceforge.net/DTD/sodipodi-0.dtd"
   xmlns="http://www.w3.org/2000/svg"
   xmlns:svg="http://www.w3.org/2000/svg"
   xmlns:rdf="http://www.w3.org/1999/02/22-rdf-syntax-ns#"
   xmlns:cc="http://creativecommons.org/ns#"
   xmlns:dc="http://purl.org/dc/elements/1.1/">
  <defs
     id="defs8315" />
  <sodipodi:namedview
     id="base"
     pagecolor="#ffffff"
     bordercolor="#666666"
     borderopacity="1.0"
     inkscape:pageopacity="0.0"
     inkscape:pageshadow="2"
     inkscape:zoom="3.1916204"
     inkscape:cx="-1.0966217"
     inkscape:cy="10.182915"
     inkscape:document-units="px"
     inkscape:current-layer="layer1"
     showgrid="true"
     inkscape:window-width="1920"
     inkscape:window-height="1016"
     inkscape:window-x="1440"
     inkscape:window-y="27"
     inkscape:window-maximized="1"
     inkscape:snap-global="true"
     inkscape:pagecheckerboard="0"
     fit-margin-top="0"
     fit-margin-left="0"
     fit-margin-right="0"
     fit-margin-bottom="0">
    <inkscape:grid
       type="xygrid"
       id="grid8566"
       originx="-37.000122"
       originy="-50.00061"
       spacingx="1"
       spacingy="1"
       visible="false"
       enabled="false" />
  </sodipodi:namedview>
  <metadata
     id="metadata8318">
    <rdf:RDF>
      <cc:Work
         rdf:about="">
        <dc:format>image/svg+xml</dc:format>
        <dc:type
           rdf:resource="http://purl.org/dc/dcmitype/StillImage" />
      </cc:Work>
    </rdf:RDF>
  </metadata>
  <g
     inkscape:label="Calque 1"
     inkscape:groupmode="layer"
     id="layer1"
     transform="translate(-37.000122,-50.000609)">
    <path
       id="path8011"
       style="fill:#555753;fill-opacity:1;fill-rule:nonzero;stroke:none;stroke-width:1.06667"
       d="m 39.466797,53.333984 v 47.999996 h 2.132812 V 53.333984 Z m 3.199219,0 v 47.999996 h 1.066406 V 53.333984 Z m 4.267578,0 V 101.33398 H 48 V 53.333984 Z m 2.132812,0 v 47.999996 h 3.201172 V 53.333984 Z m 6.400391,0 v 47.999996 h 2.132812 V 53.333984 Z m 3.199219,0 v 47.999996 h 1.066406 V 53.333984 Z m 4.277343,0 0.01758,47.999996 h 2.105468 l -0.01953,-47.999996 z m 5.324219,0 v 47.999996 h 1.066406 V 53.333984 Z m 2.132813,0 v 47.999996 h 1.066406 V 53.333984 Z m 4.265625,0 v 47.999996 h 3.201172 V 53.333984 Z m 4.267578,0 v 47.999996 h 2.132812 V 53.333984 Z m 3.199218,0 v 47.999996 h 1.066407 V 53.333984 Z m 4.267579,0 v 47.999996 h 3.199218 V 53.333984 Z m 4.265625,0 v 47.999996 h 2.134765 V 53.333984 Z m 3.201172,0 v 47.999996 h 1.066406 V 53.333984 Z m 2.132812,0 v 47.999996 h 2.132812 V 53.333984 Z"
       transform="scale(0.93749999)" />
  </g>
</svg>
