<svg width="65" height="36" viewBox="0 0 65 36" fill="none" xmlns="http://www.w3.org/2000/svg">
<path d="M-2.55482e-07 30.2726C-1.14593e-07 33.4311 2.68081 36 5.97501 36L59.0256 36C62.3198 36 65 33.4305 65 30.2726L65 5.72736C65 2.56894 62.3198 1.14532e-06 59.0256 1.28642e-06L5.97439 3.55879e-06C2.68019 3.6999e-06 -1.49124e-06 2.56951 -1.35038e-06 5.72737L-2.55482e-07 30.2726Z" fill="white"/>
<path fill-rule="evenodd" clip-rule="evenodd" d="M0.65 30.2726C0.65 33.0464 3.01353 35.35 5.97501 35.35L59.0256 35.35C61.987 35.35 64.35 33.0459 64.35 30.2726L64.35 5.72736C64.35 2.95355 61.987 0.650003 59.0256 0.650003L5.97439 0.650005C3.01304 0.650005 0.649999 2.95408 0.649999 5.72737L0.65 30.2726ZM5.97501 36C2.68081 36 -1.14593e-07 33.4311 -2.55482e-07 30.2726L-1.35038e-06 5.72737C-1.49124e-06 2.56951 2.68019 3.6999e-06 5.97439 3.55879e-06L59.0256 1.28642e-06C62.3198 1.14532e-06 65 2.56894 65 5.72736L65 30.2726C65 33.4305 62.3198 36 59.0256 36L5.97501 36Z" fill="#B3B3B3"/>
<path d="M41.2485 10.9051L34.0093 10.9051C34.2379 12.5815 35.6732 13.4294 37.0881 13.4294C39.1683 13.4294 40.2084 12.4194 40.2084 12.4194V14.4388C40.2084 14.4388 39.1683 15.4488 37.0881 15.4488C33.9678 15.4488 31.8875 13.4294 31.8875 10.3995C31.8875 7.37019 33.9678 5.35026 36.5683 5.35026C39.1688 5.35026 41.249 7.36962 41.249 10.3995V10.9051H41.2485ZM34.0718 9.39011H39.0642C38.773 8.03724 37.837 7.37075 36.5677 7.37075C35.299 7.37075 34.363 8.03724 34.0718 9.39011Z" fill="#1D1D1B"/>
<path d="M49.5978 5.8558V7.87516C49.5978 7.87516 48.0828 7.37018 47.0734 7.37018C45.5585 7.37018 44.0441 8.38014 44.0441 10.3995C44.0441 12.4189 45.559 13.4288 47.0734 13.4288C48.0834 13.4288 49.5978 12.9238 49.5978 12.9238V14.9438C49.5978 14.9438 48.5878 15.4488 47.0734 15.4488C44.0441 15.4488 42.0242 13.4294 42.0242 10.3995C42.0242 7.37018 44.0441 5.35025 47.0734 5.35025C48.5878 5.35082 49.5978 5.8558 49.5978 5.8558Z" fill="#1D1D1B"/>
<path d="M60.4634 10.4001C60.4634 13.4294 58.4435 15.4493 55.4142 15.4493C52.3848 15.4493 50.3649 13.43 50.3649 10.4001C50.3649 7.37075 52.3848 5.35082 55.4142 5.35082C58.4435 5.35082 60.4634 7.37075 60.4634 10.4001ZM52.3848 10.4001C52.3848 12.4194 53.8998 13.4294 55.4142 13.4294C56.9291 13.4294 58.4435 12.4194 58.4435 10.4001C58.4435 8.38015 56.9285 7.37075 55.4142 7.37075C53.8998 7.37075 52.3848 8.38015 52.3848 10.4001Z" fill="#1D1D1B"/>
<path d="M34.1088 30.3349C33.0806 30.3349 32.0524 29.992 32.0524 29.992V28.6215C32.0524 28.6215 33.0806 28.9644 34.1088 28.9644C34.794 28.9644 35.1369 28.6215 35.1369 28.2792C35.1369 27.251 31.8915 27.9362 31.8915 25.5376C31.8915 24.1671 32.7383 23.4813 34.1093 23.4813C35.1375 23.4813 36.1657 23.8242 36.1657 23.8242V25.1947C36.1657 25.1947 35.1375 24.8518 34.1093 24.8518C33.4241 24.8518 33.0812 25.1947 33.0812 25.537C33.0812 26.5652 36.508 25.8799 36.508 28.2786C36.5074 29.6497 35.4793 30.3349 34.1088 30.3349Z" fill="#1D1D1B"/>
<path d="M42.0588 23.8242V25.1947C42.0588 25.1947 41.0307 24.8518 40.3454 24.8518C39.3173 24.8518 38.2891 25.537 38.2891 26.9081C38.2891 28.2786 39.3173 28.9644 40.3454 28.9644C41.0307 28.9644 42.0588 28.6215 42.0588 28.6215V29.992C42.0588 29.992 41.3736 30.3349 40.3454 30.3349C38.2891 30.3349 36.9186 28.9644 36.9186 26.9081C36.9186 24.8518 38.2891 23.4813 40.3454 23.4813C41.3736 23.4813 42.0588 23.8242 42.0588 23.8242Z" fill="#1D1D1B"/>
<path d="M49.4749 26.9081C49.4749 28.9644 48.1044 30.3349 46.0481 30.3349C43.9918 30.3349 42.6213 28.9644 42.6213 26.9081C42.6213 24.8518 43.9918 23.4813 46.0481 23.4813C48.1044 23.4813 49.4749 24.8518 49.4749 26.9081ZM43.9918 26.9081C43.9918 28.2786 45.0199 28.9644 46.0481 28.9644C47.0763 28.9644 48.1044 28.2792 48.1044 26.9081C48.1044 25.5376 47.0763 24.8518 46.0481 24.8518C45.0199 24.8518 43.9918 25.5376 43.9918 26.9081Z" fill="#1D1D1B"/>
<path d="M54.1761 23.4813V24.8518C52.8056 24.8518 51.4346 25.1947 51.4346 26.9081V30.3349H50.0641V23.4813H51.4346V26.2228C51.4351 24.5094 52.4627 23.4813 54.1761 23.4813Z" fill="#1D1D1B"/>
<path d="M60.4133 27.251H55.6433C55.794 28.3889 56.7397 28.9644 57.6718 28.9644C59.0423 28.9644 59.7281 28.2792 59.7281 28.2792V29.6497C59.7281 29.6497 59.0428 30.3349 57.6718 30.3349C55.6154 30.3349 54.2449 28.9644 54.2449 26.9081C54.2449 24.8518 55.6154 23.4813 57.3289 23.4813C59.0423 23.4813 60.4128 24.8518 60.4128 26.9081V27.251H60.4133ZM55.6842 26.2228H58.974C58.7824 25.3044 58.1654 24.8523 57.3294 24.8523C56.4929 24.8518 55.8765 25.3044 55.6842 26.2228Z" fill="#1D1D1B"/>
<path d="M61.3153 19.3936C61.3153 18.2023 60.3491 17.2361 59.1577 17.2361H52.9393C51.7479 17.2361 50.7817 18.2023 50.7817 19.3936C50.7817 20.585 51.7479 21.5512 52.9393 21.5512H59.1577C60.3497 21.5506 61.3153 20.585 61.3153 19.3936Z" fill="#D93726"/>
<path d="M61.5871 19.3936C61.5871 20.7329 60.4975 21.8225 59.1583 21.8225H52.9399C51.6006 21.8225 50.511 20.7329 50.511 19.3936C50.511 18.0544 51.6006 16.9648 52.9399 16.9648H59.1583C60.4975 16.9648 61.5871 18.0544 61.5871 19.3936ZM59.1583 21.2794C60.1984 21.2794 61.044 20.4332 61.044 19.3936C61.044 18.3535 60.1978 17.5079 59.1583 17.5079H52.9399C51.8997 17.5079 51.0541 18.3541 51.0541 19.3936C51.0541 20.4332 51.9003 21.2794 52.9399 21.2794H59.1583Z" fill="white"/>
<path d="M55.6109 19.3936C55.6109 18.2023 54.6447 17.2361 53.4533 17.2361H47.4845C46.2932 17.2361 45.327 18.2023 45.327 19.3936C45.327 20.585 46.2932 21.5512 47.4845 21.5512H53.4533C54.6447 21.5506 55.6109 20.585 55.6109 19.3936Z" fill="#EF7E1A"/>
<path d="M55.8822 19.3936C55.8822 20.7329 54.7926 21.8225 53.4534 21.8225H47.4959C46.1567 21.8225 45.0671 20.7329 45.0671 19.3936C45.0671 18.0544 46.1567 16.9648 47.4959 16.9648H53.4534C54.7926 16.9648 55.8822 18.0544 55.8822 19.3936ZM53.4534 21.2794C54.4935 21.2794 55.3391 20.4332 55.3391 19.3936C55.3391 18.3535 54.4929 17.5079 53.4534 17.5079H47.4959C46.4558 17.5079 45.6102 18.3541 45.6102 19.3936C45.6102 20.4338 46.4564 21.2794 47.4959 21.2794H53.4534Z" fill="white"/>
<path d="M50.2398 19.3936C50.2398 18.2023 49.2736 17.2361 48.0822 17.2361H42.0526C40.8612 17.2361 39.8951 18.2023 39.8951 19.3936C39.8951 20.585 40.8612 21.5512 42.0526 21.5512H48.0822C49.2736 21.5506 50.2398 20.585 50.2398 19.3936Z" fill="#F5C100"/>
<path d="M50.5111 19.3936C50.5111 20.7329 49.4215 21.8225 48.0823 21.8225H42.0526C40.7134 21.8225 39.6238 20.7329 39.6238 19.3936C39.6238 18.0544 40.7134 16.9648 42.0526 16.9648H48.0823C49.4215 16.9648 50.5111 18.0544 50.5111 19.3936ZM48.0823 21.2794C49.1224 21.2794 49.968 20.4332 49.968 19.3936C49.968 18.3535 49.1218 17.5079 48.0823 17.5079H42.0526C41.0125 17.5079 40.1669 18.3541 40.1669 19.3936C40.1669 20.4338 41.0131 21.2794 42.0526 21.2794H48.0823Z" fill="white"/>
<path d="M44.7959 19.3936C44.7959 18.2023 43.8297 17.2361 42.6383 17.2361H36.6087C35.4173 17.2361 34.4511 18.2023 34.4511 19.3936C34.4511 20.585 35.4173 21.5512 36.6087 21.5512H42.6383C43.8297 21.5506 44.7959 20.585 44.7959 19.3936Z" fill="#2ECC71"/>
<path d="M45.0671 19.3936C45.0671 20.7329 43.9775 21.8225 42.6383 21.8225H36.6087C35.2694 21.8225 34.1799 20.7329 34.1799 19.3936C34.1799 18.0544 35.2694 16.9648 36.6087 16.9648H42.6383C43.9775 16.9648 45.0671 18.0544 45.0671 19.3936ZM42.6383 21.2794C43.6784 21.2794 44.524 20.4332 44.524 19.3936C44.524 18.3535 43.6779 17.5079 42.6383 17.5079H36.6087C35.5686 17.5079 34.723 18.3541 34.723 19.3936C34.723 20.4338 35.5691 21.2794 36.6087 21.2794H42.6383Z" fill="white"/>
<path d="M39.3605 19.3936C39.3605 18.2023 38.3943 17.2361 37.2029 17.2361H33.125C31.9336 17.2361 30.9674 18.2023 30.9674 19.3936C30.9674 20.585 31.9336 21.5512 33.125 21.5512H37.2029C38.3943 21.5506 39.3605 20.585 39.3605 19.3936Z" fill="#1E8F4E"/>
<path d="M39.6317 19.3937C39.6317 20.7329 38.5422 21.8225 37.2029 21.8225H33.125C31.7857 21.8225 30.6962 20.7329 30.6962 19.3937C30.6962 18.0544 31.7857 16.9649 33.125 16.9649H37.2029C38.5422 16.9649 39.6317 18.0544 39.6317 19.3937ZM37.2029 21.2794C38.243 21.2794 39.0886 20.4332 39.0886 19.3937C39.0886 18.3536 38.2425 17.5079 37.2029 17.5079H33.125C32.0849 17.5079 31.2393 18.3541 31.2393 19.3937C31.2393 20.4338 32.0854 21.2794 33.125 21.2794H37.2029Z" fill="white"/>
<path d="M27.8487 5.53301C28.2891 5.4961 28.6976 5.90395 28.6601 6.34433C28.6056 6.97175 27.825 21.2284 23.2623 25.7911C18.8891 30.1637 13.7372 29.1378 10.3724 26.7188C10.3317 26.6894 10.2861 26.6544 10.236 26.6144L7.20339 29.6432C6.47026 30.3757 5.28236 30.3757 4.54985 29.6432C3.81672 28.9101 3.81672 27.7222 4.54985 26.9897L7.57934 23.9571C7.53868 23.9064 7.50365 23.8607 7.47425 23.8201C5.05591 20.4559 4.0294 15.3033 8.40193 10.9302C12.964 6.36748 27.2207 5.58618 27.8487 5.53301Z" fill="#B3B3B3"/>
<path d="M13.0001 14.4085C13.0518 12.7552 14.5314 11.4211 16.1294 11.1223C17.7317 10.7779 19.617 11.1437 20.6863 12.4375C21.4984 13.4539 21.5623 15.0424 20.6551 16.0241C19.9326 16.9412 18.8151 17.5013 18.1895 18.4967C17.944 19.0175 18.0497 19.7704 17.4368 20.0646C16.7839 20.4227 15.8805 19.8536 15.9367 19.123C15.8746 18.0762 16.4772 17.1061 17.2792 16.4575C17.9219 15.8422 18.8359 15.3468 19.0267 14.4165C19.1448 13.484 18.2247 12.6626 17.2965 12.7174C16.5477 12.6671 15.7792 13.0688 15.4866 13.7606C15.1942 14.32 15.1338 15.1209 14.4506 15.3782C13.8061 15.5987 12.9902 15.0989 13.0001 14.4085ZM17.0601 23.3314C16.2356 23.3991 15.5577 22.5016 15.8416 21.7454C16.098 20.8956 17.3724 20.5772 17.9718 21.2722C18.512 21.8369 18.3809 22.9152 17.6053 23.2142C17.4354 23.2918 17.2479 23.3338 17.06 23.3314H17.0601Z" fill="white"/>
</svg>
