<svg width="65" height="34" viewBox="0 0 65 34" fill="none" xmlns="http://www.w3.org/2000/svg">
<path fill-rule="evenodd" clip-rule="evenodd" d="M5.98684 0H58.7088C62.0528 0 64.7226 2.67568 64.7226 6V27.1081C64.7226 30.4324 62.0528 33.1081 58.7358 33.1081H5.98684C2.66981 33.1351 0 30.4595 0 27.1351V6C0 2.67568 2.66981 0 5.98684 0Z" fill="white"/>
<path fill-rule="evenodd" clip-rule="evenodd" d="M9.68143 11.9459H21.763V31.5135H9.68143V11.9459Z" fill="#545454"/>
<path fill-rule="evenodd" clip-rule="evenodd" d="M44.9013 11.9459H56.9829V31.5135H44.9013V11.9459Z" fill="#6B6B6B"/>
<path fill-rule="evenodd" clip-rule="evenodd" d="M7.22736 11.9459H10.2477C12.7557 11.9459 14.7783 13.973 14.7783 16.4865V26.973C14.7783 29.4865 12.7557 31.5135 10.2477 31.5135H7.22736C4.71936 31.5135 2.69678 29.4865 2.69678 26.973V16.4865C2.69678 13.973 4.71936 11.9459 7.22736 11.9459Z" fill="#545454"/>
<path fill-rule="evenodd" clip-rule="evenodd" d="M38.9954 11.9459H51.0769V31.5135H38.9954V11.9459Z" fill="#949494"/>
<path d="M41.4494 26.1622V17.2973H44.7665C45.4946 17.2973 46.1418 17.4054 46.6812 17.6486C47.2205 17.8919 47.679 18.1892 48.0565 18.5946C48.4341 19 48.7038 19.4595 48.8925 20C49.0813 20.5405 49.1892 21.1081 49.1892 21.7027C49.1892 22.3784 49.0813 23 48.8656 23.5405C48.6498 24.0811 48.3532 24.5405 47.9756 24.9459C47.5981 25.3243 47.1396 25.6216 46.5733 25.8378C46.034 26.0541 45.4407 26.1622 44.7665 26.1622H41.4494ZM47.0857 21.7297C47.0857 21.3513 47.0318 20.973 46.9239 20.6757C46.816 20.3513 46.6812 20.0811 46.4654 19.8378C46.2767 19.5946 46.034 19.4324 45.7373 19.2973C45.4407 19.1622 45.117 19.1081 44.7395 19.1081H43.472V24.3784H44.7395C45.117 24.3784 45.4407 24.3243 45.7373 24.1892C46.034 24.0541 46.2767 23.8649 46.4654 23.6486C46.6542 23.4054 46.816 23.1351 46.9239 22.8108C47.0318 22.4595 47.0857 22.1081 47.0857 21.7297Z" fill="white" fill-opacity="0.4461"/>
<path fill-rule="evenodd" clip-rule="evenodd" d="M26.8599 11.9459H39.0224V31.5135H26.8599V11.9459Z" fill="#C4C4C4"/>
<path fill-rule="evenodd" clip-rule="evenodd" d="M26.8599 11.9459H14.7514V31.5135H26.8329L26.8599 11.9459Z" fill="#9B9B9B"/>
<path d="M28.9094 21.6486C28.9094 21.1081 29.0173 20.5946 29.2061 20.0541C29.3948 19.5135 29.6915 19.0541 30.069 18.6216C30.4466 18.2162 30.905 17.8649 31.4714 17.6216C32.0107 17.3513 32.631 17.2432 33.3321 17.2432C34.1681 17.2432 34.8693 17.4324 35.4896 17.7838C36.1098 18.1351 36.5683 18.6216 36.8649 19.1892L35.3008 20.2973C35.1929 20.0541 35.085 19.8649 34.9232 19.7297C34.7614 19.5676 34.5996 19.4595 34.4378 19.3513C34.249 19.2432 34.0603 19.1892 33.8715 19.1622C33.6827 19.1081 33.4939 19.1081 33.3052 19.1081C32.9276 19.1081 32.577 19.1892 32.2804 19.3513C31.9837 19.5135 31.741 19.7027 31.5523 19.973C31.3635 20.2162 31.2287 20.5135 31.1208 20.8108C31.0399 21.1351 30.9859 21.4595 30.9859 21.7838C30.9859 22.1351 31.0399 22.4595 31.1477 22.7838C31.2556 23.1081 31.4174 23.4054 31.6062 23.6486C31.8219 23.8919 32.0647 24.1081 32.3343 24.2432C32.631 24.3784 32.9546 24.4595 33.3052 24.4595C33.4939 24.4595 33.6827 24.4324 33.8715 24.4054C34.0603 24.3513 34.249 24.2973 34.4378 24.1892C34.6266 24.0811 34.7884 23.973 34.9232 23.8108C35.085 23.6486 35.1929 23.4595 35.2738 23.2432L36.9458 24.2432C36.811 24.5676 36.6222 24.8649 36.3525 25.1081C36.0828 25.3784 35.7862 25.5946 35.4626 25.7568C35.112 25.9189 34.7614 26.0541 34.3839 26.1622C34.0063 26.2432 33.6288 26.2973 33.2512 26.2973C32.604 26.2973 32.0107 26.1622 31.4714 25.9189C30.932 25.6486 30.4736 25.2973 30.096 24.8649C29.7185 24.4324 29.4218 23.9459 29.2061 23.3784C28.9903 22.7838 28.9094 22.2162 28.9094 21.6486Z" fill="white" fill-opacity="0.4461"/>
<path d="M24.4598 23.8919C24.4598 24.2703 24.3789 24.6216 24.217 24.8919C24.0552 25.1622 23.8395 25.4054 23.5698 25.5946C23.3001 25.7838 22.9765 25.9189 22.599 26.027C22.2214 26.1081 21.8439 26.1622 21.4394 26.1622H17.1245V17.2973H22.0596C22.3563 17.2973 22.6529 17.3513 22.8956 17.4865C23.1383 17.6216 23.3541 17.7838 23.5429 18C23.7047 18.2162 23.8395 18.4595 23.9474 18.7297C24.0552 19 24.1092 19.2703 24.1092 19.5676C24.1092 20 24.0013 20.4054 23.7856 20.7568C23.5698 21.1351 23.2732 21.4054 22.8417 21.5946C23.3541 21.7568 23.7586 22 24.0283 22.4054C24.3249 22.8108 24.4598 23.2973 24.4598 23.8919ZM22.3832 23.4865C22.3832 23.2162 22.3023 22.973 22.1405 22.7838C21.9787 22.5946 21.7899 22.4865 21.5472 22.4865H19.201V24.4324H21.4663C21.736 24.4324 21.9518 24.3513 22.1405 24.1622C22.3023 24 22.3832 23.7568 22.3832 23.4865ZM19.201 19.0541V20.8919H21.1967C21.4124 20.8919 21.6281 20.8108 21.7899 20.6757C21.9518 20.5135 22.0596 20.2973 22.0596 19.973C22.0596 19.6757 21.9787 19.4595 21.8169 19.2973C21.6551 19.1351 21.4933 19.0541 21.2776 19.0541H19.201Z" fill="white" fill-opacity="0.4461"/>
<path d="M7.82065 17.2973H9.65446L12.8906 26.1622H10.7871L10.1129 24.1622H7.3622L6.688 26.1622H4.58452L7.82065 17.2973ZM9.76233 22.7838L8.73755 19.6486L7.68581 22.7838H9.76233Z" fill="white" fill-opacity="0.4461"/>
<path fill-rule="evenodd" clip-rule="evenodd" d="M55.6075 11.9459H58.6279C61.1359 11.9459 63.1585 13.973 63.1585 16.4865V26.973C63.1585 29.4865 61.1359 31.5135 58.6279 31.5135H55.6075C53.0995 31.5135 51.0769 29.4865 51.0769 26.973V16.4865C51.05 13.973 53.0725 11.9459 55.6075 11.9459Z" fill="#6B6B6B"/>
<path d="M60.219 24.3784V26.1892H53.9894V17.2973H60.1111V19.1081H56.039V20.8108H59.5178V22.4865H56.039V24.3784H60.219Z" fill="white" fill-opacity="0.4461"/>
<path d="M5.20478 5.45947V8.02703H4.18001V3.51352H4.98904L7.06556 6.13514V3.51352H8.09033V8.00001H7.25433L5.20478 5.45947Z" fill="#7D7D7D"/>
<path d="M10.868 7.13514C11.0568 7.13514 11.1916 7.10811 11.3265 7.02703C11.4613 6.94595 11.5422 6.86487 11.6231 6.72974C11.704 6.5946 11.7579 6.45947 11.7849 6.32433C11.8119 6.16217 11.8388 6.00001 11.8388 5.83784V3.51352H12.8636V5.81082C12.8636 6.13514 12.8366 6.40541 12.7557 6.67568C12.6748 6.94595 12.567 7.18919 12.4052 7.37838C12.2434 7.56757 12.0276 7.72974 11.7849 7.86487C11.5422 7.97298 11.2455 8.02703 10.895 8.02703C10.5444 8.02703 10.2208 7.97298 9.97806 7.83784C9.73535 7.70271 9.51961 7.54055 9.35781 7.35136C9.196 7.13514 9.08813 6.91892 9.00722 6.64865C8.92632 6.37838 8.89935 6.10811 8.89935 5.81082V3.51352H9.92413V5.81082C9.92413 5.97298 9.9511 6.13514 9.97806 6.2973C10.005 6.45946 10.059 6.5946 10.1399 6.70271C10.2208 6.83784 10.3017 6.91892 10.4365 7.00001C10.5444 7.08109 10.7062 7.13514 10.868 7.13514Z" fill="#7D7D7D"/>
<path d="M17.0706 4.43244H15.7222V8.00001H14.6974V4.43244H13.3221V3.51352H17.0976C17.0706 3.51352 17.0706 4.43244 17.0706 4.43244Z" fill="#7D7D7D"/>
<path d="M17.583 8.00001V3.51352H19.6056C19.8213 3.51352 20.0101 3.56757 20.1989 3.64865C20.3876 3.72974 20.5225 3.86487 20.6573 4.00001C20.7921 4.13514 20.9 4.2973 20.9539 4.48649C21.0349 4.67568 21.0618 4.83784 21.0618 5.02703C21.0618 5.16217 21.0349 5.2973 21.0079 5.43244C20.9809 5.56757 20.927 5.67568 20.873 5.78379C20.8191 5.8919 20.7382 6.00001 20.6303 6.08109C20.5494 6.16217 20.4416 6.24325 20.3337 6.2973L21.3045 7.97298H20.1449L19.2819 6.51352H18.6078V7.97298C18.6078 8.00001 17.583 8.00001 17.583 8.00001ZM18.6078 5.64865H19.5516C19.6865 5.64865 19.7674 5.5946 19.8752 5.48649C19.9561 5.37838 20.0101 5.21622 20.0101 5.02703C20.0101 4.83784 19.9561 4.70271 19.8483 4.5946C19.7404 4.48649 19.6325 4.43244 19.5247 4.43244H18.6078V5.64865Z" fill="#7D7D7D"/>
<path d="M21.7899 8.00001V3.51352H22.8147V8.00001H21.7899Z" fill="#7D7D7D"/>
<path d="M23.5968 6.72973V5.81081H25.5385V6.72973H23.5968Z" fill="#7D7D7D"/>
<path d="M28.9903 4.83783C28.9903 4.8108 28.9364 4.78378 28.8555 4.72972C28.7746 4.67567 28.6937 4.62162 28.5589 4.59459C28.451 4.54053 28.3161 4.48648 28.1813 4.45945C28.0465 4.43243 27.9116 4.4054 27.7768 4.4054C27.3992 4.4054 27.2105 4.54054 27.2105 4.78378C27.2105 4.86486 27.2374 4.91891 27.2644 4.97297C27.3183 5.02702 27.3723 5.08108 27.4532 5.1081C27.5341 5.13513 27.6419 5.18918 27.7498 5.21621C27.8577 5.24324 27.9925 5.29729 28.1543 5.32432C28.3701 5.37837 28.5589 5.45945 28.7476 5.51351C28.9094 5.56756 29.0712 5.67567 29.1791 5.78378C29.3139 5.89189 29.3949 5.99999 29.4488 6.16216C29.5027 6.29729 29.5567 6.48648 29.5567 6.7027C29.5567 6.94594 29.5027 7.16216 29.4218 7.35135C29.3409 7.51351 29.2061 7.67567 29.0443 7.78378C28.8825 7.89189 28.7207 7.97297 28.5049 8.02702C28.3161 8.08108 28.1004 8.1081 27.8847 8.1081C27.7229 8.1081 27.561 8.1081 27.3723 8.08108C27.2105 8.05405 27.0217 8.02702 26.8599 7.97297C26.6981 7.91891 26.5363 7.86486 26.3745 7.78378C26.2127 7.72972 26.0778 7.64864 25.943 7.54053L26.4014 6.64864C26.4284 6.67567 26.4823 6.7027 26.5632 6.75675C26.6441 6.81081 26.779 6.86486 26.9138 6.94594C27.0487 6.99999 27.2105 7.05405 27.3723 7.1081C27.5341 7.16216 27.7229 7.18918 27.8847 7.18918C28.2622 7.18918 28.424 7.08108 28.424 6.86486C28.424 6.78378 28.397 6.7027 28.3431 6.64864C28.2892 6.59459 28.2083 6.54053 28.1274 6.51351C28.0195 6.45945 27.9116 6.43243 27.7768 6.37837C27.6419 6.35135 27.5071 6.29729 27.3453 6.24324C27.1296 6.18918 26.9678 6.1081 26.8059 6.05405C26.6441 5.97297 26.5363 5.89189 26.4284 5.78378C26.3205 5.67567 26.2666 5.56756 26.2127 5.45945C26.1587 5.32432 26.1318 5.18918 26.1318 5.02702C26.1318 4.78378 26.1857 4.59459 26.2666 4.4054C26.3475 4.21621 26.4823 4.08108 26.6172 3.94594C26.779 3.81081 26.9408 3.72972 27.1296 3.64864C27.3183 3.59459 27.5341 3.54053 27.7768 3.54053C27.9386 3.54053 28.0734 3.56756 28.2352 3.59459C28.397 3.62162 28.5319 3.64864 28.6667 3.7027C28.8016 3.75675 28.9364 3.81081 29.0443 3.86486C29.1791 3.91891 29.287 3.97297 29.3679 4.05405C29.4488 3.97297 28.9903 4.83783 28.9903 4.83783Z" fill="#7D7D7D"/>
<path d="M29.9342 5.72972C29.9342 5.45945 29.9881 5.18918 30.096 4.91891C30.2039 4.64864 30.3387 4.4054 30.5275 4.18918C30.7163 3.97297 30.959 3.81081 31.2287 3.67567C31.4983 3.54053 31.8219 3.48648 32.1725 3.48648C32.604 3.48648 32.9546 3.56756 33.2512 3.75675C33.5749 3.94594 33.7906 4.16216 33.9524 4.45945L33.1703 5.02702C33.1164 4.91891 33.0625 4.81081 32.9816 4.72972C32.9007 4.64864 32.8198 4.59459 32.7389 4.54053C32.6579 4.48648 32.5501 4.45945 32.4422 4.43243C32.3343 4.4054 32.2534 4.4054 32.1456 4.4054C31.9568 4.4054 31.768 4.43243 31.6332 4.51351C31.4983 4.59459 31.3635 4.7027 31.2556 4.8108C31.1478 4.94594 31.0938 5.08108 31.0399 5.24324C30.9859 5.4054 30.959 5.56756 30.959 5.72972C30.959 5.91891 30.9859 6.08108 31.0399 6.24324C31.0938 6.4054 31.1747 6.54053 31.2826 6.67567C31.3905 6.81081 31.4983 6.89189 31.6601 6.97297C31.795 7.05405 31.9838 7.08108 32.1456 7.08108C32.2265 7.08108 32.3343 7.08108 32.4422 7.05405C32.5501 7.02702 32.631 6.99999 32.7389 6.94594C32.8198 6.89189 32.9276 6.83783 32.9816 6.75675C33.0625 6.67567 33.1164 6.56756 33.1703 6.45945L34.0063 6.94594C33.9524 7.1081 33.8445 7.27026 33.7097 7.37837C33.5749 7.51351 33.44 7.62162 33.2512 7.7027C33.0894 7.78378 32.9007 7.86486 32.7119 7.89189C32.5231 7.94594 32.3343 7.97297 32.1456 7.97297C31.8219 7.97297 31.5253 7.91891 31.2556 7.78378C30.9859 7.64864 30.7432 7.45945 30.5545 7.24324C30.3657 7.02702 30.2039 6.78378 30.096 6.48648C29.9881 6.29729 29.9342 6.02702 29.9342 5.72972Z" fill="#7D7D7D"/>
<path d="M36.4334 8.05406C36.1098 8.05406 35.7862 8.00001 35.5165 7.86487C35.2469 7.72974 35.0041 7.56757 34.8154 7.35136C34.6266 7.13514 34.4648 6.8919 34.3569 6.62163C34.249 6.35136 34.1951 6.05406 34.1951 5.78379C34.1951 5.48649 34.249 5.21622 34.3569 4.91892C34.4648 4.64865 34.6266 4.40541 34.8154 4.18919C35.0041 3.97298 35.2469 3.81082 35.5165 3.70271C35.7862 3.56757 36.0829 3.51352 36.4065 3.51352C36.7301 3.51352 37.0537 3.56757 37.3234 3.70271C37.593 3.83784 37.8358 4.00001 38.0245 4.21622C38.2133 4.43244 38.3751 4.67568 38.483 4.94595C38.5909 5.21622 38.6448 5.48649 38.6448 5.78379C38.6448 6.08109 38.5909 6.35136 38.483 6.64865C38.3751 6.91892 38.2133 7.16217 38.0245 7.37838C37.8358 7.5946 37.593 7.75676 37.3234 7.86487C37.0537 8.00001 36.7571 8.05406 36.4334 8.05406ZM35.2738 5.78379C35.2738 5.94595 35.3008 6.13514 35.3547 6.2973C35.4087 6.45946 35.4896 6.5946 35.5705 6.72974C35.6783 6.86487 35.7862 6.94595 35.948 7.02703C36.0829 7.10811 36.2716 7.13514 36.4604 7.13514C36.6492 7.13514 36.838 7.10811 36.9728 7.02703C37.1076 6.94595 37.2425 6.83784 37.3503 6.72974C37.4582 6.5946 37.5121 6.45946 37.5661 6.2973C37.62 6.13514 37.647 5.97298 37.647 5.81082C37.647 5.64865 37.62 5.45947 37.5661 5.32433C37.5121 5.16217 37.4312 5.02703 37.3503 4.8919C37.2425 4.75676 37.1346 4.67568 36.9728 4.5946C36.838 4.51352 36.6761 4.48649 36.4874 4.48649C36.2986 4.48649 36.1098 4.51352 35.975 4.5946C35.8401 4.67568 35.7053 4.78379 35.5974 4.8919C35.4896 5.02703 35.4356 5.16217 35.3817 5.32433C35.3008 5.43244 35.2738 5.5946 35.2738 5.78379Z" fill="#7D7D7D"/>
<path d="M39.265 8.00001V3.51352H41.2876C41.5034 3.51352 41.6921 3.56757 41.8809 3.64865C42.0697 3.72974 42.2045 3.86487 42.3394 4.00001C42.4742 4.13514 42.5821 4.2973 42.636 4.48649C42.7169 4.67568 42.7439 4.83784 42.7439 5.02703C42.7439 5.16217 42.7169 5.2973 42.6899 5.43244C42.663 5.56757 42.609 5.67568 42.5551 5.78379C42.5012 5.8919 42.4203 6.00001 42.3124 6.08109C42.2315 6.16217 42.1236 6.24325 42.0158 6.2973L42.9866 7.97298H41.827L40.964 6.51352H40.2898V7.97298C40.2898 8.00001 39.265 8.00001 39.265 8.00001ZM40.2898 5.64865H41.2337C41.3685 5.64865 41.4494 5.5946 41.5573 5.48649C41.6382 5.37838 41.6921 5.21622 41.6921 5.02703C41.6921 4.83784 41.6382 4.70271 41.5303 4.5946C41.4225 4.48649 41.3146 4.43244 41.2067 4.43244H40.2898V5.64865Z" fill="#7D7D7D"/>
<path d="M46.6272 7.10811V8.02703H43.472V3.51352H46.5733V4.43244H44.5238V5.2973H46.2767V6.13514H44.5238V7.08109C44.5238 7.10811 46.6272 7.10811 46.6272 7.10811Z" fill="#7D7D7D"/>
</svg>
