<svg width="65" height="35" viewBox="0 0 65 35" fill="none" xmlns="http://www.w3.org/2000/svg">
<path fill-rule="evenodd" clip-rule="evenodd" d="M6 0H58.8378C62.1892 0 64.8649 2.67568 64.8649 6V27.1081C64.8649 30.4324 62.1892 33.1081 58.8649 33.1081H6C2.67568 33.1351 0 30.4595 0 27.1351V6C0 2.67568 2.67568 0 6 0Z" fill="white"/>
<path fill-rule="evenodd" clip-rule="evenodd" d="M9.7027 11.9459H21.8108V31.5135H9.7027V11.9459Z" fill="#038141"/>
<path fill-rule="evenodd" clip-rule="evenodd" d="M45 11.9459H57.1081V31.5135H45V11.9459Z" fill="#E63E11"/>
<path fill-rule="evenodd" clip-rule="evenodd" d="M7.24324 11.9459H10.2703C12.7838 11.9459 14.8108 13.9729 14.8108 16.4865V26.9729C14.8108 29.4865 12.7838 31.5135 10.2703 31.5135H7.24324C4.72972 31.5135 2.7027 29.4865 2.7027 26.9729V16.4865C2.7027 13.9729 4.72972 11.9459 7.24324 11.9459Z" fill="#038141"/>
<path fill-rule="evenodd" clip-rule="evenodd" d="M39.0811 11.9459H51.1892V31.5135H39.0811V11.9459Z" fill="#EE8100"/>
<path d="M41.5405 26.1621V17.2973H44.8649C45.5946 17.2973 46.2432 17.4054 46.7838 17.6486C47.3243 17.8919 47.7838 18.1892 48.1622 18.5946C48.5405 19 48.8108 19.4594 49 20C49.1892 20.5405 49.2973 21.1081 49.2973 21.7027C49.2973 22.3784 49.1892 23 48.973 23.5405C48.7568 24.0811 48.4595 24.5405 48.0811 24.9459C47.7027 25.3243 47.2432 25.6216 46.6757 25.8378C46.1351 26.054 45.5405 26.1621 44.8649 26.1621H41.5405ZM47.1892 21.7297C47.1892 21.3513 47.1351 20.973 47.027 20.6757C46.9189 20.3513 46.7838 20.0811 46.5676 19.8378C46.3784 19.5946 46.1351 19.4324 45.8378 19.2973C45.5405 19.1621 45.2162 19.1081 44.8378 19.1081H43.5676V24.3784H44.8378C45.2162 24.3784 45.5405 24.3243 45.8378 24.1892C46.1351 24.054 46.3784 23.8648 46.5676 23.6486C46.7568 23.4054 46.9189 23.1351 47.027 22.8108C47.1351 22.4594 47.1892 22.1081 47.1892 21.7297Z" fill="white" fill-opacity="0.4461"/>
<path fill-rule="evenodd" clip-rule="evenodd" d="M26.9189 11.9459H39.1081V31.5135H26.9189V11.9459Z" fill="#FECB02"/>
<path fill-rule="evenodd" clip-rule="evenodd" d="M26.9189 11.9459H14.7838V31.5135H26.8919L26.9189 11.9459Z" fill="#85BB2F"/>
<path d="M28.973 21.6487C28.973 21.1082 29.0811 20.5947 29.2703 20.0541C29.4594 19.5136 29.7567 19.0541 30.1351 18.6217C30.5135 18.2163 30.973 17.8649 31.5405 17.6217C32.0811 17.3514 32.7027 17.2433 33.4054 17.2433C34.2432 17.2433 34.9459 17.4325 35.5676 17.7839C36.1892 18.1352 36.6486 18.6217 36.9459 19.1893L35.3784 20.2974C35.2703 20.0541 35.1622 19.8649 35 19.7298C34.8378 19.5676 34.6757 19.4595 34.5135 19.3514C34.3243 19.2433 34.1351 19.1893 33.9459 19.1622C33.7567 19.1082 33.5676 19.1082 33.3784 19.1082C33 19.1082 32.6486 19.1893 32.3513 19.3514C32.054 19.5136 31.8108 19.7028 31.6216 19.973C31.4324 20.2163 31.2973 20.5136 31.1892 20.8109C31.1081 21.1352 31.054 21.4595 31.054 21.7838C31.054 22.1352 31.1081 22.4595 31.2162 22.7838C31.3243 23.1082 31.4865 23.4055 31.6757 23.6487C31.8919 23.892 32.1351 24.1082 32.4054 24.2433C32.7027 24.3784 33.027 24.4595 33.3784 24.4595C33.5676 24.4595 33.7567 24.4325 33.9459 24.4055C34.1351 24.3514 34.3243 24.2974 34.5135 24.1893C34.7027 24.0811 34.8649 23.973 35 23.8109C35.1622 23.6487 35.2703 23.4595 35.3513 23.2433L37.027 24.2433C36.8919 24.5676 36.7027 24.8649 36.4324 25.1082C36.1622 25.3784 35.8649 25.5947 35.5405 25.7568C35.1892 25.919 34.8378 26.0541 34.4594 26.1622C34.0811 26.2433 33.7027 26.2974 33.3243 26.2974C32.6757 26.2974 32.0811 26.1622 31.5405 25.919C31 25.6487 30.5405 25.2974 30.1622 24.8649C29.7838 24.4325 29.4865 23.946 29.2703 23.3784C29.054 22.7838 28.973 22.2163 28.973 21.6487Z" fill="white" fill-opacity="0.4461"/>
<path d="M24.5135 23.8919C24.5135 24.2703 24.4324 24.6216 24.2703 24.8919C24.1081 25.1621 23.8919 25.4054 23.6216 25.5946C23.3514 25.7838 23.027 25.9189 22.6487 26.027C22.2703 26.1081 21.8919 26.1621 21.4865 26.1621H17.1622V17.2973H22.1081C22.4054 17.2973 22.7027 17.3513 22.946 17.4865C23.1892 17.6216 23.4054 17.7838 23.5946 18C23.7568 18.2162 23.8919 18.4594 24 18.7297C24.1081 19 24.1622 19.2703 24.1622 19.5675C24.1622 20 24.0541 20.4054 23.8378 20.7567C23.6216 21.1351 23.3243 21.4054 22.8919 21.5946C23.4054 21.7567 23.8108 22 24.0811 22.4054C24.3784 22.8108 24.5135 23.2973 24.5135 23.8919ZM22.4324 23.4865C22.4324 23.2162 22.3514 22.973 22.1892 22.7838C22.027 22.5946 21.8378 22.4865 21.5946 22.4865H19.2433V24.4324H21.5135C21.7838 24.4324 22 24.3513 22.1892 24.1621C22.3514 24 22.4324 23.7567 22.4324 23.4865ZM19.2433 19.054V20.8919H21.2433C21.4595 20.8919 21.6757 20.8108 21.8378 20.6757C22 20.5135 22.1081 20.2973 22.1081 19.973C22.1081 19.6757 22.027 19.4594 21.8649 19.2973C21.7027 19.1351 21.5405 19.054 21.3243 19.054H19.2433Z" fill="white" fill-opacity="0.4461"/>
<path d="M7.83785 17.2973H9.67569L12.9189 26.1621H10.8108L10.1351 24.1621H7.37839L6.70271 26.1621H4.5946L7.83785 17.2973ZM9.78379 22.7838L8.75677 19.6486L7.70271 22.7838H9.78379Z" fill="white" fill-opacity="0.4461"/>
<path fill-rule="evenodd" clip-rule="evenodd" d="M55.7297 11.9459H58.7568C61.2703 11.9459 63.2973 13.9729 63.2973 16.4865V26.9729C63.2973 29.4865 61.2703 31.5135 58.7568 31.5135H55.7297C53.2162 31.5135 51.1892 29.4865 51.1892 26.9729V16.4865C51.1622 13.9729 53.1892 11.9459 55.7297 11.9459Z" fill="#E63E11"/>
<path d="M60.3513 24.3784V26.1892H54.1081V17.2973H60.2432V19.1081H56.1621V20.8108H59.6486V22.4865H56.1621V24.3784H60.3513Z" fill="white" fill-opacity="0.4461"/>
<path d="M5.21622 5.45942V8.02699H4.18919V3.51347H5L7.08109 6.1351V3.51347H8.10811V7.99996H7.27028L5.21622 5.45942Z" fill="#7D7D7D"/>
<path d="M10.8919 7.1351C11.0811 7.1351 11.2162 7.10807 11.3513 7.02699C11.4865 6.94591 11.5676 6.86483 11.6486 6.72969C11.7297 6.59456 11.7838 6.45942 11.8108 6.32428C11.8378 6.16212 11.8649 5.99996 11.8649 5.8378V3.51347H12.8919V5.81077C12.8919 6.1351 12.8649 6.40537 12.7838 6.67564C12.7027 6.94591 12.5946 7.18915 12.4324 7.37834C12.2703 7.56753 12.054 7.72969 11.8108 7.86483C11.5676 7.97293 11.2703 8.02699 10.9189 8.02699C10.5676 8.02699 10.2432 7.97293 10 7.8378C9.75675 7.70266 9.54054 7.5405 9.37837 7.35131C9.21621 7.1351 9.1081 6.91888 9.02702 6.64861C8.94594 6.37834 8.91891 6.10807 8.91891 5.81077V3.51347H9.94594V5.81077C9.94594 5.97293 9.97297 6.1351 10 6.29726C10.027 6.45942 10.0811 6.59455 10.1622 6.70266C10.2432 6.8378 10.3243 6.91888 10.4595 6.99996C10.5676 7.08104 10.7297 7.1351 10.8919 7.1351Z" fill="#7D7D7D"/>
<path d="M17.1081 4.43239H15.7568V7.99996H14.7297V4.43239H13.3513V3.51347H17.1351C17.1081 3.51347 17.1081 4.43239 17.1081 4.43239Z" fill="#7D7D7D"/>
<path d="M17.6216 7.99996V3.51347H19.6487C19.8649 3.51347 20.0541 3.56753 20.2433 3.64861C20.4324 3.72969 20.5676 3.86482 20.7027 3.99996C20.8378 4.1351 20.946 4.29726 21 4.48645C21.0811 4.67564 21.1081 4.8378 21.1081 5.02699C21.1081 5.16212 21.0811 5.29726 21.0541 5.43239C21.027 5.56753 20.973 5.67564 20.9189 5.78374C20.8649 5.89185 20.7838 5.99996 20.6757 6.08104C20.5946 6.16212 20.4865 6.2432 20.3784 6.29726L21.3514 7.97293H20.1892L19.3243 6.51347H18.6487V7.97293C18.6487 7.99996 17.6216 7.99996 17.6216 7.99996ZM18.6487 5.64861H19.5946C19.7297 5.64861 19.8108 5.59455 19.9189 5.48645C20 5.37834 20.0541 5.21618 20.0541 5.02699C20.0541 4.8378 20 4.70266 19.8919 4.59455C19.7838 4.48645 19.6757 4.43239 19.5676 4.43239H18.6487V5.64861Z" fill="#7D7D7D"/>
<path d="M21.8378 7.99996V3.51347H22.8649V7.99996H21.8378Z" fill="#7D7D7D"/>
<path d="M23.6487 6.72972V5.8108H25.5946V6.72972H23.6487Z" fill="#7D7D7D"/>
<path d="M29.0541 4.83785C29.0541 4.81082 29 4.78379 28.9189 4.72974C28.8378 4.67568 28.7568 4.62163 28.6216 4.5946C28.5135 4.54055 28.3784 4.4865 28.2432 4.45947C28.1081 4.43244 27.973 4.40541 27.8378 4.40541C27.4595 4.40541 27.2703 4.54055 27.2703 4.78379C27.2703 4.86487 27.2973 4.91893 27.3243 4.97298C27.3784 5.02704 27.4324 5.08109 27.5135 5.10812C27.5946 5.13514 27.7027 5.1892 27.8108 5.21623C27.9189 5.24325 28.0541 5.29731 28.2162 5.32433C28.4324 5.37839 28.6216 5.45947 28.8108 5.51352C28.973 5.56758 29.1351 5.67568 29.2432 5.78379C29.3784 5.8919 29.4595 6.00001 29.5135 6.16217C29.5676 6.29731 29.6216 6.4865 29.6216 6.70271C29.6216 6.94595 29.5676 7.16217 29.4865 7.35136C29.4054 7.51352 29.2703 7.67568 29.1081 7.78379C28.9459 7.8919 28.7838 7.97298 28.5676 8.02704C28.3784 8.08109 28.1622 8.10812 27.9459 8.10812C27.7838 8.10812 27.6216 8.10812 27.4324 8.08109C27.2703 8.05406 27.0811 8.02704 26.9189 7.97298C26.7568 7.91893 26.5946 7.86487 26.4324 7.78379C26.2703 7.72974 26.1351 7.64866 26 7.54055L26.4595 6.64866C26.4865 6.67568 26.5405 6.70271 26.6216 6.75677C26.7027 6.81082 26.8378 6.86487 26.973 6.94595C27.1081 7.00001 27.2703 7.05406 27.4324 7.10812C27.5946 7.16217 27.7838 7.1892 27.9459 7.1892C28.3243 7.1892 28.4865 7.08109 28.4865 6.86487C28.4865 6.78379 28.4595 6.70271 28.4054 6.64866C28.3514 6.5946 28.2703 6.54055 28.1892 6.51352C28.0811 6.45947 27.973 6.43244 27.8378 6.37839C27.7027 6.35136 27.5676 6.29731 27.4054 6.24325C27.1892 6.1892 27.027 6.10812 26.8649 6.05406C26.7027 5.97298 26.5946 5.8919 26.4865 5.78379C26.3784 5.67568 26.3243 5.56758 26.2703 5.45947C26.2162 5.32433 26.1892 5.1892 26.1892 5.02704C26.1892 4.78379 26.2432 4.5946 26.3243 4.40541C26.4054 4.21623 26.5405 4.08109 26.6757 3.94596C26.8378 3.81082 27 3.72974 27.1892 3.64866C27.3784 3.5946 27.5946 3.54055 27.8378 3.54055C28 3.54055 28.1351 3.56758 28.2973 3.5946C28.4595 3.62163 28.5946 3.64866 28.7297 3.70271C28.8649 3.75677 29 3.81082 29.1081 3.86487C29.2432 3.91893 29.3514 3.97298 29.4324 4.05406C29.5135 3.97298 29.0541 4.83785 29.0541 4.83785Z" fill="#7D7D7D"/>
<path d="M30 5.72969C30 5.45942 30.0541 5.18915 30.1622 4.91888C30.2703 4.64861 30.4054 4.40537 30.5946 4.18915C30.7838 3.97294 31.027 3.81077 31.2973 3.67564C31.5676 3.5405 31.8919 3.48645 32.2433 3.48645C32.6757 3.48645 33.027 3.56753 33.3243 3.75672C33.6487 3.94591 33.8649 4.16213 34.027 4.45942L33.2433 5.02699C33.1892 4.91888 33.1352 4.81077 33.0541 4.72969C32.973 4.64861 32.8919 4.59456 32.8108 4.5405C32.7297 4.48645 32.6216 4.45942 32.5135 4.4324C32.4054 4.40537 32.3243 4.40537 32.2162 4.40537C32.027 4.40537 31.8379 4.4324 31.7027 4.51348C31.5676 4.59456 31.4324 4.70267 31.3243 4.81077C31.2162 4.94591 31.1622 5.08104 31.1081 5.24321C31.0541 5.40537 31.027 5.56753 31.027 5.72969C31.027 5.91888 31.0541 6.08104 31.1081 6.24321C31.1622 6.40537 31.2433 6.5405 31.3514 6.67564C31.4595 6.81077 31.5676 6.89186 31.7297 6.97294C31.8649 7.05402 32.0541 7.08104 32.2162 7.08104C32.2973 7.08104 32.4054 7.08104 32.5135 7.05402C32.6216 7.02699 32.7027 6.99996 32.8108 6.94591C32.8919 6.89186 33 6.8378 33.0541 6.75672C33.1352 6.67564 33.1892 6.56753 33.2433 6.45942L34.0811 6.94591C34.027 7.10807 33.9189 7.27023 33.7838 7.37834C33.6487 7.51348 33.5135 7.62159 33.3243 7.70267C33.1622 7.78375 32.973 7.86483 32.7838 7.89186C32.5946 7.94591 32.4054 7.97294 32.2162 7.97294C31.8919 7.97294 31.5946 7.91888 31.3243 7.78375C31.0541 7.64861 30.8108 7.45942 30.6216 7.24321C30.4324 7.02699 30.2703 6.78375 30.1622 6.48645C30.0541 6.29726 30 6.02699 30 5.72969Z" fill="#7D7D7D"/>
<path d="M36.5135 8.05401C36.1892 8.05401 35.8649 7.99996 35.5946 7.86482C35.3243 7.72969 35.0811 7.56753 34.8919 7.35131C34.7027 7.1351 34.5405 6.89185 34.4324 6.62158C34.3243 6.35131 34.2703 6.05401 34.2703 5.78374C34.2703 5.48645 34.3243 5.21618 34.4324 4.91888C34.5405 4.64861 34.7027 4.40537 34.8919 4.18915C35.0811 3.97293 35.3243 3.81077 35.5946 3.70266C35.8649 3.56753 36.1622 3.51347 36.4865 3.51347C36.8108 3.51347 37.1351 3.56753 37.4054 3.70266C37.6757 3.8378 37.9189 3.99996 38.1081 4.21618C38.2973 4.43239 38.4595 4.67564 38.5676 4.94591C38.6757 5.21618 38.7297 5.48645 38.7297 5.78374C38.7297 6.08104 38.6757 6.35131 38.5676 6.64861C38.4595 6.91888 38.2973 7.16212 38.1081 7.37834C37.9189 7.59455 37.6757 7.75672 37.4054 7.86482C37.1351 7.99996 36.8378 8.05401 36.5135 8.05401ZM35.3513 5.78374C35.3513 5.94591 35.3784 6.13509 35.4324 6.29726C35.4865 6.45942 35.5676 6.59455 35.6486 6.72969C35.7567 6.86482 35.8649 6.94591 36.027 7.02699C36.1622 7.10807 36.3513 7.13509 36.5405 7.13509C36.7297 7.13509 36.9189 7.10807 37.054 7.02699C37.1892 6.94591 37.3243 6.8378 37.4324 6.72969C37.5405 6.59455 37.5946 6.45942 37.6486 6.29726C37.7027 6.13509 37.7297 5.97293 37.7297 5.81077C37.7297 5.64861 37.7027 5.45942 37.6486 5.32428C37.5946 5.16212 37.5135 5.02699 37.4324 4.89185C37.3243 4.75672 37.2162 4.67564 37.054 4.59455C36.9189 4.51347 36.7568 4.48645 36.5676 4.48645C36.3784 4.48645 36.1892 4.51347 36.054 4.59455C35.9189 4.67564 35.7838 4.78374 35.6757 4.89185C35.5676 5.02699 35.5135 5.16212 35.4595 5.32428C35.3784 5.43239 35.3513 5.59455 35.3513 5.78374Z" fill="#7D7D7D"/>
<path d="M39.3514 7.99996V3.51347H41.3784C41.5946 3.51347 41.7838 3.56753 41.973 3.64861C42.1622 3.72969 42.2973 3.86482 42.4325 3.99996C42.5676 4.1351 42.6757 4.29726 42.7298 4.48645C42.8108 4.67564 42.8379 4.8378 42.8379 5.02699C42.8379 5.16212 42.8108 5.29726 42.7838 5.43239C42.7568 5.56753 42.7027 5.67564 42.6487 5.78374C42.5946 5.89185 42.5135 5.99996 42.4054 6.08104C42.3243 6.16212 42.2162 6.2432 42.1081 6.29726L43.0811 7.97293H41.9189L41.0541 6.51347H40.3784V7.97293C40.3784 7.99996 39.3514 7.99996 39.3514 7.99996ZM40.3784 5.64861H41.3243C41.4595 5.64861 41.5406 5.59455 41.6487 5.48645C41.7298 5.37834 41.7838 5.21618 41.7838 5.02699C41.7838 4.8378 41.7298 4.70266 41.6216 4.59455C41.5135 4.48645 41.4054 4.43239 41.2973 4.43239H40.3784V5.64861Z" fill="#7D7D7D"/>
<path d="M46.7297 7.10807V8.02699H43.5676V3.51347H46.6757V4.43239H44.6216V5.29726H46.3784V6.1351H44.6216V7.08104C44.6216 7.10807 46.7297 7.10807 46.7297 7.10807Z" fill="#7D7D7D"/>
<path fill-rule="evenodd" clip-rule="evenodd" d="M26.9189 11.9459H14.7838V31.5135H26.8919L26.9189 11.9459Z" fill="#85BB2F"/>
<path d="M25.1622 24.0811C25.1622 24.4595 25.0811 24.8108 24.9189 25.0811C24.7567 25.3514 24.5405 25.5946 24.2703 25.7838C24 25.973 23.6757 26.1081 23.2973 26.2162C22.9189 26.2973 22.5405 26.3514 22.1351 26.3514H17.8378V17.4595H22.7838C23.0811 17.4595 23.3784 17.5135 23.6216 17.6487C23.8649 17.7838 24.0811 17.946 24.2703 18.1622C24.4324 18.3784 24.5676 18.6216 24.6757 18.8919C24.7838 19.1622 24.8378 19.4324 24.8378 19.7297C24.8378 20.1622 24.7297 20.5676 24.5135 20.9189C24.2973 21.2973 24 21.5676 23.5676 21.7568C24.0811 21.9189 24.4865 22.1622 24.7567 22.5676C25.027 22.973 25.1622 23.4595 25.1622 24.0811ZM23.0811 23.6487C23.0811 23.3784 23 23.1351 22.8378 22.946C22.6757 22.7568 22.4865 22.6487 22.2432 22.6487H19.8919V24.5946H22.1622C22.4324 24.5946 22.6486 24.5135 22.8378 24.3243C23 24.1622 23.0811 23.946 23.0811 23.6487ZM19.8919 19.2162V21.0541H21.8919C22.1081 21.0541 22.3243 20.973 22.4865 20.8379C22.6486 20.6757 22.7567 20.4595 22.7567 20.1351C22.7567 19.8379 22.6757 19.6216 22.5135 19.4595C22.3513 19.2973 22.1892 19.2162 21.973 19.2162H19.8919Z" fill="white" fill-opacity="0.4461"/>
<path fill-rule="evenodd" clip-rule="evenodd" d="M20.2703 9.40545H21.5946C25.2162 9.40545 28.1351 12.3244 28.1351 15.946V27.4325C28.1351 31.0541 25.2162 33.973 21.5946 33.973H20.2703C16.6486 33.973 13.7297 31.0541 13.7297 27.4325V15.946C13.7297 12.3244 16.6486 9.40545 20.2703 9.40545Z" fill="#0039FF" fill-opacity="0.6297"/>
<path d="M21.5946 35H20.2703C16.1081 35 12.7027 31.5946 12.7027 27.4324V15.9459C12.7027 11.7838 16.1081 8.37836 20.2703 8.37836H21.5946C25.7568 8.37836 29.1622 11.7838 29.1622 15.9459V27.4324C29.1622 31.6216 25.7568 35 21.5946 35ZM20.2703 10.4324C17.2162 10.4324 14.7297 12.9189 14.7297 15.973V27.4594C14.7297 30.5135 17.2162 33 20.2703 33H21.5946C24.6486 33 27.1351 30.5135 27.1351 27.4594V15.9459C27.1351 12.8919 24.6486 10.4054 21.5946 10.4054L20.2703 10.4324Z" fill="white"/>
<path fill-rule="evenodd" clip-rule="evenodd" d="M20.2703 9.40545H21.5946C25.2162 9.40545 28.1351 12.3244 28.1351 15.946V27.4325C28.1351 31.0541 25.2162 33.973 21.5946 33.973H20.2703C16.6486 33.973 13.7297 31.0541 13.7297 27.4325V15.946C13.7297 12.3244 16.6486 9.40545 20.2703 9.40545Z" fill="#85BB2F"/>
<path d="M25.6216 24.5406C25.6216 25.0541 25.5135 25.4865 25.3243 25.8649C25.1351 26.2433 24.8649 26.5406 24.5405 26.8109C24.2162 27.0541 23.8108 27.2433 23.3784 27.3784C22.9459 27.4865 22.4595 27.5676 21.973 27.5676H16.7568V15.8379H22.7297C23.1081 15.8379 23.4324 15.919 23.7297 16.1082C24.027 16.2974 24.2973 16.5136 24.5135 16.8109C24.7297 17.0811 24.8919 17.4055 25 17.7568C25.1081 18.1082 25.1892 18.4595 25.1892 18.8379C25.1892 19.4055 25.0541 19.919 24.7838 20.4325C24.5405 20.919 24.1622 21.2974 23.6216 21.5406C24.2432 21.7298 24.7297 22.0811 25.0811 22.5946C25.4595 23.1082 25.6216 23.7568 25.6216 24.5406ZM23.1081 24.0001C23.1081 23.6487 23 23.3244 22.8108 23.0811C22.6216 22.8379 22.3784 22.7028 22.1081 22.7028H19.2432V25.2703H22C22.3243 25.2703 22.5946 25.1622 22.8108 24.919C23 24.6757 23.1081 24.3784 23.1081 24.0001ZM19.2432 18.1622V20.5946H21.6757C21.9459 20.5946 22.1892 20.4865 22.4054 20.2974C22.6216 20.1082 22.7297 19.7838 22.7297 19.3784C22.7297 19.0001 22.6216 18.7028 22.4324 18.4865C22.2432 18.2703 22.027 18.1622 21.7568 18.1622H19.2432Z" fill="white"/>
</svg>
