<svg width="65" height="35" viewBox="0 0 65 35" fill="none" xmlns="http://www.w3.org/2000/svg">
<path fill-rule="evenodd" clip-rule="evenodd" d="M6 0H58.8378C62.1892 0 64.8649 2.67568 64.8649 6V27.1081C64.8649 30.4324 62.1892 33.1081 58.8649 33.1081H6C2.67568 33.1351 0 30.4595 0 27.1351V6C0 2.67568 2.67568 0 6 0Z" fill="white"/>
<path fill-rule="evenodd" clip-rule="evenodd" d="M9.7027 11.9459H21.8108V31.5135H9.7027V11.9459Z" fill="#038141"/>
<path fill-rule="evenodd" clip-rule="evenodd" d="M44.9999 11.9459H57.1081V31.5135H44.9999V11.9459Z" fill="#E63E11"/>
<path fill-rule="evenodd" clip-rule="evenodd" d="M7.24319 11.9459H10.2702C12.7837 11.9459 14.8108 13.973 14.8108 16.4865V26.973C14.8108 29.4865 12.7837 31.5135 10.2702 31.5135H7.24319C4.72968 31.5135 2.70265 29.4865 2.70265 26.973V16.4865C2.70265 13.973 4.72968 11.9459 7.24319 11.9459Z" fill="#038141"/>
<path fill-rule="evenodd" clip-rule="evenodd" d="M39.081 11.9459H51.1891V31.5135H39.081V11.9459Z" fill="#EE8100"/>
<path d="M41.5406 26.1621V17.2973H44.865C45.5947 17.2973 46.2433 17.4054 46.7839 17.6486C47.3244 17.8919 47.7839 18.1892 48.1623 18.5946C48.5406 19 48.8109 19.4594 49.0001 20C49.1893 20.5405 49.2974 21.1081 49.2974 21.7027C49.2974 22.3784 49.1893 23 48.9731 23.5405C48.7568 24.0811 48.4596 24.5405 48.0812 24.9459C47.7028 25.3243 47.2433 25.6216 46.6758 25.8378C46.1352 26.054 45.5406 26.1621 44.865 26.1621H41.5406ZM47.1893 21.7297C47.1893 21.3513 47.1352 20.973 47.0271 20.6757C46.919 20.3513 46.7839 20.0811 46.5677 19.8378C46.3785 19.5946 46.1352 19.4324 45.8379 19.2973C45.5406 19.1621 45.2163 19.1081 44.8379 19.1081H43.5677V24.3784H44.8379C45.2163 24.3784 45.5406 24.3243 45.8379 24.1892C46.1352 24.054 46.3785 23.8648 46.5677 23.6486C46.7569 23.4054 46.919 23.1351 47.0271 22.8108C47.1352 22.4594 47.1893 22.1081 47.1893 21.7297Z" fill="white" fill-opacity="0.4461"/>
<path fill-rule="evenodd" clip-rule="evenodd" d="M26.9189 11.9459H39.1081V31.5135H26.9189V11.9459Z" fill="#FECB02"/>
<path fill-rule="evenodd" clip-rule="evenodd" d="M26.919 11.9459H14.7839V31.5135H26.892L26.919 11.9459Z" fill="#85BB2F"/>
<path d="M28.9731 21.6487C28.9731 21.1082 29.0812 20.5947 29.2704 20.0541C29.4596 19.5136 29.7569 19.0541 30.1352 18.6217C30.5136 18.2163 30.9731 17.8649 31.5406 17.6217C32.0812 17.3514 32.7028 17.2433 33.4055 17.2433C34.2433 17.2433 34.946 17.4325 35.5677 17.7838C36.1893 18.1352 36.6487 18.6217 36.946 19.1893L35.3785 20.2974C35.2704 20.0541 35.1623 19.8649 35.0001 19.7298C34.8379 19.5676 34.6758 19.4595 34.5136 19.3514C34.3244 19.2433 34.1352 19.1893 33.946 19.1622C33.7569 19.1082 33.5677 19.1082 33.3785 19.1082C33.0001 19.1082 32.6487 19.1893 32.3514 19.3514C32.0541 19.5136 31.8109 19.7028 31.6217 19.973C31.4325 20.2163 31.2974 20.5136 31.1893 20.8109C31.1082 21.1352 31.0542 21.4595 31.0542 21.7838C31.0542 22.1352 31.1082 22.4595 31.2163 22.7838C31.3244 23.1082 31.4866 23.4055 31.6758 23.6487C31.892 23.892 32.1352 24.1082 32.4055 24.2433C32.7028 24.3784 33.0271 24.4595 33.3785 24.4595C33.5677 24.4595 33.7569 24.4325 33.946 24.4055C34.1352 24.3514 34.3244 24.2974 34.5136 24.1893C34.7028 24.0811 34.865 23.973 35.0001 23.8109C35.1623 23.6487 35.2704 23.4595 35.3514 23.2433L37.0271 24.2433C36.892 24.5676 36.7028 24.8649 36.4325 25.1082C36.1623 25.3784 35.865 25.5947 35.5406 25.7568C35.1893 25.919 34.8379 26.0541 34.4596 26.1622C34.0812 26.2433 33.7028 26.2974 33.3244 26.2974C32.6758 26.2974 32.0812 26.1622 31.5406 25.919C31.0001 25.6487 30.5406 25.2974 30.1623 24.8649C29.7839 24.4325 29.4866 23.946 29.2704 23.3784C29.0542 22.7838 28.9731 22.2163 28.9731 21.6487Z" fill="white" fill-opacity="0.4461"/>
<path d="M24.5136 23.8919C24.5136 24.2703 24.4325 24.6216 24.2703 24.8919C24.1082 25.1621 23.892 25.4054 23.6217 25.5946C23.3514 25.7838 23.0271 25.9189 22.6487 26.027C22.2703 26.1081 21.892 26.1621 21.4866 26.1621H17.1622V17.2973H22.1082C22.4055 17.2973 22.7028 17.3513 22.946 17.4865C23.1893 17.6216 23.4055 17.7838 23.5947 18C23.7568 18.2162 23.892 18.4594 24.0001 18.7297C24.1082 19 24.1622 19.2703 24.1622 19.5675C24.1622 20 24.0541 20.4054 23.8379 20.7567C23.6217 21.1351 23.3244 21.4054 22.892 21.5946C23.4055 21.7567 23.8109 22 24.0812 22.4054C24.3784 22.8108 24.5136 23.2973 24.5136 23.8919ZM22.4325 23.4865C22.4325 23.2162 22.3514 22.973 22.1893 22.7838C22.0271 22.5946 21.8379 22.4865 21.5947 22.4865H19.2433V24.4324H21.5136C21.7839 24.4324 22.0001 24.3513 22.1893 24.1621C22.3514 24 22.4325 23.7567 22.4325 23.4865ZM19.2433 19.054V20.8919H21.2433C21.4595 20.8919 21.6757 20.8108 21.8379 20.6757C22.0001 20.5135 22.1082 20.2973 22.1082 19.973C22.1082 19.6757 22.0271 19.4594 21.8649 19.2973C21.7028 19.1351 21.5406 19.054 21.3244 19.054H19.2433Z" fill="white" fill-opacity="0.4461"/>
<path d="M7.83789 17.2973H9.67573L12.919 26.1621H10.8109L10.1352 24.1621H7.37843L6.70276 26.1621H4.59465L7.83789 17.2973ZM9.78384 22.7838L8.75681 19.6486L7.70276 22.7838H9.78384Z" fill="white" fill-opacity="0.4461"/>
<path fill-rule="evenodd" clip-rule="evenodd" d="M55.7297 11.9459H58.7567C61.2702 11.9459 63.2972 13.973 63.2972 16.4865V26.973C63.2972 29.4865 61.2702 31.5135 58.7567 31.5135H55.7297C53.2162 31.5135 51.1891 29.4865 51.1891 26.973V16.4865C51.1621 13.973 53.1891 11.9459 55.7297 11.9459Z" fill="#E63E11"/>
<path d="M60.3514 24.3784V26.1892H54.1081V17.2973H60.2433V19.1081H56.1622V20.8108H59.6487V22.4865H56.1622V24.3784H60.3514Z" fill="white" fill-opacity="0.4461"/>
<path d="M5.21624 5.45942V8.02699H4.18921V3.51347H5.00002L7.0811 6.13509V3.51347H8.10813V7.99996H7.27029L5.21624 5.45942Z" fill="#7D7D7D"/>
<path d="M10.8919 7.13509C11.081 7.13509 11.2162 7.10807 11.3513 7.02699C11.4865 6.9459 11.5675 6.86482 11.6486 6.72969C11.7297 6.59455 11.7837 6.45942 11.8108 6.32428C11.8378 6.16212 11.8648 5.99996 11.8648 5.8378V3.51347H12.8919V5.81077C12.8919 6.13509 12.8648 6.40536 12.7837 6.67563C12.7027 6.9459 12.5946 7.18915 12.4324 7.37834C12.2702 7.56753 12.054 7.72969 11.8108 7.86482C11.5675 7.97293 11.2702 8.02699 10.9189 8.02699C10.5675 8.02699 10.2432 7.97293 9.99997 7.8378C9.75672 7.70266 9.54051 7.5405 9.37834 7.35131C9.21618 7.13509 9.10807 6.91888 9.02699 6.64861C8.94591 6.37834 8.91888 6.10807 8.91888 5.81077V3.51347H9.94591V5.81077C9.94591 5.97293 9.97294 6.13509 9.99997 6.29726C10.027 6.45942 10.081 6.59455 10.1621 6.70266C10.2432 6.8378 10.3243 6.91888 10.4594 6.99996C10.5675 7.08104 10.7297 7.13509 10.8919 7.13509Z" fill="#7D7D7D"/>
<path d="M17.1081 4.43239H15.7567V7.99996H14.7297V4.43239H13.3513V3.51347H17.1351C17.1081 3.51347 17.1081 4.43239 17.1081 4.43239Z" fill="#7D7D7D"/>
<path d="M17.6216 7.99996V3.51347H19.6487C19.8649 3.51347 20.0541 3.56753 20.2433 3.64861C20.4325 3.72969 20.5676 3.86482 20.7027 3.99996C20.8379 4.13509 20.946 4.29726 21 4.48644C21.0811 4.67563 21.1081 4.8378 21.1081 5.02699C21.1081 5.16212 21.0811 5.29726 21.0541 5.43239C21.0271 5.56753 20.973 5.67563 20.9189 5.78374C20.8649 5.89185 20.7838 5.99996 20.6757 6.08104C20.5946 6.16212 20.4865 6.2432 20.3784 6.29726L21.3514 7.97293H20.1892L19.3243 6.51347H18.6487V7.97293C18.6487 7.99996 17.6216 7.99996 17.6216 7.99996ZM18.6487 5.64861H19.5946C19.7298 5.64861 19.8108 5.59455 19.9189 5.48644C20 5.37834 20.0541 5.21617 20.0541 5.02699C20.0541 4.8378 20 4.70266 19.8919 4.59455C19.7838 4.48644 19.6757 4.43239 19.5676 4.43239H18.6487V5.64861Z" fill="#7D7D7D"/>
<path d="M21.8379 7.99996V3.51347H22.865V7.99996H21.8379Z" fill="#7D7D7D"/>
<path d="M23.6486 6.72972V5.8108H25.5945V6.72972H23.6486Z" fill="#7D7D7D"/>
<path d="M29.0541 4.83785C29.0541 4.81082 29 4.78379 28.9189 4.72974C28.8378 4.67568 28.7568 4.62163 28.6216 4.5946C28.5135 4.54055 28.3784 4.4865 28.2432 4.45947C28.1081 4.43244 27.973 4.40541 27.8378 4.40541C27.4595 4.40541 27.2703 4.54055 27.2703 4.78379C27.2703 4.86487 27.2973 4.91893 27.3243 4.97298C27.3784 5.02704 27.4324 5.08109 27.5135 5.10812C27.5946 5.13514 27.7027 5.1892 27.8108 5.21623C27.9189 5.24325 28.0541 5.29731 28.2162 5.32433C28.4324 5.37839 28.6216 5.45947 28.8108 5.51352C28.973 5.56758 29.1351 5.67568 29.2432 5.78379C29.3784 5.8919 29.4595 6.00001 29.5135 6.16217C29.5676 6.29731 29.6216 6.4865 29.6216 6.70271C29.6216 6.94595 29.5676 7.16217 29.4865 7.35136C29.4054 7.51352 29.2703 7.67568 29.1081 7.78379C28.9459 7.8919 28.7838 7.97298 28.5676 8.02704C28.3784 8.08109 28.1622 8.10812 27.9459 8.10812C27.7838 8.10812 27.6216 8.10812 27.4324 8.08109C27.2703 8.05406 27.0811 8.02704 26.9189 7.97298C26.7568 7.91893 26.5946 7.86487 26.4324 7.78379C26.2703 7.72974 26.1351 7.64866 26 7.54055L26.4595 6.64866C26.4865 6.67568 26.5405 6.70271 26.6216 6.75677C26.7027 6.81082 26.8378 6.86487 26.973 6.94595C27.1081 7.00001 27.2703 7.05406 27.4324 7.10812C27.5946 7.16217 27.7838 7.1892 27.9459 7.1892C28.3243 7.1892 28.4865 7.08109 28.4865 6.86487C28.4865 6.78379 28.4595 6.70271 28.4054 6.64866C28.3514 6.5946 28.2703 6.54055 28.1892 6.51352C28.0811 6.45947 27.973 6.43244 27.8378 6.37839C27.7027 6.35136 27.5676 6.29731 27.4054 6.24325C27.1892 6.1892 27.027 6.10812 26.8649 6.05406C26.7027 5.97298 26.5946 5.8919 26.4865 5.78379C26.3784 5.67568 26.3243 5.56758 26.2703 5.45947C26.2162 5.32433 26.1892 5.1892 26.1892 5.02704C26.1892 4.78379 26.2432 4.5946 26.3243 4.40541C26.4054 4.21623 26.5405 4.08109 26.6757 3.94596C26.8378 3.81082 27 3.72974 27.1892 3.64866C27.3784 3.5946 27.5946 3.54055 27.8378 3.54055C28 3.54055 28.1351 3.56758 28.2973 3.5946C28.4595 3.62163 28.5946 3.64866 28.7297 3.70271C28.8649 3.75677 29 3.81082 29.1081 3.86487C29.2432 3.91893 29.3514 3.97298 29.4324 4.05406C29.5135 3.97298 29.0541 4.83785 29.0541 4.83785Z" fill="#7D7D7D"/>
<path d="M29.9999 5.7297C29.9999 5.45943 30.054 5.18916 30.1621 4.91889C30.2702 4.64862 30.4053 4.40537 30.5945 4.18916C30.7837 3.97294 31.0269 3.81078 31.2972 3.67564C31.5675 3.54051 31.8918 3.48645 32.2432 3.48645C32.6756 3.48645 33.0269 3.56754 33.3242 3.75672C33.6486 3.94591 33.8648 4.16213 34.0269 4.45943L33.2432 5.02699C33.1891 4.91889 33.135 4.81078 33.054 4.7297C32.9729 4.64862 32.8918 4.59456 32.8107 4.54051C32.7296 4.48645 32.6215 4.45943 32.5134 4.4324C32.4053 4.40537 32.3242 4.40537 32.2161 4.40537C32.0269 4.40537 31.8377 4.4324 31.7026 4.51348C31.5675 4.59456 31.4323 4.70267 31.3242 4.81078C31.2161 4.94591 31.1621 5.08105 31.108 5.24321C31.054 5.40537 31.0269 5.56754 31.0269 5.7297C31.0269 5.91889 31.054 6.08105 31.108 6.24321C31.1621 6.40537 31.2432 6.54051 31.3513 6.67564C31.4594 6.81078 31.5675 6.89186 31.7296 6.97294C31.8648 7.05402 32.054 7.08105 32.2161 7.08105C32.2972 7.08105 32.4053 7.08105 32.5134 7.05402C32.6215 7.02699 32.7026 6.99997 32.8107 6.94591C32.8918 6.89186 32.9999 6.83781 33.054 6.75672C33.135 6.67564 33.1891 6.56753 33.2432 6.45943L34.081 6.94591C34.0269 7.10808 33.9188 7.27024 33.7837 7.37835C33.6486 7.51348 33.5134 7.62159 33.3242 7.70267C33.1621 7.78375 32.9729 7.86483 32.7837 7.89186C32.5945 7.94591 32.4053 7.97294 32.2161 7.97294C31.8918 7.97294 31.5945 7.91889 31.3242 7.78375C31.054 7.64862 30.8107 7.45943 30.6215 7.24321C30.4323 7.02699 30.2702 6.78375 30.1621 6.48645C30.054 6.29726 29.9999 6.02699 29.9999 5.7297Z" fill="#7D7D7D"/>
<path d="M36.5134 8.05401C36.1891 8.05401 35.8648 7.99996 35.5945 7.86482C35.3242 7.72969 35.081 7.56753 34.8918 7.35131C34.7026 7.13509 34.5404 6.89185 34.4323 6.62158C34.3242 6.35131 34.2702 6.05401 34.2702 5.78374C34.2702 5.48644 34.3242 5.21617 34.4323 4.91888C34.5404 4.64861 34.7026 4.40536 34.8918 4.18915C35.081 3.97293 35.3242 3.81077 35.5945 3.70266C35.8648 3.56753 36.1621 3.51347 36.4864 3.51347C36.8107 3.51347 37.135 3.56753 37.4053 3.70266C37.6756 3.8378 37.9188 3.99996 38.108 4.21617C38.2972 4.43239 38.4594 4.67563 38.5675 4.9459C38.6756 5.21617 38.7296 5.48644 38.7296 5.78374C38.7296 6.08104 38.6756 6.35131 38.5675 6.64861C38.4594 6.91888 38.2972 7.16212 38.108 7.37834C37.9188 7.59455 37.6756 7.75671 37.4053 7.86482C37.135 7.99996 36.8377 8.05401 36.5134 8.05401ZM35.3513 5.78374C35.3513 5.9459 35.3783 6.13509 35.4323 6.29726C35.4864 6.45942 35.5675 6.59455 35.6485 6.72969C35.7567 6.86482 35.8648 6.9459 36.0269 7.02698C36.1621 7.10807 36.3513 7.13509 36.5404 7.13509C36.7296 7.13509 36.9188 7.10807 37.054 7.02698C37.1891 6.9459 37.3242 6.8378 37.4323 6.72969C37.5404 6.59455 37.5945 6.45942 37.6486 6.29726C37.7026 6.13509 37.7296 5.97293 37.7296 5.81077C37.7296 5.64861 37.7026 5.45942 37.6486 5.32428C37.5945 5.16212 37.5134 5.02699 37.4323 4.89185C37.3242 4.75671 37.2161 4.67563 37.054 4.59455C36.9188 4.51347 36.7567 4.48644 36.5675 4.48644C36.3783 4.48644 36.1891 4.51347 36.054 4.59455C35.9188 4.67563 35.7837 4.78374 35.6756 4.89185C35.5675 5.02699 35.5134 5.16212 35.4594 5.32428C35.3783 5.43239 35.3513 5.59455 35.3513 5.78374Z" fill="#7D7D7D"/>
<path d="M39.3514 7.99996V3.51347H41.3784C41.5946 3.51347 41.7838 3.56753 41.973 3.64861C42.1622 3.72969 42.2973 3.86482 42.4325 3.99996C42.5676 4.13509 42.6757 4.29726 42.7298 4.48644C42.8108 4.67563 42.8379 4.8378 42.8379 5.02699C42.8379 5.16212 42.8108 5.29726 42.7838 5.43239C42.7568 5.56753 42.7027 5.67563 42.6487 5.78374C42.5946 5.89185 42.5135 5.99996 42.4054 6.08104C42.3243 6.16212 42.2162 6.2432 42.1081 6.29726L43.0811 7.97293H41.9189L41.0541 6.51347H40.3784V7.97293C40.3784 7.99996 39.3514 7.99996 39.3514 7.99996ZM40.3784 5.64861H41.3243C41.4595 5.64861 41.5406 5.59455 41.6487 5.48644C41.7298 5.37834 41.7838 5.21617 41.7838 5.02699C41.7838 4.8378 41.7298 4.70266 41.6216 4.59455C41.5135 4.48644 41.4054 4.43239 41.2973 4.43239H40.3784V5.64861Z" fill="#7D7D7D"/>
<path d="M46.7298 7.10807V8.02699H43.5677V3.51347H46.6758V4.43239H44.6217V5.29726H46.3785V6.13509H44.6217V7.08104C44.6217 7.10807 46.7298 7.10807 46.7298 7.10807Z" fill="#7D7D7D"/>
<path fill-rule="evenodd" clip-rule="evenodd" d="M44.4865 9.40545H45.8108C49.4324 9.40545 52.3513 12.3244 52.3513 15.946V27.4325C52.3513 31.0541 49.4324 33.973 45.8108 33.973H44.4865C40.8648 33.973 37.9459 31.0541 37.9459 27.4325V15.946C37.9189 12.3244 40.8378 9.40545 44.4865 9.40545Z" fill="#0039FF" fill-opacity="0.6297"/>
<path d="M45.7839 35H44.4596C40.2974 35 36.892 31.5946 36.892 27.4324V15.9459C36.892 11.7838 40.2974 8.37836 44.4596 8.37836H45.7839C49.9461 8.37836 53.3515 11.7838 53.3515 15.9459V27.4324C53.3515 31.6216 49.9731 35 45.7839 35ZM44.4866 10.4324C41.4326 10.4324 38.9461 12.9189 38.9461 15.973V27.4594C38.9461 30.5135 41.4326 33 44.4866 33H45.8109C48.865 33 51.3515 30.5135 51.3515 27.4594V15.9459C51.3515 12.8919 48.865 10.4054 45.8109 10.4054L44.4866 10.4324Z" fill="white"/>
<path fill-rule="evenodd" clip-rule="evenodd" d="M44.4865 9.40545H45.8108C49.4324 9.40545 52.3513 12.3244 52.3513 15.946V27.4325C52.3513 31.0541 49.4324 33.973 45.8108 33.973H44.4865C40.8648 33.973 37.9459 31.0541 37.9459 27.4325V15.946C37.9189 12.3244 40.8378 9.40545 44.4865 9.40545Z" fill="#EE8100"/>
<path d="M41 27.5406V15.8379H45C45.8919 15.8379 46.6757 16.0001 47.3244 16.2973C48 16.5946 48.5406 17.0271 49 17.5406C49.4595 18.0811 49.7838 18.6757 50 19.4055C50.2433 20.1082 50.3514 20.8649 50.3514 21.6757C50.3514 22.5676 50.2162 23.3784 49.973 24.1082C49.7298 24.8109 49.3514 25.4325 48.8919 25.946C48.4325 26.4595 47.8649 26.8379 47.1892 27.1352C46.5406 27.4055 45.8108 27.5406 45 27.5406H41ZM47.8379 21.6757C47.8379 21.1622 47.7838 20.7028 47.6487 20.2703C47.5406 19.8379 47.3514 19.4865 47.1081 19.1622C46.8649 18.8649 46.5676 18.6217 46.2162 18.4595C45.8649 18.2973 45.4595 18.2163 45.0271 18.2163H43.5135V25.1622H45.0271C45.4865 25.1622 45.8919 25.0811 46.2433 24.8919C46.5946 24.7028 46.8919 24.4865 47.1081 24.1622C47.3514 23.8379 47.5406 23.4865 47.6487 23.0541C47.7568 22.6487 47.8379 22.1892 47.8379 21.6757Z" fill="white"/>
</svg>
