<svg xmlns="http://www.w3.org/2000/svg" width="90" height="90"><path d="M45 90C20.147 90 0 69.853 0 45S20.147 0 45 0s45 20.147 45 45-20.147 45-45 45z" fill="#C1E695"/><path d="M.572 44.998C.572 20.486 20.442.572 44.982.572c1.047 0 2.083.05 3.113.12C92.752 7.823 87.29 71.65 44.837 75.21l-.074 12.65c-7.07-3.54-18.725-12.14-22.77-24.02 3.28-10.893 14.173-20.77 22.513-24.562v12.387c6.85-2.256 20.983-16.432 21.748-23.757C64.508 20.072 50.59 6.444 44.764 4.95c0 0 .18 11.116 0 11.588-23.788 0-35.915 22.23-35.774 35.933 0 13.56 5.405 26.144 16.865 32.64C10.9 77.964.572 62.696.572 44.998zM44.982 0C20.127 0 0 20.17 0 44.998 0 69.868 20.128 90 44.98 90 69.836 90 90 69.867 90 44.998 90 20.17 69.835 0 44.98 0" fill="#21563F"/></svg>