<?xml version="1.0" encoding="utf-8"?>
<!-- Generator: Adobe Illustrator 18.1.1, SVG Export Plug-In . SVG Version: 6.00 Build 0)  -->
<svg version="1.1" id="Layer_1" xmlns="http://www.w3.org/2000/svg" xmlns:xlink="http://www.w3.org/1999/xlink" x="0px" y="0px"
	 viewBox="0 0 864 312" enable-background="new 0 0 864 312" xml:space="preserve">
<rect x="2.3" y="2.3" width="859.5" height="307.5"/>
<path fill="#D2D2D2" d="M4.5,4.5h855v303H4.5V4.5z M0,312h864V0H0V312z"/>
<g>
	<defs>
		<rect id="SVGID_1_" y="0" width="864" height="312"/>
	</defs>
	<clipPath id="SVGID_2_">
		<use xlink:href="#SVGID_1_"  overflow="visible"/>
	</clipPath>
</g>
<path fill="#D2D2D2" d="M4.4,3.7h857.3v303.8H4.4V3.7z M-0.1,312h866.3V-0.8H-0.1V312z"/>
<g>
	<defs>
		<rect id="SVGID_3_" x="-0.1" y="-0.8" width="866.3" height="312.8"/>
	</defs>
	<clipPath id="SVGID_4_">
		<use xlink:href="#SVGID_3_"  overflow="visible"/>
	</clipPath>
</g>
<path fill="#FFFFFF" d="M407.4,161.9c0-2.5,0.9-4.5,2.7-6.2c1.8-1.7,3.9-2.5,6.4-2.5c2.6,0,4.8,0.9,6.5,2.6c1.7,1.7,2.6,3.7,2.6,6.1
	c0,2.4-0.9,4.4-2.6,6.1c-1.8,1.6-3.9,2.5-6.5,2.5c-2.5,0-4.7-0.8-6.4-2.5C408.3,166.3,407.4,164.3,407.4,161.9 M423.8,243.3h-14.9
	v-63.2h14.9V243.3z"/>
<path fill="#FFFFFF" d="M468.9,232.5c2.2,0,4.6-0.5,7.3-1.5c2.7-1,5.1-2.4,7.4-4.1v13.8c-2.4,1.4-5.1,2.4-8.1,3.1
	c-3,0.7-6.3,1-9.9,1c-9.3,0-16.9-2.9-22.7-8.8c-5.8-5.9-8.7-13.4-8.7-22.5c0-10.2,3-18.5,8.9-25.1c5.9-6.6,14.4-9.9,25.3-9.9
	c2.8,0,5.6,0.4,8.5,1.1c2.8,0.7,5.1,1.6,6.8,2.5v14.3c-2.3-1.7-4.6-3-7-3.9c-2.4-0.9-4.8-1.4-7.3-1.4c-5.9,0-10.6,1.9-14.2,5.7
	c-3.6,3.8-5.4,9-5.4,15.4c0,6.4,1.7,11.4,5.2,14.9C458.3,230.7,463,232.5,468.9,232.5"/>
<path fill="#FFFFFF" d="M526,179.1c1.2,0,2.3,0.1,3.2,0.2c0.9,0.2,1.7,0.4,2.4,0.6V195c-0.8-0.6-1.9-1.1-3.4-1.6
	c-1.5-0.5-3.3-0.8-5.4-0.8c-3.6,0-6.7,1.5-9.3,4.6c-2.5,3.1-3.8,7.8-3.8,14.2v31.9h-14.9v-63.2h14.9v10h0.2c1.4-3.4,3.4-6.1,6.2-8.1
	C518.8,180.1,522.1,179.1,526,179.1"/>
<path fill="#FFFFFF" d="M532.4,212.7c0-10.5,2.9-18.7,8.8-24.8c5.9-6.1,14.1-9.2,24.6-9.2c9.9,0,17.6,2.9,23.1,8.8
	c5.6,5.9,8.3,13.8,8.3,23.8c0,10.2-2.9,18.4-8.9,24.5c-5.9,6.1-13.9,9.1-24.1,9.1c-9.8,0-17.6-2.9-23.3-8.6
	C535.3,230.5,532.4,222.6,532.4,212.7 M547.9,212.2c0,6.6,1.5,11.6,4.5,15.1c3,3.5,7.3,5.2,12.8,5.2c5.4,0,9.5-1.7,12.4-5.2
	c2.8-3.5,4.2-8.6,4.2-15.5c0-6.8-1.5-11.9-4.4-15.4c-2.9-3.5-7-5.2-12.3-5.2c-5.5,0-9.7,1.8-12.7,5.4
	C549.4,200.3,547.9,205.4,547.9,212.2"/>
<path fill="#FFFFFF" d="M619.4,196.7c0,2.1,0.7,3.8,2,5c1.4,1.2,4.3,2.7,9,4.6c5.9,2.4,10.1,5,12.5,8c2.4,3,3.6,6.6,3.6,10.8
	c0,5.9-2.3,10.7-6.9,14.3c-4.6,3.6-10.7,5.4-18.5,5.4c-2.6,0-5.5-0.3-8.7-1c-3.2-0.6-5.9-1.4-8.1-2.4v-14.6c2.7,1.9,5.6,3.4,8.7,4.5
	c3.1,1.1,5.9,1.7,8.5,1.7c3.4,0,5.8-0.5,7.4-1.4c1.6-0.9,2.4-2.5,2.4-4.7c0-2.1-0.8-3.8-2.5-5.2c-1.7-1.4-4.8-3-9.4-4.9
	c-5.5-2.3-9.4-4.9-11.7-7.7c-2.3-2.9-3.4-6.5-3.4-10.9c0-5.7,2.3-10.4,6.8-14c4.5-3.7,10.4-5.5,17.6-5.5c2.2,0,4.7,0.2,7.4,0.7
	c2.7,0.5,5,1.1,6.9,1.9v14.1c-2-1.3-4.3-2.4-6.9-3.4c-2.6-0.9-5.2-1.4-7.8-1.4c-2.8,0-5,0.6-6.6,1.7
	C620.2,193.3,619.4,194.8,619.4,196.7"/>
<path fill="#FFFFFF" d="M653,212.7c0-10.5,2.9-18.7,8.9-24.8c5.9-6.1,14.1-9.2,24.6-9.2c9.9,0,17.6,2.9,23.1,8.8
	c5.6,5.9,8.3,13.8,8.3,23.8c0,10.2-2.9,18.4-8.8,24.5c-5.9,6.1-13.9,9.1-24.1,9.1c-9.8,0-17.6-2.9-23.3-8.6
	C655.9,230.5,653,222.6,653,212.7 M668.5,212.2c0,6.6,1.5,11.6,4.5,15.1c3,3.5,7.3,5.2,12.8,5.2c5.4,0,9.5-1.7,12.4-5.2
	c2.8-3.5,4.2-8.6,4.2-15.5c0-6.8-1.5-11.9-4.4-15.4c-2.9-3.5-7-5.2-12.3-5.2c-5.5,0-9.7,1.8-12.7,5.4
	C670,200.3,668.5,205.4,668.5,212.2"/>
<path fill="#FFFFFF" d="M767.2,192.3v32.5c0,6.7,1.6,11.8,4.7,15.1c3.1,3.3,7.8,5,14.1,5c2.1,0,4.3-0.2,6.5-0.7
	c2.2-0.4,3.8-0.9,4.7-1.5v-12.3c-0.9,0.6-2,1.1-3.2,1.5c-1.2,0.4-2.2,0.6-3.1,0.6c-3,0-5.3-0.8-6.7-2.4c-1.4-1.6-2.1-4.3-2.1-8.2
	v-29.6h15.1v-12.2h-15.1v-18.8l-14.9,4.5v14.2H745v-7.6c0-3.8,0.8-6.7,2.5-8.6c1.7-1.9,4.1-2.9,7.2-2.9c1.6,0,3,0.2,4.2,0.6
	c1.2,0.4,2.1,0.8,2.6,1v-12.9c-1.1-0.4-2.3-0.6-3.7-0.8c-1.4-0.2-3-0.3-4.8-0.3c-6.8,0-12.3,2.1-16.6,6.4c-4.3,4.2-6.5,9.7-6.5,16.3
	v8.8h-10.6v12.2H730v51H745v-51H767.2z"/>
<polygon fill="#FFFFFF" points="394.6,155.2 394.6,243.4 379.3,243.4 379.3,174.2 379.1,174.2 351.7,243.4 341.5,243.4 313.5,174.2 
	313.3,174.2 313.3,243.4 299.2,243.4 299.2,155.2 321.1,155.2 346.5,220.5 346.8,220.5 373.6,155.2 "/>
<rect x="71.2" y="67.9" fill="#F25022" width="83.4" height="83.4"/>
<rect x="163.2" y="67.9" fill="#7FBA00" width="83.4" height="83.4"/>
<rect x="71.2" y="160" fill="#00A4EF" width="83.4" height="83.4"/>
<rect x="163.2" y="160" fill="#FFB900" width="83.4" height="83.4"/>
<text transform="matrix(1 0 0 1 290.5192 120.6991)" fill="#FFFFFF" font-family="'SegoePro-Medium'" font-size="78.8966">Kunin ito sa</text>
</svg>
