<?xml version="1.0" encoding="utf-8"?>
<!-- Generator: Adobe Illustrator 18.1.1, SVG Export Plug-In . SVG Version: 6.00 Build 0)  -->
<svg version="1.1" xmlns="http://www.w3.org/2000/svg" xmlns:xlink="http://www.w3.org/1999/xlink" x="0px" y="0px"
	 viewBox="0 0 864 312" enable-background="new 0 0 864 312" xml:space="preserve">
<g id="Layer_2">
	<rect x="2.3" y="2.3" width="859.5" height="307.5"/>
	<path fill="#D2D2D2" d="M4.5,4.5h855v303H4.5V4.5z M0,312h864V0H0V312z"/>
	<g>
		<defs>
			<rect id="SVGID_1_" y="0" width="864" height="312"/>
		</defs>
		<clipPath id="SVGID_2_">
			<use xlink:href="#SVGID_1_"  overflow="visible"/>
		</clipPath>
	</g>
</g>
<g id="Layer_1">
	<path fill="#FFFFFF" d="M408.1,163.4c0-2.5,0.9-4.6,2.7-6.2c1.8-1.7,3.9-2.5,6.4-2.5c2.6,0,4.8,0.9,6.5,2.6
		c1.7,1.7,2.6,3.8,2.6,6.2c0,2.4-0.9,4.5-2.7,6.1c-1.8,1.7-3.9,2.5-6.5,2.5c-2.6,0-4.7-0.8-6.5-2.5
		C409,167.8,408.1,165.8,408.1,163.4 M424.6,245.6h-14.9v-63.8h14.9V245.6z"/>
	<path fill="#FFFFFF" d="M469.9,234.7c2.2,0,4.7-0.5,7.3-1.5c2.7-1,5.1-2.4,7.4-4.1v14c-2.4,1.4-5.1,2.4-8.1,3.1
		c-3,0.7-6.3,1.1-10,1.1c-9.3,0-16.9-3-22.8-8.9c-5.8-5.9-8.8-13.5-8.8-22.7c0-10.3,3-18.7,8.9-25.4c6-6.6,14.4-10,25.4-10
		c2.8,0,5.6,0.4,8.5,1.1c2.9,0.7,5.1,1.6,6.8,2.5v14.4c-2.3-1.7-4.7-3-7.1-3.9c-2.4-0.9-4.9-1.4-7.4-1.4c-5.9,0-10.6,1.9-14.3,5.8
		c-3.6,3.8-5.4,9-5.4,15.6c0,6.5,1.7,11.5,5.2,15.1C459.2,232.9,463.9,234.7,469.9,234.7"/>
	<path fill="#FFFFFF" d="M527.2,180.8c1.2,0,2.3,0.1,3.2,0.2c0.9,0.2,1.8,0.4,2.4,0.6v15.2c-0.8-0.6-1.9-1.1-3.4-1.6
		c-1.5-0.5-3.3-0.8-5.5-0.8c-3.7,0-6.8,1.5-9.3,4.6c-2.5,3.1-3.8,7.9-3.8,14.3v32.2h-14.9v-63.8h14.9v10.1h0.2
		c1.4-3.5,3.4-6.2,6.2-8.2C520,181.8,523.3,180.8,527.2,180.8"/>
	<path fill="#FFFFFF" d="M533.6,214.7c0-10.5,3-18.9,8.9-25.1c5.9-6.2,14.2-9.2,24.7-9.2c9.9,0,17.7,3,23.2,8.9
		c5.6,5.9,8.4,14,8.4,24c0,10.3-3,18.6-8.9,24.7c-5.9,6.1-14,9.2-24.2,9.2c-9.8,0-17.6-2.9-23.4-8.7
		C536.5,232.6,533.6,224.7,533.6,214.7 M549.2,214.2c0,6.7,1.5,11.8,4.5,15.3c3,3.5,7.3,5.3,12.9,5.3c5.4,0,9.6-1.8,12.4-5.3
		c2.8-3.5,4.3-8.7,4.3-15.6c0-6.9-1.5-12-4.4-15.5c-2.9-3.5-7.1-5.2-12.4-5.2c-5.5,0-9.7,1.8-12.7,5.5
		C550.7,202.2,549.2,207.4,549.2,214.2"/>
	<path fill="#FFFFFF" d="M621,198.6c0,2.1,0.7,3.8,2,5.1c1.4,1.2,4.4,2.8,9,4.6c6,2.4,10.2,5.1,12.6,8.1c2.4,3,3.6,6.6,3.6,10.9
		c0,6-2.3,10.8-6.9,14.5c-4.6,3.6-10.8,5.5-18.6,5.5c-2.6,0-5.5-0.3-8.7-1c-3.2-0.6-5.9-1.5-8.1-2.4V229c2.7,1.9,5.6,3.4,8.8,4.5
		c3.1,1.1,6,1.7,8.5,1.7c3.4,0,5.9-0.5,7.5-1.4c1.6-1,2.4-2.5,2.4-4.8c0-2.1-0.8-3.8-2.5-5.2c-1.7-1.4-4.8-3.1-9.5-4.9
		c-5.5-2.3-9.4-4.9-11.7-7.8c-2.3-2.9-3.5-6.6-3.5-11c0-5.7,2.3-10.5,6.8-14.2c4.5-3.7,10.4-5.6,17.7-5.6c2.2,0,4.7,0.2,7.5,0.7
		c2.8,0.5,5.1,1.1,6.9,1.9v14.3c-2-1.3-4.3-2.5-6.9-3.4c-2.6-1-5.3-1.4-7.8-1.4c-2.8,0-5.1,0.6-6.6,1.7
		C621.8,195.1,621,196.6,621,198.6"/>
	<path fill="#FFFFFF" d="M654.8,214.7c0-10.5,3-18.9,8.9-25.1c5.9-6.2,14.2-9.2,24.7-9.2c9.9,0,17.7,3,23.2,8.9
		c5.6,5.9,8.4,14,8.4,24c0,10.3-3,18.6-8.9,24.7c-5.9,6.1-14,9.2-24.2,9.2c-9.8,0-17.6-2.9-23.4-8.7
		C657.7,232.6,654.8,224.7,654.8,214.7 M670.3,214.2c0,6.7,1.5,11.8,4.5,15.3c3,3.5,7.3,5.3,12.9,5.3c5.4,0,9.6-1.8,12.4-5.3
		c2.8-3.5,4.3-8.7,4.3-15.6c0-6.9-1.5-12-4.4-15.5c-2.9-3.5-7.1-5.2-12.4-5.2c-5.5,0-9.7,1.8-12.7,5.5
		C671.9,202.2,670.3,207.4,670.3,214.2"/>
	<path fill="#FFFFFF" d="M769.4,194.1v32.8c0,6.8,1.6,11.9,4.7,15.2c3.2,3.4,7.9,5.1,14.2,5.1c2.1,0,4.3-0.2,6.5-0.7
		c2.2-0.5,3.8-0.9,4.7-1.5v-12.4c-0.9,0.6-2,1.1-3.2,1.5c-1.2,0.4-2.3,0.6-3.1,0.6c-3,0-5.3-0.8-6.7-2.4c-1.4-1.6-2.1-4.4-2.1-8.3
		v-29.8h15.1v-12.3h-15.1v-18.9l-15,4.6v14.3h-22.3v-7.7c0-3.8,0.8-6.7,2.5-8.7c1.7-2,4.1-2.9,7.2-2.9c1.6,0,3,0.2,4.3,0.6
		c1.2,0.4,2.1,0.8,2.6,1.1v-13c-1.1-0.4-2.3-0.6-3.7-0.8c-1.4-0.2-3-0.3-4.8-0.3c-6.8,0-12.4,2.1-16.7,6.4
		c-4.3,4.3-6.5,9.8-6.5,16.5v8.9h-10.6v12.3H732v51.5h15.1v-51.5H769.4z"/>
	<polygon fill="#FFFFFF" points="395.3,156.6 395.3,245.6 379.9,245.6 379.9,175.9 379.7,175.9 352.2,245.6 342,245.6 313.8,175.9 
		313.7,175.9 313.7,245.6 299.4,245.6 299.4,156.6 321.5,156.6 346.9,222.6 347.3,222.6 374.2,156.6 	"/>
	<rect x="70.5" y="68.6" fill="#F25022" width="83.7" height="84.2"/>
	<rect x="162.9" y="68.6" fill="#7FBA00" width="83.7" height="84.2"/>
	<rect x="70.5" y="161.5" fill="#00A4EF" width="83.7" height="84.2"/>
	<rect x="162.9" y="161.5" fill="#FFB900" width="83.7" height="84.2"/>
	<text transform="matrix(0.9949 0 0 1 290.7642 121.8271)" fill="#FFFFFF" font-family="'SegoePro-Medium'" font-size="72.8672">Ipate kwenye</text>
</g>
</svg>
