<?xml version="1.0" encoding="UTF-8" standalone="no"?>
<svg
   xmlns:dc="http://purl.org/dc/elements/1.1/"
   xmlns:cc="http://creativecommons.org/ns#"
   xmlns:rdf="http://www.w3.org/1999/02/22-rdf-syntax-ns#"
   xmlns:svg="http://www.w3.org/2000/svg"
   xmlns="http://www.w3.org/2000/svg"
   xmlns:sodipodi="http://sodipodi.sourceforge.net/DTD/sodipodi-0.dtd"
   xmlns:inkscape="http://www.inkscape.org/namespaces/inkscape"
   width="24"
   height="24"
   viewBox="0 0 24 24"
   version="1.1"
   id="svg6"
   sodipodi:docname="2-additives.svg"
   inkscape:version="1.0.1 (3bc2e813f5, 2020-09-07)">
  <metadata
     id="metadata12">
    <rdf:RDF>
      <cc:Work
         rdf:about="">
        <dc:format>image/svg+xml</dc:format>
        <dc:type
           rdf:resource="http://purl.org/dc/dcmitype/StillImage" />
        <dc:title></dc:title>
      </cc:Work>
    </rdf:RDF>
  </metadata>
  <defs
     id="defs10" />
  <sodipodi:namedview
     pagecolor="#ffffff"
     bordercolor="#666666"
     borderopacity="1"
     objecttolerance="10"
     gridtolerance="10"
     guidetolerance="10"
     inkscape:pageopacity="0"
     inkscape:pageshadow="2"
     inkscape:window-width="1848"
     inkscape:window-height="1022"
     id="namedview8"
     showgrid="true"
     inkscape:snap-global="true"
     inkscape:snap-to-guides="false"
     inkscape:snap-grids="true"
     inkscape:zoom="19.666667"
     inkscape:cx="18.921865"
     inkscape:cy="6.2619176"
     inkscape:window-x="72"
     inkscape:window-y="21"
     inkscape:window-maximized="1"
     inkscape:current-layer="svg6"
     inkscape:document-rotation="0"
     showguides="false">
    <inkscape:grid
       type="xygrid"
       id="grid822" />
  </sodipodi:namedview>
  <rect
     style="fill:#ff6600;stroke:none"
     id="rect1706"
     width="24"
     height="24"
     x="0"
     y="0"
     ry="5" />
  <path
     style="fill:#ffffff;stroke:none;stroke-width:1px;stroke-linecap:butt;stroke-linejoin:miter;stroke-opacity:1"
     d="m 15,2 -1,1 v 5 l 5,11 v 2 l -1,1 H 6 L 5,21 V 19 L 10,8 V 3 L 9,2 Z"
     id="path884"
     sodipodi:nodetypes="ccccccccccccc" />
  <g
     aria-label="2"
     id="text932"
     style="font-style:normal;font-weight:normal;font-size:10.9739px;line-height:1.25;font-family:sans-serif;fill:#000000;fill-opacity:1;stroke:none;stroke-width:0.274349">
    <path
       d="m 10.762222,19.089096 h 3.777636 v 0.910919 H 9.4601426 v -0.910919 q 0.6162104,-0.637644 1.6771634,-1.709314 1.066312,-1.077028 1.339587,-1.387812 0.51976,-0.58406 0.723378,-0.985937 0.208975,-0.407234 0.208975,-0.798394 0,-0.637643 -0.450101,-1.039519 -0.444743,-0.401877 -1.162762,-0.401877 -0.509043,0 -1.077028,0.176826 -0.562627,0.176825 -1.2056289,0.535835 v -1.093103 q 0.6537189,-0.26256 1.2217039,-0.396518 0.567985,-0.133959 1.03952,-0.133959 1.243137,0 1.982589,0.621569 0.739452,0.621568 0.739452,1.661088 0,0.492968 -0.187542,0.937711 -0.182184,0.439385 -0.669794,1.03952 -0.133958,0.155392 -0.851977,0.900203 -0.718019,0.739452 -2.025456,2.073681 z"
       style="font-style:normal;font-variant:normal;font-weight:normal;font-stretch:normal;font-family:sans-serif;-inkscape-font-specification:sans-serif;stroke-width:0.274349"
       id="path991" />
  </g>
</svg>
