<?xml version="1.0" encoding="UTF-8" standalone="no"?>
<svg
   xmlns:dc="http://purl.org/dc/elements/1.1/"
   xmlns:cc="http://creativecommons.org/ns#"
   xmlns:rdf="http://www.w3.org/1999/02/22-rdf-syntax-ns#"
   xmlns:svg="http://www.w3.org/2000/svg"
   xmlns="http://www.w3.org/2000/svg"
   xmlns:sodipodi="http://sodipodi.sourceforge.net/DTD/sodipodi-0.dtd"
   xmlns:inkscape="http://www.inkscape.org/namespaces/inkscape"
   width="1377.625"
   height="652.78198"
   viewBox="0 0 1377.625 652.78198"
   fill="none"
   version="1.1"
   id="svg92"
   sodipodi:docname="ecoscore-d.svg"
   inkscape:version="1.0.1 (0767f8302a, 2020-10-17)"
   inkscape:export-filename="/home/stephane/openfoodfacts-server/html/images/icons/ecoscore-d.png"
   inkscape:export-xdpi="19.118176"
   inkscape:export-ydpi="19.118176">
  <metadata
     id="metadata96">
    <rdf:RDF>
      <cc:Work
         rdf:about="">
        <dc:format>image/svg+xml</dc:format>
        <dc:type
           rdf:resource="http://purl.org/dc/dcmitype/StillImage" />
        <dc:title></dc:title>
      </cc:Work>
    </rdf:RDF>
  </metadata>
  <sodipodi:namedview
     pagecolor="#ffffff"
     bordercolor="#666666"
     borderopacity="1"
     objecttolerance="10"
     gridtolerance="10"
     guidetolerance="10"
     inkscape:pageopacity="0"
     inkscape:pageshadow="2"
     inkscape:window-width="2488"
     inkscape:window-height="1376"
     id="namedview94"
     showgrid="false"
     fit-margin-top="0"
     fit-margin-left="0"
     fit-margin-right="0"
     fit-margin-bottom="0"
     inkscape:zoom="0.920625"
     inkscape:cx="688.8125"
     inkscape:cy="326.39099"
     inkscape:window-x="72"
     inkscape:window-y="27"
     inkscape:window-maximized="1"
     inkscape:current-layer="svg92" />
  <rect
     style="fill:#ffffff;stroke-width:0.973137"
     id="rect3193"
     width="1377.625"
     height="652.78198"
     x="0"
     y="0"
     ry="47.218643" />
  <g
     clip-path="url(#clip0)"
     id="g82"
     transform="translate(-111.1875,-50.109009)">
    <g
       clip-path="url(#clip1)"
       id="g78">
      <path
         d="m 689.118,98.3443 c 9.874,-0.8327 19.023,8.3157 18.19,18.1897 -1.214,14.061 -18.725,333.622 -120.986,435.883 -98.015,98.014 -213.505,75.007 -288.916,20.795 -0.908,-0.653 -1.933,-1.439 -3.058,-2.343 l -67.981,67.886 c -16.425,16.425 -43.056,16.425 -59.482,0 -16.425,-16.426 -16.425,-43.057 0,-59.482 l 67.898,-67.97 c -0.908,-1.13 -1.698,-2.158 -2.355,-3.069 C 178.217,432.823 155.209,317.333 253.223,219.319 355.484,117.057 675.045,99.5459 689.118,98.3443 Z"
         fill="#ff6f1e"
         id="path74" />
      <path
         d="m 356.379,473.727 c -7.662,0 -13.573,-2.08 -17.732,-6.239 -4.16,-4.16 -6.239,-10.071 -6.239,-17.733 V 266.191 c 0,-7.662 2.079,-13.573 6.239,-17.733 4.159,-4.159 10.07,-6.239 17.732,-6.239 h 66.005 c 25.175,0 46.848,4.597 65.019,13.792 18.17,9.195 32.072,22.439 41.704,39.734 9.633,17.295 14.449,37.983 14.449,62.064 0,24.081 -4.816,44.878 -14.449,62.392 -9.413,17.295 -23.205,30.539 -41.376,39.734 -18.17,9.194 -39.953,13.792 -65.347,13.792 z m 62.392,-41.376 c 49.257,0 73.886,-24.847 73.886,-74.542 0,-49.476 -24.629,-74.214 -73.886,-74.214 h -35.136 v 148.756 z"
         fill="#ffffff"
         id="path76" />
    </g>
    <path
       d="m 844.015,403.098 c -7.415,0 -13.136,-2.012 -17.161,-6.038 -4.025,-4.025 -6.038,-9.745 -6.038,-17.16 V 202.257 c 0,-7.415 2.013,-13.135 6.038,-17.16 4.025,-4.026 9.746,-6.038 17.161,-6.038 h 112.496 c 15.678,0 23.516,6.355 23.516,19.067 0,12.923 -7.838,19.385 -23.516,19.385 H 869.12 v 52.435 h 81.035 c 15.678,0 23.517,6.461 23.517,19.385 0,12.711 -7.839,19.067 -23.517,19.067 H 869.12 v 56.248 h 87.391 c 15.678,0 23.516,6.462 23.516,19.385 0,12.712 -7.838,19.067 -23.516,19.067 z m 268.135,2.86 c -22.03,0 -41.31,-4.66 -57.83,-13.982 -16.53,-9.322 -29.24,-22.669 -38.14,-40.041 -8.89,-17.373 -13.34,-37.711 -13.34,-61.015 0,-23.305 4.45,-43.537 13.34,-60.698 8.9,-17.372 21.61,-30.719 38.14,-40.041 16.52,-9.322 35.8,-13.982 57.83,-13.982 27.76,0 51.7,7.626 71.82,22.88 3.18,2.542 5.41,5.085 6.68,7.627 1.27,2.542 1.9,5.72 1.9,9.534 0,5.508 -1.58,10.275 -4.76,14.3 -2.97,3.814 -6.68,5.72 -11.12,5.72 -2.97,0 -5.62,-0.318 -7.95,-0.953 -2.12,-0.848 -4.55,-2.225 -7.31,-4.131 -8.47,-5.509 -16.31,-9.428 -23.51,-11.758 -7.21,-2.543 -14.94,-3.814 -23.2,-3.814 -20.34,0 -35.7,6.356 -46.08,19.067 -10.17,12.5 -15.26,31.249 -15.26,56.249 0,50.422 20.45,75.633 61.34,75.633 7.84,0 15.25,-1.165 22.24,-3.496 6.99,-2.542 15.15,-6.567 24.47,-12.076 3.18,-1.906 5.83,-3.178 7.95,-3.813 2.11,-0.848 4.55,-1.271 7.31,-1.271 4.44,0 8.15,2.012 11.12,6.038 3.18,3.813 4.76,8.474 4.76,13.982 0,3.814 -0.74,7.098 -2.22,9.852 -1.27,2.542 -3.39,4.978 -6.36,7.309 -20.12,15.254 -44.06,22.88 -71.82,22.88 z m 210.72,0 c -22.24,0 -41.63,-4.66 -58.15,-13.982 -16.31,-9.534 -28.92,-22.881 -37.82,-40.041 -8.89,-17.373 -13.34,-37.711 -13.34,-61.015 0,-23.305 4.45,-43.537 13.34,-60.698 8.9,-17.372 21.51,-30.719 37.82,-40.041 16.52,-9.322 35.91,-13.982 58.15,-13.982 22.25,0 41.53,4.66 57.84,13.982 16.53,9.322 29.24,22.669 38.14,40.041 8.89,17.161 13.34,37.393 13.34,60.698 0,23.304 -4.45,43.642 -13.34,61.015 -8.9,17.16 -21.61,30.507 -38.14,40.041 -16.31,9.322 -35.59,13.982 -57.84,13.982 z m 0,-38.452 c 18.65,0 33.27,-6.567 43.86,-19.703 10.8,-13.135 16.21,-32.096 16.21,-56.883 0,-24.788 -5.3,-43.643 -15.89,-56.566 -10.6,-13.136 -25.32,-19.703 -44.18,-19.703 -18.85,0 -33.57,6.567 -44.17,19.703 -10.38,12.923 -15.57,31.778 -15.57,56.566 0,24.787 5.3,43.748 15.89,56.883 10.59,13.136 25.21,19.703 43.85,19.703 z M 873.975,605.719 c -9.604,0 -18.548,-1.02 -26.831,-3.061 -8.164,-2.161 -14.887,-5.102 -20.169,-8.824 -2.041,-1.561 -3.542,-3.182 -4.502,-4.862 -0.841,-1.681 -1.261,-3.842 -1.261,-6.483 0,-3.602 1.081,-6.723 3.242,-9.364 2.161,-2.641 4.682,-3.962 7.563,-3.962 1.561,0 3.061,0.24 4.502,0.72 1.441,0.481 3.241,1.381 5.402,2.702 4.923,2.761 9.785,4.742 14.587,5.942 4.922,1.201 10.444,1.801 16.567,1.801 7.083,0 12.426,-1.021 16.027,-3.061 3.722,-2.161 5.583,-5.283 5.583,-9.365 0,-2.761 -1.741,-5.102 -5.223,-7.023 -3.361,-2.041 -9.844,-4.021 -19.448,-5.942 -11.886,-2.521 -21.19,-5.523 -27.913,-9.004 -6.723,-3.482 -11.465,-7.564 -14.226,-12.246 -2.641,-4.802 -3.962,-10.564 -3.962,-17.287 0,-7.684 2.281,-14.647 6.843,-20.889 4.562,-6.243 10.805,-11.105 18.729,-14.587 8.043,-3.601 17.047,-5.402 27.012,-5.402 8.763,0 16.567,0.96 23.41,2.881 6.843,1.921 13.086,4.922 18.728,9.004 2.161,1.561 3.662,3.241 4.502,5.042 0.961,1.681 1.441,3.782 1.441,6.303 0,3.602 -1.081,6.723 -3.242,9.364 -2.041,2.641 -4.502,3.962 -7.383,3.962 -1.561,0 -3.001,-0.18 -4.322,-0.54 -1.32,-0.481 -3.181,-1.441 -5.582,-2.882 -0.601,-0.36 -2.341,-1.26 -5.223,-2.701 -2.761,-1.56 -6.062,-2.761 -9.904,-3.601 -3.722,-0.961 -7.803,-1.441 -12.245,-1.441 -6.123,0 -11.045,1.201 -14.767,3.602 -3.721,2.281 -5.582,5.342 -5.582,9.184 0,2.281 0.66,4.141 1.981,5.582 1.32,1.441 3.781,2.881 7.383,4.322 3.601,1.321 8.944,2.701 16.027,4.142 11.525,2.521 20.589,5.582 27.192,9.184 6.603,3.481 11.285,7.563 14.046,12.245 2.761,4.682 4.142,10.205 4.142,16.568 0,7.923 -2.221,14.946 -6.663,21.069 -4.442,6.002 -10.685,10.684 -18.728,14.046 -7.924,3.241 -17.168,4.862 -27.733,4.862 z m 132.005,0 c -12.721,0 -23.886,-2.641 -33.49,-7.923 -9.484,-5.283 -16.867,-12.846 -22.15,-22.69 -5.162,-9.845 -7.743,-21.37 -7.743,-34.576 0,-13.085 2.581,-24.55 7.743,-34.395 5.283,-9.844 12.666,-17.407 22.15,-22.69 9.604,-5.282 20.769,-7.923 33.49,-7.923 15.25,0 28.64,4.022 40.16,12.065 2.04,1.441 3.48,3.001 4.32,4.682 0.96,1.681 1.45,3.842 1.45,6.483 0,3.722 -1.09,6.903 -3.25,9.544 -2.04,2.521 -4.56,3.782 -7.56,3.782 -1.8,0 -3.42,-0.24 -4.86,-0.72 -1.44,-0.601 -3.12,-1.501 -5.04,-2.702 -4.21,-2.521 -8.17,-4.322 -11.89,-5.402 -3.72,-1.08 -7.56,-1.621 -11.52,-1.621 -10.689,0 -18.673,3.242 -23.955,9.725 -5.162,6.362 -7.743,16.087 -7.743,29.172 0,13.206 2.581,23.051 7.743,29.533 5.282,6.363 13.266,9.545 23.955,9.545 3.6,0 7.08,-0.541 10.44,-1.621 3.36,-1.201 7.68,-3.001 12.97,-5.402 2.52,-1.321 4.38,-2.221 5.58,-2.702 1.2,-0.48 2.64,-0.72 4.32,-0.72 3,0 5.52,1.321 7.56,3.962 2.16,2.521 3.25,5.642 3.25,9.364 0,2.521 -0.49,4.682 -1.45,6.483 -0.84,1.68 -2.28,3.241 -4.32,4.682 -11.52,8.043 -24.91,12.065 -40.16,12.065 z m 119.42,0 c -12.97,0 -24.25,-2.641 -33.86,-7.923 -9.48,-5.403 -16.81,-12.966 -21.97,-22.69 -5.16,-9.845 -7.74,-21.37 -7.74,-34.576 0,-13.205 2.58,-24.67 7.74,-34.395 5.16,-9.844 12.49,-17.407 21.97,-22.69 9.61,-5.282 20.89,-7.923 33.86,-7.923 12.96,0 24.19,2.641 33.67,7.923 9.61,5.283 16.93,12.846 21.97,22.69 5.16,9.725 7.74,21.19 7.74,34.395 0,13.206 -2.58,24.731 -7.74,34.576 -5.16,9.724 -12.54,17.287 -22.15,22.69 -9.48,5.282 -20.65,7.923 -33.49,7.923 z m 0,-25.391 c 9.6,0 17.1,-3.362 22.51,-10.085 5.4,-6.843 8.1,-16.747 8.1,-29.713 0,-12.965 -2.76,-22.81 -8.28,-29.533 -5.41,-6.723 -12.85,-10.084 -22.33,-10.084 -9.61,0 -17.11,3.361 -22.51,10.084 -5.41,6.603 -8.11,16.448 -8.11,29.533 0,13.086 2.7,22.991 8.11,29.713 5.4,6.723 12.9,10.085 22.51,10.085 z m 189.78,2.701 c 2.16,3.242 3.24,6.303 3.24,9.184 0,3.842 -1.62,7.083 -4.86,9.724 -3.12,2.522 -6.78,3.782 -10.98,3.782 -2.88,0 -5.59,-0.66 -8.11,-1.981 -2.52,-1.32 -4.68,-3.301 -6.48,-5.942 l -23.41,-34.215 c -1.68,-2.401 -3.48,-4.142 -5.4,-5.223 -1.8,-1.2 -3.96,-1.801 -6.49,-1.801 h -11.7 v 32.235 c 0,5.042 -1.44,9.064 -4.32,12.065 -2.88,2.881 -6.85,4.322 -11.89,4.322 -5.04,0 -9.06,-1.441 -12.06,-4.322 -2.88,-3.001 -4.32,-7.023 -4.32,-12.065 v -96.343 c 0,-4.922 1.32,-8.704 3.96,-11.345 2.64,-2.641 6.42,-3.961 11.34,-3.961 h 45.2 c 15.37,0 26.89,3.361 34.58,10.084 7.8,6.603 11.7,16.207 11.7,28.813 0,9.604 -2.64,17.767 -7.92,24.49 -5.28,6.603 -12.73,11.045 -22.33,13.326 3.96,0.601 7.38,1.921 10.26,3.962 3,2.041 5.95,5.102 8.83,9.184 z m -51.5,-51.322 c 7.32,0 12.55,-1.141 15.67,-3.422 3.24,-2.281 4.86,-6.003 4.86,-11.165 0,-5.282 -1.62,-9.064 -4.86,-11.345 -3.12,-2.401 -8.35,-3.601 -15.67,-3.601 h -23.05 v 29.533 z m 87.34,72.391 c -4.92,0 -8.7,-1.32 -11.34,-3.961 -2.64,-2.642 -3.96,-6.423 -3.96,-11.345 v -96.343 c 0,-4.922 1.32,-8.704 3.96,-11.345 2.64,-2.641 6.42,-3.961 11.34,-3.961 h 62.31 c 5.16,0 9.07,1.08 11.71,3.241 2.64,2.161 3.96,5.282 3.96,9.364 0,8.644 -5.22,12.966 -15.67,12.966 h -45.38 v 24.13 h 41.78 c 10.44,0 15.67,4.262 15.67,12.786 0,4.082 -1.32,7.203 -3.97,9.364 -2.64,2.161 -6.54,3.242 -11.7,3.242 h -41.78 v 26.291 h 45.38 c 10.45,0 15.67,4.322 15.67,12.966 0,4.082 -1.32,7.203 -3.96,9.364 -2.64,2.161 -6.55,3.241 -11.71,3.241 z"
       fill="#4a4a4a"
       id="path80" />
  </g>
  <defs
     id="defs90">
    <clipPath
       id="clip0">
      <rect
         width="1599.53"
         height="752.09601"
         fill="#ffffff"
         transform="translate(0.338867,0.42627)"
         id="rect84"
         x="0"
         y="0" />
    </clipPath>
    <clipPath
       id="clip1">
      <rect
         width="572.01599"
         height="572.01599"
         fill="#ffffff"
         transform="translate(148.64,85.1694)"
         id="rect87"
         x="0"
         y="0" />
    </clipPath>
  </defs>
</svg>
