<?xml version="1.0" encoding="UTF-8" standalone="no"?>
<svg
   xmlns:dc="http://purl.org/dc/elements/1.1/"
   xmlns:cc="http://creativecommons.org/ns#"
   xmlns:rdf="http://www.w3.org/1999/02/22-rdf-syntax-ns#"
   xmlns:svg="http://www.w3.org/2000/svg"
   xmlns="http://www.w3.org/2000/svg"
   xmlns:sodipodi="http://sodipodi.sourceforge.net/DTD/sodipodi-0.dtd"
   xmlns:inkscape="http://www.inkscape.org/namespaces/inkscape"
   width="240"
   height="130"
   viewBox="0 0 744.09449 1052.3622"
   id="svg4443"
   version="1.1"
   inkscape:version="1.0.1 (0767f8302a, 2020-10-17)"
   sodipodi:docname="ecoscore-c.svg">
  <defs
     id="defs4445" />
  <sodipodi:namedview
     id="base"
     pagecolor="#ffffff"
     bordercolor="#666666"
     borderopacity="1.0"
     inkscape:pageopacity="0.0"
     inkscape:pageshadow="2"
     inkscape:zoom="1.979899"
     inkscape:cx="42.248478"
     inkscape:cy="35.126775"
     inkscape:document-units="px"
     inkscape:current-layer="layer1"
     showgrid="false"
     inkscape:window-width="2488"
     inkscape:window-height="1376"
     inkscape:window-x="72"
     inkscape:window-y="27"
     inkscape:window-maximized="1"
     inkscape:document-rotation="0" />
  <metadata
     id="metadata4448">
    <rdf:RDF>
      <cc:Work
         rdf:about="">
        <dc:format>image/svg+xml</dc:format>
        <dc:type
           rdf:resource="http://purl.org/dc/dcmitype/StillImage" />
        <dc:title></dc:title>
      </cc:Work>
    </rdf:RDF>
  </metadata>
  <g
     inkscape:label="Calque 1"
     inkscape:groupmode="layer"
     id="layer1">
    <circle
       style="fill:#2a7fff;stroke-width:8.09509"
       id="path858"
       cx="-125.28906"
       cy="526.18109"
       r="474.07495" />
    <g
       aria-label="C"
       id="text862"
       style="font-size:886.286px;line-height:1.25;font-family:'Open Sans';-inkscape-font-specification:'Open Sans';fill:#ffffff;stroke-width:22.1571">
      <path
         d="m -109.91814,266.52701 q -104.2944,0 -164.88035,69.67385 -60.1532,69.2411 -60.1532,189.98026 0,124.20121 57.98941,192.14403 58.42218,67.51007 166.17863,67.51007 66.211796,0 151.032137,-23.80163 v 64.48077 q -65.77904,24.66714 -162.283817,24.66714 -139.78046,0 -215.94566,-84.82034 -75.73245,-84.82034 -75.73245,-241.04556 0,-97.80304 36.35158,-171.37171 36.78433,-73.56866 105.59266,-113.38229 69.2411,-39.81363 162.71658,-39.81363 99.5340704,0 173.968247,36.35158 l -31.158493,63.1825 Q -38.080501,266.52701 -109.91814,266.52701 Z"
         style="fill:#ffffff;stroke-width:22.1571"
         id="path1025" />
    </g>
    <g
       id="g954"
       transform="matrix(0.51635303,0,0,0.51635303,146.66212,261.25414)">
      <g
         id="g935"
         transform="translate(-41.1119,482.63718)">
        <path
           d="M 997.8181,111.40659 H 645.12127 v -632.6905 H 997.8181 v 65.34628 H 718.68993 v 203.82848 h 262.25065 v 64.91352 H 718.68993 V 45.627553 H 997.8181 Z M 755.47427,-582.73538 q 20.77232,-26.83092 44.57395,-64.91353 24.23438,-38.0826 38.0826,-66.21179 h 87.41688 v 9.08789 q -19.0413,28.1292 -56.69114,69.2411 -37.64985,41.1119 -65.34629,63.61525 h -48.036 z"
           style="font-size:886.286px;line-height:1.25;font-family:'Open Sans';-inkscape-font-specification:'Open Sans';fill:#4d4d4d;stroke-width:22.1571"
           id="path907" />
        <path
           d="m 1409.3699,-464.59276 q -104.2944,0 -164.8804,69.67385 -60.1532,69.24109 -60.1532,189.98025 0,124.201216 57.9894,192.14404 58.4222,67.510067 166.1786,67.510067 66.2118,0 151.0322,-23.801626 V 95.39459 q -65.7791,24.66714 -162.2838,24.66714 -139.7805,0 -215.9457,-84.820341 -75.7324,-84.820341 -75.7324,-241.045559 0,-97.80305 36.3515,-171.37171 36.7844,-73.56866 105.5927,-113.38229 69.2411,-39.81363 162.7166,-39.81363 99.534,0 173.9682,36.35157 l -31.1585,63.1825 q -71.8376,-33.75503 -143.6752,-33.75503 z"
           style="font-size:886.286px;line-height:1.25;font-family:'Open Sans';-inkscape-font-specification:'Open Sans';fill:#4d4d4d;stroke-width:22.1571"
           id="path909" />
        <path
           d="m 2246.7543,-205.80417 q 0,151.89765 -77.0307,238.881775 -76.598,86.984125 -213.3491,86.984125 -139.7805,0 -215.9457,-85.253098 -75.7324,-85.685854 -75.7324,-241.478312 0,-154.4942 76.1652,-239.31454 76.1652,-85.2531 216.3784,-85.2531 136.3184,0 212.9163,86.55137 76.598,86.55137 76.598,238.88178 z m -504.1617,0 q 0,128.528781 54.5273,195.173334 54.9602,66.211797 159.2546,66.211797 105.1599,0 158.8217,-66.211797 53.6619,-66.211797 53.6619,-195.173334 0,-127.66327 -53.6619,-193.44231 -53.2291,-66.2118 -157.9562,-66.2118 -105.1599,0 -160.1201,66.64456 -54.5273,66.21179 -54.5273,193.00955 z"
           style="font-size:886.286px;line-height:1.25;font-family:'Open Sans';-inkscape-font-specification:'Open Sans';fill:#4d4d4d;stroke-width:22.1571"
           id="path911" />
      </g>
      <g
         id="g942"
         transform="matrix(0.74616816,0,0,0.74616816,153.31681,186.89828)">
        <path
           d="m 940.26144,1089.8698 q 0,66.2118 -49.33428,102.1306 -49.33428,35.9188 -138.48219,35.9188 -94.34099,0 -147.13733,-29.8602 v -66.6445 q 34.18779,17.3102 73.13591,27.2636 39.38087,9.9535 75.73245,9.9535 56.25838,0 86.55136,-17.7431 30.29298,-18.1758 30.29298,-54.9601 0,-27.6964 -24.23438,-47.1705 -23.80163,-19.9068 -93.47548,-46.7377 -66.2118,-24.66717 -94.34099,-42.84295 -27.69644,-18.60855 -41.54466,-41.97742 -13.41546,-23.36887 -13.41546,-55.82563 0,-57.98942 47.1705,-91.31169 47.17049,-33.75504 129.39429,-33.75504 76.59796,0 149.73387,31.15849 l -25.53265,58.42218 q -71.40488,-29.42747 -129.3943,-29.42747 -51.06531,0 -77.03072,16.01201 -25.96541,16.012 -25.96541,44.14119 0,19.0413 9.52065,32.45677 9.95341,13.41546 31.59125,25.53265 21.63784,12.11719 83.08932,35.0533 84.38758,30.72574 113.81504,61.88421 29.86023,31.1585 29.86023,78.329 z"
           style="font-size:886.286px;line-height:1.25;font-family:'Open Sans';-inkscape-font-specification:'Open Sans';fill:#4d4d4d;stroke-width:22.1571"
           id="path913" />
        <path
           d="m 1246.2205,1227.9192 q -102.9961,0 -159.6873,-63.1825 -56.2584,-63.6152 -56.2584,-179.59404 0,-119.00814 57.124,-183.92166 57.5566,-64.91353 163.582,-64.91353 34.1878,0 68.3756,7.35687 34.1878,7.35686 53.6619,17.31027 l -22.0706,61.01872 q -23.8017,-9.52065 -51.9309,-15.57925 -28.1291,-6.49135 -49.767,-6.49135 -144.5408,0 -144.5408,184.35441 0,87.41686 35.0533,134.15466 35.4861,46.7377 104.7272,46.7377 59.2877,0 121.6047,-25.5327 v 63.6153 q -47.6033,24.6671 -119.8737,24.6671 z"
           style="font-size:886.286px;line-height:1.25;font-family:'Open Sans';-inkscape-font-specification:'Open Sans';fill:#4d4d4d;stroke-width:22.1571"
           id="path915" />
        <path
           d="m 1888.4317,981.6806 q 0,115.9788 -58.4222,181.3251 -58.4222,64.9135 -161.4183,64.9135 -63.6153,0 -112.9496,-29.8602 -49.3342,-29.8602 -76.1652,-85.6858 -26.8309,-55.8257 -26.8309,-130.6926 0,-115.97883 57.9894,-180.4596 57.9894,-64.91353 160.9856,-64.91353 99.5341,0 157.9562,66.2118 58.855,66.2118 58.855,179.16133 z m -361.352,0 q 0,90.8789 36.3516,138.4822 36.3515,47.6032 106.8909,47.6032 70.5394,0 106.8909,-47.1705 36.7844,-47.6032 36.7844,-138.9149 0,-90.44618 -36.7844,-137.18392 -36.3515,-47.17049 -107.7564,-47.17049 -70.5394,0 -106.4582,46.30498 -35.9188,46.30498 -35.9188,138.04943 z"
           style="font-size:886.286px;line-height:1.25;font-family:'Open Sans';-inkscape-font-specification:'Open Sans';fill:#4d4d4d;stroke-width:22.1571"
           id="path917" />
        <path
           d="m 2230.3096,736.30747 q 31.5912,0 56.6911,5.19308 l -9.9534,66.64456 q -29.4275,-6.49135 -51.9308,-6.49135 -57.5567,0 -98.6686,46.73773 -40.6791,46.73774 -40.6791,116.41159 v 254.46102 h -71.8377 V 744.96261 h 59.2877 l 8.2224,87.84964 h 3.4621 q 26.3981,-46.30498 63.6152,-71.40488 37.2171,-25.0999 81.7911,-25.0999 z"
           style="font-size:886.286px;line-height:1.25;font-family:'Open Sans';-inkscape-font-specification:'Open Sans';fill:#4d4d4d;stroke-width:22.1571"
           id="path919" />
        <path
           d="m 2576.0823,1227.9192 q -105.1599,0 -166.1786,-64.048 -60.5859,-64.048 -60.5859,-177.86303 0,-114.68056 56.2583,-182.19063 56.6912,-67.51007 151.8977,-67.51007 89.1479,0 141.0787,58.85493 51.9308,58.42218 51.9308,154.49419 v 45.43947 h -326.7314 q 2.1638,83.52204 41.9774,126.79774 40.2464,43.2757 112.9496,43.2757 76.5979,0 151.4649,-32.024 v 64.048 q -38.0826,16.4448 -72.2704,23.3689 -33.755,7.3568 -81.7911,7.3568 z m -19.474,-431.45853 q -57.1239,0 -91.3117,37.21709 -33.755,37.21709 -39.8136,102.99613 h 247.9696 q 0,-67.94282 -30.2929,-103.86164 -30.293,-36.35158 -86.5514,-36.35158 z"
           style="font-size:886.286px;line-height:1.25;font-family:'Open Sans';-inkscape-font-specification:'Open Sans';fill:#4d4d4d;stroke-width:22.1571"
           id="path921" />
      </g>
    </g>
  </g>
</svg>
