<?xml version="1.0" encoding="UTF-8" standalone="no"?>
<svg
   xmlns:dc="http://purl.org/dc/elements/1.1/"
   xmlns:cc="http://creativecommons.org/ns#"
   xmlns:rdf="http://www.w3.org/1999/02/22-rdf-syntax-ns#"
   xmlns:svg="http://www.w3.org/2000/svg"
   xmlns="http://www.w3.org/2000/svg"
   xmlns:sodipodi="http://sodipodi.sourceforge.net/DTD/sodipodi-0.dtd"
   xmlns:inkscape="http://www.inkscape.org/namespaces/inkscape"
   width="24"
   height="24"
   viewBox="0 0 24 24"
   version="1.1"
   id="svg6"
   sodipodi:docname="ecoscore-b.svg"
   inkscape:version="1.0.1 (3bc2e813f5, 2020-09-07)">
  <metadata
     id="metadata12">
    <rdf:RDF>
      <cc:Work
         rdf:about="">
        <dc:format>image/svg+xml</dc:format>
        <dc:type
           rdf:resource="http://purl.org/dc/dcmitype/StillImage" />
        <dc:title></dc:title>
      </cc:Work>
    </rdf:RDF>
  </metadata>
  <defs
     id="defs10" />
  <sodipodi:namedview
     pagecolor="#ffffff"
     bordercolor="#666666"
     borderopacity="1"
     objecttolerance="10"
     gridtolerance="10"
     guidetolerance="10"
     inkscape:pageopacity="0"
     inkscape:pageshadow="2"
     inkscape:window-width="1848"
     inkscape:window-height="1022"
     id="namedview8"
     showgrid="true"
     inkscape:snap-global="true"
     inkscape:snap-to-guides="false"
     inkscape:snap-grids="true"
     inkscape:zoom="6.9532168"
     inkscape:cx="-4.5762703"
     inkscape:cy="13.488771"
     inkscape:window-x="72"
     inkscape:window-y="21"
     inkscape:window-maximized="1"
     inkscape:current-layer="svg6"
     inkscape:document-rotation="0">
    <inkscape:grid
       type="xygrid"
       id="grid822" />
  </sodipodi:namedview>
  <circle
     style="fill:#00ccff;stroke:none;stroke-width:1.09091"
     id="path845"
     cx="12"
     cy="12"
     r="12" />
  <g
     aria-label="B"
     id="text1563"
     style="font-style:normal;font-weight:normal;font-size:21.9478px;line-height:1.25;font-family:sans-serif;fill:#ffffff;fill-opacity:1;stroke:none;stroke-width:0.548694">
    <path
       d="m 9.1647732,12.359009 v 5.862034 h 3.4722108 q 1.746822,0 2.582724,-0.718019 0.846619,-0.728735 0.846619,-2.218356 0,-1.500338 -0.846619,-2.20764 -0.835902,-0.718019 -2.582724,-0.718019 z m 0,-6.5800534 V 10.60147 h 3.2042928 q 1.586072,0 2.357674,-0.589418 0.782319,-0.6001354 0.782319,-1.8218391 0,-1.210987 -0.782319,-1.8111222 Q 13.955138,5.7789556 12.369066,5.7789556 Z M 7,3.9999836 h 5.529817 q 2.475557,0 3.815145,1.0288031 1.339587,1.0288031 1.339587,2.9256588 0,1.4681878 -0.685869,2.3362405 -0.685869,0.868053 -2.014739,1.082387 1.596788,0.342934 2.475557,1.436037 0.889486,1.082387 0.889486,2.711325 0,2.14334 -1.457471,3.31146 -1.457471,1.16812 -4.147362,1.16812 H 7 Z"
       style="font-weight:normal;fill:#ffffff;stroke-width:0.548694"
       id="path1664" />
  </g>
</svg>
