<?xml version="1.0" encoding="UTF-8" standalone="no"?>
<svg
   xmlns:dc="http://purl.org/dc/elements/1.1/"
   xmlns:cc="http://creativecommons.org/ns#"
   xmlns:rdf="http://www.w3.org/1999/02/22-rdf-syntax-ns#"
   xmlns:svg="http://www.w3.org/2000/svg"
   xmlns="http://www.w3.org/2000/svg"
   xmlns:sodipodi="http://sodipodi.sourceforge.net/DTD/sodipodi-0.dtd"
   xmlns:inkscape="http://www.inkscape.org/namespaces/inkscape"
   width="24"
   height="24"
   viewBox="0 0 24 24"
   version="1.1"
   id="svg6"
   sodipodi:docname="monkey_uncertain.svg"
   inkscape:version="0.92.3 (2405546, 2018-03-11)">
  <metadata
     id="metadata12">
    <rdf:RDF>
      <cc:Work
         rdf:about="">
        <dc:format>image/svg+xml</dc:format>
        <dc:type
           rdf:resource="http://purl.org/dc/dcmitype/StillImage" />
        <dc:title />
      </cc:Work>
    </rdf:RDF>
  </metadata>
  <defs
     id="defs10" />
  <sodipodi:namedview
     pagecolor="#ffffff"
     bordercolor="#666666"
     borderopacity="1"
     objecttolerance="10"
     gridtolerance="10"
     guidetolerance="10"
     inkscape:pageopacity="0"
     inkscape:pageshadow="2"
     inkscape:window-width="1920"
     inkscape:window-height="1017"
     id="namedview8"
     showgrid="true"
     inkscape:snap-global="true"
     inkscape:snap-to-guides="false"
     inkscape:snap-grids="true"
     inkscape:zoom="39.333333"
     inkscape:cx="16.763628"
     inkscape:cy="12.210976"
     inkscape:window-x="-8"
     inkscape:window-y="-8"
     inkscape:window-maximized="1"
     inkscape:current-layer="svg6">
    <inkscape:grid
       type="xygrid"
       id="grid822" />
  </sodipodi:namedview>
  <path
     inkscape:connector-curvature="0"
     d="M -1.5e-7,-5.0000002e-8 H 24 V 24 H -1.5e-7 Z"
     id="path2"
     fill="none" />
  <path
     d="M 11.888672,3.8398438 C 8.6638536,3.8398454 5.9492325,6.0357081 5.140625,9.0078125 A 2,2 0 0 0 5,9 a 2,2 0 0 0 -2,2 2,2 0 0 0 2,2 2,2 0 0 0 0.072266,-0.0039 C 5.771657,17.123526 8.4597708,20 11.888672,20 c 3.434387,0 6.126196,-2.885387 6.820312,-7.023438 A 2,2 0 0 0 19,13 2,2 0 0 0 21,11 2,2 0 0 0 19,9 2,2 0 0 0 18.644531,9.0332031 C 17.844632,6.0480869 15.122745,3.8398434 11.888672,3.8398438 Z M 9.5,8 A 3.5,3.5 0 0 1 11.947266,9.0019531 5,5 0 0 1 12,9 5,5 0 0 1 12.054688,9.0019531 3.5,3.5 0 0 1 14.5,8 3.5,3.5 0 0 1 18,11.5 3.5,3.5 0 0 1 16.998047,13.947266 5,5 0 0 1 17,14 5,5 0 0 1 12,19 5,5 0 0 1 7,14 5,5 0 0 1 7.0019531,13.951172 3.5,3.5 0 0 1 6,11.5 3.5,3.5 0 0 1 9.5,8 Z"
     id="circle1056"
     inkscape:connector-curvature="0" />
  <circle
     r="1"
     cy="11.5"
     cx="9.5"
     id="circle1022" />
  <circle
     style="opacity:1;fill:#000000;fill-opacity:1;fill-rule:nonzero;stroke:none;stroke-width:3.50841045;stroke-miterlimit:4;stroke-dasharray:none;stroke-opacity:1"
     id="circle1066"
     cx="14.5"
     cy="11.5"
     r="1" />
  <rect
     style="opacity:1;fill:#000000;fill-opacity:1;fill-rule:nonzero;stroke:none;stroke-width:10;stroke-miterlimit:4;stroke-dasharray:none;stroke-opacity:1"
     id="rect1081"
     width="6"
     height="1"
     x="9"
     y="16" />
</svg>
