<?xml version="1.0" encoding="UTF-8"?>
<svg width="27px" height="48px" viewBox="0 0 27 48" version="1.1" xmlns="http://www.w3.org/2000/svg" xmlns:xlink="http://www.w3.org/1999/xlink">
    <title>Artboard</title>
    <g id="Artboard" stroke="none" stroke-width="1" fill="none" fill-rule="evenodd">
        <path d="M19.72,48.143 L5.962,48.143 C2.57,48.143 -0.19,45.383 -0.19,41.991 L-0.19,6.152 C-0.19,2.761 2.57,0 5.962,0 L19.72,0 C23.112,0 25.872,2.761 25.872,6.152 L25.872,20.393 C26.433,21.417 26.729,22.575 26.729,23.757 L26.729,24.363 C26.729,25.546 26.433,26.704 25.872,27.726 L25.872,41.991 C25.872,45.383 23.112,48.143 19.72,48.143" id="Fill-3656" fill="#6D6E6D"></path>
        <path d="M0.6333,41.9912 L0.6333,6.1522 C0.6333,3.2142 3.0243,0.8242 5.9623,0.8242 L19.7203,0.8242 C22.6573,0.8242 25.0483,3.2142 25.0483,6.1522 L25.0483,20.6122 C25.5883,21.5212 25.9053,22.5992 25.9053,23.7582 L25.9053,24.3642 C25.9053,25.5212 25.5883,26.5982 25.0483,27.5082 L25.0483,41.9912 C25.0483,44.9292 22.6573,47.3202 19.7203,47.3202 L5.9623,47.3202 C3.0243,47.3202 0.6333,44.9292 0.6333,41.9912" id="Fill-3658" fill="#FFFFFE"></path>
        <path d="M23.1506,41.9912 L23.1506,36.8872 L9.2486,36.8872 L9.2486,41.9912 C9.2486,43.8862 10.7856,45.4222 12.6806,45.4222 L19.7196,45.4222 C21.6146,45.4222 23.1506,43.8862 23.1506,41.9912" id="Fill-3660" fill="#DC3E2A"></path>
        <path d="M23.1506,6.1518 L23.1506,11.2558 L9.2486,11.2558 L9.2486,6.1518 C9.2486,4.2568 10.7856,2.7208 12.6806,2.7208 L19.7196,2.7208 C21.6146,2.7208 23.1506,4.2568 23.1506,6.1518" id="Fill-3662" fill="#007F46"></path>
        <path d="M20.5033,17.9165 C21.4653,17.9165 22.3673,18.1935 23.1503,18.6715 L23.1503,11.2555 L9.2493,11.2555 L9.2493,18.6715 C10.0333,18.1935 10.9343,17.9165 11.8963,17.9165 L20.5033,17.9165 Z" id="Fill-3664" fill="#79BB43"></path>
        <path d="M11.8961,30.2041 C10.9341,30.2041 10.0331,29.9281 9.2491,29.4501 L9.2491,36.8881 L23.1501,36.8881 L23.1501,29.4501 C22.3671,29.9281 21.4651,30.2041 20.5031,30.2041 L11.8961,30.2041 Z" id="Fill-3666" fill="#E7792B"></path>
        <path d="M15.127,16.435 L15.127,14.937 L15.745,14.937 C16.893,14.946 17.266,15.222 17.266,15.659 C17.266,16.205 16.776,16.435 15.823,16.435 L15.127,16.435 Z M15.127,14.201 L15.127,12.734 L15.5,12.734 C16.491,12.734 16.893,12.972 16.893,13.449 C16.893,13.886 16.51,14.185 15.706,14.193 L15.127,14.201 Z M15.657,11.935 L13.871,11.935 L13.871,17.233 L15.882,17.233 C17.776,17.233 18.551,16.611 18.551,15.659 C18.551,15.137 18.198,14.723 17.462,14.485 C17.884,14.216 18.178,13.839 18.178,13.355 C18.178,12.573 17.502,11.935 15.657,11.935 L15.657,11.935 Z" id="Fill-3668" fill="#FFFFFE"></path>
        <path d="M15.2391,7.9384 L16.1831,5.7154 L17.0891,7.9384 L15.2391,7.9384 Z M16.6321,4.2684 L15.8001,4.2684 L13.2311,9.8454 L14.4361,9.8454 L14.8841,8.7784 L17.4351,8.7784 L17.8751,9.8454 L19.1921,9.8454 L16.6321,4.2684 Z" id="Fill-3670" fill="#FFFFFE"></path>
        <path d="M24.8873,24.3637 L24.8873,23.7567 C24.8873,21.0937 22.9243,18.9347 20.5033,18.9347 L11.8963,18.9347 C9.4753,18.9347 7.5123,21.0937 7.5123,23.7567 L7.5123,24.3637 C7.5123,27.0267 9.4753,29.1857 11.8963,29.1857 L20.5033,29.1857 C22.9243,29.1857 24.8873,27.0267 24.8873,24.3637" id="Fill-3674" fill="#F9C623"></path>
        <path d="M12.3628,23.9897 C12.3628,21.6187 14.0028,20.1537 16.2178,20.1537 C18.1458,20.1537 18.9598,21.0697 19.4268,22.0397 L17.4268,22.7187 C17.1878,22.2117 16.8168,21.8447 16.1218,21.8447 C15.0808,21.8447 14.5298,22.6857 14.5298,23.9787 C14.5298,25.4117 15.1048,26.1127 16.2778,26.1127 C16.9718,26.1127 17.5108,25.7457 17.9058,25.2187 L19.4508,26.2627 C18.7678,27.2117 17.6788,27.8037 16.2178,27.8037 C13.8718,27.8037 12.3628,26.3277 12.3628,23.9897" id="Fill-3676" fill="#FFFFFE"></path>
        <polygon id="Fill-3678" fill="#FFFFFE" points="18.1371 38.3842 14.2031 38.3842 14.2031 43.9612 18.1741 43.9612 18.1741 43.1202 15.3991 43.1202 15.3991 41.4802 17.3431 41.4802 17.3431 40.6402 15.3991 40.6402 15.3991 39.2252 18.1371 39.2252"></polygon>
        <path d="M14.6579,35.4043 L14.6579,31.7183 L15.3649,31.7183 C16.9239,31.7183 17.6799,32.3953 17.6799,33.5543 C17.6799,34.6133 16.8659,35.4043 15.2079,35.4043 L14.6579,35.4043 Z M15.3739,30.9043 L13.4019,30.9043 L13.4019,36.2033 L15.2369,36.2033 C17.5619,36.2033 18.9759,35.0743 18.9759,33.5543 C18.9759,31.8953 17.6599,30.9043 15.3739,30.9043 L15.3739,30.9043 Z" id="Fill-3680" fill="#FFFFFE"></path>
        <polygon id="Fill-3683" fill="#6D6E6D" points="4.2445 35.1064 6.1405 35.1064 6.1405 35.8724 2.8245 35.8724 2.8245 35.2744 4.7715 33.7294 2.8245 33.7294 2.8245 32.9634 6.1405 32.9634 6.1405 33.5794"></polygon>
        <path d="M5.4864,30.9087 C5.4864,30.7787 5.4594,30.6677 5.4054,30.5767 C5.3504,30.4877 5.2784,30.4137 5.1874,30.3577 C5.0974,30.3017 4.9934,30.2627 4.8774,30.2387 C4.7604,30.2157 4.6414,30.2037 4.5204,30.2037 L2.8254,30.2037 L2.8254,29.4377 L4.5204,29.4377 C4.7504,29.4377 4.9654,29.4667 5.1644,29.5237 C5.3634,29.5817 5.5374,29.6707 5.6874,29.7907 C5.8364,29.9107 5.9544,30.0627 6.0394,30.2477 C6.1254,30.4337 6.1684,30.6537 6.1684,30.9087 C6.1684,31.1737 6.1234,31.3987 6.0324,31.5857 C5.9424,31.7727 5.8214,31.9247 5.6714,32.0407 C5.5204,32.1587 5.3454,32.2437 5.1454,32.2977 C4.9464,32.3517 4.7374,32.3797 4.5204,32.3797 L2.8254,32.3797 L2.8254,31.6147 L4.5204,31.6147 C4.6474,31.6147 4.7694,31.6007 4.8844,31.5767 C4.9994,31.5517 5.1024,31.5117 5.1924,31.4547 C5.2824,31.3987 5.3544,31.3267 5.4074,31.2387 C5.4604,31.1497 5.4864,31.0397 5.4864,30.9087" id="Fill-3684" fill="#6D6E6D"></path>
        <polygon id="Fill-3686" fill="#6D6E6D" points="3.4974 26.3237 3.4974 27.3317 6.1404 27.3317 6.1404 28.0977 3.4974 28.0977 3.4974 29.1107 2.8254 29.1107 2.8254 26.3237"></polygon>
        <path d="M6.1404,25.9453 L2.8254,25.9453 L2.8254,24.4513 C2.8254,24.2953 2.8574,24.1513 2.9234,24.0193 C2.9884,23.8863 3.0744,23.7733 3.1804,23.6763 C3.2854,23.5793 3.4054,23.5043 3.5394,23.4493 C3.6734,23.3953 3.8084,23.3673 3.9454,23.3673 C4.0484,23.3673 4.1474,23.3813 4.2424,23.4053 C4.3374,23.4303 4.4264,23.4663 4.5104,23.5123 C4.5944,23.5593 4.6704,23.6163 4.7374,23.6823 C4.8044,23.7503 4.8604,23.8253 4.9074,23.9093 L6.1404,23.1483 L6.1404,24.0123 L5.0704,24.6793 L5.0704,25.1793 L6.1404,25.1793 L6.1404,25.9453 Z" id="Path" fill="#6D6E6D"></path>
        <path d="M4.4034,25.1793 L4.4034,24.4793 C4.4034,24.3883 4.3604,24.3113 4.2744,24.2453 C4.1894,24.1803 4.0794,24.1473 3.9454,24.1473 C3.8084,24.1473 3.6994,24.1843 3.6184,24.2593 C3.5384,24.3343 3.4974,24.4153 3.4974,24.5033 L3.4974,25.1793 L4.4034,25.1793 Z" id="Path" fill="#FFFFFF"></path>
        <polygon id="Fill-3689" fill="#6D6E6D" points="2.8257 22.7712 6.1407 22.7712 6.1407 22.0042 2.8257 22.0042"></polygon>
        <polygon id="Fill-3690" fill="#6D6E6D" points="4.5197 21.4352 5.1917 21.4352 5.1917 19.9972 4.5197 19.9972"></polygon>
        <path d="M3.7963,17.4375 C3.7833,17.4505 3.7603,17.4845 3.7263,17.5405 C3.6923,17.5965 3.6563,17.6665 3.6193,17.7505 C3.5813,17.8345 3.5483,17.9265 3.5203,18.0255 C3.4923,18.1255 3.4783,18.2255 3.4783,18.3245 C3.4783,18.4555 3.5023,18.5565 3.5483,18.6265 C3.5953,18.6965 3.6643,18.7315 3.7543,18.7315 C3.8103,18.7315 3.8573,18.7155 3.8943,18.6845 C3.9313,18.6535 3.9653,18.6095 3.9943,18.5515 C4.0243,18.4935 4.0513,18.4225 4.0763,18.3365 C4.1013,18.2505 4.1293,18.1525 4.1603,18.0405 C4.2043,17.8815 4.2513,17.7375 4.3033,17.6105 C4.3543,17.4835 4.4183,17.3745 4.4943,17.2835 C4.5703,17.1935 4.6633,17.1245 4.7723,17.0755 C4.8813,17.0275 5.0123,17.0035 5.1643,17.0035 C5.3513,17.0035 5.5093,17.0385 5.6383,17.1085 C5.7673,17.1785 5.8723,17.2715 5.9513,17.3865 C6.0303,17.5015 6.0883,17.6345 6.1243,17.7865 C6.1593,17.9365 6.1773,18.0915 6.1773,18.2505 C6.1773,18.3715 6.1683,18.4955 6.1493,18.6215 C6.1303,18.7475 6.1033,18.8715 6.0683,18.9925 C6.0323,19.1145 5.9893,19.2325 5.9393,19.3475 C5.8893,19.4625 5.8323,19.5685 5.7663,19.6655 L5.0993,19.3285 C5.1143,19.3135 5.1443,19.2715 5.1873,19.2035 C5.2313,19.1345 5.2753,19.0505 5.3183,18.9505 C5.3623,18.8515 5.4003,18.7395 5.4353,18.6145 C5.4693,18.4905 5.4863,18.3635 5.4863,18.2365 C5.4863,17.9655 5.4043,17.8305 5.2393,17.8305 C5.1763,17.8305 5.1253,17.8505 5.0853,17.8905 C5.0443,17.9315 5.0073,17.9875 4.9753,18.0585 C4.9423,18.1305 4.9123,18.2145 4.8843,18.3115 C4.8563,18.4075 4.8253,18.5135 4.7903,18.6285 C4.7443,18.7815 4.6933,18.9135 4.6393,19.0255 C4.5843,19.1375 4.5213,19.2305 4.4503,19.3055 C4.3783,19.3805 4.2963,19.4355 4.2023,19.4715 C4.1093,19.5065 4.0003,19.5255 3.8753,19.5255 C3.7013,19.5255 3.5473,19.4925 3.4133,19.4265 C3.2793,19.3615 3.1663,19.2725 3.0743,19.1615 C2.9833,19.0485 2.9133,18.9185 2.8673,18.7705 C2.8203,18.6235 2.7973,18.4665 2.7973,18.3015 C2.7973,18.1835 2.8083,18.0685 2.8293,17.9565 C2.8513,17.8445 2.8793,17.7375 2.9133,17.6365 C2.9483,17.5355 2.9863,17.4395 3.0303,17.3495 C3.0743,17.2585 3.1173,17.1785 3.1613,17.1065 L3.7963,17.4375 Z" id="Fill-3691" fill="#6D6E6D"></path>
        <path d="M4.4546,16.7465 C4.2556,16.7465 4.0566,16.7105 3.8596,16.6395 C3.6616,16.5675 3.4846,16.4635 3.3296,16.3265 C3.1736,16.1895 3.0476,16.0225 2.9506,15.8245 C2.8546,15.6265 2.8066,15.4015 2.8066,15.1495 C2.8066,14.8545 2.8736,14.5975 3.0076,14.3795 C3.1406,14.1615 3.3156,13.9995 3.5296,13.8935 L3.9406,14.4815 C3.8536,14.5165 3.7816,14.5595 3.7236,14.6125 C3.6666,14.6655 3.6196,14.7235 3.5836,14.7855 C3.5486,14.8485 3.5226,14.9135 3.5086,14.9795 C3.4946,15.0465 3.4876,15.1095 3.4876,15.1685 C3.4876,15.3055 3.5176,15.4235 3.5766,15.5235 C3.6356,15.6225 3.7116,15.7055 3.8056,15.7705 C3.8986,15.8365 4.0046,15.8855 4.1236,15.9175 C4.2416,15.9505 4.3616,15.9675 4.4826,15.9675 C4.6136,15.9675 4.7396,15.9475 4.8606,15.9085 C4.9826,15.8695 5.0896,15.8155 5.1826,15.7455 C5.2766,15.6745 5.3506,15.5905 5.4046,15.4905 C5.4596,15.3915 5.4866,15.2805 5.4866,15.1595 C5.4866,15.0975 5.4776,15.0325 5.4606,14.9655 C5.4436,14.8985 5.4176,14.8335 5.3816,14.7715 C5.3456,14.7095 5.2986,14.6535 5.2416,14.6035 C5.1836,14.5545 5.1126,14.5135 5.0286,14.4815 L5.3976,13.8515 C5.5196,13.9015 5.6286,13.9745 5.7246,14.0685 C5.8216,14.1635 5.9016,14.2725 5.9676,14.3925 C6.0326,14.5145 6.0826,14.6435 6.1166,14.7785 C6.1516,14.9135 6.1686,15.0475 6.1686,15.1785 C6.1686,15.4085 6.1196,15.6195 6.0206,15.8105 C5.9226,16.0025 5.7936,16.1665 5.6316,16.3055 C5.4696,16.4435 5.2856,16.5525 5.0806,16.6295 C4.8746,16.7075 4.6666,16.7465 4.4546,16.7465" id="Fill-3693" fill="#6D6E6D"></path>
        <path d="M6.1681,12.1054 C6.1681,12.3414 6.1201,12.5574 6.0231,12.7504 C5.9271,12.9424 5.8001,13.1084 5.6431,13.2474 C5.4861,13.3854 5.3061,13.4934 5.1031,13.5694 C4.9011,13.6464 4.6931,13.6834 4.4781,13.6834 C4.2601,13.6834 4.0501,13.6444 3.8481,13.5644 C3.6451,13.4844 3.4671,13.3744 3.3131,13.2334 C3.1591,13.0914 3.0361,12.9234 2.9441,12.7294 C2.8521,12.5344 2.8061,12.3224 2.8061,12.0914 C2.8061,11.8554 2.8551,11.6404 2.9511,11.4474 C3.0471,11.2544 3.1751,11.0884 3.3341,10.9494 C3.4921,10.8114 3.6731,10.7044 3.8761,10.6304 C4.0781,10.5554 4.2831,10.5184 4.4921,10.5184 C4.7101,10.5184 4.9201,10.5574 5.1221,10.6374 C5.3251,10.7164 5.5031,10.8264 5.6571,10.9664 C5.8111,11.1064 5.9351,11.2734 6.0281,11.4684 C6.1221,11.6634 6.1681,11.8754 6.1681,12.1054 M4.4871,12.9044 C4.6151,12.9044 4.7381,12.8864 4.8581,12.8504 C4.9781,12.8144 5.0851,12.7634 5.1781,12.6964 C5.2721,12.6294 5.3461,12.5454 5.4021,12.4444 C5.4591,12.3434 5.4861,12.2274 5.4861,12.0954 C5.4861,11.9614 5.4571,11.8454 5.3981,11.7454 C5.3391,11.6464 5.2621,11.5634 5.1671,11.4964 C5.0721,11.4294 4.9641,11.3794 4.8441,11.3464 C4.7241,11.3134 4.6021,11.2974 4.4781,11.2974 C4.3501,11.2974 4.2271,11.3154 4.1071,11.3514 C3.9871,11.3874 3.8811,11.4394 3.7891,11.5074 C3.6971,11.5764 3.6241,11.6604 3.5701,11.7594 C3.5151,11.8594 3.4881,11.9734 3.4881,12.1004 C3.4881,12.2344 3.5171,12.3514 3.5741,12.4514 C3.6321,12.5504 3.7071,12.6334 3.8011,12.7004 C3.8941,12.7684 4.0011,12.8184 4.1211,12.8524 C4.2411,12.8864 4.3631,12.9044 4.4871,12.9044" id="Fill-3695" fill="#6D6E6D"></path>
        <path d="M6.1404,10.0698 L2.8254,10.0698 L2.8254,8.5748 C2.8254,8.4198 2.8574,8.2758 2.9234,8.1438 C2.9884,8.0108 3.0744,7.8968 3.1804,7.7998 C3.2854,7.7038 3.4054,7.6288 3.5394,7.5738 C3.6734,7.5188 3.8084,7.4918 3.9454,7.4918 C4.0484,7.4918 4.1474,7.5048 4.2424,7.5298 C4.3374,7.5538 4.4264,7.5898 4.5104,7.6368 C4.5944,7.6838 4.6704,7.7408 4.7374,7.8078 C4.8044,7.8748 4.8604,7.9498 4.9074,8.0338 L6.1404,7.2728 L6.1404,8.1358 L5.0704,8.8038 L5.0704,9.3038 L6.1404,9.3038 L6.1404,10.0698 Z M4.4034,9.3038 L4.4034,8.6038 C4.4034,8.5128 4.3604,8.4358 4.2744,8.3698 C4.1894,8.3048 4.0794,8.2718 3.9454,8.2718 C3.8084,8.2718 3.6994,8.3098 3.6184,8.3838 C3.5384,8.4588 3.4974,8.5398 3.4974,8.6268 L3.4974,9.3038 L4.4034,9.3038 Z" id="Fill-3697" fill="#6D6E6D"></path>
        <polygon id="Fill-3700" fill="#6D6E6D" points="5.4677 4.5644 6.1407 4.5644 6.1407 6.8944 2.8247 6.8944 2.8247 4.6064 3.4977 4.6064 3.4977 6.1284 4.1417 6.1284 4.1417 4.8214 4.7627 4.8214 4.7627 6.1284 5.4677 6.1284"></polygon>
    </g>
</svg>