<svg width="225" height="30" viewBox="0 0 225 30" fill="none" xmlns="http://www.w3.org/2000/svg">
<path d="M26.9 25.3V5.99999C26.8 4.79999 25 5.89999 24.2 6.39999L20.5 8.49999V27.1C20.5 28 20.6 30.1 19.5 29.7C20.2 30 21 30 21.6 29.6L25.7 27.3C26.5 26.9 26.9 26.1 26.9 25.3Z" fill="#DC0031"/>
<path d="M18.8002 25.9V21.7L2.9002 12.3C2.1002 11.8 0.200195 10.9 1.2002 10.2C0.600195 10.6 0.200195 11.3 0.200195 12.1V16.8C0.200195 17.6 0.600195 18.3 1.3002 18.7L17.8002 28.4C18.9002 28.9 18.8002 26.8 18.8002 25.9Z" fill="black"/>
<path d="M4.70031 11.1L8.30031 13.2L24.2003 3.9C25.0003 3.4 26.8003 2.3 26.9003 3.5C26.8003 2.7 26.4003 2.1 25.8003 1.7L21.7003 -0.7C21.0003 -1.1 20.2003 -1.1 19.5003 -0.7L3.00031 9C2.00031 9.7 3.90031 10.7 4.70031 11.1Z" fill="#999999"/>
<path d="M44.0003 7.3L34.3003 23.7H37.6003L39.5003 20.4H51.5003L53.4003 23.7H56.7003L47.1003 7.3H44.0003ZM50.1003 17.9H41.1003L45.6003 10.2L50.1003 17.9Z" fill="#DC0031"/>
<path d="M63.6002 23.9H72.3002C76.4002 23.9 77.9002 22.2 77.9002 17.7V15.1H67.0002V17.6H75.0002V18.8C75.0002 20.6 74.1002 21.3 72.0002 21.3H63.8002C61.5002 21.3 60.6002 20.5 60.6002 18.4V12.5C60.6002 10.4 61.5002 9.6 63.8002 9.6H69.2002C74.5002 9.6 74.9002 9.9 74.9002 12.3V12.7H77.7002V11.7C77.7002 8.6 75.6002 7 71.5002 7H63.6002C59.4002 7 57.7002 8.8 57.7002 13.3V17.6C57.6002 22.1 59.4002 23.9 63.6002 23.9Z" fill="#DC0031"/>
<path d="M83.7003 16.5H96.3003V14H83.7003V9.8H96.8003V7.3H80.8003V23.7H96.9003V21.2H83.7003V16.5Z" fill="#DC0031"/>
<path d="M102 10.5L115.7 23.7H119.4V7.3H116.5V20.5L102.9 7.3H99.2002V23.7H102V10.5Z" fill="#DC0031"/>
<path d="M125.8 20.4H137.8L139.7 23.7H143L133.3 7.3H130.2L120.5 23.7H123.8L125.8 20.4ZM127.2 17.9L131.7 10.2L136.2 17.9H127.2Z" fill="#DC0031"/>
<path d="M150.5 23.9H157.1C162.7 23.9 163.1 22 163.1 18.9C163.1 16.6 162.6 15.7 161.5 15.2C162.7 14.7 162.9 13.7 162.9 11.5C162.9 8.20001 161.4 7.10001 157.2 7.10001H149.5C146.3 7.10001 144.7 8.50001 144.7 11.3V12.8H147.5V11.2C147.5 10.3 147.7 9.60001 150.8 9.60001H156.8C160 9.60001 160.1 9.90001 160.1 11.9C160.1 13.7 160.1 14.1 157.7 14.1H151.4V16.6H158.3C159.9 16.6 160.4 16.6 160.4 18.9C160.4 21.3 160.3 21.3 156.3 21.3H150.3C147.5 21.3 147.4 20.7 147.4 18.4V18H144.6V19.4C144.5 22.7 146.1 23.9 150.5 23.9Z" fill="black"/>
<path d="M170.7 23.9H178.1C182.2 23.9 183.8 22.3 183.8 18.3V12.7C183.8 8.70001 182.1 7.10001 178.1 7.10001H170.7C166.6 7.10001 165 8.70001 165 12.7V18.2C165 22.3 166.6 23.9 170.7 23.9ZM167.7 17.3V13.7C167.7 10 168.1 9.60001 172 9.60001H176.7C180.6 9.60001 181 10 181 13.7V17.2C181 21 180.6 21.3 176.7 21.3H172C168.1 21.3 167.7 21 167.7 17.3Z" fill="black"/>
<path d="M198.7 7.10001H191.3C187.2 7.10001 185.6 8.70001 185.6 12.7V18.2C185.6 22.2 187.3 23.8 191.3 23.8H198.7C202.8 23.8 204.4 22.2 204.4 18.2V12.7C204.5 8.70001 202.8 7.10001 198.7 7.10001ZM201.7 13.7V17.2C201.7 21 201.3 21.3 197.4 21.3H192.7C188.8 21.3 188.4 20.9 188.4 17.2V13.7C188.4 10 188.8 9.60001 192.7 9.60001H197.4C201.3 9.60001 201.7 10 201.7 13.7Z" fill="black"/>
<path d="M219.4 7.10001H212C207.9 7.10001 206.3 8.70001 206.3 12.7V18.2C206.3 22.2 208 23.8 212 23.8H219.4C223.5 23.8 225.1 22.2 225.1 18.2V12.7C225.1 8.70001 223.5 7.10001 219.4 7.10001ZM222.3 13.7V17.2C222.3 21 222 21.3 218 21.3H213.3C209.4 21.3 209 20.9 209 17.2V13.7C209 10 209.4 9.60001 213.3 9.60001H218C222 9.60001 222.3 10 222.3 13.7Z" fill="black"/>
</svg>
