<?xml version="1.0" encoding="UTF-8"?>
<svg width="80px" height="80px" viewBox="0 0 80 80" version="1.1" xmlns="http://www.w3.org/2000/svg" xmlns:xlink="http://www.w3.org/1999/xlink">
    <title>Favicon</title>
    <desc>Open Food Facts icon</desc>
    <g id="Artboard" stroke="none" stroke-width="1" fill="none" fill-rule="evenodd">
        <path d="M59,38.5 C59.0040159,47.6089332 54.1446229,56.0276536 46.2532458,60.5832801 C38.3618688,65.1389066 28.6381312,65.1389066 20.7467542,60.5832801 C12.8553771,56.0276536 7.99598406,47.6089332 8,38.5 C7.99598406,29.3910668 12.8553771,20.9723464 20.7467542,16.4167199 C28.6381312,11.8610934 38.3618688,11.8610934 46.2532458,16.4167199 C54.1446229,20.9723464 59.0040159,29.3910668 59,38.5 L59,38.5 Z" id="path10014" stroke="#000000" stroke-width="0.5" fill="#F9F9F9" fill-rule="nonzero" stroke-linecap="round" stroke-linejoin="round"></path>
        <path d="M61,36 C61,45.6461707 55.8538293,54.5596003 47.5,59.3826858 C39.146171,64.2057714 28.853829,64.2057714 20.5,59.3826858 C12.1461707,54.5596003 7,45.6461707 7,36 C7,21.0883116 19.0883118,9 34,9 C48.9116882,9 61,21.0883116 61,36 L61,36 Z" id="path9985" stroke="#000000" stroke-width="0.5" fill="#F9F9F9" fill-rule="nonzero" stroke-linecap="round" stroke-linejoin="round"></path>
        <path d="M52,34 L52,58 C52.6664274,58 53.3335726,58 54,58 L54,34 C53.3335726,34 52.6664274,34 52.0000232,34 L52,34 Z" id="path9967" fill="#0066FF" fill-rule="nonzero"></path>
        <path d="M49,35 L49,58 C50.0001746,58 50.9998254,58 52,58 L52,35 C50.9998254,35 50.0001746,35 49,35 Z" id="path9969" fill="#00CCFF" fill-rule="nonzero"></path>
        <path d="M36,28 L36,65 C39.9984817,65 44.0015084,61.4573678 48,61.4573678 L48,28 C44.0015084,28 39.9984817,28 36,28 L36,28 Z" id="path9971" fill="#00D400" fill-rule="nonzero"></path>
        <path d="M23,33 L23,62 C27.0000101,62 30.9999899,62 35,62 L35,33 C30.9999899,33 27.0000101,33 23,33 L23,33 Z" id="path9973" fill="#FFCC00" fill-rule="nonzero"></path>
        <path d="M16,28 L16,56.9748928 C18.3334064,56.9748928 20.6665936,61 23,61 L23,28 C20.6665936,28 18.3334064,28 16,28 L16,28 Z" id="path9975" fill="#FF0000" fill-rule="nonzero"></path>
        <rect id="rect9979" stroke="#333333" stroke-width="0.5" fill="#333333" fill-rule="nonzero" stroke-linecap="round" stroke-linejoin="round" transform="translate(58.650838, 60.413443) rotate(-44.999999) translate(-58.650838, -60.413443) " x="52.9436939" y="52.2879686" width="11.414289" height="16.250948"></rect>
        <path d="M63.5515695,54 L52,65.5201794 L61.4798206,75 C65.952277,71.83041 69.8327103,67.9226447 73,63.4484305 L63.5515695,54 Z" id="rect9983" stroke="#333333" stroke-width="0.5" fill="#333333" fill-rule="nonzero" stroke-linecap="round" stroke-linejoin="round"></path>
        <path d="M41.5290037,6.84381907 C31.8508598,4.48144233 21.1958355,7.07927014 13.6367006,14.6388356 C2.11800079,26.1581816 2.12252979,44.8434589 13.6417106,56.3628149 C25.1603904,67.8821609 43.8446133,67.8776316 55.3633031,56.3578046 C66.8819929,44.8384586 66.877474,26.1531814 55.3582932,14.6338254 C51.3987382,10.6740549 46.5985034,8.08075635 41.5290037,6.84332807 L41.5290037,6.84381907 Z M41.1695097,10.6053044 C54.9145117,14.2884698 63.0745702,28.4229089 59.3916046,42.1686939 C55.7086391,55.9144789 41.5750051,64.0750022 27.8300031,60.3918268 C14.0850011,56.7086615 5.9249426,42.5742224 9.60790816,28.8284374 C13.2908737,15.0826524 27.4244976,6.92212908 41.1695097,10.6053044 Z" id="path9981" stroke="#333333" stroke-width="0.49999997" fill="#333333" fill-rule="nonzero" stroke-linecap="round" stroke-linejoin="round"></path>
    </g>
</svg>
