<?xml version="1.0" encoding="UTF-8" standalone="no"?>
<!DOCTYPE svg  PUBLIC '-//W3C//DTD SVG 1.0//EN'  'http://www.w3.org/TR/2001/REC-SVG-20010904/DTD/svg10.dtd'>
<!-- Creator: CorelDRAW -->
<svg style="shape-rendering:geometricPrecision;text-rendering:geometricPrecision;image-rendering:optimizeQuality" xmlns="http://www.w3.org/2000/svg" xmlns:odm="http://product.corel.com/CGS/11/cddns/" xml:space="preserve" fill-rule="evenodd" height="8.2677in" width="8.2677in" xmlns:corel-charset="http://product.corel.com/CGS/11/cddns/" viewBox="0 0 8267.72 8267.72">
 <defs>
  <style type="text/css">
   <![CDATA[
    .fil0 {fill:#006C3B}
    .fil1 {fill:#77C06C}
   ]]>
  </style>
 </defs>
 <g id="Symbol-Rahmen">
  <path class="fil0" d="m716.82 4324.3c731.31 313.61 827.71 357.49 1567.8 675.18 40.476 17.968 72.394 31.791 101.49 46.122 50.76 27.555 77.339 53.453 127.28-15.287 16.882-17.106 46.268-32.858 65.602-65.449 1771.2-1641.6 3104.2-2926.1 4875.4-4567.7 311.45-314.04 957.14-82.315 668.75 262.42-1819 2115.1-3013.9 3557.1-3898.3 4727.1-378.15 498.87-701.18 948.44-991.49 1378.7-190.68 277.3-364.94 546.58-526.53 815.85-46.827 81.508-85.945 138.84-146.8 184.88-95.28 67.846-199.82 75.197-302.62 18.468-38.555-25.295-76.043-57.032-113.86-103.76-22.693-28.032-45.508-64.331-68.74-99.854l-553.4-911.48-623.12-1098.3c-170.56-300.64-307.26-550.24-571.63-1007.6-28.921-43.067-111.65-155.14-87.535-238.72 20.748-95.457 124.86-147.42 234.97-102.71 98.807 41.689 197.58 84.988 242.72 102.13z"/>
 </g>
 <g id="Symbol">
  <path class="fil1" d="m431.48 4322.7c694.72 300.72 1260.1 541.86 1963.1 846.5 48.492 21.169 97.638 26.933 146.55-15.724 1682.6-1574.1 3327.4-3117.8 5010-4692 220.55-198.94 645.36-76.925 509.09 107.46-2981.1 3437.6-4547.9 5449-5497.6 7037.3-86.311 145.08-250.18 136.88-339.06-2.2835-209.35-332.54-525.42-854.16-534.06-867.24-673.5-1175.6-694.99-1224.6-1337.9-2347.4-30.346-55.043 35.429-95.299 79.819-66.681z"/>
 </g>
</svg>
