<?xml version="1.0" standalone="no"?>
<!DOCTYPE svg PUBLIC "-//W3C//DTD SVG 20010904//EN"
 "http://www.w3.org/TR/2001/REC-SVG-20010904/DTD/svg10.dtd">
<svg version="1.0" xmlns="http://www.w3.org/2000/svg"
 width="700.000000pt" height="700.000000pt" viewBox="0 0 700.000000 700.000000"
 preserveAspectRatio="xMidYMid meet">
<metadata>
Created by potrace 1.14, written by Peter Selinger 2001-2017
</metadata>
<g transform="translate(0.000000,700.000000) scale(0.100000,-0.100000)"
fill="#000000" stroke="none">
<path d="M4275 6973 c-167 -30 -358 -111 -505 -214 -104 -73 -245 -219 -310
-321 -30 -48 -60 -87 -66 -87 -6 -1 -21 10 -34 24 -37 40 -158 119 -255 168
-103 51 -215 89 -336 112 -101 19 -310 21 -415 4 -89 -14 -89 -13 -39 -136
139 -346 422 -607 789 -728 66 -22 91 -34 72 -34 -63 -2 -289 -55 -434 -103
-359 -118 -682 -319 -954 -595 -134 -136 -200 -216 -301 -368 -142 -215 -257
-474 -322 -729 -56 -219 -69 -332 -70 -596 0 -264 12 -371 70 -596 154 -600
540 -1124 1072 -1454 l89 -56 -213 -508 c-117 -280 -212 -510 -210 -512 15
-14 562 -233 567 -227 5 4 103 236 220 514 l212 506 76 -18 c161 -39 300 -53
517 -53 221 0 325 10 511 49 915 195 1643 919 1848 1836 80 356 73 752 -19
1115 -228 895 -953 1585 -1861 1769 -67 14 -135 25 -152 25 -55 0 -43 17 24
35 96 26 287 125 385 199 277 209 453 524 488 873 6 53 9 99 7 100 -2 2 -30 8
-62 13 -84 14 -295 10 -389 -7z m1012 -3715 c-23 -426 -210 -841 -517 -1148
-487 -488 -1199 -655 -1849 -434 -573 195 -1009 670 -1161 1265 -27 105 -50
267 -50 357 l0 72 1791 0 1792 0 -6 -112z"/>
</g>
</svg>
