<svg xmlns="http://www.w3.org/2000/svg" width="90" height="90" viewBox="0 0 90 90"><path d="M7.617 44.778v37.069h.268a38.958 7.201 0 0 0-.032.118 38.958 7.201 0 0 0 38.958 7.2 38.958 7.201 0 0 0 38.957-7.2 38.958 7.201 0 0 0-.023-.118h.259V44.778H7.617z" fill="#fff" fill-rule="evenodd" stroke="#010000" stroke-width="1.668" stroke-linecap="round" stroke-linejoin="round"/><text style="line-height:89.99999762%;-inkscape-font-specification:'Arial, Normal';text-align:center" x="47.719" y="78.337" font-weight="400" font-size="28.404" font-family="Arial" letter-spacing="0" word-spacing="0" text-anchor="middle" stroke="#010000" stroke-width=".334"><tspan x="47.719" y="78.337" style="line-height:89.99999762%;-inkscape-font-specification:'Arial, Normal';text-align:center">12 M</tspan></text><ellipse cx="46.81" cy="43.834" ry="5.548" rx="38.958" fill="#fff" fill-rule="evenodd" stroke="#010000" stroke-width="1.668" stroke-linecap="round" stroke-linejoin="round"/><g transform="rotate(-20.129 26.53 55.218) scale(.33366)" stroke="#010000" fill="#fff" fill-rule="evenodd" stroke-width="5" stroke-linecap="round" stroke-linejoin="round"><path d="M34.38 72.885v27.597h.294a132.68 9.2 0 0 0 132.68 9.2 132.68 9.2 0 0 0 132.68-9.2h.292V72.885H34.381z"/><ellipse ry="9.199" rx="132.68" cy="73.593" cx="167.354"/></g></svg>