<svg width="145" height="214" viewBox="0 0 145 214" fill="none" xmlns="http://www.w3.org/2000/svg">
<path d="M119.25 1.25H25.75C12.4952 1.25 1.75 11.9952 1.75 25.25V188.75C1.75 202.005 12.4952 212.75 25.75 212.75H119.25C132.505 212.75 143.25 202.005 143.25 188.75V25.25C143.25 11.9952 132.505 1.25 119.25 1.25Z" stroke="#1D1D1B" stroke-width="2.5"/>
<path d="M53.3697 145.001H25.2599C26.1476 151.511 31.721 154.803 37.2148 154.803C45.2923 154.803 49.331 150.882 49.331 150.882V158.723C49.331 158.723 45.2923 162.644 37.2148 162.644C25.0987 162.644 17.0213 154.803 17.0213 143.038C17.0213 131.275 25.0987 123.432 35.1966 123.432C45.2945 123.432 53.3719 131.273 53.3719 143.038V145.001H53.3697ZM25.5006 139.119H44.886C43.7554 133.865 40.1208 131.278 35.1922 131.278C30.2636 131.278 26.6312 133.865 25.5006 139.119Z" fill="#1D1D1B"/>
<path d="M85.7876 125.395V133.236C85.7876 133.236 79.905 131.275 75.9856 131.275C70.1031 131.275 64.2227 135.197 64.2227 143.038C64.2227 150.879 70.1053 154.801 75.9856 154.801C79.9072 154.801 85.7876 152.84 85.7876 152.84V160.683C85.7876 160.683 81.8659 162.644 75.9856 162.644C64.2227 162.644 56.3794 154.803 56.3794 143.038C56.3794 131.275 64.2227 123.432 75.9856 123.432C81.8659 123.434 85.7876 125.395 85.7876 125.395Z" fill="#1D1D1B"/>
<path d="M127.979 143.04C127.979 154.803 120.135 162.647 108.373 162.647C96.6097 162.647 88.7664 154.805 88.7664 143.04C88.7664 131.278 96.6097 123.434 108.373 123.434C120.138 123.434 127.979 131.278 127.979 143.04ZM96.6097 143.04C96.6097 150.881 102.492 154.803 108.373 154.803C114.255 154.803 120.135 150.881 120.135 143.04C120.135 135.197 114.253 131.278 108.373 131.278C102.492 131.278 96.6097 135.197 96.6097 143.04Z" fill="#1D1D1B"/>
<path d="M25.6441 197.447C21.6518 197.447 17.6595 196.116 17.6595 196.116V190.794C17.6595 190.794 21.6518 192.125 25.6441 192.125C28.305 192.125 29.6365 190.794 29.6365 189.465C29.6365 185.472 17.0345 188.133 17.0345 178.819C17.0345 173.498 20.3225 170.834 25.6463 170.834C29.6387 170.834 33.631 172.166 33.631 172.166V177.488C33.631 177.488 29.6387 176.156 25.6463 176.156C22.9855 176.156 21.654 177.488 21.654 178.817C21.654 182.809 34.9603 180.148 34.9603 189.462C34.9581 194.786 30.968 197.447 25.6441 197.447Z" fill="#1D1D1B"/>
<path d="M56.5162 172.166V177.488C56.5162 177.488 52.5239 176.156 49.8631 176.156C45.8707 176.156 41.8784 178.817 41.8784 184.141C41.8784 189.462 45.8707 192.125 49.8631 192.125C52.5239 192.125 56.5162 190.794 56.5162 190.794V196.116C56.5162 196.116 53.8554 197.447 49.8631 197.447C41.8784 197.447 36.5568 192.125 36.5568 184.141C36.5568 176.156 41.8784 170.834 49.8631 170.834C53.8532 170.834 56.5162 172.166 56.5162 172.166Z" fill="#1D1D1B"/>
<path d="M85.3106 184.141C85.3106 192.125 79.989 197.447 72.0043 197.447C64.0196 197.447 58.698 192.125 58.698 184.141C58.698 176.156 64.0196 170.834 72.0043 170.834C79.989 170.834 85.3106 176.156 85.3106 184.141ZM64.0196 184.141C64.0196 189.462 68.012 192.125 72.0043 192.125C75.9967 192.125 79.989 189.465 79.989 184.141C79.989 178.819 75.9967 176.156 72.0043 176.156C68.012 176.156 64.0196 178.819 64.0196 184.141Z" fill="#1D1D1B"/>
<path d="M103.568 170.834V176.156C98.246 176.156 92.9221 177.488 92.9221 184.141V197.447H87.6005V170.834H92.9221V181.48C92.9221 174.827 96.9144 170.834 103.568 170.834Z" fill="#1D1D1B"/>
<path d="M127.784 185.472H109.262C109.848 189.891 113.52 192.125 117.139 192.125C122.46 192.125 125.124 189.465 125.124 189.465V194.786C125.124 194.786 122.463 197.447 117.139 197.447C109.154 197.447 103.833 192.125 103.833 184.141C103.833 176.156 109.154 170.834 115.807 170.834C122.46 170.834 127.782 176.156 127.782 184.141V185.472H127.784ZM109.421 181.48H122.196C121.449 177.914 119.056 176.158 115.81 176.158C112.564 176.158 110.168 177.914 109.421 181.48Z" fill="#1D1D1B"/>
<path d="M117.09 16.5619C118.8 16.4186 120.386 18.0023 120.24 19.7123C120.029 22.1485 116.998 77.5071 99.2806 95.224C82.2997 112.202 62.2948 108.219 49.2294 98.8262C49.0715 98.712 48.8942 98.576 48.6998 98.4205L36.9242 110.182C34.0775 113.026 29.4649 113.026 26.6205 110.182C23.7738 107.335 23.7738 102.722 26.6205 99.8779L38.384 88.1023C38.2261 87.9055 38.0901 87.7282 37.976 87.5703C28.5856 74.5073 24.5996 54.5 41.5781 37.519C59.2901 19.8022 114.651 16.7684 117.09 16.5619Z" fill="#1D1D1B"/>
<path d="M84.5382 85.5368C86.9456 85.5368 88.5118 84.1736 88.5118 81.9113C88.5118 79.649 86.9166 78.2858 84.5382 78.2858H69.0211V67.7284H83.7841C85.9884 67.7284 87.4386 66.4522 87.4386 64.364C87.4386 62.2757 85.9594 60.9995 83.7841 60.9995H69.0211V50.9352H84.5382C86.9166 50.9352 88.5118 49.572 88.5118 47.3097C88.5118 45.0474 86.9456 43.6842 84.5382 43.6842H64.6416C61.8862 43.6842 60.262 45.3664 60.262 48.2378V80.9542C60.262 83.8546 61.8862 85.5368 64.6416 85.5368H84.5382Z" fill="white"/>
</svg>
