<svg width="145" height="236" viewBox="0 0 145 236" fill="none" xmlns="http://www.w3.org/2000/svg">
<path d="M25.1054 2.40881C12.9076 2.40881 2.98633 11.9436 2.98633 23.6601V212.344C2.98633 224.061 12.9098 233.593 25.1054 233.593H119.899C132.097 233.593 142.018 224.061 142.018 212.344V23.6579C142.018 11.9414 132.095 2.40881 119.899 2.40881H25.1054Z" fill="white"/>
<path d="M119.897 235.919H25.1032C11.5716 235.919 0.561768 225.342 0.561768 212.342V23.6579C0.561768 10.6585 11.5716 0.0814209 25.1032 0.0814209H119.897C133.428 0.0814209 144.438 10.6585 144.438 23.6579V212.342C144.438 225.344 133.431 235.919 119.897 235.919ZM25.1054 2.40881C12.9075 2.40881 2.98632 11.9436 2.98632 23.6601V212.344C2.98632 224.061 12.9097 233.593 25.1054 233.593H119.899C132.097 233.593 142.018 224.061 142.018 212.344V23.6579C142.018 11.9414 132.095 2.40881 119.899 2.40881H25.1054Z" fill="#EF7E1A"/>
<path d="M53.5022 144.724H25.3924C26.2801 151.234 31.8535 154.526 37.3474 154.526C45.4248 154.526 49.4635 150.604 49.4635 150.604V158.446C49.4635 158.446 45.4248 162.367 37.3474 162.367C25.2312 162.367 17.1538 154.526 17.1538 142.761C17.1538 130.998 25.2312 123.155 35.3291 123.155C45.427 123.155 53.5044 130.996 53.5044 142.761V144.724H53.5022ZM25.6353 138.842H45.0207C43.8901 133.588 40.2555 131.001 35.3269 131.001C30.3983 131.001 26.7659 133.588 25.6353 138.842Z" fill="#1D1D1B"/>
<path d="M85.9223 125.118V132.959C85.9223 132.959 80.0397 130.998 76.1203 130.998C70.2378 130.998 64.3575 134.92 64.3575 142.761C64.3575 150.602 70.24 154.524 76.1203 154.524C80.042 154.524 85.9223 152.563 85.9223 152.563V160.406C85.9223 160.406 82.0006 162.367 76.1203 162.367C64.3575 162.367 56.5141 154.526 56.5141 142.761C56.5141 130.998 64.3575 123.155 76.1203 123.155C82.0006 123.157 85.9223 125.118 85.9223 125.118Z" fill="#1D1D1B"/>
<path d="M128.113 142.763C128.113 154.526 120.27 162.37 108.507 162.37C96.7444 162.37 88.9011 154.528 88.9011 142.763C88.9011 131.001 96.7444 123.157 108.507 123.157C120.27 123.157 128.113 131.001 128.113 142.763ZM96.7444 142.763C96.7444 150.604 102.627 154.526 108.507 154.526C114.39 154.526 120.27 150.604 120.27 142.763C120.27 134.92 114.388 131.001 108.507 131.001C102.625 131.001 96.7444 134.92 96.7444 142.763Z" fill="#1D1D1B"/>
<path d="M25.7788 220.17C21.7865 220.17 17.7942 218.839 17.7942 218.839V213.517C17.7942 213.517 21.7865 214.848 25.7788 214.848C28.4397 214.848 29.7712 213.517 29.7712 212.188C29.7712 208.195 17.1693 210.856 17.1693 201.542C17.1693 196.22 20.4572 193.557 25.781 193.557C29.7734 193.557 33.7657 194.889 33.7657 194.889V200.211C33.7657 200.211 29.7734 198.879 25.781 198.879C23.1202 198.879 21.7887 200.211 21.7887 201.54C21.7887 205.532 35.095 202.871 35.095 212.185C35.0928 217.509 31.1005 220.17 25.7788 220.17Z" fill="#1D1D1B"/>
<path d="M56.6488 194.889V200.211C56.6488 200.211 52.6565 198.879 49.9957 198.879C46.0033 198.879 42.011 201.54 42.011 206.864C42.011 212.185 46.0033 214.848 49.9957 214.848C52.6565 214.848 56.6488 213.517 56.6488 213.517V218.839C56.6488 218.839 53.988 220.17 49.9957 220.17C42.011 220.17 36.6893 214.848 36.6893 206.864C36.6893 198.879 42.011 193.557 49.9957 193.557C53.988 193.557 56.6488 194.889 56.6488 194.889Z" fill="#1D1D1B"/>
<path d="M85.4431 206.864C85.4431 214.848 80.1214 220.17 72.1368 220.17C64.1521 220.17 58.8304 214.848 58.8304 206.864C58.8304 198.879 64.1521 193.557 72.1368 193.557C80.1214 193.557 85.4431 198.879 85.4431 206.864ZM64.1543 206.864C64.1543 212.185 68.1466 214.848 72.139 214.848C76.1313 214.848 80.1236 212.188 80.1236 206.864C80.1236 201.542 76.1313 198.879 72.139 198.879C68.1466 198.879 64.1543 201.542 64.1543 206.864Z" fill="#1D1D1B"/>
<path d="M103.7 193.557V198.879C98.3785 198.879 93.0546 200.211 93.0546 206.864V220.17H87.733V193.557H93.0546V204.203C93.0546 197.55 97.047 193.557 103.7 193.557Z" fill="#1D1D1B"/>
<path d="M127.919 208.195H109.397C109.982 212.614 113.654 214.848 117.274 214.848C122.595 214.848 125.258 212.188 125.258 212.188V217.509C125.258 217.509 122.597 220.17 117.274 220.17C109.289 220.17 103.967 214.848 103.967 206.864C103.967 198.879 109.289 193.557 115.942 193.557C122.595 193.557 127.917 198.879 127.917 206.864V208.195H127.919ZM109.556 204.203H122.33C121.584 200.637 119.19 198.881 115.944 198.881C112.696 198.879 110.3 200.637 109.556 204.203Z" fill="#1D1D1B"/>
<path d="M131.421 177.685C131.421 173.059 127.67 169.308 123.043 169.308H98.8973C94.2712 169.308 90.5196 173.059 90.5196 177.685C90.5196 182.311 94.2712 186.063 98.8973 186.063H123.043C127.672 186.061 131.421 182.311 131.421 177.685Z" fill="#D93726"/>
<path d="M132.477 177.685C132.477 182.885 128.246 187.116 123.046 187.116H98.8995C93.6993 187.116 89.4685 182.885 89.4685 177.685C89.4685 172.485 93.6993 168.254 98.8995 168.254H123.046C128.246 168.254 132.477 172.485 132.477 177.685ZM123.046 185.007C127.084 185.007 130.368 181.722 130.368 177.685C130.368 173.647 127.082 170.363 123.046 170.363H98.8995C94.8608 170.363 91.5773 173.649 91.5773 177.685C91.5773 181.724 94.863 185.007 98.8995 185.007H123.046Z" fill="white"/>
<path d="M109.269 177.685C109.269 173.059 105.517 169.308 100.891 169.308H77.7145C73.0884 169.308 69.3368 173.059 69.3368 177.685C69.3368 182.311 73.0884 186.063 77.7145 186.063H100.891C105.52 186.061 109.269 182.311 109.269 177.685Z" fill="#EF7E1A"/>
<path d="M110.325 177.685C110.325 182.885 106.094 187.116 100.894 187.116H77.7609C72.5607 187.116 68.3299 182.885 68.3299 177.685C68.3299 172.485 72.5607 168.254 77.7609 168.254H100.894C106.094 168.254 110.325 172.485 110.325 177.685ZM100.894 185.007C104.932 185.007 108.216 181.722 108.216 177.685C108.216 173.647 104.93 170.363 100.894 170.363H77.7609C73.7222 170.363 70.4387 173.649 70.4387 177.685C70.4387 181.724 73.7244 185.007 77.7609 185.007H100.894Z" fill="white"/>
<path d="M88.4131 177.685C88.4131 173.059 84.6614 169.308 80.0353 169.308H56.6223C51.9962 169.308 48.2446 173.059 48.2446 177.685C48.2446 182.311 51.9962 186.063 56.6223 186.063H80.0353C84.6636 186.061 88.4131 182.311 88.4131 177.685Z" fill="#F5C100"/>
<path d="M89.4685 177.685C89.4685 182.885 85.2377 187.116 80.0375 187.116H56.6245C51.4243 187.116 47.1935 182.885 47.1935 177.685C47.1935 172.485 51.4243 168.254 56.6245 168.254H80.0375C85.2377 168.254 89.4685 172.485 89.4685 177.685ZM80.0375 185.007C84.0762 185.007 87.3598 181.722 87.3598 177.685C87.3598 173.647 84.074 170.363 80.0375 170.363H56.6245C52.5858 170.363 49.3023 173.649 49.3023 177.685C49.3023 181.724 52.588 185.007 56.6245 185.007H80.0375Z" fill="white"/>
<path d="M67.2766 177.685C67.2766 173.059 63.525 169.308 58.8989 169.308H35.4859C30.8598 169.308 27.1082 173.059 27.1082 177.685C27.1082 182.311 30.8598 186.063 35.4859 186.063H58.8989C63.525 186.061 67.2766 182.311 67.2766 177.685Z" fill="#2ECC71"/>
<path d="M68.3299 177.685C68.3299 182.885 64.0991 187.116 58.8989 187.116H35.4859C30.2857 187.116 26.0549 182.885 26.0549 177.685C26.0549 172.485 30.2857 168.254 35.4859 168.254H58.8989C64.0991 168.254 68.3299 172.485 68.3299 177.685ZM58.8989 185.007C62.9376 185.007 66.2211 181.722 66.2211 177.685C66.2211 173.649 62.9354 170.363 58.8989 170.363H35.4859C31.4472 170.363 28.1637 173.649 28.1637 177.685C28.1637 181.722 31.4494 185.007 35.4859 185.007H58.8989Z" fill="white"/>
<path d="M46.1711 177.685C46.1711 173.059 42.4195 169.308 37.7934 169.308H21.9587C17.3326 169.308 13.581 173.059 13.581 177.685C13.581 182.311 17.3326 186.063 21.9587 186.063H37.7934C42.4195 186.061 46.1711 182.311 46.1711 177.685Z" fill="#1E8F4E"/>
<path d="M47.2244 177.685C47.2244 182.885 42.9936 187.116 37.7934 187.116H21.9587C16.7585 187.116 12.5277 182.885 12.5277 177.685C12.5277 172.485 16.7585 168.254 21.9587 168.254H37.7934C42.9936 168.254 47.2244 172.485 47.2244 177.685ZM37.7934 185.007C41.8321 185.007 45.1156 181.722 45.1156 177.685C45.1156 173.649 41.8299 170.363 37.7934 170.363H21.9587C17.92 170.363 14.6365 173.649 14.6365 177.685C14.6365 181.722 17.9222 185.007 21.9587 185.007H37.7934Z" fill="white"/>
<path d="M117.222 16.2849C118.932 16.1416 120.518 17.7253 120.373 19.4353C120.161 21.8715 117.13 77.2301 99.4131 94.947C82.4347 111.925 62.4273 107.942 49.3619 98.5491C49.204 98.435 49.0267 98.299 48.8323 98.1435L37.0567 109.905C34.21 112.749 29.5974 112.749 26.753 109.905C23.9063 107.058 23.9063 102.445 26.753 99.6009L38.5165 87.8252C38.3586 87.6285 38.2226 87.4512 38.1085 87.2933C28.7181 74.2303 24.7321 54.2229 41.7106 37.242C59.4251 19.5251 114.784 16.4914 117.222 16.2849Z" fill="#EF7E1A"/>
<path d="M73.4065 83.5368C85.9652 83.5368 93.3612 75.7348 93.3612 62.451C93.3612 49.1672 85.9652 41.6842 73.4065 41.6842H61.8049C59.0496 41.6842 57.4254 43.3664 57.4254 46.2378V78.9542C57.4254 81.8546 59.0496 83.5368 61.8049 83.5368H73.4065ZM72.3624 76.2859H66.1845V48.9062H72.3624C80.0774 48.9062 84.428 53.7208 84.428 62.48C84.428 71.5292 80.1934 76.2859 72.3624 76.2859Z" fill="white"/>
</svg>
