<svg width="145" height="236" viewBox="0 0 145 236" fill="none" xmlns="http://www.w3.org/2000/svg">
<path d="M25.9205 2.40881C13.2722 2.40881 2.98456 11.9436 2.98456 23.6601V212.344C2.98456 224.061 13.2745 233.593 25.9205 233.593H119.089C131.737 233.593 142.025 224.061 142.025 212.344V23.6579C142.025 11.9414 131.735 2.40881 119.089 2.40881H25.9205Z" fill="white"/>
<path d="M119.025 235.919H25.9753C11.9619 235.919 0.559998 225.342 0.559998 212.342V23.6579C0.559998 10.6585 11.9619 0.0814209 25.9753 0.0814209H119.025C133.038 0.0814209 144.44 10.6585 144.44 23.6579V212.342C144.44 225.344 133.038 235.919 119.025 235.919ZM25.9776 2.40881C13.3454 2.40881 3.07089 11.9436 3.07089 23.6601V212.344C3.07089 224.061 13.3477 233.593 25.9776 233.593H119.027C131.659 233.593 141.934 224.061 141.934 212.344V23.6579C141.934 11.9414 131.657 2.40881 119.027 2.40881H25.9776Z" fill="#1D1D1B"/>
<path d="M53.5 144.724H25.3902C26.2779 151.234 31.8513 154.526 37.3452 154.526C45.4226 154.526 49.4613 150.604 49.4613 150.604V158.446C49.4613 158.446 45.4226 162.367 37.3452 162.367C25.229 162.367 17.1516 154.526 17.1516 142.761C17.1516 130.998 25.229 123.155 35.3269 123.155C45.4248 123.155 53.5022 130.996 53.5022 142.761V144.724H53.5ZM25.6331 138.842H45.0185C43.8879 133.588 40.2533 131.001 35.3247 131.001C30.3961 131.001 26.7637 133.588 25.6331 138.842Z" fill="#1D1D1B"/>
<path d="M85.9201 125.118V132.959C85.9201 132.959 80.0375 130.998 76.1181 130.998C70.2356 130.998 64.3553 134.92 64.3553 142.761C64.3553 150.602 70.2378 154.524 76.1181 154.524C80.0398 154.524 85.9201 152.563 85.9201 152.563V160.406C85.9201 160.406 81.9984 162.367 76.1181 162.367C64.3553 162.367 56.5119 154.526 56.5119 142.761C56.5119 130.998 64.3553 123.155 76.1181 123.155C81.9984 123.157 85.9201 125.118 85.9201 125.118Z" fill="#1D1D1B"/>
<path d="M128.111 142.763C128.111 154.526 120.268 162.37 108.505 162.37C96.7422 162.37 88.8989 154.528 88.8989 142.763C88.8989 131.001 96.7422 123.157 108.505 123.157C120.268 123.157 128.111 131.001 128.111 142.763ZM96.7422 142.763C96.7422 150.604 102.625 154.526 108.505 154.526C114.388 154.526 120.268 150.604 120.268 142.763C120.268 134.92 114.385 131.001 108.505 131.001C102.623 131.001 96.7422 134.92 96.7422 142.763Z" fill="#1D1D1B"/>
<path d="M25.7766 220.17C21.7843 220.17 17.792 218.839 17.792 218.839V213.517C17.792 213.517 21.7843 214.848 25.7766 214.848C28.4375 214.848 29.769 213.517 29.769 212.188C29.769 208.195 17.1671 210.856 17.1671 201.542C17.1671 196.22 20.455 193.557 25.7788 193.557C29.7712 193.557 33.7635 194.889 33.7635 194.889V200.211C33.7635 200.211 29.7712 198.879 25.7788 198.879C23.118 198.879 21.7865 200.211 21.7865 201.54C21.7865 205.532 35.0928 202.871 35.0928 212.185C35.0906 217.509 31.0983 220.17 25.7766 220.17Z" fill="#1D1D1B"/>
<path d="M56.6466 194.889V200.211C56.6466 200.211 52.6543 198.879 49.9935 198.879C46.0011 198.879 42.0088 201.54 42.0088 206.864C42.0088 212.185 46.0011 214.848 49.9935 214.848C52.6543 214.848 56.6466 213.517 56.6466 213.517V218.839C56.6466 218.839 53.9858 220.17 49.9935 220.17C42.0088 220.17 36.6871 214.848 36.6871 206.864C36.6871 198.879 42.0088 193.557 49.9935 193.557C53.9858 193.557 56.6466 194.889 56.6466 194.889Z" fill="#1D1D1B"/>
<path d="M85.4409 206.864C85.4409 214.848 80.1192 220.17 72.1346 220.17C64.1499 220.17 58.8282 214.848 58.8282 206.864C58.8282 198.879 64.1499 193.557 72.1346 193.557C80.1192 193.557 85.4409 198.879 85.4409 206.864ZM64.1521 206.864C64.1521 212.185 68.1444 214.848 72.1368 214.848C76.1291 214.848 80.1215 212.188 80.1215 206.864C80.1215 201.542 76.1291 198.879 72.1368 198.879C68.1444 198.879 64.1521 201.542 64.1521 206.864Z" fill="#1D1D1B"/>
<path d="M103.698 193.557V198.879C98.3763 198.879 93.0524 200.211 93.0524 206.864V220.17H87.7308V193.557H93.0524V204.203C93.0524 197.55 97.0448 193.557 103.698 193.557Z" fill="#1D1D1B"/>
<path d="M127.917 208.195H109.395C109.98 212.614 113.652 214.848 117.271 214.848C122.593 214.848 125.256 212.188 125.256 212.188V217.509C125.256 217.509 122.595 220.17 117.271 220.17C109.287 220.17 103.965 214.848 103.965 206.864C103.965 198.879 109.287 193.557 115.94 193.557C122.593 193.557 127.915 198.879 127.915 206.864V208.195H127.917ZM109.554 204.203H122.328C121.584 200.637 119.188 198.881 115.942 198.881C112.694 198.879 110.298 200.637 109.554 204.203Z" fill="#1D1D1B"/>
<path d="M131.419 177.685C131.419 173.059 127.667 169.308 123.041 169.308H98.8951C94.269 169.308 90.5174 173.059 90.5174 177.685C90.5174 182.311 94.269 186.063 98.8951 186.063H123.041C127.67 186.061 131.419 182.311 131.419 177.685Z" fill="#1D1D1B"/>
<path d="M132.474 177.685C132.474 182.885 128.244 187.116 123.043 187.116H98.8973C93.6971 187.116 89.4663 182.885 89.4663 177.685C89.4663 172.485 93.6971 168.254 98.8973 168.254H123.043C128.244 168.254 132.474 172.485 132.474 177.685ZM123.043 185.007C127.082 185.007 130.366 181.722 130.366 177.685C130.366 173.647 127.08 170.363 123.043 170.363H98.8973C94.8586 170.363 91.5751 173.649 91.5751 177.685C91.5751 181.722 94.8608 185.007 98.8973 185.007H123.043Z" fill="white"/>
<path d="M109.267 177.685C109.267 173.059 105.515 169.308 100.889 169.308H77.7123C73.0862 169.308 69.3346 173.059 69.3346 177.685C69.3346 182.311 73.0862 186.063 77.7123 186.063H100.889C105.517 186.061 109.267 182.311 109.267 177.685Z" fill="#1D1D1B"/>
<path d="M110.322 177.685C110.322 182.885 106.092 187.116 100.891 187.116H77.7587C72.5585 187.116 68.3277 182.885 68.3277 177.685C68.3277 172.485 72.5585 168.254 77.7587 168.254H100.891C106.092 168.254 110.322 172.485 110.322 177.685ZM100.891 185.007C104.93 185.007 108.214 181.722 108.214 177.685C108.214 173.647 104.928 170.363 100.891 170.363H77.7587C73.72 170.363 70.4365 173.649 70.4365 177.685C70.4365 181.724 73.7222 185.007 77.7587 185.007H100.891Z" fill="white"/>
<path d="M88.4109 177.685C88.4109 173.059 84.6592 169.308 80.0331 169.308H56.6201C51.994 169.308 48.2424 173.059 48.2424 177.685C48.2424 182.311 51.994 186.063 56.6201 186.063H80.0331C84.6614 186.061 88.4109 182.311 88.4109 177.685Z" fill="#1D1D1B"/>
<path d="M89.4663 177.685C89.4663 182.885 85.2355 187.116 80.0353 187.116H56.6223C51.4221 187.116 47.1913 182.885 47.1913 177.685C47.1913 172.485 51.4221 168.254 56.6223 168.254H80.0353C85.2355 168.254 89.4663 172.485 89.4663 177.685ZM80.0353 185.007C84.074 185.007 87.3576 181.722 87.3576 177.685C87.3576 173.647 84.0718 170.363 80.0353 170.363H56.6223C52.5836 170.363 49.3001 173.649 49.3001 177.685C49.3001 181.724 52.5858 185.007 56.6223 185.007H80.0353Z" fill="white"/>
<path d="M67.2744 177.685C67.2744 173.059 63.5228 169.308 58.8967 169.308H35.4837C30.8576 169.308 27.106 173.059 27.106 177.685C27.106 182.311 30.8576 186.063 35.4837 186.063H58.8967C63.5228 186.061 67.2744 182.311 67.2744 177.685Z" fill="#1D1D1B"/>
<path d="M68.3277 177.685C68.3277 182.885 64.0969 187.116 58.8967 187.116H35.4837C30.2835 187.116 26.0527 182.885 26.0527 177.685C26.0527 172.485 30.2835 168.254 35.4837 168.254H58.8967C64.0969 168.254 68.3277 172.485 68.3277 177.685ZM58.8967 185.007C62.9354 185.007 66.2189 181.722 66.2189 177.685C66.2189 173.649 62.9332 170.363 58.8967 170.363H35.4837C31.445 170.363 28.1615 173.649 28.1615 177.685C28.1615 181.724 31.4472 185.007 35.4837 185.007H58.8967Z" fill="white"/>
<path d="M46.1689 177.685C46.1689 173.059 42.4173 169.308 37.7912 169.308H21.9565C17.3304 169.308 13.5788 173.059 13.5788 177.685C13.5788 182.311 17.3304 186.063 21.9565 186.063H37.7912C42.4173 186.061 46.1689 182.311 46.1689 177.685Z" fill="#1D1D1B"/>
<path d="M47.2222 177.685C47.2222 182.885 42.9914 187.116 37.7912 187.116H21.9565C16.7563 187.116 12.5255 182.885 12.5255 177.685C12.5255 172.485 16.7563 168.254 21.9565 168.254H37.7912C42.9914 168.254 47.2222 172.485 47.2222 177.685ZM37.7912 185.007C41.8299 185.007 45.1134 181.722 45.1134 177.685C45.1134 173.649 41.8277 170.363 37.7912 170.363H21.9565C17.9178 170.363 14.6343 173.649 14.6343 177.685C14.6343 181.724 17.92 185.007 21.9565 185.007H37.7912Z" fill="white"/>
<path d="M117.224 16.2849C118.934 16.1416 120.52 17.7253 120.374 19.4353C120.163 21.8715 117.131 77.2301 99.4144 94.947C82.4359 111.925 62.4285 107.942 49.3631 98.5491C49.2052 98.435 49.0279 98.299 48.8336 98.1435L37.0555 109.905C34.2087 112.749 29.5961 112.749 26.7518 109.905C23.9051 107.058 23.9051 102.445 26.7518 99.6009L38.5153 87.8252C38.3574 87.6285 38.2214 87.4512 38.1072 87.2933C28.7169 74.2303 24.7309 54.2229 41.7094 37.242C59.4263 19.5251 114.785 16.4914 117.224 16.2849Z" fill="#1D1D1B"/>
<path d="M67.93 68.82C67.93 66.6733 68.3733 64.8067 69.26 63.22C70.1467 61.6333 71.7567 59.8133 74.09 57.76C75.7233 56.2667 76.89 55.0067 77.59 53.98C78.3367 52.9533 78.71 51.7167 78.71 50.27C78.71 48.45 78.08 46.9567 76.82 45.79C75.6067 44.6233 73.9267 44.04 71.78 44.04C69.7267 44.04 68.07 44.67 66.81 45.93C65.55 47.1433 64.64 48.6133 64.08 50.34L57.08 47.4C58.0133 44.6 59.7167 42.1267 62.19 39.98C64.71 37.8333 67.8833 36.76 71.71 36.76C74.5567 36.76 77.1 37.3433 79.34 38.51C81.58 39.63 83.3067 41.2167 84.52 43.27C85.78 45.2767 86.41 47.54 86.41 50.06C86.41 52.5333 85.8033 54.6567 84.59 56.43C83.4233 58.1567 81.86 59.9533 79.9 61.82C78.36 63.22 77.2633 64.5033 76.61 65.67C76.0033 66.8367 75.7 68.1667 75.7 69.66V71.69H67.93V68.82ZM71.78 88.42C70.2867 88.42 69.0033 87.9067 67.93 86.88C66.9033 85.8067 66.39 84.5233 66.39 83.03C66.39 81.5367 66.9033 80.2767 67.93 79.25C69.0033 78.2233 70.2867 77.71 71.78 77.71C73.2733 77.71 74.5333 78.2233 75.56 79.25C76.5867 80.2767 77.1 81.5367 77.1 83.03C77.1 84.5233 76.5867 85.8067 75.56 86.88C74.5333 87.9067 73.2733 88.42 71.78 88.42Z" fill="white"/>
</svg>
