<svg width="145" height="236" viewBox="0 0 145 236" fill="none" xmlns="http://www.w3.org/2000/svg">
<path d="M25.1031 2.40881C12.9053 2.40881 2.98407 11.9436 2.98407 23.6601V212.344C2.98407 224.061 12.9075 233.593 25.1031 233.593H119.897C132.095 233.593 142.016 224.061 142.016 212.344V23.6579C142.016 11.9414 132.092 2.40881 119.897 2.40881H25.1031Z" fill="white"/>
<path d="M119.897 235.919H25.1031C11.5716 235.919 0.561737 225.342 0.561737 212.342V23.6579C0.561737 10.6585 11.5716 0.0814209 25.1031 0.0814209H119.897C133.428 0.0814209 144.438 10.6585 144.438 23.6579V212.342C144.438 225.344 133.428 235.919 119.897 235.919ZM25.1031 2.40881C12.9053 2.40881 2.98408 11.9436 2.98408 23.6601V212.344C2.98408 224.061 12.9075 233.593 25.1031 233.593H119.897C132.095 233.593 142.016 224.061 142.016 212.344V23.6579C142.016 11.9414 132.092 2.40881 119.897 2.40881H25.1031Z" fill="#F5C100"/>
<path d="M53.5 144.724H25.3902C26.2779 151.234 31.8512 154.526 37.3451 154.526C45.4225 154.526 49.4613 150.604 49.4613 150.604V158.446C49.4613 158.446 45.4225 162.367 37.3451 162.367C25.229 162.367 17.1516 154.526 17.1516 142.761C17.1516 130.998 25.229 123.155 35.3269 123.155C45.4248 123.155 53.5022 130.996 53.5022 142.761V144.724H53.5ZM25.6331 138.842H45.0184C43.8879 133.588 40.2533 131.001 35.3247 131.001C30.3983 131.001 26.7637 133.588 25.6331 138.842Z" fill="#1D1D1B"/>
<path d="M85.92 125.118V132.959C85.92 132.959 80.0375 130.998 76.118 130.998C70.2355 130.998 64.3552 134.92 64.3552 142.761C64.3552 150.602 70.2377 154.524 76.118 154.524C80.0397 154.524 85.92 152.563 85.92 152.563V160.406C85.92 160.406 81.9984 162.367 76.118 162.367C64.3552 162.367 56.5119 154.526 56.5119 142.761C56.5119 130.998 64.3552 123.155 76.118 123.155C81.9984 123.157 85.92 125.118 85.92 125.118Z" fill="#1D1D1B"/>
<path d="M128.111 142.763C128.111 154.526 120.268 162.37 108.505 162.37C96.7422 162.37 88.8988 154.528 88.8988 142.763C88.8988 131.001 96.7422 123.157 108.505 123.157C120.268 123.157 128.111 131.001 128.111 142.763ZM96.7422 142.763C96.7422 150.604 102.625 154.526 108.505 154.526C114.387 154.526 120.268 150.604 120.268 142.763C120.268 134.92 114.385 131.001 108.505 131.001C102.625 131.001 96.7422 134.92 96.7422 142.763Z" fill="#1D1D1B"/>
<path d="M25.7766 220.17C21.7843 220.17 17.7919 218.839 17.7919 218.839V213.517C17.7919 213.517 21.7843 214.848 25.7766 214.848C28.4374 214.848 29.7689 213.517 29.7689 212.188C29.7689 208.195 17.167 210.856 17.167 201.542C17.167 196.22 20.455 193.557 25.7788 193.557C29.7712 193.557 33.7635 194.889 33.7635 194.889V200.211C33.7635 200.211 29.7712 198.879 25.7788 198.879C23.118 198.879 21.7865 200.211 21.7865 201.54C21.7865 205.532 35.0928 202.871 35.0928 212.185C35.0906 217.509 31.0982 220.17 25.7766 220.17Z" fill="#1D1D1B"/>
<path d="M56.6466 194.889V200.211C56.6466 200.211 52.6542 198.879 49.9934 198.879C46.0011 198.879 42.0087 201.54 42.0087 206.864C42.0087 212.185 46.0011 214.848 49.9934 214.848C52.6542 214.848 56.6466 213.517 56.6466 213.517V218.839C56.6466 218.839 53.9858 220.17 49.9934 220.17C42.0087 220.17 36.6871 214.848 36.6871 206.864C36.6871 198.879 42.0087 193.557 49.9934 193.557C53.9858 193.557 56.6466 194.889 56.6466 194.889Z" fill="#1D1D1B"/>
<path d="M85.4431 206.864C85.4431 214.848 80.1214 220.17 72.1368 220.17C64.1521 220.17 58.8304 214.848 58.8304 206.864C58.8304 198.879 64.1521 193.557 72.1368 193.557C80.1214 193.557 85.4431 198.879 85.4431 206.864ZM64.1521 206.864C64.1521 212.185 68.1444 214.848 72.1368 214.848C76.1291 214.848 80.1214 212.188 80.1214 206.864C80.1214 201.542 76.1291 198.879 72.1368 198.879C68.1444 198.879 64.1521 201.542 64.1521 206.864Z" fill="#1D1D1B"/>
<path d="M103.698 193.557V198.879C98.3762 198.879 93.0524 200.211 93.0524 206.864V220.17H87.7307V193.557H93.0524V204.203C93.0546 197.55 97.0447 193.557 103.698 193.557Z" fill="#1D1D1B"/>
<path d="M127.917 208.195H109.395C109.98 212.614 113.652 214.848 117.271 214.848C122.593 214.848 125.256 212.188 125.256 212.188V217.509C125.256 217.509 122.595 220.17 117.271 220.17C109.287 220.17 103.965 214.848 103.965 206.864C103.965 198.879 109.287 193.557 115.94 193.557C122.593 193.557 127.915 198.879 127.915 206.864V208.195H127.917ZM109.554 204.203H122.328C121.584 200.637 119.188 198.881 115.942 198.881C112.694 198.879 110.3 200.637 109.554 204.203Z" fill="#1D1D1B"/>
<path d="M131.419 177.685C131.419 173.059 127.667 169.308 123.041 169.308H98.8951C94.269 169.308 90.5174 173.059 90.5174 177.685C90.5174 182.311 94.269 186.063 98.8951 186.063H123.041C127.67 186.061 131.419 182.311 131.419 177.685Z" fill="#D93726"/>
<path d="M132.474 177.685C132.474 182.885 128.244 187.116 123.043 187.116H98.8973C93.6971 187.116 89.4663 182.885 89.4663 177.685C89.4663 172.485 93.6971 168.254 98.8973 168.254H123.043C128.244 168.254 132.474 172.485 132.474 177.685ZM123.043 185.007C127.082 185.007 130.366 181.722 130.366 177.685C130.366 173.647 127.08 170.363 123.043 170.363H98.8973C94.8586 170.363 91.5751 173.649 91.5751 177.685C91.5751 181.722 94.8608 185.007 98.8973 185.007H123.043Z" fill="white"/>
<path d="M109.269 177.685C109.269 173.059 105.517 169.308 100.891 169.308H77.7146C73.0885 169.308 69.3369 173.059 69.3369 177.685C69.3369 182.311 73.0885 186.063 77.7146 186.063H100.891C105.517 186.061 109.269 182.311 109.269 177.685Z" fill="#EF7E1A"/>
<path d="M110.322 177.685C110.322 182.885 106.091 187.116 100.891 187.116H77.7587C72.5585 187.116 68.3277 182.885 68.3277 177.685C68.3277 172.485 72.5585 168.254 77.7587 168.254H100.891C106.091 168.254 110.322 172.485 110.322 177.685ZM100.891 185.007C104.93 185.007 108.214 181.722 108.214 177.685C108.214 173.647 104.928 170.363 100.891 170.363H77.7587C73.72 170.363 70.4365 173.649 70.4365 177.685C70.4365 181.724 73.7222 185.007 77.7587 185.007H100.891Z" fill="white"/>
<path d="M88.413 177.685C88.413 173.059 84.6614 169.308 80.0353 169.308H56.6223C51.9962 169.308 48.2446 173.059 48.2446 177.685C48.2446 182.311 51.9962 186.063 56.6223 186.063H80.0353C84.6614 186.061 88.413 182.311 88.413 177.685Z" fill="#F5C100"/>
<path d="M89.4663 177.685C89.4663 182.885 85.2355 187.116 80.0353 187.116H56.6223C51.4221 187.116 47.1913 182.885 47.1913 177.685C47.1913 172.485 51.4221 168.254 56.6223 168.254H80.0353C85.2355 168.254 89.4663 172.485 89.4663 177.685ZM80.0353 185.007C84.074 185.007 87.3576 181.722 87.3576 177.685C87.3576 173.647 84.0718 170.363 80.0353 170.363H56.6223C52.5836 170.363 49.3001 173.649 49.3001 177.685C49.3001 181.724 52.5858 185.007 56.6223 185.007H80.0353Z" fill="white"/>
<path d="M67.2744 177.685C67.2744 173.059 63.5228 169.308 58.8967 169.308H35.4837C30.8576 169.308 27.1059 173.059 27.1059 177.685C27.1059 182.311 30.8576 186.063 35.4837 186.063H58.8967C63.5228 186.061 67.2744 182.311 67.2744 177.685Z" fill="#2ECC71"/>
<path d="M68.3277 177.685C68.3277 182.885 64.0969 187.116 58.8967 187.116H35.4837C30.2835 187.116 26.0526 182.885 26.0526 177.685C26.0526 172.485 30.2835 168.254 35.4837 168.254H58.8967C64.0969 168.254 68.3277 172.485 68.3277 177.685ZM58.8967 185.007C62.9354 185.007 66.2189 181.722 66.2189 177.685C66.2189 173.647 62.9332 170.363 58.8967 170.363H35.4837C31.4449 170.363 28.1614 173.649 28.1614 177.685C28.1614 181.724 31.4472 185.007 35.4837 185.007H58.8967Z" fill="white"/>
<path d="M46.1689 177.685C46.1689 173.059 42.4173 169.308 37.7912 169.308H21.9565C17.3304 169.308 13.5788 173.059 13.5788 177.685C13.5788 182.311 17.3304 186.063 21.9565 186.063H37.7912C42.4173 186.061 46.1689 182.311 46.1689 177.685Z" fill="#1E8F4E"/>
<path d="M47.2222 177.685C47.2222 182.885 42.9914 187.116 37.7912 187.116H21.9565C16.7563 187.116 12.5255 182.885 12.5255 177.685C12.5255 172.485 16.7563 168.254 21.9565 168.254H37.7912C42.9914 168.254 47.2222 172.485 47.2222 177.685ZM37.7912 185.007C41.8299 185.007 45.1134 181.722 45.1134 177.685C45.1134 173.647 41.8277 170.363 37.7912 170.363H21.9565C17.9178 170.363 14.6343 173.649 14.6343 177.685C14.6343 181.724 17.92 185.007 21.9565 185.007H37.7912Z" fill="white"/>
<path d="M117.148 16.2849C118.858 16.1416 120.444 17.7253 120.299 19.4353C120.087 21.8715 117.056 77.2301 99.3392 94.947C82.3583 111.925 62.3533 107.942 49.2879 98.5491C49.13 98.435 48.9527 98.299 48.7584 98.1435L36.9828 109.905C34.136 112.749 29.5234 112.749 26.6791 109.905C23.8323 107.058 23.8323 102.445 26.6791 99.6009L38.4426 87.8252C38.2847 87.6285 38.1487 87.4512 38.0345 87.2933C28.6441 74.2303 24.6582 54.2229 41.6367 37.242C59.3511 19.5251 114.71 16.4914 117.148 16.2849Z" fill="#F5C100"/>
<path d="M73.6854 84.2329C81.6035 84.2329 87.8393 80.6654 90.4497 74.8647C90.8847 73.8495 91.1168 72.9214 91.1168 71.9353C91.1168 69.615 89.4926 68.0487 87.0272 68.0487C85.171 68.0487 84.0688 68.8318 83.1697 70.8041C81.2845 75.0097 77.978 77.0109 73.5694 77.0109C66.8695 77.0109 62.6639 71.5002 62.6639 62.567C62.6639 53.7498 66.9275 48.2101 73.5404 48.2101C77.717 48.2101 81.1394 50.3564 83.0537 54.6199C84.0108 56.6502 85.258 57.5203 87.2303 57.5203C89.5506 57.5203 91.0878 56.0411 91.0878 53.7498C91.0878 52.7057 90.7977 51.5745 90.2177 50.4724C87.3463 44.4396 81.2845 40.9591 73.4534 40.9591C61.4168 40.9591 53.7307 49.1092 53.7307 62.596C53.7307 76.1118 61.2718 84.2329 73.6854 84.2329Z" fill="white"/>
</svg>
