<svg width="145" height="214" viewBox="0 0 145 214" fill="none" xmlns="http://www.w3.org/2000/svg">
<path d="M119.25 1.25H25.75C12.4952 1.25 1.75 11.9952 1.75 25.25V188.75C1.75 202.005 12.4952 212.75 25.75 212.75H119.25C132.505 212.75 143.25 202.005 143.25 188.75V25.25C143.25 11.9952 132.505 1.25 119.25 1.25Z" stroke="#1D1D1B" stroke-width="2.5"/>
<path d="M53.3696 145.001H25.2599C26.1475 151.511 31.7209 154.803 37.2148 154.803C45.2922 154.803 49.3309 150.882 49.3309 150.882V158.723C49.3309 158.723 45.2922 162.644 37.2148 162.644C25.0987 162.644 17.0212 154.803 17.0212 143.038C17.0212 131.275 25.0987 123.432 35.1965 123.432C45.2944 123.432 53.3718 131.273 53.3718 143.038V145.001H53.3696ZM25.5005 139.119H44.8859C43.7553 133.865 40.1207 131.278 35.1921 131.278C30.2635 131.278 26.6311 133.865 25.5005 139.119Z" fill="#1D1D1B"/>
<path d="M85.7874 125.395V133.236C85.7874 133.236 79.9049 131.275 75.9854 131.275C70.1029 131.275 64.2226 135.197 64.2226 143.038C64.2226 150.879 70.1051 154.801 75.9854 154.801C79.9071 154.801 85.7874 152.84 85.7874 152.84V160.683C85.7874 160.683 81.8658 162.644 75.9854 162.644C64.2226 162.644 56.3793 154.803 56.3793 143.038C56.3793 131.275 64.2226 123.432 75.9854 123.432C81.8658 123.434 85.7874 125.395 85.7874 125.395Z" fill="#1D1D1B"/>
<path d="M127.979 143.04C127.979 154.803 120.135 162.647 108.372 162.647C96.6096 162.647 88.7662 154.805 88.7662 143.04C88.7662 131.278 96.6096 123.434 108.372 123.434C120.137 123.434 127.979 131.278 127.979 143.04ZM96.6096 143.04C96.6096 150.881 102.492 154.803 108.372 154.803C114.255 154.803 120.135 150.881 120.135 143.04C120.135 135.197 114.253 131.278 108.372 131.278C102.492 131.278 96.6096 135.197 96.6096 143.04Z" fill="#1D1D1B"/>
<path d="M25.6441 197.447C21.6518 197.447 17.6595 196.116 17.6595 196.116V190.794C17.6595 190.794 21.6518 192.125 25.6441 192.125C28.305 192.125 29.6365 190.794 29.6365 189.465C29.6365 185.472 17.0345 188.133 17.0345 178.819C17.0345 173.498 20.3225 170.834 25.6463 170.834C29.6387 170.834 33.631 172.166 33.631 172.166V177.488C33.631 177.488 29.6387 176.156 25.6463 176.156C22.9855 176.156 21.654 177.488 21.654 178.817C21.654 182.809 34.9603 180.148 34.9603 189.462C34.9581 194.786 30.968 197.447 25.6441 197.447Z" fill="#1D1D1B"/>
<path d="M56.5162 172.166V177.488C56.5162 177.488 52.5239 176.156 49.8631 176.156C45.8707 176.156 41.8784 178.817 41.8784 184.141C41.8784 189.462 45.8707 192.125 49.8631 192.125C52.5239 192.125 56.5162 190.794 56.5162 190.794V196.116C56.5162 196.116 53.8554 197.447 49.8631 197.447C41.8784 197.447 36.5568 192.125 36.5568 184.141C36.5568 176.156 41.8784 170.834 49.8631 170.834C53.8532 170.834 56.5162 172.166 56.5162 172.166Z" fill="#1D1D1B"/>
<path d="M85.3105 184.141C85.3105 192.125 79.9889 197.447 72.0042 197.447C64.0195 197.447 58.6979 192.125 58.6979 184.141C58.6979 176.156 64.0195 170.834 72.0042 170.834C79.9889 170.834 85.3105 176.156 85.3105 184.141ZM64.0195 184.141C64.0195 189.462 68.0119 192.125 72.0042 192.125C75.9965 192.125 79.9889 189.465 79.9889 184.141C79.9889 178.819 75.9965 176.156 72.0042 176.156C68.0119 176.156 64.0195 178.819 64.0195 184.141Z" fill="#1D1D1B"/>
<path d="M103.567 170.834V176.156C98.2458 176.156 92.922 177.488 92.922 184.141V197.447H87.6003V170.834H92.922V181.48C92.922 174.827 96.9143 170.834 103.567 170.834Z" fill="#1D1D1B"/>
<path d="M127.784 185.472H109.262C109.848 189.891 113.52 192.125 117.139 192.125C122.46 192.125 125.124 189.465 125.124 189.465V194.786C125.124 194.786 122.463 197.447 117.139 197.447C109.154 197.447 103.833 192.125 103.833 184.141C103.833 176.156 109.154 170.834 115.807 170.834C122.46 170.834 127.782 176.156 127.782 184.141V185.472H127.784ZM109.421 181.48H122.196C121.449 177.914 119.056 176.158 115.81 176.158C112.564 176.158 110.168 177.914 109.421 181.48Z" fill="#1D1D1B"/>
<path d="M117.09 16.5619C118.8 16.4186 120.386 18.0023 120.24 19.7123C120.029 22.1485 116.998 77.5071 99.2806 95.224C82.2997 112.202 62.2948 108.219 49.2294 98.8262C49.0715 98.712 48.8942 98.576 48.6998 98.4205L36.9242 110.182C34.0775 113.026 29.4649 113.026 26.6205 110.182C23.7738 107.335 23.7738 102.722 26.6205 99.8779L38.384 88.1023C38.2261 87.9055 38.0901 87.7282 37.976 87.5703C28.5856 74.5073 24.5996 54.5 41.5781 37.519C59.2901 19.8022 114.651 16.7684 117.09 16.5619Z" fill="#1D1D1B"/>
<path d="M68.93 68.82C68.93 66.6734 69.3733 64.8067 70.26 63.22C71.1467 61.6334 72.7567 59.8134 75.09 57.76C76.7233 56.2667 77.89 55.0067 78.59 53.98C79.3367 52.9534 79.71 51.7167 79.71 50.27C79.71 48.45 79.08 46.9567 77.82 45.79C76.6067 44.6234 74.9267 44.04 72.78 44.04C70.7267 44.04 69.07 44.67 67.81 45.93C66.55 47.1434 65.64 48.6134 65.08 50.34L58.08 47.4C59.0133 44.6 60.7167 42.1267 63.19 39.98C65.71 37.8334 68.8833 36.76 72.71 36.76C75.5567 36.76 78.1 37.3434 80.34 38.51C82.58 39.63 84.3067 41.2167 85.52 43.27C86.78 45.2767 87.41 47.54 87.41 50.06C87.41 52.5334 86.8033 54.6567 85.59 56.43C84.4233 58.1567 82.86 59.9534 80.9 61.82C79.36 63.22 78.2633 64.5034 77.61 65.67C77.0033 66.8367 76.7 68.1667 76.7 69.66V71.69H68.93V68.82ZM72.78 88.42C71.2867 88.42 70.0033 87.9067 68.93 86.88C67.9033 85.8067 67.39 84.5234 67.39 83.03C67.39 81.5367 67.9033 80.2767 68.93 79.25C70.0033 78.2234 71.2867 77.71 72.78 77.71C74.2733 77.71 75.5333 78.2234 76.56 79.25C77.5867 80.2767 78.1 81.5367 78.1 83.03C78.1 84.5234 77.5867 85.8067 76.56 86.88C75.5333 87.9067 74.2733 88.42 72.78 88.42Z" fill="white"/>
</svg>
