<?xml version="1.0" encoding="UTF-8"?>
<svg width="90" height="90" version="1.1" viewBox="0 0 90 90" xml:space="preserve" xmlns="http://www.w3.org/2000/svg" xmlns:cc="http://creativecommons.org/ns#" xmlns:dc="http://purl.org/dc/elements/1.1/" xmlns:rdf="http://www.w3.org/1999/02/22-rdf-syntax-ns#"><metadata><rdf:RDF><cc:Work rdf:about=""><dc:format>image/svg+xml</dc:format><dc:type rdf:resource="http://purl.org/dc/dcmitype/StillImage"/><dc:title/></cc:Work></rdf:RDF></metadata><g transform="matrix(1.3333 0 0 -1.3333 0 188.98)"><g transform="matrix(.047625 0 0 .047624 0 74.234)"><path d="m1111.5 812.34-506.52-506.41h103.79c222.32 0 402.73 180.28 402.73 402.7v103.72" fill="#a8da3d"/><path d="m708.73 1111.4c-222.43 0-402.66-180.18-402.79-402.46v-0.293-0.031-103.68l506.5 506.46h-103.71" fill="#a8da3d"/><path d="m708.73 305.9-103.79 0.024 506.52 506.41v-103.72c0-222.42-180.4-402.72-402.73-402.72zm-402.84 402.82c0.051 0 0.051 0 0.051 0.093 0.132 222.37 180.41 402.55 402.79 402.55h103.64l-506.43-506.46v103.68s-0.051 0-0.051 0.133zm-305.89-0.426v-708.3h708.73c391.24 0.050781 708.59 317.24 708.59 708.62v708.72h-708.59c-391.32 0-708.52-317.16-708.73-708.36v-0.683" fill="#005532"/><g fill="#fff"><path d="m535.91 449.5 1.008 1.016c14.481 14.414 13.242 31.707-22.66 67.675-34.465 34.461-50.762 34.657-64.637 20.829l-1.687-1.649c-5.953 6.785-19.977 20.879-26.797 26.836l7.68 7.617c49.492 49.539 90.171 46.895 138.84-0.625 51.25-49.914 49.129-95.761 5.184-139.7 0 0-2.277-1.844-9.711-9.305-6.199 6.61-20.195 21.082-27.223 27.305zm-128.18 101.31c33.863-34.7 107.72-108.22 141.98-142.02l-33.594-33.609c-12.175-12.211-22.101-22.95-33.066-34.309-6.199 6.617-21.039 21.449-27.656 27.629l2.269 2.281c7.86 7.879 8.223 15.68-1.621 26.848-9.926 11.16-50.797 52.027-60.492 60.492-9.719 8.418-17.316 9.895-24.977 2.246l-3.496-3.515c-6.207 6.64-20.453 20.859-27.015 27.101 3.468 3.094 21.644 20.801 34.023 33.192l33.645 33.664"/><path d="m682.6 636.67c-7.176-7.258-15.668-14.484-25.547-16.965 3.558 7.227 1.855 13.457-4.961 20.235-7.207 7.226-13.406 9.328-19.36 5.41-11.781 10.488-15.949 28.242 1.657 45.832 18.972 18.972 36.121 15.508 49.902 1.582 18.176-18.164 17.328-37.121-1.691-56.094zm-72.797 35.273c-2.297-20.039 12.402-37.558 38.828-63.976 21.879-21.883 32.406-23.289 40.004-15.723 5.976 5.969 6.215 14.914-5.352 26.895 9.289 8.437 28.891 28.027 37.555 37.519 25.769-23.691 26.621-57.156-9.078-92.91-36.336-36.316-68.324-41.062-104.44-4.883-43.543 43.547-34.269 81.27 2.485 113.08"/><path d="m757.6 757.81c-27.468 19.199-19.421 42.921-2.078 60.312 22.879 22.848 46.825 20.817 86.231-18.594 39.441-39.457 41.133-62.98 18.191-85.843-17.312-17.407-41.031-25.395-60.222 2.035 13.554 10.734 11.961 16.922-6.485 35.316-14.972 15.055-23.887 20.242-35.637 6.774zm-25.417-86.454c-12.786 13.614-61.676 62.551-67.887 67.875-6.172 5.387-13.641 10.75-18.961 5.387l-1.902-1.828c-7.223 7.582-14.68 15.02-22.286 22.277 9.481 9.028 47.231 47.215 54.684 55.903l124.86-124.89c-2.664-11.328-2.214-21.68 4.778-32.336-8.684-7.91-26.418-25.644-34.258-34.336-9.863 12.004-24.793 26.887-39.023 41.945"/><path d="m823.7 901.5c-14.902-14.887-32.676-14.887-48.133 0.602-15.449 15.519-15.097 32.836-0.265 47.722 15.078 15.035 32.676 15.246 47.914 0 15.027-15.121 15.523-33.273 0.484-48.324zm100.64-54.086c7.226-6.441 12.179-7.254 18.39-1.043l1.043 1.043c5.149-5.562 17.082-17.519 22.715-22.695 0 0-21.472-20.68-33.262-32.43-11.746-11.746-32.41-33.238-32.41-33.238-5.175 5.574-17.148 17.523-22.675 22.73l0.808 0.797c6.406 6.426 5.137 10.961-1.238 18.176-6.375 7.207-28.047 29.348-35.5 35.906-7.418 6.653-11.973 6.196-16.922 1.254l-1.594-1.691c-5.203 5.629-16.562 16.953-22.156 22.129 14.211 14.25 43.145 43.945 55.742 56.554 14.442-15.687 59.832-61.062 67.059-67.492"/><path d="m1038.3 993.54c39.25-39.207 30.79-75.738-6.18-109.4 6.18 18.16-19.36 43.785-39.406 63.801-22.911 22.886-29.969 17.941-35.731 13.421-19.523 13-18.156 34.25-4.523 47.875 23.496 23.54 55.32 14.85 85.84-15.695zm-115.2-111.02c-39.179 39.195-30.711 75.71 6.223 109.36-6.223-18.129 19.422-43.754 39.473-63.77 22.871-22.91 29.902-17.965 35.69-13.425 19.59-12.981 18.16-34.215 4.53-47.899-23.529-23.48-55.291-14.84-85.916 15.731"/></g><g fill="#c4e570"><path d="m608.33 91.941c4.328-2.8711 9.91-4.2422 16.774-4.2422 6.425 0 11.617 1.2696 15.558 3.8789 3.969 2.6407 6.977 7.0938 9.074 13.383 2.086 6.269 3.121 14.758 3.121 25.48 0 4.02-0.132 7.93-0.32 11.68-0.23 3.719-0.91 7.52-2.113 11.379zm33.582 76.137c-4.347 3.781-10.293 5.602-17.949 5.602-10.578 0-17.891-3.84-21.965-11.52-4.019-7.711-6.035-18.058-6.035-30.98 0-10.641 1.109-19.2 3.383-25.801zm25.692 6.121c8.98-10.277 13.453-24.597 13.453-42.801 0-18.668-3.317-32.148-9.922-40.207-6.668-8.1797-13.477-13.77-20.488-16.832-7.008-3.0508-15.309-4.6211-24.864-4.6211-11.031 0-20.5 2.0508-28.418 6.0312l-14.105-20.73-12.828 7.8125 14.765 21.699c-11.183 11.488-16.797 26.871-16.797 46.14 0 19.098 4.997 34.098 15.004 45.039 10.02 10.899 23.735 16.34 41.172 16.34 11.352 0 21.047-2.25 29.082-6.64l13.555 19.91 12.984-8.371-14.386-20.789 1.793-1.981"/><path d="m805.47 82.051-50.391 55.308 8.809-61.41-25.02-3.5703-16.992 117.73 25.027 3.582 7.774-53.39 31.664 59.121 30.625 4.398-35.766-60.832 56.524-56.359-32.254-4.5781"/><path d="m946.71 161.37c-0.434 6.551-2.699 14.809-6.781 24.738-2.696 6.539-5.067 11.582-7.215 15.219-2.149 3.621-5.93 7.981-11.297 13.024-5.363 5.078-13.637 5.328-24.66 0.777-9.953-4.098-15.305-10.469-16.016-19.098-0.715-8.59 1.367-18.929 6.309-30.883 5.437-13.308 11.523-22.527 18.133-27.648 6.671-5.25 15.097-5.672 25.312-1.512 5.957 2.442 10.258 5.614 12.891 9.532 2.699 3.91 3.769 9.152 3.324 15.851zm-51.652-43.371c-14.836 6.219-25.899 18.25-33.293 36.191-7.313 17.7-8.418 33.508-3.25 47.379 5.117 13.899 15.722 24.18 31.894 30.789 16.992 6.981 32.059 7.153 45.125 0.551 13.184-6.582 23.215-18.351 30.137-35.219 7.004-16.98 8.984-30.582 6.027-40.742-3-10.211-7.168-18.027-12.527-23.551-5.305-5.507-12.406-10.046-21.223-13.707-15.754-6.472-30.039-7.043-42.89-1.691"/><path d="m1098.2 214.94-56.07-39.41-68.37 97.309 20.137 14.148 56.793-80.859 39.76 28.051 7.75-19.239"/><path d="m1166.6 329.32c-3.25 5.739-8.86 12.231-16.83 19.469-5.17 4.68-9.5 8.27-12.97 10.602-3.52 2.398-8.79 4.687-15.85 6.898-7.03 2.242-14.55-0.98-22.59-9.891-7.23-7.949-9.3-15.976-6.25-24.046 3.03-8.071 9.33-16.532 18.94-25.25 10.65-9.633 20.05-15.364 28.31-17.192 8.2-1.789 16.04 1.34 23.47 9.57 4.29 4.719 6.83 9.399 7.54 14.161 0.68 4.621-0.55 9.918-3.77 15.679zm-28.09-61.289c-16.07-0.801-31.26 5.36-45.62 18.399-14.14 12.789-21.89 26.582-23.26 41.371-1.37 14.711 3.87 28.488 15.61 41.48 12.34 13.649 25.83 20.25 40.59 19.918 14.71-0.39 28.79-6.668 42.26-18.918 13.65-12.312 21.25-23.742 22.92-34.25 1.69-10.48 1.29-19.371-1.18-26.621-2.43-7.289-6.86-14.449-13.3-21.512-11.42-12.546-24.16-19.257-38.02-19.867"/><path d="m1273.3 427.93c-4.54-8.563-9.81-15.426-15.77-20.406-5.96-5.051-12.73-8.59-20.28-10.551-7.58-2.008-14.96-2.43-22.16-1.27-7.15 1.082-14.78 3.789-22.8 8.051-20.08 10.672-31.19 23.68-33.3 39.234-2.17 15.528 0 29.387 6.55 41.68 7.24 13.742 17.59 23.762 30.97 30.176l7.22-18.289c-4.75-2.696-8.91-5.598-12.29-8.684-3.42-3.086-6.38-7.019-8.92-11.785-6.74-12.629-6.84-22.617-0.33-29.961 6.52-7.336 14.65-13.613 24.38-18.781 15.81-8.438 27.49-10.641 34.94-6.602 7.43 3.957 12.99 9.465 16.7 16.457 1.26 2.371 2.28 4.922 2.99 7.547 0.75 2.637 1.27 5.246 1.6 7.746l-23.91 12.735-9.91-18.567-18.89 5.938 23.54 44.316 50.48-26.844c-0.07-7.003-1.01-14.179-2.83-21.445-1.82-7.258-4.45-14.094-7.98-20.695"/><path d="m1313.1 525.87-113.67 34.891 7.49 24.406 113.67-34.855-7.49-24.442"/><path d="m1339.9 681.12c1.76-4.512 2.86-9.726 3.49-15.48 0.61-5.821 0.55-11.688-0.11-17.598-1.75-15.125-6.95-29.266-15.56-42.363l-17.85 11.066c3.84 5.996 6.9 11.758 9.11 17.227 2.21 5.449 3.65 11.375 4.39 17.742 0.78 6.223 0.22 11.933-1.49 17.082-1.73 5.137-5.24 8.047-10.61 8.672-3.84 0.449-7.2-0.625-10.06-3.203-2.83-2.61-5.47-7.219-7.87-13.625l-5.86-15.352c-4.17-11.269-9.7-18.562-16.63-21.894-6.92-3.301-13.57-4.618-19.95-3.868-10.64 1.243-18.9 6.496-24.67 15.821-5.75 9.316-7.87 20.812-6.28 34.465 0.95 7.937 2.89 15.769 5.86 23.3 2.97 7.559 6.74 13.817 11.23 18.879l15.81-13.566c-7.32-10.098-11.61-20.207-12.78-30.285-0.66-5.926-0.03-10.848 1.92-14.754 1.91-3.926 5.01-6.106 9.11-6.582 3.45-0.403 6.27 0.429 8.56 2.461 2.27 2.078 4.49 6.082 6.67 12l5.59 15.343c1.93 5.028 4.16 9.473 6.64 13.348 2.47 3.82 6.13 7.652 10.93 11.477 4.83 3.754 11.55 5.136 20.31 4.183 7-0.816 13.06-3.32 18.32-7.554 5.18-4.227 9.15-9.844 11.78-16.942"/><path d="m1345.7 823.69-61.96-42.028h62.05v-25.316h-118.96v25.316h53.98l-54.01 39.848 0.03 30.965 55.12-44.125 63.84 47.933-0.09-32.593"/><path d="m192.25 607.88c2.812 4.258 4.277 9.883 4.328 16.699 0.047 6.445-1.223 11.641-3.789 15.606-2.617 3.992-7.031 7.05-13.277 9.179-6.278 2.09-14.727 3.203-25.496 3.262-4.02 0.047-7.926 0-11.653-0.246-3.726-0.156-7.562-0.82-11.433-1.992zm-75.949 34.101c-3.762-4.347-5.68-10.304-5.75-17.902-0.043-10.605 3.718-17.937 11.379-22.031 7.679-4.129 18.007-6.172 31.011-6.277 10.594-0.11 19.168 0.984 25.774 3.164zm-5.907 25.743c10.368 8.925 24.649 13.3 42.887 13.144 18.684-0.109 32.055-3.554 40.156-10.234 8.079-6.692 13.633-13.555 16.645-20.598 3.016-7.031 4.488-15.371 4.418-24.902-0.09-11.004-2.141-20.469-6.203-28.328l20.679-14.289-7.894-12.743-21.688 14.903c-11.539-11.133-26.976-16.602-46.21-16.446-19.118 0.106-34.086 5.204-44.934 15.321-10.793 10.039-16.18 23.801-16.063 41.242 0.082 11.367 2.3789 20.996 6.8945 29.051l-19.863 13.672 8.4609 12.949 20.714-14.539 2 1.797"/><path d="m221.49 785.09-67.258-32.785 61.418-8.821-3.632-25.039-117.72 16.891 3.6133 25.039 53.414-7.66-47.801 47.09 4.442 30.629 48.242-51.497 70.015 38.383-4.738-32.23"/><path d="m229.89 918.17c-5 4.308-12.481 8.523-22.387 12.609-6.512 2.653-11.801 4.508-15.899 5.52-4.085 1.054-9.828 1.445-17.214 1.152-7.387-0.277-13.328-5.953-17.848-17.019-4.086-9.946-3.34-18.192 2.273-24.762 5.618-6.594 14.422-12.336 26.457-17.262 13.247-5.453 24.067-7.617 32.418-6.527 8.36 1.074 14.645 6.719 18.836 16.984 2.426 5.891 3.188 11.231 2.278 15.879-0.91 4.621-3.867 9.129-8.914 13.426zm-5.536-67.199c-14.804-6.196-31.171-5.61-49.136 1.757-17.672 7.25-29.664 17.59-35.957 30.969-6.297 13.403-6.117 28.18 0.539 44.352 6.941 16.984 17.422 27.82 31.351 32.508 13.977 4.703 29.356 3.574 46.211-3.321 17-6.996 28.063-15.113 33.203-24.39 5.125-9.325 7.813-17.77 7.981-25.461 0.172-7.629-1.586-15.879-5.192-24.719-6.48-15.762-16.093-26.309-29-31.695"/><path d="m330.17 1016.9-39.379-56.059-97.297 68.349 14.121 20.16 80.852-56.786 27.918 39.786 13.785-15.45"/><path d="m378.85 1111.3c-2.672 6.04-7.649 13.04-14.86 21.01-4.715 5.19-8.734 9.13-11.972 11.8-3.258 2.69-8.266 5.5-15.067 8.41-6.781 2.91-14.597 0.34-23.429-7.67-7.954-7.24-10.821-15.03-8.559-23.39 2.23-8.35 7.742-17.33 16.465-26.93 9.633-10.61 18.5-17.21 26.496-19.82 8-2.62 16.121-0.21 24.289 7.24 4.746 4.33 7.711 8.78 8.863 13.39 1.172 4.57 0.438 9.89-2.226 15.96zm-33.864-58.32c-16.039 0.74-30.554 8.31-43.621 22.68-12.886 14.14-19.258 28.6-19.211 43.39 0.098 14.81 6.602 28.07 19.473 39.83 13.633 12.37 27.727 17.65 42.34 15.9 14.59-1.74 28.047-9.36 40.269-22.83 12.383-13.59 18.891-25.71 19.551-36.28 0.653-10.62-0.562-19.4-3.722-26.38-3.106-6.99-8.247-13.71-15.309-20.12-12.598-11.46-25.852-16.86-39.77-16.19"/><path d="m494.98 1146.2c-8.539-4.55-16.722-7.26-24.488-8.09-7.777-0.83-15.305 0.05-22.676 2.63-7.425 2.58-13.754 6.35-19.086 11.3-5.339 4.94-10.14 11.4-14.433 19.47-10.66 20.03-12.543 37.1-5.633 51.18 6.863 14.05 16.449 24.33 28.699 30.86 13.742 7.29 27.922 9.85 42.617 7.69l-4.226-19.26c-5.485 0.46-10.52 0.39-15.067-0.29-4.578-0.64-9.211-2.22-13.976-4.74-12.649-6.73-18.336-14.94-17.059-24.68 1.27-9.73 4.516-19.46 9.719-29.21 8.406-15.81 16.82-24.18 25.199-25.02 8.434-0.87 16.125 0.57 23.106 4.3 2.355 1.26 4.601 2.8 6.683 4.58 2.106 1.8 4.004 3.63 5.684 5.56l-12.723 23.91-18.597-9.89-12.301 15.52 44.301 23.56 26.8-50.42c-3.988-5.84-8.769-11.26-14.328-16.26-5.543-4.98-11.609-9.22-18.215-12.7"/><path d="m566.84 1178.2-34.945 113.65 24.398 7.52 34.969-113.67-24.422-7.5"/><path d="m695.88 1208.6c-4.035-2.73-8.82-5.06-14.32-6.96-5.5-1.92-11.192-3.23-17.11-3.93-15.148-1.75-30.09 0.04-44.816 5.39l6.656 19.95c6.754-2.38 13.051-4.02 18.844-4.9 5.859-0.93 11.922-0.99 18.332-0.24 6.203 0.73 11.625 2.5 16.238 5.4 4.652 2.86 6.66 6.94 6.024 12.3-0.438 3.85-2.282 6.87-5.469 9.08-3.172 2.18-8.199 3.68-15.082 4.52l-16.235 2.18c-11.91 1.45-20.281 5.18-25.128 11.16-4.793 5.96-7.583 12.16-8.325 18.54-1.269 10.65 1.981 19.88 9.711 27.61 7.766 7.74 18.461 12.41 32.114 14.02 7.957 0.91 15.996 0.81 24.015-0.37 8.043-1.18 15.02-3.33 20.977-6.56l-9.567-18.49c-11.55 4.82-22.351 6.64-32.457 5.47-5.926-0.69-10.547-2.44-13.914-5.24-3.371-2.81-4.785-6.27-4.312-10.42 0.406-3.42 1.855-5.99 4.375-7.72 2.558-1.72 6.933-2.99 13.199-3.75l16.219-1.94c5.367-0.73 10.187-1.84 14.484-3.4 4.305-1.52 8.902-4.2 13.699-8 4.801-3.78 7.696-10.06 8.739-18.82 0.808-6.96-0.231-13.45-3.125-19.52-2.899-6.05-7.52-11.18-13.766-15.36"/><path d="m822.98 1204.8-42 61.93v-62.02h-25.325v118.93h25.325v-54.02l39.824 54.02h30.945l-44.09-55.13 47.871-63.8-32.55 0.09"/></g><path d="m1277.5 1226.2c-8.16-34.08-44.54-73.82-53.69-70.12-11.75 4.78 4.23 72.17 0.15 76.64-4.12 4.5-15.05 0.28-29.31-2.75-19.49-4.29-38.43-8.69-39.99-3.86-1.5 4.76 41.09 52.14 102.63 59.87 30.85 3.25 28.41-25.85 20.21-59.78" fill="#fff"/><path d="m139.9 191.29c8.098 34.063 44.551 73.641 53.543 70.051 11.895-4.852-4.086-72.27 0-76.699 3.969-4.493 14.985-0.289 29.399 2.871 19.383 4.258 38.371 8.519 39.801 3.777 1.418-4.859-41-52.168-102.64-59.918-30.773-3.191-28.254 25.789-20.098 59.918" fill="#fff"/></g></g></svg>
