<svg version="1" xmlns="http://www.w3.org/2000/svg" width="933.333" height="933.333" viewBox="0 0 700.000000 700.000000"><path d="M323.5.6C273.1 5.5 235.4 16 194 36.6 94.8 86 24.1 180.4 5.1 289 1 312.6.5 319 .5 350s.5 37.4 4.6 61c13 74.6 52.1 145.9 107.9 196.8 49.9 45.4 111.2 75.8 176 87.1 23.2 4 30.2 4.6 58.5 4.6 28.4 0 38.1-.7 61-4.6 61-10.2 119.9-37.5 167-77.2 9.5-8.1 31-29.4 39.4-39.2 41.8-48.4 69.5-107.3 80-170 3.8-22.3 4.6-32.7 4.6-58.5 0-31.9-2.5-53.1-9.5-82.7-5.4-22.5-16.9-54.4-26.7-73.6-3-6-3.4-5.6-5.7 6.8-.9 4.9-1.9 9.8-2.2 10.7-.5 1.7-5.3 1.8-78.2 2l-77.7.3-8.7 44.5c-4.8 24.5-8.7 45.3-8.7 46.2-.1 1.7 4.1 1.8 74.4 1.8H631l-.5 2.2c-.6 2.8-6.5 32-6.5 32.4 0 .2-33.6.5-74.7.6l-74.7.3-10.8 56c-5.9 30.8-10.8 56.1-10.8 56.2 0 .2 35.8.3 79.5.3s79.5.1 79.5.3c0 .8-6.2 32.4-6.6 33.9-.5 1.7-6.2 1.8-101 1.8-81.5 0-100.4-.2-100.4-1.3 0-1.6 59.8-308.7 60.5-310.5.3-.9 20.3-1.2 95.1-1.2h94.6l-2.7-4.8c-5.8-9.9-19.7-30.1-28.2-40.7-10.4-13-32.2-35.6-44.8-46.5C525.2 39.2 462.6 11.6 391 2.5 379.2.9 333-.3 323.5.6zM157.4 177.9c.3.5 8.4 46.5 18.1 102.2 9.6 55.8 17.8 102.7 18.2 104.3.8 2.7 5.9-5.9 61.3-102.2L315.4 177h32.3c17.8 0 32.3.3 32.3.7.1 2.1-60.4 310.9-60.9 311.6-.4.4-9.7.6-20.7.5l-20-.3 26.3-135c14.4-74.3 26.1-135.4 26-135.9-.2-.4-27.6 47-61.1 105.3L208.8 430l-20.7-.2-20.6-.3-19.6-105.7c-10.7-58.2-19.8-106-20-106.2-.3-.3-12.4 60.9-26.9 135.9L74.6 490H53.8c-16.1 0-20.6-.3-20.3-1.3.2-.6 14-70.7 30.5-155.6 16.5-84.9 30.3-154.8 30.6-155.3.7-1.1 62.1-1 62.8.1z"/></svg>