<?xml version="1.0" encoding="UTF-8" standalone="no"?>
<svg
   width="562.52"
   height="304.17"
   viewBox="0 0 562.52 304.17"
   version="1.1"
   id="svg1"
   sodipodi:docname="tabac-info-service.svg"
   inkscape:version="1.4.2 (ebf0e94, 2025-05-08)"
   xmlns:inkscape="http://www.inkscape.org/namespaces/inkscape"
   xmlns:sodipodi="http://sodipodi.sourceforge.net/DTD/sodipodi-0.dtd"
   xmlns="http://www.w3.org/2000/svg"
   xmlns:svg="http://www.w3.org/2000/svg">
  <defs
     id="defs1" />
  <sodipodi:namedview
     id="namedview1"
     pagecolor="#ffffff"
     bordercolor="#666666"
     borderopacity="1.0"
     inkscape:showpageshadow="2"
     inkscape:pageopacity="0.0"
     inkscape:pagecheckerboard="0"
     inkscape:deskcolor="#d1d1d1"
     inkscape:zoom="1.5972765"
     inkscape:cx="262.63456"
     inkscape:cy="129.90863"
     inkscape:window-width="2560"
     inkscape:window-height="1403"
     inkscape:window-x="0"
     inkscape:window-y="0"
     inkscape:window-maximized="1"
     inkscape:current-layer="svg1" />
  <path
     d="M30.43 63.66c0 3.9 3.18 6 7.08 6s7.07-2.12 7.07-6a2.36 2.36 0 012.36-2.35h10.58a2.37 2.37 0 012.4 2.34C59.92 75.93 49.77 85 37.51 85s-22.42-8.83-22.42-21.1V40.46a1.11 1.11 0 00-1-1.18H2.36A2.36 2.36 0 010 36.92v-9.46a2.38 2.38 0 012.36-2.36h11.56a1.11 1.11 0 001.17-1.05V5.93a2.38 2.38 0 012.36-2.36h10.62a2.36 2.36 0 012.36 2.36v18a1.11 1.11 0 001.05 1.17h20.13A2.37 2.37 0 0154 27.42v9.48a2.36 2.36 0 01-2.36 2.36h-20a1.11 1.11 0 00-1.23 1 .81.81 0 000 .22zM95 41.37c0 2-1.07 2.24-3.19 2.24h-8.54a2.36 2.36 0 01-2.36-2.36c0-9.31 8.61-17.79 22.76-17.79s23.59 7.67 23.59 21.35v36.55a2.38 2.38 0 01-2.36 2.36H119a1.9 1.9 0 01-1.65-.83c-.71-.94-.83-2.36-2.36-2.36-2.13 0-5.43 4.48-14.16 4.48-13.68 0-22.17-7.07-22.17-19.46 0-8.14 6.72-18.4 20.29-18.4h12a1.12 1.12 0 001.18-1.06v-2c0-4.83-3.9-7.19-9.09-7.19-2.43-.01-8.04.7-8.04 4.47zm4.12 18.28a5.65 5.65 0 00-6 5.3 4 4 0 000 .6c0 4.37 3.54 6.25 7.78 6.25 6.73 0 11.92-2 11.92-8.14v-2.83a1.12 1.12 0 00-1.06-1.18H99.07zM168.07 81c-1.18 0-2.24 1.06-3 1.89a2.27 2.27 0 01-1.65.83h-5.89a2.38 2.38 0 01-2.36-2.36v-79A2.36 2.36 0 01157.53 0h10.61a2.36 2.36 0 012.38 2.33v20c0 2.6 1.77 3.19 3.54 2.48a16.09 16.09 0 017.11-1.4c12.38 0 21.46 9.56 22.41 21.94a149.15 149.15 0 010 17.69c-1 12.39-10 21.94-22.41 21.94-8.73.02-9.65-3.98-13.1-3.98zm20.17-17.93a145 145 0 000-17.69c-.23-3.89-3.18-7.08-8.84-7.08s-8.61 2.6-9 7.08a149.15 149.15 0 000 17.69c.36 4.13 3.19 7.08 9 7.08s8.6-3.15 8.84-7.08zm52.84-21.7c0 2-1.06 2.24-3.18 2.24h-8.5a2.36 2.36 0 01-2.35-2.36c0-9.31 8.61-17.81 22.76-17.81s23.59 7.67 23.59 21.35v36.57a2.38 2.38 0 01-2.4 2.36h-5.9a1.92 1.92 0 01-1.65-.83c-.71-.94-.82-2.36-2.36-2.36C259 80.53 255.71 85 247 85c-13.68 0-22.17-7.07-22.17-19.46 0-8.14 6.72-18.4 20.28-18.4h12a1.11 1.11 0 001.18-1v-2c0-4.83-3.89-7.19-9.08-7.19-2.47-.06-8.13.65-8.13 4.42zm4.13 18.28a5.68 5.68 0 00-6 5.33 5.42 5.42 0 000 .57c0 4.37 3.54 6.25 7.79 6.25 6.72 0 11.91-2 11.91-8.14v-2.83a1.12 1.12 0 00-1.06-1.18h-12.64zm89.17 1.81a2.16 2.16 0 012.24-1.88h10.5a2.08 2.08 0 012 2.14v.21c0 14.4-11.08 23.12-24.06 23.12-14.51 0-23-9.55-24.53-21.94a88.62 88.62 0 010-17.69c1.53-12.42 10-22 24.53-22 13 0 24.06 8.5 24.06 23.12 0 1.3-.7 2.36-2 2.36h-10.5a2.09 2.09 0 01-2.24-1.89c-.35-5.78-4-8.25-9.44-8.25-5.89 0-8.49 2.12-9.08 6.6a88.62 88.62 0 000 17.69c.47 4.13 3.19 6.61 9.2 6.61 5.19.02 8.38-1.87 9.32-8.2zM31.73 127a1.87 1.87 0 01-1.85 1.89H17.1a1.87 1.87 0 01-1.89-1.89v-12.74a1.94 1.94 0 011.89-1.88h12.74a1.94 1.94 0 011.89 1.88zm-.59 67.23a2 2 0 01-1.89 1.89H17.69a2 2 0 01-1.89-1.89V139a1.94 1.94 0 011.89-1.88h11.56a1.94 1.94 0 011.89 1.88zm55.43-58.38A21.5 21.5 0 01108.39 157v36.77a2.36 2.36 0 01-2.36 2.36H95.42a2.36 2.36 0 01-2.36-2.36v-36.1c0-3.89-3.19-7-8.85-7s-8.84 3-8.84 6.49v36.6a2.36 2.36 0 01-2.37 2.36H62.39a2.38 2.38 0 01-2.39-2.36v-54.3a2.37 2.37 0 012.36-2.35h5.9a3.25 3.25 0 012.74 1.41 3.38 3.38 0 002.6 1.42c3.4.06 5.92-4.09 12.97-4.09zm44.11 15.8a2.38 2.38 0 01-2.36-2.36v-9.43a2.38 2.38 0 012.36-2.36h13a1.11 1.11 0 001.18-1V134c0-12.27 10.14-21.58 22.41-21.58h10.61a2.36 2.36 0 012.36 2.36v10.61a2.36 2.36 0 01-2.36 2.36h-10.63c-3.89 0-7.08 2.59-7.08 6.49v2.12a1.11 1.11 0 001 1.18H179a2.36 2.36 0 012.36 2.36v9.43a2.36 2.36 0 01-2.36 2.36h-17.65a1.12 1.12 0 00-1.18 1.06v41a2.36 2.36 0 01-2.36 2.36H147.2a2.36 2.36 0 01-2.36-2.36v-40.92a1.12 1.12 0 00-1.06-1.18h-13.1zm115.71 6.14a88.62 88.62 0 010 17.69c-1.53 12.38-10 21.94-24.41 21.94s-23-9.56-24.54-21.94a88.62 88.62 0 010-17.69c1.54-12.39 10-21.94 24.42-21.94s23 9.55 24.53 21.94zm-15.33 17.67a73.73 73.73 0 000-17.69c-.59-3.9-3.19-6.61-9.2-6.61s-8.38 2.12-9.08 6.61a73.73 73.73 0 000 17.69c.59 4.13 3.18 6.6 9.08 6.6s8.66-2.69 9.2-6.6zM7.19 281.16h9c2.83 0 3.3.95 3.53 2.95.48 4.6 5 6.13 10.38 6.13 6.37 0 10.86-1.88 10.86-5.54 0-4-5.43-4.83-10.86-5.42-9.67-1.07-23.7-5.08-23.7-18.88 0-10.49 12.26-17.81 23.7-17.81 11.8 0 23.36 6.25 23.36 18.4 0 2.24-1.06 3-2.36 3h-8.88c-1.18 0-2.36-.47-2.71-3-.59-3.89-5.07-5.42-9.44-5.42-5.3 0-9.43 1.53-9.43 4.83 0 3.54 4.6 4.25 9.43 5.07 10.38 1.89 25 3.31 25 19.47 0 11.67-11.56 19.22-25 19.22-13 0-25.24-5.78-25.24-20.64a2.36 2.36 0 012.36-2.36zm95.07 8.73c4.6 0 7.78-1.18 9.32-4.95a2.76 2.76 0 012.71-2h9.79a1.91 1.91 0 012.12 1.67 1.83 1.83 0 01-.12.93c-2.71 11-10.73 18.63-23.82 18.63-14.39 0-22.88-9.55-24.42-21.94a88.62 88.62 0 010-17.69c1.54-12.38 10-21.94 24.42-21.94 14.15 0 24.06 8.38 24.06 23.36v9.79a2.38 2.38 0 01-2.36 2.36H93.65a1.67 1.67 0 00-1.77 1.56v.21c0 6.47 4.72 10.01 10.38 10.01zM93.18 265h17.92c.71 0 1.18-.35 1.18-1.06 0-5.07-5-7.43-10-7.43-6.72 0-10.26 2.95-10.26 7.43 0 .71.5 1.06 1.16 1.06zm83.27-7.78c-5 0-9.44 2-9.44 7.08v36.21a2.38 2.38 0 01-2.36 2.36H154a2.38 2.38 0 01-2.36-2.36v-54.26a2.36 2.36 0 012.36-2.36h5.9a4.29 4.29 0 012.94 1.3 3.63 3.63 0 002.72 1.41c3.65 0 5.07-4 13.8-4 12.38 0 21.23 8.26 21.23 20.64a2.36 2.36 0 01-2.36 2.36h-10.58a2.38 2.38 0 01-2.36-2.36c0-3.9-3.77-6.02-8.84-6.02zm79.26-11.56a2.2 2.2 0 012.24-1.77h11.79c1.89 0 2.72 1.53 2.25 2.71l-20.06 54.5a2.34 2.34 0 01-2.24 1.77h-12.5a2.34 2.34 0 01-2.19-1.77l-20.29-54.5c-.47-1.18.36-2.71 2.24-2.71h11.8a2.2 2.2 0 012.24 1.77l11.58 33.62a.71.71 0 001.41 0zm51.9-11.91a1.86 1.86 0 01-1.84 1.88H293a1.85 1.85 0 01-1.88-1.82V221a1.93 1.93 0 011.88-1.89h12.74a2 2 0 011.89 1.89zM307 301a2 2 0 01-1.89 1.89h-11.54a1.94 1.94 0 01-1.88-1.89v-55.2a1.93 1.93 0 011.88-1.89h11.56a2 2 0 011.89 1.89zm57-20.43a2.16 2.16 0 012.24-1.88h10.5a2.08 2.08 0 012 2.14v.21c0 14.39-11.08 23.12-24.06 23.12-14.51 0-23-9.55-24.53-21.94a88.62 88.62 0 010-17.69c1.53-12.38 10-21.94 24.53-21.94 13 0 24.06 8.49 24.06 23.12 0 1.3-.7 2.36-2 2.36h-10.5a2.09 2.09 0 01-2.24-1.89c-.35-5.78-4-8.25-9.44-8.25-5.89 0-8.49 2.12-9.08 6.6a88.62 88.62 0 000 17.69c.47 4.13 3.19 6.61 9.2 6.61 5.18 0 8.37-1.89 9.32-8.26zm63.68 9.32c4.6 0 7.79-1.18 9.32-4.95a2.76 2.76 0 012.71-2h9.81a1.91 1.91 0 012.12 1.67 1.83 1.83 0 01-.12.93c-2.72 11-10.74 18.63-23.83 18.63-14.39 0-22.88-9.55-24.41-21.94a88.62 88.62 0 010-17.69c1.53-12.38 10-21.94 24.41-21.94 14.16 0 24.06 8.38 24.06 23.36v9.79a2.38 2.38 0 01-2.36 2.36h-30.32a1.67 1.67 0 00-1.77 1.56v.21c0 6.47 4.7 10.01 10.38 10.01zM418.6 265h17.92c.7 0 1.18-.35 1.18-1.06 0-5.07-5-7.43-10-7.43-6.72 0-10.26 2.95-10.26 7.43 0 .71.45 1.06 1.16 1.06zm-83.16-98.57c17.79 14.88 39.29 27.72 59.49 34.82a147.09 147.09 0 0049 8.66 135 135 0 0019.28-1.38c45.15-6.55 81.41-35.56 94.64-75.7 12.88-39.09-1.86-83.05-35-104.54-40.35-26.13-90.69-11.2-122.69 15.19-21.66 17.84-35.6 40.07-39.23 62.59-3 18.56.8 37.06 10.25 51.71a105.11 105.11 0 01-29.63-2.78 6.65 6.65 0 00-7.43 3.57 6.39 6.39 0 001.32 7.86zM385.6 170a7.18 7.18 0 005-5 6.46 6.46 0 00-1.73-6.4 52.11 52.11 0 01-15.49-38.6c.26-20.4 11.13-43.4 28.37-60 26.69-25.7 70.43-43 108-23.75 29.89 15.33 45.75 52.9 36.89 87.38s-39.06 62-77 70.19c-34.26 7.44-71.55-.69-105.14-22.37a149.18 149.18 0 0021.1-1.45z"
     id="path1"
     style="fill:#000000" />
</svg>
