<svg width="307" height="151" viewBox="0 0 307 151" fill="none" xmlns="http://www.w3.org/2000/svg">
<rect width="307" height="151" fill="white"/>
<rect width="171" height="151" fill="white"/>
<rect width="55" height="20" transform="translate(20 20)" fill="white"/>
<path fill-rule="evenodd" clip-rule="evenodd" d="M42.7378 37.6409C42.9525 37.4262 43.1692 37.1957 43.3846 36.9644C43.7695 36.5066 44.1906 36.0767 44.6404 35.6779C44.7706 35.5598 44.908 35.4501 45.052 35.3493C45.0709 35.3304 45.0804 35.302 45.0898 35.2737C45.0992 35.2453 45.1087 35.217 45.1276 35.1981C45.0332 35.2359 44.9576 35.2926 44.882 35.3492C44.8064 35.4059 44.7308 35.4626 44.6363 35.5004C44.5985 35.5004 44.5607 35.4627 44.5985 35.4249L45.0023 35.122C44.994 35.1225 44.9852 35.1225 44.9764 35.1225C44.9387 35.1225 44.9387 35.0848 44.9387 35.0469C44.4514 34.972 44.0758 35.3058 43.7378 35.6061L43.7292 35.6138C43.6788 35.6391 43.6284 35.6138 43.5892 35.5942C43.5697 35.5844 43.5529 35.576 43.5403 35.576C43.2432 35.6751 42.9876 35.8572 42.7301 36.0407L42.73 36.0407C42.4961 36.2074 42.2606 36.3752 41.9909 36.4831V36.4075C41.8969 36.4388 41.804 36.4807 41.7109 36.5227C41.5793 36.5821 41.4472 36.6417 41.3106 36.672C41.0548 36.7288 40.8204 36.7216 40.5913 36.7145H40.5912H40.5911H40.5911H40.591H40.5909H40.5909C40.5154 36.7121 40.4405 36.7098 40.3656 36.7098C39.9035 36.766 39.4447 36.8477 38.9915 36.9545L38.9717 36.9594L38.9627 36.9616L38.952 36.9644C38.7068 37.0305 38.4704 37.1257 38.2478 37.248C38.239 37.2527 38.2304 37.2578 38.222 37.263C38.2032 37.2866 38.1847 37.3092 38.1673 37.3284C38.096 37.4195 38.008 37.4962 37.9081 37.5545C37.7438 37.6381 37.6006 37.7657 37.4584 37.8923C37.3997 37.9446 37.3412 37.9968 37.2814 38.0456C37.2636 38.058 37.2425 38.0647 37.2208 38.0648C37.1585 38.1246 37.0965 38.1846 37.0344 38.2446L37.0344 38.2446L37.0344 38.2446L37.0344 38.2447L37.0343 38.2447L37.0343 38.2447L37.0343 38.2447L37.0343 38.2448C36.8945 38.3799 36.7547 38.5152 36.6121 38.6474C36.5761 38.6641 36.5358 38.6689 36.4968 38.6612C36.5072 38.6457 36.5146 38.6338 36.5218 38.6218C36.5536 38.5684 36.5859 38.5153 36.6186 38.4624C36.6552 38.4033 36.6925 38.3448 36.7307 38.2869C36.7822 38.2087 36.8352 38.1314 36.8916 38.0568C36.9047 38.0426 36.9041 38.0206 36.8902 38.0072C36.876 37.9937 36.857 37.9866 36.8374 37.9874C37.0307 37.8066 37.2435 37.6478 37.4718 37.514C37.4466 37.5163 37.4099 37.4961 37.429 37.4695C37.4431 37.4499 37.4554 37.4296 37.4676 37.4092C37.4763 37.3949 37.4849 37.3806 37.4942 37.3665C37.4985 37.3553 37.5024 37.344 37.5063 37.3328C37.5004 37.3263 37.4945 37.3203 37.4886 37.3142L37.4777 37.303C37.4155 37.3399 37.3561 37.3814 37.3001 37.4271C37.2727 37.4518 37.2471 37.4843 37.2209 37.5176L37.2209 37.5176C37.1607 37.5942 37.0973 37.6748 37.0017 37.6737C36.9823 37.6734 36.963 37.6706 36.9444 37.6655C36.9304 37.6636 36.9169 37.659 36.9047 37.652L36.9096 37.6433L36.9152 37.6327L36.9207 37.6229L36.9387 37.5904L36.9484 37.5729L36.9567 37.5578L36.9712 37.5316C36.9802 37.5156 36.9889 37.4999 36.998 37.4837L37.0056 37.4704L37.0097 37.4634L37.0178 37.4495C37.0291 37.43 37.0404 37.4107 37.0518 37.3913L37.0521 37.3907L37.0666 37.3661L37.0899 37.326L37.1065 37.2975L37.1067 37.2973L37.1068 37.297L37.1069 37.2968L37.107 37.2968L37.1184 37.2771L37.1301 37.2573C37.1379 37.2449 37.1391 37.2296 37.1335 37.2161C37.1278 37.2027 37.116 37.1928 37.1017 37.1897C37.172 37.098 37.26 37.0213 37.3605 36.9642H37.3491C37.4487 36.914 37.5483 36.8565 37.6479 36.7989L37.648 36.7988L37.6483 36.7987C37.6932 36.7727 37.7382 36.7467 37.7831 36.7214C37.7971 36.7095 37.8107 36.6975 37.8244 36.6856L37.8456 36.6674C37.6329 36.7393 37.4306 36.8391 37.244 36.9641C37.2216 36.9729 37.2003 36.9845 37.1807 36.9986C37.1452 37.0063 37.1085 36.9928 37.0864 36.9641C37.0803 36.9561 37.0771 36.9463 37.0773 36.9363C37.0994 36.8923 37.1471 36.861 37.198 36.8277C37.2345 36.8038 37.2726 36.7788 37.3042 36.7473C37.3418 36.7473 37.3796 36.7473 37.3796 36.7851C38.1301 36.1988 39.055 36.0637 39.9831 35.9282C40.5507 35.8454 41.1196 35.7623 41.6503 35.5757L41.9904 35.349C42.0876 35.3101 42.1748 35.2412 42.2674 35.1681C42.3549 35.099 42.4471 35.0261 42.5572 34.971C42.8626 34.7614 43.0889 34.4553 43.1997 34.1019C43.1957 34.0732 43.1825 34.0466 43.162 34.0262C42.687 34.5383 42.1238 34.9608 41.4991 35.2734C40.9268 35.5732 40.3152 35.6175 39.7068 35.6615C39.4715 35.6785 39.2366 35.6955 39.0047 35.7273C39.0426 35.6518 39.1182 35.6518 39.1937 35.6518C39.1937 35.562 39.241 35.5196 39.2982 35.4684C39.3133 35.4549 39.3291 35.4408 39.3449 35.425H39.4584C39.4772 35.425 39.4866 35.4061 39.496 35.3872C39.5055 35.3683 39.5149 35.3494 39.5338 35.3494C39.6094 35.3494 39.7229 35.3116 39.6851 35.3116C39.6275 35.2348 39.5407 35.2652 39.4444 35.299C39.3511 35.3316 39.249 35.3674 39.156 35.3116C39.1925 35.2751 39.2025 35.2297 39.2117 35.1883C39.2214 35.1441 39.2302 35.1044 39.2693 35.0849H39.4205C39.4284 35.0276 39.455 34.9744 39.4961 34.9337C39.8328 34.7316 40.1562 34.5562 40.4742 34.3838C40.6916 34.2659 40.9065 34.1494 41.1215 34.0266C41.0775 34.0266 41.0393 34.0436 41.0023 34.0601C40.9438 34.0862 40.8886 34.1108 40.8192 34.0645C40.857 34.0645 40.857 34.0361 40.857 34.0078C40.857 33.9794 40.857 33.951 40.8948 33.951C41.1327 33.8862 41.3458 33.7842 41.5625 33.6804C41.7245 33.6029 41.8885 33.5245 42.0663 33.4598C42.0145 33.4598 41.967 33.4732 41.921 33.4861C41.8329 33.5109 41.7499 33.5343 41.6506 33.4598C41.6757 33.4472 41.6967 33.4304 41.7177 33.4136C41.7597 33.38 41.8017 33.3464 41.8773 33.3464V33.233C41.8773 33.1952 41.9152 33.1952 41.953 33.1952C41.9243 33.1912 41.8977 33.178 41.8773 33.1574C41.8969 33.1184 41.9366 33.1096 41.9808 33.0998C42.0222 33.0906 42.0676 33.0806 42.1041 33.0441C42.0663 33.0441 41.9907 33.0441 41.9907 33.0063C42.1041 32.8551 42.293 32.8172 42.4821 32.7795C42.4631 32.7417 42.4253 32.7417 42.3922 32.7417C42.3592 32.7417 42.3308 32.7417 42.3308 32.7039C42.3308 32.6661 42.3686 32.6661 42.4064 32.6661H42.3308C42.2722 32.6368 42.2818 32.5848 42.289 32.5453L42.289 32.5453C42.2911 32.5338 42.293 32.5234 42.293 32.515C42.4442 32.3386 42.4946 32.1286 42.5449 31.9187C42.5701 31.8137 42.5953 31.7087 42.6331 31.6079C42.5953 31.6079 42.5575 31.6079 42.5575 31.5701C42.1907 31.9737 41.61 32.1279 41.0579 32.2746L41.0081 32.2878H40.8192C40.6098 32.37 40.3749 32.3562 40.1766 32.25C40.0851 32.2042 40.0213 32.1446 39.9517 32.0796C39.9063 32.0371 39.8584 31.9924 39.7988 31.9476C39.5032 31.7589 39.186 31.6065 38.8539 31.4938C37.9155 31.187 36.9307 31.0464 35.9439 31.0782C36.2155 30.93 36.5055 30.8704 36.7989 30.8101C36.9546 30.7781 37.1113 30.7459 37.2667 30.7002C37.3606 30.6726 37.4538 30.6441 37.5464 30.6158C38.0876 30.4505 38.6132 30.29 39.194 30.3222C39.1172 30.2966 39.023 30.3057 38.9349 30.3143C38.8931 30.3183 38.8526 30.3222 38.8161 30.3222C38.3905 30.2918 37.9648 30.3837 37.5192 30.4799C37.411 30.5033 37.3016 30.5269 37.1907 30.5491C37.0019 30.5868 36.8226 30.6435 36.6432 30.7001C36.4636 30.7568 36.284 30.8135 36.0948 30.8513C36.0077 30.8804 35.9373 30.9317 35.8686 30.9818C35.7586 31.0621 35.653 31.1392 35.49 31.1158V31.0025C35.868 30.5486 36.3215 30.0955 36.9262 30.0577C37.5011 29.9619 38.0491 30.0281 38.6157 30.0965L38.616 30.0965C38.7197 30.109 38.824 30.1216 38.9293 30.1333C39.4138 30.1848 39.8936 30.2732 40.3647 30.3978C40.4686 30.3978 40.5268 30.4891 40.5832 30.5776C40.6295 30.6502 40.6746 30.721 40.7428 30.738C40.8334 30.7682 40.9242 30.7743 41.0149 30.7803C41.151 30.7894 41.2871 30.7984 41.4229 30.8891C41.4229 30.8639 41.4187 30.8387 41.4145 30.8136C41.4061 30.7632 41.3977 30.7128 41.4229 30.6624C41.5082 30.577 41.6056 30.6001 41.7014 30.6228C41.7754 30.6403 41.8485 30.6575 41.9143 30.6246C42.1194 30.4964 41.9244 30.2986 41.7306 30.102C41.6388 30.0089 41.5472 29.916 41.4986 29.8309C41.5026 29.8023 41.5158 29.7757 41.5363 29.7553C41.6269 29.8346 41.7107 29.9173 41.7938 29.9993C41.9881 30.1909 42.1787 30.3788 42.4433 30.5112C42.6323 30.5867 43.0858 30.7002 43.0102 30.4735C42.8778 30.182 42.6524 29.9277 42.4254 29.6715C42.3285 29.5622 42.2314 29.4526 42.141 29.3396V29.189C42.0857 29.189 42.0709 29.1687 42.0521 29.1431C42.0452 29.1337 42.0378 29.1235 42.0277 29.1134V28.9623C41.9326 28.9148 41.9123 28.8374 41.8915 28.7583C41.8792 28.7116 41.8668 28.6643 41.8387 28.6222C41.7755 28.5169 41.771 28.3882 41.7663 28.2556C41.7626 28.1501 41.7588 28.0422 41.7253 27.9418C41.6571 27.7323 41.6066 27.5174 41.574 27.2994C41.5296 27.0473 41.4794 26.8069 41.4303 26.5713L41.4302 26.5713L41.4302 26.5712L41.4302 26.5712L41.4302 26.5712C41.3541 26.2062 41.2803 25.8528 41.234 25.4854C41.1758 24.9327 41.4537 24.4693 41.7399 23.992C41.8254 23.8495 41.9117 23.7057 41.9899 23.558C42.2544 23.1041 42.5567 22.6509 43.048 22.3486C43.1612 21.896 43.4622 21.5192 43.7632 21.1424L43.7657 21.1393C44.0675 20.7704 44.569 20.5457 44.9323 20.3833C45.26 20.2378 45.5952 20.1098 45.9365 20H20V39.9994H38.3682C38.8695 39.6385 39.3703 39.4096 39.9676 39.1366C40.2277 39.0177 40.506 38.8905 40.8106 38.7404C40.8691 38.7116 40.9368 38.6789 41.0112 38.6428L41.0119 38.6425L41.0129 38.642L41.0133 38.6418C41.5439 38.385 42.416 37.9629 42.7378 37.6409ZM36.7372 34.8958C36.7637 34.7632 36.9017 34.7237 37.0341 34.6857C37.0905 34.6696 37.1458 34.6538 37.191 34.6312L37.2091 34.6219L37.2295 34.611L37.2296 34.6109C37.3017 34.5723 37.392 34.5239 37.4556 34.5556C37.4984 34.6198 37.5533 34.6355 37.6066 34.6508C37.6474 34.6625 37.6874 34.674 37.7202 34.7068C37.5837 34.8431 37.42 34.8565 37.2537 34.8701C37.1433 34.8792 37.0317 34.8883 36.9262 34.9336C36.9078 34.9336 36.885 34.9358 36.8615 34.9381C36.7883 34.9452 36.7086 34.953 36.7372 34.8958ZM32.3154 32.0991C31.976 32.7794 31.5709 33.4249 31.1061 34.0265C31.11 34.0552 31.1233 34.0818 31.1439 34.1022C32.051 33.0817 32.8824 32.2125 34.0535 31.4944C34.0825 31.48 34.0726 31.4932 34.0579 31.5129C34.0343 31.5447 33.9981 31.5933 34.0913 31.57C34.4841 31.4794 34.6595 31.1472 34.8299 30.8245C34.8726 30.7435 34.915 30.6632 34.9605 30.5874C35.1362 30.3019 35.3885 30.1186 35.6431 29.9335C35.8267 29.8 36.0116 29.6656 36.1699 29.4915C36.175 29.533 36.1611 29.5747 36.1321 29.6048C36.1623 29.6339 36.204 29.6478 36.2455 29.6426C36.3114 29.5933 36.3843 29.5726 36.455 29.5525C36.547 29.5264 36.6353 29.5013 36.6994 29.4159C36.386 29.2904 36.0389 29.277 35.7167 29.378C34.923 29.756 34.2429 30.3607 33.6003 31.041C33.2146 31.4494 32.8067 31.8346 32.3154 32.0991ZM34.1672 31.759C34.1375 31.8265 34.0836 31.8804 34.0161 31.9102C33.9783 31.9102 33.9405 31.9102 33.9405 31.8724C33.9744 31.7137 34.0892 31.5845 34.2429 31.5322C34.2807 31.5321 34.2807 31.57 34.2807 31.6078C34.2613 31.6467 34.2408 31.6677 34.2208 31.6881C34.202 31.7074 34.1836 31.7262 34.1672 31.759ZM35.9925 37.4389C36.023 37.4109 35.9899 37.39 35.9426 37.3804C35.9814 37.3509 36.0131 37.3133 36.0356 37.2701C36.0665 37.1959 35.8667 37.2137 35.8356 37.2353C35.8051 37.2596 35.7778 37.2878 35.7544 37.319C35.705 37.3722 35.6525 37.4224 35.5973 37.4695C35.5558 37.5075 35.5155 37.5466 35.4752 37.5856C35.4235 37.6358 35.3718 37.6859 35.3179 37.7334C35.2543 37.7893 35.4621 37.8186 35.5069 37.7788C35.5552 37.736 35.6017 37.6914 35.6479 37.6466C35.6675 37.6458 35.687 37.6432 35.7061 37.6387C35.8147 37.5933 35.9124 37.5252 35.9925 37.4389ZM35.3491 36.9644L35.3046 36.9958C35.1779 37.0852 35.051 37.1747 34.9176 37.2522C34.7978 37.3217 34.6739 37.3788 34.5496 37.4362C34.5061 37.4562 34.4625 37.4763 34.4191 37.497C34.4179 37.4937 34.4162 37.4906 34.4142 37.4878C34.3998 37.4676 34.3728 37.4611 34.3509 37.4726C34.2119 37.5518 34.0841 37.6492 33.9709 37.7622C33.9533 37.7789 33.9357 37.7959 33.9181 37.8131C33.8942 37.8366 33.8763 37.8544 33.8584 37.8724L33.8521 37.8787C33.8515 37.8793 33.8512 37.88 33.8509 37.8806L33.8498 37.8822C33.8229 37.9089 33.7971 37.9359 33.7675 37.9706C33.7539 37.9909 33.7368 38.0088 33.7171 38.0233C33.6936 38.0389 33.6286 38.0386 33.6346 37.995V37.9876L33.6319 37.9891C33.6105 38.0003 33.5891 38.0116 33.5675 38.022C33.5479 38.0312 33.5304 38.0415 33.5126 38.052L33.5085 38.0544C33.5002 38.0512 33.4913 38.0499 33.4824 38.0506C33.4726 38.0507 33.4631 38.0539 33.4552 38.0597C33.409 38.0959 33.3633 38.1345 33.3187 38.1749C33.2393 38.2464 33.1659 38.3244 33.0994 38.408L33.0886 38.422L33.0773 38.4366C33.0737 38.4416 33.0692 38.4472 33.0653 38.4523L33.0616 38.4569L33.056 38.4649L33.0451 38.4809L33.036 38.4945C33.026 38.5049 33.0151 38.5101 33.0035 38.5117L32.9972 38.5025C32.9941 38.4981 32.991 38.4937 32.9883 38.4891L32.982 38.4784L32.9777 38.4708C32.9662 38.4513 32.9555 38.4311 32.9454 38.4103L32.9443 38.408L32.94 38.3992L32.9354 38.3893C32.9763 38.3453 33.0158 38.2998 33.054 38.2532L33.0616 38.2441C33.0749 38.2279 33.0879 38.2118 33.1009 38.1956L33.1642 38.1147C33.1688 38.1085 33.1733 38.1027 33.1779 38.0969L33.1873 38.0848C33.2288 38.0306 33.2685 37.978 33.3055 37.9252L33.3083 37.9211L33.3149 37.9113C33.3181 37.9067 33.3212 37.902 33.3246 37.8973C33.3427 37.8706 33.3601 37.8436 33.3764 37.8161C33.3911 37.7914 33.4049 37.7663 33.4177 37.7407L33.4208 37.7351L33.4247 37.7273C33.4258 37.7251 33.4268 37.7228 33.4277 37.7205C33.4288 37.7181 33.4298 37.7156 33.4309 37.7132C33.4442 37.6847 33.4562 37.6554 33.4668 37.6251L33.4702 37.6153L33.4723 37.6091C33.4745 37.603 33.4767 37.5968 33.4786 37.5905C33.4829 37.5769 33.4868 37.5629 33.4905 37.5488C33.4912 37.5457 33.4917 37.5426 33.4926 37.5396L33.4959 37.5264L33.4959 37.5263C33.4994 37.5125 33.5029 37.4987 33.5057 37.4842C33.5073 37.4754 33.5057 37.4664 33.5011 37.4588C33.5437 37.3857 33.5939 37.3173 33.6509 37.2547C33.6482 37.2564 33.6453 37.258 33.6424 37.2595L33.6424 37.2595C33.6394 37.2611 33.6364 37.2628 33.6336 37.2646C33.6035 37.284 33.579 37.3076 33.5545 37.3313C33.5351 37.3502 33.5156 37.369 33.4933 37.3857C33.4521 37.4164 33.3763 37.3655 33.425 37.329C33.4552 37.3049 33.4839 37.2789 33.5109 37.2511C33.5747 37.1765 33.639 37.1124 33.7078 37.0532L33.724 37.0415C33.7608 37.0148 33.7934 36.9911 33.8239 36.9645C33.8277 36.9612 33.8312 36.9577 33.835 36.9543L33.8404 36.9494C33.8662 36.9157 33.8944 36.8839 33.9249 36.8544L33.9265 36.8528C33.9272 36.852 33.9279 36.8513 33.9288 36.8507C34.1499 36.6373 34.4634 36.5601 34.7827 36.4816C34.9857 36.4316 35.1911 36.381 35.3765 36.2945C35.4817 36.2524 35.5987 36.2689 35.7144 36.2853C35.8063 36.2984 35.8974 36.3113 35.981 36.2945C36.0996 36.2829 36.2187 36.3095 36.3212 36.3702C36.0593 36.5128 35.8125 36.6697 35.5712 36.8232C35.4999 36.8686 35.4292 36.9136 35.3586 36.9578L35.3491 36.9644ZM35.9812 34.2533H36.2836C36.2623 34.296 36.2048 34.3025 36.1656 34.307C36.1354 34.3104 36.1161 34.3126 36.1325 34.3291C36.246 34.4422 36.4727 34.4045 36.6238 34.3289C36.7386 34.2643 36.8709 34.2378 37.0017 34.2533C37.0395 34.2533 37.0395 34.1777 37.0395 34.14C37.137 34.171 37.2395 34.1839 37.3417 34.1777C38.2488 33.9887 39.1181 33.7998 39.9495 33.384C39.1105 32.7387 38.0786 32.4515 37.0656 32.1696L37.0656 32.1696L37.0656 32.1696C36.8922 32.1214 36.7194 32.0733 36.5481 32.0235C36.5859 32.0235 36.6237 32.0361 36.6615 32.0487C36.7371 32.0739 36.8127 32.0991 36.8883 32.0235C36.7855 31.9413 36.6714 31.9262 36.5583 31.9112C36.4637 31.8987 36.3697 31.8863 36.2836 31.8346C36.2921 31.8346 36.3025 31.8365 36.314 31.8386C36.3535 31.8459 36.4055 31.8554 36.4348 31.7968C36.2333 31.6961 36.0318 31.6625 35.8303 31.6289L35.8303 31.6289C35.7295 31.6121 35.6286 31.5952 35.5277 31.57C35.7088 31.5374 35.838 31.376 35.8301 31.1921C35.8301 31.1544 35.7545 31.1544 35.7167 31.1544C35.2632 31.3811 34.9608 31.7968 34.7719 32.2881C34.9407 32.3846 35.1248 32.3733 35.3047 32.3624C35.4068 32.3562 35.5076 32.35 35.6034 32.3637C35.5192 32.4476 35.3938 32.4694 35.273 32.4904C35.2306 32.4978 35.1888 32.505 35.1495 32.5149C35.0335 32.5438 34.9227 32.6282 34.9605 32.7038C34.9811 32.7324 35.0118 32.7519 35.0464 32.7585C34.9571 32.782 34.8755 32.8283 34.8094 32.8928C34.9176 32.9738 35.0257 32.9584 35.1337 32.9429C35.1769 32.9368 35.22 32.9306 35.2632 32.9306C35.2632 32.981 35.2968 32.9978 35.3305 33.0146L35.3305 33.0146C35.3473 33.023 35.3641 33.0314 35.3767 33.044C35.2115 33.1042 35.076 33.2261 34.9987 33.384C34.9533 33.4975 34.8671 33.57 34.781 33.6426L34.781 33.6426C34.7235 33.691 34.6661 33.7393 34.6208 33.7998V33.9131C34.4923 34.0287 34.3595 34.1311 34.2284 34.2324L34.2284 34.2324C33.9734 34.4292 33.7244 34.6213 33.5248 34.8958C33.5625 34.8958 33.5625 34.9336 33.5625 34.9713C33.5283 35.0227 33.4786 35.0586 33.4309 35.093C33.3733 35.1345 33.3187 35.1738 33.2979 35.2358C33.2979 35.2737 33.2979 35.3115 33.3358 35.3115C33.5735 35.2323 33.78 35.1012 33.9825 34.9726C34.1665 34.8558 34.3473 34.741 34.5452 34.6691C34.7068 34.6286 34.8467 34.5559 34.9824 34.4853C35.1006 34.4239 35.2156 34.3641 35.3388 34.3289C35.4332 34.31 35.5372 34.2817 35.6411 34.2533L35.6411 34.2533L35.6411 34.2533C35.7451 34.225 35.849 34.1966 35.9435 34.1777C35.9435 34.2155 35.9435 34.2533 35.9812 34.2533ZM37.7243 37.5846C37.7273 37.5824 37.7303 37.58 37.7333 37.5776L37.74 37.5722C37.7947 37.5336 37.8455 37.4842 37.891 37.4252C37.8879 37.4242 37.8848 37.4231 37.8817 37.4218C37.8788 37.4207 37.876 37.4193 37.8732 37.4179C37.8228 37.4695 37.7738 37.525 37.7243 37.5846ZM45.0965 35.1046L45.018 35.1633C45.0614 35.1613 45.0965 35.1503 45.0965 35.1046Z" fill="#000091"/>
<path d="M74.9993 20H53.4856C53.5572 20.0235 53.6257 20.0554 53.6898 20.095C53.8645 20.1887 54.0909 20.3096 54.2326 20.3839C54.5225 20.5174 54.7714 20.7262 54.9532 20.9885C55.0288 21.1019 55.1422 21.3287 55.0666 21.4799C54.991 21.6688 54.9532 21.9712 54.7643 22.0468C54.5375 22.1601 54.2351 22.1601 53.9706 22.1223C53.8168 22.1157 53.6644 22.0903 53.5167 22.0468C54.0835 22.2735 54.6126 22.5381 54.9906 23.0672C55.0284 23.1428 55.1795 23.1805 55.3308 23.1805C55.3686 23.1805 55.3686 23.2561 55.3686 23.2939C55.2929 23.3696 55.2173 23.4073 55.2551 23.5206H55.3686C55.5575 23.445 55.5197 23.0668 55.7843 23.1805C55.9772 23.2994 56.0435 23.5483 55.9354 23.7474C55.7937 23.8844 55.642 24.0107 55.4816 24.1253C55.4438 24.2094 55.4438 24.3057 55.4816 24.3899C55.5762 24.526 55.6406 24.6807 55.6705 24.8437C55.784 25.1082 55.8217 25.4106 55.9351 25.6751C56.0863 26.242 56.2374 26.8089 56.1996 27.3758C56.1996 27.6782 56.0484 27.9427 56.1618 28.2451C56.2374 28.5474 56.4263 28.7742 56.5776 29.0387C56.7286 29.2654 56.8799 29.4166 56.9933 29.6434C57.2199 30.0213 57.6357 30.3992 57.4472 30.8527C57.3338 31.1172 56.9181 31.0795 56.6536 31.2307C56.4268 31.4196 56.6158 31.7219 56.7291 31.9109C56.9181 32.2511 56.5023 32.4778 56.2378 32.5912C56.3134 32.7045 56.4646 32.6667 56.5023 32.7423C56.5401 32.9313 56.7291 33.0447 56.6158 33.2336C56.4646 33.4604 56.0111 33.5738 56.2378 33.9139C56.389 34.1785 56.2906 34.4723 56.2001 34.7454C56.0867 35.0855 55.7844 35.2366 55.5198 35.3123C55.2869 35.3812 55.041 35.3941 54.8021 35.35C54.7331 35.3082 54.6557 35.2823 54.5754 35.2745C53.9328 35.1988 53.2903 35.0099 52.6479 35.0099C52.4658 35.0376 52.288 35.0884 52.1188 35.161C51.9542 35.2817 51.8011 35.4171 51.6612 35.5657L51.6568 35.5704C51.6284 35.6006 51.6012 35.6312 51.5744 35.662C51.5579 35.6811 51.5418 35.7006 51.5257 35.72C51.5148 35.7329 51.5041 35.7459 51.4935 35.759C51.3838 35.8967 51.2844 36.0423 51.196 36.1946C51.1904 36.2042 51.1847 36.2138 51.1793 36.2235C51.1694 36.241 51.1598 36.2587 51.1501 36.2763C51.0312 36.497 50.9353 36.7293 50.8639 36.9697C50.607 37.8351 50.7193 38.5777 50.8997 38.7579C50.9499 38.8081 52.1471 39.1777 52.981 39.5487C53.2886 39.6779 53.5867 39.8287 53.873 40H74.9993V20Z" fill="#E1000F"/>
<path d="M54.7651 27.296C54.9164 27.3338 55.143 27.3338 55.143 27.4094C55.0675 27.7116 54.6138 27.7872 54.3871 28.0897H54.274C54.1607 28.1653 54.1985 28.3542 54.0851 28.3542C53.9707 28.3291 53.8512 28.3424 53.745 28.392C53.8962 28.5431 54.0851 28.6567 54.3118 28.6187C54.3769 28.6413 54.4218 28.7012 54.4252 28.7701C54.4542 28.7673 54.4812 28.7538 54.5008 28.7322C54.5387 28.7322 54.5765 28.7322 54.5765 28.7701V28.9212C54.463 29.0724 54.274 28.9967 54.1227 29.0346C54.4075 29.1102 54.7071 29.1102 54.9918 29.0346C55.2187 28.959 54.9918 28.5807 55.1431 28.392C55.0676 28.392 55.1431 28.2786 55.0676 28.2786C55.1431 28.2031 55.2187 28.0897 55.2943 28.0519C55.3841 28.0543 55.4692 28.0118 55.5211 27.9385C55.5211 27.863 55.37 27.8252 55.4077 27.7494C55.6344 27.5985 55.8233 27.3716 55.7479 27.1449C55.71 27.0315 55.4077 27.0315 55.2187 26.9559C55.0296 26.8804 54.8029 26.9559 54.5763 26.9937C54.3872 26.9937 54.1982 27.1071 54.0093 27.1449C53.7519 27.2328 53.5097 27.3602 53.2916 27.5227C53.5622 27.4249 53.8403 27.3491 54.1231 27.296C54.3495 27.296 54.542 27.2402 54.7651 27.296Z" fill="#808080"/>
<mask id="mask0" mask-type="alpha" maskUnits="userSpaceOnUse" x="18" y="20" width="57" height="20">
<rect x="18" y="20" width="57" height="20" fill="#C4C4C4"/>
</mask>
<g mask="url(#mask0)">
</g>
<path d="M20.163 66H23.145V60.057H24.678L28.605 66H32.112L27.513 59.49C29.025 58.797 29.886 57.474 29.886 55.689C29.886 52.959 27.891 51.3 24.657 51.3H20.163V66ZM24.825 53.778C26.085 53.778 26.82 54.534 26.82 55.647C26.82 56.844 26.085 57.579 24.825 57.579H23.145V53.778H24.825ZM39.9179 50.04L42.6479 47.205H39.5819L37.2089 50.04H39.9179ZM34.3109 66H42.8789V63.522H37.2929V59.742H42.0389V57.264H37.2929V53.778H42.8789V51.3H34.3109V66ZM46.654 66H49.636V60.057H51.505C54.739 60.057 56.713 58.398 56.713 55.689C56.713 52.959 54.739 51.3 51.505 51.3H46.654V66ZM51.631 53.778C52.891 53.778 53.647 54.534 53.647 55.647C53.647 56.844 52.891 57.579 51.631 57.579H49.636V53.778H51.631ZM68.1584 60.498C68.1584 62.472 67.0244 63.627 65.1974 63.627C63.3284 63.627 62.2154 62.472 62.2154 60.498V51.3H59.2334V60.246C59.2334 64.11 61.5014 66.42 65.1764 66.42C68.8724 66.42 71.1404 64.11 71.1404 60.246V51.3H68.1584V60.498ZM75.1548 66H79.7958C83.1768 66 85.2558 64.362 85.2558 61.674C85.2558 60.141 84.3948 58.881 82.8408 58.188C83.8698 57.516 84.4158 56.487 84.4158 55.29C84.4158 52.812 82.5468 51.3 79.4808 51.3H75.1548V66ZM79.5438 53.778C80.6778 53.778 81.3498 54.387 81.3498 55.416C81.3498 56.487 80.6778 57.096 79.5438 57.096H78.1368V53.778H79.5438ZM79.9638 59.574C81.3498 59.574 82.1898 60.288 82.1898 61.548C82.1898 62.787 81.3498 63.522 79.9638 63.522H78.1368V59.574H79.9638ZM88.6259 66H97.1939V63.291H91.6079V51.3H88.6259V66ZM100.128 66H103.11V51.3H100.128V66ZM119.856 65.622L118.974 64.782C120.78 63.354 121.872 61.107 121.872 58.65C121.872 54.45 118.701 50.88 114.081 50.88C109.44 50.88 106.269 54.45 106.269 58.65C106.269 62.85 109.44 66.42 114.081 66.42C114.795 66.42 115.467 66.336 116.097 66.168L117.84 67.722C119.289 68.982 120.801 69.654 122.439 69.654C123.09 69.654 123.51 69.57 123.993 69.381V66.861C123.678 66.987 123.258 67.029 122.943 67.029C121.998 67.029 120.99 66.651 119.856 65.622ZM114.081 63.627C111.309 63.627 109.335 61.464 109.335 58.65C109.335 55.836 111.309 53.673 114.081 53.673C116.832 53.673 118.806 55.836 118.806 58.65C118.806 61.464 116.832 63.627 114.081 63.627ZM133.709 60.498C133.709 62.472 132.575 63.627 130.748 63.627C128.879 63.627 127.766 62.472 127.766 60.498V51.3H124.784V60.246C124.784 64.11 127.052 66.42 130.727 66.42C134.423 66.42 136.691 64.11 136.691 60.246V51.3H133.709V60.498ZM140.706 66H149.274V63.522H143.688V59.742H148.434V57.264H143.688V53.778H149.274V51.3H140.706V66ZM20.163 87H23.145V80.742H27.891V78.264H23.145V74.778H28.731V72.3H20.163V87ZM31.6653 87H34.6473V81.057H36.1803L40.1073 87H43.6143L39.0153 80.49C40.5273 79.797 41.3883 78.474 41.3883 76.689C41.3883 73.959 39.3933 72.3 36.1593 72.3H31.6653V87ZM36.3273 74.778C37.5873 74.778 38.3223 75.534 38.3223 76.647C38.3223 77.844 37.5873 78.579 36.3273 78.579H34.6473V74.778H36.3273ZM44.6009 87H47.7719L49.1789 83.178H55.0589L56.4659 87H59.6369L54.0719 72.3H50.1659L44.6009 87ZM50.1029 80.637L52.1189 75.114L54.1349 80.637H50.1029ZM62.2169 87H65.1989V76.374L71.7719 87H75.5939V72.3H72.6119V82.926L66.0389 72.3H62.2169V87ZM86.5672 84.627C83.7952 84.627 81.8212 82.464 81.8212 79.65C81.8212 76.836 83.7952 74.673 86.5672 74.673C88.2472 74.673 89.5702 75.492 90.4102 76.689L92.7622 74.862C91.4182 73.077 89.2342 71.88 86.5672 71.88C81.9262 71.88 78.7551 75.45 78.7551 79.65C78.7551 83.388 81.2752 86.622 85.0972 87.294L83.2491 90.381H85.8952L87.7222 87.336C89.8642 87.063 91.6282 85.971 92.7622 84.417L90.4102 82.611C89.5702 83.808 88.2472 84.627 86.5672 84.627ZM93.7095 87H96.8805L98.2875 83.178H104.168L105.575 87H108.746L103.181 72.3H99.2745L93.7095 87ZM99.2115 80.637L101.228 75.114L103.244 80.637H99.2115ZM111.325 87H114.307V72.3H111.325V87ZM117.403 84.963C118.705 86.517 120.364 87.42 122.842 87.42C125.551 87.42 127.693 85.761 127.735 82.989C127.735 77.949 121.057 78.705 121.057 76.038C121.057 75.156 121.75 74.484 122.8 74.484C123.913 74.484 124.879 75.219 125.74 76.332L127.924 74.358C126.664 72.867 124.984 71.88 122.779 71.88C119.965 71.88 118.033 73.812 118.033 76.143C118.033 81.12 124.711 80.385 124.711 83.094C124.711 84.144 123.997 84.774 122.821 84.774C121.624 84.774 120.448 84.102 119.566 82.968L117.403 84.963ZM131.172 87H139.74V84.522H134.154V80.742H138.9V78.264H134.154V74.778H139.74V72.3H131.172V87Z" fill="#1E1E1E"/>
<path fill-rule="evenodd" clip-rule="evenodd" d="M71.96 121.7L70.1 123.4H69.62L70.72 121.46H71.96V121.7ZM70.62 128.28H70.22C69.72 128.88 69.16 129.36 68.62 129.36C68.06 129.36 67.78 129.02 67.78 128.28C67.78 127.98 67.82 127.66 67.88 127.38L71.14 126.3C71.78 124.78 71.02 124.12 70.12 124.12C68.58 124.12 66.82 126.82 66.82 128.98C66.82 130 67.3 130.56 68.06 130.56C68.94 130.54 69.86 129.68 70.62 128.28ZM69.5 125C69.94 125 70.32 125.34 70.12 126.12L68.1 126.66C68.42 125.7 69.02 125 69.5 125ZM63.14 125.04H64.22L62.5 129.76C62.34 130.16 62.56 130.56 62.98 130.56C64.2 130.56 65.66 129.52 66.22 128.04H65.92C65.48 128.66 64.52 129.34 63.8 129.46L65.38 125.04H67L67.2 124.36H65.62L66.22 122.66H65.6L64.48 124.36L63.14 124.54V125.04ZM61.64 124.14C61.86 124.14 62.16 124.38 62.02 124.82L60.08 129.52C60.58 129.44 61.1 128.96 61.4 128.52H61.72C61.26 129.7 60.22 130.56 59.32 130.56C59.1 130.56 58.78 130.32 58.94 129.88L60.74 125.18C60.24 125.26 59.72 125.74 59.42 126.18H59.12C59.58 124.98 60.7 124.14 61.64 124.14ZM62.2 122.94C62.6 122.94 62.94 122.62 62.94 122.2C62.94 121.8 62.6 121.46 62.2 121.46C61.78 121.46 61.46 121.8 61.46 122.2C61.46 122.6 61.8 122.94 62.2 122.94ZM53.46 126.84C53.9 125.88 53.74 125.44 53.46 125.44C53.22 125.44 52.94 125.7 52.66 126.18H52.36C52.82 125.16 53.42 124.14 54.08 124.14C54.64 124.14 54.84 124.7 54.84 125.32V126.2C54.931 126.094 55.0195 125.99 55.106 125.889L55.1061 125.889C55.951 124.897 56.5961 124.14 57.34 124.14C57.92 124.14 58.22 124.5 58.22 125.04C58.22 125.36 58.12 125.76 57.9 126.18L56.24 129.52C56.74 129.44 57.26 128.96 57.56 128.52H57.86C57.4 129.72 56.28 130.56 55.34 130.56C54.92 130.56 54.68 130.12 54.86 129.76L56.78 126.06C57 125.64 57.04 125.36 56.7 125.36C56.24 125.36 55.16 126.12 54.58 126.82L53.32 130.14C53.18 130.48 53.04 130.56 52.72 130.56C52.2 130.56 51.94 130.22 52.18 129.68L53.46 126.84ZM52.16 125.56C52.38 124.8 52.26 124.12 51.68 124.12C50.9567 124.12 50.7302 124.598 50.0292 126.076L49.98 126.18V125.3C49.98 124.68 49.78 124.12 49.22 124.12C48.56 124.12 47.96 125.14 47.5 126.16H47.8C48.12 125.7 48.42 125.42 48.66 125.42C48.94 125.42 49.1 125.86 48.66 126.82L47.38 129.66C47.14 130.2 47.4 130.54 47.92 130.54C48.24 130.54 48.38 130.46 48.52 130.12L49.78 126.8C50.14 126.36 50.46 125.98 50.86 125.56H52.16ZM45.84 126.12C46.04 125.34 45.66 125 45.22 125C44.74 125 44.14 125.7 43.82 126.66L45.84 126.12ZM46.34 128.28H45.94C45.44 128.88 44.88 129.36 44.34 129.36C43.78 129.36 43.5 129.02 43.5 128.28C43.5 127.98 43.54 127.66 43.6 127.38L46.86 126.3C47.5 124.78 46.74 124.12 45.84 124.12C44.3 124.12 42.54 126.82 42.54 128.98C42.54 130 43.02 130.56 43.78 130.56C44.66 130.54 45.58 129.68 46.34 128.28ZM39.94 125.04H38.86V124.54L40.2 124.36L41.32 122.66H41.94L41.34 124.36H42.92L42.72 125.04H41.1L39.52 129.46C40.24 129.34 41.2 128.66 41.64 128.04H41.94C41.38 129.52 39.92 130.56 38.7 130.56C38.28 130.56 38.06 130.16 38.22 129.76L39.94 125.04ZM33.14 128.7C33.14 127.24 34.76 125.28 35.66 125.28C35.86 125.28 36.06 125.3 36.22 125.36L35.28 127.88C34.74 128.54 33.9 129.34 33.5 129.34C33.28 129.34 33.14 129.14 33.14 128.7ZM37.6 123.82L38.1 123.86L36.36 127.86C35.94 128.82 36.12 129.26 36.36 129.26C36.6 129.26 36.9 128.98 37.22 128.52H37.52C37.06 129.54 36.46 130.56 35.8 130.56C35.24 130.56 34.9 129.96 35 128.88L35.04 128.5L34.9311 128.652C34.2147 129.654 33.5664 130.56 32.9 130.56C32.32 130.56 32.02 130.2 32.02 129.66C32.02 127.34 34.56 124.38 36.94 124.38H37.04L37.6 123.82ZM33.02 125.56C33.24 124.8 33.12 124.12 32.54 124.12C31.8167 124.12 31.5902 124.598 30.8892 126.076L30.84 126.18V125.3C30.84 124.68 30.64 124.12 30.08 124.12C29.42 124.12 28.82 125.14 28.36 126.16H28.66C28.98 125.7 29.28 125.42 29.5 125.42C29.78 125.42 29.94 125.86 29.5 126.82L28.22 129.68C27.98 130.22 28.24 130.56 28.76 130.56C29.08 130.56 29.22 130.48 29.36 130.14L30.62 126.82C30.98 126.38 31.3 126 31.7 125.58H33.02V125.56ZM24.78 129.96L24.66 130.32H20L20.12 129.94C21.56 129.68 21.8 129.56 22.4 127.94L23.7 124.46C24.28 122.84 24.16 122.72 22.9 122.46L23.02 122.1H29.08L28.72 124.04H28.28C28.28 122.88 28.16 122.58 27.06 122.58H26.78C25.7 122.58 25.56 122.74 25.26 123.58L24.4 125.92H25.66C26.5 125.92 26.82 125.4 27.2 124.72H27.64L26.6 127.56H26.16C26.26 126.7 26.26 126.36 25.48 126.36H24.22L23.64 127.96C23.013 129.625 23.1922 129.659 24.6851 129.942C24.7162 129.948 24.7478 129.954 24.78 129.96Z" fill="black"/>
<path fill-rule="evenodd" clip-rule="evenodd" d="M28.74 106.4L26.88 107.74V107.76H26.4L27.5 106.16H28.74V106.4ZM41.74 115.78L44.72 107.86L44.62 107.74L42.56 107.98V108.22L42.96 108.52C43.3015 108.786 43.2111 109.033 42.9277 109.809L42.88 109.94L40.6 116.02C40.42 116.38 40.66 116.82 41.08 116.82C42.02 116.82 43.02 115.96 43.48 114.78H43.18C42.86 115.22 42.22 115.7 41.74 115.78ZM55.4 109.68L57.26 107.98V107.74H56.02L54.92 109.68H55.4ZM55.52 114.54H55.92C55.18 115.96 54.26 116.82 53.38 116.82C52.62 116.82 52.14 116.26 52.14 115.24C52.14 113.08 53.9 110.38 55.44 110.38C56.32 110.38 57.1 111.04 56.46 112.56L53.18 113.64C53.12 113.92 53.08 114.24 53.08 114.54C53.08 115.28 53.36 115.62 53.92 115.62C54.46 115.62 55.02 115.14 55.52 114.54ZM55.42 112.38C55.62 111.62 55.24 111.28 54.8 111.28C54.34 111.28 53.74 111.98 53.4 112.92L55.42 112.38ZM49.54 111.32H48.46V110.82L49.8 110.64L50.92 108.94H51.54L50.94 110.64H52.52L52.32 111.32H50.7L49.12 115.74C49.84 115.62 50.8 114.94 51.24 114.32H51.54C50.98 115.8 49.52 116.84 48.3 116.84C47.88 116.84 47.66 116.44 47.82 116.04L49.54 111.32ZM47.34 111.08C47.46 110.64 47.18 110.4 46.94 110.4C46 110.4 44.88 111.26 44.42 112.44H44.72C45.02 112 45.54 111.52 46.04 111.44L44.24 116.14C44.08 116.58 44.4 116.82 44.62 116.82C45.52 116.82 46.56 115.96 47.02 114.78H46.72C46.42 115.22 45.9 115.7 45.4 115.78L47.34 111.08ZM48.26 108.48C48.26 108.88 47.92 109.22 47.52 109.22C47.12 109.22 46.78 108.88 46.78 108.48C46.78 108.08 47.1 107.74 47.52 107.74C47.92 107.74 48.26 108.08 48.26 108.48ZM38.16 111.56C37.26 111.56 35.64 113.52 35.64 114.98C35.64 115.42 35.78 115.62 36.02 115.62C36.4 115.62 37.24 114.82 37.78 114.16L38.72 111.64C38.54 111.58 38.36 111.56 38.16 111.56ZM40.6 110.14L40.1 110.1L39.54 110.66H39.44C37.06 110.66 34.52 113.62 34.52 115.94C34.52 116.48 34.82 116.84 35.4 116.84C36.0664 116.84 36.7147 115.934 37.4311 114.932L37.54 114.78L37.5 115.16C37.4 116.24 37.74 116.84 38.3 116.84C38.96 116.84 39.56 115.82 40.02 114.8H39.72C39.4 115.26 39.1 115.54 38.86 115.54C38.62 115.54 38.44 115.1 38.86 114.14L40.6 110.14ZM30.52 116.62C29.66 116.96 29.06 117.36 29.06 117.98C29.06 118.56 29.6 118.8 30.72 118.8C32.22 118.8 33.04 118.36 33.04 117.78C33.04 117.52 32.7 117.4 31.8 117.1C31.22 116.92 30.8 116.76 30.52 116.62ZM31.52 114.16C31.12 114.16 30.98 113.82 30.98 113.46C30.98 112.3 31.54 110.86 32.44 110.86C32.84 110.86 32.98 111.2 32.98 111.56C32.96 112.74 32.4 114.16 31.52 114.16ZM32.28 116.04C33.38 116.38 34.06 116.64 34.06 117.4C34.06 118.38 32.26 119.54 30.08 119.52C28.82 119.52 27.74 119.18 27.74 118.36C27.74 117.58 28.46 116.94 30.22 116.42C29.98 116.26 29.88 116.06 29.88 115.78C29.88 115.3 30.32 114.92 31.08 114.56C30.34 114.46 29.86 113.9 29.86 113.08C29.86 111.82 30.9 110.38 32.54 110.38C32.88 110.38 33.18 110.46 33.42 110.62H35.22L35.02 111.3H33.96C34.02 111.48 34.06 111.68 34.06 111.9C34.06 113.12 33.08 114.52 31.52 114.6C31.12 114.82 30.92 115.12 30.92 115.36C30.92 115.642 31.2472 115.738 31.9702 115.949L31.9705 115.949C32.0666 115.977 32.1697 116.007 32.28 116.04ZM25.94 112.62C26.72 112.62 26.74 112.96 26.62 113.82H27.06L28.1 110.98H27.66C27.28 111.66 26.96 112.18 26.12 112.18H24.4L25.24 109.84C25.54 109 25.68 108.84 26.76 108.84H27.52C28.62 108.84 28.74 109.14 28.74 110.3H29.18L29.54 108.36H23.02L22.9 108.72C24.16 108.98 24.28 109.1 23.7 110.72L22.4 114.22C21.8 115.84 21.56 115.96 20.1 116.22L20 116.6H27.24L28.54 114.54H28.04C27.2 115.36 26.36 116.12 24.72 116.12C22.9161 116.12 22.9483 116.032 23.4895 114.545C23.5243 114.449 23.5613 114.348 23.6 114.24L24.2 112.64H25.94V112.62Z" fill="black"/>
<path fill-rule="evenodd" clip-rule="evenodd" d="M31.92 95.48C32.32 95.48 32.66 95.14 32.66 94.74C32.66 94.34 32.32 94 31.92 94C31.5 94 31.18 94.34 31.18 94.74C31.18 95.16 31.5 95.48 31.92 95.48ZM33.66 103.08C35.22 103.1 37.84 100.22 37.84 98C37.84 97.04 37.6 96.68 36.92 96.68C36.08 96.68 35.3 97.58 34.52 98.66L36.2 94.16L36.1 94.02L34.04 94.26V94.5L34.44 94.8C34.7883 95.0709 34.6873 95.3418 34.3906 96.1378L34.36 96.22L32.54 100.98C32.38 101.38 32.2 101.86 32.2 101.98C32.2 102.54 32.96 103.08 33.66 103.08ZM55.18 95.96L57.04 94.26V94.02H55.8L54.7 95.96H55.18ZM55.3 100.82H55.7C54.94 102.24 54.02 103.1 53.14 103.08C52.38 103.08 51.9 102.54 51.9 101.52C51.9 99.36 53.66 96.66 55.2 96.66C56.08 96.66 56.86 97.32 56.22 98.84L52.96 99.92C52.9 100.2 52.86 100.52 52.86 100.82C52.86 101.56 53.14 101.9 53.7 101.9C54.24 101.9 54.8 101.42 55.3 100.82ZM55.2 98.66C55.4 97.9 55.02 97.56 54.58 97.56C54.1 97.56 53.5 98.26 53.18 99.2L55.2 98.66ZM49.3 97.6H48.22V97.1L49.56 96.92L50.68 95.22H51.3L50.7 96.92H52.28L52.08 97.6H50.46L48.88 102.02C49.6 101.9 50.56 101.22 51 100.6H51.3C50.74 102.08 49.28 103.12 48.06 103.12C47.64 103.12 47.42 102.72 47.58 102.32L49.3 97.6ZM47.66 98.12C47.88 97.36 47.76 96.68 47.18 96.68C46.4567 96.68 46.2302 97.1577 45.5292 98.6362L45.48 98.74V97.86C45.48 97.24 45.28 96.68 44.72 96.68C44.06 96.68 43.46 97.7 43 98.72H43.3C43.62 98.26 43.92 97.98 44.14 97.98C44.42 97.98 44.58 98.42 44.14 99.38L42.86 102.22C42.62 102.76 42.88 103.1 43.4 103.1C43.72 103.1 43.86 103.02 44 102.68L45.26 99.36C45.62 98.92 45.94 98.54 46.34 98.12H47.66ZM41.32 98.66C41.52 97.9 41.14 97.56 40.7 97.56C40.22 97.56 39.64 98.26 39.3 99.2L41.32 98.66ZM41.82 100.82H41.42C40.92 101.42 40.36 101.9 39.82 101.9C39.26 101.9 38.98 101.56 38.98 100.82C38.98 100.52 39.02 100.2 39.08 99.92L42.34 98.84C42.98 97.32 42.22 96.66 41.32 96.66C39.78 96.66 38.02 99.36 38.02 101.52C38.02 102.54 38.5 103.08 39.26 103.08C40.14 103.1 41.06 102.24 41.82 100.82ZM33.42 101.58C33.42 101.84 33.88 102.14 34.2 102.14C35.5 102.14 36.72 99.8 36.7 98.5C36.7 98.06 36.48 97.88 36.18 97.88C35.7 97.88 34.82 98.6 34.26 99.28L33.74 100.68C33.56 101.14 33.42 101.5 33.42 101.58ZM31.32 96.68C31.56 96.68 31.84 96.92 31.72 97.36L29.8 102.06C30.3 101.98 30.82 101.5 31.12 101.06H31.42C30.96 102.24 29.92 103.1 29.02 103.1C28.78 103.1 28.46 102.86 28.62 102.42L30.42 97.72C29.92 97.8 29.4 98.28 29.1 98.72H28.8C29.26 97.54 30.38 96.68 31.32 96.68ZM23.02 94.6H27.32L27.2 94.98C25.74 95.24 25.5 95.36 24.9 96.98L23.62 100.5C23 102.18 23.16 102.38 24.26 102.38C25.619 102.38 26.5102 101.392 27.2883 100.53C27.3461 100.466 27.4033 100.402 27.46 100.34H27.96L26.54 102.86H20L20.12 102.5C21.56 102.24 21.8 102.12 22.4 100.5L23.7 96.96C24.28 95.34 24.16 95.22 22.9 94.96L23.02 94.6Z" fill="black"/>
<mask id="mask1" mask-type="alpha" maskUnits="userSpaceOnUse" x="18" y="94" width="54" height="37">
<rect x="18" y="94" width="54" height="37" fill="#C4C4C4"/>
</mask>
<g mask="url(#mask1)">
</g>
<path d="M191 133.168H287V20H191V133.168Z" fill="#00489A"/>
<path d="M193.135 131.033H284.865V22.1333H193.135V131.033Z" fill="white"/>
<path d="M220.146 83.5901C224.217 89.7386 231.202 93.7987 239.13 93.7987C251.696 93.7987 261.881 83.6098 261.881 71.0456C261.881 69.8202 261.784 68.6181 261.598 67.4466C260.539 60.785 256.589 55.0869 251.074 51.678C247.602 49.5322 243.511 48.2943 239.13 48.2943C235.264 48.2943 231.62 49.2577 228.433 50.9586C225.749 52.3921 223.388 54.3459 221.481 56.6854C218.821 59.9525 217.05 63.9696 216.533 68.3706C216.431 69.2497 216.377 70.1396 216.377 71.0456C216.377 75.6816 217.764 79.9947 220.146 83.5901Z" fill="#8F9ACE"/>
<path d="M251.023 52.3593L247.46 53.1182L249.917 54.532L250.746 53.5667L251.753 52.9226L251.023 52.3593ZM251.075 51.6829C256.59 55.0917 260.54 60.7899 261.599 67.4532L261.597 67.4479L259.819 68.9693L258.684 68.702L258.152 69.1684L258.19 69.4842C258.208 69.6277 258.273 69.9238 258.382 70.3651C258.61 71.2711 258.725 72.1754 258.725 73.0563C258.725 73.8762 258.693 74.1435 258.51 74.9365L257.541 74.9419L254.817 72.7334L252.741 73.2016L251.403 72.9738L249.704 73.4941L250.472 74.1561L251.805 73.7793L252.957 74.7015L252.775 75.1052L252.3 75.8713L251.277 77.3353L249.7 78.6073L246.785 75.5824L246.031 75.6632L249.141 79.2263L250.402 78.9733L250.716 79.6174L249.446 81.6932L246.977 84.0507L245.866 86.8657C245.841 86.9374 245.725 87.0271 245.547 87.1133C245.19 87.2837 244.772 87.5905 244.307 88.0265C243.712 88.5844 243.378 88.893 243.306 88.9558C242.815 89.3864 242.226 89.8367 241.539 90.2978C240.857 90.7589 240.175 91.1626 239.499 91.5071C238.304 92.1153 236.962 92.4526 235.747 92.4526C234.951 92.4526 234.142 92.318 233.356 92.0507C233.248 92.0148 233.178 91.961 233.178 91.9125L233.717 90.3893C233.74 90.3176 234.197 89.8009 235.057 88.8625C235.446 88.4373 235.762 87.8632 235.982 87.1761C236.309 86.1642 236.539 85.5416 236.675 85.3227C237.168 84.5261 237.403 83.8462 237.238 83.6793L234.013 80.4355L232.66 77.9202L232.803 77.3245C232.904 76.9101 233.232 76.1817 233.86 74.9814C234.199 74.3301 234.479 73.9874 234.789 73.8349L236.948 72.771L241.137 73.4026L242.413 74.2548L243.014 74.1812L245.572 74.8468L246.213 73.1801L242.96 72.2651L241.81 71.1204L241.65 71.1635L242.188 72.5234L241.539 72.6526L241.469 72.4929L241.695 72.4517C241.706 72.466 241.501 71.6156 240.995 71.377C240.814 71.2945 240.696 71.2137 240.511 71.2137C240.263 71.2137 239.856 71.3662 239.646 71.5618C238.936 72.2166 238.379 72.6652 238.327 72.6257L236.993 71.6156L237.488 70.3705L237.692 70.4207C237.813 70.4494 237.942 70.4638 238.071 70.4638C238.491 70.4638 238.749 70.2198 238.801 69.9794C238.866 69.6798 238.659 69.5326 238.659 69.5326C238.667 69.5255 238.532 69.3909 238.532 69.3909C238.532 69.407 238.724 69.1738 238.715 69.1738C238.71 69.1738 239.223 69.3048 239.515 69.3209C239.856 69.3407 240.19 69.2635 240.326 69.1128L240.649 68.6015L241.194 68.4508L241.29 67.7295L241.623 67.7529C241.623 67.7529 241.812 68.0112 241.889 68.3593L242.829 68.1153L243.107 67.15L242.956 66.9796L243.369 66.0556L243.012 65.8027L242.407 67.5089L242.075 67.5519L241.928 67.1716L241.08 67.2362L240.604 66.4737L241.636 65.4115L242.64 64.0641L244.058 64.5091L244.404 65.2106L244.836 65.1998L244.679 64.1772L245.839 63.0881L245.066 59.5896L245.561 58.4916L246.123 58.5239L246.198 57.6609L242.499 53.608L242.617 52.5136L245.68 51.8157L246.119 51.9466L247.861 51.778L248.265 51.9592L251.075 51.6793V51.6829ZM220.144 83.5896L221.717 82.2871L223.009 82.6118L226.463 80.0121L226.63 78.6253L224.358 75.3151C224.322 75.2667 224.175 73.198 223.736 71.6479C223.504 70.8388 222.975 68.4849 222.954 68.4364L222.654 67.8372L220.496 64.5952L221.897 61.0913L223.015 61.0428L223.081 60.5279L222.254 59.8354L222.229 59.6865L222.202 59.0298C222.202 58.5831 222.959 58.1346 223.463 58.1346C223.598 58.1346 223.739 58.1543 223.887 58.1956C224.24 58.2925 224.574 58.5831 224.873 58.802C224.929 58.8415 225.869 61.0357 225.869 61.0357L225.071 61.6762L224.68 62.6378L225.225 63.0648L225.984 61.7533L229.133 62.8101L231.063 63.9099L231.648 63.2693L233.268 63.4039L234.452 61.791L233.381 61.3837L234.504 60.031L234.371 59.577L232.658 59.2451L233.971 57.869L235.216 58.6818L235.191 59.046L235.997 59.1465L236.677 57.8547L236.201 57.4367L238.207 55.508L240.021 54.6611L241.433 53.7354L241.706 53.5201L241.763 52.5261L241.523 51.8228L240.898 51.5824L241.699 50.9545L241.478 50.8361C240.943 51.1931 239.675 52.0633 237.461 52.2211C235.886 52.3324 232.699 51.6309 232.699 51.6309L229.538 51.1572L228.435 50.9617C225.751 52.3934 223.39 54.3436 221.482 56.6849L221.387 59.6703L220.91 61.0339L219.78 64.9845L220.144 66.0987L218.348 66.3535L216.536 68.37C216.436 69.2474 216.383 70.1408 216.383 71.0451C216.383 75.6811 217.769 79.9942 220.149 83.5896H220.144ZM223.691 68.946L223.791 69.3765L224.202 69.2402L224.066 68.806L223.691 68.946ZM240.681 71.9242L240.396 71.8883L240.376 72.4266L240.663 72.4786L240.834 71.7879L240.744 71.752L240.681 71.9242ZM248.306 89.0599C248.306 89.0671 248.061 88.789 248.061 88.789C248.062 88.7979 247.68 89.0204 247.68 89.0204C247.68 89.0204 247.969 89.3075 247.96 89.3075L248.306 89.0599ZM248.836 86.2951L248.118 86.7114L247.201 86.9051L245.188 88.8841L245.312 89.3236L245.604 89.2842L246.753 88.789C247.052 88.6616 247.994 88.1341 248.484 87.6066C248.945 87.1061 249.085 86.9123 249.352 86.4046L248.836 86.2951ZM238.155 68.397L238.652 68.5351L238.801 68.074L238.448 67.9897L238.155 68.397ZM239.492 67.4156C239.492 67.4156 238.914 68.8293 238.914 68.8365C238.914 68.8365 239.826 68.9226 239.826 68.9298L240.041 67.7672L239.883 67.6488L239.991 67.2523L239.533 67.0011L239.384 67.3007L239.492 67.4156ZM224.378 68.7396C224.385 68.7396 224.696 68.6176 224.696 68.6176L224.574 68.3503C224.574 68.3503 224.394 68.5046 224.398 68.5225L224.378 68.7396V68.7396ZM224.152 67.882L224.278 68.1835L224.647 68.0184C224.647 68.0184 224.547 67.7421 224.534 67.7421L224.152 67.882ZM223.903 66.8881L223.974 67.3528L224.414 67.351L224.355 66.8522L223.903 66.8881ZM223.488 66.0269L223.714 66.3822L224.148 66.4467L224.342 65.5748L223.634 65.4026L223.488 66.0269ZM223.111 64.9164L223.826 65.0025L224.046 63.316L224.052 62.8083L223.926 62.2951L223.558 62.2664L223.111 64.9164ZM238.946 55.7717L236.887 57.4097L237.619 57.9372L239.262 56.2633L238.946 55.7717ZM237.133 58.5939L236.842 58.5813L236.28 59.6022L235.407 59.6703L234.409 61.1074L234.953 61.4501L236.296 60.5961L237.323 59.4999L237.133 58.5939ZM236.634 60.989L235.618 61.8843V62.4925L237.233 62.8908L240.452 60.7055L240.366 59.8139L239.09 59.3725L236.634 60.989ZM231.756 63.6461L232.967 63.8399L232.55 64.6365L231.51 64.0624L231.756 63.6461Z" fill="#00489A"/>
<path d="M211.044 33.3242L209.901 36.7187H212.115L211.044 33.3242ZM213.525 41.2202L212.937 39.3256H209.028L208.401 41.2202H205.134L209.758 28.5016H212.169L216.792 41.2202H213.525Z" fill="#E42313"/>
<path d="M226.35 32.0026C226.064 31.5738 225.636 31.2885 224.85 31.2885H223.475V38.4327H224.85C225.636 38.4327 226.064 38.1475 226.35 37.7187C226.599 37.3617 226.689 37.0226 226.689 34.8606C226.689 32.7167 226.599 32.3596 226.35 32.0026ZM228.492 39.9685C227.616 40.8441 226.386 41.219 225.063 41.219H220.35V28.5023H225.063C226.386 28.5023 227.616 28.8772 228.492 29.7528C229.974 31.2347 229.812 32.8602 229.812 34.8606C229.812 36.8611 229.974 38.4866 228.492 39.9685Z" fill="#E42313"/>
<path d="M234.057 41.2194V28.5009H242.697V31.2871H237.18V33.4132H241.895V36.1995H237.18V38.4331H242.697V41.2194H234.057Z" fill="#E42313"/>
<path d="M255.759 41.2194V35.1284L253.956 38.2717H251.955L250.152 35.1284V41.2194H247.028V28.5009H250.1L252.956 34.1111L255.812 28.5009H258.882V41.2194H255.759Z" fill="#E42313"/>
<path d="M263.517 41.2194V28.5009H272.158V31.2871H266.641V33.4132H271.356V36.1995H266.641V38.4331H272.158V41.2194H263.517Z" fill="#E42313"/>
<path d="M207.591 104.635L208.199 102.832L208.768 104.635H207.591ZM207.666 100.954L205.642 106.519H206.963L207.243 105.67H209.093L209.356 106.519H210.679L208.653 100.954H207.666Z" fill="#E42313"/>
<path d="M214.287 106.566C214.993 106.566 215.474 106.382 215.896 105.947V105.946C216.301 105.533 216.454 105.031 216.454 104.096V103.371H214.353V104.406H215.194V104.553C215.194 104.824 215.11 105.058 214.958 105.208C214.807 105.37 214.581 105.45 214.287 105.45C214.032 105.45 213.811 105.355 213.682 105.185C213.547 105.009 213.459 104.814 213.459 103.737C213.459 102.668 213.547 102.472 213.682 102.295C213.813 102.122 214.039 102.022 214.287 102.022C214.762 102.022 215.024 102.214 215.155 102.661H216.434C216.33 102.077 215.919 100.906 214.287 100.906C213.653 100.906 213.18 101.098 212.749 101.527C212.191 102.085 212.191 102.842 212.193 103.642V103.832C212.191 104.632 212.191 105.388 212.749 105.946C213.172 106.369 213.66 106.566 214.287 106.566Z" fill="#E42313"/>
<path d="M219.862 104.27H221.976V103.154H219.862V102.068H222.335V100.954H218.596V106.52H222.335V105.404H219.862V104.27Z" fill="#E42313"/>
<path d="M228.818 106.518V100.953H227.551V103.982L225.622 100.953H224.501V106.518H225.768V103.492L227.696 106.518H228.818Z" fill="#E42313"/>
<path d="M233.841 104.844C233.756 105.118 233.581 105.452 233.062 105.452C232.807 105.452 232.587 105.355 232.457 105.185C232.323 105.009 232.228 104.802 232.228 103.737C232.228 102.671 232.323 102.463 232.457 102.287C232.587 102.118 232.807 102.022 233.062 102.022C233.581 102.022 233.756 102.353 233.841 102.63H235.136C234.924 101.534 234.171 100.906 233.055 100.906C232.429 100.906 231.939 101.103 231.517 101.528C230.959 102.084 230.959 102.841 230.961 103.64V103.832C230.959 104.632 230.959 105.387 231.517 105.945C231.939 106.369 232.429 106.566 233.055 106.566C234.171 106.566 234.924 105.94 235.136 104.844H233.841Z" fill="#E42313"/>
<path d="M238.326 104.27H240.44V103.154H238.326V102.068H240.798V100.954H237.06V106.52H240.798V105.404H238.326V104.27Z" fill="#E42313"/>
<path d="M249.287 105.057C249.127 105.294 248.897 105.405 248.558 105.405H247.877V102.072H248.558C248.897 102.072 249.127 102.183 249.287 102.42C249.412 102.601 249.45 102.797 249.45 103.739C249.45 104.734 249.409 104.883 249.287 105.057ZM250.718 103.979C250.717 103.9 250.717 103.819 250.717 103.739C250.717 103.656 250.717 103.577 250.718 103.496C250.724 102.705 250.729 102.081 250.144 101.498C249.791 101.142 249.276 100.956 248.655 100.956H246.61V106.521H248.655C249.276 106.521 249.791 106.333 250.144 105.979C250.729 105.396 250.724 104.77 250.718 103.979" fill="#E42313"/>
<path d="M254.127 104.272H256.241V103.156H254.127V102.07H256.599V100.956H252.861V106.522H256.599V105.406H254.127V104.272Z" fill="#E42313"/>
<path d="M263.68 100.954H262.413V106.519H266.073V105.403H263.68V100.954Z" fill="#E42313"/>
<path d="M269.249 104.635L269.857 102.832L270.426 104.635H269.249ZM271.015 106.519H272.337L270.311 100.954H269.324L267.301 106.519H268.621L268.901 105.67H270.751L271.015 106.519Z" fill="#E42313"/>
<path d="M207.256 115.589H208.525V111.14H209.928V110.024H205.853V111.14H207.256V115.589Z" fill="#E42313"/>
<path d="M215.364 112.433H214.505V111.149H215.364C215.804 111.149 216.041 111.479 216.041 111.791C216.041 112.101 215.804 112.433 215.364 112.433ZM216.417 113.219C216.625 113.115 217.309 112.702 217.309 111.791C217.309 110.914 216.663 110.024 215.429 110.024H213.236V115.589H214.505V113.468H215.086L216.096 115.589H217.571L216.356 113.25L216.417 113.219Z" fill="#E42313"/>
<path d="M222.22 113.706L222.828 111.903L223.399 113.706H222.22ZM222.295 110.024L220.268 115.59H221.592L221.872 114.741H223.723L223.989 115.59H225.311L223.284 110.024H222.295Z" fill="#E42313"/>
<path d="M228.407 110.024V115.59H229.675V112.561L231.606 115.59H232.729V110.024H231.46V113.051L229.53 110.024H228.407Z" fill="#E42313"/>
<path d="M238.581 112.257L237.892 112.161C237.709 112.138 237.563 112.075 237.461 111.975C237.343 111.855 237.328 111.716 237.328 111.663C237.328 111.376 237.565 111.067 238.085 111.067H238.128C238.38 111.067 238.814 111.065 239.165 111.377L239.955 110.592C239.503 110.166 238.936 109.976 238.125 109.976C236.919 109.976 236.108 110.672 236.108 111.711C236.108 112.183 236.234 112.553 236.481 112.809C236.727 113.06 237.099 113.224 237.59 113.294L238.279 113.389C238.464 113.414 238.604 113.471 238.694 113.559C238.783 113.658 238.825 113.783 238.825 113.943C238.825 114.207 238.672 114.522 237.94 114.522C237.682 114.522 237.054 114.485 236.668 114.148L235.864 114.951C236.356 115.43 236.98 115.637 237.933 115.637C238.997 115.637 240.07 115.104 240.07 113.911C240.07 113.369 239.939 112.976 239.666 112.71C239.433 112.477 239.067 112.325 238.581 112.257Z" fill="#E42313"/>
<path d="M244.752 110.024H243.484V115.589H244.752V110.024Z" fill="#E42313"/>
<path d="M249.461 115.589H250.731V111.14H252.132V110.024H248.058V111.14H249.461V115.589Z" fill="#E42313"/>
<path d="M255.44 115.589H256.708V110.024H255.44V115.589Z" fill="#E42313"/>
<path d="M262.888 114.24C262.784 114.376 262.567 114.522 262.274 114.522C261.98 114.522 261.765 114.376 261.659 114.24C261.521 114.059 261.436 113.872 261.436 112.807C261.436 111.737 261.524 111.542 261.659 111.366C261.792 111.194 262.021 111.091 262.274 111.091C262.525 111.091 262.755 111.194 262.888 111.366C263.022 111.542 263.11 111.737 263.11 112.807C263.11 113.872 263.026 114.059 262.888 114.24ZM264.379 112.711C264.381 111.911 264.381 111.156 263.821 110.596C263.39 110.167 262.915 109.975 262.274 109.975C261.634 109.975 261.157 110.167 260.726 110.598C260.168 111.156 260.168 111.911 260.168 112.711V112.902C260.168 113.702 260.168 114.457 260.726 115.017C261.157 115.446 261.634 115.638 262.274 115.638C262.915 115.638 263.39 115.446 263.821 115.017C264.381 114.457 264.381 113.702 264.379 112.902V112.711Z" fill="#E42313"/>
<path d="M272.161 115.589V110.024H270.892V113.052L268.962 110.024H267.839V115.589H269.107V112.562L271.038 115.589H272.161Z" fill="#E42313"/>
<path d="M207.131 122.416H209.251V121.297H207.131V120.208H209.614V119.088H205.859V124.673H209.614V123.554H207.131V122.416Z" fill="#E42313"/>
<path d="M207.666 117.081L207.309 118.392H207.98L208.841 117.081H207.666Z" fill="#E42313"/>
<path d="M215.656 120.769H216.957C216.745 119.67 215.988 119.04 214.866 119.04C214.238 119.04 213.749 119.239 213.325 119.662C212.764 120.224 212.764 120.981 212.766 121.785V121.977C212.764 122.779 212.764 123.538 213.325 124.097C213.749 124.523 214.238 124.722 214.866 124.722C215.988 124.722 216.745 124.092 216.957 122.99H215.656C215.572 123.267 215.394 123.6 214.875 123.6C214.619 123.6 214.398 123.504 214.269 123.335C214.133 123.157 214.038 122.949 214.038 121.88C214.038 120.812 214.133 120.604 214.269 120.427C214.398 120.256 214.619 120.159 214.875 120.159C215.394 120.159 215.572 120.493 215.656 120.769Z" fill="#E42313"/>
<path d="M222.591 123.319C222.454 123.497 222.225 123.601 221.975 123.601C221.726 123.601 221.496 123.497 221.36 123.319C221.222 123.138 221.137 122.95 221.137 121.88C221.137 120.804 221.222 120.615 221.36 120.434C221.493 120.262 221.722 120.16 221.975 120.16C222.228 120.16 222.458 120.262 222.591 120.434C222.729 120.615 222.813 120.804 222.813 121.88C222.813 122.95 222.729 123.138 222.591 123.319ZM221.975 119.04C221.333 119.04 220.854 119.232 220.423 119.663C219.864 120.224 219.864 120.981 219.865 121.785V121.975C219.864 122.779 219.864 123.538 220.423 124.098C220.854 124.528 221.333 124.722 221.975 124.722C222.618 124.722 223.095 124.528 223.527 124.098C224.085 123.538 224.085 122.779 224.085 121.977V121.783C224.085 120.981 224.085 120.222 223.527 119.663C223.097 119.232 222.618 119.04 221.975 119.04" fill="#E42313"/>
<path d="M228.671 119.088H227.399V124.673H231.071V123.554H228.671V119.088Z" fill="#E42313"/>
<path d="M236.565 123.319C236.428 123.497 236.199 123.601 235.949 123.601C235.655 123.601 235.438 123.455 235.334 123.319C235.196 123.138 235.112 122.95 235.112 121.88C235.112 120.807 235.2 120.612 235.334 120.434C235.467 120.262 235.696 120.16 235.949 120.16C236.202 120.16 236.432 120.262 236.565 120.434C236.703 120.615 236.787 120.804 236.787 121.88C236.787 122.95 236.703 123.138 236.565 123.319ZM235.949 119.04C235.307 119.04 234.828 119.232 234.399 119.663C233.838 120.224 233.84 120.981 233.84 121.785V121.975C233.84 122.779 233.838 123.538 234.399 124.098C234.828 124.528 235.307 124.722 235.949 124.722C236.592 124.722 237.069 124.528 237.501 124.098C238.061 123.538 238.059 122.779 238.059 121.975V121.785C238.059 120.981 238.061 120.224 237.501 119.663C237.071 119.232 236.592 119.04 235.949 119.04" fill="#E42313"/>
<path d="M244.161 120.803H245.445C245.341 120.216 244.931 119.041 243.291 119.041C242.654 119.041 242.178 119.233 241.748 119.663C241.188 120.223 241.188 120.982 241.19 121.786V121.976C241.188 122.78 241.188 123.537 241.748 124.098C242.173 124.524 242.663 124.721 243.291 124.721C243.999 124.721 244.484 124.534 244.905 124.098C245.313 123.684 245.465 123.18 245.465 122.241V121.513H243.359V122.552H244.2V122.699C244.2 122.972 244.118 123.205 243.965 123.357C243.813 123.519 243.585 123.601 243.291 123.601C243.036 123.601 242.813 123.504 242.684 123.334C242.55 123.158 242.462 122.963 242.462 121.881C242.462 120.808 242.55 120.611 242.684 120.435C242.819 120.259 243.04 120.16 243.291 120.16C243.768 120.16 244.03 120.352 244.161 120.803Z" fill="#E42313"/>
<path d="M248.778 124.673H250.05V119.088H248.778V124.673Z" fill="#E42313"/>
<path d="M256.28 122.73L256.267 122.873L255.941 122.545L255.32 123.166L255.722 123.569L255.6 123.593C255.553 123.601 255.515 123.601 255.474 123.601C255.18 123.601 254.963 123.456 254.859 123.318C254.721 123.137 254.636 122.948 254.636 121.879C254.636 120.808 254.724 120.611 254.859 120.435C254.992 120.263 255.221 120.16 255.474 120.16C255.727 120.16 255.957 120.263 256.09 120.435C256.224 120.611 256.312 120.808 256.312 121.879C256.312 122.294 256.292 122.563 256.28 122.73ZM257.265 123.797C257.586 123.284 257.584 122.647 257.584 121.972V121.786C257.584 120.982 257.586 120.223 257.024 119.662C256.596 119.233 256.117 119.041 255.474 119.041C254.832 119.041 254.355 119.233 253.924 119.663C253.363 120.223 253.364 120.982 253.364 121.786V121.976C253.364 122.78 253.363 123.537 253.924 124.098C254.355 124.529 254.832 124.721 255.474 124.721C255.899 124.721 256.251 124.637 256.549 124.464L256.594 124.439L257.024 124.87L257.645 124.249L257.238 123.842L257.265 123.797Z" fill="#E42313"/>
<path d="M262.073 122.7V119.089H260.801V122.732C260.801 123.884 261.682 124.722 262.895 124.722C264.119 124.722 265.005 123.884 265.005 122.732V119.089H263.733V122.7C263.733 123.256 263.412 123.601 262.895 123.601C262.387 123.601 262.073 123.256 262.073 122.7Z" fill="#E42313"/>
<path d="M269.679 122.416H271.8V121.297H269.679V120.208H272.161V119.088H268.407V124.673H272.161V123.554H269.679V122.416Z" fill="#E42313"/>
<mask id="mask2" mask-type="alpha" maskUnits="userSpaceOnUse" x="262" y="0" width="22" height="151">
<rect x="262" width="22" height="151" fill="#C4C4C4"/>
</mask>
<g mask="url(#mask2)">
</g>
</svg>
