<?xml version="1.0" encoding="UTF-8"?>
<svg width="26px" height="48px" viewBox="0 0 26 48" version="1.1" xmlns="http://www.w3.org/2000/svg" xmlns:xlink="http://www.w3.org/1999/xlink">
    <title>nutriscore-vertical-no-border-c</title>
    <g id="nutriscore-vertical-no-border-c" stroke="none" stroke-width="1" fill="none" fill-rule="evenodd">
        <path d="M0.3309,41.9292 L0.3309,6.0912 C0.3309,3.1532 2.7219,0.7622 5.6589,0.7622 L19.4169,0.7622 C22.3549,0.7622 24.7459,3.1532 24.7459,6.0912 L24.7459,20.5512 C25.2849,21.4602 25.6029,22.5382 25.6029,23.6962 L25.6029,24.3022 C25.6029,25.4602 25.2849,26.5372 24.7459,27.4472 L24.7459,41.9292 C24.7459,44.8682 22.3549,47.2592 19.4169,47.2592 L5.6589,47.2592 C2.7219,47.2592 0.3309,44.8682 0.3309,41.9292" id="Fill-3857" fill="#FFFFFE"></path>
        <path d="M22.8478,41.9292 L22.8478,36.8262 L8.9468,36.8262 L8.9468,41.9292 C8.9468,43.8242 10.4828,45.3602 12.3778,45.3602 L19.4168,45.3602 C21.3118,45.3602 22.8478,43.8242 22.8478,41.9292" id="Fill-3859" fill="#DC3E2A"></path>
        <path d="M22.8478,6.0908 L22.8478,11.1948 L8.9468,11.1948 L8.9468,6.0908 C8.9468,4.1958 10.4828,2.6598 12.3778,2.6598 L19.4168,2.6598 C21.3118,2.6598 22.8478,4.1958 22.8478,6.0908" id="Fill-3861" fill="#007F46"></path>
        <path d="M20.2003,17.8549 C21.1633,17.8549 22.0643,18.1309 22.8473,18.6089 L22.8473,11.1939 L8.9463,11.1939 L8.9463,18.6089 C9.7293,18.1309 10.6313,17.8549 11.5933,17.8549 L20.2003,17.8549 Z" id="Fill-3863" fill="#79BB43"></path>
        <path d="M11.5934,30.1421 C10.6314,30.1421 9.7294,29.8661 8.9464,29.3881 L8.9464,36.8261 L22.8474,36.8261 L22.8474,29.3881 C22.0644,29.8661 21.1624,30.1421 20.2004,30.1421 L11.5934,30.1421 Z" id="Fill-3865" fill="#E7792B"></path>
        <path d="M14.8243,16.373 L14.8243,14.875 L15.4423,14.875 C16.5903,14.883 16.9633,15.16 16.9633,15.597 C16.9633,16.143 16.4723,16.373 15.5203,16.373 L14.8243,16.373 Z M14.8243,14.139 L14.8243,12.672 L15.1963,12.672 C16.1883,12.672 16.5903,12.911 16.5903,13.386 C16.5903,13.824 16.2083,14.123 15.4033,14.131 L14.8243,14.139 Z M15.3543,11.874 L13.5683,11.874 L13.5683,17.172 L15.5793,17.172 C17.4733,17.172 18.2483,16.55 18.2483,15.597 C18.2483,15.076 17.8953,14.661 17.1593,14.423 C17.5813,14.154 17.8753,13.778 17.8753,13.294 C17.8753,12.511 17.1983,11.874 15.3543,11.874 L15.3543,11.874 Z" id="Fill-3867" fill="#FFFFFE"></path>
        <path d="M14.9363,7.8769 L15.8803,5.6539 L16.7863,7.8769 L14.9363,7.8769 Z M16.3293,4.2069 L15.4973,4.2069 L12.9273,9.7839 L14.1323,9.7839 L14.5823,8.7169 L17.1323,8.7169 L17.5713,9.7839 L18.8893,9.7839 L16.3293,4.2069 Z" id="Fill-3869" fill="#FFFFFE"></path>
        <path d="M24.5846,24.3022 L24.5846,23.6952 C24.5846,21.0322 22.6216,18.8732 20.2006,18.8732 L11.5936,18.8732 C9.1726,18.8732 7.2096,21.0322 7.2096,23.6952 L7.2096,24.3022 C7.2096,26.9652 9.1726,29.1242 11.5936,29.1242 L20.2006,29.1242 C22.6216,29.1242 24.5846,26.9652 24.5846,24.3022" id="Fill-3873" fill="#F9C623"></path>
        <path d="M12.0601,23.9282 C12.0601,21.5572 13.7001,20.0922 15.9151,20.0922 C17.8431,20.0922 18.6571,21.0082 19.1241,21.9782 L17.1241,22.6562 C16.8851,22.1502 16.5141,21.7832 15.8191,21.7832 C14.7781,21.7832 14.2271,22.6242 14.2271,23.9172 C14.2271,25.3502 14.8021,26.0512 15.9751,26.0512 C16.6691,26.0512 17.2081,25.6842 17.6031,25.1572 L19.1481,26.2012 C18.4651,27.1502 17.3761,27.7422 15.9151,27.7422 C13.5681,27.7422 12.0601,26.2662 12.0601,23.9282" id="Fill-3875" fill="#FFFFFE"></path>
        <polygon id="Fill-3877" fill="#FFFFFE" points="17.8339 38.3227 13.8999 38.3227 13.8999 43.8997 17.8719 43.8997 17.8719 43.0597 15.0959 43.0597 15.0959 41.4187 17.0399 41.4187 17.0399 40.5787 15.0959 40.5787 15.0959 39.1647 17.8339 39.1647"></polygon>
        <path d="M14.3553,35.3432 L14.3553,31.6572 L15.0613,31.6572 C16.6213,31.6572 17.3773,32.3332 17.3773,33.4922 C17.3773,34.5522 16.5633,35.3432 14.9043,35.3432 L14.3553,35.3432 Z M15.0713,30.8432 L13.0993,30.8432 L13.0993,36.1412 L14.9343,36.1412 C17.2593,36.1412 18.6723,35.0132 18.6723,33.4922 C18.6723,31.8342 17.3583,30.8432 15.0713,30.8432 L15.0713,30.8432 Z" id="Fill-3879" fill="#FFFFFE"></path>
        <polygon id="Fill-3882" fill="#6D6E6D" points="3.9418 35.0449 5.8378 35.0449 5.8378 35.8109 2.5218 35.8109 2.5218 35.2129 4.4688 33.6679 2.5218 33.6679 2.5218 32.9019 5.8378 32.9019 5.8378 33.5179"></polygon>
        <path d="M5.1837,30.8471 C5.1837,30.7161 5.1567,30.6061 5.1017,30.5151 C5.0477,30.4251 4.9747,30.3521 4.8847,30.2961 C4.7947,30.2401 4.6907,30.2011 4.5747,30.1771 C4.4577,30.1541 4.3387,30.1421 4.2167,30.1421 L2.5227,30.1421 L2.5227,29.3761 L4.2167,29.3761 C4.4477,29.3761 4.6627,29.4051 4.8617,29.4621 C5.0607,29.5201 5.2347,29.6091 5.3847,29.7291 C5.5337,29.8491 5.6517,30.0011 5.7367,30.1861 C5.8227,30.3721 5.8657,30.5921 5.8657,30.8471 C5.8657,31.1121 5.8207,31.3371 5.7297,31.5241 C5.6397,31.7111 5.5187,31.8631 5.3677,31.9791 C5.2177,32.0961 5.0417,32.1821 4.8427,32.2361 C4.6437,32.2901 4.4347,32.3181 4.2167,32.3181 L2.5227,32.3181 L2.5227,31.5531 L4.2167,31.5531 C4.3447,31.5531 4.4667,31.5391 4.5817,31.5151 C4.6967,31.4901 4.7987,31.4501 4.8897,31.3931 C4.9797,31.3371 5.0517,31.2651 5.1047,31.1761 C5.1577,31.0881 5.1837,30.9781 5.1837,30.8471" id="Fill-3883" fill="#6D6E6D"></path>
        <polygon id="Fill-3885" fill="#6D6E6D" points="3.1946 26.2617 3.1946 27.2707 5.8376 27.2707 5.8376 28.0367 3.1946 28.0367 3.1946 29.0497 2.5226 29.0497 2.5226 26.2617"></polygon>
        <path d="M5.8374,25.8838 L2.5224,25.8838 L2.5224,24.3898 C2.5224,24.2338 2.5554,24.0898 2.6204,23.9578 C2.6854,23.8248 2.7714,23.7108 2.8774,23.6138 C2.9834,23.5178 3.1024,23.4428 3.2364,23.3878 C3.3704,23.3338 3.5054,23.3058 3.6424,23.3058 C3.7454,23.3058 3.8444,23.3188 3.9394,23.3438 C4.0344,23.3688 4.1234,23.4048 4.2084,23.4508 C4.2914,23.4978 4.3674,23.5548 4.4344,23.6208 C4.5014,23.6888 4.5584,23.7638 4.6044,23.8478 L5.8374,23.0868 L5.8374,23.9508 L4.7684,24.6178 L4.7684,25.1178 L5.8374,25.1178 L5.8374,25.8838 Z" id="Path" fill="#6D6E6D"></path>
        <path d="M4.1004,25.1178 L4.1004,24.4178 C4.1004,24.3268 4.0574,24.2498 3.9724,24.1838 C3.8864,24.1188 3.7764,24.0858 3.6424,24.0858 C3.5054,24.0858 3.3964,24.1228 3.3154,24.1978 C3.2354,24.2728 3.1944,24.3538 3.1944,24.4418 L3.1944,25.1178 L4.1004,25.1178 Z" id="Path" fill="#FFFFFF"></path>
        <polygon id="Fill-3888" fill="#6D6E6D" points="2.5217 22.7092 5.8377 22.7092 5.8377 21.9432 2.5217 21.9432"></polygon>
        <polygon id="Fill-3889" fill="#6D6E6D" points="4.2177 21.3732 4.8897 21.3732 4.8897 19.9352 4.2177 19.9352"></polygon>
        <path d="M3.4933,17.3759 C3.4813,17.3889 3.4573,17.4229 3.4233,17.4789 C3.3893,17.5349 3.3533,17.6049 3.3163,17.6889 C3.2783,17.7729 3.2463,17.8649 3.2183,17.9639 C3.1903,18.0639 3.1763,18.1639 3.1763,18.2629 C3.1763,18.3939 3.1993,18.4949 3.2463,18.5649 C3.2923,18.6349 3.3613,18.6699 3.4513,18.6699 C3.5073,18.6699 3.5543,18.6539 3.5913,18.6229 C3.6293,18.5919 3.6623,18.5479 3.6923,18.4899 C3.7213,18.4319 3.7483,18.3609 3.7743,18.2749 C3.7983,18.1889 3.8263,18.0909 3.8573,17.9789 C3.9013,17.8199 3.9493,17.6759 4.0003,17.5489 C4.0513,17.4209 4.1153,17.3129 4.1913,17.2219 C4.2683,17.1319 4.3603,17.0629 4.4693,17.0139 C4.5783,16.9659 4.7093,16.9419 4.8613,16.9419 C5.0483,16.9419 5.2063,16.9769 5.3353,17.0469 C5.4653,17.1169 5.5693,17.2099 5.6483,17.3249 C5.7283,17.4399 5.7853,17.5729 5.8213,17.7239 C5.8573,17.8749 5.8753,18.0299 5.8753,18.1889 C5.8753,18.3099 5.8653,18.4339 5.8463,18.5599 C5.8283,18.6859 5.8013,18.8099 5.7653,18.9309 C5.7293,19.0529 5.6863,19.1709 5.6363,19.2859 C5.5873,19.4009 5.5293,19.5069 5.4643,19.6039 L4.7963,19.2669 C4.8113,19.2519 4.8413,19.2099 4.8843,19.1409 C4.9283,19.0729 4.9723,18.9889 5.0153,18.8889 C5.0593,18.7899 5.0983,18.6779 5.1323,18.5529 C5.1663,18.4289 5.1833,18.3019 5.1833,18.1749 C5.1833,17.9039 5.1013,17.7689 4.9363,17.7689 C4.8743,17.7689 4.8233,17.7889 4.7823,17.8289 C4.7423,17.8699 4.7053,17.9259 4.6723,17.9969 C4.6403,18.0689 4.6093,18.1529 4.5813,18.2499 C4.5533,18.3459 4.5223,18.4519 4.4883,18.5669 C4.4413,18.7199 4.3903,18.8519 4.3363,18.9639 C4.2823,19.0759 4.2193,19.1689 4.1473,19.2439 C4.0753,19.3189 3.9933,19.3739 3.8993,19.4099 C3.8063,19.4449 3.6973,19.4629 3.5723,19.4629 C3.3983,19.4629 3.2443,19.4309 3.1103,19.3649 C2.9763,19.2999 2.8643,19.2109 2.7723,19.0999 C2.6803,18.9869 2.6113,18.8569 2.5643,18.7089 C2.5173,18.5619 2.4943,18.4049 2.4943,18.2399 C2.4943,18.1219 2.5053,18.0069 2.5273,17.8949 C2.5493,17.7829 2.5763,17.6759 2.6113,17.5749 C2.6453,17.4739 2.6843,17.3779 2.7273,17.2879 C2.7713,17.1969 2.8143,17.1169 2.8583,17.0439 L3.4933,17.3759 Z" id="Fill-3890" fill="#6D6E6D"></path>
        <path d="M4.1519,16.685 C3.9529,16.685 3.7539,16.649 3.5559,16.578 C3.3589,16.506 3.1819,16.402 3.0269,16.265 C2.8709,16.128 2.7449,15.96 2.6479,15.763 C2.5519,15.565 2.5039,15.34 2.5039,15.088 C2.5039,14.793 2.5709,14.536 2.7039,14.318 C2.8379,14.1 3.0129,13.938 3.2269,13.832 L3.6379,14.42 C3.5509,14.455 3.4789,14.498 3.4209,14.551 C3.3639,14.604 3.3169,14.662 3.2809,14.724 C3.2449,14.787 3.2199,14.851 3.2059,14.918 C3.1919,14.985 3.1849,15.048 3.1849,15.107 C3.1849,15.244 3.2149,15.362 3.2739,15.462 C3.3329,15.561 3.4099,15.643 3.5029,15.709 C3.5959,15.775 3.7019,15.824 3.8199,15.856 C3.9389,15.889 4.0579,15.906 4.1799,15.906 C4.3109,15.906 4.4369,15.886 4.5579,15.847 C4.6789,15.808 4.7869,15.754 4.8799,15.684 C4.9739,15.613 5.0479,15.529 5.1019,15.429 C5.1569,15.33 5.1839,15.219 5.1839,15.098 C5.1839,15.036 5.1749,14.971 5.1579,14.904 C5.1409,14.837 5.1149,14.772 5.0789,14.71 C5.0429,14.648 4.9959,14.592 4.9389,14.542 C4.8809,14.493 4.8099,14.452 4.7259,14.42 L5.0949,13.79 C5.2169,13.84 5.3259,13.913 5.4219,14.007 C5.5179,14.102 5.5989,14.211 5.6649,14.331 C5.7299,14.453 5.7799,14.582 5.8139,14.717 C5.8479,14.852 5.8659,14.986 5.8659,15.117 C5.8659,15.347 5.8159,15.558 5.7189,15.749 C5.6199,15.941 5.4899,16.105 5.3279,16.244 C5.1669,16.382 4.9829,16.491 4.7779,16.568 C4.5719,16.646 4.3639,16.685 4.1519,16.685" id="Fill-3892" fill="#6D6E6D"></path>
        <path d="M5.8655,12.0439 C5.8655,12.2799 5.8175,12.4959 5.7205,12.6889 C5.6245,12.8809 5.4975,13.0469 5.3405,13.1859 C5.1835,13.3239 5.0035,13.4319 4.8005,13.5079 C4.5985,13.5849 4.3905,13.6219 4.1755,13.6219 C3.9575,13.6219 3.7475,13.5829 3.5445,13.5029 C3.3425,13.4229 3.1645,13.3129 3.0105,13.1719 C2.8555,13.0299 2.7335,12.8619 2.6415,12.6679 C2.5495,12.4729 2.5035,12.2609 2.5035,12.0299 C2.5035,11.7939 2.5515,11.5789 2.6485,11.3859 C2.7445,11.1929 2.8725,11.0269 3.0315,10.8879 C3.1895,10.7499 3.3705,10.6429 3.5725,10.5689 C3.7755,10.4939 3.9805,10.4569 4.1895,10.4569 C4.4075,10.4569 4.6175,10.4959 4.8195,10.5759 C5.0215,10.6539 5.2005,10.7649 5.3545,10.9049 C5.5085,11.0439 5.6315,11.2119 5.7255,11.4069 C5.8185,11.6009 5.8655,11.8139 5.8655,12.0439 M4.1845,12.8429 C4.3125,12.8429 4.4355,12.8249 4.5555,12.7889 C4.6755,12.7519 4.7825,12.7019 4.8755,12.6349 C4.9685,12.5669 5.0435,12.4839 5.0995,12.3829 C5.1555,12.2819 5.1835,12.1659 5.1835,12.0339 C5.1835,11.8999 5.1545,11.7839 5.0945,11.6839 C5.0355,11.5849 4.9595,11.5019 4.8645,11.4349 C4.7695,11.3679 4.6615,11.3179 4.5415,11.2849 C4.4215,11.2519 4.2995,11.2359 4.1755,11.2359 C4.0475,11.2359 3.9235,11.2539 3.8035,11.2899 C3.6845,11.3259 3.5785,11.3769 3.4865,11.4459 C3.3945,11.5149 3.3215,11.5989 3.2675,11.6979 C3.2125,11.7979 3.1855,11.9119 3.1855,12.0389 C3.1855,12.1729 3.2145,12.2899 3.2715,12.3899 C3.3295,12.4889 3.4045,12.5719 3.4985,12.6389 C3.5915,12.7069 3.6985,12.7569 3.8175,12.7909 C3.9375,12.8249 4.0605,12.8429 4.1845,12.8429" id="Fill-3894" fill="#6D6E6D"></path>
        <path d="M5.8374,10.0083 L2.5224,10.0083 L2.5224,8.5133 C2.5224,8.3583 2.5554,8.2143 2.6204,8.0823 C2.6854,7.9493 2.7714,7.8353 2.8774,7.7383 C2.9834,7.6423 3.1024,7.5673 3.2364,7.5123 C3.3704,7.4573 3.5054,7.4303 3.6424,7.4303 C3.7454,7.4303 3.8444,7.4433 3.9394,7.4683 C4.0344,7.4923 4.1234,7.5283 4.2084,7.5753 C4.2914,7.6223 4.3674,7.6793 4.4344,7.7453 C4.5014,7.8133 4.5584,7.8883 4.6044,7.9723 L5.8374,7.2113 L5.8374,8.0743 L4.7684,8.7423 L4.7684,9.2423 L5.8374,9.2423 L5.8374,10.0083 Z M4.1004,9.2423 L4.1004,8.5423 C4.1004,8.4513 4.0574,8.3743 3.9724,8.3083 C3.8864,8.2433 3.7764,8.2103 3.6424,8.2103 C3.5054,8.2103 3.3964,8.2483 3.3154,8.3223 C3.2354,8.3973 3.1944,8.4783 3.1944,8.5653 L3.1944,9.2423 L4.1004,9.2423 Z" id="Fill-3896" fill="#6D6E6D"></path>
        <polygon id="Fill-3899" fill="#6D6E6D" points="5.165 4.5029 5.837 4.5029 5.837 6.8329 2.522 6.8329 2.522 4.5449 3.195 4.5449 3.195 6.0669 3.839 6.0669 3.839 4.7599 4.46 4.7599 4.46 6.0669 5.165 6.0669"></polygon>
    </g>
</svg>