<?xml version="1.0" encoding="UTF-8"?>
<svg width="26px" height="48px" viewBox="0 0 26 48" version="1.1" xmlns="http://www.w3.org/2000/svg" xmlns:xlink="http://www.w3.org/1999/xlink">
    <title>nutriscore-vertical-no-border-e</title>
    <g id="nutriscore-vertical-no-border-e" stroke="none" stroke-width="1" fill="none" fill-rule="evenodd">
        <path d="M5.9909,47.2588 C3.0519,47.2588 0.6619,44.8678 0.6619,41.9288 L0.6619,6.0908 C0.6619,3.1528 3.0519,0.7628 5.9909,0.7628 L19.7479,0.7628 C22.6859,0.7628 25.0769,3.1528 25.0769,6.0908 L25.0769,37.6648 C25.6169,38.5728 25.9329,39.6508 25.9329,40.8088 L25.9329,41.4158 C25.9329,44.6358 23.5109,47.2558 20.5319,47.2558 L19.7939,47.2558 L19.7479,47.2588 L5.9909,47.2588 Z" id="Fill-3776" fill="#FFFFFE"></path>
        <path d="M23.1785,6.0908 L23.1785,11.1948 L9.2775,11.1948 L9.2775,6.0908 C9.2775,4.1958 10.8135,2.6598 12.7085,2.6598 L19.7475,2.6598 C21.6425,2.6598 23.1785,4.1958 23.1785,6.0908" id="Fill-3934" fill="#007F46"></path>
        <path d="M15.2679,7.8769 L16.2119,5.6539 L17.1179,7.8769 L15.2679,7.8769 Z M16.6599,4.2069 L15.8279,4.2069 L13.2589,9.7839 L14.4639,9.7839 L14.9129,8.7169 L17.4639,8.7169 L17.9029,9.7839 L19.2209,9.7839 L16.6599,4.2069 Z" id="Fill-3936" fill="#FFFFFE"></path>
        <polygon id="Fill-3939" fill="#6D6E6D" points="4.2727 35.0449 6.1687 35.0449 6.1687 35.8109 2.8527 35.8109 2.8527 35.2129 4.7997 33.6679 2.8527 33.6679 2.8527 32.9019 6.1687 32.9019 6.1687 33.5179"></polygon>
        <path d="M5.5146,30.8471 C5.5146,30.7161 5.4876,30.6061 5.4326,30.5151 C5.3786,30.4251 5.3066,30.3521 5.2156,30.2961 C5.1256,30.2401 5.0216,30.2011 4.9056,30.1771 C4.7886,30.1541 4.6696,30.1421 4.5486,30.1421 L2.8536,30.1421 L2.8536,29.3761 L4.5486,29.3761 C4.7786,29.3761 4.9936,29.4051 5.1926,29.4621 C5.3916,29.5201 5.5656,29.6091 5.7156,29.7291 C5.8646,29.8491 5.9826,30.0011 6.0676,30.1861 C6.1536,30.3721 6.1966,30.5921 6.1966,30.8471 C6.1966,31.1121 6.1516,31.3371 6.0606,31.5241 C5.9706,31.7111 5.8496,31.8631 5.6996,31.9791 C5.5486,32.0961 5.3736,32.1821 5.1736,32.2361 C4.9746,32.2901 4.7656,32.3181 4.5486,32.3181 L2.8536,32.3181 L2.8536,31.5531 L4.5486,31.5531 C4.6756,31.5531 4.7976,31.5391 4.9126,31.5151 C5.0276,31.4901 5.1306,31.4501 5.2206,31.3931 C5.3106,31.3371 5.3826,31.2651 5.4356,31.1761 C5.4886,31.0881 5.5146,30.9781 5.5146,30.8471" id="Fill-3940" fill="#6D6E6D"></path>
        <polygon id="Fill-3942" fill="#6D6E6D" points="3.5256 26.2617 3.5256 27.2707 6.1686 27.2707 6.1686 28.0367 3.5256 28.0367 3.5256 29.0497 2.8536 29.0497 2.8536 26.2617"></polygon>
        <path d="M6.1683,25.8838 L2.8533,25.8838 L2.8533,24.3898 C2.8533,24.2338 2.8863,24.0898 2.9513,23.9578 C3.0163,23.8248 3.1023,23.7108 3.2083,23.6138 C3.3143,23.5178 3.4333,23.4428 3.5673,23.3878 C3.7013,23.3338 3.8373,23.3058 3.9733,23.3058 C4.0763,23.3058 4.1753,23.3188 4.2703,23.3438 C4.3653,23.3688 4.4543,23.4048 4.5393,23.4508 C4.6223,23.4978 4.6983,23.5548 4.7653,23.6208 C4.8323,23.6888 4.8893,23.7638 4.9353,23.8478 L6.1683,23.0868 L6.1683,23.9508 L5.0993,24.6178 L5.0993,25.1178 L6.1683,25.1178 L6.1683,25.8838 Z" id="Path" fill="#6D6E6D"></path>
        <path d="M4.4313,25.1178 L4.4313,24.4178 C4.4313,24.3268 4.3883,24.2498 4.3033,24.1838 C4.2173,24.1188 4.1073,24.0858 3.9733,24.0858 C3.8373,24.0858 3.7283,24.1228 3.6473,24.1978 C3.5663,24.2728 3.5253,24.3538 3.5253,24.4418 L3.5253,25.1178 L4.4313,25.1178 Z" id="Path" fill="#FFFFFF"></path>
        <polygon id="Fill-3945" fill="#6D6E6D" points="2.8537 22.7092 6.1687 22.7092 6.1687 21.9432 2.8537 21.9432"></polygon>
        <polygon id="Fill-3946" fill="#6D6E6D" points="4.5477 21.3732 5.2197 21.3732 5.2197 19.9352 4.5477 19.9352"></polygon>
        <path d="M3.8245,17.3759 C3.8115,17.3889 3.7885,17.4229 3.7545,17.4789 C3.7205,17.5349 3.6845,17.6049 3.6475,17.6889 C3.6095,17.7729 3.5775,17.8649 3.5485,17.9639 C3.5205,18.0639 3.5065,18.1639 3.5065,18.2629 C3.5065,18.3939 3.5305,18.4949 3.5775,18.5649 C3.6235,18.6349 3.6925,18.6699 3.7825,18.6699 C3.8385,18.6699 3.8855,18.6539 3.9225,18.6229 C3.9595,18.5919 3.9935,18.5479 4.0225,18.4899 C4.0525,18.4319 4.0795,18.3609 4.1045,18.2749 C4.1295,18.1889 4.1575,18.0909 4.1885,17.9789 C4.2325,17.8199 4.2795,17.6759 4.3315,17.5489 C4.3825,17.4209 4.4465,17.3129 4.5225,17.2219 C4.5985,17.1319 4.6915,17.0629 4.8005,17.0139 C4.9095,16.9659 5.0405,16.9419 5.1925,16.9419 C5.3795,16.9419 5.5375,16.9769 5.6665,17.0469 C5.7955,17.1169 5.9005,17.2099 5.9795,17.3249 C6.0585,17.4399 6.1165,17.5729 6.1525,17.7239 C6.1875,17.8749 6.2055,18.0299 6.2055,18.1889 C6.2055,18.3099 6.1965,18.4339 6.1775,18.5599 C6.1595,18.6859 6.1315,18.8099 6.0965,18.9309 C6.0605,19.0529 6.0175,19.1709 5.9675,19.2859 C5.9175,19.4009 5.8605,19.5069 5.7945,19.6039 L5.1275,19.2669 C5.1425,19.2519 5.1725,19.2099 5.2165,19.1409 C5.2595,19.0729 5.3035,18.9889 5.3465,18.8889 C5.3905,18.7899 5.4295,18.6779 5.4635,18.5529 C5.4975,18.4289 5.5145,18.3019 5.5145,18.1749 C5.5145,17.9039 5.4325,17.7689 5.2675,17.7689 C5.2045,17.7689 5.1535,17.7889 5.1135,17.8289 C5.0725,17.8699 5.0365,17.9259 5.0035,17.9969 C4.9705,18.0689 4.9405,18.1529 4.9125,18.2499 C4.8845,18.3459 4.8535,18.4519 4.8185,18.5669 C4.7725,18.7199 4.7215,18.8519 4.6675,18.9639 C4.6125,19.0759 4.5495,19.1689 4.4785,19.2439 C4.4065,19.3189 4.3245,19.3739 4.2305,19.4099 C4.1375,19.4449 4.0285,19.4629 3.9035,19.4629 C3.7295,19.4629 3.5755,19.4309 3.4415,19.3649 C3.3075,19.2999 3.1945,19.2109 3.1035,19.0999 C3.0115,18.9869 2.9425,18.8569 2.8955,18.7089 C2.8485,18.5619 2.8255,18.4049 2.8255,18.2399 C2.8255,18.1219 2.8365,18.0069 2.8575,17.8949 C2.8795,17.7829 2.9075,17.6759 2.9425,17.5749 C2.9765,17.4739 3.0155,17.3779 3.0585,17.2879 C3.1025,17.1969 3.1455,17.1169 3.1895,17.0439 L3.8245,17.3759 Z" id="Fill-3947" fill="#6D6E6D"></path>
        <path d="M4.4828,16.685 C4.2838,16.685 4.0848,16.649 3.8868,16.578 C3.6898,16.506 3.5128,16.402 3.3578,16.265 C3.2018,16.128 3.0758,15.96 2.9788,15.763 C2.8828,15.565 2.8348,15.34 2.8348,15.088 C2.8348,14.793 2.9018,14.536 3.0348,14.318 C3.1688,14.1 3.3438,13.938 3.5578,13.832 L3.9688,14.42 C3.8818,14.455 3.8098,14.498 3.7518,14.551 C3.6948,14.604 3.6478,14.662 3.6118,14.724 C3.5758,14.787 3.5508,14.851 3.5368,14.918 C3.5228,14.985 3.5158,15.048 3.5158,15.107 C3.5158,15.244 3.5458,15.362 3.6048,15.462 C3.6638,15.561 3.7398,15.643 3.8338,15.709 C3.9268,15.775 4.0328,15.824 4.1508,15.856 C4.2698,15.889 4.3898,15.906 4.5108,15.906 C4.6418,15.906 4.7678,15.886 4.8888,15.847 C5.0108,15.808 5.1178,15.754 5.2108,15.684 C5.3048,15.613 5.3788,15.529 5.4328,15.429 C5.4878,15.33 5.5148,15.219 5.5148,15.098 C5.5148,15.036 5.5058,14.971 5.4888,14.904 C5.4718,14.837 5.4458,14.772 5.4098,14.71 C5.3738,14.648 5.3278,14.592 5.2698,14.542 C5.2118,14.493 5.1408,14.452 5.0568,14.42 L5.4258,13.79 C5.5478,13.84 5.6568,13.913 5.7528,14.007 C5.8498,14.102 5.9298,14.211 5.9958,14.331 C6.0608,14.453 6.1108,14.582 6.1448,14.717 C6.1798,14.852 6.1968,14.986 6.1968,15.117 C6.1968,15.347 6.1478,15.558 6.0498,15.749 C5.9508,15.941 5.8218,16.105 5.6598,16.244 C5.4978,16.382 5.3138,16.491 5.1088,16.568 C4.9028,16.646 4.6948,16.685 4.4828,16.685" id="Fill-3949" fill="#6D6E6D"></path>
        <path d="M6.1964,12.0439 C6.1964,12.2799 6.1484,12.4959 6.0514,12.6889 C5.9554,12.8809 5.8284,13.0469 5.6714,13.1859 C5.5144,13.3239 5.3344,13.4319 5.1314,13.5079 C4.9294,13.5849 4.7214,13.6219 4.5064,13.6219 C4.2884,13.6219 4.0784,13.5829 3.8764,13.5029 C3.6734,13.4229 3.4954,13.3129 3.3414,13.1719 C3.1874,13.0299 3.0644,12.8619 2.9724,12.6679 C2.8804,12.4729 2.8344,12.2609 2.8344,12.0299 C2.8344,11.7939 2.8834,11.5789 2.9794,11.3859 C3.0754,11.1929 3.2034,11.0269 3.3624,10.8879 C3.5204,10.7499 3.7014,10.6429 3.9044,10.5689 C4.1064,10.4939 4.3114,10.4569 4.5204,10.4569 C4.7384,10.4569 4.9484,10.4959 5.1504,10.5759 C5.3534,10.6539 5.5314,10.7649 5.6854,10.9049 C5.8394,11.0439 5.9634,11.2119 6.0564,11.4069 C6.1504,11.6009 6.1964,11.8139 6.1964,12.0439 M4.5154,12.8429 C4.6434,12.8429 4.7664,12.8249 4.8864,12.7889 C5.0064,12.7519 5.1134,12.7019 5.2064,12.6349 C5.3004,12.5669 5.3744,12.4839 5.4304,12.3829 C5.4874,12.2819 5.5144,12.1659 5.5144,12.0339 C5.5144,11.8999 5.4854,11.7839 5.4264,11.6839 C5.3674,11.5849 5.2904,11.5019 5.1954,11.4349 C5.1004,11.3679 4.9924,11.3179 4.8724,11.2849 C4.7524,11.2519 4.6304,11.2359 4.5064,11.2359 C4.3784,11.2359 4.2554,11.2539 4.1354,11.2899 C4.0154,11.3259 3.9094,11.3769 3.8174,11.4459 C3.7254,11.5149 3.6524,11.5989 3.5984,11.6979 C3.5434,11.7979 3.5164,11.9119 3.5164,12.0389 C3.5164,12.1729 3.5454,12.2899 3.6024,12.3899 C3.6604,12.4889 3.7354,12.5719 3.8294,12.6389 C3.9224,12.7069 4.0294,12.7569 4.1484,12.7909 C4.2694,12.8249 4.3914,12.8429 4.5154,12.8429" id="Fill-3951" fill="#6D6E6D"></path>
        <path d="M6.1683,10.0083 L2.8533,10.0083 L2.8533,8.5133 C2.8533,8.3583 2.8863,8.2143 2.9513,8.0823 C3.0163,7.9493 3.1023,7.8353 3.2083,7.7383 C3.3143,7.6423 3.4333,7.5673 3.5673,7.5123 C3.7013,7.4573 3.8373,7.4303 3.9733,7.4303 C4.0763,7.4303 4.1753,7.4433 4.2703,7.4683 C4.3653,7.4923 4.4543,7.5283 4.5393,7.5753 C4.6223,7.6223 4.6983,7.6793 4.7653,7.7453 C4.8323,7.8133 4.8893,7.8883 4.9353,7.9723 L6.1683,7.2113 L6.1683,8.0743 L5.0993,8.7423 L5.0993,9.2423 L6.1683,9.2423 L6.1683,10.0083 Z M4.4313,9.2423 L4.4313,8.5423 C4.4313,8.4513 4.3883,8.3743 4.3033,8.3083 C4.2173,8.2433 4.1073,8.2103 3.9733,8.2103 C3.8373,8.2103 3.7283,8.2483 3.6473,8.3223 C3.5663,8.3973 3.5253,8.4783 3.5253,8.5653 L3.5253,9.2423 L4.4313,9.2423 Z" id="Fill-3953" fill="#6D6E6D"></path>
        <polygon id="Fill-3956" fill="#6D6E6D" points="5.496 4.5029 6.168 4.5029 6.168 6.8329 2.853 6.8329 2.853 4.5449 3.526 4.5449 3.526 6.0669 4.17 6.0669 4.17 4.7599 4.791 4.7599 4.791 6.0669 5.496 6.0669"></polygon>
        <polygon id="Fill-3957" fill="#79BB43" points="9.2777 19.7382 23.1787 19.7382 23.1787 11.1952 9.2777 11.1952"></polygon>
        <polygon id="Fill-3958" fill="#F9C623" points="9.2777 28.2822 23.1787 28.2822 23.1787 19.7382 9.2777 19.7382"></polygon>
        <path d="M15.184,17.5073 L15.184,15.9313 L15.773,15.9313 C16.866,15.9403 17.222,16.2303 17.222,16.6913 C17.222,17.2653 16.754,17.5073 15.848,17.5073 L15.184,17.5073 Z M15.184,15.1553 L15.184,13.6123 L15.539,13.6123 C16.484,13.6123 16.866,13.8623 16.866,14.3633 C16.866,14.8243 16.502,15.1393 15.736,15.1473 L15.184,15.1553 Z M15.689,12.7713 L13.988,12.7713 L13.988,18.3473 L15.904,18.3473 C17.707,18.3473 18.446,17.6933 18.446,16.6913 C18.446,16.1423 18.109,15.7053 17.408,15.4553 C17.81,15.1723 18.09,14.7753 18.09,14.2673 C18.09,13.4423 17.445,12.7713 15.689,12.7713 L15.689,12.7713 Z" id="Fill-3959" fill="#FFFFFE"></path>
        <path d="M20.5318,34.9682 C21.4938,34.9682 22.3948,35.2452 23.1788,35.7232 L23.1788,28.2812 L9.2778,28.2812 L9.2778,35.7232 C10.0608,35.2452 10.9628,34.9682 11.9248,34.9682 L20.5318,34.9682 Z" id="Fill-3961" fill="#E7792B"></path>
        <path d="M14.6862,33.5107 L14.6862,29.8247 L15.3922,29.8247 C16.9532,29.8247 17.7082,30.5007 17.7082,31.6607 C17.7082,32.7207 16.8942,33.5107 15.2362,33.5107 L14.6862,33.5107 Z M15.4032,29.0107 L13.4302,29.0107 L13.4302,34.3087 L15.2652,34.3087 C17.5902,34.3087 19.0032,33.1807 19.0032,31.6607 C19.0032,30.0017 17.6892,29.0107 15.4032,29.0107 L15.4032,29.0107 Z" id="Fill-3963" fill="#FFFFFE"></path>
        <path d="M16.4364,21.0654 C14.7734,21.0654 13.4924,22.1814 13.4924,23.9264 C13.4924,25.6794 14.6704,26.8034 16.4554,26.8034 C17.6044,26.8034 18.4274,26.3994 18.9414,25.6314 L18.0434,25.0414 C17.6794,25.5754 17.1744,25.8744 16.5014,25.8744 C15.3624,25.8744 14.7264,25.1634 14.7264,23.9184 C14.7264,22.7544 15.3804,21.9944 16.3894,21.9944 C17.0534,21.9944 17.5394,22.2944 17.7724,22.8024 L18.9124,22.4234 C18.5394,21.6384 17.8574,21.0654 16.4364,21.0654" id="Fill-3965" fill="#FFFFFE"></path>
        <path d="M24.9156,41.4155 L24.9156,40.8095 C24.9156,38.1455 22.9526,35.9865 20.5316,35.9865 L11.9246,35.9865 C9.5036,35.9865 7.5406,38.1455 7.5406,40.8095 L7.5406,41.4155 C7.5406,44.0785 9.5036,46.2375 11.9246,46.2375 L20.5316,46.2375 C22.9526,46.2375 24.9156,44.0785 24.9156,41.4155" id="Fill-3967" fill="#DC3E2A"></path>
        <polygon id="Fill-3970" fill="#FFFFFE" points="13.4126 44.895 13.4126 37.46 18.7886 37.46 18.7886 38.979 15.5076 38.979 15.5076 40.283 17.7706 40.283 17.7706 41.813 15.5076 41.813 15.5076 43.375 18.8596 43.375 18.8596 44.895"></polygon>
    </g>
</svg>