<?xml version="1.0" encoding="UTF-8"?>
<svg width="28px" height="49px" viewBox="0 0 28 49" version="1.1" xmlns="http://www.w3.org/2000/svg" xmlns:xlink="http://www.w3.org/1999/xlink">
    <title>nutriscore-vertical-border-a</title>
    <g id="nutriscore-vertical-border-a" stroke="none" stroke-width="1" fill="none" fill-rule="evenodd">
        <path d="M20.3884,48.143 L6.6314,48.143 C3.2384,48.143 0.4784,45.383 0.4784,41.991 L0.4784,6.152 C0.4784,2.76 3.2384,0 6.6314,0 L21.1724,0 C24.6054,0 27.3984,2.99 27.3984,6.664 L27.3984,7.27 C27.3984,8.453 27.1024,9.61 26.5414,10.634 L26.5414,41.991 C26.5414,45.383 23.7814,48.143 20.3884,48.143" id="Fill-3588" fill="#6D6E6D"></path>
        <path d="M1.3026,41.9912 L1.3026,6.1522 C1.3026,3.2142 3.6936,0.8242 6.6316,0.8242 L20.3886,0.8242 L20.3906,0.8242 L21.1726,0.8242 C24.1516,0.8242 26.5746,3.4442 26.5746,6.6652 L26.5746,7.2712 C26.5746,8.4282 26.2566,9.5072 25.7176,10.4152 L25.7176,41.9912 C25.7176,44.9292 23.3266,47.3202 20.3886,47.3202 L6.6316,47.3202 C3.6936,47.3202 1.3026,44.9292 1.3026,41.9912" id="Fill-3590" fill="#FFFFFE"></path>
        <polygon id="Fill-3593" fill="#6D6E6D" points="4.9136 35.1064 6.8096 35.1064 6.8096 35.8724 3.4936 35.8724 3.4936 35.2744 5.4406 33.7294 3.4936 33.7294 3.4936 32.9634 6.8096 32.9634 6.8096 33.5794"></polygon>
        <path d="M6.1555,30.9087 C6.1555,30.7787 6.1285,30.6677 6.0735,30.5767 C6.0195,30.4877 5.9465,30.4137 5.8565,30.3577 C5.7665,30.3017 5.6625,30.2627 5.5465,30.2387 C5.4295,30.2157 5.3105,30.2037 5.1885,30.2037 L3.4945,30.2037 L3.4945,29.4377 L5.1885,29.4377 C5.4195,29.4377 5.6345,29.4667 5.8335,29.5237 C6.0325,29.5817 6.2065,29.6707 6.3565,29.7907 C6.5055,29.9107 6.6235,30.0627 6.7085,30.2477 C6.7945,30.4337 6.8375,30.6537 6.8375,30.9087 C6.8375,31.1737 6.7925,31.3987 6.7015,31.5857 C6.6115,31.7727 6.4905,31.9247 6.3395,32.0407 C6.1895,32.1587 6.0135,32.2437 5.8145,32.2977 C5.6155,32.3517 5.4065,32.3797 5.1885,32.3797 L3.4945,32.3797 L3.4945,31.6147 L5.1885,31.6147 C5.3165,31.6147 5.4385,31.6007 5.5535,31.5767 C5.6685,31.5517 5.7705,31.5117 5.8615,31.4547 C5.9515,31.3987 6.0235,31.3267 6.0755,31.2387 C6.1295,31.1497 6.1555,31.0397 6.1555,30.9087" id="Fill-3594" fill="#6D6E6D"></path>
        <polygon id="Fill-3596" fill="#6D6E6D" points="4.1664 26.3237 4.1664 27.3317 6.8094 27.3317 6.8094 28.0977 4.1664 28.0977 4.1664 29.1107 3.4944 29.1107 3.4944 26.3237"></polygon>
        <path d="M6.8091,25.9453 L3.4941,25.9453 L3.4941,24.4513 C3.4941,24.2953 3.5271,24.1513 3.5921,24.0193 C3.6571,23.8863 3.7431,23.7733 3.8491,23.6763 C3.9551,23.5793 4.0741,23.5043 4.2081,23.4493 C4.3421,23.3953 4.4771,23.3673 4.6141,23.3673 C4.7171,23.3673 4.8161,23.3813 4.9111,23.4053 C5.0061,23.4303 5.0951,23.4663 5.1801,23.5123 C5.2641,23.5593 5.3391,23.6163 5.4061,23.6823 C5.4731,23.7503 5.5301,23.8253 5.5761,23.9093 L6.8091,23.1483 L6.8091,24.0123 L5.7401,24.6793 L5.7401,25.1793 L6.8091,25.1793 L6.8091,25.9453 Z" id="Path" fill="#6D6E6D"></path>
        <path d="M5.0721,25.1793 L5.0721,24.4793 C5.0721,24.3883 5.0291,24.3113 4.9441,24.2453 C4.8581,24.1803 4.7481,24.1473 4.6141,24.1473 C4.4771,24.1473 4.3681,24.1843 4.2881,24.2593 C4.2071,24.3343 4.1661,24.4153 4.1661,24.5033 L4.1661,25.1793 L5.0721,25.1793 Z" id="Path" fill="#FFFFFF"></path>
        <polygon id="Fill-3599" fill="#6D6E6D" points="3.4937 22.7712 6.8097 22.7712 6.8097 22.0042 3.4937 22.0042"></polygon>
        <polygon id="Fill-3600" fill="#6D6E6D" points="5.1887 21.4352 5.8617 21.4352 5.8617 19.9972 5.1887 19.9972"></polygon>
        <path d="M4.465,17.4375 C4.453,17.4505 4.429,17.4845 4.395,17.5405 C4.361,17.5965 4.325,17.6665 4.288,17.7505 C4.251,17.8345 4.218,17.9265 4.19,18.0255 C4.162,18.1255 4.148,18.2255 4.148,18.3245 C4.148,18.4555 4.171,18.5565 4.218,18.6265 C4.265,18.6965 4.333,18.7315 4.423,18.7315 C4.479,18.7315 4.526,18.7155 4.563,18.6845 C4.601,18.6535 4.634,18.6095 4.664,18.5515 C4.693,18.4935 4.72,18.4225 4.746,18.3365 C4.77,18.2505 4.798,18.1525 4.829,18.0405 C4.873,17.8815 4.921,17.7375 4.972,17.6105 C5.023,17.4835 5.087,17.3745 5.163,17.2835 C5.24,17.1935 5.332,17.1245 5.441,17.0755 C5.55,17.0275 5.681,17.0035 5.833,17.0035 C6.02,17.0035 6.178,17.0385 6.307,17.1085 C6.437,17.1785 6.541,17.2715 6.62,17.3865 C6.7,17.5015 6.757,17.6345 6.793,17.7865 C6.829,17.9365 6.847,18.0915 6.847,18.2505 C6.847,18.3715 6.837,18.4955 6.819,18.6215 C6.8,18.7475 6.773,18.8715 6.737,18.9925 C6.701,19.1145 6.658,19.2325 6.608,19.3475 C6.559,19.4625 6.501,19.5685 6.436,19.6655 L5.768,19.3285 C5.783,19.3135 5.813,19.2715 5.857,19.2035 C5.9,19.1345 5.944,19.0505 5.987,18.9505 C6.031,18.8515 6.07,18.7395 6.104,18.6145 C6.139,18.4905 6.155,18.3635 6.155,18.2365 C6.155,17.9655 6.073,17.8305 5.908,17.8305 C5.846,17.8305 5.795,17.8505 5.754,17.8905 C5.714,17.9315 5.677,17.9875 5.644,18.0585 C5.612,18.1305 5.581,18.2145 5.553,18.3115 C5.525,18.4075 5.494,18.5135 5.46,18.6285 C5.413,18.7815 5.362,18.9135 5.308,19.0255 C5.254,19.1375 5.191,19.2305 5.119,19.3055 C5.047,19.3805 4.965,19.4355 4.871,19.4715 C4.778,19.5065 4.669,19.5255 4.544,19.5255 C4.37,19.5255 4.216,19.4925 4.082,19.4265 C3.948,19.3615 3.836,19.2725 3.744,19.1615 C3.652,19.0485 3.583,18.9185 3.536,18.7705 C3.489,18.6235 3.466,18.4665 3.466,18.3015 C3.466,18.1835 3.477,18.0685 3.499,17.9565 C3.521,17.8445 3.548,17.7375 3.583,17.6365 C3.617,17.5355 3.656,17.4395 3.699,17.3495 C3.743,17.2585 3.786,17.1785 3.83,17.1065 L4.465,17.4375 Z" id="Fill-3601" fill="#6D6E6D"></path>
        <path d="M5.1237,16.7465 C4.9247,16.7465 4.7257,16.7105 4.5277,16.6395 C4.3307,16.5675 4.1537,16.4635 3.9987,16.3265 C3.8427,16.1895 3.7167,16.0225 3.6197,15.8245 C3.5237,15.6265 3.4757,15.4015 3.4757,15.1495 C3.4757,14.8545 3.5427,14.5975 3.6757,14.3795 C3.8097,14.1615 3.9847,13.9995 4.1987,13.8935 L4.6097,14.4815 C4.5227,14.5165 4.4507,14.5595 4.3927,14.6125 C4.3357,14.6655 4.2887,14.7235 4.2527,14.7855 C4.2167,14.8485 4.1917,14.9135 4.1777,14.9795 C4.1637,15.0465 4.1567,15.1095 4.1567,15.1685 C4.1567,15.3055 4.1867,15.4235 4.2457,15.5235 C4.3047,15.6225 4.3807,15.7055 4.4747,15.7705 C4.5677,15.8365 4.6737,15.8855 4.7917,15.9175 C4.9107,15.9505 5.0297,15.9675 5.1517,15.9675 C5.2827,15.9675 5.4087,15.9475 5.5297,15.9085 C5.6517,15.8695 5.7587,15.8155 5.8517,15.7455 C5.9457,15.6745 6.0197,15.5905 6.0737,15.4905 C6.1287,15.3915 6.1557,15.2805 6.1557,15.1595 C6.1557,15.0975 6.1467,15.0325 6.1297,14.9655 C6.1127,14.8985 6.0867,14.8335 6.0507,14.7715 C6.0147,14.7095 5.9677,14.6535 5.9107,14.6035 C5.8527,14.5545 5.7817,14.5135 5.6977,14.4815 L6.0667,13.8515 C6.1887,13.9015 6.2977,13.9745 6.3937,14.0685 C6.4907,14.1635 6.5707,14.2725 6.6367,14.3925 C6.7017,14.5145 6.7517,14.6435 6.7857,14.7785 C6.8197,14.9135 6.8367,15.0475 6.8367,15.1785 C6.8367,15.4085 6.7887,15.6195 6.6897,15.8105 C6.5917,16.0025 6.4617,16.1665 6.3007,16.3055 C6.1387,16.4435 5.9547,16.5525 5.7497,16.6295 C5.5437,16.7075 5.3357,16.7465 5.1237,16.7465" id="Fill-3603" fill="#6D6E6D"></path>
        <path d="M6.8371,12.1054 C6.8371,12.3414 6.7891,12.5574 6.6921,12.7504 C6.5961,12.9424 6.4691,13.1084 6.3121,13.2474 C6.1551,13.3854 5.9751,13.4934 5.7721,13.5694 C5.5701,13.6464 5.3621,13.6834 5.1471,13.6834 C4.9291,13.6834 4.7191,13.6444 4.5161,13.5644 C4.3141,13.4844 4.1361,13.3744 3.9821,13.2334 C3.8281,13.0914 3.7051,12.9234 3.6131,12.7294 C3.5211,12.5344 3.4751,12.3224 3.4751,12.0914 C3.4751,11.8554 3.5231,11.6404 3.6201,11.4474 C3.7171,11.2544 3.8441,11.0884 4.0031,10.9494 C4.1621,10.8114 4.3421,10.7044 4.5441,10.6304 C4.7471,10.5554 4.9521,10.5184 5.1611,10.5184 C5.3791,10.5184 5.5891,10.5574 5.7911,10.6374 C5.9931,10.7164 6.1721,10.8264 6.3261,10.9664 C6.4801,11.1064 6.6041,11.2734 6.6971,11.4684 C6.7901,11.6634 6.8371,11.8754 6.8371,12.1054 M5.1561,12.9044 C5.2841,12.9044 5.4081,12.8864 5.5271,12.8504 C5.6471,12.8144 5.7541,12.7634 5.8471,12.6964 C5.9411,12.6294 6.0151,12.5454 6.0711,12.4444 C6.1271,12.3434 6.1551,12.2274 6.1551,12.0954 C6.1551,11.9614 6.1261,11.8454 6.0671,11.7454 C6.0071,11.6464 5.9311,11.5634 5.8361,11.4964 C5.7411,11.4294 5.6331,11.3794 5.5131,11.3464 C5.3941,11.3134 5.2711,11.2974 5.1471,11.2974 C5.0191,11.2974 4.8951,11.3154 4.7751,11.3514 C4.6561,11.3874 4.5501,11.4394 4.4581,11.5074 C4.3661,11.5764 4.2931,11.6604 4.2391,11.7594 C4.1841,11.8594 4.1571,11.9734 4.1571,12.1004 C4.1571,12.2344 4.1861,12.3514 4.2431,12.4514 C4.3011,12.5504 4.3761,12.6334 4.4701,12.7004 C4.5631,12.7684 4.6701,12.8184 4.7901,12.8524 C4.9091,12.8864 5.0321,12.9044 5.1561,12.9044" id="Fill-3605" fill="#6D6E6D"></path>
        <path d="M6.8091,10.0698 L3.4941,10.0698 L3.4941,8.5748 C3.4941,8.4198 3.5271,8.2758 3.5921,8.1438 C3.6571,8.0108 3.7431,7.8968 3.8491,7.7998 C3.9551,7.7038 4.0741,7.6288 4.2081,7.5738 C4.3421,7.5188 4.4771,7.4918 4.6141,7.4918 C4.7171,7.4918 4.8161,7.5048 4.9111,7.5298 C5.0061,7.5538 5.0951,7.5898 5.1801,7.6368 C5.2641,7.6838 5.3391,7.7408 5.4061,7.8078 C5.4731,7.8748 5.5301,7.9498 5.5761,8.0338 L6.8091,7.2728 L6.8091,8.1358 L5.7401,8.8038 L5.7401,9.3038 L6.8091,9.3038 L6.8091,10.0698 Z M5.0721,9.3038 L5.0721,8.6038 C5.0721,8.5128 5.0291,8.4358 4.9441,8.3698 C4.8581,8.3048 4.7481,8.2718 4.6141,8.2718 C4.4771,8.2718 4.3681,8.3098 4.2881,8.3838 C4.2071,8.4588 4.1661,8.5398 4.1661,8.6268 L4.1661,9.3038 L5.0721,9.3038 Z" id="Fill-3607" fill="#6D6E6D"></path>
        <polygon id="Fill-3610" fill="#6D6E6D" points="6.1368 4.5644 6.8088 4.5644 6.8088 6.8944 3.4938 6.8944 3.4938 4.6064 4.1668 4.6064 4.1668 6.1284 4.8108 6.1284 4.8108 4.8214 5.4318 4.8214 5.4318 6.1284 6.1368 6.1284"></polygon>
        <path d="M9.9181,41.9912 L9.9181,36.8872 L23.8201,36.8872 L23.8201,41.9912 C23.8201,43.8862 22.2841,45.4222 20.3891,45.4222 L13.3491,45.4222 C11.4541,45.4222 9.9181,43.8862 9.9181,41.9912" id="Fill-3611" fill="#DC3E2A"></path>
        <polygon id="Fill-3613" fill="#FFFFFE" points="18.8063 38.3842 14.8723 38.3842 14.8723 43.9612 18.8433 43.9612 18.8433 43.1202 16.0683 43.1202 16.0683 41.4802 18.0123 41.4802 18.0123 40.6402 16.0683 40.6402 16.0683 39.2252 18.8063 39.2252"></polygon>
        <path d="M12.5653,13.1113 C11.6033,13.1113 10.7013,12.8343 9.9183,12.3563 L9.9183,19.7993 L23.8193,19.7993 L23.8193,12.3563 C23.0363,12.8343 22.1343,13.1113 21.1723,13.1113 L12.5653,13.1113 Z" id="Fill-3615" fill="#79BB43"></path>
        <polygon id="Fill-3618" fill="#F9C623" points="9.9177 28.3442 23.8197 28.3442 23.8197 19.7992 9.9177 19.7992"></polygon>
        <polygon id="Fill-3619" fill="#E7792B" points="9.9177 36.8872 23.8197 36.8872 23.8197 28.3442 9.9177 28.3442"></polygon>
        <path d="M15.7732,18.2915 L15.7732,16.7945 L16.3912,16.7945 C17.5392,16.8025 17.9122,17.0785 17.9122,17.5165 C17.9122,18.0625 17.4222,18.2915 16.4702,18.2915 L15.7732,18.2915 Z M15.7732,16.0585 L15.7732,14.5915 L16.1462,14.5915 C17.1382,14.5915 17.5392,14.8295 17.5392,15.3055 C17.5392,15.7425 17.1572,16.0415 16.3522,16.0495 L15.7732,16.0585 Z M16.3042,13.7915 L14.5172,13.7915 L14.5172,19.0905 L16.5292,19.0905 C18.4232,19.0905 19.1982,18.4685 19.1982,17.5165 C19.1982,16.9935 18.8442,16.5795 18.1082,16.3415 C18.5302,16.0725 18.8252,15.6965 18.8252,15.2135 C18.8252,14.4305 18.1482,13.7915 16.3042,13.7915 L16.3042,13.7915 Z" id="Fill-3620" fill="#FFFFFE"></path>
        <path d="M17.0776,21.1269 C15.4146,21.1269 14.1336,22.2419 14.1336,23.9879 C14.1336,25.7419 15.3106,26.8649 17.0966,26.8649 C18.2446,26.8649 19.0686,26.4609 19.5816,25.6929 L18.6846,25.1029 C18.3196,25.6369 17.8156,25.9359 17.1426,25.9359 C16.0026,25.9359 15.3676,25.2249 15.3676,23.9799 C15.3676,22.8159 16.0216,22.0559 17.0306,22.0559 C17.6936,22.0559 18.1806,22.3559 18.4136,22.8649 L19.5536,22.4849 C19.1796,21.7009 18.4976,21.1269 17.0776,21.1269" id="Fill-3622" fill="#FFFFFE"></path>
        <path d="M15.4,34.728 L15.4,30.849 L16.073,30.849 C17.558,30.849 18.278,31.559 18.278,32.78 C18.278,33.895 17.503,34.728 15.924,34.728 L15.4,34.728 Z M16.082,29.992 L14.204,29.992 L14.204,35.568 L15.951,35.568 C18.166,35.568 19.512,34.38 19.512,32.78 C19.512,31.034 18.259,29.992 16.082,29.992 L16.082,29.992 Z" id="Fill-3624" fill="#FFFFFE"></path>
        <path d="M8.1814,7.271 L8.1814,6.664 C8.1814,4.001 10.1444,1.842 12.5654,1.842 L21.1724,1.842 C23.5934,1.842 25.5564,4.001 25.5564,6.664 L25.5564,7.271 C25.5564,9.934 23.5934,12.093 21.1724,12.093 L12.5654,12.093 C10.1444,12.093 8.1814,9.934 8.1814,7.271" id="Fill-3626" fill="#007F46"></path>
        <polygon id="Path" fill="#FFFFFE" points="13.3065 10.7431 16.3675 3.3081 18.0565 3.3081 21.0945 10.7431 18.9345 10.7431 18.5175 9.5461 15.7265 9.5461 15.2875 10.7431"></polygon>
        <polygon id="Path" fill="#007F46" points="16.2895 8.0281 17.9775 8.0281 17.1555 5.6781"></polygon>
    </g>
</svg>