<?xml version="1.0" encoding="UTF-8"?>
<svg width="50px" height="28px" viewBox="0 0 50 28" version="1.1" xmlns="http://www.w3.org/2000/svg" xmlns:xlink="http://www.w3.org/1999/xlink">
    <title>nutriscore-white-a</title>
    <g id="nutriscore-white-a" stroke="none" stroke-width="1" fill="none" fill-rule="evenodd">
        <g id="nutriscore-a-white" fill="#FFFFFF">
            <polygon id="Path" points="39.999 20.384 39.999 14.164 43.948 14.164 43.948 15.102 41.2 15.102 41.2 16.679 43.151 16.679 43.151 17.616 41.2 17.616 41.2 19.447 43.986 19.447 43.986 20.384"></polygon>
            <polygon id="Path" points="6.011 5.5 6.011 7.403 5.242 7.403 5.242 4.075 5.842 4.075 7.394 6.03 7.394 4.075 8.162 4.075 8.162 7.403 7.544 7.403"></polygon>
            <path d="M10.2252,6.7472 C10.3562,6.7472 10.4672,6.7202 10.5582,6.6652 C10.6482,6.6102 10.7222,6.5382 10.7782,6.4472 C10.8342,6.3562 10.8742,6.2522 10.8982,6.1352 C10.9212,6.0182 10.9332,5.8982 10.9332,5.7762 L10.9332,4.0752 L11.7012,4.0752 L11.7012,5.7762 C11.7012,6.0082 11.6732,6.2242 11.6152,6.4232 C11.5572,6.6232 11.4682,6.7982 11.3482,6.9482 C11.2272,7.0992 11.0742,7.2162 10.8882,7.3022 C10.7022,7.3882 10.4812,7.4312 10.2252,7.4312 C9.9592,7.4312 9.7332,7.3862 9.5452,7.2952 C9.3582,7.2052 9.2062,7.0832 9.0882,6.9322 C8.9712,6.7812 8.8852,6.6052 8.8302,6.4052 C8.7762,6.2052 8.7482,5.9962 8.7482,5.7762 L8.7482,4.0752 L9.5172,4.0752 L9.5172,5.7762 C9.5172,5.9052 9.5302,6.0272 9.5552,6.1422 C9.5802,6.2582 9.6202,6.3612 9.6772,6.4522 C9.7332,6.5422 9.8062,6.6142 9.8952,6.6672 C9.9842,6.7202 10.0942,6.7472 10.2252,6.7472" id="Path"></path>
            <polygon id="Path" points="14.828 4.75 13.816 4.75 13.816 7.403 13.047 7.403 13.047 4.75 12.03 4.75 12.03 4.075 14.828 4.075"></polygon>
            <path d="M15.2078,7.4034 L15.2078,4.0754 L16.7078,4.0754 C16.8638,4.0754 17.0088,4.1084 17.1418,4.1734 C17.2738,4.2394 17.3888,4.3254 17.4858,4.4314 C17.5828,4.5374 17.6588,4.6574 17.7128,4.7924 C17.7678,4.9264 17.7948,5.0624 17.7948,5.1994 C17.7948,5.3034 17.7828,5.4024 17.7578,5.4974 C17.7328,5.5934 17.6968,5.6824 17.6498,5.7674 C17.6028,5.8514 17.5458,5.9274 17.4788,5.9944 C17.4118,6.0624 17.3358,6.1194 17.2518,6.1654 L18.0158,7.4034 L17.1488,7.4034 L16.4778,6.3294 L15.9768,6.3294 L15.9768,7.4034 L15.2078,7.4034 Z M15.9768,5.6594 L16.6798,5.6594 C16.7698,5.6594 16.8488,5.6164 16.9138,5.5304 C16.9798,5.4454 17.0128,5.3344 17.0128,5.1994 C17.0128,5.0624 16.9748,4.9534 16.8998,4.8724 C16.8248,4.7904 16.7438,4.7504 16.6558,4.7504 L15.9768,4.7504 L15.9768,5.6594 Z" id="Shape"></path>
            <polygon id="Path" points="18.395 7.404 19.164 7.404 19.164 4.076 18.395 4.076"></polygon>
            <polygon id="Path" points="19.735 6.452 21.179 6.452 21.179 5.777 19.735 5.777"></polygon>
            <path d="M23.748,5.0504 C23.735,5.0374 23.701,5.0144 23.645,4.9804 C23.589,4.9454 23.518,4.9094 23.434,4.8724 C23.35,4.8344 23.257,4.8014 23.157,4.7744 C23.057,4.7454 22.957,4.7314 22.857,4.7314 C22.726,4.7314 22.625,4.7554 22.555,4.8014 C22.485,4.8484 22.45,4.9174 22.45,5.0084 C22.45,5.0644 22.465,5.1114 22.496,5.1484 C22.528,5.1864 22.572,5.2194 22.63,5.2494 C22.688,5.2794 22.76,5.3064 22.846,5.3314 C22.932,5.3564 23.031,5.3844 23.143,5.4154 C23.303,5.4594 23.446,5.5074 23.575,5.5584 C23.703,5.6104 23.812,5.6744 23.903,5.7514 C23.993,5.8274 24.063,5.9204 24.111,6.0294 C24.16,6.1394 24.184,6.2704 24.184,6.4234 C24.184,6.6114 24.149,6.7694 24.078,6.8994 C24.008,7.0294 23.915,7.1334 23.8,7.2134 C23.684,7.2934 23.55,7.3504 23.399,7.3864 C23.247,7.4234 23.092,7.4404 22.932,7.4404 C22.81,7.4404 22.686,7.4314 22.56,7.4124 C22.433,7.3944 22.309,7.3664 22.187,7.3304 C22.065,7.2944 21.946,7.2524 21.831,7.2014 C21.715,7.1524 21.609,7.0934 21.512,7.0284 L21.85,6.3584 C21.865,6.3734 21.907,6.4034 21.976,6.4464 C22.045,6.4904 22.129,6.5344 22.229,6.5784 C22.329,6.6224 22.442,6.6604 22.567,6.6954 C22.692,6.7304 22.818,6.7474 22.946,6.7474 C23.218,6.7474 23.354,6.6644 23.354,6.4984 C23.354,6.4364 23.334,6.3844 23.293,6.3434 C23.253,6.3034 23.196,6.2664 23.125,6.2344 C23.053,6.2014 22.968,6.1704 22.871,6.1424 C22.775,6.1144 22.668,6.0834 22.553,6.0484 C22.4,6.0014 22.267,5.9504 22.154,5.8964 C22.042,5.8424 21.948,5.7784 21.873,5.7064 C21.798,5.6344 21.743,5.5514 21.707,5.4574 C21.671,5.3634 21.653,5.2554 21.653,5.1304 C21.653,4.9544 21.686,4.8004 21.751,4.6654 C21.817,4.5314 21.906,4.4184 22.018,4.3254 C22.131,4.2334 22.261,4.1644 22.41,4.1174 C22.558,4.0704 22.715,4.0474 22.881,4.0474 C23,4.0474 23.115,4.0584 23.228,4.0794 C23.34,4.1014 23.447,4.1304 23.549,4.1644 C23.65,4.1984 23.746,4.2384 23.837,4.2814 C23.928,4.3254 24.009,4.3684 24.081,4.4124 L23.748,5.0504 Z M24.4416,5.711 C24.4416,5.511 24.4776,5.312 24.5496,5.113 C24.6216,4.915 24.7256,4.737 24.8636,4.582 C25.0006,4.425 25.1686,4.299 25.3676,4.202 C25.5656,4.105 25.7916,4.056 26.0446,4.056 C26.3416,4.056 26.5996,4.124 26.8176,4.258 C27.0366,4.393 27.1996,4.567 27.3056,4.783 L26.7146,5.195 C26.6806,5.108 26.6366,5.035 26.5836,4.978 C26.5306,4.92 26.4726,4.873 26.4106,4.837 C26.3476,4.801 26.2826,4.776 26.2156,4.762 C26.1486,4.748 26.0856,4.741 26.0256,4.741 C25.8886,4.741 25.7696,4.771 25.6696,4.83 C25.5696,4.889 25.4866,4.966 25.4216,5.06 C25.3556,5.153 25.3066,5.259 25.2736,5.378 C25.2406,5.497 25.2246,5.617 25.2246,5.739 C25.2246,5.87 25.2436,5.997 25.2826,6.119 C25.3216,6.241 25.3766,6.349 25.4466,6.442 C25.5176,6.536 25.6026,6.61 25.7026,6.665 C25.8026,6.72 25.9136,6.747 26.0356,6.747 C26.0976,6.747 26.1626,6.738 26.2296,6.721 C26.2966,6.704 26.3616,6.678 26.4246,6.642 C26.4866,6.606 26.5436,6.559 26.5936,6.501 C26.6436,6.443 26.6836,6.372 26.7146,6.288 L27.3476,6.658 C27.2976,6.78 27.2256,6.889 27.1296,6.986 C27.0346,7.083 26.9256,7.164 26.8036,7.23 C26.6826,7.295 26.5536,7.345 26.4176,7.379 C26.2816,7.414 26.1476,7.431 26.0166,7.431 C25.7856,7.431 25.5736,7.382 25.3816,7.284 C25.1896,7.185 25.0236,7.055 24.8846,6.892 C24.7456,6.73 24.6366,6.545 24.5586,6.339 C24.4806,6.133 24.4416,5.924 24.4416,5.711 L24.4416,5.711 Z M29.1009,7.4312 C28.8639,7.4312 28.6479,7.3832 28.4539,7.2862 C28.2599,7.1892 28.0939,7.0612 27.9549,6.9042 C27.8159,6.7462 27.7079,6.5662 27.6319,6.3622 C27.5549,6.1602 27.5169,5.9502 27.5169,5.7342 C27.5169,5.5152 27.5569,5.3052 27.6359,5.1012 C27.7159,4.8982 27.8269,4.7202 27.9689,4.5652 C28.1109,4.4102 28.2799,4.2862 28.4749,4.1952 C28.6699,4.1022 28.8839,4.0562 29.1149,4.0562 C29.3529,4.0562 29.5679,4.1052 29.7619,4.2022 C29.9559,4.2992 30.1219,4.4272 30.2609,4.5862 C30.3999,4.7452 30.5069,4.9272 30.5819,5.1302 C30.6569,5.3332 30.6949,5.5392 30.6949,5.7482 C30.6949,5.9672 30.6549,6.1782 30.5749,6.3812 C30.4959,6.5842 30.3849,6.7632 30.2449,6.9182 C30.1039,7.0732 29.9359,7.1972 29.7409,7.2912 C29.5459,7.3842 29.3319,7.4312 29.1009,7.4312 L29.1009,7.4312 Z M28.2989,5.7442 C28.2989,5.8722 28.3169,5.9962 28.3529,6.1162 C28.3889,6.2372 28.4409,6.3442 28.5079,6.4372 C28.5749,6.5312 28.6599,6.6062 28.7609,6.6622 C28.8629,6.7192 28.9789,6.7472 29.1099,6.7472 C29.2449,6.7472 29.3619,6.7172 29.4619,6.6582 C29.5619,6.5982 29.6449,6.5212 29.7129,6.4262 C29.7799,6.3302 29.8299,6.2232 29.8629,6.1022 C29.8949,5.9822 29.9119,5.8592 29.9119,5.7342 C29.9119,5.6062 29.8939,5.4822 29.8579,5.3622 C29.8219,5.2412 29.7699,5.1352 29.7009,5.0432 C29.6319,4.9512 29.5479,4.8772 29.4479,4.8232 C29.3479,4.7682 29.2339,4.7412 29.1059,4.7412 C28.9709,4.7412 28.8539,4.7692 28.7539,4.8272 C28.6539,4.8852 28.5709,4.9612 28.5029,5.0552 C28.4359,5.1482 28.3849,5.2562 28.3509,5.3762 C28.3169,5.4962 28.2989,5.6192 28.2989,5.7442 L28.2989,5.7442 Z M31.1446,7.4034 L31.1446,4.0754 L32.6446,4.0754 C32.8006,4.0754 32.9456,4.1084 33.0776,4.1734 C33.2106,4.2394 33.3256,4.3254 33.4226,4.4314 C33.5196,4.5374 33.5956,4.6574 33.6496,4.7924 C33.7046,4.9264 33.7316,5.0624 33.7316,5.1994 C33.7316,5.3034 33.7196,5.4024 33.6946,5.4974 C33.6696,5.5934 33.6336,5.6824 33.5866,5.7674 C33.5396,5.8514 33.4826,5.9274 33.4156,5.9944 C33.3486,6.0624 33.2726,6.1194 33.1886,6.1654 L33.9526,7.4034 L33.0856,7.4034 L32.4146,6.3294 L31.9136,6.3294 L31.9136,7.4034 L31.1446,7.4034 Z M31.9136,5.6594 L32.6166,5.6594 C32.7066,5.6594 32.7856,5.6164 32.8506,5.5304 C32.9166,5.4454 32.9496,5.3344 32.9496,5.1994 C32.9496,5.0624 32.9116,4.9534 32.8366,4.8724 C32.7616,4.7904 32.6806,4.7504 32.5926,4.7504 L31.9136,4.7504 L31.9136,5.6594 Z" id="Shape"></path>
            <polygon id="Path" points="36.671 6.728 36.671 7.403 34.332 7.403 34.332 4.075 36.629 4.075 36.629 4.75 35.101 4.75 35.101 5.397 36.413 5.397 36.413 6.02 35.101 6.02 35.101 6.728"></polygon>
            <path d="M42.8136,9.8858 L38.0906,9.8858 L37.2906,9.8858 L29.5136,9.8858 L28.7136,9.8858 L20.9366,9.8858 L20.1366,9.8858 L12.3526,9.8858 L12.7236,10.4928 C12.7616,10.5548 12.7886,10.6208 12.8236,10.6838 L20.1366,10.6838 L20.1366,23.8408 L12.8236,23.8408 C12.7886,23.9028 12.7616,23.9688 12.7236,24.0308 L12.3516,24.6388 L20.1366,24.6388 L20.9366,24.6388 L28.7136,24.6388 L29.5136,24.6388 L37.2906,24.6388 L38.0906,24.6388 L42.8136,24.6388 C44.9326,24.6388 46.6576,22.9148 46.6576,20.7958 L46.6576,13.7288 C46.6576,11.6098 44.9326,9.8858 42.8136,9.8858 L42.8136,9.8858 Z M20.9356,23.8408 L28.7136,23.8408 L28.7136,10.6848 L20.9356,10.6848 L20.9356,23.8408 Z M29.5126,23.8408 L37.2906,23.8408 L37.2906,10.6848 L29.5126,10.6848 L29.5126,23.8408 Z M45.8576,20.7958 C45.8576,22.4748 44.4926,23.8408 42.8136,23.8408 L38.0906,23.8408 L38.0906,10.6838 L42.8136,10.6838 C44.4926,10.6838 45.8576,12.0498 45.8576,13.7288 L45.8576,20.7958 Z" id="Shape"></path>
            <path d="M14.2312,20.3839 L14.2312,14.1639 L15.9382,14.1639 C17.7022,14.1639 18.3492,14.9119 18.3492,15.8309 C18.3492,16.3999 18.0682,16.8409 17.6642,17.1569 C18.3682,17.4359 18.7062,17.9229 18.7062,18.5359 C18.7062,19.6539 17.9642,20.3839 16.1542,20.3839 L14.2312,20.3839 Z M15.4322,16.8229 L15.9852,16.8139 C16.7542,16.8049 17.1202,16.4529 17.1202,15.9399 C17.1202,15.3809 16.7362,15.1019 15.7882,15.1019 L15.4322,15.1019 L15.4322,16.8229 Z M16.0232,17.6889 L15.4322,17.6889 L15.4322,19.4469 L16.0982,19.4469 C17.0082,19.4469 17.4772,19.1759 17.4772,18.5359 C17.4772,18.0219 17.1202,17.6969 16.0232,17.6889 L16.0232,17.6889 Z M22.0143,17.2647 C22.0143,15.3177 23.2993,14.0737 24.9693,14.0737 C26.3953,14.0737 27.0803,14.7137 27.4553,15.5877 L26.3103,16.0117 C26.0763,15.4437 25.5883,15.1097 24.9223,15.1097 C23.9093,15.1097 23.2523,15.9577 23.2523,17.2557 C23.2523,18.6437 23.8903,19.4367 25.0353,19.4367 C25.7103,19.4367 26.2173,19.1037 26.5823,18.5087 L27.4833,19.1667 C26.9673,20.0227 26.1423,20.4737 24.9883,20.4737 C23.1963,20.4737 22.0143,19.2207 22.0143,17.2647 L22.0143,17.2647 Z M31.0819,20.3839 L31.0819,14.1639 L32.9669,14.1639 C35.1529,14.1639 36.4099,15.3269 36.4099,17.2739 C36.4099,19.0589 35.0589,20.3839 32.8359,20.3839 L31.0819,20.3839 Z M32.8079,19.4469 C34.3929,19.4469 35.1719,18.5179 35.1719,17.2739 C35.1719,15.9129 34.4489,15.1189 32.9579,15.1189 L32.2829,15.1189 L32.2829,19.4469 L32.8079,19.4469 Z" id="Shape"></path>
            <path d="M49.012,20.796 L49.012,6.985 C49.012,3.567 46.231,0.787 42.814,0.787 L6.837,0.787 C3.419,0.787 0.638,3.567 0.638,6.985 L0.638,21.583 C0.638,25.041 3.649,27.855 7.351,27.855 L7.959,27.855 C9.148,27.855 10.312,27.558 11.341,26.994 L42.814,26.994 C46.231,26.994 49.012,24.214 49.012,20.796 L49.012,20.796 Z M11.116,26.145 C10.203,26.687 9.122,27.005 7.959,27.005 L7.351,27.005 C4.118,27.005 1.488,24.573 1.488,21.583 L1.488,20.797 L1.488,20.796 L1.488,6.985 C1.488,4.036 3.887,1.636 6.837,1.636 L42.814,1.636 C45.763,1.636 48.163,4.036 48.163,6.985 L48.163,20.796 C48.163,23.745 45.763,26.145 42.814,26.145 L11.116,26.145 Z" id="Shape"></path>
            <polygon id="Path" points="6.798 18.047 8.493 18.047 7.668 15.427"></polygon>
            <path d="M7.9591,8.5416 L7.3501,8.5416 C4.6771,8.5416 2.5101,10.5116 2.5101,12.9426 L2.5101,21.5826 C2.5101,24.0136 4.6771,25.9836 7.3501,25.9836 L7.9591,25.9836 C10.6331,25.9836 12.8001,24.0136 12.8001,21.5826 L12.8001,12.9426 C12.8001,10.5116 10.6331,8.5416 7.9591,8.5416 L7.9591,8.5416 Z M9.4531,21.0756 L9.0351,19.7416 L6.2331,19.7416 L5.7921,21.0756 L3.8041,21.0756 L6.8771,12.7836 L8.5711,12.7836 L11.6221,21.0756 L9.4531,21.0756 Z" id="Shape"></path>
        </g>
    </g>
</svg>