<?xml version="1.0" encoding="UTF-8"?>
<svg width="26px" height="48px" viewBox="0 0 26 48" version="1.1" xmlns="http://www.w3.org/2000/svg" xmlns:xlink="http://www.w3.org/1999/xlink">
    <title>nutriscore-vertical-no-border-b</title>
    <g id="nutriscore-vertical-no-border-b" stroke="none" stroke-width="1" fill="none" fill-rule="evenodd">
        <path d="M0.6658,41.9292 L0.6658,6.0912 C0.6658,3.1532 3.0558,0.7622 5.9948,0.7622 L19.7518,0.7622 C22.6898,0.7622 25.0798,3.1532 25.0798,6.0912 L25.0798,12.0292 C25.6198,12.9382 25.9368,14.0152 25.9368,15.1732 L25.9368,15.7802 C25.9368,16.9382 25.6198,18.0152 25.0798,18.9242 L25.0798,41.9292 C25.0798,44.8682 22.6898,47.2592 19.7518,47.2592 L5.9948,47.2592 C3.0558,47.2592 0.6658,44.8682 0.6658,41.9292" id="Fill-3778" fill="#FFFFFE"></path>
        <path d="M11.9284,21.6206 C10.9664,21.6206 10.0644,21.3446 9.2814,20.8656 L9.2814,28.2816 L23.1824,28.2816 L23.1824,20.8656 C22.3984,21.3446 21.4974,21.6206 20.5354,21.6206 L11.9284,21.6206 Z" id="Fill-3780" fill="#F9C623"></path>
        <path d="M20.5353,9.333 C21.4973,9.333 22.3983,9.609 23.1823,10.087 L23.1823,6.091 C23.1823,4.196 21.6463,2.66 19.7513,2.66 L12.7113,2.66 C10.8163,2.66 9.2813,4.196 9.2813,6.091 L9.2813,10.087 C10.0643,9.609 10.9663,9.333 11.9283,9.333 L20.5353,9.333 Z" id="Fill-3782" fill="#007F46"></path>
        <path d="M16.4814,22.0976 C14.6964,22.0976 13.5194,23.1646 13.5194,24.8306 C13.5194,26.4896 14.7994,27.5496 16.4624,27.5496 C17.8824,27.5496 18.5654,27.0036 18.9384,26.2596 L17.7994,25.8976 C17.5654,26.3816 17.0794,26.6656 16.4154,26.6656 C15.4064,26.6656 14.7524,25.9446 14.7524,24.8386 C14.7524,23.6566 15.3874,22.9806 16.5284,22.9806 C17.2004,22.9806 17.7054,23.2646 18.0694,23.7716 L18.9664,23.2116 C18.4534,22.4816 17.6304,22.0976 16.4814,22.0976" id="Fill-3784" fill="#FFFFFE"></path>
        <path d="M15.3647,6.893 L16.2707,4.781 L17.2147,6.893 L15.3647,6.893 Z M16.6537,3.407 L15.8227,3.407 L13.2617,8.705 L14.5797,8.705 L15.0187,7.691 L17.5697,7.691 L18.0187,8.705 L19.2237,8.705 L16.6537,3.407 Z" id="Fill-3786" fill="#FFFFFE"></path>
        <path d="M24.919,15.7798 L24.919,15.1738 C24.919,12.5098 22.956,10.3508 20.535,10.3508 L11.928,10.3508 C9.507,10.3508 7.544,12.5098 7.544,15.1738 L7.544,15.7798 C7.544,18.4438 9.507,20.6018 11.928,20.6018 L20.535,20.6018 C22.956,20.6018 24.919,18.4438 24.919,15.7798" id="Fill-3788" fill="#79BB43"></path>
        <path d="M13.8304,19.209 L13.8304,11.774 L16.3734,11.774 C18.3324,11.774 19.1644,12.7 19.1644,13.886 C19.1644,14.532 18.8164,15.082 18.2754,15.33 C19.0294,15.556 19.5924,16.138 19.5924,16.924 C19.5924,18.292 18.6354,19.209 16.6324,19.209 L13.8304,19.209 Z M15.8004,14.802 L16.1714,14.802 C16.7334,14.802 17.1394,14.597 17.1394,14.025 C17.1394,13.455 16.7334,13.292 16.1714,13.292 L15.8004,13.292 L15.8004,14.802 Z M15.8004,16.191 L15.8004,17.689 L16.5424,17.689 C17.1164,17.689 17.5664,17.485 17.5664,16.924 C17.5664,16.375 17.0714,16.191 16.4414,16.191 L15.8004,16.191 Z" id="Fill-3790" fill="#FFFFFE"></path>
        <path d="M9.281,41.9292 L9.281,36.8262 L23.182,36.8262 L23.182,41.9292 C23.182,43.8242 21.646,45.3602 19.751,45.3602 L12.712,45.3602 C10.817,45.3602 9.281,43.8242 9.281,41.9292" id="Fill-3831" fill="#DC3E2A"></path>
        <polygon id="Fill-3833" fill="#FFFFFE" points="18.1688 38.3227 14.2348 38.3227 14.2348 43.8997 18.2058 43.8997 18.2058 43.0597 15.4308 43.0597 15.4308 41.4187 17.3738 41.4187 17.3738 40.5787 15.4308 40.5787 15.4308 39.1637 18.1688 39.1637"></polygon>
        <polygon id="Fill-3836" fill="#6D6E6D" points="4.2762 35.0449 6.1722 35.0449 6.1722 35.8109 2.8562 35.8109 2.8562 35.2129 4.8042 33.6679 2.8562 33.6679 2.8562 32.9019 6.1722 32.9019 6.1722 33.5179"></polygon>
        <path d="M5.5181,30.8471 C5.5181,30.7161 5.4911,30.6061 5.4361,30.5151 C5.3821,30.4251 5.3101,30.3521 5.2191,30.2961 C5.1291,30.2401 5.0251,30.2011 4.9091,30.1771 C4.7921,30.1541 4.6731,30.1421 4.5521,30.1421 L2.8571,30.1421 L2.8571,29.3761 L4.5521,29.3761 C4.7821,29.3761 4.9971,29.4051 5.1961,29.4621 C5.3951,29.5201 5.5691,29.6091 5.7191,29.7291 C5.8681,29.8491 5.9861,30.0011 6.0711,30.1861 C6.1571,30.3721 6.2001,30.5921 6.2001,30.8471 C6.2001,31.1121 6.1551,31.3371 6.0641,31.5241 C5.9741,31.7111 5.8541,31.8631 5.7031,31.9791 C5.5521,32.0961 5.3771,32.1821 5.1771,32.2361 C4.9781,32.2901 4.7691,32.3181 4.5521,32.3181 L2.8571,32.3181 L2.8571,31.5531 L4.5521,31.5531 C4.6791,31.5531 4.8011,31.5391 4.9161,31.5151 C5.0311,31.4901 5.1341,31.4501 5.2241,31.3931 C5.3141,31.3371 5.3861,31.2651 5.4391,31.1761 C5.4921,31.0881 5.5181,30.9781 5.5181,30.8471" id="Fill-3837" fill="#6D6E6D"></path>
        <polygon id="Fill-3839" fill="#6D6E6D" points="3.529 26.2617 3.529 27.2707 6.172 27.2707 6.172 28.0367 3.529 28.0367 3.529 29.0497 2.857 29.0497 2.857 26.2617"></polygon>
        <path d="M6.172,25.8838 L2.857,25.8838 L2.857,24.3898 C2.857,24.2338 2.889,24.0898 2.955,23.9578 C3.02,23.8248 3.106,23.7108 3.212,23.6138 C3.317,23.5178 3.437,23.4428 3.571,23.3878 C3.705,23.3338 3.84,23.3058 3.977,23.3058 C4.08,23.3058 4.179,23.3188 4.274,23.3438 C4.369,23.3688 4.458,23.4048 4.542,23.4508 C4.626,23.4978 4.702,23.5548 4.769,23.6208 C4.836,23.6888 4.892,23.7638 4.939,23.8478 L6.172,23.0868 L6.172,23.9508 L5.103,24.6178 L5.103,25.1178 L6.172,25.1178 L6.172,25.8838 Z" id="Path" fill="#6D6E6D"></path>
        <path d="M4.435,25.1178 L4.435,24.4178 C4.435,24.3268 4.392,24.2498 4.307,24.1838 C4.221,24.1188 4.111,24.0858 3.977,24.0858 C3.84,24.0858 3.731,24.1228 3.651,24.1978 C3.57,24.2728 3.529,24.3538 3.529,24.4418 L3.529,25.1178 L4.435,25.1178 Z" id="Path" fill="#FFFFFF"></path>
        <polygon id="Fill-3842" fill="#6D6E6D" points="2.8567 22.7092 6.1727 22.7092 6.1727 21.9432 2.8567 21.9432"></polygon>
        <polygon id="Fill-3843" fill="#6D6E6D" points="4.5517 21.3732 5.2237 21.3732 5.2237 19.9352 4.5517 19.9352"></polygon>
        <path d="M3.8279,17.3759 C3.8159,17.3889 3.7919,17.4229 3.7579,17.4789 C3.7239,17.5349 3.6879,17.6049 3.6509,17.6889 C3.6129,17.7729 3.5809,17.8649 3.5519,17.9639 C3.5239,18.0639 3.5099,18.1639 3.5099,18.2629 C3.5099,18.3939 3.5339,18.4949 3.5809,18.5649 C3.6269,18.6349 3.6959,18.6699 3.7859,18.6699 C3.8419,18.6699 3.8889,18.6539 3.9259,18.6229 C3.9629,18.5919 3.9969,18.5479 4.0259,18.4899 C4.0559,18.4319 4.0829,18.3609 4.1079,18.2749 C4.1329,18.1889 4.1609,18.0909 4.1919,17.9789 C4.2359,17.8199 4.2829,17.6759 4.3349,17.5489 C4.3859,17.4209 4.4499,17.3129 4.5259,17.2219 C4.6019,17.1319 4.6949,17.0629 4.8039,17.0139 C4.9129,16.9659 5.0439,16.9419 5.1959,16.9419 C5.3829,16.9419 5.5409,16.9769 5.6699,17.0469 C5.7989,17.1169 5.9039,17.2099 5.9829,17.3249 C6.0619,17.4399 6.1199,17.5729 6.1559,17.7239 C6.1909,17.8749 6.2089,18.0299 6.2089,18.1889 C6.2089,18.3099 6.1999,18.4339 6.1809,18.5599 C6.1619,18.6859 6.1349,18.8099 6.0999,18.9309 C6.0639,19.0529 6.0209,19.1709 5.9709,19.2859 C5.9209,19.4009 5.8639,19.5069 5.7979,19.6039 L5.1309,19.2669 C5.1459,19.2519 5.1759,19.2099 5.2199,19.1409 C5.2629,19.0729 5.3069,18.9889 5.3499,18.8889 C5.3939,18.7899 5.4329,18.6779 5.4669,18.5529 C5.5009,18.4289 5.5179,18.3019 5.5179,18.1749 C5.5179,17.9039 5.4359,17.7689 5.2709,17.7689 C5.2079,17.7689 5.1569,17.7889 5.1169,17.8289 C5.0759,17.8699 5.0389,17.9259 5.0069,17.9969 C4.9739,18.0689 4.9439,18.1529 4.9159,18.2499 C4.8879,18.3459 4.8569,18.4519 4.8219,18.5669 C4.7759,18.7199 4.7249,18.8519 4.6709,18.9639 C4.6159,19.0759 4.5529,19.1689 4.4819,19.2439 C4.4099,19.3189 4.3279,19.3739 4.2339,19.4099 C4.1409,19.4449 4.0319,19.4629 3.9069,19.4629 C3.7329,19.4629 3.5789,19.4309 3.4449,19.3649 C3.3109,19.2999 3.1979,19.2109 3.1069,19.0999 C3.0149,18.9869 2.9449,18.8569 2.8989,18.7089 C2.8519,18.5619 2.8289,18.4049 2.8289,18.2399 C2.8289,18.1219 2.8399,18.0069 2.8609,17.8949 C2.8829,17.7829 2.9109,17.6759 2.9449,17.5749 C2.9799,17.4739 3.0189,17.3779 3.0619,17.2879 C3.1059,17.1969 3.1489,17.1169 3.1929,17.0439 L3.8279,17.3759 Z" id="Fill-3844" fill="#6D6E6D"></path>
        <path d="M4.4862,16.685 C4.2872,16.685 4.0882,16.649 3.8912,16.578 C3.6932,16.506 3.5162,16.402 3.3612,16.265 C3.2052,16.128 3.0792,15.96 2.9832,15.763 C2.8862,15.565 2.8382,15.34 2.8382,15.088 C2.8382,14.793 2.9052,14.536 3.0392,14.318 C3.1732,14.1 3.3472,13.938 3.5612,13.832 L3.9722,14.42 C3.8852,14.455 3.8132,14.498 3.7552,14.551 C3.6982,14.604 3.6512,14.662 3.6152,14.724 C3.5802,14.787 3.5542,14.851 3.5402,14.918 C3.5262,14.985 3.5192,15.048 3.5192,15.107 C3.5192,15.244 3.5492,15.362 3.6082,15.462 C3.6672,15.561 3.7442,15.643 3.8372,15.709 C3.9312,15.775 4.0362,15.824 4.1552,15.856 C4.2732,15.889 4.3932,15.906 4.5142,15.906 C4.6452,15.906 4.7712,15.886 4.8922,15.847 C5.0142,15.808 5.1212,15.754 5.2152,15.684 C5.3082,15.613 5.3822,15.529 5.4362,15.429 C5.4912,15.33 5.5182,15.219 5.5182,15.098 C5.5182,15.036 5.5092,14.971 5.4922,14.904 C5.4752,14.837 5.4492,14.772 5.4132,14.71 C5.3772,14.648 5.3312,14.592 5.2732,14.542 C5.2152,14.493 5.1442,14.452 5.0602,14.42 L5.4292,13.79 C5.5512,13.84 5.6602,13.913 5.7562,14.007 C5.8532,14.102 5.9342,14.211 5.9992,14.331 C6.0642,14.453 6.1142,14.582 6.1482,14.717 C6.1832,14.852 6.2002,14.986 6.2002,15.117 C6.2002,15.347 6.1512,15.558 6.0532,15.749 C5.9552,15.941 5.8252,16.105 5.6632,16.244 C5.5012,16.382 5.3172,16.491 5.1122,16.568 C4.9062,16.646 4.6982,16.685 4.4862,16.685" id="Fill-3846" fill="#6D6E6D"></path>
        <path d="M6.1998,12.0439 C6.1998,12.2799 6.1518,12.4959 6.0548,12.6889 C5.9588,12.8809 5.8318,13.0469 5.6748,13.1859 C5.5178,13.3239 5.3378,13.4319 5.1348,13.5079 C4.9328,13.5849 4.7248,13.6219 4.5098,13.6219 C4.2918,13.6219 4.0818,13.5829 3.8798,13.5029 C3.6768,13.4229 3.4988,13.3129 3.3448,13.1719 C3.1908,13.0299 3.0678,12.8619 2.9758,12.6679 C2.8838,12.4729 2.8378,12.2609 2.8378,12.0299 C2.8378,11.7939 2.8868,11.5789 2.9828,11.3859 C3.0788,11.1929 3.2068,11.0269 3.3658,10.8879 C3.5248,10.7499 3.7048,10.6429 3.9078,10.5689 C4.1098,10.4939 4.3148,10.4569 4.5238,10.4569 C4.7418,10.4569 4.9518,10.4959 5.1538,10.5759 C5.3568,10.6539 5.5348,10.7649 5.6888,10.9049 C5.8428,11.0439 5.9668,11.2119 6.0598,11.4069 C6.1538,11.6009 6.1998,11.8139 6.1998,12.0439 M4.5188,12.8429 C4.6468,12.8429 4.7698,12.8249 4.8898,12.7889 C5.0098,12.7519 5.1168,12.7019 5.2098,12.6349 C5.3038,12.5669 5.3778,12.4839 5.4338,12.3829 C5.4908,12.2819 5.5178,12.1659 5.5178,12.0339 C5.5178,11.8999 5.4888,11.7839 5.4298,11.6839 C5.3708,11.5849 5.2938,11.5019 5.1988,11.4349 C5.1038,11.3679 4.9958,11.3179 4.8758,11.2849 C4.7558,11.2519 4.6338,11.2359 4.5098,11.2359 C4.3818,11.2359 4.2588,11.2539 4.1388,11.2899 C4.0188,11.3259 3.9128,11.3769 3.8208,11.4459 C3.7288,11.5149 3.6558,11.5989 3.6018,11.6979 C3.5468,11.7979 3.5198,11.9119 3.5198,12.0389 C3.5198,12.1729 3.5488,12.2899 3.6058,12.3899 C3.6638,12.4889 3.7388,12.5719 3.8328,12.6389 C3.9258,12.7069 4.0328,12.7569 4.1518,12.7909 C4.2728,12.8249 4.3948,12.8429 4.5188,12.8429" id="Fill-3848" fill="#6D6E6D"></path>
        <path d="M6.172,10.0083 L2.857,10.0083 L2.857,8.5133 C2.857,8.3583 2.889,8.2143 2.955,8.0823 C3.02,7.9493 3.106,7.8353 3.212,7.7383 C3.317,7.6423 3.437,7.5673 3.571,7.5123 C3.705,7.4573 3.84,7.4303 3.977,7.4303 C4.08,7.4303 4.179,7.4433 4.274,7.4683 C4.369,7.4923 4.458,7.5283 4.542,7.5753 C4.626,7.6223 4.702,7.6793 4.769,7.7453 C4.836,7.8133 4.892,7.8883 4.939,7.9723 L6.172,7.2113 L6.172,8.0743 L5.103,8.7423 L5.103,9.2423 L6.172,9.2423 L6.172,10.0083 Z M4.435,9.2423 L4.435,8.5423 C4.435,8.4513 4.392,8.3743 4.307,8.3083 C4.221,8.2433 4.111,8.2103 3.977,8.2103 C3.84,8.2103 3.731,8.2483 3.651,8.3223 C3.57,8.3973 3.529,8.4783 3.529,8.5653 L3.529,9.2423 L4.435,9.2423 Z" id="Fill-3850" fill="#6D6E6D"></path>
        <polygon id="Fill-3853" fill="#6D6E6D" points="5.4994 4.5029 6.1724 4.5029 6.1724 6.8329 2.8564 6.8329 2.8564 4.5449 3.5294 4.5449 3.5294 6.0669 4.1734 6.0669 4.1734 4.7599 4.7944 4.7599 4.7944 6.0669 5.4994 6.0669"></polygon>
        <polygon id="Fill-3854" fill="#E7792B" points="9.2807 36.8252 23.1817 36.8252 23.1817 28.2822 9.2807 28.2822"></polygon>
        <path d="M14.7626,34.6665 L14.7626,30.7875 L15.4356,30.7875 C16.9206,30.7875 17.6406,31.4975 17.6406,32.7185 C17.6406,33.8335 16.8656,34.6665 15.2856,34.6665 L14.7626,34.6665 Z M15.4446,29.9305 L13.5666,29.9305 L13.5666,35.5065 L15.3146,35.5065 C17.5286,35.5065 18.8736,34.3185 18.8736,32.7185 C18.8736,30.9725 17.6216,29.9305 15.4446,29.9305 L15.4446,29.9305 Z" id="Fill-3855" fill="#FFFFFE"></path>
    </g>
</svg>