<?xml version="1.0" encoding="UTF-8"?>
<svg width="28px" height="49px" viewBox="0 0 28 49" version="1.1" xmlns="http://www.w3.org/2000/svg" xmlns:xlink="http://www.w3.org/1999/xlink">
    <title>nutriscore-vertical-border-c</title>
    <g id="nutriscore-vertical-border-c" stroke="none" stroke-width="1" fill="none" fill-rule="evenodd">
        <path d="M20.72,48.143 L6.962,48.143 C3.57,48.143 0.81,45.383 0.81,41.991 L0.81,6.152 C0.81,2.761 3.57,0 6.962,0 L20.72,0 C24.112,0 26.872,2.761 26.872,6.152 L26.872,20.393 C27.433,21.417 27.729,22.575 27.729,23.757 L27.729,24.363 C27.729,25.546 27.433,26.704 26.872,27.726 L26.872,41.991 C26.872,45.383 24.112,48.143 20.72,48.143" id="Fill-3656" fill="#6D6E6D"></path>
        <path d="M1.6333,41.9912 L1.6333,6.1522 C1.6333,3.2142 4.0243,0.8242 6.9623,0.8242 L20.7203,0.8242 C23.6573,0.8242 26.0483,3.2142 26.0483,6.1522 L26.0483,20.6122 C26.5883,21.5212 26.9053,22.5992 26.9053,23.7582 L26.9053,24.3642 C26.9053,25.5212 26.5883,26.5982 26.0483,27.5082 L26.0483,41.9912 C26.0483,44.9292 23.6573,47.3202 20.7203,47.3202 L6.9623,47.3202 C4.0243,47.3202 1.6333,44.9292 1.6333,41.9912" id="Fill-3658" fill="#FFFFFE"></path>
        <path d="M24.1506,41.9912 L24.1506,36.8872 L10.2486,36.8872 L10.2486,41.9912 C10.2486,43.8862 11.7856,45.4222 13.6806,45.4222 L20.7196,45.4222 C22.6146,45.4222 24.1506,43.8862 24.1506,41.9912" id="Fill-3660" fill="#DC3E2A"></path>
        <path d="M24.1506,6.1518 L24.1506,11.2558 L10.2486,11.2558 L10.2486,6.1518 C10.2486,4.2568 11.7856,2.7208 13.6806,2.7208 L20.7196,2.7208 C22.6146,2.7208 24.1506,4.2568 24.1506,6.1518" id="Fill-3662" fill="#007F46"></path>
        <path d="M21.5033,17.9165 C22.4653,17.9165 23.3673,18.1935 24.1503,18.6715 L24.1503,11.2555 L10.2493,11.2555 L10.2493,18.6715 C11.0333,18.1935 11.9343,17.9165 12.8963,17.9165 L21.5033,17.9165 Z" id="Fill-3664" fill="#79BB43"></path>
        <path d="M12.8961,30.2041 C11.9341,30.2041 11.0331,29.9281 10.2491,29.4501 L10.2491,36.8881 L24.1501,36.8881 L24.1501,29.4501 C23.3671,29.9281 22.4651,30.2041 21.5031,30.2041 L12.8961,30.2041 Z" id="Fill-3666" fill="#E7792B"></path>
        <path d="M16.127,16.435 L16.127,14.937 L16.745,14.937 C17.893,14.946 18.266,15.222 18.266,15.659 C18.266,16.205 17.776,16.435 16.823,16.435 L16.127,16.435 Z M16.127,14.201 L16.127,12.734 L16.5,12.734 C17.491,12.734 17.893,12.972 17.893,13.449 C17.893,13.886 17.51,14.185 16.706,14.193 L16.127,14.201 Z M16.657,11.935 L14.871,11.935 L14.871,17.233 L16.882,17.233 C18.776,17.233 19.551,16.611 19.551,15.659 C19.551,15.137 19.198,14.723 18.462,14.485 C18.884,14.216 19.178,13.839 19.178,13.355 C19.178,12.573 18.502,11.935 16.657,11.935 L16.657,11.935 Z" id="Fill-3668" fill="#FFFFFE"></path>
        <path d="M16.2391,7.9384 L17.1831,5.7154 L18.0891,7.9384 L16.2391,7.9384 Z M17.6321,4.2684 L16.8001,4.2684 L14.2311,9.8454 L15.4361,9.8454 L15.8841,8.7784 L18.4351,8.7784 L18.8751,9.8454 L20.1921,9.8454 L17.6321,4.2684 Z" id="Fill-3670" fill="#FFFFFE"></path>
        <path d="M25.8873,24.3637 L25.8873,23.7567 C25.8873,21.0937 23.9243,18.9347 21.5033,18.9347 L12.8963,18.9347 C10.4753,18.9347 8.5123,21.0937 8.5123,23.7567 L8.5123,24.3637 C8.5123,27.0267 10.4753,29.1857 12.8963,29.1857 L21.5033,29.1857 C23.9243,29.1857 25.8873,27.0267 25.8873,24.3637" id="Fill-3674" fill="#F9C623"></path>
        <path d="M13.3628,23.9897 C13.3628,21.6187 15.0028,20.1537 17.2178,20.1537 C19.1458,20.1537 19.9598,21.0697 20.4268,22.0397 L18.4268,22.7187 C18.1878,22.2117 17.8168,21.8447 17.1218,21.8447 C16.0808,21.8447 15.5298,22.6857 15.5298,23.9787 C15.5298,25.4117 16.1048,26.1127 17.2778,26.1127 C17.9718,26.1127 18.5108,25.7457 18.9058,25.2187 L20.4508,26.2627 C19.7678,27.2117 18.6788,27.8037 17.2178,27.8037 C14.8718,27.8037 13.3628,26.3277 13.3628,23.9897" id="Fill-3676" fill="#FFFFFE"></path>
        <polygon id="Fill-3678" fill="#FFFFFE" points="19.1371 38.3842 15.2031 38.3842 15.2031 43.9612 19.1741 43.9612 19.1741 43.1202 16.3991 43.1202 16.3991 41.4802 18.3431 41.4802 18.3431 40.6402 16.3991 40.6402 16.3991 39.2252 19.1371 39.2252"></polygon>
        <path d="M15.6579,35.4043 L15.6579,31.7183 L16.3649,31.7183 C17.9239,31.7183 18.6799,32.3953 18.6799,33.5543 C18.6799,34.6133 17.8659,35.4043 16.2079,35.4043 L15.6579,35.4043 Z M16.3739,30.9043 L14.4019,30.9043 L14.4019,36.2033 L16.2369,36.2033 C18.5619,36.2033 19.9759,35.0743 19.9759,33.5543 C19.9759,31.8953 18.6599,30.9043 16.3739,30.9043 L16.3739,30.9043 Z" id="Fill-3680" fill="#FFFFFE"></path>
        <polygon id="Fill-3683" fill="#6D6E6D" points="5.2445 35.1064 7.1405 35.1064 7.1405 35.8724 3.8245 35.8724 3.8245 35.2744 5.7715 33.7294 3.8245 33.7294 3.8245 32.9634 7.1405 32.9634 7.1405 33.5794"></polygon>
        <path d="M6.4864,30.9087 C6.4864,30.7787 6.4594,30.6677 6.4054,30.5767 C6.3504,30.4877 6.2784,30.4137 6.1874,30.3577 C6.0974,30.3017 5.9934,30.2627 5.8774,30.2387 C5.7604,30.2157 5.6414,30.2037 5.5204,30.2037 L3.8254,30.2037 L3.8254,29.4377 L5.5204,29.4377 C5.7504,29.4377 5.9654,29.4667 6.1644,29.5237 C6.3634,29.5817 6.5374,29.6707 6.6874,29.7907 C6.8364,29.9107 6.9544,30.0627 7.0394,30.2477 C7.1254,30.4337 7.1684,30.6537 7.1684,30.9087 C7.1684,31.1737 7.1234,31.3987 7.0324,31.5857 C6.9424,31.7727 6.8214,31.9247 6.6714,32.0407 C6.5204,32.1587 6.3454,32.2437 6.1454,32.2977 C5.9464,32.3517 5.7374,32.3797 5.5204,32.3797 L3.8254,32.3797 L3.8254,31.6147 L5.5204,31.6147 C5.6474,31.6147 5.7694,31.6007 5.8844,31.5767 C5.9994,31.5517 6.1024,31.5117 6.1924,31.4547 C6.2824,31.3987 6.3544,31.3267 6.4074,31.2387 C6.4604,31.1497 6.4864,31.0397 6.4864,30.9087" id="Fill-3684" fill="#6D6E6D"></path>
        <polygon id="Fill-3686" fill="#6D6E6D" points="4.4974 26.3237 4.4974 27.3317 7.1404 27.3317 7.1404 28.0977 4.4974 28.0977 4.4974 29.1107 3.8254 29.1107 3.8254 26.3237"></polygon>
        <path d="M7.1404,25.9453 L3.8254,25.9453 L3.8254,24.4513 C3.8254,24.2953 3.8574,24.1513 3.9234,24.0193 C3.9884,23.8863 4.0744,23.7733 4.1804,23.6763 C4.2854,23.5793 4.4054,23.5043 4.5394,23.4493 C4.6734,23.3953 4.8084,23.3673 4.9454,23.3673 C5.0484,23.3673 5.1474,23.3813 5.2424,23.4053 C5.3374,23.4303 5.4264,23.4663 5.5104,23.5123 C5.5944,23.5593 5.6704,23.6163 5.7374,23.6823 C5.8044,23.7503 5.8604,23.8253 5.9074,23.9093 L7.1404,23.1483 L7.1404,24.0123 L6.0704,24.6793 L6.0704,25.1793 L7.1404,25.1793 L7.1404,25.9453 Z" id="Path" fill="#6D6E6D"></path>
        <path d="M5.4034,25.1793 L5.4034,24.4793 C5.4034,24.3883 5.3604,24.3113 5.2744,24.2453 C5.1894,24.1803 5.0794,24.1473 4.9454,24.1473 C4.8084,24.1473 4.6994,24.1843 4.6184,24.2593 C4.5384,24.3343 4.4974,24.4153 4.4974,24.5033 L4.4974,25.1793 L5.4034,25.1793 Z" id="Path" fill="#FFFFFF"></path>
        <polygon id="Fill-3689" fill="#6D6E6D" points="3.8257 22.7712 7.1407 22.7712 7.1407 22.0042 3.8257 22.0042"></polygon>
        <polygon id="Fill-3690" fill="#6D6E6D" points="5.5197 21.4352 6.1917 21.4352 6.1917 19.9972 5.5197 19.9972"></polygon>
        <path d="M4.7963,17.4375 C4.7833,17.4505 4.7603,17.4845 4.7263,17.5405 C4.6923,17.5965 4.6563,17.6665 4.6193,17.7505 C4.5813,17.8345 4.5483,17.9265 4.5203,18.0255 C4.4923,18.1255 4.4783,18.2255 4.4783,18.3245 C4.4783,18.4555 4.5023,18.5565 4.5483,18.6265 C4.5953,18.6965 4.6643,18.7315 4.7543,18.7315 C4.8103,18.7315 4.8573,18.7155 4.8943,18.6845 C4.9313,18.6535 4.9653,18.6095 4.9943,18.5515 C5.0243,18.4935 5.0513,18.4225 5.0763,18.3365 C5.1013,18.2505 5.1293,18.1525 5.1603,18.0405 C5.2043,17.8815 5.2513,17.7375 5.3033,17.6105 C5.3543,17.4835 5.4183,17.3745 5.4943,17.2835 C5.5703,17.1935 5.6633,17.1245 5.7723,17.0755 C5.8813,17.0275 6.0123,17.0035 6.1643,17.0035 C6.3513,17.0035 6.5093,17.0385 6.6383,17.1085 C6.7673,17.1785 6.8723,17.2715 6.9513,17.3865 C7.0303,17.5015 7.0883,17.6345 7.1243,17.7865 C7.1593,17.9365 7.1773,18.0915 7.1773,18.2505 C7.1773,18.3715 7.1683,18.4955 7.1493,18.6215 C7.1303,18.7475 7.1033,18.8715 7.0683,18.9925 C7.0323,19.1145 6.9893,19.2325 6.9393,19.3475 C6.8893,19.4625 6.8323,19.5685 6.7663,19.6655 L6.0993,19.3285 C6.1143,19.3135 6.1443,19.2715 6.1873,19.2035 C6.2313,19.1345 6.2753,19.0505 6.3183,18.9505 C6.3623,18.8515 6.4003,18.7395 6.4353,18.6145 C6.4693,18.4905 6.4863,18.3635 6.4863,18.2365 C6.4863,17.9655 6.4043,17.8305 6.2393,17.8305 C6.1763,17.8305 6.1253,17.8505 6.0853,17.8905 C6.0443,17.9315 6.0073,17.9875 5.9753,18.0585 C5.9423,18.1305 5.9123,18.2145 5.8843,18.3115 C5.8563,18.4075 5.8253,18.5135 5.7903,18.6285 C5.7443,18.7815 5.6933,18.9135 5.6393,19.0255 C5.5843,19.1375 5.5213,19.2305 5.4503,19.3055 C5.3783,19.3805 5.2963,19.4355 5.2023,19.4715 C5.1093,19.5065 5.0003,19.5255 4.8753,19.5255 C4.7013,19.5255 4.5473,19.4925 4.4133,19.4265 C4.2793,19.3615 4.1663,19.2725 4.0743,19.1615 C3.9833,19.0485 3.9133,18.9185 3.8673,18.7705 C3.8203,18.6235 3.7973,18.4665 3.7973,18.3015 C3.7973,18.1835 3.8083,18.0685 3.8293,17.9565 C3.8513,17.8445 3.8793,17.7375 3.9133,17.6365 C3.9483,17.5355 3.9863,17.4395 4.0303,17.3495 C4.0743,17.2585 4.1173,17.1785 4.1613,17.1065 L4.7963,17.4375 Z" id="Fill-3691" fill="#6D6E6D"></path>
        <path d="M5.4546,16.7465 C5.2556,16.7465 5.0566,16.7105 4.8596,16.6395 C4.6616,16.5675 4.4846,16.4635 4.3296,16.3265 C4.1736,16.1895 4.0476,16.0225 3.9506,15.8245 C3.8546,15.6265 3.8066,15.4015 3.8066,15.1495 C3.8066,14.8545 3.8736,14.5975 4.0076,14.3795 C4.1406,14.1615 4.3156,13.9995 4.5296,13.8935 L4.9406,14.4815 C4.8536,14.5165 4.7816,14.5595 4.7236,14.6125 C4.6666,14.6655 4.6196,14.7235 4.5836,14.7855 C4.5486,14.8485 4.5226,14.9135 4.5086,14.9795 C4.4946,15.0465 4.4876,15.1095 4.4876,15.1685 C4.4876,15.3055 4.5176,15.4235 4.5766,15.5235 C4.6356,15.6225 4.7116,15.7055 4.8056,15.7705 C4.8986,15.8365 5.0046,15.8855 5.1236,15.9175 C5.2416,15.9505 5.3616,15.9675 5.4826,15.9675 C5.6136,15.9675 5.7396,15.9475 5.8606,15.9085 C5.9826,15.8695 6.0896,15.8155 6.1826,15.7455 C6.2766,15.6745 6.3506,15.5905 6.4046,15.4905 C6.4596,15.3915 6.4866,15.2805 6.4866,15.1595 C6.4866,15.0975 6.4776,15.0325 6.4606,14.9655 C6.4436,14.8985 6.4176,14.8335 6.3816,14.7715 C6.3456,14.7095 6.2986,14.6535 6.2416,14.6035 C6.1836,14.5545 6.1126,14.5135 6.0286,14.4815 L6.3976,13.8515 C6.5196,13.9015 6.6286,13.9745 6.7246,14.0685 C6.8216,14.1635 6.9016,14.2725 6.9676,14.3925 C7.0326,14.5145 7.0826,14.6435 7.1166,14.7785 C7.1516,14.9135 7.1686,15.0475 7.1686,15.1785 C7.1686,15.4085 7.1196,15.6195 7.0206,15.8105 C6.9226,16.0025 6.7936,16.1665 6.6316,16.3055 C6.4696,16.4435 6.2856,16.5525 6.0806,16.6295 C5.8746,16.7075 5.6666,16.7465 5.4546,16.7465" id="Fill-3693" fill="#6D6E6D"></path>
        <path d="M7.1681,12.1054 C7.1681,12.3414 7.1201,12.5574 7.0231,12.7504 C6.9271,12.9424 6.8001,13.1084 6.6431,13.2474 C6.4861,13.3854 6.3061,13.4934 6.1031,13.5694 C5.9011,13.6464 5.6931,13.6834 5.4781,13.6834 C5.2601,13.6834 5.0501,13.6444 4.8481,13.5644 C4.6451,13.4844 4.4671,13.3744 4.3131,13.2334 C4.1591,13.0914 4.0361,12.9234 3.9441,12.7294 C3.8521,12.5344 3.8061,12.3224 3.8061,12.0914 C3.8061,11.8554 3.8551,11.6404 3.9511,11.4474 C4.0471,11.2544 4.1751,11.0884 4.3341,10.9494 C4.4921,10.8114 4.6731,10.7044 4.8761,10.6304 C5.0781,10.5554 5.2831,10.5184 5.4921,10.5184 C5.7101,10.5184 5.9201,10.5574 6.1221,10.6374 C6.3251,10.7164 6.5031,10.8264 6.6571,10.9664 C6.8111,11.1064 6.9351,11.2734 7.0281,11.4684 C7.1221,11.6634 7.1681,11.8754 7.1681,12.1054 M5.4871,12.9044 C5.6151,12.9044 5.7381,12.8864 5.8581,12.8504 C5.9781,12.8144 6.0851,12.7634 6.1781,12.6964 C6.2721,12.6294 6.3461,12.5454 6.4021,12.4444 C6.4591,12.3434 6.4861,12.2274 6.4861,12.0954 C6.4861,11.9614 6.4571,11.8454 6.3981,11.7454 C6.3391,11.6464 6.2621,11.5634 6.1671,11.4964 C6.0721,11.4294 5.9641,11.3794 5.8441,11.3464 C5.7241,11.3134 5.6021,11.2974 5.4781,11.2974 C5.3501,11.2974 5.2271,11.3154 5.1071,11.3514 C4.9871,11.3874 4.8811,11.4394 4.7891,11.5074 C4.6971,11.5764 4.6241,11.6604 4.5701,11.7594 C4.5151,11.8594 4.4881,11.9734 4.4881,12.1004 C4.4881,12.2344 4.5171,12.3514 4.5741,12.4514 C4.6321,12.5504 4.7071,12.6334 4.8011,12.7004 C4.8941,12.7684 5.0011,12.8184 5.1211,12.8524 C5.2411,12.8864 5.3631,12.9044 5.4871,12.9044" id="Fill-3695" fill="#6D6E6D"></path>
        <path d="M7.1404,10.0698 L3.8254,10.0698 L3.8254,8.5748 C3.8254,8.4198 3.8574,8.2758 3.9234,8.1438 C3.9884,8.0108 4.0744,7.8968 4.1804,7.7998 C4.2854,7.7038 4.4054,7.6288 4.5394,7.5738 C4.6734,7.5188 4.8084,7.4918 4.9454,7.4918 C5.0484,7.4918 5.1474,7.5048 5.2424,7.5298 C5.3374,7.5538 5.4264,7.5898 5.5104,7.6368 C5.5944,7.6838 5.6704,7.7408 5.7374,7.8078 C5.8044,7.8748 5.8604,7.9498 5.9074,8.0338 L7.1404,7.2728 L7.1404,8.1358 L6.0704,8.8038 L6.0704,9.3038 L7.1404,9.3038 L7.1404,10.0698 Z M5.4034,9.3038 L5.4034,8.6038 C5.4034,8.5128 5.3604,8.4358 5.2744,8.3698 C5.1894,8.3048 5.0794,8.2718 4.9454,8.2718 C4.8084,8.2718 4.6994,8.3098 4.6184,8.3838 C4.5384,8.4588 4.4974,8.5398 4.4974,8.6268 L4.4974,9.3038 L5.4034,9.3038 Z" id="Fill-3697" fill="#6D6E6D"></path>
        <polygon id="Fill-3700" fill="#6D6E6D" points="6.4677 4.5644 7.1407 4.5644 7.1407 6.8944 3.8247 6.8944 3.8247 4.6064 4.4977 4.6064 4.4977 6.1284 5.1417 6.1284 5.1417 4.8214 5.7627 4.8214 5.7627 6.1284 6.4677 6.1284"></polygon>
    </g>
</svg>