<?xml version="1.0" encoding="UTF-8"?>
<svg width="28px" height="49px" viewBox="0 0 28 49" version="1.1" xmlns="http://www.w3.org/2000/svg" xmlns:xlink="http://www.w3.org/1999/xlink">
    <title>nutriscore-vertical-border-d</title>
    <g id="nutriscore-vertical-border-d" stroke="none" stroke-width="1" fill="none" fill-rule="evenodd">
        <path d="M20.3851,48.143 L6.6271,48.143 C3.2351,48.143 0.4751,45.383 0.4751,41.991 L0.4751,6.152 C0.4751,2.76 3.2351,0 6.6271,0 L20.3851,0 C23.7781,0 26.5381,2.76 26.5381,6.152 L26.5381,28.927 C27.0991,29.95 27.3951,31.107 27.3951,32.289 L27.3951,32.896 C27.3951,34.078 27.0991,35.235 26.5381,36.259 L26.5381,41.991 C26.5381,45.383 23.7781,48.143 20.3851,48.143" id="Fill-3562" fill="#6D6E6D"></path>
        <path d="M1.2991,41.9917 L1.2991,6.1527 C1.2991,3.2147 3.6901,0.8237 6.6271,0.8237 L20.3851,0.8237 C23.3231,0.8237 25.7141,3.2147 25.7141,6.1527 L25.7141,29.1457 C26.2531,30.0537 26.5711,31.1327 26.5711,32.2897 L26.5711,32.8957 C26.5711,34.0547 26.2531,35.1327 25.7141,36.0417 L25.7141,41.9917 C25.7141,44.9297 23.3231,47.3197 20.3851,47.3197 L6.6271,47.3197 C3.6901,47.3197 1.2991,44.9297 1.2991,41.9917" id="Fill-3564" fill="#FFFFFE"></path>
        <path d="M23.8163,6.1518 L23.8163,11.2558 L9.9143,11.2558 L9.9143,6.1518 C9.9143,4.2568 11.4503,2.7208 13.3453,2.7208 L20.3853,2.7208 C22.2793,2.7208 23.8163,4.2568 23.8163,6.1518" id="Fill-3566" fill="#007F46"></path>
        <path d="M15.9048,7.9384 L16.8478,5.7154 L17.7548,7.9384 L15.9048,7.9384 Z M17.2968,4.2684 L16.4658,4.2684 L13.8958,9.8454 L15.1008,9.8454 L15.5498,8.7784 L18.1008,8.7784 L18.5398,9.8454 L19.8578,9.8454 L17.2968,4.2684 Z" id="Fill-3672" fill="#FFFFFE"></path>
        <path d="M12.5619,38.7363 C11.5999,38.7363 10.6979,38.4603 9.9149,37.9823 L9.9149,41.9913 C9.9149,43.8853 11.4509,45.4223 13.3459,45.4223 L20.3859,45.4223 C22.2799,45.4223 23.8159,43.8853 23.8159,41.9913 L23.8159,37.9823 C23.0329,38.4603 22.1309,38.7363 21.1689,38.7363 L12.5619,38.7363 Z" id="Fill-3701" fill="#DC3E2A"></path>
        <polygon id="Fill-3703" fill="#FFFFFE" points="18.8995 39.435 14.7695 39.435 14.7695 44.733 18.9395 44.733 18.9395 43.934 16.0255 43.934 16.0255 42.375 18.0655 42.375 18.0655 41.578 16.0255 41.578 16.0255 40.233 18.8995 40.233"></polygon>
        <polygon id="Fill-3706" fill="#6D6E6D" points="4.9098 35.1064 6.8058 35.1064 6.8058 35.8724 3.4908 35.8724 3.4908 35.2744 5.4378 33.7294 3.4908 33.7294 3.4908 32.9634 6.8058 32.9634 6.8058 33.5794"></polygon>
        <path d="M6.152,30.9087 C6.152,30.7787 6.125,30.6677 6.07,30.5767 C6.016,30.4877 5.943,30.4137 5.853,30.3577 C5.763,30.3017 5.659,30.2627 5.543,30.2387 C5.426,30.2157 5.307,30.2037 5.185,30.2037 L3.491,30.2037 L3.491,29.4377 L5.185,29.4377 C5.416,29.4377 5.631,29.4667 5.83,29.5237 C6.029,29.5817 6.203,29.6707 6.353,29.7907 C6.502,29.9107 6.62,30.0627 6.705,30.2477 C6.791,30.4337 6.834,30.6537 6.834,30.9087 C6.834,31.1737 6.789,31.3987 6.699,31.5857 C6.608,31.7727 6.487,31.9247 6.336,32.0407 C6.186,32.1587 6.01,32.2437 5.811,32.2977 C5.612,32.3517 5.403,32.3797 5.185,32.3797 L3.491,32.3797 L3.491,31.6147 L5.185,31.6147 C5.313,31.6147 5.435,31.6007 5.55,31.5767 C5.665,31.5517 5.767,31.5117 5.858,31.4547 C5.948,31.3987 6.02,31.3267 6.073,31.2387 C6.126,31.1497 6.152,31.0397 6.152,30.9087" id="Fill-3707" fill="#6D6E6D"></path>
        <polygon id="Fill-3709" fill="#6D6E6D" points="4.1629 26.3237 4.1629 27.3317 6.8059 27.3317 6.8059 28.0977 4.1629 28.0977 4.1629 29.1107 3.4909 29.1107 3.4909 26.3237"></polygon>
        <path d="M6.8058,25.9453 L3.4908,25.9453 L3.4908,24.4513 C3.4908,24.2953 3.5238,24.1513 3.5888,24.0193 C3.6538,23.8863 3.7398,23.7733 3.8458,23.6763 C3.9518,23.5793 4.0708,23.5043 4.2048,23.4493 C4.3388,23.3953 4.4738,23.3673 4.6108,23.3673 C4.7138,23.3673 4.8128,23.3813 4.9078,23.4053 C5.0028,23.4303 5.0918,23.4663 5.1768,23.5123 C5.2598,23.5593 5.3358,23.6163 5.4028,23.6823 C5.4698,23.7503 5.5268,23.8253 5.5728,23.9093 L6.8058,23.1483 L6.8058,24.0123 L5.7368,24.6793 L5.7368,25.1793 L6.8058,25.1793 L6.8058,25.9453 Z" id="Path" fill="#6D6E6D"></path>
        <path d="M5.0688,25.1793 L5.0688,24.4793 C5.0688,24.3883 5.0258,24.3113 4.9398,24.2453 C4.8548,24.1803 4.7448,24.1473 4.6108,24.1473 C4.4738,24.1473 4.3648,24.1843 4.2838,24.2593 C4.2028,24.3343 4.1628,24.4153 4.1628,24.5033 L4.1628,25.1793 L5.0688,25.1793 Z" id="Path" fill="#FFFFFF"></path>
        <polygon id="Fill-3712" fill="#6D6E6D" points="3.4907 22.7712 6.8067 22.7712 6.8067 22.0042 3.4907 22.0042"></polygon>
        <polygon id="Fill-3713" fill="#6D6E6D" points="5.1857 21.4352 5.8577 21.4352 5.8577 19.9972 5.1857 19.9972"></polygon>
        <path d="M4.4616,17.4375 C4.4496,17.4505 4.4256,17.4845 4.3916,17.5405 C4.3576,17.5965 4.3216,17.6665 4.2846,17.7505 C4.2466,17.8345 4.2146,17.9265 4.1866,18.0255 C4.1586,18.1255 4.1446,18.2255 4.1446,18.3245 C4.1446,18.4555 4.1676,18.5565 4.2146,18.6265 C4.2606,18.6965 4.3296,18.7315 4.4196,18.7315 C4.4756,18.7315 4.5226,18.7155 4.5596,18.6845 C4.5976,18.6535 4.6306,18.6095 4.6606,18.5515 C4.6896,18.4935 4.7166,18.4225 4.7416,18.3365 C4.7666,18.2505 4.7946,18.1525 4.8256,18.0405 C4.8696,17.8815 4.9166,17.7375 4.9686,17.6105 C5.0196,17.4835 5.0836,17.3745 5.1596,17.2835 C5.2366,17.1935 5.3286,17.1245 5.4376,17.0755 C5.5466,17.0275 5.6776,17.0035 5.8296,17.0035 C6.0166,17.0035 6.1746,17.0385 6.3036,17.1085 C6.4326,17.1785 6.5376,17.2715 6.6166,17.3865 C6.6966,17.5015 6.7536,17.6345 6.7896,17.7865 C6.8246,17.9365 6.8436,18.0915 6.8436,18.2505 C6.8436,18.3715 6.8336,18.4955 6.8146,18.6215 C6.7966,18.7475 6.7696,18.8715 6.7336,18.9925 C6.6976,19.1145 6.6546,19.2325 6.6046,19.3475 C6.5556,19.4625 6.4976,19.5685 6.4326,19.6655 L5.7646,19.3285 C5.7796,19.3135 5.8096,19.2715 5.8536,19.2035 C5.8966,19.1345 5.9406,19.0505 5.9836,18.9505 C6.0276,18.8515 6.0666,18.7395 6.1006,18.6145 C6.1356,18.4905 6.1516,18.3635 6.1516,18.2365 C6.1516,17.9655 6.0696,17.8305 5.9046,17.8305 C5.8426,17.8305 5.7906,17.8505 5.7506,17.8905 C5.7096,17.9315 5.6736,17.9875 5.6406,18.0585 C5.6076,18.1305 5.5776,18.2145 5.5496,18.3115 C5.5216,18.4075 5.4906,18.5135 5.4566,18.6285 C5.4096,18.7815 5.3586,18.9135 5.3046,19.0255 C5.2506,19.1375 5.1876,19.2305 5.1156,19.3055 C5.0436,19.3805 4.9616,19.4355 4.8676,19.4715 C4.7746,19.5065 4.6656,19.5255 4.5406,19.5255 C4.3666,19.5255 4.2126,19.4925 4.0786,19.4265 C3.9446,19.3615 3.8326,19.2725 3.7406,19.1615 C3.6486,19.0485 3.5796,18.9185 3.5326,18.7705 C3.4856,18.6235 3.4626,18.4665 3.4626,18.3015 C3.4626,18.1835 3.4736,18.0685 3.4956,17.9565 C3.5166,17.8445 3.5446,17.7375 3.5796,17.6365 C3.6136,17.5355 3.6526,17.4395 3.6956,17.3495 C3.7396,17.2585 3.7826,17.1785 3.8266,17.1065 L4.4616,17.4375 Z" id="Fill-3714" fill="#6D6E6D"></path>
        <path d="M5.1199,16.7465 C4.9209,16.7465 4.7229,16.7105 4.5249,16.6395 C4.3269,16.5675 4.1499,16.4635 3.9949,16.3265 C3.8389,16.1895 3.7129,16.0225 3.6169,15.8245 C3.5199,15.6265 3.4719,15.4015 3.4719,15.1495 C3.4719,14.8545 3.5389,14.5975 3.6729,14.3795 C3.8059,14.1615 3.9809,13.9995 4.1959,13.8935 L4.6069,14.4815 C4.5199,14.5165 4.4469,14.5595 4.3899,14.6125 C4.3319,14.6655 4.2849,14.7235 4.2499,14.7855 C4.2139,14.8485 4.1889,14.9135 4.1749,14.9795 C4.1609,15.0465 4.1539,15.1095 4.1539,15.1685 C4.1539,15.3055 4.1829,15.4235 4.2429,15.5235 C4.3019,15.6225 4.3779,15.7055 4.4709,15.7705 C4.5639,15.8365 4.6699,15.8855 4.7889,15.9175 C4.9069,15.9505 5.0269,15.9675 5.1479,15.9675 C5.2789,15.9675 5.4049,15.9475 5.5259,15.9085 C5.6479,15.8695 5.7549,15.8155 5.8489,15.7455 C5.9419,15.6745 6.0159,15.5905 6.0699,15.4905 C6.1249,15.3915 6.1519,15.2805 6.1519,15.1595 C6.1519,15.0975 6.1439,15.0325 6.1259,14.9655 C6.1089,14.8985 6.0829,14.8335 6.0469,14.7715 C6.0109,14.7095 5.9649,14.6535 5.9069,14.6035 C5.8489,14.5545 5.7789,14.5135 5.6949,14.4815 L6.0629,13.8515 C6.1849,13.9015 6.2939,13.9745 6.3899,14.0685 C6.4869,14.1635 6.5679,14.2725 6.6329,14.3925 C6.6989,14.5145 6.7479,14.6435 6.7819,14.7785 C6.8169,14.9135 6.8339,15.0475 6.8339,15.1785 C6.8339,15.4085 6.7849,15.6195 6.6869,15.8105 C6.5889,16.0025 6.4589,16.1665 6.2969,16.3055 C6.1349,16.4435 5.9509,16.5525 5.7459,16.6295 C5.5409,16.7075 5.3319,16.7465 5.1199,16.7465" id="Fill-3716" fill="#6D6E6D"></path>
        <path d="M6.8337,12.1054 C6.8337,12.3414 6.7857,12.5574 6.6887,12.7504 C6.5927,12.9424 6.4657,13.1084 6.3087,13.2474 C6.1517,13.3854 5.9717,13.4934 5.7687,13.5694 C5.5667,13.6464 5.3587,13.6834 5.1437,13.6834 C4.9257,13.6834 4.7157,13.6444 4.5127,13.5644 C4.3107,13.4844 4.1327,13.3744 3.9787,13.2334 C3.8247,13.0914 3.7017,12.9234 3.6097,12.7294 C3.5177,12.5344 3.4717,12.3224 3.4717,12.0914 C3.4717,11.8554 3.5197,11.6404 3.6167,11.4474 C3.7137,11.2544 3.8407,11.0884 3.9997,10.9494 C4.1587,10.8114 4.3387,10.7044 4.5407,10.6304 C4.7437,10.5554 4.9487,10.5184 5.1577,10.5184 C5.3757,10.5184 5.5857,10.5574 5.7877,10.6374 C5.9897,10.7164 6.1687,10.8264 6.3227,10.9664 C6.4767,11.1064 6.6007,11.2734 6.6937,11.4684 C6.7867,11.6634 6.8337,11.8754 6.8337,12.1054 M5.1527,12.9044 C5.2807,12.9044 5.4047,12.8864 5.5237,12.8504 C5.6437,12.8144 5.7507,12.7634 5.8437,12.6964 C5.9377,12.6294 6.0117,12.5454 6.0677,12.4444 C6.1237,12.3434 6.1517,12.2274 6.1517,12.0954 C6.1517,11.9614 6.1227,11.8454 6.0627,11.7454 C6.0037,11.6464 5.9277,11.5634 5.8327,11.4964 C5.7377,11.4294 5.6297,11.3794 5.5097,11.3464 C5.3907,11.3134 5.2677,11.2974 5.1437,11.2974 C5.0157,11.2974 4.8917,11.3154 4.7717,11.3514 C4.6527,11.3874 4.5467,11.4394 4.4547,11.5074 C4.3627,11.5764 4.2897,11.6604 4.2357,11.7594 C4.1807,11.8594 4.1537,11.9734 4.1537,12.1004 C4.1537,12.2344 4.1827,12.3514 4.2397,12.4514 C4.2977,12.5504 4.3727,12.6334 4.4667,12.7004 C4.5597,12.7684 4.6667,12.8184 4.7867,12.8524 C4.9057,12.8864 5.0287,12.9044 5.1527,12.9044" id="Fill-3718" fill="#6D6E6D"></path>
        <path d="M6.8058,10.0698 L3.4908,10.0698 L3.4908,8.5748 C3.4908,8.4198 3.5238,8.2758 3.5888,8.1438 C3.6538,8.0108 3.7398,7.8968 3.8458,7.7998 C3.9518,7.7038 4.0708,7.6288 4.2048,7.5738 C4.3388,7.5188 4.4738,7.4918 4.6108,7.4918 C4.7138,7.4918 4.8128,7.5048 4.9078,7.5298 C5.0028,7.5538 5.0918,7.5898 5.1768,7.6368 C5.2598,7.6838 5.3358,7.7408 5.4028,7.8078 C5.4698,7.8748 5.5268,7.9498 5.5728,8.0338 L6.8058,7.2728 L6.8058,8.1358 L5.7368,8.8038 L5.7368,9.3038 L6.8058,9.3038 L6.8058,10.0698 Z M5.0688,9.3038 L5.0688,8.6038 C5.0688,8.5128 5.0258,8.4358 4.9398,8.3698 C4.8548,8.3048 4.7448,8.2718 4.6108,8.2718 C4.4738,8.2718 4.3648,8.3098 4.2838,8.3838 C4.2028,8.4588 4.1628,8.5398 4.1628,8.6268 L4.1628,9.3038 L5.0688,9.3038 Z" id="Fill-3720" fill="#6D6E6D"></path>
        <polygon id="Fill-3723" fill="#6D6E6D" points="6.1333 4.5644 6.8053 4.5644 6.8053 6.8944 3.4903 6.8944 3.4903 4.6064 4.1633 4.6064 4.1633 6.1284 4.8073 6.1284 4.8073 4.8214 5.4283 4.8214 5.4283 6.1284 6.1333 6.1284"></polygon>
        <polygon id="Fill-3724" fill="#79BB43" points="9.9147 19.7992 23.8167 19.7992 23.8167 11.2562 9.9147 11.2562"></polygon>
        <path d="M21.1691,26.4497 C22.1311,26.4497 23.0331,26.7257 23.8161,27.2037 L23.8161,19.7997 L9.9151,19.7997 L9.9151,27.2037 C10.6981,26.7257 11.6001,26.4497 12.5621,26.4497 L21.1691,26.4497 Z" id="Fill-3725" fill="#F9C623"></path>
        <path d="M15.8216,17.5688 L15.8216,15.9938 L16.4106,15.9938 C17.5036,16.0008 17.8586,16.2918 17.8586,16.7528 C17.8586,17.3268 17.3916,17.5688 16.4856,17.5688 L15.8216,17.5688 Z M15.8216,15.2178 L15.8216,13.6738 L16.1766,13.6738 C17.1206,13.6738 17.5036,13.9238 17.5036,14.4248 C17.5036,14.8858 17.1396,15.2008 16.3736,15.2088 L15.8216,15.2178 Z M16.3266,12.8328 L14.6256,12.8328 L14.6256,18.4098 L16.5406,18.4098 C18.3446,18.4098 19.0836,17.7548 19.0836,16.7528 C19.0836,16.2028 18.7466,15.7668 18.0456,15.5168 C18.4476,15.2338 18.7276,14.8378 18.7276,14.3288 C18.7276,13.5038 18.0826,12.8328 16.3266,12.8328 L16.3266,12.8328 Z" id="Fill-3727" fill="#FFFFFE"></path>
        <path d="M17.085,20.3432 C15.338,20.3432 13.994,21.4032 13.994,23.0602 C13.994,24.7272 15.231,25.7942 17.104,25.7942 C18.311,25.7942 19.175,25.4102 19.714,24.6812 L18.772,24.1202 C18.389,24.6272 17.86,24.9112 17.154,24.9112 C15.957,24.9112 15.289,24.2362 15.289,23.0532 C15.289,21.9472 15.976,21.2252 17.036,21.2252 C17.732,21.2252 18.243,21.5102 18.488,21.9932 L19.685,21.6332 C19.293,20.8882 18.576,20.3432 17.085,20.3432" id="Fill-3729" fill="#FFFFFE"></path>
        <path d="M25.553,32.8965 L25.553,32.2905 C25.553,29.6265 23.59,27.4675 21.169,27.4675 L12.562,27.4675 C10.141,27.4675 8.178,29.6265 8.178,32.2905 L8.178,32.8965 C8.178,35.5595 10.141,37.7185 12.562,37.7185 L21.169,37.7185 C23.59,37.7185 25.553,35.5595 25.553,32.8965" id="Fill-3731" fill="#E7792B"></path>
        <path d="M16.6913,28.834 C19.4683,28.834 21.2053,30.461 21.2053,32.551 C21.2053,34.9 19.5763,36.269 16.8943,36.269 L14.0693,36.269 L14.0693,28.834 L16.6913,28.834 Z M16.1643,30.353 L16.1643,34.717 L16.8833,34.717 C18.4393,34.717 19.0383,33.888 19.0383,32.551 C19.0383,31.377 18.3673,30.353 16.6553,30.353 L16.1643,30.353 Z" id="Fill-3733" fill="#FFFFFE"></path>
    </g>
</svg>