<svg width="49" height="28" viewBox="0 0 49 28" fill="none" xmlns="http://www.w3.org/2000/svg">
<path fill-rule="evenodd" clip-rule="evenodd" d="M39.5592 19.5967V13.3767H43.5082V14.3147H40.7602V15.8917H42.7112V16.8287H40.7602V18.6597H43.5462V19.5967H39.5592Z" fill="white"/>
<path fill-rule="evenodd" clip-rule="evenodd" d="M5.3727 4.7129V6.6159H4.6037V3.2879H5.2037L6.7557 5.2429V3.2879H7.5237V6.6159H6.9057L5.3727 4.7129Z" fill="white"/>
<path fill-rule="evenodd" clip-rule="evenodd" d="M9.5865 5.95999C9.7175 5.95999 9.8285 5.93299 9.9195 5.87799C10.0095 5.82299 10.0835 5.75099 10.1395 5.65999C10.1955 5.56899 10.2355 5.46499 10.2595 5.34799C10.2825 5.23099 10.2945 5.11099 10.2945 4.98899V3.28799H11.0635V4.98899C11.0635 5.22099 11.0345 5.43699 10.9765 5.63599C10.9185 5.83599 10.8295 6.01099 10.7095 6.16099C10.5885 6.31199 10.4355 6.42899 10.2495 6.51499C10.0635 6.60099 9.8425 6.64399 9.5865 6.64399C9.3205 6.64399 9.0945 6.59899 8.9065 6.50799C8.7195 6.41799 8.5675 6.29599 8.4495 6.14499C8.3325 5.99399 8.2465 5.81799 8.1915 5.61799C8.1375 5.41799 8.1095 5.20899 8.1095 4.98899V3.28799H8.8785V4.98899C8.8785 5.11799 8.8915 5.23999 8.9165 5.35499C8.9415 5.47099 8.9815 5.57399 9.0385 5.66499C9.0945 5.75499 9.1675 5.82699 9.2555 5.87999C9.3455 5.93299 9.4555 5.95999 9.5865 5.95999" fill="white"/>
<path fill-rule="evenodd" clip-rule="evenodd" d="M14.1895 3.9629H13.1775V6.6159H12.4085V3.9629H11.3915V3.2879H14.1895V3.9629Z" fill="white"/>
<path fill-rule="evenodd" clip-rule="evenodd" d="M14.5692 6.61621V3.28821H16.0692C16.2252 3.28821 16.3702 3.32121 16.5032 3.38621C16.6352 3.45221 16.7502 3.53821 16.8472 3.64421C16.9442 3.75021 17.0202 3.87021 17.0742 4.00521C17.1292 4.13921 17.1562 4.27521 17.1562 4.41221C17.1562 4.51621 17.1442 4.61521 17.1192 4.71021C17.0942 4.80621 17.0582 4.89521 17.0112 4.98021C16.9642 5.06421 16.9072 5.14021 16.8402 5.20721C16.7732 5.27521 16.6972 5.33221 16.6132 5.37821L17.3772 6.61621H16.5102L15.8392 5.54221H15.3382V6.61621H14.5692ZM15.3382 4.87221H16.0412C16.1312 4.87221 16.2102 4.82921 16.2752 4.74321C16.3412 4.65721 16.3742 4.54721 16.3742 4.41221C16.3742 4.27521 16.3362 4.16621 16.2612 4.08521C16.1862 4.00321 16.1052 3.96321 16.0172 3.96321H15.3382V4.87221Z" fill="white"/>
<path fill-rule="evenodd" clip-rule="evenodd" d="M17.7564 6.61639H18.5254V3.28839H17.7564V6.61639Z" fill="white"/>
<path fill-rule="evenodd" clip-rule="evenodd" d="M19.0964 5.6644H20.5404V4.9894H19.0964V5.6644Z" fill="white"/>
<path fill-rule="evenodd" clip-rule="evenodd" d="M23.1094 4.26321C23.0964 4.25021 23.0624 4.22721 23.0064 4.19321C22.9504 4.15821 22.8794 4.12221 22.7954 4.08521C22.7114 4.04721 22.6184 4.01421 22.5184 3.98721C22.4184 3.95821 22.3184 3.94421 22.2184 3.94421C22.0874 3.94421 21.9864 3.96821 21.9164 4.01421C21.8464 4.06121 21.8114 4.13021 21.8114 4.22121C21.8114 4.27721 21.8264 4.32421 21.8574 4.36121C21.8894 4.39921 21.9334 4.43221 21.9914 4.46221C22.0494 4.49221 22.1214 4.51921 22.2074 4.54421C22.2934 4.56921 22.3924 4.59721 22.5044 4.62821C22.6644 4.67221 22.8074 4.72021 22.9364 4.77121C23.0644 4.82321 23.1734 4.88721 23.2644 4.96421C23.3544 5.04021 23.4244 5.13321 23.4724 5.24221C23.5214 5.35221 23.5454 5.48321 23.5454 5.63621C23.5454 5.82421 23.5104 5.98221 23.4394 6.11221C23.3694 6.24221 23.2764 6.34621 23.1614 6.42621C23.0454 6.50621 22.9114 6.56321 22.7604 6.59921C22.6084 6.63621 22.4534 6.65321 22.2934 6.65321C22.1724 6.65321 22.0474 6.64421 21.9214 6.62521C21.7944 6.60721 21.6704 6.57921 21.5484 6.54321C21.4264 6.50721 21.3074 6.46521 21.1924 6.41421C21.0764 6.36421 20.9704 6.30621 20.8734 6.24121L21.2114 5.57121C21.2264 5.58621 21.2684 5.61621 21.3374 5.65921C21.4064 5.70321 21.4904 5.74721 21.5904 5.79121C21.6904 5.83521 21.8034 5.87321 21.9284 5.90821C22.0534 5.94321 22.1794 5.96021 22.3074 5.96021C22.5794 5.96021 22.7154 5.87721 22.7154 5.71121C22.7154 5.64921 22.6954 5.59721 22.6544 5.55621C22.6144 5.51621 22.5574 5.47921 22.4864 5.44721C22.4144 5.41421 22.3294 5.38321 22.2324 5.35521C22.1364 5.32721 22.0294 5.29621 21.9144 5.26121C21.7614 5.21421 21.6284 5.16321 21.5154 5.10921C21.4034 5.05521 21.3094 4.99121 21.2344 4.91921C21.1594 4.84721 21.1044 4.76421 21.0684 4.67021C21.0324 4.57621 21.0144 4.46821 21.0144 4.34321C21.0144 4.16721 21.0474 4.01321 21.1124 3.87821C21.1784 3.74421 21.2674 3.63121 21.3794 3.53821C21.4924 3.44621 21.6224 3.37721 21.7714 3.33021C21.9194 3.28321 22.0764 3.26021 22.2424 3.26021C22.3614 3.26021 22.4764 3.27121 22.5894 3.29221C22.7014 3.31421 22.8084 3.34321 22.9104 3.37721C23.0114 3.41121 23.1074 3.45121 23.1984 3.49421C23.2894 3.53821 23.3704 3.58121 23.4424 3.62521L23.1094 4.26321Z" fill="white"/>
<path fill-rule="evenodd" clip-rule="evenodd" d="M23.8031 4.92381C23.8031 4.72381 23.8391 4.52481 23.9111 4.32581C23.9831 4.12781 24.0871 3.94981 24.2251 3.79481C24.3621 3.63781 24.5301 3.51181 24.7291 3.41481C24.9271 3.31781 25.1531 3.26881 25.4061 3.26881C25.7031 3.26881 25.9611 3.33681 26.1791 3.47081C26.3981 3.60581 26.5611 3.77981 26.6671 3.99581L26.0761 4.40781C26.0421 4.32081 25.9981 4.24781 25.9451 4.19081C25.8921 4.13281 25.8341 4.08581 25.7721 4.04981C25.7091 4.01381 25.6441 3.98881 25.5771 3.97481C25.5101 3.96081 25.4471 3.95381 25.3871 3.95381C25.2501 3.95381 25.1311 3.98381 25.0311 4.04281C24.9311 4.10181 24.8481 4.17881 24.7831 4.27281C24.7171 4.36581 24.6681 4.47181 24.6351 4.59081C24.6021 4.70981 24.5861 4.82981 24.5861 4.95181C24.5861 5.08281 24.6051 5.20981 24.6441 5.33181C24.6831 5.45381 24.7381 5.56181 24.8081 5.65481C24.8791 5.74881 24.9641 5.82281 25.0641 5.87781C25.1641 5.93281 25.2751 5.95981 25.3971 5.95981C25.4591 5.95981 25.5241 5.95081 25.5911 5.93381C25.6581 5.91681 25.7231 5.89081 25.7861 5.85481C25.8481 5.81881 25.9041 5.77181 25.9551 5.71381C26.0041 5.65581 26.0451 5.58481 26.0761 5.50081L26.7091 5.87081C26.6591 5.99281 26.5871 6.10181 26.4911 6.19881C26.3961 6.29581 26.2871 6.37681 26.1651 6.44281C26.0441 6.50781 25.9151 6.55781 25.7791 6.59181C25.6431 6.62681 25.5091 6.64381 25.3781 6.64381C25.1471 6.64381 24.9351 6.59481 24.7431 6.49681C24.5511 6.39781 24.3851 6.26781 24.2461 6.10481C24.1071 5.94281 23.9981 5.75781 23.9201 5.55181C23.8421 5.34581 23.8031 5.13681 23.8031 4.92381" fill="white"/>
<path fill-rule="evenodd" clip-rule="evenodd" d="M28.4624 6.64401C28.2254 6.64401 28.0094 6.59601 27.8154 6.49801C27.6214 6.40201 27.4554 6.27401 27.3164 6.11701C27.1774 5.95901 27.0694 5.77801 26.9934 5.57501C26.9164 5.37301 26.8784 5.16301 26.8784 4.94701C26.8784 4.72801 26.9184 4.51801 26.9974 4.31401C27.0774 4.11101 27.1884 3.93301 27.3304 3.77801C27.4724 3.62301 27.6414 3.49901 27.8364 3.40801C28.0314 3.31501 28.2454 3.26901 28.4764 3.26901C28.7144 3.26901 28.9294 3.31801 29.1234 3.41501C29.3174 3.51201 29.4834 3.64001 29.6224 3.79901C29.7614 3.95801 29.8684 4.14001 29.9434 4.34301C30.0184 4.54601 30.0564 4.75201 30.0564 4.96101C30.0564 5.18001 30.0164 5.39101 29.9364 5.59401C29.8564 5.79701 29.7464 5.97601 29.6064 6.13101C29.4654 6.28601 29.2974 6.41001 29.1024 6.50401C28.9064 6.59701 28.6934 6.64401 28.4624 6.64401M27.6604 4.95701C27.6604 5.08501 27.6784 5.20901 27.7144 5.32901C27.7504 5.45001 27.8024 5.55701 27.8694 5.65001C27.9364 5.74401 28.0214 5.81901 28.1224 5.87501C28.2244 5.93201 28.3404 5.96001 28.4714 5.96001C28.6064 5.96001 28.7234 5.93001 28.8234 5.87101C28.9234 5.81101 29.0064 5.73401 29.0744 5.63901C29.1414 5.54301 29.1914 5.43601 29.2244 5.31501C29.2564 5.19501 29.2734 5.07201 29.2734 4.94701C29.2734 4.81901 29.2554 4.69501 29.2194 4.57501C29.1834 4.45401 29.1314 4.34801 29.0624 4.25601C28.9934 4.16401 28.9094 4.09001 28.8094 4.03601C28.7094 3.98101 28.5954 3.95401 28.4674 3.95401C28.3324 3.95401 28.2154 3.98201 28.1154 4.04001C28.0154 4.09801 27.9324 4.17401 27.8644 4.26801C27.7974 4.36101 27.7464 4.46901 27.7124 4.58901C27.6784 4.70901 27.6604 4.83201 27.6604 4.95701" fill="white"/>
<path fill-rule="evenodd" clip-rule="evenodd" d="M30.506 6.61621V3.28821H32.006C32.162 3.28821 32.307 3.32121 32.44 3.38621C32.572 3.45221 32.687 3.53821 32.784 3.64421C32.881 3.75021 32.957 3.87021 33.011 4.00521C33.066 4.13921 33.093 4.27521 33.093 4.41221C33.093 4.51621 33.081 4.61521 33.056 4.71021C33.031 4.80621 32.995 4.89521 32.948 4.98021C32.901 5.06421 32.844 5.14021 32.777 5.20721C32.71 5.27521 32.634 5.33221 32.55 5.37821L33.314 6.61621H32.447L31.776 5.54221H31.275V6.61621H30.506ZM31.275 4.87221H31.978C32.068 4.87221 32.147 4.82921 32.212 4.74321C32.278 4.65721 32.311 4.54721 32.311 4.41221C32.311 4.27521 32.273 4.16621 32.198 4.08521C32.123 4.00321 32.042 3.96321 31.954 3.96321H31.275V4.87221Z" fill="white"/>
<path fill-rule="evenodd" clip-rule="evenodd" d="M36.0323 5.9409V6.6159H33.6933V3.2879H35.9903V3.9629H34.4623V4.6099H35.7743V5.2329H34.4623V5.9409H36.0323Z" fill="white"/>
<path fill-rule="evenodd" clip-rule="evenodd" d="M4.20349 19.5967L6.78349 13.3767H7.61749L10.1885 19.5967H8.86549L8.42449 18.4067H5.86349L5.41349 19.5967H4.20349ZM6.22049 17.4697H8.07749L7.16749 14.9907L6.22049 17.4697Z" fill="white"/>
<path fill-rule="evenodd" clip-rule="evenodd" d="M13.4278 19.5967V13.3767H15.1348C16.8988 13.3767 17.5458 14.1247 17.5458 15.0437C17.5458 15.6127 17.2648 16.0537 16.8608 16.3697C17.5648 16.6487 17.9028 17.1357 17.9028 17.7487C17.9028 18.8667 17.1608 19.5967 15.3508 19.5967H13.4278ZM14.6288 16.0357L15.1818 16.0267C15.9508 16.0177 16.3168 15.6657 16.3168 15.1527C16.3168 14.5937 15.9328 14.3147 14.9848 14.3147H14.6288V16.0357ZM15.2198 16.9017H14.6288V18.6597H15.2948C16.2048 18.6597 16.6738 18.3887 16.6738 17.7487C16.6738 17.2347 16.3168 16.9097 15.2198 16.9017V16.9017Z" fill="white"/>
<path fill-rule="evenodd" clip-rule="evenodd" d="M21.2101 16.4775C21.2101 14.5305 22.4951 13.2865 24.1651 13.2865C25.5911 13.2865 26.2761 13.9265 26.6511 14.8005L25.5061 15.2245C25.2721 14.6565 24.7841 14.3225 24.1181 14.3225C23.1051 14.3225 22.4481 15.1705 22.4481 16.4685C22.4481 17.8565 23.0861 18.6495 24.2311 18.6495C24.9061 18.6495 25.4121 18.3165 25.7781 17.7215L26.6791 18.3795C26.1631 19.2355 25.3381 19.6865 24.1841 19.6865C22.3921 19.6865 21.2101 18.4335 21.2101 16.4775" fill="white"/>
<path fill-rule="evenodd" clip-rule="evenodd" d="M32.3 13.9673H31.579V18.8353H32.072C33.79 18.8353 34.463 17.6933 34.463 16.3833C34.463 14.8923 33.862 13.9673 32.3 13.9673" fill="white"/>
<path fill-rule="evenodd" clip-rule="evenodd" d="M33.0449 7.75439H32.4359C29.7629 7.75439 27.5959 9.72539 27.5959 12.1554V20.7954C27.5959 23.2254 29.7629 25.1964 32.4359 25.1964H33.0449C35.7189 25.1964 37.8859 23.2254 37.8859 20.7954V12.1554C37.8859 9.72539 35.7189 7.75439 33.0449 7.75439M32.1079 20.5294H29.4759V12.2364H32.3119C35.0039 12.2364 36.6389 13.7634 36.6389 16.3834C36.6389 18.7144 34.8959 20.5294 32.1079 20.5294" fill="white"/>
<path fill-rule="evenodd" clip-rule="evenodd" d="M42.175 0H6.198C2.78 0 0 2.78 0 6.198V20.009C0 23.427 2.78 26.207 6.198 26.207H29.054C30.083 26.771 31.247 27.068 32.436 27.068H33.045C34.234 27.068 35.398 26.771 36.427 26.207H42.175C45.593 26.207 48.373 23.427 48.373 20.009V6.198C48.373 2.78 45.593 0 42.175 0V0ZM47.524 20.009C47.524 22.958 45.124 25.358 42.175 25.358H36.202C35.289 25.9 34.207 26.218 33.045 26.218H32.436C31.274 26.218 30.192 25.9 29.28 25.358H6.198C3.249 25.358 0.849 22.958 0.849 20.009V6.198C0.849 3.249 3.249 0.849 6.198 0.849H42.175C45.124 0.849 47.524 3.249 47.524 6.198V20.009Z" fill="white"/>
<path fill-rule="evenodd" clip-rule="evenodd" d="M42.1749 9.0986H37.4379L37.8089 9.7056C37.8469 9.7676 37.8739 9.8336 37.9089 9.8976H42.1749C43.8539 9.8976 45.2199 11.2626 45.2199 12.9416V20.0086C45.2199 21.6876 43.8539 23.0536 42.1749 23.0536H37.9089C37.8739 23.1166 37.8469 23.1826 37.8089 23.2446L37.4379 23.8516H42.1749C44.2939 23.8516 46.0189 22.1276 46.0189 20.0086V12.9416C46.0189 10.8226 44.2939 9.0986 42.1749 9.0986" fill="white"/>
<path fill-rule="evenodd" clip-rule="evenodd" d="M20.2976 9.89751H27.5726C27.6066 9.83451 27.6346 9.76851 27.6716 9.70651L28.0436 9.09851H20.2976H19.4986H11.7206H10.9216H6.19858C4.07858 9.09851 2.35458 10.8225 2.35458 12.9415V20.0085C2.35458 22.1275 4.07858 23.8525 6.19858 23.8525H10.9216H11.7206H19.4986H20.2976H28.0436L27.6716 23.2445C27.6346 23.1825 27.6066 23.1165 27.5726 23.0535H20.2976V9.89751ZM10.9216 23.0535H6.19858C4.51958 23.0535 3.15358 21.6875 3.15358 20.0085V12.9415C3.15358 11.2625 4.51958 9.89751 6.19858 9.89751H10.9216V23.0535ZM11.7206 23.0535H19.4986V9.89751H11.7206V23.0535Z" fill="white"/>
</svg>
