<?xml version="1.0" encoding="UTF-8"?>
<svg width="26px" height="48px" viewBox="0 0 26 48" version="1.1" xmlns="http://www.w3.org/2000/svg" xmlns:xlink="http://www.w3.org/1999/xlink">
    <title>nutriscore-vertical-no-border-d</title>
    <g id="nutriscore-vertical-no-border-d" stroke="none" stroke-width="1" fill="none" fill-rule="evenodd">
        <path d="M-0.0033,41.9301 L-0.0033,6.0911 C-0.0033,3.1531 2.3867,0.7631 5.3257,0.7631 L19.0827,0.7631 C22.0207,0.7631 24.4107,3.1531 24.4107,6.0911 L24.4107,29.0831 C24.9507,29.9921 25.2687,31.0711 25.2687,32.2291 L25.2687,32.8351 C25.2687,33.9931 24.9507,35.0711 24.4107,35.9791 L24.4107,41.9301 C24.4107,44.8681 22.0207,47.2591 19.0827,47.2591 L5.3257,47.2591 C2.3867,47.2591 -0.0033,44.8681 -0.0033,41.9301" id="Fill-3772" fill="#FFFFFE"></path>
        <path d="M22.5128,6.0908 L22.5128,11.1948 L8.6128,11.1948 L8.6128,6.0908 C8.6128,4.1958 10.1488,2.6598 12.0428,2.6598 L19.0818,2.6598 C20.9768,2.6598 22.5128,4.1958 22.5128,6.0908" id="Fill-3774" fill="#007F46"></path>
        <path d="M14.6021,7.8769 L15.5461,5.6539 L16.4521,7.8769 L14.6021,7.8769 Z M15.9941,4.2069 L15.1631,4.2069 L12.5931,9.7839 L13.7981,9.7839 L14.2471,8.7169 L16.7981,8.7169 L17.2371,9.7839 L18.5551,9.7839 L15.9941,4.2069 Z" id="Fill-3871" fill="#FFFFFE"></path>
        <path d="M11.2592,38.6748 C10.2972,38.6748 9.3952,38.3988 8.6122,37.9208 L8.6122,41.9288 C8.6122,43.8238 10.1482,45.3608 12.0422,45.3608 L19.0822,45.3608 C20.9772,45.3608 22.5132,43.8238 22.5132,41.9288 L22.5132,37.9208 C21.7302,38.3988 20.8282,38.6748 19.8662,38.6748 L11.2592,38.6748 Z" id="Fill-3900" fill="#DC3E2A"></path>
        <polygon id="Fill-3902" fill="#FFFFFE" points="17.5969 39.3735 13.4659 39.3735 13.4659 44.6705 17.6369 44.6705 17.6369 43.8735 14.7219 43.8735 14.7219 42.3135 16.7629 42.3135 16.7629 41.5165 14.7219 41.5165 14.7219 40.1725 17.5969 40.1725"></polygon>
        <polygon id="Fill-3905" fill="#6D6E6D" points="3.6071 35.0449 5.5031 35.0449 5.5031 35.8109 2.1881 35.8109 2.1881 35.2129 4.1351 33.6679 2.1881 33.6679 2.1881 32.9019 5.5031 32.9019 5.5031 33.5179"></polygon>
        <path d="M4.8493,30.8471 C4.8493,30.7161 4.8223,30.6061 4.7673,30.5151 C4.7133,30.4251 4.6403,30.3521 4.5503,30.2961 C4.4603,30.2401 4.3563,30.2011 4.2403,30.1771 C4.1233,30.1541 4.0043,30.1421 3.8823,30.1421 L2.1883,30.1421 L2.1883,29.3761 L3.8823,29.3761 C4.1133,29.3761 4.3283,29.4051 4.5273,29.4621 C4.7263,29.5201 4.9003,29.6091 5.0503,29.7291 C5.1993,29.8491 5.3173,30.0011 5.4023,30.1861 C5.4883,30.3721 5.5313,30.5921 5.5313,30.8471 C5.5313,31.1121 5.4853,31.3371 5.3953,31.5241 C5.3053,31.7111 5.1843,31.8631 5.0333,31.9791 C4.8823,32.0961 4.7073,32.1821 4.5083,32.2361 C4.3093,32.2901 4.1003,32.3181 3.8823,32.3181 L2.1883,32.3181 L2.1883,31.5531 L3.8823,31.5531 C4.0103,31.5531 4.1313,31.5391 4.2463,31.5151 C4.3623,31.4901 4.4643,31.4501 4.5553,31.3931 C4.6453,31.3371 4.7173,31.2651 4.7703,31.1761 C4.8223,31.0881 4.8493,30.9781 4.8493,30.8471" id="Fill-3906" fill="#6D6E6D"></path>
        <polygon id="Fill-3908" fill="#6D6E6D" points="2.8602 26.2617 2.8602 27.2707 5.5032 27.2707 5.5032 28.0367 2.8602 28.0367 2.8602 29.0497 2.1882 29.0497 2.1882 26.2617"></polygon>
        <path d="M5.503,25.8838 L2.188,25.8838 L2.188,24.3898 C2.188,24.2338 2.221,24.0898 2.286,23.9578 C2.351,23.8248 2.437,23.7108 2.543,23.6138 C2.648,23.5178 2.768,23.4428 2.902,23.3878 C3.036,23.3338 3.171,23.3058 3.308,23.3058 C3.411,23.3058 3.51,23.3188 3.605,23.3438 C3.7,23.3688 3.789,23.4048 3.873,23.4508 C3.957,23.4978 4.033,23.5548 4.1,23.6208 C4.167,23.6888 4.223,23.7638 4.27,23.8478 L5.503,23.0868 L5.503,23.9508 L4.434,24.6178 L4.434,25.1178 L5.503,25.1178 L5.503,25.8838 Z" id="Path" fill="#6D6E6D"></path>
        <path d="M3.766,25.1178 L3.766,24.4178 C3.766,24.3268 3.723,24.2498 3.637,24.1838 C3.552,24.1188 3.442,24.0858 3.308,24.0858 C3.171,24.0858 3.062,24.1228 2.981,24.1978 C2.901,24.2728 2.86,24.3538 2.86,24.4418 L2.86,25.1178 L3.766,25.1178 Z" id="Path" fill="#FFFFFF"></path>
        <polygon id="Fill-3911" fill="#6D6E6D" points="2.1877 22.7092 5.5027 22.7092 5.5027 21.9432 2.1877 21.9432"></polygon>
        <polygon id="Fill-3912" fill="#6D6E6D" points="3.8827 21.3732 4.5547 21.3732 4.5547 19.9352 3.8827 19.9352"></polygon>
        <path d="M3.1589,17.3759 C3.1469,17.3889 3.1229,17.4229 3.0889,17.4789 C3.0549,17.5349 3.0189,17.6049 2.9819,17.6889 C2.9439,17.7729 2.9119,17.8649 2.8829,17.9639 C2.8559,18.0639 2.8419,18.1639 2.8419,18.2629 C2.8419,18.3939 2.8649,18.4949 2.9119,18.5649 C2.9579,18.6349 3.0269,18.6699 3.1169,18.6699 C3.1729,18.6699 3.2199,18.6539 3.2569,18.6229 C3.2949,18.5919 3.3279,18.5479 3.3569,18.4899 C3.3869,18.4319 3.4139,18.3609 3.4389,18.2749 C3.4639,18.1889 3.4919,18.0909 3.5229,17.9789 C3.5669,17.8199 3.6139,17.6759 3.6659,17.5489 C3.7169,17.4209 3.7809,17.3129 3.8569,17.2219 C3.9329,17.1319 4.0259,17.0629 4.1349,17.0139 C4.2439,16.9659 4.3749,16.9419 4.5269,16.9419 C4.7139,16.9419 4.8719,16.9769 5.0009,17.0469 C5.1299,17.1169 5.2349,17.2099 5.3139,17.3249 C5.3929,17.4399 5.4509,17.5729 5.4869,17.7239 C5.5219,17.8749 5.5409,18.0299 5.5409,18.1889 C5.5409,18.3099 5.5309,18.4339 5.5119,18.5599 C5.4939,18.6859 5.4669,18.8099 5.4309,18.9309 C5.3949,19.0529 5.3519,19.1709 5.3019,19.2859 C5.2519,19.4009 5.1949,19.5069 5.1289,19.6039 L4.4619,19.2669 C4.4769,19.2519 4.5069,19.2099 4.5509,19.1409 C4.5939,19.0729 4.6379,18.9889 4.6809,18.8889 C4.7249,18.7899 4.7639,18.6779 4.7979,18.5529 C4.8319,18.4289 4.8489,18.3019 4.8489,18.1749 C4.8489,17.9039 4.7669,17.7689 4.6019,17.7689 C4.5399,17.7689 4.4879,17.7889 4.4479,17.8289 C4.4069,17.8699 4.3709,17.9259 4.3379,17.9969 C4.3049,18.0689 4.2749,18.1529 4.2469,18.2499 C4.2189,18.3459 4.1879,18.4519 4.1539,18.5669 C4.1069,18.7199 4.0559,18.8519 4.0019,18.9639 C3.9469,19.0759 3.8839,19.1689 3.8129,19.2439 C3.7409,19.3189 3.6589,19.3739 3.5649,19.4099 C3.4719,19.4449 3.3629,19.4629 3.2379,19.4629 C3.0639,19.4629 2.9099,19.4309 2.7759,19.3649 C2.6419,19.2999 2.5299,19.2109 2.4379,19.0999 C2.3459,18.9869 2.2769,18.8569 2.2299,18.7089 C2.1829,18.5619 2.1599,18.4049 2.1599,18.2399 C2.1599,18.1219 2.1709,18.0069 2.1919,17.8949 C2.2139,17.7829 2.2419,17.6759 2.2769,17.5749 C2.3109,17.4739 2.3499,17.3779 2.3929,17.2879 C2.4369,17.1969 2.4799,17.1169 2.5239,17.0439 L3.1589,17.3759 Z" id="Fill-3913" fill="#6D6E6D"></path>
        <path d="M3.8172,16.685 C3.6182,16.685 3.4202,16.649 3.2222,16.578 C3.0242,16.506 2.8472,16.402 2.6922,16.265 C2.5362,16.128 2.4102,15.96 2.3142,15.763 C2.2172,15.565 2.1692,15.34 2.1692,15.088 C2.1692,14.793 2.2362,14.536 2.3702,14.318 C2.5032,14.1 2.6782,13.938 2.8922,13.832 L3.3042,14.42 C3.2172,14.455 3.1442,14.498 3.0862,14.551 C3.0292,14.604 2.9822,14.662 2.9462,14.724 C2.9112,14.787 2.8862,14.851 2.8722,14.918 C2.8582,14.985 2.8512,15.048 2.8512,15.107 C2.8512,15.244 2.8802,15.362 2.9392,15.462 C2.9992,15.561 3.0752,15.643 3.1682,15.709 C3.2622,15.775 3.3672,15.824 3.4862,15.856 C3.6042,15.889 3.7242,15.906 3.8452,15.906 C3.9762,15.906 4.1022,15.886 4.2232,15.847 C4.3452,15.808 4.4522,15.754 4.5452,15.684 C4.6392,15.613 4.7132,15.529 4.7672,15.429 C4.8222,15.33 4.8492,15.219 4.8492,15.098 C4.8492,15.036 4.8412,14.971 4.8232,14.904 C4.8062,14.837 4.7802,14.772 4.7442,14.71 C4.7082,14.648 4.6622,14.592 4.6042,14.542 C4.5462,14.493 4.4752,14.452 4.3912,14.42 L4.7602,13.79 C4.8822,13.84 4.9912,13.913 5.0872,14.007 C5.1842,14.102 5.2652,14.211 5.3302,14.331 C5.3952,14.453 5.4452,14.582 5.4792,14.717 C5.5142,14.852 5.5312,14.986 5.5312,15.117 C5.5312,15.347 5.4822,15.558 5.3842,15.749 C5.2862,15.941 5.1562,16.105 4.9942,16.244 C4.8322,16.382 4.6482,16.491 4.4432,16.568 C4.2382,16.646 4.0292,16.685 3.8172,16.685" id="Fill-3915" fill="#6D6E6D"></path>
        <path d="M5.531,12.0439 C5.531,12.2799 5.483,12.4959 5.386,12.6889 C5.29,12.8809 5.163,13.0469 5.006,13.1859 C4.848,13.3239 4.669,13.4319 4.466,13.5079 C4.264,13.5849 4.055,13.6219 3.841,13.6219 C3.623,13.6219 3.413,13.5829 3.21,13.5029 C3.008,13.4229 2.83,13.3129 2.676,13.1719 C2.521,13.0299 2.398,12.8619 2.307,12.6679 C2.215,12.4729 2.169,12.2609 2.169,12.0299 C2.169,11.7939 2.217,11.5789 2.314,11.3859 C2.41,11.1929 2.538,11.0269 2.697,10.8879 C2.855,10.7499 3.036,10.6429 3.238,10.5689 C3.441,10.4939 3.646,10.4569 3.855,10.4569 C4.073,10.4569 4.283,10.4959 4.485,10.5759 C4.687,10.6539 4.866,10.7649 5.02,10.9049 C5.174,11.0439 5.298,11.2119 5.391,11.4069 C5.484,11.6009 5.531,11.8139 5.531,12.0439 M3.85,12.8429 C3.978,12.8429 4.101,12.8249 4.221,12.7889 C4.341,12.7519 4.448,12.7019 4.541,12.6349 C4.634,12.5669 4.709,12.4839 4.765,12.3829 C4.821,12.2819 4.849,12.1659 4.849,12.0339 C4.849,11.8999 4.82,11.7839 4.76,11.6839 C4.701,11.5849 4.624,11.5019 4.529,11.4349 C4.434,11.3679 4.327,11.3179 4.207,11.2849 C4.087,11.2519 3.965,11.2359 3.841,11.2359 C3.713,11.2359 3.589,11.2539 3.469,11.2899 C3.35,11.3259 3.244,11.3769 3.152,11.4459 C3.06,11.5149 2.987,11.5989 2.932,11.6979 C2.878,11.7979 2.851,11.9119 2.851,12.0389 C2.851,12.1729 2.879,12.2899 2.937,12.3899 C2.995,12.4889 3.07,12.5719 3.163,12.6389 C3.257,12.7069 3.364,12.7569 3.483,12.7909 C3.603,12.8249 3.725,12.8429 3.85,12.8429" id="Fill-3917" fill="#6D6E6D"></path>
        <path d="M5.503,10.0083 L2.188,10.0083 L2.188,8.5133 C2.188,8.3583 2.221,8.2143 2.286,8.0823 C2.351,7.9493 2.437,7.8353 2.543,7.7383 C2.648,7.6423 2.768,7.5673 2.902,7.5123 C3.036,7.4573 3.171,7.4303 3.308,7.4303 C3.411,7.4303 3.51,7.4433 3.605,7.4683 C3.7,7.4923 3.789,7.5283 3.873,7.5753 C3.957,7.6223 4.033,7.6793 4.1,7.7453 C4.167,7.8133 4.223,7.8883 4.27,7.9723 L5.503,7.2113 L5.503,8.0743 L4.434,8.7423 L4.434,9.2423 L5.503,9.2423 L5.503,10.0083 Z M3.766,9.2423 L3.766,8.5423 C3.766,8.4513 3.723,8.3743 3.637,8.3083 C3.552,8.2433 3.442,8.2103 3.308,8.2103 C3.171,8.2103 3.062,8.2483 2.981,8.3223 C2.901,8.3973 2.86,8.4783 2.86,8.5653 L2.86,9.2423 L3.766,9.2423 Z" id="Fill-3919" fill="#6D6E6D"></path>
        <polygon id="Fill-3922" fill="#6D6E6D" points="4.8306 4.5029 5.5026 4.5029 5.5026 6.8329 2.1876 6.8329 2.1876 4.5449 2.8606 4.5449 2.8606 6.0669 3.5046 6.0669 3.5046 4.7599 4.1256 4.7599 4.1256 6.0669 4.8306 6.0669"></polygon>
        <polygon id="Fill-3923" fill="#79BB43" points="8.6127 19.7382 22.5137 19.7382 22.5137 11.1952 8.6127 11.1952"></polygon>
        <path d="M19.8661,26.3877 C20.8281,26.3877 21.7301,26.6637 22.5131,27.1417 L22.5131,19.7387 L8.6121,19.7387 L8.6121,27.1417 C9.3951,26.6637 10.2971,26.3877 11.2591,26.3877 L19.8661,26.3877 Z" id="Fill-3924" fill="#F9C623"></path>
        <path d="M14.519,17.5073 L14.519,15.9313 L15.108,15.9313 C16.201,15.9403 16.556,16.2303 16.556,16.6913 C16.556,17.2653 16.089,17.5073 15.183,17.5073 L14.519,17.5073 Z M14.519,15.1553 L14.519,13.6123 L14.874,13.6123 C15.818,13.6123 16.201,13.8623 16.201,14.3633 C16.201,14.8243 15.837,15.1393 15.07,15.1473 L14.519,15.1553 Z M15.024,12.7713 L13.323,12.7713 L13.323,18.3473 L15.238,18.3473 C17.042,18.3473 17.78,17.6933 17.78,16.6913 C17.78,16.1423 17.444,15.7053 16.743,15.4553 C17.145,15.1723 17.425,14.7753 17.425,14.2673 C17.425,13.4423 16.78,12.7713 15.024,12.7713 L15.024,12.7713 Z" id="Fill-3926" fill="#FFFFFE"></path>
        <path d="M15.7822,20.2807 C14.0362,20.2807 12.6912,21.3407 12.6912,22.9997 C12.6912,24.6657 13.9272,25.7327 15.8012,25.7327 C17.0092,25.7327 17.8722,25.3487 18.4112,24.6197 L17.4692,24.0587 C17.0872,24.5657 16.5572,24.8497 15.8502,24.8497 C14.6542,24.8497 13.9862,24.1747 13.9862,22.9917 C13.9862,21.8857 14.6732,21.1637 15.7332,21.1637 C16.4292,21.1637 16.9402,21.4477 17.1852,21.9317 L18.3822,21.5717 C17.9902,20.8267 17.2732,20.2807 15.7822,20.2807" id="Fill-3928" fill="#FFFFFE"></path>
        <path d="M24.25,32.8349 L24.25,32.2289 C24.25,29.5649 22.287,27.4059 19.866,27.4059 L11.259,27.4059 C8.838,27.4059 6.875,29.5649 6.875,32.2289 L6.875,32.8349 C6.875,35.4979 8.838,37.6569 11.259,37.6569 L19.866,37.6569 C22.287,37.6569 24.25,35.4979 24.25,32.8349" id="Fill-3930" fill="#E7792B"></path>
        <path d="M15.3886,28.7724 C18.1656,28.7724 19.9026,30.3994 19.9026,32.4894 C19.9026,34.8384 18.2736,36.2074 15.5916,36.2074 L12.7666,36.2074 L12.7666,28.7724 L15.3886,28.7724 Z M14.8616,30.2914 L14.8616,34.6554 L15.5796,34.6554 C17.1366,34.6554 17.7346,33.8254 17.7346,32.4894 C17.7346,31.3154 17.0646,30.2914 15.3526,30.2914 L14.8616,30.2914 Z" id="Fill-3932" fill="#FFFFFE"></path>
    </g>
</svg>