<?xml version="1.0" encoding="UTF-8"?>
<svg width="26px" height="48px" viewBox="0 0 26 48" version="1.1" xmlns="http://www.w3.org/2000/svg" xmlns:xlink="http://www.w3.org/1999/xlink">
    <title>nutriscore-vertical-no-border-a</title>
    <g id="nutriscore-vertical-no-border-a" stroke="none" stroke-width="1" fill="none" fill-rule="evenodd">
        <path d="M0,41.9292 L0,6.0912 C0,3.1532 2.39,0.7622 5.329,0.7622 L19.086,0.7622 L19.087,0.7622 L19.87,0.7622 C22.848,0.7622 25.272,3.3822 25.272,6.6022 L25.272,7.2092 C25.272,8.3662 24.954,9.4442 24.414,10.3532 L24.414,41.9292 C24.414,44.8682 22.024,47.2592 19.086,47.2592 L5.329,47.2592 C2.39,47.2592 0,44.8682 0,41.9292" id="Fill-3792" fill="#FFFFFE"></path>
        <path d="M8.6159,41.9292 L8.6159,36.8262 L22.5169,36.8262 L22.5169,41.9292 C22.5169,43.8242 20.9809,45.3602 19.0859,45.3602 L12.0469,45.3602 C10.1519,45.3602 8.6159,43.8242 8.6159,41.9292" id="Fill-3794" fill="#DC3E2A"></path>
        <polygon id="Fill-3796" fill="#FFFFFE" points="17.5032 38.3227 13.5692 38.3227 13.5692 43.8997 17.5412 43.8997 17.5412 43.0597 14.7652 43.0597 14.7652 41.4187 16.7092 41.4187 16.7092 40.5787 14.7652 40.5787 14.7652 39.1637 17.5032 39.1637"></polygon>
        <polygon id="Fill-3799" fill="#6D6E6D" points="3.6106 35.0449 5.5066 35.0449 5.5066 35.8109 2.1916 35.8109 2.1916 35.2129 4.1386 33.6679 2.1916 33.6679 2.1916 32.9019 5.5066 32.9019 5.5066 33.5179"></polygon>
        <path d="M4.8528,30.8471 C4.8528,30.7161 4.8258,30.6061 4.7708,30.5151 C4.7168,30.4251 4.6438,30.3521 4.5538,30.2961 C4.4638,30.2401 4.3598,30.2011 4.2438,30.1771 C4.1268,30.1541 4.0078,30.1421 3.8858,30.1421 L2.1918,30.1421 L2.1918,29.3761 L3.8858,29.3761 C4.1168,29.3761 4.3318,29.4051 4.5308,29.4621 C4.7298,29.5201 4.9038,29.6091 5.0538,29.7291 C5.2028,29.8491 5.3208,30.0011 5.4058,30.1861 C5.4918,30.3721 5.5348,30.5921 5.5348,30.8471 C5.5348,31.1121 5.4888,31.3371 5.3988,31.5241 C5.3088,31.7111 5.1878,31.8631 5.0368,31.9791 C4.8858,32.0961 4.7108,32.1821 4.5118,32.2361 C4.3128,32.2901 4.1038,32.3181 3.8858,32.3181 L2.1918,32.3181 L2.1918,31.5531 L3.8858,31.5531 C4.0138,31.5531 4.1348,31.5391 4.2498,31.5151 C4.3658,31.4901 4.4678,31.4501 4.5588,31.3931 C4.6488,31.3371 4.7208,31.2651 4.7738,31.1761 C4.8258,31.0881 4.8528,30.9781 4.8528,30.8471" id="Fill-3800" fill="#6D6E6D"></path>
        <polygon id="Fill-3802" fill="#6D6E6D" points="2.8636 26.2617 2.8636 27.2707 5.5066 27.2707 5.5066 28.0367 2.8636 28.0367 2.8636 29.0497 2.1916 29.0497 2.1916 26.2617"></polygon>
        <path d="M5.5064,25.8838 L2.1914,25.8838 L2.1914,24.3898 C2.1914,24.2338 2.2244,24.0898 2.2894,23.9578 C2.3544,23.8248 2.4404,23.7108 2.5464,23.6138 C2.6514,23.5178 2.7714,23.4428 2.9054,23.3878 C3.0394,23.3338 3.1744,23.3058 3.3114,23.3058 C3.4144,23.3058 3.5134,23.3188 3.6084,23.3438 C3.7034,23.3688 3.7924,23.4048 3.8764,23.4508 C3.9604,23.4978 4.0364,23.5548 4.1034,23.6208 C4.1704,23.6888 4.2274,23.7638 4.2734,23.8478 L5.5064,23.0868 L5.5064,23.9508 L4.4374,24.6178 L4.4374,25.1178 L5.5064,25.1178 L5.5064,25.8838 Z" id="Path" fill="#6D6E6D"></path>
        <path d="M3.7694,25.1178 L3.7694,24.4178 C3.7694,24.3268 3.7264,24.2498 3.6414,24.1838 C3.5554,24.1188 3.4454,24.0858 3.3114,24.0858 C3.1744,24.0858 3.0654,24.1228 2.9844,24.1978 C2.9044,24.2728 2.8634,24.3538 2.8634,24.4418 L2.8634,25.1178 L3.7694,25.1178 Z" id="Path" fill="#FFFFFF"></path>
        <polygon id="Fill-3805" fill="#6D6E6D" points="2.1917 22.7092 5.5077 22.7092 5.5077 21.9432 2.1917 21.9432"></polygon>
        <polygon id="Fill-3806" fill="#6D6E6D" points="3.8857 21.3732 4.5577 21.3732 4.5577 19.9352 3.8857 19.9352"></polygon>
        <path d="M3.1623,17.3759 C3.1503,17.3889 3.1263,17.4229 3.0923,17.4789 C3.0583,17.5349 3.0223,17.6049 2.9853,17.6889 C2.9473,17.7729 2.9153,17.8649 2.8873,17.9639 C2.8593,18.0639 2.8453,18.1639 2.8453,18.2629 C2.8453,18.3939 2.8683,18.4949 2.9153,18.5649 C2.9613,18.6349 3.0303,18.6699 3.1203,18.6699 C3.1763,18.6699 3.2233,18.6539 3.2603,18.6229 C3.2983,18.5919 3.3313,18.5479 3.3613,18.4899 C3.3903,18.4319 3.4173,18.3609 3.4423,18.2749 C3.4673,18.1889 3.4953,18.0909 3.5263,17.9789 C3.5703,17.8199 3.6173,17.6759 3.6693,17.5489 C3.7203,17.4209 3.7843,17.3129 3.8603,17.2219 C3.9363,17.1319 4.0293,17.0629 4.1383,17.0139 C4.2473,16.9659 4.3783,16.9419 4.5303,16.9419 C4.7173,16.9419 4.8753,16.9769 5.0043,17.0469 C5.1333,17.1169 5.2383,17.2099 5.3173,17.3249 C5.3973,17.4399 5.4543,17.5729 5.4903,17.7239 C5.5253,17.8749 5.5443,18.0299 5.5443,18.1889 C5.5443,18.3099 5.5343,18.4339 5.5163,18.5599 C5.4973,18.6859 5.4703,18.8099 5.4343,18.9309 C5.3983,19.0529 5.3553,19.1709 5.3053,19.2859 C5.2563,19.4009 5.1983,19.5069 5.1333,19.6039 L4.4653,19.2669 C4.4803,19.2519 4.5103,19.2099 4.5543,19.1409 C4.5973,19.0729 4.6413,18.9889 4.6843,18.8889 C4.7283,18.7899 4.7673,18.6779 4.8013,18.5529 C4.8363,18.4289 4.8523,18.3019 4.8523,18.1749 C4.8523,17.9039 4.7703,17.7689 4.6053,17.7689 C4.5433,17.7689 4.4913,17.7889 4.4513,17.8289 C4.4103,17.8699 4.3743,17.9259 4.3413,17.9969 C4.3083,18.0689 4.2783,18.1529 4.2503,18.2499 C4.2223,18.3459 4.1913,18.4519 4.1573,18.5669 C4.1103,18.7199 4.0593,18.8519 4.0053,18.9639 C3.9503,19.0759 3.8883,19.1689 3.8163,19.2439 C3.7443,19.3189 3.6623,19.3739 3.5683,19.4099 C3.4753,19.4449 3.3663,19.4629 3.2423,19.4629 C3.0673,19.4629 2.9133,19.4309 2.7793,19.3649 C2.6453,19.2999 2.5333,19.2109 2.4413,19.0999 C2.3493,18.9869 2.2803,18.8569 2.2333,18.7089 C2.1863,18.5619 2.1633,18.4049 2.1633,18.2399 C2.1633,18.1219 2.1743,18.0069 2.1963,17.8949 C2.2173,17.7829 2.2453,17.6759 2.2803,17.5749 C2.3143,17.4739 2.3533,17.3779 2.3963,17.2879 C2.4403,17.1969 2.4843,17.1169 2.5273,17.0439 L3.1623,17.3759 Z" id="Fill-3807" fill="#6D6E6D"></path>
        <path d="M3.8207,16.685 C3.6217,16.685 3.4237,16.649 3.2257,16.578 C3.0277,16.506 2.8507,16.402 2.6957,16.265 C2.5397,16.128 2.4137,15.96 2.3177,15.763 C2.2207,15.565 2.1727,15.34 2.1727,15.088 C2.1727,14.793 2.2397,14.536 2.3737,14.318 C2.5077,14.1 2.6817,13.938 2.8957,13.832 L3.3077,14.42 C3.2197,14.455 3.1477,14.498 3.0897,14.551 C3.0327,14.604 2.9857,14.662 2.9497,14.724 C2.9147,14.787 2.8897,14.851 2.8757,14.918 C2.8617,14.985 2.8547,15.048 2.8547,15.107 C2.8547,15.244 2.8837,15.362 2.9427,15.462 C3.0027,15.561 3.0787,15.643 3.1717,15.709 C3.2657,15.775 3.3707,15.824 3.4897,15.856 C3.6077,15.889 3.7277,15.906 3.8487,15.906 C3.9797,15.906 4.1057,15.886 4.2267,15.847 C4.3487,15.808 4.4557,15.754 4.5487,15.684 C4.6427,15.613 4.7167,15.529 4.7707,15.429 C4.8257,15.33 4.8527,15.219 4.8527,15.098 C4.8527,15.036 4.8447,14.971 4.8267,14.904 C4.8097,14.837 4.7837,14.772 4.7477,14.71 C4.7117,14.648 4.6647,14.592 4.6077,14.542 C4.5497,14.493 4.4787,14.452 4.3947,14.42 L4.7637,13.79 C4.8857,13.84 4.9947,13.913 5.0907,14.007 C5.1877,14.102 5.2687,14.211 5.3337,14.331 C5.3987,14.453 5.4487,14.582 5.4827,14.717 C5.5177,14.852 5.5347,14.986 5.5347,15.117 C5.5347,15.347 5.4857,15.558 5.3877,15.749 C5.2897,15.941 5.1597,16.105 4.9977,16.244 C4.8357,16.382 4.6517,16.491 4.4467,16.568 C4.2407,16.646 4.0327,16.685 3.8207,16.685" id="Fill-3809" fill="#6D6E6D"></path>
        <path d="M5.5345,12.0439 C5.5345,12.2799 5.4865,12.4959 5.3895,12.6889 C5.2935,12.8809 5.1665,13.0469 5.0095,13.1859 C4.8515,13.3239 4.6725,13.4319 4.4695,13.5079 C4.2675,13.5849 4.0585,13.6219 3.8445,13.6219 C3.6265,13.6219 3.4165,13.5829 3.2135,13.5029 C3.0115,13.4229 2.8335,13.3129 2.6795,13.1719 C2.5255,13.0299 2.4015,12.8619 2.3105,12.6679 C2.2185,12.4729 2.1725,12.2609 2.1725,12.0299 C2.1725,11.7939 2.2205,11.5789 2.3175,11.3859 C2.4135,11.1929 2.5415,11.0269 2.7005,10.8879 C2.8595,10.7499 3.0395,10.6429 3.2415,10.5689 C3.4445,10.4939 3.6495,10.4569 3.8585,10.4569 C4.0765,10.4569 4.2865,10.4959 4.4885,10.5759 C4.6905,10.6539 4.8695,10.7649 5.0235,10.9049 C5.1775,11.0439 5.3015,11.2119 5.3945,11.4069 C5.4875,11.6009 5.5345,11.8139 5.5345,12.0439 M3.8535,12.8429 C3.9815,12.8429 4.1045,12.8249 4.2245,12.7889 C4.3445,12.7519 4.4515,12.7019 4.5445,12.6349 C4.6385,12.5669 4.7125,12.4839 4.7685,12.3829 C4.8245,12.2819 4.8525,12.1659 4.8525,12.0339 C4.8525,11.8999 4.8235,11.7839 4.7635,11.6839 C4.7045,11.5849 4.6275,11.5019 4.5325,11.4349 C4.4375,11.3679 4.3305,11.3179 4.2105,11.2849 C4.0905,11.2519 3.9685,11.2359 3.8445,11.2359 C3.7165,11.2359 3.5925,11.2539 3.4725,11.2899 C3.3535,11.3259 3.2475,11.3769 3.1555,11.4459 C3.0635,11.5149 2.9905,11.5989 2.9355,11.6979 C2.8815,11.7979 2.8545,11.9119 2.8545,12.0389 C2.8545,12.1729 2.8825,12.2899 2.9405,12.3899 C2.9985,12.4889 3.0735,12.5719 3.1675,12.6389 C3.2605,12.7069 3.3675,12.7569 3.4865,12.7909 C3.6065,12.8249 3.7285,12.8429 3.8535,12.8429" id="Fill-3811" fill="#6D6E6D"></path>
        <path d="M5.5064,10.0083 L2.1914,10.0083 L2.1914,8.5133 C2.1914,8.3583 2.2244,8.2143 2.2894,8.0823 C2.3544,7.9493 2.4404,7.8353 2.5464,7.7383 C2.6514,7.6423 2.7714,7.5673 2.9054,7.5123 C3.0394,7.4573 3.1744,7.4303 3.3114,7.4303 C3.4144,7.4303 3.5134,7.4433 3.6084,7.4683 C3.7034,7.4923 3.7924,7.5283 3.8764,7.5753 C3.9604,7.6223 4.0364,7.6793 4.1034,7.7453 C4.1704,7.8133 4.2274,7.8883 4.2734,7.9723 L5.5064,7.2113 L5.5064,8.0743 L4.4374,8.7423 L4.4374,9.2423 L5.5064,9.2423 L5.5064,10.0083 Z M3.7694,9.2423 L3.7694,8.5423 C3.7694,8.4513 3.7264,8.3743 3.6414,8.3083 C3.5554,8.2433 3.4454,8.2103 3.3114,8.2103 C3.1744,8.2103 3.0654,8.2483 2.9844,8.3223 C2.9044,8.3973 2.8634,8.4783 2.8634,8.5653 L2.8634,9.2423 L3.7694,9.2423 Z" id="Fill-3813" fill="#6D6E6D"></path>
        <polygon id="Fill-3816" fill="#6D6E6D" points="4.834 4.5029 5.506 4.5029 5.506 6.8329 2.191 6.8329 2.191 4.5449 2.864 4.5449 2.864 6.0669 3.508 6.0669 3.508 4.7599 4.129 4.7599 4.129 6.0669 4.834 6.0669"></polygon>
        <path d="M11.2626,13.0493 C10.3006,13.0493 9.3986,12.7733 8.6156,12.2953 L8.6156,19.7383 L22.5166,19.7383 L22.5166,12.2943 C21.7336,12.7733 20.8316,13.0493 19.8696,13.0493 L11.2626,13.0493 Z" id="Fill-3817" fill="#79BB43"></path>
        <polygon id="Fill-3819" fill="#F9C623" points="8.6157 28.2822 22.5167 28.2822 22.5167 19.7382 8.6157 19.7382"></polygon>
        <polygon id="Fill-3820" fill="#E7792B" points="8.6157 36.8252 22.5167 36.8252 22.5167 28.2822 8.6157 28.2822"></polygon>
        <path d="M14.4706,18.2309 L14.4706,16.7329 L15.0886,16.7329 C16.2366,16.7409 16.6096,17.0179 16.6096,17.4549 C16.6096,17.9999 16.1186,18.2309 15.1676,18.2309 L14.4706,18.2309 Z M14.4706,15.9959 L14.4706,14.5289 L14.8436,14.5289 C15.8346,14.5289 16.2366,14.7679 16.2366,15.2439 C16.2366,15.6809 15.8536,15.9809 15.0496,15.9879 L14.4706,15.9959 Z M15.0006,13.7309 L13.2146,13.7309 L13.2146,19.0279 L15.2266,19.0279 C17.1196,19.0279 17.8956,18.4069 17.8956,17.4549 C17.8956,16.9319 17.5416,16.5179 16.8056,16.2799 C17.2276,16.0109 17.5226,15.6349 17.5226,15.1509 C17.5226,14.3679 16.8456,13.7309 15.0006,13.7309 L15.0006,13.7309 Z" id="Fill-3821" fill="#FFFFFE"></path>
        <path d="M15.7747,21.0654 C14.1117,21.0654 12.8307,22.1814 12.8307,23.9264 C12.8307,25.6794 14.0087,26.8034 15.7937,26.8034 C16.9427,26.8034 17.7647,26.3994 18.2787,25.6314 L17.3817,25.0414 C17.0177,25.5754 16.5127,25.8744 15.8397,25.8744 C14.6997,25.8744 14.0637,25.1634 14.0637,23.9184 C14.0637,22.7544 14.7177,21.9944 15.7277,21.9944 C16.3907,21.9944 16.8777,22.2944 17.1107,22.8024 L18.2507,22.4234 C17.8767,21.6384 17.1947,21.0654 15.7747,21.0654" id="Fill-3823" fill="#FFFFFE"></path>
        <path d="M14.0968,34.6665 L14.0968,30.7875 L14.7698,30.7875 C16.2558,30.7875 16.9748,31.4975 16.9748,32.7185 C16.9748,33.8335 16.1998,34.6665 14.6198,34.6665 L14.0968,34.6665 Z M14.7788,29.9305 L12.9008,29.9305 L12.9008,35.5065 L14.6488,35.5065 C16.8628,35.5065 18.2088,34.3185 18.2088,32.7185 C18.2088,30.9725 16.9568,29.9305 14.7788,29.9305 L14.7788,29.9305 Z" id="Fill-3825" fill="#FFFFFE"></path>
        <path d="M6.8786,7.2094 L6.8786,6.6024 C6.8786,3.9394 8.8416,1.7804 11.2626,1.7804 L19.8696,1.7804 C22.2906,1.7804 24.2536,3.9394 24.2536,6.6024 L24.2536,7.2094 C24.2536,9.8724 22.2906,12.0314 19.8696,12.0314 L11.2626,12.0314 C8.8416,12.0314 6.8786,9.8724 6.8786,7.2094" id="Fill-3827" fill="#007F46"></path>
        <polygon id="Path" fill="#FFFFFE" points="12.0038 10.6816 15.0648 3.2456 16.7528 3.2456 19.7918 10.6816 17.6308 10.6816 17.2148 9.4846 14.4238 9.4846 13.9848 10.6816"></polygon>
        <polygon id="Path" fill="#007F46" points="14.9858 7.9666 16.6748 7.9666 15.8528 5.6166"></polygon>
    </g>
</svg>