<?xml version="1.0" encoding="UTF-8"?>
<svg width="28px" height="49px" viewBox="0 0 28 49" version="1.1" xmlns="http://www.w3.org/2000/svg" xmlns:xlink="http://www.w3.org/1999/xlink">
    <title>nutriscore-vertical-border-b</title>
    <g id="nutriscore-vertical-border-b" stroke="none" stroke-width="1" fill="none" fill-rule="evenodd">
        <path d="M20.0542,48.143 L6.2962,48.143 C2.9042,48.143 0.1442,45.383 0.1442,41.991 L0.1442,6.152 C0.1442,2.76 2.9042,0 6.2962,0 L20.0542,0 C23.4462,0 26.2062,2.76 26.2062,6.152 L26.2062,11.872 C26.7672,12.895 27.0642,14.053 27.0642,15.235 L27.0642,15.841 C27.0642,17.024 26.7672,18.182 26.2062,19.204 L26.2062,41.991 C26.2062,45.383 23.4462,48.143 20.0542,48.143" id="Fill-3572" fill="#6D6E6D"></path>
        <path d="M0.9682,41.9912 L0.9682,6.1522 C0.9682,3.2142 3.3592,0.8242 6.2962,0.8242 L20.0542,0.8242 C22.9922,0.8242 25.3822,3.2142 25.3822,6.1522 L25.3822,12.0902 C25.9222,12.9992 26.2402,14.0772 26.2402,15.2352 L26.2402,15.8422 C26.2402,16.9992 25.9222,18.0762 25.3822,18.9852 L25.3822,41.9912 C25.3822,44.9292 22.9922,47.3202 20.0542,47.3202 L6.2962,47.3202 C3.3592,47.3202 0.9682,44.9292 0.9682,41.9912" id="Fill-3574" fill="#FFFFFE"></path>
        <path d="M12.231,21.6821 C11.269,21.6821 10.367,21.4061 9.584,20.9271 L9.584,28.3441 L23.485,28.3441 L23.485,20.9271 C22.701,21.4061 21.8,21.6821 20.838,21.6821 L12.231,21.6821 Z" id="Fill-3576" fill="#F9C623"></path>
        <path d="M20.8382,9.3945 C21.8002,9.3945 22.7012,9.6705 23.4852,10.1495 L23.4852,6.1515 C23.4852,4.2575 21.9482,2.7215 20.0542,2.7215 L13.0142,2.7215 C11.1202,2.7215 9.5842,4.2575 9.5842,6.1515 L9.5842,10.1495 C10.3672,9.6705 11.2692,9.3945 12.2312,9.3945 L20.8382,9.3945 Z" id="Fill-3578" fill="#007F46"></path>
        <path d="M16.7842,22.1596 C14.9992,22.1596 13.8222,23.2266 13.8222,24.8926 C13.8222,26.5516 15.1022,27.6106 16.7652,27.6106 C18.1862,27.6106 18.8672,27.0656 19.2412,26.3206 L18.1012,25.9596 C17.8682,26.4436 17.3822,26.7276 16.7182,26.7276 C15.7092,26.7276 15.0552,26.0066 15.0552,24.8996 C15.0552,23.7176 15.6902,23.0416 16.8312,23.0416 C17.5032,23.0416 18.0082,23.3266 18.3732,23.8336 L19.2692,23.2726 C18.7552,22.5426 17.9332,22.1596 16.7842,22.1596" id="Fill-3580" fill="#FFFFFE"></path>
        <path d="M15.6674,6.9546 L16.5734,4.8436 L17.5174,6.9546 L15.6674,6.9546 Z M16.9574,3.4686 L16.1254,3.4686 L13.5644,8.7666 L14.8824,8.7666 L15.3214,7.7526 L17.8724,7.7526 L18.3214,8.7666 L19.5264,8.7666 L16.9574,3.4686 Z" id="Fill-3582" fill="#FFFFFE"></path>
        <path d="M25.2217,15.8413 L25.2217,15.2353 C25.2217,12.5713 23.2597,10.4123 20.8377,10.4123 L12.2307,10.4123 C9.8097,10.4123 7.8467,12.5713 7.8467,15.2353 L7.8467,15.8413 C7.8467,18.5053 9.8097,20.6633 12.2307,20.6633 L20.8377,20.6633 C23.2597,20.6633 25.2217,18.5053 25.2217,15.8413" id="Fill-3584" fill="#79BB43"></path>
        <path d="M14.1331,19.2705 L14.1331,11.8355 L16.6761,11.8355 C18.6351,11.8355 19.4681,12.7625 19.4681,13.9475 C19.4681,14.5935 19.1191,15.1435 18.5781,15.3915 C19.3331,15.6175 19.8951,16.1995 19.8951,16.9855 C19.8951,18.3545 18.9391,19.2705 16.9351,19.2705 L14.1331,19.2705 Z M16.1031,14.8635 L16.4741,14.8635 C17.0371,14.8635 17.4421,14.6585 17.4421,14.0865 C17.4421,13.5165 17.0371,13.3545 16.4741,13.3545 L16.1031,13.3545 L16.1031,14.8635 Z M16.1031,16.2525 L16.1031,17.7505 L16.8451,17.7505 C17.4191,17.7505 17.8691,17.5465 17.8691,16.9855 C17.8691,16.4365 17.3741,16.2525 16.7441,16.2525 L16.1031,16.2525 Z" id="Fill-3586" fill="#FFFFFE"></path>
        <path d="M9.5838,41.9912 L9.5838,36.8872 L23.4848,36.8872 L23.4848,41.9912 C23.4848,43.8862 21.9488,45.4222 20.0538,45.4222 L13.0148,45.4222 C11.1198,45.4222 9.5838,43.8862 9.5838,41.9912" id="Fill-3630" fill="#DC3E2A"></path>
        <polygon id="Fill-3632" fill="#FFFFFE" points="18.4714 38.3842 14.5374 38.3842 14.5374 43.9612 18.5094 43.9612 18.5094 43.1202 15.7334 43.1202 15.7334 41.4802 17.6774 41.4802 17.6774 40.6402 15.7334 40.6402 15.7334 39.2252 18.4714 39.2252"></polygon>
        <polygon id="Fill-3635" fill="#6D6E6D" points="4.5789 35.1064 6.4749 35.1064 6.4749 35.8724 3.1599 35.8724 3.1599 35.2744 5.1069 33.7294 3.1599 33.7294 3.1599 32.9634 6.4749 32.9634 6.4749 33.5794"></polygon>
        <path d="M5.8211,30.9087 C5.8211,30.7787 5.7941,30.6677 5.7391,30.5767 C5.6851,30.4877 5.6121,30.4137 5.5221,30.3577 C5.4321,30.3017 5.3281,30.2627 5.2121,30.2387 C5.0951,30.2157 4.9761,30.2037 4.8541,30.2037 L3.1601,30.2037 L3.1601,29.4377 L4.8541,29.4377 C5.0851,29.4377 5.3001,29.4667 5.4991,29.5237 C5.6981,29.5817 5.8721,29.6707 6.0221,29.7907 C6.1711,29.9107 6.2891,30.0627 6.3741,30.2477 C6.4601,30.4337 6.5031,30.6537 6.5031,30.9087 C6.5031,31.1737 6.4571,31.3987 6.3671,31.5857 C6.2771,31.7727 6.1561,31.9247 6.0051,32.0407 C5.8541,32.1587 5.6791,32.2437 5.4801,32.2977 C5.2811,32.3517 5.0721,32.3797 4.8541,32.3797 L3.1601,32.3797 L3.1601,31.6147 L4.8541,31.6147 C4.9821,31.6147 5.1031,31.6007 5.2181,31.5767 C5.3341,31.5517 5.4361,31.5117 5.5271,31.4547 C5.6171,31.3987 5.6891,31.3267 5.7421,31.2387 C5.7941,31.1497 5.8211,31.0397 5.8211,30.9087" id="Fill-3636" fill="#6D6E6D"></path>
        <polygon id="Fill-3638" fill="#6D6E6D" points="3.832 26.3237 3.832 27.3317 6.475 27.3317 6.475 28.0977 3.832 28.0977 3.832 29.1107 3.16 29.1107 3.16 26.3237"></polygon>
        <path d="M6.4748,25.9453 L3.1598,25.9453 L3.1598,24.4513 C3.1598,24.2953 3.1918,24.1513 3.2578,24.0193 C3.3228,23.8863 3.4088,23.7733 3.5138,23.6763 C3.6198,23.5793 3.7398,23.5043 3.8738,23.4493 C4.0078,23.3953 4.1428,23.3673 4.2798,23.3673 C4.3828,23.3673 4.4818,23.3813 4.5768,23.4053 C4.6718,23.4303 4.7608,23.4663 4.8448,23.5123 C4.9288,23.5593 5.0048,23.6163 5.0718,23.6823 C5.1388,23.7503 5.1958,23.8253 5.2418,23.9093 L6.4748,23.1483 L6.4748,24.0123 L5.4058,24.6793 L5.4058,25.1793 L6.4748,25.1793 L6.4748,25.9453 Z" id="Path" fill="#6D6E6D"></path>
        <path d="M4.7378,25.1793 L4.7378,24.4793 C4.7378,24.3883 4.6948,24.3113 4.6088,24.2453 C4.5238,24.1803 4.4138,24.1473 4.2798,24.1473 C4.1428,24.1473 4.0338,24.1843 3.9528,24.2593 C3.8718,24.3343 3.8318,24.4153 3.8318,24.5033 L3.8318,25.1793 L4.7378,25.1793 Z" id="Path" fill="#FFFFFF"></path>
        <polygon id="Fill-3641" fill="#6D6E6D" points="3.1597 22.7712 6.4747 22.7712 6.4747 22.0042 3.1597 22.0042"></polygon>
        <polygon id="Fill-3642" fill="#6D6E6D" points="4.8547 21.4352 5.5267 21.4352 5.5267 19.9972 4.8547 19.9972"></polygon>
        <path d="M4.1307,17.4375 C4.1187,17.4505 4.0947,17.4845 4.0607,17.5405 C4.0267,17.5965 3.9907,17.6665 3.9537,17.7505 C3.9157,17.8345 3.8827,17.9265 3.8557,18.0255 C3.8277,18.1255 3.8137,18.2255 3.8137,18.3245 C3.8137,18.4555 3.8367,18.5565 3.8827,18.6265 C3.9297,18.6965 3.9987,18.7315 4.0887,18.7315 C4.1447,18.7315 4.1917,18.7155 4.2287,18.6845 C4.2657,18.6535 4.2997,18.6095 4.3297,18.5515 C4.3587,18.4935 4.3857,18.4225 4.4107,18.3365 C4.4357,18.2505 4.4637,18.1525 4.4947,18.0405 C4.5387,17.8815 4.5857,17.7375 4.6377,17.6105 C4.6887,17.4835 4.7527,17.3745 4.8287,17.2835 C4.9047,17.1935 4.9977,17.1245 5.1067,17.0755 C5.2157,17.0275 5.3467,17.0035 5.4987,17.0035 C5.6857,17.0035 5.8437,17.0385 5.9727,17.1085 C6.1017,17.1785 6.2067,17.2715 6.2857,17.3865 C6.3647,17.5015 6.4227,17.6345 6.4587,17.7865 C6.4937,17.9365 6.5127,18.0915 6.5127,18.2505 C6.5127,18.3715 6.5027,18.4955 6.4837,18.6215 C6.4657,18.7475 6.4387,18.8715 6.4027,18.9925 C6.3667,19.1145 6.3237,19.2325 6.2737,19.3475 C6.2247,19.4625 6.1667,19.5685 6.1007,19.6655 L5.4337,19.3285 C5.4487,19.3135 5.4787,19.2715 5.5217,19.2035 C5.5657,19.1345 5.6097,19.0505 5.6527,18.9505 C5.6967,18.8515 5.7357,18.7395 5.7697,18.6145 C5.8037,18.4905 5.8207,18.3635 5.8207,18.2365 C5.8207,17.9655 5.7387,17.8305 5.5737,17.8305 C5.5117,17.8305 5.4597,17.8505 5.4197,17.8905 C5.3787,17.9315 5.3427,17.9875 5.3097,18.0585 C5.2767,18.1305 5.2467,18.2145 5.2187,18.3115 C5.1907,18.4075 5.1597,18.5135 5.1257,18.6285 C5.0787,18.7815 5.0277,18.9135 4.9737,19.0255 C4.9187,19.1375 4.8557,19.2305 4.7847,19.3055 C4.7127,19.3805 4.6307,19.4355 4.5367,19.4715 C4.4437,19.5065 4.3347,19.5255 4.2097,19.5255 C4.0357,19.5255 3.8817,19.4925 3.7477,19.4265 C3.6137,19.3615 3.5017,19.2725 3.4097,19.1615 C3.3177,19.0485 3.2477,18.9185 3.2017,18.7705 C3.1547,18.6235 3.1317,18.4665 3.1317,18.3015 C3.1317,18.1835 3.1427,18.0685 3.1647,17.9565 C3.1857,17.8445 3.2137,17.7375 3.2477,17.6365 C3.2827,17.5355 3.3217,17.4395 3.3647,17.3495 C3.4087,17.2585 3.4517,17.1785 3.4957,17.1065 L4.1307,17.4375 Z" id="Fill-3643" fill="#6D6E6D"></path>
        <path d="M4.789,16.7465 C4.59,16.7465 4.392,16.7105 4.194,16.6395 C3.996,16.5675 3.819,16.4635 3.664,16.3265 C3.508,16.1895 3.382,16.0225 3.286,15.8245 C3.189,15.6265 3.141,15.4015 3.141,15.1495 C3.141,14.8545 3.208,14.5975 3.342,14.3795 C3.475,14.1615 3.65,13.9995 3.864,13.8935 L4.276,14.4815 C4.189,14.5165 4.116,14.5595 4.059,14.6125 C4.001,14.6655 3.954,14.7235 3.918,14.7855 C3.883,14.8485 3.858,14.9135 3.844,14.9795 C3.83,15.0465 3.823,15.1095 3.823,15.1685 C3.823,15.3055 3.852,15.4235 3.911,15.5235 C3.971,15.6225 4.047,15.7055 4.14,15.7705 C4.233,15.8365 4.339,15.8855 4.458,15.9175 C4.576,15.9505 4.696,15.9675 4.817,15.9675 C4.948,15.9675 5.074,15.9475 5.195,15.9085 C5.317,15.8695 5.424,15.8155 5.518,15.7455 C5.611,15.6745 5.685,15.5905 5.739,15.4905 C5.794,15.3915 5.821,15.2805 5.821,15.1595 C5.821,15.0975 5.813,15.0325 5.795,14.9655 C5.778,14.8985 5.752,14.8335 5.716,14.7715 C5.68,14.7095 5.633,14.6535 5.576,14.6035 C5.518,14.5545 5.447,14.5135 5.363,14.4815 L5.732,13.8515 C5.854,13.9015 5.963,13.9745 6.059,14.0685 C6.156,14.1635 6.237,14.2725 6.302,14.3925 C6.367,14.5145 6.417,14.6435 6.451,14.7785 C6.486,14.9135 6.503,15.0475 6.503,15.1785 C6.503,15.4085 6.454,15.6195 6.356,15.8105 C6.258,16.0025 6.128,16.1665 5.966,16.3055 C5.804,16.4435 5.62,16.5525 5.415,16.6295 C5.209,16.7075 5.001,16.7465 4.789,16.7465" id="Fill-3645" fill="#6D6E6D"></path>
        <path d="M6.5028,12.1054 C6.5028,12.3414 6.4548,12.5574 6.3578,12.7504 C6.2618,12.9424 6.1348,13.1084 5.9778,13.2474 C5.8198,13.3854 5.6408,13.4934 5.4378,13.5694 C5.2358,13.6464 5.0268,13.6834 4.8128,13.6834 C4.5948,13.6834 4.3848,13.6444 4.1818,13.5644 C3.9798,13.4844 3.8018,13.3744 3.6478,13.2334 C3.4928,13.0914 3.3708,12.9234 3.2788,12.7294 C3.1868,12.5344 3.1408,12.3224 3.1408,12.0914 C3.1408,11.8554 3.1888,11.6404 3.2858,11.4474 C3.3818,11.2544 3.5098,11.0884 3.6688,10.9494 C3.8268,10.8114 4.0078,10.7044 4.2098,10.6304 C4.4128,10.5554 4.6178,10.5184 4.8268,10.5184 C5.0448,10.5184 5.2548,10.5574 5.4568,10.6374 C5.6588,10.7164 5.8378,10.8264 5.9918,10.9664 C6.1458,11.1064 6.2698,11.2734 6.3628,11.4684 C6.4558,11.6634 6.5028,11.8754 6.5028,12.1054 M4.8218,12.9044 C4.9498,12.9044 5.0728,12.8864 5.1928,12.8504 C5.3128,12.8144 5.4198,12.7634 5.5128,12.6964 C5.6068,12.6294 5.6808,12.5454 5.7368,12.4444 C5.7928,12.3434 5.8208,12.2274 5.8208,12.0954 C5.8208,11.9614 5.7918,11.8454 5.7318,11.7454 C5.6728,11.6464 5.5958,11.5634 5.5008,11.4964 C5.4058,11.4294 5.2988,11.3794 5.1788,11.3464 C5.0588,11.3134 4.9368,11.2974 4.8128,11.2974 C4.6848,11.2974 4.5608,11.3154 4.4408,11.3514 C4.3218,11.3874 4.2158,11.4394 4.1238,11.5074 C4.0318,11.5764 3.9588,11.6604 3.9038,11.7594 C3.8498,11.8594 3.8228,11.9734 3.8228,12.1004 C3.8228,12.2344 3.8518,12.3514 3.9088,12.4514 C3.9668,12.5504 4.0418,12.6334 4.1358,12.7004 C4.2288,12.7684 4.3358,12.8184 4.4558,12.8524 C4.5748,12.8864 4.6968,12.9044 4.8218,12.9044" id="Fill-3647" fill="#6D6E6D"></path>
        <path d="M6.4748,10.0698 L3.1598,10.0698 L3.1598,8.5748 C3.1598,8.4198 3.1918,8.2758 3.2578,8.1438 C3.3228,8.0108 3.4088,7.8968 3.5138,7.7998 C3.6198,7.7038 3.7398,7.6288 3.8738,7.5738 C4.0078,7.5188 4.1428,7.4918 4.2798,7.4918 C4.3828,7.4918 4.4818,7.5048 4.5768,7.5298 C4.6718,7.5538 4.7608,7.5898 4.8448,7.6368 C4.9288,7.6838 5.0048,7.7408 5.0718,7.8078 C5.1388,7.8748 5.1958,7.9498 5.2418,8.0338 L6.4748,7.2728 L6.4748,8.1358 L5.4058,8.8038 L5.4058,9.3038 L6.4748,9.3038 L6.4748,10.0698 Z M4.7378,9.3038 L4.7378,8.6038 C4.7378,8.5128 4.6948,8.4358 4.6088,8.3698 C4.5238,8.3048 4.4138,8.2718 4.2798,8.2718 C4.1428,8.2718 4.0338,8.3098 3.9528,8.3838 C3.8718,8.4588 3.8318,8.5398 3.8318,8.6268 L3.8318,9.3038 L4.7378,9.3038 Z" id="Fill-3649" fill="#6D6E6D"></path>
        <polygon id="Fill-3652" fill="#6D6E6D" points="5.8023 4.5644 6.4743 4.5644 6.4743 6.8944 3.1593 6.8944 3.1593 4.6064 3.8323 4.6064 3.8323 6.1284 4.4763 6.1284 4.4763 4.8214 5.0973 4.8214 5.0973 6.1284 5.8023 6.1284"></polygon>
        <polygon id="Fill-3653" fill="#E7792B" points="9.5837 36.8872 23.4847 36.8872 23.4847 28.3442 9.5837 28.3442"></polygon>
        <path d="M15.0651,34.728 L15.0651,30.849 L15.7381,30.849 C17.2241,30.849 17.9431,31.559 17.9431,32.78 C17.9431,33.895 17.1681,34.728 15.5881,34.728 L15.0651,34.728 Z M15.7471,29.992 L13.8691,29.992 L13.8691,35.568 L15.6171,35.568 C17.8311,35.568 19.1771,34.38 19.1771,32.78 C19.1771,31.034 17.9251,29.992 15.7471,29.992 L15.7471,29.992 Z" id="Fill-3654" fill="#FFFFFE"></path>
    </g>
</svg>