<svg width="212" height="40" viewBox="0 0 212 40" fill="none" xmlns="http://www.w3.org/2000/svg">
<g clip-path="url(#clip0)">
<path d="M211.667 0H0V39.6875H211.667V0Z" fill="#0044AA"/>
<path d="M211.667 0H93.0669V39.6875H211.667V0Z" fill="#FFCC00"/>
<path d="M66.2233 0L74.6662 39.6875H143.439L134.996 0H66.2233Z" fill="#D5F6FF"/>
<path d="M134.453 17.9798L146.328 11.9277L147.342 15.8421L134.453 17.9798Z" fill="white" stroke="black" stroke-width="0.264583"/>
<path d="M87.1049 26.561C92.0597 26.561 96.0763 21.5093 96.0763 15.2777C96.0763 9.04612 92.0597 3.99442 87.1049 3.99442C82.1502 3.99442 78.1336 9.04612 78.1336 15.2777C78.1336 21.5093 82.1502 26.561 87.1049 26.561Z" fill="#803300"/>
<path d="M92.4572 22.7947C97.0415 25.9611 101.833 20.1474 105.997 20.7852" stroke="black" stroke-width="0.817184"/>
<path fill-rule="evenodd" clip-rule="evenodd" d="M87.1049 19.9997C81.5924 19.9997 77.1547 24.4374 77.1547 29.9499V39.6875H97.0552V29.9499C97.0552 24.4374 92.6175 19.9997 87.1049 19.9997Z" fill="#00D400"/>
<path d="M81.2919 23.1774C75.5246 22.8049 73.5768 34.6998 81.4033 36.8501" stroke="black" stroke-width="0.817184"/>
<path fill-rule="evenodd" clip-rule="evenodd" d="M87.1049 19.9997C83.7059 19.9997 80.7177 21.6884 78.9243 24.2743H95.2859C93.4925 21.6884 90.5039 19.9997 87.1049 19.9997Z" fill="#00D400"/>
<path d="M87.1049 20.5143C91.2739 20.5143 94.6535 17.1347 94.6535 12.9657C94.6535 8.79677 91.2739 5.41714 87.1049 5.41714C82.936 5.41714 79.5563 8.79677 79.5563 12.9657C79.5563 17.1347 82.936 20.5143 87.1049 20.5143Z" fill="#FFCC00"/>
<path d="M82.2689 39.063C83.1216 39.063 83.8129 38.3717 83.8129 37.5189C83.8129 36.6662 83.1216 35.9749 82.2689 35.9749C81.4161 35.9749 80.7248 36.6662 80.7248 37.5189C80.7248 38.3717 81.4161 39.063 82.2689 39.063Z" fill="#FFCC00"/>
<path fill-rule="evenodd" clip-rule="evenodd" d="M87.14 21.9361C87.1283 21.9364 87.1166 21.9366 87.1049 21.9369C87.0964 21.9366 87.0879 21.9364 87.0793 21.9361C87.0879 21.9365 87.0964 21.9368 87.1049 21.9371C87.1166 21.9368 87.1283 21.9365 87.14 21.9361Z" fill="#803300"/>
<path fill-rule="evenodd" clip-rule="evenodd" d="M87.1049 3.99437C85.9267 3.99435 84.7601 4.22639 83.6716 4.67725C82.5831 5.1281 81.5941 5.78893 80.761 6.62201C79.928 7.45509 79.2671 8.4441 78.8163 9.53258C78.3654 10.6211 78.1334 11.7877 78.1334 12.9658C78.1349 13.5077 78.1855 14.0483 78.2846 14.581C78.2933 14.538 78.3026 14.4951 78.3125 14.4522C78.372 14.2481 78.446 14.0462 78.5344 13.8472C78.6227 13.6484 78.7253 13.4528 78.8416 13.2611C78.9582 13.0693 79.0884 12.8816 79.2319 12.6989C79.3753 12.5163 79.5318 12.3388 79.7007 12.167C79.8696 11.9951 80.0507 11.8292 80.2434 11.6698C80.4361 11.5107 80.6401 11.3583 80.8547 11.2133C81.0692 11.0682 81.294 10.9307 81.5282 10.8012C81.7625 10.6717 82.0059 10.5506 82.2576 10.4381C82.5094 10.3256 82.7691 10.222 83.0357 10.1276C83.3022 10.0332 83.5753 9.9481 83.8541 9.87265C84.1329 9.79725 84.4169 9.7316 84.7052 9.67595C84.9934 9.6202 85.2854 9.57451 85.5802 9.53908C85.875 9.50377 86.1721 9.47874 86.4704 9.46408C86.6816 9.45354 86.8932 9.44821 87.1049 9.44809C87.404 9.44819 87.703 9.45869 88.0006 9.47958C88.2982 9.50028 88.5941 9.53132 88.8873 9.57259C89.1805 9.61394 89.4705 9.66548 89.7563 9.72701C90.042 9.78861 90.3232 9.86013 90.5986 9.94128C90.874 10.0223 91.1434 10.1129 91.4058 10.2126C91.6683 10.3125 91.9235 10.4214 92.1704 10.539C92.4173 10.6566 92.6557 10.7827 92.8846 10.9169C93.1133 11.051 93.3322 11.1929 93.5406 11.3422C93.7489 11.4915 93.9464 11.648 94.1323 11.8111C94.3183 11.9741 94.4925 12.1435 94.6542 12.3186C94.8158 12.4938 94.9647 12.6745 95.1003 12.8601C95.236 13.0456 95.3583 13.2358 95.4666 13.4299C95.5751 13.624 95.6695 13.8217 95.7495 14.0224C95.8197 14.2019 95.8783 14.3835 95.9251 14.5667C96.0233 14.0387 96.0739 13.5029 96.0763 12.9658C96.0763 11.7877 95.8443 10.621 95.3934 9.53256C94.9426 8.44409 94.2818 7.45507 93.4487 6.62199C92.6156 5.78891 91.6266 5.12808 90.5381 4.67723C89.4496 4.22638 88.283 3.99434 87.1049 3.99435L87.1049 3.99437Z" fill="#AA4400"/>
<path d="M85.2563 14.825C85.8248 14.825 86.2856 14.3642 86.2856 13.7957C86.2856 13.2272 85.8248 12.7663 85.2563 12.7663C84.6878 12.7663 84.2269 13.2272 84.2269 13.7957C84.2269 14.3642 84.6878 14.825 85.2563 14.825Z" fill="black"/>
<path d="M90.5746 14.825C91.1431 14.825 91.6039 14.3642 91.6039 13.7957C91.6039 13.2272 91.1431 12.7663 90.5746 12.7663C90.0061 12.7663 89.5452 13.2272 89.5452 13.7957C89.5452 14.3642 90.0061 14.825 90.5746 14.825Z" fill="black"/>
<path fill-rule="evenodd" clip-rule="evenodd" d="M85.2436 16.9115C85.5397 17.4475 85.9114 17.8792 86.3321 18.1758C86.7529 18.4724 87.2123 18.6266 87.6776 18.6273C88.1431 18.6269 88.6028 18.4729 89.0239 18.1763C89.4449 17.8796 89.8168 17.4478 90.113 16.9115H85.2436Z" fill="black"/>
<path fill-rule="evenodd" clip-rule="evenodd" d="M112.705 35.1912C112.705 35.1912 112.715 36.4148 112.014 36.7799C111.514 37.0406 110.455 36.4935 110.455 36.4935L112.705 35.1912Z" fill="#DE8787"/>
<path fill-rule="evenodd" clip-rule="evenodd" d="M110.948 24.4443C111.674 24.6886 112.035 25.8345 111.967 26.3279L108.771 25.0302C109.245 24.89 110.218 24.1987 110.948 24.4443Z" fill="#DE8787"/>
<path fill-rule="evenodd" clip-rule="evenodd" d="M103.777 38.2853C104.183 38.6402 104.3 39.7067 105.577 39.6666C106.854 39.6265 107.054 38.663 107.614 38.4104C108.15 38.1686 103.364 37.924 103.777 38.2853Z" fill="#DE8787"/>
<path fill-rule="evenodd" clip-rule="evenodd" d="M107.35 24.6024C106.253 24.6032 105.149 24.8066 104.127 25.1837C101.225 26.253 99.6535 28.6404 99.2705 30.1788C97.8308 35.9611 103.364 37.924 103.777 38.2853C104.183 38.6402 107.054 38.663 107.614 38.4104C108.15 38.1686 109.122 38.3236 111.94 36.1505C114.744 33.9876 114.823 29.3021 112.917 27.025C112.2 26.1679 111.401 25.598 110.427 25.2033C110.316 25.1787 110.159 25.1696 110.077 25.1664C110.047 25.1161 110.011 25.0715 109.956 25.0188C109.124 24.7356 108.239 24.6021 107.35 24.6024Z" fill="#E9AFAF"/>
<path fill-rule="evenodd" clip-rule="evenodd" d="M107.529 32.8575C108.722 32.9865 111.157 31.4344 109.901 28.3371C108.645 25.2395 104.756 25.9118 104.208 27.6951C104.104 28.0325 105.808 28.3881 106.524 29.7603C107.241 31.1322 106.946 32.795 107.529 32.8575Z" fill="#DE8787"/>
<path fill-rule="evenodd" clip-rule="evenodd" d="M102.82 26.5882C103.498 26.351 104.833 25.5484 104.319 25.118C103.549 25.3819 102.333 23.1817 100.077 24.6348C98.7813 25.469 100.506 27.8065 100.072 28.4183C100.675 27.4129 101.054 27.2032 102.82 26.5882H102.82Z" fill="#DE8787"/>
<path fill-rule="evenodd" clip-rule="evenodd" d="M99.3264 31.6579C98.9929 32.1024 98.2381 32.2995 98.1963 33.2483C98.1541 34.2111 98.9599 35.94 100.136 36.276C101.308 36.6109 101.433 36.2342 102.033 36.2623C102.619 36.2894 102.661 33.9321 101.615 32.8298C100.575 31.7348 99.8148 31.5602 99.3264 31.6579V31.6579Z" fill="#DE8787"/>
<path d="M98.5796 32.3378C98.3768 32.5509 98.2151 32.8244 98.1964 33.2493C98.1543 34.2119 98.9596 35.9416 100.136 36.2779C100.573 36.4029 100.864 36.4282 101.089 36.413C101.149 36.1433 101.182 35.8602 101.182 35.5675C101.182 33.8043 100.021 32.3716 98.5796 32.3379L98.5796 32.3378Z" fill="#E9AFAF"/>
<path opacity="0.9" fill-rule="evenodd" clip-rule="evenodd" d="M104.024 27.9298C104.024 27.9298 105.892 27.0819 107.101 28.1273C108.7 29.5083 107.24 33.1193 107.24 33.1193L104.024 27.9298Z" fill="#A8443F"/>
<path opacity="0.9" fill-rule="evenodd" clip-rule="evenodd" d="M102.8 26.746C101.833 26.4895 100.61 24.8319 99.8995 25.483C99.3749 25.9638 100.472 28.1667 100.176 28.4232C99.8798 28.6797 103.275 26.877 102.8 26.746Z" fill="#A8443E"/>
<path opacity="0.95" fill-rule="evenodd" clip-rule="evenodd" d="M98.5385 33.2905C98.4124 33.4078 98.482 34.3229 98.6004 34.6855C98.7188 35.0482 98.9658 35.3588 99.047 35.2998C99.124 35.2439 99.144 34.7713 99.0618 34.4065C98.9778 34.0368 98.9539 33.4011 98.8386 33.3597C98.7258 33.3189 98.6608 33.1766 98.5385 33.2905L98.5385 33.2905ZM99.4596 34.0224C99.3299 34.1106 99.2993 34.7396 99.3404 35.1107C99.3935 35.5219 99.7055 36.0943 99.9891 36.1646C100.273 36.2345 100.338 36.1439 100.275 35.732C100.212 35.3205 100.045 34.909 100.017 34.6437C99.9891 34.3787 100.009 34.2663 99.8356 34.1419C99.6616 34.0172 99.5889 33.9342 99.4596 34.0224Z" fill="#A73C39"/>
<path fill-rule="evenodd" clip-rule="evenodd" d="M108.636 24.8024C107.054 24.8074 105.482 25.4019 104.721 25.872C104.756 25.9978 105.325 26.1641 105.483 26.1542C107.093 25.6535 108.563 25.0336 110.08 25.1682C110.047 25.0867 109.946 25.0027 109.815 24.9222C109.43 24.8379 109.032 24.8013 108.636 24.8024Z" fill="#DE8787"/>
<path opacity="0.75" fill-rule="evenodd" clip-rule="evenodd" d="M108.969 25.1232C107.652 25.1341 106.42 25.5126 105.217 26.1114C105.328 26.1399 105.428 26.1574 105.481 26.1543C106.934 25.7027 108.272 25.1538 109.634 25.1496C109.41 25.1303 109.188 25.1211 108.969 25.1232V25.1232Z" fill="#AA4B45"/>
<path d="M100.333 30.4819C100.5 30.5714 100.774 30.3857 100.944 30.0671C101.115 29.7485 101.118 29.4177 100.95 29.3282C100.783 29.2386 100.509 29.4243 100.339 29.7429C100.168 30.0615 100.165 30.3923 100.333 30.4819Z" fill="white"/>
<path d="M100.897 29.8775C100.847 30.0799 100.54 30.3088 100.373 30.2193C100.206 30.1298 100.212 29.7381 100.357 29.5828C100.44 29.4934 100.556 29.4763 100.723 29.5659C100.89 29.6554 100.925 29.762 100.897 29.8775L100.897 29.8775Z" fill="#2B1100"/>
<path d="M102.627 31.6605C102.818 31.7626 103.13 31.551 103.324 31.1879C103.519 30.8248 103.522 30.4478 103.331 30.3457C103.141 30.2437 102.829 30.4553 102.634 30.8184C102.44 31.1814 102.437 31.5585 102.627 31.6605Z" fill="white"/>
<path d="M103.265 31.0084C103.208 31.2391 102.858 31.5 102.668 31.3979C102.477 31.2959 102.485 30.8496 102.649 30.6726C102.744 30.5707 102.876 30.5513 103.067 30.6533C103.257 30.7553 103.297 30.8768 103.265 31.0084L103.265 31.0084Z" fill="#2B1100"/>
<path d="M107.224 25.2852C108.389 25.2852 109.333 24.2921 109.333 23.067C109.333 21.8419 108.389 20.8487 107.224 20.8487C106.06 20.8487 105.116 21.8419 105.116 23.067C105.116 24.2921 106.06 25.2852 107.224 25.2852Z" fill="#F5D558"/>
<path d="M107.224 24.6844C108.118 24.6844 108.842 23.9602 108.842 23.067C108.842 22.1737 108.118 21.4496 107.224 21.4496C106.331 21.4496 105.607 22.1737 105.607 23.067C105.607 23.9602 106.331 24.6844 107.224 24.6844Z" fill="#CBC4AC"/>
<path d="M105.944 22.8431C106.797 22.8431 107.488 22.1518 107.488 21.2991C107.488 20.4463 106.797 19.7551 105.944 19.7551C105.092 19.7551 104.4 20.4463 104.4 21.2991C104.4 22.1518 105.092 22.8431 105.944 22.8431Z" fill="#FFCC00"/>
<path fill-rule="evenodd" clip-rule="evenodd" d="M87.1049 32.9934C87.1049 32.9934 82.283 29.556 82.283 27.5031C82.283 25.4264 83.5004 24.7341 84.694 24.7341C86.5082 24.7341 87.1049 26.8109 87.1049 26.8109C87.1049 26.8109 87.7256 24.7341 89.5159 24.7341C90.7333 24.7341 91.9269 25.4264 91.9269 27.5031C91.9269 29.556 87.1049 32.9934 87.1049 32.9934Z" fill="#FF0000"/>
<path d="M119.611 23.4309C112.861 24.4586 112.18 18.016 111.205 11.9364" stroke="black" stroke-width="0.817184"/>
<path d="M133.182 33.9732H119.745V39.6875H133.182V33.9732Z" fill="black"/>
<path fill-rule="evenodd" clip-rule="evenodd" d="M125.898 19.9997C120.386 19.9997 115.948 24.4374 115.948 29.9499V39.6875H135.848V29.9499C135.848 24.4374 131.411 19.9997 125.898 19.9997Z" fill="#0066FF"/>
<path d="M125.898 20.5143C130.067 20.5143 133.447 17.1347 133.447 12.9657C133.447 8.79677 130.067 5.41714 125.898 5.41714C121.729 5.41714 118.35 8.79677 118.35 12.9657C118.35 17.1347 121.729 20.5143 125.898 20.5143Z" fill="#FFCC00"/>
<path d="M123.239 13.9951C123.808 13.9951 124.268 13.5343 124.268 12.9658C124.268 12.3973 123.808 11.9364 123.239 11.9364C122.671 11.9364 122.21 12.3973 122.21 12.9658C122.21 13.5343 122.671 13.9951 123.239 13.9951Z" fill="black"/>
<path d="M128.557 13.9951C129.126 13.9951 129.587 13.5343 129.587 12.9658C129.587 12.3973 129.126 11.9364 128.557 11.9364C127.989 11.9364 127.528 12.3973 127.528 12.9658C127.528 13.5343 127.989 13.9951 128.557 13.9951Z" fill="black"/>
<path fill-rule="evenodd" clip-rule="evenodd" d="M123.464 16.9115C123.76 17.4475 124.131 17.8792 124.552 18.1758C124.973 18.4724 125.432 18.6266 125.898 18.6273C126.363 18.6269 126.823 18.4729 127.244 18.1763C127.665 17.8796 128.037 17.4478 128.333 16.9115H123.464Z" fill="black"/>
<path d="M114.051 1.92565L110.642 1.47505C110.058 1.39781 109.522 1.80882 109.445 2.39306L108.372 10.5033C108.295 11.0876 108.706 11.6238 109.29 11.701L112.699 12.1516C113.283 12.2289 113.82 11.8178 113.897 11.2336L114.969 3.12335C115.046 2.53911 114.635 2.00288 114.051 1.92565Z" fill="#1A1A1A"/>
<path d="M114.544 2.94754L109.901 2.33379L108.798 10.6791L113.441 11.2929L114.544 2.94754Z" fill="#CCCCCC"/>
<path d="M112.151 4.39806L111.834 4.35614C111.596 4.32462 111.377 4.49234 111.345 4.73075L111.127 6.38239C111.096 6.6208 111.263 6.83962 111.502 6.87113L111.819 6.91306C112.057 6.94458 112.276 6.77686 112.308 6.53845L112.526 4.88681C112.557 4.6484 112.39 4.42958 112.151 4.39806Z" fill="#FF0000"/>
<path d="M112.204 5.33314L111.541 5.24548C111.042 5.17958 110.585 5.53027 110.519 6.02876L110.062 9.48219C109.996 9.98068 110.347 10.4382 110.845 10.5041L111.509 10.5918C112.007 10.6577 112.465 10.307 112.531 9.80849L112.987 6.35506C113.053 5.85657 112.702 5.39904 112.204 5.33314Z" fill="#280B0B"/>
<path fill-rule="evenodd" clip-rule="evenodd" d="M110.461 6.46767L110.12 9.04322L112.589 9.36951L112.929 6.79396L110.461 6.46767Z" fill="#FF0000"/>
<path d="M114.404 4.0054L109.761 3.39165L108.798 10.6791L113.441 11.2929L114.404 4.0054Z" fill="white" fill-opacity="0.302752"/>
<path fill-rule="evenodd" clip-rule="evenodd" d="M109.901 2.33379L113.441 11.2929L108.798 10.6791L109.901 2.33379Z" fill="white" fill-opacity="0.498039"/>
<path d="M111.033 13.652C111.886 13.652 112.577 12.9607 112.577 12.108C112.577 11.2552 111.886 10.5639 111.033 10.5639C110.18 10.5639 109.489 11.2552 109.489 12.108C109.489 12.9607 110.18 13.652 111.033 13.652Z" fill="#FFCC00"/>
<path d="M119.104 26.2086L120.078 24.384H120.537L119.319 26.6179V28.0331H118.89V26.6379L117.674 24.384H118.138L119.104 26.2086Z" fill="white"/>
<path d="M122.134 28.083C121.73 28.083 121.411 27.9599 121.176 27.7136C120.943 27.4674 120.827 27.1254 120.827 26.6878C120.827 26.2468 120.935 25.8966 121.151 25.637C121.369 25.3774 121.661 25.2476 122.027 25.2476C122.37 25.2476 122.641 25.3608 122.841 25.5871C123.04 25.8117 123.14 26.1087 123.14 26.4781V26.7402H121.256C121.264 27.0613 121.345 27.3051 121.498 27.4715C121.653 27.6379 121.87 27.7211 122.149 27.7211C122.444 27.7211 122.735 27.6595 123.023 27.5364V27.9058C122.877 27.969 122.738 28.014 122.606 28.0406C122.476 28.0689 122.319 28.083 122.134 28.083ZM122.022 25.5946C121.802 25.5946 121.627 25.6661 121.495 25.8092C121.366 25.9523 121.289 26.1503 121.266 26.4033H122.696C122.696 26.142 122.638 25.9423 122.521 25.8042C122.405 25.6645 122.238 25.5946 122.022 25.5946Z" fill="white"/>
<path d="M125.609 27.2868C125.609 27.5414 125.514 27.7377 125.324 27.8759C125.135 28.014 124.868 28.083 124.526 28.083C124.163 28.083 123.88 28.0256 123.677 27.9108V27.5264C123.808 27.593 123.949 27.6454 124.099 27.6837C124.25 27.7219 124.396 27.7411 124.536 27.7411C124.752 27.7411 124.918 27.707 125.035 27.6387C125.151 27.5689 125.209 27.4632 125.209 27.3218C125.209 27.2153 125.163 27.1246 125.07 27.0497C124.978 26.9732 124.798 26.8833 124.531 26.7801C124.276 26.6853 124.095 26.6029 123.986 26.533C123.88 26.4615 123.8 26.3808 123.747 26.2909C123.695 26.2011 123.669 26.0938 123.669 25.969C123.669 25.746 123.76 25.5704 123.941 25.4423C124.123 25.3125 124.372 25.2476 124.688 25.2476C124.982 25.2476 125.27 25.3075 125.551 25.4273L125.404 25.7643C125.13 25.6511 124.881 25.5946 124.658 25.5946C124.461 25.5946 124.313 25.6254 124.214 25.6869C124.114 25.7485 124.064 25.8333 124.064 25.9415C124.064 26.0147 124.082 26.0771 124.119 26.1287C124.157 26.1803 124.218 26.2294 124.301 26.276C124.384 26.3226 124.544 26.3899 124.78 26.4781C125.105 26.5963 125.323 26.7152 125.437 26.8351C125.551 26.9549 125.609 27.1054 125.609 27.2868Z" fill="white"/>
<path d="M130.803 28.1774H130.384L129.648 25.7339C129.613 25.6257 129.574 25.4893 129.53 25.3246C129.487 25.1598 129.465 25.0608 129.463 25.0275C129.426 25.2472 129.368 25.4876 129.288 25.7489L128.574 28.1774H128.155L127.184 24.5284H127.634L128.21 26.7822C128.29 27.0983 128.348 27.3845 128.385 27.6408C128.43 27.3363 128.496 27.0384 128.584 26.7472L129.238 24.5284H129.688L130.374 26.7672C130.454 27.0251 130.521 27.3163 130.576 27.6408C130.608 27.4045 130.668 27.1166 130.756 26.7772L131.33 24.5284H131.779L130.803 28.1774Z" fill="white"/>
<path d="M133.444 28.2273C133.04 28.2273 132.72 28.1042 132.486 27.8579C132.253 27.6117 132.136 27.2697 132.136 26.8321C132.136 26.3912 132.244 26.0409 132.461 25.7813C132.679 25.5217 132.971 25.392 133.337 25.392C133.679 25.392 133.951 25.5051 134.15 25.7314C134.35 25.956 134.45 26.253 134.45 26.6224V26.8845H132.565C132.574 27.2057 132.654 27.4494 132.808 27.6158C132.962 27.7822 133.179 27.8654 133.459 27.8654C133.754 27.8654 134.045 27.8039 134.333 27.6807V28.0501C134.186 28.1134 134.047 28.1583 133.916 28.1849C133.786 28.2132 133.629 28.2273 133.444 28.2273ZM133.332 25.7389C133.112 25.7389 132.937 25.8104 132.805 25.9535C132.675 26.0966 132.599 26.2946 132.575 26.5476H134.006C134.006 26.2863 133.947 26.0867 133.831 25.9485C133.714 25.8088 133.548 25.7389 133.332 25.7389Z" fill="white"/>
<path d="M120.951 31.9427C120.951 32.3323 120.81 32.6361 120.527 32.8541C120.245 33.0721 119.861 33.1811 119.377 33.1811C118.852 33.1811 118.448 33.1135 118.166 32.9783V32.4817C118.347 32.5584 118.545 32.619 118.759 32.6634C118.973 32.7078 119.185 32.73 119.395 32.73C119.738 32.73 119.996 32.6654 120.17 32.5362C120.344 32.405 120.43 32.2233 120.43 31.9912C120.43 31.8378 120.399 31.7126 120.337 31.6157C120.276 31.5168 120.173 31.426 120.028 31.3432C119.884 31.2605 119.665 31.1666 119.371 31.0616C118.959 30.9143 118.664 30.7397 118.487 30.5378C118.311 30.3359 118.223 30.0725 118.223 29.7475C118.223 29.4064 118.351 29.1349 118.608 28.933C118.864 28.7312 119.203 28.6302 119.625 28.6302C120.065 28.6302 120.47 28.711 120.839 28.8725L120.679 29.3206C120.313 29.1672 119.958 29.0905 119.613 29.0905C119.34 29.0905 119.127 29.149 118.974 29.2661C118.821 29.3832 118.744 29.5457 118.744 29.7536C118.744 29.907 118.772 30.0332 118.829 30.1321C118.885 30.229 118.98 30.3188 119.113 30.4016C119.249 30.4823 119.454 30.5721 119.731 30.671C120.195 30.8366 120.514 31.0142 120.688 31.2039C120.863 31.3937 120.951 31.6399 120.951 31.9427Z" fill="white"/>
<path d="M123.614 33.1811C123.134 33.1811 122.761 33.0338 122.497 32.7391C122.235 32.4423 122.103 32.0235 122.103 31.4825C122.103 30.9274 122.237 30.4984 122.503 30.1957C122.771 29.8929 123.153 29.7415 123.648 29.7415C123.807 29.7415 123.966 29.7586 124.126 29.7929C124.285 29.8273 124.411 29.8676 124.501 29.9141L124.347 30.341C124.236 30.2966 124.115 30.2602 123.984 30.232C123.852 30.2017 123.736 30.1866 123.635 30.1866C122.961 30.1866 122.624 30.6165 122.624 31.4764C122.624 31.8842 122.706 32.1971 122.869 32.4151C123.035 32.6331 123.279 32.7421 123.602 32.7421C123.879 32.7421 124.162 32.6825 124.453 32.5634V33.0085C124.231 33.1236 123.951 33.1811 123.614 33.1811Z" fill="white"/>
<path d="M127.942 33.1206L127.843 32.6482H127.818C127.653 32.8561 127.487 32.9974 127.322 33.0721C127.158 33.1448 126.953 33.1811 126.707 33.1811C126.378 33.1811 126.12 33.0963 125.932 32.9268C125.746 32.7572 125.653 32.516 125.653 32.2031C125.653 31.533 126.189 31.1817 127.261 31.1494L127.824 31.1313V30.9254C127.824 30.665 127.768 30.4732 127.655 30.3501C127.544 30.2249 127.365 30.1623 127.119 30.1623C126.842 30.1623 126.529 30.2471 126.18 30.4167L126.026 30.0321C126.189 29.9433 126.368 29.8737 126.562 29.8232C126.758 29.7728 126.953 29.7475 127.149 29.7475C127.545 29.7475 127.838 29.8353 128.027 30.011C128.219 30.1866 128.315 30.4682 128.315 30.8557V33.1206H127.942ZM126.807 32.7663C127.12 32.7663 127.365 32.6805 127.543 32.5089C127.722 32.3374 127.812 32.0972 127.812 31.7883V31.4886L127.31 31.5097C126.91 31.5239 126.621 31.5865 126.444 31.6975C126.268 31.8065 126.18 31.977 126.18 32.2092C126.18 32.3909 126.235 32.5291 126.344 32.624C126.455 32.7189 126.609 32.7663 126.807 32.7663Z" fill="white"/>
<path d="M131.738 33.1206V30.9738C131.738 30.7033 131.676 30.5015 131.553 30.3682C131.43 30.235 131.237 30.1684 130.975 30.1684C130.628 30.1684 130.373 30.2623 130.212 30.45C130.05 30.6377 129.97 30.9476 129.97 31.3795V33.1206H129.467V29.802H129.876L129.957 30.2562H129.982C130.085 30.0927 130.229 29.9665 130.415 29.8777C130.6 29.7869 130.807 29.7415 131.035 29.7415C131.435 29.7415 131.736 29.8384 131.938 30.0321C132.14 30.2239 132.24 30.5317 132.24 30.9556V33.1206H131.738Z" fill="white"/>
<path d="M133.919 31.9003H133.601L133.447 28.6938H134.074L133.919 31.9003ZM133.393 32.7996C133.393 32.5251 133.514 32.3878 133.756 32.3878C133.873 32.3878 133.963 32.4232 134.025 32.4938C134.09 32.5645 134.122 32.6664 134.122 32.7996C134.122 32.9288 134.09 33.0297 134.025 33.1024C133.961 33.1731 133.871 33.2084 133.756 33.2084C133.651 33.2084 133.564 33.1771 133.495 33.1145C133.427 33.0499 133.393 32.945 133.393 32.7996Z" fill="white"/>
<path fill-rule="evenodd" clip-rule="evenodd" d="M125.898 3.42746C123.69 3.43007 121.569 4.28741 119.979 5.81972C118.39 7.35202 117.455 9.44029 117.371 11.6467L117.664 11.9398L118.926 13.2018L120.512 10.4551L121.031 11.355L122.416 8.95654L124.129 10.6701L125.953 8.84605L125.954 8.84206L125.955 8.84605L127.779 10.6701L129.492 8.95654L130.877 11.355L131.397 10.4551L132.983 13.2018L134.244 11.9398L134.434 11.7505C134.376 9.52439 133.452 7.40874 131.858 5.85413C130.263 4.29951 128.125 3.42879 125.898 3.42746Z" fill="#D45500"/>
<path fill-rule="evenodd" clip-rule="evenodd" d="M118.331 33.9732V39.6875H119.855V33.9732H118.331ZM120.617 33.9732V39.6875H121.379V33.9732H120.617ZM122.141 33.9732V39.6875H122.522V33.9732H122.141ZM123.284 33.9732V39.6875H124.046V33.9732H123.284ZM125.189 33.9732V39.6875H125.95V33.9732H125.189ZM126.712 33.9732V39.6875H128.236V33.9732H126.712ZM129.379 33.9732V39.6875H129.76V33.9732H129.379ZM130.522 33.9732V39.6875H132.046V33.9732H130.522ZM132.808 33.9732V39.6875H133.57V33.9732H132.808Z" fill="white"/>
<path d="M42.0001 4.00002L0.506897 4.25391L0.555502 12.1975L42.0487 11.9437L42.0001 4.00002Z" fill="#00CCFF"/>
<path d="M55.9562 11.6025L1.00198 11.8904L1.04597 20.2879L56.0002 20L55.9562 11.6025Z" fill="#FF0066"/>
<path d="M5.24102 5.73797V9.06335C5.23878 9.52464 5.09322 9.90197 4.80435 10.1953C4.51772 10.4887 4.12808 10.6533 3.63543 10.6891L3.46412 10.6958C2.92893 10.6958 2.50234 10.5514 2.18435 10.2625C1.86637 9.97363 1.70514 9.57615 1.70066 9.07006V5.73797H2.33887V9.04991C2.33887 9.40372 2.43628 9.67916 2.6311 9.87622C2.82592 10.071 3.10359 10.1684 3.46412 10.1684C3.82913 10.1684 4.10792 10.071 4.3005 9.87622C4.49532 9.6814 4.59273 9.40708 4.59273 9.05327V5.73797H5.24102ZM6.74919 6.99422L6.76935 7.45104C7.04702 7.10171 7.40979 6.92704 7.85765 6.92704C8.62574 6.92704 9.01314 7.36035 9.01985 8.22696V10.6286H8.39845V8.2236C8.39621 7.9616 8.33574 7.7679 8.21706 7.6425C8.10062 7.5171 7.91811 7.4544 7.66955 7.4544C7.46801 7.4544 7.29111 7.50814 7.13883 7.61563C6.98656 7.72312 6.86788 7.86419 6.78278 8.03886V10.6286H6.16137V6.99422H6.74919ZM12.2008 10.6286C12.165 10.557 12.1359 10.4293 12.1135 10.2457C11.8246 10.5458 11.4797 10.6958 11.0789 10.6958C10.7206 10.6958 10.4261 10.595 10.1955 10.3935C9.96708 10.1897 9.85288 9.9322 9.85288 9.62093C9.85288 9.24249 9.99619 8.94914 10.2828 8.74089C10.5717 8.53039 10.977 8.42514 11.4988 8.42514H12.1034V8.13963C12.1034 7.92242 12.0384 7.74999 11.9086 7.62235C11.7787 7.49247 11.5872 7.42753 11.3342 7.42753C11.1125 7.42753 10.9266 7.48351 10.7766 7.59548C10.6266 7.70744 10.5515 7.84292 10.5515 8.00191H9.92678C9.92678 7.82053 9.9906 7.64586 10.1182 7.47791C10.2481 7.30773 10.4228 7.17337 10.6422 7.07484C10.8639 6.97631 11.1069 6.92704 11.3711 6.92704C11.7899 6.92704 12.1179 7.03229 12.3553 7.24279C12.5927 7.45104 12.7158 7.73879 12.7248 8.10604V9.77881C12.7248 10.1125 12.7673 10.3778 12.8524 10.5749V10.6286H12.2008ZM11.1696 10.155C11.3644 10.155 11.5492 10.1046 11.7238 10.0039C11.8985 9.90309 12.025 9.77209 12.1034 9.61086V8.86517H11.6163C10.855 8.86517 10.4743 9.08798 10.4743 9.5336C10.4743 9.72842 10.5392 9.88069 10.6691 9.99042C10.799 10.1001 10.9658 10.155 11.1696 10.155ZM16.7757 8.85173C16.7757 9.40708 16.6481 9.85382 16.3928 10.192C16.1375 10.5279 15.7949 10.6958 15.3649 10.6958C14.9059 10.6958 14.551 10.5335 14.3002 10.2088L14.2699 10.6286H13.6989V5.46925H14.3203V7.39394C14.5711 7.08267 14.9171 6.92704 15.3582 6.92704C15.7994 6.92704 16.1453 7.09387 16.3961 7.42753C16.6492 7.76119 16.7757 8.21801 16.7757 8.79799V8.85173ZM16.1543 8.78119C16.1543 8.35796 16.0726 8.03102 15.9091 7.80037C15.7456 7.56973 15.5105 7.4544 15.2037 7.4544C14.7939 7.4544 14.4995 7.64474 14.3203 8.02543V9.59742C14.5106 9.97811 14.8074 10.1684 15.2104 10.1684C15.5083 10.1684 15.74 10.0531 15.9057 9.82247C16.0714 9.59182 16.1543 9.24473 16.1543 8.78119ZM18.1831 7.43425C18.4586 7.09611 18.8168 6.92704 19.258 6.92704C20.0261 6.92704 20.4135 7.36035 20.4202 8.22696V10.6286H19.7988V8.2236C19.7965 7.9616 19.7361 7.7679 19.6174 7.6425C19.501 7.5171 19.3184 7.4544 19.0699 7.4544C18.8683 7.4544 18.6914 7.50814 18.5392 7.61563C18.3869 7.72312 18.2682 7.86419 18.1831 8.03886V10.6286H17.5617V5.46925H18.1831V7.43425ZM23.5944 10.6286C23.5586 10.557 23.5295 10.4293 23.5071 10.2457C23.2182 10.5458 22.8734 10.6958 22.4725 10.6958C22.1142 10.6958 21.8198 10.595 21.5891 10.3935C21.3607 10.1897 21.2465 9.9322 21.2465 9.62093C21.2465 9.24249 21.3898 8.94914 21.6764 8.74089C21.9653 8.53039 22.3706 8.42514 22.8924 8.42514H23.497V8.13963C23.497 7.92242 23.4321 7.74999 23.3022 7.62235C23.1723 7.49247 22.9808 7.42753 22.7278 7.42753C22.5061 7.42753 22.3202 7.48351 22.1702 7.59548C22.0202 7.70744 21.9452 7.84292 21.9452 8.00191H21.3204C21.3204 7.82053 21.3842 7.64586 21.5119 7.47791C21.6417 7.30773 21.8164 7.17337 22.0359 7.07484C22.2575 6.97631 22.5005 6.92704 22.7648 6.92704C23.1835 6.92704 23.5116 7.03229 23.7489 7.24279C23.9863 7.45104 24.1095 7.73879 24.1184 8.10604V9.77881C24.1184 10.1125 24.161 10.3778 24.2461 10.5749V10.6286H23.5944ZM22.5632 10.155C22.758 10.155 22.9428 10.1046 23.1174 10.0039C23.2921 9.90309 23.4186 9.77209 23.497 9.61086V8.86517H23.01C22.2486 8.86517 21.8679 9.08798 21.8679 9.5336C21.8679 9.72842 21.9328 9.88069 22.0627 9.99042C22.1926 10.1001 22.3594 10.155 22.5632 10.155ZM21.7503 6.02348C21.7503 5.92271 21.7806 5.83874 21.841 5.77156C21.9037 5.70214 21.9955 5.66743 22.1165 5.66743C22.2374 5.66743 22.3292 5.70214 22.3919 5.77156C22.4546 5.83874 22.486 5.92271 22.486 6.02348C22.486 6.12425 22.4546 6.20822 22.3919 6.2754C22.3292 6.34258 22.2374 6.37617 22.1165 6.37617C21.9955 6.37617 21.9037 6.34258 21.841 6.2754C21.7806 6.20822 21.7503 6.12425 21.7503 6.02348ZM23.1947 6.0302C23.1947 5.92943 23.2249 5.84434 23.2854 5.77492C23.3481 5.7055 23.4399 5.67079 23.5608 5.67079C23.6817 5.67079 23.7736 5.7055 23.8363 5.77492C23.899 5.84434 23.9303 5.92943 23.9303 6.0302C23.9303 6.13097 23.899 6.21494 23.8363 6.28212C23.7736 6.3493 23.6817 6.38289 23.5608 6.38289C23.4399 6.38289 23.3481 6.3493 23.2854 6.28212C23.2249 6.21494 23.1947 6.13097 23.1947 6.0302ZM25.6803 6.99422L25.7005 7.45104C25.9782 7.10171 26.3409 6.92704 26.7888 6.92704C27.5569 6.92704 27.9443 7.36035 27.951 8.22696V10.6286H27.3296V8.2236C27.3273 7.9616 27.2669 7.7679 27.1482 7.6425C27.0318 7.5171 26.8493 7.4544 26.6007 7.4544C26.3992 7.4544 26.2222 7.50814 26.07 7.61563C25.9177 7.72312 25.799 7.86419 25.7139 8.03886V10.6286H25.0925V6.99422H25.6803ZM28.7404 8.78119C28.7404 8.21465 28.8714 7.76455 29.1334 7.43089C29.3954 7.09499 29.7424 6.92704 30.1746 6.92704C30.618 6.92704 30.964 7.08379 31.2126 7.3973L31.2428 6.99422H31.8105V10.5413C31.8105 11.0115 31.6705 11.3822 31.3906 11.6531C31.1129 11.9241 30.7389 12.0595 30.2687 12.0595C30.0067 12.0595 29.7503 12.0036 29.4995 11.8916C29.2487 11.7796 29.0572 11.6262 28.9251 11.4314L29.2476 11.0586C29.514 11.3878 29.8399 11.5523 30.225 11.5523C30.5273 11.5523 30.7625 11.4672 30.9304 11.2971C31.1006 11.1269 31.1857 10.8873 31.1857 10.5782V10.2659C30.9371 10.5525 30.5979 10.6958 30.1679 10.6958C29.7424 10.6958 29.3976 10.5245 29.1334 10.1819C28.8714 9.83927 28.7404 9.37237 28.7404 8.78119ZM29.3651 8.85173C29.3651 9.26153 29.4491 9.58399 29.617 9.81911C29.785 10.052 30.0201 10.1684 30.3224 10.1684C30.7143 10.1684 31.0021 9.99042 31.1857 9.63437V7.97504C30.9953 7.62795 30.7098 7.4544 30.3291 7.4544C30.0268 7.4544 29.7906 7.57196 29.6204 7.80709C29.4502 8.04222 29.3651 8.39043 29.3651 8.85173ZM33.4261 10.6286H32.8047V6.99422H33.4261V10.6286ZM32.7543 6.0302C32.7543 5.92943 32.7846 5.84434 32.845 5.77492C32.9077 5.7055 32.9995 5.67079 33.1204 5.67079C33.2414 5.67079 33.3332 5.7055 33.3959 5.77492C33.4586 5.84434 33.4899 5.92943 33.4899 6.0302C33.4899 6.13097 33.4586 6.21494 33.3959 6.28212C33.3332 6.3493 33.2414 6.38289 33.1204 6.38289C32.9995 6.38289 32.9077 6.3493 32.845 6.28212C32.7846 6.21494 32.7543 6.13097 32.7543 6.0302ZM34.2759 8.78119C34.2759 8.21465 34.4069 7.76455 34.6689 7.43089C34.9309 7.09499 35.278 6.92704 35.7102 6.92704C36.1536 6.92704 36.4996 7.08379 36.7481 7.3973L36.7784 6.99422H37.346V10.5413C37.346 11.0115 37.2061 11.3822 36.9262 11.6531C36.6485 11.9241 36.2745 12.0595 35.8043 12.0595C35.5423 12.0595 35.2859 12.0036 35.0351 11.8916C34.7843 11.7796 34.5928 11.6262 34.4607 11.4314L34.7831 11.0586C35.0496 11.3878 35.3754 11.5523 35.7606 11.5523C36.0629 11.5523 36.298 11.4672 36.466 11.2971C36.6362 11.1269 36.7213 10.8873 36.7213 10.5782V10.2659C36.4727 10.5525 36.1334 10.6958 35.7035 10.6958C35.278 10.6958 34.9332 10.5245 34.6689 10.1819C34.4069 9.83927 34.2759 9.37237 34.2759 8.78119ZM34.9007 8.85173C34.9007 9.26153 34.9847 9.58399 35.1526 9.81911C35.3206 10.052 35.5557 10.1684 35.858 10.1684C36.2499 10.1684 36.5376 9.99042 36.7213 9.63437V7.97504C36.5309 7.62795 36.2454 7.4544 35.8647 7.4544C35.5624 7.4544 35.3262 7.57196 35.156 7.80709C34.9858 8.04222 34.9007 8.39043 34.9007 8.85173ZM39.7947 10.6958C39.3021 10.6958 38.9012 10.5346 38.5922 10.2121C38.2832 9.88741 38.1287 9.45411 38.1287 8.91219V8.79799C38.1287 8.43746 38.197 8.11612 38.3336 7.83396C38.4724 7.54957 38.665 7.32788 38.9113 7.16889C39.1599 7.00766 39.4286 6.92704 39.7175 6.92704C40.19 6.92704 40.5572 7.08267 40.8192 7.39394C41.0812 7.7052 41.2122 8.15083 41.2122 8.73081V8.98945H38.7501C38.759 9.34774 38.8632 9.63773 39.0625 9.85942C39.264 10.0789 39.5193 10.1886 39.8283 10.1886C40.0478 10.1886 40.2336 10.1438 40.3859 10.0542C40.5382 9.96467 40.6714 9.84599 40.7856 9.69819L41.1652 9.99378C40.8606 10.4618 40.4038 10.6958 39.7947 10.6958ZM39.7175 7.43761C39.4667 7.43761 39.2562 7.52942 39.086 7.71304C38.9158 7.89443 38.8105 8.14971 38.7702 8.47889H40.5908V8.43186C40.5729 8.11612 40.4878 7.87203 40.3355 7.69961C40.1832 7.52494 39.9772 7.43761 39.7175 7.43761ZM45.8845 10.2692C45.6427 10.5536 45.2878 10.6958 44.8197 10.6958C44.4323 10.6958 44.1367 10.5838 43.933 10.3599C43.7314 10.1337 43.6295 9.80008 43.6273 9.35894V6.99422H44.2487V9.34214C44.2487 9.89301 44.4726 10.1684 44.9205 10.1684C45.3952 10.1684 45.711 9.99154 45.8677 9.63773V6.99422H46.4891V10.6286H45.898L45.8845 10.2692ZM48.0242 6.99422L48.0443 7.45104C48.322 7.10171 48.6848 6.92704 49.1326 6.92704C49.9007 6.92704 50.2881 7.36035 50.2949 8.22696V10.6286H49.6734V8.2236C49.6712 7.9616 49.6107 7.7679 49.4921 7.6425C49.3756 7.5171 49.1931 7.4544 48.9445 7.4544C48.743 7.4544 48.5661 7.50814 48.4138 7.61563C48.2616 7.72312 48.1429 7.86419 48.0578 8.03886V10.6286H47.4364V6.99422H48.0242ZM51.0809 8.78119C51.0809 8.2236 51.213 7.77574 51.4772 7.43761C51.7414 7.09723 52.0874 6.92704 52.5151 6.92704C52.9406 6.92704 53.2776 7.0726 53.5262 7.36371V5.46925H54.1476V10.6286H53.5766L53.5463 10.239C53.2978 10.5435 52.9518 10.6958 52.5084 10.6958C52.0874 10.6958 51.7437 10.5234 51.4772 10.1785C51.213 9.83367 51.0809 9.38357 51.0809 8.82822V8.78119ZM51.7023 8.85173C51.7023 9.26376 51.7874 9.58623 51.9575 9.81911C52.1277 10.052 52.3629 10.1684 52.6629 10.1684C53.057 10.1684 53.3448 9.99154 53.5262 9.63773V7.96832C53.3403 7.62571 53.0548 7.4544 52.6696 7.4544C52.3651 7.4544 52.1277 7.57196 51.9575 7.80709C51.7874 8.04222 51.7023 8.39043 51.7023 8.85173ZM1.55287 16.7187C1.55287 16.1521 1.68387 15.702 1.94587 15.3684C2.20787 15.0325 2.55496 14.8645 2.98715 14.8645C3.43053 14.8645 3.77651 15.0213 4.02507 15.3348L4.0553 14.9317H4.62297V18.4788C4.62297 18.949 4.48301 19.3197 4.20309 19.5906C3.92542 19.8616 3.55145 19.997 3.0812 19.997C2.8192 19.997 2.5628 19.9411 2.312 19.8291C2.06119 19.7171 1.86973 19.5637 1.73761 19.3689L2.06007 18.9961C2.32655 19.3253 2.65237 19.4898 3.03753 19.4898C3.33984 19.4898 3.57497 19.4047 3.74292 19.2346C3.9131 19.0644 3.9982 18.8248 3.9982 18.5157V18.2034C3.74963 18.49 3.41038 18.6333 2.98043 18.6333C2.55496 18.6333 2.21011 18.462 1.94587 18.1194C1.68387 17.7768 1.55287 17.3099 1.55287 16.7187ZM2.17764 16.7892C2.17764 17.199 2.26161 17.5215 2.42956 17.7566C2.59751 17.9895 2.83264 18.1059 3.13494 18.1059C3.52682 18.1059 3.81457 17.9279 3.9982 17.5719V15.9125C3.80786 15.5654 3.52234 15.3919 3.14166 15.3919C2.83935 15.3919 2.60311 15.5095 2.43292 15.7446C2.26273 15.9797 2.17764 16.3279 2.17764 16.7892ZM7.07165 18.6333C6.579 18.6333 6.17817 18.4721 5.86914 18.1496C5.56012 17.8249 5.4056 17.3916 5.4056 16.8497V16.7355C5.4056 16.375 5.4739 16.0536 5.6105 15.7715C5.74934 15.4871 5.94192 15.2654 6.18824 15.1064C6.43681 14.9452 6.70553 14.8645 6.9944 14.8645C7.46689 14.8645 7.83414 15.0202 8.09614 15.3314C8.35814 15.6427 8.48914 16.0883 8.48914 16.6683V16.9269H6.02701C6.03597 17.2852 6.1401 17.5752 6.3394 17.7969C6.54094 18.0164 6.79622 18.1261 7.10524 18.1261C7.3247 18.1261 7.51056 18.0813 7.66283 17.9917C7.8151 17.9022 7.94834 17.7835 8.06255 17.6357L8.44211 17.9313C8.13757 18.3993 7.68075 18.6333 7.07165 18.6333ZM6.9944 15.3751C6.74359 15.3751 6.5331 15.4669 6.36291 15.6505C6.19272 15.8319 6.08748 16.0872 6.04717 16.4164H7.86773V16.3694C7.84981 16.0536 7.76472 15.8095 7.61245 15.6371C7.46017 15.4624 7.25416 15.3751 6.9944 15.3751ZM9.79578 14.9317L9.81257 15.3348C10.079 15.0213 10.4385 14.8645 10.8908 14.8645C11.3991 14.8645 11.7451 15.0594 11.9287 15.449C12.0496 15.2743 12.2064 15.1333 12.399 15.0258C12.5938 14.9183 12.8233 14.8645 13.0876 14.8645C13.8848 14.8645 14.2901 15.2867 14.3035 16.1309V18.5661H13.6821V16.1678C13.6821 15.9081 13.6228 15.7144 13.5041 15.5867C13.3854 15.4568 13.1861 15.3919 12.9062 15.3919C12.6755 15.3919 12.4841 15.4613 12.3318 15.6002C12.1795 15.7368 12.0911 15.9215 12.0664 16.1544V18.5661H11.4417V16.1846C11.4417 15.6561 11.183 15.3919 10.6657 15.3919C10.2582 15.3919 9.9794 15.5654 9.82937 15.9125V18.5661H9.20796V14.9317H9.79578ZM16.7522 18.6333C16.2595 18.6333 15.8587 18.4721 15.5497 18.1496C15.2407 17.8249 15.0862 17.3916 15.0862 16.8497V16.7355C15.0862 16.375 15.1544 16.0536 15.291 15.7715C15.4299 15.4871 15.6225 15.2654 15.8688 15.1064C16.1174 14.9452 16.3861 14.8645 16.6749 14.8645C17.1474 14.8645 17.5147 15.0202 17.7767 15.3314C18.0387 15.6427 18.1697 16.0883 18.1697 16.6683V16.9269H15.7076C15.7165 17.2852 15.8206 17.5752 16.0199 17.7969C16.2215 18.0164 16.4768 18.1261 16.7858 18.1261C17.0052 18.1261 17.1911 18.0813 17.3434 17.9917C17.4957 17.9022 17.6289 17.7835 17.7431 17.6357L18.1227 17.9313C17.8181 18.3993 17.3613 18.6333 16.7522 18.6333ZM16.6749 15.3751C16.4241 15.3751 16.2136 15.4669 16.0435 15.6505C15.8733 15.8319 15.768 16.0872 15.7277 16.4164H17.5483V16.3694C17.5304 16.0536 17.4453 15.8095 17.293 15.6371C17.1407 15.4624 16.9347 15.3751 16.6749 15.3751ZM19.567 18.5661H18.9456V14.9317H19.567V18.5661ZM18.8952 13.9677C18.8952 13.8669 18.9255 13.7818 18.9859 13.7124C19.0486 13.643 19.1404 13.6083 19.2613 13.6083C19.3823 13.6083 19.4741 13.643 19.5368 13.7124C19.5995 13.7818 19.6308 13.8669 19.6308 13.9677C19.6308 14.0685 19.5995 14.1524 19.5368 14.2196C19.4741 14.2868 19.3823 14.3204 19.2613 14.3204C19.1404 14.3204 19.0486 14.2868 18.9859 14.2196C18.9255 14.1524 18.8952 14.0685 18.8952 13.9677ZM21.1524 14.9317L21.1726 15.3885C21.4503 15.0392 21.813 14.8645 22.2609 14.8645C23.029 14.8645 23.4164 15.2978 23.4231 16.1645V18.5661H22.8017V16.1611C22.7995 15.8991 22.739 15.7054 22.6203 15.58C22.5039 15.4546 22.3214 15.3919 22.0728 15.3919C21.8713 15.3919 21.6944 15.4456 21.5421 15.5531C21.3898 15.6606 21.2711 15.8017 21.186 15.9764V18.5661H20.5646V14.9317H21.1524ZM26.4764 17.6021C26.4764 17.4342 26.4126 17.3043 26.2849 17.2125C26.1595 17.1184 25.939 17.0378 25.6232 16.9706C25.3097 16.9034 25.06 16.8228 24.8742 16.7288C24.6906 16.6347 24.554 16.5228 24.4644 16.3929C24.3771 16.263 24.3334 16.1085 24.3334 15.9293C24.3334 15.6315 24.4588 15.3796 24.7096 15.1736C24.9626 14.9676 25.2851 14.8645 25.677 14.8645C26.089 14.8645 26.4227 14.9709 26.6779 15.1836C26.9355 15.3964 27.0642 15.6685 27.0642 15.9999H26.4395C26.4395 15.8297 26.3667 15.683 26.2211 15.5598C26.0778 15.4367 25.8964 15.3751 25.677 15.3751C25.4508 15.3751 25.2739 15.4244 25.1463 15.5229C25.0186 15.6214 24.9548 15.7502 24.9548 15.9092C24.9548 16.0592 25.0141 16.1723 25.1328 16.2484C25.2515 16.3246 25.4654 16.3974 25.7744 16.4668C26.0857 16.5362 26.3376 16.619 26.5302 16.7153C26.7227 16.8116 26.8649 16.9281 26.9567 17.0647C27.0508 17.199 27.0978 17.3636 27.0978 17.5584C27.0978 17.8831 26.9679 18.144 26.7082 18.3411C26.4484 18.5359 26.1114 18.6333 25.6971 18.6333C25.406 18.6333 25.1485 18.5818 24.9246 18.4788C24.7006 18.3758 24.5249 18.2325 24.3972 18.0488C24.2718 17.863 24.2091 17.6626 24.2091 17.4476H24.8305C24.8417 17.6558 24.9246 17.8216 25.0791 17.9447C25.2358 18.0656 25.4418 18.1261 25.6971 18.1261C25.9323 18.1261 26.1204 18.0791 26.2614 17.985C26.4048 17.8887 26.4764 17.7611 26.4764 17.6021ZM29.3651 18.1261C29.5868 18.1261 29.7805 18.0589 29.9462 17.9246C30.1119 17.7902 30.2037 17.6223 30.2217 17.4207H30.8095C30.7983 17.629 30.7266 17.8272 30.5945 18.0153C30.4624 18.2034 30.2855 18.3534 30.0638 18.4654C29.8443 18.5773 29.6114 18.6333 29.3651 18.6333C28.8702 18.6333 28.4761 18.4687 28.1828 18.1395C27.8917 17.8081 27.7461 17.3558 27.7461 16.7825V16.6784C27.7461 16.3246 27.811 16.01 27.9409 15.7345C28.0708 15.4591 28.2567 15.2452 28.4985 15.093C28.7426 14.9407 29.0303 14.8645 29.3618 14.8645C29.7693 14.8645 30.1075 14.9866 30.3762 15.2307C30.6471 15.4748 30.7916 15.7916 30.8095 16.1813H30.2217C30.2037 15.9461 30.1142 15.7535 29.9529 15.6035C29.794 15.4512 29.5969 15.3751 29.3618 15.3751C29.046 15.3751 28.8008 15.4893 28.6262 15.7177C28.4537 15.9439 28.3675 16.2719 28.3675 16.7019V16.8195C28.3675 17.2382 28.4537 17.5607 28.6262 17.7868C28.7986 18.013 29.0449 18.1261 29.3651 18.1261ZM32.1296 15.3717C32.405 15.0336 32.7633 14.8645 33.2044 14.8645C33.9725 14.8645 34.3599 15.2978 34.3666 16.1645V18.5661H33.7452V16.1611C33.743 15.8991 33.6825 15.7054 33.5638 15.58C33.4474 15.4546 33.2649 15.3919 33.0163 15.3919C32.8148 15.3919 32.6379 15.4456 32.4856 15.5531C32.3333 15.6606 32.2146 15.8017 32.1296 15.9764V18.5661H31.5081V13.4068H32.1296V15.3717ZM37.5409 18.5661C37.505 18.4945 37.4759 18.3668 37.4535 18.1832C37.1646 18.4833 36.8198 18.6333 36.419 18.6333C36.0607 18.6333 35.7662 18.5325 35.5355 18.331C35.3071 18.1272 35.1929 17.8697 35.1929 17.5584C35.1929 17.18 35.3362 16.8866 35.6229 16.6784C35.9118 16.4679 36.3171 16.3626 36.8388 16.3626H37.4434V16.0771C37.4434 15.8599 37.3785 15.6875 37.2486 15.5598C37.1187 15.43 36.9273 15.365 36.6742 15.365C36.4525 15.365 36.2667 15.421 36.1166 15.533C35.9666 15.6449 35.8916 15.7804 35.8916 15.9394H35.2668C35.2668 15.758 35.3307 15.5834 35.4583 15.4154C35.5882 15.2452 35.7628 15.1109 35.9823 15.0123C36.204 14.9138 36.4469 14.8645 36.7112 14.8645C37.1299 14.8645 37.458 14.9698 37.6954 15.1803C37.9327 15.3885 38.0559 15.6763 38.0648 16.0435V17.7163C38.0648 18.05 38.1074 18.3153 38.1925 18.5124V18.5661H37.5409ZM36.5096 18.0925C36.7045 18.0925 36.8892 18.0421 37.0639 17.9414C37.2385 17.8406 37.3651 17.7096 37.4434 17.5484V16.8027H36.9564C36.195 16.8027 35.8143 17.0255 35.8143 17.4711C35.8143 17.6659 35.8793 17.8182 36.0092 17.9279C36.139 18.0376 36.3059 18.0925 36.5096 18.0925ZM39.3446 18.5661V15.4121H38.7702V14.9317H39.3446V14.5589C39.3446 14.1692 39.4487 13.868 39.657 13.6553C39.8653 13.4426 40.1597 13.3362 40.5404 13.3362C40.6837 13.3362 40.8259 13.3552 40.967 13.3933L40.9334 13.8972C40.8282 13.877 40.7162 13.8669 40.5975 13.8669C40.396 13.8669 40.2403 13.9263 40.1306 14.045C40.0209 14.1614 39.966 14.3293 39.966 14.5488V14.9317H40.7419V15.4121H39.966V18.5661H39.3446ZM42.2736 14.0517V14.9317H42.9521V15.4121H42.2736V17.6659C42.2736 17.8115 42.3039 17.9212 42.3643 17.9951C42.4248 18.0668 42.5278 18.1026 42.6734 18.1026C42.745 18.1026 42.8435 18.0892 42.9689 18.0623V18.5661C42.8055 18.6109 42.6465 18.6333 42.492 18.6333C42.2143 18.6333 42.0049 18.5493 41.8638 18.3814C41.7228 18.2134 41.6522 17.9749 41.6522 17.6659V15.4121H40.9905V14.9317H41.6522V14.0517H42.2736ZM44.3562 18.5661H43.7348V13.4068H44.3562V18.5661ZM46.029 18.5661H45.4076V14.9317H46.029V18.5661ZM45.3572 13.9677C45.3572 13.8669 45.3874 13.7818 45.4479 13.7124C45.5106 13.643 45.6024 13.6083 45.7233 13.6083C45.8442 13.6083 45.936 13.643 45.9987 13.7124C46.0614 13.7818 46.0928 13.8669 46.0928 13.9677C46.0928 14.0685 46.0614 14.1524 45.9987 14.2196C45.936 14.2868 45.8442 14.3204 45.7233 14.3204C45.6024 14.3204 45.5106 14.2868 45.4479 14.2196C45.3874 14.1524 45.3572 14.0685 45.3572 13.9677ZM48.4844 18.1261C48.7061 18.1261 48.8998 18.0589 49.0655 17.9246C49.2312 17.7902 49.323 17.6223 49.3409 17.4207H49.9287C49.9175 17.629 49.8459 17.8272 49.7138 18.0153C49.5816 18.2034 49.4047 18.3534 49.183 18.4654C48.9636 18.5773 48.7307 18.6333 48.4844 18.6333C47.9895 18.6333 47.5954 18.4687 47.302 18.1395C47.0109 17.8081 46.8653 17.3558 46.8653 16.7825V16.6784C46.8653 16.3246 46.9303 16.01 47.0602 15.7345C47.19 15.4591 47.3759 15.2452 47.6178 15.093C47.8618 14.9407 48.1496 14.8645 48.481 14.8645C48.8886 14.8645 49.2267 14.9866 49.4954 15.2307C49.7664 15.4748 49.9108 15.7916 49.9287 16.1813H49.3409C49.323 15.9461 49.2334 15.7535 49.0722 15.6035C48.9132 15.4512 48.7161 15.3751 48.481 15.3751C48.1653 15.3751 47.9201 15.4893 47.7454 15.7177C47.573 15.9439 47.4868 16.2719 47.4868 16.7019V16.8195C47.4868 17.2382 47.573 17.5607 47.7454 17.7868C47.9178 18.013 48.1641 18.1261 48.4844 18.1261ZM51.2488 15.3717C51.5242 15.0336 51.8825 14.8645 52.3237 14.8645C53.0918 14.8645 53.4792 15.2978 53.4859 16.1645V18.5661H52.8645V16.1611C52.8622 15.8991 52.8018 15.7054 52.6831 15.58C52.5666 15.4546 52.3841 15.3919 52.1356 15.3919C51.934 15.3919 51.7571 15.4456 51.6048 15.5531C51.4526 15.6606 51.3339 15.8017 51.2488 15.9764V18.5661H50.6274V13.4068H51.2488V15.3717ZM1.55287 24.6562C1.55287 24.0896 1.68387 23.6395 1.94587 23.3059C2.20787 22.97 2.55496 22.802 2.98715 22.802C3.43053 22.802 3.77651 22.9588 4.02507 23.2723L4.0553 22.8692H4.62297V26.4163C4.62297 26.8865 4.48301 27.2572 4.20309 27.5281C3.92542 27.7991 3.55145 27.9345 3.0812 27.9345C2.8192 27.9345 2.5628 27.8786 2.312 27.7666C2.06119 27.6546 1.86973 27.5012 1.73761 27.3064L2.06007 26.9336C2.32655 27.2628 2.65237 27.4273 3.03753 27.4273C3.33984 27.4273 3.57497 27.3422 3.74292 27.1721C3.9131 27.0019 3.9982 26.7623 3.9982 26.4532V26.1409C3.74963 26.4275 3.41038 26.5708 2.98043 26.5708C2.55496 26.5708 2.21011 26.3995 1.94587 26.0569C1.68387 25.7143 1.55287 25.2474 1.55287 24.6562ZM2.17764 24.7267C2.17764 25.1365 2.26161 25.459 2.42956 25.6941C2.59751 25.927 2.83264 26.0434 3.13494 26.0434C3.52682 26.0434 3.81457 25.8654 3.9982 25.5094V23.85C3.80786 23.5029 3.52234 23.3294 3.14166 23.3294C2.83935 23.3294 2.60311 23.447 2.43292 23.6821C2.26273 23.9172 2.17764 24.2654 2.17764 24.7267ZM7.07165 26.5708C6.579 26.5708 6.17817 26.4096 5.86914 26.0871C5.56012 25.7624 5.4056 25.3291 5.4056 24.7872V24.673C5.4056 24.3125 5.4739 23.9911 5.6105 23.709C5.74934 23.4246 5.94192 23.2029 6.18824 23.0439C6.43681 22.8827 6.70553 22.802 6.9944 22.802C7.46689 22.802 7.83414 22.9577 8.09614 23.2689C8.35814 23.5802 8.48914 24.0258 8.48914 24.6058V24.8644H6.02701C6.03597 25.2227 6.1401 25.5127 6.3394 25.7344C6.54094 25.9539 6.79622 26.0636 7.10524 26.0636C7.3247 26.0636 7.51056 26.0188 7.66283 25.9292C7.8151 25.8397 7.94834 25.721 8.06255 25.5732L8.44211 25.8688C8.13757 26.3368 7.68075 26.5708 7.07165 26.5708ZM6.9944 23.3126C6.74359 23.3126 6.5331 23.4044 6.36291 23.588C6.19272 23.7694 6.08748 24.0247 6.04717 24.3539H7.86773V24.3069C7.84981 23.9911 7.76472 23.747 7.61245 23.5746C7.46017 23.3999 7.25416 23.3126 6.9944 23.3126ZM12.2814 24.7267C12.2814 25.2798 12.1549 25.7255 11.9018 26.0636C11.6488 26.4017 11.3062 26.5708 10.874 26.5708C10.4329 26.5708 10.0858 26.4308 9.83272 26.1509V27.901H9.21132V22.8692H9.77898L9.80921 23.2723C10.0623 22.9588 10.4138 22.802 10.8639 22.802C11.3006 22.802 11.6454 22.9666 11.8985 23.2958C12.1538 23.625 12.2814 24.0829 12.2814 24.6696V24.7267ZM11.66 24.6562C11.66 24.2464 11.5727 23.9228 11.398 23.6855C11.2233 23.4481 10.9837 23.3294 10.6792 23.3294C10.303 23.3294 10.0208 23.4962 9.83272 23.8299V25.5665C10.0186 25.8979 10.303 26.0636 10.6859 26.0636C10.9837 26.0636 11.22 25.946 11.3946 25.7109C11.5716 25.4735 11.66 25.122 11.66 24.6562ZM15.3448 21.8716C15.0671 21.8268 14.8432 21.8044 14.673 21.8044C14.2251 21.8044 14.0012 22.0396 14.0012 22.5098V22.8692H14.7771V23.3496H14.0012V26.5036H13.3798V23.3496H12.8054V22.8692H13.3798V22.4729C13.382 22.0855 13.4906 21.7888 13.7056 21.5827C13.9206 21.3767 14.2263 21.2737 14.6226 21.2737C14.8488 21.2737 15.2966 21.342 15.9662 21.4786V26.5036H15.3448V21.8716ZM18.4921 26.5708C17.9995 26.5708 17.5987 26.4096 17.2896 26.0871C16.9806 25.7624 16.8261 25.3291 16.8261 24.7872V24.673C16.8261 24.3125 16.8944 23.9911 17.031 23.709C17.1698 23.4246 17.3624 23.2029 17.6087 23.0439C17.8573 22.8827 18.126 22.802 18.4149 22.802C18.8874 22.802 19.2546 22.9577 19.5166 23.2689C19.7786 23.5802 19.9096 24.0258 19.9096 24.6058V24.8644H17.4475C17.4565 25.2227 17.5606 25.5127 17.7599 25.7344C17.9614 25.9539 18.2167 26.0636 18.5257 26.0636C18.7452 26.0636 18.931 26.0188 19.0833 25.9292C19.2356 25.8397 19.3688 25.721 19.483 25.5732L19.8626 25.8688C19.5581 26.3368 19.1012 26.5708 18.4921 26.5708ZM18.4149 23.3126C18.1641 23.3126 17.9536 23.4044 17.7834 23.588C17.6132 23.7694 17.508 24.0247 17.4677 24.3539H19.2882V24.3069C19.2703 23.9911 19.1852 23.747 19.0329 23.5746C18.8807 23.3999 18.6746 23.3126 18.4149 23.3126ZM20.484 24.6562C20.484 24.0896 20.615 23.6395 20.877 23.3059C21.139 22.97 21.4861 22.802 21.9183 22.802C22.3617 22.802 22.7076 22.9588 22.9562 23.2723L22.9864 22.8692H23.5541V26.4163C23.5541 26.8865 23.4142 27.2572 23.1342 27.5281C22.8566 27.7991 22.4826 27.9345 22.0123 27.9345C21.7503 27.9345 21.4939 27.8786 21.2431 27.7666C20.9923 27.6546 20.8009 27.5012 20.6688 27.3064L20.9912 26.9336C21.2577 27.2628 21.5835 27.4273 21.9687 27.4273C22.271 27.4273 22.5061 27.3422 22.6741 27.1721C22.8442 27.0019 22.9293 26.7623 22.9293 26.4532V26.1409C22.6808 26.4275 22.3415 26.5708 21.9116 26.5708C21.4861 26.5708 21.1412 26.3995 20.877 26.0569C20.615 25.7143 20.484 25.2474 20.484 24.6562ZM21.1088 24.7267C21.1088 25.1365 21.1928 25.459 21.3607 25.6941C21.5287 25.927 21.7638 26.0434 22.0661 26.0434C22.458 26.0434 22.7457 25.8654 22.9293 25.5094V23.85C22.739 23.5029 22.4535 23.3294 22.0728 23.3294C21.7705 23.3294 21.5342 23.447 21.3641 23.6821C21.1939 23.9172 21.1088 24.2654 21.1088 24.7267ZM25.3377 21.9892V22.8692H26.0162V23.3496H25.3377V25.6034C25.3377 25.749 25.368 25.8587 25.4284 25.9326C25.4889 26.0043 25.5919 26.0401 25.7374 26.0401C25.8091 26.0401 25.9076 26.0267 26.033 25.9998V26.5036C25.8696 26.5484 25.7106 26.5708 25.5561 26.5708C25.2784 26.5708 25.069 26.4868 24.9279 26.3189C24.7868 26.1509 24.7163 25.9124 24.7163 25.6034V23.3496H24.0546V22.8692H24.7163V21.9892H25.3377ZM28.2533 26.5708C27.7607 26.5708 27.3598 26.4096 27.0508 26.0871C26.7418 25.7624 26.5873 25.3291 26.5873 24.7872V24.673C26.5873 24.3125 26.6556 23.9911 26.7922 23.709C26.931 23.4246 27.1236 23.2029 27.3699 23.0439C27.6185 22.8827 27.8872 22.802 28.176 22.802C28.6485 22.802 29.0158 22.9577 29.2778 23.2689C29.5398 23.5802 29.6708 24.0258 29.6708 24.6058V24.8644H27.2087C27.2176 25.2227 27.3218 25.5127 27.521 25.7344C27.7226 25.9539 27.9779 26.0636 28.2869 26.0636C28.5063 26.0636 28.6922 26.0188 28.8445 25.9292C28.9968 25.8397 29.13 25.721 29.2442 25.5732L29.6238 25.8688C29.3192 26.3368 28.8624 26.5708 28.2533 26.5708ZM28.176 23.3126C27.9252 23.3126 27.7148 23.4044 27.5446 23.588C27.3744 23.7694 27.2691 24.0247 27.2288 24.3539H29.0494V24.3069C29.0315 23.9911 28.9464 23.747 28.7941 23.5746C28.6418 23.3999 28.4358 23.3126 28.176 23.3126ZM32.5091 25.5396C32.5091 25.3717 32.4453 25.2418 32.3177 25.15C32.1923 25.0559 31.9717 24.9753 31.6559 24.9081C31.3424 24.8409 31.0928 24.7603 30.9069 24.6663C30.7233 24.5722 30.5867 24.4603 30.4971 24.3304C30.4098 24.2005 30.3661 24.046 30.3661 23.8668C30.3661 23.569 30.4915 23.3171 30.7423 23.1111C30.9953 22.9051 31.3178 22.802 31.7097 22.802C32.1217 22.802 32.4554 22.9084 32.7107 23.1211C32.9682 23.3339 33.0969 23.606 33.0969 23.9374H32.4722C32.4722 23.7672 32.3994 23.6205 32.2538 23.4973C32.1105 23.3742 31.9291 23.3126 31.7097 23.3126C31.4835 23.3126 31.3066 23.3619 31.179 23.4604C31.0513 23.5589 30.9875 23.6877 30.9875 23.8467C30.9875 23.9967 31.0468 24.1098 31.1655 24.1859C31.2842 24.2621 31.4981 24.3349 31.8071 24.4043C32.1184 24.4737 32.3703 24.5565 32.5629 24.6528C32.7554 24.7491 32.8976 24.8656 32.9894 25.0022C33.0835 25.1365 33.1305 25.3011 33.1305 25.4959C33.1305 25.8206 33.0006 26.0815 32.7409 26.2786C32.4811 26.4734 32.1441 26.5708 31.7298 26.5708C31.4387 26.5708 31.1812 26.5193 30.9573 26.4163C30.7333 26.3133 30.5576 26.17 30.4299 25.9863C30.3045 25.8005 30.2418 25.6001 30.2418 25.3851H30.8632C30.8744 25.5933 30.9573 25.7591 31.1118 25.8822C31.2685 26.0031 31.4746 26.0636 31.7298 26.0636C31.965 26.0636 32.1531 26.0166 32.2941 25.9225C32.4375 25.8262 32.5091 25.6986 32.5091 25.5396ZM37.3628 25.6471L38.7602 21.613H39.4655L37.6517 26.5036H37.0807L35.2702 21.613H35.9722L37.3628 25.6471ZM41.3869 26.5708C40.8942 26.5708 40.4934 26.4096 40.1844 26.0871C39.8753 25.7624 39.7208 25.3291 39.7208 24.7872V24.673C39.7208 24.3125 39.7891 23.9911 39.9257 23.709C40.0646 23.4246 40.2571 23.2029 40.5035 23.0439C40.752 22.8827 41.0207 22.802 41.3096 22.802C41.7821 22.802 42.1494 22.9577 42.4114 23.2689C42.6734 23.5802 42.8044 24.0258 42.8044 24.6058V24.8644H40.3422C40.3512 25.2227 40.4553 25.5127 40.6546 25.7344C40.8562 25.9539 41.1114 26.0636 41.4205 26.0636C41.6399 26.0636 41.8258 26.0188 41.978 25.9292C42.1303 25.8397 42.2636 25.721 42.3778 25.5732L42.7573 25.8688C42.4528 26.3368 41.996 26.5708 41.3869 26.5708ZM41.3096 23.3126C41.0588 23.3126 40.8483 23.4044 40.6781 23.588C40.5079 23.7694 40.4027 24.0247 40.3624 24.3539H42.1829V24.3069C42.165 23.9911 42.0799 23.747 41.9277 23.5746C41.7754 23.3999 41.5694 23.3126 41.3096 23.3126ZM45.2833 23.4268C45.1892 23.4111 45.0873 23.4033 44.9776 23.4033C44.5701 23.4033 44.2935 23.5768 44.1479 23.9239V26.5036H43.5265V22.8692H44.1311L44.1412 23.2891C44.345 22.9644 44.6339 22.802 45.0078 22.802C45.1288 22.802 45.2206 22.8177 45.2833 22.8491V23.4268ZM46.4421 25.9964H48.5683V26.5036H45.683V26.0468L47.6883 23.3831H45.7132V22.8692H48.4676V23.3092L46.4421 25.9964ZM50.7248 26.5708C50.2322 26.5708 49.8313 26.4096 49.5223 26.0871C49.2133 25.7624 49.0588 25.3291 49.0588 24.7872V24.673C49.0588 24.3125 49.1271 23.9911 49.2636 23.709C49.4025 23.4246 49.5951 23.2029 49.8414 23.0439C50.09 22.8827 50.3587 22.802 50.6475 22.802C51.12 22.802 51.4873 22.9577 51.7493 23.2689C52.0113 23.5802 52.1423 24.0258 52.1423 24.6058V24.8644H49.6802C49.6891 25.2227 49.7932 25.5127 49.9925 25.7344C50.1941 25.9539 50.4494 26.0636 50.7584 26.0636C50.9778 26.0636 51.1637 26.0188 51.316 25.9292C51.4683 25.8397 51.6015 25.721 51.7157 25.5732L52.0953 25.8688C51.7907 26.3368 51.3339 26.5708 50.7248 26.5708ZM50.6475 23.3126C50.3967 23.3126 50.1862 23.4044 50.0161 23.588C49.8459 23.7694 49.7406 24.0247 49.7003 24.3539H51.5209V24.3069C51.503 23.9911 51.4179 23.747 51.2656 23.5746C51.1133 23.3999 50.9073 23.3126 50.6475 23.3126ZM53.5396 26.5036H52.9182V22.8692H53.5396V26.5036ZM52.8678 21.9052C52.8678 21.8044 52.8981 21.7193 52.9585 21.6499C53.0212 21.5805 53.113 21.5458 53.2339 21.5458C53.3549 21.5458 53.4467 21.5805 53.5094 21.6499C53.5721 21.7193 53.6034 21.8044 53.6034 21.9052C53.6034 22.006 53.5721 22.0899 53.5094 22.1571C53.4467 22.2243 53.3549 22.2579 53.2339 22.2579C53.113 22.2579 53.0212 22.2243 52.9585 22.1571C52.8981 22.0899 52.8678 22.006 52.8678 21.9052ZM55.995 26.0636C56.2167 26.0636 56.4104 25.9964 56.5761 25.8621C56.7418 25.7277 56.8336 25.5598 56.8516 25.3582H57.4394C57.4282 25.5665 57.3565 25.7647 57.2244 25.9528C57.0923 26.1409 56.9154 26.2909 56.6937 26.4029C56.4742 26.5148 56.2413 26.5708 55.995 26.5708C55.5001 26.5708 55.106 26.4062 54.8127 26.077C54.5216 25.7456 54.376 25.2933 54.376 24.72V24.6159C54.376 24.2621 54.4409 23.9474 54.5708 23.672C54.7007 23.3966 54.8866 23.1827 55.1284 23.0305C55.3725 22.8782 55.6602 22.802 55.9917 22.802C56.3992 22.802 56.7374 22.9241 57.0061 23.1682C57.277 23.4123 57.4215 23.7291 57.4394 24.1188H56.8516C56.8336 23.8836 56.7441 23.691 56.5828 23.541C56.4238 23.3887 56.2268 23.3126 55.9917 23.3126C55.6759 23.3126 55.4307 23.4268 55.256 23.6552C55.0836 23.8814 54.9974 24.2094 54.9974 24.6394V24.757C54.9974 25.1757 55.0836 25.4982 55.256 25.7243C55.4285 25.9505 55.6748 26.0636 55.995 26.0636ZM58.7595 23.3092C59.0349 22.9711 59.3932 22.802 59.8343 22.802C60.6024 22.802 60.9898 23.2353 60.9965 24.102V26.5036H60.3751V24.0986C60.3729 23.8366 60.3124 23.6429 60.1937 23.5175C60.0773 23.3921 59.8948 23.3294 59.6462 23.3294C59.4447 23.3294 59.2678 23.3831 59.1155 23.4906C58.9632 23.5981 58.8445 23.7392 58.7595 23.9139V26.5036H58.138V21.3442H58.7595V23.3092ZM62.5148 22.8692L62.5349 23.326C62.8126 22.9767 63.1754 22.802 63.6232 22.802C64.3913 22.802 64.7787 23.2353 64.7854 24.102V26.5036H64.164V24.0986C64.1618 23.8366 64.1013 23.6429 63.9826 23.5175C63.8662 23.3921 63.6837 23.3294 63.4351 23.3294C63.2336 23.3294 63.0567 23.3831 62.9044 23.4906C62.7521 23.5981 62.6335 23.7392 62.5484 23.9139V26.5036H61.927V22.8692H62.5148ZM66.3977 26.5036H65.7763V22.8692H66.3977V26.5036ZM65.726 21.9052C65.726 21.8044 65.7562 21.7193 65.8166 21.6499C65.8793 21.5805 65.9712 21.5458 66.0921 21.5458C66.213 21.5458 66.3048 21.5805 66.3675 21.6499C66.4302 21.7193 66.4616 21.8044 66.4616 21.9052C66.4616 22.006 66.4302 22.0899 66.3675 22.1571C66.3048 22.2243 66.213 22.2579 66.0921 22.2579C65.9712 22.2579 65.8793 22.2243 65.8166 22.1571C65.7562 22.0899 65.726 22.006 65.726 21.9052ZM69.5115 25.5396C69.5115 25.3717 69.4477 25.2418 69.32 25.15C69.1946 25.0559 68.9741 24.9753 68.6583 24.9081C68.3448 24.8409 68.0951 24.7603 67.9093 24.6663C67.7257 24.5722 67.5891 24.4603 67.4995 24.3304C67.4122 24.2005 67.3685 24.046 67.3685 23.8668C67.3685 23.569 67.4939 23.3171 67.7447 23.1111C67.9977 22.9051 68.3202 22.802 68.7121 22.802C69.1241 22.802 69.4578 22.9084 69.713 23.1211C69.9706 23.3339 70.0993 23.606 70.0993 23.9374H69.4746C69.4746 23.7672 69.4018 23.6205 69.2562 23.4973C69.1129 23.3742 68.9315 23.3126 68.7121 23.3126C68.4859 23.3126 68.309 23.3619 68.1814 23.4604C68.0537 23.5589 67.9899 23.6877 67.9899 23.8467C67.9899 23.9967 68.0492 24.1098 68.1679 24.1859C68.2866 24.2621 68.5005 24.3349 68.8095 24.4043C69.1207 24.4737 69.3727 24.5565 69.5653 24.6528C69.7578 24.7491 69.9 24.8656 69.9918 25.0022C70.0859 25.1365 70.1329 25.3011 70.1329 25.4959C70.1329 25.8206 70.003 26.0815 69.7433 26.2786C69.4835 26.4734 69.1465 26.5708 68.7322 26.5708C68.4411 26.5708 68.1836 26.5193 67.9597 26.4163C67.7357 26.3133 67.5599 26.17 67.4323 25.9863C67.3069 25.8005 67.2442 25.6001 67.2442 25.3851H67.8656C67.8768 25.5933 67.9597 25.7591 68.1142 25.8822C68.2709 26.0031 68.4769 26.0636 68.7322 26.0636C68.9674 26.0636 69.1555 26.0166 69.2965 25.9225C69.4398 25.8262 69.5115 25.6986 69.5115 25.5396ZM2.00633 34.4411V31.2871H1.43195V30.8067H2.00633V30.4339C2.00633 30.0442 2.11046 29.743 2.31871 29.5303C2.52697 29.3176 2.82144 29.2112 3.20212 29.2112C3.34544 29.2112 3.48763 29.2302 3.62871 29.2683L3.59512 29.7722C3.48987 29.752 3.37791 29.7419 3.25922 29.7419C3.05769 29.7419 2.90205 29.8013 2.79233 29.92C2.6826 30.0364 2.62774 30.2043 2.62774 30.4238V30.8067H3.40366V31.2871H2.62774V34.4411H2.00633ZM6.33604 34.0817C6.09419 34.3661 5.73926 34.5083 5.27125 34.5083C4.88385 34.5083 4.58826 34.3963 4.38448 34.1724C4.18294 33.9462 4.08105 33.6126 4.07881 33.1714V30.8067H4.70022V33.1546C4.70022 33.7055 4.92415 33.9809 5.37202 33.9809C5.84675 33.9809 6.16249 33.804 6.31924 33.4502V30.8067H6.94065V34.4411H6.34947L6.33604 34.0817ZM4.44494 29.836C4.44494 29.7352 4.47517 29.6512 4.53563 29.5841C4.59833 29.5146 4.69014 29.4799 4.81107 29.4799C4.93199 29.4799 5.0238 29.5146 5.0865 29.5841C5.1492 29.6512 5.18055 29.7352 5.18055 29.836C5.18055 29.9367 5.1492 30.0207 5.0865 30.0879C5.0238 30.1551 4.93199 30.1887 4.81107 30.1887C4.69014 30.1887 4.59833 30.1551 4.53563 30.0879C4.47517 30.0207 4.44494 29.9367 4.44494 29.836ZM5.8893 29.8427C5.8893 29.7419 5.91953 29.6568 5.97999 29.5874C6.04269 29.518 6.1345 29.4833 6.25542 29.4833C6.37635 29.4833 6.46816 29.518 6.53086 29.5874C6.59356 29.6568 6.62491 29.7419 6.62491 29.8427C6.62491 29.9435 6.59356 30.0274 6.53086 30.0946C6.46816 30.1618 6.37635 30.1954 6.25542 30.1954C6.1345 30.1954 6.04269 30.1618 5.97999 30.0946C5.91953 30.0274 5.8893 29.9435 5.8893 29.8427ZM9.64462 31.3643C9.55057 31.3486 9.44868 31.3408 9.33896 31.3408C8.9314 31.3408 8.65485 31.5143 8.50929 31.8614V34.4411H7.88788V30.8067H8.4925L8.50257 31.2266C8.70635 30.9019 8.99522 30.7395 9.36919 30.7395C9.49011 30.7395 9.58192 30.7552 9.64462 30.7866V31.3643ZM15.7815 34.4411H15.1332L12.6711 30.6724V34.4411H12.0228V29.5505H12.6711L15.1399 33.336V29.5505H15.7815V34.4411ZM19.0732 34.4411C19.0374 34.3695 19.0083 34.2418 18.9859 34.0582C18.697 34.3583 18.3522 34.5083 17.9514 34.5083C17.5931 34.5083 17.2986 34.4075 17.0679 34.206C16.8395 34.0022 16.7253 33.7447 16.7253 33.4334C16.7253 33.055 16.8686 32.7616 17.1553 32.5534C17.4441 32.3429 17.8495 32.2376 18.3712 32.2376H18.9758V31.9521C18.9758 31.7349 18.9109 31.5625 18.781 31.4348C18.6511 31.305 18.4597 31.24 18.2066 31.24C17.9849 31.24 17.7991 31.296 17.649 31.408C17.499 31.5199 17.424 31.6554 17.424 31.8144H16.7992C16.7992 31.633 16.863 31.4584 16.9907 31.2904C17.1206 31.1202 17.2952 30.9859 17.5147 30.8873C17.7364 30.7888 17.9793 30.7395 18.2436 30.7395C18.6623 30.7395 18.9904 30.8448 19.2278 31.0553C19.4651 31.2635 19.5883 31.5513 19.5972 31.9185V33.5913C19.5972 33.925 19.6398 34.1903 19.7249 34.3874V34.4411H19.0732ZM18.042 33.9675C18.2369 33.9675 18.4216 33.9171 18.5963 33.8164C18.7709 33.7156 18.8975 33.5846 18.9758 33.4234V32.6777H18.4888C17.7274 32.6777 17.3467 32.9005 17.3467 33.3461C17.3467 33.5409 17.4117 33.6932 17.5416 33.8029C17.6714 33.9126 17.8383 33.9675 18.042 33.9675ZM21.1928 31.2467C21.4682 30.9086 21.8265 30.7395 22.2676 30.7395C23.0357 30.7395 23.4231 31.1728 23.4298 32.0395V34.4411H22.8084V32.0361C22.8062 31.7741 22.7457 31.5804 22.627 31.455C22.5106 31.3296 22.3281 31.2669 22.0795 31.2669C21.878 31.2669 21.7011 31.3206 21.5488 31.4281C21.3965 31.5356 21.2778 31.6767 21.1928 31.8514V34.4411H20.5713V29.2817H21.1928V31.2467ZM26.117 31.3643C26.0229 31.3486 25.9211 31.3408 25.8113 31.3408C25.4038 31.3408 25.1272 31.5143 24.9817 31.8614V34.4411H24.3603V30.8067H24.9649L24.975 31.2266C25.1787 30.9019 25.4676 30.7395 25.8416 30.7395C25.9625 30.7395 26.0543 30.7552 26.117 30.7866V31.3643ZM28.9352 34.0817C28.6933 34.3661 28.3384 34.5083 27.8704 34.5083C27.483 34.5083 27.1874 34.3963 26.9836 34.1724C26.7821 33.9462 26.6802 33.6126 26.6779 33.1714V30.8067H27.2994V33.1546C27.2994 33.7055 27.5233 33.9809 27.9712 33.9809C28.4459 33.9809 28.7616 33.804 28.9184 33.4502V30.8067H29.5398V34.4411H28.9486L28.9352 34.0817ZM31.0748 30.8067L31.095 31.2635C31.3727 30.9142 31.7354 30.7395 32.1833 30.7395C32.9514 30.7395 33.3388 31.1728 33.3455 32.0395V34.4411H32.7241V32.0361C32.7219 31.7741 32.6614 31.5804 32.5427 31.455C32.4263 31.3296 32.2438 31.2669 31.9952 31.2669C31.7937 31.2669 31.6168 31.3206 31.4645 31.4281C31.3122 31.5356 31.1935 31.6767 31.1084 31.8514V34.4411H30.487V30.8067H31.0748ZM34.1349 32.5937C34.1349 32.0271 34.2659 31.577 34.5279 31.2434C34.7899 30.9075 35.1369 30.7395 35.5691 30.7395C36.0125 30.7395 36.3585 30.8963 36.6071 31.2098L36.6373 30.8067H37.205V34.3538C37.205 34.824 37.065 35.1947 36.7851 35.4656C36.5074 35.7366 36.1334 35.872 35.6632 35.872C35.4012 35.872 35.1448 35.8161 34.894 35.7041C34.6432 35.5921 34.4517 35.4387 34.3196 35.2439L34.6421 34.8711C34.9085 35.2003 35.2344 35.3648 35.6195 35.3648C35.9218 35.3648 36.157 35.2797 36.3249 35.1096C36.4951 34.9394 36.5802 34.6998 36.5802 34.3907V34.0784C36.3316 34.365 35.9924 34.5083 35.5624 34.5083C35.1369 34.5083 34.7921 34.337 34.5279 33.9944C34.2659 33.6518 34.1349 33.1849 34.1349 32.5937ZM34.7596 32.6642C34.7596 33.074 34.8436 33.3965 35.0115 33.6316C35.1795 33.8645 35.4146 33.9809 35.7169 33.9809C36.1088 33.9809 36.3966 33.8029 36.5802 33.4469V31.7875C36.3898 31.4404 36.1043 31.2669 35.7236 31.2669C35.4213 31.2669 35.1851 31.3845 35.0149 31.6196C34.8447 31.8547 34.7596 32.2029 34.7596 32.6642ZM40.2616 33.4771C40.2616 33.3092 40.1978 33.1793 40.0702 33.0875C39.9448 32.9934 39.7242 32.9128 39.4084 32.8456C39.0949 32.7784 38.8453 32.6978 38.6594 32.6038C38.4758 32.5097 38.3392 32.3978 38.2496 32.2679C38.1623 32.138 38.1186 31.9835 38.1186 31.8043C38.1186 31.5065 38.244 31.2546 38.4948 31.0486C38.7478 30.8425 39.0703 30.7395 39.4622 30.7395C39.8742 30.7395 40.2079 30.8459 40.4632 31.0586C40.7207 31.2714 40.8494 31.5435 40.8494 31.8749H40.2247C40.2247 31.7047 40.1519 31.558 40.0063 31.4348C39.863 31.3117 39.6816 31.2501 39.4622 31.2501C39.236 31.2501 39.0591 31.2994 38.9315 31.3979C38.8038 31.4964 38.74 31.6252 38.74 31.7842C38.74 31.9342 38.7993 32.0473 38.918 32.1234C39.0367 32.1996 39.2506 32.2724 39.5596 32.3418C39.8709 32.4112 40.1228 32.494 40.3154 32.5903C40.5079 32.6866 40.6501 32.8031 40.7419 32.9397C40.836 33.074 40.883 33.2386 40.883 33.4334C40.883 33.7581 40.7531 34.019 40.4934 34.2161C40.2336 34.4109 39.8966 34.5083 39.4823 34.5083C39.1912 34.5083 38.9337 34.4568 38.7098 34.3538C38.4858 34.2508 38.3101 34.1075 38.1824 33.9238C38.057 33.738 37.9943 33.5376 37.9943 33.3226H38.6157C38.6269 33.5308 38.7098 33.6966 38.8643 33.8197C39.021 33.9406 39.2271 34.0011 39.4823 34.0011C39.7175 34.0011 39.9056 33.9541 40.0466 33.86C40.19 33.7637 40.2616 33.6361 40.2616 33.4771ZM42.277 30.8067L42.2938 31.2098C42.5603 30.8963 42.9197 30.7395 43.372 30.7395C43.8803 30.7395 44.2263 30.9344 44.4099 31.324C44.5309 31.1493 44.6876 31.0083 44.8802 30.9008C45.075 30.7933 45.3045 30.7395 45.5688 30.7395C46.366 30.7395 46.7713 31.1617 46.7847 32.0059V34.4411H46.1633V32.0428C46.1633 31.7831 46.104 31.5894 45.9853 31.4617C45.8666 31.3318 45.6673 31.2669 45.3874 31.2669C45.1568 31.2669 44.9653 31.3363 44.813 31.4752C44.6607 31.6118 44.5723 31.7965 44.5477 32.0294V34.4411H43.9229V32.0596C43.9229 31.5311 43.6642 31.2669 43.147 31.2669C42.7394 31.2669 42.4606 31.4404 42.3106 31.7875V34.4411H41.6892V30.8067H42.277ZM48.4004 34.4411H47.779V30.8067H48.4004V34.4411ZM47.7286 29.8427C47.7286 29.7419 47.7588 29.6568 47.8193 29.5874C47.882 29.518 47.9738 29.4833 48.0947 29.4833C48.2157 29.4833 48.3075 29.518 48.3702 29.5874C48.4329 29.6568 48.4642 29.7419 48.4642 29.8427C48.4642 29.9435 48.4329 30.0274 48.3702 30.0946C48.3075 30.1618 48.2157 30.1954 48.0947 30.1954C47.9738 30.1954 47.882 30.1618 47.8193 30.0946C47.7588 30.0274 47.7286 29.9435 47.7286 29.8427ZM50.2411 29.9267V30.8067H50.9196V31.2871H50.2411V33.5409C50.2411 33.6865 50.2713 33.7962 50.3318 33.8701C50.3923 33.9418 50.4953 33.9776 50.6408 33.9776C50.7125 33.9776 50.811 33.9642 50.9364 33.9373V34.4411C50.7729 34.4859 50.614 34.5083 50.4594 34.5083C50.1818 34.5083 49.9724 34.4243 49.8313 34.2564C49.6902 34.0884 49.6197 33.8499 49.6197 33.5409V31.2871H48.958V30.8067H49.6197V29.9267H50.2411ZM52.4916 29.9267V30.8067H53.1701V31.2871H52.4916V33.5409C52.4916 33.6865 52.5218 33.7962 52.5823 33.8701C52.6428 33.9418 52.7458 33.9776 52.8913 33.9776C52.963 33.9776 53.0615 33.9642 53.1869 33.9373V34.4411C53.0235 34.4859 52.8645 34.5083 52.71 34.5083C52.4323 34.5083 52.2229 34.4243 52.0818 34.2564C51.9407 34.0884 51.8702 33.8499 51.8702 33.5409V31.2871H51.2085V30.8067H51.8702V29.9267H52.4916ZM55.4072 34.5083C54.9146 34.5083 54.5137 34.3471 54.2047 34.0246C53.8957 33.6999 53.7412 33.2666 53.7412 32.7247V32.6105C53.7412 32.25 53.8095 31.9286 53.9461 31.6465C54.0849 31.3621 54.2775 31.1404 54.5238 30.9814C54.7724 30.8202 55.0411 30.7395 55.3299 30.7395C55.8024 30.7395 56.1697 30.8952 56.4317 31.2064C56.6937 31.5177 56.8247 31.9633 56.8247 32.5433V32.8019H54.3626C54.3715 33.1602 54.4756 33.4502 54.6749 33.6719C54.8765 33.8914 55.1318 34.0011 55.4408 34.0011C55.6602 34.0011 55.8461 33.9563 55.9984 33.8667C56.1507 33.7772 56.2839 33.6585 56.3981 33.5107L56.7777 33.8063C56.4731 34.2743 56.0163 34.5083 55.4072 34.5083ZM55.3299 31.2501C55.0791 31.2501 54.8686 31.3419 54.6985 31.5255C54.5283 31.7069 54.423 31.9622 54.3827 32.2914H56.2033V32.2444C56.1854 31.9286 56.1003 31.6845 55.948 31.5121C55.7957 31.3374 55.5897 31.2501 55.3299 31.2501ZM58.222 34.4411H57.6006V29.2817H58.222V34.4411Z" fill="white"/>
<path d="M201.615 25.929H153.838C151.97 25.929 150.456 27.443 150.456 29.3107V34.0473C150.456 35.915 151.97 37.429 153.838 37.429H201.615C203.483 37.429 204.997 35.915 204.997 34.0473V29.3107C204.997 27.443 203.483 25.929 201.615 25.929Z" fill="#0066FF" stroke="white" stroke-width="0.264583"/>
<path d="M164.987 31.8488C164.358 31.6681 163.899 31.4466 163.612 31.1843C163.327 30.9195 163.184 30.5937 163.184 30.2067C163.184 29.7688 163.358 29.4073 163.707 29.1221C164.059 28.8344 164.514 28.6906 165.074 28.6906C165.456 28.6906 165.796 28.7644 166.094 28.9121C166.394 29.0597 166.626 29.2634 166.789 29.5231C166.955 29.7828 167.037 30.0667 167.037 30.3747H166.3C166.3 30.0386 166.193 29.7751 165.979 29.5842C165.766 29.3907 165.464 29.294 165.074 29.294C164.713 29.294 164.43 29.3742 164.227 29.5345C164.025 29.6924 163.925 29.9126 163.925 30.1952C163.925 30.4218 164.02 30.614 164.211 30.7719C164.405 30.9272 164.732 31.0698 165.193 31.1996C165.656 31.3294 166.018 31.4733 166.277 31.6311C166.54 31.7864 166.733 31.9685 166.858 32.1772C166.985 32.386 167.049 32.6317 167.049 32.9143C167.049 33.3649 166.873 33.7265 166.522 33.9989C166.17 34.2687 165.701 34.4037 165.113 34.4037C164.731 34.4037 164.374 34.3311 164.043 34.186C163.712 34.0383 163.456 33.8372 163.276 33.5826C163.097 33.328 163.008 33.0391 163.008 32.7157H163.745C163.745 33.0518 163.869 33.3178 164.116 33.5139C164.365 33.7074 164.698 33.8041 165.113 33.8041C165.5 33.8041 165.796 33.7252 166.002 33.5673C166.209 33.4095 166.312 33.1944 166.312 32.9219C166.312 32.6495 166.216 32.4395 166.025 32.2918C165.834 32.1416 165.488 31.9939 164.987 31.8488ZM171.372 32.3071C171.372 32.9359 171.228 33.4426 170.94 33.827C170.653 34.2115 170.263 34.4037 169.772 34.4037C169.27 34.4037 168.876 34.2446 168.588 33.9263V35.916H167.881V30.1952H168.527L168.561 30.6535C168.849 30.2971 169.248 30.1188 169.76 30.1188C170.257 30.1188 170.649 30.306 170.936 30.6802C171.227 31.0545 171.372 31.5751 171.372 32.2422V32.3071ZM170.665 32.2269C170.665 31.761 170.566 31.3931 170.367 31.1232C170.169 30.8534 169.896 30.7184 169.55 30.7184C169.122 30.7184 168.802 30.9081 168.588 31.2874V33.2618C168.799 33.6386 169.122 33.827 169.558 33.827C169.896 33.827 170.165 33.6934 170.364 33.426C170.565 33.1562 170.665 32.7564 170.665 32.2269ZM173.988 34.4037C173.428 34.4037 172.972 34.2204 172.621 33.8538C172.269 33.4846 172.094 32.992 172.094 32.3758V32.246C172.094 31.8361 172.171 31.4707 172.327 31.15C172.484 30.8266 172.703 30.5746 172.983 30.3938C173.266 30.2105 173.572 30.1188 173.9 30.1188C174.437 30.1188 174.855 30.2958 175.153 30.6497C175.45 31.0036 175.599 31.5102 175.599 32.1696V32.4637H172.8C172.81 32.871 172.929 33.2007 173.155 33.4528C173.384 33.7023 173.675 33.827 174.026 33.827C174.275 33.827 174.487 33.7761 174.66 33.6743C174.833 33.5724 174.985 33.4375 175.114 33.2695L175.546 33.6055C175.2 34.1376 174.68 34.4037 173.988 34.4037ZM173.9 30.6993C173.615 30.6993 173.375 30.8037 173.182 31.0125C172.988 31.2187 172.869 31.5089 172.823 31.8832H174.893V31.8297C174.872 31.4707 174.776 31.1932 174.603 30.9972C174.429 30.7986 174.195 30.6993 173.9 30.6993ZM177.089 30.1952L177.112 30.7146C177.427 30.3174 177.84 30.1188 178.349 30.1188C179.222 30.1188 179.663 30.6115 179.67 31.5968V34.3273H178.964V31.593C178.961 31.2951 178.893 31.0748 178.758 30.9323C178.625 30.7897 178.418 30.7184 178.135 30.7184C177.906 30.7184 177.705 30.7795 177.532 30.9017C177.359 31.0239 177.224 31.1843 177.127 31.3829V34.3273H176.42V30.1952H177.089ZM180.564 32.2269C180.564 31.593 180.714 31.0838 181.015 30.6993C181.315 30.3123 181.708 30.1188 182.195 30.1188C182.678 30.1188 183.062 30.2843 183.344 30.6153V28.4614H184.051V34.3273H183.401L183.367 33.8843C183.084 34.2306 182.691 34.4037 182.187 34.4037C181.708 34.4037 181.318 34.2076 181.015 33.8156C180.714 33.4235 180.564 32.9118 180.564 32.2804V32.2269ZM181.27 32.3071C181.27 32.7755 181.367 33.1422 181.561 33.4069C181.754 33.6717 182.022 33.8041 182.363 33.8041C182.811 33.8041 183.138 33.603 183.344 33.2007V31.3027C183.133 30.9132 182.808 30.7184 182.37 30.7184C182.024 30.7184 181.754 30.8521 181.561 31.1194C181.367 31.3867 181.27 31.7826 181.27 32.3071ZM186.865 34.4037C186.305 34.4037 185.849 34.2204 185.498 33.8538C185.147 33.4846 184.971 32.992 184.971 32.3758V32.246C184.971 31.8361 185.049 31.4707 185.204 31.15C185.362 30.8266 185.581 30.5746 185.861 30.3938C186.143 30.2105 186.449 30.1188 186.777 30.1188C187.315 30.1188 187.732 30.2958 188.03 30.6497C188.328 31.0036 188.477 31.5102 188.477 32.1696V32.4637H185.678C185.688 32.871 185.806 33.2007 186.033 33.4528C186.262 33.7023 186.552 33.827 186.903 33.827C187.153 33.827 187.364 33.7761 187.537 33.6743C187.71 33.5724 187.862 33.4375 187.992 33.2695L188.423 33.6055C188.077 34.1376 187.558 34.4037 186.865 34.4037ZM186.777 30.6993C186.492 30.6993 186.253 30.8037 186.059 31.0125C185.866 31.2187 185.746 31.5089 185.7 31.8832H187.77V31.8297C187.75 31.4707 187.653 31.1932 187.48 30.9972C187.307 30.7986 187.073 30.6993 186.777 30.6993ZM189.966 30.1952L189.989 30.7146C190.305 30.3174 190.717 30.1188 191.226 30.1188C192.1 30.1188 192.54 30.6115 192.548 31.5968V34.3273H191.841V31.593C191.839 31.2951 191.77 31.0748 191.635 30.9323C191.503 30.7897 191.295 30.7184 191.013 30.7184C190.783 30.7184 190.582 30.7795 190.409 30.9017C190.236 31.0239 190.101 31.1843 190.004 31.3829V34.3273H189.298V30.1952H189.966Z" fill="white"/>
<path d="M168.837 21.7383C184.941 21.7383 197.996 17.256 197.996 11.7269C197.996 6.1977 184.941 1.71542 168.837 1.71542C152.734 1.71542 139.679 6.1977 139.679 11.7269C139.679 17.256 152.734 21.7383 168.837 21.7383Z" fill="white" stroke="black" stroke-width="0.264583"/>
<path d="M134.453 17.9798L146.328 11.9277L147.342 15.8421L134.453 17.9798Z" fill="white"/>
<path d="M168.837 21.7383C184.941 21.7383 197.996 17.256 197.996 11.7269C197.996 6.1977 184.941 1.71542 168.837 1.71542C152.734 1.71542 139.679 6.1977 139.679 11.7269C139.679 17.256 152.734 21.7383 168.837 21.7383Z" fill="white"/>
<path d="M155.762 8.94688L155.83 9.41563L155.93 8.99327L156.633 6.5128H157.029L157.715 8.99327L157.813 9.42296L157.888 8.94444L158.44 6.5128H158.911L158.049 10.0675H157.622L156.89 7.47716L156.834 7.20616L156.778 7.47716L156.018 10.0675H155.591L154.732 6.5128H155.2L155.762 8.94688ZM159.854 10.0675H159.402V7.42589H159.854V10.0675ZM159.365 6.7252C159.365 6.65196 159.387 6.59011 159.431 6.53966C159.477 6.4892 159.544 6.46397 159.632 6.46397C159.719 6.46397 159.786 6.4892 159.832 6.53966C159.877 6.59011 159.9 6.65196 159.9 6.7252C159.9 6.79845 159.877 6.85948 159.832 6.90831C159.786 6.95714 159.719 6.98155 159.632 6.98155C159.544 6.98155 159.477 6.95714 159.431 6.90831C159.387 6.85948 159.365 6.79845 159.365 6.7252ZM161.856 7.83116C161.787 7.81977 161.713 7.81407 161.633 7.81407C161.337 7.81407 161.136 7.94021 161.03 8.19249V10.0675H160.579V7.42589H161.018L161.026 7.73106C161.174 7.49506 161.384 7.37706 161.655 7.37706C161.743 7.37706 161.81 7.38845 161.856 7.41124V7.83116ZM165.75 8.77599C165.75 9.17963 165.657 9.50434 165.471 9.75011C165.286 9.99425 165.037 10.1163 164.724 10.1163C164.391 10.1163 164.133 9.99832 163.95 9.76231L163.928 10.0675H163.513V6.31749H163.965V7.71642C164.147 7.49018 164.399 7.37706 164.719 7.37706C165.04 7.37706 165.292 7.49832 165.474 7.74083C165.658 7.98334 165.75 8.31537 165.75 8.73692V8.77599ZM165.298 8.72472C165.298 8.4171 165.239 8.17947 165.12 8.01183C165.001 7.84418 164.83 7.76036 164.607 7.76036C164.309 7.76036 164.095 7.89871 163.965 8.1754V9.31798C164.103 9.59467 164.319 9.73302 164.612 9.73302C164.828 9.73302 164.997 9.6492 165.117 9.48155C165.238 9.31391 165.298 9.06163 165.298 8.72472ZM167.598 7.83116C167.529 7.81977 167.455 7.81407 167.376 7.81407C167.079 7.81407 166.878 7.94021 166.773 8.19249V10.0675H166.321V7.42589H166.76L166.768 7.73106C166.916 7.49506 167.126 7.37706 167.398 7.37706C167.486 7.37706 167.552 7.38845 167.598 7.41124V7.83116ZM169.549 10.0675C169.522 10.0154 169.501 9.92263 169.485 9.78917C169.275 10.0073 169.024 10.1163 168.733 10.1163C168.473 10.1163 168.259 10.0431 168.091 9.89659C167.925 9.74848 167.842 9.5613 167.842 9.33507C167.842 9.06 167.946 8.84679 168.154 8.69542C168.364 8.54242 168.659 8.46593 169.038 8.46593H169.478V8.25841C169.478 8.10053 169.431 7.9752 169.336 7.88243C169.242 7.78803 169.103 7.74083 168.919 7.74083C168.758 7.74083 168.622 7.78152 168.513 7.8629C168.404 7.94428 168.35 8.04275 168.35 8.15831H167.896C167.896 8.02647 167.942 7.89952 168.035 7.77745C168.129 7.65375 168.256 7.5561 168.416 7.48448C168.577 7.41287 168.753 7.37706 168.945 7.37706C169.25 7.37706 169.488 7.45356 169.661 7.60655C169.833 7.75792 169.923 7.96707 169.929 8.23399V9.44981C169.929 9.69233 169.96 9.8852 170.022 10.0284V10.0675H169.549ZM168.799 9.72325C168.941 9.72325 169.075 9.68663 169.202 9.61339C169.329 9.54015 169.421 9.44493 169.478 9.32774V8.78575H169.124C168.57 8.78575 168.294 8.9477 168.294 9.27159C168.294 9.41319 168.341 9.52387 168.435 9.60362C168.53 9.68338 168.651 9.72325 168.799 9.72325ZM172.268 9.80626C172.092 10.013 171.834 10.1163 171.494 10.1163C171.213 10.1163 170.998 10.0349 170.85 9.87218C170.703 9.70779 170.629 9.46528 170.628 9.14464V7.42589H171.079V9.13243C171.079 9.53282 171.242 9.73302 171.568 9.73302C171.913 9.73302 172.142 9.60444 172.256 9.34727V7.42589H172.708V10.0675H172.278L172.268 9.80626ZM174.456 9.74767C174.617 9.74767 174.758 9.69884 174.878 9.60118C174.999 9.50352 175.065 9.38145 175.078 9.23497H175.506C175.497 9.38634 175.445 9.53038 175.349 9.6671C175.253 9.80382 175.125 9.91287 174.964 9.99425C174.804 10.0756 174.635 10.1163 174.456 10.1163C174.096 10.1163 173.81 9.99669 173.596 9.75743C173.385 9.51655 173.279 9.18777 173.279 8.7711V8.69542C173.279 8.43826 173.326 8.20958 173.421 8.00938C173.515 7.80919 173.65 7.65375 173.826 7.54308C174.003 7.4324 174.212 7.37706 174.453 7.37706C174.75 7.37706 174.995 7.46576 175.191 7.64317C175.388 7.82058 175.493 8.05089 175.506 8.33409H175.078C175.065 8.16319 175 8.02322 174.883 7.91417C174.767 7.80349 174.624 7.74815 174.453 7.74815C174.224 7.74815 174.046 7.83116 173.919 7.99718C173.793 8.16157 173.731 8.40001 173.731 8.71251V8.79796C173.731 9.10232 173.793 9.3367 173.919 9.50108C174.044 9.66547 174.223 9.74767 174.456 9.74767ZM176.465 7.74571C176.665 7.49994 176.926 7.37706 177.246 7.37706C177.805 7.37706 178.086 7.692 178.091 8.32188V10.0675H177.639V8.31944C177.638 8.12901 177.594 7.98823 177.508 7.89708C177.423 7.80593 177.29 7.76036 177.11 7.76036C176.963 7.76036 176.834 7.79942 176.724 7.87755C176.613 7.95567 176.527 8.05821 176.465 8.18517V10.0675H176.013V6.31749H176.465V7.74571ZM179.863 10.1163C179.505 10.1163 179.214 9.99913 178.989 9.76476C178.765 9.52875 178.653 9.21381 178.653 8.81993V8.73692C178.653 8.47488 178.702 8.24132 178.801 8.03624C178.902 7.82953 179.042 7.6684 179.221 7.55284C179.402 7.43565 179.597 7.37706 179.807 7.37706C180.151 7.37706 180.418 7.49018 180.608 7.71642C180.799 7.94265 180.894 8.26655 180.894 8.6881V8.87608H179.104C179.111 9.1365 179.186 9.34727 179.331 9.50841C179.478 9.66791 179.663 9.74767 179.888 9.74767C180.047 9.74767 180.182 9.71511 180.293 9.65001C180.404 9.5849 180.501 9.49864 180.584 9.39122L180.86 9.60606C180.638 9.94623 180.306 10.1163 179.863 10.1163ZM179.807 7.74815C179.625 7.74815 179.472 7.81489 179.348 7.94835C179.225 8.08018 179.148 8.26573 179.119 8.50499H180.442V8.47081C180.429 8.24132 180.367 8.06391 180.257 7.93858C180.146 7.81163 179.996 7.74815 179.807 7.74815ZM181.846 7.42589L181.861 7.75792C182.062 7.50401 182.326 7.37706 182.652 7.37706C183.21 7.37706 183.491 7.692 183.496 8.32188V10.0675H183.045V8.31944C183.043 8.12901 182.999 7.98823 182.913 7.89708C182.828 7.80593 182.695 7.76036 182.515 7.76036C182.368 7.76036 182.24 7.79942 182.129 7.87755C182.018 7.95567 181.932 8.05821 181.87 8.18517V10.0675H181.419V7.42589H181.846Z" fill="black"/>
<path d="M145.584 15.2321C145.584 14.8269 145.68 14.5014 145.872 14.2556C146.064 14.0082 146.315 13.8845 146.626 13.8845C146.935 13.8845 147.18 13.9903 147.361 14.2019V12.8249H147.813V16.5749H147.397L147.376 16.2917C147.195 16.5131 146.943 16.6237 146.621 16.6237C146.315 16.6237 146.065 16.4984 145.872 16.2478C145.68 15.9971 145.584 15.67 145.584 15.2663V15.2321ZM146.035 15.2834C146.035 15.5829 146.097 15.8173 146.221 15.9865C146.344 16.1558 146.515 16.2404 146.733 16.2404C147.02 16.2404 147.229 16.1119 147.361 15.8547V14.6413C147.226 14.3923 147.018 14.2678 146.738 14.2678C146.517 14.2678 146.344 14.3532 146.221 14.5241C146.097 14.695 146.035 14.9481 146.035 15.2834ZM149.612 16.6237C149.254 16.6237 148.962 16.5066 148.738 16.2722C148.513 16.0362 148.401 15.7212 148.401 15.3274V15.2444C148.401 14.9823 148.451 14.7487 148.55 14.5437C148.651 14.337 148.791 14.1758 148.97 14.0603C149.15 13.9431 149.346 13.8845 149.556 13.8845C149.899 13.8845 150.166 13.9976 150.356 14.2238C150.547 14.4501 150.642 14.774 150.642 15.1955V15.3835H148.853C148.859 15.6439 148.935 15.8547 149.08 16.0158C149.226 16.1753 149.412 16.2551 149.636 16.2551C149.796 16.2551 149.931 16.2225 150.042 16.1574C150.152 16.0923 150.249 16.0061 150.332 15.8987L150.608 16.1135C150.387 16.4537 150.055 16.6237 149.612 16.6237ZM149.556 14.2556C149.373 14.2556 149.22 14.3223 149.097 14.4558C148.973 14.5876 148.897 14.7732 148.867 15.0124H150.19V14.9782C150.177 14.7487 150.116 14.5713 150.005 14.446C149.894 14.3191 149.744 14.2556 149.556 14.2556ZM151.658 16.5749H151.206V13.9333H151.658V16.5749ZM151.169 13.2326C151.169 13.1594 151.191 13.0975 151.235 13.0471C151.281 12.9966 151.348 12.9714 151.436 12.9714C151.523 12.9714 151.59 12.9966 151.636 13.0471C151.681 13.0975 151.704 13.1594 151.704 13.2326C151.704 13.3059 151.681 13.3669 151.636 13.4157C151.59 13.4646 151.523 13.489 151.436 13.489C151.348 13.489 151.281 13.4646 151.235 13.4157C151.191 13.3669 151.169 13.3059 151.169 13.2326ZM152.81 13.9333L152.825 14.2654C153.027 14.0114 153.29 13.8845 153.616 13.8845C154.174 13.8845 154.456 14.1994 154.46 14.8293V16.5749H154.009V14.8269C154.007 14.6364 153.963 14.4957 153.877 14.4045C153.792 14.3134 153.66 14.2678 153.479 14.2678C153.333 14.2678 153.204 14.3069 153.093 14.385C152.983 14.4631 152.896 14.5656 152.835 14.6926V16.5749H152.383V13.9333H152.81ZM156.238 16.6237C155.88 16.6237 155.588 16.5066 155.364 16.2722C155.139 16.0362 155.027 15.7212 155.027 15.3274V15.2444C155.027 14.9823 155.077 14.7487 155.176 14.5437C155.277 14.337 155.417 14.1758 155.596 14.0603C155.776 13.9431 155.972 13.8845 156.182 13.8845C156.525 13.8845 156.792 13.9976 156.982 14.2238C157.173 14.4501 157.268 14.774 157.268 15.1955V15.3835H155.479C155.485 15.6439 155.561 15.8547 155.706 16.0158C155.852 16.1753 156.038 16.2551 156.262 16.2551C156.422 16.2551 156.557 16.2225 156.668 16.1574C156.778 16.0923 156.875 16.0061 156.958 15.8987L157.234 16.1135C157.013 16.4537 156.681 16.6237 156.238 16.6237ZM156.182 14.2556C155.999 14.2556 155.846 14.3223 155.723 14.4558C155.599 14.5876 155.522 14.7732 155.493 15.0124H156.816V14.9782C156.803 14.7487 156.742 14.5713 156.631 14.446C156.52 14.3191 156.37 14.2556 156.182 14.2556ZM161.606 13.0202V15.4372C161.605 15.7725 161.499 16.0468 161.289 16.26C161.081 16.4732 160.798 16.5928 160.439 16.6189L160.315 16.6237C159.926 16.6237 159.616 16.5188 159.385 16.3088C159.154 16.0988 159.036 15.8099 159.033 15.4421V13.0202H159.497V15.4275C159.497 15.6846 159.568 15.8848 159.71 16.028C159.851 16.1696 160.053 16.2404 160.315 16.2404C160.58 16.2404 160.783 16.1696 160.923 16.028C161.064 15.8864 161.135 15.6871 161.135 15.4299V13.0202H161.606ZM162.703 13.9333L162.717 14.2654C162.919 14.0114 163.183 13.8845 163.508 13.8845C164.067 13.8845 164.348 14.1994 164.353 14.8293V16.5749H163.901V14.8269C163.9 14.6364 163.856 14.4957 163.77 14.4045C163.685 14.3134 163.552 14.2678 163.372 14.2678C163.225 14.2678 163.097 14.3069 162.986 14.385C162.875 14.4631 162.789 14.5656 162.727 14.6926V16.5749H162.275V13.9333H162.703ZM165.647 13.2937V13.9333H166.14V14.2824H165.647V15.9206C165.647 16.0264 165.669 16.1062 165.713 16.1599C165.757 16.212 165.832 16.238 165.938 16.238C165.99 16.238 166.061 16.2282 166.152 16.2087V16.5749C166.034 16.6075 165.918 16.6237 165.806 16.6237C165.604 16.6237 165.452 16.5627 165.349 16.4406C165.247 16.3186 165.195 16.1452 165.195 15.9206V14.2824H164.714V13.9333H165.195V13.2937H165.647ZM167.766 16.6237C167.408 16.6237 167.117 16.5066 166.892 16.2722C166.668 16.0362 166.555 15.7212 166.555 15.3274V15.2444C166.555 14.9823 166.605 14.7487 166.704 14.5437C166.805 14.337 166.945 14.1758 167.124 14.0603C167.305 13.9431 167.5 13.8845 167.71 13.8845C168.053 13.8845 168.32 13.9976 168.511 14.2238C168.701 14.4501 168.796 14.774 168.796 15.1955V15.3835H167.007C167.013 15.6439 167.089 15.8547 167.234 16.0158C167.38 16.1753 167.566 16.2551 167.791 16.2551C167.95 16.2551 168.085 16.2225 168.196 16.1574C168.307 16.0923 168.403 16.0061 168.486 15.8987L168.762 16.1135C168.541 16.4537 168.209 16.6237 167.766 16.6237ZM167.71 14.2556C167.528 14.2556 167.375 14.3223 167.251 14.4558C167.127 14.5876 167.051 14.7732 167.022 15.0124H168.345V14.9782C168.332 14.7487 168.27 14.5713 168.159 14.446C168.049 14.3191 167.899 14.2556 167.71 14.2556ZM170.598 14.3386C170.53 14.3272 170.456 14.3215 170.376 14.3215C170.08 14.3215 169.879 14.4476 169.773 14.6999V16.5749H169.321V13.9333H169.761L169.768 14.2385C169.916 14.0025 170.126 13.8845 170.398 13.8845C170.486 13.8845 170.553 13.8959 170.598 13.9187V14.3386ZM172.554 15.8742C172.554 15.7522 172.507 15.6578 172.415 15.591C172.323 15.5227 172.163 15.4641 171.934 15.4153C171.706 15.3664 171.524 15.3078 171.389 15.2395C171.256 15.1711 171.156 15.0897 171.091 14.9953C171.028 14.9009 170.996 14.7886 170.996 14.6584C170.996 14.4419 171.087 14.2588 171.27 14.1091C171.453 13.9594 171.688 13.8845 171.973 13.8845C172.272 13.8845 172.515 13.9618 172.7 14.1164C172.887 14.271 172.981 14.4688 172.981 14.7097H172.527C172.527 14.586 172.474 14.4794 172.368 14.3899C172.264 14.3003 172.132 14.2556 171.973 14.2556C171.808 14.2556 171.68 14.2914 171.587 14.363C171.494 14.4346 171.448 14.5282 171.448 14.6438C171.448 14.7528 171.491 14.835 171.577 14.8904C171.663 14.9457 171.819 14.9986 172.043 15.049C172.27 15.0995 172.453 15.1597 172.593 15.2297C172.733 15.2997 172.836 15.3843 172.903 15.4836C172.971 15.5813 173.005 15.7009 173.005 15.8425C173.005 16.0785 172.911 16.2681 172.722 16.4113C172.533 16.5529 172.288 16.6237 171.987 16.6237C171.776 16.6237 171.589 16.5863 171.426 16.5114C171.263 16.4366 171.135 16.3324 171.043 16.1989C170.951 16.0639 170.906 15.9182 170.906 15.7619H171.357C171.366 15.9133 171.426 16.0337 171.538 16.1233C171.652 16.2112 171.802 16.2551 171.987 16.2551C172.158 16.2551 172.295 16.2209 172.397 16.1526C172.502 16.0826 172.554 15.9898 172.554 15.8742ZM174.207 13.2937V13.9333H174.7V14.2824H174.207V15.9206C174.207 16.0264 174.229 16.1062 174.272 16.1599C174.316 16.212 174.391 16.238 174.497 16.238C174.549 16.238 174.621 16.2282 174.712 16.2087V16.5749C174.593 16.6075 174.478 16.6237 174.365 16.6237C174.163 16.6237 174.011 16.5627 173.909 16.4406C173.806 16.3186 173.755 16.1452 173.755 15.9206V14.2824H173.274V13.9333H173.755V13.2937H174.207ZM176.86 16.3137C176.685 16.5204 176.427 16.6237 176.086 16.6237C175.805 16.6237 175.59 16.5424 175.442 16.3796C175.295 16.2152 175.221 15.9727 175.22 15.6521V13.9333H175.671V15.6399C175.671 16.0403 175.834 16.2404 176.16 16.2404C176.505 16.2404 176.734 16.1119 176.848 15.8547V13.9333H177.3V16.5749H176.87L176.86 16.3137ZM175.486 13.2278C175.486 13.1545 175.508 13.0935 175.552 13.0446C175.597 12.9942 175.664 12.969 175.752 12.969C175.84 12.969 175.907 12.9942 175.952 13.0446C175.998 13.0935 176.021 13.1545 176.021 13.2278C176.021 13.301 175.998 13.362 175.952 13.4109C175.907 13.4597 175.84 13.4841 175.752 13.4841C175.664 13.4841 175.597 13.4597 175.552 13.4109C175.508 13.362 175.486 13.301 175.486 13.2278ZM176.536 13.2326C176.536 13.1594 176.558 13.0975 176.602 13.0471C176.647 12.9966 176.714 12.9714 176.802 12.9714C176.89 12.9714 176.956 12.9966 177.002 13.0471C177.048 13.0975 177.07 13.1594 177.07 13.2326C177.07 13.3059 177.048 13.3669 177.002 13.4157C176.956 13.4646 176.89 13.489 176.802 13.489C176.714 13.489 176.647 13.4646 176.602 13.4157C176.558 13.3669 176.536 13.3059 176.536 13.2326ZM178.601 13.2937V13.9333H179.094V14.2824H178.601V15.9206C178.601 16.0264 178.623 16.1062 178.667 16.1599C178.711 16.212 178.786 16.238 178.892 16.238C178.944 16.238 179.015 16.2282 179.106 16.2087V16.5749C178.988 16.6075 178.872 16.6237 178.76 16.6237C178.558 16.6237 178.406 16.5627 178.303 16.4406C178.201 16.3186 178.149 16.1452 178.149 15.9206V14.2824H177.668V13.9333H178.149V13.2937H178.601ZM180.049 16.2063H181.594V16.5749H179.497V16.2429L180.955 14.3069H179.519V13.9333H181.521V14.2531L180.049 16.2063ZM183.735 16.3137C183.56 16.5204 183.302 16.6237 182.961 16.6237C182.68 16.6237 182.465 16.5424 182.317 16.3796C182.17 16.2152 182.096 15.9727 182.095 15.6521V13.9333H182.546V15.6399C182.546 16.0403 182.709 16.2404 183.035 16.2404C183.38 16.2404 183.609 16.1119 183.723 15.8547V13.9333H184.175V16.5749H183.745L183.735 16.3137ZM185.291 13.9333L185.305 14.2654C185.507 14.0114 185.771 13.8845 186.096 13.8845C186.654 13.8845 186.936 14.1994 186.941 14.8293V16.5749H186.489V14.8269C186.488 14.6364 186.444 14.4957 186.357 14.4045C186.273 14.3134 186.14 14.2678 185.96 14.2678C185.813 14.2678 185.684 14.3069 185.574 14.385C185.463 14.4631 185.377 14.5656 185.315 14.6926V16.5749H184.863V13.9333H185.291ZM187.515 15.2321C187.515 14.8204 187.61 14.4932 187.8 14.2507C187.991 14.0066 188.243 13.8845 188.557 13.8845C188.879 13.8845 189.131 13.9984 189.312 14.2263L189.334 13.9333H189.746V16.5114C189.746 16.8532 189.644 17.1226 189.441 17.3195C189.239 17.5165 188.967 17.615 188.626 17.615C188.435 17.615 188.249 17.5743 188.066 17.4929C187.884 17.4115 187.745 17.3 187.649 17.1584L187.883 16.8874C188.077 17.1267 188.314 17.2463 188.594 17.2463C188.814 17.2463 188.984 17.1845 189.106 17.0608C189.23 16.9371 189.292 16.7629 189.292 16.5383V16.3112C189.111 16.5196 188.865 16.6237 188.552 16.6237C188.243 16.6237 187.992 16.4992 187.8 16.2502C187.61 16.0012 187.515 15.6618 187.515 15.2321ZM187.969 15.2834C187.969 15.5813 188.03 15.8156 188.152 15.9865C188.274 16.1558 188.445 16.2404 188.665 16.2404C188.949 16.2404 189.159 16.1111 189.292 15.8523V14.6462C189.154 14.3939 188.946 14.2678 188.669 14.2678C188.45 14.2678 188.278 14.3532 188.154 14.5241C188.031 14.695 187.969 14.9481 187.969 15.2834ZM190.935 15.5715H190.527L190.496 13.0202H190.969L190.935 15.5715ZM190.479 16.3479C190.479 16.2746 190.501 16.2136 190.544 16.1648C190.59 16.1143 190.657 16.0891 190.745 16.0891C190.833 16.0891 190.899 16.1143 190.945 16.1648C190.99 16.2136 191.013 16.2746 191.013 16.3479C191.013 16.4211 190.99 16.4821 190.945 16.531C190.899 16.5782 190.833 16.6018 190.745 16.6018C190.657 16.6018 190.59 16.5782 190.544 16.531C190.501 16.4821 190.479 16.4211 190.479 16.3479Z" fill="black"/>
</g>
<defs>
<clipPath id="clip0">
<rect width="211.667" height="39.6875" fill="white"/>
</clipPath>
</defs>
</svg>
