<?xml version="1.0" encoding="UTF-8" standalone="no"?>
<svg
   xmlns:dc="http://purl.org/dc/elements/1.1/"
   xmlns:cc="http://creativecommons.org/ns#"
   xmlns:rdf="http://www.w3.org/1999/02/22-rdf-syntax-ns#"
   xmlns:svg="http://www.w3.org/2000/svg"
   xmlns="http://www.w3.org/2000/svg"
   xmlns:sodipodi="http://sodipodi.sourceforge.net/DTD/sodipodi-0.dtd"
   xmlns:inkscape="http://www.inkscape.org/namespaces/inkscape"
   inkscape:export-ydpi="192"
   inkscape:export-xdpi="192"
   inkscape:export-filename="C:\Users\biz\Desktop\Blogs\OpenFoodFacts\donate-banner.personal.fr.1600x300.png"
   sodipodi:docname="donate-banner.personal.he.800x150.svg"
   inkscape:version="1.0beta1 (32d4812, 2019-09-19)"
   version="1.1"
   id="svg2"
   viewBox="0 0 800 150"
   height="150"
   width="800">
  <defs
     id="defs4">
    <clipPath
       clipPathUnits="userSpaceOnUse"
       id="clipPath3671">
      <path
         d="m 748.38,337.76 c 33.96,3.67 103.24,-40.5 67.5,-128.64 -35.73,-88.15 -146.4,-69.02 -162,-18.27 -2.95,9.6 45.52,19.72 65.91,58.77 20.4,39.04 12.02,86.36 28.59,88.14 z"
         inkscape:connector-curvature="0"
         style="fill:url(#radialGradient3675);fill-rule:evenodd"
         sodipodi:nodetypes="csszs"
         id="path3673" />
    </clipPath>
    <clipPath
       clipPathUnits="userSpaceOnUse"
       id="clipPath3903">
      <path
         d="m 214.32,159.35 c 19.3,-6.75 57.29,-29.59 42.68,-41.84 -21.91,7.51 -56.52,-55.102 -120.73,-13.75 -36.87,23.74 12.21,90.26 -0.14,107.67 17.15,-28.61 27.96,-34.58 78.19,-52.08 z"
         inkscape:connector-curvature="0"
         style="fill:url(#linearGradient3907);fill-rule:evenodd"
         sodipodi:nodetypes="ccscs"
         id="path3905" />
    </clipPath>
    <clipPath
       clipPathUnits="userSpaceOnUse"
       id="clipPath3671-6">
      <path
         d="m 748.38,337.76 c 33.96,3.67 103.24,-40.5 67.5,-128.64 -35.73,-88.15 -146.4,-69.02 -162,-18.27 -2.95,9.6 45.52,19.72 65.91,58.77 20.4,39.04 12.02,86.36 28.59,88.14 z"
         inkscape:connector-curvature="0"
         style="fill:url(#radialGradient3675);fill-rule:evenodd"
         sodipodi:nodetypes="csszs"
         id="path3673-5" />
    </clipPath>
    <clipPath
       clipPathUnits="userSpaceOnUse"
       id="clipPath3903-4">
      <path
         d="m 214.32,159.35 c 19.3,-6.75 57.29,-29.59 42.68,-41.84 -21.91,7.51 -56.52,-55.102 -120.73,-13.75 -36.87,23.74 12.21,90.26 -0.14,107.67 17.15,-28.61 27.96,-34.58 78.19,-52.08 z"
         inkscape:connector-curvature="0"
         style="fill:url(#linearGradient3907);fill-rule:evenodd"
         sodipodi:nodetypes="ccscs"
         id="path3905-1" />
    </clipPath>
    <clipPath
       clipPathUnits="userSpaceOnUse"
       id="clipPath3671-4">
      <path
         d="m 748.38,337.76 c 33.96,3.67 103.24,-40.5 67.5,-128.64 -35.73,-88.15 -146.4,-69.02 -162,-18.27 -2.95,9.6 45.52,19.72 65.91,58.77 20.4,39.04 12.02,86.36 28.59,88.14 z"
         inkscape:connector-curvature="0"
         style="fill:url(#radialGradient3675);fill-rule:evenodd"
         sodipodi:nodetypes="csszs"
         id="path3673-8" />
    </clipPath>
    <clipPath
       clipPathUnits="userSpaceOnUse"
       id="clipPath3903-3">
      <path
         d="m 214.32,159.35 c 19.3,-6.75 57.29,-29.59 42.68,-41.84 -21.91,7.51 -56.52,-55.102 -120.73,-13.75 -36.87,23.74 12.21,90.26 -0.14,107.67 17.15,-28.61 27.96,-34.58 78.19,-52.08 z"
         inkscape:connector-curvature="0"
         style="fill:url(#linearGradient3907);fill-rule:evenodd"
         sodipodi:nodetypes="ccscs"
         id="path3905-3" />
    </clipPath>
    <clipPath
       clipPathUnits="userSpaceOnUse"
       id="clipPath3671-0">
      <path
         d="m 748.38,337.76 c 33.96,3.67 103.24,-40.5 67.5,-128.64 -35.73,-88.15 -146.4,-69.02 -162,-18.27 -2.95,9.6 45.52,19.72 65.91,58.77 20.4,39.04 12.02,86.36 28.59,88.14 z"
         inkscape:connector-curvature="0"
         style="fill:url(#radialGradient3675);fill-rule:evenodd"
         sodipodi:nodetypes="csszs"
         id="path3673-4" />
    </clipPath>
    <clipPath
       clipPathUnits="userSpaceOnUse"
       id="clipPath3903-7">
      <path
         d="m 214.32,159.35 c 19.3,-6.75 57.29,-29.59 42.68,-41.84 -21.91,7.51 -56.52,-55.102 -120.73,-13.75 -36.87,23.74 12.21,90.26 -0.14,107.67 17.15,-28.61 27.96,-34.58 78.19,-52.08 z"
         inkscape:connector-curvature="0"
         style="fill:url(#linearGradient3907);fill-rule:evenodd"
         sodipodi:nodetypes="ccscs"
         id="path3905-37" />
    </clipPath>
    <clipPath
       clipPathUnits="userSpaceOnUse"
       id="clipPath3671-0-6">
      <path
         d="m 748.38,337.76 c 33.96,3.67 103.24,-40.5 67.5,-128.64 -35.73,-88.15 -146.4,-69.02 -162,-18.27 -2.95,9.6 45.52,19.72 65.91,58.77 20.4,39.04 12.02,86.36 28.59,88.14 z"
         inkscape:connector-curvature="0"
         style="fill:url(#radialGradient3675);fill-rule:evenodd"
         sodipodi:nodetypes="csszs"
         id="path3673-4-5" />
    </clipPath>
    <clipPath
       clipPathUnits="userSpaceOnUse"
       id="clipPath3903-7-2">
      <path
         d="m 214.32,159.35 c 19.3,-6.75 57.29,-29.59 42.68,-41.84 -21.91,7.51 -56.52,-55.102 -120.73,-13.75 -36.87,23.74 12.21,90.26 -0.14,107.67 17.15,-28.61 27.96,-34.58 78.19,-52.08 z"
         inkscape:connector-curvature="0"
         style="fill:url(#linearGradient3907);fill-rule:evenodd"
         sodipodi:nodetypes="ccscs"
         id="path3905-37-0" />
    </clipPath>
    <pattern
       id="EMFhbasepattern"
       patternUnits="userSpaceOnUse"
       width="6"
       height="6"
       x="0"
       y="0" />
  </defs>
  <sodipodi:namedview
     inkscape:document-rotation="0"
     inkscape:snap-global="false"
     showguides="false"
     inkscape:window-maximized="0"
     inkscape:window-y="0"
     inkscape:window-x="0"
     inkscape:window-height="778"
     inkscape:window-width="1280"
     showgrid="false"
     inkscape:current-layer="layer1"
     inkscape:document-units="px"
     inkscape:cy="162.03214"
     inkscape:cx="259.33266"
     inkscape:zoom="0.98782607"
     inkscape:pageshadow="2"
     inkscape:pageopacity="0.0"
     borderopacity="1.0"
     bordercolor="#666666"
     pagecolor="#ffffff"
     id="base" />
  <metadata
     id="metadata7">
    <rdf:RDF>
      <cc:Work
         rdf:about="">
        <dc:format>image/svg+xml</dc:format>
        <dc:type
           rdf:resource="http://purl.org/dc/dcmitype/StillImage" />
        <dc:title></dc:title>
      </cc:Work>
    </rdf:RDF>
  </metadata>
  <g
     id="layer1"
     inkscape:groupmode="layer"
     inkscape:label="Calque 1">
    <g
       id="g273">
      <path
         d="m 299.74283,128.4025 h 50.78493 v 21.59751 h -50.78493 z"
         style="opacity:1;fill:#000000;fill-opacity:1;fill-rule:evenodd;stroke:none;stroke-width:0.492549;stroke-linecap:round;stroke-linejoin:round;stroke-miterlimit:4;stroke-dasharray:none;stroke-dashoffset:0;stroke-opacity:1"
         id="rect3650" />
      <path
         d="M 0,8.2861325e-6 H 800 V 150.00001 H 0 Z"
         style="opacity:1;fill:#00aa00;fill-opacity:1;fill-rule:nonzero;stroke:none;stroke-width:11.0054;stroke-miterlimit:4;stroke-dasharray:none;stroke-opacity:1"
         id="rect2483" />
      <path
         d="M 351.74878,8.2861325e-6 H 800 V 150.00001 H 351.74878 Z"
         style="opacity:1;fill:#ff2a2a;fill-opacity:1;fill-rule:nonzero;stroke:none;stroke-width:8.23801;stroke-miterlimit:4;stroke-dasharray:none;stroke-opacity:1"
         id="rect2485" />
      <path
         id="path2487"
         d="m 250.29297,0 31.91015,150 H 542.13086 L 510.2207,0 Z"
         style="opacity:1;fill:#d5f6ff;fill-opacity:1;fill-rule:nonzero;stroke:none;stroke-width:0.96483946;stroke-miterlimit:4;stroke-dasharray:none;stroke-opacity:1"
         inkscape:connector-curvature="0" />
      <path
         sodipodi:nodetypes="cc"
         inkscape:connector-curvature="0"
         id="path2493"
         d="M 345.18756,86.1531 C 362.514,98.12052 380.62209,76.14778 396.36187,78.55835"
         style="fill:none;fill-rule:evenodd;stroke:#000000;stroke-width:3.0885694;stroke-linecap:butt;stroke-linejoin:miter;stroke-miterlimit:4;stroke-dasharray:none;stroke-opacity:1" />
      <path
         inkscape:connector-curvature="0"
         id="path2505"
         d="m 325.09107,82.90808 a 33.907457,23.600922 0 0 1 -0.13271,0.003 33.907457,23.600922 0 0 1 -0.0965,-0.003 33.907457,33.907457 0 0 0 0.0965,0.005 33.907457,33.907457 0 0 0 0.13271,-0.005 z"
         style="opacity:1;fill:#803300;fill-opacity:1;fill-rule:evenodd;stroke:none;stroke-width:0.49254942;stroke-linecap:round;stroke-linejoin:round;stroke-miterlimit:4;stroke-dasharray:none;stroke-dashoffset:0;stroke-opacity:1" />
      <path
         id="path2517"
         style="fill:#de8787;fill-rule:evenodd;stroke:none;stroke-width:0.39843822"
         inkscape:connector-curvature="0"
         d="m 421.71435,133.00602 c 0,0 0.0372,4.62456 -2.61109,6.00448 -1.89126,0.98545 -5.89158,-1.08244 -5.89158,-1.08244 z"
         sodipodi:nodetypes="cscc" />
      <path
         id="path2519"
         style="fill:#de8787;fill-rule:evenodd;stroke:none;stroke-width:0.39843822"
         inkscape:connector-curvature="0"
         d="m 415.07372,92.3879 c 2.74258,0.92332 4.11055,5.25433 3.85024,7.11904 l -12.07667,-4.90478 c 1.78899,-0.52992 5.4679,-3.14263 8.22643,-2.21426 z"
         sodipodi:nodetypes="cccz" />
      <path
         id="path2521"
         style="fill:#de8787;fill-rule:evenodd;stroke:none;stroke-width:0.39843822"
         inkscape:connector-curvature="0"
         d="m 387.97062,144.70018 c 1.53531,1.34141 1.97891,5.37228 6.80267,5.22087 4.82641,-0.15141 5.58344,-3.79312 7.69915,-4.74805 2.02672,-0.91374 -16.06237,-1.83814 -14.50182,-0.47282 z"
         sodipodi:nodetypes="ssss" />
      <path
         id="path2523"
         d="m 401.47369,92.98557 c -4.14376,0.003 -8.31674,0.77163 -12.18158,2.19672 -10.96503,4.04149 -16.90574,13.06479 -18.3534,18.87932 -5.44134,21.85435 15.47269,29.27325 17.03324,30.63857 1.53531,1.34141 12.38611,1.42775 14.50182,0.47282 2.02672,-0.91374 5.69767,-0.32803 16.34792,-8.54117 10.59979,-8.17463 10.89729,-25.8839 3.69485,-34.49016 -2.71203,-3.2393 -5.72954,-5.39353 -9.40978,-6.885 -0.41969,-0.093 -1.01469,-0.12751 -1.32547,-0.13947 -0.11422,-0.18992 -0.24836,-0.35859 -0.45821,-0.55781 -3.14235,-1.07047 -6.48657,-1.57515 -9.84939,-1.57382 z"
         sodipodi:nodetypes="csssssscccc"
         style="fill:#e9afaf;fill-rule:evenodd;stroke:none;stroke-width:0.39843822"
         inkscape:connector-curvature="0" />
      <path
         d="m 509.70759,57.893425 a 33.851997,42.575855 0 0 1 -33.852,42.575855 33.851997,42.575855 0 0 1 -33.852,-42.575855 33.851997,42.575855 0 0 1 33.852,-42.575855 33.851997,42.575855 0 0 1 33.852,42.575855"
         style="opacity:1;fill:#803300;fill-opacity:1;fill-rule:evenodd;stroke:none;stroke-width:2.15622;stroke-linecap:round;stroke-linejoin:round;stroke-miterlimit:4;stroke-dasharray:none;stroke-dashoffset:0;stroke-opacity:1"
         id="ellipse2537" />
      <path
         inkscape:connector-curvature="0"
         style="opacity:1;fill:#00d400;fill-opacity:1;fill-rule:evenodd;stroke:none;stroke-width:2.15621924;stroke-linecap:round;stroke-linejoin:round;stroke-miterlimit:4;stroke-dasharray:none;stroke-dashoffset:0;stroke-opacity:1"
         d="m 475.85556,75.71101 c -20.8007,0 -37.54575,16.74504 -37.54575,37.54575 v 36.74325 h 75.0915 v -36.74325 c 0,-20.80071 -16.74505,-37.54575 -37.54575,-37.54575 z"
         id="path2539" />
      <path
         sodipodi:nodetypes="cc"
         inkscape:connector-curvature="0"
         id="path2541"
         d="m 500.6874,88.42098 c 25.47106,-3.87806 39.08535,50.58795 0.40381,46.50421"
         style="fill:none;fill-rule:evenodd;stroke:#000000;stroke-width:3.08351779;stroke-linecap:butt;stroke-linejoin:miter;stroke-miterlimit:4;stroke-dasharray:none;stroke-opacity:1" />
      <path
         style="fill:none;fill-rule:evenodd;stroke:#000000;stroke-width:3.08351779;stroke-linecap:butt;stroke-linejoin:miter;stroke-miterlimit:4;stroke-dasharray:none;stroke-opacity:1"
         d="m 453.92104,87.70181 c -25.47107,-3.87807 -34.74985,49.95901 8.54373,25.03009"
         id="path2543"
         inkscape:connector-curvature="0"
         sodipodi:nodetypes="cc" />
      <path
         inkscape:connector-curvature="0"
         id="path2545"
         d="m 475.8553,75.71101 c -12.82553,0 -24.1012,6.37197 -30.86831,16.12975 H 506.7251 C 499.958,82.08298 488.68082,75.71101 475.8553,75.71101 Z"
         style="opacity:1;fill:#00d400;fill-opacity:1;fill-rule:evenodd;stroke:none;stroke-width:2.15621924;stroke-linecap:round;stroke-linejoin:round;stroke-miterlimit:4;stroke-dasharray:none;stroke-dashoffset:0;stroke-opacity:1" />
      <path
         d="M 504.33906,49.169563 A 28.483473,28.483473 0 0 1 475.85559,77.653036 28.483473,28.483473 0 0 1 447.37212,49.169563 28.483473,28.483473 0 0 1 475.85559,20.68609 28.483473,28.483473 0 0 1 504.33906,49.169563"
         style="opacity:1;fill:#ffcc00;fill-opacity:1;fill-rule:evenodd;stroke:none;stroke-width:2.15622;stroke-linecap:round;stroke-linejoin:round;stroke-miterlimit:4;stroke-dasharray:none;stroke-dashoffset:0;stroke-opacity:1"
         id="circle2547" />
      <g
         transform="matrix(0.09320613,0.12082765,-0.14906441,0.07555041,673.35054,103.86954)"
         id="g2553">
        <path
           d="m -628.53305,849.36151 h 73.79711 c 12.68801,0 22.90255,10.21454 22.90255,22.90255 v 175.58624 c 0,12.688 -10.21454,22.9026 -22.90255,22.9026 h -73.79711 c -12.68802,0 -22.90256,-10.2146 -22.90256,-22.9026 V 872.26406 c 0,-12.68801 10.21454,-22.90255 22.90256,-22.90255 z"
           style="opacity:1;fill:#4d4d4d;fill-opacity:1;fill-rule:evenodd;stroke:none;stroke-width:3;stroke-linecap:round;stroke-linejoin:round;stroke-miterlimit:4;stroke-dasharray:none;stroke-dashoffset:0;stroke-opacity:1"
           id="rect2549" />
        <path
           d="m -578.91088,876.77594 a 12.72364,12.72364 0 0 1 -12.72364,12.72364 12.72364,12.72364 0 0 1 -12.72364,-12.72364 12.72364,12.72364 0 0 1 12.72364,-12.72364 12.72364,12.72364 0 0 1 12.72364,12.72364"
           style="opacity:1;fill:#e6e6e6;fill-opacity:1;fill-rule:evenodd;stroke:none;stroke-width:3;stroke-linecap:round;stroke-linejoin:round;stroke-miterlimit:4;stroke-dasharray:none;stroke-dashoffset:0;stroke-opacity:1"
           id="circle2551" />
      </g>
      <path
         d="m 464.06454,114.38152 a 5.8261638,5.8261638 0 0 1 -5.82617,5.82617 5.8261638,5.8261638 0 0 1 -5.82616,-5.82617 5.8261638,5.8261638 0 0 1 5.82616,-5.82616 5.8261638,5.8261638 0 0 1 5.82617,5.82616"
         style="opacity:1;fill:#ffcc00;fill-opacity:1;fill-rule:evenodd;stroke:none;stroke-width:2.15622;stroke-linecap:round;stroke-linejoin:round;stroke-miterlimit:4;stroke-dasharray:none;stroke-dashoffset:0;stroke-opacity:1"
         id="circle2555" />
      <path
         d="m 406.60442,-333.2822 h 2.6442 c 1.99387,0 3.59905,1.60518 3.59905,3.59905 v 13.77028 c 0,1.99387 -1.60518,3.59905 -3.59905,3.59905 h -2.6442 c -1.99387,0 -3.59905,-1.60518 -3.59905,-3.59905 v -13.77028 c 0,-1.99387 1.60518,-3.59905 3.59905,-3.59905 z"
         transform="rotate(50.980641)"
         style="opacity:1;fill:#ff0000;fill-opacity:1;fill-rule:evenodd;stroke:none;stroke-width:2.15622;stroke-linecap:round;stroke-linejoin:round;stroke-miterlimit:4;stroke-dasharray:none;stroke-dashoffset:0;stroke-opacity:1"
         id="rect2557" />
      <path
         d="m 405.16219,-325.67679 h 5.52878 c 4.16901,0 7.52528,3.35628 7.52528,7.52529 v 28.79239 c 0,4.16901 -3.35627,7.52529 -7.52528,7.52529 h -5.52878 c -4.16901,0 -7.52529,-3.35628 -7.52529,-7.52529 v -28.79239 c 0,-4.16901 3.35628,-7.52529 7.52529,-7.52529 z"
         transform="rotate(50.980641)"
         style="opacity:1;fill:#2b0000;fill-opacity:1;fill-rule:evenodd;stroke:none;stroke-width:2.15622;stroke-linecap:round;stroke-linejoin:round;stroke-miterlimit:4;stroke-dasharray:none;stroke-dashoffset:0;stroke-opacity:1"
         id="rect2559" />
      <path
         style="opacity:1;fill:#ff0000;fill-opacity:1;fill-rule:evenodd;stroke:none;stroke-width:2.15621924;stroke-linecap:round;stroke-linejoin:round;stroke-miterlimit:4;stroke-dasharray:none;stroke-dashoffset:0;stroke-opacity:1"
         d="m 494.68504,110.93873 -16.68325,13.51917 12.9561,15.98841 16.68325,-13.51917 z"
         id="path2561"
         inkscape:connector-curvature="0" />
      <path
         d="m 505.37075,135.00964 a 5.8261638,5.8261638 0 0 1 -5.82616,5.82617 5.8261638,5.8261638 0 0 1 -5.82617,-5.82617 5.8261638,5.8261638 0 0 1 5.82617,-5.82616 5.8261638,5.8261638 0 0 1 5.82616,5.82616"
         style="opacity:1;fill:#ffcc00;fill-opacity:1;fill-rule:evenodd;stroke:none;stroke-width:2.15622;stroke-linecap:round;stroke-linejoin:round;stroke-miterlimit:4;stroke-dasharray:none;stroke-dashoffset:0;stroke-opacity:1"
         id="circle2563" />
      <path
         inkscape:connector-curvature="0"
         id="path2565"
         d="m 475.98779,83.01781 a 33.852,23.562323 0 0 1 -0.13249,0.003 33.852,23.562323 0 0 1 -0.0964,-0.003 33.852,33.852 0 0 0 0.0964,0.004 33.852,33.852 0 0 0 0.13249,-0.004 z"
         style="opacity:1;fill:#803300;fill-opacity:1;fill-rule:evenodd;stroke:none;stroke-width:2.15621924;stroke-linecap:round;stroke-linejoin:round;stroke-miterlimit:4;stroke-dasharray:none;stroke-dashoffset:0;stroke-opacity:1" />
      <path
         inkscape:connector-curvature="0"
         id="path2567"
         d="m 475.8553,15.31742 a 33.852,33.852 0 0 0 -33.85245,33.85245 33.852,33.852 0 0 0 0.57063,6.09477 33.852,23.562323 0 0 1 0.10539,-0.48632 33.852,23.562323 0 0 1 0.83713,-2.28253 33.852,23.562323 0 0 1 1.15932,-2.21176 33.852,23.562323 0 0 1 1.47251,-2.12143 33.852,23.562323 0 0 1 1.7691,-2.00699 33.852,23.562323 0 0 1 2.04765,-1.87601 33.852,23.562323 0 0 1 2.30662,-1.72243 33.852,23.562323 0 0 1 2.54149,-1.55531 33.852,23.562323 0 0 1 2.75229,-1.37012 33.852,23.562323 0 0 1 2.93596,-1.17138 33.852,23.562323 0 0 1 3.08804,-0.96209 33.852,23.562323 0 0 1 3.2115,-0.74227 33.852,23.562323 0 0 1 3.30183,-0.51643 33.852,23.562323 0 0 1 3.35904,-0.28306 33.852,23.562323 0 0 1 2.39395,-0.0602 33.852,23.562323 0 0 1 3.38011,0.11895 33.852,23.562323 0 0 1 3.34551,0.35081 33.852,23.562323 0 0 1 3.27925,0.58267 33.852,23.562323 0 0 1 3.17837,0.80853 33.852,23.562323 0 0 1 3.04588,1.02382 33.852,23.562323 0 0 1 2.88478,1.2316 33.852,23.562323 0 0 1 2.69506,1.42582 33.852,23.562323 0 0 1 2.47525,1.605 33.852,23.562323 0 0 1 2.23284,1.76911 33.852,23.562323 0 0 1 1.96935,1.91515 33.852,23.562323 0 0 1 1.68329,2.04313 33.852,23.562323 0 0 1 1.38217,2.15003 33.852,23.562323 0 0 1 1.06748,2.23586 33.852,23.562323 0 0 1 0.66248,2.05367 33.852,33.852 0 0 0 0.57062,-6.04057 33.852,33.852 0 0 0 -33.85244,-33.85245 z"
         style="opacity:1;fill:#aa4400;fill-opacity:1;fill-rule:evenodd;stroke:none;stroke-width:2.15621924;stroke-linecap:round;stroke-linejoin:round;stroke-miterlimit:4;stroke-dasharray:none;stroke-dashoffset:0;stroke-opacity:1" />
      <g
         id="g2573"
         transform="matrix(0.17580552,0,0,0.17580552,700.08141,-6.4763)">
        <path
           d="m -1305.3113,334.33255 a 22.09322,22.09322 0 0 1 -22.0932,22.09322 22.09322,22.09322 0 0 1 -22.0933,-22.09322 22.09322,22.09322 0 0 1 22.0933,-22.09322 22.09322,22.09322 0 0 1 22.0932,22.09322"
           style="opacity:1;fill:#000000;fill-opacity:1;fill-rule:evenodd;stroke:none;stroke-width:3;stroke-linecap:round;stroke-linejoin:round;stroke-miterlimit:4;stroke-dasharray:none;stroke-dashoffset:0;stroke-opacity:1"
           id="circle2569" />
        <path
           d="m -1191.163,334.33255 a 22.09322,22.09322 0 0 1 -22.0932,22.09322 22.09322,22.09322 0 0 1 -22.0932,-22.09322 22.09322,22.09322 0 0 1 22.0932,-22.09322 22.09322,22.09322 0 0 1 22.0932,22.09322"
           style="opacity:1;fill:#000000;fill-opacity:1;fill-rule:evenodd;stroke:none;stroke-width:3;stroke-linecap:round;stroke-linejoin:round;stroke-miterlimit:4;stroke-dasharray:none;stroke-dashoffset:0;stroke-opacity:1"
           id="circle2571" />
      </g>
      <path
         id="path2575"
         d="m 466.66853,64.0584 a 11.921796,17.802169 0 0 0 9.1845,6.47419 11.921796,17.802169 0 0 0 9.18957,-6.47419 z"
         style="opacity:1;fill:#000000;fill-opacity:1;fill-rule:evenodd;stroke:none;stroke-width:2.15621924;stroke-linecap:round;stroke-linejoin:round;stroke-miterlimit:4;stroke-dasharray:none;stroke-dashoffset:0;stroke-opacity:1"
         inkscape:connector-curvature="0" />
      <path
         id="path2525"
         style="fill:#de8787;fill-rule:evenodd;stroke:none;stroke-width:0.39843822"
         inkscape:connector-curvature="0"
         d="m 402.15103,124.18593 c 4.51033,0.48743 13.71159,-5.3789 8.96487,-17.08502 -4.7454,-11.70745 -19.44379,-9.16674 -21.51567,-2.42651 -0.3918,1.27501 6.04564,2.61908 8.75369,7.80541 2.70938,5.18503 1.59641,11.46972 3.79711,11.70612 z"
         sodipodi:nodetypes="csszs" />
      <path
         id="path2527"
         style="fill:#de8787;fill-rule:evenodd;stroke:none;stroke-width:0.39843822"
         inkscape:connector-curvature="0"
         d="m 384.3528,100.49081 c 2.56328,-0.89648 7.60884,-3.92993 5.66844,-5.55688 -2.90992,0.99742 -7.50657,-7.31827 -16.03448,-1.82618 -4.8968,3.15296 1.62165,11.98768 -0.0186,14.29994 2.27774,-3.79977 3.71344,-4.59265 10.38463,-6.91688 z"
         sodipodi:nodetypes="ccscs" />
      <path
         id="path2529"
         style="fill:#de8787;fill-rule:evenodd;stroke:none;stroke-width:0.39843822"
         inkscape:connector-curvature="0"
         d="m 371.14988,119.65171 c -1.26039,1.68008 -4.11321,2.42517 -4.27126,6.01109 -0.15937,3.63908 2.88603,10.17347 7.32994,11.44316 4.42931,1.2657 4.90478,-0.15804 7.17189,-0.0518 2.21531,0.10227 2.37336,-8.80682 -1.5818,-12.97316 -3.9286,-4.13844 -6.80267,-4.79852 -8.64877,-4.42929 z"
         sodipodi:nodetypes="czzzzc" />
      <path
         id="path2531"
         style="fill:#e9afaf;stroke:none;stroke-width:0.39843822"
         d="m 368.32761,122.22164 c -0.76653,0.80553 -1.37793,1.83905 -1.44846,3.4449 -0.15932,3.6384 2.8847,10.17585 7.32967,11.44684 1.65286,0.47235 2.75241,0.56817 3.60255,0.51053 0.22655,-1.0192 0.35278,-2.08941 0.35278,-3.19575 0,-6.66401 -4.38734,-12.07893 -9.83638,-12.20629 z"
         inkscape:connector-curvature="0" />
      <path
         id="path2533"
         style="opacity:0.9;fill:#a8443f;fill-rule:evenodd;stroke:none;stroke-width:3"
         d="m 648.58,197.53 c 0,0 53.17,-24.13 87.59,5.62 45.49,39.3 3.93,142.06 3.93,142.06 z"
         clip-path="url(#clipPath3671-0-6)"
         sodipodi:nodetypes="cscc"
         transform="matrix(0.13281275,0,0,0.13281275,302.76327,79.3271)"
         inkscape:connector-curvature="0" />
      <path
         id="path2535"
         style="opacity:0.9;fill:#a8443e;fill-rule:evenodd;stroke:none;stroke-width:3"
         d="m 213.76,163.84 c -27.51,-7.3 -62.33,-54.47 -82.54,-35.94 -14.93,13.68 16.28,76.37 7.86,83.67 -8.42,7.3 88.21,-44 74.68,-47.73 z"
         clip-path="url(#clipPath3903-7-2)"
         sodipodi:nodetypes="cssc"
         transform="matrix(0.13281275,0,0,0.13281275,355.88837,79.3271)"
         inkscape:connector-curvature="0" />
      <path
         id="path2537"
         style="opacity:0.95;fill:#a73c39;fill-rule:evenodd;stroke:none;stroke-width:0.39843822"
         inkscape:connector-curvature="0"
         d="m 368.17222,125.82219 c -0.4768,0.4436 -0.21383,3.90204 0.23375,5.27267 0.44758,1.37061 1.38125,2.54468 1.68805,2.32155 0.29086,-0.21116 0.36656,-1.9975 0.0558,-3.37609 -0.31742,-1.39719 -0.40773,-3.79977 -0.84336,-3.9565 -0.42633,-0.15404 -0.67203,-0.69196 -1.13422,-0.26163 z m 3.48102,2.76648 c -0.49008,0.33337 -0.60562,2.71071 -0.45023,4.11323 0.20054,1.5539 1.37992,3.71741 2.45172,3.98303 1.0718,0.2643 1.3175,-0.0784 1.0811,-1.63492 -0.23774,-1.55523 -0.86993,-3.11047 -0.97485,-4.11321 -0.10625,-1.00141 -0.0306,-1.42639 -0.68664,-1.89656 -0.65743,-0.47149 -0.93234,-0.78493 -1.4211,-0.45157 z"
         sodipodi:nodetypes="czzzzzcczzzzz" />
      <path
         id="path2540"
         style="fill:#de8787;fill-rule:evenodd;stroke:none;stroke-width:0.39843822"
         inkscape:connector-curvature="0"
         d="m 406.33464,93.74127 c -5.97791,0.0186 -11.91995,2.26579 -14.79534,4.04282 0.13281,0.47545 2.28305,1.10368 2.87938,1.06648 6.08548,-1.89258 11.64103,-4.23539 17.37456,-3.72673 -0.12484,-0.30811 -0.50601,-0.62553 -1.00008,-0.92969 -1.45695,-0.31875 -2.95907,-0.45687 -4.45852,-0.45288 z" />
      <path
         id="path2542"
         style="opacity:0.75;fill:#aa4b45;fill-rule:evenodd;stroke:none;stroke-width:0.39843822"
         inkscape:connector-curvature="0"
         d="m 407.59636,94.95385 c -4.98048,0.0412 -9.6369,1.47157 -14.18308,3.73469 0.41969,0.10757 0.79954,0.17399 1.00008,0.16203 5.48916,-1.70665 10.54666,-3.78118 15.69316,-3.79711 -0.84602,-0.073 -1.68407,-0.10759 -2.51016,-0.0996 z" />
      <path
         d="m 386.22648,-77.920128 a 1.2979795,2.473177 0 0 1 -1.29798,2.473177 1.2979795,2.473177 0 0 1 -1.29798,-2.473177 1.2979795,2.473177 0 0 1 1.29798,-2.473177 1.2979795,2.473177 0 0 1 1.29798,2.473177"
         transform="rotate(28.169503)"
         style="fill:#ffffff;stroke:none;stroke-width:0.476153"
         id="ellipse2544" />
      <path
         id="path2546"
         style="fill:#2b1100;stroke:none;stroke-width:0.47614652"
         d="m 377.0857,112.92279 c -0.18875,0.76483 -1.34715,1.63016 -1.97911,1.29174 -0.63193,-0.33842 -0.60786,-1.81847 -0.0613,-2.40563 0.31461,-0.33797 0.75182,-0.40226 1.38376,-0.0638 0.63194,0.3384 0.76436,0.74136 0.65667,1.17774 z"
         sodipodi:nodetypes="asasa"
         inkscape:connector-curvature="0" />
      <path
         d="m 396.15598,-78.434319 a 1.4792192,2.8185122 0 0 1 -1.47922,2.818513 1.4792192,2.8185122 0 0 1 -1.47922,-2.818513 1.4792192,2.8185122 0 0 1 1.47922,-2.818512 1.4792192,2.8185122 0 0 1 1.47922,2.818512"
         transform="rotate(28.169742)"
         style="fill:#ffffff;stroke:none;stroke-width:0.476148"
         id="ellipse2548" />
      <path
         id="path2550"
         style="fill:#2b1100;stroke:none;stroke-width:0.47615057"
         d="m 386.03478,117.19721 c -0.21511,0.87165 -1.53527,1.8578 -2.25546,1.47213 -0.72018,-0.38568 -0.69274,-2.07238 -0.0699,-2.74155 0.35854,-0.38517 0.8568,-0.45842 1.57698,-0.0728 0.72018,0.38568 0.87109,0.84488 0.74836,1.34221 z"
         sodipodi:nodetypes="asasa"
         inkscape:connector-curvature="0" />
      <path
         d="m 408.97125,87.182304 a 7.9703908,8.3839102 0 0 1 -7.9704,8.383911 7.9703908,8.3839102 0 0 1 -7.97039,-8.383911 7.9703908,8.3839102 0 0 1 7.97039,-8.38391 7.9703908,8.3839102 0 0 1 7.9704,8.38391"
         style="opacity:1;fill:#f5d558;fill-opacity:1;fill-rule:nonzero;stroke:none;stroke-width:1.14748;stroke-linecap:round;stroke-linejoin:round;stroke-miterlimit:4;stroke-dasharray:none;stroke-dashoffset:0;stroke-opacity:1"
         id="ellipse2552" />
      <path
         d="m 407.11381,87.182304 a 6.1129584,6.1129584 0 0 1 -6.11296,6.112959 6.1129584,6.1129584 0 0 1 -6.11295,-6.112959 6.1129584,6.1129584 0 0 1 6.11295,-6.112958 6.1129584,6.1129584 0 0 1 6.11296,6.112958"
         style="opacity:1;fill:#cbc4ac;fill-opacity:1;fill-rule:nonzero;stroke:none;stroke-width:1.14748;stroke-linecap:round;stroke-linejoin:round;stroke-miterlimit:4;stroke-dasharray:none;stroke-dashoffset:0;stroke-opacity:1"
         id="circle2554" />
      <path
         d="m 401.99828,80.50042 a 5.8357081,5.8357081 0 0 1 -5.83571,5.835708 5.8357081,5.8357081 0 0 1 -5.83571,-5.835708 5.8357081,5.8357081 0 0 1 5.83571,-5.835709 5.8357081,5.8357081 0 0 1 5.83571,5.835709"
         style="opacity:1;fill:#ffcc00;fill-opacity:1;fill-rule:evenodd;stroke:none;stroke-width:0.492549;stroke-linecap:round;stroke-linejoin:round;stroke-miterlimit:4;stroke-dasharray:none;stroke-dashoffset:0;stroke-opacity:1"
         id="circle2556" />
      <g
         aria-label="Mieux choisir ses aliments avec ses propres critères ?"
         style="font-style:normal;font-variant:normal;font-weight:normal;font-stretch:normal;font-size:29.3808px;line-height:1.25;font-family:arial;-inkscape-font-specification:arial;letter-spacing:0px;word-spacing:0px;fill:#ffffff;fill-opacity:1;stroke:none;stroke-width:0.73452"
         id="text2642"
         transform="translate(3.0369719,19.234155)">
        <path
           d="M 35.740093,76.318718 H 191.86091 V 112.26507 H 35.740093 Z"
           transform="matrix(0.99997251,-0.00741478,0.00504907,0.99998725,0,0)"
           style="opacity:1;fill:#ff6600;fill-opacity:1;fill-rule:nonzero;stroke:none;stroke-width:9.84517;stroke-miterlimit:4;stroke-dasharray:none;stroke-opacity:1"
           id="rect2630-4" />
        <path
           d="M 16.240616,3.9083359 H 66.235939 V 39.854476 H 16.240616 Z"
           transform="matrix(0.99989672,-0.01437211,0.00190925,0.99999818,0,0)"
           style="opacity:1;fill:#ff0066;fill-opacity:1;fill-rule:nonzero;stroke:none;stroke-width:5.57129;stroke-miterlimit:4;stroke-dasharray:none;stroke-opacity:1"
           id="rect2632-4" />
        <g
           style="font-style:normal;font-variant:normal;font-weight:normal;font-stretch:normal;font-size:29.3808px;line-height:1.25;font-family:arial;-inkscape-font-specification:arial;letter-spacing:0px;word-spacing:0px;fill:#ffffff;fill-opacity:1;stroke:none;stroke-width:0.73452"
           id="text2642-6"
           aria-label="בחירות מזון
איכותיות ופשוטות
יותר בתנאים שלך?‏">
          <path
             id="path313"
             style="font-style:normal;font-variant:normal;font-weight:normal;font-stretch:normal;font-family:arial;-inkscape-font-specification:arial;fill:#ffffff;stroke-width:0.73452"
             d="m 150.34918,25.211911 h 2.42449 v 2.295375 h -14.56129 v -2.295375 h 9.3967 v -5.193286 q 0,-2.123222 -0.47343,-3.184833 -0.47342,-1.075957 -1.72153,-1.707185 -1.23376,-0.631228 -3.8591,-0.631228 -0.93249,0 -2.88356,0.200845 l -0.22954,-2.266683 q 1.93672,-0.315614 4.11733,-0.315614 4.10298,0 5.93928,1.778916 1.85065,1.778916 1.85065,5.394131 z" />
          <path
             id="path315"
             style="font-style:normal;font-variant:normal;font-weight:normal;font-stretch:normal;font-family:arial;-inkscape-font-specification:arial;fill:#ffffff;stroke-width:0.73452"
             d="m 135.38621,27.507286 h -2.7401 v -8.249004 q 0,-1.678493 -0.373,-2.639681 -0.373,-0.961188 -1.492,-1.535032 -1.11899,-0.58819 -3.21352,-0.58819 -1.21942,0 -2.72576,0.200845 v 12.811062 h -2.7401 V 12.616041 q 3.07006,-0.502114 5.63801,-0.502114 2.81184,0 4.51902,0.832074 1.72153,0.817727 2.42449,2.194952 0.70296,1.377225 0.70296,3.844753 z" />
          <path
             id="path317"
             style="font-style:normal;font-variant:normal;font-weight:normal;font-stretch:normal;font-family:arial;-inkscape-font-specification:arial;fill:#ffffff;stroke-width:0.73452"
             d="m 117.66878,12.28608 v 7.876006 H 114.8713 V 12.28608 Z" />
          <path
             id="path319"
             style="font-style:normal;font-variant:normal;font-weight:normal;font-stretch:normal;font-family:arial;-inkscape-font-specification:arial;fill:#ffffff;stroke-width:0.73452"
             d="m 98.24417,12.429541 q 2.2093,-0.315614 4.05994,-0.315614 4.61945,0 6.42705,1.793262 1.82196,1.778916 1.82196,5.379785 v 8.220312 h -2.72576 v -7.488661 q 0,-2.080184 -0.44473,-3.141794 -0.44473,-1.061611 -1.70718,-1.721532 -1.26246,-0.65992 -3.52914,-0.65992 -1.53503,0 -3.672603,0.286922 z" />
          <path
             id="path321"
             style="font-style:normal;font-variant:normal;font-weight:normal;font-stretch:normal;font-family:arial;-inkscape-font-specification:arial;fill:#ffffff;stroke-width:0.73452"
             d="M 95.461028,12.28608 V 27.507286 H 92.66354 V 12.28608 Z" />
          <path
             id="path323"
             style="font-style:normal;font-variant:normal;font-weight:normal;font-stretch:normal;font-family:arial;-inkscape-font-specification:arial;fill:#ffffff;stroke-width:0.73452"
             d="m 72.13428,27.148634 0.473421,-2.051492 q 0.745997,0.25823 1.621109,0.25823 0.98988,0 1.362879,-0.430383 0.372998,-0.444729 0.372998,-1.592416 v -8.77981 q -1.233764,0 -3.027026,0.25823 l -0.243883,-2.281029 q 3.270909,-0.416037 6.642241,-0.416037 3.41437,0 5.25067,0.573844 1.8363,0.573844 2.797489,2.108876 0.975534,1.520686 0.975534,4.490327 v 8.220312 h -2.740104 v -7.488661 q 0,-2.223644 -0.344306,-3.256563 -0.32996,-1.032919 -1.463302,-1.678493 -1.133341,-0.645574 -3.74433,-0.645574 l -1.377225,0.02869 v 9.224538 q 0,1.434609 -0.272576,2.194952 -0.25823,0.760343 -1.104649,1.248111 -0.832074,0.487767 -2.49622,0.487767 -1.348533,0 -2.68272,-0.473421 z" />
          <path
             id="path325"
             style="font-style:normal;font-variant:normal;font-weight:normal;font-stretch:normal;font-family:arial;-inkscape-font-specification:arial;fill:#ffffff;stroke-width:0.73452"
             d="m 49.237918,18.6414 -2.35276,-6.35532 h 2.68272 l 1.118995,3.356986 q 0.674266,-1.477647 2.108876,-2.49622 1.434609,-1.032919 3.08441,-1.032919 1.750223,0 3.01268,0.903804 1.276802,0.889458 1.850646,2.610989 0.573844,1.721532 0.573844,5.17894 v 6.699626 h -7.847314 v -2.295375 h 5.078517 v -4.461635 q 0,-2.524913 -0.172153,-3.6726 -0.157807,-1.162034 -0.846419,-1.879338 -0.674267,-0.731651 -1.707185,-0.731651 -1.606763,0 -2.740104,1.664147 -1.118996,1.6498 -1.908031,5.738437 l -1.075957,5.638015 h -2.768796 l 1.205072,-5.939283 q 0.172153,-0.846419 0.702959,-2.926603 z" />
          <path
             id="path327"
             style="font-style:normal;font-variant:normal;font-weight:normal;font-stretch:normal;font-family:arial;-inkscape-font-specification:arial;fill:#ffffff;stroke-width:0.73452"
             d="m 45.077549,14.222803 q -2.194953,0 -3.443063,1.262456 -1.233764,1.248111 -1.233764,3.356986 0,0.416037 0.129115,1.621109 0.372998,3.471755 0.372998,4.935056 v 2.108876 h -2.75445 v -2.49622 q 0,-1.520686 -0.286922,-4.676827 -0.100422,-1.061611 -0.100422,-1.764569 0,-2.367106 1.936722,-3.988215 H 35.85301 V 12.28608 h 9.224539 z" />
          <path
             id="path329"
             style="font-style:normal;font-variant:normal;font-weight:normal;font-stretch:normal;font-family:arial;-inkscape-font-specification:arial;fill:#ffffff;stroke-width:0.73452"
             d="M 32.280833,12.28608 V 27.507286 H 29.483345 V 12.28608 Z" />
          <path
             id="path331"
             style="font-style:normal;font-variant:normal;font-weight:normal;font-stretch:normal;font-family:arial;-inkscape-font-specification:arial;fill:#ffffff;stroke-width:0.73452"
             d="M 25.050402,12.28608 V 33.360492 H 22.252914 V 12.28608 Z" />
          <path
             id="path333"
             style="font-style:normal;font-variant:normal;font-weight:normal;font-stretch:normal;font-family:arial;-inkscape-font-specification:arial;fill:#ffffff;stroke-width:0.73452"
             d="m 218.5505,64.233286 h -3.38567 l -5.81017,-8.220311 q -1.34854,0.73165 -1.59242,2.955295 l -0.61688,5.265016 h -2.84053 l 0.61688,-5.265016 q 0.43039,-3.6726 2.98399,-4.963749 l -3.54348,-4.99244 h 3.37133 l 4.87767,6.814394 q 0.88946,-0.588189 1.23376,-1.31984 0.35866,-0.745997 0.5595,-2.438836 l 0.35865,-3.055718 h 2.84053 l -0.3443,3.141794 q -0.22954,2.0228 -0.91815,3.328294 -0.67427,1.291149 -2.35276,2.309721 z" />
          <path
             id="path335"
             style="font-style:normal;font-variant:normal;font-weight:normal;font-stretch:normal;font-family:arial;-inkscape-font-specification:arial;fill:#ffffff;stroke-width:0.73452"
             d="m 200.5892,49.012081 v 7.876005 h -2.79749 v -7.876005 z" />
          <path
             id="path337"
             style="font-style:normal;font-variant:normal;font-weight:normal;font-stretch:normal;font-family:arial;-inkscape-font-specification:arial;fill:#ffffff;stroke-width:0.73452"
             d="m 183.17305,64.032441 0.373,-2.467528 q 1.34853,0.430383 2.76879,0.430383 1.62111,0 2.72576,-0.659921 1.10465,-0.674266 1.69284,-1.893684 0.60254,-1.219418 0.60254,-2.811834 0,-2.395798 -1.3055,-3.902138 -1.29115,-1.50634 -3.71564,-1.50634 -1.43461,0 -2.76879,0.430383 l -0.373,-2.467528 q 1.67849,-0.430383 2.99833,-0.430383 3.81606,0 5.95363,2.223645 2.15191,2.223644 2.15191,5.652361 0,2.23799 -0.93249,3.959522 -0.91815,1.721531 -2.68272,2.797488 -1.76457,1.075957 -4.49033,1.075957 -1.33419,0 -2.99833,-0.430383 z" />
          <path
             id="path339"
             style="font-style:normal;font-variant:normal;font-weight:normal;font-stretch:normal;font-family:arial;-inkscape-font-specification:arial;fill:#ffffff;stroke-width:0.73452"
             d="m 179.81605,49.012081 v 15.221205 h -2.79748 V 49.012081 Z" />
          <path
             id="path341"
             style="font-style:normal;font-variant:normal;font-weight:normal;font-stretch:normal;font-family:arial;-inkscape-font-specification:arial;fill:#ffffff;stroke-width:0.73452"
             d="m 156.48931,63.874634 0.47342,-2.051491 q 0.746,0.258229 1.62111,0.258229 0.98988,0 1.36288,-0.430383 0.373,-0.444728 0.373,-1.592416 v -8.779809 q -1.23377,0 -3.02703,0.258229 l -0.24388,-2.281029 q 3.27091,-0.416036 6.64224,-0.416036 3.41437,0 5.25067,0.573843 1.8363,0.573844 2.79749,2.108876 0.97553,1.520686 0.97553,4.490328 v 8.220311 h -2.7401 v -7.488661 q 0,-2.223644 -0.34431,-3.256563 -0.32996,-1.032919 -1.4633,-1.678493 -1.13334,-0.645574 -3.74433,-0.645574 l -1.37723,0.02869 v 9.224538 q 0,1.43461 -0.27257,2.194953 -0.25823,0.760343 -1.10465,1.24811 -0.83207,0.487767 -2.49622,0.487767 -1.34853,0 -2.68272,-0.473421 z" />
          <path
             id="path343"
             style="font-style:normal;font-variant:normal;font-weight:normal;font-stretch:normal;font-family:arial;-inkscape-font-specification:arial;fill:#ffffff;stroke-width:0.73452"
             d="m 153.70616,49.012081 v 7.876005 h -2.79749 v -7.876005 z" />
          <path
             id="path345"
             style="font-style:normal;font-variant:normal;font-weight:normal;font-stretch:normal;font-family:arial;-inkscape-font-specification:arial;fill:#ffffff;stroke-width:0.73452"
             d="m 146.47575,49.012081 v 15.221205 h -2.79749 V 49.012081 Z" />
          <path
             id="path347"
             style="font-style:normal;font-variant:normal;font-weight:normal;font-stretch:normal;font-family:arial;-inkscape-font-specification:arial;fill:#ffffff;stroke-width:0.73452"
             d="m 123.14899,63.874634 0.47342,-2.051491 q 0.74599,0.258229 1.62111,0.258229 0.98988,0 1.36287,-0.430383 0.373,-0.444728 0.373,-1.592416 v -8.779809 q -1.23376,0 -3.02702,0.258229 l -0.24389,-2.281029 q 3.27091,-0.416036 6.64224,-0.416036 3.41438,0 5.25068,0.573843 1.8363,0.573844 2.79748,2.108876 0.97554,1.520686 0.97554,4.490328 v 8.220311 h -2.74011 v -7.488661 q 0,-2.223644 -0.3443,-3.256563 -0.32996,-1.032919 -1.4633,-1.678493 -1.13335,-0.645574 -3.74433,-0.645574 l -1.37723,0.02869 v 9.224538 q 0,1.43461 -0.27258,2.194953 -0.25822,0.760343 -1.10464,1.24811 -0.83208,0.487767 -2.49622,0.487767 -1.34854,0 -2.68272,-0.473421 z" />
          <path
             id="path349"
             style="font-style:normal;font-variant:normal;font-weight:normal;font-stretch:normal;font-family:arial;-inkscape-font-specification:arial;fill:#ffffff;stroke-width:0.73452"
             d="m 112.21727,49.012081 v 15.221205 h -2.79749 V 49.012081 Z" />
          <path
             id="path351"
             style="font-style:normal;font-variant:normal;font-weight:normal;font-stretch:normal;font-family:arial;-inkscape-font-specification:arial;fill:#ffffff;stroke-width:0.73452"
             d="m 92.878733,49.514194 q 2.481874,-0.760343 5.193286,-0.760343 3.342641,0 5.580631,1.965415 2.23799,1.965415 2.23799,5.695399 0,3.686946 -2.29537,5.867553 -2.29538,2.180606 -6.398363,2.180606 -2.797488,0 -4.418597,-1.018573 l 0.659921,-2.266683 q 1.405917,0.903804 3.572177,0.903804 2.453182,0 4.217752,-1.391571 1.77892,-1.405917 1.77892,-4.217751 0,-2.467529 -1.39158,-3.959522 -1.39157,-1.50634 -3.715634,-1.50634 -1.205072,0 -2.381452,0.272576 v 2.783142 q 0,1.764569 1.76457,1.764569 0.717304,0 1.205072,-0.172153 l 0.286922,1.994107 q -0.832074,0.358653 -1.936723,0.358653 -1.864992,0 -2.912257,-1.004227 -1.047265,-1.018573 -1.047265,-2.998334 z" />
          <path
             id="path353"
             style="font-style:normal;font-variant:normal;font-weight:normal;font-stretch:normal;font-family:arial;-inkscape-font-specification:arial;fill:#ffffff;stroke-width:0.73452"
             d="m 74.917424,49.012081 0.05738,2.467528 q 0.08608,3.801715 0.32996,5.265016 1.520686,0 2.740104,-0.760343 1.219418,-0.760343 1.219418,-2.883564 l 0.301268,-4.088637 h 2.75445 l -0.344307,4.791595 q -0.08608,1.219418 -0.272575,1.850646 -0.1865,0.631228 -0.774689,1.334187 -0.573844,0.702959 -1.8363,1.233764 -1.248111,0.516459 -3.371332,0.688613 0.358652,1.549378 1.664146,2.481874 1.305495,0.932496 3.213525,0.932496 1.76457,0 3.027026,-0.832074 1.262457,-0.846419 1.864992,-2.16626 0.602536,-1.334186 0.803382,-3.787369 l 0.616882,-6.527472 h 2.75445 l -0.51646,5.638015 q -0.301268,3.170486 -1.075957,5.279362 -0.774689,2.108876 -2.697065,3.414371 -1.908031,1.305494 -4.935057,1.305494 -2.682719,0 -4.504673,-1.291148 -1.807608,-1.305495 -2.711412,-3.715639 -0.889458,-2.410143 -0.889458,-6.42705 l -0.200845,-4.203405 z" />
          <path
             id="path355"
             style="font-style:normal;font-variant:normal;font-weight:normal;font-stretch:normal;font-family:arial;-inkscape-font-specification:arial;fill:#ffffff;stroke-width:0.73452"
             d="M 68.490375,49.012081 V 64.233286 H 65.692887 V 49.012081 Z" />
          <path
             id="path357"
             style="font-style:normal;font-variant:normal;font-weight:normal;font-stretch:normal;font-family:arial;-inkscape-font-specification:arial;fill:#ffffff;stroke-width:0.73452"
             d="m 48.147613,49.012081 h 2.740104 v 7.904698 q 0,3.371332 1.233764,4.447289 1.24811,1.075957 2.783143,1.075957 1.635454,0 2.582296,-0.760343 0.961189,-0.760343 1.248111,-1.979761 0.286921,-1.219418 0.286921,-3.285256 v -1.936722 q 0,-3.34264 -1.936722,-3.34264 -1.362879,0 -2.496221,1.520686 l -0.860765,-1.405918 q 1.549378,-2.553604 3.945176,-2.553604 2.008453,0 3.041372,1.57807 1.032918,1.57807 1.032918,4.619442 v 1.090303 q 0,2.955296 -0.573843,4.619443 -0.559498,1.664147 -2.166261,2.854872 -1.592416,1.190726 -4.102982,1.190726 -2.209299,0 -3.844754,-1.090303 -1.621108,-1.090303 -2.266682,-2.75445 -0.645575,-1.664147 -0.645575,-4.648134 z" />
          <path
             id="path359"
             style="font-style:normal;font-variant:normal;font-weight:normal;font-stretch:normal;font-family:arial;-inkscape-font-specification:arial;fill:#ffffff;stroke-width:0.73452"
             d="M 43.929861,49.012081 V 64.233286 H 41.132372 V 49.012081 Z" />
          <path
             id="path361"
             style="font-style:normal;font-variant:normal;font-weight:normal;font-stretch:normal;font-family:arial;-inkscape-font-specification:arial;fill:#ffffff;stroke-width:0.73452"
             d="m 20.603112,63.874634 0.473421,-2.051491 q 0.745997,0.258229 1.621109,0.258229 0.98988,0 1.362878,-0.430383 0.372999,-0.444728 0.372999,-1.592416 v -8.779809 q -1.233764,0 -3.027026,0.258229 L 21.16261,49.255964 q 3.270909,-0.416036 6.642241,-0.416036 3.41437,0 5.25067,0.573843 1.8363,0.573844 2.797489,2.108876 0.975534,1.520686 0.975534,4.490328 v 8.220311 H 34.08844 v -7.488661 q 0,-2.223644 -0.344306,-3.256563 -0.32996,-1.032919 -1.463302,-1.678493 -1.133341,-0.645574 -3.74433,-0.645574 l -1.377225,0.02869 v 9.224538 q 0,1.43461 -0.272576,2.194953 -0.25823,0.760343 -1.104649,1.24811 -0.832074,0.487767 -2.496221,0.487767 -1.348532,0 -2.682719,-0.473421 z" />
          <path
             id="path363"
             style="font-style:normal;font-variant:normal;font-weight:normal;font-stretch:normal;font-family:arial;-inkscape-font-specification:arial;fill:#ffffff;stroke-width:0.73452"
             d="m 234.3886,85.738081 v 7.876006 h -2.79749 v -7.876006 z" />
          <path
             id="path365"
             style="font-style:normal;font-variant:normal;font-weight:normal;font-stretch:normal;font-family:arial;-inkscape-font-specification:arial;fill:#ffffff;stroke-width:0.73452"
             d="m 227.15816,85.738081 v 15.221209 h -2.79749 V 85.738081 Z" />
          <path
             id="path367"
             style="font-style:normal;font-variant:normal;font-weight:normal;font-stretch:normal;font-family:arial;-inkscape-font-specification:arial;fill:#ffffff;stroke-width:0.73452"
             d="m 203.83143,100.60063 0.47342,-2.051487 q 0.746,0.25823 1.62111,0.25823 0.98988,0 1.36288,-0.430383 0.37299,-0.444729 0.37299,-1.592417 v -8.779809 q -1.23376,0 -3.02702,0.25823 l -0.24388,-2.281029 q 3.2709,-0.416037 6.64224,-0.416037 3.41437,0 5.25067,0.573844 1.8363,0.573843 2.79749,2.108876 0.97553,1.520685 0.97553,4.490327 v 8.220315 h -2.7401 v -7.488664 q 0,-2.223645 -0.34431,-3.256564 -0.32996,-1.032918 -1.4633,-1.678493 -1.13334,-0.645574 -3.74433,-0.645574 l -1.37723,0.02869 v 9.224539 q 0,1.434609 -0.27257,2.194952 -0.25823,0.760342 -1.10465,1.248112 -0.83208,0.48777 -2.49622,0.48777 -1.34854,0 -2.68272,-0.47343 z" />
          <path
             id="path369"
             style="font-style:normal;font-variant:normal;font-weight:normal;font-stretch:normal;font-family:arial;-inkscape-font-specification:arial;fill:#ffffff;stroke-width:0.73452"
             d="m 188.8541,85.881542 q 2.2093,-0.315614 4.05995,-0.315614 4.61944,0 6.42705,1.793262 1.82195,1.778915 1.82195,5.379785 v 8.220315 h -2.72576 v -7.488664 q 0,-2.080184 -0.44473,-3.141795 -0.44473,-1.061611 -1.70718,-1.721531 -1.26246,-0.65992 -3.52914,-0.65992 -1.53503,0 -3.6726,0.286921 z" />
          <path
             id="path371"
             style="font-style:normal;font-variant:normal;font-weight:normal;font-stretch:normal;font-family:arial;-inkscape-font-specification:arial;fill:#ffffff;stroke-width:0.73452"
             d="m 177.03292,98.663912 h 2.42449 v 2.295378 h -14.56129 v -2.295378 h 9.39669 v -5.193286 q 0,-2.123222 -0.47342,-3.184833 -0.47342,-1.075957 -1.72153,-1.707185 -1.23376,-0.631228 -3.8591,-0.631228 -0.93249,0 -2.88356,0.200845 l -0.22954,-2.266683 q 1.93672,-0.315614 4.11733,-0.315614 4.10298,0 5.93928,1.778916 1.85065,1.778915 1.85065,5.394131 z" />
          <path
             id="path373"
             style="font-style:normal;font-variant:normal;font-weight:normal;font-stretch:normal;font-family:arial;-inkscape-font-specification:arial;fill:#ffffff;stroke-width:0.73452"
             d="m 145.8732,100.60063 0.47342,-2.051487 q 0.746,0.25823 1.62111,0.25823 0.98988,0 1.36288,-0.430383 0.373,-0.444729 0.373,-1.592417 v -8.779809 q -1.23377,0 -3.02703,0.25823 l -0.24388,-2.281029 q 3.27091,-0.416037 6.64224,-0.416037 3.41437,0 5.25067,0.573844 1.8363,0.573843 2.79749,2.108876 0.97553,1.520685 0.97553,4.490327 v 8.220315 h -2.7401 v -7.488664 q 0,-2.223645 -0.34431,-3.256564 -0.32996,-1.032918 -1.4633,-1.678493 -1.13334,-0.645574 -3.74433,-0.645574 l -1.37723,0.02869 v 9.224539 q 0,1.434609 -0.27257,2.194952 -0.25823,0.760342 -1.10465,1.248112 -0.83208,0.48777 -2.49622,0.48777 -1.34853,0 -2.68272,-0.47343 z" />
          <path
             id="path375"
             style="font-style:normal;font-variant:normal;font-weight:normal;font-stretch:normal;font-family:arial;-inkscape-font-specification:arial;fill:#ffffff;stroke-width:0.73452"
             d="m 143.11875,100.95929 h -7.3452 v -2.295378 h 4.6051 v -7.459969 q 0,-1.233764 -0.1865,-1.864992 -0.1865,-0.645575 -0.80338,-1.032919 -0.60254,-0.387345 -1.62111,-0.387345 -0.87511,0 -1.56372,0.143461 l -0.20085,-2.180606 q 0.96119,-0.315614 2.35276,-0.315614 1.95107,0 2.98399,0.731651 1.03292,0.731651 1.40592,1.807608 0.37299,1.061611 0.37299,3.012679 z" />
          <path
             id="path377"
             style="font-style:normal;font-variant:normal;font-weight:normal;font-stretch:normal;font-family:arial;-inkscape-font-specification:arial;fill:#ffffff;stroke-width:0.73452"
             d="m 134.1381,100.95929 h -3.38568 l -5.81017,-8.220315 q -1.34853,0.731651 -1.59242,2.955295 l -0.61688,5.26502 h -2.84052 l 0.61688,-5.26502 q 0.43038,-3.6726 2.98398,-4.963748 l -3.54348,-4.992441 h 3.37133 l 4.87767,6.814395 q 0.88946,-0.58819 1.23377,-1.319841 0.35865,-0.745997 0.5595,-2.438836 l 0.35865,-3.055718 h 2.84052 l -0.3443,3.141795 q -0.22954,2.022799 -0.91815,3.328293 -0.67427,1.291149 -2.35276,2.309722 z" />
          <path
             id="path379"
             style="font-style:normal;font-variant:normal;font-weight:normal;font-stretch:normal;font-family:arial;-inkscape-font-specification:arial;fill:#ffffff;stroke-width:0.73452"
             d="m 116.17679,85.738081 v 7.876006 h -2.79749 v -7.876006 z" />
          <path
             id="path381"
             style="font-style:normal;font-variant:normal;font-weight:normal;font-stretch:normal;font-family:arial;-inkscape-font-specification:arial;fill:#ffffff;stroke-width:0.73452"
             d="M 109.04678,100.95929 H 95.762295 V 86.068041 q 3.070064,-0.502113 5.638015,-0.502113 2.81183,0 4.51902,0.832073 1.72153,0.817728 2.42449,2.194953 0.70296,1.377225 0.70296,3.844753 z m -2.74011,-2.295378 v -5.953629 q 0,-1.678493 -0.37299,-2.639682 -0.373,-0.961188 -1.492,-1.535032 -1.11899,-0.588189 -3.21352,-0.588189 -1.21942,0 -2.725761,0.200845 v 10.515687 z" />
          <path
             id="path383"
             style="font-style:normal;font-variant:normal;font-weight:normal;font-stretch:normal;font-family:arial;-inkscape-font-specification:arial;fill:#ffffff;stroke-width:0.73452"
             d="m 69.178983,85.738081 0.05738,2.467528 q 0.08608,3.801715 0.32996,5.265017 1.520686,0 2.740104,-0.760343 1.219418,-0.760343 1.219418,-2.883565 l 0.301268,-4.088637 h 2.75445 l -0.344306,4.791595 q -0.08608,1.219418 -0.272576,1.850647 -0.186499,0.631228 -0.774689,1.334186 -0.573844,0.702959 -1.8363,1.233764 -1.24811,0.51646 -3.371332,0.688613 0.358652,1.549378 1.664147,2.481874 1.305495,0.932496 3.213525,0.932496 1.76457,0 3.027026,-0.832073 1.262456,-0.84642 1.864992,-2.16626 0.602536,-1.334187 0.803381,-3.787369 l 0.616882,-6.527473 h 2.75445 l -0.516459,5.638015 q -0.301268,3.170487 -1.075957,5.279363 -0.774689,2.108875 -2.697066,3.414371 -1.90803,1.30549 -4.935056,1.30549 -2.68272,0 -4.504674,-1.29115 -1.807607,-1.30549 -2.711411,-3.715633 -0.889458,-2.410144 -0.889458,-6.42705 l -0.200845,-4.203406 z" />
          <path
             id="path385"
             style="font-style:normal;font-variant:normal;font-weight:normal;font-stretch:normal;font-family:arial;-inkscape-font-specification:arial;fill:#ffffff;stroke-width:0.73452"
             d="m 54.947661,85.738081 h 8.435503 v 3.787369 q 0,1.606762 -0.301268,2.610989 -0.301268,0.98988 -1.047265,2.008453 l -0.774689,1.032919 q -1.162033,1.563724 -1.162033,3.34264 v 2.438839 h -2.740104 v -2.051495 q 0,-1.850646 0.358652,-2.783142 0.372998,-0.932496 1.075957,-1.8363 L 59.65318,93.19805 q 0.631228,-0.803381 0.803381,-1.448956 0.186499,-0.645574 0.186499,-1.664146 v -2.051492 h -8.421157 v -8.105543 h 2.725758 z" />
          <path
             id="path387"
             style="font-style:normal;font-variant:normal;font-weight:normal;font-stretch:normal;font-family:arial;-inkscape-font-specification:arial;fill:#ffffff;stroke-width:0.73452"
             d="m 36.95766,85.881542 q 2.209298,-0.315614 4.045598,-0.315614 4.275136,0 6.269243,1.635455 1.994107,1.621108 1.994107,5.537592 V 106.81249 H 46.526504 V 93.470626 q 0,-2.481875 -0.645574,-3.529139 -0.631228,-1.047265 -1.951069,-1.520686 -1.31984,-0.473421 -3.070064,-0.473421 -1.549378,0 -3.6726,0.286921 z" />
          <path
             id="path389"
             style="font-style:normal;font-variant:normal;font-weight:normal;font-stretch:normal;font-family:arial;-inkscape-font-specification:arial;fill:#ffffff;stroke-width:0.73452"
             d="m 26.800625,95.780347 q -0.01435,-0.51646 -0.01435,-0.774689 0,-1.520686 0.430383,-2.625335 0.315614,-0.832074 1.018572,-1.678493 0.51646,-0.616882 1.850647,-1.793262 1.348532,-1.190726 1.750223,-1.893685 0.401691,-0.702958 0.401691,-1.535032 0,-1.506339 -1.17638,-2.639681 -1.17638,-1.147687 -2.883565,-1.147687 -1.649801,0 -2.75445,1.032918 -1.104649,1.032919 -1.448955,3.227872 l -2.654028,-0.315615 q 0.358653,-2.940949 2.123222,-4.504673 1.778916,-1.563724 4.691173,-1.563724 3.08441,0 4.92071,1.678493 1.8363,1.678493 1.8363,4.059944 0,1.377225 -0.645574,2.539259 -0.645574,1.162033 -2.524913,2.82618 -1.262456,1.118996 -1.649801,1.649801 -0.387344,0.530806 -0.573843,1.219418 -0.1865,0.688613 -0.215192,2.237991 z m -0.157807,5.178943 v -2.940953 h 2.940949 v 2.940953 z" />
        </g>
      </g>
      <path
         id="path2234"
         d="m 323.64561,76.30481 c -20.67515,0 -37.24724,16.62538 -37.24724,37.24725 V 150 h 74.49449 v -36.44794 c 0,-20.62187 -16.62538,-37.24725 -37.24725,-37.24725 z"
         style="fill:#ff0000;fill-opacity:1;fill-rule:evenodd;stroke:none;stroke-width:0.66608584"
         inkscape:connector-curvature="0" />
      <path
         id="path2236"
         d="m 351.88744,49.9813 c 0,15.61293 -12.68218,28.24182 -28.24183,28.24182 -15.61293,0 -28.29511,-12.62889 -28.29511,-28.24182 0,-15.61294 12.68218,-28.24183 28.29511,-28.24183 15.55965,0 28.24183,12.62889 28.24183,28.24183 z"
         style="fill:#ffcc00;fill-opacity:1;fill-rule:evenodd;stroke:none;stroke-width:0.66608584"
         inkscape:connector-curvature="0" />
      <path
         id="path2238"
         d="m 317.51767,49.9813 c 0,2.13145 -1.70517,3.83662 -3.83663,3.83662 -2.13145,0 -3.83662,-1.70517 -3.83662,-3.83662 0,-2.13146 1.70517,-3.83663 3.83662,-3.83663 2.13146,0 3.83663,1.70517 3.83663,3.83663 z"
         style="fill:#000000;fill-opacity:1;fill-rule:evenodd;stroke:none;stroke-width:0.66608584"
         inkscape:connector-curvature="0" />
      <path
         id="path2240"
         d="m 337.44681,49.9813 c 0,2.13145 -1.75845,3.83662 -3.88991,3.83662 -2.07818,0 -3.83663,-1.70517 -3.83663,-3.83662 0,-2.13146 1.75845,-3.83663 3.83663,-3.83663 2.13146,0 3.88991,1.70517 3.88991,3.83663 z"
         style="fill:#000000;fill-opacity:1;fill-rule:evenodd;stroke:none;stroke-width:0.66608584"
         inkscape:connector-curvature="0" />
      <path
         id="path2242"
         d="m 314.53362,64.74165 c 2.23804,4.04977 5.5418,6.44766 9.11199,6.44766 3.51691,0 6.87396,-2.39789 9.11199,-6.44766 z"
         style="fill:#000000;fill-opacity:1;fill-rule:evenodd;stroke:none;stroke-width:0.66608584"
         inkscape:connector-curvature="0" />
      <path
         id="path2326"
         d="m 314.74677,8.79086 -7.14038,13.53476 -9.11199,-3.78334 -2.02489,15.66623 -10.17771,3.25047 9.21855,12.68217 C 300.466,38.31156 311.4963,30.6916 323.64561,30.6916 c 12.14932,0 23.12633,7.67325 28.08197,19.50284 l 9.21857,-12.73546 -10.12444,-3.25047 -2.02488,-15.66623 -9.16528,3.78334 -7.14038,-13.53476 -8.84556,8.41925 z"
         style="fill:#802a00;fill-opacity:1;fill-rule:evenodd;stroke:none;stroke-width:0.66608584"
         inkscape:connector-curvature="0" />
      <path
         inkscape:connector-curvature="0"
         id="path3680"
         d="M 294.40044,128.4025 V 150 h 5.75935 v -21.5975 z m 8.639,0 V 150 h 2.87968 v -21.5975 z m 5.75935,0 V 150 h 1.43984 v -21.5975 z m 4.31949,0 V 150 h 2.87968 v -21.5975 z m 7.19918,0 V 150 h 2.87966 v -21.5975 z m 5.75934,0 V 150 h 5.75934 v -21.5975 z m 10.07884,0 V 150 h 1.43985 v -21.5975 z m 4.31951,0 V 150 h 5.75934 v -21.5975 z m 8.639,0 V 150 h 2.87966 v -21.5975 z"
         style="opacity:1;fill:#ffffff;fill-opacity:1;fill-rule:evenodd;stroke:none;stroke-width:0.49254942;stroke-linecap:round;stroke-linejoin:round;stroke-miterlimit:4;stroke-dasharray:none;stroke-dashoffset:0;stroke-opacity:1" />
      <g
         transform="matrix(0.16418314,0,0,0.16418314,309.62778,-25.84473)"
         id="g3666">
        <g
           id="g3658"
           transform="matrix(0.82432162,0,0,0.82432162,7.7296188,58.282504)">
          <path
             d="m -100.30042,852.16505 27.183815,-50.95223 h 12.825188 l -34.014627,62.38338 v 39.52109 H -106.2948 v -38.96348 l -33.94492,-62.94099 h 12.96459 z"
             style="font-style:normal;font-variant:normal;font-weight:normal;font-stretch:normal;font-size:medium;line-height:89.99999762%;font-family:'Open Sans';-inkscape-font-specification:'Open Sans';text-align:center;letter-spacing:0px;word-spacing:0px;text-anchor:middle;fill:#ffffff;fill-opacity:1;stroke:none;stroke-width:1px;stroke-linecap:butt;stroke-linejoin:miter;stroke-opacity:1"
             id="path3652"
             inkscape:connector-curvature="0" />
          <path
             d="m -15.682072,904.51133 q -16.937611,0 -26.765608,-10.31591 -9.758295,-10.31591 -9.758295,-28.64756 0,-18.47106 9.061274,-29.34459 9.130975,-10.87353 24.465439,-10.87353 14.3586283,0 22.7228783,9.47949 8.3642497,9.40979 8.3642497,24.88365 v 7.31872 h -52.625079 q 0.348511,13.45251 6.761105,20.42272 6.482296,6.97021 18.192249,6.97021 12.3372653,0 24.3957353,-5.15796 v 10.31591 q -6.13378,2.64869 -11.64025,3.76392 -5.43677,1.18493 -13.1736983,1.18493 z m -3.136594,-69.493 q -9.200677,0 -14.707145,5.99438 -5.436764,5.99438 -6.412593,16.58911 H 9.0630577e-4 q 0,-10.94324 -4.87915000577,-16.7285 -4.8791507,-5.85499 -13.9404223,-5.85499 z"
             style="font-style:normal;font-variant:normal;font-weight:normal;font-stretch:normal;font-size:medium;line-height:89.99999762%;font-family:'Open Sans';-inkscape-font-specification:'Open Sans';text-align:center;letter-spacing:0px;word-spacing:0px;text-anchor:middle;fill:#ffffff;fill-opacity:1;stroke:none;stroke-width:1px;stroke-linecap:butt;stroke-linejoin:miter;stroke-opacity:1"
             id="path3654"
             inkscape:connector-curvature="0" />
          <path
             d="m 81.343256,882.27636 q 0,10.66443 -7.94605,16.44969 -7.94603,5.78528 -22.30466,5.78528 -15.19507,0 -23.69873,-4.80944 v -10.73412 q 5.50647,2.78807 11.77966,4.39122 6.34289,1.60316 12.19788,1.60316 9.06127,0 13.94041,-2.8578 4.87915,-2.92748 4.87915,-8.85216 0,-4.46093 -3.90332,-7.59753 -3.83361,-3.20629 -15.05565,-7.52783 -10.66442,-3.97302 -15.19506,-6.9005 -4.46093,-2.99719 -6.6914,-6.76111 -2.16077,-3.76391 -2.16077,-8.99157 0,-9.34009 7.59753,-14.70715 7.59754,-5.43676 20.84094,-5.43676 12.33727,0 24.11691,5.01856 l -4.11242,9.40977 q -11.50085,-4.73974 -20.84093,-4.73974 -8.22484,0 -12.40696,2.57899 -4.18213,2.57897 -4.18213,7.10961 0,3.06689 1.53344,5.22766 1.60315,2.16076 5.08826,4.11242 3.4851,1.95165 13.3828,5.64587 13.59191,4.94885 18.33165,9.9674 4.80945,5.01855 4.80945,12.61608 z"
             style="font-style:normal;font-variant:normal;font-weight:normal;font-stretch:normal;font-size:medium;line-height:89.99999762%;font-family:'Open Sans';-inkscape-font-specification:'Open Sans';text-align:center;letter-spacing:0px;word-spacing:0px;text-anchor:middle;fill:#ffffff;fill-opacity:1;stroke:none;stroke-width:1px;stroke-linecap:butt;stroke-linejoin:miter;stroke-opacity:1"
             id="path3656"
             inkscape:connector-curvature="0" />
        </g>
        <g
           id="g3664"
           transform="matrix(0.82432162,0,0,0.82432162,50.688504,61.391064)">
          <path
             d="m 174.29349,903.3762 h -11.70995 l -20.56212,-68.23835 q -1.46375,-4.53064 -3.276,-11.43115 -1.81226,-6.90051 -1.88196,-8.29456 -1.53345,9.20069 -4.87915,20.14391 l -19.9348,67.82015 H 100.33956 L 73.225439,801.47173 H 85.771818 L 101.873,864.41272 q 3.3457,13.2434 4.87915,23.97753 1.88196,-12.75549 5.57617,-24.95335 l 18.26195,-61.96517 h 12.54638 l 19.16808,62.52279 q 3.3457,10.80382 5.64587,24.39573 1.32434,-9.89769 5.01855,-24.11693 l 16.03148,-62.80159 h 12.54639 z"
             style="font-style:normal;font-variant:normal;font-weight:normal;font-stretch:normal;font-size:medium;line-height:89.99999762%;font-family:'Open Sans';-inkscape-font-specification:'Open Sans';text-align:center;letter-spacing:0px;word-spacing:0px;text-anchor:middle;fill:#ffffff;fill-opacity:1;stroke:none;stroke-width:1px;stroke-linecap:butt;stroke-linejoin:miter;stroke-opacity:1"
             id="path3660"
             inkscape:connector-curvature="0" />
          <path
             d="m 248.03831,904.77024 q -16.93761,0 -26.7656,-10.3159 -9.75829,-10.31592 -9.75829,-28.64757 0,-18.47106 9.06126,-29.34459 9.13098,-10.87352 24.46544,-10.87352 14.35863,0 22.72288,9.47948 8.36427,9.40979 8.36427,24.88365 v 7.31872 h -52.62509 q 0.3485,13.45251 6.7611,20.42272 6.4823,6.97021 18.19225,6.97021 12.33727,0 24.39574,-5.15796 v 10.31592 q -6.13379,2.64868 -11.64026,3.76391 -5.43677,1.18493 -13.1737,1.18493 z m -3.1366,-69.493 q -9.20067,0 -14.70714,5.99438 -5.43676,5.99438 -6.41258,16.58911 h 39.9393 q 0,-10.94323 -4.87915,-16.7285 -4.87915,-5.85499 -13.94043,-5.85499 z"
             style="font-style:normal;font-variant:normal;font-weight:normal;font-stretch:normal;font-size:medium;line-height:89.99999762%;font-family:'Open Sans';-inkscape-font-specification:'Open Sans';text-align:center;letter-spacing:0px;word-spacing:0px;text-anchor:middle;fill:#ffffff;fill-opacity:1;stroke:none;stroke-width:1px;stroke-linecap:butt;stroke-linejoin:miter;stroke-opacity:1"
             id="path3662"
             inkscape:connector-curvature="0" />
        </g>
      </g>
      <g
         transform="matrix(0.16418314,0,0,0.16418314,309.62778,-25.84473)"
         id="g3678">
        <path
           inkscape:connector-curvature="0"
           id="path3668"
           style="font-style:normal;font-variant:normal;font-weight:normal;font-stretch:normal;font-size:medium;line-height:89.99999762%;font-family:'Open Sans';-inkscape-font-specification:'Open Sans';text-align:center;letter-spacing:0px;word-spacing:0px;text-anchor:middle;fill:#ffffff;fill-opacity:1;stroke:none;stroke-width:1px;stroke-linecap:butt;stroke-linejoin:miter;stroke-opacity:1"
           d="m -32.433908,892.74227 q 0,13.4525 -9.758294,20.9803 -9.758295,7.5279 -26.486799,7.5279 -18.122547,0 -27.880837,-4.6701 v -11.4312 q 6.27318,2.6488 13.66161,4.1822 7.388421,1.5334 14.63744,1.5334 11.849357,0 17.843737,-4.4609 5.994381,-4.5306 5.994381,-12.5464 0,-5.2973 -2.160765,-8.64298 -2.091063,-3.41545 -7.109615,-6.27324 -4.948848,-2.85778 -15.125356,-6.48229 -14.219232,-5.08825 -20.353012,-12.05847 -6.06408,-6.97021 -6.06408,-18.19225 0,-11.77966 8.85216,-18.74986 8.85217,-6.97021 23.41991,-6.97021 15.195057,0 27.950542,5.57616 l -3.694211,10.31592 q -12.61608,-5.29736 -24.53514,-5.29736 -9.409784,0 -14.707141,4.04272 -5.29736,4.04272 -5.29736,11.22204 0,5.29735 1.95166,8.71276 1.95166,3.3457 6.551993,6.20348 4.670042,2.78809 14.21923,6.2035 16.031483,5.71557 22.025864,12.26757 6.064083,6.55199 6.064083,17.00731 z" />
        <path
           inkscape:connector-curvature="0"
           id="path3670"
           style="font-style:normal;font-variant:normal;font-weight:normal;font-stretch:normal;font-size:medium;line-height:89.99999762%;font-family:'Open Sans';-inkscape-font-specification:'Open Sans';text-align:center;letter-spacing:0px;word-spacing:0px;text-anchor:middle;fill:#ffffff;fill-opacity:1;stroke:none;stroke-width:1px;stroke-linecap:butt;stroke-linejoin:miter;stroke-opacity:1"
           d="m 28.867773,921.25047 q -16.5891,0 -25.7200751,-10.1765 -9.0612737,-10.2463 -9.0612737,-28.92643 0,-19.16807 9.2006775,-29.62339 9.2703793,-10.45531 26.3473943,-10.45531 5.506467,0 11.012932,1.18494 5.506466,1.18493 8.643061,2.78808 l -3.554807,9.828 q -3.833615,-1.53345 -8.364253,-2.50928 -4.530636,-1.04553 -8.015741,-1.04553 -23.2805024,0 -23.2805024,29.69309 0,14.07983 5.6458704,21.60763 5.715572,7.5279 16.867909,7.5279 9.549188,0 19.58629,-4.1125 v 10.2463 q -7.667231,3.973 -19.307482,3.973 z" />
        <path
           inkscape:connector-curvature="0"
           id="path3672"
           style="font-style:normal;font-variant:normal;font-weight:normal;font-stretch:normal;font-size:medium;line-height:89.99999762%;font-family:'Open Sans';-inkscape-font-specification:'Open Sans';text-align:center;letter-spacing:0px;word-spacing:0px;text-anchor:middle;fill:#ffffff;fill-opacity:1;stroke:none;stroke-width:1px;stroke-linecap:butt;stroke-linejoin:miter;stroke-opacity:1"
           d="m 128.50561,919.85637 -2.30017,-10.8735 h -0.55761 q -5.71558,7.1793 -11.43115,9.7583 -5.64587,2.5093 -14.14953,2.5093 -11.361443,0 -17.843738,-5.855 -6.412594,-5.8549 -6.412594,-16.6588 0,-23.14112 37.011812,-24.25635 l 12.9646,-0.41822 v -4.73974 q 0,-8.99157 -3.90332,-13.2434 -3.83362,-4.32152 -12.33727,-4.32152 -9.549192,0 -21.607656,5.85497 l -3.554807,-8.85216 q 5.64587,-3.0669 12.337272,-4.80945 6.761101,-1.74256 13.522211,-1.74256 13.66161,0 20.21361,6.06408 6.6217,6.06409 6.6217,19.44689 v 52.13716 z m -26.13829,-8.1551 q 10.80382,0 16.93761,-5.9247 6.20349,-5.9247 6.20349,-16.5891 v -6.90052 l -11.57055,0.48791 q -13.80102,0.48792 -19.934803,4.32152 -6.064083,3.76399 -6.064083,11.77959 0,6.2732 3.763914,9.5493 3.833615,3.276 10.664422,3.276 z" />
        <path
           inkscape:connector-curvature="0"
           id="path3674"
           style="font-style:normal;font-variant:normal;font-weight:normal;font-stretch:normal;font-size:medium;line-height:89.99999762%;font-family:'Open Sans';-inkscape-font-specification:'Open Sans';text-align:center;letter-spacing:0px;word-spacing:0px;text-anchor:middle;fill:#ffffff;fill-opacity:1;stroke:none;stroke-width:1px;stroke-linecap:butt;stroke-linejoin:miter;stroke-opacity:1"
           d="m 215.87587,919.85637 v -49.41878 q 0,-9.34008 -4.25183,-13.94041 -4.25183,-4.60035 -13.3131,-4.60035 -11.98876,0 -17.56492,6.48231 -5.57618,6.48229 -5.57618,21.39853 v 40.0787 H 163.5993 v -76.39349 h 9.40977 l 1.88196,10.45531 h 0.55762 q 3.5548,-5.64587 9.9674,-8.71276 6.4126,-3.13659 14.28894,-3.13659 13.80101,0 20.77123,6.69141 6.9702,6.62168 6.9702,21.25913 v 49.83699 z" />
        <path
           inkscape:connector-curvature="0"
           id="path3676"
           style="font-style:normal;font-variant:normal;font-weight:normal;font-stretch:normal;font-size:medium;line-height:89.99999762%;font-family:'Open Sans';-inkscape-font-specification:'Open Sans';text-align:center;letter-spacing:0px;word-spacing:0px;text-anchor:middle;fill:#ffffff;fill-opacity:1;stroke:none;stroke-width:1px;stroke-linecap:butt;stroke-linejoin:miter;stroke-opacity:1"
           d="m 266.09484,891.76647 h -7.31872 l -3.55481,-73.81456 h 14.42834 z m -12.12816,20.7015 q 0,-9.4795 8.36426,-9.4795 4.04271,0 6.20348,2.4396 2.23047,2.4395 2.23047,7.0399 0,4.4609 -2.23047,6.9702 -2.23047,2.4396 -6.20348,2.4396 -3.62451,0 -5.99438,-2.1607 -2.36988,-2.2306 -2.36988,-7.2491 z" />
      </g>
      <g
         transform="translate(2.8965514)"
         aria-label="We need"
         style="font-style:normal;font-variant:normal;font-weight:normal;font-stretch:normal;font-size:24.27246284px;line-height:1.25;font-family:arial;-inkscape-font-specification:arial;letter-spacing:0px;word-spacing:0px;fill:#000000;fill-opacity:1;stroke:none;stroke-width:0.60681152"
         id="text2926">
        <path
           inkscape:connector-curvature="0"
           d="m 595.38802,35.866146 -4.61034,-17.374722 h 2.3585 l 2.64295,11.389569 q 0.42667,1.78962 0.73481,3.555536 0.6637,-2.78517 0.78222,-3.211834 l 3.30665,-11.733271 h 2.77332 l 2.48888,8.794027 q 0.93629,3.271094 1.3511,6.151078 0.33185,-1.647398 0.86518,-3.78072 l 2.72591,-11.164385 h 2.3111 l -4.76442,17.374722 h -2.21628 l -3.66221,-13.238448 q -0.46222,-1.65925 -0.54518,-2.038507 -0.27259,1.19703 -0.50962,2.038507 l -3.68591,13.238448 z"
           style="font-style:normal;font-variant:normal;font-weight:normal;font-stretch:normal;font-family:arial;-inkscape-font-specification:arial;fill:#000000;stroke-width:0.60681152"
           id="path1380" />
        <path
           inkscape:connector-curvature="0"
           d="m 623.16862,31.812834 2.20443,0.272592 q -0.52148,1.931841 -1.93184,2.998502 -1.41036,1.066661 -3.60295,1.066661 -2.76146,0 -4.38516,-1.694806 -1.61184,-1.706657 -1.61184,-4.776271 0,-3.176279 1.63555,-4.930344 1.63554,-1.754064 4.24294,-1.754064 2.52443,0 4.12442,1.718509 1.59999,1.718509 1.59999,4.83553 0,0.189628 -0.0118,0.568886 h -9.38662 q 0.11852,2.074063 1.17333,3.176279 1.05481,1.102216 2.6311,1.102216 1.17332,0 2.00295,-0.616293 0.82962,-0.616293 1.31555,-1.967397 z m -7.00441,-3.44887 h 7.02811 q -0.14222,-1.58814 -0.80592,-2.38221 -1.01925,-1.232586 -2.64295,-1.232586 -1.46962,0 -2.47702,0.983699 -0.99555,0.983698 -1.10222,2.631097 z"
           style="font-style:normal;font-variant:normal;font-weight:normal;font-stretch:normal;font-family:arial;-inkscape-font-specification:arial;fill:#000000;stroke-width:0.60681152"
           id="path1382" />
        <path
           inkscape:connector-curvature="0"
           d="M 634.79522,35.866146 V 23.279547 h 1.91999 v 1.78962 q 1.38666,-2.074063 4.0059,-2.074063 1.13778,0 2.08592,0.414812 0.95999,0.402961 1.43407,1.066661 0.47407,0.6637 0.6637,1.576288 0.11851,0.59259 0.11851,2.074063 v 7.739218 h -2.13332 v -7.656255 q 0,-1.303697 -0.24889,-1.943694 -0.24888,-0.651848 -0.88888,-1.031105 -0.62814,-0.391109 -1.48147,-0.391109 -1.36296,0 -2.35851,0.86518 -0.9837,0.865181 -0.9837,3.282946 v 6.874037 z"
           style="font-style:normal;font-variant:normal;font-weight:normal;font-stretch:normal;font-family:arial;-inkscape-font-specification:arial;fill:#000000;stroke-width:0.60681152"
           id="path1384" />
        <path
           inkscape:connector-curvature="0"
           d="m 656.92251,31.812834 2.20443,0.272592 q -0.52148,1.931841 -1.93184,2.998502 -1.41036,1.066661 -3.60294,1.066661 -2.76147,0 -4.38516,-1.694806 -1.61185,-1.706657 -1.61185,-4.776271 0,-3.176279 1.63555,-4.930344 1.63555,-1.754064 4.24294,-1.754064 2.52443,0 4.12442,1.718509 1.59999,1.718509 1.59999,4.83553 0,0.189628 -0.0118,0.568886 h -9.38661 q 0.11851,2.074063 1.17332,3.176279 1.05481,1.102216 2.6311,1.102216 1.17333,0 2.00295,-0.616293 0.82963,-0.616293 1.31555,-1.967397 z m -7.00441,-3.44887 h 7.02811 q -0.14222,-1.58814 -0.80592,-2.38221 -1.01925,-1.232586 -2.64295,-1.232586 -1.46962,0 -2.47702,0.983699 -0.99555,0.983698 -1.10222,2.631097 z"
           style="font-style:normal;font-variant:normal;font-weight:normal;font-stretch:normal;font-family:arial;-inkscape-font-specification:arial;fill:#000000;stroke-width:0.60681152"
           id="path1386" />
        <path
           inkscape:connector-curvature="0"
           d="m 670.43355,31.812834 2.20443,0.272592 q -0.52148,1.931841 -1.93184,2.998502 -1.41036,1.066661 -3.60294,1.066661 -2.76147,0 -4.38516,-1.694806 -1.61185,-1.706657 -1.61185,-4.776271 0,-3.176279 1.63555,-4.930344 1.63555,-1.754064 4.24294,-1.754064 2.52443,0 4.12442,1.718509 1.59999,1.718509 1.59999,4.83553 0,0.189628 -0.0118,0.568886 h -9.38662 q 0.11852,2.074063 1.17333,3.176279 1.05481,1.102216 2.6311,1.102216 1.17333,0 2.00295,-0.616293 0.82963,-0.616293 1.31555,-1.967397 z m -7.00441,-3.44887 h 7.02811 q -0.14222,-1.58814 -0.80592,-2.38221 -1.01925,-1.232586 -2.64295,-1.232586 -1.46962,0 -2.47702,0.983699 -0.99555,0.983698 -1.10222,2.631097 z"
           style="font-style:normal;font-variant:normal;font-weight:normal;font-stretch:normal;font-family:arial;-inkscape-font-specification:arial;fill:#000000;stroke-width:0.60681152"
           id="path1388" />
        <path
           inkscape:connector-curvature="0"
           d="m 683.49422,35.866146 v -1.58814 q -1.19703,1.872583 -3.51998,1.872583 -1.50518,0 -2.77332,-0.829625 -1.25629,-0.829625 -1.95554,-2.311099 -0.68741,-1.493325 -0.68741,-3.425167 0,-1.884434 0.62815,-3.413315 0.62814,-1.540732 1.88443,-2.358506 1.25629,-0.817773 2.80888,-0.817773 1.13777,0 2.02665,0.485923 0.88889,0.474072 1.44592,1.244438 v -6.234041 h 2.12147 v 17.374722 z m -6.74367,-6.281448 q 0,2.417765 1.01926,3.614796 1.01925,1.19703 2.40591,1.19703 1.39851,0 2.37036,-1.137771 0.9837,-1.149624 0.9837,-3.496278 0,-2.58369 -0.99555,-3.792572 -0.99555,-1.208883 -2.45332,-1.208883 -1.42222,0 -2.38221,1.161476 -0.94815,1.161475 -0.94815,3.662202 z"
           style="font-style:normal;font-variant:normal;font-weight:normal;font-stretch:normal;font-family:arial;-inkscape-font-specification:arial;fill:#000000;stroke-width:0.60681152"
           id="path1390" />
      </g>
      <g
         transform="translate(2.8965514)"
         aria-label="your support!"
         style="font-style:normal;font-variant:normal;font-weight:normal;font-stretch:normal;font-size:24.27246284px;line-height:1.25;font-family:arial;-inkscape-font-specification:arial;letter-spacing:0px;word-spacing:0px;fill:#000000;fill-opacity:1;stroke:none;stroke-width:0.60681152"
         id="text2930">
        <path
           inkscape:connector-curvature="0"
           d="m 569.56298,65.308559 -0.23704,-2.002952 q 0.69926,0.189629 1.22074,0.189629 0.7111,0 1.13777,-0.237036 0.42666,-0.237036 0.69925,-0.6637 0.20148,-0.319999 0.65185,-1.58814 0.0593,-0.177777 0.18963,-0.521479 l -4.77627,-12.610303 h 2.29925 l 2.61924,7.28885 q 0.50963,1.38666 0.91259,2.91554 0.3674,-1.469621 0.87703,-2.868132 l 2.69036,-7.336258 h 2.13332 l -4.78812,12.799932 q -0.77037,2.074063 -1.19703,2.856281 -0.56889,1.054809 -1.3037,1.540733 -0.73481,0.497775 -1.75407,0.497775 -0.61629,0 -1.3748,-0.26074 z"
           style="font-style:normal;font-variant:normal;font-weight:normal;font-stretch:normal;font-family:arial;-inkscape-font-specification:arial;fill:#000000;stroke-width:0.60681152"
           id="path1355" />
        <path
           inkscape:connector-curvature="0"
           d="m 580.99995,54.167878 q 0,-3.496277 1.9437,-5.179231 1.62369,-1.398511 3.95849,-1.398511 2.59555,0 4.24294,1.706657 1.6474,1.694806 1.6474,4.693308 0,2.429617 -0.73481,3.828128 -0.72296,1.386659 -2.12147,2.157025 -1.38666,0.770367 -3.03406,0.770367 -2.64294,0 -4.27849,-1.694806 -1.6237,-1.694806 -1.6237,-4.882937 z m 2.19258,0 q 0,2.417765 1.05481,3.626647 1.05481,1.197031 2.6548,1.197031 1.58814,0 2.64295,-1.208882 1.05481,-1.208883 1.05481,-3.685907 0,-2.334802 -1.06666,-3.531833 -1.05481,-1.208882 -2.6311,-1.208882 -1.59999,0 -2.6548,1.197031 -1.05481,1.19703 -1.05481,3.614795 z"
           style="font-style:normal;font-variant:normal;font-weight:normal;font-stretch:normal;font-family:arial;-inkscape-font-specification:arial;fill:#000000;stroke-width:0.60681152"
           id="path1357" />
        <path
           inkscape:connector-curvature="0"
           d="m 603.55391,60.461178 v -1.848879 q -1.46963,2.133322 -3.99406,2.133322 -1.11406,0 -2.08591,-0.426665 -0.96,-0.426664 -1.43407,-1.066661 -0.46222,-0.651848 -0.65185,-1.588139 -0.13037,-0.628145 -0.13037,-1.991101 v -7.798477 h 2.13333 v 6.980704 q 0,1.671102 0.13037,2.25184 0.20148,0.841477 0.85333,1.3274 0.65184,0.474072 1.61184,0.474072 0.95999,0 1.80147,-0.485924 0.84148,-0.497775 1.18518,-1.339252 0.35555,-0.853329 0.35555,-2.465172 v -6.743668 h 2.13332 v 12.5866 z"
           style="font-style:normal;font-variant:normal;font-weight:normal;font-stretch:normal;font-family:arial;-inkscape-font-specification:arial;fill:#000000;stroke-width:0.60681152"
           id="path1359" />
        <path
           inkscape:connector-curvature="0"
           d="m 608.7924,60.461178 v -12.5866 h 1.91999 v 1.908138 q 0.73481,-1.339252 1.3511,-1.765916 0.62815,-0.426664 1.37481,-0.426664 1.07851,0 2.19258,0.687403 l -0.73481,1.979249 q -0.78222,-0.46222 -1.56444,-0.46222 -0.69925,0 -1.25629,0.426665 -0.55703,0.414812 -0.79407,1.161475 -0.35555,1.137772 -0.35555,2.488875 v 6.589595 z"
           style="font-style:normal;font-variant:normal;font-weight:normal;font-stretch:normal;font-family:arial;-inkscape-font-specification:arial;fill:#000000;stroke-width:0.60681152"
           id="path1361" />
        <path
           inkscape:connector-curvature="0"
           d="m 622.80121,56.704161 2.10962,-0.33185 q 0.17778,1.268141 0.9837,1.943693 0.81777,0.675552 2.27554,0.675552 1.46962,0 2.18073,-0.592589 0.71111,-0.604442 0.71111,-1.410363 0,-0.722959 -0.62815,-1.137772 -0.43851,-0.284443 -2.18072,-0.722959 -2.34666,-0.592589 -3.25925,-1.019254 -0.90073,-0.438516 -1.3748,-1.19703 -0.46222,-0.770367 -0.46222,-1.694806 0,-0.841477 0.37925,-1.552584 0.39111,-0.72296 1.05481,-1.197031 0.49778,-0.367406 1.35111,-0.616293 0.86518,-0.260739 1.84888,-0.260739 1.48147,0 2.59554,0.426664 1.12592,0.426664 1.65925,1.161475 0.53333,0.722959 0.73481,1.943693 l -2.08592,0.284443 q -0.14222,-0.971846 -0.82962,-1.517029 -0.67555,-0.545182 -1.91999,-0.545182 -1.46962,0 -2.09777,0.485924 -0.62814,0.485923 -0.62814,1.137771 0,0.414813 0.26074,0.746663 0.26074,0.343702 0.81777,0.568886 0.32,0.118518 1.88443,0.545182 2.2637,0.604441 3.15258,0.99555 0.90074,0.379257 1.41036,1.114068 0.50963,0.734811 0.50963,1.825176 0,1.066661 -0.62814,2.014804 -0.6163,0.936291 -1.78962,1.45777 -1.17333,0.509627 -2.65481,0.509627 -2.45332,0 -3.74516,-1.019254 -1.27999,-1.019254 -1.63555,-3.022206 z"
           style="font-style:normal;font-variant:normal;font-weight:normal;font-stretch:normal;font-family:arial;-inkscape-font-specification:arial;fill:#000000;stroke-width:0.60681152"
           id="path1363" />
        <path
           inkscape:connector-curvature="0"
           d="m 644.03962,60.461178 v -1.848879 q -1.46962,2.133322 -3.99406,2.133322 -1.11406,0 -2.08591,-0.426665 -0.96,-0.426664 -1.43407,-1.066661 -0.46222,-0.651848 -0.65185,-1.588139 -0.13037,-0.628145 -0.13037,-1.991101 v -7.798477 h 2.13333 v 6.980704 q 0,1.671102 0.13037,2.25184 0.20148,0.841477 0.85333,1.3274 0.65184,0.474072 1.61184,0.474072 0.95999,0 1.80147,-0.485924 0.84148,-0.497775 1.18518,-1.339252 0.35555,-0.853329 0.35555,-2.465172 v -6.743668 h 2.13332 v 12.5866 z"
           style="font-style:normal;font-variant:normal;font-weight:normal;font-stretch:normal;font-family:arial;-inkscape-font-specification:arial;fill:#000000;stroke-width:0.60681152"
           id="path1365" />
        <path
           inkscape:connector-curvature="0"
           d="M 649.30181,65.284856 V 47.874578 h 1.9437 v 1.635547 q 0.6874,-0.959995 1.55258,-1.434066 0.86518,-0.485923 2.09777,-0.485923 1.61184,0 2.84443,0.829625 1.23258,0.829625 1.86073,2.346654 0.62814,1.505177 0.62814,3.306649 0,1.931841 -0.69925,3.484426 -0.68741,1.540732 -2.01481,2.370357 -1.31555,0.817774 -2.77332,0.817774 -1.06666,0 -1.91999,-0.450368 -0.84147,-0.450368 -1.38666,-1.137772 v 6.127375 z m 1.93184,-11.045867 q 0,2.429617 0.9837,3.591092 0.9837,1.161475 2.38221,1.161475 1.42222,0 2.42962,-1.197031 1.01925,-1.208882 1.01925,-3.733313 0,-2.405913 -0.99555,-3.602944 -0.9837,-1.19703 -2.3585,-1.19703 -1.36296,0 -2.41777,1.279993 -1.04296,1.268141 -1.04296,3.697758 z"
           style="font-style:normal;font-variant:normal;font-weight:normal;font-stretch:normal;font-family:arial;-inkscape-font-specification:arial;fill:#000000;stroke-width:0.60681152"
           id="path1367" />
        <path
           inkscape:connector-curvature="0"
           d="M 662.81285,65.284856 V 47.874578 h 1.94369 v 1.635547 q 0.68741,-0.959995 1.55259,-1.434066 0.86518,-0.485923 2.09777,-0.485923 1.61184,0 2.84442,0.829625 1.23259,0.829625 1.86074,2.346654 0.62814,1.505177 0.62814,3.306649 0,1.931841 -0.69925,3.484426 -0.68741,1.540732 -2.01481,2.370357 -1.31555,0.817774 -2.77332,0.817774 -1.06666,0 -1.91999,-0.450368 -0.84147,-0.450368 -1.38666,-1.137772 v 6.127375 z m 1.93184,-11.045867 q 0,2.429617 0.9837,3.591092 0.9837,1.161475 2.38221,1.161475 1.42222,0 2.42962,-1.197031 1.01925,-1.208882 1.01925,-3.733313 0,-2.405913 -0.99555,-3.602944 -0.9837,-1.19703 -2.3585,-1.19703 -1.36296,0 -2.41777,1.279993 -1.04296,1.268141 -1.04296,3.697758 z"
           style="font-style:normal;font-variant:normal;font-weight:normal;font-stretch:normal;font-family:arial;-inkscape-font-specification:arial;fill:#000000;stroke-width:0.60681152"
           id="path1369" />
        <path
           inkscape:connector-curvature="0"
           d="m 675.52982,54.167878 q 0,-3.496277 1.94369,-5.179231 1.6237,-1.398511 3.9585,-1.398511 2.59554,0 4.24294,1.706657 1.6474,1.694806 1.6474,4.693308 0,2.429617 -0.73481,3.828128 -0.72296,1.386659 -2.12147,2.157025 -1.38666,0.770367 -3.03406,0.770367 -2.64295,0 -4.27849,-1.694806 -1.6237,-1.694806 -1.6237,-4.882937 z m 2.19258,0 q 0,2.417765 1.05481,3.626647 1.05481,1.197031 2.6548,1.197031 1.58814,0 2.64295,-1.208882 1.05481,-1.208883 1.05481,-3.685907 0,-2.334802 -1.06666,-3.531833 -1.05481,-1.208882 -2.6311,-1.208882 -1.59999,0 -2.6548,1.197031 -1.05481,1.19703 -1.05481,3.614795 z"
           style="font-style:normal;font-variant:normal;font-weight:normal;font-stretch:normal;font-family:arial;-inkscape-font-specification:arial;fill:#000000;stroke-width:0.60681152"
           id="path1371" />
        <path
           inkscape:connector-curvature="0"
           d="m 689.81122,60.461178 v -12.5866 h 1.91999 v 1.908138 q 0.73481,-1.339252 1.3511,-1.765916 0.62815,-0.426664 1.37481,-0.426664 1.07851,0 2.19258,0.687403 l -0.73481,1.979249 q -0.78222,-0.46222 -1.56444,-0.46222 -0.69925,0 -1.25628,0.426665 -0.55704,0.414812 -0.79407,1.161475 -0.35556,1.137772 -0.35556,2.488875 v 6.589595 z"
           style="font-style:normal;font-variant:normal;font-weight:normal;font-stretch:normal;font-family:arial;-inkscape-font-specification:arial;fill:#000000;stroke-width:0.60681152"
           id="path1373" />
        <path
           inkscape:connector-curvature="0"
           d="m 702.5993,58.55304 0.30814,1.884434 q -0.90073,0.189629 -1.61184,0.189629 -1.16147,0 -1.80147,-0.367406 -0.64,-0.367405 -0.90074,-0.959994 -0.26074,-0.604442 -0.26074,-2.524431 v -7.241443 h -1.56443 v -1.659251 h 1.56443 v -3.11702 l 2.12147,-1.279993 v 4.397013 h 2.14518 v 1.659251 h -2.14518 v 7.35996 q 0,0.912588 0.10667,1.173328 0.11852,0.260739 0.3674,0.414812 0.26074,0.154073 0.73482,0.154073 0.35555,0 0.93629,-0.08296 z"
           style="font-style:normal;font-variant:normal;font-weight:normal;font-stretch:normal;font-family:arial;-inkscape-font-specification:arial;fill:#000000;stroke-width:0.60681152"
           id="path1375" />
        <path
           inkscape:connector-curvature="0"
           d="m 705.81114,56.147127 -0.65185,-9.20884 v -3.851831 h 2.64295 v 3.851831 l -0.61629,9.20884 z m -0.55703,4.314051 v -2.429617 h 2.45332 v 2.429617 z"
           style="font-style:normal;font-variant:normal;font-weight:normal;font-stretch:normal;font-family:arial;-inkscape-font-specification:arial;fill:#000000;stroke-width:0.60681152"
           id="path1377" />
      </g>
      <path
         style="opacity:1;fill:#ffffff;stroke:#000000;stroke-width:1;stroke-linecap:butt;stroke-linejoin:miter;stroke-miterlimit:4;stroke-dasharray:none;stroke-opacity:1;stop-opacity:1"
         d="m 505.32534,67.37484 44.88381,-22.87408 3.83138,14.79443 z"
         id="path2740-0"
         inkscape:connector-curvature="0"
         inkscape:export-xdpi="96"
         inkscape:export-ydpi="96" />
      <path
         d="m 571.39581,97.418854 h 197.7752 c 7.08088,0 12.78137,5.700496 12.78137,12.781376 v 17.902 c 0,7.08088 -5.70049,12.78138 -12.78137,12.78138 h -197.7752 c -7.08088,0 -12.78137,-5.7005 -12.78137,-12.78138 v -17.902 c 0,-7.08088 5.70049,-12.781376 12.78137,-12.781376 z"
         style="opacity:1;fill:#0066ff;fill-opacity:1;fill-rule:nonzero;stroke:#ffffff;stroke-width:1;stroke-miterlimit:4;stroke-dasharray:none;stroke-opacity:1;stop-opacity:1"
         id="rect2912-9" />
      <g
         transform="translate(11.15742,-0.58039)"
         aria-label="Please Donate"
         style="font-style:normal;font-weight:normal;font-size:29.5603px;line-height:1.25;font-family:sans-serif;letter-spacing:0px;word-spacing:0px;opacity:1;fill:#ffffff;fill-opacity:1;stroke:none;stroke-width:0.739007;stop-opacity:1"
         id="text2916-3">
        <g
           style="font-style:normal;font-weight:normal;font-size:40px;line-height:1.25;font-family:sans-serif;letter-spacing:0px;word-spacing:0px;fill:#ffffff;fill-opacity:1;stroke:none"
           id="text952"
           aria-label="נא לתרום">
          <path
             id="path393"
             style="font-style:normal;font-variant:normal;font-weight:normal;font-stretch:normal;font-size:37.3333px;font-family:sans-serif;-inkscape-font-specification:'sans-serif, Normal';font-variant-ligatures:normal;font-variant-caps:normal;font-variant-numeric:normal;font-feature-settings:normal;text-align:start;writing-mode:lr-tb;text-anchor:start;fill:#ffffff;fill-opacity:1"
             d="m 727.61445,131.93956 h -9.33332 v -2.91666 h 5.85155 v -9.47916 q 0,-1.56771 -0.23697,-2.36979 -0.23698,-0.82031 -1.02084,-1.3125 -0.76562,-0.49219 -2.05989,-0.49219 -1.11198,0 -1.98698,0.18229 l -0.25521,-2.77083 q 1.22136,-0.40104 2.98958,-0.40104 2.47917,0 3.79167,0.92969 1.3125,0.92968 1.78645,2.29687 0.47396,1.34896 0.47396,3.82812 z" />
          <path
             id="path395"
             style="font-style:normal;font-variant:normal;font-weight:normal;font-stretch:normal;font-size:37.3333px;font-family:sans-serif;-inkscape-font-specification:'sans-serif, Normal';font-variant-ligatures:normal;font-variant-caps:normal;font-variant-numeric:normal;font-feature-settings:normal;text-align:start;writing-mode:lr-tb;text-anchor:start;fill:#ffffff;fill-opacity:1"
             d="m 716.203,131.93956 h -4.30208 l -7.3828,-10.4453 q -1.71354,0.92968 -2.02344,3.7552 l -0.78385,6.6901 h -3.60938 l 0.78386,-6.6901 q 0.54687,-4.66666 3.79166,-6.30728 l -4.5026,-6.34375 h 4.28385 l 6.19791,8.65885 q 1.13021,-0.7474 1.56771,-1.67708 0.45573,-0.94792 0.71094,-3.09896 l 0.45573,-3.88281 h 3.60937 l -0.4375,3.99218 q -0.29167,2.57031 -1.16667,4.22917 -0.85677,1.64062 -2.98958,2.93489 z" />
          <path
             id="path397"
             style="font-style:normal;font-variant:normal;font-weight:normal;font-stretch:normal;font-size:37.3333px;font-family:sans-serif;-inkscape-font-specification:'sans-serif, Normal';font-variant-ligatures:normal;font-variant-caps:normal;font-variant-numeric:normal;font-feature-settings:normal;text-align:start;writing-mode:lr-tb;text-anchor:start;fill:#ffffff;fill-opacity:1"
             d="m 673.10929,112.59843 h 10.71874 v 4.8125 q 0,2.04166 -0.38281,3.3177 -0.38281,1.25781 -1.33073,2.55208 l -0.98437,1.3125 q -1.47656,1.98698 -1.47656,4.24739 v 3.09896 h -3.48177 v -2.60677 q 0,-2.35156 0.45573,-3.53645 0.47395,-1.1849 1.36718,-2.33334 l 1.09375,-1.38541 q 0.80208,-1.02083 1.02083,-1.84115 0.23698,-0.82031 0.23698,-2.11458 v -2.60677 h -10.70051 v -10.29947 h 3.46354 z" />
          <path
             id="path399"
             style="font-style:normal;font-variant:normal;font-weight:normal;font-stretch:normal;font-size:37.3333px;font-family:sans-serif;-inkscape-font-specification:'sans-serif, Normal';font-variant-ligatures:normal;font-variant-caps:normal;font-variant-numeric:normal;font-feature-settings:normal;text-align:start;writing-mode:lr-tb;text-anchor:start;fill:#ffffff;fill-opacity:1"
             d="m 645.29161,131.48383 0.60156,-2.60677 q 0.94791,0.32813 2.05989,0.32813 1.25781,0 1.73177,-0.54688 0.47396,-0.5651 0.47396,-2.02343 v -11.15624 q -1.56771,0 -3.84635,0.32812 l -0.3099,-2.89843 q 4.15625,-0.52865 8.4401,-0.52865 4.33854,0 6.67187,0.72917 2.33333,0.72916 3.55468,2.67968 1.23958,1.93229 1.23958,5.70573 v 10.4453 h -3.48176 v -9.51562 q 0,-2.82552 -0.4375,-4.13801 -0.41927,-1.3125 -1.85938,-2.13281 -1.4401,-0.82032 -4.7578,-0.82032 l -1.75,0.0365 v 11.72135 q 0,1.82291 -0.34636,2.78906 -0.32812,0.96614 -1.40364,1.58593 -1.05729,0.61979 -3.17187,0.61979 -1.71354,0 -3.40885,-0.60156 z" />
          <path
             id="path401"
             style="font-style:normal;font-variant:normal;font-weight:normal;font-stretch:normal;font-size:37.3333px;font-family:sans-serif;-inkscape-font-specification:'sans-serif, Normal';font-variant-ligatures:normal;font-variant-caps:normal;font-variant-numeric:normal;font-feature-settings:normal;text-align:start;writing-mode:lr-tb;text-anchor:start;fill:#ffffff;fill-opacity:1"
             d="m 626.26037,112.78072 q 2.80729,-0.40104 5.15885,-0.40104 5.86978,0 8.16666,2.27864 2.3151,2.26042 2.3151,6.83594 v 10.4453 h -3.46354 v -9.51562 q 0,-2.64322 -0.5651,-3.99218 -0.56511,-1.34896 -2.16927,-2.1875 -1.60417,-0.83854 -4.48437,-0.83854 -1.95052,0 -4.66667,0.36458 z" />
          <path
             id="path403"
             style="font-style:normal;font-variant:normal;font-weight:normal;font-stretch:normal;font-size:37.3333px;font-family:sans-serif;-inkscape-font-specification:'sans-serif, Normal';font-variant-ligatures:normal;font-variant-caps:normal;font-variant-numeric:normal;font-feature-settings:normal;text-align:start;writing-mode:lr-tb;text-anchor:start;fill:#ffffff;fill-opacity:1"
             d="m 622.72391,112.59843 v 19.34113 h -3.55468 v -19.34113 z" />
          <path
             id="path405"
             style="font-style:normal;font-variant:normal;font-weight:normal;font-stretch:normal;font-size:37.3333px;font-family:sans-serif;-inkscape-font-specification:'sans-serif, Normal';font-variant-ligatures:normal;font-variant-caps:normal;font-variant-numeric:normal;font-feature-settings:normal;text-align:start;writing-mode:lr-tb;text-anchor:start;fill:#ffffff;fill-opacity:1"
             d="M 613.66402,131.93956 H 596.78383 V 113.0177 q 3.90104,-0.63802 7.16406,-0.63802 3.57291,0 5.74218,1.05729 2.1875,1.03906 3.08073,2.78906 0.89322,1.75 0.89322,4.88541 z m -3.48176,-2.91666 v -7.5651 q 0,-2.13281 -0.47396,-3.35417 -0.47396,-1.22135 -1.89583,-1.95051 -1.42188,-0.7474 -4.08333,-0.7474 -1.54948,0 -3.46354,0.25521 v 13.36197 z" />
        </g>
      </g>
      <path
         d="M 745.48755,43.741592 A 110.20459,37.838493 0 0 1 635.28296,81.580086 110.20459,37.838493 0 0 1 525.07837,43.741592 110.20459,37.838493 0 0 1 635.28296,5.9030991 110.20459,37.838493 0 0 1 745.48755,43.741592"
         style="opacity:1;fill:#ffffff;fill-opacity:1;fill-rule:nonzero;stroke:#000000;stroke-width:1;stroke-miterlimit:4;stroke-dasharray:none;stroke-opacity:1;stop-opacity:1"
         id="ellipse2918-6" />
      <path
         inkscape:connector-curvature="0"
         id="path2920-0"
         d="m 505.32534,67.37484 44.88381,-22.87408 3.83138,14.79443 z"
         style="opacity:1;fill:#ffffff;stroke:none;stroke-width:1;stroke-linecap:butt;stroke-linejoin:miter;stroke-miterlimit:4;stroke-dasharray:none;stroke-opacity:1;stop-opacity:1"
         inkscape:export-xdpi="96"
         inkscape:export-ydpi="96" />
      <path
         d="M 745.48755,43.741592 A 110.20459,37.838493 0 0 1 635.28296,81.580086 110.20459,37.838493 0 0 1 525.07837,43.741592 110.20459,37.838493 0 0 1 635.28296,5.9030991 110.20459,37.838493 0 0 1 745.48755,43.741592"
         style="opacity:1;fill:#ffffff;fill-opacity:1;fill-rule:nonzero;stroke:none;stroke-width:1;stroke-miterlimit:4;stroke-dasharray:none;stroke-opacity:1;stop-opacity:1"
         id="ellipse2922-6" />
      <g
         style="font-style:normal;font-variant:normal;font-weight:normal;font-stretch:normal;font-size:21.3333px;line-height:1.25;font-family:sans-serif;-inkscape-font-specification:'sans-serif, Normal';font-variant-ligatures:normal;font-variant-caps:normal;font-variant-numeric:normal;font-feature-settings:normal;text-align:center;letter-spacing:0px;word-spacing:0px;writing-mode:lr-tb;text-anchor:middle;opacity:1;fill:#000000;fill-opacity:1;stroke:none;stop-opacity:1"
         id="flowRoot954"
         transform="translate(-6.59917,78.5416)"
         aria-label="אנו זקוקים לתמיכתך!‏">
        <path
           id="path410"
           style=""
           d="M 685.99733,-45.542843 H 683.539 l -4.21874,-5.968741 q -0.97917,0.531249 -1.15625,2.14583 l -0.44792,3.822911 h -2.0625 l 0.44792,-3.822911 q 0.3125,-2.666662 2.16666,-3.604161 l -2.57291,-3.624994 h 2.44791 l 3.54167,4.947909 q 0.64583,-0.427083 0.89583,-0.958332 0.26041,-0.541666 0.40625,-1.770831 l 0.26041,-2.218746 h 2.0625 l -0.25,2.281246 q -0.16667,1.468748 -0.66667,2.416663 -0.48958,0.937499 -1.70833,1.677081 z" />
        <path
           id="path412"
           style=""
           d="m 672.97651,-45.542843 h -5.33332 v -1.666664 h 3.34374 v -5.416659 q 0,-0.895831 -0.13541,-1.354164 -0.13542,-0.468749 -0.58334,-0.749999 -0.43749,-0.281249 -1.17708,-0.281249 -0.63541,0 -1.13541,0.104166 l -0.14583,-1.583331 q 0.69791,-0.229166 1.70833,-0.229166 1.41666,0 2.16666,0.531249 0.75,0.531249 1.02083,1.312498 0.27083,0.770832 0.27083,2.187497 z" />
        <path
           id="path414"
           style=""
           d="m 665.41403,-56.594909 v 11.052066 h -2.03125 v -11.052066 z" />
        <path
           id="path416"
           style=""
           d="m 655.37238,-55.188661 q -1.59375,0 -2.5,0.916665 -0.89583,0.906248 -0.89583,2.437496 0,0.302083 0.0937,1.177081 0.27083,2.52083 0.27083,3.583328 v 1.531248 h -1.99999 v -1.812497 q 0,-1.104165 -0.20833,-3.395828 -0.0729,-0.770833 -0.0729,-1.281248 0,-1.718748 1.40625,-2.895829 h -2.79167 v -1.666664 h 6.69791 z" />
        <path
           id="path418"
           style=""
           d="m 637.49741,-56.594909 h 9.02081 v 2.749995 q 0,1.177082 -0.21875,1.895831 -0.20833,0.708332 -0.76041,1.458331 l -0.55208,0.749999 q -0.85417,1.145831 -0.85417,2.427079 v 1.770831 h -1.98958 v -1.489581 q 0,-1.135415 0.19792,-1.833331 0.20833,-0.708332 0.85416,-1.520831 l 0.61459,-0.791665 q 0.44791,-0.572916 0.58333,-1.031248 0.14583,-0.46875 0.14583,-1.229165 v -1.489581 h -7.04165 z m 0.16666,15.302059 V -51.772 h 1.90625 v 10.47915 z" />
        <path
           id="path420"
           style=""
           d="m 634.33074,-56.594909 v 11.052066 h -2.03124 v -11.052066 z" />
        <path
           id="path422"
           style=""
           d="m 620.49743,-56.594909 h 9.02082 v 2.749995 q 0,1.177082 -0.21875,1.895831 -0.20833,0.708332 -0.76041,1.458331 l -0.55209,0.749999 q -0.85416,1.145831 -0.85416,2.427079 v 1.770831 h -1.98958 v -1.489581 q 0,-1.135415 0.19791,-1.833331 0.20834,-0.708332 0.85417,-1.520831 l 0.61458,-0.791665 q 0.44792,-0.572916 0.58333,-1.031248 0.14584,-0.46875 0.14584,-1.229165 v -1.489581 h -7.04166 z m 0.16667,15.302059 V -51.772 h 1.90625 v 10.47915 z" />
        <path
           id="path424"
           style=""
           d="m 617.33077,-56.594909 v 5.718741 h -2.03125 v -5.718741 z" />
        <path
           id="path426"
           style=""
           d="m 612.15369,-45.542843 h -9.64581 v -10.812483 q 2.22916,-0.364583 4.09374,-0.364583 2.04166,0 3.28124,0.604166 1.25,0.593749 1.76042,1.593747 0.51041,0.999999 0.51041,2.791662 z m -1.98958,-1.666664 v -4.32291 q 0,-1.218748 -0.27083,-1.916664 -0.27083,-0.697915 -1.08333,-1.114581 -0.8125,-0.427083 -2.33333,-0.427083 -0.88542,0 -1.97916,0.145833 v 7.635405 z" />
        <path
           id="path428"
           style=""
           d="m 678.70568,-29.681335 h 6.12499 v 2.749996 q 0,1.166664 -0.21875,1.89583 -0.21875,0.718749 -0.76042,1.458331 l -0.5625,0.749999 q -0.84375,1.135415 -0.84375,2.427079 v 1.770831 h -1.98958 v -1.489581 q 0,-1.343748 0.26042,-2.02083 0.27083,-0.677083 0.78125,-1.333331 l 0.625,-0.791666 q 0.45833,-0.583332 0.58333,-1.052082 0.13542,-0.468749 0.13542,-1.208331 v -1.489581 h -6.11458 v -5.885407 h 1.97917 z" />
        <path
           id="path430"
           style=""
           d="m 662.80987,-18.889685 0.34375,-1.489581 q 0.54166,0.187499 1.17708,0.187499 0.71875,0 0.98958,-0.312499 0.27083,-0.322916 0.27083,-1.156248 v -6.37499 q -0.89583,0 -2.19791,0.187499 l -0.17708,-1.656247 q 2.37499,-0.302083 4.82291,-0.302083 2.47916,0 3.81249,0.416666 1.33333,0.416666 2.03125,1.531248 0.70833,1.104165 0.70833,3.260411 v 5.968741 h -1.98958 v -5.437492 q 0,-1.61458 -0.25,-2.364579 -0.23958,-0.749999 -1.0625,-1.218748 -0.82291,-0.468749 -2.71874,-0.468749 l -1,0.02083 v 6.697906 q 0,1.041665 -0.19792,1.593747 -0.1875,0.552083 -0.80208,0.906249 -0.60417,0.354166 -1.8125,0.354166 -0.97916,0 -1.94791,-0.343749 z" />
        <path
           id="path432"
           style=""
           d="m 652.10155,-25.066759 -1.70833,-4.614576 h 1.94791 l 0.8125,2.437496 q 0.48958,-1.072915 1.53125,-1.812497 1.04166,-0.749999 2.23958,-0.749999 1.27083,0 2.18749,0.656249 0.92709,0.645832 1.34375,1.89583 0.41667,1.249999 0.41667,3.760411 v 4.864576 h -5.69791 v -1.666664 h 3.68749 v -3.239578 q 0,-1.833331 -0.125,-2.666663 -0.11458,-0.843749 -0.61458,-1.364581 -0.48958,-0.531249 -1.23958,-0.531249 -1.16666,0 -1.98958,1.208331 -0.8125,1.197915 -1.38541,4.16666 l -0.78125,4.093744 h -2.01042 l 0.875,-4.312493 q 0.125,-0.614583 0.51042,-2.124997 z" />
        <path
           id="path434"
           style=""
           d="m 647.95572,-29.681335 v 5.718741 h -2.03125 v -5.718741 z" />
        <path
           id="path436"
           style=""
           d="m 635.30991,-18.775102 0.27083,-1.791664 q 0.97917,0.312499 2.01041,0.312499 1.17709,0 1.97917,-0.479165 0.80208,-0.489583 1.22916,-1.374998 0.4375,-0.885416 0.4375,-2.041664 0,-1.73958 -0.94791,-2.833329 -0.9375,-1.093748 -2.69792,-1.093748 -1.04166,0 -2.01041,0.3125 l -0.27083,-1.791664 q 1.21875,-0.3125 2.17708,-0.3125 2.77083,0 4.32291,1.614581 1.5625,1.614581 1.5625,4.10416 0,1.624998 -0.67709,2.874996 -0.66666,1.249998 -1.94791,2.031246 -1.28125,0.781249 -3.26041,0.781249 -0.96875,0 -2.17708,-0.312499 z" />
        <path
           id="path438"
           style=""
           d="m 621.18493,-18.889685 0.34375,-1.489581 q 0.54167,0.187499 1.17708,0.187499 0.71875,0 0.98958,-0.312499 0.27084,-0.322916 0.27084,-1.156248 v -6.37499 q -0.89584,0 -2.19792,0.187499 l -0.17708,-1.656247 q 2.375,-0.302083 4.82291,-0.302083 2.47916,0 3.81249,0.416666 1.33333,0.416666 2.03125,1.531248 0.70833,1.104165 0.70833,3.260411 v 5.968741 h -1.98958 v -5.437492 q 0,-1.61458 -0.25,-2.364579 -0.23958,-0.749999 -1.0625,-1.218748 -0.82291,-0.468749 -2.71874,-0.468749 l -1,0.02083 v 6.697906 q 0,1.041665 -0.19792,1.593747 -0.1875,0.552083 -0.80208,0.906249 -0.60416,0.354166 -1.8125,0.354166 -0.97916,0 -1.94791,-0.343749 z" />
        <path
           id="path440"
           style=""
           d="m 610.30995,-29.577169 q 1.60416,-0.229166 2.93749,-0.229166 3.10417,0 4.55208,1.187498 1.44791,1.177082 1.44791,4.020827 v 10.218734 h -1.98958 v -9.687485 q 0,-1.80208 -0.46875,-2.562496 -0.45833,-0.760415 -1.41666,-1.104164 -0.95833,-0.34375 -2.22916,-0.34375 -1.125,0 -2.66667,0.208333 z" />
        <path
           id="path442"
           style=""
           d="m 606.8412,-34.139661 -0.27083,11.239565 h -1.77083 l -0.29167,-11.239565 z m -0.10416,15.510392 h -2.125 v -2.197913 h 2.125 z" />
      </g>
      <g
         style="font-style:normal;font-weight:normal;font-size:40px;line-height:1.25;font-family:sans-serif;letter-spacing:0px;word-spacing:0px;opacity:1;fill:#000000;fill-opacity:1;stroke:none;stop-opacity:1"
         id="flowRoot962"
         transform="translate(165.78753,227.45685)" />
    </g>
  </g>
</svg>
