<svg width="212" height="40" viewBox="0 0 212 40" fill="none" xmlns="http://www.w3.org/2000/svg">
<g clip-path="url(#clip0)">
<path d="M211.667 0H0V39.6875H211.667V0Z" fill="#0044AA"/>
<path d="M211.667 0H93.0669V39.6875H211.667V0Z" fill="#FFCC00"/>
<path d="M66.2233 0L74.6662 39.6875H143.439L134.996 0H66.2233Z" fill="#D5F6FF"/>
<path d="M134.453 17.9798L146.328 11.9277L147.342 15.8421L134.453 17.9798Z" fill="white" stroke="black" stroke-width="0.264583"/>
<path d="M87.1049 26.561C92.0597 26.561 96.0763 21.5093 96.0763 15.2777C96.0763 9.04612 92.0597 3.99442 87.1049 3.99442C82.1502 3.99442 78.1336 9.04612 78.1336 15.2777C78.1336 21.5093 82.1502 26.561 87.1049 26.561Z" fill="#803300"/>
<path d="M92.4572 22.7947C97.0415 25.9611 101.833 20.1474 105.997 20.7852" stroke="black" stroke-width="0.817184"/>
<path fill-rule="evenodd" clip-rule="evenodd" d="M87.1049 19.9997C81.5924 19.9997 77.1547 24.4374 77.1547 29.9499V39.6875H97.0552V29.9499C97.0552 24.4374 92.6175 19.9997 87.1049 19.9997Z" fill="#00D400"/>
<path d="M81.2919 23.1774C75.5246 22.8049 73.5768 34.6998 81.4033 36.8501" stroke="black" stroke-width="0.817184"/>
<path fill-rule="evenodd" clip-rule="evenodd" d="M87.1049 19.9997C83.7059 19.9997 80.7177 21.6884 78.9243 24.2743H95.2859C93.4925 21.6884 90.5039 19.9997 87.1049 19.9997Z" fill="#00D400"/>
<path d="M87.1049 20.5143C91.2739 20.5143 94.6535 17.1347 94.6535 12.9657C94.6535 8.79677 91.2739 5.41714 87.1049 5.41714C82.936 5.41714 79.5563 8.79677 79.5563 12.9657C79.5563 17.1347 82.936 20.5143 87.1049 20.5143Z" fill="#FFCC00"/>
<path d="M82.2689 39.063C83.1216 39.063 83.8129 38.3717 83.8129 37.5189C83.8129 36.6662 83.1216 35.9749 82.2689 35.9749C81.4161 35.9749 80.7249 36.6662 80.7249 37.5189C80.7249 38.3717 81.4161 39.063 82.2689 39.063Z" fill="#FFCC00"/>
<path fill-rule="evenodd" clip-rule="evenodd" d="M87.14 21.9361C87.1283 21.9364 87.1166 21.9366 87.1049 21.9369C87.0964 21.9366 87.0879 21.9364 87.0793 21.9361C87.0879 21.9365 87.0964 21.9368 87.1049 21.9371C87.1166 21.9368 87.1283 21.9365 87.14 21.9361Z" fill="#803300"/>
<path fill-rule="evenodd" clip-rule="evenodd" d="M87.1049 3.99437C85.9267 3.99435 84.7601 4.22639 83.6716 4.67725C82.5831 5.1281 81.5941 5.78893 80.761 6.62201C79.928 7.45509 79.2671 8.4441 78.8163 9.53258C78.3654 10.6211 78.1334 11.7877 78.1334 12.9658C78.1349 13.5077 78.1855 14.0483 78.2846 14.581C78.2933 14.538 78.3026 14.4951 78.3125 14.4522C78.372 14.2481 78.446 14.0462 78.5344 13.8472C78.6227 13.6484 78.7253 13.4528 78.8416 13.2611C78.9582 13.0693 79.0884 12.8816 79.2319 12.6989C79.3753 12.5163 79.5318 12.3388 79.7007 12.167C79.8696 11.9951 80.0507 11.8292 80.2434 11.6698C80.4361 11.5107 80.6401 11.3583 80.8547 11.2133C81.0692 11.0682 81.294 10.9307 81.5282 10.8012C81.7625 10.6717 82.0059 10.5506 82.2576 10.4381C82.5094 10.3256 82.7691 10.222 83.0357 10.1276C83.3022 10.0332 83.5753 9.9481 83.8541 9.87265C84.1329 9.79725 84.4169 9.7316 84.7052 9.67595C84.9934 9.6202 85.2854 9.57451 85.5802 9.53908C85.875 9.50377 86.1721 9.47874 86.4704 9.46408C86.6816 9.45354 86.8932 9.44821 87.1049 9.44809C87.404 9.44819 87.703 9.45869 88.0006 9.47958C88.2982 9.50028 88.5941 9.53132 88.8873 9.57259C89.1805 9.61394 89.4705 9.66548 89.7563 9.72701C90.042 9.78861 90.3232 9.86013 90.5986 9.94128C90.874 10.0223 91.1434 10.1129 91.4058 10.2126C91.6683 10.3125 91.9235 10.4214 92.1704 10.539C92.4173 10.6566 92.6557 10.7827 92.8846 10.9169C93.1133 11.051 93.3322 11.1929 93.5406 11.3422C93.7489 11.4915 93.9464 11.648 94.1323 11.8111C94.3183 11.9741 94.4925 12.1435 94.6542 12.3186C94.8158 12.4938 94.9647 12.6745 95.1003 12.8601C95.236 13.0456 95.3583 13.2358 95.4666 13.4299C95.5751 13.624 95.6695 13.8217 95.7495 14.0224C95.8197 14.2019 95.8783 14.3835 95.9251 14.5667C96.0233 14.0387 96.0739 13.5029 96.0763 12.9658C96.0763 11.7877 95.8443 10.621 95.3934 9.53256C94.9426 8.44409 94.2818 7.45507 93.4487 6.62199C92.6156 5.78891 91.6266 5.12808 90.5381 4.67723C89.4496 4.22638 88.283 3.99434 87.1049 3.99435L87.1049 3.99437Z" fill="#AA4400"/>
<path d="M85.2563 14.825C85.8248 14.825 86.2856 14.3642 86.2856 13.7957C86.2856 13.2272 85.8248 12.7663 85.2563 12.7663C84.6878 12.7663 84.2269 13.2272 84.2269 13.7957C84.2269 14.3642 84.6878 14.825 85.2563 14.825Z" fill="black"/>
<path d="M90.5746 14.825C91.1431 14.825 91.604 14.3642 91.604 13.7957C91.604 13.2272 91.1431 12.7663 90.5746 12.7663C90.0061 12.7663 89.5453 13.2272 89.5453 13.7957C89.5453 14.3642 90.0061 14.825 90.5746 14.825Z" fill="black"/>
<path fill-rule="evenodd" clip-rule="evenodd" d="M85.2436 16.9115C85.5397 17.4475 85.9114 17.8792 86.3321 18.1758C86.7529 18.4724 87.2123 18.6266 87.6776 18.6273C88.1432 18.6269 88.6029 18.4729 89.0239 18.1763C89.4449 17.8796 89.8168 17.4478 90.113 16.9115H85.2436Z" fill="black"/>
<path fill-rule="evenodd" clip-rule="evenodd" d="M112.705 35.1912C112.705 35.1912 112.715 36.4148 112.014 36.7799C111.514 37.0406 110.455 36.4935 110.455 36.4935L112.705 35.1912Z" fill="#DE8787"/>
<path fill-rule="evenodd" clip-rule="evenodd" d="M110.948 24.4443C111.674 24.6886 112.035 25.8345 111.967 26.3279L108.771 25.0302C109.245 24.89 110.218 24.1987 110.948 24.4443Z" fill="#DE8787"/>
<path fill-rule="evenodd" clip-rule="evenodd" d="M103.777 38.2853C104.183 38.6402 104.3 39.7067 105.577 39.6666C106.854 39.6265 107.054 38.663 107.614 38.4104C108.15 38.1686 103.364 37.924 103.777 38.2853Z" fill="#DE8787"/>
<path fill-rule="evenodd" clip-rule="evenodd" d="M107.35 24.6024C106.253 24.6032 105.149 24.8066 104.127 25.1837C101.225 26.253 99.6536 28.6404 99.2705 30.1788C97.8308 35.9611 103.364 37.924 103.777 38.2853C104.183 38.6402 107.054 38.663 107.614 38.4104C108.15 38.1686 109.122 38.3236 111.94 36.1505C114.744 33.9876 114.823 29.3021 112.917 27.025C112.2 26.1679 111.401 25.598 110.427 25.2033C110.316 25.1787 110.159 25.1696 110.077 25.1664C110.047 25.1161 110.011 25.0715 109.956 25.0188C109.124 24.7356 108.239 24.6021 107.35 24.6024Z" fill="#E9AFAF"/>
<path fill-rule="evenodd" clip-rule="evenodd" d="M107.529 32.8575C108.722 32.9865 111.157 31.4344 109.901 28.3371C108.645 25.2395 104.756 25.9118 104.208 27.6951C104.104 28.0325 105.808 28.3881 106.524 29.7603C107.241 31.1322 106.946 32.795 107.529 32.8575Z" fill="#DE8787"/>
<path fill-rule="evenodd" clip-rule="evenodd" d="M102.82 26.5882C103.498 26.351 104.833 25.5484 104.319 25.118C103.549 25.3819 102.333 23.1817 100.077 24.6348C98.7813 25.469 100.506 27.8065 100.072 28.4183C100.675 27.4129 101.054 27.2032 102.82 26.5882H102.82Z" fill="#DE8787"/>
<path fill-rule="evenodd" clip-rule="evenodd" d="M99.3264 31.6579C98.9929 32.1024 98.2381 32.2995 98.1963 33.2483C98.1541 34.2111 98.9599 35.94 100.136 36.276C101.308 36.6109 101.433 36.2342 102.033 36.2623C102.619 36.2894 102.661 33.9321 101.615 32.8298C100.575 31.7348 99.8148 31.5602 99.3264 31.6579V31.6579Z" fill="#DE8787"/>
<path d="M98.5796 32.3378C98.3768 32.5509 98.2151 32.8244 98.1964 33.2493C98.1543 34.2119 98.9596 35.9416 100.136 36.2779C100.573 36.4029 100.864 36.4282 101.089 36.413C101.149 36.1433 101.182 35.8602 101.182 35.5675C101.182 33.8043 100.021 32.3716 98.5796 32.3379L98.5796 32.3378Z" fill="#E9AFAF"/>
<path opacity="0.9" fill-rule="evenodd" clip-rule="evenodd" d="M104.024 27.9298C104.024 27.9298 105.892 27.0819 107.101 28.1273C108.7 29.5083 107.24 33.1193 107.24 33.1193L104.024 27.9298Z" fill="#A8443F"/>
<path opacity="0.9" fill-rule="evenodd" clip-rule="evenodd" d="M102.8 26.746C101.833 26.4895 100.61 24.8319 99.8995 25.483C99.3749 25.9638 100.472 28.1667 100.176 28.4232C99.8799 28.6797 103.275 26.877 102.8 26.746Z" fill="#A8443E"/>
<path opacity="0.95" fill-rule="evenodd" clip-rule="evenodd" d="M98.5385 33.2905C98.4124 33.4078 98.482 34.3229 98.6004 34.6855C98.7188 35.0482 98.9658 35.3588 99.047 35.2998C99.124 35.2439 99.144 34.7713 99.0618 34.4065C98.9778 34.0368 98.9539 33.4011 98.8386 33.3597C98.7258 33.3189 98.6608 33.1766 98.5385 33.2905L98.5385 33.2905ZM99.4596 34.0224C99.3299 34.1106 99.2993 34.7396 99.3404 35.1107C99.3935 35.5219 99.7055 36.0943 99.9891 36.1646C100.273 36.2345 100.338 36.1439 100.275 35.732C100.212 35.3205 100.045 34.909 100.017 34.6437C99.9891 34.3787 100.009 34.2663 99.8356 34.1419C99.6616 34.0172 99.5889 33.9342 99.4596 34.0224Z" fill="#A73C39"/>
<path fill-rule="evenodd" clip-rule="evenodd" d="M108.636 24.8024C107.054 24.8074 105.482 25.4019 104.721 25.872C104.756 25.9978 105.325 26.1641 105.483 26.1542C107.093 25.6535 108.563 25.0336 110.08 25.1682C110.047 25.0867 109.946 25.0027 109.815 24.9222C109.43 24.8379 109.032 24.8013 108.636 24.8024Z" fill="#DE8787"/>
<path opacity="0.75" fill-rule="evenodd" clip-rule="evenodd" d="M108.97 25.1232C107.652 25.1341 106.42 25.5126 105.217 26.1114C105.328 26.1399 105.428 26.1574 105.482 26.1543C106.934 25.7027 108.272 25.1538 109.634 25.1496C109.41 25.1303 109.188 25.1211 108.97 25.1232V25.1232Z" fill="#AA4B45"/>
<path d="M100.333 30.4819C100.5 30.5714 100.774 30.3857 100.944 30.0671C101.115 29.7485 101.118 29.4177 100.95 29.3282C100.783 29.2386 100.509 29.4243 100.339 29.7429C100.168 30.0615 100.165 30.3923 100.333 30.4819Z" fill="white"/>
<path d="M100.897 29.8775C100.847 30.0799 100.54 30.3088 100.373 30.2193C100.206 30.1298 100.212 29.7381 100.357 29.5828C100.44 29.4934 100.556 29.4763 100.723 29.5659C100.89 29.6554 100.925 29.762 100.897 29.8775L100.897 29.8775Z" fill="#2B1100"/>
<path d="M102.627 31.6605C102.818 31.7626 103.13 31.551 103.324 31.1879C103.519 30.8248 103.522 30.4478 103.331 30.3457C103.141 30.2437 102.829 30.4553 102.634 30.8184C102.44 31.1814 102.437 31.5585 102.627 31.6605Z" fill="white"/>
<path d="M103.265 31.0084C103.208 31.2391 102.858 31.5 102.668 31.3979C102.477 31.2959 102.485 30.8496 102.649 30.6726C102.744 30.5707 102.876 30.5513 103.067 30.6533C103.257 30.7553 103.297 30.8768 103.265 31.0084L103.265 31.0084Z" fill="#2B1100"/>
<path d="M107.224 25.2852C108.389 25.2852 109.333 24.2921 109.333 23.067C109.333 21.8419 108.389 20.8487 107.224 20.8487C106.06 20.8487 105.116 21.8419 105.116 23.067C105.116 24.2921 106.06 25.2852 107.224 25.2852Z" fill="#F5D558"/>
<path d="M107.224 24.6844C108.118 24.6844 108.842 23.9602 108.842 23.067C108.842 22.1737 108.118 21.4496 107.224 21.4496C106.331 21.4496 105.607 22.1737 105.607 23.067C105.607 23.9602 106.331 24.6844 107.224 24.6844Z" fill="#CBC4AC"/>
<path d="M105.944 22.8431C106.797 22.8431 107.488 22.1518 107.488 21.2991C107.488 20.4463 106.797 19.7551 105.944 19.7551C105.092 19.7551 104.4 20.4463 104.4 21.2991C104.4 22.1518 105.092 22.8431 105.944 22.8431Z" fill="#FFCC00"/>
<path fill-rule="evenodd" clip-rule="evenodd" d="M87.1049 32.9934C87.1049 32.9934 82.283 29.556 82.283 27.5031C82.283 25.4264 83.5004 24.7341 84.694 24.7341C86.5082 24.7341 87.1049 26.8109 87.1049 26.8109C87.1049 26.8109 87.7256 24.7341 89.5159 24.7341C90.7333 24.7341 91.9269 25.4264 91.9269 27.5031C91.9269 29.556 87.1049 32.9934 87.1049 32.9934Z" fill="#FF0000"/>
<path d="M119.611 23.4309C112.861 24.4586 112.18 18.016 111.205 11.9364" stroke="black" stroke-width="0.817184"/>
<path d="M133.182 33.9732H119.745V39.6875H133.182V33.9732Z" fill="black"/>
<path fill-rule="evenodd" clip-rule="evenodd" d="M125.898 19.9997C120.386 19.9997 115.948 24.4374 115.948 29.9499V39.6875H135.849V29.9499C135.849 24.4374 131.411 19.9997 125.898 19.9997Z" fill="#0066FF"/>
<path d="M125.898 20.5143C130.067 20.5143 133.447 17.1347 133.447 12.9657C133.447 8.79677 130.067 5.41714 125.898 5.41714C121.729 5.41714 118.35 8.79677 118.35 12.9657C118.35 17.1347 121.729 20.5143 125.898 20.5143Z" fill="#FFCC00"/>
<path d="M123.239 13.9951C123.808 13.9951 124.268 13.5343 124.268 12.9658C124.268 12.3973 123.808 11.9364 123.239 11.9364C122.671 11.9364 122.21 12.3973 122.21 12.9658C122.21 13.5343 122.671 13.9951 123.239 13.9951Z" fill="black"/>
<path d="M128.557 13.9951C129.126 13.9951 129.587 13.5343 129.587 12.9658C129.587 12.3973 129.126 11.9364 128.557 11.9364C127.989 11.9364 127.528 12.3973 127.528 12.9658C127.528 13.5343 127.989 13.9951 128.557 13.9951Z" fill="black"/>
<path fill-rule="evenodd" clip-rule="evenodd" d="M123.464 16.9115C123.76 17.4475 124.131 17.8792 124.552 18.1758C124.973 18.4724 125.432 18.6266 125.898 18.6273C126.363 18.6269 126.823 18.4729 127.244 18.1763C127.665 17.8796 128.037 17.4478 128.333 16.9115H123.464Z" fill="black"/>
<path d="M114.051 1.92565L110.642 1.47505C110.058 1.39781 109.522 1.80882 109.445 2.39306L108.373 10.5033C108.295 11.0876 108.706 11.6238 109.291 11.701L112.699 12.1516C113.283 12.2289 113.82 11.8178 113.897 11.2336L114.969 3.12335C115.046 2.53911 114.635 2.00288 114.051 1.92565Z" fill="#1A1A1A"/>
<path d="M114.544 2.94754L109.901 2.33379L108.798 10.6791L113.441 11.2929L114.544 2.94754Z" fill="#CCCCCC"/>
<path d="M112.151 4.39806L111.834 4.35614C111.596 4.32462 111.377 4.49234 111.346 4.73075L111.127 6.38239C111.096 6.6208 111.263 6.83962 111.502 6.87113L111.819 6.91306C112.057 6.94458 112.276 6.77686 112.308 6.53845L112.526 4.88681C112.558 4.6484 112.39 4.42958 112.151 4.39806Z" fill="#FF0000"/>
<path d="M112.204 5.33314L111.541 5.24548C111.042 5.17958 110.585 5.53027 110.519 6.02876L110.062 9.48219C109.996 9.98068 110.347 10.4382 110.846 10.5041L111.509 10.5918C112.007 10.6577 112.465 10.307 112.531 9.80849L112.987 6.35506C113.053 5.85657 112.702 5.39904 112.204 5.33314Z" fill="#280B0B"/>
<path fill-rule="evenodd" clip-rule="evenodd" d="M110.461 6.46767L110.12 9.04322L112.589 9.36951L112.929 6.79396L110.461 6.46767Z" fill="#FF0000"/>
<path d="M114.404 4.0054L109.761 3.39165L108.798 10.6791L113.441 11.2929L114.404 4.0054Z" fill="white" fill-opacity="0.302752"/>
<path fill-rule="evenodd" clip-rule="evenodd" d="M109.901 2.33379L113.441 11.2929L108.798 10.6791L109.901 2.33379Z" fill="white" fill-opacity="0.498039"/>
<path d="M111.033 13.652C111.886 13.652 112.577 12.9607 112.577 12.108C112.577 11.2552 111.886 10.5639 111.033 10.5639C110.18 10.5639 109.489 11.2552 109.489 12.108C109.489 12.9607 110.18 13.652 111.033 13.652Z" fill="#FFCC00"/>
<path d="M119.104 26.2086L120.078 24.384H120.537L119.319 26.6179V28.0331H118.89V26.6379L117.674 24.384H118.138L119.104 26.2086Z" fill="white"/>
<path d="M122.134 28.083C121.73 28.083 121.411 27.9599 121.176 27.7136C120.943 27.4674 120.827 27.1254 120.827 26.6878C120.827 26.2468 120.935 25.8966 121.151 25.637C121.369 25.3774 121.661 25.2476 122.027 25.2476C122.37 25.2476 122.641 25.3608 122.841 25.5871C123.04 25.8117 123.14 26.1087 123.14 26.4781V26.7402H121.256C121.264 27.0613 121.345 27.3051 121.498 27.4715C121.653 27.6379 121.87 27.7211 122.149 27.7211C122.444 27.7211 122.735 27.6595 123.023 27.5364V27.9058C122.877 27.969 122.738 28.014 122.606 28.0406C122.476 28.0689 122.319 28.083 122.134 28.083ZM122.022 25.5946C121.802 25.5946 121.627 25.6661 121.495 25.8092C121.366 25.9523 121.289 26.1503 121.266 26.4033H122.696C122.696 26.142 122.638 25.9423 122.521 25.8042C122.405 25.6645 122.238 25.5946 122.022 25.5946Z" fill="white"/>
<path d="M125.609 27.2868C125.609 27.5414 125.514 27.7377 125.324 27.8759C125.135 28.014 124.868 28.083 124.526 28.083C124.163 28.083 123.88 28.0256 123.677 27.9108V27.5264C123.808 27.593 123.949 27.6454 124.099 27.6837C124.25 27.7219 124.396 27.7411 124.536 27.7411C124.752 27.7411 124.918 27.707 125.035 27.6387C125.151 27.5689 125.209 27.4632 125.209 27.3218C125.209 27.2153 125.163 27.1246 125.07 27.0497C124.978 26.9732 124.798 26.8833 124.531 26.7801C124.276 26.6853 124.095 26.6029 123.986 26.533C123.88 26.4615 123.8 26.3808 123.747 26.2909C123.695 26.2011 123.669 26.0938 123.669 25.969C123.669 25.746 123.76 25.5704 123.941 25.4423C124.123 25.3125 124.372 25.2476 124.688 25.2476C124.982 25.2476 125.27 25.3075 125.551 25.4273L125.404 25.7643C125.13 25.6511 124.881 25.5946 124.658 25.5946C124.461 25.5946 124.313 25.6254 124.214 25.6869C124.114 25.7485 124.064 25.8333 124.064 25.9415C124.064 26.0147 124.082 26.0771 124.119 26.1287C124.157 26.1803 124.218 26.2294 124.301 26.276C124.384 26.3226 124.544 26.3899 124.78 26.4781C125.105 26.5963 125.323 26.7152 125.437 26.8351C125.551 26.9549 125.609 27.1054 125.609 27.2868Z" fill="white"/>
<path d="M130.803 28.1774H130.384L129.648 25.7339C129.613 25.6257 129.574 25.4893 129.53 25.3246C129.487 25.1598 129.465 25.0608 129.463 25.0275C129.426 25.2472 129.368 25.4876 129.288 25.7489L128.574 28.1774H128.155L127.184 24.5284H127.633L128.21 26.7822C128.29 27.0983 128.348 27.3845 128.385 27.6408C128.43 27.3363 128.496 27.0384 128.584 26.7472L129.238 24.5284H129.688L130.374 26.7672C130.454 27.0251 130.521 27.3163 130.576 27.6408C130.608 27.4045 130.668 27.1166 130.756 26.7772L131.33 24.5284H131.779L130.803 28.1774Z" fill="white"/>
<path d="M133.444 28.2273C133.04 28.2273 132.72 28.1042 132.486 27.8579C132.253 27.6117 132.136 27.2697 132.136 26.8321C132.136 26.3912 132.244 26.0409 132.461 25.7813C132.679 25.5217 132.971 25.392 133.337 25.392C133.679 25.392 133.951 25.5051 134.15 25.7314C134.35 25.956 134.45 26.253 134.45 26.6224V26.8845H132.565C132.574 27.2057 132.654 27.4494 132.808 27.6158C132.962 27.7822 133.179 27.8654 133.459 27.8654C133.754 27.8654 134.045 27.8039 134.333 27.6807V28.0501C134.186 28.1134 134.047 28.1583 133.916 28.1849C133.786 28.2132 133.629 28.2273 133.444 28.2273ZM133.332 25.7389C133.112 25.7389 132.937 25.8104 132.805 25.9535C132.675 26.0966 132.599 26.2946 132.575 26.5476H134.006C134.006 26.2863 133.947 26.0867 133.831 25.9485C133.714 25.8088 133.548 25.7389 133.332 25.7389Z" fill="white"/>
<path d="M120.951 31.9427C120.951 32.3323 120.81 32.6361 120.527 32.8541C120.245 33.0721 119.861 33.1811 119.377 33.1811C118.852 33.1811 118.448 33.1135 118.166 32.9783V32.4817C118.347 32.5584 118.545 32.619 118.759 32.6634C118.973 32.7078 119.185 32.73 119.395 32.73C119.738 32.73 119.996 32.6654 120.17 32.5362C120.344 32.405 120.43 32.2233 120.43 31.9912C120.43 31.8378 120.399 31.7126 120.337 31.6157C120.276 31.5168 120.173 31.426 120.028 31.3432C119.884 31.2605 119.665 31.1666 119.371 31.0616C118.959 30.9143 118.664 30.7397 118.487 30.5378C118.311 30.3359 118.223 30.0725 118.223 29.7475C118.223 29.4064 118.351 29.1349 118.608 28.933C118.864 28.7312 119.203 28.6302 119.625 28.6302C120.065 28.6302 120.47 28.711 120.839 28.8725L120.679 29.3206C120.313 29.1672 119.958 29.0905 119.613 29.0905C119.34 29.0905 119.128 29.149 118.974 29.2661C118.821 29.3832 118.744 29.5457 118.744 29.7536C118.744 29.907 118.772 30.0332 118.829 30.1321C118.885 30.229 118.98 30.3188 119.113 30.4016C119.249 30.4823 119.455 30.5721 119.731 30.671C120.195 30.8366 120.514 31.0142 120.688 31.2039C120.863 31.3937 120.951 31.6399 120.951 31.9427Z" fill="white"/>
<path d="M123.614 33.1811C123.134 33.1811 122.761 33.0338 122.497 32.7391C122.235 32.4423 122.103 32.0235 122.103 31.4825C122.103 30.9274 122.237 30.4984 122.503 30.1957C122.771 29.8929 123.153 29.7415 123.648 29.7415C123.807 29.7415 123.966 29.7586 124.126 29.7929C124.285 29.8273 124.411 29.8676 124.501 29.9141L124.347 30.341C124.236 30.2966 124.115 30.2602 123.984 30.232C123.852 30.2017 123.736 30.1866 123.635 30.1866C122.961 30.1866 122.624 30.6165 122.624 31.4764C122.624 31.8842 122.706 32.1971 122.869 32.4151C123.035 32.6331 123.279 32.7421 123.602 32.7421C123.879 32.7421 124.162 32.6825 124.453 32.5634V33.0085C124.231 33.1236 123.951 33.1811 123.614 33.1811Z" fill="white"/>
<path d="M127.943 33.1206L127.843 32.6482H127.818C127.653 32.8561 127.487 32.9974 127.322 33.0721C127.158 33.1448 126.953 33.1811 126.707 33.1811C126.378 33.1811 126.12 33.0963 125.932 32.9268C125.746 32.7572 125.653 32.516 125.653 32.2031C125.653 31.533 126.189 31.1817 127.261 31.1494L127.824 31.1313V30.9254C127.824 30.665 127.768 30.4732 127.655 30.3501C127.544 30.2249 127.365 30.1623 127.119 30.1623C126.842 30.1623 126.53 30.2471 126.18 30.4167L126.026 30.0321C126.189 29.9433 126.368 29.8737 126.562 29.8232C126.758 29.7728 126.953 29.7475 127.149 29.7475C127.545 29.7475 127.838 29.8353 128.027 30.011C128.219 30.1866 128.315 30.4682 128.315 30.8557V33.1206H127.943ZM126.807 32.7663C127.12 32.7663 127.365 32.6805 127.543 32.5089C127.722 32.3374 127.812 32.0972 127.812 31.7883V31.4886L127.31 31.5097C126.91 31.5239 126.621 31.5865 126.444 31.6975C126.268 31.8065 126.18 31.977 126.18 32.2092C126.18 32.3909 126.235 32.5291 126.344 32.624C126.455 32.7189 126.609 32.7663 126.807 32.7663Z" fill="white"/>
<path d="M131.738 33.1206V30.9738C131.738 30.7033 131.676 30.5015 131.553 30.3682C131.43 30.235 131.237 30.1684 130.975 30.1684C130.628 30.1684 130.373 30.2623 130.212 30.45C130.05 30.6377 129.97 30.9476 129.97 31.3795V33.1206H129.467V29.802H129.876L129.957 30.2562H129.982C130.085 30.0927 130.229 29.9665 130.415 29.8777C130.6 29.7869 130.807 29.7415 131.035 29.7415C131.435 29.7415 131.736 29.8384 131.938 30.0321C132.14 30.2239 132.241 30.5317 132.241 30.9556V33.1206H131.738Z" fill="white"/>
<path d="M133.919 31.9003H133.602L133.447 28.6938H134.074L133.919 31.9003ZM133.393 32.7996C133.393 32.5251 133.514 32.3878 133.756 32.3878C133.873 32.3878 133.963 32.4232 134.025 32.4938C134.09 32.5645 134.122 32.6664 134.122 32.7996C134.122 32.9288 134.09 33.0297 134.025 33.1024C133.961 33.1731 133.871 33.2084 133.756 33.2084C133.651 33.2084 133.564 33.1771 133.496 33.1145C133.427 33.0499 133.393 32.945 133.393 32.7996Z" fill="white"/>
<path fill-rule="evenodd" clip-rule="evenodd" d="M125.898 3.42746C123.69 3.43007 121.569 4.28741 119.979 5.81972C118.39 7.35202 117.455 9.44029 117.371 11.6467L117.664 11.9398L118.926 13.2018L120.512 10.4551L121.031 11.355L122.416 8.95654L124.129 10.6701L125.953 8.84605L125.954 8.84206L125.955 8.84605L127.779 10.6701L129.492 8.95654L130.877 11.355L131.397 10.4551L132.983 13.2018L134.244 11.9398L134.434 11.7505C134.376 9.52439 133.452 7.40874 131.858 5.85413C130.263 4.29951 128.125 3.42879 125.898 3.42746Z" fill="#D45500"/>
<path fill-rule="evenodd" clip-rule="evenodd" d="M118.331 33.9732V39.6875H119.855V33.9732H118.331ZM120.617 33.9732V39.6875H121.379V33.9732H120.617ZM122.141 33.9732V39.6875H122.522V33.9732H122.141ZM123.284 33.9732V39.6875H124.046V33.9732H123.284ZM125.189 33.9732V39.6875H125.95V33.9732H125.189ZM126.712 33.9732V39.6875H128.236V33.9732H126.712ZM129.379 33.9732V39.6875H129.76V33.9732H129.379ZM130.522 33.9732V39.6875H132.046V33.9732H130.522ZM132.808 33.9732V39.6875H133.57V33.9732H132.808Z" fill="white"/>
<path d="M42 10L1.95868 10.245L2.00001 17L42.0413 16.755L42 10Z" fill="#00CCFF"/>
<path d="M54.9305 23.728L3 24L3.06953 37.272L55 37L54.9305 23.728Z" fill="#FF0066"/>
<path d="M4.95288 6.28644C4.95093 6.49347 4.92944 6.65948 4.88843 6.78448C4.84937 6.90753 4.78296 7.02667 4.68921 7.14191C4.59546 7.25714 4.45874 7.40948 4.27905 7.59894C4.09937 7.78644 3.99878 7.97687 3.97729 8.17023L3.97144 8.27863C3.97144 8.49152 4.02808 8.65363 4.14136 8.76495C4.25464 8.87823 4.41772 8.93488 4.63062 8.93488C4.82593 8.93488 4.98413 8.87921 5.10522 8.76788C5.22827 8.65851 5.28979 8.51495 5.28979 8.33722H5.83179C5.82788 8.65167 5.71558 8.90851 5.49487 9.10773C5.27612 9.30695 4.98804 9.40656 4.63062 9.40656C4.2478 9.40656 3.9519 9.30792 3.74292 9.11066C3.53394 8.91534 3.42944 8.64288 3.42944 8.29327C3.42944 7.95538 3.58569 7.61554 3.89819 7.27374L4.21753 6.94269C4.34644 6.79034 4.41089 6.57159 4.41089 6.28644H4.95288ZM4.97632 5.35773C4.97632 5.44562 4.94897 5.51984 4.89429 5.58038C4.84155 5.64093 4.76245 5.6712 4.65698 5.6712C4.55151 5.6712 4.47144 5.64093 4.41675 5.58038C4.36206 5.51984 4.33472 5.44562 4.33472 5.35773C4.33472 5.27179 4.36206 5.19952 4.41675 5.14093C4.47144 5.08234 4.55151 5.05304 4.65698 5.05304C4.76245 5.05304 4.84155 5.08234 4.89429 5.14093C4.94897 5.19952 4.97632 5.27179 4.97632 5.35773ZM9.57007 4.013V6.91339C9.56812 7.31573 9.44116 7.64484 9.18921 7.9007C8.93921 8.15656 8.59937 8.30011 8.16968 8.33136L8.02026 8.33722C7.55347 8.33722 7.1814 8.21124 6.90405 7.95929C6.62671 7.70734 6.48608 7.36066 6.48218 6.91925V4.013H7.03882V6.90167C7.03882 7.21027 7.12378 7.4505 7.2937 7.62238C7.46362 7.7923 7.70581 7.87726 8.02026 7.87726C8.33862 7.87726 8.58179 7.7923 8.74976 7.62238C8.91968 7.45245 9.00464 7.2132 9.00464 6.9046V4.013H9.57007ZM10.8855 5.1087L10.9031 5.50714C11.1453 5.20245 11.4617 5.05011 11.8523 5.05011C12.5222 5.05011 12.8601 5.42804 12.866 6.1839V8.27863H12.324V6.18097C12.322 5.95245 12.2693 5.78351 12.1658 5.67413C12.0642 5.56476 11.905 5.51007 11.6882 5.51007C11.5125 5.51007 11.3582 5.55695 11.2253 5.6507C11.0925 5.74445 10.989 5.86749 10.9148 6.01984V8.27863H10.3728V5.1087H10.8855ZM17.8494 6.72882C17.8494 7.21124 17.739 7.59991 17.5183 7.89484C17.2976 8.18976 16.9988 8.33722 16.6218 8.33722C16.2371 8.33722 15.9343 8.21515 15.7136 7.97101V9.49738H15.1716V5.1087H15.6667L15.6931 5.46027C15.9138 5.18683 16.2205 5.05011 16.613 5.05011C16.9939 5.05011 17.2947 5.19366 17.5154 5.48077C17.738 5.76788 17.8494 6.1673 17.8494 6.67902V6.72882ZM17.3074 6.6673C17.3074 6.30988 17.2312 6.02765 17.0789 5.82062C16.9265 5.61359 16.7175 5.51007 16.4519 5.51007C16.1238 5.51007 15.8777 5.65558 15.7136 5.94659V7.46124C15.8757 7.75031 16.1238 7.89484 16.4578 7.89484C16.7175 7.89484 16.9236 7.7923 17.0759 7.58722C17.2302 7.38019 17.3074 7.07355 17.3074 6.6673ZM20.073 5.59503C19.991 5.58136 19.9021 5.57452 19.8064 5.57452C19.4509 5.57452 19.2097 5.72589 19.0828 6.02863V8.27863H18.5408V5.1087H19.0681L19.0769 5.47491C19.2546 5.19171 19.5066 5.05011 19.8328 5.05011C19.9382 5.05011 20.0183 5.06378 20.073 5.09113V5.59503ZM20.3718 6.66437C20.3718 6.35382 20.4324 6.07452 20.5535 5.82648C20.6765 5.57843 20.8464 5.38702 21.0632 5.25226C21.282 5.11749 21.531 5.05011 21.8103 5.05011C22.2419 5.05011 22.5906 5.19952 22.8562 5.49835C23.1238 5.79718 23.2576 6.19464 23.2576 6.69073V6.72882C23.2576 7.03741 23.198 7.31476 23.0789 7.56085C22.9617 7.80499 22.7927 7.99542 22.572 8.13214C22.3533 8.26886 22.1013 8.33722 21.8162 8.33722C21.3865 8.33722 21.0378 8.18781 20.7703 7.88898C20.5046 7.59015 20.3718 7.19464 20.3718 6.70245V6.66437ZM20.9167 6.72882C20.9167 7.08038 20.9978 7.36261 21.1599 7.5755C21.324 7.78839 21.5427 7.89484 21.8162 7.89484C22.0916 7.89484 22.3103 7.78741 22.4724 7.57257C22.6345 7.35577 22.7156 7.05304 22.7156 6.66437C22.7156 6.31671 22.6326 6.03546 22.4666 5.82062C22.3025 5.60382 22.0837 5.49542 21.8103 5.49542C21.5427 5.49542 21.3269 5.60187 21.1628 5.81476C20.9988 6.02765 20.9167 6.33234 20.9167 6.72882ZM24.9275 7.48468L25.6658 5.1087H26.2458L24.9714 8.76788C24.7742 9.29523 24.4607 9.5589 24.031 9.5589L23.9285 9.55011L23.7263 9.51202V9.07257L23.8728 9.08429C24.0564 9.08429 24.199 9.04718 24.3005 8.97296C24.4041 8.89874 24.489 8.763 24.5554 8.56573L24.6755 8.24347L23.5447 5.1087H24.1365L24.9275 7.48468ZM28.0066 8.33722C27.5769 8.33722 27.2273 8.19659 26.9578 7.91534C26.6882 7.63214 26.5535 7.25421 26.5535 6.78156V6.68195C26.5535 6.36749 26.613 6.08722 26.7322 5.84113C26.8533 5.59308 27.0212 5.39972 27.2361 5.26105C27.4529 5.12042 27.6873 5.05011 27.9392 5.05011C28.3513 5.05011 28.6716 5.18585 28.9001 5.45734C29.1287 5.72882 29.2429 6.11749 29.2429 6.62335V6.84894H27.0955C27.1033 7.16144 27.1941 7.41437 27.3679 7.60773C27.5437 7.79913 27.7664 7.89484 28.0359 7.89484C28.2273 7.89484 28.3894 7.85577 28.5222 7.77765C28.655 7.69952 28.7712 7.59601 28.8708 7.4671L29.2019 7.72491C28.9363 8.13312 28.5378 8.33722 28.0066 8.33722ZM27.9392 5.49542C27.7205 5.49542 27.5369 5.5755 27.3884 5.73566C27.24 5.89386 27.1482 6.11652 27.113 6.40363H28.7009V6.36261C28.6853 6.08722 28.6111 5.87433 28.4783 5.72394C28.3455 5.57159 28.1658 5.49542 27.9392 5.49542ZM31.1443 7.89484C31.3376 7.89484 31.5066 7.83624 31.6511 7.71906C31.7957 7.60187 31.8757 7.45538 31.8914 7.2796H32.4041C32.3943 7.46124 32.3318 7.63409 32.2166 7.79816C32.1013 7.96222 31.947 8.09308 31.7537 8.19073C31.5623 8.28839 31.3591 8.33722 31.1443 8.33722C30.7126 8.33722 30.3689 8.19366 30.113 7.90656C29.8591 7.61749 29.7322 7.22296 29.7322 6.72296V6.63214C29.7322 6.32355 29.7888 6.04913 29.9021 5.8089C30.0154 5.56866 30.1775 5.38214 30.3884 5.24933C30.6013 5.11652 30.8523 5.05011 31.1414 5.05011C31.4968 5.05011 31.7917 5.15656 32.0261 5.36945C32.2625 5.58234 32.3884 5.8587 32.4041 6.19855H31.8914C31.8757 5.99347 31.7976 5.8255 31.657 5.69464C31.5183 5.56183 31.3464 5.49542 31.1414 5.49542C30.866 5.49542 30.6521 5.59503 30.4998 5.79425C30.3494 5.99152 30.2742 6.27765 30.2742 6.65265V6.75519C30.2742 7.12042 30.3494 7.40167 30.4998 7.59894C30.6501 7.7962 30.865 7.89484 31.1443 7.89484ZM33.7488 4.34113V5.1087H34.3406V5.52765H33.7488V7.49347C33.7488 7.62042 33.7751 7.71613 33.8279 7.78058C33.8806 7.84308 33.9705 7.87433 34.0974 7.87433C34.1599 7.87433 34.2458 7.86261 34.3552 7.83917V8.27863C34.2126 8.31769 34.074 8.33722 33.9392 8.33722C33.697 8.33722 33.5144 8.26398 33.3914 8.11749C33.2683 7.97101 33.2068 7.763 33.2068 7.49347V5.52765H32.6296V5.1087H33.2068V4.34113H33.7488ZM34.7742 6.66437C34.7742 6.35382 34.8347 6.07452 34.9558 5.82648C35.0789 5.57843 35.2488 5.38702 35.4656 5.25226C35.6843 5.11749 35.9333 5.05011 36.2126 5.05011C36.6443 5.05011 36.9929 5.19952 37.2585 5.49835C37.5261 5.79718 37.6599 6.19464 37.6599 6.69073V6.72882C37.6599 7.03741 37.6003 7.31476 37.4812 7.56085C37.364 7.80499 37.1951 7.99542 36.9744 8.13214C36.7556 8.26886 36.5037 8.33722 36.2185 8.33722C35.7888 8.33722 35.4402 8.18781 35.1726 7.88898C34.907 7.59015 34.7742 7.19464 34.7742 6.70245V6.66437ZM35.3191 6.72882C35.3191 7.08038 35.4001 7.36261 35.5623 7.5755C35.7263 7.78839 35.9451 7.89484 36.2185 7.89484C36.4939 7.89484 36.7126 7.78741 36.8748 7.57257C37.0369 7.35577 37.1179 7.05304 37.1179 6.66437C37.1179 6.31671 37.0349 6.03546 36.8689 5.82062C36.7048 5.60382 36.4861 5.49542 36.2126 5.49542C35.9451 5.49542 35.7292 5.60187 35.5652 5.81476C35.4011 6.02765 35.3191 6.33234 35.3191 6.72882ZM4.22925 15.2786H3.68726V12.1087H4.22925V15.2786ZM3.64331 11.2679C3.64331 11.18 3.66968 11.1058 3.72241 11.0452C3.7771 10.9847 3.85718 10.9544 3.96265 10.9544C4.06812 10.9544 4.14819 10.9847 4.20288 11.0452C4.25757 11.1058 4.28491 11.18 4.28491 11.2679C4.28491 11.3558 4.25757 11.429 4.20288 11.4876C4.14819 11.5462 4.06812 11.5755 3.96265 11.5755C3.85718 11.5755 3.7771 11.5462 3.72241 11.4876C3.66968 11.429 3.64331 11.3558 3.64331 11.2679ZM5.61206 12.1087L5.62964 12.5071C5.87183 12.2025 6.18823 12.0501 6.57886 12.0501C7.24878 12.0501 7.58667 12.428 7.59253 13.1839V15.2786H7.05054V13.181C7.04858 12.9525 6.99585 12.7835 6.89233 12.6741C6.79077 12.5648 6.63159 12.5101 6.41479 12.5101C6.23901 12.5101 6.08472 12.5569 5.9519 12.6507C5.81909 12.7444 5.71558 12.8675 5.64136 13.0198V15.2786H5.09937V12.1087H5.61206ZM8.27808 13.6673C8.27808 13.181 8.39331 12.7903 8.62378 12.4954C8.85425 12.1985 9.15601 12.0501 9.52905 12.0501C9.90015 12.0501 10.1941 12.1771 10.4109 12.431V10.7786H10.9529V15.2786H10.4548L10.4285 14.9388C10.2117 15.2044 9.90991 15.3372 9.52319 15.3372C9.15601 15.3372 8.8562 15.1868 8.62378 14.886C8.39331 14.5853 8.27808 14.1927 8.27808 13.7083V13.6673ZM8.82007 13.7288C8.82007 14.0882 8.89429 14.3694 9.04272 14.5726C9.19116 14.7757 9.39624 14.8773 9.65796 14.8773C10.0017 14.8773 10.2527 14.723 10.4109 14.4144V12.9583C10.2488 12.6595 9.99976 12.5101 9.66382 12.5101C9.39819 12.5101 9.19116 12.6126 9.04272 12.8177C8.89429 13.0228 8.82007 13.3265 8.82007 13.7288ZM13.1121 15.3372C12.6824 15.3372 12.3328 15.1966 12.0632 14.9153C11.7937 14.6321 11.6589 14.2542 11.6589 13.7816V13.6819C11.6589 13.3675 11.7185 13.0872 11.8376 12.8411C11.9587 12.5931 12.1267 12.3997 12.3416 12.261C12.5583 12.1204 12.7927 12.0501 13.0447 12.0501C13.4568 12.0501 13.7771 12.1859 14.0056 12.4573C14.2341 12.7288 14.3484 13.1175 14.3484 13.6234V13.8489H12.2009C12.2087 14.1614 12.2996 14.4144 12.4734 14.6077C12.6492 14.7991 12.8718 14.8948 13.1414 14.8948C13.3328 14.8948 13.4949 14.8558 13.6277 14.7776C13.7605 14.6995 13.8767 14.596 13.9763 14.4671L14.3074 14.7249C14.0417 15.1331 13.6433 15.3372 13.1121 15.3372ZM13.0447 12.4954C12.8259 12.4954 12.6423 12.5755 12.4939 12.7357C12.3455 12.8939 12.2537 13.1165 12.2185 13.4036H13.8064V13.3626C13.7908 13.0872 13.7166 12.8743 13.5837 12.7239C13.4509 12.5716 13.2712 12.4954 13.0447 12.4954ZM17.656 13.7288C17.656 14.2112 17.5457 14.5999 17.325 14.8948C17.1042 15.1898 16.8054 15.3372 16.4285 15.3372C16.0437 15.3372 15.741 15.2151 15.5203 14.971V16.4974H14.9783V12.1087H15.4734L15.4998 12.4603C15.7205 12.1868 16.0271 12.0501 16.4197 12.0501C16.8005 12.0501 17.1013 12.1937 17.322 12.4808C17.5447 12.7679 17.656 13.1673 17.656 13.679V13.7288ZM17.114 13.6673C17.114 13.3099 17.0378 13.0276 16.8855 12.8206C16.7332 12.6136 16.5242 12.5101 16.2585 12.5101C15.9304 12.5101 15.6843 12.6556 15.5203 12.9466V14.4612C15.6824 14.7503 15.9304 14.8948 16.2644 14.8948C16.5242 14.8948 16.7302 14.7923 16.8826 14.5872C17.0369 14.3802 17.114 14.0735 17.114 13.6673ZM19.6628 15.3372C19.2332 15.3372 18.8835 15.1966 18.614 14.9153C18.3445 14.6321 18.2097 14.2542 18.2097 13.7816V13.6819C18.2097 13.3675 18.2693 13.0872 18.3884 12.8411C18.5095 12.5931 18.6775 12.3997 18.8923 12.261C19.1091 12.1204 19.3435 12.0501 19.5955 12.0501C20.0076 12.0501 20.3279 12.1859 20.5564 12.4573C20.7849 12.7288 20.8992 13.1175 20.8992 13.6234V13.8489H18.7517C18.7595 14.1614 18.8503 14.4144 19.0242 14.6077C19.2 14.7991 19.4226 14.8948 19.6921 14.8948C19.8835 14.8948 20.0457 14.8558 20.1785 14.7776C20.3113 14.6995 20.4275 14.596 20.5271 14.4671L20.8582 14.7249C20.5925 15.1331 20.1941 15.3372 19.6628 15.3372ZM19.5955 12.4954C19.3767 12.4954 19.1931 12.5755 19.0447 12.7357C18.8962 12.8939 18.8044 13.1165 18.7693 13.4036H20.3572V13.3626C20.3416 13.0872 20.2673 12.8743 20.1345 12.7239C20.0017 12.5716 19.822 12.4954 19.5955 12.4954ZM22.0417 12.1087L22.0593 12.5071C22.3015 12.2025 22.6179 12.0501 23.0085 12.0501C23.6785 12.0501 24.0164 12.428 24.0222 13.1839V15.2786H23.4802V13.181C23.4783 12.9525 23.4255 12.7835 23.322 12.6741C23.2205 12.5648 23.0613 12.5101 22.8445 12.5101C22.6687 12.5101 22.5144 12.5569 22.3816 12.6507C22.2488 12.7444 22.1453 12.8675 22.071 13.0198V15.2786H21.5291V12.1087H22.0417ZM24.7078 13.6673C24.7078 13.181 24.823 12.7903 25.0535 12.4954C25.2839 12.1985 25.5857 12.0501 25.9587 12.0501C26.3298 12.0501 26.6238 12.1771 26.8406 12.431V10.7786H27.3826V15.2786H26.8845L26.8582 14.9388C26.6414 15.2044 26.3396 15.3372 25.9529 15.3372C25.5857 15.3372 25.2859 15.1868 25.0535 14.886C24.823 14.5853 24.7078 14.1927 24.7078 13.7083V13.6673ZM25.2498 13.7288C25.2498 14.0882 25.324 14.3694 25.4724 14.5726C25.6208 14.7757 25.8259 14.8773 26.0876 14.8773C26.4314 14.8773 26.6824 14.723 26.8406 14.4144V12.9583C26.6785 12.6595 26.4294 12.5101 26.0935 12.5101C25.8279 12.5101 25.6208 12.6126 25.4724 12.8177C25.324 13.0228 25.2498 13.3265 25.2498 13.7288ZM28.8152 15.2786H28.2732V12.1087H28.8152V15.2786ZM28.2292 11.2679C28.2292 11.18 28.2556 11.1058 28.3083 11.0452C28.363 10.9847 28.4431 10.9544 28.5486 10.9544C28.6541 10.9544 28.7341 10.9847 28.7888 11.0452C28.8435 11.1058 28.8708 11.18 28.8708 11.2679C28.8708 11.3558 28.8435 11.429 28.7888 11.4876C28.7341 11.5462 28.6541 11.5755 28.5486 11.5755C28.4431 11.5755 28.363 11.5462 28.3083 11.4876C28.2556 11.429 28.2292 11.3558 28.2292 11.2679ZM31.0007 15.3372C30.571 15.3372 30.2214 15.1966 29.9519 14.9153C29.6824 14.6321 29.5476 14.2542 29.5476 13.7816V13.6819C29.5476 13.3675 29.6072 13.0872 29.7263 12.8411C29.8474 12.5931 30.0154 12.3997 30.2302 12.261C30.447 12.1204 30.6814 12.0501 30.9333 12.0501C31.3455 12.0501 31.6658 12.1859 31.8943 12.4573C32.1228 12.7288 32.2371 13.1175 32.2371 13.6234V13.8489H30.0896C30.0974 14.1614 30.1882 14.4144 30.3621 14.6077C30.5378 14.7991 30.7605 14.8948 31.03 14.8948C31.2214 14.8948 31.3835 14.8558 31.5164 14.7776C31.6492 14.6995 31.7654 14.596 31.865 14.4671L32.196 14.7249C31.9304 15.1331 31.532 15.3372 31.0007 15.3372ZM30.9333 12.4954C30.7146 12.4954 30.531 12.5755 30.3826 12.7357C30.2341 12.8939 30.1423 13.1165 30.1072 13.4036H31.6951V13.3626C31.6794 13.0872 31.6052 12.8743 31.4724 12.7239C31.3396 12.5716 31.1599 12.4954 30.9333 12.4954ZM33.3796 12.1087L33.3972 12.5071C33.6394 12.2025 33.9558 12.0501 34.3464 12.0501C35.0164 12.0501 35.3542 12.428 35.3601 13.1839V15.2786H34.8181V13.181C34.8162 12.9525 34.7634 12.7835 34.6599 12.6741C34.5583 12.5648 34.3992 12.5101 34.1824 12.5101C34.0066 12.5101 33.8523 12.5569 33.7195 12.6507C33.5867 12.7444 33.4832 12.8675 33.4089 13.0198V15.2786H32.8669V12.1087H33.3796ZM36.9128 11.3411V12.1087H37.5046V12.5276H36.9128V14.4935C36.9128 14.6204 36.9392 14.7161 36.9919 14.7806C37.0447 14.8431 37.1345 14.8743 37.2615 14.8743C37.324 14.8743 37.4099 14.8626 37.5193 14.8392V15.2786C37.3767 15.3177 37.238 15.3372 37.1033 15.3372C36.8611 15.3372 36.6785 15.264 36.5554 15.1175C36.4324 14.971 36.3708 14.763 36.3708 14.4935V12.5276H35.7937V12.1087H36.3708V11.3411H36.9128ZM39.4558 15.3372C39.0261 15.3372 38.6765 15.1966 38.407 14.9153C38.1375 14.6321 38.0027 14.2542 38.0027 13.7816V13.6819C38.0027 13.3675 38.0623 13.0872 38.1814 12.8411C38.3025 12.5931 38.4705 12.3997 38.6853 12.261C38.9021 12.1204 39.1365 12.0501 39.3884 12.0501C39.8005 12.0501 40.1208 12.1859 40.3494 12.4573C40.5779 12.7288 40.6921 13.1175 40.6921 13.6234V13.8489H38.5447C38.5525 14.1614 38.6433 14.4144 38.8171 14.6077C38.9929 14.7991 39.2156 14.8948 39.4851 14.8948C39.6765 14.8948 39.8386 14.8558 39.9714 14.7776C40.1042 14.6995 40.2205 14.596 40.3201 14.4671L40.6511 14.7249C40.3855 15.1331 39.9871 15.3372 39.4558 15.3372ZM39.3884 12.4954C39.1697 12.4954 38.9861 12.5755 38.8376 12.7357C38.6892 12.8939 38.5974 13.1165 38.5623 13.4036H40.1501V13.3626C40.1345 13.0872 40.0603 12.8743 39.9275 12.7239C39.7947 12.5716 39.615 12.4954 39.3884 12.4954ZM43.8474 14.4847L44.5857 12.1087H45.1658L43.8914 15.7679C43.6941 16.2952 43.3806 16.5589 42.9509 16.5589L42.8484 16.5501L42.6462 16.512V16.0726L42.7927 16.0843C42.9763 16.0843 43.1189 16.0472 43.2205 15.973C43.324 15.8987 43.4089 15.763 43.4753 15.5657L43.5955 15.2435L42.4646 12.1087H43.0564L43.8474 14.4847ZM47.7292 15.2786H47.1873V10.7786H47.7292V15.2786ZM49.1882 15.2786H48.6462V12.1087H49.1882V15.2786ZM48.6023 11.2679C48.6023 11.18 48.6287 11.1058 48.6814 11.0452C48.7361 10.9847 48.8162 10.9544 48.9216 10.9544C49.0271 10.9544 49.1072 10.9847 49.1619 11.0452C49.2166 11.1058 49.2439 11.18 49.2439 11.2679C49.2439 11.3558 49.2166 11.429 49.1619 11.4876C49.1072 11.5462 49.0271 11.5755 48.9216 11.5755C48.8162 11.5755 48.7361 11.5462 48.6814 11.4876C48.6287 11.429 48.6023 11.3558 48.6023 11.2679ZM49.9265 13.6673C49.9265 13.181 50.0417 12.7903 50.2722 12.4954C50.5027 12.1985 50.8044 12.0501 51.1775 12.0501C51.5486 12.0501 51.8425 12.1771 52.0593 12.431V10.7786H52.6013V15.2786H52.1033L52.0769 14.9388C51.8601 15.2044 51.5583 15.3372 51.1716 15.3372C50.8044 15.3372 50.5046 15.1868 50.2722 14.886C50.0417 14.5853 49.9265 14.1927 49.9265 13.7083V13.6673ZM50.4685 13.7288C50.4685 14.0882 50.5427 14.3694 50.6912 14.5726C50.8396 14.7757 51.0447 14.8773 51.3064 14.8773C51.6501 14.8773 51.9011 14.723 52.0593 14.4144V12.9583C51.8972 12.6595 51.6482 12.5101 51.3123 12.5101C51.0466 12.5101 50.8396 12.6126 50.6912 12.8177C50.5427 13.0228 50.4685 13.3265 50.4685 13.7288ZM54.7605 15.3372C54.3308 15.3372 53.9812 15.1966 53.7117 14.9153C53.4421 14.6321 53.3074 14.2542 53.3074 13.7816V13.6819C53.3074 13.3675 53.3669 13.0872 53.4861 12.8411C53.6072 12.5931 53.7751 12.3997 53.99 12.261C54.2068 12.1204 54.4412 12.0501 54.6931 12.0501C55.1052 12.0501 55.4255 12.1859 55.6541 12.4573C55.8826 12.7288 55.9968 13.1175 55.9968 13.6234V13.8489H53.8494C53.8572 14.1614 53.948 14.4144 54.1218 14.6077C54.2976 14.7991 54.5203 14.8948 54.7898 14.8948C54.9812 14.8948 55.1433 14.8558 55.2761 14.7776C55.4089 14.6995 55.5251 14.596 55.6248 14.4671L55.9558 14.7249C55.6902 15.1331 55.2917 15.3372 54.7605 15.3372ZM54.6931 12.4954C54.4744 12.4954 54.2908 12.5755 54.1423 12.7357C53.9939 12.8939 53.9021 13.1165 53.8669 13.4036H55.4548V13.3626C55.4392 13.0872 55.365 12.8743 55.2322 12.7239C55.0994 12.5716 54.9197 12.4954 54.6931 12.4954ZM58.1589 12.595C58.0769 12.5814 57.988 12.5745 57.8923 12.5745C57.5369 12.5745 57.2957 12.7259 57.1687 13.0286V15.2786H56.6267V12.1087H57.1541L57.1628 12.4749C57.3406 12.1917 57.5925 12.0501 57.9187 12.0501C58.0242 12.0501 58.1042 12.0638 58.1589 12.0911V12.595ZM60.4998 15.2786C60.4685 15.2161 60.4431 15.1048 60.4236 14.9446C60.1716 15.2064 59.8708 15.3372 59.5212 15.3372C59.2087 15.3372 58.9519 15.2493 58.7507 15.0735C58.5515 14.8958 58.4519 14.6712 58.4519 14.3997C58.4519 14.0696 58.5769 13.8138 58.8269 13.6321C59.0789 13.4485 59.4324 13.3568 59.8875 13.3568H60.4148V13.1077C60.4148 12.9183 60.3582 12.7679 60.2449 12.6566C60.1316 12.5433 59.9646 12.4866 59.7439 12.4866C59.5505 12.4866 59.3884 12.5355 59.2576 12.6331C59.1267 12.7308 59.0613 12.8489 59.0613 12.9876H58.5164C58.5164 12.8294 58.572 12.6771 58.6833 12.5306C58.7966 12.3821 58.949 12.265 59.1404 12.179C59.3337 12.0931 59.5457 12.0501 59.7761 12.0501C60.1414 12.0501 60.4275 12.1419 60.6345 12.3255C60.8416 12.5071 60.949 12.7581 60.9568 13.0784V14.5374C60.9568 14.8284 60.9939 15.0599 61.0681 15.2318V15.2786H60.4998ZM59.6003 14.8655C59.7703 14.8655 59.9314 14.8216 60.0837 14.7337C60.2361 14.6458 60.3464 14.5316 60.4148 14.3909V13.7405H59.99C59.3259 13.7405 58.9939 13.9349 58.9939 14.3235C58.9939 14.4935 59.0505 14.6263 59.1638 14.722C59.2771 14.8177 59.4226 14.8655 59.6003 14.8655ZM61.6746 13.6673C61.6746 13.181 61.7898 12.7903 62.0203 12.4954C62.2507 12.1985 62.5525 12.0501 62.9255 12.0501C63.2966 12.0501 63.5906 12.1771 63.8074 12.431V10.7786H64.3494V15.2786H63.8513L63.825 14.9388C63.6082 15.2044 63.3064 15.3372 62.9197 15.3372C62.5525 15.3372 62.2527 15.1868 62.0203 14.886C61.7898 14.5853 61.6746 14.1927 61.6746 13.7083V13.6673ZM62.2166 13.7288C62.2166 14.0882 62.2908 14.3694 62.4392 14.5726C62.5876 14.7757 62.7927 14.8773 63.0544 14.8773C63.3982 14.8773 63.6492 14.723 63.8074 14.4144V12.9583C63.6453 12.6595 63.3962 12.5101 63.0603 12.5101C62.7947 12.5101 62.5876 12.6126 62.4392 12.8177C62.2908 13.0228 62.2166 13.3265 62.2166 13.7288ZM65.0496 13.6644C65.0496 13.3538 65.1101 13.0745 65.2312 12.8265C65.3542 12.5784 65.5242 12.387 65.741 12.2523C65.9597 12.1175 66.2087 12.0501 66.488 12.0501C66.9197 12.0501 67.2683 12.1995 67.5339 12.4984C67.8015 12.7972 67.9353 13.1946 67.9353 13.6907V13.7288C67.9353 14.0374 67.8757 14.3148 67.7566 14.5609C67.6394 14.805 67.4705 14.9954 67.2498 15.1321C67.031 15.2689 66.7791 15.3372 66.4939 15.3372C66.0642 15.3372 65.7156 15.1878 65.448 14.889C65.1824 14.5901 65.0496 14.1946 65.0496 13.7025V13.6644ZM65.5945 13.7288C65.5945 14.0804 65.6755 14.3626 65.8376 14.5755C66.0017 14.7884 66.2205 14.8948 66.4939 14.8948C66.7693 14.8948 66.988 14.7874 67.1501 14.5726C67.3123 14.3558 67.3933 14.053 67.3933 13.6644C67.3933 13.3167 67.3103 13.0355 67.1443 12.8206C66.9802 12.6038 66.7615 12.4954 66.488 12.4954C66.2205 12.4954 66.0046 12.6019 65.8406 12.8148C65.6765 13.0276 65.5945 13.3323 65.5945 13.7288ZM6.31812 20.7288C6.31812 21.2112 6.20776 21.5999 5.98706 21.8948C5.76636 22.1898 5.46753 22.3372 5.09058 22.3372C4.70581 22.3372 4.40308 22.2151 4.18237 21.971V23.4974H3.64038V19.1087H4.1355L4.16187 19.4603C4.38257 19.1868 4.68921 19.0501 5.08179 19.0501C5.46265 19.0501 5.76343 19.1937 5.98413 19.4808C6.20679 19.7679 6.31812 20.1673 6.31812 20.679V20.7288ZM5.77612 20.6673C5.77612 20.3099 5.69995 20.0276 5.54761 19.8206C5.39526 19.6136 5.18628 19.5101 4.92065 19.5101C4.59253 19.5101 4.34644 19.6556 4.18237 19.9466V21.4612C4.34448 21.7503 4.59253 21.8948 4.92651 21.8948C5.18628 21.8948 5.39233 21.7923 5.54468 21.5872C5.69897 21.3802 5.77612 21.0735 5.77612 20.6673ZM6.86597 20.6644C6.86597 20.3538 6.92651 20.0745 7.04761 19.8265C7.17065 19.5784 7.34058 19.387 7.55737 19.2523C7.77612 19.1175 8.02515 19.0501 8.30444 19.0501C8.73608 19.0501 9.08472 19.1995 9.35034 19.4984C9.61792 19.7972 9.75171 20.1946 9.75171 20.6907V20.7288C9.75171 21.0374 9.69214 21.3148 9.573 21.5609C9.45581 21.805 9.28687 21.9954 9.06616 22.1321C8.84741 22.2689 8.59546 22.3372 8.3103 22.3372C7.88062 22.3372 7.53198 22.1878 7.2644 21.889C6.99878 21.5901 6.86597 21.1946 6.86597 20.7025V20.6644ZM7.41089 20.7288C7.41089 21.0804 7.49194 21.3626 7.65405 21.5755C7.81812 21.7884 8.03687 21.8948 8.3103 21.8948C8.58569 21.8948 8.80444 21.7874 8.96655 21.5726C9.12866 21.3558 9.20972 21.053 9.20972 20.6644C9.20972 20.3167 9.12671 20.0355 8.96069 19.8206C8.79663 19.6038 8.57788 19.4954 8.30444 19.4954C8.03687 19.4954 7.82104 19.6019 7.65698 19.8148C7.49292 20.0276 7.41089 20.3323 7.41089 20.7288ZM11.9636 19.595C11.8816 19.5814 11.7927 19.5745 11.697 19.5745C11.3416 19.5745 11.1003 19.7259 10.9734 20.0286V22.2786H10.4314V19.1087H10.9587L10.9675 19.4749C11.1453 19.1917 11.3972 19.0501 11.7234 19.0501C11.8289 19.0501 11.9089 19.0638 11.9636 19.0911V19.595ZM15.2244 21.8948C15.4177 21.8948 15.5867 21.8362 15.7312 21.7191C15.8757 21.6019 15.9558 21.4554 15.9714 21.2796H16.4841C16.4744 21.4612 16.4119 21.6341 16.2966 21.7982C16.1814 21.9622 16.0271 22.0931 15.8337 22.1907C15.6423 22.2884 15.4392 22.3372 15.2244 22.3372C14.7927 22.3372 14.449 22.1937 14.1931 21.9066C13.9392 21.6175 13.8123 21.223 13.8123 20.723V20.6321C13.8123 20.3235 13.8689 20.0491 13.9822 19.8089C14.0955 19.5687 14.2576 19.3821 14.4685 19.2493C14.6814 19.1165 14.9324 19.0501 15.2214 19.0501C15.5769 19.0501 15.8718 19.1566 16.1062 19.3694C16.3425 19.5823 16.4685 19.8587 16.4841 20.1985H15.9714C15.9558 19.9935 15.8777 19.8255 15.7371 19.6946C15.5984 19.5618 15.4265 19.4954 15.2214 19.4954C14.946 19.4954 14.7322 19.595 14.5798 19.7943C14.4294 19.9915 14.3542 20.2776 14.3542 20.6526V20.7552C14.3542 21.1204 14.4294 21.4017 14.5798 21.5989C14.7302 21.7962 14.9451 21.8948 15.2244 21.8948ZM17.6824 22.2786H17.1404V19.1087H17.6824V22.2786ZM17.0964 18.2679C17.0964 18.18 17.1228 18.1058 17.1755 18.0452C17.2302 17.9847 17.3103 17.9544 17.4158 17.9544C17.5212 17.9544 17.6013 17.9847 17.656 18.0452C17.7107 18.1058 17.738 18.18 17.738 18.2679C17.738 18.3558 17.7107 18.429 17.656 18.4876C17.6013 18.5462 17.5212 18.5755 17.4158 18.5755C17.3103 18.5755 17.2302 18.5462 17.1755 18.4876C17.1228 18.429 17.0964 18.3558 17.0964 18.2679ZM20.5095 21.9651C20.2986 22.2132 19.989 22.3372 19.5808 22.3372C19.2429 22.3372 18.9851 22.2396 18.8074 22.0443C18.6316 21.847 18.5427 21.556 18.5408 21.1712V19.1087H19.0828V21.1566C19.0828 21.637 19.2781 21.8773 19.6687 21.8773C20.0828 21.8773 20.3582 21.723 20.4949 21.4144V19.1087H21.0369V22.2786H20.5212L20.5095 21.9651ZM21.7312 20.6673C21.7312 20.181 21.8464 19.7903 22.0769 19.4954C22.3074 19.1985 22.6091 19.0501 22.9822 19.0501C23.3533 19.0501 23.6472 19.1771 23.864 19.431V17.7786H24.406V22.2786H23.908L23.8816 21.9388C23.6648 22.2044 23.363 22.3372 22.9763 22.3372C22.6091 22.3372 22.3093 22.1868 22.0769 21.886C21.8464 21.5853 21.7312 21.1927 21.7312 20.7083V20.6673ZM22.2732 20.7288C22.2732 21.0882 22.3474 21.3694 22.4958 21.5726C22.6443 21.7757 22.8494 21.8773 23.1111 21.8773C23.4548 21.8773 23.7058 21.723 23.864 21.4144V19.9583C23.7019 19.6595 23.4529 19.5101 23.1169 19.5101C22.8513 19.5101 22.6443 19.6126 22.4958 19.8177C22.3474 20.0228 22.2732 20.3265 22.2732 20.7288ZM27.2068 22.2786C27.1755 22.2161 27.1501 22.1048 27.1306 21.9446C26.8787 22.2064 26.5779 22.3372 26.2283 22.3372C25.9158 22.3372 25.6589 22.2493 25.4578 22.0735C25.2585 21.8958 25.1589 21.6712 25.1589 21.3997C25.1589 21.0696 25.2839 20.8138 25.5339 20.6321C25.7859 20.4485 26.1394 20.3568 26.5945 20.3568H27.1218V20.1077C27.1218 19.9183 27.0652 19.7679 26.9519 19.6566C26.8386 19.5433 26.6716 19.4866 26.4509 19.4866C26.2576 19.4866 26.0955 19.5355 25.9646 19.6331C25.8337 19.7308 25.7683 19.8489 25.7683 19.9876H25.2234C25.2234 19.8294 25.2791 19.6771 25.3904 19.5306C25.5037 19.3821 25.656 19.265 25.8474 19.179C26.0408 19.0931 26.2527 19.0501 26.4832 19.0501C26.8484 19.0501 27.1345 19.1419 27.3416 19.3255C27.5486 19.5071 27.656 19.7581 27.6638 20.0784V21.5374C27.6638 21.8284 27.7009 22.0599 27.7751 22.2318V22.2786H27.2068ZM26.3074 21.8655C26.4773 21.8655 26.6384 21.8216 26.7908 21.7337C26.9431 21.6458 27.0535 21.5316 27.1218 21.3909V20.7405H26.697C26.033 20.7405 25.7009 20.9349 25.7009 21.3235C25.7009 21.4935 25.7576 21.6263 25.8708 21.722C25.9841 21.8177 26.1296 21.8655 26.3074 21.8655ZM28.3816 20.6673C28.3816 20.181 28.4968 19.7903 28.7273 19.4954C28.9578 19.1985 29.2595 19.0501 29.6326 19.0501C30.0037 19.0501 30.2976 19.1771 30.5144 19.431V17.7786H31.0564V22.2786H30.5583L30.532 21.9388C30.3152 22.2044 30.0134 22.3372 29.6267 22.3372C29.2595 22.3372 28.9597 22.1868 28.7273 21.886C28.4968 21.5853 28.3816 21.1927 28.3816 20.7083V20.6673ZM28.9236 20.7288C28.9236 21.0882 28.9978 21.3694 29.1462 21.5726C29.2947 21.7757 29.4998 21.8773 29.7615 21.8773C30.1052 21.8773 30.3562 21.723 30.5144 21.4144V19.9583C30.3523 19.6595 30.1033 19.5101 29.7673 19.5101C29.5017 19.5101 29.2947 19.6126 29.1462 19.8177C28.9978 20.0228 28.9236 20.3265 28.9236 20.7288ZM33.8572 22.2786C33.8259 22.2161 33.8005 22.1048 33.781 21.9446C33.5291 22.2064 33.2283 22.3372 32.8787 22.3372C32.5662 22.3372 32.3093 22.2493 32.1082 22.0735C31.9089 21.8958 31.8093 21.6712 31.8093 21.3997C31.8093 21.0696 31.9343 20.8138 32.1843 20.6321C32.4363 20.4485 32.7898 20.3568 33.2449 20.3568H33.7722V20.1077C33.7722 19.9183 33.7156 19.7679 33.6023 19.6566C33.489 19.5433 33.322 19.4866 33.1013 19.4866C32.908 19.4866 32.7458 19.5355 32.615 19.6331C32.4841 19.7308 32.4187 19.8489 32.4187 19.9876H31.8738C31.8738 19.8294 31.9294 19.6771 32.0408 19.5306C32.1541 19.3821 32.3064 19.265 32.4978 19.179C32.6912 19.0931 32.9031 19.0501 33.1335 19.0501C33.4988 19.0501 33.7849 19.1419 33.9919 19.3255C34.199 19.5071 34.3064 19.7581 34.3142 20.0784V21.5374C34.3142 21.8284 34.3513 22.0599 34.4255 22.2318V22.2786H33.8572ZM32.9578 21.8655C33.1277 21.8655 33.2888 21.8216 33.4412 21.7337C33.5935 21.6458 33.7039 21.5316 33.7722 21.3909V20.7405H33.3474C32.6833 20.7405 32.3513 20.9349 32.3513 21.3235C32.3513 21.4935 32.408 21.6263 32.5212 21.722C32.6345 21.8177 32.78 21.8655 32.9578 21.8655ZM35.6765 19.1087L35.6941 19.5071C35.9363 19.2025 36.2527 19.0501 36.6433 19.0501C37.3132 19.0501 37.6511 19.428 37.657 20.1839V22.2786H37.115V20.181C37.113 19.9525 37.0603 19.7835 36.9568 19.6741C36.8552 19.5648 36.696 19.5101 36.4792 19.5101C36.3035 19.5101 36.1492 19.5569 36.0164 19.6507C35.8835 19.7444 35.78 19.8675 35.7058 20.0198V22.2786H35.1638V19.1087H35.6765ZM38.3308 20.6644C38.3308 20.3538 38.3914 20.0745 38.5125 19.8265C38.6355 19.5784 38.8054 19.387 39.0222 19.2523C39.241 19.1175 39.49 19.0501 39.7693 19.0501C40.2009 19.0501 40.5496 19.1995 40.8152 19.4984C41.0828 19.7972 41.2166 20.1946 41.2166 20.6907V20.7288C41.2166 21.0374 41.157 21.3148 41.0378 21.5609C40.9207 21.805 40.7517 21.9954 40.531 22.1321C40.3123 22.2689 40.0603 22.3372 39.7751 22.3372C39.3455 22.3372 38.9968 22.1878 38.7292 21.889C38.4636 21.5901 38.3308 21.1946 38.3308 20.7025V20.6644ZM38.8757 20.7288C38.8757 21.0804 38.9568 21.3626 39.1189 21.5755C39.283 21.7884 39.5017 21.8948 39.7751 21.8948C40.0505 21.8948 40.2693 21.7874 40.4314 21.5726C40.5935 21.3558 40.6746 21.053 40.6746 20.6644C40.6746 20.3167 40.5916 20.0355 40.4255 19.8206C40.2615 19.6038 40.0427 19.4954 39.7693 19.4954C39.5017 19.4954 39.2859 19.6019 39.1218 19.8148C38.9578 20.0276 38.8757 20.3323 38.8757 20.7288ZM43.7419 21.4378C43.7419 21.2913 43.6863 21.178 43.575 21.098C43.4656 21.0159 43.2732 20.9456 42.9978 20.887C42.7244 20.8284 42.5066 20.7581 42.3445 20.6761C42.1843 20.5941 42.0652 20.4964 41.9871 20.3831C41.9109 20.2698 41.8728 20.1351 41.8728 19.9788C41.8728 19.7191 41.9822 19.4993 42.2009 19.3196C42.4216 19.14 42.7029 19.0501 43.0447 19.0501C43.4041 19.0501 43.6951 19.1429 43.9177 19.3284C44.1423 19.514 44.2546 19.7513 44.2546 20.0403H43.7097C43.7097 19.8919 43.6462 19.764 43.5193 19.6566C43.3943 19.5491 43.2361 19.4954 43.0447 19.4954C42.8474 19.4954 42.6931 19.5384 42.5818 19.6243C42.4705 19.7103 42.4148 19.8226 42.4148 19.9612C42.4148 20.0921 42.4666 20.1907 42.5701 20.2571C42.6736 20.3235 42.8601 20.387 43.1296 20.4476C43.4011 20.5081 43.6208 20.5804 43.7888 20.6644C43.9568 20.7484 44.0808 20.8499 44.1609 20.9691C44.2429 21.0862 44.2839 21.2298 44.2839 21.3997C44.2839 21.6829 44.1707 21.9105 43.9441 22.0823C43.7175 22.2523 43.4236 22.3372 43.0623 22.3372C42.8083 22.3372 42.5837 22.2923 42.3884 22.2025C42.1931 22.1126 42.0398 21.9876 41.9285 21.8275C41.8191 21.6653 41.7644 21.4905 41.7644 21.303H42.3064C42.3162 21.4847 42.3884 21.6292 42.5232 21.7366C42.6599 21.8421 42.8396 21.8948 43.0623 21.8948C43.2673 21.8948 43.4314 21.8538 43.5544 21.7718C43.6794 21.6878 43.7419 21.5765 43.7419 21.4378ZM48.4353 22.2786C48.4041 22.2161 48.3787 22.1048 48.3591 21.9446C48.1072 22.2064 47.8064 22.3372 47.4568 22.3372C47.1443 22.3372 46.8875 22.2493 46.6863 22.0735C46.4871 21.8958 46.3875 21.6712 46.3875 21.3997C46.3875 21.0696 46.5125 20.8138 46.7625 20.6321C47.0144 20.4485 47.3679 20.3568 47.823 20.3568H48.3503V20.1077C48.3503 19.9183 48.2937 19.7679 48.1804 19.6566C48.0671 19.5433 47.9001 19.4866 47.6794 19.4866C47.4861 19.4866 47.324 19.5355 47.1931 19.6331C47.0623 19.7308 46.9968 19.8489 46.9968 19.9876H46.4519C46.4519 19.8294 46.5076 19.6771 46.6189 19.5306C46.7322 19.3821 46.8845 19.265 47.0759 19.179C47.2693 19.0931 47.4812 19.0501 47.7117 19.0501C48.0769 19.0501 48.363 19.1419 48.5701 19.3255C48.7771 19.5071 48.8845 19.7581 48.8923 20.0784V21.5374C48.8923 21.8284 48.9294 22.0599 49.0037 22.2318V22.2786H48.4353ZM47.5359 21.8655C47.7058 21.8655 47.8669 21.8216 48.0193 21.7337C48.1716 21.6458 48.282 21.5316 48.3503 21.3909V20.7405H47.9255C47.2615 20.7405 46.9294 20.9349 46.9294 21.3235C46.9294 21.4935 46.9861 21.6263 47.0994 21.722C47.2126 21.8177 47.3582 21.8655 47.5359 21.8655ZM51.4968 22.2786V19.5276H50.9958V19.1087H51.4968V18.7835C51.4968 18.4437 51.5876 18.181 51.7693 17.9954C51.9509 17.8099 52.2078 17.7171 52.5398 17.7171C52.6648 17.7171 52.7888 17.7337 52.9119 17.7669L52.8826 18.2064C52.7908 18.1888 52.6931 18.18 52.5896 18.18C52.4138 18.18 52.2781 18.2318 52.1824 18.3353C52.0867 18.4368 52.0388 18.5833 52.0388 18.7747V19.1087H52.7156V19.5276H52.0388V22.2786H51.4968ZM55.2732 22.2786C55.2419 22.2161 55.2166 22.1048 55.197 21.9446C54.9451 22.2064 54.6443 22.3372 54.2947 22.3372C53.9822 22.3372 53.7253 22.2493 53.5242 22.0735C53.325 21.8958 53.2253 21.6712 53.2253 21.3997C53.2253 21.0696 53.3503 20.8138 53.6003 20.6321C53.8523 20.4485 54.2058 20.3568 54.6609 20.3568H55.1882V20.1077C55.1882 19.9183 55.1316 19.7679 55.0183 19.6566C54.905 19.5433 54.738 19.4866 54.5173 19.4866C54.324 19.4866 54.1619 19.5355 54.031 19.6331C53.9001 19.7308 53.8347 19.8489 53.8347 19.9876H53.2898C53.2898 19.8294 53.3455 19.6771 53.4568 19.5306C53.5701 19.3821 53.7224 19.265 53.9138 19.179C54.1072 19.0931 54.3191 19.0501 54.5496 19.0501C54.9148 19.0501 55.2009 19.1419 55.408 19.3255C55.615 19.5071 55.7224 19.7581 55.7302 20.0784V21.5374C55.7302 21.8284 55.7673 22.0599 55.8416 22.2318V22.2786H55.2732ZM54.3738 21.8655C54.5437 21.8655 54.7048 21.8216 54.8572 21.7337C55.0095 21.6458 55.1199 21.5316 55.1882 21.3909V20.7405H54.7634C54.0994 20.7405 53.7673 20.9349 53.7673 21.3235C53.7673 21.4935 53.824 21.6263 53.9373 21.722C54.0505 21.8177 54.196 21.8655 54.3738 21.8655ZM57.5789 21.5433L58.364 19.1087H58.9177L57.781 22.2786H57.3679L56.2195 19.1087H56.7732L57.5789 21.5433ZM59.2488 20.6644C59.2488 20.3538 59.3093 20.0745 59.4304 19.8265C59.5535 19.5784 59.7234 19.387 59.9402 19.2523C60.1589 19.1175 60.408 19.0501 60.6873 19.0501C61.1189 19.0501 61.4675 19.1995 61.7332 19.4984C62.0007 19.7972 62.1345 20.1946 62.1345 20.6907V20.7288C62.1345 21.0374 62.075 21.3148 61.9558 21.5609C61.8386 21.805 61.6697 21.9954 61.449 22.1321C61.2302 22.2689 60.9783 22.3372 60.6931 22.3372C60.2634 22.3372 59.9148 22.1878 59.6472 21.889C59.3816 21.5901 59.2488 21.1946 59.2488 20.7025V20.6644ZM59.7937 20.7288C59.7937 21.0804 59.8748 21.3626 60.0369 21.5755C60.2009 21.7884 60.4197 21.8948 60.6931 21.8948C60.9685 21.8948 61.1873 21.7874 61.3494 21.5726C61.5115 21.3558 61.5925 21.053 61.5925 20.6644C61.5925 20.3167 61.5095 20.0355 61.3435 19.8206C61.1794 19.6038 60.9607 19.4954 60.6873 19.4954C60.4197 19.4954 60.2039 19.6019 60.0398 19.8148C59.8757 20.0276 59.7937 20.3323 59.7937 20.7288ZM64.3464 19.595C64.2644 19.5814 64.1755 19.5745 64.0798 19.5745C63.7244 19.5745 63.4832 19.7259 63.3562 20.0286V22.2786H62.8142V19.1087H63.3416L63.3503 19.4749C63.5281 19.1917 63.78 19.0501 64.1062 19.0501C64.2117 19.0501 64.2917 19.0638 64.3464 19.0911V19.595ZM3.50854 27.6673C3.50854 27.181 3.62378 26.7903 3.85425 26.4954C4.08472 26.1985 4.38647 26.0501 4.75952 26.0501C5.13062 26.0501 5.42456 26.1771 5.64136 26.431V24.7786H6.18335V29.2786H5.6853L5.65894 28.9388C5.44214 29.2044 5.14038 29.3372 4.75366 29.3372C4.38647 29.3372 4.08667 29.1868 3.85425 28.886C3.62378 28.5853 3.50854 28.1927 3.50854 27.7083V27.6673ZM4.05054 27.7288C4.05054 28.0882 4.12476 28.3694 4.27319 28.5726C4.42163 28.7757 4.62671 28.8773 4.88843 28.8773C5.23218 28.8773 5.48315 28.723 5.64136 28.4144V26.9583C5.47925 26.6595 5.23022 26.5101 4.89429 26.5101C4.62866 26.5101 4.42163 26.6126 4.27319 26.8177C4.12476 27.0228 4.05054 27.3265 4.05054 27.7288ZM8.34253 29.3372C7.91284 29.3372 7.56323 29.1966 7.2937 28.9153C7.02417 28.6321 6.8894 28.2542 6.8894 27.7816V27.6819C6.8894 27.3675 6.94897 27.0872 7.06812 26.8411C7.18921 26.5931 7.35718 26.3997 7.57202 26.261C7.78882 26.1204 8.02319 26.0501 8.27515 26.0501C8.68726 26.0501 9.00757 26.1859 9.23608 26.4573C9.4646 26.7288 9.57886 27.1175 9.57886 27.6234V27.8489H7.4314C7.43921 28.1614 7.53003 28.4144 7.70386 28.6077C7.87964 28.7991 8.10229 28.8948 8.37183 28.8948C8.56323 28.8948 8.72534 28.8558 8.85815 28.7776C8.99097 28.6995 9.10718 28.596 9.20679 28.4671L9.53784 28.7249C9.27222 29.1331 8.87378 29.3372 8.34253 29.3372ZM8.27515 26.4954C8.0564 26.4954 7.8728 26.5755 7.72437 26.7357C7.57593 26.8939 7.48413 27.1165 7.44897 27.4036H9.03687V27.3626C9.02124 27.0872 8.94702 26.8743 8.81421 26.7239C8.6814 26.5716 8.50171 26.4954 8.27515 26.4954ZM12.2859 29.2786H11.7439V24.7786H12.2859V29.2786ZM15.113 29.2786C15.0818 29.2161 15.0564 29.1048 15.0369 28.9446C14.7849 29.2064 14.4841 29.3372 14.1345 29.3372C13.822 29.3372 13.5652 29.2493 13.364 29.0735C13.1648 28.8958 13.0652 28.6712 13.0652 28.3997C13.0652 28.0696 13.1902 27.8138 13.4402 27.6321C13.6921 27.4485 14.0457 27.3568 14.5007 27.3568H15.0281V27.1077C15.0281 26.9183 14.9714 26.7679 14.8582 26.6566C14.7449 26.5433 14.5779 26.4866 14.3572 26.4866C14.1638 26.4866 14.0017 26.5355 13.8708 26.6331C13.74 26.7308 13.6746 26.8489 13.6746 26.9876H13.1296C13.1296 26.8294 13.1853 26.6771 13.2966 26.5306C13.4099 26.3821 13.5623 26.265 13.7537 26.179C13.947 26.0931 14.1589 26.0501 14.3894 26.0501C14.7546 26.0501 15.0408 26.1419 15.2478 26.3255C15.4548 26.5071 15.5623 26.7581 15.5701 27.0784V28.5374C15.5701 28.8284 15.6072 29.0599 15.6814 29.2318V29.2786H15.113ZM14.2136 28.8655C14.3835 28.8655 14.5447 28.8216 14.697 28.7337C14.8494 28.6458 14.9597 28.5316 15.0281 28.3909V27.7405H14.6033C13.9392 27.7405 13.6072 27.9349 13.6072 28.3235C13.6072 28.4935 13.6638 28.6263 13.7771 28.722C13.8904 28.8177 14.0359 28.8655 14.2136 28.8655ZM18.6433 25.3411V26.1087H19.2351V26.5276H18.6433V28.4935C18.6433 28.6204 18.6697 28.7161 18.7224 28.7806C18.7751 28.8431 18.865 28.8743 18.9919 28.8743C19.0544 28.8743 19.1404 28.8626 19.2498 28.8392V29.2786C19.1072 29.3177 18.9685 29.3372 18.8337 29.3372C18.5916 29.3372 18.4089 29.264 18.2859 29.1175C18.1628 28.971 18.1013 28.763 18.1013 28.4935V26.5276H17.5242V26.1087H18.1013V25.3411H18.6433ZM21.4031 26.595C21.321 26.5814 21.2322 26.5745 21.1365 26.5745C20.781 26.5745 20.5398 26.7259 20.4128 27.0286V29.2786H19.8708V26.1087H20.3982L20.407 26.4749C20.5847 26.1917 20.8367 26.0501 21.1628 26.0501C21.2683 26.0501 21.3484 26.0638 21.4031 26.0911V26.595ZM23.7439 29.2786C23.7126 29.2161 23.6873 29.1048 23.6677 28.9446C23.4158 29.2064 23.115 29.3372 22.7654 29.3372C22.4529 29.3372 22.196 29.2493 21.9949 29.0735C21.7957 28.8958 21.696 28.6712 21.696 28.3997C21.696 28.0696 21.821 27.8138 22.071 27.6321C22.323 27.4485 22.6765 27.3568 23.1316 27.3568H23.6589V27.1077C23.6589 26.9183 23.6023 26.7679 23.489 26.6566C23.3757 26.5433 23.2087 26.4866 22.988 26.4866C22.7947 26.4866 22.6326 26.5355 22.5017 26.6331C22.3708 26.7308 22.3054 26.8489 22.3054 26.9876H21.7605C21.7605 26.8294 21.8162 26.6771 21.9275 26.5306C22.0408 26.3821 22.1931 26.265 22.3845 26.179C22.5779 26.0931 22.7898 26.0501 23.0203 26.0501C23.3855 26.0501 23.6716 26.1419 23.8787 26.3255C24.0857 26.5071 24.1931 26.7581 24.2009 27.0784V28.5374C24.2009 28.8284 24.238 29.0599 24.3123 29.2318V29.2786H23.7439ZM22.8445 28.8655C23.0144 28.8655 23.1755 28.8216 23.3279 28.7337C23.4802 28.6458 23.5906 28.5316 23.6589 28.3909V27.7405H23.2341C22.5701 27.7405 22.238 27.9349 22.238 28.3235C22.238 28.4935 22.2947 28.6263 22.408 28.722C22.5212 28.8177 22.6667 28.8655 22.8445 28.8655ZM25.5632 26.1087L25.5808 26.5071C25.823 26.2025 26.1394 26.0501 26.53 26.0501C27.2 26.0501 27.5378 26.428 27.5437 27.1839V29.2786H27.0017V27.181C26.9998 26.9525 26.947 26.7835 26.8435 26.6741C26.7419 26.5648 26.5828 26.5101 26.366 26.5101C26.1902 26.5101 26.0359 26.5569 25.9031 26.6507C25.7703 26.7444 25.6667 26.8675 25.5925 27.0198V29.2786H25.0505V26.1087H25.5632ZM30.2068 28.4378C30.2068 28.2913 30.1511 28.178 30.0398 28.098C29.9304 28.0159 29.738 27.9456 29.4626 27.887C29.1892 27.8284 28.9714 27.7581 28.8093 27.6761C28.6492 27.5941 28.53 27.4964 28.4519 27.3831C28.3757 27.2698 28.3376 27.1351 28.3376 26.9788C28.3376 26.7191 28.447 26.4993 28.6658 26.3196C28.8865 26.14 29.1677 26.0501 29.5095 26.0501C29.8689 26.0501 30.1599 26.1429 30.3826 26.3284C30.6072 26.514 30.7195 26.7513 30.7195 27.0403H30.1746C30.1746 26.8919 30.1111 26.764 29.9841 26.6566C29.8591 26.5491 29.7009 26.4954 29.5095 26.4954C29.3123 26.4954 29.158 26.5384 29.0466 26.6243C28.9353 26.7103 28.8796 26.8226 28.8796 26.9612C28.8796 27.0921 28.9314 27.1907 29.0349 27.2571C29.1384 27.3235 29.325 27.387 29.5945 27.4476C29.866 27.5081 30.0857 27.5804 30.2537 27.6644C30.4216 27.7484 30.5457 27.8499 30.6257 27.9691C30.7078 28.0862 30.7488 28.2298 30.7488 28.3997C30.7488 28.6829 30.6355 28.9105 30.4089 29.0823C30.1824 29.2523 29.8884 29.3372 29.5271 29.3372C29.2732 29.3372 29.0486 29.2923 28.8533 29.2025C28.658 29.1126 28.5046 28.9876 28.3933 28.8275C28.2839 28.6653 28.2292 28.4905 28.2292 28.303H28.7712C28.781 28.4847 28.8533 28.6292 28.988 28.7366C29.1248 28.8421 29.3044 28.8948 29.5271 28.8948C29.7322 28.8948 29.8962 28.8538 30.0193 28.7718C30.1443 28.6878 30.2068 28.5765 30.2068 28.4378ZM34.1326 27.7288C34.1326 28.2112 34.0222 28.5999 33.8015 28.8948C33.5808 29.1898 33.282 29.3372 32.905 29.3372C32.5203 29.3372 32.2175 29.2151 31.9968 28.971V30.4974H31.4548V26.1087H31.95L31.9763 26.4603C32.197 26.1868 32.5037 26.0501 32.8962 26.0501C33.2771 26.0501 33.5779 26.1937 33.7986 26.4808C34.0212 26.7679 34.1326 27.1673 34.1326 27.679V27.7288ZM33.5906 27.6673C33.5906 27.3099 33.5144 27.0276 33.3621 26.8206C33.2097 26.6136 33.0007 26.5101 32.7351 26.5101C32.407 26.5101 32.1609 26.6556 31.9968 26.9466V28.4612C32.1589 28.7503 32.407 28.8948 32.741 28.8948C33.0007 28.8948 33.2068 28.7923 33.3591 28.5872C33.5134 28.3802 33.5906 28.0735 33.5906 27.6673ZM36.781 29.2786C36.7498 29.2161 36.7244 29.1048 36.7048 28.9446C36.4529 29.2064 36.1521 29.3372 35.8025 29.3372C35.49 29.3372 35.2332 29.2493 35.032 29.0735C34.8328 28.8958 34.7332 28.6712 34.7332 28.3997C34.7332 28.0696 34.8582 27.8138 35.1082 27.6321C35.3601 27.4485 35.7136 27.3568 36.1687 27.3568H36.696V27.1077C36.696 26.9183 36.6394 26.7679 36.5261 26.6566C36.4128 26.5433 36.2458 26.4866 36.0251 26.4866C35.8318 26.4866 35.6697 26.5355 35.5388 26.6331C35.408 26.7308 35.3425 26.8489 35.3425 26.9876H34.7976C34.7976 26.8294 34.8533 26.6771 34.9646 26.5306C35.0779 26.3821 35.2302 26.265 35.4216 26.179C35.615 26.0931 35.8269 26.0501 36.0574 26.0501C36.4226 26.0501 36.7087 26.1419 36.9158 26.3255C37.1228 26.5071 37.2302 26.7581 37.238 27.0784V28.5374C37.238 28.8284 37.2751 29.0599 37.3494 29.2318V29.2786H36.781ZM35.8816 28.8655C36.0515 28.8655 36.2126 28.8216 36.365 28.7337C36.5173 28.6458 36.6277 28.5316 36.696 28.3909V27.7405H36.2712C35.6072 27.7405 35.2751 27.9349 35.2751 28.3235C35.2751 28.4935 35.3318 28.6263 35.4451 28.722C35.5583 28.8177 35.7039 28.8655 35.8816 28.8655ZM39.6199 26.595C39.5378 26.5814 39.449 26.5745 39.3533 26.5745C38.9978 26.5745 38.7566 26.7259 38.6296 27.0286V29.2786H38.0876V26.1087H38.615L38.6238 26.4749C38.8015 26.1917 39.0535 26.0501 39.3796 26.0501C39.4851 26.0501 39.5652 26.0638 39.6199 26.0911V26.595ZM41.3777 29.3372C40.948 29.3372 40.5984 29.1966 40.3289 28.9153C40.0593 28.6321 39.9246 28.2542 39.9246 27.7816V27.6819C39.9246 27.3675 39.9841 27.0872 40.1033 26.8411C40.2244 26.5931 40.3923 26.3997 40.6072 26.261C40.824 26.1204 41.0583 26.0501 41.3103 26.0501C41.7224 26.0501 42.0427 26.1859 42.2712 26.4573C42.4998 26.7288 42.614 27.1175 42.614 27.6234V27.8489H40.4666C40.4744 28.1614 40.5652 28.4144 40.739 28.6077C40.9148 28.7991 41.1375 28.8948 41.407 28.8948C41.5984 28.8948 41.7605 28.8558 41.8933 28.7776C42.0261 28.6995 42.1423 28.596 42.2419 28.4671L42.573 28.7249C42.3074 29.1331 41.9089 29.3372 41.3777 29.3372ZM41.3103 26.4954C41.0916 26.4954 40.908 26.5755 40.7595 26.7357C40.6111 26.8939 40.5193 27.1165 40.4841 27.4036H42.072V27.3626C42.0564 27.0872 41.9822 26.8743 41.8494 26.7239C41.7166 26.5716 41.5369 26.4954 41.3103 26.4954ZM43.7566 26.1087L43.7742 26.5071C44.0164 26.2025 44.3328 26.0501 44.7234 26.0501C45.3933 26.0501 45.7312 26.428 45.7371 27.1839V29.2786H45.1951V27.181C45.1931 26.9525 45.1404 26.7835 45.0369 26.6741C44.9353 26.5648 44.7761 26.5101 44.5593 26.5101C44.3835 26.5101 44.2292 26.5569 44.0964 26.6507C43.9636 26.7444 43.8601 26.8675 43.7859 27.0198V29.2786H43.2439V26.1087H43.7566ZM47.8259 28.8948C48.0193 28.8948 48.1882 28.8362 48.3328 28.7191C48.4773 28.6019 48.5574 28.4554 48.573 28.2796H49.0857C49.0759 28.4612 49.0134 28.6341 48.8982 28.7982C48.783 28.9622 48.6287 29.0931 48.4353 29.1907C48.2439 29.2884 48.0408 29.3372 47.8259 29.3372C47.3943 29.3372 47.0505 29.1937 46.7947 28.9066C46.5408 28.6175 46.4138 28.223 46.4138 27.723V27.6321C46.4138 27.3235 46.4705 27.0491 46.5837 26.8089C46.697 26.5687 46.8591 26.3821 47.0701 26.2493C47.283 26.1165 47.5339 26.0501 47.823 26.0501C48.1785 26.0501 48.4734 26.1566 48.7078 26.3694C48.9441 26.5823 49.0701 26.8587 49.0857 27.1985H48.573C48.5574 26.9935 48.4792 26.8255 48.3386 26.6946C48.2 26.5618 48.0281 26.4954 47.823 26.4954C47.5476 26.4954 47.3337 26.595 47.1814 26.7943C47.031 26.9915 46.9558 27.2776 46.9558 27.6526V27.7552C46.9558 28.1204 47.031 28.4017 47.1814 28.5989C47.3318 28.7962 47.5466 28.8948 47.8259 28.8948ZM50.2839 29.2786H49.7419V26.1087H50.2839V29.2786ZM49.698 25.2679C49.698 25.18 49.7244 25.1058 49.7771 25.0452C49.8318 24.9847 49.9119 24.9544 50.0173 24.9544C50.1228 24.9544 50.2029 24.9847 50.2576 25.0452C50.3123 25.1058 50.3396 25.18 50.3396 25.2679C50.3396 25.3558 50.3123 25.429 50.2576 25.4876C50.2029 25.5462 50.1228 25.5755 50.0173 25.5755C49.9119 25.5755 49.8318 25.5462 49.7771 25.4876C49.7244 25.429 49.698 25.3558 49.698 25.2679ZM53.1111 29.2786C53.0798 29.2161 53.0544 29.1048 53.0349 28.9446C52.783 29.2064 52.4822 29.3372 52.1326 29.3372C51.8201 29.3372 51.5632 29.2493 51.3621 29.0735C51.1628 28.8958 51.0632 28.6712 51.0632 28.3997C51.0632 28.0696 51.1882 27.8138 51.4382 27.6321C51.6902 27.4485 52.0437 27.3568 52.4988 27.3568H53.0261V27.1077C53.0261 26.9183 52.9695 26.7679 52.8562 26.6566C52.7429 26.5433 52.5759 26.4866 52.3552 26.4866C52.1619 26.4866 51.9998 26.5355 51.8689 26.6331C51.738 26.7308 51.6726 26.8489 51.6726 26.9876H51.1277C51.1277 26.8294 51.1833 26.6771 51.2947 26.5306C51.408 26.3821 51.5603 26.265 51.7517 26.179C51.9451 26.0931 52.157 26.0501 52.3875 26.0501C52.7527 26.0501 53.0388 26.1419 53.2458 26.3255C53.4529 26.5071 53.5603 26.7581 53.5681 27.0784V28.5374C53.5681 28.8284 53.6052 29.0599 53.6794 29.2318V29.2786H53.1111ZM52.2117 28.8655C52.3816 28.8655 52.5427 28.8216 52.6951 28.7337C52.8474 28.6458 52.9578 28.5316 53.0261 28.3909V27.7405H52.6013C51.9373 27.7405 51.6052 27.9349 51.6052 28.3235C51.6052 28.4935 51.6619 28.6263 51.7751 28.722C51.8884 28.8177 52.0339 28.8655 52.2117 28.8655ZM5.59741 36.2786C5.56616 36.2161 5.54077 36.1048 5.52124 35.9446C5.26929 36.2064 4.96851 36.3372 4.6189 36.3372C4.3064 36.3372 4.04956 36.2493 3.84839 36.0735C3.64917 35.8958 3.54956 35.6712 3.54956 35.3997C3.54956 35.0696 3.67456 34.8138 3.92456 34.6321C4.17651 34.4485 4.53003 34.3568 4.98511 34.3568H5.51245V34.1077C5.51245 33.9183 5.45581 33.7679 5.34253 33.6566C5.22925 33.5433 5.06226 33.4866 4.84155 33.4866C4.64819 33.4866 4.48608 33.5355 4.35522 33.6331C4.22437 33.7308 4.15894 33.8489 4.15894 33.9876H3.61401C3.61401 33.8294 3.66968 33.6771 3.78101 33.5306C3.89429 33.3821 4.04663 33.265 4.23804 33.179C4.4314 33.0931 4.64331 33.0501 4.87378 33.0501C5.23901 33.0501 5.52515 33.1419 5.73218 33.3255C5.93921 33.5071 6.04663 33.7581 6.05444 34.0784V35.5374C6.05444 35.8284 6.09155 36.0599 6.16577 36.2318V36.2786H5.59741ZM4.698 35.8655C4.86792 35.8655 5.02905 35.8216 5.1814 35.7337C5.33374 35.6458 5.44409 35.5316 5.51245 35.3909V34.7405H5.08765C4.42358 34.7405 4.09155 34.9349 4.09155 35.3235C4.09155 35.4935 4.14819 35.6263 4.26147 35.722C4.37476 35.8177 4.52026 35.8655 4.698 35.8655ZM7.49292 36.2786H6.95093V31.7786H7.49292V36.2786ZM8.9519 36.2786H8.40991V33.1087H8.9519V36.2786ZM8.36597 32.2679C8.36597 32.18 8.39233 32.1058 8.44507 32.0452C8.49976 31.9847 8.57983 31.9544 8.6853 31.9544C8.79077 31.9544 8.87085 31.9847 8.92554 32.0452C8.98022 32.1058 9.00757 32.18 9.00757 32.2679C9.00757 32.3558 8.98022 32.429 8.92554 32.4876C8.87085 32.5462 8.79077 32.5755 8.6853 32.5755C8.57983 32.5755 8.49976 32.5462 8.44507 32.4876C8.39233 32.429 8.36597 32.3558 8.36597 32.2679ZM10.3318 33.1087L10.3464 33.4603C10.5789 33.1868 10.8923 33.0501 11.2869 33.0501C11.7302 33.0501 12.032 33.22 12.1921 33.5599C12.2976 33.4075 12.4343 33.2845 12.6023 33.1907C12.7722 33.097 12.9724 33.0501 13.2029 33.0501C13.8982 33.0501 14.2517 33.4183 14.2634 34.1546V36.2786H13.7214V34.1868C13.7214 33.9603 13.6697 33.7913 13.5662 33.68C13.4626 33.5667 13.2888 33.5101 13.0447 33.5101C12.8435 33.5101 12.6765 33.5706 12.5437 33.6917C12.4109 33.8109 12.3337 33.972 12.3123 34.1751V36.2786H11.7673V34.2015C11.7673 33.7405 11.5417 33.5101 11.0906 33.5101C10.7351 33.5101 10.4919 33.6614 10.3611 33.9642V36.2786H9.81909V33.1087H10.3318ZM16.3992 36.3372C15.9695 36.3372 15.6199 36.1966 15.3503 35.9153C15.0808 35.6321 14.946 35.2542 14.946 34.7816V34.6819C14.946 34.3675 15.0056 34.0872 15.1248 33.8411C15.2458 33.5931 15.4138 33.3997 15.6287 33.261C15.8455 33.1204 16.0798 33.0501 16.3318 33.0501C16.7439 33.0501 17.0642 33.1859 17.2927 33.4573C17.5212 33.7288 17.6355 34.1175 17.6355 34.6234V34.8489H15.488C15.4958 35.1614 15.5867 35.4144 15.7605 35.6077C15.9363 35.7991 16.1589 35.8948 16.4285 35.8948C16.6199 35.8948 16.782 35.8558 16.9148 35.7776C17.0476 35.6995 17.1638 35.596 17.2634 35.4671L17.5945 35.7249C17.3289 36.1331 16.9304 36.3372 16.3992 36.3372ZM16.3318 33.4954C16.113 33.4954 15.9294 33.5755 15.781 33.7357C15.6326 33.8939 15.5408 34.1165 15.5056 34.4036H17.0935V34.3626C17.0779 34.0872 17.0037 33.8743 16.8708 33.7239C16.738 33.5716 16.5583 33.4954 16.3318 33.4954ZM18.7781 33.1087L18.7957 33.5071C19.0378 33.2025 19.3542 33.0501 19.7449 33.0501C20.4148 33.0501 20.7527 33.428 20.7585 34.1839V36.2786H20.2166V34.181C20.2146 33.9525 20.1619 33.7835 20.0583 33.6741C19.9568 33.5648 19.7976 33.5101 19.5808 33.5101C19.405 33.5101 19.2507 33.5569 19.1179 33.6507C18.9851 33.7444 18.8816 33.8675 18.8074 34.0198V36.2786H18.2654V33.1087H18.7781ZM22.3113 32.3411V33.1087H22.9031V33.5276H22.3113V35.4935C22.3113 35.6204 22.3376 35.7161 22.3904 35.7806C22.4431 35.8431 22.533 35.8743 22.6599 35.8743C22.7224 35.8743 22.8083 35.8626 22.9177 35.8392V36.2786C22.7751 36.3177 22.6365 36.3372 22.5017 36.3372C22.2595 36.3372 22.0769 36.264 21.9539 36.1175C21.8308 35.971 21.7693 35.763 21.7693 35.4935V33.5276H21.1921V33.1087H21.7693V32.3411H22.3113ZM25.4958 36.2786C25.4646 36.2161 25.4392 36.1048 25.4197 35.9446C25.1677 36.2064 24.8669 36.3372 24.5173 36.3372C24.2048 36.3372 23.948 36.2493 23.7468 36.0735C23.5476 35.8958 23.448 35.6712 23.448 35.3997C23.448 35.0696 23.573 34.8138 23.823 34.6321C24.075 34.4485 24.4285 34.3568 24.8835 34.3568H25.4109V34.1077C25.4109 33.9183 25.3542 33.7679 25.241 33.6566C25.1277 33.5433 24.9607 33.4866 24.74 33.4866C24.5466 33.4866 24.3845 33.5355 24.2537 33.6331C24.1228 33.7308 24.0574 33.8489 24.0574 33.9876H23.5125C23.5125 33.8294 23.5681 33.6771 23.6794 33.5306C23.7927 33.3821 23.9451 33.265 24.1365 33.179C24.3298 33.0931 24.5417 33.0501 24.7722 33.0501C25.1375 33.0501 25.4236 33.1419 25.6306 33.3255C25.8376 33.5071 25.9451 33.7581 25.9529 34.0784V35.5374C25.9529 35.8284 25.99 36.0599 26.0642 36.2318V36.2786H25.4958ZM24.5964 35.8655C24.7664 35.8655 24.9275 35.8216 25.0798 35.7337C25.2322 35.6458 25.3425 35.5316 25.4109 35.3909V34.7405H24.9861C24.322 34.7405 23.99 34.9349 23.99 35.3235C23.99 35.4935 24.0466 35.6263 24.1599 35.722C24.2732 35.8177 24.4187 35.8655 24.5964 35.8655ZM28.3347 33.595C28.2527 33.5814 28.1638 33.5745 28.0681 33.5745C27.7126 33.5745 27.4714 33.7259 27.3445 34.0286V36.2786H26.8025V33.1087H27.3298L27.3386 33.4749C27.5164 33.1917 27.7683 33.0501 28.0945 33.0501C28.2 33.0501 28.28 33.0638 28.3347 33.0911V33.595ZM29.4246 36.2786H28.8826V33.1087H29.4246V36.2786ZM28.8386 32.2679C28.8386 32.18 28.865 32.1058 28.9177 32.0452C28.9724 31.9847 29.0525 31.9544 29.158 31.9544C29.2634 31.9544 29.3435 31.9847 29.3982 32.0452C29.4529 32.1058 29.4802 32.18 29.4802 32.2679C29.4802 32.3558 29.4529 32.429 29.3982 32.4876C29.3435 32.5462 29.2634 32.5755 29.158 32.5755C29.0525 32.5755 28.9724 32.5462 28.9177 32.4876C28.865 32.429 28.8386 32.3558 28.8386 32.2679ZM32.2517 36.2786C32.2205 36.2161 32.1951 36.1048 32.1755 35.9446C31.9236 36.2064 31.6228 36.3372 31.2732 36.3372C30.9607 36.3372 30.7039 36.2493 30.5027 36.0735C30.3035 35.8958 30.2039 35.6712 30.2039 35.3997C30.2039 35.0696 30.3289 34.8138 30.5789 34.6321C30.8308 34.4485 31.1843 34.3568 31.6394 34.3568H32.1667V34.1077C32.1667 33.9183 32.1101 33.7679 31.9968 33.6566C31.8835 33.5433 31.7166 33.4866 31.4958 33.4866C31.3025 33.4866 31.1404 33.5355 31.0095 33.6331C30.8787 33.7308 30.8132 33.8489 30.8132 33.9876H30.2683C30.2683 33.8294 30.324 33.6771 30.4353 33.5306C30.5486 33.3821 30.7009 33.265 30.8923 33.179C31.0857 33.0931 31.2976 33.0501 31.5281 33.0501C31.8933 33.0501 32.1794 33.1419 32.3865 33.3255C32.5935 33.5071 32.7009 33.7581 32.7087 34.0784V35.5374C32.7087 35.8284 32.7458 36.0599 32.8201 36.2318V36.2786H32.2517ZM31.3523 35.8655C31.5222 35.8655 31.6833 35.8216 31.8357 35.7337C31.988 35.6458 32.0984 35.5316 32.1667 35.3909V34.7405H31.7419C31.0779 34.7405 30.7458 34.9349 30.7458 35.3235C30.7458 35.4935 30.8025 35.6263 30.9158 35.722C31.0291 35.8177 31.1746 35.8655 31.3523 35.8655ZM34.1941 35.0775C34.198 34.845 34.2244 34.6614 34.2732 34.5267C34.322 34.3919 34.4216 34.2425 34.572 34.0784L34.9558 33.6829C35.1199 33.4974 35.2019 33.2982 35.2019 33.0853C35.2019 32.8802 35.1482 32.72 35.0408 32.6048C34.9333 32.4876 34.7771 32.429 34.572 32.429C34.3728 32.429 34.2126 32.4818 34.0916 32.5872C33.9705 32.6927 33.9099 32.8343 33.9099 33.012H33.3679C33.3718 32.6956 33.4841 32.4407 33.7048 32.2474C33.9275 32.0521 34.2166 31.9544 34.572 31.9544C34.9412 31.9544 35.2283 32.054 35.4333 32.2532C35.6404 32.4505 35.7439 32.722 35.7439 33.0677C35.7439 33.4095 35.5857 33.7464 35.2693 34.0784L34.95 34.3948C34.8074 34.553 34.7361 34.7806 34.7361 35.0775H34.1941ZM34.1707 36.0062C34.1707 35.9183 34.197 35.845 34.2498 35.7864C34.3044 35.7259 34.3845 35.6956 34.49 35.6956C34.5955 35.6956 34.6755 35.7259 34.7302 35.7864C34.7849 35.845 34.8123 35.9183 34.8123 36.0062C34.8123 36.0941 34.7849 36.1673 34.7302 36.2259C34.6755 36.2825 34.5955 36.3109 34.49 36.3109C34.3845 36.3109 34.3044 36.2825 34.2498 36.2259C34.197 36.1673 34.1707 36.0941 34.1707 36.0062Z" fill="white"/>
<path d="M205.908 25H148.092C145.832 25 144 26.4482 144 28.2347V32.7653C144 34.5518 145.832 36 148.092 36H205.908C208.168 36 210 34.5518 210 32.7653V28.2347C210 26.4482 208.168 25 205.908 25Z" fill="#0066FF" stroke="white" stroke-width="0.264583"/>
<path d="M150.622 33.3273H149.885V30.7572H147.082V33.3273H146.348V27.7669H147.082V30.1576H149.885V27.7669H150.622V33.3273ZM154.364 33.3273C154.323 33.2458 154.29 33.1007 154.265 32.8919C153.936 33.2331 153.544 33.4037 153.089 33.4037C152.681 33.4037 152.347 33.2891 152.084 33.06C151.825 32.8283 151.695 32.5355 151.695 32.1816C151.695 31.7514 151.858 31.4178 152.184 31.1811C152.512 30.9417 152.973 30.8221 153.566 30.8221H154.253V30.4975C154.253 30.2505 154.18 30.0545 154.032 29.9094C153.884 29.7617 153.667 29.6879 153.379 29.6879C153.127 29.6879 152.916 29.7515 152.745 29.8788C152.574 30.0061 152.489 30.1601 152.489 30.3409H151.779C151.779 30.1347 151.851 29.9361 151.996 29.7451C152.144 29.5517 152.343 29.3989 152.592 29.2869C152.844 29.1749 153.121 29.1188 153.421 29.1188C153.897 29.1188 154.27 29.2385 154.54 29.4778C154.81 29.7146 154.95 30.0418 154.96 30.4593V32.3611C154.96 32.7405 155.008 33.0422 155.105 33.2662V33.3273H154.364ZM153.192 32.7888C153.413 32.7888 153.623 32.7315 153.822 32.617C154.021 32.5024 154.164 32.3535 154.253 32.1702V31.3224H153.7C152.834 31.3224 152.401 31.5757 152.401 32.0823C152.401 32.3038 152.475 32.477 152.623 32.6017C152.77 32.7265 152.96 32.7888 153.192 32.7888ZM156.732 32.7506H159.149V33.3273H155.869V32.8079L158.149 29.7795H155.903V29.1952H159.035V29.6955L156.732 32.7506ZM164.439 32.9187C164.164 33.242 163.76 33.4037 163.228 33.4037C162.787 33.4037 162.451 33.2764 162.22 33.0218C161.991 32.7646 161.875 32.3853 161.872 31.8837V29.1952H162.579V31.8647C162.579 32.491 162.833 32.8041 163.342 32.8041C163.882 32.8041 164.241 32.603 164.419 32.2007V29.1952H165.126V33.3273H164.454L164.439 32.9187ZM166.871 29.1952L166.894 29.7146C167.21 29.3174 167.622 29.1188 168.131 29.1188C169.005 29.1188 169.445 29.6115 169.453 30.5968V33.3273H168.746V30.593C168.744 30.2951 168.675 30.0748 168.54 29.9323C168.408 29.7897 168.2 29.7184 167.918 29.7184C167.688 29.7184 167.487 29.7795 167.314 29.9017C167.141 30.0239 167.006 30.1843 166.909 30.3829V33.3273H166.203V29.1952H166.871ZM173.069 33.3273C173.029 33.2458 172.995 33.1007 172.97 32.8919C172.642 33.2331 172.25 33.4037 171.794 33.4037C171.386 33.4037 171.052 33.2891 170.789 33.06C170.53 32.8283 170.4 32.5355 170.4 32.1816C170.4 31.7514 170.563 31.4178 170.889 31.1811C171.217 30.9417 171.678 30.8221 172.271 30.8221H172.959V30.4975C172.959 30.2505 172.885 30.0545 172.737 29.9094C172.589 29.7617 172.372 29.6879 172.084 29.6879C171.832 29.6879 171.621 29.7515 171.45 29.8788C171.279 30.0061 171.194 30.1601 171.194 30.3409H170.484C170.484 30.1347 170.556 29.9361 170.702 29.7451C170.849 29.5517 171.048 29.3989 171.297 29.2869C171.549 29.1749 171.826 29.1188 172.126 29.1188C172.602 29.1188 172.975 29.2385 173.245 29.4778C173.515 29.7146 173.655 30.0418 173.665 30.4593V32.3611C173.665 32.7405 173.713 33.0422 173.81 33.2662V33.3273H173.069ZM171.897 32.7888C172.118 32.7888 172.328 32.7315 172.527 32.617C172.726 32.5024 172.869 32.3535 172.959 32.1702V31.3224H172.405C171.539 31.3224 171.106 31.5757 171.106 32.0823C171.106 32.3038 171.18 32.477 171.328 32.6017C171.476 32.7265 171.665 32.7888 171.897 32.7888ZM176.541 31.2269C176.541 30.593 176.691 30.0838 176.991 29.6993C177.292 29.3123 177.685 29.1188 178.171 29.1188C178.655 29.1188 179.038 29.2843 179.321 29.6153V27.4614H180.027V33.3273H179.378L179.344 32.8843C179.061 33.2306 178.668 33.4037 178.164 33.4037C177.685 33.4037 177.294 33.2076 176.991 32.8156C176.691 32.4235 176.541 31.9118 176.541 31.2804V31.2269ZM177.247 31.3071C177.247 31.7755 177.344 32.1422 177.537 32.4069C177.731 32.6717 177.998 32.8041 178.339 32.8041C178.788 32.8041 179.115 32.603 179.321 32.2007V30.3027C179.11 29.9132 178.785 29.7184 178.347 29.7184C178.001 29.7184 177.731 29.8521 177.537 30.1194C177.344 30.3867 177.247 30.7826 177.247 31.3071ZM180.94 31.2231C180.94 30.8183 181.019 30.4542 181.177 30.1309C181.337 29.8075 181.559 29.558 181.841 29.3824C182.127 29.2067 182.451 29.1188 182.815 29.1188C183.378 29.1188 183.832 29.3136 184.179 29.7031C184.527 30.0927 184.702 30.6108 184.702 31.2574V31.3071C184.702 31.7093 184.624 32.0709 184.469 32.3917C184.316 32.7099 184.096 32.9581 183.808 33.1364C183.523 33.3146 183.195 33.4037 182.823 33.4037C182.263 33.4037 181.808 33.2089 181.459 32.8194C181.113 32.4299 180.94 31.9143 180.94 31.2727V31.2231ZM181.65 31.3071C181.65 31.7654 181.756 32.1333 181.967 32.4108C182.181 32.6883 182.466 32.827 182.823 32.827C183.182 32.827 183.467 32.687 183.678 32.4069C183.89 32.1243 183.995 31.7297 183.995 31.2231C183.995 30.7699 183.887 30.4033 183.671 30.1232C183.457 29.8406 183.172 29.6993 182.815 29.6993C182.466 29.6993 182.185 29.8381 181.971 30.1156C181.757 30.3931 181.65 30.7903 181.65 31.3071ZM186.256 29.1952L186.279 29.7146C186.595 29.3174 187.007 29.1188 187.516 29.1188C188.39 29.1188 188.83 29.6115 188.838 30.5968V33.3273H188.131V30.593C188.129 30.2951 188.06 30.0748 187.925 29.9323C187.793 29.7897 187.585 29.7184 187.302 29.7184C187.073 29.7184 186.872 29.7795 186.699 29.9017C186.526 30.0239 186.391 30.1843 186.294 30.3829V33.3273H185.588V29.1952H186.256ZM192.454 33.3273C192.413 33.2458 192.38 33.1007 192.355 32.8919C192.026 33.2331 191.634 33.4037 191.179 33.4037C190.771 33.4037 190.437 33.2891 190.174 33.06C189.915 32.8283 189.785 32.5355 189.785 32.1816C189.785 31.7514 189.948 31.4178 190.274 31.1811C190.602 30.9417 191.063 30.8221 191.656 30.8221H192.343V30.4975C192.343 30.2505 192.27 30.0545 192.122 29.9094C191.974 29.7617 191.757 29.6879 191.469 29.6879C191.217 29.6879 191.006 29.7515 190.835 29.8788C190.664 30.0061 190.579 30.1601 190.579 30.3409H189.869C189.869 30.1347 189.941 29.9361 190.086 29.7451C190.234 29.5517 190.433 29.3989 190.682 29.2869C190.934 29.1749 191.21 29.1188 191.511 29.1188C191.987 29.1188 192.36 29.2385 192.63 29.4778C192.9 29.7146 193.04 30.0418 193.05 30.4593V32.3611C193.05 32.7405 193.098 33.0422 193.195 33.2662V33.3273H192.454ZM191.282 32.7888C191.503 32.7888 191.713 32.7315 191.912 32.617C192.11 32.5024 192.254 32.3535 192.343 32.1702V31.3224H191.79C190.924 31.3224 190.491 31.5757 190.491 32.0823C190.491 32.3038 190.565 32.477 190.713 32.6017C190.86 32.7265 191.05 32.7888 191.282 32.7888ZM195.815 32.827C196.067 32.827 196.287 32.7506 196.475 32.5979C196.664 32.4451 196.768 32.2542 196.789 32.025H197.457C197.444 32.2618 197.363 32.4871 197.213 32.701C197.062 32.9149 196.861 33.0854 196.609 33.2127C196.36 33.34 196.095 33.4037 195.815 33.4037C195.252 33.4037 194.804 33.2166 194.471 32.8423C194.14 32.4655 193.974 31.9512 193.974 31.2995V31.1811C193.974 30.7788 194.048 30.4211 194.196 30.1079C194.343 29.7948 194.555 29.5517 194.83 29.3785C195.107 29.2054 195.434 29.1188 195.811 29.1188C196.274 29.1188 196.659 29.2576 196.964 29.5351C197.272 29.8126 197.437 30.1729 197.457 30.6159H196.789C196.768 30.3485 196.666 30.1296 196.483 29.959C196.302 29.7859 196.078 29.6993 195.811 29.6993C195.452 29.6993 195.173 29.8292 194.975 30.0889C194.779 30.346 194.681 30.719 194.681 31.2078V31.3415C194.681 31.8176 194.779 32.1842 194.975 32.4413C195.171 32.6985 195.451 32.827 195.815 32.827ZM199.019 33.3273H198.312V29.1952H199.019V33.3273ZM198.255 28.0992C198.255 27.9846 198.289 27.8879 198.358 27.809C198.43 27.73 198.534 27.6906 198.671 27.6906C198.809 27.6906 198.913 27.73 198.985 27.809C199.056 27.8879 199.091 27.9846 199.091 28.0992C199.091 28.2138 199.056 28.3092 198.985 28.3856C198.913 28.462 198.809 28.5002 198.671 28.5002C198.534 28.5002 198.43 28.462 198.358 28.3856C198.289 28.3092 198.255 28.2138 198.255 28.0992ZM199.966 31.2231C199.966 30.8183 200.045 30.4542 200.203 30.1309C200.363 29.8075 200.585 29.558 200.867 29.3824C201.152 29.2067 201.477 29.1188 201.841 29.1188C202.404 29.1188 202.858 29.3136 203.204 29.7031C203.553 30.0927 203.728 30.6108 203.728 31.2574V31.3071C203.728 31.7093 203.65 32.0709 203.495 32.3917C203.342 32.7099 203.122 32.9581 202.834 33.1364C202.549 33.3146 202.22 33.4037 201.849 33.4037C201.289 33.4037 200.834 33.2089 200.485 32.8194C200.139 32.4299 199.966 31.9143 199.966 31.2727V31.2231ZM200.676 31.3071C200.676 31.7654 200.782 32.1333 200.993 32.4108C201.207 32.6883 201.492 32.827 201.849 32.827C202.208 32.827 202.493 32.687 202.704 32.4069C202.915 32.1243 203.021 31.7297 203.021 31.2231C203.021 30.7699 202.913 30.4033 202.697 30.1232C202.483 29.8406 202.198 29.6993 201.841 29.6993C201.492 29.6993 201.211 29.8381 200.997 30.1156C200.783 30.3931 200.676 30.7903 200.676 31.3071ZM202.162 27.4614H203.017L201.994 28.5842H201.425L202.162 27.4614ZM205.282 29.1952L205.305 29.7146C205.621 29.3174 206.033 29.1188 206.542 29.1188C207.415 29.1188 207.856 29.6115 207.864 30.5968V33.3273H207.157V30.593C207.154 30.2951 207.086 30.0748 206.951 29.9323C206.818 29.7897 206.611 29.7184 206.328 29.7184C206.099 29.7184 205.898 29.7795 205.725 29.9017C205.552 30.0239 205.417 30.1843 205.32 30.3829V33.3273H204.614V29.1952H205.282Z" fill="white"/>
<path d="M168.837 21.7383C184.941 21.7383 197.996 17.256 197.996 11.7269C197.996 6.1977 184.941 1.71542 168.837 1.71542C152.734 1.71542 139.679 6.1977 139.679 11.7269C139.679 17.256 152.734 21.7383 168.837 21.7383Z" fill="white" stroke="black" stroke-width="0.264583"/>
<path d="M134.453 17.9798L146.328 11.9277L147.342 15.8421L134.453 17.9798Z" fill="white"/>
<path d="M168.837 21.7383C184.941 21.7383 197.996 17.256 197.996 11.7269C197.996 6.1977 184.941 1.71542 168.837 1.71542C152.734 1.71542 139.679 6.1977 139.679 11.7269C139.679 17.256 152.734 21.7383 168.837 21.7383Z" fill="white"/>
<path d="M152.116 8.92261H152.643L152.683 12.1964H152.075L152.116 8.92261ZM152.705 7.94424C152.705 8.03832 152.676 8.11776 152.618 8.18256C152.561 8.24737 152.476 8.27977 152.364 8.27977C152.251 8.27977 152.165 8.24737 152.106 8.18256C152.048 8.11776 152.019 8.03832 152.019 7.94424C152.019 7.85017 152.048 7.77177 152.106 7.70906C152.165 7.64634 152.251 7.61498 152.364 7.61498C152.476 7.61498 152.561 7.64634 152.618 7.70906C152.676 7.77177 152.705 7.85017 152.705 7.94424ZM157.189 11.0675H156.584L154.286 7.54913V11.0675H153.681V6.50178H154.286L156.591 10.0358V6.50178H157.189V11.0675ZM159.576 11.1302C159.116 11.1302 158.742 10.9797 158.453 10.6787C158.165 10.3755 158.02 9.97101 158.02 9.4651V9.35848C158.02 9.02191 158.084 8.72192 158.212 8.45851C158.341 8.19301 158.521 7.98605 158.751 7.83762C158.983 7.68711 159.234 7.61185 159.504 7.61185C159.945 7.61185 160.288 7.75714 160.532 8.04772C160.777 8.33831 160.899 8.75432 160.899 9.29577V9.53722H158.601C158.609 9.87171 158.706 10.1424 158.892 10.3494C159.08 10.5543 159.319 10.6567 159.607 10.6567C159.812 10.6567 159.986 10.6149 160.128 10.5313C160.27 10.4476 160.394 10.3369 160.501 10.1989L160.855 10.4748C160.571 10.9117 160.144 11.1302 159.576 11.1302ZM159.504 8.08849C159.27 8.08849 159.073 8.1742 158.914 8.34562C158.755 8.51496 158.657 8.75328 158.619 9.06058H160.319V9.01668C160.302 8.72192 160.223 8.49405 160.081 8.33308C159.939 8.17002 159.746 8.08849 159.504 8.08849ZM162.934 10.6567C163.141 10.6567 163.322 10.594 163.477 10.4686C163.631 10.3431 163.717 10.1863 163.734 9.99818H164.283C164.272 10.1926 164.205 10.3776 164.082 10.5532C163.959 10.7288 163.793 10.8689 163.587 10.9734C163.382 11.0779 163.164 11.1302 162.934 11.1302C162.472 11.1302 162.104 10.9766 161.83 10.6692C161.559 10.3598 161.423 9.93756 161.423 9.40238V9.30518C161.423 8.97487 161.483 8.68115 161.605 8.42402C161.726 8.16688 161.899 7.96724 162.125 7.82508C162.353 7.68293 162.622 7.61185 162.931 7.61185C163.312 7.61185 163.627 7.72578 163.878 7.95365C164.131 8.18152 164.266 8.47733 164.283 8.84108H163.734C163.717 8.62157 163.634 8.44179 163.483 8.30172C163.335 8.15957 163.151 8.08849 162.931 8.08849C162.636 8.08849 162.407 8.19511 162.244 8.40834C162.083 8.61948 162.003 8.92574 162.003 9.32713V9.43688C162.003 9.82781 162.083 10.1288 162.244 10.34C162.405 10.5511 162.635 10.6567 162.934 10.6567ZM166.343 11.1302C165.883 11.1302 165.509 10.9797 165.22 10.6787C164.932 10.3755 164.788 9.97101 164.788 9.4651V9.35848C164.788 9.02191 164.851 8.72192 164.979 8.45851C165.108 8.19301 165.288 7.98605 165.518 7.83762C165.75 7.68711 166.001 7.61185 166.271 7.61185C166.712 7.61185 167.055 7.75714 167.299 8.04772C167.544 8.33831 167.666 8.75432 167.666 9.29577V9.53722H165.368C165.376 9.87171 165.473 10.1424 165.659 10.3494C165.847 10.5543 166.086 10.6567 166.374 10.6567C166.579 10.6567 166.753 10.6149 166.895 10.5313C167.037 10.4476 167.161 10.3369 167.268 10.1989L167.622 10.4748C167.338 10.9117 166.911 11.1302 166.343 11.1302ZM166.271 8.08849C166.037 8.08849 165.84 8.1742 165.681 8.34562C165.522 8.51496 165.424 8.75328 165.386 9.06058H167.086V9.01668C167.069 8.72192 166.99 8.49405 166.848 8.33308C166.706 8.17002 166.513 8.08849 166.271 8.08849ZM170.316 10.1675C170.316 10.0107 170.256 9.88948 170.137 9.80377C170.02 9.71596 169.814 9.6407 169.519 9.57799C169.227 9.51527 168.994 9.44001 168.82 9.35221C168.649 9.26441 168.521 9.15988 168.438 9.03863C168.356 8.91738 168.315 8.77314 168.315 8.60589C168.315 8.32785 168.432 8.09267 168.666 7.90034C168.903 7.70801 169.204 7.61185 169.57 7.61185C169.954 7.61185 170.266 7.71115 170.504 7.90975C170.744 8.10835 170.865 8.36235 170.865 8.67175H170.281C170.281 8.51287 170.213 8.37594 170.078 8.26096C169.944 8.14598 169.774 8.08849 169.57 8.08849C169.358 8.08849 169.193 8.13448 169.074 8.22646C168.955 8.31845 168.895 8.43865 168.895 8.58708C168.895 8.72714 168.951 8.83272 169.062 8.90379C169.172 8.97487 169.372 9.04281 169.661 9.10762C169.951 9.17243 170.186 9.24978 170.366 9.33967C170.546 9.42956 170.679 9.53827 170.764 9.66579C170.852 9.79122 170.896 9.94488 170.896 10.1268C170.896 10.4299 170.775 10.6734 170.532 10.8574C170.29 11.0393 169.975 11.1302 169.588 11.1302C169.317 11.1302 169.076 11.0821 168.867 10.986C168.658 10.8898 168.494 10.756 168.375 10.5846C168.258 10.4111 168.199 10.224 168.199 10.0233H168.779C168.79 10.2177 168.867 10.3724 169.011 10.4874C169.158 10.6003 169.35 10.6567 169.588 10.6567C169.808 10.6567 169.984 10.6128 170.115 10.525C170.249 10.4351 170.316 10.3159 170.316 10.1675ZM172.282 11.0675H171.702V7.67456H172.282V11.0675ZM171.655 6.77459C171.655 6.68052 171.683 6.60108 171.74 6.53627C171.798 6.47147 171.884 6.43906 171.997 6.43906C172.11 6.43906 172.195 6.47147 172.254 6.53627C172.312 6.60108 172.342 6.68052 172.342 6.77459C172.342 6.86867 172.312 6.94706 172.254 7.00978C172.195 7.07249 172.11 7.10385 171.997 7.10385C171.884 7.10385 171.798 7.07249 171.74 7.00978C171.683 6.94706 171.655 6.86867 171.655 6.77459ZM174 6.85299V7.67456H174.634V8.12298H174V10.2271C174 10.363 174.029 10.4654 174.085 10.5344C174.142 10.6013 174.238 10.6348 174.374 10.6348C174.441 10.6348 174.533 10.6222 174.65 10.5971V11.0675C174.497 11.1093 174.349 11.1302 174.204 11.1302C173.945 11.1302 173.75 11.0518 173.618 10.895C173.486 10.7382 173.42 10.5156 173.42 10.2271V8.12298H172.803V7.67456H173.42V6.85299H174ZM177.409 11.0675C177.376 11.0006 177.348 10.8814 177.328 10.71C177.058 10.9901 176.736 11.1302 176.362 11.1302C176.027 11.1302 175.752 11.0361 175.537 10.848C175.324 10.6577 175.217 10.4173 175.217 10.1268C175.217 9.77345 175.351 9.49959 175.619 9.30518C175.888 9.10867 176.267 9.01041 176.754 9.01041H177.318V8.74387C177.318 8.54109 177.258 8.38012 177.136 8.26096C177.015 8.13971 176.836 8.07908 176.6 8.07908C176.393 8.07908 176.22 8.13134 176.08 8.23587C175.939 8.3404 175.869 8.46687 175.869 8.6153H175.286C175.286 8.44597 175.346 8.28291 175.465 8.12612C175.586 7.96724 175.749 7.84181 175.954 7.74982C176.161 7.65784 176.388 7.61185 176.635 7.61185C177.025 7.61185 177.332 7.7101 177.553 7.90661C177.775 8.10103 177.89 8.36966 177.898 8.71251V10.2741C177.898 10.5856 177.938 10.8334 178.017 11.0173V11.0675H177.409ZM176.446 10.6253C176.628 10.6253 176.801 10.5783 176.964 10.4842C177.127 10.3902 177.245 10.2679 177.318 10.1173V9.4212H176.863C176.153 9.4212 175.797 9.62921 175.797 10.0452C175.797 10.2271 175.858 10.3693 175.979 10.4717C176.1 10.5741 176.256 10.6253 176.446 10.6253ZM179.353 7.67456L179.369 8.05086C179.618 7.75818 179.953 7.61185 180.376 7.61185C180.85 7.61185 181.173 7.79372 181.344 8.15748C181.457 7.99441 181.604 7.86271 181.784 7.76237C181.965 7.66202 182.18 7.61185 182.426 7.61185C183.171 7.61185 183.549 8.00591 183.561 8.79404V11.0675H182.981V8.82853C182.981 8.58603 182.926 8.4052 182.815 8.28604C182.704 8.16479 182.518 8.10417 182.257 8.10417C182.042 8.10417 181.863 8.16897 181.721 8.29859C181.579 8.42611 181.496 8.59858 181.473 8.81599V11.0675H180.89V8.84421C180.89 8.35085 180.648 8.10417 180.165 8.10417C179.785 8.10417 179.525 8.26618 179.385 8.59021V11.0675H178.805V7.67456H179.353ZM184.286 9.33967C184.286 9.00727 184.351 8.70833 184.48 8.44283C184.612 8.17734 184.794 7.97246 185.026 7.82822C185.26 7.68397 185.527 7.61185 185.826 7.61185C186.288 7.61185 186.661 7.77177 186.945 8.09162C187.231 8.41147 187.375 8.8369 187.375 9.36789V9.40866C187.375 9.73896 187.311 10.0358 187.183 10.2992C187.058 10.5605 186.877 10.7644 186.641 10.9107C186.407 11.057 186.137 11.1302 185.832 11.1302C185.372 11.1302 184.999 10.9703 184.712 10.6504C184.428 10.3306 184.286 9.90725 184.286 9.38043V9.33967ZM184.869 9.40866C184.869 9.78495 184.956 10.087 185.129 10.3149C185.305 10.5428 185.539 10.6567 185.832 10.6567C186.127 10.6567 186.361 10.5417 186.534 10.3118C186.708 10.0797 186.795 9.75568 186.795 9.33967C186.795 8.96755 186.706 8.66652 186.528 8.43656C186.352 8.20451 186.118 8.08849 185.826 8.08849C185.539 8.08849 185.308 8.20242 185.133 8.43029C184.957 8.65816 184.869 8.98428 184.869 9.40866ZM190.078 10.1675C190.078 10.0107 190.018 9.88948 189.899 9.80377C189.782 9.71596 189.576 9.6407 189.281 9.57799C188.989 9.51527 188.755 9.44001 188.582 9.35221C188.41 9.26441 188.283 9.15988 188.199 9.03863C188.118 8.91738 188.077 8.77314 188.077 8.60589C188.077 8.32785 188.194 8.09267 188.428 7.90034C188.664 7.70801 188.966 7.61185 189.331 7.61185C189.716 7.61185 190.027 7.71115 190.266 7.90975C190.506 8.10835 190.626 8.36235 190.626 8.67175H190.043C190.043 8.51287 189.975 8.37594 189.839 8.26096C189.706 8.14598 189.536 8.08849 189.331 8.08849C189.12 8.08849 188.955 8.13448 188.836 8.22646C188.717 8.31845 188.657 8.43865 188.657 8.58708C188.657 8.72714 188.713 8.83272 188.823 8.90379C188.934 8.97487 189.134 9.04281 189.422 9.10762C189.713 9.17243 189.948 9.24978 190.128 9.33967C190.308 9.42956 190.44 9.53827 190.526 9.66579C190.614 9.79122 190.658 9.94488 190.658 10.1268C190.658 10.4299 190.537 10.6734 190.294 10.8574C190.052 11.0393 189.737 11.1302 189.35 11.1302C189.078 11.1302 188.838 11.0821 188.629 10.986C188.42 10.8898 188.256 10.756 188.137 10.5846C188.02 10.4111 187.961 10.224 187.961 10.0233H188.541C188.552 10.2177 188.629 10.3724 188.773 10.4874C188.92 10.6003 189.112 10.6567 189.35 10.6567C189.57 10.6567 189.745 10.6128 189.877 10.525C190.011 10.4351 190.078 10.3159 190.078 10.1675Z" fill="black"/>
<path d="M157.578 13.3604V14.182H158.211V14.6304H157.578V16.7345C157.578 16.8704 157.606 16.9728 157.662 17.0418C157.719 17.1087 157.815 17.1422 157.951 17.1422C158.018 17.1422 158.11 17.1296 158.227 17.1046V17.5749C158.074 17.6167 157.926 17.6376 157.781 17.6376C157.522 17.6376 157.327 17.5592 157.195 17.4025C157.063 17.2457 156.998 17.023 156.998 16.7345V14.6304H156.38V14.182H156.998V13.3604H157.578ZM160.986 17.2394C160.76 17.5049 160.429 17.6376 159.992 17.6376C159.631 17.6376 159.355 17.5331 159.164 17.3241C158.976 17.1129 158.881 16.8014 158.879 16.3896V14.182H159.459V16.3739C159.459 16.8882 159.668 17.1453 160.086 17.1453C160.529 17.1453 160.824 16.9802 160.971 16.6499V14.182H161.551V17.5749H160.999L160.986 17.2394ZM166.123 17.5749C166.089 17.508 166.062 17.3889 166.041 17.2174C165.771 17.4976 165.45 17.6376 165.075 17.6376C164.741 17.6376 164.466 17.5436 164.251 17.3554C164.037 17.1652 163.931 16.9248 163.931 16.6342C163.931 16.2809 164.065 16.007 164.332 15.8126C164.602 15.6161 164.98 15.5178 165.467 15.5178H166.032V15.2513C166.032 15.0485 165.971 14.8875 165.85 14.7684C165.729 14.6471 165.55 14.5865 165.314 14.5865C165.107 14.5865 164.933 14.6388 164.793 14.7433C164.653 14.8478 164.583 14.9743 164.583 15.1227H164C164 14.9534 164.059 14.7903 164.178 14.6335C164.3 14.4747 164.463 14.3492 164.668 14.2573C164.875 14.1653 165.101 14.1193 165.348 14.1193C165.739 14.1193 166.045 14.2175 166.267 14.414C166.489 14.6085 166.604 14.8771 166.612 15.2199V16.7816C166.612 17.0931 166.652 17.3408 166.731 17.5247V17.5749H166.123ZM165.16 17.1328C165.342 17.1328 165.514 17.0857 165.677 16.9917C165.84 16.8976 165.959 16.7753 166.032 16.6248V15.9286H165.577C164.866 15.9286 164.511 16.1366 164.511 16.5527C164.511 16.7345 164.572 16.8767 164.693 16.9791C164.814 17.0816 164.97 17.1328 165.16 17.1328ZM170.387 15.9161C170.387 16.4324 170.269 16.8485 170.033 17.1641C169.797 17.4798 169.477 17.6376 169.073 17.6376C168.662 17.6376 168.338 17.507 168.101 17.2457V18.8794H167.521V14.182H168.051L168.079 14.5583C168.316 14.2656 168.644 14.1193 169.064 14.1193C169.472 14.1193 169.794 14.2729 170.03 14.5802C170.268 14.8875 170.387 15.3151 170.387 15.8628V15.9161ZM169.807 15.8502C169.807 15.4677 169.726 15.1656 169.563 14.944C169.4 14.7224 169.176 14.6116 168.892 14.6116C168.54 14.6116 168.277 14.7673 168.101 15.0788V16.7C168.275 17.0094 168.54 17.1641 168.898 17.1641C169.176 17.1641 169.396 17.0544 169.56 16.8349C169.725 16.6133 169.807 16.2851 169.807 15.8502ZM170.974 15.8471C170.974 15.5147 171.039 15.2158 171.168 14.9503C171.3 14.6848 171.482 14.4799 171.714 14.3356C171.948 14.1914 172.214 14.1193 172.513 14.1193C172.975 14.1193 173.349 14.2792 173.633 14.5991C173.919 14.9189 174.063 15.3443 174.063 15.8753V15.9161C174.063 16.2464 173.999 16.5432 173.871 16.8067C173.746 17.068 173.565 17.2718 173.329 17.4181C173.095 17.5645 172.825 17.6376 172.52 17.6376C172.06 17.6376 171.687 17.4777 171.4 17.1579C171.116 16.838 170.974 16.4147 170.974 15.8879V15.8471ZM171.557 15.9161C171.557 16.2924 171.644 16.5945 171.817 16.8223C171.993 17.0502 172.227 17.1641 172.52 17.1641C172.814 17.1641 173.049 17.0492 173.222 16.8192C173.396 16.5871 173.482 16.2631 173.482 15.8471C173.482 15.475 173.394 15.1739 173.216 14.944C173.04 14.7119 172.806 14.5959 172.513 14.5959C172.227 14.5959 171.996 14.7099 171.82 14.9377C171.645 15.1656 171.557 15.4917 171.557 15.9161ZM175.85 16.7251L176.64 14.182H177.261L175.897 18.0986C175.686 18.663 175.35 18.9453 174.89 18.9453L174.781 18.9359L174.564 18.8951V18.4247L174.721 18.4373C174.918 18.4373 175.07 18.3975 175.179 18.3181C175.29 18.2387 175.381 18.0934 175.452 17.8822L175.58 17.5373L174.37 14.182H175.003L175.85 16.7251ZM177.578 15.8471C177.578 15.5147 177.643 15.2158 177.772 14.9503C177.904 14.6848 178.086 14.4799 178.318 14.3356C178.552 14.1914 178.818 14.1193 179.117 14.1193C179.579 14.1193 179.953 14.2792 180.237 14.5991C180.523 14.9189 180.666 15.3443 180.666 15.8753V15.9161C180.666 16.2464 180.603 16.5432 180.475 16.8067C180.35 17.068 180.169 17.2718 179.933 17.4181C179.699 17.5645 179.429 17.6376 179.124 17.6376C178.664 17.6376 178.291 17.4777 178.004 17.1579C177.72 16.838 177.578 16.4147 177.578 15.8879V15.8471ZM178.161 15.9161C178.161 16.2924 178.248 16.5945 178.421 16.8223C178.597 17.0502 178.831 17.1641 179.124 17.1641C179.418 17.1641 179.653 17.0492 179.826 16.8192C180 16.5871 180.086 16.2631 180.086 15.8471C180.086 15.475 179.998 15.1739 179.82 14.944C179.644 14.7119 179.41 14.5959 179.117 14.5959C178.831 14.5959 178.6 14.7099 178.424 14.9377C178.249 15.1656 178.161 15.4917 178.161 15.9161ZM182.043 16.2861H181.519L181.479 13.0092H182.087L182.043 16.2861ZM181.457 17.2833C181.457 17.1892 181.485 17.1108 181.541 17.0481C181.6 16.9833 181.686 16.9509 181.799 16.9509C181.911 16.9509 181.997 16.9833 182.056 17.0481C182.114 17.1108 182.143 17.1892 182.143 17.2833C182.143 17.3774 182.114 17.4558 182.056 17.5185C181.997 17.5791 181.911 17.6094 181.799 17.6094C181.686 17.6094 181.6 17.5791 181.541 17.5185C181.485 17.4558 181.457 17.3774 181.457 17.2833Z" fill="black"/>
</g>
<defs>
<clipPath id="clip0">
<rect width="211.667" height="39.6875" fill="white"/>
</clipPath>
</defs>
</svg>
