<svg width="212" height="40" viewBox="0 0 212 40" fill="none" xmlns="http://www.w3.org/2000/svg">
<path d="M92.8898 34.2407H79.4318V40H92.8898V34.2407Z" fill="black"/>
<path d="M212 0H0V40H212V0Z" fill="#00AA00"/>
<path d="M212 0H93.2134V40H212V0Z" fill="#FF2A2A"/>
<path d="M66.3276 0L74.7838 40H143.665L135.208 0H66.3276Z" fill="#D5F6FF"/>
<path d="M136.154 17.7971L148.048 11.6973L149.064 15.6425L136.154 17.7971Z" fill="white" stroke="black" stroke-width="0.264583"/>
<path d="M91.4747 22.9742C96.0662 26.1655 100.865 20.3061 105.036 20.9489" stroke="black" stroke-width="0.817184"/>
<path fill-rule="evenodd" clip-rule="evenodd" d="M86.149 22.1088C86.1373 22.1091 86.1256 22.1094 86.1139 22.1096C86.1054 22.1094 86.0969 22.1091 86.0884 22.1088C86.0969 22.1093 86.1054 22.1097 86.1139 22.1101C86.1256 22.1097 86.1373 22.1093 86.149 22.1088Z" fill="#803300"/>
<path fill-rule="evenodd" clip-rule="evenodd" d="M111.754 35.4683C111.754 35.4683 111.764 36.7015 111.062 37.0695C110.561 37.3322 109.501 36.7808 109.501 36.7808L111.754 35.4683Z" fill="#DE8787"/>
<path fill-rule="evenodd" clip-rule="evenodd" d="M109.995 24.6368C110.721 24.883 111.084 26.0379 111.015 26.5352L107.815 25.2272C108.289 25.0859 109.264 24.3892 109.995 24.6368Z" fill="#DE8787"/>
<path fill-rule="evenodd" clip-rule="evenodd" d="M102.812 38.5867C103.219 38.9444 103.337 40.0193 104.615 39.979C105.894 39.9386 106.095 38.9675 106.655 38.7128C107.192 38.4691 102.399 38.2226 102.812 38.5867Z" fill="#DE8787"/>
<path fill-rule="evenodd" clip-rule="evenodd" d="M106.391 24.7961C105.292 24.7969 104.187 25.0019 103.162 25.3819C100.257 26.4597 98.6824 28.8659 98.2987 30.4164C96.8568 36.2443 102.399 38.2226 102.813 38.5867C103.219 38.9444 106.095 38.9674 106.656 38.7128C107.193 38.4691 108.165 38.6253 110.988 36.4351C113.797 34.2552 113.876 29.5328 111.967 27.2378C111.248 26.374 110.449 25.7995 109.473 25.4018C109.362 25.377 109.204 25.3678 109.122 25.3646C109.092 25.3139 109.056 25.269 109.001 25.2158C108.168 24.9304 107.282 24.7958 106.391 24.7961Z" fill="#E9AFAF"/>
<path d="M126.102 26.7918C131.056 26.7918 135.072 21.7086 135.072 15.4382C135.072 9.16785 131.056 4.08469 126.102 4.08469C121.147 4.08469 117.131 9.16785 117.131 15.4382C117.131 21.7086 121.147 26.7918 126.102 26.7918Z" fill="#803300"/>
<path fill-rule="evenodd" clip-rule="evenodd" d="M126.102 20.1896C120.59 20.1896 116.152 24.6549 116.152 30.2018V40H136.051V30.2018C136.051 24.6549 131.614 20.1896 126.102 20.1896Z" fill="#00D400"/>
<path d="M132.682 23.5789C139.432 22.5448 143.04 37.069 132.789 35.98" stroke="black" stroke-width="0.815848"/>
<path d="M120.289 23.3871C113.539 22.353 111.08 36.7095 122.553 30.0618" stroke="black" stroke-width="0.815848"/>
<path fill-rule="evenodd" clip-rule="evenodd" d="M126.102 20.1896C122.703 20.1896 119.715 21.8888 117.922 24.4909H134.282C132.489 21.8888 129.5 20.1896 126.102 20.1896Z" fill="#00D400"/>
<path d="M126.102 20.7075C130.27 20.7075 133.65 17.3068 133.65 13.1119C133.65 8.91696 130.27 5.5163 126.102 5.5163C121.933 5.5163 118.554 8.91696 118.554 13.1119C118.554 17.3068 121.933 20.7075 126.102 20.7075Z" fill="#FFCC00"/>
<path d="M131.186 26.932L129.367 24.5576C129.055 24.1506 128.397 24.0275 127.897 24.2827L120.956 27.8245C120.456 28.0797 120.304 28.6164 120.615 29.0234L122.434 31.3978C122.746 31.8048 123.404 31.9279 123.904 31.6727L130.845 28.1309C131.345 27.8757 131.498 27.339 131.186 26.932Z" fill="#4D4D4D"/>
<path d="M128.687 26.5566C128.86 26.7828 129.226 26.8512 129.504 26.7094C129.782 26.5676 129.867 26.2693 129.693 26.0431C129.52 25.8169 129.154 25.7485 128.877 25.8903C128.599 26.0321 128.514 26.3304 128.687 26.5566Z" fill="#E6E6E6"/>
<path d="M121.433 32.0554C122.286 32.0554 122.977 31.3598 122.977 30.5017C122.977 29.6437 122.286 28.9481 121.433 28.9481C120.58 28.9481 119.889 29.6437 119.889 30.5017C119.889 31.3598 120.58 32.0554 121.433 32.0554Z" fill="#FFCC00"/>
<path d="M136.897 28.8347L136.456 28.2869C136.125 27.875 135.524 27.8117 135.115 28.1454L132.28 30.4573C131.87 30.791 131.807 31.3954 132.139 31.8072L132.58 32.355C132.912 32.7669 133.512 32.8302 133.922 32.4965L136.757 30.1846C137.166 29.8509 137.229 29.2465 136.897 28.8347Z" fill="#FF0000"/>
<path d="M135.572 30.4104L134.65 29.2649C133.956 28.4038 132.701 28.2715 131.845 28.9692L125.917 33.8031C125.061 34.5009 124.93 35.7646 125.623 36.6257L126.545 37.7711C127.239 38.6322 128.495 38.7646 129.35 38.0668L135.278 33.2329C136.134 32.5351 136.266 31.2714 135.572 30.4104Z" fill="#2B0000"/>
<path fill-rule="evenodd" clip-rule="evenodd" d="M131.092 29.5836L126.67 33.1888L130.104 37.4523L134.525 33.8472L131.092 29.5836Z" fill="#FF0000"/>
<path d="M132.379 37.5562C133.232 37.5562 133.923 36.8606 133.923 36.0026C133.923 35.1445 133.232 34.4489 132.379 34.4489C131.527 34.4489 130.835 35.1445 130.835 36.0026C130.835 36.8606 131.527 37.5562 132.379 37.5562Z" fill="#FFCC00"/>
<path fill-rule="evenodd" clip-rule="evenodd" d="M126.137 22.1381C126.125 22.1384 126.113 22.1386 126.102 22.1389C126.093 22.1386 126.085 22.1384 126.076 22.1381C126.085 22.1385 126.093 22.1388 126.102 22.1392C126.113 22.1388 126.125 22.1385 126.137 22.1381Z" fill="#803300"/>
<path fill-rule="evenodd" clip-rule="evenodd" d="M126.102 4.08466C124.924 4.08464 123.757 4.31813 122.669 4.77179C121.58 5.22545 120.591 5.8904 119.758 6.72866C118.925 7.56693 118.264 8.5621 117.814 9.65735C117.363 10.7526 117.131 11.9265 117.131 13.112C117.132 13.6572 117.183 14.2012 117.282 14.7372C117.291 14.694 117.3 14.6507 117.31 14.6076C117.369 14.4022 117.443 14.1991 117.532 13.9989C117.62 13.7988 117.723 13.602 117.839 13.4091C117.955 13.2161 118.086 13.0273 118.229 12.8434C118.373 12.6596 118.529 12.481 118.698 12.3082C118.867 12.1352 119.048 11.9682 119.241 11.8079C119.433 11.6478 119.637 11.4945 119.852 11.3486C120.066 11.2026 120.291 11.0641 120.525 10.9338C120.76 10.8036 121.003 10.6817 121.255 10.5685C121.506 10.4553 121.766 10.3511 122.033 10.2561C122.299 10.1611 122.572 10.0755 122.851 9.99955C123.13 9.92367 123.414 9.85761 123.702 9.80161C123.99 9.74552 124.282 9.69955 124.577 9.6639C124.872 9.62836 125.169 9.60317 125.467 9.58842C125.678 9.57782 125.89 9.57247 126.102 9.57236C126.401 9.57246 126.7 9.58305 126.997 9.60408C127.295 9.62489 127.591 9.65611 127.884 9.69763C128.177 9.73924 128.467 9.7911 128.753 9.85301C129.039 9.915 129.32 9.98696 129.595 10.0686C129.871 10.1501 130.14 10.2413 130.402 10.3416C130.665 10.4421 130.92 10.5517 131.167 10.6701C131.414 10.7884 131.652 10.9153 131.881 11.0503C132.11 11.1852 132.329 11.328 132.537 11.4783C132.745 11.6285 132.943 11.786 133.129 11.95C133.315 12.1141 133.489 12.2845 133.651 12.4607C133.812 12.637 133.961 12.8189 134.097 13.0056C134.232 13.1923 134.355 13.3837 134.463 13.5789C134.571 13.7742 134.666 13.9732 134.746 14.1752C134.816 14.3558 134.874 14.5385 134.921 14.7228C135.02 14.1915 135.07 13.6524 135.073 13.112C135.073 11.9265 134.841 10.7526 134.39 9.65736C133.939 8.5621 133.278 7.56693 132.445 6.72867C131.612 5.8904 130.623 5.22545 129.535 4.77179C128.446 4.31813 127.28 4.08464 126.102 4.08466L126.102 4.08466Z" fill="#AA4400"/>
<path d="M123.68 14.9828C124.248 14.9828 124.709 14.519 124.709 13.947C124.709 13.375 124.248 12.9112 123.68 12.9112C123.111 12.9112 122.651 13.375 122.651 13.947C122.651 14.519 123.111 14.9828 123.68 14.9828Z" fill="black"/>
<path d="M128.998 14.9828C129.566 14.9828 130.027 14.519 130.027 13.947C130.027 13.375 129.566 12.9112 128.998 12.9112C128.429 12.9112 127.969 13.375 127.969 13.947C127.969 14.519 128.429 14.9828 128.998 14.9828Z" fill="black"/>
<path fill-rule="evenodd" clip-rule="evenodd" d="M123.667 17.0822C123.963 17.6216 124.335 18.056 124.756 18.3544C125.176 18.6529 125.636 18.808 126.101 18.8087C126.567 18.8083 127.026 18.6533 127.447 18.3548C127.868 18.0564 128.24 17.6218 128.536 17.0822H123.667Z" fill="black"/>
<path fill-rule="evenodd" clip-rule="evenodd" d="M106.57 33.1162C107.765 33.2462 110.204 31.6819 108.946 28.5602C107.688 25.4382 103.793 26.1158 103.244 27.9132C103.14 28.2532 104.846 28.6116 105.564 29.9946C106.282 31.3773 105.987 33.0532 106.57 33.1162Z" fill="#DE8787"/>
<path fill-rule="evenodd" clip-rule="evenodd" d="M101.853 26.7976C102.533 26.5585 103.87 25.7496 103.356 25.3157C102.584 25.5817 101.366 23.3642 99.1065 24.8287C97.8088 25.6695 99.5362 28.0255 99.1016 28.6421C99.7052 27.6288 100.086 27.4173 101.853 26.7976H101.853Z" fill="#DE8787"/>
<path fill-rule="evenodd" clip-rule="evenodd" d="M98.3547 31.9071C98.0207 32.3552 97.2647 32.5538 97.2228 33.5101C97.1806 34.4805 97.9876 36.223 99.1653 36.5616C100.339 36.8991 100.465 36.5195 101.066 36.5478C101.653 36.5751 101.695 34.1993 100.647 33.0883C99.6056 31.9847 98.8439 31.8087 98.3547 31.9071V31.9071Z" fill="#DE8787"/>
<path d="M97.6068 32.5924C97.4037 32.8072 97.2416 33.0829 97.223 33.5111C97.1807 34.4813 97.9874 36.2246 99.1653 36.5636C99.6033 36.6895 99.8947 36.7151 100.12 36.6997C100.18 36.4279 100.213 36.1425 100.213 35.8475C100.213 34.0704 99.0508 32.6265 97.6068 32.5925L97.6068 32.5924Z" fill="#E9AFAF"/>
<path opacity="0.9" fill-rule="evenodd" clip-rule="evenodd" d="M103.059 28.1498C103.059 28.1498 104.931 27.2952 106.142 28.3488C107.743 29.7407 106.28 33.3801 106.28 33.3801L103.059 28.1498Z" fill="#A8443F"/>
<path opacity="0.9" fill-rule="evenodd" clip-rule="evenodd" d="M101.834 26.9566C100.866 26.698 99.64 25.0274 98.9287 25.6837C98.4033 26.1682 99.5017 28.3885 99.2054 28.647C98.909 28.9055 102.31 27.0887 101.834 26.9566Z" fill="#A8443E"/>
<path opacity="0.95" fill-rule="evenodd" clip-rule="evenodd" d="M97.5656 33.5526C97.4393 33.6709 97.5089 34.5931 97.6276 34.9586C97.7462 35.3241 97.9936 35.6372 98.0749 35.5777C98.152 35.5214 98.172 35.0451 98.0897 34.6774C98.0056 34.3048 97.9816 33.6642 97.8662 33.6224C97.7532 33.5813 97.6881 33.4378 97.5656 33.5526L97.5656 33.5526ZM98.4881 34.2903C98.3582 34.3792 98.3276 35.0132 98.3688 35.3872C98.4219 35.8016 98.7345 36.3785 99.0185 36.4493C99.3025 36.5198 99.3676 36.4284 99.305 36.0133C99.242 35.5986 99.0744 35.1839 99.0466 34.9165C99.0185 34.6494 99.0385 34.5361 98.8647 34.4107C98.6905 34.285 98.6176 34.2014 98.4881 34.2903Z" fill="#A73C39"/>
<path fill-rule="evenodd" clip-rule="evenodd" d="M107.679 24.9977C106.095 25.0026 104.52 25.6019 103.758 26.0758C103.793 26.2025 104.363 26.3701 104.521 26.3601C106.134 25.8555 107.606 25.2307 109.125 25.3664C109.092 25.2842 108.991 25.1995 108.86 25.1184C108.474 25.0334 108.076 24.9966 107.679 24.9977Z" fill="#DE8787"/>
<path opacity="0.75" fill-rule="evenodd" clip-rule="evenodd" d="M108.013 25.321C106.693 25.332 105.459 25.7135 104.255 26.317C104.366 26.3456 104.466 26.3633 104.52 26.3602C105.974 25.9051 107.314 25.3518 108.678 25.3476C108.454 25.3281 108.232 25.3189 108.013 25.321V25.321Z" fill="#AA4B45"/>
<path d="M99.3625 30.7219C99.5299 30.8121 99.8042 30.625 99.9751 30.3039C100.146 29.9828 100.149 29.6493 99.9813 29.5591C99.8138 29.4688 99.5395 29.656 99.3686 29.9771C99.1978 30.2982 99.195 30.6316 99.3625 30.7219Z" fill="white"/>
<path d="M99.9277 30.1127C99.8777 30.3167 99.5707 30.5475 99.4032 30.4572C99.2358 30.367 99.2421 29.9723 99.387 29.8157C99.4703 29.7256 99.5862 29.7084 99.7537 29.7987C99.9211 29.8889 99.9562 29.9964 99.9277 30.1128L99.9277 30.1127Z" fill="#2B1100"/>
<path d="M101.661 31.9098C101.852 32.0127 102.164 31.7994 102.359 31.4335C102.554 31.0675 102.557 30.6875 102.366 30.5847C102.175 30.4818 101.863 30.6951 101.668 31.061C101.473 31.4269 101.47 31.807 101.661 31.9098Z" fill="white"/>
<path d="M102.299 31.2526C102.242 31.485 101.892 31.748 101.702 31.6452C101.511 31.5423 101.518 31.0925 101.683 30.9141C101.778 30.8114 101.91 30.7918 102.101 30.8947C102.292 30.9975 102.332 31.12 102.299 31.2526H102.299Z" fill="#2B1100"/>
<path d="M106.265 25.4843C107.432 25.4843 108.377 24.4834 108.377 23.2486C108.377 22.0139 107.432 21.0129 106.265 21.0129C105.099 21.0129 104.153 22.0139 104.153 23.2486C104.153 24.4834 105.099 25.4843 106.265 25.4843Z" fill="#F5D558"/>
<path d="M106.265 24.8787C107.16 24.8787 107.885 24.1489 107.885 23.2486C107.885 22.3483 107.16 21.6185 106.265 21.6185C105.371 21.6185 104.645 22.3483 104.645 23.2486C104.645 24.1489 105.371 24.8787 106.265 24.8787Z" fill="#CBC4AC"/>
<path d="M104.983 23.023C105.837 23.023 106.53 22.3262 106.53 21.4668C106.53 20.6073 105.837 19.9106 104.983 19.9106C104.129 19.9106 103.437 20.6073 103.437 21.4668C103.437 22.3262 104.129 23.023 104.983 23.023Z" fill="#FFCC00"/>
<path d="M51.8165 29.23L4.00629 29.4916L4.06145 37.5544L51.8717 37.2928L51.8165 29.23Z" fill="#FF6600"/>
<path d="M28.2789 1.86777L4.00995 2.0163L4.0461 10.0792L28.315 9.93068L28.2789 1.86777Z" fill="#FF0066"/>
<path d="M7.57759 6.19646C6.95256 6.0168 6.49707 5.79664 6.21112 5.536C5.92771 5.27283 5.786 4.94893 5.786 4.56429C5.786 4.12905 5.95934 3.76972 6.30602 3.4863C6.65523 3.20036 7.10818 3.05739 7.66489 3.05739C8.04447 3.05739 8.38229 3.13077 8.67835 3.27754C8.97695 3.42431 9.20723 3.62675 9.36918 3.88486C9.53366 4.14297 9.6159 4.42512 9.6159 4.73131H8.88332C8.88332 4.39728 8.77704 4.13537 8.56448 3.94559C8.35192 3.75327 8.05206 3.65711 7.66489 3.65711C7.30556 3.65711 7.02468 3.73682 6.82224 3.89624C6.62233 4.05313 6.52238 4.27202 6.52238 4.55291C6.52238 4.77812 6.61727 4.96917 6.80706 5.12606C6.99937 5.28042 7.32454 5.42213 7.78256 5.55118C8.24311 5.68024 8.60244 5.82321 8.86055 5.9801C9.12119 6.13446 9.31351 6.31539 9.4375 6.52289C9.56403 6.73039 9.62729 6.97459 9.62729 7.25547C9.62729 7.70337 9.45268 8.0627 9.10348 8.33346C8.75427 8.60169 8.28739 8.73581 7.70285 8.73581C7.32328 8.73581 6.96901 8.66369 6.64004 8.51945C6.31108 8.37268 6.05676 8.17277 5.8771 7.91972C5.69997 7.66668 5.6114 7.37946 5.6114 7.05809H6.34398C6.34398 7.39212 6.4667 7.65655 6.71216 7.8514C6.96015 8.04372 7.29038 8.13988 7.70285 8.13988C8.08748 8.13988 8.38229 8.06143 8.58726 7.90454C8.79223 7.74765 8.89471 7.53382 8.89471 7.26306C8.89471 6.9923 8.79982 6.78353 8.61003 6.63677C8.42024 6.48747 8.0761 6.3407 7.57759 6.19646ZM12.1021 8.16265C12.3526 8.16265 12.5715 8.08674 12.7588 7.93491C12.946 7.78308 13.0498 7.59329 13.07 7.36555H13.7343C13.7216 7.60088 13.6406 7.82483 13.4913 8.03739C13.342 8.24995 13.1421 8.4195 12.8916 8.54602C12.6436 8.67255 12.3805 8.73581 12.1021 8.73581C11.5429 8.73581 11.0975 8.54982 10.766 8.17783C10.437 7.80332 10.2726 7.29216 10.2726 6.64436V6.52669C10.2726 6.12687 10.3459 5.77134 10.4927 5.46009C10.6395 5.14884 10.8495 4.90717 11.1228 4.7351C11.3986 4.56303 11.7238 4.47699 12.0983 4.47699C12.5589 4.47699 12.941 4.6149 13.2446 4.89073C13.5508 5.16655 13.714 5.52461 13.7343 5.96492H13.07C13.0498 5.69922 12.9486 5.4816 12.7664 5.31205C12.5867 5.13998 12.364 5.05394 12.0983 5.05394C11.7415 5.05394 11.4644 5.183 11.267 5.44111C11.0722 5.69669 10.9748 6.0674 10.9748 6.55326V6.68611C10.9748 7.15931 11.0722 7.5237 11.267 7.77928C11.4619 8.03486 11.7402 8.16265 12.1021 8.16265ZM16.2281 8.73581C15.6714 8.73581 15.2184 8.55361 14.8692 8.18922C14.52 7.8223 14.3454 7.33265 14.3454 6.72027V6.59122C14.3454 6.18381 14.4226 5.82068 14.5769 5.50184C14.7338 5.18047 14.9514 4.92995 15.2298 4.75028C15.5107 4.56809 15.8143 4.47699 16.1408 4.47699C16.6747 4.47699 17.0897 4.65286 17.3858 5.0046C17.6818 5.35634 17.8299 5.8599 17.8299 6.5153V6.80757H15.0476C15.0577 7.21245 15.1754 7.54015 15.4006 7.79067C15.6283 8.03866 15.9168 8.16265 16.266 8.16265C16.514 8.16265 16.7241 8.11204 16.8961 8.01082C17.0682 7.9096 17.2188 7.77549 17.3478 7.60847L17.7767 7.9425C17.4326 8.47137 16.9164 8.73581 16.2281 8.73581ZM16.1408 5.05394C15.8574 5.05394 15.6195 5.15769 15.4272 5.36519C15.2349 5.57016 15.1159 5.85864 15.0704 6.23062H17.1277V6.17748C17.1074 5.82068 17.0113 5.54486 16.8392 5.35001C16.6671 5.15263 16.4343 5.05394 16.1408 5.05394ZM19.4089 8.65989H18.7067V2.82964H19.4089V8.65989ZM21.489 3.55842V4.55291H22.2557V5.0957H21.489V7.64264C21.489 7.80712 21.5231 7.93111 21.5915 8.01462C21.6598 8.09559 21.7762 8.13608 21.9407 8.13608C22.0216 8.13608 22.133 8.1209 22.2747 8.09053V8.65989C22.09 8.7105 21.9103 8.73581 21.7357 8.73581C21.4219 8.73581 21.1853 8.64091 21.0259 8.45113C20.8665 8.26134 20.7868 7.99184 20.7868 7.64264V5.0957H20.039V4.55291H20.7868V3.55842H21.489ZM24.7837 8.73581C24.227 8.73581 23.774 8.55361 23.4248 8.18922C23.0756 7.8223 22.901 7.33265 22.901 6.72027V6.59122C22.901 6.18381 22.9782 5.82068 23.1325 5.50184C23.2894 5.18047 23.507 4.92995 23.7854 4.75028C24.0663 4.56809 24.3699 4.47699 24.6964 4.47699C25.2303 4.47699 25.6453 4.65286 25.9414 5.0046C26.2374 5.35634 26.3855 5.8599 26.3855 6.5153V6.80757H23.6032C23.6133 7.21245 23.731 7.54015 23.9562 7.79067C24.1839 8.03866 24.4724 8.16265 24.8216 8.16265C25.0696 8.16265 25.2796 8.11204 25.4517 8.01082C25.6238 7.9096 25.7744 7.77549 25.9034 7.60847L26.3323 7.9425C25.9882 8.47137 25.472 8.73581 24.7837 8.73581ZM24.6964 5.05394C24.4129 5.05394 24.1751 5.15769 23.9828 5.36519C23.7904 5.57016 23.6715 5.85864 23.626 6.23062H25.6833V6.17748C25.663 5.82068 25.5669 5.54486 25.3948 5.35001C25.2227 5.15263 24.9899 5.05394 24.6964 5.05394ZM31.6653 8.65989C31.6249 8.57892 31.592 8.43468 31.5666 8.22718C31.2402 8.56627 30.8505 8.73581 30.3976 8.73581C29.9927 8.73581 29.6599 8.62194 29.3993 8.39419C29.1412 8.16392 29.0121 7.87291 29.0121 7.52117C29.0121 7.09352 29.1741 6.76202 29.498 6.52669C29.8244 6.28882 30.2824 6.16989 30.872 6.16989H31.5553V5.84725C31.5553 5.60179 31.4819 5.40695 31.3351 5.26271C31.1883 5.11594 30.972 5.04256 30.686 5.04256C30.4355 5.04256 30.2255 5.10582 30.0559 5.23234C29.8864 5.35887 29.8016 5.51196 29.8016 5.69163H29.0956C29.0956 5.48666 29.1677 5.28928 29.312 5.09949C29.4587 4.90717 29.6561 4.75535 29.9041 4.644C30.1546 4.53266 30.4292 4.47699 30.7278 4.47699C31.201 4.47699 31.5717 4.59592 31.8399 4.83379C32.1082 5.06913 32.2474 5.39429 32.2575 5.80929V7.69957C32.2575 8.07662 32.3056 8.37648 32.4017 8.59916V8.65989H31.6653ZM30.5 8.12469C30.7202 8.12469 30.929 8.06776 31.1263 7.95389C31.3237 7.84001 31.4667 7.69198 31.5553 7.50979V6.66713H31.0049C30.1445 6.66713 29.7143 6.91892 29.7143 7.42248C29.7143 7.64264 29.7877 7.81471 29.9345 7.9387C30.0813 8.0627 30.2698 8.12469 30.5 8.12469ZM34.1212 8.65989H33.419V2.82964H34.1212V8.65989ZM36.0115 8.65989H35.3092V4.55291H36.0115V8.65989ZM35.2523 3.46353C35.2523 3.34966 35.2865 3.2535 35.3548 3.17505C35.4256 3.09661 35.5294 3.05739 35.666 3.05739C35.8027 3.05739 35.9064 3.09661 35.9773 3.17505C36.0481 3.2535 36.0836 3.34966 36.0836 3.46353C36.0836 3.5774 36.0481 3.67229 35.9773 3.74821C35.9064 3.82412 35.8027 3.86208 35.666 3.86208C35.5294 3.86208 35.4256 3.82412 35.3548 3.74821C35.2865 3.67229 35.2523 3.5774 35.2523 3.46353ZM37.7992 4.55291L37.8182 5.00839C38.1194 4.65413 38.5255 4.47699 39.0367 4.47699C39.6111 4.47699 40.002 4.69714 40.2095 5.13745C40.3462 4.94007 40.5233 4.78065 40.7409 4.65919C40.9611 4.53772 41.2205 4.47699 41.5191 4.47699C42.4199 4.47699 42.8779 4.95399 42.8931 5.90798V8.65989H42.1909V5.94974C42.1909 5.6562 42.1239 5.43731 41.9897 5.29307C41.8556 5.14631 41.6304 5.07292 41.3141 5.07292C41.0535 5.07292 40.8371 5.15137 40.665 5.30826C40.493 5.46262 40.393 5.67138 40.3652 5.93455V8.65989H39.6592V5.96872C39.6592 5.37152 39.3669 5.07292 38.7823 5.07292C38.3218 5.07292 38.0067 5.26903 37.8372 5.66126V8.65989H37.135V4.55291H37.7992ZM45.6602 8.73581C45.1035 8.73581 44.6506 8.55361 44.3013 8.18922C43.9521 7.8223 43.7775 7.33265 43.7775 6.72027V6.59122C43.7775 6.18381 43.8547 5.82068 44.0091 5.50184C44.166 5.18047 44.3836 4.92995 44.6619 4.75028C44.9428 4.56809 45.2465 4.47699 45.5729 4.47699C46.1069 4.47699 46.5219 4.65286 46.8179 5.0046C47.114 5.35634 47.262 5.8599 47.262 6.5153V6.80757H44.4797C44.4899 7.21245 44.6075 7.54015 44.8328 7.79067C45.0605 8.03866 45.349 8.16265 45.6982 8.16265C45.9462 8.16265 46.1562 8.11204 46.3283 8.01082C46.5003 7.9096 46.6509 7.77549 46.78 7.60847L47.2089 7.9425C46.8647 8.47137 46.3485 8.73581 45.6602 8.73581ZM45.5729 5.05394C45.2895 5.05394 45.0516 5.15769 44.8593 5.36519C44.667 5.57016 44.5481 5.85864 44.5025 6.23062H46.5598V6.17748C46.5396 5.82068 46.4434 5.54486 46.2713 5.35001C46.0993 5.15263 45.8665 5.05394 45.5729 5.05394ZM48.7424 4.55291L48.7651 5.06913C49.0789 4.67437 49.4889 4.47699 49.995 4.47699C50.8629 4.47699 51.3007 4.96664 51.3083 5.94594V8.65989H50.6061V5.94215C50.6035 5.64608 50.5352 5.42719 50.4011 5.28548C50.2695 5.14378 50.0633 5.07292 49.7824 5.07292C49.5546 5.07292 49.3547 5.13365 49.1827 5.25512C49.0106 5.37658 48.8765 5.536 48.7803 5.73338V8.65989H48.0781V4.55291H48.7424ZM53.32 3.55842V4.55291H54.0868V5.0957H53.32V7.64264C53.32 7.80712 53.3542 7.93111 53.4225 8.01462C53.4908 8.09559 53.6072 8.13608 53.7717 8.13608C53.8527 8.13608 53.964 8.1209 54.1057 8.09053V8.65989C53.921 8.7105 53.7413 8.73581 53.5667 8.73581C53.253 8.73581 53.0164 8.64091 52.8569 8.45113C52.6975 8.26134 52.6178 7.99184 52.6178 7.64264V5.0957H51.87V4.55291H52.6178V3.55842H53.32ZM57.446 8.65989C57.4055 8.57892 57.3726 8.43468 57.3473 8.22718C57.0209 8.56627 56.6312 8.73581 56.1782 8.73581C55.7733 8.73581 55.4406 8.62194 55.1799 8.39419C54.9218 8.16392 54.7928 7.87291 54.7928 7.52117C54.7928 7.09352 54.9547 6.76202 55.2786 6.52669C55.6051 6.28882 56.0631 6.16989 56.6527 6.16989H57.3359V5.84725C57.3359 5.60179 57.2625 5.40695 57.1158 5.26271C56.969 5.11594 56.7526 5.04256 56.4667 5.04256C56.2162 5.04256 56.0061 5.10582 55.8366 5.23234C55.6671 5.35887 55.5823 5.51196 55.5823 5.69163H54.8763C54.8763 5.48666 54.9484 5.28928 55.0926 5.09949C55.2394 4.90717 55.4368 4.75535 55.6848 4.644C55.9353 4.53266 56.2098 4.47699 56.5084 4.47699C56.9816 4.47699 57.3524 4.59592 57.6206 4.83379C57.8888 5.06913 58.028 5.39429 58.0381 5.80929V7.69957C58.0381 8.07662 58.0862 8.37648 58.1824 8.59916V8.65989H57.446ZM56.2807 8.12469C56.5008 8.12469 56.7096 8.06776 56.907 7.95389C57.1044 7.84001 57.2473 7.69198 57.3359 7.50979V6.66713H56.7855C55.9252 6.66713 55.495 6.91892 55.495 7.42248C55.495 7.64264 55.5684 7.81471 55.7151 7.9387C55.8619 8.0627 56.0504 8.12469 56.2807 8.12469ZM61.1241 5.183C61.0178 5.16528 60.9026 5.15643 60.7786 5.15643C60.3181 5.15643 60.0056 5.35254 59.8411 5.74477V8.65989H59.1389V4.55291H59.8221L59.8335 5.02737C60.0638 4.66045 60.3902 4.47699 60.8128 4.47699C60.9494 4.47699 61.0532 4.4947 61.1241 4.53013V5.183ZM62.5361 8.65989H61.8339V4.55291H62.5361V8.65989ZM61.7769 3.46353C61.7769 3.34966 61.8111 3.2535 61.8794 3.17505C61.9503 3.09661 62.054 3.05739 62.1907 3.05739C62.3273 3.05739 62.4311 3.09661 62.5019 3.17505C62.5728 3.2535 62.6082 3.34966 62.6082 3.46353C62.6082 3.5774 62.5728 3.67229 62.5019 3.74821C62.4311 3.82412 62.3273 3.86208 62.1907 3.86208C62.054 3.86208 61.9503 3.82412 61.8794 3.74821C61.8111 3.67229 61.7769 3.5774 61.7769 3.46353ZM6.4996 13.5487L6.51858 14.0042C6.81971 13.65 7.22585 13.4728 7.73701 13.4728C8.31143 13.4728 8.70239 13.693 8.90989 14.1333C9.04654 13.9359 9.22367 13.7765 9.4413 13.655C9.66145 13.5336 9.92083 13.4728 10.2194 13.4728C11.1203 13.4728 11.5783 13.9498 11.5935 14.9038V17.6557H10.8913V14.9456C10.8913 14.652 10.8242 14.4331 10.6901 14.2889C10.556 14.1421 10.3308 14.0688 10.0145 14.0688C9.75381 14.0688 9.53746 14.1472 9.36538 14.3041C9.19331 14.4585 9.09335 14.6672 9.06552 14.9304V17.6557H8.35951V14.9645C8.35951 14.3674 8.06724 14.0688 7.4827 14.0688C7.02215 14.0688 6.7071 14.2649 6.53756 14.6571V17.6557H5.83535V13.5487H6.4996ZM13.4192 17.6557H12.717V13.5487H13.4192V17.6557ZM12.6601 12.4594C12.6601 12.3455 12.6942 12.2493 12.7626 12.1709C12.8334 12.0924 12.9372 12.0532 13.0738 12.0532C13.2105 12.0532 13.3142 12.0924 13.3851 12.1709C13.4559 12.2493 13.4913 12.3455 13.4913 12.4594C13.4913 12.5732 13.4559 12.6681 13.3851 12.744C13.3142 12.82 13.2105 12.8579 13.0738 12.8579C12.9372 12.8579 12.8334 12.82 12.7626 12.744C12.6942 12.6681 12.6601 12.5732 12.6601 12.4594ZM14.3796 15.5681C14.3796 14.9279 14.5276 14.4192 14.8237 14.0422C15.1197 13.6626 15.5119 13.4728 16.0003 13.4728C16.5014 13.4728 16.8923 13.65 17.1732 14.0042L17.2074 13.5487H17.8489V17.557C17.8489 18.0884 17.6907 18.5072 17.3744 18.8134C17.0606 19.1196 16.638 19.2727 16.1066 19.2727C15.8105 19.2727 15.5208 19.2094 15.2374 19.0829C14.954 18.9564 14.7376 18.7831 14.5883 18.5629L14.9527 18.1416C15.2538 18.5136 15.622 18.6996 16.0573 18.6996C16.3989 18.6996 16.6646 18.6034 16.8544 18.4111C17.0467 18.2188 17.1428 17.948 17.1428 17.5988V17.2458C16.862 17.5697 16.4786 17.7316 15.9927 17.7316C15.5119 17.7316 15.1223 17.5381 14.8237 17.1509C14.5276 16.7637 14.3796 16.2361 14.3796 15.5681ZM15.0856 15.6478C15.0856 16.1109 15.1805 16.4753 15.3702 16.741C15.56 17.0041 15.8257 17.1357 16.1673 17.1357C16.6102 17.1357 16.9353 16.9345 17.1428 16.5322V14.6571C16.9278 14.2649 16.6051 14.0688 16.1749 14.0688C15.8333 14.0688 15.5664 14.2016 15.374 14.4673C15.1817 14.733 15.0856 15.1265 15.0856 15.6478ZM19.6746 17.6557H18.9724V11.8255H19.6746V17.6557ZM21.5649 17.6557H20.8627V13.5487H21.5649V17.6557ZM20.8057 12.4594C20.8057 12.3455 20.8399 12.2493 20.9082 12.1709C20.9791 12.0924 21.0828 12.0532 21.2195 12.0532C21.3561 12.0532 21.4599 12.0924 21.5307 12.1709C21.6016 12.2493 21.637 12.3455 21.637 12.4594C21.637 12.5732 21.6016 12.6681 21.5307 12.744C21.4599 12.82 21.3561 12.8579 21.2195 12.8579C21.0828 12.8579 20.9791 12.82 20.9082 12.744C20.8399 12.6681 20.8057 12.5732 20.8057 12.4594ZM22.5062 15.5643C22.5062 15.1619 22.5847 14.8001 22.7416 14.4787C22.901 14.1573 23.1211 13.9093 23.402 13.7347C23.6854 13.5601 24.0081 13.4728 24.3699 13.4728C24.9292 13.4728 25.3809 13.6664 25.725 14.0536C26.0717 14.4407 26.245 14.9557 26.245 15.5984V15.6478C26.245 16.0476 26.1678 16.4069 26.0135 16.7258C25.8617 17.0421 25.6428 17.2888 25.3568 17.4659C25.0734 17.6431 24.747 17.7316 24.3775 17.7316C23.8208 17.7316 23.3691 17.5381 23.0224 17.1509C22.6783 16.7637 22.5062 16.2513 22.5062 15.6136V15.5643ZM23.2122 15.6478C23.2122 16.1033 23.3172 16.4689 23.5273 16.7447C23.7398 17.0206 24.0233 17.1585 24.3775 17.1585C24.7343 17.1585 25.0177 17.0193 25.2278 16.741C25.4378 16.4601 25.5428 16.0678 25.5428 15.5643C25.5428 15.1138 25.4353 14.7495 25.2202 14.4711C25.0076 14.1902 24.7242 14.0498 24.3699 14.0498C24.0233 14.0498 23.7436 14.1877 23.5311 14.4635C23.3185 14.7393 23.2122 15.1341 23.2122 15.6478ZM29.1108 14.1788C29.0045 14.1611 28.8894 14.1523 28.7654 14.1523C28.3048 14.1523 27.9923 14.3484 27.8278 14.7406V17.6557H27.1256V13.5487H27.8089L27.8203 14.0232C28.0505 13.6563 28.377 13.4728 28.7996 13.4728C28.9362 13.4728 29.04 13.4905 29.1108 13.526V14.1788ZM30.5228 17.6557H29.8206V13.5487H30.5228V17.6557ZM29.7637 12.4594C29.7637 12.3455 29.7978 12.2493 29.8662 12.1709C29.937 12.0924 30.0408 12.0532 30.1774 12.0532C30.3141 12.0532 30.4178 12.0924 30.4887 12.1709C30.5595 12.2493 30.5949 12.3455 30.5949 12.4594C30.5949 12.5732 30.5595 12.6681 30.4887 12.744C30.4178 12.82 30.3141 12.8579 30.1774 12.8579C30.0408 12.8579 29.937 12.82 29.8662 12.744C29.7978 12.6681 29.7637 12.5732 29.7637 12.4594ZM35.2827 17.7316C34.726 17.7316 34.273 17.5494 33.9238 17.1851C33.5746 16.8181 33.4 16.3285 33.4 15.7161V15.587C33.4 15.1796 33.4772 14.8165 33.6315 14.4977C33.7884 14.1763 34.006 13.9258 34.2844 13.7461C34.5653 13.5639 34.8689 13.4728 35.1954 13.4728C35.7293 13.4728 36.1443 13.6487 36.4404 14.0004C36.7364 14.3522 36.8845 14.8557 36.8845 15.5111V15.8034H34.1022C34.1123 16.2083 34.23 16.536 34.4552 16.7865C34.6829 17.0345 34.9714 17.1585 35.3206 17.1585C35.5686 17.1585 35.7787 17.1079 35.9507 17.0067C36.1228 16.9054 36.2734 16.7713 36.4024 16.6043L36.8313 16.9383C36.4872 17.4672 35.971 17.7316 35.2827 17.7316ZM35.1954 14.0498C34.912 14.0498 34.6741 14.1535 34.4818 14.361C34.2895 14.566 34.1705 14.8545 34.125 15.2265H36.1823V15.1733C36.162 14.8165 36.0659 14.5407 35.8938 14.3458C35.7217 14.1485 35.4889 14.0498 35.1954 14.0498ZM43.0981 15.6478C43.0981 16.2728 42.9551 16.7764 42.6692 17.1585C42.3832 17.5406 41.9961 17.7316 41.5077 17.7316C41.0092 17.7316 40.617 17.5735 40.331 17.2572V19.2348H39.6288V13.5487H40.2703L40.3044 14.0042C40.5904 13.65 40.9877 13.4728 41.4963 13.4728C41.9897 13.4728 42.3794 13.6588 42.6654 14.0308C42.9539 14.4028 43.0981 14.9203 43.0981 15.5833V15.6478ZM42.3959 15.5681C42.3959 15.105 42.2972 14.7393 42.0998 14.4711C41.9024 14.2029 41.6317 14.0688 41.2875 14.0688C40.8624 14.0688 40.5436 14.2573 40.331 14.6343V16.5967C40.541 16.9712 40.8624 17.1585 41.2951 17.1585C41.6317 17.1585 41.8986 17.0256 42.096 16.7599C42.2959 16.4917 42.3959 16.0944 42.3959 15.5681ZM44.7568 17.6557H44.0546V13.5487H44.7568V17.6557ZM43.9977 12.4594C43.9977 12.3455 44.0319 12.2493 44.1002 12.1709C44.171 12.0924 44.2748 12.0532 44.4114 12.0532C44.5481 12.0532 44.6518 12.0924 44.7227 12.1709C44.7935 12.2493 44.829 12.3455 44.829 12.4594C44.829 12.5732 44.7935 12.6681 44.7227 12.744C44.6518 12.82 44.5481 12.8579 44.4114 12.8579C44.2748 12.8579 44.171 12.82 44.1002 12.744C44.0319 12.6681 43.9977 12.5732 43.9977 12.4594ZM48.4197 17.2496C48.1464 17.571 47.7453 17.7316 47.2165 17.7316C46.7787 17.7316 46.4447 17.6051 46.2144 17.3521C45.9867 17.0965 45.8715 16.7194 45.869 16.2209V13.5487H46.5712V16.202C46.5712 16.8245 46.8242 17.1357 47.3303 17.1357C47.8668 17.1357 48.2236 16.9358 48.4007 16.536V13.5487H49.103V17.6557H48.4349L48.4197 17.2496ZM47.9073 12.9414H47.3038L46.3245 11.8255H47.1709L47.9073 12.9414ZM52.447 17.6557V14.0915H51.7979V13.5487H52.447V13.1274C52.447 12.6871 52.5647 12.3468 52.8 12.1064C53.0353 11.866 53.3681 11.7458 53.7983 11.7458C53.9602 11.7458 54.1209 11.7673 54.2803 11.8103L54.2424 12.3797C54.1234 12.3569 53.9969 12.3455 53.8628 12.3455C53.6351 12.3455 53.4592 12.4125 53.3352 12.5467C53.2112 12.6782 53.1492 12.868 53.1492 13.116V13.5487H54.026V14.0915H53.1492V17.6557H52.447ZM57.3397 17.6557C57.2992 17.5748 57.2663 17.4305 57.241 17.223C56.9146 17.5621 56.5249 17.7316 56.0719 17.7316C55.667 17.7316 55.3343 17.6178 55.0736 17.39C54.8155 17.1597 54.6865 16.8687 54.6865 16.517C54.6865 16.0894 54.8484 15.7579 55.1723 15.5225C55.4988 15.2847 55.9568 15.1657 56.5464 15.1657H57.2296V14.8431C57.2296 14.5976 57.1562 14.4028 57.0095 14.2585C56.8627 14.1118 56.6463 14.0384 56.3604 14.0384C56.1099 14.0384 55.8999 14.1017 55.7303 14.2282C55.5608 14.3547 55.476 14.5078 55.476 14.6875H54.77C54.77 14.4825 54.8421 14.2851 54.9863 14.0953C55.1331 13.903 55.3305 13.7512 55.5785 13.6398C55.829 13.5285 56.1036 13.4728 56.4022 13.4728C56.8754 13.4728 57.2461 13.5918 57.5143 13.8296C57.7825 14.065 57.9217 14.3901 57.9318 14.8051V16.6954C57.9318 17.0724 57.9799 17.3723 58.0761 17.595V17.6557H57.3397ZM56.1744 17.1205C56.3946 17.1205 56.6033 17.0636 56.8007 16.9497C56.9981 16.8358 57.1411 16.6878 57.2296 16.5056V15.663H56.6792C55.8189 15.663 55.3887 15.9147 55.3887 16.4183C55.3887 16.6385 55.4621 16.8105 55.6088 16.9345C55.7556 17.0585 55.9441 17.1205 56.1744 17.1205ZM60.68 17.1585C60.9305 17.1585 61.1494 17.0826 61.3366 16.9307C61.5239 16.7789 61.6276 16.5891 61.6479 16.3614H62.3121C62.2995 16.5967 62.2185 16.8207 62.0692 17.0332C61.9199 17.2458 61.72 17.4153 61.4695 17.5419C61.2215 17.6684 60.9583 17.7316 60.68 17.7316C60.1207 17.7316 59.6753 17.5456 59.3439 17.1737C59.0149 16.7992 58.8504 16.288 58.8504 15.6402V15.5225C58.8504 15.1227 58.9238 14.7672 59.0706 14.4559C59.2173 14.1447 59.4274 13.903 59.7007 13.7309C59.9765 13.5589 60.3016 13.4728 60.6762 13.4728C61.1367 13.4728 61.5188 13.6107 61.8225 13.8866C62.1287 14.1624 62.2919 14.5204 62.3121 14.9608H61.6479C61.6276 14.6951 61.5264 14.4774 61.3442 14.3079C61.1645 14.1358 60.9419 14.0498 60.6762 14.0498C60.3194 14.0498 60.0423 14.1788 59.8449 14.4369C59.65 14.6925 59.5526 15.0632 59.5526 15.5491V15.6819C59.5526 16.1551 59.65 16.5195 59.8449 16.7751C60.0397 17.0307 60.3181 17.1585 60.68 17.1585ZM63.8646 17.6557H63.1624V13.5487H63.8646V17.6557ZM63.1054 12.4594C63.1054 12.3455 63.1396 12.2493 63.2079 12.1709C63.2788 12.0924 63.3825 12.0532 63.5192 12.0532C63.6558 12.0532 63.7596 12.0924 63.8304 12.1709C63.9013 12.2493 63.9367 12.3455 63.9367 12.4594C63.9367 12.5732 63.9013 12.6681 63.8304 12.744C63.7596 12.82 63.6558 12.8579 63.5192 12.8579C63.3825 12.8579 63.2788 12.82 63.2079 12.744C63.1396 12.6681 63.1054 12.5732 63.1054 12.4594ZM65.7549 17.6557H65.0526V11.8255H65.7549V17.6557ZM67.6451 17.6557H66.9429V13.5487H67.6451V17.6557ZM66.886 12.4594C66.886 12.3455 66.9201 12.2493 66.9885 12.1709C67.0593 12.0924 67.1631 12.0532 67.2997 12.0532C67.4364 12.0532 67.5401 12.0924 67.611 12.1709C67.6818 12.2493 67.7172 12.3455 67.7172 12.4594C67.7172 12.5732 67.6818 12.6681 67.611 12.744C67.5401 12.82 67.4364 12.8579 67.2997 12.8579C67.1631 12.8579 67.0593 12.82 66.9885 12.744C66.9201 12.6681 66.886 12.5732 66.886 12.4594ZM8.23046 25.5622C8.23046 25.3724 8.15834 25.2256 8.0141 25.1219C7.87239 25.0156 7.62314 24.9245 7.26634 24.8486C6.91207 24.7727 6.62992 24.6816 6.41989 24.5753C6.21239 24.469 6.05803 24.3425 5.95681 24.1957C5.85812 24.0489 5.80878 23.8743 5.80878 23.6719C5.80878 23.3354 5.95048 23.0507 6.2339 22.8179C6.51984 22.5851 6.88424 22.4687 7.32707 22.4687C7.79268 22.4687 8.16973 22.5889 8.4582 22.8293C8.74921 23.0696 8.89471 23.3771 8.89471 23.7516H8.1887C8.1887 23.5593 8.10646 23.3936 7.94198 23.2544C7.78003 23.1152 7.57506 23.0456 7.32707 23.0456C7.07149 23.0456 6.87158 23.1013 6.72734 23.2126C6.58311 23.324 6.51099 23.4695 6.51099 23.6491C6.51099 23.8187 6.57805 23.9465 6.71216 24.0325C6.84628 24.1185 7.08794 24.2008 7.43715 24.2792C7.78889 24.3577 8.07357 24.4513 8.29119 24.5601C8.50881 24.6689 8.6695 24.8005 8.77325 24.9549C8.87953 25.1067 8.93267 25.2927 8.93267 25.5128C8.93267 25.8798 8.7859 26.1746 8.49236 26.3972C8.19883 26.6174 7.81799 26.7275 7.34985 26.7275C7.02088 26.7275 6.72988 26.6693 6.47683 26.5529C6.22378 26.4365 6.02513 26.2745 5.8809 26.067C5.73919 25.857 5.66833 25.6305 5.66833 25.3876H6.37055C6.3832 25.6229 6.47683 25.8102 6.65143 25.9493C6.82856 26.086 7.06137 26.1543 7.34985 26.1543C7.61555 26.1543 7.82811 26.1012 7.98753 25.9949C8.14948 25.8861 8.23046 25.7418 8.23046 25.5622ZM11.5517 26.7275C10.995 26.7275 10.5421 26.5453 10.1929 26.1809C9.84365 25.814 9.66904 25.3243 9.66904 24.7119V24.5829C9.66904 24.1755 9.74622 23.8123 9.90058 23.4935C10.0575 23.1721 10.2751 22.9216 10.5534 22.7419C10.8343 22.5598 11.138 22.4687 11.4644 22.4687C11.9984 22.4687 12.4134 22.6445 12.7094 22.9963C13.0055 23.348 13.1535 23.8516 13.1535 24.507V24.7992H10.3713C10.3814 25.2041 10.499 25.5318 10.7243 25.7823C10.952 26.0303 11.2405 26.1543 11.5897 26.1543C11.8377 26.1543 12.0477 26.1037 12.2198 26.0025C12.3918 25.9013 12.5424 25.7672 12.6715 25.6001L13.1004 25.9342C12.7562 26.463 12.24 26.7275 11.5517 26.7275ZM11.4644 23.0456C11.181 23.0456 10.9431 23.1494 10.7508 23.3569C10.5585 23.5618 10.4396 23.8503 10.394 24.2223H12.4513V24.1691C12.4311 23.8123 12.3349 23.5365 12.1628 23.3417C11.9908 23.1443 11.758 23.0456 11.4644 23.0456ZM15.617 26.1543C15.8675 26.1543 16.0864 26.0784 16.2736 25.9266C16.4609 25.7747 16.5646 25.585 16.5849 25.3572H17.2491C17.2365 25.5925 17.1555 25.8165 17.0062 26.0291C16.8569 26.2416 16.657 26.4112 16.4065 26.5377C16.1585 26.6642 15.8953 26.7275 15.617 26.7275C15.0577 26.7275 14.6124 26.5415 14.2809 26.1695C13.9519 25.795 13.7874 25.2838 13.7874 24.636V24.5184C13.7874 24.1185 13.8608 23.763 14.0076 23.4518C14.1543 23.1405 14.3644 22.8988 14.6377 22.7268C14.9135 22.5547 15.2387 22.4687 15.6132 22.4687C16.0737 22.4687 16.4558 22.6066 16.7595 22.8824C17.0657 23.1582 17.2289 23.5163 17.2491 23.9566H16.5849C16.5646 23.6909 16.4634 23.4733 16.2812 23.3037C16.1016 23.1316 15.8789 23.0456 15.6132 23.0456C15.2564 23.0456 14.9793 23.1747 14.7819 23.4328C14.5871 23.6884 14.4896 24.0591 14.4896 24.5449V24.6778C14.4896 25.151 14.5871 25.5154 14.7819 25.7709C14.9767 26.0265 15.2551 26.1543 15.617 26.1543ZM17.8527 24.5601C17.8527 24.1578 17.9311 23.7959 18.088 23.4745C18.2474 23.1532 18.4676 22.9052 18.7484 22.7306C19.0319 22.556 19.3545 22.4687 19.7164 22.4687C20.2756 22.4687 20.7273 22.6622 21.0714 23.0494C21.4181 23.4366 21.5915 23.9515 21.5915 24.5943V24.6436C21.5915 25.0434 21.5143 25.4028 21.3599 25.7216C21.2081 26.0379 20.9892 26.2846 20.7032 26.4618C20.4198 26.6389 20.0934 26.7275 19.7239 26.7275C19.1672 26.7275 18.7155 26.5339 18.3689 26.1467C18.0247 25.7596 17.8527 25.2471 17.8527 24.6095V24.5601ZM18.5587 24.6436C18.5587 25.0991 18.6637 25.4648 18.8737 25.7406C19.0863 26.0164 19.3697 26.1543 19.7239 26.1543C20.0807 26.1543 20.3642 26.0151 20.5742 25.7368C20.7842 25.4559 20.8892 25.0637 20.8892 24.5601C20.8892 24.1097 20.7817 23.7453 20.5666 23.4669C20.354 23.1861 20.0706 23.0456 19.7164 23.0456C19.3697 23.0456 19.0901 23.1835 18.8775 23.4593C18.6649 23.7352 18.5587 24.1299 18.5587 24.6436ZM23.1363 22.5446L23.1591 23.0608C23.4729 22.666 23.8828 22.4687 24.3889 22.4687C25.2569 22.4687 25.6946 22.9583 25.7022 23.9376V26.6516H25V23.9338C24.9975 23.6377 24.9292 23.4189 24.7951 23.2771C24.6635 23.1354 24.4572 23.0646 24.1763 23.0646C23.9486 23.0646 23.7487 23.1253 23.5766 23.2468C23.4045 23.3682 23.2704 23.5277 23.1743 23.725V26.6516H22.4721V22.5446H23.1363ZM26.5904 24.5639C26.5904 23.9338 26.7397 23.4277 27.0383 23.0456C27.3369 22.661 27.7279 22.4687 28.2112 22.4687C28.692 22.4687 29.0728 22.6331 29.3537 22.9621V20.8213H30.0559V26.6516H29.4107L29.3765 26.2113C29.0956 26.5554 28.7047 26.7275 28.2036 26.7275C27.7279 26.7275 27.3395 26.5326 27.0383 26.1429C26.7397 25.7532 26.5904 25.2446 26.5904 24.617V24.5639ZM27.2926 24.6436C27.2926 25.1092 27.3888 25.4736 27.5811 25.7368C27.7734 26 28.0391 26.1315 28.3782 26.1315C28.8236 26.1315 29.1488 25.9316 29.3537 25.5318V23.6453C29.1437 23.2582 28.8211 23.0646 28.3858 23.0646C28.0417 23.0646 27.7734 23.1974 27.5811 23.4631C27.3888 23.7288 27.2926 24.1223 27.2926 24.6436ZM30.9631 24.5601C30.9631 24.1578 31.0416 23.7959 31.1985 23.4745C31.3579 23.1532 31.578 22.9052 31.8589 22.7306C32.1423 22.556 32.465 22.4687 32.8268 22.4687C33.3861 22.4687 33.8378 22.6622 34.1819 23.0494C34.5286 23.4366 34.7019 23.9515 34.7019 24.5943V24.6436C34.7019 25.0434 34.6247 25.4028 34.4704 25.7216C34.3186 26.0379 34.0997 26.2846 33.8137 26.4618C33.5303 26.6389 33.2039 26.7275 32.8344 26.7275C32.2777 26.7275 31.826 26.5339 31.4793 26.1467C31.1352 25.7596 30.9631 25.2471 30.9631 24.6095V24.5601ZM31.6691 24.6436C31.6691 25.0991 31.7741 25.4648 31.9842 25.7406C32.1967 26.0164 32.4802 26.1543 32.8344 26.1543C33.1912 26.1543 33.4746 26.0151 33.6847 25.7368C33.8947 25.4559 33.9997 25.0637 33.9997 24.5601C33.9997 24.1097 33.8922 23.7453 33.6771 23.4669C33.4645 23.1861 33.1811 23.0456 32.8268 23.0456C32.4802 23.0456 32.2005 23.1835 31.988 23.4593C31.7754 23.7352 31.6691 24.1299 31.6691 24.6436ZM38.2737 26.6516H37.5715V22.5446H38.2737V26.6516ZM37.5146 21.4552C37.5146 21.3413 37.5487 21.2452 37.6171 21.1667C37.6879 21.0883 37.7917 21.0491 37.9283 21.0491C38.0649 21.0491 38.1687 21.0883 38.2396 21.1667C38.3104 21.2452 38.3458 21.3413 38.3458 21.4552C38.3458 21.5691 38.3104 21.664 38.2396 21.7399C38.1687 21.8158 38.0649 21.8537 37.9283 21.8537C37.7917 21.8537 37.6879 21.8158 37.6171 21.7399C37.5487 21.664 37.5146 21.5691 37.5146 21.4552ZM42.282 21.5501V22.5446H43.0488V23.0874H42.282V25.6343C42.282 25.7988 42.3162 25.9228 42.3845 26.0063C42.4528 26.0873 42.5692 26.1277 42.7337 26.1277C42.8147 26.1277 42.926 26.1126 43.0677 26.0822V26.6516C42.883 26.7022 42.7033 26.7275 42.5287 26.7275C42.215 26.7275 41.9784 26.6326 41.8189 26.4428C41.6595 26.253 41.5798 25.9835 41.5798 25.6343V23.0874H40.832V22.5446H41.5798V21.5501H42.282ZM46.408 26.2454C46.1347 26.5668 45.7336 26.7275 45.2047 26.7275C44.767 26.7275 44.4329 26.6009 44.2027 26.3479C43.9749 26.0923 43.8598 25.7153 43.8572 25.2168V22.5446H44.5595V25.1978C44.5595 25.8203 44.8125 26.1315 45.3186 26.1315C45.8551 26.1315 46.2119 25.9316 46.389 25.5318V22.5446H47.0912V26.6516H46.4232L46.408 26.2454ZM47.9756 24.5601C47.9756 24.1578 48.0541 23.7959 48.211 23.4745C48.3704 23.1532 48.5905 22.9052 48.8714 22.7306C49.1548 22.556 49.4775 22.4687 49.8393 22.4687C50.3986 22.4687 50.8503 22.6622 51.1944 23.0494C51.5411 23.4366 51.7144 23.9515 51.7144 24.5943V24.6436C51.7144 25.0434 51.6372 25.4028 51.4829 25.7216C51.3311 26.0379 51.1122 26.2846 50.8262 26.4618C50.5428 26.6389 50.2164 26.7275 49.8469 26.7275C49.2902 26.7275 48.8385 26.5339 48.4918 26.1467C48.1477 25.7596 47.9756 25.2471 47.9756 24.6095V24.5601ZM48.6816 24.6436C48.6816 25.0991 48.7866 25.4648 48.9967 25.7406C49.2092 26.0164 49.4927 26.1543 49.8469 26.1543C50.2037 26.1543 50.4871 26.0151 50.6972 25.7368C50.9072 25.4559 51.0122 25.0637 51.0122 24.5601C51.0122 24.1097 50.9047 23.7453 50.6896 23.4669C50.477 23.1861 50.1936 23.0456 49.8393 23.0456C49.4927 23.0456 49.213 23.1835 49.0005 23.4593C48.7879 23.7352 48.6816 24.1299 48.6816 24.6436ZM53.358 26.6516H52.6558V22.5446H53.358V26.6516ZM52.5988 21.4552C52.5988 21.3413 52.633 21.2452 52.7013 21.1667C52.7722 21.0883 52.8759 21.0491 53.0126 21.0491C53.1492 21.0491 53.253 21.0883 53.3238 21.1667C53.3947 21.2452 53.4301 21.3413 53.4301 21.4552C53.4301 21.5691 53.3947 21.664 53.3238 21.7399C53.253 21.8158 53.1492 21.8537 53.0126 21.8537C52.8759 21.8537 52.7722 21.8158 52.7013 21.7399C52.633 21.664 52.5988 21.5691 52.5988 21.4552ZM9.30845 33.6394C9.30845 34.2645 9.16547 34.768 8.87953 35.1502C8.59358 35.5323 8.20642 35.7233 7.71803 35.7233C7.21953 35.7233 6.8273 35.5652 6.54135 35.2488V37.2264H5.83914V31.5404H6.48062L6.51478 31.9959C6.80073 31.6416 7.19802 31.4645 7.70665 31.4645C8.20009 31.4645 8.58979 31.6505 8.87573 32.0225C9.16421 32.3944 9.30845 32.9119 9.30845 33.5749V33.6394ZM8.60623 33.5597C8.60623 33.0967 8.50755 32.731 8.31017 32.4628C8.11279 32.1945 7.84203 32.0604 7.49788 32.0604C7.07276 32.0604 6.75392 32.2489 6.54135 32.626V34.5884C6.75138 34.9629 7.07276 35.1502 7.50547 35.1502C7.84203 35.1502 8.10899 35.0173 8.30637 34.7516C8.50628 34.4834 8.60623 34.0861 8.60623 33.5597ZM12.1894 32.1705C12.0831 32.1528 11.968 32.1439 11.844 32.1439C11.3834 32.1439 11.0709 32.34 10.9065 32.7323V35.6474H10.2042V31.5404H10.8875L10.8989 32.0149C11.1291 31.648 11.4556 31.4645 11.8782 31.4645C12.0148 31.4645 12.1186 31.4822 12.1894 31.5176V32.1705ZM12.5766 33.5559C12.5766 33.1536 12.655 32.7917 12.8119 32.4704C12.9713 32.149 13.1915 31.901 13.4724 31.7264C13.7558 31.5518 14.0784 31.4645 14.4403 31.4645C14.9995 31.4645 15.4512 31.6581 15.7954 32.0452C16.142 32.4324 16.3154 32.9474 16.3154 33.5901V33.6394C16.3154 34.0393 16.2382 34.3986 16.0838 34.7174C15.932 35.0337 15.7131 35.2805 15.4272 35.4576C15.1438 35.6347 14.8173 35.7233 14.4479 35.7233C13.8912 35.7233 13.4395 35.5297 13.0928 35.1426C12.7486 34.7554 12.5766 34.243 12.5766 33.6053V33.5559ZM13.2826 33.6394C13.2826 34.0949 13.3876 34.4606 13.5976 34.7364C13.8102 35.0122 14.0936 35.1502 14.4479 35.1502C14.8047 35.1502 15.0881 35.011 15.2981 34.7326C15.5082 34.4517 15.6132 34.0595 15.6132 33.5559C15.6132 33.1055 15.5056 32.7411 15.2905 32.4628C15.078 32.1819 14.7946 32.0414 14.4403 32.0414C14.0936 32.0414 13.814 32.1794 13.6014 32.4552C13.3889 32.731 13.2826 33.1258 13.2826 33.6394ZM20.6653 33.6394C20.6653 34.2645 20.5223 34.768 20.2364 35.1502C19.9504 35.5323 19.5633 35.7233 19.0749 35.7233C18.5764 35.7233 18.1841 35.5652 17.8982 35.2488V37.2264H17.196V31.5404H17.8375L17.8716 31.9959C18.1576 31.6416 18.5549 31.4645 19.0635 31.4645C19.5569 31.4645 19.9466 31.6505 20.2326 32.0225C20.5211 32.3944 20.6653 32.9119 20.6653 33.5749V33.6394ZM19.9631 33.5597C19.9631 33.0967 19.8644 32.731 19.667 32.4628C19.4696 32.1945 19.1989 32.0604 18.8547 32.0604C18.4296 32.0604 18.1108 32.2489 17.8982 32.626V34.5884C18.1082 34.9629 18.4296 35.1502 18.8623 35.1502C19.1989 35.1502 19.4658 35.0173 19.6632 34.7516C19.8631 34.4834 19.9631 34.0861 19.9631 33.5597ZM23.5463 32.1705C23.44 32.1528 23.3248 32.1439 23.2008 32.1439C22.7403 32.1439 22.4278 32.34 22.2633 32.7323V35.6474H21.5611V31.5404H22.2443L22.2557 32.0149C22.486 31.648 22.8124 31.4645 23.235 31.4645C23.3717 31.4645 23.4754 31.4822 23.5463 31.5176V32.1705ZM24.9583 35.6474H24.2561V31.5404H24.9583V35.6474ZM24.1991 30.451C24.1991 30.3372 24.2333 30.241 24.3016 30.1626C24.3725 30.0841 24.4762 30.0449 24.6129 30.0449C24.7495 30.0449 24.8533 30.0841 24.9241 30.1626C24.995 30.241 25.0304 30.3372 25.0304 30.451C25.0304 30.5649 24.995 30.6598 24.9241 30.7357C24.8533 30.8116 24.7495 30.8496 24.6129 30.8496C24.4762 30.8496 24.3725 30.8116 24.3016 30.7357C24.2333 30.6598 24.1991 30.5649 24.1991 30.451ZM29.6612 35.1502C29.9117 35.1502 30.1306 35.0742 30.3179 34.9224C30.5051 34.7706 30.6089 34.5808 30.6291 34.353H31.2934C31.2807 34.5884 31.1997 34.8123 31.0504 35.0249C30.9011 35.2375 30.7012 35.407 30.4507 35.5335C30.2027 35.66 29.9395 35.7233 29.6612 35.7233C29.102 35.7233 28.6566 35.5373 28.3251 35.1653C27.9961 34.7908 27.8316 34.2797 27.8316 33.6319V33.5142C27.8316 33.1144 27.905 32.7588 28.0518 32.4476C28.1986 32.1363 28.4086 31.8947 28.6819 31.7226C28.9577 31.5505 29.2829 31.4645 29.6574 31.4645C30.1179 31.4645 30.5 31.6024 30.8037 31.8782C31.1099 32.154 31.2731 32.5121 31.2934 32.9524H30.6291C30.6089 32.6867 30.5076 32.4691 30.3254 32.2996C30.1458 32.1275 29.9231 32.0414 29.6574 32.0414C29.3006 32.0414 29.0235 32.1705 28.8261 32.4286C28.6313 32.6842 28.5339 33.0549 28.5339 33.5408V33.6736C28.5339 34.1468 28.6313 34.5112 28.8261 34.7668C29.021 35.0224 29.2993 35.1502 29.6612 35.1502ZM34.068 32.1705C33.9618 32.1528 33.8466 32.1439 33.7226 32.1439C33.2621 32.1439 32.9496 32.34 32.7851 32.7323V35.6474H32.0829V31.5404H32.7661L32.7775 32.0149C33.0078 31.648 33.3342 31.4645 33.7568 31.4645C33.8934 31.4645 33.9972 31.4822 34.068 31.5176V32.1705ZM35.4801 35.6474H34.7778V31.5404H35.4801V35.6474ZM34.7209 30.451C34.7209 30.3372 34.7551 30.241 34.8234 30.1626C34.8942 30.0841 34.998 30.0449 35.1346 30.0449C35.2713 30.0449 35.375 30.0841 35.4459 30.1626C35.5167 30.241 35.5522 30.3372 35.5522 30.451C35.5522 30.5649 35.5167 30.6598 35.4459 30.7357C35.375 30.8116 35.2713 30.8496 35.1346 30.8496C34.998 30.8496 34.8942 30.8116 34.8234 30.7357C34.7551 30.6598 34.7209 30.5649 34.7209 30.451ZM37.5601 30.5459V31.5404H38.3269V32.0832H37.5601V34.6301C37.5601 34.7946 37.5943 34.9186 37.6626 35.0021C37.7309 35.0831 37.8473 35.1236 38.0118 35.1236C38.0928 35.1236 38.2041 35.1084 38.3458 35.078V35.6474C38.1611 35.698 37.9814 35.7233 37.8068 35.7233C37.4931 35.7233 37.2565 35.6284 37.097 35.4386C36.9376 35.2488 36.8579 34.9793 36.8579 34.6301V32.0832H36.1101V31.5404H36.8579V30.5459H37.5601ZM40.8548 35.7233C40.2981 35.7233 39.8452 35.5411 39.4959 35.1767C39.1467 34.8098 38.9721 34.3201 38.9721 33.7078V33.5787C38.9721 33.1713 39.0493 32.8082 39.2037 32.4893C39.3606 32.168 39.5782 31.9174 39.8565 31.7378C40.1374 31.5556 40.4411 31.4645 40.7675 31.4645C41.3014 31.4645 41.7165 31.6404 42.0125 31.9921C42.3086 32.3438 42.4566 32.8474 42.4566 33.5028V33.7951H39.6743C39.6845 34.2 39.8021 34.5276 40.0273 34.7782C40.2551 35.0262 40.5436 35.1502 40.8928 35.1502C41.1408 35.1502 41.3508 35.0995 41.5229 34.9983C41.6949 34.8971 41.8455 34.763 41.9746 34.596L42.4035 34.93C42.0593 35.4589 41.5431 35.7233 40.8548 35.7233ZM40.7675 32.0414C40.4841 32.0414 40.2462 32.1452 40.0539 32.3527C39.8616 32.5577 39.7427 32.8461 39.6971 33.2181H41.7544V33.165C41.7342 32.8082 41.638 32.5324 41.4659 32.3375C41.2939 32.1401 41.0611 32.0414 40.7675 32.0414ZM45.2579 32.1705C45.1516 32.1528 45.0365 32.1439 44.9125 32.1439C44.4519 32.1439 44.1394 32.34 43.9749 32.7323V35.6474H43.2727V31.5404H43.9559L43.9673 32.0149C44.1976 31.648 44.524 31.4645 44.9466 31.4645C45.0833 31.4645 45.187 31.4822 45.2579 31.5176V32.1705ZM46.6699 35.6474H45.9677V31.5404H46.6699V35.6474ZM45.9107 30.451C45.9107 30.3372 45.9449 30.241 46.0132 30.1626C46.0841 30.0841 46.1878 30.0449 46.3245 30.0449C46.4611 30.0449 46.5649 30.0841 46.6357 30.1626C46.7066 30.241 46.742 30.3372 46.742 30.451C46.742 30.5649 46.7066 30.6598 46.6357 30.7357C46.5649 30.8116 46.4611 30.8496 46.3245 30.8496C46.1878 30.8496 46.0841 30.8116 46.0132 30.7357C45.9449 30.6598 45.9107 30.5649 45.9107 30.451ZM48.6209 34.0911C48.626 33.79 48.6601 33.5521 48.7234 33.3775C48.7866 33.2029 48.9157 33.0094 49.1105 32.7968L49.6078 32.2844C49.8203 32.044 49.9266 31.7859 49.9266 31.51C49.9266 31.2443 49.857 31.0368 49.7179 30.8875C49.5787 30.7357 49.3762 30.6598 49.1105 30.6598C48.8524 30.6598 48.6449 30.7281 48.488 30.8648C48.3312 31.0014 48.2527 31.1849 48.2527 31.4151H47.5505C47.5556 31.0052 47.7011 30.675 47.987 30.4245C48.2755 30.1714 48.65 30.0449 49.1105 30.0449C49.5888 30.0449 49.9608 30.1739 50.2265 30.432C50.4947 30.6876 50.6288 31.0394 50.6288 31.4873C50.6288 31.9301 50.4239 32.3666 50.0139 32.7968L49.6002 33.2067C49.4155 33.4117 49.3231 33.7065 49.3231 34.0911H48.6209ZM48.5905 35.2944C48.5905 35.1805 48.6247 35.0856 48.693 35.0097C48.7639 34.9313 48.8676 34.892 49.0043 34.892C49.1409 34.892 49.2447 34.9313 49.3155 35.0097C49.3864 35.0856 49.4218 35.1805 49.4218 35.2944C49.4218 35.4083 49.3864 35.5032 49.3155 35.5791C49.2447 35.6525 49.1409 35.6891 49.0043 35.6891C48.8676 35.6891 48.7639 35.6525 48.693 35.5791C48.6247 35.5032 48.5905 35.4083 48.5905 35.2944Z" fill="white"/>
<path d="M201.933 26.1331H154.08C152.21 26.1331 150.693 27.6591 150.693 29.5415V34.3154C150.693 36.1977 152.21 37.7237 154.08 37.7237H201.933C203.803 37.7237 205.32 36.1977 205.32 34.3154V29.5415C205.32 27.6591 203.803 26.1331 201.933 26.1331Z" fill="#0066FF" stroke="white" stroke-width="0.264583"/>
<path d="M170.608 34.5424V28.9821H172.177C172.661 28.9821 173.089 29.089 173.46 29.3029C173.832 29.5167 174.118 29.821 174.32 30.2156C174.523 30.6102 174.626 31.0634 174.629 31.5751V31.9303C174.629 32.4548 174.527 32.9143 174.323 33.3089C174.122 33.7036 173.833 34.0065 173.457 34.2178C173.082 34.4292 172.646 34.5374 172.147 34.5424H170.608ZM171.341 29.5855V33.9429H172.112C172.677 33.9429 173.117 33.7672 173.43 33.4159C173.746 33.0645 173.903 32.5642 173.903 31.915V31.5904C173.903 30.959 173.754 30.4689 173.457 30.1201C173.161 29.7688 172.741 29.5906 172.196 29.5855H171.341ZM175.442 32.4382C175.442 32.0334 175.521 31.6693 175.679 31.346C175.84 31.0227 176.061 30.7732 176.344 30.5975C176.629 30.4218 176.953 30.334 177.317 30.334C177.88 30.334 178.335 30.5288 178.681 30.9183C179.03 31.3078 179.204 31.8259 179.204 32.4726V32.5222C179.204 32.9245 179.126 33.286 178.971 33.6068C178.818 33.9251 178.598 34.1733 178.31 34.3515C178.025 34.5297 177.697 34.6188 177.325 34.6188C176.765 34.6188 176.311 34.4241 175.962 34.0345C175.616 33.645 175.442 33.1294 175.442 32.4879V32.4382ZM176.153 32.5222C176.153 32.9805 176.258 33.3484 176.47 33.6259C176.684 33.9034 176.969 34.0422 177.325 34.0422C177.684 34.0422 177.969 33.9021 178.181 33.6221C178.392 33.3395 178.498 32.9449 178.498 32.4382C178.498 31.985 178.389 31.6184 178.173 31.3384C177.959 31.0558 177.674 30.9145 177.317 30.9145C176.969 30.9145 176.687 31.0532 176.473 31.3307C176.26 31.6082 176.153 32.0054 176.153 32.5222ZM180.758 30.4104L180.781 30.9297C181.097 30.5326 181.509 30.334 182.019 30.334C182.892 30.334 183.332 30.8266 183.34 31.8119V34.5424H182.633V31.8081C182.631 31.5102 182.562 31.29 182.427 31.1474C182.295 31.0049 182.087 30.9336 181.805 30.9336C181.576 30.9336 181.374 30.9947 181.201 31.1169C181.028 31.2391 180.893 31.3995 180.797 31.5981V34.5424H180.09V30.4104H180.758ZM186.956 34.5424C186.916 34.461 186.883 34.3159 186.857 34.1071C186.529 34.4482 186.137 34.6188 185.681 34.6188C185.274 34.6188 184.939 34.5043 184.677 34.2751C184.417 34.0434 184.287 33.7507 184.287 33.3968C184.287 32.9665 184.45 32.633 184.776 32.3962C185.104 32.1569 185.565 32.0372 186.158 32.0372H186.846V31.7126C186.846 31.4657 186.772 31.2696 186.624 31.1245C186.477 30.9768 186.259 30.903 185.971 30.903C185.719 30.903 185.508 30.9667 185.337 31.094C185.167 31.2213 185.081 31.3753 185.081 31.5561H184.371C184.371 31.3498 184.444 31.1512 184.589 30.9603C184.736 30.7668 184.935 30.614 185.184 30.502C185.437 30.39 185.713 30.334 186.013 30.334C186.489 30.334 186.862 30.4537 187.132 30.693C187.402 30.9297 187.542 31.2569 187.552 31.6744V33.5763C187.552 33.9556 187.601 34.2573 187.697 34.4813V34.5424H186.956ZM185.784 34.004C186.006 34.004 186.216 33.9467 186.414 33.8321C186.613 33.7176 186.757 33.5686 186.846 33.3853V32.5375H186.292C185.426 32.5375 184.994 32.7908 184.994 33.2975C184.994 33.519 185.067 33.6921 185.215 33.8169C185.363 33.9416 185.552 34.004 185.784 34.004Z" fill="white"/>
<path d="M170.699 21.9094C186.828 21.9094 199.903 17.3919 199.903 11.8192C199.903 6.24648 186.828 1.72891 170.699 1.72891C154.57 1.72891 141.494 6.24648 141.494 11.8192C141.494 17.3919 154.57 21.9094 170.699 21.9094Z" fill="white" stroke="black" stroke-width="0.264583"/>
<path fill-rule="evenodd" clip-rule="evenodd" d="M85.7661 20.348C80.2872 20.348 75.8956 24.7814 75.8956 30.2806V40H95.6366V30.2806C95.6366 24.7814 91.2309 20.348 85.7661 20.348Z" fill="#FF0000"/>
<path fill-rule="evenodd" clip-rule="evenodd" d="M93.2502 13.3283C93.2502 17.4918 89.8894 20.8595 85.7661 20.8595C81.6287 20.8595 78.2679 17.4918 78.2679 13.3283C78.2679 9.16489 81.6287 5.79718 85.7661 5.79718C89.8894 5.79718 93.2502 9.16489 93.2502 13.3283Z" fill="#FFCC00"/>
<path fill-rule="evenodd" clip-rule="evenodd" d="M84.1422 13.3283C84.1422 13.8967 83.6903 14.3514 83.1255 14.3514C82.5606 14.3514 82.1088 13.8967 82.1088 13.3283C82.1088 12.76 82.5606 12.3052 83.1255 12.3052C83.6903 12.3052 84.1422 12.76 84.1422 13.3283Z" fill="black"/>
<path fill-rule="evenodd" clip-rule="evenodd" d="M89.4234 13.3283C89.4234 13.8967 88.9574 14.3514 88.3926 14.3514C87.8418 14.3514 87.3759 13.8967 87.3759 13.3283C87.3759 12.76 87.8418 12.3052 88.3926 12.3052C88.9574 12.3052 89.4234 12.76 89.4234 13.3283Z" fill="black"/>
<path fill-rule="evenodd" clip-rule="evenodd" d="M83.3514 17.2644C83.9445 18.3444 84.82 18.9838 85.7661 18.9838C86.698 18.9838 87.5877 18.3444 88.1807 17.2644H83.3514Z" fill="black"/>
<path fill-rule="evenodd" clip-rule="evenodd" d="M83.4079 2.34424L81.5157 5.95351L79.101 4.94462L78.5644 9.12228L75.8673 9.98907L78.3102 13.371C79.6235 10.2164 82.5465 8.18443 85.7661 8.18443C88.9856 8.18443 91.8945 10.2306 93.2078 13.3852L95.6507 9.98907L92.9677 9.12228L92.4311 4.94462L90.0023 5.95351L88.1101 2.34424L85.7661 4.58937L83.4079 2.34424Z" fill="#802A00"/>
<path fill-rule="evenodd" clip-rule="evenodd" d="M78.0161 34.2407V40H79.5423V34.2407H78.0161ZM80.3054 34.2407V40H81.0686V34.2407H80.3054ZM81.8317 34.2407V40H82.2132V34.2407H81.8317ZM82.9763 34.2407V40H83.7395V34.2407H82.9763ZM84.8841 34.2407V40H85.6472V34.2407H84.8841ZM86.4103 34.2407V40H87.9366V34.2407H86.4103ZM89.0812 34.2407V40H89.4628V34.2407H89.0812ZM90.2259 34.2407V40H91.7521V34.2407H90.2259ZM92.5152 34.2407V40H93.2784V34.2407H92.5152Z" fill="white"/>
<path d="M78.7904 26.4149L79.7653 24.576H80.2253L79.0054 26.8275V28.2538H78.5754V26.8476L77.358 24.576H77.8229L78.7904 26.4149Z" fill="white"/>
<path d="M81.8252 28.3042C81.4203 28.3042 81.1003 28.1801 80.8653 27.9318C80.632 27.6836 80.5153 27.339 80.5153 26.8979C80.5153 26.4535 80.6236 26.1005 80.8403 25.8389C81.0586 25.5773 81.3511 25.4464 81.7178 25.4464C82.0611 25.4464 82.3327 25.5605 82.5327 25.7886C82.7327 26.015 82.8327 26.3143 82.8327 26.6866V26.9508H80.9453C80.9536 27.2744 81.0345 27.5201 81.1878 27.6878C81.3428 27.8555 81.5603 27.9394 81.8402 27.9394C82.1352 27.9394 82.4269 27.8773 82.7152 27.7532V28.1255C82.5685 28.1893 82.4294 28.2346 82.2977 28.2614C82.1677 28.2899 82.0102 28.3042 81.8252 28.3042ZM81.7128 25.7961C81.4928 25.7961 81.3169 25.8682 81.1853 26.0124C81.0553 26.1567 80.9786 26.3562 80.9553 26.6112H82.3877C82.3877 26.3479 82.3294 26.1466 82.2127 26.0074C82.0961 25.8665 81.9294 25.7961 81.7128 25.7961Z" fill="white"/>
<path d="M85.3051 27.5017C85.3051 27.7583 85.2101 27.9562 85.0201 28.0954C84.8301 28.2346 84.5634 28.3042 84.2201 28.3042C83.8568 28.3042 83.5735 28.2463 83.3702 28.1306V27.7432C83.5018 27.8103 83.6427 27.8631 83.7926 27.9017C83.9443 27.9402 84.0901 27.9595 84.2301 27.9595C84.4468 27.9595 84.6134 27.9251 84.7301 27.8564C84.8468 27.7859 84.9051 27.6794 84.9051 27.5369C84.9051 27.4296 84.8584 27.3382 84.7651 27.2627C84.6734 27.1856 84.4934 27.095 84.2251 26.991C83.9701 26.8954 83.7885 26.8124 83.6802 26.742C83.5735 26.6699 83.4935 26.5885 83.4402 26.498C83.3885 26.4074 83.3627 26.2992 83.3627 26.1734C83.3627 25.9487 83.4535 25.7718 83.6352 25.6427C83.8168 25.5118 84.066 25.4464 84.3826 25.4464C84.6776 25.4464 84.9659 25.5068 85.2476 25.6276L85.1001 25.9672C84.8251 25.8531 84.5759 25.7961 84.3526 25.7961C84.156 25.7961 84.0076 25.8271 83.9076 25.8892C83.8076 25.9512 83.7577 26.0368 83.7577 26.1458C83.7577 26.2196 83.776 26.2825 83.8126 26.3344C83.851 26.3864 83.9118 26.4359 83.9951 26.4829C84.0785 26.5298 84.2385 26.5977 84.4751 26.6866C84.8001 26.8057 85.0193 26.9256 85.1326 27.0464C85.2476 27.1671 85.3051 27.3189 85.3051 27.5017Z" fill="white"/>
<path d="M90.5078 28.3993H90.0878L89.3504 25.9365C89.3154 25.8275 89.2762 25.69 89.2329 25.524C89.1895 25.3579 89.167 25.2582 89.1654 25.2246C89.1287 25.446 89.0704 25.6883 88.9904 25.9516L88.2754 28.3993H87.8554L86.883 24.7215H87.333L87.9104 26.9931C87.9904 27.3117 88.0488 27.6002 88.0854 27.8584C88.1304 27.5515 88.1971 27.2513 88.2854 26.9579L88.9404 24.7215H89.3904L90.0778 26.978C90.1578 27.2379 90.2253 27.5314 90.2803 27.8584C90.312 27.6203 90.372 27.3302 90.4603 26.988L91.0353 24.7215H91.4853L90.5078 28.3993Z" fill="white"/>
<path d="M93.1526 28.4496C92.7477 28.4496 92.4277 28.3255 92.1927 28.0773C91.9594 27.8291 91.8427 27.4844 91.8427 27.0434C91.8427 26.599 91.951 26.2459 92.1677 25.9843C92.386 25.7227 92.6785 25.5919 93.0451 25.5919C93.3885 25.5919 93.6601 25.7059 93.8601 25.934C94.0601 26.1604 94.1601 26.4598 94.1601 26.8321V27.0962H92.2727C92.281 27.4199 92.3618 27.6656 92.5152 27.8333C92.6702 28.001 92.8877 28.0848 93.1676 28.0848C93.4626 28.0848 93.7543 28.0228 94.0426 27.8987V28.271C93.8959 28.3347 93.7568 28.38 93.6251 28.4068C93.4951 28.4353 93.3376 28.4496 93.1526 28.4496ZM93.0401 25.9416C92.8202 25.9416 92.6443 26.0137 92.5127 26.1579C92.3827 26.3021 92.306 26.5017 92.2827 26.7566H93.7151C93.7151 26.4933 93.6568 26.2921 93.5401 26.1529C93.4235 26.012 93.2568 25.9416 93.0401 25.9416Z" fill="white"/>
<path d="M80.6402 32.1942C80.6402 32.5869 80.4987 32.8931 80.2156 33.1128C79.9326 33.3325 79.5484 33.4424 79.0632 33.4424C78.5376 33.4424 78.1332 33.3742 77.8502 33.2379V32.7375C78.0321 32.8148 78.2302 32.8758 78.4446 32.9206C78.6589 32.9653 78.8711 32.9877 79.0814 32.9877C79.4251 32.9877 79.6839 32.9226 79.8578 32.7924C80.0316 32.6601 80.1186 32.477 80.1186 32.2431C80.1186 32.0885 80.0872 31.9623 80.0246 31.8647C79.9639 31.765 79.8608 31.6734 79.7152 31.59C79.5717 31.5066 79.3523 31.412 79.0571 31.3062C78.6447 31.1577 78.3495 30.9817 78.1716 30.7783C77.9957 30.5748 77.9078 30.3093 77.9078 29.9818C77.9078 29.6379 78.0362 29.3643 78.2929 29.1609C78.5497 28.9574 78.8893 28.8557 79.3119 28.8557C79.7526 28.8557 80.158 28.9371 80.528 29.0998L80.3672 29.5515C80.0013 29.3969 79.6455 29.3195 79.2998 29.3195C79.0268 29.3195 78.8135 29.3785 78.6599 29.4965C78.5062 29.6145 78.4294 29.7783 78.4294 29.9879C78.4294 30.1425 78.4577 30.2696 78.5143 30.3693C78.5709 30.467 78.6659 30.5575 78.7994 30.6409C78.9348 30.7223 79.1411 30.8128 79.418 30.9125C79.883 31.0794 80.2025 31.2584 80.3763 31.4496C80.5522 31.6409 80.6402 31.8891 80.6402 32.1942Z" fill="white"/>
<path d="M83.3073 33.4424C82.8262 33.4424 82.4532 33.2939 82.1883 32.9968C81.9255 32.6978 81.7941 32.2756 81.7941 31.7304C81.7941 31.1709 81.9275 30.7386 82.1944 30.4334C82.4633 30.1282 82.8454 29.9756 83.3407 29.9756C83.5004 29.9756 83.6601 29.9929 83.8199 30.0275C83.9796 30.0621 84.1049 30.1028 84.1959 30.1496L84.0412 30.5799C83.93 30.5351 83.8087 30.4985 83.6773 30.47C83.5459 30.4395 83.4297 30.4242 83.3286 30.4242C82.6533 30.4242 82.3157 30.8576 82.3157 31.7243C82.3157 32.1352 82.3976 32.4506 82.5613 32.6703C82.7271 32.89 82.9717 32.9999 83.2952 32.9999C83.5722 32.9999 83.8563 32.9399 84.1474 32.8198V33.2684C83.925 33.3844 83.645 33.4424 83.3073 33.4424Z" fill="white"/>
<path d="M87.6424 33.3814L87.5423 32.9053H87.5181C87.3523 33.1148 87.1865 33.2572 87.0207 33.3325C86.857 33.4058 86.6517 33.4424 86.4051 33.4424C86.0755 33.4424 85.8168 33.3569 85.6287 33.186C85.4427 33.0151 85.3497 32.772 85.3497 32.4567C85.3497 31.7812 85.8865 31.4272 86.9601 31.3947L87.5241 31.3764V31.1689C87.5241 30.9064 87.4675 30.7131 87.3543 30.589C87.2431 30.4629 87.0642 30.3998 86.8175 30.3998C86.5405 30.3998 86.2272 30.4853 85.8774 30.6562L85.7227 30.2686C85.8865 30.1791 86.0654 30.1089 86.2595 30.058C86.4556 30.0072 86.6517 29.9818 86.8479 29.9818C87.2441 29.9818 87.5373 30.0703 87.7273 30.2472C87.9194 30.4242 88.0154 30.7081 88.0154 31.0987V33.3814H87.6424ZM86.5052 33.0243C86.8185 33.0243 87.0642 32.9378 87.2421 32.7649C87.422 32.592 87.512 32.3499 87.512 32.0386V31.7365L87.0086 31.7578C86.6083 31.7721 86.3192 31.8352 86.1412 31.947C85.9654 32.0569 85.8774 32.2288 85.8774 32.4628C85.8774 32.6459 85.932 32.7853 86.0412 32.8809C86.1524 32.9765 86.307 33.0243 86.5052 33.0243Z" fill="white"/>
<path d="M91.4438 33.3814V31.2177C91.4438 30.9451 91.3821 30.7416 91.2588 30.6074C91.1355 30.4731 90.9424 30.4059 90.6796 30.4059C90.3318 30.4059 90.0771 30.5005 89.9153 30.6897C89.7536 30.879 89.6727 31.1912 89.6727 31.6266V33.3814H89.1693V30.0367H89.5787L89.6606 30.4944H89.6849C89.788 30.3296 89.9325 30.2025 90.1185 30.113C90.3045 30.0214 90.5118 29.9756 90.7402 29.9756C91.1405 29.9756 91.4418 30.0733 91.6439 30.2686C91.8461 30.4619 91.9472 30.7721 91.9472 31.1994V33.3814H91.4438Z" fill="white"/>
<path d="M93.6288 32.1515H93.3103L93.1557 28.9198H93.7834L93.6288 32.1515ZM93.1011 33.0579C93.1011 32.7812 93.2224 32.6429 93.465 32.6429C93.5823 32.6429 93.6722 32.6785 93.7349 32.7497C93.7996 32.8209 93.8319 32.9236 93.8319 33.0579C93.8319 33.1881 93.7996 33.2898 93.7349 33.3631C93.6702 33.4343 93.5802 33.4699 93.465 33.4699C93.3599 33.4699 93.2729 33.4383 93.2042 33.3753C93.1354 33.3102 93.1011 33.2044 93.1011 33.0579Z" fill="white"/>
<path d="M136.154 17.7971L148.048 11.6973L149.064 15.6425L136.154 17.7971Z" fill="white"/>
<path d="M170.699 21.9094C186.828 21.9094 199.903 17.3919 199.903 11.8192C199.903 6.24648 186.828 1.72891 170.699 1.72891C154.57 1.72891 141.494 6.24648 141.494 11.8192C141.494 17.3919 154.57 21.9094 170.699 21.9094Z" fill="white"/>
<path d="M148.442 9.8084H146.529L146.1 11H145.479L147.222 6.43429H147.749L149.496 11H148.878L148.442 9.8084ZM146.711 9.31294H148.263L147.486 7.17747L146.711 9.31294ZM152.892 9.34117C152.892 9.85962 152.773 10.2767 152.534 10.5923C152.296 10.9059 151.976 11.0627 151.575 11.0627C151.146 11.0627 150.815 10.9112 150.581 10.608L150.553 11H150.02V6.18342H150.6V7.98023C150.834 7.68965 151.157 7.54436 151.569 7.54436C151.98 7.54436 152.303 7.7001 152.538 8.01159C152.774 8.32308 152.892 8.74955 152.892 9.29099V9.34117ZM152.312 9.27531C152.312 8.88021 152.235 8.57499 152.083 8.35966C151.93 8.14434 151.711 8.03668 151.424 8.03668C151.042 8.03668 150.767 8.21437 150.6 8.56976V10.0373C150.777 10.3927 151.054 10.5704 151.431 10.5704C151.709 10.5704 151.925 10.4627 152.08 10.2474C152.234 10.0321 152.312 9.70805 152.312 9.27531ZM156.498 9.34117C156.498 9.85962 156.379 10.2767 156.141 10.5923C155.902 10.9059 155.582 11.0627 155.181 11.0627C154.752 11.0627 154.421 10.9112 154.187 10.608L154.159 11H153.626V6.18342H154.206V7.98023C154.44 7.68965 154.763 7.54436 155.175 7.54436C155.587 7.54436 155.91 7.7001 156.144 8.01159C156.38 8.32308 156.498 8.74955 156.498 9.29099V9.34117ZM155.918 9.27531C155.918 8.88021 155.842 8.57499 155.689 8.35966C155.536 8.14434 155.317 8.03668 155.031 8.03668C154.648 8.03668 154.373 8.21437 154.206 8.56976V10.0373C154.384 10.3927 154.661 10.5704 155.037 10.5704C155.315 10.5704 155.531 10.4627 155.686 10.2474C155.841 10.0321 155.918 9.70805 155.918 9.27531ZM157.862 11H157.282V7.60707H157.862V11ZM157.235 6.7071C157.235 6.61303 157.263 6.53359 157.32 6.46878C157.378 6.40398 157.464 6.37157 157.577 6.37157C157.69 6.37157 157.775 6.40398 157.834 6.46878C157.892 6.53359 157.922 6.61303 157.922 6.7071C157.922 6.80118 157.892 6.87957 157.834 6.94229C157.775 7.005 157.69 7.03636 157.577 7.03636C157.464 7.03636 157.378 7.005 157.32 6.94229C157.263 6.87957 157.235 6.80118 157.235 6.7071ZM160.888 11C160.855 10.9331 160.828 10.8139 160.807 10.6425C160.537 10.9227 160.215 11.0627 159.841 11.0627C159.506 11.0627 159.231 10.9686 159.016 10.7805C158.803 10.5903 158.696 10.3498 158.696 10.0593C158.696 9.70596 158.83 9.4321 159.098 9.23769C159.367 9.04118 159.746 8.94292 160.233 8.94292H160.797V8.67638C160.797 8.4736 160.737 8.31263 160.615 8.19347C160.494 8.07222 160.315 8.01159 160.079 8.01159C159.872 8.01159 159.699 8.06385 159.559 8.16838C159.419 8.27291 159.349 8.39938 159.349 8.54781H158.765C158.765 8.37848 158.825 8.21542 158.944 8.05863C159.065 7.89975 159.228 7.77432 159.433 7.68233C159.64 7.59035 159.867 7.54436 160.114 7.54436C160.505 7.54436 160.811 7.64261 161.032 7.83912C161.254 8.03354 161.369 8.30217 161.377 8.64502V10.2066C161.377 10.5181 161.417 10.7659 161.497 10.9498V11H160.888ZM159.926 10.5579C160.107 10.5579 160.28 10.5108 160.443 10.4167C160.606 10.3227 160.724 10.2004 160.797 10.0499V9.35371H160.343C159.632 9.35371 159.276 9.56172 159.276 9.97773C159.276 10.1596 159.337 10.3018 159.458 10.4042C159.58 10.5066 159.735 10.5579 159.926 10.5579ZM162.832 7.60707L162.848 7.98337C163.097 7.6907 163.432 7.54436 163.855 7.54436C164.329 7.54436 164.652 7.72623 164.824 8.08999C164.936 7.92692 165.083 7.79522 165.263 7.69488C165.444 7.59453 165.659 7.54436 165.905 7.54436C166.65 7.54436 167.028 7.93842 167.041 8.72655V11H166.46V8.76105C166.46 8.51854 166.405 8.33771 166.294 8.21855C166.183 8.0973 165.997 8.03668 165.736 8.03668C165.521 8.03668 165.342 8.10148 165.2 8.2311C165.058 8.35862 164.975 8.53109 164.952 8.7485V11H164.369V8.77672C164.369 8.28336 164.127 8.03668 163.645 8.03668C163.264 8.03668 163.004 8.19869 162.864 8.52273V11H162.284V7.60707H162.832ZM167.765 9.27218C167.765 8.93979 167.83 8.64084 167.959 8.37534C168.091 8.10985 168.273 7.90497 168.505 7.76073C168.739 7.61648 169.006 7.54436 169.305 7.54436C169.767 7.54436 170.14 7.70428 170.424 8.02413C170.711 8.34398 170.854 8.76941 170.854 9.3004V9.34117C170.854 9.67147 170.79 9.96832 170.662 10.2317C170.537 10.493 170.356 10.6969 170.12 10.8432C169.886 10.9895 169.616 11.0627 169.311 11.0627C168.851 11.0627 168.478 10.9028 168.191 10.5829C167.907 10.2631 167.765 9.83976 167.765 9.31294V9.27218ZM168.348 9.34117C168.348 9.71746 168.435 10.0195 168.609 10.2474C168.784 10.4753 169.018 10.5892 169.311 10.5892C169.606 10.5892 169.84 10.4742 170.013 10.2443C170.187 10.0122 170.274 9.68819 170.274 9.27218C170.274 8.90007 170.185 8.59903 170.007 8.36907C169.831 8.13702 169.597 8.021 169.305 8.021C169.018 8.021 168.787 8.13493 168.612 8.3628C168.436 8.59067 168.348 8.91679 168.348 9.34117ZM176.047 9.34117C176.047 9.85962 175.927 10.2767 175.689 10.5923C175.451 10.9059 175.131 11.0627 174.73 11.0627C174.301 11.0627 173.97 10.9112 173.736 10.608L173.707 11H173.174V6.18342H173.754V7.98023C173.988 7.68965 174.311 7.54436 174.723 7.54436C175.135 7.54436 175.458 7.7001 175.692 8.01159C175.928 8.32308 176.047 8.74955 176.047 9.29099V9.34117ZM175.466 9.27531C175.466 8.88021 175.39 8.57499 175.238 8.35966C175.085 8.14434 174.865 8.03668 174.579 8.03668C174.196 8.03668 173.922 8.21437 173.754 8.56976V10.0373C173.932 10.3927 174.209 10.5704 174.585 10.5704C174.863 10.5704 175.08 10.4627 175.234 10.2474C175.389 10.0321 175.466 9.70805 175.466 9.27531ZM177.411 11H176.831V7.60707H177.411V11ZM176.784 6.7071C176.784 6.61303 176.812 6.53359 176.868 6.46878C176.927 6.40398 177.012 6.37157 177.125 6.37157C177.238 6.37157 177.324 6.40398 177.382 6.46878C177.441 6.53359 177.47 6.61303 177.47 6.7071C177.47 6.80118 177.441 6.87957 177.382 6.94229C177.324 7.005 177.238 7.03636 177.125 7.03636C177.012 7.03636 176.927 7.005 176.868 6.94229C176.812 6.87957 176.784 6.80118 176.784 6.7071ZM180.318 10.1C180.318 9.94324 180.258 9.82199 180.139 9.73628C180.022 9.64847 179.816 9.57322 179.521 9.5105C179.228 9.44778 178.995 9.37252 178.822 9.28472C178.65 9.19692 178.523 9.09239 178.439 8.97114C178.358 8.84989 178.317 8.70565 178.317 8.5384C178.317 8.26036 178.434 8.02518 178.668 7.83285C178.904 7.64052 179.205 7.54436 179.571 7.54436C179.956 7.54436 180.267 7.64366 180.506 7.84226C180.746 8.04086 180.866 8.29486 180.866 8.60426H180.283C180.283 8.44538 180.215 8.30845 180.079 8.19347C179.945 8.07849 179.776 8.021 179.571 8.021C179.36 8.021 179.195 8.06699 179.076 8.15897C178.957 8.25096 178.897 8.37116 178.897 8.51959C178.897 8.65965 178.952 8.76523 179.063 8.8363C179.174 8.90738 179.374 8.97532 179.662 9.04013C179.953 9.10494 180.188 9.18229 180.368 9.27218C180.548 9.36207 180.68 9.47078 180.766 9.5983C180.854 9.72373 180.898 9.87739 180.898 10.0593C180.898 10.3624 180.776 10.6059 180.534 10.7899C180.291 10.9718 179.977 11.0627 179.59 11.0627C179.318 11.0627 179.078 11.0146 178.869 10.9185C178.66 10.8223 178.496 10.6885 178.376 10.5171C178.259 10.3436 178.201 10.1565 178.201 9.95578H178.781C178.791 10.1502 178.869 10.3049 179.013 10.4199C179.159 10.5328 179.352 10.5892 179.59 10.5892C179.81 10.5892 179.985 10.5453 180.117 10.4575C180.251 10.3676 180.318 10.2485 180.318 10.1ZM181.5 9.27218C181.5 8.93979 181.565 8.64084 181.694 8.37534C181.826 8.10985 182.008 7.90497 182.24 7.76073C182.474 7.61648 182.74 7.54436 183.039 7.54436C183.501 7.54436 183.875 7.70428 184.159 8.02413C184.445 8.34398 184.588 8.76941 184.588 9.3004V9.34117C184.588 9.67147 184.525 9.96832 184.397 10.2317C184.272 10.493 184.091 10.6969 183.855 10.8432C183.621 10.9895 183.351 11.0627 183.046 11.0627C182.586 11.0627 182.213 10.9028 181.926 10.5829C181.642 10.2631 181.5 9.83976 181.5 9.31294V9.27218ZM182.083 9.34117C182.083 9.71746 182.17 10.0195 182.343 10.2474C182.519 10.4753 182.753 10.5892 183.046 10.5892C183.34 10.5892 183.575 10.4742 183.748 10.2443C183.922 10.0122 184.008 9.68819 184.008 9.27218C184.008 8.90007 183.92 8.59903 183.742 8.36907C183.566 8.13702 183.332 8.021 183.039 8.021C182.753 8.021 182.522 8.13493 182.346 8.3628C182.171 8.59067 182.083 8.91679 182.083 9.34117ZM185.178 9.27531C185.178 8.74641 185.3 8.32622 185.545 8.01473C185.79 7.70115 186.114 7.54436 186.517 7.54436C186.931 7.54436 187.254 7.6907 187.486 7.98337L187.514 7.60707H188.044V10.9185C188.044 11.3575 187.913 11.7035 187.652 11.9564C187.393 12.2094 187.044 12.3358 186.605 12.3358C186.36 12.3358 186.121 12.2836 185.887 12.1791C185.653 12.0745 185.474 11.9313 185.35 11.7495L185.652 11.4014C185.9 11.7087 186.204 11.8623 186.564 11.8623C186.846 11.8623 187.066 11.7829 187.223 11.624C187.381 11.4651 187.461 11.2415 187.461 10.953V10.6613C187.229 10.9289 186.912 11.0627 186.511 11.0627C186.114 11.0627 185.792 10.9028 185.545 10.5829C185.3 10.2631 185.178 9.82721 185.178 9.27531ZM185.761 9.34117C185.761 9.72373 185.84 10.0248 185.996 10.2443C186.153 10.4617 186.373 10.5704 186.655 10.5704C187.021 10.5704 187.289 10.4042 187.461 10.0718V8.52273C187.283 8.19869 187.017 8.03668 186.661 8.03668C186.379 8.03668 186.158 8.14643 186 8.36594C185.841 8.58544 185.761 8.91052 185.761 9.34117ZM189.471 7.60707L189.49 8.03354C189.749 7.70742 190.088 7.54436 190.506 7.54436C191.223 7.54436 191.584 7.94888 191.591 8.75791V11H191.011V8.75477C191.009 8.51018 190.952 8.32935 190.841 8.21228C190.733 8.09521 190.562 8.03668 190.33 8.03668C190.142 8.03668 189.977 8.08685 189.835 8.1872C189.693 8.28754 189.582 8.41924 189.502 8.58231V11H188.922V7.60707H189.471ZM192.312 9.27218C192.312 8.93979 192.377 8.64084 192.506 8.37534C192.638 8.10985 192.82 7.90497 193.052 7.76073C193.286 7.61648 193.553 7.54436 193.852 7.54436C194.314 7.54436 194.687 7.70428 194.971 8.02413C195.258 8.34398 195.401 8.76941 195.401 9.3004V9.34117C195.401 9.67147 195.337 9.96832 195.209 10.2317C195.084 10.493 194.903 10.6969 194.667 10.8432C194.433 10.9895 194.163 11.0627 193.858 11.0627C193.398 11.0627 193.025 10.9028 192.738 10.5829C192.454 10.2631 192.312 9.83976 192.312 9.31294V9.27218ZM192.895 9.34117C192.895 9.71746 192.982 10.0195 193.155 10.2474C193.331 10.4753 193.565 10.5892 193.858 10.5892C194.153 10.5892 194.387 10.4742 194.56 10.2443C194.734 10.0122 194.821 9.68819 194.821 9.27218C194.821 8.90007 194.732 8.59903 194.554 8.36907C194.378 8.13702 194.144 8.021 193.852 8.021C193.565 8.021 193.334 8.13493 193.159 8.3628C192.983 8.59067 192.895 8.91679 192.895 9.34117ZM146.586 15.2753C146.586 14.7548 146.709 14.3367 146.956 14.021C147.203 13.7032 147.526 13.5444 147.925 13.5444C148.322 13.5444 148.637 13.6802 148.869 13.952V12.1834H149.449V17H148.916L148.888 16.6362C148.655 16.9206 148.332 17.0627 147.919 17.0627C147.526 17.0627 147.205 16.9017 146.956 16.5798C146.709 16.2579 146.586 15.8377 146.586 15.3192V15.2753ZM147.166 15.3412C147.166 15.7258 147.245 16.0269 147.404 16.2443C147.563 16.4617 147.783 16.5704 148.063 16.5704C148.431 16.5704 148.699 16.4052 148.869 16.0749V14.5165C148.695 14.1966 148.429 14.0367 148.069 14.0367C147.785 14.0367 147.563 14.1464 147.404 14.3659C147.245 14.5854 147.166 14.9105 147.166 15.3412ZM151.76 17.0627C151.3 17.0627 150.926 16.9122 150.637 16.6112C150.349 16.308 150.205 15.9035 150.205 15.3976V15.291C150.205 14.9544 150.268 14.6544 150.396 14.391C150.525 14.1255 150.705 13.9186 150.935 13.7701C151.167 13.6196 151.418 13.5444 151.688 13.5444C152.129 13.5444 152.472 13.6896 152.716 13.9802C152.961 14.2708 153.083 14.6868 153.083 15.2283V15.4697H150.785C150.793 15.8042 150.89 16.0749 151.076 16.2819C151.264 16.4868 151.503 16.5892 151.791 16.5892C151.996 16.5892 152.17 16.5474 152.312 16.4638C152.454 16.3802 152.578 16.2694 152.685 16.1314L153.039 16.4073C152.755 16.8443 152.329 17.0627 151.76 17.0627ZM151.688 14.021C151.454 14.021 151.257 14.1067 151.098 14.2781C150.939 14.4475 150.841 14.6858 150.803 14.9931H152.503V14.9492C152.486 14.6544 152.407 14.4266 152.265 14.2656C152.123 14.1025 151.93 14.021 151.688 14.021ZM154.388 17H153.808V12.1834H154.388V17ZM157.699 12.7855V13.6071H158.333V14.0555H157.699V16.1596C157.699 16.2955 157.727 16.3979 157.784 16.4669C157.84 16.5338 157.936 16.5673 158.072 16.5673C158.139 16.5673 158.231 16.5547 158.348 16.5296V17C158.196 17.0418 158.047 17.0627 157.903 17.0627C157.644 17.0627 157.448 16.9843 157.317 16.8275C157.185 16.6707 157.119 16.4481 157.119 16.1596V14.0555H156.501V13.6071H157.119V12.7855H157.699ZM161.108 16.6645C160.882 16.93 160.551 17.0627 160.114 17.0627C159.752 17.0627 159.476 16.9582 159.286 16.7491C159.098 16.538 159.003 16.2265 159 15.8147V13.6071H159.581V15.799C159.581 16.3133 159.79 16.5704 160.208 16.5704C160.651 16.5704 160.946 16.4052 161.092 16.0749V13.6071H161.672V17H161.12L161.108 16.6645ZM162.403 15.2722C162.403 14.9398 162.468 14.6408 162.597 14.3753C162.729 14.1098 162.911 13.905 163.143 13.7607C163.377 13.6165 163.644 13.5444 163.942 13.5444C164.404 13.5444 164.778 13.7043 165.062 14.0241C165.348 14.344 165.492 14.7694 165.492 15.3004V15.3412C165.492 15.6715 165.428 15.9683 165.3 16.2317C165.175 16.493 164.994 16.6969 164.758 16.8432C164.524 16.9895 164.254 17.0627 163.949 17.0627C163.489 17.0627 163.116 16.9028 162.829 16.5829C162.545 16.2631 162.403 15.8398 162.403 15.3129V15.2722ZM162.986 15.3412C162.986 15.7175 163.073 16.0195 163.246 16.2474C163.422 16.4753 163.656 16.5892 163.949 16.5892C164.243 16.5892 164.478 16.4742 164.651 16.2443C164.825 16.0122 164.911 15.6882 164.911 15.2722C164.911 14.9001 164.823 14.599 164.645 14.3691C164.469 14.137 164.235 14.021 163.942 14.021C163.656 14.021 163.425 14.1349 163.249 14.3628C163.074 14.5907 162.986 14.9168 162.986 15.3412ZM169.788 16.1C169.788 15.9432 169.728 15.822 169.609 15.7363C169.492 15.6485 169.286 15.5732 168.991 15.5105C168.698 15.4478 168.465 15.3725 168.292 15.2847C168.12 15.1969 167.993 15.0924 167.909 14.9711C167.828 14.8499 167.787 14.7056 167.787 14.5384C167.787 14.2604 167.904 14.0252 168.138 13.8329C168.374 13.6405 168.675 13.5444 169.041 13.5444C169.426 13.5444 169.737 13.6437 169.976 13.8423C170.216 14.0409 170.336 14.2949 170.336 14.6043H169.753C169.753 14.4454 169.685 14.3084 169.549 14.1935C169.415 14.0785 169.246 14.021 169.041 14.021C168.83 14.021 168.665 14.067 168.546 14.159C168.427 14.251 168.367 14.3712 168.367 14.5196C168.367 14.6597 168.422 14.7652 168.533 14.8363C168.644 14.9074 168.844 14.9753 169.132 15.0401C169.423 15.1049 169.658 15.1823 169.838 15.2722C170.018 15.3621 170.15 15.4708 170.236 15.5983C170.324 15.7237 170.368 15.8774 170.368 16.0593C170.368 16.3624 170.246 16.6059 170.004 16.7899C169.761 16.9718 169.447 17.0627 169.06 17.0627C168.788 17.0627 168.548 17.0146 168.339 16.9185C168.13 16.8223 167.966 16.6885 167.847 16.5171C167.729 16.3436 167.671 16.1565 167.671 15.9558H168.251C168.261 16.1502 168.339 16.3049 168.483 16.4199C168.629 16.5328 168.822 16.5892 169.06 16.5892C169.28 16.5892 169.455 16.5453 169.587 16.4575C169.721 16.3676 169.788 16.2485 169.788 16.1ZM173.218 16.6645C172.992 16.93 172.661 17.0627 172.224 17.0627C171.862 17.0627 171.586 16.9582 171.396 16.7491C171.208 16.538 171.113 16.2265 171.111 15.8147V13.6071H171.691V15.799C171.691 16.3133 171.9 16.5704 172.318 16.5704C172.761 16.5704 173.056 16.4052 173.202 16.0749V13.6071H173.783V17H173.231L173.218 16.6645ZM177.533 15.3412C177.533 15.8575 177.415 16.2735 177.179 16.5892C176.942 16.9049 176.623 17.0627 176.219 17.0627C175.807 17.0627 175.483 16.9321 175.247 16.6707V18.3045H174.667V13.6071H175.197L175.225 13.9834C175.461 13.6907 175.789 13.5444 176.21 13.5444C176.617 13.5444 176.939 13.698 177.175 14.0053C177.414 14.3126 177.533 14.7401 177.533 15.2879V15.3412ZM176.953 15.2753C176.953 14.8927 176.871 14.5907 176.708 14.3691C176.545 14.1475 176.322 14.0367 176.037 14.0367C175.686 14.0367 175.423 14.1924 175.247 14.5039V16.1251C175.42 16.4345 175.686 16.5892 176.043 16.5892C176.322 16.5892 176.542 16.4795 176.705 16.26C176.87 16.0384 176.953 15.7101 176.953 15.2753ZM181.139 15.3412C181.139 15.8575 181.021 16.2735 180.785 16.5892C180.549 16.9049 180.229 17.0627 179.825 17.0627C179.413 17.0627 179.089 16.9321 178.853 16.6707V18.3045H178.273V13.6071H178.803L178.831 13.9834C179.067 13.6907 179.396 13.5444 179.816 13.5444C180.223 13.5444 180.545 13.698 180.782 14.0053C181.02 14.3126 181.139 14.7401 181.139 15.2879V15.3412ZM180.559 15.2753C180.559 14.8927 180.477 14.5907 180.314 14.3691C180.151 14.1475 179.928 14.0367 179.643 14.0367C179.292 14.0367 179.029 14.1924 178.853 14.5039V16.1251C179.027 16.4345 179.292 16.5892 179.65 16.5892C179.928 16.5892 180.148 16.4795 180.311 16.26C180.476 16.0384 180.559 15.7101 180.559 15.2753ZM181.726 15.2722C181.726 14.9398 181.79 14.6408 181.92 14.3753C182.052 14.1098 182.234 13.905 182.466 13.7607C182.7 13.6165 182.966 13.5444 183.265 13.5444C183.727 13.5444 184.1 13.7043 184.385 14.0241C184.671 14.344 184.814 14.7694 184.814 15.3004V15.3412C184.814 15.6715 184.751 15.9683 184.623 16.2317C184.498 16.493 184.317 16.6969 184.08 16.8432C183.846 16.9895 183.577 17.0627 183.271 17.0627C182.812 17.0627 182.438 16.9028 182.152 16.5829C181.868 16.2631 181.726 15.8398 181.726 15.3129V15.2722ZM182.309 15.3412C182.309 15.7175 182.396 16.0195 182.569 16.2474C182.745 16.4753 182.979 16.5892 183.271 16.5892C183.566 16.5892 183.8 16.4742 183.974 16.2443C184.147 16.0122 184.234 15.6882 184.234 15.2722C184.234 14.9001 184.145 14.599 183.968 14.3691C183.792 14.137 183.558 14.021 183.265 14.021C182.979 14.021 182.748 14.1349 182.572 14.3628C182.397 14.5907 182.309 14.9168 182.309 15.3412ZM187.182 14.1276C187.094 14.113 186.999 14.1057 186.896 14.1057C186.516 14.1057 186.258 14.2677 186.122 14.5917V17H185.542V13.6071H186.106L186.116 13.999C186.306 13.6959 186.576 13.5444 186.925 13.5444C187.038 13.5444 187.123 13.559 187.182 13.5883V14.1276ZM188.662 12.7855V13.6071H189.295V14.0555H188.662V16.1596C188.662 16.2955 188.69 16.3979 188.747 16.4669C188.803 16.5338 188.899 16.5673 189.035 16.5673C189.102 16.5673 189.194 16.5547 189.311 16.5296V17C189.158 17.0418 189.01 17.0627 188.866 17.0627C188.606 17.0627 188.411 16.9843 188.279 16.8275C188.148 16.6707 188.082 16.4481 188.082 16.1596V14.0555H187.464V13.6071H188.082V12.7855H188.662ZM189.759 15.2722C189.759 14.9398 189.824 14.6408 189.954 14.3753C190.086 14.1098 190.267 13.905 190.499 13.7607C190.734 13.6165 191 13.5444 191.299 13.5444C191.761 13.5444 192.134 13.7043 192.419 14.0241C192.705 14.344 192.848 14.7694 192.848 15.3004V15.3412C192.848 15.6715 192.784 15.9683 192.657 16.2317C192.531 16.493 192.351 16.6969 192.114 16.8432C191.88 16.9895 191.611 17.0627 191.305 17.0627C190.845 17.0627 190.472 16.9028 190.186 16.5829C189.902 16.2631 189.759 15.8398 189.759 15.3129V15.2722ZM190.343 15.3412C190.343 15.7175 190.429 16.0195 190.603 16.2474C190.779 16.4753 191.013 16.5892 191.305 16.5892C191.6 16.5892 191.834 16.4742 192.008 16.2443C192.181 16.0122 192.268 15.6882 192.268 15.2722C192.268 14.9001 192.179 14.599 192.002 14.3691C191.826 14.137 191.592 14.021 191.299 14.021C191.013 14.021 190.782 14.1349 190.606 14.3628C190.43 14.5907 190.343 14.9168 190.343 15.3412ZM194.225 15.7112H193.701L193.66 12.4343H194.269L194.225 15.7112ZM193.638 16.7084C193.638 16.6143 193.667 16.5359 193.723 16.4732C193.782 16.4084 193.867 16.376 193.98 16.376C194.093 16.376 194.179 16.4084 194.237 16.4732C194.296 16.5359 194.325 16.6143 194.325 16.7084C194.325 16.8024 194.296 16.8808 194.237 16.9436C194.179 17.0042 194.093 17.0345 193.98 17.0345C193.867 17.0345 193.782 17.0042 193.723 16.9436C193.667 16.8808 193.638 16.8024 193.638 16.7084Z" fill="black"/>
</svg>
