<svg width="212" height="40" viewBox="0 0 212 40" fill="none" xmlns="http://www.w3.org/2000/svg">
<g clip-path="url(#clip0)">
<path d="M212 0H0V40H212V0Z" fill="#FF0066"/>
<path d="M213.002 0H94.215V40H213.002V0Z" fill="#2AD4FF"/>
<path d="M69.1086 0L77.3222 40.315H144.227L136.013 0H69.1086Z" fill="#D5F6FF"/>
<path d="M135.666 18.1214L147.56 12.0216L148.576 15.9668L135.666 18.1214Z" fill="white" stroke="black" stroke-width="0.264583"/>
<path d="M93.6043 22.9742C98.1958 26.1655 102.994 20.3061 107.166 20.9489" stroke="black" stroke-width="0.817184"/>
<path fill-rule="evenodd" clip-rule="evenodd" d="M81.9938 16.604C80.0825 18.0537 78.9556 20.3359 78.9842 22.7616C81.2806 23.4506 83.7768 23.0056 85.6881 21.5559C87.6137 20.1062 88.7263 17.824 88.6977 15.3983C86.4013 14.7093 83.9194 15.1543 81.9938 16.604Z" fill="#FF6600"/>
<path fill-rule="evenodd" clip-rule="evenodd" d="M93.5759 16.604C95.4872 18.0537 96.6141 20.3359 96.5855 22.7616C94.2891 23.4506 91.793 23.0056 89.8816 21.5559C87.9703 20.1062 86.8435 17.824 86.872 15.3983C89.1684 14.7093 91.6646 15.1543 93.5759 16.604Z" fill="#FF6600"/>
<path fill-rule="evenodd" clip-rule="evenodd" d="M87.7849 20.1493C82.2648 20.1493 77.8146 24.6275 77.8146 30.1823V40H97.7552V30.1823C97.7552 24.6275 93.3049 20.1493 87.7849 20.1493Z" fill="#00CCFF"/>
<path fill-rule="evenodd" clip-rule="evenodd" d="M95.3446 13.0587C95.3446 17.2642 91.9641 20.666 87.7849 20.666C83.6056 20.666 80.2252 17.2642 80.2252 13.0587C80.2252 8.85317 83.6056 5.45142 87.7849 5.45142C91.9641 5.45142 95.3446 8.85317 95.3446 13.0587Z" fill="#FFCC00"/>
<path fill-rule="evenodd" clip-rule="evenodd" d="M86.1588 13.0587C86.1588 13.6328 85.6881 14.0922 85.1176 14.0922C84.547 14.0922 84.0906 13.6328 84.0906 13.0587C84.0906 12.4846 84.547 12.0253 85.1176 12.0253C85.6881 12.0253 86.1588 12.4846 86.1588 13.0587Z" fill="black"/>
<path fill-rule="evenodd" clip-rule="evenodd" d="M91.4792 13.0587C91.4792 13.6328 91.0228 14.0922 90.4522 14.0922C89.8817 14.0922 89.4252 13.6328 89.4252 13.0587C89.4252 12.4846 89.8817 12.0253 90.4522 12.0253C91.0228 12.0253 91.4792 12.4846 91.4792 13.0587Z" fill="black"/>
<path fill-rule="evenodd" clip-rule="evenodd" d="M85.3458 17.0346C85.9448 18.1255 86.8435 18.7714 87.7849 18.7714C88.7263 18.7714 89.6249 18.1255 90.2239 17.0346H85.3458Z" fill="black"/>
<path d="M86.3015 27.7996V26.1633H86.4154V27.7996H86.3015Z" fill="white"/>
<path d="M86.601 27.0389C86.601 27.2973 86.5297 27.5126 86.4013 27.6561C86.2729 27.814 86.0875 27.8857 85.8593 27.8857C85.6453 27.8857 85.4599 27.814 85.3315 27.6561C85.2032 27.5126 85.1318 27.2973 85.1318 27.0389C85.1318 26.7805 85.2032 26.5652 85.3315 26.4217C85.4599 26.2782 85.6453 26.192 85.8735 26.192C86.1018 26.192 86.2729 26.2782 86.4013 26.4217C86.5297 26.5796 86.601 26.7805 86.601 27.0389ZM85.2602 27.0389C85.2602 27.2686 85.3173 27.4551 85.4171 27.5843C85.517 27.7135 85.6739 27.7709 85.8593 27.7709C86.059 27.7709 86.2159 27.7135 86.3157 27.5843C86.4156 27.4551 86.4726 27.2829 86.4726 27.0389C86.4726 26.8092 86.4156 26.6227 86.3157 26.4935C86.2159 26.3643 86.059 26.3069 85.8735 26.3069C85.6739 26.3069 85.5312 26.3643 85.4171 26.4935C85.3173 26.6227 85.2602 26.8092 85.2602 27.0389Z" fill="white"/>
<path d="M87.4568 27.8858C87.2714 27.8858 87.143 27.814 87.0574 27.6704H87.0432V27.7709C87.0432 27.8283 87.0574 27.8858 87.0574 27.9432V28.4168H86.9433V26.637H87.0289L87.0574 26.8092C87.143 26.6801 87.2714 26.6227 87.4568 26.6227C87.628 26.6227 87.7421 26.6801 87.8276 26.7805C87.9132 26.8954 87.9703 27.0533 87.9703 27.2542C87.9703 27.4551 87.9132 27.613 87.8276 27.7135C87.7421 27.8283 87.6137 27.8858 87.4568 27.8858ZM87.4568 27.7853C87.5852 27.7853 87.6707 27.7422 87.7421 27.6417C87.8134 27.5556 87.8419 27.4264 87.8419 27.2542C87.8419 26.8954 87.7135 26.7231 87.4568 26.7231C87.3142 26.7231 87.2143 26.7662 87.143 26.838C87.0859 26.9097 87.0574 27.0389 87.0574 27.2255V27.2542C87.0574 27.4408 87.0859 27.5843 87.143 27.6561C87.2143 27.7422 87.3142 27.7853 87.4568 27.7853Z" fill="white"/>
<path d="M88.7833 27.8858C88.6122 27.8858 88.4695 27.8283 88.3697 27.7135C88.2841 27.613 88.2271 27.4552 88.2271 27.2686C88.2271 27.0676 88.2841 26.9097 88.3697 26.7949C88.4695 26.6801 88.5979 26.6227 88.7548 26.6227C88.8974 26.6227 89.0116 26.6657 89.0971 26.7662C89.1827 26.8667 89.2112 27.0102 89.2112 27.1824V27.2686H88.3412C88.3412 27.4408 88.3839 27.5556 88.4553 27.6561C88.5408 27.7422 88.6407 27.7853 88.7833 27.7853C88.8547 27.7853 88.9117 27.7709 88.9688 27.7709C89.0258 27.7566 89.0829 27.7422 89.1685 27.6992V27.7996C89.0971 27.8427 89.0401 27.8571 88.983 27.8714C88.926 27.8714 88.8547 27.8858 88.7833 27.8858ZM88.7548 26.7231C88.6407 26.7231 88.5408 26.7518 88.4695 26.838C88.3982 26.9097 88.3697 27.0245 88.3554 27.1681H89.0971C89.0971 27.0245 89.0686 26.9097 89.0116 26.838C88.9545 26.7518 88.8689 26.7231 88.7548 26.7231Z" fill="white"/>
<path d="M90.3951 27.857V27.0676C90.3951 26.9528 90.3666 26.8523 90.3238 26.8092C90.2668 26.7518 90.1954 26.7231 90.0813 26.7231C89.9387 26.7231 89.8246 26.7518 89.7675 26.838C89.6962 26.9097 89.6677 27.0245 89.6677 27.1824V27.857H89.5536V26.637H89.6392L89.6677 26.8092C89.7533 26.6801 89.8959 26.6227 90.0956 26.6227C90.3666 26.6227 90.5092 26.7662 90.5092 27.0676V27.857H90.3951Z" fill="white"/>
<path d="M86.9148 27.082C86.9148 27.3547 86.8435 27.57 86.7009 27.7135C86.5582 27.857 86.3443 27.9288 86.0733 27.9288H85.6739V26.2782H86.1161C86.3728 26.2782 86.5725 26.3499 86.7151 26.4935C86.8435 26.6226 86.9148 26.8236 86.9148 27.082ZM86.7865 27.0963C86.7865 26.8523 86.7294 26.6801 86.6153 26.5652C86.5012 26.436 86.3158 26.3786 86.0875 26.3786H85.788V27.814H86.059C86.544 27.814 86.7865 27.5843 86.7865 27.0963Z" fill="white"/>
<path d="M87.9989 27.9288L87.9703 27.7279H87.9561C87.899 27.814 87.842 27.857 87.7706 27.9001C87.7136 27.9288 87.628 27.9432 87.5424 27.9432C87.4283 27.9432 87.3285 27.9144 87.2714 27.857C87.2001 27.7853 87.1716 27.6991 87.1716 27.5987C87.1716 27.4838 87.2144 27.3834 87.3142 27.326C87.4141 27.2542 87.5567 27.2255 87.7421 27.2111H87.9703V27.125C87.9703 27.0102 87.9561 26.9241 87.899 26.8667C87.8562 26.8092 87.7849 26.7805 87.6851 26.7805C87.5709 26.7805 87.4568 26.8092 87.3285 26.8667L87.2857 26.7805C87.4283 26.7088 87.5567 26.6801 87.6851 26.6801C87.8134 26.6801 87.9133 26.7231 87.9846 26.7805C88.0416 26.8523 88.0844 26.9671 88.0844 27.1107V27.9288H87.9989ZM87.5567 27.8427C87.685 27.8427 87.7849 27.7996 87.8562 27.7279C87.9275 27.6561 87.9703 27.5556 87.9703 27.4264V27.2972L87.7564 27.3116C87.5852 27.3259 87.4711 27.3403 87.3998 27.3977C87.3285 27.4408 87.2857 27.5125 87.2857 27.5987C87.2857 27.6848 87.3142 27.7422 87.357 27.7853C87.3998 27.8283 87.4711 27.8427 87.5567 27.8427V27.8427Z" fill="white"/>
<path d="M88.7976 27.8427C88.8547 27.8427 88.926 27.8427 88.9688 27.8283V27.9145C88.926 27.9288 88.8547 27.9432 88.7834 27.9432C88.6835 27.9432 88.5979 27.9144 88.5551 27.857C88.4981 27.7996 88.4696 27.7135 88.4696 27.5843V26.7949H88.2984V26.7375L88.4696 26.6801L88.5266 26.4073H88.5837V26.7088H88.9403V26.7949H88.5837V27.57C88.5837 27.6704 88.5979 27.7279 88.6407 27.7853C88.6693 27.8283 88.7263 27.8427 88.7976 27.8427Z" fill="white"/>
<path d="M89.9672 27.9288L89.9387 27.7279C89.8817 27.814 89.8103 27.857 89.7533 27.9001C89.682 27.9288 89.6107 27.9432 89.5251 27.9432C89.3967 27.9432 89.3111 27.9144 89.2398 27.857C89.1827 27.7853 89.14 27.6991 89.14 27.5987C89.14 27.4838 89.197 27.3834 89.2969 27.326C89.3967 27.2542 89.5393 27.2255 89.7248 27.2111H89.953V27.125C89.953 27.0102 89.9245 26.9241 89.8817 26.8667C89.8389 26.8092 89.7533 26.7805 89.6534 26.7805C89.5393 26.7805 89.4252 26.8092 89.3111 26.8667L89.2683 26.7805C89.3967 26.7088 89.5251 26.6801 89.6534 26.6801C89.7961 26.6801 89.8959 26.7231 89.953 26.7805C90.0243 26.8523 90.0528 26.9671 90.0528 27.1107V27.9288H89.9672ZM89.5251 27.8427C89.6534 27.8427 89.7533 27.7996 89.8389 27.7279C89.9102 27.6561 89.9387 27.5556 89.9387 27.4264V27.2972L89.739 27.3116C89.5679 27.3259 89.4395 27.3403 89.3682 27.3977C89.2969 27.4408 89.2683 27.5125 89.2683 27.5987C89.2683 27.6848 89.2826 27.7422 89.3254 27.7853C89.3824 27.8283 89.4395 27.8427 89.5251 27.8427V27.8427Z" fill="white"/>
<path d="M88.7834 28.8761C88.6265 28.7182 88.2699 28.3881 87.9703 28.1585C87.0717 27.4838 86.9576 27.3834 86.5867 27.0532C85.9164 26.436 85.6311 25.8045 85.6453 24.972C85.6453 24.5558 85.6739 24.3979 85.788 24.1539C85.9734 23.7376 86.2587 23.4362 86.6295 23.2496C86.8863 23.1204 87.0147 23.063 87.4426 23.0486C87.899 23.0486 87.9989 23.1061 88.2556 23.2496C88.5837 23.4362 88.926 23.8094 88.9831 24.0821L89.0258 24.2543L89.1399 24.0247C89.7248 22.7185 91.6218 22.7329 92.278 24.0534C92.4919 24.4696 92.5204 25.3739 92.335 25.8763C92.0925 26.5365 91.6361 27.0389 90.5806 27.7996C89.8959 28.302 89.1114 29.0627 89.0544 29.1775C88.9973 29.2924 89.0544 29.1919 88.7834 28.8761Z" fill="#FF0000"/>
<path d="M83.5486 27.7996V23.3357H84.0621V27.7996H83.5486Z" fill="white"/>
<path d="M84.3331 31.187C84.3331 31.9047 84.1477 32.4645 83.7911 32.8807C83.4345 33.2826 82.9352 33.4836 82.2934 33.4836C81.6372 33.4836 81.138 33.2826 80.7814 32.8807C80.4248 32.4788 80.2537 31.919 80.2537 31.187C80.2537 30.455 80.4248 29.8952 80.7814 29.4933C81.138 29.0914 81.6515 28.8905 82.3076 28.8905C82.9352 28.8905 83.4345 29.0914 83.7911 29.5077C84.1477 29.9096 84.3331 30.4693 84.3331 31.187ZM80.7957 31.187C80.7957 31.7898 80.9241 32.2492 81.1808 32.5649C81.4376 32.8807 81.8084 33.0386 82.2934 33.0386C82.7926 33.0386 83.1635 32.8807 83.4059 32.5649C83.6627 32.2492 83.7911 31.7898 83.7911 31.187C83.7911 30.5842 83.6627 30.1392 83.4059 29.8234C83.1635 29.5077 82.7926 29.3641 82.3076 29.3641C81.8084 29.3641 81.4376 29.522 81.1808 29.8234C80.9241 30.1392 80.7957 30.5985 80.7957 31.187Z" fill="white"/>
<path d="M86.8007 33.4836C86.5725 33.4836 86.3871 33.4549 86.2016 33.3687C86.0162 33.2826 85.8736 33.1678 85.7452 32.9956H85.7167C85.7452 33.1965 85.7452 33.3831 85.7452 33.5553V34.9333H85.246V30.0818H85.6596L85.7309 30.5411H85.7452C85.8878 30.3545 86.0305 30.2254 86.2016 30.1392C86.3728 30.0675 86.5725 30.0244 86.8007 30.0244C87.2429 30.0244 87.5709 30.1679 87.8134 30.4694C88.0559 30.7851 88.17 31.2014 88.17 31.7468C88.17 32.3066 88.0559 32.7228 87.8134 33.0386C87.5709 33.34 87.2286 33.4836 86.8007 33.4836H86.8007ZM86.7294 30.455C86.3871 30.455 86.1303 30.5411 85.9877 30.7421C85.8308 30.9287 85.7595 31.2301 85.7452 31.632V31.7468C85.7452 32.2205 85.8308 32.565 85.9877 32.7659C86.1446 32.9668 86.3871 33.0673 86.7294 33.0673C87.0289 33.0673 87.2429 32.9525 87.414 32.7085C87.5709 32.4788 87.6565 32.1631 87.6565 31.7468C87.6565 31.3306 87.5709 31.0148 87.414 30.7851C87.2429 30.5698 87.0147 30.455 86.7294 30.455Z" fill="white"/>
<path d="M90.4664 33.4836C89.9672 33.4836 89.5821 33.34 89.2968 33.0386C89.0115 32.7372 88.8689 32.3209 88.8689 31.7755C88.8689 31.2444 89.0115 30.8139 89.2683 30.4981C89.5393 30.1823 89.8816 30.0244 90.3381 30.0244C90.7517 30.0244 91.0798 30.1536 91.3222 30.4407C91.5647 30.7134 91.6788 31.0722 91.6788 31.5315V31.8473H89.3967C89.4109 32.2348 89.4965 32.5362 89.6962 32.7372C89.8816 32.9381 90.1384 33.053 90.4807 33.053C90.8373 33.053 91.1939 32.9669 91.5362 32.8233V33.2683C91.365 33.3544 91.1939 33.3975 91.037 33.4405C90.8801 33.4692 90.6946 33.4836 90.4664 33.4836ZM90.3238 30.4407C90.0528 30.4407 89.8531 30.5268 89.6819 30.7134C89.525 30.8856 89.4394 31.1296 89.4109 31.431H91.1511C91.1511 31.1153 91.0798 30.8713 90.9371 30.699C90.7945 30.5268 90.5948 30.4407 90.3238 30.4407Z" fill="white"/>
<path d="M94.8169 33.4262V31.2588C94.8169 30.9861 94.7598 30.7851 94.6314 30.656C94.5031 30.5124 94.3176 30.455 94.0466 30.455C93.7043 30.455 93.4475 30.5411 93.2906 30.7421C93.1195 30.9287 93.0482 31.2301 93.0482 31.675V33.4262H92.5347V30.0818H92.9483L93.0339 30.5411H93.0624C93.1623 30.3689 93.3049 30.2541 93.4903 30.1536C93.6758 30.0675 93.8897 30.0244 94.1179 30.0244C94.5173 30.0244 94.8169 30.1249 95.0165 30.3115C95.2162 30.5124 95.3161 30.8138 95.3161 31.2445V33.4262H94.8169Z" fill="white"/>
<path d="M85.1747 36.7848C85.1747 37.5169 84.975 38.0766 84.5756 38.4785C84.1762 38.8661 83.6057 39.0527 82.864 39.0527H81.6373V34.5888H82.9923C83.677 34.5888 84.219 34.7897 84.6041 35.1629C84.9892 35.5505 85.1747 36.0959 85.1747 36.7848ZM84.6326 36.7992C84.6326 36.2107 84.49 35.7801 84.1905 35.4787C83.9052 35.1916 83.4773 35.0337 82.9067 35.0337H82.1508V38.6077H82.7784C83.3917 38.6077 83.8624 38.4498 84.1619 38.1484C84.4757 37.847 84.6326 37.402 84.6326 36.7992Z" fill="white"/>
<path d="M88.1272 39.0527L88.0273 38.579H87.9988C87.8419 38.7943 87.6708 38.9235 87.5139 39.0096C87.3427 39.0814 87.143 39.1101 86.8863 39.1101C86.5582 39.1101 86.3014 39.024 86.116 38.8661C85.9306 38.6938 85.8307 38.4498 85.8307 38.134C85.8307 37.4594 86.3728 37.1006 87.4425 37.0719L88.0131 37.0432V36.8423C88.0131 36.5839 87.956 36.3829 87.8419 36.2681C87.7278 36.1389 87.5567 36.0672 87.2999 36.0672C87.0289 36.0672 86.7151 36.1533 86.3585 36.3255L86.2159 35.938C86.3728 35.8519 86.5582 35.7801 86.7436 35.737C86.9433 35.6796 87.143 35.6509 87.3284 35.6509C87.7278 35.6509 88.0273 35.737 88.2128 35.9236C88.4125 36.0959 88.4981 36.3829 88.4981 36.7705V39.0527H88.1272ZM86.9861 38.6938C87.2999 38.6938 87.5567 38.6077 87.7278 38.4355C87.9132 38.2632 87.9988 38.0192 87.9988 37.7178V37.402L87.4996 37.4307C87.1002 37.4451 86.8007 37.5025 86.6295 37.6173C86.4584 37.7322 86.3585 37.9044 86.3585 38.134C86.3585 38.3206 86.4156 38.4642 86.5297 38.5503C86.6438 38.6508 86.8007 38.6938 86.9861 38.6938Z" fill="white"/>
<path d="M90.6234 38.6938C90.709 38.6938 90.7945 38.6938 90.8801 38.6795C90.9657 38.6652 91.0228 38.6508 91.0798 38.6364V39.024C91.0228 39.0527 90.9372 39.067 90.8373 39.0814C90.7232 39.1101 90.6234 39.1101 90.5521 39.1101C89.8959 39.1101 89.5821 38.78 89.5821 38.091V36.0959H89.0972V35.8519L89.5821 35.6509L89.7961 34.9333H90.0814V35.7083H91.0513V36.0959H90.0814V38.0767C90.0814 38.2776 90.1384 38.4211 90.224 38.536C90.3238 38.6364 90.4522 38.6938 90.6234 38.6938Z" fill="white"/>
<path d="M93.7899 39.0527L93.6901 38.579H93.6615C93.4904 38.7943 93.3335 38.9235 93.1623 39.0096C93.0054 39.0814 92.7915 39.1101 92.549 39.1101C92.2209 39.1101 91.9642 39.024 91.7645 38.8661C91.5791 38.6938 91.4935 38.4498 91.4935 38.134C91.4935 37.4594 92.0355 37.1006 93.1053 37.0719L93.6615 37.0432V36.8423C93.6615 36.5839 93.6045 36.3829 93.4904 36.2681C93.3905 36.1389 93.2051 36.0672 92.9626 36.0672C92.6774 36.0672 92.3636 36.1533 92.0212 36.3255L91.8643 35.938C92.0355 35.8519 92.2067 35.7801 92.4063 35.737C92.5918 35.6796 92.7915 35.6509 92.9912 35.6509C93.3905 35.6509 93.6758 35.737 93.8755 35.9236C94.0609 36.0959 94.1608 36.3829 94.1608 36.7705V39.0527H93.7899ZM92.6488 38.6938C92.9626 38.6938 93.2051 38.6077 93.3905 38.4355C93.5617 38.2632 93.6615 38.0192 93.6615 37.7178V37.402L93.1481 37.4307C92.7487 37.4451 92.4634 37.5025 92.278 37.6173C92.1068 37.7322 92.0212 37.9044 92.0212 38.134C92.0212 38.3206 92.0783 38.4642 92.1781 38.5503C92.2922 38.6508 92.4491 38.6938 92.6488 38.6938Z" fill="white"/>
<path fill-rule="evenodd" clip-rule="evenodd" d="M87.7849 20.1493C82.2648 20.1493 77.8146 24.6275 77.8146 30.1823V40H97.7552V30.1823C97.7552 24.6275 93.3049 20.1493 87.7849 20.1493Z" fill="#00CCFF"/>
<path fill-rule="evenodd" clip-rule="evenodd" d="M95.3446 13.0587C95.3446 17.2642 91.9641 20.666 87.7849 20.666C83.6056 20.666 80.2252 17.2642 80.2252 13.0587C80.2252 8.85317 83.6056 5.45142 87.7849 5.45142C91.9641 5.45142 95.3446 8.85317 95.3446 13.0587Z" fill="#FFCC00"/>
<path fill-rule="evenodd" clip-rule="evenodd" d="M86.1588 13.0587C86.1588 13.6328 85.6881 14.0922 85.1176 14.0922C84.547 14.0922 84.0906 13.6328 84.0906 13.0587C84.0906 12.4846 84.547 12.0253 85.1176 12.0253C85.6881 12.0253 86.1588 12.4846 86.1588 13.0587Z" fill="black"/>
<path fill-rule="evenodd" clip-rule="evenodd" d="M91.4792 13.0587C91.4792 13.6328 91.0228 14.0922 90.4522 14.0922C89.8817 14.0922 89.4252 13.6328 89.4252 13.0587C89.4252 12.4846 89.8817 12.0253 90.4522 12.0253C91.0228 12.0253 91.4792 12.4846 91.4792 13.0587Z" fill="black"/>
<path fill-rule="evenodd" clip-rule="evenodd" d="M85.3458 17.0346C85.9448 18.1255 86.8435 18.7714 87.7849 18.7714C88.7263 18.7714 89.6249 18.1255 90.2239 17.0346H85.3458Z" fill="black"/>
<path d="M83.5486 27.7996V23.3357H84.0621V27.7996H83.5486Z" fill="white"/>
<path d="M84.3331 31.187C84.3331 31.9047 84.1477 32.4645 83.7911 32.8807C83.4345 33.2826 82.9352 33.4836 82.2934 33.4836C81.6372 33.4836 81.138 33.2826 80.7814 32.8807C80.4248 32.4788 80.2537 31.919 80.2537 31.187C80.2537 30.455 80.4248 29.8952 80.7814 29.4933C81.138 29.0914 81.6515 28.8905 82.3076 28.8905C82.9352 28.8905 83.4345 29.0914 83.7911 29.5077C84.1477 29.9096 84.3331 30.4693 84.3331 31.187ZM80.7957 31.187C80.7957 31.7898 80.9241 32.2492 81.1808 32.5649C81.4376 32.8807 81.8084 33.0386 82.2934 33.0386C82.7926 33.0386 83.1635 32.8807 83.4059 32.5649C83.6627 32.2492 83.7911 31.7898 83.7911 31.187C83.7911 30.5842 83.6627 30.1392 83.4059 29.8234C83.1635 29.5077 82.7926 29.3641 82.3076 29.3641C81.8084 29.3641 81.4376 29.522 81.1808 29.8234C80.9241 30.1392 80.7957 30.5985 80.7957 31.187Z" fill="white"/>
<path d="M86.8007 33.4836C86.5725 33.4836 86.3871 33.4549 86.2016 33.3687C86.0162 33.2826 85.8736 33.1678 85.7452 32.9956H85.7167C85.7452 33.1965 85.7452 33.3831 85.7452 33.5553V34.9333H85.246V30.0818H85.6596L85.7309 30.5411H85.7452C85.8878 30.3545 86.0305 30.2254 86.2016 30.1392C86.3728 30.0675 86.5725 30.0244 86.8007 30.0244C87.2429 30.0244 87.5709 30.1679 87.8134 30.4694C88.0559 30.7851 88.17 31.2014 88.17 31.7468C88.17 32.3066 88.0559 32.7228 87.8134 33.0386C87.5709 33.34 87.2286 33.4836 86.8007 33.4836H86.8007ZM86.7294 30.455C86.3871 30.455 86.1303 30.5411 85.9877 30.7421C85.8308 30.9287 85.7595 31.2301 85.7452 31.632V31.7468C85.7452 32.2205 85.8308 32.565 85.9877 32.7659C86.1446 32.9668 86.3871 33.0673 86.7294 33.0673C87.0289 33.0673 87.2429 32.9525 87.414 32.7085C87.5709 32.4788 87.6565 32.1631 87.6565 31.7468C87.6565 31.3306 87.5709 31.0148 87.414 30.7851C87.2429 30.5698 87.0147 30.455 86.7294 30.455Z" fill="white"/>
<path d="M90.4664 33.4836C89.9672 33.4836 89.5821 33.34 89.2968 33.0386C89.0115 32.7372 88.8689 32.3209 88.8689 31.7755C88.8689 31.2444 89.0115 30.8139 89.2683 30.4981C89.5393 30.1823 89.8816 30.0244 90.3381 30.0244C90.7517 30.0244 91.0798 30.1536 91.3222 30.4407C91.5647 30.7134 91.6788 31.0722 91.6788 31.5315V31.8473H89.3967C89.4109 32.2348 89.4965 32.5362 89.6962 32.7372C89.8816 32.9381 90.1384 33.053 90.4807 33.053C90.8373 33.053 91.1939 32.9669 91.5362 32.8233V33.2683C91.365 33.3544 91.1939 33.3975 91.037 33.4405C90.8801 33.4692 90.6946 33.4836 90.4664 33.4836ZM90.3238 30.4407C90.0528 30.4407 89.8531 30.5268 89.6819 30.7134C89.525 30.8856 89.4394 31.1296 89.4109 31.431H91.1511C91.1511 31.1153 91.0798 30.8713 90.9371 30.699C90.7945 30.5268 90.5948 30.4407 90.3238 30.4407Z" fill="white"/>
<path d="M94.8169 33.4262V31.2588C94.8169 30.9861 94.7598 30.7851 94.6314 30.656C94.5031 30.5124 94.3176 30.455 94.0466 30.455C93.7043 30.455 93.4475 30.5411 93.2906 30.7421C93.1195 30.9287 93.0482 31.2301 93.0482 31.675V33.4262H92.5347V30.0818H92.9483L93.0339 30.5411H93.0624C93.1623 30.3689 93.3049 30.2541 93.4903 30.1536C93.6758 30.0675 93.8897 30.0244 94.1179 30.0244C94.5173 30.0244 94.8169 30.1249 95.0165 30.3115C95.2162 30.5124 95.3161 30.8138 95.3161 31.2445V33.4262H94.8169Z" fill="white"/>
<path d="M85.1747 36.7848C85.1747 37.5169 84.975 38.0766 84.5756 38.4785C84.1762 38.8661 83.6057 39.0527 82.864 39.0527H81.6373V34.5888H82.9923C83.677 34.5888 84.219 34.7897 84.6041 35.1629C84.9892 35.5505 85.1747 36.0959 85.1747 36.7848ZM84.6326 36.7992C84.6326 36.2107 84.49 35.7801 84.1905 35.4787C83.9052 35.1916 83.4773 35.0337 82.9067 35.0337H82.1508V38.6077H82.7784C83.3917 38.6077 83.8624 38.4498 84.1619 38.1484C84.4757 37.847 84.6326 37.402 84.6326 36.7992Z" fill="white"/>
<path d="M88.1272 39.0527L88.0273 38.579H87.9988C87.8419 38.7943 87.6708 38.9235 87.5139 39.0096C87.3427 39.0814 87.143 39.1101 86.8863 39.1101C86.5582 39.1101 86.3014 39.024 86.116 38.8661C85.9306 38.6938 85.8307 38.4498 85.8307 38.134C85.8307 37.4594 86.3728 37.1006 87.4425 37.0719L88.0131 37.0432V36.8423C88.0131 36.5839 87.956 36.3829 87.8419 36.2681C87.7278 36.1389 87.5567 36.0672 87.2999 36.0672C87.0289 36.0672 86.7151 36.1533 86.3585 36.3255L86.2159 35.938C86.3728 35.8519 86.5582 35.7801 86.7436 35.737C86.9433 35.6796 87.143 35.6509 87.3284 35.6509C87.7278 35.6509 88.0273 35.737 88.2128 35.9236C88.4125 36.0959 88.4981 36.3829 88.4981 36.7705V39.0527H88.1272ZM86.9861 38.6938C87.2999 38.6938 87.5567 38.6077 87.7278 38.4355C87.9132 38.2632 87.9988 38.0192 87.9988 37.7178V37.402L87.4996 37.4307C87.1002 37.4451 86.8007 37.5025 86.6295 37.6173C86.4584 37.7322 86.3585 37.9044 86.3585 38.134C86.3585 38.3206 86.4156 38.4642 86.5297 38.5503C86.6438 38.6508 86.8007 38.6938 86.9861 38.6938Z" fill="white"/>
<path d="M90.6234 38.6938C90.709 38.6938 90.7945 38.6938 90.8801 38.6795C90.9657 38.6652 91.0228 38.6508 91.0798 38.6364V39.024C91.0228 39.0527 90.9372 39.067 90.8373 39.0814C90.7232 39.1101 90.6234 39.1101 90.5521 39.1101C89.8959 39.1101 89.5821 38.78 89.5821 38.091V36.0959H89.0972V35.8519L89.5821 35.6509L89.7961 34.9333H90.0814V35.7083H91.0513V36.0959H90.0814V38.0767C90.0814 38.2776 90.1384 38.4211 90.224 38.536C90.3238 38.6364 90.4522 38.6938 90.6234 38.6938Z" fill="white"/>
<path d="M93.7899 39.0527L93.6901 38.579H93.6615C93.4904 38.7943 93.3335 38.9235 93.1623 39.0096C93.0054 39.0814 92.7915 39.1101 92.549 39.1101C92.2209 39.1101 91.9642 39.024 91.7645 38.8661C91.5791 38.6938 91.4935 38.4498 91.4935 38.134C91.4935 37.4594 92.0355 37.1006 93.1053 37.0719L93.6615 37.0432V36.8423C93.6615 36.5839 93.6045 36.3829 93.4904 36.2681C93.3905 36.1389 93.2051 36.0672 92.9626 36.0672C92.6774 36.0672 92.3636 36.1533 92.0212 36.3255L91.8643 35.938C92.0355 35.8519 92.2067 35.7801 92.4063 35.737C92.5918 35.6796 92.7915 35.6509 92.9912 35.6509C93.3905 35.6509 93.6758 35.737 93.8755 35.9236C94.0609 36.0959 94.1608 36.3829 94.1608 36.7705V39.0527H93.7899ZM92.6488 38.6938C92.9626 38.6938 93.2051 38.6077 93.3905 38.4355C93.5617 38.2632 93.6615 38.0192 93.6615 37.7178V37.402L93.1481 37.4307C92.7487 37.4451 92.4634 37.5025 92.278 37.6173C92.1068 37.7322 92.0212 37.9044 92.0212 38.134C92.0212 38.3206 92.0783 38.4642 92.1781 38.5503C92.2922 38.6508 92.4491 38.6938 92.6488 38.6938Z" fill="white"/>
<path d="M88.7834 28.8761C88.6265 28.7182 88.2699 28.3881 87.9703 28.1585C87.0717 27.4838 86.9576 27.3834 86.5867 27.0532C85.9164 26.436 85.6311 25.8045 85.6453 24.972C85.6453 24.5558 85.6739 24.3979 85.788 24.1539C85.9734 23.7376 86.2587 23.4362 86.6295 23.2496C86.8863 23.1204 87.0147 23.063 87.4426 23.0486C87.899 23.0486 87.9989 23.1061 88.2556 23.2496C88.5837 23.4362 88.926 23.8094 88.9831 24.0821L89.0258 24.2543L89.1399 24.0247C89.7248 22.7185 91.6218 22.7329 92.278 24.0534C92.4919 24.4696 92.5204 25.3739 92.335 25.8763C92.0925 26.5365 91.6361 27.0389 90.5806 27.7996C89.8959 28.302 89.1114 29.0627 89.0544 29.1775C88.9973 29.2924 89.0544 29.1919 88.7834 28.8761Z" fill="#FF0000"/>
<path fill-rule="evenodd" clip-rule="evenodd" d="M81.9938 4.97776C80.0825 6.42745 78.9556 8.70964 78.9842 11.121C81.2806 11.8243 83.7768 11.365 85.6881 9.92968C87.6137 8.46564 88.7263 6.18345 88.6977 3.77208C86.4013 3.08312 83.9194 3.52807 81.9938 4.97776Z" fill="#FF6600"/>
<path fill-rule="evenodd" clip-rule="evenodd" d="M93.5759 4.97776C95.4872 6.42745 96.6141 8.70964 96.5855 11.121C94.2891 11.8243 91.793 11.365 89.8816 9.92968C87.9703 8.46564 86.8435 6.18345 86.872 3.77208C89.1684 3.08312 91.6646 3.52807 93.5759 4.97776Z" fill="#FF6600"/>
<path fill-rule="evenodd" clip-rule="evenodd" d="M88.2787 22.1088C88.267 22.1091 88.2552 22.1094 88.2435 22.1096C88.235 22.1094 88.2265 22.1091 88.218 22.1088C88.2265 22.1093 88.235 22.1097 88.2435 22.1101C88.2552 22.1097 88.267 22.1093 88.2787 22.1088Z" fill="#803300"/>
<path fill-rule="evenodd" clip-rule="evenodd" d="M113.884 35.4683C113.884 35.4683 113.894 36.7015 113.192 37.0695C112.691 37.3323 111.631 36.7808 111.631 36.7808L113.884 35.4683Z" fill="#DE8787"/>
<path fill-rule="evenodd" clip-rule="evenodd" d="M112.124 24.6368C112.851 24.883 113.213 26.0379 113.144 26.5352L109.944 25.2272C110.418 25.0859 111.393 24.3892 112.124 24.6368Z" fill="#DE8787"/>
<path fill-rule="evenodd" clip-rule="evenodd" d="M104.942 38.5867C105.349 38.9444 105.466 40.0193 106.745 39.9789C108.024 39.9386 108.224 38.9675 108.785 38.7128C109.322 38.4691 104.528 38.2226 104.942 38.5867Z" fill="#DE8787"/>
<path fill-rule="evenodd" clip-rule="evenodd" d="M108.52 24.7962C107.422 24.797 106.316 25.0019 105.292 25.382C102.386 26.4597 100.812 28.8659 100.428 30.4164C98.9865 36.2443 104.529 38.2226 104.942 38.5867C105.349 38.9444 108.225 38.9675 108.785 38.7128C109.322 38.4692 110.295 38.6253 113.117 36.4352C115.926 34.2553 116.005 29.5328 114.097 27.2378C113.378 26.374 112.578 25.7995 111.603 25.4018C111.492 25.377 111.334 25.3678 111.252 25.3646C111.221 25.314 111.186 25.269 111.13 25.2159C110.298 24.9304 109.411 24.7958 108.52 24.7962Z" fill="#E9AFAF"/>
<path fill-rule="evenodd" clip-rule="evenodd" d="M108.7 33.1162C109.895 33.2462 112.333 31.6819 111.075 28.5602C109.818 25.4382 105.923 26.1158 105.374 27.9132C105.27 28.2532 106.976 28.6116 107.693 29.9946C108.411 31.3773 108.116 33.0532 108.7 33.1162Z" fill="#DE8787"/>
<path fill-rule="evenodd" clip-rule="evenodd" d="M126.812 20.1493C121.292 20.1493 116.856 24.6275 116.856 30.1823V40H136.783V30.1823C136.783 24.6275 132.347 20.1493 126.812 20.1493Z" fill="#00D400"/>
<path fill-rule="evenodd" clip-rule="evenodd" d="M120.836 26.5509H132.86C133.416 26.5509 133.858 26.9958 133.858 27.5413V36.5552C133.858 37.1149 133.416 37.5599 132.86 37.5599H120.836C120.279 37.5599 119.837 37.1149 119.837 36.5552V27.5413C119.837 26.9958 120.279 26.5509 120.836 26.5509Z" fill="#1A1A1A"/>
<path fill-rule="evenodd" clip-rule="evenodd" d="M121.62 27.369H132.061C132.56 27.369 132.974 27.7709 132.974 28.2876V35.8232C132.974 36.3255 132.56 36.7274 132.061 36.7274H121.62C121.121 36.7274 120.722 36.3255 120.722 35.8232V28.2876C120.722 27.7709 121.121 27.369 121.62 27.369Z" fill="#0066FF"/>
<path fill-rule="evenodd" clip-rule="evenodd" d="M127.454 29.6082H129.48V31.632H127.454V29.6082Z" fill="#F9F9F9"/>
<path fill-rule="evenodd" clip-rule="evenodd" d="M125.243 34.0721H127.254V36.0959H125.243V34.0721Z" fill="#F9F9F9"/>
<path fill-rule="evenodd" clip-rule="evenodd" d="M127.454 34.0721H129.48V36.0959H127.454V34.0721Z" fill="#F9F9F9"/>
<path fill-rule="evenodd" clip-rule="evenodd" d="M129.679 34.0721H131.69V36.0959H129.679V34.0721Z" fill="#F9F9F9"/>
<path fill-rule="evenodd" clip-rule="evenodd" d="M126.342 31.8329H128.367V33.8711H126.342V31.8329Z" fill="#F9F9F9"/>
<path fill-rule="evenodd" clip-rule="evenodd" d="M128.567 31.8329H130.578V33.8711H128.567V31.8329Z" fill="#F9F9F9"/>
<path fill-rule="evenodd" clip-rule="evenodd" d="M122.904 27.7709H123.318C123.646 27.7709 123.902 28.0293 123.902 28.3594V30.5842C123.902 30.9143 123.646 31.1727 123.318 31.1727H122.904C122.576 31.1727 122.319 30.9143 122.319 30.5842V28.3594C122.319 28.0293 122.576 27.7709 122.904 27.7709Z" fill="#FF0000"/>
<path fill-rule="evenodd" clip-rule="evenodd" d="M122.662 29.0053H123.56C124.231 29.0053 124.773 29.5507 124.773 30.2253V34.8758C124.773 35.5504 124.231 36.0959 123.56 36.0959H122.662C121.991 36.0959 121.463 35.5504 121.463 34.8758V30.2253C121.463 29.5507 121.991 29.0053 122.662 29.0053Z" fill="#280B0B"/>
<path fill-rule="evenodd" clip-rule="evenodd" d="M121.463 30.8138V34.2874H124.773V30.8138H121.463Z" fill="#FF0000"/>
<path fill-rule="evenodd" clip-rule="evenodd" d="M121.092 27.5413C120.864 27.7135 120.722 27.9719 120.722 28.2876V35.8232C120.722 36.3255 121.121 36.7274 121.62 36.7274H132.061C132.261 36.7274 132.432 36.67 132.575 36.5695L121.092 27.5413Z" fill="white" fill-opacity="0.483077"/>
<path d="M120.508 22.9626C114.56 26.3643 118.026 31.8903 121.035 37.3159" stroke="black" stroke-width="3.06803"/>
<path fill-rule="evenodd" clip-rule="evenodd" d="M122.005 36.3112C121.478 35.6366 120.508 35.5218 119.837 36.0528C119.167 36.5983 119.053 37.5743 119.581 38.2489C120.108 38.9235 121.078 39.0383 121.749 38.5073C122.419 37.9762 122.533 36.9858 122.005 36.3112Z" fill="#FFCC00"/>
<path d="M133.131 22.9626C139.079 26.3643 135.613 31.8903 132.603 37.3159" stroke="black" stroke-width="3.06803"/>
<path fill-rule="evenodd" clip-rule="evenodd" d="M131.633 36.3112C132.161 35.6366 133.131 35.5218 133.801 36.0528C134.472 36.5983 134.586 37.5743 134.058 38.2489C133.53 38.9235 132.56 39.0383 131.89 38.5073C131.22 37.9762 131.106 36.9858 131.633 36.3112Z" fill="#FFCC00"/>
<path fill-rule="evenodd" clip-rule="evenodd" d="M126.826 20.1923C122.818 20.1923 119.523 22.6755 117.926 26.0916L135.499 25.948C133.916 22.5463 130.82 20.1923 126.826 20.1923Z" fill="#00D400"/>
<path fill-rule="evenodd" clip-rule="evenodd" d="M134.386 13.0587C134.386 17.2642 130.991 20.666 126.812 20.666C122.647 20.666 119.253 17.2642 119.253 13.0587C119.253 8.85317 122.647 5.45142 126.812 5.45142C130.991 5.45142 134.386 8.85317 134.386 13.0587Z" fill="#FFCC00"/>
<path fill-rule="evenodd" clip-rule="evenodd" d="M124.373 17.0346C124.987 18.1255 125.871 18.7714 126.812 18.7714C127.768 18.7714 128.652 18.1255 129.266 17.0346H124.373Z" fill="black"/>
<path fill-rule="evenodd" clip-rule="evenodd" d="M126.712 4.05914C130.835 4.05914 134.329 7.13077 134.885 11.2358C133.003 10.8052 131.305 9.78614 130.022 8.3221C128.281 10.3172 125.785 11.4655 123.146 11.4655C121.606 11.4655 120.08 11.0779 118.725 10.3172C119.652 6.64275 122.947 4.05914 126.712 4.05914Z" fill="#2B1100"/>
<path fill-rule="evenodd" clip-rule="evenodd" d="M125.186 13.0587C125.186 13.6328 124.73 14.0922 124.159 14.0922C123.589 14.0922 123.118 13.6328 123.118 13.0587C123.118 12.4846 123.589 12.0253 124.159 12.0253C124.73 12.0253 125.186 12.4846 125.186 13.0587Z" fill="black"/>
<path fill-rule="evenodd" clip-rule="evenodd" d="M130.521 13.0587C130.521 13.6328 130.05 14.0922 129.48 14.0922C128.909 14.0922 128.453 13.6328 128.453 13.0587C128.453 12.4846 128.909 12.0253 129.48 12.0253C130.05 12.0253 130.521 12.4846 130.521 13.0587Z" fill="black"/>
<path fill-rule="evenodd" clip-rule="evenodd" d="M103.983 26.7975C104.662 26.5585 105.999 25.7496 105.485 25.3157C104.714 25.5817 103.496 23.3642 101.236 24.8287C99.9385 25.6695 101.666 28.0254 101.231 28.642C101.835 27.6288 102.215 27.4173 103.983 26.7975H103.983Z" fill="#DE8787"/>
<path fill-rule="evenodd" clip-rule="evenodd" d="M100.484 31.9071C100.15 32.3552 99.3944 32.5538 99.3525 33.5101C99.3102 34.4805 100.117 36.223 101.295 36.5616C102.469 36.8991 102.595 36.5195 103.195 36.5478C103.783 36.5751 103.824 34.1993 102.776 33.0883C101.735 31.9847 100.974 31.8087 100.484 31.9071V31.9071Z" fill="#DE8787"/>
<path d="M99.7364 32.5925C99.5333 32.8073 99.3713 33.0829 99.3526 33.5111C99.3104 34.4813 100.117 36.2247 101.295 36.5636C101.733 36.6896 102.024 36.7151 102.25 36.6997C102.31 36.428 102.343 36.1426 102.343 35.8475C102.343 34.0705 101.18 32.6265 99.7364 32.5925L99.7364 32.5925Z" fill="#E9AFAF"/>
<path opacity="0.9" fill-rule="evenodd" clip-rule="evenodd" d="M105.189 28.1498C105.189 28.1498 107.06 27.2952 108.272 28.3488C109.873 29.7407 108.41 33.3801 108.41 33.3801L105.189 28.1498Z" fill="#A8443F"/>
<path opacity="0.9" fill-rule="evenodd" clip-rule="evenodd" d="M103.963 26.9566C102.995 26.698 101.77 25.0274 101.058 25.6837C100.533 26.1682 101.631 28.3885 101.335 28.647C101.039 28.9055 104.44 27.0887 103.963 26.9566Z" fill="#A8443E"/>
<path opacity="0.95" fill-rule="evenodd" clip-rule="evenodd" d="M99.6953 33.5526C99.5689 33.6709 99.6386 34.5931 99.7573 34.9586C99.8759 35.3241 100.123 35.6372 100.205 35.5777C100.282 35.5214 100.302 35.045 100.219 34.6774C100.135 34.3048 100.111 33.6641 99.9959 33.6223C99.8829 33.5813 99.8178 33.4378 99.6954 33.5526L99.6953 33.5526ZM100.618 34.2903C100.488 34.3792 100.457 35.0131 100.498 35.3871C100.552 35.8015 100.864 36.3785 101.148 36.4493C101.432 36.5198 101.497 36.4284 101.435 36.0133C101.372 35.5986 101.204 35.1839 101.176 34.9165C101.148 34.6494 101.168 34.5361 100.994 34.4107C100.82 34.285 100.747 34.2014 100.618 34.2903Z" fill="#A73C39"/>
<path fill-rule="evenodd" clip-rule="evenodd" d="M109.808 24.9977C108.224 25.0026 106.65 25.6019 105.888 26.0758C105.923 26.2025 106.493 26.3701 106.651 26.3602C108.263 25.8555 109.735 25.2307 111.255 25.3664C111.222 25.2842 111.121 25.1995 110.99 25.1184C110.604 25.0334 110.206 24.9966 109.808 24.9977Z" fill="#DE8787"/>
<path opacity="0.75" fill-rule="evenodd" clip-rule="evenodd" d="M110.143 25.321C108.823 25.332 107.589 25.7135 106.384 26.317C106.495 26.3456 106.596 26.3633 106.649 26.3602C108.104 25.9051 109.444 25.3518 110.808 25.3476C110.584 25.3281 110.362 25.3189 110.143 25.321V25.321Z" fill="#AA4B45"/>
<path d="M101.492 30.7213C101.659 30.8114 101.933 30.6242 102.104 30.3033C102.275 29.9823 102.278 29.649 102.111 29.5589C101.943 29.4687 101.669 29.6559 101.498 29.9769C101.328 30.2978 101.325 30.6311 101.492 30.7213Z" fill="white"/>
<path d="M102.057 30.1127C102.007 30.3167 101.7 30.5475 101.533 30.4572C101.365 30.367 101.372 29.9723 101.517 29.8157C101.6 29.7256 101.716 29.7084 101.883 29.7987C102.051 29.8889 102.086 29.9964 102.057 30.1128L102.057 30.1127Z" fill="#2B1100"/>
<path d="M103.79 31.9091C103.981 32.0119 104.293 31.7986 104.488 31.4328C104.683 31.067 104.686 30.6872 104.495 30.5844C104.305 30.4817 103.992 30.695 103.798 31.0608C103.603 31.4266 103.6 31.8064 103.79 31.9091Z" fill="white"/>
<path d="M104.429 31.2526C104.372 31.485 104.022 31.748 103.831 31.6452C103.64 31.5423 103.648 31.0925 103.813 30.9141C103.908 30.8114 104.04 30.7918 104.231 30.8947C104.421 30.9975 104.461 31.12 104.429 31.2526L104.429 31.2526Z" fill="#2B1100"/>
<path d="M108.395 25.4843C109.561 25.4843 110.507 24.4834 110.507 23.2486C110.507 22.0139 109.561 21.0129 108.395 21.0129C107.228 21.0129 106.283 22.0139 106.283 23.2486C106.283 24.4834 107.228 25.4843 108.395 25.4843Z" fill="#F5D558"/>
<path d="M108.395 24.8787C109.29 24.8787 110.015 24.1489 110.015 23.2486C110.015 22.3483 109.29 21.6185 108.395 21.6185C107.5 21.6185 106.775 22.3483 106.775 23.2486C106.775 24.1489 107.5 24.8787 108.395 24.8787Z" fill="#CBC4AC"/>
<path d="M107.113 23.023C107.967 23.023 108.659 22.3262 108.659 21.4668C108.659 20.6073 107.967 19.9106 107.113 19.9106C106.259 19.9106 105.566 20.6073 105.566 21.4668C105.566 22.3262 106.259 23.023 107.113 23.023Z" fill="#FFCC00"/>
<path d="M72.4318 29.2283L4.00629 29.6293L4.05779 37.6922L72.4833 37.2911L72.4318 29.2283Z" fill="#0066FF"/>
<path d="M60.7582 0.900324L4.00629 1.19949L4.04826 9.26237L60.8002 8.9632L60.7582 0.900324Z" fill="#00D400"/>
<path d="M60.7582 2.01577L4.00629 2.31494L4.04826 10.3778L60.8002 10.0787L60.7582 2.01577Z" fill="#00D400"/>
<path d="M5.29791 8.53143V3.00484H6.85796C7.33875 3.00484 7.76388 3.11112 8.13333 3.32368C8.50278 3.53624 8.78746 3.83864 8.98737 4.23086C9.18981 4.62309 9.29229 5.07352 9.29482 5.58215V5.93515C9.29482 6.45643 9.1936 6.91318 8.99117 7.30541C8.79126 7.69764 8.50405 7.99876 8.12953 8.2088C7.75755 8.41883 7.32357 8.52637 6.82759 8.53143H5.29791ZM6.02669 3.60457V7.9355H6.79343C7.3552 7.9355 7.79171 7.7609 8.10296 7.41169C8.41674 7.06248 8.57363 6.56524 8.57363 5.91997V5.59733C8.57363 4.96977 8.4256 4.48265 8.12953 4.13597C7.836 3.78676 7.41846 3.60963 6.87694 3.60457H6.02669ZM12.8249 8.53143C12.7844 8.45046 12.7515 8.30622 12.7262 8.09872C12.3997 8.4378 12.01 8.60735 11.5571 8.60735C11.1522 8.60735 10.8194 8.49348 10.5588 8.26573C10.3007 8.03546 10.1716 7.74445 10.1716 7.39271C10.1716 6.96506 10.3336 6.63356 10.6575 6.39823C10.9839 6.16036 11.4419 6.04143 12.0316 6.04143H12.7148V5.71879C12.7148 5.47333 12.6414 5.27849 12.4946 5.13425C12.3479 4.98748 12.1315 4.9141 11.8456 4.9141C11.595 4.9141 11.385 4.97736 11.2155 5.10388C11.0459 5.23041 10.9612 5.3835 10.9612 5.56317H10.2551C10.2551 5.3582 10.3273 5.16082 10.4715 4.97103C10.6183 4.77871 10.8156 4.62688 11.0636 4.51554C11.3142 4.4042 11.5887 4.34853 11.8873 4.34853C12.3605 4.34853 12.7312 4.46746 12.9995 4.70533C13.2677 4.94067 13.4069 5.26583 13.417 5.68083V7.57111C13.417 7.94815 13.4651 8.24802 13.5612 8.4707V8.53143H12.8249ZM11.6596 7.99623C11.8797 7.99623 12.0885 7.9393 12.2859 7.82543C12.4832 7.71155 12.6262 7.56352 12.7148 7.38132V6.53867H12.1644C11.304 6.53867 10.8739 6.79045 10.8739 7.29402C10.8739 7.51418 10.9472 7.68625 11.094 7.81024C11.2408 7.93424 11.4293 7.99623 11.6596 7.99623ZM15.4705 3.42996V4.42445H16.2372V4.96724H15.4705V7.51418C15.4705 7.67866 15.5046 7.80265 15.573 7.88616C15.6413 7.96713 15.7577 8.00762 15.9222 8.00762C16.0032 8.00762 16.1145 7.99244 16.2562 7.96207V8.53143C16.0715 8.58204 15.8918 8.60735 15.7172 8.60735C15.4034 8.60735 15.1668 8.51245 15.0074 8.32267C14.848 8.13288 14.7683 7.86338 14.7683 7.51418V4.96724H14.0205V4.42445H14.7683V3.42996H15.4705ZM17.8238 8.53143H17.1216V4.42445H17.8238V8.53143ZM17.0647 3.33507C17.0647 3.2212 17.0989 3.12504 17.1672 3.04659C17.238 2.96815 17.3418 2.92892 17.4784 2.92892C17.6151 2.92892 17.7188 2.96815 17.7897 3.04659C17.8605 3.12504 17.896 3.2212 17.896 3.33507C17.896 3.44894 17.8605 3.54383 17.7897 3.61975C17.7188 3.69566 17.6151 3.73362 17.4784 3.73362C17.3418 3.73362 17.238 3.69566 17.1672 3.61975C17.0989 3.54383 17.0647 3.44894 17.0647 3.33507ZM23.2707 7.44206C23.2707 7.25227 23.1986 7.1055 23.0544 7.00175C22.9127 6.89547 22.6634 6.80437 22.3066 6.72846C21.9523 6.65254 21.6702 6.56145 21.4602 6.45516C21.2527 6.34888 21.0983 6.22236 20.9971 6.07559C20.8984 5.92882 20.849 5.75422 20.849 5.55178C20.849 5.21522 20.9908 4.93054 21.2742 4.69774C21.5601 4.46493 21.9245 4.34853 22.3673 4.34853C22.833 4.34853 23.21 4.46873 23.4985 4.70913C23.7895 4.94952 23.935 5.25698 23.935 5.63149H23.229C23.229 5.43917 23.1467 5.27343 22.9823 5.13425C22.8203 4.99507 22.6153 4.92548 22.3673 4.92548C22.1118 4.92548 21.9119 4.98115 21.7676 5.0925C21.6234 5.20384 21.5513 5.34934 21.5513 5.529C21.5513 5.69855 21.6183 5.82634 21.7524 5.91237C21.8865 5.99841 22.1282 6.08065 22.4774 6.1591C22.8292 6.23754 23.1138 6.33117 23.3315 6.43998C23.5491 6.54879 23.7098 6.68038 23.8135 6.83474C23.9198 6.98657 23.9729 7.17256 23.9729 7.39271C23.9729 7.75963 23.8262 8.05444 23.5326 8.27712C23.2391 8.49727 22.8583 8.60735 22.3901 8.60735C22.0612 8.60735 21.7701 8.54915 21.5171 8.43274C21.264 8.31634 21.0654 8.15439 20.9212 7.94689C20.7795 7.73686 20.7086 7.51038 20.7086 7.26745H21.4108C21.4235 7.50279 21.5171 7.69004 21.6917 7.82922C21.8688 7.96587 22.1016 8.03419 22.3901 8.03419C22.6558 8.03419 22.8684 7.98105 23.0278 7.87477C23.1898 7.76596 23.2707 7.62172 23.2707 7.44206ZM27.4233 8.12529C27.15 8.44666 26.7489 8.60735 26.22 8.60735C25.7822 8.60735 25.4482 8.48082 25.2179 8.22777C24.9902 7.97219 24.8751 7.59515 24.8725 7.09664V4.42445H25.5747V7.07767C25.5747 7.70017 25.8278 8.01142 26.3339 8.01142C26.8704 8.01142 27.2272 7.81151 27.4043 7.41169V4.42445H28.1065V8.53143H27.4384L27.4233 8.12529ZM29.9398 8.53143H29.2376V4.42445H29.9398V8.53143ZM29.1807 3.33507C29.1807 3.2212 29.2149 3.12504 29.2832 3.04659C29.354 2.96815 29.4578 2.92892 29.5944 2.92892C29.7311 2.92892 29.8348 2.96815 29.9057 3.04659C29.9765 3.12504 30.012 3.2212 30.012 3.33507C30.012 3.44894 29.9765 3.54383 29.9057 3.61975C29.8348 3.69566 29.7311 3.73362 29.5944 3.73362C29.4578 3.73362 29.354 3.69566 29.2832 3.61975C29.2149 3.54383 29.1807 3.44894 29.1807 3.33507ZM36.4647 6.52349C36.4647 7.14852 36.3217 7.65209 36.0358 8.03419C35.7498 8.4163 35.3627 8.60735 34.8743 8.60735C34.3758 8.60735 33.9836 8.44919 33.6976 8.13288V10.1105H32.9954V4.42445H33.6369L33.671 4.87993C33.957 4.52566 34.3543 4.34853 34.8629 4.34853C35.3564 4.34853 35.7461 4.53452 36.032 4.9065C36.3205 5.27849 36.4647 5.79597 36.4647 6.45896V6.52349ZM35.7625 6.44378C35.7625 5.9807 35.6638 5.61504 35.4664 5.34681C35.2691 5.07858 34.9983 4.94446 34.6541 4.94446C34.229 4.94446 33.9102 5.13298 33.6976 5.51003V7.47242C33.9076 7.84694 34.229 8.03419 34.6617 8.03419C34.9983 8.03419 35.2653 7.90134 35.4626 7.63564C35.6625 7.36741 35.7625 6.97012 35.7625 6.44378ZM39.3457 5.05454C39.2394 5.03682 39.1243 5.02797 39.0003 5.02797C38.5397 5.02797 38.2272 5.22408 38.0627 5.61631V8.53143H37.3605V4.42445H38.0437L38.0551 4.89891C38.2854 4.53199 38.6118 4.34853 39.0344 4.34853C39.1711 4.34853 39.2748 4.36624 39.3457 4.40167V5.05454ZM39.7328 6.43998C39.7328 6.03763 39.8113 5.67577 39.9682 5.3544C40.1276 5.03303 40.3477 4.78504 40.6286 4.61044C40.912 4.43583 41.2347 4.34853 41.5965 4.34853C42.1558 4.34853 42.6075 4.54211 42.9516 4.92928C43.2983 5.31644 43.4716 5.8314 43.4716 6.47414V6.52349C43.4716 6.92331 43.3945 7.28264 43.2401 7.60148C43.0883 7.91779 42.8694 8.16451 42.5834 8.34165C42.3 8.51878 41.9736 8.60735 41.6041 8.60735C41.0474 8.60735 40.5957 8.41377 40.2491 8.0266C39.9049 7.63943 39.7328 7.12701 39.7328 6.48933V6.43998ZM40.4388 6.52349C40.4388 6.97898 40.5439 7.34463 40.7539 7.62046C40.9665 7.89628 41.2499 8.03419 41.6041 8.03419C41.9609 8.03419 42.2444 7.89501 42.4544 7.61666C42.6644 7.33578 42.7694 6.94355 42.7694 6.43998C42.7694 5.98955 42.6619 5.62516 42.4468 5.34681C42.2342 5.06592 41.9508 4.92548 41.5965 4.92548C41.2499 4.92548 40.9703 5.06339 40.7577 5.33922C40.5451 5.61504 40.4388 6.0098 40.4388 6.52349ZM44.1814 6.44378C44.1814 5.81369 44.3307 5.30759 44.6293 4.92548C44.9279 4.54085 45.3189 4.34853 45.8022 4.34853C46.283 4.34853 46.6639 4.51301 46.9447 4.84198V2.70118H47.647V8.53143H47.0017L46.9675 8.09113C46.6866 8.43527 46.2957 8.60735 45.7946 8.60735C45.3189 8.60735 44.9305 8.4125 44.6293 8.0228C44.3307 7.63311 44.1814 7.12448 44.1814 6.49692V6.44378ZM44.8837 6.52349C44.8837 6.9891 44.9798 7.35349 45.1721 7.61666C45.3645 7.87983 45.6302 8.01142 45.9692 8.01142C46.4146 8.01142 46.7398 7.81151 46.9447 7.41169V5.52521C46.7347 5.13804 46.4121 4.94446 45.9768 4.94446C45.6327 4.94446 45.3645 5.07731 45.1721 5.34301C44.9798 5.60872 44.8837 6.00221 44.8837 6.52349ZM48.5541 6.43998C48.5541 6.03763 48.6326 5.67577 48.7895 5.3544C48.9489 5.03303 49.169 4.78504 49.4499 4.61044C49.7333 4.43583 50.056 4.34853 50.4178 4.34853C50.9771 4.34853 51.4288 4.54211 51.7729 4.92928C52.1196 5.31644 52.2929 5.8314 52.2929 6.47414V6.52349C52.2929 6.92331 52.2158 7.28264 52.0614 7.60148C51.9096 7.91779 51.6907 8.16451 51.4047 8.34165C51.1213 8.51878 50.7949 8.60735 50.4254 8.60735C49.8687 8.60735 49.417 8.41377 49.0704 8.0266C48.7262 7.63943 48.5541 7.12701 48.5541 6.48933V6.43998ZM49.2601 6.52349C49.2601 6.97898 49.3652 7.34463 49.5752 7.62046C49.7878 7.89628 50.0712 8.03419 50.4254 8.03419C50.7822 8.03419 51.0656 7.89501 51.2757 7.61666C51.4857 7.33578 51.5907 6.94355 51.5907 6.43998C51.5907 5.98955 51.4832 5.62516 51.2681 5.34681C51.0555 5.06592 50.7721 4.92548 50.4178 4.92548C50.0712 4.92548 49.7915 5.06339 49.579 5.33922C49.3664 5.61504 49.2601 6.0098 49.2601 6.52349ZM54.1263 3.42996V4.42445H54.893V4.96724H54.1263V7.51418C54.1263 7.67866 54.1604 7.80265 54.2288 7.88616C54.2971 7.96713 54.4135 8.00762 54.578 8.00762C54.6589 8.00762 54.7703 7.99244 54.912 7.96207V8.53143C54.7273 8.58204 54.5476 8.60735 54.373 8.60735C54.0592 8.60735 53.8226 8.51245 53.6632 8.32267C53.5038 8.13288 53.4241 7.86338 53.4241 7.51418V4.96724H52.6763V4.42445H53.4241V3.42996H54.1263ZM56.6694 3.42996V4.42445H57.4362V4.96724H56.6694V7.51418C56.6694 7.67866 56.7036 7.80265 56.7719 7.88616C56.8402 7.96713 56.9566 8.00762 57.1211 8.00762C57.2021 8.00762 57.3134 7.99244 57.4551 7.96207V8.53143C57.2704 8.58204 57.0907 8.60735 56.9161 8.60735C56.6024 8.60735 56.3658 8.51245 56.2063 8.32267C56.0469 8.13288 55.9672 7.86338 55.9672 7.51418V4.96724H55.2194V4.42445H55.9672V3.42996H56.6694ZM59.0228 8.53143H58.3206V4.42445H59.0228V8.53143ZM58.2636 3.33507C58.2636 3.2212 58.2978 3.12504 58.3661 3.04659C58.437 2.96815 58.5407 2.92892 58.6774 2.92892C58.814 2.92892 58.9178 2.96815 58.9886 3.04659C59.0595 3.12504 59.0949 3.2212 59.0949 3.33507C59.0949 3.44894 59.0595 3.54383 58.9886 3.61975C58.9178 3.69566 58.814 3.73362 58.6774 3.73362C58.5407 3.73362 58.437 3.69566 58.3661 3.61975C58.2978 3.54383 58.2636 3.44894 58.2636 3.33507ZM7.72339 17.5314C7.6829 17.4505 7.65 17.3062 7.6247 17.0987C7.29827 17.4378 6.90857 17.6073 6.45561 17.6073C6.05073 17.6073 5.71797 17.4935 5.45733 17.2657C5.19922 17.0355 5.07017 16.7445 5.07017 16.3927C5.07017 15.9651 5.23212 15.6336 5.55602 15.3982C5.88246 15.1604 6.34048 15.0414 6.93008 15.0414H7.61331V14.7188C7.61331 14.4733 7.53993 14.2785 7.39316 14.1342C7.24639 13.9875 7.03003 13.9141 6.74409 13.9141C6.49357 13.9141 6.28354 13.9774 6.114 14.1039C5.94445 14.2304 5.85968 14.3835 5.85968 14.5632H5.15367C5.15367 14.3582 5.22579 14.1608 5.37003 13.971C5.5168 13.7787 5.71418 13.6269 5.96217 13.5155C6.21269 13.4042 6.48724 13.3485 6.78584 13.3485C7.25904 13.3485 7.62976 13.4675 7.89799 13.7053C8.16622 13.9407 8.3054 14.2658 8.31552 14.6808V16.5711C8.31552 16.9482 8.3636 17.248 8.45976 17.4707V17.5314H7.72339ZM6.5581 16.9962C6.77825 16.9962 6.98702 16.9393 7.18439 16.8254C7.38177 16.7116 7.52475 16.5635 7.61331 16.3813V15.5387H7.06293C6.20256 15.5387 5.77238 15.7905 5.77238 16.294C5.77238 16.5142 5.84576 16.6862 5.99253 16.8102C6.1393 16.9342 6.32782 16.9962 6.5581 16.9962ZM10.1792 17.5314H9.47702V11.7012H10.1792V17.5314ZM12.0695 17.5314H11.3673V13.4244H12.0695V17.5314ZM11.3104 12.3351C11.3104 12.2212 11.3445 12.125 11.4128 12.0466C11.4837 11.9681 11.5874 11.9289 11.7241 11.9289C11.8607 11.9289 11.9645 11.9681 12.0353 12.0466C12.1062 12.125 12.1416 12.2212 12.1416 12.3351C12.1416 12.4489 12.1062 12.5438 12.0353 12.6197C11.9645 12.6957 11.8607 12.7336 11.7241 12.7336C11.5874 12.7336 11.4837 12.6957 11.4128 12.6197C11.3445 12.5438 11.3104 12.4489 11.3104 12.3351ZM13.8573 13.4244L13.8763 13.8799C14.1774 13.5257 14.5836 13.3485 15.0947 13.3485C15.6691 13.3485 16.0601 13.5687 16.2676 14.009C16.4042 13.8116 16.5814 13.6522 16.799 13.5307C17.0191 13.4093 17.2785 13.3485 17.5771 13.3485C18.478 13.3485 18.936 13.8255 18.9512 14.7795V17.5314H18.249V14.8213C18.249 14.5277 18.1819 14.3089 18.0478 14.1646C17.9137 14.0178 17.6885 13.9445 17.3722 13.9445C17.1115 13.9445 16.8952 14.0229 16.7231 14.1798C16.551 14.3342 16.4511 14.5429 16.4232 14.8061V17.5314H15.7172V14.8403C15.7172 14.2431 15.4249 13.9445 14.8404 13.9445C14.3798 13.9445 14.0648 14.1406 13.8953 14.5328V17.5314H13.193V13.4244H13.8573ZM21.7183 17.6073C21.1616 17.6073 20.7086 17.4252 20.3594 17.0608C20.0102 16.6938 19.8356 16.2042 19.8356 15.5918V15.4628C19.8356 15.0553 19.9128 14.6922 20.0671 14.3734C20.224 14.052 20.4416 13.8015 20.72 13.6218C21.0009 13.4396 21.3045 13.3485 21.631 13.3485C22.1649 13.3485 22.5799 13.5244 22.876 13.8761C23.172 14.2279 23.3201 14.7314 23.3201 15.3868V15.6791H20.5378C20.5479 16.084 20.6656 16.4117 20.8908 16.6622C21.1185 16.9102 21.407 17.0342 21.7562 17.0342C22.0042 17.0342 22.2142 16.9836 22.3863 16.8824C22.5584 16.7811 22.709 16.647 22.838 16.48L23.2669 16.814C22.9228 17.3429 22.4066 17.6073 21.7183 17.6073ZM21.631 13.9255C21.3476 13.9255 21.1097 14.0292 20.9174 14.2367C20.7251 14.4417 20.6061 14.7302 20.5606 15.1022H22.6179V15.049C22.5976 14.6922 22.5015 14.4164 22.3294 14.2216C22.1573 14.0242 21.9245 13.9255 21.631 13.9255ZM24.8004 13.4244L24.8232 13.9407C25.137 13.5459 25.5469 13.3485 26.053 13.3485C26.921 13.3485 27.3587 13.8382 27.3663 14.8175V17.5314H26.6641V14.8137C26.6616 14.5176 26.5933 14.2987 26.4591 14.157C26.3276 14.0153 26.1213 13.9445 25.8404 13.9445C25.6127 13.9445 25.4128 14.0052 25.2407 14.1267C25.0686 14.2481 24.9345 14.4075 24.8384 14.6049V17.5314H24.1362V13.4244H24.8004ZM29.3781 12.43V13.4244H30.1448V13.9672H29.3781V16.5142C29.3781 16.6787 29.4122 16.8027 29.4806 16.8862C29.5489 16.9671 29.6653 17.0076 29.8298 17.0076C29.9107 17.0076 30.0221 16.9924 30.1638 16.9621V17.5314C29.9791 17.582 29.7994 17.6073 29.6248 17.6073C29.311 17.6073 29.0744 17.5125 28.915 17.3227C28.7556 17.1329 28.6759 16.8634 28.6759 16.5142V13.9672H27.9281V13.4244H28.6759V12.43H29.3781ZM33.504 17.5314C33.4635 17.4505 33.4307 17.3062 33.4053 17.0987C33.0789 17.4378 32.6892 17.6073 32.2363 17.6073C31.8314 17.6073 31.4986 17.4935 31.238 17.2657C30.9799 17.0355 30.8508 16.7445 30.8508 16.3927C30.8508 15.9651 31.0128 15.6336 31.3367 15.3982C31.6631 15.1604 32.1211 15.0414 32.7107 15.0414H33.394V14.7188C33.394 14.4733 33.3206 14.2785 33.1738 14.1342C33.027 13.9875 32.8107 13.9141 32.5247 13.9141C32.2742 13.9141 32.0642 13.9774 31.8946 14.1039C31.7251 14.2304 31.6403 14.3835 31.6403 14.5632H30.9343C30.9343 14.3582 31.0064 14.1608 31.1507 13.971C31.2974 13.7787 31.4948 13.6269 31.7428 13.5155C31.9933 13.4042 32.2679 13.3485 32.5665 13.3485C33.0397 13.3485 33.4104 13.4675 33.6786 13.7053C33.9469 13.9407 34.086 14.2658 34.0962 14.6808V16.5711C34.0962 16.9482 34.1443 17.248 34.2404 17.4707V17.5314H33.504ZM32.3387 16.9962C32.5589 16.9962 32.7677 16.9393 32.965 16.8254C33.1624 16.7116 33.3054 16.5635 33.394 16.3813V15.5387H32.8436C31.9832 15.5387 31.553 15.7905 31.553 16.294C31.553 16.5142 31.6264 16.6862 31.7732 16.8102C31.9199 16.9342 32.1085 16.9962 32.3387 16.9962ZM37.1821 14.0545C37.0758 14.0368 36.9607 14.028 36.8367 14.028C36.3761 14.028 36.0636 14.2241 35.8991 14.6163V17.5314H35.1969V13.4244H35.8802L35.8916 13.8989C36.1218 13.532 36.4483 13.3485 36.8709 13.3485C37.0075 13.3485 37.1113 13.3662 37.1821 13.4017V14.0545ZM38.5941 17.5314H37.8919V13.4244H38.5941V17.5314ZM37.835 12.3351C37.835 12.2212 37.8691 12.125 37.9375 12.0466C38.0083 11.9681 38.1121 11.9289 38.2487 11.9289C38.3854 11.9289 38.4891 11.9681 38.56 12.0466C38.6308 12.125 38.6662 12.2212 38.6662 12.3351C38.6662 12.4489 38.6308 12.5438 38.56 12.6197C38.4891 12.6957 38.3854 12.7336 38.2487 12.7336C38.1121 12.7336 38.0083 12.6957 37.9375 12.6197C37.8691 12.5438 37.835 12.4489 37.835 12.3351ZM45.119 15.5235C45.119 16.1485 44.976 16.6521 44.6901 17.0342C44.4041 17.4163 44.017 17.6073 43.5286 17.6073C43.0301 17.6073 42.6378 17.4492 42.3519 17.1329V19.1105H41.6497V13.4244H42.2912L42.3253 13.8799C42.6113 13.5257 43.0086 13.3485 43.5172 13.3485C44.0106 13.3485 44.4003 13.5345 44.6863 13.9065C44.9748 14.2785 45.119 14.796 45.119 15.459V15.5235ZM44.4168 15.4438C44.4168 14.9807 44.3181 14.615 44.1207 14.3468C43.9233 14.0786 43.6526 13.9445 43.3084 13.9445C42.8833 13.9445 42.5645 14.133 42.3519 14.51V16.4724C42.5619 16.8469 42.8833 17.0342 43.316 17.0342C43.6526 17.0342 43.9195 16.9013 44.1169 16.6356C44.3168 16.3674 44.4168 15.9701 44.4168 15.4438ZM47.7191 17.6073C47.1624 17.6073 46.7094 17.4252 46.3602 17.0608C46.011 16.6938 45.8364 16.2042 45.8364 15.5918V15.4628C45.8364 15.0553 45.9136 14.6922 46.0679 14.3734C46.2248 14.052 46.4424 13.8015 46.7208 13.6218C47.0017 13.4396 47.3053 13.3485 47.6318 13.3485C48.1657 13.3485 48.5807 13.5244 48.8768 13.8761C49.1728 14.2279 49.3209 14.7314 49.3209 15.3868V15.6791H46.5386C46.5487 16.084 46.6664 16.4117 46.8916 16.6622C47.1193 16.9102 47.4078 17.0342 47.757 17.0342C48.005 17.0342 48.215 16.9836 48.3871 16.8824C48.5592 16.7811 48.7098 16.647 48.8388 16.48L49.2677 16.814C48.9236 17.3429 48.4074 17.6073 47.7191 17.6073ZM47.6318 13.9255C47.3484 13.9255 47.1105 14.0292 46.9182 14.2367C46.7259 14.4417 46.6069 14.7302 46.5614 15.1022H48.6187V15.049C48.5984 14.6922 48.5023 14.4164 48.3302 14.2216C48.1581 14.0242 47.9253 13.9255 47.6318 13.9255ZM52.1221 14.0545C52.0158 14.0368 51.9007 14.028 51.7767 14.028C51.3162 14.028 51.0037 14.2241 50.8392 14.6163V17.5314H50.137V13.4244H50.8202L50.8316 13.8989C51.0619 13.532 51.3883 13.3485 51.8109 13.3485C51.9475 13.3485 52.0513 13.3662 52.1221 13.4017V14.0545ZM55.4624 17.5314H54.7602V11.7012H55.4624V17.5314ZM59.1253 17.5314C59.0848 17.4505 59.0519 17.3062 59.0266 17.0987C58.7001 17.4378 58.3104 17.6073 57.8575 17.6073C57.4526 17.6073 57.1198 17.4935 56.8592 17.2657C56.6011 17.0355 56.472 16.7445 56.472 16.3927C56.472 15.9651 56.634 15.6336 56.9579 15.3982C57.2843 15.1604 57.7423 15.0414 58.332 15.0414H59.0152V14.7188C59.0152 14.4733 58.9418 14.2785 58.795 14.1342C58.6483 13.9875 58.4319 13.9141 58.146 13.9141C57.8954 13.9141 57.6854 13.9774 57.5159 14.1039C57.3463 14.2304 57.2616 14.3835 57.2616 14.5632H56.5555C56.5555 14.3582 56.6277 14.1608 56.7719 13.971C56.9187 13.7787 57.1161 13.6269 57.364 13.5155C57.6146 13.4042 57.8891 13.3485 58.1877 13.3485C58.6609 13.3485 59.0316 13.4675 59.2999 13.7053C59.5681 13.9407 59.7073 14.2658 59.7174 14.6808V16.5711C59.7174 16.9482 59.7655 17.248 59.8616 17.4707V17.5314H59.1253ZM57.96 16.9962C58.1801 16.9962 58.3889 16.9393 58.5863 16.8254C58.7836 16.7116 58.9266 16.5635 59.0152 16.3813V15.5387H58.4648C57.6044 15.5387 57.1743 15.7905 57.1743 16.294C57.1743 16.5142 57.2476 16.6862 57.3944 16.8102C57.5412 16.9342 57.7297 16.9962 57.96 16.9962ZM7.17301 23.0545C7.06673 23.0368 6.95159 23.028 6.82759 23.028C6.36705 23.028 6.05453 23.2241 5.89005 23.6163V26.5314H5.18784V22.4244H5.87107L5.88246 22.8989C6.11273 22.532 6.43916 22.3485 6.86176 22.3485C6.9984 22.3485 7.10215 22.3662 7.17301 22.4017V23.0545ZM8.58502 26.5314H7.88281V22.4244H8.58502V26.5314ZM7.82587 21.3351C7.82587 21.2212 7.86004 21.125 7.92836 21.0466C7.99921 20.9681 8.10296 20.9289 8.23961 20.9289C8.37626 20.9289 8.48001 20.9681 8.55086 21.0466C8.62171 21.125 8.65714 21.2212 8.65714 21.3351C8.65714 21.4489 8.62171 21.5438 8.55086 21.6197C8.48001 21.6957 8.37626 21.7336 8.23961 21.7336C8.10296 21.7336 7.99921 21.6957 7.92836 21.6197C7.86004 21.5438 7.82587 21.4489 7.82587 21.3351ZM11.3597 26.0342C11.6102 26.0342 11.8291 25.9583 12.0164 25.8064C12.2036 25.6546 12.3074 25.4648 12.3276 25.2371H12.9919C12.9792 25.4724 12.8982 25.6964 12.7489 25.9089C12.5996 26.1215 12.3997 26.291 12.1492 26.4176C11.9012 26.5441 11.6381 26.6073 11.3597 26.6073C10.8005 26.6073 10.3551 26.4214 10.0236 26.0494C9.69464 25.6749 9.53016 25.1637 9.53016 24.5159V24.3982C9.53016 23.9984 9.60354 23.6429 9.75031 23.3316C9.89708 23.0204 10.1071 22.7787 10.3804 22.6066C10.6562 22.4346 10.9814 22.3485 11.3559 22.3485C11.8165 22.3485 12.1986 22.4864 12.5022 22.7623C12.8084 23.0381 12.9716 23.3962 12.9919 23.8365H12.3276C12.3074 23.5708 12.2062 23.3531 12.024 23.1836C11.8443 23.0115 11.6216 22.9255 11.3559 22.9255C10.9991 22.9255 10.722 23.0545 10.5246 23.3126C10.3298 23.5682 10.2324 23.9389 10.2324 24.4248V24.5576C10.2324 25.0309 10.3298 25.3952 10.5246 25.6508C10.7195 25.9064 10.9978 26.0342 11.3597 26.0342ZM15.4857 26.6073C14.929 26.6073 14.476 26.4252 14.1268 26.0608C13.7776 25.6938 13.603 25.2042 13.603 24.5918V24.4628C13.603 24.0553 13.6802 23.6922 13.8345 23.3734C13.9914 23.052 14.209 22.8015 14.4874 22.6218C14.7683 22.4396 15.0719 22.3485 15.3984 22.3485C15.9323 22.3485 16.3473 22.5244 16.6434 22.8761C16.9394 23.2279 17.0875 23.7314 17.0875 24.3868V24.6791H14.3052C14.3153 25.084 14.433 25.4117 14.6582 25.6622C14.8859 25.9102 15.1744 26.0342 15.5236 26.0342C15.7716 26.0342 15.9816 25.9836 16.1537 25.8824C16.3258 25.7811 16.4764 25.647 16.6054 25.48L17.0343 25.814C16.6902 26.3429 16.174 26.6073 15.4857 26.6073ZM15.3984 22.9255C15.115 22.9255 14.8771 23.0292 14.6848 23.2367C14.4925 23.4417 14.3735 23.7302 14.328 24.1022H16.3853V24.049C16.365 23.6922 16.2689 23.4164 16.0968 23.2216C15.9247 23.0242 15.6919 22.9255 15.3984 22.9255ZM19.8887 23.0545C19.7824 23.0368 19.6673 23.028 19.5433 23.028C19.0828 23.028 18.7702 23.2241 18.6058 23.6163V26.5314H17.9036V22.4244H18.5868L18.5982 22.8989C18.8285 22.532 19.1549 22.3485 19.5775 22.3485C19.7141 22.3485 19.8179 22.3662 19.8887 22.4017V23.0545ZM22.1092 26.0342C22.3598 26.0342 22.5786 25.9583 22.7659 25.8064C22.9532 25.6546 23.0569 25.4648 23.0771 25.2371H23.7414C23.7287 25.4724 23.6478 25.6964 23.4985 25.9089C23.3492 26.1215 23.1493 26.291 22.8987 26.4176C22.6508 26.5441 22.3876 26.6073 22.1092 26.6073C21.55 26.6073 21.1046 26.4214 20.7731 26.0494C20.4442 25.6749 20.2797 25.1637 20.2797 24.5159V24.3982C20.2797 23.9984 20.3531 23.6429 20.4998 23.3316C20.6466 23.0204 20.8566 22.7787 21.1299 22.6066C21.4058 22.4346 21.7309 22.3485 22.1054 22.3485C22.566 22.3485 22.9481 22.4864 23.2518 22.7623C23.5579 23.0381 23.7212 23.3962 23.7414 23.8365H23.0771C23.0569 23.5708 22.9557 23.3531 22.7735 23.1836C22.5938 23.0115 22.3711 22.9255 22.1054 22.9255C21.7486 22.9255 21.4715 23.0545 21.2742 23.3126C21.0793 23.5682 20.9819 23.9389 20.9819 24.4248V24.5576C20.9819 25.0309 21.0793 25.3952 21.2742 25.6508C21.469 25.9064 21.7474 26.0342 22.1092 26.0342ZM27.0665 26.5314C27.026 26.4505 26.9931 26.3062 26.9678 26.0987C26.6413 26.4378 26.2516 26.6073 25.7987 26.6073C25.3938 26.6073 25.0611 26.4935 24.8004 26.2657C24.5423 26.0355 24.4132 25.7445 24.4132 25.3927C24.4132 24.9651 24.5752 24.6336 24.8991 24.3982C25.2255 24.1604 25.6836 24.0414 26.2732 24.0414H26.9564V23.7188C26.9564 23.4733 26.883 23.2785 26.7362 23.1342C26.5895 22.9875 26.3731 22.9141 26.0872 22.9141C25.8366 22.9141 25.6266 22.9774 25.4571 23.1039C25.2875 23.2304 25.2028 23.3835 25.2028 23.5632H24.4968C24.4968 23.3582 24.5689 23.1608 24.7131 22.971C24.8599 22.7787 25.0573 22.6269 25.3052 22.5155C25.5558 22.4042 25.8303 22.3485 26.1289 22.3485C26.6021 22.3485 26.9728 22.4675 27.2411 22.7053C27.5093 22.9407 27.6485 23.2658 27.6586 23.6808V25.5711C27.6586 25.9482 27.7067 26.248 27.8028 26.4707V26.5314H27.0665ZM25.9012 25.9962C26.1213 25.9962 26.3301 25.9393 26.5275 25.8254C26.7248 25.7116 26.8678 25.5635 26.9564 25.3813V24.5387H26.406C25.5456 24.5387 25.1155 24.7905 25.1155 25.294C25.1155 25.5142 25.1888 25.6862 25.3356 25.8102C25.4824 25.9342 25.6709 25.9962 25.9012 25.9962ZM32.3349 26.0342C32.5855 26.0342 32.8044 25.9583 32.9916 25.8064C33.1789 25.6546 33.2826 25.4648 33.3029 25.2371H33.9671C33.9545 25.4724 33.8735 25.6964 33.7242 25.9089C33.5749 26.1215 33.375 26.291 33.1245 26.4176C32.8765 26.5441 32.6133 26.6073 32.3349 26.6073C31.7757 26.6073 31.3303 26.4214 30.9989 26.0494C30.6699 25.6749 30.5054 25.1637 30.5054 24.5159V24.3982C30.5054 23.9984 30.5788 23.6429 30.7256 23.3316C30.8723 23.0204 31.0824 22.7787 31.3556 22.6066C31.6315 22.4346 31.9566 22.3485 32.3312 22.3485C32.7917 22.3485 33.1738 22.4864 33.4775 22.7623C33.7837 23.0381 33.9469 23.3962 33.9671 23.8365H33.3029C33.2826 23.5708 33.1814 23.3531 32.9992 23.1836C32.8195 23.0115 32.5969 22.9255 32.3312 22.9255C31.9744 22.9255 31.6973 23.0545 31.4999 23.3126C31.305 23.5682 31.2076 23.9389 31.2076 24.4248V24.5576C31.2076 25.0309 31.305 25.3952 31.4999 25.6508C31.6947 25.9064 31.9731 26.0342 32.3349 26.0342ZM35.4588 22.9217C35.7701 22.5396 36.175 22.3485 36.6735 22.3485C37.5414 22.3485 37.9792 22.8382 37.9868 23.8175V26.5314H37.2846V23.8137C37.2821 23.5176 37.2137 23.2987 37.0796 23.157C36.948 23.0153 36.7418 22.9445 36.4609 22.9445C36.2332 22.9445 36.0333 23.0052 35.8612 23.1267C35.6891 23.2481 35.555 23.4075 35.4588 23.6049V26.5314H34.7566V20.7012H35.4588V22.9217ZM40.7425 26.6073C40.1858 26.6073 39.7328 26.4252 39.3836 26.0608C39.0344 25.6938 38.8598 25.2042 38.8598 24.5918V24.4628C38.8598 24.0553 38.937 23.6922 39.0914 23.3734C39.2483 23.052 39.4659 22.8015 39.7442 22.6218C40.0251 22.4396 40.3288 22.3485 40.6552 22.3485C41.1891 22.3485 41.6041 22.5244 41.9002 22.8761C42.1963 23.2279 42.3443 23.7314 42.3443 24.3868V24.6791H39.562C39.5722 25.084 39.6898 25.4117 39.915 25.6622C40.1428 25.9102 40.4313 26.0342 40.7805 26.0342C41.0285 26.0342 41.2385 25.9836 41.4106 25.8824C41.5826 25.7811 41.7332 25.647 41.8622 25.48L42.2912 25.814C41.947 26.3429 41.4308 26.6073 40.7425 26.6073ZM40.6552 22.9255C40.3718 22.9255 40.1339 23.0292 39.9416 23.2367C39.7493 23.4417 39.6304 23.7302 39.5848 24.1022H41.6421V24.049C41.6219 23.6922 41.5257 23.4164 41.3536 23.2216C41.1815 23.0242 40.9487 22.9255 40.6552 22.9255ZM45.7491 22.4244L45.7681 22.8799C46.0692 22.5257 46.4753 22.3485 46.9865 22.3485C47.5609 22.3485 47.9519 22.5687 48.1594 23.009C48.296 22.8116 48.4732 22.6522 48.6908 22.5307C48.9109 22.4093 49.1703 22.3485 49.4689 22.3485C50.3698 22.3485 50.8278 22.8255 50.843 23.7795V26.5314H50.1408V23.8213C50.1408 23.5277 50.0737 23.3089 49.9396 23.1646C49.8055 23.0178 49.5803 22.9445 49.2639 22.9445C49.0033 22.9445 48.7869 23.0229 48.6149 23.1798C48.4428 23.3342 48.3428 23.5429 48.315 23.8061V26.5314H47.609V23.8403C47.609 23.2431 47.3167 22.9445 46.7322 22.9445C46.2716 22.9445 45.9566 23.1406 45.787 23.5328V26.5314H45.0848V22.4244H45.7491ZM52.6687 26.5314H51.9665V22.4244H52.6687V26.5314ZM51.9096 21.3351C51.9096 21.2212 51.9437 21.125 52.0121 21.0466C52.0829 20.9681 52.1867 20.9289 52.3233 20.9289C52.4599 20.9289 52.5637 20.9681 52.6346 21.0466C52.7054 21.125 52.7408 21.2212 52.7408 21.3351C52.7408 21.4489 52.7054 21.5438 52.6346 21.6197C52.5637 21.6957 52.4599 21.7336 52.3233 21.7336C52.1867 21.7336 52.0829 21.6957 52.0121 21.6197C51.9437 21.5438 51.9096 21.4489 51.9096 21.3351ZM53.629 24.4438C53.629 23.8036 53.7771 23.2949 54.0731 22.9179C54.3692 22.5383 54.7614 22.3485 55.2498 22.3485C55.7509 22.3485 56.1418 22.5257 56.4227 22.8799L56.4569 22.4244H57.0983V26.4327C57.0983 26.9641 56.9402 27.3829 56.6239 27.6891C56.3101 27.9953 55.8875 28.1484 55.3561 28.1484C55.06 28.1484 54.7703 28.0852 54.4869 27.9586C54.2035 27.8321 53.9871 27.6588 53.8378 27.4386L54.2022 27.0173C54.5033 27.3893 54.8715 27.5753 55.3068 27.5753C55.6484 27.5753 55.9141 27.4791 56.1039 27.2868C56.2962 27.0945 56.3923 26.8237 56.3923 26.4745V26.1215C56.1114 26.4454 55.7281 26.6073 55.2422 26.6073C54.7614 26.6073 54.3717 26.4138 54.0731 26.0266C53.7771 25.6394 53.629 25.1118 53.629 24.4438ZM54.335 24.5235C54.335 24.9866 54.4299 25.351 54.6197 25.6167C54.8095 25.8798 55.0752 26.0114 55.4168 26.0114C55.8597 26.0114 56.1848 25.8102 56.3923 25.4079V23.5328C56.1772 23.1406 55.8546 22.9445 55.4244 22.9445C55.0828 22.9445 54.8158 23.0773 54.6235 23.343C54.4312 23.6087 54.335 24.0022 54.335 24.5235ZM58.9241 26.5314H58.2219V20.7012H58.9241V26.5314ZM60.8144 26.5314H60.1122V22.4244H60.8144V26.5314ZM60.0552 21.3351C60.0552 21.2212 60.0894 21.125 60.1577 21.0466C60.2286 20.9681 60.3323 20.9289 60.469 20.9289C60.6056 20.9289 60.7094 20.9681 60.7802 21.0466C60.8511 21.125 60.8865 21.2212 60.8865 21.3351C60.8865 21.4489 60.8511 21.5438 60.7802 21.6197C60.7094 21.6957 60.6056 21.7336 60.469 21.7336C60.3323 21.7336 60.2286 21.6957 60.1577 21.6197C60.0894 21.5438 60.0552 21.4489 60.0552 21.3351ZM61.7557 24.44C61.7557 24.0376 61.8342 23.6758 61.991 23.3544C62.1505 23.033 62.3706 22.785 62.6515 22.6104C62.9349 22.4358 63.2576 22.3485 63.6194 22.3485C64.1787 22.3485 64.6303 22.5421 64.9745 22.9293C65.3212 23.3164 65.4945 23.8314 65.4945 24.4741V24.5235C65.4945 24.9233 65.4173 25.2826 65.263 25.6015C65.1111 25.9178 64.8923 26.1645 64.6063 26.3416C64.3229 26.5188 63.9965 26.6073 63.627 26.6073C63.0703 26.6073 62.6186 26.4138 62.2719 26.0266C61.9278 25.6394 61.7557 25.127 61.7557 24.4893V24.44ZM62.4617 24.5235C62.4617 24.979 62.5667 25.3446 62.7768 25.6205C62.9893 25.8963 63.2727 26.0342 63.627 26.0342C63.9838 26.0342 64.2672 25.895 64.4773 25.6167C64.6873 25.3358 64.7923 24.9435 64.7923 24.44C64.7923 23.9896 64.6848 23.6252 64.4697 23.3468C64.2571 23.0659 63.9737 22.9255 63.6194 22.9255C63.2727 22.9255 62.9931 23.0634 62.7806 23.3392C62.568 23.615 62.4617 24.0098 62.4617 24.5235ZM68.3603 23.0545C68.254 23.0368 68.1389 23.028 68.0149 23.028C67.5543 23.028 67.2418 23.2241 67.0773 23.6163V26.5314H66.3751V22.4244H67.0584L67.0697 22.8989C67.3 22.532 67.6265 22.3485 68.049 22.3485C68.1857 22.3485 68.2894 22.3662 68.3603 22.4017V23.0545ZM71.3931 26.5314C71.3526 26.4505 71.3197 26.3062 71.2944 26.0987C70.968 26.4378 70.5783 26.6073 70.1253 26.6073C69.7204 26.6073 69.3877 26.4935 69.127 26.2657C68.8689 26.0355 68.7399 25.7445 68.7399 25.3927C68.7399 24.9651 68.9018 24.6336 69.2257 24.3982C69.5522 24.1604 70.0102 24.0414 70.5998 24.0414H71.283V23.7188C71.283 23.4733 71.2096 23.2785 71.0629 23.1342C70.9161 22.9875 70.6997 22.9141 70.4138 22.9141C70.1633 22.9141 69.9532 22.9774 69.7837 23.1039C69.6142 23.2304 69.5294 23.3835 69.5294 23.5632H68.8234C68.8234 23.3582 68.8955 23.1608 69.0397 22.971C69.1865 22.7787 69.3839 22.6269 69.6319 22.5155C69.8824 22.4042 70.1569 22.3485 70.4555 22.3485C70.9287 22.3485 71.2995 22.4675 71.5677 22.7053C71.8359 22.9407 71.9751 23.2658 71.9852 23.6808V25.5711C71.9852 25.9482 72.0333 26.248 72.1295 26.4707V26.5314H71.3931ZM70.2278 25.9962C70.448 25.9962 70.6567 25.9393 70.8541 25.8254C71.0515 25.7116 71.1944 25.5635 71.283 25.3813V24.5387H70.7326C69.8723 24.5387 69.4421 24.7905 69.4421 25.294C69.4421 25.5142 69.5155 25.6862 69.6622 25.8102C69.809 25.9342 69.9975 25.9962 70.2278 25.9962ZM5.95078 35.5314H5.24857V29.7012H5.95078V35.5314ZM9.61367 35.5314C9.57318 35.4505 9.54028 35.3062 9.51498 35.0987C9.18854 35.4378 8.79885 35.6073 8.34589 35.6073C7.94101 35.6073 7.60825 35.4935 7.34761 35.2657C7.0895 35.0355 6.96045 34.7445 6.96045 34.3927C6.96045 33.9651 7.1224 33.6336 7.4463 33.3982C7.77273 33.1604 8.23075 33.0414 8.82036 33.0414H9.50359V32.7188C9.50359 32.4733 9.43021 32.2785 9.28344 32.1342C9.13667 31.9875 8.92031 31.9141 8.63437 31.9141C8.38385 31.9141 8.17382 31.9774 8.00427 32.1039C7.83473 32.2304 7.74996 32.3835 7.74996 32.5632H7.04395C7.04395 32.3582 7.11607 32.1608 7.26031 31.971C7.40708 31.7787 7.60446 31.6269 7.85244 31.5155C8.10296 31.4042 8.37752 31.3485 8.67612 31.3485C9.14932 31.3485 9.52004 31.4675 9.78827 31.7053C10.0565 31.9407 10.1957 32.2658 10.2058 32.6808V34.5711C10.2058 34.9482 10.2539 35.248 10.35 35.4707V35.5314H9.61367ZM8.44837 34.9962C8.66853 34.9962 8.87729 34.9393 9.07467 34.8254C9.27205 34.7116 9.41502 34.5635 9.50359 34.3813V33.5387H8.95321C8.09284 33.5387 7.66266 33.7905 7.66266 34.294C7.66266 34.5142 7.73604 34.6862 7.88281 34.8102C8.02958 34.9342 8.2181 34.9962 8.44837 34.9962ZM15.6261 34.4421C15.6261 34.2523 15.554 34.1055 15.4098 34.0018C15.268 33.8955 15.0188 33.8044 14.662 33.7285C14.3077 33.6525 14.0256 33.5614 13.8155 33.4552C13.608 33.3489 13.4537 33.2224 13.3525 33.0756C13.2538 32.9288 13.2044 32.7542 13.2044 32.5518C13.2044 32.2152 13.3461 31.9305 13.6296 31.6977C13.9155 31.4649 14.2799 31.3485 14.7227 31.3485C15.1883 31.3485 15.5654 31.4687 15.8539 31.7091C16.1449 31.9495 16.2904 32.257 16.2904 32.6315H15.5844C15.5844 32.4392 15.5021 32.2734 15.3376 32.1342C15.1757 31.9951 14.9707 31.9255 14.7227 31.9255C14.4671 31.9255 14.2672 31.9812 14.123 32.0925C13.9788 32.2038 13.9066 32.3493 13.9066 32.529C13.9066 32.6985 13.9737 32.8263 14.1078 32.9124C14.2419 32.9984 14.4836 33.0807 14.8328 33.1591C15.1845 33.2375 15.4692 33.3312 15.6868 33.44C15.9045 33.5488 16.0652 33.6804 16.1689 33.8347C16.2752 33.9866 16.3283 34.1726 16.3283 34.3927C16.3283 34.7596 16.1816 35.0544 15.888 35.2771C15.5945 35.4973 15.2136 35.6073 14.7455 35.6073C14.4165 35.6073 14.1255 35.5491 13.8725 35.4327C13.6194 35.3163 13.4208 35.1544 13.2766 34.9469C13.1348 34.7369 13.064 34.5104 13.064 34.2675H13.7662C13.7789 34.5028 13.8725 34.69 14.0471 34.8292C14.2242 34.9659 14.457 35.0342 14.7455 35.0342C15.0112 35.0342 15.2238 34.9811 15.3832 34.8748C15.5451 34.766 15.6261 34.6217 15.6261 34.4421ZM19.7787 35.5314C19.7382 35.4505 19.7053 35.3062 19.68 35.0987C19.3535 35.4378 18.9638 35.6073 18.5109 35.6073C18.106 35.6073 17.7732 35.4935 17.5126 35.2657C17.2545 35.0355 17.1254 34.7445 17.1254 34.3927C17.1254 33.9651 17.2874 33.6336 17.6113 33.3982C17.9377 33.1604 18.3957 33.0414 18.9853 33.0414H19.6686V32.7188C19.6686 32.4733 19.5952 32.2785 19.4484 32.1342C19.3017 31.9875 19.0853 31.9141 18.7994 31.9141C18.5488 31.9141 18.3388 31.9774 18.1693 32.1039C17.9997 32.2304 17.9149 32.3835 17.9149 32.5632H17.2089C17.2089 32.3582 17.2811 32.1608 17.4253 31.971C17.5721 31.7787 17.7694 31.6269 18.0174 31.5155C18.2679 31.4042 18.5425 31.3485 18.8411 31.3485C19.3143 31.3485 19.685 31.4675 19.9533 31.7053C20.2215 31.9407 20.3607 32.2658 20.3708 32.6808V34.5711C20.3708 34.9482 20.4189 35.248 20.515 35.4707V35.5314H19.7787ZM18.6134 34.9962C18.8335 34.9962 19.0423 34.9393 19.2397 34.8254C19.437 34.7116 19.58 34.5635 19.6686 34.3813V33.5387H19.1182C18.2578 33.5387 17.8276 33.7905 17.8276 34.294C17.8276 34.5142 17.901 34.6862 18.0478 34.8102C18.1946 34.9342 18.3831 34.9962 18.6134 34.9962ZM22.2345 35.5314H21.5323V29.7012H22.2345V35.5314ZM25.8974 35.1253C25.6241 35.4467 25.223 35.6073 24.6941 35.6073C24.2564 35.6073 23.9223 35.4808 23.6921 35.2278C23.4643 34.9722 23.3492 34.5952 23.3466 34.0966V31.4244H24.0489V34.0777C24.0489 34.7002 24.3019 35.0114 24.808 35.0114C25.3445 35.0114 25.7013 34.8115 25.8784 34.4117V31.4244H26.5806V35.5314H25.9126L25.8974 35.1253ZM28.6037 30.43V31.4244H29.3705V31.9672H28.6037V34.5142C28.6037 34.6787 28.6379 34.8027 28.7062 34.8862C28.7745 34.9671 28.891 35.0076 29.0554 35.0076C29.1364 35.0076 29.2477 34.9924 29.3895 34.9621V35.5314C29.2047 35.582 29.0251 35.6073 28.8505 35.6073C28.5367 35.6073 28.3001 35.5125 28.1407 35.3227C27.9812 35.1329 27.9015 34.8634 27.9015 34.5142V31.9672H27.1538V31.4244H27.9015V30.43H28.6037ZM31.8984 35.6073C31.3417 35.6073 30.8888 35.4252 30.5396 35.0608C30.1904 34.6938 30.0158 34.2042 30.0158 33.5918V33.4628C30.0158 33.0553 30.0929 32.6922 30.2473 32.3734C30.4042 32.052 30.6218 31.8015 30.9002 31.6218C31.181 31.4396 31.4847 31.3485 31.8111 31.3485C32.3451 31.3485 32.7601 31.5244 33.0561 31.8761C33.3522 32.2279 33.5002 32.7314 33.5002 33.3868V33.6791H30.718C30.7281 34.084 30.8458 34.4117 31.071 34.6622C31.2987 34.9102 31.5872 35.0342 31.9364 35.0342C32.1844 35.0342 32.3944 34.9836 32.5665 34.8824C32.7386 34.7811 32.8891 34.647 33.0182 34.48L33.4471 34.814C33.103 35.3429 32.5867 35.6073 31.8984 35.6073ZM31.8111 31.9255C31.5277 31.9255 31.2899 32.0292 31.0975 32.2367C30.9052 32.4417 30.7863 32.7302 30.7407 33.1022H32.798V33.049C32.7778 32.6922 32.6816 32.4164 32.5096 32.2216C32.3375 32.0242 32.1047 31.9255 31.8111 31.9255ZM39.7139 33.5235C39.7139 34.1485 39.5709 34.6521 39.2849 35.0342C38.999 35.4163 38.6118 35.6073 38.1234 35.6073C37.6249 35.6073 37.2327 35.4492 36.9468 35.1329V37.1105H36.2446V31.4244H36.886L36.9202 31.8799C37.2061 31.5257 37.6034 31.3485 38.1121 31.3485C38.6055 31.3485 38.9952 31.5345 39.2811 31.9065C39.5696 32.2785 39.7139 32.796 39.7139 33.459V33.5235ZM39.0117 33.4438C39.0117 32.9807 38.913 32.615 38.7156 32.3468C38.5182 32.0786 38.2474 31.9445 37.9033 31.9445C37.4782 31.9445 37.1593 32.133 36.9468 32.51V34.4724C37.1568 34.8469 37.4782 35.0342 37.9109 35.0342C38.2474 35.0342 38.5144 34.9013 38.7118 34.6356C38.9117 34.3674 39.0117 33.9701 39.0117 33.4438ZM43.1452 35.1253C42.8719 35.4467 42.4708 35.6073 41.942 35.6073C41.5042 35.6073 41.1702 35.4808 40.9399 35.2278C40.7121 34.9722 40.597 34.5952 40.5945 34.0966V31.4244H41.2967V34.0777C41.2967 34.7002 41.5497 35.0114 42.0558 35.0114C42.5923 35.0114 42.9491 34.8115 43.1262 34.4117V31.4244H43.8284V35.5314H43.1604L43.1452 35.1253ZM48.3757 33.5235C48.3757 34.151 48.2315 34.6559 47.943 35.038C47.6545 35.4176 47.2674 35.6073 46.7815 35.6073C46.2628 35.6073 45.8617 35.4239 45.5783 35.057L45.5441 35.5314H44.8988V29.7012H45.6011V31.8761C45.8845 31.5244 46.2754 31.3485 46.7739 31.3485C47.2724 31.3485 47.6634 31.5371 47.9468 31.9141C48.2328 32.2911 48.3757 32.8074 48.3757 33.4628V33.5235ZM47.6735 33.4438C47.6735 32.9655 47.5812 32.5961 47.3964 32.3354C47.2117 32.0748 46.946 31.9445 46.5993 31.9445C46.1363 31.9445 45.8035 32.1596 45.6011 32.5897V34.3661C45.8161 34.7963 46.1514 35.0114 46.6069 35.0114C46.9435 35.0114 47.2054 34.8811 47.3926 34.6205C47.5799 34.3598 47.6735 33.9676 47.6735 33.4438ZM52.7408 33.5235C52.7408 34.151 52.5966 34.6559 52.3081 35.038C52.0196 35.4176 51.6325 35.6073 51.1466 35.6073C50.6279 35.6073 50.2268 35.4239 49.9434 35.057L49.9092 35.5314H49.2639V29.7012H49.9662V31.8761C50.2496 31.5244 50.6405 31.3485 51.139 31.3485C51.6375 31.3485 52.0285 31.5371 52.3119 31.9141C52.5979 32.2911 52.7408 32.8074 52.7408 33.4628V33.5235ZM52.0386 33.4438C52.0386 32.9655 51.9463 32.5961 51.7615 32.3354C51.5768 32.0748 51.3111 31.9445 50.9644 31.9445C50.5013 31.9445 50.1686 32.1596 49.9662 32.5897V34.3661C50.1812 34.7963 50.5165 35.0114 50.972 35.0114C51.3086 35.0114 51.5705 34.8811 51.7577 34.6205C51.945 34.3598 52.0386 33.9676 52.0386 33.4438ZM54.392 35.5314H53.6898V29.7012H54.392V35.5314ZM56.2823 35.5314H55.58V31.4244H56.2823V35.5314ZM55.5231 30.3351C55.5231 30.2212 55.5573 30.125 55.6256 30.0466C55.6964 29.9681 55.8002 29.9289 55.9368 29.9289C56.0735 29.9289 56.1772 29.9681 56.2481 30.0466C56.3189 30.125 56.3544 30.2212 56.3544 30.3351C56.3544 30.4489 56.3189 30.5438 56.2481 30.6197C56.1772 30.6957 56.0735 30.7336 55.9368 30.7336C55.8002 30.7336 55.6964 30.6957 55.6256 30.6197C55.5573 30.5438 55.5231 30.4489 55.5231 30.3351ZM59.0569 35.0342C59.3075 35.0342 59.5263 34.9583 59.7136 34.8064C59.9009 34.6546 60.0046 34.4648 60.0249 34.2371H60.6891C60.6765 34.4724 60.5955 34.6964 60.4462 34.9089C60.2969 35.1215 60.097 35.291 59.8465 35.4176C59.5985 35.5441 59.3353 35.6073 59.0569 35.6073C58.4977 35.6073 58.0523 35.4214 57.7208 35.0494C57.3919 34.6749 57.2274 34.1637 57.2274 33.5159V33.3982C57.2274 32.9984 57.3008 32.6429 57.4475 32.3316C57.5943 32.0204 57.8043 31.7787 58.0776 31.6066C58.3535 31.4346 58.6786 31.3485 59.0531 31.3485C59.5137 31.3485 59.8958 31.4864 60.1995 31.7623C60.5056 32.0381 60.6689 32.3962 60.6891 32.8365H60.0249C60.0046 32.5708 59.9034 32.3531 59.7212 32.1836C59.5415 32.0115 59.3188 31.9255 59.0531 31.9255C58.6963 31.9255 58.4193 32.0545 58.2219 32.3126C58.027 32.5682 57.9296 32.9389 57.9296 33.4248V33.5576C57.9296 34.0309 58.027 34.3952 58.2219 34.6508C58.4167 34.9064 58.6951 35.0342 59.0569 35.0342ZM64.0142 35.5314C63.9737 35.4505 63.9408 35.3062 63.9155 35.0987C63.5891 35.4378 63.1994 35.6073 62.7464 35.6073C62.3415 35.6073 62.0088 35.4935 61.7481 35.2657C61.49 35.0355 61.361 34.7445 61.361 34.3927C61.361 33.9651 61.5229 33.6336 61.8468 33.3982C62.1732 33.1604 62.6313 33.0414 63.2209 33.0414H63.9041V32.7188C63.9041 32.4733 63.8307 32.2785 63.6839 32.1342C63.5372 31.9875 63.3208 31.9141 63.0349 31.9141C62.7844 31.9141 62.5743 31.9774 62.4048 32.1039C62.2352 32.2304 62.1505 32.3835 62.1505 32.5632H61.4445C61.4445 32.3582 61.5166 32.1608 61.6608 31.971C61.8076 31.7787 62.005 31.6269 62.253 31.5155C62.5035 31.4042 62.778 31.3485 63.0766 31.3485C63.5498 31.3485 63.9205 31.4675 64.1888 31.7053C64.457 31.9407 64.5962 32.2658 64.6063 32.6808V34.5711C64.6063 34.9482 64.6544 35.248 64.7505 35.4707V35.5314H64.0142ZM62.8489 34.9962C63.069 34.9962 63.2778 34.9393 63.4752 34.8254C63.6726 34.7116 63.8155 34.5635 63.9041 34.3813V33.5387H63.3537C62.4934 33.5387 62.0632 33.7905 62.0632 34.294C62.0632 34.5142 62.1366 34.6862 62.2833 34.8102C62.4301 34.9342 62.6186 34.9962 62.8489 34.9962ZM68.459 33.9752C68.464 33.6741 68.4982 33.4362 68.5615 33.2616C68.6247 33.087 68.7538 32.8934 68.9486 32.6808L69.4459 32.1684C69.6584 31.928 69.7647 31.6699 69.7647 31.3941C69.7647 31.1284 69.6951 30.9209 69.556 30.7716C69.4168 30.6197 69.2143 30.5438 68.9486 30.5438C68.6905 30.5438 68.483 30.6122 68.3261 30.7488C68.1692 30.8855 68.0908 31.0689 68.0908 31.2992H67.3886C67.3936 30.8892 67.5391 30.559 67.8251 30.3085C68.1136 30.0554 68.4881 29.9289 68.9486 29.9289C69.4269 29.9289 69.7989 30.058 70.0646 30.3161C70.3328 30.5717 70.4669 30.9234 70.4669 31.3713C70.4669 31.8141 70.262 32.2507 69.852 32.6808L69.4383 33.0908C69.2536 33.2957 69.1612 33.5905 69.1612 33.9752H68.459ZM68.4286 35.1784C68.4286 35.0646 68.4628 34.9697 68.5311 34.8937C68.602 34.8153 68.7057 34.7761 68.8424 34.7761C68.979 34.7761 69.0827 34.8153 69.1536 34.8937C69.2245 34.9697 69.2599 35.0646 69.2599 35.1784C69.2599 35.2923 69.2245 35.3872 69.1536 35.4631C69.0827 35.5365 68.979 35.5732 68.8424 35.5732C68.7057 35.5732 68.602 35.5365 68.5311 35.4631C68.4628 35.3872 68.4286 35.2923 68.4286 35.1784Z" fill="white"/>
<path d="M201.933 26.1331H154.08C152.21 26.1331 150.693 27.6591 150.693 29.5415V34.3154C150.693 36.1977 152.21 37.7237 154.08 37.7237H201.933C203.803 37.7237 205.32 36.1977 205.32 34.3154V29.5415C205.32 27.6591 203.803 26.1331 201.933 26.1331Z" fill="#0066FF" stroke="white" stroke-width="0.264583"/>
<path d="M170.609 34.5424V28.9821H172.179C172.663 28.9821 173.09 29.089 173.462 29.3029C173.834 29.5167 174.12 29.821 174.321 30.2156C174.525 30.6102 174.628 31.0634 174.631 31.5751V31.9303C174.631 32.4548 174.529 32.9143 174.325 33.3089C174.124 33.7036 173.835 34.0065 173.458 34.2178C173.084 34.4292 172.647 34.5374 172.148 34.5424H170.609ZM171.342 29.5855V33.9429H172.114C172.679 33.9429 173.118 33.7672 173.431 33.4159C173.747 33.0645 173.905 32.5642 173.905 31.915V31.5904C173.905 30.959 173.756 30.4689 173.458 30.1201C173.163 29.7688 172.743 29.5906 172.198 29.5855H171.342ZM175.444 32.4382C175.444 32.0334 175.523 31.6693 175.681 31.346C175.841 31.0227 176.063 30.7732 176.345 30.5975C176.63 30.4218 176.955 30.334 177.319 30.334C177.882 30.334 178.336 30.5288 178.682 30.9183C179.031 31.3078 179.206 31.8259 179.206 32.4726V32.5222C179.206 32.9245 179.128 33.286 178.973 33.6068C178.82 33.9251 178.6 34.1733 178.312 34.3515C178.027 34.5297 177.698 34.6188 177.327 34.6188C176.767 34.6188 176.312 34.4241 175.963 34.0345C175.617 33.645 175.444 33.1294 175.444 32.4879V32.4382ZM176.154 32.5222C176.154 32.9805 176.26 33.3484 176.471 33.6259C176.685 33.9034 176.97 34.0422 177.327 34.0422C177.686 34.0422 177.971 33.9021 178.182 33.6221C178.393 33.3395 178.499 32.9449 178.499 32.4382C178.499 31.985 178.391 31.6184 178.174 31.3384C177.961 31.0558 177.675 30.9145 177.319 30.9145C176.97 30.9145 176.689 31.0532 176.475 31.3307C176.261 31.6082 176.154 32.0054 176.154 32.5222ZM180.76 30.4104L180.783 30.9297C181.099 30.5326 181.511 30.334 182.02 30.334C182.893 30.334 183.334 30.8266 183.342 31.8119V34.5424H182.635V31.8081C182.632 31.5102 182.564 31.29 182.429 31.1474C182.296 31.0049 182.089 30.9336 181.806 30.9336C181.577 30.9336 181.376 30.9947 181.203 31.1169C181.03 31.2391 180.895 31.3995 180.798 31.5981V34.5424H180.092V30.4104H180.76ZM186.958 34.5424C186.917 34.461 186.884 34.3159 186.859 34.1071C186.53 34.4482 186.138 34.6188 185.683 34.6188C185.275 34.6188 184.94 34.5043 184.678 34.2751C184.418 34.0434 184.289 33.7507 184.289 33.3968C184.289 32.9665 184.452 32.633 184.777 32.3962C185.106 32.1569 185.567 32.0372 186.16 32.0372H186.847V31.7126C186.847 31.4657 186.773 31.2696 186.626 31.1245C186.478 30.9768 186.26 30.903 185.973 30.903C185.721 30.903 185.509 30.9667 185.339 31.094C185.168 31.2213 185.083 31.3753 185.083 31.5561H184.373C184.373 31.3498 184.445 31.1512 184.59 30.9603C184.738 30.7668 184.937 30.614 185.186 30.502C185.438 30.39 185.714 30.334 186.015 30.334C186.491 30.334 186.864 30.4537 187.134 30.693C187.404 30.9297 187.544 31.2569 187.554 31.6744V33.5763C187.554 33.9556 187.602 34.2573 187.699 34.4813V34.5424H186.958ZM185.786 34.004C186.007 34.004 186.217 33.9467 186.416 33.8321C186.614 33.7176 186.758 33.5686 186.847 33.3853V32.5375H186.294C185.428 32.5375 184.995 32.7908 184.995 33.2975C184.995 33.519 185.069 33.6921 185.217 33.8169C185.364 33.9416 185.554 34.004 185.786 34.004Z" fill="white"/>
<path d="M169.103 21.9095C185.232 21.9095 198.307 17.3919 198.307 11.8192C198.307 6.24651 185.232 1.72894 169.103 1.72894C152.974 1.72894 139.899 6.24651 139.899 11.8192C139.899 17.3919 152.974 21.9095 169.103 21.9095Z" fill="white" stroke="black" stroke-width="0.264583"/>
<path d="M135.666 18.1214L147.56 12.0216L148.576 15.9668L135.666 18.1214Z" fill="white"/>
<path d="M169.103 21.9095C185.232 21.9095 198.307 17.3919 198.307 11.8192C198.307 6.24651 185.232 1.72894 169.103 1.72894C152.974 1.72894 139.899 6.24651 139.899 11.8192C139.899 17.3919 152.974 21.9095 169.103 21.9095Z" fill="white"/>
<path d="M147.251 7.90004H145.338L144.909 9.09164H144.288L146.031 4.52593H146.558L148.305 9.09164H147.687L147.251 7.90004ZM145.52 7.40459H147.072L146.295 5.26911L145.52 7.40459ZM151.701 7.43281C151.701 7.95126 151.582 8.36832 151.343 8.68399C151.105 8.99757 150.785 9.15436 150.384 9.15436C149.955 9.15436 149.624 9.0028 149.39 8.69967L149.362 9.09164H148.828V4.27507H149.409V6.07188C149.643 5.78129 149.966 5.636 150.378 5.636C150.789 5.636 151.112 5.79175 151.346 6.10324C151.583 6.41472 151.701 6.84119 151.701 7.38264V7.43281ZM151.121 7.36696C151.121 6.97185 151.044 6.66663 150.892 6.45131C150.739 6.23598 150.52 6.12832 150.233 6.12832C149.851 6.12832 149.576 6.30602 149.409 6.66141V8.12896C149.586 8.48435 149.863 8.66204 150.24 8.66204C150.518 8.66204 150.734 8.55438 150.889 8.33905C151.043 8.12373 151.121 7.7997 151.121 7.36696ZM155.307 7.43281C155.307 7.95126 155.188 8.36832 154.949 8.68399C154.711 8.99757 154.391 9.15436 153.99 9.15436C153.561 9.15436 153.23 9.0028 152.996 8.69967L152.968 9.09164H152.435V4.27507H153.015V6.07188C153.249 5.78129 153.572 5.636 153.984 5.636C154.396 5.636 154.718 5.79175 154.953 6.10324C155.189 6.41472 155.307 6.84119 155.307 7.38264V7.43281ZM154.727 7.36696C154.727 6.97185 154.651 6.66663 154.498 6.45131C154.345 6.23598 154.126 6.12832 153.839 6.12832C153.457 6.12832 153.182 6.30602 153.015 6.66141V8.12896C153.192 8.48435 153.469 8.66204 153.846 8.66204C154.124 8.66204 154.34 8.55438 154.495 8.33905C154.65 8.12373 154.727 7.7997 154.727 7.36696ZM156.671 9.09164H156.091V5.69872H156.671V9.09164ZM156.044 4.79875C156.044 4.70467 156.072 4.62523 156.129 4.56043C156.187 4.49562 156.273 4.46322 156.386 4.46322C156.499 4.46322 156.584 4.49562 156.643 4.56043C156.701 4.62523 156.731 4.70467 156.731 4.79875C156.731 4.89282 156.701 4.97121 156.643 5.03393C156.584 5.09665 156.499 5.128 156.386 5.128C156.273 5.128 156.187 5.09665 156.129 5.03393C156.072 4.97121 156.044 4.89282 156.044 4.79875ZM159.697 9.09164C159.664 9.02475 159.636 8.90559 159.616 8.73416C159.346 9.01429 159.024 9.15436 158.65 9.15436C158.315 9.15436 158.04 9.06029 157.825 8.87214C157.612 8.6819 157.505 8.44149 157.505 8.15091C157.505 7.79761 157.639 7.52375 157.907 7.32933C158.176 7.13282 158.555 7.03457 159.042 7.03457H159.606V6.76802C159.606 6.56524 159.546 6.40427 159.424 6.28511C159.303 6.16386 159.124 6.10324 158.888 6.10324C158.681 6.10324 158.508 6.1555 158.368 6.26002C158.227 6.36455 158.157 6.49103 158.157 6.63946H157.574C157.574 6.47012 157.634 6.30706 157.753 6.15027C157.874 5.99139 158.037 5.86596 158.242 5.77398C158.449 5.68199 158.676 5.636 158.923 5.636C159.313 5.636 159.62 5.73426 159.841 5.93077C160.063 6.12519 160.178 6.39382 160.186 6.73667V8.29829C160.186 8.60978 160.226 8.85751 160.305 9.04147V9.09164H159.697ZM158.734 8.6495C158.916 8.6495 159.089 8.60246 159.252 8.50839C159.415 8.41431 159.533 8.29202 159.606 8.1415V7.44535H159.151C158.441 7.44535 158.085 7.65336 158.085 8.06938C158.085 8.25125 158.146 8.39341 158.267 8.49584C158.388 8.59828 158.544 8.6495 158.734 8.6495ZM161.641 5.69872L161.657 6.07501C161.906 5.78234 162.241 5.636 162.664 5.636C163.138 5.636 163.461 5.81788 163.633 6.18163C163.745 6.01857 163.892 5.88687 164.072 5.78652C164.253 5.68618 164.468 5.636 164.714 5.636C165.459 5.636 165.837 6.03007 165.85 6.8182V9.09164H165.269V6.85269C165.269 6.61019 165.214 6.42936 165.103 6.3102C164.992 6.18895 164.806 6.12832 164.545 6.12832C164.33 6.12832 164.151 6.19313 164.009 6.32274C163.867 6.45026 163.784 6.62273 163.761 6.84015V9.09164H163.178V6.86837C163.178 6.375 162.936 6.12832 162.453 6.12832C162.073 6.12832 161.813 6.29034 161.673 6.61437V9.09164H161.093V5.69872H161.641ZM166.574 7.36382C166.574 7.03143 166.639 6.73248 166.768 6.46699C166.9 6.20149 167.082 5.99662 167.314 5.85237C167.548 5.70813 167.815 5.636 168.114 5.636C168.576 5.636 168.949 5.79593 169.233 6.11578C169.519 6.43563 169.663 6.86105 169.663 7.39205V7.43281C169.663 7.76311 169.599 8.05997 169.471 8.32338C169.346 8.58469 169.165 8.78852 168.929 8.93485C168.695 9.08119 168.425 9.15436 168.12 9.15436C167.66 9.15436 167.287 8.99443 167 8.67458C166.716 8.35473 166.574 7.9314 166.574 7.40459V7.36382ZM167.157 7.43281C167.157 7.80911 167.244 8.11119 167.417 8.33905C167.593 8.56692 167.827 8.68086 168.12 8.68086C168.415 8.68086 168.649 8.56588 168.822 8.33592C168.996 8.10387 169.083 7.77984 169.083 7.36382C169.083 6.99171 168.994 6.69067 168.816 6.46072C168.64 6.22867 168.406 6.11264 168.114 6.11264C167.827 6.11264 167.596 6.22658 167.421 6.45444C167.245 6.68231 167.157 7.00843 167.157 7.43281ZM174.856 7.43281C174.856 7.95126 174.736 8.36832 174.498 8.68399C174.26 8.99757 173.94 9.15436 173.538 9.15436C173.11 9.15436 172.779 9.0028 172.544 8.69967L172.516 9.09164H171.983V4.27507H172.563V6.07188C172.797 5.78129 173.12 5.636 173.532 5.636C173.944 5.636 174.267 5.79175 174.501 6.10324C174.737 6.41472 174.856 6.84119 174.856 7.38264V7.43281ZM174.275 7.36696C174.275 6.97185 174.199 6.66663 174.046 6.45131C173.894 6.23598 173.674 6.12832 173.388 6.12832C173.005 6.12832 172.73 6.30602 172.563 6.66141V8.12896C172.741 8.48435 173.018 8.66204 173.394 8.66204C173.672 8.66204 173.889 8.55438 174.043 8.33905C174.198 8.12373 174.275 7.7997 174.275 7.36696ZM176.22 9.09164H175.639V5.69872H176.22V9.09164ZM175.592 4.79875C175.592 4.70467 175.621 4.62523 175.677 4.56043C175.736 4.49562 175.821 4.46322 175.934 4.46322C176.047 4.46322 176.133 4.49562 176.191 4.56043C176.25 4.62523 176.279 4.70467 176.279 4.79875C176.279 4.89282 176.25 4.97121 176.191 5.03393C176.133 5.09665 176.047 5.128 175.934 5.128C175.821 5.128 175.736 5.09665 175.677 5.03393C175.621 4.97121 175.592 4.89282 175.592 4.79875ZM179.126 8.19167C179.126 8.03488 179.067 7.91363 178.948 7.82792C178.831 7.74012 178.625 7.66486 178.33 7.60214C178.037 7.53943 177.804 7.46417 177.631 7.37637C177.459 7.28856 177.332 7.18404 177.248 7.06279C177.167 6.94154 177.126 6.79729 177.126 6.63005C177.126 6.35201 177.243 6.11682 177.477 5.9245C177.713 5.73217 178.014 5.636 178.38 5.636C178.765 5.636 179.076 5.7353 179.315 5.9339C179.555 6.1325 179.675 6.3865 179.675 6.6959H179.092C179.092 6.53702 179.024 6.40009 178.888 6.28511C178.754 6.17013 178.585 6.11264 178.38 6.11264C178.169 6.11264 178.004 6.15863 177.885 6.25062C177.766 6.3426 177.706 6.46281 177.706 6.61123C177.706 6.7513 177.761 6.85687 177.872 6.92795C177.983 6.99903 178.183 7.06697 178.471 7.13177C178.762 7.19658 178.997 7.27393 179.177 7.36382C179.356 7.45372 179.489 7.56242 179.575 7.68995C179.663 7.81538 179.707 7.96903 179.707 8.15091C179.707 8.45403 179.585 8.69758 179.343 8.88155C179.1 9.06342 178.786 9.15436 178.399 9.15436C178.127 9.15436 177.887 9.10628 177.678 9.01011C177.469 8.91395 177.305 8.78016 177.185 8.60873C177.068 8.43522 177.01 8.24812 177.01 8.04743H177.59C177.6 8.24184 177.678 8.39654 177.822 8.51152C177.968 8.62441 178.161 8.68086 178.399 8.68086C178.618 8.68086 178.794 8.63695 178.926 8.54915C179.06 8.45926 179.126 8.3401 179.126 8.19167ZM180.309 7.36382C180.309 7.03143 180.373 6.73248 180.503 6.46699C180.635 6.20149 180.817 5.99662 181.049 5.85237C181.283 5.70813 181.549 5.636 181.848 5.636C182.31 5.636 182.683 5.79593 182.968 6.11578C183.254 6.43563 183.397 6.86105 183.397 7.39205V7.43281C183.397 7.76311 183.334 8.05997 183.206 8.32338C183.081 8.58469 182.9 8.78852 182.664 8.93485C182.429 9.08119 182.16 9.15436 181.855 9.15436C181.395 9.15436 181.022 8.99443 180.735 8.67458C180.451 8.35473 180.309 7.9314 180.309 7.40459V7.36382ZM180.892 7.43281C180.892 7.80911 180.979 8.11119 181.152 8.33905C181.328 8.56692 181.562 8.68086 181.855 8.68086C182.149 8.68086 182.383 8.56588 182.557 8.33592C182.731 8.10387 182.817 7.77984 182.817 7.36382C182.817 6.99171 182.728 6.69067 182.551 6.46072C182.375 6.22867 182.141 6.11264 181.848 6.11264C181.562 6.11264 181.331 6.22658 181.155 6.45444C180.98 6.68231 180.892 7.00843 180.892 7.43281ZM183.987 7.36696C183.987 6.83806 184.109 6.41786 184.354 6.10637C184.598 5.79279 184.922 5.636 185.326 5.636C185.74 5.636 186.063 5.78234 186.295 6.07501L186.323 5.69872H186.853V9.01011C186.853 9.44912 186.722 9.79511 186.461 10.0481C186.202 10.301 185.853 10.4275 185.414 10.4275C185.169 10.4275 184.93 10.3752 184.696 10.2707C184.461 10.1662 184.283 10.023 184.159 9.8411L184.46 9.49303C184.709 9.80033 185.013 9.95399 185.373 9.95399C185.655 9.95399 185.875 9.87455 186.031 9.71567C186.19 9.55679 186.27 9.3331 186.27 9.04461V8.75298C186.038 9.02057 185.721 9.15436 185.32 9.15436C184.922 9.15436 184.6 8.99443 184.354 8.67458C184.109 8.35473 183.987 7.91886 183.987 7.36696ZM184.57 7.43281C184.57 7.81538 184.649 8.11641 184.805 8.33592C184.962 8.55333 185.182 8.66204 185.464 8.66204C185.83 8.66204 186.098 8.49584 186.27 8.16345V6.61437C186.092 6.29034 185.826 6.12832 185.47 6.12832C185.188 6.12832 184.967 6.23807 184.809 6.45758C184.65 6.67709 184.57 7.00216 184.57 7.43281ZM188.28 5.69872L188.299 6.12519C188.558 5.79906 188.897 5.636 189.315 5.636C190.032 5.636 190.393 6.04052 190.4 6.84955V9.09164H189.819V6.84642C189.817 6.60183 189.761 6.421 189.65 6.30393C189.541 6.18686 189.371 6.12832 189.139 6.12832C188.951 6.12832 188.786 6.17849 188.644 6.27884C188.501 6.37919 188.391 6.51089 188.311 6.67395V9.09164H187.731V5.69872H188.28ZM191.121 7.36382C191.121 7.03143 191.186 6.73248 191.315 6.46699C191.447 6.20149 191.629 5.99662 191.861 5.85237C192.095 5.70813 192.362 5.636 192.661 5.636C193.123 5.636 193.496 5.79593 193.78 6.11578C194.066 6.43563 194.21 6.86105 194.21 7.39205V7.43281C194.21 7.76311 194.146 8.05997 194.018 8.32338C193.893 8.58469 193.712 8.78852 193.476 8.93485C193.242 9.08119 192.972 9.15436 192.667 9.15436C192.207 9.15436 191.834 8.99443 191.547 8.67458C191.263 8.35473 191.121 7.9314 191.121 7.40459V7.36382ZM191.704 7.43281C191.704 7.80911 191.791 8.11119 191.964 8.33905C192.14 8.56692 192.374 8.68086 192.667 8.68086C192.962 8.68086 193.196 8.56588 193.369 8.33592C193.543 8.10387 193.629 7.77984 193.629 7.36382C193.629 6.99171 193.541 6.69067 193.363 6.46072C193.187 6.22867 192.953 6.11264 192.661 6.11264C192.374 6.11264 192.143 6.22658 191.968 6.45444C191.792 6.68231 191.704 7.00843 191.704 7.43281ZM145.395 15.367C145.395 14.8464 145.518 14.4283 145.765 14.1126C146.011 13.7949 146.334 13.636 146.734 13.636C147.131 13.636 147.446 13.7719 147.678 14.0437V12.2751H148.258V17.0916H147.725L147.696 16.7279C147.464 17.0122 147.141 17.1544 146.727 17.1544C146.334 17.1544 146.014 16.9934 145.765 16.6714C145.518 16.3495 145.395 15.9293 145.395 15.4109V15.367ZM145.975 15.4328C145.975 15.8175 146.054 16.1185 146.213 16.3359C146.372 16.5533 146.592 16.662 146.872 16.662C147.24 16.662 147.508 16.4969 147.678 16.1666V14.6081C147.504 14.2882 147.238 14.1283 146.878 14.1283C146.594 14.1283 146.372 14.2381 146.213 14.4576C146.054 14.6771 145.975 15.0022 145.975 15.4328ZM150.569 17.1544C150.109 17.1544 149.735 17.0038 149.446 16.7028C149.158 16.3997 149.013 15.9952 149.013 15.4893V15.3826C149.013 15.0461 149.077 14.7461 149.205 14.4827C149.334 14.2172 149.514 14.0102 149.744 13.8618C149.976 13.7113 150.227 13.636 150.497 13.636C150.938 13.636 151.281 13.7813 151.525 14.0719C151.77 14.3625 151.892 14.7785 151.892 15.3199V15.5614H149.594C149.602 15.8959 149.699 16.1666 149.885 16.3735C150.073 16.5784 150.312 16.6809 150.6 16.6809C150.805 16.6809 150.979 16.639 151.121 16.5554C151.263 16.4718 151.387 16.361 151.494 16.223L151.848 16.499C151.564 16.9359 151.137 17.1544 150.569 17.1544ZM150.497 14.1126C150.263 14.1126 150.066 14.1984 149.907 14.3698C149.748 14.5391 149.65 14.7774 149.612 15.0847H151.312V15.0408C151.295 14.7461 151.216 14.5182 151.074 14.3572C150.932 14.1942 150.739 14.1126 150.497 14.1126ZM153.197 17.0916H152.616V12.2751H153.197V17.0916ZM156.508 12.8771V13.6987H157.141V14.1471H156.508V16.2513C156.508 16.3871 156.536 16.4896 156.593 16.5586C156.649 16.6255 156.745 16.6589 156.881 16.6589C156.948 16.6589 157.04 16.6464 157.157 16.6213V17.0916C157.004 17.1335 156.856 17.1544 156.712 17.1544C156.453 17.1544 156.257 17.076 156.125 16.9192C155.994 16.7624 155.928 16.5397 155.928 16.2513V14.1471H155.31V13.6987H155.928V12.8771H156.508ZM159.917 16.7561C159.691 17.0216 159.359 17.1544 158.923 17.1544C158.561 17.1544 158.285 17.0498 158.095 16.8408C157.907 16.6296 157.811 16.3181 157.809 15.9063V13.6987H158.389V15.8906C158.389 16.4049 158.599 16.662 159.017 16.662C159.46 16.662 159.755 16.4969 159.901 16.1666V13.6987H160.481V17.0916H159.929L159.917 16.7561ZM161.212 15.3638C161.212 15.0314 161.276 14.7325 161.406 14.467C161.538 14.2015 161.72 13.9966 161.952 13.8524C162.186 13.7081 162.452 13.636 162.751 13.636C163.213 13.636 163.587 13.7959 163.871 14.1158C164.157 14.4356 164.3 14.8611 164.3 15.392V15.4328C164.3 15.7631 164.237 16.06 164.109 16.3234C163.984 16.5847 163.803 16.7885 163.567 16.9349C163.333 17.0812 163.063 17.1544 162.758 17.1544C162.298 17.1544 161.925 16.9944 161.638 16.6746C161.354 16.3547 161.212 15.9314 161.212 15.4046V15.3638ZM161.795 15.4328C161.795 15.8091 161.882 16.1112 162.055 16.3391C162.231 16.5669 162.465 16.6809 162.758 16.6809C163.052 16.6809 163.287 16.5659 163.46 16.3359C163.634 16.1039 163.72 15.7798 163.72 15.3638C163.72 14.9917 163.631 14.6907 163.454 14.4607C163.278 14.2287 163.044 14.1126 162.751 14.1126C162.465 14.1126 162.234 14.2266 162.058 14.4544C161.883 14.6823 161.795 15.0084 161.795 15.4328ZM168.596 16.1917C168.596 16.0349 168.537 15.9136 168.418 15.8279C168.301 15.7401 168.095 15.6649 167.8 15.6021C167.507 15.5394 167.274 15.4642 167.101 15.3764C166.929 15.2886 166.802 15.184 166.718 15.0628C166.637 14.9415 166.596 14.7973 166.596 14.63C166.596 14.352 166.713 14.1168 166.947 13.9245C167.183 13.7322 167.484 13.636 167.85 13.636C168.235 13.636 168.546 13.7353 168.785 13.9339C169.025 14.1325 169.145 14.3865 169.145 14.6959H168.562C168.562 14.537 168.494 14.4001 168.358 14.2851C168.224 14.1701 168.055 14.1126 167.85 14.1126C167.639 14.1126 167.474 14.1586 167.355 14.2506C167.236 14.3426 167.176 14.4628 167.176 14.6112C167.176 14.7513 167.231 14.8569 167.342 14.9279C167.453 14.999 167.653 15.067 167.941 15.1318C168.232 15.1966 168.467 15.2739 168.647 15.3638C168.826 15.4537 168.959 15.5624 169.045 15.6899C169.133 15.8154 169.177 15.969 169.177 16.1509C169.177 16.454 169.055 16.6976 168.813 16.8815C168.57 17.0634 168.256 17.1544 167.869 17.1544C167.597 17.1544 167.357 17.1063 167.148 17.0101C166.939 16.9139 166.775 16.7802 166.655 16.6087C166.538 16.4352 166.48 16.2481 166.48 16.0474H167.06C167.07 16.2418 167.148 16.3965 167.292 16.5115C167.438 16.6244 167.631 16.6809 167.869 16.6809C168.088 16.6809 168.264 16.637 168.396 16.5492C168.53 16.4593 168.596 16.3401 168.596 16.1917ZM172.027 16.7561C171.801 17.0216 171.47 17.1544 171.033 17.1544C170.671 17.1544 170.395 17.0498 170.205 16.8408C170.017 16.6296 169.922 16.3181 169.92 15.9063V13.6987H170.5V15.8906C170.5 16.4049 170.709 16.662 171.127 16.662C171.57 16.662 171.865 16.4969 172.011 16.1666V13.6987H172.591V17.0916H172.04L172.027 16.7561ZM176.342 15.4328C176.342 15.9492 176.224 16.3652 175.988 16.6809C175.751 16.9965 175.431 17.1544 175.028 17.1544C174.616 17.1544 174.292 17.0237 174.056 16.7624V18.3961H173.476V13.6987H174.006L174.034 14.075C174.27 13.7823 174.598 13.636 175.019 13.636C175.426 13.636 175.748 13.7897 175.984 14.097C176.223 14.4043 176.342 14.8318 176.342 15.3795V15.4328ZM175.762 15.367C175.762 14.9844 175.68 14.6823 175.517 14.4607C175.354 14.2391 175.13 14.1283 174.846 14.1283C174.495 14.1283 174.231 14.2841 174.056 14.5956V16.2168C174.229 16.5262 174.495 16.6809 174.852 16.6809C175.13 16.6809 175.351 16.5711 175.514 16.3516C175.679 16.13 175.762 15.8018 175.762 15.367ZM179.948 15.4328C179.948 15.9492 179.83 16.3652 179.594 16.6809C179.357 16.9965 179.038 17.1544 178.634 17.1544C178.222 17.1544 177.898 17.0237 177.662 16.7624V18.3961H177.082V13.6987H177.612L177.64 14.075C177.876 13.7823 178.205 13.636 178.625 13.636C179.032 13.636 179.354 13.7897 179.591 14.097C179.829 14.4043 179.948 14.8318 179.948 15.3795V15.4328ZM179.368 15.367C179.368 14.9844 179.286 14.6823 179.123 14.4607C178.96 14.2391 178.737 14.1283 178.452 14.1283C178.101 14.1283 177.838 14.2841 177.662 14.5956V16.2168C177.836 16.5262 178.101 16.6809 178.459 16.6809C178.737 16.6809 178.957 16.5711 179.12 16.3516C179.285 16.13 179.368 15.8018 179.368 15.367ZM180.534 15.3638C180.534 15.0314 180.599 14.7325 180.729 14.467C180.861 14.2015 181.042 13.9966 181.274 13.8524C181.509 13.7081 181.775 13.636 182.074 13.636C182.536 13.636 182.909 13.7959 183.194 14.1158C183.48 14.4356 183.623 14.8611 183.623 15.392V15.4328C183.623 15.7631 183.559 16.06 183.432 16.3234C183.306 16.5847 183.126 16.7885 182.889 16.9349C182.655 17.0812 182.386 17.1544 182.08 17.1544C181.62 17.1544 181.247 16.9944 180.961 16.6746C180.677 16.3547 180.534 15.9314 180.534 15.4046V15.3638ZM181.118 15.4328C181.118 15.8091 181.204 16.1112 181.378 16.3391C181.554 16.5669 181.788 16.6809 182.08 16.6809C182.375 16.6809 182.609 16.5659 182.783 16.3359C182.956 16.1039 183.043 15.7798 183.043 15.3638C183.043 14.9917 182.954 14.6907 182.777 14.4607C182.601 14.2287 182.367 14.1126 182.074 14.1126C181.788 14.1126 181.557 14.2266 181.381 14.4544C181.205 14.6823 181.118 15.0084 181.118 15.4328ZM185.991 14.2193C185.903 14.2046 185.808 14.1973 185.705 14.1973C185.325 14.1973 185.067 14.3593 184.931 14.6834V17.0916H184.351V13.6987H184.915L184.925 14.0907C185.115 13.7876 185.384 13.636 185.734 13.636C185.846 13.636 185.932 13.6506 185.991 13.6799V14.2193ZM187.471 12.8771V13.6987H188.104V14.1471H187.471V16.2513C187.471 16.3871 187.499 16.4896 187.555 16.5586C187.612 16.6255 187.708 16.6589 187.844 16.6589C187.911 16.6589 188.003 16.6464 188.12 16.6213V17.0916C187.967 17.1335 187.819 17.1544 187.675 17.1544C187.415 17.1544 187.22 17.076 187.088 16.9192C186.957 16.7624 186.891 16.5397 186.891 16.2513V14.1471H186.273V13.6987H186.891V12.8771H187.471ZM188.568 15.3638C188.568 15.0314 188.633 14.7325 188.763 14.467C188.894 14.2015 189.076 13.9966 189.308 13.8524C189.543 13.7081 189.809 13.636 190.108 13.636C190.57 13.636 190.943 13.7959 191.227 14.1158C191.514 14.4356 191.657 14.8611 191.657 15.392V15.4328C191.657 15.7631 191.593 16.06 191.466 16.3234C191.34 16.5847 191.16 16.7885 190.923 16.9349C190.689 17.0812 190.419 17.1544 190.114 17.1544C189.654 17.1544 189.281 16.9944 188.995 16.6746C188.71 16.3547 188.568 15.9314 188.568 15.4046V15.3638ZM189.152 15.4328C189.152 15.8091 189.238 16.1112 189.412 16.3391C189.587 16.5669 189.822 16.6809 190.114 16.6809C190.409 16.6809 190.643 16.5659 190.817 16.3359C190.99 16.1039 191.077 15.7798 191.077 15.3638C191.077 14.9917 190.988 14.6907 190.81 14.4607C190.635 14.2287 190.401 14.1126 190.108 14.1126C189.822 14.1126 189.591 14.2266 189.415 14.4544C189.239 14.6823 189.152 15.0084 189.152 15.4328ZM193.034 15.8028H192.51L192.469 12.5259H193.078L193.034 15.8028ZM192.447 16.8C192.447 16.7059 192.476 16.6275 192.532 16.5648C192.59 16.5 192.676 16.4676 192.789 16.4676C192.902 16.4676 192.988 16.5 193.046 16.5648C193.105 16.6275 193.134 16.7059 193.134 16.8C193.134 16.8941 193.105 16.9725 193.046 17.0352C192.988 17.0958 192.902 17.1261 192.789 17.1261C192.676 17.1261 192.59 17.0958 192.532 17.0352C192.476 16.9725 192.447 16.8941 192.447 16.8Z" fill="black"/>
</g>
<defs>
<clipPath id="clip0">
<rect width="212" height="40" fill="white"/>
</clipPath>
</defs>
</svg>
