<?xml version="1.0" encoding="UTF-8" standalone="no"?>
<svg
   xmlns:dc="http://purl.org/dc/elements/1.1/"
   xmlns:cc="http://creativecommons.org/ns#"
   xmlns:rdf="http://www.w3.org/1999/02/22-rdf-syntax-ns#"
   xmlns:svg="http://www.w3.org/2000/svg"
   xmlns="http://www.w3.org/2000/svg"
   version="1.1"
   id="svg2"
   viewBox="0 0 800 150"
   height="150"
   width="800">
  <defs
     id="defs4">
    <clipPath
       clipPathUnits="userSpaceOnUse"
       id="clipPath3671">
      <path
         d="m 748.38,337.76 c 33.96,3.67 103.24,-40.5 67.5,-128.64 -35.73,-88.15 -146.4,-69.02 -162,-18.27 -2.95,9.6 45.52,19.72 65.91,58.77 20.4,39.04 12.02,86.36 28.59,88.14 z"
         style="fill:url(#radialGradient3675);fill-rule:evenodd"
         id="path3673" />
    </clipPath>
    <clipPath
       clipPathUnits="userSpaceOnUse"
       id="clipPath3903">
      <path
         d="m 214.32,159.35 c 19.3,-6.75 57.29,-29.59 42.68,-41.84 -21.91,7.51 -56.52,-55.102 -120.73,-13.75 -36.87,23.74 12.21,90.26 -0.14,107.67 17.15,-28.61 27.96,-34.58 78.19,-52.08 z"
         style="fill:url(#linearGradient3907);fill-rule:evenodd"
         id="path3905" />
    </clipPath>
    <clipPath
       clipPathUnits="userSpaceOnUse"
       id="clipPath3671-6">
      <path
         d="m 748.38,337.76 c 33.96,3.67 103.24,-40.5 67.5,-128.64 -35.73,-88.15 -146.4,-69.02 -162,-18.27 -2.95,9.6 45.52,19.72 65.91,58.77 20.4,39.04 12.02,86.36 28.59,88.14 z"
         style="fill:url(#radialGradient3675);fill-rule:evenodd"
         id="path3673-5" />
    </clipPath>
    <clipPath
       clipPathUnits="userSpaceOnUse"
       id="clipPath3903-4">
      <path
         d="m 214.32,159.35 c 19.3,-6.75 57.29,-29.59 42.68,-41.84 -21.91,7.51 -56.52,-55.102 -120.73,-13.75 -36.87,23.74 12.21,90.26 -0.14,107.67 17.15,-28.61 27.96,-34.58 78.19,-52.08 z"
         style="fill:url(#linearGradient3907);fill-rule:evenodd"
         id="path3905-1" />
    </clipPath>
    <clipPath
       clipPathUnits="userSpaceOnUse"
       id="clipPath3671-4">
      <path
         d="m 748.38,337.76 c 33.96,3.67 103.24,-40.5 67.5,-128.64 -35.73,-88.15 -146.4,-69.02 -162,-18.27 -2.95,9.6 45.52,19.72 65.91,58.77 20.4,39.04 12.02,86.36 28.59,88.14 z"
         style="fill:url(#radialGradient3675);fill-rule:evenodd"
         id="path3673-8" />
    </clipPath>
    <clipPath
       clipPathUnits="userSpaceOnUse"
       id="clipPath3903-3">
      <path
         d="m 214.32,159.35 c 19.3,-6.75 57.29,-29.59 42.68,-41.84 -21.91,7.51 -56.52,-55.102 -120.73,-13.75 -36.87,23.74 12.21,90.26 -0.14,107.67 17.15,-28.61 27.96,-34.58 78.19,-52.08 z"
         style="fill:url(#linearGradient3907);fill-rule:evenodd"
         id="path3905-3" />
    </clipPath>
    <clipPath
       clipPathUnits="userSpaceOnUse"
       id="clipPath3671-0">
      <path
         d="m 748.38,337.76 c 33.96,3.67 103.24,-40.5 67.5,-128.64 -35.73,-88.15 -146.4,-69.02 -162,-18.27 -2.95,9.6 45.52,19.72 65.91,58.77 20.4,39.04 12.02,86.36 28.59,88.14 z"
         style="fill:url(#radialGradient3675);fill-rule:evenodd"
         id="path3673-4" />
    </clipPath>
    <clipPath
       clipPathUnits="userSpaceOnUse"
       id="clipPath3903-7">
      <path
         d="m 214.32,159.35 c 19.3,-6.75 57.29,-29.59 42.68,-41.84 -21.91,7.51 -56.52,-55.102 -120.73,-13.75 -36.87,23.74 12.21,90.26 -0.14,107.67 17.15,-28.61 27.96,-34.58 78.19,-52.08 z"
         style="fill:url(#linearGradient3907);fill-rule:evenodd"
         id="path3905-37" />
    </clipPath>
    <clipPath
       clipPathUnits="userSpaceOnUse"
       id="clipPath3671-0-6">
      <path
         d="m 748.38,337.76 c 33.96,3.67 103.24,-40.5 67.5,-128.64 -35.73,-88.15 -146.4,-69.02 -162,-18.27 -2.95,9.6 45.52,19.72 65.91,58.77 20.4,39.04 12.02,86.36 28.59,88.14 z"
         style="fill:url(#radialGradient3675);fill-rule:evenodd"
         id="path3673-4-5" />
    </clipPath>
    <clipPath
       clipPathUnits="userSpaceOnUse"
       id="clipPath3903-7-2">
      <path
         d="m 214.32,159.35 c 19.3,-6.75 57.29,-29.59 42.68,-41.84 -21.91,7.51 -56.52,-55.102 -120.73,-13.75 -36.87,23.74 12.21,90.26 -0.14,107.67 17.15,-28.61 27.96,-34.58 78.19,-52.08 z"
         style="fill:url(#linearGradient3907);fill-rule:evenodd"
         id="path3905-37-0" />
    </clipPath>
    <pattern
       id="EMFhbasepattern"
       patternUnits="userSpaceOnUse"
       width="6"
       height="6"
       x="0"
       y="0" />
  </defs>
  <metadata
     id="metadata7">
    <rdf:RDF>
      <cc:Work
         rdf:about="">
        <dc:format>image/svg+xml</dc:format>
        <dc:type
           rdf:resource="http://purl.org/dc/dcmitype/StillImage" />
        <dc:title></dc:title>
      </cc:Work>
    </rdf:RDF>
  </metadata>
  <g
     id="layer1">
    <rect
       style="opacity:1;fill:#000000;fill-opacity:1;fill-rule:evenodd;stroke:none;stroke-width:0.49254942;stroke-linecap:round;stroke-linejoin:round;stroke-miterlimit:4;stroke-dasharray:none;stroke-dashoffset:0;stroke-opacity:1"
       id="rect3650"
       width="50.784931"
       height="21.597515"
       x="299.74283"
       y="128.4025" />
    <rect
       style="opacity:1;fill:#00aa00;fill-opacity:1;fill-rule:nonzero;stroke:none;stroke-width:11.00542355;stroke-miterlimit:4;stroke-dasharray:none;stroke-opacity:1"
       id="rect2483"
       width="800"
       height="150"
       x="0"
       y="8.2861325e-006" />
    <rect
       y="8.2861325e-006"
       x="351.74878"
       height="150"
       width="448.25122"
       id="rect2485"
       style="opacity:1;fill:#ff2a2a;fill-opacity:1;fill-rule:nonzero;stroke:none;stroke-width:8.23801327;stroke-miterlimit:4;stroke-dasharray:none;stroke-opacity:1" />
    <path
       style="opacity:1;fill:#d5f6ff;fill-opacity:1;fill-rule:nonzero;stroke:none;stroke-width:0.96483946;stroke-miterlimit:4;stroke-dasharray:none;stroke-opacity:1"
       d="m 250.29297,0 31.91015,150 H 542.13086 L 510.2207,0 Z"
       id="path2487" />
    <path
       style="fill:none;fill-rule:evenodd;stroke:#000000;stroke-width:3.0885694;stroke-linecap:butt;stroke-linejoin:miter;stroke-miterlimit:4;stroke-dasharray:none;stroke-opacity:1"
       d="M 345.18756,86.1531 C 362.514,98.12052 380.62209,76.14778 396.36187,78.55835"
       id="path2493" />
    <path
       style="opacity:1;fill:#803300;fill-opacity:1;fill-rule:evenodd;stroke:none;stroke-width:0.49254942;stroke-linecap:round;stroke-linejoin:round;stroke-miterlimit:4;stroke-dasharray:none;stroke-dashoffset:0;stroke-opacity:1"
       d="m 325.09107,82.90808 a 33.907457,23.600922 0 0 1 -0.13271,0.003 33.907457,23.600922 0 0 1 -0.0965,-0.003 33.907457,33.907457 0 0 0 0.0965,0.005 33.907457,33.907457 0 0 0 0.13271,-0.005 z"
       id="path2505" />
    <path
       d="m 421.71435,133.00602 c 0,0 0.0372,4.62456 -2.61109,6.00448 -1.89126,0.98545 -5.89158,-1.08244 -5.89158,-1.08244 z"
       style="fill:#de8787;fill-rule:evenodd;stroke:none;stroke-width:0.39843822"
       id="path2517" />
    <path
       d="m 415.07372,92.3879 c 2.74258,0.92332 4.11055,5.25433 3.85024,7.11904 l -12.07667,-4.90478 c 1.78899,-0.52992 5.4679,-3.14263 8.22643,-2.21426 z"
       style="fill:#de8787;fill-rule:evenodd;stroke:none;stroke-width:0.39843822"
       id="path2519" />
    <path
       d="m 387.97062,144.70018 c 1.53531,1.34141 1.97891,5.37228 6.80267,5.22087 4.82641,-0.15141 5.58344,-3.79312 7.69915,-4.74805 2.02672,-0.91374 -16.06237,-1.83814 -14.50182,-0.47282 z"
       style="fill:#de8787;fill-rule:evenodd;stroke:none;stroke-width:0.39843822"
       id="path2521" />
    <path
       style="fill:#e9afaf;fill-rule:evenodd;stroke:none;stroke-width:0.39843822"
       d="m 401.47369,92.98557 c -4.14376,0.003 -8.31674,0.77163 -12.18158,2.19672 -10.96503,4.04149 -16.90574,13.06479 -18.3534,18.87932 -5.44134,21.85435 15.47269,29.27325 17.03324,30.63857 1.53531,1.34141 12.38611,1.42775 14.50182,0.47282 2.02672,-0.91374 5.69767,-0.32803 16.34792,-8.54117 10.59979,-8.17463 10.89729,-25.8839 3.69485,-34.49016 -2.71203,-3.2393 -5.72954,-5.39353 -9.40978,-6.885 -0.41969,-0.093 -1.01469,-0.12751 -1.32547,-0.13947 -0.11422,-0.18992 -0.24836,-0.35859 -0.45821,-0.55781 -3.14235,-1.07047 -6.48657,-1.57515 -9.84939,-1.57382 z"
       id="path2523" />
    <ellipse
       style="opacity:1;fill:#803300;fill-opacity:1;fill-rule:evenodd;stroke:none;stroke-width:2.15621924;stroke-linecap:round;stroke-linejoin:round;stroke-miterlimit:4;stroke-dasharray:none;stroke-dashoffset:0;stroke-opacity:1"
       id="ellipse2537"
       cx="475.85559"
       cy="57.893425"
       rx="33.851997"
       ry="42.575855" />
    <path
       id="path2539"
       d="m 475.85556,75.71101 c -20.8007,0 -37.54575,16.74504 -37.54575,37.54575 v 36.74325 h 75.0915 v -36.74325 c 0,-20.80071 -16.74505,-37.54575 -37.54575,-37.54575 z"
       style="opacity:1;fill:#00d400;fill-opacity:1;fill-rule:evenodd;stroke:none;stroke-width:2.15621924;stroke-linecap:round;stroke-linejoin:round;stroke-miterlimit:4;stroke-dasharray:none;stroke-dashoffset:0;stroke-opacity:1" />
    <path
       style="fill:none;fill-rule:evenodd;stroke:#000000;stroke-width:3.08351779;stroke-linecap:butt;stroke-linejoin:miter;stroke-miterlimit:4;stroke-dasharray:none;stroke-opacity:1"
       d="m 500.6874,88.42098 c 25.47106,-3.87806 39.08535,50.58795 0.40381,46.50421"
       id="path2541" />
    <path
       id="path2543"
       d="m 453.92104,87.70181 c -25.47107,-3.87807 -34.74985,49.95901 8.54373,25.03009"
       style="fill:none;fill-rule:evenodd;stroke:#000000;stroke-width:3.08351779;stroke-linecap:butt;stroke-linejoin:miter;stroke-miterlimit:4;stroke-dasharray:none;stroke-opacity:1" />
    <path
       style="opacity:1;fill:#00d400;fill-opacity:1;fill-rule:evenodd;stroke:none;stroke-width:2.15621924;stroke-linecap:round;stroke-linejoin:round;stroke-miterlimit:4;stroke-dasharray:none;stroke-dashoffset:0;stroke-opacity:1"
       d="m 475.8553,75.71101 c -12.82553,0 -24.1012,6.37197 -30.86831,16.12975 H 506.7251 C 499.958,82.08298 488.68082,75.71101 475.8553,75.71101 Z"
       id="path2545" />
    <circle
       r="28.483473"
       cy="49.169563"
       cx="475.85559"
       id="circle2547"
       style="opacity:1;fill:#ffcc00;fill-opacity:1;fill-rule:evenodd;stroke:none;stroke-width:2.15621924;stroke-linecap:round;stroke-linejoin:round;stroke-miterlimit:4;stroke-dasharray:none;stroke-dashoffset:0;stroke-opacity:1" />
    <g
       id="g2553"
       transform="matrix(0.09320613,0.12082765,-0.14906441,0.07555041,673.35054,103.86954)">
      <rect
         style="opacity:1;fill:#4d4d4d;fill-opacity:1;fill-rule:evenodd;stroke:none;stroke-width:3;stroke-linecap:round;stroke-linejoin:round;stroke-miterlimit:4;stroke-dasharray:none;stroke-dashoffset:0;stroke-opacity:1"
         id="rect2549"
         width="119.60222"
         height="221.39134"
         x="-651.43561"
         y="849.36151"
         ry="22.902554" />
      <circle
         style="opacity:1;fill:#e6e6e6;fill-opacity:1;fill-rule:evenodd;stroke:none;stroke-width:3;stroke-linecap:round;stroke-linejoin:round;stroke-miterlimit:4;stroke-dasharray:none;stroke-dashoffset:0;stroke-opacity:1"
         id="circle2551"
         cx="-591.63452"
         cy="876.77594"
         r="12.72364" />
    </g>
    <circle
       style="opacity:1;fill:#ffcc00;fill-opacity:1;fill-rule:evenodd;stroke:none;stroke-width:2.15621924;stroke-linecap:round;stroke-linejoin:round;stroke-miterlimit:4;stroke-dasharray:none;stroke-dashoffset:0;stroke-opacity:1"
       id="circle2555"
       cx="458.23837"
       cy="114.38152"
       r="5.8261638" />
    <rect
       style="opacity:1;fill:#ff0000;fill-opacity:1;fill-rule:evenodd;stroke:none;stroke-width:2.15621924;stroke-linecap:round;stroke-linejoin:round;stroke-miterlimit:4;stroke-dasharray:none;stroke-dashoffset:0;stroke-opacity:1"
       id="rect2557"
       width="9.8422985"
       height="20.968374"
       x="403.00537"
       y="-333.2822"
       ry="3.5990496"
       transform="rotate(50.980641)" />
    <rect
       ry="7.5252857"
       y="-325.67679"
       x="397.6369"
       height="43.842968"
       width="20.579351"
       id="rect2559"
       style="opacity:1;fill:#2b0000;fill-opacity:1;fill-rule:evenodd;stroke:none;stroke-width:2.15621924;stroke-linecap:round;stroke-linejoin:round;stroke-miterlimit:4;stroke-dasharray:none;stroke-dashoffset:0;stroke-opacity:1"
       transform="rotate(50.980641)" />
    <path
       id="path2561"
       d="m 494.68504,110.93873 -16.68325,13.51917 12.9561,15.98841 16.68325,-13.51917 z"
       style="opacity:1;fill:#ff0000;fill-opacity:1;fill-rule:evenodd;stroke:none;stroke-width:2.15621924;stroke-linecap:round;stroke-linejoin:round;stroke-miterlimit:4;stroke-dasharray:none;stroke-dashoffset:0;stroke-opacity:1" />
    <circle
       r="5.8261638"
       cy="135.00964"
       cx="499.54459"
       id="circle2563"
       style="opacity:1;fill:#ffcc00;fill-opacity:1;fill-rule:evenodd;stroke:none;stroke-width:2.15621924;stroke-linecap:round;stroke-linejoin:round;stroke-miterlimit:4;stroke-dasharray:none;stroke-dashoffset:0;stroke-opacity:1" />
    <path
       style="opacity:1;fill:#803300;fill-opacity:1;fill-rule:evenodd;stroke:none;stroke-width:2.15621924;stroke-linecap:round;stroke-linejoin:round;stroke-miterlimit:4;stroke-dasharray:none;stroke-dashoffset:0;stroke-opacity:1"
       d="m 475.98779,83.01781 a 33.852,23.562323 0 0 1 -0.13249,0.003 33.852,23.562323 0 0 1 -0.0964,-0.003 33.852,33.852 0 0 0 0.0964,0.004 33.852,33.852 0 0 0 0.13249,-0.004 z"
       id="path2565" />
    <path
       style="opacity:1;fill:#aa4400;fill-opacity:1;fill-rule:evenodd;stroke:none;stroke-width:2.15621924;stroke-linecap:round;stroke-linejoin:round;stroke-miterlimit:4;stroke-dasharray:none;stroke-dashoffset:0;stroke-opacity:1"
       d="m 475.8553,15.31742 a 33.852,33.852 0 0 0 -33.85245,33.85245 33.852,33.852 0 0 0 0.57063,6.09477 33.852,23.562323 0 0 1 0.10539,-0.48632 33.852,23.562323 0 0 1 0.83713,-2.28253 33.852,23.562323 0 0 1 1.15932,-2.21176 33.852,23.562323 0 0 1 1.47251,-2.12143 33.852,23.562323 0 0 1 1.7691,-2.00699 33.852,23.562323 0 0 1 2.04765,-1.87601 33.852,23.562323 0 0 1 2.30662,-1.72243 33.852,23.562323 0 0 1 2.54149,-1.55531 33.852,23.562323 0 0 1 2.75229,-1.37012 33.852,23.562323 0 0 1 2.93596,-1.17138 33.852,23.562323 0 0 1 3.08804,-0.96209 33.852,23.562323 0 0 1 3.2115,-0.74227 33.852,23.562323 0 0 1 3.30183,-0.51643 33.852,23.562323 0 0 1 3.35904,-0.28306 33.852,23.562323 0 0 1 2.39395,-0.0602 33.852,23.562323 0 0 1 3.38011,0.11895 33.852,23.562323 0 0 1 3.34551,0.35081 33.852,23.562323 0 0 1 3.27925,0.58267 33.852,23.562323 0 0 1 3.17837,0.80853 33.852,23.562323 0 0 1 3.04588,1.02382 33.852,23.562323 0 0 1 2.88478,1.2316 33.852,23.562323 0 0 1 2.69506,1.42582 33.852,23.562323 0 0 1 2.47525,1.605 33.852,23.562323 0 0 1 2.23284,1.76911 33.852,23.562323 0 0 1 1.96935,1.91515 33.852,23.562323 0 0 1 1.68329,2.04313 33.852,23.562323 0 0 1 1.38217,2.15003 33.852,23.562323 0 0 1 1.06748,2.23586 33.852,23.562323 0 0 1 0.66248,2.05367 33.852,33.852 0 0 0 0.57062,-6.04057 33.852,33.852 0 0 0 -33.85244,-33.85245 z"
       id="path2567" />
    <g
       transform="matrix(0.17580552,0,0,0.17580552,700.08141,-6.4763)"
       id="g2573">
      <circle
         style="opacity:1;fill:#000000;fill-opacity:1;fill-rule:evenodd;stroke:none;stroke-width:3;stroke-linecap:round;stroke-linejoin:round;stroke-miterlimit:4;stroke-dasharray:none;stroke-dashoffset:0;stroke-opacity:1"
         id="circle2569"
         cx="-1327.4045"
         cy="334.33255"
         r="22.09322" />
      <circle
         r="22.09322"
         cy="334.33255"
         cx="-1213.2562"
         id="circle2571"
         style="opacity:1;fill:#000000;fill-opacity:1;fill-rule:evenodd;stroke:none;stroke-width:3;stroke-linecap:round;stroke-linejoin:round;stroke-miterlimit:4;stroke-dasharray:none;stroke-dashoffset:0;stroke-opacity:1" />
    </g>
    <path
       style="opacity:1;fill:#000000;fill-opacity:1;fill-rule:evenodd;stroke:none;stroke-width:2.15621924;stroke-linecap:round;stroke-linejoin:round;stroke-miterlimit:4;stroke-dasharray:none;stroke-dashoffset:0;stroke-opacity:1"
       d="m 466.66853,64.0584 a 11.921796,17.802169 0 0 0 9.1845,6.47419 11.921796,17.802169 0 0 0 9.18957,-6.47419 z"
       id="path2575" />
    <path
       d="m 402.15103,124.18593 c 4.51033,0.48743 13.71159,-5.3789 8.96487,-17.08502 -4.7454,-11.70745 -19.44379,-9.16674 -21.51567,-2.42651 -0.3918,1.27501 6.04564,2.61908 8.75369,7.80541 2.70938,5.18503 1.59641,11.46972 3.79711,11.70612 z"
       style="fill:#de8787;fill-rule:evenodd;stroke:none;stroke-width:0.39843822"
       id="path2525" />
    <path
       d="m 384.3528,100.49081 c 2.56328,-0.89648 7.60884,-3.92993 5.66844,-5.55688 -2.90992,0.99742 -7.50657,-7.31827 -16.03448,-1.82618 -4.8968,3.15296 1.62165,11.98768 -0.0186,14.29994 2.27774,-3.79977 3.71344,-4.59265 10.38463,-6.91688 z"
       style="fill:#de8787;fill-rule:evenodd;stroke:none;stroke-width:0.39843822"
       id="path2527" />
    <path
       d="m 371.14988,119.65171 c -1.26039,1.68008 -4.11321,2.42517 -4.27126,6.01109 -0.15937,3.63908 2.88603,10.17347 7.32994,11.44316 4.42931,1.2657 4.90478,-0.15804 7.17189,-0.0518 2.21531,0.10227 2.37336,-8.80682 -1.5818,-12.97316 -3.9286,-4.13844 -6.80267,-4.79852 -8.64877,-4.42929 z"
       style="fill:#de8787;fill-rule:evenodd;stroke:none;stroke-width:0.39843822"
       id="path2529" />
    <path
       d="m 368.32761,122.22164 c -0.76653,0.80553 -1.37793,1.83905 -1.44846,3.4449 -0.15932,3.6384 2.8847,10.17585 7.32967,11.44684 1.65286,0.47235 2.75241,0.56817 3.60255,0.51053 0.22655,-1.0192 0.35278,-2.08941 0.35278,-3.19575 0,-6.66401 -4.38734,-12.07893 -9.83638,-12.20629 z"
       style="fill:#e9afaf;stroke:none;stroke-width:0.39843822"
       id="path2531" />
    <path
       transform="matrix(0.13281275,0,0,0.13281275,302.76327,79.3271)"
       clip-path="url(#clipPath3671-0-6)"
       d="m 648.58,197.53 c 0,0 53.17,-24.13 87.59,5.62 45.49,39.3 3.93,142.06 3.93,142.06 z"
       style="opacity:0.9;fill:#a8443f;fill-rule:evenodd;stroke:none;stroke-width:3"
       id="path2533" />
    <path
       transform="matrix(0.13281275,0,0,0.13281275,355.88837,79.3271)"
       clip-path="url(#clipPath3903-7-2)"
       d="m 213.76,163.84 c -27.51,-7.3 -62.33,-54.47 -82.54,-35.94 -14.93,13.68 16.28,76.37 7.86,83.67 -8.42,7.3 88.21,-44 74.68,-47.73 z"
       style="opacity:0.9;fill:#a8443e;fill-rule:evenodd;stroke:none;stroke-width:3"
       id="path2535" />
    <path
       d="m 368.17222,125.82219 c -0.4768,0.4436 -0.21383,3.90204 0.23375,5.27267 0.44758,1.37061 1.38125,2.54468 1.68805,2.32155 0.29086,-0.21116 0.36656,-1.9975 0.0558,-3.37609 -0.31742,-1.39719 -0.40773,-3.79977 -0.84336,-3.9565 -0.42633,-0.15404 -0.67203,-0.69196 -1.13422,-0.26163 z m 3.48102,2.76648 c -0.49008,0.33337 -0.60562,2.71071 -0.45023,4.11323 0.20054,1.5539 1.37992,3.71741 2.45172,3.98303 1.0718,0.2643 1.3175,-0.0784 1.0811,-1.63492 -0.23774,-1.55523 -0.86993,-3.11047 -0.97485,-4.11321 -0.10625,-1.00141 -0.0306,-1.42639 -0.68664,-1.89656 -0.65743,-0.47149 -0.93234,-0.78493 -1.4211,-0.45157 z"
       style="opacity:0.95;fill:#a73c39;fill-rule:evenodd;stroke:none;stroke-width:0.39843822"
       id="path2537" />
    <path
       d="m 406.33464,93.74127 c -5.97791,0.0186 -11.91995,2.26579 -14.79534,4.04282 0.13281,0.47545 2.28305,1.10368 2.87938,1.06648 6.08548,-1.89258 11.64103,-4.23539 17.37456,-3.72673 -0.12484,-0.30811 -0.50601,-0.62553 -1.00008,-0.92969 -1.45695,-0.31875 -2.95907,-0.45687 -4.45852,-0.45288 z"
       style="fill:#de8787;fill-rule:evenodd;stroke:none;stroke-width:0.39843822"
       id="path2540" />
    <path
       d="m 407.59636,94.95385 c -4.98048,0.0412 -9.6369,1.47157 -14.18308,3.73469 0.41969,0.10757 0.79954,0.17399 1.00008,0.16203 5.48916,-1.70665 10.54666,-3.78118 15.69316,-3.79711 -0.84602,-0.073 -1.68407,-0.10759 -2.51016,-0.0996 z"
       style="opacity:0.75;fill:#aa4b45;fill-rule:evenodd;stroke:none;stroke-width:0.39843822"
       id="path2542" />
    <ellipse
       transform="rotate(28.169503)"
       style="fill:#ffffff;stroke:none;stroke-width:0.47615269"
       id="ellipse2544"
       cx="384.9285"
       cy="-77.920128"
       rx="1.2979795"
       ry="2.473177" />
    <path
       d="m 377.0857,112.92279 c -0.18875,0.76483 -1.34715,1.63016 -1.97911,1.29174 -0.63193,-0.33842 -0.60786,-1.81847 -0.0613,-2.40563 0.31461,-0.33797 0.75182,-0.40226 1.38376,-0.0638 0.63194,0.3384 0.76436,0.74136 0.65667,1.17774 z"
       style="fill:#2b1100;stroke:none;stroke-width:0.47614652"
       id="path2546" />
    <ellipse
       transform="rotate(28.169742)"
       style="fill:#ffffff;stroke:none;stroke-width:0.47614762"
       id="ellipse2548"
       cx="394.67676"
       cy="-78.434319"
       rx="1.4792192"
       ry="2.8185122" />
    <path
       d="m 386.03478,117.19721 c -0.21511,0.87165 -1.53527,1.8578 -2.25546,1.47213 -0.72018,-0.38568 -0.69274,-2.07238 -0.0699,-2.74155 0.35854,-0.38517 0.8568,-0.45842 1.57698,-0.0728 0.72018,0.38568 0.87109,0.84488 0.74836,1.34221 z"
       style="fill:#2b1100;stroke:none;stroke-width:0.47615057"
       id="path2550" />
    <ellipse
       style="opacity:1;fill:#f5d558;fill-opacity:1;fill-rule:nonzero;stroke:none;stroke-width:1.14748085;stroke-linecap:round;stroke-linejoin:round;stroke-miterlimit:4;stroke-dasharray:none;stroke-dashoffset:0;stroke-opacity:1"
       id="ellipse2552"
       cx="401.00085"
       cy="87.182304"
       rx="7.9703908"
       ry="8.3839102" />
    <circle
       cy="87.182304"
       cx="401.00085"
       id="circle2554"
       style="opacity:1;fill:#cbc4ac;fill-opacity:1;fill-rule:nonzero;stroke:none;stroke-width:1.14748085;stroke-linecap:round;stroke-linejoin:round;stroke-miterlimit:4;stroke-dasharray:none;stroke-dashoffset:0;stroke-opacity:1"
       r="6.1129584" />
    <circle
       r="5.8357081"
       cy="80.50042"
       cx="396.16257"
       id="circle2556"
       style="opacity:1;fill:#ffcc00;fill-opacity:1;fill-rule:evenodd;stroke:none;stroke-width:0.49254942;stroke-linecap:round;stroke-linejoin:round;stroke-miterlimit:4;stroke-dasharray:none;stroke-dashoffset:0;stroke-opacity:1" />
    <g
       transform="translate(-1.7200429,12.0403)"
       id="text2642"
       style="font-style:normal;font-variant:normal;font-weight:normal;font-stretch:normal;font-size:29.38078308px;line-height:1.25;font-family:arial;-inkscape-font-specification:arial;letter-spacing:0px;word-spacing:0px;fill:#ffffff;fill-opacity:1;stroke:none;stroke-width:0.73451954"
       aria-label="Mieux choisir ses aliments avec ses propres critères ?">
      <rect
         style="opacity:1;fill:#ff6600;fill-opacity:1;fill-rule:nonzero;stroke:none;stroke-width:7.70480013;stroke-miterlimit:4;stroke-dasharray:none;stroke-opacity:1"
         id="rect2630-4"
         width="122.61797"
         height="28.030958"
         x="13.499643"
         y="80.657654"
         ry="0"
         transform="matrix(0.9999729,-0.00736187,0.00508536,0.99998707,0,0)" />
      <rect
         style="opacity:1;fill:#ff0066;fill-opacity:1;fill-rule:nonzero;stroke:none;stroke-width:8.42949772;stroke-miterlimit:4;stroke-dasharray:none;stroke-opacity:1"
         id="rect2632-4"
         width="138.88161"
         height="29.622934"
         x="107.98351"
         y="44.459991"
         ry="0"
         transform="matrix(0.99999091,-0.00426356,0.0064364,0.99997929,0,0)" />
      <text
         transform="scale(1.0099436,0.99015432)"
         xml:space="preserve"
         style="font-style:normal;font-variant:normal;font-weight:normal;font-stretch:normal;font-size:29.67293358px;line-height:1.25;font-family:arial;-inkscape-font-specification:arial;letter-spacing:0px;word-spacing:0px;fill:#ffffff;fill-opacity:1;stroke:none;stroke-width:0.74182332"
         x="15.125721"
         y="27.780807"
         id="text2642-6"><tspan
           id="tspan2634"
           x="15.125721"
           y="27.780807"
           style="font-style:normal;font-variant:normal;font-weight:normal;font-stretch:normal;font-size:21.33333397px;font-family:arial;-inkscape-font-specification:arial;fill:#ffffff;stroke-width:0.74182332">Helpompia ja</tspan><tspan
           x="15.125721"
           y="64.871971"
           style="font-style:normal;font-variant:normal;font-weight:normal;font-stretch:normal;font-size:21.33333397px;font-family:arial;-inkscape-font-specification:arial;fill:#ffffff;stroke-width:0.74182332"
           id="tspan2638">parempia ruokavalintoja</tspan><tspan
           id="tspan4367"
           x="15.125721"
           y="101.96314"
           style="font-style:normal;font-variant:normal;font-weight:normal;font-stretch:normal;font-size:21.33333397px;font-family:arial;-inkscape-font-specification:arial;fill:#ffffff;stroke-width:0.74182332">kriteereittesi  mukaisesti?</tspan></text>
    </g>
    <path
       style="fill:#ff0000;fill-opacity:1;fill-rule:evenodd;stroke:none;stroke-width:0.66608584"
       d="m 323.64561,76.30481 c -20.67515,0 -37.24724,16.62538 -37.24724,37.24725 V 150 h 74.49449 v -36.44794 c 0,-20.62187 -16.62538,-37.24725 -37.24725,-37.24725 z"
       id="path2234" />
    <path
       style="fill:#ffcc00;fill-opacity:1;fill-rule:evenodd;stroke:none;stroke-width:0.66608584"
       d="m 351.88744,49.9813 c 0,15.61293 -12.68218,28.24182 -28.24183,28.24182 -15.61293,0 -28.29511,-12.62889 -28.29511,-28.24182 0,-15.61294 12.68218,-28.24183 28.29511,-28.24183 15.55965,0 28.24183,12.62889 28.24183,28.24183 z"
       id="path2236" />
    <path
       style="fill:#000000;fill-opacity:1;fill-rule:evenodd;stroke:none;stroke-width:0.66608584"
       d="m 317.51767,49.9813 c 0,2.13145 -1.70517,3.83662 -3.83663,3.83662 -2.13145,0 -3.83662,-1.70517 -3.83662,-3.83662 0,-2.13146 1.70517,-3.83663 3.83662,-3.83663 2.13146,0 3.83663,1.70517 3.83663,3.83663 z"
       id="path2238" />
    <path
       style="fill:#000000;fill-opacity:1;fill-rule:evenodd;stroke:none;stroke-width:0.66608584"
       d="m 337.44681,49.9813 c 0,2.13145 -1.75845,3.83662 -3.88991,3.83662 -2.07818,0 -3.83663,-1.70517 -3.83663,-3.83662 0,-2.13146 1.75845,-3.83663 3.83663,-3.83663 2.13146,0 3.88991,1.70517 3.88991,3.83663 z"
       id="path2240" />
    <path
       style="fill:#000000;fill-opacity:1;fill-rule:evenodd;stroke:none;stroke-width:0.66608584"
       d="m 314.53362,64.74165 c 2.23804,4.04977 5.5418,6.44766 9.11199,6.44766 3.51691,0 6.87396,-2.39789 9.11199,-6.44766 z"
       id="path2242" />
    <path
       style="fill:#802a00;fill-opacity:1;fill-rule:evenodd;stroke:none;stroke-width:0.66608584"
       d="m 314.74677,8.79086 -7.14038,13.53476 -9.11199,-3.78334 -2.02489,15.66623 -10.17771,3.25047 9.21855,12.68217 C 300.466,38.31156 311.4963,30.6916 323.64561,30.6916 c 12.14932,0 23.12633,7.67325 28.08197,19.50284 l 9.21857,-12.73546 -10.12444,-3.25047 -2.02488,-15.66623 -9.16528,3.78334 -7.14038,-13.53476 -8.84556,8.41925 z"
       id="path2326" />
    <path
       style="opacity:1;fill:#ffffff;fill-opacity:1;fill-rule:evenodd;stroke:none;stroke-width:0.49254942;stroke-linecap:round;stroke-linejoin:round;stroke-miterlimit:4;stroke-dasharray:none;stroke-dashoffset:0;stroke-opacity:1"
       d="M 294.40044,128.4025 V 150 h 5.75935 v -21.5975 z m 8.639,0 V 150 h 2.87968 v -21.5975 z m 5.75935,0 V 150 h 1.43984 v -21.5975 z m 4.31949,0 V 150 h 2.87968 v -21.5975 z m 7.19918,0 V 150 h 2.87966 v -21.5975 z m 5.75934,0 V 150 h 5.75934 v -21.5975 z m 10.07884,0 V 150 h 1.43985 v -21.5975 z m 4.31951,0 V 150 h 5.75934 v -21.5975 z m 8.639,0 V 150 h 2.87966 v -21.5975 z"
       id="path3680" />
    <g
       id="g3666"
       transform="matrix(0.16418314,0,0,0.16418314,309.62778,-25.84473)">
      <g
         transform="matrix(0.82432162,0,0,0.82432162,7.7296188,58.282504)"
         id="g3658">
        <path
           id="path3652"
           style="font-style:normal;font-variant:normal;font-weight:normal;font-stretch:normal;font-size:medium;line-height:89.99999762%;font-family:'Open Sans';-inkscape-font-specification:'Open Sans';text-align:center;letter-spacing:0px;word-spacing:0px;text-anchor:middle;fill:#ffffff;fill-opacity:1;stroke:none;stroke-width:1px;stroke-linecap:butt;stroke-linejoin:miter;stroke-opacity:1"
           d="m -100.30042,852.16505 27.183815,-50.95223 h 12.825188 l -34.014627,62.38338 v 39.52109 H -106.2948 v -38.96348 l -33.94492,-62.94099 h 12.96459 z" />
        <path
           id="path3654"
           style="font-style:normal;font-variant:normal;font-weight:normal;font-stretch:normal;font-size:medium;line-height:89.99999762%;font-family:'Open Sans';-inkscape-font-specification:'Open Sans';text-align:center;letter-spacing:0px;word-spacing:0px;text-anchor:middle;fill:#ffffff;fill-opacity:1;stroke:none;stroke-width:1px;stroke-linecap:butt;stroke-linejoin:miter;stroke-opacity:1"
           d="m -15.682072,904.51133 q -16.937611,0 -26.765608,-10.31591 -9.758295,-10.31591 -9.758295,-28.64756 0,-18.47106 9.061274,-29.34459 9.130975,-10.87353 24.465439,-10.87353 14.3586283,0 22.7228783,9.47949 8.3642497,9.40979 8.3642497,24.88365 v 7.31872 h -52.625079 q 0.348511,13.45251 6.761105,20.42272 6.482296,6.97021 18.192249,6.97021 12.3372653,0 24.3957353,-5.15796 v 10.31591 q -6.13378,2.64869 -11.64025,3.76392 -5.43677,1.18493 -13.1736983,1.18493 z m -3.136594,-69.493 q -9.200677,0 -14.707145,5.99438 -5.436764,5.99438 -6.412593,16.58911 H 9.0630577e-4 q 0,-10.94324 -4.87915000577,-16.7285 -4.8791507,-5.85499 -13.9404223,-5.85499 z" />
        <path
           id="path3656"
           style="font-style:normal;font-variant:normal;font-weight:normal;font-stretch:normal;font-size:medium;line-height:89.99999762%;font-family:'Open Sans';-inkscape-font-specification:'Open Sans';text-align:center;letter-spacing:0px;word-spacing:0px;text-anchor:middle;fill:#ffffff;fill-opacity:1;stroke:none;stroke-width:1px;stroke-linecap:butt;stroke-linejoin:miter;stroke-opacity:1"
           d="m 81.343256,882.27636 q 0,10.66443 -7.94605,16.44969 -7.94603,5.78528 -22.30466,5.78528 -15.19507,0 -23.69873,-4.80944 v -10.73412 q 5.50647,2.78807 11.77966,4.39122 6.34289,1.60316 12.19788,1.60316 9.06127,0 13.94041,-2.8578 4.87915,-2.92748 4.87915,-8.85216 0,-4.46093 -3.90332,-7.59753 -3.83361,-3.20629 -15.05565,-7.52783 -10.66442,-3.97302 -15.19506,-6.9005 -4.46093,-2.99719 -6.6914,-6.76111 -2.16077,-3.76391 -2.16077,-8.99157 0,-9.34009 7.59753,-14.70715 7.59754,-5.43676 20.84094,-5.43676 12.33727,0 24.11691,5.01856 l -4.11242,9.40977 q -11.50085,-4.73974 -20.84093,-4.73974 -8.22484,0 -12.40696,2.57899 -4.18213,2.57897 -4.18213,7.10961 0,3.06689 1.53344,5.22766 1.60315,2.16076 5.08826,4.11242 3.4851,1.95165 13.3828,5.64587 13.59191,4.94885 18.33165,9.9674 4.80945,5.01855 4.80945,12.61608 z" />
      </g>
      <g
         transform="matrix(0.82432162,0,0,0.82432162,50.688504,61.391064)"
         id="g3664">
        <path
           id="path3660"
           style="font-style:normal;font-variant:normal;font-weight:normal;font-stretch:normal;font-size:medium;line-height:89.99999762%;font-family:'Open Sans';-inkscape-font-specification:'Open Sans';text-align:center;letter-spacing:0px;word-spacing:0px;text-anchor:middle;fill:#ffffff;fill-opacity:1;stroke:none;stroke-width:1px;stroke-linecap:butt;stroke-linejoin:miter;stroke-opacity:1"
           d="m 174.29349,903.3762 h -11.70995 l -20.56212,-68.23835 q -1.46375,-4.53064 -3.276,-11.43115 -1.81226,-6.90051 -1.88196,-8.29456 -1.53345,9.20069 -4.87915,20.14391 l -19.9348,67.82015 H 100.33956 L 73.225439,801.47173 H 85.771818 L 101.873,864.41272 q 3.3457,13.2434 4.87915,23.97753 1.88196,-12.75549 5.57617,-24.95335 l 18.26195,-61.96517 h 12.54638 l 19.16808,62.52279 q 3.3457,10.80382 5.64587,24.39573 1.32434,-9.89769 5.01855,-24.11693 l 16.03148,-62.80159 h 12.54639 z" />
        <path
           id="path3662"
           style="font-style:normal;font-variant:normal;font-weight:normal;font-stretch:normal;font-size:medium;line-height:89.99999762%;font-family:'Open Sans';-inkscape-font-specification:'Open Sans';text-align:center;letter-spacing:0px;word-spacing:0px;text-anchor:middle;fill:#ffffff;fill-opacity:1;stroke:none;stroke-width:1px;stroke-linecap:butt;stroke-linejoin:miter;stroke-opacity:1"
           d="m 248.03831,904.77024 q -16.93761,0 -26.7656,-10.3159 -9.75829,-10.31592 -9.75829,-28.64757 0,-18.47106 9.06126,-29.34459 9.13098,-10.87352 24.46544,-10.87352 14.35863,0 22.72288,9.47948 8.36427,9.40979 8.36427,24.88365 v 7.31872 h -52.62509 q 0.3485,13.45251 6.7611,20.42272 6.4823,6.97021 18.19225,6.97021 12.33727,0 24.39574,-5.15796 v 10.31592 q -6.13379,2.64868 -11.64026,3.76391 -5.43677,1.18493 -13.1737,1.18493 z m -3.1366,-69.493 q -9.20067,0 -14.70714,5.99438 -5.43676,5.99438 -6.41258,16.58911 h 39.9393 q 0,-10.94323 -4.87915,-16.7285 -4.87915,-5.85499 -13.94043,-5.85499 z" />
      </g>
    </g>
    <g
       id="g3678"
       transform="matrix(0.16418314,0,0,0.16418314,309.62778,-25.84473)">
      <path
         d="m -32.433908,892.74227 q 0,13.4525 -9.758294,20.9803 -9.758295,7.5279 -26.486799,7.5279 -18.122547,0 -27.880837,-4.6701 v -11.4312 q 6.27318,2.6488 13.66161,4.1822 7.388421,1.5334 14.63744,1.5334 11.849357,0 17.843737,-4.4609 5.994381,-4.5306 5.994381,-12.5464 0,-5.2973 -2.160765,-8.64298 -2.091063,-3.41545 -7.109615,-6.27324 -4.948848,-2.85778 -15.125356,-6.48229 -14.219232,-5.08825 -20.353012,-12.05847 -6.06408,-6.97021 -6.06408,-18.19225 0,-11.77966 8.85216,-18.74986 8.85217,-6.97021 23.41991,-6.97021 15.195057,0 27.950542,5.57616 l -3.694211,10.31592 q -12.61608,-5.29736 -24.53514,-5.29736 -9.409784,0 -14.707141,4.04272 -5.29736,4.04272 -5.29736,11.22204 0,5.29735 1.95166,8.71276 1.95166,3.3457 6.551993,6.20348 4.670042,2.78809 14.21923,6.2035 16.031483,5.71557 22.025864,12.26757 6.064083,6.55199 6.064083,17.00731 z"
         style="font-style:normal;font-variant:normal;font-weight:normal;font-stretch:normal;font-size:medium;line-height:89.99999762%;font-family:'Open Sans';-inkscape-font-specification:'Open Sans';text-align:center;letter-spacing:0px;word-spacing:0px;text-anchor:middle;fill:#ffffff;fill-opacity:1;stroke:none;stroke-width:1px;stroke-linecap:butt;stroke-linejoin:miter;stroke-opacity:1"
         id="path3668" />
      <path
         d="m 28.867773,921.25047 q -16.5891,0 -25.7200751,-10.1765 -9.0612737,-10.2463 -9.0612737,-28.92643 0,-19.16807 9.2006775,-29.62339 9.2703793,-10.45531 26.3473943,-10.45531 5.506467,0 11.012932,1.18494 5.506466,1.18493 8.643061,2.78808 l -3.554807,9.828 q -3.833615,-1.53345 -8.364253,-2.50928 -4.530636,-1.04553 -8.015741,-1.04553 -23.2805024,0 -23.2805024,29.69309 0,14.07983 5.6458704,21.60763 5.715572,7.5279 16.867909,7.5279 9.549188,0 19.58629,-4.1125 v 10.2463 q -7.667231,3.973 -19.307482,3.973 z"
         style="font-style:normal;font-variant:normal;font-weight:normal;font-stretch:normal;font-size:medium;line-height:89.99999762%;font-family:'Open Sans';-inkscape-font-specification:'Open Sans';text-align:center;letter-spacing:0px;word-spacing:0px;text-anchor:middle;fill:#ffffff;fill-opacity:1;stroke:none;stroke-width:1px;stroke-linecap:butt;stroke-linejoin:miter;stroke-opacity:1"
         id="path3670" />
      <path
         d="m 128.50561,919.85637 -2.30017,-10.8735 h -0.55761 q -5.71558,7.1793 -11.43115,9.7583 -5.64587,2.5093 -14.14953,2.5093 -11.361443,0 -17.843738,-5.855 -6.412594,-5.8549 -6.412594,-16.6588 0,-23.14112 37.011812,-24.25635 l 12.9646,-0.41822 v -4.73974 q 0,-8.99157 -3.90332,-13.2434 -3.83362,-4.32152 -12.33727,-4.32152 -9.549192,0 -21.607656,5.85497 l -3.554807,-8.85216 q 5.64587,-3.0669 12.337272,-4.80945 6.761101,-1.74256 13.522211,-1.74256 13.66161,0 20.21361,6.06408 6.6217,6.06409 6.6217,19.44689 v 52.13716 z m -26.13829,-8.1551 q 10.80382,0 16.93761,-5.9247 6.20349,-5.9247 6.20349,-16.5891 v -6.90052 l -11.57055,0.48791 q -13.80102,0.48792 -19.934803,4.32152 -6.064083,3.76399 -6.064083,11.77959 0,6.2732 3.763914,9.5493 3.833615,3.276 10.664422,3.276 z"
         style="font-style:normal;font-variant:normal;font-weight:normal;font-stretch:normal;font-size:medium;line-height:89.99999762%;font-family:'Open Sans';-inkscape-font-specification:'Open Sans';text-align:center;letter-spacing:0px;word-spacing:0px;text-anchor:middle;fill:#ffffff;fill-opacity:1;stroke:none;stroke-width:1px;stroke-linecap:butt;stroke-linejoin:miter;stroke-opacity:1"
         id="path3672" />
      <path
         d="m 215.87587,919.85637 v -49.41878 q 0,-9.34008 -4.25183,-13.94041 -4.25183,-4.60035 -13.3131,-4.60035 -11.98876,0 -17.56492,6.48231 -5.57618,6.48229 -5.57618,21.39853 v 40.0787 H 163.5993 v -76.39349 h 9.40977 l 1.88196,10.45531 h 0.55762 q 3.5548,-5.64587 9.9674,-8.71276 6.4126,-3.13659 14.28894,-3.13659 13.80101,0 20.77123,6.69141 6.9702,6.62168 6.9702,21.25913 v 49.83699 z"
         style="font-style:normal;font-variant:normal;font-weight:normal;font-stretch:normal;font-size:medium;line-height:89.99999762%;font-family:'Open Sans';-inkscape-font-specification:'Open Sans';text-align:center;letter-spacing:0px;word-spacing:0px;text-anchor:middle;fill:#ffffff;fill-opacity:1;stroke:none;stroke-width:1px;stroke-linecap:butt;stroke-linejoin:miter;stroke-opacity:1"
         id="path3674" />
      <path
         d="m 266.09484,891.76647 h -7.31872 l -3.55481,-73.81456 h 14.42834 z m -12.12816,20.7015 q 0,-9.4795 8.36426,-9.4795 4.04271,0 6.20348,2.4396 2.23047,2.4395 2.23047,7.0399 0,4.4609 -2.23047,6.9702 -2.23047,2.4396 -6.20348,2.4396 -3.62451,0 -5.99438,-2.1607 -2.36988,-2.2306 -2.36988,-7.2491 z"
         style="font-style:normal;font-variant:normal;font-weight:normal;font-stretch:normal;font-size:medium;line-height:89.99999762%;font-family:'Open Sans';-inkscape-font-specification:'Open Sans';text-align:center;letter-spacing:0px;word-spacing:0px;text-anchor:middle;fill:#ffffff;fill-opacity:1;stroke:none;stroke-width:1px;stroke-linecap:butt;stroke-linejoin:miter;stroke-opacity:1"
         id="path3676" />
    </g>
    <path
       id="path2740"
       d="m 511.06447,67.95523 44.88381,-22.87408 3.83138,14.79443 z"
       style="fill:#ffffff;stroke:#000000;stroke-width:1;stroke-linecap:butt;stroke-linejoin:miter;stroke-miterlimit:4;stroke-dasharray:none;stroke-opacity:1" />
    <rect
       ry="12.781372"
       y="97.999237"
       x="558.3335"
       height="43.464752"
       width="223.33794"
       id="rect2912"
       style="opacity:1;fill:#0066ff;fill-opacity:1;fill-rule:nonzero;stroke:#ffffff;stroke-width:1;stroke-miterlimit:4;stroke-dasharray:none;stroke-opacity:1" />
    <ellipse
       ry="37.838493"
       rx="110.20459"
       cy="44.321991"
       cx="641.02216"
       id="ellipse2918"
       style="opacity:1;fill:#ffffff;fill-opacity:1;fill-rule:nonzero;stroke:#000000;stroke-width:1;stroke-miterlimit:4;stroke-dasharray:none;stroke-opacity:1" />
    <path
       style="fill:#ffffff;stroke:none;stroke-width:1;stroke-linecap:butt;stroke-linejoin:miter;stroke-miterlimit:4;stroke-dasharray:none;stroke-opacity:1"
       d="m 511.06447,67.95523 44.88381,-22.87408 3.83138,14.79443 z"
       id="path2920" />
    <ellipse
       style="opacity:1;fill:#ffffff;fill-opacity:1;fill-rule:nonzero;stroke:none;stroke-width:1;stroke-miterlimit:4;stroke-dasharray:none;stroke-opacity:1"
       id="ellipse2922"
       cx="641.02216"
       cy="44.321991"
       rx="110.20459"
       ry="37.838493" />
    <flowRoot
       style="fill:black;fill-opacity:1;stroke:none;font-family:sans-serif;font-style:normal;font-weight:normal;font-size:24px;line-height:1.25;letter-spacing:0px;word-spacing:0px"
       id="flowRoot4369"
       xml:space="preserve"><flowRegion
         id="flowRegion4371"><rect
           y="128.06946"
           x="152.2238"
           height="76.1119"
           width="16.340408"
           id="rect4373" /></flowRegion><flowPara
         id="flowPara4375"></flowPara></flowRoot>    <text
       id="text5029"
       y="37.689354"
       x="505.21027"
       style="font-style:normal;font-variant:normal;font-weight:normal;font-stretch:normal;font-size:24px;line-height:1.25;font-family:arial;-inkscape-font-specification:arial;text-align:start;letter-spacing:0px;word-spacing:0px;text-anchor:start;fill:#000000;fill-opacity:1;stroke:none"
       xml:space="preserve"><tspan
         id="tspan5023"
         y="37.689354"
         x="572.92615"><tspan
           style="text-align:start;text-anchor:start"
           id="tspan5019"
           y="37.689354"
           x="572.92615">Tarvitsemme</tspan><tspan
           style="text-align:start;text-anchor:start"
           id="tspan5021"
           y="37.689354"
           x="709.8938"
           dx="0" /></tspan><tspan
         id="tspan5027"
         y="67.689369"
         x="600.44214"><tspan
           style="text-align:start;text-anchor:start"
           id="tspan5025"
           y="67.689369"
           x="600.44214">tukeasi!</tspan></tspan></text>
    <text
       id="text5035"
       y="128.07526"
       x="671.16278"
       style="font-style:normal;font-weight:normal;font-size:24px;line-height:1.25;font-family:sans-serif;letter-spacing:0px;word-spacing:0px;fill:#000000;fill-opacity:1;stroke:none"
       xml:space="preserve"><tspan
         id="tspan5033"
         y="128.07526"
         x="671.16278"><tspan
           id="tspan5031"
           style="font-style:normal;font-variant:normal;font-weight:normal;font-stretch:normal;font-size:32px;font-family:arial;-inkscape-font-specification:arial;text-align:center;text-anchor:middle;fill:#ffffff"
           y="128.07526"
           x="671.16278">Lahjoita</tspan></tspan></text>
  </g>
</svg>
