<?xml version="1.0" encoding="UTF-8" standalone="no"?>
<svg
   xmlns:dc="http://purl.org/dc/elements/1.1/"
   xmlns:cc="http://creativecommons.org/ns#"
   xmlns:rdf="http://www.w3.org/1999/02/22-rdf-syntax-ns#"
   xmlns:svg="http://www.w3.org/2000/svg"
   xmlns="http://www.w3.org/2000/svg"
   version="1.1"
   id="svg2"
   viewBox="0 0 800 150"
   height="150"
   width="800">
  <defs
     id="defs4">
    <clipPath
       clipPathUnits="userSpaceOnUse"
       id="clipPath3671-0-6">
      <path
         d="m 748.38,337.76 c 33.96,3.67 103.24,-40.5 67.5,-128.64 -35.73,-88.15 -146.4,-69.02 -162,-18.27 -2.95,9.6 45.52,19.72 65.91,58.77 20.4,39.04 12.02,86.36 28.59,88.14 z"
         style="fill:url(#radialGradient3675);fill-rule:evenodd"
         id="path3673-4-5" />
    </clipPath>
    <clipPath
       clipPathUnits="userSpaceOnUse"
       id="clipPath3903-7-2">
      <path
         d="m 214.32,159.35 c 19.3,-6.75 57.29,-29.59 42.68,-41.84 -21.91,7.51 -56.52,-55.102 -120.73,-13.75 -36.87,23.74 12.21,90.26 -0.14,107.67 17.15,-28.61 27.96,-34.58 78.19,-52.08 z"
         style="fill:url(#linearGradient3907);fill-rule:evenodd"
         id="path3905-37-0" />
    </clipPath>
    <clipPath
       clipPathUnits="userSpaceOnUse"
       id="clipPath3671-0-6-8">
      <path
         d="m 748.38,337.76 c 33.96,3.67 103.24,-40.5 67.5,-128.64 -35.73,-88.15 -146.4,-69.02 -162,-18.27 -2.95,9.6 45.52,19.72 65.91,58.77 20.4,39.04 12.02,86.36 28.59,88.14 z"
         style="fill:url(#radialGradient3675);fill-rule:evenodd"
         id="path3673-4-5-8" />
    </clipPath>
    <clipPath
       clipPathUnits="userSpaceOnUse"
       id="clipPath3903-7-2-4">
      <path
         d="m 214.32,159.35 c 19.3,-6.75 57.29,-29.59 42.68,-41.84 -21.91,7.51 -56.52,-55.102 -120.73,-13.75 -36.87,23.74 12.21,90.26 -0.14,107.67 17.15,-28.61 27.96,-34.58 78.19,-52.08 z"
         style="fill:url(#linearGradient3907);fill-rule:evenodd"
         id="path3905-37-0-8" />
    </clipPath>
  </defs>
  <metadata
     id="metadata7">
    <rdf:RDF>
      <cc:Work
         rdf:about="">
        <dc:format>image/svg+xml</dc:format>
        <dc:type
           rdf:resource="http://purl.org/dc/dcmitype/StillImage" />
        <dc:title></dc:title>
      </cc:Work>
    </rdf:RDF>
  </metadata>
  <g
     id="layer1">
    <rect
       y="-3.0078124e-006"
       x="0"
       height="150"
       width="800"
       id="rect2734"
       style="opacity:1;fill:#ff0066;fill-opacity:1;fill-rule:nonzero;stroke:none;stroke-width:11.00542355;stroke-miterlimit:4;stroke-dasharray:none;stroke-opacity:1" />
    <rect
       style="opacity:1;fill:#2ad4ff;fill-opacity:1;fill-rule:nonzero;stroke:none;stroke-width:8.23801327;stroke-miterlimit:4;stroke-dasharray:none;stroke-opacity:1"
       id="rect2736"
       width="448.25122"
       height="150"
       x="351.74878"
       y="-3.0078124e-006" />
    <path
       id="path2738"
       d="m 250.29297,2e-5 31.91015,150 H 542.13086 L 510.2207,2e-5 Z"
       style="opacity:1;fill:#d5f6ff;fill-opacity:1;fill-rule:nonzero;stroke:none;stroke-width:0.96483946;stroke-miterlimit:4;stroke-dasharray:none;stroke-opacity:1" />
    <path
       id="path2740"
       d="m 508.16792,67.95523 44.88381,-22.87408 3.83138,14.79443 z"
       style="fill:#ffffff;stroke:#000000;stroke-width:1;stroke-linecap:butt;stroke-linejoin:miter;stroke-miterlimit:4;stroke-dasharray:none;stroke-opacity:1" />
    <path
       id="path2742"
       d="m 349.44445,86.15312 c 17.32644,11.96742 35.43453,-10.00532 51.17431,-7.59475"
       style="fill:none;fill-rule:evenodd;stroke:#000000;stroke-width:3.0885694;stroke-linecap:butt;stroke-linejoin:miter;stroke-miterlimit:4;stroke-dasharray:none;stroke-opacity:1" />
    <g
       transform="translate(570.19422,-406.18427)"
       id="g3261">
      <path
         id="path2230"
         d="m -264.56313,468.44927 c -7.21258,5.43635 -11.46477,13.99455 -11.35712,23.091 8.66586,2.58361 18.08526,0.91503 25.29783,-4.52131 7.2664,-5.43634 11.46476,-13.99455 11.35711,-23.091 -8.66585,-2.58361 -18.03143,-0.91503 -25.29782,4.52131 z"
         style="fill:#ff6600;fill-opacity:1;fill-rule:evenodd;stroke:none;stroke-width:0.67281955" />
      <path
         id="path2232"
         d="m -220.85711,468.44927 c 7.21257,5.43635 11.46477,13.99455 11.35712,23.091 -8.66586,2.58361 -18.08526,0.91503 -25.29783,-4.52131 -7.21257,-5.43634 -11.46476,-13.99455 -11.35711,-23.091 8.66585,-2.58361 18.08525,-0.91503 25.29782,4.52131 z"
         style="fill:#ff6600;fill-opacity:1;fill-rule:evenodd;stroke:none;stroke-width:0.67281955" />
      <path
         id="path2244"
         d="m -242.71012,481.74409 c -20.83034,0 -37.62379,16.79345 -37.62379,37.62379 v 36.81641 h 75.24758 v -36.81641 c 0,-20.83034 -16.79345,-37.62379 -37.62379,-37.62379 z"
         style="fill:#00ccff;fill-opacity:1;fill-rule:evenodd;stroke:none;stroke-width:0.67281955" />
      <path
         id="path2246"
         d="m -214.18278,455.15446 c 0,15.77077 -12.75657,28.52733 -28.52734,28.52733 -15.77077,0 -28.52734,-12.75656 -28.52734,-28.52733 0,-15.77077 12.75657,-28.52734 28.52734,-28.52734 15.77077,0 28.52734,12.75657 28.52734,28.52734 z"
         style="fill:#ffcc00;fill-opacity:1;fill-rule:evenodd;stroke:none;stroke-width:0.67281955" />
      <path
         id="path2248"
         d="m -248.84619,455.15446 c 0,2.153 -1.77623,3.87541 -3.92923,3.87541 -2.15301,0 -3.87542,-1.72241 -3.87542,-3.87541 0,-2.15301 1.72241,-3.87541 3.87542,-3.87541 2.153,0 3.92923,1.7224 3.92923,3.87541 z"
         style="fill:#000000;fill-opacity:1;fill-rule:evenodd;stroke:none;stroke-width:0.67281955" />
      <path
         id="path2250"
         d="m -228.7694,455.15446 c 0,2.153 -1.72241,3.87541 -3.87542,3.87541 -2.153,0 -3.8754,-1.72241 -3.8754,-3.87541 0,-2.15301 1.7224,-3.87541 3.8754,-3.87541 2.15301,0 3.87542,1.7224 3.87542,3.87541 z"
         style="fill:#000000;fill-opacity:1;fill-rule:evenodd;stroke:none;stroke-width:0.67281955" />
      <path
         id="path2252"
         d="m -251.91422,470.06403 c 2.26065,4.09071 5.65164,6.51284 9.2041,6.51284 3.55246,0 6.94345,-2.42213 9.2041,-6.51284 z"
         style="fill:#000000;fill-opacity:1;fill-rule:evenodd;stroke:none;stroke-width:0.67281955" />
      <path
         id="path2254"
         d="m -248.30794,510.4329 v -6.13607 h 0.4306 v 6.13607 z"
         style="fill:#ffffff;fill-opacity:1;fill-rule:nonzero;stroke:none;stroke-width:0.67281955" />
      <path
         id="path2256"
         d="m -247.17761,507.58017 c 0,0.96885 -0.26912,1.77623 -0.75355,2.31448 -0.48443,0.59208 -1.18415,0.8612 -2.04536,0.8612 -0.80738,0 -1.5071,-0.26912 -1.99153,-0.8612 -0.48443,-0.53825 -0.75355,-1.34563 -0.75355,-2.31448 0,-0.96885 0.26912,-1.77623 0.75355,-2.31449 0.48443,-0.53824 1.18415,-0.8612 2.04535,-0.8612 0.86121,0 1.50711,0.32296 1.99154,0.8612 0.48443,0.59209 0.75355,1.34564 0.75355,2.31449 z m -5.05956,0 c 0,0.8612 0.2153,1.56093 0.59207,2.04536 0.37678,0.48442 0.96885,0.69972 1.66858,0.69972 0.75356,0 1.34563,-0.2153 1.72241,-0.69972 0.37677,-0.48443 0.59207,-1.13033 0.59207,-2.04536 0,-0.8612 -0.2153,-1.56093 -0.59207,-2.04536 -0.37678,-0.48442 -0.96885,-0.69972 -1.66859,-0.69972 -0.75355,0 -1.2918,0.2153 -1.7224,0.69972 -0.37677,0.48443 -0.59207,1.18416 -0.59207,2.04536 z"
         style="fill:#ffffff;fill-opacity:1;fill-rule:nonzero;stroke:none;stroke-width:0.67281955" />
      <path
         id="path2258"
         d="m -243.9481,510.75585 c -0.69972,0 -1.18415,-0.26912 -1.5071,-0.80738 h -0.0538 v 0.37678 c 0,0.21531 0.0538,0.4306 0.0538,0.6459 v 1.77623 h -0.43061 v -6.67431 h 0.32296 l 0.10765,0.6459 v 0 c 0.32295,-0.48443 0.80738,-0.69973 1.5071,-0.69973 0.6459,0 1.07651,0.2153 1.39945,0.59208 0.32296,0.43059 0.53826,1.02268 0.53826,1.77623 0,0.75355 -0.2153,1.34563 -0.53826,1.7224 -0.32294,0.43061 -0.80737,0.6459 -1.39945,0.6459 z m 0,-0.37677 c 0.48442,0 0.80738,-0.16148 1.07651,-0.53826 0.26912,-0.32294 0.37677,-0.80737 0.37677,-1.45327 0,-1.34564 -0.48442,-1.99154 -1.45328,-1.99154 -0.53825,0 -0.91503,0.16148 -1.18415,0.43061 -0.21531,0.26912 -0.32295,0.75355 -0.32295,1.45328 v 0.10765 c 0,0.69972 0.10764,1.23798 0.32295,1.5071 0.26912,0.32295 0.6459,0.48443 1.18415,0.48443 z"
         style="fill:#ffffff;fill-opacity:1;fill-rule:nonzero;stroke:none;stroke-width:0.67281955" />
      <path
         id="path2260"
         d="m -238.94236,510.75585 c -0.6459,0 -1.18415,-0.21529 -1.56093,-0.6459 -0.32295,-0.37677 -0.53825,-0.96885 -0.53825,-1.66858 0,-0.75355 0.2153,-1.34563 0.53825,-1.77623 0.37678,-0.4306 0.8612,-0.6459 1.45328,-0.6459 0.53825,0 0.96885,0.16147 1.2918,0.53825 0.32296,0.37678 0.43061,0.91503 0.43061,1.56093 v 0.32295 h -3.28334 c 0,0.6459 0.16148,1.07651 0.4306,1.45328 0.32295,0.32295 0.69973,0.48443 1.23798,0.48443 0.26913,0 0.48443,-0.0538 0.69973,-0.0538 0.2153,-0.0538 0.4306,-0.10765 0.75355,-0.26912 v 0.37677 c -0.26913,0.16148 -0.48443,0.21531 -0.69972,0.26913 -0.21531,0 -0.48443,0.0538 -0.75356,0.0538 z m -0.10765,-4.35984 c -0.4306,0 -0.80738,0.10766 -1.0765,0.43061 -0.26913,0.26912 -0.37678,0.69972 -0.4306,1.23797 h 2.7989 c 0,-0.53825 -0.10765,-0.96885 -0.32295,-1.23797 -0.21529,-0.32295 -0.53825,-0.43061 -0.96885,-0.43061 z"
         style="fill:#ffffff;fill-opacity:1;fill-rule:nonzero;stroke:none;stroke-width:0.67281955" />
      <path
         id="path2262"
         d="m -232.86011,510.64821 v -2.96039 c 0,-0.4306 -0.10765,-0.80738 -0.26913,-0.96885 -0.2153,-0.2153 -0.48443,-0.32296 -0.91503,-0.32296 -0.53825,0 -0.96885,0.10766 -1.18415,0.43061 -0.26913,0.26912 -0.37678,0.69972 -0.37678,1.2918 v 2.52979 h -0.4306 v -4.57514 h 0.32295 l 0.10765,0.6459 v 0 c 0.32295,-0.48443 0.86121,-0.69973 1.61476,-0.69973 1.02268,0 1.56092,0.53825 1.56092,1.66858 v 2.96039 z"
         style="fill:#ffffff;fill-opacity:1;fill-rule:nonzero;stroke:none;stroke-width:0.67281955" />
      <path
         id="path2264"
         d="m -245.99346,507.74165 c 0,1.02268 -0.26912,1.83005 -0.80737,2.3683 -0.53825,0.53826 -1.34564,0.80738 -2.36831,0.80738 h -1.50711 v -6.18989 h 1.66858 c 0.96886,0 1.72241,0.26912 2.26066,0.80737 0.48443,0.48443 0.75355,1.23798 0.75355,2.20684 z m -0.48442,0.0538 c 0,-0.91503 -0.2153,-1.56093 -0.64591,-1.99153 -0.43059,-0.48443 -1.13032,-0.69973 -1.99152,-0.69973 h -1.13033 v 5.38252 h 1.02268 c 1.83005,0 2.74508,-0.8612 2.74508,-2.69126 z"
         style="fill:#ffffff;fill-opacity:1;fill-rule:nonzero;stroke:none;stroke-width:0.67281955" />
      <path
         id="path2266"
         d="m -241.90274,510.91733 -0.10765,-0.75355 h -0.0538 c -0.2153,0.32295 -0.4306,0.48443 -0.69972,0.6459 -0.2153,0.10765 -0.53826,0.16147 -0.86121,0.16147 -0.4306,0 -0.80738,-0.10765 -1.02267,-0.32294 -0.26913,-0.26913 -0.37678,-0.59208 -0.37678,-0.96886 0,-0.4306 0.16147,-0.80738 0.53825,-1.02268 0.37677,-0.26912 0.91502,-0.37677 1.61476,-0.4306 h 0.8612 v -0.32295 c 0,-0.4306 -0.0538,-0.75355 -0.26913,-0.96885 -0.16148,-0.2153 -0.4306,-0.32295 -0.80738,-0.32295 -0.4306,0 -0.8612,0.10765 -1.34563,0.32295 l -0.16147,-0.32295 c 0.53825,-0.26913 1.02267,-0.37678 1.5071,-0.37678 0.48443,0 0.86121,0.16147 1.13033,0.37678 0.2153,0.26912 0.37678,0.69972 0.37678,1.23798 v 3.06803 z m -1.66859,-0.32295 c 0.48443,0 0.86121,-0.16148 1.13033,-0.4306 0.26913,-0.26913 0.43061,-0.6459 0.43061,-1.13033 v -0.48443 l -0.80738,0.0538 c -0.64591,0.0538 -1.0765,0.10765 -1.34563,0.32295 -0.26913,0.16147 -0.4306,0.4306 -0.4306,0.75355 0,0.32295 0.10765,0.53825 0.26912,0.69973 0.16148,0.16148 0.43061,0.2153 0.75355,0.2153 z"
         style="fill:#ffffff;fill-opacity:1;fill-rule:nonzero;stroke:none;stroke-width:0.67281955" />
      <path
         id="path2268"
         d="m -238.88854,510.59438 c 0.21531,0 0.48443,0 0.64591,-0.0538 v 0.32294 c -0.16148,0.0538 -0.4306,0.10765 -0.69973,0.10765 -0.37677,0 -0.69973,-0.10765 -0.8612,-0.32294 -0.2153,-0.21531 -0.32295,-0.53826 -0.32295,-1.02268 v -2.96039 h -0.64591 v -0.2153 l 0.64591,-0.2153 0.2153,-1.02268 h 0.2153 v 1.13033 h 1.34563 v 0.32295 h -1.34563 v 2.90656 c 0,0.37677 0.0538,0.59208 0.2153,0.80738 0.10765,0.16148 0.32295,0.2153 0.59207,0.2153 z"
         style="fill:#ffffff;fill-opacity:1;fill-rule:nonzero;stroke:none;stroke-width:0.67281955" />
      <path
         id="path2270"
         d="m -234.47487,510.91733 -0.10765,-0.75355 v 0 c -0.2153,0.32295 -0.48443,0.48443 -0.69973,0.6459 -0.26912,0.10765 -0.53825,0.16147 -0.8612,0.16147 -0.48443,0 -0.80738,-0.10765 -1.07651,-0.32294 -0.21529,-0.26913 -0.37677,-0.59208 -0.37677,-0.96886 0,-0.4306 0.2153,-0.80738 0.59208,-1.02268 0.37677,-0.26912 0.91502,-0.37677 1.61475,-0.4306 h 0.8612 v -0.32295 c 0,-0.4306 -0.10764,-0.75355 -0.26912,-0.96885 -0.16148,-0.2153 -0.48443,-0.32295 -0.8612,-0.32295 -0.43061,0 -0.8612,0.10765 -1.29181,0.32295 l -0.16148,-0.32295 c 0.48443,-0.26913 0.96886,-0.37678 1.45329,-0.37678 0.53825,0 0.91503,0.16147 1.13032,0.37678 0.26913,0.26912 0.37678,0.69972 0.37678,1.23798 v 3.06803 z m -1.66858,-0.32295 c 0.48443,0 0.8612,-0.16148 1.18415,-0.4306 0.26913,-0.26913 0.37678,-0.6459 0.37678,-1.13033 v -0.48443 l -0.75356,0.0538 c -0.6459,0.0538 -1.13032,0.10765 -1.39945,0.32295 -0.26912,0.16147 -0.37678,0.4306 -0.37678,0.75355 0,0.32295 0.0538,0.53825 0.21531,0.69973 0.2153,0.16148 0.4306,0.2153 0.75355,0.2153 z"
         style="fill:#ffffff;fill-opacity:1;fill-rule:nonzero;stroke:none;stroke-width:0.67281955" />
      <path
         id="path2272"
         d="m -238.94236,514.46979 c -0.59208,-0.59208 -1.93771,-1.83006 -3.06803,-2.69126 -3.39099,-2.52978 -3.82159,-2.90656 -5.22105,-4.14453 -2.52978,-2.31449 -3.60628,-4.6828 -3.55246,-7.80466 0,-1.56093 0.10765,-2.153 0.53826,-3.06803 0.69972,-1.56093 1.77623,-2.69126 3.17568,-3.39098 0.96885,-0.48443 1.45328,-0.69973 3.06804,-0.75356 1.7224,0 2.09918,0.2153 3.06803,0.75356 1.23798,0.69972 2.52978,2.09918 2.74509,3.12185 l 0.16147,0.6459 0.4306,-0.8612 c 2.20683,-4.89808 9.36558,-4.84426 11.84154,0.10765 0.80737,1.56093 0.91503,4.95192 0.2153,6.8358 -0.91503,2.47596 -2.63744,4.35984 -6.6205,7.21257 -2.5836,1.88389 -5.54399,4.73662 -5.75929,5.16722 -0.2153,0.4306 0,0.0538 -1.02268,-1.13033 z"
         style="fill:#ff0000;fill-opacity:1;fill-rule:nonzero;stroke:none;stroke-width:0.67281955" />
      <path
         id="path2274"
         d="m -258.6962,510.4329 v -16.73962 h 1.93771 v 16.73962 z"
         style="fill:#ffffff;fill-opacity:1;fill-rule:nonzero;stroke:none;stroke-width:0.67281955" />
      <path
         id="path2276"
         d="m -255.73581,523.13564 c 0,2.69126 -0.69972,4.79044 -2.04536,6.35137 -1.34562,1.5071 -3.2295,2.26066 -5.65164,2.26066 -2.47596,0 -4.35984,-0.75356 -5.70546,-2.26066 -1.34564,-1.50711 -1.99154,-3.60628 -1.99154,-6.35137 0,-2.74508 0.6459,-4.84426 1.99154,-6.35137 1.34562,-1.50711 3.28333,-2.26066 5.75928,-2.26066 2.36832,0 4.2522,0.75355 5.59782,2.31449 1.34564,1.5071 2.04536,3.60629 2.04536,6.29754 z m -13.34864,0 c 0,2.26066 0.48443,3.98306 1.45328,5.16722 0.96885,1.18415 2.3683,1.77623 4.19836,1.77623 1.88388,0 3.28334,-0.59208 4.19837,-1.77623 0.96885,-1.18416 1.45327,-2.90656 1.45327,-5.16722 0,-2.26066 -0.48442,-3.92924 -1.45327,-5.11339 -0.91503,-1.18415 -2.31449,-1.72241 -4.14455,-1.72241 -1.88388,0 -3.28333,0.59208 -4.25218,1.72241 -0.96885,1.18415 -1.45328,2.90656 -1.45328,5.11339 z"
         style="fill:#ffffff;fill-opacity:1;fill-rule:nonzero;stroke:none;stroke-width:0.67281955" />
      <path
         id="path2278"
         d="m -246.42405,531.74767 c -0.86121,0 -1.56094,-0.10766 -2.26066,-0.4306 -0.69973,-0.32296 -1.23799,-0.75355 -1.72241,-1.39946 h -0.10765 c 0.10765,0.75355 0.10765,1.45328 0.10765,2.09918 v 5.16722 H -252.291 V 518.9911 h 1.56093 l 0.26913,1.72241 h 0.0538 c 0.53825,-0.69973 1.07651,-1.18415 1.72241,-1.50711 0.6459,-0.26912 1.39945,-0.43059 2.26066,-0.43059 1.66857,0 2.90655,0.53825 3.82158,1.66858 0.91503,1.18414 1.34563,2.74508 1.34563,4.79043 0,2.09918 -0.4306,3.66011 -1.34563,4.84427 -0.91503,1.13033 -2.20683,1.66858 -3.82158,1.66858 z m -0.26913,-11.35711 c -1.29181,0 -2.26066,0.32295 -2.79891,1.0765 -0.59208,0.69973 -0.8612,1.83006 -0.91503,3.33716 v 0.4306 c 0,1.77623 0.32295,3.06804 0.91503,3.82159 0.59207,0.75355 1.5071,1.13033 2.79891,1.13033 1.13033,0 1.9377,-0.43061 2.5836,-1.34563 0.59208,-0.86121 0.91503,-2.04536 0.91503,-3.60629 0,-1.56093 -0.32295,-2.74508 -0.91503,-3.60629 -0.6459,-0.80737 -1.5071,-1.23797 -2.5836,-1.23797 z"
         style="fill:#ffffff;fill-opacity:1;fill-rule:nonzero;stroke:none;stroke-width:0.67281955" />
      <path
         id="path2280"
         d="m -232.59099,531.74767 c -1.88388,0 -3.33716,-0.53825 -4.41366,-1.66858 -1.07651,-1.13033 -1.61476,-2.69126 -1.61476,-4.73662 0,-1.99152 0.53825,-3.60628 1.5071,-4.79043 1.02268,-1.18416 2.31449,-1.77623 4.03689,-1.77623 1.56093,0 2.79891,0.48442 3.71394,1.56092 0.91503,1.02268 1.34563,2.36831 1.34563,4.09071 v 1.18416 h -8.61203 c 0.0538,1.45328 0.37678,2.58361 1.13033,3.33716 0.69973,0.75355 1.66858,1.18415 2.96038,1.18415 1.34564,0 2.69126,-0.32295 3.98307,-0.8612 v 1.66858 c -0.6459,0.32295 -1.29181,0.48443 -1.88388,0.6459 -0.59208,0.10765 -1.29181,0.16148 -2.15301,0.16148 z m -0.53825,-11.41094 c -1.02268,0 -1.77623,0.32295 -2.42213,1.02268 -0.59208,0.6459 -0.91503,1.56093 -1.02268,2.69126 h 6.56666 c 0,-1.18415 -0.26912,-2.09918 -0.80737,-2.74508 -0.53825,-0.64591 -1.2918,-0.96886 -2.31448,-0.96886 z"
         style="fill:#ffffff;fill-opacity:1;fill-rule:nonzero;stroke:none;stroke-width:0.67281955" />
      <path
         id="path2282"
         d="m -216.17432,531.53237 v -8.12761 c 0,-1.02267 -0.21529,-1.77623 -0.69972,-2.26065 -0.48443,-0.53825 -1.18416,-0.75355 -2.20684,-0.75355 -1.2918,0 -2.26065,0.32295 -2.85272,1.0765 -0.64591,0.69973 -0.91503,1.83006 -0.91503,3.49864 v 6.56667 h -1.93771 V 518.9911 h 1.56093 l 0.32295,1.72241 h 0.10765 c 0.37678,-0.6459 0.91503,-1.0765 1.61476,-1.45328 0.69972,-0.32295 1.5071,-0.48442 2.3683,-0.48442 1.50711,0 2.63743,0.37677 3.39098,1.07649 0.75356,0.75356 1.13033,1.88389 1.13033,3.49865 v 8.18142 z"
         style="fill:#ffffff;fill-opacity:1;fill-rule:nonzero;stroke:none;stroke-width:0.67281955" />
      <path
         id="path2284"
         d="m -252.56013,544.12746 c 0,2.74508 -0.75355,4.84426 -2.26065,6.35137 -1.50711,1.45327 -3.66011,2.153 -6.45902,2.153 h -4.62897 v -16.73962 h 5.11339 c 2.58362,0 4.62897,0.75355 6.08225,2.153 1.45328,1.45328 2.153,3.49863 2.153,6.08225 z m -2.04535,0.0538 c 0,-2.20683 -0.53825,-3.82158 -1.66858,-4.95191 -1.0765,-1.07651 -2.69126,-1.66858 -4.84427,-1.66858 h -2.85273 v 13.40246 h 2.3683 c 2.31449,0 4.09072,-0.59207 5.22105,-1.7224 1.18415,-1.13033 1.77623,-2.79891 1.77623,-5.05957 z"
         style="fill:#ffffff;fill-opacity:1;fill-rule:nonzero;stroke:none;stroke-width:0.67281955" />
      <path
         id="path2286"
         d="m -241.41832,552.63183 -0.37678,-1.77623 h -0.10764 c -0.59208,0.80738 -1.23798,1.29181 -1.83006,1.61475 -0.6459,0.26913 -1.39945,0.37678 -2.36831,0.37678 -1.23797,0 -2.20683,-0.32295 -2.90656,-0.91503 -0.69972,-0.6459 -1.0765,-1.56092 -1.0765,-2.74508 0,-2.52978 2.04536,-3.87541 6.08225,-3.98306 l 2.15301,-0.10765 v -0.75356 c 0,-0.96885 -0.21531,-1.7224 -0.64591,-2.153 -0.4306,-0.48443 -1.07651,-0.75355 -2.04536,-0.75355 -1.02267,0 -2.20683,0.32295 -3.55246,0.96885 l -0.53825,-1.45328 c 0.59208,-0.32295 1.29181,-0.59207 1.99153,-0.75355 0.75355,-0.2153 1.50711,-0.32295 2.20683,-0.32295 1.50711,0 2.63743,0.32295 3.33717,1.02267 0.75355,0.6459 1.0765,1.72241 1.0765,3.17569 v 8.5582 z m -4.30601,-1.34563 c 1.18415,0 2.153,-0.32295 2.79891,-0.96885 0.69973,-0.6459 1.02268,-1.56093 1.02268,-2.69126 v -1.18415 l -1.88388,0.10765 c -1.50711,0.0538 -2.63743,0.26913 -3.28334,0.69972 -0.6459,0.43061 -1.02268,1.07651 -1.02268,1.93771 0,0.69973 0.2153,1.23798 0.64591,1.56093 0.43059,0.37678 1.02268,0.53825 1.7224,0.53825 z"
         style="fill:#ffffff;fill-opacity:1;fill-rule:nonzero;stroke:none;stroke-width:0.67281955" />
      <path
         id="path2288"
         d="m -231.99891,551.2862 c 0.32295,0 0.6459,0 0.96885,-0.0538 0.32295,-0.0538 0.53825,-0.10765 0.75355,-0.16148 v 1.45328 c -0.2153,0.10765 -0.53825,0.16148 -0.91502,0.2153 -0.43061,0.10765 -0.80738,0.10765 -1.07651,0.10765 -2.47595,0 -3.66011,-1.23798 -3.66011,-3.82159 v -7.4817 h -1.83006 v -0.91502 l 1.83006,-0.75355 0.80738,-2.69126 h 1.0765 v 2.90656 h 3.66011 v 1.45327 h -3.66011 v 7.42788 c 0,0.75355 0.2153,1.29181 0.53825,1.7224 0.37678,0.37678 0.8612,0.59208 1.50711,0.59208 z"
         style="fill:#ffffff;fill-opacity:1;fill-rule:nonzero;stroke:none;stroke-width:0.67281955" />
      <path
         id="path2290"
         d="m -220.04972,552.63183 -0.37678,-1.77623 h -0.10765 c -0.6459,0.80738 -1.23798,1.29181 -1.88388,1.61475 -0.59208,0.26913 -1.39946,0.37678 -2.31448,0.37678 -1.23798,0 -2.20684,-0.32295 -2.96039,-0.91503 -0.69972,-0.6459 -1.02268,-1.56092 -1.02268,-2.74508 0,-2.52978 2.04536,-3.87541 6.08224,-3.98306 l 2.09919,-0.10765 v -0.75356 c 0,-0.96885 -0.21531,-1.7224 -0.6459,-2.153 -0.37678,-0.48443 -1.07651,-0.75355 -1.99154,-0.75355 -1.0765,0 -2.26066,0.32295 -3.55246,0.96885 l -0.59207,-1.45328 c 0.6459,-0.32295 1.2918,-0.59207 2.04535,-0.75355 0.69973,-0.2153 1.45328,-0.32295 2.20684,-0.32295 1.5071,0 2.5836,0.32295 3.33715,1.02267 0.69973,0.6459 1.07651,1.72241 1.07651,3.17569 v 8.5582 z m -4.30602,-1.34563 c 1.18415,0 2.09918,-0.32295 2.79891,-0.96885 0.6459,-0.6459 1.02268,-1.56093 1.02268,-2.69126 v -1.18415 l -1.93771,0.10765 c -1.5071,0.0538 -2.58361,0.26913 -3.28333,0.69972 -0.6459,0.43061 -0.96886,1.07651 -0.96886,1.93771 0,0.69973 0.21531,1.23798 0.59208,1.56093 0.4306,0.37678 1.02268,0.53825 1.77623,0.53825 z"
         style="fill:#ffffff;fill-opacity:1;fill-rule:nonzero;stroke:none;stroke-width:0.67281955" />
      <path
         id="path2292"
         d="m -242.71012,481.74409 c -20.83034,0 -37.62379,16.79345 -37.62379,37.62379 v 36.81641 h 75.24758 v -36.81641 c 0,-20.83034 -16.79345,-37.62379 -37.62379,-37.62379 z"
         style="fill:#00ccff;fill-opacity:1;fill-rule:evenodd;stroke:none;stroke-width:0.67281955" />
      <path
         id="path2294"
         d="m -214.18278,455.15446 c 0,15.77077 -12.75657,28.52733 -28.52734,28.52733 -15.77077,0 -28.52734,-12.75656 -28.52734,-28.52733 0,-15.77077 12.75657,-28.52734 28.52734,-28.52734 15.77077,0 28.52734,12.75657 28.52734,28.52734 z"
         style="fill:#ffcc00;fill-opacity:1;fill-rule:evenodd;stroke:none;stroke-width:0.67281955" />
      <path
         id="path2296"
         d="m -248.84619,455.15446 c 0,2.153 -1.77623,3.87541 -3.92923,3.87541 -2.15301,0 -3.87542,-1.72241 -3.87542,-3.87541 0,-2.15301 1.72241,-3.87541 3.87542,-3.87541 2.153,0 3.92923,1.7224 3.92923,3.87541 z"
         style="fill:#000000;fill-opacity:1;fill-rule:evenodd;stroke:none;stroke-width:0.67281955" />
      <path
         id="path2298"
         d="m -228.7694,455.15446 c 0,2.153 -1.72241,3.87541 -3.87542,3.87541 -2.153,0 -3.8754,-1.72241 -3.8754,-3.87541 0,-2.15301 1.7224,-3.87541 3.8754,-3.87541 2.15301,0 3.87542,1.7224 3.87542,3.87541 z"
         style="fill:#000000;fill-opacity:1;fill-rule:evenodd;stroke:none;stroke-width:0.67281955" />
      <path
         id="path2300"
         d="m -251.91422,470.06403 c 2.26065,4.09071 5.65164,6.51284 9.2041,6.51284 3.55246,0 6.94345,-2.42213 9.2041,-6.51284 z"
         style="fill:#000000;fill-opacity:1;fill-rule:evenodd;stroke:none;stroke-width:0.67281955" />
      <path
         id="path2302"
         d="m -258.6962,510.4329 v -16.73962 h 1.93771 v 16.73962 z"
         style="fill:#ffffff;fill-opacity:1;fill-rule:nonzero;stroke:none;stroke-width:0.67281955" />
      <path
         id="path2304"
         d="m -255.73581,523.13564 c 0,2.69126 -0.69972,4.79044 -2.04536,6.35137 -1.34562,1.5071 -3.2295,2.26066 -5.65164,2.26066 -2.47596,0 -4.35984,-0.75356 -5.70546,-2.26066 -1.34564,-1.50711 -1.99154,-3.60628 -1.99154,-6.35137 0,-2.74508 0.6459,-4.84426 1.99154,-6.35137 1.34562,-1.50711 3.28333,-2.26066 5.75928,-2.26066 2.36832,0 4.2522,0.75355 5.59782,2.31449 1.34564,1.5071 2.04536,3.60629 2.04536,6.29754 z m -13.34864,0 c 0,2.26066 0.48443,3.98306 1.45328,5.16722 0.96885,1.18415 2.3683,1.77623 4.19836,1.77623 1.88388,0 3.28334,-0.59208 4.19837,-1.77623 0.96885,-1.18416 1.45327,-2.90656 1.45327,-5.16722 0,-2.26066 -0.48442,-3.92924 -1.45327,-5.11339 -0.91503,-1.18415 -2.31449,-1.72241 -4.14455,-1.72241 -1.88388,0 -3.28333,0.59208 -4.25218,1.72241 -0.96885,1.18415 -1.45328,2.90656 -1.45328,5.11339 z"
         style="fill:#ffffff;fill-opacity:1;fill-rule:nonzero;stroke:none;stroke-width:0.67281955" />
      <path
         id="path2306"
         d="m -246.42405,531.74767 c -0.86121,0 -1.56094,-0.10766 -2.26066,-0.4306 -0.69973,-0.32296 -1.23799,-0.75355 -1.72241,-1.39946 h -0.10765 c 0.10765,0.75355 0.10765,1.45328 0.10765,2.09918 v 5.16722 H -252.291 V 518.9911 h 1.56093 l 0.26913,1.72241 h 0.0538 c 0.53825,-0.69973 1.07651,-1.18415 1.72241,-1.50711 0.6459,-0.26912 1.39945,-0.43059 2.26066,-0.43059 1.66857,0 2.90655,0.53825 3.82158,1.66858 0.91503,1.18414 1.34563,2.74508 1.34563,4.79043 0,2.09918 -0.4306,3.66011 -1.34563,4.84427 -0.91503,1.13033 -2.20683,1.66858 -3.82158,1.66858 z m -0.26913,-11.35711 c -1.29181,0 -2.26066,0.32295 -2.79891,1.0765 -0.59208,0.69973 -0.8612,1.83006 -0.91503,3.33716 v 0.4306 c 0,1.77623 0.32295,3.06804 0.91503,3.82159 0.59207,0.75355 1.5071,1.13033 2.79891,1.13033 1.13033,0 1.9377,-0.43061 2.5836,-1.34563 0.59208,-0.86121 0.91503,-2.04536 0.91503,-3.60629 0,-1.56093 -0.32295,-2.74508 -0.91503,-3.60629 -0.6459,-0.80737 -1.5071,-1.23797 -2.5836,-1.23797 z"
         style="fill:#ffffff;fill-opacity:1;fill-rule:nonzero;stroke:none;stroke-width:0.67281955" />
      <path
         id="path2308"
         d="m -232.59099,531.74767 c -1.88388,0 -3.33716,-0.53825 -4.41366,-1.66858 -1.07651,-1.13033 -1.61476,-2.69126 -1.61476,-4.73662 0,-1.99152 0.53825,-3.60628 1.5071,-4.79043 1.02268,-1.18416 2.31449,-1.77623 4.03689,-1.77623 1.56093,0 2.79891,0.48442 3.71394,1.56092 0.91503,1.02268 1.34563,2.36831 1.34563,4.09071 v 1.18416 h -8.61203 c 0.0538,1.45328 0.37678,2.58361 1.13033,3.33716 0.69973,0.75355 1.66858,1.18415 2.96038,1.18415 1.34564,0 2.69126,-0.32295 3.98307,-0.8612 v 1.66858 c -0.6459,0.32295 -1.29181,0.48443 -1.88388,0.6459 -0.59208,0.10765 -1.29181,0.16148 -2.15301,0.16148 z m -0.53825,-11.41094 c -1.02268,0 -1.77623,0.32295 -2.42213,1.02268 -0.59208,0.6459 -0.91503,1.56093 -1.02268,2.69126 h 6.56666 c 0,-1.18415 -0.26912,-2.09918 -0.80737,-2.74508 -0.53825,-0.64591 -1.2918,-0.96886 -2.31448,-0.96886 z"
         style="fill:#ffffff;fill-opacity:1;fill-rule:nonzero;stroke:none;stroke-width:0.67281955" />
      <path
         id="path2310"
         d="m -216.17432,531.53237 v -8.12761 c 0,-1.02267 -0.21529,-1.77623 -0.69972,-2.26065 -0.48443,-0.53825 -1.18416,-0.75355 -2.20684,-0.75355 -1.2918,0 -2.26065,0.32295 -2.85272,1.0765 -0.64591,0.69973 -0.91503,1.83006 -0.91503,3.49864 v 6.56667 h -1.93771 V 518.9911 h 1.56093 l 0.32295,1.72241 h 0.10765 c 0.37678,-0.6459 0.91503,-1.0765 1.61476,-1.45328 0.69972,-0.32295 1.5071,-0.48442 2.3683,-0.48442 1.50711,0 2.63743,0.37677 3.39098,1.07649 0.75356,0.75356 1.13033,1.88389 1.13033,3.49865 v 8.18142 z"
         style="fill:#ffffff;fill-opacity:1;fill-rule:nonzero;stroke:none;stroke-width:0.67281955" />
      <path
         id="path2312"
         d="m -252.56013,544.12746 c 0,2.74508 -0.75355,4.84426 -2.26065,6.35137 -1.50711,1.45327 -3.66011,2.153 -6.45902,2.153 h -4.62897 v -16.73962 h 5.11339 c 2.58362,0 4.62897,0.75355 6.08225,2.153 1.45328,1.45328 2.153,3.49863 2.153,6.08225 z m -2.04535,0.0538 c 0,-2.20683 -0.53825,-3.82158 -1.66858,-4.95191 -1.0765,-1.07651 -2.69126,-1.66858 -4.84427,-1.66858 h -2.85273 v 13.40246 h 2.3683 c 2.31449,0 4.09072,-0.59207 5.22105,-1.7224 1.18415,-1.13033 1.77623,-2.79891 1.77623,-5.05957 z"
         style="fill:#ffffff;fill-opacity:1;fill-rule:nonzero;stroke:none;stroke-width:0.67281955" />
      <path
         id="path2314"
         d="m -241.41832,552.63183 -0.37678,-1.77623 h -0.10764 c -0.59208,0.80738 -1.23798,1.29181 -1.83006,1.61475 -0.6459,0.26913 -1.39945,0.37678 -2.36831,0.37678 -1.23797,0 -2.20683,-0.32295 -2.90656,-0.91503 -0.69972,-0.6459 -1.0765,-1.56092 -1.0765,-2.74508 0,-2.52978 2.04536,-3.87541 6.08225,-3.98306 l 2.15301,-0.10765 v -0.75356 c 0,-0.96885 -0.21531,-1.7224 -0.64591,-2.153 -0.4306,-0.48443 -1.07651,-0.75355 -2.04536,-0.75355 -1.02267,0 -2.20683,0.32295 -3.55246,0.96885 l -0.53825,-1.45328 c 0.59208,-0.32295 1.29181,-0.59207 1.99153,-0.75355 0.75355,-0.2153 1.50711,-0.32295 2.20683,-0.32295 1.50711,0 2.63743,0.32295 3.33717,1.02267 0.75355,0.6459 1.0765,1.72241 1.0765,3.17569 v 8.5582 z m -4.30601,-1.34563 c 1.18415,0 2.153,-0.32295 2.79891,-0.96885 0.69973,-0.6459 1.02268,-1.56093 1.02268,-2.69126 v -1.18415 l -1.88388,0.10765 c -1.50711,0.0538 -2.63743,0.26913 -3.28334,0.69972 -0.6459,0.43061 -1.02268,1.07651 -1.02268,1.93771 0,0.69973 0.2153,1.23798 0.64591,1.56093 0.43059,0.37678 1.02268,0.53825 1.7224,0.53825 z"
         style="fill:#ffffff;fill-opacity:1;fill-rule:nonzero;stroke:none;stroke-width:0.67281955" />
      <path
         id="path2316"
         d="m -231.99891,551.2862 c 0.32295,0 0.6459,0 0.96885,-0.0538 0.32295,-0.0538 0.53825,-0.10765 0.75355,-0.16148 v 1.45328 c -0.2153,0.10765 -0.53825,0.16148 -0.91502,0.2153 -0.43061,0.10765 -0.80738,0.10765 -1.07651,0.10765 -2.47595,0 -3.66011,-1.23798 -3.66011,-3.82159 v -7.4817 h -1.83006 v -0.91502 l 1.83006,-0.75355 0.80738,-2.69126 h 1.0765 v 2.90656 h 3.66011 v 1.45327 h -3.66011 v 7.42788 c 0,0.75355 0.2153,1.29181 0.53825,1.7224 0.37678,0.37678 0.8612,0.59208 1.50711,0.59208 z"
         style="fill:#ffffff;fill-opacity:1;fill-rule:nonzero;stroke:none;stroke-width:0.67281955" />
      <path
         id="path2318"
         d="m -220.04972,552.63183 -0.37678,-1.77623 h -0.10765 c -0.6459,0.80738 -1.23798,1.29181 -1.88388,1.61475 -0.59208,0.26913 -1.39946,0.37678 -2.31448,0.37678 -1.23798,0 -2.20684,-0.32295 -2.96039,-0.91503 -0.69972,-0.6459 -1.02268,-1.56092 -1.02268,-2.74508 0,-2.52978 2.04536,-3.87541 6.08224,-3.98306 l 2.09919,-0.10765 v -0.75356 c 0,-0.96885 -0.21531,-1.7224 -0.6459,-2.153 -0.37678,-0.48443 -1.07651,-0.75355 -1.99154,-0.75355 -1.0765,0 -2.26066,0.32295 -3.55246,0.96885 l -0.59207,-1.45328 c 0.6459,-0.32295 1.2918,-0.59207 2.04535,-0.75355 0.69973,-0.2153 1.45328,-0.32295 2.20684,-0.32295 1.5071,0 2.5836,0.32295 3.33715,1.02267 0.69973,0.6459 1.07651,1.72241 1.07651,3.17569 v 8.5582 z m -4.30602,-1.34563 c 1.18415,0 2.09918,-0.32295 2.79891,-0.96885 0.6459,-0.6459 1.02268,-1.56093 1.02268,-2.69126 v -1.18415 l -1.93771,0.10765 c -1.5071,0.0538 -2.58361,0.26913 -3.28333,0.69972 -0.6459,0.43061 -0.96886,1.07651 -0.96886,1.93771 0,0.69973 0.21531,1.23798 0.59208,1.56093 0.4306,0.37678 1.02268,0.53825 1.77623,0.53825 z"
         style="fill:#ffffff;fill-opacity:1;fill-rule:nonzero;stroke:none;stroke-width:0.67281955" />
      <path
         id="path2320"
         d="m -238.94236,514.46979 c -0.59208,-0.59208 -1.93771,-1.83006 -3.06803,-2.69126 -3.39099,-2.52978 -3.82159,-2.90656 -5.22105,-4.14453 -2.52978,-2.31449 -3.60628,-4.6828 -3.55246,-7.80466 0,-1.56093 0.10765,-2.153 0.53826,-3.06803 0.69972,-1.56093 1.77623,-2.69126 3.17568,-3.39098 0.96885,-0.48443 1.45328,-0.69973 3.06804,-0.75356 1.7224,0 2.09918,0.2153 3.06803,0.75356 1.23798,0.69972 2.52978,2.09918 2.74509,3.12185 l 0.16147,0.6459 0.4306,-0.8612 c 2.20683,-4.89808 9.36558,-4.84426 11.84154,0.10765 0.80737,1.56093 0.91503,4.95192 0.2153,6.8358 -0.91503,2.47596 -2.63744,4.35984 -6.6205,7.21257 -2.5836,1.88389 -5.54399,4.73662 -5.75929,5.16722 -0.2153,0.4306 0,0.0538 -1.02268,-1.13033 z"
         style="fill:#ff0000;fill-opacity:1;fill-rule:nonzero;stroke:none;stroke-width:0.67281955" />
      <path
         id="path2322"
         d="m -264.56313,424.85089 c -7.21258,5.43634 -11.46477,13.99455 -11.35712,23.03717 8.66586,2.63744 18.08526,0.91503 25.29783,-4.46748 7.2664,-5.49017 11.46476,-14.04837 11.35711,-23.091 -8.66585,-2.58361 -18.03143,-0.91503 -25.29782,4.52131 z"
         style="fill:#ff6600;fill-opacity:1;fill-rule:evenodd;stroke:none;stroke-width:0.67281955" />
      <path
         id="path2324"
         d="m -220.85711,424.85089 c 7.21257,5.43634 11.46477,13.99455 11.35712,23.03717 -8.66586,2.63744 -18.08526,0.91503 -25.29783,-4.46748 -7.21257,-5.49017 -11.46476,-14.04837 -11.35711,-23.091 8.66585,-2.58361 18.08525,-0.91503 25.29782,4.52131 z"
         style="fill:#ff6600;fill-opacity:1;fill-rule:evenodd;stroke:none;stroke-width:0.67281955" />
    </g>
    <path
       id="path2744"
       d="m 329.34796,82.9081 a 33.907457,23.600922 0 0 1 -0.13271,0.003 33.907457,23.600922 0 0 1 -0.0965,-0.003 33.907457,33.907457 0 0 0 0.0965,0.005 33.907457,33.907457 0 0 0 0.13271,-0.005 z"
       style="opacity:1;fill:#803300;fill-opacity:1;fill-rule:evenodd;stroke:none;stroke-width:0.49254942;stroke-linecap:round;stroke-linejoin:round;stroke-miterlimit:4;stroke-dasharray:none;stroke-dashoffset:0;stroke-opacity:1" />
    <path
       id="path2788"
       style="fill:#de8787;fill-rule:evenodd;stroke:none;stroke-width:0.39843822"
       d="m 425.97124,133.00604 c 0,0 0.0372,4.62456 -2.61109,6.00448 -1.89126,0.98545 -5.89158,-1.08244 -5.89158,-1.08244 z" />
    <path
       id="path2790"
       style="fill:#de8787;fill-rule:evenodd;stroke:none;stroke-width:0.39843822"
       d="m 419.33061,92.38792 c 2.74258,0.92332 4.11055,5.25433 3.85024,7.11904 l -12.07667,-4.90478 c 1.78899,-0.52992 5.4679,-3.14263 8.22643,-2.21426 z" />
    <path
       id="path2792"
       style="fill:#de8787;fill-rule:evenodd;stroke:none;stroke-width:0.39843822"
       d="m 392.22751,144.7002 c 1.53531,1.34141 1.97891,5.37228 6.80267,5.22087 4.82641,-0.15141 5.58344,-3.79312 7.69915,-4.74805 2.02672,-0.91374 -16.06237,-1.83814 -14.50182,-0.47282 z" />
    <path
       id="path2794"
       d="m 405.73058,92.98559 c -4.14376,0.003 -8.31674,0.77163 -12.18158,2.19672 -10.96503,4.04149 -16.90574,13.06479 -18.3534,18.87932 -5.44134,21.85435 15.47269,29.27325 17.03324,30.63857 1.53531,1.34141 12.38611,1.42775 14.50182,0.47282 2.02672,-0.91374 5.69767,-0.32803 16.34792,-8.54117 10.59979,-8.17463 10.89729,-25.8839 3.69485,-34.49016 -2.71203,-3.2393 -5.72954,-5.39353 -9.40978,-6.885 -0.41969,-0.093 -1.01469,-0.12751 -1.32547,-0.13947 -0.11422,-0.18992 -0.24836,-0.35859 -0.45821,-0.55781 -3.14235,-1.07047 -6.48657,-1.57515 -9.84939,-1.57382 z"
       style="fill:#e9afaf;fill-rule:evenodd;stroke:none;stroke-width:0.39843822" />
    <path
       id="path2796"
       style="fill:#de8787;fill-rule:evenodd;stroke:none;stroke-width:0.39843822"
       d="m 406.40792,124.18595 c 4.51033,0.48743 13.71159,-5.3789 8.96487,-17.08502 -4.7454,-11.70745 -19.44379,-9.16674 -21.51567,-2.42651 -0.3918,1.27501 6.04564,2.61908 8.75369,7.80541 2.70938,5.18503 1.59641,11.46972 3.79711,11.70612 z" />
    <g
       transform="translate(626.3708,-406.18427)"
       id="g3216">
      <path
         id="path2204"
         d="m -151.6134,481.74409 c -20.83034,0 -37.56997,16.79345 -37.56997,37.62379 v 36.81641 h 75.19376 v -36.81641 c 0,-20.83034 -16.73962,-37.62379 -37.62379,-37.62379 z"
         style="fill:#00d400;fill-opacity:1;fill-rule:evenodd;stroke:none;stroke-width:0.67281955" />
      <path
         id="path2206"
         d="m -174.16615,505.75011 h 45.37462 c 2.09918,0 3.76776,1.66858 3.76776,3.71394 v 33.80221 c 0,2.09917 -1.66858,3.76775 -3.76776,3.76775 h -45.37462 c -2.09918,0 -3.76776,-1.66858 -3.76776,-3.76775 v -33.80221 c 0,-2.04536 1.66858,-3.71394 3.76776,-3.71394 z"
         style="fill:#1a1a1a;fill-opacity:1;fill-rule:evenodd;stroke:none;stroke-width:0.67281955" />
      <path
         id="path2208"
         d="m -171.20576,508.81815 h 39.40002 c 1.88388,0 3.44481,1.5071 3.44481,3.44481 v 28.25821 c 0,1.88388 -1.56093,3.39099 -3.44481,3.39099 h -39.40002 c -1.88388,0 -3.39099,-1.50711 -3.39099,-3.39099 v -28.25821 c 0,-1.93771 1.50711,-3.44481 3.39099,-3.44481 z"
         style="fill:#0066ff;fill-opacity:1;fill-rule:evenodd;stroke:none;stroke-width:0.67281955" />
      <path
         id="path2210"
         d="m -149.19127,517.21487 h 7.64317 v 7.58935 h -7.64317 z"
         style="fill:#f9f9f9;fill-opacity:1;fill-rule:evenodd;stroke:none;stroke-width:0.67281955" />
      <path
         id="path2212"
         d="m -157.53417,533.9545 h 7.58935 v 7.58934 h -7.58935 z"
         style="fill:#f9f9f9;fill-opacity:1;fill-rule:evenodd;stroke:none;stroke-width:0.67281955" />
      <path
         id="path2214"
         d="m -149.19127,533.9545 h 7.64317 v 7.58934 h -7.64317 z"
         style="fill:#f9f9f9;fill-opacity:1;fill-rule:evenodd;stroke:none;stroke-width:0.67281955" />
      <path
         id="path2216"
         d="m -140.79454,533.9545 h 7.58934 v 7.58934 h -7.58934 z"
         style="fill:#f9f9f9;fill-opacity:1;fill-rule:evenodd;stroke:none;stroke-width:0.67281955" />
      <path
         id="path2218"
         d="m -153.38963,525.55777 h 7.64317 v 7.64318 h -7.64317 z"
         style="fill:#f9f9f9;fill-opacity:1;fill-rule:evenodd;stroke:none;stroke-width:0.67281955" />
      <path
         id="path2220"
         d="m -144.99291,525.55777 h 7.58935 v 7.64318 h -7.58935 z"
         style="fill:#f9f9f9;fill-opacity:1;fill-rule:evenodd;stroke:none;stroke-width:0.67281955" />
      <path
         id="path2222"
         d="m -166.3615,510.32525 h 1.56093 c 1.23798,0 2.20684,0.96886 2.20684,2.20683 v 8.3429 c 0,1.23798 -0.96886,2.20684 -2.20684,2.20684 h -1.56093 c -1.23798,0 -2.20683,-0.96886 -2.20683,-2.20684 v -8.3429 c 0,-1.23797 0.96885,-2.20683 2.20683,-2.20683 z"
         style="fill:#ff0000;fill-opacity:1;fill-rule:evenodd;stroke:none;stroke-width:0.67281955" />
      <path
         id="path2224"
         d="m -167.27652,514.95422 h 3.39098 c 2.52978,0 4.57514,2.04536 4.57514,4.57514 v 17.43935 c 0,2.52978 -2.04536,4.57513 -4.57514,4.57513 h -3.39098 c -2.52979,0 -4.52132,-2.04535 -4.52132,-4.57513 v -17.43935 c 0,-2.52978 1.99153,-4.57514 4.52132,-4.57514 z"
         style="fill:#280b0b;fill-opacity:1;fill-rule:evenodd;stroke:none;stroke-width:0.67281955" />
      <path
         id="path2226"
         d="m -171.79784,521.73619 v 13.02569 h 12.48744 v -13.02569 z"
         style="fill:#ff0000;fill-opacity:1;fill-rule:evenodd;stroke:none;stroke-width:0.67281955" />
      <path
         id="path2228"
         d="m -173.1973,509.46405 c -0.8612,0.6459 -1.39945,1.61475 -1.39945,2.79891 v 28.25821 c 0,1.88388 1.50711,3.39099 3.39099,3.39099 h 39.40002 c 0.75355,0 1.39945,-0.21531 1.93771,-0.59208 z"
         style="fill:#ffffff;fill-opacity:0.48307693;fill-rule:evenodd;stroke:none;stroke-width:0.67281955" />
      <path
         id="path2328"
         d="m -175.40412,492.29382 c -22.4451,12.75657 -9.36558,33.47926 1.99153,53.82516"
         style="fill:none;stroke:#000000;stroke-width:3.06803417px;stroke-linecap:butt;stroke-linejoin:miter;stroke-miterlimit:4;stroke-dasharray:none;stroke-opacity:1" />
      <path
         id="path2330"
         d="m -169.75249,542.35123 c -1.99152,-2.52979 -5.65163,-2.96039 -8.18142,-0.96886 -2.52978,2.04536 -2.96038,5.70547 -0.96885,8.23526 1.99153,2.52978 5.65164,2.96037 8.18143,0.96885 2.52978,-1.99153 2.96038,-5.70547 0.96884,-8.23525 z"
         style="fill:#ffcc00;fill-opacity:1;fill-rule:evenodd;stroke:none;stroke-width:0.67281955" />
      <path
         id="path2332"
         d="m -127.76886,492.29382 c 22.4451,12.75657 9.36559,33.47926 -1.99153,53.82516"
         style="fill:none;stroke:#000000;stroke-width:3.06803417px;stroke-linecap:butt;stroke-linejoin:miter;stroke-miterlimit:4;stroke-dasharray:none;stroke-opacity:1" />
      <path
         id="path2334"
         d="m -133.4205,542.35123 c 1.99153,-2.52979 5.65164,-2.96039 8.18143,-0.96886 2.52978,2.04536 2.96038,5.70547 0.96885,8.23526 -1.99153,2.52978 -5.65164,2.96037 -8.18143,0.96885 -2.52978,-1.99153 -2.96037,-5.70547 -0.96885,-8.23525 z"
         style="fill:#ffcc00;fill-opacity:1;fill-rule:evenodd;stroke:none;stroke-width:0.67281955" />
      <path
         id="path2336"
         d="m -151.55958,481.90556 c -15.12487,0 -27.55848,9.31176 -33.5869,22.12215 l 66.3126,-0.53826 c -5.97459,-12.75656 -17.65465,-21.58389 -32.7257,-21.58389 z"
         style="fill:#00d400;fill-opacity:1;fill-rule:evenodd;stroke:none;stroke-width:0.67281955" />
      <path
         id="path2338"
         d="m -123.03224,455.15446 c 0,15.77077 -12.81039,28.52733 -28.58116,28.52733 -15.71695,0 -28.52734,-12.75656 -28.52734,-28.52733 0,-15.77077 12.81039,-28.52734 28.52734,-28.52734 15.77077,0 28.58116,12.75657 28.58116,28.52734 z"
         style="fill:#ffcc00;fill-opacity:1;fill-rule:evenodd;stroke:none;stroke-width:0.67281955" />
      <path
         id="path2340"
         d="m -160.8175,470.06403 c 2.31448,4.09071 5.65164,6.51284 9.2041,6.51284 3.60629,0 6.94345,-2.42213 9.25792,-6.51284 z"
         style="fill:#000000;fill-opacity:1;fill-rule:evenodd;stroke:none;stroke-width:0.67281955" />
      <path
         id="path2342"
         d="m -151.99018,421.40608 c 15.55548,0 28.74264,11.51859 30.84182,26.91259 -7.10492,-1.61476 -13.51011,-5.43634 -18.35438,-10.92651 -6.56667,7.48169 -15.98607,11.78771 -25.94373,11.78771 -5.81312,0 -11.57241,-1.45328 -16.6858,-4.30602 3.49863,-13.77923 15.93225,-23.46777 30.14209,-23.46777 z"
         style="fill:#2b1100;fill-opacity:1;fill-rule:evenodd;stroke:none;stroke-width:0.67281955" />
      <path
         id="path2344"
         d="m -157.74947,455.15446 c 0,2.153 -1.72241,3.87541 -3.87541,3.87541 -2.15301,0 -3.92924,-1.72241 -3.92924,-3.87541 0,-2.15301 1.77623,-3.87541 3.92924,-3.87541 2.153,0 3.87541,1.7224 3.87541,3.87541 z"
         style="fill:#000000;fill-opacity:1;fill-rule:evenodd;stroke:none;stroke-width:0.67281955" />
      <path
         id="path2346"
         d="m -137.61886,455.15446 c 0,2.153 -1.77623,3.87541 -3.92924,3.87541 -2.153,0 -3.87541,-1.72241 -3.87541,-3.87541 0,-2.15301 1.72241,-3.87541 3.87541,-3.87541 2.15301,0 3.92924,1.7224 3.92924,3.87541 z"
         style="fill:#000000;fill-opacity:1;fill-rule:evenodd;stroke:none;stroke-width:0.67281955" />
    </g>
    <path
       id="path2798"
       style="fill:#de8787;fill-rule:evenodd;stroke:none;stroke-width:0.39843822"
       d="m 388.60969,100.49083 c 2.56328,-0.89648 7.60884,-3.92993 5.66844,-5.55688 -2.90992,0.99742 -7.50657,-7.31827 -16.03448,-1.82618 -4.8968,3.15296 1.62165,11.98768 -0.0186,14.29994 2.27774,-3.79977 3.71344,-4.59265 10.38463,-6.91688 z" />
    <path
       id="path2800"
       style="fill:#de8787;fill-rule:evenodd;stroke:none;stroke-width:0.39843822"
       d="m 375.40677,119.65173 c -1.26039,1.68008 -4.11321,2.42517 -4.27126,6.01109 -0.15937,3.63908 2.88603,10.17347 7.32994,11.44316 4.42931,1.2657 4.90478,-0.15804 7.17189,-0.0518 2.21531,0.10227 2.37336,-8.80682 -1.5818,-12.97316 -3.9286,-4.13844 -6.80267,-4.79852 -8.64877,-4.42929 z" />
    <path
       id="path2802"
       style="fill:#e9afaf;stroke:none;stroke-width:0.39843822"
       d="m 372.5845,122.22166 c -0.76653,0.80553 -1.37793,1.83905 -1.44846,3.4449 -0.15932,3.6384 2.8847,10.17585 7.32967,11.44684 1.65286,0.47235 2.75241,0.56817 3.60255,0.51053 0.22655,-1.0192 0.35278,-2.08941 0.35278,-3.19575 0,-6.66401 -4.38734,-12.07893 -9.83638,-12.20629 z" />
    <path
       id="path2804"
       style="opacity:0.9;fill:#a8443f;fill-rule:evenodd;stroke:none;stroke-width:3"
       d="m 648.58,197.53 c 0,0 53.17,-24.13 87.59,5.62 45.49,39.3 3.93,142.06 3.93,142.06 z"
       clip-path="url(#clipPath3671-0-6-8)"
       transform="matrix(0.13281275,0,0,0.13281275,307.02016,79.32712)" />
    <path
       id="path2806"
       style="opacity:0.9;fill:#a8443e;fill-rule:evenodd;stroke:none;stroke-width:3"
       d="m 213.76,163.84 c -27.51,-7.3 -62.33,-54.47 -82.54,-35.94 -14.93,13.68 16.28,76.37 7.86,83.67 -8.42,7.3 88.21,-44 74.68,-47.73 z"
       clip-path="url(#clipPath3903-7-2-4)"
       transform="matrix(0.13281275,0,0,0.13281275,360.14526,79.32712)" />
    <path
       id="path2808"
       style="opacity:0.95;fill:#a73c39;fill-rule:evenodd;stroke:none;stroke-width:0.39843822"
       d="m 372.42911,125.82221 c -0.4768,0.4436 -0.21383,3.90204 0.23375,5.27267 0.44758,1.37061 1.38125,2.54468 1.68805,2.32155 0.29086,-0.21116 0.36656,-1.9975 0.0558,-3.37609 -0.31742,-1.39719 -0.40773,-3.79977 -0.84336,-3.9565 -0.42633,-0.15404 -0.67203,-0.69196 -1.13422,-0.26163 z m 3.48102,2.76648 c -0.49008,0.33337 -0.60562,2.71071 -0.45023,4.11323 0.20054,1.5539 1.37992,3.71741 2.45172,3.98303 1.0718,0.2643 1.3175,-0.0784 1.0811,-1.63492 -0.23774,-1.55523 -0.86993,-3.11047 -0.97485,-4.11321 -0.10625,-1.00141 -0.0306,-1.42639 -0.68664,-1.89656 -0.65743,-0.47149 -0.93234,-0.78493 -1.4211,-0.45157 z" />
    <path
       id="path2810"
       style="fill:#de8787;fill-rule:evenodd;stroke:none;stroke-width:0.39843822"
       d="m 410.59153,93.74129 c -5.97791,0.0186 -11.91995,2.26579 -14.79534,4.04282 0.13281,0.47545 2.28305,1.10368 2.87938,1.06648 6.08548,-1.89258 11.64103,-4.23539 17.37456,-3.72673 -0.12484,-0.30811 -0.50601,-0.62553 -1.00008,-0.92969 -1.45695,-0.31875 -2.95907,-0.45687 -4.45852,-0.45288 z" />
    <path
       id="path2812"
       style="opacity:0.75;fill:#aa4b45;fill-rule:evenodd;stroke:none;stroke-width:0.39843822"
       d="m 411.85325,94.95387 c -4.98048,0.0412 -9.6369,1.47157 -14.18308,3.73469 0.41969,0.10757 0.79954,0.17399 1.00008,0.16203 5.48916,-1.70665 10.54666,-3.78118 15.69316,-3.79711 -0.84602,-0.073 -1.68407,-0.10759 -2.51016,-0.0996 z" />
    <ellipse
       ry="2.473177"
       rx="1.2979795"
       cy="-79.929703"
       cx="388.68115"
       id="ellipse2814"
       style="fill:#ffffff;stroke:none;stroke-width:0.47615269"
       transform="rotate(28.169503)" />
    <path
       id="path2816"
       style="fill:#2b1100;stroke:none;stroke-width:0.47614652"
       d="m 381.34259,112.92281 c -0.18875,0.76483 -1.34715,1.63016 -1.97911,1.29174 -0.63193,-0.33842 -0.60786,-1.81847 -0.0613,-2.40563 0.31461,-0.33797 0.75182,-0.40226 1.38376,-0.0638 0.63194,0.3384 0.76436,0.74136 0.65667,1.17774 z" />
    <ellipse
       ry="2.8185122"
       rx="1.4792192"
       cy="-80.443932"
       cx="398.42944"
       id="ellipse2818"
       style="fill:#ffffff;stroke:none;stroke-width:0.47614762"
       transform="rotate(28.169742)" />
    <path
       id="path2820"
       style="fill:#2b1100;stroke:none;stroke-width:0.47615057"
       d="m 390.29167,117.19723 c -0.21511,0.87165 -1.53527,1.8578 -2.25546,1.47213 -0.72018,-0.38568 -0.69274,-2.07238 -0.0699,-2.74155 0.35854,-0.38517 0.8568,-0.45842 1.57698,-0.0728 0.72018,0.38568 0.87109,0.84488 0.74836,1.34221 z" />
    <ellipse
       ry="8.3839102"
       rx="7.9703908"
       cy="87.182312"
       cx="405.25775"
       id="ellipse2822"
       style="opacity:1;fill:#f5d558;fill-opacity:1;fill-rule:nonzero;stroke:none;stroke-width:1.14748085;stroke-linecap:round;stroke-linejoin:round;stroke-miterlimit:4;stroke-dasharray:none;stroke-dashoffset:0;stroke-opacity:1" />
    <circle
       r="6.1129584"
       style="opacity:1;fill:#cbc4ac;fill-opacity:1;fill-rule:nonzero;stroke:none;stroke-width:1.14748085;stroke-linecap:round;stroke-linejoin:round;stroke-miterlimit:4;stroke-dasharray:none;stroke-dashoffset:0;stroke-opacity:1"
       id="circle2824"
       cx="405.25775"
       cy="87.182312" />
    <circle
       style="opacity:1;fill:#ffcc00;fill-opacity:1;fill-rule:evenodd;stroke:none;stroke-width:0.49254942;stroke-linecap:round;stroke-linejoin:round;stroke-miterlimit:4;stroke-dasharray:none;stroke-dashoffset:0;stroke-opacity:1"
       id="circle2826"
       cx="400.41946"
       cy="80.500427"
       r="5.8357081" />
    <rect
       transform="matrix(0.99998528,-0.0054253,0.0069006,0.99997619,0,0)"
       ry="0"
       y="110.50511"
       x="13.343112"
       height="35.946751"
       width="213.37112"
       id="rect2896"
       style="opacity:1;fill:#0066ff;fill-opacity:1;fill-rule:nonzero;stroke:none;stroke-width:11.50967216;stroke-miterlimit:4;stroke-dasharray:none;stroke-opacity:1" />
    <rect
       transform="matrix(0.99999157,-0.00410703,0.00668169,0.99997768,0,0)"
       ry="0"
       y="38.171986"
       x="16.113718"
       height="35.946877"
       width="174.9532"
       id="rect2898"
       style="opacity:1;fill:#00d400;fill-opacity:1;fill-rule:nonzero;stroke:none;stroke-width:10.42213917;stroke-miterlimit:4;stroke-dasharray:none;stroke-opacity:1" />
    <text
       id="text2908"
       y="27.564663"
       x="17.571442"
       style="font-style:normal;font-variant:normal;font-weight:normal;font-stretch:normal;font-size:29.38078308px;line-height:1.25;font-family:arial;-inkscape-font-specification:arial;letter-spacing:0px;word-spacing:0px;fill:#ffffff;fill-opacity:1;stroke:none;stroke-width:0.73451954"
       xml:space="preserve"><tspan
         style="font-style:normal;font-variant:normal;font-weight:normal;font-stretch:normal;font-family:arial;-inkscape-font-specification:arial;fill:#ffffff;stroke-width:0.73451954"
         y="27.564663"
         x="17.571442"
         id="tspan2900">Elintarviketietoja</tspan><tspan
         id="tspan2906"
         style="font-style:normal;font-variant:normal;font-weight:normal;font-stretch:normal;font-family:arial;-inkscape-font-specification:arial;fill:#ffffff;stroke-width:0.73451954"
         y="64.290642"
         x="17.571442">tutkimukseen,</tspan><tspan
         id="tspan3360"
         style="font-style:normal;font-variant:normal;font-weight:normal;font-stretch:normal;font-family:arial;-inkscape-font-specification:arial;fill:#ffffff;stroke-width:0.73451954"
         y="101.01662"
         x="17.571442">joka parantaa</tspan><tspan
         id="tspan3362"
         style="font-style:normal;font-variant:normal;font-weight:normal;font-stretch:normal;font-family:arial;-inkscape-font-specification:arial;fill:#ffffff;stroke-width:0.73451954"
         y="137.7426"
         x="17.571442">kansanterveyttä?</tspan></text>
    <rect
       ry="12.781372"
       y="97.999237"
       x="561.45703"
       height="43.464752"
       width="223.33794"
       id="rect2912"
       style="opacity:1;fill:#0066ff;fill-opacity:1;fill-rule:nonzero;stroke:#ffffff;stroke-width:1;stroke-miterlimit:4;stroke-dasharray:none;stroke-opacity:1" />
    <ellipse
       ry="37.838493"
       rx="110.20459"
       cy="44.321987"
       cx="638.12555"
       id="ellipse2918"
       style="opacity:1;fill:#ffffff;fill-opacity:1;fill-rule:nonzero;stroke:#000000;stroke-width:1;stroke-miterlimit:4;stroke-dasharray:none;stroke-opacity:1" />
    <path
       style="fill:#ffffff;stroke:none;stroke-width:1;stroke-linecap:butt;stroke-linejoin:miter;stroke-miterlimit:4;stroke-dasharray:none;stroke-opacity:1"
       d="m 508.16792,67.95523 44.88381,-22.87408 3.83138,14.79443 z"
       id="path2920" />
    <ellipse
       style="opacity:1;fill:#ffffff;fill-opacity:1;fill-rule:nonzero;stroke:none;stroke-width:1;stroke-miterlimit:4;stroke-dasharray:none;stroke-opacity:1"
       id="ellipse2922"
       cx="638.12555"
       cy="44.321987"
       rx="110.20459"
       ry="37.838493" />
    <text
       xml:space="preserve"
       style="font-style:normal;font-variant:normal;font-weight:normal;font-stretch:normal;font-size:24.27246284px;line-height:1.25;font-family:arial;-inkscape-font-specification:arial;letter-spacing:0px;word-spacing:0px;fill:#000000;fill-opacity:1;stroke:none;stroke-width:0.60681152"
       x="590.48138"
       y="35.866146"
       id="text2926"><tspan
         id="tspan2924"
         x="590.48138"
         y="56.59483"
         style="font-style:normal;font-variant:normal;font-weight:normal;font-stretch:normal;font-family:arial;-inkscape-font-specification:arial;fill:#000000;stroke-width:0.60681152" /></text>
    <text
       id="text5029"
       y="37.242531"
       x="500.04172"
       style="font-style:normal;font-variant:normal;font-weight:normal;font-stretch:normal;font-size:24px;line-height:1.25;font-family:arial;-inkscape-font-specification:arial;text-align:start;letter-spacing:0px;word-spacing:0px;text-anchor:start;fill:#000000;fill-opacity:1;stroke:none"
       xml:space="preserve"><tspan
         id="tspan5023"
         y="37.242531"
         x="567.75769"><tspan
           style="text-align:start;text-anchor:start"
           id="tspan5019"
           y="37.242531"
           x="567.75769">Tarvitsemme</tspan><tspan
           style="text-align:start;text-anchor:start"
           id="tspan5021"
           y="37.242531"
           x="704.72534"
           dx="0" /></tspan><tspan
         id="tspan5027"
         y="67.242546"
         x="595.27368"><tspan
           style="text-align:start;text-anchor:start"
           id="tspan5025"
           y="67.242546"
           x="595.27368">tukeasi!</tspan></tspan></text>
    <text
       id="text5035"
       y="128.50526"
       x="675.03284"
       style="font-style:normal;font-weight:normal;font-size:24px;line-height:1.25;font-family:sans-serif;letter-spacing:0px;word-spacing:0px;fill:#000000;fill-opacity:1;stroke:none"
       xml:space="preserve"><tspan
         id="tspan5033"
         y="128.50526"
         x="675.03284"><tspan
           id="tspan5031"
           style="font-style:normal;font-variant:normal;font-weight:normal;font-stretch:normal;font-size:32px;font-family:arial;-inkscape-font-specification:arial;text-align:center;text-anchor:middle;fill:#ffffff"
           y="128.50526"
           x="675.03284">Lahjoita</tspan></tspan></text>
  </g>
</svg>
