<?xml version="1.0" encoding="UTF-8"?>
<svg width="33.256mm" height="33.253mm" version="1.1" viewBox="0 0 33.256 33.253" xmlns="http://www.w3.org/2000/svg" xmlns:cc="http://creativecommons.org/ns#" xmlns:dc="http://purl.org/dc/elements/1.1/" xmlns:rdf="http://www.w3.org/1999/02/22-rdf-syntax-ns#">
 <metadata>
  <rdf:RDF>
   <cc:Work rdf:about="">
    <dc:format>image/svg+xml</dc:format>
    <dc:type rdf:resource="http://purl.org/dc/dcmitype/StillImage"/>
    <dc:title/>
    <cc:license rdf:resource="http://creativecommons.org/licenses/by/4.0/"/>
    <dc:source>https://thenounproject.com/term/together-hand/4275506/</dc:source>
    <dc:creator>
     <cc:Agent>
      <dc:title>by Tippawan Sookruay from the Noun Project</dc:title>
     </cc:Agent>
    </dc:creator>
   </cc:Work>
   <cc:License rdf:about="http://creativecommons.org/licenses/by/4.0/">
    <cc:permits rdf:resource="http://creativecommons.org/ns#Reproduction"/>
    <cc:permits rdf:resource="http://creativecommons.org/ns#Distribution"/>
    <cc:requires rdf:resource="http://creativecommons.org/ns#Notice"/>
    <cc:requires rdf:resource="http://creativecommons.org/ns#Attribution"/>
    <cc:permits rdf:resource="http://creativecommons.org/ns#DerivativeWorks"/>
   </cc:License>
  </rdf:RDF>
 </metadata>
 <g transform="translate(-136.42 -176.16)">
  <g fill="#06f">
   <g transform="matrix(2.0944,0,0,2.0944,95.961,101.09)" stroke-width=".26458">
    <path d="m32.959 45.639c-0.0069-0.01561-0.01164-0.03148-0.01667-0.0463a4.0137 4.0137 0 0 0-0.97181-1.5764l-0.21881-0.21802v-0.99695a2.5551 2.5551 0 0 0-1.0179-2.0352l-0.61516-0.46143a1.5703 1.5703 0 0 1-0.60854-1.0014 10.331 10.331 0 0 1-0.1397-1.6899v-1.5081a0.26458 0.26458 0 0 0-0.52917 0v1.5081a10.836 10.836 0 0 0 0.14711 1.7759 2.0947 2.0947 0 0 0 0.81306 1.3377l0.61516 0.46143a2.0241 2.0241 0 0 1 0.80592 1.6129v0.46858l-1.2843-1.2827c0.0024-0.02778 0.0077-0.0553 0.0077-0.08361a0.91493 0.91493 0 0 0-0.27199-0.65432 0.94774 0.94774 0 0 0-1.2793-0.02963 0.92604 0.92604 0 0 0-1.5264-0.34581l-2.3593 2.359a0.83952 0.83952 0 0 1 0.24842-0.62204 1.292 1.292 0 0 0-0.02064-1.8084 0.55827 0.55827 0 0 0-0.37491-0.15875 3.5129 3.5129 0 0 1 0.3519-1.2451 4.0442 4.0442 0 0 0 0.42333-1.7994v-1.4938a0.26458 0.26458 0 0 0-0.52917 0v1.4938a3.5094 3.5094 0 0 1-0.36909 1.5629 4.0428 4.0428 0 0 0-0.42333 1.7695l-0.72469 0.72734a2.5556 2.5556 0 0 0-0.73554 1.538 0.26458 0.26458 0 0 0 0.52599 0.05662 2.0288 2.0288 0 0 1 0.58208-1.22l0.87312-0.86757a0.033867 0.033867 0 0 1 0.02381 0.01006 0.76491 0.76491 0 0 1 0.01164 1.0708 1.3361 1.3361 0 0 0-0.37174 1.1808l0.07937 0.39952a0.26458 0.26458 0 0 0 0.449 0.13626l2.7146-2.7146a0.39688 0.39688 0 0 1 0.56012 0.56224l-1.6994 1.6994a0.26458 0.26458 0 1 0 0.37333 0.37359l2.2598-2.2598a0.40534 0.40534 0 0 1 0.5633 0 0.39344 0.39344 0 0 1 0 0.55906l-0.55959 0.55959h-0.0013l-1.6994 1.6997a0.26492 0.26492 0 1 0 0.37253 0.37677l1.7013-1.7015a0.40772 0.40772 0 0 1 0.5588 0 0.39688 0.39688 0 0 1 0 0.5625l-0.56092 0.56092v0.0016l-1.3242 1.3242a0.26458 0.26458 0 1 0 0.37412 0.37412l1.3266-1.3269a0.4064 0.4064 0 0 1 0.55986 0 0.40137 0.40137 0 0 1 0 0.5633l-1.2486 1.2488a0.26458 0.26458 0 1 0 0.37412 0.37412l1.2499-1.2496a0.92842 0.92842 0 0 0-0.34581-1.5288 0.92604 0.92604 0 0 0 0.17119-0.97764l1.3475 1.3457a3.4838 3.4838 0 0 1 0.84323 1.3708c0.01058 0.03096 0.02143 0.06218 0.03519 0.0934a0.26458 0.26458 0 0 0 0.24183 0.1569 0.26882 0.26882 0 0 0 0.10768-0.02275 0.26458 0.26458 0 0 0 0.13467-0.34952z"/>
    <path d="m35.114 48.282-1.3256-1.3256a3.3602 3.3602 0 0 1-0.36301-0.42677 0.26462 0.26462 0 0 0-0.43154 0.30639 3.8984 3.8984 0 0 0 0.42042 0.49424l1.3256 1.3256a0.26458 0.26458 0 1 0 0.37412-0.37412z"/>
    <path d="m30.784 49.939a10.817 10.817 0 0 0-1.36-1.1517 2.0902 2.0902 0 0 0-1.5208-0.37042l-0.40402 0.05768 0.92604-0.92392a0.26458 0.26458 0 1 0-0.37359-0.37465l-1.0239 1.0202a3.4867 3.4867 0 0 1-1.3652 0.84349 4.0513 4.0513 0 0 0-1.5743 0.9742l-1.2488 1.2488a0.26458 0.26458 0 1 0 0.37412 0.37412l1.2488-1.2488a3.5205 3.5205 0 0 1 1.3668-0.84667 3.9785 3.9785 0 0 0 0.95409-0.47228 2.4754 2.4754 0 0 0 0.43365-0.02196l0.76121-0.10874a1.5695 1.5695 0 0 1 1.1377 0.27781 10.336 10.336 0 0 1 1.2933 1.0954l1.3245 1.3245a0.26458 0.26458 0 0 0 0.37412-0.37412z"/>
    <path d="m23.002 44.502-0.03704-0.25929a0.26462 0.26462 0 1 0-0.52388 0.07514l0.03731 0.26008a1.5637 1.5637 0 0 1-0.27596 1.1377 10.521 10.521 0 0 1-1.0967 1.293l-1.7119 1.7119a0.26492 0.26492 0 1 0 0.37412 0.37518l1.7119-1.7119a11.071 11.071 0 0 0 1.1531-1.3592 2.0902 2.0902 0 0 0 0.36909-1.5227z"/>
   </g>
   <path d="m155.01 202.45a4.3777 4.3777 0 0 0-0.60826 0.0465l-0.84636 0.12013-1.499 1.2458a5.1845 5.1845 0 0 0 0.90807-0.0465l1.5942-0.22728a3.2872 3.2872 0 0 1 2.3832 0.58119 21.648 21.648 0 0 1 2.7078 2.2944l2.774 2.774a0.55414 0.55414 0 0 0 0.7836-0.7836l-2.7717-2.7707a22.655 22.655 0 0 0-2.8486-2.4125 4.3777 4.3777 0 0 0-2.577-0.82146z" stroke-width=".55414"/>
  </g>
 </g>
</svg>
