<?xml version="1.0" encoding="UTF-8"?>
<svg width="34.576mm" height="35.219mm" version="1.1" viewBox="0 0 34.576 35.219" xmlns="http://www.w3.org/2000/svg" xmlns:cc="http://creativecommons.org/ns#" xmlns:dc="http://purl.org/dc/elements/1.1/" xmlns:rdf="http://www.w3.org/1999/02/22-rdf-syntax-ns#">
 <metadata>
  <rdf:RDF>
   <cc:Work rdf:about="">
    <dc:format>image/svg+xml</dc:format>
    <dc:type rdf:resource="http://purl.org/dc/dcmitype/StillImage"/>
    <dc:title/>
    <cc:license rdf:resource="http://creativecommons.org/licenses/by/4.0/"/>
    <dc:creator>
     <cc:Agent>
      <dc:title>Viral faisalovers from the Noun Project</dc:title>
     </cc:Agent>
    </dc:creator>
   </cc:Work>
   <cc:License rdf:about="http://creativecommons.org/licenses/by/4.0/">
    <cc:permits rdf:resource="http://creativecommons.org/ns#Reproduction"/>
    <cc:permits rdf:resource="http://creativecommons.org/ns#Distribution"/>
    <cc:requires rdf:resource="http://creativecommons.org/ns#Notice"/>
    <cc:requires rdf:resource="http://creativecommons.org/ns#Attribution"/>
    <cc:permits rdf:resource="http://creativecommons.org/ns#DerivativeWorks"/>
   </cc:License>
  </rdf:RDF>
 </metadata>
 <g transform="translate(-110.47 -160.04)">
  <path d="m128.39 160.04c-0.39798 0-0.63457 0.1637-0.76329 0.30086-0.30092 0.3216-0.28074 0.76593-0.27779 0.79463v6.2358l-0.0322-5.5121c-8.5e-4 -0.43976-0.29404-1.0938-1.0955-1.0938-0.39798 0-0.6346 0.1637-0.76331 0.30087-0.30092 0.32201-0.28074 0.76552-0.27779 0.79379v6.047l-0.0322-4.1676c-1e-3 -0.43977-0.29403-1.0947-1.0955-1.0947-0.39798 0-0.63457 0.16371-0.76329 0.30087-0.30092 0.32159-0.28116 0.76552-0.27862 0.7938v7.3577l8e-3 0.0684c0.0169 0.076 0.41268 1.866 0.79379 2.5438 0.30344 0.53894 0.525 1.5445 0.56382 1.7302v1.1375c-0.0697-0.0126-0.14228-0.0231-0.22585-0.0231-0.80146 0-1.0942 0.65407-1.0955 1.0938l-0.019 5.5112-0.0128-6.2144c3e-3 -0.0494 0.0236-0.49322-0.27779-0.81524-0.12825-0.13716-0.36571-0.30086-0.76412-0.30086-0.80188 0-1.0934 0.65407-1.0947 1.0938l-0.0198 7.0684-0.0144-5.5426c4.2e-4 -8e-3 8.2e-4 -0.0266 8.2e-4 -0.0528 0-0.13716-0.0266-0.49279-0.2786-0.76248-0.11023-0.11775-0.30655-0.24806-0.60916-0.2852 0.29037-0.63348 0.56141-1.8434 0.59349-1.9907l8e-3 -0.0338-8.2e-4 -6.1756c3e-3 -0.0439 0.0212-0.43596-0.24563-0.72126-0.11437-0.12239-0.32561-0.26789-0.67759-0.26789-0.49716 0-0.77283 0.28425-0.89353 0.58855v-1.1738c3e-3 -0.0439 0.0203-0.43596-0.24646-0.72127-0.11437-0.12239-0.32477-0.26789-0.67674-0.26789-0.49674 0-0.77285 0.28386-0.89355 0.58773v-0.20608c3e-3 -0.0439 0.0212-0.43638-0.24563-0.72126-0.11437-0.12239-0.32477-0.2679-0.67676-0.2679-0.70945 0-0.96852 0.57903-0.96937 0.96773l-2e-3 0.82677c-0.0367-0.0903-0.0904-0.18351-0.16898-0.26708-0.11437-0.12239-0.32518-0.26871-0.67675-0.26871-0.70902 0-0.96812 0.57942-0.96938 0.96854l-0.016 5.827c-0.5415-0.87067-1.3662-2.0379-2.3361-1.5167-0.19879 0.10637-0.33022 0.28791-0.37918 0.52426-0.28276 1.3581 2.4593 4.9716 3.181 5.8929v16.327h0.62976v-16.546l-0.0684-0.0866c-1.3041-1.651-3.3055-4.5933-3.1257-5.4585 0.016-0.0718 0.0426-0.0864 0.0585-0.0948 0.53514-0.28784 1.2857 0.94068 1.6461 1.5315 0.31569 0.51742 0.46091 0.75372 0.75424 0.67015 0.12282-0.0346 0.26871-0.13992 0.26871-0.44759l0.0164-6.6183c3e-3 -0.12704 0.0522-0.34044 0.33631-0.34044 0.14947 0 0.19788 0.0507 0.21349 0.0668 0.0638 0.0667 0.0775 0.18764 0.0775 0.25306v5.259h1.173l0.0174-6.5012c0-0.0789 0.0252-0.33713 0.33631-0.33713 0.14947 0 0.19663 0.0503 0.21268 0.0668 0.0692 0.0722 0.0796 0.20961 0.0775 0.26954v5.8047h1.1721l0.0182-5.1939c3e-3 -0.12704 0.0515-0.33962 0.3355-0.33962 0.14978 0 0.19704 0.0499 0.21266 0.0659 0.0697 0.0722 0.0804 0.20962 0.0783 0.26955v5.6481h1.1713l0.0182-4.0712c0-0.0789 0.0257-0.33631 0.33631-0.33631 0.14978 0 0.19789 0.0499 0.21351 0.0659 0.0697 0.0722 0.0796 0.20961 0.0775 0.26954l8.2e-4 6.1278c-0.0971 0.43554-0.37269 1.5391-0.5968 1.9371-0.0544 0.0971-0.10512 0.20914-0.15249 0.32478-0.33088 0.22579-0.46735 0.6146-0.4682 0.91002l-0.0182 7.1722c-0.62967-1.0294-1.6445-2.6047-2.8224-1.9734-0.22073 0.11817-0.36676 0.31983-0.42203 0.58361-0.28701 1.3792 2.1879 4.8696 3.3376 6.3974l-2e-3 4.6515h1.0963v-4.2666l-0.0684-0.0865c-0.12665-0.15995-0.25893-0.33378-0.39484-0.51189-0.20425-0.26884-0.41661-0.55436-0.63142-0.85232-1.4033-1.9481-2.8928-4.3619-2.7177-5.2013 0.0208-0.10003 0.0627-0.1343 0.10066-0.15497 0.69046-0.37013 1.574 1.0744 2.0484 1.8514 0.25153 0.41234 0.40286 0.6565 0.57041 0.74681 0.0793 0.0426 0.16214 0.0538 0.26046 0.0264 0.18317-0.0515 0.27615-0.21224 0.27615-0.47644l8.2e-4 -0.59679 0.019-7.3049c3e-3 -0.12408 0.0443-0.39261 0.33631-0.45254 0.038-8e-3 0.0786-0.0132 0.12538-0.0132 0.13798 0 0.23593 0.0331 0.29923 0.0989 0.09 0.0945 0.10958 0.25432 0.10958 0.34126 0 8e-3 -4.2e-4 0.016-8.2e-4 0.0223v6.1971h1.2776l0.0214-7.7006c0-0.0772 0.0226-0.46243 0.46161-0.46243 0.13798 0 0.2359 0.0318 0.29921 0.0981 0.0984 0.10298 0.11294 0.28417 0.10959 0.36351v6.8689h1.2768l0.0206-6.1435c0-0.0772 0.0234-0.46243 0.46242-0.46243 0.0962 0 0.16679 0.0211 0.22587 0.0528 0.0257 0.0139 0.0539 0.0251 0.0734 0.0453 0.0983 0.1034 0.11214 0.28375 0.10878 0.36352v6.6809h1.2768l0.0214-4.7999c0-0.0777 0.0236-0.46325 0.46242-0.46325 0.13798 0 0.2355 0.0318 0.2984 0.0981 0.0983 0.1034 0.11293 0.28499 0.10958 0.36434l8.2e-4 7.3222c-0.11565 0.51784-0.44821 1.8524-0.72043 2.3361-0.38195 0.68117-0.62789 1.8959-0.63802 1.947h8.3e-4l-6e-3 4.1248h0.63223v-4.03c0.0388-0.18486 0.25994-1.1904 0.56381-1.731 0.38111-0.67779 0.77693-2.4682 0.79381-2.5438l8e-3 -0.033-2e-3 -7.3709c3e-3 -0.0498 0.0239-0.49322-0.27696-0.81523-0.12872-0.13717-0.36488-0.30087-0.76329-0.30087-0.80145 0-1.0946 0.6545-1.0955 1.0938l-0.0182 4.1693-0.0144-6.0264c3e-3 -0.0435 0.0187-0.39228-0.18218-0.69488v-1.5686l-6e-3 -0.0618c-0.01-0.0515-0.25523-1.265-0.63801-1.9453-0.27222-0.48367-0.60564-1.8186-0.72126-2.3369l8.2e-4 -3.3755-8.2e-4 -3.9657c-3e-3 -0.0612 0.0112-0.24157 0.10958-0.34455 0.0633-0.0663 0.16122-0.0989 0.29923-0.0989 0.40811 0 0.4603 0.32567 0.46325 0.46325l0.0214 4.7991h1.276v-6.6982c-3e-3 -0.0612 0.0112-0.24158 0.10959-0.34456 0.0633-0.0663 0.1612-0.0989 0.29921-0.0989 0.40811 0 0.45947 0.32567 0.46244 0.46325l0.0206 6.1427h1.2777l-8.2e-4 -6.887c-3e-3 -0.0612 0.0112-0.2424 0.10958-0.34538 0.0633-0.0663 0.16122-0.0989 0.29923-0.0989 0.4077 0 0.45904 0.32609 0.46242 0.46325l0.0206 7.6998h1.2777v-6.2308c0-0.0722 0.0183-0.23474 0.10959-0.33054 0.0633-0.0663 0.16039-0.0981 0.29838-0.0981 0.40813 0 0.45949 0.32609 0.46244 0.46325l0.0198 7.9042c0 0.2642 0.0935 0.42413 0.27614 0.47562 0.30513 0.0852 0.45992-0.16546 0.8309-0.77319 0.47352-0.77656 1.3563-2.224 2.0476-1.8514 0.038 0.0202 0.0794 0.0553 0.10049 0.15579 0.21904 1.053-2.1799 4.5857-3.7431 6.5655l-0.0692 0.0865v1.8135c-0.17346 0.29121-0.16046 0.60818-0.15824 0.63223v6.047l-0.0322-4.1676c-8.4e-4 -0.43976-0.29403-1.0947-1.0955-1.0947-0.39798 0-0.63458 0.1637-0.76331 0.30086-0.30092 0.32202-0.28114 0.76593-0.2786 0.79463l-8.2e-4 7.3568 8e-3 0.0676c0.0169 0.076 0.41352 1.866 0.79462 2.5438 0.30345 0.53894 0.52417 1.5449 0.563 1.7302v4.0308h0.63305v-4.063l-6e-3 -0.0618c-0.01-0.0515-0.25605-1.2658-0.63883-1.9462-0.27222-0.48366-0.6048-1.8182-0.72045-2.3361l8.2e-4 -3.3755v-3.9649c-3e-3 -0.0612 0.0112-0.24281 0.10959-0.34621 0.0633-0.0663 0.16122-0.0981 0.29922-0.0981 0.40813 0 0.45865 0.32608 0.4616 0.46408l0.0214 4.7991h1.2768l-8.2e-4 -6.7015c-3e-3 -0.0418 8e-3 -0.23324 0.10799-0.34044 8e-3 -9e-3 0.0268-0.0256 0.052-0.042 0.0443-0.0287 0.11692-0.0593 0.24895-0.0593 0.40811 0 0.45904 0.32568 0.46242 0.46326l0.0214 6.1427h1.2768v-6.8895c-3e-3 -0.0418 8e-3 -0.23324 0.10799-0.34044 0.0233-0.0249 0.0941-0.10057 0.30087-0.10057 0.40769 0 0.45822 0.32609 0.46161 0.46326l0.0214 7.6998h1.2777v-0.55558l-8.2e-4 -5.6596v-0.0156c0-0.0718 0.0183-0.23433 0.10958-0.32971 0.0633-0.0663 0.16122-0.0989 0.29923-0.0989 0.0469 0 0.089 6e-3 0.12697 0.0132 0.29163 0.0604 0.33295 0.32894 0.33548 0.45006l0.019 7.3066 8.2e-4 0.59679c0 0.26462 0.093 0.42496 0.27615 0.47645 0.0995 0.0279 0.18277 0.0163 0.26295-0.028 0.16586-0.092 0.3181-0.33496 0.56794-0.74434 0.47396-0.77698 1.3567-2.2211 2.0476-1.8514 0.038 0.0203 0.0796 0.0545 0.10065 0.15496 0.17473 0.8386-1.3124 3.2503-2.7152 5.198-0.21568 0.29922-0.42794 0.58594-0.63306 0.85562-0.1359 0.1781-0.26947 0.35194-0.39566 0.51189h8.2e-4l-0.0684 0.0866v4.2666h1.0963v-4.6532c1.1505-1.5295 3.6221-5.0165 3.3351-6.3949-0.0549-0.26378-0.20047-0.46543-0.4212-0.5836-1.1775-0.6318-2.1927 0.94401-2.8224 1.9734l-0.0182-7.173c-4.2e-4 -0.29585-0.13845-0.68465-0.46903-0.91002-0.0477-0.11522-0.0968-0.2273-0.15171-0.32395-0.2241-0.39798-0.4993-1.5024-0.59678-1.9379l8.2e-4 -2.8216-8.2e-4 -3.3236c-2e-3 -0.0426 8e-3 -0.17965 0.0783-0.25223 0.016-0.0165 0.0628-0.0659 0.21266-0.0659 0.28446 0 0.33293 0.21305 0.33631 0.33713l0.0182 4.0704h1.1722l-8e-4 -5.6679c-2e-3 -0.0253 5e-3 -0.16966 0.0775-0.24647 0.016-0.0169 0.0628-0.0684 0.21432-0.0684 0.28403 0 0.33254 0.21348 0.33549 0.33714l0.0182 5.1972h1.1722v-5.8229c-2e-3 -0.0426 8e-3 -0.17964 0.0775-0.25223 0.0161-0.0165 0.0633-0.0659 0.21266-0.0659 0.28446 0 0.33293 0.21308 0.33632 0.33631l0.0195 6.5012h1.1738l-7.9e-4 -5.264v-8e-3c0-0.0397 0.0112-0.16732 0.0767-0.23822 0.0159-0.0169 0.0633-0.0684 0.21432-0.0684 0.28404 0 0.33293 0.21348 0.33631 0.33714l0.0174 6.6216c0 0.30767 0.14627 0.41298 0.26871 0.44759 0.29374 0.0831 0.43774-0.15315 0.75342-0.67015 0.36042-0.59086 1.1088-1.8194 1.6469-1.5316 0.0161 9e-3 0.0434 0.0231 0.0585 0.0948 0.17894 0.86392-1.8229 3.8062-3.1266 5.4577l-0.0684 0.0866v16.546h0.63635v-16.327c0.72126-0.92132 3.4637-4.5348 3.181-5.8929-0.0498-0.23635-0.18123-0.4179-0.38001-0.52426h-3e-3c-0.9711-0.52079-1.7962 0.64687-2.3377 1.5175l-0.0144-5.8286c-7.9e-4 -0.38912-0.26034-0.96772-0.96936-0.96772-0.35198 0-0.56239 0.1455-0.67676 0.26789-0.0785 0.084-0.13224 0.17758-0.16897 0.2679l-2e-3 -0.82677c-7.8e-4 -0.38912-0.2599-0.96855-0.96936-0.96855-0.35197 0-0.56238 0.14633-0.67675 0.26872-0.26674 0.2853-0.249 0.67704-0.24647 0.69983v0.22503c-0.12106-0.30345-0.39638-0.58608-0.8927-0.58608-0.35198 0-0.56239 0.14553-0.67676 0.2679-0.26715 0.2853-0.24939 0.67786-0.24729 0.70066v1.1928c-0.12107-0.30344-0.39638-0.5869-0.8927-0.5869-0.35198 0-0.5632 0.14634-0.67757 0.26872-0.26674 0.2853-0.249 0.67704-0.24648 0.69983l-8.2e-4 6.1633 8e-3 0.0676c0.0325 0.14729 0.30355 1.3568 0.59349 1.9907-0.30261 0.0367-0.49901 0.16746-0.60915 0.2852-0.2545 0.27222-0.27862 0.63186-0.27862 0.75341 0 0.022 4.2e-4 0.0366 8.2e-4 0.0412v5.564l-0.0323-7.0683c-8.5e-4 -0.43977-0.29363-1.0947-1.0955-1.0947-0.398 0-0.63457 0.16371-0.7633 0.30087-0.3009 0.3216-0.28157 0.76592-0.27861 0.79462v6.235l-0.0313-5.5113c-1e-3 -0.43976-0.29445-1.0947-1.0963-1.0947-0.0925 0-0.17339 0.0104-0.24894 0.0255v-1.1565c0.6626-0.84662 4.1352-5.3818 3.7984-7.0008-0.0549-0.26377-0.2009-0.46625-0.42205-0.58442-1.1758-0.62926-2.1919 0.94483-2.8216 1.9742l-0.0182-7.173c-1e-3 -0.44019-0.29404-1.0947-1.0955-1.0947-0.39798 0-0.63457 0.16371-0.76329 0.30087-0.25449 0.27221-0.27945 0.63143-0.27945 0.7534 0 0.0224 1e-3 0.0366 2e-3 0.0412v5.5632l-0.0322-7.0675c-1e-3 -0.43977-0.29404-1.0947-1.0955-1.0947z" fill="#f00" stroke-width=".42204"/>
 </g>
</svg>
