<svg xmlns="http://www.w3.org/2000/svg" width="74" height="90" viewBox="0, 0, 74, 90"><path d="M37 0c-4.93 0-9.327 1.537-13.07 4.568-3.293 2.666-5.396 5.94-6.69 8.17-2.798 4.82-5.044 8.704-6.907 11.98l-.033.056c-.456.802-.887 1.564-1.295 2.29-1.285 2.266-2.77 4.914-4.125 7.663-.7 1.405-1.26 2.62-1.71 3.717-1.93 4.55-2.866 8.353-2.866 11.63v18.412c0 6.32 1.993 11.62 5.765 15.324C10.25 87.918 16.45 90 24.5 90h25c8.05 0 14.25-2.082 18.43-6.19 3.773-3.704 5.766-9.003 5.766-15.324V50.073c0-3.276-.937-7.08-2.865-11.627-.45-1.1-1.01-2.317-1.713-3.724-1.356-2.75-2.837-5.393-4.12-7.655-.41-.728-.843-1.493-1.3-2.298l-.014-.025c-1.867-3.28-4.117-7.172-6.923-12.006-1.295-2.232-3.397-5.506-6.69-8.172C46.328 1.538 41.93 0 37 0" fill="#FFF"/><path d="M49.27 64.634H24.73c-14.38 0-19.175-9.383-19.49-14.562v18.415c0 9.162 4.884 16.44 19.26 16.44H49.5c14.38 0 19.262-7.278 19.262-16.44V50.072c-.316 5.18-5.112 14.562-19.49 14.562" fill="#0075BF"/><path d="M37 5.505c8.445 0 12.772 5.772 15.293 10.113 12.72 21.917 14.58 25.407 15.038 30.572.36 4.033-.963 8.068-3.63 11.07-2.28 2.567-6.665 5.628-14.61 5.628H24.91c-7.948 0-12.334-3.062-14.614-5.63-2.666-3-3.988-7.035-3.63-11.068.46-5.165 2.318-8.654 15.04-30.572C24.228 11.278 28.554 5.505 37 5.505" fill="#FFF"/><path d="M37 10.057c-6.004 0-9.114 3.962-11.363 7.837C13.03 39.614 11.392 42.857 11.04 46.818c-.24 2.703.65 5.41 2.44 7.425 2.376 2.677 6.268 4.092 11.254 4.092h24.532c4.986 0 8.878-1.415 11.255-4.09 1.79-2.017 2.68-4.724 2.44-7.427-.353-3.96-1.99-7.205-14.597-28.924-2.25-3.875-5.36-7.837-11.363-7.837m0-.662c5.935 0 9.316 3.68 11.917 8.16 12.838 22.116 14.32 25.112 14.685 29.202.456 5.136-2.895 12.24-14.336 12.24H24.734c-11.44 0-14.793-7.104-14.336-12.24.364-4.09 1.847-7.086 14.685-29.202 2.6-4.48 5.98-8.16 11.917-8.16" fill="#0075BF"/><path d="M37 8.22c-6.935 0-10.533 4.667-12.892 8.732-12.42 21.395-14.44 25.16-14.846 29.705-.285 3.214.77 6.43 2.896 8.826 1.9 2.138 5.622 4.688 12.57 4.688H49.27c6.95 0 10.672-2.548 12.57-4.687 2.127-2.394 3.183-5.61 2.897-8.826-.404-4.544-2.427-8.31-14.845-29.705-2.36-4.065-5.957-8.73-12.892-8.73m0-3.15c8.572 0 12.964 5.86 15.523 10.266C65.435 37.586 67.32 41.128 67.788 46.37c.363 4.094-.98 8.19-3.685 11.235-2.314 2.607-6.767 5.714-14.833 5.714H24.73c-8.067 0-12.52-3.108-14.834-5.715-2.705-3.046-4.048-7.14-3.684-11.234.466-5.242 2.353-8.784 15.266-31.032C24.035 10.932 28.428 5.073 37 5.073" fill="#0075BF"/><path d="M29.52 27.758h.72c1.215 0 1.59-.385 1.59-1.71s-.375-1.71-1.59-1.71h-.72zm-1.858 6.133V22.767h2.668c2.294 0 3.358.91 3.358 3.28 0 2.375-1.064 3.284-3.358 3.284h-.81v4.56zM36.462 27.758h.66c1.004 0 1.38-.385 1.38-1.71s-.376-1.71-1.38-1.71h-.66zm0 6.133h-1.86V22.767h2.61c2.083 0 3.148.91 3.148 3.28 0 1.79-.675 2.513-1.305 2.806l1.575 5.04h-1.89l-1.318-4.608c-.24.03-.63.046-.96.046zM43.194 31.148c0 .832.24 1.233.99 1.233s.99-.4.99-1.232v-5.64c0-.832-.24-1.232-.99-1.232s-.99.4-.99 1.233zm-1.86-5.686c0-1.57.9-2.85 2.85-2.85 1.948 0 2.848 1.28 2.848 2.85v5.732c0 1.572-.9 2.85-2.85 2.85-1.947 0-2.847-1.278-2.847-2.85zM20.15 42.064h.72c1.216 0 1.59-.385 1.59-1.71s-.374-1.71-1.59-1.71h-.72zm-1.857 6.133V37.072h2.668c2.294 0 3.36.91 3.36 3.282 0 2.373-1.066 3.282-3.36 3.282h-.81v4.56zM25.16 48.197V37.072h1.858v9.46h2.924v1.665zM33.105 44.068h1.5l-.735-4.777h-.03zm-.6 4.13h-1.798L32.7 37.07h2.31l1.993 11.125h-1.8l-.33-2.466h-2.038zM37.888 48.197V37.072h1.724l2.264 6.364h.03v-6.364h1.678v11.125h-1.618l-2.37-6.95h-.03v6.95zM44.83 48.197V37.072h4.976v1.664H46.69v2.866h2.397v1.664H46.69v3.267h3.326v1.664zM52.48 38.736h-1.8v-1.664h5.458v1.664H54.34v9.46h-1.86z" fill="#0075BF"/></svg>