<?xml version="1.0" standalone="no"?>
<!DOCTYPE svg PUBLIC "-//W3C//DTD SVG 1.1//EN" "http://www.w3.org/Graphics/SVG/1.1/DTD/svg11.dtd">
<svg xmlns="http://www.w3.org/2000/svg">
<defs >
<font id="PublicSans" horiz-adv-x="1089" ><font-face
    font-family="Public Sans"
    units-per-em="2000"
    panose-1="0 0 0 0 0 0 0 0 0 0"
    ascent="1900"
    descent="-450"
    alphabetic="0" />
<glyph unicode=" " glyph-name="space" horiz-adv-x="486" />
<glyph unicode="!" glyph-name="exclam" horiz-adv-x="502" d="M185 367L136 1446H357L309 367H185ZM136 0V233H356V0H136Z" />
<glyph unicode="&quot;" glyph-name="quotedbl" horiz-adv-x="851" d="M549 979L491 1446H715L655 979H549ZM194 979L136 1446H360L300 979H194Z" />
<glyph unicode="#" glyph-name="numbersign" horiz-adv-x="1206" d="M761 -3L647 13L865 1449L978 1436L761 -3ZM73 469V582H1062V469H73ZM351 -3L237 13L455 1449L568 1436L351 -3ZM137 879V992H1126V879H137Z" />
<glyph unicode="$" glyph-name="dollar" horiz-adv-x="1317" d="M678 -20Q449 -20 299 78T119 370L313 382Q345 260 441 199T677 138Q761 138 834 167T953 248T999 371Q999 466 943 523T763 613L514 678Q353 719 259 807T164 1043Q163 1168 229 1263T413 1411T685
1464Q833 1464 940 1408T1107 1258T1171 1055L983 1045Q961 1174 889 1240T685 1307Q623 1307 566 1292T463 1245T390 1168T363 1061Q363 983 418 938T616 848L856 780Q1040 729 1118 622T1197 373Q1197 258 1132 170T950 31T678 -20ZM588 -209V49H759V-209H588ZM600
1404V1662H771V1404H600Z" />
<glyph unicode="%" glyph-name="percent" horiz-adv-x="1808" d="M340 -8L1317 1462H1438L466 -8H340ZM450 643Q351 643 274 694T151 838T106 1054Q106 1178 151 1271T273 1416T450 1468Q547 1468 624 1416T745 1271T789 1054Q789 931 746 839T625 695T450 643ZM448
746Q544 746 596 825T649 1054Q649 1206 596 1285T448 1365Q352 1365 300 1285T247 1054Q247 905 299 826T448 746ZM1355 -20Q1256 -20 1178 30T1056 174T1012 393Q1012 518 1056 611T1179 755T1355 807Q1453 807 1530 756T1651 611T1695 393Q1695 267 1652 174T1531
31T1355 -20ZM1353 84Q1450 84 1502 163T1554 391Q1554 544 1502 623T1353 703Q1258 703 1206 623T1153 391Q1153 243 1205 164T1353 84Z" />
<glyph unicode="&amp;" glyph-name="ampersand" horiz-adv-x="1417" d="M523 -10Q382 -10 285 37T137 169T87 363Q87 458 124 534T238 676T430 802Q374 862 334 917T272 1029T250 1150Q250 1240 297 1312T429 1426T623 1468Q729 1468 819 1430T964 1323T1019 1160Q1019
1122 1004 1077T951 982T847 877T677 768L994 397Q1013 424 1040 478T1092 609T1121 779H1303Q1289 676 1256 590T1179 429T1086 286L1330 0H1114L974 161Q864 71 750 31T523 -10ZM563 138Q647 138 732 175T881 275L524 690Q420 633 353 552T291 368Q295 297 333
246T431 166T563 138ZM594 871Q699 932 754 980T829 1070T850 1156Q850 1223 818 1264T735 1323T630 1341Q535 1340 486 1287T436 1161Q436 1112 457 1064T507 975T559 910L594 871Z" />
<glyph unicode="&apos;" glyph-name="quotesingle" horiz-adv-x="496" d="M194 979L136 1446H360L300 979H194Z" />
<glyph unicode="(" glyph-name="parenleft" horiz-adv-x="605" d="M410 -247Q327 -107 267 30T173 314T139 631Q139 879 219 1107T425 1521H552Q450 1327 384 1097T318 629Q318 404 374 191T536 -247H410Z" />
<glyph unicode=")" glyph-name="parenright" horiz-adv-x="618" d="M55 -247Q161 -23 217 190T273 629Q273 866 207 1096T39 1521H166Q292 1336 371 1108T451 631Q451 461 418 314T324 30T181 -247H55Z" />
<glyph unicode="*" glyph-name="asterisk" horiz-adv-x="788" d="M237 765L127 840L316 1075L53 1149L95 1266L346 1165L328 1446H464L446 1164L700 1274L738 1157L481 1076L665 850L554 771L398 1024L237 765Z" />
<glyph unicode="+" glyph-name="plus" horiz-adv-x="1109" d="M485 296L483 1159H627L628 296H485ZM123 654V798L986 799V656L123 654Z" />
<glyph unicode="," glyph-name="comma" horiz-adv-x="483" d="M87 -251L199 -4L112 1V222H343V30L173 -251H87Z" />
<glyph unicode="-" glyph-name="hyphen" horiz-adv-x="755" d="M124 443V588L631 590V444L124 443Z" />
<glyph unicode="." glyph-name="period" horiz-adv-x="450" d="M110 0V236H330V0H110Z" />
<glyph unicode="/" glyph-name="slash" horiz-adv-x="701" d="M27 -77L527 1446H671L170 -77H27Z" />
<glyph unicode="0" glyph-name="zero" horiz-adv-x="1224" d="M611 -22Q374 -22 235 164T96 717Q96 964 160 1131T340 1382T613 1466Q848 1466 987 1278T1127 720Q1127 353 988 166T611 -22ZM613 138Q768 138 847 274T927 719Q927 1033 847 1171T612 1310Q459
1310 377 1171T294 719Q294 412 376 275T613 138Z" />
<glyph unicode="1" glyph-name="one" horiz-adv-x="814" d="M372 0V1151H93V1272Q223 1272 295 1291T397 1349T431 1446H563V0H372Z" />
<glyph unicode="2" glyph-name="two" horiz-adv-x="1192" d="M124 0V113V172Q124 283 165 364T275 505T425 614T588 706T738 799T847 909T889 1055Q889 1165 812 1234T602 1303Q460 1303 374 1223T277 1010H93Q96 1135 155 1238T328 1404T609 1466Q754 1466 861
1415T1026 1271T1085 1055Q1085 943 1044 863T936 725T788 620T627 532T479 443T371 336T330 193V164H1093V0H124Z" />
<glyph unicode="3" glyph-name="three" horiz-adv-x="1260" d="M607 -22Q458 -21 345 33T166 184T96 416H281Q302 281 391 209T614 137Q720 137 799 170T921 263T964 401Q964 488 916 548T785 639T600 672L470 675V832L594 835Q689 837 764 871T882 962T926 1087Q926
1147 889 1198T783 1281T614 1312Q536 1312 465 1282T348 1188T299 1025H115Q115 1165 183 1263T364 1414T615 1466Q765 1466 880 1423T1060 1296T1125 1093Q1125 986 1057 900T849 764Q944 738 1015 688T1125 566T1164 399Q1164 300 1123 222T1006 89T829 6T607
-22Z" />
<glyph unicode="4" glyph-name="four" horiz-adv-x="1257" d="M774 0V369H93V538L767 1446H955V532H1195V369H955V0H774ZM270 532H770V1203L270 532Z" />
<glyph unicode="5" glyph-name="five" horiz-adv-x="1281" d="M659 -22Q525 -22 411 25T216 156T96 349L256 416Q292 334 346 270T476 170T646 134Q800 134 893 223T987 467Q987 563 943 634T825 746T660 786Q601 786 550 776T449 735T344 644Q338 641 335 641T325
645L169 694L234 1446H1097L1092 1286H392L355 819Q427 886 512 914T698 943Q829 943 939 890T1117 732T1184 473Q1184 323 1119 212T936 40T659 -22Z" />
<glyph unicode="6" glyph-name="six" horiz-adv-x="1245" d="M646 -22Q478 -22 355 65T164 313T96 701Q96 933 161 1105T353 1371T662 1466Q782 1466 883 1421T1052 1292T1135 1089H961Q932 1192 856 1252T665 1312Q537 1312 452 1240T327 1028T300 685Q327 758
382 813T512 899T672 930Q815 930 922 875T1089 717T1149 472Q1149 327 1088 216T913 41T646 -22ZM644 131Q733 131 802 173T910 290T950 463Q950 562 915 633T810 742T642 780Q563 780 491 743T373 644T327 509Q326 399 365 314T477 180T644 131Z" />
<glyph unicode="7" glyph-name="seven" horiz-adv-x="1201" d="M354 0Q370 99 411 245T521 564T685 923T905 1286H93V1446H1108V1286Q1031 1181 956 1048T812 769T690 482T601 216T555 0H354Z" />
<glyph unicode="8" glyph-name="eight" horiz-adv-x="1295" d="M647 -22Q481 -22 357 29T165 174T96 392Q96 476 138 553T248 684T388 752Q289 794 225 874T160 1072Q160 1198 224 1286T398 1420T647 1466Q786 1466 896 1420T1070 1286T1134 1072Q1134 954 1071
874T907 752Q980 738 1046 684T1156 553T1199 392Q1199 267 1131 174T938 30T647 -22ZM647 128Q808 128 904 200T1000 393Q1000 472 957 534T834 631T647 667Q540 667 462 632T340 534T296 393Q296 273 391 201T647 128ZM647 830Q779 830 861 895T944 1076Q944
1193 861 1260T647 1328Q516 1328 433 1260T350 1076Q350 960 433 895T647 830Z" />
<glyph unicode="9" glyph-name="nine" horiz-adv-x="1249" d="M581 -22Q461 -22 358 23T185 153T99 354H279Q304 255 383 194T575 132Q703 132 794 199T931 406T965 765Q940 689 886 632T756 541T588 508Q445 508 336 564T167 724T106 973Q106 1118 166 1229T338
1403T604 1466Q772 1466 895 1380T1085 1132T1152 744Q1152 501 1086 330T892 69T581 -22ZM608 665Q688 665 760 702T877 800T923 935Q924 1047 885 1132T774 1266T606 1315Q518 1315 451 1273T345 1156T306 982Q306 837 383 751T608 665Z" />
<glyph unicode=":" glyph-name="colon" horiz-adv-x="451" d="M110 758V993H331V758H110ZM110 6V239H331V6H110Z" />
<glyph unicode=";" glyph-name="semicolon" horiz-adv-x="480" d="M110 -285L224 0H139V234H360V27L190 -285H110ZM133 753V990H354V753H133Z" />
<glyph unicode="&lt;" glyph-name="less" horiz-adv-x="1091" d="M967 278L123 607V776L968 1110V936L344 691L967 448V278Z" />
<glyph unicode="=" glyph-name="equal" horiz-adv-x="1109" d="M123 848V991L986 992V849L123 848ZM123 404V547L986 549V405L123 404Z" />
<glyph unicode="&gt;" glyph-name="greater" horiz-adv-x="1091" d="M124 278V448L748 691L123 936V1110L968 776V607L124 278Z" />
<glyph unicode="?" glyph-name="question" horiz-adv-x="1042" d="M408 372Q408 486 445 569T537 719T646 845T738 968T776 1111Q776 1210 705 1267T520 1325Q455 1325 393 1299T282 1229T211 1128L46 1177Q110 1313 235 1389T522 1466Q656 1466 756 1422T910
1299T965 1119Q965 1017 925 943T826 806T707 683T607 547T566 372H408ZM378 0V233H597V0H378Z" />
<glyph unicode="@" glyph-name="at" horiz-adv-x="1662" d="M848 -220Q670 -220 531 -163T293 -6T144 226T93 509Q93 667 148 807T308 1056T557 1226T880 1288Q1007 1288 1130 1252T1352 1140T1511 946T1570 663Q1570 513 1521 400T1386 222T1191 158Q1114 158
1072 184T1014 260Q1009 273 1005 273T991 262Q948 206 882 168T722 130Q647 130 584 172T482 292T444 475Q444 598 492 700T625 864T823 926Q904 926 958 893T1046 806Q1050 802 1054 803T1060 813L1077 876H1202L1128 432Q1114 347 1134 315T1202 283Q1264 283
1316 326T1400 452T1433 651Q1433 792 1385 890T1256 1050T1077 1139T878 1167Q721 1167 600 1115T397 971T273 761T230 508Q230 378 272 267T396 73T599 -56T876 -102Q966 -102 1028 -85T1140 -39T1241 24L1312 -69Q1226 -136 1107 -178T848 -220ZM753 261Q816
261 869 298T958 397T1003 530Q1015 617 993 676T927 765T833 795Q763 795 710 753T626 641T596 486Q596 385 636 323T753 261Z" />
<glyph unicode="A" glyph-name="A" horiz-adv-x="1420" d="M83 0L606 1446H815L1338 0H1149L1007 396H414L271 0H83ZM463 566H956L710 1265L463 566Z" />
<glyph unicode="B" glyph-name="B" horiz-adv-x="1341" d="M191 0V1446H656Q920 1446 1055 1349T1191 1069Q1191 954 1132 872T923 737Q1008 719 1066 685T1160 606T1211 505T1227 389Q1227 193 1088 97T671 0H191ZM376 154H669Q850 154 944 213T1039 397Q1039
488 993 544T867 627T691 653H376V154ZM376 810H691Q748 810 804 821T907 859T983 931T1012 1046Q1012 1172 916 1232T665 1293H376V810Z" />
<glyph unicode="C" glyph-name="C" horiz-adv-x="1377" d="M723 -20Q528 -20 391 69T181 325T108 728Q108 963 180 1128T389 1379T723 1466Q876 1466 994 1403T1184 1233T1269 1000H1072Q1056 1085 1011 1154T893 1264T718 1305Q587 1305 497 1244T360 1054T313
726Q313 424 416 283T718 141Q820 141 893 184T1011 299T1072 455H1269Q1258 363 1220 278T1114 125T950 19T723 -20Z" />
<glyph unicode="D" glyph-name="D" horiz-adv-x="1387" d="M191 0V1446Q198 1446 233 1446T320 1445T426 1446T527 1444Q793 1440 958 1358T1201 1118T1279 732Q1279 492 1196 329T942 83T508 0H191ZM381 159H508Q687 159 816 214T1014 395T1084 729Q1084 938
1017 1060T822 1234T516 1287H381V159Z" />
<glyph unicode="E" glyph-name="E" horiz-adv-x="1241" d="M191 0V1446H1103L1102 1283H377V811H1030V649H376V167L1122 165V0H191Z" />
<glyph unicode="F" glyph-name="F" horiz-adv-x="1188" d="M191 0V1446H1092L1091 1284H381V806H1019V646H381V0H191Z" />
<glyph unicode="G" glyph-name="G" horiz-adv-x="1466" d="M722 -20Q532 -20 394 67T182 320T108 719Q108 955 183 1122T399 1377T730 1466Q839 1466 935 1428T1105 1325T1223 1175T1274 1000H1076Q1062 1080 1014 1149T893 1260T727 1302Q602 1302 508 1241T361
1051T308 723Q308 569 340 459T429 281T564 180T732 147Q823 147 890 179T1003 261T1072 370T1099 483L1105 611H753V747L1297 746V0H1158V220Q1120 158 1062 103T921 14T722 -20Z" />
<glyph unicode="H" glyph-name="H" horiz-adv-x="1532" d="M191 0V1446H376V830H1156V1446H1341V0H1156V667H376V0H191Z" />
<glyph unicode="I" glyph-name="I" horiz-adv-x="566" d="M191 0V1446H376V0H191Z" />
<glyph unicode="J" glyph-name="J" horiz-adv-x="777" d="M317 -20Q240 -20 173 -2T83 25L96 202Q127 191 167 175T268 158Q366 158 402 212T439 394V1446H624V341Q624 226 598 145T506 22T317 -20Z" />
<glyph unicode="K" glyph-name="K" horiz-adv-x="1364" d="M191 0V1446H383V698L1031 1446H1252L769 878L1294 0H1085L634 743L383 456V0H191Z" />
<glyph unicode="L" glyph-name="L" horiz-adv-x="1155" d="M191 0L192 1446H381V166H1064V0H191Z" />
<glyph unicode="M" glyph-name="M" horiz-adv-x="1771" d="M191 0V1446H447L883 252L1325 1446H1580V0H1389V1169L970 0H797L381 1158V0H191Z" />
<glyph unicode="N" glyph-name="N" horiz-adv-x="1508" d="M191 0V1446H368L1132 322V1446H1317V0H1152L376 1140V0H191Z" />
<glyph unicode="O" glyph-name="O" horiz-adv-x="1468" d="M736 -20Q543 -20 402 67T185 319T108 720Q108 957 185 1123T403 1378T736 1466Q928 1466 1068 1379T1284 1125T1360 720Q1360 485 1285 320T1069 67T736 -20ZM736 141Q870 141 964 202T1107 391T1157
718Q1157 920 1107 1050T963 1242T736 1305Q604 1305 509 1242T363 1049T312 718Q312 519 363 391T509 202T736 141Z" />
<glyph unicode="P" glyph-name="P" horiz-adv-x="1273" d="M191 0V1446H680Q835 1446 956 1394T1146 1240T1216 989Q1216 845 1152 743T972 588T705 535H381V0H191ZM380 691H701Q850 691 943 774T1036 1000Q1036 1144 940 1218T692 1292H380V691Z" />
<glyph unicode="Q" glyph-name="Q" horiz-adv-x="1495" d="M1349 -242Q1278 -242 1199 -225T1045 -156T906 -2Q856 -11 816 -15T735 -20Q544 -20 403 65T185 316T108 720Q108 958 184 1125T402 1379T735 1466Q928 1466 1068 1379T1284 1125T1360 720Q1360 496
1294 336T1078 79Q1115 -3 1187 -42T1349 -85V-242ZM735 141Q937 141 1047 280T1158 719Q1158 1016 1049 1160T735 1305Q532 1305 423 1160T313 716Q313 418 423 280T735 141Z" />
<glyph unicode="R" glyph-name="R" horiz-adv-x="1353" d="M191 0V1446H751Q907 1446 1012 1399T1169 1263T1221 1051Q1221 933 1180 855T1074 730T941 656L1225 0H1029L765 623H376V0H191ZM376 776H691Q854 776 943 842T1032 1040Q1032 1168 953 1231T735 1295H376V776Z" />
<glyph unicode="S" glyph-name="S" horiz-adv-x="1340" d="M681 -20Q575 -20 480 5T308 82T180 208T116 384H310Q328 302 381 246T514 162T689 134Q781 134 858 163T983 247T1030 381Q1030 467 974 519T801 604L503 681Q402 706 325 751T203 871T159 1057Q159
1180 227 1271T411 1413T675 1464Q845 1464 961 1405T1138 1250T1198 1045H1008Q999 1144 950 1201T828 1284T669 1310Q514 1310 435 1240T355 1072Q355 983 412 932T580 853L870 778Q999 748 1075 691T1185 559T1219 395Q1219 275 1152 181T965 34T681 -20Z" />
<glyph unicode="T" glyph-name="T" horiz-adv-x="1187" d="M513 0V1276H46V1446H1140V1276H699V0H513Z" />
<glyph unicode="U" glyph-name="U" horiz-adv-x="1401" d="M719 -20Q531 -20 415 42T245 224T191 519V1446H383V491Q383 316 470 229T719 142Q828 142 904 180T1021 295T1062 491V1446H1248V500Q1248 333 1193 217T1022 41T719 -20Z" />
<glyph unicode="V" glyph-name="V" horiz-adv-x="1345" d="M561 0L46 1446H229L672 210L1115 1446H1298L784 0H561Z" />
<glyph unicode="W" glyph-name="W" horiz-adv-x="1907" d="M463 0L46 1446H233L553 295L879 1446H1024L1349 295L1675 1446H1861L1439 0H1268L951 1121L629 0H463Z" />
<glyph unicode="X" glyph-name="X" horiz-adv-x="1376" d="M83 0L573 738L100 1446H328L688 895L1045 1446H1249L787 757L1294 0H1065L673 596L287 0H83Z" />
<glyph unicode="Y" glyph-name="Y" horiz-adv-x="1214" d="M517 0V616L24 1446H226L610 781L988 1446H1191L701 615V0H517Z" />
<glyph unicode="Z" glyph-name="Z" horiz-adv-x="1274" d="M127 0V102L919 1285H161V1446H1178V1348L379 163H1174V0H127Z" />
<glyph unicode="[" glyph-name="bracketleft" horiz-adv-x="606" d="M180 -322L179 1446H552V1327H342L341 -203H551V-322H180Z" />
<glyph unicode="\" glyph-name="backslash" horiz-adv-x="701" d="M526 -77L27 1446H170L671 -77H526Z" />
<glyph unicode="]" glyph-name="bracketright" horiz-adv-x="606" d="M55 -322V-203H265L264 1327H54V1446H427L426 -322H55Z" />
<glyph unicode="^" glyph-name="asciicircum" horiz-adv-x="946" d="M699 256L467 841L233 259H89L387 982Q405 1027 435 1043T497 1046T547 983L846 256H699Z" />
<glyph unicode="_" glyph-name="underscore" horiz-adv-x="1035" d="M123 -237V-92L908 -91V-236L123 -237Z" />
<glyph unicode="`" glyph-name="grave" horiz-adv-x="437" d="M284 1155L10 1446H221L427 1155H284Z" />
<glyph unicode="a" glyph-name="a" horiz-adv-x="1106" d="M443 -20Q342 -20 266 15T146 118T102 280Q102 452 222 536T607 626L791 631V712Q791 807 734 862T558 918Q469 917 401 876T314 742H151Q157 843 207 912T350 1018T567 1054Q702 1054 791 1016T925 904T970
722V0H812L798 194Q739 73 647 27T443 -20ZM498 113Q551 113 602 132T696 183T765 256T791 340V517L638 514Q519 512 440 490T321 421T281 298Q281 211 342 162T498 113Z" />
<glyph unicode="b" glyph-name="b" horiz-adv-x="1193" d="M664 -20Q573 -20 511 4T408 65T346 142T314 212L294 0H153V1486H339V870Q352 896 378 927T447 987T546 1035T678 1054Q872 1054 986 919T1101 521Q1101 358 1052 237T906 48T664 -20ZM631 122Q757 122
836 219T915 530Q915 711 842 810T627 910Q524 910 462 866T370 736T339 530Q339 313 406 218T631 122Z" />
<glyph unicode="c" glyph-name="c" horiz-adv-x="1087" d="M569 -20Q429 -20 322 41T154 221T93 513Q93 675 148 796T310 986T569 1054Q680 1054 768 1012T914 891T984 707H820Q811 761 779 806T694 878T570 905Q437 905 354 809T270 515Q270 336 346 229T572
121Q643 121 696 148T781 221T822 319H983Q970 215 913 139T767 22T569 -20Z" />
<glyph unicode="d" glyph-name="d" horiz-adv-x="1193" d="M530 -20Q328 -20 211 118T93 521Q93 682 140 802T281 988T515 1054Q590 1054 647 1035T746 987T814 927T854 870V1486H1041V0H899L879 212Q869 182 847 143T786 66T683 4T530 -20ZM563 122Q719 122 786
217T854 530Q853 651 824 736T733 865T566 910Q439 910 359 819T279 530Q279 336 351 229T563 122Z" />
<glyph unicode="e" glyph-name="e" horiz-adv-x="1133" d="M590 -20Q446 -20 336 43T164 224T102 507Q102 670 158 793T320 985T577 1054Q723 1054 824 991T977 814T1030 542V474H289Q289 376 321 297T420 170T587 123Q686 123 757 169T849 302H1023Q1005 197
940 125T783 17T590 -20ZM290 599H852Q852 688 822 759T731 872T576 914Q479 914 415 868T320 749T290 599Z" />
<glyph unicode="f" glyph-name="f" horiz-adv-x="792" d="M291 0V899H72V1034H291V1194Q291 1317 353 1381T541 1446H736L737 1315H583Q519 1315 496 1281T473 1178V1034H727V899H476V0H291Z" />
<glyph unicode="g" glyph-name="g" horiz-adv-x="1245" d="M590 -342Q347 -342 211 -272T75 -70Q75 -14 101 25T163 91T230 132T271 155Q253 165 228 180T184 220T164 285Q164 334 210 375T347 436Q256 482 205 558T154 723Q154 823 208 897T363 1010T604 1050Q705
1050 773 1027T901 960Q917 967 952 981T1028 1013T1106 1045T1165 1069L1164 898L983 864Q999 832 1008 794T1017 723Q1017 632 970 558T826 440T586 396Q574 396 556 396T524 398Q418 395 379 375T339 329Q339 300 384 289T536 270Q575 268 632 265T761 257Q923
247 1011 174T1099 -23Q1099 -164 974 -253T590 -342ZM623 -223Q766 -223 842 -180T919 -50Q919 12 872 51T730 97L440 116Q401 118 359 97T288 37T259 -49Q259 -131 348 -177T623 -223ZM592 515Q703 515 771 567T840 721Q840 826 772 881T592 936Q478 936 409
881T339 721Q339 623 405 569T592 515Z" />
<glyph unicode="h" glyph-name="h" horiz-adv-x="1153" d="M153 0V1486H333V882Q359 925 403 962T510 1023T656 1047Q757 1047 839 1010T969 903T1017 739V0H832V702Q832 795 769 845T603 896Q534 896 473 874T375 806T337 690V0H153Z" />
<glyph unicode="i" glyph-name="i" horiz-adv-x="495" d="M158 0V1034H337V0H158ZM153 1253V1445H342V1253H153Z" />
<glyph unicode="j" glyph-name="j" horiz-adv-x="525" d="M84 -332Q-1 -332 -23 -320T-46 -308V-185L56 -180Q126 -175 154 -143T182 -40V1034H367V-46Q367 -191 305 -261T84 -332ZM176 1253V1445H372V1253H176Z" />
<glyph unicode="k" glyph-name="k" horiz-adv-x="1123" d="M153 0V1486H337V517L823 1034H1035L662 640L1061 0H865L541 519L337 308V0H153Z" />
<glyph unicode="l" glyph-name="l" horiz-adv-x="606" d="M414 -13Q330 -13 279 10T200 72T163 161T153 266V1486H335V284Q335 206 365 167T451 124L507 123V3Q484 -4 459 -8T414 -13Z" />
<glyph unicode="m" glyph-name="m" horiz-adv-x="1730" d="M153 0V1034H331V884Q374 952 449 1003T644 1054Q700 1054 758 1035T866 978T942 885Q990 961 1072 1007T1257 1054Q1311 1054 1370 1038T1479 980T1562 865T1594 676V0H1408V658Q1408 752 1378 803T1300
876T1196 897Q1148 897 1094 878T1002 814T964 691V0H780V712Q780 773 748 814T667 876T570 897Q517 897 464 876T374 810T337 691V0H153Z" />
<glyph unicode="n" glyph-name="n" horiz-adv-x="1154" d="M153 0V1034H332V884Q357 927 401 965T509 1026T656 1049Q754 1049 836 1010T968 889T1018 676V0H833V658Q833 779 770 837T605 896Q535 896 474 874T375 806T337 691V0H153Z" />
<glyph unicode="o" glyph-name="o" horiz-adv-x="1131" d="M567 -20Q424 -20 318 41T152 222T93 513Q93 675 148 797T309 986T568 1054Q711 1054 816 992T979 808T1038 513Q1038 355 984 235T826 48T567 -20ZM568 126Q660 126 724 173T821 308T855 517Q855 628
826 716T733 857T568 909Q474 909 409 863T311 728T277 517Q277 408 306 319T400 178T568 126Z" />
<glyph unicode="p" glyph-name="p" horiz-adv-x="1191" d="M153 -322V1034H337L339 854Q357 886 385 921T455 986T552 1035T679 1054Q803 1054 897 998T1045 825T1098 531Q1098 353 1047 231T898 44T664 -20Q595 -20 542 -1T449 50T383 118T339 187V-322H153ZM629
124Q757 124 838 221T919 525Q919 702 845 806T629 910Q485 910 411 804T337 525Q337 414 370 323T468 178T629 124Z" />
<glyph unicode="q" glyph-name="q" horiz-adv-x="1191" d="M852 -322V187Q836 154 809 118T743 51T650 0T527 -20Q402 -20 304 37T150 217T93 531Q93 696 141 813T283 992T512 1054Q583 1054 638 1035T735 986T805 921T852 854L854 1034H1039V-322H852ZM562 124Q658
124 723 178T821 323T854 525Q854 697 781 803T562 910Q435 910 354 815T272 525Q272 338 346 231T562 124Z" />
<glyph unicode="r" glyph-name="r" horiz-adv-x="782" d="M153 0V1034H329V835Q355 909 402 957T509 1030T635 1054Q658 1054 680 1051T714 1041V862Q699 869 676 871T636 874Q574 878 520 867T425 827T361 754T337 643V0H153Z" />
<glyph unicode="s" glyph-name="s" horiz-adv-x="1012" d="M525 -20Q417 -20 325 13T171 118T95 301H263Q276 240 313 200T404 139T524 118Q629 118 693 157T757 277Q757 334 724 368T619 419L405 472Q280 502 206 566T130 745Q130 836 174 905T305 1014T524 1054Q693
1054 796 979T904 757H740Q730 831 674 874T522 918Q424 918 362 879T299 756Q299 701 343 670T473 617L681 565Q752 546 799 515T873 446T911 367T923 287Q923 192 876 124T740 18T525 -20Z" />
<glyph unicode="t" glyph-name="t" horiz-adv-x="778" d="M532 -5Q425 -5 366 24T284 110T260 250V899H92V1034H265L310 1335H446V1035H679V899H446V256Q446 201 457 176T496 143T572 136H685V12Q666 5 628 0T532 -5Z" />
<glyph unicode="u" glyph-name="u" horiz-adv-x="1161" d="M533 -20Q452 -19 381 3T254 70T168 179T136 332V1034H321V351Q321 250 383 187T572 124Q686 124 755 183T825 361V1034H1009V0H862L843 198Q824 120 779 72T670 2T533 -20Z" />
<glyph unicode="v" glyph-name="v" horiz-adv-x="1009" d="M421 0L47 1034H221L496 232H513L789 1034H962L590 0H421Z" />
<glyph unicode="w" glyph-name="w" horiz-adv-x="1560" d="M372 0L52 1034H224L460 239H476L709 1034H849L1091 241H1108L1334 1034H1508L1194 0H1012L777 763L552 0H372Z" />
<glyph unicode="x" glyph-name="x" horiz-adv-x="1129" d="M63 0L461 537L95 1034H296L565 671L834 1034H1036L668 537L1066 0H865L564 405L265 0H63Z" />
<glyph unicode="y" glyph-name="y" horiz-adv-x="1070" d="M256 -330Q165 -330 131 -317T97 -304V-184L203 -186Q260 -188 298 -178T359 -151T394 -113T415 -73L451 25L47 1034H234L539 236L842 1034H1023L588 -78Q547 -176 498 -231T388 -308T256 -330Z" />
<glyph unicode="z" glyph-name="z" horiz-adv-x="961" d="M76 0V115L660 898H101V1034H880V919L297 136H885V0H76Z" />
<glyph unicode="{" glyph-name="braceleft" horiz-adv-x="655" d="M504 -322Q426 -322 368 -297T276 -224T243 -112V320Q243 367 219 410T145 482T17 510V622Q134 623 188 678T243 821V1241Q243 1305 277 1351T369 1421T501 1446H602V1327H530Q479 1327 453 1315T416
1280T406 1225V799Q405 725 377 677T303 603T209 573Q197 572 197 567T209 560Q257 556 302 534T376 463T406 333V-97Q406 -152 432 -177T531 -203H602V-322H504Z" />
<glyph unicode="|" glyph-name="bar" horiz-adv-x="526" d="M192 -322L191 1652H336V-322H192Z" />
<glyph unicode="}" glyph-name="braceright" horiz-adv-x="664" d="M38 -322V-203H109Q182 -203 208 -178T234 -97V333Q235 414 264 462T338 533T431 560Q445 562 444 567T431 573Q382 578 338 603T264 676T234 799V1225Q234 1257 225 1280T188 1315T110 1327H38V1446H139Q213
1446 271 1422T363 1351T397 1241V821Q397 734 451 679T623 622V510Q546 510 496 482T422 411T397 320V-112Q397 -177 364 -224T273 -296T136 -322H38Z" />
<glyph unicode="~" glyph-name="asciitilde" horiz-adv-x="1136" d="M170 605L117 710Q173 765 235 805T387 846Q444 846 490 830T579 794T664 757T757 741Q832 741 879 775T957 853L1013 746Q977 689 912 652T758 614Q699 614 653 630T565 666T482 703T389 719Q313
719 262 683T170 605Z" />
<glyph unicode="&#xa0;" glyph-name="uni00A0" horiz-adv-x="486" />
<glyph unicode="&#xa1;" glyph-name="exclamdown" horiz-adv-x="503" d="M136 -322L185 665H308L358 -322H136ZM136 801V1034H356V801H136Z" />
<glyph unicode="&#xa2;" glyph-name="cent" horiz-adv-x="1085" d="M582 202Q443 202 336 263T168 443T107 735Q107 897 162 1018T324 1208T582 1276Q694 1276 782 1234T927 1113T998 929H834Q825 983 793 1028T707 1100T583 1127Q451 1127 368 1031T284 737Q284
558 360 451T586 343Q657 343 709 370T794 443T836 541H997Q983 437 926 361T781 244T582 202ZM509 0V286H646V0H509ZM509 1160V1446H646V1160H509Z" />
<glyph unicode="&#xa3;" glyph-name="sterling" horiz-adv-x="1226" d="M30 0V159H105Q181 159 233 224T286 433Q286 484 281 542T263 688H61V806H241L211 971Q188 1088 212 1179T297 1334T441 1432T620 1466Q716 1466 798 1435T940 1351T1029 1229L865 1171Q831
1240 781 1274T644 1308Q578 1308 525 1282T440 1206T408 1085Q408 1029 420 955T454 807H777V689H470Q481 618 484 566T482 460Q478 374 459 316T414 221T366 161H714Q816 161 876 197T971 324L1130 282Q1084 141 982 71T725 0H30Z" />
<glyph unicode="&#xa4;" glyph-name="currency" horiz-adv-x="1079" d="M192 295L103 389L222 506Q188 556 171 610T154 727Q154 843 214 932Q222 949 211 960L104 1068L194 1159L314 1037Q360 1071 417 1089T532 1108Q649 1108 740 1045Q755 1037 765 1047L872
1155L961 1063L843 946Q877 898 895 843T913 728Q913 672 898 619T851 521Q844 508 853 500L963 394L874 302L756 419Q708 385 653 366T536 346Q420 346 327 407Q311 418 299 404L192 295ZM536 485Q605 485 660 519T746 608T778 728Q778 792 747 847T660 936T536
971Q467 971 412 937T326 847T294 728Q294 663 325 608T412 519T536 485Z" />
<glyph unicode="&#xa5;" glyph-name="yen" horiz-adv-x="1223" d="M512 0V605L9 1446H250L632 785L1015 1446H1214L723 638V0H512ZM207 266V382L1028 383V267L207 266ZM207 559V676L1028 677V561L207 559Z" />
<glyph unicode="&#xa6;" glyph-name="brokenbar" horiz-adv-x="526" d="M192 850L191 1652H336V850H192ZM192 -322L191 480H336V-322H192Z" />
<glyph unicode="&#xa7;" glyph-name="section" horiz-adv-x="981" d="M504 -144Q406 -144 321 -114T171 -32T73 88L195 152Q240 82 318 34T504 -15Q600 -15 662 22T725 128Q725 178 685 222T531 311L360 377Q220 430 159 501T97 669Q97 762 152 828T293 930Q217
970 176 1011T120 1096T104 1186Q104 1265 150 1328T280 1429T479 1466Q570 1466 645 1438T777 1363T866 1262L743 1197Q697 1255 635 1296T488 1338Q388 1338 332 1301T276 1202Q276 1158 311 1119T432 1045L597 979Q755 916 823 839T891 657Q891 559 839 500T713
401Q804 350 851 290T898 147Q898 63 850 -2T714 -106T504 -144ZM551 473Q600 469 641 490T705 549T728 632Q726 691 692 735T558 819L449 861Q395 857 352 833T284 771T258 693Q258 640 292 604T432 524L551 473Z" />
<glyph unicode="&#xa8;" glyph-name="dieresis" horiz-adv-x="591" d="M399 1267L400 1446H581L580 1267H399ZM10 1267L11 1446H192L191 1267H10Z" />
<glyph unicode="&#xa9;" glyph-name="copyright" horiz-adv-x="1634" d="M814 -20Q660 -20 525 37T288 197T128 434T70 724Q70 877 127 1011T287 1248T525 1408T814 1466Q967 1466 1101 1408T1338 1248T1498 1012T1556 724Q1556 569 1498 434T1338 197T1102 38T814
-20ZM818 311Q705 311 619 363T484 509T435 727Q435 851 484 945T620 1092T818 1146Q902 1146 966 1114T1075 1032T1149 923L1012 891Q979 954 934 992T825 1031Q724 1031 660 952T595 731Q595 586 661 506T830 426Q905 426 959 468T1048 578L1152 540Q1132 499
1101 458T1029 384T936 331T818 311ZM814 105Q939 105 1049 148T1244 273T1376 468T1424 724Q1424 864 1377 978T1245 1174T1050 1300T814 1344Q685 1344 574 1300T380 1174T250 978T203 724Q203 583 249 469T379 273T574 149T814 105Z" />
<glyph unicode="&#xaa;" glyph-name="ordfeminine" horiz-adv-x="818" d="M319 792Q215 792 159 841T102 973Q102 1068 186 1124T427 1190L537 1200V1246Q537 1313 498 1341T394 1369Q342 1369 303 1350T231 1274L118 1304Q154 1380 222 1421T401 1462Q537 1462
599 1405T662 1246Q662 1166 662 1111T662 1011Q662 996 663 972T665 923T670 876L682 804H552L535 889Q482 840 433 816T319 792ZM362 882Q437 882 491 931Q512 951 524 969T537 1011V1118L445 1111Q340 1104 287 1070T233 980Q233 936 268 909T362 882Z" />
<glyph unicode="&#xab;" glyph-name="guillemotleft" horiz-adv-x="909" d="M695 140L433 502L696 880H802L601 502L800 140H695ZM342 140L81 502L343 880H449L247 502L446 140H342Z" />
<glyph unicode="&#xac;" glyph-name="logicalnot" horiz-adv-x="1109" d="M123 654V798L986 799V656L123 654ZM832 369L830 756H986V369H832Z" />
<glyph unicode="&#xad;" glyph-name="uni00AD" horiz-adv-x="755" d="M124 443V588L631 590V444L124 443Z" />
<glyph unicode="&#xae;" glyph-name="registered" horiz-adv-x="1078" d="M536 536Q406 536 301 598T133 765T70 1000Q70 1129 132 1235T300 1403T536 1466Q664 1466 769 1404T937 1235T1000 1000Q1000 871 938 766T770 598T536 536ZM536 628Q644 628 726 674T855
803T902 1000Q902 1113 856 1197T727 1327T536 1374Q426 1374 343 1328T215 1197T169 1000Q169 887 214 804T343 674T536 628ZM357 767V1228H566Q642 1228 683 1199T725 1111Q725 1058 695 1029T629 987L718 767H625L548 978H444V767H357ZM444 1047H556Q589 1047
612 1059T636 1103Q636 1127 618 1144T550 1161H444V1047Z" />
<glyph unicode="&#xaf;" glyph-name="overscore" horiz-adv-x="656" d="M26 1235V1365H623V1235H26Z" />
<glyph unicode="&#xb0;" glyph-name="degree" horiz-adv-x="926" d="M460 1045Q369 1045 298 1085T187 1195T146 1358Q146 1450 186 1521T298 1632T460 1673Q549 1673 620 1633T732 1521T773 1358Q773 1266 732 1196T620 1085T460 1045ZM458 1161Q544 1161 593
1215T643 1356Q643 1442 593 1496T456 1550Q371 1550 320 1496T270 1356Q272 1270 322 1216T458 1161Z" />
<glyph unicode="&#xb1;" glyph-name="plusminus" horiz-adv-x="1109" d="M123 117V259L986 261V118L123 117ZM627 952H986V809L627 808V449H485L484 808H123V951L484 952L483 1312H627V952Z" />
<glyph unicode="&#xb2;" glyph-name="uni00B2" horiz-adv-x="734" d="M65 747V821V857Q65 939 99 995T188 1092T304 1165T419 1231T508 1306T543 1409Q543 1477 496 1518T367 1560Q283 1560 228 1513T166 1377H46Q46 1457 83 1523T192 1629T372 1669Q510 1669
590 1598T671 1409Q671 1328 637 1272T550 1177T437 1106T323 1044T235 971T201 871V856H677V747H65Z" />
<glyph unicode="&#xb3;" glyph-name="uni00B3" horiz-adv-x="803" d="M387 736Q242 737 155 813T65 1014H187Q199 930 254 886T391 842Q490 842 548 886T607 1001Q607 1076 547 1121T383 1168L299 1170V1274L379 1276Q436 1277 482 1298T555 1353T583 1429Q583
1485 533 1525T391 1566Q343 1566 300 1547T228 1489T198 1388H77Q76 1475 117 1537T230 1634T392 1669Q487 1669 559 1642T672 1562T713 1433Q713 1366 672 1313T548 1229Q632 1204 685 1147T738 1001Q738 917 692 858T567 767T387 736Z" />
<glyph unicode="&#xb4;" glyph-name="acute" horiz-adv-x="437" d="M10 1155L216 1446H426L153 1155H10Z" />
<glyph unicode="&#xb5;" glyph-name="uni00B5" horiz-adv-x="1171" d="M136 -330V1060H326V337Q326 288 353 248T428 183T532 158Q615 158 688 205T827 333V1060H1019L1016 0H833V164Q745 88 679 53T539 14Q479 10 426 23T326 72V-330H136Z" />
<glyph unicode="&#xb6;" glyph-name="paragraph" horiz-adv-x="1118" d="M513 -166V595Q386 599 292 654T145 801T93 1010Q93 1122 144 1222T298 1384T552 1446H982V1332H861V-166H738V1332H637V-166H513Z" />
<glyph unicode="&#xb7;" glyph-name="middot" horiz-adv-x="459" d="M110 618V839H339V618H110Z" />
<glyph unicode="&#xb8;" glyph-name="cedilla" horiz-adv-x="462" d="M213 -412Q159 -412 112 -400T23 -362L54 -284Q80 -303 113 -317T191 -331Q246 -331 272 -312T299 -258Q299 -215 262 -194T139 -170Q129 -170 127 -167T127 -157L200 10H297L250 -111Q318
-114 357 -136T413 -191T429 -257Q429 -308 400 -342T321 -394T213 -412Z" />
<glyph unicode="&#xb9;" glyph-name="uni00B9" horiz-adv-x="479" d="M220 744V1462H46V1545Q164 1545 209 1570T257 1654H347V744H220Z" />
<glyph unicode="&#xba;" glyph-name="ordmasculine" horiz-adv-x="812" d="M405 795Q308 795 238 837T131 955T93 1127Q93 1228 132 1304T241 1422T405 1465Q502 1465 572 1422T681 1303T719 1127Q719 1030 682 955T574 838T405 795ZM405 890Q494 890 538 954T583
1132Q583 1242 539 1305T405 1368Q318 1368 274 1305T230 1132Q230 1018 274 954T405 890Z" />
<glyph unicode="&#xbb;" glyph-name="guillemotright" horiz-adv-x="957" d="M479 140L678 502L476 880H582L844 502L582 140H479ZM126 140L325 502L123 880H228L490 502L229 140H126Z" />
<glyph unicode="&#xbc;" glyph-name="onequarter" horiz-adv-x="1583" d="M220 536V1254H46V1337Q164 1337 209 1362T257 1446H347V536H220ZM335 -8L210 -7L1186 1462H1307L335 -8ZM1268 2V232H844V341L1265 911H1388V340H1538V232H1388V2H1268ZM963 340H1266V746L963
340Z" />
<glyph unicode="&#xbd;" glyph-name="onehalf" horiz-adv-x="1733" d="M220 536V1254H46V1337Q164 1337 209 1362T257 1446H347V536H220ZM335 -8L210 -7L1186 1462H1307L335 -8ZM1064 -1V73V109Q1064 191 1098 247T1187 344T1303 417T1418 483T1507 558T1542 661Q1542
729 1495 770T1366 812Q1282 812 1227 765T1165 629H1045Q1045 709 1082 775T1191 881T1371 921Q1509 921 1589 850T1670 661Q1670 580 1636 524T1549 429T1436 358T1322 296T1234 223T1200 123V108H1676V-1H1064Z" />
<glyph unicode="&#xbe;" glyph-name="threequarters" horiz-adv-x="1837" d="M387 526Q242 527 155 603T65 804H187Q199 720 254 676T391 632Q490 632 548 676T607 791Q607 866 547 911T383 958L299 960V1064L379 1066Q436 1067 482 1088T555 1143T583 1219Q583
1275 533 1315T391 1356Q343 1356 300 1337T228 1279T198 1178H77Q76 1265 117 1327T230 1424T392 1459Q487 1459 559 1432T672 1352T713 1223Q713 1156 672 1103T548 1019Q632 994 685 937T738 791Q738 707 692 648T567 557T387 526ZM588 -8L463 -7L1439 1462H1560L588
-8ZM1522 2V232H1098V341L1519 911H1642V340H1792V232H1642V2H1522ZM1217 340H1520V746L1217 340Z" />
<glyph unicode="&#xbf;" glyph-name="questiondown" horiz-adv-x="1036" d="M507 -342Q366 -342 267 -297T115 -173T63 7Q63 90 92 148T166 252T262 338T359 424T433 528T462 668H621Q621 575 595 508T526 390T437 297T348 214T280 126T253 15Q253 -82 323 -139T508
-197Q573 -197 636 -172T747 -102T818 -2L983 -52Q919 -188 794 -265T507 -342ZM431 801V1034H652V801H431Z" />
<glyph unicode="&#xc0;" glyph-name="Agrave" horiz-adv-x="1420" d="M83 0L606 1446H815L1338 0H1149L1007 396H414L271 0H83ZM463 566H956L710 1265L463 566ZM644 1567L370 1858H581L787 1567H644Z" />
<glyph unicode="&#xc1;" glyph-name="Aacute" horiz-adv-x="1420" d="M83 0L606 1446H815L1338 0H1149L1007 396H414L271 0H83ZM463 566H956L710 1265L463 566ZM629 1567L835 1858H1045L772 1567H629Z" />
<glyph unicode="&#xc2;" glyph-name="Acircumflex" horiz-adv-x="1420" d="M83 0L606 1446H815L1338 0H1149L1007 396H414L271 0H83ZM463 566H956L710 1265L463 566ZM394 1567L645 1792H777L1023 1567H849L709 1697L558 1567H394Z" />
<glyph unicode="&#xc3;" glyph-name="Atilde" horiz-adv-x="1420" d="M83 0L606 1446H815L1338 0H1149L1007 396H414L271 0H83ZM463 566H956L710 1265L463 566ZM447 1631L412 1741Q446 1772 484 1794T579 1816Q628 1816 671 1802T756 1774T842 1760Q887 1760 920
1776T982 1816L1014 1694Q988 1675 947 1656T842 1636Q788 1636 748 1649T671 1675T587 1688Q538 1688 508 1672T447 1631Z" />
<glyph unicode="&#xc4;" glyph-name="Adieresis" horiz-adv-x="1420" d="M83 0L606 1446H815L1338 0H1149L1007 396H414L271 0H83ZM463 566H956L710 1265L463 566ZM814 1679L815 1858H996L995 1679H814ZM425 1679L426 1858H607L606 1679H425Z" />
<glyph unicode="&#xc5;" glyph-name="Aring" horiz-adv-x="1420" d="M83 0L606 1446H815L1338 0H1149L1007 396H414L271 0H83ZM463 566H956L710 1265L463 566ZM711 1566Q625 1566 565 1626T505 1776Q505 1858 566 1916T711 1975Q769 1975 816 1948T890 1874T918
1772Q918 1685 858 1626T711 1566ZM709 1662Q754 1662 784 1695T815 1771Q815 1818 785 1847T709 1877Q666 1877 634 1848T601 1771Q601 1728 633 1695T709 1662Z" />
<glyph unicode="&#xc6;" glyph-name="AE" horiz-adv-x="1949" d="M0 0L800 1446H1805L1804 1286H1115V809H1732V650H1115V161H1829V0H904V401H411L189 0H0ZM484 566H904V1312L484 566Z" />
<glyph unicode="&#xc7;" glyph-name="Ccedilla" horiz-adv-x="1377" d="M696 -412Q642 -412 595 -400T506 -362L537 -284Q563 -303 596 -317T674 -331Q729 -331 755 -312T782 -258Q782 -215 745 -194T622 -170Q612 -170 610 -167T610 -157L683 10H780L733 -111Q801
-114 840 -136T896 -191T912 -257Q912 -308 883 -342T804 -394T696 -412ZM723 -20Q528 -20 391 69T181 325T108 728Q108 963 180 1128T389 1379T723 1466Q876 1466 994 1403T1184 1233T1269 1000H1072Q1056 1085 1011 1154T893 1264T718 1305Q587 1305 497 1244T360
1054T313 726Q313 424 416 283T718 141Q820 141 893 184T1011 299T1072 455H1269Q1258 363 1220 278T1114 125T950 19T723 -20Z" />
<glyph unicode="&#xc8;" glyph-name="Egrave" horiz-adv-x="1241" d="M191 0V1446H1103L1102 1283H377V811H1030V649H376V167L1122 165V0H191ZM583 1567L309 1858H520L726 1567H583Z" />
<glyph unicode="&#xc9;" glyph-name="Eacute" horiz-adv-x="1241" d="M191 0V1446H1103L1102 1283H377V811H1030V649H376V167L1122 165V0H191ZM569 1567L775 1858H985L712 1567H569Z" />
<glyph unicode="&#xca;" glyph-name="Ecircumflex" horiz-adv-x="1241" d="M191 0V1446H1103L1102 1283H377V811H1030V649H376V167L1122 165V0H191ZM334 1567L585 1792H717L963 1567H789L649 1697L498 1567H334Z" />
<glyph unicode="&#xcb;" glyph-name="Edieresis" horiz-adv-x="1241" d="M191 0V1446H1103L1102 1283H377V811H1030V649H376V167L1122 165V0H191ZM753 1679L754 1858H935L934 1679H753ZM364 1679L365 1858H546L545 1679H364Z" />
<glyph unicode="&#xcc;" glyph-name="Igrave" horiz-adv-x="566" d="M191 0V1446H376V0H191ZM218 1567L-56 1858H155L361 1567H218Z" />
<glyph unicode="&#xcd;" glyph-name="Iacute" horiz-adv-x="566" d="M191 0V1446H376V0H191ZM203 1567L409 1858H619L346 1567H203Z" />
<glyph unicode="&#xce;" glyph-name="Icircumflex" horiz-adv-x="566" d="M191 0V1446H376V0H191ZM-31 1567L220 1792H352L598 1567H424L284 1697L133 1567H-31Z" />
<glyph unicode="&#xcf;" glyph-name="Idieresis" horiz-adv-x="566" d="M191 0V1446H376V0H191ZM388 1679L389 1858H570L569 1679H388ZM-1 1679L0 1858H181L180 1679H-1Z" />
<glyph unicode="&#xd0;" glyph-name="Eth" horiz-adv-x="1414" d="M70 650V797H736V650H70ZM218 0V1446Q225 1446 260 1446T346 1445T453 1446T554 1444Q820 1440 985 1358T1228 1118T1306 732Q1306 492 1223 329T968 83T535 0H218ZM408 159H535Q714 159 843 214T1041
395T1111 729Q1111 938 1044 1060T849 1234T543 1287H408V159Z" />
<glyph unicode="&#xd1;" glyph-name="Ntilde" horiz-adv-x="1508" d="M191 0V1446H368L1132 322V1446H1317V0H1152L376 1140V0H191ZM490 1631L455 1741Q489 1772 527 1794T622 1816Q671 1816 714 1802T799 1774T885 1760Q930 1760 963 1776T1025 1816L1057 1694Q1031
1675 990 1656T885 1636Q831 1636 791 1649T714 1675T630 1688Q581 1688 551 1672T490 1631Z" />
<glyph unicode="&#xd2;" glyph-name="Ograve" horiz-adv-x="1468" d="M736 -20Q543 -20 402 67T185 319T108 720Q108 957 185 1123T403 1378T736 1466Q928 1466 1068 1379T1284 1125T1360 720Q1360 485 1285 320T1069 67T736 -20ZM736 141Q870 141 964 202T1107
391T1157 718Q1157 920 1107 1050T963 1242T736 1305Q604 1305 509 1242T363 1049T312 718Q312 519 363 391T509 202T736 141ZM670 1567L396 1858H607L813 1567H670Z" />
<glyph unicode="&#xd3;" glyph-name="Oacute" horiz-adv-x="1468" d="M736 -20Q543 -20 402 67T185 319T108 720Q108 957 185 1123T403 1378T736 1466Q928 1466 1068 1379T1284 1125T1360 720Q1360 485 1285 320T1069 67T736 -20ZM736 141Q870 141 964 202T1107
391T1157 718Q1157 920 1107 1050T963 1242T736 1305Q604 1305 509 1242T363 1049T312 718Q312 519 363 391T509 202T736 141ZM656 1567L862 1858H1072L799 1567H656Z" />
<glyph unicode="&#xd4;" glyph-name="Ocircumflex" horiz-adv-x="1468" d="M736 -20Q543 -20 402 67T185 319T108 720Q108 957 185 1123T403 1378T736 1466Q928 1466 1068 1379T1284 1125T1360 720Q1360 485 1285 320T1069 67T736 -20ZM736 141Q870 141 964 202T1107
391T1157 718Q1157 920 1107 1050T963 1242T736 1305Q604 1305 509 1242T363 1049T312 718Q312 519 363 391T509 202T736 141ZM421 1567L672 1792H804L1050 1567H876L736 1697L585 1567H421Z" />
<glyph unicode="&#xd5;" glyph-name="Otilde" horiz-adv-x="1468" d="M736 -20Q543 -20 402 67T185 319T108 720Q108 957 185 1123T403 1378T736 1466Q928 1466 1068 1379T1284 1125T1360 720Q1360 485 1285 320T1069 67T736 -20ZM736 141Q870 141 964 202T1107
391T1157 718Q1157 920 1107 1050T963 1242T736 1305Q604 1305 509 1242T363 1049T312 718Q312 519 363 391T509 202T736 141ZM474 1631L439 1741Q473 1772 511 1794T606 1816Q655 1816 698 1802T783 1774T869 1760Q914 1760 947 1776T1009 1816L1041 1694Q1015
1675 974 1656T869 1636Q815 1636 775 1649T698 1675T614 1688Q565 1688 535 1672T474 1631Z" />
<glyph unicode="&#xd6;" glyph-name="Odieresis" horiz-adv-x="1468" d="M736 -20Q543 -20 402 67T185 319T108 720Q108 957 185 1123T403 1378T736 1466Q928 1466 1068 1379T1284 1125T1360 720Q1360 485 1285 320T1069 67T736 -20ZM736 141Q870 141 964 202T1107
391T1157 718Q1157 920 1107 1050T963 1242T736 1305Q604 1305 509 1242T363 1049T312 718Q312 519 363 391T509 202T736 141ZM841 1679L842 1858H1023L1022 1679H841ZM452 1679L453 1858H634L633 1679H452Z" />
<glyph unicode="&#xd7;" glyph-name="multiply" horiz-adv-x="1080" d="M227 311L125 414L852 1144L955 1043L227 311ZM852 311L123 1040L225 1141L955 414L852 311Z" />
<glyph unicode="&#xd8;" glyph-name="Oslash" horiz-adv-x="1501" d="M156 -27L56 71L227 258Q175 346 148 461T121 717Q121 955 197 1122T414 1378T748 1466Q883 1466 992 1423T1180 1296L1342 1471L1441 1375L1266 1182Q1318 1093 1345 977T1373 720Q1373 485
1297 320T1081 67T747 -20Q612 -20 503 22T316 146L156 -27ZM749 140Q938 140 1035 263T1140 645Q1144 748 1134 840T1100 1014L445 280Q546 140 749 140ZM392 426L1049 1161Q999 1236 924 1272T748 1308Q558 1308 458 1178T350 780Q347 679 357 591T392 426Z"
/>
<glyph unicode="&#xd9;" glyph-name="Ugrave" horiz-adv-x="1401" d="M719 -20Q531 -20 415 42T245 224T191 519V1446H383V491Q383 316 470 229T719 142Q828 142 904 180T1021 295T1062 491V1446H1248V500Q1248 333 1193 217T1022 41T719 -20ZM655 1567L381 1858H592L798
1567H655Z" />
<glyph unicode="&#xda;" glyph-name="Uacute" horiz-adv-x="1401" d="M719 -20Q531 -20 415 42T245 224T191 519V1446H383V491Q383 316 470 229T719 142Q828 142 904 180T1021 295T1062 491V1446H1248V500Q1248 333 1193 217T1022 41T719 -20ZM640 1567L846 1858H1056L783
1567H640Z" />
<glyph unicode="&#xdb;" glyph-name="Ucircumflex" horiz-adv-x="1401" d="M719 -20Q531 -20 415 42T245 224T191 519V1446H383V491Q383 316 470 229T719 142Q828 142 904 180T1021 295T1062 491V1446H1248V500Q1248 333 1193 217T1022 41T719 -20ZM406 1567L657
1792H789L1035 1567H861L721 1697L570 1567H406Z" />
<glyph unicode="&#xdc;" glyph-name="Udieresis" horiz-adv-x="1401" d="M719 -20Q531 -20 415 42T245 224T191 519V1446H383V491Q383 316 470 229T719 142Q828 142 904 180T1021 295T1062 491V1446H1248V500Q1248 333 1193 217T1022 41T719 -20ZM825 1679L826
1858H1007L1006 1679H825ZM436 1679L437 1858H618L617 1679H436Z" />
<glyph unicode="&#xdd;" glyph-name="Yacute" horiz-adv-x="1214" d="M517 0V616L24 1446H226L610 781L988 1446H1191L701 615V0H517ZM543 1570L749 1861H959L686 1570H543Z" />
<glyph unicode="&#xde;" glyph-name="Thorn" horiz-adv-x="1301" d="M191 0V1446H381V1149H708Q865 1149 986 1107T1175 975T1244 749Q1244 604 1176 511T989 372T716 327H381V0H191ZM381 488H710Q811 488 887 513T1007 596T1051 749Q1051 838 1008 890T885 966T700
989H381V488Z" />
<glyph unicode="&#xdf;" glyph-name="germandbls" horiz-adv-x="1179" d="M695 -20Q621 -20 547 -1T422 49L487 172Q528 148 572 130T683 111Q789 111 853 161T918 304Q918 373 884 414T795 480T673 528Q621 547 572 573T492 642T460 755Q460 830 501 879T625
975Q663 1000 699 1024T759 1081T783 1164Q783 1232 733 1273T589 1314Q476 1314 407 1246T337 1044V0H155L153 1011Q154 1105 182 1184T267 1322T408 1413T604 1446Q729 1446 806 1408T920 1306T956 1169Q956 1094 925 1045T840 962T716 895Q657 863 633 844T608
790Q608 756 631 741T713 707Q772 684 837 657T960 587T1053 482T1090 322Q1090 211 1038 135T897 19T695 -20Z" />
<glyph unicode="&#xe0;" glyph-name="agrave" horiz-adv-x="1106" d="M443 -20Q342 -20 266 15T146 118T102 280Q102 452 222 536T607 626L791 631V712Q791 807 734 862T558 918Q469 917 401 876T314 742H151Q157 843 207 912T350 1018T567 1054Q702 1054 791
1016T925 904T970 722V0H812L798 194Q739 73 647 27T443 -20ZM498 113Q551 113 602 132T696 183T765 256T791 340V517L638 514Q519 512 440 490T321 421T281 298Q281 211 342 162T498 113ZM501 1155L227 1446H438L644 1155H501Z" />
<glyph unicode="&#xe1;" glyph-name="aacute" horiz-adv-x="1106" d="M443 -20Q342 -20 266 15T146 118T102 280Q102 452 222 536T607 626L791 631V712Q791 807 734 862T558 918Q469 917 401 876T314 742H151Q157 843 207 912T350 1018T567 1054Q702 1054 791
1016T925 904T970 722V0H812L798 194Q739 73 647 27T443 -20ZM498 113Q551 113 602 132T696 183T765 256T791 340V517L638 514Q519 512 440 490T321 421T281 298Q281 211 342 162T498 113ZM487 1155L693 1446H903L630 1155H487Z" />
<glyph unicode="&#xe2;" glyph-name="acircumflex" horiz-adv-x="1106" d="M443 -20Q342 -20 266 15T146 118T102 280Q102 452 222 536T607 626L791 631V712Q791 807 734 862T558 918Q469 917 401 876T314 742H151Q157 843 207 912T350 1018T567 1054Q702 1054
791 1016T925 904T970 722V0H812L798 194Q739 73 647 27T443 -20ZM498 113Q551 113 602 132T696 183T765 256T791 340V517L638 514Q519 512 440 490T321 421T281 298Q281 211 342 162T498 113ZM252 1155L503 1380H635L881 1155H707L567 1285L416 1155H252Z" />
<glyph unicode="&#xe3;" glyph-name="atilde" horiz-adv-x="1106" d="M443 -20Q342 -20 266 15T146 118T102 280Q102 452 222 536T607 626L791 631V712Q791 807 734 862T558 918Q469 917 401 876T314 742H151Q157 843 207 912T350 1018T567 1054Q702 1054 791
1016T925 904T970 722V0H812L798 194Q739 73 647 27T443 -20ZM498 113Q551 113 602 132T696 183T765 256T791 340V517L638 514Q519 512 440 490T321 421T281 298Q281 211 342 162T498 113ZM305 1219L270 1329Q304 1360 342 1382T437 1404Q486 1404 529 1390T614
1362T700 1348Q745 1348 778 1364T840 1404L872 1282Q846 1263 805 1244T700 1224Q646 1224 606 1237T529 1263T445 1276Q396 1276 366 1260T305 1219Z" />
<glyph unicode="&#xe4;" glyph-name="adieresis" horiz-adv-x="1106" d="M443 -20Q342 -20 266 15T146 118T102 280Q102 452 222 536T607 626L791 631V712Q791 807 734 862T558 918Q469 917 401 876T314 742H151Q157 843 207 912T350 1018T567 1054Q702 1054 791
1016T925 904T970 722V0H812L798 194Q739 73 647 27T443 -20ZM498 113Q551 113 602 132T696 183T765 256T791 340V517L638 514Q519 512 440 490T321 421T281 298Q281 211 342 162T498 113ZM671 1267L672 1446H853L852 1267H671ZM282 1267L283 1446H464L463 1267H282Z"
/>
<glyph unicode="&#xe5;" glyph-name="aring" horiz-adv-x="1106" d="M443 -20Q342 -20 266 15T146 118T102 280Q102 452 222 536T607 626L791 631V712Q791 807 734 862T558 918Q469 917 401 876T314 742H151Q157 843 207 912T350 1018T567 1054Q702 1054 791 1016T925
904T970 722V0H812L798 194Q739 73 647 27T443 -20ZM498 113Q551 113 602 132T696 183T765 256T791 340V517L638 514Q519 512 440 490T321 421T281 298Q281 211 342 162T498 113ZM568 1154Q482 1154 422 1214T362 1364Q362 1446 423 1504T568 1563Q626 1563 673
1536T747 1462T775 1360Q775 1273 715 1214T568 1154ZM566 1250Q611 1250 641 1283T672 1359Q672 1406 642 1435T566 1465Q523 1465 491 1436T458 1359Q458 1316 490 1283T566 1250Z" />
<glyph unicode="&#xe6;" glyph-name="ae" horiz-adv-x="1828" d="M443 -20Q342 -20 266 15T146 118T102 280Q102 452 222 536T607 626L792 631V712Q792 811 728 864T558 918Q470 917 402 874T314 742H151Q156 832 207 902T350 1013T567 1054Q697 1054 788 1008T921
879Q977 963 1066 1008T1272 1054Q1418 1054 1518 991T1672 814T1725 542V474H984Q984 376 1016 297T1115 170T1282 123Q1381 123 1452 169T1544 302H1718Q1699 197 1634 125T1478 17T1285 -20Q1142 -20 1032 43T863 224Q840 149 779 94T631 10T443 -20ZM498 113Q587
113 651 154T752 254T789 372L788 517L638 514Q520 512 441 490T321 421T281 298Q281 211 342 162T498 113ZM985 599H1547Q1547 688 1517 759T1425 872T1270 914Q1173 914 1110 868T1015 749T985 599Z" />
<glyph unicode="&#xe7;" glyph-name="ccedilla" horiz-adv-x="1087" d="M538 -412Q485 -412 438 -400T349 -362L380 -284Q406 -303 439 -317T517 -331Q572 -331 598 -312T624 -258Q624 -215 587 -194T465 -170Q455 -170 453 -167T453 -157L525 10H623L576 -111Q644
-114 683 -136T738 -191T755 -257Q755 -308 725 -342T646 -394T538 -412ZM569 -20Q429 -20 322 41T154 221T93 513Q93 675 148 796T310 986T569 1054Q680 1054 768 1012T914 891T984 707H820Q811 761 779 806T694 878T570 905Q437 905 354 809T270 515Q270 336
346 229T572 121Q643 121 696 148T781 221T822 319H983Q970 215 913 139T767 22T569 -20Z" />
<glyph unicode="&#xe8;" glyph-name="egrave" horiz-adv-x="1133" d="M590 -20Q446 -20 336 43T164 224T102 507Q102 670 158 793T320 985T577 1054Q723 1054 824 991T977 814T1030 542V474H289Q289 376 321 297T420 170T587 123Q686 123 757 169T849 302H1023Q1005
197 940 125T783 17T590 -20ZM290 599H852Q852 688 822 759T731 872T576 914Q479 914 415 868T320 749T290 599ZM511 1155L237 1446H448L654 1155H511Z" />
<glyph unicode="&#xe9;" glyph-name="eacute" horiz-adv-x="1133" d="M590 -20Q446 -20 336 43T164 224T102 507Q102 670 158 793T320 985T577 1054Q723 1054 824 991T977 814T1030 542V474H289Q289 376 321 297T420 170T587 123Q686 123 757 169T849 302H1023Q1005
197 940 125T783 17T590 -20ZM290 599H852Q852 688 822 759T731 872T576 914Q479 914 415 868T320 749T290 599ZM496 1155L702 1446H912L639 1155H496Z" />
<glyph unicode="&#xea;" glyph-name="ecircumflex" horiz-adv-x="1133" d="M590 -20Q446 -20 336 43T164 224T102 507Q102 670 158 793T320 985T577 1054Q723 1054 824 991T977 814T1030 542V474H289Q289 376 321 297T420 170T587 123Q686 123 757 169T849 302H1023Q1005
197 940 125T783 17T590 -20ZM290 599H852Q852 688 822 759T731 872T576 914Q479 914 415 868T320 749T290 599ZM262 1155L513 1380H645L891 1155H717L577 1285L426 1155H262Z" />
<glyph unicode="&#xeb;" glyph-name="edieresis" horiz-adv-x="1133" d="M590 -20Q446 -20 336 43T164 224T102 507Q102 670 158 793T320 985T577 1054Q723 1054 824 991T977 814T1030 542V474H289Q289 376 321 297T420 170T587 123Q686 123 757 169T849 302H1023Q1005
197 940 125T783 17T590 -20ZM290 599H852Q852 688 822 759T731 872T576 914Q479 914 415 868T320 749T290 599ZM681 1267L682 1446H863L862 1267H681ZM292 1267L293 1446H474L473 1267H292Z" />
<glyph unicode="&#xec;" glyph-name="igrave" horiz-adv-x="484" d="M153 0V1034H331V0H153ZM434 1155L230 1446H433L567 1156L434 1155Z" />
<glyph unicode="&#xed;" glyph-name="iacute" horiz-adv-x="484" d="M153 0V1034H331V0H153ZM306 1155L173 1156L307 1446H510L306 1155Z" />
<glyph unicode="&#xee;" glyph-name="icircumflex" horiz-adv-x="484" d="M153 0V1034H331V0H153ZM184 1155L435 1380H567L813 1155H639L499 1285L348 1155H184Z" />
<glyph unicode="&#xef;" glyph-name="idieresis" horiz-adv-x="603" d="M209 0V1034H387V0H209ZM404 1521L405 1700H586L585 1521H404ZM15 1521L16 1700H197L196 1521H15Z" />
<glyph unicode="&#xf0;" glyph-name="eth" horiz-adv-x="1131" d="M565 -20Q409 -20 304 49T146 238T93 506Q93 631 126 729T220 897T366 1003T557 1040Q719 1040 816 957T939 735L797 867Q776 973 729 1065T620 1236T494 1375T377 1480H548Q635 1416 722 1325T881
1115T995 850T1038 531Q1038 369 986 245T829 50T565 -20ZM568 126Q670 126 733 177T825 316T855 512Q855 697 782 798T571 899Q421 899 349 792T277 512Q277 408 305 320T397 179T568 126ZM357 1140L327 1236L952 1425L980 1328L357 1140Z" />
<glyph unicode="&#xf1;" glyph-name="ntilde" horiz-adv-x="1154" d="M153 0V1034H332V884Q357 927 401 965T509 1026T656 1049Q754 1049 836 1010T968 889T1018 676V0H833V658Q833 779 770 837T605 896Q535 896 474 874T375 806T337 691V0H153ZM335 1219L300
1329Q334 1360 372 1382T467 1404Q516 1404 559 1390T644 1362T730 1348Q775 1348 808 1364T870 1404L902 1282Q876 1263 835 1244T730 1224Q676 1224 636 1237T559 1263T475 1276Q426 1276 396 1260T335 1219Z" />
<glyph unicode="&#xf2;" glyph-name="ograve" horiz-adv-x="1131" d="M567 -20Q424 -20 318 41T152 222T93 513Q93 675 148 797T309 986T568 1054Q711 1054 816 992T979 808T1038 513Q1038 355 984 235T826 48T567 -20ZM568 126Q660 126 724 173T821 308T855 517Q855
628 826 716T733 857T568 909Q474 909 409 863T311 728T277 517Q277 408 306 319T400 178T568 126ZM500 1155L226 1446H437L643 1155H500Z" />
<glyph unicode="&#xf3;" glyph-name="oacute" horiz-adv-x="1131" d="M567 -20Q424 -20 318 41T152 222T93 513Q93 675 148 797T309 986T568 1054Q711 1054 816 992T979 808T1038 513Q1038 355 984 235T826 48T567 -20ZM568 126Q660 126 724 173T821 308T855 517Q855
628 826 716T733 857T568 909Q474 909 409 863T311 728T277 517Q277 408 306 319T400 178T568 126ZM485 1155L691 1446H901L628 1155H485Z" />
<glyph unicode="&#xf4;" glyph-name="ocircumflex" horiz-adv-x="1131" d="M567 -20Q424 -20 318 41T152 222T93 513Q93 675 148 797T309 986T568 1054Q711 1054 816 992T979 808T1038 513Q1038 355 984 235T826 48T567 -20ZM568 126Q660 126 724 173T821 308T855
517Q855 628 826 716T733 857T568 909Q474 909 409 863T311 728T277 517Q277 408 306 319T400 178T568 126ZM251 1155L502 1380H634L880 1155H706L566 1285L415 1155H251Z" />
<glyph unicode="&#xf5;" glyph-name="otilde" horiz-adv-x="1131" d="M567 -20Q424 -20 318 41T152 222T93 513Q93 675 148 797T309 986T568 1054Q711 1054 816 992T979 808T1038 513Q1038 355 984 235T826 48T567 -20ZM568 126Q660 126 724 173T821 308T855 517Q855
628 826 716T733 857T568 909Q474 909 409 863T311 728T277 517Q277 408 306 319T400 178T568 126ZM303 1219L268 1329Q302 1360 340 1382T435 1404Q484 1404 527 1390T612 1362T698 1348Q743 1348 776 1364T838 1404L870 1282Q844 1263 803 1244T698 1224Q644
1224 604 1237T527 1263T443 1276Q394 1276 364 1260T303 1219Z" />
<glyph unicode="&#xf6;" glyph-name="odieresis" horiz-adv-x="1131" d="M567 -20Q424 -20 318 41T152 222T93 513Q93 675 148 797T309 986T568 1054Q711 1054 816 992T979 808T1038 513Q1038 355 984 235T826 48T567 -20ZM568 126Q660 126 724 173T821 308T855
517Q855 628 826 716T733 857T568 909Q474 909 409 863T311 728T277 517Q277 408 306 319T400 178T568 126ZM670 1267L671 1446H852L851 1267H670ZM281 1267L282 1446H463L462 1267H281Z" />
<glyph unicode="&#xf7;" glyph-name="divide" horiz-adv-x="1109" d="M123 654V798L986 799V656L123 654ZM440 264V487H672V264H440ZM440 968V1191H672V968H440Z" />
<glyph unicode="&#xf8;" glyph-name="oslash" horiz-adv-x="1172" d="M116 -11L40 68L1050 1042L1124 963L116 -11ZM587 -20Q444 -20 337 41T171 222T112 513Q112 675 167 797T328 986T587 1054Q730 1054 835 992T999 808T1057 513Q1057 355 1004 235T846 48T587
-20ZM587 126Q680 126 744 173T841 308T874 517Q874 628 845 716T753 857T587 909Q493 909 428 863T330 728T296 517Q296 408 326 319T420 178T587 126Z" />
<glyph unicode="&#xf9;" glyph-name="ugrave" horiz-adv-x="1161" d="M533 -20Q452 -19 381 3T254 70T168 179T136 332V1034H321V351Q321 250 383 187T572 124Q686 124 755 183T825 361V1034H1009V0H862L843 198Q824 120 779 72T670 2T533 -20ZM509 1155L235 1446H446L652
1155H509Z" />
<glyph unicode="&#xfa;" glyph-name="uacute" horiz-adv-x="1161" d="M533 -20Q452 -19 381 3T254 70T168 179T136 332V1034H321V351Q321 250 383 187T572 124Q686 124 755 183T825 361V1034H1009V0H862L843 198Q824 120 779 72T670 2T533 -20ZM495 1155L701 1446H911L638
1155H495Z" />
<glyph unicode="&#xfb;" glyph-name="ucircumflex" horiz-adv-x="1161" d="M533 -20Q452 -19 381 3T254 70T168 179T136 332V1034H321V351Q321 250 383 187T572 124Q686 124 755 183T825 361V1034H1009V0H862L843 198Q824 120 779 72T670 2T533 -20ZM260 1155L511
1380H643L889 1155H715L575 1285L424 1155H260Z" />
<glyph unicode="&#xfc;" glyph-name="udieresis" horiz-adv-x="1161" d="M533 -20Q452 -19 381 3T254 70T168 179T136 332V1034H321V351Q321 250 383 187T572 124Q686 124 755 183T825 361V1034H1009V0H862L843 198Q824 120 779 72T670 2T533 -20ZM679 1267L680
1446H861L860 1267H679ZM290 1267L291 1446H472L471 1267H290Z" />
<glyph unicode="&#xfd;" glyph-name="yacute" horiz-adv-x="1070" d="M256 -330Q165 -330 131 -317T97 -304V-184L203 -186Q260 -188 298 -178T359 -151T394 -113T415 -73L451 25L47 1034H234L539 236L842 1034H1023L588 -78Q547 -176 498 -231T388 -308T256 -330ZM458
1155L664 1446H874L601 1155H458Z" />
<glyph unicode="&#xfe;" glyph-name="thorn" horiz-adv-x="1179" d="M153 -322V1446H335V892Q360 919 400 957T504 1025T662 1054Q782 1054 878 997T1030 823T1086 531Q1086 354 1030 231T874 44T643 -20Q554 -20 486 8T368 79Q350 95 344 93T337 66V-322H153ZM588
110Q680 110 749 156T857 296T897 529Q897 670 857 756T748 883T598 923Q521 923 463 890T371 808T337 709V234Q392 178 453 144T588 110Z" />
<glyph unicode="&#xff;" glyph-name="ydieresis" horiz-adv-x="1070" d="M256 -330Q165 -330 131 -317T97 -304V-184L203 -186Q260 -188 298 -178T359 -151T394 -113T415 -73L451 25L47 1034H234L539 236L842 1034H1023L588 -78Q547 -176 498 -231T388 -308T256
-330ZM643 1267L644 1446H825L824 1267H643ZM254 1267L255 1446H436L435 1267H254Z" />
<glyph unicode="&#x2013;" glyph-name="endash" horiz-adv-x="1110" d="M124 428V574L987 575V430L124 428Z" />
<glyph unicode="&#x2014;" glyph-name="emdash" horiz-adv-x="2234" d="M371 428V574L1863 575V430L371 428Z" />
<glyph unicode="&#x2018;" glyph-name="quoteleft" horiz-adv-x="479" d="M106 1037V1229L275 1509H361L251 1261L336 1256V1037H106Z" />
<glyph unicode="&#x2019;" glyph-name="quoteright" horiz-adv-x="463" d="M100 974L211 1222L125 1227V1446H356V1254L186 974H100Z" />
<glyph unicode="&#x201a;" glyph-name="quotesinglbase" horiz-adv-x="483" d="M87 -249L198 -3L112 2V223H343V31L173 -249H87Z" />
<glyph unicode="&#x201c;" glyph-name="quotedblleft" horiz-adv-x="838" d="M106 974V1167L277 1446H363L251 1199L336 1194V974H106ZM465 974V1167L635 1446H721L609 1199L696 1194V974H465Z" />
<glyph unicode="&#x201d;" glyph-name="quotedblright" horiz-adv-x="821" d="M458 974L570 1222L484 1227V1446H714V1254L544 974H458ZM100 974L211 1222L125 1227V1446H356V1254L186 974H100Z" />
<glyph unicode="&#x201e;" glyph-name="quotedblbase" horiz-adv-x="850" d="M455 -249L566 -3L480 2V223H711V31L541 -249H455ZM87 -249L198 -3L112 2V223H343V31L173 -249H87Z" />
<glyph unicode="&#x2022;" glyph-name="bullet" horiz-adv-x="633" d="M311 539Q257 539 213 565T143 637T116 736Q116 790 142 834T213 905T311 931Q365 931 409 905T480 835T507 736Q507 682 481 637T410 566T311 539Z" />
<glyph unicode="&#x2039;" glyph-name="guilsinglleft" horiz-adv-x="556" d="M342 140L81 502L343 880H449L247 502L446 140H342Z" />
<glyph unicode="&#x203a;" glyph-name="guilsinglright" horiz-adv-x="555" d="M110 140L309 502L107 880H212L474 502L213 140H110Z" />
</font>
</defs>
</svg>
