<svg id="163154cd-654b-45bc-808a-b2844121d6e9" data-name="Calque 1" xmlns="http://www.w3.org/2000/svg" width="1000" height="1206" viewBox="0 0 1000 1206"><title>Resin Code alt 2</title><path d="M880.7341,630.30843,822.96219,530.2458l-74.37944,42.94348,57.77191,100.06214c14.65023,25.37569,4.88018,47.97865-.001,56.43205C801.47351,738.13687,786.95886,758,757.6584,758H550V714.65332l-148.75889,85.886L550,886.42528V843H757.6584c51.377,0,97.38574-26.32251,123.07474-70.816C906.42213,727.68994,906.42213,674.80341,880.7341,630.30843Z"/><path d="M376.92487,184.03227,319.15314,284.09493l74.379,42.94323,57.77215-100.0629c14.65046-25.37508,38.93483-28.1153,48.69584-28.11456,9.76095-.00034,34.04576,2.73889,48.69647,28.11468L652.73233,407.17051l-37.34058,21.47162L764,514.52811v-171.772l-37.03887,21.47137L623.00075,184.03239c-25.689-44.49464-71.66129-71.0582-123.03825-71.05767C448.585,112.9744,402.6129,139.53818,376.92487,184.03227Z"/><path d="M242.34191,843H358V758H242.34191c-29.30069,0-43.81508-19.86326-48.69584-28.31632s-14.65044-30.95566-.00021-56.3306l104.10005-180.246L335,514.52829v-171.772l-148.823,85.886,37.15741,21.47134L119.28244,630.3092c-25.68851,44.4938-25.69667,97.37991-.0078,141.87448C144.96309,816.678,190.96446,843,242.34191,843Z"/><path d="M493.96191,637.39453V501.25586l-34.51074,29.98828V497.92383l34.51074-29.99023h30.94141V637.39453Z"/><path d="M298.3291,1035.06836H265.72217v63.78613h-33.083V929.39355H298.3291c35.2251,0,55.93164,24.03906,55.93164,52.83789S333.5542,1035.06836,298.3291,1035.06836Zm-1.666-76.16211H265.72217v46.41211h30.94092c14.99463,0,24.51465-9.2832,24.51465-23.08691C321.17773,968.42676,311.65771,958.90625,296.66309,958.90625Z"/><path d="M382.10107,1098.85449V929.39355h111.625v29.5127h-78.542v39.74707H482.064V1028.167H415.18408v41.17481h78.542v29.51269Z"/><path d="M590.82813,958.90625v139.94824h-33.084V958.90625H513.47559v-29.5127H635.09766v29.5127Z"/><path d="M661.98828,1098.85449V929.39355h111.625v29.5127h-78.543v39.74707h66.88086V1028.167H695.07031v41.17481h78.543v29.51269Z"/></svg>