<svg width="90" height="90" viewBox="0 0 90 90" fill="none" xmlns="http://www.w3.org/2000/svg">
<path d="M73.4121 46.816L69.1008 39.3486L63.55 42.5534L67.8614 50.0207C68.9547 51.9144 68.2256 53.6012 67.8613 54.232C67.4971 54.8629 66.4139 56.3452 64.2273 56.3452H48.7304V53.1104L37.629 59.5198L48.7304 65.9292V62.6885H64.2273C68.0614 62.6885 71.4949 60.7241 73.412 57.4037C75.3291 54.0833 75.3291 50.1365 73.4121 46.816Z" fill="black"/>
<path d="M35.8144 13.5118L31.5031 20.9792L37.0537 24.1839L41.3651 16.7165C42.4584 14.8228 44.2707 14.6183 44.9991 14.6184C45.7275 14.6184 47.5398 14.8228 48.6332 16.7165L56.397 30.1639L53.6104 31.7663L64.7006 38.1757V25.3569L61.9365 26.9592L54.1782 13.5118C52.2612 10.1913 48.8304 8.20894 44.9963 8.20898C41.1621 8.20896 37.7314 10.1913 35.8144 13.5118Z" fill="black"/>
<path d="M25.7709 62.6884H34.4021V56.3451H25.7709C23.5843 56.3451 22.5011 54.8628 22.1369 54.232C21.7727 53.6012 21.0436 51.9219 22.1369 50.0282L29.9056 36.577L32.6857 38.1756V25.3568L21.5795 31.7662L24.3525 33.3686L16.5874 46.816C14.6703 50.1364 14.6697 54.0831 16.5868 57.4036C18.5038 60.7241 21.9368 62.6884 25.7709 62.6884Z" fill="black"/>
<path d="M44.9938 48.1989C43.9 48.1989 42.927 48.0213 42.0748 47.6662C41.2272 47.3063 40.562 46.8163 40.079 46.196C39.5961 45.5758 39.3546 44.8726 39.3546 44.0866C39.3546 43.4806 39.4919 42.9242 39.7665 42.4176C40.0459 41.9062 40.4247 41.4825 40.9029 41.1463C41.3811 40.8054 41.9161 40.5876 42.508 40.4929V40.3935C41.7315 40.2372 41.1017 39.8608 40.6188 39.2642C40.1358 38.6629 39.8944 37.9645 39.8944 37.169C39.8944 36.4162 40.1145 35.7462 40.5549 35.1591C40.9952 34.5672 41.5989 34.1032 42.3659 33.767C43.1377 33.4261 44.0137 33.2557 44.9938 33.2557C45.9739 33.2557 46.8475 33.4261 47.6145 33.767C48.3863 34.108 48.9924 34.5743 49.4327 35.1662C49.873 35.7533 50.0956 36.4209 50.1003 37.169C50.0956 37.9692 49.8494 38.6676 49.3617 39.2642C48.874 39.8608 48.249 40.2372 47.4867 40.3935V40.4929C48.0691 40.5876 48.597 40.8054 49.0705 41.1463C49.5487 41.4825 49.9275 41.9062 50.2069 42.4176C50.4909 42.9242 50.6354 43.4806 50.6401 44.0866C50.6354 44.8726 50.3915 45.5758 49.9086 46.196C49.4256 46.8163 48.758 47.3063 47.9057 47.6662C47.0582 48.0213 46.0875 48.1989 44.9938 48.1989ZM44.9938 45.9403C45.4815 45.9403 45.9076 45.8527 46.2722 45.6776C46.6368 45.4976 46.9209 45.2514 47.1245 44.9389C47.3328 44.6217 47.437 44.2571 47.437 43.8452C47.437 43.4238 47.3304 43.0521 47.1174 42.7301C46.9043 42.4034 46.6155 42.1477 46.2509 41.9631C45.8863 41.7737 45.4673 41.679 44.9938 41.679C44.525 41.679 44.106 41.7737 43.7367 41.9631C43.3674 42.1477 43.0762 42.4034 42.8631 42.7301C42.6548 43.0521 42.5506 43.4238 42.5506 43.8452C42.5506 44.2571 42.6524 44.6217 42.856 44.9389C43.0596 45.2514 43.3461 45.4976 43.7154 45.6776C44.0847 45.8527 44.5108 45.9403 44.9938 45.9403ZM44.9938 39.4418C45.401 39.4418 45.7632 39.3589 46.0804 39.1932C46.3977 39.0275 46.6462 38.7978 46.8262 38.5043C47.0061 38.2107 47.0961 37.8722 47.0961 37.4886C47.0961 37.1098 47.0061 36.7784 46.8262 36.4943C46.6462 36.2055 46.4 35.9806 46.0875 35.8196C45.775 35.6539 45.4105 35.571 44.9938 35.571C44.5819 35.571 44.2173 35.6539 43.9 35.8196C43.5828 35.9806 43.3342 36.2055 43.1543 36.4943C42.9791 36.7784 42.8915 37.1098 42.8915 37.4886C42.8915 37.8722 42.9815 38.2107 43.1614 38.5043C43.3413 38.7978 43.5899 39.0275 43.9071 39.1932C44.2244 39.3589 44.5866 39.4418 44.9938 39.4418Z" fill="black"/>
<path d="M19.7115 85V70.4545H22.7868V82.4645H29.0226V85H19.7115ZM31.0591 85V70.4545H40.8603V72.9901H34.1344V76.456H40.356V78.9915H34.1344V82.4645H40.8887V85H31.0591ZM45.8123 85H42.5169L47.5382 70.4545H51.5012L56.5154 85H53.22L49.5765 73.7784H49.4629L45.8123 85ZM45.6064 79.2827H53.3904V81.6832H45.6064V79.2827ZM63.4224 85H58.2662V70.4545H63.465C64.9281 70.4545 66.1876 70.7457 67.2434 71.3281C68.2993 71.9058 69.1113 72.7367 69.6795 73.821C70.2524 74.9053 70.5389 76.2027 70.5389 77.7131C70.5389 79.2282 70.2524 80.5303 69.6795 81.6193C69.1113 82.7083 68.2946 83.544 67.2292 84.1264C66.1686 84.7088 64.8997 85 63.4224 85ZM61.3414 82.3651H63.2946C64.2037 82.3651 64.9683 82.2041 65.5886 81.8821C66.2136 81.5554 66.6824 81.0511 66.9949 80.3693C67.3121 79.6828 67.4707 78.7973 67.4707 77.7131C67.4707 76.6383 67.3121 75.7599 66.9949 75.0781C66.6824 74.3963 66.216 73.8944 65.5957 73.5724C64.9754 73.2505 64.2108 73.0895 63.3017 73.0895H61.3414V82.3651Z" fill="black"/>
</svg>
