<svg width="90" height="90" viewBox="0 0 90 90" fill="none" xmlns="http://www.w3.org/2000/svg">
<path d="M73.4121 46.816L69.1008 39.3486L63.55 42.5534L67.8614 50.0207C68.9547 51.9144 68.2256 53.6012 67.8613 54.232C67.4971 54.8629 66.4139 56.3452 64.2273 56.3452H48.7304V53.1104L37.629 59.5198L48.7304 65.9292V62.6885H64.2273C68.0614 62.6885 71.4949 60.7241 73.412 57.4037C75.3291 54.0833 75.3291 50.1365 73.4121 46.816Z" fill="black"/>
<path d="M35.8144 13.5118L31.5031 20.9792L37.0537 24.1839L41.3651 16.7165C42.4584 14.8228 44.2707 14.6183 44.9991 14.6184C45.7275 14.6184 47.5398 14.8228 48.6332 16.7165L56.397 30.1639L53.6104 31.7663L64.7006 38.1757V25.3569L61.9365 26.9592L54.1782 13.5118C52.2612 10.1913 48.8304 8.20894 44.9963 8.20898C41.1621 8.20896 37.7314 10.1913 35.8144 13.5118Z" fill="black"/>
<path d="M25.7709 62.6884H34.4021V56.3451H25.7709C23.5843 56.3451 22.5011 54.8628 22.1369 54.232C21.7727 53.6012 21.0436 51.9219 22.1369 50.0282L29.9056 36.577L32.6857 38.1756V25.3568L21.5795 31.7662L24.3525 33.3686L16.5874 46.816C14.6703 50.1364 14.6697 54.0831 16.5868 57.4036C18.5038 60.7241 21.9368 62.6884 25.7709 62.6884Z" fill="black"/>
<path d="M44.8402 33.2557C45.5883 33.2557 46.308 33.3812 46.9993 33.6321C47.6953 33.883 48.3156 34.2831 48.8601 34.8324C49.4093 35.3816 49.8426 36.1108 50.1598 37.0199C50.4818 37.9242 50.6451 39.0346 50.6499 40.3509C50.6499 41.5866 50.5102 42.6899 50.2308 43.6605C49.9562 44.6264 49.5608 45.4479 49.0447 46.125C48.5286 46.8021 47.906 47.3182 47.1768 47.6733C46.4477 48.0237 45.6333 48.1989 44.7337 48.1989C43.763 48.1989 42.906 48.0118 42.1626 47.6378C41.4193 47.259 40.8203 46.7453 40.3658 46.0966C39.916 45.4432 39.6437 44.7093 39.549 43.8949H42.5817C42.7 44.4252 42.9486 44.8371 43.3274 45.1307C43.7062 45.4195 44.175 45.5639 44.7337 45.5639C45.6806 45.5639 46.4003 45.152 46.8928 44.3281C47.3852 43.4995 47.6338 42.3655 47.6385 40.9261H47.5391C47.3213 41.3523 47.0277 41.7192 46.6584 42.027C46.2891 42.33 45.8653 42.5644 45.3871 42.7301C44.9136 42.8958 44.4093 42.9787 43.8743 42.9787C43.0173 42.9787 42.2526 42.7775 41.5803 42.375C40.9079 41.9725 40.3776 41.4186 39.9893 40.7131C39.6011 40.0076 39.407 39.2027 39.407 38.2983C39.4022 37.3229 39.6271 36.4541 40.0817 35.6918C40.5362 34.9295 41.1707 34.3329 41.9851 33.902C42.8042 33.4664 43.7559 33.2509 44.8402 33.2557ZM44.8615 35.6705C44.3833 35.6705 43.9571 35.7841 43.5831 36.0114C43.2138 36.2386 42.9202 36.544 42.7024 36.9276C42.4893 37.3111 42.3852 37.7396 42.3899 38.2131C42.3899 38.6913 42.4941 39.1222 42.7024 39.5057C42.9155 39.8845 43.2043 40.1875 43.5689 40.4148C43.9382 40.6373 44.3596 40.7486 44.8331 40.7486C45.1882 40.7486 45.5173 40.6823 45.8203 40.5497C46.1233 40.4171 46.3861 40.2348 46.6087 40.0028C46.8359 39.7661 47.0135 39.4938 47.1413 39.1861C47.2692 38.8783 47.3331 38.5516 47.3331 38.206C47.3284 37.7467 47.2195 37.3253 47.0064 36.9418C46.7933 36.5582 46.4998 36.2505 46.1257 36.0185C45.7517 35.7865 45.3303 35.6705 44.8615 35.6705Z" fill="black"/>
<path d="M29.2225 85H25.927L30.9483 70.4545H34.9114L39.9256 85H36.6301L32.9867 73.7784H32.873L29.2225 85ZM29.0165 79.2827H36.8006V81.6832H29.0165V79.2827ZM41.6763 85V70.4545H44.7516V82.4645H50.9874V85H41.6763ZM53.024 85V70.4545H56.0993V76.8679H56.291L61.5254 70.4545H65.2115L59.8137 76.9673L65.2754 85H61.5964L57.612 79.0199L56.0993 80.8665V85H53.024Z" fill="black"/>
</svg>
