<svg width="90" height="90" viewBox="0 0 90 90" fill="none" xmlns="http://www.w3.org/2000/svg">
<path d="M73.4122 46.816L69.1009 39.3486L63.5502 42.5534L67.8615 50.0207C68.9548 51.9144 68.2257 53.6012 67.8614 54.232C67.4972 54.8629 66.4141 56.3452 64.2275 56.3452H48.7306V53.1104L37.6292 59.5198L48.7306 65.9292V62.6885H64.2275C68.0616 62.6885 71.4951 60.7241 73.4121 57.4037C75.3292 54.0833 75.3292 50.1365 73.4122 46.816Z" fill="black"/>
<path d="M35.8145 13.5118L31.5032 20.9792L37.0538 24.1839L41.3652 16.7165C42.4585 14.8228 44.2708 14.6183 44.9992 14.6184C45.7276 14.6184 47.5399 14.8228 48.6333 16.7165L56.3971 30.1639L53.6105 31.7663L64.7007 38.1757V25.3569L61.9366 26.9592L54.1784 13.5118C52.2613 10.1913 48.8305 8.20894 44.9964 8.20898C41.1623 8.20896 37.7315 10.1913 35.8145 13.5118Z" fill="black"/>
<path d="M25.7708 62.6884H34.402V56.3451H25.7708C23.5842 56.3451 22.501 54.8628 22.1368 54.232C21.7726 53.6012 21.0435 51.9219 22.1368 50.0282L29.9054 36.577L32.6856 38.1756V25.3568L21.5794 31.7662L24.3523 33.3686L16.5873 46.816C14.6702 50.1364 14.6696 54.0831 16.5867 57.4036C18.5037 60.7241 21.9367 62.6884 25.7708 62.6884Z" fill="black"/>
<path d="M42.7219 33.4545V48H39.6467V36.3736H39.5614L36.2305 38.4616V35.7344L39.8313 33.4545H42.7219ZM52.5071 33.4545V48H49.4318V36.3736H49.3466L46.0156 38.4616V35.7344L49.6165 33.4545H52.5071Z" fill="black"/>
<path d="M31.7409 70.4545V85H29.0847L22.7566 75.8452H22.65V85H19.5748V70.4545H22.2736L28.552 79.6023H28.6799V70.4545H31.7409ZM34.225 85V74.0909H37.2505V85H34.225ZM35.7449 72.6847C35.295 72.6847 34.9092 72.5355 34.5872 72.2372C34.2699 71.9342 34.1113 71.572 34.1113 71.1506C34.1113 70.7339 34.2699 70.3764 34.5872 70.0781C34.9092 69.7751 35.295 69.6236 35.7449 69.6236C36.1947 69.6236 36.5782 69.7751 36.8954 70.0781C37.2174 70.3764 37.3784 70.7339 37.3784 71.1506C37.3784 71.572 37.2174 71.9342 36.8954 72.2372C36.5782 72.5355 36.1947 72.6847 35.7449 72.6847ZM39.731 70.4545H43.5236L47.5293 80.2273H47.6998L51.7054 70.4545H55.498V85H52.5151V75.5327H52.3944L48.6301 84.929H46.5989L42.8347 75.4972H42.714V85H39.731V70.4545ZM58.0318 85V70.4545H61.1071V76.456H67.35V70.4545H70.4181V85H67.35V78.9915H61.1071V85H58.0318Z" fill="black"/>
</svg>
