<svg width="90" height="90" viewBox="0 0 90 90" fill="none" xmlns="http://www.w3.org/2000/svg">
<path d="M73.4122 46.816L69.1009 39.3486L63.5502 42.5534L67.8615 50.0207C68.9548 51.9144 68.2257 53.6012 67.8614 54.232C67.4972 54.8629 66.4141 56.3452 64.2275 56.3452H48.7306V53.1104L37.6292 59.5198L48.7306 65.9292V62.6885H64.2275C68.0616 62.6885 71.4951 60.7241 73.4121 57.4037C75.3292 54.0833 75.3292 50.1365 73.4122 46.816Z" fill="black"/>
<path d="M35.8145 13.5118L31.5032 20.9792L37.0538 24.1839L41.3652 16.7165C42.4585 14.8228 44.2708 14.6183 44.9992 14.6184C45.7276 14.6184 47.5399 14.8228 48.6333 16.7165L56.3971 30.1639L53.6105 31.7663L64.7007 38.1757V25.3569L61.9366 26.9592L54.1784 13.5118C52.2613 10.1913 48.8305 8.20894 44.9964 8.20898C41.1623 8.20896 37.7315 10.1913 35.8145 13.5118Z" fill="black"/>
<path d="M25.7708 62.6884H34.402V56.3451H25.7708C23.5842 56.3451 22.501 54.8628 22.1368 54.232C21.7726 53.6012 21.0435 51.9219 22.1368 50.0282L29.9054 36.577L32.6856 38.1756V25.3568L21.5794 31.7662L24.3523 33.3686L16.5873 46.816C14.6702 50.1364 14.6696 54.0831 16.5867 57.4036C18.5037 60.7241 21.9367 62.6884 25.7708 62.6884Z" fill="black"/>
<path d="M41.8157 33.4545V48H38.7404V36.3736H38.6552L35.3242 38.4616V35.7344L38.9251 33.4545H41.8157ZM45.2727 48V45.7841L50.4503 40.9901C50.8906 40.5639 51.2599 40.1804 51.5582 39.8395C51.8613 39.4986 52.0909 39.1648 52.2472 38.8381C52.4034 38.5066 52.4815 38.1491 52.4815 37.7656C52.4815 37.3395 52.3845 36.9725 52.1903 36.6648C51.9962 36.3523 51.7311 36.1132 51.3949 35.9474C51.0587 35.777 50.6776 35.6918 50.2514 35.6918C49.8063 35.6918 49.4181 35.7817 49.0866 35.9616C48.7552 36.1416 48.4995 36.3996 48.3196 36.7358C48.1397 37.072 48.0497 37.4721 48.0497 37.9361H45.1307C45.1307 36.9844 45.3461 36.1581 45.777 35.4574C46.2079 34.7566 46.8116 34.2145 47.5881 33.831C48.3646 33.4474 49.2595 33.2557 50.2727 33.2557C51.3144 33.2557 52.2211 33.4403 52.9929 33.8097C53.7694 34.1742 54.3731 34.6809 54.804 35.3295C55.2348 35.9782 55.4503 36.7216 55.4503 37.5597C55.4503 38.1089 55.3414 38.651 55.1236 39.1861C54.9105 39.7211 54.5294 40.3153 53.9801 40.9688C53.4309 41.6174 52.6567 42.3963 51.6577 43.3054L49.5341 45.3864V45.4858H55.642V48H45.2727Z" fill="black"/>
<path d="M38.3658 85V70.4545H41.4411V82.4645H47.6768V85H38.3658ZM49.6566 85V74.0909H52.6822V85H49.6566ZM51.1765 72.6847C50.7267 72.6847 50.3408 72.5355 50.0188 72.2372C49.7016 71.9342 49.543 71.572 49.543 71.1506C49.543 70.7339 49.7016 70.3764 50.0188 70.0781C50.3408 69.7751 50.7267 69.6236 51.1765 69.6236C51.6263 69.6236 52.0098 69.7751 52.3271 70.0781C52.649 70.3764 52.81 70.7339 52.81 71.1506C52.81 71.572 52.649 71.9342 52.3271 72.2372C52.0098 72.5355 51.6263 72.6847 51.1765 72.6847Z" fill="black"/>
</svg>
