<svg width="90" height="90" viewBox="0 0 90 90" fill="none" xmlns="http://www.w3.org/2000/svg">
<path d="M73.4121 46.816L69.1008 39.3486L63.55 42.5534L67.8614 50.0207C68.9547 51.9144 68.2256 53.6012 67.8613 54.232C67.4971 54.8629 66.4139 56.3452 64.2273 56.3452H48.7304V53.1104L37.629 59.5198L48.7304 65.9292V62.6885H64.2273C68.0614 62.6885 71.4949 60.7241 73.412 57.4037C75.3291 54.0833 75.3291 50.1365 73.4121 46.816Z" fill="black"/>
<path d="M35.8144 13.5118L31.5031 20.9792L37.0537 24.1839L41.3651 16.7165C42.4584 14.8228 44.2707 14.6183 44.9991 14.6184C45.7275 14.6184 47.5398 14.8228 48.6332 16.7165L56.397 30.1639L53.6104 31.7663L64.7006 38.1757V25.3569L61.9365 26.9592L54.1782 13.5118C52.2612 10.1913 48.8304 8.20894 44.9963 8.20898C41.1621 8.20896 37.7314 10.1913 35.8144 13.5118Z" fill="black"/>
<path d="M25.7709 62.6884H34.4021V56.3451H25.7709C23.5843 56.3451 22.5011 54.8628 22.1369 54.232C21.7727 53.6012 21.0436 51.9219 22.1369 50.0282L29.9056 36.577L32.6857 38.1756V25.3568L21.5795 31.7662L24.3525 33.3686L16.5874 46.816C14.6703 50.1364 14.6697 54.0831 16.5868 57.4036C18.5038 60.7241 21.9368 62.6884 25.7709 62.6884Z" fill="black"/>
<path d="M40.8372 33.4545V48H37.7619V36.3736H37.6767L34.3457 38.4616V35.7344L37.9466 33.4545H40.8372ZM44.074 45.4432V43.0213L50.1465 33.4545H52.2346V36.8068H50.9988L47.1706 42.8651V42.9787H55.7999V45.4432H44.074ZM51.0556 48V44.7045L51.1124 43.6321V33.4545H53.9959V48H51.0556Z" fill="black"/>
<path d="M45.4086 75.5469H42.2978C42.2409 75.1444 42.1249 74.7869 41.9498 74.4744C41.7746 74.1572 41.5497 73.8873 41.275 73.6648C41.0004 73.4422 40.6832 73.2718 40.3233 73.1534C39.9682 73.035 39.5823 72.9759 39.1657 72.9759C38.4128 72.9759 37.757 73.1629 37.1983 73.5369C36.6396 73.9062 36.2064 74.446 35.8986 75.1562C35.5909 75.8617 35.437 76.7187 35.437 77.7273C35.437 78.7642 35.5909 79.6354 35.8986 80.3409C36.2111 81.0464 36.6467 81.5791 37.2054 81.9389C37.7641 82.2988 38.4105 82.4787 39.1444 82.4787C39.5563 82.4787 39.9374 82.4242 40.2878 82.3153C40.6429 82.2064 40.9578 82.0478 41.2324 81.8395C41.507 81.6264 41.7343 81.3684 41.9142 81.0653C42.0989 80.7623 42.2267 80.4167 42.2978 80.0284L45.4086 80.0426C45.3281 80.7102 45.1268 81.3542 44.8049 81.9744C44.4876 82.59 44.0591 83.1416 43.5194 83.6293C42.9843 84.1122 42.3451 84.4957 41.6017 84.7798C40.8631 85.0592 40.0274 85.1989 39.0946 85.1989C37.7973 85.1989 36.6373 84.9053 35.6145 84.3182C34.5965 83.7311 33.7916 82.8812 33.1998 81.7685C32.6126 80.6558 32.3191 79.3087 32.3191 77.7273C32.3191 76.1411 32.6174 74.7917 33.214 73.679C33.8105 72.5663 34.6202 71.7187 35.6429 71.1364C36.6657 70.5492 37.8162 70.2557 39.0946 70.2557C39.9374 70.2557 40.7187 70.3741 41.4384 70.6108C42.1628 70.8475 42.8044 71.1932 43.3631 71.6477C43.9218 72.0975 44.3764 72.6491 44.7267 73.3026C45.0819 73.956 45.3091 74.7041 45.4086 75.5469ZM47.4576 85V83.1747L54.7161 72.9901H47.4434V70.4545H58.5797V72.2798L51.3141 82.4645H58.5939V85H47.4576Z" fill="black"/>
</svg>
