<svg width="90" height="90" viewBox="0 0 90 90" fill="none" xmlns="http://www.w3.org/2000/svg">
<path d="M73.4121 46.816L69.1008 39.3486L63.55 42.5534L67.8614 50.0207C68.9547 51.9144 68.2256 53.6012 67.8613 54.232C67.4971 54.8629 66.4139 56.3452 64.2273 56.3452H48.7304V53.1104L37.629 59.5198L48.7304 65.9292V62.6885H64.2273C68.0614 62.6885 71.4949 60.7241 73.412 57.4037C75.3291 54.0833 75.3291 50.1365 73.4121 46.816Z" fill="black"/>
<path d="M35.8144 13.5118L31.5031 20.9792L37.0537 24.1839L41.3651 16.7165C42.4584 14.8228 44.2707 14.6183 44.9991 14.6184C45.7275 14.6184 47.5398 14.8228 48.6332 16.7165L56.397 30.1639L53.6104 31.7663L64.7006 38.1757V25.3569L61.9365 26.9592L54.1782 13.5118C52.2612 10.1913 48.8304 8.20894 44.9963 8.20898C41.1621 8.20896 37.7314 10.1913 35.8144 13.5118Z" fill="black"/>
<path d="M25.7709 62.6884H34.4021V56.3451H25.7709C23.5843 56.3451 22.5011 54.8628 22.1369 54.232C21.7727 53.6012 21.0436 51.9219 22.1369 50.0282L29.9056 36.577L32.6857 38.1756V25.3568L21.5795 31.7662L24.3525 33.3686L16.5874 46.816C14.6703 50.1364 14.6697 54.0831 16.5868 57.4036C18.5038 60.7241 21.9368 62.6884 25.7709 62.6884Z" fill="black"/>
<path d="M32.2967 45.4432V43.0213L38.3691 33.4545H40.4572V36.8068H39.2214L35.3933 42.8651V42.9787H44.0226V45.4432H32.2967ZM39.2782 48V44.7045L39.335 43.6321V33.4545H42.2186V48H39.2782ZM51.7747 48.3196C50.5531 48.3149 49.502 48.0142 48.6213 47.4176C47.7453 46.821 47.0706 45.9569 46.5971 44.8253C46.1284 43.6937 45.8964 42.3324 45.9011 40.7415C45.9011 39.1553 46.1355 37.8035 46.6042 36.6861C47.0777 35.5687 47.7524 34.7187 48.6284 34.1364C49.5091 33.5492 50.5578 33.2557 51.7747 33.2557C52.9915 33.2557 54.0379 33.5492 54.9139 34.1364C55.7946 34.7235 56.4717 35.5758 56.9451 36.6932C57.4186 37.8059 57.653 39.1553 57.6483 40.7415C57.6483 42.3371 57.4115 43.7008 56.938 44.8324C56.4693 45.964 55.7969 46.8281 54.921 47.4247C54.045 48.0213 52.9963 48.3196 51.7747 48.3196ZM51.7747 45.7699C52.608 45.7699 53.2733 45.3509 53.7704 44.5128C54.2676 43.6747 54.5138 42.4176 54.5091 40.7415C54.5091 39.6383 54.3954 38.7197 54.1681 37.9858C53.9456 37.2519 53.6284 36.7003 53.2164 36.331C52.8092 35.9616 52.3287 35.777 51.7747 35.777C50.9461 35.777 50.2832 36.1913 49.786 37.0199C49.2889 37.8485 49.0379 39.089 49.0332 40.7415C49.0332 41.8589 49.1445 42.7917 49.367 43.5398C49.5943 44.2831 49.9139 44.8419 50.3258 45.2159C50.7377 45.5852 51.2207 45.7699 51.7747 45.7699Z" fill="black"/>
<path d="M34.2915 85V70.4545H43.9222V72.9901H37.3668V76.456H43.283V78.9915H37.3668V85H34.2915ZM45.9908 85V70.4545H55.7919V72.9901H49.0661V76.456H55.2876V78.9915H49.0661V82.4645H55.8203V85H45.9908Z" fill="black"/>
</svg>
