<svg width="90" height="90" viewBox="0 0 90 90" fill="none" xmlns="http://www.w3.org/2000/svg">
<path d="M73.4122 46.816L69.1009 39.3486L63.5502 42.5534L67.8615 50.0207C68.9548 51.9144 68.2257 53.6012 67.8614 54.232C67.4972 54.8629 66.4141 56.3452 64.2275 56.3452H48.7306V53.1104L37.6292 59.5198L48.7306 65.9292V62.6885H64.2275C68.0616 62.6885 71.4951 60.7241 73.4121 57.4037C75.3292 54.0833 75.3292 50.1365 73.4122 46.816Z" fill="black"/>
<path d="M35.8145 13.5118L31.5032 20.9792L37.0538 24.1839L41.3652 16.7165C42.4585 14.8228 44.2708 14.6183 44.9992 14.6184C45.7276 14.6184 47.5399 14.8228 48.6333 16.7165L56.3971 30.1639L53.6105 31.7663L64.7007 38.1757V25.3569L61.9366 26.9592L54.1784 13.5118C52.2613 10.1913 48.8305 8.20894 44.9964 8.20898C41.1623 8.20896 37.7315 10.1913 35.8145 13.5118Z" fill="black"/>
<path d="M25.7708 62.6884H34.402V56.3451H25.7708C23.5842 56.3451 22.501 54.8628 22.1368 54.232C21.7726 53.6012 21.0435 51.9219 22.1368 50.0282L29.9054 36.577L32.6856 38.1756V25.3568L21.5794 31.7662L24.3523 33.3686L16.5873 46.816C14.6702 50.1364 14.6696 54.0831 16.5867 57.4036C18.5037 60.7241 21.9367 62.6884 25.7708 62.6884Z" fill="black"/>
<path d="M38.6614 48.1989C37.6576 48.1989 36.7627 48.0142 35.9767 47.6449C35.1955 47.2756 34.5752 46.7666 34.1159 46.1179C33.6567 45.4692 33.4176 44.7259 33.3986 43.8878H36.3816C36.4147 44.4512 36.6515 44.9081 37.0918 45.2585C37.5321 45.6089 38.0553 45.7841 38.6614 45.7841C39.1444 45.7841 39.5705 45.6776 39.9398 45.4645C40.3139 45.2467 40.6051 44.946 40.8134 44.5625C41.0265 44.1742 41.133 43.7292 41.133 43.2273C41.133 42.7159 41.0241 42.2661 40.8063 41.8778C40.5932 41.4896 40.2973 41.1866 39.9185 40.9688C39.5397 40.7509 39.1065 40.6397 38.6188 40.6349C38.1926 40.6349 37.7784 40.7225 37.3759 40.8977C36.9782 41.0729 36.668 41.312 36.4455 41.6151L33.7111 41.125L34.4 33.4545H43.2921V35.9688H36.9355L36.5591 39.6122H36.6444C36.9 39.2524 37.2859 38.9541 37.802 38.7173C38.3181 38.4806 38.8958 38.3622 39.535 38.3622C40.4109 38.3622 41.1922 38.5682 41.8787 38.9801C42.5653 39.392 43.1074 39.9579 43.5051 40.6776C43.9029 41.3925 44.0994 42.2164 44.0946 43.1491C44.0994 44.1293 43.8721 45.0005 43.4128 45.7628C42.9583 46.5204 42.3214 47.117 41.5023 47.5526C40.6879 47.9834 39.7409 48.1989 38.6614 48.1989ZM51.9426 48.3196C50.7211 48.3149 49.6699 48.0142 48.7892 47.4176C47.9133 46.821 47.2386 45.9569 46.7651 44.8253C46.2963 43.6937 46.0643 42.3324 46.0691 40.7415C46.0691 39.1553 46.3034 37.8035 46.7722 36.6861C47.2457 35.5687 47.9204 34.7187 48.7963 34.1364C49.677 33.5492 50.7258 33.2557 51.9426 33.2557C53.1595 33.2557 54.2059 33.5492 55.0819 34.1364C55.9625 34.7235 56.6396 35.5758 57.1131 36.6932C57.5866 37.8059 57.821 39.1553 57.8162 40.7415C57.8162 42.3371 57.5795 43.7008 57.106 44.8324C56.6373 45.964 55.9649 46.8281 55.089 47.4247C54.213 48.0213 53.1642 48.3196 51.9426 48.3196ZM51.9426 45.7699C52.776 45.7699 53.4412 45.3509 53.9384 44.5128C54.4355 43.6747 54.6818 42.4176 54.677 40.7415C54.677 39.6383 54.5634 38.7197 54.3361 37.9858C54.1136 37.2519 53.7963 36.7003 53.3844 36.331C52.9772 35.9616 52.4966 35.777 51.9426 35.777C51.1141 35.777 50.4512 36.1913 49.954 37.0199C49.4569 37.8485 49.2059 39.089 49.2012 40.7415C49.2012 41.8589 49.3124 42.7917 49.535 43.5398C49.7623 44.2831 50.0819 44.8419 50.4938 45.2159C50.9057 45.5852 51.3887 45.7699 51.9426 45.7699Z" fill="black"/>
<path d="M26.5298 85V70.4545H36.1605V72.9901H29.6051V76.456H35.5213V78.9915H29.6051V85H26.5298ZM51.5955 77.7273C51.5955 79.3134 51.2949 80.6629 50.6935 81.7756C50.0969 82.8883 49.2826 83.7382 48.2504 84.3253C47.2229 84.9077 46.0676 85.1989 44.7844 85.1989C43.4918 85.1989 42.3318 84.9053 41.3043 84.3182C40.2769 83.7311 39.4648 82.8812 38.8683 81.7685C38.2717 80.6558 37.9734 79.3087 37.9734 77.7273C37.9734 76.1411 38.2717 74.7917 38.8683 73.679C39.4648 72.5663 40.2769 71.7187 41.3043 71.1364C42.3318 70.5492 43.4918 70.2557 44.7844 70.2557C46.0676 70.2557 47.2229 70.5492 48.2504 71.1364C49.2826 71.7187 50.0969 72.5663 50.6935 73.679C51.2949 74.7917 51.5955 76.1411 51.5955 77.7273ZM48.4776 77.7273C48.4776 76.6998 48.3237 75.8333 48.016 75.1278C47.7129 74.4223 47.2844 73.8873 46.7305 73.5227C46.1765 73.1581 45.5278 72.9759 44.7844 72.9759C44.0411 72.9759 43.3924 73.1581 42.8384 73.5227C42.2844 73.8873 41.8536 74.4223 41.5458 75.1278C41.2428 75.8333 41.0913 76.6998 41.0913 77.7273C41.0913 78.7547 41.2428 79.6212 41.5458 80.3267C41.8536 81.0322 42.2844 81.5672 42.8384 81.9318C43.3924 82.2964 44.0411 82.4787 44.7844 82.4787C45.5278 82.4787 46.1765 82.2964 46.7305 81.9318C47.2844 81.5672 47.7129 81.0322 48.016 80.3267C48.3237 79.6212 48.4776 78.7547 48.4776 77.7273ZM53.8736 85V70.4545H59.6122C60.7107 70.4545 61.6482 70.651 62.4247 71.044C63.206 71.4323 63.8002 71.9839 64.2074 72.6989C64.6193 73.4091 64.8253 74.2448 64.8253 75.206C64.8253 76.1719 64.617 77.0028 64.2003 77.6989C63.7836 78.3902 63.1799 78.9205 62.3892 79.2898C61.6032 79.6591 60.6515 79.8438 59.5341 79.8438H55.6918V77.3722H59.0369C59.6241 77.3722 60.1117 77.2917 60.5 77.1307C60.8883 76.9697 61.1771 76.7282 61.3665 76.4062C61.5606 76.0843 61.6577 75.6842 61.6577 75.206C61.6577 74.723 61.5606 74.3158 61.3665 73.9844C61.1771 73.6529 60.8859 73.402 60.4929 73.2315C60.1046 73.0563 59.6146 72.9688 59.0227 72.9688H56.9489V85H53.8736ZM61.7287 78.3807L65.3438 85H61.9489L58.4119 78.3807H61.7287Z" fill="black"/>
</svg>
