<svg width="90" height="90" viewBox="0 0 90 90" fill="none" xmlns="http://www.w3.org/2000/svg">
<path d="M73.4122 46.816L69.1009 39.3486L63.5502 42.5534L67.8615 50.0207C68.9548 51.9144 68.2257 53.6012 67.8614 54.232C67.4972 54.8629 66.4141 56.3452 64.2275 56.3452H48.7306V53.1104L37.6292 59.5198L48.7306 65.9292V62.6885H64.2275C68.0616 62.6885 71.4951 60.7241 73.4121 57.4037C75.3292 54.0833 75.3292 50.1365 73.4122 46.816Z" fill="black"/>
<path d="M35.8145 13.5118L31.5032 20.9792L37.0538 24.1839L41.3652 16.7165C42.4585 14.8228 44.2708 14.6183 44.9992 14.6184C45.7276 14.6184 47.5399 14.8228 48.6333 16.7165L56.3971 30.1639L53.6105 31.7663L64.7007 38.1757V25.3569L61.9366 26.9592L54.1784 13.5118C52.2613 10.1913 48.8305 8.20894 44.9964 8.20898C41.1623 8.20896 37.7315 10.1913 35.8145 13.5118Z" fill="black"/>
<path d="M25.7708 62.6884H34.402V56.3451H25.7708C23.5842 56.3451 22.501 54.8628 22.1368 54.232C21.7726 53.6012 21.0435 51.9219 22.1368 50.0282L29.9054 36.577L32.6856 38.1756V25.3568L21.5794 31.7662L24.3523 33.3686L16.5873 46.816C14.6702 50.1364 14.6696 54.0831 16.5867 57.4036C18.5037 60.7241 21.9367 62.6884 25.7708 62.6884Z" fill="black"/>
<path d="M40.6536 48.1989C39.6498 48.1989 38.7549 48.0142 37.9689 47.6449C37.1877 47.2756 36.5674 46.7666 36.1081 46.1179C35.6489 45.4692 35.4097 44.7259 35.3908 43.8878H38.3738C38.4069 44.4512 38.6436 44.9081 39.084 45.2585C39.5243 45.6089 40.0475 45.7841 40.6536 45.7841C41.1365 45.7841 41.5627 45.6776 41.932 45.4645C42.306 45.2467 42.5972 44.946 42.8056 44.5625C43.0186 44.1742 43.1252 43.7292 43.1252 43.2273C43.1252 42.7159 43.0163 42.2661 42.7985 41.8778C42.5854 41.4896 42.2895 41.1866 41.9107 40.9688C41.5319 40.7509 41.0987 40.6397 40.611 40.6349C40.1848 40.6349 39.7705 40.7225 39.3681 40.8977C38.9703 41.0729 38.6602 41.312 38.4377 41.6151L35.7033 41.125L36.3922 33.4545H45.2843V35.9688H38.9277L38.5513 39.6122H38.6365C38.8922 39.2524 39.2781 38.9541 39.7942 38.7173C40.3103 38.4806 40.888 38.3622 41.5272 38.3622C42.4031 38.3622 43.1844 38.5682 43.8709 38.9801C44.5575 39.392 45.0996 39.9579 45.4973 40.6776C45.8951 41.3925 46.0916 42.2164 46.0868 43.1491C46.0916 44.1293 45.8643 45.0005 45.405 45.7628C44.9505 46.5204 44.3136 47.117 43.4945 47.5526C42.6801 47.9834 41.7331 48.1989 40.6536 48.1989ZM54.5598 33.4545V48H51.4846V36.3736H51.3993L48.0684 38.4616V35.7344L51.6692 33.4545H54.5598Z" fill="black"/>
<path d="M26.5298 85V70.4545H36.1605V72.9901H29.6051V76.456H35.5213V78.9915H29.6051V85H26.5298ZM51.5955 77.7273C51.5955 79.3134 51.2949 80.6629 50.6935 81.7756C50.0969 82.8883 49.2826 83.7382 48.2504 84.3253C47.2229 84.9077 46.0676 85.1989 44.7844 85.1989C43.4918 85.1989 42.3318 84.9053 41.3043 84.3182C40.2769 83.7311 39.4648 82.8812 38.8683 81.7685C38.2717 80.6558 37.9734 79.3087 37.9734 77.7273C37.9734 76.1411 38.2717 74.7917 38.8683 73.679C39.4648 72.5663 40.2769 71.7187 41.3043 71.1364C42.3318 70.5492 43.4918 70.2557 44.7844 70.2557C46.0676 70.2557 47.2229 70.5492 48.2504 71.1364C49.2826 71.7187 50.0969 72.5663 50.6935 73.679C51.2949 74.7917 51.5955 76.1411 51.5955 77.7273ZM48.4776 77.7273C48.4776 76.6998 48.3237 75.8333 48.016 75.1278C47.7129 74.4223 47.2844 73.8873 46.7305 73.5227C46.1765 73.1581 45.5278 72.9759 44.7844 72.9759C44.0411 72.9759 43.3924 73.1581 42.8384 73.5227C42.2844 73.8873 41.8536 74.4223 41.5458 75.1278C41.2428 75.8333 41.0913 76.6998 41.0913 77.7273C41.0913 78.7547 41.2428 79.6212 41.5458 80.3267C41.8536 81.0322 42.2844 81.5672 42.8384 81.9318C43.3924 82.2964 44.0411 82.4787 44.7844 82.4787C45.5278 82.4787 46.1765 82.2964 46.7305 81.9318C47.2844 81.5672 47.7129 81.0322 48.016 80.3267C48.3237 79.6212 48.4776 78.7547 48.4776 77.7273ZM53.8736 85V70.4545H59.6122C60.7107 70.4545 61.6482 70.651 62.4247 71.044C63.206 71.4323 63.8002 71.9839 64.2074 72.6989C64.6193 73.4091 64.8253 74.2448 64.8253 75.206C64.8253 76.1719 64.617 77.0028 64.2003 77.6989C63.7836 78.3902 63.1799 78.9205 62.3892 79.2898C61.6032 79.6591 60.6515 79.8438 59.5341 79.8438H55.6918V77.3722H59.0369C59.6241 77.3722 60.1117 77.2917 60.5 77.1307C60.8883 76.9697 61.1771 76.7282 61.3665 76.4062C61.5606 76.0843 61.6577 75.6842 61.6577 75.206C61.6577 74.723 61.5606 74.3158 61.3665 73.9844C61.1771 73.6529 60.8859 73.402 60.4929 73.2315C60.1046 73.0563 59.6146 72.9688 59.0227 72.9688H56.9489V85H53.8736ZM61.7287 78.3807L65.3438 85H61.9489L58.4119 78.3807H61.7287Z" fill="black"/>
</svg>
