<svg width="90" height="90" viewBox="0 0 90 90" fill="none" xmlns="http://www.w3.org/2000/svg">
<path d="M73.4122 46.816L69.1009 39.3486L63.5502 42.5534L67.8615 50.0207C68.9548 51.9144 68.2257 53.6012 67.8614 54.232C67.4972 54.8629 66.4141 56.3452 64.2275 56.3452H48.7306V53.1104L37.6292 59.5198L48.7306 65.9292V62.6885H64.2275C68.0616 62.6885 71.4951 60.7241 73.4121 57.4037C75.3292 54.0833 75.3292 50.1365 73.4122 46.816Z" fill="black"/>
<path d="M35.8145 13.5118L31.5032 20.9792L37.0538 24.1839L41.3652 16.7165C42.4585 14.8228 44.2708 14.6183 44.9992 14.6184C45.7276 14.6184 47.5399 14.8228 48.6333 16.7165L56.3971 30.1639L53.6105 31.7663L64.7007 38.1757V25.3569L61.9366 26.9592L54.1784 13.5118C52.2613 10.1913 48.8305 8.20894 44.9964 8.20898C41.1623 8.20896 37.7315 10.1913 35.8145 13.5118Z" fill="black"/>
<path d="M25.7708 62.6884H34.402V56.3451H25.7708C23.5842 56.3451 22.501 54.8628 22.1368 54.232C21.7726 53.6012 21.0435 51.9219 22.1368 50.0282L29.9054 36.577L32.6856 38.1756V25.3568L21.5794 31.7662L24.3523 33.3686L16.5873 46.816C14.6702 50.1364 14.6696 54.0831 16.5867 57.4036C18.5037 60.7241 21.9367 62.6884 25.7708 62.6884Z" fill="black"/>
<path d="M40.7672 48.1989C40.0191 48.1941 39.2971 48.0687 38.601 47.8224C37.9097 47.5762 37.2895 47.1761 36.7402 46.6222C36.191 46.0682 35.7554 45.3343 35.4334 44.4205C35.1162 43.5066 34.9576 42.3845 34.9576 41.054C34.9623 39.8324 35.102 38.741 35.3766 37.7798C35.656 36.8139 36.0537 35.9948 36.5698 35.3224C37.0906 34.6501 37.7132 34.1387 38.4377 33.7884C39.1621 33.4332 39.9741 33.2557 40.8738 33.2557C41.8444 33.2557 42.7014 33.4451 43.4448 33.8239C44.1882 34.1979 44.7847 34.7069 45.2346 35.3509C45.6891 35.9948 45.9637 36.7169 46.0584 37.517H43.0257C42.9074 37.0104 42.6588 36.6127 42.28 36.3239C41.9012 36.035 41.4325 35.8906 40.8738 35.8906C39.9268 35.8906 39.2071 36.3026 38.7147 37.1264C38.227 37.9503 37.9784 39.0701 37.9689 40.4858H38.0684C38.2862 40.0549 38.5797 39.688 38.949 39.3849C39.3231 39.0772 39.7469 38.8428 40.2203 38.6818C40.6986 38.5161 41.2028 38.4332 41.7331 38.4332C42.5949 38.4332 43.3619 38.6368 44.0343 39.044C44.7066 39.4465 45.2369 40.0005 45.6252 40.706C46.0134 41.4115 46.2076 42.2187 46.2076 43.1278C46.2076 44.1127 45.9779 44.9886 45.5186 45.7557C45.0641 46.5227 44.4273 47.1241 43.6081 47.5597C42.7937 47.9905 41.8468 48.2036 40.7672 48.1989ZM40.753 45.7841C41.2265 45.7841 41.6503 45.6705 42.0243 45.4432C42.3984 45.2159 42.6919 44.9081 42.905 44.5199C43.1181 44.1316 43.2246 43.696 43.2246 43.2131C43.2246 42.7301 43.1181 42.2969 42.905 41.9134C42.6967 41.5298 42.4078 41.2244 42.0385 40.9972C41.6692 40.7699 41.2478 40.6562 40.7743 40.6562C40.4192 40.6562 40.0901 40.7225 39.7871 40.8551C39.4888 40.9877 39.226 41.1723 38.9988 41.4091C38.7762 41.6458 38.601 41.9205 38.4732 42.233C38.3453 42.5407 38.2814 42.8698 38.2814 43.2202C38.2814 43.6889 38.388 44.1174 38.601 44.5057C38.8188 44.8939 39.1124 45.2041 39.4817 45.4361C39.8558 45.6681 40.2795 45.7841 40.753 45.7841ZM54.7161 33.4545V48H51.6408V36.3736H51.5556L48.2246 38.4616V35.7344L51.8255 33.4545H54.7161Z" fill="black"/>
<path d="M25.7591 72.9901V70.4545H37.7051V72.9901H33.252V85H30.2122V72.9901H25.7591ZM39.6724 85V70.4545H49.4735V72.9901H42.7477V76.456H48.9693V78.9915H42.7477V82.4645H49.502V85H39.6724ZM54.802 70.4545L57.7353 75.4119H57.8489L60.7963 70.4545H64.2694L59.8304 77.7273L64.3688 85H60.8319L57.8489 80.0355H57.7353L54.7523 85H51.2296L55.7821 77.7273L51.3148 70.4545H54.802Z" fill="black"/>
</svg>
