<svg width="90" height="90" viewBox="0 0 90 90" fill="none" xmlns="http://www.w3.org/2000/svg">
<path d="M73.4121 46.816L69.1008 39.3486L63.55 42.5534L67.8614 50.0207C68.9547 51.9144 68.2256 53.6012 67.8613 54.232C67.4971 54.8629 66.4139 56.3452 64.2273 56.3452H48.7304V53.1104L37.629 59.5198L48.7304 65.9292V62.6885H64.2273C68.0614 62.6885 71.4949 60.7241 73.412 57.4037C75.3291 54.0833 75.3291 50.1365 73.4121 46.816Z" fill="black"/>
<path d="M35.8144 13.5118L31.5031 20.9792L37.0537 24.1839L41.3651 16.7165C42.4584 14.8228 44.2707 14.6183 44.9991 14.6184C45.7275 14.6184 47.5398 14.8228 48.6332 16.7165L56.397 30.1639L53.6104 31.7663L64.7006 38.1757V25.3569L61.9365 26.9592L54.1782 13.5118C52.2612 10.1913 48.8304 8.20894 44.9963 8.20898C41.1621 8.20896 37.7314 10.1913 35.8144 13.5118Z" fill="black"/>
<path d="M25.7709 62.6884H34.4021V56.3451H25.7709C23.5843 56.3451 22.5011 54.8628 22.1369 54.232C21.7727 53.6012 21.0436 51.9219 22.1369 50.0282L29.9056 36.577L32.6857 38.1756V25.3568L21.5795 31.7662L24.3525 33.3686L16.5874 46.816C14.6703 50.1364 14.6697 54.0831 16.5868 57.4036C18.5038 60.7241 21.9368 62.6884 25.7709 62.6884Z" fill="black"/>
<path d="M34.8812 48L40.911 36.0682V35.9688H33.8869V33.4545H44.0929V36.0043L38.0559 48H34.8812ZM51.2449 48.1989C50.1842 48.1989 49.2396 48.0166 48.411 47.652C47.5872 47.2827 46.9361 46.776 46.4579 46.1321C45.9844 45.4834 45.7406 44.7353 45.7264 43.8878H48.823C48.8419 44.2429 48.9579 44.5554 49.171 44.8253C49.3888 45.0904 49.6776 45.2964 50.0375 45.4432C50.3973 45.59 50.8021 45.6634 51.252 45.6634C51.7207 45.6634 52.135 45.5805 52.4949 45.4148C52.8547 45.2491 53.1364 45.0194 53.34 44.7259C53.5436 44.4323 53.6454 44.0937 53.6454 43.7102C53.6454 43.322 53.5365 42.9787 53.3187 42.6804C53.1056 42.3774 52.7979 42.1406 52.3954 41.9702C51.9977 41.7997 51.5242 41.7145 50.975 41.7145H49.6184V39.456H50.975C51.439 39.456 51.8485 39.3755 52.2037 39.2145C52.5635 39.0535 52.8429 38.831 53.0417 38.5469C53.2406 38.258 53.34 37.9219 53.34 37.5384C53.34 37.1738 53.2524 36.8542 53.0772 36.5795C52.9068 36.3002 52.6653 36.0824 52.3528 35.9261C52.045 35.7699 51.6852 35.6918 51.2733 35.6918C50.8566 35.6918 50.4754 35.7675 50.1298 35.919C49.7842 36.0658 49.5072 36.2765 49.2988 36.5511C49.0905 36.8258 48.9792 37.1477 48.965 37.517H46.0176C46.0318 36.679 46.2709 35.9403 46.7349 35.3011C47.1989 34.6619 47.8239 34.1624 48.6099 33.8026C49.4006 33.438 50.2931 33.2557 51.2875 33.2557C52.2913 33.2557 53.1696 33.438 53.9224 33.8026C54.6752 34.1671 55.26 34.6596 55.6767 35.2798C56.0981 35.8954 56.3064 36.5866 56.3017 37.3537C56.3064 38.1681 56.0531 38.8475 55.5417 39.392C55.0351 39.9366 54.3746 40.2822 53.5602 40.429V40.5426C54.6303 40.6799 55.4447 41.0516 56.0034 41.6577C56.5668 42.259 56.8462 43.0118 56.8414 43.9162C56.8462 44.7448 56.6071 45.4811 56.1241 46.125C55.6459 46.7689 54.9854 47.2756 54.1426 47.6449C53.2998 48.0142 52.3339 48.1989 51.2449 48.1989Z" fill="black"/>
<path d="M43.1278 75.1562C43.0284 74.8106 42.8887 74.5052 42.7088 74.2401C42.5289 73.9702 42.3087 73.7429 42.0483 73.5582C41.7926 73.3688 41.4991 73.2244 41.1676 73.125C40.8409 73.0256 40.4787 72.9759 40.081 72.9759C39.3376 72.9759 38.6842 73.1605 38.1207 73.5298C37.562 73.8991 37.1264 74.4366 36.8139 75.142C36.5014 75.8428 36.3452 76.6998 36.3452 77.7131C36.3452 78.7263 36.4991 79.5881 36.8068 80.2983C37.1146 81.0085 37.5502 81.5507 38.1136 81.9247C38.6771 82.294 39.3423 82.4787 40.1094 82.4787C40.8054 82.4787 41.3996 82.3556 41.892 82.1094C42.3892 81.8584 42.768 81.5057 43.0284 81.0511C43.2936 80.5966 43.4261 80.0592 43.4261 79.4389L44.0511 79.5312H40.3011V77.2159H46.3878V79.0483C46.3878 80.3267 46.1179 81.4252 45.5781 82.3438C45.0384 83.2576 44.295 83.9631 43.348 84.4602C42.401 84.9527 41.3168 85.1989 40.0952 85.1989C38.7315 85.1989 37.5336 84.8982 36.5014 84.2969C35.4692 83.6908 34.6643 82.8314 34.0866 81.7188C33.5137 80.6013 33.2273 79.2756 33.2273 77.7415C33.2273 76.5625 33.3977 75.5114 33.7386 74.5881C34.0843 73.66 34.5672 72.8741 35.1875 72.2301C35.8078 71.5862 36.5298 71.0961 37.3537 70.7599C38.1776 70.4238 39.0701 70.2557 40.0312 70.2557C40.8551 70.2557 41.6222 70.3764 42.3324 70.6179C43.0426 70.8546 43.6723 71.1908 44.2216 71.6264C44.7756 72.062 45.2277 72.5805 45.5781 73.1818C45.9285 73.7784 46.1534 74.4366 46.2528 75.1562H43.1278ZM48.6978 85V70.4545H51.7731V82.4645H58.0089V85H48.6978Z" fill="black"/>
</svg>
