<svg width="90" height="90" viewBox="0 0 90 90" fill="none" xmlns="http://www.w3.org/2000/svg">
<path d="M73.4122 46.816L69.1009 39.3486L63.5502 42.5534L67.8615 50.0207C68.9548 51.9144 68.2257 53.6012 67.8614 54.232C67.4972 54.8629 66.4141 56.3452 64.2275 56.3452H48.7306V53.1104L37.6292 59.5198L48.7306 65.9292V62.6885H64.2275C68.0616 62.6885 71.4951 60.7241 73.4121 57.4037C75.3292 54.0833 75.3292 50.1365 73.4122 46.816Z" fill="black"/>
<path d="M35.8145 13.5118L31.5032 20.9792L37.0538 24.1839L41.3652 16.7165C42.4585 14.8228 44.2708 14.6183 44.9992 14.6184C45.7276 14.6184 47.5399 14.8228 48.6333 16.7165L56.3971 30.1639L53.6105 31.7663L64.7007 38.1757V25.3569L61.9366 26.9592L54.1784 13.5118C52.2613 10.1913 48.8305 8.20894 44.9964 8.20898C41.1623 8.20896 37.7315 10.1913 35.8145 13.5118Z" fill="black"/>
<path d="M25.7708 62.6884H34.402V56.3451H25.7708C23.5842 56.3451 22.501 54.8628 22.1368 54.232C21.7726 53.6012 21.0435 51.9219 22.1368 50.0282L29.9054 36.577L32.6856 38.1756V25.3568L21.5794 31.7662L24.3523 33.3686L16.5873 46.816C14.6702 50.1364 14.6696 54.0831 16.5867 57.4036C18.5037 60.7241 21.9367 62.6884 25.7708 62.6884Z" fill="black"/>
<path d="M34.9593 48L40.9892 36.0682V35.9688H33.965V33.4545H44.171V36.0043L38.1341 48H34.9593ZM51.3958 48.1989C50.392 48.1989 49.4971 48.0142 48.7111 47.6449C47.9299 47.2756 47.3096 46.7666 46.8503 46.1179C46.391 45.4692 46.1519 44.7259 46.133 43.8878H49.1159C49.1491 44.4512 49.3858 44.9081 49.8262 45.2585C50.2665 45.6089 50.7897 45.7841 51.3958 45.7841C51.8787 45.7841 52.3049 45.6776 52.6742 45.4645C53.0482 45.2467 53.3394 44.946 53.5478 44.5625C53.7608 44.1742 53.8674 43.7292 53.8674 43.2273C53.8674 42.7159 53.7585 42.2661 53.5407 41.8778C53.3276 41.4896 53.0317 41.1866 52.6529 40.9688C52.2741 40.7509 51.8409 40.6397 51.3532 40.6349C50.927 40.6349 50.5127 40.7225 50.1103 40.8977C49.7125 41.0729 49.4024 41.312 49.1799 41.6151L46.4455 41.125L47.1344 33.4545H56.0265V35.9688H49.6699L49.2935 39.6122H49.3787C49.6344 39.2524 50.0203 38.9541 50.5364 38.7173C51.0525 38.4806 51.6301 38.3622 52.2694 38.3622C53.1453 38.3622 53.9266 38.5682 54.6131 38.9801C55.2997 39.392 55.8418 39.9579 56.2395 40.6776C56.6373 41.3925 56.8337 42.2164 56.829 43.1491C56.8337 44.1293 56.6065 45.0005 56.1472 45.7628C55.6926 46.5204 55.0558 47.117 54.2367 47.5526C53.4223 47.9834 52.4753 48.1989 51.3958 48.1989Z" fill="black"/>
<path d="M43.1278 75.1562C43.0284 74.8106 42.8887 74.5052 42.7088 74.2401C42.5289 73.9702 42.3087 73.7429 42.0483 73.5582C41.7926 73.3688 41.4991 73.2244 41.1676 73.125C40.8409 73.0256 40.4787 72.9759 40.081 72.9759C39.3376 72.9759 38.6842 73.1605 38.1207 73.5298C37.562 73.8991 37.1264 74.4366 36.8139 75.142C36.5014 75.8428 36.3452 76.6998 36.3452 77.7131C36.3452 78.7263 36.4991 79.5881 36.8068 80.2983C37.1146 81.0085 37.5502 81.5507 38.1136 81.9247C38.6771 82.294 39.3423 82.4787 40.1094 82.4787C40.8054 82.4787 41.3996 82.3556 41.892 82.1094C42.3892 81.8584 42.768 81.5057 43.0284 81.0511C43.2936 80.5966 43.4261 80.0592 43.4261 79.4389L44.0511 79.5312H40.3011V77.2159H46.3878V79.0483C46.3878 80.3267 46.1179 81.4252 45.5781 82.3438C45.0384 83.2576 44.295 83.9631 43.348 84.4602C42.401 84.9527 41.3168 85.1989 40.0952 85.1989C38.7315 85.1989 37.5336 84.8982 36.5014 84.2969C35.4692 83.6908 34.6643 82.8314 34.0866 81.7188C33.5137 80.6013 33.2273 79.2756 33.2273 77.7415C33.2273 76.5625 33.3977 75.5114 33.7386 74.5881C34.0843 73.66 34.5672 72.8741 35.1875 72.2301C35.8078 71.5862 36.5298 71.0961 37.3537 70.7599C38.1776 70.4238 39.0701 70.2557 40.0312 70.2557C40.8551 70.2557 41.6222 70.3764 42.3324 70.6179C43.0426 70.8546 43.6723 71.1908 44.2216 71.6264C44.7756 72.062 45.2277 72.5805 45.5781 73.1818C45.9285 73.7784 46.1534 74.4366 46.2528 75.1562H43.1278ZM48.6978 85V70.4545H51.7731V82.4645H58.0089V85H48.6978Z" fill="black"/>
</svg>
