<svg width="90" height="90" viewBox="0 0 90 90" fill="none" xmlns="http://www.w3.org/2000/svg">
<path d="M73.4122 46.816L69.1009 39.3486L63.5502 42.5534L67.8615 50.0207C68.9548 51.9144 68.2257 53.6012 67.8614 54.232C67.4972 54.8629 66.4141 56.3452 64.2275 56.3452H48.7306V53.1104L37.6292 59.5198L48.7306 65.9292V62.6885H64.2275C68.0616 62.6885 71.4951 60.7241 73.4121 57.4037C75.3292 54.0833 75.3292 50.1365 73.4122 46.816Z" fill="black"/>
<path d="M35.8145 13.5118L31.5032 20.9792L37.0538 24.1839L41.3652 16.7165C42.4585 14.8228 44.2708 14.6183 44.9992 14.6184C45.7276 14.6184 47.5399 14.8228 48.6333 16.7165L56.3971 30.1639L53.6105 31.7663L64.7007 38.1757V25.3569L61.9366 26.9592L54.1784 13.5118C52.2613 10.1913 48.8305 8.20894 44.9964 8.20898C41.1623 8.20896 37.7315 10.1913 35.8145 13.5118Z" fill="black"/>
<path d="M25.7708 62.6884H34.402V56.3451H25.7708C23.5842 56.3451 22.501 54.8628 22.1368 54.232C21.7726 53.6012 21.0435 51.9219 22.1368 50.0282L29.9054 36.577L32.6856 38.1756V25.3568L21.5794 31.7662L24.3523 33.3686L16.5873 46.816C14.6702 50.1364 14.6696 54.0831 16.5867 57.4036C18.5037 60.7241 21.9367 62.6884 25.7708 62.6884Z" fill="black"/>
<path d="M34.8617 48L40.8915 36.0682V35.9688H33.8674V33.4545H44.0733V36.0043L38.0364 48H34.8617ZM51.4508 48.1989C50.7027 48.1941 49.9806 48.0687 49.2846 47.8224C48.5933 47.5762 47.9731 47.1761 47.4238 46.6222C46.8746 46.0682 46.439 45.3343 46.117 44.4205C45.7998 43.5066 45.6412 42.3845 45.6412 41.054C45.6459 39.8324 45.7856 38.741 46.0602 37.7798C46.3395 36.8139 46.7373 35.9948 47.2534 35.3224C47.7742 34.6501 48.3968 34.1387 49.1213 33.7884C49.8457 33.4332 50.6577 33.2557 51.5574 33.2557C52.528 33.2557 53.385 33.4451 54.1284 33.8239C54.8717 34.1979 55.4683 34.7069 55.9181 35.3509C56.3727 35.9948 56.6473 36.7169 56.742 37.517H53.7093C53.591 37.0104 53.3424 36.6127 52.9636 36.3239C52.5848 36.035 52.1161 35.8906 51.5574 35.8906C50.6104 35.8906 49.8907 36.3026 49.3983 37.1264C48.9106 37.9503 48.662 39.0701 48.6525 40.4858H48.752C48.9698 40.0549 49.2633 39.688 49.6326 39.3849C50.0067 39.0772 50.4305 38.8428 50.9039 38.6818C51.3822 38.5161 51.8864 38.4332 52.4167 38.4332C53.2785 38.4332 54.0455 38.6368 54.7179 39.044C55.3902 39.4465 55.9205 40.0005 56.3088 40.706C56.697 41.4115 56.8912 42.2187 56.8912 43.1278C56.8912 44.1127 56.6615 44.9886 56.2022 45.7557C55.7477 46.5227 55.1109 47.1241 54.2917 47.5597C53.4773 47.9905 52.5304 48.2036 51.4508 48.1989ZM51.4366 45.7841C51.9101 45.7841 52.3339 45.6705 52.7079 45.4432C53.082 45.2159 53.3755 44.9081 53.5886 44.5199C53.8017 44.1316 53.9082 43.696 53.9082 43.2131C53.9082 42.7301 53.8017 42.2969 53.5886 41.9134C53.3803 41.5298 53.0914 41.2244 52.7221 40.9972C52.3528 40.7699 51.9314 40.6562 51.4579 40.6562C51.1028 40.6562 50.7737 40.7225 50.4707 40.8551C50.1724 40.9877 49.9096 41.1723 49.6824 41.4091C49.4598 41.6458 49.2846 41.9205 49.1568 42.233C49.0289 42.5407 48.965 42.8698 48.965 43.2202C48.965 43.6889 49.0716 44.1174 49.2846 44.5057C49.5024 44.8939 49.796 45.2041 50.1653 45.4361C50.5394 45.6681 50.9631 45.7841 51.4366 45.7841Z" fill="black"/>
<path d="M43.1278 75.1562C43.0284 74.8106 42.8887 74.5052 42.7088 74.2401C42.5289 73.9702 42.3087 73.7429 42.0483 73.5582C41.7926 73.3688 41.4991 73.2244 41.1676 73.125C40.8409 73.0256 40.4787 72.9759 40.081 72.9759C39.3376 72.9759 38.6842 73.1605 38.1207 73.5298C37.562 73.8991 37.1264 74.4366 36.8139 75.142C36.5014 75.8428 36.3452 76.6998 36.3452 77.7131C36.3452 78.7263 36.4991 79.5881 36.8068 80.2983C37.1146 81.0085 37.5502 81.5507 38.1136 81.9247C38.6771 82.294 39.3423 82.4787 40.1094 82.4787C40.8054 82.4787 41.3996 82.3556 41.892 82.1094C42.3892 81.8584 42.768 81.5057 43.0284 81.0511C43.2936 80.5966 43.4261 80.0592 43.4261 79.4389L44.0511 79.5312H40.3011V77.2159H46.3878V79.0483C46.3878 80.3267 46.1179 81.4252 45.5781 82.3438C45.0384 83.2576 44.295 83.9631 43.348 84.4602C42.401 84.9527 41.3168 85.1989 40.0952 85.1989C38.7315 85.1989 37.5336 84.8982 36.5014 84.2969C35.4692 83.6908 34.6643 82.8314 34.0866 81.7188C33.5137 80.6013 33.2273 79.2756 33.2273 77.7415C33.2273 76.5625 33.3977 75.5114 33.7386 74.5881C34.0843 73.66 34.5672 72.8741 35.1875 72.2301C35.8078 71.5862 36.5298 71.0961 37.3537 70.7599C38.1776 70.4238 39.0701 70.2557 40.0312 70.2557C40.8551 70.2557 41.6222 70.3764 42.3324 70.6179C43.0426 70.8546 43.6723 71.1908 44.2216 71.6264C44.7756 72.062 45.2277 72.5805 45.5781 73.1818C45.9285 73.7784 46.1534 74.4366 46.2528 75.1562H43.1278ZM48.6978 85V70.4545H51.7731V82.4645H58.0089V85H48.6978Z" fill="black"/>
</svg>
