<svg width="90" height="90" viewBox="0 0 90 90" fill="none" xmlns="http://www.w3.org/2000/svg">
<path d="M73.4122 46.816L69.1009 39.3486L63.5502 42.5534L67.8615 50.0207C68.9548 51.9144 68.2257 53.6012 67.8614 54.232C67.4972 54.8629 66.4141 56.3452 64.2275 56.3452H48.7306V53.1104L37.6292 59.5198L48.7306 65.9292V62.6885H64.2275C68.0616 62.6885 71.4951 60.7241 73.4121 57.4037C75.3292 54.0833 75.3292 50.1365 73.4122 46.816Z" fill="black"/>
<path d="M35.8145 13.5118L31.5032 20.9792L37.0538 24.1839L41.3652 16.7165C42.4585 14.8228 44.2708 14.6183 44.9992 14.6184C45.7276 14.6184 47.5399 14.8228 48.6333 16.7165L56.3971 30.1639L53.6105 31.7663L64.7007 38.1757V25.3569L61.9366 26.9592L54.1784 13.5118C52.2613 10.1913 48.8305 8.20894 44.9964 8.20898C41.1623 8.20896 37.7315 10.1913 35.8145 13.5118Z" fill="black"/>
<path d="M25.7708 62.6884H34.402V56.3451H25.7708C23.5842 56.3451 22.501 54.8628 22.1368 54.232C21.7726 53.6012 21.0435 51.9219 22.1368 50.0282L29.9054 36.577L32.6856 38.1756V25.3568L21.5794 31.7662L24.3523 33.3686L16.5873 46.816C14.6702 50.1364 14.6696 54.0831 16.5867 57.4036C18.5037 60.7241 21.9367 62.6884 25.7708 62.6884Z" fill="black"/>
<path d="M34.8031 48L40.8329 36.0682V35.9688H33.8088V33.4545H44.0147V36.0043L37.9778 48H34.8031ZM51.1898 33.2557C51.9379 33.2557 52.6576 33.3812 53.3489 33.6321C54.0449 33.883 54.6652 34.2831 55.2097 34.8324C55.7589 35.3816 56.1922 36.1108 56.5094 37.0199C56.8314 37.9242 56.9947 39.0346 56.9995 40.3509C56.9995 41.5866 56.8598 42.6899 56.5804 43.6605C56.3058 44.6264 55.9105 45.4479 55.3944 46.125C54.8783 46.8021 54.2556 47.3182 53.5265 47.6733C52.7973 48.0237 51.9829 48.1989 51.0833 48.1989C50.1126 48.1989 49.2556 48.0118 48.5123 47.6378C47.7689 47.259 47.1699 46.7453 46.7154 46.0966C46.2656 45.4432 45.9933 44.7093 45.8986 43.8949H48.9313C49.0497 44.4252 49.2982 44.8371 49.677 45.1307C50.0558 45.4195 50.5246 45.5639 51.0833 45.5639C52.0302 45.5639 52.7499 45.152 53.2424 44.3281C53.7348 43.4995 53.9834 42.3655 53.9881 40.9261H53.8887C53.6709 41.3523 53.3773 41.7192 53.008 42.027C52.6387 42.33 52.2149 42.5644 51.7367 42.7301C51.2632 42.8958 50.7589 42.9787 50.2239 42.9787C49.3669 42.9787 48.6022 42.7775 47.9299 42.375C47.2575 41.9725 46.7272 41.4186 46.339 40.7131C45.9507 40.0076 45.7566 39.2027 45.7566 38.2983C45.7518 37.3229 45.9767 36.4541 46.4313 35.6918C46.8858 34.9295 47.5203 34.3329 48.3347 33.902C49.1538 33.4664 50.1055 33.2509 51.1898 33.2557ZM51.2111 35.6705C50.7329 35.6705 50.3068 35.7841 49.9327 36.0114C49.5634 36.2386 49.2698 36.544 49.052 36.9276C48.839 37.3111 48.7348 37.7396 48.7395 38.2131C48.7395 38.6913 48.8437 39.1222 49.052 39.5057C49.2651 39.8845 49.5539 40.1875 49.9185 40.4148C50.2878 40.6373 50.7092 40.7486 51.1827 40.7486C51.5378 40.7486 51.8669 40.6823 52.1699 40.5497C52.473 40.4171 52.7357 40.2348 52.9583 40.0028C53.1855 39.7661 53.3631 39.4938 53.4909 39.1861C53.6188 38.8783 53.6827 38.5516 53.6827 38.206C53.678 37.7467 53.5691 37.3253 53.356 36.9418C53.1429 36.5582 52.8494 36.2505 52.4753 36.0185C52.1013 35.7865 51.6799 35.6705 51.2111 35.6705Z" fill="black"/>
<path d="M43.1278 75.1562C43.0284 74.8106 42.8887 74.5052 42.7088 74.2401C42.5289 73.9702 42.3087 73.7429 42.0483 73.5582C41.7926 73.3688 41.4991 73.2244 41.1676 73.125C40.8409 73.0256 40.4787 72.9759 40.081 72.9759C39.3376 72.9759 38.6842 73.1605 38.1207 73.5298C37.562 73.8991 37.1264 74.4366 36.8139 75.142C36.5014 75.8428 36.3452 76.6998 36.3452 77.7131C36.3452 78.7263 36.4991 79.5881 36.8068 80.2983C37.1146 81.0085 37.5502 81.5507 38.1136 81.9247C38.6771 82.294 39.3423 82.4787 40.1094 82.4787C40.8054 82.4787 41.3996 82.3556 41.892 82.1094C42.3892 81.8584 42.768 81.5057 43.0284 81.0511C43.2936 80.5966 43.4261 80.0592 43.4261 79.4389L44.0511 79.5312H40.3011V77.2159H46.3878V79.0483C46.3878 80.3267 46.1179 81.4252 45.5781 82.3438C45.0384 83.2576 44.295 83.9631 43.348 84.4602C42.401 84.9527 41.3168 85.1989 40.0952 85.1989C38.7315 85.1989 37.5336 84.8982 36.5014 84.2969C35.4692 83.6908 34.6643 82.8314 34.0866 81.7188C33.5137 80.6013 33.2273 79.2756 33.2273 77.7415C33.2273 76.5625 33.3977 75.5114 33.7386 74.5881C34.0843 73.66 34.5672 72.8741 35.1875 72.2301C35.8078 71.5862 36.5298 71.0961 37.3537 70.7599C38.1776 70.4238 39.0701 70.2557 40.0312 70.2557C40.8551 70.2557 41.6222 70.3764 42.3324 70.6179C43.0426 70.8546 43.6723 71.1908 44.2216 71.6264C44.7756 72.062 45.2277 72.5805 45.5781 73.1818C45.9285 73.7784 46.1534 74.4366 46.2528 75.1562H43.1278ZM48.6978 85V70.4545H51.7731V82.4645H58.0089V85H48.6978Z" fill="black"/>
</svg>
