<svg width="90" height="90" viewBox="0 0 90 90" fill="none" xmlns="http://www.w3.org/2000/svg">
<path d="M73.4121 46.816L69.1008 39.3486L63.55 42.5534L67.8614 50.0207C68.9547 51.9144 68.2256 53.6012 67.8613 54.232C67.4971 54.8629 66.4139 56.3452 64.2273 56.3452H48.7304V53.1104L37.629 59.5198L48.7304 65.9292V62.6885H64.2273C68.0614 62.6885 71.4949 60.7241 73.412 57.4037C75.3291 54.0833 75.3291 50.1365 73.4121 46.816Z" fill="black"/>
<path d="M35.8144 13.5118L31.5031 20.9792L37.0537 24.1839L41.3651 16.7165C42.4584 14.8228 44.2707 14.6183 44.9991 14.6184C45.7275 14.6184 47.5398 14.8228 48.6332 16.7165L56.397 30.1639L53.6104 31.7663L64.7006 38.1757V25.3569L61.9365 26.9592L54.1782 13.5118C52.2612 10.1913 48.8304 8.20894 44.9963 8.20898C41.1621 8.20896 37.7314 10.1913 35.8144 13.5118Z" fill="black"/>
<path d="M25.7709 62.6884H34.4021V56.3451H25.7709C23.5843 56.3451 22.5011 54.8628 22.1369 54.232C21.7727 53.6012 21.0436 51.9219 22.1369 50.0282L29.9056 36.577L32.6857 38.1756V25.3568L21.5795 31.7662L24.3525 33.3686L16.5874 46.816C14.6703 50.1364 14.6697 54.0831 16.5868 57.4036C18.5038 60.7241 21.9368 62.6884 25.7709 62.6884Z" fill="black"/>
<path d="M38.609 48.1989C37.5153 48.1989 36.5423 48.0213 35.69 47.6662C34.8424 47.3063 34.1772 46.8163 33.6942 46.196C33.2113 45.5758 32.9698 44.8726 32.9698 44.0866C32.9698 43.4806 33.1071 42.9242 33.3817 42.4176C33.6611 41.9062 34.0399 41.4825 34.5181 41.1463C34.9963 40.8054 35.5314 40.5876 36.1232 40.4929V40.3935C35.3467 40.2372 34.717 39.8608 34.234 39.2642C33.7511 38.6629 33.5096 37.9645 33.5096 37.169C33.5096 36.4162 33.7298 35.7462 34.1701 35.1591C34.6104 34.5672 35.2141 34.1032 35.9812 33.767C36.753 33.4261 37.6289 33.2557 38.609 33.2557C39.5891 33.2557 40.4627 33.4261 41.2298 33.767C42.0015 34.108 42.6076 34.5743 43.0479 35.1662C43.4883 35.7533 43.7108 36.4209 43.7156 37.169C43.7108 37.9692 43.4646 38.6676 42.9769 39.2642C42.4892 39.8608 41.8642 40.2372 41.1019 40.3935V40.4929C41.6843 40.5876 42.2122 40.8054 42.6857 41.1463C43.1639 41.4825 43.5427 41.9062 43.8221 42.4176C44.1062 42.9242 44.2506 43.4806 44.2553 44.0866C44.2506 44.8726 44.0067 45.5758 43.5238 46.196C43.0408 46.8163 42.3732 47.3063 41.521 47.6662C40.6734 48.0213 39.7028 48.1989 38.609 48.1989ZM38.609 45.9403C39.0967 45.9403 39.5228 45.8527 39.8874 45.6776C40.252 45.4976 40.5361 45.2514 40.7397 44.9389C40.948 44.6217 41.0522 44.2571 41.0522 43.8452C41.0522 43.4238 40.9457 43.0521 40.7326 42.7301C40.5195 42.4034 40.2307 42.1477 39.8661 41.9631C39.5015 41.7737 39.0825 41.679 38.609 41.679C38.1403 41.679 37.7212 41.7737 37.3519 41.9631C36.9826 42.1477 36.6914 42.4034 36.4783 42.7301C36.27 43.0521 36.1658 43.4238 36.1658 43.8452C36.1658 44.2571 36.2676 44.6217 36.4712 44.9389C36.6748 45.2514 36.9613 45.4976 37.3306 45.6776C37.6999 45.8527 38.1261 45.9403 38.609 45.9403ZM38.609 39.4418C39.0162 39.4418 39.3784 39.3589 39.6957 39.1932C40.0129 39.0275 40.2615 38.7978 40.4414 38.5043C40.6213 38.2107 40.7113 37.8722 40.7113 37.4886C40.7113 37.1098 40.6213 36.7784 40.4414 36.4943C40.2615 36.2055 40.0153 35.9806 39.7028 35.8196C39.3903 35.6539 39.0257 35.571 38.609 35.571C38.1971 35.571 37.8325 35.6539 37.5153 35.8196C37.198 35.9806 36.9495 36.2055 36.7695 36.4943C36.5943 36.7784 36.5067 37.1098 36.5067 37.4886C36.5067 37.8722 36.5967 38.2107 36.7766 38.5043C36.9566 38.7978 37.2051 39.0275 37.5224 39.1932C37.8396 39.3589 38.2018 39.4418 38.609 39.4418ZM52.1087 48.3196C50.8871 48.3149 49.8359 48.0142 48.9553 47.4176C48.0793 46.821 47.4046 45.9569 46.9311 44.8253C46.4624 43.6937 46.2304 42.3324 46.2351 40.7415C46.2351 39.1553 46.4695 37.8035 46.9382 36.6861C47.4117 35.5687 48.0864 34.7187 48.9624 34.1364C49.843 33.5492 50.8918 33.2557 52.1087 33.2557C53.3255 33.2557 54.3719 33.5492 55.2479 34.1364C56.1286 34.7235 56.8056 35.5758 57.2791 36.6932C57.7526 37.8059 57.987 39.1553 57.9822 40.7415C57.9822 42.3371 57.7455 43.7008 57.272 44.8324C56.8033 45.964 56.1309 46.8281 55.255 47.4247C54.379 48.0213 53.3303 48.3196 52.1087 48.3196ZM52.1087 45.7699C52.942 45.7699 53.6072 45.3509 54.1044 44.5128C54.6016 43.6747 54.8478 42.4176 54.843 40.7415C54.843 39.6383 54.7294 38.7197 54.5021 37.9858C54.2796 37.2519 53.9624 36.7003 53.5504 36.331C53.1432 35.9616 52.6626 35.777 52.1087 35.777C51.2801 35.777 50.6172 36.1913 50.12 37.0199C49.6229 37.8485 49.3719 39.089 49.3672 40.7415C49.3672 41.8589 49.4785 42.7917 49.701 43.5398C49.9283 44.2831 50.2479 44.8419 50.6598 45.2159C51.0717 45.5852 51.5547 45.7699 52.1087 45.7699Z" fill="black"/>
<path d="M17.7388 85V70.4545H23.4775C24.5807 70.4545 25.5205 70.6652 26.2971 71.0866C27.0736 71.5033 27.6654 72.0833 28.0726 72.8267C28.4846 73.5653 28.6905 74.4176 28.6905 75.3835C28.6905 76.3494 28.4822 77.2017 28.0655 77.9403C27.6489 78.679 27.0452 79.2543 26.2544 79.6662C25.4685 80.0781 24.5167 80.2841 23.3993 80.2841H19.7417V77.8196H22.9022C23.494 77.8196 23.9817 77.7178 24.3652 77.5142C24.7535 77.3059 25.0423 77.0194 25.2317 76.6548C25.4258 76.2855 25.5229 75.8617 25.5229 75.3835C25.5229 74.9006 25.4258 74.4792 25.2317 74.1193C25.0423 73.7547 24.7535 73.473 24.3652 73.2741C23.977 73.0705 23.4846 72.9688 22.888 72.9688H20.8141V85H17.7388ZM33.449 85.206C32.753 85.206 32.1328 85.0852 31.5882 84.8438C31.0437 84.5975 30.6129 84.2353 30.2956 83.7571C29.9831 83.2741 29.8269 82.6728 29.8269 81.9531C29.8269 81.3471 29.9382 80.8381 30.1607 80.4261C30.3832 80.0142 30.6863 79.6828 31.0698 79.4318C31.4533 79.1809 31.8889 78.9915 32.3766 78.8636C32.869 78.7358 33.3851 78.6458 33.9249 78.5938C34.5594 78.5275 35.0707 78.4659 35.459 78.4091C35.8472 78.3475 36.129 78.2576 36.3042 78.1392C36.4793 78.0208 36.5669 77.8456 36.5669 77.6136V77.571C36.5669 77.1212 36.4249 76.7732 36.1408 76.527C35.8614 76.2808 35.4637 76.1577 34.9476 76.1577C34.4031 76.1577 33.9699 76.2784 33.6479 76.5199C33.3259 76.7566 33.1129 77.0549 33.0087 77.4148L30.2104 77.1875C30.3525 76.5246 30.6318 75.9517 31.0485 75.4688C31.4651 74.9811 32.0025 74.607 32.6607 74.3466C33.3236 74.0814 34.0906 73.9489 34.9618 73.9489C35.5679 73.9489 36.1479 74.0199 36.7019 74.1619C37.2606 74.304 37.7554 74.5241 38.1863 74.8224C38.6219 75.1207 38.9651 75.5043 39.2161 75.973C39.467 76.437 39.5925 76.9934 39.5925 77.642V85H36.7232V83.4872H36.638C36.4628 83.8281 36.2284 84.1288 35.9348 84.3892C35.6413 84.6449 35.2885 84.8461 34.8766 84.9929C34.4647 85.1349 33.9888 85.206 33.449 85.206ZM34.3155 83.1179C34.7606 83.1179 35.1536 83.0303 35.4945 82.8551C35.8354 82.6752 36.1029 82.4337 36.2971 82.1307C36.4912 81.8277 36.5882 81.4844 36.5882 81.1009V79.9432C36.4935 80.0047 36.3633 80.0616 36.1976 80.1136C36.0366 80.161 35.8543 80.206 35.6507 80.2486C35.4471 80.2865 35.2435 80.322 35.04 80.3551C34.8364 80.3835 34.6517 80.4096 34.486 80.4332C34.1309 80.4853 33.8207 80.5682 33.5556 80.6818C33.2904 80.7955 33.0845 80.9493 32.9377 81.1435C32.7909 81.3329 32.7175 81.5696 32.7175 81.8537C32.7175 82.2656 32.8667 82.5805 33.165 82.7983C33.468 83.0114 33.8515 83.1179 34.3155 83.1179ZM41.9398 89.0909V74.0909H44.9228V75.9233H45.0577C45.1903 75.6297 45.382 75.3314 45.633 75.0284C45.8887 74.7206 46.2201 74.465 46.6273 74.2614C47.0392 74.053 47.5506 73.9489 48.1614 73.9489C48.9569 73.9489 49.6908 74.1572 50.3631 74.5739C51.0355 74.9858 51.5729 75.6084 51.9753 76.4418C52.3778 77.2704 52.579 78.3097 52.579 79.5597C52.579 80.7765 52.3825 81.804 51.9895 82.642C51.6013 83.4754 51.071 84.1075 50.3986 84.5384C49.731 84.9645 48.9829 85.1776 48.1543 85.1776C47.5672 85.1776 47.0676 85.0805 46.6557 84.8864C46.2485 84.6922 45.9147 84.4484 45.6543 84.1548C45.3939 83.8565 45.195 83.5559 45.0577 83.2528H44.9654V89.0909H41.9398ZM44.9015 79.5455C44.9015 80.1941 44.9914 80.7599 45.1713 81.2429C45.3513 81.7259 45.6117 82.1023 45.9526 82.3722C46.2935 82.6373 46.7078 82.7699 47.1955 82.7699C47.6879 82.7699 48.1046 82.6349 48.4455 82.3651C48.7864 82.0904 49.0444 81.7116 49.2196 81.2287C49.3996 80.741 49.4895 80.1799 49.4895 79.5455C49.4895 78.9157 49.4019 78.3617 49.2267 77.8835C49.0516 77.4053 48.7935 77.0312 48.4526 76.7614C48.1117 76.4915 47.6926 76.3565 47.1955 76.3565C46.7031 76.3565 46.2864 76.4867 45.9455 76.7472C45.6093 77.0076 45.3513 77.3769 45.1713 77.8551C44.9914 78.3333 44.9015 78.8968 44.9015 79.5455ZM59.5676 85.2131C58.4455 85.2131 57.4796 84.9858 56.6699 84.5312C55.865 84.072 55.2447 83.4233 54.8091 82.5852C54.3735 81.7424 54.1557 80.7457 54.1557 79.5952C54.1557 78.473 54.3735 77.4882 54.8091 76.6406C55.2447 75.7931 55.8579 75.1326 56.6486 74.6591C57.4441 74.1856 58.3768 73.9489 59.4469 73.9489C60.1666 73.9489 60.8366 74.0649 61.4569 74.2969C62.0819 74.5241 62.6264 74.8674 63.0904 75.3267C63.5591 75.786 63.9237 76.3636 64.1841 77.0597C64.4445 77.7509 64.5748 78.5606 64.5748 79.4886V80.3196H55.3631V78.4446H61.7267C61.7267 78.009 61.632 77.6231 61.4426 77.2869C61.2533 76.9508 60.9905 76.688 60.6543 76.4986C60.3229 76.3045 59.937 76.2074 59.4966 76.2074C59.0373 76.2074 58.6301 76.3139 58.275 76.527C57.9247 76.7353 57.65 77.017 57.4512 77.3722C57.2523 77.7225 57.1505 78.1132 57.1458 78.544V80.3267C57.1458 80.8665 57.2452 81.3329 57.4441 81.7259C57.6477 82.1188 57.9341 82.4219 58.3034 82.6349C58.6728 82.848 59.1107 82.9545 59.6174 82.9545C59.9535 82.9545 60.2613 82.9072 60.5407 82.8125C60.82 82.7178 61.0591 82.5758 61.258 82.3864C61.4569 82.197 61.6084 81.965 61.7125 81.6903L64.5108 81.875C64.3688 82.5473 64.0776 83.1345 63.6373 83.6364C63.2016 84.1335 62.6382 84.5218 61.9469 84.8011C61.2604 85.0758 60.4673 85.2131 59.5676 85.2131ZM66.5492 85V74.0909H69.4824V75.9943H69.5961C69.7949 75.3172 70.1287 74.8059 70.5975 74.4602C71.0662 74.1098 71.606 73.9347 72.2168 73.9347C72.3683 73.9347 72.5317 73.9441 72.7069 73.9631C72.882 73.982 73.0359 74.008 73.1685 74.0412V76.7259C73.0265 76.6832 72.83 76.6454 72.579 76.6122C72.3281 76.5791 72.0984 76.5625 71.8901 76.5625C71.445 76.5625 71.0473 76.6596 70.6969 76.8537C70.3513 77.0431 70.0766 77.3082 69.873 77.6491C69.6742 77.9901 69.5748 78.383 69.5748 78.8281V85H66.5492Z" fill="black"/>
</svg>
