<svg width="90" height="90" viewBox="0 0 90 90" fill="none" xmlns="http://www.w3.org/2000/svg">
<path d="M73.4121 46.816L69.1008 39.3486L63.55 42.5534L67.8614 50.0207C68.9547 51.9144 68.2256 53.6012 67.8613 54.232C67.4971 54.8629 66.4139 56.3452 64.2273 56.3452H48.7304V53.1104L37.629 59.5198L48.7304 65.9292V62.6885H64.2273C68.0614 62.6885 71.4949 60.7241 73.412 57.4037C75.3291 54.0833 75.3291 50.1365 73.4121 46.816Z" fill="black"/>
<path d="M35.8144 13.5118L31.5031 20.9792L37.0537 24.1839L41.3651 16.7165C42.4584 14.8228 44.2707 14.6183 44.9991 14.6184C45.7275 14.6184 47.5398 14.8228 48.6332 16.7165L56.397 30.1639L53.6104 31.7663L64.7006 38.1757V25.3569L61.9365 26.9592L54.1782 13.5118C52.2612 10.1913 48.8304 8.20894 44.9963 8.20898C41.1621 8.20896 37.7314 10.1913 35.8144 13.5118Z" fill="black"/>
<path d="M25.7709 62.6884H34.4021V56.3451H25.7709C23.5843 56.3451 22.5011 54.8628 22.1369 54.232C21.7727 53.6012 21.0436 51.9219 22.1369 50.0282L29.9056 36.577L32.6857 38.1756V25.3568L21.5795 31.7662L24.3525 33.3686L16.5874 46.816C14.6703 50.1364 14.6697 54.0831 16.5868 57.4036C18.5038 60.7241 21.9368 62.6884 25.7709 62.6884Z" fill="black"/>
<path d="M38.695 48.1989C37.6012 48.1989 36.6282 48.0213 35.7759 47.6662C34.9284 47.3063 34.2631 46.8163 33.7802 46.196C33.2972 45.5758 33.0558 44.8726 33.0558 44.0866C33.0558 43.4806 33.1931 42.9242 33.4677 42.4176C33.747 41.9062 34.1258 41.4825 34.604 41.1463C35.0823 40.8054 35.6173 40.5876 36.2092 40.4929V40.3935C35.4326 40.2372 34.8029 39.8608 34.32 39.2642C33.837 38.6629 33.5955 37.9645 33.5955 37.169C33.5955 36.4162 33.8157 35.7462 34.256 35.1591C34.6964 34.5672 35.3001 34.1032 36.0671 33.767C36.8389 33.4261 37.7148 33.2557 38.695 33.2557C39.6751 33.2557 40.5487 33.4261 41.3157 33.767C42.0875 34.108 42.6935 34.5743 43.1339 35.1662C43.5742 35.7533 43.7968 36.4209 43.8015 37.169C43.7968 37.9692 43.5505 38.6676 43.0629 39.2642C42.5752 39.8608 41.9502 40.2372 41.1879 40.3935V40.4929C41.7702 40.5876 42.2982 40.8054 42.7717 41.1463C43.2499 41.4825 43.6287 41.9062 43.908 42.4176C44.1921 42.9242 44.3365 43.4806 44.3413 44.0866C44.3365 44.8726 44.0927 45.5758 43.6097 46.196C43.1268 46.8163 42.4592 47.3063 41.6069 47.6662C40.7594 48.0213 39.7887 48.1989 38.695 48.1989ZM38.695 45.9403C39.1826 45.9403 39.6088 45.8527 39.9734 45.6776C40.338 45.4976 40.622 45.2514 40.8256 44.9389C41.034 44.6217 41.1381 44.2571 41.1381 43.8452C41.1381 43.4238 41.0316 43.0521 40.8185 42.7301C40.6055 42.4034 40.3166 42.1477 39.9521 41.9631C39.5875 41.7737 39.1684 41.679 38.695 41.679C38.2262 41.679 37.8072 41.7737 37.4379 41.9631C37.0685 42.1477 36.7773 42.4034 36.5643 42.7301C36.3559 43.0521 36.2518 43.4238 36.2518 43.8452C36.2518 44.2571 36.3536 44.6217 36.5572 44.9389C36.7608 45.2514 37.0472 45.4976 37.4165 45.6776C37.7859 45.8527 38.212 45.9403 38.695 45.9403ZM38.695 39.4418C39.1022 39.4418 39.4644 39.3589 39.7816 39.1932C40.0988 39.0275 40.3474 38.7978 40.5273 38.5043C40.7073 38.2107 40.7972 37.8722 40.7972 37.4886C40.7972 37.1098 40.7073 36.7784 40.5273 36.4943C40.3474 36.2055 40.1012 35.9806 39.7887 35.8196C39.4762 35.6539 39.1116 35.571 38.695 35.571C38.283 35.571 37.9184 35.6539 37.6012 35.8196C37.284 35.9806 37.0354 36.2055 36.8555 36.4943C36.6803 36.7784 36.5927 37.1098 36.5927 37.4886C36.5927 37.8722 36.6826 38.2107 36.8626 38.5043C37.0425 38.7978 37.2911 39.0275 37.6083 39.1932C37.9255 39.3589 38.2878 39.4418 38.695 39.4418ZM46.4915 48V45.7841L51.669 40.9901C52.1094 40.5639 52.4787 40.1804 52.777 39.8395C53.08 39.4986 53.3097 39.1648 53.4659 38.8381C53.6222 38.5066 53.7003 38.1491 53.7003 37.7656C53.7003 37.3395 53.6032 36.9725 53.4091 36.6648C53.215 36.3523 52.9498 36.1132 52.6136 35.9474C52.2775 35.777 51.8963 35.6918 51.4702 35.6918C51.0251 35.6918 50.6368 35.7817 50.3054 35.9616C49.974 36.1416 49.7183 36.3996 49.5384 36.7358C49.3584 37.072 49.2685 37.4721 49.2685 37.9361H46.3494C46.3494 36.9844 46.5649 36.1581 46.9957 35.4574C47.4266 34.7566 48.0303 34.2145 48.8068 33.831C49.5833 33.4474 50.4782 33.2557 51.4915 33.2557C52.5331 33.2557 53.4399 33.4403 54.2116 33.8097C54.9882 34.1742 55.5919 34.6809 56.0227 35.3295C56.4536 35.9782 56.669 36.7216 56.669 37.5597C56.669 38.1089 56.5601 38.651 56.3423 39.1861C56.1293 39.7211 55.7481 40.3153 55.1989 40.9688C54.6496 41.6174 53.8755 42.3963 52.8764 43.3054L50.7528 45.3864V45.4858H56.8608V48H46.4915Z" fill="black"/>
</svg>
