<svg width="90" height="90" viewBox="0 0 90 90" fill="none" xmlns="http://www.w3.org/2000/svg">
<path d="M73.4121 46.816L69.1008 39.3486L63.55 42.5534L67.8614 50.0207C68.9547 51.9144 68.2256 53.6012 67.8613 54.232C67.4971 54.8629 66.4139 56.3452 64.2273 56.3452H48.7304V53.1104L37.629 59.5198L48.7304 65.9292V62.6885H64.2273C68.0614 62.6885 71.4949 60.7241 73.412 57.4037C75.3291 54.0833 75.3291 50.1365 73.4121 46.816Z" fill="black"/>
<path d="M35.8144 13.5118L31.5031 20.9792L37.0537 24.1839L41.3651 16.7165C42.4584 14.8228 44.2707 14.6183 44.9991 14.6184C45.7275 14.6184 47.5398 14.8228 48.6332 16.7165L56.397 30.1639L53.6104 31.7663L64.7006 38.1757V25.3569L61.9365 26.9592L54.1782 13.5118C52.2612 10.1913 48.8304 8.20894 44.9963 8.20898C41.1621 8.20896 37.7314 10.1913 35.8144 13.5118Z" fill="black"/>
<path d="M25.7709 62.6884H34.4021V56.3451H25.7709C23.5843 56.3451 22.5011 54.8628 22.1369 54.232C21.7727 53.6012 21.0436 51.9219 22.1369 50.0282L29.9056 36.577L32.6857 38.1756V25.3568L21.5795 31.7662L24.3525 33.3686L16.5874 46.816C14.6703 50.1364 14.6697 54.0831 16.5868 57.4036C18.5038 60.7241 21.9368 62.6884 25.7709 62.6884Z" fill="black"/>
<path d="M38.902 48.1989C37.8082 48.1989 36.8352 48.0213 35.983 47.6662C35.1354 47.3063 34.4702 46.8163 33.9872 46.196C33.5043 45.5758 33.2628 44.8726 33.2628 44.0866C33.2628 43.4806 33.4001 42.9242 33.6747 42.4176C33.9541 41.9062 34.3329 41.4825 34.8111 41.1463C35.2893 40.8054 35.8243 40.5876 36.4162 40.4929V40.3935C35.6397 40.2372 35.0099 39.8608 34.527 39.2642C34.044 38.6629 33.8026 37.9645 33.8026 37.169C33.8026 36.4162 34.0227 35.7462 34.4631 35.1591C34.9034 34.5672 35.5071 34.1032 36.2741 33.767C37.0459 33.4261 37.9219 33.2557 38.902 33.2557C39.8821 33.2557 40.7557 33.4261 41.5227 33.767C42.2945 34.108 42.9006 34.5743 43.3409 35.1662C43.7813 35.7533 44.0038 36.4209 44.0085 37.169C44.0038 37.9692 43.7576 38.6676 43.2699 39.2642C42.7822 39.8608 42.1572 40.2372 41.3949 40.3935V40.4929C41.9773 40.5876 42.5052 40.8054 42.9787 41.1463C43.4569 41.4825 43.8357 41.9062 44.1151 42.4176C44.3991 42.9242 44.5436 43.4806 44.5483 44.0866C44.5436 44.8726 44.2997 45.5758 43.8168 46.196C43.3338 46.8163 42.6662 47.3063 41.8139 47.6662C40.9664 48.0213 39.9957 48.1989 38.902 48.1989ZM38.902 45.9403C39.3897 45.9403 39.8158 45.8527 40.1804 45.6776C40.545 45.4976 40.8291 45.2514 41.0327 44.9389C41.241 44.6217 41.3452 44.2571 41.3452 43.8452C41.3452 43.4238 41.2386 43.0521 41.0256 42.7301C40.8125 42.4034 40.5237 42.1477 40.1591 41.9631C39.7945 41.7737 39.3755 41.679 38.902 41.679C38.4332 41.679 38.0142 41.7737 37.6449 41.9631C37.2756 42.1477 36.9844 42.4034 36.7713 42.7301C36.563 43.0521 36.4588 43.4238 36.4588 43.8452C36.4588 44.2571 36.5606 44.6217 36.7642 44.9389C36.9678 45.2514 37.2543 45.4976 37.6236 45.6776C37.9929 45.8527 38.419 45.9403 38.902 45.9403ZM38.902 39.4418C39.3092 39.4418 39.6714 39.3589 39.9886 39.1932C40.3059 39.0275 40.5545 38.7978 40.7344 38.5043C40.9143 38.2107 41.0043 37.8722 41.0043 37.4886C41.0043 37.1098 40.9143 36.7784 40.7344 36.4943C40.5545 36.2055 40.3082 35.9806 39.9957 35.8196C39.6832 35.6539 39.3187 35.571 38.902 35.571C38.4901 35.571 38.1255 35.6539 37.8082 35.8196C37.491 35.9806 37.2424 36.2055 37.0625 36.4943C36.8873 36.7784 36.7997 37.1098 36.7997 37.4886C36.7997 37.8722 36.8897 38.2107 37.0696 38.5043C37.2495 38.7978 37.4981 39.0275 37.8153 39.1932C38.1326 39.3589 38.4948 39.4418 38.902 39.4418ZM52.0749 48.1989C51.0143 48.1989 50.0697 48.0166 49.2411 47.652C48.4173 47.2827 47.7662 46.776 47.288 46.1321C46.8145 45.4834 46.5707 44.7353 46.5565 43.8878H49.6531C49.672 44.2429 49.788 44.5554 50.0011 44.8253C50.2189 45.0904 50.5077 45.2964 50.8675 45.4432C51.2274 45.59 51.6322 45.6634 52.082 45.6634C52.5508 45.6634 52.9651 45.5805 53.3249 45.4148C53.6848 45.2491 53.9665 45.0194 54.1701 44.7259C54.3737 44.4323 54.4755 44.0937 54.4755 43.7102C54.4755 43.322 54.3666 42.9787 54.1488 42.6804C53.9357 42.3774 53.628 42.1406 53.2255 41.9702C52.8278 41.7997 52.3543 41.7145 51.805 41.7145H50.4485V39.456H51.805C52.2691 39.456 52.6786 39.3755 53.0337 39.2145C53.3936 39.0535 53.6729 38.831 53.8718 38.5469C54.0707 38.258 54.1701 37.9219 54.1701 37.5384C54.1701 37.1738 54.0825 36.8542 53.9073 36.5795C53.7369 36.3002 53.4954 36.0824 53.1829 35.9261C52.8751 35.7699 52.5153 35.6918 52.1033 35.6918C51.6867 35.6918 51.3055 35.7675 50.9599 35.919C50.6142 36.0658 50.3372 36.2765 50.1289 36.5511C49.9206 36.8258 49.8093 37.1477 49.7951 37.517H46.8477C46.8619 36.679 47.101 35.9403 47.565 35.3011C48.029 34.6619 48.654 34.1624 49.44 33.8026C50.2307 33.438 51.1232 33.2557 52.1175 33.2557C53.1213 33.2557 53.9996 33.438 54.7525 33.8026C55.5053 34.1671 56.0901 34.6596 56.5067 35.2798C56.9281 35.8954 57.1365 36.5866 57.1317 37.3537C57.1365 38.1681 56.8832 38.8475 56.3718 39.392C55.8652 39.9366 55.2047 40.2822 54.3903 40.429V40.5426C55.4603 40.6799 56.2747 41.0516 56.8335 41.6577C57.3969 42.259 57.6763 43.0118 57.6715 43.9162C57.6763 44.7448 57.4371 45.4811 56.9542 46.125C56.476 46.7689 55.8155 47.2756 54.9727 47.6449C54.1299 48.0142 53.1639 48.1989 52.0749 48.1989Z" fill="black"/>
</svg>
