<svg width="90" height="90" viewBox="0 0 90 90" fill="none" xmlns="http://www.w3.org/2000/svg">
<path d="M73.4122 46.816L69.1009 39.3486L63.5502 42.5534L67.8615 50.0207C68.9548 51.9144 68.2257 53.6012 67.8614 54.232C67.4972 54.8629 66.4141 56.3452 64.2275 56.3452H48.7306V53.1104L37.6292 59.5198L48.7306 65.9292V62.6885H64.2275C68.0616 62.6885 71.4951 60.7241 73.4121 57.4037C75.3292 54.0833 75.3292 50.1365 73.4122 46.816Z" fill="black"/>
<path d="M35.8145 13.5118L31.5032 20.9792L37.0538 24.1839L41.3652 16.7165C42.4585 14.8228 44.2708 14.6183 44.9992 14.6184C45.7276 14.6184 47.5399 14.8228 48.6333 16.7165L56.3971 30.1639L53.6105 31.7663L64.7007 38.1757V25.3569L61.9366 26.9592L54.1784 13.5118C52.2613 10.1913 48.8305 8.20894 44.9964 8.20898C41.1623 8.20896 37.7315 10.1913 35.8145 13.5118Z" fill="black"/>
<path d="M25.7708 62.6884H34.402V56.3451H25.7708C23.5842 56.3451 22.501 54.8628 22.1368 54.232C21.7726 53.6012 21.0435 51.9219 22.1368 50.0282L29.9054 36.577L32.6856 38.1756V25.3568L21.5794 31.7662L24.3523 33.3686L16.5873 46.816C14.6702 50.1364 14.6696 54.0831 16.5867 57.4036C18.5037 60.7241 21.9367 62.6884 25.7708 62.6884Z" fill="black"/>
<path d="M38.7164 48.1989C37.6227 48.1989 36.6497 48.0213 35.7974 47.6662C34.9499 47.3063 34.2846 46.8163 33.8017 46.196C33.3187 45.5758 33.0772 44.8726 33.0772 44.0866C33.0772 43.4806 33.2145 42.9242 33.4892 42.4176C33.7685 41.9062 34.1473 41.4825 34.6255 41.1463C35.1038 40.8054 35.6388 40.5876 36.2306 40.4929V40.3935C35.4541 40.2372 34.8244 39.8608 34.3414 39.2642C33.8585 38.6629 33.617 37.9645 33.617 37.169C33.617 36.4162 33.8372 35.7462 34.2775 35.1591C34.7179 34.5672 35.3216 34.1032 36.0886 33.767C36.8604 33.4261 37.7363 33.2557 38.7164 33.2557C39.6966 33.2557 40.5701 33.4261 41.3372 33.767C42.109 34.108 42.715 34.5743 43.1554 35.1662C43.5957 35.7533 43.8182 36.4209 43.823 37.169C43.8182 37.9692 43.572 38.6676 43.0843 39.2642C42.5967 39.8608 41.9717 40.2372 41.2093 40.3935V40.4929C41.7917 40.5876 42.3197 40.8054 42.7931 41.1463C43.2714 41.4825 43.6502 41.9062 43.9295 42.4176C44.2136 42.9242 44.358 43.4806 44.3627 44.0866C44.358 44.8726 44.1142 45.5758 43.6312 46.196C43.1483 46.8163 42.4806 47.3063 41.6284 47.6662C40.7808 48.0213 39.8102 48.1989 38.7164 48.1989ZM38.7164 45.9403C39.2041 45.9403 39.6303 45.8527 39.9949 45.6776C40.3594 45.4976 40.6435 45.2514 40.8471 44.9389C41.0555 44.6217 41.1596 44.2571 41.1596 43.8452C41.1596 43.4238 41.0531 43.0521 40.84 42.7301C40.627 42.4034 40.3381 42.1477 39.9735 41.9631C39.609 41.7737 39.1899 41.679 38.7164 41.679C38.2477 41.679 37.8287 41.7737 37.4593 41.9631C37.09 42.1477 36.7988 42.4034 36.5858 42.7301C36.3774 43.0521 36.2733 43.4238 36.2733 43.8452C36.2733 44.2571 36.3751 44.6217 36.5787 44.9389C36.7823 45.2514 37.0687 45.4976 37.438 45.6776C37.8074 45.8527 38.2335 45.9403 38.7164 45.9403ZM38.7164 39.4418C39.1236 39.4418 39.4859 39.3589 39.8031 39.1932C40.1203 39.0275 40.3689 38.7978 40.5488 38.5043C40.7288 38.2107 40.8187 37.8722 40.8187 37.4886C40.8187 37.1098 40.7288 36.7784 40.5488 36.4943C40.3689 36.2055 40.1227 35.9806 39.8102 35.8196C39.4977 35.6539 39.1331 35.571 38.7164 35.571C38.3045 35.571 37.9399 35.6539 37.6227 35.8196C37.3055 35.9806 37.0569 36.2055 36.877 36.4943C36.7018 36.7784 36.6142 37.1098 36.6142 37.4886C36.6142 37.8722 36.7041 38.2107 36.8841 38.5043C37.064 38.7978 37.3126 39.0275 37.6298 39.1932C37.947 39.3589 38.3092 39.4418 38.7164 39.4418ZM46.2928 45.4432V43.0213L52.3652 33.4545H54.4533V36.8068H53.2175L49.3894 42.8651V42.9787H58.0186V45.4432H46.2928ZM53.2743 48V44.7045L53.3311 43.6321V33.4545H56.2147V48H53.2743Z" fill="black"/>
<path d="M18.4439 85V70.4545H24.1825C25.2857 70.4545 26.2256 70.6652 27.0021 71.0866C27.7786 71.5033 28.3705 72.0833 28.7777 72.8267C29.1896 73.5653 29.3956 74.4176 29.3956 75.3835C29.3956 76.3494 29.1873 77.2017 28.7706 77.9403C28.3539 78.679 27.7502 79.2543 26.9595 79.6662C26.1735 80.0781 25.2218 80.2841 24.1044 80.2841H20.4467V77.8196H23.6072C24.1991 77.8196 24.6868 77.7178 25.0703 77.5142C25.4586 77.3059 25.7474 77.0194 25.9368 76.6548C26.1309 76.2855 26.228 75.8617 26.228 75.3835C26.228 74.9006 26.1309 74.4792 25.9368 74.1193C25.7474 73.7547 25.4586 73.473 25.0703 73.2741C24.6821 73.0705 24.1896 72.9688 23.593 72.9688H21.5192V85H18.4439ZM34.1541 85.206C33.4581 85.206 32.8378 85.0852 32.2933 84.8438C31.7488 84.5975 31.3179 84.2353 31.0007 83.7571C30.6882 83.2741 30.532 82.6728 30.532 81.9531C30.532 81.3471 30.6432 80.8381 30.8658 80.4261C31.0883 80.0142 31.3913 79.6828 31.7749 79.4318C32.1584 79.1809 32.594 78.9915 33.0817 78.8636C33.5741 78.7358 34.0902 78.6458 34.63 78.5938C35.2644 78.5275 35.7758 78.4659 36.1641 78.4091C36.5523 78.3475 36.834 78.2576 37.0092 78.1392C37.1844 78.0208 37.272 77.8456 37.272 77.6136V77.571C37.272 77.1212 37.13 76.7732 36.8459 76.527C36.5665 76.2808 36.1688 76.1577 35.6527 76.1577C35.1082 76.1577 34.675 76.2784 34.353 76.5199C34.031 76.7566 33.8179 77.0549 33.7138 77.4148L30.9155 77.1875C31.0575 76.5246 31.3369 75.9517 31.7536 75.4688C32.1702 74.9811 32.7076 74.607 33.3658 74.3466C34.0286 74.0814 34.7957 73.9489 35.6669 73.9489C36.273 73.9489 36.853 74.0199 37.407 74.1619C37.9657 74.304 38.4605 74.5241 38.8913 74.8224C39.3269 75.1207 39.6702 75.5043 39.9212 75.973C40.1721 76.437 40.2976 76.9934 40.2976 77.642V85H37.4283V83.4872H37.343C37.1679 83.8281 36.9335 84.1288 36.6399 84.3892C36.3464 84.6449 35.9936 84.8461 35.5817 84.9929C35.1697 85.1349 34.6939 85.206 34.1541 85.206ZM35.0206 83.1179C35.4657 83.1179 35.8587 83.0303 36.1996 82.8551C36.5405 82.6752 36.808 82.4337 37.0021 82.1307C37.1963 81.8277 37.2933 81.4844 37.2933 81.1009V79.9432C37.1986 80.0047 37.0684 80.0616 36.9027 80.1136C36.7417 80.161 36.5594 80.206 36.3558 80.2486C36.1522 80.2865 35.9486 80.322 35.745 80.3551C35.5414 80.3835 35.3568 80.4096 35.1911 80.4332C34.8359 80.4853 34.5258 80.5682 34.2607 80.6818C33.9955 80.7955 33.7895 80.9493 33.6428 81.1435C33.496 81.3329 33.4226 81.5696 33.4226 81.8537C33.4226 82.2656 33.5717 82.5805 33.87 82.7983C34.1731 83.0114 34.5566 83.1179 35.0206 83.1179ZM42.6449 89.0909V74.0909H45.6278V75.9233H45.7628C45.8954 75.6297 46.0871 75.3314 46.3381 75.0284C46.5938 74.7206 46.9252 74.465 47.3324 74.2614C47.7443 74.053 48.2557 73.9489 48.8665 73.9489C49.6619 73.9489 50.3958 74.1572 51.0682 74.5739C51.7405 74.9858 52.2779 75.6084 52.6804 76.4418C53.0829 77.2704 53.2841 78.3097 53.2841 79.5597C53.2841 80.7765 53.0876 81.804 52.6946 82.642C52.3063 83.4754 51.776 84.1075 51.1037 84.5384C50.4361 84.9645 49.688 85.1776 48.8594 85.1776C48.2723 85.1776 47.7727 85.0805 47.3608 84.8864C46.9536 84.6922 46.6198 84.4484 46.3594 84.1548C46.099 83.8565 45.9001 83.5559 45.7628 83.2528H45.6705V89.0909H42.6449ZM45.6065 79.5455C45.6065 80.1941 45.6965 80.7599 45.8764 81.2429C46.0563 81.7259 46.3168 82.1023 46.6577 82.3722C46.9986 82.6373 47.4129 82.7699 47.9006 82.7699C48.393 82.7699 48.8097 82.6349 49.1506 82.3651C49.4915 82.0904 49.7495 81.7116 49.9247 81.2287C50.1046 80.741 50.1946 80.1799 50.1946 79.5455C50.1946 78.9157 50.107 78.3617 49.9318 77.8835C49.7566 77.4053 49.4986 77.0312 49.1577 76.7614C48.8168 76.4915 48.3977 76.3565 47.9006 76.3565C47.4081 76.3565 46.9915 76.4867 46.6506 76.7472C46.3144 77.0076 46.0563 77.3769 45.8764 77.8551C45.6965 78.3333 45.6065 78.8968 45.6065 79.5455ZM57.1815 85H53.886L58.9073 70.4545H62.8704L67.8846 85H64.5891L60.9457 73.7784H60.832L57.1815 85ZM56.9755 79.2827H64.7596V81.6832H56.9755V79.2827ZM72.604 70.4545V85H69.5785V70.4545H72.604Z" fill="black"/>
</svg>
