<svg width="90" height="90" viewBox="0 0 90 90" fill="none" xmlns="http://www.w3.org/2000/svg">
<path d="M73.4122 46.816L69.1009 39.3486L63.5502 42.5534L67.8615 50.0207C68.9548 51.9144 68.2257 53.6012 67.8614 54.232C67.4972 54.8629 66.4141 56.3452 64.2275 56.3452H48.7306V53.1104L37.6292 59.5198L48.7306 65.9292V62.6885H64.2275C68.0616 62.6885 71.4951 60.7241 73.4121 57.4037C75.3292 54.0833 75.3292 50.1365 73.4122 46.816Z" fill="black"/>
<path d="M35.8145 13.5118L31.5032 20.9792L37.0538 24.1839L41.3652 16.7165C42.4585 14.8228 44.2708 14.6183 44.9992 14.6184C45.7276 14.6184 47.5399 14.8228 48.6333 16.7165L56.3971 30.1639L53.6105 31.7663L64.7007 38.1757V25.3569L61.9366 26.9592L54.1784 13.5118C52.2613 10.1913 48.8305 8.20894 44.9964 8.20898C41.1623 8.20896 37.7315 10.1913 35.8145 13.5118Z" fill="black"/>
<path d="M25.7708 62.6884H34.402V56.3451H25.7708C23.5842 56.3451 22.501 54.8628 22.1368 54.232C21.7726 53.6012 21.0435 51.9219 22.1368 50.0282L29.9054 36.577L32.6856 38.1756V25.3568L21.5794 31.7662L24.3523 33.3686L16.5873 46.816C14.6702 50.1364 14.6696 54.0831 16.5867 57.4036C18.5037 60.7241 21.9367 62.6884 25.7708 62.6884Z" fill="black"/>
<path d="M39.0485 48.1989C37.9547 48.1989 36.9817 48.0213 36.1294 47.6662C35.2819 47.3063 34.6167 46.8163 34.1337 46.196C33.6507 45.5758 33.4093 44.8726 33.4093 44.0866C33.4093 43.4806 33.5466 42.9242 33.8212 42.4176C34.1006 41.9062 34.4793 41.4825 34.9576 41.1463C35.4358 40.8054 35.9708 40.5876 36.5627 40.4929V40.3935C35.7862 40.2372 35.1564 39.8608 34.6735 39.2642C34.1905 38.6629 33.949 37.9645 33.949 37.169C33.949 36.4162 34.1692 35.7462 34.6096 35.1591C35.0499 34.5672 35.6536 34.1032 36.4206 33.767C37.1924 33.4261 38.0684 33.2557 39.0485 33.2557C40.0286 33.2557 40.9022 33.4261 41.6692 33.767C42.441 34.108 43.0471 34.5743 43.4874 35.1662C43.9277 35.7533 44.1503 36.4209 44.155 37.169C44.1503 37.9692 43.9041 38.6676 43.4164 39.2642C42.9287 39.8608 42.3037 40.2372 41.5414 40.3935V40.4929C42.1238 40.5876 42.6517 40.8054 43.1252 41.1463C43.6034 41.4825 43.9822 41.9062 44.2615 42.4176C44.5456 42.9242 44.69 43.4806 44.6948 44.0866C44.69 44.8726 44.4462 45.5758 43.9632 46.196C43.4803 46.8163 42.8127 47.3063 41.9604 47.6662C41.1129 48.0213 40.1422 48.1989 39.0485 48.1989ZM39.0485 45.9403C39.5362 45.9403 39.9623 45.8527 40.3269 45.6776C40.6915 45.4976 40.9756 45.2514 41.1792 44.9389C41.3875 44.6217 41.4917 44.2571 41.4917 43.8452C41.4917 43.4238 41.3851 43.0521 41.1721 42.7301C40.959 42.4034 40.6702 42.1477 40.3056 41.9631C39.941 41.7737 39.522 41.679 39.0485 41.679C38.5797 41.679 38.1607 41.7737 37.7914 41.9631C37.4221 42.1477 37.1309 42.4034 36.9178 42.7301C36.7095 43.0521 36.6053 43.4238 36.6053 43.8452C36.6053 44.2571 36.7071 44.6217 36.9107 44.9389C37.1143 45.2514 37.4007 45.4976 37.7701 45.6776C38.1394 45.8527 38.5655 45.9403 39.0485 45.9403ZM39.0485 39.4418C39.4557 39.4418 39.8179 39.3589 40.1351 39.1932C40.4524 39.0275 40.7009 38.7978 40.8809 38.5043C41.0608 38.2107 41.1507 37.8722 41.1507 37.4886C41.1507 37.1098 41.0608 36.7784 40.8809 36.4943C40.7009 36.2055 40.4547 35.9806 40.1422 35.8196C39.8297 35.6539 39.4651 35.571 39.0485 35.571C38.6365 35.571 38.272 35.6539 37.9547 35.8196C37.6375 35.9806 37.3889 36.2055 37.209 36.4943C37.0338 36.7784 36.9462 37.1098 36.9462 37.4886C36.9462 37.8722 37.0362 38.2107 37.2161 38.5043C37.396 38.7978 37.6446 39.0275 37.9618 39.1932C38.2791 39.3589 38.6413 39.4418 39.0485 39.4418ZM52.1575 48.1989C51.1537 48.1989 50.2588 48.0142 49.4728 47.6449C48.6916 47.2756 48.0713 46.7666 47.612 46.1179C47.1528 45.4692 46.9136 44.7259 46.8947 43.8878H49.8777C49.9108 44.4512 50.1475 44.9081 50.5879 45.2585C51.0282 45.6089 51.5514 45.7841 52.1575 45.7841C52.6404 45.7841 53.0666 45.6776 53.4359 45.4645C53.81 45.2467 54.1011 44.946 54.3095 44.5625C54.5226 44.1742 54.6291 43.7292 54.6291 43.2273C54.6291 42.7159 54.5202 42.2661 54.3024 41.8778C54.0893 41.4896 53.7934 41.1866 53.4146 40.9688C53.0358 40.7509 52.6026 40.6397 52.1149 40.6349C51.6887 40.6349 51.2744 40.7225 50.872 40.8977C50.4743 41.0729 50.1641 41.312 49.9416 41.6151L47.2072 41.125L47.8961 33.4545H56.7882V35.9688H50.4316L50.0552 39.6122H50.1404C50.3961 39.2524 50.782 38.9541 51.2981 38.7173C51.8142 38.4806 52.3919 38.3622 53.0311 38.3622C53.907 38.3622 54.6883 38.5682 55.3748 38.9801C56.0614 39.392 56.6035 39.9579 57.0012 40.6776C57.399 41.3925 57.5955 42.2164 57.5907 43.1491C57.5955 44.1293 57.3682 45.0005 56.9089 45.7628C56.4544 46.5204 55.8175 47.117 54.9984 47.5526C54.184 47.9834 53.237 48.1989 52.1575 48.1989Z" fill="black"/>
</svg>
