<svg width="90" height="90" viewBox="0 0 90 90" fill="none" xmlns="http://www.w3.org/2000/svg">
<path d="M73.4122 46.816L69.1009 39.3486L63.5502 42.5534L67.8615 50.0207C68.9548 51.9144 68.2257 53.6012 67.8614 54.232C67.4972 54.8629 66.4141 56.3452 64.2275 56.3452H48.7306V53.1104L37.6292 59.5198L48.7306 65.9292V62.6885H64.2275C68.0616 62.6885 71.4951 60.7241 73.4121 57.4037C75.3292 54.0833 75.3292 50.1365 73.4122 46.816Z" fill="black"/>
<path d="M35.8145 13.5118L31.5032 20.9792L37.0538 24.1839L41.3652 16.7165C42.4585 14.8228 44.2708 14.6183 44.9992 14.6184C45.7276 14.6184 47.5399 14.8228 48.6333 16.7165L56.3971 30.1639L53.6105 31.7663L64.7007 38.1757V25.3569L61.9366 26.9592L54.1784 13.5118C52.2613 10.1913 48.8305 8.20894 44.9964 8.20898C41.1623 8.20896 37.7315 10.1913 35.8145 13.5118Z" fill="black"/>
<path d="M25.7708 62.6884H34.402V56.3451H25.7708C23.5842 56.3451 22.501 54.8628 22.1368 54.232C21.7726 53.6012 21.0435 51.9219 22.1368 50.0282L29.9054 36.577L32.6856 38.1756V25.3568L21.5794 31.7662L24.3523 33.3686L16.5873 46.816C14.6702 50.1364 14.6696 54.0831 16.5867 57.4036C18.5037 60.7241 21.9367 62.6884 25.7708 62.6884Z" fill="black"/>
<path d="M39.0465 48.1989C37.9528 48.1989 36.9798 48.0213 36.1275 47.6662C35.2799 47.3063 34.6147 46.8163 34.1317 46.196C33.6488 45.5758 33.4073 44.8726 33.4073 44.0866C33.4073 43.4806 33.5446 42.9242 33.8192 42.4176C34.0986 41.9062 34.4774 41.4825 34.9556 41.1463C35.4338 40.8054 35.9689 40.5876 36.5607 40.4929V40.3935C35.7842 40.2372 35.1545 39.8608 34.6715 39.2642C34.1886 38.6629 33.9471 37.9645 33.9471 37.169C33.9471 36.4162 34.1673 35.7462 34.6076 35.1591C35.0479 34.5672 35.6516 34.1032 36.4187 33.767C37.1905 33.4261 38.0664 33.2557 39.0465 33.2557C40.0266 33.2557 40.9002 33.4261 41.6673 33.767C42.439 34.108 43.0451 34.5743 43.4854 35.1662C43.9258 35.7533 44.1483 36.4209 44.1531 37.169C44.1483 37.9692 43.9021 38.6676 43.4144 39.2642C42.9267 39.8608 42.3017 40.2372 41.5394 40.3935V40.4929C42.1218 40.5876 42.6497 40.8054 43.1232 41.1463C43.6014 41.4825 43.9802 41.9062 44.2596 42.4176C44.5437 42.9242 44.6881 43.4806 44.6928 44.0866C44.6881 44.8726 44.4442 45.5758 43.9613 46.196C43.4783 46.8163 42.8107 47.3063 41.9585 47.6662C41.1109 48.0213 40.1403 48.1989 39.0465 48.1989ZM39.0465 45.9403C39.5342 45.9403 39.9603 45.8527 40.3249 45.6776C40.6895 45.4976 40.9736 45.2514 41.1772 44.9389C41.3855 44.6217 41.4897 44.2571 41.4897 43.8452C41.4897 43.4238 41.3832 43.0521 41.1701 42.7301C40.957 42.4034 40.6682 42.1477 40.3036 41.9631C39.939 41.7737 39.52 41.679 39.0465 41.679C38.5778 41.679 38.1587 41.7737 37.7894 41.9631C37.4201 42.1477 37.1289 42.4034 36.9158 42.7301C36.7075 43.0521 36.6033 43.4238 36.6033 43.8452C36.6033 44.2571 36.7051 44.6217 36.9087 44.9389C37.1123 45.2514 37.3988 45.4976 37.7681 45.6776C38.1374 45.8527 38.5636 45.9403 39.0465 45.9403ZM39.0465 39.4418C39.4537 39.4418 39.8159 39.3589 40.1332 39.1932C40.4504 39.0275 40.699 38.7978 40.8789 38.5043C41.0588 38.2107 41.1488 37.8722 41.1488 37.4886C41.1488 37.1098 41.0588 36.7784 40.8789 36.4943C40.699 36.2055 40.4528 35.9806 40.1403 35.8196C39.8278 35.6539 39.4632 35.571 39.0465 35.571C38.6346 35.571 38.27 35.6539 37.9528 35.8196C37.6355 35.9806 37.387 36.2055 37.207 36.4943C37.0318 36.7784 36.9442 37.1098 36.9442 37.4886C36.9442 37.8722 37.0342 38.2107 37.2141 38.5043C37.3941 38.7978 37.6426 39.0275 37.9599 39.1932C38.2771 39.3589 38.6393 39.4418 39.0465 39.4418ZM47.4183 48L53.4482 36.0682V35.9688H46.424V33.4545H56.63V36.0043L50.593 48H47.4183Z" fill="black"/>
<path d="M39.3519 75.5469H36.2411C36.1843 75.1444 36.0683 74.7869 35.8931 74.4744C35.7179 74.1572 35.493 73.8873 35.2184 73.6648C34.9438 73.4422 34.6265 73.2718 34.2667 73.1534C33.9116 73.035 33.5257 72.9759 33.109 72.9759C32.3562 72.9759 31.7004 73.1629 31.1417 73.5369C30.583 73.9062 30.1497 74.446 29.842 75.1562C29.5342 75.8617 29.3803 76.7187 29.3803 77.7273C29.3803 78.7642 29.5342 79.6354 29.842 80.3409C30.1545 81.0464 30.5901 81.5791 31.1488 81.9389C31.7075 82.2988 32.3538 82.4787 33.0877 82.4787C33.4996 82.4787 33.8808 82.4242 34.2312 82.3153C34.5863 82.2064 34.9012 82.0478 35.1758 81.8395C35.4504 81.6264 35.6777 81.3684 35.8576 81.0653C36.0423 80.7623 36.1701 80.4167 36.2411 80.0284L39.3519 80.0426C39.2714 80.7102 39.0702 81.3542 38.7482 81.9744C38.431 82.59 38.0025 83.1416 37.4627 83.6293C36.9277 84.1122 36.2885 84.4957 35.5451 84.7798C34.8065 85.0592 33.9708 85.1989 33.038 85.1989C31.7406 85.1989 30.5806 84.9053 29.5579 84.3182C28.5399 83.7311 27.735 82.8812 27.1431 81.7685C26.556 80.6558 26.2624 79.3087 26.2624 77.7273C26.2624 76.1411 26.5607 74.7917 27.1573 73.679C27.7539 72.5663 28.5636 71.7187 29.5863 71.1364C30.609 70.5492 31.7596 70.2557 33.038 70.2557C33.8808 70.2557 34.6621 70.3741 35.3817 70.6108C36.1062 70.8475 36.7478 71.1932 37.3065 71.6477C37.8652 72.0975 38.3197 72.6491 38.6701 73.3026C39.0252 73.956 39.2525 74.7041 39.3519 75.5469ZM49.4478 74.6378C49.391 74.0649 49.1471 73.6198 48.7163 73.3026C48.2854 72.9853 47.7006 72.8267 46.962 72.8267C46.4601 72.8267 46.0363 72.8977 45.6907 73.0398C45.3451 73.1771 45.0799 73.3688 44.8952 73.6151C44.7153 73.8613 44.6254 74.1406 44.6254 74.4531C44.6159 74.7135 44.6703 74.9408 44.7887 75.1349C44.9118 75.3291 45.0799 75.4972 45.293 75.6392C45.506 75.7765 45.7522 75.8973 46.0316 76.0014C46.311 76.1009 46.6093 76.1861 46.9265 76.2571L48.2333 76.5696C48.8678 76.7116 49.4502 76.901 49.9805 77.1378C50.5108 77.3745 50.9701 77.6657 51.3583 78.0114C51.7466 78.357 52.0472 78.7642 52.2603 79.233C52.4781 79.7017 52.5894 80.2391 52.5941 80.8452C52.5894 81.7353 52.3621 82.5071 51.9123 83.1605C51.4672 83.8092 50.8233 84.3134 49.9805 84.6733C49.1424 85.0284 48.1315 85.206 46.9478 85.206C45.7736 85.206 44.7508 85.026 43.8796 84.6662C43.0131 84.3063 42.3361 83.7737 41.8484 83.0682C41.3654 82.358 41.1121 81.4796 41.0884 80.4332H44.0643C44.0974 80.9209 44.2371 81.3281 44.4833 81.6548C44.7343 81.9768 45.0681 82.2206 45.4847 82.3864C45.9061 82.5473 46.382 82.6278 46.9123 82.6278C47.4331 82.6278 47.8853 82.5521 48.2688 82.4006C48.6571 82.2491 48.9577 82.0384 49.1708 81.7685C49.3839 81.4986 49.4904 81.1884 49.4904 80.8381C49.4904 80.5114 49.3933 80.2367 49.1992 80.0142C49.0098 79.7917 48.7305 79.6023 48.3612 79.446C47.9966 79.2898 47.5491 79.1477 47.0188 79.0199L45.435 78.6222C44.2087 78.3239 43.2404 77.8575 42.5302 77.223C41.82 76.5885 41.4672 75.7339 41.4719 74.6591C41.4672 73.7784 41.7016 73.009 42.1751 72.3509C42.6533 71.6927 43.3091 71.179 44.1424 70.8097C44.9757 70.4403 45.9227 70.2557 46.9833 70.2557C48.0629 70.2557 49.0051 70.4403 49.81 70.8097C50.6197 71.179 51.2494 71.6927 51.6992 72.3509C52.149 73.009 52.381 73.7713 52.3952 74.6378H49.4478ZM54.6626 85V70.4545H57.7379V82.4645H63.9737V85H54.6626Z" fill="black"/>
</svg>
