<svg width="90" height="90" viewBox="0 0 90 90" fill="none" xmlns="http://www.w3.org/2000/svg">
<path d="M73.4122 46.816L69.1009 39.3486L63.5502 42.5534L67.8615 50.0207C68.9548 51.9144 68.2257 53.6012 67.8614 54.232C67.4972 54.8629 66.4141 56.3452 64.2275 56.3452H48.7306V53.1104L37.6292 59.5198L48.7306 65.9292V62.6885H64.2275C68.0616 62.6885 71.4951 60.7241 73.4121 57.4037C75.3292 54.0833 75.3292 50.1365 73.4122 46.816Z" fill="black"/>
<path d="M35.8145 13.5118L31.5032 20.9792L37.0538 24.1839L41.3652 16.7165C42.4585 14.8228 44.2708 14.6183 44.9992 14.6184C45.7276 14.6184 47.5399 14.8228 48.6333 16.7165L56.3971 30.1639L53.6105 31.7663L64.7007 38.1757V25.3569L61.9366 26.9592L54.1784 13.5118C52.2613 10.1913 48.8305 8.20894 44.9964 8.20898C41.1623 8.20896 37.7315 10.1913 35.8145 13.5118Z" fill="black"/>
<path d="M25.7708 62.6884H34.402V56.3451H25.7708C23.5842 56.3451 22.501 54.8628 22.1368 54.232C21.7726 53.6012 21.0435 51.9219 22.1368 50.0282L29.9054 36.577L32.6856 38.1756V25.3568L21.5794 31.7662L24.3523 33.3686L16.5873 46.816C14.6702 50.1364 14.6696 54.0831 16.5867 57.4036C18.5037 60.7241 21.9367 62.6884 25.7708 62.6884Z" fill="black"/>
<path d="M40.4476 33.2557C41.1957 33.2557 41.9154 33.3812 42.6067 33.6321C43.3027 33.883 43.923 34.2831 44.4675 34.8324C45.0167 35.3816 45.45 36.1108 45.7672 37.0199C46.0892 37.9242 46.2525 39.0346 46.2573 40.3509C46.2573 41.5866 46.1176 42.6899 45.8382 43.6605C45.5636 44.6264 45.1683 45.4479 44.6522 46.125C44.1361 46.8021 43.5134 47.3182 42.7843 47.6733C42.0551 48.0237 41.2407 48.1989 40.3411 48.1989C39.3704 48.1989 38.5134 48.0118 37.7701 47.6378C37.0267 47.259 36.4277 46.7453 35.9732 46.0966C35.5234 45.4432 35.2511 44.7093 35.1564 43.8949H38.1891C38.3075 44.4252 38.556 44.8371 38.9348 45.1307C39.3136 45.4195 39.7824 45.5639 40.3411 45.5639C41.2881 45.5639 42.0078 45.152 42.5002 44.3281C42.9926 43.4995 43.2412 42.3655 43.2459 40.9261H43.1465C42.9287 41.3523 42.6351 41.7192 42.2658 42.027C41.8965 42.33 41.4727 42.5644 40.9945 42.7301C40.521 42.8958 40.0167 42.9787 39.4817 42.9787C38.6247 42.9787 37.86 42.7775 37.1877 42.375C36.5153 41.9725 35.985 41.4186 35.5968 40.7131C35.2085 40.0076 35.0144 39.2027 35.0144 38.2983C35.0096 37.3229 35.2346 36.4541 35.6891 35.6918C36.1436 34.9295 36.7781 34.3329 37.5925 33.902C38.4116 33.4664 39.3633 33.2509 40.4476 33.2557ZM40.4689 35.6705C39.9907 35.6705 39.5646 35.7841 39.1905 36.0114C38.8212 36.2386 38.5276 36.544 38.3098 36.9276C38.0968 37.3111 37.9926 37.7396 37.9973 38.2131C37.9973 38.6913 38.1015 39.1222 38.3098 39.5057C38.5229 39.8845 38.8117 40.1875 39.1763 40.4148C39.5456 40.6373 39.967 40.7486 40.4405 40.7486C40.7956 40.7486 41.1247 40.6823 41.4277 40.5497C41.7308 40.4171 41.9935 40.2348 42.2161 40.0028C42.4434 39.7661 42.6209 39.4938 42.7488 39.1861C42.8766 38.8783 42.9405 38.5516 42.9405 38.206C42.9358 37.7467 42.8269 37.3253 42.6138 36.9418C42.4007 36.5582 42.1072 36.2505 41.7331 36.0185C41.3591 35.7865 40.9377 35.6705 40.4689 35.6705ZM54.7161 33.4545V48H51.6408V36.3736H51.5556L48.2246 38.4616V35.7344L51.8255 33.4545H54.7161Z" fill="black"/>
</svg>
