<svg width="90" height="90" viewBox="0 0 90 90" fill="none" xmlns="http://www.w3.org/2000/svg">
<path d="M73.4121 46.816L69.1008 39.3486L63.55 42.5534L67.8614 50.0207C68.9547 51.9144 68.2256 53.6012 67.8613 54.232C67.4971 54.8629 66.4139 56.3452 64.2273 56.3452H48.7304V53.1104L37.629 59.5198L48.7304 65.9292V62.6885H64.2273C68.0614 62.6885 71.4949 60.7241 73.412 57.4037C75.3291 54.0833 75.3291 50.1365 73.4121 46.816Z" fill="black"/>
<path d="M35.8144 13.5118L31.5031 20.9792L37.0537 24.1839L41.3651 16.7165C42.4584 14.8228 44.2707 14.6183 44.9991 14.6184C45.7275 14.6184 47.5398 14.8228 48.6332 16.7165L56.397 30.1639L53.6104 31.7663L64.7006 38.1757V25.3569L61.9365 26.9592L54.1782 13.5118C52.2612 10.1913 48.8304 8.20894 44.9963 8.20898C41.1621 8.20896 37.7314 10.1913 35.8144 13.5118Z" fill="black"/>
<path d="M25.7709 62.6884H34.4021V56.3451H25.7709C23.5843 56.3451 22.5011 54.8628 22.1369 54.232C21.7727 53.6012 21.0436 51.9219 22.1369 50.0282L29.9056 36.577L32.6857 38.1756V25.3568L21.5795 31.7662L24.3525 33.3686L16.5874 46.816C14.6703 50.1364 14.6697 54.0831 16.5868 57.4036C18.5038 60.7241 21.9368 62.6884 25.7709 62.6884Z" fill="black"/>
<path d="M38.5414 33.2557C39.2895 33.2557 40.0092 33.3812 40.7005 33.6321C41.3965 33.883 42.0167 34.2831 42.5613 34.8324C43.1105 35.3816 43.5437 36.1108 43.861 37.0199C44.1829 37.9242 44.3463 39.0346 44.351 40.3509C44.351 41.5866 44.2114 42.6899 43.932 43.6605C43.6574 44.6264 43.262 45.4479 42.7459 46.125C42.2298 46.8021 41.6072 47.3182 40.878 47.6733C40.1489 48.0237 39.3345 48.1989 38.4348 48.1989C37.4642 48.1989 36.6072 48.0118 35.8638 47.6378C35.1204 47.259 34.5215 46.7453 34.0669 46.0966C33.6171 45.4432 33.3449 44.7093 33.2502 43.8949H36.2828C36.4012 44.4252 36.6498 44.8371 37.0286 45.1307C37.4074 45.4195 37.8761 45.5639 38.4348 45.5639C39.3818 45.5639 40.1015 45.152 40.5939 44.3281C41.0864 43.4995 41.3349 42.3655 41.3397 40.9261H41.2402C41.0224 41.3523 40.7289 41.7192 40.3596 42.027C39.9902 42.33 39.5665 42.5644 39.0882 42.7301C38.6148 42.8958 38.1105 42.9787 37.5755 42.9787C36.7185 42.9787 35.9538 42.7775 35.2814 42.375C34.6091 41.9725 34.0788 41.4186 33.6905 40.7131C33.3023 40.0076 33.1081 39.2027 33.1081 38.2983C33.1034 37.3229 33.3283 36.4541 33.7828 35.6918C34.2374 34.9295 34.8719 34.3329 35.6863 33.902C36.5054 33.4664 37.4571 33.2509 38.5414 33.2557ZM38.5627 35.6705C38.0845 35.6705 37.6583 35.7841 37.2843 36.0114C36.915 36.2386 36.6214 36.544 36.4036 36.9276C36.1905 37.3111 36.0864 37.7396 36.0911 38.2131C36.0911 38.6913 36.1953 39.1222 36.4036 39.5057C36.6167 39.8845 36.9055 40.1875 37.2701 40.4148C37.6394 40.6373 38.0608 40.7486 38.5343 40.7486C38.8894 40.7486 39.2185 40.6823 39.5215 40.5497C39.8245 40.4171 40.0873 40.2348 40.3098 40.0028C40.5371 39.7661 40.7147 39.4938 40.8425 39.1861C40.9703 38.8783 41.0343 38.5516 41.0343 38.206C41.0295 37.7467 40.9206 37.3253 40.7076 36.9418C40.4945 36.5582 40.2009 36.2505 39.8269 36.0185C39.4528 35.7865 39.0314 35.6705 38.5627 35.6705ZM46.4817 48V45.7841L51.6593 40.9901C52.0996 40.5639 52.4689 40.1804 52.7672 39.8395C53.0703 39.4986 53.2999 39.1648 53.4561 38.8381C53.6124 38.5066 53.6905 38.1491 53.6905 37.7656C53.6905 37.3395 53.5935 36.9725 53.3993 36.6648C53.2052 36.3523 52.94 36.1132 52.6039 35.9474C52.2677 35.777 51.8865 35.6918 51.4604 35.6918C51.0153 35.6918 50.6271 35.7817 50.2956 35.9616C49.9642 36.1416 49.7085 36.3996 49.5286 36.7358C49.3487 37.072 49.2587 37.4721 49.2587 37.9361H46.3397C46.3397 36.9844 46.5551 36.1581 46.986 35.4574C47.4168 34.7566 48.0205 34.2145 48.7971 33.831C49.5736 33.4474 50.4685 33.2557 51.4817 33.2557C52.5234 33.2557 53.4301 33.4403 54.2019 33.8097C54.9784 34.1742 55.5821 34.6809 56.013 35.3295C56.4438 35.9782 56.6593 36.7216 56.6593 37.5597C56.6593 38.1089 56.5504 38.651 56.3326 39.1861C56.1195 39.7211 55.7383 40.3153 55.1891 40.9688C54.6399 41.6174 53.8657 42.3963 52.8667 43.3054L50.7431 45.3864V45.4858H56.851V48H46.4817Z" fill="black"/>
</svg>
