<svg width="90" height="90" viewBox="0 0 90 90" fill="none" xmlns="http://www.w3.org/2000/svg">
<path d="M73.4121 46.816L69.1008 39.3486L63.55 42.5534L67.8614 50.0207C68.9547 51.9144 68.2256 53.6012 67.8613 54.232C67.4971 54.8629 66.4139 56.3452 64.2273 56.3452H48.7304V53.1104L37.629 59.5198L48.7304 65.9292V62.6885H64.2273C68.0614 62.6885 71.4949 60.7241 73.412 57.4037C75.3291 54.0833 75.3291 50.1365 73.4121 46.816Z" fill="black"/>
<path d="M35.8144 13.5118L31.5031 20.9792L37.0537 24.1839L41.3651 16.7165C42.4584 14.8228 44.2707 14.6183 44.9991 14.6184C45.7275 14.6184 47.5398 14.8228 48.6332 16.7165L56.397 30.1639L53.6104 31.7663L64.7006 38.1757V25.3569L61.9365 26.9592L54.1782 13.5118C52.2612 10.1913 48.8304 8.20894 44.9963 8.20898C41.1621 8.20896 37.7314 10.1913 35.8144 13.5118Z" fill="black"/>
<path d="M25.7709 62.6884H34.4021V56.3451H25.7709C23.5843 56.3451 22.5011 54.8628 22.1369 54.232C21.7727 53.6012 21.0436 51.9219 22.1369 50.0282L29.9056 36.577L32.6857 38.1756V25.3568L21.5795 31.7662L24.3525 33.3686L16.5874 46.816C14.6703 50.1364 14.6697 54.0831 16.5868 57.4036C18.5038 60.7241 21.9368 62.6884 25.7709 62.6884Z" fill="black"/>
<path d="M38.8949 33.2557C39.643 33.2557 40.3627 33.3812 41.054 33.6321C41.75 33.883 42.3703 34.2831 42.9148 34.8324C43.464 35.3816 43.8973 36.1108 44.2145 37.0199C44.5365 37.9242 44.6998 39.0346 44.7045 40.3509C44.7045 41.5866 44.5649 42.6899 44.2855 43.6605C44.0109 44.6264 43.6155 45.4479 43.0994 46.125C42.5833 46.8021 41.9607 47.3182 41.2315 47.6733C40.5024 48.0237 39.688 48.1989 38.7884 48.1989C37.8177 48.1989 36.9607 48.0118 36.2173 47.6378C35.474 47.259 34.875 46.7453 34.4205 46.0966C33.9706 45.4432 33.6984 44.7093 33.6037 43.8949H36.6364C36.7547 44.4252 37.0033 44.8371 37.3821 45.1307C37.7609 45.4195 38.2296 45.5639 38.7884 45.5639C39.7353 45.5639 40.455 45.152 40.9474 44.3281C41.4399 43.4995 41.6884 42.3655 41.6932 40.9261H41.5938C41.3759 41.3523 41.0824 41.7192 40.7131 42.027C40.3438 42.33 39.92 42.5644 39.4418 42.7301C38.9683 42.8958 38.464 42.9787 37.929 42.9787C37.072 42.9787 36.3073 42.7775 35.6349 42.375C34.9626 41.9725 34.4323 41.4186 34.044 40.7131C33.6558 40.0076 33.4616 39.2027 33.4616 38.2983C33.4569 37.3229 33.6818 36.4541 34.1364 35.6918C34.5909 34.9295 35.2254 34.3329 36.0398 33.902C36.8589 33.4664 37.8106 33.2509 38.8949 33.2557ZM38.9162 35.6705C38.438 35.6705 38.0118 35.7841 37.6378 36.0114C37.2685 36.2386 36.9749 36.544 36.7571 36.9276C36.544 37.3111 36.4399 37.7396 36.4446 38.2131C36.4446 38.6913 36.5488 39.1222 36.7571 39.5057C36.9702 39.8845 37.259 40.1875 37.6236 40.4148C37.9929 40.6373 38.4143 40.7486 38.8878 40.7486C39.2429 40.7486 39.572 40.6823 39.875 40.5497C40.178 40.4171 40.4408 40.2348 40.6634 40.0028C40.8906 39.7661 41.0682 39.4938 41.196 39.1861C41.3239 38.8783 41.3878 38.5516 41.3878 38.206C41.383 37.7467 41.2741 37.3253 41.0611 36.9418C40.848 36.5582 40.5545 36.2505 40.1804 36.0185C39.8063 35.7865 39.3849 35.6705 38.9162 35.6705ZM52.1477 48.1989C51.1439 48.1989 50.2491 48.0142 49.4631 47.6449C48.6818 47.2756 48.0616 46.7666 47.6023 46.1179C47.143 45.4692 46.9039 44.7259 46.8849 43.8878H49.8679C49.901 44.4512 50.1378 44.9081 50.5781 45.2585C51.0185 45.6089 51.5417 45.7841 52.1477 45.7841C52.6307 45.7841 53.0568 45.6776 53.4261 45.4645C53.8002 45.2467 54.0914 44.946 54.2997 44.5625C54.5128 44.1742 54.6193 43.7292 54.6193 43.2273C54.6193 42.7159 54.5104 42.2661 54.2926 41.8778C54.0795 41.4896 53.7836 41.1866 53.4048 40.9688C53.026 40.7509 52.5928 40.6397 52.1051 40.6349C51.679 40.6349 51.2647 40.7225 50.8622 40.8977C50.4645 41.0729 50.1544 41.312 49.9318 41.6151L47.1974 41.125L47.8864 33.4545H56.7784V35.9688H50.4219L50.0455 39.6122H50.1307C50.3864 39.2524 50.7723 38.9541 51.2884 38.7173C51.8045 38.4806 52.3821 38.3622 53.0213 38.3622C53.8973 38.3622 54.6785 38.5682 55.3651 38.9801C56.0516 39.392 56.5938 39.9579 56.9915 40.6776C57.3892 41.3925 57.5857 42.2164 57.581 43.1491C57.5857 44.1293 57.3584 45.0005 56.8991 45.7628C56.4446 46.5204 55.8078 47.117 54.9886 47.5526C54.1742 47.9834 53.2273 48.1989 52.1477 48.1989Z" fill="black"/>
</svg>
