<svg width="90" height="90" viewBox="0 0 90 90" fill="none" xmlns="http://www.w3.org/2000/svg">
<path d="M73.4121 46.816L69.1008 39.3486L63.55 42.5534L67.8614 50.0207C68.9547 51.9144 68.2256 53.6012 67.8613 54.232C67.4971 54.8629 66.4139 56.3452 64.2273 56.3452H48.7304V53.1104L37.629 59.5198L48.7304 65.9292V62.6885H64.2273C68.0614 62.6885 71.4949 60.7241 73.412 57.4037C75.3291 54.0833 75.3291 50.1365 73.4121 46.816Z" fill="black"/>
<path d="M35.8144 13.5118L31.5031 20.9792L37.0537 24.1839L41.3651 16.7165C42.4584 14.8228 44.2707 14.6183 44.9991 14.6184C45.7275 14.6184 47.5398 14.8228 48.6332 16.7165L56.397 30.1639L53.6104 31.7663L64.7006 38.1757V25.3569L61.9365 26.9592L54.1782 13.5118C52.2612 10.1913 48.8304 8.20894 44.9963 8.20898C41.1621 8.20896 37.7314 10.1913 35.8144 13.5118Z" fill="black"/>
<path d="M25.7709 62.6884H34.4021V56.3451H25.7709C23.5843 56.3451 22.5011 54.8628 22.1369 54.232C21.7727 53.6012 21.0436 51.9219 22.1369 50.0282L29.9056 36.577L32.6857 38.1756V25.3568L21.5795 31.7662L24.3525 33.3686L16.5874 46.816C14.6703 50.1364 14.6697 54.0831 16.5868 57.4036C18.5038 60.7241 21.9368 62.6884 25.7709 62.6884Z" fill="black"/>
<path d="M38.7386 33.2557C39.4867 33.2557 40.2064 33.3812 40.8977 33.6321C41.5938 33.883 42.214 34.2831 42.7585 34.8324C43.3078 35.3816 43.741 36.1108 44.0582 37.0199C44.3802 37.9242 44.5436 39.0346 44.5483 40.3509C44.5483 41.5866 44.4086 42.6899 44.1293 43.6605C43.8546 44.6264 43.4593 45.4479 42.9432 46.125C42.4271 46.8021 41.8045 47.3182 41.0753 47.6733C40.3461 48.0237 39.5317 48.1989 38.6321 48.1989C37.6615 48.1989 36.8045 48.0118 36.0611 47.6378C35.3177 47.259 34.7188 46.7453 34.2642 46.0966C33.8144 45.4432 33.5421 44.7093 33.4474 43.8949H36.4801C36.5985 44.4252 36.8471 44.8371 37.2259 45.1307C37.6046 45.4195 38.0734 45.5639 38.6321 45.5639C39.5791 45.5639 40.2988 45.152 40.7912 44.3281C41.2836 43.4995 41.5322 42.3655 41.5369 40.9261H41.4375C41.2197 41.3523 40.9261 41.7192 40.5568 42.027C40.1875 42.33 39.7637 42.5644 39.2855 42.7301C38.812 42.8958 38.3078 42.9787 37.7727 42.9787C36.9157 42.9787 36.151 42.7775 35.4787 42.375C34.8063 41.9725 34.276 41.4186 33.8878 40.7131C33.4995 40.0076 33.3054 39.2027 33.3054 38.2983C33.3007 37.3229 33.5256 36.4541 33.9801 35.6918C34.4347 34.9295 35.0691 34.3329 35.8835 33.902C36.7027 33.4664 37.6544 33.2509 38.7386 33.2557ZM38.7599 35.6705C38.2817 35.6705 37.8556 35.7841 37.4815 36.0114C37.1122 36.2386 36.8187 36.544 36.6009 36.9276C36.3878 37.3111 36.2836 37.7396 36.2884 38.2131C36.2884 38.6913 36.3925 39.1222 36.6009 39.5057C36.8139 39.8845 37.1027 40.1875 37.4673 40.4148C37.8366 40.6373 38.258 40.7486 38.7315 40.7486C39.0866 40.7486 39.4157 40.6823 39.7188 40.5497C40.0218 40.4171 40.2846 40.2348 40.5071 40.0028C40.7344 39.7661 40.9119 39.4938 41.0398 39.1861C41.1676 38.8783 41.2315 38.5516 41.2315 38.206C41.2268 37.7467 41.1179 37.3253 40.9048 36.9418C40.6918 36.5582 40.3982 36.2505 40.0241 36.0185C39.6501 35.7865 39.2287 35.6705 38.7599 35.6705ZM52.2614 48.1989C51.5133 48.1941 50.7912 48.0687 50.0952 47.8224C49.4039 47.5762 48.7836 47.1761 48.2344 46.6222C47.6851 46.0682 47.2495 45.3343 46.9276 44.4205C46.6103 43.5066 46.4517 42.3845 46.4517 41.054C46.4564 39.8324 46.5961 38.741 46.8707 37.7798C47.1501 36.8139 47.5478 35.9948 48.0639 35.3224C48.5848 34.6501 49.2074 34.1387 49.9318 33.7884C50.6563 33.4332 51.4683 33.2557 52.3679 33.2557C53.3385 33.2557 54.1955 33.4451 54.9389 33.8239C55.6823 34.1979 56.2789 34.7069 56.7287 35.3509C57.1832 35.9948 57.4579 36.7169 57.5526 37.517H54.5199C54.4015 37.0104 54.1529 36.6127 53.7741 36.3239C53.3954 36.035 52.9266 35.8906 52.3679 35.8906C51.4209 35.8906 50.7012 36.3026 50.2088 37.1264C49.7211 37.9503 49.4725 39.0701 49.4631 40.4858H49.5625C49.7803 40.0549 50.0739 39.688 50.4432 39.3849C50.8172 39.0772 51.241 38.8428 51.7145 38.6818C52.1927 38.5161 52.697 38.4332 53.2273 38.4332C54.089 38.4332 54.8561 38.6368 55.5284 39.044C56.2008 39.4465 56.7311 40.0005 57.1193 40.706C57.5076 41.4115 57.7017 42.2187 57.7017 43.1278C57.7017 44.1127 57.4721 44.9886 57.0128 45.7557C56.5582 46.5227 55.9214 47.1241 55.1023 47.5597C54.2879 47.9905 53.3409 48.2036 52.2614 48.1989ZM52.2472 45.7841C52.7206 45.7841 53.1444 45.6705 53.5185 45.4432C53.8925 45.2159 54.1861 44.9081 54.3991 44.5199C54.6122 44.1316 54.7188 43.696 54.7188 43.2131C54.7188 42.7301 54.6122 42.2969 54.3991 41.9134C54.1908 41.5298 53.902 41.2244 53.5327 40.9972C53.1634 40.7699 52.742 40.6562 52.2685 40.6562C51.9134 40.6562 51.5843 40.7225 51.2812 40.8551C50.983 40.9877 50.7202 41.1723 50.4929 41.4091C50.2704 41.6458 50.0952 41.9205 49.9673 42.233C49.8395 42.5407 49.7756 42.8698 49.7756 43.2202C49.7756 43.6889 49.8821 44.1174 50.0952 44.5057C50.313 44.8939 50.6065 45.2041 50.9759 45.4361C51.3499 45.6681 51.7737 45.7841 52.2472 45.7841Z" fill="black"/>
</svg>
