<svg width="90" height="90" viewBox="0 0 90 90" fill="none" xmlns="http://www.w3.org/2000/svg">
<path d="M73.4121 46.816L69.1008 39.3486L63.55 42.5534L67.8614 50.0207C68.9547 51.9144 68.2256 53.6012 67.8613 54.232C67.4971 54.8629 66.4139 56.3452 64.2273 56.3452H48.7304V53.1104L37.629 59.5198L48.7304 65.9292V62.6885H64.2273C68.0614 62.6885 71.4949 60.7241 73.412 57.4037C75.3291 54.0833 75.3291 50.1365 73.4121 46.816Z" fill="black"/>
<path d="M35.8144 13.5118L31.5031 20.9792L37.0537 24.1839L41.3651 16.7165C42.4584 14.8228 44.2707 14.6183 44.9991 14.6184C45.7275 14.6184 47.5398 14.8228 48.6332 16.7165L56.397 30.1639L53.6104 31.7663L64.7006 38.1757V25.3569L61.9365 26.9592L54.1782 13.5118C52.2612 10.1913 48.8304 8.20894 44.9963 8.20898C41.1621 8.20896 37.7314 10.1913 35.8144 13.5118Z" fill="black"/>
<path d="M25.7709 62.6884H34.4021V56.3451H25.7709C23.5843 56.3451 22.5011 54.8628 22.1369 54.232C21.7727 53.6012 21.0436 51.9219 22.1369 50.0282L29.9056 36.577L32.6857 38.1756V25.3568L21.5795 31.7662L24.3525 33.3686L16.5874 46.816C14.6703 50.1364 14.6697 54.0831 16.5868 57.4036C18.5038 60.7241 21.9368 62.6884 25.7709 62.6884Z" fill="black"/>
<path d="M39.5882 33.2557C40.3364 33.2557 41.056 33.3812 41.7473 33.6321C42.4434 33.883 43.0636 34.2831 43.6081 34.8324C44.1574 35.3816 44.5906 36.1108 44.9078 37.0199C45.2298 37.9242 45.3932 39.0346 45.3979 40.3509C45.3979 41.5866 45.2582 42.6899 44.9789 43.6605C44.7042 44.6264 44.3089 45.4479 43.7928 46.125C43.2767 46.8021 42.6541 47.3182 41.9249 47.6733C41.1957 48.0237 40.3813 48.1989 39.4817 48.1989C38.5111 48.1989 37.6541 48.0118 36.9107 47.6378C36.1673 47.259 35.5684 46.7453 35.1138 46.0966C34.664 45.4432 34.3917 44.7093 34.2971 43.8949H37.3297C37.4481 44.4252 37.6967 44.8371 38.0755 45.1307C38.4542 45.4195 38.923 45.5639 39.4817 45.5639C40.4287 45.5639 41.1484 45.152 41.6408 44.3281C42.1332 43.4995 42.3818 42.3655 42.3865 40.9261H42.2871C42.0693 41.3523 41.7757 41.7192 41.4064 42.027C41.0371 42.33 40.6133 42.5644 40.1351 42.7301C39.6616 42.8958 39.1574 42.9787 38.6223 42.9787C37.7653 42.9787 37.0007 42.7775 36.3283 42.375C35.656 41.9725 35.1257 41.4186 34.7374 40.7131C34.3491 40.0076 34.155 39.2027 34.155 38.2983C34.1503 37.3229 34.3752 36.4541 34.8297 35.6918C35.2843 34.9295 35.9187 34.3329 36.7331 33.902C37.5523 33.4664 38.504 33.2509 39.5882 33.2557ZM39.6096 35.6705C39.1313 35.6705 38.7052 35.7841 38.3311 36.0114C37.9618 36.2386 37.6683 36.544 37.4505 36.9276C37.2374 37.3111 37.1332 37.7396 37.138 38.2131C37.138 38.6913 37.2421 39.1222 37.4505 39.5057C37.6635 39.8845 37.9524 40.1875 38.3169 40.4148C38.6863 40.6373 39.1077 40.7486 39.5811 40.7486C39.9363 40.7486 40.2653 40.6823 40.5684 40.5497C40.8714 40.4171 41.1342 40.2348 41.3567 40.0028C41.584 39.7661 41.7615 39.4938 41.8894 39.1861C42.0172 38.8783 42.0811 38.5516 42.0811 38.206C42.0764 37.7467 41.9675 37.3253 41.7544 36.9418C41.5414 36.5582 41.2478 36.2505 40.8738 36.0185C40.4997 35.7865 40.0783 35.6705 39.6096 35.6705ZM47.7132 48L53.7431 36.0682V35.9688H46.7189V33.4545H56.9249V36.0043L50.888 48H47.7132Z" fill="black"/>
</svg>
