<svg width="90" height="90" viewBox="0 0 90 90" fill="none" xmlns="http://www.w3.org/2000/svg">
<path d="M73.4122 46.816L69.1009 39.3486L63.5502 42.5534L67.8615 50.0207C68.9548 51.9144 68.2257 53.6012 67.8614 54.232C67.4972 54.8629 66.4141 56.3452 64.2275 56.3452H48.7306V53.1104L37.6292 59.5198L48.7306 65.9292V62.6885H64.2275C68.0616 62.6885 71.4951 60.7241 73.4121 57.4037C75.3292 54.0833 75.3292 50.1365 73.4122 46.816Z" fill="black"/>
<path d="M35.8145 13.5118L31.5032 20.9792L37.0538 24.1839L41.3652 16.7165C42.4585 14.8228 44.2708 14.6183 44.9992 14.6184C45.7276 14.6184 47.5399 14.8228 48.6333 16.7165L56.3971 30.1639L53.6105 31.7663L64.7007 38.1757V25.3569L61.9366 26.9592L54.1784 13.5118C52.2613 10.1913 48.8305 8.20894 44.9964 8.20898C41.1623 8.20896 37.7315 10.1913 35.8145 13.5118Z" fill="black"/>
<path d="M25.7708 62.6884H34.402V56.3451H25.7708C23.5842 56.3451 22.501 54.8628 22.1368 54.232C21.7726 53.6012 21.0435 51.9219 22.1368 50.0282L29.9054 36.577L32.6856 38.1756V25.3568L21.5794 31.7662L24.3523 33.3686L16.5873 46.816C14.6702 50.1364 14.6696 54.0831 16.5867 57.4036C18.5037 60.7241 21.9367 62.6884 25.7708 62.6884Z" fill="black"/>
<path d="M38.7289 33.2557C39.477 33.2557 40.1967 33.3812 40.888 33.6321C41.584 33.883 42.2042 34.2831 42.7488 34.8324C43.298 35.3816 43.7312 36.1108 44.0485 37.0199C44.3704 37.9242 44.5338 39.0346 44.5385 40.3509C44.5385 41.5866 44.3989 42.6899 44.1195 43.6605C43.8449 44.6264 43.4495 45.4479 42.9334 46.125C42.4173 46.8021 41.7947 47.3182 41.0655 47.6733C40.3364 48.0237 39.522 48.1989 38.6223 48.1989C37.6517 48.1989 36.7947 48.0118 36.0513 47.6378C35.3079 47.259 34.709 46.7453 34.2544 46.0966C33.8046 45.4432 33.5324 44.7093 33.4377 43.8949H36.4703C36.5887 44.4252 36.8373 44.8371 37.2161 45.1307C37.5949 45.4195 38.0636 45.5639 38.6223 45.5639C39.5693 45.5639 40.289 45.152 40.7814 44.3281C41.2739 43.4995 41.5224 42.3655 41.5272 40.9261H41.4277C41.2099 41.3523 40.9164 41.7192 40.5471 42.027C40.1777 42.33 39.754 42.5644 39.2757 42.7301C38.8023 42.8958 38.298 42.9787 37.763 42.9787C36.906 42.9787 36.1413 42.7775 35.4689 42.375C34.7966 41.9725 34.2663 41.4186 33.878 40.7131C33.4898 40.0076 33.2956 39.2027 33.2956 38.2983C33.2909 37.3229 33.5158 36.4541 33.9703 35.6918C34.4249 34.9295 35.0594 34.3329 35.8738 33.902C36.6929 33.4664 37.6446 33.2509 38.7289 33.2557ZM38.7502 35.6705C38.272 35.6705 37.8458 35.7841 37.4718 36.0114C37.1025 36.2386 36.8089 36.544 36.5911 36.9276C36.378 37.3111 36.2739 37.7396 36.2786 38.2131C36.2786 38.6913 36.3828 39.1222 36.5911 39.5057C36.8042 39.8845 37.093 40.1875 37.4576 40.4148C37.8269 40.6373 38.2483 40.7486 38.7218 40.7486C39.0769 40.7486 39.406 40.6823 39.709 40.5497C40.012 40.4171 40.2748 40.2348 40.4973 40.0028C40.7246 39.7661 40.9022 39.4938 41.03 39.1861C41.1578 38.8783 41.2218 38.5516 41.2218 38.206C41.217 37.7467 41.1081 37.3253 40.8951 36.9418C40.682 36.5582 40.3884 36.2505 40.0144 36.0185C39.6403 35.7865 39.2189 35.6705 38.7502 35.6705ZM52.0953 48.1989C51.0016 48.1989 50.0286 48.0213 49.1763 47.6662C48.3288 47.3063 47.6635 46.8163 47.1806 46.196C46.6976 45.5758 46.4561 44.8726 46.4561 44.0866C46.4561 43.4806 46.5935 42.9242 46.8681 42.4176C47.1474 41.9062 47.5262 41.4825 48.0044 41.1463C48.4827 40.8054 49.0177 40.5876 49.6096 40.4929V40.3935C48.833 40.2372 48.2033 39.8608 47.7203 39.2642C47.2374 38.6629 46.9959 37.9645 46.9959 37.169C46.9959 36.4162 47.2161 35.7462 47.6564 35.1591C48.0968 34.5672 48.7005 34.1032 49.4675 33.767C50.2393 33.4261 51.1152 33.2557 52.0953 33.2557C53.0755 33.2557 53.949 33.4261 54.7161 33.767C55.4879 34.108 56.0939 34.5743 56.5343 35.1662C56.9746 35.7533 57.1971 36.4209 57.2019 37.169C57.1971 37.9692 56.9509 38.6676 56.4632 39.2642C55.9756 39.8608 55.3506 40.2372 54.5882 40.3935V40.4929C55.1706 40.5876 55.6986 40.8054 56.1721 41.1463C56.6503 41.4825 57.0291 41.9062 57.3084 42.4176C57.5925 42.9242 57.7369 43.4806 57.7417 44.0866C57.7369 44.8726 57.4931 45.5758 57.0101 46.196C56.5272 46.8163 55.8596 47.3063 55.0073 47.6662C54.1597 48.0213 53.1891 48.1989 52.0953 48.1989ZM52.0953 45.9403C52.583 45.9403 53.0092 45.8527 53.3738 45.6776C53.7383 45.4976 54.0224 45.2514 54.226 44.9389C54.4344 44.6217 54.5385 44.2571 54.5385 43.8452C54.5385 43.4238 54.432 43.0521 54.2189 42.7301C54.0059 42.4034 53.717 42.1477 53.3525 41.9631C52.9879 41.7737 52.5688 41.679 52.0953 41.679C51.6266 41.679 51.2076 41.7737 50.8382 41.9631C50.4689 42.1477 50.1777 42.4034 49.9647 42.7301C49.7563 43.0521 49.6522 43.4238 49.6522 43.8452C49.6522 44.2571 49.754 44.6217 49.9576 44.9389C50.1612 45.2514 50.4476 45.4976 50.8169 45.6776C51.1863 45.8527 51.6124 45.9403 52.0953 45.9403ZM52.0953 39.4418C52.5025 39.4418 52.8648 39.3589 53.182 39.1932C53.4992 39.0275 53.7478 38.7978 53.9277 38.5043C54.1077 38.2107 54.1976 37.8722 54.1976 37.4886C54.1976 37.1098 54.1077 36.7784 53.9277 36.4943C53.7478 36.2055 53.5016 35.9806 53.1891 35.8196C52.8766 35.6539 52.512 35.571 52.0953 35.571C51.6834 35.571 51.3188 35.6539 51.0016 35.8196C50.6844 35.9806 50.4358 36.2055 50.2559 36.4943C50.0807 36.7784 49.9931 37.1098 49.9931 37.4886C49.9931 37.8722 50.083 38.2107 50.263 38.5043C50.4429 38.7978 50.6915 39.0275 51.0087 39.1932C51.3259 39.3589 51.6882 39.4418 52.0953 39.4418Z" fill="black"/>
</svg>
