<?xml version="1.0" encoding="UTF-8"?>
<svg width="1200pt" height="1200pt" version="1.1" viewBox="0 0 1200 1200" xmlns="http://www.w3.org/2000/svg">
 <g>
  <path d="m572.58 18.094c144.21 2.5859 278.62 59.457 389.41 171.35 7.1992 7.3867 7.7539 12.188-0.18359 19.203-11.078 9.7852-21.418 20.496-31.203 31.574-6.4609 7.1992-10.34 7.0156-16.988 0-52.629-55.023-114.3-96.387-186.12-122.42-92.508-33.605-186.68-39.516-282.5-16.25-127.4 31.02-226.93 102.29-297.83 212.16-67.395 104.32-90.105 218.99-70.535 341.59 12.926 80.688 45.422 153.25 95.277 218.06 1.4766 1.8477 2.7695 3.8789 4.6172 5.5391 2.2148 2.0312 4.8008 3.8789 7.1992 5.7227 1.1094-2.7695 2.7695-5.5391 3.5078-8.4922 10.34-49.855 20.68-99.523 30.836-149.38 14.402-69.797 28.805-139.59 42.836-209.57 5.7227-28.25 10.156-56.871 27.145-81.43 29.914-43.207 69.426-70.535 123.71-61.117 23.633 4.0625 46.715 16.617 67.766 29.172 71.273 42.285 141.62 86.414 212.16 129.99 14.031 8.6797 17.727 17.91 12.555 28.621-5.5391 11.449-16.617 14.586-32.129 8.4922-52.438-20.863-105.62-40.254-156.95-63.516-44.129-19.941-79.027 5.3555-81.43 51.516-1.1094 23.082 1.1094 46.531 3.6914 69.426 9.2305 82.906 19.387 165.62 29.172 248.35 6.6484 56.5 13.48 113 19.941 169.5 1.1094 9.2305 4.9844 14.031 14.219 14.219 31.574 0.55469 63.148 1.1094 94.723 1.6602 7.5703 0.18359 9.418-4.2461 8.8633-10.895-1.1094-12.371-1.8477-24.742-2.5859-37.113-0.18359-2.0312 1.1094-4.2461 1.6602-6.2773 1.8477 0.73828 3.8789 0.92188 5.3555 2.2148 32.496 24.742 64.996 49.484 97.676 74.227 5.3555 4.0625 4.4297 7.1992 0.18359 11.449-28.988 27.695-57.793 55.578-86.598 83.461-1.4766 1.4766-3.8789 2.0312-5.9102 3.1406-0.55469-2.2148-1.6602-4.4297-1.8477-6.6484-1.1094-10.711-2.5859-21.602-2.5859-32.312 0-9.7852-4.0625-12-13.293-11.262-67.578 5.5391-133.87-1.8477-198.31-21.789-145.68-45.98-256.09-135.71-330.13-269.03-51.145-92.32-74.41-192.4-66.473-297.46 14.957-199.97 110.6-351.56 283.43-453.12 84.195-49.668 176.7-72.012 287.68-72.566zm-149.56 1022.6c-1.8477-7.1992-2.9531-11.449-4.0625-15.695-17.355-61.117-34.715-122.42-52.254-183.54-7.9414-27.695-15.695-55.395-24.742-82.719-1.6602-5.1719-8.125-12-12.371-12.188-5.3555-0.18359-11.262 5.7227-16.062 9.7852-2.2148 1.8477-2.9531 5.5391-4.0625 8.4922-20.496 57.238-40.805 114.48-61.855 171.54-3.5078 9.6016-1.1094 14.402 6.0938 20.125 36.004 28.434 74.965 51.887 117.43 69.426 13.664 5.7227 27.695 10.523 41.73 15.141 2.7656 1.1094 6.457-0.18359 10.152-0.36719z"/>
  <path d="m725.1 646.81c95.277-3.8789 165.26-93.613 181.14-180.4 3.6914-19.941 4.2461-40.438 5.9102-60.746 0.73828-10.156-3.6914-15.512-14.957-15.141-9.6016 0.37109-19.203-0.37109-28.805-0.92188-2.7695-0.18359-5.3555-1.1094-7.9414-1.6602 1.4766-2.5859 2.3984-5.7227 4.4297-7.7539 26.773-27.145 53.73-53.914 80.504-80.875 17.172-17.355 34.527-34.527 51.699-52.07 4.8008-4.8008 7.5703-5.1719 12 0.73828 37.113 50.223 74.41 100.45 111.71 150.48 1.293 1.8477 2.0312 4.0625 2.9531 6.2773-2.5859 0.55469-5.1719 1.8477-7.7539 1.8477-10.34-0.18359-20.863-0.37109-31.203-1.6602-9.7852-1.1094-13.48 1.8477-14.031 12-2.0312 41.543-13.664 80.32-34.898 116.14-59.457 100.82-190.55 151.78-302.26 117.43-2.9531-0.92578-5.7227-2.4023-8.4922-3.6953z"/>
  <path d="m694.82 648.65c-37.484 80.504 3.5078 168.58 53.176 217.88 24.559 24.371 52.438 44.5 84.75 58.164 9.9727 4.2461 15.324 2.3984 19.57-7.3867 3.5078-8.4922 8.125-16.617 12.555-24.559 1.4766-2.5859 4.0625-4.4297 6.0938-6.4609 1.293 2.3984 2.9531 4.6172 3.8789 7.0156 18.094 49.301 36.191 98.414 54.102 147.71 3.3242 9.0469 6.0938 18.281 9.9727 26.957 3.5078 7.5703 1.4766 10.711-6.4609 12.188-38.406 7.5703-76.996 15.512-115.4 23.266-20.496 4.0625-40.805 8.4922-61.301 12.371-4.2461 0.73828-8.6797 0.55469-12.926 0.92188 1.293-3.8789 2.2148-7.9414 3.8789-11.633 3.6914-7.5703 6.832-15.512 11.816-22.156 8.4922-11.078 3.5078-16.25-6.6484-21.418-36.004-18.648-64.809-45.422-87.707-78.473-67.211-96.57-57.793-237.64 21.789-324.23 3.1367-3.3242 6.0938-6.832 8.8633-10.156z"/>
  <path d="m708.85 659.36c16.617 21.418 35.637 39.516 59.824 51.332 58.164 28.621 118.17 29.914 178.55 8.6797 22.711-8.125 43.945-20.68 65.734-31.574 9.7852-4.8008 11.816-11.633 4.9844-21.051-6.0938-8.4922-10.711-17.91-15.695-26.957-0.92188-1.8477-0.73828-4.2461-1.1094-6.4609 1.8477 0 3.8789-0.18359 5.7227 0.37109 62.227 13.48 124.27 27.328 186.49 40.621 7.5703 1.6602 7.7539 4.6172 5.3555 10.711-22.527 58.164-44.867 116.51-67.211 174.86-0.73828 2.0312-2.3984 3.8789-3.5078 5.7227-1.6602-1.4766-3.8789-2.7695-4.9844-4.6172-5.7227-9.6016-11.449-19.387-16.434-29.359-4.0625-8.4922-8.6797-9.418-16.801-4.8008-45.422 26.402-94.352 36.191-146.61 32.496-108.02-7.5703-207.54-90.66-233.57-195.35-0.55469-1.668-0.55469-3.1445-0.73828-4.6211z"/>
  <path d="m357.84 265.15c0-46.898 38.223-85.305 84.75-85.121 46.16 0.18359 83.828 38.223 84.012 84.566 0.18359 46.898-38.035 85.305-84.75 85.121-45.977-0.18359-84.012-38.406-84.012-84.566z"/>
 </g>
</svg>
