<svg width="90" height="90" viewBox="0 0 90 90" fill="none" xmlns="http://www.w3.org/2000/svg">
<g clip-path="url(#clip0_301_252)">
<path d="M42.9435 1.3571C53.7593 1.55104 63.84 5.81637 72.1493 14.2083C72.6892 14.7623 72.7308 15.1224 72.1355 15.6486C71.3046 16.3825 70.5291 17.1858 69.7953 18.0166C69.3107 18.5566 69.0198 18.5428 68.5212 18.0166C64.574 13.8899 59.9487 10.7876 54.5622 8.83512C47.6241 6.31475 40.5612 5.87142 33.3747 7.61637C23.8197 9.94287 16.3549 15.2881 11.0374 23.5284C5.98279 31.3524 4.27954 39.9526 5.74729 49.1476C6.71674 55.1992 9.15394 60.6414 12.8931 65.5021C13.0038 65.6407 13.1008 65.793 13.2394 65.9176C13.4055 66.0699 13.5994 66.2085 13.7793 66.3468C13.8625 66.139 13.987 65.9313 14.0424 65.7098C14.8179 61.9707 15.5934 58.2456 16.3551 54.5063C17.4352 49.2716 18.5155 44.0371 19.5678 38.7886C19.997 36.6698 20.3295 34.5233 21.6037 32.6813C23.8472 29.4408 26.8106 27.3912 30.8819 28.0976C32.6544 28.4023 34.3855 29.3438 35.9644 30.2855C41.3098 33.4568 46.5859 36.7665 51.8764 40.0347C52.9287 40.6857 53.2059 41.378 52.818 42.1813C52.4026 43.04 51.5717 43.2752 50.4083 42.8182C46.4755 41.2535 42.4868 39.7992 38.6371 38.0545C35.3274 36.5589 32.71 38.4562 32.5298 41.9182C32.4466 43.6494 32.613 45.408 32.8067 47.1252C33.499 53.3431 34.2607 59.5467 34.9946 65.7514C35.4932 69.9889 36.0056 74.2264 36.4901 78.4639C36.5733 79.1562 36.864 79.5162 37.5566 79.5303C39.9246 79.5719 42.2927 79.6135 44.6608 79.6548C45.2286 79.6686 45.3671 79.3364 45.3255 78.8377C45.2423 77.9099 45.187 76.9821 45.1316 76.0543C45.1178 75.9019 45.2148 75.7358 45.2561 75.5835C45.3947 75.6388 45.547 75.6526 45.6578 75.7496C48.095 77.6052 50.5325 79.4609 52.9835 81.3166C53.3851 81.6213 53.3157 81.8565 52.9972 82.1753C50.8231 84.2524 48.6628 86.3436 46.5024 88.4348C46.3916 88.5456 46.2115 88.5872 46.0591 88.6704C46.0175 88.5043 45.9346 88.3381 45.9206 88.1717C45.8373 87.3684 45.7266 86.5516 45.7266 85.7483C45.7266 85.0145 45.4219 84.8483 44.7296 84.9037C39.6613 85.3191 34.6894 84.7651 29.8564 83.2695C18.9304 79.821 10.6496 73.0913 5.09663 63.0923C1.26076 56.1683 -0.48412 48.6623 0.111155 40.7828C1.23293 25.785 8.40616 14.4158 21.3684 6.79877C27.683 3.07367 34.6209 1.39787 42.9444 1.35632L42.9435 1.3571ZM31.7265 78.0521C31.5879 77.5122 31.505 77.1934 31.4218 76.875C30.1202 72.2912 28.8182 67.6935 27.5028 63.1095C26.9072 61.0323 26.3257 58.9548 25.6471 56.9055C25.5226 56.5177 25.0378 56.0055 24.7193 55.9914C24.3176 55.9777 23.8747 56.4207 23.5147 56.7253C23.3485 56.8639 23.2932 57.1408 23.21 57.3623C21.6728 61.6551 20.1496 65.9483 18.5708 70.2278C18.3078 70.9479 18.4876 71.3079 19.0279 71.7371C21.7282 73.8697 24.6502 75.6287 27.8351 76.9441C28.8599 77.3733 29.9123 77.7333 30.9649 78.0797C31.1723 78.1629 31.4492 78.0659 31.7263 78.0521L31.7265 78.0521Z" fill="black"/>
<path d="M54.3825 48.5108C61.5283 48.2199 66.777 41.4898 67.968 34.9808C68.2449 33.4852 68.2865 31.9479 68.4113 30.4248C68.4666 29.6631 68.1344 29.2614 67.2895 29.2893C66.5694 29.3171 65.8493 29.2614 65.1291 29.2201C64.9214 29.2063 64.7275 29.1369 64.5335 29.0956C64.6443 28.9017 64.7134 28.6664 64.8657 28.5141C66.8737 26.4782 68.8955 24.4705 70.9035 22.4484C72.1914 21.1468 73.4931 19.8589 74.781 18.5432C75.141 18.1831 75.3487 18.1553 75.681 18.5986C78.4644 22.3653 81.2617 26.1323 84.0592 29.8846C84.1562 30.0231 84.2116 30.1892 84.2807 30.3553C84.0868 30.397 83.8928 30.4939 83.6992 30.4939C82.9237 30.4802 82.1344 30.4661 81.3589 30.3694C80.625 30.2862 80.3479 30.508 80.3066 31.2694C80.1543 34.3851 79.2818 37.2934 77.6893 39.9799C73.23 47.5414 63.398 51.3634 55.0198 48.7872C54.7983 48.7177 54.5906 48.607 54.3828 48.51L54.3825 48.5108Z" fill="black"/>
<path d="M52.1115 48.6488C49.3002 54.6866 52.3746 61.2923 56.0997 64.9898C57.9416 66.8176 60.0326 68.3273 62.456 69.3521C63.2039 69.6706 63.6053 69.532 63.9237 68.7981C64.1868 68.1612 64.5331 67.5518 64.8653 66.9562C64.9761 66.7622 65.17 66.6239 65.3224 66.4716C65.4194 66.6515 65.5439 66.8179 65.6133 66.9978C66.9703 70.6954 68.3276 74.3788 69.6709 78.076C69.9203 78.7545 70.128 79.4471 70.4189 80.0978C70.682 80.6656 70.5296 80.9011 69.9343 81.0119C67.0539 81.5797 64.1596 82.1753 61.2793 82.7568C59.7421 83.0615 58.219 83.3938 56.6818 83.6847C56.3633 83.7401 56.0308 83.7263 55.7123 83.7538C55.8093 83.4629 55.8784 83.1582 56.0032 82.8813C56.2801 82.3136 56.5156 81.7179 56.8894 81.2196C57.5263 80.3888 57.1525 80.0009 56.3908 79.6133C53.6905 78.2147 51.5301 76.2066 49.8128 73.7278C44.7719 66.4851 45.4783 55.9048 51.4469 49.4106C51.6822 49.1613 51.904 48.8982 52.1117 48.6489L52.1115 48.6488Z" fill="black"/>
<path d="M53.1638 49.4521C54.41 51.0584 55.8365 52.4158 57.6506 53.302C62.0129 55.4486 66.5133 55.5455 71.0418 53.953C72.7451 53.3436 74.3377 52.402 75.9719 51.5849C76.7058 51.2249 76.8581 50.7124 76.3457 50.0061C75.8887 49.3692 75.5424 48.6628 75.1686 47.9843C75.0994 47.8457 75.1132 47.6659 75.0854 47.4997C75.2239 47.4997 75.3763 47.486 75.5146 47.5276C80.1816 48.5386 84.8348 49.5772 89.5013 50.5741C90.0691 50.6987 90.0829 50.9204 89.903 51.3775C88.2135 55.7398 86.538 60.1157 84.8622 64.492C84.8068 64.6443 84.6823 64.7829 84.5991 64.9212C84.4746 64.8104 84.3082 64.7135 84.2252 64.5749C83.796 63.8548 83.3666 63.1209 82.9927 62.373C82.688 61.736 82.3417 61.6666 81.7326 62.0129C78.326 63.9931 74.6562 64.7272 70.7369 64.4501C62.6354 63.8823 55.1714 57.6506 53.2191 49.7989C53.1775 49.6738 53.1775 49.563 53.1637 49.4523L53.1638 49.4521Z" fill="black"/>
<path d="M26.838 19.8863C26.838 16.369 29.7047 13.4884 33.1943 13.5022C36.6563 13.516 39.4814 16.369 39.4952 19.8447C39.5089 23.362 36.6425 26.2426 33.1389 26.2288C29.6906 26.215 26.838 23.3483 26.838 19.8863Z" fill="black"/>
</g>
<defs>
<clipPath id="clip0_301_252">
<rect width="90" height="90" fill="white"/>
</clipPath>
</defs>
</svg>
