<svg width="57" height="57" viewBox="0 0 57 57" fill="none" xmlns="http://www.w3.org/2000/svg">
<path fill-rule="evenodd" clip-rule="evenodd" d="M26.5396 13.0102C26.5396 12.9692 26.5696 12.9372 26.6096 12.9372H29.1876C29.2276 12.9372 29.2616 12.9702 29.2616 13.0102V14.5332H26.5396V13.0102ZM26.0606 15.4932H29.7416C30.0076 15.4932 30.2226 15.2802 30.2226 15.0142V13.0102C30.2226 12.4412 29.7586 11.9772 29.1876 11.9772H26.6096C26.0416 11.9772 25.5786 12.4412 25.5786 13.0102V15.0142C25.5786 15.2802 25.7946 15.4932 26.0606 15.4932V15.4932Z" fill="white"/>
<path fill-rule="evenodd" clip-rule="evenodd" d="M34.8414 48.0517H21.1524C21.1354 48.0517 21.1194 48.0507 21.1044 48.0497C21.1194 48.0487 21.1354 48.0487 21.1524 48.0487H21.3034C21.6844 48.0487 21.9954 47.7877 22.0954 47.4367L30.2704 47.4857H30.2724C30.5374 47.4857 30.7524 47.2717 30.7534 47.0077C30.7544 46.7427 30.5414 46.5267 30.2754 46.5247L22.1424 46.4757V22.8607C22.1424 22.3957 21.7664 22.0197 21.3034 22.0197H21.1524C21.1364 22.0197 21.1224 22.0197 21.1074 22.0187C21.1224 22.0167 21.1364 22.0157 21.1524 22.0157H34.8414C34.8574 22.0157 34.8714 22.0167 34.8874 22.0187C34.8714 22.0197 34.8574 22.0197 34.8414 22.0197H34.6914C34.2774 22.0197 33.9504 22.3237 33.8794 22.7187L26.6884 22.6687H26.6854C26.4224 22.6687 26.2084 22.8827 26.2054 23.1457C26.2034 23.4117 26.4174 23.6287 26.6834 23.6287L33.8514 23.6777V47.2077C33.8514 47.6717 34.2274 48.0487 34.6914 48.0487H34.8414C34.8584 48.0487 34.8744 48.0487 34.8904 48.0497C34.8744 48.0507 34.8584 48.0517 34.8414 48.0517V48.0517ZM33.3744 20.3347H22.4264L26.2344 17.1387H29.5674L33.3744 20.3347ZM23.4654 8.89269L32.3354 8.89169C33.1184 8.89169 33.7554 9.52969 33.7554 10.3127V19.4017L30.0514 16.2897C29.9644 16.2177 29.8554 16.1777 29.7424 16.1777H26.0594C25.9464 16.1777 25.8374 16.2177 25.7504 16.2897L22.0444 19.4017V10.3127C22.0444 9.53069 22.6824 8.89269 23.4654 8.89269V8.89269ZM35.5324 46.4697V23.5977C36.2864 23.3627 36.8104 22.7527 36.8104 22.0167C36.8104 21.2537 36.2394 20.6317 35.4364 20.4197V10.3127C35.4364 8.60269 34.0464 7.21069 32.3354 7.21069L23.4654 7.21269C21.7564 7.21269 20.3634 8.60369 20.3634 10.3127V20.4717C19.6634 20.7277 19.1814 21.3167 19.1814 22.0197C19.1814 22.7547 19.7064 23.3647 20.4614 23.5987V46.4697C19.7064 46.7037 19.1814 47.3147 19.1814 48.0497C19.1814 48.9927 20.0464 49.7327 21.1524 49.7327H34.8414C35.9464 49.7327 36.8104 48.9927 36.8104 48.0497C36.8104 47.3147 36.2864 46.7037 35.5324 46.4697V46.4697Z" fill="white"/>
<path fill-rule="evenodd" clip-rule="evenodd" d="M23.8889 26.0459C23.6239 26.0459 23.4099 26.2609 23.4099 26.5259V42.8659C23.4099 43.1309 23.6239 43.3449 23.8889 43.3449C24.1549 43.3449 24.3689 43.1309 24.3689 42.8659V26.5259C24.3689 26.2609 24.1549 26.0459 23.8889 26.0459" fill="white"/>
</svg>
