<svg width="57" height="57" viewBox="0 0 57 57" fill="none" xmlns="http://www.w3.org/2000/svg">
<path fill-rule="evenodd" clip-rule="evenodd" d="M24.676 21.2807C24.647 21.1057 24.493 20.9897 24.314 21.0007C23.65 21.0447 22.845 21.4787 22.162 22.1617C21.479 22.8447 21.044 23.6507 21.001 24.3147C20.993 24.4207 21.032 24.5147 21.099 24.5827C21.147 24.6307 21.209 24.6647 21.281 24.6777C21.453 24.7077 21.632 24.6087 21.706 24.4407C21.927 23.9357 22.335 23.3727 22.853 22.8537C23.371 22.3347 23.935 21.9267 24.441 21.7067C24.609 21.6337 24.707 21.4537 24.676 21.2807" fill="white"/>
<path fill-rule="evenodd" clip-rule="evenodd" d="M22.6406 15.4381C22.6026 15.4371 22.5616 15.4431 22.5256 15.4401C22.5366 15.4411 22.5596 15.4491 22.5726 15.4511L22.6286 15.4591L22.6406 15.4381Z" fill="white"/>
<path fill-rule="evenodd" clip-rule="evenodd" d="M38.5405 43.9078L23.6315 28.9988C23.5125 28.8798 23.4335 28.7268 23.3775 28.5618L23.3675 28.5708C23.1045 27.5878 22.7035 27.0108 21.7695 26.0798C21.3175 25.6258 20.8265 25.4938 20.5725 25.4508L20.4965 25.4408H20.4925L20.3925 25.4268C20.3925 25.4268 20.4375 25.4308 20.4675 25.4338C20.1755 25.3968 19.9235 25.2908 19.7345 25.1018C18.9575 24.3238 19.5275 22.4918 21.0105 21.0098C22.4925 19.5278 24.3255 18.9568 25.1025 19.7358C25.2765 19.9068 25.3705 20.1378 25.4155 20.3968L25.4265 20.3918C25.4265 20.3918 25.4305 20.4358 25.4335 20.4658C25.4355 20.4858 25.4395 20.5048 25.4405 20.5248C25.4745 20.7668 25.6025 21.2948 26.0785 21.7698C27.0115 22.7028 27.5885 23.1038 28.5715 23.3678L28.5625 23.3758C28.7275 23.4338 28.8795 23.5098 28.9995 23.6318L43.9085 38.5398C45.1035 39.7348 45.3175 41.5228 44.5855 42.9488L43.0335 40.2818C42.9165 40.0838 42.6705 40.0228 42.4775 40.1348C42.2815 40.2478 42.2165 40.4958 42.3295 40.6918L44.0785 43.6988C44.0205 43.7668 43.9735 43.8418 43.9085 43.9078C43.8275 43.9888 43.7325 44.0488 43.6465 44.1218L40.6455 42.3748C40.4515 42.2618 40.2015 42.3278 40.0905 42.5218C39.9945 42.6848 40.0265 42.8878 40.1535 43.0138C40.1765 43.0378 40.2055 43.0598 40.2355 43.0768L42.8845 44.6188C41.4685 45.3108 39.7175 45.0848 38.5405 43.9078M13.3025 17.0948L13.3055 17.0868C12.7815 17.1658 12.3225 17.0788 12.0235 16.7778C11.2915 16.0468 11.7635 14.3878 13.0765 13.0748C14.3885 11.7608 16.0465 11.2908 16.7785 12.0228C17.0775 12.3218 17.1655 12.7808 17.0875 13.3038L17.0975 13.3008C17.0975 13.3008 16.8705 14.4738 17.7175 15.3218L21.6845 19.2888C21.2345 19.5888 20.7885 19.9348 20.3615 20.3608C19.9355 20.7878 19.5905 21.2338 19.2905 21.6838L15.3225 17.7158C14.4765 16.8688 13.3025 17.0948 13.3025 17.0948M45.0975 37.3508L30.1875 22.4418C29.9585 22.2118 29.6885 22.0288 29.3695 21.8878C29.2555 21.8268 29.1335 21.7788 29.0075 21.7448C28.4145 21.5848 28.0805 21.3948 27.2665 20.5808C27.1465 20.4598 27.1135 20.3358 27.1055 20.2938L27.0985 20.2188C27.0855 20.0878 27.0565 19.9598 27.0135 19.8388C26.8825 19.3288 26.6395 18.8958 26.2915 18.5468C25.4095 17.6638 24.1065 17.5018 22.7295 17.9548L18.9065 14.1318C18.7265 13.9528 18.7465 13.6218 18.7465 13.6188C18.7665 13.5218 18.7755 13.4248 18.7775 13.3268C18.8725 12.3338 18.5885 11.4558 17.9675 10.8338C16.5335 9.40178 13.9205 9.85378 11.8865 11.8868C9.85449 13.9208 9.40149 16.5338 10.8335 17.9668C11.4595 18.5908 12.3455 18.8758 13.3455 18.7748C13.4365 18.7718 13.5285 18.7628 13.6195 18.7468H13.6185C13.6205 18.7488 13.9485 18.7178 14.1335 18.9048L17.9565 22.7278C17.5015 24.1048 17.6635 25.4078 18.5465 26.2918C18.9215 26.6668 19.4005 26.9238 19.9455 27.0468C20.0155 27.0658 20.0895 27.0818 20.1655 27.0908L20.2655 27.1058L20.3095 27.1118C20.3705 27.1238 20.4755 27.1608 20.5805 27.2668C21.3955 28.0798 21.5845 28.4158 21.7445 29.0068C21.7795 29.1388 21.8305 29.2638 21.8945 29.3808C22.0335 29.6948 22.2155 29.9608 22.4425 30.1888L37.3515 45.0968C39.4875 47.2318 42.9615 47.2308 45.0975 45.0968C47.2325 42.9608 47.2325 39.4868 45.0975 37.3508" fill="white"/>
</svg>
