<svg width="57" height="57" viewBox="0 0 57 57" fill="none" xmlns="http://www.w3.org/2000/svg">
<path fill-rule="evenodd" clip-rule="evenodd" d="M41.8661 43.965C42.0161 43.84 42.1051 43.665 42.1361 43.474L42.8461 44.065L39.6361 47.928L38.3811 46.884L41.8661 43.965ZM40.2561 43.059C40.4431 42.952 40.5801 42.775 40.6371 42.568C40.6431 42.547 40.6371 42.526 40.6421 42.504L41.3441 43.343L37.7451 46.357L37.4931 46.568L36.3941 45.257L40.2561 43.059ZM38.9821 42.345C39.1941 42.304 39.3801 42.18 39.5011 42.001C39.5331 41.955 39.5441 41.9 39.5661 41.848L39.8531 42.354L35.8631 44.623L35.7421 44.693L35.1021 44.16L34.5551 43.198L38.9821 42.345ZM30.7971 26.44V26.44L30.4971 24.884L27.7501 10.649L32.6831 9.697L38.8271 41.547L34.0561 42.466L33.8401 42.208L33.7611 41.806L30.7971 26.44ZM17.4341 23.896L32.8381 42.28L14.6881 27.199L17.4341 23.896ZM19.8611 19.026L31.3941 39.289L16.6611 21.708L19.8611 19.026ZM19.4441 16.649L23.8101 14.163L29.5431 24.238L32.5081 39.604L19.4441 16.649ZM43.9091 42.748L41.0461 40.385L40.0911 39.261L34.3221 9.362C34.2381 8.924 33.9821 8.538 33.6141 8.288C33.3331 8.099 33.0051 8 32.6711 8C32.5661 8 32.4591 8.01 32.3541 8.029L27.4221 8.981C26.5101 9.157 25.9141 10.039 26.0891 10.951L27.2041 16.728L25.2611 13.313C24.9521 12.768 24.3831 12.464 23.7991 12.464C23.5171 12.464 23.2311 12.535 22.9691 12.684L18.6041 15.168C18.2161 15.388 17.9331 15.754 17.8141 16.184C17.6971 16.614 17.7541 17.074 17.9741 17.461L18.3311 18.089L15.5731 20.401C15.2311 20.686 15.0171 21.097 14.9781 21.541C14.9391 21.984 15.0781 22.427 15.3651 22.768L15.7641 23.245L13.3871 26.105C13.1031 26.449 12.9661 26.89 13.0071 27.335C13.0481 27.778 13.2631 28.187 13.6061 28.472L33.7811 45.235L34.0161 45.647C34.2361 46.033 34.6011 46.318 35.0311 46.435C35.0921 46.453 35.1561 46.452 35.2171 46.461L36.1931 47.625C36.4791 47.967 36.8891 48.181 37.3341 48.22C37.3481 48.221 37.3621 48.22 37.3751 48.221L38.5501 49.198C38.8641 49.458 39.2451 49.586 39.6241 49.586C40.1061 49.586 40.5841 49.379 40.9171 48.978L44.1271 45.116C44.4121 44.773 44.5501 44.33 44.5091 43.887C44.4661 43.443 44.2521 43.033 43.9091 42.748V42.748Z" fill="white"/>
</svg>
