<svg width="57" height="57" viewBox="0 0 57 57" fill="none" xmlns="http://www.w3.org/2000/svg">
<path fill-rule="evenodd" clip-rule="evenodd" d="M40.2957 39.979L39.6017 40.312L37.3177 38.294L11.3897 15.396L11.2317 14.438L39.7307 38.965C39.8067 39.029 39.9007 39.062 39.9957 39.062C40.0527 39.062 40.1117 39.051 40.1667 39.025L46.1527 36.161L46.0837 37.199L40.2957 39.979ZM26.4807 30.966L38.4887 41.572C38.7857 41.834 39.1607 41.967 39.5407 41.982L40.3297 43.291L33.9367 44.098L26.4807 30.966ZM40.1727 44.925L33.0457 45.877L23.2827 28.143L24.6047 29.31L33.3617 44.734C33.4347 44.863 33.5707 44.94 33.7167 44.94C33.7317 44.94 33.7487 44.939 33.7647 44.937L40.5067 44.087L40.1727 44.925ZM16.5717 11.682L45.6077 35.521L40.0597 38.177L11.9877 14.016L16.5717 11.682ZM22.2607 13.317L23.2887 15.021L21.3827 13.455L22.2607 13.317ZM47.2317 34.678L27.1747 18.212L23.7017 12.449C23.3947 11.94 22.8447 11.635 22.2617 11.635C22.1757 11.635 22.0877 11.642 21.9997 11.656L19.6437 12.028L17.6377 10.383C17.3327 10.131 16.9537 10 16.5717 10C16.3127 10 16.0517 10.061 15.8097 10.183L10.4647 12.906C9.81269 13.238 9.45069 13.953 9.56869 14.675L9.72969 15.669C9.79269 16.052 9.98569 16.4 10.2767 16.657L19.5497 24.845L31.5747 46.688C31.8717 47.231 32.4397 47.559 33.0447 47.559C33.1197 47.559 33.1947 47.554 33.2697 47.545L40.3967 46.591C40.9967 46.51 41.5077 46.112 41.7337 45.549L42.1887 44.411C42.3847 43.923 42.3397 43.37 42.0677 42.919L41.1677 41.425L46.8107 38.716C47.3587 38.453 47.7207 37.916 47.7607 37.311L47.8427 36.089C47.8787 35.548 47.6507 35.023 47.2317 34.678V34.678Z" fill="white"/>
</svg>
