<svg width="57" height="57" viewBox="0 0 57 57" fill="none" xmlns="http://www.w3.org/2000/svg">
<path fill-rule="evenodd" clip-rule="evenodd" d="M20.3707 22.8163C20.1657 22.8163 19.9987 22.9823 19.9987 23.1883V43.6123C19.9987 43.8173 20.1657 43.9843 20.3707 43.9843C20.5757 43.9843 20.7427 43.8173 20.7427 43.6123V23.1883C20.7427 22.9823 20.5757 22.8163 20.3707 22.8163" fill="white"/>
<path fill-rule="evenodd" clip-rule="evenodd" d="M20.3707 16.5351C20.1657 16.5351 19.9987 16.7021 19.9987 16.9071V21.4721C19.9987 21.6761 20.1657 21.8431 20.3707 21.8431C20.5757 21.8431 20.7427 21.6761 20.7427 21.4721V16.9071C20.7427 16.7021 20.5757 16.5351 20.3707 16.5351" fill="white"/>
<path fill-rule="evenodd" clip-rule="evenodd" d="M40.806 14.668H39.188H18.298H16.681V13.332H25.797H31.69H40.806V14.668ZM18.298 15.481H39.188V45.695H18.298V15.481ZM40.806 47.846H16.681V46.509H18.264C18.276 46.51 18.286 46.516 18.298 46.516H39.188C39.201 46.516 39.21 46.51 39.223 46.509H40.806V47.846ZM25.797 11.86C25.8 11.86 25.803 11.865 25.807 11.865C25.814 11.865 25.822 11.865 25.829 11.864L31.69 11.432V12.143L26.64 12.517H25.797V11.86ZM25.797 9.679H31.69V10.833L25.797 11.267V9.679ZM42.487 14.668V13.332C42.487 12.403 41.733 11.651 40.806 11.651H33.371V9.679C33.371 8.751 32.617 8 31.69 8H25.797C24.869 8 24.116 8.751 24.116 9.679V11.651H16.681C15.753 11.651 15 12.403 15 13.332V14.668C15 15.576 15.718 16.315 16.617 16.348V44.829C15.718 44.864 15 45.602 15 46.509V47.846C15 48.774 15.753 49.528 16.681 49.528H40.806C41.733 49.528 42.487 48.774 42.487 47.846V46.509C42.487 45.602 41.768 44.864 40.87 44.829V16.348C41.768 16.315 42.487 15.576 42.487 14.668V14.668Z" fill="white"/>
</svg>
