<svg width="57" height="57" viewBox="0 0 57 57" fill="none" xmlns="http://www.w3.org/2000/svg">
<path fill-rule="evenodd" clip-rule="evenodd" d="M27.077 19.8119L27.421 20.3239C27.562 20.5289 27.784 20.6549 28.029 20.6679L28.91 20.7229C29.852 21.3519 30.439 22.1039 30.534 22.9069C30.427 23.8769 29.597 24.8229 28.151 25.5979C26.426 26.5179 24.107 27.0419 21.62 27.0689L21.402 27.0699C17.354 27.0699 13.78 25.6469 12.836 23.8119C13.074 23.2529 13.494 22.8119 13.959 22.4529C14.496 22.0379 15.097 21.7129 15.713 21.4289C16.956 20.8649 18.262 20.5059 19.614 20.3799C20.287 20.3109 20.967 20.2849 21.648 20.3089C22.329 20.3169 23.008 20.3869 23.685 20.4779C24.358 20.5799 25.031 20.7129 25.685 20.9179C26.012 21.0149 26.332 21.1349 26.643 21.2799C26.949 21.4279 27.252 21.5969 27.493 21.8549C27.318 21.5469 27.04 21.3029 26.749 21.0969C26.459 20.8899 26.143 20.7209 25.821 20.5669C25.17 20.2689 24.488 20.0499 23.793 19.8919C23.101 19.7269 22.391 19.6419 21.68 19.5879C20.966 19.5509 20.249 19.5579 19.537 19.6329C18.825 19.7149 18.113 19.8419 17.426 20.0639C16.736 20.2849 16.079 20.5649 15.454 20.9159C14.828 21.2609 14.235 21.6759 13.723 22.1849C13.298 22.6119 12.931 23.1449 12.798 23.7309C12.7 23.5239 12.642 23.3119 12.616 23.0949C12.713 22.1229 13.544 21.1689 14.998 20.3909C16.725 19.4689 19.044 18.9469 21.529 18.9189L21.736 18.9179C23.724 18.9179 25.58 19.2559 27.077 19.8119V19.8119ZM12.928 43.3769C13.445 43.9319 14.057 44.3869 14.718 44.7419C16.165 45.5209 17.764 45.9259 19.362 46.1449C20.966 46.3409 22.586 46.3509 24.186 46.1239C25.78 45.8999 27.353 45.4249 28.731 44.6179C27.206 45.0739 25.664 45.3279 24.116 45.4169C23.338 45.4509 22.571 45.4709 21.791 45.4319C21.016 45.4049 20.244 45.3499 19.478 45.2409C18.713 45.1499 17.953 45.0079 17.207 44.8219C16.461 44.6459 15.734 44.3999 15.03 44.1029C14.334 43.7969 13.661 43.4259 13.096 42.9229C13.079 42.9069 13.063 42.8869 13.045 42.8719L12.878 27.7249C13.208 28.0049 13.558 28.2579 13.929 28.4729C15.29 29.2639 16.815 29.6919 18.344 29.9199C19.113 30.0209 19.886 30.0759 20.658 30.0749C21.431 30.0619 22.202 30.0199 22.965 29.9009C24.485 29.6759 25.991 29.2329 27.312 28.4669C25.853 28.9009 24.377 29.1379 22.894 29.2339C21.413 29.3179 19.923 29.2809 18.466 29.0669C17.735 28.9709 17.013 28.8229 16.305 28.6249C15.595 28.4389 14.907 28.1829 14.245 27.8769C13.758 27.6429 13.299 27.3529 12.869 27.0249L12.862 26.2249C14.718 27.7119 17.816 28.6539 21.414 28.6539L21.637 28.6499C24.375 28.6209 26.952 28.0319 28.897 26.9919C29.383 26.7329 29.812 26.4489 30.195 26.1479L30.379 42.9029C30.385 43.1579 30.51 43.3909 30.714 43.5359L30.684 43.6509C30.077 45.5739 26.329 47.0059 21.773 47.0559H21.514C17.103 47.0559 13.578 45.7549 12.95 43.9279C12.917 43.7889 12.885 43.6319 12.86 43.4949C12.889 43.4609 12.905 43.4169 12.928 43.3769V43.3769ZM29.647 19.2689C29.579 19.2259 29.495 19.2139 29.416 19.1959C29.025 18.9579 28.598 18.7379 28.14 18.5409L28.097 18.4789C28.049 18.4039 27.988 18.3419 27.913 18.2839L27.351 17.8699L27.42 17.1729C27.429 17.0779 27.421 16.9859 27.399 16.9039L27.215 16.1699L27.686 15.5719C27.768 15.4679 27.822 15.3449 27.844 15.2169L27.99 14.3819L29.015 13.5779C29.081 13.5259 29.137 13.4639 29.192 13.3839L29.922 12.2389L31.164 11.7009C31.26 11.6619 31.347 11.6039 31.418 11.5309L32.382 10.5589L33.712 10.2639C33.813 10.2449 33.91 10.2039 34.003 10.1389L35.127 9.35689L36.489 9.30889C36.589 9.30689 36.689 9.28489 36.784 9.24389L38.029 8.70189L39.355 8.95789L39.509 8.97389C39.576 8.97389 39.646 8.96389 39.711 8.94689L40.5 8.73889L41.197 9.16589C41.306 9.23189 41.432 9.27089 41.56 9.27989L42.321 9.32489L42.742 9.95289C42.794 10.0289 42.858 10.0959 42.931 10.1479L43.489 10.5619L43.421 11.2499C43.412 11.3399 43.418 11.4319 43.441 11.5279L43.627 12.2609L43.151 12.8639C43.071 12.9679 43.02 13.0849 42.997 13.2149L42.85 14.0499L41.823 14.8559C41.753 14.9109 41.695 14.9779 41.65 15.0469L40.92 16.1919L39.676 16.7289C39.582 16.7679 39.493 16.8289 39.422 16.9009L38.458 17.8729L37.117 18.1679C37.013 18.1929 36.916 18.2349 36.837 18.2929L35.715 19.0729L34.34 19.1219C34.245 19.1269 34.152 19.1479 34.055 19.1869L32.813 19.7299L31.474 19.4699L31.332 19.4579C31.264 19.4579 31.197 19.4669 31.129 19.4839L30.34 19.6929L29.647 19.2689ZM45.264 12.2489L45.016 11.2729L45.116 10.2689C45.143 9.99189 45.022 9.71889 44.797 9.55089L43.986 8.95089L43.423 8.11489C43.289 7.90889 43.059 7.77689 42.809 7.76289L41.856 7.70389L41.042 7.20489C40.859 7.09289 40.639 7.05889 40.423 7.11489L39.481 7.36389L38.089 7.09289L37.937 7.07889C37.827 7.07889 37.721 7.10089 37.62 7.14489L36.288 7.72589L34.836 7.77489C34.682 7.78089 34.534 7.83089 34.411 7.91789L33.223 8.74489L31.816 9.05589C31.663 9.08789 31.525 9.16389 31.418 9.27289L30.398 10.3009L29.068 10.8759C28.923 10.9369 28.8 11.0409 28.711 11.1769L27.922 12.4139L26.768 13.3219C26.615 13.4409 26.511 13.6119 26.475 13.8079L26.311 14.7459L25.722 15.4959C25.567 15.6919 25.515 15.9439 25.576 16.1809L25.823 17.1589L25.764 17.7719C24.529 17.4899 23.169 17.3349 21.733 17.3349L21.512 17.3359C18.777 17.3679 16.2 17.9559 14.254 18.9939C12.4 19.9839 11.286 21.2959 11.058 22.7309C11.023 22.8299 11.007 22.9349 11.013 23.0429C11.014 23.0769 11.024 23.1099 11.026 23.1429C11.024 23.2049 11.013 23.2649 11.013 23.3259C11.015 23.6109 11.058 23.8839 11.258 24.4239L11.46 42.4639C11.232 42.7439 11.233 43.0939 11.234 43.2539C11.238 43.5289 11.363 44.0949 11.428 44.3599C12.315 46.9589 16.275 48.6389 21.514 48.6389H21.789C27.262 48.5769 31.348 46.8009 32.204 44.0939L32.28 43.8029C32.338 43.5429 32.365 43.2809 32.363 43.0169C32.358 42.5169 32.152 42.2569 31.955 42.1239L31.757 24.3729C32.048 23.8149 32.146 23.4839 32.141 23.0909C32.141 23.0189 32.125 22.9489 32.12 22.8769C32.124 22.8049 32.138 22.7339 32.137 22.6599C32.135 22.5229 32.089 22.4019 32.025 22.2889C31.921 21.8739 31.739 21.4739 31.489 21.0939L32.752 21.3379L32.903 21.3519C33.011 21.3519 33.116 21.3299 33.223 21.2859L34.553 20.7069L36.006 20.6569C36.159 20.6489 36.306 20.5999 36.432 20.5129L37.617 19.6879L39.032 19.3749C39.178 19.3399 39.312 19.2679 39.424 19.1579L40.443 18.1299L41.774 17.5559C41.921 17.4909 42.045 17.3869 42.128 17.2539L42.917 16.0189L44.072 15.1129C44.226 14.9929 44.33 14.8189 44.364 14.6229L44.529 13.6859L45.119 12.9379C45.27 12.7439 45.325 12.4939 45.264 12.2489V12.2489Z" fill="white"/>
<path fill-rule="evenodd" clip-rule="evenodd" d="M32.2101 18.683C31.3131 18.597 30.4101 18.413 29.7081 17.967C29.3611 17.747 29.0751 17.46 28.9201 17.121C28.7611 16.782 28.7261 16.403 28.8021 16.032C28.8761 15.657 29.0491 15.294 29.2671 14.95C29.3751 14.779 29.5021 14.609 29.6311 14.455C29.7711 14.282 29.9071 14.139 30.0601 13.985C30.6591 13.381 31.3661 12.86 32.1261 12.413C32.8801 11.957 33.6881 11.573 34.5241 11.258C35.3571 10.935 36.2251 10.694 37.1031 10.522C37.9841 10.358 38.8791 10.274 39.7681 10.336C40.6421 10.398 41.5401 10.608 42.1941 11.172C41.9281 10.844 41.5491 10.592 41.1391 10.41C40.7271 10.227 40.2771 10.117 39.8221 10.04C38.9081 9.90398 37.9601 9.92598 37.0341 10.056C35.1761 10.318 33.3811 10.968 31.7771 11.911C30.9831 12.393 30.2311 12.949 29.5961 13.618C28.9821 14.28 28.4151 15.074 28.2901 15.984C28.2271 16.433 28.2941 16.907 28.5251 17.304C28.7531 17.703 29.1181 18.009 29.5261 18.219C30.3521 18.634 31.3011 18.727 32.2101 18.683" fill="white"/>
</svg>
