<svg width="57" height="57" viewBox="0 0 57 57" fill="none" xmlns="http://www.w3.org/2000/svg">
<path fill-rule="evenodd" clip-rule="evenodd" d="M14.632 44.4532L14.675 38.4232L47.835 35.0292L47.815 40.9352L14.632 44.4532ZM8.684 35.4472L8.681 31.5362L12.998 37.9192L12.965 42.5342L8.684 35.4472ZM41.289 24.6862L42.535 15.3362L45.913 15.0582L45.065 22.3422L41.289 24.6862ZM42.843 33.8502L40.955 31.6922L41.068 27.8612L46.804 33.4452L42.843 33.8502ZM14.255 36.7772L13.12 35.1012L40.272 32.3692L41.672 33.9702L14.255 36.7772ZM31.655 27.6672L40.134 26.9662L40.003 31.4312L12.51 34.1962L9.405 29.6062L31.655 27.6672ZM40.248 25.2302L31.575 25.9872L11.471 27.6482L13.598 26.2502C13.806 26.1142 13.943 25.8932 13.973 25.6442L14.906 17.6212L41.556 15.4182L40.248 25.2302ZM42.069 11.7072L44.53 13.4842L14.391 15.9762L11.717 14.0452L42.069 11.7072ZM10.154 14.9892L13.259 17.2322L12.348 25.0612L8.871 27.3442L10.154 14.9892ZM49.511 34.0592C49.507 33.9762 49.492 33.8962 49.464 33.8182C49.454 33.7922 49.446 33.7672 49.434 33.7432C49.398 33.6642 49.35 33.5892 49.288 33.5252C49.282 33.5172 49.277 33.5102 49.271 33.5032C49.268 33.5002 49.267 33.4972 49.266 33.4962L41.876 26.3022L46.296 23.5572C46.514 23.4212 46.658 23.1932 46.689 22.9402L47.701 14.2322C47.707 14.1912 47.7 14.1502 47.699 14.1092C47.699 14.0942 47.706 14.0812 47.705 14.0652C47.704 14.0592 47.699 14.0522 47.698 14.0452C47.687 13.9482 47.661 13.8562 47.62 13.7692C47.609 13.7482 47.595 13.7292 47.583 13.7092C47.544 13.6442 47.498 13.5852 47.442 13.5322C47.425 13.5172 47.411 13.5002 47.392 13.4852C47.38 13.4772 47.372 13.4642 47.359 13.4542L43.037 10.3332C42.906 10.1662 42.719 10.0552 42.5 10.0242C42.487 10.0192 42.473 10.0202 42.458 10.0182C42.413 10.0132 42.37 9.99818 42.323 10.0002L42.201 10.0102C42.186 10.0112 42.173 10.0102 42.158 10.0132L9.412 12.5352C9.007 12.5682 8.683 12.8832 8.641 13.2882L7.066 28.4632C7.061 28.4762 7.062 28.4902 7.057 28.5032C7.027 28.5842 7.011 28.6682 7.007 28.7522C7.006 28.7662 7 28.7782 7 28.7922L7.003 35.6822C7.003 35.8352 7.044 35.9842 7.123 36.1172L12.867 45.6252C12.929 45.7272 13.02 45.7942 13.111 45.8592C13.147 45.9112 13.172 45.9682 13.22 46.0112C13.376 46.1512 13.577 46.2292 13.785 46.2292C13.814 46.2292 13.844 46.2272 13.874 46.2242L48.741 42.5272C49.168 42.4832 49.492 42.1242 49.493 41.6942L49.52 34.1012C49.52 34.0862 49.511 34.0742 49.511 34.0592V34.0592Z" fill="white"/>
</svg>
