<svg width="57" height="57" viewBox="0 0 57 57" fill="none" xmlns="http://www.w3.org/2000/svg">
<path fill-rule="evenodd" clip-rule="evenodd" d="M22.4093 47.5009V20.5999L42.8903 16.4509V42.6349L22.4093 47.5009ZM16.8253 18.8229L20.7283 20.4709V47.1689L16.8253 45.1069V18.8229ZM16.8253 11.9559L37.5123 8.70791V12.7379L16.8253 16.5449V11.9559ZM26.9493 17.9669L21.6573 19.0379L18.9023 17.8739L38.3563 14.3069L40.6913 15.1819L26.9493 17.9669ZM44.5583 15.3649C44.5513 15.2769 44.5333 15.1949 44.5023 15.1169C44.4903 15.0879 44.4813 15.0609 44.4663 15.0329C44.3713 14.8549 44.2233 14.7109 44.0273 14.6359L39.1933 12.8239V7.72391C39.1933 7.47891 39.0853 7.24591 38.8983 7.08491C38.7113 6.92691 38.4663 6.85491 38.2223 6.89591L15.8553 10.4069C15.4463 10.4709 15.1443 10.8239 15.1443 11.2369V17.5549V45.6139C15.1443 45.9249 15.3173 46.2119 15.5923 46.3559L21.1753 49.3079C21.1903 49.3149 21.2063 49.3119 21.2193 49.3189C21.3303 49.3699 21.4463 49.4049 21.5693 49.4049C21.6343 49.4049 21.7003 49.3979 21.7633 49.3809L43.9253 44.1159C44.3033 44.0269 44.5713 43.6879 44.5713 43.2999V15.4239C44.5713 15.4029 44.5593 15.3859 44.5583 15.3649V15.3649Z" fill="white"/>
<path fill-rule="evenodd" clip-rule="evenodd" d="M29.0038 6.2814L27.4048 6.5414C27.2998 6.5594 27.2038 6.6114 27.1298 6.6894C27.0008 6.8304 26.8398 6.9214 26.5838 6.9544C26.4838 6.9544 26.3898 6.9264 26.3168 6.8704C26.2118 6.7924 26.0798 6.7564 25.9508 6.7794L24.3528 7.0394L24.3018 7.0444C24.1858 7.0444 24.1188 6.9744 24.1188 6.8504C24.1188 6.6514 24.3028 6.4384 24.5078 6.4054L26.1038 6.1434C26.2098 6.1264 26.3068 6.0754 26.3788 5.9964C26.5088 5.8554 26.6698 5.7644 26.9258 5.7304C27.0268 5.7304 27.1198 5.7604 27.1928 5.8154C27.2978 5.8954 27.4308 5.9274 27.5588 5.9064L29.2088 5.6414C29.3248 5.6414 29.3908 5.7124 29.3908 5.8344C29.3908 6.0354 29.2068 6.2484 29.0038 6.2814M29.0038 4.6984L27.5828 4.9294C27.3148 4.7884 27.0058 4.7354 26.6778 4.7904C26.3598 4.8424 26.0528 4.9934 25.7998 5.2194L24.3528 5.4564C23.6838 5.5654 23.1578 6.1774 23.1578 6.8504C23.1578 7.5094 23.6498 8.0054 24.3018 8.0054C24.3678 8.0054 24.4368 7.9994 24.5078 7.9884L25.9258 7.7564C26.1928 7.8964 26.5008 7.9474 26.8318 7.8954C27.1498 7.8444 27.4558 7.6934 27.7098 7.4654L29.1578 7.2294C29.8278 7.1194 30.3518 6.5074 30.3518 5.8344C30.3518 5.1094 29.7458 4.5794 29.0038 4.6984" fill="white"/>
</svg>
