<svg width="57" height="57" viewBox="0 0 57 57" fill="none" xmlns="http://www.w3.org/2000/svg">
<path fill-rule="evenodd" clip-rule="evenodd" d="M44.624 23.266C43.643 20.197 37.076 17.894 28.856 17.894C20.635 17.894 14.068 20.197 13.087 23.266C12.83 22.889 12.682 22.5 12.682 22.101C12.682 19.163 20.089 16.681 28.856 16.681C37.623 16.681 45.029 19.163 45.029 22.101C45.029 22.5 44.881 22.889 44.624 23.266V23.266ZM34.924 27.108C33.047 27.361 31.002 27.504 28.856 27.504C26.715 27.504 24.676 27.362 22.806 27.11C18.529 26.51 15.113 25.303 13.577 23.83C13.928 20.912 20.771 18.49 28.856 18.49C36.939 18.49 43.782 20.912 44.134 23.83C42.6 25.302 39.193 26.506 34.924 27.108V27.108ZM16.858 27.476C19.734 28.48 23.697 29.132 28.856 29.132C34.014 29.132 37.976 28.48 40.853 27.476C38.024 28.782 33.658 29.637 28.856 29.637C24.053 29.637 19.687 28.782 16.858 27.476V27.476ZM40.725 34.579L40.284 35.887L40.269 35.93C40.165 36.264 39.937 36.588 39.618 36.897C39.497 35.814 38.575 34.839 37.079 34.078L37.082 34.075L34.909 32.824L34.901 32.84C33.636 32.002 31.356 31.452 28.689 31.452C26.022 31.452 23.741 32.002 22.476 32.841L22.467 32.824L20.288 34.08L20.289 34.082C18.799 34.844 17.88 35.817 17.76 36.897C17.473 36.619 17.275 36.331 17.159 36.032L17.148 36.041L17.123 35.961C17.12 35.95 17.111 35.941 17.108 35.93L17.092 35.879C17.088 35.867 17.09 35.855 17.086 35.845L16.675 34.519C16.675 34.519 16.674 34.521 16.674 34.522L14.206 26.511C16.605 28.719 22.19 30.234 28.856 30.234C35.456 30.234 40.989 28.748 43.427 26.575L40.725 34.579ZM23.431 32.985C24.611 32.443 26.457 32.048 28.689 32.048C30.921 32.048 32.766 32.443 33.947 32.985C32.396 32.627 30.606 32.425 28.689 32.425C26.77 32.425 24.984 32.627 23.431 32.985V32.985ZM28.689 33.022C31.151 33.022 33.444 33.384 35.246 33.978C35.319 34.11 35.36 34.241 35.36 34.371C35.36 35.469 32.621 36.695 28.689 36.695C24.758 36.695 22.017 35.469 22.017 34.371C22.017 34.241 22.059 34.11 22.133 33.978C23.934 33.384 26.227 33.022 28.689 33.022V33.022ZM39.013 37.387C37.047 38.734 33.112 39.678 28.689 39.678C24.265 39.678 20.331 38.734 18.364 37.387C18.35 37.302 18.33 37.219 18.33 37.133C18.33 36.013 19.531 34.98 21.437 34.229C21.432 34.276 21.421 34.323 21.421 34.371C21.421 36.008 24.614 37.291 28.689 37.291C32.764 37.291 35.958 36.008 35.958 34.371C35.958 34.323 35.946 34.276 35.941 34.23C37.847 34.98 39.047 36.013 39.047 37.133C39.047 37.219 39.027 37.302 39.013 37.387V37.387ZM28.689 41.245C24.122 41.245 20.133 40 18.801 38.336C21.013 39.517 24.58 40.275 28.689 40.275C32.798 40.275 36.365 39.517 38.576 38.336C37.244 40 33.256 41.245 28.689 41.245V41.245ZM46.71 22.067C46.71 21.825 46.675 21.581 46.617 21.339C46.592 21.228 46.552 21.123 46.519 21.017C46.479 20.903 46.442 20.791 46.391 20.677C46.319 20.517 46.237 20.361 46.143 20.207C46.116 20.163 46.088 20.12 46.058 20.077C45.937 19.892 45.806 19.71 45.652 19.536C45.639 19.52 45.623 19.504 45.609 19.49C45.442 19.303 45.266 19.119 45.064 18.944C42.778 16.901 38.048 15.258 30.606 15.033C30.024 15.012 29.439 15 28.856 15H28.85C28.268 15 27.686 15.012 27.107 15.033C19.663 15.257 14.933 16.901 12.647 18.944C12.445 19.119 12.27 19.302 12.103 19.489C12.089 19.504 12.072 19.519 12.059 19.536C11.905 19.71 11.774 19.892 11.653 20.077C11.623 20.12 11.593 20.163 11.567 20.207C11.474 20.361 11.391 20.517 11.32 20.677C11.269 20.791 11.231 20.903 11.193 21.017C11.159 21.123 11.119 21.228 11.094 21.339C11.036 21.581 11 21.825 11 22.067C11 22.072 11.002 22.079 11.002 22.085C11.002 22.09 11 22.096 11 22.101C11 22.92 11.297 23.71 11.884 24.452C11.901 24.606 11.931 24.764 11.969 24.921C11.976 24.969 11.987 25.015 12.001 25.063L15.504 36.437C15.525 36.5 15.55 36.56 15.58 36.618C15.824 37.253 16.269 37.844 16.903 38.379C18.005 41.074 22.748 42.926 28.689 42.926C34.629 42.926 39.372 41.074 40.474 38.379C41.104 37.849 41.546 37.262 41.792 36.631C41.82 36.58 41.842 36.528 41.861 36.471L45.689 25.125C45.71 25.064 45.725 25.003 45.733 24.943C45.776 24.776 45.807 24.613 45.826 24.453C46.412 23.711 46.71 22.921 46.71 22.101C46.71 22.096 46.708 22.09 46.708 22.085C46.708 22.079 46.71 22.072 46.71 22.067V22.067Z" fill="white"/>
</svg>
