<svg width="57" height="57" viewBox="0 0 57 57" fill="none" xmlns="http://www.w3.org/2000/svg">
<path fill-rule="evenodd" clip-rule="evenodd" d="M20.5604 20.4757C20.5974 20.4857 24.2934 21.4557 28.2214 21.4557C32.1494 21.4557 35.8474 20.4857 35.8834 20.4757C36.0224 20.4387 36.1084 20.2997 36.0804 20.1587C36.0544 20.0317 35.9414 19.9417 35.8144 19.9417C35.8014 19.9417 35.7884 19.9437 35.7754 19.9457C35.7384 19.9507 31.9794 20.4827 28.2244 20.4827C24.4674 20.4827 20.7054 19.9507 20.6684 19.9457C20.6554 19.9437 20.6424 19.9417 20.6284 19.9417C20.5034 19.9417 20.3904 20.0317 20.3644 20.1587C20.3364 20.2997 20.4214 20.4387 20.5604 20.4757" fill="white"/>
<path fill-rule="evenodd" clip-rule="evenodd" d="M39.532 45.162C37.663 43.52 32.803 42.755 28.204 42.755C23.606 42.755 18.745 43.52 16.877 45.161C16.84 39.781 16.681 23.179 16.681 20.964C16.681 18.456 19.595 18.389 21.29 18.049C22.984 17.711 22.375 14.661 20.951 14.661H35.458C34.035 14.661 33.424 17.711 35.119 18.049C36.813 18.389 39.728 18.456 39.728 20.964C39.728 23.179 39.569 39.784 39.532 45.162V45.162ZM28.204 49.804C21.952 49.804 16.884 48.408 16.884 46.686C16.884 44.964 21.952 43.568 28.204 43.568C34.455 43.568 39.522 44.964 39.522 46.686C39.522 48.408 34.455 49.804 28.204 49.804V49.804ZM22.507 11.684L21.901 12.046L21.925 12.013L22.507 11.684ZM28.246 6.681C29.871 6.681 31.189 7.219 31.189 7.88C31.189 8.208 30.879 8.512 30.359 8.727C30.265 9.18 30.262 9.548 30.304 9.839C29.662 9.771 28.977 9.73 28.237 9.73C27.491 9.73 26.8 9.771 26.154 9.841C26.195 9.549 26.201 9.176 26.107 8.723C25.597 8.508 25.303 8.205 25.303 7.88C25.303 7.219 26.62 6.681 28.246 6.681V6.681ZM21.65 12.418C21.669 12.385 21.697 12.353 21.721 12.32C21.767 12.256 21.827 12.192 21.897 12.125C21.941 12.082 21.987 12.039 22.042 11.995C22.117 11.935 22.21 11.875 22.303 11.814C22.433 11.729 22.582 11.646 22.748 11.563C22.854 11.509 22.957 11.456 23.078 11.404C23.213 11.345 23.369 11.292 23.523 11.237C23.63 11.199 23.738 11.161 23.852 11.126C24.023 11.072 24.204 11.022 24.396 10.974C24.522 10.942 24.66 10.914 24.794 10.886C25 10.841 25.202 10.796 25.429 10.759C26.235 10.627 27.164 10.543 28.237 10.543C29.311 10.543 30.239 10.627 31.047 10.759C31.273 10.796 31.474 10.841 31.681 10.886C31.806 10.912 31.933 10.938 32.052 10.968L33.57 11.486C33.621 11.512 33.676 11.536 33.726 11.562C33.893 11.646 34.041 11.729 34.173 11.814C34.265 11.875 34.358 11.935 34.433 11.995C34.488 12.039 34.534 12.082 34.579 12.125C34.648 12.192 34.708 12.256 34.755 12.32C34.779 12.353 34.807 12.385 34.824 12.418C34.878 12.511 34.913 12.601 34.913 12.679C34.913 13.38 34.681 13.847 33.884 13.847H22.591C21.795 13.847 21.561 13.38 21.561 12.679C21.561 12.601 21.597 12.511 21.65 12.418V12.418ZM36.151 16.523C36.024 16.502 35.9 16.482 35.783 16.462C35.794 16.399 35.808 16.345 35.824 16.301C36.577 16.133 37.141 15.461 37.141 14.661C37.141 14.142 36.904 13.677 36.535 13.368L36.514 13.369L36.522 13.323C36.646 12.671 37.003 10.484 32.32 9.301L32.262 9.238L32.357 9.304C32.788 8.769 32.869 8.221 32.869 7.88C32.869 5.891 30.547 5 28.246 5C25.944 5 23.621 5.891 23.621 7.88C23.621 8.218 23.702 8.765 24.133 9.301C19.449 10.484 19.807 12.671 19.931 13.323L19.933 13.326C19.53 13.632 19.27 14.116 19.27 14.661C19.27 15.461 19.833 16.132 20.583 16.301C20.601 16.345 20.616 16.399 20.626 16.462C20.51 16.482 20.39 16.501 20.267 16.521C18.551 16.799 15 17.373 15 20.964C15 22.253 15.203 45.573 15.203 46.652V46.668V46.683V46.686C15.203 50.228 22.207 51.484 28.204 51.484C34.189 51.484 41.177 50.233 41.203 46.706C41.204 46.689 41.205 46.672 41.205 46.654V46.652V46.651V46.65C41.205 45.567 41.408 22.253 41.408 20.964C41.408 17.373 37.858 16.799 36.151 16.523V16.523Z" fill="white"/>
</svg>
