<svg width="57" height="57" viewBox="0 0 57 57" fill="none" xmlns="http://www.w3.org/2000/svg">
<path fill-rule="evenodd" clip-rule="evenodd" d="M41.726 38.496C42.175 40.76 42.456 42.102 42.684 42.895C35.966 48.488 22.647 48.464 15.99 42.819C16.167 41.953 16.368 40.47 16.712 37.931C16.991 35.898 17.309 33.384 17.433 31.759C20.417 33.297 24.412 34.225 28.862 34.225C30.929 34.225 32.946 34.018 34.86 33.615C35.329 33.516 35.629 33.054 35.53 32.586C35.431 32.115 34.968 31.815 34.501 31.915C32.707 32.294 30.809 32.487 28.862 32.487C20.663 32.487 13.737 28.922 13.737 24.704V20.019C13.737 15.974 20.231 9.736 28.862 9.736C37.493 9.736 43.986 15.974 43.986 20.019V24.704C43.986 26.7 42.475 28.223 41.208 29.149C41.053 29.261 40.941 29.42 40.887 29.6L40.703 30.211C40.676 30.292 40.666 30.378 40.666 30.46C40.666 32.665 41.245 36.047 41.726 38.496M45.724 24.704V20.019C45.724 14.609 37.943 8 28.862 8C19.781 8 12 14.609 12 20.019V24.704C12 27.021 13.395 29.12 15.747 30.754C15.709 33.056 14.401 41.979 14.227 42.907C14.202 42.988 14.187 43.072 14.187 43.158C14.187 43.436 14.32 43.684 14.521 43.846C18.216 47.175 23.799 48.84 29.381 48.84C34.947 48.84 40.514 47.186 44.206 43.876C44.244 43.847 44.282 43.815 44.317 43.781C44.481 43.618 44.573 43.389 44.573 43.158C44.573 43.003 44.533 42.857 44.46 42.728C44.123 41.603 42.443 34.245 42.405 30.586L42.468 30.375C44.599 28.741 45.724 26.786 45.724 24.704" fill="white"/>
<path fill-rule="evenodd" clip-rule="evenodd" d="M18.353 17.3947C18.638 16.9697 18.997 16.5677 19.389 16.1937C20.186 15.4517 21.105 14.7927 22.081 14.2147C24.034 13.0567 26.195 12.2027 28.438 11.4987C26.084 11.6177 23.734 12.1797 21.538 13.1797C20.445 13.6907 19.379 14.3017 18.426 15.1137C17.489 15.9227 16.553 16.8997 16.213 18.3627C16.043 19.0977 16.167 19.9527 16.54 20.5977C16.905 21.2487 17.406 21.7337 17.924 22.1307C18.971 22.9307 20.152 23.3677 21.315 23.7167C23.671 24.3457 26.1 24.4587 28.438 24.0867C26.108 23.7007 23.837 23.2507 21.739 22.4327C20.691 22.0447 19.702 21.5237 18.889 20.8957C18.489 20.5777 18.153 20.2087 17.954 19.8317C17.749 19.4567 17.682 19.0857 17.762 18.6767C17.838 18.2557 18.06 17.8097 18.353 17.3947" fill="white"/>
</svg>
