<svg width="57" height="57" viewBox="0 0 57 57" fill="none" xmlns="http://www.w3.org/2000/svg">
<path fill-rule="evenodd" clip-rule="evenodd" d="M35.302 47.1895C35.328 47.0345 35.348 46.8715 35.348 46.6995C35.348 45.8165 34.965 45.1005 34.495 45.1005C34.023 45.1005 33.643 45.8165 33.643 46.6995C33.643 47.0235 33.695 47.3215 33.783 47.5735C32.353 47.8675 30.582 48.0665 28.474 48.0665C22.332 48.0665 18.98 46.3945 18.98 45.5345V24.6245C18.99 24.6245 18.997 24.6335 19.006 24.6335C19.373 24.6335 19.672 24.0755 19.672 23.3845C19.672 22.6945 19.373 22.1355 19.006 22.1355C18.997 22.1355 18.99 22.1435 18.98 22.1455V13.7625C21.059 15.0065 24.777 15.6525 28.474 15.6525C32.172 15.6525 35.891 15.0065 37.969 13.7625V39.1105C37.508 39.1335 37.138 39.8365 37.138 40.7045C37.138 41.5735 37.508 42.2755 37.969 42.2985V45.5345C37.969 45.9835 37.048 46.6515 35.302 47.1895M28.474 8.9075C34.618 8.9075 37.969 10.5795 37.969 11.4395C37.969 12.2985 34.618 13.9705 28.474 13.9705C22.332 13.9705 18.98 12.2985 18.98 11.4395C18.98 10.5795 22.332 8.9075 28.474 8.9075M28.474 7.2265C22.921 7.2265 17.299 8.6735 17.299 11.4395V45.5345C17.299 48.3005 22.921 49.7465 28.474 49.7465C34.028 49.7465 39.65 48.3005 39.65 45.5345V11.4395C39.65 8.6735 34.028 7.2265 28.474 7.2265" fill="white"/>
<path fill-rule="evenodd" clip-rule="evenodd" d="M35.3275 19.3876C34.9585 19.3876 34.6615 19.9476 34.6615 20.6356C34.6615 21.3266 34.9585 21.8866 35.3275 21.8866C35.6965 21.8866 35.9935 21.3266 35.9935 20.6356C35.9935 19.9476 35.6965 19.3876 35.3275 19.3876" fill="white"/>
<path fill-rule="evenodd" clip-rule="evenodd" d="M32.8302 27.215C32.4602 27.215 32.1622 27.775 32.1622 28.463C32.1622 29.154 32.4602 29.714 32.8302 29.714C33.1972 29.714 33.4952 29.154 33.4952 28.463C33.4952 27.775 33.1972 27.215 32.8302 27.215" fill="white"/>
<path fill-rule="evenodd" clip-rule="evenodd" d="M36.3271 31.4607C35.9581 31.4607 35.6601 32.0217 35.6601 32.7097C35.6601 33.3997 35.9581 33.9597 36.3271 33.9597C36.6951 33.9597 36.9921 33.3997 36.9921 32.7097C36.9921 32.0217 36.6951 31.4607 36.3271 31.4607" fill="white"/>
<path fill-rule="evenodd" clip-rule="evenodd" d="M34.1624 35.4585C33.7924 35.4585 33.4954 36.0185 33.4954 36.7065C33.4954 37.3975 33.7924 37.9575 34.1624 37.9575C34.5304 37.9575 34.8274 37.3975 34.8274 36.7065C34.8274 36.0185 34.5304 35.4585 34.1624 35.4585" fill="white"/>
</svg>
