<svg width="57" height="57" viewBox="0 0 57 57" fill="none" xmlns="http://www.w3.org/2000/svg">
<path fill-rule="evenodd" clip-rule="evenodd" d="M35.9696 44.0194C35.9696 47.0544 35.3606 48.1824 33.7176 48.1824H22.9286C21.2876 48.1824 20.6756 47.0544 20.6756 44.0194V21.8574C20.6756 19.5434 21.7346 18.0724 22.5316 17.1684C23.3916 16.1924 24.2726 14.9674 24.2726 13.3074V12.1654L26.6436 11.4474C27.0876 11.3134 27.3386 10.8424 27.2036 10.3994C27.0696 9.95541 26.6046 9.70541 26.1556 9.83841L24.2726 10.4104V9.02441H32.3726V10.2874L30.1016 10.9744C29.6576 11.1094 29.4056 11.5794 29.5406 12.0234C29.6506 12.3854 29.9836 12.6204 30.3446 12.6204C30.4256 12.6204 30.5076 12.6084 30.5886 12.5844L32.3726 12.0444V13.3074C32.3726 14.9654 33.2516 16.1914 34.1126 17.1684C34.9096 18.0734 35.9696 19.5444 35.9696 21.8574V44.0194ZM35.3766 16.0584C34.6876 15.2784 34.0526 14.4044 34.0526 13.3074V11.5344L34.5836 11.3724C35.0276 11.2384 35.2786 10.7694 35.1436 10.3254C35.0086 9.88141 34.5446 9.63141 34.0956 9.76441L34.0526 9.77741V7.34341H22.5916V10.9194L22.1626 11.0494C21.7176 11.1844 21.4676 11.6524 21.6016 12.0974C21.7126 12.4594 22.0436 12.6934 22.4056 12.6934C22.4666 12.6934 22.5286 12.6804 22.5916 12.6664V13.3074C22.5916 14.4064 21.9566 15.2794 21.2706 16.0574C20.2936 17.1664 18.9956 18.9734 18.9956 21.8574V44.0194C18.9956 45.6184 18.9956 49.8644 22.9286 49.8644H33.7176C37.6506 49.8644 37.6506 45.6184 37.6506 44.0194V21.8574C37.6506 18.9764 36.3536 17.1674 35.3766 16.0584V16.0584Z" fill="white"/>
</svg>
