<svg width="57" height="57" viewBox="0 0 57 57" fill="none" xmlns="http://www.w3.org/2000/svg">
<path fill-rule="evenodd" clip-rule="evenodd" d="M27.341 19.255C27.72 19.163 27.983 18.826 27.983 18.437V12.318H29.891V18.432C29.891 18.824 30.157 19.161 30.537 19.252C32.1 19.628 33.192 21.016 33.192 22.629V46.981C33.192 47.604 32.686 48.107 32.064 48.107H25.811C25.19 48.107 24.685 47.604 24.685 46.981V22.629C24.685 21.026 25.777 19.639 27.341 19.255V19.255ZM27.73 9.506H30.145V10.079H27.73V9.506ZM31.576 17.814V11.474C31.576 11.377 31.56 11.282 31.528 11.193C31.722 10.942 31.831 10.63 31.831 10.306V9.459C31.831 8.656 31.176 8 30.372 8H27.503C26.699 8 26.046 8.656 26.046 9.459V10.306C26.046 10.629 26.151 10.939 26.345 11.191C26.314 11.281 26.297 11.376 26.297 11.474V17.82C24.314 18.587 23 20.487 23 22.629V46.981C23 48.533 24.26 49.793 25.811 49.793H32.064C33.615 49.793 34.875 48.533 34.875 46.981V22.629C34.875 20.476 33.56 18.573 31.576 17.814V17.814Z" fill="white"/>
<path fill-rule="evenodd" clip-rule="evenodd" d="M25.9156 24.4824C26.2966 24.4824 26.6026 24.1744 26.6026 23.7934C26.6026 23.4154 26.2966 23.1064 25.9156 23.1064C25.5346 23.1064 25.2266 23.4154 25.2266 23.7934C25.2266 24.1744 25.5346 24.4824 25.9156 24.4824" fill="white"/>
<path fill-rule="evenodd" clip-rule="evenodd" d="M27.3653 47.3365C27.9153 47.2415 28.4603 47.1675 29.0043 47.1315C29.5473 47.0955 30.0883 47.0975 30.6303 47.1575C31.1753 47.2125 31.7123 47.3355 32.2783 47.5035C31.8673 47.0765 31.3213 46.7815 30.7453 46.6045C30.1673 46.4295 29.5553 46.3745 28.9563 46.4145C28.3573 46.4555 27.7703 46.5895 27.2163 46.7945C26.6663 47.0055 26.1353 47.2765 25.6843 47.6645C26.2613 47.5465 26.8133 47.4295 27.3653 47.3365" fill="white"/>
<path fill-rule="evenodd" clip-rule="evenodd" d="M26.3954 45.372V25.96C26.3954 25.693 26.1804 25.479 25.9154 25.479C25.6504 25.479 25.4344 25.693 25.4344 25.96V45.372C25.4344 45.637 25.6504 45.851 25.9154 45.851C26.1804 45.851 26.3954 45.637 26.3954 45.372" fill="white"/>
</svg>
