<svg width="57" height="57" viewBox="0 0 57 57" fill="none" xmlns="http://www.w3.org/2000/svg">
<path fill-rule="evenodd" clip-rule="evenodd" d="M13.2323 39.92L11.7433 27.91L20.0263 36.564C20.0393 36.578 20.0613 36.574 20.0763 36.585L20.1173 48.053L13.2323 39.92ZM14.4573 18.132L18.4043 21.826C18.5153 21.932 18.6633 21.987 18.8123 21.987C18.8793 21.987 18.9463 21.977 19.0113 21.954L38.1373 15.155L36.3063 18.257L32.6213 19.573C32.5143 19.611 32.4383 19.708 32.4253 19.822C32.4143 19.923 32.4613 20.015 32.5383 20.078L17.8013 25.104L17.1993 24.604C17.1083 24.529 16.9833 24.515 16.8783 24.565L11.7973 27.026L14.4573 18.132ZM38.6083 14.354V14.354L18.8123 21.391L14.6483 17.493L42.0623 8.68L44.8523 12.135L38.6083 14.354ZM20.6713 36.449L33.3383 31.356C33.3383 31.356 33.7123 31.729 34.3653 31.729C34.5833 31.729 34.8323 31.688 35.1093 31.577C36.2163 31.134 37.7223 29.098 37.7223 29.098L46.1813 24.358L44.1043 36.19L20.7153 48.761L20.6713 36.449ZM25.5333 32.298L20.2803 35.966L12.1793 27.504L16.9663 25.186L25.5333 32.298ZM36.3843 18.863L45.1373 24.08L41.8123 25.247L33.3993 19.929L36.3843 18.863ZM41.6163 25.829C41.6633 25.859 41.7193 25.875 41.7743 25.875C41.8073 25.875 41.8413 25.87 41.8733 25.858L42.9753 25.471L37.4303 28.577C37.3573 28.618 37.2933 28.675 37.2433 28.743C36.7073 29.464 35.6223 30.696 34.9293 31.001L36.0973 22.34L41.6163 25.829ZM33.1463 20.501C33.1543 20.497 33.1563 20.489 33.1633 20.485L35.5433 21.991L34.3113 31.127C33.9693 31.107 33.7623 30.936 33.7603 30.934C33.6453 30.819 33.4933 30.76 33.3373 30.76C33.2633 30.76 33.1873 30.773 33.1143 30.803L22.7463 34.972L26.1953 32.564C26.2703 32.51 26.3183 32.424 26.3213 32.331C26.3263 32.239 26.2863 32.149 26.2153 32.089L18.3393 25.55L33.1463 20.501ZM47.0533 22.921L38.5523 17.759L39.7473 15.733L45.4153 13.719C45.9283 13.536 46.3223 13.117 46.4703 12.592C46.6183 12.067 46.5023 11.503 46.1593 11.079L43.3693 7.625C43.0453 7.223 42.5613 7 42.0623 7C41.8903 7 41.7173 7.026 41.5473 7.08L14.1343 15.894C13.6073 16.063 13.1973 16.482 13.0383 17.012L10.0713 26.933C10.0043 27.155 9.98427 27.39 10.0123 27.621L11.5643 40.126C11.6043 40.45 11.7393 40.756 11.9493 41.006L19.4333 49.846C19.7623 50.235 20.2343 50.441 20.7163 50.441C20.9873 50.441 21.2603 50.376 21.5123 50.242L44.8993 37.67C45.3543 37.425 45.6703 36.987 45.7593 36.479L47.8363 24.649C47.9563 23.967 47.6453 23.281 47.0533 22.921V22.921Z" fill="white"/>
</svg>
