<svg width="57" height="57" viewBox="0 0 57 57" fill="none" xmlns="http://www.w3.org/2000/svg">
<path fill-rule="evenodd" clip-rule="evenodd" d="M29.5304 43.347V36.977L46.2044 31.093L45.7564 35.911L29.5304 43.347ZM10.5044 31.083L10.3134 27.45L28.4464 36.922V43.229L10.5044 31.083ZM27.1904 13.681L27.2704 13.696V19.851L26.5134 19.659V13.747L27.1904 13.681ZM46.8944 23.674C46.8394 23.672 46.7834 23.67 46.7264 23.686L29.5304 28.267V21.605L29.7344 21.676C29.9144 21.738 30.1004 21.771 30.2884 21.771C30.3724 21.771 30.4564 21.764 30.5404 21.751L47.3104 19.216L46.8944 23.674ZM45.9364 17.723L30.2884 20.09L29.3044 19.746L28.3544 19.901V13.9L45.9864 17.212L45.9364 17.723ZM27.4024 21.619C27.5384 21.652 27.6774 21.67 27.8154 21.67C27.9054 21.67 27.9974 21.662 28.0864 21.648L28.4464 21.59V28.177L10.1754 21.008C10.1084 20.983 10.0394 20.972 9.97335 20.974L9.77135 17.153L27.4024 21.619ZM11.1994 15.78L11.1484 15.252L25.4294 13.853V19.384L11.1994 15.78ZM10.2524 26.273L10.0334 22.119L28.4464 29.341V35.698L10.5054 26.326C10.4244 26.285 10.3374 26.272 10.2524 26.273V26.273ZM46.3114 29.95C46.2404 29.946 46.1714 29.955 46.1024 29.979L29.5304 35.826V29.388L46.7904 24.792L46.3114 29.95ZM49.1514 17.522C49.1514 17.505 49.1444 17.491 49.1444 17.477C49.1424 17.297 49.1154 17.124 49.0614 16.961C49.0544 16.938 49.0444 16.919 49.0354 16.896C48.9734 16.734 48.8914 16.582 48.7844 16.447C48.7724 16.433 48.7564 16.42 48.7444 16.405C48.6304 16.27 48.4974 16.151 48.3454 16.058C48.3354 16.051 48.3244 16.048 48.3134 16.041C48.1514 15.947 47.9744 15.876 47.7804 15.84L27.5004 12.028C27.3974 12.009 27.2934 12 27.1904 12C27.1344 12 27.0794 12.003 27.0254 12.008L9.51535 13.723C9.32335 13.741 9.14635 13.797 8.98135 13.873C8.96335 13.88 8.94735 13.886 8.93035 13.894C8.77335 13.971 8.63735 14.074 8.51435 14.193C8.49635 14.212 8.47635 14.227 8.45835 14.247C8.34435 14.369 8.25035 14.508 8.17635 14.66C8.16335 14.685 8.15135 14.71 8.14035 14.735C8.07335 14.892 8.02835 15.059 8.01135 15.235C8.01035 15.247 8.00335 15.257 8.00235 15.268C8.00135 15.286 8.00835 15.302 8.00835 15.317C8.00535 15.373 7.99835 15.428 8.00035 15.484L8.82635 31.171C8.85435 31.698 9.12735 32.18 9.56235 32.475L28.0454 44.988C28.3284 45.179 28.6564 45.276 28.9884 45.276C29.2254 45.276 29.4644 45.225 29.6884 45.125L46.4554 37.439C47.0024 37.187 47.3734 36.665 47.4294 36.066L49.1444 17.648C49.1474 17.616 49.1424 17.587 49.1444 17.558C49.1454 17.545 49.1514 17.534 49.1514 17.522V17.522Z" fill="white"/>
</svg>
