<svg width="57" height="57" viewBox="0 0 57 57" fill="none" xmlns="http://www.w3.org/2000/svg">
<path fill-rule="evenodd" clip-rule="evenodd" d="M48.3838 32.5899L24.6128 36.6229V32.9709L39.2118 30.7629L48.3838 29.3769V32.5899ZM9.22782 23.7269L22.8728 32.7129L22.9118 35.9859L9.22482 26.3439L9.22782 23.7269ZM27.9458 25.6459C28.1028 25.7359 28.2868 25.7729 28.4688 25.7489L38.6988 24.4359L46.3388 27.9849L23.9518 31.3699L10.6648 22.6559L20.0608 21.1559L27.9458 25.6459ZM50.0528 28.3449C50.0468 28.2609 50.0298 28.1809 49.9998 28.1029C49.9898 28.0789 49.9868 28.0539 49.9748 28.0309C49.9268 27.9339 49.8618 27.8479 49.7808 27.7749C49.7768 27.7719 49.7748 27.7659 49.7718 27.7619C49.7598 27.7519 49.7428 27.7499 49.7308 27.7389C49.6818 27.7019 49.6348 27.6629 49.5788 27.6369L39.1888 22.8079C39.0428 22.7419 38.8828 22.7159 38.7268 22.7379L28.5328 24.0459L20.6348 19.5489C20.4708 19.4539 20.2788 19.4199 20.0868 19.4499L8.25682 21.3379C8.24682 21.3399 8.23882 21.3449 8.23082 21.3469C8.17882 21.3569 8.12882 21.3759 8.07882 21.3949C8.05482 21.4059 8.02782 21.4099 8.00482 21.4219C8.00082 21.4259 7.99482 21.4259 7.98982 21.4279C7.93182 21.4589 7.88282 21.4989 7.83482 21.5419C7.82682 21.5479 7.81782 21.5519 7.80982 21.5599C7.75082 21.6149 7.70282 21.6779 7.66382 21.7469C7.65182 21.7659 7.64682 21.7869 7.63882 21.8059C7.61282 21.8579 7.58982 21.9109 7.57582 21.9689C7.57382 21.9759 7.56882 21.9829 7.56682 21.9919C7.56182 22.0139 7.56582 22.0379 7.56282 22.0619C7.55782 22.0969 7.54882 22.1299 7.54882 22.1669L7.54382 26.7799C7.54382 27.0539 7.67682 27.3109 7.89982 27.4669L23.2868 38.3059C23.3298 38.3369 23.3768 38.3519 23.4238 38.3729C23.4508 38.3849 23.4748 38.4019 23.5028 38.4109C23.5898 38.4419 23.6808 38.4589 23.7718 38.4589C23.8198 38.4589 23.8658 38.4549 23.9128 38.4459L49.3638 34.1289C49.7688 34.0589 50.0648 33.7099 50.0648 33.2999V28.3999C50.0648 28.3799 50.0538 28.3649 50.0528 28.3449V28.3449Z" fill="white"/>
</svg>
