<svg width="57" height="57" viewBox="0 0 57 57" fill="none" xmlns="http://www.w3.org/2000/svg">
<path fill-rule="evenodd" clip-rule="evenodd" d="M36.355 43.682H21.05V20.438H36.355V43.682ZM21.643 18.77L22.64 16.986H34.764L35.761 18.77H21.643ZM35.666 45.52L34.764 47.137H22.64L21.738 45.52H35.666ZM37.822 19.107L35.958 15.769C35.815 15.511 35.542 15.35 35.245 15.35H22.16C21.864 15.35 21.591 15.512 21.448 15.769L19.639 19.024C19.493 19.179 19.413 19.379 19.413 19.587V44.703C19.413 44.984 19.56 45.244 19.793 45.393L21.447 48.352C21.592 48.611 21.865 48.773 22.16 48.773H35.245C35.541 48.773 35.814 48.611 35.957 48.352L37.611 45.394C37.845 45.246 37.991 44.985 37.991 44.703V19.587C37.991 19.393 37.917 19.202 37.822 19.107V19.107Z" fill="white"/>
<path fill-rule="evenodd" clip-rule="evenodd" d="M22.1997 8.51073C22.9087 8.51073 23.5447 8.93373 23.8097 9.55573L25.0257 12.9867C25.0647 13.0777 25.0857 13.1757 25.0857 13.2817C25.0857 13.7017 24.7437 14.0457 24.3217 14.0457C24.1747 14.0457 24.0347 14.0047 23.9137 13.9277L20.8337 11.3777C20.5817 11.0647 20.4427 10.6727 20.4427 10.2697C20.4427 9.30173 21.2287 8.51073 22.1997 8.51073M20.2367 12.1217L23.2407 14.6097L23.2787 14.6377C23.5667 14.8327 23.9027 14.9377 24.2547 14.9377C25.2147 14.9377 25.9967 14.1557 25.9967 13.1947C25.9967 12.9567 25.9487 12.7297 25.8707 12.5437L24.7067 9.26473C24.2827 8.26473 23.3087 7.62073 22.2237 7.62073C20.7387 7.62073 19.5307 8.82773 19.5307 10.3127C19.5307 10.9537 19.7597 11.5737 20.1747 12.0597C20.1937 12.0827 20.2147 12.1037 20.2367 12.1217" fill="white"/>
<path fill-rule="evenodd" clip-rule="evenodd" d="M22.3035 10.1067C22.4305 10.1067 22.5465 10.1767 22.5905 10.2617L23.1775 11.6207C23.1835 11.6367 23.1695 11.6707 23.1775 11.6847L22.0495 10.6627C21.9965 10.5987 21.9675 10.5217 21.9675 10.4417C21.9675 10.2577 22.1195 10.1067 22.3035 10.1067M21.4765 11.3437L22.5065 12.2787C22.6775 12.4327 22.8975 12.5187 23.1265 12.5187C23.6355 12.5187 24.0475 12.1057 24.0475 11.5977C24.0475 11.4477 24.0115 11.3027 23.9455 11.1707L23.4115 9.94171C23.2045 9.53271 22.7905 9.27771 22.3315 9.27771C21.6645 9.27771 21.1215 9.82171 21.1215 10.4887C21.1215 10.7977 21.2385 11.0907 21.4485 11.3167C21.4585 11.3267 21.4675 11.3357 21.4765 11.3437" fill="white"/>
<path fill-rule="evenodd" clip-rule="evenodd" d="M22.7642 40.6623C23.0292 40.6623 23.2432 40.4483 23.2432 40.1833V22.4943C23.2432 22.2283 23.0292 22.0143 22.7642 22.0143C22.4982 22.0143 22.2842 22.2283 22.2842 22.4943V40.1833C22.2842 40.4483 22.4982 40.6623 22.7642 40.6623" fill="white"/>
</svg>
