<svg width="57" height="57" viewBox="0 0 57 57" fill="none" xmlns="http://www.w3.org/2000/svg">
<path fill-rule="evenodd" clip-rule="evenodd" d="M14.6658 36.067C14.7078 36.306 14.7768 36.559 14.8808 36.83C15.2038 37.671 15.8048 38.602 16.5268 39.384C17.4418 40.373 18.6518 41.163 19.6828 41.41L18.8838 42.146C18.6828 42.332 18.4168 42.424 18.1088 42.435C17.2358 42.462 16.0218 41.828 15.0038 40.726C13.6248 39.235 13.1278 37.452 13.8918 36.746L14.6658 36.067ZM15.4598 35.37L33.2558 19.748C33.2758 19.98 33.3198 20.226 33.3998 20.49C33.6518 21.315 34.1698 22.196 34.8248 22.902C35.6638 23.814 36.7888 24.547 37.7598 24.746L20.4888 40.667C19.8028 40.803 18.2888 40.093 17.1238 38.831C16.4688 38.123 15.9278 37.287 15.6388 36.539C15.4518 36.051 15.3928 35.635 15.4598 35.37V35.37ZM38.2038 16.028C37.9158 16.873 38.2578 18.016 39.1618 18.995C39.9118 19.808 40.8448 20.276 41.6558 20.25C41.7958 20.245 41.9208 20.205 42.0488 20.172C42.0098 20.449 41.9028 20.685 41.7178 20.857L38.7628 23.821L38.7168 23.864L38.7008 23.846C38.2348 24.276 36.6718 23.705 35.4208 22.351C34.8488 21.73 34.3958 20.966 34.1788 20.253C33.9878 19.624 34.0118 19.123 34.2418 18.911L34.2258 18.896L37.5068 16.301C37.6888 16.131 37.9318 16.049 38.2038 16.028V16.028ZM39.0348 16.145V16.145C39.0698 16.084 39.1088 16.026 39.1608 15.977L40.5038 14.799C40.6438 14.67 40.8288 14.604 41.0408 14.597C41.5828 14.581 42.3028 14.942 42.8968 15.583C43.7218 16.476 43.9878 17.572 43.4908 18.03L42.1698 19.235C42.0288 19.365 41.8438 19.43 41.6288 19.437C41.0818 19.455 40.3568 19.09 39.7588 18.443C39.0138 17.638 38.7268 16.67 39.0348 16.145V16.145ZM13.7688 41.867C15.1118 43.32 16.7558 44.16 18.1638 44.115C18.8878 44.091 19.5298 43.838 20.0228 43.382L39.9018 25.058C39.9198 25.041 39.9368 25.024 39.9518 25.008L42.8888 22.062C43.4228 21.555 43.7148 20.861 43.7468 20.072L44.6228 19.273C45.3288 18.62 45.5818 17.639 45.3238 16.573C45.1438 15.838 44.7218 15.081 44.1318 14.443C43.2168 13.453 42.0408 12.883 40.9868 12.917C40.3598 12.938 39.7988 13.161 39.3618 13.563L38.4778 14.341C38.3868 14.337 38.2968 14.336 38.2068 14.339C37.5218 14.36 36.9078 14.594 36.4258 15.012L33.1738 17.585C33.1528 17.602 33.1298 17.62 33.1088 17.64L12.7828 35.484C11.2338 36.914 11.6618 39.586 13.7688 41.867V41.867Z" fill="white"/>
<path fill-rule="evenodd" clip-rule="evenodd" d="M42.6138 18.1914C42.5508 17.7004 42.2688 17.1154 41.7888 16.5974C41.3128 16.0824 40.7558 15.7544 40.2738 15.6514C40.3358 16.1414 40.6188 16.7264 41.0988 17.2454C41.5748 17.7624 42.1308 18.0884 42.6138 18.1914" fill="white"/>
</svg>
