<svg width="57" height="57" viewBox="0 0 57 57" fill="none" xmlns="http://www.w3.org/2000/svg">
<path fill-rule="evenodd" clip-rule="evenodd" d="M24.8641 27.9203L36.3581 35.8603V40.4943L21.2811 30.0793C22.3601 29.4283 23.6011 28.6813 24.8641 27.9203V27.9203ZM16.5411 29.3093L18.9741 27.8543L19.3981 29.2523C19.3511 29.2813 19.3011 29.3103 19.2531 29.3403L16.5411 29.3093ZM13.8801 24.4353L17.8681 24.2083L18.8311 27.3803L15.6291 29.2953L13.8801 24.4353ZM25.6631 17.3613L26.0611 18.6193L18.0761 23.2343L15.2001 23.3983L25.6631 17.3613ZM26.4861 18.3713L26.1261 17.2323L28.6521 17.1193L26.4861 18.3713ZM27.0171 19.2553L26.9951 19.1873L30.3311 17.2593L30.3361 17.2733L27.0171 19.2553ZM32.3581 17.1843V20.8663L31.2931 17.8203L32.3581 17.1843ZM47.8381 26.9073L44.2661 29.5393L33.4001 22.5133C33.4631 22.2953 33.4441 22.0563 33.3181 21.8463C33.2061 21.6623 33.0301 21.5403 32.8381 21.4823V17.2083L47.8381 26.9073ZM48.2021 32.0853L45.1281 30.0983L48.2021 27.8313V32.0853ZM37.3181 35.8513L44.7141 30.4013L48.0431 32.5543L37.3181 40.4593V35.8513ZM33.0311 23.0013C33.0701 22.9763 33.0961 22.9393 33.1301 22.9103L43.8521 29.8443L36.8291 35.0193L25.7661 27.3773C29.4131 25.1803 32.9611 23.0433 33.0311 23.0013V23.0013ZM22.9841 25.4553L27.5961 22.6943L30.4461 22.5953C28.9091 23.5203 26.5611 24.9343 24.2491 26.3283L22.9841 25.4553ZM20.5031 26.9393L22.0791 25.9963L23.3471 26.8713C22.3451 27.4753 21.3751 28.0603 20.5031 28.5853V26.9393ZM21.6431 25.6963L20.5031 26.3783V24.9103L21.6431 25.6963ZM26.6791 20.5773L27.2381 22.3463L22.5491 25.1543L20.9111 24.0223L26.6791 20.5773ZM30.8711 18.0723L32.1041 21.5973C31.9791 21.6713 31.6981 21.8413 31.2931 22.0853L27.6991 22.2083L27.1021 20.3233L30.8711 18.0723ZM26.1451 19.6783L26.1701 19.7623L19.7791 23.5813C19.7661 23.5893 19.7591 23.6043 19.7481 23.6113C19.7051 23.6433 19.6711 23.6783 19.6401 23.7203C19.6271 23.7393 19.6141 23.7553 19.6031 23.7753C19.5761 23.8273 19.5591 23.8853 19.5531 23.9473C19.5521 23.9593 19.5451 23.9663 19.5451 23.9783C19.5451 23.9803 19.5461 23.9823 19.5461 23.9853C19.5461 23.9883 19.5451 23.9913 19.5451 23.9943V26.4223L18.7881 23.9313L26.1451 19.6783ZM12.4761 34.2803C12.4961 34.2743 12.5201 34.2653 12.5561 34.2653C12.5681 34.2653 12.5811 34.2663 12.5961 34.2683C12.4791 34.3863 12.2941 34.5183 12.0651 34.6093C12.2061 34.4433 12.3451 34.3293 12.4761 34.2803V34.2803ZM49.1611 26.8663C49.1611 26.8533 49.1521 26.8413 49.1521 26.8273C49.1451 26.7693 49.1311 26.7173 49.1061 26.6673C49.0961 26.6473 49.0811 26.6313 49.0681 26.6113C49.0401 26.5713 49.0081 26.5363 48.9691 26.5063C48.9581 26.4973 48.9541 26.4853 48.9421 26.4783L32.8591 16.0773C32.7061 15.9773 32.5081 15.9743 32.3511 16.0683L31.1771 16.7703L31.0451 16.3933C31.0171 16.3123 30.9641 16.2483 30.9021 16.1953C30.8861 16.1823 30.8701 16.1703 30.8511 16.1583C30.7731 16.1063 30.6841 16.0783 30.5891 16.0783C30.5811 16.0783 30.5791 16.0723 30.5721 16.0723L25.7071 16.2883C25.6301 16.2913 25.5551 16.3143 25.4881 16.3533L12.9711 23.5763L12.9701 23.5773C12.9071 23.6133 12.8581 23.6623 12.8191 23.7193C12.8171 23.7223 12.8121 23.7243 12.8091 23.7273C12.8001 23.7413 12.8001 23.7563 12.7941 23.7703C12.7701 23.8133 12.7521 23.8593 12.7431 23.9083C12.7391 23.9313 12.7391 23.9543 12.7381 23.9783C12.7361 24.0243 12.7411 24.0673 12.7531 24.1113C12.7571 24.1263 12.7531 24.1413 12.7581 24.1543L14.8411 29.9383C14.9081 30.1283 15.0871 30.2553 15.2871 30.2563L17.6901 30.2833C17.3501 30.4893 17.1111 30.6333 17.0161 30.6923C15.7491 31.4653 15.3021 31.2163 13.3521 29.8803C12.1141 29.0293 10.6241 28.8333 9.36908 29.3503C8.17308 29.8443 7.36608 30.9043 7.09508 32.3363C6.60408 34.9333 8.10908 35.7013 9.44708 36.0403C9.01608 37.2053 8.77108 38.3083 8.69008 38.6993C8.59808 39.1553 8.89108 39.6003 9.34508 39.6923C9.40208 39.7033 9.45908 39.7093 9.51608 39.7093C9.90608 39.7093 10.2551 39.4353 10.3371 39.0373C10.5191 38.1483 10.8011 37.1953 11.1221 36.3783C12.5281 36.5463 13.8141 35.7293 14.2471 34.8033C14.5491 34.1563 14.4121 33.4803 13.8991 33.0813C13.0891 32.4543 12.3601 32.5293 11.8931 32.7053C11.1911 32.9643 10.6141 33.6543 10.1531 34.4813C8.85508 34.2123 8.49808 33.9593 8.74708 32.6483C8.91108 31.7823 9.34808 31.1783 10.0111 30.9043C10.7301 30.6083 11.6471 30.7463 12.4471 31.2963C14.3091 32.5713 15.6531 33.4973 17.8931 32.1263C18.1091 31.9933 19.0591 31.4203 20.3791 30.6223L36.5651 41.8043C36.5741 41.8113 36.5861 41.8093 36.5941 41.8143C36.6671 41.8583 36.7471 41.8903 36.8391 41.8903C36.9351 41.8903 37.0201 41.8543 37.0951 41.8053C37.1031 41.8003 37.1151 41.8023 37.1241 41.7963L48.9671 33.0683C48.9761 33.0603 48.9801 33.0503 48.9901 33.0433C49.0161 33.0203 49.0371 32.9953 49.0571 32.9683C49.0751 32.9443 49.0921 32.9223 49.1061 32.8973C49.1191 32.8683 49.1271 32.8403 49.1351 32.8113C49.1451 32.7793 49.1521 32.7493 49.1541 32.7173C49.1551 32.7043 49.1611 32.6943 49.1611 32.6823V26.8813C49.1611 26.8783 49.1601 26.8763 49.1601 26.8733C49.1601 26.8703 49.1611 26.8683 49.1611 26.8663V26.8663Z" fill="white"/>
</svg>
