<svg width="57" height="57" viewBox="0 0 57 57" fill="none" xmlns="http://www.w3.org/2000/svg">
<path fill-rule="evenodd" clip-rule="evenodd" d="M29.001 40.227C20.344 40.227 13.154 36.616 11.764 31.895C14.786 35.725 21.374 38.388 29.001 38.388C36.626 38.388 43.212 35.725 46.233 31.896C44.843 36.617 37.655 40.227 29.001 40.227M13.231 23.022C12.43 24.109 11.979 25.292 11.979 26.534C11.979 31.699 19.615 35.901 29.001 35.901C38.384 35.901 46.019 31.699 46.019 26.534C46.019 25.293 45.569 24.112 44.771 23.027C45.864 24.292 46.494 25.701 46.494 27.194C46.494 32.538 38.647 36.886 29.001 36.886C19.353 36.886 11.502 32.538 11.502 27.194C11.502 25.7 12.134 24.288 13.231 23.022M29.001 18.023C37.912 18.023 45.161 21.841 45.161 26.534C45.161 31.225 37.912 35.043 29.001 35.043C20.088 35.043 12.838 31.225 12.838 26.534C12.838 21.841 20.088 18.023 29.001 18.023M29.001 16C18.524 16 10 21.022 10 27.194V30.238C10 36.575 18.524 41.73 29.001 41.73C39.475 41.73 47.997 36.575 47.997 30.238V27.194C47.997 21.022 39.475 16 29.001 16" fill="white"/>
</svg>
