<svg width="57" height="57" viewBox="0 0 57 57" fill="none" xmlns="http://www.w3.org/2000/svg">
<path fill-rule="evenodd" clip-rule="evenodd" d="M18.7675 13C18.6215 13 18.4745 13.02 18.3325 13.058L8.24651 15.76C7.62951 15.925 7.15951 16.425 7.03351 17.051C6.90651 17.677 7.14651 18.32 7.65151 18.712L10.7815 21.137C11.0795 21.369 11.4435 21.489 11.8105 21.489C11.9975 21.489 12.1845 21.459 12.3655 21.395C12.3695 21.395 12.5565 21.343 12.8055 21.343C13.1065 21.343 13.3545 21.417 13.5635 21.565C14.3625 22.137 23.2855 29.127 29.1905 33.754C32.0495 35.994 33.9475 37.481 34.7635 38.115C34.3735 38.842 34.5685 39.743 35.2235 40.244L39.1665 43.26C39.4655 43.489 39.8255 43.606 40.1875 43.606C40.4695 43.606 40.7515 43.535 41.0085 43.391L49.4975 38.642C49.9925 38.365 50.3145 37.857 50.3535 37.29C50.3925 36.725 50.1445 36.177 49.6915 35.836L45.6415 32.769C45.3485 32.545 44.9915 32.427 44.6275 32.427C44.5715 32.427 44.5145 32.429 44.4595 32.436C44.3165 32.45 44.1645 32.46 44.0095 32.46C43.7005 32.46 43.4695 32.415 43.3225 32.327C42.7765 31.964 35.8395 26.734 30.7735 22.914C27.3785 20.355 24.9085 18.492 23.6285 17.536C23.6555 17.444 23.6745 17.349 23.6885 17.249C23.7745 16.643 23.4265 16.083 22.9375 15.716L19.7785 13.338C19.4835 13.115 19.1275 13 18.7675 13M18.7675 14.681L21.9265 17.058C21.9265 17.058 20.8355 17.604 21.7175 18.214C22.5975 18.824 41.7795 33.362 42.4575 33.768C42.9395 34.058 43.4885 34.142 44.0095 34.142C44.2235 34.142 44.4305 34.126 44.6265 34.108L48.6755 37.175L40.1865 41.925L36.2445 38.909C36.2445 38.909 36.9225 37.644 36.1995 37.102C35.4755 36.56 15.8065 21.102 14.5415 20.198C13.9495 19.775 13.3145 19.663 12.8055 19.663C12.2265 19.663 11.8105 19.808 11.8105 19.808L8.68051 17.383L18.7675 14.681" fill="white"/>
<path fill-rule="evenodd" clip-rule="evenodd" d="M37.5433 37.3952C37.8313 35.3112 40.2823 33.3562 42.3553 34.3622C42.3553 34.3622 39.4233 34.5662 37.5433 37.3952" fill="white"/>
<path fill-rule="evenodd" clip-rule="evenodd" d="M20.0268 17.3983C18.8118 16.5763 16.1198 17.3373 15.1308 19.2863C15.1308 19.2863 17.3168 17.3293 20.0268 17.3983" fill="white"/>
<path fill-rule="evenodd" clip-rule="evenodd" d="M35.6572 35.1585C35.5682 35.1585 35.4802 35.1305 35.4052 35.0705L16.1562 19.8885C15.9802 19.7495 15.9492 19.4935 16.0882 19.3175C16.2302 19.1395 16.4842 19.1125 16.6592 19.2495L35.9092 34.4315C36.0852 34.5715 36.1162 34.8265 35.9772 35.0035C35.8972 35.1055 35.7762 35.1585 35.6572 35.1585" fill="white"/>
</svg>
