<svg width="57" height="57" viewBox="0 0 57 57" fill="none" xmlns="http://www.w3.org/2000/svg">
<path fill-rule="evenodd" clip-rule="evenodd" d="M18.7051 20.8585C18.8641 21.0515 19.1011 21.1625 19.3521 21.1625C19.5471 21.1625 19.7371 21.0935 19.8881 20.9695C20.2441 20.6715 20.2941 20.1405 19.9991 19.7855L19.7271 19.4575C20.0391 19.3005 20.3861 19.2095 20.7411 19.2095C21.4201 19.2095 22.0581 19.5075 22.4901 20.0265C23.2881 20.9905 23.1531 22.4225 22.1931 23.2215C21.7871 23.5565 21.2731 23.7415 20.7481 23.7415C20.0691 23.7415 19.4321 23.4425 18.9991 22.9225C18.4791 22.2935 18.3631 21.4655 18.6081 20.7425L18.7051 20.8585ZM15.5081 17.0035L17.4451 19.3395C17.1021 19.8665 16.8761 20.4635 16.8151 21.1075C16.7161 22.1595 17.0331 23.1855 17.7051 23.9955C18.4571 24.9025 19.5661 25.4235 20.7481 25.4235C21.6661 25.4235 22.5601 25.0995 23.2651 24.5145C24.9411 23.1265 25.1741 20.6305 23.7851 18.9545C23.0331 18.0475 21.9251 17.5295 20.7441 17.5295C19.9941 17.5295 19.2701 17.7525 18.6411 18.1485L16.6851 15.7885C16.6981 15.7885 16.7101 15.7975 16.7241 15.7975C16.8441 15.7975 16.9611 15.7725 17.0711 15.7225C17.1251 15.6975 17.1631 15.6555 17.2091 15.6225C17.2701 15.6265 17.3301 15.6245 17.3931 15.6325L25.6271 16.5165C26.2531 16.5855 27.1841 17.0855 27.5831 17.5685L43.9961 37.3585C44.2421 37.6535 44.2011 38.0945 43.9051 38.3415L33.0351 47.3575C32.9101 47.4585 32.7521 47.5155 32.5901 47.5155C32.3801 47.5155 32.1841 47.4235 32.0511 47.2645L15.6401 27.4735C15.2381 26.9875 14.9081 25.9735 14.9471 25.3435L15.4761 17.2275C15.4811 17.1485 15.4981 17.0795 15.5081 17.0035V17.0035ZM45.2921 36.2845L28.8791 16.4945C28.2051 15.6815 26.8571 14.9555 25.8081 14.8445L17.5711 13.9595C17.4481 13.9465 17.3161 13.9445 17.1861 13.9385L14.6591 8.36951C14.4721 7.95951 13.9571 7.76451 13.5451 7.95251C13.3401 8.04551 13.1831 8.21351 13.1051 8.42451C13.0261 8.63551 13.0341 8.86351 13.1271 9.06651L15.4401 14.1665C15.4151 14.1755 15.3871 14.1835 15.3621 14.1935L12.0741 10.2265C11.7871 9.88351 11.2371 9.82951 10.8871 10.1185C10.5331 10.4155 10.4831 10.9465 10.7781 11.3015L14.1901 15.4145C13.9671 15.9525 13.8341 16.5845 13.8001 17.1175L13.2711 25.2345C13.2041 26.2825 13.6741 27.7375 14.3441 28.5465L30.7561 48.3365C31.2081 48.8845 31.8771 49.1965 32.5901 49.1965C33.1421 49.1965 33.6841 49.0025 34.1081 48.6495L44.9781 39.6345C45.4681 39.2295 45.7701 38.6575 45.8301 38.0245C45.8871 37.3895 45.6971 36.7715 45.2921 36.2845V36.2845Z" fill="white"/>
</svg>
