<svg width="57" height="57" viewBox="0 0 57 57" fill="none" xmlns="http://www.w3.org/2000/svg">
<path fill-rule="evenodd" clip-rule="evenodd" d="M42.5666 30.5954L39.8936 28.8884L40.0746 26.9624L46.3016 27.6844L42.5666 30.5954ZM33.0216 33.9214L33.0536 30.4294L36.0986 31.3764L33.0216 33.9214ZM30.3206 31.7794C30.2346 31.6864 30.1286 31.6134 30.0126 31.5674L25.7486 29.8734L32.0936 30.2324L32.0626 33.6744L30.3206 31.7794ZM19.0206 30.6964L21.6256 30.0424L24.0276 30.9974L19.0206 30.6964ZM11.3766 26.6614L12.0376 26.5484L17.4226 27.5354L27.1256 27.7604L30.1166 29.1584L22.9286 28.7514L21.9956 28.3814C21.8966 28.3424 21.7916 28.3214 21.6856 28.3214C21.6186 28.3214 21.5486 28.3304 21.4816 28.3474L15.7796 29.7744L9.42459 28.3024L11.3766 26.6614ZM17.2226 25.6594C17.3386 25.6394 17.4496 25.5964 17.5466 25.5304L21.6386 22.8094L23.2896 25.7264L22.9166 26.7044L17.5206 26.5814L14.7816 26.0774L17.2226 25.6594ZM27.9756 24.8584L28.4736 24.6224L27.9136 25.4424L27.9756 24.8584ZM24.2356 25.4494L22.9856 23.2404L27.0146 24.8064L26.8066 26.7924L23.9346 26.7274L24.2666 25.8574C24.3176 25.7244 24.3066 25.5744 24.2356 25.4494V25.4494ZM32.7536 29.3294L27.9536 27.0874L30.1946 23.8064L30.3246 23.7464L39.1276 26.7714L38.9416 28.7484L34.4086 29.8434L32.7536 29.3294ZM40.3836 31.4094L37.7726 30.5134C37.5056 30.4204 37.2106 30.4724 36.9856 30.6454L36.1956 30.3994L39.3016 29.6494L41.4526 31.0254L40.3836 31.4094ZM49.2466 26.8604C49.1556 26.5324 48.8736 26.2914 48.5346 26.2524L39.8646 25.2454L30.5466 22.0444C30.3416 21.9744 30.1116 21.9874 29.9146 22.0804L27.5366 23.2074L21.9306 21.0264C21.6746 20.9264 21.3886 20.9564 21.1596 21.1094L16.7636 24.0324L10.8686 25.0434C10.7216 25.0674 10.5836 25.1314 10.4686 25.2284L7.05659 28.0984C6.81259 28.3044 6.70659 28.6294 6.78159 28.9384C6.85559 29.2474 7.09859 29.4884 7.40859 29.5604L15.5976 31.4584C15.6446 31.4694 15.6936 31.4544 15.7426 31.4564C15.7476 31.4574 15.7516 31.4604 15.7576 31.4604L26.8816 32.1324L29.2136 33.0584L31.9076 35.9904C32.0736 36.1694 32.2996 36.2614 32.5266 36.2614C32.7166 36.2614 32.9066 36.1974 33.0626 36.0684L36.4776 33.2434L40.3596 33.1354C40.4656 33.1394 40.5746 33.1284 40.6786 33.0914L43.2016 32.1794C43.2846 32.1494 43.3626 32.1074 43.4326 32.0534L48.9556 27.7494C49.2246 27.5404 49.3386 27.1884 49.2466 26.8604V26.8604Z" fill="white"/>
</svg>
