<svg width="57" height="57" viewBox="0 0 57 57" fill="none" xmlns="http://www.w3.org/2000/svg">
<path fill-rule="evenodd" clip-rule="evenodd" d="M43.6368 20.621C43.5858 21.197 43.3188 21.73 42.8448 22.21C42.8258 22.228 42.7958 22.251 42.7748 22.271C42.6238 21.836 42.5408 21.414 42.6208 21.128C42.7158 20.77 42.7578 20.424 42.7658 20.086C43.0968 19.842 43.4568 19.512 43.7648 19.218C43.7638 19.313 43.7588 19.451 43.7528 19.6C43.7068 19.889 43.6748 20.173 43.6538 20.425L43.6368 20.621ZM41.2418 24.587C41.3098 24.499 41.3688 24.415 41.4208 24.336C41.4038 24.436 41.3488 24.508 41.2418 24.587V24.587ZM39.5768 26.671C39.5578 26.731 39.5368 26.797 39.5148 26.862C39.4988 26.825 39.4818 26.773 39.4648 26.74C39.3118 26.422 39.2088 26.212 39.2878 25.793C39.2948 25.755 39.3038 25.728 39.3108 25.693C39.5588 25.556 39.7928 25.462 40.0118 25.39C40.1228 25.355 40.2348 25.314 40.3468 25.269C40.3168 25.3 40.2868 25.319 40.2578 25.354C39.8288 25.871 39.7228 26.206 39.5768 26.671V26.671ZM37.5028 30.541C37.4028 30.19 37.3928 29.771 37.4098 29.355C37.6318 29.253 37.8738 29.191 38.1348 29.132C38.2578 29.103 38.3828 29.072 38.5068 29.039C38.3988 29.162 38.2758 29.29 38.1178 29.432C37.6998 29.806 37.5488 30.185 37.5028 30.541V30.541ZM36.8788 33.284C36.7598 33.474 36.6488 33.653 36.5598 33.82C36.3718 34.172 36.1408 34.744 35.9498 35.311C35.9088 35.33 35.8688 35.339 35.8278 35.362C35.7448 34.86 35.6848 34.319 35.6598 33.886C36.2438 33.509 36.8318 33.085 37.1788 32.781C37.0808 32.954 36.9778 33.123 36.8788 33.284V33.284ZM35.0228 38.305C34.9018 38.473 34.8218 38.851 34.7578 39.452C34.6268 39.537 34.4988 39.624 34.3658 39.708C34.2848 38.985 33.9148 38.227 33.7298 37.89C33.8838 37.84 34.0348 37.788 34.1978 37.747C34.9358 37.557 35.1478 37.208 35.3918 36.803C35.4108 36.772 35.4348 36.735 35.4558 36.701C35.4818 36.834 35.4788 36.986 35.4838 37.131C35.3498 37.629 35.1728 38.097 35.0228 38.305V38.305ZM34.3828 42.39C34.1628 41.82 34.1448 41.18 34.3178 40.491C34.4358 40.421 34.5648 40.338 34.6898 40.258C34.6718 40.526 34.6538 40.815 34.6358 41.14C34.6218 41.394 34.6118 41.595 34.6008 41.698C34.5838 41.863 34.5048 42.156 34.4088 42.46L34.3828 42.39ZM33.4518 46.954C33.1518 46.853 32.8788 46.778 32.5998 46.698C32.4368 45.261 32.2728 44.786 32.1668 44.513C32.6468 44.16 33.2808 43.899 33.8288 43.68L33.9698 43.624C33.8418 43.941 33.8518 44.402 33.8838 44.932C33.8948 45.086 33.9038 45.218 33.8978 45.294C33.8798 45.518 33.8488 45.886 33.4518 46.954V46.954ZM30.7348 46.151C31.0568 45.853 31.3248 45.493 31.6118 45.071L31.6558 45.007C31.7338 45.269 31.8288 45.712 31.9298 46.515C31.6328 46.441 31.3358 46.367 31.0618 46.313C30.9478 46.262 30.8438 46.206 30.7348 46.151V46.151ZM28.2388 44.422C28.7078 44.094 29.0608 43.868 29.3258 43.71C29.2088 44.275 29.1618 44.768 29.1658 45.198C28.8398 44.954 28.5348 44.694 28.2388 44.422V44.422ZM23.3428 43.909C22.6288 43.312 21.9648 42.716 21.3148 42.135C20.1788 41.115 19.0628 40.122 17.8068 39.23C19.4388 39.431 20.8778 39.831 22.3758 41.084C23.4828 42.01 24.3408 42.951 25.1708 43.863C25.7598 44.511 26.3428 45.147 26.9858 45.747C25.8288 45.53 24.7758 45.107 23.3428 43.909V43.909ZM12.5648 36.685C13.0468 36.366 13.3728 36.178 13.5928 36.068C13.5848 36.107 13.5918 36.15 13.5818 36.188L13.5618 36.276C13.5008 36.516 13.4548 36.733 13.4118 36.952C13.1398 36.858 12.8558 36.77 12.5648 36.685V36.685ZM11.7318 36.016L11.7958 35.965C12.5068 35.386 12.7278 34.375 12.8878 33.636L12.9228 33.478C12.9518 33.466 12.9808 33.45 13.0118 33.437C13.0298 33.497 13.0408 33.56 13.0638 33.617L13.1408 33.817C13.3248 34.285 13.5238 34.826 13.5968 35.359C13.3038 35.479 12.8168 35.716 11.7378 36.469C11.5948 36.436 11.4608 36.397 11.3168 36.365C11.4428 36.256 11.5778 36.143 11.7318 36.016V36.016ZM13.9748 32.238L14.2118 32.06C14.4298 31.89 14.6548 31.602 14.8528 31.276C14.8678 31.354 14.8808 31.443 14.8968 31.514C14.5658 31.909 14.1778 32.228 13.7108 32.437C13.7988 32.369 13.8878 32.302 13.9748 32.238V32.238ZM18.9978 25.063C19.0068 25.297 19.0238 25.562 19.0538 25.855C18.9298 25.978 18.8058 26.104 18.6878 26.205C18.4838 26.385 18.1668 26.621 17.8268 26.862C17.8218 26.804 17.8078 26.755 17.7988 26.702C17.8528 26.6 17.9058 26.498 17.9548 26.404C18.2378 25.857 18.4458 25.494 18.9978 25.063V25.063ZM20.8168 21.407C20.8178 21.593 20.8188 21.777 20.8398 21.958C20.8158 21.984 20.7938 22.003 20.7688 22.028C20.5688 22.225 20.3498 22.423 20.1248 22.611C20.1318 22.575 20.1328 22.535 20.1438 22.499C20.2568 22.126 20.5368 21.752 20.8168 21.407V21.407ZM23.6798 15.615C23.5678 15.904 23.4648 16.135 23.3988 16.206L23.3888 16.216C23.3368 16.113 23.2818 16.015 23.2348 15.906C23.3748 15.81 23.5288 15.713 23.6798 15.615V15.615ZM25.5698 12.343C25.7638 12.225 25.9468 12.097 26.1118 11.95C26.2028 12.304 26.2838 12.688 26.2838 12.912C26.2838 12.93 26.2828 12.96 26.2828 12.982C26.2368 13.025 26.2058 13.053 26.1538 13.103C25.8108 13.431 25.2688 13.939 24.9248 14.14C24.9188 14.125 24.9128 14.097 24.9068 14.084C24.8918 14.04 24.8788 13.984 24.8678 13.919C24.8798 13.875 24.8938 13.825 24.8978 13.81C24.9768 13.472 25.3188 12.771 25.5698 12.343V12.343ZM32.7208 13.024C32.8048 13.078 32.8968 13.116 32.9828 13.165C32.9718 13.237 32.9728 13.303 32.9568 13.38C32.3628 13.756 32.0818 13.869 31.8938 13.943C31.8278 13.969 31.7188 14.017 31.5858 14.08C31.5038 13.788 31.4218 13.538 31.3778 13.429C31.3148 13.271 31.2248 13.044 31.1218 12.479C31.2388 12.389 31.3778 12.318 31.5218 12.25C31.9218 12.513 32.3178 12.775 32.7208 13.024V13.024ZM39.0488 14.447C38.7868 14.608 38.5788 14.726 38.4288 14.8C38.4238 14.689 38.4108 14.578 38.3918 14.467C38.6228 14.467 38.8458 14.461 39.0488 14.447V14.447ZM41.6178 14.287C41.6598 14.548 41.6618 14.815 41.6088 15.117C41.3688 15.387 41.1478 15.698 40.8998 16.06C40.7668 16.251 40.5788 16.414 40.3678 16.567C40.3038 16.348 40.2428 16.166 40.2078 16.078C40.1298 15.881 40.0088 15.577 39.8788 14.679C40.0578 14.56 40.2598 14.421 40.4798 14.265C40.9118 14.214 41.2858 14.209 41.6178 14.287V14.287ZM42.4698 18.544C42.3938 18.348 42.3128 18.138 42.2388 17.922C42.6158 17.699 43.0668 17.476 43.3078 17.372C43.3338 17.44 43.3568 17.502 43.3778 17.553C43.4408 17.71 43.5518 18.083 43.6408 18.452C43.5708 18.517 43.5108 18.572 43.4218 18.656C43.2268 18.843 42.9658 19.092 42.7108 19.31C42.6738 19.118 42.6208 18.931 42.5498 18.749L42.4698 18.544ZM41.3548 17.746C41.2648 17.825 41.1408 17.944 40.9948 18.081C40.8888 18.183 40.7628 18.303 40.6298 18.426C40.6358 18.238 40.6428 18.076 40.6428 17.963C40.6428 17.76 40.5978 17.489 40.5388 17.215C40.8508 17.012 41.1328 16.772 41.3628 16.481C41.3408 16.874 41.3878 17.266 41.4868 17.643C41.4408 17.678 41.3928 17.713 41.3548 17.746V17.746ZM41.8688 18.779L41.9478 18.981C42.0418 19.223 42.0898 19.479 42.1128 19.743C42.0998 19.749 42.0818 19.764 42.0708 19.769C41.8438 19.864 41.3218 20.167 40.7818 20.508C40.7458 20.355 40.7108 20.223 40.6818 20.146C40.6218 19.986 40.6058 19.657 40.6058 19.307C40.8948 19.064 41.1898 18.785 41.4408 18.549C41.5418 18.45 41.6188 18.381 41.6948 18.31C41.7528 18.473 41.8128 18.634 41.8688 18.779V18.779ZM42.9168 15.277C42.9918 15.944 43.0678 16.412 43.1378 16.744C42.9598 16.815 42.4928 17.034 42.0598 17.279C41.9788 16.904 41.9438 16.527 42.0328 16.177L42.0528 16.098C42.1128 15.855 42.1688 15.628 42.2138 15.408C42.3578 15.265 42.5238 15.148 42.7048 15.046C42.7728 15.125 42.8448 15.201 42.9168 15.277V15.277ZM35.2028 30.2C34.9738 29.831 34.7868 29.494 34.8558 28.991C34.9878 28.952 35.1108 28.904 35.2548 28.869C35.7538 28.754 36.3458 28.593 36.8158 28.052C36.8178 28.102 36.8198 28.158 36.8198 28.204C36.8198 28.399 36.8058 28.616 36.7918 28.844C36.7898 28.893 36.7858 28.945 36.7838 28.994C36.5528 29.158 36.3328 29.362 36.1528 29.681C35.9128 30.101 35.6868 30.386 35.4368 30.62C35.3648 30.473 35.2848 30.333 35.2028 30.2V30.2ZM33.5068 37.279C33.5098 37.133 33.5568 36.979 33.6228 36.761C33.6838 36.558 33.7548 36.325 33.8098 36.032C33.8818 35.646 33.8388 35.366 33.7588 35.12C33.9988 34.888 34.2658 34.671 34.5428 34.539C34.6898 34.47 34.8658 34.368 35.0398 34.267C35.0848 34.772 35.1638 35.35 35.2618 35.851C35.2558 35.857 35.2518 35.86 35.2478 35.866C35.0688 36.096 34.9458 36.296 34.8418 36.469C34.6148 36.845 34.5218 37 34.0378 37.122C33.9468 37.145 33.7498 37.2 33.5068 37.279V37.279ZM31.3478 38.662C31.2628 38.082 31.2048 37.535 31.2298 37.344L31.2388 37.266C31.9368 36.828 32.6858 36.312 32.8998 36.072L33.0828 35.859C33.1138 35.821 33.1588 35.771 33.1948 35.728C33.1908 35.787 33.1888 35.845 33.1758 35.915C33.1288 36.18 33.0618 36.39 33.0058 36.573C32.9118 36.886 32.8388 37.174 32.8928 37.507C32.3468 37.736 31.7628 38.06 31.4908 38.478C31.4508 38.54 31.3968 38.6 31.3478 38.662V38.662ZM27.9588 42.016L27.9798 41.937C28.0148 41.794 28.0118 41.648 28.0218 41.502C28.1608 41.366 28.3068 41.294 28.6038 41.166C28.7168 41.117 28.8598 41.054 29.0198 40.98C29.2468 41.575 29.4778 42.266 29.4458 42.912C29.1268 43.069 28.6358 43.358 27.8188 43.929C27.6288 43.376 27.7548 42.828 27.9588 42.016V42.016ZM27.1598 42.638C27.1178 42.854 27.0958 43.061 27.0868 43.267C26.9988 43.172 26.9088 43.076 26.8208 42.979C26.9408 42.874 27.0558 42.761 27.1598 42.638V42.638ZM25.2378 41.112C25.2428 41.124 25.2498 41.144 25.2538 41.155C25.2778 41.215 25.3058 41.287 25.3368 41.381C25.2708 41.311 25.2098 41.245 25.1408 41.176C25.1728 41.156 25.2088 41.13 25.2378 41.112V41.112ZM24.5838 38.651C24.6518 38.549 24.7538 38.465 24.8488 38.375C24.8428 38.524 24.8378 38.668 24.8318 38.79C24.8248 38.985 24.8168 39.153 24.8168 39.269C24.8168 39.587 24.9258 40.07 25.0378 40.475C24.9278 40.546 24.8008 40.63 24.6718 40.717C24.3558 40.412 24.0218 40.106 23.6588 39.796C23.9878 39.487 24.2668 39.114 24.5838 38.651V38.651ZM22.0598 38.265C22.2218 38.202 22.6408 38.007 23.0468 37.785C23.1608 38.221 23.2188 38.665 23.1168 39.074L23.0958 39.153C23.0808 39.215 23.0678 39.27 23.0548 39.329C22.5858 38.982 22.1198 38.681 21.6548 38.448C21.8338 38.357 21.9638 38.303 22.0598 38.265V38.265ZM18.8288 37.047C18.8528 37.015 18.8728 36.986 18.8968 36.952L18.9458 36.88C19.1658 36.558 19.5288 36.302 19.9338 36.084C20.0338 36.626 20.2328 37.254 20.3098 37.448C20.3538 37.556 20.4108 37.707 20.4748 37.967C19.8958 37.772 19.3168 37.634 18.7328 37.536C18.7628 37.378 18.7848 37.227 18.8288 37.047V37.047ZM15.3678 29.763C15.3818 29.479 15.5048 29.405 15.8888 29.211C16.1198 29.094 16.4068 28.95 16.6818 28.695C16.7538 28.629 16.8068 28.566 16.8648 28.502C16.8358 28.776 16.8778 29.065 17.0888 29.426C17.1798 29.585 17.2718 29.761 17.3538 29.942C16.8278 30.103 15.9508 30.423 15.4338 30.901C15.3868 30.629 15.3438 30.352 15.3088 30.086C15.3278 29.978 15.3628 29.868 15.3678 29.763V29.763ZM16.0948 34.573C16.4848 34.201 17.1378 33.577 17.4688 33.439C17.5018 33.425 17.5598 33.395 17.6068 33.372C17.6448 33.576 17.6978 33.777 17.7718 33.971L17.8528 34.175C17.9178 34.342 17.9868 34.521 18.0508 34.703C17.3888 34.973 16.6238 35.3 16.0598 35.795C15.9758 35.535 15.8748 35.168 15.8108 34.837C15.8918 34.762 15.9788 34.682 16.0948 34.573V34.573ZM15.6718 31.976C15.6488 31.917 15.6238 31.821 15.5968 31.707C15.6378 31.651 15.6838 31.6 15.7228 31.54C15.9418 31.204 16.6918 30.817 17.5898 30.549C17.7168 30.947 17.7748 31.327 17.7038 31.591C17.6018 31.963 17.5578 32.322 17.5538 32.672C17.4168 32.75 17.2948 32.814 17.2208 32.845C16.8398 33.004 16.3168 33.476 15.7618 34.001C15.7628 33.976 15.7638 33.957 15.7648 33.931C15.7998 33.09 15.8158 32.364 15.6718 31.976V31.976ZM19.1568 26.647C19.2288 27.114 19.3188 27.563 19.4188 27.887C19.4398 27.957 19.4438 28.04 19.4578 28.117C19.2818 28.224 19.1078 28.363 18.9388 28.578C18.7608 28.808 18.6388 29.007 18.5338 29.182C18.3538 29.479 18.2488 29.636 17.9728 29.751C17.8348 29.441 17.7008 29.198 17.6428 29.101C17.4258 28.726 17.4808 28.545 17.6128 28.108C17.6488 27.991 17.6868 27.858 17.7238 27.713C18.2658 27.356 18.7948 26.969 19.1138 26.69C19.1268 26.677 19.1428 26.659 19.1568 26.647V26.647ZM24.7018 21.624C24.4918 21.767 24.3018 21.903 24.1208 22.043C24.1098 21.773 24.0838 21.508 24.0458 21.215C24.0268 21.071 24.0068 20.918 23.9888 20.752C23.9788 20.661 23.9618 20.582 23.9458 20.502C24.0228 20.459 24.1128 20.404 24.1838 20.372C24.3908 20.272 24.5848 20.137 24.7718 19.991C24.8698 20.387 24.9568 20.905 25.0178 21.406C24.9078 21.482 24.8018 21.556 24.7018 21.624V21.624ZM25.0878 22.139C25.0998 22.315 25.1078 22.48 25.1078 22.613C25.1078 22.808 25.0938 23.026 25.0798 23.255C25.0578 23.588 25.0388 23.944 25.0508 24.298C24.9948 24.311 24.9498 24.333 24.8908 24.347C24.5678 24.421 24.2028 24.516 23.8568 24.713C23.7528 24.439 23.7158 24.137 23.8558 23.716C23.9478 23.443 24.0098 23.202 24.0538 22.982C24.3498 22.658 24.6638 22.429 25.0638 22.156C25.0718 22.151 25.0808 22.145 25.0878 22.139V22.139ZM25.3588 16.264C25.3538 16.273 25.3378 16.283 25.3298 16.293C25.2678 15.795 25.1758 15.237 25.0838 14.791C25.4168 14.64 25.8568 14.263 26.2538 13.894C26.2388 14.448 26.2538 14.911 26.3348 15.227C25.9588 15.508 25.6288 15.849 25.3588 16.264V16.264ZM28.1198 11.852C27.8238 11.983 27.2958 12.244 26.8898 12.5C26.8298 12.122 26.7148 11.685 26.6178 11.367C27.0458 10.742 27.3638 10.315 27.9358 10.07C28.0128 10.111 28.0838 10.151 28.1578 10.191L28.1388 10.199C28.3438 10.699 28.2728 11.196 28.1198 11.852V11.852ZM28.8398 11.519C28.8958 11.198 28.9178 10.891 28.8848 10.587C29.1418 10.735 29.3818 10.886 29.6258 11.037C29.2938 11.256 29.0358 11.413 28.8398 11.519V11.519ZM30.4278 12.228C30.1468 12.515 29.9098 12.857 29.6458 13.243L29.5998 13.312C29.4098 13.59 29.1048 13.816 28.7658 14.013C28.6118 13.502 28.5118 12.967 28.6308 12.482L28.6528 12.402C28.6578 12.374 28.6638 12.348 28.6708 12.319C28.9398 12.206 29.3768 11.988 30.2278 11.409C30.2618 11.431 30.2958 11.454 30.3318 11.477C30.3638 11.759 30.3968 12.018 30.4278 12.228V12.228ZM30.1248 14.931C30.0368 15.008 29.9128 15.126 29.7688 15.263C29.6398 15.385 29.4778 15.536 29.3128 15.688C29.2748 15.487 29.2218 15.289 29.1498 15.098L29.0698 14.89C29.0398 14.812 29.0098 14.724 28.9768 14.64C29.4348 14.389 29.8528 14.082 30.1308 13.675L30.1778 13.607C30.3228 13.393 30.4538 13.21 30.5828 13.04C30.6598 13.358 30.7298 13.537 30.7818 13.669C30.8328 13.798 30.9188 14.076 30.9988 14.373C30.6648 14.552 30.3238 14.756 30.1248 14.931V14.931ZM31.1628 17.287C31.0508 17.422 30.9398 17.561 30.8408 17.711C30.6518 18.003 30.0698 18.334 29.3388 18.591C29.2078 18.177 29.1438 17.78 29.2178 17.505C29.3108 17.159 29.3508 16.825 29.3628 16.498C29.6568 16.255 29.9608 15.97 30.2128 15.728C30.3488 15.599 30.4648 15.488 30.5498 15.415C30.6708 15.308 30.8978 15.172 31.1388 15.037C31.1538 15.137 31.1708 15.242 31.1708 15.314C31.1708 15.424 31.1648 15.583 31.1568 15.768C31.1318 16.359 31.1198 16.888 31.1628 17.287V17.287ZM31.5588 19.475C31.2318 19.866 30.6828 20.518 30.0958 20.798C30.0758 20.809 30.0488 20.825 30.0268 20.836C30.0968 20.501 30.0928 20.159 29.8338 19.708C29.7418 19.55 29.6538 19.373 29.5728 19.192C30.1908 18.972 30.9928 18.606 31.3488 18.101C31.4288 18.454 31.5178 18.955 31.5898 19.439L31.5588 19.475ZM31.7038 20.688L31.6658 20.946C31.6098 21.313 31.5398 21.837 31.5488 22.356C31.3218 22.446 31.0688 22.564 30.7918 22.761C30.6478 22.862 30.5148 22.953 30.3878 23.039C30.2848 23.111 30.1938 23.176 30.0968 23.244C30.0428 23.103 29.9858 22.977 29.9328 22.865C29.7778 22.542 29.6738 22.328 29.7538 21.897C29.7678 21.822 29.7848 21.761 29.7998 21.694C30.0068 21.571 30.2048 21.458 30.3728 21.379C30.8858 21.135 31.3408 20.693 31.6918 20.303C31.7058 20.469 31.7128 20.613 31.7038 20.688V20.688ZM31.9678 24.861C31.9298 24.898 31.8968 24.93 31.8568 24.968C31.4488 25.375 30.9848 25.836 30.4738 26.082C30.4438 26.098 30.4028 26.101 30.3728 26.114C30.4648 25.514 30.4168 25.049 30.3438 24.484C30.3248 24.336 30.3048 24.181 30.2858 24.013C30.2828 23.977 30.2748 23.947 30.2698 23.912C30.4188 23.802 30.5768 23.691 30.7518 23.572C30.8818 23.483 31.0178 23.39 31.1648 23.286C31.3288 23.17 31.4808 23.09 31.6278 23.024C31.6398 23.075 31.6398 23.129 31.6548 23.178C31.7828 23.595 31.8948 24.249 31.9678 24.861V24.861ZM33.2368 16.936L33.3148 17.137C33.4208 17.413 33.4778 17.706 33.4928 18.013C33.0178 18.307 32.5168 18.641 32.1578 18.911C32.0578 18.309 31.9408 17.75 31.8598 17.521C32.1728 17.206 32.5198 16.936 32.9388 16.766L33.1428 16.683C33.1748 16.767 33.2078 16.858 33.2368 16.936V16.936ZM35.2208 14.556C35.1898 14.603 35.1598 14.645 35.1258 14.692L35.0818 14.76C34.7618 15.226 34.1448 15.559 33.5298 15.827C33.3778 15.327 33.2798 14.807 33.3998 14.333L33.4188 14.252C33.4598 14.086 33.4958 13.932 33.5328 13.777C33.6208 13.72 33.7218 13.65 33.8198 13.583C34.2538 13.768 34.6978 13.917 35.1458 14.038C35.1708 14.228 35.1968 14.404 35.2208 14.556V14.556ZM39.9838 18.415C39.9768 18.616 39.9688 18.81 39.9648 18.994C39.8338 19.094 39.7128 19.177 39.6198 19.214C39.4698 19.278 39.1808 19.441 38.8458 19.643C38.8078 19.452 38.7548 19.264 38.6848 19.083L38.6068 18.883C38.5348 18.698 38.4578 18.501 38.3858 18.297C38.5018 18.233 38.6008 18.144 38.7258 18.093L38.9418 18.005C39.2608 17.876 39.6068 17.726 39.9498 17.555C39.9788 17.714 39.9988 17.858 39.9988 17.963C39.9988 18.073 39.9928 18.232 39.9838 18.415V18.415ZM38.7818 22.14C38.7308 21.883 38.7038 21.642 38.7538 21.462C38.8568 21.082 38.9008 20.714 38.9038 20.359C39.3208 20.099 39.6948 19.881 39.8678 19.809C39.9018 19.795 39.9428 19.764 39.9778 19.746C39.9928 19.995 40.0198 20.217 40.0788 20.372C40.1148 20.468 40.1598 20.656 40.2078 20.881C39.7468 21.191 39.3468 21.488 39.1998 21.651L39.0208 21.862C38.9528 21.943 38.8698 22.042 38.7818 22.14V22.14ZM37.8348 23.765C38.0688 23.654 38.2858 23.495 38.4928 23.325C38.6278 23.624 38.7568 23.858 38.8118 23.952C39.0308 24.329 38.9758 24.509 38.8428 24.946C38.8118 25.046 38.7798 25.153 38.7478 25.27C38.7258 25.285 38.7048 25.296 38.6828 25.311C38.5418 25.411 38.4108 25.501 38.2838 25.586C37.9108 25.841 37.5928 26.066 37.2928 26.362C37.2218 25.911 37.1358 25.48 37.0388 25.166C36.9588 24.907 36.9458 24.588 36.9588 24.269C37.2778 24.07 37.5878 23.884 37.8348 23.765V23.765ZM37.0268 21.754L37.1938 21.558C37.3158 21.422 37.7468 21.113 38.2328 20.79C38.2098 20.955 38.1778 21.122 38.1318 21.292C38.0158 21.716 38.1048 22.223 38.2498 22.684C38.0328 22.883 37.8008 23.069 37.5598 23.185C37.4028 23.26 37.2188 23.364 37.0338 23.472C37.0458 23.389 37.0578 23.299 37.0678 23.226L37.1068 22.948C37.1358 22.731 37.0968 22.269 37.0268 21.754V21.754ZM36.6778 19.871C36.8658 19.732 37.0328 19.581 37.1428 19.414C37.3378 19.115 37.5678 18.859 37.8268 18.641C37.8868 18.806 37.9488 18.972 38.0068 19.118L38.0828 19.314C38.1688 19.539 38.2158 19.775 38.2408 20.018C37.7208 20.352 37.1998 20.711 36.9028 20.957C36.8288 20.519 36.7468 20.124 36.6778 19.871V19.871ZM35.1118 26.159C35.0918 26.018 35.0738 25.868 35.0558 25.705C35.1508 25.613 35.2488 25.513 35.3388 25.434C35.5668 25.233 35.9318 24.962 36.3188 24.692C36.3328 24.923 36.3598 25.15 36.4238 25.356C36.5528 25.777 36.6648 26.441 36.7388 27.062C36.6688 27.166 36.6018 27.254 36.5318 27.376C36.1808 27.995 35.6848 28.11 35.1098 28.243C35.0828 28.249 35.0558 28.257 35.0278 28.263C35.2528 27.404 35.1998 26.834 35.1118 26.159V26.159ZM37.6248 17.99C37.2318 18.28 36.8858 18.631 36.6038 19.061C36.5928 19.077 36.5648 19.095 36.5518 19.11C36.5388 18.739 36.5538 18.294 36.5668 17.973C36.5748 17.777 36.5828 17.608 36.5828 17.492C36.5828 17.273 36.5298 16.977 36.4628 16.681C36.5668 16.58 36.6688 16.484 36.7398 16.423C36.9178 16.266 37.3008 16.048 37.6598 15.864C37.6298 15.994 37.6008 16.123 37.5628 16.269L37.5418 16.355C37.4058 16.898 37.4828 17.462 37.6248 17.99V17.99ZM34.5098 23.733C34.8038 23.549 35.0888 23.381 35.3188 23.269C35.7458 23.064 36.1278 22.725 36.4518 22.391C36.4718 22.602 36.4808 22.778 36.4708 22.867L36.4308 23.13C36.3988 23.343 36.3648 23.616 36.3398 23.903C35.7838 24.267 35.2388 24.665 34.9128 24.95C34.9038 24.959 34.8928 24.972 34.8818 24.981C34.8218 24.821 34.7568 24.683 34.6988 24.562C34.5608 24.278 34.4718 24.073 34.5098 23.733V23.733ZM34.5978 31.256C34.4698 31.343 34.3348 31.435 34.1898 31.536C33.8318 31.791 33.5288 31.889 33.2328 31.985C33.2148 31.989 33.1968 31.996 33.1778 32.002C33.2098 31.731 33.2648 31.442 33.3878 31.073C33.5418 30.608 33.5348 30.234 33.4598 29.912C33.6918 29.688 33.9398 29.467 34.2008 29.288C34.2278 29.814 34.4498 30.21 34.6568 30.54C34.7598 30.708 34.8518 30.868 34.9168 31.034C34.8138 31.106 34.7128 31.177 34.5978 31.256V31.256ZM32.7408 28.404C32.6438 28.086 32.6298 27.706 32.6378 27.325C32.8728 27.269 33.1088 27.207 33.3348 27.101C33.7638 26.896 34.1358 26.586 34.4748 26.267C34.5718 27.001 34.6298 27.496 34.3118 28.456C34.3068 28.468 34.3088 28.478 34.3058 28.491C34.2948 28.496 34.2828 28.499 34.2728 28.504C33.8748 28.693 33.5268 28.976 33.2068 29.271C33.1518 29.174 33.0968 29.077 33.0428 28.989C32.9188 28.79 32.8018 28.602 32.7408 28.404V28.404ZM31.0758 33.908C30.9598 33.217 30.8798 32.429 30.8778 31.949C31.5558 31.532 32.2928 31.006 32.6948 30.652C32.7428 30.609 32.7988 30.551 32.8498 30.504C32.8358 30.62 32.8218 30.734 32.7758 30.869C32.5788 31.462 32.5118 31.903 32.5048 32.309C32.3478 32.413 32.1898 32.541 32.0398 32.736C31.8608 32.965 31.7378 33.165 31.6338 33.34C31.4538 33.636 31.3498 33.793 31.0758 33.908V33.908ZM30.2168 40.352C30.4798 40.2 30.7048 40.055 30.9108 39.911C30.9708 40.211 31.0308 40.455 31.0778 40.581C31.1738 40.843 31.1598 41.536 31.1408 42.067C30.8188 42.269 30.3968 42.484 30.1008 42.621C30.0588 41.926 29.8108 41.244 29.5998 40.693C29.7848 40.596 29.9848 40.487 30.2168 40.352V40.352ZM29.4488 38.412C29.4528 38.396 29.4518 38.377 29.4558 38.36C29.6758 38.175 29.8858 38.015 30.0298 37.955C30.1478 37.905 30.3518 37.797 30.5908 37.659C30.6128 38.07 30.6898 38.652 30.7818 39.206C30.5408 39.394 30.2558 39.585 29.8948 39.796C29.7108 39.902 29.5488 39.992 29.3978 40.073C29.2778 39.562 29.2908 39.006 29.4488 38.412V38.412ZM28.7858 35.746C28.7968 35.73 28.8108 35.716 28.8218 35.698C29.0328 35.374 29.7368 35.005 30.5878 34.74C30.6098 34.834 30.6348 34.928 30.6588 35.011C30.8258 35.558 30.7208 36.352 30.6448 36.877C30.2728 37.105 29.9418 37.295 29.7838 37.361C29.6848 37.401 29.5768 37.464 29.4618 37.543C29.3328 36.762 28.9198 35.98 28.7858 35.746V35.746ZM25.5368 35.834C25.7138 35.761 26.0718 35.558 26.4728 35.314C26.6718 35.78 26.7948 36.251 26.7758 36.615C26.7578 36.622 26.7438 36.637 26.7258 36.645L26.5128 36.73C26.1788 36.864 25.8158 37.02 25.4598 37.198C25.4428 37.069 25.4178 36.955 25.3828 36.862C25.3318 36.725 25.2638 36.415 25.1948 36.052C25.3248 35.954 25.4448 35.872 25.5368 35.834V35.834ZM24.9298 33.895L24.9668 33.638C24.9968 33.443 25.0298 33.196 25.0558 32.935C25.1558 32.906 25.2478 32.871 25.3508 32.844C25.8138 32.726 26.0618 32.54 26.2498 32.322C26.2448 32.38 26.2438 32.434 26.2308 32.5C26.1828 32.765 26.1168 32.975 26.0618 33.158C25.9158 33.635 25.7908 34.046 26.1528 34.664C26.1658 34.685 26.1758 34.712 26.1888 34.735C25.8108 34.968 25.4668 35.166 25.2898 35.238C25.2238 35.267 25.1478 35.315 25.0748 35.36C24.9768 34.729 24.9048 34.102 24.9298 33.895V33.895ZM24.7908 30.583C24.8978 30.538 25.0078 30.496 25.1338 30.455C25.2948 30.403 25.4788 30.341 25.6768 30.252C25.6838 30.309 25.6908 30.358 25.6978 30.417C25.7528 30.915 25.9038 31.243 26.0338 31.508C26.0218 31.527 26.0068 31.549 25.9958 31.568C25.7688 31.942 25.6758 32.097 25.1908 32.219C25.1678 32.226 25.1218 32.239 25.0848 32.25C25.0808 31.957 25.0578 31.666 24.9778 31.405C24.9088 31.185 24.8478 30.895 24.7908 30.583V30.583ZM23.8298 37.277C23.9198 37.199 24.0438 37.081 24.1868 36.944C24.3148 36.823 24.4718 36.676 24.6358 36.527C24.6878 36.774 24.7388 36.978 24.7788 37.087C24.8168 37.187 24.8348 37.366 24.8438 37.566C24.5248 37.785 24.2268 38.032 24.0068 38.353C23.9318 38.463 23.8658 38.556 23.7968 38.655C23.8028 38.24 23.7278 37.832 23.6128 37.443C23.6958 37.386 23.7718 37.33 23.8298 37.277V37.277ZM23.1498 34.293C23.1848 34.17 23.1998 34.041 23.2038 33.909C23.3728 33.666 23.8168 33.399 24.3828 33.168C24.3648 33.302 24.3478 33.432 24.3298 33.541L24.2908 33.816C24.2518 34.139 24.3618 35.013 24.4948 35.792C24.2608 35.992 24.0098 36.224 23.7438 36.478C23.6078 36.607 23.4908 36.72 23.4058 36.794C23.4048 36.795 23.4018 36.796 23.4008 36.797C23.3598 36.687 23.3188 36.572 23.2788 36.473L23.1998 36.27C22.9708 35.678 22.9558 35.013 23.1498 34.293V34.293ZM25.5498 25.914C25.6378 26.056 25.7158 26.196 25.7818 26.337C25.4078 26.608 25.0728 26.935 24.7708 27.238C24.7238 27.284 24.6818 27.321 24.6358 27.365C24.6518 26.9 24.6388 26.422 24.5058 25.99C24.4248 25.726 24.2878 25.501 24.1548 25.285C24.4168 25.128 24.7118 25.048 25.0358 24.974C25.0678 24.966 25.0998 24.957 25.1328 24.949C25.1478 25.026 25.1588 25.105 25.1798 25.18C25.2668 25.457 25.4098 25.69 25.5498 25.914V25.914ZM25.5478 18.257L25.3708 18.465C25.3348 18.509 25.2868 18.564 25.2458 18.612C25.2648 18.249 25.3168 17.894 25.3578 17.629L25.3958 17.355C25.4048 17.292 25.4048 17.201 25.4028 17.098C25.6048 16.952 25.7828 16.795 25.8988 16.616C26.0728 16.35 26.2808 16.128 26.5058 15.928C26.5888 16.342 26.6778 16.885 26.7418 17.363C26.2058 17.717 25.7148 18.07 25.5478 18.257V18.257ZM26.7798 18.635C26.7048 19.142 26.5978 19.942 26.7188 20.623C26.5748 20.702 26.4168 20.754 26.2318 20.815C26.0538 20.872 25.8468 20.944 25.6218 21.049C25.5448 20.501 25.4418 19.954 25.3248 19.575C25.3168 19.552 25.3178 19.52 25.3128 19.495C25.5258 19.273 25.7198 19.052 25.8638 18.88L26.0298 18.685C26.1278 18.572 26.4408 18.344 26.8158 18.089C26.8228 18.21 26.8258 18.313 26.8178 18.374L26.7798 18.635ZM27.1128 22.888C27.0598 22.94 27.0108 22.984 26.9558 23.038C26.5798 23.412 26.1548 23.828 25.6908 24.077C25.6908 23.815 25.7058 23.548 25.7218 23.296C25.7378 23.052 25.7528 22.82 25.7528 22.613C25.7528 22.379 25.7338 22.074 25.7018 21.746C25.9618 21.598 26.2038 21.502 26.4318 21.427C26.5748 21.38 26.7178 21.327 26.8618 21.265C26.9698 21.738 27.0588 22.344 27.1128 22.888V22.888ZM27.4298 14.635L27.2128 14.723C27.1108 14.764 27.0178 14.818 26.9198 14.867C26.8728 14.465 26.8958 13.823 26.9148 13.396C26.9168 13.351 26.9178 13.312 26.9188 13.269C26.9228 13.266 26.9308 13.259 26.9338 13.255C27.1318 13.081 27.5888 12.829 27.9778 12.635C27.9118 13.206 28.0168 13.784 28.1848 14.314C27.9288 14.43 27.6698 14.538 27.4298 14.635V14.635ZM28.4188 16.374C28.2198 16.457 27.7988 16.696 27.3368 16.983C27.2608 16.456 27.1648 15.924 27.0768 15.544C27.2058 15.471 27.3158 15.374 27.4548 15.318L27.6668 15.232C27.8998 15.139 28.1488 15.038 28.3968 14.927C28.4218 14.991 28.4458 15.061 28.4698 15.122L28.5478 15.326C28.6518 15.598 28.7038 15.888 28.7208 16.188C28.6058 16.272 28.5018 16.34 28.4188 16.374V16.374ZM28.6758 18.795C27.9348 18.984 27.7238 19.334 27.4798 19.739C27.4288 19.824 27.3708 19.916 27.3048 20.014C27.3018 19.555 27.3668 19.069 27.4178 18.731L27.4578 18.452C27.4758 18.298 27.4598 18.019 27.4278 17.689C27.9448 17.358 28.4548 17.056 28.6658 16.969C28.6668 16.969 28.6688 16.966 28.6698 16.966C28.6498 17.089 28.6298 17.21 28.5968 17.337C28.4778 17.777 28.5738 18.304 28.7258 18.78C28.7078 18.785 28.6938 18.792 28.6758 18.795V18.795ZM29.3068 21.043C29.2848 21.118 29.2608 21.201 29.2388 21.285C28.6808 21.631 28.1148 22.032 27.7028 22.363C27.6338 21.827 27.5388 21.288 27.4308 20.878C27.4958 20.815 27.5608 20.757 27.6238 20.675C27.8038 20.445 27.9248 20.246 28.0288 20.071C28.2558 19.697 28.3498 19.542 28.8348 19.419C28.8618 19.413 28.9108 19.399 28.9548 19.387C29.0898 19.694 29.2208 19.934 29.2768 20.029C29.4968 20.414 29.4398 20.598 29.3068 21.043V21.043ZM28.6128 24.85C28.3818 25.253 28.0898 25.438 27.7598 25.562C27.7428 25.208 27.7598 24.836 27.7818 24.489C27.7978 24.242 27.8118 24.006 27.8118 23.796C27.8118 23.612 27.8018 23.385 27.7828 23.137C27.8118 23.109 27.8448 23.074 27.8768 23.047C28.1518 22.806 28.6108 22.466 29.0888 22.144C29.0828 22.568 29.2158 22.862 29.3508 23.145C29.4258 23.3 29.4958 23.473 29.5538 23.669C29.2288 23.957 28.9268 24.302 28.6128 24.85V24.85ZM26.6828 29.631C27.1578 29.306 27.5408 29.028 27.9158 28.592C27.9028 28.636 27.9048 28.672 27.8888 28.72C27.6888 29.332 27.6248 29.785 27.6208 30.203L27.5958 30.213C27.2188 30.333 26.8318 30.47 26.4678 30.895C26.4098 30.74 26.3628 30.567 26.3388 30.346C26.3198 30.188 26.3028 30.044 26.2828 29.907C26.4238 29.807 26.5578 29.716 26.6828 29.631V29.631ZM26.4418 27.658C26.5778 27.25 26.5768 26.922 26.5308 26.627C26.5538 26.613 26.5778 26.595 26.6018 26.583C26.7908 26.493 27.0108 26.441 27.2388 26.387C27.2398 26.391 27.2398 26.396 27.2418 26.4C27.3258 26.682 27.4698 26.917 27.6098 27.146C27.6998 27.293 27.7778 27.437 27.8448 27.585C27.3788 28.363 26.9498 28.667 26.3178 29.098C26.2858 29.122 26.2478 29.148 26.2138 29.173C26.1898 28.735 26.2268 28.301 26.4418 27.658V27.658ZM25.7958 24.989C25.7738 24.918 25.7638 24.837 25.7498 24.759C25.7898 24.743 25.8318 24.732 25.8718 24.713C26.3668 24.478 26.7878 24.102 27.1658 23.733C27.1658 23.753 27.1668 23.777 27.1668 23.796C27.1668 23.994 27.1538 24.216 27.1388 24.449C27.1138 24.863 27.0908 25.312 27.1278 25.747C26.8648 25.809 26.5948 25.877 26.3388 25.999C26.2618 25.846 26.1768 25.704 26.0968 25.575C25.9728 25.376 25.8558 25.189 25.7958 24.989V24.989ZM25.5948 29.561C25.3618 29.684 25.1398 29.775 24.9328 29.844C24.8528 29.87 24.7718 29.9 24.6898 29.929C24.6218 29.409 24.5808 28.899 24.5808 28.557C24.5808 28.473 24.5878 28.371 24.5918 28.278C24.6308 28.246 24.6848 28.207 24.7188 28.178C24.8778 28.037 25.0458 27.871 25.2238 27.694C25.4388 27.481 25.6678 27.255 25.9098 27.052C25.9008 27.176 25.8808 27.305 25.8298 27.455C25.5238 28.375 25.5278 28.938 25.5948 29.561V29.561ZM26.8358 39.209L26.9168 39.413C26.9258 39.439 26.9358 39.466 26.9458 39.491C26.6908 39.621 26.4488 39.736 26.3208 39.787C26.1688 39.846 25.9648 39.927 25.6118 40.125C25.5308 39.803 25.4618 39.469 25.4618 39.269C25.4618 39.16 25.4678 39.001 25.4768 38.815C25.4908 38.484 25.4968 38.178 25.4968 37.898C25.8698 37.689 26.2798 37.518 26.6598 37.366C26.5618 38.021 26.6168 38.639 26.8358 39.209V39.209ZM28.0908 33.33L27.9248 33.524C27.8008 33.664 27.2878 34.028 26.7358 34.388C26.7268 34.374 26.7148 34.35 26.7088 34.339C26.4878 33.964 26.5438 33.783 26.6768 33.346C26.7398 33.144 26.8098 32.911 26.8648 32.618C26.9508 32.157 26.8778 31.84 26.7648 31.563C26.8088 31.497 26.8528 31.432 26.9088 31.359C27.1358 31.071 27.3568 30.972 27.6568 30.871C27.6698 30.997 27.6828 31.122 27.7008 31.257C27.7198 31.403 27.7398 31.558 27.7568 31.725C27.8158 32.256 27.9808 32.599 28.1138 32.876C28.1618 32.978 28.2028 33.07 28.2378 33.16C28.1888 33.216 28.1318 33.28 28.0908 33.33V33.33ZM28.0358 35.628C27.8508 35.857 27.6498 36.063 27.4178 36.232C27.3558 35.781 27.1888 35.327 27.0268 34.967C27.5058 34.658 27.9638 34.338 28.2308 34.113C28.1948 34.26 28.1568 34.396 28.1218 34.514C28.0108 34.882 27.9158 35.212 28.0358 35.628V35.628ZM29.6728 26.326C29.2038 26.438 28.7018 26.583 28.2758 27.015C28.2358 26.946 28.1968 26.874 28.1578 26.81C28.0348 26.608 27.9188 26.416 27.8568 26.214C28.3338 26.061 28.8088 25.8 29.1698 25.17C29.3448 24.866 29.5158 24.644 29.6908 24.448C29.6958 24.486 29.6988 24.529 29.7048 24.566C29.7848 25.186 29.8308 25.647 29.6728 26.326V26.326ZM28.9608 29.484C28.8328 29.572 28.6988 29.664 28.5528 29.766C28.4588 29.832 28.3758 29.866 28.2888 29.914C28.3158 29.626 28.3718 29.317 28.5018 28.92C28.6658 28.419 28.6558 28.018 28.5668 27.68C28.8258 27.316 29.1408 27.142 29.5018 27.035C29.3118 27.841 29.5658 28.385 29.8288 28.82C29.5728 29.064 29.2958 29.256 28.9608 29.484V29.484ZM30.1408 29.403C30.1558 29.441 30.1778 29.478 30.1898 29.517C30.3398 30.016 30.2988 30.665 30.2638 31.238C30.2558 31.358 30.2548 31.462 30.2478 31.576C30.0808 31.673 29.9118 31.77 29.7718 31.838C29.3768 32.026 29.0198 32.331 28.7138 32.64C28.7058 32.626 28.7018 32.612 28.6948 32.598C28.5708 32.342 28.4438 32.076 28.3978 31.655C28.3798 31.484 28.3588 31.325 28.3408 31.175C28.3158 30.988 28.2948 30.816 28.2798 30.649C28.4768 30.566 28.6938 30.455 28.9258 30.291C29.0648 30.191 29.1968 30.101 29.3228 30.017C29.6268 29.81 29.8898 29.622 30.1408 29.403V29.403ZM28.9378 33.339C29.2488 32.994 29.6378 32.615 30.0498 32.418C30.1068 32.391 30.1828 32.344 30.2448 32.31C30.2728 32.831 30.3498 33.5 30.4558 34.099C29.9698 34.246 29.1918 34.536 28.6658 34.954C28.6848 34.877 28.7078 34.796 28.7388 34.698C28.7988 34.495 28.8708 34.258 28.9258 33.961C28.9708 33.716 28.9628 33.52 28.9378 33.339V33.339ZM32.0248 26.669C32.0208 26.718 32.0188 26.77 32.0158 26.82C31.4908 26.961 30.9168 27.198 30.5148 27.91C30.4298 28.058 30.3478 28.173 30.2658 28.29C30.0768 27.943 29.9698 27.58 30.1538 27.015C30.1738 26.956 30.1798 26.912 30.1958 26.856C30.3838 26.806 30.5708 26.749 30.7538 26.661C31.2428 26.426 31.6628 26.055 32.0428 25.689C32.0478 25.811 32.0528 25.928 32.0528 26.026C32.0528 26.221 32.0398 26.439 32.0248 26.669V26.669ZM32.4958 29.328C32.5808 29.465 32.6558 29.598 32.7218 29.736C32.5648 29.892 32.4128 30.043 32.2698 30.169C31.9658 30.435 31.4428 30.816 30.9128 31.165C30.9498 30.566 30.9798 29.905 30.8038 29.328C30.7578 29.175 30.6918 29.035 30.6198 28.902C30.7718 28.712 30.9218 28.497 31.0758 28.227C31.3188 27.799 31.6338 27.617 31.9928 27.499C31.9928 27.873 32.0198 28.249 32.1268 28.594C32.2118 28.871 32.3558 29.103 32.4958 29.328V29.328ZM33.7518 21.457C33.7768 21.416 33.7978 21.387 33.8198 21.351C33.9178 21.549 34.0028 21.702 34.0438 21.774C34.2638 22.15 34.2088 22.332 34.0758 22.768C34.0248 22.933 33.9708 23.127 33.9218 23.346C33.4048 23.681 32.9078 24.039 32.5468 24.336C32.4738 23.831 32.3768 23.339 32.2708 22.989C32.2518 22.93 32.2488 22.858 32.2368 22.793C32.6068 22.67 32.9838 22.519 33.3388 22.068C33.5208 21.835 33.6448 21.633 33.7518 21.457V21.457ZM34.6088 17.383C34.4978 17.428 34.3128 17.527 34.0988 17.651C34.0618 17.395 34.0088 17.144 33.9168 16.906L33.8368 16.702C33.8038 16.618 33.7708 16.526 33.7368 16.438C34.3458 16.176 34.9538 15.837 35.3868 15.364C35.4478 15.595 35.5048 15.736 35.5488 15.846C35.5958 15.963 35.6718 16.209 35.7438 16.474C35.3648 16.831 34.8798 17.27 34.6088 17.383V17.383ZM32.6418 25.107C32.6888 25.063 32.7398 25.01 32.7858 24.97C33.0378 24.749 33.4468 24.444 33.8788 24.147C33.9218 24.415 34.0178 24.635 34.1208 24.843C34.2108 25.027 34.2908 25.239 34.3508 25.49C33.9658 25.874 33.5338 26.292 33.0578 26.518C32.9438 26.574 32.8018 26.601 32.6708 26.637C32.6838 26.422 32.6978 26.211 32.6978 26.026C32.6978 25.781 32.6768 25.457 32.6418 25.107V25.107ZM34.5998 21.451C34.4978 21.276 34.3998 21.082 34.3108 20.881C34.3848 20.849 34.4668 20.82 34.5728 20.79C34.7748 20.738 35.4668 20.543 36.1038 20.222C36.1828 20.561 36.2758 21.065 36.3478 21.556C36.0098 21.948 35.5408 22.448 35.0398 22.689C34.9438 22.736 34.8238 22.809 34.7148 22.869C34.8468 22.43 34.9378 22.031 34.5998 21.451V21.451ZM35.9418 19.572C35.5338 19.798 35.0028 20.013 34.4098 20.168C34.2808 20.201 34.1868 20.245 34.0868 20.287C33.9698 19.903 33.9158 19.539 33.9858 19.284C34.0708 18.974 34.1088 18.674 34.1258 18.381C34.4418 18.191 34.7148 18.035 34.8548 17.977C35.1498 17.856 35.5368 17.534 35.9038 17.202C35.9208 17.308 35.9368 17.416 35.9368 17.492C35.9368 17.602 35.9328 17.761 35.9238 17.946C35.8958 18.59 35.8828 19.163 35.9418 19.572V19.572ZM32.2698 19.649C32.4448 19.48 32.9138 19.151 33.4228 18.82C33.4038 18.917 33.3918 19.014 33.3638 19.114C33.2358 19.586 33.3568 20.163 33.5338 20.665C33.4058 20.805 33.3028 20.957 33.2018 21.123C33.1058 21.279 32.9958 21.46 32.8308 21.67C32.6318 21.925 32.4318 22.038 32.1898 22.13C32.2028 21.732 32.2588 21.332 32.3018 21.043L32.3408 20.769C32.3658 20.564 32.3308 20.133 32.2698 19.649V19.649ZM23.8638 31.553C23.9568 31.4 24.0658 31.223 24.2218 31.022C24.2658 31.234 24.3128 31.432 24.3628 31.596C24.4398 31.845 24.4528 32.148 24.4428 32.452C24.0098 32.606 23.4968 32.834 23.1008 33.128C23.0368 32.882 22.9518 32.646 22.8618 32.432C23.4248 32.228 23.6418 31.916 23.8638 31.553V31.553ZM22.5908 31.851C22.5398 31.757 22.4958 31.676 22.4698 31.633C22.2508 31.256 22.3078 31.075 22.4398 30.637C22.5018 30.436 22.5718 30.203 22.6278 29.911C22.6468 29.81 22.6468 29.724 22.6518 29.635C23.0768 29.382 23.5318 29.077 23.9408 28.779C23.9558 29.19 24.0078 29.726 24.0868 30.254C23.9648 30.349 23.8438 30.457 23.7268 30.607C23.5458 30.84 23.4198 31.042 23.3128 31.217C23.1008 31.569 22.9868 31.728 22.5908 31.851V31.851ZM20.9068 37.208C20.8108 36.969 20.6068 36.255 20.5458 35.792C20.7388 35.709 20.9318 35.631 21.1118 35.558L21.3328 35.469C21.7278 35.31 22.0828 35.092 22.3988 34.823C22.3338 35.417 22.3978 35.979 22.5998 36.502L22.6788 36.707C22.7348 36.849 22.7908 37.002 22.8478 37.156C22.4648 37.373 22.0238 37.589 21.8258 37.665C21.6768 37.724 21.4748 37.805 21.1418 37.992C21.0498 37.571 20.9678 37.36 20.9068 37.208V37.208ZM22.2468 32.637C22.3988 32.998 22.5158 33.37 22.5478 33.688C22.1678 34.222 21.6858 34.631 21.0898 34.874L20.8728 34.961C20.7628 35.004 20.6468 35.055 20.5328 35.102C20.5588 34.497 20.5718 33.954 20.5238 33.552C20.7848 33.239 21.4418 32.893 22.2468 32.637V32.637ZM20.3718 31.527L20.5558 31.313C20.8698 30.942 21.3838 30.344 21.9378 30.036C21.9008 30.188 21.8608 30.329 21.8248 30.449C21.6798 30.926 21.5538 31.338 21.9148 31.957C21.9298 31.985 21.9438 32.018 21.9608 32.046C21.4848 32.204 20.8288 32.47 20.3508 32.833C20.2848 32.547 20.2098 32.147 20.1438 31.732C20.2438 31.652 20.3238 31.581 20.3718 31.527V31.527ZM23.4398 22.7C23.2778 22.898 23.1158 23.123 22.9508 23.412C22.7718 23.73 22.5528 23.913 22.3058 24.036C22.2588 23.553 22.0538 23.179 21.8598 22.867C21.7368 22.668 21.6188 22.481 21.5578 22.282C21.5488 22.251 21.5458 22.214 21.5378 22.181C21.5868 22.135 21.6398 22.081 21.6858 22.04C22.0498 21.721 22.7248 21.237 23.3518 20.846C23.3708 21.007 23.3898 21.158 23.4068 21.299C23.4738 21.804 23.5138 22.202 23.4398 22.7V22.7ZM21.9938 26.745C21.9368 26.204 21.9458 25.728 22.2038 24.951C22.2298 24.876 22.2248 24.818 22.2428 24.749C22.5448 24.647 22.8498 24.499 23.1218 24.233C23.1188 24.594 23.2138 24.892 23.3408 25.15C23.2398 25.263 23.1398 25.371 23.0528 25.523C22.7088 26.129 22.3878 26.448 21.9938 26.745V26.745ZM23.6118 25.839C23.6338 25.803 23.6598 25.784 23.6828 25.749C23.7678 25.893 23.8478 26.035 23.8918 26.181C24.0428 26.671 24.0018 27.31 23.9658 27.874C23.9638 27.904 23.9638 27.928 23.9618 27.959C23.5678 28.267 23.0548 28.626 22.5558 28.938C22.5078 28.807 22.4538 28.683 22.3958 28.563C22.2738 28.312 22.1468 28.053 22.1018 27.64C22.0948 27.581 22.0888 27.531 22.0808 27.475C22.6648 27.071 23.1238 26.703 23.6118 25.839V25.839ZM24.6208 19.271C24.3968 19.477 24.1578 19.67 23.9068 19.789C23.8608 19.812 23.8008 19.85 23.7518 19.875C23.7118 19.783 23.6718 19.696 23.6338 19.618C23.4788 19.3 23.3768 19.091 23.4558 18.67C23.5058 18.404 23.5698 18.194 23.6248 18.011C23.6398 17.968 23.6478 17.927 23.6608 17.885C23.9388 17.801 24.3298 17.667 24.7268 17.482L24.7208 17.532C24.6528 17.977 24.5558 18.654 24.6208 19.271V19.271ZM20.0238 29.93C20.0788 29.56 20.1508 29.028 20.1398 28.504C20.2018 28.482 20.2618 28.461 20.3308 28.439C20.6398 28.339 21.0228 28.216 21.4628 27.905C21.4728 27.898 21.4798 27.892 21.4908 27.885C21.5638 28.307 21.6988 28.605 21.8168 28.844C21.8908 28.999 21.9528 29.128 21.9878 29.266C21.9148 29.305 21.8298 29.36 21.7628 29.391C21.0468 29.736 20.4318 30.462 20.0648 30.898L20.0328 30.935C19.9918 30.595 19.9708 30.312 19.9848 30.187L20.0238 29.93ZM19.7308 26.095C20.1028 25.727 20.5148 25.337 20.9678 25.121C21.1378 25.04 21.3378 24.996 21.5398 24.947C21.2588 25.885 21.3028 26.458 21.3948 27.169C21.2958 27.236 21.1978 27.303 21.0898 27.378C20.7318 27.633 20.4278 27.731 20.1318 27.827C20.1098 27.834 20.0848 27.842 20.0618 27.851C20.0498 27.801 20.0478 27.745 20.0328 27.697C19.9108 27.299 19.8028 26.685 19.7308 26.095V26.095ZM19.9108 34.28C19.9088 34.563 19.8978 34.856 19.8888 35.082C19.8848 35.202 19.8808 35.305 19.8788 35.398C19.5598 35.553 19.2528 35.728 18.9808 35.939C18.9668 35.639 18.9058 35.345 18.8298 35.059C19.2338 34.859 19.5958 34.599 19.9108 34.28V34.28ZM19.5638 32.161C19.6558 32.69 19.7568 33.161 19.8308 33.363C19.5098 33.818 19.0998 34.158 18.6268 34.411C18.5688 34.247 18.5078 34.086 18.4498 33.94L18.3728 33.74C18.2868 33.514 18.2408 33.275 18.2148 33.029C18.6388 32.776 19.1378 32.455 19.5638 32.161V32.161ZM19.4508 31.455C19.1148 31.699 18.6508 32.007 18.2198 32.275C18.2428 32.107 18.2778 31.936 18.3258 31.762C18.4438 31.33 18.3498 30.813 18.1988 30.345C18.6798 30.145 18.8808 29.852 19.0848 29.514C19.1778 29.36 19.2878 29.181 19.4468 28.974C19.4618 28.954 19.4778 28.943 19.4938 28.924C19.4718 29.26 19.4238 29.587 19.3858 29.834L19.3478 30.107C19.3178 30.344 19.3698 30.88 19.4508 31.455V31.455ZM26.3818 42.499C26.3188 42.431 26.2548 42.361 26.1918 42.292C26.0588 41.447 25.9348 41.124 25.8518 40.916C25.8378 40.882 25.8158 40.813 25.7988 40.761C26.1888 40.532 26.4028 40.445 26.5558 40.386C26.6658 40.343 26.8988 40.237 27.1668 40.102C27.2918 40.474 27.3898 40.859 27.4018 41.237C27.3538 41.295 27.3088 41.344 27.2578 41.419L27.2128 41.487C26.9168 41.921 26.6708 42.242 26.3818 42.499V42.499ZM28.8138 40.366C28.6358 40.449 28.4778 40.52 28.3468 40.575C28.2078 40.636 28.0918 40.689 27.9848 40.744C27.9298 40.415 27.8488 40.089 27.7458 39.79C27.9748 39.658 28.1868 39.521 28.3248 39.397C28.4118 39.321 28.5328 39.206 28.6728 39.073C28.6788 39.068 28.6878 39.06 28.6928 39.055C28.6548 39.512 28.6968 39.95 28.8138 40.366V40.366ZM28.2288 38.607C28.0968 38.733 27.9818 38.842 27.8988 38.915C27.8118 38.991 27.6728 39.083 27.5148 39.177L27.4368 38.978C27.2128 38.395 27.1958 37.741 27.3818 37.036C27.7398 36.84 28.0608 36.594 28.3418 36.296C28.6408 36.88 28.8688 37.566 28.8358 38.047C28.6398 38.221 28.4368 38.407 28.2288 38.607V38.607ZM31.2758 34.823C31.2498 34.738 31.2248 34.641 31.1998 34.538C31.7558 34.339 31.9678 34.03 32.1838 33.671C32.2778 33.517 32.3868 33.337 32.5458 33.131C32.5498 33.126 32.5538 33.124 32.5578 33.119C32.5678 33.203 32.5748 33.281 32.5868 33.369C32.6058 33.513 32.6258 33.665 32.6438 33.832C32.7018 34.355 32.8668 34.694 32.9988 34.966C33.0008 34.968 33.0018 34.971 33.0028 34.974C32.8468 35.145 32.7018 35.31 32.5878 35.444L32.4168 35.645C32.2958 35.783 31.8458 36.103 31.3478 36.43C31.4018 35.914 31.4248 35.317 31.2758 34.823V34.823ZM35.0008 33.545C34.7338 33.708 34.4778 33.858 34.2658 33.959C33.9878 34.091 33.7338 34.287 33.4948 34.496C33.4038 34.294 33.3188 34.076 33.2848 33.76C33.2648 33.59 33.2448 33.433 33.2258 33.286C33.1978 33.071 33.1758 32.879 33.1618 32.689C33.2448 32.657 33.3328 32.628 33.4308 32.597C33.7388 32.497 34.1238 32.373 34.5618 32.063C34.7028 31.963 34.8338 31.873 34.9598 31.789C34.9918 31.766 35.0198 31.748 35.0498 31.725C35.0728 32.084 35.0528 32.464 35.0308 32.818C35.0158 33.062 34.9998 33.295 34.9998 33.502C34.9998 33.515 35.0008 33.53 35.0008 33.545V33.545ZM39.6098 16.317C39.6558 16.431 39.7288 16.664 39.7978 16.918C39.4358 17.105 39.0508 17.267 38.6988 17.408L38.4808 17.498C38.3818 17.538 38.2918 17.592 38.1968 17.64C38.1118 17.256 38.0758 16.869 38.1658 16.511L38.1878 16.425C38.2678 16.104 38.3318 15.81 38.3808 15.526C38.5638 15.452 38.8248 15.341 39.2868 15.06C39.4128 15.814 39.5308 16.118 39.6098 16.317V16.317ZM37.7238 14.448C37.7808 14.653 37.8048 14.86 37.7908 15.082C37.3558 15.283 36.6428 15.651 36.3138 15.939C36.3028 15.948 36.2828 15.969 36.2718 15.978C36.2198 15.814 36.1748 15.678 36.1448 15.608C36.0838 15.452 35.9978 15.231 35.8988 14.709C36.0128 14.549 36.1218 14.41 36.2338 14.281C36.7528 14.37 37.2518 14.423 37.7238 14.448V14.448ZM32.9338 16.074C32.9268 16.077 32.9188 16.08 32.9128 16.082L32.6958 16.17C32.3608 16.306 32.0568 16.488 31.7768 16.704C31.7758 16.388 31.7888 16.05 31.7998 15.795C31.8088 15.599 31.8148 15.431 31.8148 15.314C31.8148 15.15 31.7838 14.94 31.7398 14.719C31.9018 14.641 32.0438 14.576 32.1298 14.543C32.2718 14.487 32.4618 14.409 32.7678 14.241C32.6338 14.857 32.7518 15.494 32.9338 16.074V16.074ZM26.8418 9.53901C26.9728 9.60001 27.1088 9.65901 27.2368 9.72101C26.8908 9.95801 26.6218 10.255 26.3638 10.608C26.3208 10.454 26.2758 10.249 26.2268 9.96701C26.4108 9.84301 26.6138 9.70201 26.8418 9.53901V9.53901ZM24.4988 15.149C24.5958 15.67 24.6908 16.295 24.7358 16.751C24.4618 16.904 24.1318 17.048 23.7518 17.176C23.7418 17.06 23.7138 16.936 23.6698 16.806L23.8468 16.627C24.0438 16.418 24.2918 15.771 24.4988 15.149V15.149ZM22.3218 18.978C22.4078 18.851 22.4828 18.731 22.5478 18.623C22.6778 18.41 22.7708 18.272 22.9118 18.166C22.8788 18.284 22.8488 18.41 22.8228 18.552C22.7048 19.182 22.8828 19.546 23.0548 19.9C23.0988 19.991 23.1418 20.091 23.1828 20.192C22.5628 20.566 21.8968 21.039 21.4528 21.403C21.4518 21.13 21.4678 20.851 21.4838 20.589C21.4858 20.566 21.4858 20.547 21.4868 20.525C21.7548 20.114 22.0708 19.531 22.3218 18.978V18.978ZM20.0648 23.458C20.4148 23.226 20.7418 22.956 21.0288 22.674C21.1118 22.863 21.2088 23.04 21.3118 23.207C21.5158 23.534 21.6938 23.83 21.6848 24.241C21.6318 24.254 21.5818 24.267 21.5278 24.28C21.2498 24.344 20.9628 24.41 20.6918 24.54C20.3048 24.725 19.9648 24.997 19.6528 25.282C19.6428 25.123 19.6358 24.973 19.6358 24.849C19.6358 24.746 19.6448 24.623 19.6508 24.509C19.9478 24.164 20.0368 23.799 20.0648 23.458V23.458ZM13.6488 33.173L13.8698 33.084C14.3298 32.896 14.7318 32.626 15.0848 32.292C15.1688 32.641 15.1418 33.417 15.1208 33.905C15.1118 34.1 15.1058 34.268 15.1058 34.384C15.1058 34.437 15.1108 34.498 15.1168 34.56C14.8668 34.731 14.5188 34.923 14.2028 35.081C14.1018 34.536 13.9108 34.013 13.7418 33.582L13.6648 33.386C13.6408 33.322 13.6278 33.254 13.6078 33.189C13.6208 33.184 13.6348 33.178 13.6488 33.173V33.173ZM14.0468 37.045C14.0878 36.851 14.1278 36.662 14.1848 36.432L14.2058 36.346C14.2528 36.156 14.2588 35.963 14.2618 35.77C14.5388 35.64 14.9138 35.448 15.2388 35.25C15.3438 35.691 15.4808 36.117 15.5428 36.27C15.5518 36.29 15.5598 36.316 15.5698 36.339C15.3488 36.662 15.1588 36.928 14.9578 37.154C14.6588 37.125 14.3528 37.084 14.0468 37.045V37.045ZM16.4578 37.281C16.4008 36.931 16.3448 36.667 16.2928 36.482C16.7488 35.962 17.5438 35.605 18.2408 35.322C18.3428 35.736 18.3858 36.156 18.2898 36.543L18.2688 36.624C18.2558 36.679 18.2448 36.726 18.2318 36.778C18.0678 37.018 17.9128 37.221 17.7538 37.401C17.3248 37.353 16.8938 37.315 16.4578 37.281V37.281ZM30.1038 45.814C30.0148 45.763 29.9258 45.712 29.8398 45.658C29.7468 45.123 29.8068 44.374 30.0388 43.429C30.0448 43.402 30.0408 43.374 30.0458 43.347C30.0628 43.34 30.0818 43.332 30.0988 43.326C30.2628 43.261 30.6988 43.058 31.1178 42.829C31.1258 43.237 31.2898 43.888 31.4228 44.322C31.3208 44.425 31.2078 44.52 31.1278 44.639L31.0808 44.708C30.7418 45.205 30.4598 45.551 30.1038 45.814V45.814ZM33.3268 40.301C32.9278 40.467 32.3978 40.952 31.7948 41.525C31.7988 41.033 31.7758 40.615 31.6818 40.357C31.6268 40.209 31.5508 39.861 31.4778 39.458C31.7008 39.254 31.8888 39.048 32.0298 38.829C32.1818 38.597 32.5938 38.343 33.1188 38.118C33.4738 38.739 33.7758 39.567 33.7178 40.096C33.5548 40.188 33.4118 40.265 33.3268 40.301V40.301ZM33.7808 42.623L33.8618 42.829C33.8748 42.862 33.8888 42.901 33.9018 42.936C33.8668 42.953 33.8398 42.98 33.8038 42.997L33.5898 43.081C33.0678 43.291 32.4788 43.543 31.9668 43.877C31.8618 43.493 31.7608 43.048 31.7608 42.798C31.7608 42.703 31.7648 42.567 31.7718 42.414C31.8038 42.389 31.8398 42.363 31.8668 42.338C31.9558 42.26 32.0808 42.143 32.2258 42.006C32.6088 41.64 33.2488 41.03 33.5738 40.895L33.5838 40.89C33.5088 41.504 33.5738 42.085 33.7808 42.623V42.623ZM35.6468 31.282C36.0228 30.977 36.3598 30.62 36.7128 29.997C36.7288 29.969 36.7498 29.953 36.7668 29.927C36.7798 30.217 36.8118 30.504 36.8948 30.77C36.9778 31.048 37.1248 31.281 37.2638 31.507C37.3038 31.572 37.3378 31.635 37.3758 31.699C37.3278 31.746 37.2768 31.796 37.2288 31.844C37.0648 32.006 36.9118 32.16 36.7618 32.29C36.5098 32.512 36.0978 32.818 35.6618 33.115C35.6658 33.028 35.6668 32.95 35.6738 32.859C35.7058 32.355 35.7338 31.8 35.6468 31.282V31.282ZM38.6948 28.29C38.4868 28.389 38.2448 28.445 37.9898 28.505C37.8178 28.544 37.6318 28.593 37.4458 28.654C37.4538 28.5 37.4648 28.34 37.4648 28.204C37.4648 27.942 37.4408 27.593 37.4028 27.219C37.7618 26.734 38.1298 26.472 38.6218 26.136C38.6388 26.5 38.7628 26.766 38.8868 27.022C38.9978 27.248 39.1038 27.496 39.1588 27.845C39.1338 27.914 39.1078 27.979 39.0838 28.044C38.9578 28.135 38.8298 28.226 38.6948 28.29V28.29ZM39.3658 23.628C39.2318 23.395 39.1078 23.125 38.9998 22.853C39.1978 22.642 39.3778 22.438 39.5148 22.275L39.6828 22.079C39.7638 21.987 40.0198 21.795 40.3378 21.575C40.4588 22.297 40.5608 23.099 40.5318 23.338L40.4948 23.595C40.4558 23.848 40.4098 24.179 40.3858 24.529C40.2178 24.64 40.0348 24.707 39.8138 24.778C39.7268 24.806 39.6318 24.839 39.5318 24.874C39.6308 24.499 39.6618 24.131 39.3658 23.628V23.628ZM42.1848 22.783C41.5948 22.953 41.3548 23.234 41.1488 23.562L41.1708 23.418C41.2148 23.057 41.0748 22.014 40.9208 21.182C41.3548 20.901 41.7988 20.631 42.0958 20.473C42.0738 20.632 42.0428 20.792 41.9968 20.958C41.8498 21.502 42.0328 22.182 42.2508 22.727C42.2278 22.747 42.2078 22.764 42.1848 22.783V22.783ZM43.9858 16.306C43.9038 16.356 43.8038 16.42 43.7368 16.457C43.7118 16.332 43.6868 16.18 43.6608 16.015C43.7708 16.115 43.8778 16.213 43.9858 16.306V16.306ZM45.1068 17.208C44.9698 17.396 44.7878 17.593 44.5808 17.811C44.4508 17.883 44.3188 17.952 44.1998 18.026C44.1118 17.707 44.0208 17.431 43.9748 17.313C43.9508 17.257 43.9248 17.189 43.8958 17.103C44.0568 17.02 44.2568 16.904 44.5098 16.745C44.7248 16.918 44.9268 17.074 45.1068 17.208V17.208ZM43.9628 13.736C42.5978 12.083 40.8048 12.366 39.6178 12.554L39.3618 12.593C38.5518 12.719 35.7528 12.775 33.6778 11.483C33.1938 11.183 32.7188 10.87 32.2348 10.552C30.4928 9.40301 28.6908 8.21801 26.0428 7.22601L25.4048 8.92501C25.4708 8.94901 25.5308 8.97501 25.5938 9.00001C25.3008 9.62701 25.2348 9.92001 25.1938 10.115C25.1638 10.259 25.1828 10.447 25.2208 10.767C25.2488 11.018 25.3158 11.606 25.2238 11.733C24.9588 12.105 24.4168 13.163 24.2988 13.67C24.2488 13.883 24.1388 14.262 24.0108 14.662C23.9548 14.712 23.8968 14.762 23.8338 14.803C23.2148 15.207 22.8988 15.759 22.7118 16.31C22.7898 16.478 22.8558 16.604 22.9118 16.705C22.5698 17.068 22.1848 17.54 22.0358 18.038C21.9688 18.258 21.8478 18.538 21.7148 18.827C21.6418 18.872 21.5658 18.918 21.4928 18.981C21.4818 18.991 21.4728 19.005 21.4628 19.014C21.4618 19.012 21.4618 19.01 21.4618 19.008C21.4058 19.059 21.3498 19.117 21.2968 19.193C21.1828 19.352 21.0218 19.658 20.8468 20.016C20.8538 20.014 20.8598 20.012 20.8648 20.01C20.8628 20.126 20.8558 20.253 20.8488 20.38C20.7488 20.519 20.6278 20.667 20.4998 20.823C20.1378 21.262 19.7268 21.76 19.5568 22.323C19.4778 22.582 19.4738 22.839 19.4678 23.088C19.4628 23.297 19.4498 23.486 19.4078 23.665C19.3298 23.729 19.2408 23.797 19.1258 23.874C19.0918 23.898 19.0658 23.925 19.0338 23.949C19.0308 24.023 19.0258 24.096 19.0218 24.167C19.0198 24.199 19.0198 24.225 19.0168 24.257C18.9748 24.293 18.9478 24.33 18.8968 24.365C17.9998 24.978 17.7398 25.483 17.4088 26.121C17.3488 26.24 17.2828 26.363 17.2118 26.497C17.0318 26.829 16.9328 27.088 16.8458 27.316C16.8138 27.402 16.7828 27.481 16.7518 27.557C16.6698 27.604 16.5808 27.661 16.5028 27.706C16.1688 28.015 15.8028 28.352 15.5218 28.711C15.1598 28.897 14.7848 29.129 14.7558 29.73C14.7208 30.423 14.2438 31.259 13.8358 31.575L13.6108 31.743C13.1148 32.109 12.4978 32.564 12.3328 33.303L12.2878 33.506C12.1388 34.192 11.9528 35.045 11.4068 35.489L11.3458 35.541C11.0598 35.772 10.8088 35.986 10.5928 36.212C10.4688 36.187 10.3568 36.157 10.2278 36.135C10.1648 36.111 10.1038 36.094 10.0418 36.068L9.38977 37.762C10.7238 38.276 11.9488 38.567 13.0888 38.75C16.0358 39.84 17.9608 41.564 20.1038 43.486C20.7688 44.081 21.4488 44.69 22.1798 45.301C24.6568 47.371 26.3858 47.555 28.3888 47.766C29.0328 47.835 29.7188 47.91 30.4878 48.052C31.4808 48.478 32.6418 48.821 34.0538 49.052L34.3458 47.262C34.3078 47.256 34.2788 47.247 34.2428 47.24C34.1698 47.213 34.1008 47.189 34.0298 47.163C34.4568 46.01 34.4908 45.597 34.5108 45.34C34.5178 45.245 34.5098 45.084 34.4968 44.893C34.4788 44.585 34.4418 44.012 34.5428 43.823C34.7568 43.419 35.1618 42.27 35.2118 41.757C35.2228 41.651 35.2348 41.439 35.2498 41.174C35.2838 40.557 35.3758 38.916 35.5218 38.664C35.8358 38.228 36.1248 37.261 36.2388 36.571C36.3498 35.895 36.8018 34.67 37.1018 34.108C37.1838 33.952 37.2878 33.786 37.3988 33.611C37.7018 33.127 38.0428 32.579 38.1398 32C38.1838 31.733 38.1548 31.476 38.1278 31.229C38.0728 30.728 38.0308 30.335 38.5268 29.889C39.3358 29.164 39.5308 28.63 39.7748 27.953C39.8198 27.828 39.8658 27.697 39.9218 27.557C40.0288 27.279 40.0988 27.053 40.1618 26.857C40.2978 26.428 40.3788 26.17 40.7308 25.746C40.9168 25.522 41.1298 25.389 41.3358 25.261C41.6908 25.042 42.0938 24.794 42.0408 24.142C42.0068 23.72 42.4728 23.333 42.8848 22.992C43.0328 22.867 43.1728 22.751 43.2818 22.641C43.8588 22.059 44.1838 21.399 44.2498 20.676L44.2658 20.476C44.3248 19.775 44.3968 18.901 44.8818 18.388L44.9358 18.332C45.1908 18.063 45.4128 17.817 45.5988 17.563C45.7168 17.646 45.8068 17.707 45.8218 17.717L46.8268 16.207C46.8098 16.195 44.9848 14.973 43.9628 13.736V13.736Z" fill="white"/>
</svg>
