<svg width="57" height="57" viewBox="0 0 57 57" fill="none" xmlns="http://www.w3.org/2000/svg">
<path fill-rule="evenodd" clip-rule="evenodd" d="M35.5199 43.9867C35.5199 45.8957 33.9679 47.4457 32.0609 47.4457H24.3199C22.4119 47.4457 20.8599 45.8957 20.8599 43.9897C20.8599 43.9897 20.8719 40.5847 20.8599 29.4017C20.8509 19.4207 25.0509 15.4697 25.1189 15.4077C25.1469 15.3827 25.1599 15.3497 25.1839 15.3217H31.1809C31.2019 15.3447 31.2099 15.3747 31.2349 15.3967C31.2779 15.4377 35.5199 19.5047 35.5199 29.4027V43.9867ZM31.5539 8.61369C31.4629 8.65469 31.3939 8.73369 31.4029 8.83969L31.7729 12.8717H31.4119L31.1139 8.80069C31.1039 8.66769 31.0059 8.56169 30.8569 8.57769C30.7239 8.58669 30.6249 8.70269 30.6359 8.83469L30.9489 13.1287C30.9579 13.2547 31.0639 13.3507 31.1889 13.3507H32.0319C32.0329 13.4477 32.0359 13.5447 32.0369 13.6407H24.3989C24.3999 13.5447 24.4019 13.4477 24.4039 13.3507H25.2509C25.3779 13.3507 25.4839 13.2507 25.4919 13.1237L25.7369 8.83069C25.7439 8.69869 25.6429 8.58469 25.5099 8.57769C25.3629 8.56069 25.2629 8.67169 25.2559 8.80369L25.0249 12.8717H24.6619L24.9679 8.83469C24.9729 8.76569 24.9449 8.70369 24.9009 8.65569C25.5429 8.33269 27.0189 8.28769 28.1389 8.28769C29.6789 8.28769 31.0879 8.32169 31.5539 8.61369V8.61369ZM33.3539 15.3217H33.7129L33.7189 14.4877C33.7469 10.5377 33.4939 8.23569 32.9689 7.64269C32.1139 6.67669 30.5729 6.60669 28.1389 6.60669C25.4459 6.60669 24.2319 6.86769 23.4939 7.60769C23.2809 7.82069 22.7109 8.39269 22.7109 14.4807V15.3217H22.9879C21.5709 17.2257 19.1719 21.5947 19.1799 29.4027C19.1899 40.5767 19.1799 43.9827 19.1799 43.9867C19.1799 46.8217 21.4859 49.1267 24.3199 49.1267H32.0609C34.8949 49.1267 37.2019 46.8217 37.2019 43.9867V29.4027C37.2019 21.6837 34.7649 17.2467 33.3539 15.3217V15.3217Z" fill="white"/>
<path fill-rule="evenodd" clip-rule="evenodd" d="M26.0997 13.3507H26.9477C27.0777 13.3507 27.1857 13.2457 27.1887 13.1157L27.2717 8.82167C27.2737 8.68867 27.1677 8.57967 27.0357 8.57667C26.8847 8.56967 26.7947 8.67967 26.7917 8.81267L26.7127 12.8717H26.3477L26.5037 8.82667C26.5097 8.69367 26.4057 8.58267 26.2727 8.57667H26.2637C26.1357 8.57667 26.0297 8.67767 26.0247 8.80767L25.8587 13.1027C25.8567 13.1667 25.8807 13.2307 25.9277 13.2777C25.9717 13.3247 26.0337 13.3507 26.0997 13.3507" fill="white"/>
<path fill-rule="evenodd" clip-rule="evenodd" d="M27.7963 13.3507H28.6433C28.7093 13.3507 28.7693 13.3257 28.8143 13.2787C28.8603 13.2337 28.8853 13.1707 28.8843 13.1057L28.8093 8.81266C28.8083 8.68066 28.6993 8.57666 28.5693 8.57666H28.5653C28.4313 8.57966 28.3263 8.68866 28.3283 8.82066L28.3993 12.8717H28.0363L28.0413 8.81766C28.0413 8.68466 27.9343 8.57666 27.8003 8.57666C27.6683 8.57666 27.5603 8.68466 27.5603 8.81666L27.5553 13.1097C27.5553 13.1737 27.5813 13.2357 27.6263 13.2817C27.6713 13.3257 27.7323 13.3507 27.7963 13.3507" fill="white"/>
<path fill-rule="evenodd" clip-rule="evenodd" d="M29.4919 13.3507H30.3409C30.4069 13.3507 30.4699 13.3247 30.5149 13.2757C30.5599 13.2277 30.5839 13.1637 30.5809 13.0977L30.3469 8.80466C30.3389 8.67566 30.2339 8.57666 30.1059 8.57666C30.1029 8.57666 30.0979 8.57666 30.0939 8.57766C29.9619 8.58466 29.8599 8.69866 29.8659 8.83066L30.0869 12.8717H29.7239L29.5779 8.80866C29.5719 8.67566 29.4759 8.58266 29.3289 8.57666C29.1959 8.58266 29.0929 8.69266 29.0969 8.82566L29.2509 13.1187C29.2569 13.2487 29.3629 13.3507 29.4919 13.3507" fill="white"/>
</svg>
