<svg width="57" height="57" viewBox="0 0 57 57" fill="none" xmlns="http://www.w3.org/2000/svg">
<path fill-rule="evenodd" clip-rule="evenodd" d="M28.3907 47.7431C26.4737 48.0641 24.6817 48.1821 23.2747 48.1021V33.0471C23.2747 27.3291 27.0847 20.4221 30.5547 19.8511C31.4697 19.7021 32.4147 20.0221 33.3007 20.7741C34.6687 21.9331 35.7107 23.9781 36.2267 26.2931V44.7571C36.2267 44.7611 36.2287 44.7641 36.2287 44.7671C36.0477 45.3781 33.2007 46.9361 28.3907 47.7431V47.7431ZM24.1137 17.4671C25.1057 18.0741 26.6117 18.3891 28.1127 18.3891C29.9827 18.3891 31.8647 17.9021 32.7427 16.9661C33.8507 17.7881 35.8947 19.7501 36.1857 23.1561C35.5897 21.8921 34.8277 20.8071 33.9237 20.0401C32.8147 19.0991 31.5917 18.7071 30.3987 18.9031C26.1197 19.6081 22.3137 27.3991 22.3137 33.0471V47.9741C21.6917 47.8111 21.1977 47.5471 20.9717 47.3751V26.9011C20.9717 22.0641 23.1267 18.7381 24.1137 17.4671V17.4671ZM28.1127 8.97509C30.3017 8.97509 31.4927 9.67609 31.5757 9.92809L31.5767 15.7381C31.4927 16.0051 30.3007 16.7071 28.1127 16.7071C25.9277 16.7071 24.7327 16.0051 24.6507 15.7561L24.6497 9.94509C24.7327 9.67709 25.9267 8.97509 28.1127 8.97509V8.97509ZM37.9067 23.9771C37.9067 18.7331 34.5117 16.0801 33.2567 15.2781V9.92809C33.2567 6.47009 22.9697 6.47009 22.9697 9.92809V15.7561C22.9697 15.8901 22.9907 16.0181 23.0217 16.1431C22.0277 17.3551 19.2907 21.2121 19.2907 26.9011V47.5541C19.2857 47.5871 19.2907 47.6201 19.2907 47.6541V47.6611C19.2907 47.6631 19.2917 47.6651 19.2917 47.6671C19.2917 47.7481 19.2917 47.8311 19.3177 47.9121C19.6027 48.8111 21.2937 49.5921 22.7227 49.7581C23.1527 49.7971 23.6177 49.8141 24.1117 49.8141C25.4687 49.8141 27.0387 49.6731 28.6687 49.4001C32.1007 48.8241 37.9067 47.2081 37.9067 44.7971C37.9067 44.7901 37.9027 44.7841 37.9027 44.7771C37.9027 44.7701 37.9067 44.7641 37.9067 44.7571V23.9771Z" fill="white"/>
</svg>
