<svg width="57" height="57" viewBox="0 0 57 57" fill="none" xmlns="http://www.w3.org/2000/svg">
<path fill-rule="evenodd" clip-rule="evenodd" d="M33.34 33.438C33.898 34.314 34.564 36.443 34.564 41.614C34.564 44.292 34.375 46.279 33.444 47.84H23.801C22.871 46.277 22.681 44.29 22.681 41.614C22.681 36.444 23.347 34.314 23.906 33.438C23.991 33.302 24.038 33.145 24.038 32.986V22.25C24.038 22.089 23.991 21.933 23.906 21.797L23.559 21.261C22.731 19.985 22.681 19.907 22.681 17.832C22.681 15.252 22.872 13.433 23.829 11.854H33.416C34.373 13.432 34.564 15.251 34.564 17.832C34.564 19.909 34.514 19.986 33.684 21.263L33.34 21.797C33.253 21.932 33.208 22.089 33.208 22.25V32.986C33.208 33.145 33.253 33.304 33.34 33.438V33.438ZM27.508 8.681H29.735V10.173H27.508V8.681ZM34.889 32.755V22.497L35.092 22.179C36.062 20.688 36.245 20.329 36.245 17.832C36.245 15.523 36.144 13.279 34.998 11.23V11.013C34.998 10.549 34.623 10.173 34.158 10.173H31.416V7.84C31.416 7.376 31.04 7 30.576 7H26.668C26.204 7 25.827 7.376 25.827 7.84V10.173H23.086C22.622 10.173 22.247 10.549 22.247 11.013V11.233C21.1 13.282 21 15.524 21 17.832C21 20.327 21.182 20.687 22.151 22.177L22.356 22.497V32.755C21.455 34.364 21 37.342 21 41.614C21 43.811 21.087 46.101 22.021 48.072C21.977 48.175 21.952 48.289 21.952 48.41V48.681C21.952 49.144 22.328 49.521 22.791 49.521H34.452C34.917 49.521 35.293 49.144 35.293 48.681V48.41C35.293 48.29 35.267 48.176 35.222 48.073C36.157 46.103 36.245 43.812 36.245 41.614C36.245 37.341 35.789 34.364 34.889 32.755V32.755Z" fill="white"/>
</svg>
