<svg width="57" height="57" viewBox="0 0 57 57" fill="none" xmlns="http://www.w3.org/2000/svg">
<path fill-rule="evenodd" clip-rule="evenodd" d="M31.357 19.997C30.808 19.449 29.726 19 28.951 19H24.121C23.346 19 23.159 19.449 23.708 19.997L27.739 24.026C28.29 24.576 28.104 25.022 27.328 25.022H20.41C19.633 25.022 19 25.658 19 26.433V29.584C19 30.359 19.633 30.993 20.41 30.993H27.328C28.104 30.993 28.29 31.442 27.739 31.989L23.708 36.018C23.159 36.568 23.346 37.014 24.121 37.014H28.951C29.726 37.014 30.808 36.564 31.357 36.018L38.37 29.005C38.919 28.457 38.919 27.558 38.37 27.011L31.357 19.997Z" fill="white"/>
</svg>
