<svg width="57" height="57" viewBox="0 0 57 57" fill="none" xmlns="http://www.w3.org/2000/svg">
<path fill-rule="evenodd" clip-rule="evenodd" d="M39.6678 43.3092C39.6658 43.3252 39.6728 43.3382 39.6718 43.3552C39.6708 43.3722 39.6628 43.3852 39.6628 43.4022C39.6628 45.8382 35.1608 48.4462 28.4588 48.4462C21.7578 48.4462 17.2578 45.8382 17.2578 43.4022C17.2578 43.3432 17.2348 43.2912 17.2238 43.2362L14.6938 21.6102C17.7098 23.4892 22.6978 24.7002 28.4588 24.7002C34.1288 24.7002 39.0438 23.5262 42.0738 21.6992L39.6678 43.3092ZM28.4588 9.2872C37.2808 9.2872 43.4468 12.2122 43.5798 14.8712C41.5978 11.9772 35.6318 9.9862 28.4588 9.9862C21.1788 9.9862 15.3998 11.9542 13.3328 15.0002C13.3318 14.9872 13.3258 14.9732 13.3258 14.9592C13.3258 12.2762 19.5418 9.2872 28.4588 9.2872V9.2872ZM28.4588 20.6302C20.9088 20.6302 15.3118 18.4872 13.7678 16.2022C15.1188 13.0912 21.0358 10.9472 28.4588 10.9472C35.7878 10.9472 42.1488 13.2302 43.1688 16.1762C41.6478 18.4722 36.0368 20.6302 28.4588 20.6302V20.6302ZM14.4298 19.3572L14.3908 19.0322C17.3708 21.0202 22.5038 22.3122 28.4588 22.3122C34.3158 22.3122 39.3828 21.0622 42.3818 19.1302C42.3738 19.1672 42.3528 19.1992 42.3488 19.2382L42.3188 19.4952C40.0708 21.4112 34.9978 23.0182 28.4588 23.0182C21.7618 23.0182 16.5908 21.3322 14.4298 19.3572V19.3572ZM45.2738 14.9592C45.2738 10.8372 37.8868 7.6062 28.4588 7.6062C19.0318 7.6062 11.6458 10.8372 11.6458 14.9592C11.6458 15.1172 11.6758 15.2712 11.6978 15.4282C11.6718 15.5102 11.6458 15.5952 11.6458 15.6872V17.3472C11.6458 18.3202 12.0698 19.2412 12.8218 20.0832L15.6018 43.8302C15.6048 43.8562 15.6178 43.8762 15.6228 43.9022C16.0998 47.4302 21.5598 50.1272 28.4588 50.1272C35.6138 50.1272 41.2258 47.2282 41.3328 43.5102C41.3338 43.5042 41.3368 43.5002 41.3368 43.4962L43.9228 20.2812C44.7908 19.3852 45.2738 18.3952 45.2738 17.3472V15.6872C45.2738 15.5952 45.2488 15.5102 45.2198 15.4282C45.2428 15.2712 45.2738 15.1172 45.2738 14.9592V14.9592Z" fill="white"/>
</svg>
