<svg width="57" height="57" viewBox="0 0 57 57" fill="none" xmlns="http://www.w3.org/2000/svg">
<path fill-rule="evenodd" clip-rule="evenodd" d="M44.4706 34.2329L31.8416 35.7899C31.7756 35.0699 31.2086 34.5189 30.4716 34.5189C30.4106 34.5189 30.3496 34.5239 30.2876 34.5299L29.2696 34.6579C28.4976 34.7539 27.8916 35.4379 27.8916 36.2139V36.2769L13.3426 38.0699V19.9959C13.3426 19.9589 13.3266 19.8869 13.3266 19.8869L11.7016 18.4359C11.7016 18.4359 17.5106 18.0189 22.0406 17.6979C22.4086 16.4989 23.7956 13.1749 27.8906 13.1749C31.9236 13.1749 33.3296 15.8489 33.7226 16.8779C37.3916 16.6259 40.2646 16.4339 41.0856 16.3949C41.2246 16.3879 41.4876 16.3839 41.4876 16.3839L44.0356 17.7629L17.3436 19.7889C17.1806 19.8009 17.0566 19.9439 17.0686 20.1099C17.0806 20.2649 17.2116 20.3839 17.3666 20.3839C17.3746 20.3839 17.3816 20.3839 17.3886 20.3829L44.5206 18.3249V34.2359C44.5026 34.2359 44.4876 34.2309 44.4706 34.2329V34.2329ZM28.7046 38.0139V36.2139C28.7046 35.8479 29.0036 35.5099 29.3706 35.4649L30.3886 35.3379C30.4166 35.3349 30.4446 35.3329 30.4716 35.3329C30.7996 35.3329 31.0546 35.5819 31.0546 35.9199V37.7219C31.0546 38.0879 30.7556 38.4239 30.3886 38.4709L29.3706 38.5979C29.3436 38.6009 29.3156 38.6029 29.2886 38.6029C28.9606 38.6029 28.7046 38.3539 28.7046 38.0139V38.0139ZM43.9326 39.1099L12.5286 43.4479L10.7206 41.8659V18.9219L12.5286 20.5529V38.5299C12.5286 38.6459 12.5786 38.7569 12.6666 38.8339C12.7406 38.8999 12.8366 38.9359 12.9356 38.9359C12.9526 38.9359 12.9686 38.9349 12.9856 38.9329L27.8916 37.0959V38.0139C27.8916 38.8009 28.5056 39.4169 29.2886 39.4169C29.3486 39.4169 29.4096 39.4119 29.4726 39.4059L30.4896 39.2779C31.2626 39.1799 31.8676 38.4979 31.8676 37.7219V36.6059L43.9326 35.1179V39.1099ZM41.4876 14.7029C41.4876 14.7029 41.1726 14.7069 41.0066 14.7149C40.3186 14.7469 38.2576 14.8819 34.7246 15.1249C33.8126 13.6149 31.8296 11.4939 27.8906 11.4939C23.6556 11.4939 21.6856 14.2909 20.8596 16.0959C15.3416 16.4889 10.8076 16.8139 10.6076 16.8289C10.5896 16.8299 10.5716 16.8309 10.5536 16.8329C10.1536 16.8719 9.79861 17.0509 9.53261 17.3159C9.48661 17.3609 9.44561 17.4079 9.40661 17.4569H9.40561C9.17461 17.7479 9.03761 18.1159 9.04061 18.5119V41.8659C9.04061 42.3499 9.24861 42.8119 9.61361 43.1309L11.4216 44.7129C11.7306 44.9819 12.1246 45.1289 12.5286 45.1289C12.6046 45.1289 12.6816 45.1229 12.7586 45.1119L44.1626 40.7739C44.9936 40.6609 45.6136 39.9489 45.6136 39.1099V35.9139C45.9756 35.6039 46.2016 35.1439 46.2016 34.6359V17.3709L41.4876 14.7029Z" fill="white"/>
<path fill-rule="evenodd" clip-rule="evenodd" d="M28.0194 13.6717C24.5284 13.6717 23.9784 16.4847 23.8974 17.5667C26.7774 17.3637 29.7554 17.1537 32.4214 16.9697C32.2434 16.0107 31.4584 13.6717 28.0194 13.6717" fill="white"/>
</svg>
