<svg width="57" height="57" viewBox="0 0 57 57" fill="none" xmlns="http://www.w3.org/2000/svg">
<path fill-rule="evenodd" clip-rule="evenodd" d="M48.2005 29.1764C48.1035 29.2204 47.9625 29.2744 47.7635 29.3324L31.1635 34.1534C29.8485 34.5334 27.4265 34.4944 26.1215 34.0704L8.79646 28.4234C8.56146 28.3454 8.41246 28.2774 8.32146 28.2264V28.1394C8.34446 28.1484 8.36246 28.1574 8.38646 28.1634L25.7135 33.8114C26.5395 34.0794 27.6775 34.2344 28.8345 34.2344C29.8435 34.2344 30.8015 34.1184 31.5315 33.9064L48.1325 29.0854C48.1585 29.0774 48.1755 29.0684 48.2005 29.0614V29.1764ZM23.2225 23.9254C24.5335 23.6044 26.9995 23.5954 28.3045 23.9034L45.8005 28.0124L31.0625 32.2934C29.8235 32.6514 27.4655 32.6134 26.2335 32.2144L10.3945 27.0504L23.2225 23.9254ZM49.5215 27.9124C49.5125 27.6464 49.3785 27.3994 49.1615 27.2484C48.9125 27.0754 48.5465 26.9314 48.0725 26.8184L28.6915 22.2674C27.1385 21.9014 24.3815 21.9124 22.8235 22.2924L8.47546 25.7874C7.90746 25.9264 7.51046 26.1084 7.26146 26.3454C6.92846 26.6604 6.91146 27.1844 7.22246 27.5224C7.26546 27.5694 7.31946 27.6134 7.37346 27.6584C7.37046 27.6784 7.36046 27.6984 7.36046 27.7204V28.4684C7.36046 28.5874 7.40546 28.7024 7.48546 28.7914C7.66946 28.9934 8.01046 29.1764 8.49846 29.3354L25.8245 34.9834C26.6145 35.2404 27.7115 35.3884 28.8345 35.3884C29.8125 35.3884 30.7355 35.2774 31.4305 35.0744L48.0315 30.2544C48.5645 30.1004 48.8415 29.9374 48.9785 29.8304C49.0925 29.7384 49.1615 29.5994 49.1615 29.4534V28.7034C49.1615 28.6774 49.1495 28.6554 49.1455 28.6294C49.1625 28.6184 49.1875 28.6084 49.2035 28.5964C49.4105 28.4314 49.5285 28.1764 49.5215 27.9124V27.9124Z" fill="white"/>
<path fill-rule="evenodd" clip-rule="evenodd" d="M35.4305 26.2196C35.4045 25.9546 35.1635 25.7686 34.9045 25.7906L18.1615 27.4876C17.8995 27.5136 17.7065 27.7496 17.7345 28.0136C17.7585 28.2616 17.9665 28.4456 18.2105 28.4456C18.2275 28.4456 18.2425 28.4446 18.2605 28.4436L35.0015 26.7456C35.2655 26.7196 35.4575 26.4836 35.4305 26.2196" fill="white"/>
<path fill-rule="evenodd" clip-rule="evenodd" d="M37.826 27.1039C37.8 26.8389 37.5591 26.6489 37.3001 26.6749L20.5571 28.3719C20.2951 28.3989 20.1021 28.6339 20.1301 28.8979C20.1541 29.1459 20.3621 29.3299 20.6061 29.3299C20.6231 29.3299 20.6381 29.3289 20.6561 29.3279L37.3971 27.6299C37.6611 27.6039 37.853 27.3669 37.826 27.1039" fill="white"/>
</svg>
