<svg width="57" height="57" viewBox="0 0 57 57" fill="none" xmlns="http://www.w3.org/2000/svg">
<path fill-rule="evenodd" clip-rule="evenodd" d="M28.1791 42.8894C22.2071 42.8894 17.9131 41.1764 17.9131 39.7834V20.2524C19.6911 21.3324 23.9451 21.8294 28.1801 21.8294C32.4131 21.8294 36.6681 21.3324 38.4461 20.2524V39.7834C38.4461 41.1764 34.1511 42.8894 28.1791 42.8894M28.1791 13.8994C34.1511 13.8994 38.4461 14.7424 38.4461 15.7824V19.2384C37.9921 19.9474 34.5661 21.0154 28.1801 21.0154C21.7931 21.0154 18.3671 19.9474 17.9131 19.2384V15.7824C17.9131 14.7424 22.2071 13.8994 28.1791 13.8994M28.1791 12.2184C16.2331 12.2184 16.2331 14.9004 16.2331 15.7824V39.7834C16.2331 43.2954 23.3771 44.5704 28.1791 44.5704C32.9821 44.5704 40.1271 43.2954 40.1271 39.7834V15.7824C40.1271 14.9004 40.1271 12.2184 28.1791 12.2184" fill="white"/>
<path fill-rule="evenodd" clip-rule="evenodd" d="M22.9294 16.0426C23.4924 16.0426 23.9464 15.9136 23.9464 15.7546C23.9464 15.5956 23.4924 15.4676 22.9294 15.4676C22.3664 15.4676 21.9114 15.5956 21.9114 15.7546C21.9114 15.9136 22.3664 16.0426 22.9294 16.0426" fill="white"/>
<path fill-rule="evenodd" clip-rule="evenodd" d="M26.5979 15.3056C27.1609 15.3056 27.6159 15.1776 27.6159 15.0186C27.6159 14.8596 27.1609 14.7306 26.5979 14.7306C26.0349 14.7306 25.5809 14.8596 25.5809 15.0186C25.5809 15.1776 26.0349 15.3056 26.5979 15.3056" fill="white"/>
<path fill-rule="evenodd" clip-rule="evenodd" d="M26.3131 16.8941C26.9771 16.8941 27.5151 16.7411 27.5151 16.5561C27.5151 16.3681 26.9771 16.2151 26.3131 16.2151C25.6501 16.2151 25.1121 16.3681 25.1121 16.5561C25.1121 16.7411 25.6501 16.8941 26.3131 16.8941" fill="white"/>
<path fill-rule="evenodd" clip-rule="evenodd" d="M33.4298 16.0426C33.9928 16.0426 34.4468 15.9136 34.4468 15.7546C34.4468 15.5956 33.9928 15.4676 33.4298 15.4676C32.8668 15.4676 32.4128 15.5956 32.4128 15.7546C32.4128 15.9136 32.8668 16.0426 33.4298 16.0426" fill="white"/>
<path fill-rule="evenodd" clip-rule="evenodd" d="M29.7603 15.3056C30.3233 15.3056 30.7783 15.1776 30.7783 15.0186C30.7783 14.8596 30.3233 14.7306 29.7603 14.7306C29.1973 14.7306 28.7433 14.8596 28.7433 15.0186C28.7433 15.1776 29.1973 15.3056 29.7603 15.3056" fill="white"/>
<path fill-rule="evenodd" clip-rule="evenodd" d="M28.8442 16.5552C28.8442 16.7422 29.3822 16.8932 30.0442 16.8932C30.7092 16.8932 31.2472 16.7422 31.2472 16.5552C31.2472 16.3672 30.7092 16.2162 30.0442 16.2162C29.3822 16.2162 28.8442 16.3672 28.8442 16.5552" fill="white"/>
</svg>
