<svg width="57" height="57" viewBox="0 0 57 57" fill="none" xmlns="http://www.w3.org/2000/svg">
<path fill-rule="evenodd" clip-rule="evenodd" d="M46.1483 16.7509C46.0423 16.9169 45.7803 17.0119 45.4303 17.0119H10.1433C9.78732 17.0119 9.57232 16.9189 9.52432 16.8299C9.47332 16.7429 9.50232 16.5099 9.68432 16.2049L12.6583 11.2459C13.2053 10.3339 14.6173 9.53287 15.6823 9.53287H41.1963C42.2283 9.53287 43.5043 10.3539 43.9343 11.2899L46.0873 15.9909C46.2343 16.3069 46.2553 16.5859 46.1483 16.7509V16.7509ZM37.5873 43.8599C37.2633 45.4749 35.5953 46.8389 33.9483 46.8389H21.8693C20.2233 46.8389 18.5573 45.4749 18.2333 43.8599L13.1053 18.7749H42.6083L37.5873 43.8599ZM47.6893 15.2579L45.5363 10.5549C44.8203 8.99487 42.9153 7.77087 41.1963 7.77087H15.6823C14.0023 7.77087 12.0103 8.89887 11.1463 10.3399L8.17432 15.2989C7.67032 16.1419 7.60232 17.0159 7.98932 17.7009C8.37632 18.3829 9.16132 18.7749 10.1433 18.7749H11.2973L16.4953 44.2089C16.9843 46.6379 19.3943 48.6099 21.8693 48.6099H33.9483C36.4253 48.6099 38.8333 46.6379 39.3223 44.2089L44.4123 18.7749H45.4303C46.3913 18.7749 47.1923 18.3849 47.6303 17.7039C48.0693 17.0219 48.0893 16.1319 47.6893 15.2579V15.2579Z" fill="white"/>
<path fill-rule="evenodd" clip-rule="evenodd" d="M39.696 12.8674C39.405 12.6604 39.087 12.5004 38.769 12.3504C38.128 12.0584 37.461 11.8494 36.794 11.6534C35.454 11.2874 34.09 11.0274 32.72 10.8474C29.981 10.4744 27.218 10.3734 24.459 10.4684C23.083 10.5224 21.704 10.6214 20.325 10.8014C18.952 10.9854 17.575 11.2184 16.215 11.6354C15.535 11.8584 14.853 12.0654 14.171 12.5094C13.998 12.6294 13.823 12.7584 13.652 12.9634C13.57 13.0664 13.487 13.1914 13.427 13.3544C13.412 13.3984 13.401 13.4304 13.39 13.4864C13.38 13.5344 13.368 13.6254 13.368 13.6394L13.371 13.7584C13.376 13.8054 13.378 13.8514 13.39 13.8964C13.475 14.2644 13.696 14.4564 13.866 14.5934C14.048 14.7284 14.225 14.8224 14.404 14.8994C15.11 15.1834 15.793 15.3114 16.483 15.4054C17.172 15.4954 17.858 15.5394 18.549 15.5414C17.892 15.3394 17.237 15.1374 16.602 14.9094C15.973 14.6774 15.332 14.4364 14.822 14.1004C14.699 14.0184 14.584 13.9324 14.506 13.8494C14.469 13.8134 14.45 13.7784 14.436 13.7504V13.7474L14.442 13.7144C14.444 13.6864 14.442 13.7424 14.442 13.7424C14.44 13.7584 14.445 13.7484 14.447 13.7584C14.447 13.7584 14.464 13.7424 14.495 13.7164C14.553 13.6694 14.663 13.6034 14.782 13.5464C15.285 13.3164 15.931 13.1494 16.564 13.0304C19.147 12.5664 21.85 12.4184 24.527 12.3104C27.215 12.2194 29.907 12.2084 32.599 12.2844C33.944 12.3364 35.29 12.3954 36.624 12.5424C37.291 12.6054 37.955 12.7004 38.608 12.8354C38.932 12.9054 39.257 12.9894 39.561 13.1114C39.853 13.2344 40.195 13.3804 40.272 13.7264C40.3 13.5514 40.209 13.3684 40.094 13.2344C39.979 13.0914 39.842 12.9734 39.696 12.8674" fill="white"/>
</svg>
