<svg width="57" height="57" viewBox="0 0 57 57" fill="none" xmlns="http://www.w3.org/2000/svg">
<path fill-rule="evenodd" clip-rule="evenodd" d="M34.2518 10.3606C32.9248 10.8236 30.5068 11.1106 27.9438 11.1106C25.3798 11.1106 22.9638 10.8236 21.6338 10.3606C21.5078 10.3196 21.3738 10.3716 21.3088 10.4866C21.2478 10.6026 21.2788 10.7456 21.3828 10.8266C22.4938 11.6866 25.0698 12.2426 27.9438 12.2426C30.8188 12.2426 33.3938 11.6866 34.5048 10.8266C34.6098 10.7456 34.6388 10.6026 34.5768 10.4866C34.5128 10.3716 34.3778 10.3196 34.2518 10.3606" fill="white"/>
<path fill-rule="evenodd" clip-rule="evenodd" d="M27.9442 48.8526C22.3242 48.8526 17.7702 47.0386 17.7702 44.8006V42.8176C19.6742 44.3626 23.5632 45.4526 27.9442 45.4526C32.3242 45.4526 36.2142 44.3626 38.1182 42.8176V44.8006C38.1182 47.0386 33.5632 48.8526 27.9442 48.8526V48.8526ZM18.5882 17.0256C19.6312 18.9726 24.7652 19.5236 27.9442 19.5236C31.1242 19.5236 36.2612 18.9716 37.3012 17.0236C37.8312 17.3926 38.1182 17.8006 38.1182 18.2286V23.1106C37.6582 23.8996 33.8952 25.3626 27.9442 25.3626C21.9922 25.3626 18.2282 23.8996 17.7702 23.1106V18.2286C17.7702 17.8006 18.0562 17.3946 18.5882 17.0256V17.0256ZM36.6882 16.1246V16.2896C36.6882 17.6256 32.7722 18.7096 27.9442 18.7096C23.1152 18.7096 19.2002 17.6256 19.2002 16.2896V16.1246V9.49262C19.2002 8.40662 23.1152 7.52762 27.9442 7.52762C32.7722 7.52762 36.6882 8.40662 36.6882 9.49262V12.5766L37.9442 13.4236V14.4406L36.6882 14.7786V16.1246ZM17.7702 23.8896C19.2682 25.0036 23.2512 25.9586 27.9442 25.9586C32.6352 25.9586 36.6192 25.0036 38.1182 23.8896V42.0326C36.6192 43.5866 32.6352 44.8566 27.9442 44.8566C23.2512 44.8566 19.2682 43.5866 17.7702 42.0326V23.8896ZM38.6662 15.9586C39.2432 15.6846 39.6252 15.0976 39.6252 14.4406V13.4236C39.6252 12.8646 39.3472 12.3426 38.8842 12.0296L38.3682 11.6826V9.49262C38.3682 8.12962 37.0132 5.84662 27.9442 5.84662C18.8742 5.84662 17.5202 8.12962 17.5202 9.49262V15.7256C16.3612 16.5756 16.0892 17.5236 16.0892 18.2286V44.8006C16.0892 48.5646 22.0522 50.5336 27.9442 50.5336C33.8352 50.5336 39.7992 48.5646 39.7992 44.8006V18.2286C39.7992 17.5876 39.5752 16.7466 38.6662 15.9586V15.9586Z" fill="white"/>
</svg>
