<svg width="57" height="57" viewBox="0 0 57 57" fill="none" xmlns="http://www.w3.org/2000/svg">
<path fill-rule="evenodd" clip-rule="evenodd" d="M43.784 10.9478H12.593C11.561 10.9478 10.859 11.7788 11.024 12.7928L16.949 48.9798C17.118 49.9928 18.096 50.8248 19.123 50.8248H29.112C28.639 49.9688 28.317 49.0218 28.177 48.0188H21.506C20.478 48.0188 19.5 47.1878 19.334 46.1708L14.328 15.5968C14.163 14.5828 14.866 13.7518 15.893 13.7518H40.477C41.507 13.7518 42.215 14.5828 42.049 15.5968L38.262 38.7238C39.226 38.9398 40.117 39.3298 40.918 39.8438L45.348 12.7928C45.514 11.7788 44.811 10.9478 43.784 10.9478" fill="white"/>
<path fill-rule="evenodd" clip-rule="evenodd" d="M45.0645 6.44901C45.0605 7.78201 43.8775 8.86001 42.4395 8.85101L14.0525 8.84001C12.6095 8.83401 11.4415 7.73801 11.4535 6.40501C11.4555 5.07401 12.6435 3.99601 14.0785 4.00001L42.4685 4.01101C43.9075 4.02401 45.0765 5.12101 45.0645 6.44901" fill="white"/>
<path fill-rule="evenodd" clip-rule="evenodd" d="M20.5019 30.5063C20.4579 30.4303 20.4729 30.1213 20.7769 29.6503L23.0319 26.1533L25.8909 27.8843C26.4109 28.1953 26.6169 28.0063 26.3539 27.4623L24.9499 22.8933C24.6849 22.3503 23.9719 21.9193 23.3679 21.9393L18.3529 22.6283C17.7489 22.6483 17.6769 22.9153 18.1949 23.2303L20.8159 24.8173L18.6019 28.2483C17.8209 29.4663 17.6779 30.7393 18.2289 31.7433C18.7759 32.7463 19.9219 33.3173 21.3679 33.3173H24.4859V30.7353H21.3679C20.8069 30.7353 20.5399 30.5803 20.5019 30.5063" fill="white"/>
<path fill-rule="evenodd" clip-rule="evenodd" d="M36.1779 30.4257C36.1379 30.5037 35.8689 30.6607 35.3069 30.6627H31.1479L31.0269 27.3227C31.0039 26.7187 30.7329 26.6497 30.4249 27.1677L27.3439 31.0037C27.0309 31.5257 27.0619 32.3527 27.4089 32.8507L30.7639 36.5087C31.1109 37.0037 31.3759 36.9147 31.3549 36.3147L31.2449 33.2497L35.3269 33.2507C36.7739 33.2387 37.9169 32.6567 38.4559 31.6457C38.9979 30.6417 38.8459 29.3707 38.0529 28.1567L36.4069 25.4587L34.2459 26.8767L35.8919 29.5767C36.2019 30.0437 36.2189 30.3517 36.1779 30.4257" fill="white"/>
<path fill-rule="evenodd" clip-rule="evenodd" d="M36.3643 18.8356L33.2083 20.3486L31.5443 17.7106C30.7813 16.5286 29.6603 15.8536 28.4713 15.8536C27.2823 15.8536 26.1643 16.5286 25.3993 17.7106L24.0923 19.8466L26.3603 21.0956L27.5703 19.1136C27.8473 18.6826 28.1773 18.4336 28.4713 18.4336C28.7663 18.4336 29.0943 18.6826 29.3693 19.1136L30.8533 21.4726L28.2503 22.7156C27.7033 22.9786 27.7503 23.2556 28.3513 23.3336L32.9963 24.3826C33.5963 24.4626 34.3483 24.0996 34.6643 23.5886L36.7833 19.2976C37.0993 18.7826 36.9083 18.5756 36.3643 18.8356" fill="white"/>
<path fill-rule="evenodd" clip-rule="evenodd" d="M36.4003 49.9904C34.6533 49.9904 33.2353 48.5704 33.2353 46.8234C33.2353 45.0794 34.6533 43.6594 36.4003 43.6594C38.1493 43.6594 39.5693 45.0794 39.5693 46.8234C39.5693 48.5704 38.1493 49.9904 36.4003 49.9904M36.4003 40.2924C32.7953 40.2924 29.8683 43.2194 29.8683 46.8234C29.8683 50.4284 32.7953 53.3564 36.4003 53.3564C40.0113 53.3564 42.9343 50.4284 42.9343 46.8234C42.9343 43.2194 40.0113 40.2924 36.4003 40.2924" fill="white"/>
</svg>
