<svg width="57" height="57" viewBox="0 0 57 57" fill="none" xmlns="http://www.w3.org/2000/svg">
<path fill-rule="evenodd" clip-rule="evenodd" d="M38.079 42.3316C36.858 42.0416 34.634 42.0516 30.646 43.2846C26.151 44.6766 23.408 46.5286 22.035 47.6556L21.581 25.6496C24.06 28.0146 28.165 29.3986 32.443 27.9016C35.818 26.7196 38.86 24.0986 40.919 21.3876L38.079 42.3316ZM15.816 22.9146C15.816 22.9096 15.817 22.9056 15.817 22.9016L20.55 24.4836C20.566 24.5066 20.581 24.5266 20.598 24.5486L21.084 48.1346L18.608 47.5226L15.816 22.9146ZM25.203 9.55961C31.976 8.03461 34.75 11.9096 35.228 12.6826L35.544 15.5706C35.553 15.6596 35.577 15.7436 35.613 15.8246C35.603 15.8636 35.589 15.9016 35.589 15.9436V24.3216C34.44 25.1596 33.192 25.8596 31.888 26.3156C27.616 27.8096 23.556 25.9296 21.757 23.2946C21.736 23.2646 21.705 23.2476 21.681 23.2206C21.645 23.1796 21.609 23.1436 21.566 23.1086C21.517 23.0706 21.464 23.0436 21.408 23.0176C21.379 23.0056 21.359 22.9826 21.328 22.9716L15.71 21.0926L15.545 18.8396C15.823 17.8276 17.905 11.2046 25.203 9.55961V9.55961ZM41.344 17.4756C40.446 19.4626 38.73 21.7496 36.55 23.5766V16.3796L41.344 17.4756ZM42.967 16.8456C42.99 16.4436 42.738 16.0706 42.332 15.9776L37.15 14.7926L36.88 12.3226C36.868 12.2176 36.836 12.1156 36.787 12.0216C36.754 11.9606 33.477 5.97661 24.833 7.92061C16.051 9.89961 13.965 18.2146 13.88 18.5666C13.86 18.6506 13.852 18.7366 13.859 18.8226L14.046 21.3906C14 21.5136 13.98 21.6456 13.995 21.7796L17.003 48.2936C17.044 48.6416 17.296 48.9306 17.636 49.0156L20.991 49.8426C21.013 49.8476 21.033 49.8466 21.055 49.8516C21.211 49.9796 21.398 50.0456 21.588 50.0456C21.82 50.0456 22.051 49.9506 22.217 49.7646C22.243 49.7346 24.882 46.8286 31.143 44.8906C33.804 44.0676 35.513 43.8546 36.572 43.8546C37.792 43.8546 38.128 44.1006 38.113 44.1006C38.326 44.3566 38.671 44.4626 38.991 44.3726C39.312 44.2806 39.547 44.0066 39.593 43.6766L43.147 17.4726C43.178 17.2396 43.103 17.0196 42.967 16.8456V16.8456Z" fill="white"/>
</svg>
