<svg width="57" height="57" viewBox="0 0 57 57" fill="none" xmlns="http://www.w3.org/2000/svg">
<path fill-rule="evenodd" clip-rule="evenodd" d="M37.7216 47.6176C37.5586 46.8236 37.2496 45.5426 36.7216 43.8836C36.8526 41.7976 36.8586 40.1006 36.8626 38.4566C36.8696 36.0636 36.8756 33.8036 37.2816 30.6506C37.3146 30.3876 37.1296 30.1466 36.8656 30.1126C36.6096 30.0816 36.3616 30.2656 36.3276 30.5276C35.9146 33.7406 35.9086 36.0306 35.9016 38.4536C35.8996 39.4086 35.8976 40.3776 35.8706 41.4316C35.5436 40.5646 35.1726 39.6386 34.7406 38.6426C33.1616 35.0246 33.3196 29.9416 34.1026 25.0806C34.1056 25.0856 34.1076 25.0926 34.1116 25.0986C34.4706 25.6656 35.1816 26.3416 36.5426 26.3416C36.7126 26.3416 36.8936 26.3306 37.0856 26.3086C39.1126 26.0696 40.0626 24.9976 40.5026 24.1416C41.0626 23.0516 41.1346 21.6776 40.9556 20.2536C41.9266 23.4436 42.8116 27.4246 43.2956 32.2116C44.4656 43.8126 39.6826 46.8616 37.7216 47.6176V47.6176ZM35.5336 10.8896C35.5636 10.8096 35.5956 10.7236 35.6206 10.6536L36.1666 10.7276C36.0696 10.9946 35.9556 11.3106 35.8316 11.6696L35.8006 11.7576C35.0596 13.8866 33.9176 17.4616 33.0486 21.5126L33.0246 21.6266C31.7596 27.5756 31.1006 34.5056 33.1996 39.3146C34.9296 43.2806 35.7106 46.2736 36.0296 47.7566L17.1396 46.2726C17.0986 46.2696 17.0586 46.2696 17.0166 46.2716C17.0106 46.2726 16.0016 46.2836 14.9986 45.2806C13.7326 44.0146 12.3166 41.0526 12.7656 34.1266C13.3336 25.4086 18.5886 11.8526 19.8136 8.78962L20.5186 8.91862C20.4386 9.16662 20.3446 9.46662 20.2396 9.78762C20.2116 9.73962 20.1956 9.71462 20.1956 9.71462C20.1956 9.71462 19.1796 11.8016 17.8066 15.8296C17.0706 17.9916 16.8656 19.9946 17.9636 21.1326C17.9766 21.1576 17.9856 21.1826 17.9986 21.2066C18.3306 21.8226 18.8116 22.3256 19.4246 22.7246C19.4506 22.7436 19.4796 22.7546 19.5076 22.7696C20.0596 23.1146 20.7066 23.3846 21.4706 23.5556C25.2976 24.4156 28.2326 23.9166 30.1056 22.1556C30.1646 22.1146 30.2156 22.0676 30.2636 22.0136C30.4036 21.8716 30.5336 21.7186 30.6606 21.5626L30.7166 21.4866C30.8726 21.2916 31.0336 21.1026 31.1686 20.8836C32.6146 18.5076 34.6916 13.1306 35.5096 10.9546L35.5336 10.8896ZM21.9166 20.7556C21.7416 20.9886 21.4246 21.2936 20.6386 21.2606C20.4906 21.2546 20.3576 21.2366 20.2216 21.2206C20.1326 21.1556 20.0476 21.0886 19.9716 21.0166L20.5116 14.3386C20.6556 13.9146 20.7996 13.4846 20.9406 13.0576C21.2126 13.6806 21.4916 14.3706 21.7486 15.1196C22.4326 17.1196 22.7096 19.6976 21.9166 20.7556V20.7556ZM24.4186 16.9766C25.2056 19.2726 25.9086 21.2906 27.2606 21.9356C25.9256 22.3836 24.3706 22.3486 22.9386 22.1256C23.0626 22.0056 23.1726 21.8836 23.2616 21.7636C24.5456 20.0506 24.1426 16.9276 23.3386 14.5756C22.8006 13.0066 22.1796 11.6726 21.7026 10.7306C21.7236 10.6686 21.7456 10.6026 21.7636 10.5416C22.4706 12.0556 23.4196 14.1666 23.9846 15.7336C24.1346 16.1466 24.2786 16.5636 24.4186 16.9766V16.9766ZM35.2296 22.2486C37.8586 21.7156 38.4486 20.3196 38.4556 19.1986C38.4626 18.3266 38.3086 17.2476 38.0276 16.0106C39.0286 18.5106 39.8906 21.6556 39.0086 23.3736C38.6346 24.0996 37.9416 24.5146 36.8886 24.6386C36.7676 24.6526 36.6526 24.6606 36.5426 24.6606C35.9046 24.6606 35.6676 24.4146 35.5316 24.2006C35.2586 23.7656 35.1776 23.0796 35.2296 22.2486V22.2486ZM36.7746 19.1856C36.7726 19.4236 36.7676 20.0536 35.4896 20.4556C35.7246 19.3406 36.0896 18.1196 36.5086 16.9226C36.6836 17.8016 36.7786 18.5716 36.7746 19.1856V19.1856ZM44.9666 32.0426C43.4556 17.0716 38.2226 9.83762 38.0016 9.53662C38.0006 9.53362 37.9966 9.53262 37.9946 9.53062C37.9906 9.52362 37.9836 9.51962 37.9796 9.51362C37.9246 9.44362 37.8556 9.38562 37.7836 9.33862C37.7606 9.32362 37.7386 9.31262 37.7146 9.29962C37.6286 9.25262 37.5376 9.21662 37.4396 9.20262H37.4376L35.1786 8.89762C34.7836 8.84462 34.4116 9.07262 34.2766 9.44462C34.2486 9.52062 31.4426 17.2006 29.7336 20.0086C29.6016 20.2246 29.4526 20.4146 29.2976 20.5946L28.8876 20.5526C28.5826 20.5216 28.3346 20.4936 28.1616 20.4816C27.3766 20.4206 26.6176 18.2086 26.0086 16.4306C25.8636 16.0106 25.7186 15.5856 25.5666 15.1626C24.5576 12.3666 22.4516 8.07362 22.3626 7.89262C22.3566 7.87962 22.3446 7.87462 22.3386 7.86262C22.3346 7.85162 22.3346 7.83862 22.3276 7.82862C22.3066 7.79562 22.2736 7.77562 22.2486 7.74562C22.2076 7.69462 22.1676 7.64362 22.1146 7.60362C22.0786 7.57362 22.0366 7.55662 21.9956 7.53362C21.9356 7.50262 21.8786 7.47462 21.8126 7.45862C21.7926 7.45362 21.7786 7.43962 21.7596 7.43662L19.4436 7.01462C19.0506 6.94062 18.6676 7.15362 18.5166 7.51762C18.2406 8.18362 11.7446 23.9126 11.0886 34.0186C10.6956 40.0826 11.6106 44.2716 13.8106 46.4676C15.2296 47.8866 16.6556 47.9656 17.0536 47.9526L36.9926 49.5176C37.0156 49.5196 37.0376 49.5206 37.0596 49.5206C37.1016 49.5206 37.1426 49.5176 37.1836 49.5106C37.5676 49.4536 46.5686 47.9136 44.9666 32.0426V32.0426Z" fill="white"/>
</svg>
