<svg width="57" height="57" viewBox="0 0 57 57" fill="none" xmlns="http://www.w3.org/2000/svg">
<path fill-rule="evenodd" clip-rule="evenodd" d="M13.905 47.7099C15.505 42.8609 20.516 27.1479 21.388 18.2259C27.935 17.7749 38.383 14.3279 41.854 11.9939C44.835 19.9989 45.622 36.4139 45.76 39.9509L13.905 47.7099ZM12.553 15.9969C14.295 17.1209 17.292 18.1979 19.695 18.2849C18.911 25.7739 15.141 38.3149 13.119 44.6689C12.57 37.5649 11.644 23.1289 12.553 15.9969V15.9969ZM36.653 8.95588C39.197 9.05288 40.501 9.95688 41.076 10.5249C38.786 12.1119 27.952 16.3339 20.587 16.5849C20.579 16.5849 20.571 16.5899 20.562 16.5899C20.562 16.5899 20.547 16.5869 20.539 16.5879C17.939 16.8219 14.482 15.2959 13.194 14.4039C18.08 10.2659 28.497 8.51788 36.653 8.95588V8.95588ZM42.964 10.2529C42.96 10.2429 42.951 10.2369 42.947 10.2279C42.941 10.2179 42.944 10.2069 42.938 10.1979C42.88 10.0859 41.424 7.45788 36.73 7.27688C28.132 6.81288 16.547 8.64888 11.39 13.7589C11.387 13.7619 11.383 13.7639 11.379 13.7679L11.37 13.7769C11.361 13.7859 11.358 13.7969 11.351 13.8059C11.291 13.8689 11.244 13.9409 11.207 14.0209C11.192 14.0519 11.183 14.0819 11.172 14.1149C11.162 14.1459 11.144 14.1739 11.137 14.2079C9.39099 22.9449 11.692 47.9059 11.79 48.9639C11.792 48.9849 11.804 49.0029 11.807 49.0229C11.81 49.0439 11.804 49.0639 11.809 49.0859C11.816 49.1179 11.836 49.1429 11.848 49.1729C11.862 49.2119 11.876 49.2489 11.895 49.2849C11.923 49.3329 11.953 49.3759 11.987 49.4169C12.013 49.4469 12.036 49.4759 12.066 49.5019C12.106 49.5379 12.148 49.5679 12.195 49.5959C12.228 49.6159 12.26 49.6349 12.297 49.6509C12.347 49.6739 12.399 49.6859 12.454 49.6979C12.48 49.7029 12.502 49.7169 12.528 49.7209C12.557 49.7229 12.586 49.7249 12.616 49.7249L12.625 49.7269C12.691 49.7269 12.758 49.7199 12.825 49.7029L46.823 41.4209C47.208 41.3269 47.476 40.9769 47.464 40.5809C47.439 39.6999 46.811 18.9179 42.964 10.2529V10.2529Z" fill="white"/>
</svg>
