<svg width="57" height="57" viewBox="0 0 57 57" fill="none" xmlns="http://www.w3.org/2000/svg">
<path fill-rule="evenodd" clip-rule="evenodd" d="M19.7585 47.424C17.7935 37.663 17.7935 27.391 19.7235 17.621C20.6705 17.787 21.6165 17.889 22.5625 17.953C23.5975 18.023 24.6305 18.061 25.6665 18.059C26.7015 18.062 27.7355 18.023 28.7705 17.955C29.8045 17.886 30.8395 17.779 31.8755 17.58C30.8395 17.381 29.8045 17.277 28.7705 17.208C27.7355 17.137 26.7015 17.099 25.6665 17.101C24.6305 17.101 23.5975 17.137 22.5625 17.209C21.6215 17.273 20.6805 17.374 19.7375 17.539C19.7975 17.242 19.8395 16.942 19.9025 16.646C19.9145 16.587 19.9175 16.527 19.9175 16.461L19.8705 14.454L38.3175 15.452L38.2655 17.558C38.2655 17.629 38.2735 17.694 38.2875 17.751C38.5665 19.021 38.8495 20.256 39.1265 21.467L39.1605 21.607C41.0475 29.843 42.6805 36.967 41.2805 45.515C40.0085 45.372 38.6675 45.3 37.2855 45.3C32.7325 45.3 28.3385 46.066 24.7895 46.687C22.8105 47.031 21.0865 47.331 19.7585 47.424V47.424ZM17.1055 23.66C16.2885 30.978 16.5125 38.44 17.7625 45.676L17.2495 45.05C17.0025 44.749 16.5485 44.658 16.2035 44.848L15.1585 45.424C14.0965 38.657 14.7585 31.36 17.1055 23.66V23.66ZM25.4745 11.078C25.4515 10.589 25.5315 10.246 25.7085 10.059C25.9725 9.786 26.5565 9.663 27.5985 9.663C27.9885 9.663 28.4035 9.678 28.8465 9.696L29.0175 9.702C30.6615 9.762 30.8425 10.268 30.9865 10.675C31.0075 10.729 31.0285 10.782 31.0475 10.834L31.0915 11.956L25.5195 11.758L25.4745 11.078ZM40.7785 21.237L40.7165 20.962C40.4555 19.818 40.1885 18.653 39.9325 17.528L40.0005 14.685C40.0115 14.233 39.6655 13.859 39.2145 13.834L32.4595 13.469C32.6595 13.317 32.7955 13.088 32.7955 12.818C32.7955 12.764 32.7925 12.707 32.7875 12.699L32.7035 10.611C32.7005 10.488 32.6675 10.37 32.6075 10.25C32.5915 10.224 32.5815 10.191 32.5545 10.114C32.2035 9.137 31.5175 8.13 29.0815 8.04L28.8005 8.029C28.3805 8.014 27.9845 8 27.5985 8C26.4465 8 25.2755 8.109 24.5105 8.908C23.9965 9.445 23.7685 10.183 23.8135 11.169L23.9075 12.613C23.9175 12.765 23.9755 12.896 24.0545 13.015L19.0165 12.743C18.8045 12.743 18.5945 12.828 18.4375 12.977C18.2695 13.14 18.1785 13.364 18.1865 13.594L18.2465 15.89C18.1675 15.964 18.1035 16.055 18.0605 16.159C13.4275 27.159 11.9655 37.493 13.7165 46.87C13.7665 47.131 13.9405 47.356 14.1805 47.468C14.4175 47.58 14.7095 47.57 14.9355 47.446L16.3985 46.638L18.1825 48.812C18.3425 49.004 18.5765 49.115 18.8265 49.115C18.8715 49.115 18.9135 49.098 18.9585 49.092C19.0015 49.098 19.0425 49.115 19.0885 49.115H19.0935H19.0945C20.6265 49.103 22.6965 48.741 25.1125 48.318C28.5755 47.715 32.8835 46.963 37.2855 46.963C38.8835 46.963 40.4195 47.065 41.8485 47.264C42.2875 47.329 42.7005 47.024 42.7815 46.588C44.4755 37.362 42.7635 29.89 40.7785 21.237V21.237Z" fill="white"/>
</svg>
