<svg width="57" height="57" viewBox="0 0 57 57" fill="none" xmlns="http://www.w3.org/2000/svg">
<path fill-rule="evenodd" clip-rule="evenodd" d="M42.409 44.6602L22.413 47.7032V21.3212L42.409 18.8142V44.6602ZM21.459 14.7682C20.737 13.3182 19.838 11.5142 20.454 10.3822C20.902 9.56423 22.224 9.01323 24.276 8.78923C27.164 8.47523 27.994 8.91523 28.233 9.20623C28.361 9.36223 28.401 9.60323 28.393 9.88923C26.633 10.2962 25.477 11.0142 24.896 12.0762C24.212 13.3302 24.489 14.7702 24.997 16.0942L22.188 16.4282C22.035 15.9412 21.775 15.4012 21.459 14.7682V14.7682ZM34.15 11.7052C34.549 12.1922 34.158 13.4412 33.782 14.6492C33.74 14.7862 33.696 14.9262 33.653 15.0672L28.849 15.6382C28.842 14.7202 29.149 13.6752 29.469 12.6502C29.606 12.2122 29.741 11.7702 29.852 11.3362C29.965 11.3202 30.073 11.3022 30.193 11.2902C33.076 10.9752 33.91 11.4162 34.15 11.7052V11.7052ZM17.176 43.0722L20.067 47.2192L15.036 45.3372L17.176 43.0722ZM17.714 42.1642L17.838 20.3392L18.99 20.6852L20.732 21.2052V46.4932L17.714 42.1642ZM35.099 16.5892L38.828 17.5692L37.877 17.6882L34.765 18.0782C34.768 17.6132 34.845 17.1172 34.972 16.6042L35.099 16.5892ZM33.201 16.8132C33.109 17.3062 33.053 17.8012 33.069 18.2912L28.101 18.9142C27.966 18.4912 27.749 18.0222 27.487 17.4922L33.201 16.8132ZM26.371 12.8822C26.628 12.4132 27.182 12.0342 27.989 11.7512C27.948 11.8832 27.906 12.0172 27.865 12.1492C27.505 13.3052 27.103 14.5962 27.154 15.8392L26.726 15.8902C26.253 14.7932 25.938 13.6742 26.371 12.8822V12.8822ZM25.716 17.7022C25.768 17.8072 25.821 17.9172 25.871 18.0182C26.045 18.3672 26.249 18.7832 26.394 19.1272L21.644 19.7232L19.434 19.0622L17.964 18.6222L25.716 17.7022ZM14.68 19.3942L16.879 20.0532L16.754 42.1212L14.68 44.3152V19.3942ZM44.074 17.7872C44.066 17.7092 44.054 17.6352 44.026 17.5652C44.013 17.5282 43.996 17.4962 43.976 17.4632C43.941 17.3982 43.898 17.3412 43.847 17.2882C43.832 17.2712 43.824 17.2482 43.806 17.2312C43.795 17.2222 43.781 17.2202 43.769 17.2102C43.704 17.1592 43.631 17.1202 43.552 17.0902C43.527 17.0802 43.508 17.0652 43.483 17.0582C43.475 17.0562 43.471 17.0512 43.463 17.0492L35.45 14.9442C35.937 13.3732 36.383 11.7762 35.447 10.6372C34.612 9.62223 32.946 9.30723 30.069 9.61323C30.04 9.07323 29.887 8.57123 29.53 8.13823C28.688 7.11523 27.01 6.80123 24.094 7.11823C21.396 7.41123 19.723 8.21623 18.98 9.57623C17.941 11.4782 19.105 13.8132 19.954 15.5172C20.13 15.8682 20.335 16.2852 20.478 16.6312L13.74 17.4312C13.732 17.4322 13.723 17.4372 13.713 17.4382C13.689 17.4422 13.668 17.4542 13.644 17.4602C13.55 17.4822 13.466 17.5192 13.387 17.5702C13.373 17.5802 13.353 17.5802 13.338 17.5912C13.325 17.6022 13.318 17.6182 13.305 17.6302C13.229 17.6942 13.167 17.7682 13.117 17.8542C13.107 17.8712 13.095 17.8832 13.086 17.8992C13.042 17.9902 13.011 18.0872 13.003 18.1942C13.001 18.2082 13.007 18.2222 13.006 18.2372C13.006 18.2472 13 18.2542 13 18.2642V45.7872C13 46.1372 13.216 46.4502 13.545 46.5742L21.277 49.4672L21.278 49.4682C21.373 49.5032 21.47 49.5212 21.571 49.5212C21.613 49.5212 21.656 49.5172 21.698 49.5122L43.376 46.2142C43.787 46.1512 44.09 45.7992 44.09 45.3822V17.8622C44.09 17.8362 44.076 17.8122 44.074 17.7872V17.7872Z" fill="white"/>
</svg>
