<svg width="57" height="57" viewBox="0 0 57 57" fill="none" xmlns="http://www.w3.org/2000/svg">
<path fill-rule="evenodd" clip-rule="evenodd" d="M22.556 45.605V43.72C22.556 42.977 21.952 42.374 21.21 42.374H14.754C14.012 42.374 13.408 42.977 13.408 43.72V45.605H9.601V20.961H26.739V45.605H22.556ZM15.292 45.968H15.008V43.974H15.292V45.968ZM16.112 45.968H15.75V43.974H16.112V45.968ZM16.931 45.968H16.57V43.974H16.931V45.968ZM17.748 45.968H17.387V43.974H17.748V45.968ZM18.567 45.968H18.205V43.974H18.567V45.968ZM19.385 45.968H19.024V43.974H19.385V45.968ZM20.204 45.968H19.843V43.974H20.204V45.968ZM20.955 45.968H20.661V43.974H20.955V45.968ZM18.169 11.601C20.835 11.601 22.806 12.028 24.156 12.589H12.19C13.586 12.015 15.603 11.601 18.169 11.601V11.601ZM10.044 14.188H26.297V17.407H10.044V14.188ZM10.044 19.009H26.297V19.36H10.044V19.009ZM28.261 19.826C28.246 19.794 28.222 19.77 28.203 19.74C28.16 19.673 28.115 19.612 28.055 19.561C28.043 19.551 28.038 19.532 28.024 19.523L27.897 19.425V18.876C28.125 18.735 28.284 18.495 28.284 18.207C28.284 17.921 28.125 17.68 27.897 17.539V13.389C27.897 12.946 27.539 12.589 27.097 12.589H27.062C25.522 10.967 22.253 10 18.169 10C14.128 10 10.802 10.988 9.28 12.589H9.243C8.8 12.589 8.442 12.946 8.442 13.389V17.575C8.245 17.72 8.109 17.944 8.109 18.207C8.109 18.471 8.245 18.695 8.442 18.839V19.42L8.298 19.538C8.287 19.547 8.282 19.56 8.271 19.568C8.214 19.62 8.171 19.682 8.131 19.748C8.113 19.777 8.088 19.8 8.074 19.832C8.029 19.93 8.003 20.038 8.002 20.152C8.002 20.154 8 20.157 8 20.159V45.844C8 46.594 8.612 47.206 9.363 47.206H13.555C13.699 47.419 13.931 47.569 14.209 47.569H21.746C22.023 47.569 22.256 47.419 22.398 47.206H26.977C27.729 47.206 28.339 46.594 28.339 45.844V20.159C28.339 20.157 28.338 20.156 28.338 20.154C28.337 20.036 28.308 19.926 28.261 19.826V19.826Z" fill="white"/>
<path fill-rule="evenodd" clip-rule="evenodd" d="M48.0641 45.4365H30.9261V34.0485H48.0641V45.4365ZM48.3031 32.4475H30.6881C29.9371 32.4475 29.3271 33.0585 29.3271 33.8105V46.2375C29.3271 46.6785 29.6851 47.0365 30.1271 47.0365H48.8641C49.3061 47.0365 49.6661 46.6785 49.6661 46.2375V33.8105C49.6661 33.0585 49.0541 32.4475 48.3031 32.4475V32.4475Z" fill="white"/>
</svg>
