<svg width="57" height="57" viewBox="0 0 57 57" fill="none" xmlns="http://www.w3.org/2000/svg">
<path fill-rule="evenodd" clip-rule="evenodd" d="M12.851 29.989V26.302L13.145 25.793L46.571 23.734V32.483L13.125 30.423L12.851 29.989ZM8.681 27.392H8.877V28.954H8.681V27.392ZM10.895 28.954H9.837V27.392H10.895V28.954ZM47.841 32.536H47.532V23.68H47.841V32.536ZM48.682 22H47.416C47.416 22 47.399 22.005 47.39 22.005C47.381 22.005 47.374 22.001 47.364 22.002L12.593 24.143C12.311 24.16 12.058 24.317 11.917 24.56L11.25 25.712H9.837V25.485C9.837 25.221 9.623 25.005 9.357 25.005C9.091 25.005 8.878 25.221 8.878 25.485V25.712H7.842C7.377 25.712 7 26.087 7 26.551V29.795C7 30.259 7.377 30.636 7.842 30.636H11.271L11.932 31.684C12.078 31.913 12.323 32.058 12.593 32.074L47.364 34.214C47.382 34.215 47.398 34.216 47.416 34.216H48.682C49.146 34.216 49.521 33.841 49.521 33.377V22.84C49.521 22.375 49.146 22 48.682 22V22Z" fill="white"/>
</svg>
