<svg width="57" height="57" viewBox="0 0 57 57" fill="none" xmlns="http://www.w3.org/2000/svg">
<path fill-rule="evenodd" clip-rule="evenodd" d="M32.693 39.788H23.766L20.735 10.669H35.723L32.693 39.788ZM31.824 47.84H24.633C24.223 47.84 23.89 47.506 23.89 47.096V46.607H32.568V47.096C32.568 47.506 32.234 47.84 31.824 47.84V47.84ZM25.862 45.646V44.711C25.862 44.194 26.358 43.777 26.967 43.777H29.129C29.738 43.777 30.233 44.194 30.233 44.711V45.646H25.862ZM32.568 45.646H31.194V44.711C31.194 43.666 30.268 42.816 29.129 42.816H26.967C25.827 42.816 24.901 43.666 24.901 44.711V45.646H23.89V41.469H32.568V45.646ZM35.778 9.709H20.68V8.681H35.778V9.709ZM37.459 7.841C37.459 7.376 37.083 7 36.618 7H19.839C19.376 7 19 7.376 19 7.841V10.19C19 10.205 19.007 10.217 19.008 10.233C19.009 10.248 19.003 10.261 19.004 10.277L22.172 40.715C22.176 40.76 22.198 40.799 22.208 40.842V47.096C22.208 48.433 23.297 49.521 24.633 49.521H31.824C33.161 49.521 34.249 48.433 34.249 47.096V40.842C34.26 40.799 34.282 40.76 34.287 40.715L37.43 10.494C37.434 10.456 37.42 10.421 37.419 10.383C37.435 10.319 37.459 10.258 37.459 10.19V7.841Z" fill="white"/>
</svg>
