<svg id="livetype" xmlns="http://www.w3.org/2000/svg" width="142.20884" height="39.82003" viewBox="0 0 142.20884 39.82003">
  <title>Download_on_the_App_Store_Badge_EE_RGB_wht_00217</title>
  <g>
    <g>
      <path d="M132.72241,0H9.49178C9.12673,0,8.766,0,8.402.00194c-.30477.00194-.60712.00778-.91481.01264a13.1553,13.1553,0,0,0-1.99489.176A6.6351,6.6351,0,0,0,3.59995.81468,6.40883,6.40883,0,0,0,1.98858,1.98808,6.23028,6.23028,0,0,0,.81566,3.60188,6.57149,6.57149,0,0,0,.19347,5.49664a12.93452,12.93452,0,0,0-.17839,1.993C.00584,7.79485.00487,8.10109,0,8.40635V31.41661c.00487.3091.00584.60855.01508.91775a12.93386,12.93386,0,0,0,.17839,1.99289A6.55792,6.55792,0,0,0,.81566,36.223,6.17985,6.17985,0,0,0,1.98858,37.83a6.24622,6.24622,0,0,0,1.61137,1.1734,6.67067,6.67067,0,0,0,1.89233.628,13.3946,13.3946,0,0,0,1.99489.176c.3077.00677.61.01065.91481.01065.36407.002.72475.002,1.0898.002H132.72241c.35778,0,.72134,0,1.07912-.002.30333,0,.61442-.00388.91775-.01065a13.2192,13.2192,0,0,0,1.991-.176,6.77371,6.77371,0,0,0,1.89961-.628,6.24917,6.24917,0,0,0,1.60993-1.1734,6.366,6.366,0,0,0,1.17628-1.607,6.57442,6.57442,0,0,0,.61631-1.89573,13.44567,13.44567,0,0,0,.18476-1.99289c.00388-.3092.00388-.60865.00388-.91775.00777-.36167.00777-.72134.00777-1.08888V9.49322c0-.36456,0-.72621-.00777-1.08688,0-.30526,0-.6115-.00388-.91676a13.44634,13.44634,0,0,0-.18476-1.993,6.58792,6.58792,0,0,0-.61631-1.89476A6.4371,6.4371,0,0,0,138.6099.81468a6.73709,6.73709,0,0,0-1.89961-.62413,12.98525,12.98525,0,0,0-1.991-.176c-.30333-.00486-.61442-.01069-.91775-.01264C133.44375,0,133.0802,0,132.72241,0Z"/>
      <path d="M8.40683,38.949c-.30331,0-.59934-.00388-.90022-.01065a12.63006,12.63006,0,0,1-1.86073-.16237,5.85734,5.85734,0,0,1-1.64929-.54543,5.38141,5.38141,0,0,1-1.39068-1.012A5.29688,5.29688,0,0,1,1.59,35.82827a5.69611,5.69611,0,0,1-.54054-1.64974A12.35765,12.35765,0,0,1,.88371,32.312c-.00631-.21-.01458-.909-.01458-.909V8.40635s.00875-.6883.01458-.89052a12.31473,12.31473,0,0,1,.16478-1.86365,5.72961,5.72961,0,0,1,.541-1.65462A5.34931,5.34931,0,0,1,2.60008,2.6059,5.54039,5.54039,0,0,1,3.99611,1.588,5.79689,5.79689,0,0,1,5.642,1.04654,12.52926,12.52926,0,0,1,7.509.88322L8.40732.87106H133.79666l.909.01264a12.3292,12.3292,0,0,1,1.85.16186,5.91162,5.91162,0,0,1,1.66338.54539A5.56858,5.56858,0,0,1,140.62321,4a5.73674,5.73674,0,0,1,.53279,1.6415,12.93648,12.93648,0,0,1,.173,1.87872c.00289.28193.00289.58476.00289.88614.00787.37331.00787.72864.00787,1.08688V30.32773c0,.36167,0,.71457-.00787,1.07036,0,.32374,0,.6203-.00388.92552a12.674,12.674,0,0,1-.17013,1.84516,5.71315,5.71315,0,0,1-.53757,1.66249,5.45563,5.45563,0,0,1-1.011,1.37947,5.38855,5.38855,0,0,1-1.3931,1.0179,5.8353,5.8353,0,0,1-1.6605.54733,12.48575,12.48575,0,0,1-1.86079.16237c-.29158.00677-.5969.01065-.89336.01065l-1.07912.002Z" style="fill: #fff"/>
    </g>
    <g id="_Group_" data-name="&lt;Group&gt;">
      <g id="_Group_2" data-name="&lt;Group&gt;">
        <g id="_Group_3" data-name="&lt;Group&gt;">
          <path id="_Path_" data-name="&lt;Path&gt;" d="M24.88425,19.79986a5.1231,5.1231,0,0,1,2.43955-4.29829,5.24405,5.24405,0,0,0-4.13172-2.23366c-1.73838-.18247-3.42366,1.04022-4.30951,1.04022-.903,0-2.26689-1.02211-3.73558-.99188a5.50248,5.50248,0,0,0-4.63044,2.82393c-2.00206,3.46634-.50871,8.56069,1.40914,11.36263.95954,1.372,2.081,2.90461,3.54834,2.85027,1.43591-.05956,1.97219-.91563,3.70545-.91563,1.71718,0,2.22032.91563,3.71747.88108,1.5408-.025,2.51157-1.37812,3.43745-2.76314a11.348,11.348,0,0,0,1.5719-3.20142A4.95046,4.95046,0,0,1,24.88425,19.79986Z"/>
          <path id="_Path_2" data-name="&lt;Path&gt;" d="M22.05642,11.42517a5.04407,5.04407,0,0,0,1.15377-3.61355,5.132,5.132,0,0,0-3.32054,1.71806,4.79962,4.79962,0,0,0-1.184,3.47977A4.24341,4.24341,0,0,0,22.05642,11.42517Z"/>
        </g>
      </g>
    </g>
  </g>
  <g id="_Group_4" data-name="&lt;Group&gt;">
    <g>
      <path d="M39.3926,14.61167H35.67092V8.64488h.92676v5.11475H39.3926Z"/>
      <path d="M40.32912,13.33824c0-.81055.60352-1.27783,1.6748-1.34424l1.21973-.07031V11.535c0-.47559-.31445-.74414-.92187-.74414-.49609,0-.83984.18213-.93848.50049h-.86035c.09082-.77344.81836-1.26953,1.83984-1.26953,1.12891,0,1.76563.562,1.76563,1.51318v3.07666h-.85547v-.63281h-.07031a1.515,1.515,0,0,1-1.35254.707A1.36026,1.36026,0,0,1,40.32912,13.33824Zm2.89453-.38477V12.577l-1.09961.07031c-.62012.0415-.90137.25244-.90137.64941,0,.40527.35156.64111.835.64111A1.0615,1.0615,0,0,0,43.22365,12.95347Z"/>
      <path d="M45.24318,13.33824c0-.81055.60352-1.27783,1.6748-1.34424l1.21973-.07031V11.535c0-.47559-.31445-.74414-.92187-.74414-.49609,0-.83984.18213-.93848.50049H45.417c.09082-.77344.81836-1.26953,1.83984-1.26953,1.12891,0,1.76563.562,1.76563,1.51318v3.07666H48.167v-.63281H48.0967a1.515,1.515,0,0,1-1.35254.707A1.36026,1.36026,0,0,1,45.24318,13.33824Zm2.89453-.38477V12.577l-1.09961.07031c-.62012.0415-.90137.25244-.90137.64941,0,.40527.35156.64111.835.64111A1.0615,1.0615,0,0,0,48.13772,12.95347Z"/>
      <path d="M50.19045,12.35826c0-1.42285.73145-2.32422,1.86914-2.32422a1.484,1.484,0,0,1,1.38086.79h.06641V8.35093h.88867v6.26074H53.544v-.71143h-.07031a1.56284,1.56284,0,0,1-1.41406.78564C50.91408,14.68589,50.19045,13.78453,50.19045,12.35826Zm.918,0c0,.95508.4502,1.52979,1.20313,1.52979.749,0,1.21191-.583,1.21191-1.52588,0-.93848-.46777-1.52979-1.21191-1.52979C51.5635,10.83238,51.10842,11.411,51.10842,12.35826Z"/>
      <path d="M55.73732,8.7772a.57572.57572,0,1,1,.5752.5415A.54735.54735,0,0,1,55.73732,8.7772Zm.13184,1.33154h.88574v4.50293h-.88574Z"/>
      <path d="M60.374,13.33824c0-.81055.60352-1.27783,1.6748-1.34424l1.21973-.07031V11.535c0-.47559-.31445-.74414-.92187-.74414-.49609,0-.83984.18213-.93848.50049h-.86035c.09082-.77344.81836-1.26953,1.83984-1.26953,1.12891,0,1.76563.562,1.76563,1.51318v3.07666h-.85547v-.63281h-.07031a1.515,1.515,0,0,1-1.35254.707A1.36026,1.36026,0,0,1,60.374,13.33824Zm2.89453-.38477V12.577l-1.09961.07031c-.62012.0415-.90137.25244-.90137.64941,0,.40527.35156.64111.835.64111A1.0615,1.0615,0,0,0,63.26857,12.95347Z"/>
      <path d="M65.58645,8.35093h.88867v6.26074h-.88867Z"/>
      <path d="M67.97512,8.35093h.88867v6.26074h-.88867Z"/>
      <path d="M70.06594,13.33824c0-.81055.60352-1.27783,1.6748-1.34424l1.21973-.07031V11.535c0-.47559-.31445-.74414-.92187-.74414-.49609,0-.83984.18213-.93848.50049h-.86035c.09082-.77344.81836-1.26953,1.83984-1.26953,1.12891,0,1.76563.562,1.76563,1.51318v3.07666h-.85547v-.63281h-.07031a1.515,1.515,0,0,1-1.35254.707A1.36026,1.36026,0,0,1,70.06594,13.33824Zm2.89453-.38477V12.577l-1.09961.07031c-.62012.0415-.90137.25244-.90137.64941,0,.40527.35156.64111.835.64111A1.0615,1.0615,0,0,0,72.96047,12.95347Z"/>
    </g>
  </g>
  <g>
    <path d="M42.30178,27.04966h-4.7334l-1.13672,3.35645H34.42678l4.4834-12.418h2.083l4.4834,12.418H43.43752Zm-4.24316-1.54883h3.752L39.961,20.05357H39.9092Z"/>
    <path d="M55.1592,25.87974c0,2.81348-1.50586,4.62109-3.77832,4.62109a3.0693,3.0693,0,0,1-2.84863-1.584h-.043v4.48438h-1.8584V21.3524h1.79883v1.50586h.03418a3.21162,3.21162,0,0,1,2.88281-1.60059C53.64455,21.25767,55.1592,23.07408,55.1592,25.87974Zm-1.91016,0c0-1.833-.94727-3.03809-2.39258-3.03809-1.41992,0-2.375,1.23047-2.375,3.03809,0,1.82422.95508,3.0459,2.375,3.0459C52.30178,28.92564,53.249,27.72935,53.249,25.87974Z"/>
    <path d="M65.12453,25.87974c0,2.81348-1.50635,4.62109-3.77881,4.62109a3.0693,3.0693,0,0,1-2.84863-1.584h-.043v4.48438h-1.8584V21.3524h1.79883v1.50586h.03418a3.21162,3.21162,0,0,1,2.88281-1.60059C63.6094,21.25767,65.12453,23.07408,65.12453,25.87974Zm-1.91064,0c0-1.833-.94727-3.03809-2.39258-3.03809-1.41992,0-2.375,1.23047-2.375,3.03809,0,1.82422.95508,3.0459,2.375,3.0459C62.26662,28.92564,63.21389,27.72935,63.21389,25.87974Z"/>
    <path d="M71.70949,26.94615c.1377,1.23145,1.334,2.04,2.96875,2.04,1.56641,0,2.69336-.80859,2.69336-1.91895,0-.96387-.67969-1.541-2.28906-1.93652l-1.60937-.3877c-2.28027-.55078-3.33887-1.61719-3.33887-3.34766,0-2.14258,1.86719-3.61426,4.51758-3.61426,2.625,0,4.42383,1.47168,4.48438,3.61426h-1.876c-.1123-1.23926-1.13672-1.9873-2.63379-1.9873s-2.52148.75684-2.52148,1.8584c0,.87793.6543,1.39453,2.25488,1.79l1.36816.33594c2.54785.60254,3.60547,1.626,3.60547,3.44238,0,2.32324-1.84961,3.77832-4.793,3.77832-2.75391,0-4.61328-1.4209-4.7334-3.667Z"/>
    <path d="M83.34621,19.20982V21.3524h1.72168v1.47168H83.34621v4.99121c0,.77539.34473,1.13672,1.10156,1.13672a5.80752,5.80752,0,0,0,.61133-.043v1.46289a5.10351,5.10351,0,0,1-1.03223.08594c-1.833,0-2.54785-.68848-2.54785-2.44434V22.82408H80.16262V21.3524H81.479V19.20982Z"/>
    <path d="M86.064,25.87974c0-2.84863,1.67773-4.63867,4.29395-4.63867,2.625,0,4.29492,1.79,4.29492,4.63867,0,2.85645-1.66113,4.63867-4.29492,4.63867C87.72512,30.51841,86.064,28.73619,86.064,25.87974Zm6.69531,0c0-1.9541-.89551-3.10742-2.40137-3.10742s-2.40137,1.16211-2.40137,3.10742c0,1.96191.89551,3.10645,2.40137,3.10645S92.7593,27.84166,92.7593,25.87974Z"/>
    <path d="M96.18508,21.3524h1.77246v1.541h.043a2.1594,2.1594,0,0,1,2.17773-1.63574,2.86616,2.86616,0,0,1,.63672.06934v1.73828a2.59794,2.59794,0,0,0-.835-.1123,1.87264,1.87264,0,0,0-1.93652,2.083v5.37012h-1.8584Z"/>
    <path d="M109.43606,27.74693c-.25,1.64355-1.85059,2.77148-3.89844,2.77148-2.63379,0-4.26855-1.76465-4.26855-4.5957,0-2.83984,1.64355-4.68164,4.19043-4.68164,2.50488,0,4.08008,1.7207,4.08008,4.46582v.63672H103.145v.1123a2.358,2.358,0,0,0,2.43555,2.56445,2.04834,2.04834,0,0,0,2.09082-1.27344Zm-6.28223-2.70215h4.52637a2.1773,2.1773,0,0,0-2.2207-2.29785A2.292,2.292,0,0,0,103.15383,25.04478Z"/>
    <path d="M110.78762,22.53208l1.01563-4.54395h1.80664l-1.23047,4.54395Z"/>
    <path d="M115.26906,18.96861a1.0803,1.0803,0,1,1,1.0752,1.05859A1.06864,1.06864,0,0,1,115.26906,18.96861Zm.14648,2.38379h1.8584v9.05371h-1.8584Z"/>
    <path d="M122.64895,21.24986c2.00586,0,3.44238,1.10938,3.48535,2.71h-1.74707c-.07715-.7998-.75684-1.29-1.79-1.29-1.00684,0-1.67773.46387-1.67773,1.16992,0,.542.44727.90332,1.38574,1.13574l1.52344.35352c1.82422.43848,2.5127,1.10938,2.5127,2.43555,0,1.63477-1.54883,2.75391-3.76074,2.75391-2.13477,0-3.57129-1.09375-3.709-2.74609h1.84082c.12988.86914.82617,1.334,1.9541,1.334,1.11035,0,1.80762-.45605,1.80762-1.17871,0-.55957-.34473-.86035-1.291-1.10156l-1.61816-.39551c-1.63574-.39648-2.46191-1.23145-2.46191-2.4873C119.103,22.34263,120.54055,21.24986,122.64895,21.24986Z"/>
    <path d="M130.29055,19.20982V21.3524h1.72168v1.47168h-1.72168v4.99121c0,.77539.34473,1.13672,1.10156,1.13672a5.80752,5.80752,0,0,0,.61133-.043v1.46289a5.10351,5.10351,0,0,1-1.03223.08594c-1.833,0-2.54785-.68848-2.54785-2.44434V22.82408H127.107V21.3524h1.31641V19.20982Z"/>
  </g>
</svg>
