<svg id="livetype" xmlns="http://www.w3.org/2000/svg" width="156.07833" height="40" viewBox="0 0 156.07833 40">
  <title>Download_on_the_App_Store_Badge_AZ_RGB_wht_100517</title>
  <g>
    <g>
      <path d="M146.549,0H9.53468c-.3667,0-.729,0-1.09473.002-.30615.002-.60986.00781-.91895.0127A13.21476,13.21476,0,0,0,5.5171.19141a6.66509,6.66509,0,0,0-1.90088.627A6.43779,6.43779,0,0,0,1.99757,1.99707,6.25844,6.25844,0,0,0,.81935,3.61816a6.60119,6.60119,0,0,0-.625,1.90332,12.993,12.993,0,0,0-.1792,2.002C.00587,7.83008.00489,8.1377,0,8.44434V31.5586c.00489.3105.00587.6113.01515.9219a12.99232,12.99232,0,0,0,.1792,2.0019,6.58756,6.58756,0,0,0,.625,1.9043A6.20778,6.20778,0,0,0,1.99757,38.001a6.27445,6.27445,0,0,0,1.61865,1.1787,6.70082,6.70082,0,0,0,1.90088.6308,13.45514,13.45514,0,0,0,2.0039.1768c.30909.0068.6128.0107.91895.0107C8.80567,40,9.168,40,9.53468,40H146.549c.3594,0,.7246,0,1.084-.002.3047,0,.6172-.0039.9219-.0107a13.279,13.279,0,0,0,2-.1768,6.80432,6.80432,0,0,0,1.9082-.6308,6.27742,6.27742,0,0,0,1.6172-1.1787,6.39482,6.39482,0,0,0,1.1816-1.6143,6.60413,6.60413,0,0,0,.6191-1.9043,13.50643,13.50643,0,0,0,.1856-2.0019c.0039-.3106.0039-.6114.0039-.9219.0078-.3633.0078-.7246.0078-1.0938V9.53613c0-.36621,0-.72949-.0078-1.09179,0-.30664,0-.61426-.0039-.9209a13.5071,13.5071,0,0,0-.1856-2.002,6.6177,6.6177,0,0,0-.6191-1.90332,6.46619,6.46619,0,0,0-2.7988-2.7998,6.76754,6.76754,0,0,0-1.9082-.627,13.04394,13.04394,0,0,0-2-.17676c-.3047-.00488-.6172-.01074-.9219-.01269C147.27362,0,146.90842,0,146.549,0Z"/>
      <path d="M8.44483,39.125c-.30468,0-.602-.0039-.90429-.0107a12.68714,12.68714,0,0,1-1.86914-.1631,5.88381,5.88381,0,0,1-1.65674-.5479,5.40573,5.40573,0,0,1-1.397-1.0166,5.32082,5.32082,0,0,1-1.02051-1.3965,5.72186,5.72186,0,0,1-.543-1.6572,12.41351,12.41351,0,0,1-.1665-1.875c-.00634-.2109-.01464-.9131-.01464-.9131V8.44434S.88185,7.75293.8877,7.5498a12.37039,12.37039,0,0,1,.16553-1.87207,5.7555,5.7555,0,0,1,.54346-1.6621A5.37349,5.37349,0,0,1,2.61183,2.61768,5.56543,5.56543,0,0,1,4.01417,1.59521a5.82309,5.82309,0,0,1,1.65332-.54394A12.58589,12.58589,0,0,1,7.543.88721L8.44532.875H147.62812l.9131.0127a12.38492,12.38492,0,0,1,1.8584.16259,5.93833,5.93833,0,0,1,1.6709.54785,5.59374,5.59374,0,0,1,2.415,2.41993,5.76267,5.76267,0,0,1,.5352,1.64892,12.995,12.995,0,0,1,.1738,1.88721c.0029.2832.0029.5874.0029.89014.0079.375.0079.73193.0079,1.09179V30.4648c0,.3633,0,.7178-.0079,1.0752,0,.3252,0,.6231-.0039.9297a12.73126,12.73126,0,0,1-.1709,1.8535,5.739,5.739,0,0,1-.54,1.67,5.48028,5.48028,0,0,1-1.0156,1.3857,5.4129,5.4129,0,0,1-1.3994,1.0225,5.86168,5.86168,0,0,1-1.668.5498,12.54218,12.54218,0,0,1-1.8692.1631c-.2929.0068-.5996.0107-.8974.0107l-1.084.002Z" style="fill: #fff"/>
    </g>
    <g id="_Group_" data-name="&lt;Group&gt;">
      <g>
        <path d="M35.6465,32.9707v-.76465a2.09459,2.09459,0,0,0,.28906.0166.7713.7713,0,0,0,.81543-.62891l.06543-.21875-1.62891-4.51953h.96777l1.12891,3.57617h.07031l1.125-3.57617h.94238l-1.67871,4.68945c-.38477,1.0957-.81055,1.44727-1.72852,1.44727C35.94045,32.99219,35.72951,32.9834,35.6465,32.9707Z"/>
        <path d="M44.25393,31.3584h-.85645v-.71582h-.07031a1.34923,1.34923,0,0,1-1.36035.80273,1.46182,1.46182,0,0,1-1.55078-1.666V26.85547h.88965v2.69141c0,.72852.293,1.07617.94629,1.07617a1.02264,1.02264,0,0,0,1.1123-1.13379V26.85547h.88965Zm-3.35352-5.67285a.55176.55176,0,1,1,.55371.55371A.54708.54708,0,0,1,40.90041,25.68555Zm1.76563,0a.5518.5518,0,1,1,1.10352,0,.55176.55176,0,1,1-1.10352,0Z"/>
        <path d="M48.45705,26.85547h1.0498l-1.85254,1.93066,1.97656,2.57227h-1.0918L46.99318,29.373l-.39355.373v1.6123H45.711V25.09766h.88867v3.63477h.07031Z"/>
        <path d="M50.61232,25.09766H51.501V31.3584h-.88867Z"/>
        <path d="M52.82033,29.2168c0-.13477.00391-.32812.00391-.32812h3.22852V28.833a1.22344,1.22344,0,0,0-1.23242-1.31934,1.079,1.079,0,0,0-1.0791.62793H52.876a1.912,1.912,0,0,1,1.94824-1.40332,2.11756,2.11756,0,0,1,2.12988,2.37109,2.10851,2.10851,0,0,1-2.0752,2.36328A2.01938,2.01938,0,0,1,52.82033,29.2168Zm3.2207.34766H53.72561a1.12757,1.12757,0,0,0,1.166,1.13379A1.161,1.161,0,0,0,56.041,29.56445Z"/>
        <path d="M58.31643,32.9707v-.76465a2.09459,2.09459,0,0,0,.28906.0166.7713.7713,0,0,0,.81543-.62891l.06543-.21875-1.62891-4.51953h.96777l1.12891,3.57617h.07031l1.125-3.57617h.94238l-1.67871,4.68945c-.38477,1.0957-.81055,1.44727-1.72852,1.44727C58.61037,32.99219,58.39943,32.9834,58.31643,32.9707Z"/>
        <path d="M63.01174,25.52344a.57569.57569,0,1,1,.5752.542A.547.547,0,0,1,63.01174,25.52344Zm.13281,1.332h.88477V31.3584h-.88477Z"/>
        <path d="M65.4634,26.85547h.85547v.71484h.06641a1.34836,1.34836,0,0,1,1.34375-.80176,1.46456,1.46456,0,0,1,1.55859,1.6748v2.915h-.88867V28.666c0-.72266-.31445-1.083-.97168-1.083a1.03309,1.03309,0,0,0-1.0752,1.1416V31.3584H65.4634Z"/>
      </g>
    </g>
    <g>
      <path d="M42.30471,17.26807h-4.7334l-1.13672,3.35645H34.42971l4.4834-12.418h2.083l4.4834,12.418H43.44045Zm-4.24316-1.54883h3.752L39.96389,10.272h-.05176Z"/>
      <path d="M55.16213,16.09814c0,2.81348-1.50586,4.62109-3.77832,4.62109a3.0693,3.0693,0,0,1-2.84863-1.584h-.043v4.48438h-1.8584V11.5708h1.79883v1.50586h.03418a3.21162,3.21162,0,0,1,2.88281-1.60059C53.64748,11.47607,55.16213,13.29248,55.16213,16.09814Zm-1.91016,0c0-1.833-.94727-3.03809-2.39258-3.03809-1.41992,0-2.375,1.23047-2.375,3.03809,0,1.82422.95508,3.0459,2.375,3.0459C52.30471,19.144,53.252,17.94775,53.252,16.09814Z"/>
      <path d="M65.12648,16.09814c0,2.81348-1.50537,4.62109-3.77783,4.62109A3.0693,3.0693,0,0,1,58.5,19.13525h-.043v4.48438h-1.8584V11.5708h1.79883v1.50586h.03418a3.21162,3.21162,0,0,1,2.88281-1.60059C63.61232,11.47607,65.12648,13.29248,65.12648,16.09814Zm-1.90967,0c0-1.833-.94727-3.03809-2.39258-3.03809-1.41992,0-2.375,1.23047-2.375,3.03809,0,1.82422.95508,3.0459,2.375,3.0459C62.26955,19.144,63.21682,17.94775,63.21682,16.09814Z"/>
      <path d="M71.71145,17.16455c.1377,1.23145,1.334,2.04,2.96875,2.04,1.56641,0,2.69336-.80859,2.69336-1.91895,0-.96387-.67969-1.541-2.28906-1.93652l-1.60937-.3877c-2.28027-.55078-3.33887-1.61719-3.33887-3.34766,0-2.14258,1.86719-3.61426,4.51758-3.61426,2.625,0,4.42383,1.47168,4.48438,3.61426h-1.876c-.1123-1.23926-1.13672-1.9873-2.63379-1.9873s-2.52148.75684-2.52148,1.8584c0,.87793.6543,1.39453,2.25488,1.79l1.36816.33594c2.54785.60254,3.60547,1.626,3.60547,3.44238,0,2.32324-1.84961,3.77832-4.793,3.77832-2.75391,0-4.61328-1.4209-4.7334-3.667Z"/>
      <path d="M83.34816,9.42822V11.5708h1.72168v1.47168H83.34816v4.99121c0,.77539.34473,1.13672,1.10156,1.13672a5.80752,5.80752,0,0,0,.61133-.043v1.46289a5.10351,5.10351,0,0,1-1.03223.08594c-1.833,0-2.54785-.68848-2.54785-2.44434V13.04248H80.16457V11.5708H81.481V9.42822Z"/>
      <path d="M86.06594,16.09814c0-2.84863,1.67773-4.63867,4.29395-4.63867,2.625,0,4.29492,1.79,4.29492,4.63867,0,2.85645-1.66113,4.63867-4.29492,4.63867C87.72707,20.73682,86.06594,18.95459,86.06594,16.09814Zm6.69531,0c0-1.9541-.89551-3.10742-2.40137-3.10742s-2.40137,1.16211-2.40137,3.10742c0,1.96191.89551,3.10645,2.40137,3.10645S92.76125,18.06006,92.76125,16.09814Z"/>
      <path d="M96.187,11.5708h1.77246v1.541h.043a2.1594,2.1594,0,0,1,2.17773-1.63574,2.86615,2.86615,0,0,1,.63672.06934v1.73828a2.59794,2.59794,0,0,0-.835-.1123,1.87264,1.87264,0,0,0-1.93652,2.083v5.37012H96.187Z"/>
      <path d="M109.38527,17.96533c-.25,1.64355-1.85059,2.77148-3.89844,2.77148-2.63379,0-4.26855-1.76465-4.26855-4.5957,0-2.83984,1.64355-4.68164,4.19043-4.68164,2.50488,0,4.08008,1.7207,4.08008,4.46582V16.562h-6.39453v.1123a2.358,2.358,0,0,0,2.43555,2.56445,2.04834,2.04834,0,0,0,2.09082-1.27344ZM103.103,15.26318h4.52637a2.1773,2.1773,0,0,0-2.2207-2.29785A2.292,2.292,0,0,0,103.103,15.26318Z"/>
      <path d="M111.09816,16.42529V14.74658h5.64551v1.67871Z"/>
      <path d="M118.353,16.09814c0-2.79687,1.54-4.62207,3.78613-4.62207a3.05412,3.05412,0,0,1,2.83984,1.60059h.03516V8.20654h1.86719v12.418h-1.80762v-1.54h-.03418a3.08787,3.08787,0,0,1-2.88281,1.63477C119.89309,20.71924,118.353,18.895,118.353,16.09814Zm1.90137,0c0,1.8584.94727,3.0459,2.39258,3.0459,1.42871,0,2.38379-1.20508,2.38379-3.0459,0-1.8252-.95508-3.03809-2.38379-3.03809C121.20168,13.06006,120.25441,14.25635,120.25441,16.09814Z"/>
      <path d="M128.51711,18.05127c0-1.583,1.21289-2.53906,3.36523-2.668l2.47852-.1377v-.68848c0-1.00684-.66309-1.5752-1.791-1.5752a1.73035,1.73035,0,0,0-1.90137,1.27441H128.9302c.05176-1.63574,1.5752-2.79687,3.69141-2.79687,2.16016,0,3.58887,1.17871,3.58887,2.96v6.20508h-1.78125V19.13525h-.043a3.23683,3.23683,0,0,1-2.85742,1.64453A2.74447,2.74447,0,0,1,128.51711,18.05127Zm5.84375-.81738v-.69727l-2.22949.1377c-1.11035.06934-1.73828.55078-1.73828,1.3252,0,.792.6543,1.30859,1.65234,1.30859A2.17046,2.17046,0,0,0,134.36086,17.23389Z"/>
      <path d="M138.105,11.5708h1.77246v1.541h.043a2.8932,2.8932,0,0,1,2.84863-1.64355c1.99707,0,3.1416,1.28223,3.1416,3.35547v5.80078h-1.86719V15.18506c0-1.35937-.62891-2.11621-1.93652-2.11621a2.10392,2.10392,0,0,0-2.14355,2.34082v5.21484H138.105Z"/>
    </g>
    <g id="_Group_2" data-name="&lt;Group&gt;">
      <g id="_Group_3" data-name="&lt;Group&gt;">
        <path id="_Path_" data-name="&lt;Path&gt;" d="M24.99671,19.88935a5.14625,5.14625,0,0,1,2.45058-4.31771,5.26776,5.26776,0,0,0-4.15039-2.24376c-1.74624-.1833-3.43913,1.04492-4.329,1.04492-.90707,0-2.27713-1.02672-3.75247-.99637a5.52735,5.52735,0,0,0-4.65137,2.8367c-2.01111,3.482-.511,8.59939,1.41551,11.414.96388,1.37823,2.09037,2.91774,3.56438,2.86315,1.4424-.05983,1.98111-.91977,3.7222-.91977,1.72494,0,2.23035.91977,3.73427.88506,1.54777-.02512,2.52292-1.38435,3.453-2.77563a11.39931,11.39931,0,0,0,1.579-3.21589A4.97284,4.97284,0,0,1,24.99671,19.88935Z"/>
        <path id="_Path_2" data-name="&lt;Path&gt;" d="M22.15611,11.47681a5.06687,5.06687,0,0,0,1.159-3.62989,5.15524,5.15524,0,0,0-3.33555,1.72582,4.82131,4.82131,0,0,0-1.18934,3.4955A4.26259,4.26259,0,0,0,22.15611,11.47681Z"/>
      </g>
    </g>
  </g>
</svg>
