<svg id="OL" xmlns="http://www.w3.org/2000/svg" width="119.66408" height="40.00013" viewBox="0 0 119.66408 40.00013">
  <title>Download_on_the_App_Store_Badge_AR_RGB_wht_102417</title>
  <g>
    <g>
      <g>
        <path d="M110.13477,0H9.53468c-.3667,0-.729,0-1.09473.002-.30615.002-.60986.00781-.919.0127A13.21479,13.21479,0,0,0,5.5171.19141a6.6651,6.6651,0,0,0-1.90088.627A6.43779,6.43779,0,0,0,1.99757,1.99707,6.25844,6.25844,0,0,0,.81935,3.61816a6.60119,6.60119,0,0,0-.625,1.90332,12.993,12.993,0,0,0-.1792,2.002C.00587,7.83008.00489,8.1377,0,8.44434V31.5586c.00489.3105.00587.6113.01515.9219a12.99234,12.99234,0,0,0,.1792,2.0019,6.58757,6.58757,0,0,0,.625,1.9043A6.20777,6.20777,0,0,0,1.99757,38.001a6.27446,6.27446,0,0,0,1.61865,1.1787,6.70087,6.70087,0,0,0,1.90088.6308,13.45487,13.45487,0,0,0,2.0039.1768c.30909.0068.6128.0107.919.0107C8.80567,40,9.168,40,9.53468,40H110.13477c.3594,0,.7246,0,1.084-.002.3047,0,.6172-.0039.9219-.0107a13.27905,13.27905,0,0,0,2-.1768,6.80427,6.80427,0,0,0,1.9082-.6308,6.27749,6.27749,0,0,0,1.6172-1.1787,6.39485,6.39485,0,0,0,1.1816-1.6143,6.60423,6.60423,0,0,0,.6191-1.9043,13.507,13.507,0,0,0,.1856-2.0019c.0039-.3106.0039-.6114.0039-.9219.0078-.3633.0078-.7246.0078-1.0938V9.53613c0-.36621,0-.72949-.0078-1.09179,0-.30664,0-.61426-.0039-.9209a13.50724,13.50724,0,0,0-.1856-2.002,6.61789,6.61789,0,0,0-.6191-1.90332,6.46615,6.46615,0,0,0-2.7988-2.7998,6.7676,6.7676,0,0,0-1.9082-.627,13.04391,13.04391,0,0,0-2-.17676c-.3047-.00488-.6172-.01074-.9219-.01269-.3594-.002-.7246-.002-1.084-.002Z" transform="translate(0 0.00013)"/>
        <path d="M8.44483,39.125c-.30468,0-.602-.0039-.90429-.0107a12.6871,12.6871,0,0,1-1.86914-.1631,5.88383,5.88383,0,0,1-1.65674-.5479,5.40573,5.40573,0,0,1-1.397-1.0166,5.3208,5.3208,0,0,1-1.02051-1.3965,5.72186,5.72186,0,0,1-.543-1.6572,12.41352,12.41352,0,0,1-.1665-1.875C.88131,32.2471.873,31.5449.873,31.5449V8.44434S.88185,7.75293.8877,7.5498a12.3704,12.3704,0,0,1,.16553-1.87207,5.7555,5.7555,0,0,1,.54346-1.6621,5.37349,5.37349,0,0,1,1.01514-1.398A5.56543,5.56543,0,0,1,4.01417,1.59521a5.82309,5.82309,0,0,1,1.65332-.54394A12.58586,12.58586,0,0,1,7.543.88721L8.44532.875H111.21387l.9131.0127a12.38493,12.38493,0,0,1,1.8584.16259,5.93833,5.93833,0,0,1,1.6709.54785,5.59375,5.59375,0,0,1,2.415,2.41993,5.76261,5.76261,0,0,1,.5352,1.64892,12.99507,12.99507,0,0,1,.1738,1.88721c.0029.2832.0029.5874.0029.89014.0079.375.0079.73193.0079,1.09179V30.4648c0,.3633,0,.7178-.0079,1.0752,0,.3252,0,.6231-.0039.9297a12.73188,12.73188,0,0,1-.1709,1.8535,5.739,5.739,0,0,1-.54,1.67,5.48036,5.48036,0,0,1-1.0156,1.3857,5.41292,5.41292,0,0,1-1.3994,1.0225,5.86168,5.86168,0,0,1-1.668.5498,12.54258,12.54258,0,0,1-1.8692.1631c-.2929.0068-.5996.0107-.8974.0107l-1.084.002Z" transform="translate(0 0.00013)" style="fill: #fff"/>
      </g>
      <g id="_Group_" data-name=" Group ">
        <g id="_Group_2" data-name=" Group 2">
          <path id="_Path_" data-name=" Path " d="M107.39255,19.88935a5.14625,5.14625,0,0,1,2.45058-4.31771,5.26776,5.26776,0,0,0-4.15039-2.24376c-1.74624-.1833-3.43913,1.04492-4.329,1.04492-.90707,0-2.27713-1.02672-3.75247-.99637a5.52736,5.52736,0,0,0-4.65137,2.8367c-2.01111,3.482-.511,8.59939,1.41551,11.414.96388,1.37823,2.09037,2.91774,3.56438,2.86315,1.4424-.05983,1.98111-.91977,3.7222-.91977,1.72494,0,2.23035.91977,3.73427.88506,1.54777-.02512,2.52292-1.38435,3.453-2.77563a11.39917,11.39917,0,0,0,1.579-3.21589A4.97284,4.97284,0,0,1,107.39255,19.88935Z" transform="translate(0 0.00013)"/>
          <path id="_Path_2" data-name=" Path 2" d="M104.55194,11.47681a5.06686,5.06686,0,0,0,1.159-3.62989,5.15523,5.15523,0,0,0-3.33555,1.72582,4.82133,4.82133,0,0,0-1.18934,3.4955A4.26258,4.26258,0,0,0,104.55194,11.47681Z" transform="translate(0 0.00013)"/>
        </g>
      </g>
      <g>
        <path d="M17.1981,27.13965H12.4647L11.328,30.49609H9.3231l4.4834-12.418h2.083l4.4834,12.418H18.33384Zm-4.24316-1.54883h3.752l-1.84961-5.44727h-.05176Z" transform="translate(0 0.00013)"/>
        <path d="M30.05552,25.96973c0,2.81348-1.50586,4.62109-3.77832,4.62109a3.0693,3.0693,0,0,1-2.84863-1.584h-.043V33.4912H21.5272V21.44238H23.326v1.50586h.03418A3.21162,3.21162,0,0,1,26.243,21.34766C28.54087,21.34766,30.05552,23.16406,30.05552,25.96973Zm-1.91016,0c0-1.833-.94727-3.03809-2.39258-3.03809-1.41992,0-2.375,1.23047-2.375,3.03809,0,1.82422.95508,3.0459,2.375,3.0459,1.44532,0,2.39259-1.19629,2.39259-3.0459Z" transform="translate(0 0.00013)"/>
        <path d="M40.02085,25.96973c0,2.81348-1.50635,4.62109-3.77881,4.62109a3.0693,3.0693,0,0,1-2.84863-1.584h-.043V33.4912H31.492V21.44238h1.79883v1.50586H33.325a3.21162,3.21162,0,0,1,2.88281-1.60059C38.50572,21.34766,40.02085,23.16406,40.02085,25.96973Zm-1.91064,0c0-1.833-.94727-3.03809-2.39258-3.03809-1.41992,0-2.375,1.23047-2.375,3.03809,0,1.82422.95508,3.0459,2.375,3.0459C37.16294,29.01563,38.11021,27.81934,38.11021,25.96973Z" transform="translate(0 0.00013)"/>
        <path d="M46.60581,27.03613c.1377,1.23145,1.334,2.04,2.96875,2.04,1.56641,0,2.69336-.80859,2.69336-1.91895,0-.96387-.67969-1.541-2.28906-1.93652l-1.60937-.3877c-2.28027-.55078-3.33887-1.61719-3.33887-3.34766,0-2.14258,1.86719-3.61426,4.51758-3.61426,2.625,0,4.42383,1.47168,4.48438,3.61426h-1.876c-.1123-1.23926-1.13672-1.9873-2.63379-1.9873s-2.52148.75684-2.52148,1.8584c0,.87793.6543,1.39453,2.25488,1.79l1.36816.33594c2.54785.60254,3.60547,1.626,3.60547,3.44238,0,2.32324-1.84961,3.77832-4.793,3.77832-2.75391,0-4.61328-1.4209-4.7334-3.667Z" transform="translate(0 0.00013)"/>
        <path d="M58.24253,19.2998v2.14258h1.72168v1.47168H58.24253v4.99121c0,.77539.34473,1.13672,1.10156,1.13672a5.80743,5.80743,0,0,0,.61133-.043v1.46289a5.10345,5.10345,0,0,1-1.03223.08594c-1.833,0-2.54785-.68848-2.54785-2.44434V22.91406H55.05894V21.44238h1.31641V19.2998Z" transform="translate(0 0.00013)"/>
        <path d="M60.96031,25.96973c0-2.84863,1.67773-4.63867,4.294-4.63867,2.625,0,4.29492,1.79,4.29492,4.63867,0,2.85645-1.66113,4.63867-4.29492,4.63867C62.62144,30.6084,60.96031,28.82617,60.96031,25.96973Zm6.69531,0c0-1.9541-.89551-3.10742-2.40137-3.10742s-2.40137,1.16211-2.40137,3.10742c0,1.96191.89551,3.10645,2.40137,3.10645S67.65562,27.93164,67.65562,25.96973Z" transform="translate(0 0.00013)"/>
        <path d="M71.0814,21.44238h1.77246v1.541h.043a2.1594,2.1594,0,0,1,2.17773-1.63574,2.86616,2.86616,0,0,1,.63672.06934v1.73828a2.59791,2.59791,0,0,0-.835-.1123,1.87263,1.87263,0,0,0-1.93652,2.083v5.37012H71.0814Z" transform="translate(0 0.00013)"/>
        <path d="M84.27964,27.83691c-.25,1.64355-1.85059,2.77148-3.89844,2.77148-2.63379,0-4.26855-1.76465-4.26855-4.5957,0-2.83984,1.64355-4.68164,4.19043-4.68164,2.50488,0,4.08008,1.7207,4.08008,4.46582v.63672H77.98863v.1123a2.358,2.358,0,0,0,2.43555,2.56445A2.04834,2.04834,0,0,0,82.515,27.83691Zm-6.28223-2.70215h4.52637a2.1773,2.1773,0,0,0-2.05288-2.295q-.08383-.00467-.16782-.00286a2.292,2.292,0,0,0-2.30563,2.2783Q77.99739,25.125,77.99741,25.13476Z" transform="translate(0 0.00013)"/>
      </g>
    </g>
    <g>
      <path d="M53.7939,16.0835h-.65332c-1.272,0-2.61377-.26123-2.61377-2.02148a9.81046,9.81046,0,0,1,.54-2.31738l.84521.22656-.12207.39209A7.92754,7.92754,0,0,0,51.433,14.062c0,1.21094,1.15869,1.21094,1.94287,1.21094h.54883c.39209,0,.93213-.15674.93213-.65332V11.17822h.93262v2.5791a1.53553,1.53553,0,0,0,.63574.12158h.32227v.80176h-.32227a2.26374,2.26374,0,0,1-.63574-.0957v.122C55.78951,15.15967,55.44088,16.0835,53.7939,16.0835Zm-.53125-5.84619a.56247.56247,0,1,1,.59229-.56641.55276.55276,0,0,1-.53748.56762q-.02742.00075-.05481-.00122Z" transform="translate(0 0.00013)"/>
      <path d="M57.79976,13.87891a4.01977,4.01977,0,0,1-.14844-1.17627,1.86265,1.86265,0,0,1,1.89063-2.05615c1.2373,0,1.7168,1.01074,1.7168,2.21338,0,.88867-.314,2.09082-1.5249,2.09082a4.586,4.586,0,0,1-1.16748-.27h-1.978v-.80176Zm.94092.03516a2.81692,2.81692,0,0,0,.93213.21777c.54,0,.68848-.68848.68848-1.29834,0-.5835-.16553-1.41992-.87158-1.41992-.63574,0-.91455.59229-.91455,1.3418a3.41881,3.41881,0,0,0,.16552,1.15868Z" transform="translate(0 0.00013)"/>
      <path d="M67.40767,16.0835h-.65332c-1.27246,0-2.61426-.26123-2.61426-2.02148a9.83461,9.83461,0,0,1,.54-2.31738l.8457.22656-.12207.39209A7.92511,7.92511,0,0,0,65.0463,14.062c0,1.21094,1.15918,1.21094,1.94336,1.21094h.54883c.3916,0,.93164-.15674.93164-.65332V8.80811h.93262v4.94922a1.53717,1.53717,0,0,0,.63574.12158h.32227v.80176h-.32227a2.26872,2.26872,0,0,1-.63574-.0957v.122C69.40279,15.15967,69.05416,16.0835,67.40767,16.0835Z" transform="translate(0 0.00013)"/>
      <path d="M73.49556,10.69043v2.44824c0,1.03662-.61914,1.542-1.84766,1.542H70.20162v-.80176h1.41211c.74023,0,.94043-.32227.94043-.87109V10.69043Zm-2.335,5.94189a.56249.56249,0,1,1,.59277-.56641.55277.55277,0,0,1-.59274.56641Zm1.46387,0a.56246.56246,0,1,1,.5918-.56641.55276.55276,0,0,1-.53751.5676q-.02713.00074-.05424-.00119Z" transform="translate(0 0.00013)"/>
      <path d="M74.19088,15.98779a3.48855,3.48855,0,0,0,.40039.02588c.76758,0,1.15039-.44434,1.15039-1.3418V11.16943h.94141V13.8789h.8623v.80176h-.87109a2.35047,2.35047,0,0,1-.60156,1.61182,2.215,2.215,0,0,1-1.51562.51416,5.18281,5.18281,0,0,1-.59277-.04346Zm1.97754-5.66357a.56249.56249,0,1,1,.59277-.56641.55247.55247,0,0,1-.59277.56641Z" transform="translate(0 0.00013)"/>
      <path d="M80.63716,14.68066a2.34857,2.34857,0,0,1-1.07129-.29639,2.60147,2.60147,0,0,1-1.47266.29639h-.706V13.8789H78.146c.71387,0,.85352-.11328.85352-.63574V10.69043h.93262v3.03174a1.588,1.588,0,0,0,.70508.15674h.584v.80176ZM79.42623,9.81885a.56249.56249,0,1,1,.59277-.56641.55247.55247,0,0,1-.59277.56641Z" transform="translate(0 0.00013)"/>
      <path d="M83.45064,10.69043v2.44824c0,1.03662-.61816,1.542-1.84668,1.542h-.541v-.80176h.50587c.74023,0,.94043-.32227.94043-.87109V10.69043ZM82.0649,9.81885a.56249.56249,0,1,1,.59277-.56641.55247.55247,0,0,1-.59277.56641Zm1.46387,0a.56249.56249,0,1,1,.59277-.56641.55247.55247,0,0,1-.59277.56641Z" transform="translate(0 0.00013)"/>
    </g>
  </g>
</svg>
