<svg id="OL" xmlns="http://www.w3.org/2000/svg" width="119.66407" height="40" viewBox="0 0 119.66407 40">
  <title>Download_on_the_App_Store_Badge_HB_wht_102617</title>
  <g>
    <g>
      <g>
        <path d="M110.13477,0H9.53468c-.3667,0-.729,0-1.09473.002-.30615.002-.60986.00781-.91895.0127A13.21476,13.21476,0,0,0,5.5171.19141a6.66509,6.66509,0,0,0-1.90088.627A6.43779,6.43779,0,0,0,1.99757,1.99707,6.25844,6.25844,0,0,0,.81935,3.61816a6.60119,6.60119,0,0,0-.625,1.90332,12.993,12.993,0,0,0-.1792,2.002C.00587,7.83008.00489,8.1377,0,8.44434V31.5586c.00489.3105.00587.6113.01515.9219a12.99232,12.99232,0,0,0,.1792,2.0019,6.58756,6.58756,0,0,0,.625,1.9043A6.20778,6.20778,0,0,0,1.99757,38.001a6.27445,6.27445,0,0,0,1.61865,1.1787,6.70082,6.70082,0,0,0,1.90088.6308,13.45514,13.45514,0,0,0,2.0039.1768c.30909.0068.6128.0107.91895.0107C8.80567,40,9.168,40,9.53468,40H110.13477c.3594,0,.7246,0,1.084-.002.3047,0,.6172-.0039.9219-.0107a13.279,13.279,0,0,0,2-.1768,6.80432,6.80432,0,0,0,1.9082-.6308,6.27742,6.27742,0,0,0,1.6172-1.1787,6.39482,6.39482,0,0,0,1.1816-1.6143,6.60413,6.60413,0,0,0,.6191-1.9043,13.50643,13.50643,0,0,0,.1856-2.0019c.0039-.3106.0039-.6114.0039-.9219.0078-.3633.0078-.7246.0078-1.0938V9.53613c0-.36621,0-.72949-.0078-1.09179,0-.30664,0-.61426-.0039-.9209a13.5071,13.5071,0,0,0-.1856-2.002,6.6177,6.6177,0,0,0-.6191-1.90332,6.46619,6.46619,0,0,0-2.7988-2.7998,6.76754,6.76754,0,0,0-1.9082-.627,13.04394,13.04394,0,0,0-2-.17676c-.3047-.00488-.6172-.01074-.9219-.01269-.3594-.002-.7246-.002-1.084-.002Z"/>
        <path d="M8.44483,39.125c-.30468,0-.602-.0039-.90429-.0107a12.68714,12.68714,0,0,1-1.86914-.1631,5.88381,5.88381,0,0,1-1.65674-.5479,5.40573,5.40573,0,0,1-1.397-1.0166,5.32082,5.32082,0,0,1-1.02051-1.3965,5.72186,5.72186,0,0,1-.543-1.6572,12.41351,12.41351,0,0,1-.1665-1.875c-.00634-.2109-.01464-.9131-.01464-.9131V8.44434S.88185,7.75293.8877,7.5498a12.37039,12.37039,0,0,1,.16553-1.87207,5.7555,5.7555,0,0,1,.54346-1.6621A5.37349,5.37349,0,0,1,2.61183,2.61768,5.56543,5.56543,0,0,1,4.01417,1.59521a5.82309,5.82309,0,0,1,1.65332-.54394A12.58589,12.58589,0,0,1,7.543.88721L8.44532.875H111.21387l.9131.0127a12.38493,12.38493,0,0,1,1.8584.16259,5.93833,5.93833,0,0,1,1.6709.54785,5.59374,5.59374,0,0,1,2.415,2.41993,5.76267,5.76267,0,0,1,.5352,1.64892,12.995,12.995,0,0,1,.1738,1.88721c.0029.2832.0029.5874.0029.89014.0079.375.0079.73193.0079,1.09179V30.4648c0,.3633,0,.7178-.0079,1.0752,0,.3252,0,.6231-.0039.9297a12.73126,12.73126,0,0,1-.1709,1.8535,5.739,5.739,0,0,1-.54,1.67,5.48029,5.48029,0,0,1-1.0156,1.3857,5.4129,5.4129,0,0,1-1.3994,1.0225,5.86168,5.86168,0,0,1-1.668.5498,12.54218,12.54218,0,0,1-1.8692.1631c-.2929.0068-.5996.0107-.8974.0107l-1.084.002Z" style="fill: #fff"/>
      </g>
      <g id="_Group_" data-name="&lt;Group&gt;">
        <g id="_Group_2" data-name="&lt;Group&gt;">
          <path id="_Path_" data-name="&lt;Path&gt;" d="M107.39255,19.88935a5.14625,5.14625,0,0,1,2.45058-4.31771,5.26776,5.26776,0,0,0-4.15039-2.24376c-1.74624-.1833-3.43913,1.04492-4.329,1.04492-.90707,0-2.27713-1.02672-3.75247-.99637a5.52735,5.52735,0,0,0-4.65137,2.8367c-2.01111,3.482-.511,8.59939,1.41551,11.414.96388,1.37823,2.09037,2.91774,3.56438,2.86315,1.4424-.05983,1.98111-.91977,3.7222-.91977,1.72494,0,2.23035.91977,3.73427.88506,1.54777-.02512,2.52292-1.38435,3.453-2.77563a11.39931,11.39931,0,0,0,1.579-3.21589A4.97284,4.97284,0,0,1,107.39255,19.88935Z"/>
          <path id="_Path_2" data-name="&lt;Path&gt;" d="M104.55194,11.47681a5.06687,5.06687,0,0,0,1.159-3.62989,5.15524,5.15524,0,0,0-3.33555,1.72582,4.82131,4.82131,0,0,0-1.18934,3.4955A4.26259,4.26259,0,0,0,104.55194,11.47681Z"/>
        </g>
      </g>
      <g>
        <path d="M17.1981,27.13965H12.4647L11.328,30.49609H9.3231l4.4834-12.418h2.083l4.4834,12.418H18.33384Zm-4.24316-1.54883h3.752l-1.84961-5.44727h-.05176Z"/>
        <path d="M30.05552,25.96973c0,2.81348-1.50586,4.62109-3.77832,4.62109a3.0693,3.0693,0,0,1-2.84863-1.584h-.043v4.48438H21.5272V21.44238H23.326v1.50586h.03418A3.21162,3.21162,0,0,1,26.243,21.34766C28.54087,21.34766,30.05552,23.16406,30.05552,25.96973Zm-1.91016,0c0-1.833-.94727-3.03809-2.39258-3.03809-1.41992,0-2.375,1.23047-2.375,3.03809,0,1.82422.95508,3.0459,2.375,3.0459C27.1981,29.01563,28.14537,27.81934,28.14537,25.96973Z"/>
        <path d="M40.02085,25.96973c0,2.81348-1.50635,4.62109-3.77881,4.62109a3.0693,3.0693,0,0,1-2.84863-1.584h-.043v4.48438H31.492V21.44238h1.79883v1.50586h.03418a3.21162,3.21162,0,0,1,2.88281-1.60059C38.50572,21.34766,40.02085,23.16406,40.02085,25.96973Zm-1.91064,0c0-1.833-.94727-3.03809-2.39258-3.03809-1.41992,0-2.375,1.23047-2.375,3.03809,0,1.82422.95508,3.0459,2.375,3.0459C37.16294,29.01563,38.11021,27.81934,38.11021,25.96973Z"/>
        <path d="M46.60581,27.03613c.1377,1.23145,1.334,2.04,2.96875,2.04,1.56641,0,2.69336-.80859,2.69336-1.91895,0-.96387-.67969-1.541-2.28906-1.93652l-1.60937-.3877c-2.28027-.55078-3.33887-1.61719-3.33887-3.34766,0-2.14258,1.86719-3.61426,4.51758-3.61426,2.625,0,4.42383,1.47168,4.48438,3.61426h-1.876c-.1123-1.23926-1.13672-1.9873-2.63379-1.9873s-2.52148.75684-2.52148,1.8584c0,.87793.6543,1.39453,2.25488,1.79l1.36816.33594c2.54785.60254,3.60547,1.626,3.60547,3.44238,0,2.32324-1.84961,3.77832-4.793,3.77832-2.75391,0-4.61328-1.4209-4.7334-3.667Z"/>
        <path d="M58.24253,19.2998v2.14258h1.72168v1.47168H58.24253v4.99121c0,.77539.34473,1.13672,1.10156,1.13672a5.80752,5.80752,0,0,0,.61133-.043v1.46289a5.10351,5.10351,0,0,1-1.03223.08594c-1.833,0-2.54785-.68848-2.54785-2.44434V22.91406H55.05894V21.44238h1.31641V19.2998Z"/>
        <path d="M60.96031,25.96973c0-2.84863,1.67773-4.63867,4.29395-4.63867,2.625,0,4.29492,1.79,4.29492,4.63867,0,2.85645-1.66113,4.63867-4.29492,4.63867C62.62144,30.6084,60.96031,28.82617,60.96031,25.96973Zm6.69531,0c0-1.9541-.89551-3.10742-2.40137-3.10742s-2.40137,1.16211-2.40137,3.10742c0,1.96191.89551,3.10645,2.40137,3.10645S67.65562,27.93164,67.65562,25.96973Z"/>
        <path d="M71.0814,21.44238h1.77246v1.541h.043a2.1594,2.1594,0,0,1,2.17773-1.63574,2.86616,2.86616,0,0,1,.63672.06934v1.73828a2.59794,2.59794,0,0,0-.835-.1123,1.87264,1.87264,0,0,0-1.93652,2.083v5.37012H71.0814Z"/>
        <path d="M84.27964,27.83691c-.25,1.64355-1.85059,2.77148-3.89844,2.77148-2.63379,0-4.26855-1.76465-4.26855-4.5957,0-2.83984,1.64355-4.68164,4.19043-4.68164,2.50488,0,4.08008,1.7207,4.08008,4.46582v.63672H77.98863v.1123a2.358,2.358,0,0,0,2.43555,2.56445A2.04834,2.04834,0,0,0,82.515,27.83691Zm-6.28223-2.70215h4.52637a2.1773,2.1773,0,0,0-2.2207-2.29785A2.292,2.292,0,0,0,77.99742,25.13477Z"/>
      </g>
    </g>
    <g>
      <path d="M52.52395,11.89795c0-1.04-.09375-1.45215-.97461-1.45215H49.95656a5.97579,5.97579,0,0,1-1.07715-.05615l.15918-.834a10.27277,10.27277,0,0,0,1.293.0376h1.2832c1.33008,0,1.62988.38428,1.62988,1.92041v3.17627h-.7207Zm-3.457.1123h.73047v2.67969h-.73047Z"/>
      <path d="M55.09426,11.81348c.13086-.93652-.24316-1.30225-.834-1.44238l.16895-.87158a1.43132,1.43132,0,0,1,1.2832,1.32129,1.9307,1.9307,0,0,1,1.81738-1.312c1.46191,0,1.81836,1.33984,1.81836,3.14795V13.856c0,.08447-.10352.70264-.13184.834h-1.8457c-.374,0-.86133.00928-1.05859.02832l.15918-.834a8.86445,8.86445,0,0,1,1.15234-.0376h.98438c.00879-.39355.00879-.77734.00879-1.15234,0-1.18066-.14941-2.333-1.24609-2.333-1.04,0-1.40527,1.03076-1.5459,1.668-.14941.62744-.34668,1.76123-.51465,2.66064h-.73145C54.76613,13.7251,54.99172,12.50684,55.09426,11.81348Z"/>
      <path d="M62.29445,10.38965l.15918-.834a10.46868,10.46868,0,0,0,1.30273.0376h2.75488l-.16895.85254h-.35645c-.28027,0-.38379.19678-.38379.87109,0,1.12451.04688,2.45508.0752,3.373h-.73145c-.00879-.60889-.06543-2.18311-.06543-3.2041a1.67665,1.67665,0,0,1,.19727-1.04H63.33449A5.47238,5.47238,0,0,1,62.29445,10.38965Z"/>
      <path d="M70.22414,11.78564c0-.92773-.10254-1.33984-.9834-1.33984H68.313a5.47232,5.47232,0,0,1-1.04-.05615l.15918-.834a10.46868,10.46868,0,0,0,1.30273.0376h.58105c1.36816,0,1.62988.32813,1.62988,1.93018v3.1665h-.72168Z"/>
      <path d="M73.24367,11.75732c0-.80566-.09375-1.09619-.82422-1.27393a5.43928,5.43928,0,0,1-.6377-.17822l.15918-.82422a3.51329,3.51329,0,0,0,.64648.1499c1.0498.22461,1.38672.57129,1.38672,1.99561v3.06348h-.73047Z"/>
      <path d="M78.96145,11.89795c0-1.04-.09375-1.45215-.97461-1.45215H76.39406a5.97579,5.97579,0,0,1-1.07715-.05615l.15918-.834a10.27277,10.27277,0,0,0,1.293.0376h1.2832c1.33008,0,1.62988.38428,1.62988,1.92041v3.17627h-.7207Zm-3.457.1123h.73047v2.67969h-.73047Z"/>
      <path d="M81.11086,12.51123v-.96631h3.00293v.96631Z"/>
    </g>
  </g>
</svg>
