<?xml version="1.0" encoding="UTF-8" standalone="no"?>
<!-- Created with Inkscape (http://www.inkscape.org/) -->
<svg
   xmlns:svg="http://www.w3.org/2000/svg"
   xmlns="http://www.w3.org/2000/svg"
   xmlns:xlink="http://www.w3.org/1999/xlink"
   version="1.0"
   width="744.09448"
   height="371.33856"
   id="svg2693">
  <defs
     id="defs2695">
    <linearGradient
       x1="362.32599"
       y1="5.8388"
       x2="379.63699"
       y2="5.8388"
       id="id1"
       gradientUnits="userSpaceOnUse">
   <stop
   style="stop-color:#71bf44;stop-opacity:1"
   offset="0"
   id="stop2504" />

   <stop
   style="stop-color:#ffffff;stop-opacity:1"
   offset="1"
   id="stop2506" />

  </linearGradient>
    <linearGradient
       x1="362.32599"
       y1="5.8388"
       x2="379.63699"
       y2="5.8388"
       id="linearGradient2761"
       xlink:href="#id1"
       gradientUnits="userSpaceOnUse"
       gradientTransform="matrix(17.570118,0,0,17.570118,-1735.4368,-2488.6967)" />
  </defs>
  <g
     transform="translate(-567.33673,7.24261)"
     id="layer1">
    <g
       transform="matrix(5.5306677,0,0,5.5306677,-2552.6979,-1471.4656)"
       id="g2789">
      <polygon
         points="115.107,185.05 151.259,185.05 151.259,196.787 144.182,198.33 133.339,198.888 115.097,201.773 115.107,185.05 "
         transform="matrix(3.543307,0,0,3.543307,159.51276,-387.74164)"
         style="fill:#f47920;fill-rule:nonzero"
         id="polygon2637" />
      <path
         d="M 368.15625,284.25 C 367.21338,284.43709 364.4327,285.33217 364.34375,287 C 364.34127,287.07937 364.31675,288.47452 364.3125,289.3125 C 364.3125,289.50065 364.27005,289.78933 364.1875,289.90625 C 364.10494,290.02459 363.91002,290.03499 363.53125,290.125 C 362.19578,290.44177 362.04952,291.47833 361.96875,293.40625 C 362.2593,293.38995 363.12726,293.33228 363.5,293.28125 C 364.01484,293.20117 364.3434,293.56432 364.34375,294.0625 L 364.34375,307.59375 C 364.34375,307.71245 364.51741,307.85005 364.6875,307.8125 C 365.63037,307.62506 368.34821,307.22964 368.4375,305.5625 C 368.45628,305.03136 368.47405,296.75509 368.46875,293.75 C 368.46804,293.22276 368.40646,293.09037 368.65625,292.84375 C 368.83306,292.66977 368.80709,292.67956 369.25,292.625 C 371.72287,292.35535 371.58346,289.41669 371.59375,289.15625 L 368.875,289.4375 C 368.64469,289.46443 368.43609,289.39989 368.4375,289.09375 L 368.4375,284.46875 C 368.4375,284.34899 368.32632,284.2128 368.15625,284.25 z M 309.75,284.6875 C 309.37724,284.68644 303.08426,284.82853 302,286.78125 C 301.02807,288.53271 302.00135,289.71531 303.25,298.28125 C 299.85056,298.67314 292.6613,300.79579 292.375,305.28125 C 292.3091,306.31589 292.70835,307.54678 293.46875,308.78125 C 295.32403,311.79237 299.25314,314.87135 303.40625,315.46875 C 304.27188,315.59311 306.92517,315.66009 307.9375,313.21875 C 308.1742,312.83678 308.43232,311.13897 308.65625,308.78125 C 309.34294,301.55184 309.8976,287.93454 310,285.625 C 310.0124,285.39681 309.92752,284.65845 309.75,284.6875 z M 392.53125,288.53125 C 390.09664,288.74066 388.97573,289.84651 388.59375,289.8125 C 388.50411,289.80506 387.72573,289.31421 387.34375,289.28125 C 387.11839,289.26141 386.19768,289.06913 385.34375,289.34375 C 385.34375,289.34375 385.60457,290.25874 385.84375,292.125 C 386.42875,296.6987 386.42079,302.99991 386.40625,304.71875 C 386.4183,304.85871 386.40824,304.9455 386.5,305.03125 C 386.5652,305.09184 386.6518,305.13989 386.71875,305.125 C 390.45092,304.44043 390.14036,304.09232 390.1875,299.90625 C 390.1875,299.90625 390.05922,295.98151 390.1875,294.53125 C 390.35155,292.66109 394.2636,293.86816 394.3125,289.8125 C 394.31569,289.58644 394.26254,288.99115 394.15625,288.6875 C 393.95003,288.66057 392.53124,288.53126 392.53125,288.53125 z M 380.71875,290 C 377.76469,289.92772 371.66657,290.63706 370.71875,295.125 C 369.99591,298.54394 373.06367,305.85578 379.0625,306 C 381.13888,306.04961 383.45195,304.04514 384.53125,302.78125 C 384.54755,302.76141 384.55683,302.71371 384.5625,302.6875 C 384.57739,302.62053 384.56365,302.54691 384.4375,302.5625 C 382.53581,303.03022 378.92334,302.53365 377.5,301.6875 C 378.33764,300.94234 383.87385,295.76758 384.15625,292.3125 C 384.3366,290.08659 380.94233,290.00495 380.71875,290 z M 358.34375,292.8125 C 355.38864,292.74057 349.26032,293.44849 348.3125,297.9375 C 347.61021,301.26218 350.50865,308.26536 356.1875,308.78125 C 356.34659,308.79542 356.52451,308.80896 356.6875,308.8125 C 356.85014,308.81675 356.99185,308.80252 357.15625,308.78125 C 359.09408,308.54704 361.1304,306.75845 362.125,305.59375 C 362.14095,305.57462 362.18113,305.52727 362.1875,305.5 C 362.20238,305.43303 362.15844,305.35834 362.03125,305.375 C 360.12956,305.842 356.51602,305.31523 355.09375,304.46875 C 355.93068,303.72394 361.4999,298.58008 361.78125,295.125 C 361.96267,292.8991 358.56734,292.81818 358.34375,292.8125 z M 377.53125,293.65625 C 378.60048,293.63069 379.45756,294.06846 379.4375,295.21875 C 379.41412,296.52376 376.9516,299.90167 375.9375,300.5625 C 374.88303,299.74897 373.33135,297.53571 373.34375,296.34375 C 373.35748,294.99396 375.7492,293.69884 377.53125,293.65625 z M 341.8125,294.625 C 338.51262,294.87162 337.60517,295.77137 337.15625,296.28125 C 335.77613,295.42838 333.8619,295.41714 332.75,295.53125 C 330.73953,295.68219 328.79268,296.49084 328.34375,297 C 326.8421,295.87146 325.30928,296.70947 324.8125,296.6875 C 324.8125,296.6875 325.18899,297.58682 325.21875,299.4375 L 325.21875,312.09375 C 325.21875,312.09375 329.16048,311.92624 329.3125,309.71875 L 329.3125,300.375 C 330.95978,299.9204 334.27333,297.52858 334.21875,304.03125 L 334.21875,311.15625 C 334.21875,311.15625 338.31709,310.98909 338.46875,308.78125 L 338.46875,299.5 C 340.42891,298.69744 343.25568,296.71983 343.25,303.15625 L 343.25,310.25 C 343.25,310.25 347.27947,310.01446 347.28125,307.875 C 347.28125,307.875 347.30852,299.07103 347.28125,298.75 C 347.00239,296.04752 344.23398,294.44428 341.8125,294.625 z M 355.125,296.4375 C 356.19422,296.41195 357.05132,296.84931 357.03125,298 C 357.00823,299.3043 354.54499,302.71418 353.53125,303.375 C 352.47678,302.56253 350.9251,300.34822 350.9375,299.15625 C 350.95124,297.80626 353.34296,296.48008 355.125,296.4375 z M 320.5,297.15625 C 317.54489,297.08432 311.44784,297.79224 310.5,302.28125 C 310.14673,303.94943 310.67346,306.54544 312.03125,308.78125 C 313.45601,311.12834 315.77242,313.0829 318.84375,313.15625 C 320.92119,313.20657 323.20124,311.2014 324.28125,309.9375 C 324.29684,309.91872 324.33774,309.87101 324.34375,309.84375 C 324.35828,309.77713 324.34525,309.70281 324.21875,309.71875 C 322.31741,310.1854 318.70425,309.659 317.28125,308.8125 C 317.29507,308.8001 317.29585,308.79437 317.3125,308.78125 C 318.28726,307.90605 323.66041,302.86573 323.9375,299.46875 C 324.11927,297.24285 320.72289,297.16193 320.5,297.15625 z M 317.3125,300.8125 C 318.38166,300.78696 319.23881,301.19319 319.21875,302.34375 C 319.1957,303.64804 316.73249,307.05722 315.71875,307.71875 C 314.66426,306.90521 313.11331,304.69232 313.125,303.5 C 313.13939,302.15 315.53057,300.85506 317.3125,300.8125 z M 303.125,302.15625 C 303.51185,302.13251 303.79628,302.32898 304.03125,303 C 304.33952,304.38012 304.48397,305.23865 304.625,306.6875 C 304.69977,307.45215 304.72732,308.15481 304.75,308.78125 C 304.76417,309.18201 304.78728,309.56326 304.78125,309.90625 C 304.75327,311.50676 303.70321,311.20997 302.9375,311.09375 C 301.56305,310.884 299.38538,310.1309 297.8125,308.78125 C 297.30332,308.34401 296.86609,307.84214 296.53125,307.28125 C 295.59334,305.70979 299.87329,303.30546 302.3125,302.375 C 302.60801,302.26232 302.89289,302.17049 303.125,302.15625 z "
         transform="translate(285.68901,-2.0935518)"
         style="fill:#ffffff;fill-rule:nonzero"
         id="path2639" />
      <polygon
         points="116.46,199.962 122.419,199.822 134.141,198.268 144.18,197.676 150.211,196.248 150.233,197.995 141.517,199.192 129.971,200.308 122.966,201.642 116.46,202.192 116.46,199.962 "
         transform="matrix(3.543307,0,0,3.543307,159.51276,-387.74164)"
         style="fill:#00805f;fill-rule:nonzero"
         id="polygon2645" />
    </g>
  </g>
</svg>
