<svg xmlns="http://www.w3.org/2000/svg" width="135" height="90"><path d="M0 0h135v90.45H0z" fill="#97BE0D"/><path d="M76.246 39.06c.294.1.03.224-.097.29-12.687 3.7-33.987 15.303-41.955 27.908-.524.813-1.036 1.637-1.612 2.415.823 2.683.358 1.133 1.374 4.656-1.425-.757-2.075-.947-3.8-1.627-1.407 1.555-2.83 3.097-4.214 4.674 1.117-4.252.616-2.44 1.468-5.446-3.245-.62-1.838-.406-4.21-.718 1.854-.776 3.542-1.916 5.252-2.953.89-3.144.336-1.266 1.728-5.617.887 2.275.39.95 1.456 3.993 6.105-8.92 15.734-15.24 25.113-20.316 5.97-3.23 12.558-6.456 19.386-7.26h.11zm-26.29 20.63l-1.49 4.667c-1.4.074-2.79.296-4.17.527 1.773 1.465.717.58 3.147 2.68l-1.567 4.908 3.438-3.185c1.027.947 2.004 1.95 2.94 2.986-.635-3.786-.346-2.146-.848-4.923 2.548-2.325 1.427-1.312 3.356-3.045-1.304-.063-2.614-.145-3.92-.074-.453-2.505-.168-.99-.886-4.54zm17.455.633c-.453 1.925-.17.79-.885 3.395-2.15-.867-.917-.408-3.72-1.313 1.69 1.923.673.748 3.024 3.547-.75 2.38-.324 1.05-1.286 3.99 2.263-1.324 1.214-.76 3.13-1.73.96 1.178 1.906 2.367 2.88 3.533-.878-3.38-.475-1.917-1.18-4.394 1.434-.724.53-.286 2.737-1.252-2.72-1.245-1.534-.746-3.533-1.552-.666-2.34-.272-.935-1.166-4.223zm11.92-4.166c-.682 2.232-.41 1.273-.847 2.867-1.794-.7-.693-.258-3.285-1.365.91 1.122 1.778 2.2 2.758 3.286-.424 1.545-.17.604-.755 2.825 2.05-.764 1.22-.43 2.5-.96.98 1.046 2.064 1.992 3.194 2.87-1.195-2.742-.724-1.54-1.478-3.578 1.72-.71.76-.305 2.877-1.225-1.253-.274-2.522-.534-3.712-1.033-.762-2.065-.33-.84-1.25-3.687zm9.965-8.7c-.7 2.535-.37 1.44-.952 3.295-1.252-.166-2.477-.51-3.706-.792 2.233 2.008 1.19 1.118 3.11 2.697-.54 1.72-.214.703-1 3.046 1.676-.782.677-.305 2.98-1.458 2.178 1.532 1.177.88 2.975 1.996-.816-1.57-.342-.596-1.334-2.956 1.05-.617 2.01-1.38 2.892-2.216-2.077.102-.846.077-3.695-.02-.427-1.197-.813-2.407-1.27-3.592zm-53.103-4.378l-1.45 4.757c-1.628.52-3.154 1.323-4.685 2.07 2.14.484.883.175 3.752.99l-1.434 4.7 3.918-3.817c1.44.607 2.192.9 3.463 1.508-.357-1.46-.54-2.216-1.08-3.828l3.165-3.085c-2.36.126-.986-.008-4.104.55-.807-2.18-.31-.89-1.546-3.846zm61.804-9.388L96.763 37.3c-2.446.648-1.336.398-3.32.795 1.988 1.182 1.124.725 2.556 1.44l-1.24 3.617c1.036-.858 2-1.797 2.914-2.784.88.438 1.836.7 2.78.95-.76-2.207-.44-1.247-.973-2.876 2.25-2.418 1.277-1.393 2.9-3.09-1.167.417-2.326.855-3.498 1.26-.527-1.613-.22-.643-.886-2.92zm-54.263-5.22l-1.13 3.358c-1.628.107-3.23.49-4.794.94 2.292.73.94.286 4.046 1.36l-1.095 3.485 3.697-2.425c1.308.538 2.53 1.26 3.685 2.067-1.176-2.582-.626-1.447-1.62-3.422l3.072-2.015c-2.354-.165-.968-.092-4.162-.157-.864-1.72-.312-.648-1.7-3.192zm43.77-8.386c-.817 2.735-.445 1.547-1.095 3.572-1.007.027-1.995-.133-2.984-.276 1.106 1.24.784.888 2.284 2.456-.596 1.856-.23.74-1.124 3.34 1.997-1.606 1.18-.922 2.475-2.025.745.726 1.532 1.41 2.32 2.088l-.71-3.46c1.64-1.395.72-.6 2.742-2.397-2.413.235-1.35.18-3.187.228l-.722-3.524zm-17.14-2.267c-.803 2.7-.47 1.49-1.028 3.614l-3.208-1.163c2.065 2.5 1.177 1.422 2.666 3.23-.445 1.695-.18.648-.768 3.146l2.423-1.14c.925 1.122 1.793 2.29 2.637 3.472-.695-3.245-.36-1.83-.964-4.258l2.733-1.285L71.5 22.22c-.626-2.53-.253-1.062-1.136-4.4zm-16.242.368l-.81 3.363c-3.197-.33-1.808-.216-4.163-.383 2.81 1.923 1.608 1.052 3.637 2.57l-.79 3.278c2.356-1.15 1.316-.638 3.122-1.53 2.663 2.276 1.54 1.253 3.415 3.018-.413-1.35-.81-2.712-1.424-3.99 2.275-1.01 1.258-.59 3.035-1.288-1.36-.506-2.73-1.034-4.182-1.232-.963-2.112-.365-.837-1.837-3.805zm50.626.58c-.772 2.502-.444 1.435-.987 3.202-.914.45-1.854.85-2.828 1.15 1.727.623.965.42 2.257.704-.598 1.94-.276.844-.94 3.297 1.827-2.156 1.01-1.166 2.465-2.96 1.127.25.426.122 2.12.283-.695-1.542-.452-.898-.804-1.903 1.22-1.503.478-.577 2.204-2.796-1.517.74-.612.293-2.71 1.355-.47-1.342-.205-.567-.778-2.332z" fill="#FFF"/></svg>