<svg xmlns="http://www.w3.org/2000/svg" width="64" height="90"><path d="M-.14 75.44h64.283V0H-.14v75.44zM64.14 90H-.142V76.285H64.14V90z" fill="#080705"/><path d="M4.008 62.89H8.7v1.068H5.415v2.396H8.52v1.07H5.415v3.765H4.008v-8.3zM11.093 67.87h2.31l-1.142-3.645h-.024l-1.143 3.644zm.313-4.98h1.697l2.828 8.3h-1.468l-.722-2.25h-2.983l-.722 2.25H8.567l2.84-8.3zM17.037 62.89h1.406v8.3h-1.406v-8.3zM21.837 66.63h.554c.878 0 1.793-.18 1.793-1.408 0-.865-.445-1.335-1.24-1.335h-1.106v2.744zm-1.408-3.74h2.514c1.564 0 2.67.552 2.67 2.176 0 1.31-.793 1.72-1.647 1.925v.025c1.155.253 1.287.963 1.48 1.84l.505 2.334H24.52l-.385-1.793c-.29-1.323-.457-1.77-1.744-1.77h-.553v3.562H20.43v-8.3zM28.6 63.958h-2.084v-1.07h5.572v1.07h-2.083v7.23H28.6v-7.23zM34.626 66.63h.553c.877 0 1.792-.18 1.792-1.408 0-.865-.445-1.335-1.24-1.335h-1.106v2.744zm-1.408-3.74h2.513c1.566 0 2.674.552 2.674 2.176 0 1.31-.794 1.72-1.65 1.925v.025c1.157.253 1.288.963 1.48 1.84l.506 2.334h-1.43l-.387-1.793c-.288-1.323-.456-1.77-1.744-1.77h-.554v3.562h-1.408v-8.3zM41.832 67.87h2.31L43 64.224h-.024l-1.144 3.644zm.313-4.98h1.696l2.828 8.3H45.2l-.72-2.25h-2.985l-.722 2.25h-1.467l2.84-8.3zM49.232 70.192h.648c1.42 0 2.094-.627 2.094-3.177 0-2.02-.35-3.128-2.094-3.128h-.648v6.305zm-1.41-7.303h2.058c2.66 0 3.646 1.154 3.646 4.125 0 3.838-1.924 4.174-3.646 4.174h-2.057v-8.3zM54.91 62.89h4.848v1.068h-3.44v2.396h3.26v1.07h-3.26v2.696h3.537v1.07H54.91v-8.3zM4.024 80.01h1.333l1.6 4.59h.016l1.608-4.59h1.325v5.747h-.892v-4.53h-.017l-1.58 4.53h-.902l-1.583-4.53h-.015v4.53h-.89V80.01zM12.262 83.46h1.6l-.793-2.525h-.017l-.79 2.524zm.217-3.45h1.173l1.958 5.747h-1.016l-.5-1.557H12.03l-.5 1.557h-1.015l1.966-5.747z" fill="#FFF"/><path d="M17.452 82.725l-1.624-2.715h1.066L18 81.8l1.076-1.79h1.083l-1.617 2.715 1.85 3.032h-1.1L18 83.642l-1.29 2.115h-1.108l1.85-3.032zM22.84 80.01h.976v2.38h2.066v-2.38h.973v5.747h-.973v-2.624h-2.066v2.624h-.975V80.01zM29.22 83.46h1.6l-.79-2.525h-.017l-.792 2.524zm.218-3.45h1.175l1.957 5.747h-1.016l-.5-1.557h-2.066l-.5 1.557h-1.016l1.966-5.747zM32.263 80.01h1.015l1.5 4.623h.017l1.524-4.623h1.017l-1.976 5.747h-1.173l-1.924-5.747zM37.804 80.01h3.355v.74h-2.383v1.658h2.257v.742h-2.257v1.866h2.448v.74h-3.42V80.01zM42.135 80.01h.974v5.006h2.257v.74h-3.232V80.01zM47.116 83.46h1.598l-.79-2.525h-.017l-.79 2.524zm.216-3.45h1.176l1.956 5.747H49.45l-.502-1.557h-2.065l-.5 1.557h-1.016l1.965-5.747z" fill="#FFF"/><path d="M52.204 83.46h1.6l-.792-2.525h-.015l-.793 2.524zm.218-3.45h1.174l1.958 5.747h-1.016l-.5-1.557H51.97l-.498 1.557h-1.017l1.967-5.747zM57.12 82.6h.382c.61 0 1.24-.125 1.24-.975 0-.6-.305-.924-.856-.924h-.765v1.9zm-.974-2.59h1.74c1.084 0 1.85.382 1.85 1.507 0 .908-.55 1.19-1.142 1.332v.016c.8.175.892.667 1.025 1.275l.348 1.617h-.99l-.266-1.24c-.2-.916-.318-1.227-1.21-1.227h-.38v2.467h-.976V80.01z" fill="#FFF"/><path d="M44.97 23.57c-.2 1.845-1.132 3.53-2.63 4.737-1.67 1.343-3.916 1.977-6.164 1.733-2.23-.24-4.28-1.336-5.626-3.008-1.21-1.5-1.766-3.34-1.57-5.185.2-1.867 1.146-3.57 2.67-4.796 1.672-1.347 3.905-1.983 6.123-1.746 2.217.244 4.26 1.337 5.608 3.01 1.226 1.52 1.788 3.385 1.59 5.256M31.87 6.102c-4.837 0-9.588 1.374-13.762 3.956-.787 1.623-1.696 4.082-1.696 6.854l.018.667c.244 4.756 3.363 8.53 9.008 10.908 3.1 1.31 6.268 2.334 9.327 3.328l.178.054c8.945 2.9 17.646 5.78 19.11 14.604 2.71-4.215 4.114-9.033 4.114-14.07C58.167 17.9 46.37 6.1 31.87 6.1" fill="#4CC5E9"/><path d="M43.718 23.422c-.16 1.507-.928 2.882-2.157 3.873-1.406 1.133-3.307 1.666-5.223 1.46-3.698-.4-6.414-3.443-6.055-6.78.362-3.377 3.673-5.804 7.378-5.405 3.704.4 6.423 3.472 6.058 6.852m-.782-4.745c-1.25-1.552-3.146-2.567-5.203-2.788-2.06-.222-4.127.365-5.678 1.613-1.394 1.127-2.266 2.687-2.452 4.397-.18 1.684.33 3.368 1.443 4.75 1.247 1.547 3.15 2.56 5.22 2.785 2.087.225 4.17-.36 5.718-1.603 1.374-1.107 2.228-2.65 2.408-4.34.187-1.71-.332-3.42-1.456-4.815" fill="#4CC5E9"/><path d="M34.557 32.328c-3.075-.994-6.25-2.024-9.372-3.34-5.848-2.465-9.075-6.396-9.33-11.372l-.02-.68c0-2.953.97-5.535 1.818-7.248 4.273-2.68 9.167-4.103 14.168-4.103 14.793 0 26.827 12.034 26.827 26.83 0 5.58-1.726 10.945-4.964 15.48-.992-9.744-9.83-12.55-19.126-15.567m24.844.086C59.4 17.202 47.03 4.83 31.82 4.83c-5.428 0-10.478 1.6-14.75 4.315-1.066 2.094-1.99 4.843-1.99 7.79 0 .238.007.48.017.722.275 5.28 3.66 9.44 9.793 12.026 3.14 1.324 6.34 2.362 9.433 3.364 10.002 3.243 18.674 6.057 18.674 16.68l-.003.333C56.99 45.274 59.4 39.12 59.4 32.414" fill="#4CC5E9"/><path d="M5.473 32.32c.006-4.62 1.354-9.456 3.782-13.52-.05.575-.182 1.524-.183 2.086-.006 4.908 1.742 9.253 5.203 12.915l.693.73c5.293 5.588 9.868 10.416 9.86 16.69-.003 1.815-.487 3.79-1.37 5.968-10.62-3.572-18-13.703-17.985-24.867" fill="#B3DC25"/><path d="M23.857 57.956C12.727 54.476 4.993 44.1 4.993 32.414c0-5.598 1.826-11.065 5.056-15.59-.244 1.218-.417 2.686-.417 4.148 0 4.77 1.707 8.99 5.075 12.55l.694.725c5.38 5.663 10.025 10.555 10.025 17.04 0 2.12-.56 4.318-1.57 6.67m-7.96-24.33l-.694-.73c-3.78-3.984-4.87-8.333-4.87-12.025 0-3.24.467-5.288.656-6.646-4.23 4.847-6.808 11.167-6.808 18.09 0 12.6 8.503 23.228 20.07 26.515 1.303-2.804 1.874-5.324 1.874-7.643 0-6.786-4.843-11.882-10.23-17.56m-4.907-19.4c.255-.295-.266.28 0 0" fill="#B3DC25"/></svg>