<svg xmlns="http://www.w3.org/2000/svg" width="87" height="90"><defs><radialGradient id="a" gradientUnits="userSpaceOnUse" cx="83.551" cy="71.151" r="35.631" gradientTransform="matrix(1 0 0 1 -40.92 -33.31)"><stop offset="0" stop-color="#FFF"/><stop offset="0" stop-color="#FFFCFB"/><stop offset="0" stop-color="#FEF7F4"/><stop offset="0" stop-color="#FEF6F2"/><stop offset=".085" stop-color="#FEF3E2"/><stop offset=".393" stop-color="#FEE8AB"/><stop offset=".658" stop-color="#FFE083"/><stop offset=".868" stop-color="#FFDB6B"/><stop offset=".997" stop-color="#FFD962"/></radialGradient></defs><path d="M13.723 30.94C4.8 32.924.28 35.63.28 39.013c0 3.377 4.52 6.09 13.443 8.07 7.973 1.762 18.55 2.736 29.774 2.736 11.23 0 21.807-.975 29.773-2.738 8.93-1.98 13.45-4.693 13.45-8.07 0-3.38-4.52-6.088-13.45-8.072-7.966-1.765-18.544-2.737-29.773-2.737-11.225 0-21.8.972-29.774 2.737z" fill="#FFF"/><path d="M85.316 39.013c0 5.112-18.73 9.262-41.82 9.262-23.093 0-41.812-4.15-41.812-9.262 0-5.117 18.72-9.258 41.813-9.258 23.09 0 41.82 4.14 41.82 9.258z" fill="#653B1C"/><path d="M4.93 38.57c0 21.274 17.303 38.572 38.573 38.572 21.262 0 38.568-17.298 38.568-38.572C82.07 17.296 64.766 0 43.504 0 22.233 0 4.93 17.296 4.93 38.57z" fill="#FFF"/><path d="M6.215 38.573c0 20.557 16.725 37.284 37.29 37.284 20.556 0 37.28-16.726 37.28-37.284 0-20.562-16.724-37.287-37.28-37.287-20.565 0-37.29 16.726-37.29 37.287z" fill="#653B1C"/><path d="M79.5 38.572c0 19.882-16.117 36-35.996 36-19.76 0-36.003-15.97-36.003-36 0-19.885 16.118-36 36.004-36 19.88 0 35.995 16.114 35.995 36z" fill="url(#a)"/><path d="M37.036 11.485c-.036-1.37-1.116-2.693-2.575-3.13-1.994-.602-5.27.763-5.806 1.143-.106-.198-.24-.375-.46-.49-.048-.022-.106-.022-.153-.04 0-.07.006-.118.006-.195 0-.447-.03-.995-.112-1.7-.294-2.312-2.16-4.33-3.31-4.71-.81-.264-2.273-.308-2.97.44-.247.27-.376.608-.376.96 0 .188.035.373.1.557.006.003.1.252.1.252.16.403.277.698.277 1.028 0 .228-.06.484-.195.8-1.22 2.82-1.553 4.25-1.553 5.036 0 .58.184.81.32.986.017.018.04.028.053.048-.543.584-.885 1.37-.927 2.315-.007.073-.007.144-.007.22 0 1.418.614 2.743 1.535 3.276.65.373 1.39.343 2.032-.092.52-.35 1.103-.768 1.634-1.177.018.238.018.482.048.717.124 1.026.79 1.836 1.83 2.22 1.24.46 2.726.19 3.617-.654.28-.258.634-.728.782-1.405.07.016.14.04.218.04.767.024 1.463-.588 2.318-2.047.284-.46 1.105-1.44 1.405-1.6 1.942-.706 2.178-2.093 2.178-2.727 0-.023-.004-.046-.004-.068z" fill="#FFF"/><path d="M34.13 9.303c-2.03-.583-4.76.873-5.4 1.317-.206.14-.573.487-.967.883.064-.16.11-.287.11-.287.144-.505.096-1.826-.423-1.182-.213.268-.502.846-.784 1.484.117-.41.2-.763.24-.963.13-.835.307-1.43.084-3.298-.243-1.854-1.795-3.526-2.62-3.795-.845-.27-2.337-.134-2.03.654.306.802.708 1.516.154 2.76-.543 1.255-2.202 5.197-1.033 4.977.296-.05.685-.082 1.103-.094.81-.023 1.458-.02.2.418-.294.1-.612.237-.984.393-2.432 1.1-1 5.767.76 4.61 1.594-1.054 2.962-2.188 3.145-2.442-.09.69-.14 1.608-.01 2.67.288 2.34 5.104 2.034 4.224-1.025-.072-.268-.148-.528-.225-.762-.455-1.377.118-.77.425-.286.29.425.525.83.685 1.15.383.758 1.128-.115 1.8-1.247.265-.416 1.305-1.754 1.864-1.96 2.602-.93 1.534-3.435-.32-3.974z" fill="#EC6608"/><path d="M32.26 40.648c-.147-.988-.283-1.905-1.127-2.23-.856-.328-1.652.342-2.077.7-.223.185-1.193.432-1.965.627-1.5.382-3.575.907-5.623 2.03.03-.457.058-.915.058-1.397 0-3.212-.59-6.834-1.58-8.973-1.482-3.17-2.462-8.974-2.485-9.993-.036-1.183-.555-1.986-1.352-2.104-.443-.065-1.25.04-1.747 1.458-.436.99-.96 1.905-1.48 2.59-1.02 1.322-2.16 2.877-3.122 7.337-1.128 5.264.394 12.007 2.472 15.357.136.223.332.383.585.45l2.875.79c.183.05.366.034.542-.02.13.122.284.22.46.262 1.665.396 3.44.758 5.283 1.074.248.044.495-.004.707-.13l.302-.184c.147.31.412.553.76.603 1.38.216 2.816.41 4.255.574.27.025.536-.053.748-.215 2.775-2.155 3.99-5.13 3.512-8.607zm-18.27-9.332c0 .012 0 .03-.006.042 0 0 .005-.03.005-.042z" fill="#FFF"/><path d="M15.996 46.272c-.956-4.143-1.89-10.07-.927-14.914-.207 5.153 1.06 10.97 1.924 15.148 1.663.396 3.422.75 5.263 1.066 1.77-1.06 3.69-2.156 5.247-3.905-.99 1.678-2.236 3.072-3.482 4.193 1.376.207 2.79.402 4.25.568 2.1-1.622 3.64-4.05 3.14-7.637-.22-1.435-.32-1.87-1.522-.87-1.093.926-5.784.96-9.62 3.938.73-3.465.124-9.205-1.185-12.01-1.572-3.327-2.58-9.297-2.603-10.41-.036-1.106-.643-1.66-1.11-.266-1.61 3.956-3.23 3.612-4.527 9.372-1.103 4.88.313 11.766 2.296 14.948.914.273 1.864.53 2.856.78z" fill="#52AE32"/><path d="M28.08 66.028v18.996c0 2.324 2.254 4.384 5.024 4.59 3.446.256 6.945.386 10.4.386s6.956-.13 10.41-.386c2.77-.206 5.023-2.265 5.023-4.59V66.027H28.08z" fill="#FFF"/><path d="M57.65 66.44v18.59c0 1.638-1.714 3.147-3.83 3.305-6.875.508-13.76.508-20.623 0-2.113-.158-3.83-1.667-3.83-3.306V66.44H57.65z" fill="#653B1C"/><path d="M56.36 66.942v17.896c0 .953-1.14 2.088-2.792 2.21-6.677.508-13.454.508-20.13 0-1.64-.122-2.792-1.257-2.792-2.21V66.942H56.36z" fill="#E30613"/><g fill="#FFF"><path d="M23.177 29.655c.69.135 1.116.798.94 1.462-.18.68-.886 1.112-1.593.975-.71-.14-1.123-.793-.946-1.476.177-.664.885-1.095 1.6-.96z"/><path d="M20.788 20.208c-1.134.476-1.718 2.386-2.02 4.014-.897-.316-2.1-.584-3.062-.17-.632.273-1.076.78-1.282 1.48-.117.395-.177.776-.177 1.145 0 1.497.904 2.742 1.788 3.75-1.044.56-1.906 1.486-2.135 1.753-.16.182-.243.41-.243.643 0 .12.024.236.065.354.036.09.903 2.27 2.844 3.275.98.508 1.887.528 2.596.417.137 1.518.65 3.8 2.556 4.007 1.133.122 1.89-.63 2.48-1.587.902.904 2.194 1.197 2.98 1.197.23 0 .454-.082.625-.24.206-.19.91-.97.91-2.852 0-.72-.112-1.604-.383-2.676 1.203.03 2.154-.213 2.825-.743.602-.474.956-1.162 1.027-1.988.006-.07.006-.14.006-.207 0-1.783-2.066-2.85-3.434-3.372.36-.882.773-2.143.773-3.285 0-.488-.077-.954-.266-1.356-.305-.65-.854-1.07-1.586-1.21-1.358-.27-2.508.18-3.382.772-.076-1.114-.348-2.3-1.127-2.926-.443-.36-1.215-.682-2.377-.198zm-6.363 5.327v-.005.005z"/></g><path d="M15.4 26.005c-.644 2.072 1.31 3.714 2.454 4.988-1.316-.28-3.175 1.8-3.175 1.8s.738 1.86 2.366 2.684c1.622.815 3.04 0 3.04 0s-.15 3.992 1.74 4.186c1.034.11 1.653-1.12 2.337-2.543.39 2.166 2.975 2.166 2.975 2.166s1.416-1.27-.153-5.713c2.42.415 4.042-.082 4.184-1.665.16-1.798-3.755-2.815-3.755-2.815s2.503-4.844.036-5.32c-2.466-.475-4.19 2.092-4.19 2.092s.84-5.615-2.1-4.416c-1.144.466-1.623 4.343-1.623 4.343s-3.512-1.852-4.137.212zm7.772 3.72c.684.135 1.103.775.932 1.417-.177.653-.88 1.075-1.576.94-.702-.133-1.115-.766-.938-1.427.177-.64.88-1.055 1.582-.93z" fill="#3973B9"/><path d="M51.382 75.236c-1.38.12-3.585.186-5.368.226v-5.18c-1.945.042-3.064.042-5.006 0v5.18c-1.8-.04-3.992-.105-5.385-.226v4.71c1.393.107 3.585.173 5.385.218v4.97c1.942.043 3.06.043 5.006 0v-4.97c1.783-.046 3.988-.11 5.368-.218v-4.71zM56.935 13.876l.12.01.16.042c3.572 1.02 6.01 3.29 7.078 6.8.504-1.258 1.278-2.33 2.167-3.336.388-.414.793-.477 1.065-.457.208.015.603.104.91.522l.036.05c1.62 2.597 2.826 5.72 2.175 8.824.586-.503.286-.267.9-.708.243-.165.52-.24.806-.22.486.036.903.357 1.064.817.943 2.897 1.41 6.22.082 9.09 1.773-.792 1.038-.518 2.17-.912.192-.068.4-.1.602-.084.562.04 1.12.486 1.12 1.257.278 9.203-6.295 11.543-6.575 11.638l-.932.32-.085-.198-.91.136c-.925.136-1.807.174-2.622.114-5.552-.41-7.58-5.355-7.627-9.464.012-.483.212-.755.38-.905l.367-.213c-1.075-1.497-1.75-3.18-2.092-4.977-.092-.526.127-.875.267-1.036.14-.16.458-.43 1.008-.415h.03l.028.002.026.004c-1.83-1.79-2.286-4.415-2.47-6.847-.004-.35.137-.68.387-.914.255-.238.6-.36.95-.334l.197.03.848.182c-2.108-1.88-3.006-4.866-2.947-7.634.054-.73.633-1.234 1.32-1.184z" fill="#FFF"/><g fill="#B17F4A"><path d="M58.537 31.635c-.17-.005-.215.06-.19.202.245 1.405 1.952 9.035 9.88 6.615 0 0-1.344-6.135-9.69-6.817z"/><path d="M57.457 23.55c-.068-.018-.21.026-.206.164.02 1.404.504 9.208 8.7 8.05 0 .002-.366-6.257-8.493-8.215zM56.902 14.948c-.03-.01-.2-.046-.215.156-.037.898-.068 7.405 6.656 9 0 0 1.64-6.7-6.44-9.156z"/><path d="M67.573 18.087c-.088-.12-.18-.125-.325.03-.873.935-6.01 6.92.817 11.74 0 0 4.05-4.79-.492-11.77z"/><path d="M72.404 26.568c-.033-.09-.137-.146-.255-.065-1.184.8-7.454 5.507-1.966 11.694 0 0 4.977-3.73 2.22-11.63zM59.917 38.008c-.152-.034-.206-.046-.21.096.014 1.205.422 9.583 9.02 8.307 0 0-.42-6.445-8.81-8.402z"/><path d="M76.322 35.584c.004-.2-.086-.254-.336-.166-1.648.504-8.843 3.19-5.516 10.782 0 0 6.117-2.078 5.852-10.616z"/></g><path d="M43.503 68.03h.158c21.636 0 38.315-6.312 42.117-9.474.335-.276.53-.683.54-1.116l.404-18.456-1.4-.083-.44 18.63c-3.43 2.857-20.08 8.966-41.26 8.966h-.247c-21.182 0-37.823-6.11-41.252-8.966L1.68 38.9l-1.4.084L.68 57.44c.013.432.208.84.543 1.116 3.796 3.16 20.48 9.472 42.11 9.472h.17z" fill="#FFF"/><path d="M37.81 39.056c-.134 1.976-.24 3.244-.334 4.816-.092 1.575-.084 2.778-.088 4.165-.004 1.47-.043 2.1-.19 4.002-.17 2.173-.18 3.086-.18 4.974 0 1.887.367 2.08.16 2.37-.208.29-.506.798-.32 1.208.182.415.388.85.503 1.26.116.412.348 1.5 1.702 1.62 1.355.123 2.802.17 2.78-.58-.023-.75-.207-.97-.85-1.743 0 0 .39-.51.37-1.09 0 0 .64-.144.618-.628-.022-.484-.068-.533.16-.872.23-.338.183-.954-.07-2.286-.252-1.33-.24-3.226-.367-4.368.06-1.33.06-2.048.195-3.338.08-1.29.24-2.422.564-3.535.32-1.112 1.447-4.356 1.447-4.356s.152.677.484 1.773c.212 1.083.46 2.074.433 2.366-.022.29-.022 1.546.14 2.685.16 1.14.023 1.938.207 3.605.183 1.67.504 4.596.573 5.348.07.75-.298 1.355-.344 1.792-.046.434.114 1.16.275 1.403 0 0 .07.99.07 1.356 0 .36.116.72.69.772.782.075 1.287.097 2.414.146.967.042 3.17.218 3.95-.22.782-.434.507-1.062-.16-1.23 0 0-1.4-.413-1.978-.654 0 0 .393-.506.232-1.45-.16-.945-.208-1.14-.115-1.77.094-.628.14-.723-.184-1.522-.323-.8-.46-3.303-.565-4.974-.1-1.667.14-6.897.28-8.892.138-1.996.182-5.56.068-7.403l-.035-2.067c1.127-.167 1.34-1.877 1.585-2.512.32-.83 1.67-4.005 1.708-4.883.065-1.454-.943-3.43-1.55-4.883-.586-1.413-.86-2.766-1.698-3.397-.918-.693-1.724-1.097-1.918-1.253-.114-.09-.177-.09-.44-.758-.34-.857-1.043-1.032-1.043-1.032l.07-1.406c.296-.07.528-.435.528-.435.528-.942-.116-1.448-.116-1.448.115-1.6-.6-2.512-1.218-3.075-.976-.89-2.873-.12-2.873-.12-.76.34-1.013.87-1.244 1.694-.228.823.39 2.468.39 2.468s-.25.073-.204.46c.044.386.227 1.136.802 1.21l.116.63s-.4.09-.598.482c-.193.37-1.555.29-2.512.516-.99.178-1.41.568-3.087 2.547-.423.505-2.535 2.89-3.344 3.992-.378.513-.547.972-.463 2.028.036.456.26.94.565 1.625.147.333 1.133 2.48 1.133 2.48s1.17 2.842 1.85 3.416c.213.18.6.71 1.643.605 0 0 .104.176.15.247l-.768 8.12z" fill="#FFF"/><path d="M37.81 39.056c-.134 1.976-.24 3.244-.334 4.816-.092 1.575-.084 2.778-.088 4.165-.004 1.47-.043 2.1-.19 4.002-.17 2.173-.18 3.086-.18 4.974 0 1.887.367 2.08.16 2.37-.208.29-.506.798-.32 1.208.182.415.388.85.503 1.26.116.412.348 1.5 1.702 1.62 1.355.123 2.802.17 2.78-.58-.023-.75-.207-.97-.85-1.743 0 0 .39-.51.37-1.09 0 0 .64-.144.618-.628-.022-.484-.068-.533.16-.872.23-.338.183-.954-.07-2.286-.252-1.33-.24-3.226-.367-4.368.06-1.33.06-2.048.195-3.338.08-1.29.24-2.422.564-3.535.32-1.112 1.447-4.356 1.447-4.356s.152.677.484 1.773c.212 1.083.46 2.074.433 2.366-.022.29-.022 1.546.14 2.685.16 1.14.023 1.938.207 3.605.183 1.67.504 4.596.573 5.348.07.75-.298 1.355-.344 1.792-.046.434.114 1.16.275 1.403 0 0 .07.99.07 1.356 0 .36.116.72.69.772.782.075 1.287.097 2.414.146.967.042 3.17.218 3.95-.22.782-.434.507-1.062-.16-1.23 0 0-1.4-.413-1.978-.654 0 0 .393-.506.232-1.45-.16-.945-.208-1.14-.115-1.77.094-.628.14-.723-.184-1.522-.323-.8-.46-3.303-.565-4.974-.1-1.667.14-6.897.28-8.892.138-1.996.182-5.56.068-7.403l-.035-2.067c1.127-.167 1.34-1.877 1.585-2.512.32-.83 1.67-4.005 1.708-4.883.065-1.454-.943-3.43-1.55-4.883-.586-1.413-.86-2.766-1.698-3.397-.918-.693-1.724-1.097-1.918-1.253-.114-.09-.177-.09-.44-.758-.34-.857-1.043-1.032-1.043-1.032l.07-1.406c.296-.07.528-.435.528-.435.528-.942-.116-1.448-.116-1.448.115-1.6-.6-2.512-1.218-3.075-.976-.89-2.873-.12-2.873-.12-.76.34-1.013.87-1.244 1.694-.228.823.39 2.468.39 2.468s-.25.073-.204.46c.044.386.227 1.136.802 1.21l.116.63s-.4.09-.598.482c-.193.37-1.555.29-2.512.516-.99.178-1.41.568-3.087 2.547-.423.505-2.535 2.89-3.344 3.992-.378.513-.547.972-.463 2.028.036.456.26.94.565 1.625.147.333 1.133 2.48 1.133 2.48s1.17 2.842 1.85 3.416c.213.18.6.71 1.643.605 0 0 .104.176.15.247l-.768 8.12z" stroke="#FFF" stroke-width="2.5" fill="none"/><path d="M37.81 39.056c-.134 1.976-.24 3.244-.334 4.816-.092 1.575-.084 2.778-.088 4.165-.004 1.47-.043 2.1-.19 4.002-.17 2.173-.18 3.086-.18 4.974 0 1.887.367 2.08.16 2.37-.208.29-.506.798-.32 1.208.182.415.388.85.503 1.26.116.412.348 1.5 1.702 1.62 1.355.123 2.802.17 2.78-.58-.023-.75-.207-.97-.85-1.743 0 0 .39-.51.37-1.09 0 0 .64-.144.618-.628-.022-.484-.068-.533.16-.872.23-.338.183-.954-.07-2.286-.252-1.33-.24-3.226-.367-4.368.06-1.33.06-2.048.195-3.338.08-1.29.24-2.422.564-3.535.32-1.112 1.447-4.356 1.447-4.356s.152.677.484 1.773c.212 1.083.46 2.074.433 2.366-.022.29-.022 1.546.14 2.685.16 1.14.023 1.938.207 3.605.183 1.67.504 4.596.573 5.348.07.75-.298 1.355-.344 1.792-.046.434.114 1.16.275 1.403 0 0 .07.99.07 1.356 0 .36.116.72.69.772.782.075 1.287.097 2.414.146.967.042 3.17.218 3.95-.22.782-.434.507-1.062-.16-1.23 0 0-1.4-.413-1.978-.654 0 0 .393-.506.232-1.45-.16-.945-.208-1.14-.115-1.77.094-.628.14-.723-.184-1.522-.323-.8-.46-3.303-.565-4.974-.1-1.667.14-6.897.28-8.892.138-1.996.182-5.56.068-7.403l-.035-2.067c1.127-.167 1.34-1.877 1.585-2.512.32-.83 1.67-4.005 1.708-4.883.065-1.454-.943-3.43-1.55-4.883-.586-1.413-.86-2.766-1.698-3.397-.918-.693-1.724-1.097-1.918-1.253-.114-.09-.177-.09-.44-.758-.34-.857-1.043-1.032-1.043-1.032l.07-1.406c.296-.07.528-.435.528-.435.528-.942-.116-1.448-.116-1.448.115-1.6-.6-2.512-1.218-3.075-.976-.89-2.873-.12-2.873-.12-.76.34-1.013.87-1.244 1.694-.228.823.39 2.468.39 2.468s-.25.073-.204.46c.044.386.227 1.136.802 1.21l.116.63s-.4.09-.598.482c-.193.37-1.555.29-2.512.516-.99.178-1.41.568-3.087 2.547-.423.505-2.535 2.89-3.344 3.992-.378.513-.547.972-.463 2.028.036.456.26.94.565 1.625.147.333 1.133 2.48 1.133 2.48s1.17 2.842 1.85 3.416c.213.18.6.71 1.643.605 0 0 .104.176.15.247l-.768 8.12z" fill="#653B1C"/><path d="M39.56 22.858s.062 2.153.062 3.27c-.3-.54-1.343-2.17-1.685-3.136-.035-.1.02-.124.05-.16.165-.202.777-.815 1.173-1.174.24-.204.288-.17.356-.167.002.092.045 1.368.045 1.368z" fill="#FFF"/><path d="M43.626 48.417c-.04 0-.092-.007-.13-.007-.035 0-.088.007-.122.007-19.54 0-36.083-3.976-41.69-9.453l.438 18.567c3.428 2.858 20.07 8.967 41.252 8.967h.253c21.174 0 37.823-6.11 41.25-8.966l.44-18.566c-5.615 5.477-22.158 9.453-41.69 9.453z" fill="#653B1C"/><g fill="#FFF"><path d="M48.727 54.535c-.368-.112-.86-.256-1.465-.234-.76.03-1.238.38-1.24.863 0 .413.332.704 1.086 1.18.162.103.323.207.485.308 1.265.777 2.108 1.41 2.106 2.618-.002 1.244-1.044 2.582-3.227 2.652-1.168.033-1.94-.3-2.412-.518.193-.37.383-.752.58-1.128.62.277 1.14.45 1.75.433.863-.028 1.198-.5 1.198-.914 0-.507-.44-.785-1.194-1.28-.157-.1-.308-.202-.464-.302-1.186-.774-2.013-1.487-2.01-2.64 0-1.223 1.16-2.408 3.237-2.48.743-.028 1.376.072 2.058.266-.16.39-.324.78-.488 1.18zM53.027 52.995l-.007 5.258c-.002 1.82.796 2.065 1.428 2.012.644-.053 1.48-.43 1.483-2.278l.008-5.237c.463-.06.933-.127 1.4-.192-.005 1.89-.007 3.784-.01 5.678-.002 1.673-.838 3.182-3.235 3.38-1.96.154-3.145-1.01-3.143-3.048l.008-5.457c.687-.03 1.382-.072 2.07-.115zM61.26 51.95c-.006 2.93-.01 5.85-.014 8.778-.682.1-1.37.192-2.06.277.006-2.887.01-5.772.014-8.65.688-.13 1.376-.26 2.06-.405zM67.14 52.432c-.336-.048-.773-.115-1.316.007-.684.155-1.113.594-1.114 1.083 0 .424.297.672.977 1.037.144.074.29.157.436.235 1.13.59 1.886 1.105 1.883 2.35 0 1.27-.927 2.81-2.893 3.244-1.05.233-1.745.023-2.17-.117l.522-1.266c.554.177 1.024.267 1.573.15.777-.174 1.08-.712 1.08-1.14 0-.514-.403-.728-1.076-1.11l-.415-.235c-1.068-.6-1.817-1.188-1.816-2.377.003-1.25 1.053-2.668 2.913-3.09.672-.156 1.238-.156 1.854-.064-.145.433-.292.866-.437 1.292zM72.964 51.142c-.315-.046-.724-.11-1.24.026-.644.16-1.047.6-1.048 1.083 0 .423.28.66.917 1.01.14.073.28.147.415.22 1.064.565 1.776 1.066 1.774 2.287-.008 1.254-.875 2.785-2.723 3.242-.998.246-1.648.047-2.048-.08.16-.418.323-.84.492-1.257.527.168.968.245 1.478.12.733-.18 1.02-.713 1.02-1.132.002-.513-.374-.714-1.016-1.083-.13-.076-.26-.15-.388-.22-1.007-.573-1.71-1.145-1.708-2.31.002-1.24.987-2.653 2.746-3.095.627-.16 1.165-.17 1.74-.09-.142.43-.277.855-.412 1.28zM79.467 47.543v1.262c-.876.34-1.75.658-2.626.973 0 .76 0 1.518-.002 2.283.81-.286 1.622-.587 2.428-.892v1.188c-.807.306-1.62.606-2.43.894 0 .86 0 1.723-.002 2.59.887-.315 1.778-.644 2.663-.984 0 .424 0 .856-.002 1.278-1.546.597-3.1 1.155-4.664 1.667l.014-8.605c1.55-.513 3.09-1.06 4.623-1.652zM13.68 49.4c-.007.4-.008.803-.008 1.213-.705-.195-1.44-.407-2.135-.61-.02 2.432.008 4.882-.013 7.316-.67-.202-1.34-.413-2.012-.626.014-2.437-.01-4.89.01-7.323-.694-.265-1.337-.526-2.025-.81.007-.4.007-.805.013-1.21 2.037.75 4.094 1.433 6.17 2.05zM19.435 51.017v1.228c-.93-.233-1.854-.477-2.777-.737 0 .743 0 1.48-.003 2.217.85.24 1.707.473 2.562.685v1.157c-.857-.222-1.713-.45-2.563-.687 0 .844-.003 1.682-.003 2.517.936.266 1.87.518 2.815.75 0 .415 0 .83-.002 1.244-1.645-.41-3.277-.86-4.9-1.355.005-2.79.01-5.576.012-8.368 1.61.49 3.232.94 4.86 1.35zM23.764 51.85c1.135.206 3.038.652 3.035 2.524-.003 1.61-1.363 1.878-1.79 1.96.854 1.5 1.703 2.992 2.564 4.478-.773-.105-1.545-.222-2.317-.347-.647-1.292-1.29-2.598-1.936-3.904-.123-.017-.25-.043-.374-.065-.002 1.19-.003 2.383-.006 3.574-.687-.127-1.37-.26-2.046-.402l.012-8.37c.95.2 1.9.38 2.858.552zm-.813.995c0 .883 0 1.773-.002 2.66.15.03.303.056.46.085.487.09 1.264.103 1.266-1.204 0-1.29-.787-1.37-1.262-1.457l-.46-.085zM31.57 52.683c1.14.106 3.06.4 3.056 2.318-.002 1.656-1.374 2.05-1.8 2.165.86 1.47 1.715 2.924 2.58 4.364-.778-.04-1.555-.09-2.334-.145-.653-1.272-1.3-2.55-1.948-3.832l-.386-.037-.005 3.667c-.694-.066-1.38-.143-2.07-.22l.01-8.582c.965.118 1.93.218 2.896.303zm-.825 1.088c0 .914-.003 1.824-.004 2.736.158.013.31.03.466.045.492.046 1.275-.004 1.278-1.35 0-1.322-.8-1.338-1.274-1.38-.158-.02-.308-.032-.465-.05zM40.29 53.206c1.067 2.89 2.13 5.762 3.196 8.617-.744 0-1.494-.01-2.238-.026-.234-.698-.47-1.404-.703-2.108-.828-.022-1.656-.056-2.484-.106-.23.69-.46 1.37-.696 2.048-.5-.03-1-.064-1.505-.103 1.05-2.773 2.093-5.563 3.144-8.373.426.018.862.036 1.287.05zm-2.003 5.29c.587.027 1.176.056 1.763.076-.284-.904-.575-1.807-.864-2.708-.3.88-.6 1.754-.9 2.63z"/></g><path d="M83.544 40.722c-.06-.08-.172-.105-.26-.058-6.267 3.56-22.123 7.16-39.733 7.166h-.105c-17.605-.005-33.463-3.605-39.73-7.166-.09-.047-.2-.023-.26.058-.06.09-.036.2.04.26 6.175 4.8 22.362 8.025 40.002 8.025h.006c17.635 0 33.822-3.224 40-8.024.075-.06.094-.172.04-.26z" fill="#FFF"/></svg>