<svg xmlns="http://www.w3.org/2000/svg" width="90" height="90"><path d="M90 45c0 24.853-20.147 45-45 45S0 69.853 0 45 20.147 0 45 0s45 20.147 45 45z" fill="#723904"/><path d="M85.14 45c0 22.17-17.97 40.14-40.14 40.14S4.86 67.17 4.86 45 22.83 4.86 45 4.86 85.14 22.83 85.14 45z" fill="#FFF"/><path d="M83.916 45c0 21.493-17.423 38.916-38.916 38.916S6.084 66.493 6.084 45h77.832zM50.873 26.392c.718 0 1.117.332 1.117 2.39v6.176c0 1.533-.055 2.37-1.043 2.37H49.58V26.392h1.293zm.293-3.172h-5.568V40.5h5.886c2.315 0 4.487-1.323 4.487-3.745v-9.757c0-3.252-3.276-3.778-4.804-3.778zm-25.336 0h-4.05l.006 12.963s.102 4.317 5.36 4.317c5.29 0 5.277-4.323 5.277-4.323V23.23h-3.95v12.936s-.18 1.22-1.405 1.22c-1.227 0-1.238-1.23-1.238-1.23V23.22zm13.022 0c-1.463 0-2.92.633-3.687 1.47-.833.905-1.245 1.808-1.245 3.36 0 1.22.128 3.063 3.277 4.832 1.928 1.083 3.055 1.89 3.055 3.035 0 1.146-.637 1.548-1.528 1.548-1.193 0-1.344-1.273-1.344-1.424 0-.17-.024-1.424-.024-1.424H33.57s-.7 5.884 5.06 5.884c5.604 0 5.28-4.305 5.28-5.203 0-2.88-1.4-3.828-3.626-5.078-1.827-1.028-2.737-1.643-2.737-2.665 0-1.02.69-1.3 1.24-1.3 1.49 0 1.475 1.394 1.475 1.54 0 .13.022.813-.01.782h3.66s.318-5.357-5.06-5.357zm24.44 3.208l.99 7.797h-2.115l1.125-7.797zm2.25-3.208h-4.635L57.262 40.5h3.848l.63-3.208h2.992l.473 3.16h4.072L65.542 23.22z" fill="#008356"/><path d="M49.592 83.443L79.92 47.45 52.754 82.934M78.74 46.33L29.712 80.544l2.352.988L78.74 46.33zm-1.758.52l-60.968 24.1 1.607 1.644L76.983 46.85zm-.26-.52L8.203 57.605l.774 2.036L76.72 46.33z" fill="#FFF" opacity=".3"/><path d="M20.254 49.882c1.79 0 3.23 1.42 3.23 3.183v6.593c0 1.764-1.44 3.184-3.23 3.184h-1.53c-1.788 0-3.228-1.42-3.228-3.184v-6.592c0-1.764 1.44-3.184 3.23-3.184h-.002 1.53zm-.764 2.165c-.565 0-1.02.47-1.02 1.05v6.528c0 .583.456 1.052 1.02 1.052.564 0 1.018-.47 1.018-1.052v-6.527c0-.582-.454-1.05-1.018-1.05zm51.055-2.165c-3.15 0-3.723 2.212-3.724 3.21l.002 6.448c0 1.215.54 3.302 3.818 3.302s4.296-2.056 4.296-2.804v-2.274H71.88v1.9c0 .487-.473.935-1.017.935-.528 0-1.018-.313-1.02-.936l.002-6.574c0-.59.29-.887 1.018-.887.63 0 1.002.56 1.002.98.003.65.002.26 0 1.177l-.016.132h2.926v-1.9c0-1.12-1.08-2.71-4.23-2.71zm-23.023 2.406l.743 5.848h-1.588l.845-5.848zm1.69-2.406h-3.48l-2.74 12.96h2.89l.474-2.406h2.248l.354 2.37h3.06L49.21 49.883zm16.082 0h-2.927v12.96h2.927v-12.96zm-27.237 0c-2.196 0-4.01 1.184-4.01 2.835v6.978c0 1.714 1.178 3.147 3.277 3.147 2.1 0 2.673-1.34 2.673-1.34v1.122h2.132v-6.76h-4.042v2.15h1.05l.02.1c.014.988.01.555.012 1.3 0 .562-.413 1.185-1.145 1.185s-1.035-.53-1.035-1.28v-6.214c0-.825.748-1.075 1.098-1.075.35 0 .987.406.987.967v1.433h2.927s.008-.218.008-1.775c0-1.558-1.758-2.773-3.953-2.773zm-9.643 2.32c1.072.3 1.338.316 1.4 1.506 0 1.727-.94 1.547-1.988 1.547v-3.04l.588-.014zm1.115-2.32h-4.68v12.96h3.024V57.73c1.246 0 1.94.227 1.94 1.416v3.688h3.42s.018-.01.018-.245c0-.237-.446.048-.446-2.907 0-3.675-1.336-2.84-1.336-3.305 0-.326 1.368-.244 1.368-2.98 0-2.738-1.496-3.516-3.31-3.516zm26.41 0h-3.12V62.81h2.8v-6.545l2.07 6.577h3.213V49.914h-2.768v7.122l-2.196-7.154z" fill="#FFF"/></svg>