<?xml version="1.0" encoding="UTF-8" standalone="no"?>
<svg xmlns="http://www.w3.org/2000/svg" width="160" height="70">
  <path fill="#fff" d="M54.003 21.772c-1.688 0-3.193.752-4.23 1.931v-.996-.081-.122c0-6.425-3.537-12.118-8.925-15.432l2.236-4.026A2.057 2.057 0 0 0 42.291.26a2.057 2.057 0 0 0-2.785.793l-2.339 4.209a21.38 21.38 0 0 0-7.36-1.301 21.38 21.38 0 0 0-7.36 1.3l-2.318-4.208A2.045 2.045 0 0 0 17.343.26a2.046 2.046 0 0 0-.813 2.786l2.237 4.026c-5.368 3.334-8.926 9.007-8.926 15.432v1.199c-1.037-1.179-2.542-1.931-4.23-1.931A5.623 5.623 0 0 0 0 27.383v17.283a5.623 5.623 0 0 0 5.612 5.612c1.687 0 3.192-.753 4.229-1.932v2.42a5.944 5.944 0 0 0 5.937 5.937h1.504v7.685A5.623 5.623 0 0 0 22.894 70a5.623 5.623 0 0 0 5.612-5.612v-7.685h2.602v7.685A5.623 5.623 0 0 0 36.72 70a5.623 5.623 0 0 0 5.612-5.612v-7.685h1.504a5.944 5.944 0 0 0 5.937-5.937v-2.42c1.037 1.18 2.542 1.932 4.23 1.932a5.623 5.623 0 0 0 5.611-5.612V27.383a5.623 5.623 0 0 0-5.611-5.611z"/>
  <path fill="#77c159" d="M54.003 23.236a4.165 4.165 0 0 0-4.148 4.147v17.283a4.165 4.165 0 0 0 4.148 4.148 4.165 4.165 0 0 0 4.147-4.148V27.383a4.152 4.152 0 0 0-4.147-4.147zm-48.391 0a4.165 4.165 0 0 0-4.148 4.147v17.283a4.165 4.165 0 0 0 4.148 4.148 4.165 4.165 0 0 0 4.148-4.148V27.383a4.152 4.152 0 0 0-4.148-4.147zm42.698.711v26.819a4.46 4.46 0 0 1-4.474 4.473h-2.968v9.15a4.165 4.165 0 0 1-4.148 4.147 4.165 4.165 0 0 1-4.148-4.148v-9.15h-5.53v9.15a4.165 4.165 0 0 1-4.148 4.148 4.165 4.165 0 0 1-4.148-4.148v-9.15h-2.968a4.46 4.46 0 0 1-4.473-4.472V23.947zM38.875 7.62l2.928-5.286a.57.57 0 0 0-.223-.793.56.56 0 0 0-.793.224l-2.969 5.327a19.69 19.69 0 0 0-8.01-1.688c-2.868 0-5.592.61-8.012 1.688l-2.948-5.327a.575.575 0 0 0-.793-.224.575.575 0 0 0-.224.793L20.76 7.62c-5.632 2.928-9.414 8.48-9.434 14.863H48.33c-.02-6.384-3.823-11.935-9.455-14.863zm-17.607 8.093a1.545 1.545 0 1 1-.002-3.09 1.545 1.545 0 0 1 .002 3.09zm17.079 0a1.545 1.545 0 1 1-.002-3.09 1.545 1.545 0 0 1 .002 3.09z"/>
  <text x="63.695" y="28.721" stroke-width="1.821" font-family="Roboto,sans-serif" font-size="24" font-weight="400" letter-spacing="0" style="line-height:1.25;text-align:start" word-spacing="0">
    <tspan x="63.695" y="28.721" style="line-height:0;text-align:start">Android</tspan>
  </text>
  <text x="62.781" y="54.591" stroke-width="1.821" font-family="Roboto,sans-serif" font-size="72.846" font-weight="400" letter-spacing="0" style="line-height:1.25;text-align:start" word-spacing="0">
    <tspan x="62.781" y="54.591" font-size="24" style="line-height:0;text-align:start">apk</tspan>
  </text>
</svg>