<?xml version="1.0" encoding="UTF-8"?>
<svg width="135px" height="40px" viewBox="0 0 135 40" version="1.1" xmlns="http://www.w3.org/2000/svg" xmlns:xlink="http://www.w3.org/1999/xlink">
    <title>Android APK</title>
    <desc>Android APK</desc>
    <g id="Artboard" stroke="none" stroke-width="1" fill="none" fill-rule="evenodd">
        <rect id="Rectangle" fill="#000000" fill-rule="nonzero" x="0" y="0" width="135" height="40" rx="5"></rect>
        <path d="M130,0.8 C132.319596,0.8 134.2,2.68040405 134.2,5 L134.2,35 C134.2,37.3195959 132.319596,39.2 130,39.2 L5,39.2 C2.68040405,39.2 0.8,37.3195959 0.8,35 L0.8,5 C0.8,2.68040405 2.68040405,0.8 5,0.8 L130,0.8 M130,0 L5,0 C2.23857625,0 0,2.23857625 0,5 L0,35 C0,37.7614237 2.23857625,40 5,40 L130,40 C132.761424,40 135,37.7614237 135,35 L135,5 C135,2.23857625 132.761424,0 130,0 Z" id="Shape" fill="#A6A6A6" fill-rule="nonzero"></path>
        <path d="M27,24.13 L12.51,32.38 C11.9170385,32.8233364 11.1029615,32.8233364 10.51,32.38 L10.44,32.45 L10.51,32.52 C11.1018458,32.9666792 11.9181542,32.9666792 12.51,32.52 L27.12,24.22 L27,24.13 Z" id="Path" fill="#000000" fill-rule="nonzero" opacity="0.2"></path>
        <path d="M10.44,32.32 C10.114065,31.9288917 9.94955365,31.4282051 9.98,30.92 L9.98,31.07 C9.94955365,31.5782051 10.114065,32.0788917 10.44,32.47 L10.51,32.4 L10.44,32.32 Z M32,21.3 L27,24.13 L27.09,24.22 L32,21.44 C32.5670701,21.1736132 32.9484684,20.6243997 33,20 C32.8860295,20.5648379 32.516706,21.0449585 32,21.3 Z" id="Shape" fill="#000000" fill-rule="nonzero" opacity="0.12"></path>
        <path d="M32.3645788,13.2638456 C31.5717449,13.2638456 30.864864,13.6183603 30.3777972,14.1741752 L30.3777972,13.7046318 L30.3777972,13.6664461 L30.3777972,13.6089317 C30.3777972,10.58 28.7165095,7.89615431 26.1858288,6.33383839 L27.2360519,4.43586497 C27.4921233,3.96966602 27.3258756,3.38343315 26.8635891,3.12246359 C26.3992203,2.86576077 25.8154999,3.03258512 25.5555071,3.49630684 L24.4569061,5.48055178 C23.3494217,5.07396688 22.1792428,4.86635207 21,4.86722256 C19.8207852,4.86620104 18.6506071,5.07365612 17.5430939,5.48008035 L16.4543564,3.49630684 C16.3305174,3.2722572 16.1229144,3.10690252 15.8773936,3.03675909 C15.6318728,2.96661567 15.3686321,2.9974539 15.1458047,3.12246359 C14.9210645,3.24524064 14.7543875,3.45290809 14.6827091,3.69944709 C14.6110306,3.94598609 14.6402701,4.21103703 14.7639481,4.43586497 L15.8146409,6.33383839 C13.2933539,7.90558289 11.6222028,10.58 11.6222028,13.6089317 L11.6222028,14.1741752 C11.135136,13.6183603 10.4282551,13.2638456 9.63542121,13.2638456 C8.18120432,13.2669573 7.00310014,14.4494277 7,15.9090341 L7,24.0567427 C7.00284276,25.5167168 8.18130769,26.6995493 9.6358909,26.7024026 C10.4282551,26.7024026 11.135136,26.3474165 11.6222028,25.7916016 L11.6222028,26.93246 C11.6240146,28.4774818 12.8714256,29.7295159 14.4107424,29.7313343 L15.1171537,29.7313343 L15.1171537,33.3542667 C15.1199964,34.8142408 16.2984614,35.9970733 17.7530446,35.9999266 C19.2076278,35.9970733 20.3860927,34.8142408 20.3889355,33.3542667 L20.3889355,29.7313343 L21.6110645,29.7313343 L21.6110645,33.3542667 C21.6139073,34.8142408 22.7923722,35.9970733 24.2469554,35.9999266 C25.7015386,35.9970733 26.8800036,34.8142408 26.8828463,33.3542667 L26.8828463,29.7313343 L27.5892576,29.7313343 C29.1285744,29.7295159 30.3759854,28.4774818 30.3777972,26.93246 L30.3777972,25.7916016 C30.864864,26.3478879 31.5717449,26.7024026 32.3645788,26.7024026 C33.8189786,26.69929 34.9971581,25.5165332 35,24.0567427 L35,15.9090341 C34.9968999,14.4494277 33.8187957,13.2669573 32.3645788,13.2638456 Z" id="Path" fill="#FFFFFF" fill-rule="nonzero"></path>
        <path d="M32.0979078,13.889343 C31.049111,13.8937854 30.1998808,14.7768508 30.1953569,15.8676961 L30.1953569,24.1126627 C30.1996297,25.2036942 31.0489329,26.0870486 32.0979078,26.0914928 C33.1467035,26.0867875 33.9957289,25.203509 34,24.1126627 L34,15.8676961 C33.9987363,14.7756267 33.1478804,13.8906574 32.0979078,13.889343 L32.0979078,13.889343 Z M9.90255089,13.889343 C8.85375409,13.8937854 8.00452396,14.7768508 8,15.8676961 L8,24.1126627 C8.00427286,25.2036942 8.85357603,26.0870486 9.90255089,26.0914928 C10.9515258,26.0870486 11.8008289,25.2036942 11.8051018,24.1126627 L11.8051018,15.8676961 C11.8038376,14.7754407 10.9527027,13.8903945 9.90255089,13.889343 Z M29.486725,14.2285302 L29.486725,27.022707 C29.4883067,27.5892336 29.2726024,28.1330267 28.8874049,28.5335785 C28.5022073,28.9341302 27.979328,29.1583612 27.4346399,29.1565804 L26.0733162,29.1565804 L26.0733162,33.5216469 C26.0687922,34.6124922 25.2195621,35.4955577 24.1707653,35.5 C23.1217904,35.4955558 22.2724872,34.6122014 22.2682144,33.5211699 L22.2682144,29.1561034 L19.7317856,29.1561034 L19.7317856,33.5211699 C19.7275128,34.6122014 18.8782096,35.4955558 17.8292347,35.5 C16.7802599,35.4955558 15.9309567,34.6122014 15.9266838,33.5211699 L15.9266838,29.1561034 L14.5653601,29.1561034 C14.0208311,29.1577563 13.4981399,28.9335345 13.1130551,28.5331 C12.7279704,28.1326655 12.5122749,27.5890681 12.5137349,27.022707 L12.5137349,14.2285302 L29.486725,14.2285302 Z M25.1591927,6.43962958 L26.5021698,3.91790921 C26.5384485,3.85401081 26.5480432,3.77746709 26.5287287,3.70603016 C26.5094143,3.63459323 26.4628688,3.57446968 26.3998871,3.53960345 C26.3387214,3.50047094 26.2645984,3.48975745 26.1954916,3.51006081 C26.1263848,3.53036417 26.0686054,3.57983015 26.0361641,3.6464641 L24.6743817,6.18774378 C23.5175025,5.65458756 22.2658155,5.38023572 21.0004587,5.3824725 C19.6850016,5.3824725 18.4355926,5.67347693 17.3256183,6.18774378 L15.9734679,3.6464641 C15.9395534,3.58137886 15.8817861,3.53331426 15.8132905,3.51319048 C15.7447949,3.4930667 15.671387,3.50259243 15.6097449,3.53960345 C15.5471686,3.57487767 15.5009567,3.63496109 15.4816087,3.70620287 C15.4622606,3.77744465 15.4714192,3.8537957 15.5070035,3.91790921 L16.8504393,6.43962958 C14.2672265,7.83645085 12.5325477,10.4850682 12.5233744,13.5301195 L29.4958896,13.5301195 C29.4867163,10.4845912 27.7424055,7.83645085 25.1591927,6.43962958 Z M17.0834421,10.3004475 C16.8302692,10.3006178 16.5962404,10.160294 16.469512,9.93233444 C16.3427837,9.70437491 16.3426088,9.42341219 16.4690534,9.19528222 C16.5954979,8.96715225 16.8293519,8.82651341 17.0825248,8.82634282 C17.4738962,8.82607951 17.7913707,9.15585544 17.7916242,9.56291813 C17.7918773,9.96998082 17.4748135,10.3001839 17.0834421,10.3004475 Z M24.9170165,10.3004475 C24.6638436,10.3006178 24.4298148,10.160294 24.3030865,9.93233444 C24.1763581,9.70437491 24.1761832,9.42341219 24.3026278,9.19528222 C24.4290723,8.96715225 24.6629263,8.82651341 24.9160992,8.82634282 C25.3074706,8.82607951 25.6249451,9.15585544 25.6251986,9.56291813 C25.6254518,9.96998082 25.3083879,10.3001839 24.9170165,10.3004475 Z" id="Shape" fill="#77C159" fill-rule="nonzero"></path>
        <text id="Android-APK" font-family="Roboto-Medium, Roboto" font-size="16" font-weight="400" fill="#FFFFFF">
            <tspan x="38" y="25">Android APK</tspan>
        </text>
    </g>
</svg>
