<?xml version="1.0" encoding="UTF-8"?>
<svg width="135px" height="40px" viewBox="0 0 135 40" version="1.1" xmlns="http://www.w3.org/2000/svg" xmlns:xlink="http://www.w3.org/1999/xlink">
    <title>Android APK</title>
    <desc>Android APK</desc>
    <g id="Artboard" stroke="none" stroke-width="1" fill="none" fill-rule="evenodd">
        <rect id="Rectangle" fill="#000000" fill-rule="nonzero" x="0" y="0" width="135" height="40" rx="5"></rect>
        <path d="M130,0.8 C132.319596,0.8 134.2,2.68040405 134.2,5 L134.2,35 C134.2,37.3195959 132.319596,39.2 130,39.2 L5,39.2 C2.68040405,39.2 0.8,37.3195959 0.8,35 L0.8,5 C0.8,2.68040405 2.68040405,0.8 5,0.8 L130,0.8 M130,0 L5,0 C2.23857625,0 0,2.23857625 0,5 L0,35 C0,37.7614237 2.23857625,40 5,40 L130,40 C132.761424,40 135,37.7614237 135,35 L135,5 C135,2.23857625 132.761424,0 130,0 Z" id="Shape" fill="#A6A6A6" fill-rule="nonzero"></path>
        <path d="M27,24.13 L12.51,32.38 C11.9170385,32.8233364 11.1029615,32.8233364 10.51,32.38 L10.44,32.45 L10.51,32.52 C11.1018458,32.9666792 11.9181542,32.9666792 12.51,32.52 L27.12,24.22 L27,24.13 Z" id="Path" fill="#000000" fill-rule="nonzero" opacity="0.2"></path>
        <path d="M10.44,32.32 C10.114065,31.9288917 9.94955365,31.4282051 9.98,30.92 L9.98,31.07 C9.94955365,31.5782051 10.114065,32.0788917 10.44,32.47 L10.51,32.4 L10.44,32.32 Z M32,21.3 L27,24.13 L27.09,24.22 L32,21.44 C32.5670701,21.1736132 32.9484684,20.6243997 33,20 C32.8860295,20.5648379 32.516706,21.0449585 32,21.3 Z" id="Shape" fill="#000000" fill-rule="nonzero" opacity="0.12"></path>
        <path d="M32.3645788,13.2638456 C31.5717449,13.2638456 30.864864,13.6183603 30.3777972,14.1741752 L30.3777972,13.7046318 L30.3777972,13.6664461 L30.3777972,13.6089317 C30.3777972,10.58 28.7165095,7.89615431 26.1858288,6.33383839 L27.2360519,4.43586497 C27.4921233,3.96966602 27.3258756,3.38343315 26.8635891,3.12246359 C26.3992203,2.86576077 25.8154999,3.03258512 25.5555071,3.49630684 L24.4569061,5.48055178 C23.3494217,5.07396688 22.1792428,4.86635207 21,4.86722256 C19.8207852,4.86620104 18.6506071,5.07365612 17.5430939,5.48008035 L16.4543564,3.49630684 C16.3305174,3.2722572 16.1229144,3.10690252 15.8773936,3.03675909 C15.6318728,2.96661567 15.3686321,2.9974539 15.1458047,3.12246359 C14.9210645,3.24524064 14.7543875,3.45290809 14.6827091,3.69944709 C14.6110306,3.94598609 14.6402701,4.21103703 14.7639481,4.43586497 L15.8146409,6.33383839 C13.2933539,7.90558289 11.6222028,10.58 11.6222028,13.6089317 L11.6222028,14.1741752 C11.135136,13.6183603 10.4282551,13.2638456 9.63542121,13.2638456 C8.18120432,13.2669573 7.00310014,14.4494277 7,15.9090341 L7,24.0567427 C7.00284276,25.5167168 8.18130769,26.6995493 9.6358909,26.7024026 C10.4282551,26.7024026 11.135136,26.3474165 11.6222028,25.7916016 L11.6222028,26.93246 C11.6240146,28.4774818 12.8714256,29.7295159 14.4107424,29.7313343 L15.1171537,29.7313343 L15.1171537,33.3542667 C15.1199964,34.8142408 16.2984614,35.9970733 17.7530446,35.9999266 C19.2076278,35.9970733 20.3860927,34.8142408 20.3889355,33.3542667 L20.3889355,29.7313343 L21.6110645,29.7313343 L21.6110645,33.3542667 C21.6139073,34.8142408 22.7923722,35.9970733 24.2469554,35.9999266 C25.7015386,35.9970733 26.8800036,34.8142408 26.8828463,33.3542667 L26.8828463,29.7313343 L27.5892576,29.7313343 C29.1285744,29.7295159 30.3759854,28.4774818 30.3777972,26.93246 L30.3777972,25.7916016 C30.864864,26.3478879 31.5717449,26.7024026 32.3645788,26.7024026 C33.8189786,26.69929 34.9971581,25.5165332 35,24.0567427 L35,15.9090341 C34.9968999,14.4494277 33.8187957,13.2669573 32.3645788,13.2638456 Z" id="Path" fill="#FFFFFF" fill-rule="nonzero"></path>
        <path d="M32.0979078,13.889343 C31.049111,13.8937854 30.1998808,14.7768508 30.1953569,15.8676961 L30.1953569,24.1126627 C30.1996297,25.2036942 31.0489329,26.0870486 32.0979078,26.0914928 C33.1467035,26.0867875 33.9957289,25.203509 34,24.1126627 L34,15.8676961 C33.9987363,14.7756267 33.1478804,13.8906574 32.0979078,13.889343 L32.0979078,13.889343 Z M9.90255089,13.889343 C8.85375409,13.8937854 8.00452396,14.7768508 8,15.8676961 L8,24.1126627 C8.00427286,25.2036942 8.85357603,26.0870486 9.90255089,26.0914928 C10.9515258,26.0870486 11.8008289,25.2036942 11.8051018,24.1126627 L11.8051018,15.8676961 C11.8038376,14.7754407 10.9527027,13.8903945 9.90255089,13.889343 Z M29.486725,14.2285302 L29.486725,27.022707 C29.4883067,27.5892336 29.2726024,28.1330267 28.8874049,28.5335785 C28.5022073,28.9341302 27.979328,29.1583612 27.4346399,29.1565804 L26.0733162,29.1565804 L26.0733162,33.5216469 C26.0687922,34.6124922 25.2195621,35.4955577 24.1707653,35.5 C23.1217904,35.4955558 22.2724872,34.6122014 22.2682144,33.5211699 L22.2682144,29.1561034 L19.7317856,29.1561034 L19.7317856,33.5211699 C19.7275128,34.6122014 18.8782096,35.4955558 17.8292347,35.5 C16.7802599,35.4955558 15.9309567,34.6122014 15.9266838,33.5211699 L15.9266838,29.1561034 L14.5653601,29.1561034 C14.0208311,29.1577563 13.4981399,28.9335345 13.1130551,28.5331 C12.7279704,28.1326655 12.5122749,27.5890681 12.5137349,27.022707 L12.5137349,14.2285302 L29.486725,14.2285302 Z M25.1591927,6.43962958 L26.5021698,3.91790921 C26.5384485,3.85401081 26.5480432,3.77746709 26.5287287,3.70603016 C26.5094143,3.63459323 26.4628688,3.57446968 26.3998871,3.53960345 C26.3387214,3.50047094 26.2645984,3.48975745 26.1954916,3.51006081 C26.1263848,3.53036417 26.0686054,3.57983015 26.0361641,3.6464641 L24.6743817,6.18774378 C23.5175025,5.65458756 22.2658155,5.38023572 21.0004587,5.3824725 C19.6850016,5.3824725 18.4355926,5.67347693 17.3256183,6.18774378 L15.9734679,3.6464641 C15.9395534,3.58137886 15.8817861,3.53331426 15.8132905,3.51319048 C15.7447949,3.4930667 15.671387,3.50259243 15.6097449,3.53960345 C15.5471686,3.57487767 15.5009567,3.63496109 15.4816087,3.70620287 C15.4622606,3.77744465 15.4714192,3.8537957 15.5070035,3.91790921 L16.8504393,6.43962958 C14.2672265,7.83645085 12.5325477,10.4850682 12.5233744,13.5301195 L29.4958896,13.5301195 C29.4867163,10.4845912 27.7424055,7.83645085 25.1591927,6.43962958 Z M17.0834421,10.3004475 C16.8302692,10.3006178 16.5962404,10.160294 16.469512,9.93233444 C16.3427837,9.70437491 16.3426088,9.42341219 16.4690534,9.19528222 C16.5954979,8.96715225 16.8293519,8.82651341 17.0825248,8.82634282 C17.4738962,8.82607951 17.7913707,9.15585544 17.7916242,9.56291813 C17.7918773,9.96998082 17.4748135,10.3001839 17.0834421,10.3004475 Z M24.9170165,10.3004475 C24.6638436,10.3006178 24.4298148,10.160294 24.3030865,9.93233444 C24.1763581,9.70437491 24.1761832,9.42341219 24.3026278,9.19528222 C24.4290723,8.96715225 24.6629263,8.82651341 24.9160992,8.82634282 C25.3074706,8.82607951 25.6249451,9.15585544 25.6251986,9.56291813 C25.6254518,9.96998082 25.3083879,10.3001839 24.9170165,10.3004475 Z" id="Shape" fill="#77C159" fill-rule="nonzero"></path>
        <path d="M40.1953125,25 L41.1171875,22.3515625 L45.5234375,22.3515625 L46.453125,25 L48.515625,25 L44.2109375,13.625 L42.4375,13.625 L38.140625,25 L40.1953125,25 Z M44.96875,20.7578125 L41.671875,20.7578125 L43.3203125,16.0390625 L44.96875,20.7578125 Z M51.1171875,25 L51.1171875,18.984375 C51.4921875,18.2916667 52.0625,17.9453125 52.828125,17.9453125 C53.3541667,17.9453125 53.7330729,18.0742188 53.9648438,18.3320312 C54.1966146,18.5898438 54.3125,18.9869792 54.3125,19.5234375 L54.3125,19.5234375 L54.3125,25 L56.2109375,25 L56.2109375,19.4140625 C56.1796875,17.3984375 55.2838542,16.390625 53.5234375,16.390625 C52.5078125,16.390625 51.6875,16.7682292 51.0625,17.5234375 L51.0625,17.5234375 L51.0078125,16.546875 L49.21875,16.546875 L49.21875,25 L51.1171875,25 Z M61.109375,25.15625 C62.0572917,25.15625 62.8151042,24.8125 63.3828125,24.125 L63.3828125,24.125 L63.4765625,25 L65.1953125,25 L65.1953125,13 L63.296875,13 L63.296875,17.328125 C62.7447917,16.703125 62.0208333,16.390625 61.125,16.390625 C60.109375,16.390625 59.2994792,16.7851562 58.6953125,17.5742188 C58.0911458,18.3632812 57.7890625,19.4088542 57.7890625,20.7109375 C57.7890625,22.0807292 58.0950521,23.1640625 58.7070312,23.9609375 C59.3190104,24.7578125 60.1197917,25.15625 61.109375,25.15625 Z M61.59375,23.609375 C60.984375,23.609375 60.5143229,23.3684896 60.1835938,22.8867188 C59.8528646,22.4049479 59.6875,21.734375 59.6875,20.875 C59.6875,19.8958333 59.8541667,19.1627604 60.1875,18.6757812 C60.5208333,18.1888021 60.9947917,17.9453125 61.609375,17.9453125 C62.3854167,17.9453125 62.9479167,18.2838542 63.296875,18.9609375 L63.296875,18.9609375 L63.296875,22.5703125 C62.9375,23.2630208 62.3697917,23.609375 61.59375,23.609375 Z M69.0703125,25 L69.0703125,19.21875 C69.3723958,18.5520833 69.9583333,18.21875 70.828125,18.21875 C71.09375,18.21875 71.3515625,18.2395833 71.6015625,18.28125 L71.6015625,18.28125 L71.609375,16.5 C71.4322917,16.4270833 71.2083333,16.390625 70.9375,16.390625 C70.125,16.390625 69.4895833,16.7578125 69.03125,17.4921875 L69.03125,17.4921875 L68.984375,16.546875 L67.171875,16.546875 L67.171875,25 L69.0703125,25 Z M76.1015625,25.15625 C76.8828125,25.15625 77.5716146,24.9765625 78.1679688,24.6171875 C78.7643229,24.2578125 79.2226562,23.75 79.5429688,23.09375 C79.8632812,22.4375 80.0234375,21.6927083 80.0234375,20.859375 L80.0234375,20.859375 L80.015625,20.4140625 C79.9583333,19.2005208 79.5742188,18.2265625 78.8632812,17.4921875 C78.1523438,16.7578125 77.2265625,16.390625 76.0859375,16.390625 C75.3151042,16.390625 74.6328125,16.5690104 74.0390625,16.9257812 C73.4453125,17.2825521 72.984375,17.7929688 72.65625,18.4570312 C72.328125,19.1210938 72.1640625,19.8671875 72.1640625,20.6953125 L72.1640625,20.6953125 L72.1640625,20.7890625 C72.1640625,22.1119792 72.5221354,23.1705729 73.2382812,23.9648438 C73.9544271,24.7591146 74.9088542,25.15625 76.1015625,25.15625 Z M76.1015625,23.640625 C75.4609375,23.640625 74.9609375,23.3945312 74.6015625,22.9023438 C74.2421875,22.4101562 74.0625,21.7291667 74.0625,20.859375 C74.0625,19.8802083 74.2447917,19.1445312 74.609375,18.6523438 C74.9739583,18.1601562 75.4661458,17.9140625 76.0859375,17.9140625 C76.7161458,17.9140625 77.2148438,18.1640625 77.5820312,18.6640625 C77.9492188,19.1640625 78.1328125,19.8411458 78.1328125,20.6953125 C78.1328125,21.6588542 77.9544271,22.390625 77.5976562,22.890625 C77.2408854,23.390625 76.7421875,23.640625 76.1015625,23.640625 Z M82.703125,15.3515625 C83.046875,15.3515625 83.3125,15.2565104 83.5,15.0664062 C83.6875,14.8763021 83.78125,14.6380208 83.78125,14.3515625 C83.78125,14.0598958 83.6875,13.8177083 83.5,13.625 C83.3125,13.4322917 83.046875,13.3359375 82.703125,13.3359375 C82.359375,13.3359375 82.0950521,13.4322917 81.9101562,13.625 C81.7252604,13.8177083 81.6328125,14.0598958 81.6328125,14.3515625 C81.6328125,14.6380208 81.7252604,14.8763021 81.9101562,15.0664062 C82.0950521,15.2565104 82.359375,15.3515625 82.703125,15.3515625 Z M83.6484375,25 L83.6484375,16.546875 L81.75,16.546875 L81.75,25 L83.6484375,25 Z M88.6796875,25.15625 C89.6276042,25.15625 90.3854167,24.8125 90.953125,24.125 L90.953125,24.125 L91.046875,25 L92.765625,25 L92.765625,13 L90.8671875,13 L90.8671875,17.328125 C90.3151042,16.703125 89.5911458,16.390625 88.6953125,16.390625 C87.6796875,16.390625 86.8697917,16.7851562 86.265625,17.5742188 C85.6614583,18.3632812 85.359375,19.4088542 85.359375,20.7109375 C85.359375,22.0807292 85.6653646,23.1640625 86.2773438,23.9609375 C86.8893229,24.7578125 87.6901042,25.15625 88.6796875,25.15625 Z M89.1640625,23.609375 C88.5546875,23.609375 88.0846354,23.3684896 87.7539062,22.8867188 C87.4231771,22.4049479 87.2578125,21.734375 87.2578125,20.875 C87.2578125,19.8958333 87.4244792,19.1627604 87.7578125,18.6757812 C88.0911458,18.1888021 88.5651042,17.9453125 89.1796875,17.9453125 C89.9557292,17.9453125 90.5182292,18.2838542 90.8671875,18.9609375 L90.8671875,18.9609375 L90.8671875,22.5703125 C90.5078125,23.2630208 89.9401042,23.609375 89.1640625,23.609375 Z M99.953125,25 L100.875,22.3515625 L105.28125,22.3515625 L106.210938,25 L108.273438,25 L103.96875,13.625 L102.195312,13.625 L97.8984375,25 L99.953125,25 Z M104.726562,20.7578125 L101.429688,20.7578125 L103.078125,16.0390625 L104.726562,20.7578125 Z M111.539062,25 L111.539062,20.7734375 L113.890625,20.7734375 C115.208333,20.7734375 116.233073,20.4635417 116.964844,19.84375 C117.696615,19.2239583 118.0625,18.3567708 118.0625,17.2421875 C118.0625,16.1536458 117.688802,15.2786458 116.941406,14.6171875 C116.19401,13.9557292 115.184896,13.625 113.914062,13.625 L113.914062,13.625 L109.5625,13.625 L109.5625,25 L111.539062,25 Z M113.914062,19.1875 L111.539062,19.1875 L111.539062,15.21875 L113.96875,15.21875 C114.625,15.2291667 115.140625,15.4179688 115.515625,15.7851562 C115.890625,16.1523438 116.078125,16.6432292 116.078125,17.2578125 C116.078125,17.8828125 115.893229,18.3606771 115.523438,18.6914062 C115.153646,19.0221354 114.617188,19.1875 113.914062,19.1875 L113.914062,19.1875 Z M121.765625,25 L121.765625,21.453125 L123.054688,20.0859375 L126.476562,25 L128.820312,25 L124.351562,18.6640625 L128.578125,13.625 L126.1875,13.625 L122.859375,17.609375 L121.765625,18.9609375 L121.765625,13.625 L119.789062,13.625 L119.789062,25 L121.765625,25 Z" id="AndroidAPK" fill="#FFFFFF" fill-rule="nonzero"></path>
    </g>
</svg>
