<?xml version="1.0" encoding="UTF-8" standalone="no"?>
<!-- Created with Inkscape (http://www.inkscape.org/) -->

<svg
   xmlns:dc="http://purl.org/dc/elements/1.1/"
   xmlns:cc="http://creativecommons.org/ns#"
   xmlns:rdf="http://www.w3.org/1999/02/22-rdf-syntax-ns#"
   xmlns:svg="http://www.w3.org/2000/svg"
   xmlns="http://www.w3.org/2000/svg"
   xmlns:sodipodi="http://sodipodi.sourceforge.net/DTD/sodipodi-0.dtd"
   xmlns:inkscape="http://www.inkscape.org/namespaces/inkscape"
   width="1000"
   height="152.34805"
   viewBox="0 0 264.58332 40.308758"
   version="1.1"
   id="svg8"
   inkscape:version="0.92.3 (2405546, 2018-03-11)"
   sodipodi:docname="android_logo_2019.svg">
  <defs
     id="defs2" />
  <sodipodi:namedview
     id="base"
     pagecolor="#ffffff"
     bordercolor="#666666"
     borderopacity="1.0"
     inkscape:pageopacity="0.0"
     inkscape:pageshadow="2"
     inkscape:zoom="0.24748737"
     inkscape:cx="-1237.5229"
     inkscape:cy="214.35188"
     inkscape:document-units="px"
     inkscape:current-layer="layer1"
     showgrid="false"
     units="px"
     inkscape:window-width="1920"
     inkscape:window-height="1017"
     inkscape:window-x="-8"
     inkscape:window-y="-8"
     inkscape:window-maximized="1"
     fit-margin-top="0"
     fit-margin-left="0"
     fit-margin-right="0"
     fit-margin-bottom="0">
    <inkscape:grid
       type="xygrid"
       id="grid823"
       originx="44.662046"
       originy="186.59994" />
  </sodipodi:namedview>
  <metadata
     id="metadata5">
    <rdf:RDF>
      <cc:Work
         rdf:about="">
        <dc:format>image/svg+xml</dc:format>
        <dc:type
           rdf:resource="http://purl.org/dc/dcmitype/StillImage" />
        <dc:title></dc:title>
      </cc:Work>
    </rdf:RDF>
  </metadata>
  <g
     inkscape:label="Layer 1"
     inkscape:groupmode="layer"
     id="layer1"
     transform="translate(44.662086,-443.29114)">
    <path
       id="path80319"
       d="m 201.88845,455.46993 5.84226,-10.12049 c 0.32967,-0.56735 0.13033,-1.28803 -0.42937,-1.61773 -0.55969,-0.32962 -1.28805,-0.13794 -1.61007,0.42935 l -5.91894,10.25081 c -4.51588,-2.06242 -9.59911,-3.21249 -15.0657,-3.21249 -5.46659,0 -10.54982,1.15007 -15.0657,3.21249 l -5.91894,-10.25081 c -0.32966,-0.56735 -1.05038,-0.75901 -1.61774,-0.42935 -0.56737,0.3296 -0.75904,1.05038 -0.42937,1.61773 l 5.84227,10.12049 c -10.07447,5.4589 -16.89811,15.65603 -18.02517,27.59359 h 70.42927 c -1.12706,-11.93756 -7.95071,-22.13469 -18.03283,-27.59359 z m -33.35155,17.70316 c -1.63308,0 -2.95181,-1.32641 -2.95181,-2.95184 0,-1.63306 1.3264,-2.95178 2.95181,-2.95178 1.63307,0 2.9518,1.32639 2.9518,2.95178 0.008,1.62543 -1.31873,2.95184 -2.9518,2.95184 z m 32.33183,0 c -1.63307,0 -2.9518,-1.32641 -2.9518,-2.95184 0,-1.63306 1.32639,-2.95178 2.9518,-2.95178 1.63308,0 2.95181,1.32639 2.95181,2.95178 0.008,1.62543 -1.31873,2.95184 -2.95181,2.95184 z"
       class="st0"
       inkscape:connector-curvature="0"
       style="fill:#32de84;stroke-width:0.07667021" />
    <g
       id="g80302"
       transform="matrix(0.90730795,0,0,0.90730795,239.32719,93.617735)"
       style="fill:#000000">
      <path
         inkscape:connector-curvature="0"
         id="path825"
         d="m -299.03612,399.58105 c -6.88566,0 -13.96596,5.51768 -13.96596,15.17562 0,8.82926 6.22524,15.06562 13.96596,15.06562 6.38958,0 9.23732,-4.28876 9.23732,-4.28876 v 1.86946 c 0,0.8836 0.83542,1.86946 1.86946,1.86946 h 4.61866 v -29.03158 h -6.48812 v 3.68394 c 0,0 -2.8716,-4.34376 -9.23732,-4.34376 z m 1.15574,5.93636 c 5.66836,0 8.64172,4.9851 8.64172,9.2371 0,4.73604 -3.5303,9.23388 -8.6297,9.2339 -4.26278,0 -8.53284,-3.45238 -8.53284,-9.2964 0,-5.27526 3.67466,-9.1746 8.52082,-9.1746 z"
         style="opacity:1;fill:#000000;fill-opacity:1;stroke:none;stroke-width:0.01099682;stroke-linecap:square;stroke-linejoin:round;stroke-miterlimit:2.61310005;stroke-dasharray:none;stroke-opacity:1" />
      <path
         sodipodi:nodetypes="ccccccccccccccc"
         inkscape:connector-curvature="0"
         id="path829"
         d="m -274.2933,429.27247 c -0.99682,0 -1.86946,-0.71498 -1.86946,-1.86946 v -27.16212 h 6.48812 v 3.59262 c 1.47022,-2.20986 4.34254,-4.26128 8.75132,-4.26128 7.2059,0 11.04296,5.74422 11.04296,11.11564 v 18.5846 h -4.5087 c -1.18224,0 -1.97942,-0.9897 -1.97942,-1.97942 v -15.1756 c 0,-2.97738 -1.82422,-6.59332 -6.04314,-6.59332 -4.55234,0 -7.26302,4.30228 -7.26302,8.3528 v 15.39554 z"
         style="opacity:1;fill:#000000;fill-opacity:1;stroke:none;stroke-width:0.01099682;stroke-linecap:square;stroke-linejoin:round;stroke-miterlimit:2.61310005;stroke-dasharray:none;stroke-opacity:1" />
      <path
         sodipodi:nodetypes="ssscssccccssscss"
         inkscape:connector-curvature="0"
         style="opacity:1;fill:#000000;fill-opacity:1;stroke:none;stroke-width:0.01099682;stroke-linecap:square;stroke-linejoin:round;stroke-miterlimit:2.61310005;stroke-dasharray:none;stroke-opacity:1"
         d="m -230.96586,399.58105 c -6.88564,0 -13.96594,5.51768 -13.96594,15.17562 0,8.82926 6.22524,15.06562 13.96594,15.06562 6.38958,0 9.23734,-4.28876 9.23734,-4.28876 v 1.86946 c 0,0.8836 0.83542,1.86946 1.86946,1.86946 h 4.61866 v -43.54736 h -6.48812 v 18.1997 c 0,0 -2.87162,-4.34374 -9.23734,-4.34374 z m 1.15576,5.93636 c 5.66836,0 8.64172,4.9851 8.64172,9.2371 0,4.73604 -3.53032,9.23388 -8.6297,9.2339 -4.26278,0 -8.53284,-3.45238 -8.53284,-9.2964 0,-5.27528 3.67464,-9.1746 8.52082,-9.1746 z"
         id="path833" />
      <path
         style="opacity:1;fill:#000000;fill-opacity:1;stroke:none;stroke-width:0.01099682;stroke-linecap:square;stroke-linejoin:round;stroke-miterlimit:2.61310005;stroke-dasharray:none;stroke-opacity:1"
         d="m -206.22302,429.27247 c -0.99682,0 -1.86946,-0.71498 -1.86946,-1.86946 v -27.16212 h 6.48812 v 4.8386 c 1.11676,-2.7106 3.52662,-5.1685 7.80774,-5.1685 1.19346,0 2.30934,0.21994 2.30934,0.21994 v 6.70804 c 0,0 -1.39338,-0.54984 -3.07912,-0.54984 -4.55234,0 -7.03796,4.30228 -7.03796,8.35282 v 14.63052 z"
         id="path835"
         inkscape:connector-curvature="0"
         sodipodi:nodetypes="cccccccccccc" />
      <path
         sodipodi:nodetypes="cccccc"
         inkscape:connector-curvature="0"
         id="path837"
         d="m -152.1187,429.27247 c -0.99682,0 -1.86946,-0.71498 -1.86946,-1.86946 v -27.16212 h 6.48812 v 29.03158 z"
         style="opacity:1;fill:#000000;fill-opacity:1;stroke:none;stroke-width:0.01099682;stroke-linecap:square;stroke-linejoin:round;stroke-miterlimit:2.61310005;stroke-dasharray:none;stroke-opacity:1" />
      <path
         id="path839"
         d="m -128.47554,399.58105 c -6.88566,0 -13.96596,5.51768 -13.96596,15.17562 0,8.82926 6.22524,15.06562 13.96596,15.06562 6.38956,0 9.23731,-4.28876 9.23731,-4.28876 v 1.86946 c 0,0.8836 0.83542,1.86946 1.86946,1.86946 h 4.61866 v -43.54736 h -6.48812 v 18.1997 c 0,0 -2.87159,-4.34374 -9.23731,-4.34374 z m 1.15574,5.93636 c 5.66836,0 8.64171,4.9851 8.64171,9.2371 0,4.73604 -3.53029,9.23388 -8.62969,9.2339 -4.26278,0 -8.53284,-3.45238 -8.53284,-9.2964 0,-5.27528 3.67466,-9.1746 8.52082,-9.1746 z"
         style="opacity:1;fill:#000000;fill-opacity:1;stroke:none;stroke-width:0.01099682;stroke-linecap:square;stroke-linejoin:round;stroke-miterlimit:2.61310005;stroke-dasharray:none;stroke-opacity:1"
         inkscape:connector-curvature="0"
         sodipodi:nodetypes="ssscssccccssscss" />
      <circle
         r="4.2912617"
         cy="389.68787"
         cx="-150.79517"
         id="path841"
         style="opacity:1;fill:#000000;fill-opacity:1;stroke:none;stroke-width:0.01384278;stroke-linecap:square;stroke-linejoin:round;stroke-miterlimit:2.61310005;stroke-dasharray:none;stroke-opacity:1" />
      <path
         inkscape:connector-curvature="0"
         id="path843"
         d="m -174.3765,399.57139 c -7.21114,0 -15.13372,5.38276 -15.13372,15.13372 0,8.88566 6.74818,15.11826 15.11804,15.11826 10.315,0 15.35172,-8.29218 15.35172,-15.06198 0,-8.30724 -6.48568,-15.19 -15.33604,-15.19 z m 0.0236,6.059 c 4.9867,0 8.70638,4.01914 8.70638,9.09298 0,5.16184 -3.94862,9.14498 -8.69156,9.14498 -4.40284,0 -8.68276,-3.583 -8.68276,-9.0582 0,-5.56646 4.07064,-9.17976 8.66794,-9.17976 z"
         style="opacity:1;fill:#000000;fill-opacity:1;stroke:none;stroke-width:0.01099682;stroke-linecap:square;stroke-linejoin:round;stroke-miterlimit:2.61310005;stroke-dasharray:none;stroke-opacity:1" />
    </g>
  </g>
  <style
     id="style80315"
     type="text/css">
	.st0{fill:#32de84;}
</style>
</svg>
