<?xml version="1.0" encoding="UTF-8"?>
<svg width="210px" height="210px" viewBox="0 0 210 210" version="1.1" xmlns="http://www.w3.org/2000/svg" xmlns:xlink="http://www.w3.org/1999/xlink">
    <title>co2-high</title>
    <desc></desc>
    <g id="co2-high" stroke="none" stroke-width="1" fill="none" fill-rule="evenodd">
        <ellipse id="Oval" fill="#FFFFFF" cx="105" cy="104" rx="93" ry="89"></ellipse>
        <g fill="#D80027">
            <path d="M111.075,71.518 C100.66,71.518 94.594,81.427 94.594,94.674 C94.594,108.02 100.862,117.425 111.176,117.425 C121.591,117.425 127.558,107.516 127.558,94.269 C127.558,82.034 121.693,71.518 111.075,71.518 Z" id="Path"></path>
            <path d="M34.7458735,29.7092297 L29.7123679,34.7430117 C-9.34076698,73.7945467 -9.34217201,137.110858 29.7092297,176.164127 L34.7463219,181.205322 C73.7978178,220.258684 137.114316,220.260197 176.167678,181.208701 C176.168241,181.208138 176.168805,181.207575 176.169368,181.207012 L181.20408,176.168437 C220.256415,137.116102 220.256523,73.7997901 181.204322,34.7473219 L176.16723,29.7121266 C137.115405,-9.33996455 73.7998382,-9.34072111 34.7470805,29.7104367 L34.7458735,29.7092297 Z M59.203,116.818 C63.854,116.818 69.011,115.807 72.045,114.593 L74.371,126.626 C71.539,128.041 65.169,129.559 56.878,129.559 C33.318,129.559 21.184,114.897 21.184,95.483 C21.184,72.226 37.767,59.284 58.395,59.284 C66.383,59.284 72.45,60.901 75.18,62.318 L72.045,74.553 C68.91,73.239 64.562,72.025 59.102,72.025 C46.867,72.025 37.362,79.406 37.362,94.574 C37.362,108.223 45.451,116.818 59.203,116.818 Z M110.368,129.659 C90.145,129.659 78.314,114.39 78.314,94.976 C78.314,74.552 91.359,59.283 111.48,59.283 C132.41,59.283 143.837,74.956 143.837,93.763 C143.837,116.11 130.288,129.659 110.368,129.659 Z M176.915,156.282 L145.839,156.282 L145.839,150.081 L151.502,144.957 C161.074,136.396 165.725,131.475 165.86,126.353 C165.86,122.781 163.703,119.949 158.648,119.949 C154.873,119.949 151.57,121.836 149.278,123.59 L146.379,116.242 C149.682,113.748 154.806,111.726 160.737,111.726 C170.646,111.726 176.107,117.523 176.107,125.477 C176.107,132.825 170.781,138.69 164.445,144.352 L160.401,147.722 L160.401,147.857 L176.916,147.857 L176.916,156.282 L176.915,156.282 Z" id="Shape"></path>
        </g>
    </g>
</svg>
