<?xml version="1.0" encoding="UTF-8" standalone="no"?>
<!-- Created with Inkscape (http://www.inkscape.org/) -->

<svg
   xmlns:dc="http://purl.org/dc/elements/1.1/"
   xmlns:cc="http://creativecommons.org/ns#"
   xmlns:rdf="http://www.w3.org/1999/02/22-rdf-syntax-ns#"
   xmlns:svg="http://www.w3.org/2000/svg"
   xmlns="http://www.w3.org/2000/svg"
   xmlns:sodipodi="http://sodipodi.sourceforge.net/DTD/sodipodi-0.dtd"
   xmlns:inkscape="http://www.inkscape.org/namespaces/inkscape"
   width="320"
   height="240"
   viewBox="0 0 744.09449 1052.3622"
   id="svg2"
   version="1.1"
   inkscape:version="0.92.3 (2405546, 2018-03-11)"
   sodipodi:docname="donate-icon.svg">
  <defs
     id="defs4">
    <clipPath
       id="clipPath3671"
       clipPathUnits="userSpaceOnUse">
      <path
         id="path3673"
         sodipodi:nodetypes="csszs"
         style="fill:url(#radialGradient3675);fill-rule:evenodd"
         inkscape:connector-curvature="0"
         d="m 748.38,337.76 c 33.96,3.67 103.24,-40.5 67.5,-128.64 -35.73,-88.15 -146.4,-69.02 -162,-18.27 -2.95,9.6 45.52,19.72 65.91,58.77 20.4,39.04 12.02,86.36 28.59,88.14 z" />
    </clipPath>
    <clipPath
       id="clipPath3903"
       clipPathUnits="userSpaceOnUse">
      <path
         id="path3905"
         sodipodi:nodetypes="ccscs"
         style="fill:url(#linearGradient3907);fill-rule:evenodd"
         inkscape:connector-curvature="0"
         d="m 214.32,159.35 c 19.3,-6.75 57.29,-29.59 42.68,-41.84 -21.91,7.51 -56.52,-55.102 -120.73,-13.75 -36.87,23.74 12.21,90.26 -0.14,107.67 17.15,-28.61 27.96,-34.58 78.19,-52.08 z" />
    </clipPath>
    <clipPath
       id="clipPath3671-6"
       clipPathUnits="userSpaceOnUse">
      <path
         id="path3673-5"
         sodipodi:nodetypes="csszs"
         style="fill:url(#radialGradient3675);fill-rule:evenodd"
         inkscape:connector-curvature="0"
         d="m 748.38,337.76 c 33.96,3.67 103.24,-40.5 67.5,-128.64 -35.73,-88.15 -146.4,-69.02 -162,-18.27 -2.95,9.6 45.52,19.72 65.91,58.77 20.4,39.04 12.02,86.36 28.59,88.14 z" />
    </clipPath>
    <clipPath
       id="clipPath3903-4"
       clipPathUnits="userSpaceOnUse">
      <path
         id="path3905-1"
         sodipodi:nodetypes="ccscs"
         style="fill:url(#linearGradient3907);fill-rule:evenodd"
         inkscape:connector-curvature="0"
         d="m 214.32,159.35 c 19.3,-6.75 57.29,-29.59 42.68,-41.84 -21.91,7.51 -56.52,-55.102 -120.73,-13.75 -36.87,23.74 12.21,90.26 -0.14,107.67 17.15,-28.61 27.96,-34.58 78.19,-52.08 z" />
    </clipPath>
    <clipPath
       id="clipPath3671-4"
       clipPathUnits="userSpaceOnUse">
      <path
         id="path3673-8"
         sodipodi:nodetypes="csszs"
         style="fill:url(#radialGradient3675);fill-rule:evenodd"
         inkscape:connector-curvature="0"
         d="m 748.38,337.76 c 33.96,3.67 103.24,-40.5 67.5,-128.64 -35.73,-88.15 -146.4,-69.02 -162,-18.27 -2.95,9.6 45.52,19.72 65.91,58.77 20.4,39.04 12.02,86.36 28.59,88.14 z" />
    </clipPath>
    <clipPath
       id="clipPath3903-3"
       clipPathUnits="userSpaceOnUse">
      <path
         id="path3905-3"
         sodipodi:nodetypes="ccscs"
         style="fill:url(#linearGradient3907);fill-rule:evenodd"
         inkscape:connector-curvature="0"
         d="m 214.32,159.35 c 19.3,-6.75 57.29,-29.59 42.68,-41.84 -21.91,7.51 -56.52,-55.102 -120.73,-13.75 -36.87,23.74 12.21,90.26 -0.14,107.67 17.15,-28.61 27.96,-34.58 78.19,-52.08 z" />
    </clipPath>
  </defs>
  <sodipodi:namedview
     id="base"
     pagecolor="#ffffff"
     bordercolor="#666666"
     borderopacity="1.0"
     inkscape:pageopacity="0.0"
     inkscape:pageshadow="2"
     inkscape:zoom="1.6443934"
     inkscape:cx="-20.516868"
     inkscape:cy="129.10305"
     inkscape:document-units="px"
     inkscape:current-layer="layer1"
     showgrid="false"
     inkscape:window-width="1920"
     inkscape:window-height="1017"
     inkscape:window-x="-8"
     inkscape:window-y="-8"
     inkscape:window-maximized="1"
     showguides="false" />
  <metadata
     id="metadata7">
    <rdf:RDF>
      <cc:Work
         rdf:about="">
        <dc:format>image/svg+xml</dc:format>
        <dc:type
           rdf:resource="http://purl.org/dc/dcmitype/StillImage" />
        <dc:title />
      </cc:Work>
    </rdf:RDF>
  </metadata>
  <g
     inkscape:label="Calque 1"
     inkscape:groupmode="layer"
     id="layer1">
    <rect
       style="opacity:1;fill:none;fill-opacity:1;fill-rule:evenodd;stroke:none;stroke-width:3;stroke-linecap:round;stroke-linejoin:round;stroke-miterlimit:4;stroke-dasharray:none;stroke-dashoffset:0;stroke-opacity:1"
       id="rect4193"
       width="1504.9386"
       height="1128.704"
       x="-362.60898"
       y="-76.34185"
       ry="0" />
    <ellipse
       style="opacity:1;fill:#803300;fill-opacity:1;fill-rule:evenodd;stroke:none;stroke-width:2.77270555;stroke-linecap:round;stroke-linejoin:round;stroke-miterlimit:4;stroke-dasharray:none;stroke-dashoffset:0;stroke-opacity:1"
       id="circle4376"
       cx="-19.320454"
       cy="533.0177"
       rx="190.87506"
       ry="240.06465" />
    <path
       style="fill:none;fill-rule:evenodd;stroke:#000000;stroke-width:17.38646698;stroke-linecap:butt;stroke-linejoin:miter;stroke-miterlimit:4;stroke-dasharray:none;stroke-opacity:1"
       d="M 94.554196,692.94915 C 192.08982,760.31742 294.02556,636.6263 382.62943,650.19618"
       id="path4229"
       inkscape:connector-curvature="0"
       sodipodi:nodetypes="cc" />
    <path
       id="path4231"
       d="m -19.320419,633.48246 c -117.285091,0 -211.702301,94.4172 -211.702301,211.70231 V 1052.3622 H 192.3819 V 845.18477 c 0,-117.28511 -94.417201,-211.70231 -211.702319,-211.70231 z"
       style="opacity:1;fill:#00d400;fill-opacity:1;fill-rule:evenodd;stroke:none;stroke-width:2.77270555;stroke-linecap:round;stroke-linejoin:round;stroke-miterlimit:4;stroke-dasharray:none;stroke-dashoffset:0;stroke-opacity:1"
       inkscape:connector-curvature="0" />
    <path
       sodipodi:nodetypes="cc"
       inkscape:connector-curvature="0"
       id="path4227"
       d="m -142.99856,701.09275 c -122.70701,-7.92514 -164.14665,245.14992 2.36908,290.89985"
       style="fill:none;fill-rule:evenodd;stroke:#000000;stroke-width:17.38646698;stroke-linecap:butt;stroke-linejoin:miter;stroke-miterlimit:4;stroke-dasharray:none;stroke-opacity:1" />
    <path
       style="opacity:1;fill:#00d400;fill-opacity:1;fill-rule:evenodd;stroke:none;stroke-width:2.77270555;stroke-linecap:round;stroke-linejoin:round;stroke-miterlimit:4;stroke-dasharray:none;stroke-dashoffset:0;stroke-opacity:1"
       d="m -19.321916,633.48247 c -72.31692,0 -135.895014,35.92843 -174.051434,90.94786 H 154.73801 C 116.58159,669.4109 52.995017,633.48247 -19.321916,633.48247 Z"
       id="path4396"
       inkscape:connector-curvature="0" />
    <circle
       r="160.60452"
       cy="483.82812"
       cx="-19.320454"
       id="circle4233"
       style="opacity:1;fill:#ffcc00;fill-opacity:1;fill-rule:evenodd;stroke:none;stroke-width:2.77270555;stroke-linecap:round;stroke-linejoin:round;stroke-miterlimit:4;stroke-dasharray:none;stroke-dashoffset:0;stroke-opacity:1" />
    <circle
       style="opacity:1;fill:#ffcc00;fill-opacity:1;fill-rule:evenodd;stroke:none;stroke-width:2.77270555;stroke-linecap:round;stroke-linejoin:round;stroke-miterlimit:4;stroke-dasharray:none;stroke-dashoffset:0;stroke-opacity:1"
       id="circle4243"
       cx="-122.2131"
       cy="1006.2232"
       r="32.850918" />
    <path
       style="opacity:1;fill:#803300;fill-opacity:1;fill-rule:evenodd;stroke:none;stroke-width:2.77270555;stroke-linecap:round;stroke-linejoin:round;stroke-miterlimit:4;stroke-dasharray:none;stroke-dashoffset:0;stroke-opacity:1"
       d="m -18.574857,674.68196 a 190.87505,132.85654 0 0 1 -0.747059,0.0169 190.87505,132.85654 0 0 1 -0.54333,-0.0169 190.87505,190.87505 0 0 0 0.54333,0.0254 190.87505,190.87505 0 0 0 0.747059,-0.0254 z"
       id="path4392"
       inkscape:connector-curvature="0" />
    <path
       style="opacity:1;fill:#aa4400;fill-opacity:1;fill-rule:evenodd;stroke:none;stroke-width:2.77270555;stroke-linecap:round;stroke-linejoin:round;stroke-miterlimit:4;stroke-dasharray:none;stroke-dashoffset:0;stroke-opacity:1"
       d="M -19.321916,292.95221 A 190.87505,190.87505 0 0 0 -210.1995,483.8298 a 190.87505,190.87505 0 0 0 3.2175,34.36544 190.87505,132.85654 0 0 1 0.59428,-2.74212 190.87505,132.85654 0 0 1 4.72015,-12.87006 190.87505,132.85654 0 0 1 6.53688,-12.47106 190.87505,132.85654 0 0 1 8.30274,-11.96166 190.87505,132.85654 0 0 1 9.97512,-11.31647 190.87505,132.85654 0 0 1 11.54571,-10.57793 190.87505,132.85654 0 0 1 13.0059,-9.71194 190.87505,132.85654 0 0 1 14.33023,-8.76966 190.87505,132.85654 0 0 1 15.51882,-7.72542 190.87505,132.85654 0 0 1 16.55447,-6.60483 190.87505,132.85654 0 0 1 17.411948,-5.42477 190.87505,132.85654 0 0 1 18.108087,-4.18532 190.87505,132.85654 0 0 1 18.617421,-2.9119 190.87505,132.85654 0 0 1 18.940039,-1.59602 190.87505,132.85654 0 0 1 13.498289,-0.33958 190.87505,132.85654 0 0 1 19.05886696,0.67067 190.87505,132.85654 0 0 1 18.86366804,1.97804 190.87505,132.85654 0 0 1 18.490074,3.28545 190.87505,132.85654 0 0 1 17.92132,4.55884 190.87505,132.85654 0 0 1 17.174221,5.77285 190.87505,132.85654 0 0 1 16.265869,6.9444 190.87505,132.85654 0 0 1 15.196157,8.03955 190.87505,132.85654 0 0 1 13.95673,9.0498 190.87505,132.85654 0 0 1 12.58992,9.97514 190.87505,132.85654 0 0 1 11.10422,10.79861 190.87505,132.85654 0 0 1 9.49128,11.52022 190.87505,132.85654 0 0 1 7.79335,12.12302 190.87505,132.85654 0 0 1 6.01902,12.60689 190.87505,132.85654 0 0 1 3.7354,11.57964 190.87505,190.87505 0 0 0 3.2175,-34.05982 190.87505,190.87505 0 0 0 -190.877596,-190.87759 z"
       id="circle4385"
       inkscape:connector-curvature="0" />
    <g
       transform="matrix(0.99128232,0,0,0.99128232,1257.1794,170.06799)"
       id="g4235">
      <circle
         style="opacity:1;fill:#000000;fill-opacity:1;fill-rule:evenodd;stroke:none;stroke-width:3;stroke-linecap:round;stroke-linejoin:round;stroke-miterlimit:4;stroke-dasharray:none;stroke-dashoffset:0;stroke-opacity:1"
         id="circle4237"
         cx="-1327.4045"
         cy="334.33255"
         r="22.09322" />
      <circle
         r="22.09322"
         cy="334.33255"
         cx="-1213.2562"
         id="circle4239"
         style="opacity:1;fill:#000000;fill-opacity:1;fill-rule:evenodd;stroke:none;stroke-width:3;stroke-linecap:round;stroke-linejoin:round;stroke-miterlimit:4;stroke-dasharray:none;stroke-dashoffset:0;stroke-opacity:1" />
    </g>
    <path
       inkscape:connector-curvature="0"
       style="opacity:1;fill:#000000;fill-opacity:1;fill-rule:evenodd;stroke:none;stroke-width:2.77270555;stroke-linecap:round;stroke-linejoin:round;stroke-miterlimit:4;stroke-dasharray:none;stroke-dashoffset:0;stroke-opacity:1"
       d="M -58.92296,567.77904 A 67.221244,100.37782 0 0 0 -7.1359717,604.28385 67.221244,100.37782 0 0 0 44.679566,567.77904 Z"
       id="path4241" />
    <path
       sodipodi:nodetypes="cscc"
       d="m 525.34604,956.69815 c 0,0 0.20934,26.0329 -14.69865,33.80088 -10.64642,5.54752 -33.1654,-6.09327 -33.1654,-6.09327 z"
       inkscape:connector-curvature="0"
       style="fill:#de8787;fill-rule:evenodd;stroke:none;stroke-width:2.24292612"
       id="path3176" />
    <path
       sodipodi:nodetypes="cccz"
       d="m 487.96393,728.04675 c 15.43882,5.1976 23.13953,29.57823 21.67415,40.07514 l -67.9831,-27.61044 c 10.07074,-2.98308 30.78042,-17.69071 46.30895,-12.4647 z"
       inkscape:connector-curvature="0"
       style="fill:#de8787;fill-rule:evenodd;stroke:none;stroke-width:2.24292612"
       id="path4389" />
    <path
       sodipodi:nodetypes="ssss"
       d="m 335.39261,1022.528 c 8.64274,7.5512 11.13987,30.2421 38.29423,29.3898 27.16931,-0.8523 31.43088,-21.3526 43.34081,-26.7282 11.40902,-5.1437 -90.41983,-10.3474 -81.63504,-2.6616 z"
       inkscape:connector-curvature="0"
       style="fill:#de8787;fill-rule:evenodd;stroke:none;stroke-width:2.24292612"
       id="path2404" />
    <path
       inkscape:connector-curvature="0"
       style="fill:#e9afaf;fill-rule:evenodd;stroke:none;stroke-width:2.24292612"
       sodipodi:nodetypes="csssssscccc"
       d="m 411.40538,731.41114 c -23.32643,0.015 -46.81735,4.34379 -68.57372,12.36602 -61.72534,22.75074 -95.16737,73.54555 -103.31668,106.2773 -30.63089,123.0245 87.10031,164.78774 95.88511,172.47354 8.64274,7.5512 69.7251,8.0372 81.63504,2.6616 11.40901,-5.1437 32.07385,-1.8466 92.02726,-48.08082 59.66932,-46.01739 61.34404,-145.70796 20.79941,-194.1552 -15.26685,-18.23499 -32.25329,-30.36174 -52.97044,-38.75774 -2.36255,-0.52335 -5.71199,-0.71775 -7.46148,-0.78504 -0.64297,-1.06914 -1.39809,-2.01863 -2.57936,-3.14011 -17.6892,-6.02597 -36.51484,-8.86703 -55.44514,-8.85955 z"
       id="path3996" />
    <path
       sodipodi:nodetypes="csszs"
       d="m 415.21835,907.04723 c 25.38993,2.74385 77.18658,-30.27951 50.46585,-96.17668 -26.71326,-65.90465 -109.4548,-51.60226 -121.11802,-13.65941 -2.20554,7.17735 34.03267,14.74347 49.2771,43.9389 15.25189,29.18798 8.98665,64.56639 21.37507,65.89719 z"
       inkscape:connector-curvature="0"
       style="fill:#de8787;fill-rule:evenodd;stroke:none;stroke-width:2.24292612"
       id="path3178" />
    <path
       sodipodi:nodetypes="ccscs"
       d="m 315.02684,773.6604 c 14.42949,-5.04658 42.83242,-22.12271 31.90936,-31.28133 -16.38083,5.61477 -42.25673,-41.19657 -90.26283,-10.28009 -27.56556,17.74901 9.12871,67.48217 -0.10466,80.49863 12.82206,-21.39003 20.90407,-25.85347 58.45813,-38.93721 z"
       inkscape:connector-curvature="0"
       style="fill:#de8787;fill-rule:evenodd;stroke:none;stroke-width:2.24292612"
       id="path3180" />
    <path
       sodipodi:nodetypes="czzzzc"
       d="m 240.70375,881.52273 c -7.09514,9.45766 -23.15448,13.65195 -24.04417,33.83827 -0.89718,20.48541 16.24625,57.26939 41.26235,64.41685 24.93388,7.12502 27.61043,-0.88968 40.37268,-0.29158 12.47067,0.57567 13.36037,-49.57614 -8.90442,-73.02969 -22.11524,-23.29652 -38.29423,-27.0123 -48.68644,-24.93385 z"
       inkscape:connector-curvature="0"
       style="fill:#de8787;fill-rule:evenodd;stroke:none;stroke-width:2.24292612"
       id="path4010" />
    <path
       inkscape:connector-curvature="0"
       d="m 224.81633,895.98961 c -4.31502,4.53458 -7.75678,10.35258 -8.15378,19.39231 -0.89688,20.48168 16.23878,57.28286 41.26087,64.43779 9.30441,2.65884 15.49414,3.19827 20.2798,2.8738 1.27532,-5.73726 1.98588,-11.76191 1.98588,-17.98977 0,-37.51368 -24.6976,-67.99581 -55.37186,-68.71279 z"
       style="fill:#e9afaf;stroke:none;stroke-width:2.24292612"
       id="path4032" />
    <path
       inkscape:connector-curvature="0"
       transform="matrix(0.74764209,0,0,0.74764209,-144.26465,654.52364)"
       sodipodi:nodetypes="cscc"
       clip-path="url(#clipPath3671)"
       d="m 648.58,197.53 c 0,0 53.17,-24.13 87.59,5.62 45.49,39.3 3.93,142.06 3.93,142.06 z"
       style="opacity:0.9;fill:#a8443f;fill-rule:evenodd;stroke:none;stroke-width:3"
       id="path4399" />
    <path
       inkscape:connector-curvature="0"
       transform="matrix(0.74764209,0,0,0.74764209,154.79219,654.52364)"
       sodipodi:nodetypes="cssc"
       clip-path="url(#clipPath3903)"
       d="m 213.76,163.84 c -27.51,-7.3 -62.33,-54.47 -82.54,-35.94 -14.93,13.68 16.28,76.37 7.86,83.67 -8.42,7.3 88.21,-44 74.68,-47.73 z"
       style="opacity:0.9;fill:#a8443e;fill-rule:evenodd;stroke:none;stroke-width:3"
       id="path4401" />
    <path
       sodipodi:nodetypes="czzzzzcczzzzz"
       d="m 223.9416,916.25819 c -2.68403,2.49712 -1.20371,21.96571 1.31585,29.68137 2.51955,7.71567 7.77548,14.32482 9.50254,13.06879 1.63733,-1.18875 2.06348,-11.24453 0.31401,-19.00506 -1.78687,-7.8652 -2.29527,-21.39004 -4.74753,-22.27226 -2.39993,-0.86725 -3.78307,-3.89522 -6.38487,-1.47284 z m 19.5957,15.57338 c -2.75879,1.87658 -3.40924,15.25937 -2.5345,23.15449 1.12894,8.74738 7.768,20.92648 13.80147,22.42176 6.03347,1.48781 7.41662,-0.44111 6.08581,-9.20348 -1.33828,-8.75488 -4.89706,-17.50976 -5.4877,-23.15445 -0.59811,-5.63725 -0.17196,-8.02969 -3.8653,-10.67636 -3.70083,-2.65412 -5.24845,-4.41853 -7.99978,-2.54196 z"
       inkscape:connector-curvature="0"
       style="opacity:0.95;fill:#a73c39;fill-rule:evenodd;stroke:none;stroke-width:2.24292612"
       id="path4668" />
    <path
       d="m 438.76908,735.66524 c -33.65136,0.10467 -67.10087,12.75478 -83.28732,22.75821 0.74764,2.67656 12.85196,6.21291 16.20888,6.00356 34.25695,-10.65388 65.53083,-23.84231 97.80653,-20.97881 -0.70278,-1.73455 -2.84851,-3.5214 -5.62974,-5.23351 -8.20163,-1.79432 -16.65746,-2.57189 -25.09835,-2.54945 z"
       inkscape:connector-curvature="0"
       style="fill:#de8787;fill-rule:evenodd;stroke:none;stroke-width:2.24292612"
       id="path4685" />
    <path
       d="m 445.87168,742.4912 c -28.03657,0.23177 -54.24891,8.28387 -79.8407,21.0237 2.36255,0.60559 4.5008,0.97941 5.62975,0.91211 30.90005,-9.60718 59.37025,-21.28536 88.34139,-21.37509 -4.76249,-0.41119 -9.48011,-0.60558 -14.13044,-0.56072 z"
       inkscape:connector-curvature="0"
       style="opacity:0.75;fill:#aa4b45;fill-rule:evenodd;stroke:none;stroke-width:2.24292612"
       id="path4759" />
    <ellipse
       transform="rotate(28.169504)"
       style="fill:#ffffff;stroke:none;stroke-width:2.68040347"
       id="path3929"
       cx="635.40411"
       cy="617.3938"
       rx="7.3067079"
       ry="13.92224" />
    <path
       inkscape:connector-curvature="0"
       sodipodi:nodetypes="asasa"
       d="m 274.11823,843.6436 c -1.06256,4.30549 -7.58354,9.17673 -11.14099,7.27168 -3.55738,-1.90502 -3.42186,-10.23672 -0.3452,-13.54203 1.77101,-1.90258 4.23221,-2.26447 7.78958,-0.35945 3.55738,1.90501 4.30282,4.17331 3.69658,6.62985 z"
       style="fill:#2b1100;stroke:none;stroke-width:2.6803689"
       id="path3931" />
    <ellipse
       transform="rotate(28.169743)"
       style="fill:#ffffff;stroke:none;stroke-width:2.6803751"
       id="path3951"
       cx="690.28442"
       cy="614.5058"
       rx="8.3269606"
       ry="15.866236" />
    <path
       inkscape:connector-curvature="0"
       sodipodi:nodetypes="asasa"
       d="m 324.49522,867.7057 c -1.21095,4.90668 -8.64247,10.45806 -12.69666,8.28698 -4.0541,-2.17103 -3.89961,-11.66609 -0.39334,-15.43293 2.01831,-2.16823 4.82316,-2.58063 8.87727,-0.4096 4.05409,2.17103 4.9036,4.75608 4.2127,7.55561 z"
       style="fill:#2b1100;stroke:none;stroke-width:2.68039155"
       id="path3953" />
    <ellipse
       style="opacity:1;fill:#f5d558;fill-opacity:1;fill-rule:nonzero;stroke:none;stroke-width:6.45950747;stroke-linecap:round;stroke-linejoin:round;stroke-miterlimit:4;stroke-dasharray:none;stroke-dashoffset:0;stroke-opacity:1"
       id="path1115"
       cx="408.74368"
       cy="698.74292"
       rx="44.867676"
       ry="47.195499" />
    <circle
       cy="698.74292"
       cx="408.74368"
       id="ellipse1117"
       style="opacity:1;fill:#cbc4ac;fill-opacity:1;fill-rule:nonzero;stroke:none;stroke-width:6.45950747;stroke-linecap:round;stroke-linejoin:round;stroke-miterlimit:4;stroke-dasharray:none;stroke-dashoffset:0;stroke-opacity:1"
       r="34.411644" />
    <circle
       r="32.850918"
       cy="661.12854"
       cx="381.50751"
       id="circle4245"
       style="opacity:1;fill:#ffcc00;fill-opacity:1;fill-rule:evenodd;stroke:none;stroke-width:2.77270555;stroke-linecap:round;stroke-linejoin:round;stroke-miterlimit:4;stroke-dasharray:none;stroke-dashoffset:0;stroke-opacity:1" />
    <path
       id="path3111"
       d="m -19.321697,909.93834 c 0,0 -102.590243,-73.13468 -102.590243,-116.81162 0,-44.18566 25.90197,-58.91353 51.295121,-58.91353 38.599713,0 51.295122,44.18564 51.295122,44.18564 0,0 13.2066225,-44.18564 51.297635,-44.18564 25.901858,0 51.29518,14.72787 51.29518,58.91353 0,43.67694 -102.592815,116.81162 -102.592815,116.81162 z"
       style="fill:#ff0000;fill-opacity:1;fill-rule:evenodd;stroke:none;stroke-width:6.34851074"
       inkscape:connector-curvature="0" />
    <path
       style="fill:none;fill-rule:evenodd;stroke:#000000;stroke-width:17.38646698;stroke-linecap:butt;stroke-linejoin:miter;stroke-miterlimit:4;stroke-dasharray:none;stroke-opacity:1"
       d="M 672.27989,706.48441 C 528.66084,728.35093 514.18048,591.27754 493.42494,461.9275"
       id="path1205"
       inkscape:connector-curvature="0"
       sodipodi:nodetypes="cc" />
    <rect
       style="opacity:1;fill:#000000;fill-opacity:1;fill-rule:evenodd;stroke:none;stroke-width:2.77270555;stroke-linecap:round;stroke-linejoin:round;stroke-miterlimit:4;stroke-dasharray:none;stroke-dashoffset:0;stroke-opacity:1"
       id="rect1209"
       width="285.88333"
       height="121.57877"
       x="675.12769"
       y="930.78339" />
    <path
       inkscape:connector-curvature="0"
       style="opacity:1;fill:#0066ff;fill-opacity:1;fill-rule:evenodd;stroke:none;stroke-width:2.77270555;stroke-linecap:round;stroke-linejoin:round;stroke-miterlimit:4;stroke-dasharray:none;stroke-dashoffset:0;stroke-opacity:1"
       d="m 806.04824,633.48246 c -117.28508,0 -211.70227,94.4172 -211.70227,211.70231 V 1052.3622 H 1017.7506 V 845.18477 c 0,-117.28511 -94.41728,-211.70231 -211.70236,-211.70231 z"
       id="path1211" />
    <circle
       style="opacity:1;fill:#ffcc00;fill-opacity:1;fill-rule:evenodd;stroke:none;stroke-width:2.77270555;stroke-linecap:round;stroke-linejoin:round;stroke-miterlimit:4;stroke-dasharray:none;stroke-dashoffset:0;stroke-opacity:1"
       id="circle1213"
       cx="806.04822"
       cy="483.82812"
       r="160.60452" />
    <g
       id="g1219"
       transform="matrix(0.99128232,0,0,0.99128232,2065.3042,152.41017)">
      <circle
         r="22.09322"
         cy="334.33255"
         cx="-1327.4045"
         id="circle1215"
         style="opacity:1;fill:#000000;fill-opacity:1;fill-rule:evenodd;stroke:none;stroke-width:3;stroke-linecap:round;stroke-linejoin:round;stroke-miterlimit:4;stroke-dasharray:none;stroke-dashoffset:0;stroke-opacity:1" />
      <circle
         style="opacity:1;fill:#000000;fill-opacity:1;fill-rule:evenodd;stroke:none;stroke-width:3;stroke-linecap:round;stroke-linejoin:round;stroke-miterlimit:4;stroke-dasharray:none;stroke-dashoffset:0;stroke-opacity:1"
         id="circle1217"
         cx="-1213.2562"
         cy="334.33255"
         r="22.09322" />
    </g>
    <path
       id="path1221"
       d="m 754.24698,567.77904 a 67.221244,100.37782 0 0 0 51.78702,36.50481 67.221244,100.37782 0 0 0 51.8155,-36.50481 z"
       style="opacity:1;fill:#000000;fill-opacity:1;fill-rule:evenodd;stroke:none;stroke-width:2.77270555;stroke-linecap:round;stroke-linejoin:round;stroke-miterlimit:4;stroke-dasharray:none;stroke-dashoffset:0;stroke-opacity:1"
       inkscape:connector-curvature="0" />
    <g
       id="g1239"
       transform="matrix(0.98273273,0.12991112,-0.12991112,0.98273273,1664.4463,-99.863756)">
      <rect
         ry="22.902554"
         y="495.64435"
         x="-1161.1514"
         height="221.39134"
         width="119.60222"
         id="rect1223"
         style="opacity:1;fill:#1a1a1a;fill-opacity:1;fill-rule:evenodd;stroke:none;stroke-width:3;stroke-linecap:round;stroke-linejoin:round;stroke-miterlimit:4;stroke-dasharray:none;stroke-dashoffset:0;stroke-opacity:1" />
      <rect
         ry="0"
         y="516.00214"
         x="-1151.6085"
         height="180.6757"
         width="100.51676"
         id="rect1225"
         style="opacity:1;fill:#cccccc;fill-opacity:1;fill-rule:evenodd;stroke:none;stroke-width:3;stroke-linecap:round;stroke-linejoin:round;stroke-miterlimit:4;stroke-dasharray:none;stroke-dashoffset:0;stroke-opacity:1" />
      <g
         id="g1233"
         transform="matrix(0.45652172,0,0,0.45652172,-585.781,182.37136)">
        <rect
           ry="20.471766"
           y="813.15784"
           x="-1157.3344"
           height="119.27029"
           width="55.984013"
           id="rect1227"
           style="opacity:1;fill:#ff0000;fill-opacity:1;fill-rule:evenodd;stroke:none;stroke-width:3;stroke-linecap:round;stroke-linejoin:round;stroke-miterlimit:4;stroke-dasharray:none;stroke-dashoffset:0;stroke-opacity:1" />
        <rect
           style="opacity:1;fill:#280b0b;fill-opacity:1;fill-rule:evenodd;stroke:none;stroke-width:3;stroke-linecap:round;stroke-linejoin:round;stroke-miterlimit:4;stroke-dasharray:none;stroke-dashoffset:0;stroke-opacity:1"
           id="rect1229"
           width="117.05749"
           height="249.38335"
           x="-1187.8711"
           y="856.41821"
           ry="42.804604" />
        <path
           inkscape:connector-curvature="0"
           style="opacity:1;fill:#ff0000;fill-opacity:1;fill-rule:evenodd;stroke:none;stroke-width:3;stroke-linecap:round;stroke-linejoin:round;stroke-miterlimit:4;stroke-dasharray:none;stroke-dashoffset:0;stroke-opacity:1"
           d="m -1187.869,920.03759 v 122.14181 h 117.0547 V 920.03759 Z"
           id="path1231" />
      </g>
      <rect
         style="opacity:1;fill:#ffffff;fill-opacity:0.30275233;fill-rule:evenodd;stroke:none;stroke-width:3;stroke-linecap:round;stroke-linejoin:round;stroke-miterlimit:4;stroke-dasharray:none;stroke-dashoffset:0;stroke-opacity:1"
         id="rect1235"
         width="100.51676"
         height="157.77315"
         x="-1151.6085"
         y="538.90472"
         ry="0" />
      <path
         style="opacity:1;fill:#ffffff;fill-opacity:0.49803922;fill-rule:evenodd;stroke:none;stroke-width:3;stroke-linecap:round;stroke-linejoin:round;stroke-miterlimit:4;stroke-dasharray:none;stroke-dashoffset:0;stroke-opacity:1"
         d="m -1151.6085,516.00214 100.5167,180.6757 h -100.5167 z"
         id="path1237"
         inkscape:connector-curvature="0"
         sodipodi:nodetypes="cccc" />
    </g>
    <circle
       r="32.850918"
       cy="465.57761"
       cx="489.77475"
       id="circle1241"
       style="opacity:1;fill:#ffcc00;fill-opacity:1;fill-rule:evenodd;stroke:none;stroke-width:2.77270555;stroke-linecap:round;stroke-linejoin:round;stroke-miterlimit:4;stroke-dasharray:none;stroke-dashoffset:0;stroke-opacity:1" />
    <g
       id="g1259"
       transform="matrix(0.92423522,0,0,0.92423522,730.77307,62.480411)">
      <g
         transform="matrix(0.82432162,0,0,0.82432162,7.7296188,58.282504)"
         id="g1251">
        <path
           inkscape:connector-curvature="0"
           id="path1245"
           style="font-style:normal;font-variant:normal;font-weight:normal;font-stretch:normal;font-size:medium;line-height:89.99999762%;font-family:'Open Sans';-inkscape-font-specification:'Open Sans';text-align:center;letter-spacing:0px;word-spacing:0px;text-anchor:middle;fill:#ffffff;fill-opacity:1;stroke:none;stroke-width:1px;stroke-linecap:butt;stroke-linejoin:miter;stroke-opacity:1"
           d="m -100.30042,852.16505 27.183815,-50.95223 h 12.825188 l -34.014627,62.38338 v 39.52109 H -106.2948 v -38.96348 l -33.94492,-62.94099 h 12.96459 z" />
        <path
           inkscape:connector-curvature="0"
           id="path1247"
           style="font-style:normal;font-variant:normal;font-weight:normal;font-stretch:normal;font-size:medium;line-height:89.99999762%;font-family:'Open Sans';-inkscape-font-specification:'Open Sans';text-align:center;letter-spacing:0px;word-spacing:0px;text-anchor:middle;fill:#ffffff;fill-opacity:1;stroke:none;stroke-width:1px;stroke-linecap:butt;stroke-linejoin:miter;stroke-opacity:1"
           d="m -15.682072,904.51133 q -16.937611,0 -26.765608,-10.31591 -9.758295,-10.31591 -9.758295,-28.64756 0,-18.47106 9.061274,-29.34459 9.130975,-10.87353 24.465439,-10.87353 14.3586283,0 22.7228783,9.47949 8.3642497,9.40979 8.3642497,24.88365 v 7.31872 h -52.625079 q 0.348511,13.45251 6.761105,20.42272 6.482296,6.97021 18.192249,6.97021 12.3372653,0 24.3957353,-5.15796 v 10.31591 q -6.13378,2.64869 -11.64025,3.76392 -5.43677,1.18493 -13.1736983,1.18493 z m -3.136594,-69.493 q -9.200677,0 -14.707145,5.99438 -5.436764,5.99438 -6.412593,16.58911 H 9.0630577e-4 q 0,-10.94324 -4.87915000577,-16.7285 -4.8791507,-5.85499 -13.9404223,-5.85499 z" />
        <path
           inkscape:connector-curvature="0"
           id="path1249"
           style="font-style:normal;font-variant:normal;font-weight:normal;font-stretch:normal;font-size:medium;line-height:89.99999762%;font-family:'Open Sans';-inkscape-font-specification:'Open Sans';text-align:center;letter-spacing:0px;word-spacing:0px;text-anchor:middle;fill:#ffffff;fill-opacity:1;stroke:none;stroke-width:1px;stroke-linecap:butt;stroke-linejoin:miter;stroke-opacity:1"
           d="m 81.343256,882.27636 q 0,10.66443 -7.94605,16.44969 -7.94603,5.78528 -22.30466,5.78528 -15.19507,0 -23.69873,-4.80944 v -10.73412 q 5.50647,2.78807 11.77966,4.39122 6.34289,1.60316 12.19788,1.60316 9.06127,0 13.94041,-2.8578 4.87915,-2.92748 4.87915,-8.85216 0,-4.46093 -3.90332,-7.59753 -3.83361,-3.20629 -15.05565,-7.52783 -10.66442,-3.97302 -15.19506,-6.9005 -4.46093,-2.99719 -6.6914,-6.76111 -2.16077,-3.76391 -2.16077,-8.99157 0,-9.34009 7.59753,-14.70715 7.59754,-5.43676 20.84094,-5.43676 12.33727,0 24.11691,5.01856 l -4.11242,9.40977 q -11.50085,-4.73974 -20.84093,-4.73974 -8.22484,0 -12.40696,2.57899 -4.18213,2.57897 -4.18213,7.10961 0,3.06689 1.53344,5.22766 1.60315,2.16076 5.08826,4.11242 3.4851,1.95165 13.3828,5.64587 13.59191,4.94885 18.33165,9.9674 4.80945,5.01855 4.80945,12.61608 z" />
      </g>
      <g
         transform="matrix(0.82432162,0,0,0.82432162,50.688504,61.391064)"
         id="g1257">
        <path
           inkscape:connector-curvature="0"
           id="path1253"
           style="font-style:normal;font-variant:normal;font-weight:normal;font-stretch:normal;font-size:medium;line-height:89.99999762%;font-family:'Open Sans';-inkscape-font-specification:'Open Sans';text-align:center;letter-spacing:0px;word-spacing:0px;text-anchor:middle;fill:#ffffff;fill-opacity:1;stroke:none;stroke-width:1px;stroke-linecap:butt;stroke-linejoin:miter;stroke-opacity:1"
           d="m 174.29349,903.3762 h -11.70995 l -20.56212,-68.23835 q -1.46375,-4.53064 -3.276,-11.43115 -1.81226,-6.90051 -1.88196,-8.29456 -1.53345,9.20069 -4.87915,20.14391 l -19.9348,67.82015 H 100.33956 L 73.225439,801.47173 H 85.771818 L 101.873,864.41272 q 3.3457,13.2434 4.87915,23.97753 1.88196,-12.75549 5.57617,-24.95335 l 18.26195,-61.96517 h 12.54638 l 19.16808,62.52279 q 3.3457,10.80382 5.64587,24.39573 1.32434,-9.89769 5.01855,-24.11693 l 16.03148,-62.80159 h 12.54639 z" />
        <path
           inkscape:connector-curvature="0"
           id="path1255"
           style="font-style:normal;font-variant:normal;font-weight:normal;font-stretch:normal;font-size:medium;line-height:89.99999762%;font-family:'Open Sans';-inkscape-font-specification:'Open Sans';text-align:center;letter-spacing:0px;word-spacing:0px;text-anchor:middle;fill:#ffffff;fill-opacity:1;stroke:none;stroke-width:1px;stroke-linecap:butt;stroke-linejoin:miter;stroke-opacity:1"
           d="m 248.03831,904.77024 q -16.93761,0 -26.7656,-10.3159 -9.75829,-10.31592 -9.75829,-28.64757 0,-18.47106 9.06126,-29.34459 9.13098,-10.87352 24.46544,-10.87352 14.35863,0 22.72288,9.47948 8.36427,9.40979 8.36427,24.88365 v 7.31872 h -52.62509 q 0.3485,13.45251 6.7611,20.42272 6.4823,6.97021 18.19225,6.97021 12.33727,0 24.39574,-5.15796 v 10.31592 q -6.13379,2.64868 -11.64026,3.76391 -5.43677,1.18493 -13.1737,1.18493 z m -3.1366,-69.493 q -9.20067,0 -14.70714,5.99438 -5.43676,5.99438 -6.41258,16.58911 h 39.9393 q 0,-10.94323 -4.87915,-16.7285 -4.87915,-5.85499 -13.94043,-5.85499 z" />
      </g>
    </g>
    <g
       id="g1271"
       transform="matrix(0.92423522,0,0,0.92423522,730.77307,62.480411)">
      <path
         d="m -32.433908,892.74227 q 0,13.4525 -9.758294,20.9803 -9.758295,7.5279 -26.486799,7.5279 -18.122547,0 -27.880837,-4.6701 v -11.4312 q 6.27318,2.6488 13.66161,4.1822 7.388421,1.5334 14.63744,1.5334 11.849357,0 17.843737,-4.4609 5.994381,-4.5306 5.994381,-12.5464 0,-5.2973 -2.160765,-8.64298 -2.091063,-3.41545 -7.109615,-6.27324 -4.948848,-2.85778 -15.125356,-6.48229 -14.219232,-5.08825 -20.353012,-12.05847 -6.06408,-6.97021 -6.06408,-18.19225 0,-11.77966 8.85216,-18.74986 8.85217,-6.97021 23.41991,-6.97021 15.195057,0 27.950542,5.57616 l -3.694211,10.31592 q -12.61608,-5.29736 -24.53514,-5.29736 -9.409784,0 -14.707141,4.04272 -5.29736,4.04272 -5.29736,11.22204 0,5.29735 1.95166,8.71276 1.95166,3.3457 6.551993,6.20348 4.670042,2.78809 14.21923,6.2035 16.031483,5.71557 22.025864,12.26757 6.064083,6.55199 6.064083,17.00731 z"
         style="font-style:normal;font-variant:normal;font-weight:normal;font-stretch:normal;font-size:medium;line-height:89.99999762%;font-family:'Open Sans';-inkscape-font-specification:'Open Sans';text-align:center;letter-spacing:0px;word-spacing:0px;text-anchor:middle;fill:#ffffff;fill-opacity:1;stroke:none;stroke-width:1px;stroke-linecap:butt;stroke-linejoin:miter;stroke-opacity:1"
         id="path1261"
         inkscape:connector-curvature="0" />
      <path
         d="m 28.867773,921.25047 q -16.5891,0 -25.7200751,-10.1765 -9.0612737,-10.2463 -9.0612737,-28.92643 0,-19.16807 9.2006775,-29.62339 9.2703793,-10.45531 26.3473943,-10.45531 5.506467,0 11.012932,1.18494 5.506466,1.18493 8.643061,2.78808 l -3.554807,9.828 q -3.833615,-1.53345 -8.364253,-2.50928 -4.530636,-1.04553 -8.015741,-1.04553 -23.2805024,0 -23.2805024,29.69309 0,14.07983 5.6458704,21.60763 5.715572,7.5279 16.867909,7.5279 9.549188,0 19.58629,-4.1125 v 10.2463 q -7.667231,3.973 -19.307482,3.973 z"
         style="font-style:normal;font-variant:normal;font-weight:normal;font-stretch:normal;font-size:medium;line-height:89.99999762%;font-family:'Open Sans';-inkscape-font-specification:'Open Sans';text-align:center;letter-spacing:0px;word-spacing:0px;text-anchor:middle;fill:#ffffff;fill-opacity:1;stroke:none;stroke-width:1px;stroke-linecap:butt;stroke-linejoin:miter;stroke-opacity:1"
         id="path1263"
         inkscape:connector-curvature="0" />
      <path
         d="m 128.50561,919.85637 -2.30017,-10.8735 h -0.55761 q -5.71558,7.1793 -11.43115,9.7583 -5.64587,2.5093 -14.14953,2.5093 -11.361443,0 -17.843738,-5.855 -6.412594,-5.8549 -6.412594,-16.6588 0,-23.14112 37.011812,-24.25635 l 12.9646,-0.41822 v -4.73974 q 0,-8.99157 -3.90332,-13.2434 -3.83362,-4.32152 -12.33727,-4.32152 -9.549192,0 -21.607656,5.85497 l -3.554807,-8.85216 q 5.64587,-3.0669 12.337272,-4.80945 6.761101,-1.74256 13.522211,-1.74256 13.66161,0 20.21361,6.06408 6.6217,6.06409 6.6217,19.44689 v 52.13716 z m -26.13829,-8.1551 q 10.80382,0 16.93761,-5.9247 6.20349,-5.9247 6.20349,-16.5891 v -6.90052 l -11.57055,0.48791 q -13.80102,0.48792 -19.934803,4.32152 -6.064083,3.76399 -6.064083,11.77959 0,6.2732 3.763914,9.5493 3.833615,3.276 10.664422,3.276 z"
         style="font-style:normal;font-variant:normal;font-weight:normal;font-stretch:normal;font-size:medium;line-height:89.99999762%;font-family:'Open Sans';-inkscape-font-specification:'Open Sans';text-align:center;letter-spacing:0px;word-spacing:0px;text-anchor:middle;fill:#ffffff;fill-opacity:1;stroke:none;stroke-width:1px;stroke-linecap:butt;stroke-linejoin:miter;stroke-opacity:1"
         id="path1265"
         inkscape:connector-curvature="0" />
      <path
         d="m 215.87587,919.85637 v -49.41878 q 0,-9.34008 -4.25183,-13.94041 -4.25183,-4.60035 -13.3131,-4.60035 -11.98876,0 -17.56492,6.48231 -5.57618,6.48229 -5.57618,21.39853 v 40.0787 H 163.5993 v -76.39349 h 9.40977 l 1.88196,10.45531 h 0.55762 q 3.5548,-5.64587 9.9674,-8.71276 6.4126,-3.13659 14.28894,-3.13659 13.80101,0 20.77123,6.69141 6.9702,6.62168 6.9702,21.25913 v 49.83699 z"
         style="font-style:normal;font-variant:normal;font-weight:normal;font-stretch:normal;font-size:medium;line-height:89.99999762%;font-family:'Open Sans';-inkscape-font-specification:'Open Sans';text-align:center;letter-spacing:0px;word-spacing:0px;text-anchor:middle;fill:#ffffff;fill-opacity:1;stroke:none;stroke-width:1px;stroke-linecap:butt;stroke-linejoin:miter;stroke-opacity:1"
         id="path1267"
         inkscape:connector-curvature="0" />
      <path
         d="m 266.09484,891.76647 h -7.31872 l -3.55481,-73.81456 h 14.42834 z m -12.12816,20.7015 q 0,-9.4795 8.36426,-9.4795 4.04271,0 6.20348,2.4396 2.23047,2.4395 2.23047,7.0399 0,4.4609 -2.23047,6.9702 -2.23047,2.4396 -6.20348,2.4396 -3.62451,0 -5.99438,-2.1607 -2.36988,-2.2306 -2.36988,-7.2491 z"
         style="font-style:normal;font-variant:normal;font-weight:normal;font-stretch:normal;font-size:medium;line-height:89.99999762%;font-family:'Open Sans';-inkscape-font-specification:'Open Sans';text-align:center;letter-spacing:0px;word-spacing:0px;text-anchor:middle;fill:#ffffff;fill-opacity:1;stroke:none;stroke-width:1px;stroke-linecap:butt;stroke-linejoin:miter;stroke-opacity:1"
         id="path1269"
         inkscape:connector-curvature="0" />
    </g>
    <path
       inkscape:connector-curvature="0"
       style="fill:#d45500;fill-rule:evenodd;stroke:none;stroke-width:17.77012444px;stroke-linecap:butt;stroke-linejoin:miter;stroke-opacity:1"
       d="M 806.05073,280.89104 A 181.77186,181.77186 0 0 0 624.62456,455.76342 l 6.2372,6.23725 26.84071,26.84863 33.74291,-58.43854 11.05764,19.14707 29.46065,-51.02984 36.44989,36.45781 38.80864,-38.80865 0.0157,-0.095 0.0157,0.095 38.80872,38.80865 36.44981,-36.45781 29.4686,51.02984 11.04978,-19.14707 33.74288,58.43854 26.84855,-26.84863 4.02897,-4.02888 A 181.77186,181.77186 0 0 0 806.05073,280.89104 Z"
       id="path1273" />
    <path
       style="opacity:1;fill:#ffffff;fill-opacity:1;fill-rule:evenodd;stroke:none;stroke-width:2.77270555;stroke-linecap:round;stroke-linejoin:round;stroke-miterlimit:4;stroke-dasharray:none;stroke-dashoffset:0;stroke-opacity:1"
       d="m 645.05386,930.7834 v 121.5788 h 32.42106 V 930.7834 Z m 48.6315,0 v 121.5788 h 16.21053 V 930.7834 Z m 32.42105,0 v 121.5788 h 8.10528 V 930.7834 Z m 24.31571,0 v 121.5788 h 16.21054 V 930.7834 Z m 40.52633,0 v 121.5788 h 16.21044 V 930.7834 Z m 32.42097,0 v 121.5788 h 32.42097 V 930.7834 Z m 56.73676,0 v 121.5788 h 8.10527 V 930.7834 Z m 24.31571,0 v 121.5788 h 32.42107 V 930.7834 Z m 48.63163,0 v 121.5788 h 16.21045 V 930.7834 Z"
       id="path1275"
       inkscape:connector-curvature="0" />
    <rect
       style="opacity:1;fill:#0055d4;fill-opacity:1;fill-rule:nonzero;stroke:none;stroke-width:4.3848424;stroke-opacity:1"
       id="rect893"
       width="1274.6066"
       height="202.65712"
       x="-265.25604"
       y="-1.291504e-008"
       ry="47.997738" />
    <text
       xml:space="preserve"
       style="font-style:normal;font-weight:normal;font-size:175.39370728px;line-height:1.25;font-family:sans-serif;letter-spacing:0px;word-spacing:0px;fill:#ffffff;fill-opacity:1;stroke:none;stroke-width:4.3848424"
       x="-169.93472"
       y="162.659"
       id="text897"><tspan
         sodipodi:role="line"
         id="tspan895"
         x="-169.93472"
         y="162.659"
         style="fill:#ffffff;stroke-width:4.3848424">Faire un don</tspan></text>
  </g>
</svg>
