<?xml version="1.0" encoding="UTF-8" standalone="no"?>
<!-- Created with Inkscape (http://www.inkscape.org/) -->

<svg
   xmlns:dc="http://purl.org/dc/elements/1.1/"
   xmlns:cc="http://creativecommons.org/ns#"
   xmlns:rdf="http://www.w3.org/1999/02/22-rdf-syntax-ns#"
   xmlns:svg="http://www.w3.org/2000/svg"
   xmlns="http://www.w3.org/2000/svg"
   version="1.1"
   width="300"
   height="207.72354"
   id="svg15656">
  <defs
     id="defs15658" />
  <metadata
     id="metadata15661">
    <rdf:RDF>
      <cc:Work
         rdf:about="">
        <dc:format>image/svg+xml</dc:format>
        <dc:type
           rdf:resource="http://purl.org/dc/dcmitype/StillImage" />
        <dc:title></dc:title>
      </cc:Work>
    </rdf:RDF>
  </metadata>
  <g
     transform="translate(-206.87716,-301.85899)"
     id="layer1">
    <g
       transform="matrix(4.5286013,0,0,4.5286013,-1067.5668,-2047.9402)"
       id="g15525">
      <path
         d="m 281.42172,530.9313 c 0,0 19.6275,-2.54 20.18125,-2.63 0.85,-0.13875 1.60375,-0.30125 2.3075,-0.495 1.5875,-0.435 3.04875,-1.09875 4.3425,-1.97375 1.24125,-0.83125 2.395,-2.04125 3.53875,-3.36875 0.72625,-0.845 1.49,-1.94625 2.2025,-3.00875 l 0,-0.51375 c -0.845,1.25125 -1.6775,2.33 -2.53375,3.28125 -1.135,1.26375 -2.325,2.29625 -3.53875,3.07125 -1.2525,0.8075 -2.66125,1.40875 -4.19,1.79 -0.685,0.1725 -1.4175,0.3125 -2.2425,0.4275 -0.5425,0.0762 -1.1025,0.135 -1.64375,0.19125 -0.21625,0.0238 -18.42375,1.955 -18.42375,1.955 l 0,1.27375 z"
         id="path5555"
         style="fill:#bdbcbc;fill-opacity:1;fill-rule:nonzero;stroke:none" />
      <path
         d="m 307.74272,527.64055 c -1.22875,0.70625 -2.6475,1.22375 -4.2175,1.53625 -0.67,0.13625 -1.40125,0.24625 -2.23375,0.33625 -0.49,0.0537 -0.9825,0.0962 -1.47625,0.13875 -0.26625,0.0225 -0.5325,0.0462 -0.79875,0.07 -6.015,0.54 -11.99875,1.11375 -17.595,1.65625 l 0,1.27375 c 5.64,-0.68 11.66625,-1.40125 17.67875,-2.08125 0.2675,-0.0312 0.535,-0.0612 0.8025,-0.09 0.4925,-0.0538 0.98625,-0.10875 1.48,-0.17375 0.85625,-0.11375 1.605,-0.245 2.28875,-0.4 1.63125,-0.365 3.10375,-0.94 4.3775,-1.71125 1.265,-0.75875 2.3825,-1.8225 3.585,-3.1225 0.74875,-0.80875 1.58125,-1.95125 2.36125,-3.02375 l 0,-0.4675 c -0.91875,1.245 -1.79,2.29125 -2.65125,3.18375 -1.17375,1.21625 -2.385,2.1825 -3.60125,2.875"
         id="path5559"
         style="fill:#bdbcbc;fill-opacity:1;fill-rule:nonzero;stroke:none" />
      <path
         d="m 311.1776,527.32868 c -1.1975,1.09875 -2.4475,1.9625 -3.71625,2.5675 -1.24125,0.59875 -2.62875,1.01875 -4.245,1.28375 -0.66625,0.11125 -1.39125,0.20125 -2.215,0.27625 l -19.58,1.6075 0,1.27 17.405,-1.84625 2.25125,-0.23625 c 0.84875,-0.0987 1.58875,-0.20875 2.26125,-0.33625 1.67375,-0.31625 3.11,-0.7875 4.38875,-1.4425 1.3075,-0.66125 2.61375,-1.76125 3.82875,-2.92625 0.815,-0.78125 1.6,-1.79 2.43875,-2.8475 l 0,-0.42375 c -0.96875,1.205 -1.89375,2.2075 -2.8175,3.05375"
         id="path5563"
         style="fill:#bdbcbc;fill-opacity:1;fill-rule:nonzero;stroke:none" />
      <path
         d="m 306.4431,533.92568 c -1.14,0.6375 -1.9925,1.005 -3.62,1.175 -0.98375,0.10625 -1.995,0.15625 -2.97375,0.205 -0.4725,0.0237 -0.94625,0.0475 -1.42,0.0775 -2.9575,0.16875 -5.8625,0.35625 -8.82625,0.54875 l -8.18125,0.55125 0,1.27 8.26375,-0.7575 c 2.67,-0.24 5.7725,-0.51625 8.80125,-0.76375 l 2.2025,-0.17 c 0.86,-0.0662 1.565,-0.13625 2.2175,-0.22125 1.675,-0.21625 3.10625,-0.555 4.37375,-1.03375 1.365,-0.51 2.6525,-1.3025 3.94125,-2.235 1.1625,-0.84 2.77125,-2.49625 2.7725,-2.5175 l 0,-0.44875 c -1.05125,1.025 -1.65625,1.60125 -2.8075,2.36 -1.37625,0.90625 -3.72125,1.38875 -4.74375,1.96"
         id="path5567"
         style="fill:#bdbcbc;fill-opacity:1;fill-rule:nonzero;stroke:none" />
      <path
         d="m 306.85935,536.33993 c -1.235,0.3625 -2.625,0.6075 -4.25,0.74875 -0.65875,0.0575 -1.36875,0.10125 -2.17125,0.13375 l -2.19,0.0962 c -5.44125,0.2525 -10.8575,0.535 -16.82625,0.85125 l 0,1.26625 c 5.7025,-0.44125 11.29,-0.87 16.87625,-1.2675 l 2.1825,-0.14875 c 0.84375,-0.0563 1.5425,-0.11625 2.2,-0.19 1.665,-0.18625 3.09,-0.47375 4.355,-0.87875 1.40125,-0.44375 2.7675,-1.0875 4.06,-1.9125 0.95375,-0.6075 1.90875,-1.3325 2.89875,-2.19625 l 0,-0.0225 c -1.09125,0.93125 -2.13125,1.13875 -3.1675,1.76375 -1.27,0.77 -2.605,1.36 -3.9675,1.75625"
         id="path5571"
         style="fill:#bdbcbc;fill-opacity:1;fill-rule:nonzero;stroke:none" />
      <path
         d="m 306.65735,538.44468 c -1.24375,0.29125 -2.5925,0.4775 -4.24375,0.58875 -0.63625,0.0425 -1.32125,0.0738 -2.155,0.1 l -2.16875,0.0775 c -5.465,0.20625 -11.00625,0.44375 -16.66875,0.69 l 0,1.26625 c 5.62625,-0.38375 11.145,-0.7575 16.71125,-1.105 l 2.16375,-0.13 c 0.84875,-0.0488 1.54,-0.0975 2.17625,-0.15625 1.68125,-0.155 3.0575,-0.38125 4.33,-0.71 1.4275,-0.3675 2.815,-0.9075 4.12375,-1.6025 1.0125,-0.53625 2.0225,-1.18125 3.06875,-1.95875 l 0,-0.54125 c -1.13125,0.81625 -2.21625,1.4825 -3.30125,2.025 -1.28625,0.64375 -2.64375,1.13375 -4.03625,1.45625"
         id="path5575"
         style="fill:#bdbcbc;fill-opacity:1;fill-rule:nonzero;stroke:none" />
      <path
         d="m 306.4721,540.50831 c -1.24875,0.22875 -2.5925,0.375 -4.23125,0.45875 -0.61625,0.0325 -1.27625,0.055 -2.13875,0.075 l -18.68,0.505 0,1.26625 16.56375,-0.865 2.14625,-0.10875 c 0.8375,-0.04 1.5225,-0.08 2.15625,-0.12875 1.66125,-0.1275 3.0275,-0.31 4.3,-0.57625 1.445,-0.3 2.8475,-0.7375 4.1675,-1.3 1.06375,-0.45125 2.12875,-1.00125 3.23875,-1.67 l 0,-0.50875 c -1.185,0.69 -2.3125,1.2425 -3.4325,1.68625 -1.30125,0.5175 -2.6775,0.91 -4.09,1.16625"
         id="path5579"
         style="fill:#bdbcbc;fill-opacity:1;fill-rule:nonzero;stroke:none" />
      <path
         d="m 306.32547,542.58081 c -2.2925,0.30625 -4.65125,0.34125 -6.93375,0.375 -0.5225,0.007 -1.04625,0.015 -1.56875,0.0263 l -16.40125,0.295 0,1.26375 16.43,-0.7075 c 0.52,-0.0237 1.0425,-0.045 1.565,-0.065 2.2975,-0.0925 4.67375,-0.1875 6.9975,-0.55625 1.47,-0.23125 2.885,-0.575 4.20625,-1.01875 1.09375,-0.36625 2.22625,-0.84 3.37375,-1.4 l 0,-0.485 c -1.20625,0.56125 -2.3925,1.02875 -3.53125,1.37875 -1.305,0.4025 -2.69625,0.70375 -4.1375,0.89375"
         id="path5583"
         style="fill:#bdbcbc;fill-opacity:1;fill-rule:nonzero;stroke:none" />
      <path
         d="m 306.19522,544.6663 c -2.1475,0.1775 -4.345,0.1775 -6.47125,0.1775 -0.66125,0 -1.3225,0 -1.98375,0.005 -5.43375,0.0238 -10.82375,0.0688 -16.31875,0.11625 l 0,1.26375 c 5.23375,-0.1775 10.785,-0.3625 16.3375,-0.5275 0.65875,-0.0225 1.3175,-0.0387 1.9775,-0.0562 2.1375,-0.0537 4.3475,-0.10875 6.5175,-0.34375 1.515,-0.1625 2.895,-0.40125 4.21625,-0.7275 1.1525,-0.28375 2.33625,-0.66125 3.525,-1.115 l 0,-0.465 c -1.2275,0.44 -2.45,0.8 -3.64125,1.0625 -1.30875,0.28875 -2.66875,0.4875 -4.15875,0.61"
         id="path5587"
         style="fill:#bdbcbc;fill-opacity:1;fill-rule:nonzero;stroke:none" />
      <path
         d="m 306.11223,546.72218 c -0.895,0.035 -1.86375,0.0525 -2.9625,0.0525 -0.415,0 -0.83125,-0.002 -1.245,-0.006 l -4.2275,-0.0512 c -2.88375,-0.0213 -5.7575,-0.0263 -8.45375,-0.0287 l -7.80125,0.007 0,1.2625 7.82,-0.20375 c 2.68625,-0.0662 5.5675,-0.135 8.44375,-0.18625 l 4.22375,-0.0563 c 1.15875,-0.0175 2.6875,-0.0525 4.23625,-0.15375 1.5175,-0.0987 2.89875,-0.25 4.2225,-0.46125 1.19125,-0.19 2.40875,-0.44625 3.62625,-0.7575 l 0,-0.4475 c -1.25125,0.2875 -2.495,0.51875 -3.70125,0.68 -1.31625,0.17625 -2.68375,0.29 -4.18125,0.35"
         id="path5591"
         style="fill:#bdbcbc;fill-opacity:1;fill-rule:nonzero;stroke:none" />
      <path
         d="m 301.8556,548.7088 -4.2125,-0.045 c -5.375,-0.0763 -10.74375,-0.17375 -16.22125,-0.27625 l 0,1.26375 c 5.2275,-0.0337 10.765,-0.0738 16.225,-0.135 l 4.215,-0.0625 c 1.42,-0.025 2.81125,-0.0512 4.2175,-0.0975 2.89625,-0.0925 5.49125,-0.29625 7.915,-0.6175 l 0,-0.44 c -2.43375,0.2625 -5.03125,0.4 -7.93,0.41875 -1.40125,0.0125 -2.805,0.003 -4.20875,-0.009"
         id="path5595"
         style="fill:#bdbcbc;fill-opacity:1;fill-rule:nonzero;stroke:none" />
      <path
         d="m 313.99473,550.94356 -32.5725,-0.82625 0,1.26375 32.5725,0 0,-0.4375 z"
         id="path5599"
         style="fill:#bdbcbc;fill-opacity:1;fill-rule:nonzero;stroke:none" />
      <path
         d="m 311.06173,529.71581 c -1.2375,0.99375 -2.1925,1.7 -3.7075,2.30125 -1.31875,0.525 -2.735,0.73875 -4.35375,0.96 -1.04125,0.14625 -2.13,0.36125 -3.17,0.43125 -0.4275,0.0287 -0.855,0.0562 -1.28125,0.09 l -17.1275,1.24875 0,1.2675 17.19625,-1.6675 2.23,-0.20875 c 0.82625,-0.0788 1.56125,-0.16875 2.24375,-0.28 1.66625,-0.2675 3.1025,-0.675 4.39,-1.24875 1.335,-0.58875 2.68625,-1.55375 3.9425,-2.61 0.85375,-0.7175 1.67625,-1.62 2.57,-2.60625 l 0,-0.45375 c -1.08125,1.1175 -1.97875,2.01125 -2.9325,2.77625"
         id="path5603"
         style="fill:#bdbcbc;fill-opacity:1;fill-rule:nonzero;stroke:none" />
      <path
         d="m 294.96035,563.49518 28.5325,0 0,-12.68875 -28.5325,0 0,12.68875 z"
         id="path5605"
         style="fill:#ffffff;fill-opacity:1;fill-rule:nonzero;stroke:none" />
      <path
         d="m 323.49785,532.29018 -28.5375,0 0,19.09 28.5375,0 0,-19.09 z"
         id="path5607"
         style="fill:#254aa5;fill-opacity:1;fill-rule:nonzero;stroke:none" />
      <path
         d="m 309.53872,535.00493 0.9925,0 -0.8,0.62375 0.31125,0.98875 -0.7975,-0.60875 -0.7975,0.60875 0.315,-0.98875 -0.8075,-0.62375 0.99,0 0.3,-0.965 0.29375,0.965 z"
         id="path5611"
         style="fill:#fff200;fill-opacity:1;fill-rule:nonzero;stroke:none" />
      <path
         d="m 309.57373,547.73581 0.995,0 -0.80125,0.60125 0.31125,0.95 -0.7975,-0.585 -0.79625,0.585 0.31375,-0.95 -0.80875,-0.60125 0.99125,0 0.3,-0.9275 0.2925,0.9275 z"
         id="path5615"
         style="fill:#fff200;fill-opacity:1;fill-rule:nonzero;stroke:none" />
      <path
         d="m 312.72285,546.8928 0.995,0 -0.80125,0.6 0.31125,0.95125 -0.7975,-0.5875 -0.79625,0.5875 0.31375,-0.95125 -0.80875,-0.6 0.99125,0 0.3,-0.92875 0.2925,0.92875 z"
         id="path5619"
         style="fill:#fff200;fill-opacity:1;fill-rule:nonzero;stroke:none" />
      <path
         d="m 312.72285,535.85418 0.995,0 -0.80125,0.6 0.31125,0.95125 -0.7975,-0.58625 -0.79625,0.58625 0.31375,-0.95125 -0.80875,-0.6 0.99125,0 0.3,-0.9275 0.2925,0.9275 z"
         id="path5623"
         style="fill:#fff200;fill-opacity:1;fill-rule:nonzero;stroke:none" />
      <path
         d="m 315.06097,538.19205 0.9925,0 -0.8,0.59875 0.31125,0.9525 -0.7975,-0.58625 -0.795,0.58625 0.31375,-0.9525 -0.80875,-0.59875 0.99,0 0.3,-0.92875 0.29375,0.92875 z"
         id="path5627"
         style="fill:#fff200;fill-opacity:1;fill-rule:nonzero;stroke:none" />
      <path
         d="m 315.06097,544.58668 0.9925,0 -0.8,0.60125 0.31125,0.9525 -0.7975,-0.5875 -0.795,0.5875 0.31375,-0.9525 -0.80875,-0.60125 0.99,0 0.3,-0.92875 0.29375,0.92875 z"
         id="path5631"
         style="fill:#fff200;fill-opacity:1;fill-rule:nonzero;stroke:none" />
      <path
         d="m 315.93698,541.34055 0.995,0 -0.80125,0.6 0.31125,0.9525 -0.7975,-0.5875 -0.79625,0.5875 0.31375,-0.9525 -0.80875,-0.6 0.99,0 0.30125,-0.9275 0.2925,0.9275 z"
         id="path5635"
         style="fill:#fff200;fill-opacity:1;fill-rule:nonzero;stroke:none" />
      <path
         d="m 306.3281,535.86193 0.9925,0 -0.8,0.60125 0.31125,0.95125 -0.7975,-0.5875 -0.7975,0.5875 0.315,-0.95125 -0.8075,-0.60125 0.99,0 0.3,-0.9275 0.29375,0.9275 z"
         id="path5639"
         style="fill:#fff200;fill-opacity:1;fill-rule:nonzero;stroke:none" />
      <path
         d="m 304.05485,538.1998 0.995,0 -0.80125,0.6 0.31,0.9525 -0.79625,-0.5875 -0.79625,0.5875 0.3125,-0.9525 -0.8075,-0.6 0.99125,0 0.3,-0.9275 0.2925,0.9275 z"
         id="path5643"
         style="fill:#fff200;fill-opacity:1;fill-rule:nonzero;stroke:none" />
      <path
         d="m 303.2111,541.34843 0.99375,0 -0.8,0.6 0.31,0.9525 -0.79625,-0.58625 -0.7975,0.58625 0.31375,-0.9525 -0.80625,-0.6 0.99,0 0.3,-0.9275 0.2925,0.9275 z"
         id="path5647"
         style="fill:#fff200;fill-opacity:1;fill-rule:nonzero;stroke:none" />
      <path
         d="m 304.05485,544.59456 0.995,0 -0.80125,0.60125 0.31,0.9525 -0.79625,-0.5875 -0.79625,0.5875 0.3125,-0.9525 -0.8075,-0.60125 0.99125,0 0.3,-0.92625 0.2925,0.92625 z"
         id="path5651"
         style="fill:#fff200;fill-opacity:1;fill-rule:nonzero;stroke:none" />
      <path
         d="m 306.36122,546.90068 0.9925,0 -0.8,0.6 0.30875,0.95125 -0.795,-0.58625 -0.7975,0.58625 0.315,-0.95125 -0.8075,-0.6 0.99,0 0.3,-0.92875 0.29375,0.92875 z"
         id="path5655"
         style="fill:#fff200;fill-opacity:1;fill-rule:nonzero;stroke:none" />
      <path
         d="m 294.96035,564.74893 28.54,0 0,-1.62875 -28.54,0 0,1.62875 z"
         id="path5657"
         style="fill:#254aa5;fill-opacity:1;fill-rule:nonzero;stroke:none" />
      <path
         d="m 327.55922,518.87968 c 0,0 5.95,9.26625 7.03875,10.97 1.0875,1.7025 2.33125,3.05 6.73375,3.965 4.4025,0.915 6.31875,1.3475 6.31875,1.3475 l 0,0.33 c 0,0 -2.7975,-0.585 -6.3975,-1.3725 -3.59875,-0.7875 -5.07,-1.05375 -6.71125,-3.29125 -1.36625,-1.8625 -6.9825,-9.77875 -6.9825,-9.77875 l 0,-2.17 z"
         id="path5661"
         style="fill:#bdbcbc;fill-opacity:1;fill-rule:nonzero;stroke:none" />
      <path
         d="m 327.55922,521.51443 c 0,0 6.14875,8.80875 6.965,9.88875 0.81625,1.08 1.915,2.82 6.775,3.8475 1.255,0.265 6.3675,1.27125 6.3675,1.27125 l 0,0.27875 c 0,0 -3.885,-0.74875 -6.3675,-1.27125 -2.48375,-0.5225 -5.0925,-0.99875 -6.7575,-3.09875 -1.5125,-1.9075 -6.99375,-8.9425 -6.99375,-8.9425 l 0.0112,-1.97375 z"
         id="path5665"
         style="fill:#bdbcbc;fill-opacity:1;fill-rule:nonzero;stroke:none" />
      <path
         d="m 327.55922,524.16068 c 0,0 5.79375,7.48625 6.965,8.98375 1.17,1.49625 2.78375,2.7325 6.775,3.49875 2.30125,0.4425 6.35,1.18375 6.35,1.18375 l 0,0.27875 c 0,0 -3.5475,-0.66125 -6.35,-1.16625 -2.8025,-0.505 -5.11625,-0.99375 -6.775,-2.855 -1.455,-1.63375 -6.97625,-8.055 -6.97625,-8.055 l 0.0112,-1.86875 z"
         id="path5669"
         style="fill:#bdbcbc;fill-opacity:1;fill-rule:nonzero;stroke:none" />
      <path
         d="m 327.54773,526.76056 c 0,0 5.86625,6.79125 6.99375,8.0025 1.75625,1.88625 2.6075,2.53625 6.7575,3.325 1.66,0.31625 6.35,1.1325 6.35,1.1325 l 0,0.295 c 0,0 -3.88375,-0.69625 -6.35,-1.13125 -2.465,-0.435 -4.55125,-0.5975 -6.775,-2.73375 -1.69375,-1.62625 -6.965,-7.1375 -6.965,-7.1375 l -0.0113,-1.7525 z"
         id="path5673"
         style="fill:#bdbcbc;fill-opacity:1;fill-rule:nonzero;stroke:none" />
      <path
         d="m 327.55922,529.46493 c 0,0 5.41625,5.56375 6.9825,7.16125 1.66125,1.69375 3.79,2.32125 6.74,2.8375 2.81625,0.4925 6.3675,1.0625 6.3675,1.0625 l 0,0.3125 c 0,0 -3.335,-0.535 -6.3675,-1.04375 -2.97375,-0.5 -5.055,-0.7775 -6.7575,-2.31625 -1.525,-1.3775 -6.965,-6.3775 -6.965,-6.3775 l 0,-1.63625 z"
         id="path5677"
         style="fill:#bdbcbc;fill-opacity:1;fill-rule:nonzero;stroke:none" />
      <path
         d="m 327.55922,531.9718 c 0,0 5.15125,4.68875 6.9825,6.29125 1.685,1.47375 3.05125,1.9325 6.7575,2.57625 3.7075,0.64375 6.35,1.04375 6.35,1.04375 l 0,0.33125 c 0,0 -3.3525,-0.54 -6.3675,-1.01 -3.015,-0.47 -4.93625,-0.655 -6.74,-2.08875 -2.08125,-1.655 -6.9825,-5.61125 -6.9825,-5.61125 l 0,-1.5325 z"
         id="path5681"
         style="fill:#bdbcbc;fill-opacity:1;fill-rule:nonzero;stroke:none" />
      <path
         d="m 327.54748,534.65293 c 0,0 5.87625,4.5675 6.97625,5.3675 1.1,0.80125 2.55375,1.735 6.775,2.33375 4.18625,0.5925 6.3325,0.8875 6.3325,0.8875 l 0,0.34875 c 0,0 -3.795,-0.54125 -6.3325,-0.85375 -2.53625,-0.31375 -4.48125,-0.44625 -6.7575,-1.9325 -2.21625,-1.44625 -6.9825,-4.735 -6.9825,-4.735 l -0.0113,-1.41625 z"
         id="path5685"
         style="fill:#bdbcbc;fill-opacity:1;fill-rule:nonzero;stroke:none" />
      <path
         d="m 327.54748,537.21793 c 0,0 5.89375,3.8475 7.01125,4.4575 1.11875,0.60875 2.43125,1.60125 6.74,2.14125 4.31,0.53875 6.3325,0.7825 6.3325,0.7825 l 0,0.33125 c 0,0 -3.565,-0.3825 -6.35,-0.67875 -2.785,-0.29625 -4.6825,-0.69625 -6.7575,-1.81125 -2.075,-1.11375 -6.965,-3.91125 -6.965,-3.91125 l -0.0113,-1.31125 z"
         id="path5689"
         style="fill:#bdbcbc;fill-opacity:1;fill-rule:nonzero;stroke:none" />
      <path
         d="m 327.55922,539.78293 c 0,0 5.21625,2.78125 6.9825,3.65 1.96875,0.96875 3.67125,1.43375 6.7575,1.7925 3.03,0.355 6.35,0.6975 6.35,0.6975 l 0,0.31375 c 0,0 -3.07,-0.3225 -6.35,-0.6275 -3.25125,-0.30125 -4.41,-0.44125 -6.7575,-1.4625 -2.1,-0.9125 -6.99375,-3.145 -6.99375,-3.145 l 0.0112,-1.21875 z"
         id="path5693"
         style="fill:#bdbcbc;fill-opacity:1;fill-rule:nonzero;stroke:none" />
      <path
         d="m 327.55922,542.39431 c 0,0 4.10375,1.7225 7,2.84875 2.85,1.10875 5.02625,1.2025 6.7575,1.39375 0.7625,0.0838 6.315,0.64375 6.315,0.64375 l 0,0.3125 c 0,0 -3.3175,-0.26 -6.3325,-0.52125 -3.015,-0.26125 -4.31625,-0.37125 -6.7575,-1.16625 -2.47125,-0.80375 -6.99375,-2.35 -6.99375,-2.35 l 0.0112,-1.16125 z"
         id="path5697"
         style="fill:#bdbcbc;fill-opacity:1;fill-rule:nonzero;stroke:none" />
      <path
         d="m 327.55922,545.04056 c 0,0 4.1625,1.265 7,1.99625 2.8375,0.73125 5.445,1.0275 6.7575,1.11375 1.3125,0.0875 6.315,0.4875 6.315,0.4875 l 0,0.29625 c 0,0 -2.8375,-0.19 -6.3325,-0.435 -2.82625,-0.1975 -5.09625,-0.40625 -6.7575,-0.76625 -1.84125,-0.39875 -6.99375,-1.60125 -6.99375,-1.60125 l 0.0112,-1.09125 z"
         id="path5701"
         style="fill:#bdbcbc;fill-opacity:1;fill-rule:nonzero;stroke:none" />
      <path
         d="m 327.54773,547.65218 c 0,0 3.415,0.57625 7.01125,1.16 2.69625,0.43875 6.35,0.715 6.74,0.73125 0.39,0.0175 6.35,0.41875 6.35,0.41875 l 0,0.3125 c 0,0 -3.81375,-0.1925 -6.35,-0.33 -2.64125,-0.14375 -5.26625,-0.3 -6.7575,-0.4525 -3.34,-0.3425 -6.99375,-0.795 -6.99375,-0.795 l 0,-1.045 z"
         id="path5705"
         style="fill:#bdbcbc;fill-opacity:1;fill-rule:nonzero;stroke:none" />
      <path
         d="m 327.55922,550.35593 c 0,0 5.36875,0.1975 7,0.2325 1.63125,0.035 13.09,0.4875 13.09,0.4875 l 0,0.31375 -20.09,-0.0125 0,-1.02125 z"
         id="path5709"
         style="fill:#bdbcbc;fill-opacity:1;fill-rule:nonzero;stroke:none" />
      <path
         d="m 296.6286,553.26193 c 0,-0.0588 0.0275,-0.09 0.09,-0.09 l 1.65625,0 c 0.0538,0 0.0863,0.0312 0.0863,0.085 l 0,0.28 c 0,0.0538 -0.0225,0.0813 -0.09,0.0813 l -1.22875,0 0,0.77375 1.08875,0 c 0.0587,0 0.09,0.0275 0.09,0.0812 l 0,0.27875 c 0,0.0538 -0.0225,0.0812 -0.09,0.0812 l -1.08875,0 0,0.88625 1.26,0 c 0.0537,0 0.0813,0.0275 0.0813,0.0863 l 0,0.27375 c 0,0.0588 -0.0225,0.0812 -0.0863,0.0812 l -1.67875,0 c -0.0625,0 -0.09,-0.0275 -0.09,-0.0812 l 0,-2.8175 z"
         id="path5713"
         style="fill:#5a5758;fill-opacity:1;fill-rule:nonzero;stroke:none" />
      <path
         d="m 300.5711,556.16093 -0.32,0 c -0.0675,0 -0.085,-0.0312 -0.085,-0.085 l 0,-0.14 -0.009,-0.005 c -0.17625,0.1225 -0.4825,0.27 -0.75625,0.27 -0.6075,0 -0.66625,-0.36 -0.66625,-0.8325 l 0,-1.32375 c 0,-0.0537 0.0225,-0.0888 0.085,-0.0888 l 0.32875,0 c 0.0588,0 0.0813,0.0312 0.0813,0.0888 l 0,1.265 c 0,0.27125 0.0537,0.44125 0.32875,0.44125 0.19375,0 0.49,-0.14375 0.6075,-0.2025 l 0,-1.50375 c 0,-0.0537 0.0175,-0.0888 0.085,-0.0888 l 0.32,0 c 0.0625,0 0.085,0.0312 0.085,0.0888 l 0,2.03125 c 0,0.0575 -0.0225,0.085 -0.085,0.085"
         id="path5717"
         style="fill:#5a5758;fill-opacity:1;fill-rule:nonzero;stroke:none" />
      <path
         d="m 301.5336,556.07543 c 0,0.0538 -0.0225,0.085 -0.085,0.085 l -0.325,0 c -0.0625,0 -0.085,-0.0263 -0.085,-0.085 l 0,-2.03 c 0,-0.0588 0.0225,-0.09 0.085,-0.09 l 0.32,0 c 0.0675,0 0.09,0.0362 0.09,0.09 l 0,0.1975 0.009,0.009 c 0.135,-0.125 0.455,-0.27875 0.66625,-0.31875 0.0588,-0.0138 0.0987,0 0.10875,0.0762 l 0.0312,0.30125 c 0.004,0.0638 0.009,0.09 -0.0862,0.10875 -0.25125,0.0488 -0.57125,0.13875 -0.72875,0.20625 l 0,1.45 z"
         id="path5721"
         style="fill:#5a5758;fill-opacity:1;fill-rule:nonzero;stroke:none" />
      <path
         d="m 303.42835,554.3423 c -0.3825,0 -0.46875,0.24375 -0.46875,0.71125 0,0.4775 0.0862,0.71125 0.46375,0.71125 0.41,0 0.49125,-0.23 0.49125,-0.71125 0,-0.4775 -0.0763,-0.71125 -0.48625,-0.71125 m -0.005,1.855 c -0.90375,0 -0.9625,-0.6625 -0.9625,-1.175 0,-0.42375 0.0937,-1.1125 0.9625,-1.1125 0.87375,0 0.995,0.58125 0.995,1.1125 0,0.5125 -0.0625,1.175 -0.995,1.175"
         id="path5725"
         style="fill:#5a5758;fill-opacity:1;fill-rule:nonzero;stroke:none" />
      <path
         d="m 305.76373,554.36943 c -0.185,0 -0.46875,0.13 -0.60375,0.2025 l 0,1.125 c 0.2025,0.0588 0.365,0.0763 0.51875,0.0763 0.32375,0 0.43625,-0.16625 0.43625,-0.7325 0,-0.5725 -0.1125,-0.67125 -0.35125,-0.67125 m -0.0362,1.8325 c -0.14875,0 -0.355,-0.0275 -0.5625,-0.1 l -0.005,0.005 0,0.7925 c 0,0.0487 -0.0125,0.09 -0.085,0.09 l -0.32,0 c -0.0712,0 -0.085,-0.0312 -0.085,-0.09 l 0,-2.85375 c 0,-0.0587 0.0225,-0.09 0.085,-0.09 l 0.32,0 c 0.0638,0 0.0813,0.035 0.0813,0.09 l 0,0.135 0.0138,0.009 c 0.16125,-0.1125 0.45,-0.27 0.71125,-0.27 0.58875,0 0.7425,0.445 0.7425,1.125 0,0.73375 -0.185,1.1575 -0.89625,1.1575"
         id="path5729"
         style="fill:#5a5758;fill-opacity:1;fill-rule:nonzero;stroke:none" />
      <path
         d="m 307.4016,554.85555 0.89125,0 c 0,-0.275 -0.0725,-0.54 -0.445,-0.54 -0.33375,0 -0.42375,0.2025 -0.44625,0.54 m -0.005,0.3375 c 0.0138,0.455 0.17625,0.58125 0.545,0.58125 0.1625,0 0.41375,-0.0325 0.585,-0.05 0.0813,-0.009 0.10875,-0.009 0.1225,0.0763 l 0.0263,0.14875 c 0.0138,0.0675 0.005,0.10375 -0.0762,0.14 -0.17625,0.0675 -0.50375,0.1125 -0.725,0.1125 -0.86,0 -0.98625,-0.54875 -0.98625,-1.135 0,-0.43625 0.0813,-1.15625 0.96,-1.15625 0.805,0 0.94875,0.5225 0.9625,1.0075 0.005,0.1625 -0.04,0.275 -0.22,0.275 l -1.19375,0 z"
         id="path5733"
         style="fill:#5a5758;fill-opacity:1;fill-rule:nonzero;stroke:none" />
      <path
         d="m 310.40323,555.15693 -0.54875,0 c -0.225,0 -0.37,0.0813 -0.37,0.37875 0,0.1975 0.0675,0.26125 0.28,0.26125 0.19375,0 0.4675,-0.11375 0.63875,-0.2125 l 0,-0.4275 z m 0.0275,0.7475 c -0.225,0.17125 -0.5275,0.2925 -0.82875,0.2925 -0.4775,0 -0.61625,-0.26125 -0.61625,-0.63875 -0.005,-0.5275 0.27875,-0.7525 0.84625,-0.7525 l 0.57625,0 0,-0.11625 c 0,-0.27 -0.1,-0.365 -0.46875,-0.365 -0.14875,0 -0.4325,0.0225 -0.6125,0.04 -0.09,0.0138 -0.1125,0.009 -0.125,-0.0537 l -0.0412,-0.16625 c -0.009,-0.0588 0.005,-0.095 0.10375,-0.135 0.19375,-0.0675 0.54875,-0.0987 0.76125,-0.0987 0.77875,0 0.8725,0.31875 0.8725,0.82375 l 0,0.86875 c 0,0.18375 0.0225,0.18875 0.1625,0.20625 0.0675,0.005 0.085,0.0187 0.085,0.0675 l 0,0.19 c 0,0.0488 -0.0312,0.08 -0.1075,0.0937 -0.0725,0.0138 -0.14375,0.0225 -0.21125,0.0225 -0.2125,0 -0.3425,-0.0625 -0.3875,-0.27375 l -0.009,-0.005 z"
         id="path5737"
         style="fill:#5a5758;fill-opacity:1;fill-rule:nonzero;stroke:none" />
      <path
         d="m 313.10785,556.16093 -0.32375,0 c -0.0588,0 -0.0863,-0.0275 -0.0863,-0.085 l 0.005,-1.265 c 0,-0.26625 -0.0625,-0.44125 -0.32375,-0.44125 -0.18,0 -0.495,0.14375 -0.6175,0.2025 l 0,1.50375 c 0,0.0538 -0.0225,0.085 -0.085,0.085 l -0.32,0 c -0.0625,0 -0.085,-0.0275 -0.085,-0.085 l 0,-2.03125 c 0,-0.0575 0.0225,-0.0888 0.085,-0.0888 l 0.32,0 c 0.0625,0 0.085,0.0312 0.085,0.0888 l 0,0.13625 c 0.005,0 0.01,0.004 0.0138,0.004 0.16625,-0.11625 0.48125,-0.27 0.75625,-0.27 0.6075,0 0.6625,0.40125 0.6625,0.855 l 0,1.30625 c 0,0.0538 -0.0188,0.085 -0.0863,0.085"
         id="path5741"
         style="fill:#5a5758;fill-opacity:1;fill-rule:nonzero;stroke:none" />
      <path
         d="m 297.80335,557.89043 c 0.22,0 0.585,0.0312 0.82375,0.13 0.0725,0.0325 0.0987,0.0688 0.085,0.14 l -0.04,0.185 c -0.0138,0.0538 -0.0362,0.0763 -0.1175,0.0675 -0.22,-0.0275 -0.49,-0.0587 -0.72375,-0.0587 -0.6125,0 -0.7025,0.495 -0.7025,1.08 0,0.59 0.1125,1.05375 0.7025,1.05375 0.26,0 0.48125,-0.0275 0.72375,-0.0588 0.0863,-0.009 0.10375,0.0138 0.1225,0.0725 l 0.035,0.17125 c 0.0187,0.0713 -0.004,0.1125 -0.0763,0.14375 -0.22,0.0937 -0.6125,0.135 -0.8325,0.135 -1.00375,0 -1.215,-0.7425 -1.215,-1.50875 0,-0.76875 0.18875,-1.5525 1.215,-1.5525"
         id="path5745"
         style="fill:#5a5758;fill-opacity:1;fill-rule:nonzero;stroke:none" />
      <path
         d="m 299.73385,559.0923 c -0.3825,0 -0.46875,0.24375 -0.46875,0.71125 0,0.4775 0.0863,0.71125 0.46375,0.71125 0.41,0 0.49125,-0.23 0.49125,-0.71125 0,-0.4775 -0.0763,-0.71125 -0.48625,-0.71125 m -0.005,1.855 c -0.90375,0 -0.9625,-0.6625 -0.9625,-1.175 0,-0.42375 0.0937,-1.1125 0.9625,-1.1125 0.87375,0 0.995,0.58125 0.995,1.1125 0,0.5125 -0.0625,1.175 -0.995,1.175"
         id="path5749"
         style="fill:#5a5758;fill-opacity:1;fill-rule:nonzero;stroke:none" />
      <path
         d="m 304.12648,560.91093 -0.32375,0 c -0.0637,0 -0.0863,-0.0275 -0.0863,-0.085 l 0,-1.27875 c 0,-0.33375 -0.08,-0.4275 -0.30625,-0.4275 -0.16625,0 -0.43625,0.13 -0.575,0.2025 0,0.045 0.004,0.12625 0.004,0.22875 l 0,1.275 c 0,0.0538 -0.0175,0.085 -0.085,0.085 l -0.32875,0 c -0.0587,0 -0.0763,-0.0275 -0.0763,-0.085 l 0,-1.30125 c 0,-0.275 -0.0725,-0.405 -0.2975,-0.405 -0.1575,0 -0.41,0.1125 -0.58125,0.2025 l 0,1.50375 c 0,0.0538 -0.0225,0.085 -0.085,0.085 l -0.32375,0 c -0.0588,0 -0.0813,-0.0275 -0.0813,-0.085 l 0,-2.03125 c 0,-0.0575 0.0225,-0.0888 0.0813,-0.0888 l 0.31875,0 c 0.0675,0 0.09,0.035 0.09,0.0888 l 0,0.13125 0.005,0.005 c 0.175,-0.1225 0.4225,-0.2575 0.67125,-0.26625 0.26,0 0.47625,0.0538 0.61625,0.315 0.225,-0.16625 0.50375,-0.315 0.7925,-0.315 0.59375,0 0.6525,0.3875 0.6525,0.8375 l 0,1.32375 c 0,0.0538 -0.0188,0.085 -0.0813,0.085"
         id="path5753"
         style="fill:#5a5758;fill-opacity:1;fill-rule:nonzero;stroke:none" />
      <path
         d="m 307.65447,560.91093 -0.32375,0 c -0.0637,0 -0.0863,-0.0275 -0.0863,-0.085 l 0,-1.27875 c 0,-0.33375 -0.08,-0.4275 -0.30625,-0.4275 -0.16625,0 -0.43625,0.13 -0.575,0.2025 0,0.045 0.004,0.12625 0.004,0.22875 l 0,1.275 c 0,0.0538 -0.0175,0.085 -0.085,0.085 l -0.32875,0 c -0.0587,0 -0.0763,-0.0275 -0.0763,-0.085 l 0,-1.30125 c 0,-0.275 -0.0725,-0.405 -0.2975,-0.405 -0.1575,0 -0.41,0.1125 -0.58125,0.2025 l 0,1.50375 c 0,0.0538 -0.0225,0.085 -0.085,0.085 l -0.32375,0 c -0.0588,0 -0.0813,-0.0275 -0.0813,-0.085 l 0,-2.03125 c 0,-0.0575 0.0225,-0.0888 0.0813,-0.0888 l 0.31875,0 c 0.0675,0 0.09,0.035 0.09,0.0888 l 0,0.13125 0.005,0.005 c 0.175,-0.1225 0.4225,-0.2575 0.67125,-0.26625 0.26,0 0.47625,0.0538 0.61625,0.315 0.225,-0.16625 0.50375,-0.315 0.7925,-0.315 0.59375,0 0.6525,0.3875 0.6525,0.8375 l 0,1.32375 c 0,0.0538 -0.0188,0.085 -0.0813,0.085"
         id="path5757"
         style="fill:#5a5758;fill-opacity:1;fill-rule:nonzero;stroke:none" />
      <path
         d="m 308.59422,560.82543 c 0,0.0488 -0.0175,0.085 -0.0813,0.085 l -0.32,0 c -0.0625,0 -0.09,-0.0263 -0.09,-0.085 l 0,-2.035 c 0,-0.0625 0.0275,-0.085 0.09,-0.085 l 0.32,0 c 0.0638,0 0.0813,0.0362 0.0813,0.085 l 0,2.035 z m -0.23875,-2.44375 c -0.23375,0 -0.265,-0.13125 -0.265,-0.26125 0,-0.14375 0.0488,-0.2575 0.265,-0.2575 0.22125,0 0.26625,0.10375 0.26625,0.2575 0,0.13875 -0.0412,0.26125 -0.26625,0.26125"
         id="path5761"
         style="fill:#5a5758;fill-opacity:1;fill-rule:nonzero;stroke:none" />
      <path
         d="m 309.71023,560.94705 c -0.225,0 -0.52625,-0.0312 -0.6975,-0.0987 -0.09,-0.0362 -0.10875,-0.0775 -0.095,-0.14875 l 0.0312,-0.14875 c 0.0138,-0.0725 0.045,-0.0762 0.1175,-0.0675 0.1975,0.0312 0.48625,0.0538 0.63875,0.0538 0.28875,0 0.40625,-0.0763 0.40625,-0.25625 0,-0.2075 -0.0775,-0.2525 -0.36125,-0.2925 -0.44125,-0.0638 -0.8275,-0.1575 -0.8275,-0.64875 0,-0.445 0.34125,-0.67875 0.84625,-0.67875 0.18375,0 0.495,0.0263 0.68375,0.0987 0.0763,0.0312 0.10875,0.0675 0.095,0.135 l -0.0362,0.16125 c -0.0138,0.0638 -0.04,0.0725 -0.12125,0.0638 -0.19375,-0.0225 -0.44625,-0.05 -0.6125,-0.05 -0.2875,0 -0.355,0.0812 -0.355,0.2525 0,0.175 0.1075,0.1975 0.3825,0.2425 0.4275,0.0637 0.81375,0.14875 0.81375,0.685 0,0.52625 -0.445,0.6975 -0.90875,0.6975"
         id="path5765"
         style="fill:#5a5758;fill-opacity:1;fill-rule:nonzero;stroke:none" />
      <path
         d="m 311.59573,560.94705 c -0.225,0 -0.52625,-0.0312 -0.6975,-0.0987 -0.09,-0.0362 -0.10875,-0.0775 -0.095,-0.14875 l 0.0312,-0.14875 c 0.0138,-0.0725 0.045,-0.0762 0.1175,-0.0675 0.1975,0.0312 0.48625,0.0538 0.63875,0.0538 0.28875,0 0.40625,-0.0763 0.40625,-0.25625 0,-0.2075 -0.0775,-0.2525 -0.36125,-0.2925 -0.44125,-0.0638 -0.8275,-0.1575 -0.8275,-0.64875 0,-0.445 0.34125,-0.67875 0.84625,-0.67875 0.18375,0 0.495,0.0263 0.68375,0.0987 0.0763,0.0312 0.10875,0.0675 0.095,0.135 l -0.0362,0.16125 c -0.0137,0.0638 -0.04,0.0725 -0.12125,0.0638 -0.19375,-0.0225 -0.44625,-0.05 -0.6125,-0.05 -0.2875,0 -0.355,0.0812 -0.355,0.2525 0,0.175 0.1075,0.1975 0.3825,0.2425 0.4275,0.0637 0.81375,0.14875 0.81375,0.685 0,0.52625 -0.445,0.6975 -0.90875,0.6975"
         id="path5769"
         style="fill:#5a5758;fill-opacity:1;fill-rule:nonzero;stroke:none" />
      <path
         d="m 313.29685,560.82543 c 0,0.0488 -0.0175,0.085 -0.0813,0.085 l -0.32,0 c -0.0625,0 -0.09,-0.0263 -0.09,-0.085 l 0,-2.035 c 0,-0.0625 0.0275,-0.085 0.09,-0.085 l 0.32,0 c 0.0638,0 0.0813,0.0362 0.0813,0.085 l 0,2.035 z m -0.23875,-2.44375 c -0.23375,0 -0.265,-0.13125 -0.265,-0.26125 0,-0.14375 0.0488,-0.2575 0.265,-0.2575 0.22125,0 0.26625,0.10375 0.26625,0.2575 0,0.13875 -0.0412,0.26125 -0.26625,0.26125"
         id="path5773"
         style="fill:#5a5758;fill-opacity:1;fill-rule:nonzero;stroke:none" />
      <path
         d="m 314.59735,559.0923 c -0.3825,0 -0.4675,0.24375 -0.4675,0.71125 0,0.4775 0.085,0.71125 0.4625,0.71125 0.41,0 0.49125,-0.23 0.49125,-0.71125 0,-0.4775 -0.0763,-0.71125 -0.48625,-0.71125 m -0.005,1.855 c -0.90375,0 -0.9625,-0.6625 -0.9625,-1.175 0,-0.42375 0.0937,-1.1125 0.9625,-1.1125 0.87375,0 0.995,0.58125 0.995,1.1125 0,0.5125 -0.0625,1.175 -0.995,1.175"
         id="path5777"
         style="fill:#5a5758;fill-opacity:1;fill-rule:nonzero;stroke:none" />
      <path
         d="m 317.66673,560.91093 -0.32375,0 c -0.0588,0 -0.0863,-0.0275 -0.0863,-0.085 l 0.005,-1.265 c 0,-0.26625 -0.0625,-0.44125 -0.32375,-0.44125 -0.18,0 -0.495,0.14375 -0.6175,0.2025 l 0,1.50375 c 0,0.0538 -0.0225,0.085 -0.085,0.085 l -0.32,0 c -0.0625,0 -0.085,-0.0275 -0.085,-0.085 l 0,-2.03125 c 0,-0.0575 0.0225,-0.0888 0.085,-0.0888 l 0.32,0 c 0.0625,0 0.085,0.0312 0.085,0.0888 l 0,0.13625 c 0.005,0 0.009,0.004 0.0138,0.004 0.16625,-0.11625 0.4825,-0.27 0.75625,-0.27 0.6075,0 0.6625,0.40125 0.6625,0.855 l 0,1.30625 c 0,0.0538 -0.0187,0.085 -0.0863,0.085"
         id="path5781"
         style="fill:#5a5758;fill-opacity:1;fill-rule:nonzero;stroke:none" />
    </g>
  </g>
</svg>
