<?xml version="1.0" encoding="UTF-8" standalone="no"?>
<!-- Created with Inkscape (http://www.inkscape.org/) -->

<svg
   xmlns:dc="http://purl.org/dc/elements/1.1/"
   xmlns:cc="http://creativecommons.org/ns#"
   xmlns:rdf="http://www.w3.org/1999/02/22-rdf-syntax-ns#"
   xmlns:svg="http://www.w3.org/2000/svg"
   xmlns="http://www.w3.org/2000/svg"
   xmlns:sodipodi="http://sodipodi.sourceforge.net/DTD/sodipodi-0.dtd"
   xmlns:inkscape="http://www.inkscape.org/namespaces/inkscape"
   width="480"
   height="360"
   viewBox="0 0 480 360"
   version="1.1"
   id="svg4855"
   inkscape:version="0.92.3 (2405546, 2018-03-11)"
   sodipodi:docname="gsoc-coders-wanted.svg">
  <defs
     id="defs4849" />
  <sodipodi:namedview
     id="base"
     pagecolor="#ffffff"
     bordercolor="#666666"
     borderopacity="1.0"
     inkscape:pageopacity="0.0"
     inkscape:pageshadow="2"
     inkscape:zoom="1.4"
     inkscape:cx="154.46248"
     inkscape:cy="160"
     inkscape:document-units="mm"
     inkscape:current-layer="layer1"
     showgrid="false"
     inkscape:window-width="1920"
     inkscape:window-height="1017"
     inkscape:window-x="-8"
     inkscape:window-y="-8"
     inkscape:window-maximized="1" />
  <metadata
     id="metadata4852">
    <rdf:RDF>
      <cc:Work
         rdf:about="">
        <dc:format>image/svg+xml</dc:format>
        <dc:type
           rdf:resource="http://purl.org/dc/dcmitype/StillImage" />
        <dc:title></dc:title>
      </cc:Work>
    </rdf:RDF>
  </metadata>
  <g
     inkscape:label="Calque 1"
     inkscape:groupmode="layer"
     id="layer1">
    <g
       id="g4493"
       transform="matrix(0.96829331,0,0,0.96829331,335.72326,-1023.7291)">
      <g
         aria-label="Google Summer of Code"
         style="font-style:normal;font-weight:normal;font-size:32.22310257px;line-height:1.25;font-family:sans-serif;letter-spacing:0px;word-spacing:0px;fill:#4d4d4d;fill-opacity:1;stroke:none;stroke-width:0.80557752"
         id="text3039">
        <path
           d="m -223.35829,1394.3396 q -1.91954,0.8811 -4.20097,1.5419 -2.26568,0.6451 -4.38976,0.6451 -2.73771,0 -5.01913,-0.7552 -2.28142,-0.7553 -3.88628,-2.2657 -1.6206,-1.5262 -2.5017,-3.8076 -0.8811,-2.2972 -0.8811,-5.3653 0,-5.617 3.27266,-8.8582 3.28839,-3.2569 9.01555,-3.2569 1.99821,0 4.07509,0.4877 2.09261,0.472 4.4999,1.6206 v 3.6975 h -0.28321 q -0.48775,-0.3776 -1.41605,-0.9913 -0.92831,-0.6136 -1.82514,-1.0227 -1.08564,-0.4877 -2.47023,-0.8024 -1.36885,-0.3304 -3.11532,-0.3304 -3.93348,0 -6.23064,2.5332 -2.28142,2.5174 -2.28142,6.8285 0,4.5471 2.39156,7.0803 2.39156,2.5174 6.51385,2.5174 1.51046,0 3.00518,-0.299 1.51046,-0.2989 2.6433,-0.7709 v -5.7429 h -6.27784 v -2.7377 h 9.3617 z"
           style="fill:#4d4d4d;stroke-width:0.80557752"
           id="path5754" />
        <path
           d="m -203.17165,1387.2908 q 0,4.2953 -2.20276,6.7813 -2.20275,2.486 -5.90022,2.486 -3.72894,0 -5.9317,-2.486 -2.18701,-2.486 -2.18701,-6.7813 0,-4.2954 2.18701,-6.7814 2.20276,-2.5016 5.9317,-2.5016 3.69747,0 5.90022,2.5016 2.20276,2.486 2.20276,6.7814 z m -3.05239,0 q 0,-3.4143 -1.33738,-5.0664 -1.33739,-1.6677 -3.71321,-1.6677 -2.40729,0 -3.74468,1.6677 -1.32165,1.6521 -1.32165,5.0664 0,3.3041 1.33739,5.0191 1.33738,1.6993 3.72894,1.6993 2.36009,0 3.69747,-1.6836 1.35312,-1.6992 1.35312,-5.0348 z"
           style="fill:#4d4d4d;stroke-width:0.80557752"
           id="path5756" />
        <path
           d="m -183.59863,1387.2908 q 0,4.2953 -2.20276,6.7813 -2.20275,2.486 -5.90022,2.486 -3.72895,0 -5.9317,-2.486 -2.18701,-2.486 -2.18701,-6.7813 0,-4.2954 2.18701,-6.7814 2.20275,-2.5016 5.9317,-2.5016 3.69747,0 5.90022,2.5016 2.20276,2.486 2.20276,6.7814 z m -3.05239,0 q 0,-3.4143 -1.33738,-5.0664 -1.33739,-1.6677 -3.71321,-1.6677 -2.40729,0 -3.74468,1.6677 -1.32165,1.6521 -1.32165,5.0664 0,3.3041 1.33738,5.0191 1.33739,1.6993 3.72895,1.6993 2.36009,0 3.69747,-1.6836 1.35312,-1.6992 1.35312,-5.0348 z"
           style="fill:#4d4d4d;stroke-width:0.80557752"
           id="path5758" />
        <path
           d="m -164.74938,1394.0721 q 0,4.4684 -2.02968,6.5611 -2.02968,2.0926 -6.24637,2.0926 -1.40032,0 -2.73771,-0.2046 -1.32165,-0.1888 -2.61183,-0.5507 v -3.0209 h 0.15734 q 0.72376,0.2832 2.29715,0.6923 1.5734,0.4248 3.14679,0.4248 1.51046,0 2.5017,-0.3618 0.99123,-0.3619 1.54192,-1.007 0.55069,-0.6136 0.7867,-1.479 0.23601,-0.8654 0.23601,-1.9353 v -1.6048 q -1.33739,1.0699 -2.56463,1.6048 -1.21152,0.5192 -3.09959,0.5192 -3.14679,0 -5.00339,-2.2657 -1.84087,-2.2814 -1.84087,-6.4194 0,-2.2657 0.62935,-3.902 0.6451,-1.6521 1.74647,-2.8479 1.02271,-1.1171 2.48596,-1.7307 1.46326,-0.6293 2.91078,-0.6293 1.52619,0 2.5489,0.3146 1.03844,0.299 2.18702,0.9283 l 0.1888,-0.7552 h 2.76918 z m -2.95798,-2.8321 v -9.582 q -1.18005,-0.5349 -2.20275,-0.7552 -1.00698,-0.236 -2.01395,-0.236 -2.43876,0 -3.83908,1.6363 -1.40032,1.6363 -1.40032,4.7517 0,2.9579 1.03844,4.4841 1.03844,1.5262 3.44573,1.5262 1.29019,0 2.58037,-0.4877 1.30592,-0.5035 2.39156,-1.3374 z"
           style="fill:#4d4d4d;stroke-width:0.80557752"
           id="path5760" />
        <path
           d="m -155.93837,1396.0703 h -2.95798 v -24.482 h 2.95798 z"
           style="fill:#4d4d4d;stroke-width:0.80557752"
           id="path5762" />
        <path
           d="m -135.34265,1387.5897 h -12.94903 q 0,1.6206 0.48775,2.8321 0.48775,1.1958 1.33739,1.9668 0.81816,0.7552 1.93527,1.1328 1.13284,0.3776 2.48596,0.3776 1.79367,0 3.60307,-0.708 1.82514,-0.7238 2.5961,-1.4161 h 0.15734 v 3.2255 q -1.49472,0.6294 -3.05238,1.0542 -1.55766,0.4248 -3.27266,0.4248 -4.37404,0 -6.82853,-2.3601 -2.45449,-2.3758 -2.45449,-6.7341 0,-4.3111 2.34435,-6.8443 2.36009,-2.5331 6.19917,-2.5331 3.55587,0 5.47541,2.0768 1.93528,2.0769 1.93528,5.9003 z m -2.87931,-2.2657 q -0.0157,-2.3286 -1.18005,-3.603 -1.14857,-1.2745 -3.50867,-1.2745 -2.37582,0 -3.79187,1.4003 -1.40032,1.4004 -1.58913,3.4772 z"
           style="fill:#4d4d4d;stroke-width:0.80557752"
           id="path5764" />
        <path
           d="m -102.26992,1389.3834 q 0,1.3688 -0.64509,2.7062 -0.62936,1.3374 -1.77794,2.2657 -1.25871,1.007 -2.94224,1.5734 -1.6678,0.5664 -4.02789,0.5664 -2.53316,0 -4.56284,-0.472 -2.01395,-0.472 -4.10656,-1.4003 v -3.902 h 0.22028 q 1.77793,1.479 4.10655,2.2814 2.32863,0.8024 4.37404,0.8024 2.89504,0 4.4999,-1.0856 1.6206,-1.0857 1.6206,-2.8951 0,-1.5576 -0.77096,-2.2971 -0.75523,-0.7395 -2.31289,-1.1486 -1.18005,-0.3147 -2.56463,-0.5192 -1.36886,-0.2046 -2.91078,-0.5192 -3.11532,-0.6609 -4.62578,-2.25 -1.49472,-1.6048 -1.49472,-4.1695 0,-2.9422 2.48596,-4.8146 2.48596,-1.888 6.30931,-1.888 2.47023,0 4.53137,0.472 2.06115,0.472 3.65027,1.1643 v 3.6817 h -0.22027 q -1.33739,-1.1328 -3.5244,-1.8723 -2.17129,-0.7552 -4.45271,-0.7552 -2.50169,0 -4.02788,1.0384 -1.51046,1.0384 -1.51046,2.6748 0,1.4632 0.75523,2.2971 0.75523,0.8339 2.65903,1.2745 1.00697,0.2203 2.86358,0.5349 1.8566,0.3147 3.14679,0.6451 2.61183,0.6923 3.93348,2.0926 1.32165,1.4004 1.32165,3.9178 z"
           style="fill:#4d4d4d;stroke-width:0.80557752"
           id="path5766" />
        <path
           d="m -82.932911,1396.0703 h -2.95798 v -1.951 q -1.494724,1.18 -2.863577,1.8094 -1.368852,0.6294 -3.020916,0.6294 -2.769172,0 -4.311098,-1.6836 -1.541926,-1.6992 -1.541926,-4.9719 v -11.4071 h 2.95798 v 10.0068 q 0,1.3374 0.125872,2.2971 0.125871,0.9441 0.534953,1.6206 0.424817,0.6923 1.101376,1.007 0.676559,0.3147 1.966742,0.3147 1.148578,0 2.501696,-0.5979 1.368853,-0.5979 2.548898,-1.5262 v -13.1221 h 2.95798 z"
           style="fill:#4d4d4d;stroke-width:0.80557752"
           id="path5768" />
        <path
           d="m -51.46503,1396.0703 h -2.95798 v -10.0068 q 0,-1.1328 -0.110138,-2.187 -0.0944,-1.0542 -0.424816,-1.6835 -0.36188,-0.6766 -1.03844,-1.0227 -0.676559,-0.3462 -1.951008,-0.3462 -1.242981,0 -2.485962,0.6294 -1.242981,0.6136 -2.485962,1.5734 0.0472,0.3619 0.07867,0.8496 0.03147,0.472 0.03147,0.944 v 11.2498 h -2.957981 v -10.0068 q 0,-1.1643 -0.110137,-2.2027 -0.0944,-1.0542 -0.424816,-1.6836 -0.361881,-0.6765 -1.03844,-1.0069 -0.676559,-0.3462 -1.951008,-0.3462 -1.211513,0 -2.438761,0.5979 -1.211513,0.5979 -2.423026,1.5262 v 13.1221 h -2.95798 v -17.5748 h 2.95798 v 1.951 q 1.384587,-1.1486 2.753439,-1.7937 1.384587,-0.645 2.942246,-0.645 1.793669,0 3.03665,0.7552 1.258715,0.7552 1.872339,2.0926 1.793668,-1.5105 3.272658,-2.1713 1.478991,-0.6765 3.162522,-0.6765 2.895044,0 4.263897,1.7622 1.384586,1.7464 1.384586,4.8932 z"
           style="fill:#4d4d4d;stroke-width:0.80557752"
           id="path5770" />
        <path
           d="m -20.123035,1396.0703 h -2.95798 v -10.0068 q 0,-1.1328 -0.110137,-2.187 -0.0944,-1.0542 -0.424817,-1.6835 -0.36188,-0.6766 -1.03844,-1.0227 -0.676559,-0.3462 -1.951008,-0.3462 -1.242981,0 -2.485962,0.6294 -1.242981,0.6136 -2.485962,1.5734 0.0472,0.3619 0.07867,0.8496 0.03147,0.472 0.03147,0.944 v 11.2498 h -2.95798 v -10.0068 q 0,-1.1643 -0.110138,-2.2027 -0.0944,-1.0542 -0.424816,-1.6836 -0.361881,-0.6765 -1.03844,-1.0069 -0.676559,-0.3462 -1.951008,-0.3462 -1.211513,0 -2.43876,0.5979 -1.211513,0.5979 -2.423027,1.5262 v 13.1221 h -2.95798 v -17.5748 h 2.95798 v 1.951 q 1.384587,-1.1486 2.753439,-1.7937 1.384587,-0.645 2.942247,-0.645 1.793668,0 3.036649,0.7552 1.258715,0.7552 1.872339,2.0926 1.793669,-1.5105 3.272659,-2.1713 1.47899,-0.6765 3.162521,-0.6765 2.895044,0 4.263897,1.7622 1.384586,1.7464 1.384586,4.8932 z"
           style="fill:#4d4d4d;stroke-width:0.80557752"
           id="path5772" />
        <path
           d="M 0.28388971,1387.5897 H -12.66514 q 0,1.6206 0.487752,2.8321 0.487752,1.1958 1.337384,1.9668 0.818165,0.7552 1.9352746,1.1328 1.1328435,0.3776 2.485962,0.3776 1.7936688,0 3.6030716,-0.708 1.82513663,-0.7238 2.59609953,-1.4161 h 0.15733937 v 3.2255 q -1.494724,0.6294 -3.0523837,1.0542 -1.5576598,0.4248 -3.2726589,0.4248 -4.3740345,0 -6.8285285,-2.3601 -2.454494,-2.3758 -2.454494,-6.7341 0,-4.3111 2.344356,-6.8443 2.360091,-2.5331 6.1991715,-2.5331 3.5558697,0 5.47541,2.0768 1.93527421,2.0769 1.93527421,5.9003 z m -2.87931041,-2.2657 q -0.015734,-2.3286 -1.1800453,-3.603 -1.1485774,-1.2745 -3.5086679,-1.2745 -2.3758244,0 -3.7918791,1.4003 -1.40032,1.4004 -1.589127,3.4772 z"
           style="fill:#4d4d4d;stroke-width:0.80557752"
           id="path5774" />
        <path
           d="m 15.734602,1381.721 h -0.15734 q -0.660825,-0.1574 -1.290183,-0.2203 -0.613623,-0.079 -1.463256,-0.079 -1.368852,0 -2.643301,0.6136 -1.274449,0.5979 -2.4544943,1.5577 v 12.477 H 4.7680476 v -17.5748 h 2.9579801 v 2.5961 q 1.7622009,-1.416 3.0995853,-1.9982 1.353119,-0.5979 2.753439,-0.5979 0.770963,0 1.11711,0.047 0.346146,0.032 1.03844,0.1416 z"
           style="fill:#4d4d4d;stroke-width:0.80557752"
           id="path5776" />
        <path
           d="m 44.858114,1387.2908 q 0,4.2953 -2.202751,6.7813 -2.202751,2.486 -5.900226,2.486 -3.728943,0 -5.931695,-2.486 -2.187017,-2.486 -2.187017,-6.7813 0,-4.2954 2.187017,-6.7814 2.202752,-2.5016 5.931695,-2.5016 3.697475,0 5.900226,2.5016 2.202751,2.486 2.202751,6.7814 z m -3.052384,0 q 0,-3.4143 -1.337384,-5.0664 -1.337385,-1.6677 -3.713209,-1.6677 -2.407293,0 -3.744677,1.6677 -1.321651,1.6521 -1.321651,5.0664 0,3.3041 1.337385,5.0191 1.337384,1.6993 3.728943,1.6993 2.36009,0 3.697475,-1.6836 1.353118,-1.6992 1.353118,-5.0348 z"
           style="fill:#4d4d4d;stroke-width:0.80557752"
           id="path5778" />
        <path
           d="m 58.908531,1374.4519 h -0.15734 q -0.487752,-0.1416 -1.274448,-0.2832 -0.786697,-0.1574 -1.384587,-0.1574 -1.903806,0 -2.769173,0.8497 -0.849632,0.8339 -0.849632,3.0366 v 0.5979 h 5.333804 v 2.486 h -5.239401 v 15.0888 h -2.95798 v -15.0888 h -1.99821 v -2.486 h 1.99821 v -0.5822 q 0,-3.131 1.55766,-4.7988 1.55766,-1.6835 4.499906,-1.6835 0.991238,0 1.777935,0.094 0.80243,0.094 1.463256,0.2202 z"
           style="fill:#4d4d4d;stroke-width:0.80557752"
           id="path5780" />
        <path
           d="m 90.439332,1394.371 q -0.865367,0.3777 -1.573394,0.7081 -0.692293,0.3304 -1.825137,0.6923 -0.95977,0.2989 -2.092613,0.5035 -1.11711,0.2202 -2.470228,0.2202 -2.548898,0 -4.641512,-0.708 -2.07688,-0.7238 -3.618805,-2.25 -1.510458,-1.4947 -2.360091,-3.7918 -0.849632,-2.3129 -0.849632,-5.3653 0,-2.895 0.818164,-5.1765 0.818165,-2.2814 2.360091,-3.8548 1.494724,-1.5262 3.603071,-2.3286 2.124082,-0.8024 4.704447,-0.8024 1.888073,0 3.760411,0.4562 1.888073,0.4563 4.185228,1.6049 v 3.6975 h -0.23601 q -1.935274,-1.6206 -3.83908,-2.3601 -1.903806,-0.7395 -4.07509,-0.7395 -1.777935,0 -3.209723,0.5822 -1.416054,0.5664 -2.533164,1.7779 -1.085641,1.18 -1.699265,2.9894 -0.597889,1.7937 -0.597889,4.1538 0,2.4702 0.660825,4.2482 0.676559,1.7779 1.730733,2.895 1.101376,1.1643 2.564632,1.7307 1.47899,0.5507 3.115319,0.5507 2.249953,0 4.216695,-0.7709 1.966742,-0.771 3.681741,-2.3129 h 0.220276 z"
           style="fill:#4d4d4d;stroke-width:0.80557752"
           id="path5782" />
        <path
           d="m 109.61901,1387.2908 q 0,4.2953 -2.20275,6.7813 -2.20275,2.486 -5.90023,2.486 -3.728942,0 -5.931693,-2.486 -2.187017,-2.486 -2.187017,-6.7813 0,-4.2954 2.187017,-6.7814 2.202751,-2.5016 5.931693,-2.5016 3.69748,0 5.90023,2.5016 2.20275,2.486 2.20275,6.7814 z m -3.05238,0 q 0,-3.4143 -1.33739,-5.0664 -1.33738,-1.6677 -3.71321,-1.6677 -2.407291,0 -3.744676,1.6677 -1.32165,1.6521 -1.32165,5.0664 0,3.3041 1.337384,5.0191 1.337385,1.6993 3.728942,1.6993 2.36009,0 3.69748,-1.6836 1.35312,-1.6992 1.35312,-5.0348 z"
           style="fill:#4d4d4d;stroke-width:0.80557752"
           id="path5784" />
        <path
           d="m 128.46828,1396.0703 h -2.95798 v -1.8409 q -1.27445,1.1014 -2.65904,1.715 -1.38459,0.6137 -3.00518,0.6137 -3.14679,0 -5.00339,-2.4231 -1.84087,-2.423 -1.84087,-6.7184 0,-2.2342 0.62935,-3.9806 0.6451,-1.7465 1.73074,-2.9738 1.0699,-1.1957 2.48596,-1.8251 1.43179,-0.6293 2.95798,-0.6293 1.38459,0 2.45449,0.2989 1.06991,0.2832 2.24996,0.8968 v -7.6152 h 2.95798 z m -2.95798,-4.3268 v -10.0855 q -1.19578,-0.5349 -2.13982,-0.7395 -0.94404,-0.2045 -2.06114,-0.2045 -2.48597,0 -3.87055,1.7307 -1.38459,1.7308 -1.38459,4.909 0,3.1311 1.06991,4.7674 1.06991,1.6206 3.43,1.6206 1.25871,0 2.54889,-0.5507 1.29019,-0.5664 2.4073,-1.4475 z"
           style="fill:#4d4d4d;stroke-width:0.80557752"
           id="path5786" />
        <path
           d="m 149.00107,1387.5897 h -12.94903 q 0,1.6206 0.48775,2.8321 0.48775,1.1958 1.33738,1.9668 0.81817,0.7552 1.93528,1.1328 1.13284,0.3776 2.48596,0.3776 1.79367,0 3.60307,-0.708 1.82514,-0.7238 2.5961,-1.4161 h 0.15734 v 3.2255 q -1.49472,0.6294 -3.05238,1.0542 -1.55766,0.4248 -3.27266,0.4248 -4.37404,0 -6.82853,-2.3601 -2.45449,-2.3758 -2.45449,-6.7341 0,-4.3111 2.34435,-6.8443 2.36009,-2.5331 6.19917,-2.5331 3.55587,0 5.47541,2.0768 1.93528,2.0769 1.93528,5.9003 z m -2.87931,-2.2657 q -0.0157,-2.3286 -1.18005,-3.603 -1.14858,-1.2745 -3.50867,-1.2745 -2.37582,0 -3.79187,1.4003 -1.40032,1.4004 -1.58913,3.4772 z"
           style="fill:#4d4d4d;stroke-width:0.80557752"
           id="path5788" />
      </g>
      <g
         transform="matrix(0.49920217,0,0,0.49920217,-350.80972,1337.3358)"
         id="g4190">
        <path
           style="fill:#fbbc05"
           inkscape:connector-curvature="0"
           class="st0"
           d="M 158.1,33.7 H 121.7 L 96,8 70.3,33.7 H 33.9 V 70.1 L 8.2,95.9 33.9,121.6 V 158 H 70.3 L 96,183.7 121.7,158 h 36.4 V 121.6 L 183.8,95.9 158.1,70.2 Z m 0.6,62.2 c 0,34.6 -28.1,62.7 -62.7,62.7 -34.6,0 -62.7,-28.1 -62.7,-62.7 0,-34.6 28.1,-62.7 62.7,-62.7 34.6,0 62.7,28.1 62.7,62.7 z"
           id="path4186" />
        <path
           style="fill:#fbbc05"
           inkscape:connector-curvature="0"
           class="st0"
           d="m 96,41.2 c -30.2,0 -54.7,24.5 -54.7,54.7 0,30.2 24.5,54.7 54.7,54.7 30.2,0 54.7,-24.5 54.7,-54.7 C 150.7,65.7 126.2,41.2 96,41.2 Z M 79.9,75.6 v 9 l -14.5,11.3 14.5,11.3 v 9 l -1,-0.7 L 57.4,98.7 56,97.6 v -3.4 l 1.4,-1.1 21.5,-16.7 z m 25.8,-5.2 -11.9,52.6 -0.1,0.4 h -7.4 l 0.4,-2 11.9,-52.5 0.1,-0.4 h 7.4 z m 30.3,27.2 -1.4,1.1 -21.6,16.7 -1,0.7 v -9 L 126.5,95.8 112,84.5 v -9 0 l 1,0.7 21.5,16.8 1.4,1.1 v 3.5 z"
           id="path4188" />
      </g>
    </g>
    <g
       id="g4604"
       transform="matrix(1.0879746,0,0,1.0879746,317.69124,-1178.284)">
      <path
         style="fill:none;fill-rule:evenodd;stroke:#000000;stroke-width:4.3049922;stroke-linecap:butt;stroke-linejoin:miter;stroke-miterlimit:4;stroke-dasharray:none;stroke-opacity:1"
         d="m -153.94279,1244.0823 c -35.56093,5.4143 -42.93442,-34.208 -48.07362,-66.2359"
         id="path6107"
         inkscape:connector-curvature="0"
         sodipodi:nodetypes="cc" />
      <path
         id="path2745"
         d="m 96.765501,1225.3585 c -29.0404,0 -52.4187,23.3782 -52.4187,52.4187 v 51.2984 H 149.1843 v -51.2984 c 0,-29.0405 -23.3783,-52.4187 -52.418799,-52.4187 z"
         style="opacity:1;fill:#00d400;fill-opacity:1;fill-rule:evenodd;stroke:none;stroke-width:3;stroke-linecap:round;stroke-linejoin:round;stroke-miterlimit:4;stroke-dasharray:none;stroke-dashoffset:0;stroke-opacity:1"
         inkscape:connector-curvature="0" />
      <path
         style="opacity:1;fill:#1a1a1a;fill-opacity:1;fill-rule:evenodd;stroke:none;stroke-width:3;stroke-linecap:round;stroke-linejoin:round;stroke-miterlimit:4;stroke-dasharray:none;stroke-dashoffset:0;stroke-opacity:1"
         d="m 65.282476,1258.7886 h 63.246444 c 2.89361,0 5.22312,2.3295 5.22312,5.2231 v 47.0632 c 0,2.8937 -2.32951,5.2232 -5.22312,5.2232 H 65.282476 c -2.893608,0 -5.223119,-2.3295 -5.223119,-5.2232 v -47.0632 c 0,-2.8936 2.329511,-5.2231 5.223119,-5.2231 z"
         id="rect2747" />
      <path
         style="opacity:1;fill:#0066ff;fill-opacity:1;fill-rule:evenodd;stroke:none;stroke-width:3;stroke-linecap:round;stroke-linejoin:round;stroke-miterlimit:4;stroke-dasharray:none;stroke-dashoffset:0;stroke-opacity:1"
         d="m 69.464292,1263.0784 h 54.882758 c 2.64179,0 4.76858,2.1268 4.76858,4.7686 v 39.3929 c 0,2.6418 -2.12679,4.7685 -4.76858,4.7685 H 69.464292 c -2.641795,0 -4.768583,-2.1267 -4.768583,-4.7685 v -39.3929 c 0,-2.6418 2.126788,-4.7686 4.768583,-4.7686 z"
         id="rect2749" />
      <g
         style="fill:#f9f9f9"
         transform="matrix(0.19876646,0,0,0.19876646,-64.851499,1055.5951)"
         id="g2767">
        <path
           style="opacity:1;fill:#f9f9f9;fill-opacity:1;fill-rule:evenodd;stroke:none;stroke-width:3;stroke-linecap:round;stroke-linejoin:round;stroke-miterlimit:4;stroke-dasharray:none;stroke-dashoffset:0;stroke-opacity:1"
           d="m 830.01074,1102.5214 h 53.29409 v 53.294 h -53.29409 z"
           id="rect2751" />
        <g
           style="fill:#f9f9f9"
           id="g2759"
           transform="translate(-29.390167)">
          <path
             style="opacity:1;fill:#f9f9f9;fill-opacity:1;fill-rule:evenodd;stroke:none;stroke-width:3;stroke-linecap:round;stroke-linejoin:round;stroke-miterlimit:4;stroke-dasharray:none;stroke-dashoffset:0;stroke-opacity:1"
             d="m 800.62061,1220.0818 h 53.29408 v 53.2941 h -53.29408 z"
             id="rect2753" />
          <path
             style="opacity:1;fill:#f9f9f9;fill-opacity:1;fill-rule:evenodd;stroke:none;stroke-width:3;stroke-linecap:round;stroke-linejoin:round;stroke-miterlimit:4;stroke-dasharray:none;stroke-dashoffset:0;stroke-opacity:1"
             d="m 859.40088,1220.0818 h 53.29409 v 53.2941 h -53.29409 z"
             id="rect2755" />
          <path
             style="opacity:1;fill:#f9f9f9;fill-opacity:1;fill-rule:evenodd;stroke:none;stroke-width:3;stroke-linecap:round;stroke-linejoin:round;stroke-miterlimit:4;stroke-dasharray:none;stroke-dashoffset:0;stroke-opacity:1"
             d="m 918.18121,1220.0818 h 53.29409 v 53.2941 h -53.29409 z"
             id="rect2757" />
        </g>
        <g
           style="fill:#f9f9f9"
           id="g2765">
          <path
             style="opacity:1;fill:#f9f9f9;fill-opacity:1;fill-rule:evenodd;stroke:none;stroke-width:3;stroke-linecap:round;stroke-linejoin:round;stroke-miterlimit:4;stroke-dasharray:none;stroke-dashoffset:0;stroke-opacity:1"
             d="m 800.62061,1161.3015 h 53.29408 v 53.2941 h -53.29408 z"
             id="rect2761" />
          <path
             style="opacity:1;fill:#f9f9f9;fill-opacity:1;fill-rule:evenodd;stroke:none;stroke-width:3;stroke-linecap:round;stroke-linejoin:round;stroke-miterlimit:4;stroke-dasharray:none;stroke-dashoffset:0;stroke-opacity:1"
             d="m 859.40088,1161.3015 h 53.29409 v 53.2941 h -53.29409 z"
             id="rect2763" />
        </g>
      </g>
      <g
         id="g2775"
         transform="matrix(0.14865841,0,0,0.14865841,245.1584,1144.3128)">
        <path
           style="opacity:1;fill:#ff0000;fill-opacity:1;fill-rule:evenodd;stroke:none;stroke-width:3;stroke-linecap:round;stroke-linejoin:round;stroke-miterlimit:4;stroke-dasharray:none;stroke-dashoffset:0;stroke-opacity:1"
           d="m -1136.8626,813.15784 h 15.0405 c 11.3414,0 20.4718,9.1304 20.4718,20.47176 v 78.32676 c 0,11.34136 -9.1304,20.47176 -20.4718,20.47176 h -15.0405 c -11.3413,0 -20.4718,-9.1304 -20.4718,-20.47176 V 833.6296 c 0,-11.34136 9.1305,-20.47176 20.4718,-20.47176 z"
           id="rect2769" />
        <path
           style="opacity:1;fill:#280b0b;fill-opacity:1;fill-rule:evenodd;stroke:none;stroke-width:3;stroke-linecap:round;stroke-linejoin:round;stroke-miterlimit:4;stroke-dasharray:none;stroke-dashoffset:0;stroke-opacity:1"
           d="m -1145.0665,856.41821 h 31.4483 c 23.7137,0 42.8046,19.09086 42.8046,42.80461 V 1062.997 c 0,23.7137 -19.0909,42.8046 -42.8046,42.8046 h -31.4483 c -23.7137,0 -42.8046,-19.0909 -42.8046,-42.8046 V 899.22282 c 0,-23.71375 19.0909,-42.80461 42.8046,-42.80461 z"
           id="rect2771" />
        <path
           inkscape:connector-curvature="0"
           style="opacity:1;fill:#ff0000;fill-opacity:1;fill-rule:evenodd;stroke:none;stroke-width:3;stroke-linecap:round;stroke-linejoin:round;stroke-miterlimit:4;stroke-dasharray:none;stroke-dashoffset:0;stroke-opacity:1"
           d="m -1187.869,920.03759 v 122.14181 h 117.0547 V 920.03759 Z"
           id="path2773" />
      </g>
      <path
         id="path2777"
         d="m 66.660901,1263.9994 c -1.1882,0.8656 -1.9649,2.2587 -1.9649,3.8477 v 39.3925 c 0,2.6418 2.1258,4.7696 4.7676,4.7696 H 124.3464 c 1.0037,0 1.9307,-0.3104 2.6973,-0.836 z"
         style="opacity:1;fill:#ffffff;fill-opacity:0.24705882;fill-rule:evenodd;stroke:none;stroke-width:3;stroke-linecap:round;stroke-linejoin:round;stroke-miterlimit:4;stroke-dasharray:none;stroke-dashoffset:0;stroke-opacity:1"
         inkscape:connector-curvature="0" />
      <g
         transform="matrix(0.22805837,0,0,0.22805837,11.917801,1149.8464)"
         id="g2783">
        <path
           inkscape:connector-curvature="0"
           id="path2779"
           d="m -233.21696,249.88785 a 174.37042,174.37042 0 0 0 -69.36556,140.89382 174.37042,174.37042 0 0 0 154.60658,-27.53621 174.37042,174.37042 0 0 0 69.365565,-140.89382 174.37042,174.37042 0 0 0 -154.606585,27.53621 z"
           style="opacity:1;fill:#ff6600;fill-opacity:1;fill-rule:evenodd;stroke:none;stroke-width:3;stroke-linecap:round;stroke-linejoin:round;stroke-miterlimit:4;stroke-dasharray:none;stroke-dashoffset:0;stroke-opacity:1" />
        <path
           style="opacity:1;fill:#ff6600;fill-opacity:1;fill-rule:evenodd;stroke:none;stroke-width:3;stroke-linecap:round;stroke-linejoin:round;stroke-miterlimit:4;stroke-dasharray:none;stroke-dashoffset:0;stroke-opacity:1"
           d="M 33.850945,249.88785 A 174.37042,174.37042 0 0 1 103.21651,390.78167 174.37042,174.37042 0 0 1 -51.390075,363.24546 174.37042,174.37042 0 0 1 -120.75564,222.35164 174.37042,174.37042 0 0 1 33.850945,249.88785 Z"
           id="path2781"
           inkscape:connector-curvature="0" />
      </g>
      <path
         inkscape:connector-curvature="0"
         style="opacity:1;fill:#ff0000;fill-opacity:1;fill-rule:evenodd;stroke:none;stroke-width:3;stroke-linecap:round;stroke-linejoin:round;stroke-miterlimit:4;stroke-dasharray:none;stroke-dashoffset:0;stroke-opacity:1"
         d="m -118.397,1225.3585 c -29.0405,0 -52.4187,23.3782 -52.4187,52.4187 v 51.2984 h 104.837501 v -51.2984 c 0,-29.0405 -23.3783,-52.4187 -52.418801,-52.4187 z"
         id="path2785" />
      <path
         style="opacity:1;fill:#ffcc00;fill-opacity:1;fill-rule:evenodd;stroke:none;stroke-width:3;stroke-linecap:round;stroke-linejoin:round;stroke-miterlimit:4;stroke-dasharray:none;stroke-dashoffset:0;stroke-opacity:1"
         d="m -78.630306,1188.3032 a 39.766636,39.766636 0 0 1 -39.766634,39.7667 39.766636,39.766636 0 0 1 -39.76664,-39.7667 39.766636,39.766636 0 0 1 39.76664,-39.7666 39.766636,39.766636 0 0 1 39.766634,39.7666 z"
         id="circle2787" />
      <g
         id="g2793"
         transform="matrix(0.24544739,0,0,0.24544739,193.4023,1106.2421)">
        <path
           style="opacity:1;fill:#000000;fill-opacity:1;fill-rule:evenodd;stroke:none;stroke-width:3;stroke-linecap:round;stroke-linejoin:round;stroke-miterlimit:4;stroke-dasharray:none;stroke-dashoffset:0;stroke-opacity:1"
           d="m -1305.3113,334.33255 a 22.09322,22.09322 0 0 1 -22.0932,22.09322 22.09322,22.09322 0 0 1 -22.0933,-22.09322 22.09322,22.09322 0 0 1 22.0933,-22.09322 22.09322,22.09322 0 0 1 22.0932,22.09322 z"
           id="circle2789" />
        <path
           style="opacity:1;fill:#000000;fill-opacity:1;fill-rule:evenodd;stroke:none;stroke-width:3;stroke-linecap:round;stroke-linejoin:round;stroke-miterlimit:4;stroke-dasharray:none;stroke-dashoffset:0;stroke-opacity:1"
           d="m -1191.163,334.33255 a 22.09322,22.09322 0 0 1 -22.0932,22.09322 22.09322,22.09322 0 0 1 -22.0932,-22.09322 22.09322,22.09322 0 0 1 22.0932,-22.09322 22.09322,22.09322 0 0 1 22.0932,22.09322 z"
           id="circle2791" />
      </g>
      <path
         id="path2795"
         d="m -131.2233,1209.0899 a 16.644379,24.854146 0 0 0 12.8228,9.0388 16.644379,24.854146 0 0 0 12.8298,-9.0388 z"
         style="opacity:1;fill:#000000;fill-opacity:1;fill-rule:evenodd;stroke:none;stroke-width:3;stroke-linecap:round;stroke-linejoin:round;stroke-miterlimit:4;stroke-dasharray:none;stroke-dashoffset:0;stroke-opacity:1"
         inkscape:connector-curvature="0" />
      <path
         id="path2797"
         d="m -10.815699,1225.3585 c -29.0405,0 -52.4188,23.3782 -52.4188,52.4187 v 51.2984 h 104.8375 v -51.2984 c 0,-29.0405 -23.3782,-52.4187 -52.4187,-52.4187 z"
         style="opacity:1;fill:#00ccff;fill-opacity:1;fill-rule:evenodd;stroke:none;stroke-width:3;stroke-linecap:round;stroke-linejoin:round;stroke-miterlimit:4;stroke-dasharray:none;stroke-dashoffset:0;stroke-opacity:1"
         inkscape:connector-curvature="0" />
      <path
         style="opacity:1;fill:#ffcc00;fill-opacity:1;fill-rule:evenodd;stroke:none;stroke-width:3;stroke-linecap:round;stroke-linejoin:round;stroke-miterlimit:4;stroke-dasharray:none;stroke-dashoffset:0;stroke-opacity:1"
         d="m 28.950871,1188.3032 a 39.766636,39.766636 0 0 1 -39.766635,39.7667 39.766636,39.766636 0 0 1 -39.766636,-39.7667 39.766636,39.766636 0 0 1 39.766636,-39.7666 39.766636,39.766636 0 0 1 39.766635,39.7666 z"
         id="circle2799" />
      <g
         transform="matrix(0.24544739,0,0,0.24544739,300.9836,1106.2421)"
         id="g2805">
        <path
           style="opacity:1;fill:#000000;fill-opacity:1;fill-rule:evenodd;stroke:none;stroke-width:3;stroke-linecap:round;stroke-linejoin:round;stroke-miterlimit:4;stroke-dasharray:none;stroke-dashoffset:0;stroke-opacity:1"
           d="m -1305.3113,334.33255 a 22.09322,22.09322 0 0 1 -22.0932,22.09322 22.09322,22.09322 0 0 1 -22.0933,-22.09322 22.09322,22.09322 0 0 1 22.0933,-22.09322 22.09322,22.09322 0 0 1 22.0932,22.09322 z"
           id="circle2801" />
        <path
           style="opacity:1;fill:#000000;fill-opacity:1;fill-rule:evenodd;stroke:none;stroke-width:3;stroke-linecap:round;stroke-linejoin:round;stroke-miterlimit:4;stroke-dasharray:none;stroke-dashoffset:0;stroke-opacity:1"
           d="m -1191.163,334.33255 a 22.09322,22.09322 0 0 1 -22.0932,22.09322 22.09322,22.09322 0 0 1 -22.0932,-22.09322 22.09322,22.09322 0 0 1 22.0932,-22.09322 22.09322,22.09322 0 0 1 22.0932,22.09322 z"
           id="circle2803" />
      </g>
      <path
         inkscape:connector-curvature="0"
         style="opacity:1;fill:#000000;fill-opacity:1;fill-rule:evenodd;stroke:none;stroke-width:3;stroke-linecap:round;stroke-linejoin:round;stroke-miterlimit:4;stroke-dasharray:none;stroke-dashoffset:0;stroke-opacity:1"
         d="m -23.641999,1209.0899 a 16.644379,24.854146 0 0 0 12.8228,9.0388 16.644379,24.854146 0 0 0 12.8297998,-9.0388 z"
         id="path2807" />
      <g
         aria-label="I      
Open
Data"
         style="font-style:normal;font-variant:normal;font-weight:normal;font-stretch:normal;line-height:0%;font-family:Papyrus;-inkscape-font-specification:Papyrus;letter-spacing:0px;word-spacing:0px;fill:#ffffff;fill-opacity:1;stroke:none;stroke-width:1px;stroke-linecap:butt;stroke-linejoin:miter;stroke-opacity:1"
         id="text2815">
        <path
           d="m -18.596404,1265.3331 v -8.5664 h 0.597656 v 8.5664 z"
           style="font-style:normal;font-variant:normal;font-weight:normal;font-stretch:normal;font-family:'Open Sans';-inkscape-font-specification:'Open Sans';text-align:center;text-anchor:middle;fill:#ffffff"
           id="path5807" />
        <path
           d="m -17.078826,1261.3536 q 0,2.039 -1.019531,3.2285 -1.019531,1.1836 -2.8125,1.1836 -1.78711,0 -2.806641,-1.1836 -1.019531,-1.1895 -1.019531,-3.2402 0,-2.045 1.025391,-3.2168 1.03125,-1.1778 2.8125,-1.1778 1.792968,0 2.80664,1.1836 1.013672,1.1778 1.013672,3.2227 z m -7.007812,0 q 0,1.8398 0.820312,2.8476 0.820313,1.002 2.355469,1.002 1.546875,0 2.361328,-0.9961 0.820312,-0.9961 0.820312,-2.8535 0,-1.8516 -0.820312,-2.836 -0.814453,-0.9902 -2.349609,-0.9902 -1.529297,0 -2.361329,0.9961 -0.826171,0.9961 -0.826171,2.8301 z"
           style="font-style:normal;font-variant:normal;font-weight:normal;font-stretch:normal;font-family:'Open Sans';-inkscape-font-specification:'Open Sans';text-align:center;text-anchor:middle;fill:#ffffff"
           id="path5809" />
        <path
           d="m -12.53781,1265.7657 q -1.470703,0 -2.144532,-1.1016 h -0.04101 l 0.01758,0.4922 q 0.02344,0.4336 0.02344,0.9492 v 2.4258 h -0.580078 v -9.2519 h 0.492188 l 0.111328,0.9082 h 0.03516 q 0.65625,-1.0313 2.097656,-1.0313 1.289063,0 1.962891,0.8496 0.6796875,0.8438 0.6796875,2.461 0,1.5703 -0.7148435,2.4375 -0.708985,0.8613 -1.939453,0.8613 z m -0.01172,-0.5156 q 0.978516,0 1.511719,-0.7266 0.539062,-0.7266 0.539062,-2.0332 0,-2.8066 -2.027344,-2.8066 -1.113281,0 -1.634765,0.6152 -0.521485,0.6094 -0.521485,1.9922 v 0.1875 q 0,1.4941 0.498047,2.1328 0.503907,0.6387 1.634766,0.6387 z"
           style="font-style:normal;font-variant:normal;font-weight:normal;font-stretch:normal;font-family:'Open Sans';-inkscape-font-specification:'Open Sans';text-align:center;text-anchor:middle;fill:#ffffff"
           id="path5811" />
        <path
           d="m -5.5417166,1265.7657 q -1.3886719,0 -2.1679687,-0.8555 -0.7734375,-0.8554 -0.7734375,-2.3965 0,-1.5234 0.75,-2.4375 0.75,-0.9199 2.0214843,-0.9199 1.125,0 1.7753907,0.7852 0.6503906,0.7851 0.6503906,2.1328 v 0.4687 h -4.5878906 q 0.011719,1.3125 0.609375,2.0039 0.6035156,0.6914 1.7226562,0.6914 0.5449219,0 0.9550781,-0.076 0.4160157,-0.076 1.0488282,-0.3281 v 0.5273 q -0.5390625,0.2344 -0.9960938,0.3164 -0.4570312,0.088 -1.0078125,0.088 z m -0.1699219,-6.0938 q -0.9199218,0 -1.4765625,0.6094 -0.5566406,0.6035 -0.6503906,1.7461 h 3.9375 q 0,-1.1074 -0.4804687,-1.7285 -0.4804688,-0.627 -1.3300782,-0.627 z"
           style="font-style:normal;font-variant:normal;font-weight:normal;font-stretch:normal;font-family:'Open Sans';-inkscape-font-specification:'Open Sans';text-align:center;text-anchor:middle;fill:#ffffff"
           id="path5813" />
        <path
           d="m 2.9133615,1265.6485 v -4.1309 q 0,-0.9609 -0.4042968,-1.3945 -0.4042969,-0.4394 -1.2539063,-0.4394 -1.1425781,0 -1.67578123,0.58 -0.52734375,0.5743 -0.52734375,1.8692 v 3.5156 H -1.5280447 v -6.3691 h 0.4921875 l 0.11132812,0.873 h 0.0351563 q 0.62109375,-0.9961 2.20898433,-0.9961 2.1679688,0 2.1679688,2.3262 v 4.166 z"
           style="font-style:normal;font-variant:normal;font-weight:normal;font-stretch:normal;font-family:'Open Sans';-inkscape-font-specification:'Open Sans';text-align:center;text-anchor:middle;fill:#ffffff"
           id="path5815" />
        <path
           d="m -15.397185,1261.5986 q 0,2.1563 -1.13086,3.2637 -1.130859,1.1016 -3.322265,1.1016 h -2.050782 v -8.5664 h 2.314454 q 2.050781,0 3.117187,1.0722 1.072266,1.0723 1.072266,3.1289 z m -0.650391,0.024 q 0,-1.8399 -0.9375,-2.7656 -0.931641,-0.9317 -2.742187,-0.9317 h -1.576172 v 7.5117 h 1.417968 q 3.837891,0 3.837891,-3.8144 z"
           style="font-style:normal;font-variant:normal;font-weight:normal;font-stretch:normal;font-family:'Open Sans';-inkscape-font-specification:'Open Sans';text-align:center;text-anchor:middle;fill:#ffffff"
           id="path5817" />
        <path
           d="m -9.6960135,1265.9639 -0.1464843,-1.0078 h -0.046875 q -0.4804692,0.6152 -0.9902342,0.873 -0.503906,0.252 -1.195313,0.252 -0.9375,0 -1.458984,-0.4805 -0.521484,-0.4805 -0.521484,-1.3301 0,-0.9316 0.773437,-1.4472 0.779297,-0.5157 2.25,-0.545 l 1.2128907,-0.035 v -0.4219 q 0,-0.9082 -0.3691407,-1.3711 -0.369141,-0.4629 -1.189453,-0.4629 -0.884766,0 -1.833984,0.4922 l -0.216797,-0.5039 q 1.048828,-0.4922 2.074218,-0.4922 1.048829,0 1.5644535,0.5449 0.5214844,0.545 0.5214844,1.6993 v 4.2363 z m -2.3437495,-0.4102 q 1.019531,0 1.605468,-0.5801 0.5917972,-0.5859 0.5917972,-1.623 v -0.627 l -1.1132812,0.047 q -1.341797,0.064 -1.916016,0.4219 -0.568359,0.3516 -0.568359,1.1016 0,0.5976 0.363281,0.9316 0.369141,0.3281 1.03711,0.3281 z"
           style="font-style:normal;font-variant:normal;font-weight:normal;font-stretch:normal;font-family:'Open Sans';-inkscape-font-specification:'Open Sans';text-align:center;text-anchor:middle;fill:#ffffff"
           id="path5819" />
        <path
           d="m -5.5299978,1265.5654 q 0.5507812,0 0.9609375,-0.094 v 0.4687 q -0.421875,0.1407 -0.9726563,0.1407 -0.84375,0 -1.2480469,-0.4512 -0.3984375,-0.4512 -0.3984375,-1.418 v -4.1133 h -0.9433593 v -0.3398 l 0.9433593,-0.2637 0.2929688,-1.4414 h 0.2988281 v 1.541 h 1.8691406 v 0.5039 h -1.8691406 v 4.0313 q 0,0.7324 0.2578125,1.084 0.2578125,0.3515 0.8085938,0.3515 z"
           style="font-style:normal;font-variant:normal;font-weight:normal;font-stretch:normal;font-family:'Open Sans';-inkscape-font-specification:'Open Sans';text-align:center;text-anchor:middle;fill:#ffffff"
           id="path5821" />
        <path
           d="m 0.68679905,1265.9639 -0.14648438,-1.0078 h -0.046875 q -0.48046875,0.6152 -0.99023437,0.873 -0.5039063,0.252 -1.1953125,0.252 -0.9375,0 -1.4589844,-0.4805 -0.5214844,-0.4805 -0.5214844,-1.3301 0,-0.9316 0.7734375,-1.4472 0.7792969,-0.5157 2.25000005,-0.545 l 1.21289062,-0.035 v -0.4219 q 0,-0.9082 -0.36914062,-1.3711 -0.36914063,-0.4629 -1.18945313,-0.4629 -0.88476562,0 -1.83398442,0.4922 l -0.2167968,-0.5039 q 1.0488281,-0.4922 2.07421872,-0.4922 1.04882813,0 1.56445313,0.5449 0.52148435,0.545 0.52148435,1.6993 v 4.2363 z m -2.34375005,-0.4102 q 1.0195313,0 1.6054688,-0.5801 0.59179687,-0.5859 0.59179687,-1.623 v -0.627 l -1.11328125,0.047 q -1.34179692,0.064 -1.91601562,0.4219 -0.5683594,0.3516 -0.5683594,1.1016 0,0.5976 0.3632813,0.9316 0.3691406,0.3281 1.0371093,0.3281 z"
           style="font-style:normal;font-variant:normal;font-weight:normal;font-stretch:normal;font-family:'Open Sans';-inkscape-font-specification:'Open Sans';text-align:center;text-anchor:middle;fill:#ffffff"
           id="path5823" />
      </g>
      <g
         style="fill:#ff0000"
         id="g2821"
         transform="matrix(0.05601964,0,0,0.05601964,-22.246099,1240.103)">
        <path
           style="fill:#ff0000"
           id="path2817"
           d="M 297.29747,550.86823 C 283.52243,535.43191 249.1268,505.33855 220.86277,483.99412 137.11867,420.75228 125.72108,411.5999 91.719238,380.29088 29.03471,322.57071 2.413622,264.58086 2.5048478,185.95124 2.5493594,147.56739 5.1656152,132.77929 15.914734,110.15398 34.151433,71.768267 61.014996,43.244667 95.360052,25.799457 119.68545,13.443675 131.6827,7.9542046 172.30448,7.7296236 c 42.49329,-0.234834 51.43863,4.7197234 76.43471,18.4518354 30.42451,16.714318 61.7399,52.435708 68.21323,77.810591 l 3.9981,15.6724 9.85963,-21.584508 c 55.71617,-121.972928 233.59836,-120.148052 295.50229,3.031588 19.63767,39.07605 21.79364,122.51317 4.38012,169.51287 -22.71527,61.30937 -65.38001,108.05053 -164.00634,179.67658 -64.68082,46.97364 -137.88474,118.04586 -142.98067,128.02803 -5.91548,11.58753 -0.28216,1.8159 -26.40808,-27.46078 z"
           inkscape:connector-curvature="0" />
        <g
           style="fill:#ff0000"
           id="g2819"
           transform="translate(129.28571,-64.285714)" />
      </g>
      <g
         transform="matrix(0.24544739,0,0,0.24544739,-102.1337,1070.776)"
         id="g2841"
         style="font-style:normal;font-variant:normal;font-weight:normal;font-stretch:normal;font-size:133.09477234px;line-height:89.99999762%;font-family:Papyrus;-inkscape-font-specification:Papyrus;letter-spacing:0px;word-spacing:0px;fill:#ffffff;fill-opacity:1;stroke:none;stroke-width:1px;stroke-linecap:butt;stroke-linejoin:miter;stroke-opacity:1">
        <path
           id="path2823"
           style="font-style:normal;font-variant:normal;font-weight:normal;font-stretch:normal;font-family:'Open Sans';-inkscape-font-specification:'Open Sans';text-align:center;text-anchor:middle;fill:#ffffff"
           d="m 281.35694,792.66327 v -95.01199 h 11.04791 v 95.01199 z"
           inkscape:connector-curvature="0" />
        <path
           id="path2825"
           style="font-style:normal;font-variant:normal;font-weight:normal;font-stretch:normal;font-family:'Open Sans';-inkscape-font-specification:'Open Sans';text-align:center;text-anchor:middle;fill:#ffffff"
           d="m 298.05878,864.81259 q 0,22.81068 -11.56781,35.8732 -11.50282,13.06252 -32.03893,13.06252 -20.99102,0 -32.42885,-12.80257 -11.37284,-12.86756 -11.37284,-36.26313 0,-23.2006 11.43783,-35.93818 11.43783,-12.80258 32.49384,-12.80258 20.47112,0 31.97394,12.99754 11.50282,12.99754 11.50282,35.8732 z m -75.71065,0 q 0,19.30134 8.18845,29.30944 8.25343,9.94312 23.91546,9.94312 15.79201,0 23.85048,-9.94312 8.05848,-9.94311 8.05848,-29.30944 0,-19.17137 -8.05848,-29.04949 -7.99348,-9.94312 -23.7205,-9.94312 -15.79201,0 -24.04544,10.0081 -8.18845,9.94312 -8.18845,28.98451 z"
           inkscape:connector-curvature="0" />
        <path
           id="path2827"
           style="font-style:normal;font-variant:normal;font-weight:normal;font-stretch:normal;font-family:'Open Sans';-inkscape-font-specification:'Open Sans';text-align:center;text-anchor:middle;fill:#ffffff"
           d="m 350.82877,913.74831 q -6.95368,0 -12.73758,-2.53451 -5.71892,-2.59951 -9.61818,-7.9285 h -0.77985 q 0.77985,6.23882 0.77985,11.82776 V 944.4225 H 317.68506 V 841.22206 h 8.77333 l 1.49472,9.74815 h 0.5199 q 4.15921,-5.84889 9.68317,-8.44839 5.52395,-2.59951 12.67259,-2.59951 14.16732,0 21.83586,9.68316 7.73354,9.68317 7.73354,27.16485 0,17.54668 -7.86351,27.29483 -7.79852,9.68316 -21.70589,9.68316 z m -1.5597,-64.66274 q -10.91793,0 -15.79201,6.04386 -4.87407,6.04385 -5.00405,19.23635 v 2.40454 q 0,15.01216 5.00405,21.51093 5.00405,6.43378 16.05196,6.43378 9.22825,0 14.42726,-7.47359 5.26401,-7.47358 5.26401,-20.60109 0,-13.32248 -5.26401,-20.40613 -5.19901,-7.14865 -14.68721,-7.14865 z"
           inkscape:connector-curvature="0" />
        <path
           id="path2829"
           style="font-style:normal;font-variant:normal;font-weight:normal;font-stretch:normal;font-family:'Open Sans';-inkscape-font-specification:'Open Sans';text-align:center;text-anchor:middle;fill:#ffffff"
           d="m 429.39888,913.74831 q -15.79201,0 -24.95527,-9.61817 -9.09828,-9.61818 -9.09828,-26.70994 0,-17.22174 8.4484,-27.35981 8.51339,-10.13808 22.81068,-10.13808 13.38746,0 21.18598,8.83832 7.79852,8.77334 7.79852,23.20061 v 6.8237 h -49.0657 q 0.32494,12.54262 6.30381,19.04139 6.04385,6.49877 16.96179,6.49877 11.50281,0 22.74568,-4.80909 v 9.61818 q -5.71891,2.46953 -10.85294,3.50933 -5.06904,1.10479 -12.28267,1.10479 z m -2.92445,-64.79271 q -8.57837,0 -13.7124,5.58894 -5.06904,5.58894 -5.97886,15.46706 h 37.23794 q 0,-10.20306 -4.54914,-15.59704 -4.54914,-5.45896 -12.99754,-5.45896 z"
           inkscape:connector-curvature="0" />
        <path
           id="path2831"
           style="font-style:normal;font-variant:normal;font-weight:normal;font-stretch:normal;font-family:'Open Sans';-inkscape-font-specification:'Open Sans';text-align:center;text-anchor:middle;fill:#ffffff"
           d="m 522.65619,912.44856 v -46.07627 q 0,-8.70834 -3.96424,-12.99753 -3.96425,-4.28919 -12.41265,-4.28919 -11.17788,0 -16.3769,6.04386 -5.19901,6.04385 -5.19901,19.95121 v 37.36792 h -10.78796 v -71.2265 h 8.77334 l 1.75467,9.74815 h 0.5199 q 3.31437,-5.264 9.29324,-8.12346 5.97886,-2.92444 13.32247,-2.92444 12.86756,0 19.36633,6.23882 6.49877,6.17383 6.49877,19.82124 v 46.46619 z"
           inkscape:connector-curvature="0" />
        <path
           id="path2833"
           style="font-style:normal;font-variant:normal;font-weight:normal;font-stretch:normal;font-family:'Open Sans';-inkscape-font-specification:'Open Sans';text-align:center;text-anchor:middle;fill:#ffffff"
           d="m 316.12535,983.81803 q 0,23.52557 -12.80257,36.00317 -12.73758,12.4127 -36.71804,12.4127 h -26.32001 v -95.01204 h 29.11448 q 22.1608,0 34.44347,12.28267 12.28267,12.28268 12.28267,34.3135 z m -11.69778,0.38993 q 0,-18.58648 -9.35822,-28.00969 -9.29324,-9.42322 -27.68476,-9.42322 h -16.05195 v 75.90565 h 13.45245 q 19.75625,0 29.69937,-9.6832 9.94311,-9.7482 9.94311,-28.78954 z"
           inkscape:connector-curvature="0" />
        <path
           id="path2835"
           style="font-style:normal;font-variant:normal;font-weight:normal;font-stretch:normal;font-family:'Open Sans';-inkscape-font-specification:'Open Sans';text-align:center;text-anchor:middle;fill:#ffffff"
           d="m 379.42336,1032.2339 -2.14459,-10.1381 h -0.51991 q -5.32899,6.6937 -10.65798,9.0982 -5.264,2.3396 -13.1925,2.3396 -10.59299,0 -16.63684,-5.459 -5.97887,-5.4589 -5.97887,-15.532 0,-21.57593 34.50846,-22.61573 l 12.08771,-0.38992 v -4.41917 q 0,-8.38341 -3.63931,-12.34766 -3.57432,-4.02923 -11.50282,-4.02923 -8.90331,0 -20.14618,5.45896 l -3.31437,-8.25343 q 5.264,-2.85946 11.50282,-4.48415 6.3038,-1.62469 12.60761,-1.62469 12.73758,0 18.84642,5.65392 6.17383,5.65393 6.17383,18.13157 v 48.61083 z m -24.37038,-7.6036 q 10.07309,0 15.79201,-5.524 5.7839,-5.5239 5.7839,-15.467 v -6.43381 l -10.78796,0.45492 q -12.86756,0.45491 -18.58647,4.02919 -5.65393,3.5094 -5.65393,10.983 0,5.8489 3.50933,8.9033 3.57433,3.0544 9.94312,3.0544 z"
           inkscape:connector-curvature="0" />
        <path
           id="path2837"
           style="font-style:normal;font-variant:normal;font-weight:normal;font-stretch:normal;font-family:'Open Sans';-inkscape-font-specification:'Open Sans';text-align:center;text-anchor:middle;fill:#ffffff"
           d="m 432.71325,1024.6303 q 2.85946,0 5.52396,-0.3899 2.66449,-0.4549 4.2242,-0.9099 v 8.2535 q -1.75467,0.8448 -5.19902,1.3647 -3.37936,0.5849 -6.10884,0.5849 -20.66608,0 -20.66608,-21.7709 V 969.39076 H 400.2844 v -5.19901 l 10.20307,-4.48415 4.54913,-15.20712 h 6.23882 v 16.50687 h 20.66608 v 8.38341 h -20.66608 v 41.91704 q 0,6.4338 3.05442,9.8781 3.05442,3.4444 8.38341,3.4444 z"
           inkscape:connector-curvature="0" />
        <path
           id="path2839"
           style="font-style:normal;font-variant:normal;font-weight:normal;font-stretch:normal;font-family:'Open Sans';-inkscape-font-specification:'Open Sans';text-align:center;text-anchor:middle;fill:#ffffff"
           d="m 500.5604,1032.2339 -2.1446,-10.1381 h -0.5199 q -5.32899,6.6937 -10.65798,9.0982 -5.264,2.3396 -13.1925,2.3396 -10.59299,0 -16.63684,-5.459 -5.97887,-5.4589 -5.97887,-15.532 0,-21.57593 34.50846,-22.61573 l 12.08771,-0.38992 v -4.41917 q 0,-8.38341 -3.63931,-12.34766 -3.57432,-4.02923 -11.50282,-4.02923 -8.90331,0 -20.14618,5.45896 l -3.31437,-8.25343 q 5.264,-2.85946 11.50282,-4.48415 6.3038,-1.62469 12.60761,-1.62469 12.73758,0 18.84642,5.65392 6.17383,5.65393 6.17383,18.13157 v 48.61083 z m -24.37038,-7.6036 q 10.07309,0 15.792,-5.524 5.78391,-5.5239 5.78391,-15.467 v -6.43381 l -10.78796,0.45492 q -12.86756,0.45491 -18.58647,4.02919 -5.65393,3.5094 -5.65393,10.983 0,5.8489 3.50933,8.9033 3.57432,3.0544 9.94312,3.0544 z"
           inkscape:connector-curvature="0" />
      </g>
      <g
         transform="matrix(0.22805837,0,0,0.22805837,-100.709,1089.0756)"
         id="g2855">
        <path
           id="path2843"
           d="m 394.16787,597.57899 c -127.33797,0 -229.84796,102.50999 -229.84796,229.84795 V 1052.3621 H 624.01582 V 827.42694 c 0,-127.33796 -102.50999,-229.84795 -229.84795,-229.84795 z"
           style="opacity:1;fill:#00ccff;fill-opacity:1;fill-rule:evenodd;stroke:none;stroke-width:3;stroke-linecap:round;stroke-linejoin:round;stroke-miterlimit:4;stroke-dasharray:none;stroke-dashoffset:0;stroke-opacity:1"
           inkscape:connector-curvature="0" />
        <path
           style="opacity:1;fill:#ffcc00;fill-opacity:1;fill-rule:evenodd;stroke:none;stroke-width:3;stroke-linecap:round;stroke-linejoin:round;stroke-miterlimit:4;stroke-dasharray:none;stroke-dashoffset:0;stroke-opacity:1"
           d="M 568.5383,435.09732 A 174.37042,174.37042 0 0 1 394.16788,609.46774 174.37042,174.37042 0 0 1 219.79745,435.09732 174.37042,174.37042 0 0 1 394.16788,260.7269 174.37042,174.37042 0 0 1 568.5383,435.09732 Z"
           id="circle2845" />
        <g
           transform="matrix(1.0762481,0,0,1.0762481,1761.3585,75.27254)"
           id="g2851">
          <path
             style="opacity:1;fill:#000000;fill-opacity:1;fill-rule:evenodd;stroke:none;stroke-width:3;stroke-linecap:round;stroke-linejoin:round;stroke-miterlimit:4;stroke-dasharray:none;stroke-dashoffset:0;stroke-opacity:1"
             d="m -1305.3113,334.33255 a 22.09322,22.09322 0 0 1 -22.0932,22.09322 22.09322,22.09322 0 0 1 -22.0933,-22.09322 22.09322,22.09322 0 0 1 22.0933,-22.09322 22.09322,22.09322 0 0 1 22.0932,22.09322 z"
             id="circle2847" />
          <path
             style="opacity:1;fill:#000000;fill-opacity:1;fill-rule:evenodd;stroke:none;stroke-width:3;stroke-linecap:round;stroke-linejoin:round;stroke-miterlimit:4;stroke-dasharray:none;stroke-dashoffset:0;stroke-opacity:1"
             d="m -1191.163,334.33255 a 22.09322,22.09322 0 0 1 -22.0932,22.09322 22.09322,22.09322 0 0 1 -22.0932,-22.09322 22.09322,22.09322 0 0 1 22.0932,-22.09322 22.09322,22.09322 0 0 1 22.0932,22.09322 z"
             id="circle2849" />
        </g>
        <path
           inkscape:connector-curvature="0"
           style="opacity:1;fill:#000000;fill-opacity:1;fill-rule:evenodd;stroke:none;stroke-width:3;stroke-linecap:round;stroke-linejoin:round;stroke-miterlimit:4;stroke-dasharray:none;stroke-dashoffset:0;stroke-opacity:1"
           d="m 337.92657,526.24392 a 72.98298,108.98151 0 0 0 56.22581,39.63374 72.98298,108.98151 0 0 0 56.2568,-39.63374 z"
           id="path2853" />
      </g>
      <g
         transform="matrix(0.22805837,0,0,0.22805837,11.917801,1089.0756)"
         id="g2887">
        <path
           style="opacity:1;fill:#ff6600;fill-opacity:1;fill-rule:evenodd;stroke:none;stroke-width:3;stroke-linecap:round;stroke-linejoin:round;stroke-miterlimit:4;stroke-dasharray:none;stroke-dashoffset:0;stroke-opacity:1"
           d="m -233.21696,249.88785 a 174.37042,174.37042 0 0 0 -69.36556,140.89382 174.37042,174.37042 0 0 0 154.60658,-27.53621 174.37042,174.37042 0 0 0 69.365565,-140.89382 174.37042,174.37042 0 0 0 -154.606585,27.53621 z"
           id="path2883"
           inkscape:connector-curvature="0" />
        <path
           inkscape:connector-curvature="0"
           id="path2885"
           d="M 33.850945,249.88785 A 174.37042,174.37042 0 0 1 103.21651,390.78167 174.37042,174.37042 0 0 1 -51.390075,363.24546 174.37042,174.37042 0 0 1 -120.75564,222.35164 174.37042,174.37042 0 0 1 33.850945,249.88785 Z"
           style="opacity:1;fill:#ff6600;fill-opacity:1;fill-rule:evenodd;stroke:none;stroke-width:3;stroke-linecap:round;stroke-linejoin:round;stroke-miterlimit:4;stroke-dasharray:none;stroke-dashoffset:0;stroke-opacity:1" />
      </g>
      <path
         inkscape:connector-curvature="0"
         id="path2889"
         d="m -130.9095,1130.3192 -10.0097,19.0414 -12.8692,-5.331 -2.8593,22.0897 -14.2989,4.5695 12.9864,17.8699 a 43.341387,46.174581 0 0 1 39.5625,-27.4062 43.341387,46.174581 0 0 1 39.548801,27.427 l 13,-17.8907 -14.2988,-4.5695 -2.8594,-22.0897 -12.8692,5.331 -10.009701,-19.0414 -12.5117,11.8481 z"
         style="fill:#802a00;fill-opacity:1;fill-rule:evenodd;stroke:none;stroke-width:4.3848424px;stroke-linecap:butt;stroke-linejoin:miter;stroke-opacity:1" />
      <g
         id="g2895"
         transform="matrix(0.17896562,-0.14135745,-0.14135745,-0.17896562,-158.079,1630.0513)">
        <path
           sodipodi:nodetypes="cc"
           inkscape:connector-curvature="0"
           id="path2891"
           d="M 1822.6768,739.53707 C 1666.7477,763.27784 1651.0262,614.45549 1628.4916,474.01846"
           style="fill:none;fill-rule:evenodd;stroke:#000000;stroke-width:18.8767128;stroke-linecap:butt;stroke-linejoin:miter;stroke-miterlimit:4;stroke-dasharray:none;stroke-opacity:1" />
        <path
           style="opacity:1;fill:#ffcc00;fill-opacity:1;fill-rule:evenodd;stroke:none;stroke-width:3;stroke-linecap:round;stroke-linejoin:round;stroke-miterlimit:4;stroke-dasharray:none;stroke-dashoffset:0;stroke-opacity:1"
           d="m 1660.1952,477.98141 a 35.666672,35.666672 0 0 1 -35.6666,35.66668 35.666672,35.666672 0 0 1 -35.6667,-35.66668 35.666672,35.666672 0 0 1 35.6667,-35.66667 35.666672,35.666672 0 0 1 35.6666,35.66667 z"
           id="circle2893" />
      </g>
      <g
         transform="matrix(-0.17896562,-0.14135745,0.14135745,-0.17896562,351.6101,1630.0513)"
         id="g2901">
        <path
           style="fill:none;fill-rule:evenodd;stroke:#000000;stroke-width:18.8767128;stroke-linecap:butt;stroke-linejoin:miter;stroke-miterlimit:4;stroke-dasharray:none;stroke-opacity:1"
           d="M 1822.6768,739.53707 C 1666.7477,763.27784 1651.0262,614.45549 1628.4916,474.01846"
           id="path2897"
           inkscape:connector-curvature="0"
           sodipodi:nodetypes="cc" />
        <path
           style="opacity:1;fill:#ffcc00;fill-opacity:1;fill-rule:evenodd;stroke:none;stroke-width:3;stroke-linecap:round;stroke-linejoin:round;stroke-miterlimit:4;stroke-dasharray:none;stroke-dashoffset:0;stroke-opacity:1"
           d="m 1660.1952,477.98141 a 35.666672,35.666672 0 0 1 -35.6666,35.66668 35.666672,35.666672 0 0 1 -35.6667,-35.66668 35.666672,35.666672 0 0 1 35.6667,-35.66667 35.666672,35.666672 0 0 1 35.6666,35.66667 z"
           id="circle2899" />
      </g>
      <path
         sodipodi:nodetypes="sccs"
         inkscape:connector-curvature="0"
         id="path2903"
         d="m 96.766501,1225.5936 c -21.0376,0 -38.3806,12.9889 -46.7401,30.7911 l 92.405899,-0.7149 c -8.3596,-17.8023 -24.6282,-30.0762 -45.665799,-30.0762 z"
         style="opacity:1;fill:#00d400;fill-opacity:1;fill-rule:evenodd;stroke:none;stroke-width:3;stroke-linecap:round;stroke-linejoin:round;stroke-miterlimit:4;stroke-dasharray:none;stroke-dashoffset:0;stroke-opacity:1" />
      <path
         style="opacity:1;fill:#ffcc00;fill-opacity:1;fill-rule:evenodd;stroke:none;stroke-width:3;stroke-linecap:round;stroke-linejoin:round;stroke-miterlimit:4;stroke-dasharray:none;stroke-dashoffset:0;stroke-opacity:1"
         d="m 136.53217,1188.3032 a 39.766636,39.766636 0 0 1 -39.766637,39.7667 39.766636,39.766636 0 0 1 -39.766635,-39.7667 39.766636,39.766636 0 0 1 39.766635,-39.7666 39.766636,39.766636 0 0 1 39.766637,39.7666 z"
         id="circle2905" />
      <path
         inkscape:connector-curvature="0"
         style="opacity:1;fill:#000000;fill-opacity:1;fill-rule:evenodd;stroke:none;stroke-width:3;stroke-linecap:round;stroke-linejoin:round;stroke-miterlimit:4;stroke-dasharray:none;stroke-dashoffset:0;stroke-opacity:1"
         d="m 83.939201,1209.0899 a 16.644379,24.854146 0 0 0 12.8228,9.0388 16.644379,24.854146 0 0 0 12.829799,-9.0388 z"
         id="path2907" />
      <path
         inkscape:connector-curvature="0"
         id="path2909"
         d="m 96.229901,1141.265 a 43.401996,43.401996 0 0 1 42.945299,37.4864 48.24521,48.24521 0 0 1 -25.5449,-15.1641 48.24521,48.24521 0 0 1 -36.169999,16.4102 48.24521,48.24521 0 0 1 -23.2636,-5.9883 43.401996,43.401996 0 0 1 42.0332,-32.7442 z"
         style="opacity:1;fill:#2b1100;fill-opacity:1;fill-rule:evenodd;stroke:none;stroke-width:3;stroke-linecap:round;stroke-linejoin:round;stroke-miterlimit:4;stroke-dasharray:none;stroke-dashoffset:0;stroke-opacity:1" />
      <g
         transform="matrix(0.24544739,0,0,0.24544739,408.5648,1106.2421)"
         id="g2915">
        <path
           style="opacity:1;fill:#000000;fill-opacity:1;fill-rule:evenodd;stroke:none;stroke-width:3;stroke-linecap:round;stroke-linejoin:round;stroke-miterlimit:4;stroke-dasharray:none;stroke-dashoffset:0;stroke-opacity:1"
           d="m -1305.3113,334.33255 a 22.09322,22.09322 0 0 1 -22.0932,22.09322 22.09322,22.09322 0 0 1 -22.0933,-22.09322 22.09322,22.09322 0 0 1 22.0933,-22.09322 22.09322,22.09322 0 0 1 22.0932,22.09322 z"
           id="circle2911" />
        <path
           style="opacity:1;fill:#000000;fill-opacity:1;fill-rule:evenodd;stroke:none;stroke-width:3;stroke-linecap:round;stroke-linejoin:round;stroke-miterlimit:4;stroke-dasharray:none;stroke-dashoffset:0;stroke-opacity:1"
           d="m -1191.163,334.33255 a 22.09322,22.09322 0 0 1 -22.0932,22.09322 22.09322,22.09322 0 0 1 -22.0932,-22.09322 22.09322,22.09322 0 0 1 22.0932,-22.09322 22.09322,22.09322 0 0 1 22.0932,22.09322 z"
           id="circle2913" />
      </g>
      <g
         transform="matrix(0.22805837,0,0,0.22805837,-101.45131,1085.1498)"
         id="g4244"
         style="font-style:normal;font-variant:normal;font-weight:normal;font-stretch:normal;font-size:143.24299622px;line-height:89.99999762%;font-family:Papyrus;-inkscape-font-specification:Papyrus;letter-spacing:0px;word-spacing:0px;fill:#ffffff;fill-opacity:1;stroke:none;stroke-width:1px;stroke-linecap:butt;stroke-linejoin:miter;stroke-opacity:1">
        <path
           d="M 302.26731,778.61858 V 664.6111 h 15.08694 v 114.00748 z"
           style="font-style:normal;font-variant:normal;font-weight:normal;font-stretch:normal;font-size:medium;line-height:1.25;font-family:Arial;-inkscape-font-specification:Arial;letter-spacing:0px;word-spacing:0px;fill:#ffffff;fill-opacity:1;stroke:none;stroke-width:3.98170733px"
           id="path4260"
           inkscape:connector-curvature="0" />
        <g
           transform="translate(-45.677772,-66.440395)"
           id="g4301">
          <path
             inkscape:connector-curvature="0"
             id="path4262"
             style="font-style:normal;font-variant:normal;font-weight:normal;font-stretch:normal;font-size:medium;line-height:1.25;font-family:Arial;-inkscape-font-specification:Arial;letter-spacing:0px;word-spacing:0px;fill:#ffffff;fill-opacity:1;stroke:none;stroke-width:3.98170733px"
             d="m 351.97835,935.4225 15.08693,3.81062 q -4.74383,18.58648 -17.10889,28.38521 -12.2873,9.72097 -30.09611,9.72097 -18.43095,0 -30.01834,-7.4657 -11.50963,-7.54347 -17.57551,-21.77496 -5.98811,-14.2315 -5.98811,-30.56272 0,-17.80881 6.76579,-31.02932 6.84356,-13.29828 19.36416,-20.14184 12.59837,-6.92133 27.68531,-6.92133 17.1089,0 28.77406,8.70999 11.66516,8.70998 16.25345,24.49683 l -14.85363,3.49955 q -3.96616,-12.44284 -11.50963,-18.11988 -7.54347,-5.67705 -18.97532,-5.67705 -13.14275,0 -22.00827,6.29919 -8.78775,6.29919 -12.36506,16.95336 -3.57732,10.57641 -3.57732,21.85273 0,14.54257 4.19946,25.43005 4.27722,10.80971 13.22051,16.17568 8.94329,5.36598 19.36416,5.36598 12.67614,0 21.46389,-7.31017 8.78776,-7.31016 11.89847,-21.69719 z" />
          <path
             inkscape:connector-curvature="0"
             id="path4264"
             style="font-style:normal;font-variant:normal;font-weight:normal;font-stretch:normal;font-size:medium;line-height:1.25;font-family:Arial;-inkscape-font-specification:Arial;letter-spacing:0px;word-spacing:0px;fill:#ffffff;fill-opacity:1;stroke:none;stroke-width:3.98170733px"
             d="m 378.73044,934.10045 q 0,-22.94148 12.75391,-33.9845 10.65418,-9.17659 25.97442,-9.17659 17.03113,0 27.84084,11.19855 10.80972,11.12079 10.80972,30.79602 0,15.94238 -4.8216,25.11897 -4.74383,9.09883 -13.92042,14.15373 -9.09883,5.0549 -19.90854,5.0549 -17.3422,0 -28.07415,-11.12078 -10.65418,-11.12079 -10.65418,-32.0403 z m 14.38703,0 q 0,15.86461 6.92133,23.79692 6.92133,7.85454 17.41997,7.85454 10.42087,0 17.3422,-7.93231 6.92133,-7.93231 6.92133,-24.18576 0,-15.32024 -6.9991,-23.17478 -6.92132,-7.93231 -17.26443,-7.93231 -10.49864,0 -17.41997,7.85454 -6.92133,7.85454 -6.92133,23.71916 z" />
          <path
             inkscape:connector-curvature="0"
             id="path4266"
             style="font-style:normal;font-variant:normal;font-weight:normal;font-stretch:normal;font-size:medium;line-height:1.25;font-family:Arial;-inkscape-font-specification:Arial;letter-spacing:0px;word-spacing:0px;fill:#ffffff;fill-opacity:1;stroke:none;stroke-width:3.98170733px"
             d="m 526.17805,975.39511 v -10.42088 q -7.85454,12.2873 -23.09702,12.2873 -9.8765,0 -18.19764,-5.44374 -8.24338,-5.44374 -12.83168,-15.1647 -4.51053,-9.79874 -4.51053,-22.47488 0,-12.36506 4.12169,-22.3971 4.12169,-10.1098 12.36507,-15.47578 8.24338,-5.36597 18.43095,-5.36597 7.4657,0 13.29828,3.18848 5.83258,3.11071 9.48766,8.16561 v -40.90582 h 13.92043 v 114.00748 z m -44.24984,-41.2169 q 0,15.86462 6.68803,23.71916 6.68802,7.85454 15.78684,7.85454 9.17659,0 15.55355,-7.4657 6.45472,-7.54347 6.45472,-22.94148 0,-16.95336 -6.53249,-24.88567 -6.53249,-7.93231 -16.09792,-7.93231 -9.33212,0 -15.63131,7.62124 -6.22142,7.62123 -6.22142,24.03022 z" />
          <path
             inkscape:connector-curvature="0"
             id="path4268"
             style="font-style:normal;font-variant:normal;font-weight:normal;font-stretch:normal;font-size:medium;line-height:1.25;font-family:Arial;-inkscape-font-specification:Arial;letter-spacing:0px;word-spacing:0px;fill:#ffffff;fill-opacity:1;stroke:none;stroke-width:3.98170733px"
             d="m 617.78843,948.79855 14.4648,1.78865 q -3.42178,12.67614 -12.67614,19.67524 -9.25436,6.99909 -23.64139,6.99909 -18.11988,0 -28.77406,-11.12078 -10.57641,-11.19855 -10.57641,-31.34039 0,-20.84175 10.73195,-32.35138 10.73195,-11.50962 27.84084,-11.50962 16.56453,0 27.06317,11.27632 10.49864,11.27632 10.49864,31.72923 0,1.24428 -0.0778,3.73285 h -61.59204 q 0.77768,13.60935 7.69901,20.84175 6.92132,7.2324 17.26443,7.2324 7.699,0 13.14274,-4.04392 5.44375,-4.04392 8.63222,-12.90944 z m -45.96072,-22.63041 h 46.11626 q -0.93322,-10.42088 -5.28821,-15.63131 -6.68802,-8.08785 -17.3422,-8.08785 -9.6432,0 -16.25345,6.45472 -6.53249,6.45472 -7.2324,17.26444 z" />
        </g>
        <path
           d="m 231.88416,995.3019 q -5.42021,6.0292 -11.81484,9.0743 -6.39463,2.9842 -13.82458,2.9842 -13.70279,0 -21.74175,-9.257 -6.51643,-7.5517 -6.51643,-16.86964 0,-8.28257 5.29841,-14.92079 5.35931,-6.69918 15.95612,-11.75397 -6.02922,-6.94272 -8.03896,-11.26671 -2.00974,-4.32398 -2.00974,-8.34349 0,-8.03893 6.27282,-13.94638 6.33374,-5.96829 15.89523,-5.96829 9.13519,0 14.92081,5.60289 5.84652,5.60289 5.84652,13.4592 0,12.72832 -16.86965,21.74169 l 16.01703,20.40191 q 2.74056,-5.35927 4.2631,-12.42382 l 11.38853,2.43604 q -2.92326,11.69302 -7.91716,19.24476 6.15102,8.1608 13.94638,13.7028 l -7.36905,8.7089 q -6.63824,-4.2631 -13.70279,-12.6066 z m -22.28985,-46.52849 q 7.12545,-4.20221 9.19609,-7.36906 2.13154,-3.16684 2.13154,-7.00365 0,-4.56761 -2.92326,-7.42998 -2.86236,-2.92322 -7.18635,-2.92322 -4.44579,0 -7.42995,2.86237 -2.92326,2.86237 -2.92326,7.00365 0,2.07064 1.03532,4.38483 1.09623,2.25342 3.22777,4.81124 z m 15.40802,37.88049 -20.09742,-24.90854 q -8.89158,5.29841 -11.99754,9.866 -3.10597,4.50668 -3.10597,8.95244 0,5.4203 4.32399,11.2668 4.32399,5.8465 12.24115,5.8465 4.933,0 10.17051,-3.0451 5.29841,-3.106 8.46528,-7.9781 z"
           style="font-style:normal;font-variant:normal;font-weight:normal;font-stretch:normal;font-size:medium;line-height:1.25;font-family:Arial;-inkscape-font-specification:Arial;letter-spacing:0px;word-spacing:0px;fill:#ffffff;fill-opacity:1;stroke:none;stroke-width:3.11814404px"
           id="path4270"
           inkscape:connector-curvature="0" />
        <g
           transform="translate(-145.33836,-124.57574)"
           id="g4295">
          <path
             inkscape:connector-curvature="0"
             id="path4272"
             style="font-style:normal;font-variant:normal;font-weight:normal;font-stretch:normal;font-size:medium;line-height:1.25;font-family:Arial;-inkscape-font-specification:Arial;letter-spacing:0px;word-spacing:0px;fill:#ffffff;fill-opacity:1;stroke:none;stroke-width:3.98170733px"
             d="m 421.9693,1176.3241 v -114.0074 h 76.91228 v 13.4538 h -61.82534 v 35.3065 h 53.5042 v 13.4538 h -53.5042 v 51.7933 z" />
          <path
             inkscape:connector-curvature="0"
             id="path4274"
             style="font-style:normal;font-variant:normal;font-weight:normal;font-stretch:normal;font-size:medium;line-height:1.25;font-family:Arial;-inkscape-font-specification:Arial;letter-spacing:0px;word-spacing:0px;fill:#ffffff;fill-opacity:1;stroke:none;stroke-width:3.98170733px"
             d="m 511.55771,1135.0295 q 0,-22.9415 12.7539,-33.9845 10.65418,-9.1766 25.97442,-9.1766 17.03113,0 27.84085,11.1986 10.80971,11.1207 10.80971,30.796 0,15.9424 -4.8216,25.1189 -4.74383,9.0989 -13.92042,14.1538 -9.09883,5.0549 -19.90854,5.0549 -17.3422,0 -28.07415,-11.1208 -10.65417,-11.1208 -10.65417,-32.0403 z m 14.38702,0 q 0,15.8646 6.92133,23.7969 6.92133,7.8546 17.41997,7.8546 10.42088,0 17.3422,-7.9324 6.92133,-7.9323 6.92133,-24.1857 0,-15.3203 -6.99909,-23.1748 -6.92133,-7.9323 -17.26444,-7.9323 -10.49864,0 -17.41997,7.8545 -6.92133,7.8546 -6.92133,23.7192 z" />
          <path
             inkscape:connector-curvature="0"
             id="path4276"
             style="font-style:normal;font-variant:normal;font-weight:normal;font-stretch:normal;font-size:medium;line-height:1.25;font-family:Arial;-inkscape-font-specification:Arial;letter-spacing:0px;word-spacing:0px;fill:#ffffff;fill-opacity:1;stroke:none;stroke-width:3.98170733px"
             d="m 600.21292,1135.0295 q 0,-22.9415 12.7539,-33.9845 10.65418,-9.1766 25.97442,-9.1766 17.03114,0 27.84085,11.1986 10.80971,11.1207 10.80971,30.796 0,15.9424 -4.8216,25.1189 -4.74383,9.0989 -13.92042,14.1538 -9.09882,5.0549 -19.90854,5.0549 -17.3422,0 -28.07414,-11.1208 -10.65418,-11.1208 -10.65418,-32.0403 z m 14.38703,0 q 0,15.8646 6.92132,23.7969 6.92133,7.8546 17.41997,7.8546 10.42088,0 17.34221,-7.9324 6.92132,-7.9323 6.92132,-24.1857 0,-15.3203 -6.99909,-23.1748 -6.92133,-7.9323 -17.26444,-7.9323 -10.49864,0 -17.41997,7.8545 -6.92132,7.8546 -6.92132,23.7192 z" />
          <path
             inkscape:connector-curvature="0"
             id="path4278"
             style="font-style:normal;font-variant:normal;font-weight:normal;font-stretch:normal;font-size:medium;line-height:1.25;font-family:Arial;-inkscape-font-specification:Arial;letter-spacing:0px;word-spacing:0px;fill:#ffffff;fill-opacity:1;stroke:none;stroke-width:3.98170733px"
             d="m 747.66053,1176.3241 v -10.4208 q -7.85454,12.2873 -23.09701,12.2873 -9.87651,0 -18.19765,-5.4438 -8.24338,-5.4437 -12.83168,-15.1647 -4.51052,-9.7987 -4.51052,-22.4748 0,-12.3651 4.12169,-22.3971 4.12168,-10.1099 12.36506,-15.4758 8.24338,-5.366 18.43095,-5.366 7.4657,0 13.29828,3.1885 5.83258,3.1107 9.48767,8.1656 v -40.9058 h 13.92042 v 114.0074 z m -44.24984,-41.2168 q 0,15.8646 6.68803,23.7191 6.68802,7.8546 15.78685,7.8546 9.17659,0 15.55354,-7.4658 6.45472,-7.5434 6.45472,-22.9414 0,-16.9534 -6.53249,-24.8857 -6.53249,-7.9323 -16.09792,-7.9323 -9.33212,0 -15.63131,7.6212 -6.22142,7.6213 -6.22142,24.0303 z" />
        </g>
      </g>
      <g
         transform="matrix(0.05601964,0,0,0.05601964,-22.988408,1236.1772)"
         id="g4250"
         style="fill:#ff0000">
        <path
           inkscape:connector-curvature="0"
           d="M 297.29747,550.86823 C 283.52243,535.43191 249.1268,505.33855 220.86277,483.99412 137.11867,420.75228 125.72108,411.5999 91.719238,380.29088 29.03471,322.57071 2.413622,264.58086 2.5048478,185.95124 2.5493594,147.56739 5.1656152,132.77929 15.914734,110.15398 34.151433,71.768267 61.014996,43.244667 95.360052,25.799457 119.68545,13.443675 131.6827,7.9542046 172.30448,7.7296236 c 42.49329,-0.234834 51.43863,4.7197234 76.43471,18.4518354 30.42451,16.714318 61.7399,52.435708 68.21323,77.810591 l 3.9981,15.6724 9.85963,-21.584508 c 55.71617,-121.972928 233.59836,-120.148052 295.50229,3.031588 19.63767,39.07605 21.79364,122.51317 4.38012,169.51287 -22.71527,61.30937 -65.38001,108.05053 -164.00634,179.67658 -64.68082,46.97364 -137.88474,118.04586 -142.98067,128.02803 -5.91548,11.58753 -0.28216,1.8159 -26.40808,-27.46078 z"
           id="path4246"
           style="fill:#ff0000" />
        <g
           transform="translate(129.28571,-64.285714)"
           id="g4248"
           style="fill:#ff0000" />
      </g>
      <g
         transform="rotate(-12.732496,-99.54021,1002.7678)"
         id="g4484">
        <path
           style="opacity:1;fill:#00aa00;fill-opacity:1;fill-rule:nonzero;stroke:none;stroke-width:9.57209492;stroke-linecap:round;stroke-linejoin:miter;stroke-miterlimit:4;stroke-dasharray:none;stroke-opacity:1;paint-order:stroke markers fill"
           d="m -312.38782,1071.5129 h 153.02698 v 72.71 h -153.02698 z"
           id="rect4384" />
        <g
           id="g4465"
           transform="translate(-5.9606359,-1.9413867)">
          <g
             transform="matrix(1.1623232,0,0,1.1623232,46.820837,-167.86999)"
             id="g4448">
            <path
               inkscape:connector-curvature="0"
               id="path4393"
               style="font-style:normal;font-weight:normal;font-size:medium;line-height:1.25;font-family:sans-serif;letter-spacing:0px;word-spacing:0px;fill:#ffffff;fill-opacity:1;stroke:none;stroke-width:0.77743673"
               d="m -271.84212,1096.9969 q -0.83514,0.3645 -1.51843,0.6833 -0.66811,0.3189 -1.76138,0.6681 -0.92625,0.2885 -2.01952,0.4859 -1.07808,0.2126 -2.38393,0.2126 -2.45986,0 -4.47938,-0.6833 -2.00433,-0.6985 -3.49239,-2.1713 -1.45769,-1.4425 -2.27764,-3.6595 -0.81996,-2.232 -0.81996,-5.1778 0,-2.7939 0.78959,-4.9956 0.78958,-2.2018 2.27764,-3.7202 1.44251,-1.4729 3.47721,-2.2473 2.04988,-0.7744 4.54011,-0.7744 1.82212,0 3.62905,0.4404 1.82212,0.4403 4.03903,1.5488 v 3.5683 h -0.22777 q -1.86767,-1.564 -3.70497,-2.2777 -1.8373,-0.7136 -3.93274,-0.7136 -1.71582,0 -3.0976,0.5618 -1.36658,0.5466 -2.44467,1.7158 -1.04772,1.1388 -1.6399,2.885 -0.57701,1.7311 -0.57701,4.0087 0,2.3839 0.63774,4.0998 0.65293,1.7158 1.67028,2.7939 1.0629,1.1236 2.47504,1.6702 1.42732,0.5315 3.00649,0.5315 2.17136,0 4.0694,-0.744 1.89804,-0.7441 3.55313,-2.2321 h 0.21258 z" />
            <path
               inkscape:connector-curvature="0"
               id="path4395"
               style="font-style:normal;font-weight:normal;font-size:medium;line-height:1.25;font-family:sans-serif;letter-spacing:0px;word-spacing:0px;fill:#ffffff;fill-opacity:1;stroke:none;stroke-width:0.77743673"
               d="m -253.33245,1090.164 q 0,4.1453 -2.1258,6.5444 -2.12581,2.3992 -5.69412,2.3992 -3.59868,0 -5.72448,-2.3992 -2.11062,-2.3991 -2.11062,-6.5444 0,-4.1453 2.11062,-6.5444 2.1258,-2.4143 5.72448,-2.4143 3.56831,0 5.69412,2.4143 2.1258,2.3991 2.1258,6.5444 z m -2.94576,0 q 0,-3.295 -1.29066,-4.8894 -1.29067,-1.6095 -3.5835,-1.6095 -2.3232,0 -3.61386,1.6095 -1.27549,1.5944 -1.27549,4.8894 0,3.1887 1.29067,4.8438 1.29067,1.6399 3.59868,1.6399 2.27765,0 3.56831,-1.6247 1.30585,-1.6399 1.30585,-4.859 z" />
            <path
               inkscape:connector-curvature="0"
               id="path4397"
               style="font-style:normal;font-weight:normal;font-size:medium;line-height:1.25;font-family:sans-serif;letter-spacing:0px;word-spacing:0px;fill:#ffffff;fill-opacity:1;stroke:none;stroke-width:0.77743673"
               d="m -235.14164,1098.6368 h -2.85465 v -1.7765 q -1.22993,1.0629 -2.56615,1.6551 -1.33622,0.5922 -2.90021,0.5922 -3.03686,0 -4.82861,-2.3384 -1.77656,-2.3384 -1.77656,-6.4837 0,-2.1562 0.60737,-3.8417 0.62256,-1.6854 1.67028,-2.8698 1.03253,-1.154 2.39912,-1.7614 1.38177,-0.6073 2.85465,-0.6073 1.33622,0 2.36875,0.2885 1.03253,0.2733 2.17136,0.8655 v -7.3492 h 2.85465 z m -2.85465,-4.1756 v -9.7332 q -1.15401,-0.5163 -2.06507,-0.7136 -0.91106,-0.1974 -1.98914,-0.1974 -2.39913,0 -3.73534,1.6702 -1.33622,1.6703 -1.33622,4.7375 0,3.0217 1.03253,4.6009 1.03253,1.564 3.31018,1.564 1.21474,0 2.45986,-0.5315 1.24511,-0.5466 2.3232,-1.3969 z" />
            <path
               inkscape:connector-curvature="0"
               id="path4399"
               style="font-style:normal;font-weight:normal;font-size:medium;line-height:1.25;font-family:sans-serif;letter-spacing:0px;word-spacing:0px;fill:#ffffff;fill-opacity:1;stroke:none;stroke-width:0.77743673"
               d="m -215.32612,1090.4525 h -12.49669 q 0,1.564 0.47071,2.7332 0.47072,1.154 1.29067,1.898 0.78958,0.7289 1.86767,1.0933 1.09327,0.3644 2.39912,0.3644 1.73101,0 3.47721,-0.6833 1.76138,-0.6985 2.50541,-1.3666 h 0.15184 v 3.1128 q -1.44251,0.6074 -2.94575,1.0174 -1.50325,0.4099 -3.15834,0.4099 -4.22124,0 -6.58999,-2.2776 -2.36875,-2.2928 -2.36875,-6.4989 0,-4.1605 2.26246,-6.6052 2.27765,-2.4446 5.98262,-2.4446 3.43165,0 5.28414,2.0043 1.86767,2.0043 1.86767,5.6941 z m -2.77873,-2.1865 q -0.0152,-2.2473 -1.13882,-3.4773 -1.10846,-1.2299 -3.38611,-1.2299 -2.29283,0 -3.65941,1.3514 -1.35141,1.3514 -1.53362,3.3558 z" />
            <path
               inkscape:connector-curvature="0"
               id="path4401"
               style="font-style:normal;font-weight:normal;font-size:medium;line-height:1.25;font-family:sans-serif;letter-spacing:0px;word-spacing:0px;fill:#ffffff;fill-opacity:1;stroke:none;stroke-width:0.77743673"
               d="m -200.41513,1084.7887 h -0.15184 q -0.63775,-0.1518 -1.24512,-0.2125 -0.59219,-0.076 -1.41214,-0.076 -1.32103,0 -2.55096,0.5922 -1.22993,0.577 -2.36876,1.5033 v 12.0411 h -2.85465 v -16.9608 h 2.85465 v 2.5054 q 1.70065,-1.3666 2.99131,-1.9284 1.30585,-0.577 2.65726,-0.577 0.74403,0 1.07808,0.046 0.33406,0.03 1.00217,0.1367 z" />
            <path
               inkscape:connector-curvature="0"
               id="path4403"
               style="font-style:normal;font-weight:normal;font-size:medium;line-height:1.25;font-family:sans-serif;letter-spacing:0px;word-spacing:0px;fill:#ffffff;fill-opacity:1;stroke:none;stroke-width:0.77743673"
               d="m -185.58006,1093.7475 q 0,2.3232 -1.9284,3.8113 -1.91323,1.488 -5.23859,1.488 -1.88286,0 -3.46202,-0.4403 -1.56399,-0.4556 -2.62689,-0.987 v -3.2039 h 0.15184 q 1.35141,1.0174 3.0065,1.6247 1.65509,0.5922 3.17352,0.5922 1.88285,0 2.94575,-0.6074 1.06291,-0.6073 1.06291,-1.9132 0,-1.0021 -0.57701,-1.5184 -0.577,-0.5163 -2.21691,-0.8807 -0.60737,-0.1367 -1.59435,-0.3189 -0.9718,-0.1822 -1.77656,-0.3948 -2.2321,-0.5922 -3.17352,-1.731 -0.92625,-1.154 -0.92625,-2.8243 0,-1.0477 0.42516,-1.9739 0.44035,-0.9263 1.32104,-1.6551 0.85032,-0.7137 2.15617,-1.1236 1.32104,-0.4252 2.94576,-0.4252 1.51843,0 3.06723,0.3796 1.56398,0.3644 2.59651,0.8959 v 3.052 h -0.15184 q -1.09327,-0.8048 -2.65725,-1.3514 -1.56399,-0.5618 -3.06723,-0.5618 -1.56399,0 -2.64207,0.6074 -1.07809,0.5922 -1.07809,1.7765 0,1.0477 0.65293,1.5792 0.63774,0.5315 2.06506,0.8655 0.78959,0.1822 1.76138,0.3644 0.98698,0.1822 1.63991,0.3341 1.98914,0.4555 3.06723,1.564 1.07808,1.1236 1.07808,2.9761 z" />
          </g>
          <g
             transform="matrix(0.98283427,0,0,0.98283427,-4.9942662,19.534248)"
             id="g4440">
            <path
               inkscape:connector-curvature="0"
               id="path4405"
               style="font-style:normal;font-weight:normal;font-size:medium;line-height:1.25;font-family:sans-serif;letter-spacing:0px;word-spacing:0px;fill:#ffffff;fill-opacity:1;stroke:none;stroke-width:0.77743673"
               d="m -262.98967,1114.8992 -5.87633,22.6095 h -3.3861 l -4.75269,-18.7678 -4.6464,18.7678 h -3.31018 l -5.98262,-22.6095 h 3.08242 l 4.75269,18.7982 4.67677,-18.7982 h 3.05204 l 4.72232,18.9804 4.72232,-18.9804 z" />
            <path
               inkscape:connector-curvature="0"
               id="path4407"
               style="font-style:normal;font-weight:normal;font-size:medium;line-height:1.25;font-family:sans-serif;letter-spacing:0px;word-spacing:0px;fill:#ffffff;fill-opacity:1;stroke:none;stroke-width:0.77743673"
               d="m -247.13725,1137.5087 h -2.83947 v -1.807 q -0.3796,0.2582 -1.03253,0.7289 -0.63774,0.4555 -1.24511,0.7288 -0.71367,0.3493 -1.63991,0.577 -0.92624,0.243 -2.17136,0.243 -2.29283,0 -3.88718,-1.5184 -1.59435,-1.5185 -1.59435,-3.872 0,-1.9284 0.81995,-3.1128 0.83514,-1.1996 2.36875,-1.8829 1.5488,-0.6833 3.72016,-0.9262 2.17136,-0.243 4.66158,-0.3644 v -0.4404 q 0,-0.9718 -0.34924,-1.6095 -0.33405,-0.6378 -0.97179,-1.0022 -0.60737,-0.3492 -1.4577,-0.4707 -0.85032,-0.1215 -1.77656,-0.1215 -1.12364,0 -2.50541,0.3037 -1.38177,0.2885 -2.85465,0.8503 h -0.15184 v -2.9002 q 0.83513,-0.2277 2.4143,-0.5011 1.57917,-0.2733 3.11278,-0.2733 1.79175,0 3.11279,0.3037 1.33622,0.2885 2.30801,1.0022 0.95661,0.6985 1.4577,1.8069 0.50108,1.1085 0.50108,2.7484 z m -2.83947,-4.1757 v -4.7223 q -1.30585,0.076 -3.08241,0.2277 -1.76138,0.1519 -2.79391,0.4404 -1.22993,0.3492 -1.98915,1.0932 -0.75921,0.7289 -0.75921,2.0196 0,1.4577 0.88069,2.2017 0.88069,0.7288 2.68762,0.7288 1.50324,0 2.74836,-0.577 1.24511,-0.5922 2.30801,-1.4121 z" />
            <path
               inkscape:connector-curvature="0"
               id="path4409"
               style="font-style:normal;font-weight:normal;font-size:medium;line-height:1.25;font-family:sans-serif;letter-spacing:0px;word-spacing:0px;fill:#ffffff;fill-opacity:1;stroke:none;stroke-width:0.77743673"
               d="m -227.42801,1137.5087 h -2.85466 v -9.6572 q 0,-1.1692 -0.13665,-2.1866 -0.13666,-1.0325 -0.50109,-1.6095 -0.3796,-0.6378 -1.09327,-0.9415 -0.71366,-0.3188 -1.85248,-0.3188 -1.16919,0 -2.44468,0.577 -1.27548,0.577 -2.44467,1.4729 v 12.6637 h -2.85465 v -16.9609 h 2.85465 v 1.8829 q 1.33622,-1.1085 2.76354,-1.7311 1.42733,-0.6225 2.93058,-0.6225 2.74836,0 4.19087,1.6551 1.44251,1.6551 1.44251,4.7679 z" />
            <path
               inkscape:connector-curvature="0"
               id="path4411"
               style="font-style:normal;font-weight:normal;font-size:medium;line-height:1.25;font-family:sans-serif;letter-spacing:0px;word-spacing:0px;fill:#ffffff;fill-opacity:1;stroke:none;stroke-width:0.77743673"
               d="m -213.1244,1137.3568 q -0.80477,0.2126 -1.76138,0.3493 -0.94142,0.1366 -1.68546,0.1366 -2.59651,0 -3.94792,-1.3969 -1.3514,-1.397 -1.3514,-4.4794 v -9.0195 h -1.92841 v -2.3991 h 1.92841 v -4.8742 h 2.85465 v 4.8742 h 5.89151 v 2.3991 h -5.89151 v 7.7288 q 0,1.3363 0.0607,2.0955 0.0607,0.744 0.42516,1.3969 0.33405,0.6074 0.91106,0.8959 0.59219,0.2733 1.79175,0.2733 0.69847,0 1.45769,-0.1974 0.75921,-0.2126 1.09327,-0.3492 h 0.15184 z" />
            <path
               inkscape:connector-curvature="0"
               id="path4413"
               style="font-style:normal;font-weight:normal;font-size:medium;line-height:1.25;font-family:sans-serif;letter-spacing:0px;word-spacing:0px;fill:#ffffff;fill-opacity:1;stroke:none;stroke-width:0.77743673"
               d="m -195.46505,1129.3243 h -12.49668 q 0,1.564 0.47071,2.7332 0.47071,1.154 1.29067,1.898 0.78958,0.7289 1.86767,1.0933 1.09327,0.3644 2.39912,0.3644 1.73101,0 3.4772,-0.6833 1.76138,-0.6984 2.50542,-1.3665 h 0.15184 v 3.1127 q -1.44251,0.6074 -2.94576,1.0174 -1.50324,0.41 -3.15833,0.41 -4.22124,0 -6.58999,-2.2777 -2.36876,-2.2928 -2.36876,-6.4989 0,-4.1605 2.26247,-6.6051 2.27764,-2.4447 5.98261,-2.4447 3.43166,0 5.28414,2.0043 1.86767,2.0043 1.86767,5.6941 z m -2.77872,-2.1865 q -0.0152,-2.2473 -1.13883,-3.4772 -1.10845,-1.2299 -3.3861,-1.2299 -2.29283,0 -3.65942,1.3514 -1.3514,1.3514 -1.53361,3.3557 z" />
            <path
               inkscape:connector-curvature="0"
               id="path4415"
               style="font-style:normal;font-weight:normal;font-size:medium;line-height:1.25;font-family:sans-serif;letter-spacing:0px;word-spacing:0px;fill:#ffffff;fill-opacity:1;stroke:none;stroke-width:0.77743673"
               d="m -177.38053,1137.5087 h -2.85465 v -1.7766 q -1.22993,1.0629 -2.56615,1.6551 -1.33622,0.5922 -2.9002,0.5922 -3.03686,0 -4.82861,-2.3384 -1.77656,-2.3384 -1.77656,-6.4837 0,-2.1562 0.60737,-3.8416 0.62256,-1.6855 1.67027,-2.8699 1.03254,-1.154 2.39912,-1.7613 1.38178,-0.6074 2.85465,-0.6074 1.33622,0 2.36876,0.2885 1.03253,0.2733 2.17135,0.8655 v -7.3492 h 2.85465 z m -2.85465,-4.1757 v -9.7332 q -1.154,-0.5162 -2.06506,-0.7136 -0.91106,-0.1974 -1.98915,-0.1974 -2.39912,0 -3.73534,1.6703 -1.33622,1.6702 -1.33622,4.7375 0,3.0216 1.03254,4.6008 1.03253,1.564 3.31017,1.564 1.21475,0 2.45986,-0.5315 1.24512,-0.5466 2.3232,-1.3969 z" />
            <path
               inkscape:connector-curvature="0"
               id="path4417"
               style="font-style:normal;font-weight:normal;font-size:medium;line-height:1.25;font-family:sans-serif;letter-spacing:0px;word-spacing:0px;fill:#ffffff;fill-opacity:1;stroke:none;stroke-width:0.77743673"
               d="m -166.75151,1114.8992 -0.3948,16.3839 h -2.58133 l -0.42516,-16.3839 z m -0.15185,22.6095 h -3.0976 v -3.2039 h 3.0976 z" />
          </g>
        </g>
      </g>
      <path
         style="opacity:1;fill:#ffcc00;fill-opacity:1;fill-rule:evenodd;stroke:none;stroke-width:0.68417513;stroke-linecap:round;stroke-linejoin:round;stroke-miterlimit:4;stroke-dasharray:none;stroke-dashoffset:0;stroke-opacity:1"
         d="m -193.83911,1173.0681 a 8.1340828,8.1340828 0 0 1 -8.13408,8.1341 8.1340828,8.1340828 0 0 1 -8.13408,-8.1341 8.1340828,8.1340828 0 0 1 8.13408,-8.1341 8.1340828,8.1340828 0 0 1 8.13408,8.1341 z"
         id="circle6147" />
    </g>
  </g>
</svg>
