<?xml version="1.0" encoding="UTF-8" standalone="no"?>
<!-- Created with Inkscape (http://www.inkscape.org/) -->

<svg
   xmlns:dc="http://purl.org/dc/elements/1.1/"
   xmlns:cc="http://creativecommons.org/ns#"
   xmlns:rdf="http://www.w3.org/1999/02/22-rdf-syntax-ns#"
   xmlns:svg="http://www.w3.org/2000/svg"
   xmlns="http://www.w3.org/2000/svg"
   xmlns:sodipodi="http://sodipodi.sourceforge.net/DTD/sodipodi-0.dtd"
   xmlns:inkscape="http://www.inkscape.org/namespaces/inkscape"
   width="240"
   height="130"
   viewBox="0 0 744.09449 1052.3622"
   id="svg4443"
   version="1.1"
   inkscape:version="0.92.3 (2405546, 2018-03-11)"
   sodipodi:docname="nutriscore-b.svg">
  <defs
     id="defs4445" />
  <sodipodi:namedview
     id="base"
     pagecolor="#ffffff"
     bordercolor="#666666"
     borderopacity="1.0"
     inkscape:pageopacity="0.0"
     inkscape:pageshadow="2"
     inkscape:zoom="1.979899"
     inkscape:cx="-57.653688"
     inkscape:cy="156.34508"
     inkscape:document-units="px"
     inkscape:current-layer="layer1"
     showgrid="false"
     inkscape:window-width="1920"
     inkscape:window-height="1017"
     inkscape:window-x="-8"
     inkscape:window-y="-8"
     inkscape:window-maximized="1" />
  <metadata
     id="metadata4448">
    <rdf:RDF>
      <cc:Work
         rdf:about="">
        <dc:format>image/svg+xml</dc:format>
        <dc:type
           rdf:resource="http://purl.org/dc/dcmitype/StillImage" />
        <dc:title />
      </cc:Work>
    </rdf:RDF>
  </metadata>
  <g
     inkscape:label="Calque 1"
     inkscape:groupmode="layer"
     id="layer1">
    <path
       style="opacity:1;fill:#ffffff;fill-opacity:1;fill-rule:evenodd;stroke:none;stroke-width:1;stroke-linecap:round;stroke-linejoin:round;stroke-miterlimit:4;stroke-dasharray:none;stroke-dashoffset:0;stroke-opacity:1"
       d="m -419.31459,-3.9161214e-5 1582.72369,0 c 99.7478,0 180.0493,80.302031161214 180.0493,180.049429161214 l 0,632.48116 c 0,99.7473 -80.3015,180.04933 -180.0493,180.04933 l -1582.72369,0 c -99.7474,0 -180.04943,-80.30203 -180.04943,-180.04933 l 0,-632.48116 c 0,-99.747398 80.30203,-180.049429161214 180.04943,-180.049429161214 z"
       id="rect5161"
       inkscape:connector-curvature="0" />
    <path
       style="opacity:1;fill:#038141;fill-opacity:1;fill-rule:evenodd;stroke:none;stroke-width:1;stroke-linecap:round;stroke-linejoin:round;stroke-miterlimit:4;stroke-dasharray:none;stroke-dashoffset:0;stroke-opacity:1"
       d="m -308.51495,357.79046 363.029984,0 0,586.31476 -363.029984,0 z"
       id="rect5163"
       inkscape:connector-curvature="0" />
    <path
       style="opacity:1;fill:#e63e11;fill-opacity:1;fill-rule:evenodd;stroke:none;stroke-width:1;stroke-linecap:round;stroke-linejoin:round;stroke-miterlimit:4;stroke-dasharray:none;stroke-dashoffset:0;stroke-opacity:1"
       d="m 748.69823,357.79046 363.02977,0 0,586.31476 -363.02977,0 z"
       id="rect5165"
       inkscape:connector-curvature="0" />
    <path
       style="opacity:1;fill:#038141;fill-opacity:1;fill-rule:evenodd;stroke:none;stroke-width:1;stroke-linecap:round;stroke-linejoin:round;stroke-miterlimit:4;stroke-dasharray:none;stroke-dashoffset:0;stroke-opacity:1"
       d="m -382.38116,357.79046 90.64758,0 c 75.44988,0 136.1912,60.74132 136.1912,136.1912 l 0,313.93236 c 0,75.44988 -60.74132,136.1912 -136.1912,136.1912 l -90.64758,0 c -75.44996,0 -136.1912,-60.74132 -136.1912,-136.1912 l 0,-313.93236 c 0,-75.44988 60.74124,-136.1912 136.1912,-136.1912 z"
       id="rect5167"
       inkscape:connector-curvature="0" />
    <path
       style="opacity:1;fill:#ee8100;fill-opacity:1;fill-rule:evenodd;stroke:none;stroke-width:1;stroke-linecap:round;stroke-linejoin:round;stroke-miterlimit:4;stroke-dasharray:none;stroke-dashoffset:0;stroke-opacity:1"
       d="m 570.95697,357.79046 363.0296,0 0,586.31476 -363.0296,0 z"
       id="rect5169"
       inkscape:connector-curvature="0" />
    <path
       inkscape:connector-curvature="0"
       id="path5600"
       style="font-style:normal;font-variant:normal;font-weight:800;font-stretch:normal;font-size:medium;line-height:89.99999762%;font-family:Raleway;-inkscape-font-specification:'Raleway Ultra-Bold';letter-spacing:0px;word-spacing:0px;fill:#ffffff;fill-opacity:0.44606413;stroke:none;stroke-width:1px;stroke-linecap:butt;stroke-linejoin:miter;stroke-opacity:1"
       d="M 636.60427,779.80423 V 514.00202 h 99.2079 q 32.94453,0 57.65289,10.48239 24.70835,10.4823 41.18062,28.45201 16.84627,17.96972 25.08293,42.30378 8.61066,23.95958 8.61066,51.28854 0,30.32393 -9.35962,55.03229 -9.35962,24.33406 -26.95457,41.92939 -17.22094,17.22104 -41.92939,26.95457 -24.33397,9.35924 -54.28352,9.35924 z M 805.81928,646.52874 q 0,-17.59533 -4.86681,-31.82138 -4.49243,-14.60035 -13.47729,-25.08274 -8.98485,-10.4823 -22.08785,-16.09789 -13.1029,-5.61548 -29.57516,-5.61548 h -37.81126 v 157.98384 h 37.81126 q 16.84665,0 29.94955,-5.98997 13.1029,-5.98987 21.71346,-16.47217 8.98486,-10.85678 13.47729,-25.08274 4.86681,-14.60044 4.86681,-31.82147 z" />
    <path
       style="opacity:1;fill:#fecb02;fill-opacity:1;fill-rule:evenodd;stroke:none;stroke-width:1;stroke-linecap:round;stroke-linejoin:round;stroke-miterlimit:4;stroke-dasharray:none;stroke-dashoffset:0;stroke-opacity:1"
       d="m 188.25931,357.79046 383.3209,0 0,586.31476 -383.3209,0 z"
       id="rect5175"
       inkscape:connector-curvature="0" />
    <path
       style="opacity:1;fill:#85bb2f;fill-opacity:1;fill-rule:evenodd;stroke:none;stroke-width:1;stroke-linecap:round;stroke-linejoin:round;stroke-miterlimit:4;stroke-dasharray:none;stroke-dashoffset:0;stroke-opacity:1"
       d="m 206.86512,357.79046 -363.03008,0 0,586.31476 363.03008,0 z"
       id="rect5177"
       inkscape:connector-curvature="0" />
    <path
       inkscape:connector-curvature="0"
       id="path5595"
       style="font-style:normal;font-variant:normal;font-weight:800;font-stretch:normal;font-size:medium;line-height:89.99999762%;font-family:Raleway;-inkscape-font-specification:'Raleway Ultra-Bold';letter-spacing:0px;word-spacing:0px;fill:#ffffff;fill-opacity:0.44606413;stroke:none;stroke-width:1px;stroke-linecap:butt;stroke-linejoin:miter;stroke-opacity:1"
       d="m 293.24562,642.41079 q 0,-23.95968 8.98486,-47.54488 8.98486,-23.95968 26.20589,-42.67816 17.22095,-18.71848 41.9293,-30.32394 24.70845,-11.60536 56.15544,-11.60536 37.43697,0 64.76592,16.09789 27.70334,16.09788 41.18062,41.92929 l -47.17059,32.94454 q -4.49242,-10.4824 -11.60545,-17.22104 -6.73864,-7.11303 -14.97473,-11.23107 -8.23609,-4.49243 -16.84665,-5.98987 -8.61047,-1.87183 -16.84656,-1.87183 -17.59542,0 -30.69832,7.11303 -13.1029,7.11302 -21.71347,18.34409 -8.61047,11.23107 -12.72851,25.45713 -4.11804,14.22595 -4.11804,28.82639 0,15.7235 4.86681,30.32394 4.86681,14.60034 13.85167,25.83141 9.35924,11.23117 22.08775,17.96981 13.1029,6.36426 29.20078,6.36426 8.23619,0 16.84666,-1.87183 8.98485,-2.24622 16.84665,-6.36435 8.23609,-4.49243 14.97473,-11.23107 6.73864,-7.11303 10.85668,-17.22095 l 50.16548,29.57517 q -5.98987,14.60044 -17.96971,26.20589 -11.60546,11.60536 -26.95457,19.46716 -15.34911,7.8618 -32.57015,11.97984 -17.22094,4.11804 -33.69321,4.11804 -28.8264,0 -53.16046,-11.60545 -23.95959,-11.97984 -41.55501,-31.447 -17.22094,-19.46725 -26.95457,-44.1756 -9.35924,-24.70836 -9.35924,-50.16548 z" />
    <path
       inkscape:connector-curvature="0"
       id="path5592"
       style="font-style:normal;font-variant:normal;font-weight:800;font-stretch:normal;font-size:medium;line-height:89.99999762%;font-family:Raleway;-inkscape-font-specification:'Raleway Ultra-Bold';letter-spacing:0px;word-spacing:0px;fill:#ffffff;fill-opacity:0.44606413;stroke:none;stroke-width:1px;stroke-linecap:butt;stroke-linejoin:miter;stroke-opacity:1"
       d="m 154.55231,720.90218 q 0,17.22104 -7.11303,29.94956 -7.11303,12.72861 -19.46725,21.33908 -12.35413,8.23618 -28.8264,12.72861 -16.472267,4.11804 -34.816364,4.11804 l -129.531833,0 0,-265.80221 147.87593,0 q 13.851668,0 25.082737,5.98987 11.23107,5.98987 19.09287,15.7235 7.8617,9.35924 11.97984,21.71346 4.49243,11.97984 4.49243,24.70836 0,19.09286 -9.73363,35.93942 -9.35924,16.84665 -28.45211,25.45712 22.83653,6.73865 35.93952,23.95968 13.47729,17.22095 13.47729,44.17551 z M 92.032603,708.54805 q 0,-12.35422 -7.113026,-20.96469 -7.113027,-8.61047 -17.969713,-8.61047 l -70.7557882,0 0,58.02718 68.1351902,0 q 11.979839,0 19.841541,-7.8617 7.861796,-7.8618 7.861796,-20.59032 z m -95.8385272,-132.9011 0,55.03229 60.2733932,0 q 10.108011,0 17.969807,-6.73864 7.861702,-6.73865 7.861702,-20.9647 0,-13.1029 -7.113027,-20.21592 -6.738642,-7.11303 -16.472268,-7.11303 l -62.5196072,0 z" />
    <path
       style="opacity:1;fill:#0039ff;fill-opacity:0.62973764;fill-rule:evenodd;stroke:#ffffff;stroke-width:61.03178787;stroke-linecap:round;stroke-linejoin:round;stroke-miterlimit:4;stroke-dasharray:none;stroke-dashoffset:0;stroke-opacity:1"
       d="m 7.725967,281.61579 39.326398,0 c 108.699035,0 196.207645,87.50861 196.207645,196.20765 l 0,343.94054 c 0,108.69904 -87.50861,196.20762 -196.207645,196.20762 l -39.326398,0 c -108.699137,0 -196.207737,-87.50858 -196.207737,-196.20762 l 0,-343.94054 c 0,-108.69904 87.5086,-196.20765 196.207737,-196.20765 z"
       id="rect5187"
       inkscape:connector-curvature="0" />
    <path
       inkscape:connector-curvature="0"
       id="path5588"
       style="font-style:normal;font-variant:normal;font-weight:800;font-stretch:normal;font-size:medium;line-height:89.99999762%;font-family:Raleway;-inkscape-font-specification:'Raleway Ultra-Bold';letter-spacing:0px;word-spacing:0px;fill:#ffffff;fill-opacity:0.44606413;stroke:none;stroke-width:1px;stroke-linecap:butt;stroke-linejoin:miter;stroke-opacity:1"
       d="m -384.71226,514.00202 55.40668,0 96.96168,265.80221 -62.89409,0 -20.59031,-59.52472 -82.73563,0 -20.21592,59.52472 -62.89399,0 96.96158,-265.80221 z m 58.77605,163.97381 -31.07271,-93.9667 -31.82138,93.9667 62.89409,0 z" />
    <path
       style="opacity:1;fill:#e63e11;fill-opacity:1;fill-rule:evenodd;stroke:none;stroke-width:1;stroke-linecap:round;stroke-linejoin:round;stroke-miterlimit:4;stroke-dasharray:none;stroke-dashoffset:0;stroke-opacity:1"
       d="m 1069.5559,357.79046 90.6471,0 c 75.4498,0 136.1917,60.74132 136.1917,136.1912 l 0,313.93236 c 0,75.44988 -60.7419,136.1912 -136.1917,136.1912 l -90.6471,0 c -75.44982,0 -136.19172,-60.74132 -136.19172,-136.1912 l 0,-313.93236 c 0,-75.44988 60.7419,-136.1912 136.19172,-136.1912 z"
       id="rect5193"
       inkscape:connector-curvature="0" />
    <path
       inkscape:connector-curvature="0"
       id="path5584"
       style="font-style:normal;font-variant:normal;font-weight:800;font-stretch:normal;font-size:medium;line-height:89.99999762%;font-family:Raleway;-inkscape-font-specification:'Raleway Ultra-Bold';letter-spacing:0px;word-spacing:0px;fill:#ffffff;fill-opacity:0.44606413;stroke:none;stroke-width:1px;stroke-linecap:butt;stroke-linejoin:miter;stroke-opacity:1"
       d="m 1208.2848,725.89509 v 53.90914 H 1021.474 V 514.00202 h 183.441 v 53.90923 h -122.0444 v 51.66292 h 104.824 v 49.79109 h -104.824 v 56.52983 z" />
    <path
       style="opacity:1;fill:#85bb2f;fill-opacity:1;fill-rule:evenodd;stroke:none;stroke-width:15.94488144;stroke-linecap:round;stroke-linejoin:round;stroke-miterlimit:4;stroke-dasharray:none;stroke-dashoffset:0;stroke-opacity:1"
       d="m 7.725967,281.61579 39.326398,0 c 108.699035,0 196.207645,87.50861 196.207645,196.20765 l 0,343.94054 c 0,108.69904 -87.50861,196.20762 -196.207645,196.20762 l -39.326398,0 c -108.699137,0 -196.207737,-87.50858 -196.207737,-196.20762 l 0,-343.94054 c 0,-108.69904 87.5086,-196.20765 196.207737,-196.20765 z"
       id="rect5199"
       inkscape:connector-curvature="0" />
    <path
       inkscape:connector-curvature="0"
       id="path5580"
       style="font-style:normal;font-variant:normal;font-weight:800;font-stretch:normal;font-size:medium;line-height:89.99999762%;font-family:Raleway;-inkscape-font-specification:'Raleway Ultra-Bold';letter-spacing:0px;word-spacing:0px;fill:#ffffff;fill-opacity:1;stroke:none;stroke-width:1px;stroke-linecap:butt;stroke-linejoin:miter;stroke-opacity:1"
       d="m 160.27176,742.3607 q 0,22.70443 -8.60228,39.48599 -8.60229,16.78146 -23.54305,28.13368 -14.94084,10.85869 -34.861938,16.78156 -19.921105,5.42934 -42.10593,5.42934 H -105.49352 V 481.75324 H 73.343387 q 16.751775,0 30.334403,7.8972 13.58254,7.8972 23.09033,20.73021 9.5077,12.33928 14.48805,28.62731 5.43305,15.7943 5.43305,32.57586 0,25.17238 -11.77161,47.38319 -11.31881,22.2109 -34.40905,33.56311 27.61787,8.88427 43.46414,31.5887 16.29906,22.70444 16.29906,58.24188 z M 84.662201,726.07267 q 0,-16.28793 -8.602287,-27.64014 -8.602287,-11.35222 -21.732023,-11.35222 H -31.24227 v 76.50413 h 82.400832 q 14.488047,0 23.995843,-10.36515 9.507796,-10.36506 9.507796,-27.14662 z M -31.24227,550.85371 v 72.55548 h 72.893037 q 12.224322,0 21.732118,-8.88436 9.507795,-8.88427 9.507795,-27.64015 0,-17.27509 -8.602286,-26.65299 -8.14958,-9.37798 -19.921196,-9.37798 z" />
    <path
       inkscape:connector-curvature="0"
       id="path5557"
       style="font-style:normal;font-variant:normal;font-weight:800;font-stretch:normal;font-size:medium;line-height:89.99999762%;font-family:Raleway;-inkscape-font-specification:'Raleway Ultra-Bold';letter-spacing:0px;word-spacing:0px;fill:#7d7d7d;fill-opacity:1;stroke:none;stroke-width:1px;stroke-linecap:butt;stroke-linejoin:miter;stroke-opacity:1"
       d="m -443.38895,163.14744 0,76.82598 -31.03321,0 0,-134.35096 24.22101,0 62.63409,78.90755 0,-78.90755 31.03312,0 0,134.35096 -24.97787,0 -61.87714,-76.82598 z" />
    <path
       inkscape:connector-curvature="0"
       id="path5559"
       style="font-style:normal;font-variant:normal;font-weight:800;font-stretch:normal;font-size:medium;line-height:89.99999762%;font-family:Raleway;-inkscape-font-specification:'Raleway Ultra-Bold';letter-spacing:0px;word-spacing:0px;fill:#7d7d7d;fill-opacity:1;stroke:none;stroke-width:1px;stroke-linecap:butt;stroke-linejoin:miter;stroke-opacity:1"
       d="m -272.9401,213.48175 q 7.94754,0 13.43512,-3.21692 5.48758,-3.406 8.89369,-8.89359 3.4061,-5.48758 4.73063,-12.48898 1.51381,-7.19059 1.51381,-14.57046 l 0,-68.68934 31.03321,0 0,68.68934 q 0,14.00279 -3.59529,26.1133 -3.4061,12.1105 -10.78598,21.19338 -7.19059,9.08288 -18.54423,14.38117 -11.16436,5.10921 -26.68096,5.10921 -16.08428,0 -27.43783,-5.48759 -11.35364,-5.48758 -18.54423,-14.57046 -7.0014,-9.27216 -10.4075,-21.38267 -3.21682,-12.1105 -3.21682,-25.35634 l 0,-68.68934 31.03322,0 0,68.68934 q 0,7.75826 1.51381,14.75965 1.51381,7.0014 4.91982,12.48898 3.4061,5.48759 8.7045,8.7044 5.48758,3.21692 13.43503,3.21692 z" />
    <path
       inkscape:connector-curvature="0"
       id="path5561"
       style="font-style:normal;font-variant:normal;font-weight:800;font-stretch:normal;font-size:medium;line-height:89.99999762%;font-family:Raleway;-inkscape-font-specification:'Raleway Ultra-Bold';letter-spacing:0px;word-spacing:0px;fill:#7d7d7d;fill-opacity:1;stroke:none;stroke-width:1px;stroke-linecap:butt;stroke-linejoin:miter;stroke-opacity:1"
       d="m -87.101702,132.87118 -40.872948,0 0,107.10224 -31.03321,0 0,-107.10224 -41.06214,0 0,-27.24872 112.968298,0 0,27.24872 z" />
    <path
       inkscape:connector-curvature="0"
       id="path5563"
       style="font-style:normal;font-variant:normal;font-weight:800;font-stretch:normal;font-size:medium;line-height:89.99999762%;font-family:Raleway;-inkscape-font-specification:'Raleway Ultra-Bold';letter-spacing:0px;word-spacing:0px;fill:#7d7d7d;fill-opacity:1;stroke:none;stroke-width:1px;stroke-linecap:butt;stroke-linejoin:miter;stroke-opacity:1"
       d="m -71.945777,239.97342 0,-134.35096 60.552516,0 q 9.4613548,0 17.4088012,3.97377 8.1368278,3.97377 14.0027928,10.4075 5.866061,6.43373 9.082878,14.57046 3.406103,8.13673 3.406103,16.46275 0,6.24444 -1.513813,12.1105 -1.513813,5.67678 -4.352248,10.78588 -2.83834,5.10911 -7.001397,9.27217 -3.973675,3.97367 -9.082877,6.81211 l 29.519399,49.95582 -35.0068876,0 -25.7349144,-43.3329 -20.247236,0 0,43.3329 -31.033117,0 z m 31.033117,-70.39225 28.384063,0 q 5.487489,0 9.4612597,-5.1092 3.97377083,-5.2983 3.97377083,-13.43503 0,-8.32602 -4.54143873,-13.24593 -4.5414387,-4.91983 -9.8397368,-4.91983 l -27.437918,0 0,36.70999 z" />
    <path
       inkscape:connector-curvature="0"
       id="path5565"
       style="font-style:normal;font-variant:normal;font-weight:800;font-stretch:normal;font-size:medium;line-height:89.99999762%;font-family:Raleway;-inkscape-font-specification:'Raleway Ultra-Bold';letter-spacing:0px;word-spacing:0px;fill:#7d7d7d;fill-opacity:1;stroke:none;stroke-width:1px;stroke-linecap:butt;stroke-linejoin:miter;stroke-opacity:1"
       d="m 54.82128,239.97342 0,-134.35096 31.033212,0 0,134.35096 -31.033212,0 z" />
    <path
       inkscape:connector-curvature="0"
       id="path5567"
       style="font-style:normal;font-variant:normal;font-weight:800;font-stretch:normal;font-size:medium;line-height:89.99999762%;font-family:Raleway;-inkscape-font-specification:'Raleway Ultra-Bold';letter-spacing:0px;word-spacing:0px;fill:#7d7d7d;fill-opacity:1;stroke:none;stroke-width:1px;stroke-linecap:butt;stroke-linejoin:miter;stroke-opacity:1"
       d="m 109.08796,201.56043 0,-27.24863 58.28175,0 0,27.24863 -58.28175,0 z" />
    <path
       inkscape:connector-curvature="0"
       id="path5569"
       style="font-style:normal;font-variant:normal;font-weight:800;font-stretch:normal;font-size:medium;line-height:89.99999762%;font-family:Raleway;-inkscape-font-specification:'Raleway Ultra-Bold';letter-spacing:0px;word-spacing:0px;fill:#7d7d7d;fill-opacity:1;stroke:none;stroke-width:1px;stroke-linecap:butt;stroke-linejoin:miter;stroke-opacity:1"
       d="m 271.06898,144.98169 q -0.56814,-0.75658 -3.97377,-2.83844 -3.4061,-2.08148 -8.51521,-4.35224 -5.1091,-2.27068 -11.16436,-3.97378 -6.05525,-1.703 -12.1105,-1.703 -16.65194,0 -16.65194,11.16436 0,3.4061 1.703,5.67687 1.89229,2.27067 5.2984,4.16296 3.59529,1.703 8.89359,3.21682 5.29839,1.51381 12.29979,3.4061 9.65054,2.64915 17.4088,5.86606 7.75835,3.02763 13.05665,7.75826 5.48758,4.54144 8.32601,11.16435 3.02763,6.62292 3.02763,15.89509 0,11.35355 -4.35225,19.30109 -4.16296,7.75835 -11.16436,12.67817 -7.00139,4.73072 -16.08427,7.0014 -9.08288,2.08148 -18.73342,2.08148 -7.37988,0 -15.13813,-1.13534 -7.75835,-1.13533 -15.13813,-3.21682 -7.37988,-2.27076 -14.38127,-5.29839 -6.81211,-3.02762 -12.67817,-7.00139 l 13.62431,-27.05935 q 0.75658,0.94595 4.91992,3.59529 4.16296,2.64915 10.21821,5.2983 6.24444,2.64915 13.81351,4.73073 7.56906,2.08148 15.32741,2.08148 16.46276,0 16.46276,-10.02903 0,-3.78458 -2.45996,-6.24453 -2.45996,-2.45987 -6.81221,-4.35216 -4.35215,-2.08148 -10.4075,-3.78458 -5.86596,-1.703 -12.86736,-3.78448 -9.27207,-2.83844 -16.08427,-6.05525 -6.81221,-3.40611 -11.35365,-7.75835 -4.35215,-4.35216 -6.62292,-10.02903 -2.08148,-5.67677 -2.08148,-13.24584 0,-10.59669 3.97377,-18.73342 3.97377,-8.13673 10.78588,-13.62431 6.81221,-5.67678 15.7059,-8.51521 9.08287,-2.83844 19.1119,-2.83844 7.00139,0 13.8135,1.32462 6.81221,1.32463 13.05665,3.40611 6.24444,2.08148 11.54284,4.73063 5.48758,2.64914 10.02902,5.29839 l -13.62432,25.73482 z" />
    <path
       inkscape:connector-curvature="0"
       id="path5571"
       style="font-style:normal;font-variant:normal;font-weight:800;font-stretch:normal;font-size:medium;line-height:89.99999762%;font-family:Raleway;-inkscape-font-specification:'Raleway Ultra-Bold';letter-spacing:0px;word-spacing:0px;fill:#7d7d7d;fill-opacity:1;stroke:none;stroke-width:1px;stroke-linecap:butt;stroke-linejoin:miter;stroke-opacity:1"
       d="m 299.11882,171.66265 q 0,-12.1105 4.54144,-24.03181 4.54144,-12.11051 13.24593,-21.57186 8.70441,-9.46136 21.19339,-15.32732 12.48888,-5.86606 28.38396,-5.86606 18.92271,0 32.73622,8.13673 14.00279,8.13673 20.8149,21.19338 l -23.84253,16.65194 q -2.27067,-5.29829 -5.86606,-8.7044 -3.406,-3.59529 -7.56906,-5.67677 -4.16296,-2.27077 -8.51521,-3.02763 -4.35215,-0.94595 -8.51512,-0.94595 -8.89368,0 -15.5166,3.59529 -6.62292,3.5953 -10.97517,9.27207 -4.35225,5.67687 -6.43373,12.86746 -2.08148,7.19059 -2.08148,14.57046 0,7.94754 2.45996,15.32732 2.45996,7.37987 7.0014,13.05665 4.73063,5.67687 11.16435,9.08287 6.62292,3.21692 14.75966,3.21692 4.16305,0 8.51521,-0.94596 4.54144,-1.13533 8.51521,-3.21691 4.16296,-2.27067 7.56906,-5.67677 3.4061,-3.5953 5.48758,-8.70441 l 25.35635,14.94894 q -3.02763,7.37978 -9.08288,13.24584 -5.86597,5.86606 -13.62432,9.83974 -7.75825,3.97377 -16.46265,6.05525 -8.7045,2.08158 -17.03042,2.08158 -14.57046,0 -26.87025,-5.86606 -12.11051,-6.05526 -21.0041,-15.89509 -8.70449,-9.83973 -13.62431,-22.32871 -4.73073,-12.48898 -4.73073,-25.35635 z" />
    <path
       inkscape:connector-curvature="0"
       id="path5573"
       style="font-style:normal;font-variant:normal;font-weight:800;font-stretch:normal;font-size:medium;line-height:89.99999762%;font-family:Raleway;-inkscape-font-specification:'Raleway Ultra-Bold';letter-spacing:0px;word-spacing:0px;fill:#7d7d7d;fill-opacity:1;stroke:none;stroke-width:1px;stroke-linecap:butt;stroke-linejoin:miter;stroke-opacity:1"
       d="m 494.34168,241.10886 q -14.94893,0 -27.24872,-5.86607 -12.2997,-5.86606 -21.0041,-15.32732 -8.70449,-9.65064 -13.62431,-21.95033 -4.73073,-12.29979 -4.73073,-25.35634 0,-13.24594 4.91992,-25.54563 5.1091,-12.29979 14.00279,-21.57186 9.08288,-9.46135 21.38257,-14.94894 12.29979,-5.67677 26.87025,-5.67677 14.94884,0 27.24863,5.86606 12.2997,5.86596 21.0041,15.51651 8.70449,9.65064 13.43512,21.95033 4.73073,12.2997 4.73073,24.97797 0,13.24583 -5.1092,25.54553 -4.91982,12.29979 -13.81351,21.76114 -8.89369,9.27207 -21.19338,14.94885 -12.29979,5.67687 -26.87016,5.67687 z M 459.3347,172.98718 q 0,7.75835 2.27067,15.13813 2.27077,7.19068 6.62302,12.86746 4.54144,5.67677 11.16436,9.08287 6.62292,3.40611 15.13812,3.40611 8.89369,0 15.51661,-3.5953 6.62292,-3.59539 10.97517,-9.27216 4.35215,-5.86597 6.43363,-13.05665 2.27077,-7.37978 2.27077,-14.94884 0,-7.75835 -2.27077,-14.94894 -2.27067,-7.37987 -6.81211,-12.86746 -4.54144,-5.67677 -11.16436,-8.89359 -6.43373,-3.4061 -14.94894,-3.4061 -8.89368,0 -15.5166,3.59529 -6.43373,3.4061 -10.97517,9.08288 -4.35215,5.67677 -6.62292,13.05665 -2.08148,7.19058 -2.08148,14.75965 z" />
    <path
       inkscape:connector-curvature="0"
       id="path5575"
       style="font-style:normal;font-variant:normal;font-weight:800;font-stretch:normal;font-size:medium;line-height:89.99999762%;font-family:Raleway;-inkscape-font-specification:'Raleway Ultra-Bold';letter-spacing:0px;word-spacing:0px;fill:#7d7d7d;fill-opacity:1;stroke:none;stroke-width:1px;stroke-linecap:butt;stroke-linejoin:miter;stroke-opacity:1"
       d="m 579.26015,239.97342 0,-134.35096 60.55251,0 q 9.46136,0 17.4089,3.97377 8.13673,3.97377 14.00279,10.4075 5.86597,6.43373 9.08288,14.57046 3.40601,8.13673 3.40601,16.46275 0,6.24444 -1.51382,12.1105 -1.51381,5.67678 -4.35215,10.78588 -2.83843,5.10911 -7.0014,9.27217 -3.97377,3.97367 -9.08287,6.81211 l 29.5193,49.95582 -35.00689,0 -25.73482,-43.3329 -20.24733,0 0,43.3329 -31.03311,0 z m 31.03311,-70.39225 28.38407,0 q 5.48758,0 9.46135,-5.1092 3.97377,-5.2983 3.97377,-13.43503 0,-8.32602 -4.54144,-13.24593 -4.54144,-4.91983 -9.83983,-4.91983 l -27.43792,0 0,36.70999 z" />
    <path
       inkscape:connector-curvature="0"
       id="path5577"
       style="font-style:normal;font-variant:normal;font-weight:800;font-stretch:normal;font-size:medium;line-height:89.99999762%;font-family:Raleway;-inkscape-font-specification:'Raleway Ultra-Bold';letter-spacing:0px;word-spacing:0px;fill:#7d7d7d;fill-opacity:1;stroke:none;stroke-width:1px;stroke-linecap:butt;stroke-linejoin:miter;stroke-opacity:1"
       d="m 800.45137,212.72479 0,27.24863 -94.42417,0 0,-134.35096 92.72107,0 0,27.24872 -61.68786,0 0,26.11321 52.98346,0 0,25.16715 -52.98346,0 0,28.57325 63.39096,0 z" />
  </g>
</svg>
