<?xml version="1.0" encoding="utf-8"?>
<!-- Generator: Adobe Illustrator 14.0.0, SVG Export Plug-In . SVG Version: 6.00 Build 43363)  -->
<!DOCTYPE svg PUBLIC "-//W3C//DTD SVG 1.1//EN" "http://www.w3.org/Graphics/SVG/1.1/DTD/svg11.dtd">
<svg version="1.1" id="Calque_1" xmlns="http://www.w3.org/2000/svg" xmlns:xlink="http://www.w3.org/1999/xlink" x="0px" y="0px"
	 width="485.976px" height="466.967px" viewBox="0 0 485.976 466.967" enable-background="new 0 0 485.976 466.967"
	 xml:space="preserve">
<g>
	<path fill="#E2007A" stroke="#E2007A" stroke-width="4.3678" stroke-linejoin="round" stroke-miterlimit="3.8637" d="
		M121.223,72.557l-11.455,53.89l-2.195,10.329c-0.24,1.13,0.269,2.196,1.137,2.381l5.108,1.085c0.868,0.185,1.767-0.582,2.007-1.712
		l13.677-64.348c0.776-3.039,3.176-5.072,5.481-4.582c2.386,0.507,3.766,3.524,3.083,6.739l-11.764,55.343
		c38.447-43.771,98.781-66.047,159.822-53.072c60.658,12.893,106.521,57.303,124.09,112.444l9.467-44.541
		c1.826-8.592,10.272-14.077,18.864-12.25l14.02,2.98c8.592,1.826,14.076,10.272,12.25,18.864l-19.028,89.522l-8.017,37.717
		l-27.84,130.977c-1.426,6.708-8.02,10.991-14.729,9.565l-5.166-1.099c-6.709-1.426-10.991-8.02-9.565-14.728l19.289-90.747
		c-33.412,65.398-107.601,102.991-182.863,86.993c-75.017-15.945-127.404-80.093-131.631-153.129l-19.144,90.066
		c-1.426,6.708-8.02,10.991-14.729,9.565l-5.137-1.092c-6.708-1.426-10.991-8.02-9.565-14.728l36.055-169.628l-7.241-1.539
		c-4.229-0.899-6.929-5.056-6.03-9.285l5.062-23.813c0.015-0.089,0.032-0.178,0.051-0.267l14.305-67.299
		c0.616-2.896,3.048-4.833,5.434-4.326c2.322,0.494,3.743,3.121,3.25,5.931l-13.781,64.833c-0.24,1.13,0.269,2.196,1.138,2.381
		l5.108,1.085c0.869,0.185,1.768-0.582,2.007-1.712l13.606-64.012c0.756-3.225,3.215-5.415,5.558-4.917
		c2.289,0.487,3.635,3.362,3.117,6.527L90.674,133.2c-0.24,1.13,0.269,2.196,1.138,2.381l5.108,1.086
		c0.869,0.185,1.767-0.583,2.008-1.713l2.202-10.343l11.455-53.891c0.661-3.108,3.13-5.217,5.515-4.71
		C120.485,66.518,121.883,69.449,121.223,72.557L121.223,72.557z"/>
	<path fill="#BDD5ED" stroke="#BDD5ED" stroke-width="4.0836" stroke-linejoin="round" stroke-miterlimit="3.8637" d="
		M45.538,219.935l29.544,42.193l5.663,8.086c0.62,0.885,1.673,1.216,2.353,0.74l4-2.8c0.68-0.476,0.729-1.58,0.109-2.465
		l-35.277-50.381c-1.583-2.468-1.442-5.405,0.362-6.669c1.868-1.308,4.811-0.328,6.573,2.189l30.34,43.331
		c-5.414-54.197,17.825-109.654,65.617-143.118c47.493-33.254,107.101-36.297,156.005-13.151l-24.418-34.874
		c-4.711-6.727-3.075-15.999,3.651-20.709l10.977-7.686c6.728-4.71,15.999-3.075,20.709,3.652l49.078,70.091l20.678,29.531
		l71.805,102.548c3.678,5.252,2.401,12.492-2.851,16.169l-4.046,2.833c-5.252,3.678-12.491,2.401-16.169-2.851l-49.749-71.05
		c23.412,64.544,1.813,139.24-57.114,180.5c-58.734,41.126-135.998,36.044-188.632-7.634l49.376,70.517
		c3.678,5.253,2.401,12.492-2.851,16.169l-4.022,2.816c-5.252,3.678-12.491,2.401-16.169-2.851l-92.994-132.81l-5.669,3.97
		c-3.312,2.318-7.875,1.514-10.193-1.797l-13.055-18.644c-0.051-0.067-0.101-0.135-0.15-0.205l-36.895-52.692
		c-1.588-2.268-1.361-5.166,0.507-6.474c1.818-1.273,4.521-0.57,6.127,1.56l35.543,50.761c0.62,0.885,1.673,1.217,2.353,0.74l4-2.8
		c0.68-0.476,0.729-1.58,0.109-2.464l-35.093-50.118c-1.723-2.573-1.653-5.651,0.182-6.935c1.792-1.255,4.616-0.342,6.45,2.03
		l35.224,50.306c0.62,0.885,1.673,1.216,2.354,0.74l3.999-2.8c0.68-0.476,0.729-1.58,0.109-2.464l-5.668-8.101L38.774,224.67
		c-1.704-2.434-1.572-5.467,0.296-6.774C40.938,216.588,43.833,217.501,45.538,219.935L45.538,219.935z"/>
	
		<path fill="#B1C800" stroke="#B1C800" stroke-width="3.3113" stroke-linecap="round" stroke-linejoin="round" stroke-miterlimit="3.8637" d="
		M112.664,173.172l10.104,40.522l1.937,7.766c0.211,0.85,0.913,1.407,1.566,1.244l3.841-0.958c0.653-0.163,1.011-0.983,0.799-1.833
		l-12.064-48.386c-0.481-2.328,0.479-4.511,2.212-4.943c1.794-0.447,3.737,1.15,4.339,3.567l10.376,41.614
		c11.649-42.597,45.353-77.822,91.251-89.266c45.611-11.373,91.615,3.644,121.908,35.374l-8.351-33.492
		c-1.61-6.46,2.321-13.004,8.781-14.614l10.542-2.629c6.461-1.611,13.004,2.321,14.614,8.781l16.784,67.315l7.071,28.361
		l24.556,98.486c1.258,5.044-1.812,10.153-6.855,11.411l-3.885,0.968c-5.045,1.258-10.153-1.812-11.411-6.856l-17.014-68.235
		c-1.031,55.658-39.085,105.923-95.678,120.034c-56.407,14.064-113.416-12.231-140.565-60.587l16.886,67.724
		c1.258,5.044-1.812,10.153-6.856,11.411l-3.863,0.963c-5.044,1.257-10.153-1.812-11.411-6.856l-31.802-127.549l-5.445,1.357
		c-3.18,0.793-6.4-1.142-7.193-4.322l-4.465-17.906c-0.019-0.065-0.037-0.131-0.054-0.199l-12.618-50.605
		c-0.543-2.177,0.471-4.305,2.265-4.752c1.746-0.436,3.587,0.882,4.185,2.961l12.155,48.75c0.212,0.85,0.913,1.407,1.566,1.244
		l3.841-0.958c0.653-0.163,1.011-0.984,0.799-1.834l-12.001-48.133c-0.556-2.448,0.391-4.758,2.153-5.197
		c1.721-0.429,3.593,1.083,4.292,3.412l12.046,48.313c0.212,0.85,0.913,1.407,1.566,1.245l3.841-0.958
		c0.653-0.163,1.011-0.984,0.799-1.834l-1.937-7.778l-10.104-40.522c-0.583-2.337,0.398-4.595,2.192-5.042
		S112.081,170.834,112.664,173.172L112.664,173.172z"/>
	
		<path fill="#FFFFFF" stroke="#FFFFFF" stroke-width="3.3113" stroke-linecap="round" stroke-linejoin="round" stroke-miterlimit="3.8637" d="
		M179.146,92.58l-14.966,38.989l-2.868,7.472c-0.314,0.818-0.059,1.676,0.569,1.917l3.695,1.419
		c0.628,0.241,1.392-0.227,1.706-1.044l17.871-46.555c0.941-2.183,2.979-3.42,4.647-2.78c1.726,0.663,2.401,3.085,1.508,5.411
		l-15.37,40.04c33.975-28.212,81.789-37.735,125.951-20.783c43.886,16.846,72.956,55.533,79.571,98.9l12.37-32.225
		c2.386-6.216,9.359-9.321,15.575-6.935l10.144,3.894c6.216,2.386,9.321,9.359,6.935,15.576l-24.862,64.769l-10.474,27.288
		l-36.375,94.76c-1.862,4.854-7.308,7.278-12.161,5.415l-3.737-1.435c-4.854-1.863-7.278-7.308-5.415-12.161l25.201-65.654
		c-32.769,45.001-92.771,64.349-147.223,43.448c-54.273-20.833-85.889-75.072-80.394-130.255l-25.013,65.162
		c-1.863,4.854-7.308,7.277-12.161,5.415l-3.716-1.427c-4.854-1.863-7.278-7.308-5.415-12.161l47.108-122.724l-5.239-2.011
		c-3.06-1.174-4.588-4.607-3.413-7.667l6.613-17.228c0.022-0.065,0.045-0.129,0.07-0.194l18.69-48.69
		c0.804-2.095,2.855-3.256,4.581-2.594c1.68,0.645,2.433,2.78,1.73,4.826l-18.005,46.906c-0.314,0.818-0.059,1.676,0.569,1.917
		l3.695,1.418c0.628,0.241,1.392-0.226,1.706-1.044l17.777-46.312c0.948-2.324,3.049-3.673,4.744-3.022
		c1.656,0.636,2.322,2.948,1.56,5.257l-17.844,46.485c-0.313,0.818-0.059,1.676,0.569,1.917l3.696,1.418
		c0.628,0.241,1.392-0.226,1.706-1.044l2.875-7.483l14.966-38.989c0.863-2.249,2.962-3.535,4.688-2.873
		C179.31,87.971,180.009,90.331,179.146,92.58L179.146,92.58z"/>
	<path fill="#B1C800" stroke="#B1C800" stroke-width="3.3113" stroke-miterlimit="3.8637" d="M352.741,253.853
		c-9.568,46.061-50.383,80.672-99.282,80.672c-28.057,0-53.451-11.394-71.81-29.807c-2.287-2.585-0.217-3.339,2.714-1.913
		c0.196,0.096,0.979,0.49,1.898,0.955c17.162,9.938,37.092,15.626,58.351,15.626c45.709,0,85.274-26.297,104.395-64.588
		c0.276-0.466,0.531-0.887,0.748-1.228C351.586,250.687,352.837,251.537,352.741,253.853L352.741,253.853z"/>
	<path fill="#379ACD" d="M173.132,261.409c-1.319-0.371-3.091-0.906-3.833-1.524c-0.206-0.166-1.03-0.907-1.03-2.432
		c0-1.648,0.783-2.803,1.73-3.462c0.99-0.701,2.392-1.031,3.958-1.031c4.575,0,5.812,2.514,6.348,3.586
		c0.165,0.33,0.577,1.236,0.701,1.401c0.412,0.618,0.866,0.701,1.319,0.701c1.112,0,2.06-0.66,2.06-1.896
		c0-1.113-1.113-3.462-2.803-4.864c-2.391-2.021-5.606-2.226-7.46-2.226c-6.678,0-9.893,3.462-9.893,8.244
		c0,4.328,2.803,5.729,3.628,6.101c0.906,0.413,2.184,0.824,3.297,1.154l3.092,0.865c2.226,0.66,4.04,1.195,5.193,2.185
		c0.619,0.494,1.525,1.566,1.525,3.215c0,1.442-0.701,2.762-1.772,3.585c-1.525,1.154-3.709,1.196-4.658,1.196
		c-1.195,0-3.338-0.083-5.111-1.36s-2.102-2.845-2.473-4.204c-0.165-0.578-0.413-1.196-1.649-1.196c-0.701,0-2.349,0.33-2.349,1.937
		c0,0.783,0.701,3.875,3.297,5.936c2.02,1.608,5.153,2.309,7.915,2.309c4.822,0,10.717-2.061,10.717-8.573
		c0-6.142-4.864-7.625-7.997-8.533L173.132,261.409L173.132,261.409z"/>
	<path fill-rule="evenodd" clip-rule="evenodd" fill="#379ACD" d="M201.619,251.146c-0.288-0.742-0.659-1.278-2.267-1.278
		c-1.608,0-2.02,0.371-2.35,1.278l-9.521,25.845c-0.083,0.247-0.166,0.494-0.166,0.7c0,0.783,0.66,1.772,2.061,1.772
		c1.072,0,1.525-0.659,1.69-1.195l2.804-7.874h10.964l2.886,7.874c0.206,0.536,0.577,1.195,1.69,1.195
		c1.03,0,1.978-0.659,1.978-1.731c0-0.248-0.082-0.495-0.123-0.742L201.619,251.146L201.619,251.146z M195.065,267.056l4.246-11.748
		l4.287,11.748H195.065L195.065,267.056z"/>
	<path fill="#379ACD" d="M237.758,251.64c0-0.536-0.165-1.772-1.854-1.772c-1.772,0-1.938,1.154-1.938,1.772l0.083,15.169
		c0.042,1.112,0.042,2.267,0.083,3.38c0.041,1.937,0.083,2.432,0.206,3.75c-0.454-1.072-0.989-2.391-2.762-4.987l-12.242-18.219
		c-0.289-0.413-0.783-0.907-1.896-0.907c-0.33,0-1.566,0.041-2.102,0.741c-0.33,0.371-0.33,0.784-0.33,1.237v25.845
		c0,0.618,0.165,1.813,1.979,1.813c1.731,0,1.896-1.277,1.896-1.813l-0.083-17.189c0-0.907-0.083-3.421-0.124-3.833
		c0-0.288-0.042-0.577-0.042-0.865c0.124,0.206,0.207,0.412,0.33,0.618c0.866,1.525,1.649,2.844,3.051,4.905l11.624,17.313
		c0.289,0.453,0.742,0.865,1.938,0.865c2.061,0,2.185-1.36,2.185-1.854V251.64L237.758,251.64z"/>
	<path fill="#379ACD" d="M254.112,253.578h7.214c0.453,0,1.689-0.166,1.689-1.731c0-0.907-0.495-1.401-0.865-1.608
		c-0.248-0.123-0.536-0.165-0.824-0.165H242.9c-0.453,0-1.69,0.165-1.69,1.731c0,1.607,1.196,1.772,1.69,1.772h7.296v23.987
		c0,0.578,0.165,1.898,1.938,1.898c1.813,0,1.937-1.321,1.979-1.898V253.578L254.112,253.578z"/>
	<path fill-rule="evenodd" clip-rule="evenodd" fill="#379ACD" d="M284.452,253.66c0.494,0,1.772-0.083,1.772-1.772
		c0-1.649-1.236-1.814-1.772-1.814h-15.993c-1.443,0-1.855,0.742-1.938,1.937v25.268c0.041,0.948,0.289,1.937,1.938,1.937h16.693
		c0.495,0,1.69-0.165,1.69-1.772s-1.195-1.731-1.69-1.731h-14.715v-9.687h13.314c0.494,0,1.689-0.165,1.689-1.689
		c0-1.607-1.195-1.731-1.689-1.731h-13.314v-8.944H284.452L284.452,253.66z M278.846,244.797c0.289-0.371,0.454-0.618,0.454-1.03
		c0-0.907-0.948-1.731-1.896-1.731c-0.865,0-1.195,0.495-1.401,0.865l-1.483,2.762c-0.165,0.33-0.165,0.536-0.165,0.618
		c0,0.701,0.741,1.154,1.318,1.154c0.454,0,0.783-0.248,0.948-0.413L278.846,244.797L278.846,244.797z"/>
	<path fill="#E2007A" d="M187.477,212.396c0-0.536-0.165-1.772-1.854-1.772c-1.772,0-1.938,1.154-1.938,1.772l0.083,15.169
		c0.042,1.112,0.042,2.267,0.083,3.38c0.041,1.938,0.083,2.432,0.206,3.75c-0.453-1.072-0.989-2.391-2.762-4.987l-12.242-18.219
		c-0.289-0.413-0.783-0.907-1.896-0.907c-0.33,0-1.566,0.041-2.102,0.741c-0.33,0.371-0.33,0.784-0.33,1.237v25.845
		c0,0.618,0.165,1.813,1.979,1.813c1.731,0,1.896-1.277,1.896-1.813l-0.082-17.189c0-0.907-0.083-3.421-0.124-3.833
		c0-0.288-0.042-0.577-0.042-0.865c0.124,0.206,0.207,0.412,0.33,0.618c0.866,1.525,1.649,2.844,3.051,4.905l11.624,17.312
		c0.289,0.454,0.742,0.865,1.938,0.865c2.061,0,2.185-1.36,2.185-1.854V212.396L187.477,212.396z"/>
	<path fill="#E2007A" d="M216.65,212.52c0-1.196-0.866-1.896-1.938-1.896c-0.33,0-0.659,0.083-0.948,0.248
		c-0.825,0.412-0.907,1.03-0.948,1.648v14.633c0,4.369-0.042,7.131-3.01,8.697c-1.401,0.784-2.885,0.907-3.957,0.907
		c-4.163,0-5.647-2.144-5.977-2.679c-1.154-2.144-1.154-4.41-1.154-9.191v-12.408c0-0.535-0.206-1.855-1.978-1.855
		c-1.814,0-1.979,1.278-1.979,1.855v15.993c0,3.133,0.206,6.183,2.144,8.45c1.401,1.731,4.328,3.462,9.068,3.462
		c3.916,0,8.367-1.36,9.81-5.317c0.866-2.391,0.866-4.452,0.866-6.883V212.52L216.65,212.52z"/>
	<path fill="#E2007A" d="M233.059,214.334h7.214c0.453,0,1.689-0.166,1.689-1.731c0-0.907-0.495-1.401-0.865-1.608
		c-0.248-0.123-0.536-0.165-0.824-0.165h-18.426c-0.454,0-1.69,0.165-1.69,1.731c0,1.607,1.195,1.772,1.69,1.772h7.296v23.986
		c0,0.578,0.165,1.899,1.937,1.899c1.814,0,1.938-1.321,1.979-1.899V214.334L233.059,214.334z"/>
	<path fill-rule="evenodd" clip-rule="evenodd" fill="#E2007A" d="M254.124,227.854c6.101,0,7.502,0.206,8.244,5.441
		c0.165,1.319,0.37,3.091,0.823,4.617c0.454,1.525,1.072,2.35,2.227,2.35c0.948,0,1.854-0.453,1.854-2.02
		c0-0.495-0.123-1.237-0.247-1.813c-0.247-1.236-0.247-1.36-0.494-2.762l-0.248-1.648c-0.206-1.36-0.412-2.762-1.195-3.958
		c-1.071-1.607-2.473-1.813-3.38-1.896c0.783-0.165,1.525-0.33,2.597-1.113c2.68-1.979,2.763-4.864,2.763-5.895
		c0-3.091-1.196-5.193-2.639-6.348c-2.227-1.854-5.523-1.979-8.038-1.979h-8.985c-0.494,0-1.03,0-1.484,0.494
		c-0.453,0.495-0.453,0.989-0.453,1.443v25.598c0,0.536,0.206,1.854,1.938,1.854c1.03,0,1.525-0.577,1.689-0.907
		c0.124-0.288,0.207-0.618,0.207-0.948v-10.511H254.124L254.124,227.854z M249.302,214.251h4.368c4.122,0,6.926,0.041,8.409,1.813
		c0.206,0.247,0.989,1.196,0.989,3.297c0,2.886-1.525,4.452-3.421,4.905c-1.237,0.289-3.01,0.289-4.534,0.289h-5.812V214.251
		L249.302,214.251z"/>
	<path fill="#E2007A" d="M277.704,212.52c0-0.536-0.165-1.896-1.938-1.896c-1.731,0-1.938,1.32-1.938,1.896v25.804
		c0,1.236,0.866,1.896,1.938,1.896c1.772,0,1.938-1.36,1.938-1.896V212.52L277.704,212.52z"/>
	<path fill="#E2007A" d="M307.754,212.396c0-0.536-0.164-1.772-1.854-1.772c-1.772,0-1.938,1.154-1.938,1.772l0.082,15.169
		c0.041,1.112,0.041,2.267,0.083,3.38c0.041,1.938,0.082,2.432,0.206,3.75c-0.454-1.072-0.989-2.391-2.762-4.987l-12.242-18.219
		c-0.289-0.413-0.783-0.907-1.896-0.907c-0.329,0-1.566,0.041-2.103,0.741c-0.329,0.371-0.329,0.784-0.329,1.237v25.845
		c0,0.618,0.165,1.813,1.979,1.813c1.731,0,1.896-1.277,1.896-1.813l-0.082-17.189c0-0.907-0.082-3.421-0.123-3.833
		c0-0.288-0.042-0.577-0.042-0.865c0.124,0.206,0.206,0.412,0.33,0.618c0.866,1.525,1.649,2.844,3.05,4.905l11.624,17.312
		c0.289,0.454,0.742,0.865,1.938,0.865c2.061,0,2.185-1.36,2.185-1.854V212.396L307.754,212.396z"/>
	<path fill="#E2007A" d="M332.971,214.416c0.494,0,1.772-0.082,1.772-1.772c0-1.649-1.237-1.813-1.772-1.813h-15.993
		c-1.443,0-1.854,0.742-1.938,1.937v25.268c0.041,0.948,0.289,1.937,1.938,1.937h16.693c0.495,0,1.69-0.165,1.69-1.772
		c0-1.607-1.195-1.731-1.69-1.731h-14.715v-9.687h13.313c0.494,0,1.69-0.165,1.69-1.689c0-1.607-1.196-1.731-1.69-1.731h-13.313
		v-8.945H332.971L332.971,214.416z"/>
	<path fill="#E2007A" d="M349.859,214.334h7.214c0.454,0,1.69-0.166,1.69-1.731c0-0.907-0.495-1.401-0.866-1.608
		c-0.247-0.123-0.535-0.165-0.824-0.165h-18.425c-0.454,0-1.69,0.165-1.69,1.731c0,1.607,1.195,1.772,1.69,1.772h7.296v23.986
		c0,0.578,0.164,1.899,1.937,1.899c1.814,0,1.938-1.321,1.979-1.899V214.334L349.859,214.334z"/>
	<path fill-rule="evenodd" clip-rule="evenodd" fill="#379ACD" d="M182.654,175.173c0.495,0,1.772-0.083,1.772-1.772
		c0-1.649-1.236-1.814-1.772-1.814h-15.993c-1.443,0-1.855,0.742-1.937,1.937v25.268c0.041,0.948,0.289,1.937,1.937,1.937h16.694
		c0.495,0,1.69-0.165,1.69-1.772c0-1.607-1.195-1.731-1.69-1.731H168.64v-9.687h13.313c0.495,0,1.69-0.165,1.69-1.689
		c0-1.607-1.195-1.731-1.69-1.731H168.64v-8.944H182.654L182.654,175.173z M177.048,166.31c0.289-0.371,0.454-0.618,0.454-1.03
		c0-0.907-0.948-1.731-1.896-1.731c-0.865,0-1.195,0.494-1.401,0.866l-1.484,2.762c-0.165,0.33-0.165,0.536-0.165,0.618
		c0,0.701,0.742,1.154,1.319,1.154c0.454,0,0.783-0.248,0.948-0.413L177.048,166.31L177.048,166.31z"/>
	<path fill="#379ACD" d="M199.544,175.09h7.213c0.454,0,1.69-0.166,1.69-1.731c0-0.907-0.495-1.401-0.865-1.608
		c-0.248-0.123-0.536-0.165-0.825-0.165h-18.425c-0.454,0-1.69,0.165-1.69,1.731c0,1.607,1.196,1.772,1.69,1.772h7.296v23.987
		c0,0.578,0.165,1.898,1.938,1.898c1.813,0,1.937-1.321,1.979-1.898V175.09L199.544,175.09z"/>
	<path fill="#379ACD" d="M233.84,173.276c0-1.196-0.866-1.896-1.938-1.896c-0.329,0-0.659,0.083-0.948,0.248
		c-0.824,0.412-0.907,1.03-0.948,1.648v14.633c0,4.369-0.042,7.131-3.009,8.697c-1.401,0.784-2.885,0.907-3.957,0.907
		c-4.163,0-5.647-2.144-5.977-2.679c-1.154-2.144-1.154-4.41-1.154-9.192v-12.407c0-0.535-0.206-1.855-1.979-1.855
		c-1.813,0-1.979,1.278-1.979,1.855v15.993c0,3.133,0.206,6.183,2.144,8.45c1.401,1.731,4.328,3.462,9.068,3.462
		c3.916,0,8.367-1.36,9.81-5.317c0.866-2.391,0.866-4.452,0.866-6.883V173.276L233.84,173.276z"/>
	<path fill-rule="evenodd" clip-rule="evenodd" fill="#379ACD" d="M249.671,200.729c3.545,0,8.244-0.124,11.624-3.504
		c2.268-2.309,3.751-6.265,3.751-11.376c0-3.257-0.618-7.667-3.545-10.758c-3.091-3.257-7.131-3.504-10.923-3.504h-7.461
		c-1.401,0-1.937,0.701-1.937,1.937v25.268c0,1.854,1.401,1.937,1.937,1.937H249.671L249.671,200.729z M245.096,175.049h3.545
		c1.154,0,2.762,0,3.463,0.042c2.349,0.165,5.564,0.618,7.502,4.081c1.154,2.061,1.483,4.575,1.483,6.678
		c0,1.772-0.247,4.987-1.648,7.377c-2.309,3.958-5.854,4.04-11.418,4.04h-2.927V175.049L245.096,175.049z"/>
	<path fill="#379ACD" d="M288.284,175.173c0.494,0,1.772-0.083,1.772-1.772c0-1.649-1.236-1.814-1.772-1.814h-15.993
		c-1.442,0-1.854,0.742-1.938,1.937v25.268c0.041,0.948,0.289,1.937,1.938,1.937h16.693c0.495,0,1.69-0.165,1.69-1.772
		c0-1.607-1.195-1.731-1.69-1.731H274.27v-9.687h13.314c0.494,0,1.689-0.165,1.689-1.689c0-1.607-1.195-1.731-1.689-1.731H274.27
		v-8.944H288.284L288.284,175.173z"/>
	<path fill="#E2007A" stroke="#E2007A" stroke-width="2.0628" stroke-linejoin="round" stroke-miterlimit="3.8637" d="
		M199.014,633.942l-5.41,25.453l-1.037,4.879c-0.114,0.533,0.127,1.037,0.537,1.124l2.413,0.513c0.41,0.088,0.835-0.274,0.948-0.809
		l6.46-30.393c0.366-1.436,1.5-2.396,2.589-2.165c1.126,0.24,1.778,1.665,1.456,3.184l-5.556,26.14
		c18.16-20.674,46.657-31.195,75.487-25.067c28.65,6.09,50.313,27.065,58.61,53.109l4.472-21.037
		c0.863-4.059,4.852-6.649,8.91-5.786l6.621,1.407c4.059,0.862,6.649,4.852,5.786,8.909l-8.987,42.284l-3.786,17.814l-13.149,61.862
		c-0.674,3.169-3.788,5.191-6.957,4.519l-2.439-0.52c-3.169-0.673-5.191-3.787-4.518-6.956l9.109-42.861
		c-15.78,30.889-50.821,48.645-86.369,41.089c-35.432-7.531-60.176-37.83-62.172-72.326l-9.042,42.54
		c-0.673,3.169-3.788,5.191-6.957,4.518l-2.426-0.516c-3.168-0.674-5.191-3.788-4.518-6.957l17.029-80.118l-3.419-0.727
		c-1.998-0.425-3.273-2.389-2.848-4.386l2.391-11.247c0.007-0.042,0.015-0.084,0.024-0.126l6.756-31.787
		c0.291-1.368,1.44-2.282,2.566-2.043c1.097,0.233,1.768,1.474,1.535,2.801l-6.509,30.622c-0.114,0.534,0.127,1.038,0.537,1.125
		l2.413,0.513c0.41,0.087,0.835-0.275,0.948-0.809l6.426-30.234c0.357-1.523,1.519-2.558,2.625-2.322
		c1.081,0.229,1.717,1.588,1.472,3.083l-6.45,30.347c-0.113,0.534,0.127,1.038,0.537,1.125l2.413,0.513
		c0.41,0.087,0.835-0.275,0.949-0.809l1.04-4.886l5.41-25.453c0.313-1.469,1.479-2.465,2.605-2.225
		C198.665,631.09,199.326,632.474,199.014,633.942L199.014,633.942z"/>
	<path fill="#BDD5ED" stroke="#BDD5ED" stroke-width="1.9286" stroke-linejoin="round" stroke-miterlimit="3.8637" d="
		M163.266,703.552l13.954,19.929l2.675,3.819c0.292,0.418,0.79,0.574,1.112,0.35l1.888-1.322c0.321-0.226,0.344-0.746,0.052-1.164
		l-16.662-23.797c-0.748-1.165-0.682-2.553,0.171-3.149c0.882-0.618,2.272-0.155,3.104,1.033l14.331,20.467
		c-2.557-25.599,8.419-51.792,30.992-67.598c22.432-15.707,50.585-17.144,73.685-6.212l-11.534-16.471
		c-2.225-3.178-1.452-7.557,1.726-9.782l5.184-3.63c3.178-2.225,7.557-1.452,9.782,1.725l23.181,33.106l9.767,13.947l33.914,48.436
		c1.737,2.48,1.135,5.9-1.347,7.637l-1.91,1.338c-2.481,1.737-5.9,1.135-7.638-1.347l-23.497-33.558
		c11.059,30.485,0.856,65.766-26.977,85.254c-27.741,19.425-64.234,17.024-89.095-3.605l23.322,33.307
		c1.737,2.48,1.134,5.899-1.347,7.637l-1.9,1.33c-2.48,1.737-5.9,1.135-7.637-1.347l-43.923-62.729l-2.678,1.875
		c-1.563,1.095-3.719,0.715-4.814-0.849l-6.166-8.807c-0.024-0.031-0.048-0.063-0.071-0.097l-17.427-24.888
		c-0.75-1.07-0.642-2.439,0.24-3.058c0.858-0.601,2.135-0.269,2.894,0.737l16.788,23.976c0.293,0.418,0.791,0.574,1.111,0.35
		l1.889-1.323c0.321-0.225,0.344-0.746,0.052-1.164l-16.575-23.671c-0.813-1.216-0.781-2.67,0.085-3.276
		c0.847-0.593,2.181-0.161,3.047,0.959l16.637,23.761c0.292,0.418,0.79,0.574,1.111,0.35l1.889-1.323
		c0.321-0.225,0.344-0.745,0.051-1.164l-2.677-3.825l-13.955-19.93c-0.805-1.149-0.742-2.582,0.14-3.199
		C161.094,701.971,162.461,702.402,163.266,703.552L163.266,703.552z"/>
	
		<path fill="#B1C800" stroke="#B1C800" stroke-width="1.5638" stroke-linecap="round" stroke-linejoin="round" stroke-miterlimit="3.8637" d="
		M194.971,681.465l4.772,19.139l0.915,3.669c0.1,0.401,0.432,0.664,0.74,0.587l1.814-0.452c0.308-0.077,0.477-0.465,0.377-0.866
		l-5.698-22.854c-0.227-1.1,0.226-2.131,1.045-2.335c0.847-0.211,1.765,0.543,2.049,1.686l4.901,19.655
		c5.502-20.12,21.421-36.758,43.101-42.163c21.543-5.371,43.271,1.722,57.579,16.708l-3.944-15.819
		c-0.761-3.051,1.096-6.142,4.147-6.902l4.979-1.241c3.052-0.762,6.142,1.096,6.902,4.147l7.928,31.794l3.34,13.396l11.599,46.517
		c0.594,2.383-0.856,4.796-3.238,5.39l-1.835,0.458c-2.383,0.594-4.796-0.856-5.39-3.238l-8.036-32.229
		c-0.487,26.289-18.46,50.03-45.19,56.694c-26.643,6.644-53.568-5.776-66.392-28.616l7.976,31.987
		c0.594,2.383-0.856,4.796-3.238,5.39l-1.825,0.455c-2.382,0.594-4.795-0.855-5.389-3.238l-15.021-60.244l-2.572,0.642
		c-1.502,0.374-3.023-0.54-3.397-2.042l-2.109-8.457c-0.009-0.031-0.018-0.063-0.025-0.094l-5.959-23.902
		c-0.257-1.028,0.222-2.033,1.069-2.244c0.825-0.206,1.694,0.416,1.977,1.398l5.741,23.025c0.1,0.401,0.431,0.665,0.74,0.588
		l1.814-0.452c0.309-0.077,0.478-0.465,0.377-0.866l-5.668-22.734c-0.263-1.156,0.185-2.247,1.017-2.454
		c0.813-0.203,1.697,0.511,2.028,1.61l5.69,22.819c0.1,0.401,0.431,0.665,0.739,0.588l1.814-0.452
		c0.309-0.077,0.478-0.465,0.377-0.866l-0.915-3.674l-4.772-19.14c-0.275-1.104,0.188-2.17,1.036-2.381
		C193.786,679.637,194.696,680.36,194.971,681.465L194.971,681.465z"/>
	
		<path fill="#FFFFFF" stroke="#FFFFFF" stroke-width="1.5638" stroke-linecap="round" stroke-linejoin="round" stroke-miterlimit="3.8637" d="
		M226.372,643.399l-7.069,18.415l-1.355,3.529c-0.148,0.387-0.027,0.792,0.269,0.906l1.746,0.67
		c0.297,0.113,0.657-0.107,0.806-0.493l8.441-21.989c0.444-1.031,1.407-1.615,2.195-1.313c0.815,0.313,1.134,1.457,0.712,2.556
		l-7.259,18.912c16.047-13.325,38.63-17.823,59.489-9.816c20.728,7.956,34.458,26.229,37.583,46.713l5.843-15.221
		c1.127-2.937,4.42-4.402,7.356-3.275l4.791,1.839c2.936,1.127,4.402,4.421,3.275,7.356l-11.743,30.592l-4.947,12.889
		l-17.181,44.757c-0.88,2.292-3.451,3.438-5.743,2.558l-1.766-0.678c-2.293-0.88-3.438-3.452-2.558-5.744l11.903-31.01
		c-15.478,21.255-43.818,30.394-69.537,20.521c-25.634-9.84-40.566-35.458-37.971-61.522l-11.814,30.777
		c-0.88,2.292-3.452,3.438-5.744,2.558l-1.755-0.674c-2.292-0.88-3.438-3.452-2.558-5.744l22.25-57.965l-2.474-0.95
		c-1.445-0.555-2.167-2.176-1.612-3.62l3.124-8.138c0.01-0.03,0.021-0.062,0.033-0.092l8.828-22.997
		c0.38-0.99,1.349-1.538,2.164-1.226c0.793,0.305,1.149,1.313,0.817,2.279l-8.504,22.155c-0.148,0.386-0.028,0.791,0.269,0.905
		l1.746,0.67c0.297,0.114,0.658-0.106,0.806-0.493l8.396-21.874c0.448-1.098,1.44-1.734,2.241-1.428
		c0.782,0.301,1.097,1.393,0.737,2.483l-8.428,21.955c-0.148,0.387-0.028,0.792,0.269,0.906l1.746,0.67
		c0.297,0.114,0.658-0.107,0.806-0.493l1.358-3.534l7.069-18.415c0.408-1.063,1.399-1.67,2.214-1.357
		C226.449,641.223,226.78,642.337,226.372,643.399L226.372,643.399z"/>
	<path fill="#B1C800" stroke="#B1C800" stroke-width="1.5638" stroke-miterlimit="3.8637" d="M308.364,719.572
		c-4.519,21.756-23.797,38.103-46.893,38.103c-13.252,0-25.246-5.381-33.917-14.078c-1.08-1.221-0.103-1.577,1.282-0.903
		c0.092,0.045,0.462,0.231,0.897,0.451c8.105,4.693,17.519,7.38,27.56,7.38c21.59,0,40.277-12.421,49.308-30.506
		c0.131-0.221,0.251-0.419,0.354-0.58C307.819,718.076,308.41,718.479,308.364,719.572L308.364,719.572z"/>
	<path fill="#379ACD" d="M223.494,723.159c-0.623-0.175-1.46-0.428-1.811-0.72c-0.097-0.078-0.486-0.429-0.486-1.149
		c0-0.778,0.37-1.323,0.817-1.635c0.467-0.331,1.129-0.486,1.869-0.486c2.161,0,2.745,1.188,2.998,1.693
		c0.078,0.155,0.273,0.584,0.332,0.662c0.194,0.292,0.409,0.331,0.623,0.331c0.525,0,0.973-0.312,0.973-0.896
		c0-0.526-0.525-1.636-1.323-2.298c-1.129-0.954-2.648-1.051-3.524-1.051c-3.154,0-4.672,1.635-4.672,3.894
		c0,2.044,1.324,2.706,1.713,2.881c0.428,0.195,1.032,0.39,1.557,0.545l1.46,0.409c1.051,0.312,1.908,0.564,2.453,1.032
		c0.292,0.233,0.721,0.739,0.721,1.519c0,0.681-0.331,1.304-0.837,1.693c-0.72,0.545-1.752,0.564-2.2,0.564
		c-0.564,0-1.577-0.039-2.414-0.643c-0.837-0.604-0.993-1.343-1.168-1.985c-0.078-0.272-0.195-0.564-0.779-0.564
		c-0.331,0-1.109,0.155-1.109,0.914c0,0.37,0.331,1.831,1.558,2.804c0.954,0.76,2.434,1.091,3.738,1.091
		c2.278,0,5.062-0.974,5.062-4.05c0-2.9-2.297-3.602-3.776-4.029L223.494,723.159L223.494,723.159z"/>
	<path fill-rule="evenodd" clip-rule="evenodd" fill="#379ACD" d="M236.948,718.312c-0.136-0.351-0.311-0.604-1.07-0.604
		s-0.954,0.176-1.11,0.604l-4.497,12.207c-0.039,0.116-0.078,0.233-0.078,0.331c0,0.369,0.312,0.837,0.974,0.837
		c0.506,0,0.72-0.312,0.798-0.564l1.324-3.719h5.178l1.363,3.719c0.098,0.253,0.272,0.564,0.799,0.564
		c0.486,0,0.934-0.312,0.934-0.817c0-0.117-0.038-0.234-0.058-0.351L236.948,718.312L236.948,718.312z M233.853,725.826l2.005-5.548
		l2.025,5.548H233.853L233.853,725.826z"/>
	<path fill="#379ACD" d="M254.017,718.545c0-0.253-0.078-0.837-0.876-0.837c-0.837,0-0.915,0.545-0.915,0.837l0.039,7.165
		c0.02,0.525,0.02,1.07,0.039,1.597c0.02,0.914,0.039,1.148,0.097,1.771c-0.214-0.506-0.467-1.129-1.304-2.354l-5.782-8.605
		c-0.137-0.194-0.37-0.429-0.896-0.429c-0.156,0-0.74,0.02-0.993,0.351c-0.155,0.176-0.155,0.37-0.155,0.584v12.207
		c0,0.292,0.077,0.856,0.935,0.856c0.817,0,0.895-0.604,0.895-0.856l-0.038-8.118c0-0.429-0.039-1.616-0.059-1.811
		c0-0.137-0.02-0.272-0.02-0.409c0.059,0.098,0.098,0.194,0.155,0.292c0.409,0.721,0.779,1.344,1.441,2.316l5.489,8.177
		c0.137,0.215,0.351,0.409,0.915,0.409c0.974,0,1.032-0.643,1.032-0.876V718.545L254.017,718.545z"/>
	<path fill="#379ACD" d="M261.741,719.461h3.406c0.215,0,0.799-0.078,0.799-0.818c0-0.428-0.234-0.662-0.409-0.759
		c-0.117-0.059-0.253-0.078-0.39-0.078h-8.702c-0.214,0-0.798,0.078-0.798,0.817c0,0.76,0.564,0.838,0.798,0.838h3.446v11.329
		c0,0.272,0.077,0.896,0.915,0.896c0.856,0,0.914-0.624,0.935-0.896V719.461L261.741,719.461z"/>
	<path fill-rule="evenodd" clip-rule="evenodd" fill="#379ACD" d="M276.07,719.499c0.233,0,0.837-0.038,0.837-0.837
		c0-0.778-0.584-0.856-0.837-0.856h-7.554c-0.682,0-0.876,0.351-0.915,0.915v11.934c0.02,0.448,0.137,0.915,0.915,0.915h7.885
		c0.233,0,0.798-0.077,0.798-0.837c0-0.759-0.564-0.817-0.798-0.817h-6.95v-4.575h6.288c0.233,0,0.799-0.078,0.799-0.798
		c0-0.76-0.565-0.818-0.799-0.818h-6.288v-4.225H276.07L276.07,719.499z M273.423,715.313c0.136-0.175,0.214-0.292,0.214-0.486
		c0-0.429-0.447-0.817-0.896-0.817c-0.409,0-0.564,0.233-0.662,0.408l-0.7,1.305c-0.078,0.155-0.078,0.253-0.078,0.292
		c0,0.331,0.351,0.545,0.623,0.545c0.214,0,0.37-0.116,0.447-0.194L273.423,715.313L273.423,715.313z"/>
	<path fill="#E2007A" d="M230.269,700.011c0-0.254-0.078-0.838-0.876-0.838c-0.837,0-0.915,0.546-0.915,0.838l0.039,7.164
		c0.02,0.525,0.02,1.07,0.039,1.597c0.02,0.915,0.039,1.148,0.097,1.771c-0.214-0.507-0.467-1.13-1.304-2.355l-5.782-8.605
		c-0.136-0.194-0.37-0.428-0.896-0.428c-0.156,0-0.74,0.019-0.993,0.35c-0.156,0.176-0.156,0.37-0.156,0.585v12.206
		c0,0.292,0.078,0.856,0.935,0.856c0.817,0,0.895-0.604,0.895-0.856l-0.039-8.118c0-0.429-0.039-1.616-0.059-1.811
		c0-0.136-0.02-0.272-0.02-0.409c0.059,0.098,0.098,0.195,0.156,0.292c0.409,0.721,0.779,1.344,1.441,2.317l5.49,8.177
		c0.136,0.214,0.351,0.408,0.915,0.408c0.974,0,1.032-0.643,1.032-0.876V700.011L230.269,700.011z"/>
	<path fill="#E2007A" d="M244.048,700.069c0-0.565-0.409-0.896-0.915-0.896c-0.156,0-0.312,0.039-0.448,0.117
		c-0.39,0.195-0.428,0.486-0.447,0.779v6.911c0,2.063-0.02,3.367-1.422,4.107c-0.662,0.37-1.362,0.429-1.869,0.429
		c-1.966,0-2.667-1.013-2.823-1.266c-0.545-1.013-0.545-2.083-0.545-4.342v-5.86c0-0.252-0.097-0.876-0.934-0.876
		c-0.857,0-0.935,0.604-0.935,0.876v7.554c0,1.48,0.097,2.921,1.012,3.991c0.662,0.818,2.044,1.636,4.283,1.636
		c1.849,0,3.952-0.643,4.633-2.512c0.409-1.129,0.409-2.103,0.409-3.251V700.069L244.048,700.069z"/>
	<path fill="#E2007A" d="M251.797,700.926h3.407c0.214,0,0.798-0.078,0.798-0.818c0-0.428-0.233-0.661-0.408-0.759
		c-0.117-0.059-0.253-0.078-0.39-0.078h-8.702c-0.215,0-0.799,0.078-0.799,0.818c0,0.759,0.565,0.837,0.799,0.837h3.445v11.329
		c0,0.272,0.078,0.896,0.915,0.896c0.856,0,0.915-0.624,0.935-0.896V700.926L251.797,700.926z"/>
	<path fill-rule="evenodd" clip-rule="evenodd" fill="#E2007A" d="M261.746,707.311c2.882,0,3.543,0.098,3.895,2.57
		c0.077,0.623,0.175,1.46,0.389,2.181c0.214,0.72,0.506,1.109,1.051,1.109c0.448,0,0.877-0.214,0.877-0.954
		c0-0.233-0.059-0.584-0.117-0.856c-0.117-0.584-0.117-0.643-0.233-1.305l-0.117-0.778c-0.097-0.643-0.194-1.305-0.564-1.869
		c-0.506-0.759-1.168-0.856-1.597-0.896c0.37-0.078,0.721-0.155,1.227-0.525c1.266-0.935,1.305-2.297,1.305-2.784
		c0-1.46-0.564-2.453-1.246-2.998c-1.052-0.876-2.608-0.935-3.796-0.935h-4.244c-0.233,0-0.487,0-0.701,0.233
		c-0.214,0.234-0.214,0.468-0.214,0.682v12.09c0,0.253,0.097,0.876,0.915,0.876c0.486,0,0.72-0.272,0.798-0.429
		c0.059-0.136,0.098-0.292,0.098-0.447v-4.965H261.746L261.746,707.311z M259.469,700.887h2.063c1.946,0,3.271,0.02,3.972,0.856
		c0.097,0.117,0.467,0.564,0.467,1.558c0,1.362-0.72,2.103-1.616,2.316c-0.584,0.137-1.421,0.137-2.141,0.137h-2.745V700.887
		L259.469,700.887z"/>
	<path fill="#E2007A" d="M272.883,700.069c0-0.254-0.077-0.896-0.914-0.896c-0.818,0-0.915,0.624-0.915,0.896v12.187
		c0,0.584,0.408,0.896,0.915,0.896c0.837,0,0.914-0.643,0.914-0.896V700.069L272.883,700.069z"/>
	<path fill="#E2007A" d="M287.076,700.011c0-0.254-0.078-0.838-0.876-0.838c-0.837,0-0.915,0.546-0.915,0.838l0.039,7.164
		c0.02,0.525,0.02,1.07,0.039,1.597c0.02,0.915,0.039,1.148,0.097,1.771c-0.214-0.507-0.467-1.13-1.304-2.355l-5.782-8.605
		c-0.137-0.194-0.37-0.428-0.896-0.428c-0.156,0-0.74,0.019-0.993,0.35c-0.155,0.176-0.155,0.37-0.155,0.585v12.206
		c0,0.292,0.077,0.856,0.935,0.856c0.817,0,0.895-0.604,0.895-0.856l-0.038-8.118c0-0.429-0.039-1.616-0.059-1.811
		c0-0.136-0.02-0.272-0.02-0.409c0.059,0.098,0.098,0.195,0.155,0.292c0.409,0.721,0.779,1.344,1.441,2.317l5.489,8.177
		c0.137,0.214,0.351,0.408,0.915,0.408c0.974,0,1.032-0.643,1.032-0.876V700.011L287.076,700.011z"/>
	<path fill="#E2007A" d="M298.986,700.965c0.233,0,0.837-0.039,0.837-0.838c0-0.778-0.584-0.856-0.837-0.856h-7.554
		c-0.682,0-0.876,0.351-0.915,0.915v11.935c0.02,0.447,0.136,0.914,0.915,0.914h7.884c0.234,0,0.799-0.077,0.799-0.837
		c0-0.759-0.564-0.817-0.799-0.817h-6.949v-4.575h6.288c0.233,0,0.798-0.078,0.798-0.798c0-0.76-0.564-0.817-0.798-0.817h-6.288
		v-4.225H298.986L298.986,700.965z"/>
	<path fill="#E2007A" d="M306.963,700.926h3.407c0.214,0,0.798-0.078,0.798-0.818c0-0.428-0.233-0.661-0.408-0.759
		c-0.117-0.059-0.254-0.078-0.39-0.078h-8.702c-0.215,0-0.799,0.078-0.799,0.818c0,0.759,0.564,0.837,0.799,0.837h3.445v11.329
		c0,0.272,0.078,0.896,0.915,0.896c0.856,0,0.915-0.624,0.935-0.896V700.926L306.963,700.926z"/>
	<path fill-rule="evenodd" clip-rule="evenodd" fill="#379ACD" d="M227.991,682.43c0.234,0,0.837-0.039,0.837-0.837
		c0-0.779-0.584-0.857-0.837-0.857h-7.553c-0.682,0-0.876,0.351-0.915,0.915v11.935c0.019,0.447,0.136,0.915,0.915,0.915h7.884
		c0.234,0,0.798-0.078,0.798-0.838c0-0.759-0.564-0.817-0.798-0.817h-6.95v-4.575h6.288c0.233,0,0.798-0.077,0.798-0.798
		c0-0.759-0.564-0.817-0.798-0.817h-6.288v-4.225H227.991L227.991,682.43z M225.343,678.243c0.136-0.175,0.214-0.291,0.214-0.486
		c0-0.428-0.447-0.817-0.896-0.817c-0.409,0-0.564,0.233-0.662,0.409l-0.701,1.304c-0.078,0.156-0.078,0.254-0.078,0.292
		c0,0.331,0.35,0.546,0.623,0.546c0.214,0,0.37-0.117,0.448-0.195L225.343,678.243L225.343,678.243z"/>
	<path fill="#379ACD" d="M235.968,682.391h3.407c0.214,0,0.798-0.078,0.798-0.817c0-0.429-0.233-0.662-0.408-0.76
		c-0.117-0.059-0.253-0.078-0.39-0.078h-8.703c-0.214,0-0.798,0.078-0.798,0.818c0,0.759,0.565,0.837,0.798,0.837h3.446v11.329
		c0,0.272,0.078,0.896,0.915,0.896c0.857,0,0.915-0.624,0.935-0.896V682.391L235.968,682.391z"/>
	<path fill="#379ACD" d="M252.166,681.534c0-0.565-0.408-0.896-0.915-0.896c-0.155,0-0.311,0.038-0.447,0.116
		c-0.39,0.195-0.429,0.487-0.447,0.779v6.911c0,2.063-0.021,3.368-1.422,4.107c-0.662,0.37-1.362,0.429-1.869,0.429
		c-1.966,0-2.667-1.013-2.822-1.266c-0.546-1.013-0.546-2.083-0.546-4.342v-5.859c0-0.253-0.097-0.876-0.934-0.876
		c-0.857,0-0.935,0.604-0.935,0.876v7.554c0,1.479,0.097,2.92,1.012,3.99c0.662,0.818,2.045,1.636,4.283,1.636
		c1.85,0,3.952-0.643,4.634-2.512c0.408-1.129,0.408-2.103,0.408-3.251V681.534L252.166,681.534z"/>
	<path fill-rule="evenodd" clip-rule="evenodd" fill="#379ACD" d="M259.644,694.5c1.674,0,3.894-0.059,5.489-1.655
		c1.071-1.09,1.772-2.959,1.772-5.373c0-1.538-0.292-3.621-1.675-5.081c-1.46-1.538-3.368-1.655-5.159-1.655h-3.523
		c-0.662,0-0.915,0.331-0.915,0.915v11.935c0,0.876,0.662,0.915,0.915,0.915H259.644L259.644,694.5z M257.482,682.371h1.674
		c0.546,0,1.305,0,1.636,0.02c1.109,0.078,2.628,0.292,3.543,1.928c0.545,0.973,0.701,2.16,0.701,3.153
		c0,0.837-0.117,2.355-0.779,3.484c-1.09,1.869-2.764,1.908-5.393,1.908h-1.382V682.371L257.482,682.371z"/>
	<path fill="#379ACD" d="M277.881,682.43c0.233,0,0.837-0.039,0.837-0.837c0-0.779-0.584-0.857-0.837-0.857h-7.554
		c-0.682,0-0.876,0.351-0.915,0.915v11.935c0.02,0.447,0.136,0.915,0.915,0.915h7.884c0.234,0,0.799-0.078,0.799-0.838
		c0-0.759-0.564-0.817-0.799-0.817h-6.949v-4.575h6.288c0.233,0,0.798-0.077,0.798-0.798c0-0.759-0.564-0.817-0.798-0.817h-6.288
		v-4.225H277.881L277.881,682.43z"/>
</g>
</svg>
