<svg xmlns="http://www.w3.org/2000/svg" width="240" height="130" viewBox="0 0 744.09449 1052.3622"><path d="M-419.315 0H1163.41c99.748 0 180.05 80.302 180.05 180.05v632.48c0 99.748-80.302 180.05-180.05 180.05H-419.315c-99.747 0-180.049-80.302-180.049-180.05V180.05C-599.364 80.301-519.062 0-419.314 0z" fill="#fff" fill-rule="evenodd"/><path d="M-308.515 357.79h363.03v586.315h-363.03z" fill="#038141" fill-rule="evenodd"/><path d="M748.698 357.79h363.03v586.315h-363.03z" fill="#e63e11" fill-rule="evenodd"/><path d="M-382.381 357.79h90.647c75.45 0 136.192 60.742 136.192 136.192v313.932c0 75.45-60.742 136.191-136.192 136.191h-90.647c-75.45 0-136.191-60.741-136.191-136.19V493.981c0-75.45 60.74-136.191 136.19-136.191z" fill="#038141" fill-rule="evenodd"/><path d="M570.957 357.79h363.03v586.315h-363.03z" fill="#ee8100" fill-rule="evenodd"/><path style="line-height:89.99999762%;-inkscape-font-specification:'Raleway Ultra-Bold'" d="M659.561 779.804V514.002h99.208q32.945 0 57.653 10.482 24.708 10.483 41.18 28.452 16.847 17.97 25.083 42.304 8.61 23.96 8.61 51.289 0 30.324-9.359 55.032-9.358 24.334-26.954 41.93-17.221 17.22-41.93 26.954-24.333 9.36-54.283 9.36h-99.208zM828.776 646.53q0-17.596-4.867-31.822-4.492-14.6-13.477-25.082-8.985-10.483-22.088-16.098-13.103-5.616-29.575-5.616h-37.811v157.984h37.811q16.847 0 29.95-5.99 13.103-5.99 21.713-16.472 8.985-10.857 13.477-25.083 4.867-14.6 4.867-31.821z" font-weight="800" font-family="Raleway" letter-spacing="0" word-spacing="0" fill="#fff" fill-opacity=".446"/><path d="M188.26 357.79h383.32v586.315H188.26z" fill="#fecb02" fill-rule="evenodd"/><path d="M206.865 357.79h-363.03v586.315h363.03z" fill="#85bb2f" fill-rule="evenodd"/><path style="line-height:89.99999762%;-inkscape-font-specification:'Raleway Ultra-Bold'" d="M258.811 653.89q0-23.96 8.985-47.545 8.985-23.96 26.206-42.678 17.22-18.718 41.93-30.324 24.708-11.605 56.155-11.605 37.437 0 64.765 16.098 27.704 16.098 41.181 41.929l-47.17 32.944q-4.493-10.482-11.606-17.22-6.739-7.114-14.975-11.232-8.236-4.492-16.846-5.99-8.61-1.871-16.847-1.871-17.595 0-30.698 7.113-13.103 7.113-21.714 18.344-8.61 11.23-12.728 25.457-4.118 14.226-4.118 28.826 0 15.724 4.867 30.324 4.866 14.6 13.851 25.832 9.36 11.23 22.088 17.97 13.103 6.364 29.2 6.364 8.237 0 16.847-1.872 8.985-2.246 16.847-6.364 8.236-4.493 14.975-11.232 6.738-7.113 10.857-17.22l50.165 29.575q-5.99 14.6-17.97 26.206-11.605 11.605-26.954 19.467-15.35 7.862-32.57 11.98-17.221 4.118-33.694 4.118-28.826 0-53.16-11.606-23.96-11.98-41.555-31.447-17.221-19.467-26.955-44.175-9.359-24.709-9.359-50.166zM97.16 711.669q0 17.221-7.112 29.95-7.113 12.728-19.467 21.339-12.355 8.236-28.827 12.728-16.472 4.118-34.816 4.118h-129.532V514.002H25.282q13.852 0 25.083 5.99 11.23 5.99 19.093 15.723 7.861 9.36 11.98 21.714 4.492 11.98 4.492 24.708 0 19.093-9.734 35.94-9.36 16.846-28.452 25.457 22.837 6.738 35.94 23.96 13.477 17.22 13.477 44.175zm-62.519-12.354q0-12.354-7.113-20.965-7.113-8.61-17.97-8.61h-70.755v58.027H6.938q11.98 0 19.841-7.862 7.862-7.862 7.862-20.59zm-95.838-132.901v55.032H-.924q10.108 0 17.97-6.739 7.862-6.738 7.862-20.964 0-13.103-7.114-20.216-6.738-7.113-16.472-7.113h-62.52z" font-weight="800" font-family="Raleway" letter-spacing="0" word-spacing="0" fill="#fff" fill-opacity=".446"/><path d="M360.257 281.616h39.326c108.699 0 196.208 87.509 196.208 196.208v343.94c0 108.7-87.509 196.208-196.208 196.208h-39.326c-108.7 0-196.208-87.509-196.208-196.208v-343.94c0-108.7 87.508-196.208 196.208-196.208z" fill="#0039ff" fill-opacity=".63" fill-rule="evenodd" stroke="#fff" stroke-width="61.032" stroke-linecap="round" stroke-linejoin="round"/><path style="line-height:89.99999762%;-inkscape-font-specification:'Raleway Ultra-Bold'" d="M-384.712 514.002h55.406l96.962 265.802h-62.894l-20.59-59.524h-82.736l-20.216 59.524h-62.894l96.962-265.802zm58.776 163.974l-31.073-93.967-31.821 93.967h62.894z" font-weight="800" font-family="Raleway" letter-spacing="0" word-spacing="0" fill="#fff" fill-opacity=".446"/><path d="M1069.556 357.79h90.647c75.45 0 136.192 60.742 136.192 136.192v313.932c0 75.45-60.742 136.191-136.192 136.191h-90.647c-75.45 0-136.192-60.741-136.192-136.19V493.981c0-75.45 60.742-136.191 136.192-136.191z" fill="#e63e11" fill-rule="evenodd"/><path style="line-height:89.99999762%;-inkscape-font-specification:'Raleway Ultra-Bold'" d="M1188.707 725.895v53.91h-186.81V514.001h183.44v53.91h-122.044v51.662h104.824v49.791h-104.824v56.53h125.414z" font-weight="800" font-family="Raleway" letter-spacing="0" word-spacing="0" fill="#fff" fill-opacity=".446"/><path d="M360.257 281.616h39.326c108.699 0 196.208 87.509 196.208 196.208v343.94c0 108.7-87.509 196.208-196.208 196.208h-39.326c-108.7 0-196.208-87.509-196.208-196.208v-343.94c0-108.7 87.508-196.208 196.208-196.208z" fill="#fecb02" fill-rule="evenodd"/><path style="line-height:89.99999762%;-inkscape-font-specification:'Raleway Ultra-Bold'" d="M228.474 654.01q0-31.588 10.866-62.683 10.866-31.589 31.693-56.267 20.827-24.68 50.708-39.98 29.882-15.3 67.913-15.3 45.275 0 78.326 21.223 33.504 21.224 49.803 55.28l-57.047 43.435q-5.433-13.82-14.036-22.705-8.149-9.378-18.11-14.807-9.96-5.923-20.373-7.897-10.414-2.468-20.374-2.468-21.28 0-37.126 9.378-15.846 9.378-26.26 24.185-10.413 14.807-15.393 33.563t-4.98 38.005q0 20.73 5.886 39.98 5.885 19.25 16.751 34.057 11.32 14.807 26.713 23.691 15.846 8.39 35.315 8.39 9.96 0 20.373-2.467 10.866-2.961 20.374-8.39 9.96-5.924 18.11-14.808 8.15-9.378 13.13-22.704l60.669 38.992q-7.245 19.25-21.732 34.55-14.036 15.301-32.599 25.666-18.562 10.365-39.389 15.795-20.826 5.429-40.748 5.429-34.861 0-64.29-15.3-28.976-15.795-50.256-41.461-20.826-25.666-32.598-58.242-11.319-32.576-11.319-66.139z" font-weight="800" font-family="Raleway" letter-spacing="0" word-spacing="0" fill="#fff"/><path style="line-height:89.99999762%;-inkscape-font-specification:'Raleway Ultra-Bold'" d="M-443.389 163.148v76.826h-31.033V105.623h24.22l62.635 78.907v-78.907h31.033v134.35h-24.978l-61.877-76.825zm170.449 50.334q7.947 0 13.435-3.217 5.488-3.406 8.894-8.894 3.406-5.487 4.73-12.489 1.514-7.19 1.514-14.57v-68.69h31.033v68.69q0 14.003-3.595 26.113-3.406 12.11-10.786 21.194-7.19 9.082-18.544 14.38-11.165 5.11-26.681 5.11-16.084 0-27.438-5.488-11.354-5.487-18.544-14.57-7.002-9.272-10.408-21.383-3.216-12.11-3.216-25.356v-68.69h31.033v68.69q0 7.758 1.514 14.76 1.513 7.001 4.92 12.489 3.405 5.487 8.704 8.704 5.487 3.217 13.435 3.217zm185.838-80.611h-40.873v107.103h-31.033V132.87h-41.062v-27.248h112.968v27.248zm15.156 107.103V105.623h60.553q9.461 0 17.409 3.973 8.136 3.974 14.002 10.408 5.866 6.434 9.083 14.57 3.406 8.137 3.406 16.463 0 6.245-1.513 12.11-1.514 5.677-4.353 10.786-2.838 5.11-7.001 9.273-3.974 3.973-9.083 6.812l29.52 49.956H5.068l-25.734-43.333h-20.248v43.333h-31.033zm31.033-70.393h28.384q5.488 0 9.462-5.109 3.973-5.298 3.973-13.435 0-8.326-4.541-13.246t-9.84-4.92h-27.438v36.71zm95.734 70.393V105.623h31.033v134.35H54.821zm54.267-38.414v-27.248h58.282v27.249h-58.282zm161.981-56.578q-.568-.757-3.974-2.839-3.406-2.081-8.515-4.352-5.11-2.27-11.164-3.974-6.056-1.703-12.11-1.703-16.653 0-16.653 11.165 0 3.406 1.703 5.677 1.892 2.27 5.299 4.163 3.595 1.703 8.893 3.216 5.299 1.514 12.3 3.406 9.65 2.65 17.409 5.866 7.758 3.028 13.056 7.759 5.488 4.541 8.326 11.164 3.028 6.623 3.028 15.895 0 11.354-4.352 19.301-4.163 7.759-11.165 12.678-7 4.731-16.084 7.002-9.083 2.081-18.733 2.081-7.38 0-15.138-1.135-7.759-1.135-15.138-3.217-7.38-2.27-14.382-5.298-6.812-3.028-12.678-7.002l13.624-27.059q.757.946 4.92 3.595 4.163 2.65 10.219 5.299 6.244 2.649 13.813 4.73 7.57 2.082 15.327 2.082 16.463 0 16.463-10.03 0-3.784-2.46-6.244t-6.812-4.352q-4.352-2.081-10.407-3.784-5.866-1.703-12.868-3.785-9.272-2.838-16.084-6.055-6.812-3.406-11.354-7.759-4.352-4.352-6.623-10.029-2.081-5.676-2.081-13.245 0-10.597 3.974-18.734 3.973-8.137 10.785-13.624 6.813-5.677 15.706-8.515 9.083-2.839 19.112-2.839 7.002 0 13.814 1.325 6.812 1.324 13.056 3.406 6.245 2.081 11.543 4.73 5.488 2.65 10.03 5.299l-13.625 25.735zm28.05 26.681q0-12.11 4.541-24.032 4.542-12.11 13.246-21.572 8.705-9.461 21.194-15.327 12.488-5.866 28.384-5.866 18.922 0 32.736 8.136 14.003 8.137 20.815 21.194l-23.843 16.652q-2.27-5.299-5.866-8.705-3.406-3.595-7.569-5.676-4.163-2.271-8.515-3.028-4.352-.946-8.515-.946-8.894 0-15.517 3.595-6.623 3.596-10.975 9.272-4.352 5.677-6.434 12.868-2.081 7.19-2.081 14.57 0 7.948 2.46 15.328 2.46 7.38 7.001 13.056 4.73 5.677 11.164 9.083 6.623 3.217 14.76 3.217 4.163 0 8.515-.946 4.542-1.135 8.515-3.217 4.163-2.27 7.57-5.677 3.406-3.595 5.487-8.704l25.356 14.949q-3.027 7.38-9.082 13.246-5.866 5.866-13.625 9.84-7.758 3.973-16.462 6.055-8.705 2.081-17.03 2.081-14.571 0-26.871-5.866-12.11-6.055-21.004-15.895-8.705-9.84-13.624-22.328-4.731-12.49-4.731-25.357zm195.223 69.446q-14.95 0-27.249-5.866-12.3-5.866-21.004-15.327-8.705-9.651-13.624-21.95-4.731-12.3-4.731-25.357 0-13.246 4.92-25.546 5.109-12.3 14.003-21.572 9.082-9.46 21.382-14.948 12.3-5.677 26.87-5.677 14.95 0 27.249 5.866 12.3 5.866 21.004 15.516 8.705 9.65 13.435 21.95 4.73 12.3 4.73 24.979 0 13.245-5.108 25.545-4.92 12.3-13.814 21.761-8.893 9.272-21.193 14.95-12.3 5.676-26.87 5.676zm-35.007-68.122q0 7.759 2.27 15.138 2.271 7.191 6.623 12.868 4.542 5.677 11.165 9.083 6.623 3.406 15.138 3.406 8.894 0 15.516-3.596 6.623-3.595 10.976-9.272 4.352-5.866 6.433-13.056 2.271-7.38 2.271-14.95 0-7.757-2.27-14.948-2.271-7.38-6.813-12.867-4.541-5.677-11.164-8.894-6.434-3.406-14.95-3.406-8.893 0-15.516 3.595-6.433 3.406-10.975 9.083-4.352 5.677-6.623 13.057-2.081 7.19-2.081 14.76zm119.925 66.987V105.623h60.553q9.461 0 17.409 3.973 8.136 3.974 14.002 10.408 5.866 6.434 9.083 14.57 3.406 8.137 3.406 16.463 0 6.245-1.514 12.11-1.513 5.677-4.352 10.786-2.838 5.11-7.001 9.273-3.974 3.973-9.083 6.812l29.52 49.956h-35.008l-25.734-43.333h-20.248v43.333H579.26zm31.033-70.393h28.384q5.488 0 9.462-5.109 3.973-5.298 3.973-13.435 0-8.326-4.541-13.246t-9.84-4.92h-27.438v36.71zm190.158 43.144v27.249h-94.424V105.623h92.721v27.248H737.06v26.114h52.984v25.167H737.06v28.573h63.391z" font-weight="800" font-family="Raleway" letter-spacing="0" word-spacing="0" fill="#7d7d7d"/></svg>