<?xml version="1.0" encoding="UTF-8" standalone="no"?>
<!-- Created with Inkscape (http://www.inkscape.org/) -->

<svg
   xmlns:dc="http://purl.org/dc/elements/1.1/"
   xmlns:cc="http://creativecommons.org/ns#"
   xmlns:rdf="http://www.w3.org/1999/02/22-rdf-syntax-ns#"
   xmlns:svg="http://www.w3.org/2000/svg"
   xmlns="http://www.w3.org/2000/svg"
   xmlns:sodipodi="http://sodipodi.sourceforge.net/DTD/sodipodi-0.dtd"
   xmlns:inkscape="http://www.inkscape.org/namespaces/inkscape"
   width="240"
   height="130"
   viewBox="0 0 744.09449 1052.3622"
   id="svg4443"
   version="1.1"
   inkscape:version="0.92.3 (2405546, 2018-03-11)"
   sodipodi:docname="nutriscore-d.svg">
  <defs
     id="defs4445" />
  <sodipodi:namedview
     id="base"
     pagecolor="#ffffff"
     bordercolor="#666666"
     borderopacity="1.0"
     inkscape:pageopacity="0.0"
     inkscape:pageshadow="2"
     inkscape:zoom="2.8"
     inkscape:cx="37.365591"
     inkscape:cy="127.77365"
     inkscape:document-units="px"
     inkscape:current-layer="layer1"
     showgrid="false"
     inkscape:window-width="1920"
     inkscape:window-height="1017"
     inkscape:window-x="-8"
     inkscape:window-y="-8"
     inkscape:window-maximized="1" />
  <metadata
     id="metadata4448">
    <rdf:RDF>
      <cc:Work
         rdf:about="">
        <dc:format>image/svg+xml</dc:format>
        <dc:type
           rdf:resource="http://purl.org/dc/dcmitype/StillImage" />
        <dc:title />
      </cc:Work>
    </rdf:RDF>
  </metadata>
  <g
     inkscape:label="Calque 1"
     inkscape:groupmode="layer"
     id="layer1">
    <path
       style="opacity:1;fill:#ffffff;fill-opacity:1;fill-rule:evenodd;stroke:none;stroke-width:1;stroke-linecap:round;stroke-linejoin:round;stroke-miterlimit:4;stroke-dasharray:none;stroke-dashoffset:0;stroke-opacity:1"
       d="m -419.31459,-5.9918893e-6 1582.72369,0 c 99.7478,0 180.0493,80.3020319918893 180.0493,180.0494259918893 l 0,632.48116 c 0,99.7474 -80.3015,180.04943 -180.0493,180.04943 l -1582.72369,0 c -99.7474,0 -180.04943,-80.30203 -180.04943,-180.04943 l 0,-632.48116 c 0,-99.747394 80.30203,-180.0494259918893 180.04943,-180.0494259918893 z"
       id="rect5285"
       inkscape:connector-curvature="0" />
    <path
       style="opacity:1;fill:#038141;fill-opacity:1;fill-rule:evenodd;stroke:none;stroke-width:1;stroke-linecap:round;stroke-linejoin:round;stroke-miterlimit:4;stroke-dasharray:none;stroke-dashoffset:0;stroke-opacity:1"
       d="m -308.51495,357.79049 363.029984,0 0,586.31477 -363.029984,0 z"
       id="rect5287"
       inkscape:connector-curvature="0" />
    <path
       style="opacity:1;fill:#e63e11;fill-opacity:1;fill-rule:evenodd;stroke:none;stroke-width:1;stroke-linecap:round;stroke-linejoin:round;stroke-miterlimit:4;stroke-dasharray:none;stroke-dashoffset:0;stroke-opacity:1"
       d="m 748.69823,357.79049 363.02977,0 0,586.31477 -363.02977,0 z"
       id="rect5289"
       inkscape:connector-curvature="0" />
    <path
       style="opacity:1;fill:#038141;fill-opacity:1;fill-rule:evenodd;stroke:none;stroke-width:1;stroke-linecap:round;stroke-linejoin:round;stroke-miterlimit:4;stroke-dasharray:none;stroke-dashoffset:0;stroke-opacity:1"
       d="m -382.38116,357.79049 90.64758,0 c 75.44988,0 136.1912,60.74133 136.1912,136.1913 l 0,313.93227 c 0,75.44996 -60.74132,136.1912 -136.1912,136.1912 l -90.64758,0 c -75.44996,0 -136.1912,-60.74124 -136.1912,-136.1912 l 0,-313.93227 c 0,-75.44997 60.74124,-136.1913 136.1912,-136.1913 z"
       id="rect5291"
       inkscape:connector-curvature="0" />
    <path
       style="opacity:1;fill:#ee8100;fill-opacity:1;fill-rule:evenodd;stroke:none;stroke-width:1;stroke-linecap:round;stroke-linejoin:round;stroke-miterlimit:4;stroke-dasharray:none;stroke-dashoffset:0;stroke-opacity:1"
       d="m 570.95697,357.79049 363.0296,0 0,586.31477 -363.0296,0 z"
       id="rect5293"
       inkscape:connector-curvature="0" />
    <path
       inkscape:connector-curvature="0"
       id="path5480"
       style="font-style:normal;font-variant:normal;font-weight:800;font-stretch:normal;font-size:medium;line-height:89.99999762%;font-family:Raleway;-inkscape-font-specification:'Raleway Ultra-Bold';letter-spacing:0px;word-spacing:0px;fill:#ffffff;fill-opacity:0.44606413;stroke:none;stroke-width:1px;stroke-linecap:butt;stroke-linejoin:miter;stroke-opacity:1"
       d="m 636.60479,789.03741 0,-265.80222 99.2079,0 q 32.94453,0 57.65289,10.4823 24.70835,10.48231 41.18062,28.45211 16.84627,17.96971 25.08293,42.30368 8.61066,23.95968 8.61066,51.28864 0,30.32393 -9.35962,55.03229 -9.35962,24.33397 -26.95457,41.92939 -17.22094,17.22094 -41.92939,26.95457 -24.33397,9.35924 -54.28352,9.35924 l -99.2079,0 z M 805.8198,655.76192 q 0,-17.59543 -4.86681,-31.82139 -4.49243,-14.60043 -13.47729,-25.08273 -8.98485,-10.4824 -22.08785,-16.09789 -13.1029,-5.61558 -29.57516,-5.61558 l -37.81126,0 0,157.98385 37.81126,0 q 16.84665,0 29.94955,-5.98988 13.1029,-5.98996 21.71346,-16.47226 8.98486,-10.85669 13.47729,-25.08274 4.86681,-14.60044 4.86681,-31.82138 z" />
    <path
       style="opacity:1;fill:#fecb02;fill-opacity:1;fill-rule:evenodd;stroke:none;stroke-width:1;stroke-linecap:round;stroke-linejoin:round;stroke-miterlimit:4;stroke-dasharray:none;stroke-dashoffset:0;stroke-opacity:1"
       d="m 188.25931,357.79049 383.3209,0 0,586.31477 -383.3209,0 z"
       id="rect5299"
       inkscape:connector-curvature="0" />
    <path
       style="opacity:1;fill:#85bb2f;fill-opacity:1;fill-rule:evenodd;stroke:none;stroke-width:1;stroke-linecap:round;stroke-linejoin:round;stroke-miterlimit:4;stroke-dasharray:none;stroke-dashoffset:0;stroke-opacity:1"
       d="m 206.86512,357.79049 -363.03008,0 0,586.31477 363.03008,0 z"
       id="rect5301"
       inkscape:connector-curvature="0" />
    <path
       inkscape:connector-curvature="0"
       id="path5475"
       style="font-style:normal;font-variant:normal;font-weight:800;font-stretch:normal;font-size:medium;line-height:89.99999762%;font-family:Raleway;-inkscape-font-specification:'Raleway Ultra-Bold';letter-spacing:0px;word-spacing:0px;fill:#ffffff;fill-opacity:0.44606413;stroke:none;stroke-width:1px;stroke-linecap:butt;stroke-linejoin:miter;stroke-opacity:1"
       d="m 230.40407,642.41073 q 0,-23.95968 8.98485,-47.54488 8.98486,-23.95968 26.2059,-42.67816 17.22094,-18.71848 41.92929,-30.32394 24.70836,-11.60545 56.15545,-11.60545 37.43687,0 64.76582,16.09788 27.70334,16.09788 41.18072,41.92939 l -47.17059,32.94454 q -4.49243,-10.4824 -11.60546,-17.22104 -6.73864,-7.11303 -14.97473,-11.23107 -8.23618,-4.49243 -16.84665,-5.98987 -8.61047,-1.87183 -16.84665,-1.87183 -17.59533,0 -30.69823,7.11302 -13.10299,7.11294 -21.71346,18.3441 -8.61047,11.23107 -12.72852,25.45703 -4.11804,14.22605 -4.11804,28.82649 0,15.7235 4.86672,30.32394 4.86681,14.60034 13.85167,25.83141 9.35924,11.23107 22.08785,17.96981 13.1029,6.36426 29.20078,6.36426 8.23609,0 16.84665,-1.87183 8.98486,-2.24622 16.84656,-6.36436 8.23618,-4.49242 14.97482,-11.23107 6.73864,-7.11302 10.85669,-17.22094 l 50.16548,29.57517 q -5.98988,14.60044 -17.96972,26.2058 -11.60545,11.60545 -26.95456,19.46725 -15.34912,7.8618 -32.57015,11.97984 -17.22095,4.11804 -33.69321,4.11804 -28.8265,0 -53.16047,-11.60545 -23.95968,-11.97984 -41.555,-31.447 -17.22095,-19.46725 -26.95457,-44.1756 -9.35924,-24.70836 -9.35924,-50.16548 z" />
    <path
       inkscape:connector-curvature="0"
       id="path5472"
       style="font-style:normal;font-variant:normal;font-weight:800;font-stretch:normal;font-size:medium;line-height:89.99999762%;font-family:Raleway;-inkscape-font-specification:'Raleway Ultra-Bold';letter-spacing:0px;word-spacing:0px;fill:#ffffff;fill-opacity:0.44606413;stroke:none;stroke-width:1px;stroke-linecap:butt;stroke-linejoin:miter;stroke-opacity:1"
       d="m 135.22752,711.66898 q 0,17.22094 -7.11303,29.94955 -7.11303,12.72851 -19.46725,21.33908 -12.354132,8.23609 -28.826402,12.72851 -16.472267,4.11805 -34.816364,4.11805 H -84.527359 V 514.00195 h 147.87593 q 13.851668,0 25.082737,5.98997 11.23107,5.98987 19.092872,15.7235 7.8617,9.35924 11.97984,21.71337 4.49243,11.97984 4.49243,24.70835 0,19.09287 -9.73363,35.93952 -9.35924,16.84656 -28.452112,25.45713 22.836532,6.73864 35.939522,23.95958 13.47729,17.22104 13.47729,44.17561 z M 72.707811,699.31475 q 0,-12.35413 -7.113026,-20.96469 -7.113027,-8.61047 -17.969713,-8.61047 h -70.755788 v 58.02727 h 68.13519 q 11.979839,0 19.841541,-7.8618 7.861796,-7.8617 7.861796,-20.59031 z m -95.838527,-132.9011 v 55.03229 h 60.273393 q 10.108011,0 17.969807,-6.73865 7.861702,-6.73864 7.861702,-20.96469 0,-13.1029 -7.113027,-20.21593 -6.738642,-7.11302 -16.472268,-7.11302 z" />
    <path
       inkscape:connector-curvature="0"
       id="path5469"
       style="font-style:normal;font-variant:normal;font-weight:800;font-stretch:normal;font-size:medium;line-height:89.99999762%;font-family:Raleway;-inkscape-font-specification:'Raleway Ultra-Bold';letter-spacing:0px;word-spacing:0px;fill:#ffffff;fill-opacity:0.44606413;stroke:none;stroke-width:1px;stroke-linecap:butt;stroke-linejoin:miter;stroke-opacity:1"
       d="m -364.76076,514.00195 h 55.40668 l 96.96168,265.80222 h -62.89409 l -20.59031,-59.52472 h -82.73563 l -20.21592,59.52472 h -62.89399 z m 58.77605,163.97382 -31.07271,-93.9667 -31.82138,93.9667 z" />
    <path
       style="opacity:1;fill:#e63e11;fill-opacity:1;fill-rule:evenodd;stroke:none;stroke-width:1;stroke-linecap:round;stroke-linejoin:round;stroke-miterlimit:4;stroke-dasharray:none;stroke-dashoffset:0;stroke-opacity:1"
       d="m 1069.5559,357.79049 90.6471,0 c 75.4498,0 136.1917,60.74133 136.1917,136.1913 l 0,313.93227 c 0,75.44996 -60.7419,136.1912 -136.1917,136.1912 l -90.6471,0 c -75.44982,0 -136.19172,-60.74124 -136.19172,-136.1912 l 0,-313.93227 c 0,-75.44997 60.7419,-136.1913 136.19172,-136.1913 z"
       id="rect5315"
       inkscape:connector-curvature="0" />
    <path
       style="opacity:1;fill:#0039ff;fill-opacity:0.62973764;fill-rule:evenodd;stroke:#ffffff;stroke-width:61.03178787;stroke-linecap:round;stroke-linejoin:round;stroke-miterlimit:4;stroke-dasharray:none;stroke-dashoffset:0;stroke-opacity:1"
       d="m 732.80857,281.61583 39.3264,0 c 108.69922,0 196.20764,87.5086 196.20764,196.20764 l 0,343.94054 c 0,108.69904 -87.50842,196.20779 -196.20764,196.20779 l -39.3264,0 c -108.69914,0 -196.20774,-87.50875 -196.20774,-196.20779 l 0,-343.94054 c 0,-108.69904 87.5086,-196.20764 196.20774,-196.20764 z"
       id="rect5317"
       inkscape:connector-curvature="0" />
    <path
       inkscape:connector-curvature="0"
       id="path5464"
       style="font-style:normal;font-variant:normal;font-weight:800;font-stretch:normal;font-size:medium;line-height:89.99999762%;font-family:Raleway;-inkscape-font-specification:'Raleway Ultra-Bold';letter-spacing:0px;word-spacing:0px;fill:#ffffff;fill-opacity:0.44606413;stroke:none;stroke-width:1px;stroke-linecap:butt;stroke-linejoin:miter;stroke-opacity:1"
       d="m 1239.1291,725.89503 v 53.90914 H 1052.3183 V 514.00195 h 183.441 v 53.90924 H 1113.715 v 51.66292 h 104.823 v 49.79109 h -104.823 v 56.52983 z" />
    <path
       style="opacity:1;fill:#ee8100;fill-opacity:1;fill-rule:evenodd;stroke:none;stroke-width:15.94488144;stroke-linecap:round;stroke-linejoin:round;stroke-miterlimit:4;stroke-dasharray:none;stroke-dashoffset:0;stroke-opacity:1"
       d="m 732.80857,281.61583 39.3264,0 c 108.69922,0 196.20764,87.5086 196.20764,196.20764 l 0,343.94054 c 0,108.69904 -87.50842,196.20779 -196.20764,196.20779 l -39.3264,0 c -108.69914,0 -196.20774,-87.50875 -196.20774,-196.20779 l 0,-343.94054 c 0,-108.69904 87.5086,-196.20764 196.20774,-196.20764 z"
       id="rect5323"
       inkscape:connector-curvature="0" />
    <path
       inkscape:connector-curvature="0"
       id="path5460"
       style="font-style:normal;font-variant:normal;font-weight:800;font-stretch:normal;font-size:medium;line-height:89.99999762%;font-family:Raleway;-inkscape-font-specification:'Raleway Ultra-Bold';letter-spacing:0px;word-spacing:0px;fill:#ffffff;fill-opacity:1;stroke:none;stroke-width:1px;stroke-linecap:butt;stroke-linejoin:miter;stroke-opacity:1"
       d="M 612.3452,832.19131 V 481.75328 h 119.97912 q 39.84173,0 69.72399,13.82007 29.88131,13.82007 49.80251,37.51176 20.37324,23.6916 30.33431,55.77393 10.41311,31.58879 10.41311,67.61967 0,39.97962 -11.31815,72.55548 -11.31909,32.08233 -32.59831,55.28039 -20.82642,22.70443 -50.70859,35.53735 -29.42832,12.33938 -65.64887,12.33938 z m 204.64377,-175.7126 q 0,-23.19797 -5.88623,-41.95375 -5.43229,-19.24952 -16.29869,-33.06959 -10.86648,-13.82007 -26.71218,-21.22364 -15.84664,-7.40367 -35.76755,-7.40367 h -45.72796 v 208.28846 h 45.72796 q 20.3739,0 36.22055,-7.8972 15.84569,-7.8971 26.25918,-21.71718 10.8664,-14.31379 16.29869,-33.06958 5.88623,-19.24942 5.88623,-41.95385 z" />
    <path
       inkscape:connector-curvature="0"
       id="path5437"
       style="font-style:normal;font-variant:normal;font-weight:800;font-stretch:normal;font-size:medium;line-height:89.99999762%;font-family:Raleway;-inkscape-font-specification:'Raleway Ultra-Bold';letter-spacing:0px;word-spacing:0px;fill:#7d7d7d;fill-opacity:1;stroke:none;stroke-width:1px;stroke-linecap:butt;stroke-linejoin:miter;stroke-opacity:1"
       d="m -443.38895,163.14748 0,76.82607 -31.03321,0 0,-134.35096 24.22101,0 62.63409,78.90755 0,-78.90755 31.03312,0 0,134.35096 -24.97787,0 -61.87714,-76.82607 z" />
    <path
       inkscape:connector-curvature="0"
       id="path5439"
       style="font-style:normal;font-variant:normal;font-weight:800;font-stretch:normal;font-size:medium;line-height:89.99999762%;font-family:Raleway;-inkscape-font-specification:'Raleway Ultra-Bold';letter-spacing:0px;word-spacing:0px;fill:#7d7d7d;fill-opacity:1;stroke:none;stroke-width:1px;stroke-linecap:butt;stroke-linejoin:miter;stroke-opacity:1"
       d="m -272.9401,213.48178 q 7.94754,0 13.43512,-3.21682 5.48758,-3.4061 8.89369,-8.89368 3.4061,-5.48759 4.73063,-12.48898 1.51381,-7.19059 1.51381,-14.57047 l 0,-68.68924 31.03321,0 0,68.68924 q 0,14.0028 -3.59529,26.1133 -3.4061,12.1105 -10.78598,21.19338 -7.19059,9.08288 -18.54423,14.38127 -11.16436,5.10911 -26.68096,5.10911 -16.08428,0 -27.43783,-5.48759 -11.35364,-5.48758 -18.54423,-14.57046 -7.0014,-9.27206 -10.4075,-21.38257 -3.21682,-12.1105 -3.21682,-25.35644 l 0,-68.68924 31.03322,0 0,68.68924 q 0,7.75836 1.51381,14.75975 1.51381,7.0014 4.91982,12.48898 3.4061,5.48749 8.7045,8.7044 5.48758,3.21682 13.43503,3.21682 z" />
    <path
       inkscape:connector-curvature="0"
       id="path5441"
       style="font-style:normal;font-variant:normal;font-weight:800;font-stretch:normal;font-size:medium;line-height:89.99999762%;font-family:Raleway;-inkscape-font-specification:'Raleway Ultra-Bold';letter-spacing:0px;word-spacing:0px;fill:#7d7d7d;fill-opacity:1;stroke:none;stroke-width:1px;stroke-linecap:butt;stroke-linejoin:miter;stroke-opacity:1"
       d="m -87.101702,132.87122 -40.872948,0 0,107.10233 -31.03321,0 0,-107.10233 -41.06214,0 0,-27.24863 112.968298,0 0,27.24863 z" />
    <path
       inkscape:connector-curvature="0"
       id="path5443"
       style="font-style:normal;font-variant:normal;font-weight:800;font-stretch:normal;font-size:medium;line-height:89.99999762%;font-family:Raleway;-inkscape-font-specification:'Raleway Ultra-Bold';letter-spacing:0px;word-spacing:0px;fill:#7d7d7d;fill-opacity:1;stroke:none;stroke-width:1px;stroke-linecap:butt;stroke-linejoin:miter;stroke-opacity:1"
       d="m -71.945777,239.97355 0,-134.35096 60.552516,0 q 9.4613548,0 17.4088012,3.97377 8.1368278,3.97377 14.0027928,10.4075 5.866061,6.43363 9.082878,14.57036 3.406103,8.13683 3.406103,16.46275 0,6.24454 -1.513813,12.11051 -1.513813,5.67677 -4.352248,10.78597 -2.83834,5.10911 -7.001397,9.27207 -3.973675,3.97377 -9.082877,6.81221 l 29.519399,49.95582 -35.0068876,0 -25.7349144,-43.3329 -20.247236,0 0,43.3329 -31.033117,0 z m 31.033117,-70.39235 28.384063,0 q 5.487489,0 9.4612597,-5.1091 3.97377083,-5.29839 3.97377083,-13.43513 0,-8.32592 -4.54143873,-13.24584 -4.5414387,-4.91991 -9.8397368,-4.91991 l -27.437918,0 0,36.70998 z" />
    <path
       inkscape:connector-curvature="0"
       id="path5445"
       style="font-style:normal;font-variant:normal;font-weight:800;font-stretch:normal;font-size:medium;line-height:89.99999762%;font-family:Raleway;-inkscape-font-specification:'Raleway Ultra-Bold';letter-spacing:0px;word-spacing:0px;fill:#7d7d7d;fill-opacity:1;stroke:none;stroke-width:1px;stroke-linecap:butt;stroke-linejoin:miter;stroke-opacity:1"
       d="m 54.82128,239.97355 0,-134.35096 31.033212,0 0,134.35096 -31.033212,0 z" />
    <path
       inkscape:connector-curvature="0"
       id="path5447"
       style="font-style:normal;font-variant:normal;font-weight:800;font-stretch:normal;font-size:medium;line-height:89.99999762%;font-family:Raleway;-inkscape-font-specification:'Raleway Ultra-Bold';letter-spacing:0px;word-spacing:0px;fill:#7d7d7d;fill-opacity:1;stroke:none;stroke-width:1px;stroke-linecap:butt;stroke-linejoin:miter;stroke-opacity:1"
       d="m 109.08796,201.56056 0,-27.24873 58.28175,0 0,27.24873 -58.28175,0 z" />
    <path
       inkscape:connector-curvature="0"
       id="path5449"
       style="font-style:normal;font-variant:normal;font-weight:800;font-stretch:normal;font-size:medium;line-height:89.99999762%;font-family:Raleway;-inkscape-font-specification:'Raleway Ultra-Bold';letter-spacing:0px;word-spacing:0px;fill:#7d7d7d;fill-opacity:1;stroke:none;stroke-width:1px;stroke-linecap:butt;stroke-linejoin:miter;stroke-opacity:1"
       d="m 271.06898,144.98172 q -0.56814,-0.75657 -3.97377,-2.83843 -3.4061,-2.08148 -8.51521,-4.35216 -5.1091,-2.27076 -11.16436,-3.97377 -6.05525,-1.703 -12.1105,-1.703 -16.65194,0 -16.65194,11.16436 0,3.4061 1.703,5.67677 1.89229,2.27077 5.2984,4.16296 3.59529,1.7031 8.89359,3.21692 5.29839,1.51381 12.29979,3.406 9.65054,2.64925 17.4088,5.86606 7.75835,3.02763 13.05665,7.75835 5.48758,4.54144 8.32601,11.16436 3.02763,6.62292 3.02763,15.89499 0,11.35365 -4.35225,19.30119 -4.16296,7.75825 -11.16436,12.67817 -7.00139,4.73063 -16.08427,7.00139 -9.08288,2.08149 -18.73342,2.08149 -7.37988,0 -15.13813,-1.13534 -7.75835,-1.13543 -15.13813,-3.21691 -7.37988,-2.27067 -14.38127,-5.2983 -6.81211,-3.02763 -12.67817,-7.0014 l 13.62431,-27.05944 q 0.75658,0.94596 4.91992,3.5953 4.16296,2.64914 10.21821,5.29839 6.24444,2.64915 13.81351,4.73063 7.56906,2.08148 15.32741,2.08148 16.46276,0 16.46276,-10.02902 0,-3.78449 -2.45996,-6.24445 -2.45996,-2.45995 -6.81221,-4.35224 -4.35215,-2.08148 -10.4075,-3.78449 -5.86596,-1.7031 -12.86736,-3.78458 -9.27207,-2.83834 -16.08427,-6.05525 -6.81221,-3.4061 -11.35365,-7.75826 -4.35215,-4.35224 -6.62292,-10.02902 -2.08148,-5.67677 -2.08148,-13.24584 0,-10.59678 3.97377,-18.73351 3.97377,-8.13674 10.78588,-13.62432 6.81221,-5.67678 15.7059,-8.51521 9.08287,-2.83834 19.1119,-2.83834 7.00139,0 13.8135,1.32453 6.81221,1.32462 13.05665,3.4061 6.24444,2.08148 11.54284,4.73063 5.48758,2.64924 10.02902,5.29839 l -13.62432,25.73482 z" />
    <path
       inkscape:connector-curvature="0"
       id="path5451"
       style="font-style:normal;font-variant:normal;font-weight:800;font-stretch:normal;font-size:medium;line-height:89.99999762%;font-family:Raleway;-inkscape-font-specification:'Raleway Ultra-Bold';letter-spacing:0px;word-spacing:0px;fill:#7d7d7d;fill-opacity:1;stroke:none;stroke-width:1px;stroke-linecap:butt;stroke-linejoin:miter;stroke-opacity:1"
       d="m 299.11882,171.66269 q 0,-12.11051 4.54144,-24.03182 4.54144,-12.1105 13.24593,-21.57176 8.70441,-9.46136 21.19339,-15.32742 12.48888,-5.86606 28.38396,-5.86606 18.92271,0 32.73622,8.13683 14.00279,8.13673 20.8149,21.19338 l -23.84253,16.65194 q -2.27067,-5.29839 -5.86606,-8.70449 -3.406,-3.5953 -7.56906,-5.67678 -4.16296,-2.27067 -8.51521,-3.02762 -4.35215,-0.94596 -8.51512,-0.94596 -8.89368,0 -15.5166,3.5953 -6.62292,3.59538 -10.97517,9.27216 -4.35225,5.67677 -6.43373,12.86736 -2.08148,7.19068 -2.08148,14.57046 0,7.94754 2.45996,15.32742 2.45996,7.37978 7.0014,13.05665 4.73063,5.67677 11.16435,9.08287 6.62292,3.21682 14.75966,3.21682 4.16305,0 8.51521,-0.94596 4.54144,-1.13533 8.51521,-3.21681 4.16296,-2.27077 7.56906,-5.67678 3.4061,-3.59539 5.48758,-8.70449 l 25.35635,14.94894 q -3.02763,7.37987 -9.08288,13.24584 -5.86597,5.86606 -13.62432,9.83983 -7.75825,3.97377 -16.46265,6.05525 -8.7045,2.08148 -17.03042,2.08148 -14.57046,0 -26.87025,-5.86606 -12.11051,-6.05525 -21.0041,-15.89499 -8.70449,-9.83983 -13.62431,-22.32881 -4.73073,-12.48889 -4.73073,-25.35634 z" />
    <path
       inkscape:connector-curvature="0"
       id="path5453"
       style="font-style:normal;font-variant:normal;font-weight:800;font-stretch:normal;font-size:medium;line-height:89.99999762%;font-family:Raleway;-inkscape-font-specification:'Raleway Ultra-Bold';letter-spacing:0px;word-spacing:0px;fill:#7d7d7d;fill-opacity:1;stroke:none;stroke-width:1px;stroke-linecap:butt;stroke-linejoin:miter;stroke-opacity:1"
       d="m 494.34168,241.10889 q -14.94893,0 -27.24872,-5.86606 -12.2997,-5.86597 -21.0041,-15.32732 -8.70449,-9.65055 -13.62431,-21.95034 -4.73073,-12.29969 -4.73073,-25.35634 0,-13.24584 4.91992,-25.54563 5.1091,-12.29969 14.00279,-21.57186 9.08288,-9.46126 21.38257,-14.94884 12.29979,-5.67687 26.87025,-5.67687 14.94884,0 27.24863,5.86606 12.2997,5.86606 21.0041,15.51661 8.70449,9.65054 13.43512,21.95033 4.73073,12.2997 4.73073,24.97787 0,13.24584 -5.1092,25.54563 -4.91982,12.29969 -13.81351,21.76105 -8.89369,9.27216 -21.19338,14.94893 -12.29979,5.67678 -26.87016,5.67678 z M 459.3347,172.98731 q 0,7.75825 2.27067,15.13813 2.27077,7.19058 6.62302,12.86736 4.54144,5.67687 11.16436,9.08288 6.62292,3.4061 15.13812,3.4061 8.89369,0 15.51661,-3.59529 6.62292,-3.5953 10.97517,-9.27207 4.35215,-5.86606 6.43363,-13.05665 2.27077,-7.37987 2.27077,-14.94894 0,-7.75825 -2.27077,-14.94894 -2.27067,-7.37978 -6.81211,-12.86736 -4.54144,-5.67687 -11.16436,-8.89369 -6.43373,-3.4061 -14.94894,-3.4061 -8.89368,0 -15.5166,3.59529 -6.43373,3.40611 -10.97517,9.08298 -4.35215,5.67677 -6.62292,13.05655 -2.08148,7.19068 -2.08148,14.75975 z" />
    <path
       inkscape:connector-curvature="0"
       id="path5455"
       style="font-style:normal;font-variant:normal;font-weight:800;font-stretch:normal;font-size:medium;line-height:89.99999762%;font-family:Raleway;-inkscape-font-specification:'Raleway Ultra-Bold';letter-spacing:0px;word-spacing:0px;fill:#7d7d7d;fill-opacity:1;stroke:none;stroke-width:1px;stroke-linecap:butt;stroke-linejoin:miter;stroke-opacity:1"
       d="m 579.26015,239.97355 0,-134.35096 60.55251,0 q 9.46136,0 17.4089,3.97377 8.13673,3.97377 14.00279,10.4075 5.86597,6.43363 9.08288,14.57036 3.40601,8.13683 3.40601,16.46275 0,6.24454 -1.51382,12.11051 -1.51381,5.67677 -4.35215,10.78597 -2.83843,5.10911 -7.0014,9.27207 -3.97377,3.97377 -9.08287,6.81221 l 29.5193,49.95582 -35.00689,0 -25.73482,-43.3329 -20.24733,0 0,43.3329 -31.03311,0 z m 31.03311,-70.39235 28.38407,0 q 5.48758,0 9.46135,-5.1091 3.97377,-5.29839 3.97377,-13.43513 0,-8.32592 -4.54144,-13.24584 -4.54144,-4.91991 -9.83983,-4.91991 l -27.43792,0 0,36.70998 z" />
    <path
       inkscape:connector-curvature="0"
       id="path5457"
       style="font-style:normal;font-variant:normal;font-weight:800;font-stretch:normal;font-size:medium;line-height:89.99999762%;font-family:Raleway;-inkscape-font-specification:'Raleway Ultra-Bold';letter-spacing:0px;word-spacing:0px;fill:#7d7d7d;fill-opacity:1;stroke:none;stroke-width:1px;stroke-linecap:butt;stroke-linejoin:miter;stroke-opacity:1"
       d="m 800.45137,212.72492 0,27.24863 -94.42417,0 0,-134.35096 92.72107,0 0,27.24863 -61.68786,0 0,26.11329 52.98346,0 0,25.16716 -52.98346,0 0,28.57325 63.39096,0 z" />
  </g>
</svg>
