<svg xmlns="http://www.w3.org/2000/svg" width="240" height="130" viewBox="0 0 744.09449 1052.3622"><path d="M-419.315 0H1163.41c99.748 0 180.05 80.302 180.05 180.05v632.48c0 99.748-80.302 180.05-180.05 180.05H-419.315c-99.747 0-180.049-80.302-180.049-180.05V180.05C-599.364 80.301-519.062 0-419.314 0z" fill="#fff" fill-rule="evenodd"/><path d="M-308.515 357.79h363.03v586.315h-363.03z" fill="#038141" fill-rule="evenodd"/><path d="M748.698 357.79h363.03v586.315h-363.03z" fill="#e63e11" fill-rule="evenodd"/><path d="M-382.381 357.79h90.647c75.45 0 136.192 60.742 136.192 136.192v313.932c0 75.45-60.742 136.191-136.192 136.191h-90.647c-75.45 0-136.191-60.741-136.191-136.191V493.982c0-75.45 60.74-136.192 136.19-136.192z" fill="#038141" fill-rule="evenodd"/><path d="M570.957 357.79h363.03v586.315h-363.03z" fill="#ee8100" fill-rule="evenodd"/><path style="line-height:89.99999762%;-inkscape-font-specification:'Raleway Ultra-Bold'" d="M636.605 779.804V514.002h99.208q32.944 0 57.653 10.482 24.708 10.483 41.18 28.452 16.846 17.97 25.083 42.304 8.61 23.96 8.61 51.289 0 30.324-9.359 55.032-9.36 24.334-26.954 41.93-17.221 17.22-41.93 26.954-24.334 9.36-54.283 9.36h-99.208zM805.82 646.53q0-17.596-4.867-31.822-4.492-14.6-13.477-25.082-8.985-10.483-22.088-16.098-13.103-5.616-29.575-5.616H698v157.984h37.812q16.846 0 29.95-5.99 13.102-5.99 21.713-16.472 8.985-10.857 13.477-25.083 4.867-14.6 4.867-31.821z" font-weight="800" font-family="Raleway" letter-spacing="0" word-spacing="0" fill="#fff" fill-opacity=".446"/><path d="M188.26 357.79h383.32v586.315H188.26z" fill="#fecb02" fill-rule="evenodd"/><path d="M206.865 357.79h-363.03v586.315h363.03z" fill="#85bb2f" fill-rule="evenodd"/><path style="line-height:89.99999762%;-inkscape-font-specification:'Raleway Ultra-Bold'" d="M293.246 642.41q0-23.959 8.984-47.544 8.985-23.96 26.206-42.678 17.221-18.719 41.93-30.324 24.708-11.606 56.155-11.606 37.437 0 64.766 16.098 27.703 16.098 41.18 41.93l-47.17 32.944q-4.492-10.482-11.605-17.22-6.739-7.114-14.975-11.232-8.236-4.492-16.847-5.99-8.61-1.872-16.846-1.872-17.596 0-30.699 7.113-13.103 7.113-21.713 18.344-8.61 11.232-12.729 25.458-4.118 14.226-4.118 28.826 0 15.723 4.867 30.324 4.867 14.6 13.852 25.831 9.359 11.232 22.088 17.97 13.102 6.364 29.2 6.364 8.237 0 16.847-1.871 8.985-2.247 16.847-6.365 8.236-4.492 14.974-11.23 6.739-7.114 10.857-17.222l50.166 29.575q-5.99 14.6-17.97 26.206-11.606 11.606-26.955 19.467-15.349 7.862-32.57 11.98-17.22 4.118-33.693 4.118-28.827 0-53.16-11.605-23.96-11.98-41.556-31.447-17.22-19.467-26.954-44.176-9.36-24.708-9.36-50.165zm-138.694 78.492q0 17.221-7.113 29.95-7.113 12.728-19.467 21.339-12.354 8.236-28.826 12.728-16.473 4.118-34.817 4.118H-65.203V523.235H82.673q13.852 0 25.083 5.99 11.231 5.99 19.093 15.724 7.862 9.359 11.98 21.713 4.492 11.98 4.492 24.708 0 19.093-9.733 35.94-9.36 16.847-28.452 25.457 22.836 6.739 35.939 23.96 13.477 17.22 13.477 44.175zm-62.52-12.354q0-12.354-7.112-20.965-7.113-8.61-17.97-8.61H-3.806V737H64.33q11.98 0 19.842-7.862 7.862-7.861 7.862-20.59zM-3.805 575.647v55.032h60.273q10.108 0 17.97-6.738 7.862-6.74 7.862-20.965 0-13.103-7.113-20.216-6.739-7.113-16.472-7.113h-62.52z" font-weight="800" font-family="Raleway" letter-spacing="0" word-spacing="0" fill="#fff" fill-opacity=".446"/><path d="M7.726 281.616h39.326c108.7 0 196.208 87.508 196.208 196.207v343.941c0 108.699-87.509 196.208-196.208 196.208H7.726c-108.7 0-196.208-87.509-196.208-196.208v-343.94c0-108.7 87.509-196.208 196.208-196.208z" fill="#0039ff" fill-opacity=".63" fill-rule="evenodd" stroke="#fff" stroke-width="61.032" stroke-linecap="round" stroke-linejoin="round"/><path style="line-height:89.99999762%;-inkscape-font-specification:'Raleway Ultra-Bold'" d="M-384.712 514.002h55.406l96.962 265.802h-62.894l-20.59-59.524h-82.736l-20.216 59.524h-62.894l96.962-265.802zm58.776 163.974l-31.073-93.967-31.821 93.967h62.894z" font-weight="800" font-family="Raleway" letter-spacing="0" word-spacing="0" fill="#fff" fill-opacity=".446"/><path d="M1069.556 357.79h90.647c75.45 0 136.192 60.742 136.192 136.192v313.932c0 75.45-60.742 136.191-136.192 136.191h-90.647c-75.45 0-136.192-60.741-136.192-136.191V493.982c0-75.45 60.742-136.192 136.192-136.192z" fill="#e63e11" fill-rule="evenodd"/><path style="line-height:89.99999762%;-inkscape-font-specification:'Raleway Ultra-Bold'" d="M1188.707 725.895v53.91h-186.81V514.001h183.44v53.91h-122.044v51.662h104.824v49.791h-104.824v56.53h125.414z" font-weight="800" font-family="Raleway" letter-spacing="0" word-spacing="0" fill="#fff" fill-opacity=".446"/><path d="M7.726 281.616h39.326c108.7 0 196.208 87.508 196.208 196.207v343.941c0 108.699-87.509 196.208-196.208 196.208H7.726c-108.7 0-196.208-87.509-196.208-196.208v-343.94c0-108.7 87.509-196.208 196.208-196.208z" fill="#85bb2f" fill-rule="evenodd"/><path style="line-height:89.99999762%;-inkscape-font-specification:'Raleway Ultra-Bold'" d="M173.44 742.36q0 22.705-8.603 39.487-8.602 16.781-23.543 28.133-14.94 10.86-34.862 16.782-19.921 5.43-42.106 5.43H-92.326v-350.44H86.511q16.752 0 30.334 7.897 13.583 7.898 23.09 20.73 9.508 12.34 14.489 28.628 5.433 15.794 5.433 32.576 0 25.172-11.772 47.383-11.319 22.21-34.409 33.563 27.618 8.884 43.464 31.589 16.3 22.704 16.3 58.242zm-75.61-16.287q0-16.288-8.602-27.64-8.603-11.353-21.732-11.353h-85.57v76.504h82.4q14.488 0 23.996-10.365t9.508-27.146zm-115.905-175.22v72.556h72.893q12.225 0 21.733-8.884 9.507-8.884 9.507-27.64 0-17.275-8.602-26.653-8.15-9.378-19.921-9.378h-75.61z" font-weight="800" font-family="Raleway" letter-spacing="0" word-spacing="0" fill="#fff"/><path style="line-height:89.99999762%;-inkscape-font-specification:'Raleway Ultra-Bold'" d="M-443.389 163.147v76.826h-31.033v-134.35h24.22l62.635 78.907v-78.908h31.033v134.351h-24.978l-61.877-76.826zm170.449 50.335q7.947 0 13.435-3.217 5.488-3.406 8.894-8.894 3.406-5.487 4.73-12.489 1.514-7.19 1.514-14.57v-68.69h31.033v68.69q0 14.003-3.595 26.113-3.406 12.11-10.786 21.193-7.19 9.083-18.544 14.382-11.165 5.109-26.681 5.109-16.084 0-27.438-5.488-11.354-5.487-18.544-14.57-7.002-9.272-10.408-21.383-3.216-12.11-3.216-25.356v-68.69h31.033v68.69q0 7.758 1.514 14.76 1.513 7 4.92 12.488 3.405 5.488 8.704 8.705 5.487 3.217 13.435 3.217zm185.838-80.611h-40.873v107.102h-31.033V132.871h-41.062v-27.249h112.968v27.25zm15.156 107.102v-134.35h60.553q9.461 0 17.409 3.973 8.136 3.974 14.002 10.408 5.866 6.433 9.083 14.57 3.406 8.137 3.406 16.463 0 6.244-1.513 12.11-1.514 5.677-4.353 10.786-2.838 5.11-7.001 9.272-3.974 3.974-9.083 6.813l29.52 49.955H5.068l-25.734-43.332h-20.248v43.332h-31.033zm31.033-70.392h28.384q5.488 0 9.462-5.109 3.973-5.298 3.973-13.435 0-8.326-4.541-13.246t-9.84-4.92h-27.438v36.71zm95.734 70.392v-134.35h31.033v134.35H54.821zm54.267-38.413v-27.248h58.282v27.248h-58.282zm161.981-56.578q-.568-.757-3.974-2.839-3.406-2.081-8.515-4.352-5.11-2.27-11.164-3.974-6.056-1.703-12.11-1.703-16.653 0-16.653 11.165 0 3.406 1.703 5.676 1.892 2.271 5.299 4.163 3.595 1.703 8.893 3.217 5.299 1.514 12.3 3.406 9.65 2.65 17.409 5.866 7.758 3.028 13.056 7.759 5.488 4.541 8.326 11.164 3.028 6.623 3.028 15.895 0 11.354-4.352 19.301-4.163 7.759-11.165 12.678-7 4.731-16.084 7.002-9.083 2.081-18.733 2.081-7.38 0-15.138-1.135-7.759-1.135-15.138-3.217-7.38-2.27-14.382-5.298-6.812-3.028-12.678-7.002l13.624-27.06q.757.947 4.92 3.596 4.163 2.65 10.219 5.299 6.244 2.649 13.813 4.73 7.57 2.082 15.327 2.082 16.463 0 16.463-10.03 0-3.784-2.46-6.244t-6.812-4.352q-4.352-2.081-10.407-3.785-5.866-1.703-12.868-3.784-9.272-2.838-16.084-6.055-6.812-3.406-11.354-7.759-4.352-4.352-6.623-10.029-2.081-5.676-2.081-13.246 0-10.596 3.974-18.733 3.973-8.137 10.785-13.624 6.813-5.677 15.706-8.515 9.083-2.839 19.112-2.839 7.002 0 13.814 1.325 6.812 1.324 13.056 3.406 6.245 2.081 11.543 4.73 5.488 2.65 10.03 5.299l-13.625 25.735zm28.05 26.681q0-12.11 4.541-24.032 4.542-12.11 13.246-21.572 8.705-9.461 21.194-15.327 12.488-5.866 28.384-5.866 18.922 0 32.736 8.136 14.003 8.137 20.815 21.194l-23.843 16.652q-2.27-5.299-5.866-8.705-3.406-3.595-7.569-5.677-4.163-2.27-8.515-3.027-4.352-.946-8.515-.946-8.894 0-15.517 3.595-6.623 3.595-10.975 9.272-4.352 5.677-6.434 12.868-2.081 7.19-2.081 14.57 0 7.948 2.46 15.327 2.46 7.38 7.001 13.057 4.73 5.677 11.164 9.083 6.623 3.217 14.76 3.217 4.163 0 8.515-.946 4.542-1.135 8.515-3.217 4.163-2.27 7.57-5.677 3.406-3.595 5.487-8.704l25.356 14.949q-3.027 7.38-9.082 13.246-5.866 5.866-13.625 9.84-7.758 3.973-16.462 6.055-8.705 2.081-17.03 2.081-14.571 0-26.871-5.866-12.11-6.055-21.004-15.895-8.705-9.84-13.624-22.329-4.731-12.489-4.731-25.356zm195.223 69.446q-14.95 0-27.249-5.866-12.3-5.866-21.004-15.328-8.705-9.65-13.624-21.95-4.731-12.3-4.731-25.356 0-13.246 4.92-25.546 5.109-12.3 14.003-21.572 9.082-9.461 21.382-14.949 12.3-5.676 26.87-5.676 14.95 0 27.249 5.866 12.3 5.866 21.004 15.516 8.705 9.65 13.435 21.95 4.73 12.3 4.73 24.978 0 13.246-5.108 25.546-4.92 12.3-13.814 21.761-8.893 9.272-21.193 14.949t-26.87 5.677zm-35.007-68.122q0 7.759 2.27 15.138 2.271 7.191 6.623 12.868 4.542 5.677 11.165 9.083 6.623 3.406 15.138 3.406 8.894 0 15.516-3.596 6.623-3.595 10.976-9.272 4.352-5.866 6.433-13.056 2.271-7.38 2.271-14.95 0-7.758-2.27-14.948-2.271-7.38-6.813-12.868-4.541-5.676-11.164-8.893-6.434-3.406-14.95-3.406-8.893 0-15.516 3.595-6.433 3.406-10.975 9.083-4.352 5.677-6.623 13.057-2.081 7.19-2.081 14.76zm119.925 66.986v-134.35h60.553q9.461 0 17.409 3.973 8.136 3.974 14.002 10.408 5.866 6.433 9.083 14.57 3.406 8.137 3.406 16.463 0 6.244-1.514 12.11-1.513 5.677-4.352 10.786-2.838 5.11-7.001 9.272-3.974 3.974-9.083 6.813l29.52 49.955h-35.008l-25.734-43.332h-20.248v43.332H579.26zm31.033-70.392h28.384q5.488 0 9.462-5.109 3.973-5.298 3.973-13.435 0-8.326-4.541-13.246t-9.84-4.92h-27.438v36.71zm190.158 43.144v27.248h-94.424v-134.35h92.721v27.248H737.06v26.113h52.984v25.168H737.06v28.573h63.391z" font-weight="800" font-family="Raleway" letter-spacing="0" word-spacing="0" fill="#7d7d7d"/></svg>