<?xml version="1.0" encoding="UTF-8" standalone="no"?>
<!-- Created with Inkscape (http://www.inkscape.org/) -->

<svg
   xmlns:dc="http://purl.org/dc/elements/1.1/"
   xmlns:cc="http://creativecommons.org/ns#"
   xmlns:rdf="http://www.w3.org/1999/02/22-rdf-syntax-ns#"
   xmlns:svg="http://www.w3.org/2000/svg"
   xmlns="http://www.w3.org/2000/svg"
   xmlns:sodipodi="http://sodipodi.sourceforge.net/DTD/sodipodi-0.dtd"
   xmlns:inkscape="http://www.inkscape.org/namespaces/inkscape"
   width="240"
   height="130"
   viewBox="0 0 744.09449 1052.3622"
   id="svg4443"
   version="1.1"
   inkscape:version="0.92.3 (2405546, 2018-03-11)"
   sodipodi:docname="nutriscore-c.svg">
  <defs
     id="defs4445" />
  <sodipodi:namedview
     id="base"
     pagecolor="#ffffff"
     bordercolor="#666666"
     borderopacity="1.0"
     inkscape:pageopacity="0.0"
     inkscape:pageshadow="2"
     inkscape:zoom="1.979899"
     inkscape:cx="-57.653688"
     inkscape:cy="156.34508"
     inkscape:document-units="px"
     inkscape:current-layer="layer1"
     showgrid="false"
     inkscape:window-width="1920"
     inkscape:window-height="1017"
     inkscape:window-x="-8"
     inkscape:window-y="-8"
     inkscape:window-maximized="1" />
  <metadata
     id="metadata4448">
    <rdf:RDF>
      <cc:Work
         rdf:about="">
        <dc:format>image/svg+xml</dc:format>
        <dc:type
           rdf:resource="http://purl.org/dc/dcmitype/StillImage" />
        <dc:title />
      </cc:Work>
    </rdf:RDF>
  </metadata>
  <g
     inkscape:label="Calque 1"
     inkscape:groupmode="layer"
     id="layer1">
    <path
       style="opacity:1;fill:#ffffff;fill-opacity:1;fill-rule:evenodd;stroke:none;stroke-width:1;stroke-linecap:round;stroke-linejoin:round;stroke-miterlimit:4;stroke-dasharray:none;stroke-dashoffset:0;stroke-opacity:1"
       d="m -419.31459,7.2110788e-7 1582.72369,0 C 1263.1569,7.2110788e-7 1343.4584,80.302128 1343.4584,180.04943 l 0,632.48116 c 0,99.74739 -80.3015,180.04942 -180.0493,180.04942 l -1582.72369,0 c -99.7474,0 -180.04943,-80.30203 -180.04943,-180.04942 l 0,-632.48116 C -599.36402,80.302128 -519.06199,7.2110788e-7 -419.31459,7.2110788e-7 Z"
       id="rect5237"
       inkscape:connector-curvature="0" />
    <path
       style="opacity:1;fill:#038141;fill-opacity:1;fill-rule:evenodd;stroke:none;stroke-width:1;stroke-linecap:round;stroke-linejoin:round;stroke-miterlimit:4;stroke-dasharray:none;stroke-dashoffset:0;stroke-opacity:1"
       d="m -308.51495,357.79059 363.029984,0 0,586.31477 -363.029984,0 z"
       id="rect5239"
       inkscape:connector-curvature="0" />
    <path
       style="opacity:1;fill:#e63e11;fill-opacity:1;fill-rule:evenodd;stroke:none;stroke-width:1;stroke-linecap:round;stroke-linejoin:round;stroke-miterlimit:4;stroke-dasharray:none;stroke-dashoffset:0;stroke-opacity:1"
       d="m 748.69823,357.79059 363.02977,0 0,586.31477 -363.02977,0 z"
       id="rect5241"
       inkscape:connector-curvature="0" />
    <path
       style="opacity:1;fill:#038141;fill-opacity:1;fill-rule:evenodd;stroke:none;stroke-width:1;stroke-linecap:round;stroke-linejoin:round;stroke-miterlimit:4;stroke-dasharray:none;stroke-dashoffset:0;stroke-opacity:1"
       d="m -382.38116,357.79059 90.64758,0 c 75.44988,0 136.1912,60.74123 136.1912,136.1912 l 0,313.93237 c 0,75.44987 -60.74132,136.1912 -136.1912,136.1912 l -90.64758,0 c -75.44996,0 -136.1912,-60.74133 -136.1912,-136.1912 l 0,-313.93237 c 0,-75.44997 60.74124,-136.1912 136.1912,-136.1912 z"
       id="rect5243"
       inkscape:connector-curvature="0" />
    <path
       style="opacity:1;fill:#ee8100;fill-opacity:1;fill-rule:evenodd;stroke:none;stroke-width:1;stroke-linecap:round;stroke-linejoin:round;stroke-miterlimit:4;stroke-dasharray:none;stroke-dashoffset:0;stroke-opacity:1"
       d="m 570.95697,357.79059 363.0296,0 0,586.31477 -363.0296,0 z"
       id="rect5245"
       inkscape:connector-curvature="0" />
    <path
       inkscape:connector-curvature="0"
       id="path5531"
       style="font-style:normal;font-variant:normal;font-weight:800;font-stretch:normal;font-size:medium;line-height:89.99999762%;font-family:Raleway;-inkscape-font-specification:'Raleway Ultra-Bold';letter-spacing:0px;word-spacing:0px;fill:#ffffff;fill-opacity:0.44606413;stroke:none;stroke-width:1px;stroke-linecap:butt;stroke-linejoin:miter;stroke-opacity:1"
       d="m 659.56123,779.80427 0,-265.80231 99.2078,0 q 32.94453,0 57.65289,10.4824 24.70835,10.4823 41.18024,28.45201 16.84732,17.96981 25.08302,42.30377 8.61066,23.95968 8.61066,51.28864 0,30.32384 -9.35962,55.03229 -9.35867,24.33397 -26.954,41.92929 -17.22122,17.22104 -41.92958,26.95467 -24.33406,9.35924 -54.28361,9.35924 l -99.2078,0 z M 828.77614,646.52878 q 0,-17.59543 -4.86681,-31.82138 -4.49243,-14.60044 -13.47729,-25.08284 -8.98485,-10.4823 -22.08785,-16.09779 -13.1029,-5.61558 -29.57516,-5.61558 l -37.81126,0 0,157.98385 37.81126,0 q 16.84665,0 29.94955,-5.98988 13.10299,-5.98996 21.71346,-16.47226 8.98486,-10.85669 13.47729,-25.08274 4.86681,-14.60044 4.86681,-31.82138 z" />
    <path
       style="opacity:1;fill:#fecb02;fill-opacity:1;fill-rule:evenodd;stroke:none;stroke-width:1;stroke-linecap:round;stroke-linejoin:round;stroke-miterlimit:4;stroke-dasharray:none;stroke-dashoffset:0;stroke-opacity:1"
       d="m 188.25931,357.79059 383.3209,0 0,586.31477 -383.3209,0 z"
       id="rect5251"
       inkscape:connector-curvature="0" />
    <path
       style="opacity:1;fill:#85bb2f;fill-opacity:1;fill-rule:evenodd;stroke:none;stroke-width:1;stroke-linecap:round;stroke-linejoin:round;stroke-miterlimit:4;stroke-dasharray:none;stroke-dashoffset:0;stroke-opacity:1"
       d="m 206.86512,357.79059 -363.03008,0 0,586.31477 363.03008,0 z"
       id="rect5253"
       inkscape:connector-curvature="0" />
    <path
       inkscape:connector-curvature="0"
       id="path5526"
       style="font-style:normal;font-variant:normal;font-weight:800;font-stretch:normal;font-size:medium;line-height:89.99999762%;font-family:Raleway;-inkscape-font-specification:'Raleway Ultra-Bold';letter-spacing:0px;word-spacing:0px;fill:#ffffff;fill-opacity:0.44606413;stroke:none;stroke-width:1px;stroke-linecap:butt;stroke-linejoin:miter;stroke-opacity:1"
       d="m 258.81107,653.89009 q 0,-23.95968 8.98485,-47.54488 8.98495,-23.95967 26.2059,-42.67816 17.22103,-18.71848 41.92939,-30.32384 24.70835,-11.60545 56.15535,-11.60545 37.43696,0 64.76591,16.09788 27.70334,16.09788 41.18063,41.9293 l -47.1705,32.94453 q -4.49243,-10.4823 -11.60545,-17.22104 -6.73865,-7.11293 -14.97483,-11.23107 -8.23608,-4.49242 -16.84655,-5.98987 -8.61057,-1.87183 -16.84666,-1.87183 -17.59532,0 -30.69832,7.11303 -13.1029,7.11303 -21.71337,18.3441 -8.61047,11.23107 -12.72861,25.45712 -4.11804,14.22596 -4.11804,28.8264 0,15.7235 4.86681,30.32393 4.86681,14.60035 13.85167,25.83151 9.35924,11.23107 22.08776,17.96971 13.10299,6.36426 29.20087,6.36426 8.23609,0 16.84656,-1.87183 8.98486,-2.24621 16.84665,-6.36435 8.23609,-4.49243 14.97473,-11.23107 6.73864,-7.11303 10.85678,-17.22094 l 50.16548,29.57516 q -5.98997,14.60044 -17.96971,26.2059 -11.60546,11.60545 -26.95467,19.46715 -15.34911,7.8618 -32.57005,11.97984 -17.22104,4.11805 -33.69331,4.11805 -28.82639,0 -53.16046,-11.60546 -23.95958,-11.97984 -41.55491,-31.44699 -17.22104,-19.46725 -26.95466,-44.17561 -9.35924,-24.70835 -9.35924,-50.16548 z" />
    <path
       inkscape:connector-curvature="0"
       id="path5523"
       style="font-style:normal;font-variant:normal;font-weight:800;font-stretch:normal;font-size:medium;line-height:89.99999762%;font-family:Raleway;-inkscape-font-specification:'Raleway Ultra-Bold';letter-spacing:0px;word-spacing:0px;fill:#ffffff;fill-opacity:0.44606413;stroke:none;stroke-width:1px;stroke-linecap:butt;stroke-linejoin:miter;stroke-opacity:1"
       d="m 97.160839,711.66898 q 0,17.22104 -7.113027,29.94956 -7.113027,12.7286 -19.467252,21.33908 -12.354129,8.23608 -28.826397,12.72851 -16.472268,4.11814 -34.8163646,4.11814 l -129.5317384,0 0,-265.80231 147.875835,0 q 13.851669,0 25.082739,5.98997 11.23107,5.98987 19.092867,15.7235 7.861701,9.35924 11.97984,21.71346 4.492428,11.97975 4.492428,24.70836 0,19.09277 -9.733626,35.93942 -9.359241,16.84665 -28.452108,25.45712 22.836525,6.73865 35.93952,23.95968 13.477284,17.22095 13.477284,44.17551 z M 34.641136,699.31485 q 0,-12.35422 -7.113027,-20.96469 -7.113027,-8.61047 -17.9697117,-8.61047 l -70.7557883,0 0,58.02718 68.1351894,0 q 11.9798396,0 19.8415416,-7.86171 7.861796,-7.86179 7.861796,-20.59031 z m -95.838527,-132.9011 0,55.03229 60.2733928,0 q 10.1080106,0 17.9698072,-6.73864 7.861701,-6.73874 7.861701,-20.9647 0,-13.10299 -7.113026,-20.21593 -6.738642,-7.11302 -16.4722682,-7.11302 l -62.5196068,0 z" />
    <path
       style="opacity:1;fill:#0039ff;fill-opacity:0.62973764;fill-rule:evenodd;stroke:#ffffff;stroke-width:61.03178787;stroke-linecap:round;stroke-linejoin:round;stroke-miterlimit:4;stroke-dasharray:none;stroke-dashoffset:0;stroke-opacity:1"
       d="m 360.25661,281.61583 39.3264,0 c 108.69904,0 196.20765,87.50871 196.20765,196.20774 l 0,343.94054 c 0,108.69904 -87.50861,196.20769 -196.20765,196.20769 l -39.3264,0 c -108.69913,0 -196.20774,-87.50865 -196.20774,-196.20769 l 0,-343.94054 c 0,-108.69903 87.50861,-196.20774 196.20774,-196.20774 z"
       id="rect5263"
       inkscape:connector-curvature="0" />
    <path
       inkscape:connector-curvature="0"
       id="path5519"
       style="font-style:normal;font-variant:normal;font-weight:800;font-stretch:normal;font-size:medium;line-height:89.99999762%;font-family:Raleway;-inkscape-font-specification:'Raleway Ultra-Bold';letter-spacing:0px;word-spacing:0px;fill:#ffffff;fill-opacity:0.44606413;stroke:none;stroke-width:1px;stroke-linecap:butt;stroke-linejoin:miter;stroke-opacity:1"
       d="m -364.76076,514.00196 h 55.40668 l 96.96168,265.80231 h -62.89409 l -20.59031,-59.52472 h -82.73563 l -20.21592,59.52472 h -62.89399 z m 58.77605,163.97381 -31.07271,-93.9667 -31.82138,93.9667 z" />
    <path
       style="opacity:1;fill:#e63e11;fill-opacity:1;fill-rule:evenodd;stroke:none;stroke-width:1;stroke-linecap:round;stroke-linejoin:round;stroke-miterlimit:4;stroke-dasharray:none;stroke-dashoffset:0;stroke-opacity:1"
       d="m 1069.5559,357.79059 90.6471,0 c 75.4498,0 136.1917,60.74123 136.1917,136.1912 l 0,313.93237 c 0,75.44987 -60.7419,136.1912 -136.1917,136.1912 l -90.6471,0 c -75.44982,0 -136.19172,-60.74133 -136.19172,-136.1912 l 0,-313.93237 c 0,-75.44997 60.7419,-136.1912 136.19172,-136.1912 z"
       id="rect5269"
       inkscape:connector-curvature="0" />
    <path
       inkscape:connector-curvature="0"
       id="path5515"
       style="font-style:normal;font-variant:normal;font-weight:800;font-stretch:normal;font-size:medium;line-height:89.99999762%;font-family:Raleway;-inkscape-font-specification:'Raleway Ultra-Bold';letter-spacing:0px;word-spacing:0px;fill:#ffffff;fill-opacity:0.44606413;stroke:none;stroke-width:1px;stroke-linecap:butt;stroke-linejoin:miter;stroke-opacity:1"
       d="m 1208.2848,725.89504 v 53.90923 H 1021.474 V 514.00196 h 183.441 v 53.90923 h -122.0444 v 51.66292 h 104.824 v 49.79119 h -104.824 v 56.52974 z" />
    <path
       style="opacity:1;fill:#fecb02;fill-opacity:1;fill-rule:evenodd;stroke:none;stroke-width:15.94488144;stroke-linecap:round;stroke-linejoin:round;stroke-miterlimit:4;stroke-dasharray:none;stroke-dashoffset:0;stroke-opacity:1"
       d="m 360.25661,281.61583 39.3264,0 c 108.69904,0 196.20765,87.50871 196.20765,196.20774 l 0,343.94054 c 0,108.69904 -87.50861,196.20769 -196.20765,196.20769 l -39.3264,0 c -108.69913,0 -196.20774,-87.50865 -196.20774,-196.20769 l 0,-343.94054 c 0,-108.69903 87.50861,-196.20774 196.20774,-196.20774 z"
       id="rect5275"
       inkscape:connector-curvature="0" />
    <path
       inkscape:connector-curvature="0"
       id="path5511"
       style="font-style:normal;font-variant:normal;font-weight:800;font-stretch:normal;font-size:medium;line-height:89.99999762%;font-family:Raleway;-inkscape-font-specification:'Raleway Ultra-Bold';letter-spacing:0px;word-spacing:0px;fill:#ffffff;fill-opacity:1;stroke:none;stroke-width:1px;stroke-linecap:butt;stroke-linejoin:miter;stroke-opacity:1"
       d="m 233.45453,654.01095 q 0,-31.58869 10.86611,-62.68395 10.86601,-31.5888 31.69262,-56.26746 20.82661,-24.67876 50.70821,-39.97953 29.8816,-15.30086 67.91279,-15.30086 45.27516,0 78.32637,21.22374 33.50345,21.22374 49.80223,55.28029 l -57.04649,43.43464 q -5.43324,-13.82007 -14.03562,-22.70443 -8.1493,-9.3779 -18.1099,-14.80724 -9.9605,-5.92297 -20.37371,-7.8972 -10.4134,-2.46795 -20.3739,-2.46795 -21.27932,0 -37.12567,9.3779 -15.84627,9.37789 -26.25957,24.18522 -10.41331,14.80724 -15.39356,33.56302 -4.98025,18.75588 -4.98025,38.0052 0,20.73021 5.88576,39.97963 5.88576,19.24951 16.75177,34.05665 11.31882,14.80723 26.71237,23.69159 15.84636,8.39073 35.31466,8.39073 9.9606,0 20.37381,-2.46785 10.8661,-2.96139 20.3739,-8.39073 9.9605,-5.92297 18.11037,-14.80724 8.14929,-9.37799 13.12954,-22.70443 l 60.66862,38.99236 q -7.24435,19.24942 -21.73192,34.55028 -14.03562,15.30077 -32.59841,25.66582 -18.56279,10.36515 -39.38921,15.7944 -20.82661,5.42934 -40.74771,5.42934 -34.86185,0 -64.29075,-15.30077 -28.97609,-15.79449 -50.25541,-41.46031 -20.82661,-25.66583 -32.59822,-58.24188 -11.31882,-32.57586 -11.31883,-66.13898 z" />
    <path
       inkscape:connector-curvature="0"
       id="path5488"
       style="font-style:normal;font-variant:normal;font-weight:800;font-stretch:normal;font-size:medium;line-height:89.99999762%;font-family:Raleway;-inkscape-font-specification:'Raleway Ultra-Bold';letter-spacing:0px;word-spacing:0px;fill:#7d7d7d;fill-opacity:1;stroke:none;stroke-width:1px;stroke-linecap:butt;stroke-linejoin:miter;stroke-opacity:1"
       d="m -443.38895,163.14758 0,76.82598 -31.03321,0 0,-134.35097 24.22101,0 62.63409,78.90756 0,-78.90756 31.03312,0 0,134.35097 -24.97787,0 -61.87714,-76.82598 z" />
    <path
       inkscape:connector-curvature="0"
       id="path5490"
       style="font-style:normal;font-variant:normal;font-weight:800;font-stretch:normal;font-size:medium;line-height:89.99999762%;font-family:Raleway;-inkscape-font-specification:'Raleway Ultra-Bold';letter-spacing:0px;word-spacing:0px;fill:#7d7d7d;fill-opacity:1;stroke:none;stroke-width:1px;stroke-linecap:butt;stroke-linejoin:miter;stroke-opacity:1"
       d="m -272.9401,213.48188 q 7.94754,0 13.43512,-3.21691 5.48758,-3.4061 8.89369,-8.89369 3.4061,-5.48749 4.73063,-12.48888 1.51381,-7.19069 1.51381,-14.57046 l 0,-68.68935 31.03321,0 0,68.68935 q 0,14.00279 -3.59529,26.11329 -3.4061,12.11051 -10.78598,21.19338 -7.19059,9.08288 -18.54423,14.38118 -11.16436,5.10911 -26.68096,5.10911 -16.08428,0 -27.43783,-5.48749 -11.35364,-5.48759 -18.54423,-14.57046 -7.0014,-9.27217 -10.4075,-21.38267 -3.21682,-12.1105 -3.21682,-25.35634 l 0,-68.68935 31.03322,0 0,68.68935 q 0,7.75825 1.51381,14.75965 1.51381,7.0014 4.91982,12.48898 3.4061,5.48758 8.7045,8.7044 5.48758,3.21691 13.43503,3.21691 z" />
    <path
       inkscape:connector-curvature="0"
       id="path5492"
       style="font-style:normal;font-variant:normal;font-weight:800;font-stretch:normal;font-size:medium;line-height:89.99999762%;font-family:Raleway;-inkscape-font-specification:'Raleway Ultra-Bold';letter-spacing:0px;word-spacing:0px;fill:#7d7d7d;fill-opacity:1;stroke:none;stroke-width:1px;stroke-linecap:butt;stroke-linejoin:miter;stroke-opacity:1"
       d="m -87.101702,132.87122 -40.872948,0 0,107.10234 -31.03321,0 0,-107.10234 -41.06214,0 0,-27.24863 112.968298,0 0,27.24863 z" />
    <path
       inkscape:connector-curvature="0"
       id="path5494"
       style="font-style:normal;font-variant:normal;font-weight:800;font-stretch:normal;font-size:medium;line-height:89.99999762%;font-family:Raleway;-inkscape-font-specification:'Raleway Ultra-Bold';letter-spacing:0px;word-spacing:0px;fill:#7d7d7d;fill-opacity:1;stroke:none;stroke-width:1px;stroke-linecap:butt;stroke-linejoin:miter;stroke-opacity:1"
       d="m -71.945777,239.97356 0,-134.35097 60.552516,0 q 9.4613548,0 17.4088012,3.97377 8.1368278,3.97377 14.0027928,10.4075 5.866061,6.43373 9.082878,14.57046 3.406103,8.13674 3.406103,16.46266 0,6.24454 -1.513813,12.1106 -1.513813,5.67677 -4.352248,10.78588 -2.83834,5.10911 -7.001397,9.27207 -3.973675,3.97377 -9.082877,6.8122 l 29.519399,49.95583 -35.0068876,0 -25.7349144,-43.33291 -20.247236,0 0,43.33291 -31.033117,0 z m 31.033117,-70.39235 28.384063,0 q 5.487489,0 9.4612597,-5.10911 3.97377083,-5.29829 3.97377083,-13.43512 0,-8.32592 -4.54143873,-13.24584 -4.5414387,-4.91992 -9.8397368,-4.91992 l -27.437918,0 0,36.70999 z" />
    <path
       inkscape:connector-curvature="0"
       id="path5496"
       style="font-style:normal;font-variant:normal;font-weight:800;font-stretch:normal;font-size:medium;line-height:89.99999762%;font-family:Raleway;-inkscape-font-specification:'Raleway Ultra-Bold';letter-spacing:0px;word-spacing:0px;fill:#7d7d7d;fill-opacity:1;stroke:none;stroke-width:1px;stroke-linecap:butt;stroke-linejoin:miter;stroke-opacity:1"
       d="m 54.82128,239.97356 0,-134.35097 31.033212,0 0,134.35097 -31.033212,0 z" />
    <path
       inkscape:connector-curvature="0"
       id="path5498"
       style="font-style:normal;font-variant:normal;font-weight:800;font-stretch:normal;font-size:medium;line-height:89.99999762%;font-family:Raleway;-inkscape-font-specification:'Raleway Ultra-Bold';letter-spacing:0px;word-spacing:0px;fill:#7d7d7d;fill-opacity:1;stroke:none;stroke-width:1px;stroke-linecap:butt;stroke-linejoin:miter;stroke-opacity:1"
       d="m 109.08796,201.56057 0,-27.24863 58.28175,0 0,27.24863 -58.28175,0 z" />
    <path
       inkscape:connector-curvature="0"
       id="path5500"
       style="font-style:normal;font-variant:normal;font-weight:800;font-stretch:normal;font-size:medium;line-height:89.99999762%;font-family:Raleway;-inkscape-font-specification:'Raleway Ultra-Bold';letter-spacing:0px;word-spacing:0px;fill:#7d7d7d;fill-opacity:1;stroke:none;stroke-width:1px;stroke-linecap:butt;stroke-linejoin:miter;stroke-opacity:1"
       d="m 271.06898,144.98173 q -0.56814,-0.75658 -3.97377,-2.83834 -3.4061,-2.08148 -8.51521,-4.35225 -5.1091,-2.27067 -11.16436,-3.97377 -6.05525,-1.703 -12.1105,-1.703 -16.65194,0 -16.65194,11.16435 0,3.40611 1.703,5.67678 1.89229,2.27077 5.2984,4.16306 3.59529,1.703 8.89359,3.21681 5.29839,1.51382 12.29979,3.40611 9.65054,2.64914 17.4088,5.86596 7.75835,3.02763 13.05665,7.75835 5.48758,4.54144 8.32601,11.16436 3.02763,6.62292 3.02763,15.89508 0,11.35355 -4.35225,19.30109 -4.16296,7.75826 -11.16436,12.67817 -7.00139,4.73073 -16.08427,7.0014 -9.08288,2.08148 -18.73342,2.08148 -7.37988,0 -15.13813,-1.13533 -7.75835,-1.13534 -15.13813,-3.21682 -7.37988,-2.27077 -14.38127,-5.29839 -6.81211,-3.02763 -12.67817,-7.0014 l 13.62431,-27.05944 q 0.75658,0.94595 4.91992,3.59529 4.16296,2.64925 10.21821,5.2984 6.24444,2.64914 13.81351,4.73063 7.56906,2.08157 15.32741,2.08157 16.46276,0 16.46276,-10.02902 0,-3.78458 -2.45996,-6.24454 -2.45996,-2.45996 -6.81221,-4.35215 -4.35215,-2.08158 -10.4075,-3.78458 -5.86596,-1.70301 -12.86736,-3.78449 -9.27207,-2.83843 -16.08427,-6.05525 -6.81221,-3.4061 -11.35365,-7.75835 -4.35215,-4.35225 -6.62292,-10.02902 -2.08148,-5.67678 -2.08148,-13.24584 0,-10.59669 3.97377,-18.73342 3.97377,-8.13683 10.78588,-13.62432 6.81221,-5.67687 15.7059,-8.51521 9.08287,-2.83843 19.1119,-2.83843 7.00139,0 13.8135,1.32462 6.81221,1.32453 13.05665,3.40601 6.24444,2.08157 11.54284,4.73072 5.48758,2.64915 10.02902,5.2983 l -13.62432,25.73482 z" />
    <path
       inkscape:connector-curvature="0"
       id="path5502"
       style="font-style:normal;font-variant:normal;font-weight:800;font-stretch:normal;font-size:medium;line-height:89.99999762%;font-family:Raleway;-inkscape-font-specification:'Raleway Ultra-Bold';letter-spacing:0px;word-spacing:0px;fill:#7d7d7d;fill-opacity:1;stroke:none;stroke-width:1px;stroke-linecap:butt;stroke-linejoin:miter;stroke-opacity:1"
       d="m 299.11882,171.66269 q 0,-12.1105 4.54144,-24.03172 4.54144,-12.1105 13.24593,-21.57186 8.70441,-9.46135 21.19339,-15.32741 12.48888,-5.86597 28.38396,-5.86597 18.92271,0 32.73622,8.13674 14.00279,8.13673 20.8149,21.19338 l -23.84253,16.65194 q -2.27067,-5.2983 -5.86606,-8.7044 -3.406,-3.5953 -7.56906,-5.67678 -4.16296,-2.27076 -8.51521,-3.02762 -4.35215,-0.94596 -8.51512,-0.94596 -8.89368,0 -15.5166,3.5953 -6.62292,3.59529 -10.97517,9.27207 -4.35225,5.67677 -6.43373,12.86745 -2.08148,7.19059 -2.08148,14.57046 0,7.94755 2.45996,15.32732 2.45996,7.37988 7.0014,13.05665 4.73063,5.67678 11.16435,9.08288 6.62292,3.21691 14.75966,3.21691 4.16305,0 8.51521,-0.94595 4.54144,-1.13543 8.51521,-3.21692 4.16296,-2.27067 7.56906,-5.67677 3.4061,-3.59529 5.48758,-8.7044 l 25.35635,14.94884 q -3.02763,7.37988 -9.08288,13.24594 -5.86597,5.86596 -13.62432,9.83973 -7.75825,3.97377 -16.46265,6.05526 -8.7045,2.08148 -17.03042,2.08148 -14.57046,0 -26.87025,-5.86597 -12.11051,-6.05525 -21.0041,-15.89508 -8.70449,-9.83974 -13.62431,-22.32872 -4.73073,-12.48898 -4.73073,-25.35644 z" />
    <path
       inkscape:connector-curvature="0"
       id="path5504"
       style="font-style:normal;font-variant:normal;font-weight:800;font-stretch:normal;font-size:medium;line-height:89.99999762%;font-family:Raleway;-inkscape-font-specification:'Raleway Ultra-Bold';letter-spacing:0px;word-spacing:0px;fill:#7d7d7d;fill-opacity:1;stroke:none;stroke-width:1px;stroke-linecap:butt;stroke-linejoin:miter;stroke-opacity:1"
       d="m 494.34168,241.1089 q -14.94893,0 -27.24872,-5.86597 -12.2997,-5.86606 -21.0041,-15.32742 -8.70449,-9.65054 -13.62431,-21.95024 -4.73073,-12.29978 -4.73073,-25.35643 0,-13.24584 4.91992,-25.54554 5.1091,-12.29979 14.00279,-21.57185 9.08288,-9.46136 21.38257,-14.94894 12.29979,-5.67678 26.87025,-5.67678 14.94884,0 27.24863,5.86597 12.2997,5.86606 21.0041,15.51661 8.70449,9.65054 13.43512,21.95033 4.73073,12.29969 4.73073,24.97787 0,13.24593 -5.1092,25.54562 -4.91982,12.29979 -13.81351,21.76105 -8.89369,9.27217 -21.19338,14.94894 -12.29979,5.67678 -26.87016,5.67678 z M 459.3347,172.98731 q 0,7.75836 2.27067,15.13813 2.27077,7.19059 6.62302,12.86746 4.54144,5.67678 11.16436,9.08288 6.62292,3.4061 15.13812,3.4061 8.89369,0 15.51661,-3.59539 6.62292,-3.59529 10.97517,-9.27207 4.35215,-5.86606 6.43363,-13.05664 2.27077,-7.37988 2.27077,-14.94894 0,-7.75826 -2.27077,-14.94885 -2.27067,-7.37987 -6.81211,-12.86745 -4.54144,-5.67678 -11.16436,-8.89369 -6.43373,-3.40601 -14.94894,-3.40601 -8.89368,0 -15.5166,3.5953 -6.43373,3.4061 -10.97517,9.08287 -4.35215,5.67678 -6.62292,13.05665 -2.08148,7.19059 -2.08148,14.75965 z" />
    <path
       inkscape:connector-curvature="0"
       id="path5506"
       style="font-style:normal;font-variant:normal;font-weight:800;font-stretch:normal;font-size:medium;line-height:89.99999762%;font-family:Raleway;-inkscape-font-specification:'Raleway Ultra-Bold';letter-spacing:0px;word-spacing:0px;fill:#7d7d7d;fill-opacity:1;stroke:none;stroke-width:1px;stroke-linecap:butt;stroke-linejoin:miter;stroke-opacity:1"
       d="m 579.26015,239.97356 0,-134.35097 60.55251,0 q 9.46136,0 17.4089,3.97377 8.13673,3.97377 14.00279,10.4075 5.86597,6.43373 9.08288,14.57046 3.40601,8.13674 3.40601,16.46266 0,6.24454 -1.51382,12.1106 -1.51381,5.67677 -4.35215,10.78588 -2.83843,5.10911 -7.0014,9.27207 -3.97377,3.97377 -9.08287,6.8122 l 29.5193,49.95583 -35.00689,0 -25.73482,-43.33291 -20.24733,0 0,43.33291 -31.03311,0 z m 31.03311,-70.39235 28.38407,0 q 5.48758,0 9.46135,-5.10911 3.97377,-5.29829 3.97377,-13.43512 0,-8.32592 -4.54144,-13.24584 -4.54144,-4.91992 -9.83983,-4.91992 l -27.43792,0 0,36.70999 z" />
    <path
       inkscape:connector-curvature="0"
       id="path5508"
       style="font-style:normal;font-variant:normal;font-weight:800;font-stretch:normal;font-size:medium;line-height:89.99999762%;font-family:Raleway;-inkscape-font-specification:'Raleway Ultra-Bold';letter-spacing:0px;word-spacing:0px;fill:#7d7d7d;fill-opacity:1;stroke:none;stroke-width:1px;stroke-linecap:butt;stroke-linejoin:miter;stroke-opacity:1"
       d="m 800.45137,212.72493 0,27.24863 -94.42417,0 0,-134.35097 92.72107,0 0,27.24863 -61.68786,0 0,26.1133 52.98346,0 0,25.16715 -52.98346,0 0,28.57326 63.39096,0 z" />
  </g>
</svg>
