<?xml version="1.0" encoding="UTF-8" standalone="no"?>
<!-- Created with Inkscape (http://www.inkscape.org/) -->

<svg
   xmlns:dc="http://purl.org/dc/elements/1.1/"
   xmlns:cc="http://creativecommons.org/ns#"
   xmlns:rdf="http://www.w3.org/1999/02/22-rdf-syntax-ns#"
   xmlns:svg="http://www.w3.org/2000/svg"
   xmlns="http://www.w3.org/2000/svg"
   xmlns:sodipodi="http://sodipodi.sourceforge.net/DTD/sodipodi-0.dtd"
   xmlns:inkscape="http://www.inkscape.org/namespaces/inkscape"
   width="178"
   height="150"
   id="svg8313"
   version="1.1"
   inkscape:version="0.91 r13725"
   sodipodi:docname="openbeautyfacts-logo-fr.svg"
   inkscape:export-filename="C:\Users\Stéphane\Desktop\Blogs\OpenBeautyFacts\openbeautyfacts-logo-fr-712x600.png"
   inkscape:export-xdpi="360"
   inkscape:export-ydpi="360">
  <defs
     id="defs8315" />
  <sodipodi:namedview
     id="base"
     pagecolor="#ffffff"
     bordercolor="#666666"
     borderopacity="1.0"
     inkscape:pageopacity="0.0"
     inkscape:pageshadow="2"
     inkscape:zoom="3.1916204"
     inkscape:cx="4.0344551"
     inkscape:cy="69.217839"
     inkscape:document-units="px"
     inkscape:current-layer="layer1"
     showgrid="true"
     inkscape:window-width="1920"
     inkscape:window-height="1018"
     inkscape:window-x="-8"
     inkscape:window-y="-8"
     inkscape:window-maximized="1"
     inkscape:snap-global="true">
    <inkscape:grid
       type="xygrid"
       id="grid8566" />
  </sodipodi:namedview>
  <metadata
     id="metadata8318">
    <rdf:RDF>
      <cc:Work
         rdf:about="">
        <dc:format>image/svg+xml</dc:format>
        <dc:type
           rdf:resource="http://purl.org/dc/dcmitype/StillImage" />
        <dc:title></dc:title>
      </cc:Work>
    </rdf:RDF>
  </metadata>
  <g
     inkscape:label="Calque 1"
     inkscape:groupmode="layer"
     id="layer1">
    <g
       transform="scale(0.90339875,1.1069309)"
       style="font-style:normal;font-variant:normal;font-weight:normal;font-stretch:normal;font-size:36.56135178px;line-height:125%;font-family:'Arial Narrow';-inkscape-font-specification:'Arial Narrow';letter-spacing:0px;word-spacing:0px;fill:#333333;fill-opacity:1;stroke:none"
       id="text3715-8">
      <path
         d="m 0.81209114,126.26716 0,-11.96239 1.19950296,0 0,11.96239 -1.19950296,0 z"
         style="font-size:16.71144295px;fill:#333333;fill-opacity:1"
         id="path6070" />
      <path
         d="m 3.8883675,118.53975 -0.3100756,-2.23581 0,-1.99917 1.3708605,0 0,1.99917 -0.3182355,2.23581 -0.7425494,0 z"
         style="font-size:16.71144295px;fill:#333333;fill-opacity:1"
         id="path6072" />
      <path
         d="m 6.52401,115.99386 0,-1.68909 1.199503,0 0,1.68909 -1.199503,0 z m 0,10.2733 0,-8.6658 1.199503,0 0,8.6658 -1.199503,0 z"
         style="font-size:16.71144295px;fill:#333333;fill-opacity:1"
         id="path6074" />
      <path
         d="m 9.5594867,126.26716 0,-8.6658 1.0852643,0 0,1.23214 q 0.391675,-0.71807 0.954707,-1.06894 0.571192,-0.35904 1.305581,-0.35904 0.571192,0 1.052625,0.22848 0.489593,0.22032 0.783349,0.58751 0.301916,0.35904 0.448794,0.93839 0.146878,0.57935 0.146878,1.77885 l 0,5.32841 -1.207663,0 0,-5.27129 q 0,-0.9547 -0.163198,-1.39534 -0.163198,-0.44063 -0.514073,-0.67727 -0.342715,-0.24479 -0.799668,-0.24479 -0.864948,0 -1.379021,0.64463 -0.514072,0.64463 -0.514072,2.21133 l 0,4.73273 -1.1995033,0 z"
         style="font-size:16.71144295px;fill:#333333;fill-opacity:1"
         id="path6076" />
      <path
         d="m 17.539853,126.26716 0,-7.52341 -1.068945,0 0,-1.14239 1.068945,0 0,-0.92207 q 0,-1.01998 0.212157,-1.52589 0.212157,-0.51408 0.644631,-0.78335 0.440634,-0.26928 1.101584,-0.26928 0.514073,0 1.126065,0.14688 l -0.179518,1.2811 q -0.375355,-0.0816 -0.70991,-0.0816 -0.538552,0 -0.775189,0.2856 -0.228477,0.27743 -0.228477,1.06894 l 0,0.79967 1.387181,0 0,1.14239 -1.387181,0 0,7.52341 -1.191343,0 z"
         style="font-size:16.71144295px;fill:#333333;fill-opacity:1"
         id="path6078" />
      <path
         d="m 20.567171,121.93426 q 0,-2.24397 0.938387,-3.38635 0.946546,-1.14239 2.390846,-1.14239 1.41982,0 2.374526,1.14239 0.954707,1.14238 0.954707,3.29659 0,2.33373 -0.938387,3.47611 -0.938387,1.14239 -2.390846,1.14239 -1.42798,0 -2.382686,-1.14239 -0.946547,-1.15054 -0.946547,-3.38635 z m 1.232143,0 q 0,1.68094 0.611991,2.50508 0.611991,0.81599 1.517738,0.81599 0.848628,0 1.45246,-0.82415 0.611991,-0.8323 0.611991,-2.49692 0,-1.67278 -0.611991,-2.48876 -0.611991,-0.82415 -1.517739,-0.82415 -0.856787,0 -1.460619,0.82415 -0.603831,0.82414 -0.603831,2.48876 z"
         style="font-size:16.71144295px;fill:#333333;fill-opacity:1"
         id="path6080" />
      <path
         d="m 28.653616,126.26716 0,-8.6658 1.085265,0 0,1.31374 q 0.416154,-0.9139 0.758869,-1.20766 0.350875,-0.30192 0.783349,-0.30192 0.603831,0 1.232143,0.47328 l -0.407995,1.3627 q -0.448793,-0.31824 -0.873107,-0.31824 -0.383515,0 -0.70175,0.26928 -0.318236,0.26928 -0.448794,0.75071 -0.228477,0.84047 -0.228477,1.78701 l 0,4.5369 -1.199503,0 z"
         style="font-size:16.71144295px;fill:#333333;fill-opacity:1"
         id="path6082" />
      <path
         d="m 33.239472,126.26716 0,-8.6658 1.077105,0 0,1.21582 q 0.359035,-0.67727 0.922067,-1.04446 0.563032,-0.3672 1.232142,-0.3672 0.75071,0 1.264782,0.39168 0.522233,0.38351 0.74255,1.12606 0.424314,-0.75887 0.971026,-1.13422 0.554872,-0.38352 1.223983,-0.38352 1.019985,0 1.607497,0.69359 0.587512,0.69359 0.587512,2.21949 l 0,5.94856 -1.199503,0 0,-5.45896 q 0,-0.93023 -0.138718,-1.31375 -0.130559,-0.39167 -0.432474,-0.60383 -0.301916,-0.21215 -0.677271,-0.21215 -0.775189,0 -1.264782,0.62015 -0.489593,0.61199 -0.489593,1.93389 l 0,5.03465 -1.207663,0 0,-5.63032 q 0,-1.07711 -0.334555,-1.51774 -0.326395,-0.44063 -0.905747,-0.44063 -0.824148,0 -1.305582,0.66911 -0.473273,0.66095 -0.473273,2.42348 l 0,4.4961 -1.199503,0 z"
         style="font-size:16.71144295px;fill:#333333;fill-opacity:1"
         id="path6084" />
      <path
         d="m 49.281802,125.19821 q -0.603831,0.62831 -1.256622,0.94655 -0.65279,0.31824 -1.35454,0.31824 -1.109745,0 -1.770695,-0.66911 -0.660951,-0.66912 -0.660951,-1.80334 0,-0.75071 0.310076,-1.33006 0.310075,-0.57935 0.848628,-0.90575 0.538552,-0.32639 1.631976,-0.48143 1.46878,-0.21216 2.15421,-0.50591 l 0.0082,-0.37536 q 0,-0.88943 -0.318236,-1.24846 -0.448793,-0.52223 -1.37902,-0.52223 -0.840468,0 -1.256622,0.35087 -0.416154,0.34272 -0.611992,1.29742 l -1.183183,-0.19583 q 0.252957,-1.39534 1.019986,-2.03181 0.775189,-0.63648 2.211328,-0.63648 1.117904,0 1.754375,0.42432 0.636471,0.41615 0.799669,1.0363 0.171358,0.62015 0.171358,1.8115 l 0,1.95837 q 0,2.05629 0.07344,2.59484 0.0816,0.5304 0.310075,1.03631 l -1.256622,0 q -0.187677,-0.4488 -0.244797,-1.06895 z m -0.09792,-3.28027 q -0.660951,0.3264 -1.966532,0.55487 -0.758869,0.13056 -1.060785,0.30192 -0.301916,0.1632 -0.473273,0.47327 -0.163198,0.30192 -0.163198,0.70175 0,0.62015 0.383514,0.99551 0.383515,0.36719 1.060785,0.36719 0.644631,0 1.166864,-0.33455 0.530392,-0.33456 0.791509,-0.88943 0.261116,-0.56303 0.261116,-1.63198 l 0,-0.53855 z"
         style="font-size:16.71144295px;fill:#333333;fill-opacity:1"
         id="path6086" />
      <path
         d="m 54.969243,124.95342 0.163198,1.29742 q -0.497753,0.13056 -0.897587,0.13056 -0.628311,0 -1.011826,-0.2448 -0.383514,-0.25296 -0.530392,-0.68543 -0.138718,-0.43247 -0.138718,-1.72174 l 0,-4.98568 -0.881268,0 0,-1.14239 0.881268,0 0,-2.14605 1.199503,-0.88127 0,3.02732 1.215822,0 0,1.14239 -1.215822,0 0,5.06728 q 0,0.70175 0.106078,0.90575 0.155038,0.29376 0.579352,0.29376 0.203997,0 0.530392,-0.0571 z"
         style="font-size:16.71144295px;fill:#333333;fill-opacity:1"
         id="path6088" />
      <path
         d="m 56.103466,115.99386 0,-1.68909 1.199503,0 0,1.68909 -1.199503,0 z m 0,10.2733 0,-8.6658 1.199503,0 0,8.6658 -1.199503,0 z"
         style="font-size:16.71144295px;fill:#333333;fill-opacity:1"
         id="path6090" />
      <path
         d="m 58.690149,121.93426 q 0,-2.24397 0.938387,-3.38635 0.946547,-1.14239 2.390846,-1.14239 1.41982,0 2.374526,1.14239 0.954707,1.14238 0.954707,3.29659 0,2.33373 -0.938387,3.47611 -0.938386,1.14239 -2.390846,1.14239 -1.42798,0 -2.382686,-1.14239 -0.946547,-1.15054 -0.946547,-3.38635 z m 1.232143,0 q 0,1.68094 0.611991,2.50508 0.611992,0.81599 1.517739,0.81599 0.848628,0 1.452459,-0.82415 0.611991,-0.8323 0.611991,-2.49692 0,-1.67278 -0.611991,-2.48876 -0.611991,-0.82415 -1.517738,-0.82415 -0.856788,0 -1.46062,0.82415 -0.603831,0.82414 -0.603831,2.48876 z"
         style="font-size:16.71144295px;fill:#333333;fill-opacity:1"
         id="path6092" />
      <path
         d="m 66.776593,126.26716 0,-8.6658 1.085264,0 0,1.23214 q 0.391675,-0.71807 0.954707,-1.06894 0.571192,-0.35904 1.305581,-0.35904 0.571192,0 1.052625,0.22848 0.489593,0.22032 0.783349,0.58751 0.301916,0.35904 0.448794,0.93839 0.146878,0.57935 0.146878,1.77885 l 0,5.32841 -1.207663,0 0,-5.27129 q 0,-0.9547 -0.163198,-1.39534 -0.163198,-0.44063 -0.514073,-0.67727 -0.342715,-0.24479 -0.799668,-0.24479 -0.864948,0 -1.379021,0.64463 -0.514072,0.64463 -0.514072,2.21133 l 0,4.73273 -1.199503,0 z"
         style="font-size:16.71144295px;fill:#333333;fill-opacity:1"
         id="path6094" />
      <path
         d="m 82.892368,123.09296 1.183184,0.18768 q -0.203997,1.55038 -1.028146,2.36637 -0.815988,0.81599 -1.966532,0.81599 -1.39534,0 -2.301087,-1.14239 -0.897588,-1.15054 -0.897588,-3.39451 0,-2.26029 0.905748,-3.38635 0.913907,-1.13423 2.341886,-1.13423 1.101585,0 1.852294,0.68543 0.758869,0.68543 0.971026,2.0563 l -1.166863,0.22031 q -0.171358,-0.88127 -0.595672,-1.31374 -0.424314,-0.44063 -1.019985,-0.44063 -0.889428,0 -1.476939,0.79151 -0.579352,0.78334 -0.579352,2.49692 0,1.7707 0.554872,2.5622 0.563032,0.79151 1.43614,0.79151 0.68543,0 1.166863,-0.52223 0.489593,-0.53039 0.620151,-1.64014 z"
         style="font-size:16.71144295px;fill:#333333;fill-opacity:1"
         id="path6096" />
      <path
         d="m 84.638582,121.93426 q 0,-2.24397 0.938387,-3.38635 0.946547,-1.14239 2.390846,-1.14239 1.41982,0 2.374526,1.14239 0.954707,1.14238 0.954707,3.29659 0,2.33373 -0.938387,3.47611 -0.938387,1.14239 -2.390846,1.14239 -1.42798,0 -2.382686,-1.14239 -0.946547,-1.15054 -0.946547,-3.38635 z m 1.232143,0 q 0,1.68094 0.611991,2.50508 0.611991,0.81599 1.517739,0.81599 0.848628,0 1.452459,-0.82415 0.611991,-0.8323 0.611991,-2.49692 0,-1.67278 -0.611991,-2.48876 -0.611991,-0.82415 -1.517738,-0.82415 -0.856788,0 -1.46062,0.82415 -0.603831,0.82414 -0.603831,2.48876 z"
         style="font-size:16.71144295px;fill:#333333;fill-opacity:1"
         id="path6098" />
      <path
         d="m 92.268072,123.68048 1.191343,-0.22848 q 0.106079,0.91391 0.579352,1.3627 0.473273,0.44063 1.256622,0.44063 0.783349,0 1.207663,-0.38351 0.432474,-0.39168 0.432474,-0.98735 0,-0.51407 -0.367195,-0.79967 -0.252956,-0.19583 -1.223983,-0.48959 -1.4035,-0.43247 -1.876773,-0.73439 -0.473273,-0.30191 -0.73439,-0.80783 -0.261116,-0.50591 -0.261116,-1.15054 0,-1.10975 0.70991,-1.80334 0.70991,-0.69359 1.966532,-0.69359 0.791509,0 1.38718,0.2856 0.603832,0.2856 0.922067,0.76703 0.318236,0.48143 0.440634,1.37902 l -1.175023,0.19584 q -0.163198,-1.41982 -1.542218,-1.41982 -0.783349,0 -1.166864,0.31823 -0.383514,0.31008 -0.383514,0.79967 0,0.48143 0.367194,0.75887 0.220317,0.1632 1.305582,0.52223 1.493259,0.48144 1.933892,0.76703 0.440634,0.27744 0.685431,0.76703 0.244796,0.48143 0.244796,1.15054 0,1.24031 -0.791509,2.00734 -0.783348,0.76703 -2.146049,0.76703 -2.554044,0 -2.962038,-2.79068 z"
         style="font-size:16.71144295px;fill:#333333;fill-opacity:1"
         id="path6100" />
      <path
         d="m 99.595647,126.26716 0,-8.6658 1.077103,0 0,1.21582 q 0.35904,-0.67727 0.92207,-1.04446 0.56303,-0.3672 1.23214,-0.3672 0.75071,0 1.26478,0.39168 0.52224,0.38351 0.74255,1.12606 0.42432,-0.75887 0.97103,-1.13422 0.55487,-0.38352 1.22398,-0.38352 1.01999,0 1.6075,0.69359 0.58751,0.69359 0.58751,2.21949 l 0,5.94856 -1.1995,0 0,-5.45896 q 0,-0.93023 -0.13872,-1.31375 -0.13056,-0.39167 -0.43247,-0.60383 -0.30192,-0.21215 -0.67728,-0.21215 -0.77518,0 -1.26478,0.62015 -0.48959,0.61199 -0.48959,1.93389 l 0,5.03465 -1.20766,0 0,-5.63032 q 0,-1.07711 -0.33456,-1.51774 -0.32639,-0.44063 -0.90575,-0.44063 -0.82414,0 -1.30558,0.66911 -0.47327,0.66095 -0.47327,2.42348 l 0,4.4961 -1.199503,0 z"
         style="font-size:16.71144295px;fill:#333333;fill-opacity:1"
         id="path6102" />
      <path
         d="m 115.86645,123.47648 1.24031,0.18768 q -0.31008,1.38718 -1.12607,2.09709 -0.80783,0.70175 -2.00733,0.70175 -1.50958,0 -2.44796,-1.14239 -0.93023,-1.15054 -0.93023,-3.31291 0,-2.24397 0.93839,-3.41899 0.94654,-1.18319 2.39084,-1.18319 1.37902,0 2.30109,1.15871 0.92207,1.1587 0.92207,3.35371 l -0.008,0.39167 -5.30393,0 q 0.0734,1.46062 0.67727,2.20317 0.60383,0.74255 1.46878,0.74255 1.35454,0 1.88493,-1.77885 z m -3.95754,-2.37453 3.9657,0 q -0.0816,-1.12606 -0.48143,-1.68093 -0.57935,-0.80783 -1.47694,-0.80783 -0.80783,0 -1.37902,0.67727 -0.57119,0.66911 -0.62831,1.81149 z m 1.10974,-4.57769 0.88943,-2.28477 1.57486,0 -1.46878,2.28477 -0.99551,0 z"
         style="font-size:16.71144295px;fill:#333333;fill-opacity:1"
         id="path6104" />
      <path
         d="m 121.32542,124.95342 0.1632,1.29742 q -0.49775,0.13056 -0.89759,0.13056 -0.62831,0 -1.01182,-0.2448 -0.38352,-0.25296 -0.5304,-0.68543 -0.13871,-0.43247 -0.13871,-1.72174 l 0,-4.98568 -0.88127,0 0,-1.14239 0.88127,0 0,-2.14605 1.1995,-0.88127 0,3.02732 1.21582,0 0,1.14239 -1.21582,0 0,5.06728 q 0,0.70175 0.10608,0.90575 0.15504,0.29376 0.57935,0.29376 0.204,0 0.53039,-0.0571 z"
         style="font-size:16.71144295px;fill:#333333;fill-opacity:1"
         id="path6106" />
      <path
         d="m 122.45964,115.99386 0,-1.68909 1.19951,0 0,1.68909 -1.19951,0 z m 0,10.2733 0,-8.6658 1.19951,0 0,8.6658 -1.19951,0 z"
         style="font-size:16.71144295px;fill:#333333;fill-opacity:1"
         id="path6108" />
      <path
         d="m 130.02386,129.58823 0,-4.24314 q -0.2856,0.49775 -0.79967,0.80783 -0.50591,0.31008 -1.01999,0.31008 -1.27294,0 -2.20317,-1.20767 -0.93022,-1.20766 -0.93022,-3.40267 0,-1.90941 0.78335,-3.17419 0.78335,-1.27295 2.21948,-1.27295 0.66096,0 1.17503,0.34272 0.51407,0.33455 0.88943,1.01182 l 0,-1.1587 1.08526,0 0,11.98687 -1.1995,0 z m -3.72091,-7.67845 q 0,1.6891 0.58751,2.5214 0.58751,0.82415 1.4035,0.82415 0.72623,0 1.28926,-0.79151 0.56304,-0.79966 0.56304,-2.37452 0,-1.78702 -0.59568,-2.65196 -0.58751,-0.87311 -1.4035,-0.87311 -0.74255,0 -1.29742,0.81599 -0.54671,0.80782 -0.54671,2.52956 z"
         style="font-size:16.71144295px;fill:#333333;fill-opacity:1"
         id="path6110" />
      <path
         d="m 137.79206,126.26716 0,-1.27294 q -0.41615,0.73439 -0.97918,1.10158 -0.56303,0.3672 -1.27294,0.3672 -0.84047,0 -1.43614,-0.4488 -0.59567,-0.45695 -0.79967,-1.15054 -0.19584,-0.69359 -0.19584,-1.89309 l 0,-5.36921 1.1995,0 0,4.80617 q 0,1.33822 0.13056,1.79518 0.13872,0.44879 0.49776,0.72623 0.36719,0.26927 0.8323,0.26927 0.86495,0 1.41982,-0.70991 0.47328,-0.61199 0.47328,-2.24396 l 0,-4.64298 1.20766,0 0,8.6658 -1.07711,0 z"
         style="font-size:16.71144295px;fill:#333333;fill-opacity:1"
         id="path6112" />
      <path
         d="m 145.63371,123.47648 1.2403,0.18768 q -0.31007,1.38718 -1.12606,2.09709 -0.80783,0.70175 -2.00733,0.70175 -1.50958,0 -2.44797,-1.14239 -0.93022,-1.15054 -0.93022,-3.31291 0,-2.24397 0.93838,-3.41899 0.94655,-1.18319 2.39085,-1.18319 1.37902,0 2.30109,1.15871 0.92206,1.1587 0.92206,3.35371 l -0.008,0.39167 -5.30392,0 q 0.0734,1.46062 0.67727,2.20317 0.60383,0.74255 1.46878,0.74255 1.35454,0 1.88493,-1.77885 z m -3.95754,-2.37453 3.9657,0 q -0.0816,-1.12606 -0.48143,-1.68093 -0.57935,-0.80783 -1.47694,-0.80783 -0.80783,0 -1.37902,0.67727 -0.57119,0.66911 -0.62831,1.81149 z"
         style="font-size:16.71144295px;fill:#333333;fill-opacity:1"
         id="path6114" />
      <path
         d="m 151.77811,121.93426 q 0,-2.24397 0.93839,-3.38635 0.94654,-1.14239 2.39084,-1.14239 1.41982,0 2.37453,1.14239 0.9547,1.14238 0.9547,3.29659 0,2.33373 -0.93838,3.47611 -0.93839,1.14239 -2.39085,1.14239 -1.42798,0 -2.38268,-1.14239 -0.94655,-1.15054 -0.94655,-3.38635 z m 1.23214,0 q 0,1.68094 0.61199,2.50508 0.61199,0.81599 1.51774,0.81599 0.84863,0 1.45246,-0.82415 0.61199,-0.8323 0.61199,-2.49692 0,-1.67278 -0.61199,-2.48876 -0.61199,-0.82415 -1.51774,-0.82415 -0.85679,0 -1.46062,0.82415 -0.60383,0.82414 -0.60383,2.48876 z"
         style="font-size:16.71144295px;fill:#333333;fill-opacity:1"
         id="path6116" />
      <path
         d="m 164.52385,126.26716 0,-1.27294 q -0.41616,0.73439 -0.97919,1.10158 -0.56303,0.3672 -1.27294,0.3672 -0.84047,0 -1.43614,-0.4488 -0.59567,-0.45695 -0.79967,-1.15054 -0.19584,-0.69359 -0.19584,-1.89309 l 0,-5.36921 1.19951,0 0,4.80617 q 0,1.33822 0.13055,1.79518 0.13872,0.44879 0.49776,0.72623 0.36719,0.26927 0.8323,0.26927 0.86495,0 1.41982,-0.70991 0.47328,-0.61199 0.47328,-2.24396 l 0,-4.64298 1.20766,0 0,8.6658 -1.0771,0 z"
         style="font-size:16.71144295px;fill:#333333;fill-opacity:1"
         id="path6118" />
      <path
         d="m 169.49321,126.26716 -2.70092,-8.6658 1.27294,0 1.5259,5.18969 q 0.26112,0.88127 0.45696,1.74621 0.15503,-0.68543 0.44063,-1.64829 l 1.58302,-5.28761 1.2403,0 -2.69276,8.6658 -1.12607,0 z"
         style="font-size:16.71144295px;fill:#333333;fill-opacity:1"
         id="path6120" />
      <path
         d="m 179.2198,123.47648 1.2403,0.18768 q -0.31007,1.38718 -1.12606,2.09709 -0.80783,0.70175 -2.00733,0.70175 -1.50958,0 -2.44797,-1.14239 -0.93022,-1.15054 -0.93022,-3.31291 0,-2.24397 0.93838,-3.41899 0.94655,-1.18319 2.39085,-1.18319 1.37902,0 2.30109,1.15871 0.92206,1.1587 0.92206,3.35371 l -0.008,0.39167 -5.30392,0 q 0.0734,1.46062 0.67727,2.20317 0.60383,0.74255 1.46878,0.74255 1.35454,0 1.88493,-1.77885 z m -3.95754,-2.37453 3.9657,0 q -0.0816,-1.12606 -0.48143,-1.68093 -0.57935,-0.80783 -1.47694,-0.80783 -0.80783,0 -1.37902,0.67727 -0.57119,0.66911 -0.62831,1.81149 z"
         style="font-size:16.71144295px;fill:#333333;fill-opacity:1"
         id="path6122" />
      <path
         d="m 181.99416,126.26716 0,-8.6658 1.08526,0 0,1.31374 q 0.41616,-0.9139 0.75887,-1.20766 0.35088,-0.30192 0.78335,-0.30192 0.60383,0 1.23215,0.47328 l -0.408,1.3627 q -0.44879,-0.31824 -0.87311,-0.31824 -0.38351,0 -0.70175,0.26928 -0.31823,0.26928 -0.44879,0.75071 -0.22848,0.84047 -0.22848,1.78701 l 0,4.5369 -1.1995,0 z"
         style="font-size:16.71144295px;fill:#333333;fill-opacity:1"
         id="path6124" />
      <path
         d="m 189.2483,124.95342 0.16319,1.29742 q -0.49775,0.13056 -0.89758,0.13056 -0.62831,0 -1.01183,-0.2448 -0.38351,-0.25296 -0.53039,-0.68543 -0.13872,-0.43247 -0.13872,-1.72174 l 0,-4.98568 -0.88127,0 0,-1.14239 0.88127,0 0,-2.14605 1.1995,-0.88127 0,3.02732 1.21583,0 0,1.14239 -1.21583,0 0,5.06728 q 0,0.70175 0.10608,0.90575 0.15504,0.29376 0.57935,0.29376 0.204,0 0.5304,-0.0571 z"
         style="font-size:16.71144295px;fill:#333333;fill-opacity:1"
         id="path6126" />
      <path
         d="m 195.2458,123.47648 1.2403,0.18768 q -0.31007,1.38718 -1.12606,2.09709 -0.80783,0.70175 -2.00733,0.70175 -1.50958,0 -2.44797,-1.14239 -0.93022,-1.15054 -0.93022,-3.31291 0,-2.24397 0.93838,-3.41899 0.94655,-1.18319 2.39085,-1.18319 1.37902,0 2.30109,1.15871 0.92206,1.1587 0.92206,3.35371 l -0.008,0.39167 -5.30392,0 q 0.0734,1.46062 0.67727,2.20317 0.60383,0.74255 1.46878,0.74255 1.35454,0 1.88493,-1.77885 z m -3.95754,-2.37453 3.9657,0 q -0.0816,-1.12606 -0.48143,-1.68093 -0.57935,-0.80783 -1.47694,-0.80783 -0.80783,0 -1.37902,0.67727 -0.57119,0.66911 -0.62831,1.81149 z"
         style="font-size:16.71144295px;fill:#333333;fill-opacity:1"
         id="path6128" />
    </g>
    <rect
       style="fill:none"
       id="rect3725"
       width="1"
       height="1"
       x="1"
       y="140"
       inkscape:export-filename="C:\Users\Stéphane\Desktop\Blogs\OpenFoodFacts\test-178.png"
       inkscape:export-xdpi="90"
       inkscape:export-ydpi="90" />
    <g
       id="g6033"
       transform="translate(65.7422,151.15413)">
      <path
         style="fill:#0066ff;fill-opacity:1;fill-rule:nonzero;stroke:none"
         d="m 108.2578,-134.15413 0,1.25 0,29.34375 0,47.40625 1,0 0,-78 z m 2,0 0,78 2,0 0,-78 z m -3,37 c -3,10 -3,8.06339 -3,23 l 0,18 3,0 z"
         id="path12151"
         inkscape:connector-curvature="0"
         sodipodi:nodetypes="ccccccccccccccccc"
         inkscape:export-filename="C:\Users\Stéphane\Desktop\Blogs\OpenBeautyFacts\openbeautyfacts-logo-fr.png"
         inkscape:export-xdpi="89.999992"
         inkscape:export-ydpi="89.999992" />
      <path
         style="fill:#00ccff;fill-opacity:1;fill-rule:evenodd;stroke:none"
         d="m 84.2578,-120.15413 4,55.65217 0,8.34783 3,0 0,-64 -3,0 z m 8,0 0,64 4,0 0,-64 z m 5,0 0,64 1,0 0,-64 z m 2,0 0,64 2,0 0,-8.34783 4,-55.65217 -4,0 z"
         id="path12155"
         inkscape:connector-curvature="0"
         sodipodi:nodetypes="cccccccccccccccccccccccc"
         inkscape:export-filename="C:\Users\Stéphane\Desktop\Blogs\OpenBeautyFacts\openbeautyfacts-logo-fr.png"
         inkscape:export-xdpi="89.999992"
         inkscape:export-ydpi="89.999992" />
      <path
         inkscape:connector-curvature="0"
         style="fill:#00d400;fill-opacity:1;fill-rule:evenodd;stroke:none"
         d="m 44.2578,-113.15413 0,57 1,0 0,-57 -1,0 z m 2,0 0,57 1,0 0,-57 -1,0 z m 4,0 0,57 2,0 0,-57 -2,0 z m 5,0 0,57 1,0 0,-57 -1,0 z m 4,0 0,57 1,0 0,-57 -1,0 z m 4,0 0,57 2,0 0,-57 -2,0 z m 3,0 0,57 2,0 0,-57 -2,0 z m 3,0 0,57 3,0 0,-56.4375 c -0.33707,-0.16585 -0.68515,-0.31888 -1.03125,-0.46875 0.002,-0.0306 -0.002,-0.0632 0,-0.0937 l -1.96875,0 z m -26,0.0937 c -0.33724,0.14652 -0.67134,0.30704 -1,0.46875 l 0,56.4375 1,0 0,-56.90625 z m -4,2.25 c -0.69601,0.48378 -1.36246,1.00762 -2,1.5625 l 0,53.09375 2,0 0,-54.65625 z m 36,0 0,54.65625 1,0 0,-53.9375 c -0.32365,-0.25126 -0.66298,-0.4845 -1,-0.71875 z m 2,1.5625 0,53.09375 2,0 0,-51.125 c -0.62899,-0.69721 -1.29148,-1.3521 -2,-1.96875 z m -43,3.125 c -0.35282,0.44603 -0.68007,0.90323 -1,1.375 l 0,48.59375 1,0 0,-49.96875 z m 46,0 0,49.96875 3,0 0,-44.96875 c -0.79731,-1.79981 -1.79497,-3.47659 -3,-5 z m 4,7.6875 0,42.28125 1,0 0,-35.5 c 0,-2.35858 -0.35465,-4.63934 -1,-6.78125 z m -54.03125,0.0625 c -0.5928,1.98873 -0.92874,4.10406 -0.96875,6.28125 -0.003,0.14674 0,0.29008 0,0.4375 l 0.0312,35.5 0.96875,0 -0.0312,-42.21875 z"
         id="path12157"
         inkscape:export-filename="C:\Users\Stéphane\Desktop\Blogs\OpenBeautyFacts\openbeautyfacts-logo-fr.png"
         inkscape:export-xdpi="89.999992"
         inkscape:export-ydpi="89.999992" />
      <text
         inkscape:export-ydpi="89.999992"
         inkscape:export-xdpi="89.999992"
         inkscape:export-filename="C:\Users\Stéphane\Desktop\Blogs\OpenBeautyFacts\openbeautyfacts-logo-fr.png"
         xml:space="preserve"
         style="font-style:normal;font-variant:normal;font-weight:normal;font-stretch:normal;font-size:31.59649849px;line-height:125%;font-family:'Arial Narrow';-inkscape-font-specification:'Arial Narrow';letter-spacing:0px;word-spacing:0px;fill:#333333;fill-opacity:1;stroke:none"
         x="-71.390884"
         y="-33.571266"
         id="text12163"
         sodipodi:linespacing="125%"
         transform="scale(0.92864418,1.0768387)"><tspan
           style="font-size:22.05091286px;fill:#333333;fill-opacity:1"
           sodipodi:role="line"
           id="tspan12165"
           x="-71.390884"
           y="-33.571266">OPEN BEAUTY FACTS</tspan></text>
      <path
         style="fill:#ff0000;fill-opacity:1;fill-rule:evenodd;stroke:none"
         d="m -53.31795,-147.90413 c -3.13312,-0.0516 -5.63149,3.14302 -6.42425,12.75 l 0,22.71875 22,0 0,-22.71875 c -3.44249,-3.55006 -10.3539,-12.66396 -15.57575,-12.75 z"
         id="path12167"
         inkscape:connector-curvature="0"
         inkscape:export-filename="C:\Users\Stéphane\Desktop\Blogs\OpenBeautyFacts\openbeautyfacts-logo-fr.png"
         inkscape:export-xdpi="89.999992"
         inkscape:export-ydpi="89.999992" />
      <path
         style="fill:#ff0000;fill-opacity:1;fill-rule:nonzero;stroke:none"
         d="m -46.7422,-117.97846 0,61.82433 2,0 0,-61.82433 -2,0 z m -4,0.82433 0,61 3,0 0,-61 -3,0 z m -15,4.12162 0,56.87838 2,0 0,-56.87838 -2,0 z m 3,0 0,56.87838 1,0 0,-56.87838 -1,0 z m 5,0 0,56.87838 1,0 0,-56.87838 -1,0 z m 3,0 0,56.87838 1,0 0,-56.87838 -1,0 z m 11,0 0,56.87838 3,0 0,-56.87838 -3,0 z m 4,0 0,56.87838 3,0 0,-56.87838 -3,0 z m 4,0 0,56.87838 2,0 0,-56.87838 -2,0 z m 3,0 0,56.87838 1,0 0,-56.87838 -1,0 z"
         id="path12169"
         inkscape:connector-curvature="0"
         inkscape:export-filename="C:\Users\Stéphane\Desktop\Blogs\OpenBeautyFacts\openbeautyfacts-logo-fr.png"
         inkscape:export-xdpi="89.999992"
         inkscape:export-ydpi="89.999992" />
      <path
         style="fill:#ffcc00;fill-opacity:1;fill-rule:nonzero;stroke:none"
         d="m -28.7422,-100.15413 0,44 2,0 0,-44 -2,0 z m 3,0 0,44 1,0 0,-44 -1,0 z m 4,0 0,44 1,0 0,-44 -1,0 z m 2,0 0,44 3,0 0,-44 -3,0 z m 6,0 0,44 2,0 0,-44 -2,0 z m 3,0 0,44 1,0 0,-44 -1,0 z m 4,0 0.0312,44 1.9688,0 -0.0312,-44 -1.9688,0 z m 5,0 0,44 1,0 0,-44 -1,0 z m 2,0 0,44 1,0 0,-44 -1,0 z m 4,0 0,44 3,0 0,-44 -3,0 z m 4,0 0,44 2,0 0,-44 -2,0 z m 3,0 0,44 1,0 0,-44 -1,0 z m 4,0 0,44 3,0 0,-44 -3,0 z m 4,0 0,44 2,0 0,-44 -2,0 z m 3,0 0,44 1,0 0,-44 -1,0 z m 2,0 0,44 2,0 0,-44 -2,0 z"
         id="path12171"
         inkscape:connector-curvature="0"
         inkscape:export-filename="C:\Users\Stéphane\Desktop\Blogs\OpenBeautyFacts\openbeautyfacts-logo-fr.png"
         inkscape:export-xdpi="89.999992"
         inkscape:export-ydpi="89.999992" />
      <circle
         r="0.94885141"
         cy="-115.87777"
         cx="93.350121"
         id="path12173"
         style="fill:#00ccff;fill-opacity:1;stroke:none"
         inkscape:export-filename="C:\Users\Stéphane\Desktop\Blogs\OpenBeautyFacts\openbeautyfacts-logo-fr.png"
         inkscape:export-xdpi="89.999992"
         inkscape:export-ydpi="89.999992" />
      <path
         inkscape:connector-curvature="0"
         style="fill:#0066ff;fill-opacity:1;fill-rule:nonzero;stroke:none"
         d="m 104.25784,-33.15413 0,5 c 2.66569,0 5.33424,0 7.99992,0 l 0,-5 c -2.66568,0 -5.33423,0 -7.99983,0 z"
         id="path12175"
         inkscape:export-filename="C:\Users\Stéphane\Desktop\Blogs\OpenBeautyFacts\openbeautyfacts-logo-fr.png"
         inkscape:export-xdpi="89.999992"
         inkscape:export-ydpi="89.999992"
         sodipodi:nodetypes="cccccc" />
      <path
         inkscape:connector-curvature="0"
         style="fill:#00ccff;fill-opacity:1;fill-rule:nonzero;stroke:none"
         d="m 88.25781,-33.15413 0,5 c 4.33407,0 8.6659,0 12.99997,0 l 0,-5 c -4.33407,0 -8.6659,0 -12.99997,0 z"
         id="path12177"
         inkscape:export-filename="C:\Users\Stéphane\Desktop\Blogs\OpenBeautyFacts\openbeautyfacts-logo-fr.png"
         inkscape:export-xdpi="89.999992"
         inkscape:export-ydpi="89.999992"
         sodipodi:nodetypes="ccccc" />
      <path
         inkscape:connector-curvature="0"
         style="fill:#00d400;fill-opacity:1;fill-rule:nonzero;stroke:none"
         d="m 29.2578,-33.15413 0,5 c 18.6596,0 37.34041,0 56.00004,0 l 0,-5 c -18.65963,0 -37.34044,0 -56.00004,0 z"
         id="path12179"
         inkscape:export-filename="C:\Users\Stéphane\Desktop\Blogs\OpenBeautyFacts\openbeautyfacts-logo-fr.png"
         inkscape:export-xdpi="89.999992"
         inkscape:export-ydpi="89.999992"
         sodipodi:nodetypes="ccccc" />
      <path
         inkscape:connector-curvature="0"
         style="fill:#ffcc00;fill-opacity:1;fill-rule:nonzero;stroke:none"
         d="m -28.7422,-33.15413 0,5 c 18.33338,0 36.66662,0 55,0 l 0,-5 c -18.33338,0 -36.66662,0 -55,0 z"
         id="path12181"
         inkscape:export-filename="C:\Users\Stéphane\Desktop\Blogs\OpenBeautyFacts\openbeautyfacts-logo-fr.png"
         inkscape:export-xdpi="89.999992"
         inkscape:export-ydpi="89.999992"
         sodipodi:nodetypes="ccccc" />
      <path
         inkscape:connector-curvature="0"
         style="fill:#ff0000;fill-opacity:1;fill-rule:nonzero;stroke:none"
         d="m -65.7422,-33.15413 0,5 c 11.33371,0 22.6663,0 34,0 l 0,-5 c -11.3337,0 -22.66629,0 -34,0 z"
         id="path12183"
         inkscape:export-filename="C:\Users\Stéphane\Desktop\Blogs\OpenBeautyFacts\openbeautyfacts-logo-fr.png"
         inkscape:export-xdpi="89.999992"
         inkscape:export-ydpi="89.999992"
         sodipodi:nodetypes="ccccc" />
      <rect
         style="fill:#ff0000;fill-opacity:1;fill-rule:evenodd;stroke:none"
         id="rect12187"
         width="1"
         height="3"
         x="-62.74226"
         y="-115.43538"
         inkscape:export-filename="C:\Users\Stéphane\Desktop\Blogs\OpenBeautyFacts\openbeautyfacts-logo-fr.png"
         inkscape:export-xdpi="89.999992"
         inkscape:export-ydpi="89.999992" />
      <path
         style="fill:#ff0000;fill-opacity:1;fill-rule:evenodd;stroke:none"
         d="m -62.7422,-117.15413 14,0 14,0 0,5 -14,0 -14,0 z"
         id="path12191"
         inkscape:connector-curvature="0"
         sodipodi:nodetypes="ccccccc"
         inkscape:export-filename="C:\Users\Stéphane\Desktop\Blogs\OpenBeautyFacts\openbeautyfacts-logo-fr.png"
         inkscape:export-xdpi="89.999992"
         inkscape:export-ydpi="89.999992" />
      <path
         sodipodi:nodetypes="ccccccc"
         inkscape:connector-curvature="0"
         id="path12195"
         d="m -65.7422,-113.15413 17,0 17,0 0,1 -17,0 -17,0 z"
         style="fill:#ff0000;fill-opacity:1;fill-rule:evenodd;stroke:none"
         inkscape:export-filename="C:\Users\Stéphane\Desktop\Blogs\OpenBeautyFacts\openbeautyfacts-logo-fr.png"
         inkscape:export-xdpi="89.999992"
         inkscape:export-ydpi="89.999992" />
      <path
         inkscape:export-ydpi="89.999992"
         inkscape:export-xdpi="89.999992"
         inkscape:export-filename="C:\Users\Stéphane\Desktop\Blogs\OpenBeautyFacts\openbeautyfacts-logo-fr.png"
         id="rect12197"
         d="m -54.7422,-147.65413 c -0.71672,0.26072 -1.39729,0.73547 -2,1.5 l 0,29 2,0 0,-30.5 z"
         style="fill:#ffffff;fill-opacity:1;fill-rule:evenodd;stroke:none"
         inkscape:connector-curvature="0" />
      <path
         sodipodi:nodetypes="ssccsss"
         style="fill:#ffcc00;fill-opacity:1;fill-rule:evenodd;stroke:none"
         d="m -20.4922,-120.15413 c -4.5705,0 -8.25,3.6795 -8.25,8.25 l 0,10.75 55,0 0,-10.75 c 0,-4.5705 -3.6795,-8.25 -8.25,-8.25 z"
         id="path12199"
         inkscape:connector-curvature="0"
         inkscape:export-filename="C:\Users\Stéphane\Desktop\Blogs\OpenBeautyFacts\openbeautyfacts-logo-fr.png"
         inkscape:export-xdpi="89.999992"
         inkscape:export-ydpi="89.999992" />
      <path
         inkscape:connector-curvature="0"
         style="fill:#00d400;fill-opacity:1;fill-rule:evenodd;stroke:none"
         d="m 62.60155,-148.09163 c -1.78342,0.0471 -3.79985,0.24743 -5.34375,0.4375 -6.36567,0.78364 -4.65625,-0.0104 -18.65625,4.65625 -1.47573,0.49191 -1.39133,5.38317 0,4.6875 4.38351,-2.19176 9.78935,-2.31915 14.78125,-1.84375 -0.4951,1.01323 -0.78125,2.24737 -0.78125,3.5625 l 0,3.65625 c -1.91045,0.86858 -3.4453,2.46044 -4.1875,4.4375 -3.01974,1.13363 -5.15625,4.04346 -5.15625,7.46875 l 0,6.875 28,0 0,-6.875 c 0,-3.42529 -2.13651,-6.33512 -5.15625,-7.46875 -0.7422,-1.97706 -2.27705,-3.56892 -4.1875,-4.4375 l 0,-3.65625 c 0,-0.83218 -0.13356,-1.64737 -0.34375,-2.375 2.11458,0.36458 3.86458,0.65625 5.03125,0.65625 3.1111,0 2.6943,-7.78819 0,-9.34375 -0.65577,-0.37861 -2.21658,-0.48464 -4,-0.4375 z"
         id="path12201"
         inkscape:export-filename="C:\Users\Stéphane\Desktop\Blogs\OpenBeautyFacts\openbeautyfacts-logo-fr.png"
         inkscape:export-xdpi="89.999992"
         inkscape:export-ydpi="89.999992" />
      <rect
         inkscape:export-ydpi="89.999992"
         inkscape:export-xdpi="89.999992"
         inkscape:export-filename="C:\Users\Stéphane\Desktop\Blogs\OpenBeautyFacts\openbeautyfacts-logo-fr.png"
         style="fill:none"
         y="-151.15413"
         x="44.25774"
         height="5"
         width="5"
         id="rect12203" />
      <rect
         id="rect12205"
         width="5"
         height="5"
         x="44.25774"
         y="-151.15413"
         style="fill:none"
         inkscape:export-filename="C:\Users\Stéphane\Desktop\Blogs\OpenBeautyFacts\openbeautyfacts-logo-fr.png"
         inkscape:export-xdpi="89.999992"
         inkscape:export-ydpi="89.999992" />
      <path
         inkscape:export-ydpi="89.999992"
         inkscape:export-xdpi="89.999992"
         inkscape:export-filename="C:\Users\Stéphane\Desktop\Blogs\OpenBeautyFacts\openbeautyfacts-logo-fr.png"
         id="rect12207"
         d="m 109.2578,-148.15413 c -0.554,0 -1,0.446 -1,1 l 0,3 c 0,0.554 0.446,1 1,1 l 0,-4 1,0 0,4 1,0 c 0.554,0 1,-0.446 1,-1 l 0,-3 c 0,-0.554 -0.446,-1 -1,-1 l -2,0 z"
         style="fill:#0066ff;fill-opacity:1;fill-rule:evenodd;stroke:none"
         inkscape:connector-curvature="0" />
      <g
         id="g12209"
         transform="matrix(1.1666667,0,0,1,522.59113,-120.15413)"
         style="fill:#0066ff;fill-opacity:1"
         inkscape:export-filename="C:\Users\Stéphane\Desktop\Blogs\OpenBeautyFacts\openbeautyfacts-logo-fr.png"
         inkscape:export-xdpi="89.999992"
         inkscape:export-ydpi="89.999992">
        <path
           sodipodi:nodetypes="ccccc"
           inkscape:connector-curvature="0"
           id="path12211"
           d="m -362,-27 6,0 0,1 -6,0 z"
           style="fill:#0066ff;fill-opacity:1;fill-rule:evenodd;stroke:none" />
        <path
           style="fill:#0066ff;fill-opacity:1;fill-rule:evenodd;stroke:none"
           d="m -362,-25 6,0 0,1 -6,0 z"
           id="path12213"
           inkscape:connector-curvature="0"
           sodipodi:nodetypes="ccccc" />
        <path
           sodipodi:nodetypes="ccccc"
           inkscape:connector-curvature="0"
           id="path12215"
           d="m -362,-23 6,0 0,1 -6,0 z"
           style="fill:#0066ff;fill-opacity:1;fill-rule:evenodd;stroke:none" />
        <path
           style="fill:#0066ff;fill-opacity:1;fill-rule:evenodd;stroke:none"
           d="m -362,-21 6,0 0,1 -6,0 z"
           id="path12217"
           inkscape:connector-curvature="0"
           sodipodi:nodetypes="ccccc" />
        <path
           sodipodi:nodetypes="ccccc"
           inkscape:connector-curvature="0"
           id="path12219"
           d="m -362,-19 6,0 0,1 -6,0 z"
           style="fill:#0066ff;fill-opacity:1;fill-rule:evenodd;stroke:none" />
        <path
           style="fill:#0066ff;fill-opacity:1;fill-rule:evenodd;stroke:none"
           d="m -362,-17 6,0 0,1 -6,0 z"
           id="path12221"
           inkscape:connector-curvature="0"
           sodipodi:nodetypes="ccccc" />
        <path
           sodipodi:nodetypes="ccccc"
           inkscape:connector-curvature="0"
           id="path12223"
           d="m -362,-15 6,0 0,1 -6,0 z"
           style="fill:#0066ff;fill-opacity:1;fill-rule:evenodd;stroke:none" />
      </g>
      <path
         inkscape:export-ydpi="89.999992"
         inkscape:export-xdpi="89.999992"
         inkscape:export-filename="C:\Users\Stéphane\Desktop\Blogs\OpenBeautyFacts\openbeautyfacts-logo-fr.png"
         id="path12225"
         d="m 108.2578,-145.15413 0,1.03125 0,6.25 0,4.71875 1,0 0,-12 -1,0 z m 2,0 0,12 2,0 0,-12 -2,0 z"
         style="fill:#0066ff;fill-opacity:1;fill-rule:evenodd;stroke:none"
         inkscape:connector-curvature="0" />
      <rect
         id="rect12231"
         width="5"
         height="5"
         x="44.25774"
         y="-151.15413"
         style="fill:none"
         inkscape:export-filename="C:\Users\Stéphane\Desktop\Blogs\OpenBeautyFacts\openbeautyfacts-logo-fr.png"
         inkscape:export-xdpi="89.999992"
         inkscape:export-ydpi="89.999992" />
      <rect
         inkscape:export-ydpi="89.999992"
         inkscape:export-xdpi="89.999992"
         inkscape:export-filename="C:\Users\Stéphane\Desktop\Blogs\OpenBeautyFacts\openbeautyfacts-logo-fr.png"
         style="fill:none"
         y="-151.15413"
         x="44.25774"
         height="5"
         width="5"
         id="rect12233" />
    </g>
  </g>
</svg>
