<?xml version="1.0" encoding="UTF-8" standalone="no"?>
<!-- Created with Inkscape (http://www.inkscape.org/) -->

<svg
   xmlns:dc="http://purl.org/dc/elements/1.1/"
   xmlns:cc="http://creativecommons.org/ns#"
   xmlns:rdf="http://www.w3.org/1999/02/22-rdf-syntax-ns#"
   xmlns:svg="http://www.w3.org/2000/svg"
   xmlns="http://www.w3.org/2000/svg"
   xmlns:sodipodi="http://sodipodi.sourceforge.net/DTD/sodipodi-0.dtd"
   xmlns:inkscape="http://www.inkscape.org/namespaces/inkscape"
   width="178"
   height="150"
   id="svg8313"
   version="1.1"
   inkscape:version="0.91 r13725"
   sodipodi:docname="openfoodfacts-logo-pl.svg"
   inkscape:export-filename="C:\Users\Stéphane\Desktop\Blogs\OpenFoodFacts\openfoodfacts-logo-ru-712x600.png"
   inkscape:export-xdpi="360"
   inkscape:export-ydpi="360">
  <defs
     id="defs8315" />
  <sodipodi:namedview
     id="base"
     pagecolor="#ffffff"
     bordercolor="#666666"
     borderopacity="1.0"
     inkscape:pageopacity="0.0"
     inkscape:pageshadow="2"
     inkscape:zoom="2.2568164"
     inkscape:cx="-80.085954"
     inkscape:cy="88.739106"
     inkscape:document-units="px"
     inkscape:current-layer="layer1"
     showgrid="true"
     inkscape:window-width="1920"
     inkscape:window-height="1018"
     inkscape:window-x="-8"
     inkscape:window-y="-8"
     inkscape:window-maximized="1"
     inkscape:snap-global="true">
    <inkscape:grid
       type="xygrid"
       id="grid8566" />
  </sodipodi:namedview>
  <metadata
     id="metadata8318">
    <rdf:RDF>
      <cc:Work
         rdf:about="">
        <dc:format>image/svg+xml</dc:format>
        <dc:type
           rdf:resource="http://purl.org/dc/dcmitype/StillImage" />
        <dc:title></dc:title>
      </cc:Work>
    </rdf:RDF>
  </metadata>
  <g
     inkscape:label="Calque 1"
     inkscape:groupmode="layer"
     id="layer1">
    <path
       inkscape:export-ydpi="90"
       inkscape:export-xdpi="90"
       inkscape:export-filename="C:\Users\Stéphane\Desktop\Blogs\OpenFoodFacts\test-178.png"
       inkscape:connector-curvature="0"
       style="fill:#0066ff;fill-opacity:1;fill-rule:nonzero;stroke:none"
       d="m 170,26 0,6.41101 c 1.19571,0.444338 2.21393,1.060483 3,1.761208 L 173,26 Z m 4,0 0,8.312003 1,-0.838676 L 175,26 Z m 2,0 0,6.606702 1,-0.978462 0,11.7694 -1,-1.00641 0,52.60877 2,0 0,-69 z M 174,40.685929 174,95 l 1,0 0,-53.475406 z m -1,0.139774 c -0.78598,0.701951 -1.79569,1.313237 -3,1.76122 L 170,95 l 3,0 z"
       id="path7944"
       sodipodi:nodetypes="ccccccccccccccccccccccccccccc" />
    <path
       inkscape:export-ydpi="90"
       inkscape:export-xdpi="90"
       inkscape:export-filename="C:\Users\Stéphane\Desktop\Blogs\OpenFoodFacts\test-178.png"
       inkscape:connector-curvature="0"
       style="fill:#00ccff;fill-opacity:1;fill-rule:nonzero;stroke:none"
       d="m 154,26 0,69 3,0 0,-53.810872 c -1.32362,-1.014805 -2.12462,-2.271422 -2.12462,-3.662215 0,-1.390781 0.801,-2.675356 2.12462,-3.690161 L 157,26 Z m 4,0 0,7.193768 c 1.12603,-0.642997 2.47034,-1.128715 4,-1.397795 L 162,26 Z m 5,0 0,5.62824 c 0.32965,-0.03644 0.65978,-0.03965 1,-0.05585 l 0,-5.572333 c -0.35153,4.6e-5 -0.64847,-3.3e-5 -1,-5.7e-5 z m 2,0 0,5.544374 c 0.68266,0.0083 1.35814,0.08097 2,0.167733 L 167,26 Z M 158,41.860072 158,95 l 4,0 0,-51.770093 c -1.58676,-0.26883 -2.87451,-0.727732 -4,-1.369835 z m 9,1.481649 c -0.64077,0.08753 -1.31859,0.131652 -2,0.139785 L 165,95 l 2,0 z m -4,0.05597 L 163,95 l 1,0 0,-51.546402 c -0.34022,-0.01632 -0.67076,-0.01941 -1.00041,-0.05585 z"
       id="path7946"
       sodipodi:nodetypes="ccccscccccccccccccccccccccccccccccccccc" />
    <path
       inkscape:export-ydpi="90"
       inkscape:export-xdpi="90"
       inkscape:export-filename="C:\Users\Stéphane\Desktop\Blogs\OpenFoodFacts\test-178.png"
       inkscape:connector-curvature="0"
       id="path7948"
       d="m 150,26 0,69 1,0 0,-69 z"
       style="fill:#00d400;fill-opacity:1;fill-rule:nonzero;stroke:none"
       sodipodi:nodetypes="ccccc" />
    <path
       inkscape:export-ydpi="90"
       inkscape:export-xdpi="90"
       inkscape:export-filename="C:\Users\Stéphane\Desktop\Blogs\OpenFoodFacts\test-178.png"
       inkscape:connector-curvature="0"
       id="path7950"
       d="m 146,26 0,69 3,0 0,-69 z"
       style="fill:#00d400;fill-opacity:1;fill-rule:nonzero;stroke:none"
       sodipodi:nodetypes="ccccc" />
    <path
       inkscape:export-ydpi="90"
       inkscape:export-xdpi="90"
       inkscape:export-filename="C:\Users\Stéphane\Desktop\Blogs\OpenFoodFacts\test-178.png"
       inkscape:connector-curvature="0"
       id="path7952"
       d="m 143,26 0,69 2,0 0,-69 z"
       style="fill:#00d400;fill-opacity:1;fill-rule:nonzero;stroke:none"
       sodipodi:nodetypes="ccccc" />
    <path
       inkscape:export-ydpi="90"
       inkscape:export-xdpi="90"
       inkscape:export-filename="C:\Users\Stéphane\Desktop\Blogs\OpenFoodFacts\test-178.png"
       inkscape:connector-curvature="0"
       id="path7954"
       d="m 141,26 0,69 1,0 0,-69 z"
       style="fill:#00d400;fill-opacity:1;fill-rule:nonzero;stroke:none"
       sodipodi:nodetypes="ccccc" />
    <path
       inkscape:export-ydpi="90"
       inkscape:export-xdpi="90"
       inkscape:export-filename="C:\Users\Stéphane\Desktop\Blogs\OpenFoodFacts\test-178.png"
       inkscape:connector-curvature="0"
       id="path7956"
       d="m 135,24 0,71 3,0 -5e-5,-69 z"
       style="fill:#00d400;fill-opacity:1;fill-rule:nonzero;stroke:none"
       sodipodi:nodetypes="ccccc" />
    <path
       inkscape:export-ydpi="90"
       inkscape:export-xdpi="90"
       inkscape:export-filename="C:\Users\Stéphane\Desktop\Blogs\OpenFoodFacts\test-178.png"
       inkscape:connector-curvature="0"
       id="path7958"
       d="m 132,26 0,69 2,0 -4e-5,-69 z"
       style="fill:#00d400;fill-opacity:1;fill-rule:nonzero;stroke:none"
       sodipodi:nodetypes="ccccc" />
    <path
       inkscape:export-ydpi="90"
       inkscape:export-xdpi="90"
       inkscape:export-filename="C:\Users\Stéphane\Desktop\Blogs\OpenFoodFacts\test-178.png"
       inkscape:connector-curvature="0"
       id="path7960"
       d="m 129,26 0,69 2,0 1e-5,-69 z"
       style="fill:#00d400;fill-opacity:1;fill-rule:nonzero;stroke:none"
       sodipodi:nodetypes="ccccc" />
    <path
       inkscape:export-ydpi="90"
       inkscape:export-xdpi="90"
       inkscape:export-filename="C:\Users\Stéphane\Desktop\Blogs\OpenFoodFacts\test-178.png"
       inkscape:connector-curvature="0"
       id="path7962"
       d="m 125,26 0,69 1,0 5e-5,-69 z"
       style="fill:#00d400;fill-opacity:1;fill-rule:nonzero;stroke:none"
       sodipodi:nodetypes="ccccc" />
    <path
       inkscape:export-ydpi="90"
       inkscape:export-xdpi="90"
       inkscape:export-filename="C:\Users\Stéphane\Desktop\Blogs\OpenFoodFacts\test-178.png"
       inkscape:connector-curvature="0"
       id="path7964"
       d="m 121,26 0,69 1,0 6e-5,-69 z"
       style="fill:#00d400;fill-opacity:1;fill-rule:nonzero;stroke:none"
       sodipodi:nodetypes="ccccc" />
    <path
       inkscape:export-ydpi="90"
       inkscape:export-xdpi="90"
       inkscape:export-filename="C:\Users\Stéphane\Desktop\Blogs\OpenFoodFacts\test-178.png"
       inkscape:connector-curvature="0"
       id="path7966"
       d="m 116,26 0,69 2,0 1e-5,-69 z"
       style="fill:#00d400;fill-opacity:1;fill-rule:nonzero;stroke:none"
       sodipodi:nodetypes="ccccc" />
    <path
       inkscape:export-ydpi="90"
       inkscape:export-xdpi="90"
       inkscape:export-filename="C:\Users\Stéphane\Desktop\Blogs\OpenFoodFacts\test-178.png"
       inkscape:connector-curvature="0"
       id="path7968"
       d="m 112,26 0,69 1,0 -5e-5,-69 z"
       style="fill:#00d400;fill-opacity:1;fill-rule:nonzero;stroke:none"
       sodipodi:nodetypes="ccccc" />
    <path
       inkscape:export-ydpi="90"
       inkscape:export-xdpi="90"
       inkscape:export-filename="C:\Users\Stéphane\Desktop\Blogs\OpenFoodFacts\test-178.png"
       inkscape:connector-curvature="0"
       id="path7970"
       d="m 110,26 0,69 1,0 -5e-5,-69 z"
       style="fill:#00d400;fill-opacity:1;fill-rule:nonzero;stroke:none"
       sodipodi:nodetypes="ccccc" />
    <path
       inkscape:export-ydpi="90"
       inkscape:export-xdpi="90"
       inkscape:export-filename="C:\Users\Stéphane\Desktop\Blogs\OpenFoodFacts\test-178.png"
       inkscape:connector-curvature="0"
       id="path7972"
       d="m 108,26 0,69 1,0 4e-5,-69 z"
       style="fill:#00d400;fill-opacity:1;fill-rule:nonzero;stroke:none"
       sodipodi:nodetypes="ccccc" />
    <path
       inkscape:export-ydpi="90"
       inkscape:export-xdpi="90"
       inkscape:export-filename="C:\Users\Stéphane\Desktop\Blogs\OpenFoodFacts\test-178.png"
       inkscape:connector-curvature="0"
       id="path7974"
       d="m 103,26 0,69 2,0 1e-5,-69 z"
       style="fill:#00d400;fill-opacity:1;fill-rule:nonzero;stroke:none"
       sodipodi:nodetypes="ccccc" />
    <path
       inkscape:export-ydpi="90"
       inkscape:export-xdpi="90"
       inkscape:export-filename="C:\Users\Stéphane\Desktop\Blogs\OpenFoodFacts\test-178.png"
       inkscape:connector-curvature="0"
       id="path7976"
       d="m 99,26 0,69 1,0 0,-69 z"
       style="fill:#00d400;fill-opacity:1;fill-rule:nonzero;stroke:none"
       sodipodi:nodetypes="ccccc" />
    <path
       inkscape:export-ydpi="90"
       inkscape:export-xdpi="90"
       inkscape:export-filename="C:\Users\Stéphane\Desktop\Blogs\OpenFoodFacts\test-178.png"
       inkscape:connector-curvature="0"
       id="path7978"
       d="m 95,26 0.0166,69 0.98337,0 -0.0171,-69 z"
       style="fill:#00d400;fill-opacity:1;fill-rule:nonzero;stroke:none"
       sodipodi:nodetypes="ccccc" />
    <path
       inkscape:export-ydpi="90"
       inkscape:export-xdpi="90"
       inkscape:export-filename="C:\Users\Stéphane\Desktop\Blogs\OpenFoodFacts\test-178.png"
       inkscape:connector-curvature="0"
       id="path7980"
       d="m 90,21 0,74 2,0 0,-74 z"
       style="fill:#ffcc00;fill-opacity:1;fill-rule:nonzero;stroke:none"
       sodipodi:nodetypes="ccccc" />
    <path
       inkscape:export-ydpi="90"
       inkscape:export-xdpi="90"
       inkscape:export-filename="C:\Users\Stéphane\Desktop\Blogs\OpenFoodFacts\test-178.png"
       inkscape:connector-curvature="0"
       id="path7983"
       d="m 88,26 0,69 1,0 0,-69 z"
       style="fill:#ffcc00;fill-opacity:1;fill-rule:nonzero;stroke:none"
       sodipodi:nodetypes="ccccc" />
    <path
       inkscape:export-ydpi="90"
       inkscape:export-xdpi="90"
       inkscape:export-filename="C:\Users\Stéphane\Desktop\Blogs\OpenFoodFacts\test-178.png"
       inkscape:connector-curvature="0"
       id="path7985"
       d="m 85,10 0,85 2,0 0,-85 z"
       style="fill:#ffcc00;fill-opacity:1;fill-rule:nonzero;stroke:none"
       sodipodi:nodetypes="ccccc" />
    <path
       inkscape:export-ydpi="90"
       inkscape:export-xdpi="90"
       inkscape:export-filename="C:\Users\Stéphane\Desktop\Blogs\OpenFoodFacts\test-178.png"
       inkscape:connector-curvature="0"
       id="path7987"
       d="m 81,26 0,69 3,0 4e-6,-69 z"
       style="fill:#ffcc00;fill-opacity:1;fill-rule:nonzero;stroke:none"
       sodipodi:nodetypes="ccccc" />
    <path
       inkscape:export-ydpi="90"
       inkscape:export-xdpi="90"
       inkscape:export-filename="C:\Users\Stéphane\Desktop\Blogs\OpenFoodFacts\test-178.png"
       inkscape:connector-curvature="0"
       id="path7989"
       d="m 77,26 0,69 1,0 3e-6,-69 z"
       style="fill:#ffcc00;fill-opacity:1;fill-rule:nonzero;stroke:none"
       sodipodi:nodetypes="ccccc" />
    <path
       inkscape:export-ydpi="90"
       inkscape:export-xdpi="90"
       inkscape:export-filename="C:\Users\Stéphane\Desktop\Blogs\OpenFoodFacts\test-178.png"
       inkscape:connector-curvature="0"
       id="path7991"
       d="m 74,20 0,75 2,0 -7e-6,-75 z"
       style="fill:#ffcc00;fill-opacity:1;fill-rule:nonzero;stroke:none"
       sodipodi:nodetypes="ccccc" />
    <path
       inkscape:export-ydpi="90"
       inkscape:export-xdpi="90"
       inkscape:export-filename="C:\Users\Stéphane\Desktop\Blogs\OpenFoodFacts\test-178.png"
       inkscape:connector-curvature="0"
       id="path7993"
       d="m 70,26 0,69 3,0 4e-6,-69 z"
       style="fill:#ffcc00;fill-opacity:1;fill-rule:nonzero;stroke:none"
       sodipodi:nodetypes="ccccc" />
    <path
       inkscape:export-ydpi="90"
       inkscape:export-xdpi="90"
       inkscape:export-filename="C:\Users\Stéphane\Desktop\Blogs\OpenFoodFacts\test-178.png"
       inkscape:connector-curvature="0"
       id="path7995"
       d="m 66,26 0,69 1,0 3e-6,-69 z"
       style="fill:#ffcc00;fill-opacity:1;fill-rule:nonzero;stroke:none"
       sodipodi:nodetypes="ccccc" />
    <path
       inkscape:export-ydpi="90"
       inkscape:export-xdpi="90"
       inkscape:export-filename="C:\Users\Stéphane\Desktop\Blogs\OpenFoodFacts\test-178.png"
       inkscape:connector-curvature="0"
       id="path7997"
       d="m 64,26 0,69 1,0 10e-7,-69 z"
       style="fill:#ffcc00;fill-opacity:1;fill-rule:nonzero;stroke:none"
       sodipodi:nodetypes="ccccc" />
    <path
       inkscape:export-ydpi="90"
       inkscape:export-xdpi="90"
       inkscape:export-filename="C:\Users\Stéphane\Desktop\Blogs\OpenFoodFacts\test-178.png"
       inkscape:connector-curvature="0"
       id="path7999"
       d="m 59,26 0.02596,69 1.974042,0 -0.02685,-69 z"
       style="fill:#ffcc00;fill-opacity:1;fill-rule:nonzero;stroke:none"
       sodipodi:nodetypes="ccccc" />
    <path
       inkscape:export-ydpi="90"
       inkscape:export-xdpi="90"
       inkscape:export-filename="C:\Users\Stéphane\Desktop\Blogs\OpenFoodFacts\test-178.png"
       inkscape:connector-curvature="0"
       id="path8001"
       d="m 55,15 0,80 1,0 -9e-6,-80 z"
       style="fill:#ffcc00;fill-opacity:1;fill-rule:nonzero;stroke:none"
       sodipodi:nodetypes="ccccc" />
    <path
       inkscape:export-ydpi="90"
       inkscape:export-xdpi="90"
       inkscape:export-filename="C:\Users\Stéphane\Desktop\Blogs\OpenFoodFacts\test-178.png"
       inkscape:connector-curvature="0"
       id="path8003"
       d="m 52,26 0,69 2,0 3e-6,-69 z"
       style="fill:#ffcc00;fill-opacity:1;fill-rule:nonzero;stroke:none"
       sodipodi:nodetypes="ccccc" />
    <path
       inkscape:export-ydpi="90"
       inkscape:export-xdpi="90"
       inkscape:export-filename="C:\Users\Stéphane\Desktop\Blogs\OpenFoodFacts\test-178.png"
       inkscape:connector-curvature="0"
       id="path8005"
       d="m 46,26 0,69 3,0 -7e-6,-69 z"
       style="fill:#ffcc00;fill-opacity:1;fill-rule:nonzero;stroke:none"
       sodipodi:nodetypes="ccccc" />
    <path
       inkscape:export-ydpi="90"
       inkscape:export-xdpi="90"
       inkscape:export-filename="C:\Users\Stéphane\Desktop\Blogs\OpenFoodFacts\test-178.png"
       inkscape:connector-curvature="0"
       id="path8007"
       d="m 44,26 0,69 1,0 10e-7,-69 z"
       style="fill:#ffcc00;fill-opacity:1;fill-rule:nonzero;stroke:none"
       sodipodi:nodetypes="ccccc" />
    <path
       inkscape:export-ydpi="90"
       inkscape:export-xdpi="90"
       inkscape:export-filename="C:\Users\Stéphane\Desktop\Blogs\OpenFoodFacts\test-178.png"
       inkscape:connector-curvature="0"
       id="path8009"
       d="m 40,26 0,69 1,0 2e-6,-69 z"
       style="fill:#ffcc00;fill-opacity:1;fill-rule:nonzero;stroke:none"
       sodipodi:nodetypes="ccccc" />
    <path
       inkscape:export-ydpi="90"
       inkscape:export-xdpi="90"
       inkscape:export-filename="C:\Users\Stéphane\Desktop\Blogs\OpenFoodFacts\test-178.png"
       inkscape:connector-curvature="0"
       id="path8011"
       d="m 37,26 0,69 2,0 4e-6,-69 z"
       style="fill:#ffcc00;fill-opacity:1;fill-rule:nonzero;stroke:none"
       sodipodi:nodetypes="ccccc" />
    <path
       inkscape:export-ydpi="90"
       inkscape:export-xdpi="90"
       inkscape:export-filename="C:\Users\Stéphane\Desktop\Blogs\OpenFoodFacts\test-178.png"
       inkscape:connector-curvature="0"
       id="path8013"
       d="m 33,20 0,75 1,0 -7e-6,-75 z"
       style="fill:#ff0000;fill-opacity:1;fill-rule:nonzero;stroke:none"
       sodipodi:nodetypes="ccccc" />
    <path
       inkscape:export-ydpi="90"
       inkscape:export-xdpi="90"
       inkscape:export-filename="C:\Users\Stéphane\Desktop\Blogs\OpenFoodFacts\test-178.png"
       inkscape:connector-curvature="0"
       id="path8015"
       d="m 30,19 0,76 2,0 4e-6,-76 z"
       style="fill:#ff0000;fill-opacity:1;fill-rule:nonzero;stroke:none"
       sodipodi:nodetypes="ccccc" />
    <path
       inkscape:export-ydpi="90"
       inkscape:export-xdpi="90"
       inkscape:export-filename="C:\Users\Stéphane\Desktop\Blogs\OpenFoodFacts\test-178.png"
       inkscape:connector-curvature="0"
       id="path8017"
       d="m 26,26 0,69 3,0 0,-69 z"
       style="fill:#ff0000;fill-opacity:1;fill-rule:nonzero;stroke:none"
       sodipodi:nodetypes="ccccc" />
    <path
       inkscape:export-ydpi="90"
       inkscape:export-xdpi="90"
       inkscape:export-filename="C:\Users\Stéphane\Desktop\Blogs\OpenFoodFacts\test-178.png"
       inkscape:connector-curvature="0"
       id="path8019"
       d="m 22,26 0,69 3,0 -5e-6,-69 z"
       style="fill:#ff0000;fill-opacity:1;fill-rule:nonzero;stroke:none"
       sodipodi:nodetypes="ccccc" />
    <path
       inkscape:export-ydpi="90"
       inkscape:export-xdpi="90"
       inkscape:export-filename="C:\Users\Stéphane\Desktop\Blogs\OpenFoodFacts\test-178.png"
       inkscape:connector-curvature="0"
       id="path8021"
       d="m 19,20 0,75 2,0 -8.6e-5,-75 z"
       style="fill:#ff0000;fill-opacity:1;fill-rule:nonzero;stroke:none"
       sodipodi:nodetypes="ccccc" />
    <path
       inkscape:export-ydpi="90"
       inkscape:export-xdpi="90"
       inkscape:export-filename="C:\Users\Stéphane\Desktop\Blogs\OpenFoodFacts\test-178.png"
       inkscape:connector-curvature="0"
       id="path8023"
       d="m 15,21 0,74 3,0 -3.5e-5,-74 z"
       style="fill:#ff0000;fill-opacity:1;fill-rule:nonzero;stroke:none"
       sodipodi:nodetypes="ccccc" />
    <path
       inkscape:export-ydpi="90"
       inkscape:export-xdpi="90"
       inkscape:export-filename="C:\Users\Stéphane\Desktop\Blogs\OpenFoodFacts\test-178.png"
       inkscape:connector-curvature="0"
       id="path8025"
       d="m 11,26 0,69 1,0 -4.9e-5,-69 z"
       style="fill:#ff0000;fill-opacity:1;fill-rule:nonzero;stroke:none"
       sodipodi:nodetypes="ccccc" />
    <path
       inkscape:export-ydpi="90"
       inkscape:export-xdpi="90"
       inkscape:export-filename="C:\Users\Stéphane\Desktop\Blogs\OpenFoodFacts\test-178.png"
       inkscape:connector-curvature="0"
       id="path8027"
       d="M 8,26 8,95 9,95 9,26 Z"
       style="fill:#ff0000;fill-opacity:1;fill-rule:nonzero;stroke:none"
       sodipodi:nodetypes="ccccc" />
    <path
       inkscape:export-ydpi="90"
       inkscape:export-xdpi="90"
       inkscape:export-filename="C:\Users\Stéphane\Desktop\Blogs\OpenFoodFacts\test-178.png"
       inkscape:connector-curvature="0"
       id="path8029"
       d="m 3,26 0,69 0.999563,0 0,-69 z"
       style="fill:#ff0000;fill-opacity:1;fill-rule:nonzero;stroke:none"
       sodipodi:nodetypes="ccccc" />
    <path
       inkscape:export-ydpi="90"
       inkscape:export-xdpi="90"
       inkscape:export-filename="C:\Users\Stéphane\Desktop\Blogs\OpenFoodFacts\test-178.png"
       inkscape:connector-curvature="0"
       id="path8031"
       d="m 1.3e-5,26 0,69 2,0 0,-69 z"
       style="fill:#ff0000;fill-opacity:1;fill-rule:nonzero;stroke:none"
       sodipodi:nodetypes="ccccc" />
    <path
       sodipodi:nodetypes="csssacccccssscccsccccc"
       inkscape:connector-curvature="0"
       id="path8033"
       d="m 12.96037,20.168037 c 0.62972,-0.815576 0.719123,-2.676154 1.281409,-4.358843 0.405305,-1.212926 0.463533,-4.596987 1.208651,-4.882429 0.96834,-0.370951 3.169601,-0.358079 4.223988,-0.416629 2.300059,-0.127699 4.518931,1.098659 6.822539,1.101136 2.990853,0.0036 8.861008,-1.410596 8.861008,-1.410596 l -0.140119,-2.038826 1.505607,0.278059 4.07695,-0.516905 -3.008404,1.386137 c 0,0 1.201864,-0.02108 1.688022,0.276832 0.705048,0.432109 0.959994,1.347377 1.46892,1.999162 0.291967,0.373928 1.082477,0.65438 0.908337,1.095671 -0.469844,1.190611 -3.808977,0.485944 -3.808977,0.485944 l -1.918736,1.803326 c -0.833009,1.778987 -2.26137,3.261839 -2.253596,6.722383 0,0 -6.006891,-0.923008 -8.991183,-0.79663 -1.764007,0.07466 -4.968974,0.618073 -4.968974,0.618073 -1.608718,-0.13719 -3.296502,-0.529063 -4.905219,-0.24954 0.0095,-6.235485 0.866683,-6.128862 0.69876,-9.294821 -0.439183,1.679986 -0.971056,4.516551 -1.026843,5.772464 -0.534756,1.525804 -0.01191,1.899672 -1.72214,2.426032 z"
       style="fill:#ff0000;fill-opacity:1"
       inkscape:export-filename="C:\Users\Stéphane\Desktop\Blogs\OpenFoodFacts\test-178.png"
       inkscape:export-xdpi="90"
       inkscape:export-ydpi="90" />
    <g
       style="fill:#ffcc00"
       transform="matrix(0.01488015,-0.01147672,0.01147672,0.01488015,39.17529,7.567521)"
       id="g8035"
       inkscape:export-filename="C:\Users\Stéphane\Desktop\Blogs\OpenFoodFacts\test-178.png"
       inkscape:export-xdpi="90"
       inkscape:export-ydpi="90">
      <ellipse
         ry="32.857143"
         rx="65.714287"
         cy="762.36218"
         cx="567.14288"
         style="fill:#ffcc00;fill-opacity:1;stroke:none"
         id="path8037"
         transform="matrix(0.58270937,-0.81268061,0.81268061,0.58270937,-465.7507,809.03262)" />
      <path
         style="fill:#ffcc00;fill-opacity:1;stroke:none"
         d="m 494.28571,741.6479 c 0,0 14.40901,-2.31616 20.71429,-5.71428 22.08801,-11.90395 53.57143,-52.85715 53.57143,-52.85715 0,0 -33.14169,43.13867 -40,64.99999 -2.07174,6.60382 -1.42857,20.71429 -1.42857,20.71429 z"
         id="path8039"
         inkscape:connector-curvature="0"
         sodipodi:nodetypes="cscscc" />
    </g>
    <g
       transform="matrix(0.89458574,0,0,0.89458574,-468.13007,-644.42698)"
       id="g8041"
       inkscape:export-filename="C:\Users\Stéphane\Desktop\Blogs\OpenFoodFacts\test-178.png"
       inkscape:export-xdpi="90"
       inkscape:export-ydpi="90">
      <g
         id="g8043"
         transform="translate(-9.5459416,1.1490485)"
         style="fill:#ffcc00">
        <g
           transform="matrix(0.02100622,0,0,0.02100622,586.13922,725.53281)"
           id="g8045"
           style="fill:#ffcc00">
          <ellipse
             ry="32.857143"
             rx="65.714287"
             cy="762.36218"
             cx="567.14288"
             style="fill:#ffcc00;fill-opacity:1;stroke:none"
             id="path8047"
             transform="matrix(0.58270937,-0.81268061,0.81268061,0.58270937,-465.7507,809.03262)" />
          <path
             style="fill:#ffcc00;fill-opacity:1;stroke:none"
             d="m 494.28571,741.6479 c 0,0 14.40901,-2.31616 20.71429,-5.71428 22.08801,-11.90395 53.57143,-52.85715 53.57143,-52.85715 0,0 -33.14169,43.13867 -40,64.99999 -2.07174,6.60382 -1.42857,20.71429 -1.42857,20.71429 z"
             id="path8049"
             inkscape:connector-curvature="0"
             sodipodi:nodetypes="cscscc" />
        </g>
        <g
           transform="matrix(0.02100622,0,0,0.02100622,586.13922,727.5359)"
           id="g8051"
           style="fill:#ffcc00">
          <ellipse
             ry="32.857143"
             rx="65.714287"
             cy="762.36218"
             cx="567.14288"
             style="fill:#ffcc00;fill-opacity:1;stroke:none"
             id="path8053"
             transform="matrix(0.58270937,-0.81268061,0.81268061,0.58270937,-465.7507,809.03262)" />
          <path
             style="fill:#ffcc00;fill-opacity:1;stroke:none"
             d="m 494.28571,741.6479 c 0,0 14.40901,-2.31616 20.71429,-5.71428 22.08801,-11.90395 53.57143,-52.85715 53.57143,-52.85715 0,0 -33.14169,43.13867 -40,64.99999 -2.07174,6.60382 -1.42857,20.71429 -1.42857,20.71429 z"
             id="path8055"
             inkscape:connector-curvature="0"
             sodipodi:nodetypes="cscscc" />
        </g>
        <g
           transform="matrix(0.02100622,0,0,0.02100622,586.13922,723.52972)"
           id="g8057"
           style="fill:#ffcc00">
          <ellipse
             ry="32.857143"
             rx="65.714287"
             cy="762.36218"
             cx="567.14288"
             style="fill:#ffcc00;fill-opacity:1;stroke:none"
             id="path8059"
             transform="matrix(0.58270937,-0.81268061,0.81268061,0.58270937,-465.7507,809.03262)" />
          <path
             style="fill:#ffcc00;fill-opacity:1;stroke:none"
             d="m 494.28571,741.6479 c 0,0 14.40901,-2.31616 20.71429,-5.71428 22.08801,-11.90395 53.57143,-52.85715 53.57143,-52.85715 0,0 -33.14169,43.13867 -40,64.99999 -2.07174,6.60382 -1.42857,20.71429 -1.42857,20.71429 z"
             id="path8061"
             inkscape:connector-curvature="0"
             sodipodi:nodetypes="cscscc" />
        </g>
        <g
           transform="matrix(0.02100622,0,0,0.02100622,586.13922,721.52662)"
           id="g8063"
           style="fill:#ffcc00">
          <ellipse
             ry="32.857143"
             rx="65.714287"
             cy="762.36218"
             cx="567.14288"
             style="fill:#ffcc00;fill-opacity:1;stroke:none"
             id="path8065"
             transform="matrix(0.58270937,-0.81268061,0.81268061,0.58270937,-465.7507,809.03262)" />
          <path
             style="fill:#ffcc00;fill-opacity:1;stroke:none"
             d="m 494.28571,741.6479 c 0,0 14.40901,-2.31616 20.71429,-5.71428 22.08801,-11.90395 53.57143,-52.85715 53.57143,-52.85715 0,0 -33.14169,43.13867 -40,64.99999 -2.07174,6.60382 -1.42857,20.71429 -1.42857,20.71429 z"
             id="path8067"
             inkscape:connector-curvature="0"
             sodipodi:nodetypes="cscscc" />
        </g>
        <g
           transform="matrix(0.02064274,-0.0038908,0.0038908,0.02064274,583.1049,721.64932)"
           id="g8069"
           style="fill:#ffcc00">
          <ellipse
             ry="32.857143"
             rx="65.714287"
             cy="762.36218"
             cx="567.14288"
             style="fill:#ffcc00;fill-opacity:1;stroke:none"
             id="path8071"
             transform="matrix(0.58270937,-0.81268061,0.81268061,0.58270937,-465.7507,809.03262)" />
          <path
             style="fill:#ffcc00;fill-opacity:1;stroke:none"
             d="m 494.28571,741.6479 c 0,0 14.40901,-2.31616 20.71429,-5.71428 22.08801,-11.90395 53.57143,-52.85715 53.57143,-52.85715 0,0 -33.14169,43.13867 -40,64.99999 -2.07174,6.60382 -1.42857,20.71429 -1.42857,20.71429 z"
             id="path8073"
             inkscape:connector-curvature="0"
             sodipodi:nodetypes="cscscc" />
        </g>
      </g>
      <g
         id="g8075"
         style="fill:#ffcc00"
         transform="translate(-10.253048,1.1490485)">
        <g
           transform="matrix(-0.02100622,0,0,0.02100622,604.26937,725.53281)"
           id="g8077"
           style="fill:#ffcc00">
          <ellipse
             ry="32.857143"
             rx="65.714287"
             cy="762.36218"
             cx="567.14288"
             style="fill:#ffcc00;fill-opacity:1;stroke:none"
             id="path8079"
             transform="matrix(0.58270937,-0.81268061,0.81268061,0.58270937,-465.7507,809.03262)" />
          <path
             style="fill:#ffcc00;fill-opacity:1;stroke:none"
             d="m 494.28571,741.6479 c 0,0 14.40901,-2.31616 20.71429,-5.71428 22.08801,-11.90395 53.57143,-52.85715 53.57143,-52.85715 0,0 -33.14169,43.13867 -40,64.99999 -2.07174,6.60382 -1.42857,20.71429 -1.42857,20.71429 z"
             id="path8081"
             inkscape:connector-curvature="0"
             sodipodi:nodetypes="cscscc" />
        </g>
        <g
           transform="matrix(-0.02100622,0,0,0.02100622,604.26938,727.5359)"
           id="g8083"
           style="fill:#ffcc00">
          <ellipse
             ry="32.857143"
             rx="65.714287"
             cy="762.36218"
             cx="567.14288"
             style="fill:#ffcc00;fill-opacity:1;stroke:none"
             id="path8085"
             transform="matrix(0.58270937,-0.81268061,0.81268061,0.58270937,-465.7507,809.03262)" />
          <path
             style="fill:#ffcc00;fill-opacity:1;stroke:none"
             d="m 494.28571,741.6479 c 0,0 14.40901,-2.31616 20.71429,-5.71428 22.08801,-11.90395 53.57143,-52.85715 53.57143,-52.85715 0,0 -33.14169,43.13867 -40,64.99999 -2.07174,6.60382 -1.42857,20.71429 -1.42857,20.71429 z"
             id="path8087"
             inkscape:connector-curvature="0"
             sodipodi:nodetypes="cscscc" />
        </g>
        <g
           transform="matrix(-0.02100622,0,0,0.02100622,604.26938,723.52972)"
           id="g8089"
           style="fill:#ffcc00">
          <ellipse
             ry="32.857143"
             rx="65.714287"
             cy="762.36218"
             cx="567.14288"
             style="fill:#ffcc00;fill-opacity:1;stroke:none"
             id="path8091"
             transform="matrix(0.58270937,-0.81268061,0.81268061,0.58270937,-465.7507,809.03262)" />
          <path
             style="fill:#ffcc00;fill-opacity:1;stroke:none"
             d="m 494.28571,741.6479 c 0,0 14.40901,-2.31616 20.71429,-5.71428 22.08801,-11.90395 53.57143,-52.85715 53.57143,-52.85715 0,0 -33.14169,43.13867 -40,64.99999 -2.07174,6.60382 -1.42857,20.71429 -1.42857,20.71429 z"
             id="path8093"
             inkscape:connector-curvature="0"
             sodipodi:nodetypes="cscscc" />
        </g>
        <g
           transform="matrix(-0.02100622,0,0,0.02100622,604.26937,721.52662)"
           id="g8095"
           style="fill:#ffcc00">
          <ellipse
             ry="32.857143"
             rx="65.714287"
             cy="762.36218"
             cx="567.14288"
             style="fill:#ffcc00;fill-opacity:1;stroke:none"
             id="path8097"
             transform="matrix(0.58270937,-0.81268061,0.81268061,0.58270937,-465.7507,809.03262)" />
          <path
             style="fill:#ffcc00;fill-opacity:1;stroke:none"
             d="m 494.28571,741.6479 c 0,0 14.40901,-2.31616 20.71429,-5.71428 22.08801,-11.90395 53.57143,-52.85715 53.57143,-52.85715 0,0 -33.14169,43.13867 -40,64.99999 -2.07174,6.60382 -1.42857,20.71429 -1.42857,20.71429 z"
             id="path8099"
             inkscape:connector-curvature="0"
             sodipodi:nodetypes="cscscc" />
        </g>
        <g
           transform="matrix(-0.02064274,-0.0038908,-0.0038908,0.02064274,607.30369,721.64932)"
           id="g8101"
           style="fill:#ffcc00">
          <ellipse
             ry="32.857143"
             rx="65.714287"
             cy="762.36218"
             cx="567.14288"
             style="fill:#ffcc00;fill-opacity:1;stroke:none"
             id="path8103"
             transform="matrix(0.58270937,-0.81268061,0.81268061,0.58270937,-465.7507,809.03262)" />
          <path
             style="fill:#ffcc00;fill-opacity:1;stroke:none"
             d="m 494.28571,741.6479 c 0,0 14.40901,-2.31616 20.71429,-5.71428 22.08801,-11.90395 53.57143,-52.85715 53.57143,-52.85715 0,0 -33.14169,43.13867 -40,64.99999 -2.07174,6.60382 -1.42857,20.71429 -1.42857,20.71429 z"
             id="path8105"
             inkscape:connector-curvature="0"
             sodipodi:nodetypes="cscscc" />
        </g>
      </g>
    </g>
    <g
       id="g8107"
       transform="matrix(0.485552,-0.55754244,0.55754244,0.485552,-616.03955,-2.5771103)"
       inkscape:export-filename="C:\Users\Stéphane\Desktop\Blogs\OpenFoodFacts\test-178.png"
       inkscape:export-xdpi="90"
       inkscape:export-ydpi="90">
      <circle
         r="2.5"
         cy="732.36218"
         cx="608"
         style="fill:#ffcc00;fill-opacity:1"
         id="path8109"
         transform="translate(1.5,9.75)" />
      <circle
         r="2.5"
         cy="732.36218"
         cx="608"
         id="path8111"
         style="fill:#ffcc00;fill-opacity:1"
         inkscape:transform-center-x="-3.1501887"
         inkscape:transform-center-y="-1.6050895"
         transform="matrix(0.30901699,-0.95105652,0.95105652,0.30901699,-274.24997,1089.9371)" />
      <circle
         r="2.5"
         cy="732.36218"
         cx="608"
         transform="matrix(-0.809017,-0.58778525,0.58778525,-0.809017,667.85758,1685.9871)"
         inkscape:transform-center-y="-3.4919705"
         inkscape:transform-center-x="0.5530674"
         style="fill:#ffcc00;fill-opacity:1"
         id="path8113" />
      <circle
         r="2.5"
         cy="732.36218"
         cx="608"
         id="path8115"
         style="fill:#ffcc00;fill-opacity:1"
         inkscape:transform-center-x="3.4919258"
         inkscape:transform-center-y="-0.5530731"
         transform="matrix(-0.80901699,0.58778526,-0.58778526,-0.80901699,1525.8621,974.17912)" />
      <circle
         r="2.5"
         cy="732.36218"
         cx="608"
         transform="matrix(0.309017,0.95105651,-0.95105651,0.309017,1114.0304,-61.792435)"
         inkscape:transform-center-y="3.1501051"
         inkscape:transform-center-x="1.6050854"
         style="fill:#ffcc00;fill-opacity:1"
         id="path8117" />
    </g>
    <g
       transform="matrix(-0.6491698,-0.35382606,0.35382606,-0.6491698,218.16484,702.9075)"
       id="g8119"
       inkscape:export-filename="C:\Users\Stéphane\Desktop\Blogs\OpenFoodFacts\test-178.png"
       inkscape:export-xdpi="90"
       inkscape:export-ydpi="90">
      <circle
         r="2.5"
         cy="732.36218"
         cx="608"
         transform="translate(1.5,9.75)"
         id="path8121"
         style="fill:#ffcc00;fill-opacity:1" />
      <circle
         r="2.5"
         cy="732.36218"
         cx="608"
         transform="matrix(0.30901699,-0.95105652,0.95105652,0.30901699,-274.24997,1089.9371)"
         inkscape:transform-center-y="-1.6050895"
         inkscape:transform-center-x="-3.1501887"
         style="fill:#ffcc00;fill-opacity:1"
         id="path8123" />
      <circle
         r="2.5"
         cy="732.36218"
         cx="608"
         id="path8125"
         style="fill:#ffcc00;fill-opacity:1"
         inkscape:transform-center-x="0.5530674"
         inkscape:transform-center-y="-3.4919705"
         transform="matrix(-0.809017,-0.58778525,0.58778525,-0.809017,667.85758,1685.9871)" />
      <circle
         r="2.5"
         cy="732.36218"
         cx="608"
         transform="matrix(-0.80901699,0.58778526,-0.58778526,-0.80901699,1525.8621,974.17912)"
         inkscape:transform-center-y="-0.5530731"
         inkscape:transform-center-x="3.4919258"
         style="fill:#ffcc00;fill-opacity:1"
         id="path8127" />
      <circle
         r="2.5"
         cy="732.36218"
         cx="608"
         id="path8129"
         style="fill:#ffcc00;fill-opacity:1"
         inkscape:transform-center-x="1.6050854"
         inkscape:transform-center-y="3.1501051"
         transform="matrix(0.309017,0.95105651,-0.95105651,0.309017,1114.0304,-61.792435)" />
    </g>
    <g
       id="g8131"
       transform="matrix(0.31450273,-0.66910564,0.66910564,0.31450273,-610.58237,190.80877)"
       inkscape:export-filename="C:\Users\Stéphane\Desktop\Blogs\OpenFoodFacts\test-178.png"
       inkscape:export-xdpi="90"
       inkscape:export-ydpi="90">
      <circle
         r="2.5"
         cy="732.36218"
         cx="608"
         style="fill:#ffcc00;fill-opacity:1"
         id="path8133"
         transform="translate(1.5,9.75)" />
      <circle
         r="2.5"
         cy="732.36218"
         cx="608"
         id="path8135"
         style="fill:#ffcc00;fill-opacity:1"
         inkscape:transform-center-x="-3.1501887"
         inkscape:transform-center-y="-1.6050895"
         transform="matrix(0.30901699,-0.95105652,0.95105652,0.30901699,-274.24997,1089.9371)" />
      <circle
         r="2.5"
         cy="732.36218"
         cx="608"
         transform="matrix(-0.809017,-0.58778525,0.58778525,-0.809017,667.85758,1685.9871)"
         inkscape:transform-center-y="-3.4919705"
         inkscape:transform-center-x="0.5530674"
         style="fill:#ffcc00;fill-opacity:1"
         id="path8137" />
      <circle
         r="2.5"
         cy="732.36218"
         cx="608"
         id="path8139"
         style="fill:#ffcc00;fill-opacity:1"
         inkscape:transform-center-x="3.4919258"
         inkscape:transform-center-y="-0.5530731"
         transform="matrix(-0.80901699,0.58778526,-0.58778526,-0.80901699,1525.8621,974.17912)" />
      <circle
         r="2.5"
         cy="732.36218"
         cx="608"
         transform="matrix(0.309017,0.95105651,-0.95105651,0.309017,1114.0304,-61.792435)"
         inkscape:transform-center-y="3.1501051"
         inkscape:transform-center-x="1.6050854"
         style="fill:#ffcc00;fill-opacity:1"
         id="path8141" />
    </g>
    <path
       style="fill:#00d400;fill-opacity:1;fill-rule:nonzero;stroke:none"
       d="M 122.44657,6.33728 C 131.63587,7.287033 135.07702,14.767884 135,28 l 2.96392,-1.398609 c 0,-1.461895 -0.0255,-1.249361 -0.0255,-2.711244 0,-10.866897 -6.40398,-17.274677 -10.91182,-18.343579 z"
       id="path8143"
       inkscape:connector-curvature="0"
       inkscape:export-filename="C:\Users\Stéphane\Desktop\Blogs\OpenFoodFacts\test-178.png"
       inkscape:export-xdpi="90"
       inkscape:export-ydpi="90"
       sodipodi:nodetypes="cccscc" />
    <g
       transform="matrix(0.89458574,0,0,0.89458574,-468.09845,-644.42698)"
       id="g8145"
       inkscape:export-filename="C:\Users\Stéphane\Desktop\Blogs\OpenFoodFacts\test-178.png"
       inkscape:export-xdpi="90"
       inkscape:export-ydpi="90">
      <g
         transform="translate(-0.6875,-0.0625)"
         id="g8147">
        <path
           sodipodi:nodetypes="ccc"
           inkscape:connector-curvature="0"
           id="path8149"
           d="m 646.11882,744.69741 c 9.98853,-2.85699 22.36057,-3.40732 20.1894,-18.03175 -19.13147,-9.00363 -12.68327,7.89971 -20.1894,18.03175 z"
           style="fill:#00d400;stroke:none" />
        <path
           sodipodi:nodetypes="ccc"
           inkscape:connector-curvature="0"
           id="path8151"
           d="m 667.50879,725.1485 c -4.96993,6.86401 -15.79612,16.96445 -22.45063,19.97578 6.6817,-2.48508 19.65127,-12.66443 22.45063,-19.97578 z"
           style="fill:#ffffff;fill-opacity:1;stroke:none" />
      </g>
    </g>
    <g
       id="g8153"
       transform="matrix(0.73729109,0.50664139,0.50664139,-0.73729109,-728.9281,199.42539)"
       inkscape:export-filename="C:\Users\Stéphane\Desktop\Blogs\OpenFoodFacts\test-178.png"
       inkscape:export-xdpi="90"
       inkscape:export-ydpi="90">
      <g
         transform="matrix(-0.85351374,-0.52107033,0.52107033,-0.85351374,864.58887,1695.2445)"
         id="g8155">
        <g
           transform="translate(-0.6875,-0.0625)"
           id="g8157">
          <path
             sodipodi:nodetypes="ccc"
             inkscape:connector-curvature="0"
             id="path8159"
             d="m 646.11882,744.69741 c 9.98853,-2.85699 22.36057,-3.40732 20.1894,-18.03175 -19.99874,-7.24796 -12.68327,7.89971 -20.1894,18.03175 z"
             style="fill:#00d400;stroke:none" />
          <path
             sodipodi:nodetypes="ccc"
             inkscape:connector-curvature="0"
             id="path8161"
             d="m 667.50879,725.1485 c -4.96993,6.86401 -15.79612,16.96445 -22.45063,19.97578 6.6817,-2.48508 19.65127,-12.66443 22.45063,-19.97578 z"
             style="fill:#ffffff;fill-opacity:1;stroke:none" />
        </g>
      </g>
    </g>
    <path
       sodipodi:nodetypes="cccscc"
       inkscape:export-ydpi="90"
       inkscape:export-xdpi="90"
       inkscape:export-filename="C:\Users\Stéphane\Desktop\Blogs\OpenFoodFacts\test-178.png"
       inkscape:connector-curvature="0"
       id="path8163"
       d="M 137.87818,4.60402 C 135.88514,6.168809 135.07702,14.767884 135,28 l 2.96392,-1.398609 c 0,-1.461895 0.0361,1.860492 0.0361,0.398609 0,-10.866897 0.85886,-19.322201 1.21536,-21.117966 z"
       style="fill:#00d400;fill-opacity:1;fill-rule:nonzero;stroke:none" />
    <circle
       r="0.94885141"
       cy="35.27636"
       cx="159.09236"
       inkscape:export-ydpi="90"
       inkscape:export-xdpi="90"
       inkscape:export-filename="C:\Users\Stéphane\Desktop\Blogs\OpenFoodFacts\test-178.png"
       style="fill:#00ccff;fill-opacity:1;stroke:none"
       id="path8165" />
    <path
       sodipodi:nodetypes="cccccc"
       inkscape:export-ydpi="90"
       inkscape:export-xdpi="90"
       inkscape:export-filename="C:\Users\Stéphane\Desktop\Blogs\OpenFoodFacts\test-178.png"
       id="path8169"
       d="m 170.00004,118 0,5 c 2.66569,0 5.33424,0 7.99992,0 l 0,-5 c -2.66568,0 -5.33423,0 -7.99983,0 z"
       style="fill:#0066ff;fill-opacity:1;fill-rule:nonzero;stroke:none"
       inkscape:connector-curvature="0" />
    <path
       sodipodi:nodetypes="ccccc"
       inkscape:export-ydpi="90"
       inkscape:export-xdpi="90"
       inkscape:export-filename="C:\Users\Stéphane\Desktop\Blogs\OpenFoodFacts\test-178.png"
       id="path8171"
       d="m 154.00001,118 0,5 c 4.33407,0 8.6659,0 12.99997,0 l 0,-5 c -4.33407,0 -8.6659,0 -12.99997,0 z"
       style="fill:#00ccff;fill-opacity:1;fill-rule:nonzero;stroke:none"
       inkscape:connector-curvature="0" />
    <path
       sodipodi:nodetypes="ccccc"
       inkscape:export-ydpi="90"
       inkscape:export-xdpi="90"
       inkscape:export-filename="C:\Users\Stéphane\Desktop\Blogs\OpenFoodFacts\test-178.png"
       id="path8173"
       d="m 95,118 0,5 c 18.6596,0 37.34041,0 56.00004,0 l 0,-5 C 132.34041,118 113.6596,118 95,118 Z"
       style="fill:#00d400;fill-opacity:1;fill-rule:nonzero;stroke:none"
       inkscape:connector-curvature="0" />
    <path
       sodipodi:nodetypes="ccccc"
       inkscape:export-ydpi="90"
       inkscape:export-xdpi="90"
       inkscape:export-filename="C:\Users\Stéphane\Desktop\Blogs\OpenFoodFacts\test-178.png"
       id="path8175"
       d="m 36.999996,118 0,5 C 55.333383,123 73.666619,123 92,123 l 0,-5 c -18.333381,0 -36.666617,0 -55.000004,0 z"
       style="fill:#ffcc00;fill-opacity:1;fill-rule:nonzero;stroke:none"
       inkscape:connector-curvature="0" />
    <path
       sodipodi:nodetypes="ccccc"
       inkscape:export-ydpi="90"
       inkscape:export-xdpi="90"
       inkscape:export-filename="C:\Users\Stéphane\Desktop\Blogs\OpenFoodFacts\test-178.png"
       id="path8177"
       d="m 0,118 0,5 c 11.333706,0 22.666301,0 33.999997,0 l 0,-5 C 22.666301,118 11.333706,118 0,118 Z"
       style="fill:#ff0000;fill-opacity:1;fill-rule:nonzero;stroke:none"
       inkscape:connector-curvature="0" />
    <g
       style="font-style:normal;font-variant:normal;font-weight:normal;font-stretch:normal;font-size:32.81705093px;line-height:125%;font-family:'Arial Narrow';-inkscape-font-specification:'Arial Narrow';letter-spacing:0px;word-spacing:0px;fill:#333333;fill-opacity:1;stroke:none"
       id="text8179"
       inkscape:export-filename="C:\Users\Stéphane\Desktop\Blogs\OpenFoodFacts\test-178.png"
       inkscape:export-xdpi="90"
       inkscape:export-ydpi="90"
       transform="translate(0,2.637817)">
      <path
         inkscape:connector-curvature="0"
         d="m 0.29533203,104.18406 c -9.5e-7,-2.79573 0.61506181,-4.944723 1.84519007,-6.446982 1.2301228,-1.50223 2.7621882,-2.253352 4.5962009,-2.253369 1.1853862,1.7e-5 2.2664056,0.335506 3.2430614,1.006468 0.9766346,0.670993 1.7501226,1.645774 2.3204666,2.924346 0.570318,1.278597 0.855483,2.801347 0.855497,4.568247 -1.4e-5,2.43043 -0.551707,4.40982 -1.65508,5.93815 -1.215227,1.68491 -2.8069346,2.52736 -4.775128,2.52736 -1.9831188,0 -3.5785543,-0.86482 -4.7863113,-2.59445 -1.09593262,-1.56562 -1.64389762,-3.45554 -1.64389667,-5.66977 z m 1.83400717,0.0335 c -2.8e-6,2.0204 0.4454517,3.58787 1.3363649,4.70244 0.890905,1.11457 1.9737882,1.67185 3.2486529,1.67185 1.3046712,0 2.3987374,-0.56287 3.2822018,-1.68863 0.8834432,-1.12574 1.3251702,-2.78082 1.3251822,-4.96524 -1.2e-5,-1.40904 -0.227399,-2.66899 -0.682161,-3.77984 C 10.289169,99.308298 9.761706,98.628001 9.0571893,98.117299 8.3526532,97.606624 7.5828928,97.35128 6.7479059,97.351265 5.4059434,97.35128 4.3006943,97.910428 3.4321552,99.028711 2.563608,100.14702 2.1293364,101.87665 2.1293392,104.21761 Z"
         style="font-size:22.90272331px;fill:#333333"
         id="path3685" />
      <path
         d="m 15,112.36218 0,-16.999997 4.674837,0 c 1.224167,1.6e-5 2.126995,0.107131 2.708487,0.321346 0.795704,0.290757 1.430744,0.830159 1.905122,1.618206 0.474357,0.788077 0.711542,1.755941 0.711554,2.903595 -1.2e-5,1.51492 -0.386392,2.75057 -1.159142,3.70695 -0.772771,0.9564 -2.107912,1.42433 -4.005348,1.43458 L 17,105.36218 l 0,7 z m 2,-9 2.86994,-7.7e-4 c 1.124703,-3e-4 1.947195,-0.25439 2.467477,-0.7632 0.520265,-0.50879 0.780403,-1.27581 0.780412,-2.30107 -9e-6,-0.665632 -0.128166,-1.235638 -0.384467,-1.710022 -0.256321,-0.474353 -0.56619,-0.799524 -0.929608,-0.975514 -0.363435,-0.17596 -1.019516,-0.263948 -1.968244,-0.263963 L 17,97.362183 Z"
         style="font-size:22.90272331px;fill:#333333"
         id="path3687"
         inkscape:connector-curvature="0"
         sodipodi:nodetypes="ccccccssccccsscccccc" />
      <path
         d="m 27,112.36218 0,-16.999997 10,0 0,2 -8,0 0,4.999997 7,0 0,2 -7,0 0,6 8,0 0,2 z"
         style="font-size:22.90272331px;fill:#333333"
         id="path3689"
         inkscape:connector-curvature="0"
         sodipodi:nodetypes="ccccccccccccc" />
      <path
         d="m 39,112.36218 0,-16.999997 2,0 7,12.999997 0,-12.999997 2,0 0,16.999997 -2,0 -7,-12.999997 0,12.999997 z"
         style="font-size:22.90272331px;fill:#333333"
         id="path3691"
         inkscape:connector-curvature="0"
         sodipodi:nodetypes="ccccccccccc" />
      <path
         d="m 58,112.36218 0,-16.999997 9,0 0,2 -7,0 0,4.999997 6,0 0,2 -6,0 0,8 z"
         style="font-size:22.90272331px;fill:#333333"
         id="path3693"
         inkscape:connector-curvature="0"
         sodipodi:nodetypes="ccccccccccc" />
      <path
         d="m 68.255995,104.18406 c -10e-7,-2.79573 0.615062,-4.944723 1.84519,-6.446982 1.230123,-1.50223 2.762188,-2.253352 4.596201,-2.253369 1.185386,1.7e-5 2.266405,0.335506 3.243061,1.006468 0.976635,0.670993 1.750123,1.645774 2.320467,2.924346 0.570318,1.278597 0.855483,2.801347 0.855497,4.568247 -1.4e-5,2.43043 -0.551707,4.40982 -1.65508,5.93815 -1.215227,1.68491 -2.806935,2.52736 -4.775128,2.52736 -1.983119,0 -3.578554,-0.86482 -4.786311,-2.59445 -1.095933,-1.56562 -1.643898,-3.45554 -1.643897,-5.66977 z m 1.834007,0.0335 c -3e-6,2.0204 0.445452,3.58787 1.336365,4.70244 0.890905,1.11457 1.973788,1.67185 3.248653,1.67185 1.304671,0 2.398737,-0.56287 3.282202,-1.68863 0.883443,-1.12574 1.32517,-2.78082 1.325182,-4.96524 -1.2e-5,-1.40904 -0.227399,-2.66899 -0.682162,-3.77984 -0.35041,-0.849892 -0.877873,-1.530189 -1.58239,-2.040891 -0.704536,-0.510675 -1.474296,-0.766019 -2.309283,-0.766034 -1.341963,1.5e-5 -2.447212,0.559163 -3.315751,1.677446 -0.868547,1.118309 -1.302819,2.847939 -1.302816,5.188899 z"
         style="font-size:22.90272331px;fill:#333333"
         id="path3695"
         inkscape:connector-curvature="0"
         sodipodi:nodetypes="sscccccscsssssccccss" />
      <path
         d="m 82.883322,104.18406 c -1e-6,-2.79573 0.615062,-4.944723 1.84519,-6.446982 1.230123,-1.50223 2.762188,-2.253352 4.596201,-2.253369 1.185386,1.7e-5 2.266405,0.335506 3.243061,1.006468 0.976635,0.670993 1.750123,1.645774 2.320467,2.924346 0.570317,1.278597 0.855483,2.801347 0.855497,4.568247 -1.4e-5,2.43043 -0.551707,4.40982 -1.65508,5.93815 -1.215227,1.68491 -2.806935,2.52736 -4.775128,2.52736 -1.983119,0 -3.578555,-0.86482 -4.786312,-2.59445 -1.095932,-1.56562 -1.643897,-3.45554 -1.643896,-5.66977 z m 1.834007,0.0335 c -3e-6,2.0204 0.445452,3.58787 1.336365,4.70244 0.890905,1.11457 1.973788,1.67185 3.248653,1.67185 1.304671,0 2.398737,-0.56287 3.282202,-1.68863 0.883443,-1.12574 1.32517,-2.78082 1.325182,-4.96524 -1.2e-5,-1.40904 -0.227399,-2.66899 -0.682162,-3.77984 -0.35041,-0.849892 -0.877873,-1.530189 -1.58239,-2.040891 -0.704536,-0.510675 -1.474296,-0.766019 -2.309283,-0.766034 -1.341963,1.5e-5 -2.447212,0.559163 -3.315751,1.677446 -0.868547,1.118309 -1.302819,2.847939 -1.302816,5.188899 z"
         style="font-size:22.90272331px;fill:#333333"
         id="path3697"
         inkscape:connector-curvature="0"
         sodipodi:nodetypes="sscccccscsssssccccss" />
      <path
         d="m 98,112.36218 0,-16.999997 5,0 c 1.21266,1.6e-5 2.00501,0.174276 2.63497,0.382679 0.82682,0.270189 1.54339,0.719576 2.14974,1.437449 0.60633,0.717903 1.0788,1.622982 1.41741,2.715233 0.33859,1.092286 0.50789,2.387186 0.5079,3.884706 -1e-5,1.9221 -0.28743,3.55278 -0.86225,4.89207 -0.57485,1.33928 -1.31309,2.28875 -2.21471,2.8484 -0.90163,0.55964 -2.17628,0.83946 -3.63306,0.83946 z m 2,-2 3,0 c 1.22054,0 2.01682,-0.19791 2.64678,-0.58773 0.62996,-0.38982 1.11424,-1.01701 1.45285,-1.88157 0.44883,-1.15015 0.67326,-2.52803 0.67327,-4.13365 -1e-5,-1.72137 -0.23822,-3.07416 -0.71461,-4.058372 -0.47642,-0.984193 -1.08866,-1.642257 -1.83673,-1.974198 C 104.71759,97.502677 104.09454,97.362198 103,97.362183 l -3,0 z"
         style="font-size:22.90272331px;fill:#333333"
         id="path3699"
         inkscape:connector-curvature="0"
         sodipodi:nodetypes="ccccccccssccssccccccc" />
      <path
         d="m 118,112.36218 0.0757,-16.999997 9,0 0,2 -7,3.8e-5 0,4.999999 6,0 0,2 -6,0 0,7.99996 z"
         style="font-size:22.90272331px;fill:#333333"
         id="path3701"
         inkscape:connector-curvature="0"
         sodipodi:nodetypes="ccccccccccc" />
      <path
         d="m 128.07572,112.36218 5,-16.999997 2,0 5,16.999997 -2,0 -4,-14.999997 -4.04025,14.999997 z"
         style="font-size:22.90272331px;fill:#333333"
         id="path3703"
         inkscape:connector-curvature="0"
         sodipodi:nodetypes="cccccccc" />
      <path
         d="m 151.36137,106.42065 1.78927,0.54797 c -0.39514,1.84147 -1.08662,3.21511 -2.07444,4.12092 -0.98784,0.90583 -2.19001,1.35874 -3.60651,1.35874 -1.24504,0 -2.30929,-0.30381 -3.19273,-0.91142 -0.88346,-0.6076 -1.60663,-1.58238 -2.1695,-2.92434 -0.56288,-1.34195 -0.84432,-2.92621 -0.84432,-4.75277 0,-1.80417 0.28144,-3.33065 0.84432,-4.579422 0.56287,-1.248751 1.32518,-2.191847 2.28692,-2.829292 0.96173,-0.637413 2.03529,-0.956127 3.22069,-0.956144 1.29722,1.7e-5 2.41179,0.404467 3.34371,1.213353 0.9319,0.808916 1.58424,1.996173 1.95702,3.561775 l -1.74454,0.50323 c -0.59644,-2.281308 -1.79302,-3.42197 -3.58974,-3.421985 -0.89464,1.5e-5 -1.66999,0.229266 -2.32605,0.687753 -0.65608,0.458516 -1.17981,1.172361 -1.57121,2.141542 -0.39141,0.9692 -0.58711,2.1956 -0.58711,3.67919 0,2.24406 0.39513,3.92709 1.1854,5.04912 0.79026,1.12202 1.84145,1.68303 3.15359,1.68303 0.96919,0 1.80605,-0.3448 2.51058,-1.03442 0.70452,-0.68962 1.17607,-1.73522 1.41465,-3.13683 z"
         style="font-size:22.90272331px;fill:#333333"
         id="path3705"
         inkscape:connector-curvature="0"
         sodipodi:nodetypes="ccsscssscccccccsssssc" />
      <path
         d="m 159,112.36218 0,-14.999997 -5,0.0061 0,-2.006138 12,0 0,2 -5,0 0,14.999995 z"
         style="font-size:22.90272331px;fill:#333333"
         id="path3707"
         inkscape:connector-curvature="0"
         sodipodi:nodetypes="ccccccccc" />
      <path
         inkscape:connector-curvature="0"
         d="m 167.26826,106.90152 1.67745,-0.17893 c 0.0895,0.9021 0.29262,1.60476 0.60947,2.10799 0.31685,0.50324 0.76976,0.90769 1.35873,1.21336 0.58897,0.30567 1.25249,0.4585 1.99057,0.4585 1.05865,0 1.88059,-0.25907 2.46585,-0.77722 0.58523,-0.51814 0.87785,-1.19098 0.87786,-2.01852 -1e-5,-0.48459 -0.10625,-0.90768 -0.31872,-1.26927 -0.21248,-0.36158 -0.53306,-0.65793 -0.96173,-0.88905 -0.42869,-0.23111 -1.35501,-0.55541 -2.77897,-0.97292 -1.26741,-0.37275 -2.1695,-0.74925 -2.70628,-1.12948 -0.53678,-0.38021 -0.95428,-0.86294 -1.25249,-1.44819 -0.29822,-0.58523 -0.44732,-1.24689 -0.44732,-1.98498 0,-1.32703 0.42868,-2.411777 1.28604,-3.254242 0.85736,-0.842434 2.01293,-1.263659 3.46672,-1.263676 0.99901,1.7e-5 1.87314,0.197583 2.62241,0.592698 0.74925,0.395147 1.33076,0.96175 1.74454,1.699811 0.41376,0.73809 0.63556,1.606633 0.66539,2.605629 l -1.711,0.15656 c -0.0895,-1.066092 -0.40818,-1.856355 -0.95614,-2.370785 -0.54797,-0.514402 -1.31773,-0.77161 -2.30928,-0.771625 -1.00648,1.5e-5 -1.77437,0.225538 -2.30369,0.67657 -0.52934,0.45106 -0.794,1.034438 -0.794,1.750135 0,0.663535 0.19384,1.177955 0.58152,1.543245 0.38767,0.36533 1.25994,0.73436 2.61681,1.10712 1.32704,0.36532 2.25896,0.68217 2.79575,0.95055 0.82007,0.41751 1.43886,0.96734 1.85637,1.64949 0.41749,0.68217 0.62623,1.49666 0.62625,2.44348 -2e-5,0.93937 -0.21995,1.79487 -0.6598,2.56649 -0.43987,0.77163 -1.03816,1.35873 -1.79487,1.76132 -0.75672,0.40258 -1.66813,0.60388 -2.73423,0.60388 -1.66254,0 -2.98772,-0.49951 -3.97555,-1.49852 -0.98783,-0.99901 -1.50038,-2.35215 -1.53766,-4.05942 z"
         style="font-size:22.90272331px;fill:#333333"
         id="path3709" />
      <path
         sodipodi:nodetypes="ccccc"
         inkscape:connector-curvature="0"
         id="path3713"
         style="font-size:22.90272331px;fill:#333333"
         d="m 137.07572,105.36218 0,2 -6,0 0,-2 z" />
    </g>
    <g
       transform="scale(0.79345326,1.2603137)"
       style="font-style:normal;font-variant:normal;font-weight:normal;font-stretch:normal;font-size:30.57533073px;line-height:125%;font-family:'Arial Narrow';-inkscape-font-specification:'Arial Narrow';letter-spacing:0px;word-spacing:0px;fill:#333333;fill-opacity:1;stroke:none"
       id="text3715-8">
      <path
         d="M 1.8151584,110.38892 0,103.14194 l 1.0440573,0 0.9416987,4.18305 0.3480191,1.55585 0.3138996,-1.49443 0.9416987,-4.24447 1.0372334,0 0.8871075,4.20352 0.3002518,1.38526 0.3411952,-1.39891 1.0167617,-4.18987 0.9826421,0 -1.8629257,7.24698 -1.0440573,0 -0.9485227,-4.34 -0.2251888,-1.23513 -1.2010071,5.57513 -1.0577051,0 z"
         style="font-size:13.97535515px;fill:#333333;fill-opacity:1"
         id="path5087" />
      <path
         d="m 8.6185908,106.76543 q 0,-1.87657 0.784749,-2.83192 0.7915732,-0.95535 1.9994042,-0.95535 1.187359,0 1.985756,0.95535 0.798396,0.95535 0.798396,2.75686 0,1.95163 -0.784749,2.90698 -0.784749,0.95535 -1.999403,0.95535 -1.194184,0 -1.9925803,-0.95535 -0.7915729,-0.96217 -0.7915729,-2.83192 z m 1.0304095,0 q 0,1.40572 0.5117927,2.09494 0.511793,0.68239 1.269246,0.68239 0.709686,0 1.214655,-0.68921 0.511793,-0.69604 0.511793,-2.08812 0,-1.3989 -0.511793,-2.08129 -0.511793,-0.68921 -1.269246,-0.68921 -0.71651,0 -1.221479,0.68921 -0.5049687,0.68921 -0.5049687,2.08129 z"
         style="font-size:13.97535515px;fill:#333333;fill-opacity:1"
         id="path5089" />
      <path
         d="m 15.353784,110.38892 0,-10.00384 1.003113,0 0,10.00384 -1.003113,0 z"
         style="font-size:13.97535515px;fill:#333333;fill-opacity:1"
         id="path5091" />
      <path
         d="m 17.919571,110.38892 0,-7.24698 0.90758,0 0,1.03041 q 0.327547,-0.60051 0.798396,-0.89393 0.477674,-0.30026 1.091825,-0.30026 0.477673,0 0.880284,0.19107 0.409434,0.18425 0.655094,0.49132 0.252485,0.30026 0.375315,0.78475 0.12283,0.4845 0.12283,1.48761 l 0,4.45601 -1.009937,0 0,-4.40824 q 0,-0.7984 -0.136479,-1.16689 -0.136478,-0.36849 -0.429905,-0.56638 -0.286604,-0.20472 -0.668743,-0.20472 -0.723334,0 -1.15324,0.53909 -0.429906,0.53909 -0.429906,1.84928 l 0,3.95786 -1.003114,0 z"
         style="font-size:13.97535515px;fill:#333333;fill-opacity:1"
         id="path5093" />
      <path
         d="m 28.182723,109.49499 q -0.504969,0.52544 -1.050881,0.79158 -0.545912,0.26613 -1.132768,0.26613 -0.928051,0 -1.480787,-0.55956 -0.552736,-0.55956 -0.552736,-1.50809 0,-0.62779 0.259308,-1.11229 0.259308,-0.4845 0.709686,-0.75746 0.450378,-0.27295 1.364781,-0.40261 1.228303,-0.17742 1.801511,-0.42308 l 0.0068,-0.3139 q 0,-0.7438 -0.266132,-1.04405 -0.375315,-0.43673 -1.15324,-0.43673 -0.702862,0 -1.050881,0.29342 -0.348019,0.28661 -0.511793,1.085 l -0.989466,-0.16377 q 0.211541,-1.16689 0.852988,-1.69915 0.648271,-0.53227 1.849278,-0.53227 0.934875,0 1.46714,0.35485 0.532264,0.34802 0.668742,0.86663 0.143302,0.51862 0.143302,1.51491 l 0,1.63774 q 0,1.71962 0.06142,2.17 0.06824,0.44355 0.259309,0.86663 l -1.050881,0 q -0.15695,-0.37531 -0.204718,-0.89393 z m -0.08189,-2.74321 q -0.552737,0.27296 -1.644561,0.46403 -0.634623,0.10918 -0.887108,0.25248 -0.252484,0.13648 -0.395786,0.39579 -0.136478,0.25248 -0.136478,0.58685 0,0.51862 0.320723,0.83252 0.320724,0.30708 0.887108,0.30708 0.539088,0 0.975818,-0.27978 0.443554,-0.27978 0.661919,-0.74381 0.218365,-0.47085 0.218365,-1.36478 l 0,-0.45038 z"
         style="font-size:13.97535515px;fill:#333333;fill-opacity:1"
         id="path5095" />
      <path
         d="m 34.815558,110.38892 -0.934875,0 0,-10.00384 1.003114,0 0,3.5689 q 0.320723,-0.49132 0.723334,-0.73016 0.409434,-0.24566 0.907579,-0.24566 0.696038,0 1.262422,0.41626 0.573208,0.41626 0.914403,1.26242 0.341195,0.84617 0.341195,2.054 0,1.84245 -0.771101,2.84557 -0.771101,0.99629 -1.80151,0.99629 -0.518617,0 -0.934875,-0.26613 -0.409434,-0.27296 -0.709686,-0.80523 l 0,0.90758 z m -0.01365,-3.67808 q 0,1.12594 0.204717,1.6855 0.204717,0.55956 0.580032,0.85299 0.375315,0.29343 0.832516,0.29343 0.620976,0 1.098649,-0.69604 0.484497,-0.70286 0.484497,-2.09494 0,-1.42619 -0.464025,-2.09494 -0.464026,-0.66874 -1.139592,-0.66874 -0.620976,0 -1.112297,0.70286 -0.484497,0.69604 -0.484497,2.01988 z"
         style="font-size:13.97535515px;fill:#333333;fill-opacity:1"
         id="path5097" />
      <path
         d="m 44.150657,109.49499 q -0.504969,0.52544 -1.050881,0.79158 -0.545912,0.26613 -1.132768,0.26613 -0.928051,0 -1.480787,-0.55956 -0.552737,-0.55956 -0.552737,-1.50809 0,-0.62779 0.259309,-1.11229 0.259308,-0.4845 0.709686,-0.75746 0.450377,-0.27295 1.364781,-0.40261 1.228302,-0.17742 1.80151,-0.42308 l 0.0068,-0.3139 q 0,-0.7438 -0.266132,-1.04405 -0.375315,-0.43673 -1.15324,-0.43673 -0.702862,0 -1.050881,0.29342 -0.348019,0.28661 -0.511793,1.085 l -0.989466,-0.16377 q 0.211541,-1.16689 0.852988,-1.69915 0.648271,-0.53227 1.849278,-0.53227 0.934875,0 1.467139,0.35485 0.532265,0.34802 0.668743,0.86663 0.143302,0.51862 0.143302,1.51491 l 0,1.63774 q 0,1.71962 0.06141,2.17 0.06824,0.44355 0.259308,0.86663 l -1.050881,0 q -0.15695,-0.37531 -0.204717,-0.89393 z m -0.08189,-2.74321 q -0.552736,0.27296 -1.644561,0.46403 -0.634623,0.10918 -0.887107,0.25248 -0.252485,0.13648 -0.395787,0.39579 -0.136478,0.25248 -0.136478,0.58685 0,0.51862 0.320724,0.83252 0.320723,0.30708 0.887107,0.30708 0.539089,0 0.975819,-0.27978 0.443553,-0.27978 0.661918,-0.74381 0.218365,-0.47085 0.218365,-1.36478 l 0,-0.45038 z"
         style="font-size:13.97535515px;fill:#333333;fill-opacity:1"
         id="path5099" />
      <path
         d="m 46.150063,110.38892 0,-0.99629 3.787267,-5.29535 q -0.648271,0.0409 -1.139592,0.0409 l -2.422486,0 0,-0.99629 4.85862,0 0,0.81204 -3.220883,4.59931 -0.620975,0.83934 q 0.675566,-0.0614 1.269246,-0.0614 l 2.750033,0 0,1.0577 -5.26123,0 z"
         style="font-size:13.97535515px;fill:#333333;fill-opacity:1"
         id="path5101" />
      <path
         d="m 56.269912,109.49499 q -0.504969,0.52544 -1.050881,0.79158 -0.545912,0.26613 -1.132768,0.26613 -0.928051,0 -1.480787,-0.55956 -0.552736,-0.55956 -0.552736,-1.50809 0,-0.62779 0.259308,-1.11229 0.259308,-0.4845 0.709686,-0.75746 0.450378,-0.27295 1.364781,-0.40261 1.228302,-0.17742 1.80151,-0.42308 l 0.0068,-0.3139 q 0,-0.7438 -0.266132,-1.04405 -0.375315,-0.43673 -1.15324,-0.43673 -0.702862,0 -1.050881,0.29342 -0.348019,0.28661 -0.511793,1.085 l -0.989466,-0.16377 q 0.211541,-1.16689 0.852988,-1.69915 0.648271,-0.53227 1.849278,-0.53227 0.934875,0 1.467139,0.35485 0.532265,0.34802 0.668743,0.86663 0.143302,0.51862 0.143302,1.51491 l 0,1.63774 q 0,1.71962 0.06141,2.17 0.06824,0.44355 0.259308,0.86663 l -1.050881,0 q -0.15695,-0.37531 -0.204717,-0.89393 z m -0.08189,-2.74321 q -0.552736,0.27296 -1.644561,0.46403 -0.634623,0.10918 -0.887107,0.25248 -0.252485,0.13648 -0.395787,0.39579 -0.136478,0.25248 -0.136478,0.58685 0,0.51862 0.320724,0.83252 0.320723,0.30708 0.887107,0.30708 0.539089,0 0.975819,-0.27978 0.443553,-0.27978 0.661918,-0.74381 0.218365,-0.47085 0.218365,-1.36478 l 0,-0.45038 z"
         style="font-size:13.97535515px;fill:#333333;fill-opacity:1"
         id="path5103" />
      <path
         d="m 65.830201,110.38892 0,-0.9144 q -0.272956,0.52544 -0.702862,0.80522 -0.429906,0.27296 -0.928051,0.27296 -1.050881,0 -1.821982,-0.98947 -0.764277,-0.99629 -0.764277,-2.7978 0,-1.23513 0.341195,-2.09494 0.341195,-0.85981 0.907579,-1.27607 0.573208,-0.41626 1.269246,-0.41626 0.498145,0 0.921227,0.26614 0.429906,0.2593 0.709686,0.73015 l 0,-3.58937 1.009938,0 0,10.00384 -0.941699,0 z m -3.186763,-3.61667 q 0,1.40573 0.484497,2.08812 0.491321,0.68239 1.139592,0.68239 0.641447,0 1.112297,-0.6551 0.470849,-0.65509 0.470849,-1.97893 0,-1.52173 -0.470849,-2.21777 -0.47085,-0.70286 -1.18736,-0.70286 -0.634623,0 -1.091824,0.67557 -0.457202,0.66874 -0.457202,2.10858 z"
         style="font-size:13.97535515px;fill:#333333;fill-opacity:1"
         id="path5105" />
      <path
         d="m 72.237846,109.49499 q -0.504969,0.52544 -1.050881,0.79158 -0.545913,0.26613 -1.132768,0.26613 -0.928051,0 -1.480788,-0.55956 -0.552736,-0.55956 -0.552736,-1.50809 0,-0.62779 0.259309,-1.11229 0.259308,-0.4845 0.709686,-0.75746 0.450377,-0.27295 1.36478,-0.40261 1.228303,-0.17742 1.801511,-0.42308 l 0.0068,-0.3139 q 0,-0.7438 -0.266132,-1.04405 -0.375315,-0.43673 -1.15324,-0.43673 -0.702862,0 -1.050881,0.29342 -0.348019,0.28661 -0.511793,1.085 l -0.989466,-0.16377 q 0.211541,-1.16689 0.852988,-1.69915 0.648271,-0.53227 1.849278,-0.53227 0.934875,0 1.467139,0.35485 0.532265,0.34802 0.668743,0.86663 0.143302,0.51862 0.143302,1.51491 l 0,1.63774 q 0,1.71962 0.06142,2.17 0.06824,0.44355 0.259308,0.86663 l -1.050881,0 q -0.15695,-0.37531 -0.204717,-0.89393 z m -0.08189,-2.74321 q -0.552736,0.27296 -1.644561,0.46403 -0.634623,0.10918 -0.887107,0.25248 -0.252485,0.13648 -0.395787,0.39579 -0.136478,0.25248 -0.136478,0.58685 0,0.51862 0.320724,0.83252 0.320723,0.30708 0.887107,0.30708 0.539088,0 0.975818,-0.27978 0.443554,-0.27978 0.661919,-0.74381 0.218365,-0.47085 0.218365,-1.36478 l 0,-0.45038 z"
         style="font-size:13.97535515px;fill:#333333;fill-opacity:1"
         id="path5107" />
      <path
         d="m 74.749045,110.38892 0,-7.24698 0.907579,0 0,1.03041 q 0.327547,-0.60051 0.798397,-0.89393 0.477673,-0.30026 1.091824,-0.30026 0.477674,0 0.880284,0.19107 0.409434,0.18425 0.655095,0.49132 0.252484,0.30026 0.375315,0.78475 0.12283,0.4845 0.12283,1.48761 l 0,4.45601 -1.009938,0 0,-4.40824 q 0,-0.7984 -0.136478,-1.16689 -0.136478,-0.36849 -0.429906,-0.56638 -0.286604,-0.20472 -0.668743,-0.20472 -0.723333,0 -1.153239,0.53909 -0.429906,0.53909 -0.429906,1.84928 l 0,3.95786 -1.003114,0 z"
         style="font-size:13.97535515px;fill:#333333;fill-opacity:1"
         id="path5109" />
      <path
         d="m 81.108926,113.1799 -0.109183,-1.15324 q 0.334372,0.10918 0.573208,0.10918 0.320724,0 0.525441,-0.12965 0.211541,-0.12966 0.348019,-0.40261 0.04777,-0.0955 0.395786,-1.20101 l -2.258712,-7.26063 1.085001,0 1.24195,4.1967 q 0.232013,0.78475 0.429906,1.67868 0.170598,-0.84617 0.409435,-1.65139 l 1.269246,-4.22399 1.009937,0 -2.258712,7.36981 q -0.443553,1.43302 -0.702862,1.9107 -0.252484,0.48449 -0.580032,0.69604 -0.320723,0.21154 -0.730157,0.21154 -0.286604,0 -0.648271,-0.15013 z"
         style="font-size:13.97535515px;fill:#333333;fill-opacity:1"
         id="path5111" />
      <path
         d="m 90.764749,107.73443 0.989466,0.15694 q -0.170597,1.29655 -0.859812,1.97894 -0.68239,0.68239 -1.644561,0.68239 -1.166887,0 -1.924341,-0.95535 -0.750629,-0.96217 -0.750629,-2.83874 0,-1.89022 0.757453,-2.83192 0.764278,-0.94853 1.958461,-0.94853 0.921227,0 1.549026,0.57321 0.634623,0.57321 0.812045,1.71963 l -0.975819,0.18424 q -0.143302,-0.73698 -0.498145,-1.09865 -0.354843,-0.36849 -0.852988,-0.36849 -0.743805,0 -1.235126,0.66192 -0.484497,0.6551 -0.484497,2.08812 0,1.48078 0.464025,2.1427 0.470849,0.66192 1.201007,0.66192 0.573208,0 0.975818,-0.43673 0.409435,-0.44355 0.518617,-1.3716 z"
         style="font-size:13.97535515px;fill:#333333;fill-opacity:1"
         id="path5113" />
      <path
         d="m 92.600378,110.38892 0,-10.00384 1.003114,0 0,3.58937 q 0.354843,-0.49814 0.798397,-0.7438 0.450378,-0.25249 0.989466,-0.25249 0.948523,0 1.494435,0.60733 0.552736,0.60051 0.552736,2.21095 l 0,4.59248 -1.003114,0 0,-4.59248 q 0,-0.9417 -0.334371,-1.35114 -0.334371,-0.40943 -0.921227,-0.40943 -0.655095,0 -1.11912,0.52544 -0.457202,0.52544 -0.457202,1.86293 l 0,3.96468 -1.003114,0 z"
         style="font-size:13.97535515px;fill:#333333;fill-opacity:1"
         id="path5115" />
      <path
         d="m 102.18114,113.16625 0,-10.02431 0.92122,0 0,0.9417 q 0.3412,-0.58686 0.75746,-0.84617 0.41625,-0.25931 0.95534,-0.25931 0.70286,0 1.26925,0.41626 0.56638,0.41626 0.90758,1.26925 0.34802,0.84616 0.34802,2.04035 0,1.84927 -0.77793,2.85239 -0.7711,0.99629 -1.81516,0.99629 -0.46402,0 -0.86663,-0.23884 -0.40261,-0.23884 -0.69604,-0.67557 l 0,3.52796 -1.00311,0 z m 0.90757,-6.35988 q 0,1.40573 0.47085,2.07447 0.47085,0.66192 1.1396,0.66192 0.64144,0 1.12594,-0.68921 0.4845,-0.68922 0.4845,-2.12906 0,-1.41937 -0.47085,-2.10177 -0.47085,-0.68239 -1.14642,-0.68239 -0.60733,0 -1.10547,0.73699 -0.49815,0.73015 -0.49815,2.12905 z"
         style="font-size:13.97535515px;fill:#333333;fill-opacity:1"
         id="path5117" />
      <path
         d="m 108.56831,110.38892 0,-7.24698 0.90758,0 0,1.09865 q 0.34802,-0.76428 0.63462,-1.00994 0.29343,-0.25249 0.6551,-0.25249 0.50497,0 1.03041,0.39579 l -0.3412,1.13959 q -0.37531,-0.26613 -0.73015,-0.26613 -0.32073,0 -0.58686,0.22519 -0.26613,0.22519 -0.37531,0.6278 -0.19107,0.70286 -0.19107,1.49443 l 0,3.79409 -1.00312,0 z"
         style="font-size:13.97535515px;fill:#333333;fill-opacity:1"
         id="path5119" />
      <path
         d="m 112.01439,106.76543 q 0,-1.87657 0.78474,-2.83192 0.79158,-0.95535 1.99941,-0.95535 1.18736,0 1.98575,0.95535 0.7984,0.95535 0.7984,2.75686 0,1.95163 -0.78475,2.90698 -0.78475,0.95535 -1.9994,0.95535 -1.19418,0 -1.99258,-0.95535 -0.79157,-0.96217 -0.79157,-2.83192 z m 1.03041,0 q 0,1.40572 0.51179,2.09494 0.51179,0.68239 1.26924,0.68239 0.70969,0 1.21466,-0.68921 0.51179,-0.69604 0.51179,-2.08812 0,-1.3989 -0.51179,-2.08129 -0.51179,-0.68921 -1.26925,-0.68921 -0.71651,0 -1.22148,0.68921 -0.50496,0.68921 -0.50496,2.08129 z"
         style="font-size:13.97535515px;fill:#333333;fill-opacity:1"
         id="path5121" />
      <path
         d="m 122.63237,110.38892 0,-0.9144 q -0.27295,0.52544 -0.70286,0.80522 -0.4299,0.27296 -0.92805,0.27296 -1.05088,0 -1.82198,-0.98947 -0.76428,-0.99629 -0.76428,-2.7978 0,-1.23513 0.3412,-2.09494 0.34119,-0.85981 0.90758,-1.27607 0.5732,-0.41626 1.26924,-0.41626 0.49815,0 0.92123,0.26614 0.42991,0.2593 0.70969,0.73015 l 0,-3.58937 1.00993,0 0,10.00384 -0.9417,0 z m -3.18676,-3.61667 q 0,1.40573 0.4845,2.08812 0.49132,0.68239 1.13959,0.68239 0.64145,0 1.1123,-0.6551 0.47085,-0.65509 0.47085,-1.97893 0,-1.52173 -0.47085,-2.21777 -0.47085,-0.70286 -1.18736,-0.70286 -0.63463,0 -1.09183,0.67557 -0.4572,0.66874 -0.4572,2.10858 z"
         style="font-size:13.97535515px;fill:#333333;fill-opacity:1"
         id="path5123" />
      <path
         d="m 129.06049,110.38892 0,-1.06453 q -0.34801,0.61416 -0.81886,0.92123 -0.47085,0.30708 -1.06453,0.30708 -0.70286,0 -1.20101,-0.37532 -0.49814,-0.38214 -0.66874,-0.96217 -0.16378,-0.58003 -0.16378,-1.58314 l 0,-4.49013 1.00312,0 0,4.01928 q 0,1.11912 0.10918,1.50126 0.11601,0.37531 0.41626,0.60732 0.30707,0.22519 0.69604,0.22519 0.72333,0 1.18736,-0.59368 0.39578,-0.51179 0.39578,-1.87657 l 0,-3.8828 1.00994,0 0,7.24698 -0.90076,0 z"
         style="font-size:13.97535515px;fill:#333333;fill-opacity:1"
         id="path5125" />
      <path
         d="m 131.57851,110.38892 0,-10.00384 1.00311,0 0,5.70478 2.38837,-2.94792 1.30337,0 -2.27236,2.68862 2.49754,4.55836 -1.23512,0 -1.97211,-3.70538 -0.70969,0.83252 0,2.87286 -1.00311,0 z"
         style="font-size:13.97535515px;fill:#333333;fill-opacity:1"
         id="path5127" />
      <path
         d="m 139.52837,109.29028 0.13647,1.085 q -0.41625,0.10918 -0.75063,0.10918 -0.52544,0 -0.84616,-0.20472 -0.32072,-0.21154 -0.44355,-0.57321 -0.11601,-0.36166 -0.11601,-1.43984 l 0,-4.16941 -0.73698,0 0,-0.95534 0.73698,0 0,-1.79469 1.00311,-0.73698 0,2.53167 1.01677,0 0,0.95534 -1.01677,0 0,4.23765 q 0,0.58685 0.0887,0.75745 0.12966,0.24566 0.4845,0.24566 0.1706,0 0.44356,-0.0478 z"
         style="font-size:13.97535515px;fill:#333333;fill-opacity:1"
         id="path5129" />
      <path
         d="m 140.10157,106.76543 q 0,-1.87657 0.78475,-2.83192 0.79158,-0.95535 1.99941,-0.95535 1.18736,0 1.98575,0.95535 0.7984,0.95535 0.7984,2.75686 0,1.95163 -0.78475,2.90698 -0.78475,0.95535 -1.9994,0.95535 -1.19419,0 -1.99258,-0.95535 -0.79158,-0.96217 -0.79158,-2.83192 z m 1.03041,0 q 0,1.40572 0.5118,2.09494 0.51179,0.68239 1.26924,0.68239 0.70969,0 1.21466,-0.68921 0.51179,-0.69604 0.51179,-2.08812 0,-1.3989 -0.51179,-2.08129 -0.5118,-0.68921 -1.26925,-0.68921 -0.71651,0 -1.22148,0.68921 -0.50497,0.68921 -0.50497,2.08129 z m 1.01677,-4.52425 0.7438,-1.91069 1.31701,0 -1.2283,1.91069 -0.83251,0 z"
         style="font-size:13.97535515px;fill:#333333;fill-opacity:1"
         id="path5131" />
      <path
         d="m 147.95589,110.38892 -1.81516,-7.24698 1.04406,0 0.9417,4.18305 0.34802,1.55585 0.3139,-1.49443 0.9417,-4.24447 1.03723,0 0.88711,4.20352 0.30025,1.38526 0.34119,-1.39891 1.01676,-4.18987 0.98265,0 -1.86293,7.24698 -1.04406,0 -0.94852,-4.34 -0.22519,-1.23513 -1.201,5.57513 -1.05771,0 z"
         style="font-size:13.97535515px;fill:#333333;fill-opacity:1"
         id="path5133" />
      <path
         d="m 157.94608,108.22575 0.99629,-0.19107 q 0.0887,0.76427 0.4845,1.13959 0.39579,0.36849 1.05088,0.36849 0.6551,0 1.00994,-0.32072 0.36167,-0.32755 0.36167,-0.8257 0,-0.4299 -0.30708,-0.66874 -0.21154,-0.16377 -1.02358,-0.40943 -1.17372,-0.36167 -1.5695,-0.61415 -0.39579,-0.25249 -0.61415,-0.67557 -0.21837,-0.42308 -0.21837,-0.96217 0,-0.92805 0.59368,-1.50808 0.59368,-0.58004 1.64456,-0.58004 0.66192,0 1.16007,0.23884 0.50496,0.23884 0.7711,0.64145 0.26613,0.40261 0.36849,1.15324 l -0.98264,0.16377 q -0.13648,-1.18736 -1.28972,-1.18736 -0.6551,0 -0.97582,0.26613 -0.32072,0.25931 -0.32072,0.66875 0,0.40261 0.30707,0.63462 0.18425,0.13648 1.09183,0.43673 1.24877,0.40261 1.61726,0.64145 0.36849,0.23201 0.57321,0.64144 0.20472,0.40261 0.20472,0.96217 0,1.03724 -0.66192,1.67868 -0.6551,0.64145 -1.79469,0.64145 -2.13588,0 -2.47708,-2.33377 z"
         style="font-size:13.97535515px;fill:#333333;fill-opacity:1"
         id="path5135" />
      <path
         d="m 164.06029,113.16625 0,-10.02431 0.92123,0 0,0.9417 q 0.3412,-0.58686 0.75745,-0.84617 0.41626,-0.25931 0.95535,-0.25931 0.70286,0 1.26925,0.41626 0.56638,0.41626 0.90758,1.26925 0.34801,0.84616 0.34801,2.04035 0,1.84927 -0.77792,2.85239 -0.7711,0.99629 -1.81516,0.99629 -0.46402,0 -0.86663,-0.23884 -0.40261,-0.23884 -0.69604,-0.67557 l 0,3.52796 -1.00312,0 z m 0.90758,-6.35988 q 0,1.40573 0.47085,2.07447 0.47085,0.66192 1.13959,0.66192 0.64145,0 1.12595,-0.68921 0.4845,-0.68922 0.4845,-2.12906 0,-1.41937 -0.47085,-2.10177 -0.47085,-0.68239 -1.14642,-0.68239 -0.60733,0 -1.10547,0.73699 -0.49815,0.73015 -0.49815,2.12905 z"
         style="font-size:13.97535515px;fill:#333333;fill-opacity:1"
         id="path5137" />
      <path
         d="m 170.07216,106.76543 q 0,-1.87657 0.78474,-2.83192 0.79158,-0.95535 1.99941,-0.95535 1.18736,0 1.98575,0.95535 0.7984,0.95535 0.7984,2.75686 0,1.95163 -0.78475,2.90698 -0.78475,0.95535 -1.9994,0.95535 -1.19418,0 -1.99258,-0.95535 -0.79157,-0.96217 -0.79157,-2.83192 z m 1.0304,0 q 0,1.40572 0.5118,2.09494 0.51179,0.68239 1.26924,0.68239 0.70969,0 1.21466,-0.68921 0.51179,-0.69604 0.51179,-2.08812 0,-1.3989 -0.51179,-2.08129 -0.51179,-0.68921 -1.26925,-0.68921 -0.71651,0 -1.22148,0.68921 -0.50497,0.68921 -0.50497,2.08129 z"
         style="font-size:13.97535515px;fill:#333333;fill-opacity:1"
         id="path5139" />
      <path
         d="m 176.32285,110.38892 0,-0.99629 3.78727,-5.29535 q -0.64827,0.0409 -1.13959,0.0409 l -2.42249,0 0,-0.99629 4.85862,0 0,0.81204 -3.22088,4.59931 -0.62098,0.83934 q 0.67557,-0.0614 1.26925,-0.0614 l 2.75003,0 0,1.0577 -5.26123,0 z m 1.92434,-8.14774 0,-1.52855 1.24878,0 0,1.52855 -1.24878,0 z"
         style="font-size:13.97535515px;fill:#333333;fill-opacity:1"
         id="path5141" />
      <path
         d="m 182.53942,113.1799 -0.10918,-1.15324 q 0.33437,0.10918 0.57321,0.10918 0.32072,0 0.52544,-0.12965 0.21154,-0.12966 0.34802,-0.40261 0.0478,-0.0955 0.39578,-1.20101 l -2.25871,-7.26063 1.085,0 1.24195,4.1967 q 0.23202,0.78475 0.42991,1.67868 0.1706,-0.84617 0.40943,-1.65139 l 1.26925,-4.22399 1.00994,0 -2.25872,7.36981 q -0.44355,1.43302 -0.70286,1.9107 -0.25248,0.48449 -0.58003,0.69604 -0.32072,0.21154 -0.73016,0.21154 -0.2866,0 -0.64827,-0.15013 z"
         style="font-size:13.97535515px;fill:#333333;fill-opacity:1"
         id="path5143" />
      <path
         d="m 189.39063,110.38892 -1.81516,-7.24698 1.04406,0 0.9417,4.18305 0.34802,1.55585 0.31389,-1.49443 0.9417,-4.24447 1.03724,0 0.8871,4.20352 0.30026,1.38526 0.34119,-1.39891 1.01676,-4.18987 0.98265,0 -1.86293,7.24698 -1.04406,0 -0.94852,-4.34 -0.22519,-1.23513 -1.20101,5.57513 -1.0577,0 z"
         style="font-size:13.97535515px;fill:#333333;fill-opacity:1"
         id="path5145" />
      <path
         d="m 200.46582,107.73443 0.98947,0.15694 q -0.1706,1.29655 -0.85981,1.97894 -0.68239,0.68239 -1.64456,0.68239 -1.16689,0 -1.92435,-0.95535 -0.75063,-0.96217 -0.75063,-2.83874 0,-1.89022 0.75746,-2.83192 0.76428,-0.94853 1.95846,-0.94853 0.92123,0 1.54902,0.57321 0.63463,0.57321 0.81205,1.71963 l -0.97582,0.18424 q -0.1433,-0.73698 -0.49814,-1.09865 -0.35485,-0.36849 -0.85299,-0.36849 -0.74381,0 -1.23513,0.66192 -0.4845,0.6551 -0.4845,2.08812 0,1.48078 0.46403,2.1427 0.47085,0.66192 1.20101,0.66192 0.5732,0 0.97582,-0.43673 0.40943,-0.44355 0.51861,-1.3716 z"
         style="font-size:13.97535515px;fill:#333333;fill-opacity:1"
         id="path5147" />
      <path
         d="m 201.78967,110.38892 0,-0.99629 3.78726,-5.29535 q -0.64827,0.0409 -1.13959,0.0409 l -2.42249,0 0,-0.99629 4.85862,0 0,0.81204 -3.22088,4.59931 -0.62097,0.83934 q 0.67556,-0.0614 1.26924,-0.0614 l 2.75004,0 0,1.0577 -5.26123,0 z"
         style="font-size:13.97535515px;fill:#333333;fill-opacity:1"
         id="path5149" />
      <path
         d="m 208.00623,113.1799 -0.10918,-1.15324 q 0.33437,0.10918 0.57321,0.10918 0.32072,0 0.52544,-0.12965 0.21154,-0.12966 0.34802,-0.40261 0.0478,-0.0955 0.39579,-1.20101 l -2.25872,-7.26063 1.085,0 1.24195,4.1967 q 0.23202,0.78475 0.42991,1.67868 0.1706,-0.84617 0.40943,-1.65139 l 1.26925,-4.22399 1.00994,0 -2.25871,7.36981 q -0.44356,1.43302 -0.70287,1.9107 -0.25248,0.48449 -0.58003,0.69604 -0.32072,0.21154 -0.73016,0.21154 -0.2866,0 -0.64827,-0.15013 z"
         style="font-size:13.97535515px;fill:#333333;fill-opacity:1"
         id="path5151" />
      <path
         d="m 217.66207,107.73443 0.98946,0.15694 q -0.1706,1.29655 -0.85981,1.97894 -0.68239,0.68239 -1.64456,0.68239 -1.16689,0 -1.92434,-0.95535 -0.75063,-0.96217 -0.75063,-2.83874 0,-1.89022 0.75745,-2.83192 0.76428,-0.94853 1.95846,-0.94853 0.92123,0 1.54903,0.57321 0.63462,0.57321 0.81204,1.71963 l -0.97582,0.18424 q -0.1433,-0.73698 -0.49814,-1.09865 -0.35484,-0.36849 -0.85299,-0.36849 -0.7438,0 -1.23513,0.66192 -0.48449,0.6551 -0.48449,2.08812 0,1.48078 0.46402,2.1427 0.47085,0.66192 1.20101,0.66192 0.57321,0 0.97582,-0.43673 0.40943,-0.44355 0.51862,-1.3716 z"
         style="font-size:13.97535515px;fill:#333333;fill-opacity:1"
         id="path5153" />
      <path
         d="m 219.49769,110.38892 0,-10.00384 1.00311,0 0,3.58937 q 0.35484,-0.49814 0.7984,-0.7438 0.45038,-0.25249 0.98946,-0.25249 0.94853,0 1.49444,0.60733 0.55273,0.60051 0.55273,2.21095 l 0,4.59248 -1.00311,0 0,-4.59248 q 0,-0.9417 -0.33437,-1.35114 -0.33437,-0.40943 -0.92123,-0.40943 -0.65509,0 -1.11912,0.52544 -0.4572,0.52544 -0.4572,1.86293 l 0,3.96468 -1.00311,0 z"
         style="font-size:13.97535515px;fill:#333333;fill-opacity:1"
         id="path5155" />
    </g>
    <rect
       id="rect3719"
       width="5"
       height="5"
       x="110"
       y="0"
       style="fill:none"
       inkscape:export-filename="C:\Users\Stéphane\Desktop\Blogs\OpenFoodFacts\test-178.png"
       inkscape:export-xdpi="90"
       inkscape:export-ydpi="90" />
    <rect
       inkscape:export-ydpi="90"
       inkscape:export-xdpi="90"
       inkscape:export-filename="C:\Users\Stéphane\Desktop\Blogs\OpenFoodFacts\test-178.png"
       style="fill:none"
       y="0"
       x="110"
       height="5"
       width="5"
       id="rect3723" />
    <rect
       style="fill:none"
       id="rect3725"
       width="1"
       height="1"
       x="1"
       y="140"
       inkscape:export-filename="C:\Users\Stéphane\Desktop\Blogs\OpenFoodFacts\test-178.png"
       inkscape:export-xdpi="90"
       inkscape:export-ydpi="90" />
  </g>
</svg>
