<?xml version="1.0" encoding="UTF-8"?>
<svg width="179px" height="120px" viewBox="0 0 179 120" version="1.1" xmlns="http://www.w3.org/2000/svg" xmlns:xlink="http://www.w3.org/1999/xlink">
    <title>Group 2</title>
    <desc>OBF light</desc>
    <g id="Page-1" stroke="none" stroke-width="1" fill="none" fill-rule="evenodd">
        <g id="Group-2" transform="translate(-1.257800, -3.845870)">
            <g id="g6033">
                <path d="M176.2578,17.84587 L176.2578,19.09587 L176.2578,48.43962 L176.2578,95.84587 L177.2578,95.84587 L177.2578,17.84587 L176.2578,17.84587 Z M178.2578,17.84587 L178.2578,95.84587 L180.2578,95.84587 L180.2578,17.84587 L178.2578,17.84587 Z M175.2578,54.84587 C172.2578,64.84587 172.2578,62.90926 172.2578,77.84587 L172.2578,95.84587 L175.2578,95.84587 L175.2578,54.84587 Z" id="path12151" fill="#0066FF" fill-rule="nonzero"></path>
                <path d="M152.2578,31.84587 L156.2578,87.49804 L156.2578,95.84587 L159.2578,95.84587 L159.2578,31.84587 L156.2578,31.84587 L152.2578,31.84587 Z M160.2578,31.84587 L160.2578,95.84587 L164.2578,95.84587 L164.2578,31.84587 L160.2578,31.84587 Z M165.2578,31.84587 L165.2578,95.84587 L166.2578,95.84587 L166.2578,31.84587 L165.2578,31.84587 Z M167.2578,31.84587 L167.2578,95.84587 L169.2578,95.84587 L169.2578,87.49804 L173.2578,31.84587 L169.2578,31.84587 L167.2578,31.84587 Z" id="path12155" fill="#00CCFF"></path>
                <path d="M112.2578,38.84587 L112.2578,95.84587 L113.2578,95.84587 L113.2578,38.84587 L112.2578,38.84587 Z M114.2578,38.84587 L114.2578,95.84587 L115.2578,95.84587 L115.2578,38.84587 L114.2578,38.84587 Z M118.2578,38.84587 L118.2578,95.84587 L120.2578,95.84587 L120.2578,38.84587 L118.2578,38.84587 Z M123.2578,38.84587 L123.2578,95.84587 L124.2578,95.84587 L124.2578,38.84587 L123.2578,38.84587 Z M127.2578,38.84587 L127.2578,95.84587 L128.2578,95.84587 L128.2578,38.84587 L127.2578,38.84587 Z M131.2578,38.84587 L131.2578,95.84587 L133.2578,95.84587 L133.2578,38.84587 L131.2578,38.84587 Z M134.2578,38.84587 L134.2578,95.84587 L136.2578,95.84587 L136.2578,38.84587 L134.2578,38.84587 Z M137.2578,38.84587 L137.2578,95.84587 L140.2578,95.84587 L140.2578,39.40837 C139.92073,39.24252 139.57265,39.08949 139.22655,38.93962 C139.22855,38.90902 139.22455,38.87642 139.22655,38.84587 L137.2578,38.84587 L137.2578,38.84587 Z M111.2578,38.93957 C110.92056,39.08609 110.58646,39.24661 110.2578,39.40832 L110.2578,95.84582 L111.2578,95.84582 L111.2578,38.93957 Z M107.2578,41.18957 C106.56179,41.67335 105.89534,42.19719 105.2578,42.75207 L105.2578,95.84582 L107.2578,95.84582 L107.2578,41.18957 Z M143.2578,41.18957 L143.2578,95.84582 L144.2578,95.84582 L144.2578,41.90832 C143.93415,41.65706 143.59482,41.42382 143.2578,41.18957 Z M145.2578,42.75207 L145.2578,95.84582 L147.2578,95.84582 L147.2578,44.72082 C146.62881,44.02361 145.96632,43.36872 145.2578,42.75207 Z M102.2578,45.87707 C101.90498,46.3231 101.57773,46.7803 101.2578,47.25207 L101.2578,95.84582 L102.2578,95.84582 L102.2578,45.87707 Z M148.2578,45.87707 L148.2578,95.84582 L151.2578,95.84582 L151.2578,50.87707 C150.46049,49.07726 149.46283,47.40048 148.2578,45.87707 Z M152.2578,53.56457 L152.2578,95.84582 L153.2578,95.84582 L153.2578,60.34582 C153.2578,57.98724 152.90315,55.70648 152.2578,53.56457 Z M98.22655,53.62707 C97.63375,55.6158 97.29781,57.73113 97.2578,59.90832 C97.2548,60.05506 97.2578,60.1984 97.2578,60.34582 L97.289,95.84582 L98.25775,95.84582 L98.22655,53.62707 Z" id="path12157" fill="#00D400"></path>
                <g id="text12163" transform="translate(0.840890, 95.623033)" fill="#333333" font-family="ArialNarrow, Arial Narrow" font-size="20.7" font-weight="normal">
                    <text id="OPEN-BEAUTY-FACTS">
                        <tspan x="0.416909892" y="19.2228369">OPEN BEAUTY FACTS</tspan>
                    </text>
                </g>
                <path d="M14.68205,4.09587 C11.54893,4.04427 9.05056,7.23889 8.2578,16.84587 L8.2578,39.56462 L30.2578,39.56462 L30.2578,16.84587 C26.81531,13.29581 19.9039,4.18191 14.68205,4.09587 Z" id="path12167" fill="#FF0000"></path>
                <path d="M21.2578,34.02154 L21.2578,95.84587 L23.2578,95.84587 L23.2578,34.02154 L21.2578,34.02154 Z M17.2578,34.84587 L17.2578,95.84587 L20.2578,95.84587 L20.2578,34.84587 L17.2578,34.84587 Z M2.2578,38.96749 L2.2578,95.84587 L4.2578,95.84587 L4.2578,38.96749 L2.2578,38.96749 Z M5.2578,38.96749 L5.2578,95.84587 L6.2578,95.84587 L6.2578,38.96749 L5.2578,38.96749 Z M10.2578,38.96749 L10.2578,95.84587 L11.2578,95.84587 L11.2578,38.96749 L10.2578,38.96749 Z M13.2578,38.96749 L13.2578,95.84587 L14.2578,95.84587 L14.2578,38.96749 L13.2578,38.96749 Z M24.2578,38.96749 L24.2578,95.84587 L27.2578,95.84587 L27.2578,38.96749 L24.2578,38.96749 Z M28.2578,38.96749 L28.2578,95.84587 L31.2578,95.84587 L31.2578,38.96749 L28.2578,38.96749 Z M32.2578,38.96749 L32.2578,95.84587 L34.2578,95.84587 L34.2578,38.96749 L32.2578,38.96749 Z M35.2578,38.96749 L35.2578,95.84587 L36.2578,95.84587 L36.2578,38.96749 L35.2578,38.96749 Z" id="path12169" fill="#FF0000" fill-rule="nonzero"></path>
                <path d="M39.2578,51.84587 L39.2578,95.84587 L41.2578,95.84587 L41.2578,51.84587 L39.2578,51.84587 Z M42.2578,51.84587 L42.2578,95.84587 L43.2578,95.84587 L43.2578,51.84587 L42.2578,51.84587 Z M46.2578,51.84587 L46.2578,95.84587 L47.2578,95.84587 L47.2578,51.84587 L46.2578,51.84587 Z M48.2578,51.84587 L48.2578,95.84587 L51.2578,95.84587 L51.2578,51.84587 L48.2578,51.84587 Z M54.2578,51.84587 L54.2578,95.84587 L56.2578,95.84587 L56.2578,51.84587 L54.2578,51.84587 Z M57.2578,51.84587 L57.2578,95.84587 L58.2578,95.84587 L58.2578,51.84587 L57.2578,51.84587 Z M61.2578,51.84587 L61.289,95.84587 L63.2578,95.84587 L63.2266,51.84587 L61.2578,51.84587 Z M66.2578,51.84587 L66.2578,95.84587 L67.2578,95.84587 L67.2578,51.84587 L66.2578,51.84587 Z M68.2578,51.84587 L68.2578,95.84587 L69.2578,95.84587 L69.2578,51.84587 L68.2578,51.84587 Z M72.2578,51.84587 L72.2578,95.84587 L75.2578,95.84587 L75.2578,51.84587 L72.2578,51.84587 Z M76.2578,51.84587 L76.2578,95.84587 L78.2578,95.84587 L78.2578,51.84587 L76.2578,51.84587 Z M79.2578,51.84587 L79.2578,95.84587 L80.2578,95.84587 L80.2578,51.84587 L79.2578,51.84587 Z M83.2578,51.84587 L83.2578,95.84587 L86.2578,95.84587 L86.2578,51.84587 L83.2578,51.84587 Z M87.2578,51.84587 L87.2578,95.84587 L89.2578,95.84587 L89.2578,51.84587 L87.2578,51.84587 Z M90.2578,51.84587 L90.2578,95.84587 L91.2578,95.84587 L91.2578,51.84587 L90.2578,51.84587 Z M92.2578,51.84587 L92.2578,95.84587 L94.2578,95.84587 L94.2578,51.84587 L92.2578,51.84587 Z" id="path12171" fill="#FFCC00" fill-rule="nonzero"></path>
                <circle id="path12173" fill="#00CCFF" fill-rule="nonzero" cx="161.350121" cy="36.12223" r="1"></circle>
                <path d="M172.25784,118.84587 L172.25784,123.84587 C174.92353,123.84587 177.59208,123.84587 180.25776,123.84587 L180.25776,118.84587 C177.59208,118.84587 174.92353,118.84587 172.25793,118.84587 L172.25784,118.84587 Z" id="path12175" fill="#0066FF" fill-rule="nonzero"></path>
                <path d="M156.25781,118.84587 L156.25781,123.84587 C160.59188,123.84587 164.92371,123.84587 169.25778,123.84587 L169.25778,118.84587 C164.92371,118.84587 160.59188,118.84587 156.25781,118.84587 Z" id="path12177" fill="#00CCFF" fill-rule="nonzero"></path>
                <path d="M97.2578,118.84587 L97.2578,123.84587 C115.9174,123.84587 134.59821,123.84587 153.25784,123.84587 L153.25784,118.84587 C134.59821,118.84587 115.9174,118.84587 97.2578,118.84587 Z" id="path12179" fill="#00D400" fill-rule="nonzero"></path>
                <path d="M39.2578,118.84587 L39.2578,123.84587 C57.59118,123.84587 75.92442,123.84587 94.2578,123.84587 L94.2578,118.84587 C75.92442,118.84587 57.59118,118.84587 39.2578,118.84587 Z" id="path12181" fill="#FFCC00" fill-rule="nonzero"></path>
                <path d="M2.2578,118.84587 L2.2578,123.84587 C13.59151,123.84587 24.9241,123.84587 36.2578,123.84587 L36.2578,118.84587 C24.9241,118.84587 13.59151,118.84587 2.2578,118.84587 Z" id="path12183" fill="#FF0000" fill-rule="nonzero"></path>
                <rect id="rect12187" fill="#FF0000" x="5.25774" y="36.56462" width="1" height="3"></rect>
                <polygon id="path12191" fill="#FF0000" points="5.2578 34.84587 19.2578 34.84587 33.2578 34.84587 33.2578 39.84587 19.2578 39.84587 5.2578 39.84587"></polygon>
                <polygon id="path12195" fill="#FF0000" points="2.2578 38.84587 19.2578 38.84587 36.2578 38.84587 36.2578 39.84587 19.2578 39.84587 2.2578 39.84587"></polygon>
                <path d="M13.2578,4.34587 C12.54108,4.60659 11.86051,5.08134 11.2578,5.84587 L11.2578,34.84587 L13.2578,34.84587 L13.2578,4.34587 Z" id="rect12197" fill="#FFFFFF"></path>
                <path d="M47.5078,31.84587 C42.9373,31.84587 39.2578,35.52537 39.2578,40.09587 L39.2578,50.84587 L94.2578,50.84587 L94.2578,40.09587 C94.2578,35.52537 90.5783,31.84587 86.0078,31.84587 L47.5078,31.84587 Z" id="path12199" fill="#FFCC00"></path>
                <path d="M130.60155,3.90837 C128.81813,3.95547 126.8017,4.1558 125.2578,4.34587 C118.89213,5.12951 120.60155,4.33547 106.60155,9.00212 C105.12582,9.49403 105.21022,14.38529 106.60155,13.68962 C110.98506,11.49786 116.3909,11.37047 121.3828,11.84587 C120.8877,12.8591 120.60155,14.09324 120.60155,15.40837 L120.60155,19.06462 C118.6911,19.9332 117.15625,21.52506 116.41405,23.50212 C113.39431,24.63575 111.2578,27.54558 111.2578,30.97087 L111.2578,37.84587 L139.2578,37.84587 L139.2578,30.97087 C139.2578,27.54558 137.12129,24.63575 134.10155,23.50212 C133.35935,21.52506 131.8245,19.9332 129.91405,19.06462 L129.91405,15.40837 C129.91405,14.57619 129.78049,13.761 129.5703,13.03337 C131.68488,13.39795 133.43488,13.68962 134.60155,13.68962 C137.71265,13.68962 137.29585,5.90143 134.60155,4.34587 C133.94578,3.96726 132.38497,3.86123 130.60155,3.90837 Z" id="path12201" fill="#00D400"></path>
                <rect id="rect12203" x="112.25774" y="0.84587" width="5" height="5"></rect>
                <rect id="rect12205" x="112.25774" y="0.84587" width="5" height="5"></rect>
                <path d="M177.2578,3.84587 C176.7038,3.84587 176.2578,4.29187 176.2578,4.84587 L176.2578,7.84587 C176.2578,8.39987 176.7038,8.84587 177.2578,8.84587 L177.2578,4.84587 L178.2578,4.84587 L178.2578,8.84587 L179.2578,8.84587 C179.8118,8.84587 180.2578,8.39987 180.2578,7.84587 L180.2578,4.84587 C180.2578,4.29187 179.8118,3.84587 179.2578,3.84587 L177.2578,3.84587 Z" id="rect12207" fill="#0066FF"></path>
                <g id="g12209" transform="translate(168.257785, 4.845870)" fill="#0066FF">
                    <polygon id="path12211" points="0 0 7.0000002 0 7.0000002 1 0 1"></polygon>
                    <polygon id="path12213" points="0 2 7.0000002 2 7.0000002 3 0 3"></polygon>
                    <polygon id="path12215" points="0 4 7.0000002 4 7.0000002 5 0 5"></polygon>
                    <polygon id="path12217" points="0 6 7.0000002 6 7.0000002 7 0 7"></polygon>
                    <polygon id="path12219" points="0 8 7.0000002 8 7.0000002 9 0 9"></polygon>
                    <polygon id="path12221" points="0 10 7.0000002 10 7.0000002 11 0 11"></polygon>
                    <polygon id="path12223" points="0 12 7.0000002 12 7.0000002 13 0 13"></polygon>
                </g>
                <path d="M176.2578,6.84587 L176.2578,7.87712 L176.2578,14.12712 L176.2578,18.84587 L177.2578,18.84587 L177.2578,6.84587 L176.2578,6.84587 Z M178.2578,6.84587 L178.2578,18.84587 L180.2578,18.84587 L180.2578,6.84587 L178.2578,6.84587 Z" id="path12225" fill="#0066FF"></path>
                <rect id="rect12231" x="112.25774" y="0.84587" width="5" height="5"></rect>
                <rect id="rect12233" x="112.25774" y="0.84587" width="5" height="5"></rect>
            </g>
        </g>
    </g>
</svg>
