<svg xmlns="http://www.w3.org/2000/svg" width="178" height="150"><path d="M3.63 140.096l.17 1.649q-.517.165-.932.165-.652 0-1.05-.31-.397-.322-.55-.872-.144-.55-.144-2.188v-6.337H.21v-1.452h.914v-2.728l1.245-1.12v3.848h1.26v1.452H2.37v6.44q0 .892.11 1.152.16.373.6.373.212 0 .55-.073zm1.176 1.669v-15.204h1.245v5.455q.44-.757.99-1.13.559-.384 1.227-.384 1.177 0 1.854.923.686.913.686 3.36v6.98H9.563v-6.98q0-1.43-.414-2.053-.415-.622-1.143-.622-.813 0-1.388.798-.567.799-.567 2.832v6.025H4.806zm12.968-3.547l1.286.239q-.321 1.763-1.168 2.665-.838.892-2.082.892-1.566 0-2.54-1.452-.964-1.462-.964-4.21 0-2.853.973-4.346.982-1.504 2.48-1.504 1.43 0 2.387 1.473.957 1.473.957 4.262l-.009.498h-5.502q.077 1.857.703 2.8.626.944 1.523.944 1.406 0 1.956-2.26zm-4.105-3.018h4.113q-.084-1.431-.5-2.136-.6-1.027-1.531-1.027-.838 0-1.43.86-.593.851-.652 2.303zm11.299 6.565v-9.562H23.86v-1.452h1.108v-1.172q0-1.296.22-1.94.22-.653.67-.995.456-.342 1.142-.342.533 0 1.168.186l-.186 1.629q-.39-.104-.737-.104-.558 0-.804.363-.237.353-.237 1.359v1.016h1.44v1.452h-1.44v9.562h-1.236zm3.606 0v-11.014H29.7v1.67q.432-1.162.787-1.535.364-.384.813-.384.626 0 1.278.602l-.423 1.732q-.466-.405-.906-.405-.398 0-.728.342-.33.343-.466.955-.237 1.068-.237 2.27v5.767h-1.244zm9.785-3.547l1.287.239q-.322 1.763-1.169 2.665-.837.892-2.082.892-1.566 0-2.539-1.452-.965-1.462-.965-4.21 0-2.853.973-4.346.982-1.504 2.48-1.504 1.43 0 2.387 1.473.957 1.473.957 4.262l-.009.498h-5.501q.076 1.857.702 2.8.626.944 1.524.944 1.405 0 1.955-2.26zm-4.105-3.018h4.113q-.084-1.431-.499-2.136-.6-1.027-1.532-1.027-.838 0-1.43.86-.593.851-.652 2.303zm12.028 3.018l1.286.239q-.321 1.763-1.168 2.665-.838.892-2.082.892-1.566 0-2.54-1.452-.964-1.462-.964-4.21 0-2.853.973-4.346.982-1.504 2.48-1.504 1.43 0 2.387 1.473.956 1.473.956 4.262l-.008.498H42.1q.076 1.857.703 2.8.626.944 1.523.944 1.405 0 1.956-2.26zm-4.106-3.018h4.114q-.085-1.431-.5-2.136-.6-1.027-1.531-1.027-.838 0-1.43.86-.593.851-.653 2.303zm15.778 2.53l1.227.24q-.211 1.97-1.066 3.007-.847 1.037-2.04 1.037-1.448 0-2.387-1.452-.931-1.462-.931-4.314 0-2.873.94-4.304.947-1.442 2.429-1.442 1.142 0 1.921.871.787.871 1.007 2.614l-1.21.28q-.178-1.12-.618-1.67-.44-.56-1.058-.56-.923 0-1.532 1.006-.601.996-.601 3.174 0 2.25.575 3.256.585 1.006 1.49 1.006.711 0 1.21-.664.508-.674.644-2.084zm1.811-1.472q0-2.852.974-4.304.982-1.452 2.48-1.452 1.473 0 2.463 1.452t.99 4.19q0 2.966-.973 4.418-.974 1.452-2.48 1.452-1.482 0-2.472-1.452-.982-1.462-.982-4.304zm1.278 0q0 2.137.635 3.184.635 1.037 1.575 1.037.88 0 1.506-1.047.635-1.058.635-3.174 0-2.126-.635-3.163-.635-1.048-1.574-1.048-.889 0-1.515 1.048-.627 1.047-.627 3.163zm6.637 2.22l1.235-.29q.11 1.16.601 1.731.491.56 1.304.56.812 0 1.252-.487.449-.498.449-1.255 0-.654-.38-1.017-.263-.248-1.27-.622-1.456-.55-1.947-.933-.491-.384-.762-1.027-.271-.643-.271-1.462 0-1.41.736-2.292.737-.882 2.04-.882.821 0 1.44.363.626.363.956.975.33.612.457 1.753l-1.22.249q-.168-1.805-1.599-1.805-.812 0-1.21.404-.398.395-.398 1.017 0 .612.38.964.23.208 1.355.664 1.55.612 2.006.975.457.353.711.975.254.612.254 1.462 0 1.577-.82 2.552-.813.975-2.227.975-2.65 0-3.073-3.547zm7.6 3.287v-11.014h1.118v1.545q.372-.86.956-1.327.584-.467 1.278-.467.779 0 1.312.498.542.487.77 1.431.44-.964 1.008-1.442.575-.487 1.27-.487 1.057 0 1.667.882.61.881.61 2.82v7.561h-1.245v-6.938q0-1.182-.144-1.67-.135-.498-.448-.767-.314-.27-.703-.27-.804 0-1.312.788-.508.778-.508 2.458v6.4h-1.253v-7.157q0-1.369-.347-1.929-.338-.56-.94-.56-.854 0-1.353.85-.491.84-.491 3.08v5.715H75.28zm16.878-3.547l1.287.239q-.322 1.763-1.168 2.665-.838.892-2.082.892-1.566 0-2.54-1.452-.965-1.462-.965-4.21 0-2.853.974-4.346.982-1.504 2.48-1.504 1.43 0 2.387 1.473.956 1.473.956 4.262l-.008.498h-5.502q.076 1.857.703 2.8.626.944 1.523.944 1.405 0 1.956-2.26zm-4.105-3.018h4.114q-.085-1.431-.5-2.136-.6-1.027-1.532-1.027-.838 0-1.43.86-.593.851-.652 2.303zm9.767 4.896l.17 1.649q-.516.165-.93.165-.653 0-1.05-.31-.398-.322-.55-.872-.145-.55-.145-2.188v-6.337h-.914v-1.452h.914v-2.728l1.245-1.12v3.848h1.26v1.452h-1.26v6.44q0 .892.11 1.152.16.373.6.373.212 0 .55-.073zm1.177-11.388v-2.147h1.245v2.147h-1.245zm0 13.057v-11.014h1.245v11.014h-1.245zm7.983-4.035l1.227.24q-.212 1.97-1.067 3.007-.846 1.037-2.04 1.037-1.447 0-2.387-1.452-.93-1.462-.93-4.314 0-2.873.939-4.304.948-1.442 2.429-1.442 1.143 0 1.921.871.788.871 1.008 2.614l-1.21.28q-.178-1.12-.619-1.67-.44-.56-1.058-.56-.922 0-1.532 1.006-.6.996-.6 3.174 0 2.25.575 3.256.584 1.006 1.49 1.006.71 0 1.21-.664.508-.674.643-2.084zm1.802.748l1.236-.29q.11 1.16.601 1.731.49.56 1.303.56t1.253-.487q.449-.498.449-1.255 0-.654-.381-1.017-.262-.248-1.27-.622-1.456-.55-1.947-.933-.49-.384-.761-1.027-.271-.643-.271-1.462 0-1.41.736-2.292.737-.882 2.04-.882.821 0 1.439.363.626.363.957.975.33.612.457 1.753l-1.22.249q-.169-1.805-1.599-1.805-.813 0-1.21.404-.398.395-.398 1.017 0 .612.38.964.23.208 1.355.664 1.549.612 2.006.975.457.353.711.975.254.612.254 1.462 0 1.577-.821 2.552-.813.975-2.226.975-2.65 0-3.073-3.547zm16.328 3.287v-1.39q-.339.8-.872 1.224-.533.415-1.151.415-1.304 0-2.26-1.504-.948-1.514-.948-4.252 0-1.877.423-3.184.423-1.307 1.126-1.94.71-.632 1.574-.632.618 0 1.143.405.533.394.88 1.11v-5.456h1.253v15.204h-1.168zm-3.953-5.497q0 2.137.601 3.174.61 1.037 1.414 1.037.795 0 1.38-.995.583-.996.583-3.008 0-2.313-.584-3.37-.584-1.069-1.473-1.069-.787 0-1.354 1.027-.567 1.016-.567 3.204zm11.901 4.139q-.626.798-1.304 1.203-.677.404-1.405.404-1.15 0-1.836-.85-.686-.85-.686-2.292 0-.954.322-1.69.321-.737.88-1.152.559-.415 1.693-.612 1.523-.27 2.234-.643l.008-.477q0-1.13-.33-1.587-.465-.664-1.43-.664-.872 0-1.304.446-.431.436-.634 1.65l-1.228-.25q.263-1.773 1.058-2.582.804-.809 2.294-.809 1.16 0 1.82.54.66.528.83 1.317.177.788.177 2.302v2.49q0 2.613.076 3.297.085.674.322 1.317h-1.304q-.194-.57-.253-1.358zm-.102-4.17q-.685.415-2.04.706-.787.166-1.1.383-.313.208-.49.602-.17.384-.17.892 0 .788.398 1.265.397.467 1.1.467.669 0 1.21-.425.55-.426.821-1.13.271-.716.271-2.075v-.685zm6.002 3.859l.169 1.649q-.517.165-.931.165-.652 0-1.05-.31-.398-.322-.55-.872-.144-.55-.144-2.188v-6.337h-.914v-1.452h.914v-2.728l1.244-1.12v3.848h1.262v1.452h-1.262v6.44q0 .892.11 1.152.161.373.601.373.212 0 .55-.073zm5.984.311q-.627.798-1.304 1.203-.677.404-1.405.404-1.15 0-1.837-.85-.685-.85-.685-2.292 0-.954.321-1.69.322-.737.88-1.152.56-.415 1.694-.612 1.523-.27 2.234-.643l.008-.477q0-1.13-.33-1.587-.465-.664-1.43-.664-.872 0-1.304.446-.431.436-.635 1.65l-1.227-.25q.263-1.773 1.058-2.582.804-.809 2.294-.809 1.16 0 1.82.54.66.528.83 1.317.177.788.177 2.302v2.49q0 2.613.076 3.297.085.674.322 1.317h-1.304q-.194-.57-.254-1.358zm-.102-4.17q-.685.415-2.04.706-.787.166-1.1.383-.313.208-.491.602-.17.384-.17.892 0 .788.399 1.265.397.467 1.1.467.669 0 1.21-.425.55-.426.821-1.13.271-.716.271-2.075v-.685zm4.368 5.528h-1.16v-15.204h1.244v5.424q.398-.747.898-1.11.508-.373 1.125-.373.864 0 1.566.633.711.632 1.135 1.918.423 1.286.423 3.122 0 2.8-.957 4.325-.956 1.514-2.234 1.514-.644 0-1.16-.404-.508-.415-.88-1.224v1.38zm-.017-5.59q0 1.711.254 2.562.254.85.72 1.296.465.446 1.032.446.77 0 1.363-1.058.6-1.068.6-3.184 0-2.167-.575-3.184-.575-1.016-1.413-1.016-.77 0-1.38 1.068-.601 1.058-.601 3.07zm11.596 4.232q-.626.798-1.303 1.203-.678.404-1.406.404-1.15 0-1.836-.85-.686-.85-.686-2.292 0-.954.322-1.69.321-.737.88-1.152.559-.415 1.693-.612 1.523-.27 2.234-.643l.009-.477q0-1.13-.33-1.587-.466-.664-1.431-.664-.872 0-1.303.446-.432.436-.635 1.65l-1.228-.25q.263-1.773 1.058-2.582.805-.809 2.294-.809 1.16 0 1.82.54.66.528.83 1.317.177.788.177 2.302v2.49q0 2.613.076 3.297.085.674.322 1.317h-1.303q-.195-.57-.254-1.358zm-.102-4.17q-.685.415-2.04.706-.787.166-1.1.383-.313.208-.49.602-.17.384-.17.892 0 .788.398 1.265.398.467 1.1.467.669 0 1.21-.425.55-.426.822-1.13.27-.716.27-2.075v-.685zm2.743 2.241l1.236-.29q.11 1.16.6 1.731.492.56 1.304.56.813 0 1.253-.487.449-.498.449-1.255 0-.654-.381-1.017-.263-.248-1.27-.622-1.456-.55-1.947-.933-.49-.384-.762-1.027-.27-.643-.27-1.462 0-1.41.736-2.292.736-.882 2.04-.882.82 0 1.439.363.626.363.956.975.33.612.457 1.753l-1.219.249q-.169-1.805-1.6-1.805-.812 0-1.21.404-.398.395-.398 1.017 0 .612.381.964.229.208 1.355.664 1.549.612 2.006.975.457.353.71.975.255.612.255 1.462 0 1.577-.821 2.552-.813.975-2.227.975-2.649 0-3.072-3.547zm12.629-.26l1.286.239q-.321 1.763-1.168 2.665-.838.892-2.082.892-1.566 0-2.54-1.452-.964-1.462-.964-4.21 0-2.853.973-4.346.982-1.504 2.48-1.504 1.43 0 2.387 1.473.957 1.473.957 4.262l-.009.498h-5.501q.076 1.857.702 2.8.627.944 1.524.944 1.405 0 1.955-2.26zm-4.106-3.018h4.114q-.084-1.431-.5-2.136-.6-1.027-1.531-1.027-.838 0-1.43.86-.593.851-.653 2.303z" style="line-height:125%;-inkscape-font-specification:'Arial Narrow'" font-weight="400" font-size="19.189" font-family="Arial Narrow" letter-spacing="0" word-spacing="0" fill="#333"/><path fill="none" d="M1 140h1v1H1z"/><g transform="translate(65.742 151.154)"><path d="M108.258-134.154v78h1v-78zm2 0v78h2v-78zm-3 37c-3 10-3 8.063-3 23v18h3z" fill="#06f"/><path d="M84.258-120.154l4 55.652v8.348h3v-64h-3zm8 0v64h4v-64zm5 0v64h1v-64zm2 0v64h2v-8.348l4-55.652h-4z" fill="#0cf" fill-rule="evenodd"/><path d="M44.258-113.154v57h1v-57h-1zm2 0v57h1v-57h-1zm4 0v57h2v-57h-2zm5 0v57h1v-57h-1zm4 0v57h1v-57h-1zm4 0v57h2v-57h-2zm3 0v57h2v-57h-2zm3 0v57h3v-56.438a23.397 23.397 0 0 0-1.031-.468c.002-.031-.002-.064 0-.094h-1.97zm-26 .094c-.337.146-.672.307-1 .468v56.438h1v-56.906zm-4 2.25a23.35 23.35 0 0 0-2 1.562v53.094h2v-54.656zm36 0v54.656h1v-53.938c-.324-.25-.663-.484-1-.718zm2 1.562v53.094h2v-51.125a23.213 23.213 0 0 0-2-1.969zm-43 3.125c-.353.446-.68.903-1 1.375v48.594h1v-49.969zm46 0v49.969h3v-44.969a23.135 23.135 0 0 0-3-5zm4 7.688v42.28h1v-35.5c0-2.358-.355-4.639-1-6.78zm-54.031.062a23.518 23.518 0 0 0-.97 6.281c-.002.147 0 .29 0 .438l.032 35.5h.969l-.031-42.219z" fill="#00d400" fill-rule="evenodd"/><text style="line-height:125%;-inkscape-font-specification:'Arial Narrow'" x="-71.391" y="-33.571" transform="scale(.92864 1.07684)" font-weight="400" font-size="31.596" font-family="Arial Narrow" letter-spacing="0" word-spacing="0" fill="#333"><tspan x="-71.391" y="-33.571" font-size="22.051">OPEN BEAUTY FACTS</tspan></text><path d="M-53.318-147.904c-3.133-.052-5.631 3.143-6.424 12.75v22.719h22v-22.72c-3.443-3.55-10.354-12.663-15.576-12.75z" fill="red" fill-rule="evenodd"/><path d="M-46.742-117.978v61.824h2v-61.824h-2zm-4 .824v61h3v-61h-3zm-15 4.121v56.879h2v-56.879h-2zm3 0v56.879h1v-56.879h-1zm5 0v56.879h1v-56.879h-1zm3 0v56.879h1v-56.879h-1zm11 0v56.879h3v-56.879h-3zm4 0v56.879h3v-56.879h-3zm4 0v56.879h2v-56.879h-2zm3 0v56.879h1v-56.879h-1z" fill="red"/><path d="M-28.742-100.154v44h2v-44h-2zm3 0v44h1v-44h-1zm4 0v44h1v-44h-1zm2 0v44h3v-44h-3zm6 0v44h2v-44h-2zm3 0v44h1v-44h-1zm4 0l.031 44h1.969l-.031-44h-1.97zm5 0v44h1v-44h-1zm2 0v44h1v-44h-1zm4 0v44h3v-44h-3zm4 0v44h2v-44h-2zm3 0v44h1v-44h-1zm4 0v44h3v-44h-3zm4 0v44h2v-44h-2zm3 0v44h1v-44h-1zm2 0v44h2v-44h-2z" fill="#fc0"/><circle r=".949" cy="-115.878" cx="93.35" fill="#0cf"/><path d="M104.258-33.154v5h8v-5h-8z" fill="#06f"/><path d="M88.258-33.154v5h13v-5h-13z" fill="#0cf"/><path d="M29.258-33.154v5h56v-5h-56z" fill="#00d400"/><path d="M-28.742-33.154v5h55v-5h-55z" fill="#fc0"/><path d="M-65.742-33.154v5h34v-5h-34z" fill="red"/><path fill="red" fill-rule="evenodd" d="M-62.742-115.435h1v3h-1z"/><path d="M-62.742-117.154h28v5h-28z" fill="red" fill-rule="evenodd"/><path d="M-65.742-113.154h34v1h-34z" fill="red" fill-rule="evenodd"/><path d="M-54.742-147.654c-.717.26-1.397.735-2 1.5v29h2v-30.5z" fill="#fff" fill-rule="evenodd"/><path d="M-20.492-120.154c-4.57 0-8.25 3.68-8.25 8.25v10.75h55v-10.75c0-4.57-3.68-8.25-8.25-8.25z" fill="#fc0" fill-rule="evenodd"/><path d="M62.602-148.092c-1.784.047-3.8.248-5.344.438-6.366.784-4.656-.01-18.656 4.656-1.476.492-1.392 5.383 0 4.688 4.383-2.192 9.789-2.32 14.78-1.844-.494 1.013-.78 2.247-.78 3.562v3.657c-1.91.868-3.446 2.46-4.188 4.437a7.959 7.959 0 0 0-5.156 7.469v6.875h28v-6.875a7.959 7.959 0 0 0-5.156-7.469c-.743-1.977-2.278-3.569-4.188-4.437v-3.657c0-.832-.134-1.647-.344-2.375 2.115.365 3.865.657 5.032.657 3.11 0 2.694-7.789 0-9.344-.656-.379-2.217-.485-4-.438z" fill="#00d400" fill-rule="evenodd"/><path fill="none" d="M44.258-151.154h5v5h-5z"/><path fill="none" d="M44.258-151.154h5v5h-5z"/><path d="M109.258-148.154c-.554 0-1 .446-1 1v3c0 .554.446 1 1 1v-4h1v4h1c.554 0 1-.446 1-1v-3c0-.554-.446-1-1-1h-2zm-9 1h7v1h-7zm0 2h7v1h-7zm0 2h7v1h-7zm0 2h7v1h-7zm0 2h7v1h-7zm0 2h7v1h-7zm0 2h7v1h-7z" fill="#06f" fill-rule="evenodd"/><path d="M108.258-145.154v12h1v-12h-1zm2 0v12h2v-12h-2z" fill="#06f" fill-rule="evenodd"/><path fill="none" d="M44.258-151.154h5v5h-5z"/><path fill="none" d="M44.258-151.154h5v5h-5z"/></g></svg>