<?xml version="1.0" encoding="UTF-8" standalone="no"?>
<!-- Created with Inkscape (http://www.inkscape.org/) -->

<svg
   xmlns:dc="http://purl.org/dc/elements/1.1/"
   xmlns:cc="http://creativecommons.org/ns#"
   xmlns:rdf="http://www.w3.org/1999/02/22-rdf-syntax-ns#"
   xmlns:svg="http://www.w3.org/2000/svg"
   xmlns="http://www.w3.org/2000/svg"
   xmlns:sodipodi="http://sodipodi.sourceforge.net/DTD/sodipodi-0.dtd"
   xmlns:inkscape="http://www.inkscape.org/namespaces/inkscape"
   width="178"
   height="150"
   id="svg8313"
   version="1.1"
   inkscape:version="0.91 r13725"
   sodipodi:docname="openfoodfacts-logo-nl.svg"
   inkscape:export-filename="C:\Users\Stéphane\Desktop\Blogs\OpenFoodFacts\openfoodfacts-logo-nl-178x150.png"
   inkscape:export-xdpi="90"
   inkscape:export-ydpi="90">
  <defs
     id="defs8315" />
  <sodipodi:namedview
     id="base"
     pagecolor="#ffffff"
     bordercolor="#666666"
     borderopacity="1.0"
     inkscape:pageopacity="0.0"
     inkscape:pageshadow="2"
     inkscape:zoom="2.2568164"
     inkscape:cx="0.78017217"
     inkscape:cy="88.739106"
     inkscape:document-units="px"
     inkscape:current-layer="layer1"
     showgrid="true"
     inkscape:window-width="1920"
     inkscape:window-height="1018"
     inkscape:window-x="-8"
     inkscape:window-y="-8"
     inkscape:window-maximized="1"
     inkscape:snap-global="true">
    <inkscape:grid
       type="xygrid"
       id="grid8566" />
  </sodipodi:namedview>
  <metadata
     id="metadata8318">
    <rdf:RDF>
      <cc:Work
         rdf:about="">
        <dc:format>image/svg+xml</dc:format>
        <dc:type
           rdf:resource="http://purl.org/dc/dcmitype/StillImage" />
        <dc:title />
      </cc:Work>
    </rdf:RDF>
  </metadata>
  <g
     inkscape:label="Calque 1"
     inkscape:groupmode="layer"
     id="layer1">
    <path
       inkscape:export-ydpi="90"
       inkscape:export-xdpi="90"
       inkscape:export-filename="C:\Users\Stéphane\Desktop\Blogs\OpenFoodFacts\test-178.png"
       inkscape:connector-curvature="0"
       style="fill:#0066ff;fill-opacity:1;fill-rule:nonzero;stroke:none"
       d="m 170,26 0,6.41101 c 1.19571,0.444338 2.21393,1.060483 3,1.761208 L 173,26 Z m 4,0 0,8.312003 1,-0.838676 L 175,26 Z m 2,0 0,6.606702 1,-0.978462 0,11.7694 -1,-1.00641 0,52.60877 2,0 0,-69 z M 174,40.685929 174,95 l 1,0 0,-53.475406 z m -1,0.139774 c -0.78598,0.701951 -1.79569,1.313237 -3,1.76122 L 170,95 l 3,0 z"
       id="path7944"
       sodipodi:nodetypes="ccccccccccccccccccccccccccccc" />
    <path
       inkscape:export-ydpi="90"
       inkscape:export-xdpi="90"
       inkscape:export-filename="C:\Users\Stéphane\Desktop\Blogs\OpenFoodFacts\test-178.png"
       inkscape:connector-curvature="0"
       style="fill:#00ccff;fill-opacity:1;fill-rule:nonzero;stroke:none"
       d="m 154,26 0,69 3,0 0,-53.810872 c -1.32362,-1.014805 -2.12462,-2.271422 -2.12462,-3.662215 0,-1.390781 0.801,-2.675356 2.12462,-3.690161 L 157,26 Z m 4,0 0,7.193768 c 1.12603,-0.642997 2.47034,-1.128715 4,-1.397795 L 162,26 Z m 5,0 0,5.62824 c 0.32965,-0.03644 0.65978,-0.03965 1,-0.05585 l 0,-5.572333 c -0.35153,4.6e-5 -0.64847,-3.3e-5 -1,-5.7e-5 z m 2,0 0,5.544374 c 0.68266,0.0083 1.35814,0.08097 2,0.167733 L 167,26 Z M 158,41.860072 158,95 l 4,0 0,-51.770093 c -1.58676,-0.26883 -2.87451,-0.727732 -4,-1.369835 z m 9,1.481649 c -0.64077,0.08753 -1.31859,0.131652 -2,0.139785 L 165,95 l 2,0 z m -4,0.05597 L 163,95 l 1,0 0,-51.546402 c -0.34022,-0.01632 -0.67076,-0.01941 -1.00041,-0.05585 z"
       id="path7946"
       sodipodi:nodetypes="ccccscccccccccccccccccccccccccccccccccc" />
    <path
       inkscape:export-ydpi="90"
       inkscape:export-xdpi="90"
       inkscape:export-filename="C:\Users\Stéphane\Desktop\Blogs\OpenFoodFacts\test-178.png"
       inkscape:connector-curvature="0"
       id="path7948"
       d="m 150,26 0,69 1,0 0,-69 z"
       style="fill:#00d400;fill-opacity:1;fill-rule:nonzero;stroke:none"
       sodipodi:nodetypes="ccccc" />
    <path
       inkscape:export-ydpi="90"
       inkscape:export-xdpi="90"
       inkscape:export-filename="C:\Users\Stéphane\Desktop\Blogs\OpenFoodFacts\test-178.png"
       inkscape:connector-curvature="0"
       id="path7950"
       d="m 146,26 0,69 3,0 0,-69 z"
       style="fill:#00d400;fill-opacity:1;fill-rule:nonzero;stroke:none"
       sodipodi:nodetypes="ccccc" />
    <path
       inkscape:export-ydpi="90"
       inkscape:export-xdpi="90"
       inkscape:export-filename="C:\Users\Stéphane\Desktop\Blogs\OpenFoodFacts\test-178.png"
       inkscape:connector-curvature="0"
       id="path7952"
       d="m 143,26 0,69 2,0 0,-69 z"
       style="fill:#00d400;fill-opacity:1;fill-rule:nonzero;stroke:none"
       sodipodi:nodetypes="ccccc" />
    <path
       inkscape:export-ydpi="90"
       inkscape:export-xdpi="90"
       inkscape:export-filename="C:\Users\Stéphane\Desktop\Blogs\OpenFoodFacts\test-178.png"
       inkscape:connector-curvature="0"
       id="path7954"
       d="m 141,26 0,69 1,0 0,-69 z"
       style="fill:#00d400;fill-opacity:1;fill-rule:nonzero;stroke:none"
       sodipodi:nodetypes="ccccc" />
    <path
       inkscape:export-ydpi="90"
       inkscape:export-xdpi="90"
       inkscape:export-filename="C:\Users\Stéphane\Desktop\Blogs\OpenFoodFacts\test-178.png"
       inkscape:connector-curvature="0"
       id="path7956"
       d="m 135,24 0,71 3,0 -5e-5,-69 z"
       style="fill:#00d400;fill-opacity:1;fill-rule:nonzero;stroke:none"
       sodipodi:nodetypes="ccccc" />
    <path
       inkscape:export-ydpi="90"
       inkscape:export-xdpi="90"
       inkscape:export-filename="C:\Users\Stéphane\Desktop\Blogs\OpenFoodFacts\test-178.png"
       inkscape:connector-curvature="0"
       id="path7958"
       d="m 132,26 0,69 2,0 -4e-5,-69 z"
       style="fill:#00d400;fill-opacity:1;fill-rule:nonzero;stroke:none"
       sodipodi:nodetypes="ccccc" />
    <path
       inkscape:export-ydpi="90"
       inkscape:export-xdpi="90"
       inkscape:export-filename="C:\Users\Stéphane\Desktop\Blogs\OpenFoodFacts\test-178.png"
       inkscape:connector-curvature="0"
       id="path7960"
       d="m 129,26 0,69 2,0 1e-5,-69 z"
       style="fill:#00d400;fill-opacity:1;fill-rule:nonzero;stroke:none"
       sodipodi:nodetypes="ccccc" />
    <path
       inkscape:export-ydpi="90"
       inkscape:export-xdpi="90"
       inkscape:export-filename="C:\Users\Stéphane\Desktop\Blogs\OpenFoodFacts\test-178.png"
       inkscape:connector-curvature="0"
       id="path7962"
       d="m 125,26 0,69 1,0 5e-5,-69 z"
       style="fill:#00d400;fill-opacity:1;fill-rule:nonzero;stroke:none"
       sodipodi:nodetypes="ccccc" />
    <path
       inkscape:export-ydpi="90"
       inkscape:export-xdpi="90"
       inkscape:export-filename="C:\Users\Stéphane\Desktop\Blogs\OpenFoodFacts\test-178.png"
       inkscape:connector-curvature="0"
       id="path7964"
       d="m 121,26 0,69 1,0 6e-5,-69 z"
       style="fill:#00d400;fill-opacity:1;fill-rule:nonzero;stroke:none"
       sodipodi:nodetypes="ccccc" />
    <path
       inkscape:export-ydpi="90"
       inkscape:export-xdpi="90"
       inkscape:export-filename="C:\Users\Stéphane\Desktop\Blogs\OpenFoodFacts\test-178.png"
       inkscape:connector-curvature="0"
       id="path7966"
       d="m 116,26 0,69 2,0 1e-5,-69 z"
       style="fill:#00d400;fill-opacity:1;fill-rule:nonzero;stroke:none"
       sodipodi:nodetypes="ccccc" />
    <path
       inkscape:export-ydpi="90"
       inkscape:export-xdpi="90"
       inkscape:export-filename="C:\Users\Stéphane\Desktop\Blogs\OpenFoodFacts\test-178.png"
       inkscape:connector-curvature="0"
       id="path7968"
       d="m 112,26 0,69 1,0 -5e-5,-69 z"
       style="fill:#00d400;fill-opacity:1;fill-rule:nonzero;stroke:none"
       sodipodi:nodetypes="ccccc" />
    <path
       inkscape:export-ydpi="90"
       inkscape:export-xdpi="90"
       inkscape:export-filename="C:\Users\Stéphane\Desktop\Blogs\OpenFoodFacts\test-178.png"
       inkscape:connector-curvature="0"
       id="path7970"
       d="m 110,26 0,69 1,0 -5e-5,-69 z"
       style="fill:#00d400;fill-opacity:1;fill-rule:nonzero;stroke:none"
       sodipodi:nodetypes="ccccc" />
    <path
       inkscape:export-ydpi="90"
       inkscape:export-xdpi="90"
       inkscape:export-filename="C:\Users\Stéphane\Desktop\Blogs\OpenFoodFacts\test-178.png"
       inkscape:connector-curvature="0"
       id="path7972"
       d="m 108,26 0,69 1,0 4e-5,-69 z"
       style="fill:#00d400;fill-opacity:1;fill-rule:nonzero;stroke:none"
       sodipodi:nodetypes="ccccc" />
    <path
       inkscape:export-ydpi="90"
       inkscape:export-xdpi="90"
       inkscape:export-filename="C:\Users\Stéphane\Desktop\Blogs\OpenFoodFacts\test-178.png"
       inkscape:connector-curvature="0"
       id="path7974"
       d="m 103,26 0,69 2,0 1e-5,-69 z"
       style="fill:#00d400;fill-opacity:1;fill-rule:nonzero;stroke:none"
       sodipodi:nodetypes="ccccc" />
    <path
       inkscape:export-ydpi="90"
       inkscape:export-xdpi="90"
       inkscape:export-filename="C:\Users\Stéphane\Desktop\Blogs\OpenFoodFacts\test-178.png"
       inkscape:connector-curvature="0"
       id="path7976"
       d="m 99,26 0,69 1,0 0,-69 z"
       style="fill:#00d400;fill-opacity:1;fill-rule:nonzero;stroke:none"
       sodipodi:nodetypes="ccccc" />
    <path
       inkscape:export-ydpi="90"
       inkscape:export-xdpi="90"
       inkscape:export-filename="C:\Users\Stéphane\Desktop\Blogs\OpenFoodFacts\test-178.png"
       inkscape:connector-curvature="0"
       id="path7978"
       d="m 95,26 0.0166,69 0.98337,0 -0.0171,-69 z"
       style="fill:#00d400;fill-opacity:1;fill-rule:nonzero;stroke:none"
       sodipodi:nodetypes="ccccc" />
    <path
       inkscape:export-ydpi="90"
       inkscape:export-xdpi="90"
       inkscape:export-filename="C:\Users\Stéphane\Desktop\Blogs\OpenFoodFacts\test-178.png"
       inkscape:connector-curvature="0"
       id="path7980"
       d="m 90,21 0,74 2,0 0,-74 z"
       style="fill:#ffcc00;fill-opacity:1;fill-rule:nonzero;stroke:none"
       sodipodi:nodetypes="ccccc" />
    <path
       inkscape:export-ydpi="90"
       inkscape:export-xdpi="90"
       inkscape:export-filename="C:\Users\Stéphane\Desktop\Blogs\OpenFoodFacts\test-178.png"
       inkscape:connector-curvature="0"
       id="path7983"
       d="m 88,26 0,69 1,0 0,-69 z"
       style="fill:#ffcc00;fill-opacity:1;fill-rule:nonzero;stroke:none"
       sodipodi:nodetypes="ccccc" />
    <path
       inkscape:export-ydpi="90"
       inkscape:export-xdpi="90"
       inkscape:export-filename="C:\Users\Stéphane\Desktop\Blogs\OpenFoodFacts\test-178.png"
       inkscape:connector-curvature="0"
       id="path7985"
       d="m 85,10 0,85 2,0 0,-85 z"
       style="fill:#ffcc00;fill-opacity:1;fill-rule:nonzero;stroke:none"
       sodipodi:nodetypes="ccccc" />
    <path
       inkscape:export-ydpi="90"
       inkscape:export-xdpi="90"
       inkscape:export-filename="C:\Users\Stéphane\Desktop\Blogs\OpenFoodFacts\test-178.png"
       inkscape:connector-curvature="0"
       id="path7987"
       d="m 81,26 0,69 3,0 4e-6,-69 z"
       style="fill:#ffcc00;fill-opacity:1;fill-rule:nonzero;stroke:none"
       sodipodi:nodetypes="ccccc" />
    <path
       inkscape:export-ydpi="90"
       inkscape:export-xdpi="90"
       inkscape:export-filename="C:\Users\Stéphane\Desktop\Blogs\OpenFoodFacts\test-178.png"
       inkscape:connector-curvature="0"
       id="path7989"
       d="m 77,26 0,69 1,0 3e-6,-69 z"
       style="fill:#ffcc00;fill-opacity:1;fill-rule:nonzero;stroke:none"
       sodipodi:nodetypes="ccccc" />
    <path
       inkscape:export-ydpi="90"
       inkscape:export-xdpi="90"
       inkscape:export-filename="C:\Users\Stéphane\Desktop\Blogs\OpenFoodFacts\test-178.png"
       inkscape:connector-curvature="0"
       id="path7991"
       d="m 74,20 0,75 2,0 -7e-6,-75 z"
       style="fill:#ffcc00;fill-opacity:1;fill-rule:nonzero;stroke:none"
       sodipodi:nodetypes="ccccc" />
    <path
       inkscape:export-ydpi="90"
       inkscape:export-xdpi="90"
       inkscape:export-filename="C:\Users\Stéphane\Desktop\Blogs\OpenFoodFacts\test-178.png"
       inkscape:connector-curvature="0"
       id="path7993"
       d="m 70,26 0,69 3,0 4e-6,-69 z"
       style="fill:#ffcc00;fill-opacity:1;fill-rule:nonzero;stroke:none"
       sodipodi:nodetypes="ccccc" />
    <path
       inkscape:export-ydpi="90"
       inkscape:export-xdpi="90"
       inkscape:export-filename="C:\Users\Stéphane\Desktop\Blogs\OpenFoodFacts\test-178.png"
       inkscape:connector-curvature="0"
       id="path7995"
       d="m 66,26 0,69 1,0 3e-6,-69 z"
       style="fill:#ffcc00;fill-opacity:1;fill-rule:nonzero;stroke:none"
       sodipodi:nodetypes="ccccc" />
    <path
       inkscape:export-ydpi="90"
       inkscape:export-xdpi="90"
       inkscape:export-filename="C:\Users\Stéphane\Desktop\Blogs\OpenFoodFacts\test-178.png"
       inkscape:connector-curvature="0"
       id="path7997"
       d="m 64,26 0,69 1,0 10e-7,-69 z"
       style="fill:#ffcc00;fill-opacity:1;fill-rule:nonzero;stroke:none"
       sodipodi:nodetypes="ccccc" />
    <path
       inkscape:export-ydpi="90"
       inkscape:export-xdpi="90"
       inkscape:export-filename="C:\Users\Stéphane\Desktop\Blogs\OpenFoodFacts\test-178.png"
       inkscape:connector-curvature="0"
       id="path7999"
       d="m 59,26 0.02596,69 1.974042,0 -0.02685,-69 z"
       style="fill:#ffcc00;fill-opacity:1;fill-rule:nonzero;stroke:none"
       sodipodi:nodetypes="ccccc" />
    <path
       inkscape:export-ydpi="90"
       inkscape:export-xdpi="90"
       inkscape:export-filename="C:\Users\Stéphane\Desktop\Blogs\OpenFoodFacts\test-178.png"
       inkscape:connector-curvature="0"
       id="path8001"
       d="m 55,15 0,80 1,0 -9e-6,-80 z"
       style="fill:#ffcc00;fill-opacity:1;fill-rule:nonzero;stroke:none"
       sodipodi:nodetypes="ccccc" />
    <path
       inkscape:export-ydpi="90"
       inkscape:export-xdpi="90"
       inkscape:export-filename="C:\Users\Stéphane\Desktop\Blogs\OpenFoodFacts\test-178.png"
       inkscape:connector-curvature="0"
       id="path8003"
       d="m 52,26 0,69 2,0 3e-6,-69 z"
       style="fill:#ffcc00;fill-opacity:1;fill-rule:nonzero;stroke:none"
       sodipodi:nodetypes="ccccc" />
    <path
       inkscape:export-ydpi="90"
       inkscape:export-xdpi="90"
       inkscape:export-filename="C:\Users\Stéphane\Desktop\Blogs\OpenFoodFacts\test-178.png"
       inkscape:connector-curvature="0"
       id="path8005"
       d="m 46,26 0,69 3,0 -7e-6,-69 z"
       style="fill:#ffcc00;fill-opacity:1;fill-rule:nonzero;stroke:none"
       sodipodi:nodetypes="ccccc" />
    <path
       inkscape:export-ydpi="90"
       inkscape:export-xdpi="90"
       inkscape:export-filename="C:\Users\Stéphane\Desktop\Blogs\OpenFoodFacts\test-178.png"
       inkscape:connector-curvature="0"
       id="path8007"
       d="m 44,26 0,69 1,0 10e-7,-69 z"
       style="fill:#ffcc00;fill-opacity:1;fill-rule:nonzero;stroke:none"
       sodipodi:nodetypes="ccccc" />
    <path
       inkscape:export-ydpi="90"
       inkscape:export-xdpi="90"
       inkscape:export-filename="C:\Users\Stéphane\Desktop\Blogs\OpenFoodFacts\test-178.png"
       inkscape:connector-curvature="0"
       id="path8009"
       d="m 40,26 0,69 1,0 2e-6,-69 z"
       style="fill:#ffcc00;fill-opacity:1;fill-rule:nonzero;stroke:none"
       sodipodi:nodetypes="ccccc" />
    <path
       inkscape:export-ydpi="90"
       inkscape:export-xdpi="90"
       inkscape:export-filename="C:\Users\Stéphane\Desktop\Blogs\OpenFoodFacts\test-178.png"
       inkscape:connector-curvature="0"
       id="path8011"
       d="m 37,26 0,69 2,0 4e-6,-69 z"
       style="fill:#ffcc00;fill-opacity:1;fill-rule:nonzero;stroke:none"
       sodipodi:nodetypes="ccccc" />
    <path
       inkscape:export-ydpi="90"
       inkscape:export-xdpi="90"
       inkscape:export-filename="C:\Users\Stéphane\Desktop\Blogs\OpenFoodFacts\test-178.png"
       inkscape:connector-curvature="0"
       id="path8013"
       d="m 33,20 0,75 1,0 -7e-6,-75 z"
       style="fill:#ff0000;fill-opacity:1;fill-rule:nonzero;stroke:none"
       sodipodi:nodetypes="ccccc" />
    <path
       inkscape:export-ydpi="90"
       inkscape:export-xdpi="90"
       inkscape:export-filename="C:\Users\Stéphane\Desktop\Blogs\OpenFoodFacts\test-178.png"
       inkscape:connector-curvature="0"
       id="path8015"
       d="m 30,19 0,76 2,0 4e-6,-76 z"
       style="fill:#ff0000;fill-opacity:1;fill-rule:nonzero;stroke:none"
       sodipodi:nodetypes="ccccc" />
    <path
       inkscape:export-ydpi="90"
       inkscape:export-xdpi="90"
       inkscape:export-filename="C:\Users\Stéphane\Desktop\Blogs\OpenFoodFacts\test-178.png"
       inkscape:connector-curvature="0"
       id="path8017"
       d="m 26,26 0,69 3,0 0,-69 z"
       style="fill:#ff0000;fill-opacity:1;fill-rule:nonzero;stroke:none"
       sodipodi:nodetypes="ccccc" />
    <path
       inkscape:export-ydpi="90"
       inkscape:export-xdpi="90"
       inkscape:export-filename="C:\Users\Stéphane\Desktop\Blogs\OpenFoodFacts\test-178.png"
       inkscape:connector-curvature="0"
       id="path8019"
       d="m 22,26 0,69 3,0 -5e-6,-69 z"
       style="fill:#ff0000;fill-opacity:1;fill-rule:nonzero;stroke:none"
       sodipodi:nodetypes="ccccc" />
    <path
       inkscape:export-ydpi="90"
       inkscape:export-xdpi="90"
       inkscape:export-filename="C:\Users\Stéphane\Desktop\Blogs\OpenFoodFacts\test-178.png"
       inkscape:connector-curvature="0"
       id="path8021"
       d="m 19,20 0,75 2,0 -8.6e-5,-75 z"
       style="fill:#ff0000;fill-opacity:1;fill-rule:nonzero;stroke:none"
       sodipodi:nodetypes="ccccc" />
    <path
       inkscape:export-ydpi="90"
       inkscape:export-xdpi="90"
       inkscape:export-filename="C:\Users\Stéphane\Desktop\Blogs\OpenFoodFacts\test-178.png"
       inkscape:connector-curvature="0"
       id="path8023"
       d="m 15,21 0,74 3,0 -3.5e-5,-74 z"
       style="fill:#ff0000;fill-opacity:1;fill-rule:nonzero;stroke:none"
       sodipodi:nodetypes="ccccc" />
    <path
       inkscape:export-ydpi="90"
       inkscape:export-xdpi="90"
       inkscape:export-filename="C:\Users\Stéphane\Desktop\Blogs\OpenFoodFacts\test-178.png"
       inkscape:connector-curvature="0"
       id="path8025"
       d="m 11,26 0,69 1,0 -4.9e-5,-69 z"
       style="fill:#ff0000;fill-opacity:1;fill-rule:nonzero;stroke:none"
       sodipodi:nodetypes="ccccc" />
    <path
       inkscape:export-ydpi="90"
       inkscape:export-xdpi="90"
       inkscape:export-filename="C:\Users\Stéphane\Desktop\Blogs\OpenFoodFacts\test-178.png"
       inkscape:connector-curvature="0"
       id="path8027"
       d="M 8,26 8,95 9,95 9,26 Z"
       style="fill:#ff0000;fill-opacity:1;fill-rule:nonzero;stroke:none"
       sodipodi:nodetypes="ccccc" />
    <path
       inkscape:export-ydpi="90"
       inkscape:export-xdpi="90"
       inkscape:export-filename="C:\Users\Stéphane\Desktop\Blogs\OpenFoodFacts\test-178.png"
       inkscape:connector-curvature="0"
       id="path8029"
       d="m 3,26 0,69 0.999563,0 0,-69 z"
       style="fill:#ff0000;fill-opacity:1;fill-rule:nonzero;stroke:none"
       sodipodi:nodetypes="ccccc" />
    <path
       inkscape:export-ydpi="90"
       inkscape:export-xdpi="90"
       inkscape:export-filename="C:\Users\Stéphane\Desktop\Blogs\OpenFoodFacts\test-178.png"
       inkscape:connector-curvature="0"
       id="path8031"
       d="m 1.3e-5,26 0,69 2,0 0,-69 z"
       style="fill:#ff0000;fill-opacity:1;fill-rule:nonzero;stroke:none"
       sodipodi:nodetypes="ccccc" />
    <path
       sodipodi:nodetypes="csssacccccssscccsccccc"
       inkscape:connector-curvature="0"
       id="path8033"
       d="m 12.96037,20.168037 c 0.62972,-0.815576 0.719123,-2.676154 1.281409,-4.358843 0.405305,-1.212926 0.463533,-4.596987 1.208651,-4.882429 0.96834,-0.370951 3.169601,-0.358079 4.223988,-0.416629 2.300059,-0.127699 4.518931,1.098659 6.822539,1.101136 2.990853,0.0036 8.861008,-1.410596 8.861008,-1.410596 l -0.140119,-2.038826 1.505607,0.278059 4.07695,-0.516905 -3.008404,1.386137 c 0,0 1.201864,-0.02108 1.688022,0.276832 0.705048,0.432109 0.959994,1.347377 1.46892,1.999162 0.291967,0.373928 1.082477,0.65438 0.908337,1.095671 -0.469844,1.190611 -3.808977,0.485944 -3.808977,0.485944 l -1.918736,1.803326 c -0.833009,1.778987 -2.26137,3.261839 -2.253596,6.722383 0,0 -6.006891,-0.923008 -8.991183,-0.79663 -1.764007,0.07466 -4.968974,0.618073 -4.968974,0.618073 -1.608718,-0.13719 -3.296502,-0.529063 -4.905219,-0.24954 0.0095,-6.235485 0.866683,-6.128862 0.69876,-9.294821 -0.439183,1.679986 -0.971056,4.516551 -1.026843,5.772464 -0.534756,1.525804 -0.01191,1.899672 -1.72214,2.426032 z"
       style="fill:#ff0000;fill-opacity:1"
       inkscape:export-filename="C:\Users\Stéphane\Desktop\Blogs\OpenFoodFacts\test-178.png"
       inkscape:export-xdpi="90"
       inkscape:export-ydpi="90" />
    <g
       style="fill:#ffcc00"
       transform="matrix(0.01488015,-0.01147672,0.01147672,0.01488015,39.17529,7.567521)"
       id="g8035"
       inkscape:export-filename="C:\Users\Stéphane\Desktop\Blogs\OpenFoodFacts\test-178.png"
       inkscape:export-xdpi="90"
       inkscape:export-ydpi="90">
      <ellipse
         ry="32.857143"
         rx="65.714287"
         cy="762.36218"
         cx="567.14288"
         style="fill:#ffcc00;fill-opacity:1;stroke:none"
         id="path8037"
         transform="matrix(0.58270937,-0.81268061,0.81268061,0.58270937,-465.7507,809.03262)" />
      <path
         style="fill:#ffcc00;fill-opacity:1;stroke:none"
         d="m 494.28571,741.6479 c 0,0 14.40901,-2.31616 20.71429,-5.71428 22.08801,-11.90395 53.57143,-52.85715 53.57143,-52.85715 0,0 -33.14169,43.13867 -40,64.99999 -2.07174,6.60382 -1.42857,20.71429 -1.42857,20.71429 z"
         id="path8039"
         inkscape:connector-curvature="0"
         sodipodi:nodetypes="cscscc" />
    </g>
    <g
       transform="matrix(0.89458574,0,0,0.89458574,-468.13007,-644.42698)"
       id="g8041"
       inkscape:export-filename="C:\Users\Stéphane\Desktop\Blogs\OpenFoodFacts\test-178.png"
       inkscape:export-xdpi="90"
       inkscape:export-ydpi="90">
      <g
         id="g8043"
         transform="translate(-9.5459416,1.1490485)"
         style="fill:#ffcc00">
        <g
           transform="matrix(0.02100622,0,0,0.02100622,586.13922,725.53281)"
           id="g8045"
           style="fill:#ffcc00">
          <ellipse
             ry="32.857143"
             rx="65.714287"
             cy="762.36218"
             cx="567.14288"
             style="fill:#ffcc00;fill-opacity:1;stroke:none"
             id="path8047"
             transform="matrix(0.58270937,-0.81268061,0.81268061,0.58270937,-465.7507,809.03262)" />
          <path
             style="fill:#ffcc00;fill-opacity:1;stroke:none"
             d="m 494.28571,741.6479 c 0,0 14.40901,-2.31616 20.71429,-5.71428 22.08801,-11.90395 53.57143,-52.85715 53.57143,-52.85715 0,0 -33.14169,43.13867 -40,64.99999 -2.07174,6.60382 -1.42857,20.71429 -1.42857,20.71429 z"
             id="path8049"
             inkscape:connector-curvature="0"
             sodipodi:nodetypes="cscscc" />
        </g>
        <g
           transform="matrix(0.02100622,0,0,0.02100622,586.13922,727.5359)"
           id="g8051"
           style="fill:#ffcc00">
          <ellipse
             ry="32.857143"
             rx="65.714287"
             cy="762.36218"
             cx="567.14288"
             style="fill:#ffcc00;fill-opacity:1;stroke:none"
             id="path8053"
             transform="matrix(0.58270937,-0.81268061,0.81268061,0.58270937,-465.7507,809.03262)" />
          <path
             style="fill:#ffcc00;fill-opacity:1;stroke:none"
             d="m 494.28571,741.6479 c 0,0 14.40901,-2.31616 20.71429,-5.71428 22.08801,-11.90395 53.57143,-52.85715 53.57143,-52.85715 0,0 -33.14169,43.13867 -40,64.99999 -2.07174,6.60382 -1.42857,20.71429 -1.42857,20.71429 z"
             id="path8055"
             inkscape:connector-curvature="0"
             sodipodi:nodetypes="cscscc" />
        </g>
        <g
           transform="matrix(0.02100622,0,0,0.02100622,586.13922,723.52972)"
           id="g8057"
           style="fill:#ffcc00">
          <ellipse
             ry="32.857143"
             rx="65.714287"
             cy="762.36218"
             cx="567.14288"
             style="fill:#ffcc00;fill-opacity:1;stroke:none"
             id="path8059"
             transform="matrix(0.58270937,-0.81268061,0.81268061,0.58270937,-465.7507,809.03262)" />
          <path
             style="fill:#ffcc00;fill-opacity:1;stroke:none"
             d="m 494.28571,741.6479 c 0,0 14.40901,-2.31616 20.71429,-5.71428 22.08801,-11.90395 53.57143,-52.85715 53.57143,-52.85715 0,0 -33.14169,43.13867 -40,64.99999 -2.07174,6.60382 -1.42857,20.71429 -1.42857,20.71429 z"
             id="path8061"
             inkscape:connector-curvature="0"
             sodipodi:nodetypes="cscscc" />
        </g>
        <g
           transform="matrix(0.02100622,0,0,0.02100622,586.13922,721.52662)"
           id="g8063"
           style="fill:#ffcc00">
          <ellipse
             ry="32.857143"
             rx="65.714287"
             cy="762.36218"
             cx="567.14288"
             style="fill:#ffcc00;fill-opacity:1;stroke:none"
             id="path8065"
             transform="matrix(0.58270937,-0.81268061,0.81268061,0.58270937,-465.7507,809.03262)" />
          <path
             style="fill:#ffcc00;fill-opacity:1;stroke:none"
             d="m 494.28571,741.6479 c 0,0 14.40901,-2.31616 20.71429,-5.71428 22.08801,-11.90395 53.57143,-52.85715 53.57143,-52.85715 0,0 -33.14169,43.13867 -40,64.99999 -2.07174,6.60382 -1.42857,20.71429 -1.42857,20.71429 z"
             id="path8067"
             inkscape:connector-curvature="0"
             sodipodi:nodetypes="cscscc" />
        </g>
        <g
           transform="matrix(0.02064274,-0.0038908,0.0038908,0.02064274,583.1049,721.64932)"
           id="g8069"
           style="fill:#ffcc00">
          <ellipse
             ry="32.857143"
             rx="65.714287"
             cy="762.36218"
             cx="567.14288"
             style="fill:#ffcc00;fill-opacity:1;stroke:none"
             id="path8071"
             transform="matrix(0.58270937,-0.81268061,0.81268061,0.58270937,-465.7507,809.03262)" />
          <path
             style="fill:#ffcc00;fill-opacity:1;stroke:none"
             d="m 494.28571,741.6479 c 0,0 14.40901,-2.31616 20.71429,-5.71428 22.08801,-11.90395 53.57143,-52.85715 53.57143,-52.85715 0,0 -33.14169,43.13867 -40,64.99999 -2.07174,6.60382 -1.42857,20.71429 -1.42857,20.71429 z"
             id="path8073"
             inkscape:connector-curvature="0"
             sodipodi:nodetypes="cscscc" />
        </g>
      </g>
      <g
         id="g8075"
         style="fill:#ffcc00"
         transform="translate(-10.253048,1.1490485)">
        <g
           transform="matrix(-0.02100622,0,0,0.02100622,604.26937,725.53281)"
           id="g8077"
           style="fill:#ffcc00">
          <ellipse
             ry="32.857143"
             rx="65.714287"
             cy="762.36218"
             cx="567.14288"
             style="fill:#ffcc00;fill-opacity:1;stroke:none"
             id="path8079"
             transform="matrix(0.58270937,-0.81268061,0.81268061,0.58270937,-465.7507,809.03262)" />
          <path
             style="fill:#ffcc00;fill-opacity:1;stroke:none"
             d="m 494.28571,741.6479 c 0,0 14.40901,-2.31616 20.71429,-5.71428 22.08801,-11.90395 53.57143,-52.85715 53.57143,-52.85715 0,0 -33.14169,43.13867 -40,64.99999 -2.07174,6.60382 -1.42857,20.71429 -1.42857,20.71429 z"
             id="path8081"
             inkscape:connector-curvature="0"
             sodipodi:nodetypes="cscscc" />
        </g>
        <g
           transform="matrix(-0.02100622,0,0,0.02100622,604.26938,727.5359)"
           id="g8083"
           style="fill:#ffcc00">
          <ellipse
             ry="32.857143"
             rx="65.714287"
             cy="762.36218"
             cx="567.14288"
             style="fill:#ffcc00;fill-opacity:1;stroke:none"
             id="path8085"
             transform="matrix(0.58270937,-0.81268061,0.81268061,0.58270937,-465.7507,809.03262)" />
          <path
             style="fill:#ffcc00;fill-opacity:1;stroke:none"
             d="m 494.28571,741.6479 c 0,0 14.40901,-2.31616 20.71429,-5.71428 22.08801,-11.90395 53.57143,-52.85715 53.57143,-52.85715 0,0 -33.14169,43.13867 -40,64.99999 -2.07174,6.60382 -1.42857,20.71429 -1.42857,20.71429 z"
             id="path8087"
             inkscape:connector-curvature="0"
             sodipodi:nodetypes="cscscc" />
        </g>
        <g
           transform="matrix(-0.02100622,0,0,0.02100622,604.26938,723.52972)"
           id="g8089"
           style="fill:#ffcc00">
          <ellipse
             ry="32.857143"
             rx="65.714287"
             cy="762.36218"
             cx="567.14288"
             style="fill:#ffcc00;fill-opacity:1;stroke:none"
             id="path8091"
             transform="matrix(0.58270937,-0.81268061,0.81268061,0.58270937,-465.7507,809.03262)" />
          <path
             style="fill:#ffcc00;fill-opacity:1;stroke:none"
             d="m 494.28571,741.6479 c 0,0 14.40901,-2.31616 20.71429,-5.71428 22.08801,-11.90395 53.57143,-52.85715 53.57143,-52.85715 0,0 -33.14169,43.13867 -40,64.99999 -2.07174,6.60382 -1.42857,20.71429 -1.42857,20.71429 z"
             id="path8093"
             inkscape:connector-curvature="0"
             sodipodi:nodetypes="cscscc" />
        </g>
        <g
           transform="matrix(-0.02100622,0,0,0.02100622,604.26937,721.52662)"
           id="g8095"
           style="fill:#ffcc00">
          <ellipse
             ry="32.857143"
             rx="65.714287"
             cy="762.36218"
             cx="567.14288"
             style="fill:#ffcc00;fill-opacity:1;stroke:none"
             id="path8097"
             transform="matrix(0.58270937,-0.81268061,0.81268061,0.58270937,-465.7507,809.03262)" />
          <path
             style="fill:#ffcc00;fill-opacity:1;stroke:none"
             d="m 494.28571,741.6479 c 0,0 14.40901,-2.31616 20.71429,-5.71428 22.08801,-11.90395 53.57143,-52.85715 53.57143,-52.85715 0,0 -33.14169,43.13867 -40,64.99999 -2.07174,6.60382 -1.42857,20.71429 -1.42857,20.71429 z"
             id="path8099"
             inkscape:connector-curvature="0"
             sodipodi:nodetypes="cscscc" />
        </g>
        <g
           transform="matrix(-0.02064274,-0.0038908,-0.0038908,0.02064274,607.30369,721.64932)"
           id="g8101"
           style="fill:#ffcc00">
          <ellipse
             ry="32.857143"
             rx="65.714287"
             cy="762.36218"
             cx="567.14288"
             style="fill:#ffcc00;fill-opacity:1;stroke:none"
             id="path8103"
             transform="matrix(0.58270937,-0.81268061,0.81268061,0.58270937,-465.7507,809.03262)" />
          <path
             style="fill:#ffcc00;fill-opacity:1;stroke:none"
             d="m 494.28571,741.6479 c 0,0 14.40901,-2.31616 20.71429,-5.71428 22.08801,-11.90395 53.57143,-52.85715 53.57143,-52.85715 0,0 -33.14169,43.13867 -40,64.99999 -2.07174,6.60382 -1.42857,20.71429 -1.42857,20.71429 z"
             id="path8105"
             inkscape:connector-curvature="0"
             sodipodi:nodetypes="cscscc" />
        </g>
      </g>
    </g>
    <g
       id="g8107"
       transform="matrix(0.485552,-0.55754244,0.55754244,0.485552,-616.03955,-2.5771103)"
       inkscape:export-filename="C:\Users\Stéphane\Desktop\Blogs\OpenFoodFacts\test-178.png"
       inkscape:export-xdpi="90"
       inkscape:export-ydpi="90">
      <circle
         r="2.5"
         cy="732.36218"
         cx="608"
         style="fill:#ffcc00;fill-opacity:1"
         id="path8109"
         transform="translate(1.5,9.75)" />
      <circle
         r="2.5"
         cy="732.36218"
         cx="608"
         id="path8111"
         style="fill:#ffcc00;fill-opacity:1"
         inkscape:transform-center-x="-3.1501887"
         inkscape:transform-center-y="-1.6050895"
         transform="matrix(0.30901699,-0.95105652,0.95105652,0.30901699,-274.24997,1089.9371)" />
      <circle
         r="2.5"
         cy="732.36218"
         cx="608"
         transform="matrix(-0.809017,-0.58778525,0.58778525,-0.809017,667.85758,1685.9871)"
         inkscape:transform-center-y="-3.4919705"
         inkscape:transform-center-x="0.5530674"
         style="fill:#ffcc00;fill-opacity:1"
         id="path8113" />
      <circle
         r="2.5"
         cy="732.36218"
         cx="608"
         id="path8115"
         style="fill:#ffcc00;fill-opacity:1"
         inkscape:transform-center-x="3.4919258"
         inkscape:transform-center-y="-0.5530731"
         transform="matrix(-0.80901699,0.58778526,-0.58778526,-0.80901699,1525.8621,974.17912)" />
      <circle
         r="2.5"
         cy="732.36218"
         cx="608"
         transform="matrix(0.309017,0.95105651,-0.95105651,0.309017,1114.0304,-61.792435)"
         inkscape:transform-center-y="3.1501051"
         inkscape:transform-center-x="1.6050854"
         style="fill:#ffcc00;fill-opacity:1"
         id="path8117" />
    </g>
    <g
       transform="matrix(-0.6491698,-0.35382606,0.35382606,-0.6491698,218.16484,702.9075)"
       id="g8119"
       inkscape:export-filename="C:\Users\Stéphane\Desktop\Blogs\OpenFoodFacts\test-178.png"
       inkscape:export-xdpi="90"
       inkscape:export-ydpi="90">
      <circle
         r="2.5"
         cy="732.36218"
         cx="608"
         transform="translate(1.5,9.75)"
         id="path8121"
         style="fill:#ffcc00;fill-opacity:1" />
      <circle
         r="2.5"
         cy="732.36218"
         cx="608"
         transform="matrix(0.30901699,-0.95105652,0.95105652,0.30901699,-274.24997,1089.9371)"
         inkscape:transform-center-y="-1.6050895"
         inkscape:transform-center-x="-3.1501887"
         style="fill:#ffcc00;fill-opacity:1"
         id="path8123" />
      <circle
         r="2.5"
         cy="732.36218"
         cx="608"
         id="path8125"
         style="fill:#ffcc00;fill-opacity:1"
         inkscape:transform-center-x="0.5530674"
         inkscape:transform-center-y="-3.4919705"
         transform="matrix(-0.809017,-0.58778525,0.58778525,-0.809017,667.85758,1685.9871)" />
      <circle
         r="2.5"
         cy="732.36218"
         cx="608"
         transform="matrix(-0.80901699,0.58778526,-0.58778526,-0.80901699,1525.8621,974.17912)"
         inkscape:transform-center-y="-0.5530731"
         inkscape:transform-center-x="3.4919258"
         style="fill:#ffcc00;fill-opacity:1"
         id="path8127" />
      <circle
         r="2.5"
         cy="732.36218"
         cx="608"
         id="path8129"
         style="fill:#ffcc00;fill-opacity:1"
         inkscape:transform-center-x="1.6050854"
         inkscape:transform-center-y="3.1501051"
         transform="matrix(0.309017,0.95105651,-0.95105651,0.309017,1114.0304,-61.792435)" />
    </g>
    <g
       id="g8131"
       transform="matrix(0.31450273,-0.66910564,0.66910564,0.31450273,-610.58237,190.80877)"
       inkscape:export-filename="C:\Users\Stéphane\Desktop\Blogs\OpenFoodFacts\test-178.png"
       inkscape:export-xdpi="90"
       inkscape:export-ydpi="90">
      <circle
         r="2.5"
         cy="732.36218"
         cx="608"
         style="fill:#ffcc00;fill-opacity:1"
         id="path8133"
         transform="translate(1.5,9.75)" />
      <circle
         r="2.5"
         cy="732.36218"
         cx="608"
         id="path8135"
         style="fill:#ffcc00;fill-opacity:1"
         inkscape:transform-center-x="-3.1501887"
         inkscape:transform-center-y="-1.6050895"
         transform="matrix(0.30901699,-0.95105652,0.95105652,0.30901699,-274.24997,1089.9371)" />
      <circle
         r="2.5"
         cy="732.36218"
         cx="608"
         transform="matrix(-0.809017,-0.58778525,0.58778525,-0.809017,667.85758,1685.9871)"
         inkscape:transform-center-y="-3.4919705"
         inkscape:transform-center-x="0.5530674"
         style="fill:#ffcc00;fill-opacity:1"
         id="path8137" />
      <circle
         r="2.5"
         cy="732.36218"
         cx="608"
         id="path8139"
         style="fill:#ffcc00;fill-opacity:1"
         inkscape:transform-center-x="3.4919258"
         inkscape:transform-center-y="-0.5530731"
         transform="matrix(-0.80901699,0.58778526,-0.58778526,-0.80901699,1525.8621,974.17912)" />
      <circle
         r="2.5"
         cy="732.36218"
         cx="608"
         transform="matrix(0.309017,0.95105651,-0.95105651,0.309017,1114.0304,-61.792435)"
         inkscape:transform-center-y="3.1501051"
         inkscape:transform-center-x="1.6050854"
         style="fill:#ffcc00;fill-opacity:1"
         id="path8141" />
    </g>
    <path
       style="fill:#00d400;fill-opacity:1;fill-rule:nonzero;stroke:none"
       d="M 122.44657,6.33728 C 131.63587,7.287033 135.07702,14.767884 135,28 l 2.96392,-1.398609 c 0,-1.461895 -0.0255,-1.249361 -0.0255,-2.711244 0,-10.866897 -6.40398,-17.274677 -10.91182,-18.343579 z"
       id="path8143"
       inkscape:connector-curvature="0"
       inkscape:export-filename="C:\Users\Stéphane\Desktop\Blogs\OpenFoodFacts\test-178.png"
       inkscape:export-xdpi="90"
       inkscape:export-ydpi="90"
       sodipodi:nodetypes="cccscc" />
    <g
       transform="matrix(0.89458574,0,0,0.89458574,-468.09845,-644.42698)"
       id="g8145"
       inkscape:export-filename="C:\Users\Stéphane\Desktop\Blogs\OpenFoodFacts\test-178.png"
       inkscape:export-xdpi="90"
       inkscape:export-ydpi="90">
      <g
         transform="translate(-0.6875,-0.0625)"
         id="g8147">
        <path
           sodipodi:nodetypes="ccc"
           inkscape:connector-curvature="0"
           id="path8149"
           d="m 646.11882,744.69741 c 9.98853,-2.85699 22.36057,-3.40732 20.1894,-18.03175 -19.13147,-9.00363 -12.68327,7.89971 -20.1894,18.03175 z"
           style="fill:#00d400;stroke:none" />
        <path
           sodipodi:nodetypes="ccc"
           inkscape:connector-curvature="0"
           id="path8151"
           d="m 667.50879,725.1485 c -4.96993,6.86401 -15.79612,16.96445 -22.45063,19.97578 6.6817,-2.48508 19.65127,-12.66443 22.45063,-19.97578 z"
           style="fill:#ffffff;fill-opacity:1;stroke:none" />
      </g>
    </g>
    <g
       id="g8153"
       transform="matrix(0.73729109,0.50664139,0.50664139,-0.73729109,-728.9281,199.42539)"
       inkscape:export-filename="C:\Users\Stéphane\Desktop\Blogs\OpenFoodFacts\test-178.png"
       inkscape:export-xdpi="90"
       inkscape:export-ydpi="90">
      <g
         transform="matrix(-0.85351374,-0.52107033,0.52107033,-0.85351374,864.58887,1695.2445)"
         id="g8155">
        <g
           transform="translate(-0.6875,-0.0625)"
           id="g8157">
          <path
             sodipodi:nodetypes="ccc"
             inkscape:connector-curvature="0"
             id="path8159"
             d="m 646.11882,744.69741 c 9.98853,-2.85699 22.36057,-3.40732 20.1894,-18.03175 -19.99874,-7.24796 -12.68327,7.89971 -20.1894,18.03175 z"
             style="fill:#00d400;stroke:none" />
          <path
             sodipodi:nodetypes="ccc"
             inkscape:connector-curvature="0"
             id="path8161"
             d="m 667.50879,725.1485 c -4.96993,6.86401 -15.79612,16.96445 -22.45063,19.97578 6.6817,-2.48508 19.65127,-12.66443 22.45063,-19.97578 z"
             style="fill:#ffffff;fill-opacity:1;stroke:none" />
        </g>
      </g>
    </g>
    <path
       sodipodi:nodetypes="cccscc"
       inkscape:export-ydpi="90"
       inkscape:export-xdpi="90"
       inkscape:export-filename="C:\Users\Stéphane\Desktop\Blogs\OpenFoodFacts\test-178.png"
       inkscape:connector-curvature="0"
       id="path8163"
       d="M 137.87818,4.60402 C 135.88514,6.168809 135.07702,14.767884 135,28 l 2.96392,-1.398609 c 0,-1.461895 0.0361,1.860492 0.0361,0.398609 0,-10.866897 0.85886,-19.322201 1.21536,-21.117966 z"
       style="fill:#00d400;fill-opacity:1;fill-rule:nonzero;stroke:none" />
    <circle
       r="0.94885141"
       cy="35.27636"
       cx="159.09236"
       inkscape:export-ydpi="90"
       inkscape:export-xdpi="90"
       inkscape:export-filename="C:\Users\Stéphane\Desktop\Blogs\OpenFoodFacts\test-178.png"
       style="fill:#00ccff;fill-opacity:1;stroke:none"
       id="path8165" />
    <path
       sodipodi:nodetypes="cccccc"
       inkscape:export-ydpi="90"
       inkscape:export-xdpi="90"
       inkscape:export-filename="C:\Users\Stéphane\Desktop\Blogs\OpenFoodFacts\test-178.png"
       id="path8169"
       d="m 170.00004,118 0,5 c 2.66569,0 5.33424,0 7.99992,0 l 0,-5 c -2.66568,0 -5.33423,0 -7.99983,0 z"
       style="fill:#0066ff;fill-opacity:1;fill-rule:nonzero;stroke:none"
       inkscape:connector-curvature="0" />
    <path
       sodipodi:nodetypes="ccccc"
       inkscape:export-ydpi="90"
       inkscape:export-xdpi="90"
       inkscape:export-filename="C:\Users\Stéphane\Desktop\Blogs\OpenFoodFacts\test-178.png"
       id="path8171"
       d="m 154.00001,118 0,5 c 4.33407,0 8.6659,0 12.99997,0 l 0,-5 c -4.33407,0 -8.6659,0 -12.99997,0 z"
       style="fill:#00ccff;fill-opacity:1;fill-rule:nonzero;stroke:none"
       inkscape:connector-curvature="0" />
    <path
       sodipodi:nodetypes="ccccc"
       inkscape:export-ydpi="90"
       inkscape:export-xdpi="90"
       inkscape:export-filename="C:\Users\Stéphane\Desktop\Blogs\OpenFoodFacts\test-178.png"
       id="path8173"
       d="m 95,118 0,5 c 18.6596,0 37.34041,0 56.00004,0 l 0,-5 C 132.34041,118 113.6596,118 95,118 Z"
       style="fill:#00d400;fill-opacity:1;fill-rule:nonzero;stroke:none"
       inkscape:connector-curvature="0" />
    <path
       sodipodi:nodetypes="ccccc"
       inkscape:export-ydpi="90"
       inkscape:export-xdpi="90"
       inkscape:export-filename="C:\Users\Stéphane\Desktop\Blogs\OpenFoodFacts\test-178.png"
       id="path8175"
       d="m 36.999996,118 0,5 C 55.333383,123 73.666619,123 92,123 l 0,-5 c -18.333381,0 -36.666617,0 -55.000004,0 z"
       style="fill:#ffcc00;fill-opacity:1;fill-rule:nonzero;stroke:none"
       inkscape:connector-curvature="0" />
    <path
       sodipodi:nodetypes="ccccc"
       inkscape:export-ydpi="90"
       inkscape:export-xdpi="90"
       inkscape:export-filename="C:\Users\Stéphane\Desktop\Blogs\OpenFoodFacts\test-178.png"
       id="path8177"
       d="m 0,118 0,5 c 11.333706,0 22.666301,0 33.999997,0 l 0,-5 C 22.666301,118 11.333706,118 0,118 Z"
       style="fill:#ff0000;fill-opacity:1;fill-rule:nonzero;stroke:none"
       inkscape:connector-curvature="0" />
    <g
       style="font-style:normal;font-variant:normal;font-weight:normal;font-stretch:normal;font-size:32.81705093px;line-height:125%;font-family:'Arial Narrow';-inkscape-font-specification:'Arial Narrow';letter-spacing:0px;word-spacing:0px;fill:#333333;fill-opacity:1;stroke:none"
       id="text8179"
       inkscape:export-filename="C:\Users\Stéphane\Desktop\Blogs\OpenFoodFacts\test-178.png"
       inkscape:export-xdpi="90"
       inkscape:export-ydpi="90"
       transform="translate(0,2.637817)">
      <path
         inkscape:connector-curvature="0"
         d="m 0.29533203,104.18406 c -9.5e-7,-2.79573 0.61506181,-4.944723 1.84519007,-6.446982 1.2301228,-1.50223 2.7621882,-2.253352 4.5962009,-2.253369 1.1853862,1.7e-5 2.2664056,0.335506 3.2430614,1.006468 0.9766346,0.670993 1.7501226,1.645774 2.3204666,2.924346 0.570318,1.278597 0.855483,2.801347 0.855497,4.568247 -1.4e-5,2.43043 -0.551707,4.40982 -1.65508,5.93815 -1.215227,1.68491 -2.8069346,2.52736 -4.775128,2.52736 -1.9831188,0 -3.5785543,-0.86482 -4.7863113,-2.59445 -1.09593262,-1.56562 -1.64389762,-3.45554 -1.64389667,-5.66977 z m 1.83400717,0.0335 c -2.8e-6,2.0204 0.4454517,3.58787 1.3363649,4.70244 0.890905,1.11457 1.9737882,1.67185 3.2486529,1.67185 1.3046712,0 2.3987374,-0.56287 3.2822018,-1.68863 0.8834432,-1.12574 1.3251702,-2.78082 1.3251822,-4.96524 -1.2e-5,-1.40904 -0.227399,-2.66899 -0.682161,-3.77984 C 10.289169,99.308298 9.761706,98.628001 9.0571893,98.117299 8.3526532,97.606624 7.5828928,97.35128 6.7479059,97.351265 5.4059434,97.35128 4.3006943,97.910428 3.4321552,99.028711 2.563608,100.14702 2.1293364,101.87665 2.1293392,104.21761 Z"
         style="font-size:22.90272331px;fill:#333333"
         id="path3685" />
      <path
         d="m 15,112.36218 0,-16.999997 4.674837,0 c 1.224167,1.6e-5 2.126995,0.107131 2.708487,0.321346 0.795704,0.290757 1.430744,0.830159 1.905122,1.618206 0.474357,0.788077 0.711542,1.755941 0.711554,2.903595 -1.2e-5,1.51492 -0.386392,2.75057 -1.159142,3.70695 -0.772771,0.9564 -2.107912,1.42433 -4.005348,1.43458 L 17,105.36218 l 0,7 z m 2,-9 2.86994,-7.7e-4 c 1.124703,-3e-4 1.947195,-0.25439 2.467477,-0.7632 0.520265,-0.50879 0.780403,-1.27581 0.780412,-2.30107 -9e-6,-0.665632 -0.128166,-1.235638 -0.384467,-1.710022 -0.256321,-0.474353 -0.56619,-0.799524 -0.929608,-0.975514 -0.363435,-0.17596 -1.019516,-0.263948 -1.968244,-0.263963 L 17,97.362183 Z"
         style="font-size:22.90272331px;fill:#333333"
         id="path3687"
         inkscape:connector-curvature="0"
         sodipodi:nodetypes="ccccccssccccsscccccc" />
      <path
         d="m 27,112.36218 0,-16.999997 10,0 0,2 -8,0 0,4.999997 7,0 0,2 -7,0 0,6 8,0 0,2 z"
         style="font-size:22.90272331px;fill:#333333"
         id="path3689"
         inkscape:connector-curvature="0"
         sodipodi:nodetypes="ccccccccccccc" />
      <path
         d="m 39,112.36218 0,-16.999997 2,0 7,12.999997 0,-12.999997 2,0 0,16.999997 -2,0 -7,-12.999997 0,12.999997 z"
         style="font-size:22.90272331px;fill:#333333"
         id="path3691"
         inkscape:connector-curvature="0"
         sodipodi:nodetypes="ccccccccccc" />
      <path
         d="m 58,112.36218 0,-16.999997 9,0 0,2 -7,0 0,4.999997 6,0 0,2 -6,0 0,8 z"
         style="font-size:22.90272331px;fill:#333333"
         id="path3693"
         inkscape:connector-curvature="0"
         sodipodi:nodetypes="ccccccccccc" />
      <path
         d="m 68.255995,104.18406 c -10e-7,-2.79573 0.615062,-4.944723 1.84519,-6.446982 1.230123,-1.50223 2.762188,-2.253352 4.596201,-2.253369 1.185386,1.7e-5 2.266405,0.335506 3.243061,1.006468 0.976635,0.670993 1.750123,1.645774 2.320467,2.924346 0.570318,1.278597 0.855483,2.801347 0.855497,4.568247 -1.4e-5,2.43043 -0.551707,4.40982 -1.65508,5.93815 -1.215227,1.68491 -2.806935,2.52736 -4.775128,2.52736 -1.983119,0 -3.578554,-0.86482 -4.786311,-2.59445 -1.095933,-1.56562 -1.643898,-3.45554 -1.643897,-5.66977 z m 1.834007,0.0335 c -3e-6,2.0204 0.445452,3.58787 1.336365,4.70244 0.890905,1.11457 1.973788,1.67185 3.248653,1.67185 1.304671,0 2.398737,-0.56287 3.282202,-1.68863 0.883443,-1.12574 1.32517,-2.78082 1.325182,-4.96524 -1.2e-5,-1.40904 -0.227399,-2.66899 -0.682162,-3.77984 -0.35041,-0.849892 -0.877873,-1.530189 -1.58239,-2.040891 -0.704536,-0.510675 -1.474296,-0.766019 -2.309283,-0.766034 -1.341963,1.5e-5 -2.447212,0.559163 -3.315751,1.677446 -0.868547,1.118309 -1.302819,2.847939 -1.302816,5.188899 z"
         style="font-size:22.90272331px;fill:#333333"
         id="path3695"
         inkscape:connector-curvature="0"
         sodipodi:nodetypes="sscccccscsssssccccss" />
      <path
         d="m 82.883322,104.18406 c -1e-6,-2.79573 0.615062,-4.944723 1.84519,-6.446982 1.230123,-1.50223 2.762188,-2.253352 4.596201,-2.253369 1.185386,1.7e-5 2.266405,0.335506 3.243061,1.006468 0.976635,0.670993 1.750123,1.645774 2.320467,2.924346 0.570317,1.278597 0.855483,2.801347 0.855497,4.568247 -1.4e-5,2.43043 -0.551707,4.40982 -1.65508,5.93815 -1.215227,1.68491 -2.806935,2.52736 -4.775128,2.52736 -1.983119,0 -3.578555,-0.86482 -4.786312,-2.59445 -1.095932,-1.56562 -1.643897,-3.45554 -1.643896,-5.66977 z m 1.834007,0.0335 c -3e-6,2.0204 0.445452,3.58787 1.336365,4.70244 0.890905,1.11457 1.973788,1.67185 3.248653,1.67185 1.304671,0 2.398737,-0.56287 3.282202,-1.68863 0.883443,-1.12574 1.32517,-2.78082 1.325182,-4.96524 -1.2e-5,-1.40904 -0.227399,-2.66899 -0.682162,-3.77984 -0.35041,-0.849892 -0.877873,-1.530189 -1.58239,-2.040891 -0.704536,-0.510675 -1.474296,-0.766019 -2.309283,-0.766034 -1.341963,1.5e-5 -2.447212,0.559163 -3.315751,1.677446 -0.868547,1.118309 -1.302819,2.847939 -1.302816,5.188899 z"
         style="font-size:22.90272331px;fill:#333333"
         id="path3697"
         inkscape:connector-curvature="0"
         sodipodi:nodetypes="sscccccscsssssccccss" />
      <path
         d="m 98,112.36218 0,-16.999997 5,0 c 1.21266,1.6e-5 2.00501,0.174276 2.63497,0.382679 0.82682,0.270189 1.54339,0.719576 2.14974,1.437449 0.60633,0.717903 1.0788,1.622982 1.41741,2.715233 0.33859,1.092286 0.50789,2.387186 0.5079,3.884706 -1e-5,1.9221 -0.28743,3.55278 -0.86225,4.89207 -0.57485,1.33928 -1.31309,2.28875 -2.21471,2.8484 -0.90163,0.55964 -2.17628,0.83946 -3.63306,0.83946 z m 2,-2 3,0 c 1.22054,0 2.01682,-0.19791 2.64678,-0.58773 0.62996,-0.38982 1.11424,-1.01701 1.45285,-1.88157 0.44883,-1.15015 0.67326,-2.52803 0.67327,-4.13365 -1e-5,-1.72137 -0.23822,-3.07416 -0.71461,-4.058372 -0.47642,-0.984193 -1.08866,-1.642257 -1.83673,-1.974198 C 104.71759,97.502677 104.09454,97.362198 103,97.362183 l -3,0 z"
         style="font-size:22.90272331px;fill:#333333"
         id="path3699"
         inkscape:connector-curvature="0"
         sodipodi:nodetypes="ccccccccssccssccccccc" />
      <path
         d="m 118,112.36218 0.0757,-16.999997 9,0 0,2 -7,3.8e-5 0,4.999999 6,0 0,2 -6,0 0,7.99996 z"
         style="font-size:22.90272331px;fill:#333333"
         id="path3701"
         inkscape:connector-curvature="0"
         sodipodi:nodetypes="ccccccccccc" />
      <path
         d="m 128.07572,112.36218 5,-16.999997 2,0 5,16.999997 -2,0 -4,-14.999997 -4.04025,14.999997 z"
         style="font-size:22.90272331px;fill:#333333"
         id="path3703"
         inkscape:connector-curvature="0"
         sodipodi:nodetypes="cccccccc" />
      <path
         d="m 151.36137,106.42065 1.78927,0.54797 c -0.39514,1.84147 -1.08662,3.21511 -2.07444,4.12092 -0.98784,0.90583 -2.19001,1.35874 -3.60651,1.35874 -1.24504,0 -2.30929,-0.30381 -3.19273,-0.91142 -0.88346,-0.6076 -1.60663,-1.58238 -2.1695,-2.92434 -0.56288,-1.34195 -0.84432,-2.92621 -0.84432,-4.75277 0,-1.80417 0.28144,-3.33065 0.84432,-4.579422 0.56287,-1.248751 1.32518,-2.191847 2.28692,-2.829292 0.96173,-0.637413 2.03529,-0.956127 3.22069,-0.956144 1.29722,1.7e-5 2.41179,0.404467 3.34371,1.213353 0.9319,0.808916 1.58424,1.996173 1.95702,3.561775 l -1.74454,0.50323 c -0.59644,-2.281308 -1.79302,-3.42197 -3.58974,-3.421985 -0.89464,1.5e-5 -1.66999,0.229266 -2.32605,0.687753 -0.65608,0.458516 -1.17981,1.172361 -1.57121,2.141542 -0.39141,0.9692 -0.58711,2.1956 -0.58711,3.67919 0,2.24406 0.39513,3.92709 1.1854,5.04912 0.79026,1.12202 1.84145,1.68303 3.15359,1.68303 0.96919,0 1.80605,-0.3448 2.51058,-1.03442 0.70452,-0.68962 1.17607,-1.73522 1.41465,-3.13683 z"
         style="font-size:22.90272331px;fill:#333333"
         id="path3705"
         inkscape:connector-curvature="0"
         sodipodi:nodetypes="ccsscssscccccccsssssc" />
      <path
         d="m 159,112.36218 0,-14.999997 -5,0.0061 0,-2.006138 12,0 0,2 -5,0 0,14.999995 z"
         style="font-size:22.90272331px;fill:#333333"
         id="path3707"
         inkscape:connector-curvature="0"
         sodipodi:nodetypes="ccccccccc" />
      <path
         inkscape:connector-curvature="0"
         d="m 167.26826,106.90152 1.67745,-0.17893 c 0.0895,0.9021 0.29262,1.60476 0.60947,2.10799 0.31685,0.50324 0.76976,0.90769 1.35873,1.21336 0.58897,0.30567 1.25249,0.4585 1.99057,0.4585 1.05865,0 1.88059,-0.25907 2.46585,-0.77722 0.58523,-0.51814 0.87785,-1.19098 0.87786,-2.01852 -1e-5,-0.48459 -0.10625,-0.90768 -0.31872,-1.26927 -0.21248,-0.36158 -0.53306,-0.65793 -0.96173,-0.88905 -0.42869,-0.23111 -1.35501,-0.55541 -2.77897,-0.97292 -1.26741,-0.37275 -2.1695,-0.74925 -2.70628,-1.12948 -0.53678,-0.38021 -0.95428,-0.86294 -1.25249,-1.44819 -0.29822,-0.58523 -0.44732,-1.24689 -0.44732,-1.98498 0,-1.32703 0.42868,-2.411777 1.28604,-3.254242 0.85736,-0.842434 2.01293,-1.263659 3.46672,-1.263676 0.99901,1.7e-5 1.87314,0.197583 2.62241,0.592698 0.74925,0.395147 1.33076,0.96175 1.74454,1.699811 0.41376,0.73809 0.63556,1.606633 0.66539,2.605629 l -1.711,0.15656 c -0.0895,-1.066092 -0.40818,-1.856355 -0.95614,-2.370785 -0.54797,-0.514402 -1.31773,-0.77161 -2.30928,-0.771625 -1.00648,1.5e-5 -1.77437,0.225538 -2.30369,0.67657 -0.52934,0.45106 -0.794,1.034438 -0.794,1.750135 0,0.663535 0.19384,1.177955 0.58152,1.543245 0.38767,0.36533 1.25994,0.73436 2.61681,1.10712 1.32704,0.36532 2.25896,0.68217 2.79575,0.95055 0.82007,0.41751 1.43886,0.96734 1.85637,1.64949 0.41749,0.68217 0.62623,1.49666 0.62625,2.44348 -2e-5,0.93937 -0.21995,1.79487 -0.6598,2.56649 -0.43987,0.77163 -1.03816,1.35873 -1.79487,1.76132 -0.75672,0.40258 -1.66813,0.60388 -2.73423,0.60388 -1.66254,0 -2.98772,-0.49951 -3.97555,-1.49852 -0.98783,-0.99901 -1.50038,-2.35215 -1.53766,-4.05942 z"
         style="font-size:22.90272331px;fill:#333333"
         id="path3709" />
      <path
         sodipodi:nodetypes="ccccc"
         inkscape:connector-curvature="0"
         id="path3713"
         style="font-size:22.90272331px;fill:#333333"
         d="m 137.07572,105.36218 0,2 -6,0 0,-2 z" />
    </g>
    <g
       transform="scale(0.86965817,1.1498771)"
       style="font-style:normal;font-variant:normal;font-weight:normal;font-stretch:normal;font-size:33.51184845px;line-height:125%;font-family:'Arial Narrow';-inkscape-font-specification:'Arial Narrow';letter-spacing:0px;word-spacing:0px;fill:#333333;fill-opacity:1;stroke:none"
       id="text3715-8">
      <path
         d="m 4.6221983,120.9909 0,-1.00223 q -0.2991714,0.57591 -0.7703664,0.88256 -0.4711949,0.29917 -1.0171828,0.29917 -1.1518099,0 -1.99696916,-1.0845 Q -1.6298145e-8,118.99393 -1.6298145e-8,117.0194 q 0,-1.35375 0.373964266298145,-2.29614 0.37396427,-0.94239 0.99474495,-1.39863 0.62826,-0.45624 1.3911471,-0.45624 0.5459878,0 1.0097035,0.2917 0.471195,0.28421 0.7778457,0.80028 l 0,-3.9341 1.1069342,0 0,10.96463 -1.0321414,0 z m -3.4928262,-3.96402 q 0,1.54073 0.5310292,2.28866 0.5385086,0.74793 1.2490407,0.74793 0.7030528,0 1.2191235,-0.71801 0.5160707,-0.71802 0.5160707,-2.169 0,-1.66788 -0.5160707,-2.43077 -0.5160707,-0.77036 -1.3013957,-0.77036 -0.6955735,0 -1.1966856,0.74045 -0.5011121,0.73297 -0.5011121,2.3111 z"
         style="font-size:15.31757641px;fill:#333333;fill-opacity:1"
         id="path4271" />
      <path
         d="m 11.854667,118.43298 1.136852,0.17203 q -0.284213,1.27147 -1.032142,1.92217 -0.740449,0.64322 -1.839904,0.64322 -1.3836675,0 -2.2437853,-1.0471 -0.8526386,-1.05458 -0.8526386,-3.03659 0,-2.0568 0.8601179,-3.13382 0.8675971,-1.0845 2.191431,-1.0845 1.263999,0 2.109158,1.06206 0.845159,1.06206 0.845159,3.07399 l -0.0075,0.359 -4.8615355,0 q 0.067314,1.3388 0.6207807,2.01941 0.5534671,0.68062 1.3462718,0.68062 1.241561,0 1.727714,-1.63049 z m -3.6274529,-2.17647 3.6349329,0 q -0.07479,-1.03214 -0.441278,-1.54073 -0.531029,-0.74045 -1.353751,-0.74045 -0.740449,0 -1.2639989,0.62078 -0.52355,0.6133 -0.575905,1.6604 z"
         style="font-size:15.31757641px;fill:#333333;fill-opacity:1"
         id="path4273" />
      <path
         d="m 19.722876,120.9909 -2.475644,-7.943 1.166769,0 1.398626,4.75682 q 0.239337,0.80777 0.41884,1.60057 0.142106,-0.62826 0.403881,-1.51082 l 1.450982,-4.84657 1.136851,0 -2.468164,7.943 -1.032141,0 z"
         style="font-size:15.31757641px;fill:#333333;fill-opacity:1"
         id="path4275" />
      <path
         d="m 24.18053,120.9909 0,-7.943 0.994745,0 0,1.20416 q 0.381444,-0.83768 0.695574,-1.10693 0.321609,-0.27674 0.718011,-0.27674 0.553467,0 1.129372,0.4338 l -0.373964,1.24904 q -0.411361,-0.29169 -0.800284,-0.29169 -0.351526,0 -0.643218,0.24682 -0.291692,0.24681 -0.411361,0.68809 -0.20942,0.77037 -0.20942,1.63797 l 0,4.15848 -1.099455,0 z"
         style="font-size:15.31757641px;fill:#333333;fill-opacity:1"
         id="path4277" />
      <path
         d="m 28.368931,111.57448 0,-1.54821 1.099455,0 0,1.54821 -1.099455,0 z m 0,9.41642 0,-7.943 1.099455,0 0,7.943 -1.099455,0 z"
         style="font-size:15.31757641px;fill:#333333;fill-opacity:1"
         id="path4279" />
      <path
         d="m 31.143745,111.58944 0,-1.56317 1.099455,0 0,1.56317 -1.099455,0 z m -1.398627,12.48292 0.20942,-1.14433 q 0.329089,0.10471 0.516071,0.10471 0.351526,0 0.508591,-0.27673 0.164545,-0.27673 0.164545,-1.36123 l 0,-8.34688 1.099455,0 0,8.3768 q 0,1.623 -0.41884,2.20639 -0.411361,0.58338 -1.211645,0.58338 -0.448757,0 -0.867597,-0.14211 z"
         style="font-size:15.31757641px;fill:#333333;fill-opacity:1"
         id="path4281" />
      <path
         d="m 38.391173,118.43298 1.136852,0.17203 q -0.284213,1.27147 -1.032142,1.92217 -0.740449,0.64322 -1.839904,0.64322 -1.383668,0 -2.243786,-1.0471 -0.852638,-1.05458 -0.852638,-3.03659 0,-2.0568 0.860118,-3.13382 0.867597,-1.0845 2.19143,-1.0845 1.263999,0 2.109159,1.06206 0.845159,1.06206 0.845159,3.07399 l -0.0075,0.359 -4.861536,0 q 0.06731,1.3388 0.620781,2.01941 0.553467,0.68062 1.346271,0.68062 1.241562,0 1.727715,-1.63049 z m -3.627453,-2.17647 3.634932,0 q -0.07479,-1.03214 -0.441277,-1.54073 -0.53103,-0.74045 -1.353751,-0.74045 -0.740449,0 -1.263999,0.62078 -0.52355,0.6133 -0.575905,1.6604 z"
         style="font-size:15.31757641px;fill:#333333;fill-opacity:1"
         id="path4283" />
      <path
         d="m 46.25938,120.9909 -2.475643,-7.943 1.166768,0 1.398627,4.75682 q 0.239337,0.80777 0.41884,1.60057 0.142106,-0.62826 0.403881,-1.51082 l 1.450981,-4.84657 1.136852,0 -2.468164,7.943 -1.032142,0 z"
         style="font-size:15.31757641px;fill:#333333;fill-opacity:1"
         id="path4285" />
      <path
         d="m 50.305674,117.0194 q 0,-2.05681 0.860118,-3.10391 0.867597,-1.0471 2.191431,-1.0471 1.301395,0 2.176472,1.0471 0.875076,1.0471 0.875076,3.02164 0,2.13907 -0.860118,3.18617 -0.860117,1.0471 -2.19143,1.0471 -1.308875,0 -2.183952,-1.0471 -0.867597,-1.05458 -0.867597,-3.1039 z m 1.129372,0 q 0,1.54073 0.560947,2.29614 0.560946,0.74793 1.391147,0.74793 0.777846,0 1.331313,-0.75541 0.560946,-0.76289 0.560946,-2.28866 0,-1.53326 -0.560946,-2.28118 -0.560947,-0.75541 -1.391147,-0.75541 -0.785325,0 -1.338792,0.75541 -0.553468,0.7554 -0.553468,2.28118 z"
         style="font-size:15.31757641px;fill:#333333;fill-opacity:1"
         id="path4287" />
      <path
         d="m 62.175299,118.43298 1.136852,0.17203 q -0.284213,1.27147 -1.032142,1.92217 -0.740449,0.64322 -1.839904,0.64322 -1.383668,0 -2.243785,-1.0471 -0.852639,-1.05458 -0.852639,-3.03659 0,-2.0568 0.860118,-3.13382 0.867597,-1.0845 2.191431,-1.0845 1.263999,0 2.109158,1.06206 0.845159,1.06206 0.845159,3.07399 l -0.0075,0.359 -4.861536,0 q 0.06731,1.3388 0.620781,2.01941 0.553467,0.68062 1.346272,0.68062 1.241561,0 1.727714,-1.63049 z m -3.627453,-2.17647 3.634933,0 q -0.07479,-1.03214 -0.441278,-1.54073 -0.531029,-0.74045 -1.353751,-0.74045 -0.740449,0 -1.263999,0.62078 -0.52355,0.6133 -0.575905,1.6604 z"
         style="font-size:15.31757641px;fill:#333333;fill-opacity:1"
         id="path4289" />
      <path
         d="m 68.944052,120.9909 0,-1.00223 q -0.299171,0.57591 -0.770366,0.88256 -0.471195,0.29917 -1.017183,0.29917 -1.15181,0 -1.996969,-1.0845 -0.83768,-1.09197 -0.83768,-3.0665 0,-1.35375 0.373964,-2.29614 0.373964,-0.94239 0.994745,-1.39863 0.62826,-0.45624 1.391147,-0.45624 0.545988,0 1.009703,0.2917 0.471195,0.28421 0.777846,0.80028 l 0,-3.9341 1.106934,0 0,10.96463 -1.032141,0 z m -3.492826,-3.96402 q 0,1.54073 0.531029,2.28866 0.538509,0.74793 1.249041,0.74793 0.703052,0 1.219123,-0.71801 0.516071,-0.71802 0.516071,-2.169 0,-1.66788 -0.516071,-2.43077 -0.516071,-0.77036 -1.301396,-0.77036 -0.695573,0 -1.196685,0.74045 -0.501112,0.73297 -0.501112,2.3111 z"
         style="font-size:15.31757641px;fill:#333333;fill-opacity:1"
         id="path4291" />
      <path
         d="m 71.718866,111.57448 0,-1.54821 1.099455,0 0,1.54821 -1.099455,0 z m 0,9.41642 0,-7.943 1.099455,0 0,7.943 -1.099455,0 z"
         style="font-size:15.31757641px;fill:#333333;fill-opacity:1"
         id="path4293" />
      <path
         d="m 74.501161,120.9909 0,-7.943 0.994745,0 0,1.12937 q 0.359006,-0.65818 0.875077,-0.97979 0.52355,-0.32909 1.196685,-0.32909 0.52355,0 0.964828,0.20942 0.448757,0.20194 0.718012,0.53851 0.276733,0.32909 0.41136,0.86012 0.134627,0.53103 0.134627,1.63048 l 0,4.88398 -1.106934,0 0,-4.83162 q 0,-0.87508 -0.149586,-1.27896 -0.149585,-0.40388 -0.471195,-0.62078 -0.31413,-0.22438 -0.73297,-0.22438 -0.792804,0 -1.263999,0.59087 -0.471195,0.59086 -0.471195,2.02688 l 0,4.33799 -1.099455,0 z"
         style="font-size:15.31757641px;fill:#333333;fill-opacity:1"
         id="path4295" />
      <path
         d="m 81.292352,121.64908 1.077017,0.19446 q 0.07479,0.63574 0.448757,0.94239 0.373964,0.31413 1.039621,0.31413 0.72549,0 1.15181,-0.35153 0.433798,-0.34405 0.590863,-1.03214 0.09723,-0.41884 0.09723,-1.76511 -0.359006,0.51607 -0.807763,0.77784 -0.448757,0.26178 -0.994745,0.26178 -1.166769,0 -1.937135,-0.98727 -0.882556,-1.13685 -0.882556,-3.04407 0,-1.27895 0.388923,-2.2363 0.388923,-0.95735 1.017183,-1.40611 0.635739,-0.44876 1.421064,-0.44876 0.575905,0 1.0471,0.28422 0.478674,0.28421 0.845159,0.85264 l 0,-0.95735 1.017183,0 0,6.86598 q 0,1.83243 -0.299171,2.61027 -0.299172,0.78533 -0.979787,1.23408 -0.680614,0.45624 -1.637963,0.45624 -1.263999,0 -1.944614,-0.68061 -0.680615,-0.68062 -0.658177,-1.88478 z m 0.919952,-4.77179 q 0,1.56317 0.51607,2.28118 0.516071,0.71801 1.264,0.71801 0.747928,0 1.271478,-0.70305 0.52355,-0.70305 0.52355,-2.2363 0,-1.49586 -0.538508,-2.22135 -0.538509,-0.73297 -1.308875,-0.73297 -0.688095,0 -1.211645,0.73297 -0.51607,0.72549 -0.51607,2.16151 z"
         style="font-size:15.31757641px;fill:#333333;fill-opacity:1"
         id="path4297" />
      <path
         d="m 88.083542,118.61996 1.091976,-0.20942 q 0.09723,0.83768 0.531029,1.24905 0.433799,0.40388 1.15181,0.40388 0.718011,0 1.106934,-0.35153 0.396402,-0.35901 0.396402,-0.90499 0,-0.4712 -0.336568,-0.73297 -0.231857,-0.17951 -1.121892,-0.44876 -1.286437,-0.3964 -1.720236,-0.67314 -0.433799,-0.27673 -0.673136,-0.74045 -0.239337,-0.46371 -0.239337,-1.05457 0,-1.01719 0.650698,-1.65293 0.650698,-0.63574 1.802508,-0.63574 0.72549,0 1.271478,0.26178 0.553467,0.26177 0.84516,0.70305 0.291692,0.44128 0.403881,1.264 l -1.077017,0.1795 q -0.149586,-1.30139 -1.413585,-1.30139 -0.718011,0 -1.069538,0.29169 -0.351526,0.28421 -0.351526,0.73297 0,0.44128 0.336568,0.69557 0.20194,0.14959 1.196685,0.47868 1.368709,0.44128 1.772591,0.70305 0.403881,0.2543 0.62826,0.70305 0.224378,0.44128 0.224378,1.05458 0,1.13685 -0.72549,1.83991 -0.718012,0.70305 -1.967052,0.70305 -2.341017,0 -2.714981,-2.55792 z"
         style="font-size:15.31757641px;fill:#333333;fill-opacity:1"
         id="path4299" />
      <path
         d="m 94.784982,124.03497 0,-10.98707 1.009704,0 0,1.03214 q 0.373964,-0.64322 0.830201,-0.92743 0.456236,-0.28422 1.0471,-0.28422 0.770366,0 1.391147,0.45624 0.62078,0.45624 0.994746,1.39115 0.38144,0.92743 0.38144,2.2363 0,2.02689 -0.852636,3.12635 -0.84516,1.09197 -1.98949,1.09197 -0.508592,0 -0.94987,-0.26177 -0.441277,-0.26178 -0.762887,-0.74045 l 0,3.86679 -1.099455,0 z m 0.994745,-6.9707 q 0,1.54074 0.516071,2.27371 0.516071,0.72549 1.249041,0.72549 0.703053,0 1.234082,-0.75541 0.531029,-0.75541 0.531029,-2.33354 0,-1.55569 -0.516071,-2.30362 -0.51607,-0.74793 -1.25652,-0.74793 -0.665656,0 -1.211644,0.80777 -0.545988,0.80028 -0.545988,2.33353 z"
         style="font-size:15.31757641px;fill:#333333;fill-opacity:1"
         id="path4301" />
      <path
         d="m 101.7856,120.9909 0,-7.943 0.99475,0 0,1.20416 q 0.38144,-0.83768 0.69557,-1.10693 0.32161,-0.27674 0.71801,-0.27674 0.55347,0 1.12937,0.4338 l -0.37396,1.24904 q -0.41136,-0.29169 -0.80029,-0.29169 -0.35152,0 -0.64321,0.24682 -0.2917,0.24681 -0.41136,0.68809 -0.20942,0.77037 -0.20942,1.63797 l 0,4.15848 -1.09946,0 z"
         style="font-size:15.31757641px;fill:#333333;fill-opacity:1"
         id="path4303" />
      <path
         d="m 105.56263,117.0194 q 0,-2.05681 0.86012,-3.10391 0.8676,-1.0471 2.19143,-1.0471 1.3014,0 2.17647,1.0471 0.87508,1.0471 0.87508,3.02164 0,2.13907 -0.86012,3.18617 -0.86012,1.0471 -2.19143,1.0471 -1.30887,0 -2.18395,-1.0471 -0.8676,-1.05458 -0.8676,-3.1039 z m 1.12937,0 q 0,1.54073 0.56095,2.29614 0.56095,0.74793 1.39115,0.74793 0.77784,0 1.33131,-0.75541 0.56095,-0.76289 0.56095,-2.28866 0,-1.53326 -0.56095,-2.28118 -0.56095,-0.75541 -1.39115,-0.75541 -0.78532,0 -1.33879,0.75541 -0.55347,0.7554 -0.55347,2.28118 z"
         style="font-size:15.31757641px;fill:#333333;fill-opacity:1"
         id="path4305" />
      <path
         d="m 117.20041,120.9909 0,-1.00223 q -0.29917,0.57591 -0.77037,0.88256 -0.47119,0.29917 -1.01718,0.29917 -1.15181,0 -1.99697,-1.0845 -0.83768,-1.09197 -0.83768,-3.0665 0,-1.35375 0.37396,-2.29614 0.37397,-0.94239 0.99475,-1.39863 0.62826,-0.45624 1.39115,-0.45624 0.54598,0 1.0097,0.2917 0.47119,0.28421 0.77784,0.80028 l 0,-3.9341 1.10694,0 0,10.96463 -1.03214,0 z m -3.49283,-3.96402 q 0,1.54073 0.53103,2.28866 0.53851,0.74793 1.24904,0.74793 0.70305,0 1.21912,-0.71801 0.51608,-0.71802 0.51608,-2.169 0,-1.66788 -0.51608,-2.43077 -0.51607,-0.77036 -1.30139,-0.77036 -0.69557,0 -1.19669,0.74045 -0.50111,0.73297 -0.50111,2.3111 z"
         style="font-size:15.31757641px;fill:#333333;fill-opacity:1"
         id="path4307" />
      <path
         d="m 124.24589,120.9909 0,-1.16677 q -0.38144,0.67314 -0.89751,1.0097 -0.51607,0.33657 -1.16677,0.33657 -0.77037,0 -1.31635,-0.41136 -0.54599,-0.41884 -0.73297,-1.05458 -0.17951,-0.63574 -0.17951,-1.73519 l 0,-4.92137 1.09946,0 0,4.4053 q 0,1.2266 0.11967,1.64544 0.12714,0.41136 0.45623,0.66566 0.33657,0.24681 0.76289,0.24681 0.7928,0 1.3014,-0.6507 0.43379,-0.56094 0.43379,-2.0568 l 0,-4.25571 1.10694,0 0,7.943 -0.98727,0 z"
         style="font-size:15.31757641px;fill:#333333;fill-opacity:1"
         id="path4309" />
      <path
         d="m 131.2465,118.08146 1.0845,0.17202 q -0.18698,1.42106 -0.94239,2.16899 -0.74793,0.74793 -1.80251,0.74793 -1.27896,0 -2.10916,-1.0471 -0.82272,-1.05458 -0.82272,-3.11138 0,-2.07176 0.8302,-3.10391 0.83768,-1.03962 2.14656,-1.03962 1.0097,0 1.6978,0.62826 0.69557,0.62826 0.89003,1.88478 l -1.06954,0.20194 q -0.15706,-0.80776 -0.54598,-1.20416 -0.38893,-0.40388 -0.93492,-0.40388 -0.81524,0 -1.35375,0.72549 -0.53103,0.71801 -0.53103,2.28866 0,1.62301 0.5086,2.3485 0.51607,0.72549 1.31635,0.72549 0.62826,0 1.06954,-0.47868 0.44876,-0.48615 0.56842,-1.50333 z"
         style="font-size:15.31757641px;fill:#333333;fill-opacity:1"
         id="path4311" />
      <path
         d="m 135.71912,119.78673 0.14958,1.18921 q -0.45623,0.11967 -0.82272,0.11967 -0.5759,0 -0.92743,-0.22438 -0.35153,-0.23186 -0.48615,-0.62826 -0.12715,-0.3964 -0.12715,-1.57813 l 0,-4.56984 -0.80776,0 0,-1.0471 0.80776,0 0,-1.96705 1.09945,-0.80777 0,2.77482 1.11442,0 0,1.0471 -1.11442,0 0,4.64463 q 0,0.64322 0.0972,0.8302 0.14211,0.26926 0.53103,0.26926 0.18699,0 0.48616,-0.0524 z"
         style="font-size:15.31757641px;fill:#333333;fill-opacity:1"
         id="path4313" />
      <path
         d="m 141.21639,118.43298 1.13685,0.17203 q -0.28421,1.27147 -1.03214,1.92217 -0.74045,0.64322 -1.8399,0.64322 -1.38367,0 -2.24379,-1.0471 -0.85264,-1.05458 -0.85264,-3.03659 0,-2.0568 0.86012,-3.13382 0.8676,-1.0845 2.19143,-1.0845 1.264,0 2.10916,1.06206 0.84516,1.06206 0.84516,3.07399 l -0.007,0.359 -4.86154,0 q 0.0673,1.3388 0.62079,2.01941 0.55346,0.68062 1.34627,0.68062 1.24156,0 1.72771,-1.63049 z m -3.62745,-2.17647 3.63493,0 q -0.0748,-1.03214 -0.44128,-1.54073 -0.53103,-0.74045 -1.35375,-0.74045 -0.74045,0 -1.264,0.62078 -0.52355,0.6133 -0.5759,1.6604 z"
         style="font-size:15.31757641px;fill:#333333;fill-opacity:1"
         id="path4315" />
      <path
         d="m 143.75935,120.9909 0,-7.943 0.99474,0 0,1.12937 q 0.35901,-0.65818 0.87508,-0.97979 0.52355,-0.32909 1.19668,-0.32909 0.52355,0 0.96483,0.20942 0.44876,0.20194 0.71801,0.53851 0.27674,0.32909 0.41136,0.86012 0.13463,0.53103 0.13463,1.63048 l 0,4.88398 -1.10693,0 0,-4.83162 q 0,-0.87508 -0.14959,-1.27896 -0.14958,-0.40388 -0.47119,-0.62078 -0.31413,-0.22438 -0.73297,-0.22438 -0.79281,0 -1.264,0.59087 -0.4712,0.59086 -0.4712,2.02688 l 0,4.33799 -1.09945,0 z"
         style="font-size:15.31757641px;fill:#333333;fill-opacity:1"
         id="path4317" />
      <path
         d="m 158.48606,120.9909 0,-1.00223 q -0.29917,0.57591 -0.77037,0.88256 -0.47119,0.29917 -1.01718,0.29917 -1.15181,0 -1.99697,-1.0845 -0.83768,-1.09197 -0.83768,-3.0665 0,-1.35375 0.37397,-2.29614 0.37396,-0.94239 0.99474,-1.39863 0.62826,-0.45624 1.39115,-0.45624 0.54599,0 1.0097,0.2917 0.4712,0.28421 0.77785,0.80028 l 0,-3.9341 1.10693,0 0,10.96463 -1.03214,0 z m -3.49283,-3.96402 q 0,1.54073 0.53103,2.28866 0.53851,0.74793 1.24904,0.74793 0.70306,0 1.21913,-0.71801 0.51607,-0.71802 0.51607,-2.169 0,-1.66788 -0.51607,-2.43077 -0.51607,-0.77036 -1.3014,-0.77036 -0.69557,0 -1.19668,0.74045 -0.50112,0.73297 -0.50112,2.3111 z"
         style="font-size:15.31757641px;fill:#333333;fill-opacity:1"
         id="path4319" />
      <path
         d="m 165.50911,120.01111 q -0.55347,0.57591 -1.15181,0.8676 -0.59835,0.29169 -1.24156,0.29169 -1.01719,0 -1.62301,-0.6133 -0.60582,-0.6133 -0.60582,-1.65292 0,-0.6881 0.28421,-1.21913 0.28421,-0.53103 0.77785,-0.8302 0.49363,-0.29917 1.49585,-0.44127 1.34628,-0.19447 1.97454,-0.46372 l 0.007,-0.34405 q 0,-0.81524 -0.2917,-1.14433 -0.41136,-0.47867 -1.264,-0.47867 -0.77036,0 -1.15181,0.32161 -0.38144,0.31413 -0.56094,1.1892 l -1.0845,-0.1795 q 0.23186,-1.27896 0.93491,-1.86234 0.71053,-0.58339 2.02689,-0.58339 1.02466,0 1.60804,0.38893 0.58339,0.38144 0.73297,0.94987 0.15707,0.56842 0.15707,1.6604 l 0,1.79503 q 0,1.88478 0.0673,2.37841 0.0748,0.48615 0.28422,0.94987 l -1.15181,0 q -0.17203,-0.41136 -0.22438,-0.97979 z m -0.0897,-3.00667 q -0.60583,0.29917 -1.80251,0.50859 -0.69558,0.11967 -0.97231,0.27673 -0.27673,0.14959 -0.4338,0.4338 -0.14958,0.27674 -0.14958,0.64322 0,0.56843 0.35152,0.91247 0.35153,0.33657 0.97231,0.33657 0.59086,0 1.06954,-0.30665 0.48615,-0.30665 0.72549,-0.81524 0.23934,-0.51607 0.23934,-1.49586 l 0,-0.49363 z"
         style="font-size:15.31757641px;fill:#333333;fill-opacity:1"
         id="path4321" />
      <path
         d="m 170.72217,119.78673 0.14958,1.18921 q -0.45623,0.11967 -0.82272,0.11967 -0.5759,0 -0.92743,-0.22438 -0.35152,-0.23186 -0.48615,-0.62826 -0.12715,-0.3964 -0.12715,-1.57813 l 0,-4.56984 -0.80776,0 0,-1.0471 0.80776,0 0,-1.96705 1.09946,-0.80777 0,2.77482 1.11441,0 0,1.0471 -1.11441,0 0,4.64463 q 0,0.64322 0.0972,0.8302 0.1421,0.26926 0.53103,0.26926 0.18698,0 0.48615,-0.0524 z"
         style="font-size:15.31757641px;fill:#333333;fill-opacity:1"
         id="path4323" />
      <path
         d="m 176.01002,120.01111 q -0.55346,0.57591 -1.15181,0.8676 -0.59834,0.29169 -1.24156,0.29169 -1.01718,0 -1.623,-0.6133 -0.60583,-0.6133 -0.60583,-1.65292 0,-0.6881 0.28422,-1.21913 0.28421,-0.53103 0.77784,-0.8302 0.49364,-0.29917 1.49586,-0.44127 1.34627,-0.19447 1.97453,-0.46372 l 0.007,-0.34405 q 0,-0.81524 -0.29169,-1.14433 -0.41136,-0.47867 -1.264,-0.47867 -0.77037,0 -1.15181,0.32161 -0.38144,0.31413 -0.56095,1.1892 l -1.08449,-0.1795 q 0.23185,-1.27896 0.93491,-1.86234 0.71053,-0.58339 2.02688,-0.58339 1.02467,0 1.60805,0.38893 0.58338,0.38144 0.73297,0.94987 0.15707,0.56842 0.15707,1.6604 l 0,1.79503 q 0,1.88478 0.0673,2.37841 0.0748,0.48615 0.28421,0.94987 l -1.15181,0 q -0.17202,-0.41136 -0.22438,-0.97979 z m -0.0898,-3.00667 q -0.60582,0.29917 -1.80251,0.50859 -0.69557,0.11967 -0.9723,0.27673 -0.27674,0.14959 -0.4338,0.4338 -0.14959,0.27674 -0.14959,0.64322 0,0.56843 0.35153,0.91247 0.35153,0.33657 0.97231,0.33657 0.59086,0 1.06953,-0.30665 0.48616,-0.30665 0.72549,-0.81524 0.23934,-0.51607 0.23934,-1.49586 l 0,-0.49363 z"
         style="font-size:15.31757641px;fill:#333333;fill-opacity:1"
         id="path4325" />
      <path
         d="m 179.77958,120.9909 -1.02466,0 0,-10.96463 1.09946,0 0,3.91166 q 0.35152,-0.53851 0.7928,-0.80028 0.44876,-0.26926 0.99474,-0.26926 0.76289,0 1.38367,0.45624 0.62826,0.45624 1.00223,1.38367 0.37396,0.92743 0.37396,2.25126 0,2.01941 -0.84516,3.11887 -0.84516,1.09197 -1.97453,1.09197 -0.56843,0 -1.02466,-0.29169 -0.44876,-0.29917 -0.77785,-0.88256 l 0,0.99475 z m -0.015,-4.03134 q 0,1.23409 0.22438,1.84739 0.22438,0.6133 0.63574,0.93491 0.41136,0.32161 0.91247,0.32161 0.68062,0 1.20417,-0.76289 0.53103,-0.77037 0.53103,-2.29614 0,-1.56317 -0.50859,-2.29614 -0.50859,-0.73297 -1.24904,-0.73297 -0.68062,0 -1.21913,0.77036 -0.53103,0.76289 -0.53103,2.21387 z"
         style="font-size:15.31757641px;fill:#333333;fill-opacity:1"
         id="path4327" />
      <path
         d="m 190.01124,120.01111 q -0.55346,0.57591 -1.15181,0.8676 -0.59834,0.29169 -1.24156,0.29169 -1.01718,0 -1.623,-0.6133 -0.60582,-0.6133 -0.60582,-1.65292 0,-0.6881 0.28421,-1.21913 0.28421,-0.53103 0.77784,-0.8302 0.49364,-0.29917 1.49586,-0.44127 1.34627,-0.19447 1.97453,-0.46372 l 0.007,-0.34405 q 0,-0.81524 -0.29169,-1.14433 -0.41136,-0.47867 -1.264,-0.47867 -0.77037,0 -1.15181,0.32161 -0.38144,0.31413 -0.56095,1.1892 l -1.08449,-0.1795 q 0.23186,-1.27896 0.93491,-1.86234 0.71053,-0.58339 2.02688,-0.58339 1.02467,0 1.60805,0.38893 0.58339,0.38144 0.73297,0.94987 0.15707,0.56842 0.15707,1.6604 l 0,1.79503 q 0,1.88478 0.0673,2.37841 0.0748,0.48615 0.28421,0.94987 l -1.15181,0 q -0.17202,-0.41136 -0.22438,-0.97979 z m -0.0897,-3.00667 q -0.60582,0.29917 -1.80251,0.50859 -0.69557,0.11967 -0.9723,0.27673 -0.27674,0.14959 -0.4338,0.4338 -0.14959,0.27674 -0.14959,0.64322 0,0.56843 0.35153,0.91247 0.35153,0.33657 0.97231,0.33657 0.59086,0 1.06953,-0.30665 0.48616,-0.30665 0.7255,-0.81524 0.23933,-0.51607 0.23933,-1.49586 l 0,-0.49363 z"
         style="font-size:15.31757641px;fill:#333333;fill-opacity:1"
         id="path4329" />
      <path
         d="m 192.34478,118.61996 1.09198,-0.20942 q 0.0972,0.83768 0.53103,1.24905 0.43379,0.40388 1.15181,0.40388 0.71801,0 1.10693,-0.35153 0.3964,-0.35901 0.3964,-0.90499 0,-0.4712 -0.33657,-0.73297 -0.23185,-0.17951 -1.12189,-0.44876 -1.28644,-0.3964 -1.72023,-0.67314 -0.4338,-0.27673 -0.67314,-0.74045 -0.23934,-0.46371 -0.23934,-1.05457 0,-1.01719 0.6507,-1.65293 0.6507,-0.63574 1.80251,-0.63574 0.72549,0 1.27148,0.26178 0.55346,0.26177 0.84516,0.70305 0.29169,0.44128 0.40388,1.264 l -1.07702,0.1795 q -0.14959,-1.30139 -1.41358,-1.30139 -0.71802,0 -1.06954,0.29169 -0.35153,0.28421 -0.35153,0.73297 0,0.44128 0.33657,0.69557 0.20194,0.14959 1.19668,0.47868 1.36871,0.44128 1.77259,0.70305 0.40389,0.2543 0.62826,0.70305 0.22438,0.44128 0.22438,1.05458 0,1.13685 -0.72549,1.83991 -0.71801,0.70305 -1.96705,0.70305 -2.34102,0 -2.71498,-2.55792 z"
         style="font-size:15.31757641px;fill:#333333;fill-opacity:1"
         id="path4331" />
      <path
         d="m 203.50388,118.43298 1.13685,0.17203 q -0.28421,1.27147 -1.03214,1.92217 -0.74045,0.64322 -1.8399,0.64322 -1.38367,0 -2.24379,-1.0471 -0.85264,-1.05458 -0.85264,-3.03659 0,-2.0568 0.86012,-3.13382 0.8676,-1.0845 2.19143,-1.0845 1.264,0 2.10916,1.06206 0.84516,1.06206 0.84516,3.07399 l -0.007,0.359 -4.86153,0 q 0.0673,1.3388 0.62078,2.01941 0.55346,0.68062 1.34627,0.68062 1.24156,0 1.72771,-1.63049 z m -3.62745,-2.17647 3.63493,0 q -0.0748,-1.03214 -0.44128,-1.54073 -0.53103,-0.74045 -1.35375,-0.74045 -0.74045,0 -1.264,0.62078 -0.52355,0.6133 -0.5759,1.6604 z"
         style="font-size:15.31757641px;fill:#333333;fill-opacity:1"
         id="path4333" />
    </g>
    <rect
       id="rect3719"
       width="5"
       height="5"
       x="110"
       y="0"
       style="fill:none"
       inkscape:export-filename="C:\Users\Stéphane\Desktop\Blogs\OpenFoodFacts\test-178.png"
       inkscape:export-xdpi="90"
       inkscape:export-ydpi="90" />
    <rect
       inkscape:export-ydpi="90"
       inkscape:export-xdpi="90"
       inkscape:export-filename="C:\Users\Stéphane\Desktop\Blogs\OpenFoodFacts\test-178.png"
       style="fill:none"
       y="0"
       x="110"
       height="5"
       width="5"
       id="rect3723" />
    <rect
       style="fill:none"
       id="rect3725"
       width="1"
       height="1"
       x="1"
       y="140"
       inkscape:export-filename="C:\Users\Stéphane\Desktop\Blogs\OpenFoodFacts\test-178.png"
       inkscape:export-xdpi="90"
       inkscape:export-ydpi="90" />
  </g>
</svg>
