<?xml version="1.0" encoding="UTF-8" standalone="no"?>
<!-- Created with Inkscape (http://www.inkscape.org/) -->

<svg
   xmlns:dc="http://purl.org/dc/elements/1.1/"
   xmlns:cc="http://creativecommons.org/ns#"
   xmlns:rdf="http://www.w3.org/1999/02/22-rdf-syntax-ns#"
   xmlns:svg="http://www.w3.org/2000/svg"
   xmlns="http://www.w3.org/2000/svg"
   xmlns:sodipodi="http://sodipodi.sourceforge.net/DTD/sodipodi-0.dtd"
   xmlns:inkscape="http://www.inkscape.org/namespaces/inkscape"
   width="178"
   height="150"
   id="svg8313"
   version="1.1"
   inkscape:version="0.91 r13725"
   sodipodi:docname="openbeautyfacts-logo-it.svg"
   inkscape:export-filename="C:\Users\Stéphane\Desktop\Blogs\OpenBeautyFacts\openbeautyfacts-logo-en-178x150.png"
   inkscape:export-xdpi="90"
   inkscape:export-ydpi="90">
  <defs
     id="defs8315" />
  <sodipodi:namedview
     id="base"
     pagecolor="#ffffff"
     bordercolor="#666666"
     borderopacity="1.0"
     inkscape:pageopacity="0.0"
     inkscape:pageshadow="2"
     inkscape:zoom="2.1114127"
     inkscape:cx="155.9015"
     inkscape:cy="66.612284"
     inkscape:document-units="px"
     inkscape:current-layer="text3715-8"
     showgrid="false"
     inkscape:window-width="1405"
     inkscape:window-height="855"
     inkscape:window-x="35"
     inkscape:window-y="1"
     inkscape:window-maximized="1"
     inkscape:snap-global="true">
    <inkscape:grid
       type="xygrid"
       id="grid8566" />
  </sodipodi:namedview>
  <metadata
     id="metadata8318">
    <rdf:RDF>
      <cc:Work
         rdf:about="">
        <dc:format>image/svg+xml</dc:format>
        <dc:type
           rdf:resource="http://purl.org/dc/dcmitype/StillImage" />
        <dc:title></dc:title>
      </cc:Work>
    </rdf:RDF>
  </metadata>
  <g
     inkscape:label="Calque 1"
     inkscape:groupmode="layer"
     id="layer1">
    <g
       transform="scale(0.90339875,1.1069309)"
       style="font-style:normal;font-variant:normal;font-weight:normal;font-stretch:normal;font-size:41.98085785px;line-height:125%;font-family:'Arial Narrow';-inkscape-font-specification:'Arial Narrow';letter-spacing:0px;word-spacing:0px;fill:#333333;fill-opacity:1;stroke:none"
       id="text3715-8">
      <text
         xml:space="preserve"
         style="font-style:normal;font-weight:normal;font-size:15.37500007px;line-height:80.00000119%;font-family:sans-serif;letter-spacing:0px;word-spacing:0px;fill:#000000;fill-opacity:1;stroke:none;stroke-width:1px;stroke-linecap:butt;stroke-linejoin:miter;stroke-opacity:1;"
         x="0.63577318"
         y="140.57915"
         id="text4214"
         sodipodi:linespacing="80.000001%"
         transform="scale(1.1069309,0.90339876)"><tspan
           sodipodi:role="line"
           id="tspan4216"
           x="0.63577318"
           y="140.57915"
           style="font-style:normal;font-variant:normal;font-weight:normal;font-stretch:condensed;font-size:15.37500007px;line-height:80.00000119%;font-family:'Arial Narrow';-inkscape-font-specification:'Arial Narrow, Condensed';text-align:start;writing-mode:lr-tb;text-anchor:start;">Il database aperto dei cosmetici</tspan></text>
    </g>
    <rect
       style="fill:none"
       id="rect3725"
       width="1"
       height="1"
       x="1"
       y="140"
       inkscape:export-filename="C:\Users\Stéphane\Desktop\Blogs\OpenFoodFacts\test-178.png"
       inkscape:export-xdpi="90"
       inkscape:export-ydpi="90" />
    <g
       id="g6033"
       transform="translate(65.7422,151.15413)">
      <path
         style="fill:#0066ff;fill-opacity:1;fill-rule:nonzero;stroke:none"
         d="m 108.2578,-134.15413 0,1.25 0,29.34375 0,47.40625 1,0 0,-78 z m 2,0 0,78 2,0 0,-78 z m -3,37 c -3,10 -3,8.06339 -3,23 l 0,18 3,0 z"
         id="path12151"
         inkscape:connector-curvature="0"
         sodipodi:nodetypes="ccccccccccccccccc"
         inkscape:export-filename="C:\Users\Stéphane\Desktop\Blogs\OpenBeautyFacts\openbeautyfacts-logo-fr.png"
         inkscape:export-xdpi="89.999992"
         inkscape:export-ydpi="89.999992" />
      <path
         style="fill:#00ccff;fill-opacity:1;fill-rule:evenodd;stroke:none"
         d="m 84.2578,-120.15413 4,55.65217 0,8.34783 3,0 0,-64 -3,0 z m 8,0 0,64 4,0 0,-64 z m 5,0 0,64 1,0 0,-64 z m 2,0 0,64 2,0 0,-8.34783 4,-55.65217 -4,0 z"
         id="path12155"
         inkscape:connector-curvature="0"
         sodipodi:nodetypes="cccccccccccccccccccccccc"
         inkscape:export-filename="C:\Users\Stéphane\Desktop\Blogs\OpenBeautyFacts\openbeautyfacts-logo-fr.png"
         inkscape:export-xdpi="89.999992"
         inkscape:export-ydpi="89.999992" />
      <path
         inkscape:connector-curvature="0"
         style="fill:#00d400;fill-opacity:1;fill-rule:evenodd;stroke:none"
         d="m 44.2578,-113.15413 0,57 1,0 0,-57 -1,0 z m 2,0 0,57 1,0 0,-57 -1,0 z m 4,0 0,57 2,0 0,-57 -2,0 z m 5,0 0,57 1,0 0,-57 -1,0 z m 4,0 0,57 1,0 0,-57 -1,0 z m 4,0 0,57 2,0 0,-57 -2,0 z m 3,0 0,57 2,0 0,-57 -2,0 z m 3,0 0,57 3,0 0,-56.4375 c -0.33707,-0.16585 -0.68515,-0.31888 -1.03125,-0.46875 0.002,-0.0306 -0.002,-0.0632 0,-0.0937 l -1.96875,0 z m -26,0.0937 c -0.33724,0.14652 -0.67134,0.30704 -1,0.46875 l 0,56.4375 1,0 0,-56.90625 z m -4,2.25 c -0.69601,0.48378 -1.36246,1.00762 -2,1.5625 l 0,53.09375 2,0 0,-54.65625 z m 36,0 0,54.65625 1,0 0,-53.9375 c -0.32365,-0.25126 -0.66298,-0.4845 -1,-0.71875 z m 2,1.5625 0,53.09375 2,0 0,-51.125 c -0.62899,-0.69721 -1.29148,-1.3521 -2,-1.96875 z m -43,3.125 c -0.35282,0.44603 -0.68007,0.90323 -1,1.375 l 0,48.59375 1,0 0,-49.96875 z m 46,0 0,49.96875 3,0 0,-44.96875 c -0.79731,-1.79981 -1.79497,-3.47659 -3,-5 z m 4,7.6875 0,42.28125 1,0 0,-35.5 c 0,-2.35858 -0.35465,-4.63934 -1,-6.78125 z m -54.03125,0.0625 c -0.5928,1.98873 -0.92874,4.10406 -0.96875,6.28125 -0.003,0.14674 0,0.29008 0,0.4375 l 0.0312,35.5 0.96875,0 -0.0312,-42.21875 z"
         id="path12157"
         inkscape:export-filename="C:\Users\Stéphane\Desktop\Blogs\OpenBeautyFacts\openbeautyfacts-logo-fr.png"
         inkscape:export-xdpi="89.999992"
         inkscape:export-ydpi="89.999992" />
      <text
         inkscape:export-ydpi="89.999992"
         inkscape:export-xdpi="89.999992"
         inkscape:export-filename="C:\Users\Stéphane\Desktop\Blogs\OpenBeautyFacts\openbeautyfacts-logo-fr.png"
         xml:space="preserve"
         style="font-style:normal;font-variant:normal;font-weight:normal;font-stretch:normal;font-size:31.59649849px;line-height:125%;font-family:'Arial Narrow';-inkscape-font-specification:'Arial Narrow';letter-spacing:0px;word-spacing:0px;fill:#333333;fill-opacity:1;stroke:none"
         x="-71.390884"
         y="-33.571266"
         id="text12163"
         sodipodi:linespacing="125%"
         transform="scale(0.92864418,1.0768387)"><tspan
           style="font-size:22.05091286px;fill:#333333;fill-opacity:1"
           sodipodi:role="line"
           id="tspan12165"
           x="-71.390884"
           y="-33.571266">OPEN BEAUTY FACTS</tspan></text>
      <path
         style="fill:#ff0000;fill-opacity:1;fill-rule:evenodd;stroke:none"
         d="m -53.31795,-147.90413 c -3.13312,-0.0516 -5.63149,3.14302 -6.42425,12.75 l 0,22.71875 22,0 0,-22.71875 c -3.44249,-3.55006 -10.3539,-12.66396 -15.57575,-12.75 z"
         id="path12167"
         inkscape:connector-curvature="0"
         inkscape:export-filename="C:\Users\Stéphane\Desktop\Blogs\OpenBeautyFacts\openbeautyfacts-logo-fr.png"
         inkscape:export-xdpi="89.999992"
         inkscape:export-ydpi="89.999992" />
      <path
         style="fill:#ff0000;fill-opacity:1;fill-rule:nonzero;stroke:none"
         d="m -46.7422,-117.97846 0,61.82433 2,0 0,-61.82433 -2,0 z m -4,0.82433 0,61 3,0 0,-61 -3,0 z m -15,4.12162 0,56.87838 2,0 0,-56.87838 -2,0 z m 3,0 0,56.87838 1,0 0,-56.87838 -1,0 z m 5,0 0,56.87838 1,0 0,-56.87838 -1,0 z m 3,0 0,56.87838 1,0 0,-56.87838 -1,0 z m 11,0 0,56.87838 3,0 0,-56.87838 -3,0 z m 4,0 0,56.87838 3,0 0,-56.87838 -3,0 z m 4,0 0,56.87838 2,0 0,-56.87838 -2,0 z m 3,0 0,56.87838 1,0 0,-56.87838 -1,0 z"
         id="path12169"
         inkscape:connector-curvature="0"
         inkscape:export-filename="C:\Users\Stéphane\Desktop\Blogs\OpenBeautyFacts\openbeautyfacts-logo-fr.png"
         inkscape:export-xdpi="89.999992"
         inkscape:export-ydpi="89.999992" />
      <path
         style="fill:#ffcc00;fill-opacity:1;fill-rule:nonzero;stroke:none"
         d="m -28.7422,-100.15413 0,44 2,0 0,-44 -2,0 z m 3,0 0,44 1,0 0,-44 -1,0 z m 4,0 0,44 1,0 0,-44 -1,0 z m 2,0 0,44 3,0 0,-44 -3,0 z m 6,0 0,44 2,0 0,-44 -2,0 z m 3,0 0,44 1,0 0,-44 -1,0 z m 4,0 0.0312,44 1.9688,0 -0.0312,-44 -1.9688,0 z m 5,0 0,44 1,0 0,-44 -1,0 z m 2,0 0,44 1,0 0,-44 -1,0 z m 4,0 0,44 3,0 0,-44 -3,0 z m 4,0 0,44 2,0 0,-44 -2,0 z m 3,0 0,44 1,0 0,-44 -1,0 z m 4,0 0,44 3,0 0,-44 -3,0 z m 4,0 0,44 2,0 0,-44 -2,0 z m 3,0 0,44 1,0 0,-44 -1,0 z m 2,0 0,44 2,0 0,-44 -2,0 z"
         id="path12171"
         inkscape:connector-curvature="0"
         inkscape:export-filename="C:\Users\Stéphane\Desktop\Blogs\OpenBeautyFacts\openbeautyfacts-logo-fr.png"
         inkscape:export-xdpi="89.999992"
         inkscape:export-ydpi="89.999992" />
      <circle
         r="0.94885141"
         cy="-115.87777"
         cx="93.350121"
         id="path12173"
         style="fill:#00ccff;fill-opacity:1;stroke:none"
         inkscape:export-filename="C:\Users\Stéphane\Desktop\Blogs\OpenBeautyFacts\openbeautyfacts-logo-fr.png"
         inkscape:export-xdpi="89.999992"
         inkscape:export-ydpi="89.999992" />
      <path
         inkscape:connector-curvature="0"
         style="fill:#0066ff;fill-opacity:1;fill-rule:nonzero;stroke:none"
         d="m 104.25784,-33.15413 0,5 c 2.66569,0 5.33424,0 7.99992,0 l 0,-5 c -2.66568,0 -5.33423,0 -7.99983,0 z"
         id="path12175"
         inkscape:export-filename="C:\Users\Stéphane\Desktop\Blogs\OpenBeautyFacts\openbeautyfacts-logo-fr.png"
         inkscape:export-xdpi="89.999992"
         inkscape:export-ydpi="89.999992"
         sodipodi:nodetypes="cccccc" />
      <path
         inkscape:connector-curvature="0"
         style="fill:#00ccff;fill-opacity:1;fill-rule:nonzero;stroke:none"
         d="m 88.25781,-33.15413 0,5 c 4.33407,0 8.6659,0 12.99997,0 l 0,-5 c -4.33407,0 -8.6659,0 -12.99997,0 z"
         id="path12177"
         inkscape:export-filename="C:\Users\Stéphane\Desktop\Blogs\OpenBeautyFacts\openbeautyfacts-logo-fr.png"
         inkscape:export-xdpi="89.999992"
         inkscape:export-ydpi="89.999992"
         sodipodi:nodetypes="ccccc" />
      <path
         inkscape:connector-curvature="0"
         style="fill:#00d400;fill-opacity:1;fill-rule:nonzero;stroke:none"
         d="m 29.2578,-33.15413 0,5 c 18.6596,0 37.34041,0 56.00004,0 l 0,-5 c -18.65963,0 -37.34044,0 -56.00004,0 z"
         id="path12179"
         inkscape:export-filename="C:\Users\Stéphane\Desktop\Blogs\OpenBeautyFacts\openbeautyfacts-logo-fr.png"
         inkscape:export-xdpi="89.999992"
         inkscape:export-ydpi="89.999992"
         sodipodi:nodetypes="ccccc" />
      <path
         inkscape:connector-curvature="0"
         style="fill:#ffcc00;fill-opacity:1;fill-rule:nonzero;stroke:none"
         d="m -28.7422,-33.15413 0,5 c 18.33338,0 36.66662,0 55,0 l 0,-5 c -18.33338,0 -36.66662,0 -55,0 z"
         id="path12181"
         inkscape:export-filename="C:\Users\Stéphane\Desktop\Blogs\OpenBeautyFacts\openbeautyfacts-logo-fr.png"
         inkscape:export-xdpi="89.999992"
         inkscape:export-ydpi="89.999992"
         sodipodi:nodetypes="ccccc" />
      <path
         inkscape:connector-curvature="0"
         style="fill:#ff0000;fill-opacity:1;fill-rule:nonzero;stroke:none"
         d="m -65.7422,-33.15413 0,5 c 11.33371,0 22.6663,0 34,0 l 0,-5 c -11.3337,0 -22.66629,0 -34,0 z"
         id="path12183"
         inkscape:export-filename="C:\Users\Stéphane\Desktop\Blogs\OpenBeautyFacts\openbeautyfacts-logo-fr.png"
         inkscape:export-xdpi="89.999992"
         inkscape:export-ydpi="89.999992"
         sodipodi:nodetypes="ccccc" />
      <rect
         style="fill:#ff0000;fill-opacity:1;fill-rule:evenodd;stroke:none"
         id="rect12187"
         width="1"
         height="3"
         x="-62.74226"
         y="-115.43538"
         inkscape:export-filename="C:\Users\Stéphane\Desktop\Blogs\OpenBeautyFacts\openbeautyfacts-logo-fr.png"
         inkscape:export-xdpi="89.999992"
         inkscape:export-ydpi="89.999992" />
      <path
         style="fill:#ff0000;fill-opacity:1;fill-rule:evenodd;stroke:none"
         d="m -62.7422,-117.15413 14,0 14,0 0,5 -14,0 -14,0 z"
         id="path12191"
         inkscape:connector-curvature="0"
         sodipodi:nodetypes="ccccccc"
         inkscape:export-filename="C:\Users\Stéphane\Desktop\Blogs\OpenBeautyFacts\openbeautyfacts-logo-fr.png"
         inkscape:export-xdpi="89.999992"
         inkscape:export-ydpi="89.999992" />
      <path
         sodipodi:nodetypes="ccccccc"
         inkscape:connector-curvature="0"
         id="path12195"
         d="m -65.7422,-113.15413 17,0 17,0 0,1 -17,0 -17,0 z"
         style="fill:#ff0000;fill-opacity:1;fill-rule:evenodd;stroke:none"
         inkscape:export-filename="C:\Users\Stéphane\Desktop\Blogs\OpenBeautyFacts\openbeautyfacts-logo-fr.png"
         inkscape:export-xdpi="89.999992"
         inkscape:export-ydpi="89.999992" />
      <path
         inkscape:export-ydpi="89.999992"
         inkscape:export-xdpi="89.999992"
         inkscape:export-filename="C:\Users\Stéphane\Desktop\Blogs\OpenBeautyFacts\openbeautyfacts-logo-fr.png"
         id="rect12197"
         d="m -54.7422,-147.65413 c -0.71672,0.26072 -1.39729,0.73547 -2,1.5 l 0,29 2,0 0,-30.5 z"
         style="fill:#ffffff;fill-opacity:1;fill-rule:evenodd;stroke:none"
         inkscape:connector-curvature="0" />
      <path
         sodipodi:nodetypes="ssccsss"
         style="fill:#ffcc00;fill-opacity:1;fill-rule:evenodd;stroke:none"
         d="m -20.4922,-120.15413 c -4.5705,0 -8.25,3.6795 -8.25,8.25 l 0,10.75 55,0 0,-10.75 c 0,-4.5705 -3.6795,-8.25 -8.25,-8.25 z"
         id="path12199"
         inkscape:connector-curvature="0"
         inkscape:export-filename="C:\Users\Stéphane\Desktop\Blogs\OpenBeautyFacts\openbeautyfacts-logo-fr.png"
         inkscape:export-xdpi="89.999992"
         inkscape:export-ydpi="89.999992" />
      <path
         inkscape:connector-curvature="0"
         style="fill:#00d400;fill-opacity:1;fill-rule:evenodd;stroke:none"
         d="m 62.60155,-148.09163 c -1.78342,0.0471 -3.79985,0.24743 -5.34375,0.4375 -6.36567,0.78364 -4.65625,-0.0104 -18.65625,4.65625 -1.47573,0.49191 -1.39133,5.38317 0,4.6875 4.38351,-2.19176 9.78935,-2.31915 14.78125,-1.84375 -0.4951,1.01323 -0.78125,2.24737 -0.78125,3.5625 l 0,3.65625 c -1.91045,0.86858 -3.4453,2.46044 -4.1875,4.4375 -3.01974,1.13363 -5.15625,4.04346 -5.15625,7.46875 l 0,6.875 28,0 0,-6.875 c 0,-3.42529 -2.13651,-6.33512 -5.15625,-7.46875 -0.7422,-1.97706 -2.27705,-3.56892 -4.1875,-4.4375 l 0,-3.65625 c 0,-0.83218 -0.13356,-1.64737 -0.34375,-2.375 2.11458,0.36458 3.86458,0.65625 5.03125,0.65625 3.1111,0 2.6943,-7.78819 0,-9.34375 -0.65577,-0.37861 -2.21658,-0.48464 -4,-0.4375 z"
         id="path12201"
         inkscape:export-filename="C:\Users\Stéphane\Desktop\Blogs\OpenBeautyFacts\openbeautyfacts-logo-fr.png"
         inkscape:export-xdpi="89.999992"
         inkscape:export-ydpi="89.999992" />
      <rect
         inkscape:export-ydpi="89.999992"
         inkscape:export-xdpi="89.999992"
         inkscape:export-filename="C:\Users\Stéphane\Desktop\Blogs\OpenBeautyFacts\openbeautyfacts-logo-fr.png"
         style="fill:none"
         y="-151.15413"
         x="44.25774"
         height="5"
         width="5"
         id="rect12203" />
      <rect
         id="rect12205"
         width="5"
         height="5"
         x="44.25774"
         y="-151.15413"
         style="fill:none"
         inkscape:export-filename="C:\Users\Stéphane\Desktop\Blogs\OpenBeautyFacts\openbeautyfacts-logo-fr.png"
         inkscape:export-xdpi="89.999992"
         inkscape:export-ydpi="89.999992" />
      <path
         inkscape:export-ydpi="89.999992"
         inkscape:export-xdpi="89.999992"
         inkscape:export-filename="C:\Users\Stéphane\Desktop\Blogs\OpenBeautyFacts\openbeautyfacts-logo-fr.png"
         id="rect12207"
         d="m 109.2578,-148.15413 c -0.554,0 -1,0.446 -1,1 l 0,3 c 0,0.554 0.446,1 1,1 l 0,-4 1,0 0,4 1,0 c 0.554,0 1,-0.446 1,-1 l 0,-3 c 0,-0.554 -0.446,-1 -1,-1 l -2,0 z"
         style="fill:#0066ff;fill-opacity:1;fill-rule:evenodd;stroke:none"
         inkscape:connector-curvature="0" />
      <g
         id="g12209"
         transform="matrix(1.1666667,0,0,1,522.59113,-120.15413)"
         style="fill:#0066ff;fill-opacity:1"
         inkscape:export-filename="C:\Users\Stéphane\Desktop\Blogs\OpenBeautyFacts\openbeautyfacts-logo-fr.png"
         inkscape:export-xdpi="89.999992"
         inkscape:export-ydpi="89.999992">
        <path
           sodipodi:nodetypes="ccccc"
           inkscape:connector-curvature="0"
           id="path12211"
           d="m -362,-27 6,0 0,1 -6,0 z"
           style="fill:#0066ff;fill-opacity:1;fill-rule:evenodd;stroke:none" />
        <path
           style="fill:#0066ff;fill-opacity:1;fill-rule:evenodd;stroke:none"
           d="m -362,-25 6,0 0,1 -6,0 z"
           id="path12213"
           inkscape:connector-curvature="0"
           sodipodi:nodetypes="ccccc" />
        <path
           sodipodi:nodetypes="ccccc"
           inkscape:connector-curvature="0"
           id="path12215"
           d="m -362,-23 6,0 0,1 -6,0 z"
           style="fill:#0066ff;fill-opacity:1;fill-rule:evenodd;stroke:none" />
        <path
           style="fill:#0066ff;fill-opacity:1;fill-rule:evenodd;stroke:none"
           d="m -362,-21 6,0 0,1 -6,0 z"
           id="path12217"
           inkscape:connector-curvature="0"
           sodipodi:nodetypes="ccccc" />
        <path
           sodipodi:nodetypes="ccccc"
           inkscape:connector-curvature="0"
           id="path12219"
           d="m -362,-19 6,0 0,1 -6,0 z"
           style="fill:#0066ff;fill-opacity:1;fill-rule:evenodd;stroke:none" />
        <path
           style="fill:#0066ff;fill-opacity:1;fill-rule:evenodd;stroke:none"
           d="m -362,-17 6,0 0,1 -6,0 z"
           id="path12221"
           inkscape:connector-curvature="0"
           sodipodi:nodetypes="ccccc" />
        <path
           sodipodi:nodetypes="ccccc"
           inkscape:connector-curvature="0"
           id="path12223"
           d="m -362,-15 6,0 0,1 -6,0 z"
           style="fill:#0066ff;fill-opacity:1;fill-rule:evenodd;stroke:none" />
      </g>
      <path
         inkscape:export-ydpi="89.999992"
         inkscape:export-xdpi="89.999992"
         inkscape:export-filename="C:\Users\Stéphane\Desktop\Blogs\OpenBeautyFacts\openbeautyfacts-logo-fr.png"
         id="path12225"
         d="m 108.2578,-145.15413 0,1.03125 0,6.25 0,4.71875 1,0 0,-12 -1,0 z m 2,0 0,12 2,0 0,-12 -2,0 z"
         style="fill:#0066ff;fill-opacity:1;fill-rule:evenodd;stroke:none"
         inkscape:connector-curvature="0" />
      <rect
         id="rect12231"
         width="5"
         height="5"
         x="44.25774"
         y="-151.15413"
         style="fill:none"
         inkscape:export-filename="C:\Users\Stéphane\Desktop\Blogs\OpenBeautyFacts\openbeautyfacts-logo-fr.png"
         inkscape:export-xdpi="89.999992"
         inkscape:export-ydpi="89.999992" />
      <rect
         inkscape:export-ydpi="89.999992"
         inkscape:export-xdpi="89.999992"
         inkscape:export-filename="C:\Users\Stéphane\Desktop\Blogs\OpenBeautyFacts\openbeautyfacts-logo-fr.png"
         style="fill:none"
         y="-151.15413"
         x="44.25774"
         height="5"
         width="5"
         id="rect12233" />
    </g>
  </g>
</svg>
