<svg xmlns="http://www.w3.org/2000/svg" width="178" height="150"><path d="M170 26v6.411c1.196.444 2.205 1.06 2.991 1.761l.026-8.172zm4 0v8.312l1-.839V26zm2 0v6.607l1-.979v11.77l-1-1.007.038 52.609H178V26zm-2 14.686V95h1V41.525zm-1 .14c-.786.702-1.796 1.313-3 1.76L170.008 95h3z" fill="#06f"/><path d="M154 26v69h3V41.19c-1.324-1.016-2.125-2.272-2.125-3.663 0-1.39.801-2.675 2.125-3.69V26zm4 0v7.194c1.126-.643 2.496-1.129 4.026-1.398L162 26zm5 0l-.08 5.628c.33-.036.666-.04 1.006-.056L164 26h-1zm2 0v5.544c.683.009 1.343.081 1.985.168L167 26zm-7 15.86V95h4V43.23c-1.587-.269-2.875-.728-4-1.37zm9 1.482c-.64.087-1.303.131-1.985.14L165 95h2zm-4 .056V95h1l.006-51.546c-.34-.017-.677-.02-1.006-.056z" fill="#0cf"/><path d="M150 26.012V95h1V26.012zm-4 0V95h3V26.012zm-3 0V95h2V26.012zm-2 0V95h1V26.012zM135 24v71h3V26zm-3 2v69h2V26zm-3 0v69h2V26zm-4 0v69h1V26zm-4 0v69h1V26zm-5 0v69h2V26zm-4 0v69h1V26zm-2 0v69h1V26zm-2 0v69h1V26zm-5 0v69h2V26zm-4 0v69h1V26zm-4.017.012L95 95h1l-.017-68.988z" fill="#00d400"/><path d="M90 21v74h2V21zm-2 5v69h1V26zm-3-16v85h2V10zm-4 16v69h3V26zm-4 0v69h1V26zm-3-6v75h2V20zm-4 6v69h3V26zm-4 0v69h1V26zm-2 0v69h1V26zm-5.026-.083L59 95h2l-.027-69.083zM55 15v80h1V15zm-3 11v69h2V26zm-6 0v69h3V26zm-2 0v69h1V26zm-4 0v69h1V26zm-3 0v69h2V26z" fill="#fc0"/><path d="M33 20v75h1V20zm-3-1v76h2V19zm-4 7v69h3V26zm-4 0v69h3V26zm-3-6v75h2V20zm-4 1v74h3V21zm-4 5v69h1V26zm-3 0v69h1V26zm-5.001-.083V95h1V25.917zm-2.999 0V95h2V25.917z" fill="red"/><path d="M12.96 20.168c.63-.816.72-2.676 1.282-4.359.405-1.213.463-4.597 1.208-4.882.969-.371 3.17-.358 4.224-.417 2.3-.128 4.52 1.099 6.823 1.101 2.99.004 8.861-1.41 8.861-1.41l-.14-2.04 1.505.279 4.077-.517-3.008 1.386s1.202-.02 1.688.277c.705.432.96 1.347 1.469 2 .292.373 1.082.654.908 1.095-.47 1.19-3.809.486-3.809.486L36.13 14.97c-.833 1.78-2.262 3.262-2.254 6.722 0 0-6.007-.923-8.991-.796-1.764.074-4.97.618-4.97.618-1.608-.137-3.296-.53-4.904-.25.01-6.235.866-6.128.698-9.294-.439 1.68-.97 4.516-1.026 5.772-.535 1.526-.012 1.9-1.723 2.426z" fill="red"/><g transform="rotate(-37.635 30.68 -53.687) scale(.01879)" fill="#fc0"><ellipse ry="32.857" rx="65.714" cy="762.362" cx="567.143" transform="rotate(-54.359 554.927 858.045)"/><path d="M494.286 741.648s14.409-2.316 20.714-5.714c22.088-11.904 53.571-52.858 53.571-52.858s-33.141 43.14-40 65c-2.071 6.604-1.428 20.715-1.428 20.715z"/></g><g fill="#fc0"><g transform="translate(47.682 5.652) scale(.0188)"><ellipse ry="32.857" rx="65.714" cy="762.362" cx="567.143" transform="rotate(-54.359 554.927 858.045)"/><path d="M494.286 741.648s14.409-2.316 20.714-5.714c22.088-11.904 53.571-52.858 53.571-52.858s-33.141 43.14-40 65c-2.071 6.604-1.428 20.715-1.428 20.715z"/></g><g transform="translate(47.682 7.444) scale(.0188)"><ellipse ry="32.857" rx="65.714" cy="762.362" cx="567.143" transform="rotate(-54.359 554.927 858.045)"/><path d="M494.286 741.648s14.409-2.316 20.714-5.714c22.088-11.904 53.571-52.858 53.571-52.858s-33.141 43.14-40 65c-2.071 6.604-1.428 20.715-1.428 20.715z"/></g><g transform="translate(47.682 3.86) scale(.0188)"><ellipse ry="32.857" rx="65.714" cy="762.362" cx="567.143" transform="rotate(-54.359 554.927 858.045)"/><path d="M494.286 741.648s14.409-2.316 20.714-5.714c22.088-11.904 53.571-52.858 53.571-52.858s-33.141 43.14-40 65c-2.071 6.604-1.428 20.715-1.428 20.715z"/></g><g transform="translate(47.682 2.068) scale(.0188)"><ellipse ry="32.857" rx="65.714" cy="762.362" cx="567.143" transform="rotate(-54.359 554.927 858.045)"/><path d="M494.286 741.648s14.409-2.316 20.714-5.714c22.088-11.904 53.571-52.858 53.571-52.858s-33.141 43.14-40 65c-2.071 6.604-1.428 20.715-1.428 20.715z"/></g><g transform="rotate(-10.644 34.013 -239.594) scale(.01879)"><ellipse ry="32.857" rx="65.714" cy="762.362" cx="567.143" transform="rotate(-54.359 554.927 858.045)"/><path d="M494.286 741.648s14.409-2.316 20.714-5.714c22.088-11.904 53.571-52.858 53.571-52.858s-33.141 43.14-40 65c-2.071 6.604-1.428 20.715-1.428 20.715z"/></g><g transform="matrix(-.0188 0 0 .0188 63.268 5.652)"><ellipse ry="32.857" rx="65.714" cy="762.362" cx="567.143" transform="rotate(-54.359 554.927 858.045)"/><path d="M494.286 741.648s14.409-2.316 20.714-5.714c22.088-11.904 53.571-52.858 53.571-52.858s-33.141 43.14-40 65c-2.071 6.604-1.428 20.715-1.428 20.715z"/></g><g transform="matrix(-.0188 0 0 .0188 63.268 7.444)"><ellipse ry="32.857" rx="65.714" cy="762.362" cx="567.143" transform="rotate(-54.359 554.927 858.045)"/><path d="M494.286 741.648s14.409-2.316 20.714-5.714c22.088-11.904 53.571-52.858 53.571-52.858s-33.141 43.14-40 65c-2.071 6.604-1.428 20.715-1.428 20.715z"/></g><g transform="matrix(-.0188 0 0 .0188 63.268 3.86)"><ellipse ry="32.857" rx="65.714" cy="762.362" cx="567.143" transform="rotate(-54.359 554.927 858.045)"/><path d="M494.286 741.648s14.409-2.316 20.714-5.714c22.088-11.904 53.571-52.858 53.571-52.858s-33.141 43.14-40 65c-2.071 6.604-1.428 20.715-1.428 20.715z"/></g><g transform="matrix(-.0188 0 0 .0188 63.268 2.068)"><ellipse ry="32.857" rx="65.714" cy="762.362" cx="567.143" transform="rotate(-54.359 554.927 858.045)"/><path d="M494.286 741.648s14.409-2.316 20.714-5.714c22.088-11.904 53.571-52.858 53.571-52.858s-33.141 43.14-40 65c-2.071 6.604-1.428 20.715-1.428 20.715z"/></g><g transform="matrix(-.01847 -.00348 -.00348 .01847 65.983 2.178)"><ellipse ry="32.857" rx="65.714" cy="762.362" cx="567.143" transform="rotate(-54.359 554.927 858.045)"/><path d="M494.286 741.648s14.409-2.316 20.714-5.714c22.088-11.904 53.571-52.858 53.571-52.858s-33.141 43.14-40 65c-2.071 6.604-1.428 20.715-1.428 20.715z"/></g></g><g transform="rotate(-48.948 -310.85 675.412) scale(.73933)" fill="#fc0"><circle r="2.5" cy="732.362" cx="608" transform="translate(1.5 9.75)"/><circle r="2.5" cy="732.362" cx="608" transform="rotate(-72 612.96 733.705)"/><circle r="2.5" cy="732.362" cx="608" transform="rotate(-144 607.834 734.494)"/><circle r="2.5" cy="732.362" cx="608" transform="rotate(144 604.666 734.98)"/><circle r="2.5" cy="732.362" cx="608" transform="rotate(72 599.54 735.77)"/></g><g transform="matrix(-.64917 -.35383 .35383 -.64917 218.165 702.908)" fill="#fc0"><circle r="2.5" cy="732.362" cx="608" transform="translate(1.5 9.75)"/><circle r="2.5" cy="732.362" cx="608" transform="rotate(-72 612.96 733.705)"/><circle r="2.5" cy="732.362" cx="608" transform="rotate(-144 607.834 734.494)"/><circle r="2.5" cy="732.362" cx="608" transform="rotate(144 604.666 734.98)"/><circle r="2.5" cy="732.362" cx="608" transform="rotate(72 599.54 735.77)"/></g><g transform="matrix(.3145 -.6691 .6691 .3145 -610.582 190.809)" fill="#fc0"><circle r="2.5" cy="732.362" cx="608" transform="translate(1.5 9.75)"/><circle r="2.5" cy="732.362" cx="608" transform="rotate(-72 612.96 733.705)"/><circle r="2.5" cy="732.362" cx="608" transform="rotate(-144 607.834 734.494)"/><circle r="2.5" cy="732.362" cx="608" transform="rotate(144 604.666 734.98)"/><circle r="2.5" cy="732.362" cx="608" transform="rotate(72 599.54 735.77)"/></g><path d="M122.447 6.337c9.189.95 12.63 8.43 12.553 21.663l2.964-1.399c0-1.462-.026-1.249-.026-2.71 0-10.868-6.404-17.276-10.911-18.344z" fill="#00d400"/><path d="M109.295 21.713c8.936-2.556 20.004-3.048 18.061-16.131-17.114-8.055-11.346 7.067-18.06 16.13z" fill="#00d400"/><path d="M128.43 4.225c-4.446 6.14-14.13 15.176-20.084 17.87 5.978-2.223 17.58-11.33 20.084-17.87z" fill="#fff"/><path d="M154.928 21.605c-8.784-3.034-19.81-4.123-17.165-17.082 18.215-5.51 10.95 7.669 17.165 17.082z" fill="#00d400"/><path d="M136.764 3.11c4.109 6.371 13.292 15.916 19.091 18.927-5.848-2.542-16.943-12.26-19.09-18.927z" fill="#fff"/><path d="M137.878 4.604C135.885 6.169 135.077 14.768 135 28l2.964-1.399c0-1.462.036 1.86.036.399 0-10.867.859-19.322 1.215-21.118z" fill="#00d400"/><circle r=".949" cy="35.276" cx="159.092" fill="#0cf"/><path d="M170 118v5h8v-5h-8z" fill="#06f"/><path d="M154 118v5h13v-5h-13z" fill="#0cf"/><path d="M95 118v5h56v-5H95z" fill="#00d400"/><path d="M37 118v5h55v-5H37z" fill="#fc0"/><path d="M0 118v5h34v-5H0z" fill="red"/><g style="line-height:125%;-inkscape-font-specification:'Arial Narrow'" font-weight="400" font-size="22.903" font-family="Arial Narrow" letter-spacing="0" word-spacing="0" fill="#333"><path d="M.295 106.822c0-2.796.615-4.945 1.846-6.447 1.23-1.502 2.762-2.253 4.596-2.253 1.185 0 2.266.335 3.243 1.006.976.671 1.75 1.646 2.32 2.924.57 1.279.856 2.802.856 4.569 0 2.43-.552 4.41-1.655 5.938-1.216 1.685-2.807 2.527-4.775 2.527-1.984 0-3.579-.865-4.787-2.594-1.096-1.566-1.644-3.456-1.644-5.67zm1.834.033c0 2.02.446 3.588 1.337 4.703.89 1.114 1.973 1.672 3.248 1.672 1.305 0 2.4-.563 3.283-1.689.883-1.126 1.325-2.78 1.325-4.965 0-1.41-.228-2.67-.682-3.78-.35-.85-.878-1.53-1.583-2.04a3.842 3.842 0 0 0-2.31-.767c-1.341 0-2.446.56-3.315 1.678-.868 1.118-1.303 2.847-1.303 5.188zM15 115V98h4.675c1.224 0 2.127.107 2.708.321.796.291 1.431.83 1.905 1.619.475.788.712 1.755.712 2.903 0 1.515-.386 2.75-1.16 3.707-.772.956-2.107 1.424-4.004 1.435L17 108v7zm2-9h2.87c1.125-.001 1.947-.255 2.467-.764s.78-1.276.78-2.301c0-.666-.127-1.236-.384-1.71-.256-.474-.566-.8-.93-.976-.363-.176-1.019-.264-1.967-.264L17 100zm10 9V98h10v2h-8v5h7v2h-7v6h8v2zm12 0V98h2l7 13V98h2v17h-2l-7-13v13zm19 0V98h9v2h-7v5h6v2h-6v8zm10.256-8.178c0-2.796.615-4.945 1.845-6.447 1.23-1.502 2.762-2.253 4.596-2.253 1.186 0 2.267.335 3.243 1.006.977.671 1.75 1.646 2.32 2.924.571 1.279.856 2.802.856 4.569 0 2.43-.551 4.41-1.655 5.938-1.215 1.685-2.807 2.527-4.775 2.527-1.983 0-3.578-.865-4.786-2.594-1.096-1.566-1.644-3.456-1.644-5.67zm1.834.033c0 2.02.445 3.588 1.336 4.703.891 1.114 1.974 1.672 3.249 1.672 1.305 0 2.399-.563 3.282-1.689.884-1.126 1.325-2.78 1.325-4.965 0-1.41-.227-2.67-.682-3.78-.35-.85-.878-1.53-1.582-2.04-.705-.512-1.474-.767-2.31-.767-1.341 0-2.447.56-3.315 1.677-.869 1.119-1.303 2.848-1.303 5.19zm12.793-.033c0-2.796.615-4.945 1.846-6.447 1.23-1.502 2.762-2.253 4.596-2.253 1.185 0 2.266.335 3.243 1.006.976.671 1.75 1.646 2.32 2.924.57 1.279.856 2.802.856 4.569 0 2.43-.552 4.41-1.655 5.938-1.216 1.685-2.807 2.527-4.775 2.527-1.984 0-3.579-.865-4.787-2.594-1.096-1.566-1.644-3.456-1.644-5.67zm1.834.033c0 2.02.446 3.588 1.337 4.703.89 1.114 1.973 1.672 3.248 1.672 1.305 0 2.4-.563 3.283-1.689.883-1.126 1.325-2.78 1.325-4.965 0-1.41-.228-2.67-.682-3.78-.35-.85-.878-1.53-1.583-2.04a3.842 3.842 0 0 0-2.31-.767c-1.341 0-2.446.56-3.315 1.677-.868 1.119-1.303 2.848-1.303 5.19zM98 115V98h5c1.213 0 2.005.174 2.635.383.827.27 1.543.72 2.15 1.437.606.718 1.079 1.623 1.417 2.715.339 1.093.508 2.388.508 3.885 0 1.922-.287 3.553-.862 4.892-.575 1.34-1.313 2.289-2.215 2.849-.902.56-2.176.839-3.633.839zm2-2h3c1.22 0 2.017-.198 2.647-.588.63-.39 1.114-1.017 1.453-1.881.448-1.15.673-2.528.673-4.134 0-1.721-.238-3.074-.715-4.058-.476-.985-1.088-1.643-1.836-1.975-.504-.224-1.127-.364-2.222-.364h-3zm18 2l.076-17h9v2h-7v5h6v2h-6v8zm10.076 0l5-17h2l5 17h-2l-4-15-4.04 15zm23.285-5.942l1.79.548c-.396 1.842-1.087 3.216-2.075 4.121-.988.906-2.19 1.36-3.606 1.36-1.245 0-2.31-.305-3.193-.912-.884-.608-1.607-1.583-2.17-2.925-.562-1.342-.844-2.926-.844-4.752 0-1.805.282-3.331.844-4.58.563-1.249 1.326-2.192 2.287-2.83a5.703 5.703 0 0 1 3.221-.955c1.297 0 2.412.404 3.344 1.213.932.809 1.584 1.996 1.957 3.562l-1.745.503c-.596-2.281-1.793-3.422-3.59-3.422-.894 0-1.67.23-2.326.688-.656.458-1.18 1.172-1.57 2.141-.392.97-.588 2.196-.588 3.68 0 2.244.395 3.927 1.186 5.049.79 1.122 1.841 1.683 3.153 1.683.97 0 1.806-.345 2.51-1.035.705-.69 1.177-1.735 1.415-3.137zM159 115v-15l-5 .006V98h12v2h-5v15zm8.268-5.46l1.678-.18c.09.903.292 1.605.61 2.108.316.504.769.908 1.358 1.214.589.305 1.252.458 1.99.458 1.06 0 1.881-.259 2.466-.777.586-.518.878-1.19.878-2.018 0-.485-.106-.908-.319-1.27-.212-.361-.533-.658-.961-.889-.429-.23-1.355-.555-2.78-.973-1.267-.372-2.169-.749-2.706-1.13a3.944 3.944 0 0 1-1.252-1.447c-.298-.586-.447-1.247-.447-1.985 0-1.327.428-2.412 1.286-3.255.857-.842 2.013-1.263 3.466-1.263 1 0 1.874.197 2.623.592.75.396 1.33.962 1.744 1.7.414.738.636 1.607.666 2.606l-1.711.156c-.09-1.066-.408-1.856-.956-2.37-.548-.515-1.318-.772-2.31-.772-1.006 0-1.774.226-2.303.677-.53.45-.794 1.034-.794 1.75 0 .663.194 1.178.581 1.543.388.365 1.26.734 2.617 1.107 1.327.365 2.259.682 2.796.95.82.418 1.439.968 1.856 1.65.418.682.626 1.497.626 2.444a5.09 5.09 0 0 1-.66 2.566 4.434 4.434 0 0 1-1.794 1.761c-.757.403-1.668.604-2.735.604-1.662 0-2.987-.5-3.975-1.498-.988-1-1.5-2.352-1.538-4.06z"/><path d="M137.076 108v2h-6v-2z"/></g><g style="line-height:125%;-inkscape-font-specification:'Arial Narrow'" font-weight="400" font-size="22.192" font-family="Lateef" letter-spacing="0" word-spacing="0" fill="#333"><path d="M172.306 137.032q-.245 0-.362-.323-.118-.336-.118-.756t.118-.744q.117-.336.362-.336h.93q.411 0 .793-.012.382-.011.763-.035.382-.025.842-.06.421-.036.646-.228.235-.192.372-.36.01-.348-.049-.66-.058-.312-.166-.516-.274.264-.607.492-.323.228-.666.228-.274 0-.48-.12-.205-.132-.342-.348-.137-.216-.206-.492-.058-.287-.058-.6 0-.203.039-.503.049-.3.127-.636.088-.336.216-.672.127-.335.283-.6.157-.263.343-.431.186-.168.401-.168.255 0 .48.264.235.252.421.66.186.395.333.9.147.503.245.995.097.48.146.9.06.42.06.671 0 .804-.275 1.451-.264.648-.715 1.104-.45.456-1.027.696-.578.24-1.195.24h-1.654zm2.956-6.093q-.107 0-.235.096-.117.096-.215.24-.098.132-.167.3-.058.156-.058.3t.058.252q.069.108.167.168.098.06.215.096.118.024.216.024.049 0 .156-.024.108-.036.225-.084.128-.048.245-.108.118-.072.186-.132-.03-.144-.117-.336-.079-.192-.196-.36-.108-.18-.235-.3-.127-.132-.245-.132zm.93-3.19l-1.018-1.248 1.018-1.247 1.048 1.247-1.048 1.248zm-2.056 0l-1.047-1.248 1.047-1.247 1.019 1.247-1.019 1.248z" style="-inkscape-font-specification:Lateef"/><path d="M171.748 137.032q-.49 0-.852-.323-.352-.336-.597-.864-.235-.54-.382-1.2-.137-.671-.215-1.33-.078-.673-.108-1.272-.02-.6-.03-1.008l-.097-5.961.822-1.14v6.166q0 .335.04.887.039.54.117 1.104.078.563.186 1.08.108.503.254.79.284.565.646.745.363.167.793.167h.607q.137 0 .235.096.108.084.176.24.079.144.108.336.04.192.04.408 0 .216-.04.408-.03.192-.108.348-.068.144-.176.24-.098.084-.235.084h-1.184zm-8.967-2.159q-.157-.383-.235-.815-.068-.432-.068-.852 0-.552.146-1.187.157-.648.44-1.2.285-.552.696-.911.411-.372.94-.372.333 0 .665.168.333.156.627.42.303.251.538.587.245.336.382.696l-.108.12q-.235-.132-.42-.228-.187-.096-.373-.156t-.4-.084q-.206-.024-.49-.024-.265 0-.607.132-.333.12-.637.312-.303.192-.509.408-.205.204-.205.384 0 .287.196.66.205.36.499.683.294.324.626.552.343.216.617.216.235 0 .597-.096t.754-.228q.392-.132.764-.264.372-.144.616-.228l-.509 1.74q-.323.155-.773.347-.45.192-.98.384-.518.192-1.086.372-.567.18-1.135.324-.558.132-1.087.216-.528.084-.969.084h-.93q-.225 0-.333-.324-.117-.336-.117-.756t.117-.744q.108-.336.333-.336h2.418z" style="-inkscape-font-specification:Lateef"/><path d="M158.699 134.622q-.088.551-.343 1.02-.254.467-.616.803-.353.336-.793.527-.431.18-.872.18-.146 0-.41-.012-.255 0-.52-.071-.254-.06-.45-.192-.186-.144-.186-.408v-2.411q.186.42.529.684.342.251.734.251.323 0 .695-.096.372-.096.744-.251.382-.156.724-.36.343-.216.607-.444l-.842-4.306.46-1.74 1.205 5.278q.342 1.524.792 1.728.157.071.363.071h.509q.264 0 .391.336.137.324.137.744t-.137.756q-.127.323-.391.323h-.94q-.235 0-.46-.287-.215-.288-.401-.684-.186-.396-.324-.804-.137-.408-.205-.635zm-8.057-5.338q.06.42.255.708.196.275.45.503.255.228.529.456.284.228.519.552.235.324.381.78.157.455.157 1.151 0 .324-.068.72-.06.396-.186.803-.128.396-.314.78-.176.384-.401.684-.225.288-.51.468-.273.18-.586.18-.725 0-1.048-.504-.323-.504-.323-1.344 0-.384.059-.815.058-.432.166-.864.108-.432.245-.84.147-.407.323-.731-.088-.096-.108-.276-.02-.18-.02-.348 0-.24.04-.516.039-.276.098-.552.068-.275.156-.527.088-.264.186-.468zm.265 5.65q.127 0 .362-.085.235-.084.46-.216.235-.131.401-.311.177-.18.177-.372 0-.108-.196-.348-.186-.252-.45-.528-.255-.276-.53-.516-.273-.24-.45-.311-.117.12-.215.323-.098.192-.176.408-.069.204-.108.396-.039.192-.039.324 0 .228.04.456.038.228.127.396.088.167.235.275.146.108.362.108zm-7.783-.061q.05 0 .098-.06.05-.072.088-.155.04-.096.059-.192.02-.096.02-.156 0-.084-.05-.276-.038-.204-.107-.42-.059-.216-.127-.384-.069-.18-.118-.228l.558-1.739q.284.456.411 1.056.128.587.128 1.175 0 .444-.079.888-.068.443-.215.851-.088.252-.274.564-.176.312-.401.588-.226.276-.48.468-.255.18-.49.18h-1.478q-.117 0-.205-.097-.098-.095-.157-.251t-.088-.348q-.03-.204-.03-.42 0-.42.118-.732t.362-.312h2.457zm-.156 6.154l-1.018-1.248 1.018-1.247 1.018 1.247-1.018 1.248z" style="-inkscape-font-specification:Lateef"/><path d="M136.32 137.032q-.224 0-.342-.323-.117-.336-.117-.756t.117-.744q.118-.336.343-.336h.519q.274 0 .519-.012.254-.011.47-.035.225-.036.371-.085.226-.071.353-.275.137-.216.225-.468.088-.264.147-.528.059-.276.127-.468.01-.036.049-.048.04-.024.078-.024.05 0 .079.036.029.024.02.084-.02.192-.03.384-.01.192-.01.252 0 .42.216.66.225.24.548.36.323.107.685.143.372.025.656.025.245 0 .362.335.127.324.127.744t-.127.756q-.117.324-.362.324h-1.126q-.206 0-.42-.108-.216-.108-.422-.3-.196-.192-.372-.444-.166-.252-.284-.552-.088.216-.254.468-.157.24-.362.456-.196.204-.421.348-.216.132-.431.132h-.93zm3.408 3.995l-1.019-1.248 1.019-1.247 1.047 1.247-1.047 1.248zm-2.056 0l-1.048-1.248 1.048-1.247 1.018 1.247-1.018 1.248z" style="-inkscape-font-specification:Lateef"/><path d="M135.802 137.032q-.49 0-.852-.323-.352-.336-.597-.864-.235-.54-.382-1.2-.137-.671-.215-1.33-.078-.673-.108-1.272-.02-.6-.029-1.008l-.098-5.961.822-1.14v6.166q0 .335.04.887.039.54.117 1.104.078.563.186 1.08.108.503.255.79.284.565.646.745.362.167.793.167h.607q.137 0 .235.096.107.084.176.24.078.144.107.336.04.192.04.408 0 .216-.04.408-.029.192-.107.348-.069.144-.176.24-.098.084-.235.084h-1.185zm-4.895-2.159q.05 0 .098-.06.05-.072.088-.155.04-.096.06-.192.019-.096.019-.156 0-.084-.05-.276-.038-.204-.107-.42-.059-.216-.127-.384-.069-.18-.118-.228l.558-1.739q.284.456.411 1.056.128.587.128 1.175 0 .444-.079.888-.068.443-.215.851-.088.252-.274.564-.176.312-.401.588-.226.276-.48.468-.255.18-.49.18h-1.478q-.117 0-.205-.097-.098-.095-.157-.251t-.088-.348q-.03-.204-.03-.42 0-.42.118-.732t.362-.312h2.457zm-.088-5.11l-1.018-1.247 1.018-1.247 1.018 1.247-1.018 1.248z" style="-inkscape-font-specification:Lateef"/><path d="M127.892 137.032q-.49 0-.851-.323-.353-.336-.597-.864-.235-.54-.382-1.2-.137-.671-.216-1.33-.078-.673-.107-1.272-.02-.6-.03-1.008l-.097-5.961.822-1.14v6.166q0 .335.039.887.039.54.117 1.104.079.563.186 1.08.108.503.255.79.284.565.646.745.362.167.793.167h.607q.137 0 .235.096.107.084.176.24.078.144.108.336.039.192.039.408 0 .216-.04.408-.029.192-.107.348-.069.144-.176.24-.098.084-.235.084h-1.185zm-13.92-5.865q-.039.12-.107.312-.069.192-.138.432-.068.228-.127.48-.049.251-.049.491 0 .492.206.864.215.36.558.624.342.252.763.431.431.168.872.264.44.096.841.132.402.036.695.036.686 0 1.4-.06.725-.072 1.44-.228.724-.156 1.409-.407.695-.264 1.322-.648-.01-.576-.245-.996-.225-.42-.539-.695l.627-2.315q.127.096.284.347.156.252.293.6.137.348.226.768.097.42.097.863 0 .72-.205 1.392-.196.672-.5 1.283-.195.384-.606.696-.402.3-.94.54-.538.24-1.165.408-.617.155-1.253.263-.626.108-1.224.156-.587.048-1.067.048-.675 0-1.4-.132-.724-.12-1.321-.48t-.989-1.007q-.381-.66-.381-1.715 0-.396.088-.792.097-.396.244-.743.157-.36.343-.672.196-.312.401-.552.059-.06.118-.06.03 0 .03.072zm5.443.144l-1.018-1.247 1.018-1.248 1.047 1.248-1.047 1.247zm-2.056 0l-1.047-1.247 1.047-1.248 1.018 1.248-1.018 1.247zm-17.062 5.721q-.216 0-.314-.323-.107-.336-.107-.756t.107-.744q.098-.336.314-.336.333 0 .607.012h.528q.372 0 .783-.048.412-.06.823-.18.42-.131.832-.335.41-.204.773-.516-.362-.144-.695-.336-.323-.204-.617-.384-.293-.18-.548-.3-.254-.132-.49-.132-.244 0-.45.096-.205.096-.362.204-.147.108-.254.204-.108.096-.157.096-.059 0-.069-.036-.01-.036-.01-.096 0-.408.138-.84.147-.431.382-.791.244-.36.558-.588.323-.228.665-.228.294 0 .656.228.362.216.744.504.392.288.773.564.392.264.735.372.509.168 1.018.24.518.071 1.047.071l-.5 2.1h-.577q-.333-.012-.744.06-.41.06-.88.24-.46.167-.97.527-.333.228-.705.492-.372.252-.734.468-.362.216-.695.36-.333.132-.597.132h-1.008z" style="-inkscape-font-specification:Lateef"/><path d="M98.907 134.082q.176.264.342.432.176.156.392.24.225.071.519.095.303.024.734.024.303 0 .45.336.157.324.157.744t-.157.756q-.147.324-.45.324h-.92q-.069.36-.216.84-.137.479-.342.97-.206.504-.46.984-.255.492-.558.876-.294.384-.627.612-.333.24-.685.24-.47 0-.93-.156-.46-.156-.842-.408-.382-.252-.646-.564-.264-.3-.352-.6.391.132.812.216.421.084.832.084.421 0 .95-.3.528-.288 1.028-.731.499-.444.89-.984.402-.528.558-1.007l-.822-1.5.343-1.523zm-7.039-4.798q.059.42.255.708.196.275.45.503.255.228.529.456.284.228.518.552.235.324.382.78.157.455.157 1.151 0 .324-.069.72-.058.396-.186.803-.127.396-.313.78-.176.384-.401.684-.225.288-.51.468-.273.18-.587.18-.724 0-1.047-.504-.323-.504-.323-1.344 0-.384.059-.815.058-.432.166-.864.108-.432.245-.84.147-.407.323-.731-.088-.096-.108-.276-.02-.18-.02-.348 0-.24.04-.516.039-.276.097-.552.069-.275.157-.527.088-.264.186-.468zm.265 5.65q.127 0 .362-.085.235-.084.46-.216.235-.131.401-.311.176-.18.176-.372 0-.108-.195-.348-.186-.252-.45-.528-.255-.276-.53-.516-.273-.24-.45-.311-.117.12-.215.323-.098.192-.176.408-.069.204-.108.396-.039.192-.039.324 0 .228.04.456.038.228.126.396.088.167.235.275.147.108.363.108zm-13.637 4.677q.167.024.333.024h.304q.851 0 1.615-.204.763-.191 1.42-.623.655-.432 1.193-1.116.539-.671.95-1.62 0-.095-.01-.227 0-.144-.02-.3-.01-.156-.048-.312-.03-.156-.088-.264-.089.18-.226.36-.127.18-.293.324-.157.144-.343.24-.176.084-.352.084-.216 0-.382-.108-.157-.12-.264-.3-.108-.192-.157-.42-.049-.24-.049-.48 0-.18.049-.467.049-.3.137-.636.098-.336.215-.672.128-.348.275-.623.156-.276.323-.444.176-.18.352-.18.254 0 .45.168.206.168.343.444.147.263.245.6.098.335.156.683.059.348.079.672.029.312.029.54 0 .683-.108 1.403-.107.708-.333 1.38-.215.683-.548 1.27-.333.6-.773 1.056-.382.36-.852.492-.47.144-.94.144-.303 0-.665-.06-.362-.06-.725-.18-.362-.108-.695-.276-.342-.156-.597-.372zm4.61-6.357q-.068 0-.146.132-.068.12-.137.288-.059.168-.108.336-.039.168-.039.24 0 .144.137.3.147.144.372.144.137 0 .343-.132.215-.132.323-.336-.04-.18-.118-.348-.078-.18-.176-.312-.098-.144-.215-.228-.118-.084-.235-.084zm-9.788 3.778q-.255 0-.382-.323-.127-.336-.127-.756t.127-.744q.127-.336.382-.336.264 0 .568-.012.313-.024.597-.084.293-.071.538-.191.245-.12.372-.312.235-.36.529-.936.293-.588.626-1.14.333-.551.685-.947.353-.408.705-.408.147 0 .304.192.166.18.323.48.166.3.303.66.147.36.255.72.117.347.176.647.068.288.068.444 0 .312-.078.72-.068.395-.235.755-.166.36-.43.612-.255.252-.627.252-.225 0-.5-.108-.273-.12-.547-.288-.275-.168-.53-.36-.254-.204-.44-.384-.127.408-.274.756-.137.336-.333.576-.195.24-.47.384-.274.131-.655.131h-.93zm5.1-2.902q0-.216-.078-.492-.069-.288-.206-.54-.127-.252-.303-.432-.167-.18-.372-.18-.128 0-.265.132-.127.12-.244.3-.108.18-.206.384-.088.192-.137.336.078.132.274.288.196.156.42.288.236.132.441.228.216.084.323.084.147 0 .245-.096.108-.096.108-.3z" style="-inkscape-font-specification:Lateef"/><path d="M72.623 137.032q-.235 0-.49-.084-.254-.084-.519-.215-.254-.144-.499-.324-.245-.18-.46-.384-.215.204-.529.384-.313.18-.626.324-.304.131-.568.215-.264.084-.401.084h-.774q-.244 0-.362-.323-.117-.336-.117-.756t.117-.744q.118-.336.362-.336h.882q.166 0 .342-.012l.362-.047q.186-.036.333-.096-.03-.252-.108-.48-.078-.228-.078-.516 0-.3.069-.72.068-.42.195-.875.138-.456.314-.9.186-.456.41-.803.226-.36.48-.576.255-.228.539-.228.313 0 .509.24.196.228.313.564.118.335.157.707.049.372.049.648 0 .36-.05.756-.048.395-.136.791-.088.396-.225.768-.128.36-.294.648.225.096.49.12.264.011.548.011h1.008q.284 0 .411.336.137.324.137.744t-.137.756q-.127.324-.411.324h-1.243zm-.862-4.198q0-.144-.058-.288-.05-.155-.138-.275-.088-.12-.205-.192-.108-.084-.225-.084-.147 0-.343.132-.196.132-.372.335-.176.192-.303.408-.118.216-.118.384 0 .12.088.264.088.132.206.264.127.12.254.216l.206.156q.166-.072.343-.192.176-.132.323-.3.146-.168.244-.372.098-.216.098-.456zm-.724-4.714l-1.018-1.247 1.018-1.247 1.018 1.247-1.018 1.247z" style="-inkscape-font-specification:Lateef"/><path d="M63.411 137.032q-.225 0-.343-.323-.117-.336-.117-.756t.117-.744q.118-.336.343-.336h.519q.274 0 .519-.012.254-.011.47-.035.225-.036.372-.085.225-.071.352-.275.137-.216.225-.468.088-.264.147-.528.059-.276.127-.468.01-.036.05-.048.038-.024.078-.024.048 0 .078.036.03.024.02.084-.02.192-.03.384-.01.192-.01.252 0 .42.216.66.225.24.548.36.323.107.685.143.372.025.656.025.245 0 .362.335.127.324.127.744t-.127.756q-.117.324-.362.324h-1.126q-.205 0-.42-.108-.216-.108-.422-.3-.195-.192-.372-.444-.166-.252-.284-.552-.088.216-.254.468-.157.24-.362.456-.196.204-.421.348-.216.132-.43.132h-.93zm3.495-5.541l-1.018-1.247 1.018-1.248 1.047 1.248-1.047 1.247zm-2.056 0l-1.047-1.247 1.047-1.248 1.018 1.248-1.018 1.247z" style="-inkscape-font-specification:Lateef"/><path d="M56.334 139.683q.841.18 1.703.18 1.312 0 2.28-.636.98-.635 1.626-2.075h-.196q-.274 0-.587-.048-.314-.035-.578-.167-.254-.132-.43-.384-.167-.252-.167-.672 0-.18.059-.48.068-.312.176-.66.117-.36.264-.72.157-.371.323-.659.176-.3.353-.48.186-.192.362-.192.215 0 .401.264.196.264.353.624.156.348.264.72.117.36.166.575h1.45q.254 0 .371.336.127.324.127.744t-.127.756q-.117.324-.372.324H62.55q0 .143-.04.3-.029.167-.078.335t-.107.312q-.05.156-.098.276-.206.504-.52 1.032-.312.54-.704.983-.382.456-.842.744-.46.288-.96.288-.89 0-1.605-.372-.714-.36-1.262-1.248zm4.806-5.35q-.078 0-.157.097-.078.096-.137.228-.058.131-.098.275-.029.132-.029.228 0 .144.069.24.078.084.186.132.117.048.235.06.127.012.215.012h.127q.078 0 .147-.012.078-.012.127-.036.059-.036.059-.096 0-.144-.069-.336-.068-.192-.176-.36-.107-.18-.244-.3-.128-.131-.255-.131zm-11.747 2.699q-.215 0-.313-.323-.108-.336-.108-.756t.108-.744q.098-.336.313-.336.333 0 .607.012h.529q.372 0 .783-.048.41-.06.822-.18.42-.131.832-.335.411-.204.773-.516-.362-.144-.695-.336-.323-.204-.616-.384-.294-.18-.549-.3-.254-.132-.489-.132-.245 0-.45.096-.206.096-.363.204-.146.108-.254.204-.108.096-.157.096-.058 0-.068-.036-.01-.036-.01-.096 0-.408.137-.84.147-.431.382-.791.245-.36.558-.588.323-.228.666-.228.293 0 .655.228.363.216.744.504.392.288.774.564.391.264.734.372.509.168 1.018.24.519.071 1.047.071l-.499 2.1h-.577q-.333-.012-.744.06-.412.06-.881.24-.46.167-.97.527-.332.228-.704.492-.372.252-.735.468-.362.216-.695.36-.332.132-.597.132h-1.008z" style="-inkscape-font-specification:Lateef"/><path d="M48.796 137.032q-.304 0-.607-.24-.304-.24-.558-.587-.245-.348-.421-.744-.166-.408-.196-.744-.176.492-.401.804-.225.312-.51.492-.273.168-.616.24-.333.06-.734.06H44.4q-.216-.012-.431-.06-.216-.06-.372-.18-.157-.12-.157-.348 0-.312.059-.696.068-.383.166-.767.108-.396.245-.744.147-.36.294-.588.078-.12.244-.288.167-.167.382-.347.216-.192.46-.372.245-.192.48-.348.235-.168.43-.288.197-.12.314-.156l-.166-1.355.548-1.476q.088 1.2.225 2.4.137 1.187.352 2.35.05.288.147.612.108.324.264.6.157.264.372.444.226.167.52.167h1.487q.108 0 .196.096.088.084.157.24.068.144.107.336.04.192.04.408 0 .216-.04.408-.039.192-.107.348-.069.144-.157.24-.088.084-.196.084h-1.468zm-2.222-4.653h-.02q-.059 0-.225.096-.157.084-.372.227-.206.132-.44.312-.235.168-.431.324-.186.156-.313.276-.128.12-.128.168 0 .048.098.096t.225.072q.128.024.245.048.117.012.157.012.068 0 .293-.036.225-.036.47-.108.245-.072.43-.168.187-.108.167-.228l-.156-1.091zm-11.591 4.653q-.225 0-.332-.323-.118-.336-.118-.756t.118-.744q.107-.336.332-.336.52 0 .852-.012.343-.024.587-.071.255-.048.45-.132.206-.096.451-.228l-.284-7.545q-.059-.072-.157-.204-.088-.132-.186-.288-.088-.156-.156-.3-.059-.144-.059-.24 0-.12.147-.467.147-.36.343-.756.205-.396.41-.72.206-.323.324-.371.058-.024.068.012.01.035 0 .071-.078.3-.107.552-.03.24-.03.48 0 .18.088.372.088.18.216.36.137.18.284.336.146.155.254.251-.03.096-.078.324l-.108.492q-.059.252-.127.504-.069.24-.127.372l-.118-.072q.049 1.235.137 2.53.088 1.296.088 2.531 0 .42-.049.912-.039.48-.147.972-.107.48-.274.935-.166.456-.42.804-.245.336-.578.552-.333.203-.764.203h-.93z" style="-inkscape-font-specification:Lateef"/><path d="M30.49 137.632q.5-.3.862-.803.372-.516.616-1.188.255-.684.372-1.5.128-.815.128-1.726 0-.9-.04-1.824-.039-.935-.098-1.87-.048-.948-.107-1.884-.05-.948-.088-1.847l.959-1.272.382 8.3q.03.732.117 1.272.088.528.314.888.225.348.616.528.402.167 1.038.167.303 0 .45.312.147.312.147.732 0 .216-.04.42-.038.192-.117.348-.068.156-.186.252-.107.095-.254.095h-.685q-.382 0-.705-.24-.323-.24-.519-.551-.059-.096-.137-.264-.069-.168-.137-.36-.069-.192-.127-.372-.06-.18-.098-.3-.157 1.428-.49 2.303-.333.888-.812 1.368-.48.492-1.097.66-.616.167-1.33.167-.48 0-.882-.084-.411-.084-.715-.252-.313-.167-.499-.42-.196-.251-.235-.575.45.048.94.036.48 0 .94-.06.45-.06.842-.18.391-.108.675-.276z" style="-inkscape-font-specification:Lateef"/><path d="M30.833 137.464q-.05.24-.147.396-.098.156-.215.252-.118.096-.235.132-.118.048-.206.06-.186.024-.186-.192 0-.204.225-.528.108-.156.167-.42.058-.263.088-.563.03-.3.039-.588.01-.3.01-.516 0-.995-.137-1.931-.128-.948-.392-1.787-.264-.84-.675-1.535-.402-.708-.95-1.224-.108.096-.186.168-.068.072-.147.132-.068.048-.166.072-.088.024-.235.024-.274 0-.529-.18-.254-.192-.45-.48t-.313-.636q-.118-.347-.118-.671 0-.216.02-.456.03-.24.098-.444.078-.204.215-.336.137-.132.352-.132.48 0 .97.408.499.396.959 1.02.47.611.871 1.367t.695 1.463q.157.372.304.936.146.564.254 1.188.108.623.176 1.259.069.636.069 1.163 0 .828-.069 1.5-.068.66-.156 1.08zm-11.091-2.591q-.157-.383-.235-.815-.069-.432-.069-.852 0-.552.147-1.187.157-.648.44-1.2.284-.552.696-.911.41-.372.94-.372.332 0 .665.168.333.156.626.42.304.251.539.587.245.336.382.696l-.108.12q-.235-.132-.421-.228t-.372-.156q-.186-.06-.401-.084-.206-.024-.49-.024-.264 0-.607.132-.333.12-.636.312t-.51.408q-.205.204-.205.384 0 .287.196.66.206.36.5.683.293.324.626.552.343.216.617.216.235 0 .597-.096t.754-.228q.391-.132.763-.264.372-.144.617-.228l-.51 1.74q-.322.155-.773.347-.45.192-.978.384-.52.192-1.087.372-.568.18-1.136.324-.558.132-1.086.216-.529.084-.97.084h-.93q-.224 0-.332-.324-.118-.336-.118-.756t.118-.744q.108-.336.333-.336h2.418zm1.507-6.896l-1.018-1.248 1.018-1.247 1.018 1.247-1.018 1.248z" style="-inkscape-font-specification:Lateef"/><path d="M15.66 134.622q-.089.551-.343 1.02-.255.467-.617.803-.352.336-.793.527-.43.18-.871.18-.147 0-.411-.012-.255 0-.519-.071-.254-.06-.45-.192-.186-.144-.186-.408v-2.411q.186.42.528.684.343.251.735.251.323 0 .695-.096.372-.096.744-.251.381-.156.724-.36.343-.216.607-.444l-.842-4.306.46-1.74 1.204 5.278q.343 1.524.793 1.728.157.071.362.071h.51q.264 0 .39.336.138.324.138.744t-.137.756q-.127.323-.392.323h-.94q-.234 0-.46-.287-.215-.288-.4-.684-.187-.396-.324-.804-.137-.408-.205-.635zm-.549-8.373l-1.018-1.247 1.018-1.248 1.018 1.248-1.018 1.247zm-5.863 8.624q.049 0 .097-.06.05-.072.089-.155.039-.096.058-.192.02-.096.02-.156 0-.084-.049-.276-.04-.204-.108-.42-.058-.216-.127-.384-.069-.18-.117-.228l.558-1.739q.283.456.41 1.056.128.587.128 1.175 0 .444-.078.888-.069.443-.216.851-.088.252-.274.564-.176.312-.401.588-.225.276-.48.468-.254.18-.49.18H6.792q-.118 0-.206-.097-.098-.095-.157-.251-.058-.156-.088-.348-.03-.204-.03-.42 0-.42.118-.732t.363-.312h2.457zm.87 6.154l-1.017-1.248 1.018-1.247 1.047 1.247-1.047 1.248zm-2.055 0l-1.047-1.248 1.047-1.247 1.018 1.247-1.018 1.248z" style="-inkscape-font-specification:Lateef"/><path d="M6.115 137.032q-.303 0-.607-.24-.303-.24-.558-.587-.245-.348-.42-.744-.167-.408-.197-.744-.176.492-.4.804-.226.312-.51.492-.274.168-.617.24-.333.06-.734.06H1.72q-.216-.012-.431-.06-.215-.06-.372-.18t-.157-.348q0-.312.06-.696.068-.383.166-.767.107-.396.244-.744.147-.36.294-.588.078-.12.245-.288.166-.167.381-.347.216-.192.46-.372.245-.192.48-.348.235-.168.43-.288.197-.12.314-.156l-.166-1.355.548-1.476q.088 1.2.225 2.4.137 1.187.353 2.35.048.288.146.612.108.324.265.6.156.264.372.444.225.167.518.167h1.488q.108 0 .196.096.088.084.157.24.068.144.108.336.039.192.039.408 0 .216-.04.408-.039.192-.107.348-.069.144-.157.24-.088.084-.196.084H6.115zm-2.222-4.653h-.02q-.058 0-.225.096-.156.084-.372.227-.205.132-.44.312-.235.168-.431.324-.186.156-.313.276-.128.12-.128.168 0 .048.098.096t.226.072l.244.048q.118.012.157.012.068 0 .294-.036.225-.036.47-.108.244-.072.43-.168.186-.108.167-.228l-.157-1.091z" style="-inkscape-font-specification:Lateef"/></g><path fill="none" d="M110 0h5v5h-5z"/><path fill="none" d="M110 0h5v5h-5zM1 140h1v1H1z"/></svg>