<svg xmlns="http://www.w3.org/2000/svg" width="178" height="150"><path d="M170 26v6.411c1.196.444 2.205 1.06 2.991 1.761l.026-8.172zm4 0v8.312l1-.839V26zm2 0v6.607l1-.979v11.77l-1-1.007.038 52.609H178V26zm-2 14.686V95h1V41.525zm-1 .14c-.786.702-1.796 1.313-3 1.76L170.008 95h3z" fill="#06f"/><path d="M154 26v69h3V41.19c-1.324-1.016-2.125-2.272-2.125-3.663 0-1.39.801-2.675 2.125-3.69V26zm4 0v7.194c1.126-.643 2.496-1.129 4.026-1.398L162 26zm5 0l-.08 5.628c.33-.036.666-.04 1.006-.056L164 26h-1zm2 0v5.544c.683.009 1.343.081 1.985.168L167 26zm-7 15.86V95h4V43.23c-1.587-.269-2.875-.728-4-1.37zm9 1.482c-.64.087-1.303.131-1.985.14L165 95h2zm-4 .056V95h1l.006-51.546c-.34-.017-.677-.02-1.006-.056z" fill="#0cf"/><path d="M150 26.012V95h1V26.012zm-4 0V95h3V26.012zm-3 0V95h2V26.012zm-2 0V95h1V26.012zM135 24v71h3V26zm-3 2v69h2V26zm-3 0v69h2V26zm-4 0v69h1V26zm-4 0v69h1V26zm-5 0v69h2V26zm-4 0v69h1V26zm-2 0v69h1V26zm-2 0v69h1V26zm-5 0v69h2V26zm-4 0v69h1V26zm-4.017.012L95 95h1l-.017-68.988z" fill="#00d400"/><path d="M90 21v74h2V21zm-2 5v69h1V26zm-3-16v85h2V10zm-4 16v69h3V26zm-4 0v69h1V26zm-3-6v75h2V20zm-4 6v69h3V26zm-4 0v69h1V26zm-2 0v69h1V26zm-5.026-.083L59 95h2l-.027-69.083zM55 15v80h1V15zm-3 11v69h2V26zm-6 0v69h3V26zm-2 0v69h1V26zm-4 0v69h1V26zm-3 0v69h2V26z" fill="#fc0"/><path d="M33 20v75h1V20zm-3-1v76h2V19zm-4 7v69h3V26zm-4 0v69h3V26zm-3-6v75h2V20zm-4 1v74h3V21zm-4 5v69h1V26zm-3 0v69h1V26zm-5.001-.083V95h1V25.917zm-2.999 0V95h2V25.917z" fill="red"/><path d="M12.96 20.168c.63-.816.72-2.676 1.282-4.359.405-1.213.463-4.597 1.208-4.882.969-.371 3.17-.358 4.224-.417 2.3-.128 4.52 1.099 6.823 1.101 2.99.004 8.861-1.41 8.861-1.41l-.14-2.04 1.505.279 4.077-.517-3.008 1.386s1.202-.02 1.688.277c.705.432.96 1.347 1.469 2 .292.373 1.082.654.908 1.095-.47 1.19-3.809.486-3.809.486L36.13 14.97c-.833 1.78-2.262 3.262-2.254 6.722 0 0-6.007-.923-8.991-.796-1.764.074-4.97.618-4.97.618-1.608-.137-3.296-.53-4.904-.25.01-6.235.866-6.128.698-9.294-.439 1.68-.97 4.516-1.026 5.772-.535 1.526-.012 1.9-1.723 2.426z" fill="red"/><g transform="rotate(-37.635 30.68 -53.687) scale(.01879)" fill="#fc0"><ellipse ry="32.857" rx="65.714" cy="762.362" cx="567.143" transform="rotate(-54.359 554.927 858.045)"/><path d="M494.286 741.648s14.409-2.316 20.714-5.714c22.088-11.904 53.571-52.858 53.571-52.858s-33.141 43.14-40 65c-2.071 6.604-1.428 20.715-1.428 20.715z"/></g><g fill="#fc0"><g transform="translate(47.682 5.652) scale(.0188)"><ellipse ry="32.857" rx="65.714" cy="762.362" cx="567.143" transform="rotate(-54.359 554.927 858.045)"/><path d="M494.286 741.648s14.409-2.316 20.714-5.714c22.088-11.904 53.571-52.858 53.571-52.858s-33.141 43.14-40 65c-2.071 6.604-1.428 20.715-1.428 20.715z"/></g><g transform="translate(47.682 7.444) scale(.0188)"><ellipse ry="32.857" rx="65.714" cy="762.362" cx="567.143" transform="rotate(-54.359 554.927 858.045)"/><path d="M494.286 741.648s14.409-2.316 20.714-5.714c22.088-11.904 53.571-52.858 53.571-52.858s-33.141 43.14-40 65c-2.071 6.604-1.428 20.715-1.428 20.715z"/></g><g transform="translate(47.682 3.86) scale(.0188)"><ellipse ry="32.857" rx="65.714" cy="762.362" cx="567.143" transform="rotate(-54.359 554.927 858.045)"/><path d="M494.286 741.648s14.409-2.316 20.714-5.714c22.088-11.904 53.571-52.858 53.571-52.858s-33.141 43.14-40 65c-2.071 6.604-1.428 20.715-1.428 20.715z"/></g><g transform="translate(47.682 2.068) scale(.0188)"><ellipse ry="32.857" rx="65.714" cy="762.362" cx="567.143" transform="rotate(-54.359 554.927 858.045)"/><path d="M494.286 741.648s14.409-2.316 20.714-5.714c22.088-11.904 53.571-52.858 53.571-52.858s-33.141 43.14-40 65c-2.071 6.604-1.428 20.715-1.428 20.715z"/></g><g transform="rotate(-10.644 34.013 -239.594) scale(.01879)"><ellipse ry="32.857" rx="65.714" cy="762.362" cx="567.143" transform="rotate(-54.359 554.927 858.045)"/><path d="M494.286 741.648s14.409-2.316 20.714-5.714c22.088-11.904 53.571-52.858 53.571-52.858s-33.141 43.14-40 65c-2.071 6.604-1.428 20.715-1.428 20.715z"/></g><g transform="matrix(-.0188 0 0 .0188 63.268 5.652)"><ellipse ry="32.857" rx="65.714" cy="762.362" cx="567.143" transform="rotate(-54.359 554.927 858.045)"/><path d="M494.286 741.648s14.409-2.316 20.714-5.714c22.088-11.904 53.571-52.858 53.571-52.858s-33.141 43.14-40 65c-2.071 6.604-1.428 20.715-1.428 20.715z"/></g><g transform="matrix(-.0188 0 0 .0188 63.268 7.444)"><ellipse ry="32.857" rx="65.714" cy="762.362" cx="567.143" transform="rotate(-54.359 554.927 858.045)"/><path d="M494.286 741.648s14.409-2.316 20.714-5.714c22.088-11.904 53.571-52.858 53.571-52.858s-33.141 43.14-40 65c-2.071 6.604-1.428 20.715-1.428 20.715z"/></g><g transform="matrix(-.0188 0 0 .0188 63.268 3.86)"><ellipse ry="32.857" rx="65.714" cy="762.362" cx="567.143" transform="rotate(-54.359 554.927 858.045)"/><path d="M494.286 741.648s14.409-2.316 20.714-5.714c22.088-11.904 53.571-52.858 53.571-52.858s-33.141 43.14-40 65c-2.071 6.604-1.428 20.715-1.428 20.715z"/></g><g transform="matrix(-.0188 0 0 .0188 63.268 2.068)"><ellipse ry="32.857" rx="65.714" cy="762.362" cx="567.143" transform="rotate(-54.359 554.927 858.045)"/><path d="M494.286 741.648s14.409-2.316 20.714-5.714c22.088-11.904 53.571-52.858 53.571-52.858s-33.141 43.14-40 65c-2.071 6.604-1.428 20.715-1.428 20.715z"/></g><g transform="matrix(-.01847 -.00348 -.00348 .01847 65.983 2.178)"><ellipse ry="32.857" rx="65.714" cy="762.362" cx="567.143" transform="rotate(-54.359 554.927 858.045)"/><path d="M494.286 741.648s14.409-2.316 20.714-5.714c22.088-11.904 53.571-52.858 53.571-52.858s-33.141 43.14-40 65c-2.071 6.604-1.428 20.715-1.428 20.715z"/></g></g><g transform="rotate(-48.948 -310.85 675.412) scale(.73933)" fill="#fc0"><circle r="2.5" cy="732.362" cx="608" transform="translate(1.5 9.75)"/><circle r="2.5" cy="732.362" cx="608" transform="rotate(-72 612.96 733.705)"/><circle r="2.5" cy="732.362" cx="608" transform="rotate(-144 607.834 734.494)"/><circle r="2.5" cy="732.362" cx="608" transform="rotate(144 604.666 734.98)"/><circle r="2.5" cy="732.362" cx="608" transform="rotate(72 599.54 735.77)"/></g><g transform="matrix(-.64917 -.35383 .35383 -.64917 218.165 702.908)" fill="#fc0"><circle r="2.5" cy="732.362" cx="608" transform="translate(1.5 9.75)"/><circle r="2.5" cy="732.362" cx="608" transform="rotate(-72 612.96 733.705)"/><circle r="2.5" cy="732.362" cx="608" transform="rotate(-144 607.834 734.494)"/><circle r="2.5" cy="732.362" cx="608" transform="rotate(144 604.666 734.98)"/><circle r="2.5" cy="732.362" cx="608" transform="rotate(72 599.54 735.77)"/></g><g transform="matrix(.3145 -.6691 .6691 .3145 -610.582 190.809)" fill="#fc0"><circle r="2.5" cy="732.362" cx="608" transform="translate(1.5 9.75)"/><circle r="2.5" cy="732.362" cx="608" transform="rotate(-72 612.96 733.705)"/><circle r="2.5" cy="732.362" cx="608" transform="rotate(-144 607.834 734.494)"/><circle r="2.5" cy="732.362" cx="608" transform="rotate(144 604.666 734.98)"/><circle r="2.5" cy="732.362" cx="608" transform="rotate(72 599.54 735.77)"/></g><path d="M122.447 6.337c9.189.95 12.63 8.43 12.553 21.663l2.964-1.399c0-1.462-.026-1.249-.026-2.71 0-10.868-6.404-17.276-10.911-18.344z" fill="#00d400"/><path d="M109.295 21.713c8.936-2.556 20.004-3.048 18.061-16.131-17.114-8.055-11.346 7.067-18.06 16.13z" fill="#00d400"/><path d="M128.43 4.225c-4.446 6.14-14.13 15.176-20.084 17.87 5.978-2.223 17.58-11.33 20.084-17.87z" fill="#fff"/><path d="M154.928 21.605c-8.784-3.034-19.81-4.123-17.165-17.082 18.215-5.51 10.95 7.669 17.165 17.082z" fill="#00d400"/><path d="M136.764 3.11c4.109 6.371 13.292 15.916 19.091 18.927-5.848-2.542-16.943-12.26-19.09-18.927z" fill="#fff"/><path d="M137.878 4.604C135.885 6.169 135.077 14.768 135 28l2.964-1.399c0-1.462.036 1.86.036.399 0-10.867.859-19.322 1.215-21.118z" fill="#00d400"/><circle r=".949" cy="35.276" cx="159.092" fill="#0cf"/><path d="M170 118v5h8v-5h-8z" fill="#06f"/><path d="M154 118v5h13v-5h-13z" fill="#0cf"/><path d="M95 118v5h56v-5H95z" fill="#00d400"/><path d="M37 118v5h55v-5H37z" fill="#fc0"/><path d="M0 118v5h34v-5H0z" fill="red"/><g style="line-height:125%;-inkscape-font-specification:'Arial Narrow'" font-weight="400" font-size="22.903" font-family="Arial Narrow" letter-spacing="0" word-spacing="0" fill="#333"><path d="M.295 106.822c0-2.796.615-4.945 1.846-6.447 1.23-1.502 2.762-2.253 4.596-2.253 1.185 0 2.266.335 3.243 1.006.976.671 1.75 1.646 2.32 2.924.57 1.279.856 2.802.856 4.569 0 2.43-.552 4.41-1.655 5.938-1.216 1.685-2.807 2.527-4.775 2.527-1.984 0-3.579-.865-4.787-2.594-1.096-1.566-1.644-3.456-1.644-5.67zm1.834.033c0 2.02.446 3.588 1.337 4.703.89 1.114 1.973 1.672 3.248 1.672 1.305 0 2.4-.563 3.283-1.689.883-1.126 1.325-2.78 1.325-4.965 0-1.41-.228-2.67-.682-3.78-.35-.85-.878-1.53-1.583-2.04a3.842 3.842 0 0 0-2.31-.767c-1.341 0-2.446.56-3.315 1.678-.868 1.118-1.303 2.847-1.303 5.188zM15 115V98h4.675c1.224 0 2.127.107 2.708.321.796.291 1.431.83 1.905 1.619.475.788.712 1.755.712 2.903 0 1.515-.386 2.75-1.16 3.707-.772.956-2.107 1.424-4.004 1.435L17 108v7zm2-9h2.87c1.125-.001 1.947-.255 2.467-.764s.78-1.276.78-2.301c0-.666-.127-1.236-.384-1.71-.256-.474-.566-.8-.93-.976-.363-.176-1.019-.264-1.967-.264L17 100zm10 9V98h10v2h-8v5h7v2h-7v6h8v2zm12 0V98h2l7 13V98h2v17h-2l-7-13v13zm19 0V98h9v2h-7v5h6v2h-6v8zm10.256-8.178c0-2.796.615-4.945 1.845-6.447 1.23-1.502 2.762-2.253 4.596-2.253 1.186 0 2.267.335 3.243 1.006.977.671 1.75 1.646 2.32 2.924.571 1.279.856 2.802.856 4.569 0 2.43-.551 4.41-1.655 5.938-1.215 1.685-2.807 2.527-4.775 2.527-1.983 0-3.578-.865-4.786-2.594-1.096-1.566-1.644-3.456-1.644-5.67zm1.834.033c0 2.02.445 3.588 1.336 4.703.891 1.114 1.974 1.672 3.249 1.672 1.305 0 2.399-.563 3.282-1.689.884-1.126 1.325-2.78 1.325-4.965 0-1.41-.227-2.67-.682-3.78-.35-.85-.878-1.53-1.582-2.04-.705-.512-1.474-.767-2.31-.767-1.341 0-2.447.56-3.315 1.677-.869 1.119-1.303 2.848-1.303 5.19zm12.793-.033c0-2.796.615-4.945 1.846-6.447 1.23-1.502 2.762-2.253 4.596-2.253 1.185 0 2.266.335 3.243 1.006.976.671 1.75 1.646 2.32 2.924.57 1.279.856 2.802.856 4.569 0 2.43-.552 4.41-1.655 5.938-1.216 1.685-2.807 2.527-4.775 2.527-1.984 0-3.579-.865-4.787-2.594-1.096-1.566-1.644-3.456-1.644-5.67zm1.834.033c0 2.02.446 3.588 1.337 4.703.89 1.114 1.973 1.672 3.248 1.672 1.305 0 2.4-.563 3.283-1.689.883-1.126 1.325-2.78 1.325-4.965 0-1.41-.228-2.67-.682-3.78-.35-.85-.878-1.53-1.583-2.04a3.842 3.842 0 0 0-2.31-.767c-1.341 0-2.446.56-3.315 1.677-.868 1.119-1.303 2.848-1.303 5.19zM98 115V98h5c1.213 0 2.005.174 2.635.383.827.27 1.543.72 2.15 1.437.606.718 1.079 1.623 1.417 2.715.339 1.093.508 2.388.508 3.885 0 1.922-.287 3.553-.862 4.892-.575 1.34-1.313 2.289-2.215 2.849-.902.56-2.176.839-3.633.839zm2-2h3c1.22 0 2.017-.198 2.647-.588.63-.39 1.114-1.017 1.453-1.881.448-1.15.673-2.528.673-4.134 0-1.721-.238-3.074-.715-4.058-.476-.985-1.088-1.643-1.836-1.975-.504-.224-1.127-.364-2.222-.364h-3zm18 2l.076-17h9v2h-7v5h6v2h-6v8zm10.076 0l5-17h2l5 17h-2l-4-15-4.04 15zm23.285-5.942l1.79.548c-.396 1.842-1.087 3.216-2.075 4.121-.988.906-2.19 1.36-3.606 1.36-1.245 0-2.31-.305-3.193-.912-.884-.608-1.607-1.583-2.17-2.925-.562-1.342-.844-2.926-.844-4.752 0-1.805.282-3.331.844-4.58.563-1.249 1.326-2.192 2.287-2.83a5.703 5.703 0 0 1 3.221-.955c1.297 0 2.412.404 3.344 1.213.932.809 1.584 1.996 1.957 3.562l-1.745.503c-.596-2.281-1.793-3.422-3.59-3.422-.894 0-1.67.23-2.326.688-.656.458-1.18 1.172-1.57 2.141-.392.97-.588 2.196-.588 3.68 0 2.244.395 3.927 1.186 5.049.79 1.122 1.841 1.683 3.153 1.683.97 0 1.806-.345 2.51-1.035.705-.69 1.177-1.735 1.415-3.137zM159 115v-15l-5 .006V98h12v2h-5v15zm8.268-5.46l1.678-.18c.09.903.292 1.605.61 2.108.316.504.769.908 1.358 1.214.589.305 1.252.458 1.99.458 1.06 0 1.881-.259 2.466-.777.586-.518.878-1.19.878-2.018 0-.485-.106-.908-.319-1.27-.212-.361-.533-.658-.961-.889-.429-.23-1.355-.555-2.78-.973-1.267-.372-2.169-.749-2.706-1.13a3.944 3.944 0 0 1-1.252-1.447c-.298-.586-.447-1.247-.447-1.985 0-1.327.428-2.412 1.286-3.255.857-.842 2.013-1.263 3.466-1.263 1 0 1.874.197 2.623.592.75.396 1.33.962 1.744 1.7.414.738.636 1.607.666 2.606l-1.711.156c-.09-1.066-.408-1.856-.956-2.37-.548-.515-1.318-.772-2.31-.772-1.006 0-1.774.226-2.303.677-.53.45-.794 1.034-.794 1.75 0 .663.194 1.178.581 1.543.388.365 1.26.734 2.617 1.107 1.327.365 2.259.682 2.796.95.82.418 1.439.968 1.856 1.65.418.682.626 1.497.626 2.444a5.09 5.09 0 0 1-.66 2.566 4.434 4.434 0 0 1-1.794 1.761c-.757.403-1.668.604-2.735.604-1.662 0-2.987-.5-3.975-1.498-.988-1-1.5-2.352-1.538-4.06z"/><path d="M137.076 108v2h-6v-2z"/></g><path d="M0 139.613V125.48h1.157v14.133H0zm7.427-1.263q-.582.742-1.212 1.118-.63.376-1.306.376-1.07 0-1.707-.79-.637-.791-.637-2.131 0-.887.299-1.571.299-.685.818-1.07.52-.386 1.573-.57 1.417-.25 2.077-.597l.008-.443q0-1.05-.307-1.475-.432-.617-1.33-.617-.81 0-1.21.414-.402.405-.59 1.533l-1.142-.231q.244-1.649.984-2.4.747-.752 2.132-.752 1.078 0 1.691.5.614.493.771 1.225.166.733.166 2.14v2.314q0 2.429.07 3.065.08.627.3 1.225H7.662q-.181-.53-.236-1.263zm-.095-3.876q-.637.386-1.896.656-.731.154-1.022.357-.291.192-.457.559-.157.356-.157.829 0 .732.37 1.176.37.434 1.022.434.622 0 1.126-.396.51-.395.763-1.05.251-.665.251-1.928v-.637zm6.672-6.998v-1.996h1.156v1.996h-1.156zm0 12.137v-10.238h1.156v10.238h-1.156zm2.926 0v-10.238h1.047v1.456q.378-.849.92-1.263.551-.424 1.26-.424.55 0 1.014.27.472.26.755.694.292.424.433 1.108.142.685.142 2.102v6.295h-1.165v-6.228q0-1.128-.157-1.648t-.496-.8q-.33-.29-.77-.29-.835 0-1.33.762-.496.762-.496 2.612v5.592h-1.156zm7.695 0v-8.888h-1.03v-1.35h1.03v-1.09q0-1.204.205-1.802.204-.607.621-.925.425-.319 1.062-.319.496 0 1.086.174l-.173 1.513q-.362-.096-.685-.096-.519 0-.747.337-.22.328-.22 1.263v.945h1.337v1.35h-1.337v8.888h-1.149zm2.919-5.119q0-2.651.905-4 .912-1.35 2.305-1.35 1.369 0 2.29 1.35.92 1.349.92 3.894 0 2.757-.905 4.106-.905 1.35-2.305 1.35-1.377 0-2.298-1.35-.912-1.359-.912-4zm1.188 0q0 1.986.59 2.96.59.963 1.463.963.818 0 1.4-.973.59-.984.59-2.95 0-1.976-.59-2.94-.59-.974-1.463-.974-.826 0-1.408.974-.582.973-.582 2.94zm6.608 5.119v-10.238h1.047v1.552q.401-1.08.731-1.427.339-.356.756-.356.582 0 1.188.559l-.394 1.61q-.432-.376-.842-.376-.37 0-.676.318-.307.318-.433.887-.22.993-.22 2.11v5.36H35.34zm4.422 0v-10.238H40.8v1.436q.347-.8.89-1.234.542-.433 1.187-.433.724 0 1.22.462.503.453.716 1.33.409-.896.936-1.34.535-.452 1.18-.452.983 0 1.55.819.566.82.566 2.622v7.028H47.89v-6.45q0-1.099-.134-1.552-.126-.462-.417-.713-.29-.25-.653-.25-.747 0-1.22.732-.471.723-.471 2.285v5.948H43.83v-6.652q0-1.272-.322-1.793-.315-.52-.874-.52-.794 0-1.258.79-.457.78-.457 2.863v5.312h-1.156zm15.468-1.263q-.583.742-1.212 1.118-.63.376-1.306.376-1.07 0-1.708-.79-.637-.791-.637-2.131 0-.887.3-1.571.298-.685.817-1.07.52-.386 1.574-.57 1.416-.25 2.077-.597l.008-.443q0-1.05-.307-1.475-.433-.617-1.33-.617-.81 0-1.211.414-.402.405-.59 1.533l-1.141-.231q.244-1.649.983-2.4.748-.752 2.132-.752 1.078 0 1.692.5.613.493.77 1.225.166.733.166 2.14v2.314q0 2.429.07 3.065.08.627.3 1.225h-1.212q-.18-.53-.236-1.263zm-.095-3.876q-.637.386-1.896.656-.732.154-1.023.357-.291.192-.456.559-.158.356-.158.829 0 .732.37 1.176.37.434 1.023.434.621 0 1.125-.396.511-.395.763-1.05.252-.665.252-1.928v-.637zm7.482 1.389l1.14.221q-.196 1.832-.99 2.796-.788.964-1.897.964-1.345 0-2.219-1.35-.865-1.359-.865-4.01 0-2.67.873-4 .882-1.34 2.258-1.34 1.062 0 1.786.81.732.81.936 2.429l-1.125.26q-.165-1.041-.574-1.552-.409-.52-.983-.52-.858 0-1.424.934-.559.926-.559 2.95 0 2.092.535 3.027.543.935 1.385.935.66 0 1.125-.617.472-.626.598-1.937zm2.116-8.387v-1.996h1.157v1.996h-1.157zm0 12.137v-10.238h1.157v10.238h-1.157zm2.494-5.119q0-2.651.905-4 .912-1.35 2.305-1.35 1.369 0 2.29 1.35.92 1.349.92 3.894 0 2.757-.905 4.106-.905 1.35-2.305 1.35-1.377 0-2.297-1.35-.913-1.359-.913-4zm1.188 0q0 1.986.59 2.96.59.963 1.463.963.819 0 1.4-.973.59-.984.59-2.95 0-1.976-.59-2.94-.59-.974-1.463-.974-.826 0-1.408.974-.582.973-.582 2.94zm1.172-6.391l.858-2.7h1.518l-1.416 2.7h-.96zm5.437 11.51v-10.238h1.046v1.456q.378-.849.92-1.263.551-.424 1.26-.424.55 0 1.014.27.472.26.755.694.291.424.433 1.108.142.685.142 2.102v6.295h-1.165v-6.228q0-1.128-.157-1.648t-.496-.8q-.33-.29-.77-.29-.835 0-1.33.762-.496.762-.496 2.612v5.592h-1.156zm15.514-1.263q-.582.742-1.212 1.118-.629.376-1.305.376-1.07 0-1.708-.79-.637-.791-.637-2.131 0-.887.299-1.571.299-.685.818-1.07.52-.386 1.574-.57 1.416-.25 2.077-.597l.008-.443q0-1.05-.307-1.475-.433-.617-1.33-.617-.81 0-1.211.414-.401.405-.59 1.533l-1.141-.231q.244-1.649.983-2.4.748-.752 2.132-.752 1.078 0 1.692.5.614.493.771 1.225.165.733.165 2.14v2.314q0 2.429.071 3.065.079.627.299 1.225h-1.212q-.18-.53-.236-1.263zm-.094-3.876q-.638.386-1.896.656-.732.154-1.023.357-.291.192-.456.559-.158.356-.158.829 0 .732.37 1.176.37.434 1.023.434.621 0 1.125-.396.511-.395.763-1.05.252-.665.252-1.928v-.637zm2.958 5.139V125.48h1.156v14.133h-1.156zm2.958-12.137v-1.996h1.156v1.996H96.36zm0 12.137v-10.238h1.156v10.238H96.36zm2.942 0v-10.238h1.039v1.436q.346-.8.889-1.234.543-.433 1.188-.433.724 0 1.22.462.503.453.715 1.33.41-.896.936-1.34.535-.452 1.18-.452.984 0 1.55.819.567.82.567 2.622v7.028h-1.157v-6.45q0-1.099-.133-1.552-.126-.462-.417-.713-.291-.25-.653-.25-.748 0-1.22.732-.472.723-.472 2.285v5.948h-1.164v-6.652q0-1.272-.323-1.793-.314-.52-.873-.52-.795 0-1.259.79-.456.78-.456 2.863v5.312h-1.157zm15.688-3.297l1.196.221q-.3 1.64-1.086 2.478-.779.829-1.935.829-1.456 0-2.36-1.35-.897-1.359-.897-3.913 0-2.651.904-4.04.913-1.397 2.306-1.397 1.33 0 2.218 1.368.89 1.37.89 3.962l-.009.463h-5.114q.071 1.726.653 2.603.582.877 1.416.877 1.306 0 1.818-2.101zm-3.816-2.806h3.824q-.079-1.33-.464-1.985-.559-.955-1.424-.955-.78 0-1.33.8-.55.79-.606 2.14zm6.491 6.103v-10.238h1.046v1.456q.378-.849.92-1.263.551-.424 1.26-.424.55 0 1.014.27.472.26.756.694.29.424.432 1.108.142.685.142 2.102v6.295h-1.164v-6.228q0-1.128-.158-1.648-.157-.52-.495-.8-.33-.29-.771-.29-.834 0-1.33.762-.496.762-.496 2.612v5.592h-1.156zm9.952-1.553l.157 1.533q-.48.154-.865.154-.606 0-.975-.289-.37-.299-.512-.81-.134-.51-.134-2.033v-5.89h-.85v-1.35h.85v-2.535l1.157-1.041v3.576h1.172v1.35h-1.172v5.986q0 .829.102 1.07.15.347.559.347.196 0 .511-.068zm5.563.29q-.583.742-1.212 1.118-.63.376-1.306.376-1.07 0-1.707-.79-.638-.791-.638-2.131 0-.887.3-1.571.298-.685.818-1.07.519-.386 1.573-.57 1.416-.25 2.077-.597l.008-.443q0-1.05-.307-1.475-.432-.617-1.33-.617-.81 0-1.21.414-.402.405-.59 1.533l-1.142-.231q.244-1.649.984-2.4.747-.752 2.132-.752 1.078 0 1.691.5.614.493.771 1.225.166.733.166 2.14v2.314q0 2.429.07 3.065.079.627.3 1.225h-1.212q-.181-.53-.236-1.263zm-.095-3.876q-.637.386-1.896.656-.732.154-1.023.357-.29.192-.456.559-.157.356-.157.829 0 .732.37 1.176.37.434 1.022.434.622 0 1.125-.396.511-.395.763-1.05.252-.665.252-1.928v-.637zm2.99 5.139v-10.238h1.046v1.552q.401-1.08.732-1.427.338-.356.755-.356.582 0 1.188.559l-.393 1.61q-.433-.376-.842-.376-.37 0-.677.318-.307.318-.433.887-.22.993-.22 2.11v5.36h-1.156zm4.405-12.137v-1.996h1.157v1.996h-1.157zm0 12.137v-10.238h1.157v10.238h-1.157zm7.396-1.263q-.582.742-1.212 1.118-.63.376-1.306.376-1.07 0-1.707-.79-.637-.791-.637-2.131 0-.887.299-1.571.299-.685.818-1.07.52-.386 1.573-.57 1.416-.25 2.077-.597l.008-.443q0-1.05-.306-1.475-.433-.617-1.33-.617-.81 0-1.212.414-.4.405-.59 1.533l-1.14-.231q.243-1.649.983-2.4.747-.752 2.132-.752 1.078 0 1.692.5.613.493.77 1.225.166.733.166 2.14v2.314q0 2.429.07 3.065.08.627.3 1.225h-1.212q-.18-.53-.236-1.263zm-.095-3.876q-.637.386-1.896.656-.731.154-1.023.357-.29.192-.456.559-.157.356-.157.829 0 .732.37 1.176.37.434 1.022.434.622 0 1.125-.396.512-.395.764-1.05.251-.665.251-1.928v-.637zm6.64 5.139V125.48h1.157v14.133h-1.157zm2.959-12.137v-1.996h1.156v1.996h-1.156zm0 12.137v-10.238h1.156v10.238h-1.156zm3.996 0h-1.078V125.48h1.157v5.042q.37-.694.834-1.031.472-.347 1.046-.347.803 0 1.456.588.66.588 1.054 1.783.393 1.195.393 2.902 0 2.602-.889 4.02-.889 1.407-2.077 1.407-.598 0-1.078-.376-.472-.386-.818-1.138v1.283zm-.016-5.196q0 1.59.236 2.38.236.791.67 1.206.432.414.959.414.716 0 1.267-.983.558-.993.558-2.96 0-2.014-.535-2.959-.535-.945-1.314-.945-.716 0-1.282.993-.559.983-.559 2.854zm6.31 5.196v-10.238h1.046v1.552q.402-1.08.732-1.427.338-.356.755-.356.583 0 1.188.559l-.393 1.61q-.433-.376-.842-.376-.37 0-.676.318-.307.318-.433.887-.22.993-.22 2.11v5.36h-1.157zm9.095-3.297l1.196.221q-.3 1.64-1.086 2.478-.779.829-1.935.829-1.456 0-2.36-1.35-.898-1.359-.898-3.913 0-2.651.905-4.04.913-1.397 2.305-1.397 1.33 0 2.219 1.368.889 1.37.889 3.962l-.008.463h-5.114q.07 1.726.653 2.603.582.877 1.416.877 1.306 0 1.818-2.101zm-3.816-2.806h3.824q-.079-1.33-.464-1.985-.56-.955-1.424-.955-.78 0-1.33.8-.55.79-.606 2.14z" style="line-height:125%;-inkscape-font-specification:'Arial Narrow'" font-weight="400" font-size="17.835" font-family="Arial Narrow" letter-spacing="0" word-spacing="0" fill="#333"/><path fill="none" d="M110 0h5v5h-5z"/><path fill="none" d="M110 0h5v5h-5zM1 140h1v1H1z"/></svg>