<?xml version="1.0" encoding="UTF-8" standalone="no"?>
<!-- Created with Inkscape (http://www.inkscape.org/) -->

<svg
   xmlns:dc="http://purl.org/dc/elements/1.1/"
   xmlns:cc="http://creativecommons.org/ns#"
   xmlns:rdf="http://www.w3.org/1999/02/22-rdf-syntax-ns#"
   xmlns:svg="http://www.w3.org/2000/svg"
   xmlns="http://www.w3.org/2000/svg"
   xmlns:sodipodi="http://sodipodi.sourceforge.net/DTD/sodipodi-0.dtd"
   xmlns:inkscape="http://www.inkscape.org/namespaces/inkscape"
   width="178"
   height="150"
   id="svg8313"
   version="1.1"
   inkscape:version="0.91 r13725"
   sodipodi:docname="openfoodfacts-logo-th.svg"
   inkscape:export-filename="/Users/pierreslam/Desktop/openfoodfacts-logo-th-large.png"
   inkscape:export-xdpi="2224.8"
   inkscape:export-ydpi="2224.8">
  <defs
     id="defs8315" />
  <sodipodi:namedview
     id="base"
     pagecolor="#ffffff"
     bordercolor="#666666"
     borderopacity="1.0"
     inkscape:pageopacity="0.0"
     inkscape:pageshadow="2"
     inkscape:zoom="3.949244"
     inkscape:cx="95.623018"
     inkscape:cy="60.895435"
     inkscape:document-units="px"
     inkscape:current-layer="layer1"
     showgrid="true"
     inkscape:window-width="1405"
     inkscape:window-height="855"
     inkscape:window-x="35"
     inkscape:window-y="1"
     inkscape:window-maximized="1"
     inkscape:snap-global="true">
    <inkscape:grid
       type="xygrid"
       id="grid8566" />
  </sodipodi:namedview>
  <metadata
     id="metadata8318">
    <rdf:RDF>
      <cc:Work
         rdf:about="">
        <dc:format>image/svg+xml</dc:format>
        <dc:type
           rdf:resource="http://purl.org/dc/dcmitype/StillImage" />
        <dc:title></dc:title>
      </cc:Work>
    </rdf:RDF>
  </metadata>
  <g
     inkscape:label="Calque 1"
     inkscape:groupmode="layer"
     id="layer1">
    <path
       inkscape:export-ydpi="360"
       inkscape:export-xdpi="360"
       inkscape:export-filename="C:\Users\Stéphane\Desktop\Blogs\OpenFoodFacts\off-logo-en.712x575.png"
       inkscape:connector-curvature="0"
       style="fill:#0066ff;fill-opacity:1;fill-rule:nonzero;stroke:none"
       d="m 170,26 0,6.41101 c 1.19571,0.444338 2.20515,1.060483 2.99122,1.761208 L 173.01672,26 Z m 4,0 0,8.312003 1,-0.838676 L 175,26 Z m 2,0 0,6.606702 1,-0.978462 0,11.7694 -1,-1.00641 L 176.0383,95 178,95 178,26 Z M 174,40.685929 174,95 l 1,0 0,-53.475406 z m -1,0.139774 c -0.78598,0.701951 -1.79569,1.313237 -3,1.76122 L 170.008,95 l 3,0 z"
       id="path7944"
       sodipodi:nodetypes="ccccccccccccccccccccccccccccc" />
    <path
       inkscape:export-ydpi="360"
       inkscape:export-xdpi="360"
       inkscape:export-filename="C:\Users\Stéphane\Desktop\Blogs\OpenFoodFacts\off-logo-en.712x575.png"
       inkscape:connector-curvature="0"
       style="fill:#00ccff;fill-opacity:1;fill-rule:nonzero;stroke:none"
       d="m 154,26 0,69 3,0 0,-53.810872 c -1.32362,-1.014805 -2.12462,-2.271422 -2.12462,-3.662215 0,-1.390781 0.801,-2.675356 2.12462,-3.690161 L 157,26 Z m 4,0 0,7.193768 c 1.12603,-0.642997 2.49599,-1.128715 4.02565,-1.397795 L 162,26 Z m 5,0 -0.08,5.62824 c 0.32965,-0.03644 0.66619,-0.03965 1.00641,-0.05585 L 164,26.000057 c -0.35153,4.6e-5 -0.64847,-3.3e-5 -1,-5.7e-5 z m 2,0 0,5.544374 c 0.68266,0.0083 1.34304,0.08097 1.9849,0.167733 L 167,26 Z M 158,41.860072 158,95 l 4,0 0,-51.770093 c -1.58676,-0.26883 -2.87451,-0.727732 -4,-1.369835 z m 9,1.481649 c -0.64077,0.08753 -1.30349,0.131652 -1.9849,0.139785 L 165,95 l 2,0 z m -4,0.05597 L 163,95 l 1,0 0.006,-51.546402 c -0.34022,-0.01632 -0.67676,-0.01941 -1.00641,-0.05585 z"
       id="path7946"
       sodipodi:nodetypes="ccccscccccccccccccccccccccccccccccccccc" />
    <path
       inkscape:export-ydpi="360"
       inkscape:export-xdpi="360"
       inkscape:export-filename="C:\Users\Stéphane\Desktop\Blogs\OpenFoodFacts\off-logo-en.712x575.png"
       inkscape:connector-curvature="0"
       id="path7948"
       d="M 150,26.012039 150,95 l 1,0 0,-68.987961 z"
       style="fill:#00d400;fill-opacity:1;fill-rule:nonzero;stroke:none"
       sodipodi:nodetypes="ccccc" />
    <path
       inkscape:export-ydpi="360"
       inkscape:export-xdpi="360"
       inkscape:export-filename="C:\Users\Stéphane\Desktop\Blogs\OpenFoodFacts\off-logo-en.712x575.png"
       inkscape:connector-curvature="0"
       id="path7950"
       d="M 146,26.012039 146,95 l 3,0 0,-68.987961 z"
       style="fill:#00d400;fill-opacity:1;fill-rule:nonzero;stroke:none"
       sodipodi:nodetypes="ccccc" />
    <path
       inkscape:export-ydpi="360"
       inkscape:export-xdpi="360"
       inkscape:export-filename="C:\Users\Stéphane\Desktop\Blogs\OpenFoodFacts\off-logo-en.712x575.png"
       inkscape:connector-curvature="0"
       id="path7952"
       d="M 143,26.012039 143,95 l 2,0 0,-68.987961 z"
       style="fill:#00d400;fill-opacity:1;fill-rule:nonzero;stroke:none"
       sodipodi:nodetypes="ccccc" />
    <path
       inkscape:export-ydpi="360"
       inkscape:export-xdpi="360"
       inkscape:export-filename="C:\Users\Stéphane\Desktop\Blogs\OpenFoodFacts\off-logo-en.712x575.png"
       inkscape:connector-curvature="0"
       id="path7954"
       d="M 141,26.012039 141,95 l 1,0 0,-68.987961 z"
       style="fill:#00d400;fill-opacity:1;fill-rule:nonzero;stroke:none"
       sodipodi:nodetypes="ccccc" />
    <path
       inkscape:export-ydpi="360"
       inkscape:export-xdpi="360"
       inkscape:export-filename="C:\Users\Stéphane\Desktop\Blogs\OpenFoodFacts\off-logo-en.712x575.png"
       inkscape:connector-curvature="0"
       id="path7956"
       d="m 135,24 0,71 3,0 -5e-5,-69 z"
       style="fill:#00d400;fill-opacity:1;fill-rule:nonzero;stroke:none"
       sodipodi:nodetypes="ccccc" />
    <path
       inkscape:export-ydpi="360"
       inkscape:export-xdpi="360"
       inkscape:export-filename="C:\Users\Stéphane\Desktop\Blogs\OpenFoodFacts\off-logo-en.712x575.png"
       inkscape:connector-curvature="0"
       id="path7958"
       d="m 132,26 0,69 2,0 -4e-5,-69 z"
       style="fill:#00d400;fill-opacity:1;fill-rule:nonzero;stroke:none"
       sodipodi:nodetypes="ccccc" />
    <path
       inkscape:export-ydpi="360"
       inkscape:export-xdpi="360"
       inkscape:export-filename="C:\Users\Stéphane\Desktop\Blogs\OpenFoodFacts\off-logo-en.712x575.png"
       inkscape:connector-curvature="0"
       id="path7960"
       d="m 129,26 0,69 2,0 1e-5,-69 z"
       style="fill:#00d400;fill-opacity:1;fill-rule:nonzero;stroke:none"
       sodipodi:nodetypes="ccccc" />
    <path
       inkscape:export-ydpi="360"
       inkscape:export-xdpi="360"
       inkscape:export-filename="C:\Users\Stéphane\Desktop\Blogs\OpenFoodFacts\off-logo-en.712x575.png"
       inkscape:connector-curvature="0"
       id="path7962"
       d="m 125,26 0,69 1,0 5e-5,-69 z"
       style="fill:#00d400;fill-opacity:1;fill-rule:nonzero;stroke:none"
       sodipodi:nodetypes="ccccc" />
    <path
       inkscape:export-ydpi="360"
       inkscape:export-xdpi="360"
       inkscape:export-filename="C:\Users\Stéphane\Desktop\Blogs\OpenFoodFacts\off-logo-en.712x575.png"
       inkscape:connector-curvature="0"
       id="path7964"
       d="m 121,26 0,69 1,0 6e-5,-69 z"
       style="fill:#00d400;fill-opacity:1;fill-rule:nonzero;stroke:none"
       sodipodi:nodetypes="ccccc" />
    <path
       inkscape:export-ydpi="360"
       inkscape:export-xdpi="360"
       inkscape:export-filename="C:\Users\Stéphane\Desktop\Blogs\OpenFoodFacts\off-logo-en.712x575.png"
       inkscape:connector-curvature="0"
       id="path7966"
       d="m 116,26 0,69 2,0 1e-5,-69 z"
       style="fill:#00d400;fill-opacity:1;fill-rule:nonzero;stroke:none"
       sodipodi:nodetypes="ccccc" />
    <path
       inkscape:export-ydpi="360"
       inkscape:export-xdpi="360"
       inkscape:export-filename="C:\Users\Stéphane\Desktop\Blogs\OpenFoodFacts\off-logo-en.712x575.png"
       inkscape:connector-curvature="0"
       id="path7968"
       d="m 112,26 0,69 1,0 -5e-5,-69 z"
       style="fill:#00d400;fill-opacity:1;fill-rule:nonzero;stroke:none"
       sodipodi:nodetypes="ccccc" />
    <path
       inkscape:export-ydpi="360"
       inkscape:export-xdpi="360"
       inkscape:export-filename="C:\Users\Stéphane\Desktop\Blogs\OpenFoodFacts\off-logo-en.712x575.png"
       inkscape:connector-curvature="0"
       id="path7970"
       d="m 110,26 0,69 1,0 -5e-5,-69 z"
       style="fill:#00d400;fill-opacity:1;fill-rule:nonzero;stroke:none"
       sodipodi:nodetypes="ccccc" />
    <path
       inkscape:export-ydpi="360"
       inkscape:export-xdpi="360"
       inkscape:export-filename="C:\Users\Stéphane\Desktop\Blogs\OpenFoodFacts\off-logo-en.712x575.png"
       inkscape:connector-curvature="0"
       id="path7972"
       d="m 108,26 0,69 1,0 4e-5,-69 z"
       style="fill:#00d400;fill-opacity:1;fill-rule:nonzero;stroke:none"
       sodipodi:nodetypes="ccccc" />
    <path
       inkscape:export-ydpi="360"
       inkscape:export-xdpi="360"
       inkscape:export-filename="C:\Users\Stéphane\Desktop\Blogs\OpenFoodFacts\off-logo-en.712x575.png"
       inkscape:connector-curvature="0"
       id="path7974"
       d="m 103,26 0,69 2,0 1e-5,-69 z"
       style="fill:#00d400;fill-opacity:1;fill-rule:nonzero;stroke:none"
       sodipodi:nodetypes="ccccc" />
    <path
       inkscape:export-ydpi="360"
       inkscape:export-xdpi="360"
       inkscape:export-filename="C:\Users\Stéphane\Desktop\Blogs\OpenFoodFacts\off-logo-en.712x575.png"
       inkscape:connector-curvature="0"
       id="path7976"
       d="m 99,26 0,69 1,0 -10e-7,-69 z"
       style="fill:#00d400;fill-opacity:1;fill-rule:nonzero;stroke:none"
       sodipodi:nodetypes="ccccc" />
    <path
       inkscape:export-ydpi="360"
       inkscape:export-xdpi="360"
       inkscape:export-filename="C:\Users\Stéphane\Desktop\Blogs\OpenFoodFacts\off-logo-en.712x575.png"
       inkscape:connector-curvature="0"
       id="path7978"
       d="M 94.983089,26.012039 95,95 96,95 95.98263,26.012039 Z"
       style="fill:#00d400;fill-opacity:1;fill-rule:nonzero;stroke:none"
       sodipodi:nodetypes="ccccc" />
    <path
       inkscape:export-ydpi="360"
       inkscape:export-xdpi="360"
       inkscape:export-filename="C:\Users\Stéphane\Desktop\Blogs\OpenFoodFacts\off-logo-en.712x575.png"
       inkscape:connector-curvature="0"
       id="path7980"
       d="m 90,21 0,74 2,0 3e-6,-74 z"
       style="fill:#ffcc00;fill-opacity:1;fill-rule:nonzero;stroke:none"
       sodipodi:nodetypes="ccccc" />
    <path
       inkscape:export-ydpi="360"
       inkscape:export-xdpi="360"
       inkscape:export-filename="C:\Users\Stéphane\Desktop\Blogs\OpenFoodFacts\off-logo-en.712x575.png"
       inkscape:connector-curvature="0"
       id="path7983"
       d="m 88,26 0,69 1,0 10e-7,-69 z"
       style="fill:#ffcc00;fill-opacity:1;fill-rule:nonzero;stroke:none"
       sodipodi:nodetypes="ccccc" />
    <path
       inkscape:export-ydpi="360"
       inkscape:export-xdpi="360"
       inkscape:export-filename="C:\Users\Stéphane\Desktop\Blogs\OpenFoodFacts\off-logo-en.712x575.png"
       inkscape:connector-curvature="0"
       id="path7985"
       d="m 85,10 0,85 2,0 0,-85 z"
       style="fill:#ffcc00;fill-opacity:1;fill-rule:nonzero;stroke:none"
       sodipodi:nodetypes="ccccc" />
    <path
       inkscape:export-ydpi="360"
       inkscape:export-xdpi="360"
       inkscape:export-filename="C:\Users\Stéphane\Desktop\Blogs\OpenFoodFacts\off-logo-en.712x575.png"
       inkscape:connector-curvature="0"
       id="path7987"
       d="m 81,26 0,69 3,0 4e-6,-69 z"
       style="fill:#ffcc00;fill-opacity:1;fill-rule:nonzero;stroke:none"
       sodipodi:nodetypes="ccccc" />
    <path
       inkscape:export-ydpi="360"
       inkscape:export-xdpi="360"
       inkscape:export-filename="C:\Users\Stéphane\Desktop\Blogs\OpenFoodFacts\off-logo-en.712x575.png"
       inkscape:connector-curvature="0"
       id="path7989"
       d="m 77,26 0,69 1,0 3e-6,-69 z"
       style="fill:#ffcc00;fill-opacity:1;fill-rule:nonzero;stroke:none"
       sodipodi:nodetypes="ccccc" />
    <path
       inkscape:export-ydpi="360"
       inkscape:export-xdpi="360"
       inkscape:export-filename="C:\Users\Stéphane\Desktop\Blogs\OpenFoodFacts\off-logo-en.712x575.png"
       inkscape:connector-curvature="0"
       id="path7991"
       d="m 74,20 0,75 2,0 -7e-6,-75 z"
       style="fill:#ffcc00;fill-opacity:1;fill-rule:nonzero;stroke:none"
       sodipodi:nodetypes="ccccc" />
    <path
       inkscape:export-ydpi="360"
       inkscape:export-xdpi="360"
       inkscape:export-filename="C:\Users\Stéphane\Desktop\Blogs\OpenFoodFacts\off-logo-en.712x575.png"
       inkscape:connector-curvature="0"
       id="path7993"
       d="m 70,26 0,69 3,0 4e-6,-69 z"
       style="fill:#ffcc00;fill-opacity:1;fill-rule:nonzero;stroke:none"
       sodipodi:nodetypes="ccccc" />
    <path
       inkscape:export-ydpi="360"
       inkscape:export-xdpi="360"
       inkscape:export-filename="C:\Users\Stéphane\Desktop\Blogs\OpenFoodFacts\off-logo-en.712x575.png"
       inkscape:connector-curvature="0"
       id="path7995"
       d="m 66,26 0,69 1,0 3e-6,-69 z"
       style="fill:#ffcc00;fill-opacity:1;fill-rule:nonzero;stroke:none"
       sodipodi:nodetypes="ccccc" />
    <path
       inkscape:export-ydpi="360"
       inkscape:export-xdpi="360"
       inkscape:export-filename="C:\Users\Stéphane\Desktop\Blogs\OpenFoodFacts\off-logo-en.712x575.png"
       inkscape:connector-curvature="0"
       id="path7997"
       d="m 64,26 0,69 1,0 10e-7,-69 z"
       style="fill:#ffcc00;fill-opacity:1;fill-rule:nonzero;stroke:none"
       sodipodi:nodetypes="ccccc" />
    <path
       inkscape:export-ydpi="360"
       inkscape:export-xdpi="360"
       inkscape:export-filename="C:\Users\Stéphane\Desktop\Blogs\OpenFoodFacts\off-logo-en.712x575.png"
       inkscape:connector-curvature="0"
       id="path7999"
       d="M 58.973701,25.916822 59,95 61,95 60.9728,25.916822 Z"
       style="fill:#ffcc00;fill-opacity:1;fill-rule:nonzero;stroke:none"
       sodipodi:nodetypes="ccccc" />
    <path
       inkscape:export-ydpi="360"
       inkscape:export-xdpi="360"
       inkscape:export-filename="C:\Users\Stéphane\Desktop\Blogs\OpenFoodFacts\off-logo-en.712x575.png"
       inkscape:connector-curvature="0"
       id="path8001"
       d="m 55,15 0,80 1,0 -9e-6,-80 z"
       style="fill:#ffcc00;fill-opacity:1;fill-rule:nonzero;stroke:none"
       sodipodi:nodetypes="ccccc" />
    <path
       inkscape:export-ydpi="360"
       inkscape:export-xdpi="360"
       inkscape:export-filename="C:\Users\Stéphane\Desktop\Blogs\OpenFoodFacts\off-logo-en.712x575.png"
       inkscape:connector-curvature="0"
       id="path8003"
       d="m 52,26 0,69 2,0 3e-6,-69 z"
       style="fill:#ffcc00;fill-opacity:1;fill-rule:nonzero;stroke:none"
       sodipodi:nodetypes="ccccc" />
    <path
       inkscape:export-ydpi="360"
       inkscape:export-xdpi="360"
       inkscape:export-filename="C:\Users\Stéphane\Desktop\Blogs\OpenFoodFacts\off-logo-en.712x575.png"
       inkscape:connector-curvature="0"
       id="path8005"
       d="m 46,26 0,69 3,0 -7e-6,-69 z"
       style="fill:#ffcc00;fill-opacity:1;fill-rule:nonzero;stroke:none"
       sodipodi:nodetypes="ccccc" />
    <path
       inkscape:export-ydpi="360"
       inkscape:export-xdpi="360"
       inkscape:export-filename="C:\Users\Stéphane\Desktop\Blogs\OpenFoodFacts\off-logo-en.712x575.png"
       inkscape:connector-curvature="0"
       id="path8007"
       d="m 44,26 0,69 1,0 10e-7,-69 z"
       style="fill:#ffcc00;fill-opacity:1;fill-rule:nonzero;stroke:none"
       sodipodi:nodetypes="ccccc" />
    <path
       inkscape:export-ydpi="360"
       inkscape:export-xdpi="360"
       inkscape:export-filename="C:\Users\Stéphane\Desktop\Blogs\OpenFoodFacts\off-logo-en.712x575.png"
       inkscape:connector-curvature="0"
       id="path8009"
       d="m 40,26 0,69 1,0 2e-6,-69 z"
       style="fill:#ffcc00;fill-opacity:1;fill-rule:nonzero;stroke:none"
       sodipodi:nodetypes="ccccc" />
    <path
       inkscape:export-ydpi="360"
       inkscape:export-xdpi="360"
       inkscape:export-filename="C:\Users\Stéphane\Desktop\Blogs\OpenFoodFacts\off-logo-en.712x575.png"
       inkscape:connector-curvature="0"
       id="path8011"
       d="m 37,26 0,69 2,0 4e-6,-69 z"
       style="fill:#ffcc00;fill-opacity:1;fill-rule:nonzero;stroke:none"
       sodipodi:nodetypes="ccccc" />
    <path
       inkscape:export-ydpi="360"
       inkscape:export-xdpi="360"
       inkscape:export-filename="C:\Users\Stéphane\Desktop\Blogs\OpenFoodFacts\off-logo-en.712x575.png"
       inkscape:connector-curvature="0"
       id="path8013"
       d="m 33,20 0,75 1,0 -7e-6,-75 z"
       style="fill:#ff0000;fill-opacity:1;fill-rule:nonzero;stroke:none"
       sodipodi:nodetypes="ccccc" />
    <path
       inkscape:export-ydpi="360"
       inkscape:export-xdpi="360"
       inkscape:export-filename="C:\Users\Stéphane\Desktop\Blogs\OpenFoodFacts\off-logo-en.712x575.png"
       inkscape:connector-curvature="0"
       id="path8015"
       d="m 30,19 0,76 2,0 4e-6,-76 z"
       style="fill:#ff0000;fill-opacity:1;fill-rule:nonzero;stroke:none"
       sodipodi:nodetypes="ccccc" />
    <path
       inkscape:export-ydpi="360"
       inkscape:export-xdpi="360"
       inkscape:export-filename="C:\Users\Stéphane\Desktop\Blogs\OpenFoodFacts\off-logo-en.712x575.png"
       inkscape:connector-curvature="0"
       id="path8017"
       d="m 26,26 0,69 3,0 0,-69 z"
       style="fill:#ff0000;fill-opacity:1;fill-rule:nonzero;stroke:none"
       sodipodi:nodetypes="ccccc" />
    <path
       inkscape:export-ydpi="360"
       inkscape:export-xdpi="360"
       inkscape:export-filename="C:\Users\Stéphane\Desktop\Blogs\OpenFoodFacts\off-logo-en.712x575.png"
       inkscape:connector-curvature="0"
       id="path8019"
       d="m 22,26 0,69 3,0 -5e-6,-69 z"
       style="fill:#ff0000;fill-opacity:1;fill-rule:nonzero;stroke:none"
       sodipodi:nodetypes="ccccc" />
    <path
       inkscape:export-ydpi="360"
       inkscape:export-xdpi="360"
       inkscape:export-filename="C:\Users\Stéphane\Desktop\Blogs\OpenFoodFacts\off-logo-en.712x575.png"
       inkscape:connector-curvature="0"
       id="path8021"
       d="m 19,20 0,75 2,0 -8.6e-5,-75 z"
       style="fill:#ff0000;fill-opacity:1;fill-rule:nonzero;stroke:none"
       sodipodi:nodetypes="ccccc" />
    <path
       inkscape:export-ydpi="360"
       inkscape:export-xdpi="360"
       inkscape:export-filename="C:\Users\Stéphane\Desktop\Blogs\OpenFoodFacts\off-logo-en.712x575.png"
       inkscape:connector-curvature="0"
       id="path8023"
       d="m 15,21 0,74 3,0 -3.5e-5,-74 z"
       style="fill:#ff0000;fill-opacity:1;fill-rule:nonzero;stroke:none"
       sodipodi:nodetypes="ccccc" />
    <path
       inkscape:export-ydpi="360"
       inkscape:export-xdpi="360"
       inkscape:export-filename="C:\Users\Stéphane\Desktop\Blogs\OpenFoodFacts\off-logo-en.712x575.png"
       inkscape:connector-curvature="0"
       id="path8025"
       d="m 11,26 0,69 1,0 -4.9e-5,-69 z"
       style="fill:#ff0000;fill-opacity:1;fill-rule:nonzero;stroke:none"
       sodipodi:nodetypes="ccccc" />
    <path
       inkscape:export-ydpi="360"
       inkscape:export-xdpi="360"
       inkscape:export-filename="C:\Users\Stéphane\Desktop\Blogs\OpenFoodFacts\off-logo-en.712x575.png"
       inkscape:connector-curvature="0"
       id="path8027"
       d="M 8,26 8,95 9,95 9,26 Z"
       style="fill:#ff0000;fill-opacity:1;fill-rule:nonzero;stroke:none"
       sodipodi:nodetypes="ccccc" />
    <path
       inkscape:export-ydpi="360"
       inkscape:export-xdpi="360"
       inkscape:export-filename="C:\Users\Stéphane\Desktop\Blogs\OpenFoodFacts\off-logo-en.712x575.png"
       inkscape:connector-curvature="0"
       id="path8029"
       d="m 2.9986784,25.916822 0,69.083178 0.9995629,0 0,-69.083178 z"
       style="fill:#ff0000;fill-opacity:1;fill-rule:nonzero;stroke:none"
       sodipodi:nodetypes="ccccc" />
    <path
       inkscape:export-ydpi="360"
       inkscape:export-xdpi="360"
       inkscape:export-filename="C:\Users\Stéphane\Desktop\Blogs\OpenFoodFacts\off-logo-en.712x575.png"
       inkscape:connector-curvature="0"
       id="path8031"
       d="m 1.3499883e-5,25.916822 0,69.083178 1.999113900117,0 0,-69.083178 z"
       style="fill:#ff0000;fill-opacity:1;fill-rule:nonzero;stroke:none"
       sodipodi:nodetypes="ccccc" />
    <path
       sodipodi:nodetypes="csssacccccssscccsccccc"
       inkscape:connector-curvature="0"
       id="path8033"
       d="m 12.96037,20.168037 c 0.62972,-0.815576 0.719123,-2.676154 1.281409,-4.358843 0.405305,-1.212926 0.463533,-4.596987 1.208651,-4.882429 0.96834,-0.370951 3.169601,-0.358079 4.223988,-0.416629 2.300059,-0.127699 4.518931,1.098659 6.822539,1.101136 2.990853,0.0036 8.861008,-1.410596 8.861008,-1.410596 l -0.140119,-2.0388259 1.505607,0.2780586 4.07695,-0.5169049 -3.008404,1.3861371 c 0,0 1.201864,-0.021077 1.688022,0.2768321 0.705048,0.432109 0.959994,1.347377 1.46892,1.999162 0.291967,0.373928 1.082477,0.65438 0.908337,1.095671 -0.469844,1.190611 -3.808977,0.485944 -3.808977,0.485944 l -1.918736,1.803326 c -0.833009,1.778987 -2.26137,3.261839 -2.253596,6.722383 0,0 -6.006891,-0.923008 -8.991183,-0.79663 -1.764007,0.07466 -4.968974,0.618073 -4.968974,0.618073 -1.608718,-0.13719 -3.296502,-0.529063 -4.905219,-0.24954 0.0095,-6.235485 0.866683,-6.128862 0.69876,-9.294821 -0.439183,1.679986 -0.971056,4.516551 -1.026843,5.772464 -0.534756,1.525804 -0.01191,1.899672 -1.72214,2.426032 z"
       style="fill:#ff0000;fill-opacity:1"
       inkscape:export-filename="C:\Users\Stéphane\Desktop\Blogs\OpenFoodFacts\off-logo-en.712x575.png"
       inkscape:export-xdpi="360"
       inkscape:export-ydpi="360" />
    <g
       style="fill:#ffcc00"
       transform="matrix(0.01488015,-0.01147672,0.01147672,0.01488015,39.17529,7.5675208)"
       id="g8035"
       inkscape:export-filename="C:\Users\Stéphane\Desktop\Blogs\OpenFoodFacts\off-logo-en.712x575.png"
       inkscape:export-xdpi="360"
       inkscape:export-ydpi="360">
      <ellipse
         ry="32.857143"
         rx="65.714287"
         cy="762.36218"
         cx="567.14288"
         style="fill:#ffcc00;fill-opacity:1;stroke:none"
         id="path8037"
         transform="matrix(0.58270937,-0.81268061,0.81268061,0.58270937,-465.7507,809.03262)" />
      <path
         style="fill:#ffcc00;fill-opacity:1;stroke:none"
         d="m 494.28571,741.6479 c 0,0 14.40901,-2.31616 20.71429,-5.71428 22.08801,-11.90395 53.57143,-52.85715 53.57143,-52.85715 0,0 -33.14169,43.13867 -40,64.99999 -2.07174,6.60382 -1.42857,20.71429 -1.42857,20.71429 z"
         id="path8039"
         inkscape:connector-curvature="0"
         sodipodi:nodetypes="cscscc" />
    </g>
    <g
       transform="matrix(0.89458574,0,0,0.89458574,-468.13007,-644.42698)"
       id="g8041"
       inkscape:export-filename="C:\Users\Stéphane\Desktop\Blogs\OpenFoodFacts\off-logo-en.712x575.png"
       inkscape:export-xdpi="360"
       inkscape:export-ydpi="360">
      <g
         id="g8043"
         transform="translate(-9.5459416,1.1490485)"
         style="fill:#ffcc00">
        <g
           transform="matrix(0.02100622,0,0,0.02100622,586.13922,725.53281)"
           id="g8045"
           style="fill:#ffcc00">
          <ellipse
             ry="32.857143"
             rx="65.714287"
             cy="762.36218"
             cx="567.14288"
             style="fill:#ffcc00;fill-opacity:1;stroke:none"
             id="path8047"
             transform="matrix(0.58270937,-0.81268061,0.81268061,0.58270937,-465.7507,809.03262)" />
          <path
             style="fill:#ffcc00;fill-opacity:1;stroke:none"
             d="m 494.28571,741.6479 c 0,0 14.40901,-2.31616 20.71429,-5.71428 22.08801,-11.90395 53.57143,-52.85715 53.57143,-52.85715 0,0 -33.14169,43.13867 -40,64.99999 -2.07174,6.60382 -1.42857,20.71429 -1.42857,20.71429 z"
             id="path8049"
             inkscape:connector-curvature="0"
             sodipodi:nodetypes="cscscc" />
        </g>
        <g
           transform="matrix(0.02100622,0,0,0.02100622,586.13922,727.5359)"
           id="g8051"
           style="fill:#ffcc00">
          <ellipse
             ry="32.857143"
             rx="65.714287"
             cy="762.36218"
             cx="567.14288"
             style="fill:#ffcc00;fill-opacity:1;stroke:none"
             id="path8053"
             transform="matrix(0.58270937,-0.81268061,0.81268061,0.58270937,-465.7507,809.03262)" />
          <path
             style="fill:#ffcc00;fill-opacity:1;stroke:none"
             d="m 494.28571,741.6479 c 0,0 14.40901,-2.31616 20.71429,-5.71428 22.08801,-11.90395 53.57143,-52.85715 53.57143,-52.85715 0,0 -33.14169,43.13867 -40,64.99999 -2.07174,6.60382 -1.42857,20.71429 -1.42857,20.71429 z"
             id="path8055"
             inkscape:connector-curvature="0"
             sodipodi:nodetypes="cscscc" />
        </g>
        <g
           transform="matrix(0.02100622,0,0,0.02100622,586.13922,723.52972)"
           id="g8057"
           style="fill:#ffcc00">
          <ellipse
             ry="32.857143"
             rx="65.714287"
             cy="762.36218"
             cx="567.14288"
             style="fill:#ffcc00;fill-opacity:1;stroke:none"
             id="path8059"
             transform="matrix(0.58270937,-0.81268061,0.81268061,0.58270937,-465.7507,809.03262)" />
          <path
             style="fill:#ffcc00;fill-opacity:1;stroke:none"
             d="m 494.28571,741.6479 c 0,0 14.40901,-2.31616 20.71429,-5.71428 22.08801,-11.90395 53.57143,-52.85715 53.57143,-52.85715 0,0 -33.14169,43.13867 -40,64.99999 -2.07174,6.60382 -1.42857,20.71429 -1.42857,20.71429 z"
             id="path8061"
             inkscape:connector-curvature="0"
             sodipodi:nodetypes="cscscc" />
        </g>
        <g
           transform="matrix(0.02100622,0,0,0.02100622,586.13922,721.52662)"
           id="g8063"
           style="fill:#ffcc00">
          <ellipse
             ry="32.857143"
             rx="65.714287"
             cy="762.36218"
             cx="567.14288"
             style="fill:#ffcc00;fill-opacity:1;stroke:none"
             id="path8065"
             transform="matrix(0.58270937,-0.81268061,0.81268061,0.58270937,-465.7507,809.03262)" />
          <path
             style="fill:#ffcc00;fill-opacity:1;stroke:none"
             d="m 494.28571,741.6479 c 0,0 14.40901,-2.31616 20.71429,-5.71428 22.08801,-11.90395 53.57143,-52.85715 53.57143,-52.85715 0,0 -33.14169,43.13867 -40,64.99999 -2.07174,6.60382 -1.42857,20.71429 -1.42857,20.71429 z"
             id="path8067"
             inkscape:connector-curvature="0"
             sodipodi:nodetypes="cscscc" />
        </g>
        <g
           transform="matrix(0.02064274,-0.0038908,0.0038908,0.02064274,583.1049,721.64932)"
           id="g8069"
           style="fill:#ffcc00">
          <ellipse
             ry="32.857143"
             rx="65.714287"
             cy="762.36218"
             cx="567.14288"
             style="fill:#ffcc00;fill-opacity:1;stroke:none"
             id="path8071"
             transform="matrix(0.58270937,-0.81268061,0.81268061,0.58270937,-465.7507,809.03262)" />
          <path
             style="fill:#ffcc00;fill-opacity:1;stroke:none"
             d="m 494.28571,741.6479 c 0,0 14.40901,-2.31616 20.71429,-5.71428 22.08801,-11.90395 53.57143,-52.85715 53.57143,-52.85715 0,0 -33.14169,43.13867 -40,64.99999 -2.07174,6.60382 -1.42857,20.71429 -1.42857,20.71429 z"
             id="path8073"
             inkscape:connector-curvature="0"
             sodipodi:nodetypes="cscscc" />
        </g>
      </g>
      <g
         id="g8075"
         style="fill:#ffcc00"
         transform="translate(-10.253048,1.1490485)">
        <g
           transform="matrix(-0.02100622,0,0,0.02100622,604.26937,725.53281)"
           id="g8077"
           style="fill:#ffcc00">
          <ellipse
             ry="32.857143"
             rx="65.714287"
             cy="762.36218"
             cx="567.14288"
             style="fill:#ffcc00;fill-opacity:1;stroke:none"
             id="path8079"
             transform="matrix(0.58270937,-0.81268061,0.81268061,0.58270937,-465.7507,809.03262)" />
          <path
             style="fill:#ffcc00;fill-opacity:1;stroke:none"
             d="m 494.28571,741.6479 c 0,0 14.40901,-2.31616 20.71429,-5.71428 22.08801,-11.90395 53.57143,-52.85715 53.57143,-52.85715 0,0 -33.14169,43.13867 -40,64.99999 -2.07174,6.60382 -1.42857,20.71429 -1.42857,20.71429 z"
             id="path8081"
             inkscape:connector-curvature="0"
             sodipodi:nodetypes="cscscc" />
        </g>
        <g
           transform="matrix(-0.02100622,0,0,0.02100622,604.26938,727.5359)"
           id="g8083"
           style="fill:#ffcc00">
          <ellipse
             ry="32.857143"
             rx="65.714287"
             cy="762.36218"
             cx="567.14288"
             style="fill:#ffcc00;fill-opacity:1;stroke:none"
             id="path8085"
             transform="matrix(0.58270937,-0.81268061,0.81268061,0.58270937,-465.7507,809.03262)" />
          <path
             style="fill:#ffcc00;fill-opacity:1;stroke:none"
             d="m 494.28571,741.6479 c 0,0 14.40901,-2.31616 20.71429,-5.71428 22.08801,-11.90395 53.57143,-52.85715 53.57143,-52.85715 0,0 -33.14169,43.13867 -40,64.99999 -2.07174,6.60382 -1.42857,20.71429 -1.42857,20.71429 z"
             id="path8087"
             inkscape:connector-curvature="0"
             sodipodi:nodetypes="cscscc" />
        </g>
        <g
           transform="matrix(-0.02100622,0,0,0.02100622,604.26938,723.52972)"
           id="g8089"
           style="fill:#ffcc00">
          <ellipse
             ry="32.857143"
             rx="65.714287"
             cy="762.36218"
             cx="567.14288"
             style="fill:#ffcc00;fill-opacity:1;stroke:none"
             id="path8091"
             transform="matrix(0.58270937,-0.81268061,0.81268061,0.58270937,-465.7507,809.03262)" />
          <path
             style="fill:#ffcc00;fill-opacity:1;stroke:none"
             d="m 494.28571,741.6479 c 0,0 14.40901,-2.31616 20.71429,-5.71428 22.08801,-11.90395 53.57143,-52.85715 53.57143,-52.85715 0,0 -33.14169,43.13867 -40,64.99999 -2.07174,6.60382 -1.42857,20.71429 -1.42857,20.71429 z"
             id="path8093"
             inkscape:connector-curvature="0"
             sodipodi:nodetypes="cscscc" />
        </g>
        <g
           transform="matrix(-0.02100622,0,0,0.02100622,604.26937,721.52662)"
           id="g8095"
           style="fill:#ffcc00">
          <ellipse
             ry="32.857143"
             rx="65.714287"
             cy="762.36218"
             cx="567.14288"
             style="fill:#ffcc00;fill-opacity:1;stroke:none"
             id="path8097"
             transform="matrix(0.58270937,-0.81268061,0.81268061,0.58270937,-465.7507,809.03262)" />
          <path
             style="fill:#ffcc00;fill-opacity:1;stroke:none"
             d="m 494.28571,741.6479 c 0,0 14.40901,-2.31616 20.71429,-5.71428 22.08801,-11.90395 53.57143,-52.85715 53.57143,-52.85715 0,0 -33.14169,43.13867 -40,64.99999 -2.07174,6.60382 -1.42857,20.71429 -1.42857,20.71429 z"
             id="path8099"
             inkscape:connector-curvature="0"
             sodipodi:nodetypes="cscscc" />
        </g>
        <g
           transform="matrix(-0.02064274,-0.0038908,-0.0038908,0.02064274,607.30369,721.64932)"
           id="g8101"
           style="fill:#ffcc00">
          <ellipse
             ry="32.857143"
             rx="65.714287"
             cy="762.36218"
             cx="567.14288"
             style="fill:#ffcc00;fill-opacity:1;stroke:none"
             id="path8103"
             transform="matrix(0.58270937,-0.81268061,0.81268061,0.58270937,-465.7507,809.03262)" />
          <path
             style="fill:#ffcc00;fill-opacity:1;stroke:none"
             d="m 494.28571,741.6479 c 0,0 14.40901,-2.31616 20.71429,-5.71428 22.08801,-11.90395 53.57143,-52.85715 53.57143,-52.85715 0,0 -33.14169,43.13867 -40,64.99999 -2.07174,6.60382 -1.42857,20.71429 -1.42857,20.71429 z"
             id="path8105"
             inkscape:connector-curvature="0"
             sodipodi:nodetypes="cscscc" />
        </g>
      </g>
    </g>
    <g
       id="g8107"
       transform="matrix(0.485552,-0.55754244,0.55754244,0.485552,-616.03955,-2.5771103)"
       inkscape:export-filename="C:\Users\Stéphane\Desktop\Blogs\OpenFoodFacts\off-logo-en.712x575.png"
       inkscape:export-xdpi="360"
       inkscape:export-ydpi="360">
      <circle
         r="2.5"
         cy="732.36218"
         cx="608"
         style="fill:#ffcc00;fill-opacity:1"
         id="path8109"
         transform="translate(1.5,9.75)" />
      <circle
         r="2.5"
         cy="732.36218"
         cx="608"
         id="path8111"
         style="fill:#ffcc00;fill-opacity:1"
         inkscape:transform-center-x="-3.1501887"
         inkscape:transform-center-y="-1.6050895"
         transform="matrix(0.30901699,-0.95105652,0.95105652,0.30901699,-274.24997,1089.9371)" />
      <circle
         r="2.5"
         cy="732.36218"
         cx="608"
         transform="matrix(-0.809017,-0.58778525,0.58778525,-0.809017,667.85758,1685.9871)"
         inkscape:transform-center-y="-3.4919705"
         inkscape:transform-center-x="0.5530674"
         style="fill:#ffcc00;fill-opacity:1"
         id="path8113" />
      <circle
         r="2.5"
         cy="732.36218"
         cx="608"
         id="path8115"
         style="fill:#ffcc00;fill-opacity:1"
         inkscape:transform-center-x="3.4919258"
         inkscape:transform-center-y="-0.5530731"
         transform="matrix(-0.80901699,0.58778526,-0.58778526,-0.80901699,1525.8621,974.17912)" />
      <circle
         r="2.5"
         cy="732.36218"
         cx="608"
         transform="matrix(0.309017,0.95105651,-0.95105651,0.309017,1114.0304,-61.792435)"
         inkscape:transform-center-y="3.1501051"
         inkscape:transform-center-x="1.6050854"
         style="fill:#ffcc00;fill-opacity:1"
         id="path8117" />
    </g>
    <g
       transform="matrix(-0.6491698,-0.35382606,0.35382606,-0.6491698,218.16484,702.9075)"
       id="g8119"
       inkscape:export-filename="C:\Users\Stéphane\Desktop\Blogs\OpenFoodFacts\off-logo-en.712x575.png"
       inkscape:export-xdpi="360"
       inkscape:export-ydpi="360">
      <circle
         r="2.5"
         cy="732.36218"
         cx="608"
         transform="translate(1.5,9.75)"
         id="path8121"
         style="fill:#ffcc00;fill-opacity:1" />
      <circle
         r="2.5"
         cy="732.36218"
         cx="608"
         transform="matrix(0.30901699,-0.95105652,0.95105652,0.30901699,-274.24997,1089.9371)"
         inkscape:transform-center-y="-1.6050895"
         inkscape:transform-center-x="-3.1501887"
         style="fill:#ffcc00;fill-opacity:1"
         id="path8123" />
      <circle
         r="2.5"
         cy="732.36218"
         cx="608"
         id="path8125"
         style="fill:#ffcc00;fill-opacity:1"
         inkscape:transform-center-x="0.5530674"
         inkscape:transform-center-y="-3.4919705"
         transform="matrix(-0.809017,-0.58778525,0.58778525,-0.809017,667.85758,1685.9871)" />
      <circle
         r="2.5"
         cy="732.36218"
         cx="608"
         transform="matrix(-0.80901699,0.58778526,-0.58778526,-0.80901699,1525.8621,974.17912)"
         inkscape:transform-center-y="-0.5530731"
         inkscape:transform-center-x="3.4919258"
         style="fill:#ffcc00;fill-opacity:1"
         id="path8127" />
      <circle
         r="2.5"
         cy="732.36218"
         cx="608"
         id="path8129"
         style="fill:#ffcc00;fill-opacity:1"
         inkscape:transform-center-x="1.6050854"
         inkscape:transform-center-y="3.1501051"
         transform="matrix(0.309017,0.95105651,-0.95105651,0.309017,1114.0304,-61.792435)" />
    </g>
    <g
       id="g8131"
       transform="matrix(0.31450273,-0.66910564,0.66910564,0.31450273,-610.58237,190.80877)"
       inkscape:export-filename="C:\Users\Stéphane\Desktop\Blogs\OpenFoodFacts\off-logo-en.712x575.png"
       inkscape:export-xdpi="360"
       inkscape:export-ydpi="360">
      <circle
         r="2.5"
         cy="732.36218"
         cx="608"
         style="fill:#ffcc00;fill-opacity:1"
         id="path8133"
         transform="translate(1.5,9.75)" />
      <circle
         r="2.5"
         cy="732.36218"
         cx="608"
         id="path8135"
         style="fill:#ffcc00;fill-opacity:1"
         inkscape:transform-center-x="-3.1501887"
         inkscape:transform-center-y="-1.6050895"
         transform="matrix(0.30901699,-0.95105652,0.95105652,0.30901699,-274.24997,1089.9371)" />
      <circle
         r="2.5"
         cy="732.36218"
         cx="608"
         transform="matrix(-0.809017,-0.58778525,0.58778525,-0.809017,667.85758,1685.9871)"
         inkscape:transform-center-y="-3.4919705"
         inkscape:transform-center-x="0.5530674"
         style="fill:#ffcc00;fill-opacity:1"
         id="path8137" />
      <circle
         r="2.5"
         cy="732.36218"
         cx="608"
         id="path8139"
         style="fill:#ffcc00;fill-opacity:1"
         inkscape:transform-center-x="3.4919258"
         inkscape:transform-center-y="-0.5530731"
         transform="matrix(-0.80901699,0.58778526,-0.58778526,-0.80901699,1525.8621,974.17912)" />
      <circle
         r="2.5"
         cy="732.36218"
         cx="608"
         transform="matrix(0.309017,0.95105651,-0.95105651,0.309017,1114.0304,-61.792435)"
         inkscape:transform-center-y="3.1501051"
         inkscape:transform-center-x="1.6050854"
         style="fill:#ffcc00;fill-opacity:1"
         id="path8141" />
    </g>
    <path
       style="fill:#00d400;fill-opacity:1;fill-rule:nonzero;stroke:none"
       d="M 122.44657,6.3372804 C 131.63587,7.2870331 135.07702,14.767884 135,28 l 2.96392,-1.398609 c 0,-1.461895 -0.0255,-1.249361 -0.0255,-2.711244 0,-10.866897 -6.40398,-17.274677 -10.91182,-18.343579 z"
       id="path8143"
       inkscape:connector-curvature="0"
       inkscape:export-filename="C:\Users\Stéphane\Desktop\Blogs\OpenFoodFacts\off-logo-en.712x575.png"
       inkscape:export-xdpi="360"
       inkscape:export-ydpi="360"
       sodipodi:nodetypes="cccscc" />
    <g
       transform="matrix(0.89458574,0,0,0.89458574,-468.09845,-644.42698)"
       id="g8145"
       inkscape:export-filename="C:\Users\Stéphane\Desktop\Blogs\OpenFoodFacts\off-logo-en.712x575.png"
       inkscape:export-xdpi="360"
       inkscape:export-ydpi="360">
      <g
         transform="translate(-0.6875,-0.0625)"
         id="g8147">
        <path
           sodipodi:nodetypes="ccc"
           inkscape:connector-curvature="0"
           id="path8149"
           d="m 646.11882,744.69741 c 9.98853,-2.85699 22.36057,-3.40732 20.1894,-18.03175 -19.13147,-9.00363 -12.68327,7.89971 -20.1894,18.03175 z"
           style="fill:#00d400;stroke:none" />
        <path
           sodipodi:nodetypes="ccc"
           inkscape:connector-curvature="0"
           id="path8151"
           d="m 667.50879,725.1485 c -4.96993,6.86401 -15.79612,16.96445 -22.45063,19.97578 6.6817,-2.48508 19.65127,-12.66443 22.45063,-19.97578 z"
           style="fill:#ffffff;fill-opacity:1;stroke:none" />
      </g>
    </g>
    <g
       id="g8153"
       transform="matrix(0.73729109,0.50664139,0.50664139,-0.73729109,-728.9281,199.42539)"
       inkscape:export-filename="C:\Users\Stéphane\Desktop\Blogs\OpenFoodFacts\off-logo-en.712x575.png"
       inkscape:export-xdpi="360"
       inkscape:export-ydpi="360">
      <g
         transform="matrix(-0.85351374,-0.52107033,0.52107033,-0.85351374,864.58887,1695.2445)"
         id="g8155">
        <g
           transform="translate(-0.6875,-0.0625)"
           id="g8157">
          <path
             sodipodi:nodetypes="ccc"
             inkscape:connector-curvature="0"
             id="path8159"
             d="m 646.11882,744.69741 c 9.98853,-2.85699 22.36057,-3.40732 20.1894,-18.03175 -19.99874,-7.24796 -12.68327,7.89971 -20.1894,18.03175 z"
             style="fill:#00d400;stroke:none" />
          <path
             sodipodi:nodetypes="ccc"
             inkscape:connector-curvature="0"
             id="path8161"
             d="m 667.50879,725.1485 c -4.96993,6.86401 -15.79612,16.96445 -22.45063,19.97578 6.6817,-2.48508 19.65127,-12.66443 22.45063,-19.97578 z"
             style="fill:#ffffff;fill-opacity:1;stroke:none" />
        </g>
      </g>
    </g>
    <path
       sodipodi:nodetypes="cccscc"
       inkscape:export-ydpi="360"
       inkscape:export-xdpi="360"
       inkscape:export-filename="C:\Users\Stéphane\Desktop\Blogs\OpenFoodFacts\off-logo-en.712x575.png"
       inkscape:connector-curvature="0"
       id="path8163"
       d="M 137.87818,4.6040196 C 135.88514,6.1688092 135.07702,14.767884 135,28 l 2.96392,-1.398609 c 0,-1.461895 0.0361,1.860492 0.0361,0.398609 0,-10.866897 0.85886,-19.3222012 1.21536,-21.1179659 z"
       style="fill:#00d400;fill-opacity:1;fill-rule:nonzero;stroke:none" />
    <circle
       r="0.94885141"
       cy="35.27636"
       cx="159.09236"
       inkscape:export-ydpi="360"
       inkscape:export-xdpi="360"
       inkscape:export-filename="C:\Users\Stéphane\Desktop\Blogs\OpenFoodFacts\off-logo-en.712x575.png"
       style="fill:#00ccff;fill-opacity:1;stroke:none"
       id="path8165" />
    <g
       transform="matrix(0.89476596,0,0,0.89458574,-763.01815,-727.33576)"
       id="g8167"
       inkscape:export-filename="C:\Users\Stéphane\Desktop\Blogs\OpenFoodFacts\off-logo-en.712x575.png"
       inkscape:export-xdpi="360"
       inkscape:export-ydpi="360">
      <path
         inkscape:connector-curvature="0"
         style="fill:#0066ff;fill-opacity:1;fill-rule:nonzero;stroke:none"
         d="m 1042.7511,944.94661 0,5.58918 c 2.9792,0 5.9616,0 8.9408,0 l 0,-5.58918 c -2.9792,0 -5.9616,0 -8.9407,0 z"
         id="path8169"
         inkscape:export-filename="C:\Users\Stéphane\Desktop\Blogs\OpenFoodFacts\openfoodfacts-250b.png"
         inkscape:export-xdpi="112.45"
         inkscape:export-ydpi="112.45"
         sodipodi:nodetypes="cccccc" />
      <path
         inkscape:connector-curvature="0"
         style="fill:#00ccff;fill-opacity:1;fill-rule:nonzero;stroke:none"
         d="m 1024.8693,944.94661 0,5.58918 c 4.8438,0 9.6851,0 14.5289,0 l 0,-5.58918 c -4.8438,0 -9.6851,0 -14.5289,0 z"
         id="path8171"
         inkscape:export-filename="C:\Users\Stéphane\Desktop\Blogs\OpenFoodFacts\openfoodfacts-250b.png"
         inkscape:export-xdpi="112.45"
         inkscape:export-ydpi="112.45"
         sodipodi:nodetypes="ccccc" />
      <path
         inkscape:connector-curvature="0"
         style="fill:#00d400;fill-opacity:1;fill-rule:nonzero;stroke:none"
         d="m 958.93025,944.94661 0,5.58918 c 20.85417,0 41.73205,0 62.58625,0 l 0,-5.58918 c -20.8542,0 -41.73208,0 -62.58625,0 z"
         id="path8173"
         inkscape:export-filename="C:\Users\Stéphane\Desktop\Blogs\OpenFoodFacts\openfoodfacts-250b.png"
         inkscape:export-xdpi="112.45"
         inkscape:export-ydpi="112.45"
         sodipodi:nodetypes="ccccc" />
      <path
         inkscape:connector-curvature="0"
         style="fill:#ffcc00;fill-opacity:1;fill-rule:nonzero;stroke:none"
         d="m 894.10883,944.94661 0,5.58918 c 20.48959,0 40.97901,0 61.46859,0 l 0,-5.58918 c -20.48958,0 -40.979,0 -61.46859,0 z"
         id="path8175"
         inkscape:export-filename="C:\Users\Stéphane\Desktop\Blogs\OpenFoodFacts\openfoodfacts-250b.png"
         inkscape:export-xdpi="112.45"
         inkscape:export-ydpi="112.45"
         sodipodi:nodetypes="ccccc" />
      <path
         inkscape:connector-curvature="0"
         style="fill:#ff0000;fill-opacity:1;fill-rule:nonzero;stroke:none"
         d="m 852.75724,944.94661 0,5.58918 c 12.66667,0 25.3321,0 37.99876,0 l 0,-5.58918 c -12.66666,0 -25.33209,0 -37.99876,0 z"
         id="path8177"
         inkscape:export-filename="C:\Users\Stéphane\Desktop\Blogs\OpenFoodFacts\openfoodfacts-250b.png"
         inkscape:export-xdpi="112.45"
         inkscape:export-ydpi="112.45"
         sodipodi:nodetypes="ccccc" />
    </g>
    <g
       style="font-style:normal;font-variant:normal;font-weight:normal;font-stretch:normal;font-size:32.81705093px;line-height:125%;font-family:'Arial Narrow';-inkscape-font-specification:'Arial Narrow';letter-spacing:0px;word-spacing:0px;fill:#333333;fill-opacity:1;stroke:none"
       id="text8179"
       inkscape:export-filename="C:\Users\Stéphane\Desktop\Blogs\OpenFoodFacts\off-logo-en.712x575.png"
       inkscape:export-xdpi="360"
       inkscape:export-ydpi="360"
       transform="translate(0,2.6378174)">
      <path
         d="m 0.29533203,104.18406 c -9.5e-7,-2.79573 0.61506181,-4.944723 1.84519007,-6.446982 1.2301228,-1.50223 2.7621882,-2.253352 4.5962009,-2.253369 1.1853862,1.7e-5 2.2664056,0.335506 3.2430614,1.006468 0.9766346,0.670993 1.7501226,1.645774 2.3204666,2.924346 0.570318,1.278597 0.855483,2.801347 0.855497,4.568247 -1.4e-5,2.43043 -0.551707,4.40982 -1.65508,5.93815 -1.215227,1.68491 -2.8069346,2.52736 -4.775128,2.52736 -1.9831188,0 -3.5785543,-0.86482 -4.7863113,-2.59445 -1.09593262,-1.56562 -1.64389762,-3.45554 -1.64389667,-5.66977 z m 1.83400717,0.0335 c -2.8e-6,2.0204 0.4454517,3.58787 1.3363649,4.70244 0.890905,1.11457 1.9737882,1.67185 3.2486529,1.67185 1.3046712,0 2.3987374,-0.56287 3.2822018,-1.68863 0.8834432,-1.12574 1.3251702,-2.78082 1.3251822,-4.96524 -1.2e-5,-1.40904 -0.227399,-2.66899 -0.682161,-3.77984 C 10.289169,99.308298 9.761706,98.628001 9.0571893,98.117299 8.3526532,97.606624 7.5828928,97.35128 6.7479059,97.351265 5.4059434,97.35128 4.3006943,97.910428 3.4321552,99.028711 2.563608,100.14702 2.1293364,101.87665 2.1293392,104.21761 Z"
         style="font-size:22.90272331px;fill:#333333"
         id="path3685"
         inkscape:connector-curvature="0" />
      <path
         d="m 15,112.36218 0,-16.999997 4.674837,0 c 1.224167,1.6e-5 2.126995,0.107131 2.708487,0.321346 0.795704,0.290757 1.430744,0.830159 1.905122,1.618206 0.474357,0.788077 0.711542,1.755941 0.711554,2.903595 -1.2e-5,1.51492 -0.386392,2.75057 -1.159142,3.70695 -0.772771,0.9564 -2.107912,1.42433 -4.005348,1.43458 L 17,105.36218 l 0,7 z m 2,-9 2.86994,-7.7e-4 c 1.124703,-3e-4 1.947195,-0.25439 2.467477,-0.7632 0.520265,-0.50879 0.780403,-1.27581 0.780412,-2.30107 -9e-6,-0.665632 -0.128166,-1.235638 -0.384467,-1.710022 -0.256321,-0.474353 -0.56619,-0.799524 -0.929608,-0.975514 -0.363435,-0.17596 -1.019516,-0.263948 -1.968244,-0.263963 L 17,97.362183 Z"
         style="font-size:22.90272331px;fill:#333333"
         id="path3687"
         inkscape:connector-curvature="0"
         sodipodi:nodetypes="ccccccssccccsscccccc" />
      <path
         d="m 27,112.36218 0,-16.999997 10,0 0,2 -8,0 0,4.999997 7,0 0,2 -7,0 0,6 8,0 0,2 z"
         style="font-size:22.90272331px;fill:#333333"
         id="path3689"
         inkscape:connector-curvature="0"
         sodipodi:nodetypes="ccccccccccccc" />
      <path
         d="m 39,112.36218 0,-16.999997 2,0 7,12.999997 0,-12.999997 2,0 0,16.999997 -2,0 -7,-12.999997 0,12.999997 z"
         style="font-size:22.90272331px;fill:#333333"
         id="path3691"
         inkscape:connector-curvature="0"
         sodipodi:nodetypes="ccccccccccc" />
      <path
         d="m 58,112.36218 0,-16.999997 9,0 0,2 -7,0 0,4.999997 6,0 0,2 -6,0 0,8 z"
         style="font-size:22.90272331px;fill:#333333"
         id="path3693"
         inkscape:connector-curvature="0"
         sodipodi:nodetypes="ccccccccccc" />
      <path
         d="m 68.255995,104.18406 c -10e-7,-2.79573 0.615062,-4.944723 1.84519,-6.446982 1.230123,-1.50223 2.762188,-2.253352 4.596201,-2.253369 1.185386,1.7e-5 2.266405,0.335506 3.243061,1.006468 0.976635,0.670993 1.750123,1.645774 2.320467,2.924346 0.570318,1.278597 0.855483,2.801347 0.855497,4.568247 -1.4e-5,2.43043 -0.551707,4.40982 -1.65508,5.93815 -1.215227,1.68491 -2.806935,2.52736 -4.775128,2.52736 -1.983119,0 -3.578554,-0.86482 -4.786311,-2.59445 -1.095933,-1.56562 -1.643898,-3.45554 -1.643897,-5.66977 z m 1.834007,0.0335 c -3e-6,2.0204 0.445452,3.58787 1.336365,4.70244 0.890905,1.11457 1.973788,1.67185 3.248653,1.67185 1.304671,0 2.398737,-0.56287 3.282202,-1.68863 0.883443,-1.12574 1.32517,-2.78082 1.325182,-4.96524 -1.2e-5,-1.40904 -0.227399,-2.66899 -0.682162,-3.77984 -0.35041,-0.849892 -0.877873,-1.530189 -1.58239,-2.040891 -0.704536,-0.510675 -1.474296,-0.766019 -2.309283,-0.766034 -1.341963,1.5e-5 -2.447212,0.559163 -3.315751,1.677446 -0.868547,1.118309 -1.302819,2.847939 -1.302816,5.188899 z"
         style="font-size:22.90272331px;fill:#333333"
         id="path3695"
         inkscape:connector-curvature="0"
         sodipodi:nodetypes="sscccccscsssssccccss" />
      <path
         d="m 82.883322,104.18406 c -1e-6,-2.79573 0.615062,-4.944723 1.84519,-6.446982 1.230123,-1.50223 2.762188,-2.253352 4.596201,-2.253369 1.185386,1.7e-5 2.266405,0.335506 3.243061,1.006468 0.976635,0.670993 1.750123,1.645774 2.320467,2.924346 0.570317,1.278597 0.855483,2.801347 0.855497,4.568247 -1.4e-5,2.43043 -0.551707,4.40982 -1.65508,5.93815 -1.215227,1.68491 -2.806935,2.52736 -4.775128,2.52736 -1.983119,0 -3.578555,-0.86482 -4.786312,-2.59445 -1.095932,-1.56562 -1.643897,-3.45554 -1.643896,-5.66977 z m 1.834007,0.0335 c -3e-6,2.0204 0.445452,3.58787 1.336365,4.70244 0.890905,1.11457 1.973788,1.67185 3.248653,1.67185 1.304671,0 2.398737,-0.56287 3.282202,-1.68863 0.883443,-1.12574 1.32517,-2.78082 1.325182,-4.96524 -1.2e-5,-1.40904 -0.227399,-2.66899 -0.682162,-3.77984 -0.35041,-0.849892 -0.877873,-1.530189 -1.58239,-2.040891 -0.704536,-0.510675 -1.474296,-0.766019 -2.309283,-0.766034 -1.341963,1.5e-5 -2.447212,0.559163 -3.315751,1.677446 -0.868547,1.118309 -1.302819,2.847939 -1.302816,5.188899 z"
         style="font-size:22.90272331px;fill:#333333"
         id="path3697"
         inkscape:connector-curvature="0"
         sodipodi:nodetypes="sscccccscsssssccccss" />
      <path
         d="m 98,112.36218 0,-16.999997 5,0 c 1.21266,1.6e-5 2.00501,0.174276 2.63497,0.382679 0.82682,0.270189 1.54339,0.719576 2.14974,1.437449 0.60633,0.717903 1.0788,1.622982 1.41741,2.715233 0.33859,1.092286 0.50789,2.387186 0.5079,3.884706 -1e-5,1.9221 -0.28743,3.55278 -0.86225,4.89207 -0.57485,1.33928 -1.31309,2.28875 -2.21471,2.8484 -0.90163,0.55964 -2.17628,0.83946 -3.63306,0.83946 z m 2,-2 3,0 c 1.22054,0 2.01682,-0.19791 2.64678,-0.58773 0.62996,-0.38982 1.11424,-1.01701 1.45285,-1.88157 0.44883,-1.15015 0.67326,-2.52803 0.67327,-4.13365 -1e-5,-1.72137 -0.23822,-3.07416 -0.71461,-4.058372 -0.47642,-0.984193 -1.08866,-1.642257 -1.83673,-1.974198 C 104.71759,97.502677 104.09454,97.362198 103,97.362183 l -3,0 z"
         style="font-size:22.90272331px;fill:#333333"
         id="path3699"
         inkscape:connector-curvature="0"
         sodipodi:nodetypes="ccccccccssccssccccccc" />
      <path
         d="m 118,112.36218 0.0757,-16.999997 9,0 0,2 -7,3.8e-5 0,4.999999 6,0 0,2 -6,0 0,7.99996 z"
         style="font-size:22.90272331px;fill:#333333"
         id="path3701"
         inkscape:connector-curvature="0"
         sodipodi:nodetypes="ccccccccccc" />
      <path
         d="m 128.07572,112.36218 5,-16.999997 2,0 5,16.999997 -2,0 -4,-14.999997 -4.04025,14.999997 z"
         style="font-size:22.90272331px;fill:#333333"
         id="path3703"
         inkscape:connector-curvature="0"
         sodipodi:nodetypes="cccccccc" />
      <path
         d="m 151.36137,106.42065 1.78927,0.54797 c -0.39514,1.84147 -1.08662,3.21511 -2.07444,4.12092 -0.98784,0.90583 -2.19001,1.35874 -3.60651,1.35874 -1.24504,0 -2.30929,-0.30381 -3.19273,-0.91142 -0.88346,-0.6076 -1.60663,-1.58238 -2.1695,-2.92434 -0.56288,-1.34195 -0.84432,-2.92621 -0.84432,-4.75277 0,-1.80417 0.28144,-3.33065 0.84432,-4.579422 0.56287,-1.248751 1.32518,-2.191847 2.28692,-2.829292 0.96173,-0.637413 2.03529,-0.956127 3.22069,-0.956144 1.29722,1.7e-5 2.41179,0.404467 3.34371,1.213353 0.9319,0.808916 1.58424,1.996173 1.95702,3.561775 l -1.74454,0.50323 c -0.59644,-2.281308 -1.79302,-3.42197 -3.58974,-3.421985 -0.89464,1.5e-5 -1.66999,0.229266 -2.32605,0.687753 -0.65608,0.458516 -1.17981,1.172361 -1.57121,2.141542 -0.39141,0.9692 -0.58711,2.1956 -0.58711,3.67919 0,2.24406 0.39513,3.92709 1.1854,5.04912 0.79026,1.12202 1.84145,1.68303 3.15359,1.68303 0.96919,0 1.80605,-0.3448 2.51058,-1.03442 0.70452,-0.68962 1.17607,-1.73522 1.41465,-3.13683 z"
         style="font-size:22.90272331px;fill:#333333"
         id="path3705"
         inkscape:connector-curvature="0"
         sodipodi:nodetypes="ccsscssscccccccsssssc" />
      <path
         d="m 159,112.36218 0,-14.999997 -5,0.0061 0,-2.006138 12,0 0,2 -5,0 0,14.999995 z"
         style="font-size:22.90272331px;fill:#333333"
         id="path3707"
         inkscape:connector-curvature="0"
         sodipodi:nodetypes="ccccccccc" />
      <path
         d="m 167.26826,106.90152 1.67745,-0.17893 c 0.0895,0.9021 0.29262,1.60476 0.60947,2.10799 0.31685,0.50324 0.76976,0.90769 1.35873,1.21336 0.58897,0.30567 1.25249,0.4585 1.99057,0.4585 1.05865,0 1.88059,-0.25907 2.46585,-0.77722 0.58523,-0.51814 0.87785,-1.19098 0.87786,-2.01852 -1e-5,-0.48459 -0.10625,-0.90768 -0.31872,-1.26927 -0.21248,-0.36158 -0.53306,-0.65793 -0.96173,-0.88905 -0.42869,-0.23111 -1.35501,-0.55541 -2.77897,-0.97292 -1.26741,-0.37275 -2.1695,-0.74925 -2.70628,-1.12948 -0.53678,-0.38021 -0.95428,-0.86294 -1.25249,-1.44819 -0.29822,-0.58523 -0.44732,-1.24689 -0.44732,-1.98498 0,-1.32703 0.42868,-2.411777 1.28604,-3.254242 0.85736,-0.842434 2.01293,-1.263659 3.46672,-1.263676 0.99901,1.7e-5 1.87314,0.197583 2.62241,0.592698 0.74925,0.395147 1.33076,0.96175 1.74454,1.699811 0.41376,0.73809 0.63556,1.606633 0.66539,2.605629 l -1.711,0.15656 c -0.0895,-1.066092 -0.40818,-1.856355 -0.95614,-2.370785 -0.54797,-0.514402 -1.31773,-0.77161 -2.30928,-0.771625 -1.00648,1.5e-5 -1.77437,0.225538 -2.30369,0.67657 -0.52934,0.45106 -0.794,1.034438 -0.794,1.750135 0,0.663535 0.19384,1.177955 0.58152,1.543245 0.38767,0.36533 1.25994,0.73436 2.61681,1.10712 1.32704,0.36532 2.25896,0.68217 2.79575,0.95055 0.82007,0.41751 1.43886,0.96734 1.85637,1.64949 0.41749,0.68217 0.62623,1.49666 0.62625,2.44348 -2e-5,0.93937 -0.21995,1.79487 -0.6598,2.56649 -0.43987,0.77163 -1.03816,1.35873 -1.79487,1.76132 -0.75672,0.40258 -1.66813,0.60388 -2.73423,0.60388 -1.66254,0 -2.98772,-0.49951 -3.97555,-1.49852 -0.98783,-0.99901 -1.50038,-2.35215 -1.53766,-4.05942 z"
         style="font-size:22.90272331px;fill:#333333"
         id="path3709"
         inkscape:connector-curvature="0" />
      <path
         sodipodi:nodetypes="ccccc"
         inkscape:connector-curvature="0"
         id="path3713"
         style="font-size:22.90272331px;fill:#333333"
         d="m 137.07572,105.36218 0,2 -6,0 0,-2 z" />
    </g>
    <rect
       id="rect3719"
       width="5"
       height="5"
       x="110"
       y="1.7187499e-008"
       style="fill:none"
       inkscape:export-filename="C:\Users\Stéphane\Desktop\Blogs\OpenFoodFacts\off-logo-en.712x575.png"
       inkscape:export-xdpi="360"
       inkscape:export-ydpi="360" />
    <rect
       inkscape:export-ydpi="360"
       inkscape:export-xdpi="360"
       inkscape:export-filename="C:\Users\Stéphane\Desktop\Blogs\OpenFoodFacts\off-logo-en.712x575.png"
       style="fill:none"
       y="1.7187499e-008"
       x="110"
       height="5"
       width="5"
       id="rect3723" />
    <rect
       style="fill:none"
       id="rect3725"
       width="1"
       height="1"
       x="1"
       y="140"
       inkscape:export-filename="C:\Users\Stéphane\Desktop\Blogs\OpenFoodFacts\off-logo-en.712x575.png"
       inkscape:export-xdpi="360"
       inkscape:export-ydpi="360" />
    <g
       style="font-style:normal;font-weight:normal;font-size:42.95869446px;line-height:125%;font-family:sans-serif;letter-spacing:0px;word-spacing:0px;fill:#000000;fill-opacity:1;stroke:none;stroke-width:1px;stroke-linecap:butt;stroke-linejoin:miter;stroke-opacity:1"
       id="text3533">
      <path
         d="m 8.4325435,138.20171 -1.4617597,0 q 0,-0.62928 -1.0356862,-3.53969 -0.5309531,-1.49454 -0.6423877,-1.9075 -0.1114345,0.41296 -0.6423876,1.9075 -1.0356862,2.91041 -1.0356862,3.53969 l -1.4617597,0 0,-5.126 q -0.2032043,0.0787 -0.4719583,0.0787 -0.5112881,0 -0.88492176,-0.36052 -0.36707866,-0.36708 -0.36707866,-0.87181 0,-0.51784 0.36707866,-0.88492 0.37363366,-0.36708 0.88492176,-0.36708 0.7734872,0 1.2388905,0.47851 0.4654033,0.47196 0.4654033,1.27822 l 0,3.6839 q 0,-0.26876 0.6554976,-2.08448 0.9701365,-2.66788 0.9701365,-3.23161 l 0.5637279,0 q 0,0.55718 0.9439166,3.1595 0.6817175,1.86817 0.6817175,2.15659 l 0,-8.71812 1.2323355,0 0,10.80916 z m -6.7516254,-5.80116 q 0.2032043,0 0.3474137,-0.13765 0.1507645,-0.14421 0.1507645,-0.34086 0,-0.22287 -0.1507645,-0.36708 -0.1442094,-0.14421 -0.3474137,-0.14421 -0.2032042,0 -0.3539687,0.15077 -0.1442095,0.1442 -0.1442095,0.36052 0,0.19665 0.1442095,0.34086 0.1507645,0.13765 0.3539687,0.13765 z"
         style="font-size:13.42459106px"
         id="path3538" />
      <path
         d="m 14.90886,131.78438 q -0.583393,0.11799 -1.212671,0.11799 l -1.46176,-0.0656 q -0.655497,0 -1.022576,0.21632 -0.360524,0.20976 -0.360524,0.5244 0.20976,-0.0393 0.603058,-0.0393 1.442095,0 1.992713,0.5965 0.557173,0.5965 0.557173,1.99271 l 0,1.42243 q 0,0.81282 -0.465403,1.28478 -0.458849,0.47196 -1.238891,0.47196 -0.511288,0 -0.878367,-0.36708 -0.367078,-0.36708 -0.367078,-0.87837 0,-0.51129 0.367078,-0.87181 0.367079,-0.36053 0.878367,-0.36053 0.268754,0 0.471958,0.0787 l 0,-0.78004 q 0,-0.89147 -0.314639,-1.28477 -0.314638,-0.3933 -1.002911,-0.3933 -0.281864,0 -0.642388,0.0393 -0.360523,0.0328 -0.622722,0.0787 l -0.4654036,0.0852 -0.03933,0 0,-0.45885 q 0,-1.14712 0.5702834,-1.78295 0.570282,-0.63583 1.979602,-0.63583 l 1.46176,0.059 q 0.294974,0 0.609613,-0.0656 l 0.544063,-0.12454 0.059,0 0,1.14056 z m -2.608881,5.78805 q 0.209759,0 0.353969,-0.14421 0.144209,-0.15077 0.144209,-0.36708 0,-0.2032 -0.150764,-0.34086 -0.14421,-0.14421 -0.347414,-0.14421 -0.203204,0 -0.347414,0.14421 -0.144209,0.14421 -0.144209,0.34086 0,0.21631 0.144209,0.36708 0.14421,0.14421 0.347414,0.14421 z"
         style="font-size:13.42459106px"
         id="path3540" />
      <path
         d="m 14.010828,130.25707 -5.3554158,0 q 0.249089,-0.76693 0.4719582,-1.10123 0.2228692,-0.3343 0.5899479,-0.60306 0.3605237,-0.27531 0.7800417,-0.41296 0.419519,-0.13766 0.845592,-0.13766 1.140566,0 1.933718,0.82593 l 0,-1.40932 0.734158,0 0,2.8383 z m -1.055352,-0.7276 q -0.157319,-0.35397 -0.616167,-0.57028 -0.458849,-0.22287 -0.996357,-0.22287 -0.544063,0 -1.002911,0.22287 -0.4588483,0.21631 -0.6096128,0.57028 l 3.2250478,0 z"
         style="font-size:13.42459106px"
         id="path3542" />
      <path
         d="m 22.296318,138.20171 -5.394745,0 0,-1.16679 0.832481,0 0,-1.67807 q 0,-0.49818 0.1311,-0.82593 0.137654,-0.3343 0.399854,-0.7276 0.294973,-0.44574 0.367078,-0.69483 0.07211,-0.24909 0.07211,-0.47851 0,-1.07502 -0.904587,-1.07502 -0.170429,0 -0.268754,0.0656 0.537508,0.40641 0.537508,1.00947 0,0.51128 -0.367078,0.87181 -0.367079,0.36052 -0.878367,0.36052 -0.511288,0 -0.878367,-0.36052 -0.360524,-0.36708 -0.360524,-0.88492 0,-0.87182 0.609613,-1.40932 0.616168,-0.53751 1.605969,-0.53751 0.943917,0 1.520755,0.53751 0.576838,0.53095 0.576838,1.40932 0,0.28842 -0.09177,0.61616 -0.08522,0.32775 -0.412964,0.90459 -0.419518,0.72105 -0.419518,1.16679 l 0,1.73051 2.091037,0 0,-6.16168 1.232336,0 0,7.32847 z m -5.473405,-5.07356 q 0.203204,0 0.347414,-0.14421 0.150764,-0.15076 0.150764,-0.36707 0,-0.19665 -0.150764,-0.34086 -0.14421,-0.14421 -0.347414,-0.14421 -0.203204,0 -0.353969,0.14421 -0.144209,0.14421 -0.144209,0.34086 0,0.21631 0.144209,0.36707 0.150765,0.14421 0.353969,0.14421 z"
         style="font-size:13.42459106px"
         id="path3544" />
      <path
         d="m 24.52501,128.08738 q -0.858702,1.76984 -3.480693,2.15658 l 0.321194,-0.70793 q -0.288419,-0.0393 -0.471958,-0.25565 -0.183539,-0.22287 -0.183539,-0.51128 0,-0.31464 0.216314,-0.53751 0.209759,-0.22943 0.524398,-0.22943 0.301529,0 0.517843,0.22943 0.216314,0.22287 0.216314,0.53751 0,0.45884 -0.268754,0.76693 1.088126,-0.28187 1.776399,-1.44865 l 0.832482,0 z m -3.074284,0.91114 q 0.08522,0 0.157319,-0.0656 0.06555,-0.0721 0.06555,-0.16387 0,-0.0918 -0.06555,-0.15732 -0.0721,-0.0721 -0.157319,-0.0721 -0.09177,0 -0.157319,0.0721 -0.0721,0.0656 -0.0721,0.15732 0,0.0918 0.0721,0.16387 0.06555,0.0656 0.157319,0.0656 z"
         style="font-size:13.42459106px"
         id="path3546" />
      <path
         d="m 30.306499,138.20171 -5.788044,0 0,-2.85797 q 0,-0.81938 0.465403,-1.29133 0.465404,-0.47196 1.238891,-0.47196 0.511288,0 0.878367,0.37363 0.367078,0.36708 0.367078,0.87837 0,0.51129 -0.367078,0.87181 -0.367079,0.36052 -0.878367,0.36052 -0.268754,0 -0.471958,-0.0787 l 0,1.0488 3.316818,0 0,-3.38237 q 0,-0.89803 -0.511289,-1.40276 -0.504733,-0.50474 -1.36999,-0.50474 -1.34377,0 -2.641655,0.87182 l -0.07866,0 0,-1.3831 q 1.415875,-0.56373 2.694095,-0.56373 1.520755,0 2.333572,0.79315 0.812817,0.7866 0.812817,2.18936 l 0,4.54916 z m -4.08375,-2.88419 q 0.203204,0 0.347414,-0.14421 0.150764,-0.14421 0.150764,-0.34086 0,-0.21632 -0.150764,-0.36053 -0.14421,-0.15076 -0.347414,-0.15076 -0.203204,0 -0.353969,0.15076 -0.144209,0.14421 -0.144209,0.36053 0,0.19665 0.144209,0.34086 0.150765,0.14421 0.353969,0.14421 z"
         style="font-size:13.42459106px"
         id="path3548" />
      <path
         d="m 38.356009,138.20171 -1.153676,0 q -1.252,-1.19956 -2.431896,-1.52731 l 0,0.18354 q 0,0.71449 -0.412963,1.08157 -0.406409,0.36708 -1.022577,0.36708 -0.576837,0 -0.937361,-0.31464 -0.353969,-0.31464 -0.353969,-0.83904 0,-0.49818 0.393299,-0.87837 0.399853,-0.38674 1.101236,-0.4654 l 0,-2.73343 q -0.203205,0.0787 -0.471959,0.0787 -0.511288,0 -0.884921,-0.36052 -0.367079,-0.36708 -0.367079,-0.87181 0,-0.51784 0.367079,-0.88492 0.373633,-0.36708 0.884921,-0.36708 0.773488,0 1.238891,0.47851 0.465403,0.47196 0.465403,1.27822 l 0,3.44136 q 1.179896,0.28187 2.346682,1.14057 l 0,-6.13546 1.23889,0 0,7.32847 z m -5.289866,-5.80116 q 0.203205,0 0.347414,-0.13765 0.150765,-0.14421 0.150765,-0.34086 0,-0.22287 -0.150765,-0.36708 -0.144209,-0.14421 -0.347414,-0.14421 -0.203204,0 -0.353968,0.15077 -0.14421,0.1442 -0.14421,0.36052 0,0.19665 0.14421,0.34086 0.150764,0.13765 0.353968,0.13765 z m 0.471959,4.66059 0,-0.51129 q -0.334304,0.0459 -0.530953,0.22287 -0.19665,0.17699 -0.19665,0.38019 0,0.19009 0.09833,0.30808 0.09832,0.11144 0.249089,0.11144 0.380189,0 0.380189,-0.51129 z"
         style="font-size:13.42459106px"
         id="path3550" />
      <path
         d="m 38.441226,140.08298 q 0,0.83249 -0.819372,0.83249 l -1.855059,0 0,-0.78005 q -0.340858,0 -0.576838,-0.22942 -0.242534,-0.22942 -0.242534,-0.53751 0,-0.32775 0.222869,-0.55062 0.216315,-0.21631 0.530954,-0.21631 0.314638,0 0.550618,0.22287 0.229424,0.22287 0.229424,0.54406 l 0,0.84559 0.989801,0 q 0.268754,0 0.268754,-0.28186 l 0,-1.33066 0.701383,0 0,1.48142 z m -2.75309,-0.48506 q 0.08521,0 0.157319,-0.0721 0.07211,-0.0656 0.07211,-0.15732 0,-0.0918 -0.06555,-0.16387 -0.07211,-0.0656 -0.163874,-0.0656 -0.09177,0 -0.15732,0.0656 -0.07211,0.0721 -0.07211,0.16387 0,0.0918 0.07211,0.15732 0.06555,0.0721 0.15732,0.0721 z"
         style="font-size:13.42459106px"
         id="path3552" />
      <path
         d="m 46.634946,138.20171 -1.23889,0 q -1.166786,-2.21559 -1.520755,-2.78587 -0.353968,-0.57684 -0.734157,-0.88492 -0.380189,-0.31464 -0.734157,-0.31464 -0.340859,0 -0.557173,0.22942 -0.20976,0.22943 -0.20976,0.58995 l 0,0.87181 q 0.203205,-0.0787 0.465404,-0.0787 0.517843,0 0.884921,0.36053 0.367079,0.36052 0.367079,0.87181 0,0.51129 -0.373634,0.87837 -0.367078,0.36708 -0.878366,0.36708 -0.773488,0 -1.238891,-0.47196 -0.465403,-0.47196 -0.465403,-1.28478 l 0,-1.48798 q 0,-0.95702 0.504733,-1.46176 0.511288,-0.51129 1.415875,-0.51129 0.622723,0 1.147121,0.39986 0.524398,0.39985 0.832482,0.89147 0.314639,0.49163 1.094681,2.01238 l 0,-2.73998 q 0,-0.89803 -0.511288,-1.40276 -0.511289,-0.50474 -1.3831,-0.50474 -1.350326,0 -2.654766,0.87182 l -0.06555,0 0,-1.3831 q 1.415875,-0.56373 2.707206,-0.56373 1.514199,0 2.327016,0.79315 0.819372,0.79315 0.819372,2.18936 l 0,4.54916 z m -4.529488,-0.62928 q 0.209759,0 0.353968,-0.14421 0.14421,-0.15077 0.14421,-0.36708 0,-0.19665 -0.150765,-0.34086 -0.144209,-0.14421 -0.347413,-0.14421 -0.19665,0 -0.347414,0.14421 -0.14421,0.14421 -0.14421,0.34086 0,0.21631 0.14421,0.36708 0.144209,0.14421 0.347414,0.14421 z"
         style="font-size:13.42459106px"
         id="path3554" />
      <path
         d="m 54.861439,138.20171 -5.394745,0 0,-1.16679 0.832482,0 0,-1.67807 q 0,-0.49818 0.1311,-0.82593 0.137654,-0.3343 0.399853,-0.7276 0.294974,-0.44574 0.367079,-0.69483 0.0721,-0.24909 0.0721,-0.47851 0,-1.07502 -0.904587,-1.07502 -0.170429,0 -0.268754,0.0656 0.537508,0.40641 0.537508,1.00947 0,0.51128 -0.367079,0.87181 -0.367078,0.36052 -0.878367,0.36052 -0.511288,0 -0.878366,-0.36052 -0.360524,-0.36708 -0.360524,-0.88492 0,-0.87182 0.609613,-1.40932 0.616167,-0.53751 1.605969,-0.53751 0.943916,0 1.520754,0.53751 0.576838,0.53095 0.576838,1.40932 0,0.28842 -0.09177,0.61616 -0.08521,0.32775 -0.412964,0.90459 -0.419518,0.72105 -0.419518,1.16679 l 0,1.73051 2.091037,0 0,-6.16168 1.232335,0 0,7.32847 z m -5.473405,-5.07356 q 0.203205,0 0.347414,-0.14421 0.150765,-0.15076 0.150765,-0.36707 0,-0.19665 -0.150765,-0.34086 -0.144209,-0.14421 -0.347414,-0.14421 -0.203204,0 -0.353968,0.14421 -0.14421,0.14421 -0.14421,0.34086 0,0.21631 0.14421,0.36707 0.150764,0.14421 0.353968,0.14421 z"
         style="font-size:13.42459106px"
         id="path3556" />
      <path
         d="m 62.871622,138.20171 -5.788044,0 0,-2.85797 q 0,-0.81938 0.465403,-1.29133 0.465403,-0.47196 1.23889,-0.47196 0.511289,0 0.878367,0.37363 0.367079,0.36708 0.367079,0.87837 0,0.51129 -0.367079,0.87181 -0.367078,0.36052 -0.878367,0.36052 -0.268754,0 -0.471958,-0.0787 l 0,1.0488 3.316818,0 0,-3.38237 q 0,-0.89803 -0.511288,-1.40276 -0.504733,-0.50474 -1.36999,-0.50474 -1.34377,0 -2.641655,0.87182 l -0.07866,0 0,-1.3831 q 1.415875,-0.56373 2.694095,-0.56373 1.520755,0 2.333572,0.79315 0.812817,0.7866 0.812817,2.18936 l 0,4.54916 z m -4.083751,-2.88419 q 0.203205,0 0.347414,-0.14421 0.150765,-0.14421 0.150765,-0.34086 0,-0.21632 -0.150765,-0.36053 -0.144209,-0.15076 -0.347414,-0.15076 -0.203204,0 -0.353968,0.15076 -0.14421,0.14421 -0.14421,0.36053 0,0.19665 0.14421,0.34086 0.150764,0.14421 0.353968,0.14421 z"
         style="font-size:13.42459106px"
         id="path3558" />
      <path
         d="m 69.485592,136.06478 q 0,1.14712 -0.517843,1.75018 -0.511288,0.60306 -1.389655,0.60306 -0.563728,0 -1.042241,-0.3343 -0.471959,-0.34086 -0.845592,-1.13401 l -1.520755,-3.17917 1.284776,0 q 1.18645,2.48434 1.310995,2.73343 0.124544,0.24909 0.334304,0.49818 0.216314,0.24908 0.478513,0.24908 0.668607,0 0.668607,-1.18645 l 0,-2.97596 q -0.203204,0.0787 -0.465403,0.0787 -0.517843,0 -0.884922,-0.36052 -0.367078,-0.36708 -0.367078,-0.87181 0,-0.51129 0.367078,-0.87837 0.373634,-0.37363 0.884922,-0.37363 0.773487,0 1.238891,0.47851 0.465403,0.47196 0.465403,1.27822 l 0,3.6249 z m -1.717404,-3.65112 q 0.19665,0 0.340859,-0.13765 0.150764,-0.14421 0.150764,-0.34086 0,-0.21632 -0.144209,-0.36052 -0.14421,-0.15077 -0.347414,-0.15077 -0.209759,0 -0.353968,0.15077 -0.14421,0.1442 -0.14421,0.36052 0,0.19665 0.14421,0.34086 0.150764,0.13765 0.353968,0.13765 z"
         style="font-size:13.42459106px"
         id="path3560" />
      <path
         d="m 77.476106,138.20171 -5.788044,0 0,-2.85797 q 0,-0.81938 0.465404,-1.29133 0.465403,-0.47196 1.23889,-0.47196 0.511288,0 0.878367,0.37363 0.367079,0.36708 0.367079,0.87837 0,0.51129 -0.367079,0.87181 -0.367079,0.36052 -0.878367,0.36052 -0.268754,0 -0.471958,-0.0787 l 0,1.0488 3.316818,0 0,-3.38237 q 0,-0.89803 -0.511288,-1.40276 -0.504734,-0.50474 -1.36999,-0.50474 -1.343771,0 -2.641656,0.87182 l -0.07866,0 0,-1.3831 q 1.415875,-0.56373 2.694096,-0.56373 1.520754,0 2.333571,0.79315 0.812817,0.7866 0.812817,2.18936 l 0,4.54916 z m -4.08375,-2.88419 q 0.203204,0 0.347414,-0.14421 0.150764,-0.14421 0.150764,-0.34086 0,-0.21632 -0.150764,-0.36053 -0.14421,-0.15076 -0.347414,-0.15076 -0.203204,0 -0.353969,0.15076 -0.144209,0.14421 -0.144209,0.36053 0,0.19665 0.144209,0.34086 0.150765,0.14421 0.353969,0.14421 z"
         style="font-size:13.42459106px"
         id="path3562" />
      <path
         d="m 83.991752,138.20171 -1.232336,0 0,-4.69992 q 0,-0.84559 -0.406408,-1.29133 -0.399854,-0.4523 -1.107791,-0.4523 -1.081571,0 -2.215582,0.66861 l -0.08522,0 0,-1.29788 q 1.160231,-0.44574 2.300797,-0.44574 2.746535,0 2.746535,2.73998 l 0,4.77858 z"
         style="font-size:13.42459106px"
         id="path3564" />
      <path
         d="m 92.978628,138.20171 -1.232335,0 0,-3.6118 q 0,-0.76693 -0.229424,-0.9898 -1.376545,1.31755 -3.074284,4.6016 l -1.232336,0 0,-5.126 q -0.203204,0.0787 -0.471958,0.0787 -0.511288,0 -0.884922,-0.36052 -0.367078,-0.36708 -0.367078,-0.87181 0,-0.51784 0.367078,-0.88492 0.373634,-0.36708 0.884922,-0.36708 0.773487,0 1.238891,0.47851 0.465403,0.47196 0.465403,1.27822 l 0,4.09686 q 1.297885,-2.36634 2.536776,-3.48725 -0.275309,-0.15731 -0.445739,-0.45884 -0.170429,-0.30809 -0.170429,-0.64239 0,-0.51784 0.373634,-0.89148 0.373633,-0.37363 0.884921,-0.37363 0.511288,0 0.884922,0.38019 0.380189,0.37363 0.380189,0.88492 0,0.76038 -0.655498,1.11434 0.747267,0.3933 0.747267,1.57975 l 0,3.57247 z m -6.240337,-5.80116 q 0.203204,0 0.347414,-0.13765 0.150764,-0.14421 0.150764,-0.34086 0,-0.22287 -0.150764,-0.36708 -0.14421,-0.14421 -0.347414,-0.14421 -0.203204,0 -0.353969,0.15077 -0.144209,0.1442 -0.144209,0.36052 0,0.19665 0.144209,0.34086 0.150765,0.13765 0.353969,0.13765 z m 4.883457,0.0131 q 0.203205,0 0.347414,-0.13765 0.150765,-0.14421 0.150765,-0.34086 0,-0.21632 -0.14421,-0.36052 -0.144209,-0.15077 -0.353969,-0.15077 -0.203204,0 -0.347413,0.15077 -0.14421,0.1442 -0.14421,0.36052 0,0.19665 0.14421,0.34086 0.144209,0.13765 0.347413,0.13765 z"
         style="font-size:13.42459106px"
         id="path3566" />
      <path
         d="m 99.487716,138.20171 -1.232336,0 0,-4.69992 q 0,-0.84559 -0.406408,-1.29133 -0.399854,-0.4523 -1.107791,-0.4523 -1.081571,0 -2.215582,0.66861 l -0.08522,0 0,-1.29788 q 1.160231,-0.44574 2.300797,-0.44574 2.746535,0 2.746535,2.73998 l 0,4.77858 z"
         style="font-size:13.42459106px"
         id="path3568" />
      <path
         d="m 106.07547,131.78438 q -0.58339,0.11799 -1.21267,0.11799 l -1.46176,-0.0656 q -0.6555,0 -1.02258,0.21632 -0.36052,0.20976 -0.36052,0.5244 0.20976,-0.0393 0.60306,-0.0393 1.44209,0 1.99271,0.5965 0.55717,0.5965 0.55717,1.99271 l 0,1.42243 q 0,0.81282 -0.4654,1.28478 -0.45885,0.47196 -1.23889,0.47196 -0.51129,0 -0.87837,-0.36708 -0.36707,-0.36708 -0.36707,-0.87837 0,-0.51129 0.36707,-0.87181 0.36708,-0.36053 0.87837,-0.36053 0.26875,0 0.47196,0.0787 l 0,-0.78004 q 0,-0.89147 -0.31464,-1.28477 -0.31464,-0.3933 -1.00291,-0.3933 -0.28187,0 -0.64239,0.0393 -0.36052,0.0328 -0.62272,0.0787 l -0.4654,0.0852 -0.0393,0 0,-0.45885 q 0,-1.14712 0.57028,-1.78295 0.57028,-0.63583 1.9796,-0.63583 l 1.46176,0.059 q 0.29497,0 0.60961,-0.0656 l 0.54407,-0.12454 0.059,0 0,1.14056 z m -2.60888,5.78805 q 0.20976,0 0.35397,-0.14421 0.14421,-0.15077 0.14421,-0.36708 0,-0.2032 -0.15077,-0.34086 -0.14421,-0.14421 -0.34741,-0.14421 -0.2032,0 -0.34741,0.14421 -0.14421,0.14421 -0.14421,0.34086 0,0.21631 0.14421,0.36708 0.14421,0.14421 0.34741,0.14421 z"
         style="font-size:13.42459106px"
         id="path3570" />
      <path
         d="m 108.68435,135.90746 q 0.20321,-0.0787 0.47196,-0.0787 0.51129,0 0.87837,0.36053 0.36708,0.36052 0.36708,0.87181 0,0.51129 -0.36708,0.87837 -0.36708,0.36708 -0.87837,0.36708 -0.77349,0 -1.23889,-0.47196 -0.4654,-0.47196 -0.4654,-1.28478 l 0,-5.67661 1.23233,0 0,5.03422 z m 0.47196,1.66497 q 0.2032,0 0.34741,-0.14421 0.15077,-0.15077 0.15077,-0.36708 0,-0.19665 -0.15077,-0.34086 -0.14421,-0.14421 -0.34741,-0.14421 -0.2032,0 -0.35397,0.14421 -0.14421,0.14421 -0.14421,0.34086 0,0.21631 0.14421,0.36708 0.15077,0.14421 0.35397,0.14421 z m 3.01529,-1.66497 q 0.2032,-0.0787 0.47196,-0.0787 0.51129,0 0.87836,0.36053 0.36708,0.36052 0.36708,0.87181 0,0.51129 -0.36708,0.87837 -0.36707,0.36708 -0.87836,0.36708 -0.77349,0 -1.23889,-0.47196 -0.46541,-0.47196 -0.46541,-1.28478 l 0,-5.67661 1.23234,0 0,5.03422 z m 0.47196,1.66497 q 0.2032,0 0.34741,-0.14421 0.15077,-0.15077 0.15077,-0.36708 0,-0.19665 -0.15077,-0.34086 -0.14421,-0.14421 -0.34741,-0.14421 -0.20321,0 -0.35397,0.14421 -0.14421,0.14421 -0.14421,0.34086 0,0.21631 0.14421,0.36708 0.15076,0.14421 0.35397,0.14421 z"
         style="font-size:13.42459106px"
         id="path3572" />
      <path
         d="m 121.46655,138.20171 -1.23889,0 q -1.16679,-2.21559 -1.52075,-2.78587 -0.35397,-0.57684 -0.73416,-0.88492 -0.38019,-0.31464 -0.73416,-0.31464 -0.34086,0 -0.55717,0.22942 -0.20976,0.22943 -0.20976,0.58995 l 0,0.87181 q 0.2032,-0.0787 0.4654,-0.0787 0.51784,0 0.88492,0.36053 0.36708,0.36052 0.36708,0.87181 0,0.51129 -0.37363,0.87837 -0.36708,0.36708 -0.87837,0.36708 -0.77349,0 -1.23889,-0.47196 -0.4654,-0.47196 -0.4654,-1.28478 l 0,-1.48798 q 0,-0.95702 0.50473,-1.46176 0.51129,-0.51129 1.41588,-0.51129 0.62272,0 1.14712,0.39986 0.52439,0.39985 0.83248,0.89147 0.31464,0.49163 1.09468,2.01238 l 0,-2.73998 q 0,-0.89803 -0.51129,-1.40276 -0.51129,-0.50474 -1.3831,-0.50474 -1.35032,0 -2.65476,0.87182 l -0.0656,0 0,-1.3831 q 1.41587,-0.56373 2.7072,-0.56373 1.5142,0 2.32702,0.79315 0.81937,0.79315 0.81937,2.18936 l 0,4.54916 z m -4.52949,-0.62928 q 0.20976,0 0.35397,-0.14421 0.14421,-0.15077 0.14421,-0.36708 0,-0.19665 -0.15076,-0.34086 -0.14421,-0.14421 -0.34742,-0.14421 -0.19665,0 -0.34741,0.14421 -0.14421,0.14421 -0.14421,0.34086 0,0.21631 0.14421,0.36708 0.14421,0.14421 0.34741,0.14421 z"
         style="font-size:13.42459106px"
         id="path3574" />
      <path
         d="m 128.13952,130.77492 q -0.21632,1.52731 -1.00947,2.28113 -0.79315,0.75382 -1.93372,0.75382 -0.81281,0 -1.41587,-0.58339 -0.5965,-0.58339 -0.5965,-1.30444 l 0,-0.059 q 0,-0.51784 0.34085,-0.85214 0.34086,-0.34086 0.85215,-0.34086 0.54406,0 0.87837,0.3343 0.3343,0.32775 0.3343,0.8587 0,0.82593 -0.89803,1.10124 0.23598,0.11143 0.47851,0.11143 0.89804,0 1.43554,-0.60961 0.54407,-0.61617 0.63584,-1.69118 l 0.89803,0 z m -3.76256,1.5863 q 0.20321,0 0.34086,-0.14421 0.14421,-0.15076 0.14421,-0.35397 0,-0.2032 -0.14421,-0.34741 -0.13765,-0.14421 -0.34086,-0.14421 -0.20976,0 -0.36052,0.14421 -0.14421,0.14421 -0.14421,0.34741 0,0.20976 0.14421,0.35397 0.15076,0.14421 0.36052,0.14421 z m 3.76256,2.60233 q -0.21632,1.52731 -1.00947,2.28113 -0.79315,0.75382 -1.93372,0.75382 -0.81281,0 -1.41587,-0.58339 -0.5965,-0.58339 -0.5965,-1.30444 l 0,-0.059 q 0,-0.51784 0.34085,-0.85214 0.34086,-0.34086 0.85215,-0.34086 0.54406,0 0.87837,0.3343 0.3343,0.32775 0.3343,0.8587 0,0.82593 -0.89803,1.10124 0.23598,0.11143 0.47851,0.11143 0.89804,0 1.43554,-0.60961 0.54407,-0.61617 0.63584,-1.69118 l 0.89803,0 z m -3.76256,1.5863 q 0.20321,0 0.34086,-0.14421 0.14421,-0.15076 0.14421,-0.35397 0,-0.2032 -0.14421,-0.34741 -0.13765,-0.14421 -0.34086,-0.14421 -0.20976,0 -0.36052,0.14421 -0.14421,0.14421 -0.14421,0.34741 0,0.20976 0.14421,0.35397 0.14421,0.14421 0.36052,0.14421 z"
         style="font-size:13.42459106px"
         id="path3576" />
      <path
         d="m 130.94505,135.90746 q 0.2032,-0.0787 0.47196,-0.0787 0.51128,0 0.87836,0.36053 0.36708,0.36052 0.36708,0.87181 0,0.51129 -0.36708,0.87837 -0.36708,0.36708 -0.87836,0.36708 -0.77349,0 -1.23889,-0.47196 -0.46541,-0.47196 -0.46541,-1.28478 l 0,-5.67661 1.23234,0 0,5.03422 z m 0.47196,1.66497 q 0.2032,0 0.34741,-0.14421 0.15076,-0.15077 0.15076,-0.36708 0,-0.19665 -0.15076,-0.34086 -0.14421,-0.14421 -0.34741,-0.14421 -0.20321,0 -0.35397,0.14421 -0.14421,0.14421 -0.14421,0.34086 0,0.21631 0.14421,0.36708 0.15076,0.14421 0.35397,0.14421 z"
         style="font-size:13.42459106px"
         id="path3578" />
      <path
         d="m 140.22689,138.20171 -1.23889,0 0,-4.22796 q 0,-2.13693 -1.93372,-2.13693 -0.92425,0 -1.42898,0.55062 -0.50473,0.54407 -0.50473,1.44865 0,0.82593 0.29497,1.84195 0.21631,-1.00947 0.60306,-1.65841 0.38674,-0.64894 1.07501,-0.64894 0.51129,0 0.87837,0.36708 0.37363,0.36708 0.37363,0.87836 0,0.51129 -0.36707,0.87837 -0.36708,0.36052 -0.88493,0.36052 -0.34085,0 -0.60305,-0.16387 -0.81938,0.82593 -0.81938,2.51056 l -1.23233,0 0,-0.56373 q 0,-0.54407 -0.24909,-1.73052 -0.28842,-1.35032 -0.28842,-2.05826 0,-1.42243 0.81282,-2.30079 0.81937,-0.87837 2.34012,-0.87837 3.17261,0 3.17261,3.30371 l 0,4.22796 z m -3.12017,-3.10051 q 0.20321,0 0.34742,-0.14421 0.15076,-0.14421 0.15076,-0.34086 0,-0.21631 -0.14421,-0.36052 -0.14421,-0.15076 -0.35397,-0.15076 -0.2032,0 -0.34741,0.15076 -0.14421,0.14421 -0.14421,0.36052 0,0.19665 0.14421,0.34086 0.15077,0.14421 0.34741,0.14421 z"
         style="font-size:13.42459106px"
         id="path3580" />
      <path
         d="m 146.82121,131.78438 q -0.5834,0.11799 -1.21267,0.11799 l -1.46176,-0.0656 q -0.6555,0 -1.02258,0.21632 -0.36052,0.20976 -0.36052,0.5244 0.20976,-0.0393 0.60305,-0.0393 1.4421,0 1.99272,0.5965 0.55717,0.5965 0.55717,1.99271 l 0,1.42243 q 0,0.81282 -0.4654,1.28478 -0.45885,0.47196 -1.23889,0.47196 -0.51129,0 -0.87837,-0.36708 -0.36708,-0.36708 -0.36708,-0.87837 0,-0.51129 0.36708,-0.87181 0.36708,-0.36053 0.87837,-0.36053 0.26875,0 0.47195,0.0787 l 0,-0.78004 q 0,-0.89147 -0.31463,-1.28477 -0.31464,-0.3933 -1.00292,-0.3933 -0.28186,0 -0.64238,0.0393 -0.36053,0.0328 -0.62273,0.0787 l -0.4654,0.0852 -0.0393,0 0,-0.45885 q 0,-1.14712 0.57028,-1.78295 0.57029,-0.63583 1.97961,-0.63583 l 1.46176,0.059 q 0.29497,0 0.60961,-0.0656 l 0.54406,-0.12454 0.059,0 0,1.14056 z m -2.60888,5.78805 q 0.20976,0 0.35396,-0.14421 0.14421,-0.15077 0.14421,-0.36708 0,-0.2032 -0.15076,-0.34086 -0.14421,-0.14421 -0.34741,-0.14421 -0.20321,0 -0.34742,0.14421 -0.14421,0.14421 -0.14421,0.34086 0,0.21631 0.14421,0.36708 0.14421,0.14421 0.34742,0.14421 z"
         style="font-size:13.42459106px"
         id="path3582" />
      <path
         d="m 145.92316,130.25707 -5.35541,0 q 0.24909,-0.76693 0.47196,-1.10123 0.22287,-0.3343 0.58994,-0.60306 0.36053,-0.27531 0.78005,-0.41296 0.41952,-0.13766 0.84559,-0.13766 0.1311,0 0.38674,0.0262 l 0,-0.60961 0.74071,0 0,0.83248 q 0.4523,0.20976 0.80627,0.57684 l 0,-1.40932 0.73415,0 0,2.8383 z m -1.05535,-0.7276 q -0.15732,-0.35397 -0.61616,-0.57028 -0.45885,-0.22287 -0.99636,-0.22287 -0.54406,0 -1.00291,0.22287 -0.45885,0.21631 -0.60962,0.57028 l 3.22505,0 z"
         style="font-size:13.42459106px"
         id="path3584" />
      <path
         d="m 145.92316,127.00581 -0.73415,0 0,-2.20248 0.73415,0 0,2.20248 z"
         style="font-size:13.42459106px"
         id="path3586" />
      <path
         d="m 153.98579,138.20171 -5.78805,0 0,-2.85797 q 0,-0.81938 0.46541,-1.29133 0.4654,-0.47196 1.23889,-0.47196 0.51129,0 0.87836,0.37363 0.36708,0.36708 0.36708,0.87837 0,0.51129 -0.36708,0.87181 -0.36707,0.36052 -0.87836,0.36052 -0.26876,0 -0.47196,-0.0787 l 0,1.0488 3.31682,0 0,-3.38237 q 0,-0.89803 -0.51129,-1.40276 -0.50473,-0.50474 -1.36999,-0.50474 -1.34377,0 -2.64166,0.87182 l -0.0787,0 0,-1.3831 q 1.41588,-0.56373 2.6941,-0.56373 1.52075,0 2.33357,0.79315 0.81282,0.7866 0.81282,2.18936 l 0,4.54916 z m -4.08375,-2.88419 q 0.2032,0 0.34741,-0.14421 0.15077,-0.14421 0.15077,-0.34086 0,-0.21632 -0.15077,-0.36053 -0.14421,-0.15076 -0.34741,-0.15076 -0.20321,0 -0.35397,0.15076 -0.14421,0.14421 -0.14421,0.36053 0,0.19665 0.14421,0.34086 0.15076,0.14421 0.35397,0.14421 z"
         style="font-size:13.42459106px"
         id="path3588" />
      <path
         d="m 160.59976,136.06478 q 0,1.14712 -0.51784,1.75018 -0.51129,0.60306 -1.38966,0.60306 -0.56373,0 -1.04224,-0.3343 -0.47196,-0.34086 -0.84559,-1.13401 l -1.52076,-3.17917 1.28478,0 q 1.18645,2.48434 1.31099,2.73343 0.12455,0.24909 0.33431,0.49818 0.21631,0.24908 0.47851,0.24908 0.66861,0 0.66861,-1.18645 l 0,-2.97596 q -0.20321,0.0787 -0.46541,0.0787 -0.51784,0 -0.88492,-0.36052 -0.36708,-0.36708 -0.36708,-0.87181 0,-0.51129 0.36708,-0.87837 0.37364,-0.37363 0.88492,-0.37363 0.77349,0 1.23889,0.47851 0.46541,0.47196 0.46541,1.27822 l 0,3.6249 z m -1.71741,-3.65112 q 0.19665,0 0.34086,-0.13765 0.15077,-0.14421 0.15077,-0.34086 0,-0.21632 -0.14421,-0.36052 -0.14421,-0.15077 -0.34742,-0.15077 -0.20975,0 -0.35396,0.15077 -0.14421,0.1442 -0.14421,0.36052 0,0.19665 0.14421,0.34086 0.15076,0.13765 0.35396,0.13765 z"
         style="font-size:13.42459106px"
         id="path3590" />
      <path
         d="m 168.85903,138.20171 -1.23889,0 0,-4.22796 q 0,-2.13693 -1.93371,-2.13693 -0.92426,0 -1.42899,0.55062 -0.50473,0.54407 -0.50473,1.44865 0,0.79315 0.29497,1.84195 0.0787,0.2622 0.22943,1.34377 l 0.69482,-0.66861 q 0.34742,-0.34086 0.45885,-0.60961 -0.45885,-0.11799 -0.72105,-0.44574 -0.25564,-0.3343 -0.25564,-0.77349 0,-0.51128 0.36052,-0.87181 0.36053,-0.36708 0.87182,-0.36708 0.53095,0 0.88492,0.38019 0.35397,0.37364 0.35397,0.93736 0,0.61617 -0.41297,1.31755 -0.40641,0.69483 -1.61252,1.73052 -0.35397,0.30153 -0.5965,0.55062 l -1.23234,0 0,-0.56373 q 0,-0.54407 -0.24909,-1.73052 -0.28842,-1.35032 -0.28842,-2.05826 0,-1.42243 0.81282,-2.30079 0.81937,-0.87837 2.34013,-0.87837 3.1726,0 3.1726,3.30371 l 0,4.22796 z m -3.14638,-3.17917 q 0.2032,0 0.34741,-0.14421 0.15076,-0.14421 0.15076,-0.34086 0,-0.21631 -0.14421,-0.36052 -0.14421,-0.15076 -0.35396,-0.15076 -0.20321,0 -0.34742,0.15076 -0.14421,0.14421 -0.14421,0.36052 0,0.19665 0.14421,0.34086 0.14421,0.14421 0.34742,0.14421 z"
         style="font-size:13.42459106px"
         id="path3592" />
      <path
         d="m 168.91802,130.25707 -5.35541,0 q 0.24909,-0.76693 0.47195,-1.10123 0.22287,-0.3343 0.58995,-0.60306 0.36053,-0.27531 0.78004,-0.41296 0.41952,-0.13766 0.8456,-0.13766 0.1311,0 0.38674,0.0262 l 0,-0.60961 0.74071,0 0,0.83248 q 0.4523,0.20976 0.80626,0.57684 l 0,-1.40932 0.73416,0 0,2.8383 z m -1.05535,-0.7276 q -0.15732,-0.35397 -0.61617,-0.57028 -0.45885,-0.22287 -0.99635,-0.22287 -0.54407,0 -1.00291,0.22287 -0.45885,0.21631 -0.60962,0.57028 l 3.22505,0 z"
         style="font-size:13.42459106px"
         id="path3594" />
      <path
         d="m 168.91802,127.00581 -0.73416,0 0,-2.20248 0.73416,0 0,2.20248 z"
         style="font-size:13.42459106px"
         id="path3596" />
      <path
         d="m 176.90198,138.20171 -1.15367,0 q -1.252,-1.19956 -2.4319,-1.52731 l 0,0.18354 q 0,0.71449 -0.41296,1.08157 -0.40641,0.36708 -1.02258,0.36708 -0.57684,0 -0.93736,-0.31464 -0.35397,-0.31464 -0.35397,-0.83904 0,-0.49818 0.3933,-0.87837 0.39985,-0.38674 1.10123,-0.4654 l 0,-2.73343 q -0.2032,0.0787 -0.47195,0.0787 -0.51129,0 -0.88493,-0.36052 -0.36707,-0.36708 -0.36707,-0.87181 0,-0.51784 0.36707,-0.88492 0.37364,-0.36708 0.88493,-0.36708 0.77348,0 1.23889,0.47851 0.4654,0.47196 0.4654,1.27822 l 0,3.44136 q 1.1799,0.28187 2.34668,1.14057 l 0,-6.13546 1.23889,0 0,7.32847 z m -5.28986,-5.80116 q 0.2032,0 0.34741,-0.13765 0.15076,-0.14421 0.15076,-0.34086 0,-0.22287 -0.15076,-0.36708 -0.14421,-0.14421 -0.34741,-0.14421 -0.20321,0 -0.35397,0.15077 -0.14421,0.1442 -0.14421,0.36052 0,0.19665 0.14421,0.34086 0.15076,0.13765 0.35397,0.13765 z m 0.47195,4.66059 0,-0.51129 q -0.3343,0.0459 -0.53095,0.22287 -0.19665,0.17699 -0.19665,0.38019 0,0.19009 0.0983,0.30808 0.0983,0.11144 0.24909,0.11144 0.38018,0 0.38018,-0.51129 z"
         style="font-size:13.42459106px"
         id="path3598" />
    </g>
  </g>
</svg>
