<svg xmlns="http://www.w3.org/2000/svg" width="178" height="150"><path d="M170 26v6.411c1.196.444 2.205 1.06 2.991 1.761l.026-8.172zm4 0v8.312l1-.839V26zm2 0v6.607l1-.979v11.77l-1-1.007.038 52.609H178V26zm-2 14.686V95h1V41.525zm-1 .14c-.786.702-1.796 1.313-3 1.76L170.008 95h3z" fill="#06f"/><path d="M154 26v69h3V41.19c-1.324-1.016-2.125-2.272-2.125-3.663 0-1.39.801-2.675 2.125-3.69V26zm4 0v7.194c1.126-.643 2.496-1.129 4.026-1.398L162 26zm5 0l-.08 5.628c.33-.036.666-.04 1.006-.056L164 26h-1zm2 0v5.544c.683.009 1.343.081 1.985.168L167 26zm-7 15.86V95h4V43.23c-1.587-.269-2.875-.728-4-1.37zm9 1.482c-.64.087-1.303.131-1.985.14L165 95h2zm-4 .056V95h1l.006-51.546c-.34-.017-.677-.02-1.006-.056z" fill="#0cf"/><path d="M150 26.012V95h1V26.012zm-4 0V95h3V26.012zm-3 0V95h2V26.012zm-2 0V95h1V26.012zM135 24v71h3V26zm-3 2v69h2V26zm-3 0v69h2V26zm-4 0v69h1V26zm-4 0v69h1V26zm-5 0v69h2V26zm-4 0v69h1V26zm-2 0v69h1V26zm-2 0v69h1V26zm-5 0v69h2V26zm-4 0v69h1V26zm-4.017.012L95 95h1l-.017-68.988z" fill="#00d400"/><path d="M90 21v74h2V21zm-2 5v69h1V26zm-3-16v85h2V10zm-4 16v69h3V26zm-4 0v69h1V26zm-3-6v75h2V20zm-4 6v69h3V26zm-4 0v69h1V26zm-2 0v69h1V26zm-5.026-.083L59 95h2l-.027-69.083zM55 15v80h1V15zm-3 11v69h2V26zm-6 0v69h3V26zm-2 0v69h1V26zm-4 0v69h1V26zm-3 0v69h2V26z" fill="#fc0"/><path d="M33 20v75h1V20zm-3-1v76h2V19zm-4 7v69h3V26zm-4 0v69h3V26zm-3-6v75h2V20zm-4 1v74h3V21zm-4 5v69h1V26zm-3 0v69h1V26zm-5.001-.083V95h1V25.917zm-2.999 0V95h2V25.917z" fill="red"/><path d="M12.96 20.168c.63-.816.72-2.676 1.282-4.359.405-1.213.463-4.597 1.208-4.882.969-.371 3.17-.358 4.224-.417 2.3-.128 4.52 1.099 6.823 1.101 2.99.004 8.861-1.41 8.861-1.41l-.14-2.04 1.505.279 4.077-.517-3.008 1.386s1.202-.02 1.688.277c.705.432.96 1.347 1.469 2 .292.373 1.082.654.908 1.095-.47 1.19-3.809.486-3.809.486L36.13 14.97c-.833 1.78-2.262 3.262-2.254 6.722 0 0-6.007-.923-8.991-.796-1.764.074-4.97.618-4.97.618-1.608-.137-3.296-.53-4.904-.25.01-6.235.866-6.128.698-9.294-.439 1.68-.97 4.516-1.026 5.772-.535 1.526-.012 1.9-1.723 2.426z" fill="red"/><g transform="rotate(-37.635 30.68 -53.687) scale(.01879)" fill="#fc0"><ellipse ry="32.857" rx="65.714" cy="762.362" cx="567.143" transform="rotate(-54.359 554.927 858.045)"/><path d="M494.286 741.648s14.409-2.316 20.714-5.714c22.088-11.904 53.571-52.858 53.571-52.858s-33.141 43.14-40 65c-2.071 6.604-1.428 20.715-1.428 20.715z"/></g><g fill="#fc0"><g transform="translate(47.682 5.652) scale(.0188)"><ellipse ry="32.857" rx="65.714" cy="762.362" cx="567.143" transform="rotate(-54.359 554.927 858.045)"/><path d="M494.286 741.648s14.409-2.316 20.714-5.714c22.088-11.904 53.571-52.858 53.571-52.858s-33.141 43.14-40 65c-2.071 6.604-1.428 20.715-1.428 20.715z"/></g><g transform="translate(47.682 7.444) scale(.0188)"><ellipse ry="32.857" rx="65.714" cy="762.362" cx="567.143" transform="rotate(-54.359 554.927 858.045)"/><path d="M494.286 741.648s14.409-2.316 20.714-5.714c22.088-11.904 53.571-52.858 53.571-52.858s-33.141 43.14-40 65c-2.071 6.604-1.428 20.715-1.428 20.715z"/></g><g transform="translate(47.682 3.86) scale(.0188)"><ellipse ry="32.857" rx="65.714" cy="762.362" cx="567.143" transform="rotate(-54.359 554.927 858.045)"/><path d="M494.286 741.648s14.409-2.316 20.714-5.714c22.088-11.904 53.571-52.858 53.571-52.858s-33.141 43.14-40 65c-2.071 6.604-1.428 20.715-1.428 20.715z"/></g><g transform="translate(47.682 2.068) scale(.0188)"><ellipse ry="32.857" rx="65.714" cy="762.362" cx="567.143" transform="rotate(-54.359 554.927 858.045)"/><path d="M494.286 741.648s14.409-2.316 20.714-5.714c22.088-11.904 53.571-52.858 53.571-52.858s-33.141 43.14-40 65c-2.071 6.604-1.428 20.715-1.428 20.715z"/></g><g transform="rotate(-10.644 34.013 -239.594) scale(.01879)"><ellipse ry="32.857" rx="65.714" cy="762.362" cx="567.143" transform="rotate(-54.359 554.927 858.045)"/><path d="M494.286 741.648s14.409-2.316 20.714-5.714c22.088-11.904 53.571-52.858 53.571-52.858s-33.141 43.14-40 65c-2.071 6.604-1.428 20.715-1.428 20.715z"/></g><g transform="matrix(-.0188 0 0 .0188 63.268 5.652)"><ellipse ry="32.857" rx="65.714" cy="762.362" cx="567.143" transform="rotate(-54.359 554.927 858.045)"/><path d="M494.286 741.648s14.409-2.316 20.714-5.714c22.088-11.904 53.571-52.858 53.571-52.858s-33.141 43.14-40 65c-2.071 6.604-1.428 20.715-1.428 20.715z"/></g><g transform="matrix(-.0188 0 0 .0188 63.268 7.444)"><ellipse ry="32.857" rx="65.714" cy="762.362" cx="567.143" transform="rotate(-54.359 554.927 858.045)"/><path d="M494.286 741.648s14.409-2.316 20.714-5.714c22.088-11.904 53.571-52.858 53.571-52.858s-33.141 43.14-40 65c-2.071 6.604-1.428 20.715-1.428 20.715z"/></g><g transform="matrix(-.0188 0 0 .0188 63.268 3.86)"><ellipse ry="32.857" rx="65.714" cy="762.362" cx="567.143" transform="rotate(-54.359 554.927 858.045)"/><path d="M494.286 741.648s14.409-2.316 20.714-5.714c22.088-11.904 53.571-52.858 53.571-52.858s-33.141 43.14-40 65c-2.071 6.604-1.428 20.715-1.428 20.715z"/></g><g transform="matrix(-.0188 0 0 .0188 63.268 2.068)"><ellipse ry="32.857" rx="65.714" cy="762.362" cx="567.143" transform="rotate(-54.359 554.927 858.045)"/><path d="M494.286 741.648s14.409-2.316 20.714-5.714c22.088-11.904 53.571-52.858 53.571-52.858s-33.141 43.14-40 65c-2.071 6.604-1.428 20.715-1.428 20.715z"/></g><g transform="matrix(-.01847 -.00348 -.00348 .01847 65.983 2.178)"><ellipse ry="32.857" rx="65.714" cy="762.362" cx="567.143" transform="rotate(-54.359 554.927 858.045)"/><path d="M494.286 741.648s14.409-2.316 20.714-5.714c22.088-11.904 53.571-52.858 53.571-52.858s-33.141 43.14-40 65c-2.071 6.604-1.428 20.715-1.428 20.715z"/></g></g><g transform="rotate(-48.948 -310.85 675.412) scale(.73933)" fill="#fc0"><circle r="2.5" cy="732.362" cx="608" transform="translate(1.5 9.75)"/><circle r="2.5" cy="732.362" cx="608" transform="rotate(-72 612.96 733.705)"/><circle r="2.5" cy="732.362" cx="608" transform="rotate(-144 607.834 734.494)"/><circle r="2.5" cy="732.362" cx="608" transform="rotate(144 604.666 734.98)"/><circle r="2.5" cy="732.362" cx="608" transform="rotate(72 599.54 735.77)"/></g><g transform="matrix(-.64917 -.35383 .35383 -.64917 218.165 702.908)" fill="#fc0"><circle r="2.5" cy="732.362" cx="608" transform="translate(1.5 9.75)"/><circle r="2.5" cy="732.362" cx="608" transform="rotate(-72 612.96 733.705)"/><circle r="2.5" cy="732.362" cx="608" transform="rotate(-144 607.834 734.494)"/><circle r="2.5" cy="732.362" cx="608" transform="rotate(144 604.666 734.98)"/><circle r="2.5" cy="732.362" cx="608" transform="rotate(72 599.54 735.77)"/></g><g transform="matrix(.3145 -.6691 .6691 .3145 -610.582 190.809)" fill="#fc0"><circle r="2.5" cy="732.362" cx="608" transform="translate(1.5 9.75)"/><circle r="2.5" cy="732.362" cx="608" transform="rotate(-72 612.96 733.705)"/><circle r="2.5" cy="732.362" cx="608" transform="rotate(-144 607.834 734.494)"/><circle r="2.5" cy="732.362" cx="608" transform="rotate(144 604.666 734.98)"/><circle r="2.5" cy="732.362" cx="608" transform="rotate(72 599.54 735.77)"/></g><path d="M122.447 6.337c9.189.95 12.63 8.43 12.553 21.663l2.964-1.399c0-1.462-.026-1.249-.026-2.71 0-10.868-6.404-17.276-10.911-18.344z" fill="#00d400"/><path d="M109.295 21.713c8.936-2.556 20.004-3.048 18.061-16.131-17.114-8.055-11.346 7.067-18.06 16.13z" fill="#00d400"/><path d="M128.43 4.225c-4.446 6.14-14.13 15.176-20.084 17.87 5.978-2.223 17.58-11.33 20.084-17.87z" fill="#fff"/><path d="M154.928 21.605c-8.784-3.034-19.81-4.123-17.165-17.082 18.215-5.51 10.95 7.669 17.165 17.082z" fill="#00d400"/><path d="M136.764 3.11c4.109 6.371 13.292 15.916 19.091 18.927-5.848-2.542-16.943-12.26-19.09-18.927z" fill="#fff"/><path d="M137.878 4.604C135.885 6.169 135.077 14.768 135 28l2.964-1.399c0-1.462.036 1.86.036.399 0-10.867.859-19.322 1.215-21.118z" fill="#00d400"/><circle r=".949" cy="35.276" cx="159.092" fill="#0cf"/><path d="M170 118v5h8v-5h-8z" fill="#06f"/><path d="M154 118v5h13v-5h-13z" fill="#0cf"/><path d="M95 118v5h56v-5H95z" fill="#00d400"/><path d="M37 118v5h55v-5H37z" fill="#fc0"/><path d="M0 118v5h34v-5H0z" fill="red"/><g style="line-height:125%;-inkscape-font-specification:'Arial Narrow'" font-weight="400" font-size="22.903" font-family="Arial Narrow" letter-spacing="0" word-spacing="0" fill="#333"><path d="M.295 106.822c0-2.796.615-4.945 1.846-6.447 1.23-1.502 2.762-2.253 4.596-2.253 1.185 0 2.266.335 3.243 1.006.976.671 1.75 1.646 2.32 2.924.57 1.279.856 2.802.856 4.569 0 2.43-.552 4.41-1.655 5.938-1.216 1.685-2.807 2.527-4.775 2.527-1.984 0-3.579-.865-4.787-2.594-1.096-1.566-1.644-3.456-1.644-5.67zm1.834.033c0 2.02.446 3.588 1.337 4.703.89 1.114 1.973 1.672 3.248 1.672 1.305 0 2.4-.563 3.283-1.689.883-1.126 1.325-2.78 1.325-4.965 0-1.41-.228-2.67-.682-3.78-.35-.85-.878-1.53-1.583-2.04a3.842 3.842 0 0 0-2.31-.767c-1.341 0-2.446.56-3.315 1.678-.868 1.118-1.303 2.847-1.303 5.188zM15 115V98h4.675c1.224 0 2.127.107 2.708.321.796.291 1.431.83 1.905 1.619.475.788.712 1.755.712 2.903 0 1.515-.386 2.75-1.16 3.707-.772.956-2.107 1.424-4.004 1.435L17 108v7zm2-9h2.87c1.125-.001 1.947-.255 2.467-.764s.78-1.276.78-2.301c0-.666-.127-1.236-.384-1.71-.256-.474-.566-.8-.93-.976-.363-.176-1.019-.264-1.967-.264L17 100zm10 9V98h10v2h-8v5h7v2h-7v6h8v2zm12 0V98h2l7 13V98h2v17h-2l-7-13v13zm19 0V98h9v2h-7v5h6v2h-6v8zm10.256-8.178c0-2.796.615-4.945 1.845-6.447 1.23-1.502 2.762-2.253 4.596-2.253 1.186 0 2.267.335 3.243 1.006.977.671 1.75 1.646 2.32 2.924.571 1.279.856 2.802.856 4.569 0 2.43-.551 4.41-1.655 5.938-1.215 1.685-2.807 2.527-4.775 2.527-1.983 0-3.578-.865-4.786-2.594-1.096-1.566-1.644-3.456-1.644-5.67zm1.834.033c0 2.02.445 3.588 1.336 4.703.891 1.114 1.974 1.672 3.249 1.672 1.305 0 2.399-.563 3.282-1.689.884-1.126 1.325-2.78 1.325-4.965 0-1.41-.227-2.67-.682-3.78-.35-.85-.878-1.53-1.582-2.04-.705-.512-1.474-.767-2.31-.767-1.341 0-2.447.56-3.315 1.677-.869 1.119-1.303 2.848-1.303 5.19zm12.793-.033c0-2.796.615-4.945 1.846-6.447 1.23-1.502 2.762-2.253 4.596-2.253 1.185 0 2.266.335 3.243 1.006.976.671 1.75 1.646 2.32 2.924.57 1.279.856 2.802.856 4.569 0 2.43-.552 4.41-1.655 5.938-1.216 1.685-2.807 2.527-4.775 2.527-1.984 0-3.579-.865-4.787-2.594-1.096-1.566-1.644-3.456-1.644-5.67zm1.834.033c0 2.02.446 3.588 1.337 4.703.89 1.114 1.973 1.672 3.248 1.672 1.305 0 2.4-.563 3.283-1.689.883-1.126 1.325-2.78 1.325-4.965 0-1.41-.228-2.67-.682-3.78-.35-.85-.878-1.53-1.583-2.04a3.842 3.842 0 0 0-2.31-.767c-1.341 0-2.446.56-3.315 1.677-.868 1.119-1.303 2.848-1.303 5.19zM98 115V98h5c1.213 0 2.005.174 2.635.383.827.27 1.543.72 2.15 1.437.606.718 1.079 1.623 1.417 2.715.339 1.093.508 2.388.508 3.885 0 1.922-.287 3.553-.862 4.892-.575 1.34-1.313 2.289-2.215 2.849-.902.56-2.176.839-3.633.839zm2-2h3c1.22 0 2.017-.198 2.647-.588.63-.39 1.114-1.017 1.453-1.881.448-1.15.673-2.528.673-4.134 0-1.721-.238-3.074-.715-4.058-.476-.985-1.088-1.643-1.836-1.975-.504-.224-1.127-.364-2.222-.364h-3zm18 2l.076-17h9v2h-7v5h6v2h-6v8zm10.076 0l5-17h2l5 17h-2l-4-15-4.04 15zm23.285-5.942l1.79.548c-.396 1.842-1.087 3.216-2.075 4.121-.988.906-2.19 1.36-3.606 1.36-1.245 0-2.31-.305-3.193-.912-.884-.608-1.607-1.583-2.17-2.925-.562-1.342-.844-2.926-.844-4.752 0-1.805.282-3.331.844-4.58.563-1.249 1.326-2.192 2.287-2.83a5.703 5.703 0 0 1 3.221-.955c1.297 0 2.412.404 3.344 1.213.932.809 1.584 1.996 1.957 3.562l-1.745.503c-.596-2.281-1.793-3.422-3.59-3.422-.894 0-1.67.23-2.326.688-.656.458-1.18 1.172-1.57 2.141-.392.97-.588 2.196-.588 3.68 0 2.244.395 3.927 1.186 5.049.79 1.122 1.841 1.683 3.153 1.683.97 0 1.806-.345 2.51-1.035.705-.69 1.177-1.735 1.415-3.137zM159 115v-15l-5 .006V98h12v2h-5v15zm8.268-5.46l1.678-.18c.09.903.292 1.605.61 2.108.316.504.769.908 1.358 1.214.589.305 1.252.458 1.99.458 1.06 0 1.881-.259 2.466-.777.586-.518.878-1.19.878-2.018 0-.485-.106-.908-.319-1.27-.212-.361-.533-.658-.961-.889-.429-.23-1.355-.555-2.78-.973-1.267-.372-2.169-.749-2.706-1.13a3.944 3.944 0 0 1-1.252-1.447c-.298-.586-.447-1.247-.447-1.985 0-1.327.428-2.412 1.286-3.255.857-.842 2.013-1.263 3.466-1.263 1 0 1.874.197 2.623.592.75.396 1.33.962 1.744 1.7.414.738.636 1.607.666 2.606l-1.711.156c-.09-1.066-.408-1.856-.956-2.37-.548-.515-1.318-.772-2.31-.772-1.006 0-1.774.226-2.303.677-.53.45-.794 1.034-.794 1.75 0 .663.194 1.178.581 1.543.388.365 1.26.734 2.617 1.107 1.327.365 2.259.682 2.796.95.82.418 1.439.968 1.856 1.65.418.682.626 1.497.626 2.444a5.09 5.09 0 0 1-.66 2.566 4.434 4.434 0 0 1-1.794 1.761c-.757.403-1.668.604-2.735.604-1.662 0-2.987-.5-3.975-1.498-.988-1-1.5-2.352-1.538-4.06z"/><path d="M137.076 108v2h-6v-2z"/></g><path d="M3.25 138.482l.15 1.456a2.715 2.715 0 0 1-.822.146c-.384 0-.693-.093-.927-.28a1.414 1.414 0 0 1-.482-.764c-.087-.323-.13-.967-.13-1.932v-5.596H.23v-1.282h.807v-2.408l1.099-.99v3.398H3.25v1.282H2.137v5.687c0 .526.032.864.097 1.017.095.22.272.33.53.33.125 0 .287-.022.487-.064zm1.04 1.474v-13.425h1.098v4.817c.26-.446.552-.78.878-1.003a1.874 1.874 0 0 1 1.08-.334c.693 0 1.24.27 1.64.81.402.54.602 1.531.602 2.972v6.163H8.49v-6.163c0-.843-.122-1.447-.366-1.813-.245-.367-.58-.55-1.01-.55-.478 0-.885.235-1.221.705-.337.47-.505 1.304-.505 2.5v5.321zm11.45-3.132l1.136.21c-.19 1.039-.532 1.822-1.028 2.35a2.425 2.425 0 0 1-1.842.792c-.922 0-1.668-.43-2.239-1.287-.57-.858-.856-2.096-.856-3.713 0-1.68.288-2.96.864-3.842.575-.882 1.304-1.323 2.186-1.323.842 0 1.544.433 2.107 1.3.563.867.845 2.122.845 3.764l-.008.44h-4.858c.045 1.092.252 1.916.62 2.472.37.556.818.833 1.346.833.827 0 1.403-.665 1.727-1.996zm-3.625-2.665h3.632c-.05-.842-.197-1.471-.44-1.886-.355-.605-.806-.907-1.354-.907-.493 0-.914.252-1.263.755-.349.504-.54 1.183-.575 2.038zm9.977 5.797v-8.444h-.979v-1.282h.98v-1.034c0-.764.064-1.336.194-1.718.13-.381.327-.673.594-.874.267-.202.602-.302 1.005-.302.314 0 .658.055 1.032.165l-.165 1.437a2.527 2.527 0 0 0-.65-.091c-.329 0-.564.105-.706.316-.142.21-.213.612-.213 1.204v.897h1.27v1.283h-1.27v8.443zm3.184 0v-9.726h.994v1.475c.254-.684.487-1.137.7-1.36.211-.223.449-.334.713-.334.369 0 .745.177 1.129.53l-.374 1.53c-.274-.238-.54-.357-.8-.357-.234 0-.448.1-.643.302-.194.202-.331.482-.41.843a9.242 9.242 0 0 0-.21 2.005v5.092zm8.64-3.132l1.136.21c-.189 1.039-.532 1.822-1.027 2.35a2.425 2.425 0 0 1-1.843.792c-.921 0-1.668-.43-2.238-1.287-.57-.858-.856-2.096-.856-3.713 0-1.68.288-2.96.863-3.842.576-.882 1.305-1.323 2.186-1.323.843 0 1.545.433 2.108 1.3.563.867.845 2.122.845 3.764l-.008.44h-4.858c.045 1.092.252 1.916.62 2.472.37.556.818.833 1.346.833.827 0 1.402-.665 1.726-1.996zm-3.625-2.665h3.633c-.05-.842-.197-1.471-.441-1.886-.354-.605-.805-.907-1.353-.907-.493 0-.914.252-1.263.755-.349.504-.54 1.183-.576 2.038zm10.621 2.665l1.136.21c-.19 1.039-.532 1.822-1.028 2.35a2.425 2.425 0 0 1-1.842.792c-.922 0-1.668-.43-2.239-1.287-.57-.858-.855-2.096-.855-3.713 0-1.68.287-2.96.863-3.842.575-.882 1.304-1.323 2.186-1.323.842 0 1.545.433 2.108 1.3.563.867.844 2.122.844 3.764l-.007.44H37.22c.045 1.092.251 1.916.62 2.472s.817.833 1.345.833c.828 0 1.403-.665 1.727-1.996zm-3.625-2.665h3.632c-.05-.842-.196-1.471-.44-1.886-.354-.605-.805-.907-1.353-.907-.494 0-.915.252-1.263.755-.35.504-.541 1.183-.576 2.038zm9.978 5.797v-8.444h-.98v-1.282h.98v-1.034c0-.764.065-1.336.194-1.718.13-.381.328-.673.594-.874.267-.202.602-.302 1.006-.302.313 0 .657.055 1.03.165l-.163 1.437a2.527 2.527 0 0 0-.65-.091c-.33 0-.565.105-.707.316-.142.21-.213.612-.213 1.204v.897h1.27v1.283h-1.27v8.443zm2.773-4.863c0-1.679.287-2.946.863-3.8.575-.855 1.304-1.282 2.186-1.282.867 0 1.592.427 2.175 1.282.583.854.874 2.088.874 3.7 0 1.746-.286 3.046-.86 3.9-.572.855-1.302 1.283-2.189 1.283-.872 0-1.598-.43-2.179-1.287-.58-.858-.87-2.123-.87-3.796zm1.128 0c0 1.258.187 2.193.56 2.807.374.614.838.92 1.39.92.52 0 .964-.31 1.335-.93.371-.619.557-1.551.557-2.797 0-1.251-.187-2.184-.56-2.798-.374-.613-.838-.92-1.39-.92-.524 0-.97.308-1.339.925-.368.617-.553 1.548-.553 2.793zm5.867 0c0-1.679.288-2.946.863-3.8.576-.855 1.305-1.282 2.187-1.282.867 0 1.592.427 2.175 1.282.583.854.874 2.088.874 3.7 0 1.746-.286 3.046-.86 3.9-.572.855-1.302 1.283-2.19 1.283-.871 0-1.598-.43-2.178-1.287-.58-.858-.87-2.123-.87-3.796zm1.129 0c0 1.258.187 2.193.56 2.807.374.614.837.92 1.39.92.519 0 .963-.31 1.335-.93.37-.619.556-1.551.556-2.797 0-1.251-.186-2.184-.56-2.798-.374-.613-.837-.92-1.39-.92-.523 0-.97.308-1.338.925-.369.617-.553 1.548-.553 2.793zm10.501 4.863v-1.227c-.2.47-.456.829-.77 1.076a1.61 1.61 0 0 1-1.017.37c-.767 0-1.43-.443-1.991-1.332-.56-.888-.841-2.138-.841-3.75 0-1.105.124-2.042.374-2.811.249-.77.581-1.34.997-1.713.416-.372.879-.558 1.387-.558.363 0 .701.117 1.012.352.312.235.57.563.774.985v-4.817h1.106v13.425zm-3.49-4.854c0 1.258.178 2.192.534 2.803.356.61.77.915 1.244.915.469 0 .875-.293 1.218-.879.344-.586.516-1.471.516-2.656 0-1.361-.172-2.355-.516-2.98-.343-.626-.777-.939-1.3-.939-.463 0-.862.3-1.196.902-.334.601-.5 1.546-.5 2.834zm9.76 8.581V130.23h1.01v1.264c.249-.525.525-.903.829-1.135a1.678 1.678 0 0 1 1.046-.348c.514 0 .977.186 1.39.558.414.373.747.939.998 1.699.252.76.378 1.674.378 2.743 0 1.654-.283 2.929-.849 3.823-.565.895-1.229 1.342-1.991 1.342-.34 0-.656-.107-.95-.32-.294-.214-.548-.517-.762-.907v4.734zm.994-8.535c0 1.258.172 2.184.516 2.78.344.595.76.892 1.248.892.469 0 .88-.308 1.234-.925.353-.616.53-1.569.53-2.857 0-1.27-.172-2.21-.516-2.82-.343-.61-.762-.916-1.255-.916-.444 0-.847.328-1.21.984-.365.657-.547 1.61-.547 2.862zm6.003 4.808v-9.726h.993v1.475c.254-.684.487-1.137.699-1.36.212-.223.45-.334.714-.334.368 0 .745.177 1.128.53l-.373 1.53c-.275-.238-.541-.357-.8-.357-.234 0-.449.1-.643.302-.194.202-.331.482-.411.843a9.242 9.242 0 0 0-.21 2.005v5.092zm3.773-4.863c0-1.679.288-2.946.864-3.8.575-.855 1.304-1.282 2.186-1.282.867 0 1.592.427 2.175 1.282.583.854.874 2.088.874 3.7 0 1.746-.286 3.046-.86 3.9-.572.855-1.302 1.283-2.19 1.283-.871 0-1.597-.43-2.178-1.287-.58-.858-.87-2.123-.87-3.796zm1.129 0c0 1.258.187 2.193.56 2.807.374.614.838.92 1.39.92.519 0 .964-.31 1.335-.93.371-.619.557-1.551.557-2.797 0-1.251-.187-2.184-.56-2.798-.375-.613-.838-.92-1.391-.92-.523 0-.97.308-1.338.925-.369.617-.553 1.548-.553 2.793zm10.501 4.863v-1.227c-.2.47-.456.829-.77 1.076a1.61 1.61 0 0 1-1.016.37c-.768 0-1.432-.443-1.992-1.332-.56-.888-.841-2.138-.841-3.75 0-1.105.125-2.042.374-2.811.249-.77.581-1.34.997-1.713.417-.372.879-.558 1.387-.558.364 0 .701.117 1.013.352.311.235.569.563.773.985v-4.817h1.106v13.425zm-3.49-4.854c0 1.258.178 2.192.534 2.803.356.61.771.915 1.244.915.469 0 .875-.293 1.219-.879.343-.586.515-1.471.515-2.656 0-1.361-.172-2.355-.515-2.98-.344-.626-.778-.939-1.3-.939-.464 0-.863.3-1.197.902-.334.601-.5 1.546-.5 2.834zm10.53 4.854v-1.429c-.254.55-.553.962-.896 1.237a1.818 1.818 0 0 1-1.166.412c-.514 0-.952-.17-1.316-.508a2.493 2.493 0 0 1-.729-1.287c-.122-.52-.183-1.227-.183-2.125v-6.026h1.099v5.394c0 1.002.041 1.672.123 2.01.083.34.235.611.456.816.222.204.475.306.759.306.528 0 .961-.265 1.3-.796.29-.458.434-1.298.434-2.519v-5.21h1.106v9.725zm6.996-3.562l1.084.21c-.125 1.16-.437 2.045-.938 2.656-.501.61-1.103.916-1.805.916-.852 0-1.554-.43-2.104-1.287-.55-.858-.826-2.126-.826-3.805 0-1.691.278-2.96.833-3.805.556-.846 1.27-1.268 2.142-1.268.672 0 1.24.256 1.7.769.46.513.756 1.282.886 2.308l-1.07.247c-.104-.66-.286-1.152-.545-1.48-.259-.326-.57-.489-.934-.489-.543 0-.993.295-1.349.884s-.534 1.524-.534 2.807c0 1.324.17 2.283.512 2.875.34.592.778.888 1.311.888.419 0 .776-.196 1.073-.59.296-.394.484-1.006.564-1.836zm4.469 2.088l.15 1.456a2.715 2.715 0 0 1-.822.146c-.384 0-.693-.093-.927-.28a1.414 1.414 0 0 1-.482-.764c-.087-.323-.13-.967-.13-1.932v-5.596h-.808v-1.282h.807v-2.408l1.099-.99v3.398h1.113v1.282h-1.113v5.687c0 .526.032.864.097 1.017.095.22.272.33.53.33.125 0 .287-.022.486-.064zm.621-1.429l1.091-.256c.065.683.242 1.192.53 1.524.29.333.673.5 1.152.5.478 0 .848-.146 1.11-.436.261-.29.392-.657.392-1.103 0-.385-.112-.684-.336-.898-.155-.146-.529-.33-1.122-.549-.857-.324-1.43-.598-1.719-.824a2.213 2.213 0 0 1-.672-.907 3.3 3.3 0 0 1-.24-1.291c0-.83.217-1.505.65-2.024.434-.519 1.035-.778 1.802-.778.483 0 .908.106 1.274.32.367.214.647.5.841.861.195.36.33.876.404 1.548l-1.076.22c-.1-1.063-.57-1.594-1.413-1.594-.478 0-.835.117-1.069.353-.234.235-.351.535-.351.902 0 .36.112.644.336.851.135.122.533.318 1.196.586.912.36 1.502.646 1.771.857.27.21.479.497.628.86.15.364.224.796.224 1.296 0 .928-.24 1.68-.72 2.253-.482.574-1.138.86-1.97.86-1.56 0-2.464-1.043-2.713-3.131zm14.417 2.903v-1.227c-.2.47-.456.829-.77 1.076a1.61 1.61 0 0 1-1.016.37c-.768 0-1.431-.443-1.992-1.332-.56-.888-.84-2.138-.84-3.75 0-1.105.124-2.042.373-2.811.249-.77.582-1.34.998-1.713.416-.372.878-.558 1.386-.558.364 0 .701.117 1.013.352.311.235.57.563.773.985v-4.817h1.107v13.425zm-3.49-4.854c0 1.258.178 2.192.534 2.803.356.61.771.915 1.245.915.468 0 .874-.293 1.218-.879.344-.586.516-1.471.516-2.656 0-1.361-.172-2.355-.516-2.98-.344-.626-.777-.939-1.3-.939-.464 0-.863.3-1.196.902-.334.601-.501 1.546-.501 2.834zm10.508 3.654c-.369.47-.752.825-1.15 1.063a2.387 2.387 0 0 1-1.242.357c-.677 0-1.218-.25-1.621-.751-.404-.5-.606-1.175-.606-2.024 0-.562.095-1.06.284-1.493.19-.433.449-.772.778-1.016.328-.244.827-.425 1.494-.54.897-.16 1.555-.349 1.973-.568l.008-.422c0-.665-.097-1.132-.292-1.4-.274-.392-.695-.587-1.263-.587-.513 0-.897.13-1.15.39-.255.259-.442.746-.561 1.46l-1.084-.22c.154-1.044.467-1.804.938-2.28.47-.476 1.145-.714 2.022-.714.682 0 1.218.157 1.606.471.39.315.634.704.737 1.168.102.464.153 1.142.153 2.033v2.198c0 1.538.024 2.507.07 2.907.048.4.142.79.281 1.168h-1.15a4.868 4.868 0 0 1-.225-1.2zm-.09-3.681c-.403.244-1.004.452-1.8.623-.464.097-.788.209-.972.334a1.227 1.227 0 0 0-.43.531 1.927 1.927 0 0 0-.153.792c0 .464.117.835.35 1.113.235.278.559.417.973.417.393 0 .75-.126 1.072-.376.321-.25.562-.585.721-1.003.16-.418.24-1.027.24-1.827zm5.3 3.407l.149 1.456a2.715 2.715 0 0 1-.822.146c-.384 0-.693-.093-.927-.28a1.414 1.414 0 0 1-.482-.764c-.087-.323-.13-.967-.13-1.932v-5.596h-.808v-1.282h.807v-2.408l1.099-.99v3.398h1.114v1.282h-1.114v5.687c0 .526.032.864.097 1.017.095.22.272.33.53.33.125 0 .287-.022.487-.064zm5.284.274c-.37.47-.753.825-1.151 1.063a2.387 2.387 0 0 1-1.241.357c-.678 0-1.218-.25-1.622-.751-.403-.5-.605-1.175-.605-2.024 0-.562.094-1.06.284-1.493.19-.433.448-.772.777-1.016s.827-.425 1.495-.54c.897-.16 1.554-.349 1.973-.568l.007-.422c0-.665-.097-1.132-.291-1.4-.274-.392-.695-.587-1.263-.587-.514 0-.897.13-1.151.39-.255.259-.441.746-.561 1.46l-1.084-.22c.155-1.044.467-1.804.938-2.28.471-.476 1.145-.714 2.022-.714.683 0 1.218.157 1.607.471.389.315.634.704.736 1.168.102.464.153 1.142.153 2.033v2.198c0 1.538.024 2.507.071 2.907.048.4.141.79.28 1.168h-1.15a4.867 4.867 0 0 1-.225-1.2zm-.09-3.681c-.404.244-1.004.452-1.801.623-.464.097-.788.209-.972.334a1.227 1.227 0 0 0-.43.531 1.927 1.927 0 0 0-.153.792c0 .464.117.835.351 1.113.235.278.558.417.972.417.394 0 .751-.126 1.073-.376.32-.25.561-.585.72-1.003.16-.418.24-1.027.24-1.827zm3.856 4.881h-1.023v-13.425h1.098v4.79c.234-.44.5-.769.796-.985.297-.217.627-.325.99-.325.509 0 .97.186 1.387.558.416.373.749.937.998 1.694.249.757.373 1.676.373 2.757 0 1.648-.281 2.92-.844 3.814-.563.895-1.22 1.342-1.973 1.342a1.59 1.59 0 0 1-1.02-.362c-.302-.241-.562-.6-.782-1.076zm-.014-4.936c0 1.007.074 1.761.224 2.262.15.5.361.882.635 1.145.274.262.578.393.912.393.453 0 .856-.312 1.207-.938.351-.626.527-1.562.527-2.807 0-1.276-.17-2.213-.508-2.812-.34-.598-.755-.897-1.248-.897-.454 0-.859.313-1.215.939-.356.625-.534 1.53-.534 2.715zm10.239 3.736c-.369.47-.752.825-1.151 1.063a2.387 2.387 0 0 1-1.24.357c-.678 0-1.219-.25-1.623-.751-.403-.5-.605-1.175-.605-2.024 0-.562.095-1.06.284-1.493.19-.433.448-.772.777-1.016.33-.244.827-.425 1.495-.54.897-.16 1.555-.349 1.973-.568l.007-.422c0-.665-.097-1.132-.291-1.4-.274-.392-.695-.587-1.263-.587-.513 0-.897.13-1.151.39-.254.259-.441.746-.56 1.46l-1.084-.22c.154-1.044.467-1.804.938-2.28.47-.476 1.144-.714 2.021-.714.683 0 1.219.157 1.607.471.389.315.634.704.736 1.168.103.464.154 1.142.154 2.033v2.198c0 1.538.023 2.507.07 2.907.048.4.141.79.28 1.168h-1.15a4.867 4.867 0 0 1-.224-1.2zm-.09-3.681c-.403.244-1.004.452-1.801.623-.463.097-.787.209-.972.334a1.227 1.227 0 0 0-.43.531 1.927 1.927 0 0 0-.153.792c0 .464.117.835.352 1.113.234.278.558.417.971.417.394 0 .751-.126 1.073-.376.321-.25.562-.585.721-1.003.16-.418.24-1.027.24-1.827zm2.421 1.978l1.092-.256c.065.683.242 1.192.53 1.524.29.333.673.5 1.152.5.478 0 .848-.146 1.11-.436.261-.29.392-.657.392-1.103 0-.385-.112-.684-.336-.898-.155-.146-.529-.33-1.122-.549-.857-.324-1.43-.598-1.719-.824a2.213 2.213 0 0 1-.672-.907 3.3 3.3 0 0 1-.24-1.291c0-.83.217-1.505.65-2.024.434-.519 1.035-.778 1.802-.778.483 0 .908.106 1.274.32.367.214.647.5.841.861.195.36.33.876.404 1.548l-1.076.22c-.1-1.063-.57-1.594-1.413-1.594-.478 0-.835.117-1.069.353-.234.235-.351.535-.351.902 0 .36.112.644.336.851.135.122.533.318 1.196.586.912.36 1.502.646 1.771.857.27.21.479.497.628.86.15.364.224.796.224 1.296 0 .928-.24 1.68-.72 2.253-.482.574-1.138.86-1.97.86-1.56 0-2.464-1.043-2.713-3.131zm11.152-.229l1.136.21c-.19 1.039-.532 1.822-1.028 2.35a2.425 2.425 0 0 1-1.842.792c-.922 0-1.668-.43-2.238-1.287-.571-.858-.856-2.096-.856-3.713 0-1.68.288-2.96.863-3.842.575-.882 1.304-1.323 2.186-1.323.842 0 1.545.433 2.108 1.3.563.867.844 2.122.844 3.764l-.007.44h-4.858c.045 1.092.252 1.916.62 2.472.37.556.818.833 1.346.833.827 0 1.402-.665 1.726-1.996zm-3.625-2.665h3.632c-.05-.842-.196-1.471-.44-1.886-.354-.605-.805-.907-1.353-.907-.494 0-.915.252-1.263.755-.35.504-.541 1.183-.576 2.038z" style="line-height:125%;-inkscape-font-specification:'Arial Narrow'" font-weight="400" font-size="16.943" font-family="Arial Narrow" letter-spacing="0" word-spacing="0" fill="#333"/><path fill="none" d="M110 0h5v5h-5z"/><path fill="none" d="M110 0h5v5h-5zM1 140h1v1H1z"/></svg>