<svg xmlns="http://www.w3.org/2000/svg" width="210mm" height="297mm"><path d="M170 23.362v6.411c1.196.445 2.205 1.06 2.991 1.761l.026-8.172zm4 0v8.312l1-.838v-7.474zm2 0v6.607l1-.979v11.77l-1-1.007.038 52.61H178v-69zm-2 14.686v54.314h1V38.887zm-1 .14c-.786.702-1.796 1.313-3 1.761l.008 52.413h3z" fill="#06f"/><path d="M154 23.362v69h3v-53.81c-1.324-1.015-2.125-2.272-2.125-3.663 0-1.39.801-2.675 2.125-3.69v-7.837zm4 0v7.194c1.126-.643 2.496-1.129 4.026-1.398L162 23.362zm5 0l-.08 5.628c.33-.036.666-.04 1.006-.055l.074-5.573h-1zm2 0v5.545c.683.008 1.343.08 1.985.167l.015-5.712zm-7 15.86v53.14h4v-51.77c-1.587-.269-2.875-.728-4-1.37zm9 1.482c-.64.087-1.303.132-1.985.14L165 92.362h2zm-4 .056v51.602h1l.006-51.546c-.34-.017-.677-.02-1.006-.056z" fill="#0cf"/><path d="M150 23.374v68.988h1V23.374zm-4 0v68.988h3V23.374zm-3 0v68.988h2V23.374zm-2 0v68.988h1V23.374zm-6-2.012v71h3v-69zm-3 2v69h2v-69zm-3 0v69h2v-69zm-4 0v69h1v-69zm-4 0v69h1v-69zm-5 0v69h2v-69zm-4 0v69h1v-69zm-2 0v69h1v-69zm-2 0v69h1v-69zm-5 0v69h2v-69zm-4 0v69h1v-69zm-4.017.012L95 92.362h1l-.017-68.988z" fill="#00d400"/><path d="M90 18.362v74h2v-74zm-2 5v69h1v-69zm-3-16v85h2v-85zm-4 16v69h3v-69zm-4 0v69h1v-69zm-3-6v75h2v-75zm-4 6v69h3v-69zm-4 0v69h1v-69zm-2 0v69h1v-69zm-5.026-.083L59 92.362h2l-.027-69.083zM55 12.362v80h1v-80zm-3 11v69h2v-69zm-6 0v69h3v-69zm-2 0v69h1v-69zm-4 0v69h1v-69zm-3 0v69h2v-69z" fill="#fc0"/><path d="M33 17.362v75h1v-75zm-3-1v76h2v-76zm-4 7v69h3v-69zm-4 0v69h3v-69zm-3-6v75h2v-75zm-4 1v74h3v-74zm-4 5v69h1v-69zm-3 0v69h1v-69zm-5.001-.083v69.083h1V23.28zm-2.999 0v69.083h2V23.28z" fill="red"/><path d="M12.96 17.53c.63-.815.72-2.676 1.282-4.359.405-1.213.463-4.597 1.208-4.882.969-.371 3.17-.358 4.224-.417 2.3-.127 4.52 1.099 6.823 1.101 2.99.004 8.861-1.41 8.861-1.41l-.14-2.039 1.505.278 4.077-.517-3.008 1.386s1.202-.02 1.688.277c.705.432.96 1.348 1.469 2 .292.373 1.082.654.908 1.095-.47 1.19-3.809.486-3.809.486l-1.918 1.803c-.833 1.78-2.262 3.262-2.254 6.723 0 0-6.007-.923-8.991-.797-1.764.075-4.97.618-4.97.618-1.608-.137-3.296-.529-4.904-.25.01-6.235.866-6.128.698-9.294-.439 1.68-.97 4.516-1.026 5.772-.535 1.526-.012 1.9-1.723 2.426z" fill="red"/><g fill="#fc0"><path d="M55.432 9.928a.617 1.235-2 0 1 .66 1.213.617 1.235-2 0 1-.574 1.255.617 1.235-2 0 1-.66-1.212.617 1.235-2 0 1 .574-1.256z"/><path d="M55.042 10.293s.188-.2.243-.323c.192-.43.19-1.401.19-1.401s.002 1.022.151 1.426c.045.122.216.325.216.325z"/></g><g fill="#fc0"><path d="M57.502 16.9a1.235.617-54.359 0 1-.218 1.364 1.235.617-54.359 0 1-1.22.644 1.235.617-54.359 0 1 .217-1.363 1.235.617-54.359 0 1 1.221-.644z"/><path d="M56.97 16.951s.271-.043.39-.107c.415-.224 1.007-.993 1.007-.993s-.623.81-.752 1.221c-.039.124-.027.39-.027.39zm.532 1.742a1.235.617-54.359 0 1-.218 1.363 1.235.617-54.359 0 1-1.22.644 1.235.617-54.359 0 1 .217-1.363 1.235.617-54.359 0 1 1.221-.644z"/><path d="M56.97 18.743s.271-.043.39-.107c.415-.224 1.007-.993 1.007-.993s-.623.81-.752 1.221c-.039.124-.027.39-.027.39zm.532-3.634a1.235.617-54.359 0 1-.218 1.363 1.235.617-54.359 0 1-1.22.644 1.235.617-54.359 0 1 .217-1.363 1.235.617-54.359 0 1 1.221-.644z"/><path d="M56.97 15.16s.271-.044.39-.108c.415-.224 1.007-.993 1.007-.993s-.623.81-.752 1.221c-.039.124-.027.39-.027.39zm.532-1.843a1.235.617-54.359 0 1-.218 1.363 1.235.617-54.359 0 1-1.22.644 1.235.617-54.359 0 1 .217-1.363 1.235.617-54.359 0 1 1.221-.644z"/><path d="M56.97 13.367s.271-.043.39-.107c.415-.224 1.007-.993 1.007-.993s-.623.81-.752 1.221c-.039.124-.027.39-.027.39zm.22-1.999a1.235.617-65.033 0 1 .038 1.38 1.235.617-65.033 0 1-1.08.858 1.235.617-65.033 0 1-.04-1.38 1.235.617-65.033 0 1 1.082-.858z"/><path d="M56.677 11.516s.258-.093.362-.178c.367-.297.806-1.163.806-1.163s-.462.912-.513 1.34c-.015.13.046.388.046.388zM53.448 16.9a.617 1.235-35.641 0 1 .218 1.364.617 1.235-35.641 0 1 1.221.644.617 1.235-35.641 0 1-.217-1.363.617 1.235-35.641 0 1-1.222-.644z"/><path d="M53.98 16.951s-.27-.043-.39-.107c-.414-.224-1.006-.993-1.006-.993s.623.81.752 1.221c.039.124.026.39.026.39zm-.532 1.742a.617 1.235-35.641 0 1 .218 1.363.617 1.235-35.641 0 1 1.221.644.617 1.235-35.641 0 1-.217-1.363.617 1.235-35.641 0 1-1.222-.644z"/><path d="M53.98 18.743s-.27-.043-.39-.107c-.414-.224-1.006-.993-1.006-.993s.623.81.752 1.221c.039.124.026.39.026.39zm-.532-3.634a.617 1.235-35.641 0 1 .218 1.363.617 1.235-35.641 0 1 1.221.644.617 1.235-35.641 0 1-.217-1.363.617 1.235-35.641 0 1-1.222-.644z"/><path d="M53.98 15.16s-.27-.044-.39-.108c-.414-.224-1.006-.993-1.006-.993s.623.81.752 1.221c.039.124.026.39.026.39zm-.532-1.843a.617 1.235-35.641 0 1 .218 1.363.617 1.235-35.641 0 1 1.221.644.617 1.235-35.641 0 1-.217-1.363.617 1.235-35.641 0 1-1.222-.644z"/><path d="M53.98 13.367s-.27-.043-.39-.107c-.414-.224-1.006-.993-1.006-.993s.623.81.752 1.221c.039.124.026.39.026.39zm-.22-1.999a.617 1.235-24.967 0 1-.038 1.38.617 1.235-24.967 0 1 1.081.858.617 1.235-24.967 0 1 .039-1.38.617 1.235-24.967 0 1-1.081-.858z"/><path d="M54.274 11.516s-.258-.093-.363-.178c-.366-.297-.805-1.163-.805-1.163s.462.912.512 1.34c.015.13-.046.388-.046.388z"/></g><g fill="#fc0"><path d="M94.877 13.903a1.848 1.848 0 0 1 .18 2.608 1.848 1.848 0 0 1-2.607.18 1.848 1.848 0 0 1-.18-2.608 1.848 1.848 0 0 1 2.607-.18z"/><path d="M90.74 11.356a1.848 1.848 0 0 1 2.536.635 1.848 1.848 0 0 1-.635 2.535 1.848 1.848 0 0 1-2.536-.634 1.848 1.848 0 0 1 .635-2.536z"/><path d="M87.039 14.504a1.848 1.848 0 0 1 1.387-2.216 1.848 1.848 0 0 1 2.216 1.388 1.848 1.848 0 0 1-1.388 2.215 1.848 1.848 0 0 1-2.215-1.387z"/><path d="M88.89 18.996a1.848 1.848 0 0 1-1.68-2.003 1.848 1.848 0 0 1 2.005-1.679 1.848 1.848 0 0 1 1.678 2.004 1.848 1.848 0 0 1-2.004 1.678z"/><path d="M93.733 18.625a1.848 1.848 0 0 1-2.424.977 1.848 1.848 0 0 1-.977-2.424 1.848 1.848 0 0 1 2.424-.977 1.848 1.848 0 0 1 .977 2.424z"/></g><g fill="#fc0"><path d="M83.452 1.971a1.848 1.848 0 0 1 2.507-.738 1.848 1.848 0 0 1 .738 2.507 1.848 1.848 0 0 1-2.507.739 1.848 1.848 0 0 1-.738-2.508z"/><path d="M81.857 6.56a1.848 1.848 0 0 1 .073-2.612 1.848 1.848 0 0 1 2.613.073 1.848 1.848 0 0 1-.073 2.613 1.848 1.848 0 0 1-2.613-.073z"/><path d="M85.73 9.495a1.848 1.848 0 0 1-2.463-.876 1.848 1.848 0 0 1 .876-2.463 1.848 1.848 0 0 1 2.463.877 1.848 1.848 0 0 1-.877 2.462z"/><path d="M89.717 6.72a1.848 1.848 0 0 1-1.595 2.07 1.848 1.848 0 0 1-2.07-1.594 1.848 1.848 0 0 1 1.594-2.071 1.848 1.848 0 0 1 2.07 1.595z"/><path d="M88.31 2.07a1.848 1.848 0 0 1 1.476 2.156 1.848 1.848 0 0 1-2.156 1.477 1.848 1.848 0 0 1-1.477-2.156 1.848 1.848 0 0 1 2.156-1.478z"/></g><g fill="#fc0"><path d="M78.445 12.075a1.848 1.848 0 0 1 .886 2.459 1.848 1.848 0 0 1-2.459.886 1.848 1.848 0 0 1-.886-2.459 1.848 1.848 0 0 1 2.459-.886z"/><path d="M73.768 10.757a1.848 1.848 0 0 1 2.613-.084 1.848 1.848 0 0 1 .083 2.613 1.848 1.848 0 0 1-2.612.083 1.848 1.848 0 0 1-.084-2.612z"/><path d="M71.07 14.797a1.848 1.848 0 0 1 .728-2.51 1.848 1.848 0 0 1 2.51.728 1.848 1.848 0 0 1-.728 2.51 1.848 1.848 0 0 1-2.51-.728z"/><path d="M74.078 18.612a1.848 1.848 0 0 1-2.162-1.468 1.848 1.848 0 0 1 1.468-2.163 1.848 1.848 0 0 1 2.163 1.468 1.848 1.848 0 0 1-1.469 2.163z"/><path d="M78.636 16.93a1.848 1.848 0 0 1-2.064 1.602 1.848 1.848 0 0 1-1.603-2.064 1.848 1.848 0 0 1 2.064-1.603 1.848 1.848 0 0 1 1.603 2.064z"/></g><path d="M122.447 3.7c9.189.95 12.63 8.43 12.553 21.662l2.964-1.398c0-1.462-.026-1.25-.026-2.712 0-10.867-6.404-17.274-10.911-18.343z" fill="#00d400"/><path d="M109.295 19.075c8.936-2.556 20.004-3.048 18.061-16.131-17.114-8.054-11.346 7.067-18.06 16.131z" fill="#00d400"/><path d="M128.43 1.587c-4.446 6.14-14.13 15.176-20.084 17.87 5.978-2.223 17.58-11.33 20.084-17.87z" fill="#fff"/><path d="M154.928 18.967c-8.784-3.034-19.81-4.122-17.165-17.081 18.215-5.51 10.95 7.668 17.165 17.081z" fill="#00d400"/><path d="M136.764.472c4.109 6.372 13.292 15.916 19.091 18.928-5.848-2.543-16.943-12.262-19.09-18.928z" fill="#fff"/><path d="M137.878 1.966c-1.993 1.565-2.801 10.164-2.878 23.396l2.964-1.398c0-1.462.036 1.86.036.398 0-10.867.859-19.322 1.215-21.118z" fill="#00d400"/><path d="M160.041 32.639a.949.949 0 1 1-1.897 0 .949.949 0 1 1 1.897 0z" fill="#0cf"/><path d="M170 115.362v5h8v-5h-8z" fill="#06f"/><path d="M154 115.362v5h13v-5h-13z" fill="#0cf"/><path d="M95 115.362v5h56v-5H95z" fill="#00d400"/><path d="M37 115.362v5h55v-5H37z" fill="#fc0"/><path d="M0 115.362v5h34v-5H0z" fill="red"/><g style="line-height:125%;-inkscape-font-specification:Arial Narrow" font-size="22.903" font-weight="400" letter-spacing="0" word-spacing="0" fill="#333" font-family="Arial Narrow"><path d="M.295 104.184c0-2.796.615-4.945 1.846-6.447 1.23-1.502 2.762-2.253 4.596-2.253 1.185 0 2.266.335 3.243 1.006.976.671 1.75 1.646 2.32 2.925.57 1.278.856 2.8.856 4.568 0 2.43-.552 4.41-1.655 5.938-1.216 1.685-2.807 2.527-4.775 2.527-1.984 0-3.579-.865-4.787-2.594-1.096-1.566-1.644-3.456-1.644-5.67zm1.834.034c0 2.02.446 3.587 1.337 4.702.89 1.115 1.973 1.672 3.248 1.672 1.305 0 2.4-.563 3.283-1.689.883-1.126 1.325-2.78 1.325-4.965 0-1.41-.228-2.669-.682-3.78-.35-.85-.878-1.53-1.583-2.04-.704-.511-1.474-.767-2.31-.767-1.341 0-2.446.56-3.315 1.678-.868 1.118-1.303 2.848-1.303 5.189zM15 112.362v-17h4.675c1.224 0 2.127.107 2.708.322.796.29 1.431.83 1.905 1.618.475.788.712 1.756.712 2.903 0 1.515-.386 2.75-1.16 3.707-.772.957-2.107 1.425-4.004 1.435l-2.836.015v7zm2-9h2.87c1.125 0 1.947-.255 2.467-.764s.78-1.276.78-2.3c0-.666-.127-1.236-.384-1.71-.256-.475-.566-.8-.93-.976-.363-.176-1.019-.264-1.967-.264L17 97.362zm10 9v-17h10v2h-8v5h7v2h-7v6h8v2zm12 0v-17h2l7 13v-13h2v17h-2l-7-13v13zm19 0v-17h9v2h-7v5h6v2h-6v8zm10.256-8.178c0-2.796.615-4.945 1.845-6.447 1.23-1.502 2.762-2.253 4.596-2.253 1.186 0 2.267.335 3.243 1.006.977.671 1.75 1.646 2.32 2.925.571 1.278.856 2.8.856 4.568 0 2.43-.551 4.41-1.655 5.938-1.215 1.685-2.807 2.527-4.775 2.527-1.983 0-3.578-.865-4.786-2.594-1.096-1.566-1.644-3.456-1.644-5.67zm1.834.034c0 2.02.445 3.587 1.336 4.702.891 1.115 1.974 1.672 3.249 1.672 1.305 0 2.399-.563 3.282-1.689.884-1.126 1.325-2.78 1.325-4.965 0-1.41-.227-2.669-.682-3.78-.35-.85-.878-1.53-1.582-2.04-.705-.511-1.474-.767-2.31-.767-1.341 0-2.447.56-3.315 1.678-.869 1.118-1.303 2.848-1.303 5.189zm12.793-.034c0-2.796.615-4.945 1.846-6.447 1.23-1.502 2.762-2.253 4.596-2.253 1.185 0 2.266.335 3.243 1.006.976.671 1.75 1.646 2.32 2.925.57 1.278.856 2.8.856 4.568 0 2.43-.552 4.41-1.655 5.938-1.216 1.685-2.807 2.527-4.775 2.527-1.984 0-3.579-.865-4.787-2.594-1.096-1.566-1.644-3.456-1.644-5.67zm1.834.034c0 2.02.446 3.587 1.337 4.702.89 1.115 1.973 1.672 3.248 1.672 1.305 0 2.4-.563 3.283-1.689.883-1.126 1.325-2.78 1.325-4.965 0-1.41-.228-2.669-.682-3.78-.35-.85-.878-1.53-1.583-2.04-.704-.511-1.474-.767-2.31-.767-1.341 0-2.446.56-3.315 1.678-.868 1.118-1.303 2.848-1.303 5.189zM98 112.362v-17h5c1.213 0 2.005.174 2.635.383.827.27 1.543.72 2.15 1.437.606.718 1.079 1.623 1.417 2.716.339 1.092.508 2.387.508 3.884 0 1.922-.287 3.553-.862 4.892-.575 1.34-1.313 2.29-2.215 2.849-.902.56-2.176.84-3.633.84zm2-2h3c1.22 0 2.017-.198 2.647-.588.63-.39 1.114-1.017 1.453-1.881.448-1.15.673-2.528.673-4.134 0-1.721-.238-3.074-.715-4.058-.476-.984-1.088-1.642-1.836-1.974-.504-.224-1.127-.365-2.222-.365h-3zm18 2l.076-17h9v2h-7v5h6v2h-6v8zm10.076 0l5-17h2l5 17h-2l-4-15-4.04 15zm23.285-5.942l1.79.549c-.396 1.841-1.087 3.215-2.075 4.12-.988.906-2.19 1.36-3.606 1.36-1.245 0-2.31-.305-3.193-.912-.884-.608-1.607-1.583-2.17-2.924-.562-1.342-.844-2.927-.844-4.753 0-1.804.282-3.33.844-4.58.563-1.248 1.326-2.192 2.287-2.829a5.703 5.703 0 0 1 3.221-.956c1.297 0 2.412.404 3.344 1.213.932.81 1.584 1.996 1.957 3.562l-1.745.503c-.596-2.281-1.793-3.422-3.59-3.422-.894 0-1.67.23-2.326.688-.656.459-1.18 1.172-1.57 2.142-.392.969-.588 2.195-.588 3.679 0 2.244.395 3.927 1.186 5.049.79 1.122 1.841 1.683 3.153 1.683.97 0 1.806-.345 2.51-1.035.705-.69 1.177-1.735 1.415-3.136zm7.639 5.942v-15l-5 .006v-2.006h12v2h-5v15zm8.268-5.46l1.678-.18c.09.903.292 1.605.61 2.109.316.503.769.907 1.358 1.213.589.306 1.252.458 1.99.458 1.06 0 1.881-.259 2.466-.777.586-.518.878-1.19.878-2.018 0-.485-.106-.908-.319-1.27-.212-.361-.533-.657-.961-.889-.429-.23-1.355-.555-2.78-.973-1.267-.372-2.169-.749-2.706-1.129a3.944 3.944 0 0 1-1.252-1.448c-.298-.585-.447-1.247-.447-1.985 0-1.327.428-2.412 1.286-3.254.857-.843 2.013-1.264 3.466-1.264 1 0 1.874.197 2.623.593.75.395 1.33.961 1.744 1.7.414.737.636 1.606.666 2.605l-1.711.157c-.09-1.067-.408-1.857-.956-2.371-.548-.515-1.318-.772-2.31-.772-1.006 0-1.774.226-2.303.677-.53.45-.794 1.034-.794 1.75 0 .663.194 1.178.581 1.543.388.365 1.26.734 2.617 1.107 1.327.366 2.259.682 2.796.95.82.418 1.439.968 1.856 1.65.418.682.626 1.497.626 2.444 0 .94-.22 1.795-.66 2.566a4.434 4.434 0 0 1-1.794 1.762c-.757.402-1.668.603-2.735.603-1.662 0-2.987-.5-3.975-1.498-.988-1-1.5-2.352-1.538-4.06z"/><path d="M137.076 105.362v2h-6v-2z"/></g><text y="114.362" x="190" style="line-height:125%;-inkscape-font-specification:Arial Narrow" font-size="32.817" font-weight="400" letter-spacing="0" word-spacing="0" fill="#333" font-family="Arial Narrow"><tspan y="114.362" x="190" font-size="22.903">OPEN FOOD FACTS</tspan></text><text style="line-height:125%;-inkscape-font-specification:Arial Narrow" x=".104" y="122.767" transform="scale(.9034 1.10693)" font-size="33.204" font-weight="400" letter-spacing="0" word-spacing="0" fill="#333" font-family="Arial Narrow"><tspan style="-inkscape-font-specification:Arial Unicode MS" x=".104" y="122.767" font-size="15.177" font-family="Arial Unicode MS">Cơ sở dữ liệu miễn phí về mặt hàng thực phẩm</tspan></text><path fill="none" d="M110-2.638h5v5h-5z"/><path fill="none" d="M110-2.638h5v5h-5zm-109 140h1v1H1z"/><text transform="scale(.9034 1.10693)" y="155.712" x="-.017" style="line-height:125%;-inkscape-font-specification:Arial Narrow" font-size="37.069" font-weight="400" letter-spacing="0" word-spacing="0" fill="#333" font-family="Arial Narrow"><tspan y="155.712" x="-.017" font-size="16.943">l&apos;information alimentaire ouverte</tspan></text><text transform="scale(.9034 1.10693)" y="173.78" x="-.017" style="line-height:125%;-inkscape-font-specification:Arial Narrow" font-size="37.069" font-weight="400" letter-spacing="0" word-spacing="0" fill="#333" font-family="Arial Narrow"><tspan y="173.78" x="-.017" font-size="16.943">the free food product information database</tspan></text><text transform="scale(.9034 1.10693)" y="191.848" x="-.017" style="line-height:125%;-inkscape-font-specification:Arial Narrow" font-size="37.069" font-weight="400" letter-spacing="0" word-spacing="0" fill="#333" font-family="Arial Narrow"><tspan y="191.848" x="-.017" font-size="16.943">the free food products database</tspan></text></svg>