<svg xmlns="http://www.w3.org/2000/svg" width="178" height="150"><path d="M170 26v6.411c1.196.444 2.214 1.06 3 1.761V26zm4 0v8.312l1-.839V26zm2 0v6.607l1-.979v11.77l-1-1.007V95h2V26zm-2 14.686V95h1V41.525zm-1 .14c-.786.702-1.796 1.313-3 1.76V95h3z" fill="#06f"/><path d="M154 26v69h3V41.19c-1.324-1.016-2.125-2.272-2.125-3.663 0-1.39.801-2.675 2.125-3.69V26zm4 0v7.194c1.126-.643 2.47-1.129 4-1.398V26zm5 0v5.628c.33-.036.66-.04 1-.056V26h-1zm2 0v5.544c.683.009 1.358.081 2 .168V26zm-7 15.86V95h4V43.23c-1.587-.269-2.875-.728-4-1.37zm9 1.482a16.62 16.62 0 0 1-2 .14V95h2zm-4 .056V95h1V43.454c-.34-.017-.67-.02-1-.056z" fill="#0cf"/><path d="M150 26v69h1V26zm-4 0v69h3V26zm-3 0v69h2V26zm-2 0v69h1V26zm-6-2v71h3V26zm-3 2v69h2V26zm-3 0v69h2V26zm-4 0v69h1V26zm-4 0v69h1V26zm-5 0v69h2V26zm-4 0v69h1V26zm-2 0v69h1V26zm-2 0v69h1V26zm-5 0v69h2V26zm-4 0v69h1V26zm-4 0l.017 69H96l-.017-69z" fill="#00d400"/><path d="M90 21v74h2V21zm-2 5v69h1V26zm-3-16v85h2V10zm-4 16v69h3V26zm-4 0v69h1V26zm-3-6v75h2V20zm-4 6v69h3V26zm-4 0v69h1V26zm-2 0v69h1V26zm-5 0l.026 69H61l-.027-69zm-4-11v80h1V15zm-3 11v69h2V26zm-6 0v69h3V26zm-2 0v69h1V26zm-4 0v69h1V26zm-3 0v69h2V26z" fill="#fc0"/><path d="M33 20v75h1V20zm-3-1v76h2V19zm-4 7v69h3V26zm-4 0v69h3V26zm-3-6v75h2V20zm-4 1v74h3V21zm-4 5v69h1V26zm-3 0v69h1V26zm-5 0v69h1V26zm-3 0v69h2V26z" fill="red"/><path d="M12.96 20.168c.63-.816.72-2.676 1.282-4.359.405-1.213.463-4.597 1.208-4.882.969-.371 3.17-.358 4.224-.417 2.3-.128 4.52 1.099 6.823 1.101 2.99.004 8.861-1.41 8.861-1.41l-.14-2.04 1.505.279 4.077-.517-3.008 1.386s1.202-.02 1.688.277c.705.432.96 1.347 1.469 2 .292.373 1.082.654.908 1.095-.47 1.19-3.809.486-3.809.486L36.13 14.97c-.833 1.78-2.262 3.262-2.254 6.722 0 0-6.007-.923-8.991-.796-1.764.074-4.97.618-4.97.618-1.608-.137-3.296-.53-4.904-.25.01-6.235.866-6.128.698-9.294-.439 1.68-.97 4.516-1.026 5.772-.535 1.526-.012 1.9-1.723 2.426z" fill="red"/><g transform="rotate(-37.635 30.68 -53.687) scale(.01879)" fill="#fc0"><ellipse ry="32.857" rx="65.714" cy="762.362" cx="567.143" transform="rotate(-54.359 554.927 858.045)"/><path d="M494.286 741.648s14.409-2.316 20.714-5.714c22.088-11.904 53.571-52.858 53.571-52.858s-33.141 43.14-40 65c-2.071 6.604-1.428 20.715-1.428 20.715z"/></g><g fill="#fc0"><g transform="translate(47.682 5.652) scale(.0188)"><ellipse ry="32.857" rx="65.714" cy="762.362" cx="567.143" transform="rotate(-54.359 554.927 858.045)"/><path d="M494.286 741.648s14.409-2.316 20.714-5.714c22.088-11.904 53.571-52.858 53.571-52.858s-33.141 43.14-40 65c-2.071 6.604-1.428 20.715-1.428 20.715z"/></g><g transform="translate(47.682 7.444) scale(.0188)"><ellipse ry="32.857" rx="65.714" cy="762.362" cx="567.143" transform="rotate(-54.359 554.927 858.045)"/><path d="M494.286 741.648s14.409-2.316 20.714-5.714c22.088-11.904 53.571-52.858 53.571-52.858s-33.141 43.14-40 65c-2.071 6.604-1.428 20.715-1.428 20.715z"/></g><g transform="translate(47.682 3.86) scale(.0188)"><ellipse ry="32.857" rx="65.714" cy="762.362" cx="567.143" transform="rotate(-54.359 554.927 858.045)"/><path d="M494.286 741.648s14.409-2.316 20.714-5.714c22.088-11.904 53.571-52.858 53.571-52.858s-33.141 43.14-40 65c-2.071 6.604-1.428 20.715-1.428 20.715z"/></g><g transform="translate(47.682 2.068) scale(.0188)"><ellipse ry="32.857" rx="65.714" cy="762.362" cx="567.143" transform="rotate(-54.359 554.927 858.045)"/><path d="M494.286 741.648s14.409-2.316 20.714-5.714c22.088-11.904 53.571-52.858 53.571-52.858s-33.141 43.14-40 65c-2.071 6.604-1.428 20.715-1.428 20.715z"/></g><g transform="rotate(-10.644 34.013 -239.594) scale(.01879)"><ellipse ry="32.857" rx="65.714" cy="762.362" cx="567.143" transform="rotate(-54.359 554.927 858.045)"/><path d="M494.286 741.648s14.409-2.316 20.714-5.714c22.088-11.904 53.571-52.858 53.571-52.858s-33.141 43.14-40 65c-2.071 6.604-1.428 20.715-1.428 20.715z"/></g><g transform="matrix(-.0188 0 0 .0188 63.268 5.652)"><ellipse ry="32.857" rx="65.714" cy="762.362" cx="567.143" transform="rotate(-54.359 554.927 858.045)"/><path d="M494.286 741.648s14.409-2.316 20.714-5.714c22.088-11.904 53.571-52.858 53.571-52.858s-33.141 43.14-40 65c-2.071 6.604-1.428 20.715-1.428 20.715z"/></g><g transform="matrix(-.0188 0 0 .0188 63.268 7.444)"><ellipse ry="32.857" rx="65.714" cy="762.362" cx="567.143" transform="rotate(-54.359 554.927 858.045)"/><path d="M494.286 741.648s14.409-2.316 20.714-5.714c22.088-11.904 53.571-52.858 53.571-52.858s-33.141 43.14-40 65c-2.071 6.604-1.428 20.715-1.428 20.715z"/></g><g transform="matrix(-.0188 0 0 .0188 63.268 3.86)"><ellipse ry="32.857" rx="65.714" cy="762.362" cx="567.143" transform="rotate(-54.359 554.927 858.045)"/><path d="M494.286 741.648s14.409-2.316 20.714-5.714c22.088-11.904 53.571-52.858 53.571-52.858s-33.141 43.14-40 65c-2.071 6.604-1.428 20.715-1.428 20.715z"/></g><g transform="matrix(-.0188 0 0 .0188 63.268 2.068)"><ellipse ry="32.857" rx="65.714" cy="762.362" cx="567.143" transform="rotate(-54.359 554.927 858.045)"/><path d="M494.286 741.648s14.409-2.316 20.714-5.714c22.088-11.904 53.571-52.858 53.571-52.858s-33.141 43.14-40 65c-2.071 6.604-1.428 20.715-1.428 20.715z"/></g><g transform="matrix(-.01847 -.00348 -.00348 .01847 65.983 2.178)"><ellipse ry="32.857" rx="65.714" cy="762.362" cx="567.143" transform="rotate(-54.359 554.927 858.045)"/><path d="M494.286 741.648s14.409-2.316 20.714-5.714c22.088-11.904 53.571-52.858 53.571-52.858s-33.141 43.14-40 65c-2.071 6.604-1.428 20.715-1.428 20.715z"/></g></g><g transform="rotate(-48.948 -310.85 675.412) scale(.73933)" fill="#fc0"><circle r="2.5" cy="732.362" cx="608" transform="translate(1.5 9.75)"/><circle r="2.5" cy="732.362" cx="608" transform="rotate(-72 612.96 733.705)"/><circle r="2.5" cy="732.362" cx="608" transform="rotate(-144 607.834 734.494)"/><circle r="2.5" cy="732.362" cx="608" transform="rotate(144 604.666 734.98)"/><circle r="2.5" cy="732.362" cx="608" transform="rotate(72 599.54 735.77)"/></g><g transform="matrix(-.64917 -.35383 .35383 -.64917 218.165 702.908)" fill="#fc0"><circle r="2.5" cy="732.362" cx="608" transform="translate(1.5 9.75)"/><circle r="2.5" cy="732.362" cx="608" transform="rotate(-72 612.96 733.705)"/><circle r="2.5" cy="732.362" cx="608" transform="rotate(-144 607.834 734.494)"/><circle r="2.5" cy="732.362" cx="608" transform="rotate(144 604.666 734.98)"/><circle r="2.5" cy="732.362" cx="608" transform="rotate(72 599.54 735.77)"/></g><g transform="matrix(.3145 -.6691 .6691 .3145 -610.582 190.809)" fill="#fc0"><circle r="2.5" cy="732.362" cx="608" transform="translate(1.5 9.75)"/><circle r="2.5" cy="732.362" cx="608" transform="rotate(-72 612.96 733.705)"/><circle r="2.5" cy="732.362" cx="608" transform="rotate(-144 607.834 734.494)"/><circle r="2.5" cy="732.362" cx="608" transform="rotate(144 604.666 734.98)"/><circle r="2.5" cy="732.362" cx="608" transform="rotate(72 599.54 735.77)"/></g><path d="M122.447 6.337c9.189.95 12.63 8.43 12.553 21.663l2.964-1.399c0-1.462-.026-1.249-.026-2.71 0-10.868-6.404-17.276-10.911-18.344z" fill="#00d400"/><path d="M109.295 21.713c8.936-2.556 20.004-3.048 18.061-16.131-17.114-8.055-11.346 7.067-18.06 16.13z" fill="#00d400"/><path d="M128.43 4.225c-4.446 6.14-14.13 15.176-20.084 17.87 5.978-2.223 17.58-11.33 20.084-17.87z" fill="#fff"/><path d="M154.928 21.605c-8.784-3.034-19.81-4.123-17.165-17.082 18.215-5.51 10.95 7.669 17.165 17.082z" fill="#00d400"/><path d="M136.764 3.11c4.109 6.371 13.292 15.916 19.091 18.927-5.848-2.542-16.943-12.26-19.09-18.927z" fill="#fff"/><path d="M137.878 4.604C135.885 6.169 135.077 14.768 135 28l2.964-1.399c0-1.462.036 1.86.036.399 0-10.867.859-19.322 1.215-21.118z" fill="#00d400"/><circle r=".949" cy="35.276" cx="159.092" fill="#0cf"/><path d="M170 118v5h8v-5h-8z" fill="#06f"/><path d="M154 118v5h13v-5h-13z" fill="#0cf"/><path d="M95 118v5h56v-5H95z" fill="#00d400"/><path d="M37 118v5h55v-5H37z" fill="#fc0"/><path d="M0 118v5h34v-5H0z" fill="red"/><g style="line-height:125%;-inkscape-font-specification:'Arial Narrow'" font-weight="400" font-size="22.903" font-family="Arial Narrow" letter-spacing="0" word-spacing="0" fill="#333"><path d="M.295 106.822c0-2.796.615-4.945 1.846-6.447 1.23-1.502 2.762-2.253 4.596-2.253 1.185 0 2.266.335 3.243 1.006.976.671 1.75 1.646 2.32 2.924.57 1.279.856 2.802.856 4.569 0 2.43-.552 4.41-1.655 5.938-1.216 1.685-2.807 2.527-4.775 2.527-1.984 0-3.579-.865-4.787-2.594-1.096-1.566-1.644-3.456-1.644-5.67zm1.834.033c0 2.02.446 3.588 1.337 4.703.89 1.114 1.973 1.672 3.248 1.672 1.305 0 2.4-.563 3.283-1.689.883-1.126 1.325-2.78 1.325-4.965 0-1.41-.228-2.67-.682-3.78-.35-.85-.878-1.53-1.583-2.04a3.842 3.842 0 0 0-2.31-.767c-1.341 0-2.446.56-3.315 1.678-.868 1.118-1.303 2.847-1.303 5.188zM15 115V98h4.675c1.224 0 2.127.107 2.708.321.796.291 1.431.83 1.905 1.619.475.788.712 1.755.712 2.903 0 1.515-.386 2.75-1.16 3.707-.772.956-2.107 1.424-4.004 1.435L17 108v7zm2-9h2.87c1.125-.001 1.947-.255 2.467-.764s.78-1.276.78-2.301c0-.666-.127-1.236-.384-1.71-.256-.474-.566-.8-.93-.976-.363-.176-1.019-.264-1.967-.264L17 100zm10 9V98h10v2h-8v5h7v2h-7v6h8v2zm12 0V98h2l7 13V98h2v17h-2l-7-13v13zm19 0V98h9v2h-7v5h6v2h-6v8zm10.256-8.178c0-2.796.615-4.945 1.845-6.447 1.23-1.502 2.762-2.253 4.596-2.253 1.186 0 2.267.335 3.243 1.006.977.671 1.75 1.646 2.32 2.924.571 1.279.856 2.802.856 4.569 0 2.43-.551 4.41-1.655 5.938-1.215 1.685-2.807 2.527-4.775 2.527-1.983 0-3.578-.865-4.786-2.594-1.096-1.566-1.644-3.456-1.644-5.67zm1.834.033c0 2.02.445 3.588 1.336 4.703.891 1.114 1.974 1.672 3.249 1.672 1.305 0 2.399-.563 3.282-1.689.884-1.126 1.325-2.78 1.325-4.965 0-1.41-.227-2.67-.682-3.78-.35-.85-.878-1.53-1.582-2.04-.705-.512-1.474-.767-2.31-.767-1.341 0-2.447.56-3.315 1.677-.869 1.119-1.303 2.848-1.303 5.19zm12.793-.033c0-2.796.615-4.945 1.846-6.447 1.23-1.502 2.762-2.253 4.596-2.253 1.185 0 2.266.335 3.243 1.006.976.671 1.75 1.646 2.32 2.924.57 1.279.856 2.802.856 4.569 0 2.43-.552 4.41-1.655 5.938-1.216 1.685-2.807 2.527-4.775 2.527-1.984 0-3.579-.865-4.787-2.594-1.096-1.566-1.644-3.456-1.644-5.67zm1.834.033c0 2.02.446 3.588 1.337 4.703.89 1.114 1.973 1.672 3.248 1.672 1.305 0 2.4-.563 3.283-1.689.883-1.126 1.325-2.78 1.325-4.965 0-1.41-.228-2.67-.682-3.78-.35-.85-.878-1.53-1.583-2.04a3.842 3.842 0 0 0-2.31-.767c-1.341 0-2.446.56-3.315 1.677-.868 1.119-1.303 2.848-1.303 5.19zM98 115V98h5c1.213 0 2.005.174 2.635.383.827.27 1.543.72 2.15 1.437.606.718 1.079 1.623 1.417 2.715.339 1.093.508 2.388.508 3.885 0 1.922-.287 3.553-.862 4.892-.575 1.34-1.313 2.289-2.215 2.849-.902.56-2.176.839-3.633.839zm2-2h3c1.22 0 2.017-.198 2.647-.588.63-.39 1.114-1.017 1.453-1.881.448-1.15.673-2.528.673-4.134 0-1.721-.238-3.074-.715-4.058-.476-.985-1.088-1.643-1.836-1.975-.504-.224-1.127-.364-2.222-.364h-3zm18 2l.076-17h9v2h-7v5h6v2h-6v8zm10.076 0l5-17h2l5 17h-2l-4-15-4.04 15zm23.285-5.942l1.79.548c-.396 1.842-1.087 3.216-2.075 4.121-.988.906-2.19 1.36-3.606 1.36-1.245 0-2.31-.305-3.193-.912-.884-.608-1.607-1.583-2.17-2.925-.562-1.342-.844-2.926-.844-4.752 0-1.805.282-3.331.844-4.58.563-1.249 1.326-2.192 2.287-2.83a5.703 5.703 0 0 1 3.221-.955c1.297 0 2.412.404 3.344 1.213.932.809 1.584 1.996 1.957 3.562l-1.745.503c-.596-2.281-1.793-3.422-3.59-3.422-.894 0-1.67.23-2.326.688-.656.458-1.18 1.172-1.57 2.141-.392.97-.588 2.196-.588 3.68 0 2.244.395 3.927 1.186 5.049.79 1.122 1.841 1.683 3.153 1.683.97 0 1.806-.345 2.51-1.035.705-.69 1.177-1.735 1.415-3.137zM159 115v-15l-5 .006V98h12v2h-5v15zm8.268-5.46l1.678-.18c.09.903.292 1.605.61 2.108.316.504.769.908 1.358 1.214.589.305 1.252.458 1.99.458 1.06 0 1.881-.259 2.466-.777.586-.518.878-1.19.878-2.018 0-.485-.106-.908-.319-1.27-.212-.361-.533-.658-.961-.889-.429-.23-1.355-.555-2.78-.973-1.267-.372-2.169-.749-2.706-1.13a3.944 3.944 0 0 1-1.252-1.447c-.298-.586-.447-1.247-.447-1.985 0-1.327.428-2.412 1.286-3.255.857-.842 2.013-1.263 3.466-1.263 1 0 1.874.197 2.623.592.75.396 1.33.962 1.744 1.7.414.738.636 1.607.666 2.606l-1.711.156c-.09-1.066-.408-1.856-.956-2.37-.548-.515-1.318-.772-2.31-.772-1.006 0-1.774.226-2.303.677-.53.45-.794 1.034-.794 1.75 0 .663.194 1.178.581 1.543.388.365 1.26.734 2.617 1.107 1.327.365 2.259.682 2.796.95.82.418 1.439.968 1.856 1.65.418.682.626 1.497.626 2.444a5.09 5.09 0 0 1-.66 2.566 4.434 4.434 0 0 1-1.794 1.761c-.757.403-1.668.604-2.735.604-1.662 0-2.987-.5-3.975-1.498-.988-1-1.5-2.352-1.538-4.06z"/><path d="M137.076 108v2h-6v-2z"/></g><path d="M1.44 139.125L0 129.99h.828l.748 5.272.276 1.961.249-1.883.747-5.35h.823l.704 5.298.238 1.746.27-1.763.808-5.28h.78l-1.479 9.133h-.828l-.753-5.47-.179-1.557-.953 7.027H1.44zm5.398-4.567q0-2.365.623-3.57.628-1.203 1.587-1.203.942 0 1.575 1.204.634 1.204.634 3.474 0 2.46-.623 3.664-.623 1.204-1.586 1.204-.948 0-1.581-1.204-.629-1.213-.629-3.57zm.818 0q0 1.772.406 2.64.406.86 1.007.86.563 0 .964-.868.406-.878.406-2.632 0-1.763-.406-2.623-.406-.869-1.007-.869-.569 0-.97.869-.4.868-.4 2.623zm4.527 4.567v-12.608h.795v12.608h-.795zm2.035 0v-9.134h.72v1.299q.26-.757.634-1.127.379-.378.866-.378.38 0 .699.24.325.233.52.62.2.378.297.989.098.61.098 1.875v5.616h-.802v-5.556q0-1.006-.108-1.47-.108-.465-.341-.715-.227-.258-.53-.258-.575 0-.916.68-.34.68-.34 2.33v4.989h-.797zm8.144-1.127q-.401.662-.834.998-.433.335-.899.335-.736 0-1.175-.705-.438-.705-.438-1.9 0-.792.205-1.403.206-.61.563-.954.358-.344 1.083-.508.975-.223 1.43-.533l.005-.396q0-.937-.211-1.315-.298-.55-.915-.55-.558 0-.834.369-.276.361-.406 1.367l-.785-.206q.168-1.47.677-2.141.514-.671 1.467-.671.742 0 1.164.447.422.439.53 1.092.114.654.114 1.91v2.064q0 2.167.05 2.734.053.56.205 1.093h-.834q-.124-.473-.162-1.127zm-.065-3.457q-.439.344-1.305.585-.504.137-.704.318-.2.172-.314.499-.108.318-.108.74 0 .653.254 1.048.255.387.704.387.428 0 .774-.352.352-.353.525-.938.174-.593.174-1.72v-.567zm5.328 4.584h-.742v-12.608h.796v4.498q.254-.62.574-.92.324-.31.72-.31.552 0 1.001.524.455.525.726 1.591.27 1.067.27 2.59 0 2.321-.611 3.585-.612 1.256-1.43 1.256-.411 0-.741-.335-.325-.344-.563-1.015v1.144zm-.011-4.636q0 1.42.162 2.124.163.706.46 1.075.298.37.66.37.494 0 .873-.877.384-.886.384-2.64 0-1.798-.368-2.64-.368-.843-.904-.843-.493 0-.883.885-.384.878-.384 2.546zm7.417 3.509q-.4.662-.833.998-.433.335-.9.335-.736 0-1.174-.705-.439-.705-.439-1.9 0-.792.206-1.403.206-.61.563-.954.358-.344 1.083-.508.975-.223 1.43-.533l.005-.396q0-.937-.211-1.315-.298-.55-.915-.55-.558 0-.834.369-.276.361-.406 1.367l-.785-.206q.168-1.47.677-2.141.514-.671 1.467-.671.742 0 1.164.447.422.439.53 1.092.114.654.114 1.91v2.064q0 2.167.049 2.734.054.56.206 1.093h-.834q-.125-.473-.163-1.127zm-.064-3.457q-.44.344-1.305.585-.504.137-.704.318-.2.172-.314.499-.109.318-.109.74 0 .653.255 1.048.254.387.704.387.428 0 .774-.352.352-.353.525-.938.174-.593.174-1.72v-.567zm1.651 4.584v-1.256l3.005-6.674q-.514.052-.904.052h-1.922v-1.256h3.855v1.024l-2.556 5.796-.493 1.058q.536-.077 1.007-.077h2.182v1.333h-4.174zm8.03-1.127q-.401.662-.834.998-.433.335-.9.335-.735 0-1.174-.705-.439-.705-.439-1.9 0-.792.206-1.403.206-.61.563-.954.358-.344 1.083-.508.975-.223 1.43-.533l.005-.396q0-.937-.211-1.315-.298-.55-.915-.55-.558 0-.834.369-.276.361-.406 1.367l-.785-.206q.168-1.47.677-2.141.514-.671 1.467-.671.742 0 1.164.447.422.439.53 1.092.114.654.114 1.91v2.064q0 2.167.049 2.734.054.56.206 1.093h-.834q-.125-.473-.162-1.127zm-.065-3.457q-.439.344-1.305.585-.504.137-.704.318-.2.172-.314.499-.109.318-.109.74 0 .653.255 1.048.254.387.704.387.428 0 .774-.352.352-.353.525-.938.174-.593.174-1.72v-.567zm7.65 4.584v-1.153q-.216.662-.558 1.015-.34.344-.736.344-.834 0-1.446-1.247-.606-1.256-.606-3.526 0-1.557.27-2.64.272-1.084.72-1.609.456-.524 1.008-.524.395 0 .73.335.342.327.564.92v-4.523h.801v12.608h-.747zm-2.528-4.558q0 1.771.384 2.631.39.86.904.86.51 0 .883-.825.373-.826.373-2.494 0-1.918-.373-2.796-.374-.885-.942-.885-.504 0-.867.851-.362.843-.362 2.658zm7.612 3.431q-.4.662-.833.998-.434.335-.9.335-.736 0-1.174-.705-.439-.705-.439-1.9 0-.792.206-1.403.206-.61.563-.954t1.083-.508q.975-.223 1.43-.533l.005-.396q0-.937-.211-1.315-.298-.55-.915-.55-.558 0-.834.369-.276.361-.406 1.367l-.785-.206q.167-1.47.676-2.141.515-.671 1.468-.671.741 0 1.164.447.422.439.53 1.092.114.654.114 1.91v2.064q0 2.167.049 2.734.054.56.206 1.093h-.834q-.125-.473-.163-1.127zm-.065-3.457q-.438.344-1.305.585-.503.137-.703.318-.2.172-.314.499-.109.318-.109.74 0 .653.255 1.048.254.387.704.387.427 0 .774-.352.352-.353.525-.938.173-.593.173-1.72v-.567zm2.058 4.584v-9.134h.72v1.299q.26-.757.633-1.127.38-.378.867-.378.379 0 .698.24.325.233.52.62.2.378.298.989.097.61.097 1.875v5.616h-.801v-5.556q0-1.006-.108-1.47-.109-.465-.341-.715-.228-.258-.531-.258-.574 0-.915.68-.341.68-.341 2.33v4.989h-.796zm5.046 3.517l-.086-1.453q.265.137.454.137.255 0 .417-.163.168-.163.276-.507.038-.12.314-1.514l-1.792-9.15h.861l.986 5.288q.184.99.34 2.116.136-1.066.326-2.081l1.007-5.324h.801l-1.792 9.288q-.352 1.807-.558 2.409-.2.61-.46.877-.255.266-.58.266-.227 0-.514-.189zm7.662-6.862l.785.197q-.136 1.634-.683 2.494-.541.86-1.304.86-.926 0-1.527-1.204-.596-1.213-.596-3.578 0-2.382.601-3.569.607-1.195 1.554-1.195.731 0 1.23.722.503.723.643 2.167l-.774.233q-.114-.93-.395-1.385-.282-.464-.677-.464-.59 0-.98.834-.384.825-.384 2.632 0 1.866.368 2.7.373.834.953.834.455 0 .774-.55.325-.56.412-1.729zm1.456 3.345v-12.608h.796v4.523q.282-.627.633-.937.358-.318.786-.318.752 0 1.185.765.439.757.439 2.787v5.788h-.796v-5.788q0-1.187-.265-1.703-.266-.516-.731-.516-.52 0-.888.662-.363.662-.363 2.348v4.997h-.796zm7.602 3.5v-12.634h.73v1.187q.272-.74.602-1.066.33-.327.758-.327.558 0 1.007.524.45.525.72 1.6.276 1.066.276 2.572 0 2.33-.617 3.594-.612 1.256-1.44 1.256-.368 0-.688-.3-.32-.302-.552-.852v4.446h-.796zm.72-8.015q0 1.771.374 2.614.373.834.904.834.509 0 .893-.868.385-.869.385-2.684 0-1.789-.374-2.649-.373-.86-.91-.86-.481 0-.877.93-.395.92-.395 2.683zm4.348 4.515v-9.134h.72v1.385q.276-.963.504-1.273.232-.318.52-.318.4 0 .817.499l-.27 1.436q-.299-.336-.58-.336-.255 0-.466.284-.211.284-.298.791-.151.886-.151 1.884v4.782h-.796zm2.734-4.567q0-2.365.623-3.57.628-1.203 1.586-1.203.942 0 1.576 1.204.633 1.204.633 3.474 0 2.46-.622 3.664-.623 1.204-1.587 1.204-.947 0-1.58-1.204-.629-1.213-.629-3.57zm.818 0q0 1.772.406 2.64.406.86 1.007.86.563 0 .964-.868.406-.878.406-2.632 0-1.763-.406-2.623-.406-.869-1.007-.869-.569 0-.97.869-.4.868-.4 2.623zm7.607 4.567v-1.153q-.217.662-.558 1.015-.34.344-.736.344-.834 0-1.446-1.247-.606-1.256-.606-3.526 0-1.557.27-2.64.271-1.084.72-1.609.456-.524 1.008-.524.395 0 .73.335.342.327.564.92v-4.523h.801v12.608h-.747zm-2.528-4.558q0 1.771.384 2.631.39.86.904.86.51 0 .883-.825.373-.826.373-2.494 0-1.918-.373-2.796-.374-.885-.942-.885-.504 0-.867.851-.362.843-.362 2.658zm7.628 4.558v-1.342q-.276.774-.65 1.161-.373.387-.844.387-.558 0-.953-.473-.395-.482-.53-1.213-.13-.73-.13-1.995v-5.659h.796v5.066q0 1.41.086 1.892.092.473.33.765.244.284.553.284.574 0 .942-.748.314-.645.314-2.365v-4.894h.801v9.134h-.715zm1.998 0v-12.608h.796v7.19l1.895-3.716h1.035l-1.803 3.389 1.981 5.745h-.98l-1.565-4.67-.563 1.049v3.62h-.796zm6.309-1.385l.108 1.367q-.33.138-.596.138-.417 0-.671-.258-.255-.267-.352-.722-.092-.456-.092-1.815v-5.255h-.585v-1.204h.585v-2.262l.795-.928v3.19h.807v1.204h-.807v5.341q0 .74.07.955.104.31.385.31.136 0 .352-.061zm.454-3.182q0-2.365.623-3.57.628-1.203 1.586-1.203.942 0 1.576 1.204.633 1.204.633 3.474 0 2.46-.622 3.664-.623 1.204-1.587 1.204-.947 0-1.58-1.204-.629-1.213-.629-3.57zm.818 0q0 1.772.406 2.64.406.86 1.007.86.563 0 .964-.868.406-.878.406-2.632 0-1.763-.406-2.623-.407-.869-1.008-.869-.568 0-.969.869-.4.868-.4 2.623zm.806-5.702l.59-2.408h1.046l-.975 2.408h-.66zm4.608 10.269l-1.44-9.134h.828l.747 5.272.277 1.961.249-1.883.747-5.35h.823l.704 5.298.238 1.746.27-1.763.807-5.28h.78l-1.478 9.133h-.828l-.753-5.47-.179-1.557-.953 7.027h-.839zm7.927-2.727l.79-.24q.07.963.385 1.436.314.464.834.464t.8-.404q.288-.413.288-1.04 0-.542-.244-.843-.168-.207-.812-.516-.931-.456-1.245-.774-.314-.319-.488-.852-.173-.533-.173-1.213 0-1.17.471-1.9.471-.731 1.305-.731.525 0 .92.3.401.302.612.81.212.507.293 1.453l-.78.206q-.108-1.496-1.023-1.496-.52 0-.774.335-.255.327-.255.843 0 .507.244.8.146.172.866.55.99.508 1.283.809.293.292.455.808.162.507.162 1.213 0 1.307-.525 2.115-.52.809-1.424.809-1.694 0-1.965-2.942zm4.851 6.227v-12.634h.731v1.187q.27-.74.601-1.066.33-.327.758-.327.558 0 1.007.524.45.525.72 1.6.276 1.066.276 2.572 0 2.33-.617 3.594-.612 1.256-1.44 1.256-.368 0-.688-.3-.32-.302-.552-.852v4.446h-.796zm.72-8.015q0 1.771.374 2.614.373.834.904.834.51 0 .893-.868.385-.869.385-2.684 0-1.789-.374-2.649-.373-.86-.91-.86-.481 0-.876.93-.396.92-.396 2.683zm4.05-.052q0-2.365.623-3.57.628-1.203 1.586-1.203.943 0 1.576 1.204.633 1.204.633 3.474 0 2.46-.622 3.664-.623 1.204-1.587 1.204-.947 0-1.58-1.204-.629-1.213-.629-3.57zm.818 0q0 1.772.406 2.64.406.86 1.007.86.563 0 .964-.868.406-.878.406-2.632 0-1.763-.406-2.623-.406-.869-1.007-.869-.569 0-.97.869-.4.868-.4 2.623zm4.142 4.567v-1.256l3.005-6.674q-.514.052-.904.052h-1.922v-1.256h3.855v1.024l-2.556 5.796-.493 1.058q.536-.077 1.007-.077h2.182v1.333h-4.174zm1.527-10.269v-1.926h.99v1.926h-.99zm3.405 13.786l-.086-1.453q.265.137.455.137.254 0 .417-.163.167-.163.276-.507.038-.12.314-1.514l-1.792-9.15h.86l.986 5.288q.184.99.341 2.116.135-1.066.325-2.081l1.007-5.324h.801l-1.792 9.288q-.352 1.807-.558 2.409-.2.61-.46.877-.254.266-.58.266-.227 0-.514-.189zm5.437-3.517l-1.44-9.134h.828l.747 5.272.276 1.961.25-1.883.746-5.35h.823l.704 5.298.238 1.746.271-1.763.807-5.28h.78l-1.479 9.133h-.828l-.753-5.47-.178-1.557-.953 7.027h-.84zm8.787-3.345l.785.197q-.135 1.634-.682 2.494-.541.86-1.305.86-.926 0-1.527-1.204-.595-1.213-.595-3.578 0-2.382.6-3.569.607-1.195 1.555-1.195.73 0 1.229.722.503.723.644 2.167l-.774.233q-.114-.93-.395-1.385-.282-.464-.677-.464-.59 0-.98.834-.385.825-.385 2.632 0 1.866.369 2.7.373.834.952.834.455 0 .775-.55.325-.56.411-1.729zm1.05 3.345v-1.256l3.006-6.674q-.515.052-.905.052h-1.922v-1.256h3.855v1.024l-2.555 5.796-.493 1.058q.536-.077 1.007-.077h2.182v1.333h-4.174zm4.933 3.517l-.086-1.453q.265.137.454.137.255 0 .417-.163.168-.163.276-.507.038-.12.314-1.514l-1.792-9.15h.861l.986 5.288q.184.99.34 2.116.136-1.066.326-2.081l1.007-5.324h.801l-1.792 9.288q-.352 1.807-.558 2.409-.2.61-.46.877-.255.266-.58.266-.227 0-.514-.189zm7.662-6.862l.785.197q-.136 1.634-.682 2.494-.542.86-1.305.86-.926 0-1.527-1.204-.596-1.213-.596-3.578 0-2.382.601-3.569.607-1.195 1.554-1.195.731 0 1.23.722.503.723.644 2.167l-.775.233q-.113-.93-.395-1.385-.282-.464-.677-.464-.59 0-.98.834-.384.825-.384 2.632 0 1.866.368 2.7.374.834.953.834.455 0 .774-.55.325-.56.412-1.729zm1.456 3.345v-12.608h.796v4.523q.282-.627.634-.937.357-.318.785-.318.752 0 1.185.765.439.757.439 2.787v5.788h-.796v-5.788q0-1.187-.265-1.703-.266-.516-.731-.516-.52 0-.888.662-.363.662-.363 2.348v4.997h-.796z" style="line-height:125%;-inkscape-font-specification:'Arial Narrow'" font-weight="400" font-size="13.975" font-family="Arial Narrow" letter-spacing="0" word-spacing="0" fill="#333"/><path fill="none" d="M110 0h5v5h-5z"/><path fill="none" d="M110 0h5v5h-5zM1 140h1v1H1z"/></svg>