<?xml version="1.0" encoding="UTF-8" standalone="no"?>
<svg
   xmlns:dc="http://purl.org/dc/elements/1.1/"
   xmlns:cc="http://creativecommons.org/ns#"
   xmlns:rdf="http://www.w3.org/1999/02/22-rdf-syntax-ns#"
   xmlns:svg="http://www.w3.org/2000/svg"
   xmlns="http://www.w3.org/2000/svg"
   xmlns:sodipodi="http://sodipodi.sourceforge.net/DTD/sodipodi-0.dtd"
   xmlns:inkscape="http://www.inkscape.org/namespaces/inkscape"
   sodipodi:docname="openfoodfacts-logo-ru.svg"
   inkscape:version="1.0 (4035a4fb49, 2020-05-01)"
   version="1.1"
   id="svg8313"
   height="144"
   width="178">
  <style
     id="style193">
   :root {
     font-style: normal;
     font-variant: normal;
     font-weight: normal;
     font-stretch: normal;
     line-height: 125%;
     font-family: 'Arial Narrow';
     -inkscape-font-specification: 'Arial Narrow';
     letter-spacing: 0px;
     word-spacing: 0px;
     fill-opacity: 1;
     stroke: none;
   }
   #site-name {
     font-size: 22.90272331px;
     fill: #333333;
   }
   #site-slogan {
     font-size: 16.94345474px;
     fill: #333333;
   }
   @media (prefers-color-scheme: dark) {
     #site-name,#site-slogan {
       fill: #ffffff;
	 }
   }
   .design-element
   {
     fill-rule: nonzero;
	 stroke: none;
   }
   .red {
     fill: #ff0000;
   }
   .yellow {
     fill: #ffcc00;
   }
   .green {
     fill: #00d400;
   }
   .cyan {
     fill: #00ccff;
   }
   .blue {
     fill: #0066ff;
   }
  </style>
  <defs
     id="defs8315" />
  <sodipodi:namedview
     inkscape:document-rotation="0"
     inkscape:snap-global="true"
     inkscape:window-maximized="1"
     inkscape:window-y="-8"
     inkscape:window-x="1912"
     inkscape:window-height="1017"
     inkscape:window-width="1920"
     showgrid="true"
     inkscape:current-layer="layer1"
     inkscape:document-units="px"
     inkscape:cy="70.41406"
     inkscape:cx="111.33521"
     inkscape:zoom="5.5850744"
     inkscape:pageshadow="2"
     inkscape:pageopacity="0.0"
     borderopacity="1.0"
     bordercolor="#666666"
     pagecolor="#ffffff"
     id="base">
    <inkscape:grid
       id="grid8566"
       type="xygrid" />
  </sodipodi:namedview>
  <metadata
     id="metadata8318">
    <rdf:RDF>
      <cc:Work
         rdf:about="">
        <dc:format>image/svg+xml</dc:format>
        <dc:type
           rdf:resource="http://purl.org/dc/dcmitype/StillImage" />
        <dc:title />
      </cc:Work>
    </rdf:RDF>
  </metadata>
  <g
     id="layer1"
     inkscape:groupmode="layer"
     inkscape:label="Layer 1">
    <g
       class="design-element"
       id="bars"
       transform="matrix(0.89476596,0,0,0.89458574,-763.01815,-727.33576)">
      <path
         sodipodi:nodetypes="cccccc"
         inkscape:export-ydpi="112.45"
         inkscape:export-xdpi="112.45"
         id="path8169"
         d="m 1042.7511,944.94661 0,5.58918 c 2.9792,0 5.9616,0 8.9408,0 l 0,-5.58918 c -2.9792,0 -5.9616,0 -8.9407,0 z"
         class="blue"
         inkscape:connector-curvature="0" />
      <path
         sodipodi:nodetypes="ccccc"
         inkscape:export-ydpi="112.45"
         inkscape:export-xdpi="112.45"
         id="path8171"
         d="m 1024.8693,944.94661 0,5.58918 c 4.8438,0 9.6851,0 14.5289,0 l 0,-5.58918 c -4.8438,0 -9.6851,0 -14.5289,0 z"
         class="cyan"
         inkscape:connector-curvature="0" />
      <path
         sodipodi:nodetypes="ccccc"
         inkscape:export-ydpi="112.45"
         inkscape:export-xdpi="112.45"
         id="path8173"
         d="m 958.93025,944.94661 0,5.58918 c 20.85417,0 41.73205,0 62.58625,0 l 0,-5.58918 c -20.8542,0 -41.73208,0 -62.58625,0 z"
         class="green"
         inkscape:connector-curvature="0" />
      <path
         sodipodi:nodetypes="ccccc"
         inkscape:export-ydpi="112.45"
         inkscape:export-xdpi="112.45"
         id="path8175"
         d="m 894.10883,944.94661 0,5.58918 c 20.48959,0 40.97901,0 61.46859,0 l 0,-5.58918 c -20.48958,0 -40.979,0 -61.46859,0 z"
         class="yellow"
         inkscape:connector-curvature="0" />
      <path
         sodipodi:nodetypes="ccccc"
         inkscape:export-ydpi="112.45"
         inkscape:export-xdpi="112.45"
         id="path8177"
         d="m 852.75724,944.94661 0,5.58918 c 12.66667,0 25.3321,0 37.99876,0 l 0,-5.58918 c -12.66666,0 -25.33209,0 -37.99876,0 z"
         class="red"
         inkscape:connector-curvature="0" />
    </g>
    <g
       transform="translate(0,2.6378174)"
       id="site-name">
      <path
         inkscape:connector-curvature="0"
         id="path3685"
         d="m 0.29533203,104.18406 c -9.5e-7,-2.79573 0.61506181,-4.944723 1.84519007,-6.446982 1.2301228,-1.50223 2.7621882,-2.253352 4.5962009,-2.253369 1.1853862,1.7e-5 2.2664056,0.335506 3.2430614,1.006468 0.9766346,0.670993 1.7501226,1.645774 2.3204666,2.924346 0.570318,1.278597 0.855483,2.801347 0.855497,4.568247 -1.4e-5,2.43043 -0.551707,4.40982 -1.65508,5.93815 -1.215227,1.68491 -2.8069346,2.52736 -4.775128,2.52736 -1.9831188,0 -3.5785543,-0.86482 -4.7863113,-2.59445 -1.09593262,-1.56562 -1.64389762,-3.45554 -1.64389667,-5.66977 z m 1.83400717,0.0335 c -2.8e-6,2.0204 0.4454517,3.58787 1.3363649,4.70244 0.890905,1.11457 1.9737882,1.67185 3.2486529,1.67185 1.3046712,0 2.3987374,-0.56287 3.2822018,-1.68863 0.8834432,-1.12574 1.3251702,-2.78082 1.3251822,-4.96524 -1.2e-5,-1.40904 -0.227399,-2.66899 -0.682161,-3.77984 C 10.289169,99.308298 9.761706,98.628001 9.0571893,98.117299 8.3526532,97.606624 7.5828928,97.35128 6.7479059,97.351265 5.4059434,97.35128 4.3006943,97.910428 3.4321552,99.028711 2.563608,100.14702 2.1293364,101.87665 2.1293392,104.21761 Z" />
      <path
         sodipodi:nodetypes="ccccccssccccsscccccc"
         inkscape:connector-curvature="0"
         id="path3687"
         d="m 15,112.36218 0,-16.999997 4.674837,0 c 1.224167,1.6e-5 2.126995,0.107131 2.708487,0.321346 0.795704,0.290757 1.430744,0.830159 1.905122,1.618206 0.474357,0.788077 0.711542,1.755941 0.711554,2.903595 -1.2e-5,1.51492 -0.386392,2.75057 -1.159142,3.70695 -0.772771,0.9564 -2.107912,1.42433 -4.005348,1.43458 L 17,105.36218 l 0,7 z m 2,-9 2.86994,-7.7e-4 c 1.124703,-3e-4 1.947195,-0.25439 2.467477,-0.7632 0.520265,-0.50879 0.780403,-1.27581 0.780412,-2.30107 -9e-6,-0.665632 -0.128166,-1.235638 -0.384467,-1.710022 -0.256321,-0.474353 -0.56619,-0.799524 -0.929608,-0.975514 -0.363435,-0.17596 -1.019516,-0.263948 -1.968244,-0.263963 L 17,97.362183 Z" />
      <path
         sodipodi:nodetypes="ccccccccccccc"
         inkscape:connector-curvature="0"
         id="path3689"
         d="m 27,112.36218 0,-16.999997 10,0 0,2 -8,0 0,4.999997 7,0 0,2 -7,0 0,6 8,0 0,2 z" />
      <path
         sodipodi:nodetypes="ccccccccccc"
         inkscape:connector-curvature="0"
         id="path3691"
         d="m 39,112.36218 0,-16.999997 2,0 7,12.999997 0,-12.999997 2,0 0,16.999997 -2,0 -7,-12.999997 0,12.999997 z" />
      <path
         sodipodi:nodetypes="ccccccccccc"
         inkscape:connector-curvature="0"
         id="path3693"
         d="m 58,112.36218 0,-16.999997 9,0 0,2 -7,0 0,4.999997 6,0 0,2 -6,0 0,8 z" />
      <path
         sodipodi:nodetypes="sscccccscsssssccccss"
         inkscape:connector-curvature="0"
         id="path3695"
         d="m 68.255995,104.18406 c -10e-7,-2.79573 0.615062,-4.944723 1.84519,-6.446982 1.230123,-1.50223 2.762188,-2.253352 4.596201,-2.253369 1.185386,1.7e-5 2.266405,0.335506 3.243061,1.006468 0.976635,0.670993 1.750123,1.645774 2.320467,2.924346 0.570318,1.278597 0.855483,2.801347 0.855497,4.568247 -1.4e-5,2.43043 -0.551707,4.40982 -1.65508,5.93815 -1.215227,1.68491 -2.806935,2.52736 -4.775128,2.52736 -1.983119,0 -3.578554,-0.86482 -4.786311,-2.59445 -1.095933,-1.56562 -1.643898,-3.45554 -1.643897,-5.66977 z m 1.834007,0.0335 c -3e-6,2.0204 0.445452,3.58787 1.336365,4.70244 0.890905,1.11457 1.973788,1.67185 3.248653,1.67185 1.304671,0 2.398737,-0.56287 3.282202,-1.68863 0.883443,-1.12574 1.32517,-2.78082 1.325182,-4.96524 -1.2e-5,-1.40904 -0.227399,-2.66899 -0.682162,-3.77984 -0.35041,-0.849892 -0.877873,-1.530189 -1.58239,-2.040891 -0.704536,-0.510675 -1.474296,-0.766019 -2.309283,-0.766034 -1.341963,1.5e-5 -2.447212,0.559163 -3.315751,1.677446 -0.868547,1.118309 -1.302819,2.847939 -1.302816,5.188899 z" />
      <path
         sodipodi:nodetypes="sscccccscsssssccccss"
         inkscape:connector-curvature="0"
         id="path3697"
         d="m 82.883322,104.18406 c -1e-6,-2.79573 0.615062,-4.944723 1.84519,-6.446982 1.230123,-1.50223 2.762188,-2.253352 4.596201,-2.253369 1.185386,1.7e-5 2.266405,0.335506 3.243061,1.006468 0.976635,0.670993 1.750123,1.645774 2.320467,2.924346 0.570317,1.278597 0.855483,2.801347 0.855497,4.568247 -1.4e-5,2.43043 -0.551707,4.40982 -1.65508,5.93815 -1.215227,1.68491 -2.806935,2.52736 -4.775128,2.52736 -1.983119,0 -3.578555,-0.86482 -4.786312,-2.59445 -1.095932,-1.56562 -1.643897,-3.45554 -1.643896,-5.66977 z m 1.834007,0.0335 c -3e-6,2.0204 0.445452,3.58787 1.336365,4.70244 0.890905,1.11457 1.973788,1.67185 3.248653,1.67185 1.304671,0 2.398737,-0.56287 3.282202,-1.68863 0.883443,-1.12574 1.32517,-2.78082 1.325182,-4.96524 -1.2e-5,-1.40904 -0.227399,-2.66899 -0.682162,-3.77984 -0.35041,-0.849892 -0.877873,-1.530189 -1.58239,-2.040891 -0.704536,-0.510675 -1.474296,-0.766019 -2.309283,-0.766034 -1.341963,1.5e-5 -2.447212,0.559163 -3.315751,1.677446 -0.868547,1.118309 -1.302819,2.847939 -1.302816,5.188899 z" />
      <path
         sodipodi:nodetypes="ccccccccssccssccccccc"
         inkscape:connector-curvature="0"
         id="path3699"
         d="m 98,112.36218 0,-16.999997 5,0 c 1.21266,1.6e-5 2.00501,0.174276 2.63497,0.382679 0.82682,0.270189 1.54339,0.719576 2.14974,1.437449 0.60633,0.717903 1.0788,1.622982 1.41741,2.715233 0.33859,1.092286 0.50789,2.387186 0.5079,3.884706 -1e-5,1.9221 -0.28743,3.55278 -0.86225,4.89207 -0.57485,1.33928 -1.31309,2.28875 -2.21471,2.8484 -0.90163,0.55964 -2.17628,0.83946 -3.63306,0.83946 z m 2,-2 3,0 c 1.22054,0 2.01682,-0.19791 2.64678,-0.58773 0.62996,-0.38982 1.11424,-1.01701 1.45285,-1.88157 0.44883,-1.15015 0.67326,-2.52803 0.67327,-4.13365 -1e-5,-1.72137 -0.23822,-3.07416 -0.71461,-4.058372 -0.47642,-0.984193 -1.08866,-1.642257 -1.83673,-1.974198 C 104.71759,97.502677 104.09454,97.362198 103,97.362183 l -3,0 z" />
      <path
         sodipodi:nodetypes="ccccccccccc"
         inkscape:connector-curvature="0"
         id="path3701"
         d="m 118,112.36218 0.0757,-16.999997 9,0 0,2 -7,3.8e-5 0,4.999999 6,0 0,2 -6,0 0,7.99996 z" />
      <path
         sodipodi:nodetypes="cccccccc"
         inkscape:connector-curvature="0"
         id="path3703"
         d="m 128.07572,112.36218 5,-16.999997 2,0 5,16.999997 -2,0 -4,-14.999997 -4.04025,14.999997 z" />
      <path
         sodipodi:nodetypes="ccsscssscccccccsssssc"
         inkscape:connector-curvature="0"
         id="path3705"
         d="m 151.36137,106.42065 1.78927,0.54797 c -0.39514,1.84147 -1.08662,3.21511 -2.07444,4.12092 -0.98784,0.90583 -2.19001,1.35874 -3.60651,1.35874 -1.24504,0 -2.30929,-0.30381 -3.19273,-0.91142 -0.88346,-0.6076 -1.60663,-1.58238 -2.1695,-2.92434 -0.56288,-1.34195 -0.84432,-2.92621 -0.84432,-4.75277 0,-1.80417 0.28144,-3.33065 0.84432,-4.579422 0.56287,-1.248751 1.32518,-2.191847 2.28692,-2.829292 0.96173,-0.637413 2.03529,-0.956127 3.22069,-0.956144 1.29722,1.7e-5 2.41179,0.404467 3.34371,1.213353 0.9319,0.808916 1.58424,1.996173 1.95702,3.561775 l -1.74454,0.50323 c -0.59644,-2.281308 -1.79302,-3.42197 -3.58974,-3.421985 -0.89464,1.5e-5 -1.66999,0.229266 -2.32605,0.687753 -0.65608,0.458516 -1.17981,1.172361 -1.57121,2.141542 -0.39141,0.9692 -0.58711,2.1956 -0.58711,3.67919 0,2.24406 0.39513,3.92709 1.1854,5.04912 0.79026,1.12202 1.84145,1.68303 3.15359,1.68303 0.96919,0 1.80605,-0.3448 2.51058,-1.03442 0.70452,-0.68962 1.17607,-1.73522 1.41465,-3.13683 z" />
      <path
         sodipodi:nodetypes="ccccccccc"
         inkscape:connector-curvature="0"
         id="path3707"
         d="m 159,112.36218 0,-14.999997 -5,0.0061 0,-2.006138 12,0 0,2 -5,0 0,14.999995 z" />
      <path
         inkscape:connector-curvature="0"
         id="path3709"
         d="m 167.26826,106.90152 1.67745,-0.17893 c 0.0895,0.9021 0.29262,1.60476 0.60947,2.10799 0.31685,0.50324 0.76976,0.90769 1.35873,1.21336 0.58897,0.30567 1.25249,0.4585 1.99057,0.4585 1.05865,0 1.88059,-0.25907 2.46585,-0.77722 0.58523,-0.51814 0.87785,-1.19098 0.87786,-2.01852 -1e-5,-0.48459 -0.10625,-0.90768 -0.31872,-1.26927 -0.21248,-0.36158 -0.53306,-0.65793 -0.96173,-0.88905 -0.42869,-0.23111 -1.35501,-0.55541 -2.77897,-0.97292 -1.26741,-0.37275 -2.1695,-0.74925 -2.70628,-1.12948 -0.53678,-0.38021 -0.95428,-0.86294 -1.25249,-1.44819 -0.29822,-0.58523 -0.44732,-1.24689 -0.44732,-1.98498 0,-1.32703 0.42868,-2.411777 1.28604,-3.254242 0.85736,-0.842434 2.01293,-1.263659 3.46672,-1.263676 0.99901,1.7e-5 1.87314,0.197583 2.62241,0.592698 0.74925,0.395147 1.33076,0.96175 1.74454,1.699811 0.41376,0.73809 0.63556,1.606633 0.66539,2.605629 l -1.711,0.15656 c -0.0895,-1.066092 -0.40818,-1.856355 -0.95614,-2.370785 -0.54797,-0.514402 -1.31773,-0.77161 -2.30928,-0.771625 -1.00648,1.5e-5 -1.77437,0.225538 -2.30369,0.67657 -0.52934,0.45106 -0.794,1.034438 -0.794,1.750135 0,0.663535 0.19384,1.177955 0.58152,1.543245 0.38767,0.36533 1.25994,0.73436 2.61681,1.10712 1.32704,0.36532 2.25896,0.68217 2.79575,0.95055 0.82007,0.41751 1.43886,0.96734 1.85637,1.64949 0.41749,0.68217 0.62623,1.49666 0.62625,2.44348 -2e-5,0.93937 -0.21995,1.79487 -0.6598,2.56649 -0.43987,0.77163 -1.03816,1.35873 -1.79487,1.76132 -0.75672,0.40258 -1.66813,0.60388 -2.73423,0.60388 -1.66254,0 -2.98772,-0.49951 -3.97555,-1.49852 -0.98783,-0.99901 -1.50038,-2.35215 -1.53766,-4.05942 z" />
      <path
         d="m 137.07572,105.36218 0,2 -6,0 0,-2 z"
         id="path3713"
         inkscape:connector-curvature="0"
         sodipodi:nodetypes="ccccc" />
    </g>
    <g
       id="site-slogan"
       transform="scale(0.70858134,1.4112706)">
      <path
         id="path5018"
         d="m 0,94.230035 q 0,-2.285244 1.0055072,-3.510135 1.0055072,-1.230984 2.504627,-1.230984 0.9689434,0 1.7672551,0.548458 0.7983118,0.548459 1.2614545,1.596624 0.4692367,1.042071 0.4692367,2.486345 0,1.986638 -0.9019095,3.235905 -0.9933192,1.37724 -2.6021307,1.37724 -1.6209995,0 -2.60822479,-1.413804 Q 0,96.039948 0,94.230035 Z m 0.99941322,0.01828 q 0,1.651469 0.72518398,2.565567 0.731278,0.908003 1.7733491,0.908003 1.066447,0 1.785537,-0.920191 0.725184,-0.920192 0.725184,-2.705729 0,-1.151763 -0.371733,-2.059766 -0.2864172,-0.694714 -0.8653456,-1.109105 -0.5728344,-0.420485 -1.2553605,-0.420485 -1.0969169,0 -1.8099129,0.914098 -0.70690208,0.914097 -0.70690208,2.827608 z" />
      <path
         id="path5020"
         d="m 10.122106,98.581139 0,-7.879521 -2.4132177,0 0,-1.054259 5.8075657,0 0,1.054259 -2.425405,0 0,7.879521 -0.968943,0 z" />
      <path
         id="path5022"
         d="m 14.521961,89.647359 0.968944,0 0,3.912338 q 0.670338,0 0.932379,-0.310794 0.268135,-0.310793 0.694714,-1.511307 0.322981,-0.93238 0.536271,-1.310207 0.219383,-0.377827 0.578928,-0.585022 0.365639,-0.21329 0.981131,-0.21329 0.176726,0 0.359545,0.01828 l 0,1.029884 -0.195007,-0.0061 -0.219383,-0.0061 q -0.396109,0 -0.627681,0.231571 -0.231571,0.225477 -0.560646,1.212703 -0.359545,1.103011 -0.615492,1.413804 -0.249854,0.304699 -0.621587,0.487518 0.712996,0.237666 1.401616,1.596624 l 1.505214,2.973864 -1.200514,0 -1.224891,-2.425406 q -0.578928,-1.151762 -0.926286,-1.456462 -0.347357,-0.304699 -0.700808,-0.304699 -0.04266,0 -0.0975,0.0061 l 0,4.180473 -0.968944,0 0,-8.93378 z" />
      <path
         id="path5024"
         d="m 20.457501,98.581139 0,-8.93378 2.760574,0 q 0.975037,0 1.43818,0.170632 0.633774,0.231571 1.011601,0.859252 0.377827,0.62768 0.377827,1.541777 0,1.206609 -0.615492,1.968357 -0.615492,0.761748 -2.1268,0.761748 l -1.876947,0 0,3.632014 -0.968943,0 z m 0.968943,-4.686273 1.895229,0 q 0.895815,0 1.310206,-0.402203 0.414391,-0.408297 0.414391,-1.224891 0,-0.530176 -0.207196,-0.908003 -0.201101,-0.377827 -0.493612,-0.517989 -0.286417,-0.140162 -1.042071,-0.140162 l -1.876947,0 0,3.193248 z" />
      <path
         id="path5026"
         d="m 27.313233,89.647359 0.968943,0 0,3.814834 1.748973,0 q 0.962849,0 1.535684,0.225477 0.572834,0.225478 0.920191,0.847064 0.347357,0.615492 0.347357,1.450368 0,1.029883 -0.578928,1.816007 -0.572835,0.78003 -2.15727,0.78003 l -2.78495,0 0,-8.93378 z m 0.968943,7.928272 1.773349,0 q 0.90191,0 1.3163,-0.365639 0.420485,-0.371733 0.420485,-1.22489 0,-0.560647 -0.249853,-0.920192 -0.243759,-0.365639 -0.62768,-0.47533 -0.383921,-0.109692 -1.334583,-0.109692 l -1.298018,0 0,3.095743 z m 5.911164,1.005508 0,-8.93378 0.968943,0 0,8.93378 -0.968943,0 z" />
      <path
         id="path5028"
         d="m 38.715076,98.581139 0,-7.879521 -2.413217,0 0,-1.054259 5.807566,0 0,1.054259 -2.425406,0 0,7.879521 -0.968943,0 z" />
      <path
         id="path5030"
         d="m 42.298338,98.581139 2.81542,-8.93378 1.042071,0 2.99824,8.93378 -1.109105,0 -0.853158,-2.705729 -3.05918,0 -0.804405,2.705729 -1.029883,0 z m 2.114612,-3.668578 2.480251,0 -0.761748,-2.474157 q -0.353451,-1.139575 -0.517989,-1.852571 -0.140161,0.859251 -0.396109,1.706315 l -0.804405,2.620413 z" />
      <path
         id="path5032"
         d="m 55.735569,98.581139 0,-8.93378 -3.248093,0 q -1.017695,0 -1.505213,0.249854 -0.481425,0.249853 -0.792218,0.834875 -0.310793,0.578929 -0.310793,1.346771 0,1.011601 0.524082,1.639281 0.530177,0.62768 1.535684,0.798312 -0.408297,0.243759 -0.621586,0.493613 -0.432673,0.511894 -0.761748,1.139574 l -1.279737,2.4315 1.218797,0 0.975037,-1.858665 q 0.566741,-1.090823 0.853158,-1.46865 0.292511,-0.377827 0.560646,-0.505801 0.27423,-0.134067 0.761748,-0.134067 l 1.121293,0 0,3.967183 0.968943,0 z m -0.968943,-4.990973 -2.084142,0 q -0.682526,0 -1.035977,-0.164537 -0.353451,-0.164538 -0.560647,-0.517989 -0.207195,-0.353451 -0.207195,-0.822687 0,-0.676432 0.396109,-1.060353 0.396109,-0.390015 1.176138,-0.390015 l 2.315714,0 0,2.955581 z" />
      <path
         id="path5034"
         d="m 60.208554,89.647359 4.753306,0 0,1.054259 -3.784363,0 0,2.754481 1.748973,0 q 0.975037,0 1.541778,0.225477 0.56674,0.225478 0.914097,0.847064 0.347357,0.621586 0.347357,1.456462 0,0.786124 -0.322981,1.425992 -0.322981,0.639868 -0.84097,0.908003 -0.517988,0.262042 -1.493025,0.262042 l -2.864172,0 0,-8.93378 z m 0.968943,7.928272 1.937886,0 q 0.74956,0 1.157857,-0.353451 0.414391,-0.359545 0.414391,-1.206608 0,-0.572835 -0.237665,-0.938474 -0.231572,-0.365639 -0.627681,-0.481424 -0.390014,-0.12188 -1.34677,-0.12188 l -1.298018,0 0,3.101837 z" />
      <path
         id="path5036"
         d="m 66.089246,98.581139 2.815421,-8.93378 1.042071,0 2.998239,8.93378 -1.109105,0 -0.853157,-2.705729 -3.05918,0 -0.804405,2.705729 -1.029884,0 z m 2.114613,-3.668578 2.480251,0 -0.761748,-2.474157 q -0.353451,-1.139575 -0.517989,-1.852571 -0.140161,0.859251 -0.396109,1.706315 l -0.804405,2.620413 z" />
      <path
         id="path5038"
         d="m 73.316713,96.05823 0.926286,-0.292512 q 0.0975,0.639869 0.554552,1.298019 0.457049,0.65815 1.218797,0.65815 0.737372,0 1.19442,-0.469237 0.463143,-0.469236 0.463143,-1.176138 0,-0.743466 -0.475331,-1.176139 Q 76.729344,94.4677 75.924938,94.4677 l -0.463143,0 0,-1.029883 q 0.670338,0 1.011601,-0.09141 0.347358,-0.09141 0.627681,-0.469237 0.286417,-0.38392 0.286417,-0.895815 0,-0.548459 -0.359545,-0.999413 -0.353451,-0.450955 -1.023789,-0.450955 -0.530177,0 -0.914098,0.310793 -0.377827,0.304699 -0.554552,0.847064 -0.170632,0.53627 -0.170632,0.908003 L 73.438593,92.3409 q 0.341263,-2.84589 2.577755,-2.84589 1.078635,0 1.700221,0.731278 0.62768,0.731278 0.62768,1.700221 0,1.230985 -0.962849,1.937887 0.560646,0.188913 0.932379,0.767842 0.377827,0.578928 0.377827,1.395522 0,1.16395 -0.743466,1.937886 -0.737372,0.767842 -1.925698,0.767842 -2.084142,0 -2.705729,-2.675258 z" />
      <path
         id="path5040"
         d="m 79.105993,98.581139 2.81542,-8.93378 1.042071,0 2.99824,8.93378 -1.109105,0 -0.853158,-2.705729 -3.059179,0 -0.804406,2.705729 -1.029883,0 z m 2.114612,-3.668578 2.480251,0 -0.761748,-2.474157 q -0.353451,-1.139575 -0.517988,-1.852571 -0.140162,0.859251 -0.396109,1.706315 l -0.804406,2.620413 z" />
      <path
         id="path5042"
         d="m 90.251889,89.647359 4.454702,0 0,7.879521 0.65815,0 0,3.1384 -0.865346,0 0,-2.084141 -4.838622,0 0,2.084141 -0.865346,0 0,-3.1384 0.56674,0 q 0.889722,-1.621 0.889722,-6.575408 l 0,-1.304113 z m 3.485758,1.054259 -2.553379,0 0,0.457049 q 0,1.127387 -0.164537,3.095744 -0.158444,1.962262 -0.65815,3.272469 l 3.376066,0 0,-6.825262 z" />
      <path
         id="path5044"
         d="m 95.706007,98.581139 2.81542,-8.93378 1.042071,0 2.998242,8.93378 -1.10911,0 -0.85315,-2.705729 -3.059184,0 -0.804406,2.705729 -1.029883,0 z m 2.114612,-3.668578 2.480251,0 -0.761748,-2.474157 q -0.353451,-1.139575 -0.517989,-1.852571 -0.140161,0.859251 -0.396108,1.706315 l -0.804406,2.620413 z" />
      <path
         id="path5046"
         d="m 103.32957,98.581139 0,-8.93378 0.96895,0 0,3.668578 3.80874,0 0,-3.668578 0.96894,0 0,8.93378 -0.96894,0 0,-4.210943 -3.80874,0 0,4.210943 -0.96895,0 z" />
      <path
         id="path5048"
         d="m 110.71548,98.581139 0,-8.93378 0.96895,0 0,3.668578 3.80874,0 0,-3.668578 0.96894,0 0,8.93378 -0.96894,0 0,-4.210943 -3.80874,0 0,4.210943 -0.96895,0 z" />
      <path
         id="path5050"
         d="m 118.13796,89.647359 0.96894,0 0,3.814834 1.74898,0 q 0.96284,0 1.53568,0.225477 0.57283,0.225478 0.92019,0.847064 0.34736,0.615492 0.34736,1.450368 0,1.029883 -0.57893,1.816007 -0.57284,0.78003 -2.15727,0.78003 l -2.78495,0 0,-8.93378 z m 0.96894,7.928272 1.77335,0 q 0.90191,0 1.3163,-0.365639 0.42049,-0.371733 0.42049,-1.22489 0,-0.560647 -0.24986,-0.920192 -0.24376,-0.365639 -0.62768,-0.47533 -0.38392,-0.109692 -1.33458,-0.109692 l -1.29802,0 0,3.095743 z m 5.91117,1.005508 0,-8.93378 0.96894,0 0,8.93378 -0.96894,0 z" />
      <path
         id="path5052"
         d="m 126.91939,98.581139 2.8337,-4.655803 -2.49853,-4.277977 1.15176,0 1.33458,2.291338 q 0.4083,0.706902 0.58503,1.096917 0.23766,-0.475331 0.57892,-1.017695 l 1.48084,-2.37056 1.04817,0 -2.57166,4.210943 2.77276,4.722837 -1.19442,0 -1.84648,-3.187154 q -0.15235,-0.268135 -0.31689,-0.59721 -0.24985,0.487519 -0.35345,0.670338 l -1.84038,3.114026 -1.16395,0 z" />
      <path
         id="path5054"
         d="m 138.34561,98.581139 -0.97504,0 0,-8.93378 5.75272,0 0,8.93378 -0.96894,0 0,-7.885614 -3.80874,0 0,7.885614 z" />
      <path
         id="path5056"
         d="m 144.72601,98.581139 0,-8.93378 2.76058,0 q 0.97503,0 1.43818,0.170632 0.63377,0.231571 1.0116,0.859252 0.37782,0.62768 0.37782,1.541777 0,1.206609 -0.61549,1.968357 -0.61549,0.761748 -2.1268,0.761748 l -1.87695,0 0,3.632014 -0.96894,0 z m 0.96894,-4.686273 1.89523,0 q 0.89582,0 1.31021,-0.402203 0.41439,-0.408297 0.41439,-1.224891 0,-0.530176 -0.20719,-0.908003 -0.20111,-0.377827 -0.49362,-0.517989 -0.28641,-0.140162 -1.04207,-0.140162 l -1.87695,0 0,3.193248 z" />
      <path
         id="path5058"
         d="m 151.27704,94.230035 q 0,-2.285244 1.00551,-3.510135 1.0055,-1.230984 2.50462,-1.230984 0.96895,0 1.76726,0.548458 0.79831,0.548459 1.26145,1.596624 0.46924,1.042071 0.46924,2.486345 0,1.986638 -0.90191,3.235905 -0.99332,1.37724 -2.60213,1.37724 -1.621,0 -2.60823,-1.413804 -0.89581,-1.279736 -0.89581,-3.089649 z m 0.99941,0.01828 q 0,1.651469 0.72519,2.565567 0.73127,0.908003 1.77334,0.908003 1.06645,0 1.78554,-0.920191 0.72519,-0.920192 0.72519,-2.705729 0,-1.151763 -0.37174,-2.059766 -0.28641,-0.694714 -0.86534,-1.109105 -0.57284,-0.420485 -1.25536,-0.420485 -1.09692,0 -1.80992,0.914098 -0.7069,0.914097 -0.7069,2.827608 z" />
      <path
         id="path5060"
         d="m 160.18644,89.647359 4.45471,0 0,7.879521 0.65815,0 0,3.1384 -0.86535,0 0,-2.084141 -4.83862,0 0,2.084141 -0.86535,0 0,-3.1384 0.56674,0 q 0.88972,-1.621 0.88972,-6.575408 l 0,-1.304113 z m 3.48576,1.054259 -2.55338,0 0,0.457049 q 0,1.127387 -0.16453,3.095744 -0.15845,1.962262 -0.65815,3.272469 l 3.37606,0 0,-6.825262 z" />
      <path
         id="path5062"
         d="m 165.70149,89.647359 0.97504,0 2.39494,5.472397 2.08414,-5.472397 0.96894,0 -2.74838,6.947141 q -0.53018,1.328488 -0.86535,1.718503 -0.32907,0.390015 -0.908,0.390015 -0.39611,0 -0.93848,-0.213289 l 0,-1.011601 q 0.39002,0.274229 0.82269,0.274229 0.35955,0 0.61549,-0.274229 0.25595,-0.27423 0.56674,-1.267549 l -2.96777,-6.56322 z" />
      <path
         id="path5064"
         d="m 172.96552,89.647359 0.96895,0 0,3.912338 q 0.67034,0 0.93238,-0.310794 0.26813,-0.310793 0.69471,-1.511307 0.32298,-0.93238 0.53627,-1.310207 0.21939,-0.377827 0.57893,-0.585022 0.36564,-0.21329 0.98113,-0.21329 0.17673,0 0.35955,0.01828 l 0,1.029884 -0.19501,-0.0061 -0.21938,-0.0061 q -0.39611,0 -0.62768,0.231571 -0.23158,0.225477 -0.56065,1.212703 -0.35955,1.103011 -0.61549,1.413804 -0.24986,0.304699 -0.62159,0.487518 0.713,0.237666 1.40162,1.596624 l 1.50521,2.973864 -1.20051,0 -1.22489,-2.425406 q -0.57893,-1.151762 -0.92629,-1.456462 -0.34736,-0.304699 -0.70081,-0.304699 -0.0427,0 -0.0975,0.0061 l 0,4.180473 -0.96895,0 0,-8.93378 z" />
      <path
         id="path5066"
         d="m 180.77801,98.581139 0,-7.879521 -2.41322,0 0,-1.054259 5.80757,0 0,1.054259 -2.42541,0 0,7.879521 -0.96894,0 z" />
      <path
         id="path5068"
         d="m 184.89145,94.230035 q 0,-2.285244 1.00551,-3.510135 1.0055,-1.230984 2.50462,-1.230984 0.96895,0 1.76726,0.548458 0.79831,0.548459 1.26145,1.596624 0.46924,1.042071 0.46924,2.486345 0,1.986638 -0.90191,3.235905 -0.99332,1.37724 -2.60213,1.37724 -1.621,0 -2.60823,-1.413804 -0.89581,-1.279736 -0.89581,-3.089649 z m 0.99941,0.01828 q 0,1.651469 0.72519,2.565567 0.73127,0.908003 1.77335,0.908003 1.06644,0 1.78553,-0.920191 0.72519,-0.920192 0.72519,-2.705729 0,-1.151763 -0.37174,-2.059766 -0.28641,-0.694714 -0.86534,-1.109105 -0.57284,-0.420485 -1.25536,-0.420485 -1.09692,0 -1.80992,0.914098 -0.7069,0.914097 -0.7069,2.827608 z" />
      <path
         id="path5070"
         d="m 193.10005,98.581139 0,-8.93378 2.74838,0 q 0.83488,0 1.3224,0.262042 0.48752,0.255947 0.79831,0.804405 0.31079,0.548459 0.31079,1.212703 0,0.615492 -0.26813,1.109105 -0.26814,0.493613 -0.75566,0.792218 0.63987,0.231571 1.00551,0.792218 0.37173,0.554552 0.37173,1.371146 0,0.8105 -0.33517,1.425992 -0.32907,0.609398 -0.88362,0.889721 -0.55456,0.27423 -1.5235,0.27423 l -2.79104,0 z m 0.96894,-5.179886 1.58444,0 q 0.62158,0 0.88362,-0.08532 0.37783,-0.127973 0.57893,-0.426579 0.2072,-0.304699 0.2072,-0.822687 0,-0.481425 -0.18892,-0.798312 -0.18282,-0.322981 -0.49361,-0.444861 -0.3047,-0.12188 -1.10301,-0.12188 l -1.46865,0 0,2.699635 z m 0,4.125627 1.8221,0 q 0.6033,0 0.88972,-0.109692 0.41439,-0.158444 0.62768,-0.517989 0.21939,-0.365639 0.21939,-0.914097 0,-0.505801 -0.2072,-0.853158 -0.2072,-0.353451 -0.56065,-0.511894 -0.34735,-0.164538 -1.09691,-0.164538 l -1.69413,0 0,3.071368 z" />
      <path
         id="path5072"
         d="m 203.81936,98.581139 -0.97503,0 0,-8.93378 5.75272,0 0,8.93378 -0.96895,0 0,-7.885614 -3.80874,0 0,7.885614 z" />
      <path
         id="path5074"
         d="m 210.21195,89.647359 0.87754,0 0,7.075115 3.90015,-7.075115 0.97503,0 0,8.93378 -0.87753,0 0,-7.056833 -3.90624,7.056833 -0.96895,0 0,-8.93378 z" />
      <path
         id="path5076"
         d="m 219.43824,98.581139 0,-7.879521 -2.41322,0 0,-1.054259 5.80757,0 0,1.054259 -2.42541,0 0,7.879521 -0.96894,0 z" />
      <path
         id="path5078"
         d="m 223.0215,98.581139 2.81543,-8.93378 1.04207,0 2.99824,8.93378 -1.10911,0 -0.85316,-2.705729 -3.05918,0 -0.8044,2.705729 -1.02989,0 z m 2.11462,-3.668578 2.48025,0 -0.76175,-2.474157 q -0.35345,-1.139575 -0.51799,-1.852571 -0.14016,0.859251 -0.39611,1.706315 l -0.8044,2.620413 z" />
      <path
         id="path5080"
         d="m 230.64507,98.581139 0,-8.93378 0.96895,0 0,3.668578 3.80874,0 0,-3.668578 0.96894,0 0,8.93378 -0.96894,0 0,-4.210943 -3.80874,0 0,4.210943 -0.96895,0 z" />
      <path
         id="path5082"
         d="m 238.04927,89.647359 0.87753,0 0,7.075115 3.90015,-7.075115 0.97504,0 0,8.93378 -0.87754,0 0,-7.056833 -3.90624,7.056833 -0.96894,0 0,-8.93378 z" />
      <path
         id="path5084"
         d="m 251.20617,98.581139 0,-8.93378 -3.24809,0 q -1.0177,0 -1.50522,0.249854 -0.48142,0.249853 -0.79222,0.834875 -0.31079,0.578929 -0.31079,1.346771 0,1.011601 0.52408,1.639281 0.53018,0.62768 1.53569,0.798312 -0.4083,0.243759 -0.62159,0.493613 -0.43267,0.511894 -0.76175,1.139574 l -1.27973,2.4315 1.21879,0 0.97504,-1.858665 q 0.56674,-1.090823 0.85316,-1.46865 0.29251,-0.377827 0.56065,-0.505801 0.27422,-0.134067 0.76174,-0.134067 l 1.1213,0 0,3.967183 0.96894,0 z m -0.96894,-4.990973 -2.08415,0 q -0.68252,0 -1.03597,-0.164537 -0.35345,-0.164538 -0.56065,-0.517989 -0.2072,-0.353451 -0.2072,-0.822687 0,-0.676432 0.39611,-1.060353 0.39611,-0.390015 1.17614,-0.390015 l 2.31572,0 0,2.955581 z" />
    </g>
	<g
       class="design-element"
       id="barcode">
      <g
         class="blue"
         id="g398">
        <path
           sodipodi:nodetypes="ccccccccccccccccccccccccccccc"
           id="path7944"
           d="m 170,26 0,6.41101 c 1.19571,0.444338 2.20515,1.060483 2.99122,1.761208 L 173.01672,26 Z m 4,0 0,8.312003 1,-0.838676 L 175,26 Z m 2,0 0,6.606702 1,-0.978462 0,11.7694 -1,-1.00641 L 176.0383,95 178,95 178,26 Z M 174,40.685929 174,95 l 1,0 0,-53.475406 z m -1,0.139774 c -0.78598,0.701951 -1.79569,1.313237 -3,1.76122 L 170.008,95 l 3,0 z"
           inkscape:connector-curvature="0" />
      </g>
      <g
         class="red"
         id="g411">
        <path
           sodipodi:nodetypes="ccccc"
           d="m 33,20 0,75 1,0 -7e-6,-75 z"
           id="path8013"
           inkscape:connector-curvature="0" />
        <path
           sodipodi:nodetypes="ccccc"
           d="m 30,19 0,76 2,0 4e-6,-76 z"
           id="path8015"
           inkscape:connector-curvature="0" />
        <path
           sodipodi:nodetypes="ccccc"
           d="m 26,26 0,69 3,0 0,-69 z"
           id="path8017"
           inkscape:connector-curvature="0" />
        <path
           sodipodi:nodetypes="ccccc"
           d="m 22,26 0,69 3,0 -5e-6,-69 z"
           id="path8019"
           inkscape:connector-curvature="0" />
        <path
           sodipodi:nodetypes="ccccc"
           d="m 19,20 0,75 2,0 -8.6e-5,-75 z"
           id="path8021"
           inkscape:connector-curvature="0" />
        <path
           sodipodi:nodetypes="ccccc"
           d="m 15,21 0,74 3,0 -3.5e-5,-74 z"
           id="path8023"
           inkscape:connector-curvature="0" />
        <path
           sodipodi:nodetypes="ccccc"
           d="m 11,26 0,69 1,0 -4.9e-5,-69 z"
           id="path8025"
           inkscape:connector-curvature="0" />
        <path
           sodipodi:nodetypes="ccccc"
           d="M 8,26 8,95 9,95 9,26 Z"
           id="path8027"
           inkscape:connector-curvature="0" />
        <path
           sodipodi:nodetypes="ccccc"
           d="m 2.9986784,25.916822 0,69.083178 0.9995629,0 0,-69.083178 z"
           id="path8029"
           inkscape:connector-curvature="0" />
        <path
           sodipodi:nodetypes="ccccc"
           d="m 1.3499883e-5,25.916822 0,69.083178 1.999113900117,0 0,-69.083178 z"
           id="path8031"
           inkscape:connector-curvature="0" />
        <path
           d="m 12.96037,20.168037 c 0.62972,-0.815576 0.719123,-2.676154 1.281409,-4.358843 0.405305,-1.212926 0.463533,-4.596987 1.208651,-4.882429 0.96834,-0.370951 3.169601,-0.358079 4.223988,-0.416629 2.300059,-0.127699 4.518931,1.098659 6.822539,1.101136 2.990853,0.0036 8.861008,-1.410596 8.861008,-1.410596 l -0.140119,-2.0388259 1.505607,0.2780586 4.07695,-0.5169049 -3.008404,1.3861371 c 0,0 1.201864,-0.021077 1.688022,0.2768321 0.705048,0.432109 0.959994,1.347377 1.46892,1.999162 0.291967,0.373928 1.082477,0.65438 0.908337,1.095671 -0.469844,1.190611 -3.808977,0.485944 -3.808977,0.485944 l -1.918736,1.803326 c -0.833009,1.778987 -2.26137,3.261839 -2.253596,6.722383 0,0 -6.006891,-0.923008 -8.991183,-0.79663 -1.764007,0.07466 -4.968974,0.618073 -4.968974,0.618073 -1.608718,-0.13719 -3.296502,-0.529063 -4.905219,-0.24954 0.0095,-6.235485 0.866683,-6.128862 0.69876,-9.294821 -0.439183,1.679986 -0.971056,4.516551 -1.026843,5.772464 -0.534756,1.525804 -0.01191,1.899672 -1.72214,2.426032 z"
           id="path8033"
           inkscape:connector-curvature="0"
           sodipodi:nodetypes="csssacccccssscccsccccc" />
      </g>
      <g
         class="yellow"
         id="g487">
        <path
           sodipodi:nodetypes="ccccc"
           d="m 90,21 0,74 2,0 3e-6,-74 z"
           id="path7980"
           inkscape:connector-curvature="0" />
        <path
           sodipodi:nodetypes="ccccc"
           d="m 88,26 0,69 1,0 10e-7,-69 z"
           id="path7983"
           inkscape:connector-curvature="0" />
        <path
           sodipodi:nodetypes="ccccc"
           d="m 85,10 0,85 2,0 0,-85 z"
           id="path7985"
           inkscape:connector-curvature="0" />
        <path
           sodipodi:nodetypes="ccccc"
           d="m 81,26 0,69 3,0 4e-6,-69 z"
           id="path7987"
           inkscape:connector-curvature="0" />
        <path
           sodipodi:nodetypes="ccccc"
           d="m 77,26 0,69 1,0 3e-6,-69 z"
           id="path7989"
           inkscape:connector-curvature="0" />
        <path
           sodipodi:nodetypes="ccccc"
           d="m 74,20 0,75 2,0 -7e-6,-75 z"
           id="path7991"
           inkscape:connector-curvature="0" />
        <path
           sodipodi:nodetypes="ccccc"
           d="m 70,26 0,69 3,0 4e-6,-69 z"
           id="path7993"
           inkscape:connector-curvature="0" />
        <path
           sodipodi:nodetypes="ccccc"
           d="m 66,26 0,69 1,0 3e-6,-69 z"
           id="path7995"
           inkscape:connector-curvature="0" />
        <path
           sodipodi:nodetypes="ccccc"
           d="m 64,26 0,69 1,0 10e-7,-69 z"
           id="path7997"
           inkscape:connector-curvature="0" />
        <path
           sodipodi:nodetypes="ccccc"
           d="M 58.973701,25.916822 59,95 61,95 60.9728,25.916822 Z"
           id="path7999"
           inkscape:connector-curvature="0" />
        <path
           sodipodi:nodetypes="ccccc"
           d="m 55,15 0,80 1,0 -9e-6,-80 z"
           id="path8001"
           inkscape:connector-curvature="0" />
        <path
           sodipodi:nodetypes="ccccc"
           d="m 52,26 0,69 2,0 3e-6,-69 z"
           id="path8003"
           inkscape:connector-curvature="0" />
        <path
           sodipodi:nodetypes="ccccc"
           d="m 46,26 0,69 3,0 -7e-6,-69 z"
           id="path8005"
           inkscape:connector-curvature="0" />
        <path
           sodipodi:nodetypes="ccccc"
           d="m 44,26 0,69 1,0 10e-7,-69 z"
           id="path8007"
           inkscape:connector-curvature="0" />
        <path
           sodipodi:nodetypes="ccccc"
           d="m 40,26 0,69 1,0 2e-6,-69 z"
           id="path8009"
           inkscape:connector-curvature="0" />
        <path
           sodipodi:nodetypes="ccccc"
           d="m 37,26 0,69 2,0 4e-6,-69 z"
           id="path8011"
           inkscape:connector-curvature="0" />
        <g
           id="g8035"
           transform="matrix(0.01488015,-0.01147672,0.01147672,0.01488015,39.17529,7.5675208)">
          <ellipse
             transform="matrix(0.58270937,-0.81268061,0.81268061,0.58270937,-465.7507,809.03262)"
             id="path8037"
             cx="567.14288"
             cy="762.36218"
             rx="65.714287"
             ry="32.857143" />
          <path
             sodipodi:nodetypes="cscscc"
             inkscape:connector-curvature="0"
             id="path8039"
             d="m 494.28571,741.6479 c 0,0 14.40901,-2.31616 20.71429,-5.71428 22.08801,-11.90395 53.57143,-52.85715 53.57143,-52.85715 0,0 -33.14169,43.13867 -40,64.99999 -2.07174,6.60382 -1.42857,20.71429 -1.42857,20.71429 z" />
        </g>
        <g
           id="g8041"
           transform="matrix(0.89458574,0,0,0.89458574,-468.13007,-644.42698)">
          <g
             transform="translate(-9.5459416,1.1490485)"
             id="g8043">
            <g
               id="g8045"
               transform="matrix(0.02100622,0,0,0.02100622,586.13922,725.53281)">
              <ellipse
                 transform="matrix(0.58270937,-0.81268061,0.81268061,0.58270937,-465.7507,809.03262)"
                 id="path8047"
                 cx="567.14288"
                 cy="762.36218"
                 rx="65.714287"
                 ry="32.857143" />
              <path
                 sodipodi:nodetypes="cscscc"
                 inkscape:connector-curvature="0"
                 id="path8049"
                 d="m 494.28571,741.6479 c 0,0 14.40901,-2.31616 20.71429,-5.71428 22.08801,-11.90395 53.57143,-52.85715 53.57143,-52.85715 0,0 -33.14169,43.13867 -40,64.99999 -2.07174,6.60382 -1.42857,20.71429 -1.42857,20.71429 z" />
            </g>
            <g
               id="g8051"
               transform="matrix(0.02100622,0,0,0.02100622,586.13922,727.5359)">
              <ellipse
                 transform="matrix(0.58270937,-0.81268061,0.81268061,0.58270937,-465.7507,809.03262)"
                 id="path8053"
                 cx="567.14288"
                 cy="762.36218"
                 rx="65.714287"
                 ry="32.857143" />
              <path
                 sodipodi:nodetypes="cscscc"
                 inkscape:connector-curvature="0"
                 id="path8055"
                 d="m 494.28571,741.6479 c 0,0 14.40901,-2.31616 20.71429,-5.71428 22.08801,-11.90395 53.57143,-52.85715 53.57143,-52.85715 0,0 -33.14169,43.13867 -40,64.99999 -2.07174,6.60382 -1.42857,20.71429 -1.42857,20.71429 z" />
            </g>
            <g
               id="g8057"
               transform="matrix(0.02100622,0,0,0.02100622,586.13922,723.52972)">
              <ellipse
                 transform="matrix(0.58270937,-0.81268061,0.81268061,0.58270937,-465.7507,809.03262)"
                 id="path8059"
                 cx="567.14288"
                 cy="762.36218"
                 rx="65.714287"
                 ry="32.857143" />
              <path
                 sodipodi:nodetypes="cscscc"
                 inkscape:connector-curvature="0"
                 id="path8061"
                 d="m 494.28571,741.6479 c 0,0 14.40901,-2.31616 20.71429,-5.71428 22.08801,-11.90395 53.57143,-52.85715 53.57143,-52.85715 0,0 -33.14169,43.13867 -40,64.99999 -2.07174,6.60382 -1.42857,20.71429 -1.42857,20.71429 z" />
            </g>
            <g
               id="g8063"
               transform="matrix(0.02100622,0,0,0.02100622,586.13922,721.52662)">
              <ellipse
                 transform="matrix(0.58270937,-0.81268061,0.81268061,0.58270937,-465.7507,809.03262)"
                 id="path8065"
                 cx="567.14288"
                 cy="762.36218"
                 rx="65.714287"
                 ry="32.857143" />
              <path
                 sodipodi:nodetypes="cscscc"
                 inkscape:connector-curvature="0"
                 id="path8067"
                 d="m 494.28571,741.6479 c 0,0 14.40901,-2.31616 20.71429,-5.71428 22.08801,-11.90395 53.57143,-52.85715 53.57143,-52.85715 0,0 -33.14169,43.13867 -40,64.99999 -2.07174,6.60382 -1.42857,20.71429 -1.42857,20.71429 z" />
            </g>
            <g
               id="g8069"
               transform="matrix(0.02064274,-0.0038908,0.0038908,0.02064274,583.1049,721.64932)">
              <ellipse
                 transform="matrix(0.58270937,-0.81268061,0.81268061,0.58270937,-465.7507,809.03262)"
                 id="path8071"
                 cx="567.14288"
                 cy="762.36218"
                 rx="65.714287"
                 ry="32.857143" />
              <path
                 sodipodi:nodetypes="cscscc"
                 inkscape:connector-curvature="0"
                 id="path8073"
                 d="m 494.28571,741.6479 c 0,0 14.40901,-2.31616 20.71429,-5.71428 22.08801,-11.90395 53.57143,-52.85715 53.57143,-52.85715 0,0 -33.14169,43.13867 -40,64.99999 -2.07174,6.60382 -1.42857,20.71429 -1.42857,20.71429 z" />
            </g>
          </g>
          <g
             transform="translate(-10.253048,1.1490485)"
             id="g8075">
            <g
               id="g8077"
               transform="matrix(-0.02100622,0,0,0.02100622,604.26937,725.53281)">
              <ellipse
                 transform="matrix(0.58270937,-0.81268061,0.81268061,0.58270937,-465.7507,809.03262)"
                 id="path8079"
                 cx="567.14288"
                 cy="762.36218"
                 rx="65.714287"
                 ry="32.857143" />
              <path
                 sodipodi:nodetypes="cscscc"
                 inkscape:connector-curvature="0"
                 id="path8081"
                 d="m 494.28571,741.6479 c 0,0 14.40901,-2.31616 20.71429,-5.71428 22.08801,-11.90395 53.57143,-52.85715 53.57143,-52.85715 0,0 -33.14169,43.13867 -40,64.99999 -2.07174,6.60382 -1.42857,20.71429 -1.42857,20.71429 z" />
            </g>
            <g
               id="g8083"
               transform="matrix(-0.02100622,0,0,0.02100622,604.26938,727.5359)">
              <ellipse
                 transform="matrix(0.58270937,-0.81268061,0.81268061,0.58270937,-465.7507,809.03262)"
                 id="path8085"
                 cx="567.14288"
                 cy="762.36218"
                 rx="65.714287"
                 ry="32.857143" />
              <path
                 sodipodi:nodetypes="cscscc"
                 inkscape:connector-curvature="0"
                 id="path8087"
                 d="m 494.28571,741.6479 c 0,0 14.40901,-2.31616 20.71429,-5.71428 22.08801,-11.90395 53.57143,-52.85715 53.57143,-52.85715 0,0 -33.14169,43.13867 -40,64.99999 -2.07174,6.60382 -1.42857,20.71429 -1.42857,20.71429 z" />
            </g>
            <g
               id="g8089"
               transform="matrix(-0.02100622,0,0,0.02100622,604.26938,723.52972)">
              <ellipse
                 transform="matrix(0.58270937,-0.81268061,0.81268061,0.58270937,-465.7507,809.03262)"
                 id="path8091"
                 cx="567.14288"
                 cy="762.36218"
                 rx="65.714287"
                 ry="32.857143" />
              <path
                 sodipodi:nodetypes="cscscc"
                 inkscape:connector-curvature="0"
                 id="path8093"
                 d="m 494.28571,741.6479 c 0,0 14.40901,-2.31616 20.71429,-5.71428 22.08801,-11.90395 53.57143,-52.85715 53.57143,-52.85715 0,0 -33.14169,43.13867 -40,64.99999 -2.07174,6.60382 -1.42857,20.71429 -1.42857,20.71429 z" />
            </g>
            <g
               id="g8095"
               transform="matrix(-0.02100622,0,0,0.02100622,604.26937,721.52662)">
              <ellipse
                 transform="matrix(0.58270937,-0.81268061,0.81268061,0.58270937,-465.7507,809.03262)"
                 id="path8097"
                 cx="567.14288"
                 cy="762.36218"
                 rx="65.714287"
                 ry="32.857143" />
              <path
                 sodipodi:nodetypes="cscscc"
                 inkscape:connector-curvature="0"
                 id="path8099"
                 d="m 494.28571,741.6479 c 0,0 14.40901,-2.31616 20.71429,-5.71428 22.08801,-11.90395 53.57143,-52.85715 53.57143,-52.85715 0,0 -33.14169,43.13867 -40,64.99999 -2.07174,6.60382 -1.42857,20.71429 -1.42857,20.71429 z" />
            </g>
            <g
               id="g8101"
               transform="matrix(-0.02064274,-0.0038908,-0.0038908,0.02064274,607.30369,721.64932)">
              <ellipse
                 transform="matrix(0.58270937,-0.81268061,0.81268061,0.58270937,-465.7507,809.03262)"
                 id="path8103"
                 cx="567.14288"
                 cy="762.36218"
                 rx="65.714287"
                 ry="32.857143" />
              <path
                 sodipodi:nodetypes="cscscc"
                 inkscape:connector-curvature="0"
                 id="path8105"
                 d="m 494.28571,741.6479 c 0,0 14.40901,-2.31616 20.71429,-5.71428 22.08801,-11.90395 53.57143,-52.85715 53.57143,-52.85715 0,0 -33.14169,43.13867 -40,64.99999 -2.07174,6.60382 -1.42857,20.71429 -1.42857,20.71429 z" />
            </g>
          </g>
        </g>
        <circle
           transform="matrix(0.485552,-0.55754244,0.55754244,0.485552,-609.87518,1.320708)"
           id="path8109"
           class="design-element yellow"
           cx="608"
           cy="732.36218"
           r="2.5" />
        <circle
           transform="matrix(-0.38021056,-0.63407748,0.63407748,-0.38021056,-141.51598,679.55003)"
           inkscape:transform-center-y="-1.6050895"
           inkscape:transform-center-x="-3.1501887"
           class="design-element yellow"
           id="path8111"
           cx="608"
           cy="732.36218"
           r="2.5" />
        <circle
           id="path8113"
           class="design-element yellow"
           inkscape:transform-center-x="0.5530674"
           inkscape:transform-center-y="-3.4919705"
           transform="matrix(-0.72053504,0.16566101,-0.16566101,-0.72053504,648.2494,443.69835)"
           cx="608"
           cy="732.36218"
           r="2.5" />
        <circle
           transform="matrix(-0.06510459,0.73646162,-0.73646162,-0.06510459,667.99205,-380.29537)"
           inkscape:transform-center-y="-0.5530731"
           inkscape:transform-center-x="3.4919258"
           class="design-element yellow"
           id="path8115"
           cx="608"
           cy="732.36218"
           r="2.5" />
        <circle
           id="path8117"
           class="design-element yellow"
           inkscape:transform-center-x="1.6050854"
           inkscape:transform-center-y="3.1501051"
           transform="matrix(0.68029819,0.2894973,-0.2894973,0.68029819,-109.57177,-653.69978)"
           cx="608"
           cy="732.36218"
           r="2.5" />
        <g
           id="g8119"
           transform="matrix(-0.6491698,-0.35382606,0.35382606,-0.6491698,218.16484,702.9075)">
          <circle
             class="design-element yellow"
             id="path8121"
             transform="translate(1.5,9.75)"
             cx="608"
             cy="732.36218"
             r="2.5" />
          <circle
             id="path8123"
             class="design-element yellow"
             inkscape:transform-center-x="-3.1501887"
             inkscape:transform-center-y="-1.6050895"
             transform="matrix(0.30901699,-0.95105652,0.95105652,0.30901699,-274.24997,1089.9371)"
             cx="608"
             cy="732.36218"
             r="2.5" />
          <circle
             transform="matrix(-0.809017,-0.58778525,0.58778525,-0.809017,667.85758,1685.9871)"
             inkscape:transform-center-y="-3.4919705"
             inkscape:transform-center-x="0.5530674"
             class="design-element yellow"
             id="path8125"
             cx="608"
             cy="732.36218"
             r="2.5" />
          <circle
             id="path8127"
             class="design-element yellow"
             inkscape:transform-center-x="3.4919258"
             inkscape:transform-center-y="-0.5530731"
             transform="matrix(-0.80901699,0.58778526,-0.58778526,-0.80901699,1525.8621,974.17912)"
             cx="608"
             cy="732.36218"
             r="2.5" />
          <circle
             transform="matrix(0.309017,0.95105651,-0.95105651,0.309017,1114.0304,-61.792435)"
             inkscape:transform-center-y="3.1501051"
             inkscape:transform-center-x="1.6050854"
             class="design-element yellow"
             id="path8129"
             cx="608"
             cy="732.36218"
             r="2.5" />
        </g>
        <g
           transform="matrix(0.31450273,-0.66910564,0.66910564,0.31450273,-610.58237,190.80877)"
           id="g8131">
          <circle
             transform="translate(1.5,9.75)"
             id="path8133"
             class="design-element yellow"
             cx="608"
             cy="732.36218"
             r="2.5" />
          <circle
             transform="matrix(0.30901699,-0.95105652,0.95105652,0.30901699,-274.24997,1089.9371)"
             inkscape:transform-center-y="-1.6050895"
             inkscape:transform-center-x="-3.1501887"
             class="design-element yellow"
             id="path8135"
             cx="608"
             cy="732.36218"
             r="2.5" />
          <circle
             id="path8137"
             class="design-element yellow"
             inkscape:transform-center-x="0.5530674"
             inkscape:transform-center-y="-3.4919705"
             transform="matrix(-0.809017,-0.58778525,0.58778525,-0.809017,667.85758,1685.9871)"
             cx="608"
             cy="732.36218"
             r="2.5" />
          <circle
             transform="matrix(-0.80901699,0.58778526,-0.58778526,-0.80901699,1525.8621,974.17912)"
             inkscape:transform-center-y="-0.5530731"
             inkscape:transform-center-x="3.4919258"
             class="design-element yellow"
             id="path8139"
             cx="608"
             cy="732.36218"
             r="2.5" />
          <circle
             id="path8141"
             class="design-element yellow"
             inkscape:transform-center-x="1.6050854"
             inkscape:transform-center-y="3.1501051"
             transform="matrix(0.309017,0.95105651,-0.95105651,0.309017,1114.0304,-61.792435)"
             cx="608"
             cy="732.36218"
             r="2.5" />
        </g>
      </g>
      <g
         class="green"
         id="g391">
        <path
           sodipodi:nodetypes="ccccc"
           d="M 150,26.012039 150,95 l 1,0 0,-68.987961 z"
           id="path7948"
           inkscape:connector-curvature="0" />
        <path
           sodipodi:nodetypes="ccccc"
           d="M 146,26.012039 146,95 l 3,0 0,-68.987961 z"
           id="path7950"
           inkscape:connector-curvature="0" />
        <path
           sodipodi:nodetypes="ccccc"
           d="M 143,26.012039 143,95 l 2,0 0,-68.987961 z"
           id="path7952"
           inkscape:connector-curvature="0" />
        <path
           sodipodi:nodetypes="ccccc"
           d="M 141,26.012039 141,95 l 1,0 0,-68.987961 z"
           id="path7954"
           inkscape:connector-curvature="0" />
        <path
           sodipodi:nodetypes="ccccc"
           d="m 135,24 0,71 3,0 -5e-5,-69 z"
           id="path7956"
           inkscape:connector-curvature="0" />
        <path
           sodipodi:nodetypes="ccccc"
           d="m 132,26 0,69 2,0 -4e-5,-69 z"
           id="path7958"
           inkscape:connector-curvature="0" />
        <path
           sodipodi:nodetypes="ccccc"
           d="m 129,26 0,69 2,0 1e-5,-69 z"
           id="path7960"
           inkscape:connector-curvature="0" />
        <path
           sodipodi:nodetypes="ccccc"
           d="m 125,26 0,69 1,0 5e-5,-69 z"
           id="path7962"
           inkscape:connector-curvature="0" />
        <path
           sodipodi:nodetypes="ccccc"
           d="m 121,26 0,69 1,0 6e-5,-69 z"
           id="path7964"
           inkscape:connector-curvature="0" />
        <path
           sodipodi:nodetypes="ccccc"
           d="m 116,26 0,69 2,0 1e-5,-69 z"
           id="path7966"
           inkscape:connector-curvature="0" />
        <path
           sodipodi:nodetypes="ccccc"
           d="m 112,26 0,69 1,0 -5e-5,-69 z"
           id="path7968"
           inkscape:connector-curvature="0" />
        <path
           sodipodi:nodetypes="ccccc"
           d="m 110,26 0,69 1,0 -5e-5,-69 z"
           id="path7970"
           inkscape:connector-curvature="0" />
        <path
           sodipodi:nodetypes="ccccc"
           d="m 108,26 0,69 1,0 4e-5,-69 z"
           id="path7972"
           inkscape:connector-curvature="0" />
        <path
           sodipodi:nodetypes="ccccc"
           d="m 103,26 0,69 2,0 1e-5,-69 z"
           id="path7974"
           inkscape:connector-curvature="0" />
        <path
           sodipodi:nodetypes="ccccc"
           d="m 99,26 0,69 1,0 -10e-7,-69 z"
           id="path7976"
           inkscape:connector-curvature="0" />
        <path
           sodipodi:nodetypes="ccccc"
           d="M 94.983089,26.012039 95,95 96,95 95.98263,26.012039 Z"
           id="path7978"
           inkscape:connector-curvature="0" />
        <path
           sodipodi:nodetypes="cccscc"
           inkscape:connector-curvature="0"
           id="path8143"
           d="M 122.44657,6.3372804 C 131.63587,7.2870331 135.07702,14.767884 135,28 l 2.96392,-1.398609 c 0,-1.461895 -0.0255,-1.249361 -0.0255,-2.711244 0,-10.866897 -6.40398,-17.274677 -10.91182,-18.343579 z" />
        <g
           id="g8145"
           transform="matrix(0.89458574,0,0,0.89458574,-468.09845,-644.42698)">
          <g
             id="g8147"
             transform="translate(-0.6875,-0.0625)">
            <path
               d="m 646.11882,744.69741 c 9.98853,-2.85699 22.36057,-3.40732 20.1894,-18.03175 -19.13147,-9.00363 -12.68327,7.89971 -20.1894,18.03175 z"
               id="path8149"
               inkscape:connector-curvature="0"
               sodipodi:nodetypes="ccc" />
            <path
               d="m 667.50879,725.1485 c -4.96993,6.86401 -15.79612,16.96445 -22.45063,19.97578 6.6817,-2.48508 19.65127,-12.66443 22.45063,-19.97578 z"
               id="path8151"
               inkscape:connector-curvature="0"
               sodipodi:nodetypes="ccc" />
          </g>
        </g>
        <g
           transform="matrix(0.73729109,0.50664139,0.50664139,-0.73729109,-728.9281,199.42539)"
           id="g8153">
          <g
             id="g8155"
             transform="matrix(-0.85351374,-0.52107033,0.52107033,-0.85351374,864.58887,1695.2445)">
            <g
               id="g8157"
               transform="translate(-0.6875,-0.0625)">
              <path
                 d="m 646.11882,744.69741 c 9.98853,-2.85699 22.36057,-3.40732 20.1894,-18.03175 -19.99874,-7.24796 -12.68327,7.89971 -20.1894,18.03175 z"
                 id="path8159"
                 inkscape:connector-curvature="0"
                 sodipodi:nodetypes="ccc" />
              <path
                 d="m 667.50879,725.1485 c -4.96993,6.86401 -15.79612,16.96445 -22.45063,19.97578 6.6817,-2.48508 19.65127,-12.66443 22.45063,-19.97578 z"
                 id="path8161"
                 inkscape:connector-curvature="0"
                 sodipodi:nodetypes="ccc" />
            </g>
          </g>
        </g>
        <path
           d="M 137.87818,4.6040196 C 135.88514,6.1688092 135.07702,14.767884 135,28 l 2.96392,-1.398609 c 0,-1.461895 0.0361,1.860492 0.0361,0.398609 0,-10.866897 0.85886,-19.3222012 1.21536,-21.1179659 z"
           id="path8163"
           inkscape:connector-curvature="0"
           sodipodi:nodetypes="cccscc" />
      </g>
      <g
         class="cyan"
         id="g395">
        <path
           sodipodi:nodetypes="ccccscccccccccccccccccccccccccccccccccc"
           id="path7946"
           d="m 154,26 0,69 3,0 0,-53.810872 c -1.32362,-1.014805 -2.12462,-2.271422 -2.12462,-3.662215 0,-1.390781 0.801,-2.675356 2.12462,-3.690161 L 157,26 Z m 4,0 0,7.193768 c 1.12603,-0.642997 2.49599,-1.128715 4.02565,-1.397795 L 162,26 Z m 5,0 -0.08,5.62824 c 0.32965,-0.03644 0.66619,-0.03965 1.00641,-0.05585 L 164,26.000057 c -0.35153,4.6e-5 -0.64847,-3.3e-5 -1,-5.7e-5 z m 2,0 0,5.544374 c 0.68266,0.0083 1.34304,0.08097 1.9849,0.167733 L 167,26 Z M 158,41.860072 158,95 l 4,0 0,-51.770093 c -1.58676,-0.26883 -2.87451,-0.727732 -4,-1.369835 z m 9,1.481649 c -0.64077,0.08753 -1.30349,0.131652 -1.9849,0.139785 L 165,95 l 2,0 z m -4,0.05597 L 163,95 l 1,0 0.006,-51.546402 c -0.34022,-0.01632 -0.67676,-0.01941 -1.00641,-0.05585 z"
           inkscape:connector-curvature="0" />
        <circle
           id="path8165"
           cx="159.09236"
           cy="35.27636"
           r="0.94885141" />
      </g>
    </g>
  </g>
</svg>
