<?xml version="1.0" encoding="UTF-8" standalone="no"?>
<!-- Created with Inkscape (http://www.inkscape.org/) -->

<svg
   xmlns:dc="http://purl.org/dc/elements/1.1/"
   xmlns:cc="http://creativecommons.org/ns#"
   xmlns:rdf="http://www.w3.org/1999/02/22-rdf-syntax-ns#"
   xmlns:svg="http://www.w3.org/2000/svg"
   xmlns="http://www.w3.org/2000/svg"
   xmlns:sodipodi="http://sodipodi.sourceforge.net/DTD/sodipodi-0.dtd"
   xmlns:inkscape="http://www.inkscape.org/namespaces/inkscape"
   width="178"
   height="150"
   id="svg8313"
   version="1.1"
   inkscape:version="0.92.2 (5c3e80d, 2017-08-06)"
   sodipodi:docname="openfoodfacts-logo-sq.svg"
   inkscape:export-filename="C:\Users\Stéphane\Desktop\Blogs\OpenFoodFacts\openfoodfacts-logo-712x600.png"
   inkscape:export-xdpi="360"
   inkscape:export-ydpi="360">
  <defs
     id="defs8315" />
  <sodipodi:namedview
     id="base"
     pagecolor="#ffffff"
     bordercolor="#666666"
     borderopacity="1.0"
     inkscape:pageopacity="0.0"
     inkscape:pageshadow="2"
     inkscape:zoom="1.5958102"
     inkscape:cx="300.61185"
     inkscape:cy="113.80474"
     inkscape:document-units="px"
     inkscape:current-layer="layer1"
     showgrid="true"
     inkscape:window-width="1920"
     inkscape:window-height="1018"
     inkscape:window-x="-8"
     inkscape:window-y="-8"
     inkscape:window-maximized="1"
     inkscape:snap-global="true">
    <inkscape:grid
       type="xygrid"
       id="grid8566" />
  </sodipodi:namedview>
  <metadata
     id="metadata8318">
    <rdf:RDF>
      <cc:Work
         rdf:about="">
        <dc:format>image/svg+xml</dc:format>
        <dc:type
           rdf:resource="http://purl.org/dc/dcmitype/StillImage" />
        <dc:title></dc:title>
      </cc:Work>
    </rdf:RDF>
  </metadata>
  <g
     inkscape:label="Calque 1"
     inkscape:groupmode="layer"
     id="layer1">
    <path
       inkscape:export-ydpi="90"
       inkscape:export-xdpi="90"
       inkscape:export-filename="C:\Users\Stéphane\Desktop\Blogs\OpenFoodFacts\test-178.png"
       inkscape:connector-curvature="0"
       style="fill:#0066ff;fill-opacity:1;fill-rule:nonzero;stroke:none"
       d="m 170,26 0,6.41101 c 1.19571,0.444338 2.21393,1.060483 3,1.761208 L 173,26 Z m 4,0 0,8.312003 1,-0.838676 L 175,26 Z m 2,0 0,6.606702 1,-0.978462 0,11.7694 -1,-1.00641 0,52.60877 2,0 0,-69 z M 174,40.685929 174,95 l 1,0 0,-53.475406 z m -1,0.139774 c -0.78598,0.701951 -1.79569,1.313237 -3,1.76122 L 170,95 l 3,0 z"
       id="path7944"
       sodipodi:nodetypes="ccccccccccccccccccccccccccccc" />
    <path
       inkscape:export-ydpi="90"
       inkscape:export-xdpi="90"
       inkscape:export-filename="C:\Users\Stéphane\Desktop\Blogs\OpenFoodFacts\test-178.png"
       inkscape:connector-curvature="0"
       style="fill:#00ccff;fill-opacity:1;fill-rule:nonzero;stroke:none"
       d="m 154,26 0,69 3,0 0,-53.810872 c -1.32362,-1.014805 -2.12462,-2.271422 -2.12462,-3.662215 0,-1.390781 0.801,-2.675356 2.12462,-3.690161 L 157,26 Z m 4,0 0,7.193768 c 1.12603,-0.642997 2.47034,-1.128715 4,-1.397795 L 162,26 Z m 5,0 0,5.62824 c 0.32965,-0.03644 0.65978,-0.03965 1,-0.05585 l 0,-5.572333 c -0.35153,4.6e-5 -0.64847,-3.3e-5 -1,-5.7e-5 z m 2,0 0,5.544374 c 0.68266,0.0083 1.35814,0.08097 2,0.167733 L 167,26 Z M 158,41.860072 158,95 l 4,0 0,-51.770093 c -1.58676,-0.26883 -2.87451,-0.727732 -4,-1.369835 z m 9,1.481649 c -0.64077,0.08753 -1.31859,0.131652 -2,0.139785 L 165,95 l 2,0 z m -4,0.05597 L 163,95 l 1,0 0,-51.546402 c -0.34022,-0.01632 -0.67076,-0.01941 -1.00041,-0.05585 z"
       id="path7946"
       sodipodi:nodetypes="ccccscccccccccccccccccccccccccccccccccc" />
    <path
       inkscape:export-ydpi="90"
       inkscape:export-xdpi="90"
       inkscape:export-filename="C:\Users\Stéphane\Desktop\Blogs\OpenFoodFacts\test-178.png"
       inkscape:connector-curvature="0"
       id="path7948"
       d="m 150,26 0,69 1,0 0,-69 z"
       style="fill:#00d400;fill-opacity:1;fill-rule:nonzero;stroke:none"
       sodipodi:nodetypes="ccccc" />
    <path
       inkscape:export-ydpi="90"
       inkscape:export-xdpi="90"
       inkscape:export-filename="C:\Users\Stéphane\Desktop\Blogs\OpenFoodFacts\test-178.png"
       inkscape:connector-curvature="0"
       id="path7950"
       d="m 146,26 0,69 3,0 0,-69 z"
       style="fill:#00d400;fill-opacity:1;fill-rule:nonzero;stroke:none"
       sodipodi:nodetypes="ccccc" />
    <path
       inkscape:export-ydpi="90"
       inkscape:export-xdpi="90"
       inkscape:export-filename="C:\Users\Stéphane\Desktop\Blogs\OpenFoodFacts\test-178.png"
       inkscape:connector-curvature="0"
       id="path7952"
       d="m 143,26 0,69 2,0 0,-69 z"
       style="fill:#00d400;fill-opacity:1;fill-rule:nonzero;stroke:none"
       sodipodi:nodetypes="ccccc" />
    <path
       inkscape:export-ydpi="90"
       inkscape:export-xdpi="90"
       inkscape:export-filename="C:\Users\Stéphane\Desktop\Blogs\OpenFoodFacts\test-178.png"
       inkscape:connector-curvature="0"
       id="path7954"
       d="m 141,26 0,69 1,0 0,-69 z"
       style="fill:#00d400;fill-opacity:1;fill-rule:nonzero;stroke:none"
       sodipodi:nodetypes="ccccc" />
    <path
       inkscape:export-ydpi="90"
       inkscape:export-xdpi="90"
       inkscape:export-filename="C:\Users\Stéphane\Desktop\Blogs\OpenFoodFacts\test-178.png"
       inkscape:connector-curvature="0"
       id="path7956"
       d="m 135,24 0,71 3,0 -5e-5,-69 z"
       style="fill:#00d400;fill-opacity:1;fill-rule:nonzero;stroke:none"
       sodipodi:nodetypes="ccccc" />
    <path
       inkscape:export-ydpi="90"
       inkscape:export-xdpi="90"
       inkscape:export-filename="C:\Users\Stéphane\Desktop\Blogs\OpenFoodFacts\test-178.png"
       inkscape:connector-curvature="0"
       id="path7958"
       d="m 132,26 0,69 2,0 -4e-5,-69 z"
       style="fill:#00d400;fill-opacity:1;fill-rule:nonzero;stroke:none"
       sodipodi:nodetypes="ccccc" />
    <path
       inkscape:export-ydpi="90"
       inkscape:export-xdpi="90"
       inkscape:export-filename="C:\Users\Stéphane\Desktop\Blogs\OpenFoodFacts\test-178.png"
       inkscape:connector-curvature="0"
       id="path7960"
       d="m 129,26 0,69 2,0 1e-5,-69 z"
       style="fill:#00d400;fill-opacity:1;fill-rule:nonzero;stroke:none"
       sodipodi:nodetypes="ccccc" />
    <path
       inkscape:export-ydpi="90"
       inkscape:export-xdpi="90"
       inkscape:export-filename="C:\Users\Stéphane\Desktop\Blogs\OpenFoodFacts\test-178.png"
       inkscape:connector-curvature="0"
       id="path7962"
       d="m 125,26 0,69 1,0 5e-5,-69 z"
       style="fill:#00d400;fill-opacity:1;fill-rule:nonzero;stroke:none"
       sodipodi:nodetypes="ccccc" />
    <path
       inkscape:export-ydpi="90"
       inkscape:export-xdpi="90"
       inkscape:export-filename="C:\Users\Stéphane\Desktop\Blogs\OpenFoodFacts\test-178.png"
       inkscape:connector-curvature="0"
       id="path7964"
       d="m 121,26 0,69 1,0 6e-5,-69 z"
       style="fill:#00d400;fill-opacity:1;fill-rule:nonzero;stroke:none"
       sodipodi:nodetypes="ccccc" />
    <path
       inkscape:export-ydpi="90"
       inkscape:export-xdpi="90"
       inkscape:export-filename="C:\Users\Stéphane\Desktop\Blogs\OpenFoodFacts\test-178.png"
       inkscape:connector-curvature="0"
       id="path7966"
       d="m 116,26 0,69 2,0 1e-5,-69 z"
       style="fill:#00d400;fill-opacity:1;fill-rule:nonzero;stroke:none"
       sodipodi:nodetypes="ccccc" />
    <path
       inkscape:export-ydpi="90"
       inkscape:export-xdpi="90"
       inkscape:export-filename="C:\Users\Stéphane\Desktop\Blogs\OpenFoodFacts\test-178.png"
       inkscape:connector-curvature="0"
       id="path7968"
       d="m 112,26 0,69 1,0 -5e-5,-69 z"
       style="fill:#00d400;fill-opacity:1;fill-rule:nonzero;stroke:none"
       sodipodi:nodetypes="ccccc" />
    <path
       inkscape:export-ydpi="90"
       inkscape:export-xdpi="90"
       inkscape:export-filename="C:\Users\Stéphane\Desktop\Blogs\OpenFoodFacts\test-178.png"
       inkscape:connector-curvature="0"
       id="path7970"
       d="m 110,26 0,69 1,0 -5e-5,-69 z"
       style="fill:#00d400;fill-opacity:1;fill-rule:nonzero;stroke:none"
       sodipodi:nodetypes="ccccc" />
    <path
       inkscape:export-ydpi="90"
       inkscape:export-xdpi="90"
       inkscape:export-filename="C:\Users\Stéphane\Desktop\Blogs\OpenFoodFacts\test-178.png"
       inkscape:connector-curvature="0"
       id="path7972"
       d="m 108,26 0,69 1,0 4e-5,-69 z"
       style="fill:#00d400;fill-opacity:1;fill-rule:nonzero;stroke:none"
       sodipodi:nodetypes="ccccc" />
    <path
       inkscape:export-ydpi="90"
       inkscape:export-xdpi="90"
       inkscape:export-filename="C:\Users\Stéphane\Desktop\Blogs\OpenFoodFacts\test-178.png"
       inkscape:connector-curvature="0"
       id="path7974"
       d="m 103,26 0,69 2,0 1e-5,-69 z"
       style="fill:#00d400;fill-opacity:1;fill-rule:nonzero;stroke:none"
       sodipodi:nodetypes="ccccc" />
    <path
       inkscape:export-ydpi="90"
       inkscape:export-xdpi="90"
       inkscape:export-filename="C:\Users\Stéphane\Desktop\Blogs\OpenFoodFacts\test-178.png"
       inkscape:connector-curvature="0"
       id="path7976"
       d="m 99,26 0,69 1,0 0,-69 z"
       style="fill:#00d400;fill-opacity:1;fill-rule:nonzero;stroke:none"
       sodipodi:nodetypes="ccccc" />
    <path
       inkscape:export-ydpi="90"
       inkscape:export-xdpi="90"
       inkscape:export-filename="C:\Users\Stéphane\Desktop\Blogs\OpenFoodFacts\test-178.png"
       inkscape:connector-curvature="0"
       id="path7978"
       d="m 95,26 0.0166,69 0.98337,0 -0.0171,-69 z"
       style="fill:#00d400;fill-opacity:1;fill-rule:nonzero;stroke:none"
       sodipodi:nodetypes="ccccc" />
    <path
       inkscape:export-ydpi="90"
       inkscape:export-xdpi="90"
       inkscape:export-filename="C:\Users\Stéphane\Desktop\Blogs\OpenFoodFacts\test-178.png"
       inkscape:connector-curvature="0"
       id="path7980"
       d="m 90,21 0,74 2,0 0,-74 z"
       style="fill:#ffcc00;fill-opacity:1;fill-rule:nonzero;stroke:none"
       sodipodi:nodetypes="ccccc" />
    <path
       inkscape:export-ydpi="90"
       inkscape:export-xdpi="90"
       inkscape:export-filename="C:\Users\Stéphane\Desktop\Blogs\OpenFoodFacts\test-178.png"
       inkscape:connector-curvature="0"
       id="path7983"
       d="m 88,26 0,69 1,0 0,-69 z"
       style="fill:#ffcc00;fill-opacity:1;fill-rule:nonzero;stroke:none"
       sodipodi:nodetypes="ccccc" />
    <path
       inkscape:export-ydpi="90"
       inkscape:export-xdpi="90"
       inkscape:export-filename="C:\Users\Stéphane\Desktop\Blogs\OpenFoodFacts\test-178.png"
       inkscape:connector-curvature="0"
       id="path7985"
       d="m 85,10 0,85 2,0 0,-85 z"
       style="fill:#ffcc00;fill-opacity:1;fill-rule:nonzero;stroke:none"
       sodipodi:nodetypes="ccccc" />
    <path
       inkscape:export-ydpi="90"
       inkscape:export-xdpi="90"
       inkscape:export-filename="C:\Users\Stéphane\Desktop\Blogs\OpenFoodFacts\test-178.png"
       inkscape:connector-curvature="0"
       id="path7987"
       d="m 81,26 0,69 3,0 4e-6,-69 z"
       style="fill:#ffcc00;fill-opacity:1;fill-rule:nonzero;stroke:none"
       sodipodi:nodetypes="ccccc" />
    <path
       inkscape:export-ydpi="90"
       inkscape:export-xdpi="90"
       inkscape:export-filename="C:\Users\Stéphane\Desktop\Blogs\OpenFoodFacts\test-178.png"
       inkscape:connector-curvature="0"
       id="path7989"
       d="m 77,26 0,69 1,0 3e-6,-69 z"
       style="fill:#ffcc00;fill-opacity:1;fill-rule:nonzero;stroke:none"
       sodipodi:nodetypes="ccccc" />
    <path
       inkscape:export-ydpi="90"
       inkscape:export-xdpi="90"
       inkscape:export-filename="C:\Users\Stéphane\Desktop\Blogs\OpenFoodFacts\test-178.png"
       inkscape:connector-curvature="0"
       id="path7991"
       d="m 74,20 0,75 2,0 -7e-6,-75 z"
       style="fill:#ffcc00;fill-opacity:1;fill-rule:nonzero;stroke:none"
       sodipodi:nodetypes="ccccc" />
    <path
       inkscape:export-ydpi="90"
       inkscape:export-xdpi="90"
       inkscape:export-filename="C:\Users\Stéphane\Desktop\Blogs\OpenFoodFacts\test-178.png"
       inkscape:connector-curvature="0"
       id="path7993"
       d="m 70,26 0,69 3,0 4e-6,-69 z"
       style="fill:#ffcc00;fill-opacity:1;fill-rule:nonzero;stroke:none"
       sodipodi:nodetypes="ccccc" />
    <path
       inkscape:export-ydpi="90"
       inkscape:export-xdpi="90"
       inkscape:export-filename="C:\Users\Stéphane\Desktop\Blogs\OpenFoodFacts\test-178.png"
       inkscape:connector-curvature="0"
       id="path7995"
       d="m 66,26 0,69 1,0 3e-6,-69 z"
       style="fill:#ffcc00;fill-opacity:1;fill-rule:nonzero;stroke:none"
       sodipodi:nodetypes="ccccc" />
    <path
       inkscape:export-ydpi="90"
       inkscape:export-xdpi="90"
       inkscape:export-filename="C:\Users\Stéphane\Desktop\Blogs\OpenFoodFacts\test-178.png"
       inkscape:connector-curvature="0"
       id="path7997"
       d="m 64,26 0,69 1,0 10e-7,-69 z"
       style="fill:#ffcc00;fill-opacity:1;fill-rule:nonzero;stroke:none"
       sodipodi:nodetypes="ccccc" />
    <path
       inkscape:export-ydpi="90"
       inkscape:export-xdpi="90"
       inkscape:export-filename="C:\Users\Stéphane\Desktop\Blogs\OpenFoodFacts\test-178.png"
       inkscape:connector-curvature="0"
       id="path7999"
       d="m 59,26 0.02596,69 1.974042,0 -0.02685,-69 z"
       style="fill:#ffcc00;fill-opacity:1;fill-rule:nonzero;stroke:none"
       sodipodi:nodetypes="ccccc" />
    <path
       inkscape:export-ydpi="90"
       inkscape:export-xdpi="90"
       inkscape:export-filename="C:\Users\Stéphane\Desktop\Blogs\OpenFoodFacts\test-178.png"
       inkscape:connector-curvature="0"
       id="path8001"
       d="m 55,15 0,80 1,0 -9e-6,-80 z"
       style="fill:#ffcc00;fill-opacity:1;fill-rule:nonzero;stroke:none"
       sodipodi:nodetypes="ccccc" />
    <path
       inkscape:export-ydpi="90"
       inkscape:export-xdpi="90"
       inkscape:export-filename="C:\Users\Stéphane\Desktop\Blogs\OpenFoodFacts\test-178.png"
       inkscape:connector-curvature="0"
       id="path8003"
       d="m 52,26 0,69 2,0 3e-6,-69 z"
       style="fill:#ffcc00;fill-opacity:1;fill-rule:nonzero;stroke:none"
       sodipodi:nodetypes="ccccc" />
    <path
       inkscape:export-ydpi="90"
       inkscape:export-xdpi="90"
       inkscape:export-filename="C:\Users\Stéphane\Desktop\Blogs\OpenFoodFacts\test-178.png"
       inkscape:connector-curvature="0"
       id="path8005"
       d="m 46,26 0,69 3,0 -7e-6,-69 z"
       style="fill:#ffcc00;fill-opacity:1;fill-rule:nonzero;stroke:none"
       sodipodi:nodetypes="ccccc" />
    <path
       inkscape:export-ydpi="90"
       inkscape:export-xdpi="90"
       inkscape:export-filename="C:\Users\Stéphane\Desktop\Blogs\OpenFoodFacts\test-178.png"
       inkscape:connector-curvature="0"
       id="path8007"
       d="m 44,26 0,69 1,0 10e-7,-69 z"
       style="fill:#ffcc00;fill-opacity:1;fill-rule:nonzero;stroke:none"
       sodipodi:nodetypes="ccccc" />
    <path
       inkscape:export-ydpi="90"
       inkscape:export-xdpi="90"
       inkscape:export-filename="C:\Users\Stéphane\Desktop\Blogs\OpenFoodFacts\test-178.png"
       inkscape:connector-curvature="0"
       id="path8009"
       d="m 40,26 0,69 1,0 2e-6,-69 z"
       style="fill:#ffcc00;fill-opacity:1;fill-rule:nonzero;stroke:none"
       sodipodi:nodetypes="ccccc" />
    <path
       inkscape:export-ydpi="90"
       inkscape:export-xdpi="90"
       inkscape:export-filename="C:\Users\Stéphane\Desktop\Blogs\OpenFoodFacts\test-178.png"
       inkscape:connector-curvature="0"
       id="path8011"
       d="m 37,26 0,69 2,0 4e-6,-69 z"
       style="fill:#ffcc00;fill-opacity:1;fill-rule:nonzero;stroke:none"
       sodipodi:nodetypes="ccccc" />
    <path
       inkscape:export-ydpi="90"
       inkscape:export-xdpi="90"
       inkscape:export-filename="C:\Users\Stéphane\Desktop\Blogs\OpenFoodFacts\test-178.png"
       inkscape:connector-curvature="0"
       id="path8013"
       d="m 33,20 0,75 1,0 -7e-6,-75 z"
       style="fill:#ff0000;fill-opacity:1;fill-rule:nonzero;stroke:none"
       sodipodi:nodetypes="ccccc" />
    <path
       inkscape:export-ydpi="90"
       inkscape:export-xdpi="90"
       inkscape:export-filename="C:\Users\Stéphane\Desktop\Blogs\OpenFoodFacts\test-178.png"
       inkscape:connector-curvature="0"
       id="path8015"
       d="m 30,19 0,76 2,0 4e-6,-76 z"
       style="fill:#ff0000;fill-opacity:1;fill-rule:nonzero;stroke:none"
       sodipodi:nodetypes="ccccc" />
    <path
       inkscape:export-ydpi="90"
       inkscape:export-xdpi="90"
       inkscape:export-filename="C:\Users\Stéphane\Desktop\Blogs\OpenFoodFacts\test-178.png"
       inkscape:connector-curvature="0"
       id="path8017"
       d="m 26,26 0,69 3,0 0,-69 z"
       style="fill:#ff0000;fill-opacity:1;fill-rule:nonzero;stroke:none"
       sodipodi:nodetypes="ccccc" />
    <path
       inkscape:export-ydpi="90"
       inkscape:export-xdpi="90"
       inkscape:export-filename="C:\Users\Stéphane\Desktop\Blogs\OpenFoodFacts\test-178.png"
       inkscape:connector-curvature="0"
       id="path8019"
       d="m 22,26 0,69 3,0 -5e-6,-69 z"
       style="fill:#ff0000;fill-opacity:1;fill-rule:nonzero;stroke:none"
       sodipodi:nodetypes="ccccc" />
    <path
       inkscape:export-ydpi="90"
       inkscape:export-xdpi="90"
       inkscape:export-filename="C:\Users\Stéphane\Desktop\Blogs\OpenFoodFacts\test-178.png"
       inkscape:connector-curvature="0"
       id="path8021"
       d="m 19,20 0,75 2,0 -8.6e-5,-75 z"
       style="fill:#ff0000;fill-opacity:1;fill-rule:nonzero;stroke:none"
       sodipodi:nodetypes="ccccc" />
    <path
       inkscape:export-ydpi="90"
       inkscape:export-xdpi="90"
       inkscape:export-filename="C:\Users\Stéphane\Desktop\Blogs\OpenFoodFacts\test-178.png"
       inkscape:connector-curvature="0"
       id="path8023"
       d="m 15,21 0,74 3,0 -3.5e-5,-74 z"
       style="fill:#ff0000;fill-opacity:1;fill-rule:nonzero;stroke:none"
       sodipodi:nodetypes="ccccc" />
    <path
       inkscape:export-ydpi="90"
       inkscape:export-xdpi="90"
       inkscape:export-filename="C:\Users\Stéphane\Desktop\Blogs\OpenFoodFacts\test-178.png"
       inkscape:connector-curvature="0"
       id="path8025"
       d="m 11,26 0,69 1,0 -4.9e-5,-69 z"
       style="fill:#ff0000;fill-opacity:1;fill-rule:nonzero;stroke:none"
       sodipodi:nodetypes="ccccc" />
    <path
       inkscape:export-ydpi="90"
       inkscape:export-xdpi="90"
       inkscape:export-filename="C:\Users\Stéphane\Desktop\Blogs\OpenFoodFacts\test-178.png"
       inkscape:connector-curvature="0"
       id="path8027"
       d="M 8,26 8,95 9,95 9,26 Z"
       style="fill:#ff0000;fill-opacity:1;fill-rule:nonzero;stroke:none"
       sodipodi:nodetypes="ccccc" />
    <path
       inkscape:export-ydpi="90"
       inkscape:export-xdpi="90"
       inkscape:export-filename="C:\Users\Stéphane\Desktop\Blogs\OpenFoodFacts\test-178.png"
       inkscape:connector-curvature="0"
       id="path8029"
       d="m 3,26 0,69 0.999563,0 0,-69 z"
       style="fill:#ff0000;fill-opacity:1;fill-rule:nonzero;stroke:none"
       sodipodi:nodetypes="ccccc" />
    <path
       inkscape:export-ydpi="90"
       inkscape:export-xdpi="90"
       inkscape:export-filename="C:\Users\Stéphane\Desktop\Blogs\OpenFoodFacts\test-178.png"
       inkscape:connector-curvature="0"
       id="path8031"
       d="m 1.3e-5,26 0,69 2,0 0,-69 z"
       style="fill:#ff0000;fill-opacity:1;fill-rule:nonzero;stroke:none"
       sodipodi:nodetypes="ccccc" />
    <path
       sodipodi:nodetypes="csssacccccssscccsccccc"
       inkscape:connector-curvature="0"
       id="path8033"
       d="m 12.96037,20.168037 c 0.62972,-0.815576 0.719123,-2.676154 1.281409,-4.358843 0.405305,-1.212926 0.463533,-4.596987 1.208651,-4.882429 0.96834,-0.370951 3.169601,-0.358079 4.223988,-0.416629 2.300059,-0.127699 4.518931,1.098659 6.822539,1.101136 2.990853,0.0036 8.861008,-1.410596 8.861008,-1.410596 l -0.140119,-2.038826 1.505607,0.278059 4.07695,-0.516905 -3.008404,1.386137 c 0,0 1.201864,-0.02108 1.688022,0.276832 0.705048,0.432109 0.959994,1.347377 1.46892,1.999162 0.291967,0.373928 1.082477,0.65438 0.908337,1.095671 -0.469844,1.190611 -3.808977,0.485944 -3.808977,0.485944 l -1.918736,1.803326 c -0.833009,1.778987 -2.26137,3.261839 -2.253596,6.722383 0,0 -6.006891,-0.923008 -8.991183,-0.79663 -1.764007,0.07466 -4.968974,0.618073 -4.968974,0.618073 -1.608718,-0.13719 -3.296502,-0.529063 -4.905219,-0.24954 0.0095,-6.235485 0.866683,-6.128862 0.69876,-9.294821 -0.439183,1.679986 -0.971056,4.516551 -1.026843,5.772464 -0.534756,1.525804 -0.01191,1.899672 -1.72214,2.426032 z"
       style="fill:#ff0000;fill-opacity:1"
       inkscape:export-filename="C:\Users\Stéphane\Desktop\Blogs\OpenFoodFacts\test-178.png"
       inkscape:export-xdpi="90"
       inkscape:export-ydpi="90" />
    <g
       style="fill:#ffcc00"
       transform="matrix(0.01488015,-0.01147672,0.01147672,0.01488015,39.17529,7.567521)"
       id="g8035"
       inkscape:export-filename="C:\Users\Stéphane\Desktop\Blogs\OpenFoodFacts\test-178.png"
       inkscape:export-xdpi="90"
       inkscape:export-ydpi="90">
      <ellipse
         ry="32.857143"
         rx="65.714287"
         cy="762.36218"
         cx="567.14288"
         style="fill:#ffcc00;fill-opacity:1;stroke:none"
         id="path8037"
         transform="matrix(0.58270937,-0.81268061,0.81268061,0.58270937,-465.7507,809.03262)" />
      <path
         style="fill:#ffcc00;fill-opacity:1;stroke:none"
         d="m 494.28571,741.6479 c 0,0 14.40901,-2.31616 20.71429,-5.71428 22.08801,-11.90395 53.57143,-52.85715 53.57143,-52.85715 0,0 -33.14169,43.13867 -40,64.99999 -2.07174,6.60382 -1.42857,20.71429 -1.42857,20.71429 z"
         id="path8039"
         inkscape:connector-curvature="0"
         sodipodi:nodetypes="cscscc" />
    </g>
    <g
       transform="matrix(0.89458574,0,0,0.89458574,-468.13007,-644.42698)"
       id="g8041"
       inkscape:export-filename="C:\Users\Stéphane\Desktop\Blogs\OpenFoodFacts\test-178.png"
       inkscape:export-xdpi="90"
       inkscape:export-ydpi="90">
      <g
         id="g8043"
         transform="translate(-9.5459416,1.1490485)"
         style="fill:#ffcc00">
        <g
           transform="matrix(0.02100622,0,0,0.02100622,586.13922,725.53281)"
           id="g8045"
           style="fill:#ffcc00">
          <ellipse
             ry="32.857143"
             rx="65.714287"
             cy="762.36218"
             cx="567.14288"
             style="fill:#ffcc00;fill-opacity:1;stroke:none"
             id="path8047"
             transform="matrix(0.58270937,-0.81268061,0.81268061,0.58270937,-465.7507,809.03262)" />
          <path
             style="fill:#ffcc00;fill-opacity:1;stroke:none"
             d="m 494.28571,741.6479 c 0,0 14.40901,-2.31616 20.71429,-5.71428 22.08801,-11.90395 53.57143,-52.85715 53.57143,-52.85715 0,0 -33.14169,43.13867 -40,64.99999 -2.07174,6.60382 -1.42857,20.71429 -1.42857,20.71429 z"
             id="path8049"
             inkscape:connector-curvature="0"
             sodipodi:nodetypes="cscscc" />
        </g>
        <g
           transform="matrix(0.02100622,0,0,0.02100622,586.13922,727.5359)"
           id="g8051"
           style="fill:#ffcc00">
          <ellipse
             ry="32.857143"
             rx="65.714287"
             cy="762.36218"
             cx="567.14288"
             style="fill:#ffcc00;fill-opacity:1;stroke:none"
             id="path8053"
             transform="matrix(0.58270937,-0.81268061,0.81268061,0.58270937,-465.7507,809.03262)" />
          <path
             style="fill:#ffcc00;fill-opacity:1;stroke:none"
             d="m 494.28571,741.6479 c 0,0 14.40901,-2.31616 20.71429,-5.71428 22.08801,-11.90395 53.57143,-52.85715 53.57143,-52.85715 0,0 -33.14169,43.13867 -40,64.99999 -2.07174,6.60382 -1.42857,20.71429 -1.42857,20.71429 z"
             id="path8055"
             inkscape:connector-curvature="0"
             sodipodi:nodetypes="cscscc" />
        </g>
        <g
           transform="matrix(0.02100622,0,0,0.02100622,586.13922,723.52972)"
           id="g8057"
           style="fill:#ffcc00">
          <ellipse
             ry="32.857143"
             rx="65.714287"
             cy="762.36218"
             cx="567.14288"
             style="fill:#ffcc00;fill-opacity:1;stroke:none"
             id="path8059"
             transform="matrix(0.58270937,-0.81268061,0.81268061,0.58270937,-465.7507,809.03262)" />
          <path
             style="fill:#ffcc00;fill-opacity:1;stroke:none"
             d="m 494.28571,741.6479 c 0,0 14.40901,-2.31616 20.71429,-5.71428 22.08801,-11.90395 53.57143,-52.85715 53.57143,-52.85715 0,0 -33.14169,43.13867 -40,64.99999 -2.07174,6.60382 -1.42857,20.71429 -1.42857,20.71429 z"
             id="path8061"
             inkscape:connector-curvature="0"
             sodipodi:nodetypes="cscscc" />
        </g>
        <g
           transform="matrix(0.02100622,0,0,0.02100622,586.13922,721.52662)"
           id="g8063"
           style="fill:#ffcc00">
          <ellipse
             ry="32.857143"
             rx="65.714287"
             cy="762.36218"
             cx="567.14288"
             style="fill:#ffcc00;fill-opacity:1;stroke:none"
             id="path8065"
             transform="matrix(0.58270937,-0.81268061,0.81268061,0.58270937,-465.7507,809.03262)" />
          <path
             style="fill:#ffcc00;fill-opacity:1;stroke:none"
             d="m 494.28571,741.6479 c 0,0 14.40901,-2.31616 20.71429,-5.71428 22.08801,-11.90395 53.57143,-52.85715 53.57143,-52.85715 0,0 -33.14169,43.13867 -40,64.99999 -2.07174,6.60382 -1.42857,20.71429 -1.42857,20.71429 z"
             id="path8067"
             inkscape:connector-curvature="0"
             sodipodi:nodetypes="cscscc" />
        </g>
        <g
           transform="matrix(0.02064274,-0.0038908,0.0038908,0.02064274,583.1049,721.64932)"
           id="g8069"
           style="fill:#ffcc00">
          <ellipse
             ry="32.857143"
             rx="65.714287"
             cy="762.36218"
             cx="567.14288"
             style="fill:#ffcc00;fill-opacity:1;stroke:none"
             id="path8071"
             transform="matrix(0.58270937,-0.81268061,0.81268061,0.58270937,-465.7507,809.03262)" />
          <path
             style="fill:#ffcc00;fill-opacity:1;stroke:none"
             d="m 494.28571,741.6479 c 0,0 14.40901,-2.31616 20.71429,-5.71428 22.08801,-11.90395 53.57143,-52.85715 53.57143,-52.85715 0,0 -33.14169,43.13867 -40,64.99999 -2.07174,6.60382 -1.42857,20.71429 -1.42857,20.71429 z"
             id="path8073"
             inkscape:connector-curvature="0"
             sodipodi:nodetypes="cscscc" />
        </g>
      </g>
      <g
         id="g8075"
         style="fill:#ffcc00"
         transform="translate(-10.253048,1.1490485)">
        <g
           transform="matrix(-0.02100622,0,0,0.02100622,604.26937,725.53281)"
           id="g8077"
           style="fill:#ffcc00">
          <ellipse
             ry="32.857143"
             rx="65.714287"
             cy="762.36218"
             cx="567.14288"
             style="fill:#ffcc00;fill-opacity:1;stroke:none"
             id="path8079"
             transform="matrix(0.58270937,-0.81268061,0.81268061,0.58270937,-465.7507,809.03262)" />
          <path
             style="fill:#ffcc00;fill-opacity:1;stroke:none"
             d="m 494.28571,741.6479 c 0,0 14.40901,-2.31616 20.71429,-5.71428 22.08801,-11.90395 53.57143,-52.85715 53.57143,-52.85715 0,0 -33.14169,43.13867 -40,64.99999 -2.07174,6.60382 -1.42857,20.71429 -1.42857,20.71429 z"
             id="path8081"
             inkscape:connector-curvature="0"
             sodipodi:nodetypes="cscscc" />
        </g>
        <g
           transform="matrix(-0.02100622,0,0,0.02100622,604.26938,727.5359)"
           id="g8083"
           style="fill:#ffcc00">
          <ellipse
             ry="32.857143"
             rx="65.714287"
             cy="762.36218"
             cx="567.14288"
             style="fill:#ffcc00;fill-opacity:1;stroke:none"
             id="path8085"
             transform="matrix(0.58270937,-0.81268061,0.81268061,0.58270937,-465.7507,809.03262)" />
          <path
             style="fill:#ffcc00;fill-opacity:1;stroke:none"
             d="m 494.28571,741.6479 c 0,0 14.40901,-2.31616 20.71429,-5.71428 22.08801,-11.90395 53.57143,-52.85715 53.57143,-52.85715 0,0 -33.14169,43.13867 -40,64.99999 -2.07174,6.60382 -1.42857,20.71429 -1.42857,20.71429 z"
             id="path8087"
             inkscape:connector-curvature="0"
             sodipodi:nodetypes="cscscc" />
        </g>
        <g
           transform="matrix(-0.02100622,0,0,0.02100622,604.26938,723.52972)"
           id="g8089"
           style="fill:#ffcc00">
          <ellipse
             ry="32.857143"
             rx="65.714287"
             cy="762.36218"
             cx="567.14288"
             style="fill:#ffcc00;fill-opacity:1;stroke:none"
             id="path8091"
             transform="matrix(0.58270937,-0.81268061,0.81268061,0.58270937,-465.7507,809.03262)" />
          <path
             style="fill:#ffcc00;fill-opacity:1;stroke:none"
             d="m 494.28571,741.6479 c 0,0 14.40901,-2.31616 20.71429,-5.71428 22.08801,-11.90395 53.57143,-52.85715 53.57143,-52.85715 0,0 -33.14169,43.13867 -40,64.99999 -2.07174,6.60382 -1.42857,20.71429 -1.42857,20.71429 z"
             id="path8093"
             inkscape:connector-curvature="0"
             sodipodi:nodetypes="cscscc" />
        </g>
        <g
           transform="matrix(-0.02100622,0,0,0.02100622,604.26937,721.52662)"
           id="g8095"
           style="fill:#ffcc00">
          <ellipse
             ry="32.857143"
             rx="65.714287"
             cy="762.36218"
             cx="567.14288"
             style="fill:#ffcc00;fill-opacity:1;stroke:none"
             id="path8097"
             transform="matrix(0.58270937,-0.81268061,0.81268061,0.58270937,-465.7507,809.03262)" />
          <path
             style="fill:#ffcc00;fill-opacity:1;stroke:none"
             d="m 494.28571,741.6479 c 0,0 14.40901,-2.31616 20.71429,-5.71428 22.08801,-11.90395 53.57143,-52.85715 53.57143,-52.85715 0,0 -33.14169,43.13867 -40,64.99999 -2.07174,6.60382 -1.42857,20.71429 -1.42857,20.71429 z"
             id="path8099"
             inkscape:connector-curvature="0"
             sodipodi:nodetypes="cscscc" />
        </g>
        <g
           transform="matrix(-0.02064274,-0.0038908,-0.0038908,0.02064274,607.30369,721.64932)"
           id="g8101"
           style="fill:#ffcc00">
          <ellipse
             ry="32.857143"
             rx="65.714287"
             cy="762.36218"
             cx="567.14288"
             style="fill:#ffcc00;fill-opacity:1;stroke:none"
             id="path8103"
             transform="matrix(0.58270937,-0.81268061,0.81268061,0.58270937,-465.7507,809.03262)" />
          <path
             style="fill:#ffcc00;fill-opacity:1;stroke:none"
             d="m 494.28571,741.6479 c 0,0 14.40901,-2.31616 20.71429,-5.71428 22.08801,-11.90395 53.57143,-52.85715 53.57143,-52.85715 0,0 -33.14169,43.13867 -40,64.99999 -2.07174,6.60382 -1.42857,20.71429 -1.42857,20.71429 z"
             id="path8105"
             inkscape:connector-curvature="0"
             sodipodi:nodetypes="cscscc" />
        </g>
      </g>
    </g>
    <g
       id="g8107"
       transform="matrix(0.485552,-0.55754244,0.55754244,0.485552,-616.03955,-2.5771103)"
       inkscape:export-filename="C:\Users\Stéphane\Desktop\Blogs\OpenFoodFacts\test-178.png"
       inkscape:export-xdpi="90"
       inkscape:export-ydpi="90">
      <circle
         r="2.5"
         cy="732.36218"
         cx="608"
         style="fill:#ffcc00;fill-opacity:1"
         id="path8109"
         transform="translate(1.5,9.75)" />
      <circle
         r="2.5"
         cy="732.36218"
         cx="608"
         id="path8111"
         style="fill:#ffcc00;fill-opacity:1"
         inkscape:transform-center-x="-3.1501887"
         inkscape:transform-center-y="-1.6050895"
         transform="matrix(0.30901699,-0.95105652,0.95105652,0.30901699,-274.24997,1089.9371)" />
      <circle
         r="2.5"
         cy="732.36218"
         cx="608"
         transform="matrix(-0.809017,-0.58778525,0.58778525,-0.809017,667.85758,1685.9871)"
         inkscape:transform-center-y="-3.4919705"
         inkscape:transform-center-x="0.5530674"
         style="fill:#ffcc00;fill-opacity:1"
         id="path8113" />
      <circle
         r="2.5"
         cy="732.36218"
         cx="608"
         id="path8115"
         style="fill:#ffcc00;fill-opacity:1"
         inkscape:transform-center-x="3.4919258"
         inkscape:transform-center-y="-0.5530731"
         transform="matrix(-0.80901699,0.58778526,-0.58778526,-0.80901699,1525.8621,974.17912)" />
      <circle
         r="2.5"
         cy="732.36218"
         cx="608"
         transform="matrix(0.309017,0.95105651,-0.95105651,0.309017,1114.0304,-61.792435)"
         inkscape:transform-center-y="3.1501051"
         inkscape:transform-center-x="1.6050854"
         style="fill:#ffcc00;fill-opacity:1"
         id="path8117" />
    </g>
    <g
       transform="matrix(-0.6491698,-0.35382606,0.35382606,-0.6491698,218.16484,702.9075)"
       id="g8119"
       inkscape:export-filename="C:\Users\Stéphane\Desktop\Blogs\OpenFoodFacts\test-178.png"
       inkscape:export-xdpi="90"
       inkscape:export-ydpi="90">
      <circle
         r="2.5"
         cy="732.36218"
         cx="608"
         transform="translate(1.5,9.75)"
         id="path8121"
         style="fill:#ffcc00;fill-opacity:1" />
      <circle
         r="2.5"
         cy="732.36218"
         cx="608"
         transform="matrix(0.30901699,-0.95105652,0.95105652,0.30901699,-274.24997,1089.9371)"
         inkscape:transform-center-y="-1.6050895"
         inkscape:transform-center-x="-3.1501887"
         style="fill:#ffcc00;fill-opacity:1"
         id="path8123" />
      <circle
         r="2.5"
         cy="732.36218"
         cx="608"
         id="path8125"
         style="fill:#ffcc00;fill-opacity:1"
         inkscape:transform-center-x="0.5530674"
         inkscape:transform-center-y="-3.4919705"
         transform="matrix(-0.809017,-0.58778525,0.58778525,-0.809017,667.85758,1685.9871)" />
      <circle
         r="2.5"
         cy="732.36218"
         cx="608"
         transform="matrix(-0.80901699,0.58778526,-0.58778526,-0.80901699,1525.8621,974.17912)"
         inkscape:transform-center-y="-0.5530731"
         inkscape:transform-center-x="3.4919258"
         style="fill:#ffcc00;fill-opacity:1"
         id="path8127" />
      <circle
         r="2.5"
         cy="732.36218"
         cx="608"
         id="path8129"
         style="fill:#ffcc00;fill-opacity:1"
         inkscape:transform-center-x="1.6050854"
         inkscape:transform-center-y="3.1501051"
         transform="matrix(0.309017,0.95105651,-0.95105651,0.309017,1114.0304,-61.792435)" />
    </g>
    <g
       id="g8131"
       transform="matrix(0.31450273,-0.66910564,0.66910564,0.31450273,-610.58237,190.80877)"
       inkscape:export-filename="C:\Users\Stéphane\Desktop\Blogs\OpenFoodFacts\test-178.png"
       inkscape:export-xdpi="90"
       inkscape:export-ydpi="90">
      <circle
         r="2.5"
         cy="732.36218"
         cx="608"
         style="fill:#ffcc00;fill-opacity:1"
         id="path8133"
         transform="translate(1.5,9.75)" />
      <circle
         r="2.5"
         cy="732.36218"
         cx="608"
         id="path8135"
         style="fill:#ffcc00;fill-opacity:1"
         inkscape:transform-center-x="-3.1501887"
         inkscape:transform-center-y="-1.6050895"
         transform="matrix(0.30901699,-0.95105652,0.95105652,0.30901699,-274.24997,1089.9371)" />
      <circle
         r="2.5"
         cy="732.36218"
         cx="608"
         transform="matrix(-0.809017,-0.58778525,0.58778525,-0.809017,667.85758,1685.9871)"
         inkscape:transform-center-y="-3.4919705"
         inkscape:transform-center-x="0.5530674"
         style="fill:#ffcc00;fill-opacity:1"
         id="path8137" />
      <circle
         r="2.5"
         cy="732.36218"
         cx="608"
         id="path8139"
         style="fill:#ffcc00;fill-opacity:1"
         inkscape:transform-center-x="3.4919258"
         inkscape:transform-center-y="-0.5530731"
         transform="matrix(-0.80901699,0.58778526,-0.58778526,-0.80901699,1525.8621,974.17912)" />
      <circle
         r="2.5"
         cy="732.36218"
         cx="608"
         transform="matrix(0.309017,0.95105651,-0.95105651,0.309017,1114.0304,-61.792435)"
         inkscape:transform-center-y="3.1501051"
         inkscape:transform-center-x="1.6050854"
         style="fill:#ffcc00;fill-opacity:1"
         id="path8141" />
    </g>
    <path
       style="fill:#00d400;fill-opacity:1;fill-rule:nonzero;stroke:none"
       d="M 122.44657,6.33728 C 131.63587,7.287033 135.07702,14.767884 135,28 l 2.96392,-1.398609 c 0,-1.461895 -0.0255,-1.249361 -0.0255,-2.711244 0,-10.866897 -6.40398,-17.274677 -10.91182,-18.343579 z"
       id="path8143"
       inkscape:connector-curvature="0"
       inkscape:export-filename="C:\Users\Stéphane\Desktop\Blogs\OpenFoodFacts\test-178.png"
       inkscape:export-xdpi="90"
       inkscape:export-ydpi="90"
       sodipodi:nodetypes="cccscc" />
    <g
       transform="matrix(0.89458574,0,0,0.89458574,-468.09845,-644.42698)"
       id="g8145"
       inkscape:export-filename="C:\Users\Stéphane\Desktop\Blogs\OpenFoodFacts\test-178.png"
       inkscape:export-xdpi="90"
       inkscape:export-ydpi="90">
      <g
         transform="translate(-0.6875,-0.0625)"
         id="g8147">
        <path
           sodipodi:nodetypes="ccc"
           inkscape:connector-curvature="0"
           id="path8149"
           d="m 646.11882,744.69741 c 9.98853,-2.85699 22.36057,-3.40732 20.1894,-18.03175 -19.13147,-9.00363 -12.68327,7.89971 -20.1894,18.03175 z"
           style="fill:#00d400;stroke:none" />
        <path
           sodipodi:nodetypes="ccc"
           inkscape:connector-curvature="0"
           id="path8151"
           d="m 667.50879,725.1485 c -4.96993,6.86401 -15.79612,16.96445 -22.45063,19.97578 6.6817,-2.48508 19.65127,-12.66443 22.45063,-19.97578 z"
           style="fill:#ffffff;fill-opacity:1;stroke:none" />
      </g>
    </g>
    <g
       id="g8153"
       transform="matrix(0.73729109,0.50664139,0.50664139,-0.73729109,-728.9281,199.42539)"
       inkscape:export-filename="C:\Users\Stéphane\Desktop\Blogs\OpenFoodFacts\test-178.png"
       inkscape:export-xdpi="90"
       inkscape:export-ydpi="90">
      <g
         transform="matrix(-0.85351374,-0.52107033,0.52107033,-0.85351374,864.58887,1695.2445)"
         id="g8155">
        <g
           transform="translate(-0.6875,-0.0625)"
           id="g8157">
          <path
             sodipodi:nodetypes="ccc"
             inkscape:connector-curvature="0"
             id="path8159"
             d="m 646.11882,744.69741 c 9.98853,-2.85699 22.36057,-3.40732 20.1894,-18.03175 -19.99874,-7.24796 -12.68327,7.89971 -20.1894,18.03175 z"
             style="fill:#00d400;stroke:none" />
          <path
             sodipodi:nodetypes="ccc"
             inkscape:connector-curvature="0"
             id="path8161"
             d="m 667.50879,725.1485 c -4.96993,6.86401 -15.79612,16.96445 -22.45063,19.97578 6.6817,-2.48508 19.65127,-12.66443 22.45063,-19.97578 z"
             style="fill:#ffffff;fill-opacity:1;stroke:none" />
        </g>
      </g>
    </g>
    <path
       sodipodi:nodetypes="cccscc"
       inkscape:export-ydpi="90"
       inkscape:export-xdpi="90"
       inkscape:export-filename="C:\Users\Stéphane\Desktop\Blogs\OpenFoodFacts\test-178.png"
       inkscape:connector-curvature="0"
       id="path8163"
       d="M 137.87818,4.60402 C 135.88514,6.168809 135.07702,14.767884 135,28 l 2.96392,-1.398609 c 0,-1.461895 0.0361,1.860492 0.0361,0.398609 0,-10.866897 0.85886,-19.322201 1.21536,-21.117966 z"
       style="fill:#00d400;fill-opacity:1;fill-rule:nonzero;stroke:none" />
    <circle
       r="0.94885141"
       cy="35.27636"
       cx="159.09236"
       inkscape:export-ydpi="90"
       inkscape:export-xdpi="90"
       inkscape:export-filename="C:\Users\Stéphane\Desktop\Blogs\OpenFoodFacts\test-178.png"
       style="fill:#00ccff;fill-opacity:1;stroke:none"
       id="path8165" />
    <path
       sodipodi:nodetypes="cccccc"
       inkscape:export-ydpi="90"
       inkscape:export-xdpi="90"
       inkscape:export-filename="C:\Users\Stéphane\Desktop\Blogs\OpenFoodFacts\test-178.png"
       id="path8169"
       d="m 170.00004,118 0,5 c 2.66569,0 5.33424,0 7.99992,0 l 0,-5 c -2.66568,0 -5.33423,0 -7.99983,0 z"
       style="fill:#0066ff;fill-opacity:1;fill-rule:nonzero;stroke:none"
       inkscape:connector-curvature="0" />
    <path
       sodipodi:nodetypes="ccccc"
       inkscape:export-ydpi="90"
       inkscape:export-xdpi="90"
       inkscape:export-filename="C:\Users\Stéphane\Desktop\Blogs\OpenFoodFacts\test-178.png"
       id="path8171"
       d="m 154.00001,118 0,5 c 4.33407,0 8.6659,0 12.99997,0 l 0,-5 c -4.33407,0 -8.6659,0 -12.99997,0 z"
       style="fill:#00ccff;fill-opacity:1;fill-rule:nonzero;stroke:none"
       inkscape:connector-curvature="0" />
    <path
       sodipodi:nodetypes="ccccc"
       inkscape:export-ydpi="90"
       inkscape:export-xdpi="90"
       inkscape:export-filename="C:\Users\Stéphane\Desktop\Blogs\OpenFoodFacts\test-178.png"
       id="path8173"
       d="m 95,118 0,5 c 18.6596,0 37.34041,0 56.00004,0 l 0,-5 C 132.34041,118 113.6596,118 95,118 Z"
       style="fill:#00d400;fill-opacity:1;fill-rule:nonzero;stroke:none"
       inkscape:connector-curvature="0" />
    <path
       sodipodi:nodetypes="ccccc"
       inkscape:export-ydpi="90"
       inkscape:export-xdpi="90"
       inkscape:export-filename="C:\Users\Stéphane\Desktop\Blogs\OpenFoodFacts\test-178.png"
       id="path8175"
       d="m 36.999996,118 0,5 C 55.333383,123 73.666619,123 92,123 l 0,-5 c -18.333381,0 -36.666617,0 -55.000004,0 z"
       style="fill:#ffcc00;fill-opacity:1;fill-rule:nonzero;stroke:none"
       inkscape:connector-curvature="0" />
    <path
       sodipodi:nodetypes="ccccc"
       inkscape:export-ydpi="90"
       inkscape:export-xdpi="90"
       inkscape:export-filename="C:\Users\Stéphane\Desktop\Blogs\OpenFoodFacts\test-178.png"
       id="path8177"
       d="m 0,118 0,5 c 11.333706,0 22.666301,0 33.999997,0 l 0,-5 C 22.666301,118 11.333706,118 0,118 Z"
       style="fill:#ff0000;fill-opacity:1;fill-rule:nonzero;stroke:none"
       inkscape:connector-curvature="0" />
    <g
       style="font-style:normal;font-variant:normal;font-weight:normal;font-stretch:normal;font-size:32.81705093px;line-height:125%;font-family:'Arial Narrow';-inkscape-font-specification:'Arial Narrow';letter-spacing:0px;word-spacing:0px;fill:#333333;fill-opacity:1;stroke:none"
       id="text8179"
       inkscape:export-filename="C:\Users\Stéphane\Desktop\Blogs\OpenFoodFacts\test-178.png"
       inkscape:export-xdpi="90"
       inkscape:export-ydpi="90"
       transform="translate(0,2.637817)">
      <path
         inkscape:connector-curvature="0"
         d="m 0.29533203,104.18406 c -9.5e-7,-2.79573 0.61506181,-4.944723 1.84519007,-6.446982 1.2301228,-1.50223 2.7621882,-2.253352 4.5962009,-2.253369 1.1853862,1.7e-5 2.2664056,0.335506 3.2430614,1.006468 0.9766346,0.670993 1.7501226,1.645774 2.3204666,2.924346 0.570318,1.278597 0.855483,2.801347 0.855497,4.568247 -1.4e-5,2.43043 -0.551707,4.40982 -1.65508,5.93815 -1.215227,1.68491 -2.8069346,2.52736 -4.775128,2.52736 -1.9831188,0 -3.5785543,-0.86482 -4.7863113,-2.59445 -1.09593262,-1.56562 -1.64389762,-3.45554 -1.64389667,-5.66977 z m 1.83400717,0.0335 c -2.8e-6,2.0204 0.4454517,3.58787 1.3363649,4.70244 0.890905,1.11457 1.9737882,1.67185 3.2486529,1.67185 1.3046712,0 2.3987374,-0.56287 3.2822018,-1.68863 0.8834432,-1.12574 1.3251702,-2.78082 1.3251822,-4.96524 -1.2e-5,-1.40904 -0.227399,-2.66899 -0.682161,-3.77984 C 10.289169,99.308298 9.761706,98.628001 9.0571893,98.117299 8.3526532,97.606624 7.5828928,97.35128 6.7479059,97.351265 5.4059434,97.35128 4.3006943,97.910428 3.4321552,99.028711 2.563608,100.14702 2.1293364,101.87665 2.1293392,104.21761 Z"
         style="font-size:22.90272331px;fill:#333333"
         id="path3685" />
      <path
         d="m 15,112.36218 0,-16.999997 4.674837,0 c 1.224167,1.6e-5 2.126995,0.107131 2.708487,0.321346 0.795704,0.290757 1.430744,0.830159 1.905122,1.618206 0.474357,0.788077 0.711542,1.755941 0.711554,2.903595 -1.2e-5,1.51492 -0.386392,2.75057 -1.159142,3.70695 -0.772771,0.9564 -2.107912,1.42433 -4.005348,1.43458 L 17,105.36218 l 0,7 z m 2,-9 2.86994,-7.7e-4 c 1.124703,-3e-4 1.947195,-0.25439 2.467477,-0.7632 0.520265,-0.50879 0.780403,-1.27581 0.780412,-2.30107 -9e-6,-0.665632 -0.128166,-1.235638 -0.384467,-1.710022 -0.256321,-0.474353 -0.56619,-0.799524 -0.929608,-0.975514 -0.363435,-0.17596 -1.019516,-0.263948 -1.968244,-0.263963 L 17,97.362183 Z"
         style="font-size:22.90272331px;fill:#333333"
         id="path3687"
         inkscape:connector-curvature="0"
         sodipodi:nodetypes="ccccccssccccsscccccc" />
      <path
         d="m 27,112.36218 0,-16.999997 10,0 0,2 -8,0 0,4.999997 7,0 0,2 -7,0 0,6 8,0 0,2 z"
         style="font-size:22.90272331px;fill:#333333"
         id="path3689"
         inkscape:connector-curvature="0"
         sodipodi:nodetypes="ccccccccccccc" />
      <path
         d="m 39,112.36218 0,-16.999997 2,0 7,12.999997 0,-12.999997 2,0 0,16.999997 -2,0 -7,-12.999997 0,12.999997 z"
         style="font-size:22.90272331px;fill:#333333"
         id="path3691"
         inkscape:connector-curvature="0"
         sodipodi:nodetypes="ccccccccccc" />
      <path
         d="m 58,112.36218 0,-16.999997 9,0 0,2 -7,0 0,4.999997 6,0 0,2 -6,0 0,8 z"
         style="font-size:22.90272331px;fill:#333333"
         id="path3693"
         inkscape:connector-curvature="0"
         sodipodi:nodetypes="ccccccccccc" />
      <path
         d="m 68.255995,104.18406 c -10e-7,-2.79573 0.615062,-4.944723 1.84519,-6.446982 1.230123,-1.50223 2.762188,-2.253352 4.596201,-2.253369 1.185386,1.7e-5 2.266405,0.335506 3.243061,1.006468 0.976635,0.670993 1.750123,1.645774 2.320467,2.924346 0.570318,1.278597 0.855483,2.801347 0.855497,4.568247 -1.4e-5,2.43043 -0.551707,4.40982 -1.65508,5.93815 -1.215227,1.68491 -2.806935,2.52736 -4.775128,2.52736 -1.983119,0 -3.578554,-0.86482 -4.786311,-2.59445 -1.095933,-1.56562 -1.643898,-3.45554 -1.643897,-5.66977 z m 1.834007,0.0335 c -3e-6,2.0204 0.445452,3.58787 1.336365,4.70244 0.890905,1.11457 1.973788,1.67185 3.248653,1.67185 1.304671,0 2.398737,-0.56287 3.282202,-1.68863 0.883443,-1.12574 1.32517,-2.78082 1.325182,-4.96524 -1.2e-5,-1.40904 -0.227399,-2.66899 -0.682162,-3.77984 -0.35041,-0.849892 -0.877873,-1.530189 -1.58239,-2.040891 -0.704536,-0.510675 -1.474296,-0.766019 -2.309283,-0.766034 -1.341963,1.5e-5 -2.447212,0.559163 -3.315751,1.677446 -0.868547,1.118309 -1.302819,2.847939 -1.302816,5.188899 z"
         style="font-size:22.90272331px;fill:#333333"
         id="path3695"
         inkscape:connector-curvature="0"
         sodipodi:nodetypes="sscccccscsssssccccss" />
      <path
         d="m 82.883322,104.18406 c -1e-6,-2.79573 0.615062,-4.944723 1.84519,-6.446982 1.230123,-1.50223 2.762188,-2.253352 4.596201,-2.253369 1.185386,1.7e-5 2.266405,0.335506 3.243061,1.006468 0.976635,0.670993 1.750123,1.645774 2.320467,2.924346 0.570317,1.278597 0.855483,2.801347 0.855497,4.568247 -1.4e-5,2.43043 -0.551707,4.40982 -1.65508,5.93815 -1.215227,1.68491 -2.806935,2.52736 -4.775128,2.52736 -1.983119,0 -3.578555,-0.86482 -4.786312,-2.59445 -1.095932,-1.56562 -1.643897,-3.45554 -1.643896,-5.66977 z m 1.834007,0.0335 c -3e-6,2.0204 0.445452,3.58787 1.336365,4.70244 0.890905,1.11457 1.973788,1.67185 3.248653,1.67185 1.304671,0 2.398737,-0.56287 3.282202,-1.68863 0.883443,-1.12574 1.32517,-2.78082 1.325182,-4.96524 -1.2e-5,-1.40904 -0.227399,-2.66899 -0.682162,-3.77984 -0.35041,-0.849892 -0.877873,-1.530189 -1.58239,-2.040891 -0.704536,-0.510675 -1.474296,-0.766019 -2.309283,-0.766034 -1.341963,1.5e-5 -2.447212,0.559163 -3.315751,1.677446 -0.868547,1.118309 -1.302819,2.847939 -1.302816,5.188899 z"
         style="font-size:22.90272331px;fill:#333333"
         id="path3697"
         inkscape:connector-curvature="0"
         sodipodi:nodetypes="sscccccscsssssccccss" />
      <path
         d="m 98,112.36218 0,-16.999997 5,0 c 1.21266,1.6e-5 2.00501,0.174276 2.63497,0.382679 0.82682,0.270189 1.54339,0.719576 2.14974,1.437449 0.60633,0.717903 1.0788,1.622982 1.41741,2.715233 0.33859,1.092286 0.50789,2.387186 0.5079,3.884706 -1e-5,1.9221 -0.28743,3.55278 -0.86225,4.89207 -0.57485,1.33928 -1.31309,2.28875 -2.21471,2.8484 -0.90163,0.55964 -2.17628,0.83946 -3.63306,0.83946 z m 2,-2 3,0 c 1.22054,0 2.01682,-0.19791 2.64678,-0.58773 0.62996,-0.38982 1.11424,-1.01701 1.45285,-1.88157 0.44883,-1.15015 0.67326,-2.52803 0.67327,-4.13365 -1e-5,-1.72137 -0.23822,-3.07416 -0.71461,-4.058372 -0.47642,-0.984193 -1.08866,-1.642257 -1.83673,-1.974198 C 104.71759,97.502677 104.09454,97.362198 103,97.362183 l -3,0 z"
         style="font-size:22.90272331px;fill:#333333"
         id="path3699"
         inkscape:connector-curvature="0"
         sodipodi:nodetypes="ccccccccssccssccccccc" />
      <path
         d="m 118,112.36218 0.0757,-16.999997 9,0 0,2 -7,3.8e-5 0,4.999999 6,0 0,2 -6,0 0,7.99996 z"
         style="font-size:22.90272331px;fill:#333333"
         id="path3701"
         inkscape:connector-curvature="0"
         sodipodi:nodetypes="ccccccccccc" />
      <path
         d="m 128.07572,112.36218 5,-16.999997 2,0 5,16.999997 -2,0 -4,-14.999997 -4.04025,14.999997 z"
         style="font-size:22.90272331px;fill:#333333"
         id="path3703"
         inkscape:connector-curvature="0"
         sodipodi:nodetypes="cccccccc" />
      <path
         d="m 151.36137,106.42065 1.78927,0.54797 c -0.39514,1.84147 -1.08662,3.21511 -2.07444,4.12092 -0.98784,0.90583 -2.19001,1.35874 -3.60651,1.35874 -1.24504,0 -2.30929,-0.30381 -3.19273,-0.91142 -0.88346,-0.6076 -1.60663,-1.58238 -2.1695,-2.92434 -0.56288,-1.34195 -0.84432,-2.92621 -0.84432,-4.75277 0,-1.80417 0.28144,-3.33065 0.84432,-4.579422 0.56287,-1.248751 1.32518,-2.191847 2.28692,-2.829292 0.96173,-0.637413 2.03529,-0.956127 3.22069,-0.956144 1.29722,1.7e-5 2.41179,0.404467 3.34371,1.213353 0.9319,0.808916 1.58424,1.996173 1.95702,3.561775 l -1.74454,0.50323 c -0.59644,-2.281308 -1.79302,-3.42197 -3.58974,-3.421985 -0.89464,1.5e-5 -1.66999,0.229266 -2.32605,0.687753 -0.65608,0.458516 -1.17981,1.172361 -1.57121,2.141542 -0.39141,0.9692 -0.58711,2.1956 -0.58711,3.67919 0,2.24406 0.39513,3.92709 1.1854,5.04912 0.79026,1.12202 1.84145,1.68303 3.15359,1.68303 0.96919,0 1.80605,-0.3448 2.51058,-1.03442 0.70452,-0.68962 1.17607,-1.73522 1.41465,-3.13683 z"
         style="font-size:22.90272331px;fill:#333333"
         id="path3705"
         inkscape:connector-curvature="0"
         sodipodi:nodetypes="ccsscssscccccccsssssc" />
      <path
         d="m 159,112.36218 0,-14.999997 -5,0.0061 0,-2.006138 12,0 0,2 -5,0 0,14.999995 z"
         style="font-size:22.90272331px;fill:#333333"
         id="path3707"
         inkscape:connector-curvature="0"
         sodipodi:nodetypes="ccccccccc" />
      <path
         inkscape:connector-curvature="0"
         d="m 167.26826,106.90152 1.67745,-0.17893 c 0.0895,0.9021 0.29262,1.60476 0.60947,2.10799 0.31685,0.50324 0.76976,0.90769 1.35873,1.21336 0.58897,0.30567 1.25249,0.4585 1.99057,0.4585 1.05865,0 1.88059,-0.25907 2.46585,-0.77722 0.58523,-0.51814 0.87785,-1.19098 0.87786,-2.01852 -1e-5,-0.48459 -0.10625,-0.90768 -0.31872,-1.26927 -0.21248,-0.36158 -0.53306,-0.65793 -0.96173,-0.88905 -0.42869,-0.23111 -1.35501,-0.55541 -2.77897,-0.97292 -1.26741,-0.37275 -2.1695,-0.74925 -2.70628,-1.12948 -0.53678,-0.38021 -0.95428,-0.86294 -1.25249,-1.44819 -0.29822,-0.58523 -0.44732,-1.24689 -0.44732,-1.98498 0,-1.32703 0.42868,-2.411777 1.28604,-3.254242 0.85736,-0.842434 2.01293,-1.263659 3.46672,-1.263676 0.99901,1.7e-5 1.87314,0.197583 2.62241,0.592698 0.74925,0.395147 1.33076,0.96175 1.74454,1.699811 0.41376,0.73809 0.63556,1.606633 0.66539,2.605629 l -1.711,0.15656 c -0.0895,-1.066092 -0.40818,-1.856355 -0.95614,-2.370785 -0.54797,-0.514402 -1.31773,-0.77161 -2.30928,-0.771625 -1.00648,1.5e-5 -1.77437,0.225538 -2.30369,0.67657 -0.52934,0.45106 -0.794,1.034438 -0.794,1.750135 0,0.663535 0.19384,1.177955 0.58152,1.543245 0.38767,0.36533 1.25994,0.73436 2.61681,1.10712 1.32704,0.36532 2.25896,0.68217 2.79575,0.95055 0.82007,0.41751 1.43886,0.96734 1.85637,1.64949 0.41749,0.68217 0.62623,1.49666 0.62625,2.44348 -2e-5,0.93937 -0.21995,1.79487 -0.6598,2.56649 -0.43987,0.77163 -1.03816,1.35873 -1.79487,1.76132 -0.75672,0.40258 -1.66813,0.60388 -2.73423,0.60388 -1.66254,0 -2.98772,-0.49951 -3.97555,-1.49852 -0.98783,-0.99901 -1.50038,-2.35215 -1.53766,-4.05942 z"
         style="font-size:22.90272331px;fill:#333333"
         id="path3709" />
      <path
         sodipodi:nodetypes="ccccc"
         inkscape:connector-curvature="0"
         id="path3713"
         style="font-size:22.90272331px;fill:#333333"
         d="m 137.07572,105.36218 0,2 -6,0 0,-2 z" />
    </g>
    <rect
       id="rect3719"
       width="5"
       height="5"
       x="110"
       y="0"
       style="fill:none"
       inkscape:export-filename="C:\Users\Stéphane\Desktop\Blogs\OpenFoodFacts\test-178.png"
       inkscape:export-xdpi="90"
       inkscape:export-ydpi="90" />
    <rect
       inkscape:export-ydpi="90"
       inkscape:export-xdpi="90"
       inkscape:export-filename="C:\Users\Stéphane\Desktop\Blogs\OpenFoodFacts\test-178.png"
       style="fill:none"
       y="0"
       x="110"
       height="5"
       width="5"
       id="rect3723" />
    <rect
       style="fill:none"
       id="rect3725"
       width="1"
       height="1"
       x="1"
       y="140"
       inkscape:export-filename="C:\Users\Stéphane\Desktop\Blogs\OpenFoodFacts\test-178.png"
       inkscape:export-xdpi="90"
       inkscape:export-ydpi="90" />
    <g
       aria-label="databaza e hapur e produkteve ushqimore"
       style="font-style:normal;font-weight:normal;font-size:8.88087273px;line-height:120.00000477%;font-family:sans-serif;letter-spacing:0px;word-spacing:0px;fill:#000000;fill-opacity:1;stroke:none;stroke-width:0.22202183px;stroke-linecap:butt;stroke-linejoin:miter;stroke-opacity:1"
       id="text981">
      <path
         d="m 4.4876744,134.90822 h -0.039027 q -0.4986818,0.72418 -1.4917091,0.72418 -0.9323182,0 -1.4526818,-0.63745 -0.51602728,-0.63744 -0.51602728,-1.8126 0,-1.17515 0.52036368,-1.82561 0.5203636,-0.65045 1.4483454,-0.65045 0.9670091,0 1.4830364,0.70249 h 0.056373 l -0.030355,-0.34257 -0.017346,-0.3339 v -1.93402 h 0.7198364 v 6.74738 H 4.5830744 Z m -1.4396728,0.12142 q 0.7371819,0 1.0667455,-0.39894 0.3339,-0.40328 0.3339,-1.29658 v -0.15177 q 0,-1.01037 -0.3382364,-1.43967 -0.3339,-0.43364 -1.0710818,-0.43364 -0.6331091,0 -0.9713454,0.49435 -0.3339,0.49001 -0.3339,1.38763 0,0.91064 0.3339,1.37463 0.3339,0.46399 0.9800181,0.46399 z"
         style="font-style:normal;font-variant:normal;font-weight:normal;font-stretch:normal;font-family:'Open Sans';-inkscape-font-specification:'Open Sans';stroke-width:0.22202183px"
         id="path983" />
      <path
         d="m 9.6219288,135.54567 -0.1431,-0.67647 h -0.034691 q -0.3555818,0.44664 -0.7111636,0.60709 -0.3512455,0.15611 -0.8802818,0.15611 -0.7068273,0 -1.1101091,-0.36426 -0.3989455,-0.36425 -0.3989455,-1.03639 0,-1.43967 2.3026091,-1.50905 l 0.8065637,-0.026 v -0.29487 q 0,-0.55939 -0.2428364,-0.82391 -0.2385,-0.26886 -0.7675364,-0.26886 -0.5940818,0 -1.3442727,0.36426 l -0.2211545,-0.55072 q 0.3512454,-0.1908 0.7675363,-0.29921 0.4206273,-0.10841 0.8412546,-0.10841 0.8499272,0 1.2575454,0.37726 0.411955,0.37727 0.411955,1.20985 v 3.2436 z m -1.6261363,-0.50735 q 0.6721363,0 1.0537363,-0.3686 0.3859364,-0.36859 0.3859364,-1.03205 v -0.4293 l -0.7198364,0.0303 q -0.8586,0.0304 -1.2402,0.26886 -0.3772636,0.23416 -0.3772636,0.73284 0,0.39028 0.2341636,0.59409 0.2385,0.20381 0.6634637,0.20381 z"
         style="font-style:normal;font-variant:normal;font-weight:normal;font-stretch:normal;font-family:'Open Sans';-inkscape-font-specification:'Open Sans';stroke-width:0.22202183px"
         id="path985" />
      <path
         d="m 13.177747,135.03832 q 0.1908,0 0.368591,-0.026 0.177791,-0.0304 0.281863,-0.0607 v 0.55072 q -0.117082,0.0564 -0.346909,0.0911 -0.225491,0.039 -0.407618,0.039 -1.378964,0 -1.378964,-1.45268 v -2.82731 h -0.680809 v -0.34691 l 0.680809,-0.29921 0.303546,-1.01471 h 0.416291 v 1.10144 h 1.378963 v 0.55939 h -1.378963 v 2.79695 q 0,0.4293 0.203809,0.65913 0.203809,0.22983 0.559391,0.22983 z"
         style="font-style:normal;font-variant:normal;font-weight:normal;font-stretch:normal;font-family:'Open Sans';-inkscape-font-specification:'Open Sans';stroke-width:0.22202183px"
         id="path987" />
      <path
         d="m 17.704911,135.54567 -0.1431,-0.67647 h -0.03469 q -0.355581,0.44664 -0.711163,0.60709 -0.351246,0.15611 -0.880282,0.15611 -0.706827,0 -1.110109,-0.36426 -0.398946,-0.36425 -0.398946,-1.03639 0,-1.43967 2.30261,-1.50905 l 0.806563,-0.026 v -0.29487 q 0,-0.55939 -0.242836,-0.82391 -0.2385,-0.26886 -0.767537,-0.26886 -0.594081,0 -1.344272,0.36426 l -0.221155,-0.55072 q 0.351246,-0.1908 0.767537,-0.29921 0.420627,-0.10841 0.841254,-0.10841 0.849927,0 1.257546,0.37726 0.411954,0.37727 0.411954,1.20985 v 3.2436 z m -1.626136,-0.50735 q 0.672136,0 1.053736,-0.3686 0.385937,-0.36859 0.385937,-1.03205 v -0.4293 l -0.719837,0.0303 q -0.8586,0.0304 -1.2402,0.26886 -0.377263,0.23416 -0.377263,0.73284 0,0.39028 0.234163,0.59409 0.2385,0.20381 0.663464,0.20381 z"
         style="font-style:normal;font-variant:normal;font-weight:normal;font-stretch:normal;font-family:'Open Sans';-inkscape-font-specification:'Open Sans';stroke-width:0.22202183px"
         id="path989" />
      <path
         d="m 21.937202,130.71496 q 0.936655,0 1.452682,0.64178 0.520364,0.63745 0.520364,1.80827 0,1.17081 -0.5247,1.82127 -0.520364,0.64612 -1.448346,0.64612 -0.46399,0 -0.849927,-0.16912 -0.3816,-0.17346 -0.641782,-0.52904 h -0.05204 l -0.151773,0.61143 h -0.516027 v -6.74738 h 0.719836 v 1.63914 q 0,0.55072 -0.03469,0.98869 h 0.03469 q 0.503019,-0.71116 1.491709,-0.71116 z m -0.104072,0.60276 q -0.737182,0 -1.062409,0.42496 -0.325228,0.42063 -0.325228,1.42233 0,1.0017 0.3339,1.43533 0.3339,0.4293 1.071082,0.4293 0.663464,0 0.988691,-0.48133 0.325227,-0.48568 0.325227,-1.39198 0,-0.92798 -0.325227,-1.3833 -0.325227,-0.45531 -1.006036,-0.45531 z"
         style="font-style:normal;font-variant:normal;font-weight:normal;font-stretch:normal;font-family:'Open Sans';-inkscape-font-specification:'Open Sans';stroke-width:0.22202183px"
         id="path991" />
      <path
         d="m 28.094838,135.54567 -0.1431,-0.67647 h -0.03469 q -0.355581,0.44664 -0.711163,0.60709 -0.351246,0.15611 -0.880282,0.15611 -0.706827,0 -1.110109,-0.36426 -0.398946,-0.36425 -0.398946,-1.03639 0,-1.43967 2.302609,-1.50905 l 0.806564,-0.026 v -0.29487 q 0,-0.55939 -0.242836,-0.82391 -0.2385,-0.26886 -0.767537,-0.26886 -0.594081,0 -1.344272,0.36426 l -0.221155,-0.55072 q 0.351246,-0.1908 0.767536,-0.29921 0.420628,-0.10841 0.841255,-0.10841 0.849927,0 1.257545,0.37726 0.411955,0.37727 0.411955,1.20985 v 3.2436 z m -1.626136,-0.50735 q 0.672136,0 1.053736,-0.3686 0.385937,-0.36859 0.385937,-1.03205 v -0.4293 l -0.719837,0.0303 q -0.8586,0.0304 -1.2402,0.26886 -0.377263,0.23416 -0.377263,0.73284 0,0.39028 0.234163,0.59409 0.2385,0.20381 0.663464,0.20381 z"
         style="font-style:normal;font-variant:normal;font-weight:normal;font-stretch:normal;font-family:'Open Sans';-inkscape-font-specification:'Open Sans';stroke-width:0.22202183px"
         id="path993" />
      <path
         d="m 33.155375,135.54567 h -3.447409 v -0.49001 l 2.593145,-3.70325 h -2.4327 v -0.55939 h 3.221918 v 0.55939 l -2.558454,3.63387 h 2.6235 z"
         style="font-style:normal;font-variant:normal;font-weight:normal;font-stretch:normal;font-family:'Open Sans';-inkscape-font-specification:'Open Sans';stroke-width:0.22202183px"
         id="path995" />
      <path
         d="m 37.201202,135.54567 -0.1431,-0.67647 h -0.03469 q -0.355582,0.44664 -0.711164,0.60709 -0.351245,0.15611 -0.880282,0.15611 -0.706827,0 -1.110109,-0.36426 -0.398945,-0.36425 -0.398945,-1.03639 0,-1.43967 2.302609,-1.50905 l 0.806563,-0.026 v -0.29487 q 0,-0.55939 -0.242836,-0.82391 -0.2385,-0.26886 -0.767536,-0.26886 -0.594082,0 -1.344273,0.36426 l -0.221155,-0.55072 q 0.351246,-0.1908 0.767537,-0.29921 0.420627,-0.10841 0.841254,-0.10841 0.849928,0 1.257546,0.37726 0.411954,0.37727 0.411954,1.20985 v 3.2436 z m -1.626137,-0.50735 q 0.672137,0 1.053737,-0.3686 0.385936,-0.36859 0.385936,-1.03205 v -0.4293 l -0.719836,0.0303 q -0.8586,0.0304 -1.2402,0.26886 -0.377264,0.23416 -0.377264,0.73284 0,0.39028 0.234164,0.59409 0.2385,0.20381 0.663463,0.20381 z"
         style="font-style:normal;font-variant:normal;font-weight:normal;font-stretch:normal;font-family:'Open Sans';-inkscape-font-specification:'Open Sans';stroke-width:0.22202183px"
         id="path997" />
      <path
         d="m 43.536629,135.6324 q -1.053736,0 -1.665163,-0.64178 -0.607091,-0.64179 -0.607091,-1.78225 0,-1.14914 0.563727,-1.82561 0.568064,-0.67647 1.522064,-0.67647 0.893291,0 1.413654,0.58974 0.520364,0.58541 0.520364,1.54809 v 0.45531 h -3.273955 q 0.02168,0.83692 0.420628,1.27056 0.403281,0.43363 1.131791,0.43363 0.767536,0 1.517727,-0.32089 v 0.64179 q -0.3816,0.16478 -0.724173,0.23416 -0.338236,0.0737 -0.819573,0.0737 z m -0.195136,-4.32336 q -0.5724,0 -0.914973,0.37293 -0.338236,0.37293 -0.398945,1.03205 h 2.484736 q 0,-0.6808 -0.303545,-1.04072 -0.303546,-0.36426 -0.867273,-0.36426 z"
         style="font-style:normal;font-variant:normal;font-weight:normal;font-stretch:normal;font-family:'Open Sans';-inkscape-font-specification:'Open Sans';stroke-width:0.22202183px"
         id="path999" />
      <path
         d="m 52.066257,135.54567 v -3.07448 q 0,-0.58107 -0.264518,-0.86727 -0.264518,-0.2862 -0.828245,-0.2862 -0.750191,0 -1.0971,0.40761 -0.342573,0.40762 -0.342573,1.3356 v 2.48474 h -0.719837 v -6.74738 h 0.719837 v 2.04243 q 0,0.36859 -0.03469,0.61142 h 0.04336 q 0.212481,-0.34257 0.602754,-0.53771 0.394609,-0.19947 0.897627,-0.19947 0.871609,0 1.305246,0.41629 0.437973,0.41196 0.437973,1.31392 v 3.1005 z"
         style="font-style:normal;font-variant:normal;font-weight:normal;font-stretch:normal;font-family:'Open Sans';-inkscape-font-specification:'Open Sans';stroke-width:0.22202183px"
         id="path1001" />
      <path
         d="m 57.183166,135.54567 -0.1431,-0.67647 h -0.03469 q -0.355582,0.44664 -0.711164,0.60709 -0.351245,0.15611 -0.880282,0.15611 -0.706827,0 -1.110109,-0.36426 -0.398945,-0.36425 -0.398945,-1.03639 0,-1.43967 2.302609,-1.50905 l 0.806564,-0.026 v -0.29487 q 0,-0.55939 -0.242837,-0.82391 -0.2385,-0.26886 -0.767536,-0.26886 -0.594082,0 -1.344273,0.36426 l -0.221154,-0.55072 q 0.351245,-0.1908 0.767536,-0.29921 0.420627,-0.10841 0.841254,-0.10841 0.849928,0 1.257546,0.37726 0.411954,0.37727 0.411954,1.20985 v 3.2436 z m -1.626137,-0.50735 q 0.672137,0 1.053737,-0.3686 0.385936,-0.36859 0.385936,-1.03205 v -0.4293 l -0.719836,0.0303 q -0.8586,0.0304 -1.2402,0.26886 -0.377264,0.23416 -0.377264,0.73284 0,0.39028 0.234164,0.59409 0.2385,0.20381 0.663463,0.20381 z"
         style="font-style:normal;font-variant:normal;font-weight:normal;font-stretch:normal;font-family:'Open Sans';-inkscape-font-specification:'Open Sans';stroke-width:0.22202183px"
         id="path1003" />
      <path
         d="m 61.415457,135.6324 q -0.463991,0 -0.849927,-0.16912 -0.3816,-0.17346 -0.641782,-0.52904 h -0.05204 q 0.05204,0.41629 0.05204,0.78922 v 1.9557 h -0.719837 v -6.88614 h 0.585409 l 0.09974,0.65045 h 0.03469 q 0.277527,-0.39027 0.646118,-0.56373 0.368591,-0.17345 0.845591,-0.17345 0.945327,0 1.457018,0.64612 0.516027,0.64611 0.516027,1.8126 0,1.17081 -0.5247,1.82127 -0.520363,0.64612 -1.448345,0.64612 z m -0.104073,-4.31468 q -0.728509,0 -1.053736,0.40328 -0.325228,0.40328 -0.3339,1.28356 v 0.16045 q 0,1.0017 0.3339,1.43533 0.3339,0.4293 1.071082,0.4293 0.615763,0 0.962672,-0.49868 0.351246,-0.49868 0.351246,-1.37463 0,-0.88895 -0.351246,-1.36161 -0.346909,-0.477 -0.980018,-0.477 z"
         style="font-style:normal;font-variant:normal;font-weight:normal;font-stretch:normal;font-family:'Open Sans';-inkscape-font-specification:'Open Sans';stroke-width:0.22202183px"
         id="path1005" />
      <path
         d="m 65.326856,130.79302 v 3.08315 q 0,0.58107 0.264518,0.86727 0.264519,0.2862 0.828246,0.2862 0.745854,0 1.088427,-0.40762 0.346909,-0.40761 0.346909,-1.33126 v -2.49774 h 0.719837 v 4.75265 h -0.594082 l -0.104073,-0.63745 h -0.03903 q -0.221155,0.35125 -0.615764,0.53771 -0.390273,0.18647 -0.893291,0.18647 -0.867272,0 -1.300909,-0.41196 -0.4293,-0.41195 -0.4293,-1.31825 v -3.10917 z"
         style="font-style:normal;font-variant:normal;font-weight:normal;font-stretch:normal;font-family:'Open Sans';-inkscape-font-specification:'Open Sans';stroke-width:0.22202183px"
         id="path1007" />
      <path
         d="m 72.265038,130.70629 q 0.316554,0 0.568063,0.052 l -0.09974,0.6678 q -0.294873,-0.065 -0.520364,-0.065 -0.576736,0 -0.988691,0.46833 -0.407618,0.46832 -0.407618,1.16648 v 2.54978 h -0.719836 v -4.75265 h 0.594082 l 0.08239,0.88028 h 0.03469 q 0.264519,-0.46399 0.637446,-0.7155 0.372927,-0.25151 0.819573,-0.25151 z"
         style="font-style:normal;font-variant:normal;font-weight:normal;font-stretch:normal;font-family:'Open Sans';-inkscape-font-specification:'Open Sans';stroke-width:0.22202183px"
         id="path1009" />
      <path
         d="m 78.036736,135.6324 q -1.053736,0 -1.665163,-0.64178 -0.607091,-0.64179 -0.607091,-1.78225 0,-1.14914 0.563727,-1.82561 0.568064,-0.67647 1.522064,-0.67647 0.89329,0 1.413654,0.58974 0.520364,0.58541 0.520364,1.54809 v 0.45531 h -3.273955 q 0.02168,0.83692 0.420627,1.27056 0.403282,0.43363 1.131791,0.43363 0.767537,0 1.517728,-0.32089 v 0.64179 q -0.3816,0.16478 -0.724173,0.23416 -0.338236,0.0737 -0.819573,0.0737 z M 77.8416,131.30904 q -0.5724,0 -0.914973,0.37293 -0.338236,0.37293 -0.398945,1.03205 h 2.484736 q 0,-0.6808 -0.303545,-1.04072 -0.303546,-0.36426 -0.867273,-0.36426 z"
         style="font-style:normal;font-variant:normal;font-weight:normal;font-stretch:normal;font-family:'Open Sans';-inkscape-font-specification:'Open Sans';stroke-width:0.22202183px"
         id="path1011" />
      <path
         d="m 85.525641,135.6324 q -0.463991,0 -0.849928,-0.16912 -0.3816,-0.17346 -0.641782,-0.52904 h -0.05204 q 0.05204,0.41629 0.05204,0.78922 v 1.9557 h -0.719836 v -6.88614 h 0.585409 l 0.09974,0.65045 h 0.03469 q 0.277528,-0.39027 0.646119,-0.56373 0.368591,-0.17345 0.845591,-0.17345 0.945327,0 1.457018,0.64612 0.516027,0.64611 0.516027,1.8126 0,1.17081 -0.5247,1.82127 -0.520364,0.64612 -1.448345,0.64612 z m -0.104073,-4.31468 q -0.728509,0 -1.053737,0.40328 -0.325227,0.40328 -0.3339,1.28356 v 0.16045 q 0,1.0017 0.3339,1.43533 0.3339,0.4293 1.071082,0.4293 0.615764,0 0.962673,-0.49868 0.351245,-0.49868 0.351245,-1.37463 0,-0.88895 -0.351245,-1.36161 -0.346909,-0.477 -0.980018,-0.477 z"
         style="font-style:normal;font-variant:normal;font-weight:normal;font-stretch:normal;font-family:'Open Sans';-inkscape-font-specification:'Open Sans';stroke-width:0.22202183px"
         id="path1013" />
      <path
         d="m 90.928749,130.70629 q 0.316555,0 0.568064,0.052 l -0.09974,0.6678 q -0.294872,-0.065 -0.520363,-0.065 -0.576737,0 -0.988691,0.46833 -0.407618,0.46832 -0.407618,1.16648 v 2.54978 h -0.719837 v -4.75265 h 0.594082 l 0.08239,0.88028 h 0.03469 q 0.264518,-0.46399 0.637445,-0.7155 0.372928,-0.25151 0.819573,-0.25151 z"
         style="font-style:normal;font-variant:normal;font-weight:normal;font-stretch:normal;font-family:'Open Sans';-inkscape-font-specification:'Open Sans';stroke-width:0.22202183px"
         id="path1015" />
      <path
         d="m 96.487966,133.16501 q 0,1.16214 -0.585409,1.81693 -0.58541,0.65046 -1.617464,0.65046 -0.637446,0 -1.131791,-0.29921 -0.494345,-0.29921 -0.7632,-0.8586 -0.268855,-0.55939 -0.268855,-1.30958 0,-1.16215 0.581073,-1.80827 0.581073,-0.65045 1.613127,-0.65045 0.997364,0 1.582773,0.66346 0.589746,0.66347 0.589746,1.79526 z m -3.620864,0 q 0,0.91063 0.364255,1.38763 0.364254,0.477 1.071081,0.477 0.706828,0 1.071082,-0.47266 0.368591,-0.477 0.368591,-1.39197 0,-0.9063 -0.368591,-1.37463 -0.364254,-0.47266 -1.079754,-0.47266 -0.706828,0 -1.066746,0.46399 -0.359918,0.46399 -0.359918,1.3833 z"
         style="font-style:normal;font-variant:normal;font-weight:normal;font-stretch:normal;font-family:'Open Sans';-inkscape-font-specification:'Open Sans';stroke-width:0.22202183px"
         id="path1017" />
      <path
         d="m 100.98044,134.90822 h -0.039 q -0.49868,0.72418 -1.491705,0.72418 -0.932318,0 -1.452681,-0.63745 -0.516028,-0.63744 -0.516028,-1.8126 0,-1.17515 0.520364,-1.82561 0.520364,-0.65045 1.448345,-0.65045 0.967005,0 1.483035,0.70249 h 0.0564 l -0.0303,-0.34257 -0.0173,-0.3339 v -1.93402 h 0.71984 v 6.74738 h -0.58541 z m -1.439671,0.12142 q 0.737181,0 1.066741,-0.39894 0.3339,-0.40328 0.3339,-1.29658 v -0.15177 q 0,-1.01037 -0.33823,-1.43967 -0.3339,-0.43364 -1.071084,-0.43364 -0.633109,0 -0.971345,0.49435 -0.3339,0.49001 -0.3339,1.38763 0,0.91064 0.3339,1.37463 0.3339,0.46399 0.980018,0.46399 z"
         style="font-style:normal;font-variant:normal;font-weight:normal;font-stretch:normal;font-family:'Open Sans';-inkscape-font-specification:'Open Sans';stroke-width:0.22202183px"
         id="path1019" />
      <path
         d="m 103.86846,130.79302 v 3.08315 q 0,0.58107 0.26452,0.86727 0.26452,0.2862 0.82824,0.2862 0.74586,0 1.08843,-0.40762 0.34691,-0.40761 0.34691,-1.33126 v -2.49774 h 0.71984 v 4.75265 h -0.59409 l -0.10407,-0.63745 h -0.039 q -0.22115,0.35125 -0.61576,0.53771 -0.39027,0.18647 -0.89329,0.18647 -0.86727,0 -1.30091,-0.41196 -0.4293,-0.41195 -0.4293,-1.31825 v -3.10917 z"
         style="font-style:normal;font-variant:normal;font-weight:normal;font-stretch:normal;font-family:'Open Sans';-inkscape-font-specification:'Open Sans';stroke-width:0.22202183px"
         id="path1021" />
      <path
         d="m 109.34962,133.11297 q 0.18647,-0.26452 0.56807,-0.69382 l 1.53507,-1.62613 h 0.85426 l -1.92534,2.02508 2.05977,2.72757 h -0.87161 l -1.67817,-2.24624 -0.54205,0.46833 v 1.77791 h -0.71116 v -6.74738 h 0.71116 v 3.5775 q 0,0.2385 -0.0347,0.73718 z"
         style="font-style:normal;font-variant:normal;font-weight:normal;font-stretch:normal;font-family:'Open Sans';-inkscape-font-specification:'Open Sans';stroke-width:0.22202183px"
         id="path1023" />
      <path
         d="m 114.83946,135.03832 q 0.1908,0 0.36859,-0.026 0.17779,-0.0304 0.28186,-0.0607 v 0.55072 q -0.11708,0.0564 -0.34691,0.0911 -0.22549,0.039 -0.40762,0.039 -1.37896,0 -1.37896,-1.45268 v -2.82731 h -0.68081 v -0.34691 l 0.68081,-0.29921 0.30354,-1.01471 h 0.4163 v 1.10144 h 1.37896 v 0.55939 h -1.37896 v 2.79695 q 0,0.4293 0.2038,0.65913 0.20381,0.22983 0.5594,0.22983 z"
         style="font-style:normal;font-variant:normal;font-weight:normal;font-stretch:normal;font-family:'Open Sans';-inkscape-font-specification:'Open Sans';stroke-width:0.22202183px"
         id="path1025" />
      <path
         d="m 118.45165,135.6324 q -1.05374,0 -1.66517,-0.64178 -0.60709,-0.64179 -0.60709,-1.78225 0,-1.14914 0.56373,-1.82561 0.56806,-0.67647 1.52206,-0.67647 0.89329,0 1.41366,0.58974 0.52036,0.58541 0.52036,1.54809 v 0.45531 h -3.27395 q 0.0217,0.83692 0.42062,1.27056 0.40328,0.43363 1.13179,0.43363 0.76754,0 1.51773,-0.32089 v 0.64179 q -0.3816,0.16478 -0.72417,0.23416 -0.33824,0.0737 -0.81957,0.0737 z m -0.19514,-4.32336 q -0.5724,0 -0.91497,0.37293 -0.33824,0.37293 -0.39895,1.03205 h 2.48474 q 0,-0.6808 -0.30355,-1.04072 -0.30354,-0.36426 -0.86727,-0.36426 z"
         style="font-style:normal;font-variant:normal;font-weight:normal;font-stretch:normal;font-family:'Open Sans';-inkscape-font-specification:'Open Sans';stroke-width:0.22202183px"
         id="path1027" />
      <path
         d="m 122.46279,135.54567 -1.80393,-4.75265 h 0.77187 l 1.02338,2.81863 q 0.34691,0.98869 0.40762,1.28357 h 0.0347 q 0.0477,-0.22983 0.29921,-0.94967 0.25585,-0.72417 1.14046,-3.15253 h 0.77188 l -1.80393,4.75265 z"
         style="font-style:normal;font-variant:normal;font-weight:normal;font-stretch:normal;font-family:'Open Sans';-inkscape-font-specification:'Open Sans';stroke-width:0.22202183px"
         id="path1029" />
      <path
         d="m 127.88757,135.6324 q -1.05373,0 -1.66516,-0.64178 -0.60709,-0.64179 -0.60709,-1.78225 0,-1.14914 0.56373,-1.82561 0.56806,-0.67647 1.52206,-0.67647 0.89329,0 1.41365,0.58974 0.52037,0.58541 0.52037,1.54809 v 0.45531 h -3.27396 q 0.0217,0.83692 0.42063,1.27056 0.40328,0.43363 1.13179,0.43363 0.76754,0 1.51773,-0.32089 v 0.64179 q -0.3816,0.16478 -0.72417,0.23416 -0.33824,0.0737 -0.81958,0.0737 z m -0.19513,-4.32336 q -0.5724,0 -0.91498,0.37293 -0.33823,0.37293 -0.39894,1.03205 h 2.48474 q 0,-0.6808 -0.30355,-1.04072 -0.30355,-0.36426 -0.86727,-0.36426 z"
         style="font-style:normal;font-variant:normal;font-weight:normal;font-stretch:normal;font-family:'Open Sans';-inkscape-font-specification:'Open Sans';stroke-width:0.22202183px"
         id="path1031" />
      <path
         d="m 133.84141,130.79302 v 3.08315 q 0,0.58107 0.26451,0.86727 0.26452,0.2862 0.82825,0.2862 0.74585,0 1.08843,-0.40762 0.34691,-0.40761 0.34691,-1.33126 v -2.49774 h 0.71983 v 4.75265 h -0.59408 l -0.10407,-0.63745 h -0.039 q -0.22115,0.35125 -0.61576,0.53771 -0.39028,0.18647 -0.89329,0.18647 -0.86728,0 -1.30091,-0.41196 -0.4293,-0.41195 -0.4293,-1.31825 v -3.10917 z"
         style="font-style:normal;font-variant:normal;font-weight:normal;font-stretch:normal;font-family:'Open Sans';-inkscape-font-specification:'Open Sans';stroke-width:0.22202183px"
         id="path1033" />
      <path
         d="m 141.67721,134.2491 q 0,0.66346 -0.49434,1.02338 -0.49435,0.35992 -1.38764,0.35992 -0.94533,0 -1.47436,-0.29921 v -0.6678 q 0.34257,0.17345 0.73284,0.27319 0.39461,0.0997 0.75887,0.0997 0.56372,0 0.86727,-0.1778 0.30355,-0.18212 0.30355,-0.55071 0,-0.27753 -0.24284,-0.47267 -0.2385,-0.19947 -0.93666,-0.46832 -0.66346,-0.24718 -0.94532,-0.4293 -0.27753,-0.18647 -0.41629,-0.42063 -0.13443,-0.23417 -0.13443,-0.55939 0,-0.58108 0.47266,-0.91498 0.47267,-0.33823 1.29658,-0.33823 0.76753,0 1.50038,0.31222 l -0.25585,0.58541 q -0.7155,-0.29488 -1.29657,-0.29488 -0.51169,0 -0.77187,0.16045 -0.26019,0.16044 -0.26019,0.44231 0,0.1908 0.0954,0.32522 0.0997,0.13443 0.31656,0.25585 0.21682,0.12142 0.83258,0.35125 0.84559,0.30788 1.14046,0.6201 0.29921,0.31221 0.29921,0.78488 z"
         style="font-style:normal;font-variant:normal;font-weight:normal;font-stretch:normal;font-family:'Open Sans';-inkscape-font-specification:'Open Sans';stroke-width:0.22202183px"
         id="path1035" />
      <path
         d="m 146.09596,135.54567 v -3.07448 q 0,-0.58107 -0.26452,-0.86727 -0.26451,-0.2862 -0.82824,-0.2862 -0.75019,0 -1.0971,0.40761 -0.34257,0.40762 -0.34257,1.3356 v 2.48474 h -0.71984 v -6.74738 h 0.71984 v 2.04243 q 0,0.36859 -0.0347,0.61142 h 0.0434 q 0.21248,-0.34257 0.60275,-0.53771 0.39461,-0.19947 0.89763,-0.19947 0.87161,0 1.30525,0.41629 0.43797,0.41196 0.43797,1.31392 v 3.1005 z"
         style="font-style:normal;font-variant:normal;font-weight:normal;font-stretch:normal;font-family:'Open Sans';-inkscape-font-specification:'Open Sans';stroke-width:0.22202183px"
         id="path1037" />
      <path
         d="m 150.08542,135.02964 q 0.71983,0 1.0494,-0.38593 0.32956,-0.38594 0.35124,-1.30091 v -0.16045 q 0,-0.99736 -0.33823,-1.43533 -0.33824,-0.43798 -1.07109,-0.43798 -0.63311,0 -0.97134,0.49435 -0.3339,0.49001 -0.3339,1.38763 0,0.89763 0.32956,1.3703 0.3339,0.46832 0.98436,0.46832 z m -0.10841,0.60276 q -0.91931,0 -1.43534,-0.64612 -0.51603,-0.64612 -0.51603,-1.80393 0,-1.16648 0.52037,-1.82127 0.52036,-0.65479 1.44834,-0.65479 0.97568,0 1.50038,0.73718 h 0.039 l 0.10407,-0.65045 h 0.56807 v 6.88614 h -0.71984 v -2.03375 q 0,-0.43364 0.0477,-0.73719 h -0.0564 q -0.49868,0.72418 -1.50038,0.72418 z"
         style="font-style:normal;font-variant:normal;font-weight:normal;font-stretch:normal;font-family:'Open Sans';-inkscape-font-specification:'Open Sans';stroke-width:0.22202183px"
         id="path1039" />
      <path
         d="m 154.45647,135.54567 h -0.71984 v -4.75265 h 0.71984 z m -0.78055,-6.04055 q 0,-0.24718 0.12142,-0.35992 0.12142,-0.11708 0.30355,-0.11708 0.17345,0 0.29921,0.11708 0.12575,0.11708 0.12575,0.35992 0,0.24283 -0.12575,0.36425 -0.12576,0.11708 -0.29921,0.11708 -0.18213,0 -0.30355,-0.11708 -0.12142,-0.12142 -0.12142,-0.36425 z"
         style="font-style:normal;font-variant:normal;font-weight:normal;font-stretch:normal;font-family:'Open Sans';-inkscape-font-specification:'Open Sans';stroke-width:0.22202183px"
         id="path1041" />
      <path
         d="m 162.04945,135.54567 v -3.09183 q 0,-0.56806 -0.24284,-0.84992 -0.24284,-0.2862 -0.75453,-0.2862 -0.67213,0 -0.99302,0.38593 -0.32089,0.38594 -0.32089,1.18817 v 2.65385 h -0.71984 v -3.09183 q 0,-0.56806 -0.24284,-0.84992 -0.24283,-0.2862 -0.75886,-0.2862 -0.67647,0 -0.99303,0.40761 -0.31222,0.40329 -0.31222,1.32693 v 2.49341 h -0.71983 v -4.75265 h 0.58541 l 0.11708,0.65045 h 0.0347 q 0.20381,-0.34691 0.5724,-0.54205 0.37293,-0.19513 0.83258,-0.19513 1.11445,0 1.45702,0.80656 h 0.0347 q 0.21248,-0.37293 0.61576,-0.58974 0.40329,-0.21682 0.91931,-0.21682 0.80657,0 1.20551,0.41629 0.40328,0.41195 0.40328,1.32259 v 3.1005 z"
         style="font-style:normal;font-variant:normal;font-weight:normal;font-stretch:normal;font-family:'Open Sans';-inkscape-font-specification:'Open Sans';stroke-width:0.22202183px"
         id="path1043" />
      <path
         d="m 168.35019,133.16501 q 0,1.16214 -0.58541,1.81693 -0.58541,0.65046 -1.61747,0.65046 -0.63744,0 -1.13179,-0.29921 -0.49434,-0.29921 -0.7632,-0.8586 -0.26885,-0.55939 -0.26885,-1.30958 0,-1.16215 0.58107,-1.80827 0.58107,-0.65045 1.61313,-0.65045 0.99736,0 1.58277,0.66346 0.58975,0.66347 0.58975,1.79526 z m -3.62087,0 q 0,0.91063 0.36426,1.38763 0.36425,0.477 1.07108,0.477 0.70683,0 1.07108,-0.47266 0.36859,-0.477 0.36859,-1.39197 0,-0.9063 -0.36859,-1.37463 -0.36425,-0.47266 -1.07975,-0.47266 -0.70683,0 -1.06675,0.46399 -0.35992,0.46399 -0.35992,1.3833 z"
         style="font-style:normal;font-variant:normal;font-weight:normal;font-stretch:normal;font-family:'Open Sans';-inkscape-font-specification:'Open Sans';stroke-width:0.22202183px"
         id="path1045" />
      <path
         d="m 171.77591,130.70629 q 0.31655,0 0.56806,0.052 l -0.0997,0.6678 q -0.29488,-0.065 -0.52037,-0.065 -0.57673,0 -0.98869,0.46833 -0.40762,0.46832 -0.40762,1.16648 v 2.54978 h -0.71983 v -4.75265 h 0.59408 l 0.0824,0.88028 h 0.0347 q 0.26452,-0.46399 0.63745,-0.7155 0.37292,-0.25151 0.81957,-0.25151 z"
         style="font-style:normal;font-variant:normal;font-weight:normal;font-stretch:normal;font-family:'Open Sans';-inkscape-font-specification:'Open Sans';stroke-width:0.22202183px"
         id="path1047" />
      <path
         d="m 175.24066,135.6324 q -1.05373,0 -1.66516,-0.64178 -0.60709,-0.64179 -0.60709,-1.78225 0,-1.14914 0.56373,-1.82561 0.56806,-0.67647 1.52206,-0.67647 0.89329,0 1.41365,0.58974 0.52037,0.58541 0.52037,1.54809 v 0.45531 h -3.27396 q 0.0217,0.83692 0.42063,1.27056 0.40328,0.43363 1.13179,0.43363 0.76754,0 1.51773,-0.32089 v 0.64179 q -0.3816,0.16478 -0.72417,0.23416 -0.33824,0.0737 -0.81958,0.0737 z m -0.19513,-4.32336 q -0.5724,0 -0.91498,0.37293 -0.33823,0.37293 -0.39894,1.03205 h 2.48473 q 0,-0.6808 -0.30354,-1.04072 -0.30355,-0.36426 -0.86727,-0.36426 z"
         style="font-style:normal;font-variant:normal;font-weight:normal;font-stretch:normal;font-family:'Open Sans';-inkscape-font-specification:'Open Sans';stroke-width:0.22202183px"
         id="path1049" />
    </g>
  </g>
</svg>
