<svg xmlns="http://www.w3.org/2000/svg" width="178" height="150"><path d="M170 26v6.411c1.196.444 2.214 1.06 3 1.761V26zm4 0v8.312l1-.839V26zm2 0v6.607l1-.979v11.77l-1-1.007V95h2V26zm-2 14.686V95h1V41.525zm-1 .14c-.786.702-1.796 1.313-3 1.76V95h3z" fill="#06f"/><path d="M154 26v69h3V41.19c-1.324-1.016-2.125-2.272-2.125-3.663 0-1.39.801-2.675 2.125-3.69V26zm4 0v7.194c1.126-.643 2.47-1.129 4-1.398V26zm5 0v5.628c.33-.036.66-.04 1-.056V26h-1zm2 0v5.544c.683.009 1.358.081 2 .168V26zm-7 15.86V95h4V43.23c-1.587-.269-2.875-.728-4-1.37zm9 1.482a16.62 16.62 0 0 1-2 .14V95h2zm-4 .056V95h1V43.454c-.34-.017-.67-.02-1-.056z" fill="#0cf"/><path d="M150 26v69h1V26zm-4 0v69h3V26zm-3 0v69h2V26zm-2 0v69h1V26zm-6-2v71h3V26zm-3 2v69h2V26zm-3 0v69h2V26zm-4 0v69h1V26zm-4 0v69h1V26zm-5 0v69h2V26zm-4 0v69h1V26zm-2 0v69h1V26zm-2 0v69h1V26zm-5 0v69h2V26zm-4 0v69h1V26zm-4 0l.017 69H96l-.017-69z" fill="#00d400"/><path d="M90 21v74h2V21zm-2 5v69h1V26zm-3-16v85h2V10zm-4 16v69h3V26zm-4 0v69h1V26zm-3-6v75h2V20zm-4 6v69h3V26zm-4 0v69h1V26zm-2 0v69h1V26zm-5 0l.026 69H61l-.027-69zm-4-11v80h1V15zm-3 11v69h2V26zm-6 0v69h3V26zm-2 0v69h1V26zm-4 0v69h1V26zm-3 0v69h2V26z" fill="#fc0"/><path d="M33 20v75h1V20zm-3-1v76h2V19zm-4 7v69h3V26zm-4 0v69h3V26zm-3-6v75h2V20zm-4 1v74h3V21zm-4 5v69h1V26zm-3 0v69h1V26zm-5 0v69h1V26zm-3 0v69h2V26z" fill="red"/><path d="M12.96 20.168c.63-.816.72-2.676 1.282-4.359.405-1.213.463-4.597 1.208-4.882.969-.371 3.17-.358 4.224-.417 2.3-.128 4.52 1.099 6.823 1.101 2.99.004 8.861-1.41 8.861-1.41l-.14-2.04 1.505.279 4.077-.517-3.008 1.386s1.202-.02 1.688.277c.705.432.96 1.347 1.469 2 .292.373 1.082.654.908 1.095-.47 1.19-3.809.486-3.809.486L36.13 14.97c-.833 1.78-2.262 3.262-2.254 6.722 0 0-6.007-.923-8.991-.796-1.764.074-4.97.618-4.97.618-1.608-.137-3.296-.53-4.904-.25.01-6.235.866-6.128.698-9.294-.439 1.68-.97 4.516-1.026 5.772-.535 1.526-.012 1.9-1.723 2.426z" fill="red"/><g transform="rotate(-37.635 30.68 -53.687) scale(.01879)" fill="#fc0"><ellipse ry="32.857" rx="65.714" cy="762.362" cx="567.143" transform="rotate(-54.359 554.927 858.045)"/><path d="M494.286 741.648s14.409-2.316 20.714-5.714c22.088-11.904 53.571-52.858 53.571-52.858s-33.141 43.14-40 65c-2.071 6.604-1.428 20.715-1.428 20.715z"/></g><g fill="#fc0"><g transform="translate(47.682 5.652) scale(.0188)"><ellipse ry="32.857" rx="65.714" cy="762.362" cx="567.143" transform="rotate(-54.359 554.927 858.045)"/><path d="M494.286 741.648s14.409-2.316 20.714-5.714c22.088-11.904 53.571-52.858 53.571-52.858s-33.141 43.14-40 65c-2.071 6.604-1.428 20.715-1.428 20.715z"/></g><g transform="translate(47.682 7.444) scale(.0188)"><ellipse ry="32.857" rx="65.714" cy="762.362" cx="567.143" transform="rotate(-54.359 554.927 858.045)"/><path d="M494.286 741.648s14.409-2.316 20.714-5.714c22.088-11.904 53.571-52.858 53.571-52.858s-33.141 43.14-40 65c-2.071 6.604-1.428 20.715-1.428 20.715z"/></g><g transform="translate(47.682 3.86) scale(.0188)"><ellipse ry="32.857" rx="65.714" cy="762.362" cx="567.143" transform="rotate(-54.359 554.927 858.045)"/><path d="M494.286 741.648s14.409-2.316 20.714-5.714c22.088-11.904 53.571-52.858 53.571-52.858s-33.141 43.14-40 65c-2.071 6.604-1.428 20.715-1.428 20.715z"/></g><g transform="translate(47.682 2.068) scale(.0188)"><ellipse ry="32.857" rx="65.714" cy="762.362" cx="567.143" transform="rotate(-54.359 554.927 858.045)"/><path d="M494.286 741.648s14.409-2.316 20.714-5.714c22.088-11.904 53.571-52.858 53.571-52.858s-33.141 43.14-40 65c-2.071 6.604-1.428 20.715-1.428 20.715z"/></g><g transform="rotate(-10.644 34.013 -239.594) scale(.01879)"><ellipse ry="32.857" rx="65.714" cy="762.362" cx="567.143" transform="rotate(-54.359 554.927 858.045)"/><path d="M494.286 741.648s14.409-2.316 20.714-5.714c22.088-11.904 53.571-52.858 53.571-52.858s-33.141 43.14-40 65c-2.071 6.604-1.428 20.715-1.428 20.715z"/></g><g transform="matrix(-.0188 0 0 .0188 63.268 5.652)"><ellipse ry="32.857" rx="65.714" cy="762.362" cx="567.143" transform="rotate(-54.359 554.927 858.045)"/><path d="M494.286 741.648s14.409-2.316 20.714-5.714c22.088-11.904 53.571-52.858 53.571-52.858s-33.141 43.14-40 65c-2.071 6.604-1.428 20.715-1.428 20.715z"/></g><g transform="matrix(-.0188 0 0 .0188 63.268 7.444)"><ellipse ry="32.857" rx="65.714" cy="762.362" cx="567.143" transform="rotate(-54.359 554.927 858.045)"/><path d="M494.286 741.648s14.409-2.316 20.714-5.714c22.088-11.904 53.571-52.858 53.571-52.858s-33.141 43.14-40 65c-2.071 6.604-1.428 20.715-1.428 20.715z"/></g><g transform="matrix(-.0188 0 0 .0188 63.268 3.86)"><ellipse ry="32.857" rx="65.714" cy="762.362" cx="567.143" transform="rotate(-54.359 554.927 858.045)"/><path d="M494.286 741.648s14.409-2.316 20.714-5.714c22.088-11.904 53.571-52.858 53.571-52.858s-33.141 43.14-40 65c-2.071 6.604-1.428 20.715-1.428 20.715z"/></g><g transform="matrix(-.0188 0 0 .0188 63.268 2.068)"><ellipse ry="32.857" rx="65.714" cy="762.362" cx="567.143" transform="rotate(-54.359 554.927 858.045)"/><path d="M494.286 741.648s14.409-2.316 20.714-5.714c22.088-11.904 53.571-52.858 53.571-52.858s-33.141 43.14-40 65c-2.071 6.604-1.428 20.715-1.428 20.715z"/></g><g transform="matrix(-.01847 -.00348 -.00348 .01847 65.983 2.178)"><ellipse ry="32.857" rx="65.714" cy="762.362" cx="567.143" transform="rotate(-54.359 554.927 858.045)"/><path d="M494.286 741.648s14.409-2.316 20.714-5.714c22.088-11.904 53.571-52.858 53.571-52.858s-33.141 43.14-40 65c-2.071 6.604-1.428 20.715-1.428 20.715z"/></g></g><g transform="rotate(-48.948 -310.85 675.412) scale(.73933)" fill="#fc0"><circle r="2.5" cy="732.362" cx="608" transform="translate(1.5 9.75)"/><circle r="2.5" cy="732.362" cx="608" transform="rotate(-72 612.96 733.705)"/><circle r="2.5" cy="732.362" cx="608" transform="rotate(-144 607.834 734.494)"/><circle r="2.5" cy="732.362" cx="608" transform="rotate(144 604.666 734.98)"/><circle r="2.5" cy="732.362" cx="608" transform="rotate(72 599.54 735.77)"/></g><g transform="matrix(-.64917 -.35383 .35383 -.64917 218.165 702.908)" fill="#fc0"><circle r="2.5" cy="732.362" cx="608" transform="translate(1.5 9.75)"/><circle r="2.5" cy="732.362" cx="608" transform="rotate(-72 612.96 733.705)"/><circle r="2.5" cy="732.362" cx="608" transform="rotate(-144 607.834 734.494)"/><circle r="2.5" cy="732.362" cx="608" transform="rotate(144 604.666 734.98)"/><circle r="2.5" cy="732.362" cx="608" transform="rotate(72 599.54 735.77)"/></g><g transform="matrix(.3145 -.6691 .6691 .3145 -610.582 190.809)" fill="#fc0"><circle r="2.5" cy="732.362" cx="608" transform="translate(1.5 9.75)"/><circle r="2.5" cy="732.362" cx="608" transform="rotate(-72 612.96 733.705)"/><circle r="2.5" cy="732.362" cx="608" transform="rotate(-144 607.834 734.494)"/><circle r="2.5" cy="732.362" cx="608" transform="rotate(144 604.666 734.98)"/><circle r="2.5" cy="732.362" cx="608" transform="rotate(72 599.54 735.77)"/></g><path d="M122.447 6.337c9.189.95 12.63 8.43 12.553 21.663l2.964-1.399c0-1.462-.026-1.249-.026-2.71 0-10.868-6.404-17.276-10.911-18.344z" fill="#00d400"/><path d="M109.295 21.713c8.936-2.556 20.004-3.048 18.061-16.131-17.114-8.055-11.346 7.067-18.06 16.13z" fill="#00d400"/><path d="M128.43 4.225c-4.446 6.14-14.13 15.176-20.084 17.87 5.978-2.223 17.58-11.33 20.084-17.87z" fill="#fff"/><path d="M154.928 21.605c-8.784-3.034-19.81-4.123-17.165-17.082 18.215-5.51 10.95 7.669 17.165 17.082z" fill="#00d400"/><path d="M136.764 3.11c4.109 6.371 13.292 15.916 19.091 18.927-5.848-2.542-16.943-12.26-19.09-18.927z" fill="#fff"/><path d="M137.878 4.604C135.885 6.169 135.077 14.768 135 28l2.964-1.399c0-1.462.036 1.86.036.399 0-10.867.859-19.322 1.215-21.118z" fill="#00d400"/><circle r=".949" cy="35.276" cx="159.092" fill="#0cf"/><path d="M170 118v5h8v-5h-8z" fill="#06f"/><path d="M154 118v5h13v-5h-13z" fill="#0cf"/><path d="M95 118v5h56v-5H95z" fill="#00d400"/><path d="M37 118v5h55v-5H37z" fill="#fc0"/><path d="M0 118v5h34v-5H0z" fill="red"/><g style="line-height:125%;-inkscape-font-specification:'Arial Narrow'" font-weight="400" font-size="22.903" font-family="Arial Narrow" letter-spacing="0" word-spacing="0" fill="#333"><path d="M.295 106.822c0-2.796.615-4.945 1.846-6.447 1.23-1.502 2.762-2.253 4.596-2.253 1.185 0 2.266.335 3.243 1.006.976.671 1.75 1.646 2.32 2.924.57 1.279.856 2.802.856 4.569 0 2.43-.552 4.41-1.655 5.938-1.216 1.685-2.807 2.527-4.775 2.527-1.984 0-3.579-.865-4.787-2.594-1.096-1.566-1.644-3.456-1.644-5.67zm1.834.033c0 2.02.446 3.588 1.337 4.703.89 1.114 1.973 1.672 3.248 1.672 1.305 0 2.4-.563 3.283-1.689.883-1.126 1.325-2.78 1.325-4.965 0-1.41-.228-2.67-.682-3.78-.35-.85-.878-1.53-1.583-2.04a3.842 3.842 0 0 0-2.31-.767c-1.341 0-2.446.56-3.315 1.678-.868 1.118-1.303 2.847-1.303 5.188zM15 115V98h4.675c1.224 0 2.127.107 2.708.321.796.291 1.431.83 1.905 1.619.475.788.712 1.755.712 2.903 0 1.515-.386 2.75-1.16 3.707-.772.956-2.107 1.424-4.004 1.435L17 108v7zm2-9h2.87c1.125-.001 1.947-.255 2.467-.764s.78-1.276.78-2.301c0-.666-.127-1.236-.384-1.71-.256-.474-.566-.8-.93-.976-.363-.176-1.019-.264-1.967-.264L17 100zm10 9V98h10v2h-8v5h7v2h-7v6h8v2zm12 0V98h2l7 13V98h2v17h-2l-7-13v13zm19 0V98h9v2h-7v5h6v2h-6v8zm10.256-8.178c0-2.796.615-4.945 1.845-6.447 1.23-1.502 2.762-2.253 4.596-2.253 1.186 0 2.267.335 3.243 1.006.977.671 1.75 1.646 2.32 2.924.571 1.279.856 2.802.856 4.569 0 2.43-.551 4.41-1.655 5.938-1.215 1.685-2.807 2.527-4.775 2.527-1.983 0-3.578-.865-4.786-2.594-1.096-1.566-1.644-3.456-1.644-5.67zm1.834.033c0 2.02.445 3.588 1.336 4.703.891 1.114 1.974 1.672 3.249 1.672 1.305 0 2.399-.563 3.282-1.689.884-1.126 1.325-2.78 1.325-4.965 0-1.41-.227-2.67-.682-3.78-.35-.85-.878-1.53-1.582-2.04-.705-.512-1.474-.767-2.31-.767-1.341 0-2.447.56-3.315 1.677-.869 1.119-1.303 2.848-1.303 5.19zm12.793-.033c0-2.796.615-4.945 1.846-6.447 1.23-1.502 2.762-2.253 4.596-2.253 1.185 0 2.266.335 3.243 1.006.976.671 1.75 1.646 2.32 2.924.57 1.279.856 2.802.856 4.569 0 2.43-.552 4.41-1.655 5.938-1.216 1.685-2.807 2.527-4.775 2.527-1.984 0-3.579-.865-4.787-2.594-1.096-1.566-1.644-3.456-1.644-5.67zm1.834.033c0 2.02.446 3.588 1.337 4.703.89 1.114 1.973 1.672 3.248 1.672 1.305 0 2.4-.563 3.283-1.689.883-1.126 1.325-2.78 1.325-4.965 0-1.41-.228-2.67-.682-3.78-.35-.85-.878-1.53-1.583-2.04a3.842 3.842 0 0 0-2.31-.767c-1.341 0-2.446.56-3.315 1.677-.868 1.119-1.303 2.848-1.303 5.19zM98 115V98h5c1.213 0 2.005.174 2.635.383.827.27 1.543.72 2.15 1.437.606.718 1.079 1.623 1.417 2.715.339 1.093.508 2.388.508 3.885 0 1.922-.287 3.553-.862 4.892-.575 1.34-1.313 2.289-2.215 2.849-.902.56-2.176.839-3.633.839zm2-2h3c1.22 0 2.017-.198 2.647-.588.63-.39 1.114-1.017 1.453-1.881.448-1.15.673-2.528.673-4.134 0-1.721-.238-3.074-.715-4.058-.476-.985-1.088-1.643-1.836-1.975-.504-.224-1.127-.364-2.222-.364h-3zm18 2l.076-17h9v2h-7v5h6v2h-6v8zm10.076 0l5-17h2l5 17h-2l-4-15-4.04 15zm23.285-5.942l1.79.548c-.396 1.842-1.087 3.216-2.075 4.121-.988.906-2.19 1.36-3.606 1.36-1.245 0-2.31-.305-3.193-.912-.884-.608-1.607-1.583-2.17-2.925-.562-1.342-.844-2.926-.844-4.752 0-1.805.282-3.331.844-4.58.563-1.249 1.326-2.192 2.287-2.83a5.703 5.703 0 0 1 3.221-.955c1.297 0 2.412.404 3.344 1.213.932.809 1.584 1.996 1.957 3.562l-1.745.503c-.596-2.281-1.793-3.422-3.59-3.422-.894 0-1.67.23-2.326.688-.656.458-1.18 1.172-1.57 2.141-.392.97-.588 2.196-.588 3.68 0 2.244.395 3.927 1.186 5.049.79 1.122 1.841 1.683 3.153 1.683.97 0 1.806-.345 2.51-1.035.705-.69 1.177-1.735 1.415-3.137zM159 115v-15l-5 .006V98h12v2h-5v15zm8.268-5.46l1.678-.18c.09.903.292 1.605.61 2.108.316.504.769.908 1.358 1.214.589.305 1.252.458 1.99.458 1.06 0 1.881-.259 2.466-.777.586-.518.878-1.19.878-2.018 0-.485-.106-.908-.319-1.27-.212-.361-.533-.658-.961-.889-.429-.23-1.355-.555-2.78-.973-1.267-.372-2.169-.749-2.706-1.13a3.944 3.944 0 0 1-1.252-1.447c-.298-.586-.447-1.247-.447-1.985 0-1.327.428-2.412 1.286-3.255.857-.842 2.013-1.263 3.466-1.263 1 0 1.874.197 2.623.592.75.396 1.33.962 1.744 1.7.414.738.636 1.607.666 2.606l-1.711.156c-.09-1.066-.408-1.856-.956-2.37-.548-.515-1.318-.772-2.31-.772-1.006 0-1.774.226-2.303.677-.53.45-.794 1.034-.794 1.75 0 .663.194 1.178.581 1.543.388.365 1.26.734 2.617 1.107 1.327.365 2.259.682 2.796.95.82.418 1.439.968 1.856 1.65.418.682.626 1.497.626 2.444a5.09 5.09 0 0 1-.66 2.566 4.434 4.434 0 0 1-1.794 1.761c-.757.403-1.668.604-2.735.604-1.662 0-2.987-.5-3.975-1.498-.988-1-1.5-2.352-1.538-4.06z"/><path d="M137.076 108v2h-6v-2z"/></g><path d="M.762 139.956v-13.425H1.86v13.425zm2.818-8.672l-.285-2.51v-2.243h1.256v2.243l-.291 2.51zm2.413-2.858v-1.895h1.1v1.895zm0 11.53v-9.726h1.1v9.726zm2.781 0v-9.726h.994v1.383c.239-.537.532-.938.878-1.204a1.906 1.906 0 0 1 1.192-.398c.349 0 .672.083.968.251.296.168.536.388.718.66.181.271.317.624.407 1.058.09.433.134 1.098.134 1.996v5.98H12.96v-5.916c0-.714-.05-1.236-.15-1.566-.099-.33-.255-.585-.466-.765a1.102 1.102 0 0 0-.737-.27c-.528 0-.949.241-1.263.724-.314.482-.47 1.31-.47 2.481v5.312zm7.309 0v-8.444h-.979v-1.282h.98v-1.034c0-.764.064-1.336.194-1.718.13-.381.327-.673.594-.874.266-.202.602-.302 1.005-.302.314 0 .658.055 1.032.165l-.165 1.437a2.532 2.532 0 0 0-.65-.091c-.329 0-.564.105-.706.316-.142.21-.213.612-.213 1.204v.897h1.27v1.283h-1.27v8.443zm2.773-4.863c0-1.679.288-2.946.863-3.8.576-.855 1.305-1.282 2.187-1.282.867 0 1.592.427 2.175 1.282.582.854.874 2.088.874 3.7 0 1.746-.287 3.046-.86 3.9-.573.855-1.303 1.283-2.19 1.283-.871 0-1.598-.43-2.178-1.287-.58-.858-.87-2.123-.87-3.796zm1.129 0c0 1.258.187 2.193.56 2.807.374.614.837.92 1.39.92.519 0 .963-.31 1.335-.93.37-.619.556-1.551.556-2.797 0-1.251-.186-2.184-.56-2.798-.374-.613-.837-.92-1.39-.92-.523 0-.97.308-1.338.925-.369.617-.553 1.548-.553 2.793zm6.278 4.863v-9.726h.994v1.475c.254-.684.487-1.137.699-1.36.212-.223.45-.334.714-.334.368 0 .744.177 1.128.53l-.374 1.53c-.274-.238-.54-.357-.8-.357-.233 0-.448.1-.642.302-.194.202-.331.482-.411.843a9.242 9.242 0 0 0-.21 2.005v5.092zm4.2 0v-9.726h.987v1.365c.22-.507.5-.898.844-1.172.344-.275.72-.412 1.129-.412.458 0 .846.145 1.162.435.317.29.542.712.677 1.268.259-.568.556-.994.893-1.278a1.692 1.692 0 0 1 1.117-.425c.623 0 1.114.26 1.472.778.36.519.539 1.35.539 2.49v6.677h-1.1v-6.127c0-.696-.04-1.189-.122-1.479-.083-.29-.216-.514-.4-.673a.927.927 0 0 0-.62-.238c-.474 0-.86.23-1.16.692-.298.46-.448 1.186-.448 2.175v5.65h-1.106v-6.319c0-.806-.1-1.374-.302-1.703-.202-.33-.48-.495-.834-.495-.503 0-.9.249-1.192.747-.291.497-.437 1.405-.437 2.724v5.046zm14.694-1.2c-.369.47-.752.825-1.15 1.063a2.387 2.387 0 0 1-1.242.357c-.677 0-1.218-.25-1.621-.751-.404-.5-.606-1.175-.606-2.024 0-.562.095-1.06.284-1.493.19-.433.449-.772.778-1.016.328-.244.827-.425 1.494-.54.897-.16 1.555-.349 1.973-.568l.008-.422c0-.665-.097-1.132-.292-1.4-.274-.392-.695-.587-1.263-.587-.513 0-.897.13-1.15.39-.255.259-.442.746-.561 1.46l-1.084-.22c.155-1.044.467-1.804.938-2.28.47-.476 1.145-.714 2.022-.714.682 0 1.218.157 1.607.471.388.315.634.704.736 1.168.102.464.153 1.142.153 2.033v2.198c0 1.538.024 2.507.071 2.907.047.4.14.79.28 1.168h-1.15a4.867 4.867 0 0 1-.225-1.2zm-.09-3.681c-.403.244-1.004.452-1.8.623-.464.097-.788.209-.972.334a1.227 1.227 0 0 0-.43.531 1.927 1.927 0 0 0-.153.792c0 .464.117.835.35 1.113.235.278.559.417.973.417.393 0 .75-.126 1.072-.376.321-.25.562-.585.721-1.003.16-.418.24-1.027.24-1.827zm5.299 3.407l.15 1.456a2.718 2.718 0 0 1-.822.146c-.384 0-.693-.093-.927-.28a1.414 1.414 0 0 1-.482-.764c-.087-.323-.13-.967-.13-1.932v-5.596h-.808v-1.282h.807v-2.408l1.099-.99v3.398h1.113v1.282h-1.113v5.687c0 .526.032.864.097 1.017.095.22.272.33.53.33.125 0 .287-.022.486-.064zm1.039-10.056v-1.895h1.099v1.895zm0 11.53v-9.726h1.099v9.726zm2.37-4.863c0-1.679.287-2.946.863-3.8.575-.855 1.304-1.282 2.186-1.282.867 0 1.592.427 2.175 1.282.583.854.874 2.088.874 3.7 0 1.746-.286 3.046-.86 3.9-.572.855-1.302 1.283-2.189 1.283-.872 0-1.598-.43-2.179-1.287-.58-.858-.87-2.123-.87-3.796zm1.128 0c0 1.258.187 2.193.56 2.807.374.614.838.92 1.39.92.52 0 .964-.31 1.335-.93.371-.619.557-1.551.557-2.797 0-1.251-.187-2.184-.56-2.798-.374-.613-.838-.92-1.39-.92-.524 0-.97.308-1.339.925-.368.617-.553 1.548-.553 2.793zm6.278 4.863v-9.726h.994v1.383c.24-.537.532-.938.879-1.204a1.906 1.906 0 0 1 1.192-.398c.348 0 .671.083.968.251.296.168.535.388.717.66.182.271.318.624.407 1.058.09.433.135 1.098.135 1.996v5.98h-1.106v-5.916c0-.714-.05-1.236-.15-1.566-.1-.33-.255-.585-.467-.765a1.102 1.102 0 0 0-.736-.27c-.528 0-.95.241-1.263.724-.314.482-.471 1.31-.471 2.481v5.312zm14.739-1.2c-.369.47-.752.825-1.151 1.063a2.387 2.387 0 0 1-1.24.357c-.678 0-1.219-.25-1.623-.751-.403-.5-.605-1.175-.605-2.024 0-.562.095-1.06.284-1.493.19-.433.449-.772.777-1.016.33-.244.827-.425 1.495-.54.897-.16 1.555-.349 1.973-.568l.008-.422c0-.665-.097-1.132-.292-1.4-.274-.392-.695-.587-1.263-.587-.513 0-.897.13-1.15.39-.255.259-.442.746-.561 1.46l-1.084-.22c.154-1.044.467-1.804.938-2.28.47-.476 1.145-.714 2.022-.714.682 0 1.218.157 1.607.471.388.315.634.704.736 1.168.102.464.153 1.142.153 2.033v2.198c0 1.538.024 2.507.07 2.907.048.4.142.79.281 1.168h-1.15a4.867 4.867 0 0 1-.225-1.2zm-.09-3.681c-.403.244-1.004.452-1.8.623-.464.097-.788.209-.973.334a1.227 1.227 0 0 0-.43.531 1.927 1.927 0 0 0-.153.792c0 .464.118.835.352 1.113.234.278.558.417.971.417.394 0 .752-.126 1.073-.376.321-.25.562-.585.721-1.003.16-.418.24-1.027.24-1.827zm2.81 4.881v-13.425h1.1v13.425zm2.81-11.53v-1.895h1.1v1.895zm0 11.53v-9.726h1.1v9.726zm2.796 0v-9.726h.987v1.365c.219-.507.5-.898.844-1.172.344-.275.72-.412 1.129-.412.458 0 .845.145 1.162.435.316.29.542.712.676 1.268.26-.568.557-.994.893-1.278a1.692 1.692 0 0 1 1.118-.425c.623 0 1.113.26 1.472.778.359.519.538 1.35.538 2.49v6.677h-1.098v-6.127c0-.696-.042-1.189-.124-1.479-.082-.29-.215-.514-.4-.673a.927.927 0 0 0-.62-.238c-.473 0-.86.23-1.158.692-.3.46-.449 1.186-.449 2.175v5.65H88.11v-6.319c0-.806-.1-1.374-.303-1.703-.201-.33-.48-.495-.833-.495-.503 0-.9.249-1.192.747-.292.497-.437 1.405-.437 2.724v5.046zm14.904-3.132l1.135.21c-.19 1.039-.532 1.822-1.028 2.35a2.425 2.425 0 0 1-1.842.792c-.922 0-1.668-.43-2.238-1.287-.57-.858-.856-2.096-.856-3.713 0-1.68.288-2.96.863-3.842.576-.882 1.304-1.323 2.186-1.323.842 0 1.545.433 2.108 1.3.563.867.845 2.122.845 3.764l-.008.44h-4.858c.045 1.092.252 1.916.62 2.472.37.556.818.833 1.346.833.827 0 1.402-.665 1.726-1.996zm-3.626-2.665h3.633c-.05-.842-.197-1.471-.441-1.886-.354-.605-.805-.907-1.353-.907-.493 0-.915.252-1.263.755-.35.504-.54 1.183-.576 2.038zm6.166 5.797v-9.726h.994v1.383c.24-.537.532-.938.878-1.204a1.906 1.906 0 0 1 1.193-.398c.348 0 .671.083.967.251.297.168.536.388.718.66.182.271.318.624.407 1.058.09.433.135 1.098.135 1.996v5.98h-1.106v-5.916c0-.714-.05-1.236-.15-1.566-.1-.33-.255-.585-.467-.765a1.102 1.102 0 0 0-.736-.27c-.528 0-.95.241-1.263.724-.314.482-.471 1.31-.471 2.481v5.312zm9.455-1.474l.15 1.456a2.718 2.718 0 0 1-.823.146c-.384 0-.692-.093-.927-.28a1.414 1.414 0 0 1-.482-.764c-.087-.323-.13-.967-.13-1.932v-5.596h-.808v-1.282h.808v-2.408l1.098-.99v3.398h1.114v1.282h-1.114v5.687c0 .526.033.864.097 1.017.095.22.272.33.531.33.125 0 .287-.022.486-.064zm5.284.274c-.369.47-.752.825-1.151 1.063a2.387 2.387 0 0 1-1.24.357c-.678 0-1.219-.25-1.623-.751-.403-.5-.605-1.175-.605-2.024 0-.562.095-1.06.284-1.493.19-.433.448-.772.777-1.016.33-.244.827-.425 1.495-.54.897-.16 1.555-.349 1.973-.568l.007-.422c0-.665-.097-1.132-.291-1.4-.274-.392-.695-.587-1.263-.587-.513 0-.897.13-1.151.39-.254.259-.441.746-.56 1.46l-1.084-.22c.154-1.044.467-1.804.938-2.28.47-.476 1.144-.714 2.021-.714.683 0 1.219.157 1.607.471.389.315.634.704.736 1.168.103.464.154 1.142.154 2.033v2.198c0 1.538.023 2.507.07 2.907.048.4.141.79.28 1.168h-1.15a4.867 4.867 0 0 1-.224-1.2zm-.09-3.681c-.403.244-1.004.452-1.801.623-.463.097-.787.209-.972.334a1.227 1.227 0 0 0-.43.531 1.927 1.927 0 0 0-.153.792c0 .464.117.835.352 1.113.234.278.558.417.971.417.394 0 .751-.126 1.073-.376.321-.25.562-.585.721-1.003.16-.418.24-1.027.24-1.827zm2.841-6.649v-1.895h1.098v1.895zm0 11.53v-9.726h1.098v9.726zm2.78 0v-9.726h.994v1.475c.254-.684.487-1.137.699-1.36.211-.223.45-.334.713-.334.369 0 .745.177 1.129.53l-.374 1.53c-.274-.238-.54-.357-.8-.357-.234 0-.448.1-.642.302-.195.202-.332.482-.411.843a9.242 9.242 0 0 0-.21 2.005v5.092zm8.64-3.132l1.136.21c-.19 1.039-.532 1.822-1.028 2.35a2.425 2.425 0 0 1-1.842.792c-.922 0-1.668-.43-2.239-1.287-.57-.858-.856-2.096-.856-3.713 0-1.68.288-2.96.864-3.842.575-.882 1.304-1.323 2.186-1.323.842 0 1.544.433 2.107 1.3.563.867.845 2.122.845 3.764l-.007.44h-4.858c.044 1.092.251 1.916.62 2.472s.817.833 1.345.833c.827 0 1.403-.665 1.727-1.996zm-3.625-2.665h3.632c-.05-.842-.197-1.471-.44-1.886-.355-.605-.806-.907-1.354-.907-.493 0-.914.252-1.263.755-.349.504-.54 1.183-.575 2.038zm9.252.934c0-1.679.288-2.946.864-3.8.575-.855 1.304-1.282 2.186-1.282.867 0 1.592.427 2.175 1.282.583.854.874 2.088.874 3.7 0 1.746-.286 3.046-.86 3.9-.572.855-1.302 1.283-2.19 1.283-.871 0-1.597-.43-2.178-1.287-.58-.858-.87-2.123-.87-3.796zm1.129 0c0 1.258.187 2.193.56 2.807.374.614.838.92 1.39.92.519 0 .964-.31 1.335-.93.371-.619.557-1.551.557-2.797 0-1.251-.187-2.184-.56-2.798-.375-.613-.838-.92-1.391-.92-.523 0-.97.308-1.338.925-.369.617-.553 1.548-.553 2.793zm10.546 4.863v-1.429c-.254.55-.553.962-.897 1.237a1.819 1.819 0 0 1-1.166.412c-.513 0-.952-.17-1.315-.508a2.493 2.493 0 0 1-.73-1.287c-.121-.52-.182-1.227-.182-2.125v-6.026h1.098v5.394c0 1.002.042 1.672.124 2.01.082.34.234.611.456.816.221.204.474.306.758.306.528 0 .962-.265 1.3-.796.29-.458.434-1.298.434-2.519v-5.21h1.106v9.725zm4.551 0l-2.473-9.726h1.166l1.397 5.825c.16.66.3 1.312.419 1.96.094-.513.229-1.13.403-1.85l1.45-5.935h1.136l-2.466 9.726zm8.909-3.132l1.136.21c-.189 1.039-.531 1.822-1.027 2.35a2.425 2.425 0 0 1-1.843.792c-.921 0-1.667-.43-2.238-1.287-.57-.858-.856-2.096-.856-3.713 0-1.68.288-2.96.863-3.842.576-.882 1.305-1.323 2.187-1.323.842 0 1.544.433 2.107 1.3.563.867.845 2.122.845 3.764l-.007.44h-4.858c.044 1.092.251 1.916.62 2.472s.817.833 1.345.833c.827 0 1.403-.665 1.727-1.996zm-3.624-2.665h3.632c-.05-.842-.197-1.471-.441-1.886-.354-.605-.805-.907-1.353-.907-.493 0-.914.252-1.263.755-.349.504-.54 1.183-.575 2.038zm6.166 5.797v-9.726h.994v1.475c.254-.684.487-1.137.698-1.36.212-.223.45-.334.714-.334.369 0 .745.177 1.129.53l-.374 1.53c-.274-.238-.54-.357-.8-.357-.234 0-.448.1-.642.302-.195.202-.332.482-.411.843a9.242 9.242 0 0 0-.21 2.005v5.092zm6.644-1.474l.15 1.456a2.718 2.718 0 0 1-.823.146c-.383 0-.692-.093-.926-.28a1.414 1.414 0 0 1-.483-.764c-.087-.323-.13-.967-.13-1.932v-5.596h-.808v-1.282h.808v-2.408l1.098-.99v3.398h1.114v1.282h-1.114v5.687c0 .526.033.864.097 1.017.095.22.272.33.531.33.125 0 .287-.022.486-.064zm5.493-1.658l1.136.21c-.189 1.039-.532 1.822-1.027 2.35a2.425 2.425 0 0 1-1.843.792c-.921 0-1.668-.43-2.238-1.287-.57-.858-.856-2.096-.856-3.713 0-1.68.288-2.96.863-3.842.576-.882 1.305-1.323 2.187-1.323.842 0 1.544.433 2.107 1.3.563.867.845 2.122.845 3.764l-.007.44h-4.859c.045 1.092.252 1.916.62 2.472.37.556.818.833 1.346.833.827 0 1.403-.665 1.727-1.996zm-3.625-2.665h3.633c-.05-.842-.197-1.471-.441-1.886-.354-.605-.805-.907-1.353-.907-.493 0-.914.252-1.263.755-.349.504-.54 1.183-.576 2.038z" style="line-height:125%;-inkscape-font-specification:'Arial Narrow'" font-weight="400" font-size="16.943" font-family="Arial Narrow" letter-spacing="0" word-spacing="0" fill="#333"/><path fill="none" d="M110 0h5v5h-5z"/><path fill="none" d="M110 0h5v5h-5zM1 140h1v1H1z"/></svg>