<?xml version="1.0" encoding="UTF-8" standalone="no"?>
<!-- Created with Inkscape (http://www.inkscape.org/) -->

<svg
   xmlns:dc="http://purl.org/dc/elements/1.1/"
   xmlns:cc="http://creativecommons.org/ns#"
   xmlns:rdf="http://www.w3.org/1999/02/22-rdf-syntax-ns#"
   xmlns:svg="http://www.w3.org/2000/svg"
   xmlns="http://www.w3.org/2000/svg"
   xmlns:sodipodi="http://sodipodi.sourceforge.net/DTD/sodipodi-0.dtd"
   xmlns:inkscape="http://www.inkscape.org/namespaces/inkscape"
   width="178"
   height="150"
   id="svg8313"
   version="1.1"
   inkscape:version="0.92.2 (5c3e80d, 2017-08-06)"
   sodipodi:docname="openfoodfacts-logo-uk.svg"
   inkscape:export-filename="C:\Users\Stéphane\Desktop\Blogs\OpenFoodFacts\openfoodfacts-logo-712x600.png"
   inkscape:export-xdpi="360"
   inkscape:export-ydpi="360">
  <defs
     id="defs8315" />
  <sodipodi:namedview
     id="base"
     pagecolor="#ffffff"
     bordercolor="#666666"
     borderopacity="1.0"
     inkscape:pageopacity="0.0"
     inkscape:pageshadow="2"
     inkscape:zoom="2.2568164"
     inkscape:cx="-23.140475"
     inkscape:cy="88.739106"
     inkscape:document-units="px"
     inkscape:current-layer="layer1"
     showgrid="true"
     inkscape:window-width="1920"
     inkscape:window-height="1018"
     inkscape:window-x="-8"
     inkscape:window-y="-8"
     inkscape:window-maximized="1"
     inkscape:snap-global="true">
    <inkscape:grid
       type="xygrid"
       id="grid8566" />
  </sodipodi:namedview>
  <metadata
     id="metadata8318">
    <rdf:RDF>
      <cc:Work
         rdf:about="">
        <dc:format>image/svg+xml</dc:format>
        <dc:type
           rdf:resource="http://purl.org/dc/dcmitype/StillImage" />
        <dc:title></dc:title>
      </cc:Work>
    </rdf:RDF>
  </metadata>
  <g
     inkscape:label="Calque 1"
     inkscape:groupmode="layer"
     id="layer1">
    <path
       inkscape:export-ydpi="90"
       inkscape:export-xdpi="90"
       inkscape:export-filename="C:\Users\Stéphane\Desktop\Blogs\OpenFoodFacts\test-178.png"
       inkscape:connector-curvature="0"
       style="fill:#0066ff;fill-opacity:1;fill-rule:nonzero;stroke:none"
       d="m 170,26 0,6.41101 c 1.19571,0.444338 2.21393,1.060483 3,1.761208 L 173,26 Z m 4,0 0,8.312003 1,-0.838676 L 175,26 Z m 2,0 0,6.606702 1,-0.978462 0,11.7694 -1,-1.00641 0,52.60877 2,0 0,-69 z M 174,40.685929 174,95 l 1,0 0,-53.475406 z m -1,0.139774 c -0.78598,0.701951 -1.79569,1.313237 -3,1.76122 L 170,95 l 3,0 z"
       id="path7944"
       sodipodi:nodetypes="ccccccccccccccccccccccccccccc" />
    <path
       inkscape:export-ydpi="90"
       inkscape:export-xdpi="90"
       inkscape:export-filename="C:\Users\Stéphane\Desktop\Blogs\OpenFoodFacts\test-178.png"
       inkscape:connector-curvature="0"
       style="fill:#00ccff;fill-opacity:1;fill-rule:nonzero;stroke:none"
       d="m 154,26 0,69 3,0 0,-53.810872 c -1.32362,-1.014805 -2.12462,-2.271422 -2.12462,-3.662215 0,-1.390781 0.801,-2.675356 2.12462,-3.690161 L 157,26 Z m 4,0 0,7.193768 c 1.12603,-0.642997 2.47034,-1.128715 4,-1.397795 L 162,26 Z m 5,0 0,5.62824 c 0.32965,-0.03644 0.65978,-0.03965 1,-0.05585 l 0,-5.572333 c -0.35153,4.6e-5 -0.64847,-3.3e-5 -1,-5.7e-5 z m 2,0 0,5.544374 c 0.68266,0.0083 1.35814,0.08097 2,0.167733 L 167,26 Z M 158,41.860072 158,95 l 4,0 0,-51.770093 c -1.58676,-0.26883 -2.87451,-0.727732 -4,-1.369835 z m 9,1.481649 c -0.64077,0.08753 -1.31859,0.131652 -2,0.139785 L 165,95 l 2,0 z m -4,0.05597 L 163,95 l 1,0 0,-51.546402 c -0.34022,-0.01632 -0.67076,-0.01941 -1.00041,-0.05585 z"
       id="path7946"
       sodipodi:nodetypes="ccccscccccccccccccccccccccccccccccccccc" />
    <path
       inkscape:export-ydpi="90"
       inkscape:export-xdpi="90"
       inkscape:export-filename="C:\Users\Stéphane\Desktop\Blogs\OpenFoodFacts\test-178.png"
       inkscape:connector-curvature="0"
       id="path7948"
       d="m 150,26 0,69 1,0 0,-69 z"
       style="fill:#00d400;fill-opacity:1;fill-rule:nonzero;stroke:none"
       sodipodi:nodetypes="ccccc" />
    <path
       inkscape:export-ydpi="90"
       inkscape:export-xdpi="90"
       inkscape:export-filename="C:\Users\Stéphane\Desktop\Blogs\OpenFoodFacts\test-178.png"
       inkscape:connector-curvature="0"
       id="path7950"
       d="m 146,26 0,69 3,0 0,-69 z"
       style="fill:#00d400;fill-opacity:1;fill-rule:nonzero;stroke:none"
       sodipodi:nodetypes="ccccc" />
    <path
       inkscape:export-ydpi="90"
       inkscape:export-xdpi="90"
       inkscape:export-filename="C:\Users\Stéphane\Desktop\Blogs\OpenFoodFacts\test-178.png"
       inkscape:connector-curvature="0"
       id="path7952"
       d="m 143,26 0,69 2,0 0,-69 z"
       style="fill:#00d400;fill-opacity:1;fill-rule:nonzero;stroke:none"
       sodipodi:nodetypes="ccccc" />
    <path
       inkscape:export-ydpi="90"
       inkscape:export-xdpi="90"
       inkscape:export-filename="C:\Users\Stéphane\Desktop\Blogs\OpenFoodFacts\test-178.png"
       inkscape:connector-curvature="0"
       id="path7954"
       d="m 141,26 0,69 1,0 0,-69 z"
       style="fill:#00d400;fill-opacity:1;fill-rule:nonzero;stroke:none"
       sodipodi:nodetypes="ccccc" />
    <path
       inkscape:export-ydpi="90"
       inkscape:export-xdpi="90"
       inkscape:export-filename="C:\Users\Stéphane\Desktop\Blogs\OpenFoodFacts\test-178.png"
       inkscape:connector-curvature="0"
       id="path7956"
       d="m 135,24 0,71 3,0 -5e-5,-69 z"
       style="fill:#00d400;fill-opacity:1;fill-rule:nonzero;stroke:none"
       sodipodi:nodetypes="ccccc" />
    <path
       inkscape:export-ydpi="90"
       inkscape:export-xdpi="90"
       inkscape:export-filename="C:\Users\Stéphane\Desktop\Blogs\OpenFoodFacts\test-178.png"
       inkscape:connector-curvature="0"
       id="path7958"
       d="m 132,26 0,69 2,0 -4e-5,-69 z"
       style="fill:#00d400;fill-opacity:1;fill-rule:nonzero;stroke:none"
       sodipodi:nodetypes="ccccc" />
    <path
       inkscape:export-ydpi="90"
       inkscape:export-xdpi="90"
       inkscape:export-filename="C:\Users\Stéphane\Desktop\Blogs\OpenFoodFacts\test-178.png"
       inkscape:connector-curvature="0"
       id="path7960"
       d="m 129,26 0,69 2,0 1e-5,-69 z"
       style="fill:#00d400;fill-opacity:1;fill-rule:nonzero;stroke:none"
       sodipodi:nodetypes="ccccc" />
    <path
       inkscape:export-ydpi="90"
       inkscape:export-xdpi="90"
       inkscape:export-filename="C:\Users\Stéphane\Desktop\Blogs\OpenFoodFacts\test-178.png"
       inkscape:connector-curvature="0"
       id="path7962"
       d="m 125,26 0,69 1,0 5e-5,-69 z"
       style="fill:#00d400;fill-opacity:1;fill-rule:nonzero;stroke:none"
       sodipodi:nodetypes="ccccc" />
    <path
       inkscape:export-ydpi="90"
       inkscape:export-xdpi="90"
       inkscape:export-filename="C:\Users\Stéphane\Desktop\Blogs\OpenFoodFacts\test-178.png"
       inkscape:connector-curvature="0"
       id="path7964"
       d="m 121,26 0,69 1,0 6e-5,-69 z"
       style="fill:#00d400;fill-opacity:1;fill-rule:nonzero;stroke:none"
       sodipodi:nodetypes="ccccc" />
    <path
       inkscape:export-ydpi="90"
       inkscape:export-xdpi="90"
       inkscape:export-filename="C:\Users\Stéphane\Desktop\Blogs\OpenFoodFacts\test-178.png"
       inkscape:connector-curvature="0"
       id="path7966"
       d="m 116,26 0,69 2,0 1e-5,-69 z"
       style="fill:#00d400;fill-opacity:1;fill-rule:nonzero;stroke:none"
       sodipodi:nodetypes="ccccc" />
    <path
       inkscape:export-ydpi="90"
       inkscape:export-xdpi="90"
       inkscape:export-filename="C:\Users\Stéphane\Desktop\Blogs\OpenFoodFacts\test-178.png"
       inkscape:connector-curvature="0"
       id="path7968"
       d="m 112,26 0,69 1,0 -5e-5,-69 z"
       style="fill:#00d400;fill-opacity:1;fill-rule:nonzero;stroke:none"
       sodipodi:nodetypes="ccccc" />
    <path
       inkscape:export-ydpi="90"
       inkscape:export-xdpi="90"
       inkscape:export-filename="C:\Users\Stéphane\Desktop\Blogs\OpenFoodFacts\test-178.png"
       inkscape:connector-curvature="0"
       id="path7970"
       d="m 110,26 0,69 1,0 -5e-5,-69 z"
       style="fill:#00d400;fill-opacity:1;fill-rule:nonzero;stroke:none"
       sodipodi:nodetypes="ccccc" />
    <path
       inkscape:export-ydpi="90"
       inkscape:export-xdpi="90"
       inkscape:export-filename="C:\Users\Stéphane\Desktop\Blogs\OpenFoodFacts\test-178.png"
       inkscape:connector-curvature="0"
       id="path7972"
       d="m 108,26 0,69 1,0 4e-5,-69 z"
       style="fill:#00d400;fill-opacity:1;fill-rule:nonzero;stroke:none"
       sodipodi:nodetypes="ccccc" />
    <path
       inkscape:export-ydpi="90"
       inkscape:export-xdpi="90"
       inkscape:export-filename="C:\Users\Stéphane\Desktop\Blogs\OpenFoodFacts\test-178.png"
       inkscape:connector-curvature="0"
       id="path7974"
       d="m 103,26 0,69 2,0 1e-5,-69 z"
       style="fill:#00d400;fill-opacity:1;fill-rule:nonzero;stroke:none"
       sodipodi:nodetypes="ccccc" />
    <path
       inkscape:export-ydpi="90"
       inkscape:export-xdpi="90"
       inkscape:export-filename="C:\Users\Stéphane\Desktop\Blogs\OpenFoodFacts\test-178.png"
       inkscape:connector-curvature="0"
       id="path7976"
       d="m 99,26 0,69 1,0 0,-69 z"
       style="fill:#00d400;fill-opacity:1;fill-rule:nonzero;stroke:none"
       sodipodi:nodetypes="ccccc" />
    <path
       inkscape:export-ydpi="90"
       inkscape:export-xdpi="90"
       inkscape:export-filename="C:\Users\Stéphane\Desktop\Blogs\OpenFoodFacts\test-178.png"
       inkscape:connector-curvature="0"
       id="path7978"
       d="m 95,26 0.0166,69 0.98337,0 -0.0171,-69 z"
       style="fill:#00d400;fill-opacity:1;fill-rule:nonzero;stroke:none"
       sodipodi:nodetypes="ccccc" />
    <path
       inkscape:export-ydpi="90"
       inkscape:export-xdpi="90"
       inkscape:export-filename="C:\Users\Stéphane\Desktop\Blogs\OpenFoodFacts\test-178.png"
       inkscape:connector-curvature="0"
       id="path7980"
       d="m 90,21 0,74 2,0 0,-74 z"
       style="fill:#ffcc00;fill-opacity:1;fill-rule:nonzero;stroke:none"
       sodipodi:nodetypes="ccccc" />
    <path
       inkscape:export-ydpi="90"
       inkscape:export-xdpi="90"
       inkscape:export-filename="C:\Users\Stéphane\Desktop\Blogs\OpenFoodFacts\test-178.png"
       inkscape:connector-curvature="0"
       id="path7983"
       d="m 88,26 0,69 1,0 0,-69 z"
       style="fill:#ffcc00;fill-opacity:1;fill-rule:nonzero;stroke:none"
       sodipodi:nodetypes="ccccc" />
    <path
       inkscape:export-ydpi="90"
       inkscape:export-xdpi="90"
       inkscape:export-filename="C:\Users\Stéphane\Desktop\Blogs\OpenFoodFacts\test-178.png"
       inkscape:connector-curvature="0"
       id="path7985"
       d="m 85,10 0,85 2,0 0,-85 z"
       style="fill:#ffcc00;fill-opacity:1;fill-rule:nonzero;stroke:none"
       sodipodi:nodetypes="ccccc" />
    <path
       inkscape:export-ydpi="90"
       inkscape:export-xdpi="90"
       inkscape:export-filename="C:\Users\Stéphane\Desktop\Blogs\OpenFoodFacts\test-178.png"
       inkscape:connector-curvature="0"
       id="path7987"
       d="m 81,26 0,69 3,0 4e-6,-69 z"
       style="fill:#ffcc00;fill-opacity:1;fill-rule:nonzero;stroke:none"
       sodipodi:nodetypes="ccccc" />
    <path
       inkscape:export-ydpi="90"
       inkscape:export-xdpi="90"
       inkscape:export-filename="C:\Users\Stéphane\Desktop\Blogs\OpenFoodFacts\test-178.png"
       inkscape:connector-curvature="0"
       id="path7989"
       d="m 77,26 0,69 1,0 3e-6,-69 z"
       style="fill:#ffcc00;fill-opacity:1;fill-rule:nonzero;stroke:none"
       sodipodi:nodetypes="ccccc" />
    <path
       inkscape:export-ydpi="90"
       inkscape:export-xdpi="90"
       inkscape:export-filename="C:\Users\Stéphane\Desktop\Blogs\OpenFoodFacts\test-178.png"
       inkscape:connector-curvature="0"
       id="path7991"
       d="m 74,20 0,75 2,0 -7e-6,-75 z"
       style="fill:#ffcc00;fill-opacity:1;fill-rule:nonzero;stroke:none"
       sodipodi:nodetypes="ccccc" />
    <path
       inkscape:export-ydpi="90"
       inkscape:export-xdpi="90"
       inkscape:export-filename="C:\Users\Stéphane\Desktop\Blogs\OpenFoodFacts\test-178.png"
       inkscape:connector-curvature="0"
       id="path7993"
       d="m 70,26 0,69 3,0 4e-6,-69 z"
       style="fill:#ffcc00;fill-opacity:1;fill-rule:nonzero;stroke:none"
       sodipodi:nodetypes="ccccc" />
    <path
       inkscape:export-ydpi="90"
       inkscape:export-xdpi="90"
       inkscape:export-filename="C:\Users\Stéphane\Desktop\Blogs\OpenFoodFacts\test-178.png"
       inkscape:connector-curvature="0"
       id="path7995"
       d="m 66,26 0,69 1,0 3e-6,-69 z"
       style="fill:#ffcc00;fill-opacity:1;fill-rule:nonzero;stroke:none"
       sodipodi:nodetypes="ccccc" />
    <path
       inkscape:export-ydpi="90"
       inkscape:export-xdpi="90"
       inkscape:export-filename="C:\Users\Stéphane\Desktop\Blogs\OpenFoodFacts\test-178.png"
       inkscape:connector-curvature="0"
       id="path7997"
       d="m 64,26 0,69 1,0 10e-7,-69 z"
       style="fill:#ffcc00;fill-opacity:1;fill-rule:nonzero;stroke:none"
       sodipodi:nodetypes="ccccc" />
    <path
       inkscape:export-ydpi="90"
       inkscape:export-xdpi="90"
       inkscape:export-filename="C:\Users\Stéphane\Desktop\Blogs\OpenFoodFacts\test-178.png"
       inkscape:connector-curvature="0"
       id="path7999"
       d="m 59,26 0.02596,69 1.974042,0 -0.02685,-69 z"
       style="fill:#ffcc00;fill-opacity:1;fill-rule:nonzero;stroke:none"
       sodipodi:nodetypes="ccccc" />
    <path
       inkscape:export-ydpi="90"
       inkscape:export-xdpi="90"
       inkscape:export-filename="C:\Users\Stéphane\Desktop\Blogs\OpenFoodFacts\test-178.png"
       inkscape:connector-curvature="0"
       id="path8001"
       d="m 55,15 0,80 1,0 -9e-6,-80 z"
       style="fill:#ffcc00;fill-opacity:1;fill-rule:nonzero;stroke:none"
       sodipodi:nodetypes="ccccc" />
    <path
       inkscape:export-ydpi="90"
       inkscape:export-xdpi="90"
       inkscape:export-filename="C:\Users\Stéphane\Desktop\Blogs\OpenFoodFacts\test-178.png"
       inkscape:connector-curvature="0"
       id="path8003"
       d="m 52,26 0,69 2,0 3e-6,-69 z"
       style="fill:#ffcc00;fill-opacity:1;fill-rule:nonzero;stroke:none"
       sodipodi:nodetypes="ccccc" />
    <path
       inkscape:export-ydpi="90"
       inkscape:export-xdpi="90"
       inkscape:export-filename="C:\Users\Stéphane\Desktop\Blogs\OpenFoodFacts\test-178.png"
       inkscape:connector-curvature="0"
       id="path8005"
       d="m 46,26 0,69 3,0 -7e-6,-69 z"
       style="fill:#ffcc00;fill-opacity:1;fill-rule:nonzero;stroke:none"
       sodipodi:nodetypes="ccccc" />
    <path
       inkscape:export-ydpi="90"
       inkscape:export-xdpi="90"
       inkscape:export-filename="C:\Users\Stéphane\Desktop\Blogs\OpenFoodFacts\test-178.png"
       inkscape:connector-curvature="0"
       id="path8007"
       d="m 44,26 0,69 1,0 10e-7,-69 z"
       style="fill:#ffcc00;fill-opacity:1;fill-rule:nonzero;stroke:none"
       sodipodi:nodetypes="ccccc" />
    <path
       inkscape:export-ydpi="90"
       inkscape:export-xdpi="90"
       inkscape:export-filename="C:\Users\Stéphane\Desktop\Blogs\OpenFoodFacts\test-178.png"
       inkscape:connector-curvature="0"
       id="path8009"
       d="m 40,26 0,69 1,0 2e-6,-69 z"
       style="fill:#ffcc00;fill-opacity:1;fill-rule:nonzero;stroke:none"
       sodipodi:nodetypes="ccccc" />
    <path
       inkscape:export-ydpi="90"
       inkscape:export-xdpi="90"
       inkscape:export-filename="C:\Users\Stéphane\Desktop\Blogs\OpenFoodFacts\test-178.png"
       inkscape:connector-curvature="0"
       id="path8011"
       d="m 37,26 0,69 2,0 4e-6,-69 z"
       style="fill:#ffcc00;fill-opacity:1;fill-rule:nonzero;stroke:none"
       sodipodi:nodetypes="ccccc" />
    <path
       inkscape:export-ydpi="90"
       inkscape:export-xdpi="90"
       inkscape:export-filename="C:\Users\Stéphane\Desktop\Blogs\OpenFoodFacts\test-178.png"
       inkscape:connector-curvature="0"
       id="path8013"
       d="m 33,20 0,75 1,0 -7e-6,-75 z"
       style="fill:#ff0000;fill-opacity:1;fill-rule:nonzero;stroke:none"
       sodipodi:nodetypes="ccccc" />
    <path
       inkscape:export-ydpi="90"
       inkscape:export-xdpi="90"
       inkscape:export-filename="C:\Users\Stéphane\Desktop\Blogs\OpenFoodFacts\test-178.png"
       inkscape:connector-curvature="0"
       id="path8015"
       d="m 30,19 0,76 2,0 4e-6,-76 z"
       style="fill:#ff0000;fill-opacity:1;fill-rule:nonzero;stroke:none"
       sodipodi:nodetypes="ccccc" />
    <path
       inkscape:export-ydpi="90"
       inkscape:export-xdpi="90"
       inkscape:export-filename="C:\Users\Stéphane\Desktop\Blogs\OpenFoodFacts\test-178.png"
       inkscape:connector-curvature="0"
       id="path8017"
       d="m 26,26 0,69 3,0 0,-69 z"
       style="fill:#ff0000;fill-opacity:1;fill-rule:nonzero;stroke:none"
       sodipodi:nodetypes="ccccc" />
    <path
       inkscape:export-ydpi="90"
       inkscape:export-xdpi="90"
       inkscape:export-filename="C:\Users\Stéphane\Desktop\Blogs\OpenFoodFacts\test-178.png"
       inkscape:connector-curvature="0"
       id="path8019"
       d="m 22,26 0,69 3,0 -5e-6,-69 z"
       style="fill:#ff0000;fill-opacity:1;fill-rule:nonzero;stroke:none"
       sodipodi:nodetypes="ccccc" />
    <path
       inkscape:export-ydpi="90"
       inkscape:export-xdpi="90"
       inkscape:export-filename="C:\Users\Stéphane\Desktop\Blogs\OpenFoodFacts\test-178.png"
       inkscape:connector-curvature="0"
       id="path8021"
       d="m 19,20 0,75 2,0 -8.6e-5,-75 z"
       style="fill:#ff0000;fill-opacity:1;fill-rule:nonzero;stroke:none"
       sodipodi:nodetypes="ccccc" />
    <path
       inkscape:export-ydpi="90"
       inkscape:export-xdpi="90"
       inkscape:export-filename="C:\Users\Stéphane\Desktop\Blogs\OpenFoodFacts\test-178.png"
       inkscape:connector-curvature="0"
       id="path8023"
       d="m 15,21 0,74 3,0 -3.5e-5,-74 z"
       style="fill:#ff0000;fill-opacity:1;fill-rule:nonzero;stroke:none"
       sodipodi:nodetypes="ccccc" />
    <path
       inkscape:export-ydpi="90"
       inkscape:export-xdpi="90"
       inkscape:export-filename="C:\Users\Stéphane\Desktop\Blogs\OpenFoodFacts\test-178.png"
       inkscape:connector-curvature="0"
       id="path8025"
       d="m 11,26 0,69 1,0 -4.9e-5,-69 z"
       style="fill:#ff0000;fill-opacity:1;fill-rule:nonzero;stroke:none"
       sodipodi:nodetypes="ccccc" />
    <path
       inkscape:export-ydpi="90"
       inkscape:export-xdpi="90"
       inkscape:export-filename="C:\Users\Stéphane\Desktop\Blogs\OpenFoodFacts\test-178.png"
       inkscape:connector-curvature="0"
       id="path8027"
       d="M 8,26 8,95 9,95 9,26 Z"
       style="fill:#ff0000;fill-opacity:1;fill-rule:nonzero;stroke:none"
       sodipodi:nodetypes="ccccc" />
    <path
       inkscape:export-ydpi="90"
       inkscape:export-xdpi="90"
       inkscape:export-filename="C:\Users\Stéphane\Desktop\Blogs\OpenFoodFacts\test-178.png"
       inkscape:connector-curvature="0"
       id="path8029"
       d="m 3,26 0,69 0.999563,0 0,-69 z"
       style="fill:#ff0000;fill-opacity:1;fill-rule:nonzero;stroke:none"
       sodipodi:nodetypes="ccccc" />
    <path
       inkscape:export-ydpi="90"
       inkscape:export-xdpi="90"
       inkscape:export-filename="C:\Users\Stéphane\Desktop\Blogs\OpenFoodFacts\test-178.png"
       inkscape:connector-curvature="0"
       id="path8031"
       d="m 1.3e-5,26 0,69 2,0 0,-69 z"
       style="fill:#ff0000;fill-opacity:1;fill-rule:nonzero;stroke:none"
       sodipodi:nodetypes="ccccc" />
    <path
       sodipodi:nodetypes="csssacccccssscccsccccc"
       inkscape:connector-curvature="0"
       id="path8033"
       d="m 12.96037,20.168037 c 0.62972,-0.815576 0.719123,-2.676154 1.281409,-4.358843 0.405305,-1.212926 0.463533,-4.596987 1.208651,-4.882429 0.96834,-0.370951 3.169601,-0.358079 4.223988,-0.416629 2.300059,-0.127699 4.518931,1.098659 6.822539,1.101136 2.990853,0.0036 8.861008,-1.410596 8.861008,-1.410596 l -0.140119,-2.038826 1.505607,0.278059 4.07695,-0.516905 -3.008404,1.386137 c 0,0 1.201864,-0.02108 1.688022,0.276832 0.705048,0.432109 0.959994,1.347377 1.46892,1.999162 0.291967,0.373928 1.082477,0.65438 0.908337,1.095671 -0.469844,1.190611 -3.808977,0.485944 -3.808977,0.485944 l -1.918736,1.803326 c -0.833009,1.778987 -2.26137,3.261839 -2.253596,6.722383 0,0 -6.006891,-0.923008 -8.991183,-0.79663 -1.764007,0.07466 -4.968974,0.618073 -4.968974,0.618073 -1.608718,-0.13719 -3.296502,-0.529063 -4.905219,-0.24954 0.0095,-6.235485 0.866683,-6.128862 0.69876,-9.294821 -0.439183,1.679986 -0.971056,4.516551 -1.026843,5.772464 -0.534756,1.525804 -0.01191,1.899672 -1.72214,2.426032 z"
       style="fill:#ff0000;fill-opacity:1"
       inkscape:export-filename="C:\Users\Stéphane\Desktop\Blogs\OpenFoodFacts\test-178.png"
       inkscape:export-xdpi="90"
       inkscape:export-ydpi="90" />
    <g
       style="fill:#ffcc00"
       transform="matrix(0.01488015,-0.01147672,0.01147672,0.01488015,39.17529,7.567521)"
       id="g8035"
       inkscape:export-filename="C:\Users\Stéphane\Desktop\Blogs\OpenFoodFacts\test-178.png"
       inkscape:export-xdpi="90"
       inkscape:export-ydpi="90">
      <ellipse
         ry="32.857143"
         rx="65.714287"
         cy="762.36218"
         cx="567.14288"
         style="fill:#ffcc00;fill-opacity:1;stroke:none"
         id="path8037"
         transform="matrix(0.58270937,-0.81268061,0.81268061,0.58270937,-465.7507,809.03262)" />
      <path
         style="fill:#ffcc00;fill-opacity:1;stroke:none"
         d="m 494.28571,741.6479 c 0,0 14.40901,-2.31616 20.71429,-5.71428 22.08801,-11.90395 53.57143,-52.85715 53.57143,-52.85715 0,0 -33.14169,43.13867 -40,64.99999 -2.07174,6.60382 -1.42857,20.71429 -1.42857,20.71429 z"
         id="path8039"
         inkscape:connector-curvature="0"
         sodipodi:nodetypes="cscscc" />
    </g>
    <g
       transform="matrix(0.89458574,0,0,0.89458574,-468.13007,-644.42698)"
       id="g8041"
       inkscape:export-filename="C:\Users\Stéphane\Desktop\Blogs\OpenFoodFacts\test-178.png"
       inkscape:export-xdpi="90"
       inkscape:export-ydpi="90">
      <g
         id="g8043"
         transform="translate(-9.5459416,1.1490485)"
         style="fill:#ffcc00">
        <g
           transform="matrix(0.02100622,0,0,0.02100622,586.13922,725.53281)"
           id="g8045"
           style="fill:#ffcc00">
          <ellipse
             ry="32.857143"
             rx="65.714287"
             cy="762.36218"
             cx="567.14288"
             style="fill:#ffcc00;fill-opacity:1;stroke:none"
             id="path8047"
             transform="matrix(0.58270937,-0.81268061,0.81268061,0.58270937,-465.7507,809.03262)" />
          <path
             style="fill:#ffcc00;fill-opacity:1;stroke:none"
             d="m 494.28571,741.6479 c 0,0 14.40901,-2.31616 20.71429,-5.71428 22.08801,-11.90395 53.57143,-52.85715 53.57143,-52.85715 0,0 -33.14169,43.13867 -40,64.99999 -2.07174,6.60382 -1.42857,20.71429 -1.42857,20.71429 z"
             id="path8049"
             inkscape:connector-curvature="0"
             sodipodi:nodetypes="cscscc" />
        </g>
        <g
           transform="matrix(0.02100622,0,0,0.02100622,586.13922,727.5359)"
           id="g8051"
           style="fill:#ffcc00">
          <ellipse
             ry="32.857143"
             rx="65.714287"
             cy="762.36218"
             cx="567.14288"
             style="fill:#ffcc00;fill-opacity:1;stroke:none"
             id="path8053"
             transform="matrix(0.58270937,-0.81268061,0.81268061,0.58270937,-465.7507,809.03262)" />
          <path
             style="fill:#ffcc00;fill-opacity:1;stroke:none"
             d="m 494.28571,741.6479 c 0,0 14.40901,-2.31616 20.71429,-5.71428 22.08801,-11.90395 53.57143,-52.85715 53.57143,-52.85715 0,0 -33.14169,43.13867 -40,64.99999 -2.07174,6.60382 -1.42857,20.71429 -1.42857,20.71429 z"
             id="path8055"
             inkscape:connector-curvature="0"
             sodipodi:nodetypes="cscscc" />
        </g>
        <g
           transform="matrix(0.02100622,0,0,0.02100622,586.13922,723.52972)"
           id="g8057"
           style="fill:#ffcc00">
          <ellipse
             ry="32.857143"
             rx="65.714287"
             cy="762.36218"
             cx="567.14288"
             style="fill:#ffcc00;fill-opacity:1;stroke:none"
             id="path8059"
             transform="matrix(0.58270937,-0.81268061,0.81268061,0.58270937,-465.7507,809.03262)" />
          <path
             style="fill:#ffcc00;fill-opacity:1;stroke:none"
             d="m 494.28571,741.6479 c 0,0 14.40901,-2.31616 20.71429,-5.71428 22.08801,-11.90395 53.57143,-52.85715 53.57143,-52.85715 0,0 -33.14169,43.13867 -40,64.99999 -2.07174,6.60382 -1.42857,20.71429 -1.42857,20.71429 z"
             id="path8061"
             inkscape:connector-curvature="0"
             sodipodi:nodetypes="cscscc" />
        </g>
        <g
           transform="matrix(0.02100622,0,0,0.02100622,586.13922,721.52662)"
           id="g8063"
           style="fill:#ffcc00">
          <ellipse
             ry="32.857143"
             rx="65.714287"
             cy="762.36218"
             cx="567.14288"
             style="fill:#ffcc00;fill-opacity:1;stroke:none"
             id="path8065"
             transform="matrix(0.58270937,-0.81268061,0.81268061,0.58270937,-465.7507,809.03262)" />
          <path
             style="fill:#ffcc00;fill-opacity:1;stroke:none"
             d="m 494.28571,741.6479 c 0,0 14.40901,-2.31616 20.71429,-5.71428 22.08801,-11.90395 53.57143,-52.85715 53.57143,-52.85715 0,0 -33.14169,43.13867 -40,64.99999 -2.07174,6.60382 -1.42857,20.71429 -1.42857,20.71429 z"
             id="path8067"
             inkscape:connector-curvature="0"
             sodipodi:nodetypes="cscscc" />
        </g>
        <g
           transform="matrix(0.02064274,-0.0038908,0.0038908,0.02064274,583.1049,721.64932)"
           id="g8069"
           style="fill:#ffcc00">
          <ellipse
             ry="32.857143"
             rx="65.714287"
             cy="762.36218"
             cx="567.14288"
             style="fill:#ffcc00;fill-opacity:1;stroke:none"
             id="path8071"
             transform="matrix(0.58270937,-0.81268061,0.81268061,0.58270937,-465.7507,809.03262)" />
          <path
             style="fill:#ffcc00;fill-opacity:1;stroke:none"
             d="m 494.28571,741.6479 c 0,0 14.40901,-2.31616 20.71429,-5.71428 22.08801,-11.90395 53.57143,-52.85715 53.57143,-52.85715 0,0 -33.14169,43.13867 -40,64.99999 -2.07174,6.60382 -1.42857,20.71429 -1.42857,20.71429 z"
             id="path8073"
             inkscape:connector-curvature="0"
             sodipodi:nodetypes="cscscc" />
        </g>
      </g>
      <g
         id="g8075"
         style="fill:#ffcc00"
         transform="translate(-10.253048,1.1490485)">
        <g
           transform="matrix(-0.02100622,0,0,0.02100622,604.26937,725.53281)"
           id="g8077"
           style="fill:#ffcc00">
          <ellipse
             ry="32.857143"
             rx="65.714287"
             cy="762.36218"
             cx="567.14288"
             style="fill:#ffcc00;fill-opacity:1;stroke:none"
             id="path8079"
             transform="matrix(0.58270937,-0.81268061,0.81268061,0.58270937,-465.7507,809.03262)" />
          <path
             style="fill:#ffcc00;fill-opacity:1;stroke:none"
             d="m 494.28571,741.6479 c 0,0 14.40901,-2.31616 20.71429,-5.71428 22.08801,-11.90395 53.57143,-52.85715 53.57143,-52.85715 0,0 -33.14169,43.13867 -40,64.99999 -2.07174,6.60382 -1.42857,20.71429 -1.42857,20.71429 z"
             id="path8081"
             inkscape:connector-curvature="0"
             sodipodi:nodetypes="cscscc" />
        </g>
        <g
           transform="matrix(-0.02100622,0,0,0.02100622,604.26938,727.5359)"
           id="g8083"
           style="fill:#ffcc00">
          <ellipse
             ry="32.857143"
             rx="65.714287"
             cy="762.36218"
             cx="567.14288"
             style="fill:#ffcc00;fill-opacity:1;stroke:none"
             id="path8085"
             transform="matrix(0.58270937,-0.81268061,0.81268061,0.58270937,-465.7507,809.03262)" />
          <path
             style="fill:#ffcc00;fill-opacity:1;stroke:none"
             d="m 494.28571,741.6479 c 0,0 14.40901,-2.31616 20.71429,-5.71428 22.08801,-11.90395 53.57143,-52.85715 53.57143,-52.85715 0,0 -33.14169,43.13867 -40,64.99999 -2.07174,6.60382 -1.42857,20.71429 -1.42857,20.71429 z"
             id="path8087"
             inkscape:connector-curvature="0"
             sodipodi:nodetypes="cscscc" />
        </g>
        <g
           transform="matrix(-0.02100622,0,0,0.02100622,604.26938,723.52972)"
           id="g8089"
           style="fill:#ffcc00">
          <ellipse
             ry="32.857143"
             rx="65.714287"
             cy="762.36218"
             cx="567.14288"
             style="fill:#ffcc00;fill-opacity:1;stroke:none"
             id="path8091"
             transform="matrix(0.58270937,-0.81268061,0.81268061,0.58270937,-465.7507,809.03262)" />
          <path
             style="fill:#ffcc00;fill-opacity:1;stroke:none"
             d="m 494.28571,741.6479 c 0,0 14.40901,-2.31616 20.71429,-5.71428 22.08801,-11.90395 53.57143,-52.85715 53.57143,-52.85715 0,0 -33.14169,43.13867 -40,64.99999 -2.07174,6.60382 -1.42857,20.71429 -1.42857,20.71429 z"
             id="path8093"
             inkscape:connector-curvature="0"
             sodipodi:nodetypes="cscscc" />
        </g>
        <g
           transform="matrix(-0.02100622,0,0,0.02100622,604.26937,721.52662)"
           id="g8095"
           style="fill:#ffcc00">
          <ellipse
             ry="32.857143"
             rx="65.714287"
             cy="762.36218"
             cx="567.14288"
             style="fill:#ffcc00;fill-opacity:1;stroke:none"
             id="path8097"
             transform="matrix(0.58270937,-0.81268061,0.81268061,0.58270937,-465.7507,809.03262)" />
          <path
             style="fill:#ffcc00;fill-opacity:1;stroke:none"
             d="m 494.28571,741.6479 c 0,0 14.40901,-2.31616 20.71429,-5.71428 22.08801,-11.90395 53.57143,-52.85715 53.57143,-52.85715 0,0 -33.14169,43.13867 -40,64.99999 -2.07174,6.60382 -1.42857,20.71429 -1.42857,20.71429 z"
             id="path8099"
             inkscape:connector-curvature="0"
             sodipodi:nodetypes="cscscc" />
        </g>
        <g
           transform="matrix(-0.02064274,-0.0038908,-0.0038908,0.02064274,607.30369,721.64932)"
           id="g8101"
           style="fill:#ffcc00">
          <ellipse
             ry="32.857143"
             rx="65.714287"
             cy="762.36218"
             cx="567.14288"
             style="fill:#ffcc00;fill-opacity:1;stroke:none"
             id="path8103"
             transform="matrix(0.58270937,-0.81268061,0.81268061,0.58270937,-465.7507,809.03262)" />
          <path
             style="fill:#ffcc00;fill-opacity:1;stroke:none"
             d="m 494.28571,741.6479 c 0,0 14.40901,-2.31616 20.71429,-5.71428 22.08801,-11.90395 53.57143,-52.85715 53.57143,-52.85715 0,0 -33.14169,43.13867 -40,64.99999 -2.07174,6.60382 -1.42857,20.71429 -1.42857,20.71429 z"
             id="path8105"
             inkscape:connector-curvature="0"
             sodipodi:nodetypes="cscscc" />
        </g>
      </g>
    </g>
    <g
       id="g8107"
       transform="matrix(0.485552,-0.55754244,0.55754244,0.485552,-616.03955,-2.5771103)"
       inkscape:export-filename="C:\Users\Stéphane\Desktop\Blogs\OpenFoodFacts\test-178.png"
       inkscape:export-xdpi="90"
       inkscape:export-ydpi="90">
      <circle
         r="2.5"
         cy="732.36218"
         cx="608"
         style="fill:#ffcc00;fill-opacity:1"
         id="path8109"
         transform="translate(1.5,9.75)" />
      <circle
         r="2.5"
         cy="732.36218"
         cx="608"
         id="path8111"
         style="fill:#ffcc00;fill-opacity:1"
         inkscape:transform-center-x="-3.1501887"
         inkscape:transform-center-y="-1.6050895"
         transform="matrix(0.30901699,-0.95105652,0.95105652,0.30901699,-274.24997,1089.9371)" />
      <circle
         r="2.5"
         cy="732.36218"
         cx="608"
         transform="matrix(-0.809017,-0.58778525,0.58778525,-0.809017,667.85758,1685.9871)"
         inkscape:transform-center-y="-3.4919705"
         inkscape:transform-center-x="0.5530674"
         style="fill:#ffcc00;fill-opacity:1"
         id="path8113" />
      <circle
         r="2.5"
         cy="732.36218"
         cx="608"
         id="path8115"
         style="fill:#ffcc00;fill-opacity:1"
         inkscape:transform-center-x="3.4919258"
         inkscape:transform-center-y="-0.5530731"
         transform="matrix(-0.80901699,0.58778526,-0.58778526,-0.80901699,1525.8621,974.17912)" />
      <circle
         r="2.5"
         cy="732.36218"
         cx="608"
         transform="matrix(0.309017,0.95105651,-0.95105651,0.309017,1114.0304,-61.792435)"
         inkscape:transform-center-y="3.1501051"
         inkscape:transform-center-x="1.6050854"
         style="fill:#ffcc00;fill-opacity:1"
         id="path8117" />
    </g>
    <g
       transform="matrix(-0.6491698,-0.35382606,0.35382606,-0.6491698,218.16484,702.9075)"
       id="g8119"
       inkscape:export-filename="C:\Users\Stéphane\Desktop\Blogs\OpenFoodFacts\test-178.png"
       inkscape:export-xdpi="90"
       inkscape:export-ydpi="90">
      <circle
         r="2.5"
         cy="732.36218"
         cx="608"
         transform="translate(1.5,9.75)"
         id="path8121"
         style="fill:#ffcc00;fill-opacity:1" />
      <circle
         r="2.5"
         cy="732.36218"
         cx="608"
         transform="matrix(0.30901699,-0.95105652,0.95105652,0.30901699,-274.24997,1089.9371)"
         inkscape:transform-center-y="-1.6050895"
         inkscape:transform-center-x="-3.1501887"
         style="fill:#ffcc00;fill-opacity:1"
         id="path8123" />
      <circle
         r="2.5"
         cy="732.36218"
         cx="608"
         id="path8125"
         style="fill:#ffcc00;fill-opacity:1"
         inkscape:transform-center-x="0.5530674"
         inkscape:transform-center-y="-3.4919705"
         transform="matrix(-0.809017,-0.58778525,0.58778525,-0.809017,667.85758,1685.9871)" />
      <circle
         r="2.5"
         cy="732.36218"
         cx="608"
         transform="matrix(-0.80901699,0.58778526,-0.58778526,-0.80901699,1525.8621,974.17912)"
         inkscape:transform-center-y="-0.5530731"
         inkscape:transform-center-x="3.4919258"
         style="fill:#ffcc00;fill-opacity:1"
         id="path8127" />
      <circle
         r="2.5"
         cy="732.36218"
         cx="608"
         id="path8129"
         style="fill:#ffcc00;fill-opacity:1"
         inkscape:transform-center-x="1.6050854"
         inkscape:transform-center-y="3.1501051"
         transform="matrix(0.309017,0.95105651,-0.95105651,0.309017,1114.0304,-61.792435)" />
    </g>
    <g
       id="g8131"
       transform="matrix(0.31450273,-0.66910564,0.66910564,0.31450273,-610.58237,190.80877)"
       inkscape:export-filename="C:\Users\Stéphane\Desktop\Blogs\OpenFoodFacts\test-178.png"
       inkscape:export-xdpi="90"
       inkscape:export-ydpi="90">
      <circle
         r="2.5"
         cy="732.36218"
         cx="608"
         style="fill:#ffcc00;fill-opacity:1"
         id="path8133"
         transform="translate(1.5,9.75)" />
      <circle
         r="2.5"
         cy="732.36218"
         cx="608"
         id="path8135"
         style="fill:#ffcc00;fill-opacity:1"
         inkscape:transform-center-x="-3.1501887"
         inkscape:transform-center-y="-1.6050895"
         transform="matrix(0.30901699,-0.95105652,0.95105652,0.30901699,-274.24997,1089.9371)" />
      <circle
         r="2.5"
         cy="732.36218"
         cx="608"
         transform="matrix(-0.809017,-0.58778525,0.58778525,-0.809017,667.85758,1685.9871)"
         inkscape:transform-center-y="-3.4919705"
         inkscape:transform-center-x="0.5530674"
         style="fill:#ffcc00;fill-opacity:1"
         id="path8137" />
      <circle
         r="2.5"
         cy="732.36218"
         cx="608"
         id="path8139"
         style="fill:#ffcc00;fill-opacity:1"
         inkscape:transform-center-x="3.4919258"
         inkscape:transform-center-y="-0.5530731"
         transform="matrix(-0.80901699,0.58778526,-0.58778526,-0.80901699,1525.8621,974.17912)" />
      <circle
         r="2.5"
         cy="732.36218"
         cx="608"
         transform="matrix(0.309017,0.95105651,-0.95105651,0.309017,1114.0304,-61.792435)"
         inkscape:transform-center-y="3.1501051"
         inkscape:transform-center-x="1.6050854"
         style="fill:#ffcc00;fill-opacity:1"
         id="path8141" />
    </g>
    <path
       style="fill:#00d400;fill-opacity:1;fill-rule:nonzero;stroke:none"
       d="M 122.44657,6.33728 C 131.63587,7.287033 135.07702,14.767884 135,28 l 2.96392,-1.398609 c 0,-1.461895 -0.0255,-1.249361 -0.0255,-2.711244 0,-10.866897 -6.40398,-17.274677 -10.91182,-18.343579 z"
       id="path8143"
       inkscape:connector-curvature="0"
       inkscape:export-filename="C:\Users\Stéphane\Desktop\Blogs\OpenFoodFacts\test-178.png"
       inkscape:export-xdpi="90"
       inkscape:export-ydpi="90"
       sodipodi:nodetypes="cccscc" />
    <g
       transform="matrix(0.89458574,0,0,0.89458574,-468.09845,-644.42698)"
       id="g8145"
       inkscape:export-filename="C:\Users\Stéphane\Desktop\Blogs\OpenFoodFacts\test-178.png"
       inkscape:export-xdpi="90"
       inkscape:export-ydpi="90">
      <g
         transform="translate(-0.6875,-0.0625)"
         id="g8147">
        <path
           sodipodi:nodetypes="ccc"
           inkscape:connector-curvature="0"
           id="path8149"
           d="m 646.11882,744.69741 c 9.98853,-2.85699 22.36057,-3.40732 20.1894,-18.03175 -19.13147,-9.00363 -12.68327,7.89971 -20.1894,18.03175 z"
           style="fill:#00d400;stroke:none" />
        <path
           sodipodi:nodetypes="ccc"
           inkscape:connector-curvature="0"
           id="path8151"
           d="m 667.50879,725.1485 c -4.96993,6.86401 -15.79612,16.96445 -22.45063,19.97578 6.6817,-2.48508 19.65127,-12.66443 22.45063,-19.97578 z"
           style="fill:#ffffff;fill-opacity:1;stroke:none" />
      </g>
    </g>
    <g
       id="g8153"
       transform="matrix(0.73729109,0.50664139,0.50664139,-0.73729109,-728.9281,199.42539)"
       inkscape:export-filename="C:\Users\Stéphane\Desktop\Blogs\OpenFoodFacts\test-178.png"
       inkscape:export-xdpi="90"
       inkscape:export-ydpi="90">
      <g
         transform="matrix(-0.85351374,-0.52107033,0.52107033,-0.85351374,864.58887,1695.2445)"
         id="g8155">
        <g
           transform="translate(-0.6875,-0.0625)"
           id="g8157">
          <path
             sodipodi:nodetypes="ccc"
             inkscape:connector-curvature="0"
             id="path8159"
             d="m 646.11882,744.69741 c 9.98853,-2.85699 22.36057,-3.40732 20.1894,-18.03175 -19.99874,-7.24796 -12.68327,7.89971 -20.1894,18.03175 z"
             style="fill:#00d400;stroke:none" />
          <path
             sodipodi:nodetypes="ccc"
             inkscape:connector-curvature="0"
             id="path8161"
             d="m 667.50879,725.1485 c -4.96993,6.86401 -15.79612,16.96445 -22.45063,19.97578 6.6817,-2.48508 19.65127,-12.66443 22.45063,-19.97578 z"
             style="fill:#ffffff;fill-opacity:1;stroke:none" />
        </g>
      </g>
    </g>
    <path
       sodipodi:nodetypes="cccscc"
       inkscape:export-ydpi="90"
       inkscape:export-xdpi="90"
       inkscape:export-filename="C:\Users\Stéphane\Desktop\Blogs\OpenFoodFacts\test-178.png"
       inkscape:connector-curvature="0"
       id="path8163"
       d="M 137.87818,4.60402 C 135.88514,6.168809 135.07702,14.767884 135,28 l 2.96392,-1.398609 c 0,-1.461895 0.0361,1.860492 0.0361,0.398609 0,-10.866897 0.85886,-19.322201 1.21536,-21.117966 z"
       style="fill:#00d400;fill-opacity:1;fill-rule:nonzero;stroke:none" />
    <circle
       r="0.94885141"
       cy="35.27636"
       cx="159.09236"
       inkscape:export-ydpi="90"
       inkscape:export-xdpi="90"
       inkscape:export-filename="C:\Users\Stéphane\Desktop\Blogs\OpenFoodFacts\test-178.png"
       style="fill:#00ccff;fill-opacity:1;stroke:none"
       id="path8165" />
    <path
       sodipodi:nodetypes="cccccc"
       inkscape:export-ydpi="90"
       inkscape:export-xdpi="90"
       inkscape:export-filename="C:\Users\Stéphane\Desktop\Blogs\OpenFoodFacts\test-178.png"
       id="path8169"
       d="m 170.00004,118 0,5 c 2.66569,0 5.33424,0 7.99992,0 l 0,-5 c -2.66568,0 -5.33423,0 -7.99983,0 z"
       style="fill:#0066ff;fill-opacity:1;fill-rule:nonzero;stroke:none"
       inkscape:connector-curvature="0" />
    <path
       sodipodi:nodetypes="ccccc"
       inkscape:export-ydpi="90"
       inkscape:export-xdpi="90"
       inkscape:export-filename="C:\Users\Stéphane\Desktop\Blogs\OpenFoodFacts\test-178.png"
       id="path8171"
       d="m 154.00001,118 0,5 c 4.33407,0 8.6659,0 12.99997,0 l 0,-5 c -4.33407,0 -8.6659,0 -12.99997,0 z"
       style="fill:#00ccff;fill-opacity:1;fill-rule:nonzero;stroke:none"
       inkscape:connector-curvature="0" />
    <path
       sodipodi:nodetypes="ccccc"
       inkscape:export-ydpi="90"
       inkscape:export-xdpi="90"
       inkscape:export-filename="C:\Users\Stéphane\Desktop\Blogs\OpenFoodFacts\test-178.png"
       id="path8173"
       d="m 95,118 0,5 c 18.6596,0 37.34041,0 56.00004,0 l 0,-5 C 132.34041,118 113.6596,118 95,118 Z"
       style="fill:#00d400;fill-opacity:1;fill-rule:nonzero;stroke:none"
       inkscape:connector-curvature="0" />
    <path
       sodipodi:nodetypes="ccccc"
       inkscape:export-ydpi="90"
       inkscape:export-xdpi="90"
       inkscape:export-filename="C:\Users\Stéphane\Desktop\Blogs\OpenFoodFacts\test-178.png"
       id="path8175"
       d="m 36.999996,118 0,5 C 55.333383,123 73.666619,123 92,123 l 0,-5 c -18.333381,0 -36.666617,0 -55.000004,0 z"
       style="fill:#ffcc00;fill-opacity:1;fill-rule:nonzero;stroke:none"
       inkscape:connector-curvature="0" />
    <path
       sodipodi:nodetypes="ccccc"
       inkscape:export-ydpi="90"
       inkscape:export-xdpi="90"
       inkscape:export-filename="C:\Users\Stéphane\Desktop\Blogs\OpenFoodFacts\test-178.png"
       id="path8177"
       d="m 0,118 0,5 c 11.333706,0 22.666301,0 33.999997,0 l 0,-5 C 22.666301,118 11.333706,118 0,118 Z"
       style="fill:#ff0000;fill-opacity:1;fill-rule:nonzero;stroke:none"
       inkscape:connector-curvature="0" />
    <g
       style="font-style:normal;font-variant:normal;font-weight:normal;font-stretch:normal;font-size:32.81705093px;line-height:125%;font-family:'Arial Narrow';-inkscape-font-specification:'Arial Narrow';letter-spacing:0px;word-spacing:0px;fill:#333333;fill-opacity:1;stroke:none"
       id="text8179"
       inkscape:export-filename="C:\Users\Stéphane\Desktop\Blogs\OpenFoodFacts\test-178.png"
       inkscape:export-xdpi="90"
       inkscape:export-ydpi="90"
       transform="translate(0,2.637817)">
      <path
         inkscape:connector-curvature="0"
         d="m 0.29533203,104.18406 c -9.5e-7,-2.79573 0.61506181,-4.944723 1.84519007,-6.446982 1.2301228,-1.50223 2.7621882,-2.253352 4.5962009,-2.253369 1.1853862,1.7e-5 2.2664056,0.335506 3.2430614,1.006468 0.9766346,0.670993 1.7501226,1.645774 2.3204666,2.924346 0.570318,1.278597 0.855483,2.801347 0.855497,4.568247 -1.4e-5,2.43043 -0.551707,4.40982 -1.65508,5.93815 -1.215227,1.68491 -2.8069346,2.52736 -4.775128,2.52736 -1.9831188,0 -3.5785543,-0.86482 -4.7863113,-2.59445 -1.09593262,-1.56562 -1.64389762,-3.45554 -1.64389667,-5.66977 z m 1.83400717,0.0335 c -2.8e-6,2.0204 0.4454517,3.58787 1.3363649,4.70244 0.890905,1.11457 1.9737882,1.67185 3.2486529,1.67185 1.3046712,0 2.3987374,-0.56287 3.2822018,-1.68863 0.8834432,-1.12574 1.3251702,-2.78082 1.3251822,-4.96524 -1.2e-5,-1.40904 -0.227399,-2.66899 -0.682161,-3.77984 C 10.289169,99.308298 9.761706,98.628001 9.0571893,98.117299 8.3526532,97.606624 7.5828928,97.35128 6.7479059,97.351265 5.4059434,97.35128 4.3006943,97.910428 3.4321552,99.028711 2.563608,100.14702 2.1293364,101.87665 2.1293392,104.21761 Z"
         style="font-size:22.90272331px;fill:#333333"
         id="path3685" />
      <path
         d="m 15,112.36218 0,-16.999997 4.674837,0 c 1.224167,1.6e-5 2.126995,0.107131 2.708487,0.321346 0.795704,0.290757 1.430744,0.830159 1.905122,1.618206 0.474357,0.788077 0.711542,1.755941 0.711554,2.903595 -1.2e-5,1.51492 -0.386392,2.75057 -1.159142,3.70695 -0.772771,0.9564 -2.107912,1.42433 -4.005348,1.43458 L 17,105.36218 l 0,7 z m 2,-9 2.86994,-7.7e-4 c 1.124703,-3e-4 1.947195,-0.25439 2.467477,-0.7632 0.520265,-0.50879 0.780403,-1.27581 0.780412,-2.30107 -9e-6,-0.665632 -0.128166,-1.235638 -0.384467,-1.710022 -0.256321,-0.474353 -0.56619,-0.799524 -0.929608,-0.975514 -0.363435,-0.17596 -1.019516,-0.263948 -1.968244,-0.263963 L 17,97.362183 Z"
         style="font-size:22.90272331px;fill:#333333"
         id="path3687"
         inkscape:connector-curvature="0"
         sodipodi:nodetypes="ccccccssccccsscccccc" />
      <path
         d="m 27,112.36218 0,-16.999997 10,0 0,2 -8,0 0,4.999997 7,0 0,2 -7,0 0,6 8,0 0,2 z"
         style="font-size:22.90272331px;fill:#333333"
         id="path3689"
         inkscape:connector-curvature="0"
         sodipodi:nodetypes="ccccccccccccc" />
      <path
         d="m 39,112.36218 0,-16.999997 2,0 7,12.999997 0,-12.999997 2,0 0,16.999997 -2,0 -7,-12.999997 0,12.999997 z"
         style="font-size:22.90272331px;fill:#333333"
         id="path3691"
         inkscape:connector-curvature="0"
         sodipodi:nodetypes="ccccccccccc" />
      <path
         d="m 58,112.36218 0,-16.999997 9,0 0,2 -7,0 0,4.999997 6,0 0,2 -6,0 0,8 z"
         style="font-size:22.90272331px;fill:#333333"
         id="path3693"
         inkscape:connector-curvature="0"
         sodipodi:nodetypes="ccccccccccc" />
      <path
         d="m 68.255995,104.18406 c -10e-7,-2.79573 0.615062,-4.944723 1.84519,-6.446982 1.230123,-1.50223 2.762188,-2.253352 4.596201,-2.253369 1.185386,1.7e-5 2.266405,0.335506 3.243061,1.006468 0.976635,0.670993 1.750123,1.645774 2.320467,2.924346 0.570318,1.278597 0.855483,2.801347 0.855497,4.568247 -1.4e-5,2.43043 -0.551707,4.40982 -1.65508,5.93815 -1.215227,1.68491 -2.806935,2.52736 -4.775128,2.52736 -1.983119,0 -3.578554,-0.86482 -4.786311,-2.59445 -1.095933,-1.56562 -1.643898,-3.45554 -1.643897,-5.66977 z m 1.834007,0.0335 c -3e-6,2.0204 0.445452,3.58787 1.336365,4.70244 0.890905,1.11457 1.973788,1.67185 3.248653,1.67185 1.304671,0 2.398737,-0.56287 3.282202,-1.68863 0.883443,-1.12574 1.32517,-2.78082 1.325182,-4.96524 -1.2e-5,-1.40904 -0.227399,-2.66899 -0.682162,-3.77984 -0.35041,-0.849892 -0.877873,-1.530189 -1.58239,-2.040891 -0.704536,-0.510675 -1.474296,-0.766019 -2.309283,-0.766034 -1.341963,1.5e-5 -2.447212,0.559163 -3.315751,1.677446 -0.868547,1.118309 -1.302819,2.847939 -1.302816,5.188899 z"
         style="font-size:22.90272331px;fill:#333333"
         id="path3695"
         inkscape:connector-curvature="0"
         sodipodi:nodetypes="sscccccscsssssccccss" />
      <path
         d="m 82.883322,104.18406 c -1e-6,-2.79573 0.615062,-4.944723 1.84519,-6.446982 1.230123,-1.50223 2.762188,-2.253352 4.596201,-2.253369 1.185386,1.7e-5 2.266405,0.335506 3.243061,1.006468 0.976635,0.670993 1.750123,1.645774 2.320467,2.924346 0.570317,1.278597 0.855483,2.801347 0.855497,4.568247 -1.4e-5,2.43043 -0.551707,4.40982 -1.65508,5.93815 -1.215227,1.68491 -2.806935,2.52736 -4.775128,2.52736 -1.983119,0 -3.578555,-0.86482 -4.786312,-2.59445 -1.095932,-1.56562 -1.643897,-3.45554 -1.643896,-5.66977 z m 1.834007,0.0335 c -3e-6,2.0204 0.445452,3.58787 1.336365,4.70244 0.890905,1.11457 1.973788,1.67185 3.248653,1.67185 1.304671,0 2.398737,-0.56287 3.282202,-1.68863 0.883443,-1.12574 1.32517,-2.78082 1.325182,-4.96524 -1.2e-5,-1.40904 -0.227399,-2.66899 -0.682162,-3.77984 -0.35041,-0.849892 -0.877873,-1.530189 -1.58239,-2.040891 -0.704536,-0.510675 -1.474296,-0.766019 -2.309283,-0.766034 -1.341963,1.5e-5 -2.447212,0.559163 -3.315751,1.677446 -0.868547,1.118309 -1.302819,2.847939 -1.302816,5.188899 z"
         style="font-size:22.90272331px;fill:#333333"
         id="path3697"
         inkscape:connector-curvature="0"
         sodipodi:nodetypes="sscccccscsssssccccss" />
      <path
         d="m 98,112.36218 0,-16.999997 5,0 c 1.21266,1.6e-5 2.00501,0.174276 2.63497,0.382679 0.82682,0.270189 1.54339,0.719576 2.14974,1.437449 0.60633,0.717903 1.0788,1.622982 1.41741,2.715233 0.33859,1.092286 0.50789,2.387186 0.5079,3.884706 -1e-5,1.9221 -0.28743,3.55278 -0.86225,4.89207 -0.57485,1.33928 -1.31309,2.28875 -2.21471,2.8484 -0.90163,0.55964 -2.17628,0.83946 -3.63306,0.83946 z m 2,-2 3,0 c 1.22054,0 2.01682,-0.19791 2.64678,-0.58773 0.62996,-0.38982 1.11424,-1.01701 1.45285,-1.88157 0.44883,-1.15015 0.67326,-2.52803 0.67327,-4.13365 -1e-5,-1.72137 -0.23822,-3.07416 -0.71461,-4.058372 -0.47642,-0.984193 -1.08866,-1.642257 -1.83673,-1.974198 C 104.71759,97.502677 104.09454,97.362198 103,97.362183 l -3,0 z"
         style="font-size:22.90272331px;fill:#333333"
         id="path3699"
         inkscape:connector-curvature="0"
         sodipodi:nodetypes="ccccccccssccssccccccc" />
      <path
         d="m 118,112.36218 0.0757,-16.999997 9,0 0,2 -7,3.8e-5 0,4.999999 6,0 0,2 -6,0 0,7.99996 z"
         style="font-size:22.90272331px;fill:#333333"
         id="path3701"
         inkscape:connector-curvature="0"
         sodipodi:nodetypes="ccccccccccc" />
      <path
         d="m 128.07572,112.36218 5,-16.999997 2,0 5,16.999997 -2,0 -4,-14.999997 -4.04025,14.999997 z"
         style="font-size:22.90272331px;fill:#333333"
         id="path3703"
         inkscape:connector-curvature="0"
         sodipodi:nodetypes="cccccccc" />
      <path
         d="m 151.36137,106.42065 1.78927,0.54797 c -0.39514,1.84147 -1.08662,3.21511 -2.07444,4.12092 -0.98784,0.90583 -2.19001,1.35874 -3.60651,1.35874 -1.24504,0 -2.30929,-0.30381 -3.19273,-0.91142 -0.88346,-0.6076 -1.60663,-1.58238 -2.1695,-2.92434 -0.56288,-1.34195 -0.84432,-2.92621 -0.84432,-4.75277 0,-1.80417 0.28144,-3.33065 0.84432,-4.579422 0.56287,-1.248751 1.32518,-2.191847 2.28692,-2.829292 0.96173,-0.637413 2.03529,-0.956127 3.22069,-0.956144 1.29722,1.7e-5 2.41179,0.404467 3.34371,1.213353 0.9319,0.808916 1.58424,1.996173 1.95702,3.561775 l -1.74454,0.50323 c -0.59644,-2.281308 -1.79302,-3.42197 -3.58974,-3.421985 -0.89464,1.5e-5 -1.66999,0.229266 -2.32605,0.687753 -0.65608,0.458516 -1.17981,1.172361 -1.57121,2.141542 -0.39141,0.9692 -0.58711,2.1956 -0.58711,3.67919 0,2.24406 0.39513,3.92709 1.1854,5.04912 0.79026,1.12202 1.84145,1.68303 3.15359,1.68303 0.96919,0 1.80605,-0.3448 2.51058,-1.03442 0.70452,-0.68962 1.17607,-1.73522 1.41465,-3.13683 z"
         style="font-size:22.90272331px;fill:#333333"
         id="path3705"
         inkscape:connector-curvature="0"
         sodipodi:nodetypes="ccsscssscccccccsssssc" />
      <path
         d="m 159,112.36218 0,-14.999997 -5,0.0061 0,-2.006138 12,0 0,2 -5,0 0,14.999995 z"
         style="font-size:22.90272331px;fill:#333333"
         id="path3707"
         inkscape:connector-curvature="0"
         sodipodi:nodetypes="ccccccccc" />
      <path
         inkscape:connector-curvature="0"
         d="m 167.26826,106.90152 1.67745,-0.17893 c 0.0895,0.9021 0.29262,1.60476 0.60947,2.10799 0.31685,0.50324 0.76976,0.90769 1.35873,1.21336 0.58897,0.30567 1.25249,0.4585 1.99057,0.4585 1.05865,0 1.88059,-0.25907 2.46585,-0.77722 0.58523,-0.51814 0.87785,-1.19098 0.87786,-2.01852 -1e-5,-0.48459 -0.10625,-0.90768 -0.31872,-1.26927 -0.21248,-0.36158 -0.53306,-0.65793 -0.96173,-0.88905 -0.42869,-0.23111 -1.35501,-0.55541 -2.77897,-0.97292 -1.26741,-0.37275 -2.1695,-0.74925 -2.70628,-1.12948 -0.53678,-0.38021 -0.95428,-0.86294 -1.25249,-1.44819 -0.29822,-0.58523 -0.44732,-1.24689 -0.44732,-1.98498 0,-1.32703 0.42868,-2.411777 1.28604,-3.254242 0.85736,-0.842434 2.01293,-1.263659 3.46672,-1.263676 0.99901,1.7e-5 1.87314,0.197583 2.62241,0.592698 0.74925,0.395147 1.33076,0.96175 1.74454,1.699811 0.41376,0.73809 0.63556,1.606633 0.66539,2.605629 l -1.711,0.15656 c -0.0895,-1.066092 -0.40818,-1.856355 -0.95614,-2.370785 -0.54797,-0.514402 -1.31773,-0.77161 -2.30928,-0.771625 -1.00648,1.5e-5 -1.77437,0.225538 -2.30369,0.67657 -0.52934,0.45106 -0.794,1.034438 -0.794,1.750135 0,0.663535 0.19384,1.177955 0.58152,1.543245 0.38767,0.36533 1.25994,0.73436 2.61681,1.10712 1.32704,0.36532 2.25896,0.68217 2.79575,0.95055 0.82007,0.41751 1.43886,0.96734 1.85637,1.64949 0.41749,0.68217 0.62623,1.49666 0.62625,2.44348 -2e-5,0.93937 -0.21995,1.79487 -0.6598,2.56649 -0.43987,0.77163 -1.03816,1.35873 -1.79487,1.76132 -0.75672,0.40258 -1.66813,0.60388 -2.73423,0.60388 -1.66254,0 -2.98772,-0.49951 -3.97555,-1.49852 -0.98783,-0.99901 -1.50038,-2.35215 -1.53766,-4.05942 z"
         style="font-size:22.90272331px;fill:#333333"
         id="path3709" />
      <path
         sodipodi:nodetypes="ccccc"
         inkscape:connector-curvature="0"
         id="path3713"
         style="font-size:22.90272331px;fill:#333333"
         d="m 137.07572,105.36218 0,2 -6,0 0,-2 z" />
    </g>
    <g
       aria-label="Вільна база даних продуктів"
       transform="scale(0.90339875,1.1069309)"
       style="font-style:normal;font-variant:normal;font-weight:normal;font-stretch:normal;font-size:13.66116619px;line-height:0%;font-family:'Arial Narrow';-inkscape-font-specification:'Arial Narrow';letter-spacing:0px;word-spacing:0px;fill:#333333;fill-opacity:1;stroke:none;stroke-width:1.1384306"
       id="text3715-8">
      <path
         d="M 0.96748036,126.42238 V 113.45562 H 4.9565727 q 1.2117641,0 1.9193637,0.38033 0.7075995,0.37149 1.1586942,1.16754 0.4510947,0.79605 0.4510947,1.76016 0,0.89334 -0.3891798,1.60978 -0.3891797,0.71645 -1.0967792,1.14985 0.9287243,0.33611 1.459424,1.14985 0.5395446,0.8049 0.5395446,1.99013 0,1.17638 -0.4864746,2.06972 -0.4776297,0.8845 -1.2825242,1.29137 -0.8048944,0.39803 -2.2112485,0.39803 z m 1.40635404,-7.51825 h 2.2996985 q 0.9021893,0 1.2825241,-0.12383 0.5483896,-0.18574 0.8402744,-0.61915 0.3007298,-0.44225 0.3007298,-1.19407 0,-0.69875 -0.2741948,-1.15869 Q 6.5575166,115.3396 6.1064219,115.1627 5.6641722,114.9858 4.505478,114.9858 H 2.3738344 Z m 0,5.98806 h 2.6446532 q 0.8756544,0 1.2913691,-0.15921 0.6014596,-0.22997 0.9110344,-0.75182 0.3184198,-0.5307 0.3184198,-1.32675 0,-0.73413 -0.3007298,-1.2383 -0.3007298,-0.51301 -0.8137394,-0.74298 -0.5041647,-0.23881 -1.592099,-0.23881 H 2.3738344 Z"
         style="font-size:18.11454773px;line-height:1.25;fill:#333333;fill-opacity:1;stroke-width:1.1384306"
         id="path949" />
      <path
         d="m 10.732354,115.28653 v -1.83091 h 1.300214 v 1.83091 z m 0,11.13585 v -9.39339 h 1.300214 v 9.39339 z"
         style="font-size:18.11454773px;line-height:1.25;fill:#333333;fill-opacity:1;stroke-width:1.1384306"
         id="path951" />
      <path
         d="m 14.677221,117.02899 h 6.067666 v 9.39339 H 19.444672 V 118.3469 H 15.98628 v 4.679 q 0,1.60094 -0.08845,2.14933 -0.07961,0.54839 -0.486475,0.92873 -0.398025,0.38033 -1.141004,0.38033 -0.45994,0 -1.034864,-0.0619 v -1.3356 q 0.919879,-0.009 1.087934,-0.0619 0.168055,-0.0531 0.256505,-0.26535 0.09729,-0.22113 0.09729,-1.53903 z"
         style="font-size:18.11454773px;line-height:1.25;fill:#333333;fill-opacity:1;stroke-width:1.1384306"
         id="path953" />
      <path
         d="m 22.690785,117.02899 h 1.300214 v 3.67068 h 1.662859 q 1.786689,0 2.573893,0.84027 0.787204,0.84028 0.787204,2.03435 0,1.13216 -0.716444,1.99012 -0.7076,0.85797 -2.343923,0.85797 h -3.263803 z m 1.300214,8.08433 h 1.370974 q 1.494804,0 1.901674,-0.47763 0.406869,-0.47763 0.406869,-1.05255 0,-0.75183 -0.468784,-1.1587 -0.468785,-0.40687 -1.662859,-0.40687 h -1.547874 z"
         style="font-size:18.11454773px;line-height:1.25;fill:#333333;fill-opacity:1;stroke-width:1.1384306"
         id="path955" />
      <path
         d="m 30.465534,117.02899 h 1.300215 v 3.90949 h 3.626447 v -3.90949 h 1.300214 v 9.39339 h -1.300214 v -4.16599 h -3.626447 v 4.16599 h -1.300215 z"
         style="font-size:18.11454773px;line-height:1.25;fill:#333333;fill-opacity:1;stroke-width:1.1384306"
         id="path957" />
      <path
         d="m 43.671111,125.26368 q -0.65453,0.68107 -1.362129,1.02602 -0.7076,0.34496 -1.468269,0.34496 -1.20292,0 -1.919364,-0.72529 -0.716445,-0.72529 -0.716445,-1.95474 0,-0.81374 0.33611,-1.44174 0.33611,-0.62799 0.91988,-0.98179 0.583769,-0.3538 1.768998,-0.52186 1.592099,-0.22997 2.335079,-0.54839 l 0.0088,-0.40687 q 0,-0.9641 -0.344955,-1.35328 -0.486475,-0.56608 -1.494804,-0.56608 -0.911034,0 -1.362129,0.38033 -0.451095,0.37149 -0.663375,1.40636 l -1.282524,-0.21228 q 0.274195,-1.5125 1.105625,-2.20241 0.840274,-0.6899 2.396993,-0.6899 1.211764,0 1.901674,0.45993 0.689909,0.4511 0.866809,1.12332 0.185745,0.67222 0.185745,1.96359 v 2.1228 q 0,2.22893 0.07961,2.8127 0.08845,0.57493 0.33611,1.12332 h -1.362129 q -0.203435,-0.48648 -0.26535,-1.1587 z m -0.10614,-3.55568 q -0.716445,0.3538 -2.131644,0.60146 -0.822584,0.14152 -1.149849,0.32726 -0.327265,0.1769 -0.51301,0.51301 -0.176899,0.32727 -0.176899,0.76067 0,0.67222 0.415714,1.07909 0.415715,0.39802 1.149849,0.39802 0.698755,0 1.264835,-0.36264 0.574924,-0.36265 0.857964,-0.9641 0.28304,-0.61031 0.28304,-1.769 z"
         style="font-size:18.11454773px;line-height:1.25;fill:#333333;fill-opacity:1;stroke-width:1.1384306"
         id="path959" />
      <path
         d="m 56.735168,113.15489 h 1.158695 q -0.07961,0.97295 -0.3538,1.34444 -0.274195,0.36264 -0.68991,0.45994 -0.415714,0.0973 -1.618634,0.0973 -1.583253,0 -2.184713,0.37149 -0.592615,0.36265 -0.857965,1.22061 -0.265349,0.84912 -0.300729,2.16702 0.981794,-1.78669 2.635808,-1.78669 1.547874,0 2.529668,1.28253 0.981795,1.28252 0.981795,3.42301 0,2.0432 -0.911035,3.47608 -0.911034,1.42405 -2.644653,1.42405 -1.291369,0 -2.069729,-0.69876 -0.769514,-0.7076 -1.202919,-1.94589 -0.433405,-1.2383 -0.433405,-4.14831 0,-3.80334 1.02602,-5.09471 1.034864,-1.29137 3.193043,-1.29137 1.335594,0 1.512494,-0.0619 0.185744,-0.0619 0.229969,-0.23881 z m -0.06191,8.53542 q 0,-1.57441 -0.610304,-2.45891 -0.60146,-0.8845 -1.565564,-0.8845 -1.087934,0 -1.671704,0.9641 -0.58377,0.96411 -0.58377,2.67119 0,1.6894 0.663375,2.52967 0.663375,0.84027 1.609789,0.84027 0.919879,0 1.539029,-0.99064 0.619149,-0.99063 0.619149,-2.67118 z"
         style="font-size:18.11454773px;line-height:1.25;fill:#333333;fill-opacity:1;stroke-width:1.1384306"
         id="path961" />
      <path
         d="m 64.616057,125.26368 q -0.65453,0.68107 -1.362129,1.02602 -0.7076,0.34496 -1.468269,0.34496 -1.202919,0 -1.919364,-0.72529 -0.716444,-0.72529 -0.716444,-1.95474 0,-0.81374 0.33611,-1.44174 0.336109,-0.62799 0.919879,-0.98179 0.583769,-0.3538 1.768999,-0.52186 1.592099,-0.22997 2.335078,-0.54839 l 0.0088,-0.40687 q 0,-0.9641 -0.344955,-1.35328 -0.486474,-0.56608 -1.494804,-0.56608 -0.911034,0 -1.362129,0.38033 -0.451094,0.37149 -0.663374,1.40636 l -1.282524,-0.21228 q 0.274194,-1.5125 1.105624,-2.20241 0.840274,-0.6899 2.396993,-0.6899 1.211764,0 1.901674,0.45993 0.689909,0.4511 0.866809,1.12332 0.185745,0.67222 0.185745,1.96359 v 2.1228 q 0,2.22893 0.07961,2.8127 0.08845,0.57493 0.33611,1.12332 h -1.362129 q -0.203435,-0.48648 -0.26535,-1.1587 z m -0.10614,-3.55568 q -0.716444,0.3538 -2.131643,0.60146 -0.822585,0.14152 -1.14985,0.32726 -0.327264,0.1769 -0.513009,0.51301 -0.1769,0.32727 -0.1769,0.76067 0,0.67222 0.415715,1.07909 0.415714,0.39802 1.149849,0.39802 0.698754,0 1.264834,-0.36264 0.574924,-0.36265 0.857964,-0.9641 0.28304,-0.61031 0.28304,-1.769 z"
         style="font-size:18.11454773px;line-height:1.25;fill:#333333;fill-opacity:1;stroke-width:1.1384306"
         id="path963" />
      <path
         d="m 69.604631,122.17678 v -1.24714 q 0.831429,-0.009 1.123314,-0.0796 0.30073,-0.0708 0.56608,-0.41571 0.26535,-0.3538 0.26535,-0.89335 0,-0.65453 -0.3538,-1.03486 -0.344955,-0.38034 -0.90219,-0.38034 -1.105624,0 -1.547874,1.58326 l -1.238299,-0.24766 q 0.592615,-2.64465 2.803863,-2.64465 1.22061,0 1.919364,0.82258 0.7076,0.81374 0.7076,1.96359 0,1.10562 -0.911035,1.83091 1.158694,0.76952 1.158694,2.36162 0,1.26483 -0.751824,2.05203 -0.751825,0.78721 -2.105109,0.78721 -2.626963,0 -3.060368,-2.85693 l 1.22061,-0.31842 q 0.168054,0.89334 0.681064,1.3975 0.51301,0.49532 1.167539,0.49532 0.67222,0 1.105625,-0.45109 0.433404,-0.45994 0.433404,-1.16754 0,-0.56608 -0.274195,-0.95526 -0.274194,-0.39802 -0.583769,-0.50416 -0.30073,-0.10614 -0.999484,-0.10614 z"
         style="font-size:18.11454773px;line-height:1.25;fill:#333333;fill-opacity:1;stroke-width:1.1384306"
         id="path965" />
      <path
         d="m 79.68793,125.26368 q -0.65453,0.68107 -1.362129,1.02602 -0.7076,0.34496 -1.468269,0.34496 -1.20292,0 -1.919364,-0.72529 -0.716445,-0.72529 -0.716445,-1.95474 0,-0.81374 0.33611,-1.44174 0.33611,-0.62799 0.91988,-0.98179 0.583769,-0.3538 1.768998,-0.52186 1.592099,-0.22997 2.335079,-0.54839 l 0.0088,-0.40687 q 0,-0.9641 -0.344955,-1.35328 -0.486475,-0.56608 -1.494804,-0.56608 -0.911034,0 -1.362129,0.38033 -0.451095,0.37149 -0.663375,1.40636 l -1.282524,-0.21228 q 0.274195,-1.5125 1.105625,-2.20241 0.840274,-0.6899 2.396993,-0.6899 1.211764,0 1.901674,0.45993 0.689909,0.4511 0.866809,1.12332 0.185745,0.67222 0.185745,1.96359 v 2.1228 q 0,2.22893 0.07961,2.8127 0.08845,0.57493 0.33611,1.12332 H 79.95328 q -0.203435,-0.48648 -0.26535,-1.1587 z M 79.58179,121.708 q -0.716445,0.3538 -2.131644,0.60146 -0.822584,0.14152 -1.149849,0.32726 -0.327265,0.1769 -0.51301,0.51301 -0.176899,0.32727 -0.176899,0.76067 0,0.67222 0.415714,1.07909 0.415715,0.39802 1.149849,0.39802 0.698755,0 1.264835,-0.36264 0.574924,-0.36265 0.857964,-0.9641 0.28304,-0.61031 0.28304,-1.769 z"
         style="font-size:18.11454773px;line-height:1.25;fill:#333333;fill-opacity:1;stroke-width:1.1384306"
         id="path967" />
      <path
         d="m 88.143738,117.02899 h 5.360066 v 8.08433 h 0.83143 v 3.9714 h -1.070245 v -2.66234 h -6.05882 v 2.66234 h -1.07909 v -3.9714 h 0.68991 q 1.353284,-2.24663 1.326749,-8.08433 z m 1.079089,1.31791 q -0.14152,4.58171 -1.158694,6.76642 h 4.139457 v -6.76642 z"
         style="font-size:18.11454773px;line-height:1.25;fill:#333333;fill-opacity:1;stroke-width:1.1384306"
         id="path969" />
      <path
         d="m 100.77439,125.26368 q -0.65453,0.68107 -1.362125,1.02602 -0.7076,0.34496 -1.468269,0.34496 -1.20292,0 -1.919364,-0.72529 -0.716445,-0.72529 -0.716445,-1.95474 0,-0.81374 0.33611,-1.44174 0.33611,-0.62799 0.91988,-0.98179 0.583769,-0.3538 1.768998,-0.52186 1.592099,-0.22997 2.335075,-0.54839 l 0.009,-0.40687 q 0,-0.9641 -0.34496,-1.35328 -0.486471,-0.56608 -1.4948,-0.56608 -0.911034,0 -1.362129,0.38033 -0.451095,0.37149 -0.663375,1.40636 l -1.282524,-0.21228 q 0.274195,-1.5125 1.105624,-2.20241 0.840275,-0.6899 2.396994,-0.6899 1.21176,0 1.90167,0.45993 0.68991,0.4511 0.86681,1.12332 0.18575,0.67222 0.18575,1.96359 v 2.1228 q 0,2.22893 0.0796,2.8127 0.0885,0.57493 0.33611,1.12332 h -1.36213 q -0.20343,-0.48648 -0.26535,-1.1587 z m -0.10614,-3.55568 q -0.716441,0.3538 -2.13164,0.60146 -0.822584,0.14152 -1.149849,0.32726 -0.327265,0.1769 -0.51301,0.51301 -0.1769,0.32727 -0.1769,0.76067 0,0.67222 0.415715,1.07909 0.415715,0.39802 1.149849,0.39802 0.698755,0 1.264835,-0.36264 0.57492,-0.36265 0.85796,-0.9641 0.28304,-0.61031 0.28304,-1.769 z"
         style="font-size:18.11454773px;line-height:1.25;fill:#333333;fill-opacity:1;stroke-width:1.1384306"
         id="path971" />
      <path
         d="m 104.05589,117.02899 h 1.30021 v 3.90949 h 3.62645 v -3.90949 h 1.30021 v 9.39339 h -1.30021 v -4.16599 h -3.62645 v 4.16599 h -1.30021 z"
         style="font-size:18.11454773px;line-height:1.25;fill:#333333;fill-opacity:1;stroke-width:1.1384306"
         id="path973" />
      <path
         d="m 112.26404,117.02899 h 1.30021 v 7.16445 l 3.62645,-7.16445 h 1.40636 v 9.39339 h -1.30022 v -7.12022 l -3.62645,7.12022 h -1.40635 z"
         style="font-size:18.11454773px;line-height:1.25;fill:#333333;fill-opacity:1;stroke-width:1.1384306"
         id="path975" />
      <path
         d="m 119.70268,126.42238 2.81271,-4.88244 -2.60043,-4.51095 h 1.62748 l 1.18523,2.20241 q 0.32726,0.6103 0.53954,1.05255 0.32727,-0.60146 0.58377,-1.03486 l 1.30022,-2.2201 h 1.55671 l -2.66234,4.4225 2.86578,4.97089 h -1.60095 l -1.58325,-2.91885 -0.41571,-0.7872 -2.02551,3.70605 z"
         style="font-size:18.11454773px;line-height:1.25;fill:#333333;fill-opacity:1;stroke-width:1.1384306"
         id="path977" />
      <path
         d="m 132.15643,117.02899 h 6.07651 v 9.39339 h -1.30021 v -8.07548 h -3.47609 v 8.07548 h -1.30021 z"
         style="font-size:18.11454773px;line-height:1.25;fill:#333333;fill-opacity:1;stroke-width:1.1384306"
         id="path979" />
      <path
         d="m 140.18769,130.02229 v -12.9933 h 1.19407 v 1.22061 q 0.44225,-0.76067 0.98179,-1.09678 0.53955,-0.3361 1.2383,-0.3361 0.91104,0 1.64517,0.53954 0.73414,0.53954 1.17639,1.64517 0.45109,1.09678 0.45109,2.64465 0,2.397 -1.00833,3.69721 -0.99948,1.29137 -2.35277,1.29137 -0.60146,0 -1.12331,-0.30958 -0.52186,-0.30957 -0.90219,-0.87565 v 4.57286 z m 1.17638,-8.24353 q 0,1.82207 0.6103,2.68887 0.61031,0.85797 1.47712,0.85797 0.83143,0 1.45942,-0.89335 0.628,-0.89334 0.628,-2.75963 0,-1.83976 -0.61031,-2.72426 -0.6103,-0.8845 -1.48596,-0.8845 -0.7872,0 -1.43289,0.95526 -0.64568,0.94641 -0.64568,2.75964 z"
         style="font-size:18.11454773px;line-height:1.25;fill:#333333;fill-opacity:1;stroke-width:1.1384306"
         id="path981" />
      <path
         d="m 147.98013,121.72569 q 0,-2.43238 1.01717,-3.67068 1.02602,-1.23829 2.59158,-1.23829 1.53903,0 2.5739,1.23829 1.03486,1.2383 1.03486,3.57338 0,2.52967 -1.01717,3.76797 -1.01718,1.2383 -2.59159,1.2383 -1.54787,0 -2.58273,-1.2383 -1.02602,-1.24714 -1.02602,-3.67067 z m 1.33559,0 q 0,1.82207 0.66337,2.71541 0.66338,0.8845 1.64517,0.8845 0.91988,0 1.57441,-0.89335 0.66338,-0.90218 0.66338,-2.70656 0,-1.81323 -0.66338,-2.69773 -0.66337,-0.89334 -1.64517,-0.89334 -0.92872,0 -1.58325,0.89334 -0.65453,0.89335 -0.65453,2.69773 z"
         style="font-size:18.11454773px;line-height:1.25;fill:#333333;fill-opacity:1;stroke-width:1.1384306"
         id="path983" />
      <path
         d="m 157.80692,117.02899 h 5.36006 v 8.08433 h 0.83143 v 3.9714 h -1.07024 v -2.66234 h -6.05882 v 2.66234 h -1.07909 v -3.9714 h 0.68991 q 1.35328,-2.24663 1.32675,-8.08433 z m 1.07908,1.31791 q -0.14152,4.58171 -1.15869,6.76642 h 4.13946 v -6.76642 z"
         style="font-size:18.11454773px;line-height:1.25;fill:#333333;fill-opacity:1;stroke-width:1.1384306"
         id="path985" />
      <path
         d="m 165.37823,130.03998 -0.14152,-1.4948 q 0.4334,0.14152 0.74298,0.14152 0.41571,0 0.68106,-0.16806 0.2742,-0.16805 0.4511,-0.52185 0.0619,-0.12383 0.51301,-1.55672 l -2.9277,-9.41108 h 1.40636 l 1.60979,5.43968 q 0.30073,1.01717 0.55723,2.17586 0.22112,-1.09677 0.5307,-2.14048 l 1.64517,-5.47506 h 1.30906 l -2.9277,9.5526 q -0.57492,1.85745 -0.91103,2.4766 -0.32726,0.62799 -0.75182,0.90219 -0.41572,0.27419 -0.94642,0.27419 -0.37149,0 -0.84027,-0.19459 z"
         style="font-size:18.11454773px;line-height:1.25;fill:#333333;fill-opacity:1;stroke-width:1.1384306"
         id="path987" />
      <path
         d="m 172.86109,117.02899 h 1.30022 v 4.05986 q 0.62799,0 0.87565,-0.29189 0.2565,-0.30073 0.74298,-1.69824 0.38033,-1.12331 0.61915,-1.47711 0.24766,-0.36265 0.54839,-0.47763 0.30957,-0.11499 1.07024,-0.11499 h 0.19459 v 1.31791 l -0.38918,-0.009 q -0.41571,0 -0.59261,0.15037 -0.1769,0.15036 -0.30073,0.56608 -0.44225,1.42404 -0.69876,1.83091 -0.2565,0.40687 -0.81374,0.71645 0.84028,0.27419 1.65402,1.91052 l 1.43289,2.91 h -1.43289 l -1.39751,-2.91 q -0.42456,-0.8845 -0.75183,-1.1587 -0.31841,-0.27419 -0.76066,-0.27419 v 4.34289 h -1.30022 z"
         style="font-size:18.11454773px;line-height:1.25;fill:#333333;fill-opacity:1;stroke-width:1.1384306"
         id="path989" />
      <path
         d="m 178.67225,117.02899 h 6.26226 v 1.31791 h -2.4766 v 8.07548 h -1.30906 v -8.07548 h -2.4766 z"
         style="font-size:18.11454773px;line-height:1.25;fill:#333333;fill-opacity:1;stroke-width:1.1384306"
         id="path991" />
      <path
         d="m 186.14627,115.28653 v -1.83091 h 1.30022 v 1.83091 z m 0,11.13585 v -9.39339 h 1.30022 v 9.39339 z"
         style="font-size:18.11454773px;line-height:1.25;fill:#333333;fill-opacity:1;stroke-width:1.1384306"
         id="path993" />
      <path
         d="m 189.46315,117.02899 h 3.0073 q 1.02602,0 1.56556,0.19459 0.54839,0.19459 0.97295,0.8049 0.43341,0.60146 0.43341,1.4948 0,1.34444 -0.91988,2.00782 1.26483,0.56608 1.26483,2.26432 0,1.08793 -0.64568,1.85744 -0.64569,0.76952 -2.20241,0.76952 h -3.47608 z m 1.30022,3.95372 h 1.39751 q 0.83142,0 1.141,-0.10614 0.31842,-0.10614 0.56608,-0.42456 0.24766,-0.32727 0.24766,-0.79605 0,-0.74298 -0.44225,-1.02602 -0.43341,-0.28304 -1.46827,-0.28304 h -1.44173 z m 0,4.13061 h 1.72477 q 1.10562,0 1.53018,-0.33611 0.42456,-0.34496 0.42456,-1.0614 0,-0.76067 -0.45109,-1.08793 -0.44225,-0.33611 -1.63632,-0.33611 h -1.5921 z"
         style="font-size:18.11454773px;line-height:1.25;fill:#333333;fill-opacity:1;stroke-width:1.1384306"
         id="path995" />
    </g>
    <rect
       id="rect3719"
       width="5"
       height="5"
       x="110"
       y="0"
       style="fill:none"
       inkscape:export-filename="C:\Users\Stéphane\Desktop\Blogs\OpenFoodFacts\test-178.png"
       inkscape:export-xdpi="90"
       inkscape:export-ydpi="90" />
    <rect
       inkscape:export-ydpi="90"
       inkscape:export-xdpi="90"
       inkscape:export-filename="C:\Users\Stéphane\Desktop\Blogs\OpenFoodFacts\test-178.png"
       style="fill:none"
       y="0"
       x="110"
       height="5"
       width="5"
       id="rect3723" />
    <rect
       style="fill:none"
       id="rect3725"
       width="1"
       height="1"
       x="1"
       y="140"
       inkscape:export-filename="C:\Users\Stéphane\Desktop\Blogs\OpenFoodFacts\test-178.png"
       inkscape:export-xdpi="90"
       inkscape:export-ydpi="90" />
  </g>
</svg>
