<?xml version="1.0" encoding="UTF-8" standalone="no"?>
<svg
   xmlns:dc="http://purl.org/dc/elements/1.1/"
   xmlns:cc="http://creativecommons.org/ns#"
   xmlns:rdf="http://www.w3.org/1999/02/22-rdf-syntax-ns#"
   xmlns:svg="http://www.w3.org/2000/svg"
   xmlns="http://www.w3.org/2000/svg"
   xmlns:sodipodi="http://sodipodi.sourceforge.net/DTD/sodipodi-0.dtd"
   xmlns:inkscape="http://www.inkscape.org/namespaces/inkscape"
   width="178"
   height="144"
   id="svg8313"
   version="1.1"
   inkscape:version="1.0 (4035a4fb49, 2020-05-01)"
   sodipodi:docname="openfoodfacts-logo-da.svg">
  <style
     id="style193">
   :root {
     font-style: normal;
     font-variant: normal;
     font-weight: normal;
     font-stretch: normal;
     line-height: 125%;
     font-family: 'Arial Narrow';
     -inkscape-font-specification: 'Arial Narrow';
     letter-spacing: 0px;
     word-spacing: 0px;
     fill-opacity: 1;
     stroke: none;
   }
   #site-name {
     font-size: 22.90272331px;
     fill: #333333;
   }
   #site-slogan {
     font-size: 16.94345474px;
     fill: #333333;
   }
   @media (prefers-color-scheme: dark) {
     #site-name,#site-slogan {
       fill: #ffffff;
	 }
   }
   .design-element
   {
     fill-rule: nonzero;
	 stroke: none;
   }
   .red {
     fill: #ff0000;
   }
   .yellow {
     fill: #ffcc00;
   }
   .green {
     fill: #00d400;
   }
   .cyan {
     fill: #00ccff;
   }
   .blue {
     fill: #0066ff;
   }
  </style>
  <defs
     id="defs8315" />
  <sodipodi:namedview
     id="base"
     pagecolor="#ffffff"
     bordercolor="#666666"
     borderopacity="1.0"
     inkscape:pageopacity="0.0"
     inkscape:pageshadow="2"
     inkscape:zoom="5.5850744"
     inkscape:cx="111.33521"
     inkscape:cy="70.41406"
     inkscape:document-units="px"
     inkscape:current-layer="layer1"
     showgrid="true"
     inkscape:window-width="1920"
     inkscape:window-height="1017"
     inkscape:window-x="1912"
     inkscape:window-y="-8"
     inkscape:window-maximized="1"
     inkscape:snap-global="true"
     inkscape:document-rotation="0">
    <inkscape:grid
       type="xygrid"
       id="grid8566" />
  </sodipodi:namedview>
  <metadata
     id="metadata8318">
    <rdf:RDF>
      <cc:Work
         rdf:about="">
        <dc:format>image/svg+xml</dc:format>
        <dc:type
           rdf:resource="http://purl.org/dc/dcmitype/StillImage" />
        <dc:title />
      </cc:Work>
    </rdf:RDF>
  </metadata>
  <g
     inkscape:label="Layer 1"
     inkscape:groupmode="layer"
     id="layer1">
    <g
       transform="matrix(0.89476596,0,0,0.89458574,-763.01815,-727.33576)"
       id="bars"
       class="design-element">
      <path
         inkscape:connector-curvature="0"
         class="blue"
         d="m 1042.7511,944.94661 0,5.58918 c 2.9792,0 5.9616,0 8.9408,0 l 0,-5.58918 c -2.9792,0 -5.9616,0 -8.9407,0 z"
         id="path8169"
         inkscape:export-xdpi="112.45"
         inkscape:export-ydpi="112.45"
         sodipodi:nodetypes="cccccc" />
      <path
         inkscape:connector-curvature="0"
         class="cyan"
         d="m 1024.8693,944.94661 0,5.58918 c 4.8438,0 9.6851,0 14.5289,0 l 0,-5.58918 c -4.8438,0 -9.6851,0 -14.5289,0 z"
         id="path8171"
         inkscape:export-xdpi="112.45"
         inkscape:export-ydpi="112.45"
         sodipodi:nodetypes="ccccc" />
      <path
         inkscape:connector-curvature="0"
         class="green"
         d="m 958.93025,944.94661 0,5.58918 c 20.85417,0 41.73205,0 62.58625,0 l 0,-5.58918 c -20.8542,0 -41.73208,0 -62.58625,0 z"
         id="path8173"
         inkscape:export-xdpi="112.45"
         inkscape:export-ydpi="112.45"
         sodipodi:nodetypes="ccccc" />
      <path
         inkscape:connector-curvature="0"
         class="yellow"
         d="m 894.10883,944.94661 0,5.58918 c 20.48959,0 40.97901,0 61.46859,0 l 0,-5.58918 c -20.48958,0 -40.979,0 -61.46859,0 z"
         id="path8175"
         inkscape:export-xdpi="112.45"
         inkscape:export-ydpi="112.45"
         sodipodi:nodetypes="ccccc" />
      <path
         inkscape:connector-curvature="0"
         class="red"
         d="m 852.75724,944.94661 0,5.58918 c 12.66667,0 25.3321,0 37.99876,0 l 0,-5.58918 c -12.66666,0 -25.33209,0 -37.99876,0 z"
         id="path8177"
         inkscape:export-xdpi="112.45"
         inkscape:export-ydpi="112.45"
         sodipodi:nodetypes="ccccc" />
    </g>
    <g
       id="site-name"
       transform="translate(0,2.6378174)">
      <path
         d="m 0.29533203,104.18406 c -9.5e-7,-2.79573 0.61506181,-4.944723 1.84519007,-6.446982 1.2301228,-1.50223 2.7621882,-2.253352 4.5962009,-2.253369 1.1853862,1.7e-5 2.2664056,0.335506 3.2430614,1.006468 0.9766346,0.670993 1.7501226,1.645774 2.3204666,2.924346 0.570318,1.278597 0.855483,2.801347 0.855497,4.568247 -1.4e-5,2.43043 -0.551707,4.40982 -1.65508,5.93815 -1.215227,1.68491 -2.8069346,2.52736 -4.775128,2.52736 -1.9831188,0 -3.5785543,-0.86482 -4.7863113,-2.59445 -1.09593262,-1.56562 -1.64389762,-3.45554 -1.64389667,-5.66977 z m 1.83400717,0.0335 c -2.8e-6,2.0204 0.4454517,3.58787 1.3363649,4.70244 0.890905,1.11457 1.9737882,1.67185 3.2486529,1.67185 1.3046712,0 2.3987374,-0.56287 3.2822018,-1.68863 0.8834432,-1.12574 1.3251702,-2.78082 1.3251822,-4.96524 -1.2e-5,-1.40904 -0.227399,-2.66899 -0.682161,-3.77984 C 10.289169,99.308298 9.761706,98.628001 9.0571893,98.117299 8.3526532,97.606624 7.5828928,97.35128 6.7479059,97.351265 5.4059434,97.35128 4.3006943,97.910428 3.4321552,99.028711 2.563608,100.14702 2.1293364,101.87665 2.1293392,104.21761 Z"
         id="path3685"
         inkscape:connector-curvature="0" />
      <path
         d="m 15,112.36218 0,-16.999997 4.674837,0 c 1.224167,1.6e-5 2.126995,0.107131 2.708487,0.321346 0.795704,0.290757 1.430744,0.830159 1.905122,1.618206 0.474357,0.788077 0.711542,1.755941 0.711554,2.903595 -1.2e-5,1.51492 -0.386392,2.75057 -1.159142,3.70695 -0.772771,0.9564 -2.107912,1.42433 -4.005348,1.43458 L 17,105.36218 l 0,7 z m 2,-9 2.86994,-7.7e-4 c 1.124703,-3e-4 1.947195,-0.25439 2.467477,-0.7632 0.520265,-0.50879 0.780403,-1.27581 0.780412,-2.30107 -9e-6,-0.665632 -0.128166,-1.235638 -0.384467,-1.710022 -0.256321,-0.474353 -0.56619,-0.799524 -0.929608,-0.975514 -0.363435,-0.17596 -1.019516,-0.263948 -1.968244,-0.263963 L 17,97.362183 Z"
         id="path3687"
         inkscape:connector-curvature="0"
         sodipodi:nodetypes="ccccccssccccsscccccc" />
      <path
         d="m 27,112.36218 0,-16.999997 10,0 0,2 -8,0 0,4.999997 7,0 0,2 -7,0 0,6 8,0 0,2 z"
         id="path3689"
         inkscape:connector-curvature="0"
         sodipodi:nodetypes="ccccccccccccc" />
      <path
         d="m 39,112.36218 0,-16.999997 2,0 7,12.999997 0,-12.999997 2,0 0,16.999997 -2,0 -7,-12.999997 0,12.999997 z"
         id="path3691"
         inkscape:connector-curvature="0"
         sodipodi:nodetypes="ccccccccccc" />
      <path
         d="m 58,112.36218 0,-16.999997 9,0 0,2 -7,0 0,4.999997 6,0 0,2 -6,0 0,8 z"
         id="path3693"
         inkscape:connector-curvature="0"
         sodipodi:nodetypes="ccccccccccc" />
      <path
         d="m 68.255995,104.18406 c -10e-7,-2.79573 0.615062,-4.944723 1.84519,-6.446982 1.230123,-1.50223 2.762188,-2.253352 4.596201,-2.253369 1.185386,1.7e-5 2.266405,0.335506 3.243061,1.006468 0.976635,0.670993 1.750123,1.645774 2.320467,2.924346 0.570318,1.278597 0.855483,2.801347 0.855497,4.568247 -1.4e-5,2.43043 -0.551707,4.40982 -1.65508,5.93815 -1.215227,1.68491 -2.806935,2.52736 -4.775128,2.52736 -1.983119,0 -3.578554,-0.86482 -4.786311,-2.59445 -1.095933,-1.56562 -1.643898,-3.45554 -1.643897,-5.66977 z m 1.834007,0.0335 c -3e-6,2.0204 0.445452,3.58787 1.336365,4.70244 0.890905,1.11457 1.973788,1.67185 3.248653,1.67185 1.304671,0 2.398737,-0.56287 3.282202,-1.68863 0.883443,-1.12574 1.32517,-2.78082 1.325182,-4.96524 -1.2e-5,-1.40904 -0.227399,-2.66899 -0.682162,-3.77984 -0.35041,-0.849892 -0.877873,-1.530189 -1.58239,-2.040891 -0.704536,-0.510675 -1.474296,-0.766019 -2.309283,-0.766034 -1.341963,1.5e-5 -2.447212,0.559163 -3.315751,1.677446 -0.868547,1.118309 -1.302819,2.847939 -1.302816,5.188899 z"
         id="path3695"
         inkscape:connector-curvature="0"
         sodipodi:nodetypes="sscccccscsssssccccss" />
      <path
         d="m 82.883322,104.18406 c -1e-6,-2.79573 0.615062,-4.944723 1.84519,-6.446982 1.230123,-1.50223 2.762188,-2.253352 4.596201,-2.253369 1.185386,1.7e-5 2.266405,0.335506 3.243061,1.006468 0.976635,0.670993 1.750123,1.645774 2.320467,2.924346 0.570317,1.278597 0.855483,2.801347 0.855497,4.568247 -1.4e-5,2.43043 -0.551707,4.40982 -1.65508,5.93815 -1.215227,1.68491 -2.806935,2.52736 -4.775128,2.52736 -1.983119,0 -3.578555,-0.86482 -4.786312,-2.59445 -1.095932,-1.56562 -1.643897,-3.45554 -1.643896,-5.66977 z m 1.834007,0.0335 c -3e-6,2.0204 0.445452,3.58787 1.336365,4.70244 0.890905,1.11457 1.973788,1.67185 3.248653,1.67185 1.304671,0 2.398737,-0.56287 3.282202,-1.68863 0.883443,-1.12574 1.32517,-2.78082 1.325182,-4.96524 -1.2e-5,-1.40904 -0.227399,-2.66899 -0.682162,-3.77984 -0.35041,-0.849892 -0.877873,-1.530189 -1.58239,-2.040891 -0.704536,-0.510675 -1.474296,-0.766019 -2.309283,-0.766034 -1.341963,1.5e-5 -2.447212,0.559163 -3.315751,1.677446 -0.868547,1.118309 -1.302819,2.847939 -1.302816,5.188899 z"
         id="path3697"
         inkscape:connector-curvature="0"
         sodipodi:nodetypes="sscccccscsssssccccss" />
      <path
         d="m 98,112.36218 0,-16.999997 5,0 c 1.21266,1.6e-5 2.00501,0.174276 2.63497,0.382679 0.82682,0.270189 1.54339,0.719576 2.14974,1.437449 0.60633,0.717903 1.0788,1.622982 1.41741,2.715233 0.33859,1.092286 0.50789,2.387186 0.5079,3.884706 -1e-5,1.9221 -0.28743,3.55278 -0.86225,4.89207 -0.57485,1.33928 -1.31309,2.28875 -2.21471,2.8484 -0.90163,0.55964 -2.17628,0.83946 -3.63306,0.83946 z m 2,-2 3,0 c 1.22054,0 2.01682,-0.19791 2.64678,-0.58773 0.62996,-0.38982 1.11424,-1.01701 1.45285,-1.88157 0.44883,-1.15015 0.67326,-2.52803 0.67327,-4.13365 -1e-5,-1.72137 -0.23822,-3.07416 -0.71461,-4.058372 -0.47642,-0.984193 -1.08866,-1.642257 -1.83673,-1.974198 C 104.71759,97.502677 104.09454,97.362198 103,97.362183 l -3,0 z"
         id="path3699"
         inkscape:connector-curvature="0"
         sodipodi:nodetypes="ccccccccssccssccccccc" />
      <path
         d="m 118,112.36218 0.0757,-16.999997 9,0 0,2 -7,3.8e-5 0,4.999999 6,0 0,2 -6,0 0,7.99996 z"
         id="path3701"
         inkscape:connector-curvature="0"
         sodipodi:nodetypes="ccccccccccc" />
      <path
         d="m 128.07572,112.36218 5,-16.999997 2,0 5,16.999997 -2,0 -4,-14.999997 -4.04025,14.999997 z"
         id="path3703"
         inkscape:connector-curvature="0"
         sodipodi:nodetypes="cccccccc" />
      <path
         d="m 151.36137,106.42065 1.78927,0.54797 c -0.39514,1.84147 -1.08662,3.21511 -2.07444,4.12092 -0.98784,0.90583 -2.19001,1.35874 -3.60651,1.35874 -1.24504,0 -2.30929,-0.30381 -3.19273,-0.91142 -0.88346,-0.6076 -1.60663,-1.58238 -2.1695,-2.92434 -0.56288,-1.34195 -0.84432,-2.92621 -0.84432,-4.75277 0,-1.80417 0.28144,-3.33065 0.84432,-4.579422 0.56287,-1.248751 1.32518,-2.191847 2.28692,-2.829292 0.96173,-0.637413 2.03529,-0.956127 3.22069,-0.956144 1.29722,1.7e-5 2.41179,0.404467 3.34371,1.213353 0.9319,0.808916 1.58424,1.996173 1.95702,3.561775 l -1.74454,0.50323 c -0.59644,-2.281308 -1.79302,-3.42197 -3.58974,-3.421985 -0.89464,1.5e-5 -1.66999,0.229266 -2.32605,0.687753 -0.65608,0.458516 -1.17981,1.172361 -1.57121,2.141542 -0.39141,0.9692 -0.58711,2.1956 -0.58711,3.67919 0,2.24406 0.39513,3.92709 1.1854,5.04912 0.79026,1.12202 1.84145,1.68303 3.15359,1.68303 0.96919,0 1.80605,-0.3448 2.51058,-1.03442 0.70452,-0.68962 1.17607,-1.73522 1.41465,-3.13683 z"
         id="path3705"
         inkscape:connector-curvature="0"
         sodipodi:nodetypes="ccsscssscccccccsssssc" />
      <path
         d="m 159,112.36218 0,-14.999997 -5,0.0061 0,-2.006138 12,0 0,2 -5,0 0,14.999995 z"
         id="path3707"
         inkscape:connector-curvature="0"
         sodipodi:nodetypes="ccccccccc" />
      <path
         d="m 167.26826,106.90152 1.67745,-0.17893 c 0.0895,0.9021 0.29262,1.60476 0.60947,2.10799 0.31685,0.50324 0.76976,0.90769 1.35873,1.21336 0.58897,0.30567 1.25249,0.4585 1.99057,0.4585 1.05865,0 1.88059,-0.25907 2.46585,-0.77722 0.58523,-0.51814 0.87785,-1.19098 0.87786,-2.01852 -1e-5,-0.48459 -0.10625,-0.90768 -0.31872,-1.26927 -0.21248,-0.36158 -0.53306,-0.65793 -0.96173,-0.88905 -0.42869,-0.23111 -1.35501,-0.55541 -2.77897,-0.97292 -1.26741,-0.37275 -2.1695,-0.74925 -2.70628,-1.12948 -0.53678,-0.38021 -0.95428,-0.86294 -1.25249,-1.44819 -0.29822,-0.58523 -0.44732,-1.24689 -0.44732,-1.98498 0,-1.32703 0.42868,-2.411777 1.28604,-3.254242 0.85736,-0.842434 2.01293,-1.263659 3.46672,-1.263676 0.99901,1.7e-5 1.87314,0.197583 2.62241,0.592698 0.74925,0.395147 1.33076,0.96175 1.74454,1.699811 0.41376,0.73809 0.63556,1.606633 0.66539,2.605629 l -1.711,0.15656 c -0.0895,-1.066092 -0.40818,-1.856355 -0.95614,-2.370785 -0.54797,-0.514402 -1.31773,-0.77161 -2.30928,-0.771625 -1.00648,1.5e-5 -1.77437,0.225538 -2.30369,0.67657 -0.52934,0.45106 -0.794,1.034438 -0.794,1.750135 0,0.663535 0.19384,1.177955 0.58152,1.543245 0.38767,0.36533 1.25994,0.73436 2.61681,1.10712 1.32704,0.36532 2.25896,0.68217 2.79575,0.95055 0.82007,0.41751 1.43886,0.96734 1.85637,1.64949 0.41749,0.68217 0.62623,1.49666 0.62625,2.44348 -2e-5,0.93937 -0.21995,1.79487 -0.6598,2.56649 -0.43987,0.77163 -1.03816,1.35873 -1.79487,1.76132 -0.75672,0.40258 -1.66813,0.60388 -2.73423,0.60388 -1.66254,0 -2.98772,-0.49951 -3.97555,-1.49852 -0.98783,-0.99901 -1.50038,-2.35215 -1.53766,-4.05942 z"
         id="path3709"
         inkscape:connector-curvature="0" />
      <path
         sodipodi:nodetypes="ccccc"
         inkscape:connector-curvature="0"
         id="path3713"
         d="m 137.07572,105.36218 0,2 -6,0 0,-2 z" />
    </g>
    <g
       transform="matrix(0.99237793,0,0,1.2375879,-0.19748965,125.34978)"
       id="site-slogan">
      <path
         d="M2.2215739,14.3253722 L2.2215739,0.724786294 L0.96484375,0.724786294 L0.96484375,14.3253722 L2.2215739,14.3253722 Z M4.02257214,5.17791129 C4.41013518,4.94907015 4.70080746,4.62436312 4.89458898,4.2037902 C5.0883705,3.78321728 5.18526126,3.13380322 5.18526126,2.25554801 L5.18526126,2.25554801 L5.18526126,0.724786294 L3.8259409,0.724786294 L3.8259409,2.67302848 L4.48422812,2.67302848 C4.46143029,3.63787223 4.20495475,4.25636181 3.71480149,4.52849723 L3.71480149,4.52849723 L4.02257214,5.17791129 Z M8.08055515,2.64519645 L8.08055515,0.724786294 L6.823825,0.724786294 L6.823825,2.64519645 L8.08055515,2.64519645 Z M8.08055515,14.3253722 L8.08055515,4.47283317 L6.823825,4.47283317 L6.823825,14.3253722 L8.08055515,14.3253722 Z M10.9929474,14.3253722 L10.9929474,8.94451286 C10.9929474,7.75701286 11.1724803,6.91895947 11.531546,6.4303527 C11.8906118,5.94174593 12.3722159,5.69744254 12.9763582,5.69744254 C13.2955278,5.69744254 13.576226,5.78866976 13.8184529,5.97112418 C14.0606798,6.15357861 14.2387879,6.41179801 14.352777,6.74578239 C14.4667661,7.07976676 14.5237607,7.60857536 14.5237607,8.33220817 L14.5237607,8.33220817 L14.5237607,14.3253722 L15.78904,14.3253722 L15.78904,8.26726676 C15.78904,7.35808707 15.7377449,6.68393343 15.6351547,6.24480582 C15.5325645,5.80567822 15.3772543,5.44850049 15.1692241,5.17327262 C14.961194,4.89804476 14.68762,4.67538851 14.3485024,4.50530387 C14.0093847,4.33521924 13.6403449,4.25017692 13.241383,4.25017692 C12.7284319,4.25017692 12.2739002,4.3846984 11.877788,4.65374137 C11.4816758,4.92278434 11.1468327,5.32944124 10.8732588,5.87371207 L10.8732588,5.87371207 L10.8732588,4.47283317 L9.73621725,4.47283317 L9.73621725,14.3253722 L10.9929474,14.3253722 Z M19.0519488,14.3253722 L19.0519488,5.77166129 L20.5053102,5.77166129 L20.5053102,4.47283317 L19.0519488,4.47283317 L19.0519488,3.56365348 C19.0519488,2.96371859 19.1331661,2.55706168 19.2956006,2.34368278 C19.4580351,2.13030387 19.7273344,2.02361442 20.1034986,2.02361442 C20.3371763,2.02361442 20.5851026,2.0545389 20.8472776,2.11638786 L20.8472776,2.11638786 L21.0353597,0.659844887 C20.6079004,0.548516762 20.214638,0.4928527 19.8555722,0.4928527 C19.3939162,0.4928527 19.0106278,0.594903481 18.7057069,0.799005044 C18.4007859,1.00310661 18.1742325,1.29843538 18.0260467,1.68499137 C17.8778608,2.07154736 17.8037679,2.65138135 17.8037679,3.42449332 L17.8037679,3.42449332 L17.8037679,4.47283317 L16.6838247,4.47283317 L16.6838247,5.77166129 L17.8037679,5.77166129 L17.8037679,14.3253722 L19.0519488,14.3253722 Z M24.1785799,14.5480285 C25.1930832,14.5480285 26.0280535,14.1150858 26.683491,13.2492004 C27.3389285,12.3833149 27.6666473,11.0659321 27.6666473,9.29705192 C27.6666473,7.66423942 27.3332291,6.41489046 26.6663927,5.54900504 C25.9995563,4.68311963 25.1702853,4.25017692 24.1785799,4.25017692 C23.1697761,4.25017692 22.3362306,4.68311963 21.6779434,5.54900504 C21.0196562,6.41489046 20.6905126,7.69825635 20.6905126,9.3991027 C20.6905126,11.0937642 21.0225059,12.3755838 21.6864926,13.2445617 C22.3504793,14.1135395 23.181175,14.5480285 24.1785799,14.5480285 Z M24.2127767,13.1749816 C23.580137,13.1749816 23.0500875,12.8641906 22.6226283,12.2426086 C22.1951691,11.6210265 21.9814395,10.6731912 21.9814395,9.3991027 C21.9814395,8.13738395 22.1923193,7.19418734 22.6140791,6.56951286 C23.0358389,5.94483838 23.5459403,5.63250114 24.1443832,5.63250114 C24.7770229,5.63250114 25.3070723,5.94329215 25.7345315,6.56487418 C26.1619908,7.18645622 26.3757204,8.13119905 26.3757204,9.3991027 C26.3757204,10.6608214 26.1634156,11.6055643 25.7388061,12.2333312 C25.3141966,12.8610981 24.8055201,13.1749816 24.2127767,13.1749816 Z M30.1259327,14.3253722 L30.1259327,9.16716911 C30.1259327,8.44972119 30.2057251,7.7724751 30.3653099,7.13543082 C30.4565012,6.77052197 30.6132363,6.48601676 30.8355151,6.2819152 C31.0577939,6.07781364 31.3028705,5.97576286 31.570745,5.97576286 C31.8671167,5.97576286 32.1720376,6.09636832 32.4855077,6.33757926 L32.4855077,6.33757926 L32.912967,4.78826286 C32.4741088,4.4295389 32.0437998,4.25017692 31.6220401,4.25017692 C31.3199689,4.25017692 31.0478198,4.36305127 30.8055929,4.58879997 C30.563366,4.81454866 30.2969164,5.27377718 30.0062442,5.96648551 L30.0062442,5.96648551 L30.0062442,4.47283317 L28.8692026,4.47283317 L28.8692026,14.3253722 L30.1259327,14.3253722 Z M34.6455717,14.3253722 L34.6455717,9.21355582 C34.6455717,7.87761832 34.8122808,6.95761507 35.145699,6.45354606 C35.4791172,5.94947705 35.9336489,5.69744254 36.509294,5.69744254 C36.9139554,5.69744254 37.2317001,5.86443473 37.4625281,6.19841911 C37.6933561,6.53240348 37.8087701,7.10759879 37.8087701,7.92400504 L37.8087701,7.92400504 L37.8087701,14.3253722 L39.0740494,14.3253722 L39.0740494,8.60125114 C39.0740494,7.59929801 39.2450331,6.86484163 39.5870005,6.397882 C39.9289679,5.93092236 40.3706757,5.69744254 40.9121241,5.69744254 C41.1742991,5.69744254 41.4108265,5.77784619 41.6217064,5.93865348 C41.8325863,6.09946077 41.9850468,6.32675569 42.0790878,6.62053825 C42.1731288,6.9143208 42.2201494,7.41375114 42.2201494,8.11882926 L42.2201494,8.11882926 L42.2201494,14.3253722 L43.4768795,14.3253722 L43.4768795,7.56218864 C43.4768795,6.40561312 43.2716991,5.56446728 42.8613382,5.03875114 C42.4509773,4.51303499 41.8895809,4.25017692 41.1771488,4.25017692 C40.7097934,4.25017692 40.283759,4.39397575 39.8990457,4.6815734 C39.5143324,4.96917106 39.1737899,5.40056754 38.8774181,5.97576286 C38.7235328,5.41293734 38.4656324,4.9846333 38.1037169,4.69085075 C37.7418014,4.39706819 37.2986687,4.25017692 36.7743187,4.25017692 C36.3069633,4.25017692 35.8766543,4.38933707 35.4833918,4.66765739 C35.0901293,4.9459777 34.76811,5.34181103 34.5173339,5.85515739 L34.5173339,5.85515739 L34.5173339,4.47283317 L33.3888416,4.47283317 L33.3888416,14.3253722 L34.6455717,14.3253722 Z M47.1757967,14.5480285 C47.66595,14.5480285 48.1390049,14.427423 48.5949614,14.1862121 C49.0509179,13.9450011 49.4897761,13.5862772 49.9115358,13.1100402 C49.951432,13.5800923 50.0369239,13.985203 50.1680114,14.3253722 L50.1680114,14.3253722 L51.4845858,14.3253722 C51.325001,13.9419087 51.2181362,13.5476216 51.1639914,13.1425109 C51.1098466,12.7374002 51.0827742,11.755548 51.0827742,10.1969543 L51.0827742,7.97039176 C51.0827742,7.06739697 51.0243547,6.38087353 50.9075159,5.91082145 C50.790677,5.44076937 50.5099788,5.04648226 50.0654212,4.72796012 C49.6208636,4.40943799 49.008172,4.25017692 48.2273465,4.25017692 C47.2242421,4.25017692 46.4533906,4.49138786 45.914792,4.97380973 C45.3761934,5.45623161 45.0185525,6.22625114 44.8418693,7.28386832 L44.8418693,7.28386832 L46.0815011,7.50652457 C46.2182881,6.78289176 46.4320177,6.28964632 46.72269,6.02678825 C47.0133622,5.76393017 47.4522204,5.63250114 48.0392644,5.63250114 C48.6890024,5.63250114 49.1706065,5.8304178 49.4840766,6.22625114 C49.7063554,6.49838655 49.8174948,6.97153109 49.8174948,7.64568473 L49.8174948,7.64568473 L49.8089456,8.07244254 C49.3301913,8.29509879 48.577863,8.48683056 47.5519609,8.64763786 C46.7882337,8.76515088 46.2182881,8.9476053 45.8421239,9.19500114 C45.4659598,9.44239697 45.1695881,9.78565869 44.9530087,10.2247863 C44.7364294,10.6639139 44.6281397,11.1679829 44.6281397,11.7369933 C44.6281397,12.5966938 44.8589677,13.2801248 45.3206237,13.7872863 C45.7822796,14.2944478 46.4006707,14.5480285 47.1757967,14.5480285 Z M47.4835674,13.239923 C47.0105125,13.239923 46.6400478,13.0992166 46.3721734,12.8178039 C46.1042989,12.5363911 45.9703617,12.1606587 45.9703617,11.6906066 C45.9703617,11.3875467 46.0287811,11.12005 46.14562,10.8881164 C46.2624588,10.6561828 46.4263182,10.4768208 46.6371981,10.3500304 C46.848078,10.2232401 47.2185427,10.1103657 47.7485921,10.0114074 C48.6605052,9.8382303 49.3472897,9.62794385 49.8089456,9.38054801 L49.8089456,9.38054801 L49.8089456,9.9928527 C49.8089456,10.8030741 49.7177543,11.4200174 49.5353717,11.8436828 C49.3529891,12.2673481 49.0779903,12.6059712 48.7103754,12.8595519 C48.3427605,13.1131326 47.9338245,13.239923 47.4835674,13.239923 Z M55.7477493,14.5480285 C56.5513726,14.5480285 57.239582,14.2387837 57.8123774,13.6202941 C58.3851727,13.0018045 58.7428136,12.1049946 58.8853,10.9298644 L58.8853,10.9298644 L57.6456683,10.7164855 C57.554477,11.5576313 57.3393225,12.1776672 57.0002048,12.5765929 C56.6610872,12.9755187 56.2521512,13.1749816 55.7733968,13.1749816 C55.163555,13.1749816 54.6634277,12.8750142 54.2730149,12.2750793 C53.8826021,11.6751444 53.6873958,10.7041157 53.6873958,9.36199332 C53.6873958,8.0631652 53.8911513,7.11532991 54.2986625,6.51848747 C54.7061736,5.92164502 55.2205495,5.62322379 55.8417903,5.62322379 C56.2578506,5.62322379 56.6140666,5.78866976 56.9104384,6.11956168 C57.2068101,6.45045361 57.4148403,6.94988395 57.5345289,7.6178527 L57.5345289,7.6178527 L58.7570623,7.36736442 C58.6088764,6.32830192 58.2711836,5.54900504 57.7439839,5.02947379 C57.2167842,4.50994254 56.568471,4.25017692 55.7990444,4.25017692 C54.8016395,4.25017692 53.9851924,4.67848096 53.349703,5.53508903 C52.7142136,6.3916971 52.3964689,7.67660921 52.3964689,9.38982536 C52.3964689,11.0906717 52.7113638,12.3755838 53.3411538,13.2445617 C53.9709437,14.1135395 54.7731422,14.5480285 55.7477493,14.5480285 Z M60.9256755,2.64519645 L60.9256755,0.724786294 L59.6689453,0.724786294 L59.6689453,2.64519645 L60.9256755,2.64519645 Z M60.9256755,14.3253722 L60.9256755,4.47283317 L59.6689453,4.47283317 L59.6689453,14.3253722 L60.9256755,14.3253722 Z M65.5991998,14.5480285 C66.613703,14.5480285 67.4486734,14.1150858 68.1041109,13.2492004 C68.7595484,12.3833149 69.0872671,11.0659321 69.0872671,9.29705192 C69.0872671,7.66423942 68.7538489,6.41489046 68.0870125,5.54900504 C67.4201761,4.68311963 66.5909052,4.25017692 65.5991998,4.25017692 C64.590396,4.25017692 63.7568505,4.68311963 63.0985632,5.54900504 C62.440276,6.41489046 62.1111324,7.69825635 62.1111324,9.3991027 C62.1111324,11.0937642 62.4431257,12.3755838 63.1071124,13.2445617 C63.7710991,14.1135395 64.6017949,14.5480285 65.5991998,14.5480285 Z M65.6333965,13.1749816 C65.0007568,13.1749816 64.4707074,12.8641906 64.0432481,12.2426086 C63.6157889,11.6210265 63.4020593,10.6731912 63.4020593,9.3991027 C63.4020593,8.13738395 63.6129392,7.19418734 64.034699,6.56951286 C64.4564587,5.94483838 64.9665601,5.63250114 65.565003,5.63250114 C66.1976427,5.63250114 66.7276921,5.94329215 67.1551514,6.56487418 C67.5826106,7.18645622 67.7963402,8.13119905 67.7963402,9.3991027 C67.7963402,10.6608214 67.5840355,11.6055643 67.159426,12.2333312 C66.7348165,12.8610981 66.22614,13.1749816 65.6333965,13.1749816 Z M71.5465526,14.3253722 L71.5465526,8.94451286 C71.5465526,7.75701286 71.7260855,6.91895947 72.0851512,6.4303527 C72.444217,5.94174593 72.925821,5.69744254 73.5299634,5.69744254 C73.849133,5.69744254 74.1298312,5.78866976 74.3720581,5.97112418 C74.614285,6.15357861 74.792393,6.41179801 74.9063822,6.74578239 C75.0203713,7.07976676 75.0773659,7.60857536 75.0773659,8.33220817 L75.0773659,8.33220817 L75.0773659,14.3253722 L76.3426452,14.3253722 L76.3426452,8.26726676 C76.3426452,7.35808707 76.2913501,6.68393343 76.1887599,6.24480582 C76.0861697,5.80567822 75.9308595,5.44850049 75.7228293,5.17327262 C75.5147991,4.89804476 75.2412252,4.67538851 74.9021076,4.50530387 C74.5629899,4.33521924 74.1939501,4.25017692 73.7949882,4.25017692 C73.2820371,4.25017692 72.8275054,4.3846984 72.4313932,4.65374137 C72.035281,4.92278434 71.7004379,5.32944124 71.426864,5.87371207 L71.426864,5.87371207 L71.426864,4.47283317 L70.2898224,4.47283317 L70.2898224,14.3253722 L71.5465526,14.3253722 Z M83.8345207,14.5480285 C84.324674,14.5480285 84.7977289,14.427423 85.2536854,14.1862121 C85.7096419,13.9450011 86.1485,13.5862772 86.5702598,13.1100402 C86.610156,13.5800923 86.6956479,13.985203 86.8267354,14.3253722 L86.8267354,14.3253722 L88.1433098,14.3253722 C87.983725,13.9419087 87.8768602,13.5476216 87.8227154,13.1425109 C87.7685705,12.7374002 87.7414981,11.755548 87.7414981,10.1969543 L87.7414981,7.97039176 C87.7414981,7.06739697 87.6830787,6.38087353 87.5662398,5.91082145 C87.449401,5.44076937 87.1687027,5.04648226 86.7241451,4.72796012 C86.2795875,4.40943799 85.666896,4.25017692 84.8860704,4.25017692 C83.8829661,4.25017692 83.1121146,4.49138786 82.573516,4.97380973 C82.0349173,5.45623161 81.6772764,6.22625114 81.5005933,7.28386832 L81.5005933,7.28386832 L82.7402251,7.50652457 C82.877012,6.78289176 83.0907416,6.28964632 83.3814139,6.02678825 C83.6720862,5.76393017 84.1109444,5.63250114 84.6979884,5.63250114 C85.3477264,5.63250114 85.8293305,5.8304178 86.1428006,6.22625114 C86.3650794,6.49838655 86.4762188,6.97153109 86.4762188,7.64568473 L86.4762188,7.64568473 L86.4676696,8.07244254 C85.9889153,8.29509879 85.236587,8.48683056 84.2106848,8.64763786 C83.4469577,8.76515088 82.877012,8.9476053 82.5008479,9.19500114 C82.1246838,9.44239697 81.828312,9.78565869 81.6117327,10.2247863 C81.3951533,10.6639139 81.2868637,11.1679829 81.2868637,11.7369933 C81.2868637,12.5966938 81.5176917,13.2801248 81.9793476,13.7872863 C82.4410036,14.2944478 83.0593946,14.5480285 83.8345207,14.5480285 Z M84.1422914,13.239923 C83.6692365,13.239923 83.2987718,13.0992166 83.0308974,12.8178039 C82.7630229,12.5363911 82.6290857,12.1606587 82.6290857,11.6906066 C82.6290857,11.3875467 82.6875051,11.12005 82.804344,10.8881164 C82.9211828,10.6561828 83.0850422,10.4768208 83.2959221,10.3500304 C83.506802,10.2232401 83.8772666,10.1103657 84.4073161,10.0114074 C85.3192291,9.8382303 86.0060136,9.62794385 86.4676696,9.38054801 L86.4676696,9.38054801 L86.4676696,9.9928527 C86.4676696,10.8030741 86.3764783,11.4200174 86.1940957,11.8436828 C86.0117131,12.2673481 85.7367143,12.6059712 85.3690994,12.8595519 C85.0014844,13.1131326 84.5925484,13.239923 84.1422914,13.239923 Z M90.6453412,14.3253722 L90.6453412,0.724786294 L89.388611,0.724786294 L89.388611,14.3253722 L90.6453412,14.3253722 Z M93.5919302,2.64519645 L93.5919302,0.724786294 L92.3352,0.724786294 L92.3352,2.64519645 L93.5919302,2.64519645 Z M93.5919302,14.3253722 L93.5919302,4.47283317 L92.3352,4.47283317 L92.3352,14.3253722 L93.5919302,14.3253722 Z M96.5214208,14.3253722 L96.5214208,9.21355582 C96.5214208,7.87761832 96.6881299,6.95761507 97.0215481,6.45354606 C97.3549663,5.94947705 97.809498,5.69744254 98.3851431,5.69744254 C98.7898045,5.69744254 99.1075492,5.86443473 99.3383772,6.19841911 C99.5692051,6.53240348 99.6846191,7.10759879 99.6846191,7.92400504 L99.6846191,7.92400504 L99.6846191,14.3253722 L100.949898,14.3253722 L100.949898,8.60125114 C100.949898,7.59929801 101.120882,6.86484163 101.46285,6.397882 C101.804817,5.93092236 102.246525,5.69744254 102.787973,5.69744254 C103.050148,5.69744254 103.286676,5.77784619 103.497556,5.93865348 C103.708435,6.09946077 103.860896,6.32675569 103.954937,6.62053825 C104.048978,6.9143208 104.095998,7.41375114 104.095998,8.11882926 L104.095998,8.11882926 L104.095998,14.3253722 L105.352729,14.3253722 L105.352729,7.56218864 C105.352729,6.40561312 105.147548,5.56446728 104.737187,5.03875114 C104.326826,4.51303499 103.76543,4.25017692 103.052998,4.25017692 C102.585642,4.25017692 102.159608,4.39397575 101.774895,4.6815734 C101.390181,4.96917106 101.049639,5.40056754 100.753267,5.97576286 C100.599382,5.41293734 100.341481,4.9846333 99.979566,4.69085075 C99.6176505,4.39706819 99.1745178,4.25017692 98.6501678,4.25017692 C98.1828124,4.25017692 97.7525034,4.38933707 97.3592409,4.66765739 C96.9659784,4.9459777 96.6439591,5.34181103 96.393183,5.85515739 L96.393183,5.85515739 L96.393183,4.47283317 L95.2646907,4.47283317 L95.2646907,14.3253722 L96.5214208,14.3253722 Z M110.043351,14.5480285 C110.881171,14.5480285 111.583629,14.2805317 112.150725,13.7455382 C112.717821,13.2105448 113.109659,12.4173319 113.326238,11.3658996 L113.326238,11.3658996 L112.026762,11.1525207 C111.656297,12.500828 110.99801,13.1749816 110.0519,13.1749816 C109.447758,13.1749816 108.934807,12.8935688 108.513047,12.3307433 C108.091287,11.7679178 107.85476,10.9329569 107.803465,9.82586051 L107.803465,9.82586051 L113.360435,9.82586051 L113.368984,9.38054801 C113.368984,7.71681103 113.046965,6.44581494 112.402926,5.56755973 C111.758888,4.68930452 110.955264,4.25017692 109.992056,4.25017692 C108.983252,4.25017692 108.149707,4.69703564 107.49142,5.59075309 C106.833132,6.48447054 106.503989,7.78175244 106.503989,9.48259879 C106.503989,11.1215962 106.830283,12.3755838 107.48287,13.2445617 C108.135458,14.1135395 108.988952,14.5480285 110.043351,14.5480285 Z M112.035311,8.45281364 L107.880408,8.45281364 C107.920304,7.58692822 108.139733,6.89885856 108.538695,6.38860465 C108.937657,5.87835075 109.419261,5.62322379 109.983507,5.62322379 C110.610447,5.62322379 111.126248,5.92937614 111.530909,6.54168082 C111.810183,6.96225374 111.978317,7.59929801 112.035311,8.45281364 L112.035311,8.45281364 Z M115.896663,14.3253722 L115.896663,8.94451286 C115.896663,7.75701286 116.076196,6.91895947 116.435262,6.4303527 C116.794327,5.94174593 117.275932,5.69744254 117.880074,5.69744254 C118.199243,5.69744254 118.479942,5.78866976 118.722169,5.97112418 C118.964395,6.15357861 119.142503,6.41179801 119.256493,6.74578239 C119.370482,7.07976676 119.427476,7.60857536 119.427476,8.33220817 L119.427476,8.33220817 L119.427476,14.3253722 L120.692756,14.3253722 L120.692756,8.26726676 C120.692756,7.35808707 120.641461,6.68393343 120.53887,6.24480582 C120.43628,5.80567822 120.28097,5.44850049 120.07294,5.17327262 C119.86491,4.89804476 119.591336,4.67538851 119.252218,4.50530387 C118.9131,4.33521924 118.544061,4.25017692 118.145099,4.25017692 C117.632148,4.25017692 117.177616,4.3846984 116.781504,4.65374137 C116.385391,4.92278434 116.050548,5.32944124 115.776974,5.87371207 L115.776974,5.87371207 L115.776974,4.47283317 L114.639933,4.47283317 L114.639933,14.3253722 L115.896663,14.3253722 Z M124.391673,14.455255 C124.670946,14.455255 124.984416,14.4057759 125.332083,14.3068175 L125.332083,14.3068175 L125.1611,12.8317199 C124.933121,12.8750142 124.747889,12.8966613 124.605403,12.8966613 C124.309031,12.8966613 124.1067,12.7853332 123.99841,12.5626769 C123.924317,12.4080545 123.887271,12.0647928 123.887271,11.5328918 L123.887271,11.5328918 L123.887271,5.77166129 L125.1611,5.77166129 L125.1611,4.47283317 L123.887271,4.47283317 L123.887271,1.03093864 L122.630541,2.03289176 L122.630541,4.47283317 L121.707229,4.47283317 L121.707229,5.77166129 L122.630541,5.77166129 L122.630541,11.4401183 C122.630541,12.4173319 122.680411,13.0698384 122.780152,13.3976379 C122.879892,13.7254373 123.0637,13.9836567 123.331574,14.1722961 C123.599448,14.3609354 123.952815,14.455255 124.391673,14.455255 Z M129.988509,3.24822379 L129.048099,0.650567544 L127.35536,0.650567544 L128.971156,3.24822379 L129.988509,3.24822379 Z M128.184631,14.5480285 C128.674784,14.5480285 129.147839,14.427423 129.603796,14.1862121 C130.059752,13.9450011 130.49861,13.5862772 130.92037,13.1100402 C130.960266,13.5800923 131.045758,13.985203 131.176846,14.3253722 L131.176846,14.3253722 L132.49342,14.3253722 C132.333835,13.9419087 132.226971,13.5476216 132.172826,13.1425109 C132.118681,12.7374002 132.091609,11.755548 132.091609,10.1969543 L132.091609,7.97039176 C132.091609,7.06739697 132.033189,6.38087353 131.91635,5.91082145 C131.799511,5.44076937 131.518813,5.04648226 131.074256,4.72796012 C130.629698,4.40943799 130.017006,4.25017692 129.236181,4.25017692 C128.233077,4.25017692 127.462225,4.49138786 126.923626,4.97380973 C126.385028,5.45623161 126.027387,6.22625114 125.850704,7.28386832 L125.850704,7.28386832 L127.090336,7.50652457 C127.227122,6.78289176 127.440852,6.28964632 127.731524,6.02678825 C128.022197,5.76393017 128.461055,5.63250114 129.048099,5.63250114 C129.697837,5.63250114 130.179441,5.8304178 130.492911,6.22625114 C130.71519,6.49838655 130.826329,6.97153109 130.826329,7.64568473 L130.826329,7.64568473 L130.81778,8.07244254 C130.339026,8.29509879 129.586697,8.48683056 128.560795,8.64763786 C127.797068,8.76515088 127.227122,8.9476053 126.850958,9.19500114 C126.474794,9.44239697 126.178422,9.78565869 125.961843,10.2247863 C125.745264,10.6639139 125.636974,11.1679829 125.636974,11.7369933 C125.636974,12.5966938 125.867802,13.2801248 126.329458,13.7872863 C126.791114,14.2944478 127.409505,14.5480285 128.184631,14.5480285 Z M128.492402,13.239923 C128.019347,13.239923 127.648882,13.0992166 127.381008,12.8178039 C127.113133,12.5363911 126.979196,12.1606587 126.979196,11.6906066 C126.979196,11.3875467 127.037616,11.12005 127.154454,10.8881164 C127.271293,10.6561828 127.435153,10.4768208 127.646033,10.3500304 C127.856912,10.2232401 128.227377,10.1103657 128.757427,10.0114074 C129.66934,9.8382303 130.356124,9.62794385 130.81778,9.38054801 L130.81778,9.38054801 L130.81778,9.9928527 C130.81778,10.8030741 130.726589,11.4200174 130.544206,11.8436828 C130.361824,12.2673481 130.086825,12.6059712 129.71921,12.8595519 C129.351595,13.1131326 128.942659,13.239923 128.492402,13.239923 Z M135.029648,14.3253722 L135.029648,9.16716911 C135.029648,8.44972119 135.109441,7.7724751 135.269026,7.13543082 C135.360217,6.77052197 135.516952,6.48601676 135.739231,6.2819152 C135.96151,6.07781364 136.206586,5.97576286 136.474461,5.97576286 C136.770832,5.97576286 137.075753,6.09636832 137.389223,6.33757926 L137.389223,6.33757926 L137.816683,4.78826286 C137.377824,4.4295389 136.947515,4.25017692 136.525756,4.25017692 C136.223685,4.25017692 135.951535,4.36305127 135.709309,4.58879997 C135.467082,4.81454866 135.200632,5.27377718 134.90996,5.96648551 L134.90996,5.96648551 L134.90996,4.47283317 L133.772918,4.47283317 L133.772918,14.3253722 L135.029648,14.3253722 Z M139.532189,2.64519645 L139.532189,0.724786294 L138.275459,0.724786294 L138.275459,2.64519645 L139.532189,2.64519645 Z M139.532189,14.3253722 L139.532189,4.47283317 L138.275459,4.47283317 L138.275459,14.3253722 L139.532189,14.3253722 Z M143.308049,14.5480285 C143.798202,14.5480285 144.271257,14.427423 144.727214,14.1862121 C145.18317,13.9450011 145.622028,13.5862772 146.043788,13.1100402 C146.083684,13.5800923 146.169176,13.985203 146.300264,14.3253722 L146.300264,14.3253722 L147.616838,14.3253722 C147.457253,13.9419087 147.350388,13.5476216 147.296244,13.1425109 C147.242099,12.7374002 147.215026,11.755548 147.215026,10.1969543 L147.215026,7.97039176 C147.215026,7.06739697 147.156607,6.38087353 147.039768,5.91082145 C146.922929,5.44076937 146.642231,5.04648226 146.197673,4.72796012 C145.753116,4.40943799 145.140424,4.25017692 144.359599,4.25017692 C143.356494,4.25017692 142.585643,4.49138786 142.047044,4.97380973 C141.508446,5.45623161 141.150805,6.22625114 140.974121,7.28386832 L140.974121,7.28386832 L142.213753,7.50652457 C142.35054,6.78289176 142.56427,6.28964632 142.854942,6.02678825 C143.145614,5.76393017 143.584473,5.63250114 144.171517,5.63250114 C144.821255,5.63250114 145.302859,5.8304178 145.616329,6.22625114 C145.838608,6.49838655 145.949747,6.97153109 145.949747,7.64568473 L145.949747,7.64568473 L145.941198,8.07244254 C145.462443,8.29509879 144.710115,8.48683056 143.684213,8.64763786 C142.920486,8.76515088 142.35054,8.9476053 141.974376,9.19500114 C141.598212,9.44239697 141.30184,9.78565869 141.085261,10.2247863 C140.868682,10.6639139 140.760392,11.1679829 140.760392,11.7369933 C140.760392,12.5966938 140.99122,13.2801248 141.452876,13.7872863 C141.914532,14.2944478 142.532923,14.5480285 143.308049,14.5480285 Z M143.61582,13.239923 C143.142765,13.239923 142.7723,13.0992166 142.504426,12.8178039 C142.236551,12.5363911 142.102614,12.1606587 142.102614,11.6906066 C142.102614,11.3875467 142.161033,11.12005 142.277872,10.8881164 C142.394711,10.6561828 142.55857,10.4768208 142.76945,10.3500304 C142.98033,10.2232401 143.350795,10.1103657 143.880844,10.0114074 C144.792757,9.8382303 145.479542,9.62794385 145.941198,9.38054801 L145.941198,9.38054801 L145.941198,9.9928527 C145.941198,10.8030741 145.850006,11.4200174 145.667624,11.8436828 C145.485241,12.2673481 145.210242,12.6059712 144.842628,12.8595519 C144.475013,13.1131326 144.066077,13.239923 143.61582,13.239923 Z M153.834885,14.3253722 L153.834885,0.724786294 L152.578155,0.724786294 L152.578155,14.3253722 L153.834885,14.3253722 Z M156.781474,2.64519645 L156.781474,0.724786294 L155.524744,0.724786294 L155.524744,2.64519645 L156.781474,2.64519645 Z M156.781474,14.3253722 L156.781474,4.47283317 L155.524744,4.47283317 L155.524744,14.3253722 L156.781474,14.3253722 Z M160.959146,14.5480285 C161.454998,14.5480285 161.899556,14.4088683 162.292818,14.130548 C162.686081,13.8522277 163.028048,13.4347472 163.318721,12.8781066 L163.318721,12.8781066 L163.318721,14.3253722 L164.447213,14.3253722 L164.447213,4.47283317 L163.181934,4.47283317 L163.181934,9.75164176 C163.181934,10.9886209 163.016649,11.8390441 162.686081,12.3029113 C162.298518,12.8409972 161.802665,13.1100402 161.198523,13.1100402 C160.873654,13.1100402 160.584406,13.0064432 160.33078,12.7992492 C160.077155,12.5920552 159.903321,12.3168273 159.80928,11.9735656 C159.715239,11.6303039 159.668219,10.9515116 159.668219,9.93718864 L159.668219,9.93718864 L159.668219,4.47283317 L158.411489,4.47283317 L158.411489,10.5773254 C158.411489,11.486505 158.481307,12.203953 158.620944,12.7296691 C158.76058,13.2553853 159.038429,13.6898742 159.454489,14.0331359 C159.870549,14.3763976 160.372102,14.5480285 160.959146,14.5480285 Z M167.402351,14.3253722 L167.402351,9.16716911 C167.402351,8.44972119 167.482143,7.7724751 167.641728,7.13543082 C167.73292,6.77052197 167.889655,6.48601676 168.111933,6.2819152 C168.334212,6.07781364 168.579289,5.97576286 168.847163,5.97576286 C169.143535,5.97576286 169.448456,6.09636832 169.761926,6.33757926 L169.761926,6.33757926 L170.189385,4.78826286 C169.750527,4.4295389 169.320218,4.25017692 168.898458,4.25017692 C168.596387,4.25017692 168.324238,4.36305127 168.082011,4.58879997 C167.839784,4.81454866 167.573335,5.27377718 167.282663,5.96648551 L167.282663,5.96648551 L167.282663,4.47283317 L166.145621,4.47283317 L166.145621,14.3253722 L167.402351,14.3253722 Z M172.768359,14.5480285 C173.258513,14.5480285 173.731567,14.427423 174.187524,14.1862121 C174.643481,13.9450011 175.082339,13.5862772 175.504098,13.1100402 C175.543995,13.5800923 175.629486,13.985203 175.760574,14.3253722 L175.760574,14.3253722 L177.077148,14.3253722 C176.917564,13.9419087 176.810699,13.5476216 176.756554,13.1425109 C176.702409,12.7374002 176.675337,11.755548 176.675337,10.1969543 L176.675337,7.97039176 C176.675337,7.06739697 176.616917,6.38087353 176.500078,5.91082145 C176.38324,5.44076937 176.102541,5.04648226 175.657984,4.72796012 C175.213426,4.40943799 174.600735,4.25017692 173.819909,4.25017692 C172.816805,4.25017692 172.045953,4.49138786 171.507355,4.97380973 C170.968756,5.45623161 170.611115,6.22625114 170.434432,7.28386832 L170.434432,7.28386832 L171.674064,7.50652457 C171.810851,6.78289176 172.02458,6.28964632 172.315253,6.02678825 C172.605925,5.76393017 173.044783,5.63250114 173.631827,5.63250114 C174.281565,5.63250114 174.763169,5.8304178 175.076639,6.22625114 C175.298918,6.49838655 175.410057,6.97153109 175.410057,7.64568473 L175.410057,7.64568473 L175.401508,8.07244254 C174.922754,8.29509879 174.170426,8.48683056 173.144523,8.64763786 C172.380796,8.76515088 171.810851,8.9476053 171.434687,9.19500114 C171.058522,9.44239697 170.762151,9.78565869 170.545571,10.2247863 C170.328992,10.6639139 170.220702,11.1679829 170.220702,11.7369933 C170.220702,12.5966938 170.45153,13.2801248 170.913186,13.7872863 C171.374842,14.2944478 171.993233,14.5480285 172.768359,14.5480285 Z M173.07613,13.239923 C172.603075,13.239923 172.23261,13.0992166 171.964736,12.8178039 C171.696862,12.5363911 171.562924,12.1606587 171.562924,11.6906066 C171.562924,11.3875467 171.621344,11.12005 171.738183,10.8881164 C171.855021,10.6561828 172.018881,10.4768208 172.229761,10.3500304 C172.440641,10.2232401 172.811105,10.1103657 173.341155,10.0114074 C174.253068,9.8382303 174.939852,9.62794385 175.401508,9.38054801 L175.401508,9.38054801 L175.401508,9.9928527 C175.401508,10.8030741 175.310317,11.4200174 175.127934,11.8436828 C174.945552,12.2673481 174.670553,12.6059712 174.302938,12.8595519 C173.935323,13.1131326 173.526387,13.239923 173.07613,13.239923 Z"
         id="path254" />
    </g>
    <g
       id="barcode"
       class="design-element">
      <g
         id="g398"
         class="blue">
        <path
           inkscape:connector-curvature="0"
           d="m 170,26 0,6.41101 c 1.19571,0.444338 2.20515,1.060483 2.99122,1.761208 L 173.01672,26 Z m 4,0 0,8.312003 1,-0.838676 L 175,26 Z m 2,0 0,6.606702 1,-0.978462 0,11.7694 -1,-1.00641 L 176.0383,95 178,95 178,26 Z M 174,40.685929 174,95 l 1,0 0,-53.475406 z m -1,0.139774 c -0.78598,0.701951 -1.79569,1.313237 -3,1.76122 L 170.008,95 l 3,0 z"
           id="path7944"
           sodipodi:nodetypes="ccccccccccccccccccccccccccccc" />
      </g>
      <g
         id="g411"
         class="red">
        <path
           inkscape:connector-curvature="0"
           id="path8013"
           d="m 33,20 0,75 1,0 -7e-6,-75 z"
           sodipodi:nodetypes="ccccc" />
        <path
           inkscape:connector-curvature="0"
           id="path8015"
           d="m 30,19 0,76 2,0 4e-6,-76 z"
           sodipodi:nodetypes="ccccc" />
        <path
           inkscape:connector-curvature="0"
           id="path8017"
           d="m 26,26 0,69 3,0 0,-69 z"
           sodipodi:nodetypes="ccccc" />
        <path
           inkscape:connector-curvature="0"
           id="path8019"
           d="m 22,26 0,69 3,0 -5e-6,-69 z"
           sodipodi:nodetypes="ccccc" />
        <path
           inkscape:connector-curvature="0"
           id="path8021"
           d="m 19,20 0,75 2,0 -8.6e-5,-75 z"
           sodipodi:nodetypes="ccccc" />
        <path
           inkscape:connector-curvature="0"
           id="path8023"
           d="m 15,21 0,74 3,0 -3.5e-5,-74 z"
           sodipodi:nodetypes="ccccc" />
        <path
           inkscape:connector-curvature="0"
           id="path8025"
           d="m 11,26 0,69 1,0 -4.9e-5,-69 z"
           sodipodi:nodetypes="ccccc" />
        <path
           inkscape:connector-curvature="0"
           id="path8027"
           d="M 8,26 8,95 9,95 9,26 Z"
           sodipodi:nodetypes="ccccc" />
        <path
           inkscape:connector-curvature="0"
           id="path8029"
           d="m 2.9986784,25.916822 0,69.083178 0.9995629,0 0,-69.083178 z"
           sodipodi:nodetypes="ccccc" />
        <path
           inkscape:connector-curvature="0"
           id="path8031"
           d="m 1.3499883e-5,25.916822 0,69.083178 1.999113900117,0 0,-69.083178 z"
           sodipodi:nodetypes="ccccc" />
        <path
           sodipodi:nodetypes="csssacccccssscccsccccc"
           inkscape:connector-curvature="0"
           id="path8033"
           d="m 12.96037,20.168037 c 0.62972,-0.815576 0.719123,-2.676154 1.281409,-4.358843 0.405305,-1.212926 0.463533,-4.596987 1.208651,-4.882429 0.96834,-0.370951 3.169601,-0.358079 4.223988,-0.416629 2.300059,-0.127699 4.518931,1.098659 6.822539,1.101136 2.990853,0.0036 8.861008,-1.410596 8.861008,-1.410596 l -0.140119,-2.0388259 1.505607,0.2780586 4.07695,-0.5169049 -3.008404,1.3861371 c 0,0 1.201864,-0.021077 1.688022,0.2768321 0.705048,0.432109 0.959994,1.347377 1.46892,1.999162 0.291967,0.373928 1.082477,0.65438 0.908337,1.095671 -0.469844,1.190611 -3.808977,0.485944 -3.808977,0.485944 l -1.918736,1.803326 c -0.833009,1.778987 -2.26137,3.261839 -2.253596,6.722383 0,0 -6.006891,-0.923008 -8.991183,-0.79663 -1.764007,0.07466 -4.968974,0.618073 -4.968974,0.618073 -1.608718,-0.13719 -3.296502,-0.529063 -4.905219,-0.24954 0.0095,-6.235485 0.866683,-6.128862 0.69876,-9.294821 -0.439183,1.679986 -0.971056,4.516551 -1.026843,5.772464 -0.534756,1.525804 -0.01191,1.899672 -1.72214,2.426032 z" />
      </g>
      <g
         id="g487"
         class="yellow">
        <path
           inkscape:connector-curvature="0"
           id="path7980"
           d="m 90,21 0,74 2,0 3e-6,-74 z"
           sodipodi:nodetypes="ccccc" />
        <path
           inkscape:connector-curvature="0"
           id="path7983"
           d="m 88,26 0,69 1,0 10e-7,-69 z"
           sodipodi:nodetypes="ccccc" />
        <path
           inkscape:connector-curvature="0"
           id="path7985"
           d="m 85,10 0,85 2,0 0,-85 z"
           sodipodi:nodetypes="ccccc" />
        <path
           inkscape:connector-curvature="0"
           id="path7987"
           d="m 81,26 0,69 3,0 4e-6,-69 z"
           sodipodi:nodetypes="ccccc" />
        <path
           inkscape:connector-curvature="0"
           id="path7989"
           d="m 77,26 0,69 1,0 3e-6,-69 z"
           sodipodi:nodetypes="ccccc" />
        <path
           inkscape:connector-curvature="0"
           id="path7991"
           d="m 74,20 0,75 2,0 -7e-6,-75 z"
           sodipodi:nodetypes="ccccc" />
        <path
           inkscape:connector-curvature="0"
           id="path7993"
           d="m 70,26 0,69 3,0 4e-6,-69 z"
           sodipodi:nodetypes="ccccc" />
        <path
           inkscape:connector-curvature="0"
           id="path7995"
           d="m 66,26 0,69 1,0 3e-6,-69 z"
           sodipodi:nodetypes="ccccc" />
        <path
           inkscape:connector-curvature="0"
           id="path7997"
           d="m 64,26 0,69 1,0 10e-7,-69 z"
           sodipodi:nodetypes="ccccc" />
        <path
           inkscape:connector-curvature="0"
           id="path7999"
           d="M 58.973701,25.916822 59,95 61,95 60.9728,25.916822 Z"
           sodipodi:nodetypes="ccccc" />
        <path
           inkscape:connector-curvature="0"
           id="path8001"
           d="m 55,15 0,80 1,0 -9e-6,-80 z"
           sodipodi:nodetypes="ccccc" />
        <path
           inkscape:connector-curvature="0"
           id="path8003"
           d="m 52,26 0,69 2,0 3e-6,-69 z"
           sodipodi:nodetypes="ccccc" />
        <path
           inkscape:connector-curvature="0"
           id="path8005"
           d="m 46,26 0,69 3,0 -7e-6,-69 z"
           sodipodi:nodetypes="ccccc" />
        <path
           inkscape:connector-curvature="0"
           id="path8007"
           d="m 44,26 0,69 1,0 10e-7,-69 z"
           sodipodi:nodetypes="ccccc" />
        <path
           inkscape:connector-curvature="0"
           id="path8009"
           d="m 40,26 0,69 1,0 2e-6,-69 z"
           sodipodi:nodetypes="ccccc" />
        <path
           inkscape:connector-curvature="0"
           id="path8011"
           d="m 37,26 0,69 2,0 4e-6,-69 z"
           sodipodi:nodetypes="ccccc" />
        <g
           transform="matrix(0.01488015,-0.01147672,0.01147672,0.01488015,39.17529,7.5675208)"
           id="g8035">
          <ellipse
             ry="32.857143"
             rx="65.714287"
             cy="762.36218"
             cx="567.14288"
             id="path8037"
             transform="matrix(0.58270937,-0.81268061,0.81268061,0.58270937,-465.7507,809.03262)" />
          <path
             d="m 494.28571,741.6479 c 0,0 14.40901,-2.31616 20.71429,-5.71428 22.08801,-11.90395 53.57143,-52.85715 53.57143,-52.85715 0,0 -33.14169,43.13867 -40,64.99999 -2.07174,6.60382 -1.42857,20.71429 -1.42857,20.71429 z"
             id="path8039"
             inkscape:connector-curvature="0"
             sodipodi:nodetypes="cscscc" />
        </g>
        <g
           transform="matrix(0.89458574,0,0,0.89458574,-468.13007,-644.42698)"
           id="g8041">
          <g
             id="g8043"
             transform="translate(-9.5459416,1.1490485)">
            <g
               transform="matrix(0.02100622,0,0,0.02100622,586.13922,725.53281)"
               id="g8045">
              <ellipse
                 ry="32.857143"
                 rx="65.714287"
                 cy="762.36218"
                 cx="567.14288"
                 id="path8047"
                 transform="matrix(0.58270937,-0.81268061,0.81268061,0.58270937,-465.7507,809.03262)" />
              <path
                 d="m 494.28571,741.6479 c 0,0 14.40901,-2.31616 20.71429,-5.71428 22.08801,-11.90395 53.57143,-52.85715 53.57143,-52.85715 0,0 -33.14169,43.13867 -40,64.99999 -2.07174,6.60382 -1.42857,20.71429 -1.42857,20.71429 z"
                 id="path8049"
                 inkscape:connector-curvature="0"
                 sodipodi:nodetypes="cscscc" />
            </g>
            <g
               transform="matrix(0.02100622,0,0,0.02100622,586.13922,727.5359)"
               id="g8051">
              <ellipse
                 ry="32.857143"
                 rx="65.714287"
                 cy="762.36218"
                 cx="567.14288"
                 id="path8053"
                 transform="matrix(0.58270937,-0.81268061,0.81268061,0.58270937,-465.7507,809.03262)" />
              <path
                 d="m 494.28571,741.6479 c 0,0 14.40901,-2.31616 20.71429,-5.71428 22.08801,-11.90395 53.57143,-52.85715 53.57143,-52.85715 0,0 -33.14169,43.13867 -40,64.99999 -2.07174,6.60382 -1.42857,20.71429 -1.42857,20.71429 z"
                 id="path8055"
                 inkscape:connector-curvature="0"
                 sodipodi:nodetypes="cscscc" />
            </g>
            <g
               transform="matrix(0.02100622,0,0,0.02100622,586.13922,723.52972)"
               id="g8057">
              <ellipse
                 ry="32.857143"
                 rx="65.714287"
                 cy="762.36218"
                 cx="567.14288"
                 id="path8059"
                 transform="matrix(0.58270937,-0.81268061,0.81268061,0.58270937,-465.7507,809.03262)" />
              <path
                 d="m 494.28571,741.6479 c 0,0 14.40901,-2.31616 20.71429,-5.71428 22.08801,-11.90395 53.57143,-52.85715 53.57143,-52.85715 0,0 -33.14169,43.13867 -40,64.99999 -2.07174,6.60382 -1.42857,20.71429 -1.42857,20.71429 z"
                 id="path8061"
                 inkscape:connector-curvature="0"
                 sodipodi:nodetypes="cscscc" />
            </g>
            <g
               transform="matrix(0.02100622,0,0,0.02100622,586.13922,721.52662)"
               id="g8063">
              <ellipse
                 ry="32.857143"
                 rx="65.714287"
                 cy="762.36218"
                 cx="567.14288"
                 id="path8065"
                 transform="matrix(0.58270937,-0.81268061,0.81268061,0.58270937,-465.7507,809.03262)" />
              <path
                 d="m 494.28571,741.6479 c 0,0 14.40901,-2.31616 20.71429,-5.71428 22.08801,-11.90395 53.57143,-52.85715 53.57143,-52.85715 0,0 -33.14169,43.13867 -40,64.99999 -2.07174,6.60382 -1.42857,20.71429 -1.42857,20.71429 z"
                 id="path8067"
                 inkscape:connector-curvature="0"
                 sodipodi:nodetypes="cscscc" />
            </g>
            <g
               transform="matrix(0.02064274,-0.0038908,0.0038908,0.02064274,583.1049,721.64932)"
               id="g8069">
              <ellipse
                 ry="32.857143"
                 rx="65.714287"
                 cy="762.36218"
                 cx="567.14288"
                 id="path8071"
                 transform="matrix(0.58270937,-0.81268061,0.81268061,0.58270937,-465.7507,809.03262)" />
              <path
                 d="m 494.28571,741.6479 c 0,0 14.40901,-2.31616 20.71429,-5.71428 22.08801,-11.90395 53.57143,-52.85715 53.57143,-52.85715 0,0 -33.14169,43.13867 -40,64.99999 -2.07174,6.60382 -1.42857,20.71429 -1.42857,20.71429 z"
                 id="path8073"
                 inkscape:connector-curvature="0"
                 sodipodi:nodetypes="cscscc" />
            </g>
          </g>
          <g
             id="g8075"
             transform="translate(-10.253048,1.1490485)">
            <g
               transform="matrix(-0.02100622,0,0,0.02100622,604.26937,725.53281)"
               id="g8077">
              <ellipse
                 ry="32.857143"
                 rx="65.714287"
                 cy="762.36218"
                 cx="567.14288"
                 id="path8079"
                 transform="matrix(0.58270937,-0.81268061,0.81268061,0.58270937,-465.7507,809.03262)" />
              <path
                 d="m 494.28571,741.6479 c 0,0 14.40901,-2.31616 20.71429,-5.71428 22.08801,-11.90395 53.57143,-52.85715 53.57143,-52.85715 0,0 -33.14169,43.13867 -40,64.99999 -2.07174,6.60382 -1.42857,20.71429 -1.42857,20.71429 z"
                 id="path8081"
                 inkscape:connector-curvature="0"
                 sodipodi:nodetypes="cscscc" />
            </g>
            <g
               transform="matrix(-0.02100622,0,0,0.02100622,604.26938,727.5359)"
               id="g8083">
              <ellipse
                 ry="32.857143"
                 rx="65.714287"
                 cy="762.36218"
                 cx="567.14288"
                 id="path8085"
                 transform="matrix(0.58270937,-0.81268061,0.81268061,0.58270937,-465.7507,809.03262)" />
              <path
                 d="m 494.28571,741.6479 c 0,0 14.40901,-2.31616 20.71429,-5.71428 22.08801,-11.90395 53.57143,-52.85715 53.57143,-52.85715 0,0 -33.14169,43.13867 -40,64.99999 -2.07174,6.60382 -1.42857,20.71429 -1.42857,20.71429 z"
                 id="path8087"
                 inkscape:connector-curvature="0"
                 sodipodi:nodetypes="cscscc" />
            </g>
            <g
               transform="matrix(-0.02100622,0,0,0.02100622,604.26938,723.52972)"
               id="g8089">
              <ellipse
                 ry="32.857143"
                 rx="65.714287"
                 cy="762.36218"
                 cx="567.14288"
                 id="path8091"
                 transform="matrix(0.58270937,-0.81268061,0.81268061,0.58270937,-465.7507,809.03262)" />
              <path
                 d="m 494.28571,741.6479 c 0,0 14.40901,-2.31616 20.71429,-5.71428 22.08801,-11.90395 53.57143,-52.85715 53.57143,-52.85715 0,0 -33.14169,43.13867 -40,64.99999 -2.07174,6.60382 -1.42857,20.71429 -1.42857,20.71429 z"
                 id="path8093"
                 inkscape:connector-curvature="0"
                 sodipodi:nodetypes="cscscc" />
            </g>
            <g
               transform="matrix(-0.02100622,0,0,0.02100622,604.26937,721.52662)"
               id="g8095">
              <ellipse
                 ry="32.857143"
                 rx="65.714287"
                 cy="762.36218"
                 cx="567.14288"
                 id="path8097"
                 transform="matrix(0.58270937,-0.81268061,0.81268061,0.58270937,-465.7507,809.03262)" />
              <path
                 d="m 494.28571,741.6479 c 0,0 14.40901,-2.31616 20.71429,-5.71428 22.08801,-11.90395 53.57143,-52.85715 53.57143,-52.85715 0,0 -33.14169,43.13867 -40,64.99999 -2.07174,6.60382 -1.42857,20.71429 -1.42857,20.71429 z"
                 id="path8099"
                 inkscape:connector-curvature="0"
                 sodipodi:nodetypes="cscscc" />
            </g>
            <g
               transform="matrix(-0.02064274,-0.0038908,-0.0038908,0.02064274,607.30369,721.64932)"
               id="g8101">
              <ellipse
                 ry="32.857143"
                 rx="65.714287"
                 cy="762.36218"
                 cx="567.14288"
                 id="path8103"
                 transform="matrix(0.58270937,-0.81268061,0.81268061,0.58270937,-465.7507,809.03262)" />
              <path
                 d="m 494.28571,741.6479 c 0,0 14.40901,-2.31616 20.71429,-5.71428 22.08801,-11.90395 53.57143,-52.85715 53.57143,-52.85715 0,0 -33.14169,43.13867 -40,64.99999 -2.07174,6.60382 -1.42857,20.71429 -1.42857,20.71429 z"
                 id="path8105"
                 inkscape:connector-curvature="0"
                 sodipodi:nodetypes="cscscc" />
            </g>
          </g>
        </g>
        <circle
           r="2.5"
           cy="732.36218"
           cx="608"
           class="design-element yellow"
           id="path8109"
           transform="matrix(0.485552,-0.55754244,0.55754244,0.485552,-609.87518,1.320708)" />
        <circle
           r="2.5"
           cy="732.36218"
           cx="608"
           id="path8111"
           class="design-element yellow"
           inkscape:transform-center-x="-3.1501887"
           inkscape:transform-center-y="-1.6050895"
           transform="matrix(-0.38021056,-0.63407748,0.63407748,-0.38021056,-141.51598,679.55003)" />
        <circle
           r="2.5"
           cy="732.36218"
           cx="608"
           transform="matrix(-0.72053504,0.16566101,-0.16566101,-0.72053504,648.2494,443.69835)"
           inkscape:transform-center-y="-3.4919705"
           inkscape:transform-center-x="0.5530674"
           class="design-element yellow"
           id="path8113" />
        <circle
           r="2.5"
           cy="732.36218"
           cx="608"
           id="path8115"
           class="design-element yellow"
           inkscape:transform-center-x="3.4919258"
           inkscape:transform-center-y="-0.5530731"
           transform="matrix(-0.06510459,0.73646162,-0.73646162,-0.06510459,667.99205,-380.29537)" />
        <circle
           r="2.5"
           cy="732.36218"
           cx="608"
           transform="matrix(0.68029819,0.2894973,-0.2894973,0.68029819,-109.57177,-653.69978)"
           inkscape:transform-center-y="3.1501051"
           inkscape:transform-center-x="1.6050854"
           class="design-element yellow"
           id="path8117" />
        <g
           transform="matrix(-0.6491698,-0.35382606,0.35382606,-0.6491698,218.16484,702.9075)"
           id="g8119">
          <circle
             r="2.5"
             cy="732.36218"
             cx="608"
             transform="translate(1.5,9.75)"
             id="path8121"
             class="design-element yellow" />
          <circle
             r="2.5"
             cy="732.36218"
             cx="608"
             transform="matrix(0.30901699,-0.95105652,0.95105652,0.30901699,-274.24997,1089.9371)"
             inkscape:transform-center-y="-1.6050895"
             inkscape:transform-center-x="-3.1501887"
             class="design-element yellow"
             id="path8123" />
          <circle
             r="2.5"
             cy="732.36218"
             cx="608"
             id="path8125"
             class="design-element yellow"
             inkscape:transform-center-x="0.5530674"
             inkscape:transform-center-y="-3.4919705"
             transform="matrix(-0.809017,-0.58778525,0.58778525,-0.809017,667.85758,1685.9871)" />
          <circle
             r="2.5"
             cy="732.36218"
             cx="608"
             transform="matrix(-0.80901699,0.58778526,-0.58778526,-0.80901699,1525.8621,974.17912)"
             inkscape:transform-center-y="-0.5530731"
             inkscape:transform-center-x="3.4919258"
             class="design-element yellow"
             id="path8127" />
          <circle
             r="2.5"
             cy="732.36218"
             cx="608"
             id="path8129"
             class="design-element yellow"
             inkscape:transform-center-x="1.6050854"
             inkscape:transform-center-y="3.1501051"
             transform="matrix(0.309017,0.95105651,-0.95105651,0.309017,1114.0304,-61.792435)" />
        </g>
        <g
           id="g8131"
           transform="matrix(0.31450273,-0.66910564,0.66910564,0.31450273,-610.58237,190.80877)">
          <circle
             r="2.5"
             cy="732.36218"
             cx="608"
             class="design-element yellow"
             id="path8133"
             transform="translate(1.5,9.75)" />
          <circle
             r="2.5"
             cy="732.36218"
             cx="608"
             id="path8135"
             class="design-element yellow"
             inkscape:transform-center-x="-3.1501887"
             inkscape:transform-center-y="-1.6050895"
             transform="matrix(0.30901699,-0.95105652,0.95105652,0.30901699,-274.24997,1089.9371)" />
          <circle
             r="2.5"
             cy="732.36218"
             cx="608"
             transform="matrix(-0.809017,-0.58778525,0.58778525,-0.809017,667.85758,1685.9871)"
             inkscape:transform-center-y="-3.4919705"
             inkscape:transform-center-x="0.5530674"
             class="design-element yellow"
             id="path8137" />
          <circle
             r="2.5"
             cy="732.36218"
             cx="608"
             id="path8139"
             class="design-element yellow"
             inkscape:transform-center-x="3.4919258"
             inkscape:transform-center-y="-0.5530731"
             transform="matrix(-0.80901699,0.58778526,-0.58778526,-0.80901699,1525.8621,974.17912)" />
          <circle
             r="2.5"
             cy="732.36218"
             cx="608"
             transform="matrix(0.309017,0.95105651,-0.95105651,0.309017,1114.0304,-61.792435)"
             inkscape:transform-center-y="3.1501051"
             inkscape:transform-center-x="1.6050854"
             class="design-element yellow"
             id="path8141" />
        </g>
      </g>
      <g
         id="g391"
         class="green">
        <path
           inkscape:connector-curvature="0"
           id="path7948"
           d="M 150,26.012039 150,95 l 1,0 0,-68.987961 z"
           sodipodi:nodetypes="ccccc" />
        <path
           inkscape:connector-curvature="0"
           id="path7950"
           d="M 146,26.012039 146,95 l 3,0 0,-68.987961 z"
           sodipodi:nodetypes="ccccc" />
        <path
           inkscape:connector-curvature="0"
           id="path7952"
           d="M 143,26.012039 143,95 l 2,0 0,-68.987961 z"
           sodipodi:nodetypes="ccccc" />
        <path
           inkscape:connector-curvature="0"
           id="path7954"
           d="M 141,26.012039 141,95 l 1,0 0,-68.987961 z"
           sodipodi:nodetypes="ccccc" />
        <path
           inkscape:connector-curvature="0"
           id="path7956"
           d="m 135,24 0,71 3,0 -5e-5,-69 z"
           sodipodi:nodetypes="ccccc" />
        <path
           inkscape:connector-curvature="0"
           id="path7958"
           d="m 132,26 0,69 2,0 -4e-5,-69 z"
           sodipodi:nodetypes="ccccc" />
        <path
           inkscape:connector-curvature="0"
           id="path7960"
           d="m 129,26 0,69 2,0 1e-5,-69 z"
           sodipodi:nodetypes="ccccc" />
        <path
           inkscape:connector-curvature="0"
           id="path7962"
           d="m 125,26 0,69 1,0 5e-5,-69 z"
           sodipodi:nodetypes="ccccc" />
        <path
           inkscape:connector-curvature="0"
           id="path7964"
           d="m 121,26 0,69 1,0 6e-5,-69 z"
           sodipodi:nodetypes="ccccc" />
        <path
           inkscape:connector-curvature="0"
           id="path7966"
           d="m 116,26 0,69 2,0 1e-5,-69 z"
           sodipodi:nodetypes="ccccc" />
        <path
           inkscape:connector-curvature="0"
           id="path7968"
           d="m 112,26 0,69 1,0 -5e-5,-69 z"
           sodipodi:nodetypes="ccccc" />
        <path
           inkscape:connector-curvature="0"
           id="path7970"
           d="m 110,26 0,69 1,0 -5e-5,-69 z"
           sodipodi:nodetypes="ccccc" />
        <path
           inkscape:connector-curvature="0"
           id="path7972"
           d="m 108,26 0,69 1,0 4e-5,-69 z"
           sodipodi:nodetypes="ccccc" />
        <path
           inkscape:connector-curvature="0"
           id="path7974"
           d="m 103,26 0,69 2,0 1e-5,-69 z"
           sodipodi:nodetypes="ccccc" />
        <path
           inkscape:connector-curvature="0"
           id="path7976"
           d="m 99,26 0,69 1,0 -10e-7,-69 z"
           sodipodi:nodetypes="ccccc" />
        <path
           inkscape:connector-curvature="0"
           id="path7978"
           d="M 94.983089,26.012039 95,95 96,95 95.98263,26.012039 Z"
           sodipodi:nodetypes="ccccc" />
        <path
           d="M 122.44657,6.3372804 C 131.63587,7.2870331 135.07702,14.767884 135,28 l 2.96392,-1.398609 c 0,-1.461895 -0.0255,-1.249361 -0.0255,-2.711244 0,-10.866897 -6.40398,-17.274677 -10.91182,-18.343579 z"
           id="path8143"
           inkscape:connector-curvature="0"
           sodipodi:nodetypes="cccscc" />
        <g
           transform="matrix(0.89458574,0,0,0.89458574,-468.09845,-644.42698)"
           id="g8145">
          <g
             transform="translate(-0.6875,-0.0625)"
             id="g8147">
            <path
               sodipodi:nodetypes="ccc"
               inkscape:connector-curvature="0"
               id="path8149"
               d="m 646.11882,744.69741 c 9.98853,-2.85699 22.36057,-3.40732 20.1894,-18.03175 -19.13147,-9.00363 -12.68327,7.89971 -20.1894,18.03175 z" />
            <path
               sodipodi:nodetypes="ccc"
               inkscape:connector-curvature="0"
               id="path8151"
               d="m 667.50879,725.1485 c -4.96993,6.86401 -15.79612,16.96445 -22.45063,19.97578 6.6817,-2.48508 19.65127,-12.66443 22.45063,-19.97578 z"
               style="fill:#ffffff;fill-opacity:1;stroke:none" />
          </g>
        </g>
        <g
           id="g8153"
           transform="matrix(0.73729109,0.50664139,0.50664139,-0.73729109,-728.9281,199.42539)">
          <g
             transform="matrix(-0.85351374,-0.52107033,0.52107033,-0.85351374,864.58887,1695.2445)"
             id="g8155">
            <g
               transform="translate(-0.6875,-0.0625)"
               id="g8157">
              <path
                 sodipodi:nodetypes="ccc"
                 inkscape:connector-curvature="0"
                 id="path8159"
                 d="m 646.11882,744.69741 c 9.98853,-2.85699 22.36057,-3.40732 20.1894,-18.03175 -19.99874,-7.24796 -12.68327,7.89971 -20.1894,18.03175 z" />
              <path
                 sodipodi:nodetypes="ccc"
                 inkscape:connector-curvature="0"
                 id="path8161"
                 d="m 667.50879,725.1485 c -4.96993,6.86401 -15.79612,16.96445 -22.45063,19.97578 6.6817,-2.48508 19.65127,-12.66443 22.45063,-19.97578 z"
                 style="fill:#ffffff;fill-opacity:1;stroke:none" />
            </g>
          </g>
        </g>
        <path
           sodipodi:nodetypes="cccscc"
           inkscape:connector-curvature="0"
           id="path8163"
           d="M 137.87818,4.6040196 C 135.88514,6.1688092 135.07702,14.767884 135,28 l 2.96392,-1.398609 c 0,-1.461895 0.0361,1.860492 0.0361,0.398609 0,-10.866897 0.85886,-19.3222012 1.21536,-21.1179659 z" />
      </g>
      <g
         id="g395"
         class="cyan">
        <path
           inkscape:connector-curvature="0"
           d="m 154,26 0,69 3,0 0,-53.810872 c -1.32362,-1.014805 -2.12462,-2.271422 -2.12462,-3.662215 0,-1.390781 0.801,-2.675356 2.12462,-3.690161 L 157,26 Z m 4,0 0,7.193768 c 1.12603,-0.642997 2.49599,-1.128715 4.02565,-1.397795 L 162,26 Z m 5,0 -0.08,5.62824 c 0.32965,-0.03644 0.66619,-0.03965 1.00641,-0.05585 L 164,26.000057 c -0.35153,4.6e-5 -0.64847,-3.3e-5 -1,-5.7e-5 z m 2,0 0,5.544374 c 0.68266,0.0083 1.34304,0.08097 1.9849,0.167733 L 167,26 Z M 158,41.860072 158,95 l 4,0 0,-51.770093 c -1.58676,-0.26883 -2.87451,-0.727732 -4,-1.369835 z m 9,1.481649 c -0.64077,0.08753 -1.30349,0.131652 -1.9849,0.139785 L 165,95 l 2,0 z m -4,0.05597 L 163,95 l 1,0 0.006,-51.546402 c -0.34022,-0.01632 -0.67676,-0.01941 -1.00641,-0.05585 z"
           id="path7946"
           sodipodi:nodetypes="ccccscccccccccccccccccccccccccccccccccc" />
        <circle
           r="0.94885141"
           cy="35.27636"
           cx="159.09236"
           id="path8165" />
      </g>
    </g>
  </g>
</svg>
