<?xml version="1.0" encoding="UTF-8"?>
<svg width="179px" height="120px" viewBox="0 0 179 120" version="1.1" xmlns="http://www.w3.org/2000/svg" xmlns:xlink="http://www.w3.org/1999/xlink">
    <title>Group</title>
    <desc>OBF dark mode</desc>
    <defs>
        <path d="M6.08780833,15.4755225 C7.86671458,15.4755225 9.30533763,14.7140967 10.4036775,13.1912451 C11.4009431,11.8098975 11.8995759,10.0208838 11.8995759,7.82420412 C11.8995759,6.22723147 11.6418366,4.85093752 11.1263581,3.69532229 C10.6108796,2.53970705 9.91178294,1.65867678 9.02906809,1.05223147 C8.14635325,0.445786156 7.16930247,0.142563499 6.09791575,0.142563499 C4.44029856,0.142563499 3.05558177,0.821445335 1.94376536,2.17920901 C0.831948954,3.53697268 0.276040751,5.47928225 0.276040751,8.00613772 C0.276040751,10.0074072 0.771304423,11.7155615 1.76183177,13.1306006 C2.85343333,14.6938819 4.29542552,15.4755225 6.08780833,15.4755225 Z M6.07770091,13.7976905 C4.92545481,13.7976905 3.94671946,13.2940039 3.14149485,12.2866309 C2.33627024,11.2792578 1.93365794,9.8625342 1.93365794,8.03645998 C1.93365794,5.92063967 2.32616282,4.35735842 3.11117259,3.34661623 C3.89618235,2.33587405 4.89513255,1.83050295 6.10802317,1.83050295 C6.86271067,1.83050295 7.55843821,2.06128909 8.19520579,2.52286135 C8.83197337,2.98443362 9.30870677,3.59930178 9.62540599,4.36746584 C10.0364411,5.37146975 10.2419587,6.51023928 10.2419587,7.78377444 C10.2419587,9.75809084 9.84271556,11.2539893 9.04422923,12.2714697 C8.2457429,13.2889502 7.25690013,13.7976905 6.07770091,13.7976905 Z M15.5483552,15.2228369 L15.5483552,9.1988135 L18.6614411,9.1988135 C20.3325349,9.1988135 21.508365,8.77767092 22.1889314,7.93538576 C22.8694978,7.09310061 23.209781,6.00486819 23.209781,4.6706885 C23.209781,3.65994631 23.0008943,2.80755373 22.5831208,2.11351076 C22.1653474,1.4194678 21.60607,0.944418968 20.9052888,0.688364281 C20.3931794,0.499692406 19.5980622,0.405356468 18.5199372,0.405356468 L18.5199372,0.405356468 L13.9412751,0.405356468 L13.9412751,15.2228369 L15.5483552,15.2228369 Z M18.6917634,7.45022951 L15.5483552,7.45022951 L15.5483552,2.15394045 L18.6614411,2.15394045 C19.496988,2.15394045 20.0747956,2.23143069 20.394864,2.38641116 C20.7149324,2.54139162 20.9878327,2.82776858 21.2135652,3.24554201 C21.4392976,3.66331545 21.5521638,4.16531741 21.5521638,4.75154787 C21.5521638,5.65447756 21.3230622,6.32999026 20.8648591,6.77808596 C20.406656,7.22618166 19.6822908,7.45022951 18.6917634,7.45022951 L18.6917634,7.45022951 Z M34.3582673,15.2228369 L34.3582673,13.474253 L26.89899,13.474253 L26.89899,8.43064944 L33.6204255,8.43064944 L33.6204255,6.69217287 L26.89899,6.69217287 L26.89899,2.15394045 L34.0752595,2.15394045 L34.0752595,0.405356468 L25.2919099,0.405356468 L25.2919099,15.2228369 L34.3582673,15.2228369 Z M38.0777986,15.2228369 L38.0777986,3.57908694 L44.4555818,15.2228369 L46.1030915,15.2228369 L46.1030915,0.405356468 L44.5667634,0.405356468 L44.5667634,12.038999 L38.1788728,0.405356468 L36.531363,0.405356468 L36.531363,15.2228369 L38.0777986,15.2228369 Z M58.1208161,15.2228369 C59.1922029,15.2228369 60.034488,15.069541 60.6476716,14.7629492 C61.2608552,14.4563574 61.7510652,13.9644629 62.1183015,13.2872656 C62.4855378,12.6100684 62.669156,11.823374 62.669156,10.9271826 C62.669156,10.024253 62.465323,9.26451174 62.057657,8.64795901 C61.6499909,8.03140627 61.0923982,7.59510256 60.3848786,7.33904787 C60.9239411,7.00887209 61.3417146,6.57088381 61.638199,6.02508303 C61.9346833,5.47928225 62.0829255,4.86609866 62.0829255,4.18553225 C62.0829255,3.45105959 61.9110993,2.78060061 61.567447,2.1741553 C61.2237947,1.56770998 60.7824372,1.12129885 60.2433747,0.834921898 C59.7043122,0.548544945 58.9732087,0.405356468 58.0500642,0.405356468 L58.0500642,0.405356468 L53.4916169,0.405356468 L53.4916169,15.2228369 L58.1208161,15.2228369 Z M57.7266267,6.63152834 L55.098697,6.63152834 L55.098697,2.15394045 L57.5345857,2.15394045 C58.4173005,2.15394045 59.0287995,2.22132326 59.3690827,2.35608889 C59.7093659,2.49085451 59.9822663,2.73511721 60.1877839,3.08887698 C60.3933015,3.44263674 60.4960603,3.88567873 60.4960603,4.41800295 C60.4960603,4.99075686 60.3831941,5.44390627 60.1574616,5.77745119 C59.9317292,6.11099612 59.6099763,6.34852053 59.1922029,6.49002444 C58.9024568,6.58436037 58.4139314,6.63152834 57.7266267,6.63152834 L57.7266267,6.63152834 Z M58.1208161,13.474253 L55.098697,13.474253 L55.098697,8.38011233 L57.9085603,8.38011233 C58.7373689,8.38011233 59.3454988,8.46939455 59.7329499,8.64795901 C60.1204011,8.82652346 60.4286775,9.10953127 60.657779,9.49698244 C60.8868806,9.88443362 61.0014314,10.3577979 61.0014314,10.9170752 C61.0014314,11.5235205 60.8818269,12.0272071 60.6426179,12.4281348 C60.4034089,12.8290625 60.0547029,13.117124 59.5964997,13.2923194 C59.2798005,13.4136084 58.787906,13.474253 58.1208161,13.474253 L58.1208161,13.474253 Z M73.9692536,15.2228369 L73.9692536,13.474253 L66.5099763,13.474253 L66.5099763,8.43064944 L73.2314118,8.43064944 L73.2314118,6.69217287 L66.5099763,6.69217287 L66.5099763,2.15394045 L73.6862458,2.15394045 L73.6862458,0.405356468 L64.9028962,0.405356468 L64.9028962,15.2228369 L73.9692536,15.2228369 Z M76.5668611,15.2228369 L77.9010408,10.7351416 L82.9749665,10.7351416 L84.3900056,15.2228369 L86.2295564,15.2228369 L81.2567048,0.405356468 L79.5283357,0.405356468 L74.8587068,15.2228369 L76.5668611,15.2228369 Z M82.4797029,9.13816897 L78.3659822,9.13816897 L79.7001618,4.79197756 C79.9831697,3.85535647 80.2021638,2.91199709 80.3571443,1.96189944 C80.5390779,2.75027834 80.8254548,3.77449709 81.2162751,5.03455569 L81.2162751,5.03455569 L82.4797029,9.13816897 Z M92.3041169,15.4755225 C93.4428865,15.4755225 94.3811921,15.2093604 95.1190339,14.6770362 C95.8568757,14.1447119 96.3656159,13.4186621 96.6452546,12.4988867 C96.9248933,11.5791114 97.0647126,10.4015967 97.0647126,8.9663428 L97.0647126,8.9663428 L97.0647126,0.405356468 L95.4475251,0.405356468 L95.4475251,8.95623537 C95.4475251,10.8294776 95.1897859,12.0895362 94.6743074,12.7364112 C94.1588288,13.3832862 93.3283357,13.7067237 92.1828279,13.7067237 C91.5022615,13.7067237 90.9244538,13.5500586 90.449405,13.2367285 C89.9743562,12.9233985 89.6323884,12.4668799 89.4235017,11.8671729 C89.214615,11.2674658 89.1101716,10.2971533 89.1101716,8.95623537 L89.1101716,8.95623537 L89.1101716,0.405356468 L87.5030915,0.405356468 L87.5030915,8.9663428 C87.5030915,11.392124 87.9023347,13.0834326 88.700821,14.0402686 C89.4993074,14.9971045 90.700406,15.4755225 92.3041169,15.4755225 Z M104.48356,15.2228369 L104.48356,2.15394045 L108.506314,2.15394045 L108.506314,0.405356468 L98.8739411,0.405356468 L98.8739411,2.15394045 L102.87648,2.15394045 L102.87648,15.2228369 L104.48356,15.2228369 Z M115.156998,15.2228369 L115.156998,8.94612795 L120.00856,0.405356468 L118.138687,0.405356468 L115.783658,4.7616553 C115.258072,5.7319678 114.816715,6.60457522 114.459586,7.37947756 C114.102457,6.59109866 113.688052,5.75555178 113.216373,4.87283694 L113.216373,4.87283694 L110.831021,0.405356468 L108.870181,0.405356468 L113.549918,8.94612795 L113.549918,15.2228369 L115.156998,15.2228369 Z M127.599234,15.2228369 L127.599234,8.49129397 L133.29982,8.49129397 L133.29982,6.74270998 L127.599234,6.74270998 L127.599234,2.15394045 L134.189273,2.15394045 L134.189273,0.405356468 L125.992154,0.405356468 L125.992154,15.2228369 L127.599234,15.2228369 Z M135.695279,15.2228369 L137.029459,10.7351416 L142.103385,10.7351416 L143.518424,15.2228369 L145.357974,15.2228369 L140.385123,0.405356468 L138.656754,0.405356468 L133.987125,15.2228369 L135.695279,15.2228369 Z M141.608121,9.13816897 L137.4944,9.13816897 L138.82858,4.79197756 C139.111588,3.85535647 139.330582,2.91199709 139.485562,1.96189944 C139.667496,2.75027834 139.953873,3.77449709 140.344693,5.03455569 L140.344693,5.03455569 L141.608121,9.13816897 Z M151.745865,15.4755225 C153.026138,15.4755225 154.112686,15.0661719 155.005509,14.2474707 C155.898331,13.4287696 156.523306,12.1872412 156.880435,10.5228858 L156.880435,10.5228858 L155.263248,10.0276221 C155.047623,11.294419 154.621426,12.2394629 153.984659,12.8627539 C153.347891,13.4860449 152.591519,13.7976905 151.715543,13.7976905 C150.529605,13.7976905 149.579508,13.2906348 148.86525,12.2765235 C148.150992,11.2624121 147.793863,9.74124514 147.793863,7.71302248 C147.793863,6.37210451 147.970743,5.26365725 148.324503,4.38768069 C148.678262,3.51170412 149.151627,2.86651369 149.744595,2.4521094 C150.337564,2.0377051 151.038345,1.83050295 151.846939,1.83050295 C153.470865,1.83050295 154.552359,2.86145998 155.091422,4.92337405 L155.091422,4.92337405 L156.668179,4.46854006 C156.331265,3.053501 155.741666,1.98042971 154.899381,1.24932619 C154.057095,0.518222679 153.049722,0.152670921 151.877261,0.152670921 C150.805875,0.152670921 149.835562,0.440732445 148.966324,1.01685549 C148.097086,1.59297854 147.408096,2.44537112 146.899356,3.57403323 C146.390616,4.70269534 146.136246,6.08235842 146.136246,7.71302248 C146.136246,9.36390139 146.390616,10.7957862 146.899356,12.0086768 C147.408096,13.2215674 148.06171,14.1025977 148.860196,14.6517676 C149.658682,15.2009375 150.620572,15.4755225 151.745865,15.4755225 Z M163.611978,15.2228369 L163.611978,2.15394045 L167.634732,2.15394045 L167.634732,0.405356468 L158.002359,0.405356468 L158.002359,2.15394045 L162.004898,2.15394045 L162.004898,15.2228369 L163.611978,15.2228369 Z M173.699185,15.4856299 C174.66276,15.4856299 175.486514,15.3036963 176.17045,14.9398291 C176.854385,14.5759619 177.395133,14.0453223 177.792691,13.3479102 C178.19025,12.6504981 178.389029,11.8772803 178.389029,11.0282569 C178.389029,10.1724951 178.200357,9.43633791 177.823013,8.81978518 C177.44567,8.20323244 176.886392,7.7062842 176.145181,7.32894045 C175.660025,7.08636233 174.81774,6.79998537 173.618326,6.46980959 C172.391959,6.13289553 171.60358,5.79935061 171.253189,5.46917483 C170.902799,5.13899905 170.727603,4.67405764 170.727603,4.07435061 C170.727603,3.42747561 170.966812,2.9002051 171.44523,2.49253909 C171.923648,2.08487307 172.617691,1.88104006 173.527359,1.88104006 C174.423551,1.88104006 175.119278,2.11351076 175.614542,2.57845217 C176.109805,3.04339358 176.397867,3.75765139 176.478726,4.72122561 L176.478726,4.72122561 L178.025162,4.5797217 C177.998209,3.67679201 177.797745,2.89178225 177.42377,2.22469241 C177.049796,1.55760256 176.52421,1.04549319 175.847012,0.688364281 C175.169815,0.331235374 174.379752,0.152670921 173.476822,0.152670921 C172.162857,0.152670921 171.118424,0.533383812 170.343521,1.29480959 C169.568619,2.05623537 169.181168,3.0366553 169.181168,4.23606936 C169.181168,4.9031592 169.315933,5.50118166 169.585465,6.03013674 C169.854996,6.55909182 170.23234,6.99539553 170.717496,7.33904787 C171.202652,7.68270022 172.017984,8.02298342 173.163492,8.35989748 C174.450504,8.73724123 175.287735,9.03035647 175.675186,9.23924319 C176.062637,9.44812991 176.352384,9.71597659 176.544425,10.0427832 C176.736466,10.3695899 176.832486,10.7519873 176.832486,11.1899756 C176.832486,11.9379248 176.568009,12.5460547 176.039053,13.0143653 C175.510098,13.4826758 174.767203,13.7168311 173.810367,13.7168311 C173.143277,13.7168311 172.54357,13.5786963 172.011246,13.3024268 C171.478922,13.0261572 171.069571,12.6606055 170.783194,12.2057715 C170.496817,11.7509375 170.313199,11.1158545 170.23234,10.3005225 L170.23234,10.3005225 L168.716226,10.4622412 C168.749918,12.0053076 169.213175,13.2283057 170.105997,14.1312354 C170.998819,15.0341651 172.196549,15.4856299 173.699185,15.4856299 Z" id="path-1"></path>
    </defs>
    <g id="Page-1" stroke="none" stroke-width="1" fill="none" fill-rule="evenodd">
        <g id="Group" transform="translate(0.583090, -3.000000)">
            <path d="M174.41691,17 L174.41691,18.25 L174.41691,47.59375 L174.41691,95 L175.41691,95 L175.41691,17 L174.41691,17 Z M176.41691,17 L176.41691,95 L178.41691,95 L178.41691,17 L176.41691,17 Z M173.41691,54 C170.41691,64 170.41691,62.06339 170.41691,77 L170.41691,95 L173.41691,95 L173.41691,54 Z" id="path12151" fill="#0066FF" fill-rule="nonzero"></path>
            <path d="M150.41691,31 L154.41691,86.65217 L154.41691,95 L157.41691,95 L157.41691,31 L154.41691,31 L150.41691,31 Z M158.41691,31 L158.41691,95 L162.41691,95 L162.41691,31 L158.41691,31 Z M163.41691,31 L163.41691,95 L164.41691,95 L164.41691,31 L163.41691,31 Z M165.41691,31 L165.41691,95 L167.41691,95 L167.41691,86.65217 L171.41691,31 L167.41691,31 L165.41691,31 Z" id="path12155" fill="#00CCFF"></path>
            <path d="M110.41691,38 L110.41691,95 L111.41691,95 L111.41691,38 L110.41691,38 Z M112.41691,38 L112.41691,95 L113.41691,95 L113.41691,38 L112.41691,38 Z M116.41691,38 L116.41691,95 L118.41691,95 L118.41691,38 L116.41691,38 Z M121.41691,38 L121.41691,95 L122.41691,95 L122.41691,38 L121.41691,38 Z M125.41691,38 L125.41691,95 L126.41691,95 L126.41691,38 L125.41691,38 Z M129.41691,38 L129.41691,95 L131.41691,95 L131.41691,38 L129.41691,38 Z M132.41691,38 L132.41691,95 L134.41691,95 L134.41691,38 L132.41691,38 Z M135.41691,38 L135.41691,95 L138.41691,95 L138.41691,38.5625 C138.07984,38.39665 137.73176,38.24362 137.38566,38.09375 C137.38766,38.06315 137.38366,38.03055 137.38566,38 L135.41691,38 L135.41691,38 Z M109.41691,38.0937 C109.07967,38.24022 108.74557,38.40074 108.41691,38.56245 L108.41691,94.99995 L109.41691,94.99995 L109.41691,38.0937 Z M105.41691,40.3437 C104.7209,40.82748 104.05445,41.35132 103.41691,41.9062 L103.41691,94.99995 L105.41691,94.99995 L105.41691,40.3437 Z M141.41691,40.3437 L141.41691,94.99995 L142.41691,94.99995 L142.41691,41.06245 C142.09326,40.81119 141.75393,40.57795 141.41691,40.3437 Z M143.41691,41.9062 L143.41691,94.99995 L145.41691,94.99995 L145.41691,43.87495 C144.78792,43.17774 144.12543,42.52285 143.41691,41.9062 Z M100.41691,45.0312 C100.06409,45.47723 99.7368399,45.93443 99.4169099,46.4062 L99.4169099,94.99995 L100.41691,94.99995 L100.41691,45.0312 Z M146.41691,45.0312 L146.41691,94.99995 L149.41691,94.99995 L149.41691,50.0312 C148.6196,48.23139 147.62194,46.55461 146.41691,45.0312 Z M150.41691,52.7187 L150.41691,94.99995 L151.41691,94.99995 L151.41691,59.49995 C151.41691,57.14137 151.06226,54.86061 150.41691,52.7187 Z M96.3856599,52.7812 C95.7928599,54.76993 95.4569199,56.88526 95.4169099,59.06245 C95.4139099,59.20919 95.4169099,59.35253 95.4169099,59.49995 L95.4481099,94.99995 L96.4168599,94.99995 L96.3856599,52.7812 Z" id="path12157" fill="#00D400"></path>
            <g id="text12163" transform="translate(0.000000, 98.777163)" fill="#FFFFFF" fill-rule="nonzero">
                <g id="OPENBEAUTYFACTS">
                    <use xlink:href="#path-1"></use>
                    <use xlink:href="#path-1"></use>
                </g>
            </g>
            <path d="M12.8411599,3.25 C9.70803989,3.1984 7.20966989,6.39302 6.41690989,16 L6.41690989,38.71875 L28.4169099,38.71875 L28.4169099,16 C24.9744199,12.44994 18.0630099,3.33604 12.8411599,3.25 Z" id="path12167" fill="#FF0000"></path>
            <path d="M19.4169099,33.17567 L19.4169099,95 L21.4169099,95 L21.4169099,33.17567 L19.4169099,33.17567 Z M15.4169099,34 L15.4169099,95 L18.4169099,95 L18.4169099,34 L15.4169099,34 Z M0.416909892,38.12162 L0.416909892,95 L2.41690989,95 L2.41690989,38.12162 L0.416909892,38.12162 Z M3.41690989,38.12162 L3.41690989,95 L4.41690989,95 L4.41690989,38.12162 L3.41690989,38.12162 Z M8.41690989,38.12162 L8.41690989,95 L9.41690989,95 L9.41690989,38.12162 L8.41690989,38.12162 Z M11.4169099,38.12162 L11.4169099,95 L12.4169099,95 L12.4169099,38.12162 L11.4169099,38.12162 Z M22.4169099,38.12162 L22.4169099,95 L25.4169099,95 L25.4169099,38.12162 L22.4169099,38.12162 Z M26.4169099,38.12162 L26.4169099,95 L29.4169099,95 L29.4169099,38.12162 L26.4169099,38.12162 Z M30.4169099,38.12162 L30.4169099,95 L32.4169099,95 L32.4169099,38.12162 L30.4169099,38.12162 Z M33.4169099,38.12162 L33.4169099,95 L34.4169099,95 L34.4169099,38.12162 L33.4169099,38.12162 Z" id="path12169" fill="#FF0000" fill-rule="nonzero"></path>
            <path d="M37.4169099,51 L37.4169099,95 L39.4169099,95 L39.4169099,51 L37.4169099,51 Z M40.4169099,51 L40.4169099,95 L41.4169099,95 L41.4169099,51 L40.4169099,51 Z M44.4169099,51 L44.4169099,95 L45.4169099,95 L45.4169099,51 L44.4169099,51 Z M46.4169099,51 L46.4169099,95 L49.4169099,95 L49.4169099,51 L46.4169099,51 Z M52.4169099,51 L52.4169099,95 L54.4169099,95 L54.4169099,51 L52.4169099,51 Z M55.4169099,51 L55.4169099,95 L56.4169099,95 L56.4169099,51 L55.4169099,51 Z M59.4169099,51 L59.4481099,95 L61.4169099,95 L61.3857099,51 L59.4169099,51 Z M64.4169099,51 L64.4169099,95 L65.4169099,95 L65.4169099,51 L64.4169099,51 Z M66.4169099,51 L66.4169099,95 L67.4169099,95 L67.4169099,51 L66.4169099,51 Z M70.4169099,51 L70.4169099,95 L73.4169099,95 L73.4169099,51 L70.4169099,51 Z M74.4169099,51 L74.4169099,95 L76.4169099,95 L76.4169099,51 L74.4169099,51 Z M77.4169099,51 L77.4169099,95 L78.4169099,95 L78.4169099,51 L77.4169099,51 Z M81.4169099,51 L81.4169099,95 L84.4169099,95 L84.4169099,51 L81.4169099,51 Z M85.4169099,51 L85.4169099,95 L87.4169099,95 L87.4169099,51 L85.4169099,51 Z M88.4169099,51 L88.4169099,95 L89.4169099,95 L89.4169099,51 L88.4169099,51 Z M90.4169099,51 L90.4169099,95 L92.4169099,95 L92.4169099,51 L90.4169099,51 Z" id="path12171" fill="#FFCC00" fill-rule="nonzero"></path>
            <circle id="path12173" fill="#00CCFF" fill-rule="nonzero" cx="159.509231" cy="35.27636" r="1"></circle>
            <path d="M170.41695,118 L170.41695,123 C173.08264,123 175.75119,123 178.41687,123 L178.41687,118 C175.75119,118 173.08264,118 170.41704,118 L170.41695,118 Z" id="path12175" fill="#0066FF" fill-rule="nonzero"></path>
            <path d="M154.41692,118 L154.41692,123 C158.75099,123 163.08282,123 167.41689,123 L167.41689,118 C163.08282,118 158.75099,118 154.41692,118 Z" id="path12177" fill="#00CCFF" fill-rule="nonzero"></path>
            <path d="M95.4169099,118 L95.4169099,123 C114.07651,123 132.75732,123 151.41695,123 L151.41695,118 C132.75732,118 114.07651,118 95.4169099,118 Z" id="path12179" fill="#00D400" fill-rule="nonzero"></path>
            <path d="M37.4169099,118 L37.4169099,123 C55.7502899,123 74.0835299,123 92.4169099,123 L92.4169099,118 C74.0835299,118 55.7502899,118 37.4169099,118 Z" id="path12181" fill="#FFCC00" fill-rule="nonzero"></path>
            <path d="M0.416909892,118 L0.416909892,123 C11.7506199,123 23.0832099,123 34.4169099,123 L34.4169099,118 C23.0832099,118 11.7506199,118 0.416909892,118 Z" id="path12183" fill="#FF0000" fill-rule="nonzero"></path>
            <rect id="rect12187" fill="#FF0000" x="3.41684989" y="35.71875" width="1" height="3"></rect>
            <polygon id="path12191" fill="#FF0000" points="3.41690989 34 17.4169099 34 31.4169099 34 31.4169099 39 17.4169099 39 3.41690989 39"></polygon>
            <polygon id="path12195" fill="#FF0000" points="0.416909892 38 17.4169099 38 34.4169099 38 34.4169099 39 17.4169099 39 0.416909892 39"></polygon>
            <path d="M11.4169099,3.5 C10.7001899,3.76072 10.0196199,4.23547 9.41690989,5 L9.41690989,34 L11.4169099,34 L11.4169099,3.5 Z" id="rect12197" fill="#FFFFFF"></path>
            <path d="M45.6669099,31 C41.0964099,31 37.4169099,34.6795 37.4169099,39.25 L37.4169099,50 L92.4169099,50 L92.4169099,39.25 C92.4169099,34.6795 88.7374099,31 84.1669099,31 L45.6669099,31 Z" id="path12199" fill="#FFCC00"></path>
            <path d="M128.76066,3.0625 C126.97724,3.1096 124.96081,3.30993 123.41691,3.5 C117.05124,4.28364 118.76066,3.4896 104.76066,8.15625 C103.28493,8.64816 103.36933,13.53942 104.76066,12.84375 C109.14417,10.65199 114.55001,10.5246 119.54191,11 C119.04681,12.01323 118.76066,13.24737 118.76066,14.5625 L118.76066,18.21875 C116.85021,19.08733 115.31536,20.67919 114.57316,22.65625 C111.55342,23.78988 109.41691,26.69971 109.41691,30.125 L109.41691,37 L137.41691,37 L137.41691,30.125 C137.41691,26.69971 135.2804,23.78988 132.26066,22.65625 C131.51846,20.67919 129.98361,19.08733 128.07316,18.21875 L128.07316,14.5625 C128.07316,13.73032 127.9396,12.91513 127.72941,12.1875 C129.84399,12.55208 131.59399,12.84375 132.76066,12.84375 C135.87176,12.84375 135.45496,5.05556 132.76066,3.5 C132.10489,3.12139 130.54408,3.01536 128.76066,3.0625 Z" id="path12201" fill="#00D400"></path>
            <rect id="rect12203" x="110.41685" y="0" width="5" height="5"></rect>
            <rect id="rect12205" x="110.41685" y="0" width="5" height="5"></rect>
            <path d="M175.41691,3 C174.86291,3 174.41691,3.446 174.41691,4 L174.41691,7 C174.41691,7.554 174.86291,8 175.41691,8 L175.41691,4 L176.41691,4 L176.41691,8 L177.41691,8 C177.97091,8 178.41691,7.554 178.41691,7 L178.41691,4 C178.41691,3.446 177.97091,3 177.41691,3 L175.41691,3 Z" id="rect12207" fill="#0066FF"></path>
            <g id="g12209" transform="translate(166.416894, 4.000000)" fill="#0066FF">
                <polygon id="path12211" points="0 0 7.0000002 0 7.0000002 1 0 1"></polygon>
                <polygon id="path12213" points="0 2 7.0000002 2 7.0000002 3 0 3"></polygon>
                <polygon id="path12215" points="0 4 7.0000002 4 7.0000002 5 0 5"></polygon>
                <polygon id="path12217" points="0 6 7.0000002 6 7.0000002 7 0 7"></polygon>
                <polygon id="path12219" points="0 8 7.0000002 8 7.0000002 9 0 9"></polygon>
                <polygon id="path12221" points="0 10 7.0000002 10 7.0000002 11 0 11"></polygon>
                <polygon id="path12223" points="0 12 7.0000002 12 7.0000002 13 0 13"></polygon>
            </g>
            <path d="M174.41691,6 L174.41691,7.03125 L174.41691,13.28125 L174.41691,18 L175.41691,18 L175.41691,6 L174.41691,6 Z M176.41691,6 L176.41691,18 L178.41691,18 L178.41691,6 L176.41691,6 Z" id="path12225" fill="#0066FF"></path>
            <rect id="rect12231" x="110.41685" y="0" width="5" height="5"></rect>
            <rect id="rect12233" x="110.41685" y="0" width="5" height="5"></rect>
        </g>
    </g>
</svg>
