<?xml version="1.0" encoding="UTF-8" standalone="no"?>
<!-- Created with Inkscape (http://www.inkscape.org/) -->

<svg
   xmlns:dc="http://purl.org/dc/elements/1.1/"
   xmlns:cc="http://creativecommons.org/ns#"
   xmlns:rdf="http://www.w3.org/1999/02/22-rdf-syntax-ns#"
   xmlns:svg="http://www.w3.org/2000/svg"
   xmlns="http://www.w3.org/2000/svg"
   xmlns:sodipodi="http://sodipodi.sourceforge.net/DTD/sodipodi-0.dtd"
   xmlns:inkscape="http://www.inkscape.org/namespaces/inkscape"
   width="178"
   height="150"
   id="svg8313"
   version="1.1"
   inkscape:version="0.92.3 (2405546, 2018-03-11)"
   sodipodi:docname="openfoodfacts-logo-ca.svg"
   inkscape:export-filename="C:\Users\Stéphane\Desktop\Blogs\OpenFoodFacts\openfoodfacts-logo-712x600.png"
   inkscape:export-xdpi="360"
   inkscape:export-ydpi="360">
  <defs
     id="defs8315" />
  <sodipodi:namedview
     id="base"
     pagecolor="#ffffff"
     bordercolor="#666666"
     borderopacity="1.0"
     inkscape:pageopacity="0.0"
     inkscape:pageshadow="2"
     inkscape:zoom="2.2568164"
     inkscape:cx="61.997861"
     inkscape:cy="88.739106"
     inkscape:document-units="px"
     inkscape:current-layer="layer1"
     showgrid="true"
     inkscape:window-width="1920"
     inkscape:window-height="1017"
     inkscape:window-x="-8"
     inkscape:window-y="-8"
     inkscape:window-maximized="1"
     inkscape:snap-global="true">
    <inkscape:grid
       type="xygrid"
       id="grid8566" />
  </sodipodi:namedview>
  <metadata
     id="metadata8318">
    <rdf:RDF>
      <cc:Work
         rdf:about="">
        <dc:format>image/svg+xml</dc:format>
        <dc:type
           rdf:resource="http://purl.org/dc/dcmitype/StillImage" />
        <dc:title></dc:title>
      </cc:Work>
    </rdf:RDF>
  </metadata>
  <g
     inkscape:label="Calque 1"
     inkscape:groupmode="layer"
     id="layer1">
    <path
       inkscape:export-ydpi="90"
       inkscape:export-xdpi="90"
       inkscape:export-filename="C:\Users\Stéphane\Desktop\Blogs\OpenFoodFacts\test-178.png"
       inkscape:connector-curvature="0"
       style="fill:#0066ff;fill-opacity:1;fill-rule:nonzero;stroke:none"
       d="m 170,26 0,6.41101 c 1.19571,0.444338 2.21393,1.060483 3,1.761208 L 173,26 Z m 4,0 0,8.312003 1,-0.838676 L 175,26 Z m 2,0 0,6.606702 1,-0.978462 0,11.7694 -1,-1.00641 0,52.60877 2,0 0,-69 z M 174,40.685929 174,95 l 1,0 0,-53.475406 z m -1,0.139774 c -0.78598,0.701951 -1.79569,1.313237 -3,1.76122 L 170,95 l 3,0 z"
       id="path7944"
       sodipodi:nodetypes="ccccccccccccccccccccccccccccc" />
    <path
       inkscape:export-ydpi="90"
       inkscape:export-xdpi="90"
       inkscape:export-filename="C:\Users\Stéphane\Desktop\Blogs\OpenFoodFacts\test-178.png"
       inkscape:connector-curvature="0"
       style="fill:#00ccff;fill-opacity:1;fill-rule:nonzero;stroke:none"
       d="m 154,26 0,69 3,0 0,-53.810872 c -1.32362,-1.014805 -2.12462,-2.271422 -2.12462,-3.662215 0,-1.390781 0.801,-2.675356 2.12462,-3.690161 L 157,26 Z m 4,0 0,7.193768 c 1.12603,-0.642997 2.47034,-1.128715 4,-1.397795 L 162,26 Z m 5,0 0,5.62824 c 0.32965,-0.03644 0.65978,-0.03965 1,-0.05585 l 0,-5.572333 c -0.35153,4.6e-5 -0.64847,-3.3e-5 -1,-5.7e-5 z m 2,0 0,5.544374 c 0.68266,0.0083 1.35814,0.08097 2,0.167733 L 167,26 Z M 158,41.860072 158,95 l 4,0 0,-51.770093 c -1.58676,-0.26883 -2.87451,-0.727732 -4,-1.369835 z m 9,1.481649 c -0.64077,0.08753 -1.31859,0.131652 -2,0.139785 L 165,95 l 2,0 z m -4,0.05597 L 163,95 l 1,0 0,-51.546402 c -0.34022,-0.01632 -0.67076,-0.01941 -1.00041,-0.05585 z"
       id="path7946"
       sodipodi:nodetypes="ccccscccccccccccccccccccccccccccccccccc" />
    <path
       inkscape:export-ydpi="90"
       inkscape:export-xdpi="90"
       inkscape:export-filename="C:\Users\Stéphane\Desktop\Blogs\OpenFoodFacts\test-178.png"
       inkscape:connector-curvature="0"
       id="path7948"
       d="m 150,26 0,69 1,0 0,-69 z"
       style="fill:#00d400;fill-opacity:1;fill-rule:nonzero;stroke:none"
       sodipodi:nodetypes="ccccc" />
    <path
       inkscape:export-ydpi="90"
       inkscape:export-xdpi="90"
       inkscape:export-filename="C:\Users\Stéphane\Desktop\Blogs\OpenFoodFacts\test-178.png"
       inkscape:connector-curvature="0"
       id="path7950"
       d="m 146,26 0,69 3,0 0,-69 z"
       style="fill:#00d400;fill-opacity:1;fill-rule:nonzero;stroke:none"
       sodipodi:nodetypes="ccccc" />
    <path
       inkscape:export-ydpi="90"
       inkscape:export-xdpi="90"
       inkscape:export-filename="C:\Users\Stéphane\Desktop\Blogs\OpenFoodFacts\test-178.png"
       inkscape:connector-curvature="0"
       id="path7952"
       d="m 143,26 0,69 2,0 0,-69 z"
       style="fill:#00d400;fill-opacity:1;fill-rule:nonzero;stroke:none"
       sodipodi:nodetypes="ccccc" />
    <path
       inkscape:export-ydpi="90"
       inkscape:export-xdpi="90"
       inkscape:export-filename="C:\Users\Stéphane\Desktop\Blogs\OpenFoodFacts\test-178.png"
       inkscape:connector-curvature="0"
       id="path7954"
       d="m 141,26 0,69 1,0 0,-69 z"
       style="fill:#00d400;fill-opacity:1;fill-rule:nonzero;stroke:none"
       sodipodi:nodetypes="ccccc" />
    <path
       inkscape:export-ydpi="90"
       inkscape:export-xdpi="90"
       inkscape:export-filename="C:\Users\Stéphane\Desktop\Blogs\OpenFoodFacts\test-178.png"
       inkscape:connector-curvature="0"
       id="path7956"
       d="m 135,24 0,71 3,0 -5e-5,-69 z"
       style="fill:#00d400;fill-opacity:1;fill-rule:nonzero;stroke:none"
       sodipodi:nodetypes="ccccc" />
    <path
       inkscape:export-ydpi="90"
       inkscape:export-xdpi="90"
       inkscape:export-filename="C:\Users\Stéphane\Desktop\Blogs\OpenFoodFacts\test-178.png"
       inkscape:connector-curvature="0"
       id="path7958"
       d="m 132,26 0,69 2,0 -4e-5,-69 z"
       style="fill:#00d400;fill-opacity:1;fill-rule:nonzero;stroke:none"
       sodipodi:nodetypes="ccccc" />
    <path
       inkscape:export-ydpi="90"
       inkscape:export-xdpi="90"
       inkscape:export-filename="C:\Users\Stéphane\Desktop\Blogs\OpenFoodFacts\test-178.png"
       inkscape:connector-curvature="0"
       id="path7960"
       d="m 129,26 0,69 2,0 1e-5,-69 z"
       style="fill:#00d400;fill-opacity:1;fill-rule:nonzero;stroke:none"
       sodipodi:nodetypes="ccccc" />
    <path
       inkscape:export-ydpi="90"
       inkscape:export-xdpi="90"
       inkscape:export-filename="C:\Users\Stéphane\Desktop\Blogs\OpenFoodFacts\test-178.png"
       inkscape:connector-curvature="0"
       id="path7962"
       d="m 125,26 0,69 1,0 5e-5,-69 z"
       style="fill:#00d400;fill-opacity:1;fill-rule:nonzero;stroke:none"
       sodipodi:nodetypes="ccccc" />
    <path
       inkscape:export-ydpi="90"
       inkscape:export-xdpi="90"
       inkscape:export-filename="C:\Users\Stéphane\Desktop\Blogs\OpenFoodFacts\test-178.png"
       inkscape:connector-curvature="0"
       id="path7964"
       d="m 121,26 0,69 1,0 6e-5,-69 z"
       style="fill:#00d400;fill-opacity:1;fill-rule:nonzero;stroke:none"
       sodipodi:nodetypes="ccccc" />
    <path
       inkscape:export-ydpi="90"
       inkscape:export-xdpi="90"
       inkscape:export-filename="C:\Users\Stéphane\Desktop\Blogs\OpenFoodFacts\test-178.png"
       inkscape:connector-curvature="0"
       id="path7966"
       d="m 116,26 0,69 2,0 1e-5,-69 z"
       style="fill:#00d400;fill-opacity:1;fill-rule:nonzero;stroke:none"
       sodipodi:nodetypes="ccccc" />
    <path
       inkscape:export-ydpi="90"
       inkscape:export-xdpi="90"
       inkscape:export-filename="C:\Users\Stéphane\Desktop\Blogs\OpenFoodFacts\test-178.png"
       inkscape:connector-curvature="0"
       id="path7968"
       d="m 112,26 0,69 1,0 -5e-5,-69 z"
       style="fill:#00d400;fill-opacity:1;fill-rule:nonzero;stroke:none"
       sodipodi:nodetypes="ccccc" />
    <path
       inkscape:export-ydpi="90"
       inkscape:export-xdpi="90"
       inkscape:export-filename="C:\Users\Stéphane\Desktop\Blogs\OpenFoodFacts\test-178.png"
       inkscape:connector-curvature="0"
       id="path7970"
       d="m 110,26 0,69 1,0 -5e-5,-69 z"
       style="fill:#00d400;fill-opacity:1;fill-rule:nonzero;stroke:none"
       sodipodi:nodetypes="ccccc" />
    <path
       inkscape:export-ydpi="90"
       inkscape:export-xdpi="90"
       inkscape:export-filename="C:\Users\Stéphane\Desktop\Blogs\OpenFoodFacts\test-178.png"
       inkscape:connector-curvature="0"
       id="path7972"
       d="m 108,26 0,69 1,0 4e-5,-69 z"
       style="fill:#00d400;fill-opacity:1;fill-rule:nonzero;stroke:none"
       sodipodi:nodetypes="ccccc" />
    <path
       inkscape:export-ydpi="90"
       inkscape:export-xdpi="90"
       inkscape:export-filename="C:\Users\Stéphane\Desktop\Blogs\OpenFoodFacts\test-178.png"
       inkscape:connector-curvature="0"
       id="path7974"
       d="m 103,26 0,69 2,0 1e-5,-69 z"
       style="fill:#00d400;fill-opacity:1;fill-rule:nonzero;stroke:none"
       sodipodi:nodetypes="ccccc" />
    <path
       inkscape:export-ydpi="90"
       inkscape:export-xdpi="90"
       inkscape:export-filename="C:\Users\Stéphane\Desktop\Blogs\OpenFoodFacts\test-178.png"
       inkscape:connector-curvature="0"
       id="path7976"
       d="m 99,26 0,69 1,0 0,-69 z"
       style="fill:#00d400;fill-opacity:1;fill-rule:nonzero;stroke:none"
       sodipodi:nodetypes="ccccc" />
    <path
       inkscape:export-ydpi="90"
       inkscape:export-xdpi="90"
       inkscape:export-filename="C:\Users\Stéphane\Desktop\Blogs\OpenFoodFacts\test-178.png"
       inkscape:connector-curvature="0"
       id="path7978"
       d="m 95,26 0.0166,69 0.98337,0 -0.0171,-69 z"
       style="fill:#00d400;fill-opacity:1;fill-rule:nonzero;stroke:none"
       sodipodi:nodetypes="ccccc" />
    <path
       inkscape:export-ydpi="90"
       inkscape:export-xdpi="90"
       inkscape:export-filename="C:\Users\Stéphane\Desktop\Blogs\OpenFoodFacts\test-178.png"
       inkscape:connector-curvature="0"
       id="path7980"
       d="m 90,21 0,74 2,0 0,-74 z"
       style="fill:#ffcc00;fill-opacity:1;fill-rule:nonzero;stroke:none"
       sodipodi:nodetypes="ccccc" />
    <path
       inkscape:export-ydpi="90"
       inkscape:export-xdpi="90"
       inkscape:export-filename="C:\Users\Stéphane\Desktop\Blogs\OpenFoodFacts\test-178.png"
       inkscape:connector-curvature="0"
       id="path7983"
       d="m 88,26 0,69 1,0 0,-69 z"
       style="fill:#ffcc00;fill-opacity:1;fill-rule:nonzero;stroke:none"
       sodipodi:nodetypes="ccccc" />
    <path
       inkscape:export-ydpi="90"
       inkscape:export-xdpi="90"
       inkscape:export-filename="C:\Users\Stéphane\Desktop\Blogs\OpenFoodFacts\test-178.png"
       inkscape:connector-curvature="0"
       id="path7985"
       d="m 85,10 0,85 2,0 0,-85 z"
       style="fill:#ffcc00;fill-opacity:1;fill-rule:nonzero;stroke:none"
       sodipodi:nodetypes="ccccc" />
    <path
       inkscape:export-ydpi="90"
       inkscape:export-xdpi="90"
       inkscape:export-filename="C:\Users\Stéphane\Desktop\Blogs\OpenFoodFacts\test-178.png"
       inkscape:connector-curvature="0"
       id="path7987"
       d="m 81,26 0,69 3,0 4e-6,-69 z"
       style="fill:#ffcc00;fill-opacity:1;fill-rule:nonzero;stroke:none"
       sodipodi:nodetypes="ccccc" />
    <path
       inkscape:export-ydpi="90"
       inkscape:export-xdpi="90"
       inkscape:export-filename="C:\Users\Stéphane\Desktop\Blogs\OpenFoodFacts\test-178.png"
       inkscape:connector-curvature="0"
       id="path7989"
       d="m 77,26 0,69 1,0 3e-6,-69 z"
       style="fill:#ffcc00;fill-opacity:1;fill-rule:nonzero;stroke:none"
       sodipodi:nodetypes="ccccc" />
    <path
       inkscape:export-ydpi="90"
       inkscape:export-xdpi="90"
       inkscape:export-filename="C:\Users\Stéphane\Desktop\Blogs\OpenFoodFacts\test-178.png"
       inkscape:connector-curvature="0"
       id="path7991"
       d="m 74,20 0,75 2,0 -7e-6,-75 z"
       style="fill:#ffcc00;fill-opacity:1;fill-rule:nonzero;stroke:none"
       sodipodi:nodetypes="ccccc" />
    <path
       inkscape:export-ydpi="90"
       inkscape:export-xdpi="90"
       inkscape:export-filename="C:\Users\Stéphane\Desktop\Blogs\OpenFoodFacts\test-178.png"
       inkscape:connector-curvature="0"
       id="path7993"
       d="m 70,26 0,69 3,0 4e-6,-69 z"
       style="fill:#ffcc00;fill-opacity:1;fill-rule:nonzero;stroke:none"
       sodipodi:nodetypes="ccccc" />
    <path
       inkscape:export-ydpi="90"
       inkscape:export-xdpi="90"
       inkscape:export-filename="C:\Users\Stéphane\Desktop\Blogs\OpenFoodFacts\test-178.png"
       inkscape:connector-curvature="0"
       id="path7995"
       d="m 66,26 0,69 1,0 3e-6,-69 z"
       style="fill:#ffcc00;fill-opacity:1;fill-rule:nonzero;stroke:none"
       sodipodi:nodetypes="ccccc" />
    <path
       inkscape:export-ydpi="90"
       inkscape:export-xdpi="90"
       inkscape:export-filename="C:\Users\Stéphane\Desktop\Blogs\OpenFoodFacts\test-178.png"
       inkscape:connector-curvature="0"
       id="path7997"
       d="m 64,26 0,69 1,0 10e-7,-69 z"
       style="fill:#ffcc00;fill-opacity:1;fill-rule:nonzero;stroke:none"
       sodipodi:nodetypes="ccccc" />
    <path
       inkscape:export-ydpi="90"
       inkscape:export-xdpi="90"
       inkscape:export-filename="C:\Users\Stéphane\Desktop\Blogs\OpenFoodFacts\test-178.png"
       inkscape:connector-curvature="0"
       id="path7999"
       d="m 59,26 0.02596,69 1.974042,0 -0.02685,-69 z"
       style="fill:#ffcc00;fill-opacity:1;fill-rule:nonzero;stroke:none"
       sodipodi:nodetypes="ccccc" />
    <path
       inkscape:export-ydpi="90"
       inkscape:export-xdpi="90"
       inkscape:export-filename="C:\Users\Stéphane\Desktop\Blogs\OpenFoodFacts\test-178.png"
       inkscape:connector-curvature="0"
       id="path8001"
       d="m 55,15 0,80 1,0 -9e-6,-80 z"
       style="fill:#ffcc00;fill-opacity:1;fill-rule:nonzero;stroke:none"
       sodipodi:nodetypes="ccccc" />
    <path
       inkscape:export-ydpi="90"
       inkscape:export-xdpi="90"
       inkscape:export-filename="C:\Users\Stéphane\Desktop\Blogs\OpenFoodFacts\test-178.png"
       inkscape:connector-curvature="0"
       id="path8003"
       d="m 52,26 0,69 2,0 3e-6,-69 z"
       style="fill:#ffcc00;fill-opacity:1;fill-rule:nonzero;stroke:none"
       sodipodi:nodetypes="ccccc" />
    <path
       inkscape:export-ydpi="90"
       inkscape:export-xdpi="90"
       inkscape:export-filename="C:\Users\Stéphane\Desktop\Blogs\OpenFoodFacts\test-178.png"
       inkscape:connector-curvature="0"
       id="path8005"
       d="m 46,26 0,69 3,0 -7e-6,-69 z"
       style="fill:#ffcc00;fill-opacity:1;fill-rule:nonzero;stroke:none"
       sodipodi:nodetypes="ccccc" />
    <path
       inkscape:export-ydpi="90"
       inkscape:export-xdpi="90"
       inkscape:export-filename="C:\Users\Stéphane\Desktop\Blogs\OpenFoodFacts\test-178.png"
       inkscape:connector-curvature="0"
       id="path8007"
       d="m 44,26 0,69 1,0 10e-7,-69 z"
       style="fill:#ffcc00;fill-opacity:1;fill-rule:nonzero;stroke:none"
       sodipodi:nodetypes="ccccc" />
    <path
       inkscape:export-ydpi="90"
       inkscape:export-xdpi="90"
       inkscape:export-filename="C:\Users\Stéphane\Desktop\Blogs\OpenFoodFacts\test-178.png"
       inkscape:connector-curvature="0"
       id="path8009"
       d="m 40,26 0,69 1,0 2e-6,-69 z"
       style="fill:#ffcc00;fill-opacity:1;fill-rule:nonzero;stroke:none"
       sodipodi:nodetypes="ccccc" />
    <path
       inkscape:export-ydpi="90"
       inkscape:export-xdpi="90"
       inkscape:export-filename="C:\Users\Stéphane\Desktop\Blogs\OpenFoodFacts\test-178.png"
       inkscape:connector-curvature="0"
       id="path8011"
       d="m 37,26 0,69 2,0 4e-6,-69 z"
       style="fill:#ffcc00;fill-opacity:1;fill-rule:nonzero;stroke:none"
       sodipodi:nodetypes="ccccc" />
    <path
       inkscape:export-ydpi="90"
       inkscape:export-xdpi="90"
       inkscape:export-filename="C:\Users\Stéphane\Desktop\Blogs\OpenFoodFacts\test-178.png"
       inkscape:connector-curvature="0"
       id="path8013"
       d="m 33,20 0,75 1,0 -7e-6,-75 z"
       style="fill:#ff0000;fill-opacity:1;fill-rule:nonzero;stroke:none"
       sodipodi:nodetypes="ccccc" />
    <path
       inkscape:export-ydpi="90"
       inkscape:export-xdpi="90"
       inkscape:export-filename="C:\Users\Stéphane\Desktop\Blogs\OpenFoodFacts\test-178.png"
       inkscape:connector-curvature="0"
       id="path8015"
       d="m 30,19 0,76 2,0 4e-6,-76 z"
       style="fill:#ff0000;fill-opacity:1;fill-rule:nonzero;stroke:none"
       sodipodi:nodetypes="ccccc" />
    <path
       inkscape:export-ydpi="90"
       inkscape:export-xdpi="90"
       inkscape:export-filename="C:\Users\Stéphane\Desktop\Blogs\OpenFoodFacts\test-178.png"
       inkscape:connector-curvature="0"
       id="path8017"
       d="m 26,26 0,69 3,0 0,-69 z"
       style="fill:#ff0000;fill-opacity:1;fill-rule:nonzero;stroke:none"
       sodipodi:nodetypes="ccccc" />
    <path
       inkscape:export-ydpi="90"
       inkscape:export-xdpi="90"
       inkscape:export-filename="C:\Users\Stéphane\Desktop\Blogs\OpenFoodFacts\test-178.png"
       inkscape:connector-curvature="0"
       id="path8019"
       d="m 22,26 0,69 3,0 -5e-6,-69 z"
       style="fill:#ff0000;fill-opacity:1;fill-rule:nonzero;stroke:none"
       sodipodi:nodetypes="ccccc" />
    <path
       inkscape:export-ydpi="90"
       inkscape:export-xdpi="90"
       inkscape:export-filename="C:\Users\Stéphane\Desktop\Blogs\OpenFoodFacts\test-178.png"
       inkscape:connector-curvature="0"
       id="path8021"
       d="m 19,20 0,75 2,0 -8.6e-5,-75 z"
       style="fill:#ff0000;fill-opacity:1;fill-rule:nonzero;stroke:none"
       sodipodi:nodetypes="ccccc" />
    <path
       inkscape:export-ydpi="90"
       inkscape:export-xdpi="90"
       inkscape:export-filename="C:\Users\Stéphane\Desktop\Blogs\OpenFoodFacts\test-178.png"
       inkscape:connector-curvature="0"
       id="path8023"
       d="m 15,21 0,74 3,0 -3.5e-5,-74 z"
       style="fill:#ff0000;fill-opacity:1;fill-rule:nonzero;stroke:none"
       sodipodi:nodetypes="ccccc" />
    <path
       inkscape:export-ydpi="90"
       inkscape:export-xdpi="90"
       inkscape:export-filename="C:\Users\Stéphane\Desktop\Blogs\OpenFoodFacts\test-178.png"
       inkscape:connector-curvature="0"
       id="path8025"
       d="m 11,26 0,69 1,0 -4.9e-5,-69 z"
       style="fill:#ff0000;fill-opacity:1;fill-rule:nonzero;stroke:none"
       sodipodi:nodetypes="ccccc" />
    <path
       inkscape:export-ydpi="90"
       inkscape:export-xdpi="90"
       inkscape:export-filename="C:\Users\Stéphane\Desktop\Blogs\OpenFoodFacts\test-178.png"
       inkscape:connector-curvature="0"
       id="path8027"
       d="M 8,26 8,95 9,95 9,26 Z"
       style="fill:#ff0000;fill-opacity:1;fill-rule:nonzero;stroke:none"
       sodipodi:nodetypes="ccccc" />
    <path
       inkscape:export-ydpi="90"
       inkscape:export-xdpi="90"
       inkscape:export-filename="C:\Users\Stéphane\Desktop\Blogs\OpenFoodFacts\test-178.png"
       inkscape:connector-curvature="0"
       id="path8029"
       d="m 3,26 0,69 0.999563,0 0,-69 z"
       style="fill:#ff0000;fill-opacity:1;fill-rule:nonzero;stroke:none"
       sodipodi:nodetypes="ccccc" />
    <path
       inkscape:export-ydpi="90"
       inkscape:export-xdpi="90"
       inkscape:export-filename="C:\Users\Stéphane\Desktop\Blogs\OpenFoodFacts\test-178.png"
       inkscape:connector-curvature="0"
       id="path8031"
       d="m 1.3e-5,26 0,69 2,0 0,-69 z"
       style="fill:#ff0000;fill-opacity:1;fill-rule:nonzero;stroke:none"
       sodipodi:nodetypes="ccccc" />
    <path
       sodipodi:nodetypes="csssacccccssscccsccccc"
       inkscape:connector-curvature="0"
       id="path8033"
       d="m 12.96037,20.168037 c 0.62972,-0.815576 0.719123,-2.676154 1.281409,-4.358843 0.405305,-1.212926 0.463533,-4.596987 1.208651,-4.882429 0.96834,-0.370951 3.169601,-0.358079 4.223988,-0.416629 2.300059,-0.127699 4.518931,1.098659 6.822539,1.101136 2.990853,0.0036 8.861008,-1.410596 8.861008,-1.410596 l -0.140119,-2.038826 1.505607,0.278059 4.07695,-0.516905 -3.008404,1.386137 c 0,0 1.201864,-0.02108 1.688022,0.276832 0.705048,0.432109 0.959994,1.347377 1.46892,1.999162 0.291967,0.373928 1.082477,0.65438 0.908337,1.095671 -0.469844,1.190611 -3.808977,0.485944 -3.808977,0.485944 l -1.918736,1.803326 c -0.833009,1.778987 -2.26137,3.261839 -2.253596,6.722383 0,0 -6.006891,-0.923008 -8.991183,-0.79663 -1.764007,0.07466 -4.968974,0.618073 -4.968974,0.618073 -1.608718,-0.13719 -3.296502,-0.529063 -4.905219,-0.24954 0.0095,-6.235485 0.866683,-6.128862 0.69876,-9.294821 -0.439183,1.679986 -0.971056,4.516551 -1.026843,5.772464 -0.534756,1.525804 -0.01191,1.899672 -1.72214,2.426032 z"
       style="fill:#ff0000;fill-opacity:1"
       inkscape:export-filename="C:\Users\Stéphane\Desktop\Blogs\OpenFoodFacts\test-178.png"
       inkscape:export-xdpi="90"
       inkscape:export-ydpi="90" />
    <g
       style="fill:#ffcc00"
       transform="matrix(0.01488015,-0.01147672,0.01147672,0.01488015,39.17529,7.567521)"
       id="g8035"
       inkscape:export-filename="C:\Users\Stéphane\Desktop\Blogs\OpenFoodFacts\test-178.png"
       inkscape:export-xdpi="90"
       inkscape:export-ydpi="90">
      <ellipse
         ry="32.857143"
         rx="65.714287"
         cy="762.36218"
         cx="567.14288"
         style="fill:#ffcc00;fill-opacity:1;stroke:none"
         id="path8037"
         transform="matrix(0.58270937,-0.81268061,0.81268061,0.58270937,-465.7507,809.03262)" />
      <path
         style="fill:#ffcc00;fill-opacity:1;stroke:none"
         d="m 494.28571,741.6479 c 0,0 14.40901,-2.31616 20.71429,-5.71428 22.08801,-11.90395 53.57143,-52.85715 53.57143,-52.85715 0,0 -33.14169,43.13867 -40,64.99999 -2.07174,6.60382 -1.42857,20.71429 -1.42857,20.71429 z"
         id="path8039"
         inkscape:connector-curvature="0"
         sodipodi:nodetypes="cscscc" />
    </g>
    <g
       transform="matrix(0.89458574,0,0,0.89458574,-468.13007,-644.42698)"
       id="g8041"
       inkscape:export-filename="C:\Users\Stéphane\Desktop\Blogs\OpenFoodFacts\test-178.png"
       inkscape:export-xdpi="90"
       inkscape:export-ydpi="90">
      <g
         id="g8043"
         transform="translate(-9.5459416,1.1490485)"
         style="fill:#ffcc00">
        <g
           transform="matrix(0.02100622,0,0,0.02100622,586.13922,725.53281)"
           id="g8045"
           style="fill:#ffcc00">
          <ellipse
             ry="32.857143"
             rx="65.714287"
             cy="762.36218"
             cx="567.14288"
             style="fill:#ffcc00;fill-opacity:1;stroke:none"
             id="path8047"
             transform="matrix(0.58270937,-0.81268061,0.81268061,0.58270937,-465.7507,809.03262)" />
          <path
             style="fill:#ffcc00;fill-opacity:1;stroke:none"
             d="m 494.28571,741.6479 c 0,0 14.40901,-2.31616 20.71429,-5.71428 22.08801,-11.90395 53.57143,-52.85715 53.57143,-52.85715 0,0 -33.14169,43.13867 -40,64.99999 -2.07174,6.60382 -1.42857,20.71429 -1.42857,20.71429 z"
             id="path8049"
             inkscape:connector-curvature="0"
             sodipodi:nodetypes="cscscc" />
        </g>
        <g
           transform="matrix(0.02100622,0,0,0.02100622,586.13922,727.5359)"
           id="g8051"
           style="fill:#ffcc00">
          <ellipse
             ry="32.857143"
             rx="65.714287"
             cy="762.36218"
             cx="567.14288"
             style="fill:#ffcc00;fill-opacity:1;stroke:none"
             id="path8053"
             transform="matrix(0.58270937,-0.81268061,0.81268061,0.58270937,-465.7507,809.03262)" />
          <path
             style="fill:#ffcc00;fill-opacity:1;stroke:none"
             d="m 494.28571,741.6479 c 0,0 14.40901,-2.31616 20.71429,-5.71428 22.08801,-11.90395 53.57143,-52.85715 53.57143,-52.85715 0,0 -33.14169,43.13867 -40,64.99999 -2.07174,6.60382 -1.42857,20.71429 -1.42857,20.71429 z"
             id="path8055"
             inkscape:connector-curvature="0"
             sodipodi:nodetypes="cscscc" />
        </g>
        <g
           transform="matrix(0.02100622,0,0,0.02100622,586.13922,723.52972)"
           id="g8057"
           style="fill:#ffcc00">
          <ellipse
             ry="32.857143"
             rx="65.714287"
             cy="762.36218"
             cx="567.14288"
             style="fill:#ffcc00;fill-opacity:1;stroke:none"
             id="path8059"
             transform="matrix(0.58270937,-0.81268061,0.81268061,0.58270937,-465.7507,809.03262)" />
          <path
             style="fill:#ffcc00;fill-opacity:1;stroke:none"
             d="m 494.28571,741.6479 c 0,0 14.40901,-2.31616 20.71429,-5.71428 22.08801,-11.90395 53.57143,-52.85715 53.57143,-52.85715 0,0 -33.14169,43.13867 -40,64.99999 -2.07174,6.60382 -1.42857,20.71429 -1.42857,20.71429 z"
             id="path8061"
             inkscape:connector-curvature="0"
             sodipodi:nodetypes="cscscc" />
        </g>
        <g
           transform="matrix(0.02100622,0,0,0.02100622,586.13922,721.52662)"
           id="g8063"
           style="fill:#ffcc00">
          <ellipse
             ry="32.857143"
             rx="65.714287"
             cy="762.36218"
             cx="567.14288"
             style="fill:#ffcc00;fill-opacity:1;stroke:none"
             id="path8065"
             transform="matrix(0.58270937,-0.81268061,0.81268061,0.58270937,-465.7507,809.03262)" />
          <path
             style="fill:#ffcc00;fill-opacity:1;stroke:none"
             d="m 494.28571,741.6479 c 0,0 14.40901,-2.31616 20.71429,-5.71428 22.08801,-11.90395 53.57143,-52.85715 53.57143,-52.85715 0,0 -33.14169,43.13867 -40,64.99999 -2.07174,6.60382 -1.42857,20.71429 -1.42857,20.71429 z"
             id="path8067"
             inkscape:connector-curvature="0"
             sodipodi:nodetypes="cscscc" />
        </g>
        <g
           transform="matrix(0.02064274,-0.0038908,0.0038908,0.02064274,583.1049,721.64932)"
           id="g8069"
           style="fill:#ffcc00">
          <ellipse
             ry="32.857143"
             rx="65.714287"
             cy="762.36218"
             cx="567.14288"
             style="fill:#ffcc00;fill-opacity:1;stroke:none"
             id="path8071"
             transform="matrix(0.58270937,-0.81268061,0.81268061,0.58270937,-465.7507,809.03262)" />
          <path
             style="fill:#ffcc00;fill-opacity:1;stroke:none"
             d="m 494.28571,741.6479 c 0,0 14.40901,-2.31616 20.71429,-5.71428 22.08801,-11.90395 53.57143,-52.85715 53.57143,-52.85715 0,0 -33.14169,43.13867 -40,64.99999 -2.07174,6.60382 -1.42857,20.71429 -1.42857,20.71429 z"
             id="path8073"
             inkscape:connector-curvature="0"
             sodipodi:nodetypes="cscscc" />
        </g>
      </g>
      <g
         id="g8075"
         style="fill:#ffcc00"
         transform="translate(-10.253048,1.1490485)">
        <g
           transform="matrix(-0.02100622,0,0,0.02100622,604.26937,725.53281)"
           id="g8077"
           style="fill:#ffcc00">
          <ellipse
             ry="32.857143"
             rx="65.714287"
             cy="762.36218"
             cx="567.14288"
             style="fill:#ffcc00;fill-opacity:1;stroke:none"
             id="path8079"
             transform="matrix(0.58270937,-0.81268061,0.81268061,0.58270937,-465.7507,809.03262)" />
          <path
             style="fill:#ffcc00;fill-opacity:1;stroke:none"
             d="m 494.28571,741.6479 c 0,0 14.40901,-2.31616 20.71429,-5.71428 22.08801,-11.90395 53.57143,-52.85715 53.57143,-52.85715 0,0 -33.14169,43.13867 -40,64.99999 -2.07174,6.60382 -1.42857,20.71429 -1.42857,20.71429 z"
             id="path8081"
             inkscape:connector-curvature="0"
             sodipodi:nodetypes="cscscc" />
        </g>
        <g
           transform="matrix(-0.02100622,0,0,0.02100622,604.26938,727.5359)"
           id="g8083"
           style="fill:#ffcc00">
          <ellipse
             ry="32.857143"
             rx="65.714287"
             cy="762.36218"
             cx="567.14288"
             style="fill:#ffcc00;fill-opacity:1;stroke:none"
             id="path8085"
             transform="matrix(0.58270937,-0.81268061,0.81268061,0.58270937,-465.7507,809.03262)" />
          <path
             style="fill:#ffcc00;fill-opacity:1;stroke:none"
             d="m 494.28571,741.6479 c 0,0 14.40901,-2.31616 20.71429,-5.71428 22.08801,-11.90395 53.57143,-52.85715 53.57143,-52.85715 0,0 -33.14169,43.13867 -40,64.99999 -2.07174,6.60382 -1.42857,20.71429 -1.42857,20.71429 z"
             id="path8087"
             inkscape:connector-curvature="0"
             sodipodi:nodetypes="cscscc" />
        </g>
        <g
           transform="matrix(-0.02100622,0,0,0.02100622,604.26938,723.52972)"
           id="g8089"
           style="fill:#ffcc00">
          <ellipse
             ry="32.857143"
             rx="65.714287"
             cy="762.36218"
             cx="567.14288"
             style="fill:#ffcc00;fill-opacity:1;stroke:none"
             id="path8091"
             transform="matrix(0.58270937,-0.81268061,0.81268061,0.58270937,-465.7507,809.03262)" />
          <path
             style="fill:#ffcc00;fill-opacity:1;stroke:none"
             d="m 494.28571,741.6479 c 0,0 14.40901,-2.31616 20.71429,-5.71428 22.08801,-11.90395 53.57143,-52.85715 53.57143,-52.85715 0,0 -33.14169,43.13867 -40,64.99999 -2.07174,6.60382 -1.42857,20.71429 -1.42857,20.71429 z"
             id="path8093"
             inkscape:connector-curvature="0"
             sodipodi:nodetypes="cscscc" />
        </g>
        <g
           transform="matrix(-0.02100622,0,0,0.02100622,604.26937,721.52662)"
           id="g8095"
           style="fill:#ffcc00">
          <ellipse
             ry="32.857143"
             rx="65.714287"
             cy="762.36218"
             cx="567.14288"
             style="fill:#ffcc00;fill-opacity:1;stroke:none"
             id="path8097"
             transform="matrix(0.58270937,-0.81268061,0.81268061,0.58270937,-465.7507,809.03262)" />
          <path
             style="fill:#ffcc00;fill-opacity:1;stroke:none"
             d="m 494.28571,741.6479 c 0,0 14.40901,-2.31616 20.71429,-5.71428 22.08801,-11.90395 53.57143,-52.85715 53.57143,-52.85715 0,0 -33.14169,43.13867 -40,64.99999 -2.07174,6.60382 -1.42857,20.71429 -1.42857,20.71429 z"
             id="path8099"
             inkscape:connector-curvature="0"
             sodipodi:nodetypes="cscscc" />
        </g>
        <g
           transform="matrix(-0.02064274,-0.0038908,-0.0038908,0.02064274,607.30369,721.64932)"
           id="g8101"
           style="fill:#ffcc00">
          <ellipse
             ry="32.857143"
             rx="65.714287"
             cy="762.36218"
             cx="567.14288"
             style="fill:#ffcc00;fill-opacity:1;stroke:none"
             id="path8103"
             transform="matrix(0.58270937,-0.81268061,0.81268061,0.58270937,-465.7507,809.03262)" />
          <path
             style="fill:#ffcc00;fill-opacity:1;stroke:none"
             d="m 494.28571,741.6479 c 0,0 14.40901,-2.31616 20.71429,-5.71428 22.08801,-11.90395 53.57143,-52.85715 53.57143,-52.85715 0,0 -33.14169,43.13867 -40,64.99999 -2.07174,6.60382 -1.42857,20.71429 -1.42857,20.71429 z"
             id="path8105"
             inkscape:connector-curvature="0"
             sodipodi:nodetypes="cscscc" />
        </g>
      </g>
    </g>
    <g
       id="g8107"
       transform="matrix(0.485552,-0.55754244,0.55754244,0.485552,-616.03955,-2.5771103)"
       inkscape:export-filename="C:\Users\Stéphane\Desktop\Blogs\OpenFoodFacts\test-178.png"
       inkscape:export-xdpi="90"
       inkscape:export-ydpi="90">
      <circle
         r="2.5"
         cy="732.36218"
         cx="608"
         style="fill:#ffcc00;fill-opacity:1"
         id="path8109"
         transform="translate(1.5,9.75)" />
      <circle
         r="2.5"
         cy="732.36218"
         cx="608"
         id="path8111"
         style="fill:#ffcc00;fill-opacity:1"
         inkscape:transform-center-x="-3.1501887"
         inkscape:transform-center-y="-1.6050895"
         transform="matrix(0.30901699,-0.95105652,0.95105652,0.30901699,-274.24997,1089.9371)" />
      <circle
         r="2.5"
         cy="732.36218"
         cx="608"
         transform="matrix(-0.809017,-0.58778525,0.58778525,-0.809017,667.85758,1685.9871)"
         inkscape:transform-center-y="-3.4919705"
         inkscape:transform-center-x="0.5530674"
         style="fill:#ffcc00;fill-opacity:1"
         id="path8113" />
      <circle
         r="2.5"
         cy="732.36218"
         cx="608"
         id="path8115"
         style="fill:#ffcc00;fill-opacity:1"
         inkscape:transform-center-x="3.4919258"
         inkscape:transform-center-y="-0.5530731"
         transform="matrix(-0.80901699,0.58778526,-0.58778526,-0.80901699,1525.8621,974.17912)" />
      <circle
         r="2.5"
         cy="732.36218"
         cx="608"
         transform="matrix(0.309017,0.95105651,-0.95105651,0.309017,1114.0304,-61.792435)"
         inkscape:transform-center-y="3.1501051"
         inkscape:transform-center-x="1.6050854"
         style="fill:#ffcc00;fill-opacity:1"
         id="path8117" />
    </g>
    <g
       transform="matrix(-0.6491698,-0.35382606,0.35382606,-0.6491698,218.16484,702.9075)"
       id="g8119"
       inkscape:export-filename="C:\Users\Stéphane\Desktop\Blogs\OpenFoodFacts\test-178.png"
       inkscape:export-xdpi="90"
       inkscape:export-ydpi="90">
      <circle
         r="2.5"
         cy="732.36218"
         cx="608"
         transform="translate(1.5,9.75)"
         id="path8121"
         style="fill:#ffcc00;fill-opacity:1" />
      <circle
         r="2.5"
         cy="732.36218"
         cx="608"
         transform="matrix(0.30901699,-0.95105652,0.95105652,0.30901699,-274.24997,1089.9371)"
         inkscape:transform-center-y="-1.6050895"
         inkscape:transform-center-x="-3.1501887"
         style="fill:#ffcc00;fill-opacity:1"
         id="path8123" />
      <circle
         r="2.5"
         cy="732.36218"
         cx="608"
         id="path8125"
         style="fill:#ffcc00;fill-opacity:1"
         inkscape:transform-center-x="0.5530674"
         inkscape:transform-center-y="-3.4919705"
         transform="matrix(-0.809017,-0.58778525,0.58778525,-0.809017,667.85758,1685.9871)" />
      <circle
         r="2.5"
         cy="732.36218"
         cx="608"
         transform="matrix(-0.80901699,0.58778526,-0.58778526,-0.80901699,1525.8621,974.17912)"
         inkscape:transform-center-y="-0.5530731"
         inkscape:transform-center-x="3.4919258"
         style="fill:#ffcc00;fill-opacity:1"
         id="path8127" />
      <circle
         r="2.5"
         cy="732.36218"
         cx="608"
         id="path8129"
         style="fill:#ffcc00;fill-opacity:1"
         inkscape:transform-center-x="1.6050854"
         inkscape:transform-center-y="3.1501051"
         transform="matrix(0.309017,0.95105651,-0.95105651,0.309017,1114.0304,-61.792435)" />
    </g>
    <g
       id="g8131"
       transform="matrix(0.31450273,-0.66910564,0.66910564,0.31450273,-610.58237,190.80877)"
       inkscape:export-filename="C:\Users\Stéphane\Desktop\Blogs\OpenFoodFacts\test-178.png"
       inkscape:export-xdpi="90"
       inkscape:export-ydpi="90">
      <circle
         r="2.5"
         cy="732.36218"
         cx="608"
         style="fill:#ffcc00;fill-opacity:1"
         id="path8133"
         transform="translate(1.5,9.75)" />
      <circle
         r="2.5"
         cy="732.36218"
         cx="608"
         id="path8135"
         style="fill:#ffcc00;fill-opacity:1"
         inkscape:transform-center-x="-3.1501887"
         inkscape:transform-center-y="-1.6050895"
         transform="matrix(0.30901699,-0.95105652,0.95105652,0.30901699,-274.24997,1089.9371)" />
      <circle
         r="2.5"
         cy="732.36218"
         cx="608"
         transform="matrix(-0.809017,-0.58778525,0.58778525,-0.809017,667.85758,1685.9871)"
         inkscape:transform-center-y="-3.4919705"
         inkscape:transform-center-x="0.5530674"
         style="fill:#ffcc00;fill-opacity:1"
         id="path8137" />
      <circle
         r="2.5"
         cy="732.36218"
         cx="608"
         id="path8139"
         style="fill:#ffcc00;fill-opacity:1"
         inkscape:transform-center-x="3.4919258"
         inkscape:transform-center-y="-0.5530731"
         transform="matrix(-0.80901699,0.58778526,-0.58778526,-0.80901699,1525.8621,974.17912)" />
      <circle
         r="2.5"
         cy="732.36218"
         cx="608"
         transform="matrix(0.309017,0.95105651,-0.95105651,0.309017,1114.0304,-61.792435)"
         inkscape:transform-center-y="3.1501051"
         inkscape:transform-center-x="1.6050854"
         style="fill:#ffcc00;fill-opacity:1"
         id="path8141" />
    </g>
    <path
       style="fill:#00d400;fill-opacity:1;fill-rule:nonzero;stroke:none"
       d="M 122.44657,6.33728 C 131.63587,7.287033 135.07702,14.767884 135,28 l 2.96392,-1.398609 c 0,-1.461895 -0.0255,-1.249361 -0.0255,-2.711244 0,-10.866897 -6.40398,-17.274677 -10.91182,-18.343579 z"
       id="path8143"
       inkscape:connector-curvature="0"
       inkscape:export-filename="C:\Users\Stéphane\Desktop\Blogs\OpenFoodFacts\test-178.png"
       inkscape:export-xdpi="90"
       inkscape:export-ydpi="90"
       sodipodi:nodetypes="cccscc" />
    <g
       transform="matrix(0.89458574,0,0,0.89458574,-468.09845,-644.42698)"
       id="g8145"
       inkscape:export-filename="C:\Users\Stéphane\Desktop\Blogs\OpenFoodFacts\test-178.png"
       inkscape:export-xdpi="90"
       inkscape:export-ydpi="90">
      <g
         transform="translate(-0.6875,-0.0625)"
         id="g8147">
        <path
           sodipodi:nodetypes="ccc"
           inkscape:connector-curvature="0"
           id="path8149"
           d="m 646.11882,744.69741 c 9.98853,-2.85699 22.36057,-3.40732 20.1894,-18.03175 -19.13147,-9.00363 -12.68327,7.89971 -20.1894,18.03175 z"
           style="fill:#00d400;stroke:none" />
        <path
           sodipodi:nodetypes="ccc"
           inkscape:connector-curvature="0"
           id="path8151"
           d="m 667.50879,725.1485 c -4.96993,6.86401 -15.79612,16.96445 -22.45063,19.97578 6.6817,-2.48508 19.65127,-12.66443 22.45063,-19.97578 z"
           style="fill:#ffffff;fill-opacity:1;stroke:none" />
      </g>
    </g>
    <g
       id="g8153"
       transform="matrix(0.73729109,0.50664139,0.50664139,-0.73729109,-728.9281,199.42539)"
       inkscape:export-filename="C:\Users\Stéphane\Desktop\Blogs\OpenFoodFacts\test-178.png"
       inkscape:export-xdpi="90"
       inkscape:export-ydpi="90">
      <g
         transform="matrix(-0.85351374,-0.52107033,0.52107033,-0.85351374,864.58887,1695.2445)"
         id="g8155">
        <g
           transform="translate(-0.6875,-0.0625)"
           id="g8157">
          <path
             sodipodi:nodetypes="ccc"
             inkscape:connector-curvature="0"
             id="path8159"
             d="m 646.11882,744.69741 c 9.98853,-2.85699 22.36057,-3.40732 20.1894,-18.03175 -19.99874,-7.24796 -12.68327,7.89971 -20.1894,18.03175 z"
             style="fill:#00d400;stroke:none" />
          <path
             sodipodi:nodetypes="ccc"
             inkscape:connector-curvature="0"
             id="path8161"
             d="m 667.50879,725.1485 c -4.96993,6.86401 -15.79612,16.96445 -22.45063,19.97578 6.6817,-2.48508 19.65127,-12.66443 22.45063,-19.97578 z"
             style="fill:#ffffff;fill-opacity:1;stroke:none" />
        </g>
      </g>
    </g>
    <path
       sodipodi:nodetypes="cccscc"
       inkscape:export-ydpi="90"
       inkscape:export-xdpi="90"
       inkscape:export-filename="C:\Users\Stéphane\Desktop\Blogs\OpenFoodFacts\test-178.png"
       inkscape:connector-curvature="0"
       id="path8163"
       d="M 137.87818,4.60402 C 135.88514,6.168809 135.07702,14.767884 135,28 l 2.96392,-1.398609 c 0,-1.461895 0.0361,1.860492 0.0361,0.398609 0,-10.866897 0.85886,-19.322201 1.21536,-21.117966 z"
       style="fill:#00d400;fill-opacity:1;fill-rule:nonzero;stroke:none" />
    <circle
       r="0.94885141"
       cy="35.27636"
       cx="159.09236"
       inkscape:export-ydpi="90"
       inkscape:export-xdpi="90"
       inkscape:export-filename="C:\Users\Stéphane\Desktop\Blogs\OpenFoodFacts\test-178.png"
       style="fill:#00ccff;fill-opacity:1;stroke:none"
       id="path8165" />
    <path
       sodipodi:nodetypes="cccccc"
       inkscape:export-ydpi="90"
       inkscape:export-xdpi="90"
       inkscape:export-filename="C:\Users\Stéphane\Desktop\Blogs\OpenFoodFacts\test-178.png"
       id="path8169"
       d="m 170.00004,118 0,5 c 2.66569,0 5.33424,0 7.99992,0 l 0,-5 c -2.66568,0 -5.33423,0 -7.99983,0 z"
       style="fill:#0066ff;fill-opacity:1;fill-rule:nonzero;stroke:none"
       inkscape:connector-curvature="0" />
    <path
       sodipodi:nodetypes="ccccc"
       inkscape:export-ydpi="90"
       inkscape:export-xdpi="90"
       inkscape:export-filename="C:\Users\Stéphane\Desktop\Blogs\OpenFoodFacts\test-178.png"
       id="path8171"
       d="m 154.00001,118 0,5 c 4.33407,0 8.6659,0 12.99997,0 l 0,-5 c -4.33407,0 -8.6659,0 -12.99997,0 z"
       style="fill:#00ccff;fill-opacity:1;fill-rule:nonzero;stroke:none"
       inkscape:connector-curvature="0" />
    <path
       sodipodi:nodetypes="ccccc"
       inkscape:export-ydpi="90"
       inkscape:export-xdpi="90"
       inkscape:export-filename="C:\Users\Stéphane\Desktop\Blogs\OpenFoodFacts\test-178.png"
       id="path8173"
       d="m 95,118 0,5 c 18.6596,0 37.34041,0 56.00004,0 l 0,-5 C 132.34041,118 113.6596,118 95,118 Z"
       style="fill:#00d400;fill-opacity:1;fill-rule:nonzero;stroke:none"
       inkscape:connector-curvature="0" />
    <path
       sodipodi:nodetypes="ccccc"
       inkscape:export-ydpi="90"
       inkscape:export-xdpi="90"
       inkscape:export-filename="C:\Users\Stéphane\Desktop\Blogs\OpenFoodFacts\test-178.png"
       id="path8175"
       d="m 36.999996,118 0,5 C 55.333383,123 73.666619,123 92,123 l 0,-5 c -18.333381,0 -36.666617,0 -55.000004,0 z"
       style="fill:#ffcc00;fill-opacity:1;fill-rule:nonzero;stroke:none"
       inkscape:connector-curvature="0" />
    <path
       sodipodi:nodetypes="ccccc"
       inkscape:export-ydpi="90"
       inkscape:export-xdpi="90"
       inkscape:export-filename="C:\Users\Stéphane\Desktop\Blogs\OpenFoodFacts\test-178.png"
       id="path8177"
       d="m 0,118 0,5 c 11.333706,0 22.666301,0 33.999997,0 l 0,-5 C 22.666301,118 11.333706,118 0,118 Z"
       style="fill:#ff0000;fill-opacity:1;fill-rule:nonzero;stroke:none"
       inkscape:connector-curvature="0" />
    <g
       style="font-style:normal;font-variant:normal;font-weight:normal;font-stretch:normal;font-size:32.81705093px;line-height:125%;font-family:'Arial Narrow';-inkscape-font-specification:'Arial Narrow';letter-spacing:0px;word-spacing:0px;fill:#333333;fill-opacity:1;stroke:none"
       id="text8179"
       inkscape:export-filename="C:\Users\Stéphane\Desktop\Blogs\OpenFoodFacts\test-178.png"
       inkscape:export-xdpi="90"
       inkscape:export-ydpi="90"
       transform="translate(0,2.637817)">
      <path
         inkscape:connector-curvature="0"
         d="m 0.29533203,104.18406 c -9.5e-7,-2.79573 0.61506181,-4.944723 1.84519007,-6.446982 1.2301228,-1.50223 2.7621882,-2.253352 4.5962009,-2.253369 1.1853862,1.7e-5 2.2664056,0.335506 3.2430614,1.006468 0.9766346,0.670993 1.7501226,1.645774 2.3204666,2.924346 0.570318,1.278597 0.855483,2.801347 0.855497,4.568247 -1.4e-5,2.43043 -0.551707,4.40982 -1.65508,5.93815 -1.215227,1.68491 -2.8069346,2.52736 -4.775128,2.52736 -1.9831188,0 -3.5785543,-0.86482 -4.7863113,-2.59445 -1.09593262,-1.56562 -1.64389762,-3.45554 -1.64389667,-5.66977 z m 1.83400717,0.0335 c -2.8e-6,2.0204 0.4454517,3.58787 1.3363649,4.70244 0.890905,1.11457 1.9737882,1.67185 3.2486529,1.67185 1.3046712,0 2.3987374,-0.56287 3.2822018,-1.68863 0.8834432,-1.12574 1.3251702,-2.78082 1.3251822,-4.96524 -1.2e-5,-1.40904 -0.227399,-2.66899 -0.682161,-3.77984 C 10.289169,99.308298 9.761706,98.628001 9.0571893,98.117299 8.3526532,97.606624 7.5828928,97.35128 6.7479059,97.351265 5.4059434,97.35128 4.3006943,97.910428 3.4321552,99.028711 2.563608,100.14702 2.1293364,101.87665 2.1293392,104.21761 Z"
         style="font-size:22.90272331px;fill:#333333"
         id="path3685" />
      <path
         d="m 15,112.36218 0,-16.999997 4.674837,0 c 1.224167,1.6e-5 2.126995,0.107131 2.708487,0.321346 0.795704,0.290757 1.430744,0.830159 1.905122,1.618206 0.474357,0.788077 0.711542,1.755941 0.711554,2.903595 -1.2e-5,1.51492 -0.386392,2.75057 -1.159142,3.70695 -0.772771,0.9564 -2.107912,1.42433 -4.005348,1.43458 L 17,105.36218 l 0,7 z m 2,-9 2.86994,-7.7e-4 c 1.124703,-3e-4 1.947195,-0.25439 2.467477,-0.7632 0.520265,-0.50879 0.780403,-1.27581 0.780412,-2.30107 -9e-6,-0.665632 -0.128166,-1.235638 -0.384467,-1.710022 -0.256321,-0.474353 -0.56619,-0.799524 -0.929608,-0.975514 -0.363435,-0.17596 -1.019516,-0.263948 -1.968244,-0.263963 L 17,97.362183 Z"
         style="font-size:22.90272331px;fill:#333333"
         id="path3687"
         inkscape:connector-curvature="0"
         sodipodi:nodetypes="ccccccssccccsscccccc" />
      <path
         d="m 27,112.36218 0,-16.999997 10,0 0,2 -8,0 0,4.999997 7,0 0,2 -7,0 0,6 8,0 0,2 z"
         style="font-size:22.90272331px;fill:#333333"
         id="path3689"
         inkscape:connector-curvature="0"
         sodipodi:nodetypes="ccccccccccccc" />
      <path
         d="m 39,112.36218 0,-16.999997 2,0 7,12.999997 0,-12.999997 2,0 0,16.999997 -2,0 -7,-12.999997 0,12.999997 z"
         style="font-size:22.90272331px;fill:#333333"
         id="path3691"
         inkscape:connector-curvature="0"
         sodipodi:nodetypes="ccccccccccc" />
      <path
         d="m 58,112.36218 0,-16.999997 9,0 0,2 -7,0 0,4.999997 6,0 0,2 -6,0 0,8 z"
         style="font-size:22.90272331px;fill:#333333"
         id="path3693"
         inkscape:connector-curvature="0"
         sodipodi:nodetypes="ccccccccccc" />
      <path
         d="m 68.255995,104.18406 c -10e-7,-2.79573 0.615062,-4.944723 1.84519,-6.446982 1.230123,-1.50223 2.762188,-2.253352 4.596201,-2.253369 1.185386,1.7e-5 2.266405,0.335506 3.243061,1.006468 0.976635,0.670993 1.750123,1.645774 2.320467,2.924346 0.570318,1.278597 0.855483,2.801347 0.855497,4.568247 -1.4e-5,2.43043 -0.551707,4.40982 -1.65508,5.93815 -1.215227,1.68491 -2.806935,2.52736 -4.775128,2.52736 -1.983119,0 -3.578554,-0.86482 -4.786311,-2.59445 -1.095933,-1.56562 -1.643898,-3.45554 -1.643897,-5.66977 z m 1.834007,0.0335 c -3e-6,2.0204 0.445452,3.58787 1.336365,4.70244 0.890905,1.11457 1.973788,1.67185 3.248653,1.67185 1.304671,0 2.398737,-0.56287 3.282202,-1.68863 0.883443,-1.12574 1.32517,-2.78082 1.325182,-4.96524 -1.2e-5,-1.40904 -0.227399,-2.66899 -0.682162,-3.77984 -0.35041,-0.849892 -0.877873,-1.530189 -1.58239,-2.040891 -0.704536,-0.510675 -1.474296,-0.766019 -2.309283,-0.766034 -1.341963,1.5e-5 -2.447212,0.559163 -3.315751,1.677446 -0.868547,1.118309 -1.302819,2.847939 -1.302816,5.188899 z"
         style="font-size:22.90272331px;fill:#333333"
         id="path3695"
         inkscape:connector-curvature="0"
         sodipodi:nodetypes="sscccccscsssssccccss" />
      <path
         d="m 82.883322,104.18406 c -1e-6,-2.79573 0.615062,-4.944723 1.84519,-6.446982 1.230123,-1.50223 2.762188,-2.253352 4.596201,-2.253369 1.185386,1.7e-5 2.266405,0.335506 3.243061,1.006468 0.976635,0.670993 1.750123,1.645774 2.320467,2.924346 0.570317,1.278597 0.855483,2.801347 0.855497,4.568247 -1.4e-5,2.43043 -0.551707,4.40982 -1.65508,5.93815 -1.215227,1.68491 -2.806935,2.52736 -4.775128,2.52736 -1.983119,0 -3.578555,-0.86482 -4.786312,-2.59445 -1.095932,-1.56562 -1.643897,-3.45554 -1.643896,-5.66977 z m 1.834007,0.0335 c -3e-6,2.0204 0.445452,3.58787 1.336365,4.70244 0.890905,1.11457 1.973788,1.67185 3.248653,1.67185 1.304671,0 2.398737,-0.56287 3.282202,-1.68863 0.883443,-1.12574 1.32517,-2.78082 1.325182,-4.96524 -1.2e-5,-1.40904 -0.227399,-2.66899 -0.682162,-3.77984 -0.35041,-0.849892 -0.877873,-1.530189 -1.58239,-2.040891 -0.704536,-0.510675 -1.474296,-0.766019 -2.309283,-0.766034 -1.341963,1.5e-5 -2.447212,0.559163 -3.315751,1.677446 -0.868547,1.118309 -1.302819,2.847939 -1.302816,5.188899 z"
         style="font-size:22.90272331px;fill:#333333"
         id="path3697"
         inkscape:connector-curvature="0"
         sodipodi:nodetypes="sscccccscsssssccccss" />
      <path
         d="m 98,112.36218 0,-16.999997 5,0 c 1.21266,1.6e-5 2.00501,0.174276 2.63497,0.382679 0.82682,0.270189 1.54339,0.719576 2.14974,1.437449 0.60633,0.717903 1.0788,1.622982 1.41741,2.715233 0.33859,1.092286 0.50789,2.387186 0.5079,3.884706 -1e-5,1.9221 -0.28743,3.55278 -0.86225,4.89207 -0.57485,1.33928 -1.31309,2.28875 -2.21471,2.8484 -0.90163,0.55964 -2.17628,0.83946 -3.63306,0.83946 z m 2,-2 3,0 c 1.22054,0 2.01682,-0.19791 2.64678,-0.58773 0.62996,-0.38982 1.11424,-1.01701 1.45285,-1.88157 0.44883,-1.15015 0.67326,-2.52803 0.67327,-4.13365 -1e-5,-1.72137 -0.23822,-3.07416 -0.71461,-4.058372 -0.47642,-0.984193 -1.08866,-1.642257 -1.83673,-1.974198 C 104.71759,97.502677 104.09454,97.362198 103,97.362183 l -3,0 z"
         style="font-size:22.90272331px;fill:#333333"
         id="path3699"
         inkscape:connector-curvature="0"
         sodipodi:nodetypes="ccccccccssccssccccccc" />
      <path
         d="m 118,112.36218 0.0757,-16.999997 9,0 0,2 -7,3.8e-5 0,4.999999 6,0 0,2 -6,0 0,7.99996 z"
         style="font-size:22.90272331px;fill:#333333"
         id="path3701"
         inkscape:connector-curvature="0"
         sodipodi:nodetypes="ccccccccccc" />
      <path
         d="m 128.07572,112.36218 5,-16.999997 2,0 5,16.999997 -2,0 -4,-14.999997 -4.04025,14.999997 z"
         style="font-size:22.90272331px;fill:#333333"
         id="path3703"
         inkscape:connector-curvature="0"
         sodipodi:nodetypes="cccccccc" />
      <path
         d="m 151.36137,106.42065 1.78927,0.54797 c -0.39514,1.84147 -1.08662,3.21511 -2.07444,4.12092 -0.98784,0.90583 -2.19001,1.35874 -3.60651,1.35874 -1.24504,0 -2.30929,-0.30381 -3.19273,-0.91142 -0.88346,-0.6076 -1.60663,-1.58238 -2.1695,-2.92434 -0.56288,-1.34195 -0.84432,-2.92621 -0.84432,-4.75277 0,-1.80417 0.28144,-3.33065 0.84432,-4.579422 0.56287,-1.248751 1.32518,-2.191847 2.28692,-2.829292 0.96173,-0.637413 2.03529,-0.956127 3.22069,-0.956144 1.29722,1.7e-5 2.41179,0.404467 3.34371,1.213353 0.9319,0.808916 1.58424,1.996173 1.95702,3.561775 l -1.74454,0.50323 c -0.59644,-2.281308 -1.79302,-3.42197 -3.58974,-3.421985 -0.89464,1.5e-5 -1.66999,0.229266 -2.32605,0.687753 -0.65608,0.458516 -1.17981,1.172361 -1.57121,2.141542 -0.39141,0.9692 -0.58711,2.1956 -0.58711,3.67919 0,2.24406 0.39513,3.92709 1.1854,5.04912 0.79026,1.12202 1.84145,1.68303 3.15359,1.68303 0.96919,0 1.80605,-0.3448 2.51058,-1.03442 0.70452,-0.68962 1.17607,-1.73522 1.41465,-3.13683 z"
         style="font-size:22.90272331px;fill:#333333"
         id="path3705"
         inkscape:connector-curvature="0"
         sodipodi:nodetypes="ccsscssscccccccsssssc" />
      <path
         d="m 159,112.36218 0,-14.999997 -5,0.0061 0,-2.006138 12,0 0,2 -5,0 0,14.999995 z"
         style="font-size:22.90272331px;fill:#333333"
         id="path3707"
         inkscape:connector-curvature="0"
         sodipodi:nodetypes="ccccccccc" />
      <path
         inkscape:connector-curvature="0"
         d="m 167.26826,106.90152 1.67745,-0.17893 c 0.0895,0.9021 0.29262,1.60476 0.60947,2.10799 0.31685,0.50324 0.76976,0.90769 1.35873,1.21336 0.58897,0.30567 1.25249,0.4585 1.99057,0.4585 1.05865,0 1.88059,-0.25907 2.46585,-0.77722 0.58523,-0.51814 0.87785,-1.19098 0.87786,-2.01852 -1e-5,-0.48459 -0.10625,-0.90768 -0.31872,-1.26927 -0.21248,-0.36158 -0.53306,-0.65793 -0.96173,-0.88905 -0.42869,-0.23111 -1.35501,-0.55541 -2.77897,-0.97292 -1.26741,-0.37275 -2.1695,-0.74925 -2.70628,-1.12948 -0.53678,-0.38021 -0.95428,-0.86294 -1.25249,-1.44819 -0.29822,-0.58523 -0.44732,-1.24689 -0.44732,-1.98498 0,-1.32703 0.42868,-2.411777 1.28604,-3.254242 0.85736,-0.842434 2.01293,-1.263659 3.46672,-1.263676 0.99901,1.7e-5 1.87314,0.197583 2.62241,0.592698 0.74925,0.395147 1.33076,0.96175 1.74454,1.699811 0.41376,0.73809 0.63556,1.606633 0.66539,2.605629 l -1.711,0.15656 c -0.0895,-1.066092 -0.40818,-1.856355 -0.95614,-2.370785 -0.54797,-0.514402 -1.31773,-0.77161 -2.30928,-0.771625 -1.00648,1.5e-5 -1.77437,0.225538 -2.30369,0.67657 -0.52934,0.45106 -0.794,1.034438 -0.794,1.750135 0,0.663535 0.19384,1.177955 0.58152,1.543245 0.38767,0.36533 1.25994,0.73436 2.61681,1.10712 1.32704,0.36532 2.25896,0.68217 2.79575,0.95055 0.82007,0.41751 1.43886,0.96734 1.85637,1.64949 0.41749,0.68217 0.62623,1.49666 0.62625,2.44348 -2e-5,0.93937 -0.21995,1.79487 -0.6598,2.56649 -0.43987,0.77163 -1.03816,1.35873 -1.79487,1.76132 -0.75672,0.40258 -1.66813,0.60388 -2.73423,0.60388 -1.66254,0 -2.98772,-0.49951 -3.97555,-1.49852 -0.98783,-0.99901 -1.50038,-2.35215 -1.53766,-4.05942 z"
         style="font-size:22.90272331px;fill:#333333"
         id="path3709" />
      <path
         sodipodi:nodetypes="ccccc"
         inkscape:connector-curvature="0"
         id="path3713"
         style="font-size:22.90272331px;fill:#333333"
         d="m 137.07572,105.36218 0,2 -6,0 0,-2 z" />
    </g>
    <g
       aria-label="La informació alimentària oberta"
       transform="scale(0.93191004,1.0730649)"
       style="font-style:normal;font-variant:normal;font-weight:normal;font-stretch:normal;font-size:12.37872028px;line-height:0%;font-family:'Arial Narrow';-inkscape-font-specification:'Arial Narrow';letter-spacing:0px;word-spacing:0px;fill:#333333;fill-opacity:1;stroke:none;stroke-width:1.03156006"
       id="text3715-8">
      <path
         d="m 0.90775384,129.65167 v -11.7495 H 2.182086 v 10.36296 h 4.7446833 v 1.38654 z"
         style="font-size:16.41403961px;line-height:1.25;fill:#333333;fill-opacity:1;stroke-width:1.03156006"
         id="path3940" />
      <path
         d="m 12.865638,128.60175 q -0.593085,0.61713 -1.234259,0.9297 -0.641173,0.31257 -1.330435,0.31257 -1.0899944,0 -1.7391825,-0.6572 -0.6491881,-0.6572 -0.6491881,-1.77124 0,-0.73735 0.3045574,-1.30639 0.3045574,-0.56904 0.8335255,-0.88963 0.528968,-0.32059 1.6029337,-0.47286 1.44264,-0.20839 2.115872,-0.49691 l 0.008,-0.36868 q 0,-0.8736 -0.312572,-1.22624 -0.440807,-0.51294 -1.354479,-0.51294 -0.825511,0 -1.2342589,0.34463 -0.4087481,0.33662 -0.6011001,1.27433 l -1.1621269,-0.19235 q 0.2484547,-1.37051 1.0018335,-1.99565 0.7613935,-0.62515 2.1719754,-0.62515 1.098009,0 1.723153,0.41677 0.625144,0.40874 0.785438,1.01786 0.168308,0.60911 0.168308,1.77925 v 1.92353 q 0,2.01969 0.07213,2.54866 0.08015,0.52095 0.304557,1.01786 h -1.234259 q -0.184337,-0.4408 -0.24044,-1.04992 z m -0.09618,-3.2219 q -0.649188,0.32059 -1.931535,0.545 -0.745364,0.12824 -1.0419066,0.29654 -0.2965427,0.1603 -0.4648508,0.46486 -0.1602933,0.29654 -0.1602933,0.68926 0,0.60911 0.3766894,0.97779 0.3766894,0.36066 1.0419063,0.36066 0.633159,0 1.146098,-0.32861 0.520953,-0.3286 0.777423,-0.87359 0.256469,-0.55302 0.256469,-1.60294 z"
         style="font-size:16.41403961px;line-height:1.25;fill:#333333;fill-opacity:1;stroke-width:1.03156006"
         id="path3942" />
      <path
         d="m 19.5659,119.56121 v -1.65904 h 1.178156 v 1.65904 z m 0,10.09046 v -8.51157 h 1.178156 v 8.51157 z"
         style="font-size:16.41403961px;line-height:1.25;fill:#333333;fill-opacity:1;stroke-width:1.03156006"
         id="path3944" />
      <path
         d="m 22.547357,129.65167 v -8.51157 h 1.06595 v 1.21021 q 0.384704,-0.70529 0.937717,-1.04992 0.561026,-0.35265 1.282346,-0.35265 0.561027,0 1.033893,0.22441 0.48088,0.2164 0.769408,0.57706 0.296542,0.35265 0.440806,0.92169 0.144264,0.56904 0.144264,1.74719 v 5.23358 h -1.18617 v -5.17747 q 0,-0.93772 -0.160294,-1.37051 -0.160293,-0.43279 -0.504924,-0.66522 -0.336616,-0.24044 -0.785437,-0.24044 -0.849555,0 -1.354479,0.63316 -0.504924,0.63316 -0.504924,2.17198 v 4.6485 z"
         style="font-size:16.41403961px;line-height:1.25;fill:#333333;fill-opacity:1;stroke-width:1.03156006"
         id="path3946" />
      <path
         d="m 30.385703,129.65167 v -7.38952 h -1.049922 v -1.12205 h 1.049922 v -0.90566 q 0,-1.00184 0.208381,-1.49875 0.208381,-0.50492 0.633159,-0.7694 0.432792,-0.26449 1.08198,-0.26449 0.504924,0 1.106024,0.14427 l -0.176323,1.2583 q -0.368674,-0.0802 -0.697276,-0.0802 -0.528968,0 -0.761393,0.28052 -0.224411,0.27249 -0.224411,1.04992 v 0.78544 h 1.362494 v 1.12205 h -1.362494 v 7.38952 z"
         style="font-size:16.41403961px;line-height:1.25;fill:#333333;fill-opacity:1;stroke-width:1.03156006"
         id="path3948" />
      <path
         d="m 33.359144,125.39588 q 0,-2.20403 0.921687,-3.32608 0.929701,-1.12206 2.348297,-1.12206 1.394553,0 2.332269,1.12206 0.937716,1.12205 0.937716,3.23792 0,2.2922 -0.921687,3.41425 -0.921687,1.12205 -2.348298,1.12205 -1.402567,0 -2.340283,-1.12205 -0.929701,-1.13007 -0.929701,-3.32609 z m 1.210215,0 q 0,1.65103 0.6011,2.46051 0.6011,0.80146 1.490728,0.80146 0.833525,0 1.426611,-0.80948 0.6011,-0.81749 0.6011,-2.45249 0,-1.643 -0.6011,-2.44447 -0.6011,-0.80948 -1.490728,-0.80948 -0.84154,0 -1.434626,0.80948 -0.593085,0.80948 -0.593085,2.44447 z"
         style="font-size:16.41403961px;line-height:1.25;fill:#333333;fill-opacity:1;stroke-width:1.03156006"
         id="path3950" />
      <path
         d="m 41.301679,129.65167 v -8.51157 h 1.06595 v 1.29036 q 0.408749,-0.89765 0.745365,-1.18617 0.34463,-0.29655 0.769408,-0.29655 0.593085,0 1.210215,0.46485 l -0.400734,1.33845 q -0.440807,-0.31257 -0.857569,-0.31257 -0.37669,0 -0.689262,0.26449 -0.312572,0.26448 -0.440806,0.73734 -0.224411,0.82552 -0.224411,1.75522 v 4.45615 z"
         style="font-size:16.41403961px;line-height:1.25;fill:#333333;fill-opacity:1;stroke-width:1.03156006"
         id="path3952" />
      <path
         d="m 45.805924,129.65167 v -8.51157 h 1.057937 v 1.19418 q 0.352645,-0.66522 0.905657,-1.02588 0.553012,-0.36066 1.210215,-0.36066 0.737349,0 1.242273,0.38471 0.512939,0.37669 0.729335,1.10602 0.416763,-0.74536 0.953746,-1.11404 0.544997,-0.37669 1.2022,-0.37669 1.001833,0 1.578889,0.68125 0.577056,0.68125 0.577056,2.17999 v 5.84269 h -1.178156 v -5.36181 q 0,-0.91367 -0.136249,-1.29036 -0.128235,-0.38471 -0.424778,-0.59309 -0.296542,-0.20838 -0.665217,-0.20838 -0.761393,0 -1.242273,0.60912 -0.480881,0.6011 -0.480881,1.89947 v 4.94505 h -1.18617 v -5.53012 q 0,-1.05793 -0.328602,-1.49073 -0.320586,-0.43279 -0.889628,-0.43279 -0.809481,0 -1.282347,0.6572 -0.46485,0.64919 -0.46485,2.38036 v 4.41608 z"
         style="font-size:16.41403961px;line-height:1.25;fill:#333333;fill-opacity:1;stroke-width:1.03156006"
         id="path3954" />
      <path
         d="m 61.562762,128.60175 q -0.593086,0.61713 -1.234259,0.9297 -0.641174,0.31257 -1.330435,0.31257 -1.089995,0 -1.739183,-0.6572 -0.649188,-0.6572 -0.649188,-1.77124 0,-0.73735 0.304557,-1.30639 0.304558,-0.56904 0.833526,-0.88963 0.528968,-0.32059 1.602933,-0.47286 1.442641,-0.20839 2.115873,-0.49691 l 0.008,-0.36868 q 0,-0.8736 -0.312572,-1.22624 -0.440806,-0.51294 -1.354479,-0.51294 -0.82551,0 -1.234258,0.34463 -0.408748,0.33662 -0.601101,1.27433 l -1.162126,-0.19235 q 0.248454,-1.37051 1.001833,-1.99565 0.761394,-0.62515 2.171975,-0.62515 1.09801,0 1.723154,0.41677 0.625144,0.40874 0.785437,1.01786 0.168308,0.60911 0.168308,1.77925 v 1.92353 q 0,2.01969 0.07213,2.54866 0.08015,0.52095 0.304558,1.01786 h -1.234259 q -0.184338,-0.4408 -0.24044,-1.04992 z m -0.09618,-3.2219 q -0.649188,0.32059 -1.931535,0.545 -0.745364,0.12824 -1.041907,0.29654 -0.296543,0.1603 -0.464851,0.46486 -0.160293,0.29654 -0.160293,0.68926 0,0.60911 0.376689,0.97779 0.37669,0.36066 1.041907,0.36066 0.633159,0 1.146098,-0.32861 0.520953,-0.3286 0.777422,-0.87359 0.25647,-0.55302 0.25647,-1.60294 z"
         style="font-size:16.41403961px;line-height:1.25;fill:#333333;fill-opacity:1;stroke-width:1.03156006"
         id="path3956" />
      <path
         d="m 69.088534,126.53397 1.162127,0.18433 q -0.200367,1.52279 -1.009849,2.32426 -0.801466,0.80146 -1.931535,0.80146 -1.370508,0 -2.260136,-1.12205 -0.881613,-1.13007 -0.881613,-3.3341 0,-2.22006 0.889628,-3.32609 0.897643,-1.11404 2.300209,-1.11404 1.081981,0 1.81933,0.67324 0.745364,0.67323 0.953746,2.01969 l -1.146098,0.2164 q -0.168308,-0.86559 -0.585071,-1.29036 -0.416762,-0.4328 -1.001833,-0.4328 -0.873599,0 -1.450655,0.77743 -0.569041,0.7694 -0.569041,2.45249 0,1.73918 0.544997,2.5166 0.553012,0.77742 1.410581,0.77742 0.673233,0 1.146098,-0.51294 0.48088,-0.52095 0.609115,-1.61094 z"
         style="font-size:16.41403961px;line-height:1.25;fill:#333333;fill-opacity:1;stroke-width:1.03156006"
         id="path3958" />
      <path
         d="m 71.244477,119.56121 v -1.65904 h 1.178156 v 1.65904 z m 0,10.09046 v -8.51157 h 1.178156 v 8.51157 z"
         style="font-size:16.41403961px;line-height:1.25;fill:#333333;fill-opacity:1;stroke-width:1.03156006"
         id="path3960" />
      <path
         d="m 73.785131,125.39588 q 0,-2.20403 0.921687,-3.32608 0.929701,-1.12206 2.348298,-1.12206 1.394552,0 2.332268,1.12206 0.937716,1.12205 0.937716,3.23792 0,2.2922 -0.921687,3.41425 -0.921687,1.12205 -2.348297,1.12205 -1.402567,0 -2.340283,-1.12205 -0.929702,-1.13007 -0.929702,-3.32609 z m 1.210215,0 q 0,1.65103 0.6011,2.46051 0.6011,0.80146 1.490728,0.80146 0.833526,0 1.426611,-0.80948 0.6011,-0.81749 0.6011,-2.45249 0,-1.643 -0.6011,-2.44447 -0.6011,-0.80948 -1.490728,-0.80948 -0.84154,0 -1.434626,0.80948 -0.593085,0.80948 -0.593085,2.44447 z m 1.194185,-5.31372 0.873599,-2.24411 h 1.546831 l -1.44264,2.24411 z"
         style="font-size:16.41403961px;line-height:1.25;fill:#333333;fill-opacity:1;stroke-width:1.03156006"
         id="path3962" />
      <path
         d="m 90.030863,128.60175 q -0.593085,0.61713 -1.234259,0.9297 -0.641173,0.31257 -1.330435,0.31257 -1.089994,0 -1.739182,-0.6572 -0.649189,-0.6572 -0.649189,-1.77124 0,-0.73735 0.304558,-1.30639 0.304557,-0.56904 0.833525,-0.88963 0.528968,-0.32059 1.602934,-0.47286 1.44264,-0.20839 2.115872,-0.49691 l 0.008,-0.36868 q 0,-0.8736 -0.312572,-1.22624 -0.440807,-0.51294 -1.354479,-0.51294 -0.825511,0 -1.234259,0.34463 -0.408748,0.33662 -0.6011,1.27433 l -1.162127,-0.19235 q 0.248455,-1.37051 1.001834,-1.99565 0.761393,-0.62515 2.171975,-0.62515 1.098009,0 1.723153,0.41677 0.625144,0.40874 0.785438,1.01786 0.168308,0.60911 0.168308,1.77925 v 1.92353 q 0,2.01969 0.07213,2.54866 0.08015,0.52095 0.304557,1.01786 h -1.234259 q -0.184337,-0.4408 -0.24044,-1.04992 z m -0.09618,-3.2219 q -0.649188,0.32059 -1.931535,0.545 -0.745364,0.12824 -1.041907,0.29654 -0.296542,0.1603 -0.46485,0.46486 -0.160294,0.29654 -0.160294,0.68926 0,0.60911 0.37669,0.97779 0.376689,0.36066 1.041907,0.36066 0.633158,0 1.146097,-0.32861 0.520953,-0.3286 0.777423,-0.87359 0.256469,-0.55302 0.256469,-1.60294 z"
         style="font-size:16.41403961px;line-height:1.25;fill:#333333;fill-opacity:1;stroke-width:1.03156006"
         id="path3964" />
      <path
         d="m 92.948197,129.65167 v -11.7495 h 1.178157 v 11.7495 z"
         style="font-size:16.41403961px;line-height:1.25;fill:#333333;fill-opacity:1;stroke-width:1.03156006"
         id="path3966" />
      <path
         d="m 95.961717,119.56121 v -1.65904 h 1.178156 v 1.65904 z m 0,10.09046 v -8.51157 h 1.178156 v 8.51157 z"
         style="font-size:16.41403961px;line-height:1.25;fill:#333333;fill-opacity:1;stroke-width:1.03156006"
         id="path3968" />
      <path
         d="m 98.959199,129.65167 v -8.51157 h 1.057941 v 1.19418 q 0.35264,-0.66522 0.90565,-1.02588 0.55301,-0.36066 1.21022,-0.36066 0.73735,0 1.24227,0.38471 0.51294,0.37669 0.72934,1.10602 0.41676,-0.74536 0.95374,-1.11404 0.545,-0.37669 1.2022,-0.37669 1.00183,0 1.57889,0.68125 0.57706,0.68125 0.57706,2.17999 v 5.84269 h -1.17816 v -5.36181 q 0,-0.91367 -0.13625,-1.29036 -0.12823,-0.38471 -0.42478,-0.59309 -0.29654,-0.20838 -0.66521,-0.20838 -0.7614,0 -1.24228,0.60912 -0.48088,0.6011 -0.48088,1.89947 v 4.94505 h -1.18617 v -5.53012 q 0,-1.05793 -0.3286,-1.49073 -0.32059,-0.43279 -0.88963,-0.43279 -0.80948,0 -1.28234,0.6572 -0.46485,0.64919 -0.46485,2.38036 v 4.41608 z"
         style="font-size:16.41403961px;line-height:1.25;fill:#333333;fill-opacity:1;stroke-width:1.03156006"
         id="path3970" />
      <path
         d="m 114.94045,126.91066 1.21823,0.18433 q -0.30456,1.3625 -1.10603,2.05977 -0.79345,0.68926 -1.97161,0.68926 -1.48271,0 -2.4044,-1.12205 -0.91367,-1.13007 -0.91367,-3.25395 0,-2.20404 0.92169,-3.35815 0.9297,-1.16213 2.3483,-1.16213 1.35447,0 2.26013,1.13809 0.90566,1.13808 0.90566,3.29402 l -0.008,0.38471 h -5.20954 q 0.0721,1.43462 0.66522,2.16396 0.59308,0.72933 1.44264,0.72933 1.33043,0 1.85139,-1.74719 z m -3.88712,-2.33227 h 3.89513 q -0.0802,-1.10603 -0.47286,-1.65102 -0.56905,-0.79346 -1.45066,-0.79346 -0.79345,0 -1.35448,0.66522 -0.56102,0.6572 -0.61713,1.77926 z"
         style="font-size:16.41403961px;line-height:1.25;fill:#333333;fill-opacity:1;stroke-width:1.03156006"
         id="path3972" />
      <path
         d="m 117.66544,129.65167 v -8.51157 h 1.06595 v 1.21021 q 0.3847,-0.70529 0.93771,-1.04992 0.56103,-0.35265 1.28235,-0.35265 0.56103,0 1.03389,0.22441 0.48088,0.2164 0.76941,0.57706 0.29654,0.35265 0.44081,0.92169 0.14426,0.56904 0.14426,1.74719 v 5.23358 h -1.18617 v -5.17747 q 0,-0.93772 -0.16029,-1.37051 -0.1603,-0.43279 -0.50493,-0.66522 -0.33661,-0.24044 -0.78543,-0.24044 -0.84956,0 -1.35448,0.63316 -0.50493,0.63316 -0.50493,2.17198 v 4.6485 z"
         style="font-size:16.41403961px;line-height:1.25;fill:#333333;fill-opacity:1;stroke-width:1.03156006"
         id="path3974" />
      <path
         d="m 127.80399,128.36131 0.16029,1.27433 q -0.48889,0.12824 -0.88161,0.12824 -0.61713,0 -0.99382,-0.24044 -0.37669,-0.24846 -0.52096,-0.67323 -0.13624,-0.42478 -0.13624,-1.6911 v -4.89696 h -0.86559 v -1.12205 h 0.86559 v -2.10786 l 1.17815,-0.86559 v 2.97345 h 1.19419 v 1.12205 h -1.19419 v 4.97711 q 0,0.68926 0.10419,0.88963 0.15228,0.28852 0.56904,0.28852 0.20037,0 0.52096,-0.0561 z"
         style="font-size:16.41403961px;line-height:1.25;fill:#333333;fill-opacity:1;stroke-width:1.03156006"
         id="path3976" />
      <path
         d="m 133.47035,128.60175 q -0.59308,0.61713 -1.23425,0.9297 -0.64118,0.31257 -1.33044,0.31257 -1.08999,0 -1.73918,-0.6572 -0.64919,-0.6572 -0.64919,-1.77124 0,-0.73735 0.30456,-1.30639 0.30455,-0.56904 0.83352,-0.88963 0.52897,-0.32059 1.60294,-0.47286 1.44264,-0.20839 2.11587,-0.49691 l 0.008,-0.36868 q 0,-0.8736 -0.31257,-1.22624 -0.44081,-0.51294 -1.35448,-0.51294 -0.82551,0 -1.23426,0.34463 -0.40874,0.33662 -0.6011,1.27433 l -1.16212,-0.19235 q 0.24845,-1.37051 1.00183,-1.99565 0.76139,-0.62515 2.17197,-0.62515 1.09801,0 1.72316,0.41677 0.62514,0.40874 0.78544,1.01786 0.1683,0.60911 0.1683,1.77925 v 1.92353 q 0,2.01969 0.0721,2.54866 0.0801,0.52095 0.30455,1.01786 h -1.23426 q -0.18433,-0.4408 -0.24044,-1.04992 z m -0.0962,-3.2219 q -0.64919,0.32059 -1.93154,0.545 -0.74536,0.12824 -1.0419,0.29654 -0.29655,0.1603 -0.46485,0.46486 -0.1603,0.29654 -0.1603,0.68926 0,0.60911 0.37669,0.97779 0.37669,0.36066 1.04191,0.36066 0.63316,0 1.1461,-0.32861 0.52095,-0.3286 0.77742,-0.87359 0.25647,-0.55302 0.25647,-1.60294 z m -0.77742,-5.29769 h -0.95375 l -1.51477,-2.24411 h 1.5869 z"
         style="font-size:16.41403961px;line-height:1.25;fill:#333333;fill-opacity:1;stroke-width:1.03156006"
         id="path3978" />
      <path
         d="m 136.41976,129.65167 v -8.51157 h 1.06595 v 1.29036 q 0.40875,-0.89765 0.74537,-1.18617 0.34463,-0.29655 0.76941,-0.29655 0.59308,0 1.21021,0.46485 l -0.40073,1.33845 q -0.44081,-0.31257 -0.85757,-0.31257 -0.37669,0 -0.68926,0.26449 -0.31258,0.26448 -0.44081,0.73734 -0.22441,0.82552 -0.22441,1.75522 v 4.45615 z"
         style="font-size:16.41403961px;line-height:1.25;fill:#333333;fill-opacity:1;stroke-width:1.03156006"
         id="path3980" />
      <path
         d="m 140.90797,119.56121 v -1.65904 h 1.17815 v 1.65904 z m 0,10.09046 v -8.51157 h 1.17815 v 8.51157 z"
         style="font-size:16.41403961px;line-height:1.25;fill:#333333;fill-opacity:1;stroke-width:1.03156006"
         id="path3982" />
      <path
         d="m 148.44176,128.60175 q -0.59309,0.61713 -1.23426,0.9297 -0.64117,0.31257 -1.33043,0.31257 -1.09,0 -1.73919,-0.6572 -0.64919,-0.6572 -0.64919,-1.77124 0,-0.73735 0.30456,-1.30639 0.30456,-0.56904 0.83353,-0.88963 0.52897,-0.32059 1.60293,-0.47286 1.44264,-0.20839 2.11587,-0.49691 l 0.008,-0.36868 q 0,-0.8736 -0.31257,-1.22624 -0.44081,-0.51294 -1.35448,-0.51294 -0.82551,0 -1.23426,0.34463 -0.40875,0.33662 -0.6011,1.27433 l -1.16213,-0.19235 q 0.24846,-1.37051 1.00183,-1.99565 0.7614,-0.62515 2.17198,-0.62515 1.09801,0 1.72315,0.41677 0.62515,0.40874 0.78544,1.01786 0.16831,0.60911 0.16831,1.77925 v 1.92353 q 0,2.01969 0.0721,2.54866 0.0802,0.52095 0.30456,1.01786 h -1.23426 q -0.18434,-0.4408 -0.24044,-1.04992 z m -0.0962,-3.2219 q -0.64918,0.32059 -1.93153,0.545 -0.74537,0.12824 -1.04191,0.29654 -0.29654,0.1603 -0.46485,0.46486 -0.16029,0.29654 -0.16029,0.68926 0,0.60911 0.37669,0.97779 0.37669,0.36066 1.0419,0.36066 0.63316,0 1.1461,-0.32861 0.52095,-0.3286 0.77742,-0.87359 0.25647,-0.55302 0.25647,-1.60294 z"
         style="font-size:16.41403961px;line-height:1.25;fill:#333333;fill-opacity:1;stroke-width:1.03156006"
         id="path3984" />
      <path
         d="m 154.70122,125.39588 q 0,-2.20403 0.92168,-3.32608 0.9297,-1.12206 2.3483,-1.12206 1.39455,0 2.33227,1.12206 0.93771,1.12205 0.93771,3.23792 0,2.2922 -0.92168,3.41425 -0.92169,1.12205 -2.3483,1.12205 -1.40257,0 -2.34028,-1.12205 -0.9297,-1.13007 -0.9297,-3.32609 z m 1.21021,0 q 0,1.65103 0.6011,2.46051 0.6011,0.80146 1.49073,0.80146 0.83352,0 1.42661,-0.80948 0.6011,-0.81749 0.6011,-2.45249 0,-1.643 -0.6011,-2.44447 -0.6011,-0.80948 -1.49073,-0.80948 -0.84154,0 -1.43462,0.80948 -0.59309,0.80948 -0.59309,2.44447 z"
         style="font-size:16.41403961px;line-height:1.25;fill:#333333;fill-opacity:1;stroke-width:1.03156006"
         id="path3986" />
      <path
         d="m 163.73374,129.65167 h -1.09801 v -11.7495 h 1.17816 v 4.19167 q 0.37669,-0.57706 0.84955,-0.85757 0.48088,-0.28853 1.06595,-0.28853 0.8175,0 1.48272,0.4889 0.67323,0.48889 1.07396,1.48271 0.40074,0.99382 0.40074,2.41242 0,2.16396 -0.90566,3.34211 -0.90566,1.17014 -2.11587,1.17014 -0.60912,0 -1.09801,-0.31257 -0.48088,-0.32058 -0.83353,-0.94573 z m -0.016,-4.3199 q 0,1.32242 0.24044,1.97962 0.24044,0.6572 0.68125,1.00183 0.44081,0.34463 0.97779,0.34463 0.72933,0 1.29036,-0.81749 0.56904,-0.82551 0.56904,-2.46051 0,-1.67506 -0.545,-2.4605 -0.54499,-0.78544 -1.33845,-0.78544 -0.72933,0 -1.30639,0.82551 -0.56904,0.8175 -0.56904,2.37235 z"
         style="font-size:16.41403961px;line-height:1.25;fill:#333333;fill-opacity:1;stroke-width:1.03156006"
         id="path3988" />
      <path
         d="m 174.92223,126.91066 1.21823,0.18433 q -0.30456,1.3625 -1.10603,2.05977 -0.79345,0.68926 -1.97161,0.68926 -1.48271,0 -2.4044,-1.12205 -0.91367,-1.13007 -0.91367,-3.25395 0,-2.20404 0.92169,-3.35815 0.9297,-1.16213 2.3483,-1.16213 1.35448,0 2.26013,1.13809 0.90566,1.13808 0.90566,3.29402 l -0.008,0.38471 h -5.20954 q 0.0721,1.43462 0.66522,2.16396 0.59308,0.72933 1.44264,0.72933 1.33043,0 1.85139,-1.74719 z m -3.88712,-2.33227 h 3.89513 q -0.0801,-1.10603 -0.47286,-1.65102 -0.56904,-0.79346 -1.45066,-0.79346 -0.79345,0 -1.35448,0.66522 -0.56102,0.6572 -0.61713,1.77926 z"
         style="font-size:16.41403961px;line-height:1.25;fill:#333333;fill-opacity:1;stroke-width:1.03156006"
         id="path3990" />
      <path
         d="m 177.64721,129.65167 v -8.51157 h 1.06595 v 1.29036 q 0.40875,-0.89765 0.74537,-1.18617 0.34463,-0.29655 0.7694,-0.29655 0.59309,0 1.21022,0.46485 l -0.40074,1.33845 q -0.4408,-0.31257 -0.85756,-0.31257 -0.37669,0 -0.68927,0.26449 -0.31257,0.26448 -0.4408,0.73734 -0.22441,0.82552 -0.22441,1.75522 v 4.45615 z"
         style="font-size:16.41403961px;line-height:1.25;fill:#333333;fill-opacity:1;stroke-width:1.03156006"
         id="path3992" />
      <path
         d="m 184.77224,128.36131 0.16029,1.27433 q -0.48889,0.12824 -0.88161,0.12824 -0.61713,0 -0.99382,-0.24044 -0.37669,-0.24846 -0.52095,-0.67323 -0.13625,-0.42478 -0.13625,-1.6911 v -4.89696 h -0.86558 v -1.12205 h 0.86558 v -2.10786 l 1.17816,-0.86559 v 2.97345 h 1.19418 v 1.12205 h -1.19418 v 4.97711 q 0,0.68926 0.10419,0.88963 0.15227,0.28852 0.56904,0.28852 0.20036,0 0.52095,-0.0561 z"
         style="font-size:16.41403961px;line-height:1.25;fill:#333333;fill-opacity:1;stroke-width:1.03156006"
         id="path3994" />
      <path
         d="m 190.43862,128.60175 q -0.59309,0.61713 -1.23426,0.9297 -0.64118,0.31257 -1.33044,0.31257 -1.08999,0 -1.73918,-0.6572 -0.64919,-0.6572 -0.64919,-1.77124 0,-0.73735 0.30456,-1.30639 0.30456,-0.56904 0.83352,-0.88963 0.52897,-0.32059 1.60294,-0.47286 1.44264,-0.20839 2.11587,-0.49691 l 0.008,-0.36868 q 0,-0.8736 -0.31257,-1.22624 -0.4408,-0.51294 -1.35448,-0.51294 -0.82551,0 -1.23425,0.34463 -0.40875,0.33662 -0.60111,1.27433 l -1.16212,-0.19235 q 0.24845,-1.37051 1.00183,-1.99565 0.7614,-0.62515 2.17198,-0.62515 1.09801,0 1.72315,0.41677 0.62514,0.40874 0.78544,1.01786 0.16831,0.60911 0.16831,1.77925 v 1.92353 q 0,2.01969 0.0721,2.54866 0.0801,0.52095 0.30456,1.01786 h -1.23426 q -0.18434,-0.4408 -0.24044,-1.04992 z m -0.0962,-3.2219 q -0.64919,0.32059 -1.93153,0.545 -0.74537,0.12824 -1.04191,0.29654 -0.29654,0.1603 -0.46485,0.46486 -0.1603,0.29654 -0.1603,0.68926 0,0.60911 0.37669,0.97779 0.37669,0.36066 1.04191,0.36066 0.63316,0 1.1461,-0.32861 0.52095,-0.3286 0.77742,-0.87359 0.25647,-0.55302 0.25647,-1.60294 z"
         style="font-size:16.41403961px;line-height:1.25;fill:#333333;fill-opacity:1;stroke-width:1.03156006"
         id="path3996" />
    </g>
    <rect
       id="rect3719"
       width="5"
       height="5"
       x="110"
       y="0"
       style="fill:none"
       inkscape:export-filename="C:\Users\Stéphane\Desktop\Blogs\OpenFoodFacts\test-178.png"
       inkscape:export-xdpi="90"
       inkscape:export-ydpi="90" />
    <rect
       inkscape:export-ydpi="90"
       inkscape:export-xdpi="90"
       inkscape:export-filename="C:\Users\Stéphane\Desktop\Blogs\OpenFoodFacts\test-178.png"
       style="fill:none"
       y="0"
       x="110"
       height="5"
       width="5"
       id="rect3723" />
    <rect
       style="fill:none"
       id="rect3725"
       width="1"
       height="1"
       x="1"
       y="140"
       inkscape:export-filename="C:\Users\Stéphane\Desktop\Blogs\OpenFoodFacts\test-178.png"
       inkscape:export-xdpi="90"
       inkscape:export-ydpi="90" />
  </g>
</svg>
