<?xml version="1.0" encoding="UTF-8" standalone="no"?>
<!-- Created with Inkscape (http://www.inkscape.org/) -->

<svg
   xmlns:dc="http://purl.org/dc/elements/1.1/"
   xmlns:cc="http://creativecommons.org/ns#"
   xmlns:rdf="http://www.w3.org/1999/02/22-rdf-syntax-ns#"
   xmlns:svg="http://www.w3.org/2000/svg"
   xmlns="http://www.w3.org/2000/svg"
   xmlns:sodipodi="http://sodipodi.sourceforge.net/DTD/sodipodi-0.dtd"
   xmlns:inkscape="http://www.inkscape.org/namespaces/inkscape"
   width="178"
   height="150"
   id="svg8313"
   version="1.1"
   inkscape:version="0.91 r13725"
   sodipodi:docname="openfoodfacts-logo-ro.svg"
   inkscape:export-filename="/Users/pierreslam/Desktop/openfoodfacts-logo-ro-large.png"
   inkscape:export-xdpi="2224.8"
   inkscape:export-ydpi="2224.8">
  <defs
     id="defs8315" />
  <sodipodi:namedview
     id="base"
     pagecolor="#ffffff"
     bordercolor="#666666"
     borderopacity="1.0"
     inkscape:pageopacity="0.0"
     inkscape:pageshadow="2"
     inkscape:zoom="1.33"
     inkscape:cx="294.9005"
     inkscape:cy="60.895435"
     inkscape:document-units="px"
     inkscape:current-layer="layer1"
     showgrid="true"
     inkscape:window-width="1404"
     inkscape:window-height="855"
     inkscape:window-x="36"
     inkscape:window-y="1"
     inkscape:window-maximized="1"
     inkscape:snap-global="true"
     showguides="false">
    <inkscape:grid
       type="xygrid"
       id="grid8566" />
  </sodipodi:namedview>
  <metadata
     id="metadata8318">
    <rdf:RDF>
      <cc:Work
         rdf:about="">
        <dc:format>image/svg+xml</dc:format>
        <dc:type
           rdf:resource="http://purl.org/dc/dcmitype/StillImage" />
        <dc:title></dc:title>
      </cc:Work>
    </rdf:RDF>
  </metadata>
  <g
     inkscape:label="Calque 1"
     inkscape:groupmode="layer"
     id="layer1">
    <path
       inkscape:export-ydpi="360"
       inkscape:export-xdpi="360"
       inkscape:export-filename="C:\Users\Stéphane\Desktop\Blogs\OpenFoodFacts\off-logo-en.712x575.png"
       inkscape:connector-curvature="0"
       style="fill:#0066ff;fill-opacity:1;fill-rule:nonzero;stroke:none"
       d="m 170,26 0,6.41101 c 1.19571,0.444338 2.20515,1.060483 2.99122,1.761208 L 173.01672,26 Z m 4,0 0,8.312003 1,-0.838676 L 175,26 Z m 2,0 0,6.606702 1,-0.978462 0,11.7694 -1,-1.00641 L 176.0383,95 178,95 178,26 Z M 174,40.685929 174,95 l 1,0 0,-53.475406 z m -1,0.139774 c -0.78598,0.701951 -1.79569,1.313237 -3,1.76122 L 170.008,95 l 3,0 z"
       id="path7944"
       sodipodi:nodetypes="ccccccccccccccccccccccccccccc" />
    <path
       inkscape:export-ydpi="360"
       inkscape:export-xdpi="360"
       inkscape:export-filename="C:\Users\Stéphane\Desktop\Blogs\OpenFoodFacts\off-logo-en.712x575.png"
       inkscape:connector-curvature="0"
       style="fill:#00ccff;fill-opacity:1;fill-rule:nonzero;stroke:none"
       d="m 154,26 0,69 3,0 0,-53.810872 c -1.32362,-1.014805 -2.12462,-2.271422 -2.12462,-3.662215 0,-1.390781 0.801,-2.675356 2.12462,-3.690161 L 157,26 Z m 4,0 0,7.193768 c 1.12603,-0.642997 2.49599,-1.128715 4.02565,-1.397795 L 162,26 Z m 5,0 -0.08,5.62824 c 0.32965,-0.03644 0.66619,-0.03965 1.00641,-0.05585 L 164,26.000057 c -0.35153,4.6e-5 -0.64847,-3.3e-5 -1,-5.7e-5 z m 2,0 0,5.544374 c 0.68266,0.0083 1.34304,0.08097 1.9849,0.167733 L 167,26 Z M 158,41.860072 158,95 l 4,0 0,-51.770093 c -1.58676,-0.26883 -2.87451,-0.727732 -4,-1.369835 z m 9,1.481649 c -0.64077,0.08753 -1.30349,0.131652 -1.9849,0.139785 L 165,95 l 2,0 z m -4,0.05597 L 163,95 l 1,0 0.006,-51.546402 c -0.34022,-0.01632 -0.67676,-0.01941 -1.00641,-0.05585 z"
       id="path7946"
       sodipodi:nodetypes="ccccscccccccccccccccccccccccccccccccccc" />
    <path
       inkscape:export-ydpi="360"
       inkscape:export-xdpi="360"
       inkscape:export-filename="C:\Users\Stéphane\Desktop\Blogs\OpenFoodFacts\off-logo-en.712x575.png"
       inkscape:connector-curvature="0"
       id="path7948"
       d="M 150,26.012039 150,95 l 1,0 0,-68.987961 z"
       style="fill:#00d400;fill-opacity:1;fill-rule:nonzero;stroke:none"
       sodipodi:nodetypes="ccccc" />
    <path
       inkscape:export-ydpi="360"
       inkscape:export-xdpi="360"
       inkscape:export-filename="C:\Users\Stéphane\Desktop\Blogs\OpenFoodFacts\off-logo-en.712x575.png"
       inkscape:connector-curvature="0"
       id="path7950"
       d="M 146,26.012039 146,95 l 3,0 0,-68.987961 z"
       style="fill:#00d400;fill-opacity:1;fill-rule:nonzero;stroke:none"
       sodipodi:nodetypes="ccccc" />
    <path
       inkscape:export-ydpi="360"
       inkscape:export-xdpi="360"
       inkscape:export-filename="C:\Users\Stéphane\Desktop\Blogs\OpenFoodFacts\off-logo-en.712x575.png"
       inkscape:connector-curvature="0"
       id="path7952"
       d="M 143,26.012039 143,95 l 2,0 0,-68.987961 z"
       style="fill:#00d400;fill-opacity:1;fill-rule:nonzero;stroke:none"
       sodipodi:nodetypes="ccccc" />
    <path
       inkscape:export-ydpi="360"
       inkscape:export-xdpi="360"
       inkscape:export-filename="C:\Users\Stéphane\Desktop\Blogs\OpenFoodFacts\off-logo-en.712x575.png"
       inkscape:connector-curvature="0"
       id="path7954"
       d="M 141,26.012039 141,95 l 1,0 0,-68.987961 z"
       style="fill:#00d400;fill-opacity:1;fill-rule:nonzero;stroke:none"
       sodipodi:nodetypes="ccccc" />
    <path
       inkscape:export-ydpi="360"
       inkscape:export-xdpi="360"
       inkscape:export-filename="C:\Users\Stéphane\Desktop\Blogs\OpenFoodFacts\off-logo-en.712x575.png"
       inkscape:connector-curvature="0"
       id="path7956"
       d="m 135,24 0,71 3,0 -5e-5,-69 z"
       style="fill:#00d400;fill-opacity:1;fill-rule:nonzero;stroke:none"
       sodipodi:nodetypes="ccccc" />
    <path
       inkscape:export-ydpi="360"
       inkscape:export-xdpi="360"
       inkscape:export-filename="C:\Users\Stéphane\Desktop\Blogs\OpenFoodFacts\off-logo-en.712x575.png"
       inkscape:connector-curvature="0"
       id="path7958"
       d="m 132,26 0,69 2,0 -4e-5,-69 z"
       style="fill:#00d400;fill-opacity:1;fill-rule:nonzero;stroke:none"
       sodipodi:nodetypes="ccccc" />
    <path
       inkscape:export-ydpi="360"
       inkscape:export-xdpi="360"
       inkscape:export-filename="C:\Users\Stéphane\Desktop\Blogs\OpenFoodFacts\off-logo-en.712x575.png"
       inkscape:connector-curvature="0"
       id="path7960"
       d="m 129,26 0,69 2,0 1e-5,-69 z"
       style="fill:#00d400;fill-opacity:1;fill-rule:nonzero;stroke:none"
       sodipodi:nodetypes="ccccc" />
    <path
       inkscape:export-ydpi="360"
       inkscape:export-xdpi="360"
       inkscape:export-filename="C:\Users\Stéphane\Desktop\Blogs\OpenFoodFacts\off-logo-en.712x575.png"
       inkscape:connector-curvature="0"
       id="path7962"
       d="m 125,26 0,69 1,0 5e-5,-69 z"
       style="fill:#00d400;fill-opacity:1;fill-rule:nonzero;stroke:none"
       sodipodi:nodetypes="ccccc" />
    <path
       inkscape:export-ydpi="360"
       inkscape:export-xdpi="360"
       inkscape:export-filename="C:\Users\Stéphane\Desktop\Blogs\OpenFoodFacts\off-logo-en.712x575.png"
       inkscape:connector-curvature="0"
       id="path7964"
       d="m 121,26 0,69 1,0 6e-5,-69 z"
       style="fill:#00d400;fill-opacity:1;fill-rule:nonzero;stroke:none"
       sodipodi:nodetypes="ccccc" />
    <path
       inkscape:export-ydpi="360"
       inkscape:export-xdpi="360"
       inkscape:export-filename="C:\Users\Stéphane\Desktop\Blogs\OpenFoodFacts\off-logo-en.712x575.png"
       inkscape:connector-curvature="0"
       id="path7966"
       d="m 116,26 0,69 2,0 1e-5,-69 z"
       style="fill:#00d400;fill-opacity:1;fill-rule:nonzero;stroke:none"
       sodipodi:nodetypes="ccccc" />
    <path
       inkscape:export-ydpi="360"
       inkscape:export-xdpi="360"
       inkscape:export-filename="C:\Users\Stéphane\Desktop\Blogs\OpenFoodFacts\off-logo-en.712x575.png"
       inkscape:connector-curvature="0"
       id="path7968"
       d="m 112,26 0,69 1,0 -5e-5,-69 z"
       style="fill:#00d400;fill-opacity:1;fill-rule:nonzero;stroke:none"
       sodipodi:nodetypes="ccccc" />
    <path
       inkscape:export-ydpi="360"
       inkscape:export-xdpi="360"
       inkscape:export-filename="C:\Users\Stéphane\Desktop\Blogs\OpenFoodFacts\off-logo-en.712x575.png"
       inkscape:connector-curvature="0"
       id="path7970"
       d="m 110,26 0,69 1,0 -5e-5,-69 z"
       style="fill:#00d400;fill-opacity:1;fill-rule:nonzero;stroke:none"
       sodipodi:nodetypes="ccccc" />
    <path
       inkscape:export-ydpi="360"
       inkscape:export-xdpi="360"
       inkscape:export-filename="C:\Users\Stéphane\Desktop\Blogs\OpenFoodFacts\off-logo-en.712x575.png"
       inkscape:connector-curvature="0"
       id="path7972"
       d="m 108,26 0,69 1,0 4e-5,-69 z"
       style="fill:#00d400;fill-opacity:1;fill-rule:nonzero;stroke:none"
       sodipodi:nodetypes="ccccc" />
    <path
       inkscape:export-ydpi="360"
       inkscape:export-xdpi="360"
       inkscape:export-filename="C:\Users\Stéphane\Desktop\Blogs\OpenFoodFacts\off-logo-en.712x575.png"
       inkscape:connector-curvature="0"
       id="path7974"
       d="m 103,26 0,69 2,0 1e-5,-69 z"
       style="fill:#00d400;fill-opacity:1;fill-rule:nonzero;stroke:none"
       sodipodi:nodetypes="ccccc" />
    <path
       inkscape:export-ydpi="360"
       inkscape:export-xdpi="360"
       inkscape:export-filename="C:\Users\Stéphane\Desktop\Blogs\OpenFoodFacts\off-logo-en.712x575.png"
       inkscape:connector-curvature="0"
       id="path7976"
       d="m 99,26 0,69 1,0 -10e-7,-69 z"
       style="fill:#00d400;fill-opacity:1;fill-rule:nonzero;stroke:none"
       sodipodi:nodetypes="ccccc" />
    <path
       inkscape:export-ydpi="360"
       inkscape:export-xdpi="360"
       inkscape:export-filename="C:\Users\Stéphane\Desktop\Blogs\OpenFoodFacts\off-logo-en.712x575.png"
       inkscape:connector-curvature="0"
       id="path7978"
       d="M 94.983089,26.012039 95,95 96,95 95.98263,26.012039 Z"
       style="fill:#00d400;fill-opacity:1;fill-rule:nonzero;stroke:none"
       sodipodi:nodetypes="ccccc" />
    <path
       inkscape:export-ydpi="360"
       inkscape:export-xdpi="360"
       inkscape:export-filename="C:\Users\Stéphane\Desktop\Blogs\OpenFoodFacts\off-logo-en.712x575.png"
       inkscape:connector-curvature="0"
       id="path7980"
       d="m 90,21 0,74 2,0 3e-6,-74 z"
       style="fill:#ffcc00;fill-opacity:1;fill-rule:nonzero;stroke:none"
       sodipodi:nodetypes="ccccc" />
    <path
       inkscape:export-ydpi="360"
       inkscape:export-xdpi="360"
       inkscape:export-filename="C:\Users\Stéphane\Desktop\Blogs\OpenFoodFacts\off-logo-en.712x575.png"
       inkscape:connector-curvature="0"
       id="path7983"
       d="m 88,26 0,69 1,0 10e-7,-69 z"
       style="fill:#ffcc00;fill-opacity:1;fill-rule:nonzero;stroke:none"
       sodipodi:nodetypes="ccccc" />
    <path
       inkscape:export-ydpi="360"
       inkscape:export-xdpi="360"
       inkscape:export-filename="C:\Users\Stéphane\Desktop\Blogs\OpenFoodFacts\off-logo-en.712x575.png"
       inkscape:connector-curvature="0"
       id="path7985"
       d="m 85,10 0,85 2,0 0,-85 z"
       style="fill:#ffcc00;fill-opacity:1;fill-rule:nonzero;stroke:none"
       sodipodi:nodetypes="ccccc" />
    <path
       inkscape:export-ydpi="360"
       inkscape:export-xdpi="360"
       inkscape:export-filename="C:\Users\Stéphane\Desktop\Blogs\OpenFoodFacts\off-logo-en.712x575.png"
       inkscape:connector-curvature="0"
       id="path7987"
       d="m 81,26 0,69 3,0 4e-6,-69 z"
       style="fill:#ffcc00;fill-opacity:1;fill-rule:nonzero;stroke:none"
       sodipodi:nodetypes="ccccc" />
    <path
       inkscape:export-ydpi="360"
       inkscape:export-xdpi="360"
       inkscape:export-filename="C:\Users\Stéphane\Desktop\Blogs\OpenFoodFacts\off-logo-en.712x575.png"
       inkscape:connector-curvature="0"
       id="path7989"
       d="m 77,26 0,69 1,0 3e-6,-69 z"
       style="fill:#ffcc00;fill-opacity:1;fill-rule:nonzero;stroke:none"
       sodipodi:nodetypes="ccccc" />
    <path
       inkscape:export-ydpi="360"
       inkscape:export-xdpi="360"
       inkscape:export-filename="C:\Users\Stéphane\Desktop\Blogs\OpenFoodFacts\off-logo-en.712x575.png"
       inkscape:connector-curvature="0"
       id="path7991"
       d="m 74,20 0,75 2,0 -7e-6,-75 z"
       style="fill:#ffcc00;fill-opacity:1;fill-rule:nonzero;stroke:none"
       sodipodi:nodetypes="ccccc" />
    <path
       inkscape:export-ydpi="360"
       inkscape:export-xdpi="360"
       inkscape:export-filename="C:\Users\Stéphane\Desktop\Blogs\OpenFoodFacts\off-logo-en.712x575.png"
       inkscape:connector-curvature="0"
       id="path7993"
       d="m 70,26 0,69 3,0 4e-6,-69 z"
       style="fill:#ffcc00;fill-opacity:1;fill-rule:nonzero;stroke:none"
       sodipodi:nodetypes="ccccc" />
    <path
       inkscape:export-ydpi="360"
       inkscape:export-xdpi="360"
       inkscape:export-filename="C:\Users\Stéphane\Desktop\Blogs\OpenFoodFacts\off-logo-en.712x575.png"
       inkscape:connector-curvature="0"
       id="path7995"
       d="m 66,26 0,69 1,0 3e-6,-69 z"
       style="fill:#ffcc00;fill-opacity:1;fill-rule:nonzero;stroke:none"
       sodipodi:nodetypes="ccccc" />
    <path
       inkscape:export-ydpi="360"
       inkscape:export-xdpi="360"
       inkscape:export-filename="C:\Users\Stéphane\Desktop\Blogs\OpenFoodFacts\off-logo-en.712x575.png"
       inkscape:connector-curvature="0"
       id="path7997"
       d="m 64,26 0,69 1,0 10e-7,-69 z"
       style="fill:#ffcc00;fill-opacity:1;fill-rule:nonzero;stroke:none"
       sodipodi:nodetypes="ccccc" />
    <path
       inkscape:export-ydpi="360"
       inkscape:export-xdpi="360"
       inkscape:export-filename="C:\Users\Stéphane\Desktop\Blogs\OpenFoodFacts\off-logo-en.712x575.png"
       inkscape:connector-curvature="0"
       id="path7999"
       d="M 58.973701,25.916822 59,95 61,95 60.9728,25.916822 Z"
       style="fill:#ffcc00;fill-opacity:1;fill-rule:nonzero;stroke:none"
       sodipodi:nodetypes="ccccc" />
    <path
       inkscape:export-ydpi="360"
       inkscape:export-xdpi="360"
       inkscape:export-filename="C:\Users\Stéphane\Desktop\Blogs\OpenFoodFacts\off-logo-en.712x575.png"
       inkscape:connector-curvature="0"
       id="path8001"
       d="m 55,15 0,80 1,0 -9e-6,-80 z"
       style="fill:#ffcc00;fill-opacity:1;fill-rule:nonzero;stroke:none"
       sodipodi:nodetypes="ccccc" />
    <path
       inkscape:export-ydpi="360"
       inkscape:export-xdpi="360"
       inkscape:export-filename="C:\Users\Stéphane\Desktop\Blogs\OpenFoodFacts\off-logo-en.712x575.png"
       inkscape:connector-curvature="0"
       id="path8003"
       d="m 52,26 0,69 2,0 3e-6,-69 z"
       style="fill:#ffcc00;fill-opacity:1;fill-rule:nonzero;stroke:none"
       sodipodi:nodetypes="ccccc" />
    <path
       inkscape:export-ydpi="360"
       inkscape:export-xdpi="360"
       inkscape:export-filename="C:\Users\Stéphane\Desktop\Blogs\OpenFoodFacts\off-logo-en.712x575.png"
       inkscape:connector-curvature="0"
       id="path8005"
       d="m 46,26 0,69 3,0 -7e-6,-69 z"
       style="fill:#ffcc00;fill-opacity:1;fill-rule:nonzero;stroke:none"
       sodipodi:nodetypes="ccccc" />
    <path
       inkscape:export-ydpi="360"
       inkscape:export-xdpi="360"
       inkscape:export-filename="C:\Users\Stéphane\Desktop\Blogs\OpenFoodFacts\off-logo-en.712x575.png"
       inkscape:connector-curvature="0"
       id="path8007"
       d="m 44,26 0,69 1,0 10e-7,-69 z"
       style="fill:#ffcc00;fill-opacity:1;fill-rule:nonzero;stroke:none"
       sodipodi:nodetypes="ccccc" />
    <path
       inkscape:export-ydpi="360"
       inkscape:export-xdpi="360"
       inkscape:export-filename="C:\Users\Stéphane\Desktop\Blogs\OpenFoodFacts\off-logo-en.712x575.png"
       inkscape:connector-curvature="0"
       id="path8009"
       d="m 40,26 0,69 1,0 2e-6,-69 z"
       style="fill:#ffcc00;fill-opacity:1;fill-rule:nonzero;stroke:none"
       sodipodi:nodetypes="ccccc" />
    <path
       inkscape:export-ydpi="360"
       inkscape:export-xdpi="360"
       inkscape:export-filename="C:\Users\Stéphane\Desktop\Blogs\OpenFoodFacts\off-logo-en.712x575.png"
       inkscape:connector-curvature="0"
       id="path8011"
       d="m 37,26 0,69 2,0 4e-6,-69 z"
       style="fill:#ffcc00;fill-opacity:1;fill-rule:nonzero;stroke:none"
       sodipodi:nodetypes="ccccc" />
    <path
       inkscape:export-ydpi="360"
       inkscape:export-xdpi="360"
       inkscape:export-filename="C:\Users\Stéphane\Desktop\Blogs\OpenFoodFacts\off-logo-en.712x575.png"
       inkscape:connector-curvature="0"
       id="path8013"
       d="m 33,20 0,75 1,0 -7e-6,-75 z"
       style="fill:#ff0000;fill-opacity:1;fill-rule:nonzero;stroke:none"
       sodipodi:nodetypes="ccccc" />
    <path
       inkscape:export-ydpi="360"
       inkscape:export-xdpi="360"
       inkscape:export-filename="C:\Users\Stéphane\Desktop\Blogs\OpenFoodFacts\off-logo-en.712x575.png"
       inkscape:connector-curvature="0"
       id="path8015"
       d="m 30,19 0,76 2,0 4e-6,-76 z"
       style="fill:#ff0000;fill-opacity:1;fill-rule:nonzero;stroke:none"
       sodipodi:nodetypes="ccccc" />
    <path
       inkscape:export-ydpi="360"
       inkscape:export-xdpi="360"
       inkscape:export-filename="C:\Users\Stéphane\Desktop\Blogs\OpenFoodFacts\off-logo-en.712x575.png"
       inkscape:connector-curvature="0"
       id="path8017"
       d="m 26,26 0,69 3,0 0,-69 z"
       style="fill:#ff0000;fill-opacity:1;fill-rule:nonzero;stroke:none"
       sodipodi:nodetypes="ccccc" />
    <path
       inkscape:export-ydpi="360"
       inkscape:export-xdpi="360"
       inkscape:export-filename="C:\Users\Stéphane\Desktop\Blogs\OpenFoodFacts\off-logo-en.712x575.png"
       inkscape:connector-curvature="0"
       id="path8019"
       d="m 22,26 0,69 3,0 -5e-6,-69 z"
       style="fill:#ff0000;fill-opacity:1;fill-rule:nonzero;stroke:none"
       sodipodi:nodetypes="ccccc" />
    <path
       inkscape:export-ydpi="360"
       inkscape:export-xdpi="360"
       inkscape:export-filename="C:\Users\Stéphane\Desktop\Blogs\OpenFoodFacts\off-logo-en.712x575.png"
       inkscape:connector-curvature="0"
       id="path8021"
       d="m 19,20 0,75 2,0 -8.6e-5,-75 z"
       style="fill:#ff0000;fill-opacity:1;fill-rule:nonzero;stroke:none"
       sodipodi:nodetypes="ccccc" />
    <path
       inkscape:export-ydpi="360"
       inkscape:export-xdpi="360"
       inkscape:export-filename="C:\Users\Stéphane\Desktop\Blogs\OpenFoodFacts\off-logo-en.712x575.png"
       inkscape:connector-curvature="0"
       id="path8023"
       d="m 15,21 0,74 3,0 -3.5e-5,-74 z"
       style="fill:#ff0000;fill-opacity:1;fill-rule:nonzero;stroke:none"
       sodipodi:nodetypes="ccccc" />
    <path
       inkscape:export-ydpi="360"
       inkscape:export-xdpi="360"
       inkscape:export-filename="C:\Users\Stéphane\Desktop\Blogs\OpenFoodFacts\off-logo-en.712x575.png"
       inkscape:connector-curvature="0"
       id="path8025"
       d="m 11,26 0,69 1,0 -4.9e-5,-69 z"
       style="fill:#ff0000;fill-opacity:1;fill-rule:nonzero;stroke:none"
       sodipodi:nodetypes="ccccc" />
    <path
       inkscape:export-ydpi="360"
       inkscape:export-xdpi="360"
       inkscape:export-filename="C:\Users\Stéphane\Desktop\Blogs\OpenFoodFacts\off-logo-en.712x575.png"
       inkscape:connector-curvature="0"
       id="path8027"
       d="M 8,26 8,95 9,95 9,26 Z"
       style="fill:#ff0000;fill-opacity:1;fill-rule:nonzero;stroke:none"
       sodipodi:nodetypes="ccccc" />
    <path
       inkscape:export-ydpi="360"
       inkscape:export-xdpi="360"
       inkscape:export-filename="C:\Users\Stéphane\Desktop\Blogs\OpenFoodFacts\off-logo-en.712x575.png"
       inkscape:connector-curvature="0"
       id="path8029"
       d="m 2.9986784,25.916822 0,69.083178 0.9995629,0 0,-69.083178 z"
       style="fill:#ff0000;fill-opacity:1;fill-rule:nonzero;stroke:none"
       sodipodi:nodetypes="ccccc" />
    <path
       inkscape:export-ydpi="360"
       inkscape:export-xdpi="360"
       inkscape:export-filename="C:\Users\Stéphane\Desktop\Blogs\OpenFoodFacts\off-logo-en.712x575.png"
       inkscape:connector-curvature="0"
       id="path8031"
       d="m 1.3499883e-5,25.916822 0,69.083178 1.999113900117,0 0,-69.083178 z"
       style="fill:#ff0000;fill-opacity:1;fill-rule:nonzero;stroke:none"
       sodipodi:nodetypes="ccccc" />
    <path
       sodipodi:nodetypes="csssacccccssscccsccccc"
       inkscape:connector-curvature="0"
       id="path8033"
       d="m 12.96037,20.168037 c 0.62972,-0.815576 0.719123,-2.676154 1.281409,-4.358843 0.405305,-1.212926 0.463533,-4.596987 1.208651,-4.882429 0.96834,-0.370951 3.169601,-0.358079 4.223988,-0.416629 2.300059,-0.127699 4.518931,1.098659 6.822539,1.101136 2.990853,0.0036 8.861008,-1.410596 8.861008,-1.410596 l -0.140119,-2.0388259 1.505607,0.2780586 4.07695,-0.5169049 -3.008404,1.3861371 c 0,0 1.201864,-0.021077 1.688022,0.2768321 0.705048,0.432109 0.959994,1.347377 1.46892,1.999162 0.291967,0.373928 1.082477,0.65438 0.908337,1.095671 -0.469844,1.190611 -3.808977,0.485944 -3.808977,0.485944 l -1.918736,1.803326 c -0.833009,1.778987 -2.26137,3.261839 -2.253596,6.722383 0,0 -6.006891,-0.923008 -8.991183,-0.79663 -1.764007,0.07466 -4.968974,0.618073 -4.968974,0.618073 -1.608718,-0.13719 -3.296502,-0.529063 -4.905219,-0.24954 0.0095,-6.235485 0.866683,-6.128862 0.69876,-9.294821 -0.439183,1.679986 -0.971056,4.516551 -1.026843,5.772464 -0.534756,1.525804 -0.01191,1.899672 -1.72214,2.426032 z"
       style="fill:#ff0000;fill-opacity:1"
       inkscape:export-filename="C:\Users\Stéphane\Desktop\Blogs\OpenFoodFacts\off-logo-en.712x575.png"
       inkscape:export-xdpi="360"
       inkscape:export-ydpi="360" />
    <g
       style="fill:#ffcc00"
       transform="matrix(0.01488015,-0.01147672,0.01147672,0.01488015,39.17529,7.5675208)"
       id="g8035"
       inkscape:export-filename="C:\Users\Stéphane\Desktop\Blogs\OpenFoodFacts\off-logo-en.712x575.png"
       inkscape:export-xdpi="360"
       inkscape:export-ydpi="360">
      <ellipse
         ry="32.857143"
         rx="65.714287"
         cy="762.36218"
         cx="567.14288"
         style="fill:#ffcc00;fill-opacity:1;stroke:none"
         id="path8037"
         transform="matrix(0.58270937,-0.81268061,0.81268061,0.58270937,-465.7507,809.03262)" />
      <path
         style="fill:#ffcc00;fill-opacity:1;stroke:none"
         d="m 494.28571,741.6479 c 0,0 14.40901,-2.31616 20.71429,-5.71428 22.08801,-11.90395 53.57143,-52.85715 53.57143,-52.85715 0,0 -33.14169,43.13867 -40,64.99999 -2.07174,6.60382 -1.42857,20.71429 -1.42857,20.71429 z"
         id="path8039"
         inkscape:connector-curvature="0"
         sodipodi:nodetypes="cscscc" />
    </g>
    <g
       transform="matrix(0.89458574,0,0,0.89458574,-468.13007,-644.42698)"
       id="g8041"
       inkscape:export-filename="C:\Users\Stéphane\Desktop\Blogs\OpenFoodFacts\off-logo-en.712x575.png"
       inkscape:export-xdpi="360"
       inkscape:export-ydpi="360">
      <g
         id="g8043"
         transform="translate(-9.5459416,1.1490485)"
         style="fill:#ffcc00">
        <g
           transform="matrix(0.02100622,0,0,0.02100622,586.13922,725.53281)"
           id="g8045"
           style="fill:#ffcc00">
          <ellipse
             ry="32.857143"
             rx="65.714287"
             cy="762.36218"
             cx="567.14288"
             style="fill:#ffcc00;fill-opacity:1;stroke:none"
             id="path8047"
             transform="matrix(0.58270937,-0.81268061,0.81268061,0.58270937,-465.7507,809.03262)" />
          <path
             style="fill:#ffcc00;fill-opacity:1;stroke:none"
             d="m 494.28571,741.6479 c 0,0 14.40901,-2.31616 20.71429,-5.71428 22.08801,-11.90395 53.57143,-52.85715 53.57143,-52.85715 0,0 -33.14169,43.13867 -40,64.99999 -2.07174,6.60382 -1.42857,20.71429 -1.42857,20.71429 z"
             id="path8049"
             inkscape:connector-curvature="0"
             sodipodi:nodetypes="cscscc" />
        </g>
        <g
           transform="matrix(0.02100622,0,0,0.02100622,586.13922,727.5359)"
           id="g8051"
           style="fill:#ffcc00">
          <ellipse
             ry="32.857143"
             rx="65.714287"
             cy="762.36218"
             cx="567.14288"
             style="fill:#ffcc00;fill-opacity:1;stroke:none"
             id="path8053"
             transform="matrix(0.58270937,-0.81268061,0.81268061,0.58270937,-465.7507,809.03262)" />
          <path
             style="fill:#ffcc00;fill-opacity:1;stroke:none"
             d="m 494.28571,741.6479 c 0,0 14.40901,-2.31616 20.71429,-5.71428 22.08801,-11.90395 53.57143,-52.85715 53.57143,-52.85715 0,0 -33.14169,43.13867 -40,64.99999 -2.07174,6.60382 -1.42857,20.71429 -1.42857,20.71429 z"
             id="path8055"
             inkscape:connector-curvature="0"
             sodipodi:nodetypes="cscscc" />
        </g>
        <g
           transform="matrix(0.02100622,0,0,0.02100622,586.13922,723.52972)"
           id="g8057"
           style="fill:#ffcc00">
          <ellipse
             ry="32.857143"
             rx="65.714287"
             cy="762.36218"
             cx="567.14288"
             style="fill:#ffcc00;fill-opacity:1;stroke:none"
             id="path8059"
             transform="matrix(0.58270937,-0.81268061,0.81268061,0.58270937,-465.7507,809.03262)" />
          <path
             style="fill:#ffcc00;fill-opacity:1;stroke:none"
             d="m 494.28571,741.6479 c 0,0 14.40901,-2.31616 20.71429,-5.71428 22.08801,-11.90395 53.57143,-52.85715 53.57143,-52.85715 0,0 -33.14169,43.13867 -40,64.99999 -2.07174,6.60382 -1.42857,20.71429 -1.42857,20.71429 z"
             id="path8061"
             inkscape:connector-curvature="0"
             sodipodi:nodetypes="cscscc" />
        </g>
        <g
           transform="matrix(0.02100622,0,0,0.02100622,586.13922,721.52662)"
           id="g8063"
           style="fill:#ffcc00">
          <ellipse
             ry="32.857143"
             rx="65.714287"
             cy="762.36218"
             cx="567.14288"
             style="fill:#ffcc00;fill-opacity:1;stroke:none"
             id="path8065"
             transform="matrix(0.58270937,-0.81268061,0.81268061,0.58270937,-465.7507,809.03262)" />
          <path
             style="fill:#ffcc00;fill-opacity:1;stroke:none"
             d="m 494.28571,741.6479 c 0,0 14.40901,-2.31616 20.71429,-5.71428 22.08801,-11.90395 53.57143,-52.85715 53.57143,-52.85715 0,0 -33.14169,43.13867 -40,64.99999 -2.07174,6.60382 -1.42857,20.71429 -1.42857,20.71429 z"
             id="path8067"
             inkscape:connector-curvature="0"
             sodipodi:nodetypes="cscscc" />
        </g>
        <g
           transform="matrix(0.02064274,-0.0038908,0.0038908,0.02064274,583.1049,721.64932)"
           id="g8069"
           style="fill:#ffcc00">
          <ellipse
             ry="32.857143"
             rx="65.714287"
             cy="762.36218"
             cx="567.14288"
             style="fill:#ffcc00;fill-opacity:1;stroke:none"
             id="path8071"
             transform="matrix(0.58270937,-0.81268061,0.81268061,0.58270937,-465.7507,809.03262)" />
          <path
             style="fill:#ffcc00;fill-opacity:1;stroke:none"
             d="m 494.28571,741.6479 c 0,0 14.40901,-2.31616 20.71429,-5.71428 22.08801,-11.90395 53.57143,-52.85715 53.57143,-52.85715 0,0 -33.14169,43.13867 -40,64.99999 -2.07174,6.60382 -1.42857,20.71429 -1.42857,20.71429 z"
             id="path8073"
             inkscape:connector-curvature="0"
             sodipodi:nodetypes="cscscc" />
        </g>
      </g>
      <g
         id="g8075"
         style="fill:#ffcc00"
         transform="translate(-10.253048,1.1490485)">
        <g
           transform="matrix(-0.02100622,0,0,0.02100622,604.26937,725.53281)"
           id="g8077"
           style="fill:#ffcc00">
          <ellipse
             ry="32.857143"
             rx="65.714287"
             cy="762.36218"
             cx="567.14288"
             style="fill:#ffcc00;fill-opacity:1;stroke:none"
             id="path8079"
             transform="matrix(0.58270937,-0.81268061,0.81268061,0.58270937,-465.7507,809.03262)" />
          <path
             style="fill:#ffcc00;fill-opacity:1;stroke:none"
             d="m 494.28571,741.6479 c 0,0 14.40901,-2.31616 20.71429,-5.71428 22.08801,-11.90395 53.57143,-52.85715 53.57143,-52.85715 0,0 -33.14169,43.13867 -40,64.99999 -2.07174,6.60382 -1.42857,20.71429 -1.42857,20.71429 z"
             id="path8081"
             inkscape:connector-curvature="0"
             sodipodi:nodetypes="cscscc" />
        </g>
        <g
           transform="matrix(-0.02100622,0,0,0.02100622,604.26938,727.5359)"
           id="g8083"
           style="fill:#ffcc00">
          <ellipse
             ry="32.857143"
             rx="65.714287"
             cy="762.36218"
             cx="567.14288"
             style="fill:#ffcc00;fill-opacity:1;stroke:none"
             id="path8085"
             transform="matrix(0.58270937,-0.81268061,0.81268061,0.58270937,-465.7507,809.03262)" />
          <path
             style="fill:#ffcc00;fill-opacity:1;stroke:none"
             d="m 494.28571,741.6479 c 0,0 14.40901,-2.31616 20.71429,-5.71428 22.08801,-11.90395 53.57143,-52.85715 53.57143,-52.85715 0,0 -33.14169,43.13867 -40,64.99999 -2.07174,6.60382 -1.42857,20.71429 -1.42857,20.71429 z"
             id="path8087"
             inkscape:connector-curvature="0"
             sodipodi:nodetypes="cscscc" />
        </g>
        <g
           transform="matrix(-0.02100622,0,0,0.02100622,604.26938,723.52972)"
           id="g8089"
           style="fill:#ffcc00">
          <ellipse
             ry="32.857143"
             rx="65.714287"
             cy="762.36218"
             cx="567.14288"
             style="fill:#ffcc00;fill-opacity:1;stroke:none"
             id="path8091"
             transform="matrix(0.58270937,-0.81268061,0.81268061,0.58270937,-465.7507,809.03262)" />
          <path
             style="fill:#ffcc00;fill-opacity:1;stroke:none"
             d="m 494.28571,741.6479 c 0,0 14.40901,-2.31616 20.71429,-5.71428 22.08801,-11.90395 53.57143,-52.85715 53.57143,-52.85715 0,0 -33.14169,43.13867 -40,64.99999 -2.07174,6.60382 -1.42857,20.71429 -1.42857,20.71429 z"
             id="path8093"
             inkscape:connector-curvature="0"
             sodipodi:nodetypes="cscscc" />
        </g>
        <g
           transform="matrix(-0.02100622,0,0,0.02100622,604.26937,721.52662)"
           id="g8095"
           style="fill:#ffcc00">
          <ellipse
             ry="32.857143"
             rx="65.714287"
             cy="762.36218"
             cx="567.14288"
             style="fill:#ffcc00;fill-opacity:1;stroke:none"
             id="path8097"
             transform="matrix(0.58270937,-0.81268061,0.81268061,0.58270937,-465.7507,809.03262)" />
          <path
             style="fill:#ffcc00;fill-opacity:1;stroke:none"
             d="m 494.28571,741.6479 c 0,0 14.40901,-2.31616 20.71429,-5.71428 22.08801,-11.90395 53.57143,-52.85715 53.57143,-52.85715 0,0 -33.14169,43.13867 -40,64.99999 -2.07174,6.60382 -1.42857,20.71429 -1.42857,20.71429 z"
             id="path8099"
             inkscape:connector-curvature="0"
             sodipodi:nodetypes="cscscc" />
        </g>
        <g
           transform="matrix(-0.02064274,-0.0038908,-0.0038908,0.02064274,607.30369,721.64932)"
           id="g8101"
           style="fill:#ffcc00">
          <ellipse
             ry="32.857143"
             rx="65.714287"
             cy="762.36218"
             cx="567.14288"
             style="fill:#ffcc00;fill-opacity:1;stroke:none"
             id="path8103"
             transform="matrix(0.58270937,-0.81268061,0.81268061,0.58270937,-465.7507,809.03262)" />
          <path
             style="fill:#ffcc00;fill-opacity:1;stroke:none"
             d="m 494.28571,741.6479 c 0,0 14.40901,-2.31616 20.71429,-5.71428 22.08801,-11.90395 53.57143,-52.85715 53.57143,-52.85715 0,0 -33.14169,43.13867 -40,64.99999 -2.07174,6.60382 -1.42857,20.71429 -1.42857,20.71429 z"
             id="path8105"
             inkscape:connector-curvature="0"
             sodipodi:nodetypes="cscscc" />
        </g>
      </g>
    </g>
    <g
       id="g8107"
       transform="matrix(0.485552,-0.55754244,0.55754244,0.485552,-616.03955,-2.5771103)"
       inkscape:export-filename="C:\Users\Stéphane\Desktop\Blogs\OpenFoodFacts\off-logo-en.712x575.png"
       inkscape:export-xdpi="360"
       inkscape:export-ydpi="360">
      <circle
         r="2.5"
         cy="732.36218"
         cx="608"
         style="fill:#ffcc00;fill-opacity:1"
         id="path8109"
         transform="translate(1.5,9.75)" />
      <circle
         r="2.5"
         cy="732.36218"
         cx="608"
         id="path8111"
         style="fill:#ffcc00;fill-opacity:1"
         inkscape:transform-center-x="-3.1501887"
         inkscape:transform-center-y="-1.6050895"
         transform="matrix(0.30901699,-0.95105652,0.95105652,0.30901699,-274.24997,1089.9371)" />
      <circle
         r="2.5"
         cy="732.36218"
         cx="608"
         transform="matrix(-0.809017,-0.58778525,0.58778525,-0.809017,667.85758,1685.9871)"
         inkscape:transform-center-y="-3.4919705"
         inkscape:transform-center-x="0.5530674"
         style="fill:#ffcc00;fill-opacity:1"
         id="path8113" />
      <circle
         r="2.5"
         cy="732.36218"
         cx="608"
         id="path8115"
         style="fill:#ffcc00;fill-opacity:1"
         inkscape:transform-center-x="3.4919258"
         inkscape:transform-center-y="-0.5530731"
         transform="matrix(-0.80901699,0.58778526,-0.58778526,-0.80901699,1525.8621,974.17912)" />
      <circle
         r="2.5"
         cy="732.36218"
         cx="608"
         transform="matrix(0.309017,0.95105651,-0.95105651,0.309017,1114.0304,-61.792435)"
         inkscape:transform-center-y="3.1501051"
         inkscape:transform-center-x="1.6050854"
         style="fill:#ffcc00;fill-opacity:1"
         id="path8117" />
    </g>
    <g
       transform="matrix(-0.6491698,-0.35382606,0.35382606,-0.6491698,218.16484,702.9075)"
       id="g8119"
       inkscape:export-filename="C:\Users\Stéphane\Desktop\Blogs\OpenFoodFacts\off-logo-en.712x575.png"
       inkscape:export-xdpi="360"
       inkscape:export-ydpi="360">
      <circle
         r="2.5"
         cy="732.36218"
         cx="608"
         transform="translate(1.5,9.75)"
         id="path8121"
         style="fill:#ffcc00;fill-opacity:1" />
      <circle
         r="2.5"
         cy="732.36218"
         cx="608"
         transform="matrix(0.30901699,-0.95105652,0.95105652,0.30901699,-274.24997,1089.9371)"
         inkscape:transform-center-y="-1.6050895"
         inkscape:transform-center-x="-3.1501887"
         style="fill:#ffcc00;fill-opacity:1"
         id="path8123" />
      <circle
         r="2.5"
         cy="732.36218"
         cx="608"
         id="path8125"
         style="fill:#ffcc00;fill-opacity:1"
         inkscape:transform-center-x="0.5530674"
         inkscape:transform-center-y="-3.4919705"
         transform="matrix(-0.809017,-0.58778525,0.58778525,-0.809017,667.85758,1685.9871)" />
      <circle
         r="2.5"
         cy="732.36218"
         cx="608"
         transform="matrix(-0.80901699,0.58778526,-0.58778526,-0.80901699,1525.8621,974.17912)"
         inkscape:transform-center-y="-0.5530731"
         inkscape:transform-center-x="3.4919258"
         style="fill:#ffcc00;fill-opacity:1"
         id="path8127" />
      <circle
         r="2.5"
         cy="732.36218"
         cx="608"
         id="path8129"
         style="fill:#ffcc00;fill-opacity:1"
         inkscape:transform-center-x="1.6050854"
         inkscape:transform-center-y="3.1501051"
         transform="matrix(0.309017,0.95105651,-0.95105651,0.309017,1114.0304,-61.792435)" />
    </g>
    <g
       id="g8131"
       transform="matrix(0.31450273,-0.66910564,0.66910564,0.31450273,-610.58237,190.80877)"
       inkscape:export-filename="C:\Users\Stéphane\Desktop\Blogs\OpenFoodFacts\off-logo-en.712x575.png"
       inkscape:export-xdpi="360"
       inkscape:export-ydpi="360">
      <circle
         r="2.5"
         cy="732.36218"
         cx="608"
         style="fill:#ffcc00;fill-opacity:1"
         id="path8133"
         transform="translate(1.5,9.75)" />
      <circle
         r="2.5"
         cy="732.36218"
         cx="608"
         id="path8135"
         style="fill:#ffcc00;fill-opacity:1"
         inkscape:transform-center-x="-3.1501887"
         inkscape:transform-center-y="-1.6050895"
         transform="matrix(0.30901699,-0.95105652,0.95105652,0.30901699,-274.24997,1089.9371)" />
      <circle
         r="2.5"
         cy="732.36218"
         cx="608"
         transform="matrix(-0.809017,-0.58778525,0.58778525,-0.809017,667.85758,1685.9871)"
         inkscape:transform-center-y="-3.4919705"
         inkscape:transform-center-x="0.5530674"
         style="fill:#ffcc00;fill-opacity:1"
         id="path8137" />
      <circle
         r="2.5"
         cy="732.36218"
         cx="608"
         id="path8139"
         style="fill:#ffcc00;fill-opacity:1"
         inkscape:transform-center-x="3.4919258"
         inkscape:transform-center-y="-0.5530731"
         transform="matrix(-0.80901699,0.58778526,-0.58778526,-0.80901699,1525.8621,974.17912)" />
      <circle
         r="2.5"
         cy="732.36218"
         cx="608"
         transform="matrix(0.309017,0.95105651,-0.95105651,0.309017,1114.0304,-61.792435)"
         inkscape:transform-center-y="3.1501051"
         inkscape:transform-center-x="1.6050854"
         style="fill:#ffcc00;fill-opacity:1"
         id="path8141" />
    </g>
    <path
       style="fill:#00d400;fill-opacity:1;fill-rule:nonzero;stroke:none"
       d="M 122.44657,6.3372804 C 131.63587,7.2870331 135.07702,14.767884 135,28 l 2.96392,-1.398609 c 0,-1.461895 -0.0255,-1.249361 -0.0255,-2.711244 0,-10.866897 -6.40398,-17.274677 -10.91182,-18.343579 z"
       id="path8143"
       inkscape:connector-curvature="0"
       inkscape:export-filename="C:\Users\Stéphane\Desktop\Blogs\OpenFoodFacts\off-logo-en.712x575.png"
       inkscape:export-xdpi="360"
       inkscape:export-ydpi="360"
       sodipodi:nodetypes="cccscc" />
    <g
       transform="matrix(0.89458574,0,0,0.89458574,-468.09845,-644.42698)"
       id="g8145"
       inkscape:export-filename="C:\Users\Stéphane\Desktop\Blogs\OpenFoodFacts\off-logo-en.712x575.png"
       inkscape:export-xdpi="360"
       inkscape:export-ydpi="360">
      <g
         transform="translate(-0.6875,-0.0625)"
         id="g8147">
        <path
           sodipodi:nodetypes="ccc"
           inkscape:connector-curvature="0"
           id="path8149"
           d="m 646.11882,744.69741 c 9.98853,-2.85699 22.36057,-3.40732 20.1894,-18.03175 -19.13147,-9.00363 -12.68327,7.89971 -20.1894,18.03175 z"
           style="fill:#00d400;stroke:none" />
        <path
           sodipodi:nodetypes="ccc"
           inkscape:connector-curvature="0"
           id="path8151"
           d="m 667.50879,725.1485 c -4.96993,6.86401 -15.79612,16.96445 -22.45063,19.97578 6.6817,-2.48508 19.65127,-12.66443 22.45063,-19.97578 z"
           style="fill:#ffffff;fill-opacity:1;stroke:none" />
      </g>
    </g>
    <g
       id="g8153"
       transform="matrix(0.73729109,0.50664139,0.50664139,-0.73729109,-728.9281,199.42539)"
       inkscape:export-filename="C:\Users\Stéphane\Desktop\Blogs\OpenFoodFacts\off-logo-en.712x575.png"
       inkscape:export-xdpi="360"
       inkscape:export-ydpi="360">
      <g
         transform="matrix(-0.85351374,-0.52107033,0.52107033,-0.85351374,864.58887,1695.2445)"
         id="g8155">
        <g
           transform="translate(-0.6875,-0.0625)"
           id="g8157">
          <path
             sodipodi:nodetypes="ccc"
             inkscape:connector-curvature="0"
             id="path8159"
             d="m 646.11882,744.69741 c 9.98853,-2.85699 22.36057,-3.40732 20.1894,-18.03175 -19.99874,-7.24796 -12.68327,7.89971 -20.1894,18.03175 z"
             style="fill:#00d400;stroke:none" />
          <path
             sodipodi:nodetypes="ccc"
             inkscape:connector-curvature="0"
             id="path8161"
             d="m 667.50879,725.1485 c -4.96993,6.86401 -15.79612,16.96445 -22.45063,19.97578 6.6817,-2.48508 19.65127,-12.66443 22.45063,-19.97578 z"
             style="fill:#ffffff;fill-opacity:1;stroke:none" />
        </g>
      </g>
    </g>
    <path
       sodipodi:nodetypes="cccscc"
       inkscape:export-ydpi="360"
       inkscape:export-xdpi="360"
       inkscape:export-filename="C:\Users\Stéphane\Desktop\Blogs\OpenFoodFacts\off-logo-en.712x575.png"
       inkscape:connector-curvature="0"
       id="path8163"
       d="M 137.87818,4.6040196 C 135.88514,6.1688092 135.07702,14.767884 135,28 l 2.96392,-1.398609 c 0,-1.461895 0.0361,1.860492 0.0361,0.398609 0,-10.866897 0.85886,-19.3222012 1.21536,-21.1179659 z"
       style="fill:#00d400;fill-opacity:1;fill-rule:nonzero;stroke:none" />
    <circle
       r="0.94885141"
       cy="35.27636"
       cx="159.09236"
       inkscape:export-ydpi="360"
       inkscape:export-xdpi="360"
       inkscape:export-filename="C:\Users\Stéphane\Desktop\Blogs\OpenFoodFacts\off-logo-en.712x575.png"
       style="fill:#00ccff;fill-opacity:1;stroke:none"
       id="path8165" />
    <g
       transform="matrix(0.89476596,0,0,0.89458574,-763.01815,-727.33576)"
       id="g8167"
       inkscape:export-filename="C:\Users\Stéphane\Desktop\Blogs\OpenFoodFacts\off-logo-en.712x575.png"
       inkscape:export-xdpi="360"
       inkscape:export-ydpi="360">
      <path
         inkscape:connector-curvature="0"
         style="fill:#0066ff;fill-opacity:1;fill-rule:nonzero;stroke:none"
         d="m 1042.7511,944.94661 0,5.58918 c 2.9792,0 5.9616,0 8.9408,0 l 0,-5.58918 c -2.9792,0 -5.9616,0 -8.9407,0 z"
         id="path8169"
         inkscape:export-filename="C:\Users\Stéphane\Desktop\Blogs\OpenFoodFacts\openfoodfacts-250b.png"
         inkscape:export-xdpi="112.45"
         inkscape:export-ydpi="112.45"
         sodipodi:nodetypes="cccccc" />
      <path
         inkscape:connector-curvature="0"
         style="fill:#00ccff;fill-opacity:1;fill-rule:nonzero;stroke:none"
         d="m 1024.8693,944.94661 0,5.58918 c 4.8438,0 9.6851,0 14.5289,0 l 0,-5.58918 c -4.8438,0 -9.6851,0 -14.5289,0 z"
         id="path8171"
         inkscape:export-filename="C:\Users\Stéphane\Desktop\Blogs\OpenFoodFacts\openfoodfacts-250b.png"
         inkscape:export-xdpi="112.45"
         inkscape:export-ydpi="112.45"
         sodipodi:nodetypes="ccccc" />
      <path
         inkscape:connector-curvature="0"
         style="fill:#00d400;fill-opacity:1;fill-rule:nonzero;stroke:none"
         d="m 958.93025,944.94661 0,5.58918 c 20.85417,0 41.73205,0 62.58625,0 l 0,-5.58918 c -20.8542,0 -41.73208,0 -62.58625,0 z"
         id="path8173"
         inkscape:export-filename="C:\Users\Stéphane\Desktop\Blogs\OpenFoodFacts\openfoodfacts-250b.png"
         inkscape:export-xdpi="112.45"
         inkscape:export-ydpi="112.45"
         sodipodi:nodetypes="ccccc" />
      <path
         inkscape:connector-curvature="0"
         style="fill:#ffcc00;fill-opacity:1;fill-rule:nonzero;stroke:none"
         d="m 894.10883,944.94661 0,5.58918 c 20.48959,0 40.97901,0 61.46859,0 l 0,-5.58918 c -20.48958,0 -40.979,0 -61.46859,0 z"
         id="path8175"
         inkscape:export-filename="C:\Users\Stéphane\Desktop\Blogs\OpenFoodFacts\openfoodfacts-250b.png"
         inkscape:export-xdpi="112.45"
         inkscape:export-ydpi="112.45"
         sodipodi:nodetypes="ccccc" />
      <path
         inkscape:connector-curvature="0"
         style="fill:#ff0000;fill-opacity:1;fill-rule:nonzero;stroke:none"
         d="m 852.75724,944.94661 0,5.58918 c 12.66667,0 25.3321,0 37.99876,0 l 0,-5.58918 c -12.66666,0 -25.33209,0 -37.99876,0 z"
         id="path8177"
         inkscape:export-filename="C:\Users\Stéphane\Desktop\Blogs\OpenFoodFacts\openfoodfacts-250b.png"
         inkscape:export-xdpi="112.45"
         inkscape:export-ydpi="112.45"
         sodipodi:nodetypes="ccccc" />
    </g>
    <g
       style="font-style:normal;font-variant:normal;font-weight:normal;font-stretch:normal;font-size:32.81705093px;line-height:125%;font-family:'Arial Narrow';-inkscape-font-specification:'Arial Narrow';letter-spacing:0px;word-spacing:0px;fill:#333333;fill-opacity:1;stroke:none"
       id="text8179"
       inkscape:export-filename="C:\Users\Stéphane\Desktop\Blogs\OpenFoodFacts\off-logo-en.712x575.png"
       inkscape:export-xdpi="360"
       inkscape:export-ydpi="360"
       transform="translate(0,2.6378174)">
      <path
         d="m 0.29533203,104.18406 c -9.5e-7,-2.79573 0.61506181,-4.944723 1.84519007,-6.446982 1.2301228,-1.50223 2.7621882,-2.253352 4.5962009,-2.253369 1.1853862,1.7e-5 2.2664056,0.335506 3.2430614,1.006468 0.9766346,0.670993 1.7501226,1.645774 2.3204666,2.924346 0.570318,1.278597 0.855483,2.801347 0.855497,4.568247 -1.4e-5,2.43043 -0.551707,4.40982 -1.65508,5.93815 -1.215227,1.68491 -2.8069346,2.52736 -4.775128,2.52736 -1.9831188,0 -3.5785543,-0.86482 -4.7863113,-2.59445 -1.09593262,-1.56562 -1.64389762,-3.45554 -1.64389667,-5.66977 z m 1.83400717,0.0335 c -2.8e-6,2.0204 0.4454517,3.58787 1.3363649,4.70244 0.890905,1.11457 1.9737882,1.67185 3.2486529,1.67185 1.3046712,0 2.3987374,-0.56287 3.2822018,-1.68863 0.8834432,-1.12574 1.3251702,-2.78082 1.3251822,-4.96524 -1.2e-5,-1.40904 -0.227399,-2.66899 -0.682161,-3.77984 C 10.289169,99.308298 9.761706,98.628001 9.0571893,98.117299 8.3526532,97.606624 7.5828928,97.35128 6.7479059,97.351265 5.4059434,97.35128 4.3006943,97.910428 3.4321552,99.028711 2.563608,100.14702 2.1293364,101.87665 2.1293392,104.21761 Z"
         style="font-size:22.90272331px;fill:#333333"
         id="path3685"
         inkscape:connector-curvature="0" />
      <path
         d="m 15,112.36218 0,-16.999997 4.674837,0 c 1.224167,1.6e-5 2.126995,0.107131 2.708487,0.321346 0.795704,0.290757 1.430744,0.830159 1.905122,1.618206 0.474357,0.788077 0.711542,1.755941 0.711554,2.903595 -1.2e-5,1.51492 -0.386392,2.75057 -1.159142,3.70695 -0.772771,0.9564 -2.107912,1.42433 -4.005348,1.43458 L 17,105.36218 l 0,7 z m 2,-9 2.86994,-7.7e-4 c 1.124703,-3e-4 1.947195,-0.25439 2.467477,-0.7632 0.520265,-0.50879 0.780403,-1.27581 0.780412,-2.30107 -9e-6,-0.665632 -0.128166,-1.235638 -0.384467,-1.710022 -0.256321,-0.474353 -0.56619,-0.799524 -0.929608,-0.975514 -0.363435,-0.17596 -1.019516,-0.263948 -1.968244,-0.263963 L 17,97.362183 Z"
         style="font-size:22.90272331px;fill:#333333"
         id="path3687"
         inkscape:connector-curvature="0"
         sodipodi:nodetypes="ccccccssccccsscccccc" />
      <path
         d="m 27,112.36218 0,-16.999997 10,0 0,2 -8,0 0,4.999997 7,0 0,2 -7,0 0,6 8,0 0,2 z"
         style="font-size:22.90272331px;fill:#333333"
         id="path3689"
         inkscape:connector-curvature="0"
         sodipodi:nodetypes="ccccccccccccc" />
      <path
         d="m 39,112.36218 0,-16.999997 2,0 7,12.999997 0,-12.999997 2,0 0,16.999997 -2,0 -7,-12.999997 0,12.999997 z"
         style="font-size:22.90272331px;fill:#333333"
         id="path3691"
         inkscape:connector-curvature="0"
         sodipodi:nodetypes="ccccccccccc" />
      <path
         d="m 58,112.36218 0,-16.999997 9,0 0,2 -7,0 0,4.999997 6,0 0,2 -6,0 0,8 z"
         style="font-size:22.90272331px;fill:#333333"
         id="path3693"
         inkscape:connector-curvature="0"
         sodipodi:nodetypes="ccccccccccc" />
      <path
         d="m 68.255995,104.18406 c -10e-7,-2.79573 0.615062,-4.944723 1.84519,-6.446982 1.230123,-1.50223 2.762188,-2.253352 4.596201,-2.253369 1.185386,1.7e-5 2.266405,0.335506 3.243061,1.006468 0.976635,0.670993 1.750123,1.645774 2.320467,2.924346 0.570318,1.278597 0.855483,2.801347 0.855497,4.568247 -1.4e-5,2.43043 -0.551707,4.40982 -1.65508,5.93815 -1.215227,1.68491 -2.806935,2.52736 -4.775128,2.52736 -1.983119,0 -3.578554,-0.86482 -4.786311,-2.59445 -1.095933,-1.56562 -1.643898,-3.45554 -1.643897,-5.66977 z m 1.834007,0.0335 c -3e-6,2.0204 0.445452,3.58787 1.336365,4.70244 0.890905,1.11457 1.973788,1.67185 3.248653,1.67185 1.304671,0 2.398737,-0.56287 3.282202,-1.68863 0.883443,-1.12574 1.32517,-2.78082 1.325182,-4.96524 -1.2e-5,-1.40904 -0.227399,-2.66899 -0.682162,-3.77984 -0.35041,-0.849892 -0.877873,-1.530189 -1.58239,-2.040891 -0.704536,-0.510675 -1.474296,-0.766019 -2.309283,-0.766034 -1.341963,1.5e-5 -2.447212,0.559163 -3.315751,1.677446 -0.868547,1.118309 -1.302819,2.847939 -1.302816,5.188899 z"
         style="font-size:22.90272331px;fill:#333333"
         id="path3695"
         inkscape:connector-curvature="0"
         sodipodi:nodetypes="sscccccscsssssccccss" />
      <path
         d="m 82.883322,104.18406 c -1e-6,-2.79573 0.615062,-4.944723 1.84519,-6.446982 1.230123,-1.50223 2.762188,-2.253352 4.596201,-2.253369 1.185386,1.7e-5 2.266405,0.335506 3.243061,1.006468 0.976635,0.670993 1.750123,1.645774 2.320467,2.924346 0.570317,1.278597 0.855483,2.801347 0.855497,4.568247 -1.4e-5,2.43043 -0.551707,4.40982 -1.65508,5.93815 -1.215227,1.68491 -2.806935,2.52736 -4.775128,2.52736 -1.983119,0 -3.578555,-0.86482 -4.786312,-2.59445 -1.095932,-1.56562 -1.643897,-3.45554 -1.643896,-5.66977 z m 1.834007,0.0335 c -3e-6,2.0204 0.445452,3.58787 1.336365,4.70244 0.890905,1.11457 1.973788,1.67185 3.248653,1.67185 1.304671,0 2.398737,-0.56287 3.282202,-1.68863 0.883443,-1.12574 1.32517,-2.78082 1.325182,-4.96524 -1.2e-5,-1.40904 -0.227399,-2.66899 -0.682162,-3.77984 -0.35041,-0.849892 -0.877873,-1.530189 -1.58239,-2.040891 -0.704536,-0.510675 -1.474296,-0.766019 -2.309283,-0.766034 -1.341963,1.5e-5 -2.447212,0.559163 -3.315751,1.677446 -0.868547,1.118309 -1.302819,2.847939 -1.302816,5.188899 z"
         style="font-size:22.90272331px;fill:#333333"
         id="path3697"
         inkscape:connector-curvature="0"
         sodipodi:nodetypes="sscccccscsssssccccss" />
      <path
         d="m 98,112.36218 0,-16.999997 5,0 c 1.21266,1.6e-5 2.00501,0.174276 2.63497,0.382679 0.82682,0.270189 1.54339,0.719576 2.14974,1.437449 0.60633,0.717903 1.0788,1.622982 1.41741,2.715233 0.33859,1.092286 0.50789,2.387186 0.5079,3.884706 -1e-5,1.9221 -0.28743,3.55278 -0.86225,4.89207 -0.57485,1.33928 -1.31309,2.28875 -2.21471,2.8484 -0.90163,0.55964 -2.17628,0.83946 -3.63306,0.83946 z m 2,-2 3,0 c 1.22054,0 2.01682,-0.19791 2.64678,-0.58773 0.62996,-0.38982 1.11424,-1.01701 1.45285,-1.88157 0.44883,-1.15015 0.67326,-2.52803 0.67327,-4.13365 -1e-5,-1.72137 -0.23822,-3.07416 -0.71461,-4.058372 -0.47642,-0.984193 -1.08866,-1.642257 -1.83673,-1.974198 C 104.71759,97.502677 104.09454,97.362198 103,97.362183 l -3,0 z"
         style="font-size:22.90272331px;fill:#333333"
         id="path3699"
         inkscape:connector-curvature="0"
         sodipodi:nodetypes="ccccccccssccssccccccc" />
      <path
         d="m 118,112.36218 0.0757,-16.999997 9,0 0,2 -7,3.8e-5 0,4.999999 6,0 0,2 -6,0 0,7.99996 z"
         style="font-size:22.90272331px;fill:#333333"
         id="path3701"
         inkscape:connector-curvature="0"
         sodipodi:nodetypes="ccccccccccc" />
      <path
         d="m 128.07572,112.36218 5,-16.999997 2,0 5,16.999997 -2,0 -4,-14.999997 -4.04025,14.999997 z"
         style="font-size:22.90272331px;fill:#333333"
         id="path3703"
         inkscape:connector-curvature="0"
         sodipodi:nodetypes="cccccccc" />
      <path
         d="m 151.36137,106.42065 1.78927,0.54797 c -0.39514,1.84147 -1.08662,3.21511 -2.07444,4.12092 -0.98784,0.90583 -2.19001,1.35874 -3.60651,1.35874 -1.24504,0 -2.30929,-0.30381 -3.19273,-0.91142 -0.88346,-0.6076 -1.60663,-1.58238 -2.1695,-2.92434 -0.56288,-1.34195 -0.84432,-2.92621 -0.84432,-4.75277 0,-1.80417 0.28144,-3.33065 0.84432,-4.579422 0.56287,-1.248751 1.32518,-2.191847 2.28692,-2.829292 0.96173,-0.637413 2.03529,-0.956127 3.22069,-0.956144 1.29722,1.7e-5 2.41179,0.404467 3.34371,1.213353 0.9319,0.808916 1.58424,1.996173 1.95702,3.561775 l -1.74454,0.50323 c -0.59644,-2.281308 -1.79302,-3.42197 -3.58974,-3.421985 -0.89464,1.5e-5 -1.66999,0.229266 -2.32605,0.687753 -0.65608,0.458516 -1.17981,1.172361 -1.57121,2.141542 -0.39141,0.9692 -0.58711,2.1956 -0.58711,3.67919 0,2.24406 0.39513,3.92709 1.1854,5.04912 0.79026,1.12202 1.84145,1.68303 3.15359,1.68303 0.96919,0 1.80605,-0.3448 2.51058,-1.03442 0.70452,-0.68962 1.17607,-1.73522 1.41465,-3.13683 z"
         style="font-size:22.90272331px;fill:#333333"
         id="path3705"
         inkscape:connector-curvature="0"
         sodipodi:nodetypes="ccsscssscccccccsssssc" />
      <path
         d="m 159,112.36218 0,-14.999997 -5,0.0061 0,-2.006138 12,0 0,2 -5,0 0,14.999995 z"
         style="font-size:22.90272331px;fill:#333333"
         id="path3707"
         inkscape:connector-curvature="0"
         sodipodi:nodetypes="ccccccccc" />
      <path
         d="m 167.26826,106.90152 1.67745,-0.17893 c 0.0895,0.9021 0.29262,1.60476 0.60947,2.10799 0.31685,0.50324 0.76976,0.90769 1.35873,1.21336 0.58897,0.30567 1.25249,0.4585 1.99057,0.4585 1.05865,0 1.88059,-0.25907 2.46585,-0.77722 0.58523,-0.51814 0.87785,-1.19098 0.87786,-2.01852 -1e-5,-0.48459 -0.10625,-0.90768 -0.31872,-1.26927 -0.21248,-0.36158 -0.53306,-0.65793 -0.96173,-0.88905 -0.42869,-0.23111 -1.35501,-0.55541 -2.77897,-0.97292 -1.26741,-0.37275 -2.1695,-0.74925 -2.70628,-1.12948 -0.53678,-0.38021 -0.95428,-0.86294 -1.25249,-1.44819 -0.29822,-0.58523 -0.44732,-1.24689 -0.44732,-1.98498 0,-1.32703 0.42868,-2.411777 1.28604,-3.254242 0.85736,-0.842434 2.01293,-1.263659 3.46672,-1.263676 0.99901,1.7e-5 1.87314,0.197583 2.62241,0.592698 0.74925,0.395147 1.33076,0.96175 1.74454,1.699811 0.41376,0.73809 0.63556,1.606633 0.66539,2.605629 l -1.711,0.15656 c -0.0895,-1.066092 -0.40818,-1.856355 -0.95614,-2.370785 -0.54797,-0.514402 -1.31773,-0.77161 -2.30928,-0.771625 -1.00648,1.5e-5 -1.77437,0.225538 -2.30369,0.67657 -0.52934,0.45106 -0.794,1.034438 -0.794,1.750135 0,0.663535 0.19384,1.177955 0.58152,1.543245 0.38767,0.36533 1.25994,0.73436 2.61681,1.10712 1.32704,0.36532 2.25896,0.68217 2.79575,0.95055 0.82007,0.41751 1.43886,0.96734 1.85637,1.64949 0.41749,0.68217 0.62623,1.49666 0.62625,2.44348 -2e-5,0.93937 -0.21995,1.79487 -0.6598,2.56649 -0.43987,0.77163 -1.03816,1.35873 -1.79487,1.76132 -0.75672,0.40258 -1.66813,0.60388 -2.73423,0.60388 -1.66254,0 -2.98772,-0.49951 -3.97555,-1.49852 -0.98783,-0.99901 -1.50038,-2.35215 -1.53766,-4.05942 z"
         style="font-size:22.90272331px;fill:#333333"
         id="path3709"
         inkscape:connector-curvature="0" />
      <path
         sodipodi:nodetypes="ccccc"
         inkscape:connector-curvature="0"
         id="path3713"
         style="font-size:22.90272331px;fill:#333333"
         d="m 137.07572,105.36218 0,2 -6,0 0,-2 z" />
    </g>
    <rect
       id="rect3719"
       width="5"
       height="5"
       x="110"
       y="1.7187499e-008"
       style="fill:none"
       inkscape:export-filename="C:\Users\Stéphane\Desktop\Blogs\OpenFoodFacts\off-logo-en.712x575.png"
       inkscape:export-xdpi="360"
       inkscape:export-ydpi="360" />
    <rect
       inkscape:export-ydpi="360"
       inkscape:export-xdpi="360"
       inkscape:export-filename="C:\Users\Stéphane\Desktop\Blogs\OpenFoodFacts\off-logo-en.712x575.png"
       style="fill:none"
       y="1.7187499e-008"
       x="110"
       height="5"
       width="5"
       id="rect3723" />
    <rect
       style="fill:none"
       id="rect3725"
       width="1"
       height="1"
       x="1"
       y="140"
       inkscape:export-filename="C:\Users\Stéphane\Desktop\Blogs\OpenFoodFacts\off-logo-en.712x575.png"
       inkscape:export-xdpi="360"
       inkscape:export-ydpi="360" />
    <g
       style="font-style:normal;font-weight:normal;font-size:40px;line-height:125%;font-family:sans-serif;letter-spacing:0px;word-spacing:0px;fill:#000000;fill-opacity:1;stroke:none;stroke-width:1px;stroke-linecap:butt;stroke-linejoin:miter;stroke-opacity:1"
       id="text3700">
      <path
         d="m 2.9453106,131.8667 1.0107422,0 0,6.15234 -1.0107422,0 0,-6.15234 z m 0,-2.39502 1.0107422,0 0,1.27991 -1.0107422,0 0,-1.27991 z"
         style="font-size:11.25px"
         id="path3724" />
      <path
         d="m 11.179564,134.30566 0,3.71338 -1.010743,0 0,-3.68042 q 0,-0.87341 -0.3405758,-1.30737 -0.3405762,-0.43396 -1.0217286,-0.43396 -0.8184814,0 -1.2908935,0.52185 -0.4724121,0.52185 -0.4724121,1.42273 l 0,3.47717 -1.0162354,0 0,-6.15234 1.0162354,0 0,0.95581 q 0.3625488,-0.55481 0.8514404,-0.82947 0.4943848,-0.27466 1.137085,-0.27466 1.0601806,0 1.6040036,0.65918 0.543824,0.65369 0.543824,1.9281 z"
         style="font-size:11.25px"
         id="path3726" />
      <path
         d="m 16.321165,129.47168 0,0.84045 -0.966797,0 q -0.543823,0 -0.758056,0.21973 -0.208741,0.21973 -0.208741,0.79102 l 0,0.54382 1.664429,0 0,0.78552 -1.664429,0 0,5.36682 -1.016235,0 0,-5.36682 -0.966797,0 0,-0.78552 0.966797,0 0,-0.42847 q 0,-1.02722 0.477905,-1.49414 0.477906,-0.47241 1.516114,-0.47241 l 0.95581,0 z"
         style="font-size:11.25px"
         id="path3728" />
      <path
         d="m 19.567625,132.57532 q -0.812988,0 -1.2854,0.6372 -0.472412,0.63172 -0.472412,1.73584 0,1.10413 0.466918,1.74134 0.472413,0.63171 1.290894,0.63171 0.807495,0 1.279907,-0.63721 0.472412,-0.6372 0.472412,-1.73584 0,-1.09314 -0.472412,-1.73034 -0.472412,-0.6427 -1.279907,-0.6427 z m 0,-0.85694 q 1.318359,0 2.070923,0.85694 0.752563,0.85693 0.752563,2.37304 0,1.51062 -0.752563,2.37305 -0.752564,0.85693 -2.070923,0.85693 -1.323852,0 -2.076416,-0.85693 -0.74707,-0.86243 -0.74707,-2.37305 0,-1.51611 0.74707,-2.37304 0.752564,-0.85694 2.076416,-0.85694 z"
         style="font-size:11.25px"
         id="path3730" />
      <path
         d="m 27.626097,132.81152 q -0.170288,-0.0989 -0.373535,-0.14282 -0.197754,-0.0494 -0.439454,-0.0494 -0.856933,0 -1.318359,0.56031 -0.455933,0.5548 -0.455933,1.59851 l 0,3.24096 -1.016235,0 0,-6.15234 1.016235,0 0,0.95581 q 0.318604,-0.5603 0.829468,-0.82947 0.510864,-0.27466 1.241455,-0.27466 0.10437,0 0.230713,0.0165 0.126343,0.011 0.280152,0.0385 l 0.0055,1.0382 z"
         style="font-size:11.25px"
         id="path3732" />
      <path
         d="m 33.300535,133.04773 q 0.379029,-0.68115 0.906372,-1.00525 0.527344,-0.3241 1.241455,-0.3241 0.961304,0 1.483155,0.67566 0.52185,0.67017 0.52185,1.91162 l 0,3.71338 -1.016235,0 0,-3.68042 q 0,-0.8844 -0.31311,-1.31286 -0.313111,-0.42847 -0.955811,-0.42847 -0.785522,0 -1.241455,0.52185 -0.455933,0.52185 -0.455933,1.42273 l 0,3.47717 -1.016235,0 0,-3.68042 q 0,-0.88989 -0.31311,-1.31286 -0.313111,-0.42847 -0.966797,-0.42847 -0.774536,0 -1.230469,0.52734 -0.455933,0.52185 -0.455933,1.41724 l 0,3.47717 -1.016235,0 0,-6.15234 1.016235,0 0,0.95581 q 0.34607,-0.5658 0.829468,-0.83496 0.483399,-0.26917 1.148071,-0.26917 0.670166,0 1.137085,0.34058 0.472412,0.34058 0.697632,0.98877 z"
         style="font-size:11.25px"
         id="path3734" />
      <path
         d="m 42.259886,134.92639 q -1.224976,0 -1.697388,0.28015 -0.472412,0.28015 -0.472412,0.95581 0,0.53833 0.351562,0.85694 0.357056,0.31311 0.966797,0.31311 0.840454,0 1.345826,-0.59326 0.510864,-0.59876 0.510864,-1.58753 l 0,-0.22522 -1.005249,0 z m 2.015991,-0.41748 0,3.51013 -1.010742,0 0,-0.93383 q -0.34607,0.5603 -0.862427,0.82946 -0.516357,0.26367 -1.263428,0.26367 -0.944824,0 -1.505127,-0.52734 -0.554809,-0.53284 -0.554809,-1.42273 0,-1.03821 0.692138,-1.56555 0.697632,-0.52734 2.076416,-0.52734 l 1.417237,0 0,-0.0989 q 0,-0.69763 -0.461426,-1.07666 -0.455933,-0.38452 -1.2854,-0.38452 -0.527344,0 -1.027222,0.12634 -0.499878,0.12634 -0.961304,0.37903 l 0,-0.93384 q 0.55481,-0.21423 1.07666,-0.3186 0.521851,-0.10987 1.016236,-0.10987 1.334839,0 1.994018,0.69214 0.65918,0.69214 0.65918,2.09839 z"
         style="font-size:11.25px"
         id="path3736" />
      <path
         d="m 49.527342,137.96411 q -0.291138,0.0769 -0.637207,0.12634 -0.340576,0.0494 -0.609741,0.0494 -0.939331,0 -1.428223,-0.50537 -0.488892,-0.50537 -0.488892,-1.62048 l 0,-3.26294 -0.697631,0 0,-0.86792 0.697631,0 0,-1.76331 1.032715,0 0,1.76331 2.131348,0 0,0.86792 -2.131348,0 0,2.79602 q 0,0.4834 0.02197,0.75806 0.02197,0.26916 0.153808,0.50537 0.12085,0.21972 0.32959,0.32409 0.214234,0.0989 0.648194,0.0989 0.252685,0 0.527343,-0.0714 0.274659,-0.0769 0.395508,-0.12634 l 0.05493,0 0,0.92834 z m -1.186524,0.68665 -0.961303,1.69189 -0.802002,0 0.549316,-1.69189 1.213989,0 z"
         style="font-size:11.25px"
         id="path3738" />
      <path
         d="m 50.823729,131.8667 1.010742,0 0,6.15234 -1.010742,0 0,-6.15234 z m 0,-2.39502 1.010742,0 0,1.27991 -1.010742,0 0,-1.27991 z"
         style="font-size:11.25px"
         id="path3740" />
      <path
         d="m 59.206297,134.69019 0,0.49438 -4.647217,0 q 0.06592,1.0437 0.626221,1.59302 0.565796,0.54382 1.571045,0.54382 0.582275,0 1.126098,-0.14282 0.549317,-0.14282 1.087647,-0.42847 l 0,0.95581 q -0.543823,0.23072 -1.115112,0.35157 -0.57129,0.12084 -1.159058,0.12084 -1.472168,0 -2.334595,-0.85693 -0.856933,-0.85693 -0.856933,-2.31811 0,-1.51062 0.812988,-2.39502 0.818481,-0.8899 2.202759,-0.8899 1.241455,0 1.961059,0.80201 0.725098,0.7965 0.725098,2.1698 z m -1.010742,-0.29664 q -0.01099,-0.82946 -0.466919,-1.32385 -0.45044,-0.49438 -1.19751,-0.49438 -0.845947,0 -1.356812,0.4779 -0.505371,0.47791 -0.582275,1.34583 l 3.603516,-0.005 z"
         style="font-size:11.25px"
         id="path3742" />
      <path
         d="m 67.220823,134.92639 q -1.224975,0 -1.697387,0.28015 -0.472413,0.28015 -0.472413,0.95581 0,0.53833 0.351563,0.85694 0.357056,0.31311 0.966797,0.31311 0.840454,0 1.345825,-0.59326 0.510864,-0.59876 0.510864,-1.58753 l 0,-0.22522 -1.005249,0 z m 2.015991,-0.41748 0,3.51013 -1.010742,0 0,-0.93383 q -0.346069,0.5603 -0.862426,0.82946 -0.516358,0.26367 -1.263428,0.26367 -0.944824,0 -1.505127,-0.52734 -0.55481,-0.53284 -0.55481,-1.42273 0,-1.03821 0.692139,-1.56555 0.697632,-0.52734 2.076416,-0.52734 l 1.417236,0 0,-0.0989 q 0,-0.69763 -0.461425,-1.07666 -0.455933,-0.38452 -1.285401,-0.38452 -0.527344,0 -1.027222,0.12634 -0.499877,0.12634 -0.961303,0.37903 l 0,-0.93384 q 0.554809,-0.21423 1.07666,-0.3186 0.52185,-0.10987 1.016235,-0.10987 1.334839,0 1.994019,0.69214 0.659179,0.69214 0.659179,2.09839 z"
         style="font-size:11.25px"
         id="path3744" />
      <path
         d="m 71.346189,129.47168 1.010743,0 0,8.54736 -1.010743,0 0,-8.54736 z"
         style="font-size:11.25px"
         id="path3746" />
      <path
         d="m 74.466307,131.8667 1.010742,0 0,6.15234 -1.010742,0 0,-6.15234 z m 0,-2.39502 1.010742,0 0,1.27991 -1.010742,0 0,-1.27991 z"
         style="font-size:11.25px"
         id="path3748" />
      <path
         d="m 82.376463,133.04773 q 0.379028,-0.68115 0.906372,-1.00525 0.527344,-0.3241 1.241455,-0.3241 0.961304,0 1.483154,0.67566 0.521851,0.67017 0.521851,1.91162 l 0,3.71338 -1.016235,0 0,-3.68042 q 0,-0.8844 -0.313111,-1.31286 -0.31311,-0.42847 -0.95581,-0.42847 -0.785523,0 -1.241455,0.52185 -0.455933,0.52185 -0.455933,1.42273 l 0,3.47717 -1.016235,0 0,-3.68042 q 0,-0.88989 -0.313111,-1.31286 -0.31311,-0.42847 -0.966797,-0.42847 -0.774536,0 -1.230468,0.52734 -0.455933,0.52185 -0.455933,1.41724 l 0,3.47717 -1.016235,0 0,-6.15234 1.016235,0 0,0.95581 q 0.346069,-0.5658 0.829468,-0.83496 0.483398,-0.26917 1.148071,-0.26917 0.670166,0 1.137085,0.34058 0.472412,0.34058 0.697632,0.98877 z"
         style="font-size:11.25px"
         id="path3750" />
      <path
         d="m 93.791258,134.69019 0,0.49438 -4.647217,0 q 0.06592,1.0437 0.626221,1.59302 0.565796,0.54382 1.571045,0.54382 0.582275,0 1.126098,-0.14282 0.549317,-0.14282 1.087647,-0.42847 l 0,0.95581 q -0.543823,0.23072 -1.115113,0.35157 -0.571289,0.12084 -1.159057,0.12084 -1.472168,0 -2.334595,-0.85693 -0.856933,-0.85693 -0.856933,-2.31811 0,-1.51062 0.812988,-2.39502 0.818481,-0.8899 2.202759,-0.8899 1.241455,0 1.961059,0.80201 0.725098,0.7965 0.725098,2.1698 z m -1.010742,-0.29664 q -0.01099,-0.82946 -0.466919,-1.32385 -0.45044,-0.49438 -1.19751,-0.49438 -0.845947,0 -1.356812,0.4779 -0.505371,0.47791 -0.582275,1.34583 l 3.603516,-0.005 z"
         style="font-size:11.25px"
         id="path3752" />
      <path
         d="m 100.54236,134.30566 0,3.71338 -1.010746,0 0,-3.68042 q 0,-0.87341 -0.340576,-1.30737 -0.340576,-0.43396 -1.021728,-0.43396 -0.818482,0 -1.290894,0.52185 -0.472412,0.52185 -0.472412,1.42273 l 0,3.47717 -1.016235,0 0,-6.15234 1.016235,0 0,0.95581 q 0.362549,-0.55481 0.85144,-0.82947 0.494385,-0.27466 1.137085,-0.27466 1.060181,0 1.604004,0.65918 0.543827,0.65369 0.543827,1.9281 z"
         style="font-size:11.25px"
         id="path3754" />
      <path
         d="m 103.56909,130.11987 0,1.74683 2.08191,0 0,0.78552 -2.08191,0 0,3.33985 q 0,0.75256 0.20325,0.96679 0.20874,0.21424 0.84045,0.21424 l 1.03821,0 0,0.84594 -1.03821,0 q -1.17004,0 -1.61499,-0.43396 -0.44495,-0.43945 -0.44495,-1.59301 l 0,-3.33985 -0.74157,0 0,-0.78552 0.74157,0 0,-1.74683 1.01624,0 z"
         style="font-size:11.25px"
         id="path3756" />
      <path
         d="m 109.78186,134.92639 q -1.22498,0 -1.69739,0.28015 -0.47241,0.28015 -0.47241,0.95581 0,0.53833 0.35156,0.85694 0.35706,0.31311 0.9668,0.31311 0.84045,0 1.34582,-0.59326 0.51087,-0.59876 0.51087,-1.58753 l 0,-0.22522 -1.00525,0 z m 2.01599,-0.41748 0,3.51013 -1.01074,0 0,-0.93383 q -0.34607,0.5603 -0.86243,0.82946 -0.51636,0.26367 -1.26343,0.26367 -0.94482,0 -1.50512,-0.52734 -0.55481,-0.53284 -0.55481,-1.42273 0,-1.03821 0.69214,-1.56555 0.69763,-0.52734 2.07641,-0.52734 l 1.41724,0 0,-0.0989 q 0,-0.69763 -0.46143,-1.07666 -0.45593,-0.38452 -1.2854,-0.38452 -0.52734,0 -1.02722,0.12634 -0.49988,0.12634 -0.9613,0.37903 l 0,-0.93384 q 0.55481,-0.21423 1.07666,-0.3186 0.52185,-0.10987 1.01623,-0.10987 1.33484,0 1.99402,0.69214 0.65918,0.69214 0.65918,2.09839 z"
         style="font-size:11.25px"
         id="path3758" />
      <path
         d="m 117.47229,132.81152 q -0.17029,-0.0989 -0.37354,-0.14282 -0.19775,-0.0494 -0.43945,-0.0494 -0.85693,0 -1.31836,0.56031 -0.45593,0.5548 -0.45593,1.59851 l 0,3.24096 -1.01624,0 0,-6.15234 1.01624,0 0,0.95581 q 0.3186,-0.5603 0.82947,-0.82947 0.51086,-0.27466 1.24145,-0.27466 0.10437,0 0.23071,0.0165 0.12635,0.011 0.28015,0.0385 l 0.005,1.0382 z"
         style="font-size:11.25px"
         id="path3760" />
      <path
         d="m 123.26758,138.01904 -1.02723,0 0,-0.65368 q -0.13732,0.0934 -0.37353,0.26367 -0.23071,0.16479 -0.45044,0.26367 -0.25818,0.12634 -0.59326,0.20874 -0.33508,0.0879 -0.78552,0.0879 -0.82947,0 -1.40625,-0.54932 -0.57679,-0.54931 -0.57679,-1.40075 0,-0.69763 0.29663,-1.1261 0.30213,-0.43396 0.85694,-0.68115 0.5603,-0.2472 1.34582,-0.33509 0.78553,-0.0879 1.6864,-0.13183 l 0,-0.1593 q 0,-0.35157 -0.12634,-0.58228 -0.12085,-0.23071 -0.35156,-0.36255 -0.21973,-0.12634 -0.52734,-0.17029 -0.30762,-0.0439 -0.6427,-0.0439 -0.4065,0 -0.90638,0.10986 -0.49987,0.10437 -1.03271,0.30762 l -0.0549,0 0,-1.0492 q 0.30212,-0.0824 0.87341,-0.18127 0.57129,-0.0989 1.1261,-0.0989 0.64819,0 1.1261,0.10987 0.4834,0.10437 0.83496,0.36255 0.34607,0.25268 0.52734,0.65368 0.18128,0.401 0.18128,0.99426 l 0,4.16382 z m -1.02723,-1.51062 0,-1.70837 q -0.47241,0.0275 -1.11511,0.0824 -0.6372,0.0549 -1.01074,0.1593 -0.44495,0.12634 -0.7196,0.39551 -0.27466,0.26367 -0.27466,0.73059 0,0.52734 0.3186,0.79651 0.3186,0.26367 0.97229,0.26367 0.54382,0 0.99426,-0.20874 0.45044,-0.21424 0.83496,-0.51087 z m 0.6482,-7.69592 q -0.0549,0.92285 -0.59876,1.51062 -0.53833,0.58777 -1.46667,0.58777 -0.92835,0 -1.47217,-0.58777 -0.53833,-0.58777 -0.58777,-1.51062 l 0.91187,0 q 0.0659,0.7251 0.35705,1.05469 0.29663,0.32959 0.79651,0.32959 0.48889,0 0.78003,-0.32959 0.29663,-0.32959 0.37354,-1.05469 l 0.90637,0 z"
         style="font-size:11.25px"
         id="path3762" />
      <path
         d="m 133.2926,132.80054 0,-3.32886 1.01074,0 0,8.54736 -1.01074,0 0,-0.92285 q -0.3186,0.54932 -0.80749,0.81848 -0.4834,0.26367 -1.16456,0.26367 -1.11511,0 -1.81823,-0.88989 -0.69763,-0.88989 -0.69763,-2.34009 0,-1.45019 0.69763,-2.34008 0.70312,-0.8899 1.81823,-0.8899 0.68116,0 1.16456,0.26917 0.48889,0.26367 0.80749,0.81299 z m -3.44421,2.14782 q 0,1.11512 0.45593,1.75232 0.46143,0.63172 1.26343,0.63172 0.802,0 1.26342,-0.63172 0.46143,-0.6372 0.46143,-1.75232 0,-1.11511 -0.46143,-1.74682 -0.46142,-0.63721 -1.26342,-0.63721 -0.802,0 -1.26343,0.63721 -0.45593,0.63171 -0.45593,1.74682 z"
         style="font-size:11.25px"
         id="path3764" />
      <path
         d="m 141.6477,134.69019 0,0.49438 -4.64721,0 q 0.0659,1.0437 0.62622,1.59302 0.56579,0.54382 1.57104,0.54382 0.58228,0 1.1261,-0.14282 0.54932,-0.14282 1.08765,-0.42847 l 0,0.95581 q -0.54383,0.23072 -1.11512,0.35157 -0.57128,0.12084 -1.15905,0.12084 -1.47217,0 -2.3346,-0.85693 -0.85693,-0.85693 -0.85693,-2.31811 0,-1.51062 0.81299,-2.39502 0.81848,-0.8899 2.20276,-0.8899 1.24145,0 1.96106,0.80201 0.72509,0.7965 0.72509,2.1698 z m -1.01074,-0.29664 q -0.011,-0.82946 -0.46692,-1.32385 -0.45044,-0.49438 -1.19751,-0.49438 -0.84594,0 -1.35681,0.4779 -0.50537,0.47791 -0.58227,1.34583 l 3.60351,-0.005 z"
         style="font-size:11.25px"
         id="path3766" />
      <path
         d="m 147.20679,132.04797 0,0.95581 q -0.42847,-0.21972 -0.8899,-0.32959 -0.46142,-0.10986 -0.95581,-0.10986 -0.75256,0 -1.13159,0.23071 -0.37353,0.23072 -0.37353,0.69214 0,0.35157 0.26916,0.55481 0.26917,0.19776 1.08215,0.37903 l 0.34607,0.0769 q 1.07666,0.23072 1.5271,0.65369 0.45594,0.41748 0.45594,1.17005 0,0.85693 -0.68116,1.35681 -0.67566,0.49987 -1.86218,0.49987 -0.49438,0 -1.03271,-0.0989 -0.53284,-0.0934 -1.1261,-0.28565 l 0,-1.0437 q 0.5603,0.29114 1.10412,0.43946 0.54383,0.14282 1.07666,0.14282 0.71411,0 1.09864,-0.2417 0.38452,-0.24719 0.38452,-0.69214 0,-0.41199 -0.28015,-0.63171 -0.27466,-0.21973 -1.21399,-0.42298 l -0.35157,-0.0824 q -0.93933,-0.19775 -1.35681,-0.60424 -0.41748,-0.41199 -0.41748,-1.1261 0,-0.86792 0.61524,-1.34033 0.61523,-0.47242 1.74682,-0.47242 0.56031,0 1.05469,0.0824 0.49438,0.0824 0.91187,0.24719 z"
         style="font-size:11.25px"
         id="path3768" />
      <path
         d="m 153.57886,132.10291 0,0.94482 q -0.42847,-0.23621 -0.86243,-0.35156 -0.42847,-0.12085 -0.86792,-0.12085 -0.98328,0 -1.5271,0.62622 -0.54382,0.62073 -0.54382,1.74682 0,1.1261 0.54382,1.75232 0.54382,0.62073 1.5271,0.62073 0.43945,0 0.86792,-0.11536 0.43396,-0.12084 0.86243,-0.35705 l 0,0.93384 q -0.42298,0.19775 -0.87891,0.29663 -0.45044,0.0989 -0.9613,0.0989 -1.38977,0 -2.20826,-0.87341 -0.81848,-0.87341 -0.81848,-2.35657 0,-1.50512 0.82398,-2.36755 0.82946,-0.86243 2.26867,-0.86243 0.46692,0 0.91187,0.0989 0.44495,0.0934 0.86243,0.28565 z"
         style="font-size:11.25px"
         id="path3770" />
      <path
         d="m 160.43982,134.30566 0,3.71338 -1.01074,0 0,-3.68042 q 0,-0.87341 -0.34058,-1.30737 -0.34058,-0.43396 -1.02173,-0.43396 -0.81848,0 -1.29089,0.52185 -0.47242,0.52185 -0.47242,1.42273 l 0,3.47717 -1.01623,0 0,-8.54736 1.01623,0 0,3.35083 q 0.36255,-0.55481 0.85145,-0.82947 0.49438,-0.27466 1.13708,-0.27466 1.06018,0 1.604,0.65918 0.54383,0.65369 0.54383,1.9281 z"
         style="font-size:11.25px"
         id="path3772" />
      <path
         d="m 162.46679,131.8667 1.01075,0 0,6.15234 -1.01075,0 0,-6.15234 z m 0,-2.39502 1.01075,0 0,1.27991 -1.01075,0 0,-1.27991 z"
         style="font-size:11.25px"
         id="path3774" />
      <path
         d="m 169.50903,132.04797 0,0.95581 q -0.42847,-0.21972 -0.88989,-0.32959 -0.46143,-0.10986 -0.95581,-0.10986 -0.75257,0 -1.13159,0.23071 -0.37354,0.23072 -0.37354,0.69214 0,0.35157 0.26917,0.55481 0.26916,0.19776 1.08215,0.37903 l 0.34607,0.0769 q 1.07666,0.23072 1.5271,0.65369 0.45593,0.41748 0.45593,1.17005 0,0.85693 -0.68115,1.35681 -0.67566,0.49987 -1.86218,0.49987 -0.49439,0 -1.03272,-0.0989 -0.53284,-0.0934 -1.1261,-0.28565 l 0,-1.0437 q 0.56031,0.29114 1.10413,0.43946 0.54382,0.14282 1.07666,0.14282 0.71411,0 1.09863,-0.2417 0.38452,-0.24719 0.38452,-0.69214 0,-0.41199 -0.28015,-0.63171 -0.27466,-0.21973 -1.21399,-0.42298 l -0.35156,-0.0824 q -0.93933,-0.19775 -1.35681,-0.60424 -0.41748,-0.41199 -0.41748,-1.1261 0,-0.86792 0.61523,-1.34033 0.61524,-0.47242 1.74683,-0.47242 0.5603,0 1.05469,0.0824 0.49438,0.0824 0.91186,0.24719 z"
         style="font-size:11.25px"
         id="path3776" />
      <path
         d="m 176.17773,138.01904 -1.02722,0 0,-0.65368 q -0.13733,0.0934 -0.37353,0.26367 -0.23072,0.16479 -0.45044,0.26367 -0.25818,0.12634 -0.59327,0.20874 -0.33508,0.0879 -0.78552,0.0879 -0.82947,0 -1.40625,-0.54932 -0.57678,-0.54931 -0.57678,-1.40075 0,-0.69763 0.29663,-1.1261 0.30212,-0.43396 0.85693,-0.68115 0.56031,-0.2472 1.34583,-0.33509 0.78552,-0.0879 1.6864,-0.13183 l 0,-0.1593 q 0,-0.35157 -0.12634,-0.58228 -0.12085,-0.23071 -0.35156,-0.36255 -0.21973,-0.12634 -0.52735,-0.17029 -0.30762,-0.0439 -0.6427,-0.0439 -0.40649,0 -0.90637,0.10986 -0.49988,0.10437 -1.03272,0.30762 l -0.0549,0 0,-1.0492 q 0.30213,-0.0824 0.87342,-0.18127 0.57129,-0.0989 1.12609,-0.0989 0.6482,0 1.1261,0.10987 0.4834,0.10437 0.83496,0.36255 0.34607,0.25268 0.52735,0.65368 0.18127,0.401 0.18127,0.99426 l 0,4.16382 z m -1.02722,-1.51062 0,-1.70837 q -0.47241,0.0275 -1.11511,0.0824 -0.63721,0.0549 -1.01074,0.1593 -0.44495,0.12634 -0.71961,0.39551 -0.27466,0.26367 -0.27466,0.73059 0,0.52734 0.31861,0.79651 0.3186,0.26367 0.97229,0.26367 0.54382,0 0.99426,-0.20874 0.45044,-0.21424 0.83496,-0.51087 z m 0.64819,-7.69592 q -0.0549,0.92285 -0.59875,1.51062 -0.53833,0.58777 -1.46668,0.58777 -0.92834,0 -1.47216,-0.58777 -0.53833,-0.58777 -0.58777,-1.51062 l 0.91186,0 q 0.0659,0.7251 0.35706,1.05469 0.29663,0.32959 0.79651,0.32959 0.48889,0 0.78003,-0.32959 0.29663,-0.32959 0.37353,-1.05469 l 0.90637,0 z"
         style="font-size:11.25px"
         id="path3778" />
    </g>
  </g>
</svg>
