<svg xmlns="http://www.w3.org/2000/svg" width="178" height="150"><path d="M170 26v6.411c1.196.444 2.214 1.06 3 1.761V26zm4 0v8.312l1-.839V26zm2 0v6.607l1-.979v11.77l-1-1.007V95h2V26zm-2 14.686V95h1V41.525zm-1 .14c-.786.702-1.796 1.313-3 1.76V95h3z" fill="#06f"/><path d="M154 26v69h3V41.19c-1.324-1.016-2.125-2.272-2.125-3.663 0-1.39.801-2.675 2.125-3.69V26zm4 0v7.194c1.126-.643 2.47-1.129 4-1.398V26zm5 0v5.628c.33-.036.66-.04 1-.056V26h-1zm2 0v5.544c.683.009 1.358.081 2 .168V26zm-7 15.86V95h4V43.23c-1.587-.269-2.875-.728-4-1.37zm9 1.482a16.62 16.62 0 0 1-2 .14V95h2zm-4 .056V95h1V43.454c-.34-.017-.67-.02-1-.056z" fill="#0cf"/><path d="M150 26v69h1V26zm-4 0v69h3V26zm-3 0v69h2V26zm-2 0v69h1V26zm-6-2v71h3V26zm-3 2v69h2V26zm-3 0v69h2V26zm-4 0v69h1V26zm-4 0v69h1V26zm-5 0v69h2V26zm-4 0v69h1V26zm-2 0v69h1V26zm-2 0v69h1V26zm-5 0v69h2V26zm-4 0v69h1V26zm-4 0l.017 69H96l-.017-69z" fill="#00d400"/><path d="M90 21v74h2V21zm-2 5v69h1V26zm-3-16v85h2V10zm-4 16v69h3V26zm-4 0v69h1V26zm-3-6v75h2V20zm-4 6v69h3V26zm-4 0v69h1V26zm-2 0v69h1V26zm-5 0l.026 69H61l-.027-69zm-4-11v80h1V15zm-3 11v69h2V26zm-6 0v69h3V26zm-2 0v69h1V26zm-4 0v69h1V26zm-3 0v69h2V26z" fill="#fc0"/><path d="M33 20v75h1V20zm-3-1v76h2V19zm-4 7v69h3V26zm-4 0v69h3V26zm-3-6v75h2V20zm-4 1v74h3V21zm-4 5v69h1V26zm-3 0v69h1V26zm-5 0v69h1V26zm-3 0v69h2V26z" fill="red"/><path d="M12.96 20.168c.63-.816.72-2.676 1.282-4.359.405-1.213.463-4.597 1.208-4.882.969-.371 3.17-.358 4.224-.417 2.3-.128 4.52 1.099 6.823 1.101 2.99.004 8.861-1.41 8.861-1.41l-.14-2.04 1.505.279 4.077-.517-3.008 1.386s1.202-.02 1.688.277c.705.432.96 1.347 1.469 2 .292.373 1.082.654.908 1.095-.47 1.19-3.809.486-3.809.486L36.13 14.97c-.833 1.78-2.262 3.262-2.254 6.722 0 0-6.007-.923-8.991-.796-1.764.074-4.97.618-4.97.618-1.608-.137-3.296-.53-4.904-.25.01-6.235.866-6.128.698-9.294-.439 1.68-.97 4.516-1.026 5.772-.535 1.526-.012 1.9-1.723 2.426z" fill="red"/><g transform="rotate(-37.635 30.68 -53.687) scale(.01879)" fill="#fc0"><ellipse ry="32.857" rx="65.714" cy="762.362" cx="567.143" transform="rotate(-54.359 554.927 858.045)"/><path d="M494.286 741.648s14.409-2.316 20.714-5.714c22.088-11.904 53.571-52.858 53.571-52.858s-33.141 43.14-40 65c-2.071 6.604-1.428 20.715-1.428 20.715z"/></g><g fill="#fc0"><g transform="translate(47.682 5.652) scale(.0188)"><ellipse ry="32.857" rx="65.714" cy="762.362" cx="567.143" transform="rotate(-54.359 554.927 858.045)"/><path d="M494.286 741.648s14.409-2.316 20.714-5.714c22.088-11.904 53.571-52.858 53.571-52.858s-33.141 43.14-40 65c-2.071 6.604-1.428 20.715-1.428 20.715z"/></g><g transform="translate(47.682 7.444) scale(.0188)"><ellipse ry="32.857" rx="65.714" cy="762.362" cx="567.143" transform="rotate(-54.359 554.927 858.045)"/><path d="M494.286 741.648s14.409-2.316 20.714-5.714c22.088-11.904 53.571-52.858 53.571-52.858s-33.141 43.14-40 65c-2.071 6.604-1.428 20.715-1.428 20.715z"/></g><g transform="translate(47.682 3.86) scale(.0188)"><ellipse ry="32.857" rx="65.714" cy="762.362" cx="567.143" transform="rotate(-54.359 554.927 858.045)"/><path d="M494.286 741.648s14.409-2.316 20.714-5.714c22.088-11.904 53.571-52.858 53.571-52.858s-33.141 43.14-40 65c-2.071 6.604-1.428 20.715-1.428 20.715z"/></g><g transform="translate(47.682 2.068) scale(.0188)"><ellipse ry="32.857" rx="65.714" cy="762.362" cx="567.143" transform="rotate(-54.359 554.927 858.045)"/><path d="M494.286 741.648s14.409-2.316 20.714-5.714c22.088-11.904 53.571-52.858 53.571-52.858s-33.141 43.14-40 65c-2.071 6.604-1.428 20.715-1.428 20.715z"/></g><g transform="rotate(-10.644 34.013 -239.594) scale(.01879)"><ellipse ry="32.857" rx="65.714" cy="762.362" cx="567.143" transform="rotate(-54.359 554.927 858.045)"/><path d="M494.286 741.648s14.409-2.316 20.714-5.714c22.088-11.904 53.571-52.858 53.571-52.858s-33.141 43.14-40 65c-2.071 6.604-1.428 20.715-1.428 20.715z"/></g><g transform="matrix(-.0188 0 0 .0188 63.268 5.652)"><ellipse ry="32.857" rx="65.714" cy="762.362" cx="567.143" transform="rotate(-54.359 554.927 858.045)"/><path d="M494.286 741.648s14.409-2.316 20.714-5.714c22.088-11.904 53.571-52.858 53.571-52.858s-33.141 43.14-40 65c-2.071 6.604-1.428 20.715-1.428 20.715z"/></g><g transform="matrix(-.0188 0 0 .0188 63.268 7.444)"><ellipse ry="32.857" rx="65.714" cy="762.362" cx="567.143" transform="rotate(-54.359 554.927 858.045)"/><path d="M494.286 741.648s14.409-2.316 20.714-5.714c22.088-11.904 53.571-52.858 53.571-52.858s-33.141 43.14-40 65c-2.071 6.604-1.428 20.715-1.428 20.715z"/></g><g transform="matrix(-.0188 0 0 .0188 63.268 3.86)"><ellipse ry="32.857" rx="65.714" cy="762.362" cx="567.143" transform="rotate(-54.359 554.927 858.045)"/><path d="M494.286 741.648s14.409-2.316 20.714-5.714c22.088-11.904 53.571-52.858 53.571-52.858s-33.141 43.14-40 65c-2.071 6.604-1.428 20.715-1.428 20.715z"/></g><g transform="matrix(-.0188 0 0 .0188 63.268 2.068)"><ellipse ry="32.857" rx="65.714" cy="762.362" cx="567.143" transform="rotate(-54.359 554.927 858.045)"/><path d="M494.286 741.648s14.409-2.316 20.714-5.714c22.088-11.904 53.571-52.858 53.571-52.858s-33.141 43.14-40 65c-2.071 6.604-1.428 20.715-1.428 20.715z"/></g><g transform="matrix(-.01847 -.00348 -.00348 .01847 65.983 2.178)"><ellipse ry="32.857" rx="65.714" cy="762.362" cx="567.143" transform="rotate(-54.359 554.927 858.045)"/><path d="M494.286 741.648s14.409-2.316 20.714-5.714c22.088-11.904 53.571-52.858 53.571-52.858s-33.141 43.14-40 65c-2.071 6.604-1.428 20.715-1.428 20.715z"/></g></g><g transform="rotate(-48.948 -310.85 675.412) scale(.73933)" fill="#fc0"><circle r="2.5" cy="732.362" cx="608" transform="translate(1.5 9.75)"/><circle r="2.5" cy="732.362" cx="608" transform="rotate(-72 612.96 733.705)"/><circle r="2.5" cy="732.362" cx="608" transform="rotate(-144 607.834 734.494)"/><circle r="2.5" cy="732.362" cx="608" transform="rotate(144 604.666 734.98)"/><circle r="2.5" cy="732.362" cx="608" transform="rotate(72 599.54 735.77)"/></g><g transform="matrix(-.64917 -.35383 .35383 -.64917 218.165 702.908)" fill="#fc0"><circle r="2.5" cy="732.362" cx="608" transform="translate(1.5 9.75)"/><circle r="2.5" cy="732.362" cx="608" transform="rotate(-72 612.96 733.705)"/><circle r="2.5" cy="732.362" cx="608" transform="rotate(-144 607.834 734.494)"/><circle r="2.5" cy="732.362" cx="608" transform="rotate(144 604.666 734.98)"/><circle r="2.5" cy="732.362" cx="608" transform="rotate(72 599.54 735.77)"/></g><g transform="matrix(.3145 -.6691 .6691 .3145 -610.582 190.809)" fill="#fc0"><circle r="2.5" cy="732.362" cx="608" transform="translate(1.5 9.75)"/><circle r="2.5" cy="732.362" cx="608" transform="rotate(-72 612.96 733.705)"/><circle r="2.5" cy="732.362" cx="608" transform="rotate(-144 607.834 734.494)"/><circle r="2.5" cy="732.362" cx="608" transform="rotate(144 604.666 734.98)"/><circle r="2.5" cy="732.362" cx="608" transform="rotate(72 599.54 735.77)"/></g><path d="M122.447 6.337c9.189.95 12.63 8.43 12.553 21.663l2.964-1.399c0-1.462-.026-1.249-.026-2.71 0-10.868-6.404-17.276-10.911-18.344z" fill="#00d400"/><path d="M109.295 21.713c8.936-2.556 20.004-3.048 18.061-16.131-17.114-8.055-11.346 7.067-18.06 16.13z" fill="#00d400"/><path d="M128.43 4.225c-4.446 6.14-14.13 15.176-20.084 17.87 5.978-2.223 17.58-11.33 20.084-17.87z" fill="#fff"/><path d="M154.928 21.605c-8.784-3.034-19.81-4.123-17.165-17.082 18.215-5.51 10.95 7.669 17.165 17.082z" fill="#00d400"/><path d="M136.764 3.11c4.109 6.371 13.292 15.916 19.091 18.927-5.848-2.542-16.943-12.26-19.09-18.927z" fill="#fff"/><path d="M137.878 4.604C135.885 6.169 135.077 14.768 135 28l2.964-1.399c0-1.462.036 1.86.036.399 0-10.867.859-19.322 1.215-21.118z" fill="#00d400"/><circle r=".949" cy="35.276" cx="159.092" fill="#0cf"/><path d="M170 118v5h8v-5h-8z" fill="#06f"/><path d="M154 118v5h13v-5h-13z" fill="#0cf"/><path d="M95 118v5h56v-5H95z" fill="#00d400"/><path d="M37 118v5h55v-5H37z" fill="#fc0"/><path d="M0 118v5h34v-5H0z" fill="red"/><g style="line-height:125%;-inkscape-font-specification:'Arial Narrow'" font-weight="400" font-size="22.903" font-family="Arial Narrow" letter-spacing="0" word-spacing="0" fill="#333"><path d="M.295 106.822c0-2.796.615-4.945 1.846-6.447 1.23-1.502 2.762-2.253 4.596-2.253 1.185 0 2.266.335 3.243 1.006.976.671 1.75 1.646 2.32 2.924.57 1.279.856 2.802.856 4.569 0 2.43-.552 4.41-1.655 5.938-1.216 1.685-2.807 2.527-4.775 2.527-1.984 0-3.579-.865-4.787-2.594-1.096-1.566-1.644-3.456-1.644-5.67zm1.834.033c0 2.02.446 3.588 1.337 4.703.89 1.114 1.973 1.672 3.248 1.672 1.305 0 2.4-.563 3.283-1.689.883-1.126 1.325-2.78 1.325-4.965 0-1.41-.228-2.67-.682-3.78-.35-.85-.878-1.53-1.583-2.04a3.842 3.842 0 0 0-2.31-.767c-1.341 0-2.446.56-3.315 1.678-.868 1.118-1.303 2.847-1.303 5.188zM15 115V98h4.675c1.224 0 2.127.107 2.708.321.796.291 1.431.83 1.905 1.619.475.788.712 1.755.712 2.903 0 1.515-.386 2.75-1.16 3.707-.772.956-2.107 1.424-4.004 1.435L17 108v7zm2-9h2.87c1.125-.001 1.947-.255 2.467-.764s.78-1.276.78-2.301c0-.666-.127-1.236-.384-1.71-.256-.474-.566-.8-.93-.976-.363-.176-1.019-.264-1.967-.264L17 100zm10 9V98h10v2h-8v5h7v2h-7v6h8v2zm12 0V98h2l7 13V98h2v17h-2l-7-13v13zm19 0V98h9v2h-7v5h6v2h-6v8zm10.256-8.178c0-2.796.615-4.945 1.845-6.447 1.23-1.502 2.762-2.253 4.596-2.253 1.186 0 2.267.335 3.243 1.006.977.671 1.75 1.646 2.32 2.924.571 1.279.856 2.802.856 4.569 0 2.43-.551 4.41-1.655 5.938-1.215 1.685-2.807 2.527-4.775 2.527-1.983 0-3.578-.865-4.786-2.594-1.096-1.566-1.644-3.456-1.644-5.67zm1.834.033c0 2.02.445 3.588 1.336 4.703.891 1.114 1.974 1.672 3.249 1.672 1.305 0 2.399-.563 3.282-1.689.884-1.126 1.325-2.78 1.325-4.965 0-1.41-.227-2.67-.682-3.78-.35-.85-.878-1.53-1.582-2.04-.705-.512-1.474-.767-2.31-.767-1.341 0-2.447.56-3.315 1.677-.869 1.119-1.303 2.848-1.303 5.19zm12.793-.033c0-2.796.615-4.945 1.846-6.447 1.23-1.502 2.762-2.253 4.596-2.253 1.185 0 2.266.335 3.243 1.006.976.671 1.75 1.646 2.32 2.924.57 1.279.856 2.802.856 4.569 0 2.43-.552 4.41-1.655 5.938-1.216 1.685-2.807 2.527-4.775 2.527-1.984 0-3.579-.865-4.787-2.594-1.096-1.566-1.644-3.456-1.644-5.67zm1.834.033c0 2.02.446 3.588 1.337 4.703.89 1.114 1.973 1.672 3.248 1.672 1.305 0 2.4-.563 3.283-1.689.883-1.126 1.325-2.78 1.325-4.965 0-1.41-.228-2.67-.682-3.78-.35-.85-.878-1.53-1.583-2.04a3.842 3.842 0 0 0-2.31-.767c-1.341 0-2.446.56-3.315 1.677-.868 1.119-1.303 2.848-1.303 5.19zM98 115V98h5c1.213 0 2.005.174 2.635.383.827.27 1.543.72 2.15 1.437.606.718 1.079 1.623 1.417 2.715.339 1.093.508 2.388.508 3.885 0 1.922-.287 3.553-.862 4.892-.575 1.34-1.313 2.289-2.215 2.849-.902.56-2.176.839-3.633.839zm2-2h3c1.22 0 2.017-.198 2.647-.588.63-.39 1.114-1.017 1.453-1.881.448-1.15.673-2.528.673-4.134 0-1.721-.238-3.074-.715-4.058-.476-.985-1.088-1.643-1.836-1.975-.504-.224-1.127-.364-2.222-.364h-3zm18 2l.076-17h9v2h-7v5h6v2h-6v8zm10.076 0l5-17h2l5 17h-2l-4-15-4.04 15zm23.285-5.942l1.79.548c-.396 1.842-1.087 3.216-2.075 4.121-.988.906-2.19 1.36-3.606 1.36-1.245 0-2.31-.305-3.193-.912-.884-.608-1.607-1.583-2.17-2.925-.562-1.342-.844-2.926-.844-4.752 0-1.805.282-3.331.844-4.58.563-1.249 1.326-2.192 2.287-2.83a5.703 5.703 0 0 1 3.221-.955c1.297 0 2.412.404 3.344 1.213.932.809 1.584 1.996 1.957 3.562l-1.745.503c-.596-2.281-1.793-3.422-3.59-3.422-.894 0-1.67.23-2.326.688-.656.458-1.18 1.172-1.57 2.141-.392.97-.588 2.196-.588 3.68 0 2.244.395 3.927 1.186 5.049.79 1.122 1.841 1.683 3.153 1.683.97 0 1.806-.345 2.51-1.035.705-.69 1.177-1.735 1.415-3.137zM159 115v-15l-5 .006V98h12v2h-5v15zm8.268-5.46l1.678-.18c.09.903.292 1.605.61 2.108.316.504.769.908 1.358 1.214.589.305 1.252.458 1.99.458 1.06 0 1.881-.259 2.466-.777.586-.518.878-1.19.878-2.018 0-.485-.106-.908-.319-1.27-.212-.361-.533-.658-.961-.889-.429-.23-1.355-.555-2.78-.973-1.267-.372-2.169-.749-2.706-1.13a3.944 3.944 0 0 1-1.252-1.447c-.298-.586-.447-1.247-.447-1.985 0-1.327.428-2.412 1.286-3.255.857-.842 2.013-1.263 3.466-1.263 1 0 1.874.197 2.623.592.75.396 1.33.962 1.744 1.7.414.738.636 1.607.666 2.606l-1.711.156c-.09-1.066-.408-1.856-.956-2.37-.548-.515-1.318-.772-2.31-.772-1.006 0-1.774.226-2.303.677-.53.45-.794 1.034-.794 1.75 0 .663.194 1.178.581 1.543.388.365 1.26.734 2.617 1.107 1.327.365 2.259.682 2.796.95.82.418 1.439.968 1.856 1.65.418.682.626 1.497.626 2.444a5.09 5.09 0 0 1-.66 2.566 4.434 4.434 0 0 1-1.794 1.761c-.757.403-1.668.604-2.735.604-1.662 0-2.987-.5-3.975-1.498-.988-1-1.5-2.352-1.538-4.06z"/><path d="M137.076 108v2h-6v-2z"/></g><path d="M4.02 139.125v-1.153q-.26.662-.67 1.015-.41.344-.885.344-1.002 0-1.737-1.247Q0 136.828 0 134.558q0-1.557.325-2.64.325-1.084.865-1.609.547-.524 1.21-.524.475 0 .878.335.41.327.677.92v-4.523h.962v12.608H4.02zm-3.038-4.558q0 1.771.462 2.631.468.86 1.086.86.612 0 1.06-.825.45-.826.45-2.494 0-1.918-.45-2.796-.448-.885-1.131-.885-.605 0-1.041.851-.436.843-.436 2.658zm9.328 1.616l.988.198q-.247 1.462-.897 2.21-.644.74-1.6.74-1.204 0-1.952-1.204-.741-1.213-.741-3.492 0-2.365.748-3.603.754-1.247 1.905-1.247 1.1 0 1.835 1.221.735 1.221.735 3.535l-.007.413H7.096q.059 1.539.54 2.322.482.782 1.171.782 1.08 0 1.502-1.875zm-3.155-2.502h3.161q-.065-1.187-.384-1.772-.462-.851-1.177-.851-.644 0-1.1.713-.455.706-.5 1.91zm9.997 5.444L15 129.99h1.015l1.216 5.47q.208.929.364 1.84.124-.722.352-1.737l1.262-5.573h.988l-2.146 9.134h-.898zm3.877 0v-9.134h.865v1.385q.332-.963.605-1.273.28-.318.624-.318.482 0 .982.499l-.325 1.436q-.358-.336-.696-.336-.306 0-.56.284-.253.284-.357.791-.182.886-.182 1.884v4.782h-.956zm3.642-10.828v-1.78h.956v1.78h-.956zm0 10.828v-9.134h.956v9.134h-.956zm2.413-10.811v-1.797h.957v1.797h-.957zm-1.216 14.354l.182-1.316q.286.12.449.12.306 0 .442-.318.143-.318.143-1.565v-9.598h.957v9.632q0 1.867-.365 2.538-.357.67-1.053.67-.39 0-.755-.163zm7.519-6.485l.989.198q-.247 1.462-.898 2.21-.644.74-1.6.74-1.203 0-1.951-1.204-.742-1.213-.742-3.492 0-2.365.748-3.603.755-1.247 1.906-1.247 1.1 0 1.834 1.221.735 1.221.735 3.535l-.006.413h-4.228q.059 1.539.54 2.322.481.782 1.17.782 1.08 0 1.503-1.875zm-3.154-2.502h3.16q-.064-1.187-.383-1.772-.462-.851-1.177-.851-.644 0-1.1.713-.455.706-.5 1.91zm9.997 5.444l-2.153-9.134h1.015l1.216 5.47q.208.929.364 1.84.124-.722.351-1.737l1.262-5.573h.989l-2.147 9.134h-.897zm3.519-4.567q0-2.365.748-3.57.754-1.203 1.906-1.203 1.131 0 1.892 1.204.761 1.204.761 3.474 0 2.46-.748 3.664-.748 1.204-1.905 1.204-1.139 0-1.9-1.204-.754-1.213-.754-3.57zm.982 0q0 1.772.488 2.64.488.86 1.21.86.676 0 1.157-.868.488-.878.488-2.632 0-1.763-.488-2.623-.487-.869-1.21-.869-.682 0-1.164.869-.481.868-.481 2.623zm9.34 1.625l.989.198q-.247 1.462-.898 2.21-.644.74-1.6.74-1.203 0-1.951-1.204-.742-1.213-.742-3.492 0-2.365.748-3.603.755-1.247 1.906-1.247 1.1 0 1.834 1.221.735 1.221.735 3.535l-.006.413h-4.228q.059 1.539.54 2.322.481.782 1.17.782 1.08 0 1.503-1.875zm-3.154-2.502h3.16q-.064-1.187-.383-1.772-.462-.851-1.177-.851-.644 0-1.1.713-.455.706-.5 1.91zm9.041 5.444v-1.153q-.26.662-.67 1.015-.41.344-.885.344-1.001 0-1.736-1.247-.729-1.256-.729-3.526 0-1.557.325-2.64.325-1.084.865-1.609.547-.524 1.21-.524.475 0 .878.335.41.327.677.92v-4.523h.962v12.608h-.897zm-3.038-4.558q0 1.771.462 2.631.468.86 1.086.86.612 0 1.06-.825.45-.826.45-2.494 0-1.918-.45-2.796-.448-.885-1.131-.885-.605 0-1.041.851-.436.843-.436 2.658zm5.45-6.27v-1.78h.957v1.78h-.956zm0 10.828v-9.134h.957v9.134h-.956zm2.42 0v-9.134h.866v1.299q.312-.757.76-1.127.456-.378 1.041-.378.456 0 .84.24.39.233.624.62.24.378.358.989.117.61.117 1.875v5.616h-.963v-5.556q0-1.006-.13-1.47-.13-.465-.41-.715-.273-.258-.637-.258-.69 0-1.1.68-.41.68-.41 2.33v4.989h-.955zm5.907.756l.936.224q.065.731.39 1.084.326.36.905.36.63 0 1.001-.403.378-.396.514-1.187.085-.482.085-2.03-.313.594-.703.895-.39.3-.865.3-1.015 0-1.685-1.135-.767-1.307-.767-3.5 0-1.47.338-2.571.338-1.101.885-1.617.553-.516 1.236-.516.5 0 .91.327.417.326.735.98v-1.1h.885v7.894q0 2.107-.26 3.002-.26.903-.852 1.419-.592.524-1.425.524-1.1 0-1.691-.782-.592-.783-.572-2.168zm.8-5.486q0 1.797.448 2.623.45.825 1.1.825.65 0 1.105-.808.456-.809.456-2.572 0-1.72-.469-2.554-.468-.843-1.138-.843-.598 0-1.054.843-.448.834-.448 2.486zm5.106 2.003l.95-.24q.084.963.461 1.436.377.464 1.002.464.624 0 .962-.404.345-.413.345-1.04 0-.542-.293-.843-.201-.207-.975-.516-1.119-.456-1.496-.774-.378-.319-.586-.852-.208-.533-.208-1.213 0-1.17.566-1.9.566-.731 1.568-.731.63 0 1.105.3.482.302.735.81.254.507.352 1.453l-.937.206q-.13-1.496-1.23-1.496-.624 0-.93.335-.305.327-.305.843 0 .507.293.8.175.172 1.04.55 1.19.508 1.542.809.351.292.546.808.195.507.195 1.213 0 1.307-.63 2.115-.625.809-1.711.809-2.036 0-2.361-2.942zm5.827 6.227v-12.634h.879v1.187q.325-.74.722-1.066.396-.327.91-.327.67 0 1.21.524.54.525.865 1.6.332 1.066.332 2.572 0 2.33-.742 3.594-.735 1.256-1.73 1.256-.442 0-.826-.3-.384-.302-.663-.852v4.446h-.956zm.866-8.015q0 1.771.448 2.614.45.834 1.087.834.611 0 1.073-.868.462-.869.462-2.684 0-1.789-.45-2.649-.448-.86-1.092-.86-.579 0-1.054.93-.474.92-.474 2.683zm5.223 4.515v-9.134h.865v1.385q.331-.963.605-1.273.28-.318.624-.318.481 0 .982.499l-.325 1.436q-.358-.336-.696-.336-.306 0-.56.284-.253.284-.357.791-.182.886-.182 1.884v4.782h-.956zm3.284-4.567q0-2.365.748-3.57.755-1.203 1.906-1.203 1.132 0 1.893 1.204.761 1.204.761 3.474 0 2.46-.748 3.664-.748 1.204-1.906 1.204-1.138 0-1.9-1.204-.754-1.213-.754-3.57zm.983 0q0 1.772.487 2.64.488.86 1.21.86.677 0 1.158-.868.488-.878.488-2.632 0-1.763-.488-2.623-.488-.869-1.21-.869-.683 0-1.164.869-.481.868-.481 2.623zm9.138 4.567v-1.153q-.26.662-.67 1.015-.41.344-.884.344-1.002 0-1.737-1.247-.728-1.256-.728-3.526 0-1.557.325-2.64.325-1.084.865-1.609.546-.524 1.21-.524.475 0 .878.335.41.327.676.92v-4.523h.963v12.608h-.898zm-3.037-4.558q0 1.771.462 2.631.468.86 1.086.86.611 0 1.06-.825.449-.826.449-2.494 0-1.918-.449-2.796-.449-.885-1.132-.885-.605 0-1.04.851-.436.843-.436 2.658zm9.164 4.558v-1.342q-.331.774-.78 1.161t-1.015.387q-.67 0-1.145-.473-.474-.482-.637-1.213-.156-.73-.156-1.995v-5.659h.956v5.066q0 1.41.104 1.892.11.473.397.765.293.284.663.284.69 0 1.132-.748.377-.645.377-2.365v-4.894h.963v9.134h-.859zm6.089-3.345l.943.197q-.163 1.634-.82 2.494-.65.86-1.567.86-1.113 0-1.835-1.204-.715-1.213-.715-3.578 0-2.382.722-3.569.728-1.195 1.867-1.195.878 0 1.476.722.605.723.774 2.167l-.93.233q-.137-.93-.475-1.385-.338-.464-.813-.464-.709 0-1.177.834-.462.825-.462 2.632 0 1.866.442 2.7.45.834 1.145.834.546 0 .93-.55.39-.56.495-1.729zm3.89 1.96l.13 1.367q-.397.138-.716.138-.501 0-.807-.258-.305-.267-.422-.722-.111-.456-.111-1.815v-5.255h-.703v-1.204h.703v-2.262l.956-.929v3.191h.97v1.204h-.97v5.341q0 .74.085.955.123.31.461.31.163 0 .423-.061zm4.78-1.557l.989.198q-.248 1.462-.898 2.21-.644.74-1.6.74-1.203 0-1.951-1.204-.742-1.213-.742-3.492 0-2.365.748-3.603.755-1.247 1.906-1.247 1.1 0 1.834 1.221.735 1.221.735 3.535l-.006.413h-4.228q.059 1.539.54 2.322.481.782 1.17.782 1.08 0 1.503-1.875zm-3.155-2.502h3.161q-.065-1.187-.383-1.772-.462-.851-1.178-.851-.644 0-1.099.713-.455.706-.5 1.91zm5.366 5.444v-9.134h.866v1.299q.312-.757.76-1.127.456-.378 1.041-.378.456 0 .84.24.39.233.624.62.24.378.358.989.117.61.117 1.875v5.616h-.963v-5.556q0-1.006-.13-1.47-.13-.465-.41-.715-.273-.258-.637-.258-.69 0-1.1.68-.41.68-.41 2.33v4.989h-.956zm12.808 0v-1.153q-.26.662-.67 1.015-.41.344-.885.344-1.002 0-1.737-1.247-.728-1.256-.728-3.526 0-1.557.325-2.64.325-1.084.865-1.609.547-.524 1.21-.524.475 0 .878.335.41.327.677.92v-4.523h.962v12.608h-.897zm-3.038-4.558q0 1.771.462 2.631.468.86 1.086.86.612 0 1.06-.825.45-.826.45-2.494 0-1.918-.45-2.796-.448-.885-1.131-.885-.605 0-1.041.851-.436.843-.436 2.658zm9.145 3.431q-.481.662-1.001.998-.52.335-1.08.335-.885 0-1.412-.705-.526-.705-.526-1.9 0-.792.247-1.403.247-.61.676-.954.43-.344 1.301-.508 1.17-.223 1.717-.533l.006-.396q0-.937-.253-1.315-.358-.55-1.1-.55-.67 0-1.001.369-.332.361-.488 1.367l-.943-.206q.201-1.47.813-2.141.618-.671 1.763-.671.89 0 1.398.447.507.439.637 1.092.137.654.137 1.91v2.064q0 2.167.059 2.734.065.56.247 1.093h-1.002q-.15-.473-.195-1.127zm-.078-3.457q-.527.344-1.567.585-.605.137-.846.318-.24.172-.377.499-.13.318-.13.74 0 .653.306 1.048.305.387.845.387.514 0 .93-.352.423-.353.631-.938.208-.593.208-1.72v-.567zm4.612 3.199l.13 1.367q-.397.138-.715.138-.501 0-.807-.258-.306-.267-.423-.722-.11-.456-.11-1.815v-5.255h-.703v-1.204h.703v-2.262l.956-.929v3.191h.969v1.204h-.97v5.341q0 .74.085.955.124.31.462.31.163 0 .423-.061zm4.599.258q-.482.662-1.002.998-.52.335-1.08.335-.884 0-1.411-.705t-.527-1.9q0-.792.247-1.403.247-.61.676-.954.43-.344 1.301-.508 1.171-.223 1.718-.533l.006-.396q0-.937-.254-1.315-.358-.55-1.1-.55-.67 0-1.001.369-.332.361-.488 1.367l-.943-.206q.202-1.47.813-2.141.618-.671 1.763-.671.89 0 1.398.447.508.439.638 1.092.136.654.136 1.91v2.064q0 2.167.059 2.734.065.56.247 1.093h-1.002q-.15-.473-.195-1.127zm-.079-3.457q-.526.344-1.567.585-.605.137-.846.318-.24.172-.377.499-.13.318-.13.74 0 .653.306 1.048.305.387.845.387.514 0 .93-.352.423-.353.631-.938.208-.593.208-1.72v-.567zm3.357 4.584h-.891v-12.608h.956v4.498q.306-.62.69-.92.39-.31.864-.31.664 0 1.204.524.546.525.871 1.591.326 1.067.326 2.59 0 2.321-.735 3.585-.735 1.256-1.718 1.256-.494 0-.89-.335-.391-.344-.677-1.015v1.144zm-.013-4.636q0 1.42.195 2.124.195.706.553 1.075.357.37.793.37.592 0 1.047-.877.462-.886.462-2.64 0-1.798-.442-2.64-.442-.843-1.086-.843-.592 0-1.06.885-.462.878-.462 2.546zm8.911 3.509q-.481.662-1.002.998-.52.335-1.08.335-.884 0-1.411-.705t-.527-1.9q0-.792.247-1.403.247-.61.677-.954.429-.344 1.3-.508 1.171-.223 1.718-.533l.006-.396q0-.937-.254-1.315-.358-.55-1.1-.55-.669 0-1 .369-.332.361-.489 1.367l-.943-.206q.202-1.47.813-2.141.618-.671 1.763-.671.891 0 1.398.447.508.439.638 1.092.137.654.137 1.91v2.064q0 2.167.058 2.734.065.56.247 1.093h-1.001q-.15-.473-.196-1.127zm-.078-3.457q-.527.344-1.568.585-.605.137-.845.318-.241.172-.378.499-.13.318-.13.74 0 .653.306 1.048.306.387.846.387.513 0 .93-.352.423-.353.63-.938.209-.593.209-1.72v-.567zm2.107 1.857l.95-.24q.084.963.462 1.436.377.464 1.001.464.625 0 .963-.404.345-.413.345-1.04 0-.542-.293-.843-.202-.207-.976-.516-1.118-.456-1.496-.774-.377-.319-.585-.852-.208-.533-.208-1.213 0-1.17.566-1.9.566-.731 1.567-.731.631 0 1.106.3.481.302.735.81.254.507.351 1.453l-.936.206q-.13-1.496-1.23-1.496-.624 0-.93.335-.306.327-.306.843 0 .507.293.8.176.172 1.04.55 1.191.508 1.542.809.352.292.547.808.195.507.195 1.213 0 1.307-.631 2.115-.624.809-1.71.809-2.037 0-2.362-2.942zm9.705-.215l.988.198q-.247 1.462-.897 2.21-.644.74-1.6.74-1.204 0-1.952-1.204-.741-1.213-.741-3.492 0-2.365.748-3.603.754-1.247 1.906-1.247 1.099 0 1.834 1.221.735 1.221.735 3.535l-.006.413h-4.228q.059 1.539.54 2.322.481.782 1.17.782 1.08 0 1.503-1.875zm-3.155-2.502h3.161q-.065-1.187-.383-1.772-.462-.851-1.178-.851-.644 0-1.099.713-.455.706-.5 1.91z" style="line-height:125%;-inkscape-font-specification:'Arial Narrow'" font-weight="400" font-size="15.318" font-family="Arial Narrow" letter-spacing="0" word-spacing="0" fill="#333"/><path fill="none" d="M110 0h5v5h-5z"/><path fill="none" d="M110 0h5v5h-5zM1 140h1v1H1z"/></svg>