<?xml version="1.0" encoding="UTF-8"?>
<svg width="179px" height="122px" viewBox="0 0 179 122" version="1.1" xmlns="http://www.w3.org/2000/svg" xmlns:xlink="http://www.w3.org/1999/xlink">
    <title>Group</title>
    <desc>OPF light.</desc>
    <g id="Page-1" stroke="none" stroke-width="1" fill="none" fill-rule="evenodd">
        <g id="Group">
            <path d="M174,0 C172.338,0 171,2.1059084 171,4.7226562 L171,83 L171,86.277344 L171,88 L170,88 L170,94 L173,94 L173,91 L173,88.115234 L174,88.115234 L174,91 L174,94 L175,94 L175,91 L175,0.2871094 C174.68595,0.1123907 174.353,0 174,0 Z M176,1.2207031 L176,91 L176,94 L178,94 L178,88 L177,88 L177,86.277344 L177,83 L177,4.7226562 C177,3.3234141 176.61012,2.0839372 176,1.2207031 Z" id="path7944" fill="#0066FF" fill-rule="nonzero"></path>
            <path d="M105,7 L75,19 L80,37 L95,31 L95.003906,31 L95.015625,94 L96,94 L95.986328,31 L95.992188,31 L96,31 L99,23.800781 L99,28 L99,31 L99,94 L100,94 L100,31 L100,28 L100,21.400391 L103,14.201172 L103,28 L103,31 L103,94 L105,94 L105,31 L105,28 L105,9.402344 L105.58398,8 L108,8 L108,28 L108,31 L108,94 L109,94 L109,31 L109,28 L109,8.2460938 C109.28967,8.6050187 109.62453,8.9465459 110,9.267578 L110,28 L110,31 L110,94 L111,94 L111,31 L111,28 L111,10.017578 C111.31129,10.223573 111.6567,10.407038 112,10.591797 L112,28 L112,31 L112,94 L113,94 L113,31 L113,28 L113,11.09375 C113.91691,11.502635 114.91634,11.859868 116,12.144531 L116,28 L116,31 L116,94 L118,94 L118,31 L118,28 L118,12.570312 C118.96128,12.738723 119.96248,12.859719 121,12.927734 L121,28 L121,31 L121,94 L122,94 L122,31 L122,28 L122,12.974609 C122.33259,12.985378 122.6638,13 123.00195,13 C123.68096,13 124.34473,12.970605 125,12.927734 L125,28 L125,31 L125,94 L126,94 L126,31 L126,28 L126,12.853516 C127.04409,12.74936 128.04382,12.586163 129,12.378906 L129,28 L129,31 L129,94 L131,94 L131,31 L131,28 L131,11.851562 C131.34335,11.743603 131.67493,11.62752 132,11.505859 L132,28 L132,31 L132,94 L134,94 L134,31 L134,28 L134,10.59375 C134.34336,10.409101 134.68862,10.225414 135,10.019531 L135,28 L135,31 L135,94 L138,94 L138,31 L138,28 L138,8 L140.41602,8 L141,9.402344 L141,28 L141,31 L141,94 L142,94 L142,31 L142,28 L142,11.800781 L143,14.201172 L143,28 L143,31 L143,94 L145,94 L145,31 L145,28 L145,19 L146,21.400391 L146,28 L146,31 L146,94 L149,94 L149,31 L149,28.599609 L150,31 L150,94 L151,94 L151,31 L166,37 L171,19 L141,7 L138,7 L137,7 L136.65234,7 C136.338581,7.52202878 135.898678,8.0242155 135.3418,8.4960938 C134.819729,8.94381448 134.196055,9.36177981 133.48242,9.742188 C133.348986,9.81717695 133.212238,9.8907617 133.07227,9.962891 C132.922984,10.0322036 132.770602,10.0999281 132.61523,10.166016 C132.421787,10.2559629 132.223141,10.3432372 132.01953,10.427734 C131.691212,10.5581044 131.351028,10.6812747 131,10.796875 L131,10.794922 C130.439107,10.9797745 129.851669,11.1449097 129.24219,11.289062 C128.21115,11.5349298 127.122473,11.7192179 126,11.837891 L126,11.835938 C125.701074,11.867336 125.400137,11.8940426 125.09766,11.916016 C124.404323,11.9690892 123.703836,11.9971607 123.00195,12 C122.667455,11.9972623 122.333263,11.9887934 122,11.974609 C121.666796,11.9627189 121.334559,11.94513 121.00391,11.921875 C121.002607,11.9218751 121.001303,11.9218751 121,11.921875 C119.97498,11.8509345 118.969007,11.7258429 118,11.548828 C117.608788,11.4770187 117.2243,11.3968627 116.84766,11.308594 C116.729049,11.2820398 116.611197,11.2546932 116.49414,11.226562 C116.340345,11.1888476 116.187977,11.1497788 116.03711,11.109375 C114.926201,10.8054486 113.904658,10.4303356 113,9.994141 C112.994789,9.99153866 112.989582,9.98893433 112.98438,9.986328 C112.72591,9.85953698 112.477673,9.72792768 112.24023,9.591797 C111.711665,9.29366904 111.236627,8.97414467 110.82031,8.6367188 C110.563211,8.42738759 110.329159,8.21159003 110.11914,7.9902344 C109.808736,7.67029255 109.549508,7.33923785 109.34375,7 L109,7 L108.2168,7 L108,7 L106,7 L105,7 Z" id="path7948" fill="#00D400" fill-rule="nonzero"></path>
            <path d="M160.48242,40.960938 C149.79035,40.960938 144.27539,42.480002 144.27539,50.685547 C144.27539,56.515093 155.73247,62.21705 156.55078,69 L164.33789,69 C164.74993,62.258054 176.68945,56.515779 176.68945,50.685547 C176.68945,42.480002 171.17448,40.960938 160.48242,40.960938 Z M156.20898,44 C157.33131,44.02278 158.45662,44.203125 160.48242,44.203125 C163.7237,44.203125 164.7422,43.794738 166.96484,44.203125 C170.32812,44.821083 173.44727,46.782392 173.44727,50.685547 C173.44727,53.2982 171.67661,57.074703 166.96484,57.167969 C165.21989,57.202459 163.1103,55.546875 160.48242,55.546875 C157.86148,55.546875 155.74249,57.202094 154,57.167969 C149.27777,57.075419 147.51758,53.300754 147.51758,50.685547 C147.51758,46.899146 150.77458,44.858092 154,44.203125 C154.86127,44.028232 155.53559,43.986334 156.20898,44 Z" id="path1219" stroke="#FFFFFF" stroke-width="2" fill="#00CCFF"></path>
            <path d="M37,39 L37,43 L37,94 L39,94 L39,43 L40,43 L40,44 L40,52 L40,94 L41,94 L41,52 L44,52 L44,64.451172 C43.4205981,66.4066957 43.1239728,68.435061 43.119141,70.474609 C43.1236001,72.5154665 43.4202293,74.5451738 44,76.501953 L44,94 L45,94 L45,79.201172 C45.2996854,79.8688998 45.6334582,80.5207997 46,81.154297 L46,94 L49,94 L49,85.166016 C49.9161623,86.1318501 50.9205233,87.0100119 52,87.789062 L52,94 L54,94 L54,89.072266 C54.3283931,89.2640694 54.6618451,89.4470772 55,89.621094 L55,94 L56,94 L56,90.068359 C56.9797598,90.4983252 57.9904116,90.8541425 59.023438,91.132812 L59.025391,94 L61,94 L60.998047,91.5625 C61.990926,91.7254656 62.9940698,91.8181439 64,91.839844 L64,94 L65,94 L65,91.832031 C65.333684,91.8229124 65.6671088,91.8059807 66,91.78125 L66,94 L67,94 L67,91.695312 C68.0126502,91.5724626 69.0152108,91.3773028 70,91.111328 L70,94 L73,94 L73,90.085938 C73.337453,89.9338138 73.6708987,89.7729523 74,89.603516 L74,94 L76,94 L76,88.474609 C76.3396499,88.2581611 76.6731163,88.0321596 77,87.796875 L77,94 L78,94 L78,87.037109 C79.0964125,86.1427326 80.1013391,85.1417316 81,84.048828 L81,94 L84,94 L84,79.177734 C84.3926889,78.3084609 84.7267686,77.4138845 85,76.5 L85,94 L87,94 L87,43 L88,43 L88,94 L89,94 L89,43 L90,43 L90,94 L92,94 L92,43 L92,39 L90,39 L89,39 L88,39 L87,39 L85,39 L84,39 L81,39 L78,39 L77,39 L76,39 L74,39 L73,39 L70,39 L67,39 L66,39 L65,39 L64,39 L60.974609,39 L59.001953,39 L56,39 L55,39 L54,39 L52,39 L49,39 L46,39 L45,39 L44,39 L41,39 L40,39 L39,39 L37,39 Z M41,43 L44,43 L44,44 L41,44 L41,43 Z M45,43 L46,43 L46,44 L45,44 L45,43 Z M49,43 L52,43 L52,44 L49,44 L49,43 Z M54,43 L55,43 L55,51.347656 C54.6622015,51.5107296 54.3287527,51.6826641 54,51.863281 L54,43 Z M56,43 L59.003906,43 L59.005859,49.837891 C57.9798186,50.1053334 56.9750936,50.4487285 56,50.865234 L56,43 Z M60.976562,43 L64,43 L64,49.119141 C62.9872161,49.1444411 61.977511,49.2416911 60.978516,49.410156 L60.976562,43 Z M65,43 L66,43 L66,49.146484 C65.6669866,49.1269661 65.3335619,49.1152442 65,49.111328 L65,43 Z M67,43 L70,43 L70,49.824219 C69.014532,49.5674659 68.01198,49.3814454 67,49.267578 L67,43 Z M73,43 L74,43 L74,51.332031 C73.6705412,51.1744267 73.3370985,51.0252894 73,50.884766 L73,43 Z M76,43 L77,43 L77,53.162109 C76.6735111,52.9162723 76.3400407,52.6798472 76,52.453125 L76,43 Z M78,43 L81,43 L81,56.896484 C80.1011421,55.8049409 79.0962219,54.8052547 78,53.912109 L78,43 Z M84,43 L85,43 L85,64.447266 C84.7276782,63.5260846 84.393588,62.6243019 84,61.748047 L84,43 Z M41,45 L53,45 L53,51 L41,51 L41,45 Z M45,52 L46,52 L46,59.810547 C45.6331594,60.4472262 45.2993832,61.1023925 45,61.773438 L45,52 Z M49,52 L52,52 L52,53.154297 C50.921123,53.9290201 49.9167817,54.8025878 49,55.763672 L49,52 Z M64.5,55.509766 C72.7646482,55.5102647 79.4643448,62.2099608 79.464844,70.474609 C79.464844,74.4437974 77.8886256,78.2505266 75.0821687,81.0573497 C72.2757118,83.8641728 68.4691884,85.441406 64.5,85.441406 C60.5308116,85.441406 56.7242882,83.8641728 53.9178313,81.0573497 C51.1113744,78.2505266 49.535156,74.4437974 49.535156,70.474609 C49.5356552,62.2099608 56.2353518,55.5102647 64.5,55.509766 Z M82.539062,64.96875 C83.322347,64.96875 83.953125,65.599528 83.953125,66.382812 L83.953125,74.568359 C83.953125,75.351644 83.322347,75.982422 82.539062,75.982422 C81.755778,75.982422 81.125,75.351644 81.125,74.568359 L81.125,66.382812 C81.125,65.599528 81.755778,64.96875 82.539062,64.96875 Z" id="path7980" fill="#FFCC00" fill-rule="nonzero"></path>
            <path d="M17,2 L10.550781,13 L0,31 L0,94 L2,94 L2,31 L12.550781,13 L22.449219,13 L33,31 L33,94 L34,94 L34,31 L23.449219,13 L17,2 Z M3,31 L3,94 L4,94 L4,31 L3,31 Z M8,31 L8,94 L9,94 L9,31 L8,31 Z M11,31 L11,94 L12,94 L12,31 L11,31 Z M15,31 L15,94 L18,94 L18,31 L15,31 Z M19,31 L19,94 L21,94 L21,31 L19,31 Z M22,31 L22,94 L25,94 L25,31 L22,31 Z M26,31 L26,94 L29,94 L29,31 L26,31 Z M30,31 L30,94 L32,94 L32,31 L30,31 Z" id="path8013" fill="#FF0000" fill-rule="nonzero"></path>
            <path d="M170.00004,117 L170.00004,122 C172.66573,122 175.33428,122 177.99996,122 L177.99996,117 C175.33428,117 172.66573,117 170.00013,117 L170.00004,117 Z" id="path8169" fill="#0066FF" fill-rule="nonzero"></path>
            <path d="M154.00001,117 L154.00001,122 C158.33408,122 162.66591,122 166.99998,122 L166.99998,117 C162.66591,117 158.33408,117 154.00001,117 Z" id="path8171" fill="#00CCFF" fill-rule="nonzero"></path>
            <path d="M95,117 L95,122 C113.6596,122 132.34041,122 151.00004,122 L151.00004,117 C132.34041,117 113.6596,117 95,117 Z" id="path8173" fill="#00D400" fill-rule="nonzero"></path>
            <path d="M36.999996,117 L36.999996,122 C55.333383,122 73.666619,122 91.999996,122 L91.999996,117 C73.666619,117 55.333383,117 36.999996,117 Z" id="path8175" fill="#FFCC00" fill-rule="nonzero"></path>
            <path d="M0,117 L0,122 C11.333706,122 22.666301,122 34,122 L34,117 C22.666301,117 11.333706,117 0,117 Z" id="path8177" fill="#FF0000" fill-rule="nonzero"></path>
            <g id="text995" transform="translate(0.000000, 96.630769)" fill="#333333" fill-rule="nonzero">
                <path d="M0.295332026,9.13199956 C0.295332026,6.31628882 0.775987927,4.15382254 1.73729973,2.6446007 C2.69861158,1.12787113 3.89588177,0.36950635 5.32911028,0.36950635 C6.25546534,0.36950635 7.10025453,0.707391683 7.86347784,1.38316235 C8.62670128,2.05893302 9.22970582,3.04255469 9.67249148,4.33402737 C10.1211038,5.61799232 10.34541,7.14973961 10.34541,8.92926926 C10.34541,11.3770603 9.91427615,13.3705838 9.05200854,14.9098396 C8.10234919,16.6067774 6.85847004,17.4552463 5.32037109,17.4552463 C3.77061993,17.4552463 2.52382763,16.5842519 1.57999417,14.8422632 C0.723552742,13.2654642 0.295332026,11.362043 0.295332026,9.13199956 Z M1.72856053,9.16578434 C1.72856053,11.2006048 2.0752154,12.7811573 2.76852513,13.9074417 C3.467661,15.0262177 4.31536325,15.5856057 5.31163189,15.5856057 C6.33120506,15.5856057 7.18473344,15.0187092 7.87221704,13.8849163 C8.56552695,12.7511233 8.91218191,11.0842221 8.91218191,8.88421266 C8.91218191,7.46509419 8.73448477,6.19614697 8.3790905,5.07737101 C8.10526231,4.22139514 7.69160693,3.53811599 7.13812436,3.02753355 C6.59046792,2.50944263 5.99037629,2.25039717 5.33784948,2.25039717 C4.28914566,2.25039717 3.42396501,2.81353939 2.74230754,3.93982384 C2.0664762,5.06610828 1.72856053,6.80809512 1.72856053,9.16578434 L1.72856053,9.16578434 Z" id="path1300"></path>
                <path d="M12.1194677,17.1736723 L12.1194677,0.66234076 L16.0783239,0.66234076 C17.0105056,0.66234076 17.6979892,0.767460339 18.1407749,0.977699496 C18.7466929,1.26302504 19.230262,1.79237907 19.591482,2.56576158 C19.9527021,3.33914334 20.1333121,4.28897644 20.1333121,5.41526089 C20.1333121,6.90195651 19.8390925,8.11458969 19.2506532,9.05316044 C18.662214,9.99173043 17.645554,10.4610154 16.2006732,10.4610154 L13.5090002,10.4610154 L13.5090002,17.1736723 L12.1194677,17.1736723 Z M13.5090002,8.51254368 L16.2268905,8.51254368 C17.0833321,8.51254368 17.7096414,8.26476095 18.1058185,7.76919549 C18.5019955,7.26612155 18.7000841,6.51151101 18.7000841,5.50536387 C18.7000841,4.85211867 18.6010397,4.29273069 18.4029508,3.82719994 C18.2106886,3.36166918 17.9747303,3.04255507 17.6950759,2.86985759 C17.4212475,2.69716087 16.9231133,2.61081251 16.2006732,2.61081251 L13.5090002,2.61081251 L13.5090002,8.51254368 Z" id="path1302"></path>
                <polygon id="path1304" points="21.9335863 17.1736723 21.9335863 0.66234076 29.5279499 0.66234076 29.5279499 2.61081251 23.3231188 2.61081251 23.3231188 7.66782978 29.1346856 7.66782978 29.1346856 9.60503993 23.3231188 9.60503993 23.3231188 15.2251994 29.7726477 15.2251994 29.7726477 17.1736723"></polygon>
                <polygon id="path1306" points="31.6515756 17.1736723 31.6515756 0.66234076 33.0760645 0.66234076 38.5992381 13.6258757 38.5992381 0.66234076 39.9275959 0.66234076 39.9275959 17.1736723 38.503107 17.1736723 32.9886725 4.19887346 32.9886725 17.1736723"></polygon>
                <path d="M46.3771248,17.1736723 L46.3771248,0.66234076 L50.3359819,0.66234076 C51.268163,0.66234076 51.9556467,0.767460339 52.3984329,0.977699496 C53.0043504,1.26302504 53.4879194,1.79237907 53.84914,2.56576158 C54.2103601,3.33914334 54.3909701,4.28897644 54.3909701,5.41526089 C54.3909701,6.90195651 54.0967505,8.11458969 53.5083113,9.05316044 C52.9198714,9.99173043 51.9032111,10.4610154 50.4583303,10.4610154 L47.7666573,10.4610154 L47.7666573,17.1736723 L46.3771248,17.1736723 Z M47.7666573,8.51254368 L50.4845485,8.51254368 C51.3409901,8.51254368 51.9672991,8.26476095 52.3634756,7.76919549 C52.7596527,7.26612155 52.9577412,6.51151101 52.9577412,5.50536387 C52.9577412,4.85211867 52.8586971,4.29273069 52.6606088,3.82719994 C52.4683467,3.36166918 52.2323883,3.04255507 51.9527339,2.86985759 C51.6789055,2.69716087 51.180771,2.61081251 50.4583303,2.61081251 L47.7666573,2.61081251 L47.7666573,8.51254368 Z" id="path1308"></path>
                <path d="M56.1562879,17.1736723 L56.1562879,0.66234076 L60.8142808,0.66234076 C61.7872449,0.66234076 62.5038593,0.816266263 62.9641237,1.12411727 C63.4302143,1.43196827 63.8118259,1.94630457 64.1089585,2.66712616 C64.4060912,3.38044002 64.5546575,4.21013657 64.5546575,5.15621581 C64.5546575,6.40263756 64.301221,7.41253932 63.7943479,8.18592108 C63.2933004,8.95930283 62.5621206,9.45111367 61.6008086,9.66135359 C61.9911596,9.9616961 62.2882925,10.2657929 62.4922074,10.5736439 C62.9058627,11.2043636 63.2699958,11.9064144 63.5846067,12.6797961 L65.4198382,17.1736723 L63.6719986,17.1736723 L62.273727,13.7385042 C61.731897,12.3944713 61.3211547,11.4896892 61.0415003,11.0241576 C60.7676719,10.5586269 60.4996699,10.2470216 60.2374943,10.0893419 C59.9811441,9.92415367 59.6199238,9.84155955 59.1538332,9.84155955 L57.5458212,9.84155955 L57.5458212,17.1736723 L56.1562879,17.1736723 Z M57.5458212,7.94940146 L60.5346266,7.94940146 C61.1871533,7.94940146 61.6823745,7.84803574 62.0202902,7.64530432 C62.358206,7.44257289 62.626208,7.12345915 62.8242962,6.68796311 C63.022385,6.2524663 63.1214295,5.74563811 63.1214295,5.16747854 C63.1214295,4.33402812 62.93208,3.68078292 62.5533812,3.20774292 C62.1746829,2.7271952 61.6124613,2.48692133 60.8667163,2.48692133 L57.5458212,2.48692133 L57.5458212,7.94940146 Z" id="path1310"></path>
                <path d="M66.3636734,9.13199956 C66.3636734,6.31628882 66.8443294,4.15382254 67.8056415,2.6446007 C68.7669529,1.12787113 69.964223,0.36950635 71.3974516,0.36950635 C72.3238066,0.36950635 73.1685957,0.707391683 73.9318189,1.38316235 C74.6950427,2.05893302 75.2980474,3.04255469 75.740833,4.33402737 C76.1894454,5.61799232 76.4137515,7.14973961 76.4137515,8.92926926 C76.4137515,11.3770603 75.9826177,13.3705838 75.1203501,14.9098396 C74.1706908,16.6067774 72.9268116,17.4552463 71.3887125,17.4552463 C69.8389612,17.4552463 68.592169,16.5842519 67.6483357,14.8422632 C66.7918942,13.2654642 66.3636734,11.362043 66.3636734,9.13199956 L66.3636734,9.13199956 Z M67.7969024,9.16578434 C67.7969024,11.2006048 68.1435572,12.7811573 68.836867,13.9074417 C69.5360028,15.0262177 70.3837049,15.5856057 71.3799734,15.5856057 C72.3995467,15.5856057 73.2530749,15.0187092 73.940558,13.8849163 C74.6338677,12.7511233 74.9805226,11.0842221 74.9805226,8.88421266 C74.9805226,7.46509419 74.8028256,6.19614697 74.4474316,5.07737101 C74.1736038,4.22139514 73.7599486,3.53811599 73.2064657,3.02753355 C72.658809,2.50944263 72.0587173,2.25039717 71.4061907,2.25039717 C70.357487,2.25039717 69.4923063,2.81353939 68.8106488,3.93982384 C68.1348178,5.06610828 67.7969024,6.80809512 67.7969024,9.16578434 L67.7969024,9.16578434 Z" id="path1312"></path>
                <path d="M78.152851,17.1736723 L78.152851,0.66234076 L81.7796185,0.66234076 C82.6768431,0.66234076 83.3585007,0.763706095 83.8245912,0.966436765 C84.4363348,1.22923685 84.9665127,1.70978495 85.415125,2.40808108 C85.8637373,3.10637797 86.2133052,3.9886343 86.4638287,5.05485009 C86.7143522,6.1135574 86.839614,7.37124188 86.839614,8.82790355 C86.839614,10.6975358 86.6269602,12.2855968 86.2016528,13.5920864 C85.7763454,14.8910683 85.2286889,15.8146217 84.5586835,16.3627466 C83.8945047,16.9033637 83.023498,17.1736723 81.9456633,17.1736723 L78.152851,17.1736723 Z M79.5423835,15.2251994 L81.7796185,15.2251994 C82.6826692,15.2251994 83.3672398,15.0374853 83.8333303,14.6620572 C84.2994209,14.2791206 84.6577279,13.6671728 84.9082514,12.8262139 C85.2403411,11.7074372 85.4063859,10.3671582 85.4063859,8.80537695 C85.4063859,7.13096764 85.2286889,5.81696912 84.8732949,4.8633814 C84.523727,3.90228519 84.0722017,3.26030309 83.5187189,2.93743511 C83.1458467,2.71968671 82.5544944,2.61081251 81.744662,2.61081251 L79.5423835,2.61081251 L79.5423835,15.2251994 Z" id="path1314"></path>
                <path d="M95.6399915,0.66234076 L97.0382578,0.66234076 L97.0382578,10.2019703 C97.0382578,11.801294 96.9159108,13.1152925 96.671217,14.1439659 C96.4323427,15.1651308 95.9924686,15.9723015 95.3515947,16.565478 C94.7165463,17.1586568 93.9067127,17.4552463 92.9220941,17.4552463 C91.5354758,17.4552463 90.4955121,16.9221372 89.8022029,15.8559192 C89.1147192,14.7897026 88.7709774,12.905053 88.7709774,10.2019703 L88.7709774,0.66234076 L90.1605143,0.66234076 L90.1605143,10.1907076 C90.1605143,11.6849117 90.2508182,12.7661449 90.4314258,13.434407 C90.6120335,14.1026692 90.9062528,14.6132517 91.3140838,14.9661543 C91.7277403,15.3115478 92.2287879,15.4842445 92.8172265,15.4842445 C93.8076707,15.4842445 94.5242847,15.1238337 94.9670686,14.4030121 C95.4156838,13.6821898 95.6399915,12.2780883 95.6399915,10.1907076 L95.6399915,0.66234076 Z" id="path1316"></path>
                <path d="M106.826157,11.3845696 L108.224432,11.9364491 C107.915646,13.7910636 107.373815,15.176392 106.598937,16.0924342 C105.829891,17.0009756 104.891885,17.4552463 103.784919,17.4552463 C102.811951,17.4552463 101.978813,17.1511491 101.285504,16.5429548 C100.59802,15.9272513 100.032886,14.9436285 99.5901024,13.5920864 C99.153144,12.2405451 98.9346648,10.6449753 98.9346648,8.80537695 C98.9346648,6.98830487 99.153144,5.4528037 99.5901024,4.19887346 C100.032886,2.93743473 100.630063,1.98760163 101.381633,1.34937416 C102.133209,0.70363744 102.972173,0.380769081 103.898525,0.380769081 C104.912271,0.380769081 105.783278,0.7899858 106.511546,1.60841924 C107.239814,2.41934419 107.7496,3.61320578 108.040903,5.190004 L106.67759,5.69683257 C106.211498,3.399212 105.276405,2.25040171 103.87231,2.25040171 C103.173175,2.25040171 102.567257,2.48316709 102.054556,2.94869784 C101.541854,3.40672011 101.131111,4.12378783 100.822325,5.09990102 C100.51937,6.0760142 100.367893,7.31117285 100.367893,8.80537695 C100.367893,11.0654551 100.676676,12.7623906 101.294242,13.8961836 C101.911814,15.022468 102.733298,15.5856102 103.758696,15.5856102 C104.516097,15.5856102 105.168625,15.2402164 105.716279,14.5494288 C106.269759,13.8511326 106.639718,12.7961796 106.826157,11.3845696 L106.826157,11.3845696 Z" id="path1318"></path>
                <polygon id="path1320" points="112.655208 17.1736723 112.655208 2.61081251 109.194482 2.61081251 109.194482 0.66234076 117.522938 0.66234076 117.522938 2.61081251 114.044736 2.61081251 114.044736 17.1736723"></polygon>
                <path d="M118.475511,11.8688716 L119.786386,11.6886656 C119.856304,12.5972024 120.013609,13.3067616 120.258303,13.8173433 C120.508829,14.3204172 120.864224,14.7258797 121.324491,15.0337307 C121.784751,15.3415817 122.303275,15.4955072 122.880063,15.4955072 C123.707376,15.4955072 124.348249,15.2364618 124.802684,14.7183709 C125.262951,14.1927714 125.493084,13.5132465 125.493084,12.6797961 C125.493084,12.1917399 125.408605,11.7675062 125.239649,11.407095 C125.076517,11.0391754 124.825995,10.7388329 124.488082,10.5060675 C124.155988,10.2733021 123.433545,9.94667951 122.320754,9.52619968 C121.330316,9.15077153 120.625356,8.77158914 120.205874,8.3886525 C119.786392,8.00571587 119.460127,7.52141352 119.227078,6.93574546 C118.994035,6.34256891 118.877513,5.67430673 118.877513,4.93095892 C118.877513,3.59443456 119.212517,2.50193831 119.882524,1.65347016 C120.552526,0.805002775 121.455576,0.380769081 122.591675,0.380769081 C123.372372,0.380769081 124.054027,0.579745886 124.63664,0.977699496 C125.225085,1.37565386 125.679526,1.94630495 125.999963,2.68965276 C126.326225,3.43300057 126.501007,4.30774804 126.524309,5.31389518 L125.18721,5.47157568 C125.117299,4.39785065 124.866776,3.60194267 124.435643,3.08385175 C124.010336,2.56576083 123.410243,2.30671537 122.635366,2.30671537 C121.848837,2.30671537 121.248748,2.5357265 120.835097,2.99374877 C120.42144,3.44426254 120.214612,4.02993061 120.214612,4.75075295 C120.214612,5.41901513 120.36609,5.93710605 120.669044,6.30502571 C120.972005,6.67294537 121.653663,7.04461928 122.714019,7.42004743 C123.751073,7.78796709 124.479341,8.1070812 124.898822,8.37738977 C125.539696,8.79786884 126.023265,9.35350258 126.349527,10.044291 C126.675789,10.7275701 126.838921,11.5460036 126.838921,12.4995913 C126.838921,13.4456698 126.667051,14.3091545 126.323312,15.0900455 C125.979568,15.863428 125.510563,16.4528507 124.916299,16.8583136 C124.32786,17.2637764 123.617072,17.4665079 122.783933,17.4665079 C121.484709,17.4665079 120.447658,16.9634331 119.67278,15.9572837 C118.903728,14.9511366 118.504638,13.5883325 118.475511,11.8688716 L118.475511,11.8688716 Z" id="path1322"></path>
                <polygon id="path1324" points="132.921406 17.1736723 132.921406 0.66234076 140.008902 0.66234076 140.008902 2.61081251 134.310943 2.61081251 134.310943 7.72414457 139.23985 7.72414457 139.23985 9.67261632 134.310943 9.67261632 134.310943 17.1736723"></polygon>
                <path d="M139.869064,17.1736723 L143.906575,0.66234076 L145.400979,0.66234076 L149.700664,17.1736723 L148.11013,17.1736723 L146.886646,12.1729687 L142.499562,12.1729687 L141.345992,17.1736723 L139.869064,17.1736723 Z M142.901564,10.393439 L146.45842,10.393439 L145.366018,5.82072374 C145.028104,4.41662224 144.780495,3.27532044 144.623189,2.39681835 C144.489191,3.45552565 144.299842,4.50672447 144.055142,5.5504148 L142.901564,10.393439 Z" id="path1326"></path>
                <path d="M158.282564,11.3845696 L159.680839,11.9364491 C159.372053,13.7910636 158.830222,15.176392 158.055344,16.0924342 C157.286298,17.0009756 156.348292,17.4552463 155.241326,17.4552463 C154.268358,17.4552463 153.43522,17.1511491 152.741911,16.5429548 C152.054427,15.9272513 151.489293,14.9436285 151.046509,13.5920864 C150.609551,12.2405451 150.391072,10.6449753 150.391072,8.80537695 C150.391072,6.98830487 150.609551,5.4528037 151.046509,4.19887346 C151.489293,2.93743473 152.08647,1.98760163 152.83804,1.34937416 C153.589616,0.70363744 154.42858,0.380769081 155.354932,0.380769081 C156.368678,0.380769081 157.239685,0.7899858 157.967953,1.60841924 C158.696221,2.41934419 159.206006,3.61320578 159.49731,5.190004 L158.133997,5.69683257 C157.667905,3.399212 156.732812,2.25040171 155.328717,2.25040171 C154.629582,2.25040171 154.023664,2.48316709 153.510963,2.94869784 C152.998261,3.40672011 152.587518,4.12378783 152.278732,5.09990102 C151.975777,6.0760142 151.8243,7.31117285 151.8243,8.80537695 C151.8243,11.0654551 152.133083,12.7623906 152.750649,13.8961836 C153.368221,15.022468 154.189705,15.5856102 155.215102,15.5856102 C155.972504,15.5856102 156.625031,15.2402164 157.172686,14.5494288 C157.726172,13.8511326 158.096131,12.7961796 158.282564,11.3845696 L158.282564,11.3845696 Z" id="path1328"></path>
                <polygon id="path1330" points="164.111606 17.1736723 164.111606 2.61081251 160.65088 2.61081251 160.65088 0.66234076 168.979336 0.66234076 168.979336 2.61081251 165.501134 2.61081251 165.501134 17.1736723"></polygon>
                <path d="M169.931918,11.8688716 L171.242793,11.6886656 C171.312711,12.5972024 171.470016,13.3067616 171.71471,13.8173433 C171.965236,14.3204172 172.320631,14.7258797 172.780897,15.0337307 C173.241158,15.3415817 173.759682,15.4955072 174.33647,15.4955072 C175.163782,15.4955072 175.804659,15.2364618 176.2591,14.7183709 C176.71936,14.1927714 176.949491,13.5132465 176.949491,12.6797961 C176.949491,12.1917399 176.865012,11.7675062 176.696056,11.407095 C176.532924,11.0391754 176.282402,10.7388329 175.944489,10.5060675 C175.612395,10.2733021 174.889952,9.94667951 173.777161,9.52619968 C172.786723,9.15077153 172.081763,8.77158914 171.662281,8.3886525 C171.242799,8.00571587 170.916534,7.52141352 170.683485,6.93574546 C170.450442,6.34256891 170.33392,5.67430673 170.33392,4.93095892 C170.33392,3.59443456 170.668924,2.50193831 171.338931,1.65347016 C172.008933,0.805002775 172.911983,0.380769081 174.048082,0.380769081 C174.828779,0.380769081 175.510437,0.579745886 176.093056,0.977699496 C176.681495,1.37565386 177.135933,1.94630495 177.45637,2.68965276 C177.782632,3.43300057 177.957414,4.30774804 177.980716,5.31389518 L176.643617,5.47157568 C176.573706,4.39785065 176.323183,3.60194267 175.89205,3.08385175 C175.466743,2.56576083 174.86665,2.30671537 174.091773,2.30671537 C173.305244,2.30671537 172.705154,2.5357265 172.291504,2.99374877 C171.877847,3.44426254 171.671019,4.02993061 171.671019,4.75075295 C171.671019,5.41901513 171.822499,5.93710605 172.12546,6.30502571 C172.428415,6.67294537 173.11007,7.04461928 174.170426,7.42004743 C175.20748,7.78796709 175.935747,8.1070812 176.355229,8.37738977 C176.996103,8.79786884 177.479671,9.35350258 177.805934,10.044291 C178.132196,10.7275701 178.295328,11.5460036 178.295328,12.4995913 C178.295328,13.4456698 178.123458,14.3091545 177.779719,15.0900455 C177.435974,15.863428 176.96697,16.4528507 176.372706,16.8583136 C175.784267,17.2637764 175.073479,17.4665079 174.24034,17.4665079 C172.941116,17.4665079 171.904065,16.9634331 171.129187,15.9572837 C170.360135,14.9511366 169.961045,13.5883325 169.931918,11.8688716 L169.931918,11.8688716 Z" id="path1332"></path>
            </g>
            <path d="M160.48242,40.960938 C149.79035,40.960938 144.27539,42.480002 144.27539,50.685547 C144.27539,56.515093 155.73247,62.21705 156.55078,69 C156.59598,69.468182 156.61715,69.939332 156.59375,70.416016 L154,94 L157,94 L157,69 L158,69 L158,94 L162,94 L162,69 L163,69 L163,94 L164,94 L164,69 L164.33789,69 C164.74993,62.258054 176.68945,56.515779 176.68945,50.685547 C176.68945,42.480002 171.17448,40.960938 160.48242,40.960938 Z M156.20898,44 C157.33131,44.02278 158.45662,44.203125 160.48242,44.203125 C163.7237,44.203125 164.7422,43.794738 166.96484,44.203125 C170.32812,44.821083 173.44727,46.782392 173.44727,50.685547 C173.44727,53.2982 171.67661,57.074703 166.96484,57.167969 C165.21989,57.202459 163.1103,55.546875 160.48242,55.546875 C157.86148,55.546875 155.74249,57.202094 154,57.167969 C149.27777,57.075419 147.51758,53.300754 147.51758,50.685547 C147.51758,46.899146 150.77458,44.858092 154,44.203125 C154.86127,44.028232 155.53559,43.986334 156.20898,44 Z M165,76.132812 L165,94 L166.96484,94 L165,76.132812 Z" id="path1204" fill="#00CCFF"></path>
        </g>
    </g>
</svg>
