<?xml version="1.0" encoding="UTF-8" standalone="no"?>
<!-- Created with Inkscape (http://www.inkscape.org/) -->

<svg
   xmlns:dc="http://purl.org/dc/elements/1.1/"
   xmlns:cc="http://creativecommons.org/ns#"
   xmlns:rdf="http://www.w3.org/1999/02/22-rdf-syntax-ns#"
   xmlns:svg="http://www.w3.org/2000/svg"
   xmlns="http://www.w3.org/2000/svg"
   xmlns:sodipodi="http://sodipodi.sourceforge.net/DTD/sodipodi-0.dtd"
   xmlns:inkscape="http://www.inkscape.org/namespaces/inkscape"
   width="178"
   height="150"
   id="svg8313"
   version="1.1"
   inkscape:version="0.92.2 (5c3e80d, 2017-08-06)"
   sodipodi:docname="openproductsfacts-logo-en.svg"
   inkscape:export-filename="C:\Users\Stéphane\Desktop\Blogs\OpenFoodFacts\openfoodfacts-logo-712x600.png"
   inkscape:export-xdpi="360"
   inkscape:export-ydpi="360">
  <defs
     id="defs8315" />
  <sodipodi:namedview
     id="base"
     pagecolor="#ffffff"
     bordercolor="#666666"
     borderopacity="1.0"
     inkscape:pageopacity="0.0"
     inkscape:pageshadow="2"
     inkscape:zoom="4.5136328"
     inkscape:cx="90.081856"
     inkscape:cy="69.280368"
     inkscape:document-units="px"
     inkscape:current-layer="layer1"
     showgrid="true"
     inkscape:window-width="1920"
     inkscape:window-height="1018"
     inkscape:window-x="-8"
     inkscape:window-y="-8"
     inkscape:window-maximized="1"
     inkscape:snap-global="true">
    <inkscape:grid
       type="xygrid"
       id="grid8566" />
  </sodipodi:namedview>
  <metadata
     id="metadata8318">
    <rdf:RDF>
      <cc:Work
         rdf:about="">
        <dc:format>image/svg+xml</dc:format>
        <dc:type
           rdf:resource="http://purl.org/dc/dcmitype/StillImage" />
        <dc:title></dc:title>
      </cc:Work>
    </rdf:RDF>
  </metadata>
  <g
     inkscape:label="Calque 1"
     inkscape:groupmode="layer"
     id="layer1">
    <path
       style="fill:#0066ff;fill-opacity:1;fill-rule:nonzero;stroke:none;stroke-width:0.50709254"
       d="M 174 1 C 172.338 1 171 3.1059084 171 5.7226562 L 171 84 L 171 87.277344 L 171 89 L 170 89 L 170 95 L 173 95 L 173 92 L 173 89.115234 L 174 89.115234 L 174 92 L 174 95 L 175 95 L 175 92 L 175 1.2871094 C 174.68595 1.1123907 174.353 1 174 1 z M 176 2.2207031 L 176 92 L 176 95 L 178 95 L 178 89 L 177 89 L 177 87.277344 L 177 84 L 177 5.7226562 C 177 4.3234141 176.61012 3.0839372 176 2.2207031 z "
       id="path7944" />
    <path
       style="fill:#00d400;fill-opacity:1;fill-rule:nonzero;stroke:none;stroke-width:1.09544504"
       d="M 105 8 L 75 20 L 80 38 L 95 32 L 95.003906 32 L 95.015625 95 L 96 95 L 95.986328 32 L 95.992188 32 L 96 32 L 99 24.800781 L 99 29 L 99 32 L 99 95 L 100 95 L 100 32 L 100 29 L 100 22.400391 L 103 15.201172 L 103 29 L 103 32 L 103 95 L 105 95 L 105 32 L 105 29 L 105 10.402344 L 105.58398 9 L 108 9 L 108 29 L 108 32 L 108 95 L 109 95 L 109 32 L 109 29 L 109 9.2460938 C 109.28967 9.6050187 109.62453 9.9465459 110 10.267578 L 110 29 L 110 32 L 110 95 L 111 95 L 111 32 L 111 29 L 111 11.017578 C 111.31129 11.223573 111.6567 11.407038 112 11.591797 L 112 29 L 112 32 L 112 95 L 113 95 L 113 32 L 113 29 L 113 12.09375 C 113.91691 12.502635 114.91634 12.859868 116 13.144531 L 116 29 L 116 32 L 116 95 L 118 95 L 118 32 L 118 29 L 118 13.570312 C 118.96128 13.738723 119.96248 13.859719 121 13.927734 L 121 29 L 121 32 L 121 95 L 122 95 L 122 32 L 122 29 L 122 13.974609 C 122.33259 13.985378 122.6638 14 123.00195 14 C 123.68096 14 124.34473 13.970605 125 13.927734 L 125 29 L 125 32 L 125 95 L 126 95 L 126 32 L 126 29 L 126 13.853516 C 127.04409 13.74936 128.04382 13.586163 129 13.378906 L 129 29 L 129 32 L 129 95 L 131 95 L 131 32 L 131 29 L 131 12.851562 C 131.34335 12.743603 131.67493 12.62752 132 12.505859 L 132 29 L 132 32 L 132 95 L 134 95 L 134 32 L 134 29 L 134 11.59375 C 134.34336 11.409101 134.68862 11.225414 135 11.019531 L 135 29 L 135 32 L 135 95 L 138 95 L 138 32 L 138 29 L 138 9 L 140.41602 9 L 141 10.402344 L 141 29 L 141 32 L 141 95 L 142 95 L 142 32 L 142 29 L 142 12.800781 L 143 15.201172 L 143 29 L 143 32 L 143 95 L 145 95 L 145 32 L 145 29 L 145 20 L 146 22.400391 L 146 29 L 146 32 L 146 95 L 149 95 L 149 32 L 149 29.599609 L 150 32 L 150 95 L 151 95 L 151 32 L 166 38 L 171 20 L 141 8 L 138 8 L 137 8 L 136.65234 8 A 14.210135 6.8957391 0 0 1 135.3418 9.4960938 A 14.210135 6.8957391 0 0 1 133.48242 10.742188 A 14.210135 6.8957391 0 0 1 133.07227 10.962891 A 14.210135 6.8957391 0 0 1 132.61523 11.166016 A 14.210135 6.8957391 0 0 1 132.01953 11.427734 A 14.210135 6.8957391 0 0 1 131 11.796875 L 131 11.794922 A 14.210135 6.8957391 0 0 1 129.24219 12.289062 A 14.210135 6.8957391 0 0 1 126 12.837891 L 126 12.835938 A 14.210135 6.8957391 0 0 1 125.09766 12.916016 A 14.210135 6.8957391 0 0 1 123.00195 13 A 14.210135 6.8957391 0 0 1 122 12.974609 A 14.210135 6.8957391 0 0 1 121.00391 12.921875 A 14.210135 6.8957391 0 0 1 121 12.921875 A 14.210135 6.8957391 0 0 1 118 12.548828 A 14.210135 6.8957391 0 0 1 116.84766 12.308594 A 14.210135 6.8957391 0 0 1 116.49414 12.226562 A 14.210135 6.8957391 0 0 1 116.03711 12.109375 A 14.210135 6.8957391 0 0 1 113 10.994141 A 14.210135 6.8957391 0 0 1 112.98438 10.986328 A 14.210135 6.8957391 0 0 1 112.24023 10.591797 A 14.210135 6.8957391 0 0 1 110.82031 9.6367188 A 14.210135 6.8957391 0 0 1 110.11914 8.9902344 A 14.210135 6.8957391 0 0 1 109.34375 8 L 109 8 L 108.2168 8 L 108 8 L 106 8 L 105 8 z "
       id="path7948" />
    <path
       id="path1219"
       d="M 160.48242 41.960938 C 149.79035 41.960938 144.27539 43.480002 144.27539 51.685547 C 144.27539 57.515093 155.73247 63.21705 156.55078 70 L 164.33789 70 C 164.74993 63.258054 176.68945 57.515779 176.68945 51.685547 C 176.68945 43.480002 171.17448 41.960937 160.48242 41.960938 z M 156.20898 45 C 157.33131 45.02278 158.45662 45.203125 160.48242 45.203125 C 163.7237 45.203125 164.7422 44.794738 166.96484 45.203125 C 170.32812 45.821083 173.44727 47.782392 173.44727 51.685547 C 173.44727 54.2982 171.67661 58.074703 166.96484 58.167969 C 165.21989 58.202459 163.1103 56.546875 160.48242 56.546875 C 157.86148 56.546875 155.74249 58.202094 154 58.167969 C 149.27777 58.075419 147.51758 54.300754 147.51758 51.685547 C 147.51758 47.899146 150.77458 45.858092 154 45.203125 C 154.86127 45.028232 155.53559 44.986334 156.20898 45 z "
       style="fill:#00ccff;fill-opacity:1;fill-rule:evenodd;stroke:#ffffff;stroke-width:2;stroke-opacity:1;stroke-miterlimit:4;stroke-dasharray:none;stroke-dashoffset:0" />
    <path
       style="fill:#ffcc00;fill-opacity:1;fill-rule:nonzero;stroke:none;stroke-width:0.9198662"
       d="M 37 40 L 37 44 L 37 95 L 39 95 L 39 44 L 40 44 L 40 45 L 40 53 L 40 95 L 41 95 L 41 53 L 44 53 L 44 65.451172 A 21.38142 21.38142 0 0 0 43.119141 71.474609 A 21.38142 21.38142 0 0 0 44 77.501953 L 44 95 L 45 95 L 45 80.201172 A 21.38142 21.38142 0 0 0 46 82.154297 L 46 95 L 49 95 L 49 86.166016 A 21.38142 21.38142 0 0 0 52 88.789062 L 52 95 L 54 95 L 54 90.072266 A 21.38142 21.38142 0 0 0 55 90.621094 L 55 95 L 56 95 L 56 91.068359 A 21.38142 21.38142 0 0 0 59.023438 92.132812 L 59.025391 95 L 61 95 L 60.998047 92.5625 A 21.38142 21.38142 0 0 0 64 92.839844 L 64 95 L 65 95 L 65 92.832031 A 21.38142 21.38142 0 0 0 66 92.78125 L 66 95 L 67 95 L 67 92.695312 A 21.38142 21.38142 0 0 0 70 92.111328 L 70 95 L 73 95 L 73 91.085938 A 21.38142 21.38142 0 0 0 74 90.603516 L 74 95 L 76 95 L 76 89.474609 A 21.38142 21.38142 0 0 0 77 88.796875 L 77 95 L 78 95 L 78 88.037109 A 21.38142 21.38142 0 0 0 81 85.048828 L 81 95 L 84 95 L 84 80.177734 A 21.38142 21.38142 0 0 0 85 77.5 L 85 95 L 87 95 L 87 44 L 88 44 L 88 95 L 89 95 L 89 44 L 90 44 L 90 95 L 92 95 L 92 44 L 92 40 L 90 40 L 89 40 L 88 40 L 87 40 L 85 40 L 84 40 L 81 40 L 78 40 L 77 40 L 76 40 L 74 40 L 73 40 L 70 40 L 67 40 L 66 40 L 65 40 L 64 40 L 60.974609 40 L 59.001953 40 L 56 40 L 55 40 L 54 40 L 52 40 L 49 40 L 46 40 L 45 40 L 44 40 L 41 40 L 40 40 L 39 40 L 37 40 z M 41 44 L 44 44 L 44 45 L 41 45 L 41 44 z M 45 44 L 46 44 L 46 45 L 45 45 L 45 44 z M 49 44 L 52 44 L 52 45 L 49 45 L 49 44 z M 54 44 L 55 44 L 55 52.347656 A 21.38142 21.38142 0 0 0 54 52.863281 L 54 44 z M 56 44 L 59.003906 44 L 59.005859 50.837891 A 21.38142 21.38142 0 0 0 56 51.865234 L 56 44 z M 60.976562 44 L 64 44 L 64 50.119141 A 21.38142 21.38142 0 0 0 60.978516 50.410156 L 60.976562 44 z M 65 44 L 66 44 L 66 50.146484 A 21.38142 21.38142 0 0 0 65 50.111328 L 65 44 z M 67 44 L 70 44 L 70 50.824219 A 21.38142 21.38142 0 0 0 67 50.267578 L 67 44 z M 73 44 L 74 44 L 74 52.332031 A 21.38142 21.38142 0 0 0 73 51.884766 L 73 44 z M 76 44 L 77 44 L 77 54.162109 A 21.38142 21.38142 0 0 0 76 53.453125 L 76 44 z M 78 44 L 81 44 L 81 57.896484 A 21.38142 21.38142 0 0 0 78 54.912109 L 78 44 z M 84 44 L 85 44 L 85 65.447266 A 21.38142 21.38142 0 0 0 84 62.748047 L 84 44 z M 41 46 L 53 46 L 53 52 L 41 52 L 41 46 z M 45 53 L 46 53 L 46 60.810547 A 21.38142 21.38142 0 0 0 45 62.773438 L 45 53 z M 49 53 L 52 53 L 52 54.154297 A 21.38142 21.38142 0 0 0 49 56.763672 L 49 53 z M 64.5 56.509766 A 14.965747 14.965747 0 0 1 79.464844 71.474609 A 14.965747 14.965747 0 0 1 64.5 86.441406 A 14.965747 14.965747 0 0 1 49.535156 71.474609 A 14.965747 14.965747 0 0 1 64.5 56.509766 z M 82.539062 65.96875 C 83.322347 65.96875 83.953125 66.599528 83.953125 67.382812 L 83.953125 75.568359 C 83.953125 76.351644 83.322347 76.982422 82.539062 76.982422 C 81.755778 76.982422 81.125 76.351644 81.125 75.568359 L 81.125 67.382812 C 81.125 66.599528 81.755778 65.96875 82.539062 65.96875 z "
       id="path7980" />
    <path
       style="fill:#ff0000;fill-opacity:1;fill-rule:nonzero;stroke:none;stroke-width:1.03334248"
       d="M 17 3 L 10.550781 14 L 0 32 L 0 95 L 2 95 L 2 32 L 12.550781 14 L 22.449219 14 L 33 32 L 33 95 L 34 95 L 34 32 L 23.449219 14 L 17 3 z M 3 32 L 3 95 L 4 95 L 4 32 L 3 32 z M 8 32 L 8 95 L 9 95 L 9 32 L 8 32 z M 11 32 L 11 95 L 12 95 L 12 32 L 11 32 z M 15 32 L 15 95 L 18 95 L 18 32 L 15 32 z M 19 32 L 19 95 L 21 95 L 21 32 L 19 32 z M 22 32 L 22 95 L 25 95 L 25 32 L 22 32 z M 26 32 L 26 95 L 29 95 L 29 32 L 26 32 z M 30 32 L 30 95 L 32 95 L 32 32 L 30 32 z "
       id="path8013" />
    <path
       sodipodi:nodetypes="cccccc"
       inkscape:export-ydpi="90"
       inkscape:export-xdpi="90"
       inkscape:export-filename="C:\Users\Stéphane\Desktop\Blogs\OpenFoodFacts\test-178.png"
       id="path8169"
       d="m 170.00004,118 0,5 c 2.66569,0 5.33424,0 7.99992,0 l 0,-5 c -2.66568,0 -5.33423,0 -7.99983,0 z"
       style="fill:#0066ff;fill-opacity:1;fill-rule:nonzero;stroke:none"
       inkscape:connector-curvature="0" />
    <path
       sodipodi:nodetypes="ccccc"
       inkscape:export-ydpi="90"
       inkscape:export-xdpi="90"
       inkscape:export-filename="C:\Users\Stéphane\Desktop\Blogs\OpenFoodFacts\test-178.png"
       id="path8171"
       d="m 154.00001,118 0,5 c 4.33407,0 8.6659,0 12.99997,0 l 0,-5 c -4.33407,0 -8.6659,0 -12.99997,0 z"
       style="fill:#00ccff;fill-opacity:1;fill-rule:nonzero;stroke:none"
       inkscape:connector-curvature="0" />
    <path
       sodipodi:nodetypes="ccccc"
       inkscape:export-ydpi="90"
       inkscape:export-xdpi="90"
       inkscape:export-filename="C:\Users\Stéphane\Desktop\Blogs\OpenFoodFacts\test-178.png"
       id="path8173"
       d="m 95,118 0,5 c 18.6596,0 37.34041,0 56.00004,0 l 0,-5 C 132.34041,118 113.6596,118 95,118 Z"
       style="fill:#00d400;fill-opacity:1;fill-rule:nonzero;stroke:none"
       inkscape:connector-curvature="0" />
    <path
       sodipodi:nodetypes="ccccc"
       inkscape:export-ydpi="90"
       inkscape:export-xdpi="90"
       inkscape:export-filename="C:\Users\Stéphane\Desktop\Blogs\OpenFoodFacts\test-178.png"
       id="path8175"
       d="m 36.999996,118 0,5 C 55.333383,123 73.666619,123 92,123 l 0,-5 c -18.333381,0 -36.666617,0 -55.000004,0 z"
       style="fill:#ffcc00;fill-opacity:1;fill-rule:nonzero;stroke:none"
       inkscape:connector-curvature="0" />
    <path
       sodipodi:nodetypes="ccccc"
       inkscape:export-ydpi="90"
       inkscape:export-xdpi="90"
       inkscape:export-filename="C:\Users\Stéphane\Desktop\Blogs\OpenFoodFacts\test-178.png"
       id="path8177"
       d="m 0,118 0,5 c 11.333706,0 22.666301,0 33.999997,0 l 0,-5 C 22.666301,118 11.333706,118 0,118 Z"
       style="fill:#ff0000;fill-opacity:1;fill-rule:nonzero;stroke:none"
       inkscape:connector-curvature="0" />
    <g
       aria-label="the free and open products database"
       transform="scale(0.90339875,1.1069309)"
       style="font-style:normal;font-variant:normal;font-weight:normal;font-stretch:normal;font-size:11.10657597px;line-height:0%;font-family:'Arial Narrow';-inkscape-font-specification:'Arial Narrow';letter-spacing:0px;word-spacing:0px;fill:#333333;fill-opacity:1;stroke:none;stroke-width:0.92554802"
       id="text3715-8">
      <path
         d="m 3.1656278,124.76272 0.1438202,1.14337 q -0.4386517,0.11506 -0.7910112,0.11506 -0.5537079,0 -0.8916854,-0.21573 -0.3379775,-0.22293 -0.4674157,-0.60405 -0.1222472,-0.38112 -0.1222472,-1.5173 v -4.39371 H 0.26045925 v -1.00674 H 1.0370885 v -1.89124 l 1.0570786,-0.77663 v 2.66787 h 1.0714607 v 1.00674 H 2.0941671 v 4.46562 q 0,0.61842 0.093483,0.7982 0.1366292,0.25888 0.5105618,0.25888 0.1797752,0 0.4674157,-0.0503 z"
         style="font-size:14.72719097px;line-height:1.25;fill:#333333;fill-opacity:1;stroke-width:0.92554802"
         id="path1239" />
      <path
         d="m 4.1651783,125.92047 v -10.54202 h 1.0570786 v 3.78247 q 0.3739326,-0.52494 0.8413483,-0.78382 0.4746068,-0.26607 1.0426966,-0.26607 0.9995506,0 1.5748315,0.64 0.5824719,0.63281 0.5824719,2.32989 v 4.83955 H 8.2065266 v -4.83955 q 0,-0.99236 -0.3523596,-1.42382 -0.3523595,-0.43146 -0.9707865,-0.43146 -0.6903371,0 -1.1793258,0.55371 -0.4817978,0.55371 -0.4817978,1.96314 v 4.17798 z"
         style="font-size:14.72719097px;line-height:1.25;fill:#333333;fill-opacity:1;stroke-width:0.92554802"
         id="path1241" />
      <path
         d="m 15.181808,123.46115 1.093033,0.16539 q -0.273258,1.22247 -0.992359,1.84809 -0.71191,0.61843 -1.768989,0.61843 -1.330337,0 -2.157303,-1.00675 -0.819776,-1.01393 -0.819776,-2.91955 0,-1.97752 0.826967,-3.01303 0.834157,-1.0427 2.106966,-1.0427 1.215281,0 2.027865,1.02113 0.812585,1.02112 0.812585,2.9555 l -0.0072,0.34517 h -4.674157 q 0.06472,1.28719 0.596854,1.94157 0.532135,0.65439 1.294382,0.65439 1.193708,0 1.661124,-1.56764 z m -3.487641,-2.09259 h 3.494832 q -0.07191,-0.99236 -0.42427,-1.48135 -0.510562,-0.71191 -1.301573,-0.71191 -0.71191,0 -1.215281,0.59686 -0.503371,0.58966 -0.553708,1.5964 z"
         style="font-size:14.72719097px;line-height:1.25;fill:#333333;fill-opacity:1;stroke-width:0.92554802"
         id="path1243" />
      <path
         d="m 21.294167,125.92047 v -6.63011 h -0.942022 v -1.00674 h 0.942022 v -0.81259 q 0,-0.89887 0.186967,-1.34472 0.186966,-0.45303 0.56809,-0.69033 0.388314,-0.23731 0.970786,-0.23731 0.453034,0 0.99236,0.12944 l -0.158203,1.12899 q -0.330786,-0.0719 -0.625617,-0.0719 -0.474607,0 -0.683147,0.25169 -0.201348,0.24449 -0.201348,0.94202 v 0.70472 h 1.222472 v 1.00674 h -1.222472 v 6.63011 z"
         style="font-size:14.72719097px;line-height:1.25;fill:#333333;fill-opacity:1;stroke-width:0.92554802"
         id="path1245" />
      <path
         d="m 24.357538,125.92047 v -7.63685 h 0.956404 v 1.15775 q 0.366742,-0.80539 0.668764,-1.06427 0.309214,-0.26607 0.690337,-0.26607 0.532135,0 1.085843,0.41708 l -0.359551,1.2009 q -0.395505,-0.28045 -0.769438,-0.28045 -0.337977,0 -0.618427,0.2373 -0.280449,0.23731 -0.395505,0.66158 -0.201349,0.74067 -0.201349,1.57483 v 3.9982 z"
         style="font-size:14.72719097px;line-height:1.25;fill:#333333;fill-opacity:1;stroke-width:0.92554802"
         id="path1247" />
      <path
         d="m 32.670346,123.46115 1.093034,0.16539 q -0.273258,1.22247 -0.992359,1.84809 -0.71191,0.61843 -1.768989,0.61843 -1.330337,0 -2.157303,-1.00675 -0.819776,-1.01393 -0.819776,-2.91955 0,-1.97752 0.826967,-3.01303 0.834157,-1.0427 2.106966,-1.0427 1.215281,0 2.027865,1.02113 0.812584,1.02112 0.812584,2.9555 l -0.0072,0.34517 h -4.674157 q 0.06472,1.28719 0.596854,1.94157 0.532135,0.65439 1.294382,0.65439 1.193708,0 1.661123,-1.56764 z m -3.48764,-2.09259 h 3.494831 q -0.07191,-0.99236 -0.424269,-1.48135 -0.510562,-0.71191 -1.301573,-0.71191 -0.71191,0 -1.215281,0.59686 -0.503371,0.58966 -0.553708,1.5964 z"
         style="font-size:14.72719097px;line-height:1.25;fill:#333333;fill-opacity:1;stroke-width:0.92554802"
         id="path1249" />
      <path
         d="m 39.401134,123.46115 1.093033,0.16539 q -0.273258,1.22247 -0.992359,1.84809 -0.71191,0.61843 -1.768989,0.61843 -1.330337,0 -2.157303,-1.00675 -0.819775,-1.01393 -0.819775,-2.91955 0,-1.97752 0.826966,-3.01303 0.834157,-1.0427 2.106966,-1.0427 1.215281,0 2.027865,1.02113 0.812585,1.02112 0.812585,2.9555 l -0.0072,0.34517 h -4.674158 q 0.06472,1.28719 0.596854,1.94157 0.532135,0.65439 1.294382,0.65439 1.193708,0 1.661124,-1.56764 z m -3.487641,-2.09259 h 3.494832 q -0.07191,-0.99236 -0.42427,-1.48135 -0.510562,-0.71191 -1.301573,-0.71191 -0.71191,0 -1.215281,0.59686 -0.503371,0.58966 -0.553708,1.5964 z"
         style="font-size:14.72719097px;line-height:1.25;fill:#333333;fill-opacity:1;stroke-width:0.92554802"
         id="path1251" />
      <path
         d="m 49.295962,124.97845 q -0.532135,0.55371 -1.107416,0.83416 -0.575281,0.28045 -1.193708,0.28045 -0.977978,0 -1.560449,-0.58967 -0.582472,-0.58966 -0.582472,-1.58921 0,-0.66157 0.273258,-1.17214 0.273259,-0.51056 0.747865,-0.7982 0.474607,-0.28764 1.438202,-0.42427 1.294383,-0.18696 1.898427,-0.44584 l 0.0072,-0.33079 q 0,-0.78382 -0.280449,-1.10022 -0.395506,-0.46023 -1.215281,-0.46023 -0.740674,0 -1.107416,0.30922 -0.366741,0.30202 -0.539325,1.14337 l -1.042697,-0.17259 q 0.222921,-1.22966 0.898876,-1.79056 0.683146,-0.5609 1.948764,-0.5609 0.985169,0 1.546068,0.37394 0.560899,0.36674 0.704719,0.91325 0.151011,0.54652 0.151011,1.59641 v 1.72584 q 0,1.81214 0.06472,2.28674 0.07191,0.46742 0.273259,0.91326 h -1.107416 q -0.165393,-0.3955 -0.21573,-0.94202 z m -0.08629,-2.89079 q -0.582471,0.28764 -1.733033,0.48899 -0.668764,0.11506 -0.934832,0.26607 -0.266067,0.14382 -0.417078,0.41708 -0.143821,0.26606 -0.143821,0.61842 0,0.54652 0.337978,0.87731 0.337977,0.32359 0.934831,0.32359 0.56809,0 1.028315,-0.29483 0.467416,-0.29483 0.697528,-0.78382 0.230112,-0.49618 0.230112,-1.4382 z"
         style="font-size:14.72719097px;line-height:1.25;fill:#333333;fill-opacity:1;stroke-width:0.92554802"
         id="path1253" />
      <path
         d="m 51.942256,125.92047 v -7.63685 h 0.956405 v 1.08584 q 0.345168,-0.63281 0.841348,-0.94202 0.503371,-0.31641 1.150562,-0.31641 0.503371,0 0.92764,0.20135 0.431461,0.19416 0.690338,0.51775 0.266067,0.31641 0.395505,0.82697 0.129438,0.51056 0.129438,1.56764 v 4.69573 h -1.064269 v -4.64539 q 0,-0.84135 -0.143821,-1.22966 -0.14382,-0.38832 -0.453033,-0.59686 -0.302023,-0.21573 -0.704719,-0.21573 -0.762248,0 -1.215281,0.56809 -0.453034,0.56809 -0.453034,1.94876 v 4.17079 z"
         style="font-size:14.72719097px;line-height:1.25;fill:#333333;fill-opacity:1;stroke-width:0.92554802"
         id="path1255" />
      <path
         d="m 62.735963,125.92047 v -0.96359 q -0.28764,0.5537 -0.740674,0.84854 -0.453034,0.28764 -0.977978,0.28764 -1.107415,0 -1.92,-1.0427 -0.805393,-1.04989 -0.805393,-2.94832 0,-1.30157 0.359551,-2.20764 0.35955,-0.90606 0.956404,-1.34472 0.604045,-0.43865 1.337528,-0.43865 0.524944,0 0.970787,0.28045 0.453034,0.27326 0.747865,0.76944 v -3.78247 h 1.06427 v 10.54202 z m -3.358202,-3.81123 q 0,1.48134 0.510562,2.20044 0.517752,0.71911 1.200899,0.71911 0.675955,0 1.172134,-0.69034 0.49618,-0.69034 0.49618,-2.08539 0,-1.6036 -0.49618,-2.33708 -0.496179,-0.74068 -1.251236,-0.74068 -0.668764,0 -1.150561,0.71191 -0.481798,0.70472 -0.481798,2.22203 z"
         style="font-size:14.72719097px;line-height:1.25;fill:#333333;fill-opacity:1;stroke-width:0.92554802"
         id="path1257" />
      <path
         d="m 68.373716,122.10204 q 0,-1.97752 0.826966,-2.98427 0.834158,-1.00674 2.106967,-1.00674 1.251236,0 2.092584,1.00674 0.841348,1.00675 0.841348,2.90517 0,2.05663 -0.826966,3.06337 -0.826966,1.00675 -2.106966,1.00675 -1.258427,0 -2.099776,-1.00675 -0.834157,-1.01393 -0.834157,-2.98427 z m 1.085843,0 q 0,1.48135 0.539326,2.20764 0.539325,0.71911 1.337528,0.71911 0.747865,0 1.28,-0.7263 0.539326,-0.73348 0.539326,-2.20045 0,-1.47415 -0.539326,-2.19325 -0.539326,-0.7263 -1.337528,-0.7263 -0.755057,0 -1.287191,0.7263 -0.532135,0.72629 -0.532135,2.19325 z"
         style="font-size:14.72719097px;line-height:1.25;fill:#333333;fill-opacity:1;stroke-width:0.92554802"
         id="path1259" />
      <path
         d="m 75.500011,128.84721 v -10.56359 h 0.970786 v 0.99236 q 0.359551,-0.61843 0.798203,-0.89169 0.438651,-0.27326 1.006741,-0.27326 0.740674,0 1.337528,0.43865 0.596854,0.43866 0.956405,1.33753 0.366741,0.89169 0.366741,2.15012 0,1.94876 -0.819775,3.00584 -0.812584,1.04989 -1.912809,1.04989 -0.488989,0 -0.913258,-0.25169 -0.42427,-0.25169 -0.733483,-0.71191 v 3.71775 z m 0.956404,-6.70202 q 0,1.48135 0.49618,2.18607 0.49618,0.69753 1.200899,0.69753 0.675955,0 1.186517,-0.7263 0.510562,-0.72629 0.510562,-2.24359 0,-1.49573 -0.49618,-2.21483 -0.49618,-0.7191 -1.20809,-0.7191 -0.64,0 -1.164944,0.77662 -0.524944,0.76944 -0.524944,2.2436 z"
         style="font-size:14.72719097px;line-height:1.25;fill:#333333;fill-opacity:1;stroke-width:0.92554802"
         id="path1261" />
      <path
         d="m 86.516635,123.46115 1.093034,0.16539 q -0.273259,1.22247 -0.99236,1.84809 -0.71191,0.61843 -1.768988,0.61843 -1.330338,0 -2.157304,-1.00675 -0.819775,-1.01393 -0.819775,-2.91955 0,-1.97752 0.826966,-3.01303 0.834158,-1.0427 2.106966,-1.0427 1.215281,0 2.027866,1.02113 0.812584,1.02112 0.812584,2.9555 l -0.0072,0.34517 h -4.674157 q 0.06472,1.28719 0.596854,1.94157 0.532134,0.65439 1.294382,0.65439 1.193707,0 1.661123,-1.56764 z m -3.48764,-2.09259 h 3.494831 q -0.07191,-0.99236 -0.424269,-1.48135 -0.510562,-0.71191 -1.301574,-0.71191 -0.71191,0 -1.21528,0.59686 -0.503371,0.58966 -0.553708,1.5964 z"
         style="font-size:14.72719097px;line-height:1.25;fill:#333333;fill-opacity:1;stroke-width:0.92554802"
         id="path1263" />
      <path
         d="m 88.961582,125.92047 v -7.63685 h 0.956404 v 1.08584 q 0.345169,-0.63281 0.841348,-0.94202 0.503371,-0.31641 1.150562,-0.31641 0.503371,0 0.927641,0.20135 0.43146,0.19416 0.690337,0.51775 0.266067,0.31641 0.395505,0.82697 0.129439,0.51056 0.129439,1.56764 v 4.69573 h -1.06427 v -4.64539 q 0,-0.84135 -0.14382,-1.22966 -0.143821,-0.38832 -0.453034,-0.59686 -0.302022,-0.21573 -0.704719,-0.21573 -0.762247,0 -1.215281,0.56809 -0.453034,0.56809 -0.453034,1.94876 v 4.17079 z"
         style="font-size:14.72719097px;line-height:1.25;fill:#333333;fill-opacity:1;stroke-width:0.92554802"
         id="path1265" />
      <path
         d="m 99.057758,128.84721 v -10.56359 h 0.970782 v 0.99236 q 0.35955,-0.61843 0.79821,-0.89169 0.43865,-0.27326 1.00674,-0.27326 0.74067,0 1.33753,0.43865 0.59685,0.43866 0.9564,1.33753 0.36674,0.89169 0.36674,2.15012 0,1.94876 -0.81977,3.00584 -0.81259,1.04989 -1.91281,1.04989 -0.48899,0 -0.91326,-0.25169 -0.42427,-0.25169 -0.73348,-0.71191 v 3.71775 z m 0.956402,-6.70202 q 0,1.48135 0.49618,2.18607 0.49618,0.69753 1.2009,0.69753 0.67596,0 1.18652,-0.7263 0.51056,-0.72629 0.51056,-2.24359 0,-1.49573 -0.49618,-2.21483 -0.49618,-0.7191 -1.20809,-0.7191 -0.64,0 -1.16494,0.77662 -0.52495,0.76944 -0.52495,2.2436 z"
         style="font-size:14.72719097px;line-height:1.25;fill:#333333;fill-opacity:1;stroke-width:0.92554802"
         id="path1267" />
      <path
         d="m 105.78855,125.92047 v -7.63685 h 0.9564 v 1.15775 q 0.36674,-0.80539 0.66877,-1.06427 0.30921,-0.26607 0.69033,-0.26607 0.53214,0 1.08585,0.41708 l -0.35956,1.2009 q -0.3955,-0.28045 -0.76943,-0.28045 -0.33798,0 -0.61843,0.2373 -0.28045,0.23731 -0.39551,0.66158 -0.20134,0.74067 -0.20134,1.57483 v 3.9982 z"
         style="font-size:14.72719097px;line-height:1.25;fill:#333333;fill-opacity:1;stroke-width:0.92554802"
         id="path1269" />
      <path
         d="m 109.42,122.10204 q 0,-1.97752 0.82697,-2.98427 0.83416,-1.00674 2.10697,-1.00674 1.25123,0 2.09258,1.00674 0.84135,1.00675 0.84135,2.90517 0,2.05663 -0.82697,3.06337 -0.82696,1.00675 -2.10696,1.00675 -1.25843,0 -2.09978,-1.00675 -0.83416,-1.01393 -0.83416,-2.98427 z m 1.08585,0 q 0,1.48135 0.53932,2.20764 0.53933,0.71911 1.33753,0.71911 0.74787,0 1.28,-0.7263 0.53933,-0.73348 0.53933,-2.20045 0,-1.47415 -0.53933,-2.19325 -0.53933,-0.7263 -1.33753,-0.7263 -0.75505,0 -1.28719,0.7263 -0.53213,0.72629 -0.53213,2.19325 z"
         style="font-size:14.72719097px;line-height:1.25;fill:#333333;fill-opacity:1;stroke-width:0.92554802"
         id="path1271" />
      <path
         d="m 120.60922,125.92047 v -0.96359 q -0.28764,0.5537 -0.74067,0.84854 -0.45304,0.28764 -0.97798,0.28764 -1.10742,0 -1.92,-1.0427 -0.8054,-1.04989 -0.8054,-2.94832 0,-1.30157 0.35956,-2.20764 0.35955,-0.90606 0.9564,-1.34472 0.60404,-0.43865 1.33753,-0.43865 0.52494,0 0.97078,0.28045 0.45304,0.27326 0.74787,0.76944 v -3.78247 h 1.06427 v 10.54202 z m -3.3582,-3.81123 q 0,1.48134 0.51056,2.20044 0.51775,0.71911 1.2009,0.71911 0.67595,0 1.17213,-0.69034 0.49618,-0.69034 0.49618,-2.08539 0,-1.6036 -0.49618,-2.33708 -0.49618,-0.74068 -1.25123,-0.74068 -0.66877,0 -1.15056,0.71191 -0.4818,0.70472 -0.4818,2.22203 z"
         style="font-size:14.72719097px;line-height:1.25;fill:#333333;fill-opacity:1;stroke-width:0.92554802"
         id="path1273" />
      <path
         d="m 127.38316,125.92047 v -1.1218 q -0.36675,0.64719 -0.86293,0.97079 -0.49618,0.3236 -1.12179,0.3236 -0.74068,0 -1.26562,-0.39551 -0.52495,-0.4027 -0.70472,-1.01393 -0.17259,-0.61124 -0.17259,-1.66832 v -4.73168 h 1.05708 v 4.2355 q 0,1.17933 0.11506,1.58203 0.12225,0.3955 0.43865,0.64 0.3236,0.2373 0.73348,0.2373 0.76225,0 1.25124,-0.62562 0.41708,-0.53933 0.41708,-1.97753 v -4.09168 h 1.06427 v 7.63685 z"
         style="font-size:14.72719097px;line-height:1.25;fill:#333333;fill-opacity:1;stroke-width:0.92554802"
         id="path1275" />
      <path
         d="m 134.11394,123.12317 1.04269,0.16539 q -0.17977,1.36629 -0.90606,2.08539 -0.71911,0.71911 -1.73304,0.71911 -1.22966,0 -2.02786,-1.00675 -0.79101,-1.01393 -0.79101,-2.99146 0,-1.99191 0.7982,-2.98427 0.80539,-0.99955 2.06382,-0.99955 0.97078,0 1.63236,0.60405 0.66876,0.60404 0.85573,1.81213 l -1.02832,0.19416 q -0.15101,-0.77663 -0.52494,-1.15775 -0.37393,-0.38832 -0.89888,-0.38832 -0.78382,0 -1.30157,0.69753 -0.51056,0.69034 -0.51056,2.20045 0,1.56045 0.48899,2.25798 0.49618,0.69753 1.26562,0.69753 0.60404,0 1.02831,-0.46023 0.43146,-0.46741 0.54652,-1.44539 z"
         style="font-size:14.72719097px;line-height:1.25;fill:#333333;fill-opacity:1;stroke-width:0.92554802"
         id="path1277" />
      <path
         d="m 138.41416,124.76272 0.14382,1.14337 q -0.43865,0.11506 -0.79101,0.11506 -0.55371,0 -0.89168,-0.21573 -0.33798,-0.22293 -0.46742,-0.60405 -0.12225,-0.38112 -0.12225,-1.5173 v -4.39371 h -0.77663 v -1.00674 h 0.77663 v -1.89124 l 1.05708,-0.77663 v 2.66787 h 1.07146 v 1.00674 h -1.07146 v 4.46562 q 0,0.61842 0.0935,0.7982 0.13662,0.25888 0.51056,0.25888 0.17977,0 0.46741,-0.0503 z"
         style="font-size:14.72719097px;line-height:1.25;fill:#333333;fill-opacity:1;stroke-width:0.92554802"
         id="path1279" />
      <path
         d="m 139.01101,123.64092 1.04989,-0.20135 q 0.0935,0.8054 0.51056,1.2009 0.41708,0.38832 1.10742,0.38832 0.69033,0 1.06427,-0.33798 0.38112,-0.34517 0.38112,-0.87011 0,-0.45304 -0.3236,-0.70472 -0.22292,-0.17259 -1.07865,-0.43146 -1.23685,-0.38113 -1.65393,-0.64719 -0.41708,-0.26607 -0.64719,-0.71191 -0.23011,-0.44585 -0.23011,-1.01394 0,-0.97798 0.62561,-1.58921 0.62562,-0.61124 1.73304,-0.61124 0.69753,0 1.22247,0.25169 0.53213,0.25168 0.81258,0.67595 0.28045,0.42427 0.38832,1.21528 l -1.03551,0.17259 q -0.14382,-1.25124 -1.3591,-1.25124 -0.69034,0 -1.02831,0.28045 -0.33798,0.27326 -0.33798,0.70472 0,0.42427 0.32359,0.66877 0.19416,0.14382 1.15057,0.46022 1.31595,0.42427 1.70427,0.67596 0.38831,0.24449 0.60404,0.67595 0.21573,0.42427 0.21573,1.01393 0,1.09304 -0.69753,1.76899 -0.69033,0.67596 -1.89123,0.67596 -2.25079,0 -2.61034,-2.45933 z"
         style="font-size:14.72719097px;line-height:1.25;fill:#333333;fill-opacity:1;stroke-width:0.92554802"
         id="path1281" />
      <path
         d="m 152.88248,125.92047 v -0.96359 q -0.28764,0.5537 -0.74067,0.84854 -0.45304,0.28764 -0.97798,0.28764 -1.10742,0 -1.92,-1.0427 -0.80539,-1.04989 -0.80539,-2.94832 0,-1.30157 0.35955,-2.20764 0.35955,-0.90606 0.9564,-1.34472 0.60405,-0.43865 1.33753,-0.43865 0.52494,0 0.97079,0.28045 0.45303,0.27326 0.74786,0.76944 v -3.78247 h 1.06427 v 10.54202 z m -3.3582,-3.81123 q 0,1.48134 0.51056,2.20044 0.51775,0.71911 1.2009,0.71911 0.67596,0 1.17214,-0.69034 0.49617,-0.69034 0.49617,-2.08539 0,-1.6036 -0.49617,-2.33708 -0.49618,-0.74068 -1.25124,-0.74068 -0.66876,0 -1.15056,0.71191 -0.4818,0.70472 -0.4818,2.22203 z"
         style="font-size:14.72719097px;line-height:1.25;fill:#333333;fill-opacity:1;stroke-width:0.92554802"
         id="path1283" />
      <path
         d="m 159.63484,124.97845 q -0.53213,0.55371 -1.10741,0.83416 -0.57528,0.28045 -1.19371,0.28045 -0.97798,0 -1.56045,-0.58967 -0.58247,-0.58966 -0.58247,-1.58921 0,-0.66157 0.27326,-1.17214 0.27326,-0.51056 0.74786,-0.7982 0.47461,-0.28764 1.4382,-0.42427 1.29439,-0.18696 1.89843,-0.44584 l 0.007,-0.33079 q 0,-0.78382 -0.28045,-1.10022 -0.3955,-0.46023 -1.21528,-0.46023 -0.74067,0 -1.10741,0.30922 -0.36674,0.30202 -0.53933,1.14337 l -1.0427,-0.17259 q 0.22293,-1.22966 0.89888,-1.79056 0.68315,-0.5609 1.94876,-0.5609 0.98517,0 1.54607,0.37394 0.5609,0.36674 0.70472,0.91325 0.15101,0.54652 0.15101,1.59641 v 1.72584 q 0,1.81214 0.0647,2.28674 0.0719,0.46742 0.27326,0.91326 h -1.10742 q -0.16539,-0.3955 -0.21573,-0.94202 z m -0.0863,-2.89079 q -0.58247,0.28764 -1.73303,0.48899 -0.66877,0.11506 -0.93483,0.26607 -0.26607,0.14382 -0.41708,0.41708 -0.14382,0.26606 -0.14382,0.61842 0,0.54652 0.33798,0.87731 0.33797,0.32359 0.93483,0.32359 0.56809,0 1.02831,-0.29483 0.46742,-0.29483 0.69753,-0.78382 0.23011,-0.49618 0.23011,-1.4382 z"
         style="font-size:14.72719097px;line-height:1.25;fill:#333333;fill-opacity:1;stroke-width:0.92554802"
         id="path1285" />
      <path
         d="m 164.64697,124.76272 0.14382,1.14337 q -0.43866,0.11506 -0.79101,0.11506 -0.55371,0 -0.89169,-0.21573 -0.33798,-0.22293 -0.46742,-0.60405 -0.12224,-0.38112 -0.12224,-1.5173 v -4.39371 h -0.77663 v -1.00674 h 0.77663 v -1.89124 l 1.05708,-0.77663 v 2.66787 h 1.07146 v 1.00674 h -1.07146 v 4.46562 q 0,0.61842 0.0935,0.7982 0.13663,0.25888 0.51056,0.25888 0.17978,0 0.46742,-0.0503 z"
         style="font-size:14.72719097px;line-height:1.25;fill:#333333;fill-opacity:1;stroke-width:0.92554802"
         id="path1287" />
      <path
         d="m 169.73102,124.97845 q -0.53213,0.55371 -1.10742,0.83416 -0.57528,0.28045 -1.1937,0.28045 -0.97798,0 -1.56045,-0.58967 -0.58247,-0.58966 -0.58247,-1.58921 0,-0.66157 0.27325,-1.17214 0.27326,-0.51056 0.74787,-0.7982 0.47461,-0.28764 1.4382,-0.42427 1.29438,-0.18696 1.89843,-0.44584 l 0.007,-0.33079 q 0,-0.78382 -0.28045,-1.10022 -0.39551,-0.46023 -1.21528,-0.46023 -0.74068,0 -1.10742,0.30922 -0.36674,0.30202 -0.53932,1.14337 l -1.0427,-0.17259 q 0.22292,-1.22966 0.89888,-1.79056 0.68314,-0.5609 1.94876,-0.5609 0.98517,0 1.54607,0.37394 0.5609,0.36674 0.70472,0.91325 0.15101,0.54652 0.15101,1.59641 v 1.72584 q 0,1.81214 0.0647,2.28674 0.0719,0.46742 0.27326,0.91326 h -1.10742 q -0.16539,-0.3955 -0.21573,-0.94202 z m -0.0863,-2.89079 q -0.58247,0.28764 -1.73304,0.48899 -0.66876,0.11506 -0.93483,0.26607 -0.26606,0.14382 -0.41708,0.41708 -0.14382,0.26606 -0.14382,0.61842 0,0.54652 0.33798,0.87731 0.33798,0.32359 0.93483,0.32359 0.56809,0 1.02832,-0.29483 0.46741,-0.29483 0.69753,-0.78382 0.23011,-0.49618 0.23011,-1.4382 z"
         style="font-size:14.72719097px;line-height:1.25;fill:#333333;fill-opacity:1;stroke-width:0.92554802"
         id="path1289" />
      <path
         d="m 173.35529,125.92047 h -0.98517 v -10.54202 h 1.05708 v 3.7609 q 0.33798,-0.51776 0.76225,-0.76944 0.43146,-0.25888 0.9564,-0.25888 0.73349,0 1.33034,0.43865 0.60405,0.43866 0.9636,1.33034 0.35955,0.89169 0.35955,2.1645 0,1.94157 -0.81259,2.99865 -0.81258,1.04989 -1.89842,1.04989 -0.54652,0 -0.98517,-0.28045 -0.43146,-0.28764 -0.74787,-0.84854 z m -0.0144,-3.87595 q 0,1.18651 0.21573,1.77618 0.21573,0.58966 0.61124,0.89887 0.3955,0.30922 0.8773,0.30922 0.65438,0 1.15775,-0.73349 0.51056,-0.74067 0.51056,-2.20764 0,-1.50292 -0.48898,-2.20764 -0.48899,-0.70472 -1.2009,-0.70472 -0.65438,0 -1.17214,0.74068 -0.51056,0.73348 -0.51056,2.12854 z"
         style="font-size:14.72719097px;line-height:1.25;fill:#333333;fill-opacity:1;stroke-width:0.92554802"
         id="path1291" />
      <path
         d="m 183.19258,124.97845 q -0.53213,0.55371 -1.10741,0.83416 -0.57528,0.28045 -1.19371,0.28045 -0.97798,0 -1.56045,-0.58967 -0.58247,-0.58966 -0.58247,-1.58921 0,-0.66157 0.27326,-1.17214 0.27326,-0.51056 0.74786,-0.7982 0.47461,-0.28764 1.4382,-0.42427 1.29439,-0.18696 1.89843,-0.44584 l 0.007,-0.33079 q 0,-0.78382 -0.28045,-1.10022 -0.3955,-0.46023 -1.21528,-0.46023 -0.74067,0 -1.10741,0.30922 -0.36675,0.30202 -0.53933,1.14337 l -1.0427,-0.17259 q 0.22292,-1.22966 0.89888,-1.79056 0.68315,-0.5609 1.94876,-0.5609 0.98517,0 1.54607,0.37394 0.5609,0.36674 0.70472,0.91325 0.15101,0.54652 0.15101,1.59641 v 1.72584 q 0,1.81214 0.0647,2.28674 0.0719,0.46742 0.27326,0.91326 h -1.10742 q -0.16539,-0.3955 -0.21573,-0.94202 z m -0.0863,-2.89079 q -0.58247,0.28764 -1.73303,0.48899 -0.66877,0.11506 -0.93483,0.26607 -0.26607,0.14382 -0.41708,0.41708 -0.14382,0.26606 -0.14382,0.61842 0,0.54652 0.33797,0.87731 0.33798,0.32359 0.93484,0.32359 0.56809,0 1.02831,-0.29483 0.46742,-0.29483 0.69753,-0.78382 0.23011,-0.49618 0.23011,-1.4382 z"
         style="font-size:14.72719097px;line-height:1.25;fill:#333333;fill-opacity:1;stroke-width:0.92554802"
         id="path1293" />
      <path
         d="m 185.43618,123.64092 1.04989,-0.20135 q 0.0935,0.8054 0.51056,1.2009 0.41708,0.38832 1.10742,0.38832 0.69033,0 1.06427,-0.33798 0.38112,-0.34517 0.38112,-0.87011 0,-0.45304 -0.3236,-0.70472 -0.22292,-0.17259 -1.07865,-0.43146 -1.23685,-0.38113 -1.65393,-0.64719 -0.41708,-0.26607 -0.64719,-0.71191 -0.23011,-0.44585 -0.23011,-1.01394 0,-0.97798 0.62561,-1.58921 0.62562,-0.61124 1.73304,-0.61124 0.69753,0 1.22247,0.25169 0.53214,0.25168 0.81258,0.67595 0.28045,0.42427 0.38832,1.21528 l -1.03551,0.17259 q -0.14382,-1.25124 -1.3591,-1.25124 -0.69033,0 -1.02831,0.28045 -0.33798,0.27326 -0.33798,0.70472 0,0.42427 0.3236,0.66877 0.19415,0.14382 1.15056,0.46022 1.31595,0.42427 1.70427,0.67596 0.38831,0.24449 0.60404,0.67595 0.21573,0.42427 0.21573,1.01393 0,1.09304 -0.69753,1.76899 -0.69033,0.67596 -1.89123,0.67596 -2.25079,0 -2.61034,-2.45933 z"
         style="font-size:14.72719097px;line-height:1.25;fill:#333333;fill-opacity:1;stroke-width:0.92554802"
         id="path1295" />
      <path
         d="m 196.16517,123.46115 1.09304,0.16539 q -0.27326,1.22247 -0.99236,1.84809 -0.71191,0.61843 -1.76899,0.61843 -1.33034,0 -2.15731,-1.00675 -0.81977,-1.01393 -0.81977,-2.91955 0,-1.97752 0.82696,-3.01303 0.83416,-1.0427 2.10697,-1.0427 1.21528,0 2.02787,1.02113 0.81258,1.02112 0.81258,2.9555 l -0.007,0.34517 h -4.67416 q 0.0647,1.28719 0.59686,1.94157 0.53213,0.65439 1.29438,0.65439 1.19371,0 1.66112,-1.56764 z m -3.48764,-2.09259 h 3.49483 q -0.0719,-0.99236 -0.42427,-1.48135 -0.51056,-0.71191 -1.30157,-0.71191 -0.71191,0 -1.21528,0.59686 -0.50337,0.58966 -0.55371,1.5964 z"
         style="font-size:14.72719097px;line-height:1.25;fill:#333333;fill-opacity:1;stroke-width:0.92554802"
         id="path1297" />
    </g>
    <rect
       style="fill:none"
       id="rect3725"
       width="1"
       height="1"
       x="1"
       y="140"
       inkscape:export-filename="C:\Users\Stéphane\Desktop\Blogs\OpenFoodFacts\test-178.png"
       inkscape:export-xdpi="90"
       inkscape:export-ydpi="90" />
    <g
       aria-label="OPEN PRODUCTS FACTS"
       transform="scale(0.88086982,1.1352415)"
       style="font-style:normal;font-variant:normal;font-weight:normal;font-stretch:normal;font-size:20.31841469px;line-height:120.00000477%;font-family:'Arial Narrow';-inkscape-font-specification:'Arial Narrow';letter-spacing:0px;word-spacing:0px;fill:#333333;fill-opacity:1;stroke:none;stroke-width:0.50796038px;stroke-linecap:butt;stroke-linejoin:miter;stroke-opacity:1"
       id="text995">
      <path
         d="m 0.33527318,94.044103 q 0,-3.720412 1.63698162,-5.714554 1.6369817,-2.004062 4.0775725,-2.004062 1.5774551,0 2.8771193,0.892899 1.2996644,0.892899 2.0536674,2.599328 0.763925,1.696509 0.763925,4.04781 0,3.234278 -1.468323,5.268104 -1.6171391,2.242172 -4.2363098,2.242172 -2.6390128,0 -4.2462312,-2.301698 Q 0.33527318,96.99067 0.33527318,94.044103 Z m 1.62706052,0.02976 q 0,2.688618 1.180611,4.176783 1.1905321,1.478244 2.8870404,1.478244 1.7361927,0 2.9068826,-1.498086 1.1806113,-1.498086 1.1806113,-4.404969 0,-1.875088 -0.6051875,-3.353332 -0.4662917,-1.131005 -1.4087963,-1.80564 -0.9325835,-0.684556 -2.0437468,-0.684556 -1.7857982,0 -2.946567,1.488165 -1.1508477,1.488165 -1.1508477,4.603391 z"
         style="stroke-width:0.50796038px"
         id="path1300" />
      <path
         d="M 13.758523,101.12777 V 86.583436 h 4.494258 q 1.587377,0 2.34138,0.27779 1.031795,0.377002 1.646903,1.398876 0.615108,1.021873 0.615108,2.510038 0,1.964378 -1.002031,3.204516 -1.002031,1.240137 -3.462464,1.240137 h -3.055699 v 5.912977 z m 1.577455,-7.629327 h 3.085462 q 1.458402,0 2.133037,-0.654793 0.674635,-0.664714 0.674635,-1.994141 0,-0.863136 -0.337318,-1.478244 -0.327396,-0.615108 -0.803609,-0.843294 -0.466292,-0.228185 -1.696508,-0.228185 h -3.055699 z"
         style="stroke-width:0.50796038px"
         id="path1302" />
      <path
         d="M 24.899918,101.12777 V 86.583436 h 8.621437 v 1.71635 h -7.043982 v 4.454574 h 6.597532 v 1.70643 h -6.597532 v 4.950629 h 7.321773 v 1.716351 z"
         style="stroke-width:0.50796038px"
         id="path1304" />
      <path
         d="M 35.932183,101.12777 V 86.583436 h 1.617139 l 6.270136,11.419187 V 86.583436 h 1.508007 V 101.12777 H 43.710326 L 37.450111,89.698661 v 11.429109 z"
         style="stroke-width:0.50796038px"
         id="path1306" />
      <path
         d="M 52.649238,101.12777 V 86.583436 h 4.494259 q 1.587376,0 2.34138,0.27779 1.031794,0.377002 1.646903,1.398876 0.615108,1.021873 0.615108,2.510038 0,1.964378 -1.002031,3.204516 -1.002032,1.240137 -3.462465,1.240137 h -3.055699 v 5.912977 z m 1.577455,-7.629327 h 3.085463 q 1.458402,0 2.133036,-0.654793 0.674635,-0.664714 0.674635,-1.994141 0,-0.863136 -0.337317,-1.478244 -0.327396,-0.615108 -0.803609,-0.843294 -0.466292,-0.228185 -1.696509,-0.228185 h -3.055699 z"
         style="stroke-width:0.50796038px"
         id="path1308" />
      <path
         d="M 63.75095,101.12777 V 86.583436 h 5.287947 q 1.656824,0 2.440591,0.406765 0.793688,0.406765 1.299664,1.35919 0.505976,0.942505 0.505976,2.192564 0,1.646903 -0.863135,2.668776 -0.853215,1.021873 -2.490197,1.299664 0.664714,0.396844 1.011953,0.803609 0.704398,0.833373 1.240137,1.855246 l 2.083431,3.95852 h -1.98422 L 70.695721,98.101834 Q 69.773059,96.325957 69.296846,95.710848 68.830554,95.09574 68.384105,94.887397 67.947576,94.669133 67.153888,94.669133 h -1.825482 v 6.458637 z m 1.577456,-8.125382 h 3.393016 q 1.111163,0 1.686587,-0.26787 0.575424,-0.26787 0.912741,-0.843293 0.337318,-0.575424 0.337318,-1.339349 0,-1.101242 -0.644872,-1.726272 -0.644871,-0.63495 -1.914772,-0.63495 h -3.770018 z"
         style="stroke-width:0.50796038px"
         id="path1310" />
      <path
         d="m 75.338798,94.044103 q 0,-3.720412 1.636982,-5.714554 1.636981,-2.004062 4.077572,-2.004062 1.577455,0 2.877119,0.892899 1.299665,0.892899 2.053668,2.599328 0.763925,1.696509 0.763925,4.04781 0,3.234278 -1.468323,5.268104 -1.617139,2.242172 -4.23631,2.242172 -2.639013,0 -4.246231,-2.301698 -1.458402,-2.083432 -1.458402,-5.029999 z m 1.627061,0.02976 q 0,2.688618 1.180611,4.176783 1.190532,1.478244 2.88704,1.478244 1.736193,0 2.906882,-1.498086 1.180611,-1.498086 1.180611,-4.404969 0,-1.875088 -0.605187,-3.353332 -0.466291,-1.131005 -1.408796,-1.80564 -0.932584,-0.684556 -2.043747,-0.684556 -1.785798,0 -2.946567,1.488165 -1.150847,1.488165 -1.150847,4.603391 z"
         style="stroke-width:0.50796038px"
         id="path1312" />
      <path
         d="M 88.722362,101.12777 V 86.583436 h 4.117257 q 1.52785,0 2.321538,0.267869 1.041715,0.347239 1.80564,1.269901 0.763925,0.922663 1.190532,2.331459 0.426607,1.398875 0.426607,3.323569 0,2.470354 -0.72424,4.196625 -0.72424,1.716351 -1.865167,2.440591 -1.131005,0.71432 -2.966409,0.71432 z m 1.577455,-1.716351 h 2.539802 q 1.537771,0 2.331459,-0.496055 0.793688,-0.505976 1.220295,-1.617139 0.565503,-1.478245 0.565503,-3.541834 0,-2.212405 -0.605187,-3.472385 -0.595266,-1.269901 -1.537771,-1.696508 -0.63495,-0.287712 -2.013983,-0.287712 h -2.500118 z"
         style="stroke-width:0.50796038px"
         id="path1314" />
      <path
         d="m 108.57449,86.583436 h 1.58737 v 8.403172 q 0,2.113194 -0.41668,3.472385 -0.40677,1.34927 -1.49809,2.133037 -1.0814,0.78377 -2.75807,0.78377 -2.36122,0 -3.54183,-1.408799 -1.17069,-1.408797 -1.17069,-4.980393 v -8.403172 h 1.57746 v 8.393251 q 0,1.974299 0.30755,2.857277 0.30755,0.882978 1.00203,1.34927 0.7044,0.45637 1.70643,0.45637 1.68659,0 2.44059,-0.952425 0.76393,-0.952426 0.76393,-3.710492 z"
         style="stroke-width:0.50796038px"
         id="path1316" />
      <path
         d="m 121.27349,96.028324 1.58738,0.486134 q -0.52582,2.450511 -1.84533,3.660882 -1.30958,1.20046 -3.19459,1.20046 -1.65683,0 -2.83744,-0.80361 -1.17069,-0.813532 -1.92469,-2.599331 -0.74408,-1.785798 -0.74408,-4.216468 0,-2.400906 0.74408,-4.05773 0.754,-1.666745 2.03382,-2.510038 1.27983,-0.853215 2.85728,-0.853215 1.72627,0 2.96641,1.0814 1.24014,1.071479 1.73619,3.15491 l -1.54769,0.44645 q -0.79369,-3.035857 -3.18467,-3.035857 -1.19053,0 -2.06359,0.615108 -0.87306,0.605187 -1.39888,1.89493 -0.51589,1.289743 -0.51589,3.264042 0,2.986252 1.05163,4.484338 1.05164,1.488165 2.79775,1.488165 1.28975,0 2.22233,-0.912741 0.9425,-0.922662 1.25998,-2.787829 z"
         style="stroke-width:0.50796038px"
         id="path1318" />
      <path
         d="M 127.89087,101.12777 V 88.299786 h -3.92876 v -1.71635 h 9.45481 v 1.71635 h -3.9486 v 12.827984 z"
         style="stroke-width:0.50796038px"
         id="path1320" />
      <path
         d="m 134.49832,96.454931 1.48816,-0.158738 q 0.11906,1.200454 0.53574,1.875088 0.42661,0.664714 1.21038,1.071479 0.78376,0.406765 1.76595,0.406765 1.4088,0 2.18264,-0.684556 0.78377,-0.694477 0.78377,-1.795719 0,-0.644871 -0.28771,-1.121084 -0.27779,-0.486134 -0.85321,-0.793688 -0.56551,-0.307554 -2.46044,-0.863136 -1.68658,-0.496055 -2.4009,-1.002031 -0.71432,-0.505976 -1.11117,-1.279822 -0.39684,-0.783767 -0.39684,-1.765956 0,-1.765956 1.14093,-2.887041 1.14092,-1.121084 3.07554,-1.121084 1.32942,0 2.32153,0.525818 1.00204,0.525819 1.5477,1.508008 0.55558,0.982189 0.59526,2.311616 l -1.51793,0.138896 q -0.11905,-1.418718 -0.85321,-2.103274 -0.72424,-0.684556 -2.04375,-0.684556 -1.33935,0 -2.04374,0.605187 -0.7044,0.595266 -0.7044,1.547692 0,0.882978 0.51589,1.369112 0.5159,0.486134 2.32154,0.982189 1.76596,0.486134 2.48028,0.843294 1.09132,0.555581 1.6469,1.468323 0.55558,0.90282 0.55558,2.1628 0,1.250058 -0.58534,2.281853 -0.58535,1.021874 -1.5973,1.557614 -1.00203,0.53574 -2.42075,0.53574 -2.2124,0 -3.53191,-1.32943 -1.30959,-1.329427 -1.35919,-3.601359 z"
         style="stroke-width:0.50796038px"
         id="path1322" />
      <path
         d="M 150.8979,101.12777 V 86.583436 h 8.04602 v 1.71635 h -6.46856 v 4.50418 h 5.5955 v 1.71635 h -5.5955 v 6.607454 z"
         style="stroke-width:0.50796038px"
         id="path1324" />
      <path
         d="m 158.78517,101.12777 4.58355,-14.544334 h 1.69651 l 4.88118,14.544334 h -1.80564 l -1.38895,-4.404969 h -4.9804 l -1.30958,4.404969 z m 3.44262,-5.972503 h 4.03789 L 165.02554,91.1273 q -0.57542,-1.855246 -0.84329,-3.016015 -0.22818,1.398875 -0.64487,2.777908 z"
         style="stroke-width:0.50796038px"
         id="path1326" />
      <path
         d="m 179.68894,96.028324 1.58738,0.486134 q -0.52582,2.450511 -1.84533,3.660882 -1.30958,1.20046 -3.19459,1.20046 -1.65683,0 -2.83744,-0.80361 -1.17069,-0.813532 -1.92469,-2.599331 -0.74408,-1.785798 -0.74408,-4.216468 0,-2.400906 0.74408,-4.05773 0.754,-1.666745 2.03382,-2.510038 1.27983,-0.853215 2.85728,-0.853215 1.72627,0 2.96641,1.0814 1.24014,1.071479 1.73619,3.15491 l -1.54769,0.44645 q -0.79369,-3.035857 -3.18467,-3.035857 -1.19053,0 -2.06359,0.615108 -0.87306,0.605187 -1.39888,1.89493 -0.51589,1.289743 -0.51589,3.264042 0,2.986252 1.05163,4.484338 1.05164,1.488165 2.79775,1.488165 1.28975,0 2.22233,-0.912741 0.94251,-0.922662 1.25998,-2.787829 z"
         style="stroke-width:0.50796038px"
         id="path1328" />
      <path
         d="M 186.30631,101.12777 V 88.299786 h -3.92876 v -1.71635 h 9.45481 v 1.71635 h -3.9486 v 12.827984 z"
         style="stroke-width:0.50796038px"
         id="path1330" />
      <path
         d="m 192.91377,96.454931 1.48816,-0.158738 q 0.11906,1.200454 0.53574,1.875088 0.42661,0.664714 1.21038,1.071479 0.78376,0.406765 1.76595,0.406765 1.4088,0 2.18265,-0.684556 0.78376,-0.694477 0.78376,-1.795719 0,-0.644871 -0.28771,-1.121084 -0.27779,-0.486134 -0.85321,-0.793688 -0.56551,-0.307554 -2.46044,-0.863136 -1.68658,-0.496055 -2.4009,-1.002031 -0.71432,-0.505976 -1.11117,-1.279822 -0.39684,-0.783767 -0.39684,-1.765956 0,-1.765956 1.14093,-2.887041 1.14092,-1.121084 3.07554,-1.121084 1.32942,0 2.32154,0.525818 1.00203,0.525819 1.54769,1.508008 0.55558,0.982189 0.59526,2.311616 l -1.51793,0.138896 q -0.11905,-1.418718 -0.85321,-2.103274 -0.72424,-0.684556 -2.04375,-0.684556 -1.33935,0 -2.04374,0.605187 -0.7044,0.595266 -0.7044,1.547692 0,0.882978 0.5159,1.369112 0.51589,0.486134 2.32153,0.982189 1.76596,0.486134 2.48028,0.843294 1.09132,0.555581 1.6469,1.468323 0.55558,0.90282 0.55558,2.1628 0,1.250058 -0.58534,2.281853 -0.58535,1.021874 -1.5973,1.557614 -1.00203,0.53574 -2.42075,0.53574 -2.2124,0 -3.53191,-1.32943 -1.30959,-1.329427 -1.35919,-3.601359 z"
         style="stroke-width:0.50796038px"
         id="path1332" />
    </g>
    <path
       style="fill:#00ccff;fill-opacity:1;fill-rule:evenodd;stroke:none;stroke-width:0.32412744"
       d="M 160.48242 41.960938 C 149.79035 41.960938 144.27539 43.480002 144.27539 51.685547 C 144.27539 57.515093 155.73247 63.21705 156.55078 70 C 156.59598 70.468182 156.61715 70.939332 156.59375 71.416016 L 154 95 L 157 95 L 157 70 L 158 70 L 158 95 L 162 95 L 162 70 L 163 70 L 163 95 L 164 95 L 164 70 L 164.33789 70 C 164.74993 63.258054 176.68945 57.515779 176.68945 51.685547 C 176.68945 43.480002 171.17448 41.960937 160.48242 41.960938 z M 156.20898 45 C 157.33131 45.02278 158.45662 45.203125 160.48242 45.203125 C 163.7237 45.203125 164.7422 44.794738 166.96484 45.203125 C 170.32812 45.821083 173.44727 47.782392 173.44727 51.685547 C 173.44727 54.2982 171.67661 58.074703 166.96484 58.167969 C 165.21989 58.202459 163.1103 56.546875 160.48242 56.546875 C 157.86148 56.546875 155.74249 58.202094 154 58.167969 C 149.27777 58.075419 147.51758 54.300754 147.51758 51.685547 C 147.51758 47.899146 150.77458 45.858092 154 45.203125 C 154.86127 45.028232 155.53559 44.986334 156.20898 45 z M 165 77.132812 L 165 95 L 166.96484 95 L 165 77.132812 z "
       id="path1204" />
  </g>
</svg>
