<?xml version="1.0" encoding="UTF-8" standalone="no"?>
<svg
   xmlns:dc="http://purl.org/dc/elements/1.1/"
   xmlns:cc="http://creativecommons.org/ns#"
   xmlns:rdf="http://www.w3.org/1999/02/22-rdf-syntax-ns#"
   xmlns:svg="http://www.w3.org/2000/svg"
   xmlns="http://www.w3.org/2000/svg"
   xmlns:sodipodi="http://sodipodi.sourceforge.net/DTD/sodipodi-0.dtd"
   xmlns:inkscape="http://www.inkscape.org/namespaces/inkscape"
   width="178"
   height="144"
   id="svg8313"
   version="1.1"
   inkscape:version="1.0 (4035a4fb49, 2020-05-01)"
   sodipodi:docname="openfoodfacts-logo-fi.svg">
  <style
     id="style193">
   :root {
     font-style: normal;
     font-variant: normal;
     font-weight: normal;
     font-stretch: normal;
     line-height: 125%;
     font-family: 'Arial Narrow';
     -inkscape-font-specification: 'Arial Narrow';
     letter-spacing: 0px;
     word-spacing: 0px;
     fill-opacity: 1;
     stroke: none;
   }
   #site-name {
     font-size: 22.90272331px;
     fill: #333333;
   }
   #site-slogan {
     font-size: 16.94345474px;
     fill: #333333;
   }
   @media (prefers-color-scheme: dark) {
     #site-name,#site-slogan {
       fill: #ffffff;
	 }
   }
   .design-element
   {
     fill-rule: nonzero;
	 stroke: none;
   }
   .red {
     fill: #ff0000;
   }
   .yellow {
     fill: #ffcc00;
   }
   .green {
     fill: #00d400;
   }
   .cyan {
     fill: #00ccff;
   }
   .blue {
     fill: #0066ff;
   }
  </style>
  <defs
     id="defs8315" />
  <sodipodi:namedview
     id="base"
     pagecolor="#ffffff"
     bordercolor="#666666"
     borderopacity="1.0"
     inkscape:pageopacity="0.0"
     inkscape:pageshadow="2"
     inkscape:zoom="5.5850744"
     inkscape:cx="111.33521"
     inkscape:cy="70.41406"
     inkscape:document-units="px"
     inkscape:current-layer="layer1"
     showgrid="true"
     inkscape:window-width="1920"
     inkscape:window-height="1017"
     inkscape:window-x="1912"
     inkscape:window-y="-8"
     inkscape:window-maximized="1"
     inkscape:snap-global="true"
     inkscape:document-rotation="0">
    <inkscape:grid
       type="xygrid"
       id="grid8566" />
  </sodipodi:namedview>
  <metadata
     id="metadata8318">
    <rdf:RDF>
      <cc:Work
         rdf:about="">
        <dc:format>image/svg+xml</dc:format>
        <dc:type
           rdf:resource="http://purl.org/dc/dcmitype/StillImage" />
        <dc:title />
      </cc:Work>
    </rdf:RDF>
  </metadata>
  <g
     inkscape:label="Layer 1"
     inkscape:groupmode="layer"
     id="layer1">
    <g
       transform="matrix(0.89476596,0,0,0.89458574,-763.01815,-727.33576)"
       id="bars"
       class="design-element">
      <path
         inkscape:connector-curvature="0"
         class="blue"
         d="m 1042.7511,944.94661 0,5.58918 c 2.9792,0 5.9616,0 8.9408,0 l 0,-5.58918 c -2.9792,0 -5.9616,0 -8.9407,0 z"
         id="path8169"
         inkscape:export-xdpi="112.45"
         inkscape:export-ydpi="112.45"
         sodipodi:nodetypes="cccccc" />
      <path
         inkscape:connector-curvature="0"
         class="cyan"
         d="m 1024.8693,944.94661 0,5.58918 c 4.8438,0 9.6851,0 14.5289,0 l 0,-5.58918 c -4.8438,0 -9.6851,0 -14.5289,0 z"
         id="path8171"
         inkscape:export-xdpi="112.45"
         inkscape:export-ydpi="112.45"
         sodipodi:nodetypes="ccccc" />
      <path
         inkscape:connector-curvature="0"
         class="green"
         d="m 958.93025,944.94661 0,5.58918 c 20.85417,0 41.73205,0 62.58625,0 l 0,-5.58918 c -20.8542,0 -41.73208,0 -62.58625,0 z"
         id="path8173"
         inkscape:export-xdpi="112.45"
         inkscape:export-ydpi="112.45"
         sodipodi:nodetypes="ccccc" />
      <path
         inkscape:connector-curvature="0"
         class="yellow"
         d="m 894.10883,944.94661 0,5.58918 c 20.48959,0 40.97901,0 61.46859,0 l 0,-5.58918 c -20.48958,0 -40.979,0 -61.46859,0 z"
         id="path8175"
         inkscape:export-xdpi="112.45"
         inkscape:export-ydpi="112.45"
         sodipodi:nodetypes="ccccc" />
      <path
         inkscape:connector-curvature="0"
         class="red"
         d="m 852.75724,944.94661 0,5.58918 c 12.66667,0 25.3321,0 37.99876,0 l 0,-5.58918 c -12.66666,0 -25.33209,0 -37.99876,0 z"
         id="path8177"
         inkscape:export-xdpi="112.45"
         inkscape:export-ydpi="112.45"
         sodipodi:nodetypes="ccccc" />
    </g>
    <g
       id="site-name"
       transform="translate(0,2.6378174)">
      <path
         d="m 0.29533203,104.18406 c -9.5e-7,-2.79573 0.61506181,-4.944723 1.84519007,-6.446982 1.2301228,-1.50223 2.7621882,-2.253352 4.5962009,-2.253369 1.1853862,1.7e-5 2.2664056,0.335506 3.2430614,1.006468 0.9766346,0.670993 1.7501226,1.645774 2.3204666,2.924346 0.570318,1.278597 0.855483,2.801347 0.855497,4.568247 -1.4e-5,2.43043 -0.551707,4.40982 -1.65508,5.93815 -1.215227,1.68491 -2.8069346,2.52736 -4.775128,2.52736 -1.9831188,0 -3.5785543,-0.86482 -4.7863113,-2.59445 -1.09593262,-1.56562 -1.64389762,-3.45554 -1.64389667,-5.66977 z m 1.83400717,0.0335 c -2.8e-6,2.0204 0.4454517,3.58787 1.3363649,4.70244 0.890905,1.11457 1.9737882,1.67185 3.2486529,1.67185 1.3046712,0 2.3987374,-0.56287 3.2822018,-1.68863 0.8834432,-1.12574 1.3251702,-2.78082 1.3251822,-4.96524 -1.2e-5,-1.40904 -0.227399,-2.66899 -0.682161,-3.77984 C 10.289169,99.308298 9.761706,98.628001 9.0571893,98.117299 8.3526532,97.606624 7.5828928,97.35128 6.7479059,97.351265 5.4059434,97.35128 4.3006943,97.910428 3.4321552,99.028711 2.563608,100.14702 2.1293364,101.87665 2.1293392,104.21761 Z"
         id="path3685"
         inkscape:connector-curvature="0" />
      <path
         d="m 15,112.36218 0,-16.999997 4.674837,0 c 1.224167,1.6e-5 2.126995,0.107131 2.708487,0.321346 0.795704,0.290757 1.430744,0.830159 1.905122,1.618206 0.474357,0.788077 0.711542,1.755941 0.711554,2.903595 -1.2e-5,1.51492 -0.386392,2.75057 -1.159142,3.70695 -0.772771,0.9564 -2.107912,1.42433 -4.005348,1.43458 L 17,105.36218 l 0,7 z m 2,-9 2.86994,-7.7e-4 c 1.124703,-3e-4 1.947195,-0.25439 2.467477,-0.7632 0.520265,-0.50879 0.780403,-1.27581 0.780412,-2.30107 -9e-6,-0.665632 -0.128166,-1.235638 -0.384467,-1.710022 -0.256321,-0.474353 -0.56619,-0.799524 -0.929608,-0.975514 -0.363435,-0.17596 -1.019516,-0.263948 -1.968244,-0.263963 L 17,97.362183 Z"
         id="path3687"
         inkscape:connector-curvature="0"
         sodipodi:nodetypes="ccccccssccccsscccccc" />
      <path
         d="m 27,112.36218 0,-16.999997 10,0 0,2 -8,0 0,4.999997 7,0 0,2 -7,0 0,6 8,0 0,2 z"
         id="path3689"
         inkscape:connector-curvature="0"
         sodipodi:nodetypes="ccccccccccccc" />
      <path
         d="m 39,112.36218 0,-16.999997 2,0 7,12.999997 0,-12.999997 2,0 0,16.999997 -2,0 -7,-12.999997 0,12.999997 z"
         id="path3691"
         inkscape:connector-curvature="0"
         sodipodi:nodetypes="ccccccccccc" />
      <path
         d="m 58,112.36218 0,-16.999997 9,0 0,2 -7,0 0,4.999997 6,0 0,2 -6,0 0,8 z"
         id="path3693"
         inkscape:connector-curvature="0"
         sodipodi:nodetypes="ccccccccccc" />
      <path
         d="m 68.255995,104.18406 c -10e-7,-2.79573 0.615062,-4.944723 1.84519,-6.446982 1.230123,-1.50223 2.762188,-2.253352 4.596201,-2.253369 1.185386,1.7e-5 2.266405,0.335506 3.243061,1.006468 0.976635,0.670993 1.750123,1.645774 2.320467,2.924346 0.570318,1.278597 0.855483,2.801347 0.855497,4.568247 -1.4e-5,2.43043 -0.551707,4.40982 -1.65508,5.93815 -1.215227,1.68491 -2.806935,2.52736 -4.775128,2.52736 -1.983119,0 -3.578554,-0.86482 -4.786311,-2.59445 -1.095933,-1.56562 -1.643898,-3.45554 -1.643897,-5.66977 z m 1.834007,0.0335 c -3e-6,2.0204 0.445452,3.58787 1.336365,4.70244 0.890905,1.11457 1.973788,1.67185 3.248653,1.67185 1.304671,0 2.398737,-0.56287 3.282202,-1.68863 0.883443,-1.12574 1.32517,-2.78082 1.325182,-4.96524 -1.2e-5,-1.40904 -0.227399,-2.66899 -0.682162,-3.77984 -0.35041,-0.849892 -0.877873,-1.530189 -1.58239,-2.040891 -0.704536,-0.510675 -1.474296,-0.766019 -2.309283,-0.766034 -1.341963,1.5e-5 -2.447212,0.559163 -3.315751,1.677446 -0.868547,1.118309 -1.302819,2.847939 -1.302816,5.188899 z"
         id="path3695"
         inkscape:connector-curvature="0"
         sodipodi:nodetypes="sscccccscsssssccccss" />
      <path
         d="m 82.883322,104.18406 c -1e-6,-2.79573 0.615062,-4.944723 1.84519,-6.446982 1.230123,-1.50223 2.762188,-2.253352 4.596201,-2.253369 1.185386,1.7e-5 2.266405,0.335506 3.243061,1.006468 0.976635,0.670993 1.750123,1.645774 2.320467,2.924346 0.570317,1.278597 0.855483,2.801347 0.855497,4.568247 -1.4e-5,2.43043 -0.551707,4.40982 -1.65508,5.93815 -1.215227,1.68491 -2.806935,2.52736 -4.775128,2.52736 -1.983119,0 -3.578555,-0.86482 -4.786312,-2.59445 -1.095932,-1.56562 -1.643897,-3.45554 -1.643896,-5.66977 z m 1.834007,0.0335 c -3e-6,2.0204 0.445452,3.58787 1.336365,4.70244 0.890905,1.11457 1.973788,1.67185 3.248653,1.67185 1.304671,0 2.398737,-0.56287 3.282202,-1.68863 0.883443,-1.12574 1.32517,-2.78082 1.325182,-4.96524 -1.2e-5,-1.40904 -0.227399,-2.66899 -0.682162,-3.77984 -0.35041,-0.849892 -0.877873,-1.530189 -1.58239,-2.040891 -0.704536,-0.510675 -1.474296,-0.766019 -2.309283,-0.766034 -1.341963,1.5e-5 -2.447212,0.559163 -3.315751,1.677446 -0.868547,1.118309 -1.302819,2.847939 -1.302816,5.188899 z"
         id="path3697"
         inkscape:connector-curvature="0"
         sodipodi:nodetypes="sscccccscsssssccccss" />
      <path
         d="m 98,112.36218 0,-16.999997 5,0 c 1.21266,1.6e-5 2.00501,0.174276 2.63497,0.382679 0.82682,0.270189 1.54339,0.719576 2.14974,1.437449 0.60633,0.717903 1.0788,1.622982 1.41741,2.715233 0.33859,1.092286 0.50789,2.387186 0.5079,3.884706 -1e-5,1.9221 -0.28743,3.55278 -0.86225,4.89207 -0.57485,1.33928 -1.31309,2.28875 -2.21471,2.8484 -0.90163,0.55964 -2.17628,0.83946 -3.63306,0.83946 z m 2,-2 3,0 c 1.22054,0 2.01682,-0.19791 2.64678,-0.58773 0.62996,-0.38982 1.11424,-1.01701 1.45285,-1.88157 0.44883,-1.15015 0.67326,-2.52803 0.67327,-4.13365 -1e-5,-1.72137 -0.23822,-3.07416 -0.71461,-4.058372 -0.47642,-0.984193 -1.08866,-1.642257 -1.83673,-1.974198 C 104.71759,97.502677 104.09454,97.362198 103,97.362183 l -3,0 z"
         id="path3699"
         inkscape:connector-curvature="0"
         sodipodi:nodetypes="ccccccccssccssccccccc" />
      <path
         d="m 118,112.36218 0.0757,-16.999997 9,0 0,2 -7,3.8e-5 0,4.999999 6,0 0,2 -6,0 0,7.99996 z"
         id="path3701"
         inkscape:connector-curvature="0"
         sodipodi:nodetypes="ccccccccccc" />
      <path
         d="m 128.07572,112.36218 5,-16.999997 2,0 5,16.999997 -2,0 -4,-14.999997 -4.04025,14.999997 z"
         id="path3703"
         inkscape:connector-curvature="0"
         sodipodi:nodetypes="cccccccc" />
      <path
         d="m 151.36137,106.42065 1.78927,0.54797 c -0.39514,1.84147 -1.08662,3.21511 -2.07444,4.12092 -0.98784,0.90583 -2.19001,1.35874 -3.60651,1.35874 -1.24504,0 -2.30929,-0.30381 -3.19273,-0.91142 -0.88346,-0.6076 -1.60663,-1.58238 -2.1695,-2.92434 -0.56288,-1.34195 -0.84432,-2.92621 -0.84432,-4.75277 0,-1.80417 0.28144,-3.33065 0.84432,-4.579422 0.56287,-1.248751 1.32518,-2.191847 2.28692,-2.829292 0.96173,-0.637413 2.03529,-0.956127 3.22069,-0.956144 1.29722,1.7e-5 2.41179,0.404467 3.34371,1.213353 0.9319,0.808916 1.58424,1.996173 1.95702,3.561775 l -1.74454,0.50323 c -0.59644,-2.281308 -1.79302,-3.42197 -3.58974,-3.421985 -0.89464,1.5e-5 -1.66999,0.229266 -2.32605,0.687753 -0.65608,0.458516 -1.17981,1.172361 -1.57121,2.141542 -0.39141,0.9692 -0.58711,2.1956 -0.58711,3.67919 0,2.24406 0.39513,3.92709 1.1854,5.04912 0.79026,1.12202 1.84145,1.68303 3.15359,1.68303 0.96919,0 1.80605,-0.3448 2.51058,-1.03442 0.70452,-0.68962 1.17607,-1.73522 1.41465,-3.13683 z"
         id="path3705"
         inkscape:connector-curvature="0"
         sodipodi:nodetypes="ccsscssscccccccsssssc" />
      <path
         d="m 159,112.36218 0,-14.999997 -5,0.0061 0,-2.006138 12,0 0,2 -5,0 0,14.999995 z"
         id="path3707"
         inkscape:connector-curvature="0"
         sodipodi:nodetypes="ccccccccc" />
      <path
         d="m 167.26826,106.90152 1.67745,-0.17893 c 0.0895,0.9021 0.29262,1.60476 0.60947,2.10799 0.31685,0.50324 0.76976,0.90769 1.35873,1.21336 0.58897,0.30567 1.25249,0.4585 1.99057,0.4585 1.05865,0 1.88059,-0.25907 2.46585,-0.77722 0.58523,-0.51814 0.87785,-1.19098 0.87786,-2.01852 -1e-5,-0.48459 -0.10625,-0.90768 -0.31872,-1.26927 -0.21248,-0.36158 -0.53306,-0.65793 -0.96173,-0.88905 -0.42869,-0.23111 -1.35501,-0.55541 -2.77897,-0.97292 -1.26741,-0.37275 -2.1695,-0.74925 -2.70628,-1.12948 -0.53678,-0.38021 -0.95428,-0.86294 -1.25249,-1.44819 -0.29822,-0.58523 -0.44732,-1.24689 -0.44732,-1.98498 0,-1.32703 0.42868,-2.411777 1.28604,-3.254242 0.85736,-0.842434 2.01293,-1.263659 3.46672,-1.263676 0.99901,1.7e-5 1.87314,0.197583 2.62241,0.592698 0.74925,0.395147 1.33076,0.96175 1.74454,1.699811 0.41376,0.73809 0.63556,1.606633 0.66539,2.605629 l -1.711,0.15656 c -0.0895,-1.066092 -0.40818,-1.856355 -0.95614,-2.370785 -0.54797,-0.514402 -1.31773,-0.77161 -2.30928,-0.771625 -1.00648,1.5e-5 -1.77437,0.225538 -2.30369,0.67657 -0.52934,0.45106 -0.794,1.034438 -0.794,1.750135 0,0.663535 0.19384,1.177955 0.58152,1.543245 0.38767,0.36533 1.25994,0.73436 2.61681,1.10712 1.32704,0.36532 2.25896,0.68217 2.79575,0.95055 0.82007,0.41751 1.43886,0.96734 1.85637,1.64949 0.41749,0.68217 0.62623,1.49666 0.62625,2.44348 -2e-5,0.93937 -0.21995,1.79487 -0.6598,2.56649 -0.43987,0.77163 -1.03816,1.35873 -1.79487,1.76132 -0.75672,0.40258 -1.66813,0.60388 -2.73423,0.60388 -1.66254,0 -2.98772,-0.49951 -3.97555,-1.49852 -0.98783,-0.99901 -1.50038,-2.35215 -1.53766,-4.05942 z"
         id="path3709"
         inkscape:connector-curvature="0" />
      <path
         sodipodi:nodetypes="ccccc"
         inkscape:connector-curvature="0"
         id="path3713"
         d="m 137.07572,105.36218 0,2 -6,0 0,-2 z" />
    </g>
    <g
       transform="matrix(0.99237793,0,0,1.2375879,-0.19748965,125.34978)"
       id="site-slogan">
      <path
         d="M5.90966797,14.4928527 L10.2700195,0.892266762 L8.76708984,0.892266762 L5.75195312,10.7726379 C5.52929688,11.5086405 5.33138021,12.250828 5.15820312,12.9992004 C4.99121094,12.2817524 4.79638672,11.5395649 4.57373047,10.7726379 L4.57373047,10.7726379 L1.66992188,0.892266762 L0.07421875,0.892266762 L4.39746094,14.4928527 L5.90966797,14.4928527 Z M12.2522461,14.7155089 C12.7841471,14.7155089 13.2974935,14.5949035 13.7922852,14.3536925 C14.2870768,14.1124816 14.7633138,13.7537576 15.2209961,13.2775207 C15.2642904,13.7475728 15.3570638,14.1526834 15.4993164,14.4928527 L15.4993164,14.4928527 L16.9280273,14.4928527 C16.7548503,14.1093892 16.6388835,13.715102 16.580127,13.3099914 C16.5213704,12.9048807 16.4919922,11.9230285 16.4919922,10.3644347 L16.4919922,10.3644347 L16.4919922,8.13787223 C16.4919922,7.23487744 16.428597,6.548354 16.3018066,6.07830192 C16.1750163,5.60824984 15.8704102,5.21396273 15.3879883,4.89544059 C14.9055664,4.57691846 14.2406901,4.41765739 13.3933594,4.41765739 C12.3048177,4.41765739 11.4683105,4.65886832 10.8838379,5.1412902 C10.2993652,5.62371207 9.91126302,6.39373161 9.71953125,7.45134879 L9.71953125,7.45134879 L11.0647461,7.67400504 C11.2131836,6.95037223 11.4451172,6.45712679 11.7605469,6.19426872 C12.0759766,5.93141064 12.5522135,5.79998161 13.1892578,5.79998161 C13.8943359,5.79998161 14.4169596,5.99789827 14.7571289,6.39373161 C14.9983398,6.66586702 15.1189453,7.13901155 15.1189453,7.8131652 L15.1189453,7.8131652 L15.109668,8.23992301 C14.5901367,8.46257926 13.7737305,8.65431103 12.6604492,8.81511832 C11.8316732,8.93263135 11.2131836,9.11508577 10.8049805,9.36248161 C10.3967773,9.60987744 10.0751628,9.95313916 9.84013672,10.3922668 C9.60511068,10.8313944 9.48759766,11.3354634 9.48759766,11.9044738 C9.48759766,12.7641743 9.73808594,13.4476053 10.2390625,13.9547668 C10.7400391,14.4619282 11.4111003,14.7155089 12.2522461,14.7155089 Z M12.5862305,13.4074035 C12.0728841,13.4074035 11.6708659,13.2666971 11.3801758,12.9852843 C11.0894857,12.7038716 10.9441406,12.3281392 10.9441406,11.8580871 C10.9441406,11.5550272 11.0075358,11.2875304 11.1343262,11.0555968 C11.2611165,10.8236632 11.4389323,10.6443013 11.6677734,10.5175109 C11.8966146,10.3907205 12.2986328,10.2778462 12.8738281,10.1788879 C13.8634115,10.0057108 14.6086914,9.79542431 15.109668,9.54802848 L15.109668,9.54802848 L15.109668,10.1603332 C15.109668,10.9705545 15.0107096,11.5874979 14.812793,12.0111632 C14.6148763,12.4348286 14.3164551,12.7734517 13.9175293,13.0270324 C13.5186035,13.2806131 13.0748372,13.4074035 12.5862305,13.4074035 Z M19.6802734,18.2687316 L19.6802734,13.4723449 C19.946224,13.8681782 20.2616536,14.1743306 20.6265625,14.3908019 C20.9914714,14.6072733 21.3842122,14.7155089 21.8047852,14.7155089 C22.7510742,14.7155089 23.5752116,14.2624653 24.2771973,13.3563781 C24.9791829,12.4502909 25.3301758,11.1591938 25.3301758,9.48308707 C25.3301758,8.4007303 25.1740072,7.47454215 24.8616699,6.70452262 C24.5493327,5.93450309 24.1364909,5.360854 23.6231445,4.98357536 C23.1097982,4.60629671 22.5346029,4.41765739 21.8975586,4.41765739 C21.4089518,4.41765739 20.9760091,4.53517041 20.5987305,4.77019645 C20.2214518,5.00522249 19.8781901,5.38868603 19.5689453,5.92058707 L19.5689453,5.92058707 L19.5689453,4.64031364 L18.3165039,4.64031364 L18.3165039,18.2687316 L19.6802734,18.2687316 Z M21.7398437,13.3424621 C21.133724,13.3424621 20.6172852,13.0409484 20.1905273,12.4379211 C19.7637695,11.8348937 19.5503906,10.8963358 19.5503906,9.62224723 C19.5503906,8.35434359 19.7761393,7.38795361 20.2276367,6.72307731 C20.6791341,6.05820101 21.1801107,5.72576286 21.7305664,5.72576286 C22.3428711,5.72576286 22.8624023,6.03500765 23.2891602,6.65349723 C23.715918,7.27198681 23.9292969,8.22446077 23.9292969,9.51091911 C23.9292969,10.8159321 23.7097331,11.7807759 23.2706055,12.4054504 C22.8314779,13.0301248 22.321224,13.3424621 21.7398437,13.3424621 Z M28.9823242,14.7155089 C29.5142253,14.7155089 30.0275716,14.5949035 30.5223633,14.3536925 C31.0171549,14.1124816 31.4933919,13.7537576 31.9510742,13.2775207 C31.9943685,13.7475728 32.0871419,14.1526834 32.2293945,14.4928527 L32.2293945,14.4928527 L33.6581055,14.4928527 C33.4849284,14.1093892 33.3689616,13.715102 33.3102051,13.3099914 C33.2514486,12.9048807 33.2220703,11.9230285 33.2220703,10.3644347 L33.2220703,8.13787223 C33.2220703,7.23487744 33.1586751,6.548354 33.0318848,6.07830192 C32.9050944,5.60824984 32.6004883,5.21396273 32.1180664,4.89544059 C31.6356445,4.57691846 30.9707682,4.41765739 30.1234375,4.41765739 C29.0348958,4.41765739 28.1983887,4.65886832 27.613916,5.1412902 C27.0294434,5.62371207 26.6413411,6.39373161 26.4496094,7.45134879 L26.4496094,7.45134879 L27.7948242,7.67400504 C27.9432617,6.95037223 28.1751953,6.45712679 28.490625,6.19426872 C28.8060547,5.93141064 29.2822917,5.79998161 29.9193359,5.79998161 C30.6244141,5.79998161 31.1470378,5.99789827 31.487207,6.39373161 C31.728418,6.66586702 31.8490234,7.13901155 31.8490234,7.8131652 L31.8490234,7.8131652 L31.8397461,8.23992301 C31.3202148,8.46257926 30.5038086,8.65431103 29.3905273,8.81511832 C28.5617513,8.93263135 27.9432617,9.11508577 27.5350586,9.36248161 C27.1268555,9.60987744 26.8052409,9.95313916 26.5702148,10.3922668 C26.3351888,10.8313944 26.2176758,11.3354634 26.2176758,11.9044738 C26.2176758,12.7641743 26.4681641,13.4476053 26.9691406,13.9547668 C27.4701172,14.4619282 28.1411784,14.7155089 28.9823242,14.7155089 Z M29.3163086,13.4074035 C28.8029622,13.4074035 28.400944,13.2666971 28.1102539,12.9852843 C27.8195638,12.7038716 27.6742187,12.3281392 27.6742187,11.8580871 C27.6742187,11.5550272 27.7376139,11.2875304 27.8644043,11.0555968 C27.9911947,10.8236632 28.1690104,10.6443013 28.3978516,10.5175109 C28.6266927,10.3907205 29.0287109,10.2778462 29.6039062,10.1788879 C30.5934896,10.0057108 31.3387695,9.79542431 31.8397461,9.54802848 L31.8397461,9.54802848 L31.8397461,10.1603332 C31.8397461,10.9705545 31.7407878,11.5874979 31.5428711,12.0111632 C31.3449544,12.4348286 31.0465332,12.7734517 30.6476074,13.0270324 C30.2486816,13.2806131 29.8049154,13.4074035 29.3163086,13.4074035 Z M37.3473633,14.7155089 C37.8792643,14.7155089 38.3926107,14.5949035 38.8874023,14.3536925 C39.382194,14.1124816 39.858431,13.7537576 40.3161133,13.2775207 C40.3594076,13.7475728 40.452181,14.1526834 40.5944336,14.4928527 L40.5944336,14.4928527 L42.0231445,14.4928527 C41.8499674,14.1093892 41.7340007,13.715102 41.6752441,13.3099914 C41.6164876,12.9048807 41.5871094,11.9230285 41.5871094,10.3644347 L41.5871094,8.13787223 C41.5871094,7.23487744 41.5237142,6.548354 41.3969238,6.07830192 C41.2701335,5.60824984 40.9655273,5.21396273 40.4831055,4.89544059 C40.0006836,4.57691846 39.3358073,4.41765739 38.4884766,4.41765739 C37.3999349,4.41765739 36.5634277,4.65886832 35.9789551,5.1412902 C35.3944824,5.62371207 35.0063802,6.39373161 34.8146484,7.45134879 L34.8146484,7.45134879 L36.1598633,7.67400504 C36.3083008,6.95037223 36.5402344,6.45712679 36.8556641,6.19426872 C37.1710937,5.93141064 37.6473307,5.79998161 38.284375,5.79998161 C38.9894531,5.79998161 39.5120768,5.99789827 39.8522461,6.39373161 C40.093457,6.66586702 40.2140625,7.13901155 40.2140625,7.8131652 L40.2140625,7.8131652 L40.2047852,8.23992301 C39.6852539,8.46257926 38.8688477,8.65431103 37.7555664,8.81511832 C36.9267904,8.93263135 36.3083008,9.11508577 35.9000977,9.36248161 C35.4918945,9.60987744 35.1702799,9.95313916 34.9352539,10.3922668 C34.7002279,10.8313944 34.5827148,11.3354634 34.5827148,11.9044738 C34.5827148,12.7641743 34.8332031,13.4476053 35.3341797,13.9547668 C35.8351562,14.4619282 36.5062174,14.7155089 37.3473633,14.7155089 Z M37.6813477,13.4074035 C37.1680013,13.4074035 36.7659831,13.2666971 36.475293,12.9852843 C36.1846029,12.7038716 36.0392578,12.3281392 36.0392578,11.8580871 C36.0392578,11.5550272 36.102653,11.2875304 36.2294434,11.0555968 C36.3562337,10.8236632 36.5340495,10.6443013 36.7628906,10.5175109 C36.9917318,10.3907205 37.39375,10.2778462 37.9689453,10.1788879 C38.9585286,10.0057108 39.7038086,9.79542431 40.2047852,9.54802848 L40.2047852,9.54802848 L40.2047852,10.1603332 C40.2047852,10.9705545 40.1058268,11.5874979 39.9079102,12.0111632 C39.7099935,12.4348286 39.4115723,12.7734517 39.0126465,13.0270324 C38.6137207,13.2806131 38.1699544,13.4074035 37.6813477,13.4074035 Z M50.8210938,14.7155089 C51.7302734,14.7155089 52.4925618,14.4480122 53.107959,13.9130187 C53.7233561,13.3780252 54.1485677,12.5848123 54.3835938,11.53338 L54.3835938,11.53338 L52.9734375,11.3200011 C52.5714193,12.6683084 51.8570638,13.3424621 50.8303711,13.3424621 C50.1747721,13.3424621 49.6181315,13.0610493 49.1604492,12.4982238 C48.7027669,11.9353983 48.4460938,11.1004373 48.3904297,9.99334098 L48.3904297,9.99334098 L54.4207031,9.99334098 L54.4299805,9.54802848 C54.4299805,7.8842915 54.0805339,6.61329541 53.3816406,5.7350402 C52.6827474,4.85678499 51.8106771,4.41765739 50.7654297,4.41765739 C49.6707031,4.41765739 48.7661621,4.86451611 48.0518066,5.75823356 C47.3374512,6.65195101 46.9802734,7.94923291 46.9802734,9.65007926 C46.9802734,11.2890767 47.3343587,12.5430643 48.0425293,13.4120422 C48.7506999,14.28102 49.676888,14.7155089 50.8210938,14.7155089 Z M52.9827148,8.62029411 L48.4739258,8.62029411 C48.5172201,7.75440869 48.7553385,7.06633903 49.1882813,6.55608512 C49.621224,6.04583122 50.1438477,5.79070426 50.7561523,5.79070426 C51.4364909,5.79070426 51.996224,6.09685661 52.4353516,6.70916129 C52.7384115,7.12973421 52.9208659,7.76677848 52.9827148,8.62029411 L52.9827148,8.62029411 Z M57.1358398,14.4928527 L57.1358398,0.892266762 L55.7720703,0.892266762 L55.7720703,14.4928527 L57.1358398,14.4928527 Z M60.3333984,2.81267692 L60.3333984,0.892266762 L58.9696289,0.892266762 L58.9696289,2.81267692 L60.3333984,2.81267692 Z M60.3333984,14.4928527 L60.3333984,4.64031364 L58.9696289,4.64031364 L58.9696289,14.4928527 L60.3333984,14.4928527 Z M63.4938477,14.4928527 L63.4938477,9.11199332 C63.4938477,7.92449332 63.6886719,7.08643994 64.0783203,6.59783317 C64.4679688,6.1092264 64.9905924,5.86492301 65.6461914,5.86492301 C65.9925456,5.86492301 66.2971517,5.95615023 66.5600098,6.13860465 C66.8228678,6.32105908 67.0161458,6.57927848 67.1398438,6.91326286 C67.2635417,7.24724723 67.3253906,7.77605582 67.3253906,8.49968864 L67.3253906,8.49968864 L67.3253906,14.4928527 L68.6984375,14.4928527 L68.6984375,8.43474723 C68.6984375,7.52556754 68.6427734,6.8514139 68.5314453,6.41228629 C68.4201172,5.97315869 68.2515788,5.61598096 68.0258301,5.34075309 C67.8000814,5.06552523 67.5032064,4.84286898 67.1352051,4.67278434 C66.7672038,4.50269971 66.3667318,4.41765739 65.9337891,4.41765739 C65.3771484,4.41765739 64.883903,4.55217887 64.4540527,4.82122184 C64.0242025,5.09026481 63.6608398,5.49692171 63.3639648,6.04119254 L63.3639648,6.04119254 L63.3639648,4.64031364 L62.1300781,4.64031364 L62.1300781,14.4928527 L63.4938477,14.4928527 Z M72.7124023,14.6227355 C73.0154622,14.6227355 73.3556315,14.5732563 73.7329102,14.474298 L73.7329102,14.474298 L73.5473633,12.9992004 C73.2999674,13.0424946 73.0989583,13.0641418 72.9443359,13.0641418 C72.6227214,13.0641418 72.4031576,12.9528136 72.2856445,12.7301574 C72.2052409,12.575535 72.1650391,12.2322733 72.1650391,11.7003722 L72.1650391,11.7003722 L72.1650391,5.93914176 L73.5473633,5.93914176 L73.5473633,4.64031364 L72.1650391,4.64031364 L72.1650391,1.19841911 L70.8012695,2.20037223 L70.8012695,4.64031364 L69.7993164,4.64031364 L69.7993164,5.93914176 L70.8012695,5.93914176 L70.8012695,11.6075988 C70.8012695,12.5848123 70.8553874,13.2373188 70.963623,13.5651183 C71.0718587,13.8929178 71.2713216,14.1511372 71.5620117,14.3397765 C71.8527018,14.5284159 72.2361654,14.6227355 72.7124023,14.6227355 Z M76.828418,14.7155089 C77.360319,14.7155089 77.8736654,14.5949035 78.368457,14.3536925 C78.8632487,14.1124816 79.3394857,13.7537576 79.797168,13.2775207 C79.8404622,13.7475728 79.9332357,14.1526834 80.0754883,14.4928527 L80.0754883,14.4928527 L81.5041992,14.4928527 C81.3310221,14.1093892 81.2150553,13.715102 81.1562988,13.3099914 C81.0975423,12.9048807 81.0681641,11.9230285 81.0681641,10.3644347 L81.0681641,8.13787223 C81.0681641,7.23487744 81.0047689,6.548354 80.8779785,6.07830192 C80.7511882,5.60824984 80.446582,5.21396273 79.9641602,4.89544059 C79.4817383,4.57691846 78.816862,4.41765739 77.9695313,4.41765739 C76.8809896,4.41765739 76.0444824,4.65886832 75.4600098,5.1412902 C74.8755371,5.62371207 74.4874349,6.39373161 74.2957031,7.45134879 L74.2957031,7.45134879 L75.640918,7.67400504 C75.7893555,6.95037223 76.0212891,6.45712679 76.3367188,6.19426872 C76.6521484,5.93141064 77.1283854,5.79998161 77.7654297,5.79998161 C78.4705078,5.79998161 78.9931315,5.99789827 79.3333008,6.39373161 C79.5745117,6.66586702 79.6951172,7.13901155 79.6951172,7.8131652 L79.6951172,7.8131652 L79.6858398,8.23992301 C79.1663086,8.46257926 78.3499023,8.65431103 77.2366211,8.81511832 C76.4078451,8.93263135 75.7893555,9.11508577 75.3811523,9.36248161 C74.9729492,9.60987744 74.6513346,9.95313916 74.4163086,10.3922668 C74.1812826,10.8313944 74.0637695,11.3354634 74.0637695,11.9044738 C74.0637695,12.7641743 74.3142578,13.4476053 74.8152344,13.9547668 C75.3162109,14.4619282 75.9872721,14.7155089 76.828418,14.7155089 Z M77.1624023,13.4074035 C76.649056,13.4074035 76.2470378,13.2666971 75.9563477,12.9852843 C75.6656576,12.7038716 75.5203125,12.3281392 75.5203125,11.8580871 C75.5203125,11.5550272 75.5837077,11.2875304 75.710498,11.0555968 C75.8372884,10.8236632 76.0151042,10.6443013 76.2439453,10.5175109 C76.4727865,10.3907205 76.8748047,10.2778462 77.45,10.1788879 C78.4395833,10.0057108 79.1848633,9.79542431 79.6858398,9.54802848 L79.6858398,9.54802848 L79.6858398,10.1603332 C79.6858398,10.9705545 79.5868815,11.5874979 79.3889648,12.0111632 C79.1910482,12.4348286 78.892627,12.7734517 78.4937012,13.0270324 C78.0947754,13.2806131 77.6510091,13.4074035 77.1624023,13.4074035 Z M84.2564453,14.4928527 L84.2564453,9.33464957 C84.2564453,8.61720166 84.3430339,7.93995556 84.5162109,7.30291129 C84.6151693,6.93800244 84.7852539,6.65349723 85.0264648,6.44939567 C85.2676758,6.24529411 85.5336263,6.14324332 85.8243164,6.14324332 C86.145931,6.14324332 86.4768229,6.26384879 86.8169922,6.50505973 L86.8169922,6.50505973 L87.2808594,4.95574332 C86.8046224,4.59701937 86.3376628,4.41765739 85.8799805,4.41765739 C85.552181,4.41765739 85.2568522,4.53053174 84.9939941,4.75628043 C84.7311361,4.98202913 84.4419922,5.44125765 84.1265625,6.13396598 L84.1265625,6.13396598 L84.1265625,4.64031364 L82.8926758,4.64031364 L82.8926758,14.4928527 L84.2564453,14.4928527 Z M91.3226563,14.4928527 L94.3841797,4.64031364 L92.9740234,4.64031364 L91.1742188,10.6520324 C90.9577474,11.3818501 90.7907552,12.0065246 90.6732422,12.5260558 C90.5248047,11.8704569 90.3516276,11.208673 90.1537109,10.5407043 L90.1537109,10.5407043 L88.4188477,4.64031364 L86.971582,4.64031364 L90.0423828,14.4928527 L91.3226563,14.4928527 Z M96.6354492,2.81267692 L96.6354492,0.892266762 L95.2716797,0.892266762 L95.2716797,2.81267692 L96.6354492,2.81267692 Z M96.6354492,14.4928527 L96.6354492,4.64031364 L95.2716797,4.64031364 L95.2716797,14.4928527 L96.6354492,14.4928527 Z M99.8330078,14.4928527 L99.8330078,10.587091 L100.797852,9.45525504 L103.479004,14.4928527 L105.158203,14.4928527 L101.762695,8.29558707 L104.852051,4.64031364 L103.080078,4.64031364 L99.8330078,8.64812614 L99.8330078,0.892266762 L98.4692383,0.892266762 L98.4692383,14.4928527 L99.8330078,14.4928527 Z M109.302051,14.7155089 C110.21123,14.7155089 110.973519,14.4480122 111.588916,13.9130187 C112.204313,13.3780252 112.629525,12.5848123 112.864551,11.53338 L112.864551,11.53338 L111.454395,11.3200011 C111.052376,12.6683084 110.338021,13.3424621 109.311328,13.3424621 C108.655729,13.3424621 108.099089,13.0610493 107.641406,12.4982238 C107.183724,11.9353983 106.927051,11.1004373 106.871387,9.99334098 L106.871387,9.99334098 L112.90166,9.99334098 L112.910938,9.54802848 C112.910938,7.8842915 112.561491,6.61329541 111.862598,5.7350402 C111.163704,4.85678499 110.291634,4.41765739 109.246387,4.41765739 C108.15166,4.41765739 107.247119,4.86451611 106.532764,5.75823356 C105.818408,6.65195101 105.46123,7.94923291 105.46123,9.65007926 C105.46123,11.2890767 105.815316,12.5430643 106.523486,13.4120422 C107.231657,14.28102 108.157845,14.7155089 109.302051,14.7155089 Z M111.463672,8.62029411 L106.954883,8.62029411 C106.998177,7.75440869 107.236296,7.06633903 107.669238,6.55608512 C108.102181,6.04583122 108.624805,5.79070426 109.237109,5.79070426 C109.917448,5.79070426 110.477181,6.09685661 110.916309,6.70916129 C111.219368,7.12973421 111.401823,7.76677848 111.463672,8.62029411 L111.463672,8.62029411 Z M116.507422,14.6227355 C116.810482,14.6227355 117.150651,14.5732563 117.52793,14.474298 L117.52793,14.474298 L117.342383,12.9992004 C117.094987,13.0424946 116.893978,13.0641418 116.739355,13.0641418 C116.417741,13.0641418 116.198177,12.9528136 116.080664,12.7301574 C116.00026,12.575535 115.960059,12.2322733 115.960059,11.7003722 L115.960059,11.7003722 L115.960059,5.93914176 L117.342383,5.93914176 L117.342383,4.64031364 L115.960059,4.64031364 L115.960059,1.19841911 L114.596289,2.20037223 L114.596289,4.64031364 L113.594336,4.64031364 L113.594336,5.93914176 L114.596289,5.93914176 L114.596289,11.6075988 C114.596289,12.5848123 114.650407,13.2373188 114.758643,13.5651183 C114.866878,13.8929178 115.066341,14.1511372 115.357031,14.3397765 C115.647721,14.5284159 116.031185,14.6227355 116.507422,14.6227355 Z M119.686426,2.81267692 L119.686426,0.892266762 L118.322656,0.892266762 L118.322656,2.81267692 L119.686426,2.81267692 Z M119.686426,14.4928527 L119.686426,4.64031364 L118.322656,4.64031364 L118.322656,14.4928527 L119.686426,14.4928527 Z M124.860059,14.7155089 C125.769238,14.7155089 126.531527,14.4480122 127.146924,13.9130187 C127.762321,13.3780252 128.187533,12.5848123 128.422559,11.53338 L128.422559,11.53338 L127.012402,11.3200011 C126.610384,12.6683084 125.896029,13.3424621 124.869336,13.3424621 C124.213737,13.3424621 123.657096,13.0610493 123.199414,12.4982238 C122.741732,11.9353983 122.485059,11.1004373 122.429395,9.99334098 L122.429395,9.99334098 L128.459668,9.99334098 L128.468945,9.54802848 C128.468945,7.8842915 128.119499,6.61329541 127.420605,5.7350402 C126.721712,4.85678499 125.849642,4.41765739 124.804395,4.41765739 C123.709668,4.41765739 122.805127,4.86451611 122.090771,5.75823356 C121.376416,6.65195101 121.019238,7.94923291 121.019238,9.65007926 C121.019238,11.2890767 121.373324,12.5430643 122.081494,13.4120422 C122.789665,14.28102 123.715853,14.7155089 124.860059,14.7155089 Z M127.02168,8.62029411 L122.512891,8.62029411 C122.556185,7.75440869 122.794303,7.06633903 123.227246,6.55608512 C123.660189,6.04583122 124.182813,5.79070426 124.795117,5.79070426 C125.475456,5.79070426 126.035189,6.09685661 126.474316,6.70916129 C126.777376,7.12973421 126.959831,7.76677848 127.02168,8.62029411 L127.02168,8.62029411 Z M132.06543,14.6227355 C132.36849,14.6227355 132.708659,14.5732563 133.085938,14.474298 L133.085938,14.474298 L132.900391,12.9992004 C132.652995,13.0424946 132.451986,13.0641418 132.297363,13.0641418 C131.975749,13.0641418 131.756185,12.9528136 131.638672,12.7301574 C131.558268,12.575535 131.518066,12.2322733 131.518066,11.7003722 L131.518066,11.7003722 L131.518066,5.93914176 L132.900391,5.93914176 L132.900391,4.64031364 L131.518066,4.64031364 L131.518066,1.19841911 L130.154297,2.20037223 L130.154297,4.64031364 L129.152344,4.64031364 L129.152344,5.93914176 L130.154297,5.93914176 L130.154297,11.6075988 C130.154297,12.5848123 130.208415,13.2373188 130.31665,13.5651183 C130.424886,13.8929178 130.624349,14.1511372 130.915039,14.3397765 C131.205729,14.5284159 131.589193,14.6227355 132.06543,14.6227355 Z M137.155566,14.7155089 C138.256478,14.7155089 139.162565,14.2825662 139.873828,13.4166808 C140.585091,12.5507954 140.940723,11.2334126 140.940723,9.46453239 C140.940723,7.83171989 140.578906,6.58237093 139.855273,5.71648551 C139.131641,4.8506001 138.231738,4.41765739 137.155566,4.41765739 C136.06084,4.41765739 135.156299,4.8506001 134.441943,5.71648551 C133.727588,6.58237093 133.37041,7.86573681 133.37041,9.56658317 C133.37041,11.2612446 133.73068,12.5430643 134.451221,13.4120422 C135.171761,14.28102 136.07321,14.7155089 137.155566,14.7155089 Z M137.192676,13.3424621 C136.506152,13.3424621 135.930957,13.0316711 135.46709,12.410089 C135.003223,11.788507 134.771289,10.8406717 134.771289,9.56658317 C134.771289,8.30486442 135.00013,7.3616678 135.457813,6.73699332 C135.915495,6.11231885 136.469043,5.79998161 137.118457,5.79998161 C137.80498,5.79998161 138.380176,6.11077262 138.844043,6.73235465 C139.30791,7.35393668 139.539844,8.29867952 139.539844,9.56658317 C139.539844,10.8283019 139.309456,11.7730448 138.848682,12.4008117 C138.387907,13.0285786 137.835905,13.3424621 137.192676,13.3424621 Z M143.646582,14.4928527 L143.646582,10.587091 L144.611426,9.45525504 L147.292578,14.4928527 L148.971777,14.4928527 L145.57627,8.29558707 L148.665625,4.64031364 L146.893652,4.64031364 L143.646582,8.64812614 L143.646582,0.892266762 L142.282813,0.892266762 L142.282813,14.4928527 L143.646582,14.4928527 Z M152.039453,14.7155089 C152.571354,14.7155089 153.084701,14.5949035 153.579492,14.3536925 C154.074284,14.1124816 154.550521,13.7537576 155.008203,13.2775207 C155.051497,13.7475728 155.144271,14.1526834 155.286523,14.4928527 L155.286523,14.4928527 L156.715234,14.4928527 C156.542057,14.1093892 156.42609,13.715102 156.367334,13.3099914 C156.308577,12.9048807 156.279199,11.9230285 156.279199,10.3644347 L156.279199,8.13787223 C156.279199,7.23487744 156.215804,6.548354 156.089014,6.07830192 C155.962223,5.60824984 155.657617,5.21396273 155.175195,4.89544059 C154.692773,4.57691846 154.027897,4.41765739 153.180566,4.41765739 C152.092025,4.41765739 151.255518,4.65886832 150.671045,5.1412902 C150.086572,5.62371207 149.69847,6.39373161 149.506738,7.45134879 L149.506738,7.45134879 L150.851953,7.67400504 C151.000391,6.95037223 151.232324,6.45712679 151.547754,6.19426872 C151.863184,5.93141064 152.339421,5.79998161 152.976465,5.79998161 C153.681543,5.79998161 154.204167,5.99789827 154.544336,6.39373161 C154.785547,6.66586702 154.906152,7.13901155 154.906152,7.8131652 L154.906152,7.8131652 L154.896875,8.23992301 C154.377344,8.46257926 153.560937,8.65431103 152.447656,8.81511832 C151.61888,8.93263135 151.000391,9.11508577 150.592187,9.36248161 C150.183984,9.60987744 149.86237,9.95313916 149.627344,10.3922668 C149.392318,10.8313944 149.274805,11.3354634 149.274805,11.9044738 C149.274805,12.7641743 149.525293,13.4476053 150.02627,13.9547668 C150.527246,14.4619282 151.198307,14.7155089 152.039453,14.7155089 Z M152.373437,13.4074035 C151.860091,13.4074035 151.458073,13.2666971 151.167383,12.9852843 C150.876693,12.7038716 150.731348,12.3281392 150.731348,11.8580871 C150.731348,11.5550272 150.794743,11.2875304 150.921533,11.0555968 C151.048324,10.8236632 151.226139,10.6443013 151.45498,10.5175109 C151.683822,10.3907205 152.08584,10.2778462 152.661035,10.1788879 C153.650618,10.0057108 154.395898,9.79542431 154.896875,9.54802848 L154.896875,9.54802848 L154.896875,10.1603332 C154.896875,10.9705545 154.797917,11.5874979 154.6,12.0111632 C154.402083,12.4348286 154.103662,12.7734517 153.704736,13.0270324 C153.305811,13.2806131 152.862044,13.4074035 152.373437,13.4074035 Z M159.46748,14.4928527 L159.46748,9.11199332 C159.46748,7.92449332 159.662305,7.08643994 160.051953,6.59783317 C160.441602,6.1092264 160.964225,5.86492301 161.619824,5.86492301 C161.966178,5.86492301 162.270785,5.95615023 162.533643,6.13860465 C162.796501,6.32105908 162.989779,6.57927848 163.113477,6.91326286 C163.237174,7.24724723 163.299023,7.77605582 163.299023,8.49968864 L163.299023,8.49968864 L163.299023,14.4928527 L164.67207,14.4928527 L164.67207,8.43474723 C164.67207,7.52556754 164.616406,6.8514139 164.505078,6.41228629 C164.39375,5.97315869 164.225212,5.61598096 163.999463,5.34075309 C163.773714,5.06552523 163.476839,4.84286898 163.108838,4.67278434 C162.740837,4.50269971 162.340365,4.41765739 161.907422,4.41765739 C161.350781,4.41765739 160.857536,4.55217887 160.427686,4.82122184 C159.997835,5.09026481 159.634473,5.49692171 159.337598,6.04119254 L159.337598,6.04119254 L159.337598,4.64031364 L158.103711,4.64031364 L158.103711,14.4928527 L159.46748,14.4928527 Z M168.686035,14.6227355 C168.989095,14.6227355 169.329264,14.5732563 169.706543,14.474298 L169.706543,14.474298 L169.520996,12.9992004 C169.2736,13.0424946 169.072591,13.0641418 168.917969,13.0641418 C168.596354,13.0641418 168.37679,12.9528136 168.259277,12.7301574 C168.178874,12.575535 168.138672,12.2322733 168.138672,11.7003722 L168.138672,11.7003722 L168.138672,5.93914176 L169.520996,5.93914176 L169.520996,4.64031364 L168.138672,4.64031364 L168.138672,1.19841911 L166.774902,2.20037223 L166.774902,4.64031364 L165.772949,4.64031364 L165.772949,5.93914176 L166.774902,5.93914176 L166.774902,11.6075988 C166.774902,12.5848123 166.82902,13.2373188 166.937256,13.5651183 C167.045492,13.8929178 167.244954,14.1511372 167.535645,14.3397765 C167.826335,14.5284159 168.209798,14.6227355 168.686035,14.6227355 Z M172.802051,14.7155089 C173.333952,14.7155089 173.847298,14.5949035 174.34209,14.3536925 C174.836882,14.1124816 175.313118,13.7537576 175.770801,13.2775207 C175.814095,13.7475728 175.906868,14.1526834 176.049121,14.4928527 L176.049121,14.4928527 L177.477832,14.4928527 C177.304655,14.1093892 177.188688,13.715102 177.129932,13.3099914 C177.071175,12.9048807 177.041797,11.9230285 177.041797,10.3644347 L177.041797,10.3644347 L177.041797,8.13787223 C177.041797,7.23487744 176.978402,6.548354 176.851611,6.07830192 C176.724821,5.60824984 176.420215,5.21396273 175.937793,4.89544059 C175.455371,4.57691846 174.790495,4.41765739 173.943164,4.41765739 C172.854622,4.41765739 172.018115,4.65886832 171.433643,5.1412902 C170.84917,5.62371207 170.461068,6.39373161 170.269336,7.45134879 L170.269336,7.45134879 L171.614551,7.67400504 C171.762988,6.95037223 171.994922,6.45712679 172.310352,6.19426872 C172.625781,5.93141064 173.102018,5.79998161 173.739062,5.79998161 C174.444141,5.79998161 174.966764,5.99789827 175.306934,6.39373161 C175.548145,6.66586702 175.66875,7.13901155 175.66875,7.8131652 L175.66875,7.8131652 L175.659473,8.23992301 C175.139941,8.46257926 174.323535,8.65431103 173.210254,8.81511832 C172.381478,8.93263135 171.762988,9.11508577 171.354785,9.36248161 C170.946582,9.60987744 170.624967,9.95313916 170.389941,10.3922668 C170.154915,10.8313944 170.037402,11.3354634 170.037402,11.9044738 C170.037402,12.7641743 170.287891,13.4476053 170.788867,13.9547668 C171.289844,14.4619282 171.960905,14.7155089 172.802051,14.7155089 Z M173.136035,13.4074035 C172.622689,13.4074035 172.220671,13.2666971 171.92998,12.9852843 C171.63929,12.7038716 171.493945,12.3281392 171.493945,11.8580871 C171.493945,11.5550272 171.55734,11.2875304 171.684131,11.0555968 C171.810921,10.8236632 171.988737,10.6443013 172.217578,10.5175109 C172.446419,10.3907205 172.848437,10.2778462 173.423633,10.1788879 C174.413216,10.0057108 175.158496,9.79542431 175.659473,9.54802848 L175.659473,9.54802848 L175.659473,10.1603332 C175.659473,10.9705545 175.560514,11.5874979 175.362598,12.0111632 C175.164681,12.4348286 174.86626,12.7734517 174.467334,13.0270324 C174.068408,13.2806131 173.624642,13.4074035 173.136035,13.4074035 Z"
         id="path254" />
    </g>
    <g
       id="barcode"
       class="design-element">
      <g
         id="g398"
         class="blue">
        <path
           inkscape:connector-curvature="0"
           d="m 170,26 0,6.41101 c 1.19571,0.444338 2.20515,1.060483 2.99122,1.761208 L 173.01672,26 Z m 4,0 0,8.312003 1,-0.838676 L 175,26 Z m 2,0 0,6.606702 1,-0.978462 0,11.7694 -1,-1.00641 L 176.0383,95 178,95 178,26 Z M 174,40.685929 174,95 l 1,0 0,-53.475406 z m -1,0.139774 c -0.78598,0.701951 -1.79569,1.313237 -3,1.76122 L 170.008,95 l 3,0 z"
           id="path7944"
           sodipodi:nodetypes="ccccccccccccccccccccccccccccc" />
      </g>
      <g
         id="g411"
         class="red">
        <path
           inkscape:connector-curvature="0"
           id="path8013"
           d="m 33,20 0,75 1,0 -7e-6,-75 z"
           sodipodi:nodetypes="ccccc" />
        <path
           inkscape:connector-curvature="0"
           id="path8015"
           d="m 30,19 0,76 2,0 4e-6,-76 z"
           sodipodi:nodetypes="ccccc" />
        <path
           inkscape:connector-curvature="0"
           id="path8017"
           d="m 26,26 0,69 3,0 0,-69 z"
           sodipodi:nodetypes="ccccc" />
        <path
           inkscape:connector-curvature="0"
           id="path8019"
           d="m 22,26 0,69 3,0 -5e-6,-69 z"
           sodipodi:nodetypes="ccccc" />
        <path
           inkscape:connector-curvature="0"
           id="path8021"
           d="m 19,20 0,75 2,0 -8.6e-5,-75 z"
           sodipodi:nodetypes="ccccc" />
        <path
           inkscape:connector-curvature="0"
           id="path8023"
           d="m 15,21 0,74 3,0 -3.5e-5,-74 z"
           sodipodi:nodetypes="ccccc" />
        <path
           inkscape:connector-curvature="0"
           id="path8025"
           d="m 11,26 0,69 1,0 -4.9e-5,-69 z"
           sodipodi:nodetypes="ccccc" />
        <path
           inkscape:connector-curvature="0"
           id="path8027"
           d="M 8,26 8,95 9,95 9,26 Z"
           sodipodi:nodetypes="ccccc" />
        <path
           inkscape:connector-curvature="0"
           id="path8029"
           d="m 2.9986784,25.916822 0,69.083178 0.9995629,0 0,-69.083178 z"
           sodipodi:nodetypes="ccccc" />
        <path
           inkscape:connector-curvature="0"
           id="path8031"
           d="m 1.3499883e-5,25.916822 0,69.083178 1.999113900117,0 0,-69.083178 z"
           sodipodi:nodetypes="ccccc" />
        <path
           sodipodi:nodetypes="csssacccccssscccsccccc"
           inkscape:connector-curvature="0"
           id="path8033"
           d="m 12.96037,20.168037 c 0.62972,-0.815576 0.719123,-2.676154 1.281409,-4.358843 0.405305,-1.212926 0.463533,-4.596987 1.208651,-4.882429 0.96834,-0.370951 3.169601,-0.358079 4.223988,-0.416629 2.300059,-0.127699 4.518931,1.098659 6.822539,1.101136 2.990853,0.0036 8.861008,-1.410596 8.861008,-1.410596 l -0.140119,-2.0388259 1.505607,0.2780586 4.07695,-0.5169049 -3.008404,1.3861371 c 0,0 1.201864,-0.021077 1.688022,0.2768321 0.705048,0.432109 0.959994,1.347377 1.46892,1.999162 0.291967,0.373928 1.082477,0.65438 0.908337,1.095671 -0.469844,1.190611 -3.808977,0.485944 -3.808977,0.485944 l -1.918736,1.803326 c -0.833009,1.778987 -2.26137,3.261839 -2.253596,6.722383 0,0 -6.006891,-0.923008 -8.991183,-0.79663 -1.764007,0.07466 -4.968974,0.618073 -4.968974,0.618073 -1.608718,-0.13719 -3.296502,-0.529063 -4.905219,-0.24954 0.0095,-6.235485 0.866683,-6.128862 0.69876,-9.294821 -0.439183,1.679986 -0.971056,4.516551 -1.026843,5.772464 -0.534756,1.525804 -0.01191,1.899672 -1.72214,2.426032 z" />
      </g>
      <g
         id="g487"
         class="yellow">
        <path
           inkscape:connector-curvature="0"
           id="path7980"
           d="m 90,21 0,74 2,0 3e-6,-74 z"
           sodipodi:nodetypes="ccccc" />
        <path
           inkscape:connector-curvature="0"
           id="path7983"
           d="m 88,26 0,69 1,0 10e-7,-69 z"
           sodipodi:nodetypes="ccccc" />
        <path
           inkscape:connector-curvature="0"
           id="path7985"
           d="m 85,10 0,85 2,0 0,-85 z"
           sodipodi:nodetypes="ccccc" />
        <path
           inkscape:connector-curvature="0"
           id="path7987"
           d="m 81,26 0,69 3,0 4e-6,-69 z"
           sodipodi:nodetypes="ccccc" />
        <path
           inkscape:connector-curvature="0"
           id="path7989"
           d="m 77,26 0,69 1,0 3e-6,-69 z"
           sodipodi:nodetypes="ccccc" />
        <path
           inkscape:connector-curvature="0"
           id="path7991"
           d="m 74,20 0,75 2,0 -7e-6,-75 z"
           sodipodi:nodetypes="ccccc" />
        <path
           inkscape:connector-curvature="0"
           id="path7993"
           d="m 70,26 0,69 3,0 4e-6,-69 z"
           sodipodi:nodetypes="ccccc" />
        <path
           inkscape:connector-curvature="0"
           id="path7995"
           d="m 66,26 0,69 1,0 3e-6,-69 z"
           sodipodi:nodetypes="ccccc" />
        <path
           inkscape:connector-curvature="0"
           id="path7997"
           d="m 64,26 0,69 1,0 10e-7,-69 z"
           sodipodi:nodetypes="ccccc" />
        <path
           inkscape:connector-curvature="0"
           id="path7999"
           d="M 58.973701,25.916822 59,95 61,95 60.9728,25.916822 Z"
           sodipodi:nodetypes="ccccc" />
        <path
           inkscape:connector-curvature="0"
           id="path8001"
           d="m 55,15 0,80 1,0 -9e-6,-80 z"
           sodipodi:nodetypes="ccccc" />
        <path
           inkscape:connector-curvature="0"
           id="path8003"
           d="m 52,26 0,69 2,0 3e-6,-69 z"
           sodipodi:nodetypes="ccccc" />
        <path
           inkscape:connector-curvature="0"
           id="path8005"
           d="m 46,26 0,69 3,0 -7e-6,-69 z"
           sodipodi:nodetypes="ccccc" />
        <path
           inkscape:connector-curvature="0"
           id="path8007"
           d="m 44,26 0,69 1,0 10e-7,-69 z"
           sodipodi:nodetypes="ccccc" />
        <path
           inkscape:connector-curvature="0"
           id="path8009"
           d="m 40,26 0,69 1,0 2e-6,-69 z"
           sodipodi:nodetypes="ccccc" />
        <path
           inkscape:connector-curvature="0"
           id="path8011"
           d="m 37,26 0,69 2,0 4e-6,-69 z"
           sodipodi:nodetypes="ccccc" />
        <g
           transform="matrix(0.01488015,-0.01147672,0.01147672,0.01488015,39.17529,7.5675208)"
           id="g8035">
          <ellipse
             ry="32.857143"
             rx="65.714287"
             cy="762.36218"
             cx="567.14288"
             id="path8037"
             transform="matrix(0.58270937,-0.81268061,0.81268061,0.58270937,-465.7507,809.03262)" />
          <path
             d="m 494.28571,741.6479 c 0,0 14.40901,-2.31616 20.71429,-5.71428 22.08801,-11.90395 53.57143,-52.85715 53.57143,-52.85715 0,0 -33.14169,43.13867 -40,64.99999 -2.07174,6.60382 -1.42857,20.71429 -1.42857,20.71429 z"
             id="path8039"
             inkscape:connector-curvature="0"
             sodipodi:nodetypes="cscscc" />
        </g>
        <g
           transform="matrix(0.89458574,0,0,0.89458574,-468.13007,-644.42698)"
           id="g8041">
          <g
             id="g8043"
             transform="translate(-9.5459416,1.1490485)">
            <g
               transform="matrix(0.02100622,0,0,0.02100622,586.13922,725.53281)"
               id="g8045">
              <ellipse
                 ry="32.857143"
                 rx="65.714287"
                 cy="762.36218"
                 cx="567.14288"
                 id="path8047"
                 transform="matrix(0.58270937,-0.81268061,0.81268061,0.58270937,-465.7507,809.03262)" />
              <path
                 d="m 494.28571,741.6479 c 0,0 14.40901,-2.31616 20.71429,-5.71428 22.08801,-11.90395 53.57143,-52.85715 53.57143,-52.85715 0,0 -33.14169,43.13867 -40,64.99999 -2.07174,6.60382 -1.42857,20.71429 -1.42857,20.71429 z"
                 id="path8049"
                 inkscape:connector-curvature="0"
                 sodipodi:nodetypes="cscscc" />
            </g>
            <g
               transform="matrix(0.02100622,0,0,0.02100622,586.13922,727.5359)"
               id="g8051">
              <ellipse
                 ry="32.857143"
                 rx="65.714287"
                 cy="762.36218"
                 cx="567.14288"
                 id="path8053"
                 transform="matrix(0.58270937,-0.81268061,0.81268061,0.58270937,-465.7507,809.03262)" />
              <path
                 d="m 494.28571,741.6479 c 0,0 14.40901,-2.31616 20.71429,-5.71428 22.08801,-11.90395 53.57143,-52.85715 53.57143,-52.85715 0,0 -33.14169,43.13867 -40,64.99999 -2.07174,6.60382 -1.42857,20.71429 -1.42857,20.71429 z"
                 id="path8055"
                 inkscape:connector-curvature="0"
                 sodipodi:nodetypes="cscscc" />
            </g>
            <g
               transform="matrix(0.02100622,0,0,0.02100622,586.13922,723.52972)"
               id="g8057">
              <ellipse
                 ry="32.857143"
                 rx="65.714287"
                 cy="762.36218"
                 cx="567.14288"
                 id="path8059"
                 transform="matrix(0.58270937,-0.81268061,0.81268061,0.58270937,-465.7507,809.03262)" />
              <path
                 d="m 494.28571,741.6479 c 0,0 14.40901,-2.31616 20.71429,-5.71428 22.08801,-11.90395 53.57143,-52.85715 53.57143,-52.85715 0,0 -33.14169,43.13867 -40,64.99999 -2.07174,6.60382 -1.42857,20.71429 -1.42857,20.71429 z"
                 id="path8061"
                 inkscape:connector-curvature="0"
                 sodipodi:nodetypes="cscscc" />
            </g>
            <g
               transform="matrix(0.02100622,0,0,0.02100622,586.13922,721.52662)"
               id="g8063">
              <ellipse
                 ry="32.857143"
                 rx="65.714287"
                 cy="762.36218"
                 cx="567.14288"
                 id="path8065"
                 transform="matrix(0.58270937,-0.81268061,0.81268061,0.58270937,-465.7507,809.03262)" />
              <path
                 d="m 494.28571,741.6479 c 0,0 14.40901,-2.31616 20.71429,-5.71428 22.08801,-11.90395 53.57143,-52.85715 53.57143,-52.85715 0,0 -33.14169,43.13867 -40,64.99999 -2.07174,6.60382 -1.42857,20.71429 -1.42857,20.71429 z"
                 id="path8067"
                 inkscape:connector-curvature="0"
                 sodipodi:nodetypes="cscscc" />
            </g>
            <g
               transform="matrix(0.02064274,-0.0038908,0.0038908,0.02064274,583.1049,721.64932)"
               id="g8069">
              <ellipse
                 ry="32.857143"
                 rx="65.714287"
                 cy="762.36218"
                 cx="567.14288"
                 id="path8071"
                 transform="matrix(0.58270937,-0.81268061,0.81268061,0.58270937,-465.7507,809.03262)" />
              <path
                 d="m 494.28571,741.6479 c 0,0 14.40901,-2.31616 20.71429,-5.71428 22.08801,-11.90395 53.57143,-52.85715 53.57143,-52.85715 0,0 -33.14169,43.13867 -40,64.99999 -2.07174,6.60382 -1.42857,20.71429 -1.42857,20.71429 z"
                 id="path8073"
                 inkscape:connector-curvature="0"
                 sodipodi:nodetypes="cscscc" />
            </g>
          </g>
          <g
             id="g8075"
             transform="translate(-10.253048,1.1490485)">
            <g
               transform="matrix(-0.02100622,0,0,0.02100622,604.26937,725.53281)"
               id="g8077">
              <ellipse
                 ry="32.857143"
                 rx="65.714287"
                 cy="762.36218"
                 cx="567.14288"
                 id="path8079"
                 transform="matrix(0.58270937,-0.81268061,0.81268061,0.58270937,-465.7507,809.03262)" />
              <path
                 d="m 494.28571,741.6479 c 0,0 14.40901,-2.31616 20.71429,-5.71428 22.08801,-11.90395 53.57143,-52.85715 53.57143,-52.85715 0,0 -33.14169,43.13867 -40,64.99999 -2.07174,6.60382 -1.42857,20.71429 -1.42857,20.71429 z"
                 id="path8081"
                 inkscape:connector-curvature="0"
                 sodipodi:nodetypes="cscscc" />
            </g>
            <g
               transform="matrix(-0.02100622,0,0,0.02100622,604.26938,727.5359)"
               id="g8083">
              <ellipse
                 ry="32.857143"
                 rx="65.714287"
                 cy="762.36218"
                 cx="567.14288"
                 id="path8085"
                 transform="matrix(0.58270937,-0.81268061,0.81268061,0.58270937,-465.7507,809.03262)" />
              <path
                 d="m 494.28571,741.6479 c 0,0 14.40901,-2.31616 20.71429,-5.71428 22.08801,-11.90395 53.57143,-52.85715 53.57143,-52.85715 0,0 -33.14169,43.13867 -40,64.99999 -2.07174,6.60382 -1.42857,20.71429 -1.42857,20.71429 z"
                 id="path8087"
                 inkscape:connector-curvature="0"
                 sodipodi:nodetypes="cscscc" />
            </g>
            <g
               transform="matrix(-0.02100622,0,0,0.02100622,604.26938,723.52972)"
               id="g8089">
              <ellipse
                 ry="32.857143"
                 rx="65.714287"
                 cy="762.36218"
                 cx="567.14288"
                 id="path8091"
                 transform="matrix(0.58270937,-0.81268061,0.81268061,0.58270937,-465.7507,809.03262)" />
              <path
                 d="m 494.28571,741.6479 c 0,0 14.40901,-2.31616 20.71429,-5.71428 22.08801,-11.90395 53.57143,-52.85715 53.57143,-52.85715 0,0 -33.14169,43.13867 -40,64.99999 -2.07174,6.60382 -1.42857,20.71429 -1.42857,20.71429 z"
                 id="path8093"
                 inkscape:connector-curvature="0"
                 sodipodi:nodetypes="cscscc" />
            </g>
            <g
               transform="matrix(-0.02100622,0,0,0.02100622,604.26937,721.52662)"
               id="g8095">
              <ellipse
                 ry="32.857143"
                 rx="65.714287"
                 cy="762.36218"
                 cx="567.14288"
                 id="path8097"
                 transform="matrix(0.58270937,-0.81268061,0.81268061,0.58270937,-465.7507,809.03262)" />
              <path
                 d="m 494.28571,741.6479 c 0,0 14.40901,-2.31616 20.71429,-5.71428 22.08801,-11.90395 53.57143,-52.85715 53.57143,-52.85715 0,0 -33.14169,43.13867 -40,64.99999 -2.07174,6.60382 -1.42857,20.71429 -1.42857,20.71429 z"
                 id="path8099"
                 inkscape:connector-curvature="0"
                 sodipodi:nodetypes="cscscc" />
            </g>
            <g
               transform="matrix(-0.02064274,-0.0038908,-0.0038908,0.02064274,607.30369,721.64932)"
               id="g8101">
              <ellipse
                 ry="32.857143"
                 rx="65.714287"
                 cy="762.36218"
                 cx="567.14288"
                 id="path8103"
                 transform="matrix(0.58270937,-0.81268061,0.81268061,0.58270937,-465.7507,809.03262)" />
              <path
                 d="m 494.28571,741.6479 c 0,0 14.40901,-2.31616 20.71429,-5.71428 22.08801,-11.90395 53.57143,-52.85715 53.57143,-52.85715 0,0 -33.14169,43.13867 -40,64.99999 -2.07174,6.60382 -1.42857,20.71429 -1.42857,20.71429 z"
                 id="path8105"
                 inkscape:connector-curvature="0"
                 sodipodi:nodetypes="cscscc" />
            </g>
          </g>
        </g>
        <circle
           r="2.5"
           cy="732.36218"
           cx="608"
           class="design-element yellow"
           id="path8109"
           transform="matrix(0.485552,-0.55754244,0.55754244,0.485552,-609.87518,1.320708)" />
        <circle
           r="2.5"
           cy="732.36218"
           cx="608"
           id="path8111"
           class="design-element yellow"
           inkscape:transform-center-x="-3.1501887"
           inkscape:transform-center-y="-1.6050895"
           transform="matrix(-0.38021056,-0.63407748,0.63407748,-0.38021056,-141.51598,679.55003)" />
        <circle
           r="2.5"
           cy="732.36218"
           cx="608"
           transform="matrix(-0.72053504,0.16566101,-0.16566101,-0.72053504,648.2494,443.69835)"
           inkscape:transform-center-y="-3.4919705"
           inkscape:transform-center-x="0.5530674"
           class="design-element yellow"
           id="path8113" />
        <circle
           r="2.5"
           cy="732.36218"
           cx="608"
           id="path8115"
           class="design-element yellow"
           inkscape:transform-center-x="3.4919258"
           inkscape:transform-center-y="-0.5530731"
           transform="matrix(-0.06510459,0.73646162,-0.73646162,-0.06510459,667.99205,-380.29537)" />
        <circle
           r="2.5"
           cy="732.36218"
           cx="608"
           transform="matrix(0.68029819,0.2894973,-0.2894973,0.68029819,-109.57177,-653.69978)"
           inkscape:transform-center-y="3.1501051"
           inkscape:transform-center-x="1.6050854"
           class="design-element yellow"
           id="path8117" />
        <g
           transform="matrix(-0.6491698,-0.35382606,0.35382606,-0.6491698,218.16484,702.9075)"
           id="g8119">
          <circle
             r="2.5"
             cy="732.36218"
             cx="608"
             transform="translate(1.5,9.75)"
             id="path8121"
             class="design-element yellow" />
          <circle
             r="2.5"
             cy="732.36218"
             cx="608"
             transform="matrix(0.30901699,-0.95105652,0.95105652,0.30901699,-274.24997,1089.9371)"
             inkscape:transform-center-y="-1.6050895"
             inkscape:transform-center-x="-3.1501887"
             class="design-element yellow"
             id="path8123" />
          <circle
             r="2.5"
             cy="732.36218"
             cx="608"
             id="path8125"
             class="design-element yellow"
             inkscape:transform-center-x="0.5530674"
             inkscape:transform-center-y="-3.4919705"
             transform="matrix(-0.809017,-0.58778525,0.58778525,-0.809017,667.85758,1685.9871)" />
          <circle
             r="2.5"
             cy="732.36218"
             cx="608"
             transform="matrix(-0.80901699,0.58778526,-0.58778526,-0.80901699,1525.8621,974.17912)"
             inkscape:transform-center-y="-0.5530731"
             inkscape:transform-center-x="3.4919258"
             class="design-element yellow"
             id="path8127" />
          <circle
             r="2.5"
             cy="732.36218"
             cx="608"
             id="path8129"
             class="design-element yellow"
             inkscape:transform-center-x="1.6050854"
             inkscape:transform-center-y="3.1501051"
             transform="matrix(0.309017,0.95105651,-0.95105651,0.309017,1114.0304,-61.792435)" />
        </g>
        <g
           id="g8131"
           transform="matrix(0.31450273,-0.66910564,0.66910564,0.31450273,-610.58237,190.80877)">
          <circle
             r="2.5"
             cy="732.36218"
             cx="608"
             class="design-element yellow"
             id="path8133"
             transform="translate(1.5,9.75)" />
          <circle
             r="2.5"
             cy="732.36218"
             cx="608"
             id="path8135"
             class="design-element yellow"
             inkscape:transform-center-x="-3.1501887"
             inkscape:transform-center-y="-1.6050895"
             transform="matrix(0.30901699,-0.95105652,0.95105652,0.30901699,-274.24997,1089.9371)" />
          <circle
             r="2.5"
             cy="732.36218"
             cx="608"
             transform="matrix(-0.809017,-0.58778525,0.58778525,-0.809017,667.85758,1685.9871)"
             inkscape:transform-center-y="-3.4919705"
             inkscape:transform-center-x="0.5530674"
             class="design-element yellow"
             id="path8137" />
          <circle
             r="2.5"
             cy="732.36218"
             cx="608"
             id="path8139"
             class="design-element yellow"
             inkscape:transform-center-x="3.4919258"
             inkscape:transform-center-y="-0.5530731"
             transform="matrix(-0.80901699,0.58778526,-0.58778526,-0.80901699,1525.8621,974.17912)" />
          <circle
             r="2.5"
             cy="732.36218"
             cx="608"
             transform="matrix(0.309017,0.95105651,-0.95105651,0.309017,1114.0304,-61.792435)"
             inkscape:transform-center-y="3.1501051"
             inkscape:transform-center-x="1.6050854"
             class="design-element yellow"
             id="path8141" />
        </g>
      </g>
      <g
         id="g391"
         class="green">
        <path
           inkscape:connector-curvature="0"
           id="path7948"
           d="M 150,26.012039 150,95 l 1,0 0,-68.987961 z"
           sodipodi:nodetypes="ccccc" />
        <path
           inkscape:connector-curvature="0"
           id="path7950"
           d="M 146,26.012039 146,95 l 3,0 0,-68.987961 z"
           sodipodi:nodetypes="ccccc" />
        <path
           inkscape:connector-curvature="0"
           id="path7952"
           d="M 143,26.012039 143,95 l 2,0 0,-68.987961 z"
           sodipodi:nodetypes="ccccc" />
        <path
           inkscape:connector-curvature="0"
           id="path7954"
           d="M 141,26.012039 141,95 l 1,0 0,-68.987961 z"
           sodipodi:nodetypes="ccccc" />
        <path
           inkscape:connector-curvature="0"
           id="path7956"
           d="m 135,24 0,71 3,0 -5e-5,-69 z"
           sodipodi:nodetypes="ccccc" />
        <path
           inkscape:connector-curvature="0"
           id="path7958"
           d="m 132,26 0,69 2,0 -4e-5,-69 z"
           sodipodi:nodetypes="ccccc" />
        <path
           inkscape:connector-curvature="0"
           id="path7960"
           d="m 129,26 0,69 2,0 1e-5,-69 z"
           sodipodi:nodetypes="ccccc" />
        <path
           inkscape:connector-curvature="0"
           id="path7962"
           d="m 125,26 0,69 1,0 5e-5,-69 z"
           sodipodi:nodetypes="ccccc" />
        <path
           inkscape:connector-curvature="0"
           id="path7964"
           d="m 121,26 0,69 1,0 6e-5,-69 z"
           sodipodi:nodetypes="ccccc" />
        <path
           inkscape:connector-curvature="0"
           id="path7966"
           d="m 116,26 0,69 2,0 1e-5,-69 z"
           sodipodi:nodetypes="ccccc" />
        <path
           inkscape:connector-curvature="0"
           id="path7968"
           d="m 112,26 0,69 1,0 -5e-5,-69 z"
           sodipodi:nodetypes="ccccc" />
        <path
           inkscape:connector-curvature="0"
           id="path7970"
           d="m 110,26 0,69 1,0 -5e-5,-69 z"
           sodipodi:nodetypes="ccccc" />
        <path
           inkscape:connector-curvature="0"
           id="path7972"
           d="m 108,26 0,69 1,0 4e-5,-69 z"
           sodipodi:nodetypes="ccccc" />
        <path
           inkscape:connector-curvature="0"
           id="path7974"
           d="m 103,26 0,69 2,0 1e-5,-69 z"
           sodipodi:nodetypes="ccccc" />
        <path
           inkscape:connector-curvature="0"
           id="path7976"
           d="m 99,26 0,69 1,0 -10e-7,-69 z"
           sodipodi:nodetypes="ccccc" />
        <path
           inkscape:connector-curvature="0"
           id="path7978"
           d="M 94.983089,26.012039 95,95 96,95 95.98263,26.012039 Z"
           sodipodi:nodetypes="ccccc" />
        <path
           d="M 122.44657,6.3372804 C 131.63587,7.2870331 135.07702,14.767884 135,28 l 2.96392,-1.398609 c 0,-1.461895 -0.0255,-1.249361 -0.0255,-2.711244 0,-10.866897 -6.40398,-17.274677 -10.91182,-18.343579 z"
           id="path8143"
           inkscape:connector-curvature="0"
           sodipodi:nodetypes="cccscc" />
        <g
           transform="matrix(0.89458574,0,0,0.89458574,-468.09845,-644.42698)"
           id="g8145">
          <g
             transform="translate(-0.6875,-0.0625)"
             id="g8147">
            <path
               sodipodi:nodetypes="ccc"
               inkscape:connector-curvature="0"
               id="path8149"
               d="m 646.11882,744.69741 c 9.98853,-2.85699 22.36057,-3.40732 20.1894,-18.03175 -19.13147,-9.00363 -12.68327,7.89971 -20.1894,18.03175 z" />
            <path
               sodipodi:nodetypes="ccc"
               inkscape:connector-curvature="0"
               id="path8151"
               d="m 667.50879,725.1485 c -4.96993,6.86401 -15.79612,16.96445 -22.45063,19.97578 6.6817,-2.48508 19.65127,-12.66443 22.45063,-19.97578 z"
               style="fill:#ffffff;fill-opacity:1;stroke:none" />
          </g>
        </g>
        <g
           id="g8153"
           transform="matrix(0.73729109,0.50664139,0.50664139,-0.73729109,-728.9281,199.42539)">
          <g
             transform="matrix(-0.85351374,-0.52107033,0.52107033,-0.85351374,864.58887,1695.2445)"
             id="g8155">
            <g
               transform="translate(-0.6875,-0.0625)"
               id="g8157">
              <path
                 sodipodi:nodetypes="ccc"
                 inkscape:connector-curvature="0"
                 id="path8159"
                 d="m 646.11882,744.69741 c 9.98853,-2.85699 22.36057,-3.40732 20.1894,-18.03175 -19.99874,-7.24796 -12.68327,7.89971 -20.1894,18.03175 z" />
              <path
                 sodipodi:nodetypes="ccc"
                 inkscape:connector-curvature="0"
                 id="path8161"
                 d="m 667.50879,725.1485 c -4.96993,6.86401 -15.79612,16.96445 -22.45063,19.97578 6.6817,-2.48508 19.65127,-12.66443 22.45063,-19.97578 z"
                 style="fill:#ffffff;fill-opacity:1;stroke:none" />
            </g>
          </g>
        </g>
        <path
           sodipodi:nodetypes="cccscc"
           inkscape:connector-curvature="0"
           id="path8163"
           d="M 137.87818,4.6040196 C 135.88514,6.1688092 135.07702,14.767884 135,28 l 2.96392,-1.398609 c 0,-1.461895 0.0361,1.860492 0.0361,0.398609 0,-10.866897 0.85886,-19.3222012 1.21536,-21.1179659 z" />
      </g>
      <g
         id="g395"
         class="cyan">
        <path
           inkscape:connector-curvature="0"
           d="m 154,26 0,69 3,0 0,-53.810872 c -1.32362,-1.014805 -2.12462,-2.271422 -2.12462,-3.662215 0,-1.390781 0.801,-2.675356 2.12462,-3.690161 L 157,26 Z m 4,0 0,7.193768 c 1.12603,-0.642997 2.49599,-1.128715 4.02565,-1.397795 L 162,26 Z m 5,0 -0.08,5.62824 c 0.32965,-0.03644 0.66619,-0.03965 1.00641,-0.05585 L 164,26.000057 c -0.35153,4.6e-5 -0.64847,-3.3e-5 -1,-5.7e-5 z m 2,0 0,5.544374 c 0.68266,0.0083 1.34304,0.08097 1.9849,0.167733 L 167,26 Z M 158,41.860072 158,95 l 4,0 0,-51.770093 c -1.58676,-0.26883 -2.87451,-0.727732 -4,-1.369835 z m 9,1.481649 c -0.64077,0.08753 -1.30349,0.131652 -1.9849,0.139785 L 165,95 l 2,0 z m -4,0.05597 L 163,95 l 1,0 0.006,-51.546402 c -0.34022,-0.01632 -0.67676,-0.01941 -1.00641,-0.05585 z"
           id="path7946"
           sodipodi:nodetypes="ccccscccccccccccccccccccccccccccccccccc" />
        <circle
           r="0.94885141"
           cy="35.27636"
           cx="159.09236"
           id="path8165" />
      </g>
    </g>
  </g>
</svg>
