<svg xmlns="http://www.w3.org/2000/svg" width="178" height="150"><text style="line-height:125%;-inkscape-font-specification:'Arial Narrow'" x=".004" y="125.685" transform="scale(.9034 1.10693)" font-weight="400" font-size="34.812" font-family="Arial Narrow" letter-spacing="0" word-spacing="0" fill="#333"><tspan x=".004" y="125.685" font-size="15.912">font: Arial Narrow, convert to path</tspan></text><path fill="none" d="M1 140h1v1H1z"/><g transform="translate(65.742 151.154)"><path d="M108.258-134.154v78h1v-78zm2 0v78h2v-78zm-3 37c-3 10-3 8.063-3 23v18h3z" fill="#06f"/><path d="M84.258-120.154l4 55.652v8.348h3v-64h-3zm8 0v64h4v-64zm5 0v64h1v-64zm2 0v64h2v-8.348l4-55.652h-4z" fill="#0cf" fill-rule="evenodd"/><path d="M44.258-113.154v57h1v-57h-1zm2 0v57h1v-57h-1zm4 0v57h2v-57h-2zm5 0v57h1v-57h-1zm4 0v57h1v-57h-1zm4 0v57h2v-57h-2zm3 0v57h2v-57h-2zm3 0v57h3v-56.438a23.397 23.397 0 0 0-1.031-.468c.002-.031-.002-.064 0-.094h-1.97zm-26 .094c-.337.146-.672.307-1 .468v56.438h1v-56.906zm-4 2.25a23.35 23.35 0 0 0-2 1.562v53.094h2v-54.656zm36 0v54.656h1v-53.938c-.324-.25-.663-.484-1-.718zm2 1.562v53.094h2v-51.125a23.213 23.213 0 0 0-2-1.969zm-43 3.125c-.353.446-.68.903-1 1.375v48.594h1v-49.969zm46 0v49.969h3v-44.969a23.135 23.135 0 0 0-3-5zm4 7.688v42.28h1v-35.5c0-2.358-.355-4.639-1-6.78zm-54.031.062a23.518 23.518 0 0 0-.97 6.281c-.002.147 0 .29 0 .438l.032 35.5h.969l-.031-42.219z" fill="#00d400" fill-rule="evenodd"/><text style="line-height:125%;-inkscape-font-specification:'Arial Narrow'" x="-71.391" y="-33.571" transform="scale(.92864 1.07684)" font-weight="400" font-size="31.596" font-family="Arial Narrow" letter-spacing="0" word-spacing="0" fill="#333"><tspan x="-71.391" y="-33.571" font-size="22.051">OPEN BEAUTY FACTS</tspan></text><path d="M-53.318-147.904c-3.133-.052-5.631 3.143-6.424 12.75v22.719h22v-22.72c-3.443-3.55-10.354-12.663-15.576-12.75z" fill="red" fill-rule="evenodd"/><path d="M-46.742-117.978v61.824h2v-61.824h-2zm-4 .824v61h3v-61h-3zm-15 4.121v56.879h2v-56.879h-2zm3 0v56.879h1v-56.879h-1zm5 0v56.879h1v-56.879h-1zm3 0v56.879h1v-56.879h-1zm11 0v56.879h3v-56.879h-3zm4 0v56.879h3v-56.879h-3zm4 0v56.879h2v-56.879h-2zm3 0v56.879h1v-56.879h-1z" fill="red"/><path d="M-28.742-100.154v44h2v-44h-2zm3 0v44h1v-44h-1zm4 0v44h1v-44h-1zm2 0v44h3v-44h-3zm6 0v44h2v-44h-2zm3 0v44h1v-44h-1zm4 0l.031 44h1.969l-.031-44h-1.97zm5 0v44h1v-44h-1zm2 0v44h1v-44h-1zm4 0v44h3v-44h-3zm4 0v44h2v-44h-2zm3 0v44h1v-44h-1zm4 0v44h3v-44h-3zm4 0v44h2v-44h-2zm3 0v44h1v-44h-1zm2 0v44h2v-44h-2z" fill="#fc0"/><circle r=".949" cy="-115.878" cx="93.35" fill="#0cf"/><path d="M104.258-33.154v5h8v-5h-8z" fill="#06f"/><path d="M88.258-33.154v5h13v-5h-13z" fill="#0cf"/><path d="M29.258-33.154v5h56v-5h-56z" fill="#00d400"/><path d="M-28.742-33.154v5h55v-5h-55z" fill="#fc0"/><path d="M-65.742-33.154v5h34v-5h-34z" fill="red"/><path fill="red" fill-rule="evenodd" d="M-62.742-115.435h1v3h-1z"/><path d="M-62.742-117.154h28v5h-28z" fill="red" fill-rule="evenodd"/><path d="M-65.742-113.154h34v1h-34z" fill="red" fill-rule="evenodd"/><path d="M-54.742-147.654c-.717.26-1.397.735-2 1.5v29h2v-30.5z" fill="#fff" fill-rule="evenodd"/><path d="M-20.492-120.154c-4.57 0-8.25 3.68-8.25 8.25v10.75h55v-10.75c0-4.57-3.68-8.25-8.25-8.25z" fill="#fc0" fill-rule="evenodd"/><path d="M62.602-148.092c-1.784.047-3.8.248-5.344.438-6.366.784-4.656-.01-18.656 4.656-1.476.492-1.392 5.383 0 4.688 4.383-2.192 9.789-2.32 14.78-1.844-.494 1.013-.78 2.247-.78 3.562v3.657c-1.91.868-3.446 2.46-4.188 4.437a7.959 7.959 0 0 0-5.156 7.469v6.875h28v-6.875a7.959 7.959 0 0 0-5.156-7.469c-.743-1.977-2.278-3.569-4.188-4.437v-3.657c0-.832-.134-1.647-.344-2.375 2.115.365 3.865.657 5.032.657 3.11 0 2.694-7.789 0-9.344-.656-.379-2.217-.485-4-.438z" fill="#00d400" fill-rule="evenodd"/><path fill="none" d="M44.258-151.154h5v5h-5z"/><path fill="none" d="M44.258-151.154h5v5h-5z"/><path d="M109.258-148.154c-.554 0-1 .446-1 1v3c0 .554.446 1 1 1v-4h1v4h1c.554 0 1-.446 1-1v-3c0-.554-.446-1-1-1h-2zm-9 1h7v1h-7zm0 2h7v1h-7zm0 2h7v1h-7zm0 2h7v1h-7zm0 2h7v1h-7zm0 2h7v1h-7zm0 2h7v1h-7z" fill="#06f" fill-rule="evenodd"/><path d="M108.258-145.154v12h1v-12h-1zm2 0v12h2v-12h-2z" fill="#06f" fill-rule="evenodd"/><path fill="none" d="M44.258-151.154h5v5h-5z"/><path fill="none" d="M44.258-151.154h5v5h-5z"/></g></svg>