<?xml version="1.0" encoding="UTF-8" standalone="no"?>
<svg
   xmlns:dc="http://purl.org/dc/elements/1.1/"
   xmlns:cc="http://creativecommons.org/ns#"
   xmlns:rdf="http://www.w3.org/1999/02/22-rdf-syntax-ns#"
   xmlns:svg="http://www.w3.org/2000/svg"
   xmlns="http://www.w3.org/2000/svg"
   xmlns:sodipodi="http://sodipodi.sourceforge.net/DTD/sodipodi-0.dtd"
   xmlns:inkscape="http://www.inkscape.org/namespaces/inkscape"
   inkscape:export-ydpi="90"
   inkscape:export-xdpi="90"
   inkscape:export-filename="openbeautyfacts-logo-en-178x150.png"
   sodipodi:docname="openbeautyfacts-logo-without-tagline.svg"
   inkscape:version="1.0beta1 (32d4812, 2019-09-19)"
   version="1.1"
   id="svg8313"
   height="123"
   width="178">
  <defs
     id="defs8315" />
  <sodipodi:namedview
     fit-margin-bottom="0"
     fit-margin-right="0"
     fit-margin-left="0"
     fit-margin-top="0"
     inkscape:document-rotation="0"
     inkscape:snap-global="true"
     inkscape:window-maximized="0"
     inkscape:window-y="23"
     inkscape:window-x="0"
     inkscape:window-height="855"
     inkscape:window-width="1440"
     showgrid="true"
     inkscape:current-layer="layer1"
     inkscape:document-units="px"
     inkscape:cy="133.55026"
     inkscape:cx="93.448844"
     inkscape:zoom="1.5354764"
     inkscape:pageshadow="2"
     inkscape:pageopacity="0.0"
     borderopacity="1.0"
     bordercolor="#666666"
     pagecolor="#ffffff"
     id="base">
    <inkscape:grid
       originy="-9.716797e-07"
       originx="0"
       id="grid8566"
       type="xygrid" />
  </sodipodi:namedview>
  <metadata
     id="metadata8318">
    <rdf:RDF>
      <cc:Work
         rdf:about="">
        <dc:format>image/svg+xml</dc:format>
        <dc:type
           rdf:resource="http://purl.org/dc/dcmitype/StillImage" />
        <dc:title></dc:title>
      </cc:Work>
    </rdf:RDF>
  </metadata>
  <g
     id="layer1"
     inkscape:groupmode="layer"
     inkscape:label="Calque 1">
    <rect
       inkscape:export-ydpi="90"
       inkscape:export-xdpi="90"
       inkscape:export-filename="C:\Users\Stéphane\Desktop\Blogs\OpenFoodFacts\test-178.png"
       y="140"
       x="1"
       height="1"
       width="1"
       id="rect3725"
       style="fill:none" />
    <path
       style="opacity:1;fill:#0066ff;fill-opacity:1;fill-rule:nonzero;stroke:none;stop-opacity:1"
       d="M 174,17 V 18.25 47.59375 95 h 1 V 17 Z m 2,0 v 78 h 2 V 17 Z m -3,37 c -3,10 -3,8.06339 -3,23 v 18 h 3 z"
       id="path12151"
       inkscape:connector-curvature="0"
       sodipodi:nodetypes="ccccccccccccccccc"
       inkscape:export-filename="openbeautyfacts-logo-fr.png"
       inkscape:export-xdpi="89.999992"
       inkscape:export-ydpi="89.999992" />
    <path
       style="opacity:1;fill:#00ccff;fill-opacity:1;fill-rule:evenodd;stroke:none;stop-opacity:1"
       d="m 150,31 4,55.65217 V 95 h 3 V 31 h -3 z m 8,0 v 64 h 4 V 31 Z m 5,0 v 64 h 1 V 31 Z m 2,0 v 64 h 2 V 86.65217 L 171,31 h -4 z"
       id="path12155"
       inkscape:connector-curvature="0"
       sodipodi:nodetypes="cccccccccccccccccccccccc"
       inkscape:export-filename="openbeautyfacts-logo-fr.png"
       inkscape:export-xdpi="89.999992"
       inkscape:export-ydpi="89.999992" />
    <path
       inkscape:connector-curvature="0"
       style="opacity:1;fill:#00d400;fill-opacity:1;fill-rule:evenodd;stroke:none;stop-opacity:1"
       d="m 110,38 v 57 h 1 V 38 Z m 2,0 v 57 h 1 V 38 Z m 4,0 v 57 h 2 V 38 Z m 5,0 v 57 h 1 V 38 Z m 4,0 v 57 h 1 V 38 Z m 4,0 v 57 h 2 V 38 Z m 3,0 v 57 h 2 V 38 Z m 3,0 v 57 h 3 V 38.5625 c -0.33707,-0.16585 -0.68515,-0.31888 -1.03125,-0.46875 0.002,-0.0306 -0.002,-0.0632 0,-0.0937 H 135 Z m -26,0.0937 c -0.33724,0.14652 -0.67134,0.30704 -1,0.46875 v 56.4375 h 1 z m -4,2.25 c -0.69601,0.48378 -1.36246,1.00762 -2,1.5625 v 53.09375 h 2 z m 36,0 v 54.65625 h 1 v -53.9375 c -0.32365,-0.25126 -0.66298,-0.4845 -1,-0.71875 z m 2,1.5625 v 53.09375 h 2 v -51.125 c -0.62899,-0.69721 -1.29148,-1.3521 -2,-1.96875 z m -43,3.125 c -0.35282,0.44603 -0.68007,0.90323 -1,1.375 v 48.59375 h 1 z m 46,0 v 49.96875 h 3 V 50.0312 c -0.79731,-1.79981 -1.79497,-3.47659 -3,-5 z m 4,7.6875 v 42.28125 h 1 v -35.5 c 0,-2.35858 -0.35465,-4.63934 -1,-6.78125 z m -54.03125,0.0625 c -0.5928,1.98873 -0.92874,4.10406 -0.96875,6.28125 -0.003,0.14674 0,0.29008 0,0.4375 l 0.0312,35.5 h 0.96875 z"
       id="path12157"
       inkscape:export-filename="openbeautyfacts-logo-fr.png"
       inkscape:export-xdpi="89.999992"
       inkscape:export-ydpi="89.999992" />
    <text
       inkscape:export-ydpi="89.999992"
       inkscape:export-xdpi="89.999992"
       inkscape:export-filename="openbeautyfacts-logo-fr.png"
       xml:space="preserve"
       style="font-style:normal;font-variant:normal;font-weight:normal;font-stretch:normal;line-height:0%;font-family:'Arial Narrow';-inkscape-font-specification:'Arial Narrow';letter-spacing:0px;word-spacing:0px;opacity:1;fill:#ffffff;fill-opacity:1;stroke:none;stop-opacity:1"
       x="-0.59713864"
       y="106.79713"
       id="text12163"
       transform="scale(0.92864418,1.0768387)"><tspan
         style="font-size:22.0509px;line-height:1.25;fill:#ffffff;fill-opacity:1"
         sodipodi:role="line"
         id="tspan12165"
         x="-0.59713864"
         y="106.79713">OPEN BEAUTY FACTS</tspan></text>
    <path
       style="opacity:1;fill:#ff0000;fill-opacity:1;fill-rule:evenodd;stroke:none;stop-opacity:1"
       d="M 12.42425,3.25 C 9.29113,3.1984 6.79276,6.39302 6,16 V 38.71875 H 28 V 16 C 24.55751,12.44994 17.6461,3.33604 12.42425,3.25 Z"
       id="path12167"
       inkscape:connector-curvature="0"
       inkscape:export-filename="openbeautyfacts-logo-fr.png"
       inkscape:export-xdpi="89.999992"
       inkscape:export-ydpi="89.999992" />
    <path
       style="opacity:1;fill:#ff0000;fill-opacity:1;fill-rule:nonzero;stroke:none;stop-opacity:1"
       d="M 19,33.17567 V 95 h 2 V 33.17567 Z M 15,34 v 61 h 3 V 34 Z M 0,38.12162 V 95 H 2 V 38.12162 Z m 3,0 V 95 H 4 V 38.12162 Z m 5,0 V 95 H 9 V 38.12162 Z m 3,0 V 95 h 1 V 38.12162 Z m 11,0 V 95 h 3 V 38.12162 Z m 4,0 V 95 h 3 V 38.12162 Z m 4,0 V 95 h 2 V 38.12162 Z m 3,0 V 95 h 1 V 38.12162 Z"
       id="path12169"
       inkscape:connector-curvature="0"
       inkscape:export-filename="openbeautyfacts-logo-fr.png"
       inkscape:export-xdpi="89.999992"
       inkscape:export-ydpi="89.999992" />
    <path
       style="opacity:1;fill:#ffcc00;fill-opacity:1;fill-rule:nonzero;stroke:none;stop-opacity:1"
       d="m 37,51 v 44 h 2 V 51 Z m 3,0 v 44 h 1 V 51 Z m 4,0 v 44 h 1 V 51 Z m 2,0 v 44 h 3 V 51 Z m 6,0 v 44 h 2 V 51 Z m 3,0 v 44 h 1 V 51 Z m 4,0 0.0312,44 H 61 L 60.9688,51 Z m 5,0 v 44 h 1 V 51 Z m 2,0 v 44 h 1 V 51 Z m 4,0 v 44 h 3 V 51 Z m 4,0 v 44 h 2 V 51 Z m 3,0 v 44 h 1 V 51 Z m 4,0 v 44 h 3 V 51 Z m 4,0 v 44 h 2 V 51 Z m 3,0 v 44 h 1 V 51 Z m 2,0 v 44 h 2 V 51 Z"
       id="path12171"
       inkscape:connector-curvature="0"
       inkscape:export-filename="openbeautyfacts-logo-fr.png"
       inkscape:export-xdpi="89.999992"
       inkscape:export-ydpi="89.999992" />
    <circle
       r="0.94885141"
       cy="35.27636"
       cx="159.09232"
       id="path12173"
       style="opacity:1;fill:#00ccff;fill-opacity:1;stroke:none;stop-opacity:1"
       inkscape:export-filename="openbeautyfacts-logo-fr.png"
       inkscape:export-xdpi="89.999992"
       inkscape:export-ydpi="89.999992" />
    <path
       inkscape:connector-curvature="0"
       style="opacity:1;fill:#0066ff;fill-opacity:1;fill-rule:nonzero;stroke:none;stop-opacity:1"
       d="m 170.00004,118 v 5 c 2.66569,0 5.33424,0 7.99992,0 v -5 c -2.66568,0 -5.33423,0 -7.99983,0 z"
       id="path12175"
       inkscape:export-filename="openbeautyfacts-logo-fr.png"
       inkscape:export-xdpi="89.999992"
       inkscape:export-ydpi="89.999992"
       sodipodi:nodetypes="cccccc" />
    <path
       inkscape:connector-curvature="0"
       style="opacity:1;fill:#00ccff;fill-opacity:1;fill-rule:nonzero;stroke:none;stop-opacity:1"
       d="m 154.00001,118 v 5 c 4.33407,0 8.6659,0 12.99997,0 v -5 c -4.33407,0 -8.6659,0 -12.99997,0 z"
       id="path12177"
       inkscape:export-filename="openbeautyfacts-logo-fr.png"
       inkscape:export-xdpi="89.999992"
       inkscape:export-ydpi="89.999992"
       sodipodi:nodetypes="ccccc" />
    <path
       inkscape:connector-curvature="0"
       style="opacity:1;fill:#00d400;fill-opacity:1;fill-rule:nonzero;stroke:none;stop-opacity:1"
       d="m 95,118 v 5 c 18.6596,0 37.34041,0 56.00004,0 v -5 C 132.34041,118 113.6596,118 95,118 Z"
       id="path12179"
       inkscape:export-filename="openbeautyfacts-logo-fr.png"
       inkscape:export-xdpi="89.999992"
       inkscape:export-ydpi="89.999992"
       sodipodi:nodetypes="ccccc" />
    <path
       inkscape:connector-curvature="0"
       style="opacity:1;fill:#ffcc00;fill-opacity:1;fill-rule:nonzero;stroke:none;stop-opacity:1"
       d="m 37,118 v 5 c 18.33338,0 36.66662,0 55,0 v -5 c -18.33338,0 -36.66662,0 -55,0 z"
       id="path12181"
       inkscape:export-filename="openbeautyfacts-logo-fr.png"
       inkscape:export-xdpi="89.999992"
       inkscape:export-ydpi="89.999992"
       sodipodi:nodetypes="ccccc" />
    <path
       inkscape:connector-curvature="0"
       style="opacity:1;fill:#ff0000;fill-opacity:1;fill-rule:nonzero;stroke:none;stop-opacity:1"
       d="m 0,118 v 5 c 11.33371,0 22.6663,0 34,0 v -5 c -11.3337,0 -22.66629,0 -34,0 z"
       id="path12183"
       inkscape:export-filename="openbeautyfacts-logo-fr.png"
       inkscape:export-xdpi="89.999992"
       inkscape:export-ydpi="89.999992"
       sodipodi:nodetypes="ccccc" />
    <rect
       style="opacity:1;fill:#ff0000;fill-opacity:1;fill-rule:evenodd;stroke:none;stop-opacity:1"
       id="rect12187"
       width="1"
       height="3"
       x="2.9999399"
       y="35.71875"
       inkscape:export-filename="openbeautyfacts-logo-fr.png"
       inkscape:export-xdpi="89.999992"
       inkscape:export-ydpi="89.999992" />
    <path
       style="opacity:1;fill:#ff0000;fill-opacity:1;fill-rule:evenodd;stroke:none;stop-opacity:1"
       d="m 3,34 h 14 14 v 5 H 17 3 Z"
       id="path12191"
       inkscape:connector-curvature="0"
       sodipodi:nodetypes="ccccccc"
       inkscape:export-filename="openbeautyfacts-logo-fr.png"
       inkscape:export-xdpi="89.999992"
       inkscape:export-ydpi="89.999992" />
    <path
       sodipodi:nodetypes="ccccccc"
       inkscape:connector-curvature="0"
       id="path12195"
       d="m 0,38 h 17 17 v 1 H 17 0 Z"
       style="opacity:1;fill:#ff0000;fill-opacity:1;fill-rule:evenodd;stroke:none;stop-opacity:1"
       inkscape:export-filename="openbeautyfacts-logo-fr.png"
       inkscape:export-xdpi="89.999992"
       inkscape:export-ydpi="89.999992" />
    <path
       inkscape:export-ydpi="89.999992"
       inkscape:export-xdpi="89.999992"
       inkscape:export-filename="openbeautyfacts-logo-fr.png"
       id="rect12197"
       d="M 11,3.5 C 10.28328,3.76072 9.60271,4.23547 9,5 v 29 h 2 z"
       style="opacity:1;fill:#ffffff;fill-opacity:1;fill-rule:evenodd;stroke:none;stop-opacity:1"
       inkscape:connector-curvature="0" />
    <path
       sodipodi:nodetypes="ssccsss"
       style="opacity:1;fill:#ffcc00;fill-opacity:1;fill-rule:evenodd;stroke:none;stop-opacity:1"
       d="M 45.25,31 C 40.6795,31 37,34.6795 37,39.25 V 50 H 92 V 39.25 C 92,34.6795 88.3205,31 83.75,31 Z"
       id="path12199"
       inkscape:connector-curvature="0"
       inkscape:export-filename="openbeautyfacts-logo-fr.png"
       inkscape:export-xdpi="89.999992"
       inkscape:export-ydpi="89.999992" />
    <path
       inkscape:connector-curvature="0"
       style="opacity:1;fill:#00d400;fill-opacity:1;fill-rule:evenodd;stroke:none;stop-opacity:1"
       d="M 128.34375,3.0625 C 126.56033,3.1096 124.5439,3.30993 123,3.5 c -6.36567,0.78364 -4.65625,-0.0104 -18.65625,4.65625 -1.47573,0.49191 -1.39133,5.38317 0,4.6875 C 108.72726,10.65199 114.1331,10.5246 119.125,11 c -0.4951,1.01323 -0.78125,2.24737 -0.78125,3.5625 v 3.65625 c -1.91045,0.86858 -3.4453,2.46044 -4.1875,4.4375 C 111.13651,23.78988 109,26.69971 109,30.125 V 37 h 28 v -6.875 c 0,-3.42529 -2.13651,-6.33512 -5.15625,-7.46875 -0.7422,-1.97706 -2.27705,-3.56892 -4.1875,-4.4375 V 14.5625 c 0,-0.83218 -0.13356,-1.64737 -0.34375,-2.375 2.11458,0.36458 3.86458,0.65625 5.03125,0.65625 3.1111,0 2.6943,-7.78819 0,-9.34375 -0.65577,-0.37861 -2.21658,-0.48464 -4,-0.4375 z"
       id="path12201"
       inkscape:export-filename="openbeautyfacts-logo-fr.png"
       inkscape:export-xdpi="89.999992"
       inkscape:export-ydpi="89.999992" />
    <rect
       inkscape:export-ydpi="89.999992"
       inkscape:export-xdpi="89.999992"
       inkscape:export-filename="openbeautyfacts-logo-fr.png"
       style="opacity:1;fill:none;stop-opacity:1"
       y="9.716797e-07"
       x="109.99994"
       height="5"
       width="5"
       id="rect12203" />
    <rect
       id="rect12205"
       width="5"
       height="5"
       x="109.99994"
       y="9.716797e-07"
       style="opacity:1;fill:none;stop-opacity:1"
       inkscape:export-filename="openbeautyfacts-logo-fr.png"
       inkscape:export-xdpi="89.999992"
       inkscape:export-ydpi="89.999992" />
    <path
       inkscape:export-ydpi="89.999992"
       inkscape:export-xdpi="89.999992"
       inkscape:export-filename="openbeautyfacts-logo-fr.png"
       id="rect12207"
       d="m 175,3 c -0.554,0 -1,0.446 -1,1 v 3 c 0,0.554 0.446,1 1,1 V 4 h 1 v 4 h 1 c 0.554,0 1,-0.446 1,-1 V 4 c 0,-0.554 -0.446,-1 -1,-1 z"
       style="opacity:1;fill:#0066ff;fill-opacity:1;fill-rule:evenodd;stroke:none;stop-opacity:1"
       inkscape:connector-curvature="0" />
    <g
       id="g12209"
       transform="matrix(1.1666667,0,0,1,588.33333,31)"
       style="opacity:1;fill:#0066ff;fill-opacity:1;stop-opacity:1"
       inkscape:export-filename="openbeautyfacts-logo-fr.png"
       inkscape:export-xdpi="89.999992"
       inkscape:export-ydpi="89.999992">
      <path
         sodipodi:nodetypes="ccccc"
         inkscape:connector-curvature="0"
         id="path12211"
         d="m -362,-27 h 6 v 1 h -6 z"
         style="fill:#0066ff;fill-opacity:1;fill-rule:evenodd;stroke:none" />
      <path
         style="fill:#0066ff;fill-opacity:1;fill-rule:evenodd;stroke:none"
         d="m -362,-25 h 6 v 1 h -6 z"
         id="path12213"
         inkscape:connector-curvature="0"
         sodipodi:nodetypes="ccccc" />
      <path
         sodipodi:nodetypes="ccccc"
         inkscape:connector-curvature="0"
         id="path12215"
         d="m -362,-23 h 6 v 1 h -6 z"
         style="fill:#0066ff;fill-opacity:1;fill-rule:evenodd;stroke:none" />
      <path
         style="fill:#0066ff;fill-opacity:1;fill-rule:evenodd;stroke:none"
         d="m -362,-21 h 6 v 1 h -6 z"
         id="path12217"
         inkscape:connector-curvature="0"
         sodipodi:nodetypes="ccccc" />
      <path
         sodipodi:nodetypes="ccccc"
         inkscape:connector-curvature="0"
         id="path12219"
         d="m -362,-19 h 6 v 1 h -6 z"
         style="fill:#0066ff;fill-opacity:1;fill-rule:evenodd;stroke:none" />
      <path
         style="fill:#0066ff;fill-opacity:1;fill-rule:evenodd;stroke:none"
         d="m -362,-17 h 6 v 1 h -6 z"
         id="path12221"
         inkscape:connector-curvature="0"
         sodipodi:nodetypes="ccccc" />
      <path
         sodipodi:nodetypes="ccccc"
         inkscape:connector-curvature="0"
         id="path12223"
         d="m -362,-15 h 6 v 1 h -6 z"
         style="fill:#0066ff;fill-opacity:1;fill-rule:evenodd;stroke:none" />
    </g>
    <path
       inkscape:export-ydpi="89.999992"
       inkscape:export-xdpi="89.999992"
       inkscape:export-filename="openbeautyfacts-logo-fr.png"
       id="path12225"
       d="m 174,6 v 1.03125 6.25 V 18 h 1 V 6 Z m 2,0 v 12 h 2 V 6 Z"
       style="opacity:1;fill:#0066ff;fill-opacity:1;fill-rule:evenodd;stroke:none;stop-opacity:1"
       inkscape:connector-curvature="0" />
    <rect
       id="rect12231"
       width="5"
       height="5"
       x="109.99994"
       y="9.716797e-07"
       style="opacity:1;fill:none;stop-opacity:1"
       inkscape:export-filename="openbeautyfacts-logo-fr.png"
       inkscape:export-xdpi="89.999992"
       inkscape:export-ydpi="89.999992" />
    <rect
       inkscape:export-ydpi="89.999992"
       inkscape:export-xdpi="89.999992"
       inkscape:export-filename="openbeautyfacts-logo-fr.png"
       style="opacity:1;fill:none;stop-opacity:1"
       y="9.716797e-07"
       x="109.99994"
       height="5"
       width="5"
       id="rect12233" />
  </g>
</svg>
