<?xml version="1.0" encoding="UTF-8" standalone="no"?>
<!-- Created with Inkscape (http://www.inkscape.org/) -->

<svg
   xmlns:dc="http://purl.org/dc/elements/1.1/"
   xmlns:cc="http://creativecommons.org/ns#"
   xmlns:rdf="http://www.w3.org/1999/02/22-rdf-syntax-ns#"
   xmlns:svg="http://www.w3.org/2000/svg"
   xmlns="http://www.w3.org/2000/svg"
   xmlns:sodipodi="http://sodipodi.sourceforge.net/DTD/sodipodi-0.dtd"
   xmlns:inkscape="http://www.inkscape.org/namespaces/inkscape"
   width="400"
   height="300"
   viewBox="0 0 400 300"
   id="svg4183"
   version="1.1"
   inkscape:version="0.91 r13725"
   sodipodi:docname="opff_cat.svg">
  <defs
     id="defs4185" />
  <sodipodi:namedview
     id="base"
     pagecolor="#ffffff"
     bordercolor="#666666"
     borderopacity="1.0"
     inkscape:pageopacity="0.0"
     inkscape:pageshadow="2"
     inkscape:zoom="0.98994949"
     inkscape:cx="-146.42857"
     inkscape:cy="237.15729"
     inkscape:document-units="px"
     inkscape:current-layer="layer1"
     showgrid="false"
     inkscape:window-width="1920"
     inkscape:window-height="1018"
     inkscape:window-x="-8"
     inkscape:window-y="-8"
     inkscape:window-maximized="1" />
  <metadata
     id="metadata4188">
    <rdf:RDF>
      <cc:Work
         rdf:about="">
        <dc:format>image/svg+xml</dc:format>
        <dc:type
           rdf:resource="http://purl.org/dc/dcmitype/StillImage" />
        <dc:title></dc:title>
      </cc:Work>
    </rdf:RDF>
  </metadata>
  <g
     inkscape:label="Calque 1"
     inkscape:groupmode="layer"
     id="layer1">
    <g
       id="g4800"
       transform="matrix(1.0897188,0,0,1.0897188,-20.898896,-2.7261868)">
      <path
         style="fill:#00d400"
         d="m 288.75,4.79 c 0.97,-0.01 2.68,-1.14 3.21,0.08 6.37,12.95 6.76,28.02 4.7,42.06 -2.65,15.61 -7.28,30.8 -11.4,46.06 -0.58,1.63 0.51,3.14 1.24,4.51 2.88,4.5 4.52,9.63 6.4,14.59 2.96,8.68 2.52,17.9 2.98,26.91 0.12,3.8 -0.48,7.74 0.6,11.43 2.75,3.87 6.2,7.24 9.89,10.21 2.39,1.99 5.69,3.04 7.35,5.81 0.55,1.7 -1.05,3.11 -2.27,4.01 -5.21,3.33 -11.83,4.31 -16.31,8.78 -2.4,2.08 -1.94,5.75 -0.9,8.39 3,4.02 8.49,0.36 12.42,1.86 2.09,2.67 0.9,6.7 -1.39,8.88 -4.88,4.67 -11.54,6.59 -17.71,8.89 -1.69,0.62 -4.13,2.23 -3.17,4.33 4.12,4.27 11.48,2.55 15.32,7.25 -5.36,6.09 -13.29,9.02 -20.36,12.64 -15.35,7.85 -31.58,14.01 -48.41,17.79 -3.7,0.94 -7.5,1.52 -11.04,3.01 5.43,5.43 9.95,12.17 11.81,19.69 0.63,1.51 -0.82,2.55 -1.58,3.65 -26.73,-0.21 -53.48,-0.08 -80.22,0.38 l -36.68,0 c 0.07,-1.73 -0.16,-3.6 0.82,-5.14 2.99,-5.44 7.23,-10.13 9.67,-15.89 -6.83,-0.06 -13.23,-2.71 -19.83,-4.14 -19.28,-5.79 -38.59,-12.82 -55,-24.75 -1.96,-1.32 -3.83,-2.82 -5.22,-4.74 -0.84,-1.02 -2.07,-2.94 -0.34,-3.79 5.28,-1.14 11.06,-0.64 15.9,-3.34 -5.88,-2.12 -12.27,-2.7 -17.86,-5.68 -4.63,-1.89 -9.07,-5.47 -9.63,-10.77 4.05,0.02 8.16,0.44 12.17,-0.23 2.57,-0.83 2.42,-4.45 0.48,-5.89 -6.49,-6.37 -15.41,-9.27 -22.87,-14.25 -1.41,-0.97 -3.18,-2.9 -1.9,-4.63 2.81,-1.75 6.28,-1.64 9.3,-2.87 5.78,-2.32 11.86,-5.55 14.78,-11.33 1.93,-3.62 0.22,-7.68 0.16,-11.49 -0.02,-6.19 -0.5,-12.44 0.49,-18.58 1.57,-10.95 4.09,-22.05 9.69,-31.7 C 53.61,93.41 52.03,90.29 51.1,87.03 47.29,74.9 43.7,62.68 41.5,50.14 38.32,36.01 39.12,21.03 43.35,7.2 c 0.2,-1.82 1.96,-1.32 3.17,-0.92 6.57,1.96 13.01,4.36 19.32,7.05 16.02,6.12 29.73,16.76 43.03,27.33 22.08,-11.01 47.22,-16.29 71.84,-13.94 12.31,1.12 24.66,3 36.41,6.93 4.59,1.49 8.88,4.13 13.54,5.17 9.92,-9.05 20.54,-17.55 32.49,-23.81 8.28,-4.01 16.83,-7.44 25.6,-10.22 m -21,27.01 c -7.51,3.24 -13.98,8.45 -19.93,13.98 -0.82,0.91 -2.84,2.37 -1.1,3.46 9.13,6.88 17.12,15.07 24.8,23.49 1,-4.82 2.59,-9.49 3.82,-14.25 1.36,-6.39 1.99,-12.92 2.12,-19.44 -0.05,-2.79 0.12,-6.29 -2.5,-8.04 -2.35,-0.98 -4.97,-0.09 -7.21,0.8 M 60.47,34.99 c -2.3,14.23 2.58,28.26 6.42,41.79 C 73.62,66.38 82,56.84 92.05,49.53 84.57,42.55 75.98,36.26 66.1,33.22 64.18,32.44 61.05,32.54 60.47,34.99 m 173,89.6 c -3.73,1.23 -7.34,3.01 -10.39,5.5 -7.83,6.93 -11.18,17.64 -11.17,27.84 0.52,9.21 5.71,17.62 12.63,23.49 8.7,7 21.01,9.09 31.58,5.61 12.04,-4.52 19.93,-17.39 19.72,-30.08 0.17,-11.77 -6.38,-23.43 -16.7,-29.16 -7.71,-4.4 -17.11,-4.88 -25.67,-3.2 m -143.03,1.05 c -20.48,4.83 -30.68,32.04 -19.75,49.6 5.47,9.44 16.41,15.07 27.24,14.7 11.91,0.39 22.94,-7.41 28.23,-17.79 6.75,-12.68 4.84,-30.48 -6.64,-39.83 -7.94,-6.68 -19.03,-9.02 -29.08,-6.68 m 57.21,71.09 c -0.56,5.74 1.57,11.37 4.54,16.17 3.03,4.95 7.84,9.14 13.74,10.03 6.79,1.2 14.76,0.98 20.08,-4.01 6.14,-5.72 8.99,-14.38 8.69,-22.65 -15.69,0.08 -31.36,0.4 -47.05,0.46 z"
         id="path5"
         inkscape:connector-curvature="0" />
      <path
         d="m 267.75,31.8 c 2.24,-0.89 4.86,-1.78 7.21,-0.8 2.62,1.75 2.45,5.25 2.5,8.04 -0.13,6.52 -0.76,13.05 -2.12,19.44 -1.23,4.76 -2.82,9.43 -3.82,14.25 -7.68,-8.42 -15.67,-16.61 -24.8,-23.49 -1.74,-1.09 0.28,-2.55 1.1,-3.46 5.95,-5.53 12.42,-10.74 19.93,-13.98 z"
         id="path7"
         inkscape:connector-curvature="0"
         style="fill:#ffffff" />
      <path
         d="m 60.47,34.99 c 0.58,-2.45 3.71,-2.55 5.63,-1.77 9.88,3.04 18.47,9.33 25.95,16.31 C 82,56.84 73.62,66.38 66.89,76.78 63.05,63.25 58.17,49.22 60.47,34.99 Z"
         id="path9"
         inkscape:connector-curvature="0"
         style="fill:#ffffff" />
      <path
         d="m 233.47,124.59 c 8.56,-1.68 17.96,-1.2 25.67,3.2 10.32,5.73 16.87,17.39 16.7,29.16 0.21,12.69 -7.68,25.56 -19.72,30.08 -10.57,3.48 -22.88,1.39 -31.58,-5.61 -6.92,-5.87 -12.11,-14.28 -12.63,-23.49 -0.01,-10.2 3.34,-20.91 11.17,-27.84 3.05,-2.49 6.66,-4.27 10.39,-5.5 m 5.09,8.08 c -6.82,1.54 -13.14,6.3 -15.91,12.79 -2.22,6.97 -2.82,15.17 1.2,21.63 3.9,7.66 12.35,13.3 21.12,12.54 11.41,0.35 21.63,-9.45 22.52,-20.67 0.42,-7.58 -2.19,-15.59 -8.05,-20.62 -5.58,-5.08 -13.53,-6.92 -20.88,-5.67 z"
         id="path11"
         inkscape:connector-curvature="0"
         style="fill:#ffffff" />
      <path
         d="m 90.44,125.64 c 10.05,-2.34 21.14,0 29.08,6.68 11.48,9.35 13.39,27.15 6.64,39.83 -5.29,10.38 -16.32,18.18 -28.23,17.79 -10.83,0.37 -21.77,-5.26 -27.24,-14.7 -10.93,-17.56 -0.73,-44.77 19.75,-49.6 m 2.65,8.47 c -8.39,1.89 -15.68,8.52 -17.62,17.01 -0.55,4.57 -1.34,9.39 0.23,13.85 2.1,7.1 7.68,13.13 14.82,15.33 8.24,1.94 17.44,-0.2 23.5,-6.28 4.72,-5.08 8.3,-11.84 7.38,-18.97 -0.31,-13.76 -15.01,-24.73 -28.31,-20.94 z"
         id="path13"
         inkscape:connector-curvature="0"
         style="fill:#ffffff" />
      <path
         style="fill:#000000"
         d="m 238.56,132.67 c 7.35,-1.25 15.3,0.59 20.88,5.67 5.86,5.03 8.47,13.04 8.05,20.62 -0.89,11.22 -11.11,21.02 -22.52,20.67 -8.77,0.76 -17.22,-4.88 -21.12,-12.54 -4.02,-6.46 -3.42,-14.66 -1.2,-21.63 2.77,-6.49 9.09,-11.25 15.91,-12.79 z"
         id="path15"
         inkscape:connector-curvature="0" />
      <path
         style="fill:#000000"
         d="m 93.09,134.11 c 13.3,-3.79 28,7.18 28.31,20.94 0.92,7.13 -2.66,13.89 -7.38,18.97 -6.06,6.08 -15.26,8.22 -23.5,6.28 -7.14,-2.2 -12.72,-8.23 -14.82,-15.33 -1.57,-4.46 -0.78,-9.28 -0.23,-13.85 1.94,-8.49 9.23,-15.12 17.62,-17.01 z"
         id="path17"
         inkscape:connector-curvature="0" />
      <path
         style="fill:#00d400"
         d="m 337.23,185.17 c 8.88,-4.66 20,-4.45 28.94,-0.06 12.63,5.95 20.76,20.03 20.03,33.9 -0.26,5.24 -6.36,9.56 -11.29,7.09 -3.82,-1.59 -4.14,-6.11 -5.72,-9.38 -2.52,-5.5 -6.87,-11.13 -13.27,-11.98 -6.12,-1.17 -13.19,2.06 -14.99,8.31 -3.99,12.69 0.11,25.97 -0.61,38.9 0.04,5.78 -0.56,11.81 -3.51,16.91 -1.43,2.43 -3.23,5.15 -6.22,5.69 -7.63,0.45 -15.26,0.03 -22.87,-0.43 -1.2,-4.62 3.3,-7.53 6.28,-10.13 4.71,-3.28 6.65,-9.31 6.37,-14.84 -1.04,-13.38 -3.28,-26.87 -1.21,-40.27 1.95,-10.12 8.67,-19.34 18.07,-23.71 z"
         id="path19"
         inkscape:connector-curvature="0" />
      <path
         d="m 147.65,196.73 c 15.69,-0.06 31.36,-0.38 47.05,-0.46 0.3,8.27 -2.55,16.93 -8.69,22.65 -5.32,4.99 -13.29,5.21 -20.08,4.01 -5.9,-0.89 -10.71,-5.08 -13.74,-10.03 -2.97,-4.8 -5.1,-10.43 -4.54,-16.17 z"
         id="path21"
         inkscape:connector-curvature="0"
         style="fill:#ffffff" />
      <path
         style="fill:#00d400"
         d="m 59.4,261.38 c 7.44,-3.26 15.82,-3.45 23.73,-2.16 6.81,1.59 13.6,4.95 17.66,10.82 0.24,1.7 0.63,4.71 -1.69,5.1 -6.67,0.3 -13.37,0.13 -20.05,0.16 -9.6,-0.13 -19.26,0.45 -28.8,-0.59 -0.16,-1.91 -0.43,-3.82 -0.31,-5.73 1.48,-4.07 5.78,-5.97 9.46,-7.6 z"
         id="path23"
         inkscape:connector-curvature="0" />
      <path
         style="fill:#00d400"
         d="m 244.71,263.67 c 3.19,-3.88 8.5,-4.47 13.18,-4.82 6.1,-0.19 12.22,0.15 18.23,1.28 4.26,0.86 8.72,-0.57 12.91,0.72 2.18,4.43 2.25,9.65 2.48,14.51 -16.86,-0.1 -33.72,0.07 -50.57,-0.13 0.47,-4.01 0.75,-8.52 3.77,-11.56 z"
         id="path25"
         inkscape:connector-curvature="0" />
    </g>
  </g>
</svg>
