<?xml version="1.0" encoding="UTF-8" standalone="no"?>
<!-- Created with Inkscape (http://www.inkscape.org/) -->

<svg
   xmlns:dc="http://purl.org/dc/elements/1.1/"
   xmlns:cc="http://creativecommons.org/ns#"
   xmlns:rdf="http://www.w3.org/1999/02/22-rdf-syntax-ns#"
   xmlns:svg="http://www.w3.org/2000/svg"
   xmlns="http://www.w3.org/2000/svg"
   xmlns:sodipodi="http://sodipodi.sourceforge.net/DTD/sodipodi-0.dtd"
   xmlns:inkscape="http://www.inkscape.org/namespaces/inkscape"
   width="400"
   height="300"
   viewBox="0 0 400 300"
   id="svg4183"
   version="1.1"
   inkscape:version="0.91 r13725"
   sodipodi:docname="opff_rabbit.svg">
  <defs
     id="defs4185" />
  <sodipodi:namedview
     id="base"
     pagecolor="#ffffff"
     bordercolor="#666666"
     borderopacity="1.0"
     inkscape:pageopacity="0.0"
     inkscape:pageshadow="2"
     inkscape:zoom="0.98994949"
     inkscape:cx="-146.42857"
     inkscape:cy="237.15729"
     inkscape:document-units="px"
     inkscape:current-layer="layer1"
     showgrid="false"
     inkscape:window-width="1920"
     inkscape:window-height="1018"
     inkscape:window-x="-8"
     inkscape:window-y="-8"
     inkscape:window-maximized="1" />
  <metadata
     id="metadata4188">
    <rdf:RDF>
      <cc:Work
         rdf:about="">
        <dc:format>image/svg+xml</dc:format>
        <dc:type
           rdf:resource="http://purl.org/dc/dcmitype/StillImage" />
        <dc:title></dc:title>
      </cc:Work>
    </rdf:RDF>
  </metadata>
  <g
     inkscape:label="Calque 1"
     inkscape:groupmode="layer"
     id="layer1">
    <path
       id="path5-7"
       d="m 265.35297,5.356308 c 7.54676,-5.09148048 17.06636,-6.26312404 25.90538,-4.72964938 5.42747,0.58582178 10.09681,4.59180898 12.12996,9.56267938 5.15178,10.829088 3.3857,23.15719 3.29094,34.7444 -1.40425,10.941084 -2.76543,21.959702 -5.86684,32.590644 -4.49704,17.471274 -12.13857,33.891518 -19.8404,50.130838 11.7509,8.41688 22.10616,19.03921 28.9551,31.86698 8.71841,17.43681 12.31949,38.21626 6.4785,57.12624 -4.37643,13.83573 -12.88808,26.05184 -23.43287,35.92466 -14.36986,13.26714 -32.43557,22.132 -51.24217,27.14595 -2.73958,0.74089 -5.58254,1.13718 -8.22735,2.1796 -0.0345,1.39563 1.22333,2.14514 2.07622,3.05833 3.70446,3.65277 6.95232,8.10674 7.84829,13.34468 -30.9021,0.0517 -61.81282,-0.0517 -92.72353,0.21537 0.98211,-6.64218 6.17697,-11.25983 9.09747,-16.95437 -20.2367,-3.57523 -40.21495,-11.6389 -55.36878,-25.81062 -12.922537,-12.28502 -21.141272,-29.29108 -23.019348,-47.00358 -1.154413,-9.5196 -0.775352,-19.21151 0.766738,-28.66219 4.643499,-22.09754 19.24597,-41.37797 38.1818,-53.3787 -2.86881,-21.14128 -5.10871,-42.377317 -6.11667,-63.699507 -0.57721,-11.165074 -1.26641,-22.355993 -0.77536,-33.529682 0.37907,-7.322772 1.96423,-15.153831 7.18494,-20.6329874 4.33336,-4.0059872 10.63094,-4.7468794 16.2824,-4.7210343 8.52887,-0.00862 16.48916,4.7813395 21.43418,11.5699797 5.22932,6.952327 7.95167,15.472587 9.21808,23.992848 1.53347,9.114698 0.87873,18.393081 1.44732,27.576699 0.42214,8.916552 0.48245,17.833105 0.52552,26.758272 0.15507,4.867489 0.54275,9.752212 0.009,14.611082 20.46068,-3.2134 41.42104,-3.12725 61.87311,0.13784 4.38505,-26.370593 9.2267,-52.749803 16.74761,-78.431196 3.44602,-9.536834 8.4255,-19.280429 17.16114,-24.983576 M 131.24285,30.546645 c -4.29889,3.799226 -5.01394,9.85559 -5.58253,15.231366 -1.70578,24.914656 1.82638,49.751776 5.34993,74.339059 4.60904,-1.61101 8.93378,-3.93706 13.62897,-5.34131 5.12594,-1.55071 10.24327,-3.13587 15.44674,-4.44536 0.25845,-7.72768 -0.28429,-15.44674 -0.92181,-23.148573 -0.93042,-12.948385 -2.28298,-25.913999 -5.19486,-38.578087 -1.67131,-6.797256 -4.72965,-13.672047 -10.45864,-17.99679 -3.46324,-2.722348 -8.92517,-3.230635 -12.2678,-0.0603 m 141.37258,1.033803 c -6.18558,5.07425 -10.23465,12.285027 -12.77608,19.7801 -3.57524,10.536177 -5.97883,21.4428 -7.89998,32.392498 -1.84361,9.347304 -3.71308,18.797984 -4.03183,28.334824 2.20545,1.71439 5.2207,1.86084 7.76214,2.92049 6.12528,1.79193 11.55275,5.24655 17.49712,7.46923 5.52223,-15.31752 9.72636,-31.065785 13.27575,-46.943279 1.62824,-5.918523 2.14514,-12.052421 3.18756,-18.08294 0.74089,-6.711105 1.41287,-13.534206 0.41352,-20.262541 -0.69782,-3.678616 -2.59312,-7.753524 -6.46988,-8.907937 -3.93707,-0.921808 -7.91721,0.887347 -10.95832,3.299555 M 117.95848,187.0386 c -3.35986,5.16901 -2.91188,11.56998 -1.84361,17.36789 1.30948,4.16106 3.60108,7.89998 6.87479,10.80324 4.29028,1.47317 8.89932,1.22333 13.1896,-0.0948 3.57524,-2.89465 7.09017,-6.28897 8.18428,-10.93247 1.78331,-7.91721 0.26706,-17.57466 -6.62496,-22.68337 -0.85288,-0.56859 -1.68854,-1.15441 -2.51558,-1.76608 -6.62496,-2.22267 -14.07696,1.20611 -17.26452,7.30555 m 140.21817,-5.47055 c -2.13653,2.60174 -4.57458,5.2724 -5.08287,8.72703 -0.49967,3.71307 -0.33598,7.5123 0.37045,11.1823 1.30948,5.71176 5.15179,10.53618 10.04512,13.65482 4.13521,0.7495 8.49442,0.63751 12.11273,-1.74024 2.67066,-2.5242 5.24655,-5.3327 6.26312,-8.96824 2.56728,-9.175 -0.96488,-20.52961 -9.77805,-25.03527 -4.60043,-1.33533 -10.18296,-1.15441 -13.9305,2.1796 m -80.87787,56.48873 c 7.48646,10.86355 24.37191,13.26714 34.6841,5.12594 7.64153,-6.21143 12.20749,-15.66212 13.82712,-25.25064 -18.32416,-0.24122 -36.66555,-0.15507 -54.98972,-0.0431 -1.07687,7.22801 2.49836,14.33541 6.4785,20.16778 z"
       inkscape:connector-curvature="0"
       style="fill:#00ccff;fill-opacity:1" />
    <path
       id="path7-6"
       d="m 131.24285,30.546645 c 3.34263,-3.17033 8.80456,-2.662043 12.2678,0.0603 5.72899,4.324743 8.78733,11.199534 10.45864,17.99679 2.91188,12.664088 4.26444,25.629702 5.19486,38.578087 0.63752,7.701833 1.18026,15.420893 0.92181,23.148573 -5.20347,1.30949 -10.3208,2.89465 -15.44674,4.44536 -4.69519,1.40425 -9.01993,3.7303 -13.62897,5.34131 -3.52355,-24.587283 -7.05571,-49.424403 -5.34993,-74.339059 0.56859,-5.375776 1.28364,-11.43214 5.58253,-15.231366 z"
       inkscape:connector-curvature="0"
       style="fill:#ffffff" />
    <path
       id="path9-1"
       d="m 272.61543,31.580448 c 3.04111,-2.412208 7.02125,-4.221363 10.95832,-3.299555 3.87676,1.154413 5.77206,5.229321 6.46988,8.907937 0.99935,6.728335 0.32737,13.551436 -0.41352,20.262541 -1.04242,6.030519 -1.55932,12.164417 -3.18756,18.08294 -3.54939,15.877494 -7.75352,31.625759 -13.27575,46.943279 -5.94437,-2.22268 -11.37184,-5.6773 -17.49712,-7.46923 -2.54144,-1.05965 -5.55669,-1.2061 -7.76214,-2.92049 0.31875,-9.53684 2.18822,-18.98752 4.03183,-28.334824 1.92115,-10.949698 4.32474,-21.856321 7.89998,-32.392498 2.54143,-7.495073 6.5905,-14.70585 12.77608,-19.7801 z"
       inkscape:connector-curvature="0"
       style="fill:#ffffff" />
    <path
       id="path11-7"
       d="m 117.95848,187.0386 c 3.18756,-6.09944 10.63956,-9.52822 17.26452,-7.30555 0.82704,0.61167 1.6627,1.19749 2.51558,1.76608 6.89202,5.10871 8.40827,14.76616 6.62496,22.68337 -1.09411,4.6435 -4.60904,8.03782 -8.18428,10.93247 -4.29028,1.31809 -8.89932,1.56793 -13.1896,0.0948 -3.27371,-2.90326 -5.56531,-6.64218 -6.87479,-10.80324 -1.06827,-5.79791 -1.51625,-12.19888 1.84361,-17.36789 z"
       inkscape:connector-curvature="0"
       style="fill:#010100" />
    <path
       id="path13-8"
       d="m 258.17665,181.56805 c 3.74754,-3.33401 9.33007,-3.51493 13.9305,-2.1796 8.81317,4.50566 12.34533,15.86027 9.77805,25.03527 -1.01657,3.63554 -3.59246,6.44404 -6.26312,8.96824 -3.61831,2.37775 -7.97752,2.48974 -12.11273,1.74024 -4.89333,-3.11864 -8.73564,-7.94306 -10.04512,-13.65482 -0.70643,-3.67 -0.87012,-7.46923 -0.37045,-11.1823 0.50829,-3.45463 2.94634,-6.12529 5.08287,-8.72703 z"
       inkscape:connector-curvature="0"
       style="fill:#010100" />
    <path
       id="path15-2"
       d="m 177.29878,238.05678 c -3.98014,-5.83237 -7.55537,-12.93977 -6.4785,-20.16778 18.32417,-0.11199 36.66556,-0.19814 54.98972,0.0431 -1.61963,9.58852 -6.18559,19.03921 -13.82712,25.25064 -10.31219,8.1412 -27.19764,5.73761 -34.6841,-5.12594 z"
       inkscape:connector-curvature="0"
       style="fill:#ffffff" />
    <path
       id="path17-7"
       d="m 108.98163,288.291 c 5.20347,-2.19683 11.03584,-2.30883 16.57531,-1.71439 7.47784,1.35256 15.44674,4.83303 18.79798,12.13857 -0.30152,0.30153 -0.89596,0.91319 -1.18887,1.21472 l -45.246117,0 c 0.525516,-2.67066 1.163028,-5.31547 2.041761,-7.89137 3.032486,-1.18887 6.021906,-2.48112 9.019936,-3.74753 z"
       inkscape:connector-curvature="0"
       style="fill:#00ccff;fill-opacity:1" />
    <path
       id="path19-2"
       d="m 252.95594,294.52828 c 2.22268,-5.60838 8.7701,-6.80587 14.05973,-7.52092 8.85624,-1.6627 17.52296,2.20545 26.38782,1.19749 -0.18953,1.25779 -0.37906,2.51559 -0.55997,3.78199 0.64612,0 1.94699,-0.009 2.59312,-0.009 -0.0948,1.13718 -0.18953,2.28298 -0.27568,3.42878 0.79258,0.68059 1.59378,1.36979 2.39497,2.05899 -0.31875,0.62028 -0.95626,1.85223 -1.28363,2.4639 l -44.44492,0 3.01525,-0.009 c -4.48842,0.69782 -2.71373,-3.42016 -1.88669,-5.393 z"
       inkscape:connector-curvature="0"
       style="fill:#00ccff;fill-opacity:1" />
  </g>
</svg>
