<?xml version="1.0" encoding="UTF-8" standalone="no"?>
<!-- Created with Inkscape (http://www.inkscape.org/) -->

<svg
   xmlns:dc="http://purl.org/dc/elements/1.1/"
   xmlns:cc="http://creativecommons.org/ns#"
   xmlns:rdf="http://www.w3.org/1999/02/22-rdf-syntax-ns#"
   xmlns:svg="http://www.w3.org/2000/svg"
   xmlns="http://www.w3.org/2000/svg"
   xmlns:sodipodi="http://sodipodi.sourceforge.net/DTD/sodipodi-0.dtd"
   xmlns:inkscape="http://www.inkscape.org/namespaces/inkscape"
   width="400"
   height="300"
   viewBox="0 0 400 300"
   id="svg4183"
   version="1.1"
   inkscape:version="0.91 r13725"
   sodipodi:docname="opff_bird.svg">
  <defs
     id="defs4185" />
  <sodipodi:namedview
     id="base"
     pagecolor="#ffffff"
     bordercolor="#666666"
     borderopacity="1.0"
     inkscape:pageopacity="0.0"
     inkscape:pageshadow="2"
     inkscape:zoom="0.98994949"
     inkscape:cx="-146.42857"
     inkscape:cy="237.15729"
     inkscape:document-units="px"
     inkscape:current-layer="layer1"
     showgrid="false"
     inkscape:window-width="1920"
     inkscape:window-height="1018"
     inkscape:window-x="-8"
     inkscape:window-y="-8"
     inkscape:window-maximized="1" />
  <metadata
     id="metadata4188">
    <rdf:RDF>
      <cc:Work
         rdf:about="">
        <dc:format>image/svg+xml</dc:format>
        <dc:type
           rdf:resource="http://purl.org/dc/dcmitype/StillImage" />
        <dc:title></dc:title>
      </cc:Work>
    </rdf:RDF>
  </metadata>
  <g
     inkscape:label="Calque 1"
     inkscape:groupmode="layer"
     id="layer1">
    <g
       id="g4158"
       transform="matrix(0.86325274,0,0,0.86325274,27.526961,33.068455)">
      <path
         d="m 163.67,8.5 c 5.35,0.42 9.37,4.31 13.59,7.21 7.89,6.49 13.93,14.87 20.33,22.74 2.18,1.03 4.82,0.57 7.15,0.31 2.12,-1.52 3.42,-3.95 5.61,-5.4 4.2,-2.44 8.84,-4.07 13.64,-4.77 4.29,-1.14 8.67,-2.16 13.15,-1.69 -3.97,4.67 -8.91,8.71 -11.75,14.21 9.8,1.21 19.29,4.43 28.43,8.08 20.92,9.49 39.51,24.37 52.77,43.2 5.69,7.5 9.45,16.21 13.25,24.76 7.49,18.68 12.25,38.7 11.82,58.9 -0.32,3.34 2.65,5.45 4.21,8.04 4.71,7.36 7.89,15.93 7.8,24.77 0.54,5.67 -0.41,11.55 -3.43,16.44 -2.94,4.65 -5.41,9.67 -9.24,13.68 -10.6,11.36 -22.66,21.6 -36.59,28.62 -6.17,3.94 -13.31,5.79 -20.23,7.93 -10.23,3.15 -20.55,6.18 -31.12,7.97 -1.71,0.11 -2.96,1.32 -4.22,2.32 8.05,6 14.96,13.82 19.22,22.96 -18.01,0.62 -36.04,0.13 -54.06,0.35 -20.28,-0.35 -40.57,0.27 -60.85,-0.24 1.66,-6.41 4.76,-12.47 9.63,-17.04 2.07,-2.28 5.32,-3.56 6.39,-6.65 -18.76,-4.09 -37.31,-9.43 -54.85,-17.31 -8.36,-3.47 -15.57,-9.07 -22.78,-14.41 -8.56,-6.8 -16.05,-15.18 -21,-24.98 -2.23,-5.26 -5.01,-10.58 -4.66,-16.46 -0.52,-9.41 0.75,-19.63 7.13,-27.01 2.11,-2.69 5.6,-5.1 4.92,-8.99 -0.55,-9.46 1.66,-18.73 2.56,-28.09 1.91,-8.35 3.72,-16.77 6.55,-24.87 5.51,-14.13 12.94,-27.64 22.92,-39.12 7.16,-8.18 14.71,-16.2 23.91,-22.1 8.79,-6.52 18.5,-11.9 28.97,-15.16 7.74,-2.75 15.57,-5.52 23.81,-6.28 C 175.52,28.7 168.05,19.09 163.67,8.5 m 115.67,148.02 c -5.88,2.01 -10.19,7.75 -11.23,13.79 -1.47,6.18 0.75,12.51 3.73,17.88 2.47,4.45 7.04,7.77 12.21,8 4.18,-0.31 8.67,-1.31 11.66,-4.49 5.77,-5.33 6.7,-14.07 4.99,-21.37 -1.78,-5.78 -5.9,-10.96 -11.36,-13.65 -3.13,-1.62 -6.77,-1.22 -10,-0.16 m -169.91,0.78 c -12.4,6.84 -14.06,25.79 -4.21,35.5 2.37,2.19 5.45,3.92 8.77,3.66 7.81,-0.06 14.85,-5.83 17.12,-13.17 3.03,-9.11 -0.12,-20.69 -8.62,-25.73 -4.08,-1.56 -8.97,-1.95 -13.06,-0.26 m 70.49,28.63 c -5.87,5.45 -11.69,10.95 -17.23,16.74 -2.23,2.38 -5.69,1.75 -8.61,2.11 -8.44,0.26 -16.87,2.63 -24.04,7.12 -2.92,2.12 -6.08,5.12 -5.84,9.05 -0.49,7.35 3.66,14.61 10.12,18.09 -1.94,8.12 3.5,15.43 9.91,19.72 5.53,4.3 12.57,5.49 19.05,7.69 8.3,2.74 17.13,2.41 25.74,3.04 16.22,0.03 32.76,0.96 48.57,-3.35 10.47,-1.78 21.89,-6.74 26.72,-16.81 1.78,-3.07 1.22,-6.72 1.81,-10.07 3.95,-2.71 8.26,-5.66 9.39,-10.67 0.89,-4.73 1.55,-11.03 -2.99,-14.16 -8.73,-6.43 -20.02,-7.39 -30.49,-7.9 -2.29,0.06 -3.58,-2.15 -4.9,-3.68 -4.55,-6.06 -10.27,-11.08 -15.96,-16.03 -2.41,-2.3 -5.07,-4.34 -8.1,-5.75 -5.81,-3.18 -12.68,-2.83 -19.08,-2.69 -5.7,-0.09 -10.12,3.97 -14.07,7.55 z"
         id="path5"
         inkscape:connector-curvature="0"
         style="fill:#ffcc00;fill-opacity:1" />
      <path
         d="m 279.34,156.52 c 3.23,-1.06 6.87,-1.46 10,0.16 5.46,2.69 9.58,7.87 11.36,13.65 1.71,7.3 0.78,16.04 -4.99,21.37 -2.99,3.18 -7.48,4.18 -11.66,4.49 -5.17,-0.23 -9.74,-3.55 -12.21,-8 -2.98,-5.37 -5.2,-11.7 -3.73,-17.88 1.04,-6.04 5.35,-11.78 11.23,-13.79 z"
         id="path7"
         inkscape:connector-curvature="0"
         style="fill:#010101" />
      <path
         d="m 109.43,157.3 c 4.09,-1.69 8.98,-1.3 13.06,0.26 8.5,5.04 11.65,16.62 8.62,25.73 -2.27,7.34 -9.31,13.11 -17.12,13.17 -3.32,0.26 -6.4,-1.47 -8.77,-3.66 -9.85,-9.71 -8.19,-28.66 4.21,-35.5 z"
         id="path9"
         inkscape:connector-curvature="0"
         style="fill:#010101" />
      <path
         d="m 179.92,185.93 c 3.95,-3.58 8.37,-7.64 14.07,-7.55 6.4,-0.14 13.27,-0.49 19.08,2.69 3.03,1.41 5.69,3.45 8.1,5.75 5.69,4.95 11.41,9.97 15.96,16.03 1.32,1.53 2.61,3.74 4.9,3.68 10.47,0.51 21.76,1.47 30.49,7.9 4.54,3.13 3.88,9.43 2.99,14.16 -1.13,5.01 -5.44,7.96 -9.39,10.67 -0.59,3.35 -0.03,7 -1.81,10.07 -4.83,10.07 -16.25,15.03 -26.72,16.81 -15.81,4.31 -32.35,3.38 -48.57,3.35 -8.61,-0.63 -17.44,-0.3 -25.74,-3.04 -6.48,-2.2 -13.52,-3.39 -19.05,-7.69 -6.41,-4.29 -11.85,-11.6 -9.91,-19.72 -6.46,-3.48 -10.61,-10.74 -10.12,-18.09 -0.24,-3.93 2.92,-6.93 5.84,-9.05 7.17,-4.49 15.6,-6.86 24.04,-7.12 2.92,-0.36 6.38,0.27 8.61,-2.11 5.54,-5.79 11.36,-11.29 17.23,-16.74 m -22.44,52.97 c 0.9,5.69 6.13,9.31 11.06,11.43 7.32,2.11 14.71,4.65 22.44,4.44 11.25,0.57 22.53,-0.18 33.54,-2.53 7.61,-2.15 16.09,-5.51 19.69,-13.12 -4.06,-0.32 -8.13,-0.46 -12.2,-0.33 -24.84,0.1 -49.69,-0.04 -74.53,0.11 z"
         id="path11"
         inkscape:connector-curvature="0"
         style="fill:#ffffff" />
      <path
         d="m 157.48,238.9 c 24.84,-0.15 49.69,-0.01 74.53,-0.11 4.07,-0.13 8.14,0.01 12.2,0.33 -3.6,7.61 -12.08,10.97 -19.69,13.12 -11.01,2.35 -22.29,3.1 -33.54,2.53 -7.73,0.21 -15.12,-2.33 -22.44,-4.44 -4.93,-2.12 -10.16,-5.74 -11.06,-11.43 z"
         id="path13"
         inkscape:connector-curvature="0"
         style="fill:#ffc501" />
      <path
         d="m 87.99,294.61 c 6.19,-0.18 9.08,-9.04 15.65,-7.42 2.1,2.39 3.4,5.38 5.65,7.66 6.43,1.95 12.38,-3.17 18.86,-1.71 -1.12,5.99 -5.53,10.57 -8.25,15.86 -13.19,0.18 -26.38,-0.23 -39.58,-0.04 -3.35,-5.81 -9.16,-10.69 -9.24,-17.9 6.09,-1.27 10.84,4.54 16.91,3.55 z"
         id="path15"
         inkscape:connector-curvature="0"
         style="fill:#ffc501" />
      <path
         d="m 287.08,296.18 c 4.15,-1.58 4.58,-7.03 8.16,-9.13 5.37,-1.56 7.35,6.36 12.71,5.54 6.8,1.14 11.96,-5.07 18.74,-4.24 0.16,7.5 -5.16,13.48 -7.09,20.47 -3.2,0.2 -6.4,0.5 -9.61,0.36 -10.62,-0.3 -21.24,0.1 -31.86,-0.19 -2.05,-4.6 -7.47,-8.07 -6.63,-13.58 5.2,-0.06 10.48,3.17 15.58,0.77 z"
         id="path17"
         inkscape:connector-curvature="0"
         style="fill:#ffc501" />
    </g>
  </g>
</svg>
