<svg width="153" height="36" viewBox="0 0 153 36" fill="none" xmlns="http://www.w3.org/2000/svg">
<path d="M104.031 11.4691V15.3174H100.744V22.9022C100.744 23.6846 100.866 24.205 101.111 24.4631C101.478 24.978 103.348 24.978 103.348 24.978H104.387V28.4511H101.416C100.757 28.4533 100.098 28.4039 99.4457 28.3034C98.9531 28.187 98.4878 27.9704 98.0772 27.666C97.6665 27.3617 97.3187 26.9758 97.0541 26.5309C96.7566 25.8936 96.6158 25.19 96.6446 24.483V6.42315H100.755V11.4691H104.031ZM87.082 5.05389V9.3972L91.1852 5.05389H87.082ZM87.082 15.7525V28.3034H91.5561V11.018L87.082 15.7525ZM118.563 3.44511H123.369V0.0239526H114.07V36H123.369V32.5749H118.563V3.44511ZM148.506 32.5509H143.7V35.976H153V0H143.7V3.42914H148.506V32.5509Z" fill="#F9217E"/>
<path d="M22.853 4.78613V13.5446H22.9495C23.4597 12.6259 24.2221 11.884 25.1403 11.4129C25.941 10.989 26.8253 10.7609 27.725 10.7462C28.7291 10.7127 29.7298 10.885 30.6691 11.2532C31.387 11.546 32.0173 12.0293 32.4966 12.6544C32.9586 13.3023 33.2753 14.0481 33.4239 14.838C33.6098 15.7757 33.6991 16.7312 33.6904 17.6883V28.0356H29.1854V18.5426C29.1854 17.1534 28.9742 16.1168 28.5518 15.4328C28.1294 14.7488 27.385 14.4069 26.3186 14.4069C25.1003 14.4069 24.2181 14.7848 23.6721 15.5406C23.126 16.2965 22.853 17.5286 22.853 19.2372V28.0596H18.3789V4.78613H22.853ZM36.8703 16.4029C36.8905 15.447 37.1572 14.514 37.643 13.7003C38.0951 12.9906 38.6993 12.3978 39.4086 11.9678C40.156 11.5201 40.9711 11.2057 41.8195 11.0376C42.71 10.8538 43.616 10.7614 44.5241 10.7622C45.3564 10.7622 46.1877 10.8209 47.0123 10.9378C47.816 11.0423 48.5984 11.278 49.3304 11.6364C50.0052 11.9671 50.5905 12.4649 51.0342 13.0855C51.5051 13.8103 51.7369 14.6728 51.695 15.5446V28.0476H47.3986V27.2492C47.3986 27.2492 47.4218 26.7023 47.3986 26.4189C46.7051 27.1653 45.8377 27.7151 44.8795 28.0157C43.9191 28.3184 42.9203 28.4718 41.9161 28.4708C41.1762 28.4775 40.4389 28.3781 39.7254 28.1754C39.0836 27.9958 38.4832 27.6849 37.9597 27.2612C37.4531 26.8443 37.0493 26.3095 36.7814 25.7003C36.4802 24.9873 36.3351 24.2144 36.3563 23.4368C36.3273 22.6205 36.496 21.8095 36.8471 21.0775C37.1466 20.4884 37.5768 19.9809 38.1027 19.5965C38.6405 19.2166 39.2379 18.9356 39.8684 18.7662C40.5273 18.5814 41.1954 18.4335 41.8698 18.3231C42.5421 18.2139 43.2027 18.1274 43.8518 18.0636C44.435 18.0089 45.0135 17.9102 45.5827 17.7682C46.0178 17.6713 46.4267 17.4764 46.7804 17.1973C46.9293 17.0637 47.0443 16.8947 47.1157 16.7047C47.1871 16.5149 47.2125 16.3098 47.19 16.1075C47.2104 15.6941 47.1293 15.2822 46.9543 14.9099C46.8061 14.6278 46.5873 14.3921 46.3206 14.2272C46.0401 14.059 45.7304 13.9492 45.4088 13.9039C45.0391 13.8487 44.6658 13.8221 44.2923 13.8241C43.5565 13.7801 42.827 13.9847 42.2136 14.4069C41.6985 14.7981 41.4048 15.4488 41.3327 16.359L36.8703 16.4029ZM47.2054 19.8241C46.9983 20.0053 46.7579 20.1411 46.4983 20.2233C46.1999 20.3247 45.8953 20.406 45.5865 20.4668C45.2594 20.5333 44.9182 20.5879 44.5627 20.6304C44.2073 20.673 43.8505 20.7276 43.4924 20.7941C43.1566 20.8589 42.8249 20.9456 42.4995 21.0536C42.1951 21.1514 41.9079 21.2997 41.6495 21.4927C41.407 21.6776 41.2076 21.9163 41.0661 22.1913C40.9079 22.5263 40.8323 22.8966 40.8459 23.2692C40.8345 23.6299 40.9102 23.988 41.0661 24.3111C41.2052 24.5841 41.4118 24.8142 41.665 24.9777C41.9363 25.1489 42.2365 25.2653 42.5497 25.3211C42.8937 25.3879 43.243 25.4213 43.5929 25.4209C44.304 25.4629 45.0129 25.3057 45.6445 24.9658C46.0862 24.7038 46.4549 24.3284 46.7147 23.8759C46.9365 23.4804 47.081 23.0436 47.1397 22.5905C47.1866 22.2451 47.2137 21.8973 47.2209 21.5486L47.2054 19.8241ZM70.9011 24.0117C71.5733 24.6823 72.5392 25.0177 73.7988 25.0177C74.6228 25.0377 75.4326 24.7937 76.117 24.3191C76.6679 23.9808 77.0904 23.4583 77.3147 22.838H81.2518C80.6207 24.8526 79.6548 26.2965 78.3541 27.1694C76.9345 28.071 75.2905 28.5235 73.625 28.4708C72.4373 28.4904 71.2569 28.2749 70.1477 27.836C69.1575 27.4399 68.2642 26.8223 67.532 26.0276C66.8029 25.2219 66.2403 24.2711 65.8783 23.2332C65.4778 22.0812 65.2801 20.8644 65.295 19.6404C65.2853 18.4415 65.4883 17.2508 65.8938 16.1274C66.2672 15.0811 66.8446 14.1251 67.5903 13.319C68.336 12.5128 69.2341 11.8735 70.2288 11.4408C71.3007 10.9743 72.4543 10.7419 73.6172 10.7582C74.8849 10.7288 76.1402 11.0222 77.2723 11.6125C78.2735 12.1427 79.1413 12.9067 79.8068 13.844C80.4795 14.803 80.9662 15.8875 81.2401 17.0376C81.5357 18.2608 81.6413 19.5248 81.5532 20.7821H69.8077C69.8644 22.2645 70.2288 23.341 70.9011 24.0117ZM75.9586 15.1574C75.4229 14.5506 74.6089 14.2458 73.5168 14.2432C72.9024 14.2227 72.2922 14.3527 71.7356 14.6225C71.298 14.845 70.912 15.1621 70.6036 15.5526C70.3313 15.8994 70.1277 16.2982 70.0047 16.7263C69.8986 17.0863 69.83 17.457 69.8 17.832H77.0791C76.9525 16.8504 76.5646 15.9245 75.9586 15.1574ZM63.9968 14.6025C64.4202 13.4256 65.071 12.3498 65.9092 11.4408C66.0059 11.337 66.1102 11.2492 66.2106 11.1494L65.6465 10.9099C65.3312 10.8078 65.0034 10.7527 64.6729 10.7462C64.1171 10.7443 63.5645 10.8318 63.0347 11.0057C62.5115 11.1783 62.0137 11.424 61.555 11.7362C61.0934 12.0493 60.6793 12.4314 60.3263 12.87C59.9743 13.3062 59.6878 13.7947 59.4763 14.3191H59.4145V11.2133H55.1645V28.0356H59.6386V20.4508C59.6332 19.7378 59.707 19.0266 59.8588 18.331C59.9873 17.7162 60.2358 17.1348 60.5891 16.6225C60.9462 16.126 61.4176 15.7294 61.9606 15.4688C62.5552 15.2009 63.1975 15.0649 63.8461 15.0696C63.8924 14.9179 63.9427 14.7622 63.9968 14.6025Z" fill="#0D2448"/>
<path d="M133.716 22.4154C137.839 22.4154 141.181 18.9623 141.181 14.7028C141.181 10.4432 137.839 6.99023 133.716 6.99023C129.593 6.99023 126.252 10.4432 126.252 14.7028C126.252 18.9623 129.593 22.4154 133.716 22.4154Z" fill="#0D2448"/>
<path d="M107.316 24.9781H110.697V28.4711H107.316V24.9781ZM125.572 24.9781H141.864V28.4711H125.572V24.9781ZM6.44454 17.1617C6.02201 17.0298 5.62833 16.8142 5.28545 16.527C5.14346 16.4044 5.03009 16.2503 4.95383 16.0761C4.87756 15.9018 4.84036 15.7121 4.845 15.521C4.8294 15.222 4.91855 14.9273 5.09613 14.6907C5.26256 14.4864 5.47293 14.325 5.71045 14.2196C5.96876 14.1064 6.24244 14.035 6.52182 14.008C6.79376 13.9758 7.06718 13.9585 7.34091 13.9561C8.06038 13.938 8.77346 14.0995 9.41954 14.4272C9.64425 14.5468 9.83877 14.719 9.98744 14.9302L12.5915 12.2436C12.4834 12.1597 12.3714 12.0759 12.2555 12.0001C11.574 11.5763 10.8261 11.279 10.0455 11.1218C9.20332 10.9479 8.34652 10.8609 7.48772 10.8623C6.62068 10.8604 5.75536 10.942 4.90295 11.1059C4.10274 11.2542 3.33304 11.5432 2.62727 11.9601C1.95531 12.3567 1.39269 12.9242 0.992954 13.6088C0.557579 14.4233 0.347707 15.3459 0.386364 16.2755C0.362615 16.9347 0.515007 17.588 0.826818 18.1637C1.11669 18.6709 1.51273 19.1047 1.98591 19.4332C2.49805 19.7783 3.05474 20.0471 3.63954 20.2316C3.94863 20.3354 4.26288 20.4326 4.58227 20.523L7.5225 17.5011C7.13227 17.3773 6.76909 17.2735 6.44454 17.1617ZM9.27272 21.8005C10.1665 22.1464 10.6134 22.6667 10.6134 23.3613C10.6266 23.7261 10.5264 24.0857 10.3274 24.3873C10.142 24.6573 9.90049 24.8809 9.62045 25.042C9.32416 25.2102 9.00505 25.3312 8.67386 25.4013C8.34759 25.4745 8.01478 25.512 7.68091 25.513C7.25094 25.5141 6.82256 25.459 6.40591 25.3494C6.01325 25.251 5.64135 25.0792 5.30863 24.8424C4.99117 24.6125 4.72721 24.3125 4.53591 23.9641C4.33299 23.5705 4.23436 23.1284 4.25 22.6827H0C0.00155782 23.6706 0.253307 24.6409 0.730227 25.4971C1.16501 26.2293 1.75733 26.8482 2.46114 27.3055C3.20198 27.7772 4.01845 28.1085 4.87204 28.2835C5.78438 28.4807 6.71404 28.5797 7.64613 28.5789C8.56065 28.5801 9.47303 28.4877 10.37 28.3035C11.2144 28.1387 12.0216 27.8124 12.75 27.3414C13.4972 26.8589 14.106 26.179 14.5136 25.3718C14.9212 24.5647 15.1126 23.6598 15.0682 22.7506C15.0917 22.0712 14.9438 21.3971 14.6393 20.7945C14.3513 20.2672 13.9558 19.811 13.4802 19.4572C12.9735 19.0856 12.4162 18.7936 11.8265 18.5909C11.2269 18.3809 10.6169 18.2037 9.99909 18.0599L7.02409 21.1138C7.78564 21.2984 8.53639 21.5277 9.27272 21.8005Z" fill="#0D2448"/>
</svg>
