<?xml version="1.0" encoding="UTF-8" standalone="no"?>
<!-- Created with Inkscape (http://www.inkscape.org/) -->
<svg
   xmlns:svg="http://www.w3.org/2000/svg"
   xmlns="http://www.w3.org/2000/svg"
   version="1.0"
   width="614"
   height="900"
   id="svg2">
  <defs
     id="defs4" />
  <g
     id="g2180">
    <path
       d="M 148.06419,273.83537 L 221.45144,123.19642 C 268.9972,25.601215 345.55102,25.601215 393.09678,123.19642 L 466.48404,273.83537 C 514.02979,371.43057 514.02981,528.56945 466.48405,626.16465 L 393.0968,776.8036 C 345.55104,874.3988 268.9972,874.39876 221.45145,776.80356 L 148.06419,626.16461 C 100.51843,528.56941 100.51843,371.43057 148.06419,273.83537 z "
       style="fill:#ffe619;fill-opacity:1;stroke:none;stroke-width:3.97479916;stroke-miterlimit:4;stroke-opacity:1"
       id="rect3146" />
    <path
       d="M 149.8539,315.50776 L 241.74963,126.88731 C 278.05021,52.378579 336.49809,52.378588 372.79868,126.88731 L 464.6944,315.50776 C 500.99499,390.01648 500.99499,509.98359 464.6944,584.49232 L 372.79867,773.11277 C 336.49809,847.62149 278.05021,847.6215 241.74963,773.11278 L 149.85391,584.49232 C 113.55332,509.9836 113.55332,390.01648 149.8539,315.50776 z "
       style="fill:#ffe619;fill-opacity:1;stroke:#000000;stroke-width:11.3678627;stroke-miterlimit:4;stroke-opacity:1"
       id="rect5107" />
    <path
       d="M 60.1031,290.50381 L 553.89689,290.50381 L 553.89689,608.1517 L 60.1031,608.1517 L 60.1031,290.50381 z "
       style="fill:#ffe619;fill-opacity:1;stroke:none"
       id="rect2160" />
    <g
       transform="matrix(0.6405858,0,0,0.6405858,-447.54795,70.455881)"
       id="g5081">
      <rect
         width="723.08923"
         height="21.167248"
         x="816.28253"
         y="367.39148"
         style="fill:#000000;fill-opacity:1;stroke:none;stroke-width:1;stroke-miterlimit:4;stroke-dasharray:none;stroke-opacity:1"
         id="rect4106" />
      <rect
         width="723.08923"
         height="21.167248"
         x="816.28253"
         y="403.47177"
         style="fill:#000000;fill-opacity:1;stroke:none;stroke-width:1;stroke-miterlimit:4;stroke-dasharray:none;stroke-opacity:1"
         id="rect5079" />
    </g>
    <g
       transform="matrix(0.6405858,0,0,0.6405858,-447.54795,320.378)"
       id="g5085">
      <rect
         width="723.08923"
         height="21.167248"
         x="816.28253"
         y="367.39148"
         style="fill:#000000;fill-opacity:1;stroke:none;stroke-width:1;stroke-miterlimit:4;stroke-dasharray:none;stroke-opacity:1"
         id="rect5087" />
      <rect
         width="723.08923"
         height="21.167248"
         x="816.28253"
         y="403.47177"
         style="fill:#000000;fill-opacity:1;stroke:none;stroke-width:1;stroke-miterlimit:4;stroke-dasharray:none;stroke-opacity:1"
         id="rect5089" />
    </g>
    <path
       d="M 110.45643,407.41671 L 110.45643,392.19175 L 149.33711,392.19175 C 149.37009,392.68772 149.39489,393.23324 149.4115,393.82831 C 149.42795,394.42346 149.43622,395.2996 149.4363,396.45672 C 149.43622,408.95411 146.13831,418.64948 139.54255,425.54285 C 132.94666,432.43624 123.66456,435.88293 111.69625,435.88293 C 105.81121,435.88293 100.57918,434.99852 96.00015,433.22972 C 91.42107,431.46091 87.32967,428.75811 83.72596,425.12131 C 80.28752,421.64983 77.61778,417.54191 75.71673,412.79752 C 73.81567,408.05318 72.86515,403.08565 72.86515,397.89491 C 72.86515,392.47282 73.79088,387.48875 75.64234,382.94271 C 77.4938,378.39677 80.25445,374.30537 83.92433,370.66851 C 87.56111,367.13097 91.73516,364.45296 96.44649,362.63449 C 101.15776,360.81617 106.24101,359.90697 111.69625,359.90689 C 118.80448,359.90697 125.09449,361.31209 130.56627,364.12228 C 136.03793,366.9326 140.64179,371.11491 144.37784,376.66923 L 127.21876,384.90162 C 125.16887,382.09142 122.86282,380.00026 120.30058,378.62814 C 117.73824,377.25613 114.87013,376.5701 111.69625,376.57005 C 105.77814,376.5701 101.11643,378.54554 97.7111,382.49637 C 94.30571,386.44731 92.60303,391.84464 92.60305,398.68839 C 92.60303,405.59834 94.30571,411.037 97.7111,415.0044 C 101.11643,418.97183 105.77814,420.95554 111.69625,420.95552 C 116.72159,420.95554 120.91217,419.72398 124.268,417.26086 C 127.62371,414.79778 129.58262,411.5164 130.14473,407.41671 L 110.45643,407.41671 z M 187.33735,434.14718 L 187.33735,361.54345 L 208.01751,361.54345 C 216.11761,361.54353 221.76291,361.91547 224.95342,362.65929 C 228.14383,363.40325 230.89623,364.65133 233.2106,366.40354 C 235.82243,368.38731 237.83093,370.91654 239.23612,373.99122 C 240.64118,377.06603 241.34375,380.45486 241.34381,384.15773 C 241.34375,389.77828 239.96342,394.34907 237.20282,397.87011 C 234.4421,401.39123 230.41683,403.73035 225.12699,404.88748 L 244.91448,434.14718 L 222.54817,434.14718 L 205.88502,405.73056 L 205.88502,434.14718 L 187.33735,434.14718 z M 205.88502,395.86161 L 209.55488,395.86161 C 213.81982,395.86165 216.93589,395.13429 218.90311,393.67953 C 220.87024,392.22485 221.85383,389.94359 221.85387,386.83574 C 221.85383,383.19899 220.93637,380.61191 219.10148,379.07448 C 217.26651,377.53716 214.1835,376.76847 209.85244,376.76842 L 205.88502,376.76842 L 205.88502,395.86161 z M 296.05298,407.01997 L 315.74129,407.01997 L 308.35197,383.06669 C 308.1205,382.33938 307.80641,381.16569 307.40971,379.54561 C 307.01293,377.92564 306.50047,375.84274 305.87234,373.29693 C 305.4425,375.08232 305.02096,376.785 304.60772,378.40498 C 304.19441,380.02506 303.77288,381.57896 303.34311,383.06669 L 296.05298,407.01997 z M 268.33065,434.14718 L 293.37497,361.54345 L 318.17133,361.54345 L 343.26524,434.14718 L 323.57693,434.14718 L 319.90707,421.15389 L 291.78801,421.15389 L 288.01896,434.14718 L 268.33065,434.14718 z M 370.98461,434.14718 L 370.98461,361.54345 L 390.0778,361.54345 L 417.50257,398.88677 C 418.03151,399.64722 418.89938,401.17633 420.10619,403.47409 C 421.31289,405.77192 422.64362,408.50778 424.0984,411.68168 C 423.7016,408.67309 423.41231,405.99508 423.23053,403.64767 C 423.04863,401.30031 422.95771,399.21742 422.95777,397.39898 L 422.95777,361.54345 L 441.95178,361.54345 L 441.95178,434.14718 L 422.95777,434.14718 L 395.533,396.65509 C 394.97092,395.89471 394.08652,394.3656 392.87979,392.06777 C 391.67301,389.77002 390.3588,387.06722 388.93717,383.95936 C 389.33389,387.00109 389.62318,389.69563 389.80504,392.04297 C 389.98686,394.3904 390.07778,396.47329 390.0778,398.29165 L 390.0778,434.14718 L 370.98461,434.14718 z M 491.58995,407.01997 L 511.27826,407.01997 L 503.88894,383.06669 C 503.65747,382.33938 503.34339,381.16569 502.94668,379.54561 C 502.5499,377.92564 502.03745,375.84274 501.40931,373.29693 C 500.97947,375.08232 500.55793,376.785 500.14469,378.40498 C 499.73139,380.02506 499.30985,381.57896 498.88008,383.06669 L 491.58995,407.01997 z M 463.86763,434.14718 L 488.91195,361.54345 L 513.7083,361.54345 L 538.80221,434.14718 L 519.11391,434.14718 L 515.44405,421.15389 L 487.32498,421.15389 L 483.55593,434.14718 L 463.86763,434.14718 z "
       style="font-size:101.56587219px;font-style:normal;font-weight:normal;fill:#000000;fill-opacity:1;stroke:none;stroke-width:1px;stroke-linecap:butt;stroke-linejoin:miter;stroke-opacity:1;font-family:Futura Md BT"
       id="text5091" />
    <path
       d="M 94.28979,537.61435 L 75.79042,537.61435 L 75.79042,465.19968 L 96.41673,465.19968 C 104.49574,465.19976 110.16756,465.59547 113.43219,466.38681 C 116.69674,467.1783 119.4667,468.5303 121.74207,470.44282 C 124.41305,472.65226 126.4493,475.41397 127.85082,478.72797 C 129.25223,482.04208 129.95296,485.72712 129.95303,489.78308 C 129.95296,494.10294 129.26047,497.90339 127.87556,501.18443 C 126.49052,504.46555 124.44603,507.16131 121.74207,509.27172 C 119.69753,510.85458 117.2903,511.99224 114.52039,512.68471 C 111.75039,513.37722 107.31516,513.72347 101.21469,513.72344 L 97.85117,513.72344 L 94.28979,513.72344 L 94.28979,537.61435 z M 94.28979,497.79618 L 98.04903,497.79618 C 102.79749,497.79622 106.11155,497.14495 107.9912,495.84236 C 109.87078,494.53987 110.81058,492.32225 110.81063,489.18951 C 110.81058,486.1558 109.88726,483.99589 108.04067,482.70979 C 106.19399,481.42379 102.9294,480.78077 98.24688,480.78071 L 94.28979,480.78071 L 94.28979,497.79618 z M 160.47906,510.55778 L 180.1161,510.55778 L 172.74603,486.66687 C 172.51516,485.94146 172.20189,484.77082 171.80622,483.15496 C 171.41047,481.53921 170.89935,479.46174 170.27285,476.92255 C 169.84413,478.7033 169.42369,480.40154 169.01153,482.0173 C 168.5993,483.63316 168.17886,485.18302 167.75021,486.66687 L 160.47906,510.55778 z M 132.82893,537.61435 L 157.80803,465.19968 L 182.53981,465.19968 L 207.56838,537.61435 L 187.93134,537.61435 L 184.27104,524.65489 L 156.2252,524.65489 L 152.46596,537.61435 L 132.82893,537.61435 z M 220.76079,537.61435 L 220.76079,465.19968 L 235.84718,465.19968 C 247.09186,465.19976 255.04724,465.72737 259.71335,466.78252 C 264.37936,467.83781 268.47659,469.60201 272.00504,472.07512 C 276.5886,475.27383 280.06754,479.37105 282.44186,484.36682 C 284.81603,489.36269 286.00316,495.05923 286.00323,501.45648 C 286.00316,507.8538 284.81603,513.55035 282.44186,518.54614 C 280.06754,523.54198 276.5886,527.6392 272.00504,530.83784 C 268.50956,533.27804 264.5195,535.01751 260.03486,536.05624 C 255.55012,537.09498 248.59225,537.61435 239.16123,537.61435 L 235.84718,537.61435 L 220.76079,537.61435 z M 240.2989,521.3903 L 243.61296,521.3903 C 251.36221,521.39031 257.01754,519.79924 260.57896,516.61706 C 264.14028,513.43493 265.92097,508.38141 265.92102,501.45648 C 265.92097,494.53162 264.14028,489.45337 260.57896,486.2217 C 257.01754,482.99014 251.36221,481.37433 243.61296,481.37427 L 240.2989,481.37427 L 240.2989,521.3903 z M 321.19289,510.55778 L 340.82993,510.55778 L 333.45986,486.66687 C 333.22899,485.94146 332.91572,484.77082 332.52005,483.15496 C 332.1243,481.53921 331.61318,479.46174 330.98668,476.92255 C 330.55796,478.7033 330.13752,480.40154 329.72536,482.0173 C 329.31313,483.63316 328.89269,485.18302 328.46404,486.66687 L 321.19289,510.55778 z M 293.54276,537.61435 L 318.52186,465.19968 L 343.25364,465.19968 L 368.28221,537.61435 L 348.64517,537.61435 L 344.98487,524.65489 L 316.93902,524.65489 L 313.17979,537.61435 L 293.54276,537.61435 z M 376.91472,537.61435 L 376.91472,465.19968 L 395.95819,465.19968 L 423.31154,502.44575 C 423.8391,503.20423 424.70471,504.72935 425.90838,507.02113 C 427.11194,509.31297 428.43921,512.04171 429.8902,515.20735 C 429.49443,512.20659 429.20589,509.53556 429.02459,507.19425 C 428.84316,504.85301 428.75248,502.77554 428.75254,500.96184 L 428.75254,465.19968 L 447.69708,465.19968 L 447.69708,537.61435 L 428.75254,537.61435 L 401.39918,500.21989 C 400.83857,499.46149 399.95647,497.93636 398.75288,495.64451 C 397.54924,493.35274 396.23846,490.65698 394.82053,487.55722 C 395.21621,490.59103 395.50475,493.27855 395.68614,495.61978 C 395.86748,497.96109 395.95816,500.03856 395.95819,501.85219 L 395.95819,537.61435 L 376.91472,537.61435 z M 538.352,501.55541 C 538.35191,506.7656 537.39562,511.646 535.48311,516.19662 C 533.57044,520.74729 530.784,524.81978 527.12377,528.41412 C 523.43042,531.97551 519.20953,534.72073 514.46109,536.64981 C 509.71254,538.57888 504.78267,539.54342 499.67149,539.54343 C 494.49426,539.54342 489.53967,538.57888 484.80768,536.64981 C 480.07565,534.72073 475.91247,531.97551 472.31813,528.41412 C 468.59187,524.81978 465.7642,520.7308 463.83513,516.14716 C 461.90605,511.56356 460.94151,506.69965 460.94151,501.55541 C 460.94151,496.37826 461.90605,491.5061 463.83513,486.93892 C 465.7642,482.37184 468.59187,478.2911 472.31813,474.69669 C 475.91247,471.13538 480.07565,468.39015 484.80768,466.46101 C 489.53967,464.532 494.49426,463.56746 499.67149,463.56739 C 504.81565,463.56746 509.77024,464.532 514.53529,466.46101 C 519.30022,468.39015 523.49637,471.13538 527.12377,474.69669 C 530.75102,478.25813 533.52922,482.33062 535.45838,486.91419 C 537.38737,491.49786 538.35191,496.37826 538.352,501.55541 L 538.352,501.55541 z M 499.67149,522.82474 C 505.14541,522.82475 509.67132,520.81324 513.24924,516.79018 C 516.82704,512.76717 518.61597,507.68892 518.61603,501.55541 C 518.61597,495.48792 516.80231,490.42615 513.17504,486.37009 C 509.54766,482.31413 505.04648,480.28613 499.67149,480.28607 C 494.19748,480.28613 489.67157,482.30589 486.09374,486.34536 C 482.51585,490.38493 480.72692,495.45494 480.72694,501.55541 C 480.72692,507.75487 482.49111,512.84961 486.01954,516.83965 C 489.54791,520.82973 494.09855,522.82475 499.67149,522.82474 L 499.67149,522.82474 z "
       style="font-size:101.30138397px;font-style:normal;font-weight:normal;fill:#000000;fill-opacity:1;stroke:none;stroke-width:1px;stroke-linecap:butt;stroke-linejoin:miter;stroke-opacity:1;font-family:Futura Md BT"
       id="text5095" />
    <path
       d="M 304.5669,226.72885 L 304.5669,211.50388 L 343.44759,211.50388 C 343.48057,211.99985 343.50536,212.54537 343.52198,213.14044 C 343.53843,213.7356 343.54669,214.61173 343.54677,215.76886 C 343.54669,228.26624 340.24878,237.96161 333.65303,244.85498 C 327.05713,251.74837 317.77504,255.19506 305.80672,255.19506 C 299.92168,255.19506 294.68965,254.31066 290.11063,252.54185 C 285.53154,250.77305 281.44015,248.07025 277.83643,244.43344 C 274.39799,240.96197 271.72825,236.85404 269.82721,232.10965 C 267.92615,227.36531 266.97562,222.39778 266.97563,217.20705 C 266.97562,211.78495 267.90135,206.80089 269.75282,202.25484 C 271.60427,197.7089 274.36493,193.61751 278.0348,189.98065 C 281.67158,186.4431 285.84563,183.7651 290.55696,181.94663 C 295.26823,180.1283 300.35148,179.2191 305.80672,179.21903 C 312.91496,179.2191 319.20496,180.62423 324.67675,183.43441 C 330.14841,186.24473 334.75226,190.42704 338.48832,195.98136 L 321.32924,204.21375 C 319.27935,201.40355 316.97329,199.3124 314.41105,197.94028 C 311.84871,196.56827 308.98061,195.88224 305.80672,195.88218 C 299.88862,195.88224 295.22691,197.85768 291.82157,201.80851 C 288.41618,205.75944 286.7135,211.15678 286.71353,218.00053 C 286.7135,224.91047 288.41618,230.34914 291.82157,234.31653 C 295.22691,238.28396 299.88862,240.26767 305.80672,240.26766 C 310.83207,240.26767 315.02264,239.03612 318.37847,236.573 C 321.73419,234.10991 323.6931,230.82853 324.25521,226.72885 L 304.5669,226.72885 z "
       style="font-size:101.56587219px;font-style:normal;font-weight:normal;fill:#000000;fill-opacity:1;stroke:none;stroke-width:1px;stroke-linecap:butt;stroke-linejoin:miter;stroke-opacity:1;font-family:Futura Md BT"
       id="text5099" />
    <path
       d="M 303.12658,723.79263 L 283.7174,723.79263 L 283.7174,647.81659 L 305.35811,647.81659 C 313.83446,647.81666 319.78521,648.23183 323.21041,649.0621 C 326.63551,649.89251 329.54169,651.31101 331.92897,653.31759 C 334.73131,655.63568 336.8677,658.53322 338.33815,662.0102 C 339.80848,665.4873 340.54367,669.35357 340.54374,673.609 C 340.54367,678.14132 339.81713,682.12867 338.3641,685.57108 C 336.91094,689.01356 334.7659,691.8419 331.92897,694.05611 C 329.78387,695.71681 327.25826,696.91042 324.35212,697.63694 C 321.44589,698.36352 316.79254,698.72679 310.39205,698.72676 L 306.8631,698.72676 L 303.12658,698.72676 L 303.12658,723.79263 z M 303.12658,682.01619 L 307.07069,682.01619 C 312.05269,682.01623 315.52973,681.33293 317.50183,679.96629 C 319.47384,678.59973 320.45986,676.27305 320.45991,672.98625 C 320.45986,669.80333 319.49114,667.5372 317.55372,666.18784 C 315.61622,664.8386 312.19108,664.16395 307.27827,664.16389 L 303.12658,664.16389 L 303.12658,682.01619 z "
       style="font-size:106.28342438px;font-style:normal;font-weight:normal;fill:#000000;fill-opacity:1;stroke:none;stroke-width:1px;stroke-linecap:butt;stroke-linejoin:miter;stroke-opacity:1;font-family:Futura Md BT"
       id="text5103" />
    <path
       d="M 453.18441,816.35883 C 453.18441,825.6575 445.63768,833.2043 436.33894,833.2043 C 427.04026,833.2043 419.49347,825.6575 419.49347,816.35883 C 419.49347,807.06015 427.04026,799.51335 436.33894,799.51335 C 445.63768,799.51335 453.18441,807.06015 453.18441,816.35883 z "
       style="fill:#ffffff;fill-opacity:1;stroke:#000000;stroke-width:2.94542575;stroke-miterlimit:4;stroke-opacity:1"
       id="path8020" />
    <path
       d="M 428.13257,826.84951 L 428.13257,805.43174 L 434.23312,805.43174 C 436.62262,805.43177 438.28796,805.54149 439.22914,805.76091 C 440.1703,805.98038 440.98224,806.34855 441.66497,806.86545 C 442.43545,807.45065 443.02795,808.19676 443.44247,809.10378 C 443.85696,810.01083 444.06421,811.01052 444.06423,812.10285 C 444.06421,813.76089 443.65702,815.10925 442.84266,816.14794 C 442.02826,817.18666 440.84082,817.87669 439.28034,818.21804 L 445.11757,826.84951 L 438.5196,826.84951 L 433.60405,818.46674 L 433.60405,826.84951 L 428.13257,826.84951 z M 433.60405,815.55544 L 434.68664,815.55544 C 435.94478,815.55546 436.86401,815.34089 437.44433,814.91174 C 438.02462,814.48262 438.31478,813.80966 438.31479,812.89285 C 438.31478,811.82003 438.04413,811.05685 437.50285,810.60332 C 436.96154,810.14981 436.05206,809.92306 434.77442,809.92304 L 433.60405,809.92304 L 433.60405,815.55544 z "
       style="font-size:29.96147156px;font-style:normal;font-weight:normal;fill:#000000;fill-opacity:1;stroke:none;stroke-width:1px;stroke-linecap:butt;stroke-linejoin:miter;stroke-opacity:1;font-family:Futura Md BT"
       id="text8991" />
  </g>
</svg>
